<?xml version="1.0" encoding="utf-8"?>
<!-- Generator: Adobe Illustrator 19.2.0, SVG Export Plug-In . SVG Version: 6.00 Build 0)  -->
<svg version="1.1" id="Layer_1" xmlns:sketch="http://www.bohemiancoding.com/sketch/ns"
	 xmlns="http://www.w3.org/2000/svg" xmlns:xlink="http://www.w3.org/1999/xlink" x="0px" y="0px" viewBox="0 0 40 40"
	 style="enable-background:new 0 0 40 40;" xml:space="preserve">
<style type="text/css">
	.st0{fill:#DE484A;}
	.st1{fill:#FFFFFF;}
</style>
<title>bebo</title>
<desc>Created with Sketch.</desc>
<g id="Page-1" sketch:type="MSPage">
	<g id="bebo" sketch:type="MSLayerGroup">
		<rect id="bg" sketch:type="MSShapeGroup" class="st0" width="40" height="40">
		</rect>
		<path id="icon" sketch:type="MSShapeGroup" class="st1" d="M18.9,31.4c-5,0-9.1-4.1-9.1-9.1V10.9c0-1.3,1-2.3,2.3-2.3
			c1.3,0,2.3,1,2.3,2.3v11.4c0,2.5,2,4.6,4.6,4.6h2.3c2.5,0,4.6-1.8,4.6-4c0-2.2-1.2-4-2.3-4h-4.6c-1.3,0-2.3-1-2.3-2.3
			c0-1.3,1-2.3,2.3-2.3h4.6c3.8,0,6.8,3.8,6.8,8.5c0,4.7-4.1,8.5-9.1,8.5H18.9z"/>
	</g>
</g>
</svg>
