<?xml version="1.0" encoding="utf-8"?>
<!-- Generator: Adobe Illustrator 19.2.0, SVG Export Plug-In . SVG Version: 6.00 Build 0)  -->
<svg version="1.1" id="Layer_1" xmlns="http://www.w3.org/2000/svg" xmlns:xlink="http://www.w3.org/1999/xlink" x="0px" y="0px"
	 viewBox="0 0 40 40" style="enable-background:new 0 0 40 40;" xml:space="preserve">
<style type="text/css">
	.st0{fill:#FFFFFF;}
	.st1{clip-path:url(#SVGID_2_);}
	.st2{clip-path:url(#SVGID_4_);fill:#FFFFFF;}
	.st3{clip-path:url(#SVGID_6_);}
	.st4{clip-path:url(#SVGID_8_);fill:#414141;}
	.st5{clip-path:url(#SVGID_10_);}
	.st6{clip-path:url(#SVGID_12_);fill:#414141;}
	.st7{clip-path:url(#SVGID_14_);}
	.st8{clip-path:url(#SVGID_16_);enable-background:new    ;}
	.st9{clip-path:url(#SVGID_18_);}
	.st10{clip-path:url(#SVGID_20_);}
	.st11{clip-path:url(#SVGID_22_);fill:#414141;}
	.st12{clip-path:url(#SVGID_24_);}
	.st13{clip-path:url(#SVGID_26_);fill:#414141;}
	.st14{clip-path:url(#SVGID_28_);}
	.st15{clip-path:url(#SVGID_30_);fill:#414141;}
	.st16{clip-path:url(#SVGID_32_);}
	.st17{clip-path:url(#SVGID_34_);fill:#010101;}
	.st18{clip-path:url(#SVGID_36_);}
	.st19{clip-path:url(#SVGID_38_);enable-background:new    ;}
	.st20{clip-path:url(#SVGID_40_);}
	.st21{clip-path:url(#SVGID_42_);}
	.st22{clip-path:url(#SVGID_44_);fill:#414141;}
	.st23{clip-path:url(#SVGID_46_);}
	.st24{clip-path:url(#SVGID_48_);fill:#010101;}
	.st25{clip-path:url(#SVGID_50_);}
	.st26{clip-path:url(#SVGID_52_);fill:#414141;}
	.st27{clip-path:url(#SVGID_54_);}
	.st28{clip-path:url(#SVGID_56_);fill:#010101;}
	.st29{clip-path:url(#SVGID_58_);}
	.st30{clip-path:url(#SVGID_60_);enable-background:new    ;}
	.st31{clip-path:url(#SVGID_62_);}
	.st32{clip-path:url(#SVGID_64_);}
	.st33{clip-path:url(#SVGID_66_);fill:#414141;}
	.st34{clip-path:url(#SVGID_68_);}
	.st35{clip-path:url(#SVGID_70_);fill:#010101;}
	.st36{clip-path:url(#SVGID_72_);}
	.st37{clip-path:url(#SVGID_74_);fill:#414141;}
	.st38{clip-path:url(#SVGID_76_);}
	.st39{clip-path:url(#SVGID_78_);fill:#010101;}
	.st40{clip-path:url(#SVGID_80_);}
	.st41{clip-path:url(#SVGID_82_);enable-background:new    ;}
	.st42{clip-path:url(#SVGID_84_);}
	.st43{clip-path:url(#SVGID_86_);}
	.st44{clip-path:url(#SVGID_88_);fill:#414141;}
	.st45{clip-path:url(#SVGID_90_);}
	.st46{clip-path:url(#SVGID_92_);fill:#010101;}
	.st47{clip-path:url(#SVGID_94_);}
	.st48{clip-path:url(#SVGID_96_);fill:#010101;}
	.st49{clip-path:url(#SVGID_98_);}
	.st50{clip-path:url(#SVGID_100_);enable-background:new    ;}
	.st51{clip-path:url(#SVGID_102_);}
	.st52{clip-path:url(#SVGID_104_);}
	.st53{clip-path:url(#SVGID_106_);fill:#414141;}
	.st54{clip-path:url(#SVGID_108_);}
	.st55{clip-path:url(#SVGID_110_);fill:#010101;}
</style>
<rect class="st0" width="40" height="40"/>
<g>
	<defs>
		<rect id="SVGID_1_" x="382" y="-696" width="40" height="40"/>
	</defs>
	<clipPath id="SVGID_2_">
		<use xlink:href="#SVGID_1_"  style="overflow:visible;"/>
	</clipPath>
	<g class="st1">
		<defs>
			<rect id="SVGID_3_" x="-689" y="-1146" width="1400" height="2330"/>
		</defs>
		<clipPath id="SVGID_4_">
			<use xlink:href="#SVGID_3_"  style="overflow:visible;"/>
		</clipPath>
		<rect x="377" y="-701" class="st2" width="50" height="50"/>
	</g>
</g>
<g>
	<defs>
		<rect id="SVGID_5_" x="397.2" y="-669.3" width="8.2" height="1.6"/>
	</defs>
	<clipPath id="SVGID_6_">
		<use xlink:href="#SVGID_5_"  style="overflow:visible;"/>
	</clipPath>
	<g class="st3">
		<defs>
			<rect id="SVGID_7_" x="-689" y="-1146" width="1400" height="2330"/>
		</defs>
		<clipPath id="SVGID_8_">
			<use xlink:href="#SVGID_7_"  style="overflow:visible;"/>
		</clipPath>
		<rect x="392.2" y="-674.3" class="st4" width="18.2" height="11.6"/>
	</g>
</g>
<g>
	<defs>
		<path id="SVGID_9_" d="M395.5-687.4h13v3.2h1.6v-3.1v-0.1v-1.6h-1.5v0c0,0-0.1,0-0.1,0h-13c0,0-0.1,0-0.1,0v0h-1.5v1.6v0.1v3.1
			h1.6V-687.4z"/>
	</defs>
	<clipPath id="SVGID_10_">
		<use xlink:href="#SVGID_9_"  style="overflow:visible;"/>
	</clipPath>
	<g class="st5">
		<defs>
			<rect id="SVGID_11_" x="-689" y="-1146" width="1400" height="2330"/>
		</defs>
		<clipPath id="SVGID_12_">
			<use xlink:href="#SVGID_11_"  style="overflow:visible;"/>
		</clipPath>
		<rect x="388.9" y="-694" class="st6" width="26.2" height="14.9"/>
	</g>
</g>
<g>
	<defs>
		<rect id="SVGID_13_" x="389" y="-689" width="26" height="26"/>
	</defs>
	<clipPath id="SVGID_14_">
		<use xlink:href="#SVGID_13_"  style="overflow:visible;"/>
	</clipPath>
	<g class="st7">
		<defs>
			<rect id="SVGID_15_" x="-689" y="-1146" width="1400" height="2330"/>
		</defs>
		<clipPath id="SVGID_16_">
			<use xlink:href="#SVGID_15_"  style="overflow:visible;"/>
		</clipPath>
		<g class="st8">
			<g>
				<defs>
					<rect id="SVGID_17_" x="389" y="-683" width="26" height="20"/>
				</defs>
				<clipPath id="SVGID_18_">
					<use xlink:href="#SVGID_17_"  style="overflow:visible;"/>
				</clipPath>
				<g class="st9">
					<defs>
						<rect id="SVGID_19_" x="397.1" y="-672.8" width="9.7" height="1.6"/>
					</defs>
					<clipPath id="SVGID_20_">
						<use xlink:href="#SVGID_19_"  style="overflow:visible;"/>
					</clipPath>
					<g class="st10">
						<defs>
							<rect id="SVGID_21_" x="389" y="-689" width="26" height="26"/>
						</defs>
						<clipPath id="SVGID_22_">
							<use xlink:href="#SVGID_21_"  style="overflow:visible;"/>
						</clipPath>
						<rect x="392.1" y="-677.8" class="st11" width="19.7" height="11.6"/>
					</g>
				</g>
				<g class="st9">
					<defs>
						<path id="SVGID_23_" d="M413.4-682.5h-22.7c-0.9,0-1.6,0.7-1.6,1.6v9.8c0,0.9,0.7,1.6,1.6,1.6h3.2v4.7v0.1v1.6h1.5v0
							c0,0,0.1,0,0.1,0h13c0,0,0.1,0,0.1,0v0h1.5v-1.6v-0.1v-4.7h3.2c0.9,0,1.6-0.7,1.6-1.6v-9.8C415-681.8,414.3-682.5,413.4-682.5
							z M395.5-674.4h13v9.8h-13V-674.4z M411.7-677.6c-0.9,0-1.6-0.7-1.6-1.6c0-0.9,0.7-1.6,1.6-1.6c0.9,0,1.6,0.7,1.6,1.6
							C413.4-678.4,412.6-677.6,411.7-677.6z"/>
					</defs>
					<clipPath id="SVGID_24_">
						<use xlink:href="#SVGID_23_"  style="overflow:visible;"/>
					</clipPath>
					<g class="st12">
						<defs>
							<rect id="SVGID_25_" x="389" y="-689" width="26" height="26"/>
						</defs>
						<clipPath id="SVGID_26_">
							<use xlink:href="#SVGID_25_"  style="overflow:visible;"/>
						</clipPath>
						<rect x="384" y="-687.5" class="st13" width="36" height="29.5"/>
					</g>
				</g>
			</g>
		</g>
	</g>
</g>
<g>
	<defs>
		<rect id="SVGID_27_" x="415.2" y="-624.3" width="8.2" height="1.6"/>
	</defs>
	<clipPath id="SVGID_28_">
		<use xlink:href="#SVGID_27_"  style="overflow:visible;"/>
	</clipPath>
	<g class="st14">
		<defs>
			<rect id="SVGID_29_" x="-671" y="-1146.1" width="1400" height="2330"/>
		</defs>
		<clipPath id="SVGID_30_">
			<use xlink:href="#SVGID_29_"  style="overflow:visible;"/>
		</clipPath>
		<rect x="410.2" y="-629.3" class="st15" width="18.2" height="11.6"/>
	</g>
</g>
<g>
	<defs>
		<path id="SVGID_31_" d="M413.5-642.4h13v3.2h1.6v-3.1v-0.1v-1.6h-1.5v0c0,0-0.1,0-0.1,0h-13c0,0-0.1,0-0.1,0v0h-1.5v1.6v0.1v3.1
			h1.6V-642.4z"/>
	</defs>
	<clipPath id="SVGID_32_">
		<use xlink:href="#SVGID_31_"  style="overflow:visible;"/>
	</clipPath>
	<g class="st16">
		<defs>
			<rect id="SVGID_33_" x="-671" y="-1146.1" width="1400" height="2330"/>
		</defs>
		<clipPath id="SVGID_34_">
			<use xlink:href="#SVGID_33_"  style="overflow:visible;"/>
		</clipPath>
		<rect x="406.9" y="-649" class="st17" width="26.2" height="14.9"/>
	</g>
</g>
<g>
	<defs>
		<rect id="SVGID_35_" x="407" y="-644" width="26" height="26"/>
	</defs>
	<clipPath id="SVGID_36_">
		<use xlink:href="#SVGID_35_"  style="overflow:visible;"/>
	</clipPath>
	<g class="st18">
		<defs>
			<rect id="SVGID_37_" x="-671" y="-1146.1" width="1400" height="2330"/>
		</defs>
		<clipPath id="SVGID_38_">
			<use xlink:href="#SVGID_37_"  style="overflow:visible;"/>
		</clipPath>
		<g class="st19">
			<g>
				<defs>
					<rect id="SVGID_39_" x="407" y="-638" width="26" height="20"/>
				</defs>
				<clipPath id="SVGID_40_">
					<use xlink:href="#SVGID_39_"  style="overflow:visible;"/>
				</clipPath>
				<g class="st20">
					<defs>
						<rect id="SVGID_41_" x="415.1" y="-627.7" width="9.7" height="1.6"/>
					</defs>
					<clipPath id="SVGID_42_">
						<use xlink:href="#SVGID_41_"  style="overflow:visible;"/>
					</clipPath>
					<g class="st21">
						<defs>
							<rect id="SVGID_43_" x="407" y="-644" width="26" height="26"/>
						</defs>
						<clipPath id="SVGID_44_">
							<use xlink:href="#SVGID_43_"  style="overflow:visible;"/>
						</clipPath>
						<rect x="410.1" y="-632.7" class="st22" width="19.7" height="11.6"/>
					</g>
				</g>
				<g class="st20">
					<defs>
						<path id="SVGID_45_" d="M431.4-637.5h-22.7c-0.9,0-1.6,0.7-1.6,1.6v9.8c0,0.9,0.7,1.6,1.6,1.6h3.2v4.7v0.1v1.6h1.5v0
							c0,0,0.1,0,0.1,0h13c0,0,0.1,0,0.1,0v0h1.5v-1.6v-0.1v-4.7h3.2c0.9,0,1.6-0.7,1.6-1.6v-9.8C433-636.8,432.3-637.5,431.4-637.5
							z M413.5-629.4h13v9.8h-13V-629.4z M429.7-632.6c-0.9,0-1.6-0.7-1.6-1.6c0-0.9,0.7-1.6,1.6-1.6c0.9,0,1.6,0.7,1.6,1.6
							C431.4-633.3,430.6-632.6,429.7-632.6z"/>
					</defs>
					<clipPath id="SVGID_46_">
						<use xlink:href="#SVGID_45_"  style="overflow:visible;"/>
					</clipPath>
					<g class="st23">
						<defs>
							<rect id="SVGID_47_" x="407" y="-644" width="26" height="26"/>
						</defs>
						<clipPath id="SVGID_48_">
							<use xlink:href="#SVGID_47_"  style="overflow:visible;"/>
						</clipPath>
						<rect x="402" y="-642.5" class="st24" width="36" height="29.5"/>
					</g>
				</g>
			</g>
		</g>
	</g>
</g>
<g>
	<defs>
		<rect id="SVGID_49_" x="415.2" y="-624.3" width="8.2" height="1.6"/>
	</defs>
	<clipPath id="SVGID_50_">
		<use xlink:href="#SVGID_49_"  style="overflow:visible;"/>
	</clipPath>
	<g class="st25">
		<defs>
			<rect id="SVGID_51_" x="-671" y="-1146.1" width="1400" height="2330"/>
		</defs>
		<clipPath id="SVGID_52_">
			<use xlink:href="#SVGID_51_"  style="overflow:visible;"/>
		</clipPath>
		<rect x="410.2" y="-629.3" class="st26" width="18.2" height="11.6"/>
	</g>
</g>
<g>
	<defs>
		<path id="SVGID_53_" d="M413.5-642.4h13v3.2h1.6v-3.1v-0.1v-1.6h-1.5v0c0,0-0.1,0-0.1,0h-13c0,0-0.1,0-0.1,0v0h-1.5v1.6v0.1v3.1
			h1.6V-642.4z"/>
	</defs>
	<clipPath id="SVGID_54_">
		<use xlink:href="#SVGID_53_"  style="overflow:visible;"/>
	</clipPath>
	<g class="st27">
		<defs>
			<rect id="SVGID_55_" x="-671" y="-1146.1" width="1400" height="2330"/>
		</defs>
		<clipPath id="SVGID_56_">
			<use xlink:href="#SVGID_55_"  style="overflow:visible;"/>
		</clipPath>
		<rect x="406.9" y="-649" class="st28" width="26.2" height="14.9"/>
	</g>
</g>
<g>
	<defs>
		<rect id="SVGID_57_" x="407" y="-644" width="26" height="26"/>
	</defs>
	<clipPath id="SVGID_58_">
		<use xlink:href="#SVGID_57_"  style="overflow:visible;"/>
	</clipPath>
	<g class="st29">
		<defs>
			<rect id="SVGID_59_" x="-671" y="-1146.1" width="1400" height="2330"/>
		</defs>
		<clipPath id="SVGID_60_">
			<use xlink:href="#SVGID_59_"  style="overflow:visible;"/>
		</clipPath>
		<g class="st30">
			<g>
				<defs>
					<rect id="SVGID_61_" x="407" y="-638" width="26" height="20"/>
				</defs>
				<clipPath id="SVGID_62_">
					<use xlink:href="#SVGID_61_"  style="overflow:visible;"/>
				</clipPath>
				<g class="st31">
					<defs>
						<rect id="SVGID_63_" x="415.1" y="-627.7" width="9.7" height="1.6"/>
					</defs>
					<clipPath id="SVGID_64_">
						<use xlink:href="#SVGID_63_"  style="overflow:visible;"/>
					</clipPath>
					<g class="st32">
						<defs>
							<rect id="SVGID_65_" x="407" y="-644" width="26" height="26"/>
						</defs>
						<clipPath id="SVGID_66_">
							<use xlink:href="#SVGID_65_"  style="overflow:visible;"/>
						</clipPath>
						<rect x="410.1" y="-632.7" class="st33" width="19.7" height="11.6"/>
					</g>
				</g>
				<g class="st31">
					<defs>
						<path id="SVGID_67_" d="M431.4-637.5h-22.7c-0.9,0-1.6,0.7-1.6,1.6v9.8c0,0.9,0.7,1.6,1.6,1.6h3.2v4.7v0.1v1.6h1.5v0
							c0,0,0.1,0,0.1,0h13c0,0,0.1,0,0.1,0v0h1.5v-1.6v-0.1v-4.7h3.2c0.9,0,1.6-0.7,1.6-1.6v-9.8C433-636.8,432.3-637.5,431.4-637.5
							z M413.5-629.4h13v9.8h-13V-629.4z M429.7-632.6c-0.9,0-1.6-0.7-1.6-1.6c0-0.9,0.7-1.6,1.6-1.6c0.9,0,1.6,0.7,1.6,1.6
							C431.4-633.3,430.6-632.6,429.7-632.6z"/>
					</defs>
					<clipPath id="SVGID_68_">
						<use xlink:href="#SVGID_67_"  style="overflow:visible;"/>
					</clipPath>
					<g class="st34">
						<defs>
							<rect id="SVGID_69_" x="407" y="-644" width="26" height="26"/>
						</defs>
						<clipPath id="SVGID_70_">
							<use xlink:href="#SVGID_69_"  style="overflow:visible;"/>
						</clipPath>
						<rect x="402" y="-642.5" class="st35" width="36" height="29.5"/>
					</g>
				</g>
			</g>
		</g>
	</g>
</g>
<g>
	<defs>
		<rect id="SVGID_71_" x="415.2" y="-624.3" width="8.2" height="1.6"/>
	</defs>
	<clipPath id="SVGID_72_">
		<use xlink:href="#SVGID_71_"  style="overflow:visible;"/>
	</clipPath>
	<g class="st36">
		<defs>
			<rect id="SVGID_73_" x="-671" y="-1146.1" width="1400" height="2330"/>
		</defs>
		<clipPath id="SVGID_74_">
			<use xlink:href="#SVGID_73_"  style="overflow:visible;"/>
		</clipPath>
		<rect x="410.2" y="-629.3" class="st37" width="18.2" height="11.6"/>
	</g>
</g>
<g>
	<defs>
		<path id="SVGID_75_" d="M413.5-642.4h13v3.2h1.6v-3.1v-0.1v-1.6h-1.5v0c0,0-0.1,0-0.1,0h-13c0,0-0.1,0-0.1,0v0h-1.5v1.6v0.1v3.1
			h1.6V-642.4z"/>
	</defs>
	<clipPath id="SVGID_76_">
		<use xlink:href="#SVGID_75_"  style="overflow:visible;"/>
	</clipPath>
	<g class="st38">
		<defs>
			<rect id="SVGID_77_" x="-671" y="-1146.1" width="1400" height="2330"/>
		</defs>
		<clipPath id="SVGID_78_">
			<use xlink:href="#SVGID_77_"  style="overflow:visible;"/>
		</clipPath>
		<rect x="406.9" y="-649" class="st39" width="26.2" height="14.9"/>
	</g>
</g>
<g>
	<defs>
		<rect id="SVGID_79_" x="407" y="-644" width="26" height="26"/>
	</defs>
	<clipPath id="SVGID_80_">
		<use xlink:href="#SVGID_79_"  style="overflow:visible;"/>
	</clipPath>
	<g class="st40">
		<defs>
			<rect id="SVGID_81_" x="-671" y="-1146.1" width="1400" height="2330"/>
		</defs>
		<clipPath id="SVGID_82_">
			<use xlink:href="#SVGID_81_"  style="overflow:visible;"/>
		</clipPath>
		<g class="st41">
			<g>
				<defs>
					<rect id="SVGID_83_" x="407" y="-638" width="26" height="20"/>
				</defs>
				<clipPath id="SVGID_84_">
					<use xlink:href="#SVGID_83_"  style="overflow:visible;"/>
				</clipPath>
				<g class="st42">
					<defs>
						<rect id="SVGID_85_" x="415.1" y="-627.7" width="9.7" height="1.6"/>
					</defs>
					<clipPath id="SVGID_86_">
						<use xlink:href="#SVGID_85_"  style="overflow:visible;"/>
					</clipPath>
					<g class="st43">
						<defs>
							<rect id="SVGID_87_" x="407" y="-644" width="26" height="26"/>
						</defs>
						<clipPath id="SVGID_88_">
							<use xlink:href="#SVGID_87_"  style="overflow:visible;"/>
						</clipPath>
						<rect x="410.1" y="-632.7" class="st44" width="19.7" height="11.6"/>
					</g>
				</g>
				<g class="st42">
					<defs>
						<path id="SVGID_89_" d="M431.4-637.5h-22.7c-0.9,0-1.6,0.7-1.6,1.6v9.8c0,0.9,0.7,1.6,1.6,1.6h3.2v4.7v0.1v1.6h1.5v0
							c0,0,0.1,0,0.1,0h13c0,0,0.1,0,0.1,0v0h1.5v-1.6v-0.1v-4.7h3.2c0.9,0,1.6-0.7,1.6-1.6v-9.8C433-636.8,432.3-637.5,431.4-637.5
							z M413.5-629.4h13v9.8h-13V-629.4z M429.7-632.6c-0.9,0-1.6-0.7-1.6-1.6c0-0.9,0.7-1.6,1.6-1.6c0.9,0,1.6,0.7,1.6,1.6
							C431.4-633.3,430.6-632.6,429.7-632.6z"/>
					</defs>
					<clipPath id="SVGID_90_">
						<use xlink:href="#SVGID_89_"  style="overflow:visible;"/>
					</clipPath>
					<g class="st45">
						<defs>
							<rect id="SVGID_91_" x="407" y="-644" width="26" height="26"/>
						</defs>
						<clipPath id="SVGID_92_">
							<use xlink:href="#SVGID_91_"  style="overflow:visible;"/>
						</clipPath>
						<rect x="402" y="-642.5" class="st46" width="36" height="29.5"/>
					</g>
				</g>
			</g>
		</g>
	</g>
</g>
<g>
	<g>
		<defs>
			<path id="SVGID_93_" d="M13.5,8.6h13v3.2h1.6V8.8V8.6V7h-1.5v0c0,0-0.1,0-0.1,0h-13c0,0-0.1,0-0.1,0v0h-1.5v1.6v0.1v3.1h1.6V8.6z
				"/>
		</defs>
		<clipPath id="SVGID_94_">
			<use xlink:href="#SVGID_93_"  style="overflow:visible;"/>
		</clipPath>
		<g class="st47">
			<defs>
				<rect id="SVGID_95_" x="-1071" y="-495.1" width="1400" height="2330"/>
			</defs>
			<clipPath id="SVGID_96_">
				<use xlink:href="#SVGID_95_"  style="overflow:visible;"/>
			</clipPath>
			<rect x="6.9" y="2" class="st48" width="26.2" height="14.9"/>
		</g>
	</g>
	<g>
		<defs>
			<rect id="SVGID_97_" x="7" y="7" width="26" height="26"/>
		</defs>
		<clipPath id="SVGID_98_">
			<use xlink:href="#SVGID_97_"  style="overflow:visible;"/>
		</clipPath>
		<g class="st49">
			<defs>
				<rect id="SVGID_99_" x="-1071" y="-495.1" width="1400" height="2330"/>
			</defs>
			<clipPath id="SVGID_100_">
				<use xlink:href="#SVGID_99_"  style="overflow:visible;"/>
			</clipPath>
			<g class="st50">
				<g>
					<defs>
						<rect id="SVGID_101_" x="7" y="13" width="26" height="20"/>
					</defs>
					<clipPath id="SVGID_102_">
						<use xlink:href="#SVGID_101_"  style="overflow:visible;"/>
					</clipPath>
					<g class="st51">
						<defs>
							<rect id="SVGID_103_" x="15.1" y="23.2" width="9.7" height="1.6"/>
						</defs>
						<clipPath id="SVGID_104_">
							<use xlink:href="#SVGID_103_"  style="overflow:visible;"/>
						</clipPath>
						<g class="st52">
							<defs>
								<rect id="SVGID_105_" x="7" y="7" width="26" height="26"/>
							</defs>
							<clipPath id="SVGID_106_">
								<use xlink:href="#SVGID_105_"  style="overflow:visible;"/>
							</clipPath>
							<rect x="10.1" y="18.2" class="st53" width="19.7" height="11.6"/>
						</g>
					</g>
					<g class="st51">
						<defs>
							<path id="SVGID_107_" d="M31.4,13.5H8.6c-0.9,0-1.6,0.7-1.6,1.6v9.8c0,0.9,0.7,1.6,1.6,1.6h3.2v4.7v0.1V33h1.5v0
								c0,0,0.1,0,0.1,0h13c0,0,0.1,0,0.1,0v0h1.5v-1.6v-0.1v-4.7h3.2c0.9,0,1.6-0.7,1.6-1.6v-9.8C33,14.2,32.3,13.5,31.4,13.5z
								 M13.5,21.6h13v9.8h-13V21.6z M29.7,18.4c-0.9,0-1.6-0.7-1.6-1.6c0-0.9,0.7-1.6,1.6-1.6c0.9,0,1.6,0.7,1.6,1.6
								C31.4,17.6,30.6,18.4,29.7,18.4z"/>
						</defs>
						<clipPath id="SVGID_108_">
							<use xlink:href="#SVGID_107_"  style="overflow:visible;"/>
						</clipPath>
						<g class="st54">
							<defs>
								<rect id="SVGID_109_" x="7" y="7" width="26" height="26"/>
							</defs>
							<clipPath id="SVGID_110_">
								<use xlink:href="#SVGID_109_"  style="overflow:visible;"/>
							</clipPath>
							<rect x="2" y="8.5" class="st55" width="36" height="29.5"/>
						</g>
					</g>
				</g>
			</g>
		</g>
	</g>
	<rect x="15.1" y="23.2" width="9.7" height="1.6"/>
	<rect x="15.2" y="26.7" width="8.2" height="1.6"/>
</g>
</svg>
