<?xml version="1.0" encoding="utf-8"?>
<!-- Generator: Adobe Illustrator 19.2.0, SVG Export Plug-In . SVG Version: 6.00 Build 0)  -->
<svg version="1.1" id="Layer_1" xmlns:sketch="http://www.bohemiancoding.com/sketch/ns"
	 xmlns="http://www.w3.org/2000/svg" xmlns:xlink="http://www.w3.org/1999/xlink" x="0px" y="0px" viewBox="0 0 40 40"
	 style="enable-background:new 0 0 40 40;" xml:space="preserve">
<style type="text/css">
	.st0{fill:#7DC112;}
	.st1{fill:#FEFEFE;}
	.st2{fill:#FDFEFD;}
	.st3{fill:#7DC111;}
	.st4{fill:#7DC212;}
</style>
<title>spotify</title>
<desc>Created with Sketch.</desc>
<g id="Page-1" sketch:type="MSPage">
	<g id="spotify" sketch:type="MSLayerGroup">
		<rect id="bg" sketch:type="MSShapeGroup" class="st0" width="40" height="40">
		</rect>
		<g id="icon" transform="translate(120.000000, 119.743590)" sketch:type="MSShapeGroup">
			<path id="Shape" class="st1" d="M-100.6-110.2c5,0,9,2.8,10.4,6.9c1.4,4.1,0.1,8.8-3.2,11.4c-0.5,0.4-0.8,0.4-1.2-0.1
				c-3-3.8-8.8-4.6-12.7-1.6c-0.6,0.5-0.8,0.3-1.2-0.2c-2.3-3.5-2.6-7.1-0.7-10.8C-107.3-108.2-104.1-110-100.6-110.2L-100.6-110.2z
				"/>
			<path id="Shape_1_" class="st2" d="M-104.9-90.7c1.9-2,5.5-1.8,7,0.4c0.2,0.3,0.6,0.6-0.1,0.7C-100.5-89.1-102.8-89.5-104.9-90.7
				L-104.9-90.7z"/>
			<path id="Shape_2_" class="st3" d="M-93.2-101.9c-0.1-0.1-0.4-0.1-0.6-0.2c-3.7-1.8-7.5-2-11.4-1.2c-0.1,0-0.3,0.1-0.4,0.1
				c-0.6,0.1-1.1,0-1.3-0.7c-0.2-0.7,0.3-1,0.8-1.2c1.3-0.4,2.6-0.5,3.9-0.6c3.1-0.1,6.2,0.3,9,1.7c0.3,0.1,0.6,0.3,0.8,0.5
				c0.3,0.3,0.4,0.7,0.2,1.1C-92.3-102-92.7-101.8-93.2-101.9L-93.2-101.9z"/>
			<path id="Shape_3_" class="st0" d="M-101.4-102.2c2.5,0,4.9,0.5,7.1,1.8c0.5,0.3,1,0.6,0.7,1.3c-0.4,0.7-0.9,0.5-1.4,0.2
				c-3.1-1.6-6.3-1.9-9.7-1.2c-0.1,0-0.2,0-0.3,0.1c-0.5,0.1-1,0.1-1.2-0.5c-0.1-0.6,0.2-0.9,0.8-1
				C-104.1-102-102.8-102.2-101.4-102.2L-101.4-102.2z"/>
			<path id="Shape_4_" class="st4" d="M-101.1-98.7c1.8,0,3.8,0.4,5.6,1.4c0.4,0.2,0.9,0.5,0.6,1c-0.3,0.5-0.8,0.3-1.2,0.1
				c-2.6-1.4-5.3-1.5-8.2-1c-0.2,0-0.4,0.1-0.6,0.1c-0.4,0.1-0.8,0-0.9-0.5c-0.1-0.5,0.3-0.7,0.7-0.8
				C-103.8-98.5-102.6-98.7-101.1-98.7L-101.1-98.7z"/>
		</g>
	</g>
</g>
</svg>
