<?xml version="1.0" encoding="utf-8" ?>
<!-- Generator: Adobe Illustrator 27.2.0, SVG Export Plug-In . SVG Version: 6.00 Build 0)  -->
<svg
  version="1.2"
  baseProfile="tiny"
  id="Layer_1"
  xmlns="http://www.w3.org/2000/svg"
  xmlns:xlink="http://www.w3.org/1999/xlink"
  x="0px"
  y="0px"
  viewBox="0 0 40 40"
  overflow="visible"
  xml:space="preserve"
>
<path fill-rule="evenodd" fill="#FF0000" d="M1,13.9h38v-13H1V13.9z" />
<path fill-rule="evenodd" fill="#FFFFFE" d="M1,26.3h38V13.9H1V26.3z" />
<path fill-rule="evenodd" fill="#171796" d="M1,38.9h38v-13H1V38.9z" />
<path
    fill="#FF0000"
    d="M20,30L20,30c4.1,0,7.4-3.4,7.4-7.4v-8.8H12.6v8.8C12.6,26.7,15.9,30,20,30L20,30z"
  />
<path
    fill="#FFFFFF"
    d="M20,29.9L20,29.9c4,0,7.3-3.3,7.3-7.3v-8.7H12.7v8.7C12.7,26.6,16,29.9,20,29.9z"
  />
<path fill="#FF0000" d="M15.8,14.2H13v3.1h2.8V14.2z" />
<path fill="#FF0000" d="M15.8,20.3h2.8v-3.1h-2.8V20.3z" />
<path fill="#FF0000" d="M13,22.6c0,0.3,0,0.6,0,0.8h2.8v-3.1H13V22.6z" />
<path fill="#FF0000" d="M21.4,20.3h-2.8v3.1h2.8V20.3z" />
<path fill="#FF0000" d="M21.4,26.5h2.8v-3.1h-2.8V26.5z" />
<path fill="#FF0000" d="M24.2,28.2c0.6-0.5,1.2-1,1.6-1.7h-1.6V28.2z" />
<path fill="#FF0000" d="M15.8,26.5h2.8v-3.1h-2.8V26.5z" />
<path fill="#FF0000" d="M14.2,26.5c0.4,0.6,1,1.2,1.6,1.7v-1.7H14.2z" />
<path
    fill="#FF0000"
    d="M20.5,29.6c0.3,0,0.6-0.1,0.9-0.1v-3h-2.8v3c0.3,0.1,0.6,0.1,0.9,0.1C19.8,29.6,20.2,29.6,20.5,29.6
	L20.5,29.6z"
  />
<path
    fill="#FF0000"
    d="M27,23.4c0-0.3,0-0.6,0-0.8v-2.3h-2.8v3.1L27,23.4L27,23.4z"
  />
<path fill="#FF0000" d="M21.4,20.3h2.8v-3.1h-2.8V20.3z" />
<path fill="#FF0000" d="M21.4,14.2h-2.8v3.1h2.8V14.2z" />
<path fill="#FF0000" d="M27,17.3v-3.1h-2.8v3.1H27z" />
<path
    fill="#FFFFFF"
    d="M27.2,13.7l1.7-4l-1.3-2.1l-2.2,0.8l-1.5-1.8l-2,1.2L20,6.3l-1.8,1.5l-2-1.2l-1.5,1.8l-2.2-0.8l-1.3,2.1
	l1.7,4c2.2-1,4.6-1.5,7.2-1.5C22.6,12.1,25,12.7,27.2,13.7L27.2,13.7z"
  />
<path
    fill="#0093DD"
    d="M14.7,8.6L14.7,8.6l-2.2-0.8l-1.2,2l0.5,1.1l1.2,2.7c0.9-0.4,1.8-0.7,2.8-1L14.7,8.6L14.7,8.6z"
  />
<path
    fill="#FFFFFF"
    stroke="#000000"
    stroke-width="2.234361e-02"
    stroke-miterlimit="10"
    d="M14.5,10.5c0.1,0.1,0.1,0.3,0.1,0.5
	c0,0.6-0.5,1.1-1.1,1.1c-0.5,0-1-0.4-1-0.9c0.2,0.3,0.5,0.5,0.9,0.5c0.6,0,1.1-0.5,1.1-1.1C14.5,10.6,14.5,10.6,14.5,10.5L14.5,10.5
	z"
  />
<polygon
    points="13.6,9 13.5,9 13.5,9.4 13.8,9.7 13.8,9.7 13.8,9.7 13.4,9.8 13.3,10.2 13.3,10.2 13.3,10.2 13,10 12.6,10.1 
	12.6,10.1 12.6,10.1 12.7,9.7 12.4,9.4 12.4,9.4 12.4,9.4 12.8,9.3 12.9,8.9 12.9,8.9 12.9,8.9 13.2,9.2 13.5,9 "
  />
<path fill="#F7DB17" d="M13.1,9.6l0.3,0.2l0.3-0.1L13.1,9.6z" />
<path fill="#F7DB17" d="M13.1,9.6l0.6,0.1l-0.3-0.2L13.1,9.6z" />
<path fill="#F7DB17" d="M12.4,9.4l0.6,0.1l-0.3-0.2L12.4,9.4z" />
<path fill="#F7DB17" d="M13.1,9.6l-0.6-0.1l0.3,0.2L13.1,9.6z" />
<path fill="#F7DB17" d="M13.1,9.5l0.4-0.5l-0.3,0.1L13.1,9.5z" />
<path fill="#F7DB17" d="M12.7,10l0.4-0.5l-0.3,0.1L12.7,10z" />
<path fill="#F7DB17" d="M13.1,9.6l-0.4,0.5L13,9.9L13.1,9.6z" />
<path fill="#F7DB17" d="M13.5,9.1l-0.4,0.5l0.3-0.1L13.5,9.1z" />
<path fill="#F7DB17" d="M13.1,9.5l-0.2-0.6l-0.1,0.4L13.1,9.5z" />
<path fill="#F7DB17" d="M13.3,10.2l-0.2-0.6L13,9.9L13.3,10.2z" />
<path fill="#F7DB17" d="M13.1,9.6l0.2,0.6l0.1-0.4L13.1,9.6z" />
<path fill="#F7DB17" d="M12.9,8.9l0.2,0.6l0.1-0.4L12.9,8.9z" />
<path
    fill="#171796"
    d="M18.2,8L18.2,8l-2-1.2l-1.5,1.7l1,4c0.9-0.2,1.9-0.4,2.9-0.5L18.2,8L18.2,8z"
  />
<path
    fill="#FF0000"
    d="M15.4,11.5c1-0.3,2-0.4,3-0.5l-0.1-1c-1.1,0.1-2.2,0.3-3.2,0.5L15.4,11.5L15.4,11.5z"
  />
<path
    fill="#FF0000"
    d="M14.9,9.5C16,9.3,17.1,9.1,18.3,9l-0.1-1c-1.2,0.1-2.4,0.3-3.5,0.6L14.9,9.5z"
  />
<path
    fill="#0093DD"
    d="M21.8,8L21.8,8L20,6.5L18.2,8l0.3,4.1c0.5,0,1-0.1,1.5-0.1c0.5,0,1,0,1.5,0.1L21.8,8L21.8,8z"
  />
<path
    d="M20,9.8C20,9.8,20,9.8,20,9.8c0,0.1-0.1,0.1-0.1,0.1c0,0,0,0,0,0.1c0,0-0.1,0-0.1,0.1c0-0.1-0.1-0.1-0.2-0.1
	c0,0,0-0.1-0.1-0.1c0,0-0.1,0-0.1,0c0,0,0,0,0,0c0,0,0,0,0,0c0.1,0.1,0.1,0.2,0.2,0.2c0,0,0,0,0,0c0,0,0,0.1,0,0.1c0,0,0,0,0,0
	c0,0-0.1,0-0.1,0c0,0-0.1,0-0.1,0c0,0,0,0,0,0c0,0.1,0,0.2,0.1,0.3c0,0-0.1,0-0.1,0c0,0,0,0,0,0c0,0.1,0.1,0.1,0.2,0.1
	c0,0-0.1,0.1-0.1,0.1c0,0,0,0.1,0,0.1c0,0,0,0,0,0c0,0,0.1,0,0.2,0c0,0.1,0,0.1,0,0.2c0,0,0.1,0,0.1,0c0,0,0,0,0,0.1c0,0,0,0,0,0.1
	c0,0,0,0,0,0c0.1,0,0.1,0,0.2,0c0,0,0,0.1,0,0.1c0,0,0,0,0,0c0,0,0.1-0.1,0.1-0.1c0,0,0,0,0,0c0,0,0,0,0,0.1c0,0,0,0,0,0
	c0,0,0.1-0.1,0.1-0.1c0,0,0.1,0,0.1,0.1c0,0,0,0,0,0c0,0,0-0.1,0-0.1c0.1,0,0.1,0,0.2,0c0,0,0,0,0,0c0,0,0,0,0-0.1c0,0,0,0,0-0.1
	c0,0,0.1,0,0.1,0c0-0.1,0-0.1,0-0.2c0.1,0,0.1,0,0.2,0c0,0,0,0,0,0c0,0,0,0,0-0.1c0,0,0-0.1-0.1-0.1c0.1,0,0.1-0.1,0.2-0.1
	c0,0,0,0,0,0c0,0-0.1,0-0.1,0c0.1-0.1,0.1-0.2,0.1-0.3c0,0,0,0,0,0c0,0,0,0-0.1,0c0,0-0.1,0-0.1,0c0,0,0,0,0,0c0,0,0,0,0-0.1
	c0,0,0,0,0,0c0.1-0.1,0.1-0.2,0.1-0.2c0,0,0,0,0,0c0,0,0,0,0,0c0,0,0,0-0.1,0c0,0-0.1,0-0.1,0.1c-0.1,0-0.1,0-0.2,0.1
	c0,0,0-0.1-0.1-0.1c0,0,0-0.1,0-0.1C20.1,9.9,20,9.8,20,9.8C20,9.8,20,9.8,20,9.8L20,9.8z"
  />
<path
    fill="#F7DB17"
    d="M20.5,10.1C20.5,10,20.5,10.1,20.5,10.1C20.4,10.1,20.4,10.1,20.5,10.1C20.5,10.1,20.5,10.1,20.5,10.1
	L20.5,10.1C20.5,10.1,20.5,10.1,20.5,10.1C20.5,10.1,20.5,10.1,20.5,10.1L20.5,10.1z"
  />
<path
    fill="#F7DB17"
    d="M19.5,10.1C19.5,10,19.6,10.1,19.5,10.1C19.6,10.1,19.6,10.1,19.5,10.1C19.5,10.1,19.5,10.1,19.5,10.1
	C19.5,10.1,19.5,10.1,19.5,10.1L19.5,10.1z"
  />
<path
    fill="#F7DB17"
    d="M20.4,10.2C20.4,10.2,20.4,10.2,20.4,10.2C20.4,10.2,20.4,10.2,20.4,10.2C20.4,10.2,20.4,10.2,20.4,10.2
	C20.4,10.2,20.4,10.2,20.4,10.2z"
  />
<path
    fill="#F7DB17"
    d="M19.6,10.2C19.6,10.2,19.6,10.2,19.6,10.2C19.6,10.2,19.6,10.2,19.6,10.2C19.6,10.2,19.6,10.2,19.6,10.2
	C19.6,10.2,19.6,10.2,19.6,10.2z"
  />
<path
    fill="#F7DB17"
    d="M20.4,10.2c-0.1,0-0.3,0-0.4,0c-0.1,0-0.3,0-0.4,0c0,0,0,0,0,0c0.1,0,0.3,0,0.4,0
	C20.1,10.2,20.3,10.2,20.4,10.2C20.4,10.2,20.4,10.2,20.4,10.2L20.4,10.2z"
  />
<path
    fill="#F7DB17"
    d="M19.6,10.2c0.1,0,0.3,0,0.4,0c0.1,0,0.3,0,0.4,0l0,0c0,0,0,0,0,0c0,0,0,0,0-0.1c0,0,0,0,0,0c0,0,0,0,0,0
	l0.1-0.1c0,0-0.1,0-0.1,0c-0.1,0-0.1,0-0.1,0.1c0,0,0,0,0,0c-0.1,0-0.1,0-0.1,0.1c0,0,0,0,0,0c0,0,0,0,0,0c0,0,0-0.1,0,0
	c0,0,0,0,0,0c0,0,0,0,0,0c0,0,0,0,0,0c0,0-0.1-0.1-0.1-0.1c0,0-0.1,0.1-0.1,0.1c0,0,0,0,0,0c0,0,0,0,0,0c0,0,0,0,0,0c0,0,0,0,0,0
	c0,0,0,0,0,0c0,0,0,0,0,0c0-0.1-0.1-0.1-0.1-0.1c0,0,0,0,0,0c0,0,0-0.1-0.1-0.1c0,0-0.1,0-0.1,0L19.6,10.2C19.5,10,19.5,10,19.5,10
	C19.5,10,19.6,10,19.6,10.2C19.6,10.1,19.6,10.1,19.6,10.2C19.6,10.1,19.6,10.1,19.6,10.2L19.6,10.2L19.6,10.2z"
  />
<path
    fill="#F7DB17"
    d="M20.4,10.3C20.4,10.3,20.4,10.3,20.4,10.3C20.4,10.3,20.4,10.3,20.4,10.3C20.4,10.4,20.4,10.4,20.4,10.3
	C20.3,10.4,20.3,10.4,20.4,10.3C20.3,10.4,20.3,10.4,20.4,10.3C20.3,10.4,20.4,10.4,20.4,10.3C20.4,10.3,20.4,10.3,20.4,10.3
	C20.4,10.3,20.3,10.3,20.4,10.3c-0.1,0-0.1,0-0.1,0c0,0,0,0,0,0c0,0,0,0,0,0c0,0,0,0,0,0c0,0,0,0,0,0c0,0,0,0,0,0c0,0,0,0-0.1,0
	c0,0,0,0,0,0c0,0,0,0,0,0c0,0,0,0,0,0c0,0,0,0,0,0c0,0,0,0,0,0c0,0,0,0,0,0c0,0,0,0,0,0c0,0,0,0,0,0c0,0,0,0,0,0s0,0,0,0
	c0,0,0,0,0,0c0,0,0,0,0,0c0,0,0,0,0,0c0,0,0,0,0,0c0,0,0,0-0.1,0c0,0,0,0,0,0c0,0,0,0,0,0s0,0,0,0c0,0,0,0,0,0c0,0,0,0,0,0
	c0,0,0,0,0,0c0,0,0,0,0,0c0,0,0,0-0.1,0c0,0,0,0-0.1,0c0,0,0,0,0,0c0,0,0,0,0,0c0,0,0,0,0,0s0,0,0,0c0,0,0,0,0,0s0,0,0,0
	c0,0,0,0,0,0c0,0,0,0-0.1,0c0,0,0,0,0,0c0,0,0,0,0,0c0,0,0,0,0,0c0,0,0,0,0,0c0,0,0,0,0,0c0,0,0,0,0,0c0,0,0,0,0,0c0,0,0,0,0,0
	c0,0,0,0,0,0c0,0,0,0,0,0c0,0,0,0,0,0c0,0,0,0,0,0c0,0,0,0,0,0c0,0,0,0,0,0c0,0,0,0,0,0c0,0,0,0-0.1,0c0,0,0,0,0,0c0,0,0,0,0,0
	c0,0,0,0,0,0c0,0,0,0,0,0c0,0,0,0,0,0c0,0,0,0,0,0h0c0,0,0,0-0.1,0c0,0,0,0,0,0c0,0,0,0,0,0c0,0,0,0,0,0c0,0,0,0,0,0c0,0,0,0,0,0
	c0,0,0,0,0,0c0,0-0.1,0-0.1,0c0,0-0.1,0-0.1,0c0,0,0,0,0,0c0,0,0,0,0,0c0,0,0,0,0,0c0,0,0,0.1,0,0.1c0,0,0,0,0,0c0,0,0,0,0,0
	c0,0,0-0.1,0-0.1c0,0,0,0,0,0c0,0,0,0,0,0c0,0,0,0,0,0.1c0,0,0,0,0.1,0.1c0,0,0,0,0,0c0,0-0.1,0-0.1,0c0,0,0,0,0-0.1c0,0,0,0,0,0
	c0,0,0,0,0,0c0,0.1,0,0.2,0.1,0.2c0,0,0,0,0,0c0,0,0,0,0,0c0,0,0,0,0,0c0,0,0,0,0,0c0,0,0,0,0,0.1c0,0,0,0,0,0c0,0,0,0,0,0
	c0,0,0,0,0,0c0,0,0,0-0.1,0c0,0-0.1,0-0.1,0c0,0,0,0,0,0c0,0,0,0,0.1,0c0,0,0,0,0,0c0,0,0,0,0,0c0,0,0,0,0,0c0,0,0,0,0,0
	c0,0,0,0,0,0c0,0,0,0,0,0c0,0-0.1,0-0.1,0c0,0,0,0,0,0c0,0.1,0.1,0.1,0.2,0.1c0,0,0,0,0,0c0,0,0,0,0,0c0,0,0,0,0.1,0c0,0,0,0,0,0
	c0,0,0,0,0,0c0,0,0,0,0,0c0,0,0,0-0.1,0c0,0,0,0,0,0c0,0,0,0,0,0c0,0-0.1,0-0.1,0.1c0,0,0,0,0,0c0,0,0,0,0.1,0c0,0,0,0,0.1,0
	c0,0,0,0,0,0c0,0,0,0,0,0c0,0,0,0-0.1,0c0,0,0,0-0.1,0c0,0,0,0.1,0,0.1c0,0,0,0,0,0c0,0,0,0,0,0c0,0,0,0,0.1,0c0,0,0,0,0,0
	c0,0,0,0,0,0c0,0,0,0,0,0c0,0,0,0,0,0c0,0,0.1,0,0.1,0c0,0,0,0,0,0c0,0,0,0,0,0c0,0,0,0,0,0c0,0,0,0,0,0c0,0,0,0,0,0c0,0,0,0,0,0
	c0,0,0,0,0,0c0,0,0,0,0,0c0,0,0,0,0,0.1c0,0,0,0,0,0c0,0,0,0,0-0.1c0,0,0,0,0.1-0.1c0,0,0,0,0,0c0,0,0,0,0,0c0,0,0,0-0.1,0
	c0,0,0,0,0,0.1c0,0,0,0,0,0c0,0,0,0,0.1-0.1c0,0,0.1,0,0.1,0c0,0,0,0,0,0c0,0,0,0,0,0c0,0,0,0-0.1,0c0,0,0,0-0.1,0.1
	c0,0,0.1,0,0.1,0c0,0,0,0,0,0c0,0,0,0,0,0c0,0,0,0,0,0c0,0,0,0,0,0c0,0,0,0,0,0c0,0,0,0,0,0c0,0,0,0,0,0c0,0,0,0,0,0c0,0,0,0,0,0
	c0,0,0,0.1,0,0.1c0,0,0,0,0,0c0,0,0,0,0,0c0,0,0,0,0-0.1c0,0,0,0,0,0c0,0,0,0,0,0c0,0,0,0,0,0c0,0,0,0,0,0c0,0,0,0,0,0c0,0,0,0,0,0
	c0,0,0,0,0,0c0,0,0,0,0,0c0,0,0,0,0.1,0c0,0,0,0,0,0c0,0,0,0,0,0c0,0,0,0,0,0c0,0,0,0,0,0c0,0,0,0,0,0c0,0,0.1,0,0.1,0c0,0,0,0,0,0
	c0,0,0,0,0,0c0,0,0,0,0,0c0,0,0,0,0,0c0,0,0,0,0,0c0,0,0,0,0,0c0,0,0,0,0,0c0,0,0,0,0,0.1c0,0,0,0.1,0,0.1c0,0,0,0,0,0c0,0,0,0,0,0
	c0,0,0,0,0-0.1c0,0,0,0,0-0.1c0,0,0,0,0,0c0,0,0,0,0,0c0,0,0,0,0,0.1c0,0,0,0,0,0.1c0,0,0,0,0,0c0,0,0,0,0,0c0,0,0,0,0,0
	c0,0,0,0,0,0c0,0,0,0,0,0c0,0,0,0,0,0c0,0,0,0,0,0c0,0,0,0,0,0c0,0,0,0,0,0c0,0,0,0,0,0c0,0,0,0,0,0c0,0,0,0,0,0c0,0,0,0,0,0
	c0,0,0,0,0,0c0,0,0,0,0,0c0,0,0,0,0,0.1c0,0,0-0.1,0-0.1c0,0,0-0.1,0-0.1c0,0,0,0,0,0c0,0,0,0,0,0c0,0,0,0,0,0.1c0,0,0,0.1,0,0.1
	c0,0,0.1,0,0.1-0.1c0,0,0,0,0,0c0,0,0,0,0,0s0,0,0,0c0,0,0,0,0,0c0,0,0,0,0,0c0,0,0,0,0,0c0,0,0,0,0,0c0,0,0,0,0,0c0,0,0,0,0,0
	c0,0,0,0,0,0c0,0,0,0,0,0c0,0,0,0,0,0c0,0,0,0,0,0c0,0,0,0,0,0c0,0,0,0,0,0c0,0,0,0,0,0c0,0,0,0,0-0.1c0,0,0,0,0,0c0,0,0,0,0,0
	c0,0,0,0,0,0.1c0,0,0,0,0,0.1c0,0,0,0,0,0c0,0,0,0,0,0c0,0,0-0.1,0-0.1c0,0,0,0,0-0.1c0,0,0,0,0,0c0,0,0,0,0,0c0,0,0,0,0,0
	c0,0,0,0,0,0c0,0,0,0,0,0c0,0,0,0,0,0c0,0,0,0,0,0c0,0,0.1,0,0.1,0c0,0,0,0,0,0c0,0,0,0,0,0c0,0,0,0,0,0c0,0,0,0,0,0c0,0,0,0,0,0
	c0,0,0.1,0,0.1,0c0,0,0,0,0,0c0,0,0,0,0,0c0,0,0,0,0,0c0,0,0,0,0,0c0,0,0,0,0,0c0,0,0,0,0,0c0,0,0,0,0,0c0,0,0,0,0,0.1c0,0,0,0,0,0
	c0,0,0,0,0,0c0,0,0-0.1,0-0.1c0,0,0-0.1,0-0.1c0,0,0,0,0,0c0,0,0.1,0,0.1,0c0,0,0-0.1-0.1-0.1c0,0,0,0-0.1,0c0,0,0,0,0,0
	c0,0,0,0,0,0c0,0,0.1,0,0.1,0c0,0,0,0,0.1,0.1c0,0,0,0,0,0c0,0,0,0,0-0.1c0,0,0,0-0.1,0c0,0,0,0,0,0c0,0,0,0,0,0c0,0,0,0,0.1,0.1
	c0,0,0,0,0,0.1c0,0,0,0,0,0c0,0,0,0,0-0.1c0,0,0,0,0,0c0,0,0,0,0,0c0,0,0,0,0,0c0,0,0,0,0,0c0,0,0,0,0,0c0,0,0,0,0,0c0,0,0,0,0,0
	c0,0,0,0,0,0c0,0,0.1,0,0.1,0c0,0,0,0,0,0c0,0,0,0,0,0c0,0,0,0,0,0s0,0,0,0c0,0,0,0,0.1,0c0,0,0,0,0,0c0,0,0,0,0,0c0,0,0,0,0-0.1
	l0,0c0,0,0,0-0.1,0c0,0,0,0-0.1,0c0,0,0,0,0,0c0,0,0,0,0,0c0,0,0,0,0.1,0c0,0,0,0,0.1,0c0,0,0,0,0,0c0-0.1,0-0.1-0.1-0.1
	c0,0,0,0,0,0c0,0,0,0,0,0c0.1,0,0.1-0.1,0.2-0.1c0,0,0,0,0,0c0,0,0,0-0.1,0c0,0,0,0,0,0c0,0,0,0,0,0c0,0,0,0,0,0c0,0,0,0,0,0
	c0,0,0,0,0,0c0,0,0,0,0,0c0,0,0,0,0.1,0c0,0,0,0,0,0c0,0-0.1,0-0.1,0c0,0-0.1,0-0.1,0c0,0,0,0,0,0c0,0,0,0,0,0c0,0,0,0,0,0
	c0,0,0,0,0-0.1c0,0,0,0,0,0c0,0,0,0,0,0c0,0,0,0,0,0c0,0,0,0,0,0c0.1-0.1,0.1-0.1,0.1-0.2c0,0,0,0,0,0c0,0,0,0,0,0c0,0,0,0.1,0,0.1
	c0,0,0,0-0.1,0c0,0,0,0,0,0C20.5,10.4,20.5,10.4,20.4,10.3C20.5,10.4,20.5,10.4,20.4,10.3C20.5,10.3,20.5,10.3,20.4,10.3
	c0.1,0,0.1,0,0.1,0C20.5,10.4,20.5,10.4,20.4,10.3c0.1,0.1,0.1,0.1,0.1,0.1c0,0,0,0,0,0c0,0,0,0,0-0.1c0,0,0,0,0,0c0,0,0,0,0,0
	c0,0,0,0,0,0c0,0-0.1,0-0.1,0C20.5,10.3,20.4,10.3,20.4,10.3L20.4,10.3z"
  />
<path
    fill="#F7DB17"
    d="M20.4,10.3c-0.1,0-0.3,0-0.4,0c-0.1,0-0.3,0-0.4,0c0,0,0,0,0,0c0,0,0,0,0,0c0.1,0,0.2,0,0.4,0
	C20.1,10.3,20.3,10.3,20.4,10.3C20.4,10.3,20.4,10.3,20.4,10.3L20.4,10.3z"
  />
<path
    fill-rule="evenodd"
    fill="#F7DB17"
    d="M19.6,10.3c0.1,0,0.3,0,0.4,0c0.1,0,0.3,0,0.4,0l0,0c0,0,0,0,0,0c0,0,0,0,0,0s0,0,0,0
	c0,0,0,0,0,0l0,0c-0.1,0-0.3,0-0.4,0C19.9,10.2,19.7,10.2,19.6,10.3L19.6,10.3C19.6,10.2,19.6,10.2,19.6,10.3
	C19.6,10.2,19.6,10.2,19.6,10.3C19.6,10.2,19.6,10.3,19.6,10.3C19.6,10.3,19.6,10.3,19.6,10.3L19.6,10.3L19.6,10.3L19.6,10.3z
	 M20.2,10.2C20.2,10.2,20.2,10.2,20.2,10.2C20.2,10.2,20.2,10.2,20.2,10.2C20.2,10.2,20.2,10.2,20.2,10.2
	C20.2,10.2,20.2,10.2,20.2,10.2z M20.2,10.2C20.2,10.2,20.2,10.2,20.2,10.2C20.2,10.2,20.2,10.2,20.2,10.2
	C20.2,10.2,20.2,10.2,20.2,10.2C20.2,10.2,20.2,10.2,20.2,10.2z M20,10.2C20,10.2,20,10.2,20,10.2C20,10.2,20,10.2,20,10.2
	C20,10.2,20,10.2,20,10.2C20,10.2,20,10.2,20,10.2z M20,10.2C20,10.2,20,10.2,20,10.2C20,10.2,20,10.2,20,10.2
	C20,10.2,20,10.2,20,10.2C20,10.2,20,10.2,20,10.2z M19.8,10.2C19.8,10.2,19.8,10.2,19.8,10.2C19.8,10.2,19.8,10.2,19.8,10.2
	C19.8,10.2,19.8,10.2,19.8,10.2C19.8,10.2,19.8,10.2,19.8,10.2z M19.8,10.2C19.8,10.2,19.8,10.2,19.8,10.2
	C19.8,10.2,19.8,10.2,19.8,10.2C19.8,10.2,19.8,10.2,19.8,10.2C19.8,10.2,19.8,10.2,19.8,10.2z"
  />
<path
    d="M20,10.1C20,10,20,10,20,10.1C20,10,20,10,20,10.1C19.9,10,19.9,10,20,10.1C20,10,20,10,20,10.1c0-0.1,0-0.1,0-0.1
	c0,0,0,0,0,0C20,9.9,20,9.9,20,10.1C20,10,20.1,10,20,10.1C20.1,10,20.1,10,20,10.1C20.1,10,20,10,20,10.1C20,10,20,10,20,10.1
	C20,10.1,20,10.1,20,10.1L20,10.1z M20,10C20,10,20,10,20,10C20,10,20,10,20,10C20,10,20,10,20,10C20,10,20,10,20,10
	C20,10,20,10,20,10C20,10,20,10,20,10C20,10,20,10,20,10C20,10,20,10,20,10z"
  />
<path
    d="M20.2,11L20.2,11c-0.1,0-0.1,0-0.1,0c0,0,0,0,0,0L20.2,11C20.2,11,20.2,11,20.2,11C20.2,11,20.2,11,20.2,11z M20.2,10.9
	L20.1,11c0,0,0,0,0,0c0,0,0,0,0,0L20.2,10.9C20.2,10.9,20.2,10.9,20.2,10.9C20.2,10.9,20.2,10.9,20.2,10.9z M19.8,10.9l0.1,0.1
	c0,0,0,0,0,0c0,0,0,0,0,0L19.8,10.9C19.8,10.9,19.8,10.9,19.8,10.9C19.8,10.9,19.8,10.9,19.8,10.9z M19.8,11L19.8,11
	c0.1,0,0.1,0,0.1,0C19.9,11,19.9,11,19.8,11L19.8,11C19.8,11,19.8,11,19.8,11C19.8,11,19.8,11,19.8,11L19.8,11z M19.9,11.1
	C19.9,11.1,19.9,11.1,19.9,11.1c0.1,0,0.1,0,0.1,0V11c0,0,0,0-0.1,0c0,0,0,0,0,0c0,0,0,0,0-0.1c0,0,0,0,0,0c0,0,0,0,0,0
	c0,0,0,0,0,0.1c0,0,0,0,0,0c0,0,0,0,0.1,0c0,0,0,0,0.1,0c0,0,0,0,0,0s0,0,0,0c0,0,0,0,0,0c0,0,0,0,0,0c0,0,0,0,0,0c0,0,0,0,0,0
	c0,0,0,0,0,0c0,0,0,0,0,0c0,0,0,0,0,0c0,0,0,0,0,0c0,0,0,0,0,0c0,0,0,0,0,0c0,0,0,0,0,0c0,0,0,0,0,0c0,0,0,0-0.1,0V11c0,0,0,0,0,0
	c0,0,0,0,0,0c0,0,0,0,0.1,0c0,0,0,0,0,0c0,0,0,0,0,0c0,0-0.1,0-0.1,0c0,0,0,0,0,0C20,11.1,20,11.1,19.9,11.1
	C19.9,11.1,19.9,11.1,19.9,11.1C19.9,11.1,19.9,11.1,19.9,11.1C19.9,11.1,19.9,11.1,19.9,11.1L19.9,11.1z M19.9,11.1L19.9,11.1
	C20,11.1,20,11.1,19.9,11.1C20,11.1,20,11.1,19.9,11.1L19.9,11.1C19.9,11.1,19.9,11.1,19.9,11.1C19.9,11.1,19.9,11.1,19.9,11.1z"
  />
<path
    d="M20.1,10.5C20.1,10.5,20.1,10.5,20.1,10.5c0.1-0.1,0.1-0.1,0.1-0.1c0,0,0,0,0,0c0,0,0,0,0,0C20.2,10.5,20.2,10.5,20.1,10.5
	C20.1,10.5,20.1,10.5,20.1,10.5C20.1,10.5,20.1,10.5,20.1,10.5C20.1,10.5,20.1,10.5,20.1,10.5L20.1,10.5z M19.9,10.5
	C19.9,10.5,19.9,10.5,19.9,10.5c-0.1-0.1-0.1-0.1-0.2-0.1c0,0,0,0,0,0c0,0,0,0,0,0C19.8,10.4,19.8,10.4,19.9,10.5
	C19.9,10.5,19.9,10.5,19.9,10.5C20,10.5,20,10.5,19.9,10.5C20,10.5,19.9,10.5,19.9,10.5L19.9,10.5z M19.9,10.7
	C19.9,10.7,19.9,10.7,19.9,10.7C19.9,10.7,20,10.7,19.9,10.7C20,10.6,20,10.6,19.9,10.7C20,10.7,20,10.7,19.9,10.7
	C20,10.7,20,10.7,19.9,10.7C19.9,10.7,19.9,10.7,19.9,10.7C19.9,10.7,19.9,10.7,19.9,10.7C19.9,10.7,19.9,10.7,19.9,10.7z M20,10.4
	C20,10.4,20,10.4,20,10.4C20,10.5,20,10.5,20,10.4c0,0.1,0,0.1,0,0.1c0,0,0,0,0,0c0,0,0,0,0,0c0,0,0,0,0,0c0,0,0,0,0,0.1
	c0,0,0,0,0,0c0,0,0,0,0,0c0,0,0,0,0,0l0,0c0,0,0,0,0,0c0,0,0,0,0,0l0,0c0,0,0,0,0,0c0,0,0,0,0,0c0,0,0,0,0,0c0,0,0,0,0,0
	c0,0,0,0,0,0c0,0,0,0,0,0c0,0,0,0,0,0c0,0,0,0,0,0c0,0,0,0,0.1,0c0,0,0,0,0.1,0c0,0,0,0,0,0c0,0,0,0,0,0c0,0,0,0,0,0c0,0,0,0,0,0
	c0,0,0,0,0,0C20,10.5,20,10.5,20,10.4L20,10.4C20,10.5,20,10.5,20,10.4C20,10.4,20,10.4,20,10.4C20,10.4,20,10.4,20,10.4
	C20,10.4,20,10.4,20,10.4L20,10.4z M19.9,10.6C19.9,10.6,19.9,10.6,19.9,10.6c-0.1,0-0.1-0.1-0.1-0.1c0,0,0,0,0,0c0,0,0,0,0,0l0,0
	C19.8,10.6,19.8,10.6,19.9,10.6C19.8,10.6,19.9,10.6,19.9,10.6L19.9,10.6C19.9,10.6,19.9,10.6,19.9,10.6
	C19.9,10.6,19.9,10.6,19.9,10.6C19.9,10.6,19.9,10.6,19.9,10.6C19.9,10.6,19.9,10.6,19.9,10.6L19.9,10.6z M20.1,10.4
	C20,10.4,20,10.4,20.1,10.4C20,10.5,20,10.5,20.1,10.4L20.1,10.4c0,0.1,0,0.1,0,0.1c0,0,0,0,0,0c0,0,0,0,0,0c0,0,0,0,0,0
	c0,0,0,0,0,0c0,0,0,0,0,0c0,0,0,0,0.1,0c0,0,0,0,0.1,0c0,0,0,0,0,0c0,0,0,0,0,0c0,0,0,0,0,0c0,0,0,0,0,0c0,0,0,0,0,0c0,0,0,0,0,0
	c0,0,0,0,0,0c0,0,0,0,0,0l0,0c0,0,0,0,0,0c0,0,0,0,0,0l0,0c0,0,0,0,0,0c0,0,0,0,0,0c0,0,0,0,0,0c0,0,0,0,0-0.1c0,0,0,0,0,0
	c0,0,0,0,0,0c0,0,0,0,0,0C20,10.5,20,10.5,20.1,10.4C20,10.5,20,10.5,20.1,10.4C20,10.4,20,10.4,20.1,10.4
	C20,10.4,20,10.4,20.1,10.4C20.1,10.4,20.1,10.4,20.1,10.4L20.1,10.4z M20.2,10.5C20.2,10.5,20.2,10.5,20.2,10.5
	c-0.1,0-0.1,0-0.1,0.1c0,0,0,0,0,0c0,0,0,0,0,0.1c0,0,0,0,0,0C20.1,10.6,20.1,10.6,20.2,10.5L20.2,10.5
	C20.2,10.6,20.2,10.6,20.2,10.5C20.2,10.6,20.2,10.6,20.2,10.5L20.2,10.5C20.2,10.6,20.2,10.6,20.2,10.5
	C20.2,10.6,20.2,10.5,20.2,10.5L20.2,10.5z"
  />
<path
    fill-rule="evenodd"
    d="M20.2,10.6C20.1,10.6,20.1,10.6,20.2,10.6C20.1,10.6,20.1,10.6,20.2,10.6
	C20.2,10.6,20.2,10.6,20.2,10.6C20.2,10.6,20.2,10.6,20.2,10.6z M20.2,10.6C20.2,10.6,20.1,10.6,20.2,10.6
	C20.1,10.6,20.2,10.6,20.2,10.6C20.2,10.6,20.2,10.6,20.2,10.6C20.2,10.6,20.2,10.6,20.2,10.6z M20.2,10.6
	C20.2,10.6,20.2,10.6,20.2,10.6C20.2,10.6,20.2,10.6,20.2,10.6C20.2,10.6,20.2,10.6,20.2,10.6C20.2,10.6,20.2,10.6,20.2,10.6z
	 M19.8,10.6C19.9,10.6,19.9,10.6,19.8,10.6C19.9,10.6,19.9,10.6,19.8,10.6C19.8,10.6,19.8,10.6,19.8,10.6
	C19.8,10.6,19.8,10.6,19.8,10.6z M19.8,10.6C19.9,10.6,19.9,10.6,19.8,10.6C19.9,10.6,19.9,10.6,19.8,10.6
	C19.8,10.6,19.8,10.6,19.8,10.6C19.8,10.6,19.8,10.6,19.8,10.6z M19.8,10.6C19.9,10.6,19.9,10.6,19.8,10.6
	C19.9,10.6,19.9,10.6,19.8,10.6C19.8,10.6,19.8,10.6,19.8,10.6C19.8,10.6,19.8,10.6,19.8,10.6z"
  />
<path
    d="M19.2,8C19.2,8,19.2,8,19.2,8c0,0.1-0.1,0.1-0.1,0.1c0,0,0,0,0,0.1c0,0-0.1,0-0.1,0.1c0-0.1-0.1-0.1-0.2-0.1
	c0,0,0-0.1-0.1-0.1c0,0-0.1,0-0.1,0c0,0,0,0,0,0c0,0,0,0,0,0c0.1,0.1,0.1,0.2,0.2,0.2c0,0,0,0,0,0c0,0,0,0,0,0.1c0,0,0,0,0,0
	c0,0-0.1,0-0.1,0c0,0-0.1,0-0.1,0c0,0,0,0,0,0c0,0.1,0,0.2,0.1,0.3c0,0-0.1,0-0.1,0c0,0,0,0,0,0c0,0.1,0.1,0.1,0.2,0.1
	c0,0-0.1,0.1-0.1,0.1c0,0,0,0.1,0,0.1c0,0,0,0,0,0c0,0,0.1,0,0.2,0c0,0.1,0,0.1,0,0.2c0,0,0.1,0,0.1,0c0,0,0,0,0,0.1c0,0,0,0,0,0.1
	c0,0,0,0,0,0c0.1,0,0.1,0,0.2,0c0,0,0,0.1,0,0.1c0,0,0,0,0,0c0,0,0.1-0.1,0.1-0.1c0,0,0,0,0,0c0,0,0,0,0,0.1c0,0,0,0,0,0
	c0,0,0.1-0.1,0.1-0.1c0,0,0.1,0,0.1,0.1c0,0,0,0,0,0c0,0,0-0.1,0-0.1c0.1,0,0.1,0,0.2,0c0,0,0,0,0,0c0,0,0,0,0-0.1c0,0,0,0,0-0.1
	c0,0,0.1,0,0.1,0c0-0.1,0-0.1,0-0.2c0.1,0,0.1,0,0.2,0c0,0,0,0,0,0c0,0,0,0,0-0.1c0,0,0-0.1-0.1-0.1c0.1,0,0.1-0.1,0.1-0.2
	c0,0,0,0,0,0c0,0-0.1,0-0.1,0c0.1-0.1,0.1-0.2,0.1-0.3c0,0,0,0,0,0c0,0,0,0-0.1,0c0,0-0.1,0-0.1,0c0,0,0,0,0,0c0,0,0,0,0-0.1
	c0,0,0,0,0,0c0-0.1,0.1-0.2,0.1-0.3c0,0,0,0,0,0c0,0,0,0,0,0c0,0,0,0-0.1,0c0,0-0.1,0-0.1,0.1c-0.1,0-0.1,0-0.2,0.1
	c0,0,0-0.1-0.1-0.1c0,0,0-0.1,0-0.1C19.3,8,19.2,8,19.2,8C19.2,8,19.2,8,19.2,8L19.2,8z"
  />
<g>
	<path
      fill="#F7DB17"
      d="M19.7,8.2C19.7,8.2,19.6,8.2,19.7,8.2C19.6,8.2,19.6,8.3,19.7,8.2C19.6,8.3,19.7,8.3,19.7,8.2L19.7,8.2
		C19.7,8.2,19.7,8.2,19.7,8.2C19.7,8.2,19.7,8.2,19.7,8.2L19.7,8.2z"
    />
	<path
      fill="#F7DB17"
      d="M18.7,8.2C18.7,8.2,18.7,8.2,18.7,8.2C18.8,8.3,18.8,8.3,18.7,8.2C18.7,8.3,18.7,8.3,18.7,8.2
		C18.7,8.3,18.7,8.2,18.7,8.2L18.7,8.2z"
    />
	<path
      fill="#F7DB17"
      d="M19.6,8.4C19.6,8.4,19.6,8.4,19.6,8.4C19.6,8.4,19.6,8.4,19.6,8.4C19.6,8.4,19.6,8.4,19.6,8.4
		C19.6,8.4,19.6,8.4,19.6,8.4z"
    />
	<path
      fill="#F7DB17"
      d="M18.8,8.4C18.8,8.4,18.8,8.4,18.8,8.4C18.8,8.4,18.8,8.4,18.8,8.4C18.8,8.4,18.8,8.4,18.8,8.4
		C18.8,8.4,18.8,8.4,18.8,8.4z"
    />
	<path
      fill="#F7DB17"
      d="M19.6,8.3c-0.1,0-0.3,0-0.4,0c-0.1,0-0.3,0-0.4,0c0,0,0,0,0,0c0.1,0,0.3,0,0.4,0
		C19.3,8.3,19.5,8.3,19.6,8.3C19.6,8.3,19.6,8.3,19.6,8.3L19.6,8.3z"
    />
	<path
      fill="#F7DB17"
      d="M18.8,8.3c0.1,0,0.3,0,0.4,0c0.1,0,0.3,0,0.4,0l0,0c0,0,0,0,0,0c0,0,0,0,0-0.1c0,0,0,0,0,0c0,0,0,0,0,0
		l0.1-0.1c0,0-0.1,0-0.1,0.1c-0.1,0-0.1,0-0.1,0.1c0,0,0,0,0,0c-0.1,0-0.1,0-0.1,0.1c0,0,0,0,0,0c0,0,0,0,0,0c0,0,0-0.1,0,0
		c0,0,0,0,0,0c0,0,0,0,0,0c0,0,0,0,0,0c0,0-0.1-0.1-0.1-0.1c0,0-0.1,0.1-0.1,0.1c0,0,0,0,0,0c0,0,0,0,0,0c0,0,0,0,0,0c0,0,0,0,0,0
		c0,0,0,0,0,0c0,0,0,0,0,0c0-0.1-0.1-0.1-0.1-0.1c0,0,0,0,0,0c0,0,0,0-0.1-0.1c0,0-0.1,0-0.1,0L18.8,8.3c-0.1-0.1-0.1-0.1-0.1-0.1
		C18.7,8.2,18.7,8.2,18.8,8.3C18.8,8.3,18.8,8.3,18.8,8.3C18.8,8.3,18.7,8.3,18.8,8.3L18.8,8.3L18.8,8.3z"
    />
	<path
      fill="#F7DB17"
      d="M19.6,8.5C19.6,8.5,19.6,8.5,19.6,8.5C19.6,8.5,19.6,8.5,19.6,8.5C19.6,8.5,19.6,8.5,19.6,8.5
		C19.5,8.5,19.5,8.5,19.6,8.5C19.5,8.5,19.5,8.5,19.6,8.5C19.5,8.5,19.6,8.5,19.6,8.5C19.6,8.5,19.6,8.5,19.6,8.5
		C19.6,8.5,19.5,8.5,19.6,8.5c-0.1,0-0.1,0-0.1,0c0,0,0,0,0,0c0,0,0,0,0,0c0,0,0,0,0,0c0,0,0,0,0,0c0,0,0,0,0,0c0,0,0,0-0.1,0
		c0,0,0,0,0,0c0,0,0,0,0,0c0,0,0,0,0,0c0,0,0,0,0,0c0,0,0,0,0,0c0,0,0,0,0,0c0,0,0,0,0,0c0,0,0,0,0,0c0,0,0,0,0,0c0,0,0,0,0,0
		c0,0,0,0,0,0c0,0,0,0,0,0c0,0,0,0,0,0c0,0,0,0,0,0c0,0,0,0-0.1,0c0,0,0,0,0,0c0,0,0,0,0,0c0,0,0,0,0,0c0,0,0,0,0,0c0,0,0,0,0,0
		c0,0,0,0,0,0c0,0,0,0,0,0c0,0,0,0-0.1,0c0,0,0,0-0.1,0c0,0,0,0,0,0c0,0,0,0,0,0c0,0,0,0,0,0c0,0,0,0,0,0c0,0,0,0,0,0c0,0,0,0,0,0
		c0,0,0,0,0,0c0,0,0,0-0.1,0c0,0,0,0,0,0c0,0,0,0,0,0c0,0,0,0,0,0c0,0,0,0,0,0c0,0,0,0,0,0c0,0,0,0,0,0c0,0,0,0,0,0c0,0,0,0,0,0
		c0,0,0,0,0,0c0,0,0,0,0,0c0,0,0,0,0,0s0,0,0,0c0,0,0,0,0,0s0,0,0,0c0,0,0,0,0,0c0,0,0,0-0.1,0c0,0,0,0,0,0c0,0,0,0,0,0c0,0,0,0,0,0
		c0,0,0,0,0,0c0,0,0,0,0,0c0,0,0,0,0,0l0,0c0,0,0,0-0.1,0c0,0,0,0,0,0c0,0,0,0,0,0c0,0,0,0,0,0s0,0,0,0c0,0,0,0,0,0c0,0,0,0,0,0
		c0,0-0.1,0-0.1,0c0,0-0.1,0-0.1,0c0,0,0,0,0,0c0,0,0,0,0,0c0,0,0,0,0,0c0,0,0,0.1,0,0.1c0,0,0,0,0,0c0,0,0,0,0,0c0,0,0-0.1,0-0.1
		c0,0,0,0,0,0c0,0,0,0,0,0c0,0,0,0,0,0.1c0,0,0,0,0.1,0.1c0,0,0,0,0,0c0,0-0.1,0-0.1,0c0,0,0,0,0-0.1c0,0,0,0,0,0c0,0,0,0,0,0
		c0,0.1,0,0.2,0.1,0.2c0,0,0,0,0,0c0,0,0,0,0,0c0,0,0,0,0,0c0,0,0,0,0,0c0,0,0,0,0,0c0,0,0,0,0,0c0,0,0,0,0,0c0,0,0,0,0,0
		c0,0,0,0-0.1,0c0,0-0.1,0-0.1,0c0,0,0,0,0,0c0,0,0,0,0.1,0c0,0,0,0,0,0c0,0,0,0,0,0c0,0,0,0,0,0c0,0,0,0,0,0c0,0,0,0,0,0
		c0,0,0,0,0,0c0,0-0.1,0-0.1,0c0,0,0,0,0,0c0,0.1,0.1,0.1,0.2,0.1c0,0,0,0,0,0c0,0,0,0,0,0c0,0,0,0,0.1,0c0,0,0,0,0,0c0,0,0,0,0,0
		c0,0,0,0,0,0c0,0,0,0-0.1,0c0,0,0,0,0,0c0,0,0,0,0,0c0,0-0.1,0-0.1,0.1c0,0,0,0,0,0c0,0,0,0,0.1,0c0,0,0,0,0.1,0c0,0,0,0,0,0
		c0,0,0,0,0,0c0,0,0,0-0.1,0c0,0,0,0-0.1,0.1c0,0,0,0.1,0,0.1c0,0,0,0,0,0c0,0,0,0,0,0c0,0,0,0,0.1,0c0,0,0,0,0,0s0,0,0,0
		c0,0,0,0,0,0c0,0,0,0,0,0c0,0,0.1,0,0.1,0c0,0,0,0,0,0c0,0,0,0,0,0c0,0,0,0,0,0c0,0,0,0,0,0c0,0,0,0,0,0c0,0,0,0,0,0c0,0,0,0,0,0
		c0,0,0,0,0,0c0,0,0,0,0,0.1c0,0,0,0,0,0c0,0,0,0,0-0.1c0,0,0,0,0.1-0.1c0,0,0,0,0,0c0,0,0,0,0,0c0,0,0,0-0.1,0c0,0,0,0,0,0.1
		c0,0,0,0,0,0c0,0,0,0,0.1-0.1c0,0,0.1,0,0.1,0c0,0,0,0,0,0s0,0,0,0c0,0,0,0-0.1,0c0,0,0,0-0.1,0.1c0,0,0.1,0,0.1,0c0,0,0,0,0,0
		c0,0,0,0,0,0c0,0,0,0,0,0c0,0,0,0,0,0c0,0,0,0,0,0c0,0,0,0,0,0c0,0,0,0,0,0c0,0,0,0,0,0c0,0,0,0,0,0c0,0,0,0.1,0,0.1c0,0,0,0,0,0
		c0,0,0,0,0,0c0,0,0,0,0-0.1c0,0,0,0,0,0c0,0,0,0,0,0c0,0,0,0,0,0c0,0,0,0,0,0c0,0,0,0,0,0c0,0,0,0,0,0c0,0,0,0,0,0c0,0,0,0,0,0
		c0,0,0,0,0.1,0c0,0,0,0,0,0c0,0,0,0,0,0s0,0,0,0c0,0,0,0,0,0c0,0,0,0,0,0c0,0,0.1,0,0.1,0c0,0,0,0,0,0c0,0,0,0,0,0c0,0,0,0,0,0
		c0,0,0,0,0,0c0,0,0,0,0,0c0,0,0,0,0,0c0,0,0,0,0,0c0,0,0,0,0,0.1c0,0,0,0.1,0,0.1c0,0,0,0,0,0c0,0,0,0,0,0c0,0,0,0,0-0.1
		c0,0,0,0,0-0.1c0,0,0,0,0,0c0,0,0,0,0,0c0,0,0,0,0,0.1c0,0,0,0,0,0.1c0,0,0,0,0,0c0,0,0,0,0,0c0,0,0,0,0,0c0,0,0,0,0,0s0,0,0,0
		c0,0,0,0,0,0c0,0,0,0,0,0c0,0,0,0,0,0c0,0,0,0,0,0c0,0,0,0,0,0c0,0,0,0,0,0s0,0,0,0c0,0,0,0,0,0c0,0,0,0,0,0c0,0,0,0,0,0
		c0,0,0,0,0,0.1c0,0,0-0.1,0-0.1c0,0,0-0.1,0-0.1c0,0,0,0,0,0c0,0,0,0,0,0c0,0,0,0,0,0.1c0,0,0,0.1,0,0.1c0,0,0.1-0.1,0.1-0.1
		c0,0,0,0,0,0c0,0,0,0,0,0c0,0,0,0,0,0c0,0,0,0,0,0c0,0,0,0,0,0c0,0,0,0,0,0c0,0,0,0,0,0c0,0,0,0,0,0c0,0,0,0,0,0c0,0,0,0,0,0
		c0,0,0,0,0,0c0,0,0,0,0,0c0,0,0,0,0,0c0,0,0,0,0,0c0,0,0,0,0,0c0,0,0,0,0,0c0,0,0,0,0-0.1c0,0,0,0,0,0c0,0,0,0,0,0c0,0,0,0,0,0.1
		c0,0,0,0,0,0.1c0,0,0,0,0,0c0,0,0,0,0,0c0,0,0-0.1,0-0.1c0,0,0,0,0-0.1c0,0,0,0,0,0c0,0,0,0,0,0c0,0,0,0,0,0c0,0,0,0,0,0
		c0,0,0,0,0,0c0,0,0,0,0,0c0,0,0,0,0,0c0,0,0.1,0,0.1,0c0,0,0,0,0,0c0,0,0,0,0,0c0,0,0,0,0,0s0,0,0,0c0,0,0,0,0,0c0,0,0.1,0,0.1,0
		c0,0,0,0,0,0c0,0,0,0,0,0c0,0,0,0,0,0c0,0,0,0,0,0c0,0,0,0,0,0c0,0,0,0,0,0c0,0,0,0,0.1,0c0,0,0,0,0,0c0,0,0,0,0,0c0,0,0,0,0,0
		c0,0,0-0.1,0-0.1c0,0,0-0.1,0-0.1c0,0,0,0,0,0c0,0,0.1,0,0.1,0c0,0,0,0-0.1-0.1c0,0,0,0-0.1,0c0,0,0,0,0,0c0,0,0,0,0,0
		c0,0,0.1,0,0.1,0c0,0,0,0,0.1,0.1c0,0,0,0,0,0c0,0,0,0,0-0.1c0,0,0,0-0.1,0c0,0,0,0,0,0c0,0,0,0,0,0c0,0,0,0,0.1,0c0,0,0,0,0,0.1
		c0,0,0,0,0,0c0,0,0,0,0-0.1c0,0,0,0,0,0c0,0,0,0,0,0c0,0,0,0,0,0c0,0,0,0,0,0c0,0,0,0,0,0c0,0,0,0,0,0c0,0,0,0,0,0c0,0,0,0,0,0
		c0,0,0.1,0,0.1,0c0,0,0,0,0,0c0,0,0,0-0.1,0c0,0,0,0,0,0c0,0,0,0,0,0c0,0,0,0,0.1,0c0,0,0,0,0.1,0c0,0,0,0,0,0c0,0,0,0,0-0.1l0,0
		c0,0,0,0-0.1,0c0,0,0,0-0.1,0c0,0,0,0,0,0c0,0,0,0,0,0c0,0,0,0,0.1,0c0,0,0,0,0.1,0c0,0,0,0,0,0c0-0.1,0-0.1-0.1-0.1c0,0,0,0,0,0
		c0,0,0,0,0,0c0.1,0,0.1-0.1,0.2-0.1c0,0,0,0,0,0c0,0,0,0-0.1,0c0,0,0,0,0,0c0,0,0,0,0,0c0,0,0,0,0,0c0,0,0,0,0,0c0,0,0,0,0,0
		c0,0,0,0,0,0c0,0,0,0,0.1,0c0,0,0,0,0,0c0,0-0.1,0-0.1,0c0,0-0.1,0-0.1,0c0,0,0,0,0,0c0,0,0,0,0,0c0,0,0,0,0,0c0,0,0,0,0-0.1
		c0,0,0,0,0,0c0,0,0,0,0,0c0,0,0,0,0,0c0,0,0,0,0,0c0-0.1,0.1-0.1,0.1-0.2c0,0,0,0,0,0c0,0,0,0,0,0c0,0,0,0.1,0,0.1c0,0,0,0-0.1,0
		c0,0,0,0,0,0C19.7,8.6,19.7,8.6,19.6,8.5C19.7,8.5,19.7,8.5,19.6,8.5C19.7,8.5,19.7,8.5,19.6,8.5c0.1,0,0.1,0,0.1,0
		C19.7,8.5,19.7,8.5,19.6,8.5c0.1,0.1,0.1,0.1,0.1,0.1c0,0,0,0,0,0c0,0,0,0,0-0.1c0,0,0,0,0,0c0,0,0,0,0,0c0,0,0,0,0,0
		c0,0-0.1,0-0.1,0C19.7,8.4,19.6,8.5,19.6,8.5L19.6,8.5z"
    />
	<path
      fill="#F7DB17"
      d="M19.6,8.4c-0.1,0-0.3,0-0.4,0c-0.1,0-0.3,0-0.4,0c0,0,0,0,0,0c0,0,0,0,0,0c0.1,0,0.2,0,0.4,0
		C19.3,8.4,19.5,8.4,19.6,8.4C19.6,8.5,19.6,8.4,19.6,8.4L19.6,8.4z"
    />
	<path
      fill-rule="evenodd"
      fill="#F7DB17"
      d="M18.8,8.5c0.1,0,0.3,0,0.4,0c0.1,0,0.3,0,0.4,0l0,0c0,0,0,0,0,0c0,0,0,0,0,0
		c0,0,0,0,0,0c0,0,0,0,0,0l0,0c-0.1,0-0.3,0-0.4,0C19.1,8.3,18.9,8.4,18.8,8.5L18.8,8.5C18.8,8.4,18.8,8.4,18.8,8.5
		C18.8,8.4,18.8,8.4,18.8,8.5C18.8,8.4,18.8,8.4,18.8,8.5C18.8,8.4,18.8,8.4,18.8,8.5L18.8,8.5L18.8,8.5L18.8,8.5z M19.4,8.4
		C19.4,8.4,19.4,8.4,19.4,8.4C19.4,8.4,19.4,8.4,19.4,8.4C19.4,8.4,19.4,8.4,19.4,8.4C19.4,8.4,19.4,8.4,19.4,8.4z M19.4,8.4
		C19.4,8.4,19.4,8.4,19.4,8.4C19.4,8.4,19.4,8.4,19.4,8.4C19.4,8.4,19.4,8.4,19.4,8.4C19.4,8.4,19.4,8.4,19.4,8.4z M19.2,8.4
		C19.2,8.4,19.2,8.4,19.2,8.4C19.2,8.4,19.2,8.4,19.2,8.4C19.2,8.4,19.2,8.4,19.2,8.4C19.2,8.4,19.2,8.4,19.2,8.4z M19.2,8.4
		C19.2,8.4,19.2,8.4,19.2,8.4C19.2,8.4,19.2,8.4,19.2,8.4C19.2,8.4,19.2,8.4,19.2,8.4C19.2,8.4,19.2,8.4,19.2,8.4z M19,8.4
		C19,8.4,19,8.4,19,8.4C19,8.4,19,8.4,19,8.4C19,8.4,19,8.4,19,8.4C19,8.4,19,8.4,19,8.4z M19,8.4C19,8.4,19,8.4,19,8.4
		C19,8.4,19,8.4,19,8.4C19,8.4,19,8.4,19,8.4C19,8.4,19,8.4,19,8.4z"
    />
</g>
<g>
	<path
      d="M19.2,8.2C19.2,8.2,19.2,8.2,19.2,8.2C19.2,8.2,19.2,8.2,19.2,8.2C19.1,8.2,19.1,8.2,19.2,8.2C19.1,8.2,19.2,8.1,19.2,8.2
		c0-0.1,0-0.1,0-0.1c0,0,0,0,0,0C19.2,8.1,19.2,8.1,19.2,8.2C19.2,8.1,19.2,8.1,19.2,8.2C19.3,8.1,19.3,8.2,19.2,8.2
		C19.2,8.2,19.2,8.2,19.2,8.2C19.2,8.2,19.2,8.2,19.2,8.2C19.2,8.2,19.2,8.2,19.2,8.2L19.2,8.2z M19.2,8.2
		C19.2,8.2,19.2,8.2,19.2,8.2C19.2,8.2,19.2,8.2,19.2,8.2C19.2,8.1,19.2,8.1,19.2,8.2C19.2,8.1,19.2,8.1,19.2,8.2
		C19.2,8.1,19.2,8.1,19.2,8.2C19.2,8.1,19.2,8.2,19.2,8.2C19.2,8.2,19.2,8.2,19.2,8.2C19.2,8.2,19.2,8.2,19.2,8.2z"
    />
	<path
      d="M19.4,9.2L19.4,9.2c-0.1,0-0.1,0-0.1,0c0,0,0,0,0,0L19.4,9.2C19.4,9.1,19.4,9.1,19.4,9.2C19.4,9.2,19.4,9.2,19.4,9.2z
		 M19.4,9.1l-0.1,0.1c0,0,0,0,0,0c0,0,0,0,0,0L19.4,9.1C19.4,9.1,19.4,9.1,19.4,9.1C19.4,9.1,19.4,9.1,19.4,9.1z M19.1,9.1l0.1,0.1
		c0,0,0,0,0,0c0,0,0,0,0,0L19.1,9.1C19,9.1,19,9.1,19.1,9.1C19,9.1,19,9.1,19.1,9.1z M19.1,9.2L19.1,9.2c0.1,0,0.1,0,0.1,0
		C19.2,9.2,19.2,9.2,19.1,9.2L19.1,9.2C19.1,9.2,19.1,9.2,19.1,9.2C19.1,9.2,19.1,9.2,19.1,9.2L19.1,9.2z M19.1,9.2
		C19.1,9.2,19.2,9.2,19.1,9.2c0.1,0,0.1,0,0.1,0l0-0.1c0,0,0,0-0.1,0c0,0,0,0,0,0c0,0,0,0,0-0.1c0,0,0,0,0,0c0,0,0,0,0,0
		c0,0,0,0,0,0.1c0,0,0,0,0,0c0,0,0,0,0.1,0c0,0,0,0,0.1,0c0,0,0,0,0,0s0,0,0,0c0,0,0,0,0,0c0,0,0,0,0,0c0,0,0,0,0,0c0,0,0,0,0,0
		c0,0,0,0,0,0c0,0,0,0,0,0c0,0,0,0,0,0c0,0,0,0,0,0c0,0,0,0,0,0c0,0,0,0,0,0c0,0,0,0,0,0c0,0,0,0,0,0c0,0,0,0-0.1,0l0,0.1
		c0,0,0,0,0,0c0,0,0,0,0,0c0,0,0,0,0.1,0c0,0,0,0,0,0c0,0,0,0,0,0c0,0-0.1,0-0.1,0c0,0,0,0,0,0C19.2,9.2,19.2,9.2,19.1,9.2
		C19.2,9.3,19.1,9.3,19.1,9.2C19.1,9.2,19.1,9.2,19.1,9.2C19.1,9.2,19.1,9.2,19.1,9.2L19.1,9.2z M19.2,9.3L19.2,9.3
		C19.3,9.3,19.3,9.3,19.2,9.3C19.3,9.3,19.3,9.3,19.2,9.3L19.2,9.3C19.2,9.3,19.2,9.3,19.2,9.3C19.2,9.3,19.2,9.3,19.2,9.3z"
    />
	<path
      d="M19.3,8.7C19.3,8.7,19.3,8.6,19.3,8.7c0.1-0.1,0.1-0.1,0.1-0.1c0,0,0,0,0,0c0,0,0,0,0,0C19.4,8.6,19.4,8.6,19.3,8.7
		C19.3,8.7,19.3,8.7,19.3,8.7C19.3,8.7,19.3,8.7,19.3,8.7C19.3,8.7,19.3,8.7,19.3,8.7L19.3,8.7z M19.2,8.7
		C19.1,8.7,19.1,8.7,19.2,8.7C19,8.6,19,8.6,19,8.6c0,0,0,0,0,0c0,0,0,0,0,0C19,8.6,19,8.6,19.2,8.7C19.1,8.6,19.1,8.7,19.2,8.7
		C19.2,8.7,19.2,8.7,19.2,8.7C19.2,8.7,19.2,8.7,19.2,8.7L19.2,8.7z M19.1,8.9C19.1,8.9,19.1,8.9,19.1,8.9
		C19.2,8.8,19.2,8.8,19.1,8.9C19.2,8.8,19.2,8.8,19.1,8.9C19.2,8.8,19.2,8.8,19.1,8.9C19.2,8.8,19.2,8.8,19.1,8.9
		C19.1,8.9,19.1,8.9,19.1,8.9C19.1,8.9,19.1,8.9,19.1,8.9C19.1,8.9,19.1,8.9,19.1,8.9z M19.2,8.6C19.2,8.6,19.2,8.6,19.2,8.6
		C19.2,8.6,19.2,8.6,19.2,8.6c0,0.1,0,0.1,0,0.1c0,0,0,0,0,0c0,0,0,0,0,0c0,0,0,0,0,0c0,0,0,0,0,0.1c0,0,0,0,0,0c0,0,0,0,0,0
		c0,0,0,0,0,0l0,0c0,0,0,0,0,0c0,0,0,0,0,0l0,0c0,0,0,0,0,0c0,0,0,0,0,0c0,0,0,0,0,0c0,0,0,0,0,0c0,0,0,0,0,0c0,0,0,0,0,0
		c0,0,0,0,0,0c0,0,0,0,0,0c0,0,0,0,0.1,0c0,0,0,0,0.1,0c0,0,0,0,0,0c0,0,0,0,0,0c0,0,0,0,0,0c0,0,0,0,0,0c0,0,0,0,0,0
		C19.2,8.7,19.2,8.7,19.2,8.6L19.2,8.6C19.2,8.6,19.2,8.6,19.2,8.6C19.2,8.6,19.2,8.6,19.2,8.6C19.2,8.6,19.2,8.6,19.2,8.6
		C19.2,8.6,19.2,8.6,19.2,8.6L19.2,8.6z M19.1,8.8C19.1,8.7,19.1,8.7,19.1,8.8c-0.1,0-0.1,0-0.1,0c0,0,0,0,0,0c0,0,0,0,0,0l0,0
		C19,8.8,19,8.8,19.1,8.8C19.1,8.8,19.1,8.8,19.1,8.8L19.1,8.8C19.1,8.8,19.1,8.8,19.1,8.8C19.1,8.8,19.1,8.8,19.1,8.8
		C19.1,8.8,19.1,8.8,19.1,8.8C19.1,8.8,19.1,8.8,19.1,8.8L19.1,8.8z M19.3,8.6C19.2,8.6,19.2,8.6,19.3,8.6
		C19.2,8.6,19.2,8.6,19.3,8.6L19.3,8.6c0,0.1,0,0.1,0,0.1c0,0,0,0,0,0c0,0,0,0,0,0c0,0,0,0,0,0c0,0,0,0,0,0c0,0,0,0,0,0
		c0,0,0,0,0.1,0c0,0,0,0,0.1,0c0,0,0,0,0,0c0,0,0,0,0,0c0,0,0,0,0,0c0,0,0,0,0,0c0,0,0,0,0,0c0,0,0,0,0,0c0,0,0,0,0,0c0,0,0,0,0,0
		l0,0c0,0,0,0,0,0c0,0,0,0,0,0l0,0c0,0,0,0,0,0c0,0,0,0,0,0c0,0,0,0,0,0c0,0,0,0,0-0.1c0,0,0,0,0,0c0,0,0,0,0,0c0,0,0,0,0,0
		C19.2,8.7,19.2,8.7,19.3,8.6C19.2,8.6,19.2,8.6,19.3,8.6C19.2,8.6,19.2,8.6,19.3,8.6C19.2,8.6,19.2,8.6,19.3,8.6
		C19.3,8.6,19.3,8.6,19.3,8.6L19.3,8.6z M19.4,8.7C19.4,8.7,19.4,8.7,19.4,8.7c-0.1,0-0.1,0-0.1,0.1c0,0,0,0,0,0c0,0,0,0,0,0.1
		c0,0,0,0,0,0C19.3,8.8,19.3,8.8,19.4,8.7L19.4,8.7C19.4,8.8,19.4,8.8,19.4,8.7C19.4,8.8,19.4,8.8,19.4,8.7L19.4,8.7
		C19.4,8.7,19.4,8.7,19.4,8.7C19.4,8.7,19.4,8.7,19.4,8.7L19.4,8.7z"
    />
	<path
      fill-rule="evenodd"
      d="M19.4,8.7C19.4,8.7,19.3,8.7,19.4,8.7C19.3,8.8,19.4,8.8,19.4,8.7C19.4,8.8,19.4,8.8,19.4,8.7
		C19.4,8.7,19.4,8.7,19.4,8.7z M19.4,8.7C19.4,8.7,19.3,8.7,19.4,8.7C19.4,8.8,19.4,8.8,19.4,8.7C19.4,8.8,19.4,8.8,19.4,8.7
		C19.4,8.7,19.4,8.7,19.4,8.7z M19.4,8.7C19.4,8.7,19.4,8.7,19.4,8.7C19.4,8.8,19.4,8.8,19.4,8.7C19.4,8.8,19.4,8.8,19.4,8.7
		C19.4,8.7,19.4,8.7,19.4,8.7z M19.1,8.7C19.1,8.7,19.1,8.7,19.1,8.7C19.1,8.8,19.1,8.8,19.1,8.7C19,8.8,19,8.8,19.1,8.7
		C19,8.7,19,8.7,19.1,8.7z M19.1,8.7C19.1,8.7,19.1,8.7,19.1,8.7C19.1,8.8,19.1,8.8,19.1,8.7C19,8.8,19,8.8,19.1,8.7
		C19,8.7,19,8.7,19.1,8.7z M19.1,8.7C19.1,8.7,19.1,8.8,19.1,8.7C19.1,8.8,19.1,8.8,19.1,8.7C19,8.8,19,8.8,19.1,8.7
		C19,8.8,19,8.7,19.1,8.7z"
    />
</g>
<path
    d="M20.8,8C20.8,8,20.8,8,20.8,8C20.8,8,20.7,8,20.7,8.1c0,0,0,0,0,0.1c0,0-0.1,0-0.1,0.1c0-0.1-0.1-0.1-0.2-0.1
	c0,0,0-0.1-0.1-0.1c0,0-0.1,0-0.1,0c0,0,0,0,0,0c0,0,0,0,0,0c0,0.1,0.1,0.2,0.1,0.3c0,0,0,0,0,0c0,0,0,0.1,0,0.1c0,0,0,0,0,0
	c0,0-0.1,0-0.1,0c0,0-0.1,0-0.1,0c0,0,0,0,0,0c0,0.1,0,0.2,0.1,0.3c0,0-0.1,0-0.1,0c0,0,0,0,0,0c0,0.1,0.1,0.1,0.1,0.2
	c0,0-0.1,0.1-0.1,0.1c0,0,0,0.1,0,0.1c0,0,0,0,0,0c0,0,0.1,0,0.2,0c0,0,0,0.1,0,0.2c0,0,0.1,0,0.1,0c0,0,0,0,0,0.1c0,0,0,0,0,0.1
	c0,0,0,0,0,0c0.1,0,0.1,0,0.2,0c0,0,0,0.1,0,0.1c0,0,0,0,0,0c0,0,0.1-0.1,0.1-0.1c0,0,0,0,0,0c0,0,0,0,0,0.1c0,0,0,0,0,0
	c0,0,0.1-0.1,0.1-0.1c0,0,0.1,0,0.1,0.1c0,0,0,0,0,0c0,0,0-0.1,0-0.1c0,0,0.1,0,0.2,0c0,0,0,0,0,0c0,0,0,0,0-0.1c0,0,0,0,0-0.1
	c0,0,0.1,0,0.1,0c0-0.1,0-0.1,0-0.2c0.1,0,0.1,0,0.2,0c0,0,0,0,0,0c0,0,0,0,0-0.1c0,0,0-0.1-0.1-0.1c0.1,0,0.1-0.1,0.2-0.1
	c0,0,0,0,0,0c0,0-0.1,0-0.1,0c0.1-0.1,0.1-0.2,0.1-0.3c0,0,0,0,0,0c0,0,0,0-0.1,0c0,0-0.1,0-0.1,0c0,0,0,0,0,0c0,0,0,0,0-0.1
	c0,0,0,0,0,0c0.1-0.1,0.1-0.2,0.2-0.2c0,0,0,0,0,0c0,0,0,0,0,0c0,0,0,0-0.1,0c0,0-0.1,0-0.1,0.1c-0.1,0-0.1,0-0.2,0.1
	c0,0,0-0.1-0.1-0.1c0,0,0-0.1,0-0.1C20.9,8.1,20.9,8,20.8,8C20.8,8,20.8,8,20.8,8L20.8,8z"
  />
<g>
	<path
      fill="#F7DB17"
      d="M21.3,8.2C21.3,8.2,21.3,8.2,21.3,8.2C21.2,8.3,21.2,8.3,21.3,8.2C21.3,8.3,21.3,8.3,21.3,8.2L21.3,8.2
		C21.3,8.3,21.3,8.3,21.3,8.2C21.3,8.3,21.3,8.2,21.3,8.2L21.3,8.2z"
    />
	<path
      fill="#F7DB17"
      d="M20.3,8.2C20.4,8.2,20.4,8.2,20.3,8.2C20.4,8.2,20.4,8.3,20.3,8.2C20.4,8.3,20.3,8.3,20.3,8.2
		C20.3,8.2,20.3,8.2,20.3,8.2L20.3,8.2z"
    />
	<path
      fill="#F7DB17"
      d="M21.2,8.4C21.2,8.4,21.2,8.4,21.2,8.4C21.2,8.4,21.2,8.4,21.2,8.4C21.2,8.4,21.2,8.4,21.2,8.4
		C21.2,8.4,21.2,8.4,21.2,8.4z"
    />
	<path
      fill="#F7DB17"
      d="M20.4,8.4C20.4,8.4,20.4,8.4,20.4,8.4C20.4,8.4,20.4,8.4,20.4,8.4C20.4,8.4,20.4,8.4,20.4,8.4
		C20.4,8.4,20.4,8.4,20.4,8.4z"
    />
	<path
      fill="#F7DB17"
      d="M21.2,8.3c-0.1,0-0.3,0-0.4,0c-0.1,0-0.3,0-0.4,0c0,0,0,0,0,0c0.1,0,0.3,0,0.4,0C21,8.3,21.1,8.3,21.2,8.3
		C21.2,8.4,21.2,8.3,21.2,8.3L21.2,8.3z"
    />
	<path
      fill="#F7DB17"
      d="M20.4,8.3c0.1,0,0.3,0,0.4,0c0.1,0,0.3,0,0.4,0l0,0c0,0,0,0,0,0c0,0,0,0,0-0.1c0,0,0,0,0,0c0,0,0,0,0,0
		l0.1-0.1c0,0-0.1,0-0.1,0c-0.1,0-0.1,0-0.1,0.1c0,0,0,0,0,0c-0.1,0-0.1,0-0.1,0.1c0,0,0,0,0,0c0,0,0,0,0,0c0,0,0-0.1,0,0
		c0,0,0,0,0,0c0,0,0,0,0,0c0,0,0,0,0,0c0,0-0.1-0.1-0.1-0.1c0,0-0.1,0.1-0.1,0.1c0,0,0,0,0,0c0,0,0,0,0,0c0,0,0,0,0,0c0,0,0,0,0,0
		c0,0,0,0,0,0c0,0,0,0,0,0c0-0.1-0.1-0.1-0.1-0.1c0,0,0,0,0,0c0,0,0-0.1-0.1-0.1c0,0-0.1,0-0.1-0.1l0.1,0.1c0,0,0,0,0,0
		C20.4,8.2,20.4,8.2,20.4,8.3C20.4,8.2,20.4,8.3,20.4,8.3C20.4,8.3,20.4,8.3,20.4,8.3L20.4,8.3L20.4,8.3z"
    />
	<path
      fill="#F7DB17"
      d="M21.2,8.5C21.2,8.5,21.2,8.5,21.2,8.5C21.2,8.5,21.2,8.5,21.2,8.5C21.2,8.5,21.2,8.6,21.2,8.5
		C21.1,8.6,21.1,8.6,21.2,8.5C21.1,8.6,21.1,8.6,21.2,8.5C21.1,8.5,21.2,8.5,21.2,8.5C21.2,8.5,21.2,8.5,21.2,8.5
		C21.2,8.5,21.1,8.5,21.2,8.5c-0.1,0-0.1,0-0.1,0c0,0,0,0,0,0c0,0,0,0,0,0c0,0,0,0,0,0c0,0,0,0,0,0c0,0,0,0,0,0c0,0,0,0-0.1,0
		c0,0,0,0,0,0c0,0,0,0,0,0c0,0,0,0,0,0s0,0,0,0c0,0,0,0,0,0c0,0,0,0,0,0c0,0,0,0,0,0c0,0,0,0,0,0c0,0,0,0,0,0c0,0,0,0,0,0
		c0,0,0,0,0,0c0,0,0,0,0,0c0,0,0,0,0,0c0,0,0,0,0,0c0,0,0,0-0.1,0c0,0,0,0,0,0c0,0,0,0,0,0s0,0,0,0c0,0,0,0,0,0c0,0,0,0,0,0
		c0,0,0,0,0,0c0,0,0,0,0,0c0,0,0,0-0.1,0c0,0,0,0-0.1,0c0,0,0,0,0,0c0,0,0,0,0,0c0,0,0,0,0,0c0,0,0,0,0,0c0,0,0,0,0,0c0,0,0,0,0,0
		c0,0,0,0,0,0c0,0,0,0-0.1,0c0,0,0,0,0,0c0,0,0,0,0,0c0,0,0,0,0,0c0,0,0,0,0,0c0,0,0,0,0,0c0,0,0,0,0,0c0,0,0,0,0,0c0,0,0,0,0,0
		c0,0,0,0,0,0c0,0,0,0,0,0c0,0,0,0,0,0c0,0,0,0,0,0c0,0,0,0,0,0c0,0,0,0,0,0c0,0,0,0,0,0c0,0,0,0-0.1,0c0,0,0,0,0,0c0,0,0,0,0,0
		c0,0,0,0,0,0c0,0,0,0,0,0c0,0,0,0,0,0c0,0,0,0,0,0l0,0c0,0,0,0-0.1,0c0,0,0,0,0,0c0,0,0,0,0,0c0,0,0,0,0,0s0,0,0,0c0,0,0,0,0,0
		c0,0,0,0,0,0c0,0-0.1,0-0.1,0c0,0-0.1,0-0.1,0c0,0,0,0,0,0c0,0,0,0,0,0c0,0,0,0,0,0c0,0,0,0.1,0,0.1c0,0,0,0,0,0c0,0,0,0,0,0
		c0,0,0-0.1,0-0.1c0,0,0,0,0,0c0,0,0,0,0,0c0,0,0,0,0,0.1c0,0,0,0,0.1,0.1c0,0,0,0,0,0c0,0-0.1,0-0.1,0c0,0,0,0,0-0.1c0,0,0,0,0,0
		c0,0,0,0,0,0c0,0.1,0,0.2,0.1,0.2c0,0,0,0,0,0c0,0,0,0,0,0c0,0,0,0,0,0c0,0,0,0,0,0c0,0,0,0,0,0.1c0,0,0,0,0,0c0,0,0,0,0,0
		c0,0,0,0,0,0c0,0,0,0-0.1,0c0,0-0.1,0-0.1,0c0,0,0,0,0,0c0,0,0,0,0.1,0c0,0,0,0,0,0c0,0,0,0,0,0c0,0,0,0,0,0s0,0,0,0c0,0,0,0,0,0
		c0,0,0,0,0,0c0,0-0.1,0-0.1,0c0,0,0,0,0,0c0,0.1,0.1,0.1,0.2,0.1c0,0,0,0,0,0c0,0,0,0,0,0c0,0,0,0,0,0c0,0,0,0,0,0c0,0,0,0,0,0
		c0,0,0,0,0,0c0,0,0,0,0,0c0,0,0,0,0,0c0,0,0,0,0,0c0,0-0.1,0-0.1,0.1c0,0,0,0,0,0c0,0,0,0,0.1,0c0,0,0,0,0.1,0c0,0,0,0,0,0
		c0,0,0,0,0,0c0,0,0,0-0.1,0c0,0,0,0-0.1,0c0,0,0,0.1,0,0.1c0,0,0,0,0,0c0,0,0,0,0.1,0c0,0,0,0,0.1,0c0,0,0,0,0,0c0,0,0,0,0,0
		c0,0,0,0-0.1,0c0,0,0,0,0,0c0,0,0.1,0,0.1,0c0,0,0,0,0,0c0,0,0,0,0,0c0,0,0,0,0,0c0,0,0,0,0,0c0,0,0,0,0,0c0,0,0,0,0,0c0,0,0,0,0,0
		c0,0,0,0,0,0c0,0,0,0,0,0.1c0,0,0,0,0,0c0,0,0,0,0-0.1c0,0,0,0,0.1,0c0,0,0,0,0,0c0,0,0,0,0,0c0,0,0,0-0.1,0c0,0,0,0,0,0.1
		c0,0,0,0,0,0c0,0,0,0,0.1-0.1c0,0,0.1,0,0.1,0c0,0,0,0,0,0c0,0,0,0,0,0c0,0,0,0-0.1,0c0,0,0,0-0.1,0.1c0,0,0.1,0,0.1,0c0,0,0,0,0,0
		c0,0,0,0,0,0c0,0,0,0,0,0c0,0,0,0,0,0c0,0,0,0,0,0c0,0,0,0,0,0c0,0,0,0,0,0c0,0,0,0,0,0c0,0,0,0,0,0c0,0,0,0.1,0,0.1c0,0,0,0,0,0
		c0,0,0,0,0,0c0,0,0,0,0,0c0,0,0,0,0.1,0c0,0,0,0,0,0s0,0,0,0c0,0,0,0,0,0c0,0,0,0,0,0c0,0,0,0,0,0c0,0,0,0,0,0c0,0,0,0,0,0
		c0,0,0,0,0.1,0c0,0,0,0,0,0c0,0,0,0,0,0c0,0,0,0,0,0c0,0,0,0,0,0c0,0,0,0,0,0c0,0,0.1,0,0.1,0c0,0,0,0,0,0c0,0,0,0,0,0c0,0,0,0,0,0
		c0,0,0,0,0,0c0,0,0,0,0,0c0,0,0,0,0,0c0,0,0,0,0,0c0,0,0,0,0,0.1c0,0,0,0.1,0,0.1c0,0,0,0,0,0c0,0,0,0,0,0c0,0,0,0,0-0.1
		c0,0,0,0,0-0.1c0,0,0,0,0,0c0,0,0,0,0,0c0,0,0,0,0,0.1c0,0,0,0,0,0.1c0,0,0,0,0,0c0,0,0,0,0,0c0,0,0,0,0,0c0,0,0,0,0,0c0,0,0,0,0,0
		c0,0,0,0,0,0c0,0,0,0,0,0c0,0,0,0,0,0c0,0,0,0,0,0c0,0,0,0,0,0c0,0,0,0,0,0c0,0,0,0,0,0c0,0,0,0,0,0c0,0,0,0,0,0c0,0,0,0,0,0
		c0,0,0,0,0,0.1c0,0,0-0.1,0-0.1c0,0,0-0.1,0-0.1c0,0,0,0,0,0c0,0,0,0,0,0c0,0,0,0,0,0.1c0,0,0,0.1,0,0.1c0,0,0.1,0,0.1-0.1
		c0,0,0,0,0,0c0,0,0,0,0,0c0,0,0,0,0,0c0,0,0,0,0,0c0,0,0,0,0,0c0,0,0,0,0,0c0,0,0,0,0,0c0,0,0,0,0,0c0,0,0,0,0,0c0,0,0,0,0,0
		c0,0,0,0,0,0c0,0,0,0,0,0c0,0,0,0,0,0c0,0,0,0,0,0c0,0,0,0,0,0c0,0,0,0,0,0c0,0,0,0,0-0.1c0,0,0,0,0,0c0,0,0,0,0,0c0,0,0,0,0,0.1
		c0,0,0,0,0,0.1c0,0,0,0,0,0c0,0,0,0,0,0c0,0,0-0.1,0-0.1c0,0,0,0,0-0.1c0,0,0,0,0,0c0,0,0,0,0,0c0,0,0,0,0,0c0,0,0,0,0,0
		c0,0,0,0,0,0c0,0,0,0,0,0c0,0,0,0,0,0c0,0,0.1,0,0.1,0c0,0,0,0,0,0c0,0,0,0,0,0c0,0,0,0,0,0s0,0,0,0c0,0,0,0,0,0c0,0,0.1,0,0.1,0
		c0,0,0,0,0,0c0,0,0,0,0,0c0,0,0,0,0,0c0,0,0,0,0,0c0,0,0,0,0,0c0,0,0,0,0,0c0,0,0,0,0,0c0,0,0,0,0,0.1c0,0,0,0,0,0c0,0,0,0,0,0
		c0,0,0-0.1,0-0.1c0,0,0-0.1,0-0.1c0,0,0,0,0,0c0,0,0.1,0,0.1,0c0,0,0-0.1-0.1-0.1c0,0,0,0-0.1,0c0,0,0,0,0,0c0,0,0,0,0,0
		c0,0,0.1,0,0.1,0c0,0,0,0,0.1,0.1c0,0,0,0,0,0c0,0,0,0,0-0.1c0,0,0,0-0.1,0c0,0,0,0,0,0c0,0,0,0,0,0c0,0,0,0,0.1,0.1c0,0,0,0,0,0.1
		c0,0,0,0,0,0c0,0,0,0,0-0.1c0,0,0,0,0,0c0,0,0,0,0,0c0,0,0,0,0,0c0,0,0,0,0,0c0,0,0,0,0,0c0,0,0,0,0,0c0,0,0,0,0,0c0,0,0,0,0,0
		c0,0,0.1,0,0.1,0c0,0,0,0,0,0c0,0,0,0,0,0c0,0,0,0,0,0c0,0,0,0,0,0c0,0,0,0,0.1,0c0,0,0,0,0,0c0,0,0,0,0,0c0,0,0,0,0-0.1l0,0
		c0,0,0,0-0.1-0.1c0,0,0,0-0.1,0c0,0,0,0,0,0c0,0,0,0,0,0c0,0,0,0,0.1,0c0,0,0,0,0.1,0c0,0,0,0,0,0c0-0.1,0-0.1-0.1-0.1c0,0,0,0,0,0
		c0,0,0,0,0,0c0.1,0,0.1-0.1,0.2-0.1c0,0,0,0,0,0c0,0,0,0-0.1,0c0,0,0,0,0,0c0,0,0,0,0,0c0,0,0,0,0,0c0,0,0,0,0,0c0,0,0,0,0,0
		c0,0,0,0,0,0c0,0,0,0,0.1,0c0,0,0,0,0,0c0,0-0.1,0-0.1,0c0,0-0.1,0-0.1,0c0,0,0,0,0,0c0,0,0,0,0,0c0,0,0,0,0,0c0,0,0,0,0,0
		c0,0,0,0,0,0c0,0,0,0,0,0c0,0,0,0,0,0c0,0,0,0,0,0c0.1-0.1,0.1-0.1,0.1-0.2c0,0,0,0,0,0c0,0,0,0,0,0c0,0,0,0.1,0,0.1c0,0,0,0-0.1,0
		c0,0,0,0,0,0C21.3,8.6,21.3,8.6,21.2,8.5C21.3,8.6,21.3,8.5,21.2,8.5C21.3,8.5,21.3,8.5,21.2,8.5c0.1,0,0.1,0,0.1,0
		C21.3,8.5,21.3,8.6,21.2,8.5c0.1,0.1,0.1,0.1,0.1,0.1c0,0,0,0,0,0c0,0,0,0,0-0.1c0,0,0,0,0,0c0,0,0,0,0,0c0,0,0,0,0,0
		c0,0-0.1,0-0.1,0C21.3,8.5,21.2,8.5,21.2,8.5L21.2,8.5z"
    />
	<path
      fill="#F7DB17"
      d="M21.2,8.5c-0.1,0-0.3,0-0.4,0c-0.1,0-0.3,0-0.4,0c0,0,0,0,0,0c0,0,0,0,0,0c0.1,0,0.2,0,0.4,0
		C20.9,8.5,21.1,8.5,21.2,8.5C21.2,8.5,21.2,8.5,21.2,8.5L21.2,8.5z"
    />
	<path
      fill-rule="evenodd"
      fill="#F7DB17"
      d="M20.4,8.4c0.1,0,0.3,0,0.4,0c0.1,0,0.3,0,0.4,0l0,0c0,0,0,0,0,0c0,0,0,0,0,0
		c0,0,0,0,0,0c0,0,0,0,0,0l0,0c-0.1,0-0.3,0-0.4,0C20.7,8.3,20.5,8.3,20.4,8.4L20.4,8.4C20.4,8.4,20.4,8.4,20.4,8.4
		C20.4,8.4,20.5,8.4,20.4,8.4C20.5,8.4,20.4,8.4,20.4,8.4C20.4,8.4,20.4,8.4,20.4,8.4L20.4,8.4L20.4,8.4L20.4,8.4z M21,8.4
		C21,8.4,21,8.4,21,8.4C21,8.4,21,8.4,21,8.4C21,8.4,21,8.4,21,8.4C21,8.4,21,8.4,21,8.4z M21,8.4C21,8.4,21,8.4,21,8.4
		C21,8.4,21,8.4,21,8.4C21,8.4,21,8.4,21,8.4C21,8.4,21,8.4,21,8.4z M20.8,8.4C20.8,8.4,20.8,8.4,20.8,8.4
		C20.8,8.4,20.8,8.4,20.8,8.4C20.8,8.4,20.8,8.4,20.8,8.4C20.8,8.4,20.8,8.4,20.8,8.4z M20.8,8.4C20.8,8.4,20.8,8.4,20.8,8.4
		C20.8,8.4,20.8,8.4,20.8,8.4C20.8,8.4,20.8,8.4,20.8,8.4C20.8,8.4,20.8,8.4,20.8,8.4z M20.6,8.4C20.6,8.4,20.6,8.4,20.6,8.4
		C20.6,8.4,20.6,8.4,20.6,8.4C20.6,8.4,20.6,8.4,20.6,8.4C20.6,8.4,20.6,8.4,20.6,8.4z M20.6,8.4C20.6,8.4,20.6,8.4,20.6,8.4
		C20.6,8.4,20.6,8.4,20.6,8.4C20.6,8.4,20.6,8.4,20.6,8.4C20.6,8.4,20.6,8.4,20.6,8.4z"
    />
</g>
<g>
	<path
      d="M20.8,8.2C20.8,8.2,20.8,8.2,20.8,8.2C20.8,8.2,20.8,8.2,20.8,8.2C20.8,8.2,20.8,8.2,20.8,8.2C20.8,8.1,20.8,8.1,20.8,8.2
		c0-0.1,0-0.1,0-0.1c0,0,0,0,0,0C20.8,8.1,20.8,8.1,20.8,8.2C20.9,8.1,20.9,8.1,20.8,8.2C20.9,8.2,20.9,8.2,20.8,8.2
		C20.9,8.2,20.9,8.2,20.8,8.2C20.8,8.2,20.8,8.2,20.8,8.2C20.8,8.2,20.8,8.2,20.8,8.2L20.8,8.2z M20.8,8.2
		C20.8,8.2,20.8,8.2,20.8,8.2C20.9,8.2,20.9,8.2,20.8,8.2C20.9,8.1,20.8,8.1,20.8,8.2C20.8,8.1,20.8,8.1,20.8,8.2
		C20.8,8.1,20.8,8.1,20.8,8.2C20.8,8.1,20.8,8.2,20.8,8.2C20.8,8.2,20.8,8.2,20.8,8.2C20.8,8.2,20.8,8.2,20.8,8.2z"
    />
	<path
      d="M20.9,9.2L20.9,9.2c-0.1,0-0.1,0-0.1,0c0,0,0,0,0,0L20.9,9.2C20.9,9.2,20.9,9.2,20.9,9.2C20.9,9.2,20.9,9.2,20.9,9.2z
		 M21,9.1l-0.1,0.1c0,0,0,0,0,0c0,0,0,0,0,0L21,9.1C21,9.1,21,9.1,21,9.1C21,9.1,21,9.1,21,9.1z M20.6,9.1l0.1,0.1c0,0,0,0,0,0
		c0,0,0,0,0,0L20.6,9.1C20.6,9.1,20.6,9.1,20.6,9.1C20.6,9.1,20.6,9.1,20.6,9.1z M20.6,9.1L20.6,9.1C20.7,9.2,20.7,9.2,20.6,9.1
		C20.7,9.2,20.7,9.2,20.6,9.1L20.6,9.1C20.6,9.2,20.6,9.2,20.6,9.1C20.6,9.1,20.6,9.1,20.6,9.1L20.6,9.1z M20.7,9.2
		C20.7,9.2,20.7,9.2,20.7,9.2c0.1,0,0.1,0,0.1,0l0-0.1c0,0,0,0-0.1,0c0,0,0,0,0,0c0,0,0,0,0-0.1c0,0,0,0,0,0c0,0,0,0,0,0
		c0,0,0,0,0,0.1c0,0,0,0,0,0c0,0,0,0,0.1,0c0,0,0,0,0.1,0c0,0,0,0,0,0c0,0,0,0,0,0c0,0,0,0,0,0c0,0,0,0,0,0c0,0,0,0,0,0c0,0,0,0,0,0
		c0,0,0,0,0,0s0,0,0,0c0,0,0,0,0,0c0,0,0,0,0,0c0,0,0,0,0,0c0,0,0,0,0,0c0,0,0,0,0,0c0,0,0,0,0,0c0,0,0,0-0.1,0l0,0.1c0,0,0,0,0,0
		c0,0,0,0,0,0c0,0,0,0,0.1,0c0,0,0,0,0,0c0,0,0,0,0,0c0,0-0.1,0-0.1,0c0,0,0,0,0,0C20.8,9.2,20.7,9.2,20.7,9.2
		C20.7,9.3,20.7,9.2,20.7,9.2C20.7,9.2,20.6,9.2,20.7,9.2C20.7,9.2,20.7,9.2,20.7,9.2L20.7,9.2z M20.7,9.3L20.7,9.3
		C20.8,9.3,20.8,9.3,20.7,9.3C20.8,9.3,20.8,9.3,20.7,9.3L20.7,9.3C20.7,9.3,20.7,9.3,20.7,9.3C20.7,9.3,20.7,9.3,20.7,9.3z"
    />
	<path
      d="M20.9,8.7C20.9,8.7,20.9,8.6,20.9,8.7C21,8.6,21,8.6,21,8.6c0,0,0,0,0,0c0,0,0,0,0,0C21,8.6,21,8.6,20.9,8.7
		C20.9,8.7,20.9,8.7,20.9,8.7C20.9,8.7,20.9,8.7,20.9,8.7C20.9,8.7,20.9,8.7,20.9,8.7L20.9,8.7z M20.7,8.7
		C20.7,8.7,20.7,8.6,20.7,8.7c-0.1-0.1-0.1-0.1-0.1-0.1c0,0,0,0,0,0c0,0,0,0,0,0C20.6,8.6,20.6,8.6,20.7,8.7
		C20.7,8.6,20.7,8.7,20.7,8.7C20.8,8.7,20.8,8.7,20.7,8.7C20.7,8.7,20.7,8.7,20.7,8.7L20.7,8.7z M20.7,8.9
		C20.7,8.9,20.7,8.9,20.7,8.9C20.7,8.8,20.7,8.8,20.7,8.9C20.8,8.8,20.8,8.8,20.7,8.9C20.8,8.8,20.8,8.8,20.7,8.9
		C20.8,8.8,20.7,8.8,20.7,8.9C20.7,8.9,20.7,8.9,20.7,8.9C20.7,8.9,20.7,8.9,20.7,8.9C20.7,8.9,20.7,8.9,20.7,8.9z M20.8,8.6
		C20.8,8.6,20.8,8.6,20.8,8.6C20.8,8.6,20.8,8.6,20.8,8.6c0,0.1,0,0.1,0,0.1c0,0,0,0,0,0c0,0,0,0,0,0c0,0,0,0,0,0c0,0,0,0,0,0.1
		c0,0,0,0,0,0c0,0,0,0,0,0c0,0,0,0,0,0l0,0c0,0,0,0,0,0c0,0,0,0,0,0l0,0c0,0,0,0,0,0c0,0,0,0,0,0c0,0,0,0,0,0c0,0,0,0,0,0
		c0,0,0,0,0,0c0,0,0,0,0,0c0,0,0,0,0,0c0,0,0,0,0,0c0,0,0,0,0.1,0c0,0,0,0,0.1,0c0,0,0,0,0,0c0,0,0,0,0,0c0,0,0,0,0,0c0,0,0,0,0,0
		c0,0,0,0,0,0C20.8,8.7,20.8,8.7,20.8,8.6L20.8,8.6C20.8,8.6,20.8,8.6,20.8,8.6C20.8,8.6,20.8,8.6,20.8,8.6
		C20.8,8.6,20.8,8.6,20.8,8.6C20.8,8.6,20.8,8.6,20.8,8.6L20.8,8.6z M20.7,8.8C20.7,8.7,20.7,8.7,20.7,8.8c-0.1,0-0.1-0.1-0.1-0.1
		c0,0,0,0,0,0c0,0,0,0,0,0l0,0C20.6,8.8,20.6,8.8,20.7,8.8C20.6,8.8,20.6,8.8,20.7,8.8L20.7,8.8C20.7,8.8,20.7,8.8,20.7,8.8
		C20.7,8.8,20.7,8.8,20.7,8.8C20.7,8.8,20.7,8.8,20.7,8.8C20.7,8.8,20.7,8.8,20.7,8.8L20.7,8.8z M20.9,8.6
		C20.8,8.6,20.8,8.6,20.9,8.6C20.8,8.6,20.8,8.6,20.9,8.6L20.9,8.6c0,0.1,0,0.1,0,0.1c0,0,0,0,0,0c0,0,0,0,0,0c0,0,0,0,0,0
		c0,0,0,0,0,0c0,0,0,0,0,0c0,0,0,0,0.1,0c0,0,0,0,0.1,0c0,0,0,0,0,0c0,0,0,0,0,0c0,0,0,0,0,0c0,0,0,0,0,0c0,0,0,0,0,0c0,0,0,0,0,0
		c0,0,0,0,0,0c0,0,0,0,0,0l0,0c0,0,0,0,0,0c0,0,0,0,0,0l0,0c0,0,0,0,0,0c0,0,0,0,0,0c0,0,0,0,0,0c0,0,0,0,0-0.1c0,0,0,0,0,0
		c0,0,0,0,0,0c0,0,0,0,0,0C20.8,8.7,20.8,8.7,20.9,8.6C20.8,8.6,20.8,8.6,20.9,8.6C20.8,8.6,20.8,8.6,20.9,8.6
		C20.8,8.6,20.8,8.6,20.9,8.6C20.9,8.6,20.9,8.6,20.9,8.6L20.9,8.6z M21,8.7C21,8.7,21,8.7,21,8.7c-0.1,0-0.1,0-0.1,0c0,0,0,0,0,0
		c0,0,0,0,0,0.1c0,0,0,0,0,0C20.9,8.8,20.9,8.8,21,8.7L21,8.7C21,8.8,21,8.8,21,8.7C21,8.8,21,8.8,21,8.7L21,8.7
		C21,8.8,21,8.7,21,8.7C21,8.7,21,8.7,21,8.7L21,8.7z"
    />
	<path
      fill-rule="evenodd"
      d="M21,8.7C20.9,8.7,20.9,8.7,21,8.7C20.9,8.8,20.9,8.8,21,8.7C21,8.8,21,8.8,21,8.7
		C21,8.7,21,8.7,21,8.7z M21,8.7C20.9,8.7,20.9,8.7,21,8.7C20.9,8.8,20.9,8.8,21,8.7C21,8.8,21,8.8,21,8.7C21,8.7,21,8.7,21,8.7z
		 M21,8.7C21,8.7,20.9,8.8,21,8.7C20.9,8.8,21,8.8,21,8.7C21,8.8,21,8.8,21,8.7C21,8.8,21,8.7,21,8.7z M20.6,8.7
		C20.7,8.7,20.7,8.7,20.6,8.7C20.7,8.8,20.7,8.8,20.6,8.7C20.6,8.8,20.6,8.8,20.6,8.7C20.6,8.7,20.6,8.7,20.6,8.7z M20.6,8.7
		C20.7,8.7,20.7,8.7,20.6,8.7C20.7,8.8,20.7,8.8,20.6,8.7C20.6,8.8,20.6,8.8,20.6,8.7C20.6,8.7,20.6,8.7,20.6,8.7z M20.6,8.7
		C20.7,8.7,20.7,8.7,20.6,8.7C20.7,8.8,20.7,8.8,20.6,8.7C20.6,8.8,20.6,8.8,20.6,8.7C20.6,8.7,20.6,8.7,20.6,8.7z"
    />
</g>
<path
    fill="#171796"
    d="M25.4,8.6L25.4,8.6l-1.5-1.7l-2,1.2L21.5,12c1,0.1,1.9,0.2,2.9,0.5L25.4,8.6L25.4,8.6z"
  />
<path
    d="M22.2,8.8c0.1,0,0.1,0,0.2,0c0,0,0.1,0,0.1,0c0,0,0.1,0,0.1-0.1c0,0,0.1-0.1,0.1-0.1c0.1,0,0.1-0.1,0.2-0.1
	c0.1,0,0.2,0,0.2,0c0.1,0,0.1,0,0.2,0.1c0.1,0,0.1,0.1,0.2,0.1c0.1,0,0.1,0.1,0.2,0.1c0.1,0,0.2,0,0.2,0c0,0,0.1,0,0.1,0
	c0,0,0.1,0,0,0c-0.3,0.2-0.5,0-0.6,0c0.1,0,0.1,0.1,0.2,0.1c0.1,0.1,0.1,0.1,0.3,0.2c0.1,0,0.2,0.1,0.3,0.1c0,0,0.1,0,0.1,0
	c0,0,0,0,0,0c0,0,0,0,0,0c-0.1,0-0.1,0.1-0.2,0.1c-0.1,0-0.3,0-0.4-0.1c-0.1-0.1-0.2-0.1-0.3-0.2C23.3,9,23.2,9,23.1,9
	c-0.1,0-0.2,0-0.2,0c0,0,0,0,0.1,0c0,0,0.1,0,0.2,0c0,0,0,0,0,0.1c0,0-0.1,0.1-0.1,0.1c-0.1,0.1-0.1,0-0.1,0c0,0,0,0,0,0.1
	c0,0,0,0,0,0c0,0,0,0,0,0.1c0,0,0,0,0,0c0,0,0,0,0,0.1c0,0,0,0,0,0c0,0,0,0,0,0c0,0,0.1,0.1,0.1,0.1c0,0,0.1,0,0.1,0.1c0,0,0,0,0,0
	c0.1,0,0.1,0,0.2,0c0.1,0,0.1,0,0.2,0.1c0,0,0.1,0,0.1,0c0,0,0.1,0,0.1,0c0.1,0,0.1,0,0.2,0c0,0,0.1,0,0.1,0.1c0,0,0.1,0,0.1,0
	c0.1,0,0.1,0,0.2,0c0,0,0.1,0,0.1,0c0,0,0.1,0,0.1,0c0,0,0.1,0,0.1,0.1c0,0,0,0,0,0c0,0-0.1,0.1-0.1,0.1c0,0,0,0.1,0,0.1
	c0,0.1,0,0.1-0.1,0.1c0,0,0,0-0.1,0c0,0,0,0-0.1,0c0,0,0,0,0,0c0,0.1,0,0.1-0.1,0.1c0,0,0,0.1,0,0.1c0,0,0.1,0.1,0,0.1
	c0,0.1,0,0.1,0,0.1c0,0,0,0.1,0,0.1c0,0,0,0,0,0c0,0,0,0.1,0,0.1c0,0,0,0,0,0c0,0,0,0,0,0c0,0-0.1,0.1-0.1,0.1c0,0,0,0,0,0
	c0,0.1-0.1,0.1-0.1,0.2c0,0,0,0.1-0.1,0.1c0,0,0,0,0,0c0,0,0,0.1,0,0.1c0,0-0.1,0.1-0.1,0.1c-0.1,0-0.1,0-0.2,0c0,0,0,0,0-0.1
	c0,0-0.1,0-0.1-0.1c0,0,0,0,0,0c0,0,0.1,0,0.1,0c0,0,0,0,0,0c0-0.1,0-0.1,0.1-0.1c0,0,0.1-0.1,0.1-0.1c0,0,0-0.1,0.1-0.1
	c0,0,0,0,0-0.1c0,0,0,0,0,0c0,0,0,0-0.1,0c0,0,0,0,0,0c0,0,0,0-0.1,0c0,0-0.1,0.1-0.1,0.1c0,0,0,0-0.1,0c-0.1,0-0.1,0.1-0.2,0.1
	c0,0,0,0,0,0.1c0,0,0,0.1,0,0.1c0,0,0,0,0,0c0,0,0,0,0,0c0,0,0,0,0,0.1c0,0,0,0-0.1,0c-0.1,0-0.1,0-0.1,0c0,0,0,0,0-0.1c0,0,0,0,0,0
	c0,0,0,0,0,0c0,0,0,0,0,0c0,0,0.1-0.1,0.1-0.1c0,0,0,0,0.1,0c0,0,0-0.1,0.1-0.1c0,0,0,0,0,0c0,0,0,0,0,0c0,0,0-0.1,0-0.1
	c0,0,0,0,0,0c-0.1,0.1-0.1,0-0.1,0c0,0-0.1,0-0.1,0c0,0-0.1,0-0.1,0c0,0,0,0-0.1,0c0,0,0,0,0,0.1c0,0,0,0.1,0,0.1c0,0,0,0.1-0.1,0.1
	c0,0,0,0,0,0c0,0,0,0.1,0,0.1c0,0,0,0,0,0.1c0,0,0,0,0,0c0,0,0,0.1,0,0.1c0,0,0,0-0.1,0c0,0-0.1,0-0.1,0c0,0,0,0,0,0c0,0,0,0,0,0
	c0,0,0,0,0,0c0,0,0,0,0,0c0,0,0,0,0.1,0c0,0,0,0,0,0c0,0,0-0.1,0.1-0.1c0,0,0-0.1,0.1-0.1c0,0,0,0,0,0c0,0,0,0,0,0c0,0,0,0,0,0
	c0,0,0-0.1,0-0.1c0,0,0-0.1,0-0.2c0,0,0,0,0-0.1c0,0,0,0,0,0c0,0,0,0,0,0c0,0,0,0,0,0c0,0.1,0,0.1-0.1,0.1c0,0,0,0.1,0,0.1
	c0,0,0,0.1,0,0.1c0,0,0,0,0,0c0,0,0,0,0,0c0,0,0,0.1,0,0.1c0,0-0.1,0-0.2,0c0,0-0.1,0-0.1-0.1c-0.1,0-0.1-0.1,0-0.1
	c0.1,0,0.1-0.1,0.1-0.1c0-0.1,0-0.1,0.1-0.1c0,0,0-0.1,0-0.1c0,0,0-0.1,0-0.1c0,0,0,0,0-0.1c0,0,0,0,0,0c0,0,0,0,0,0c0,0,0,0,0,0
	c-0.1,0,0,0,0-0.1c0,0,0,0,0,0c0,0,0,0,0,0c0,0,0,0,0-0.1c0,0,0,0,0-0.1c-0.1,0-0.1,0,0-0.1c0,0,0,0,0.1-0.1c0,0,0,0,0-0.1
	c0,0,0-0.1,0.1-0.1c0,0,0,0,0,0c0,0,0,0,0-0.1c0,0,0,0,0,0c-0.1,0-0.1,0,0-0.1c0,0,0-0.1,0-0.1c0,0,0,0,0,0c0,0-0.1,0-0.1,0
	c0,0-0.1,0-0.1,0c0,0,0,0,0,0c0,0,0,0,0-0.1c-0.1,0-0.1-0.1,0-0.1c0,0,0,0,0-0.1c0-0.1,0.1-0.1,0.1-0.1c0,0,0,0,0,0c0,0,0,0-0.1,0
	c0,0,0,0,0-0.1C22.2,8.9,22.2,8.9,22.2,8.8C22.2,8.8,22.2,8.8,22.2,8.8L22.2,8.8z"
  />
<path
    fill="#F7DB17"
    d="M23.5,10.7C23.5,10.7,23.5,10.7,23.5,10.7C23.5,10.7,23.5,10.8,23.5,10.7C23.5,10.7,23.4,10.8,23.5,10.7
	c-0.1,0.1-0.1,0.1-0.1,0.1c0,0,0,0,0,0c0,0,0,0,0,0c0,0,0,0,0,0c0,0,0,0,0,0c0,0,0,0,0,0s0,0,0,0c0,0,0,0,0,0c0,0,0,0,0,0
	c-0.1,0-0.1,0.1-0.1,0.1c0,0,0,0,0,0.1c0,0,0,0.1,0,0.1c0,0,0,0,0,0c0,0,0,0,0,0c0,0-0.1,0-0.1,0c0,0,0,0,0.1,0c0,0,0,0,0,0
	c0,0.1-0.1,0-0.2,0c0,0,0,0,0,0c0,0,0,0,0,0c0,0,0,0,0,0c0,0,0,0,0,0c0,0,0,0,0,0c0,0,0,0,0,0c0,0,0,0,0,0c0,0,0,0,0,0c0,0,0,0,0,0
	c0,0,0,0,0,0c0,0,0,0,0.1,0c0,0,0.1-0.1,0.1-0.1c0,0,0,0,0.1-0.1c0-0.1,0-0.1,0.1-0.1c0,0,0,0,0-0.1c0,0,0,0,0,0c0,0,0-0.1,0-0.1
	c0,0,0,0,0-0.1c0,0,0,0,0,0c0,0,0,0,0,0c0,0,0,0,0,0c0,0,0,0,0,0.1l0,0c0,0,0,0,0,0c0,0,0,0,0,0c0,0,0,0,0,0c0,0,0,0,0,0
	c0,0,0,0,0,0c0,0,0,0,0,0c0,0,0,0,0,0c0,0,0,0,0.1,0c0,0,0,0,0.1-0.1c0,0,0,0.1,0,0.1c0,0,0,0,0,0.1c0,0,0,0,0,0c0,0,0,0,0,0
	c0,0,0,0,0-0.1h0c0,0,0,0,0,0v0c0,0,0,0,0,0c0,0,0,0,0.1,0C23.5,10.6,23.5,10.6,23.5,10.7C23.5,10.7,23.5,10.7,23.5,10.7
	C23.5,10.7,23.5,10.7,23.5,10.7z"
  />
<path
    fill="#F7DB17"
    d="M22.3,10C22.3,10,22.3,10,22.3,10C22.3,10,22.3,10,22.3,10C22.3,10,22.3,9.9,22.3,10
	c0.1-0.1,0.1-0.1,0.1-0.1c0,0,0,0,0,0c0,0,0,0,0,0C22.4,9.9,22.4,9.9,22.3,10C22.4,10,22.3,10,22.3,10C22.3,10,22.3,10,22.3,10
	C22.3,10,22.3,10,22.3,10C22.4,10.1,22.4,10.1,22.3,10C22.4,10,22.4,10,22.3,10c0.1,0,0.1,0,0.1,0c0,0,0,0,0,0c0,0,0,0,0,0
	c0,0,0,0,0,0c0,0,0,0,0,0c0,0,0,0,0,0c0,0,0,0,0,0c0,0,0,0,0,0C22.4,10,22.4,10,22.3,10C22.4,10,22.4,10,22.3,10
	C22.4,10.1,22.4,10.1,22.3,10c0,0.1,0,0.1,0.1,0.1c0,0,0,0,0,0c0,0,0,0,0,0.1c0,0,0,0,0,0c0,0,0,0,0,0v0c0,0,0,0,0,0c0,0,0,0,0,0
	c0,0,0,0,0,0c0,0,0,0,0,0c0,0,0,0,0,0c0,0,0,0,0,0c0,0,0,0,0,0c0,0,0,0,0,0c0,0,0,0,0,0c0,0,0,0,0,0c0,0,0,0,0,0.1c0,0,0,0,0,0
	c0,0,0,0,0,0c0,0,0,0,0,0l0,0c0,0,0,0,0,0c0,0,0,0,0,0l0,0c0,0,0,0,0,0c0,0,0,0,0,0c0,0,0,0,0,0c0,0,0,0,0,0.1c0,0,0,0.1,0,0.1
	c0,0,0,0,0,0c0,0,0,0,0,0l0,0c0,0,0,0,0,0c0,0,0,0,0,0l0,0c0,0,0,0,0,0c0,0,0,0,0,0c0,0,0,0.1,0,0.1c-0.1,0,0,0.1,0,0.1
	c0,0.1-0.1,0.1-0.2,0.1c0,0,0,0,0,0c0,0,0,0,0,0c0,0,0.1,0,0,0c0,0,0,0,0,0c0,0,0.1,0,0.2,0c0,0,0,0,0-0.1c0,0,0-0.1,0.1-0.1
	c0,0,0,0,0,0c0,0,0-0.1,0-0.1c0,0,0,0,0,0c0,0,0-0.1,0.1-0.1c0,0,0,0,0,0c0,0,0,0,0,0c0,0,0,0,0,0c0,0,0,0,0.1,0c0,0,0,0,0-0.1
	c0,0,0-0.1,0-0.1c0,0,0,0,0,0c0,0,0,0,0-0.1c0,0,0,0,0-0.1c0,0,0,0,0,0c0,0,0,0,0,0c0,0,0,0,0,0.1c0,0,0,0,0,0.1c0,0,0,0,0,0
	c0,0,0,0,0,0.1c0,0,0,0.1,0,0.1c0,0,0,0,0,0c0,0,0,0,0,0c0,0,0,0,0,0c0,0,0,0.1,0,0.2c0,0,0,0,0,0.1c0,0,0,0,0,0c0,0,0,0,0,0
	c0,0,0,0,0,0c0,0,0,0.1-0.1,0.1c0,0,0,0-0.1,0.1c0,0,0,0,0,0c0,0,0,0-0.1,0c0,0,0,0,0,0c0,0,0,0,0,0c0,0,0,0,0,0c0,0,0,0,0,0.1
	c0,0,0,0,0.1,0c0,0,0.1,0,0.1,0c0,0,0,0,0-0.1l0,0c0,0,0,0,0,0c0,0,0,0,0,0c0,0,0,0,0,0c0,0,0,0,0,0c0,0,0,0,0,0c0,0,0,0,0,0l0,0
	c0,0,0,0,0-0.1c0,0,0,0,0-0.1c0,0,0,0,0,0c0,0,0-0.1,0.1-0.1c0,0,0-0.1,0-0.1c0,0,0,0,0,0c0,0,0,0,0,0c0,0,0,0,0,0c0,0,0,0,0,0
	c0,0,0,0,0,0c0,0,0,0,0,0c0,0,0,0,0,0c0,0,0,0,0,0c0,0,0,0,0,0c0,0,0,0,0,0c0,0,0,0,0,0c0,0,0,0,0,0c0,0,0,0,0,0c0,0,0,0,0,0l0,0
	c0,0,0,0,0,0c0,0,0,0,0,0c0,0,0,0,0,0c0,0,0,0,0,0c0,0,0,0,0,0c0,0,0,0,0,0c0,0,0,0,0.1,0c0,0,0,0,0,0c0,0,0,0,0,0c0,0,0,0,0,0
	c0,0,0,0,0,0c0,0,0,0,0,0c0,0,0,0,0,0c0,0,0,0,0,0c0,0,0.1,0,0.1,0c0,0,0-0.1,0-0.1c0,0,0,0,0-0.1c0,0,0,0,0,0c0,0,0,0,0,0
	c0,0,0,0,0,0.1c0,0,0,0.1,0,0.1c0,0,0,0,0,0c0,0,0,0,0,0c0,0,0,0,0,0c0,0,0,0,0,0c0,0,0,0,0.1-0.1c0,0,0,0,0.1-0.1c0,0,0,0,0,0
	c0,0,0,0,0,0c0,0,0,0-0.1,0.1c0,0,0,0-0.1,0.1c0,0,0,0,0,0c0,0,0,0,0,0c0,0,0,0,0,0c0,0,0,0,0,0c0,0,0,0,0,0c0,0,0,0,0,0
	c0,0,0,0,0,0c0,0,0-0.1,0.1-0.1c0,0,0,0,0,0c0,0,0,0,0.1,0c0,0,0,0,0-0.1c0,0,0,0,0,0c0,0,0,0,0,0c0,0,0,0,0,0.1c0,0,0,0-0.1,0
	c0,0,0,0.1-0.1,0.1c0,0,0,0,0,0c0,0,0,0,0,0c0,0,0,0,0,0c0,0,0,0,0,0c0,0,0,0,0,0.1c0,0,0,0,0.1,0c0,0,0,0,0.1-0.1c0,0,0,0,0,0
	c0,0,0,0,0,0c0,0,0,0,0,0c0,0,0,0,0,0c0,0,0,0,0,0c0,0,0,0,0,0c0,0,0,0,0,0c0,0,0,0.1,0,0.1c0,0,0,0,0,0c0,0,0,0,0.1,0c0,0,0,0,0,0
	c0,0,0,0.1,0,0.1c0,0,0,0,0,0.1c0,0,0,0,0,0c0,0,0,0,0,0c0,0,0,0,0,0c0,0,0,0,0,0c0,0,0,0,0,0c0,0,0,0,0,0c0,0,0,0,0,0c0,0,0,0,0,0
	c0,0,0,0,0,0c0,0,0,0,0,0l0,0c0,0,0,0,0,0c0,0,0,0,0,0c0,0,0,0,0,0c0,0,0,0,0,0c0,0,0,0,0,0c0,0,0,0,0,0c0,0,0,0,0,0c0,0,0,0,0,0
	c0,0,0,0,0,0c0,0,0,0,0,0c0,0,0,0,0,0h0c0,0,0,0,0.1,0c0,0,0,0,0,0c0,0,0,0,0,0c0,0,0,0,0,0c0,0,0,0,0,0c0,0,0,0,0,0s0,0,0,0
	c0,0,0,0,0,0c0,0,0,0,0,0c0,0,0,0,0,0c0,0,0,0,0,0c0,0,0,0,0,0c0,0,0,0,0,0c0,0,0,0,0,0c0,0,0,0,0,0c0,0,0,0,0,0
	c0,0.1-0.1,0.2-0.2,0.2c0,0-0.1,0-0.1,0.1c0,0,0,0,0,0c0,0-0.1,0-0.1,0c0,0,0,0,0,0c0,0,0.1,0,0.1,0c0,0,0,0,0,0.1c0,0,0,0,0,0
	c0,0,0.1,0,0.2,0c0,0,0.1,0,0.1-0.1c0,0,0,0,0,0c-0.1,0,0,0,0,0c0,0,0,0,0,0c0,0,0.1,0,0.1-0.1c0-0.1,0.1-0.1,0.1-0.2c0,0,0,0,0,0
	c0,0,0,0,0,0c0,0,0,0,0,0c0,0,0,0,0,0s0,0,0,0c0,0,0,0,0,0c0,0,0,0,0,0c0,0,0,0,0,0c0,0,0.1-0.1,0.1-0.1c0,0,0,0,0,0c0,0,0,0,0,0
	c0,0,0,0,0-0.1c0,0,0,0,0-0.1c0,0,0-0.1,0-0.1h0c0,0,0,0,0,0c0,0,0,0,0,0c0,0,0,0,0,0c0,0,0,0,0,0c0,0,0,0,0,0c0,0,0,0,0,0
	c0,0,0,0,0,0c0,0,0,0,0-0.1c0,0,0,0,0,0c0,0,0,0,0,0c0,0,0,0,0,0c0,0,0,0,0,0c0,0,0,0,0,0c0,0,0,0,0,0c0,0,0,0,0,0c0,0,0,0,0,0
	c0,0,0,0,0,0c0,0,0,0-0.1-0.1c0,0,0,0,0,0c0,0,0,0,0,0c0,0,0,0,0.1,0c0,0,0-0.1,0-0.1c0,0,0,0,0,0c0,0,0,0,0,0c0,0,0,0,0,0
	c0,0,0,0,0,0c0,0,0,0,0,0c0,0,0,0,0,0c0,0,0,0,0,0c0,0,0,0,0,0c0,0,0.1,0,0.1,0c0,0,0,0,0-0.1c0,0,0,0,0,0c0,0,0,0,0,0c0,0,0,0,0,0
	c0,0,0,0,0,0c0,0,0,0,0,0c0,0,0,0,0,0c0,0,0,0,0,0c0,0,0,0,0,0c0,0,0,0,0,0c0,0,0,0,0.1,0c0,0,0,0,0,0c0,0,0,0,0,0c0,0,0,0,0,0
	s0,0,0,0c0,0,0,0,0,0c0,0,0,0,0,0c0,0,0,0,0,0c0,0,0,0,0,0c0,0,0,0,0,0c0,0,0,0,0,0c0,0,0,0,0,0c0,0,0,0,0,0c0,0,0,0,0,0
	c0,0,0,0,0,0c0,0,0,0,0,0c0,0,0-0.1,0-0.1c0,0,0,0,0,0c0,0,0,0,0,0c0,0,0,0,0,0c0,0,0,0,0,0c0,0,0,0,0,0c0,0,0,0,0,0c0,0,0,0,0,0
	c0,0,0,0,0,0c0,0,0,0,0,0c0,0,0,0,0,0c0,0,0.1,0,0.1,0c0,0,0,0,0,0c0,0,0,0,0,0c0,0-0.1,0-0.1,0c0,0,0,0,0,0c0,0,0,0,0,0
	c0,0,0,0,0,0c0,0,0,0,0,0c0,0-0.1,0-0.1,0c0,0,0,0,0,0c0,0,0,0,0,0c0,0,0,0,0,0c0,0,0,0,0,0c0,0,0,0,0,0c0,0,0,0,0,0c0,0,0,0,0,0
	l0,0c0,0-0.1,0-0.1,0c0,0,0,0,0,0c0,0,0,0,0,0c0,0,0,0,0,0c0,0,0,0,0,0c0,0,0,0,0,0c0,0,0,0,0,0c0,0,0,0,0,0c0,0,0,0-0.1,0
	c0,0,0,0,0,0c0,0,0,0,0,0c0,0,0,0,0,0c0,0,0,0,0,0s0,0,0,0c0,0,0,0,0,0c0,0,0,0,0,0c0,0,0,0,0,0c0,0,0,0,0,0l0,0c0,0,0,0,0,0
	c0,0,0,0,0,0l0,0c0,0,0,0,0,0c0,0,0,0,0,0c0,0,0,0,0,0.1c0,0,0,0,0,0s0,0,0,0c0,0,0,0,0-0.1c0,0,0,0,0-0.1c0,0,0,0,0,0c0,0,0,0,0,0
	c0,0,0,0,0,0c0,0,0,0,0,0c0,0,0,0,0,0c0,0,0,0,0,0c0,0,0,0,0,0c0,0,0,0,0,0c0,0-0.1,0-0.1,0c0,0,0,0,0,0c0,0,0,0,0,0c0,0,0,0,0,0
	c0,0,0,0,0,0c0,0,0,0,0,0c0,0,0,0,0,0c0,0,0,0,0,0c0,0,0,0,0,0c0,0,0,0,0,0c0,0,0,0,0,0c0,0,0,0,0,0l0,0c0,0,0,0,0,0c0,0,0,0,0,0
	c0,0,0,0,0,0c0,0,0,0,0,0c0,0,0,0,0,0c0,0,0,0,0,0c0,0,0,0,0,0c0,0,0,0-0.1,0c0,0,0,0.1,0.1,0.1c0,0,0,0.1,0,0.1c0,0,0,0,0,0
	c0,0,0,0,0,0c0,0,0-0.1,0-0.1c0,0,0-0.1-0.1-0.1c0,0,0,0,0,0c0,0,0,0,0,0c0,0,0,0,0,0c0,0,0,0,0,0c0,0,0,0,0,0c0,0,0,0,0,0
	c0,0,0,0,0,0c0,0,0,0,0,0c0,0,0,0,0,0c0,0,0,0,0,0c0,0,0,0,0,0c0,0,0,0,0,0.1c0,0,0,0,0,0c0,0,0,0,0,0c0,0,0,0,0,0c0,0,0,0,0,0
	c0,0,0,0-0.1,0c0,0,0,0,0,0.1c0,0,0,0,0,0.1c0,0,0,0,0,0c0,0,0,0,0,0c0,0,0,0,0-0.1c0,0,0,0,0-0.1c0,0,0,0,0,0c0,0,0,0,0,0.1
	c0,0,0,0,0,0.1c0,0,0,0,0,0c0,0,0,0,0,0c0,0,0,0,0-0.1c0,0,0,0,0-0.1c0,0-0.1-0.1-0.1-0.1c0,0,0,0,0,0c0,0,0,0,0,0.1c0,0,0,0,0,0
	c0,0,0,0,0,0c0,0,0,0,0-0.1c0,0,0,0,0,0c0,0,0,0,0,0c0,0-0.1,0-0.1,0c0,0,0,0,0,0.1c0,0,0,0,0,0c0,0,0,0,0,0c0,0,0,0,0-0.1
	c0,0,0,0,0,0c0,0,0,0,0,0c0,0,0,0,0,0v0c0,0,0,0,0,0c0,0,0,0,0,0c0,0,0,0,0,0c0,0,0,0,0,0c0,0,0,0,0,0c0,0,0,0,0-0.1c0,0,0,0,0,0
	c0,0,0,0,0,0c0,0,0,0-0.1,0c0,0,0,0,0,0.1c0,0,0,0.1,0,0.1c0,0,0,0,0,0s0,0,0,0c0,0,0-0.1,0-0.1c0,0,0,0,0-0.1h0c0,0,0,0,0,0
	c0,0,0,0,0,0c0,0,0,0,0,0c0,0,0,0,0,0c0,0,0,0,0,0c0,0,0,0,0,0c0,0,0,0,0,0c0,0,0,0,0,0c0,0,0-0.1,0-0.1c0,0,0,0,0,0c0,0,0,0,0,0
	c0,0,0,0,0,0c0,0,0,0,0,0c0,0,0,0,0,0c0,0,0,0,0,0c0,0,0,0,0,0c0,0,0-0.1-0.1-0.1c0,0,0,0,0,0c0,0,0,0,0,0c0,0,0,0,0,0c0,0,0,0,0,0
	c0,0,0,0,0,0c0,0,0,0,0,0c0,0,0,0,0,0c0,0,0,0,0,0.1c0,0,0,0,0,0.1c0,0,0,0,0,0c0,0,0,0,0,0c0,0,0,0,0-0.1c0,0,0,0,0-0.1
	c0,0,0,0,0,0c0,0,0,0,0,0c0,0,0,0,0,0c0,0,0,0,0,0c0,0,0,0,0,0c0,0,0,0,0,0c0,0,0,0,0,0c0,0,0,0,0,0c0,0,0,0,0,0l0,0c0,0,0,0,0,0
	c0,0,0,0,0,0c0,0,0,0,0,0c0,0,0,0,0,0c0,0,0,0,0,0c0,0,0,0,0,0c0,0,0,0,0,0c0,0,0,0,0,0c0,0,0,0,0,0c0,0,0,0,0,0s0,0,0,0
	c0,0,0,0,0,0c0,0,0,0,0,0c0,0,0,0,0,0c0,0,0,0,0-0.1c0,0,0,0,0,0c0,0,0,0,0,0c0,0,0,0,0,0c0,0,0,0,0,0c0,0,0,0,0,0c0,0,0,0,0,0
	c0,0,0,0,0,0c0,0,0,0,0,0c0,0-0.1,0-0.1,0c0,0,0,0-0.1,0c0,0,0,0,0,0c0,0,0,0,0,0c0,0,0,0,0.1,0c0,0,0.1,0,0.1,0c0,0,0,0,0,0
	c0,0,0,0,0,0c0,0,0,0,0,0h0c0,0,0,0,0,0c0,0,0,0,0,0h0c0,0,0,0,0,0c0,0,0,0,0,0c0,0,0,0,0,0c0,0,0,0,0,0c0,0,0,0,0.1,0c0,0,0,0,0,0
	c0,0,0,0,0,0c0,0,0,0,0,0c0,0,0,0,0,0c0,0,0,0,0,0c0,0,0.1,0,0.1,0c0,0-0.1,0-0.1,0c0,0,0,0-0.1,0c0,0,0,0,0,0c0,0,0,0,0,0
	c0,0,0,0,0.1,0c0,0,0,0,0.1,0h0c0,0,0,0,0,0c0,0,0,0,0,0c-0.1,0-0.1,0-0.2,0c0,0,0,0-0.1,0c0,0-0.1,0-0.1,0c0,0,0,0,0,0c0,0,0,0,0,0
	c0,0,0,0-0.1,0c0,0,0,0,0,0c0,0,0,0,0,0c0,0,0,0,0.1,0c0,0,0,0,0,0c0.1,0,0.1,0,0.1,0c0,0,0.1,0,0.1,0c0,0,0,0,0,0c0,0,0,0,0,0
	c0,0,0,0,0-0.1c0,0,0,0-0.1-0.1c0,0-0.1,0-0.1,0c0,0,0,0-0.1,0c0,0,0,0,0,0c0,0,0,0,0,0.1c0,0,0,0,0,0c0,0,0,0,0,0c0,0,0-0.1,0-0.1
	c0,0,0,0-0.1,0c0,0-0.1,0-0.1,0c0,0,0,0-0.1,0c0,0,0,0,0.1,0c0,0,0,0,0,0.1c0,0,0,0,0,0c0,0,0,0,0,0c0,0,0,0,0,0c0,0-0.1,0-0.1,0
	c0,0,0,0,0,0c0,0,0,0,0,0c0,0,0,0,0,0c0,0,0,0,0.1,0c0,0,0,0,0.1,0c0,0,0,0,0.1,0c0,0,0.1,0,0.1,0c0,0,0,0,0,0c0,0,0,0-0.1,0
	c0,0-0.1,0-0.1,0.1c0,0,0,0,0,0c0,0,0,0,0,0c0,0,0,0,0,0c0,0,0,0,0,0c0,0,0,0,0,0c0,0,0,0,0,0c0,0-0.1,0.1-0.1,0.1l0,0
	c0,0-0.1,0-0.1,0c0,0,0,0,0,0c0,0,0,0,0,0.1c0,0-0.1,0.1-0.1,0.1c0,0,0,0,0,0c0,0,0,0,0,0c0,0,0,0,0,0c0,0,0,0,0,0c0,0,0,0,0,0
	c0,0,0,0,0,0c0,0,0,0,0,0c0,0,0,0,0,0c0,0,0,0,0,0c0,0,0,0,0,0c0,0,0,0,0,0c0,0,0,0,0,0c0,0,0,0,0,0c0,0,0,0,0,0c0,0,0,0,0,0
	c0,0,0,0,0,0.1c0,0,0,0,0,0c0,0,0,0,0,0c0,0,0,0,0,0h0c0,0,0,0,0,0c0,0,0,0,0,0c0,0,0,0,0,0c0,0,0,0,0,0c0,0,0,0,0,0c0,0,0,0,0,0
	c0,0,0,0,0,0c0,0,0.1,0,0.1,0c0.1-0.1,0.1,0,0,0c0,0,0,0,0,0c0,0,0,0,0,0c0,0-0.1,0.1-0.1,0.1c0,0,0,0,0,0c0,0,0,0.1,0,0.1
	c0,0,0,0,0,0c0,0,0,0,0,0c0,0,0,0,0.1,0c0,0,0,0,0-0.1c0,0,0,0,0,0c0,0,0,0,0-0.1c0,0,0,0,0-0.1c0,0,0,0,0,0c0,0,0,0,0,0
	c0,0,0,0,0,0c0,0,0,0,0,0c0,0,0,0,0,0c0,0,0,0,0,0c0,0,0,0,0,0c0,0,0,0,0,0c0,0,0,0,0,0c0,0,0,0,0,0c0,0,0,0,0,0c0,0,0,0,0,0.1
	c0,0,0,0,0,0.1c0,0,0,0,0,0c0,0,0,0,0,0.1c0,0,0,0,0,0c0,0,0,0,0,0c0,0,0.1,0,0.1-0.1c0,0,0-0.1,0.1-0.1c0,0,0,0,0,0c0,0,0,0,0,0
	c0,0,0,0,0,0c0,0,0,0,0,0c0,0,0,0,0,0c0,0,0,0,0,0.1c0,0,0,0,0,0c0,0,0,0,0,0c0,0,0,0,0-0.1c0,0,0,0,0,0c0,0,0,0,0,0
	c0,0-0.1,0.1-0.1,0.1c0,0,0,0,0,0c0,0,0,0,0,0c0,0,0,0,0,0c0,0,0,0,0,0l0,0c0,0,0,0,0,0s0,0,0,0l0,0c0,0,0,0,0,0c0,0,0,0,0,0
	c0,0,0,0,0,0c0,0,0,0,0.1,0c0,0,0,0,0,0c0,0,0,0,0,0c0,0,0,0-0.1,0c0,0,0,0,0,0c0,0-0.1,0.1-0.1,0.1v0c0,0,0,0,0.1,0c0,0,0,0,0,0
	c0,0,0,0,0,0c0,0,0,0,0,0c0,0,0,0-0.1,0v0c0,0,0,0,0,0c0,0,0,0,0,0c0,0,0,0,0,0s0,0,0,0c0,0,0,0,0,0c0,0,0,0,0,0c0,0,0,0,0,0
	C22.4,9.9,22.4,9.9,22.3,10C22.3,9.9,22.3,10,22.3,10C22.3,10,22.3,10,22.3,10L22.3,10z"
  />
<path
    fill="#F7DB17"
    d="M22.3,9C22.3,9,22.3,9,22.3,9C22.3,8.9,22.3,8.9,22.3,9c-0.1-0.1-0.1-0.1-0.1-0.1C22.3,8.9,22.3,8.9,22.3,9
	C22.3,8.9,22.3,8.9,22.3,9C22.3,8.9,22.3,8.9,22.3,9C22.3,8.9,22.3,8.9,22.3,9C22.3,8.9,22.3,8.9,22.3,9c0-0.1,0-0.1-0.1-0.1
	c0,0,0,0,0,0c0,0,0,0,0,0c0,0,0,0,0,0c0,0,0,0,0,0c0,0,0,0,0,0c0,0,0,0,0,0c0,0,0,0,0,0c0,0,0,0,0,0s0,0,0,0c0,0,0,0,0,0
	c0,0,0,0,0,0c0.1,0,0.1,0,0.2,0c0,0,0,0,0.1,0C22.5,8.9,22.4,8.9,22.3,9C22.4,8.9,22.4,8.9,22.3,9C22.3,8.9,22.3,9,22.3,9L22.3,9z"
  />
<path
    d="M23.6,10.7C23.6,10.7,23.6,10.7,23.6,10.7C23.5,10.7,23.6,10.7,23.6,10.7C23.6,10.7,23.6,10.7,23.6,10.7
	C23.6,10.7,23.6,10.7,23.6,10.7C23.6,10.7,23.6,10.7,23.6,10.7C23.6,10.7,23.6,10.7,23.6,10.7L23.6,10.7z"
  />
<path
    d="M23.7,11C23.7,11,23.7,11.1,23.7,11C23.7,11.1,23.7,11.1,23.7,11C23.7,11.1,23.7,11.1,23.7,11C23.7,11.1,23.7,11.1,23.7,11
	C23.7,11.1,23.7,11.1,23.7,11C23.7,11.1,23.7,11,23.7,11C23.7,11,23.7,11,23.7,11C23.7,11,23.7,11,23.7,11z"
  />
<path
    d="M23.8,10.9C23.8,10.9,23.8,10.9,23.8,10.9C23.8,10.9,23.8,10.9,23.8,10.9C23.8,10.9,23.8,10.9,23.8,10.9
	C23.8,10.9,23.8,10.9,23.8,10.9C23.8,10.9,23.8,10.9,23.8,10.9C23.8,10.9,23.8,10.9,23.8,10.9L23.8,10.9z"
  />
<path
    d="M23.8,10.9C23.8,10.9,23.8,10.9,23.8,10.9C23.8,10.9,23.8,11,23.8,10.9C23.7,11,23.7,11,23.8,10.9
	C23.7,11,23.7,11,23.8,10.9C23.7,10.9,23.8,10.9,23.8,10.9C23.8,10.9,23.8,10.9,23.8,10.9C23.8,10.9,23.8,10.9,23.8,10.9
	C23.8,10.9,23.8,10.9,23.8,10.9z"
  />
<path
    d="M23.9,10.8C23.9,10.8,23.9,10.8,23.9,10.8C23.9,10.8,23.9,10.8,23.9,10.8C23.9,10.8,23.9,10.8,23.9,10.8
	C23.9,10.8,23.9,10.8,23.9,10.8C23.9,10.8,23.9,10.8,23.9,10.8C23.9,10.8,23.9,10.8,23.9,10.8C23.9,10.8,23.9,10.8,23.9,10.8
	C23.9,10.8,23.9,10.8,23.9,10.8L23.9,10.8z"
  />
<path
    d="M24,10.8C24,10.8,24,10.8,24,10.8C24,10.8,24,10.8,24,10.8C23.9,10.9,23.9,10.9,24,10.8C23.9,10.9,23.9,10.9,24,10.8
	C23.9,10.8,23.9,10.8,24,10.8C24,10.8,24,10.8,24,10.8C24,10.8,24,10.8,24,10.8C24,10.8,24,10.8,24,10.8z"
  />
<path
    d="M23.9,10.3c0,0,0,0.1,0,0.1C24,10.4,24,10.4,23.9,10.3C24,10.4,24,10.4,23.9,10.3C24,10.4,24,10.3,23.9,10.3
	C24,10.3,24,10.3,23.9,10.3C24,10.3,24,10.3,23.9,10.3C24,10.3,24,10.3,23.9,10.3C24,10.3,24,10.3,23.9,10.3
	C24,10.3,24,10.4,23.9,10.3c0,0.1,0,0.1,0,0.2l0,0c0,0,0,0,0,0c0,0,0,0,0,0C24,10.4,24,10.4,23.9,10.3
	C23.9,10.3,23.9,10.3,23.9,10.3C23.9,10.3,23.9,10.3,23.9,10.3L23.9,10.3z"
  />
<path
    d="M23.9,10.4C23.9,10.4,23.9,10.4,23.9,10.4C23.9,10.4,23.9,10.4,23.9,10.4C23.9,10.4,23.9,10.4,23.9,10.4
	C23.9,10.4,23.9,10.4,23.9,10.4C23.9,10.4,23.9,10.4,23.9,10.4C23.9,10.4,23.9,10.4,23.9,10.4C23.9,10.4,23.9,10.4,23.9,10.4
	C23.9,10.4,23.9,10.4,23.9,10.4z"
  />
<path
    d="M23.9,10.5C23.9,10.5,23.9,10.5,23.9,10.5c0,0.1,0,0.1,0,0.1c0,0,0,0,0,0C23.9,10.6,23.9,10.6,23.9,10.5
	C23.9,10.6,23.9,10.6,23.9,10.5C23.9,10.6,23.9,10.6,23.9,10.5c0,0.1,0,0.1,0,0.1c0,0,0,0,0,0c0,0,0,0,0,0
	C23.9,10.6,23.9,10.6,23.9,10.5C23.9,10.5,23.9,10.5,23.9,10.5C23.8,10.5,23.8,10.5,23.9,10.5C23.9,10.5,23.9,10.5,23.9,10.5z"
  />
<path
    d="M23.9,10.5C23.9,10.5,23.9,10.6,23.9,10.5C23.9,10.6,23.9,10.6,23.9,10.5C23.9,10.6,23.9,10.6,23.9,10.5
	C23.9,10.6,23.9,10.6,23.9,10.5C23.9,10.6,23.9,10.6,23.9,10.5C23.9,10.6,23.9,10.5,23.9,10.5C23.9,10.5,23.9,10.5,23.9,10.5
	C23.9,10.5,23.9,10.5,23.9,10.5z"
  />
<path
    d="M24,10.5C24,10.5,24,10.5,24,10.5C24,10.6,24,10.6,24,10.5c0,0.1,0,0.1,0,0.1c0,0,0,0,0,0c0,0,0,0,0,0c0,0,0,0,0,0
	c0,0,0,0,0,0C24,10.6,24,10.6,24,10.5L24,10.5C24,10.6,24,10.6,24,10.5C24,10.5,24,10.5,24,10.5C24,10.5,24,10.5,24,10.5
	C24,10.5,24,10.5,24,10.5L24,10.5z"
  />
<path
    d="M24.1,10.4C24.1,10.4,24,10.4,24.1,10.4C24,10.4,24,10.4,24.1,10.4C24,10.4,24,10.4,24.1,10.4C24,10.4,24,10.4,24.1,10.4
	C24,10.4,24,10.4,24.1,10.4C24,10.4,24,10.4,24.1,10.4C24,10.4,24,10.4,24.1,10.4C24.1,10.4,24.1,10.4,24.1,10.4L24.1,10.4z"
  />
<path
    d="M24,10.2C24,10.2,24,10.2,24,10.2C24,10.2,24,10.2,24,10.2C24,10.2,24,10.2,24,10.2C24,10.2,24,10.2,24,10.2
	C24,10.2,24,10.2,24,10.2C24,10.2,24,10.2,24,10.2L24,10.2z"
  />
<path
    d="M24,10C24,10,24,10,24,10C24,10.1,24,10.1,24,10c0,0.1,0,0.1,0,0.1c0,0,0,0,0,0s0,0,0,0C24,10.1,24,10.1,24,10
	C24,10.1,24,10.1,24,10L24,10C24,10,24,10,24,10C24,10,24,10,24,10C24,10,24,10,24,10L24,10z"
  />
<path
    d="M23.9,10C23.9,10,23.9,10,23.9,10C24,10,24,10.1,24,10.1c0,0,0,0,0,0c0,0,0,0,0,0c0,0.1,0,0.1,0,0.1c0,0,0,0.1-0.1,0.1
	c0,0,0,0,0,0c0,0,0,0,0-0.1s0,0,0-0.1c0,0,0,0,0,0c0,0,0,0,0,0c0,0,0,0,0,0.1c0,0,0,0,0,0.1c0,0,0.1,0,0.1-0.1c0,0,0-0.1,0-0.1
	c0,0,0,0,0,0c0,0,0,0,0,0C24,10.1,23.9,10.1,23.9,10C23.9,10,23.9,10,23.9,10C23.9,10,23.9,10,23.9,10C23.9,10,23.9,10,23.9,10
	L23.9,10z"
  />
<path
    d="M24.3,9.9C24.3,9.9,24.3,9.9,24.3,9.9C24.3,9.9,24.3,9.9,24.3,9.9C24.3,9.9,24.3,9.9,24.3,9.9C24.3,9.9,24.3,9.9,24.3,9.9
	C24.3,9.9,24.3,9.9,24.3,9.9C24.3,9.9,24.3,9.9,24.3,9.9C24.3,9.9,24.3,9.9,24.3,9.9C24.3,9.9,24.3,9.9,24.3,9.9z"
  />
<path
    d="M24.2,9.9C24.2,9.9,24.2,9.9,24.2,9.9C24.2,9.9,24.2,9.9,24.2,9.9C24.2,9.9,24.2,9.9,24.2,9.9C24.2,9.9,24.2,9.9,24.2,9.9
	C24.2,9.9,24.2,9.9,24.2,9.9C24.2,9.9,24.2,9.9,24.2,9.9C24.2,9.9,24.2,9.9,24.2,9.9C24.2,9.9,24.2,9.9,24.2,9.9L24.2,9.9z"
  />
<path
    d="M24,9.9C24.1,9.9,24.1,10,24,9.9C24.1,10,24.1,10,24,9.9C24.1,10,24.1,10,24,9.9C24.1,10,24.1,10,24,9.9
	C24.1,10,24.1,10,24,9.9C24.1,10,24.1,9.9,24,9.9C24,9.9,24,9.9,24,9.9C24,9.9,24,9.9,24,9.9L24,9.9z"
  />
<path
    d="M23.6,10C23.6,10,23.6,10,23.6,10C23.6,10,23.6,10,23.6,10C23.6,10,23.6,10,23.6,10C23.6,10,23.6,10,23.6,10
	C23.6,10,23.6,10,23.6,10C23.6,10,23.6,10,23.6,10C23.6,10,23.6,10,23.6,10C23.6,10,23.6,10,23.6,10L23.6,10z"
  />
<path
    d="M23.7,9.9C23.7,9.9,23.7,9.9,23.7,9.9L23.7,9.9C23.7,10,23.7,10,23.7,9.9C23.7,10,23.7,10,23.7,9.9L23.7,9.9
	C23.7,9.9,23.6,9.9,23.7,9.9C23.6,9.9,23.6,9.9,23.7,9.9C23.7,9.9,23.7,9.9,23.7,9.9z"
  />
<path
    d="M23.8,10.1C23.8,10.1,23.8,10.1,23.8,10.1C23.8,10.1,23.8,10.1,23.8,10.1C23.8,10.1,23.8,10.1,23.8,10.1
	C23.8,10.1,23.8,10.1,23.8,10.1C23.8,10.1,23.8,10.1,23.8,10.1C23.8,10.1,23.8,10.1,23.8,10.1C23.8,10.1,23.8,10.1,23.8,10.1
	C23.8,10,23.8,10.1,23.8,10.1L23.8,10.1z"
  />
<path
    d="M23.9,9.9C23.9,9.9,23.9,9.9,23.9,9.9C23.9,9.9,23.9,9.9,23.9,9.9C23.9,9.9,23.9,9.9,23.9,9.9C23.9,9.9,23.9,9.9,23.9,9.9
	C23.9,9.9,23.9,9.9,23.9,9.9C23.9,9.9,23.9,9.9,23.9,9.9C23.9,9.9,23.9,9.9,23.9,9.9C23.9,9.9,23.9,9.9,23.9,9.9L23.9,9.9z"
  />
<path
    d="M23.5,9.9C23.5,9.9,23.5,10,23.5,9.9C23.5,10,23.5,10,23.5,9.9C23.5,10,23.5,10,23.5,9.9c0,0.1,0,0.1,0,0.1c0,0,0,0,0,0
	c0,0,0,0,0,0C23.5,10,23.5,10,23.5,9.9C23.5,10,23.5,10,23.5,9.9C23.5,10,23.5,10,23.5,9.9C23.5,10,23.5,9.9,23.5,9.9
	C23.5,9.9,23.5,9.9,23.5,9.9C23.5,9.9,23.5,9.9,23.5,9.9L23.5,9.9z"
  />
<path
    d="M23.6,10.1C23.7,10.1,23.7,10.1,23.6,10.1c0,0.1,0,0.1,0,0.1c0,0,0,0,0,0.1c0,0,0,0,0.1,0.1c0,0,0,0,0-0.1
	C23.7,10.2,23.7,10.2,23.6,10.1c0.1,0.1,0.1,0.1,0.1,0c0,0,0,0,0,0c0,0,0,0,0,0c0,0,0,0,0,0c0,0,0,0,0,0c0,0,0,0,0,0c0,0,0,0,0,0.1
	c0,0,0,0.1,0,0.1c0,0,0,0,0,0c0,0-0.1,0-0.1-0.1c0,0,0,0,0-0.1C23.7,10.1,23.7,10.1,23.6,10.1C23.6,10.1,23.6,10.1,23.6,10.1
	C23.6,10.1,23.6,10.1,23.6,10.1C23.6,10.1,23.6,10.1,23.6,10.1L23.6,10.1z"
  />
<path
    d="M23.6,10.2C23.6,10.2,23.6,10.2,23.6,10.2c0,0.1,0,0.1,0,0.1C23.5,10.3,23.5,10.3,23.6,10.2C23.6,10.3,23.6,10.3,23.6,10.2
	C23.6,10.2,23.6,10.2,23.6,10.2C23.6,10.2,23.6,10.2,23.6,10.2C23.6,10.2,23.6,10.2,23.6,10.2C23.6,10.2,23.6,10.2,23.6,10.2
	C23.6,10.2,23.6,10.2,23.6,10.2C23.6,10.2,23.6,10.2,23.6,10.2C23.6,10.3,23.6,10.3,23.6,10.2c0,0.1,0,0.1,0,0.1c0,0,0,0,0,0
	c0,0,0,0,0,0C23.6,10.3,23.6,10.3,23.6,10.2C23.6,10.3,23.6,10.3,23.6,10.2c0,0.1,0,0.1,0,0.1c0,0,0,0,0,0c0,0,0,0,0,0
	C23.5,10.3,23.5,10.2,23.6,10.2C23.6,10.2,23.6,10.2,23.6,10.2C23.6,10.2,23.6,10.2,23.6,10.2C23.6,10.2,23.6,10.2,23.6,10.2z"
  />
<path
    d="M23.5,10.2L23.5,10.2C23.5,10.2,23.5,10.2,23.5,10.2C23.5,10.2,23.5,10.2,23.5,10.2L23.5,10.2
	C23.5,10.2,23.5,10.2,23.5,10.2C23.5,10.2,23.5,10.2,23.5,10.2z"
  />
<path
    d="M23.4,10.1C23.4,10.1,23.4,10.1,23.4,10.1c0,0.1,0,0.1,0,0.1l0,0c0,0,0,0,0,0.1c0,0,0,0,0,0c0,0,0,0,0,0c0,0,0,0,0,0
	c0,0,0,0,0,0c0,0,0,0,0,0c0,0,0,0,0,0c0,0,0,0,0,0c0,0,0,0,0,0c0,0,0,0-0.1,0l0,0c0,0,0,0,0,0c0,0,0,0,0,0c0,0,0,0,0,0
	c0,0,0,0,0-0.1s0,0,0-0.1C23.4,10.2,23.4,10.2,23.4,10.1C23.4,10.1,23.4,10.1,23.4,10.1C23.4,10.1,23.4,10.1,23.4,10.1
	C23.4,10,23.4,10,23.4,10.1L23.4,10.1z"
  />
<path
    d="M23.6,10.3C23.6,10.3,23.6,10.3,23.6,10.3C23.6,10.4,23.6,10.4,23.6,10.3c0,0.1,0,0.1,0,0.1c0,0,0,0,0,0.1c0,0,0,0,0,0
	c0,0,0,0,0-0.1C23.6,10.4,23.6,10.4,23.6,10.3C23.5,10.4,23.5,10.4,23.6,10.3C23.5,10.4,23.5,10.4,23.6,10.3c0,0.1,0,0.1,0,0.1
	c0,0,0,0,0,0.1c0,0,0,0,0,0C23.6,10.4,23.6,10.4,23.6,10.3C23.6,10.4,23.6,10.4,23.6,10.3C23.6,10.4,23.6,10.3,23.6,10.3
	C23.6,10.3,23.6,10.3,23.6,10.3C23.6,10.3,23.6,10.3,23.6,10.3L23.6,10.3z"
  />
<path
    d="M23.7,10.3C23.7,10.3,23.7,10.3,23.7,10.3C23.7,10.3,23.7,10.3,23.7,10.3C23.7,10.4,23.7,10.4,23.7,10.3
	C23.7,10.4,23.7,10.4,23.7,10.3C23.7,10.4,23.7,10.3,23.7,10.3C23.7,10.3,23.7,10.3,23.7,10.3C23.7,10.3,23.7,10.3,23.7,10.3
	C23.7,10.3,23.7,10.3,23.7,10.3z"
  />
<path
    d="M23.8,10.4C23.8,10.4,23.8,10.4,23.8,10.4c0,0.1,0,0.1,0,0.1c0,0,0,0,0,0c0,0,0,0,0,0C23.7,10.4,23.7,10.4,23.8,10.4
	C23.8,10.4,23.8,10.4,23.8,10.4C23.8,10.4,23.8,10.4,23.8,10.4C23.8,10.4,23.8,10.4,23.8,10.4z"
  />
<path
    d="M23.8,10.7C23.8,10.7,23.8,10.7,23.8,10.7C23.8,10.7,23.8,10.7,23.8,10.7C23.8,10.7,23.8,10.7,23.8,10.7
	C23.8,10.7,23.8,10.7,23.8,10.7C23.8,10.7,23.8,10.7,23.8,10.7C23.8,10.7,23.8,10.7,23.8,10.7L23.8,10.7z"
  />
<path
    d="M23.8,10.6C23.8,10.6,23.8,10.6,23.8,10.6C23.8,10.6,23.8,10.6,23.8,10.6C23.8,10.6,23.8,10.6,23.8,10.6
	C23.7,10.6,23.7,10.6,23.8,10.6C23.7,10.6,23.8,10.6,23.8,10.6C23.8,10.6,23.8,10.6,23.8,10.6C23.8,10.6,23.8,10.6,23.8,10.6
	C23.8,10.6,23.8,10.6,23.8,10.6z"
  />
<path
    d="M23.7,10.6L23.7,10.6C23.7,10.6,23.7,10.6,23.7,10.6C23.7,10.6,23.7,10.6,23.7,10.6L23.7,10.6
	C23.7,10.6,23.7,10.6,23.7,10.6C23.7,10.6,23.7,10.6,23.7,10.6z"
  />
<path
    d="M23.6,10.5C23.6,10.5,23.6,10.5,23.6,10.5C23.6,10.6,23.6,10.6,23.6,10.5C23.6,10.6,23.6,10.6,23.6,10.5
	C23.6,10.6,23.6,10.6,23.6,10.5C23.6,10.6,23.6,10.6,23.6,10.5C23.6,10.5,23.6,10.5,23.6,10.5C23.6,10.5,23.6,10.5,23.6,10.5
	C23.6,10.5,23.6,10.5,23.6,10.5L23.6,10.5z"
  />
<path
    d="M23.5,10.7C23.5,10.7,23.5,10.7,23.5,10.7C23.5,10.7,23.5,10.7,23.5,10.7C23.4,10.7,23.4,10.7,23.5,10.7
	C23.4,10.7,23.4,10.7,23.5,10.7C23.4,10.7,23.4,10.7,23.5,10.7C23.4,10.7,23.5,10.7,23.5,10.7C23.5,10.7,23.5,10.7,23.5,10.7
	C23.5,10.7,23.5,10.7,23.5,10.7L23.5,10.7z"
  />
<path
    d="M23.1,11C23.1,11.1,23.1,11.1,23.1,11C23.1,11.1,23.1,11.1,23.1,11C23.1,11.1,23.1,11.1,23.1,11
	C23.1,11.1,23.1,11.1,23.1,11C23.1,11.1,23.1,11.1,23.1,11C23.1,11,23.1,11,23.1,11C23.1,11,23.1,11,23.1,11
	C23.1,11,23.1,11,23.1,11L23.1,11z"
  />
<path
    d="M23.1,11C23.1,11,23.1,11,23.1,11C23.1,11,23.1,11,23.1,11C23.1,11,23.1,11,23.1,11C23.1,11,23.1,11,23.1,11
	C23.1,11,23.1,11,23.1,11C23.1,11,23.1,11,23.1,11C23.1,11,23.1,11,23.1,11C23.1,11,23.1,11,23.1,11L23.1,11z"
  />
<path
    d="M23.2,11C23.2,11,23.2,11,23.2,11C23.2,11,23.2,11,23.2,11C23.2,11,23.2,11,23.2,11C23.2,11,23.2,11,23.2,11
	C23.2,11,23.2,11,23.2,11C23.2,11,23.2,11,23.2,11C23.2,11,23.2,11,23.2,11C23.2,11,23.2,11,23.2,11L23.2,11z"
  />
<path
    d="M23.3,10.7C23.3,10.7,23.3,10.7,23.3,10.7C23.3,10.7,23.3,10.7,23.3,10.7C23.3,10.7,23.3,10.7,23.3,10.7
	C23.3,10.7,23.3,10.7,23.3,10.7C23.3,10.7,23.3,10.7,23.3,10.7C23.3,10.7,23.3,10.7,23.3,10.7C23.3,10.7,23.3,10.7,23.3,10.7
	C23.3,10.7,23.3,10.7,23.3,10.7L23.3,10.7z"
  />
<path
    d="M23.4,9.8C23.4,9.8,23.4,9.9,23.4,9.8C23.4,9.9,23.4,9.9,23.4,9.8C23.4,9.9,23.4,9.9,23.4,9.8C23.4,9.9,23.4,9.9,23.4,9.8
	C23.4,9.9,23.4,9.9,23.4,9.8C23.4,9.8,23.4,9.8,23.4,9.8C23.4,9.8,23.4,9.8,23.4,9.8C23.4,9.8,23.4,9.8,23.4,9.8z"
  />
<path
    d="M23.3,9.8C23.3,9.8,23.4,9.8,23.3,9.8C23.4,9.8,23.4,9.8,23.3,9.8C23.4,9.8,23.4,9.8,23.3,9.8C23.3,9.8,23.3,9.8,23.3,9.8
	C23.3,9.8,23.3,9.8,23.3,9.8C23.3,9.8,23.3,9.8,23.3,9.8C23.3,9.8,23.3,9.8,23.3,9.8C23.3,9.8,23.3,9.8,23.3,9.8z"
  />
<path
    d="M23.2,9.9C23.2,9.9,23.2,9.9,23.2,9.9C23.2,9.9,23.2,9.8,23.2,9.9C23.2,9.8,23.2,9.8,23.2,9.9C23.2,9.8,23.2,9.8,23.2,9.9
	C23.2,9.8,23.2,9.8,23.2,9.9C23.2,9.9,23.2,9.9,23.2,9.9C23.2,9.9,23.2,9.9,23.2,9.9C23.2,9.9,23.2,9.9,23.2,9.9L23.2,9.9z"
  />
<path
    d="M23.4,10.1L23.4,10.1L23.4,10.1C23.4,10.1,23.4,10.1,23.4,10.1C23.3,10.1,23.3,10.1,23.4,10.1L23.4,10.1L23.4,10.1
	C23.3,10.1,23.3,10.1,23.4,10.1C23.4,10.1,23.4,10.1,23.4,10.1z"
  />
<path
    d="M23.2,9.9C23.2,10,23.2,10,23.2,9.9c0.1,0.1,0.1,0.1,0.1,0.1c0,0,0,0,0,0c0,0,0,0,0,0C23.3,10,23.3,10,23.2,9.9
	C23.3,10,23.3,10,23.2,9.9c0.1,0,0.1,0,0.1,0c0,0,0,0,0,0c0,0,0,0,0,0c0,0,0,0,0,0.1c0,0,0,0,0,0.1c0,0,0,0,0,0c0,0,0,0,0,0
	c0,0,0,0,0-0.1c0,0,0,0,0-0.1c0,0,0,0,0,0C23.3,10,23.3,10,23.2,9.9c0.1,0.1,0.1,0.1,0.1,0.1c0,0,0,0,0,0c0,0,0,0,0,0c0,0,0,0,0,0
	c0,0,0,0,0,0c0,0,0,0,0,0C23.2,10.1,23.2,10.1,23.2,9.9C23.2,10,23.2,10,23.2,9.9C23.2,10,23.2,10,23.2,9.9
	C23.2,9.9,23.2,9.9,23.2,9.9L23.2,9.9z"
  />
<path
    d="M23.3,10.3C23.3,10.3,23.3,10.4,23.3,10.3C23.3,10.4,23.3,10.4,23.3,10.3C23.3,10.4,23.3,10.4,23.3,10.3
	C23.3,10.4,23.3,10.4,23.3,10.3C23.3,10.4,23.3,10.4,23.3,10.3C23.3,10.4,23.3,10.3,23.3,10.3C23.3,10.3,23.3,10.3,23.3,10.3
	C23.3,10.3,23.3,10.3,23.3,10.3z"
  />
<path
    d="M23.1,10.4C23.1,10.4,23.1,10.4,23.1,10.4C23.1,10.4,23.1,10.4,23.1,10.4C23.1,10.4,23.1,10.4,23.1,10.4
	C23.1,10.4,23.1,10.4,23.1,10.4C23.1,10.4,23.1,10.4,23.1,10.4C23.1,10.4,23.1,10.4,23.1,10.4L23.1,10.4z"
  />
<path
    d="M23.3,10.2C23.3,10.2,23.3,10.2,23.3,10.2C23.2,10.3,23.2,10.3,23.3,10.2L23.3,10.2c-0.1,0.1-0.1,0.1-0.1,0.1s0,0,0,0.1
	c0,0,0,0,0,0c0,0,0,0,0,0c0,0,0,0,0-0.1C23.2,10.3,23.2,10.3,23.3,10.2C23.2,10.3,23.2,10.3,23.3,10.2
	C23.3,10.2,23.3,10.2,23.3,10.2C23.3,10.2,23.3,10.2,23.3,10.2C23.3,10.2,23.3,10.2,23.3,10.2L23.3,10.2z"
  />
<path
    d="M23.2,10.2C23.2,10.2,23.2,10.2,23.2,10.2C23.2,10.2,23.2,10.2,23.2,10.2L23.2,10.2c-0.1,0.1-0.1,0.1-0.1,0.1c0,0,0,0,0,0
	c0,0,0,0,0,0c0,0,0,0,0,0c0,0,0,0,0,0C23.2,10.3,23.2,10.3,23.2,10.2C23.2,10.2,23.2,10.2,23.2,10.2C23.2,10.2,23.2,10.2,23.2,10.2
	C23.2,10.1,23.2,10.1,23.2,10.2C23.2,10.1,23.2,10.1,23.2,10.2L23.2,10.2z"
  />
<path
    d="M23,10.2C23,10.3,23,10.3,23,10.2c0,0.1,0,0.1-0.1,0.1c0,0,0,0,0,0c0,0,0,0,0,0C23,10.4,23,10.3,23,10.2
	C23,10.3,23,10.3,23,10.2C23,10.2,23,10.2,23,10.2C23,10.2,23,10.2,23,10.2L23,10.2z"
  />
<path
    d="M22.8,10.4C22.8,10.4,22.8,10.4,22.8,10.4C22.8,10.4,22.8,10.4,22.8,10.4C22.8,10.4,22.8,10.4,22.8,10.4
	C22.8,10.4,22.8,10.4,22.8,10.4C22.8,10.4,22.8,10.4,22.8,10.4C22.8,10.4,22.8,10.4,22.8,10.4C22.8,10.4,22.8,10.4,22.8,10.4
	C22.8,10.4,22.8,10.4,22.8,10.4L22.8,10.4z"
  />
<path
    d="M22.7,10.4C22.7,10.4,22.7,10.4,22.7,10.4c0,0.1,0,0.1,0,0.1l0,0c0,0,0,0,0,0c0,0,0,0,0,0c0,0,0,0,0,0
	C22.8,10.5,22.8,10.5,22.7,10.4C22.8,10.5,22.8,10.5,22.7,10.4C22.8,10.5,22.8,10.5,22.7,10.4c0.1,0.1,0.1,0.1,0.1,0.1c0,0,0,0,0,0
	c0,0,0,0,0,0c0,0,0,0,0,0c0,0,0,0,0,0C22.7,10.5,22.7,10.5,22.7,10.4C22.7,10.4,22.7,10.4,22.7,10.4C22.7,10.4,22.7,10.4,22.7,10.4
	C22.7,10.4,22.7,10.4,22.7,10.4L22.7,10.4z"
  />
<path
    d="M22.7,10.7C22.7,10.7,22.7,10.7,22.7,10.7C22.7,10.7,22.7,10.7,22.7,10.7C22.7,10.6,22.7,10.6,22.7,10.7
	C22.7,10.7,22.7,10.7,22.7,10.7C22.7,10.7,22.7,10.7,22.7,10.7C22.7,10.7,22.7,10.7,22.7,10.7C22.7,10.7,22.7,10.7,22.7,10.7
	C22.7,10.7,22.7,10.7,22.7,10.7L22.7,10.7z"
  />
<path
    d="M22.7,10.8C22.7,10.8,22.7,10.8,22.7,10.8C22.7,10.8,22.7,10.8,22.7,10.8C22.7,10.8,22.7,10.8,22.7,10.8
	C22.7,10.8,22.7,10.8,22.7,10.8C22.7,10.8,22.7,10.8,22.7,10.8C22.7,10.8,22.7,10.8,22.7,10.8z"
  />
<path
    d="M22.6,11C22.6,11,22.6,10.9,22.6,11C22.7,10.9,22.7,10.9,22.6,11C22.7,10.9,22.7,10.9,22.6,11C22.7,10.9,22.7,10.9,22.6,11
	C22.7,10.9,22.7,10.9,22.6,11C22.6,11,22.6,11,22.6,11C22.6,11,22.6,11,22.6,11C22.6,11,22.6,11,22.6,11L22.6,11z"
  />
<path
    d="M22.5,10.4L22.5,10.4C22.5,10.5,22.5,10.5,22.5,10.4C22.5,10.5,22.5,10.5,22.5,10.4L22.5,10.4
	C22.5,10.4,22.5,10.4,22.5,10.4C22.5,10.4,22.5,10.4,22.5,10.4z"
  />
<path
    d="M22.4,10.8C22.4,10.8,22.4,10.8,22.4,10.8L22.4,10.8C22.4,10.8,22.4,10.8,22.4,10.8C22.4,10.8,22.4,10.8,22.4,10.8
	L22.4,10.8C22.4,10.8,22.4,10.8,22.4,10.8C22.4,10.8,22.4,10.8,22.4,10.8C22.4,10.8,22.4,10.8,22.4,10.8L22.4,10.8z"
  />
<path
    d="M22.8,10.2C22.8,10.2,22.8,10.2,22.8,10.2c0,0.1,0,0.1,0,0.1c0,0,0,0,0,0.1c0,0,0,0,0,0c0,0,0,0,0,0c0,0,0,0,0,0
	c0,0,0,0,0,0c0,0,0,0,0,0c0,0,0,0,0,0c0,0,0,0,0,0c0,0,0,0,0,0c0,0,0,0,0,0c0,0,0,0,0,0C22.8,10.3,22.8,10.3,22.8,10.2
	C22.7,10.2,22.8,10.2,22.8,10.2C22.8,10.2,22.8,10.2,22.8,10.2C22.8,10.2,22.8,10.2,22.8,10.2L22.8,10.2z"
  />
<path
    d="M22.7,10.1C22.7,10.1,22.7,10.1,22.7,10.1c0,0.1,0,0.1,0,0.1c0,0,0,0.1,0,0.1c0,0,0,0.1,0,0.1c0,0,0,0,0,0c0,0,0,0,0,0
	c0,0,0-0.1,0-0.1c0,0,0-0.1,0-0.1C22.7,10.2,22.7,10.1,22.7,10.1C22.7,10.1,22.7,10.1,22.7,10.1C22.7,10.1,22.7,10.1,22.7,10.1
	C22.7,10.1,22.7,10.1,22.7,10.1z"
  />
<path
    d="M22.6,10.3C22.6,10.3,22.6,10.3,22.6,10.3C22.6,10.4,22.6,10.4,22.6,10.3C22.6,10.4,22.6,10.4,22.6,10.3
	C22.6,10.4,22.6,10.4,22.6,10.3C22.6,10.4,22.6,10.4,22.6,10.3C22.5,10.3,22.5,10.3,22.6,10.3C22.6,10.3,22.6,10.3,22.6,10.3
	C22.6,10.3,22.6,10.3,22.6,10.3L22.6,10.3z"
  />
<path
    d="M22.5,10.3C22.5,10.3,22.5,10.3,22.5,10.3C22.5,10.3,22.5,10.3,22.5,10.3L22.5,10.3C22.5,10.3,22.5,10.3,22.5,10.3
	C22.5,10.4,22.5,10.4,22.5,10.3C22.5,10.4,22.5,10.4,22.5,10.3C22.5,10.4,22.5,10.4,22.5,10.3C22.5,10.4,22.5,10.4,22.5,10.3
	C22.5,10.3,22.5,10.3,22.5,10.3C22.5,10.3,22.5,10.3,22.5,10.3C22.5,10.3,22.5,10.3,22.5,10.3C22.5,10.3,22.5,10.3,22.5,10.3
	C22.5,10.3,22.5,10.3,22.5,10.3L22.5,10.3z"
  />
<path
    d="M22.9,9.6C22.9,9.6,22.9,9.6,22.9,9.6c0,0.1,0,0.1,0,0.1c0,0,0,0,0,0c0,0,0,0,0,0C23,9.7,22.9,9.7,22.9,9.6
	C22.9,9.6,22.9,9.6,22.9,9.6C22.9,9.6,22.9,9.6,22.9,9.6C22.9,9.6,22.9,9.6,22.9,9.6L22.9,9.6z"
  />
<path
    d="M22.9,9.7C22.9,9.7,22.9,9.7,22.9,9.7c0,0.1,0,0.1,0,0.1c0,0,0,0,0,0c0,0,0,0,0,0C22.9,9.8,22.9,9.7,22.9,9.7
	C22.9,9.7,22.9,9.7,22.9,9.7C22.9,9.7,22.9,9.7,22.9,9.7C22.9,9.7,22.9,9.7,22.9,9.7z"
  />
<path
    d="M22.6,9.7C22.6,9.7,22.6,9.7,22.6,9.7c0,0.1,0,0.2,0,0.2l0,0c0,0,0,0,0,0.1c0,0,0,0,0,0.1c0,0,0,0,0,0c0,0,0,0,0,0
	c0,0,0,0,0-0.1c0,0,0,0,0-0.1C22.6,9.8,22.5,9.8,22.6,9.7C22.6,9.7,22.6,9.7,22.6,9.7C22.6,9.7,22.6,9.7,22.6,9.7
	C22.6,9.7,22.6,9.7,22.6,9.7L22.6,9.7z"
  />
<path
    d="M22.9,9.6C22.9,9.6,22.9,9.6,22.9,9.6C22.9,9.6,22.9,9.6,22.9,9.6c0,0.1-0.1,0.1-0.1,0.1c0,0,0,0,0,0.1c0,0,0,0,0,0
	c0,0,0,0,0,0c0,0,0,0,0-0.1C22.8,9.6,22.8,9.6,22.9,9.6C22.8,9.6,22.9,9.6,22.9,9.6C22.9,9.6,22.9,9.6,22.9,9.6
	C22.9,9.6,22.9,9.5,22.9,9.6C22.9,9.5,22.9,9.5,22.9,9.6L22.9,9.6z"
  />
<path
    d="M22.6,9.6C22.6,9.6,22.6,9.6,22.6,9.6c0,0.1,0,0.1,0,0.1l0,0c0,0,0,0,0,0c0,0,0,0,0,0.1c0,0,0,0,0,0c0,0,0,0,0,0
	c0,0,0,0,0-0.1C22.5,9.7,22.5,9.7,22.6,9.6C22.6,9.7,22.6,9.6,22.6,9.6C22.6,9.6,22.6,9.6,22.6,9.6C22.6,9.6,22.6,9.6,22.6,9.6
	C22.6,9.6,22.6,9.6,22.6,9.6L22.6,9.6z"
  />
<path
    d="M22.7,9.6C22.7,9.6,22.7,9.6,22.7,9.6C22.7,9.6,22.8,9.6,22.7,9.6C22.8,9.6,22.8,9.6,22.7,9.6C22.7,9.6,22.7,9.6,22.7,9.6
	C22.7,9.6,22.7,9.6,22.7,9.6C22.7,9.6,22.7,9.6,22.7,9.6C22.7,9.6,22.7,9.6,22.7,9.6C22.7,9.6,22.7,9.6,22.7,9.6L22.7,9.6z"
  />
<path
    d="M22.7,9.5C22.7,9.5,22.7,9.6,22.7,9.5C22.7,9.6,22.7,9.6,22.7,9.5C22.7,9.6,22.7,9.6,22.7,9.5c0,0.1,0,0.1,0,0.1
	c0,0,0,0,0,0.1c0,0,0,0,0,0s0,0,0,0c0,0,0,0,0-0.1C22.7,9.7,22.7,9.6,22.7,9.5c-0.1,0.1-0.1,0.2-0.1,0.2c0,0,0,0.1,0,0.1
	c0,0,0,0,0,0c0,0,0,0,0,0c0,0,0-0.1,0-0.1C22.6,9.7,22.6,9.7,22.7,9.5L22.7,9.5C22.7,9.6,22.7,9.6,22.7,9.5
	C22.7,9.6,22.7,9.5,22.7,9.5C22.7,9.5,22.7,9.5,22.7,9.5C22.7,9.5,22.7,9.5,22.7,9.5L22.7,9.5z"
  />
<path
    d="M22.7,9.5C22.7,9.5,22.7,9.5,22.7,9.5C22.7,9.5,22.7,9.5,22.7,9.5C22.7,9.6,22.7,9.6,22.7,9.5c0,0.1,0,0.1,0,0.1
	c0,0,0,0,0,0c0,0,0,0,0,0C22.6,9.6,22.6,9.6,22.7,9.5C22.7,9.6,22.7,9.5,22.7,9.5C22.7,9.5,22.7,9.5,22.7,9.5
	C22.7,9.5,22.7,9.5,22.7,9.5C22.7,9.5,22.7,9.5,22.7,9.5C22.7,9.5,22.7,9.5,22.7,9.5L22.7,9.5z"
  />
<path
    d="M23.1,10C23.1,10,23.2,10,23.1,10C23.2,10,23.2,10,23.1,10C23.2,10,23.2,10,23.1,10C23.2,10,23.2,10,23.1,10
	C23.2,10,23.2,10,23.1,10C23.1,10,23.1,10,23.1,10C23.1,10,23.1,10,23.1,10C23.1,10,23.1,10,23.1,10z"
  />
<path
    d="M23.1,10.1C23.1,10.1,23.2,10.1,23.1,10.1c0,0.1,0,0.1,0,0.1c0,0,0,0,0,0c0,0,0,0,0,0c0,0,0,0,0,0c0,0,0,0,0,0l0,0
	C23.1,10.2,23.1,10.2,23.1,10.1C23.1,10.1,23.1,10.1,23.1,10.1C23.1,10.1,23.1,10.1,23.1,10.1C23.1,10.1,23.1,10.1,23.1,10.1z"
  />
<path
    d="M23.1,10C23.1,10,23.1,10,23.1,10c0.1,0.1,0.1,0.2,0.1,0.2c0,0,0,0,0,0s0,0,0,0C23.1,10.1,23.1,10.1,23.1,10
	C23.1,10,23.1,10,23.1,10C23,10,23,10,23.1,10C23,10,23.1,10,23.1,10L23.1,10z"
  />
<path
    d="M23,10.1C23,10.2,23,10.2,23,10.1c0,0.1-0.1,0.1-0.1,0.1c0,0,0,0,0,0c0,0,0,0,0,0c0,0,0,0,0,0c0,0,0,0,0,0c0,0,0,0,0,0v0
	c0,0,0,0,0-0.1c0,0,0,0,0-0.1c0,0,0,0,0,0c0,0,0,0,0,0c0,0,0,0,0,0s0,0,0,0c0,0,0,0,0,0c0,0,0,0,0,0l0,0c0,0,0,0,0,0.1
	c0,0,0,0,0,0.1l0,0c0,0,0,0,0,0c0,0,0,0,0,0c0,0,0,0,0,0c0,0,0,0,0,0C23,10.2,23,10.2,23,10.1C23,10.2,23,10.2,23,10.1
	C23,10.1,23,10.1,23,10.1C23,10.1,23,10.1,23,10.1L23,10.1z"
  />
<path
    d="M22.8,10.1C22.8,10.1,22.8,10.1,22.8,10.1c0,0.1,0,0.1,0,0.1c0,0,0,0,0,0c0,0,0,0,0,0C22.8,10.2,22.8,10.1,22.8,10.1
	C22.8,10.1,22.8,10.1,22.8,10.1C22.8,10.1,22.8,10.1,22.8,10.1C22.8,10.1,22.8,10.1,22.8,10.1L22.8,10.1z"
  />
<path
    d="M22.7,10.1L22.7,10.1L22.7,10.1C22.7,10.2,22.7,10.2,22.7,10.1C22.6,10.2,22.6,10.2,22.7,10.1L22.7,10.1L22.7,10.1
	C22.6,10.1,22.6,10.1,22.7,10.1C22.7,10.1,22.7,10.1,22.7,10.1z"
  />
<path
    d="M22.7,10C22.7,10,22.7,10,22.7,10C22.7,10.1,22.7,10.1,22.7,10C22.7,10.1,22.7,10.1,22.7,10C22.7,10.1,22.7,10.1,22.7,10
	C22.7,10.1,22.7,10.1,22.7,10C22.7,10,22.7,10,22.7,10C22.7,10,22.7,10,22.7,10C22.7,10,22.7,10,22.7,10L22.7,10z"
  />
<path
    d="M22.6,10.3c0-0.1,0-0.1,0-0.1c0,0,0-0.1,0-0.1c0,0,0,0,0,0c0,0,0,0,0-0.1c0,0,0,0,0,0c0,0,0,0,0,0c0,0,0,0.1,0,0.1
	c0,0,0,0,0,0.1c0,0,0,0,0,0.1C22.6,10.2,22.6,10.2,22.6,10.3C22.6,10.3,22.6,10.3,22.6,10.3C22.6,10.3,22.6,10.3,22.6,10.3
	L22.6,10.3z"
  />
<path
    d="M22.5,10.2C22.5,10.2,22.5,10.2,22.5,10.2C22.5,10.2,22.5,10.2,22.5,10.2C22.5,10.2,22.5,10.2,22.5,10.2
	C22.5,10.2,22.5,10.2,22.5,10.2C22.5,10.2,22.5,10.2,22.5,10.2C22.5,10.2,22.5,10.2,22.5,10.2C22.5,10.2,22.5,10.2,22.5,10.2
	C22.5,10.2,22.5,10.2,22.5,10.2L22.5,10.2z"
  />
<path
    d="M22.9,9.9C22.9,9.9,22.9,10,22.9,9.9c0,0.1,0,0.1,0,0.1c0,0,0,0,0,0c0,0,0,0,0,0C22.9,10,22.9,10,22.9,9.9
	C22.9,10,22.9,9.9,22.9,9.9C22.9,9.9,22.9,9.9,22.9,9.9C22.9,9.9,22.9,9.9,22.9,9.9L22.9,9.9z"
  />
<path
    d="M23,9.8C23,9.8,23,9.9,23,9.8c0,0.1,0,0.1,0,0.1c0,0,0,0,0,0C23,9.9,23,9.9,23,9.8C23,9.9,22.9,9.9,23,9.8
	C22.9,9.9,22.9,9.9,23,9.8C22.9,9.8,22.9,9.8,23,9.8C22.9,9.9,23,9.9,23,9.8c0,0.1,0,0.1,0,0.1C23,9.9,23,9.9,23,9.8
	C23,9.9,23,9.8,23,9.8C23,9.8,23,9.8,23,9.8C23,9.8,23,9.8,23,9.8L23,9.8z"
  />
<path
    d="M23,9.7C23.1,9.7,23.1,9.8,23,9.7c0,0.1,0,0.1,0,0.1v0c0,0,0,0,0,0c0,0,0,0,0,0c0,0,0,0,0,0c0,0,0,0,0,0c0,0,0,0,0,0
	c0,0,0,0,0,0v0C23.1,9.8,23.1,9.8,23,9.7C23.1,9.8,23,9.7,23,9.7C23,9.7,23,9.7,23,9.7C23,9.7,23,9.7,23,9.7L23,9.7z"
  />
<path
    d="M22.9,9.7C22.9,9.7,22.8,9.7,22.9,9.7C22.8,9.8,22.8,9.8,22.9,9.7C22.8,9.8,22.8,9.8,22.9,9.7C22.8,9.8,22.8,9.8,22.9,9.7
	C22.8,9.8,22.8,9.8,22.9,9.7C22.8,9.7,22.8,9.7,22.9,9.7C22.9,9.7,22.9,9.7,22.9,9.7C22.9,9.7,22.9,9.7,22.9,9.7z"
  />
<path
    d="M22.5,9.9C22.5,10,22.5,10,22.5,9.9c0,0.1-0.1,0.1-0.1,0.1c0,0,0,0,0,0c0,0,0,0,0,0C22.4,10.1,22.5,10,22.5,9.9
	C22.5,10,22.5,10,22.5,9.9C22.5,9.9,22.5,9.9,22.5,9.9C22.5,9.9,22.5,9.9,22.5,9.9L22.5,9.9z"
  />
<path
    d="M22.5,9.8C22.5,9.8,22.5,9.9,22.5,9.8C22.5,9.9,22.5,9.9,22.5,9.8C22.5,9.9,22.5,9.9,22.5,9.8C22.5,9.9,22.5,9.9,22.5,9.8
	C22.5,9.9,22.5,9.9,22.5,9.8C22.5,9.9,22.5,9.8,22.5,9.8C22.5,9.8,22.5,9.8,22.5,9.8C22.5,9.8,22.5,9.8,22.5,9.8L22.5,9.8z"
  />
<path
    d="M22.7,9.8L22.7,9.8C22.7,9.8,22.7,9.9,22.7,9.8L22.7,9.8C22.7,9.9,22.7,9.9,22.7,9.8L22.7,9.8C22.7,9.9,22.7,9.9,22.7,9.8
	C22.7,9.9,22.7,9.9,22.7,9.8L22.7,9.8C22.7,9.8,22.7,9.8,22.7,9.8C22.7,9.8,22.7,9.8,22.7,9.8C22.7,9.8,22.7,9.8,22.7,9.8L22.7,9.8
	C22.7,9.8,22.7,9.8,22.7,9.8L22.7,9.8z"
  />
<path
    d="M22.8,9.7C22.8,9.7,22.8,9.7,22.8,9.7c0,0.1,0,0.1,0,0.1c0,0,0,0.1,0,0.1c0,0,0,0.1,0,0.1c0,0,0,0,0,0c0,0,0,0,0,0
	c0,0,0-0.1,0-0.1c0,0,0-0.1,0-0.1l0,0C22.8,9.8,22.8,9.8,22.8,9.7C22.8,9.7,22.8,9.7,22.8,9.7C22.8,9.7,22.8,9.7,22.8,9.7
	C22.8,9.7,22.8,9.7,22.8,9.7L22.8,9.7z"
  />
<path
    d="M22.4,9.1C22.5,9,22.5,9,22.4,9.1c0.1,0,0.1,0,0.2,0c0,0,0,0,0,0c0,0,0,0,0,0c0,0,0,0,0,0s0,0,0,0c0,0,0,0,0,0c0,0,0,0,0,0
	c0,0,0,0,0,0C22.6,9.1,22.5,9.1,22.4,9.1C22.5,9.1,22.5,9.1,22.4,9.1C22.4,9.1,22.4,9.1,22.4,9.1C22.5,9.1,22.5,9.1,22.4,9.1
	C22.5,9.1,22.5,9.1,22.4,9.1c0.1,0,0.1,0,0.2,0C22.6,9,22.5,9,22.4,9.1C22.5,9,22.5,9,22.4,9.1C22.4,9.1,22.4,9.1,22.4,9.1
	C22.4,9.1,22.4,9.1,22.4,9.1L22.4,9.1z"
  />
<path
    d="M22.5,9C22.5,9,22.5,9,22.5,9C22.5,9.1,22.5,9.1,22.5,9C22.5,9.1,22.5,9.1,22.5,9C22.5,9,22.5,9,22.5,9z"
  />
<path
    d="M22.7,9.2C22.7,9.2,22.7,9.1,22.7,9.2C22.7,9.1,22.7,9.1,22.7,9.2C22.7,9.1,22.7,9.1,22.7,9.2C22.7,9.1,22.7,9.1,22.7,9.2
	C22.7,9.1,22.7,9.1,22.7,9.2C22.7,9.2,22.7,9.2,22.7,9.2C22.7,9.2,22.7,9.2,22.7,9.2C22.7,9.2,22.7,9.2,22.7,9.2L22.7,9.2z"
  />
<path
    d="M23,9C23,9,23,9,23,9C23,9,23,9,23,9C23,9.1,23,9.1,23,9C23,9.1,23,9.1,23,9C23,9.1,23,9.1,23,9C23,9.1,23,9.1,23,9
	C23,9.1,23,9.1,23,9C23,9,23,9,23,9L23,9z"
  />
<path
    d="M22.8,9.1C22.8,9,22.8,9,22.8,9.1C22.8,9,22.8,9,22.8,9.1C22.9,9,22.9,9,22.8,9.1C22.9,9,22.9,9,22.8,9.1
	C22.8,9,22.8,9,22.8,9.1C22.8,9,22.8,9,22.8,9.1C22.8,9.1,22.8,9.1,22.8,9.1C22.8,9.1,22.8,9.1,22.8,9.1z"
  />
<path
    d="M22.8,9.1C22.8,9.1,22.8,9.1,22.8,9.1C22.8,9.1,22.8,9,22.8,9.1C22.8,9,22.8,9,22.8,9.1C22.8,9.1,22.8,9.1,22.8,9.1
	C22.8,9.1,22.8,9.1,22.8,9.1C22.8,9.1,22.8,9.1,22.8,9.1C22.8,9.1,22.8,9.1,22.8,9.1C22.8,9.1,22.8,9.1,22.8,9.1L22.8,9.1z"
  />
<path
    d="M22.5,9.2C22.5,9.2,22.5,9.2,22.5,9.2C22.5,9.2,22.5,9.2,22.5,9.2C22.5,9.2,22.5,9.2,22.5,9.2C22.5,9.2,22.5,9.2,22.5,9.2
	C22.5,9.2,22.5,9.2,22.5,9.2C22.5,9.2,22.5,9.2,22.5,9.2C22.5,9.2,22.5,9.2,22.5,9.2C22.5,9.2,22.5,9.2,22.5,9.2L22.5,9.2z"
  />
<path
    d="M22.6,9.2L22.6,9.2C22.6,9.2,22.6,9.2,22.6,9.2C22.6,9.2,22.6,9.2,22.6,9.2L22.6,9.2C22.6,9.2,22.6,9.2,22.6,9.2
	C22.6,9.2,22.6,9.2,22.6,9.2z"
  />
<path
    d="M22.6,9.1C22.6,9.1,22.6,9.1,22.6,9.1C22.6,9.1,22.6,9.1,22.6,9.1C22.6,9.1,22.6,9.1,22.6,9.1C22.6,9.1,22.6,9.1,22.6,9.1
	C22.6,9.1,22.6,9.1,22.6,9.1C22.6,9.1,22.6,9.1,22.6,9.1C22.5,9.1,22.5,9.1,22.6,9.1C22.6,9.1,22.6,9.1,22.6,9.1L22.6,9.1z"
  />
<path
    d="M22.6,9C22.6,9,22.6,9,22.6,9C22.6,9,22.6,9,22.6,9C22.6,9,22.6,9,22.6,9C22.6,9,22.6,9,22.6,9C22.6,9,22.6,9,22.6,9
	C22.6,9,22.6,9,22.6,9C22.6,9,22.6,9,22.6,9C22.6,9,22.6,9,22.6,9L22.6,9z"
  />
<path
    d="M22.5,9C22.5,9,22.5,9,22.5,9C22.5,9,22.5,9,22.5,9C22.5,9,22.5,9,22.5,9C22.5,9,22.5,9,22.5,9C22.5,9,22.5,9,22.5,9
	C22.5,9,22.5,9,22.5,9C22.5,9,22.5,9,22.5,9C22.5,9,22.5,9,22.5,9z"
  />
<path
    d="M22.5,9C22.5,9,22.5,9,22.5,9C22.5,9,22.5,9,22.5,9C22.4,9,22.4,9,22.5,9C22.4,9,22.4,9,22.5,9C22.4,9,22.4,9,22.5,9
	C22.5,9,22.5,9,22.5,9C22.5,9,22.5,9,22.5,9C22.5,9,22.5,9,22.5,9z"
  />
<path
    d="M22.4,9C22.4,9,22.4,9,22.4,9C22.4,9,22.4,9.1,22.4,9C22.4,9.1,22.4,9.1,22.4,9C22.4,9.1,22.4,9.1,22.4,9
	C22.4,9,22.4,9,22.4,9C22.4,9,22.4,9,22.4,9C22.4,9,22.4,9,22.4,9C22.4,9,22.4,9,22.4,9L22.4,9z"
  />
<path
    d="M22.4,9.1C22.4,9.1,22.4,9.1,22.4,9.1L22.4,9.1C22.4,9.1,22.4,9.1,22.4,9.1C22.4,9.1,22.4,9.1,22.4,9.1L22.4,9.1
	C22.4,9.1,22.4,9.1,22.4,9.1C22.4,9.1,22.4,9.1,22.4,9.1C22.4,9.1,22.4,9.1,22.4,9.1z"
  />
<path
    d="M22.3,9.1L22.3,9.1C22.3,9.1,22.3,9.2,22.3,9.1C22.3,9.2,22.3,9.1,22.3,9.1L22.3,9.1C22.3,9.1,22.3,9.1,22.3,9.1
	C22.3,9.1,22.3,9.1,22.3,9.1z"
  />
<path
    d="M22.4,9.2C22.4,9.2,22.4,9.3,22.4,9.2C22.4,9.3,22.4,9.3,22.4,9.2C22.4,9.3,22.4,9.3,22.4,9.2C22.4,9.3,22.4,9.3,22.4,9.2
	C22.4,9.3,22.4,9.3,22.4,9.2C22.4,9.3,22.4,9.2,22.4,9.2C22.4,9.2,22.4,9.2,22.4,9.2C22.4,9.2,22.4,9.2,22.4,9.2z"
  />
<path
    d="M22.4,9.2C22.4,9.2,22.4,9.2,22.4,9.2C22.4,9.2,22.4,9.2,22.4,9.2C22.4,9.2,22.4,9.2,22.4,9.2C22.4,9.2,22.4,9.2,22.4,9.2
	C22.4,9.2,22.4,9.2,22.4,9.2C22.4,9.2,22.4,9.2,22.4,9.2z"
  />
<path
    d="M22.3,8.8C22.3,8.8,22.3,8.8,22.3,8.8C22.4,8.9,22.4,8.9,22.3,8.8C22.4,8.9,22.4,8.9,22.3,8.8C22.4,8.9,22.4,8.9,22.3,8.8
	C22.4,8.9,22.4,8.9,22.3,8.8C22.3,8.9,22.3,8.9,22.3,8.8C22.3,8.8,22.3,8.8,22.3,8.8C22.3,8.8,22.3,8.8,22.3,8.8L22.3,8.8z"
  />
<path
    d="M22.7,9.4C22.8,9.4,22.8,9.4,22.7,9.4c0,0.1,0,0.1,0,0.1c0,0,0,0,0,0s0,0,0,0C22.7,9.5,22.7,9.4,22.7,9.4
	C22.7,9.4,22.7,9.4,22.7,9.4C22.7,9.4,22.7,9.4,22.7,9.4C22.7,9.4,22.7,9.4,22.7,9.4z"
  />
<path
    d="M22.6,9.5C22.6,9.5,22.6,9.5,22.6,9.5C22.6,9.5,22.7,9.4,22.6,9.5c0.1-0.1,0.1-0.1,0.1-0.2c0,0,0,0,0-0.1c0,0,0,0,0,0
	c0,0,0,0,0,0c0,0,0,0,0,0.1C22.7,9.4,22.7,9.4,22.6,9.5C22.7,9.5,22.7,9.5,22.6,9.5C22.6,9.5,22.6,9.5,22.6,9.5
	C22.6,9.5,22.6,9.5,22.6,9.5C22.6,9.5,22.6,9.5,22.6,9.5L22.6,9.5z"
  />
<path
    d="M22.4,9.5C22.4,9.5,22.4,9.5,22.4,9.5C22.5,9.5,22.5,9.5,22.4,9.5C22.5,9.5,22.5,9.4,22.4,9.5C22.5,9.5,22.5,9.5,22.4,9.5
	C22.5,9.5,22.5,9.5,22.4,9.5C22.5,9.5,22.4,9.5,22.4,9.5C22.4,9.5,22.4,9.5,22.4,9.5C22.4,9.5,22.4,9.5,22.4,9.5L22.4,9.5z"
  />
<path
    d="M22.4,9.5C22.4,9.5,22.4,9.5,22.4,9.5C22.4,9.4,22.4,9.4,22.4,9.5C22.5,9.4,22.5,9.4,22.4,9.5C22.5,9.4,22.5,9.4,22.4,9.5
	C22.4,9.4,22.4,9.5,22.4,9.5C22.4,9.5,22.4,9.5,22.4,9.5C22.4,9.5,22.4,9.5,22.4,9.5C22.4,9.5,22.4,9.5,22.4,9.5L22.4,9.5z"
  />
<path
    d="M22.6,9.3C22.6,9.3,22.6,9.3,22.6,9.3C22.6,9.3,22.6,9.3,22.6,9.3C22.6,9.3,22.6,9.3,22.6,9.3C22.6,9.3,22.6,9.3,22.6,9.3
	C22.6,9.3,22.6,9.3,22.6,9.3C22.6,9.3,22.6,9.3,22.6,9.3C22.6,9.3,22.6,9.3,22.6,9.3C22.6,9.3,22.6,9.3,22.6,9.3L22.6,9.3z"
  />
<path
    d="M22.5,9.3C22.5,9.3,22.5,9.3,22.5,9.3L22.5,9.3C22.5,9.3,22.5,9.3,22.5,9.3C22.5,9.3,22.5,9.3,22.5,9.3L22.5,9.3
	C22.5,9.3,22.5,9.3,22.5,9.3C22.5,9.3,22.5,9.3,22.5,9.3C22.5,9.3,22.5,9.3,22.5,9.3L22.5,9.3z"
  />
<path
    d="M24.4,9.8C24.4,9.8,24.4,9.8,24.4,9.8C24.4,9.9,24.4,9.9,24.4,9.8C24.4,9.9,24.4,9.9,24.4,9.8C24.4,9.9,24.4,9.9,24.4,9.8
	C24.4,9.9,24.4,9.9,24.4,9.8C24.4,9.9,24.4,9.9,24.4,9.8C24.4,9.8,24.4,9.8,24.4,9.8C24.4,9.8,24.4,9.8,24.4,9.8z"
  />
<path
    d="M22.3,10.8C22.3,10.9,22.3,10.9,22.3,10.8C22.3,10.9,22.3,10.9,22.3,10.8C22.3,10.9,22.3,10.9,22.3,10.8
	C22.3,10.9,22.3,10.9,22.3,10.8C22.3,10.9,22.3,10.9,22.3,10.8C22.3,10.9,22.3,10.9,22.3,10.8C22.3,10.8,22.3,10.8,22.3,10.8
	C22.3,10.8,22.3,10.8,22.3,10.8L22.3,10.8z"
  />
<path
    fill="#FF0000"
    d="M23.9,8.9c0,0,0.1,0,0.1,0C24,9,23.9,9,23.9,8.9C23.9,9,23.9,9,23.9,8.9C23.9,8.9,23.9,8.9,23.9,8.9z"
  />
<path
    fill="#FF0000"
    d="M23.8,8.9C23.8,8.9,23.8,8.9,23.8,8.9C23.9,8.9,23.9,8.9,23.8,8.9c0.1,0,0.1,0,0.1,0C23.9,9,23.9,9,23.8,8.9
	C23.9,9,23.9,9,23.8,8.9C23.8,9,23.8,9,23.8,8.9C23.8,9,23.8,9,23.8,8.9C23.8,9,23.8,9,23.8,8.9C23.8,9,23.8,9,23.8,8.9
	C23.8,8.9,23.8,8.9,23.8,8.9L23.8,8.9z"
  />
<path
    fill="#FF0000"
    d="M22.9,8.7c0.1,0,0.1,0,0.2,0c0,0,0,0,0,0c0,0,0,0,0,0.1c0,0,0,0,0,0c0,0,0,0,0,0c0,0,0-0.1,0-0.1
	c0,0,0,0,0,0c0,0,0,0,0,0c0.1,0,0.1,0,0.2,0c0,0,0,0,0,0c0,0,0,0,0,0c0,0,0,0,0,0c0,0,0,0,0,0c0,0,0,0,0,0c0,0,0,0,0-0.1
	c0,0,0,0,0,0c0,0,0.1,0,0.1,0.1c0,0,0,0,0,0c0,0,0,0,0,0c0,0,0,0,0,0c0,0,0,0,0,0c0,0,0,0,0,0c0,0,0,0,0,0c0,0,0,0,0,0c0,0,0,0,0,0
	c0,0,0.1,0,0.1,0l0,0c0,0,0,0,0,0c0,0,0,0,0,0c0,0,0,0,0,0c0,0,0,0,0,0c0,0,0,0,0,0c0,0,0,0,0,0c0,0,0,0,0,0c0,0,0.1,0,0.1,0
	c0,0,0,0,0,0c0,0,0,0,0,0c0,0,0,0,0,0c0,0,0,0,0,0c0,0,0,0,0,0c-0.1,0-0.2-0.1-0.3-0.1c0,0,0,0,0,0c0,0-0.1,0-0.1-0.1c0,0,0,0,0,0
	c0,0,0,0,0,0c0,0,0,0,0,0c0,0,0,0,0,0c0,0-0.1,0-0.1,0C23.1,8.8,23,8.8,22.9,8.7C23,8.8,23,8.8,22.9,8.7C23,8.7,23,8.7,22.9,8.7
	C23,8.7,23,8.7,22.9,8.7L22.9,8.7z"
  />
<path
    fill="#FF0000"
    d="M22.8,8.7c0.1,0,0.1,0,0.2,0c0,0,0,0,0.1,0c0,0,0,0,0,0.1c0,0,0,0-0.1,0C22.9,8.8,22.9,8.8,22.8,8.7
	C22.8,8.8,22.8,8.7,22.8,8.7C22.8,8.7,22.8,8.7,22.8,8.7L22.8,8.7z"
  />
<path
    fill="#FF0000"
    d="M23.3,9C23.3,9,23.3,9,23.3,9c-0.1-0.1-0.2-0.1-0.3-0.1c0,0,0,0,0,0c0,0,0-0.1,0-0.1c0,0,0,0-0.1-0.1
	c0,0,0.1,0,0.1,0c0,0,0.1,0,0.1,0c0,0,0,0,0,0.1c0,0,0,0,0,0.1c0,0,0,0,0,0c0,0,0,0,0,0c0,0,0,0,0.1-0.1c0,0,0,0,0-0.1
	c0,0,0.1,0,0.1,0.1c0,0,0.1,0,0.1,0.1C23.5,9,23.4,9,23.3,9C23.4,9,23.4,9,23.3,9C23.4,9,23.3,9,23.3,9L23.3,9L23.3,9z"
  />
<path
    fill="#FF0000"
    d="M23.5,9.2c0,0-0.1-0.1-0.1-0.1c0,0,0.1,0,0.1,0c0,0,0,0,0-0.1c0,0,0.1,0,0.1,0.1C23.6,9.1,23.6,9.1,23.5,9.2
	C23.6,9.1,23.6,9.1,23.5,9.2C23.6,9.1,23.6,9.1,23.5,9.2C23.6,9.1,23.6,9.1,23.5,9.2C23.6,9.1,23.6,9.1,23.5,9.2
	C23.6,9.1,23.5,9.1,23.5,9.2C23.5,9.1,23.5,9.1,23.5,9.2L23.5,9.2z"
  />
<path
    fill="#FF0000"
    d="M23.7,9.3C23.7,9.3,23.6,9.2,23.7,9.3c-0.1,0-0.1-0.1-0.2-0.1c0,0,0,0,0.1,0c0,0,0,0,0,0c0,0,0,0,0,0
	c0,0,0,0,0,0C23.7,9.1,23.7,9.2,23.7,9.3c0.1-0.1,0.1-0.1,0.1-0.1c0,0,0,0,0,0C23.8,9.2,23.8,9.2,23.7,9.3
	C23.7,9.3,23.7,9.3,23.7,9.3C23.7,9.3,23.7,9.3,23.7,9.3L23.7,9.3z"
  />
<path
    fill="#FF0000"
    d="M23.9,9.3c-0.1,0-0.1,0-0.2-0.1C23.7,9.3,23.8,9.3,23.9,9.3c-0.1-0.1-0.1-0.1-0.1-0.1
	C23.8,9.2,23.9,9.2,23.9,9.3C23.9,9.3,23.9,9.3,23.9,9.3C23.9,9.3,23.9,9.3,23.9,9.3C23.9,9.3,23.9,9.3,23.9,9.3L23.9,9.3L23.9,9.3z
	"
  />
<path
    fill="#FF0000"
    d="M24.2,9.3C24.2,9.3,24.3,9.3,24.2,9.3c-0.1,0.1-0.2,0.1-0.4,0c0,0,0,0,0,0c0,0,0,0,0,0c0,0,0.1,0,0.1,0
	c0,0,0,0,0,0c0,0,0,0,0,0c0,0,0,0,0,0c0,0,0,0,0,0c0,0,0,0,0,0c0,0,0,0,0,0C24.1,9.3,24.2,9.3,24.2,9.3L24.2,9.3z"
  />
<path
    fill="#FF0000"
    d="M23.5,11.2C23.5,11.2,23.5,11.2,23.5,11.2c-0.1,0-0.1,0.1-0.1,0.1C23.4,11.3,23.4,11.3,23.5,11.2
	C23.4,11.3,23.4,11.3,23.5,11.2c0,0.1,0,0.1-0.1,0.1c0,0,0,0,0,0c0,0,0.1,0,0.2,0c0,0,0.1,0,0.1-0.1c0,0,0,0,0,0c0,0,0,0,0,0
	C23.5,11.2,23.5,11.2,23.5,11.2z"
  />
<path
    fill="#FF0000"
    d="M22.3,10.8C22.2,10.9,22.2,10.9,22.3,10.8c-0.1,0.1-0.1,0.1-0.1,0.1C22.1,10.9,22.2,10.9,22.3,10.8
	c-0.1,0,0,0.1-0.1,0.1c0,0,0,0,0,0c0,0,0.1,0,0.2,0c0,0,0,0,0-0.1c0,0,0,0,0,0L22.3,10.8L22.3,10.8L22.3,10.8z"
  />
<path
    fill="#FF0000"
    d="M23.1,11.1C23.1,11.1,23,11.1,23.1,11.1C23,11.1,23.1,11.1,23.1,11.1C23.1,11.1,23.1,11.2,23.1,11.1
	c0,0.1-0.1,0.1-0.1,0.1c0,0,0,0,0,0c0,0,0,0,0,0C22.9,11.1,23,11.1,23.1,11.1C23,11.1,23,11.1,23.1,11.1C23,11.1,23,11.1,23.1,11.1
	c-0.1,0-0.1,0-0.1,0c0,0,0,0,0,0h0c0,0,0,0,0,0c0,0,0,0,0,0c0,0,0,0,0.1,0C23,11.1,23,11.1,23.1,11.1C23,11.1,23,11.1,23.1,11.1
	L23.1,11.1z"
  />
<path
    fill="#FF0000"
    d="M22.5,11.1C22.5,11.1,22.5,11.1,22.5,11.1C22.4,11.1,22.4,11.1,22.5,11.1c-0.1,0.1-0.1,0.1-0.1,0.1
	C22.4,11.2,22.4,11.2,22.5,11.1C22.5,11.1,22.5,11.1,22.5,11.1c0,0.1,0,0.1,0,0.1c0,0,0,0,0.1,0c0,0,0.1,0,0.1,0c0,0,0,0,0-0.1l0,0
	C22.6,11.1,22.6,11.1,22.5,11.1C22.6,11.1,22.6,11.1,22.5,11.1C22.5,11.1,22.5,11.1,22.5,11.1C22.5,11.1,22.5,11.1,22.5,11.1
	L22.5,11.1L22.5,11.1z"
  />
<path
    fill="#FF0000"
    d="M22.7,9C22.7,9,22.7,9,22.7,9C22.7,9,22.8,9,22.7,9c0.1,0,0.2,0,0.2,0c0,0,0.1,0,0.1,0c0,0,0,0,0,0
	c0,0,0,0,0,0c0,0,0,0,0-0.1c0,0,0,0-0.1-0.1c0,0-0.1,0-0.1,0c0,0,0,0-0.1,0c0,0,0,0,0,0c0,0,0,0,0,0.1c0,0,0,0,0,0c0,0,0,0,0,0
	c0,0,0-0.1,0-0.1c0,0,0,0-0.1,0c0,0-0.1,0-0.1,0c0,0,0,0-0.1,0c0,0,0,0,0.1,0C22.7,8.9,22.8,8.9,22.7,9C22.8,8.9,22.8,8.9,22.7,9
	C22.8,8.9,22.8,8.9,22.7,9C22.7,8.9,22.7,8.9,22.7,9c0-0.1-0.1-0.1-0.1-0.1c0,0,0,0,0,0c0,0,0,0,0,0C22.6,8.9,22.7,9,22.7,9L22.7,9z
	 M22.5,8.9C22.5,8.9,22.5,8.9,22.5,8.9C22.5,8.9,22.6,8.9,22.5,8.9c0.1-0.1,0.1-0.1,0.1-0.1c0,0,0,0,0.1,0c0,0,0.1,0,0.1,0
	c0,0,0,0,0,0c0,0,0,0-0.1,0c0,0-0.1,0-0.1,0.1c0,0,0,0,0,0c0,0,0,0,0,0c0,0,0,0,0,0c0,0,0,0,0,0c0,0,0,0,0,0c0,0,0,0,0,0
	C22.5,8.9,22.5,8.9,22.5,8.9C22.5,8.9,22.5,8.9,22.5,8.9z"
  />
<path
    fill="#0093DD"
    d="M27.1,13.5l1.7-3.8l-1.2-2l-2.2,0.8l-1,4C25.3,12.8,26.2,13.1,27.1,13.5L27.1,13.5z"
  />
<path
    fill="#FFFFFF"
    d="M25,10c1.1,0.3,2.1,0.6,3.2,1.1l-0.6,1.4c-0.9-0.4-1.9-0.8-2.9-1L25,10z"
  />
<path
    fill="#FF0000"
    d="M27.6,12.3l0.4-1c-1-0.4-2-0.8-3.1-1.1l-0.3,1C25.7,11.5,26.7,11.9,27.6,12.3L27.6,12.3z"
  />
<path
    d="M25.2,11C25.3,11,25.3,11,25.2,11c0.1,0,0.1,0,0.2,0c0,0,0,0,0,0c0,0,0,0,0,0c0,0,0,0,0,0c0,0-0.1-0.1-0.1-0.1c0,0,0,0,0,0
	c0,0,0,0,0,0c-0.1,0-0.1,0-0.1,0c0,0,0,0,0,0c0,0,0,0,0,0c0,0,0-0.1,0,0c0,0,0,0,0.1,0c0,0,0,0,0.1,0c0,0,0,0,0.1,0c0,0,0,0,0,0
	c0,0,0,0,0,0c0,0,0.1,0,0.1,0c0,0,0.1,0,0.1,0.1c0.1,0,0.1,0,0.1,0c0,0,0,0,0,0c0,0,0,0,0,0c0,0,0,0,0,0c0,0,0.1,0,0.1,0
	c0.1,0,0.2,0,0.4,0.2c0.1,0,0.2,0.1,0.3,0.1c0,0,0,0,0.1,0c0.2,0,0.4,0,0.5,0.1c0.1,0,0.1,0,0.2,0.1c0,0,0.1,0,0.1,0
	c0.1,0,0.1,0,0.2,0.1c0.1,0,0.2,0,0.2,0.1c0,0,0,0.1,0,0.1c0,0.1-0.1,0.1-0.1,0c-0.1,0-0.1,0-0.2-0.1c-0.1,0-0.1-0.1-0.2-0.1
	c0,0-0.1,0-0.1,0c0,0,0,0-0.1,0c0,0,0,0,0,0c0,0,0,0,0,0.1c0,0,0,0.1,0,0.1c0,0,0,0.1,0.1,0.1c0,0,0,0,0.1,0c0,0,0,0,0,0
	c0,0,0,0.1,0,0.1c0,0,0,0,0,0c0,0,0,0.1,0,0.1c0,0-0.1,0.1-0.1,0.1c0,0,0,0-0.1,0c0,0,0,0,0,0c0,0,0-0.1,0.1-0.1c0,0,0,0,0,0
	c0,0,0,0,0-0.1c0,0,0,0,0,0c0,0-0.1,0-0.1,0c0,0-0.1-0.1-0.2-0.1c-0.1,0-0.1,0-0.1-0.1c0,0,0,0-0.1,0c0,0,0,0,0,0c0,0,0,0-0.1,0
	c0,0-0.1,0-0.1,0c0,0,0,0,0,0c0,0-0.1,0-0.1,0c0,0,0,0-0.1,0c0,0,0,0,0,0c0,0,0,0,0,0c0,0,0,0,0,0c0,0,0-0.1,0-0.1c0,0,0.1,0,0.1,0
	c0,0,0.1,0,0.1,0c0,0,0,0,0,0c-0.1,0-0.1,0-0.1,0c-0.1-0.1-0.2-0.1-0.2,0c0,0,0,0,0,0c0,0,0,0,0,0c0,0-0.1,0-0.1,0c0,0-0.1,0-0.1,0
	c0,0-0.1,0-0.1,0c0,0,0,0-0.1,0c0,0,0,0,0,0c0,0,0,0,0,0c0,0,0,0,0,0c0,0,0.1,0,0.1,0c0,0,0,0,0,0c0,0,0,0,0,0c0,0,0,0,0.1,0
	c0,0,0,0,0.1,0c0,0,0,0,0,0c0,0-0.1,0-0.1-0.1c-0.1,0-0.1,0-0.1,0c0,0-0.1,0-0.1,0c0,0,0,0-0.1,0c0,0-0.1,0-0.1,0
	C25.3,11.1,25.3,11.1,25.2,11C25.3,11.1,25.2,11.1,25.2,11C25.2,11.1,25.2,11.1,25.2,11c-0.1,0-0.1,0-0.1,0c0,0,0,0,0,0
	C25.1,11,25.2,11,25.2,11C25.2,11,25.2,11,25.2,11L25.2,11z"
  />
<path
    fill="#FFFFFF"
    d="M26.5,11.4C26.5,11.4,26.5,11.4,26.5,11.4c-0.1,0-0.2,0-0.2,0c-0.1,0-0.1-0.1-0.2-0.1c0,0,0,0,0.1,0
	c0,0,0.1,0,0.1,0C26.3,11.3,26.4,11.3,26.5,11.4C26.5,11.3,26.5,11.3,26.5,11.4C26.5,11.4,26.5,11.4,26.5,11.4
	C26.5,11.4,26.6,11.4,26.5,11.4c0.1,0,0.1,0,0.1,0C26.6,11.4,26.6,11.4,26.5,11.4C26.5,11.4,26.5,11.4,26.5,11.4L26.5,11.4z"
  />
<path
    d="M26.6,8.5L26.6,8.5l0.1,0.4l-0.3,0.3l0,0l0,0l0.4,0.1l0.1,0.4l0,0l0,0l0.3-0.3l0.4,0.1l0,0l0,0l-0.1-0.4L27.8,9l0,0l0,0
	l-0.4-0.1l-0.1-0.4l0,0l0,0L27,8.7L26.6,8.5L26.6,8.5z"
  />
<path fill="#F7DB17" d="M26.4,9.2L26.7,9l0.3,0.1L26.4,9.2z" />
<path fill="#F7DB17" d="M27.1,9.1l0.3-0.2l0.3,0.1L27.1,9.1z" />
<path fill="#F7DB17" d="M27.7,9l-0.3,0.2l-0.3-0.1L27.7,9z" />
<path fill="#F7DB17" d="M27.1,9.1l-0.3,0.2l-0.3-0.1L27.1,9.1z" />
<path fill="#F7DB17" d="M26.6,8.6L27,8.7l0.1,0.4L26.6,8.6z" />
<path fill="#F7DB17" d="M27.1,9.1l0.3,0.1l0.1,0.4L27.1,9.1z" />
<path fill="#F7DB17" d="M27.5,9.6l-0.3-0.1l-0.1-0.4L27.5,9.6z" />
<path fill="#F7DB17" d="M27.1,9.1l-0.3-0.1l-0.1-0.4L27.1,9.1z" />
<path fill="#F7DB17" d="M27.3,8.5l0.1,0.4l-0.3,0.2L27.3,8.5z" />
<path fill="#F7DB17" d="M27.1,9.1l0.1,0.4l-0.3,0.2L27.1,9.1z" />
<path fill="#F7DB17" d="M26.9,9.7l-0.1-0.4l0.3-0.2L26.9,9.7z" />
<path fill="#F7DB17" d="M27.1,9.1L27,8.7l0.3-0.2L27.1,9.1z" />
</svg>
