<svg xmlns="http://www.w3.org/2000/svg" id="a" viewBox="0 0 40 40"><defs><style
    >.e,.f{fill:#f7db17}.g{fill:#0093dd}.h{fill:#fff}.j{fill:red}.l{fill:#171796}.f,.o{fill-rule:evenodd}</style></defs><path
    fill="red"
    fill-rule="evenodd"
    d="M1 14.88h38V7H1v7.88Z"
  /><path fill="#fffffe" fill-rule="evenodd" d="M1 24h38v-9H1v9Z" /><path
    fill="#171796"
    fill-rule="evenodd"
    d="M1 32h38v-8H1v8Z"
  /><path
    d="M20 25c2.59 0 4.7-2.12 4.7-4.7v-5.59h-9.41v5.59c0 2.59 2.12 4.7 4.7 4.7Z"
    class="j"
  /><path
    d="M20 24.92a4.62 4.62 0 0 0 4.61-4.61V14.8h-9.23v5.51a4.62 4.62 0 0 0 4.61 4.61Z"
    class="h"
  /><path
    d="M17.34 14.97h-1.78v1.95h1.78v-1.95ZM17.34 18.87h1.78v-1.95h-1.78v1.95ZM15.56 20.3c0 .18.01.35.03.52h1.74v-1.95h-1.78v1.43ZM20.89 18.87h-1.78v1.95h1.78v-1.95ZM20.89 22.77h1.78v-1.95h-1.78v1.95ZM22.66 23.84c.39-.3.74-.66 1.01-1.07h-1.01v1.07ZM17.34 22.77h1.78v-1.95h-1.78v1.95ZM16.32 22.77c.28.41.62.77 1.02 1.07v-1.07h-1.02ZM20.31 24.73c.2-.01.39-.04.58-.08v-1.87h-1.78v1.87a5.4 5.4 0 0 0 1.2.08ZM24.4 20.82c.02-.17.03-.35.03-.53v-1.42h-1.77v1.95h1.74Z"
    class="j"
  /><path
    d="M20.89 18.87h1.78v-1.95h-1.78v1.95ZM20.89 14.97h-1.78v1.95h1.78v-1.95ZM24.44 16.92v-1.95h-1.77v1.95h1.77Z"
    class="j"
  /><path
    d="m24.53 14.65 1.1-2.5-.84-1.35-1.39.51-.98-1.12-1.29.74-1.15-.94-1.15.94-1.29-.74-.98 1.11-1.39-.51-.84 1.35 1.1 2.5a10.95 10.95 0 0 1 9.07 0Z"
    class="h"
  /><path
    d="m16.62 11.43-1.38-.51-.77 1.24.3.67.75 1.7c.56-.25 1.14-.45 1.74-.6l-.64-2.5Z"
    class="g"
  /><path
    fill="#fff"
    stroke="#000"
    stroke-miterlimit="10"
    stroke-width=".01"
    d="M16.54 12.66c.05.09.08.2.08.31a.67.67 0 0 1-1.33.13.68.68 0 0 0 1.27-.34v-.11Z"
  /><path
    d="m15.93 11.73-.01.01-.04.24.18.16.01.01h-.01l-.23.08-.05.24v.02l-.01-.01-.19-.16-.23.08h-.01v-.01l.05-.24-.19-.17.01-.01.23-.08.05-.24v-.01l.01.01.18.16.24-.08h.01z"
  /><path
    d="m15.65 12.07.17.15.22-.07-.39-.08ZM15.65 12.06l.39.08-.17-.15-.22.07ZM15.23 11.98l.39.08-.17-.15-.22.07ZM15.62 12.06l-.39-.08.17.15.22-.07ZM15.64 12.05l.26-.3-.22.07-.04.23ZM15.36 12.37l.26-.3-.22.07-.04.23ZM15.63 12.08l-.26.3.22-.07.04-.23ZM15.91 11.75l-.26.3.22-.07.04-.23ZM15.63 12.05l-.13-.38-.04.23.17.15Z"
    class="e"
  /><path
    d="m15.76 12.46-.13-.38-.04.23.17.15ZM15.64 12.08l.13.38.04-.23-.17-.15ZM15.5 11.67l.13.38.04-.23-.17-.15Z"
    class="e"
  /><path
    d="m18.87 11.05-1.27-.73-.97 1.1.64 2.5c.59-.15 1.2-.25 1.82-.3l-.21-2.57Z"
    class="l"
  /><path
    d="M17.1 13.31a11.1 11.1 0 0 1 1.93-.32l-.05-.65c-.69.06-1.37.17-2.03.34l.16.63ZM16.78 12.05c.69-.18 1.41-.3 2.14-.36l-.05-.64c-.77.06-1.52.19-2.24.37l.16.62Z"
    class="j"
  /><path
    d="M21.14 11.05 20 10.12l-1.13.93.21 2.57a9.3 9.3 0 0 1 1.84 0l.21-2.57Z"
    class="g"
  /><g id="b"><path
      d="M20 12.21a.55.55 0 0 1-.07.09c-.02 0-.03.02-.02.04-.03 0-.03.02-.04.05-.03-.05-.06-.06-.1-.04 0-.03-.02-.04-.05-.05-.02 0-.04 0-.05-.02l-.02-.01h-.02a3.72 3.72 0 0 0 .11.18l.02.05v.01l-.08-.02c-.02 0-.03 0-.04-.02h-.01c0 .06.02.12.07.18h-.08v.01c.02.04.04.07.1.09a.07.07 0 0 0-.04.06c0 .03 0 .05-.03.05v.01c.03.02.07.02.11.01-.02.03-.03.07-.02.1h.07v.04l-.01.04v.01h.11v.09h.01a.17.17 0 0 1 .06-.06c0 .01 0 .02.02.03l.02.04v.01c.02 0 .06-.05.07-.07l.05.06h.02v-.09c.03.01.07.02.11 0v-.01l-.01-.04V13c.02 0 .05.01.07 0 0-.04 0-.07-.03-.1l.11-.01v-.01c-.02 0-.02-.03-.03-.05a.07.07 0 0 0-.04-.06c.06-.02.08-.06.1-.09v-.01h-.08a.26.26 0 0 0 .07-.18c0-.01 0-.02-.01 0l-.04.02c-.03 0-.05 0-.08.02v-.01l.02-.05.01-.02.09-.16s0-.02-.02 0l-.02.01-.05.02c-.03 0-.05.02-.05.05-.03-.02-.07 0-.1.04 0-.03 0-.05-.04-.05 0-.02 0-.03-.02-.04l-.08-.09Z"
    /><path
      d="m20.3 12.38-.02.01v.02h.01v-.02ZM19.7 12.38l.02.01v.02l-.02-.01v-.02ZM20.24 12.49ZM19.76 12.49ZM20.28 12.45l-.27-.02-.27.01v.01l.27-.01c.09 0 .18 0 .27.02v-.01Z"
      class="e"
    /><path
      d="m19.73 12.44.27-.01c.09 0 .18 0 .27.02v-.05l.03-.02v.01l.05-.09s-.04.03-.07.03c-.03 0-.05.02-.04.04 0 .02 0 .02-.02 0-.04-.02-.06 0-.08.04 0 .02-.02.02-.02 0v-.02c0-.03-.01-.03-.03-.03h-.02v-.03l-.02-.01-.08-.09a.55.55 0 0 1-.07.09l-.02.01v.03s0 .02-.02 0c-.02 0-.02 0-.02.03v.02c0 .02-.01.02-.02 0-.01-.03-.04-.06-.08-.04h-.02c0-.02-.01-.03-.05-.04a.1.1 0 0 1-.07-.03l.05.08s.02 0 .03.02v.05h.01ZM20.26 12.55l-.02.01-.03.02.02-.02v-.01h-.03l-.03.01-.02.01.02-.02h.01-.3.01l.02.02-.02-.01-.03-.01h-.03l.01.01.02.02-.03-.02-.02-.02a.14.14 0 0 0-.07-.02h-.05c0 .01 0 .02.02.03l.02.02.02.05.02.02-.02-.03v-.05.05l.03.04c-.02 0-.03-.01-.05-.03a.08.08 0 0 1-.02-.05l-.03-.02-.01-.02c0 .05.02.1.05.14l.03.03v.01h-.01l.03.01c.02 0 .03.02.03.03 0-.01 0-.02-.02-.03l-.05-.02h-.05l.02.01.04.01.03.01.02.02-.02-.02-.03-.01c-.02 0-.03 0-.04-.02l-.02-.01c.02.05.05.07.1.08h.06H19.78c-.03 0-.05.03-.05.06l.03-.03h.04-.04l-.04.03c0 .02 0 .03-.02.05h.02l.03-.01h.03-.03l-.03.01h.14-.03l-.02.01h-.01l-.02.03v.03l.02-.04a.14.14 0 0 1 .04-.03c-.02 0-.03.02-.04.03l-.03.04v.01l.04-.04.05-.02-.04.01-.04.04.06-.01.03-.02.01-.01-.01.01-.01.01-.02.03-.01.07s.02 0 .02-.02l.02-.03.02-.03.03-.02-.03.02-.02.03c0 .01 0 .02-.02.03l-.02.02h.01l.03-.01.02-.02-.02.03-.02.01.06-.01.02-.02.01-.02.02-.02-.02.01-.01.02V13.11l.02-.02v-.08.07-.07.05l.02-.01V13v.05l.01.03.02.03v-.05l-.01-.04.01.05v.06c.01 0 .05-.03.04-.07v.01-.05.06-.07.08l.02.02V13l-.01-.02-.02-.01.02.02.01.02s0 .02.02.03l.05.01-.02-.01-.02-.03.02.02.05.02-.02-.02-.02-.03-.02-.03-.03-.02.03.02.02.03c0 .01 0 .02.02.03l.02.02-.01-.07c0-.02-.03-.03-.02-.04l.03.02.06.01-.04-.04c-.01-.01-.03-.02-.04-.01.02 0 .03 0 .05.02l.04.04-.03-.04a.14.14 0 0 0-.04-.03c.02 0 .03.02.04.03l.02.04v-.03l-.02-.03-.02-.02h-.02.05c.02 0 .05.02.08 0l-.03-.01h-.03.03l.03.01h.02a.08.08 0 0 1-.02-.04s-.02-.02-.04-.03h-.04.04l.03.03c0-.03-.02-.06-.05-.06h-.02l.03-.01a.14.14 0 0 0 .1-.08l-.02.01-.04.02-.03.01-.02.02.02-.02.03-.01.04-.01.02-.01h-.05l-.05.02-.02.03.03-.03.03-.01h-.01v-.01l.03-.03a.24.24 0 0 0 .05-.13l-.01.02-.03.02-.02.05-.04.03.03-.04v-.05.05l-.02.03.02-.02a.08.08 0 0 0 .02-.05c.01 0 .02 0 .02-.02l.02-.03h-.05c-.03 0-.04 0-.07.02Z"
      class="e"
    /><path
      d="m20.25 12.53-.24-.01-.25.01h.01l.23-.01.24.01s0-.01 0 0Z"
      class="e"
    /><path
      d="m19.76 12.52.24-.01c.08 0 .16 0 .24.02v-.02l-.01-.01.01-.01h.01v-.02l-.25-.01-.26.01v.02h.02l.01.01-.01.01v.01Zm.37-.05-.01.01.01.01.01-.01-.01-.01Zm0 0Zm-.13-.01-.01.01.01.01.01-.01-.01-.01Zm0 0Zm-.13 0-.01.01.01.01.01-.01-.01-.01Zm0 0Z"
      class="f"
    /><path
      d="m20 12.38-.01-.02-.02-.01.02-.02.01-.03.01.02.02.02-.02.01-.01.03Zm0-.01v-.02l.01-.01-.02-.01v-.01.02l-.01.01H20l.01.01ZM20.1 12.97l-.06.02.06-.02Zm0-.04-.07.04.07-.04Zm-.22 0 .07.04-.07-.04Zm0 .04.06.02-.06-.02Zm.03.05h.04c.01 0 .02 0 .02-.02v-.06h-.04a.02.02 0 0 1-.02-.02v-.04.03l.02.02h.08l.02-.01v-.02h-.04.04v.05l-.03.02h-.03v.06l.02.02h.04-.05c-.01 0-.02 0-.03-.02l-.03.02h-.05Zm.04.03H20h-.05ZM20.04 12.67l.05-.04.04-.01-.04.01-.05.03Zm-.07 0-.05-.04-.04-.01a.1.1 0 0 1 .05.01c.02 0 .04.02.06.04Zm-.03.12s0-.02.02-.03l.02-.02-.02.02-.01.02Zm.04-.21.01.03v.06l-.01.03-.02.01h-.02v.04h-.04l-.03-.01-.02-.01-.01-.02v-.02l-.02-.01-.02-.02.02.01.02.01.04.01.04.02h.02l.01-.01.01-.03v-.06l-.01-.02Zm-.04.13-.04-.02-.04-.01v.04l.02.01.03.01h.03v-.03Zm.09-.12-.01.02v.06l.01.03.01.01h.02l.04-.02.04-.01.02-.01.02-.01-.02.02-.02.01v.02l-.01.02-.02.01-.03.01h-.04v-.04h-.02L20 12.7l-.01-.03v-.06l.01-.03Zm.11.09-.04.01-.04.02v.03h.03l.03-.01.02-.01v-.04Z"
    /><path
      d="M20.11 12.69s-.03.01-.03.03.01.03.03.03.03-.01.03-.03-.01-.03-.03-.03Zm0 0s-.02 0-.02.02 0 .02.02.02.02 0 .02-.02 0-.02-.02-.02Zm0 0-.01.01.01.01.01-.01-.01-.01Zm-.2-.01s.03.01.03.03-.01.03-.03.03-.03-.01-.03-.03.01-.03.03-.03Zm0 0s.02 0 .02.02 0 .02-.02.02-.02 0-.02-.02 0-.02.02-.02Zm0 0 .01.01-.01.01-.01-.01.01-.01Z"
      class="o"
    /></g><g id="c"><path
      d="m19.48 11.05-.06.09c-.02 0-.03.02-.02.04-.03 0-.03.02-.03.05-.03-.04-.06-.06-.1-.03 0-.03-.02-.04-.05-.04-.02 0-.04 0-.05-.02l-.02-.01h-.02l.1.15.01.02.02.05v.01l-.08-.01-.04-.01-.01.01c0 .06.02.12.08.18h-.08v.01c.02.04.04.07.1.09-.02.01-.04.04-.04.06 0 .03 0 .05-.02.06v.01c.03.02.07.02.11 0-.02.03-.02.07-.02.1h.07v.04l-.01.04v.01h.11l.01.09h.02a.17.17 0 0 1 .06-.06c0 .01 0 .02.02.02l.02.04v.01c.02 0 .06-.05.07-.07.03.01.04.03.05.05h.02v-.09a.2.2 0 0 0 .11 0v-.01a.08.08 0 0 0-.02-.04v-.03c.02 0 .05.01.07 0 0-.04 0-.07-.03-.1.04 0 .08 0 .11-.02v-.01c-.02 0-.03-.03-.03-.05a.07.07 0 0 0-.04-.06.13.13 0 0 0 .09-.1v-.01h-.08a.27.27 0 0 0 .07-.18c0-.01 0-.02-.01 0l-.04.02c-.03 0-.05 0-.08.02v-.01l.02-.05v-.02l.09-.16s0-.02-.02 0l-.02.01a.08.08 0 0 1-.05.02c-.03 0-.05.02-.05.05-.04-.02-.07 0-.1.04 0-.03 0-.05-.04-.05 0-.02 0-.03-.02-.04l-.08-.08Z"
    /><path
      d="m19.79 11.21-.02.01v.02h.01v-.02ZM19.19 11.23l.02.01v.02l-.02-.01v-.02ZM19.74 11.32ZM19.25 11.33ZM19.77 11.28h-.27l-.27.02v.01l.27-.02h.27v-.01Z"
      class="e"
    /><path
      d="m19.22 11.29.27-.02h.27v-.05l.03-.02v.01l.05-.09s-.04.03-.07.03c-.03 0-.05.02-.04.04 0 .02 0 .02-.02 0-.04-.02-.06.01-.08.05 0 .02-.02.02-.02 0v-.02c0-.03-.01-.03-.03-.03h-.02v-.03l-.02-.01-.08-.08-.06.09-.02.01.01.03s0 .02-.02 0c-.02 0-.02 0-.02.03v.03c0 .02-.01.02-.02 0-.01-.03-.04-.06-.08-.04h-.02c0-.02-.01-.03-.05-.03a.1.1 0 0 1-.07-.03l.05.08s.02 0 .03.02v.05h.01ZM19.75 11.38l-.02.02-.02.02.02-.02v-.01h-.03l-.03.01-.02.02.02-.02h.01-.3.01l.02.02-.02-.01-.03-.01h-.03l.01.01.03.02-.03-.02-.02-.02-.07-.01h-.06s0 .02.02.03l.03.02.02.05.02.02-.02-.03-.01-.05.01.05.04.04a.05.05 0 0 1-.05-.03.08.08 0 0 1-.02-.05c-.01 0-.02 0-.03-.02l-.02-.02c0 .05.03.09.06.13l.03.02v.01h-.01l.03.01c.02 0 .03.02.03.03l-.02-.03-.05-.02h-.05.02l.04.01h.03l.02.02-.02-.02h-.03l-.04-.01-.02-.01c.02.05.06.07.1.08h.06H19.3c-.03 0-.05.03-.05.06l.03-.03h.04-.04l-.04.03c0 .02 0 .03-.02.05h.02l.03-.01h.03-.03l-.03.01.08-.01h.02l.02-.01h.02l-.03.01-.01.01h-.01l-.02.04v.03l.02-.04a.14.14 0 0 1 .04-.03c-.02 0-.03.02-.04.03a.08.08 0 0 0-.02.04v.01a.08.08 0 0 1 .04-.04l.05-.02c-.01 0-.03 0-.04.02l-.04.04.06-.01.03-.02.01-.01-.01.01-.01.01-.02.03-.01.07.02-.02.01-.03.02-.03.03-.02-.03.02-.02.03c0 .01 0 .02-.02.03l-.02.02h.01s.02 0 .03-.02l.02-.03-.02.03-.02.01.06-.01.01-.03.01-.02.02-.02-.02.01-.01.02V11.93l.02-.02v-.08.07-.07.05l.02-.02v-.05.05s0 .02.02.03l.02.03v-.05c0-.02 0-.03-.02-.04l.02.05v.06c.01-.01.04-.03.04-.07v.01-.05.06-.07.08l.02.02V11.81l-.01-.02-.02-.01.02.01.01.02.02.02h.05l-.02-.01-.02-.03.02.02.05.01-.02-.01-.02-.03-.02-.03-.03-.02.03.02.02.03c0 .01 0 .02.02.03l.02.02c-.01-.02 0-.04-.02-.07 0-.02-.03-.03-.02-.04l.03.01h.06l-.05-.04c-.01-.01-.03-.02-.04-.01l.05.01.04.03-.03-.04a.14.14 0 0 0-.04-.03c.02 0 .03.02.04.03l.03.04v-.03l-.02-.03-.03-.02h-.02.14-.06.03l.03.01h.02l-.03-.04-.04-.03h-.04.04l.03.02c0-.03-.03-.06-.05-.06h-.02l.03-.01c.05-.02.08-.04.1-.09l-.02.02-.04.02-.03.01-.02.02.02-.02.03-.01.04-.02.02-.01h-.05l-.05.02-.02.03.03-.03.03-.01h-.01v-.01l.03-.03a.24.24 0 0 0 .05-.14l-.01.02s-.01.02-.03.02c0 .02 0 .04-.02.05a.14.14 0 0 1-.04.03l.03-.04v-.05.05l-.02.03.02-.02.02-.05.02-.02.01-.03-.05.01c-.03 0-.04 0-.07.02Z"
      class="e"
    /><path
      d="M19.74 11.36h-.24l-.25.02h.01l.23-.02h.24s0-.01 0 0Z"
      class="e"
    /><path
      d="m19.25 11.37.24-.02h.24v-.02l-.02-.01c-.01-.01 0-.01.01-.02h.01v-.02h-.25l-.26.02v.02h.02l.02.01c.01.01 0 .01-.01.02v.01Zm.36-.06-.01.02c0 .02 0 .01.02.01s.01 0 .01-.02 0-.01-.02-.01Zm0 0Zm-.13 0-.01.02c0 .02 0 .01.02.01s.01 0 .01-.02 0-.01-.02-.01Zm0 0Zm-.13 0-.01.02c0 .02 0 .01.02.01s.01 0 .01-.02 0-.01-.02-.01Zm0 0Z"
      class="f"
    /><path
      d="m19.49 11.22-.01-.02h-.02l.02-.02.01-.03.01.02.02.02-.02.01-.01.03Zm0-.01v-.02l.01-.01-.02-.01v-.01.02l-.01.01h.02l.01.01ZM19.61 11.81l-.06.03.06-.03Zm0-.04-.07.04.07-.04Zm-.22 0 .07.04-.07-.04Zm0 .04.06.02-.06-.02Zm.03.05h.04c.01 0 .02 0 .02-.02v-.06h-.04a.02.02 0 0 1-.02-.02v-.04.03l.02.02h.08s.02 0 .02-.02v-.02h-.04.04l.01.02v.03l-.03.02h-.03v.06l.02.02h.04-.05l-.03-.01-.03.02h-.05Zm.04.02h.05-.05ZM19.54 11.51l.05-.04.04-.01-.04.01-.05.04Zm-.07 0-.05-.04-.04-.01a.1.1 0 0 1 .05.01c.02 0 .04.02.06.04Zm-.02.12s0-.02.02-.03l.02-.02-.02.02-.01.02Zm.04-.21.01.03v.06l-.01.03-.02.01h-.02v.04h-.04l-.03-.01-.02-.01-.01-.02v-.02l-.02-.01-.02-.01.02.01.02.01.04.01.04.02h.02l.01-.01v-.09l-.01-.02Zm-.04.13-.04-.02-.04-.01v.04l.02.01.03.01h.03v-.03Zm.09-.12-.01.02v.06l.01.03h.03l.04-.02.04-.01.02-.02.02-.02-.02.02-.02.01v.04l-.02.02-.03.01h-.02v-.04h-.02l-.02-.01-.01-.03v-.06l.01-.03Zm.12.08-.04.01-.04.02v.03h.03l.03-.01.02-.01v-.04Z"
    /><path
      d="M19.61 11.53s-.03.01-.02.03.01.03.03.02.03-.01.02-.03-.01-.03-.03-.02Zm0 0s-.02 0-.02.02 0 .02.02.02.02 0 .02-.02 0-.02-.02-.02Zm0 0v.01h.01v-.01h-.01Zm-.2 0 .03.02-.02.03-.03-.02.02-.03Zm0 0s.02 0 .02.02 0 .02-.02.02-.02 0-.02-.02 0-.02.02-.02Zm0 0h.01v.01h-.01v-.01Z"
      class="o"
    /></g><g id="d"><path
      d="M20.52 11.05a.5.5 0 0 1-.07.08c-.02 0-.03.02-.02.04-.03 0-.04.02-.04.05-.03-.05-.06-.06-.1-.04 0-.03-.02-.04-.05-.05-.02 0-.04 0-.05-.02l-.02-.01h-.02l.09.16v.02l.01.05v.01l-.08-.02c-.02 0-.03 0-.04-.02h-.01c0 .06.01.12.06.18h-.08v.01c.01.04.04.07.09.1-.03.01-.04.03-.04.06s-.01.05-.03.05v.01c.03.02.07.03.11.02a.17.17 0 0 0-.03.1h.07v.04l-.01.04v.01h.11v.09h.01c.02-.02.04-.05.07-.06 0 .01 0 .02.02.03l.02.04v.01c.02 0 .06-.04.07-.07l.05.06h.02l.01-.09c.03.01.07.02.11 0v-.01l-.01-.04v-.03c.02 0 .05.01.07 0 0-.04 0-.07-.02-.1a.2.2 0 0 0 .11 0v-.01c-.02 0-.02-.03-.02-.06a.07.07 0 0 0-.04-.06c.06-.02.09-.05.1-.09v-.01h-.08c.05-.06.08-.11.08-.18 0-.01 0-.02-.01-.01l-.04.02-.08.01v-.01l.02-.05.01-.02.1-.15s0-.02-.02 0l-.02.01-.05.02c-.03 0-.05.02-.05.05-.03-.02-.07-.01-.1.03 0-.03 0-.05-.03-.05 0-.02 0-.03-.02-.04l-.07-.09Z"
    /><path
      d="m20.81 11.23-.02.01v.02h.01v-.02ZM20.22 11.21l.02.01v.02l-.02-.01v-.02ZM20.75 11.33ZM20.27 11.32ZM20.79 11.3l-.27-.03h-.27v.01h.27l.27.03Z"
      class="e"
    /><path
      d="M20.24 11.27h.27l.27.03v-.05l.03-.02v.01l.06-.09-.07.03c-.03 0-.05.01-.05.03 0 .02 0 .02-.02 0-.04-.02-.06 0-.08.04 0 .02-.02.02-.02 0v-.02c0-.03 0-.03-.02-.03h-.02v-.03l-.02-.01-.07-.09-.07.08-.02.01v.03s0 .02-.02 0c-.01 0-.02 0-.03.03v.02c0 .02-.01.02-.02 0-.01-.03-.04-.06-.08-.05h-.02c0-.02-.01-.03-.04-.04-.03 0-.04-.02-.07-.03l.05.08s.02 0 .03.02v.05h.01ZM20.76 11.4l-.02.01-.03.02.03-.02v-.01h-.03l-.03.01-.02.01.02-.02h.01-.3.01l.02.02-.02-.02-.03-.01h-.03v.01l.02.02-.02-.02-.02-.02a.14.14 0 0 0-.07-.02l-.05-.01.01.03.02.02c0 .02 0 .03.02.05l.02.02-.02-.03v-.05.05l.03.04c-.02 0-.03-.02-.04-.03a.08.08 0 0 1-.02-.05l-.03-.02-.01-.03c0 .05.02.1.05.14l.03.03v.01h-.01l.03.01.03.03c0-.01 0-.02-.02-.03l-.05-.02h-.05l.02.01.04.02.03.01.02.02-.02-.02-.03-.01-.04-.02-.02-.02c.02.05.05.07.1.09h.06H20.29c-.03 0-.05.02-.05.06l.03-.02h.04-.04l-.04.03c0 .02-.01.03-.03.04h.02l.03-.01h.03-.06.14-.03l-.02.01h-.01l-.02.03v.03l.03-.04.04-.03c-.02 0-.03.02-.04.03l-.03.04v.01l.04-.04c.02-.01.03-.02.05-.01l-.04.01a.22.22 0 0 1-.05.04h.07l.03-.02.01-.01-.01.01-.01.01-.02.03c0 .02 0 .04-.02.07 0 0 .02 0 .02-.02l.02-.03.02-.03.03-.02c-.01 0-.02 0-.03.02l-.02.03-.02.03-.02.01h.01l.03-.01.02-.02-.02.03-.02.01h.06l.02-.02.01-.02.02-.01-.02.01-.01.02V11.96l.02-.02v-.08.07-.07.05l.02-.01v-.05.05l.01.03.02.03v-.05l-.01-.04.01.05v.06c.01 0 .05-.03.04-.07v.01-.05.06-.07.08l.02.02.01-.07v-.04l-.01-.02-.02-.01.02.02.01.02s0 .02.02.03l.05.01-.02-.01-.02-.03c0 .01 0 .02.02.03l.05.02-.02-.02-.02-.03c0-.01 0-.02-.02-.03l-.03-.02.03.02.02.03.01.03.02.02-.01-.07c0-.02-.03-.03-.02-.04l.03.02.06.01-.04-.04a.08.08 0 0 0-.04-.02c.02 0 .03 0 .05.02l.04.04a.08.08 0 0 0-.02-.04.14.14 0 0 0-.04-.03c.02 0 .03.02.04.03l.02.04v-.03l-.02-.04-.02-.02h-.02.05c.02.01.05.02.08.01l-.03-.01h-.03.03l.03.01h.02a.08.08 0 0 1-.02-.05s-.02-.02-.04-.03h-.04.04l.03.03c0-.03-.02-.06-.05-.06h-.02.03c.05-.01.08-.03.1-.08l-.02.01-.04.01h-.03l-.02.02.02-.02h.03l.04-.01h.02-.05l-.05.02-.02.03.03-.03.03-.01h-.01v-.01l.03-.02a.31.31 0 0 0 .06-.13l-.01.02-.03.02-.02.05a.22.22 0 0 1-.05.03l.03-.04.01-.05-.01.05-.02.03.02-.02a.08.08 0 0 0 .02-.05c.01 0 .02 0 .03-.02l.02-.03h-.05c-.03 0-.04 0-.07.02Z"
      class="e"
    /><path
      d="m20.76 11.38-.24-.02h-.25H20.51c.08 0 .16 0 .24.02Z"
      class="e"
    /><path
      d="M20.27 11.35h.24l.24.02v-.02l-.01-.02c0-.02 0-.01.02-.01h.01v-.02l-.25-.02h-.26v.02h.02l.01.02c0 .02 0 .01-.02.01s0 .01 0 .01Zm.37-.04-.02.01c-.01.01 0 .01.01.02s.01 0 .02-.01 0-.01-.01-.02Zm0 0Zm-.13-.02-.02.01c-.01.01 0 .01.01.02s.01 0 .02-.01 0-.01-.01-.02Zm0 0Zm-.13 0-.02.01c-.01.01 0 .01.01.02s.01 0 .02-.01 0-.01-.01-.02Zm0 0Z"
      class="f"
    /><path
      d="m20.52 11.22-.01-.02-.02-.01.02-.02.01-.03.01.03.02.02h-.02l-.01.03Zm0-.01.01-.02h.01l-.02-.01v-.01.02l-.01.01.02.01v.01ZM20.6 11.82l-.06.02.06-.02Zm0-.04-.07.04.07-.04Zm-.22-.02.07.04-.07-.04Zm0 .04.06.03-.06-.03Zm.02.05h.04c.01 0 .02 0 .02-.02v-.06h-.03a.02.02 0 0 1-.02-.02v-.04.03l.02.02h.08l.02-.01v-.02h-.04.04v.05l-.03.02h-.03v.06l.02.02h.04-.05c-.01 0-.02 0-.03-.02l-.03.01h-.05Zm.04.03h.05-.05ZM20.54 11.52l.05-.03.04-.01-.04.01c-.02 0-.03.02-.05.03Zm-.07 0-.05-.04-.04-.01a.1.1 0 0 1 .05.01c.02 0 .04.02.05.04Zm-.03.12.02-.03.02-.02-.02.02-.02.02Zm.05-.21.01.03v.06l-.01.03-.02.01h-.02v.04h-.02l-.03-.01-.02-.02v-.04l-.02-.01-.02-.02.02.02.02.02.04.01.04.02h.03l.01-.03v-.06l-.01-.02Zm-.05.12-.04-.02-.04-.01v.04l.02.01.03.01h.03v-.03Zm.1-.12-.01.02v.09l.01.01h.02l.04-.02.04-.01.02-.01.02-.01-.02.01-.02.01v.02l-.01.02-.02.01-.03.01h-.04v-.04h-.02l-.02-.01-.01-.03v-.06l.01-.03Zm.11.09-.04.01a.08.08 0 0 0-.04.02v.03h.03l.03-.01.02-.01v-.04Z"
    /><path
      d="m20.61 11.53-.03.02.02.03.03-.02-.02-.03Zm0 0s-.02 0-.02.02 0 .02.02.02.02 0 .02-.02 0-.02-.02-.02Zm0 0h-.01v.01h.01v-.01Zm-.2-.02s.03.01.02.03-.01.03-.03.02-.03-.01-.02-.03.01-.03.03-.02Zm0 0s.02 0 .02.02 0 .02-.02.02-.02 0-.02-.02 0-.02.02-.02Zm0 0v.01h-.01v-.01h.01Z"
      class="o"
    /></g><path
    d="m23.38 11.43-.97-1.1-1.27.73-.21 2.57c.62.05 1.23.15 1.82.3l.64-2.5Z"
    class="l"
  /><path
    d="M21.39 11.59s.09-.01.13.01c.02 0 .03.02.04.03l.06-.04a.4.4 0 0 1 .09-.05c.05-.02.09-.04.14-.04h.14l.12.03.1.05.11.05.15.03h.08c.02 0 .03 0 .01.02-.17.1-.3.01-.41-.03l.11.09c.04.04.09.08.17.12.05.02.11.04.18.04h.1v.02a.2.2 0 0 1-.13.04.48.48 0 0 1-.26-.07l-.17-.12a.34.34 0 0 0-.15-.07h-.15c.01 0 .02 0 .03.02l.1.02c.02 0 .02.02-.02.04a.1.1 0 0 1-.08.04c-.05.03-.07.01-.08 0l-.01.04v.06l.01.02.02.03.01.02.03.03c.03.01.04.03.05.06.02 0 .03.02.04.04l.03.02h.13c.04 0 .07.03.1.06h.06l.07-.02h.12c.03 0 .05.02.06.04.02.03.06.02.09 0a.13.13 0 0 1 .12 0h.05c.02-.02.03-.02.05-.02.03 0 .05 0 .04.04l-.01.02c-.01.03-.04.04-.07.03l-.02.04c.01.04 0 .06-.03.06l-.03.02-.04.03.01.03c.02.03-.01.05-.04.05v.07c.03.02.04.04 0 .06.02.04.01.06-.03.08 0 .02 0 .04-.02.05 0 0-.02 0-.01.02.02.03.01.06-.01.06l-.08.05h-.01a.47.47 0 0 1-.09.12c0 .03-.02.05-.05.06l-.02.02c.02.02.02.03 0 .05a.18.18 0 0 1-.07.05h-.1c-.02-.02-.01-.03 0-.04-.03 0-.04-.01-.04-.04h.02l.05-.01.02-.03c0-.04.03-.05.06-.07.02 0 .05-.03.07-.06l.04-.07-.01-.04-.03-.03c-.02 0-.03-.01-.03-.03h-.02l-.04.01-.05.05c0 .02-.02.03-.04.03-.05 0-.07.06-.1.08l-.02.04c0 .03 0 .05-.02.05h-.04v.05a.08.08 0 0 1-.04.02l-.08-.01c-.02 0-.03-.02-.03-.04-.02 0-.02-.02-.02-.02 0-.01.01-.02.02-.01h.03c.03-.03.06-.06.09-.07l.03-.03c0-.03.02-.05.05-.07l.01-.03v-.09c-.05.03-.07.02-.08 0-.02.02-.04.02-.05 0h-.06l-.04.01-.02.03c0 .02 0 .05-.02.07 0 .03-.02.05-.04.08v.03c0 .03 0 .04-.02.05l-.02.04v.01l-.01.05-.05.03h-.05c-.03 0-.02-.02-.02-.03h-.03l-.02-.01v-.03c.02 0 .03-.01.04-.03l.02-.02c0-.02.02-.03.03-.04l.03-.07v-.1c.01-.02.03-.07.01-.1v-.04h-.01l-.03.01c0 .02-.01.03-.02.03a.1.1 0 0 1-.05.08v.1c-.01 0-.02 0-.03.03V13c-.03.03-.07.03-.11.01-.03-.01-.04-.02-.03-.04-.04 0-.03-.04 0-.05a.13.13 0 0 0 .09-.07c0-.04.01-.07.03-.07l.02-.07c.01-.02.02-.04.01-.07-.02-.01-.02-.03 0-.05v-.01l-.01-.03-.01-.01c-.03 0-.02-.02-.01-.03v-.04c-.02-.01-.01-.03 0-.04l-.02-.04c-.04 0-.05-.02-.03-.05l.03-.03c0-.01.02-.03.01-.04-.01-.03.02-.05.05-.07v-.02c-.02-.02-.01-.03 0-.04v-.02c-.04 0-.04-.02-.02-.05-.02-.01-.02-.04.03-.07v-.02c-.02 0-.04 0-.05.02h-.05l-.02-.02-.01-.03c-.05 0-.06-.03-.03-.05l.03-.04c.01-.03.04-.05.07-.08v-.03l-.04-.01-.03-.03v-.02c-.02-.02-.02-.04-.01-.05Z"
  /><path
    d="m22.24 12.79-.04.04h-.01c0 .01-.01.02-.03.02v-.04.04c-.04.01-.06.06-.09.09l-.02.04-.01.05h-.08c-.01.01.02 0 .03.02v.02c-.01.03-.09.02-.12 0l-.01-.02h.05-.04.01l.04-.01c.03-.03.06-.06.09-.07a.14.14 0 0 1 .04-.03c0-.03.02-.05.04-.07l.01-.03V12.73l.02-.02.02-.01V12.76v-.02l.04-.02.03-.03v.05l-.03.04.02-.03.04-.02v.05c0 .02.01.03.03.04Z"
    class="e"
  /><path
    d="m21.46 12.34.02-.03.03-.03-.02.03-.02.03.01.03.01-.02.02-.02.02-.02v-.02l-.01.02-.02.02-.02.02-.01.02v.02c-.01.02-.02.02 0 .04v.06c-.01.01 0 0 0 0l.01-.02.02-.02.02-.03v-.03.03l-.02.03-.02.02-.01.02.01.04v-.03h.02v.02l-.02.01v.03c-.02.02-.01.02 0 .03v.08-.02c-.01.03-.03.05-.03.09-.03 0-.03.04-.03.07-.03.03-.05.06-.1.08 0 0-.03 0-.03.02h.02c.02-.02.03 0 0 .01v.01c.02.02.08.03.11.01.02-.01.03-.03.01-.04 0-.03.01-.05.04-.06V12.75l.04-.06v-.02h.01v-.02c.01-.02.03-.03.04-.02v-.09l.02-.04.02-.04-.02.04-.02.04v.05l.01.05v.05c.02.03 0 .08-.02.11v.1a.3.3 0 0 1-.04.08c-.02 0-.02.02-.03.04l-.02.02-.04.03v.02s.02 0 .03-.02h.01l-.01.03.04.02.06-.03v-.04h-.05.05l.02-.05c.02-.01.02-.02.02-.04v-.03l.04-.08c.02-.02.03-.05.02-.07l.01-.02.02-.03v-.08.09h.03l.02-.02.01-.03-.01.03-.01.02h.05v-.06c0-.02 0-.03.02-.04l-.01.03v.06c0 .01.01.02.03.01l.02-.01.04-.04.05-.03-.04.03-.04.04v.01c0 .02 0 .03.03.02l.03-.01h.02l.02-.02.02-.01v-.03c0-.02.02-.04.04-.06l.03-.03.02-.03-.02.03-.03.03-.04.06v.06c.01 0 .02 0 .03-.02l.04-.04.01-.03.02-.02-.02.01-.01.02v.06a.08.08 0 0 1 .05-.02v.05c0 .01 0 .03.02.04l.02-.02.02-.01.01-.01.01-.01-.01.01-.01.01-.01.01v.01h.03c0 .02 0 .03.02.03v-.04.04l.03.03.01-.02v-.02.03l-.01.03v.02-.02l.01-.02-.01.02v.02c-.03.05-.06.13-.12.15-.03.01-.04.03-.05.06l-.03.03-.06.02c0 .01 0 .02.02.02.03-.01.03-.02.04-.01 0 0 0 .02-.03.04.02.03.07.02.1.01.02 0 .05-.03.06-.05l-.01-.03c-.04 0-.03-.03 0-.02l.02-.02c.03-.01.04-.02.05-.06l.08-.1v-.03l.01-.02v-.02.04l.08-.05c0-.01 0-.02.02-.02v-.04c0-.02 0-.02.02-.03l.01-.05v-.02.02c.01 0 .03-.01.03-.03l-.01-.04h-.03.03l.02-.01-.02-.03a.14.14 0 0 0-.04-.03l.03.03v-.08a.02.02 0 0 1-.02-.02v-.02.02l.02.02h.04c.02 0 0-.03-.01-.04v-.03h.01v.01c.02 0 .03-.01.04-.03l-.02-.02-.02-.02.02.02.02.02c.02 0 .02 0 .03-.02v-.02l-.02-.02.02.02.01.02h.02v-.05l.02-.03c0-.02 0 0 .03-.01.02 0 .03 0 .05-.03l.01-.01c0-.01 0-.02-.02-.02s-.04 0-.05.02-.04 0-.06 0 0 0 .01.01v.02-.02l-.02-.02h-.05l.01.01-.01-.01-.01-.01-.04.01h-.03l.02.02.01.03-.01-.03-.02-.02h-.03v.02s.01 0 0 0v-.02h-.03v.08-.08l-.01-.01-.03-.02v.01l-.01.02v-.04l-.05-.01.01.02.01.02.01.02v.03-.02l-.01-.02-.01-.02-.02-.02h-.02v.01-.01h-.04l.03.05.02.06c0-.02 0-.04-.02-.06 0-.02-.02-.04-.03-.05h-.03.01l.01.01-.01-.01-.02-.01h-.02l.03.02.03.03-.03-.03-.03-.02h-.03l.02.04v.04-.04a.08.08 0 0 0-.02-.04h-.02l.01.04v.05-.05l-.01-.04a.18.18 0 0 0-.07-.05l.01.02v.04-.03s0-.02-.02-.03h-.07l.02.04-.03-.04h-.03l.01.02.01.02v.03l.02.02a.02.02 0 0 1-.02-.02v-.05l-.02-.02h-.03l.01.04v.05-.05l-.01-.04-.02-.02v.01c0-.02-.01-.03-.03-.04v.04-.04c0-.03-.01-.05-.04-.06v.03-.04l-.03-.02v.03l-.02.04.02-.04v-.05l-.01-.02V12v-.03l-.01-.04h-.02l-.02.01.02-.01h.02v-.01l-.06.01h-.04.04l.06-.01.01-.03h-.03.05l.02.02h.04-.01.01c.03 0 .05 0 .07-.02h-.07.08l.02-.01a.2.2 0 0 1-.1-.03l-.03-.02-.07.01-.01-.01h-.05.06a.3.3 0 0 1 .09-.02l.09-.01c.02-.02.02-.03.01-.04l-.04-.04h-.1l.03.02.02.05c0-.02 0-.03-.02-.04l-.04-.02h-.06c-.01 0-.03 0-.04.02h.04l.03.04c0-.02-.01-.03-.02-.03-.02-.01-.06 0-.08.01l-.03.03.03-.03.03-.02a.22.22 0 0 1 .05-.03l.07-.01-.03-.03h-.04c-.03 0-.05.02-.08.04h.02-.04l-.07.06-.05.01v.07a.23.23 0 0 0-.07.07l-.01.02h.01v-.04.05-.01h-.01l-.02.02-.01.02.03.01c.03 0 0 .02.02.03l.02.02h.03v-.04.03l.05-.01c.03-.04.05-.03.02 0v.03s-.05.04-.03.05h.01l-.02.05h.02l.03-.03a.14.14 0 0 0 .03-.04l.01-.04.01-.04.01.01h.02l.01-.01-.01.01h-.02l-.01-.01-.01.03-.01.04c0 .02-.02.03-.03.04l-.03.03v.03l.05-.05.04-.05-.02.03v.05-.03l-.01.01-.05.05c-.02.01-.03.02-.01.03h.02l.02-.03h-.02l-.02.03v.02l.04-.03-.04.03c-.01 0-.06.04-.05.06s.02 0 .03-.01l.03-.02-.03.02-.03.01c0 .02 0 .03-.02.05 0 0-.05.04-.03.05h.02ZM21.48 11.69l-.03-.02-.03-.03v-.01h.03-.05v-.02h.02-.02l.11.01c.02 0 .03.02.04.03h-.01l-.05.01-.01.03Z"
    class="e"
  /><path
    d="M22.26 12.78h-.02l.02-.03v.01ZM22.36 12.99l-.02.02-.02.02.02-.02.02-.02ZM22.43 12.92v.02-.02ZM22.39 12.91v.02l-.02.02s.02 0 .02-.02v-.02ZM22.46 12.83v.01-.01c0-.01 0 0 0 0ZM22.51 12.84v.02l-.01.02.01-.02v-.02ZM22.48 12.53l.02.07v-.03l.01-.03v-.03.03l-.01.03-.01.05c0-.03 0-.06-.02-.09ZM22.45 12.58ZM22.43 12.65v.07l.02-.01-.02.01v.02-.08ZM22.49 12.68v.06-.06ZM22.54 12.67v.09l.01.03-.01-.03v-.09ZM22.56 12.59v.02-.02ZM22.54 12.46v.01-.01ZM22.55 12.36v.04l-.01.02v.03-.03l.01-.02v-.04ZM22.45 12.33l.04.03.01.05-.03-.01v.09c0 .02-.02.04-.05.05v-.08.08c.02 0 .03-.02.04-.04v-.09l.03.01-.01-.04-.04-.03ZM22.71 12.27ZM22.65 12.27h.01v.01h-.01ZM22.56 12.3l.01.03v.03-.03l-.01-.02ZM22.25 12.33v.02-.02ZM22.31 12.3v.01-.02ZM22.42 12.38ZM22.46 12.29ZM22.19 12.3v.04l.01.02v.02-.04l-.01-.02v-.02ZM22.3 12.38l.01.03v.07l.03.03v-.05c0-.02 0-.03.02-.05l.01-.02v-.02.02l-.01.02a.08.08 0 0 0-.02.05v.05l-.04-.04v-.07l-.01-.03ZM22.25 12.45v.04l-.02.03h.01l.02-.01.01-.01.01-.02-.02.02-.01.01-.02.01h-.02l.02-.04v-.03ZM22.2 12.44v.01-.01ZM22.17 12.38v.05c0 .02 0 .03-.02.04s-.02.02-.02.03v.03-.01l.03-.02.03-.02.03-.03-.03.03-.03.02-.02.01-.02.02.01-.04.03-.03.02-.04v-.05ZM22.28 12.55v.02l.01.04v.04c0-.02 0-.03-.02-.04a.14.14 0 0 0-.04-.03l.04.04.02.03v-.03l-.01-.04v-.02ZM22.32 12.55ZM22.38 12.57l-.01.03-.01.03.01-.03.01-.03ZM22.42 12.77v-.01ZM22.38 12.71v.04-.04ZM22.33 12.71ZM22.27 12.68v.02-.02ZM22.19 12.77v.02-.02ZM21.95 13ZM21.99 12.98ZM22.04 12.95ZM22.11 12.76v.04-.04ZM22.16 12.24v.02l-.01.02.01-.02v-.02ZM22.11 12.19v.04-.04ZM22.04 12.28l-.02-.02v-.02.02l.02.02ZM22.12 12.41v.01-.01ZM22.02 12.31l.03.05v.04l.02-.02v-.04l.01-.03v-.03l.02.04.01.05-.01-.04-.02-.03v.02l-.01.03v.04l-.02.02v.02-.06a.05.05 0 0 0-.03-.05ZM22.08 12.55v.04-.04ZM21.97 12.6v.02-.02ZM22.06 12.47v.03s0 .02-.02.03-.01.02-.02.03v.03-.04c0-.01 0-.02.02-.03l.02-.03v-.03ZM22.04 12.44v.03l-.02.03-.02.02-.01.03.01-.03.02-.03.02-.03v-.03ZM21.92 12.5v.05c0 .02-.02.03-.03.04.01-.01.03-.02.03-.04v-.05ZM21.76 12.58ZM21.7 12.58v.03c0 .01 0 .02.02.03s0 .02 0 .02v.02l.02-.02v-.03.03l-.02.03v-.04l-.02-.03v-.04ZM21.71 12.79v-.04.04ZM21.7 12.85v-.02.02ZM21.66 12.95l.01-.01.01-.02-.01.02-.01.01ZM21.6 12.62v.01-.01ZM21.5 12.85v-.01c0-.01 0 0 0 0v.01ZM21.75 12.44v.05c0 .01 0 .03.02.03l.02.03v-.04.05l-.02-.03-.02-.04v-.05ZM21.73 12.38v.04l-.01.04v.05l.01.05-.01-.05v-.05l.01-.04v-.04ZM21.62 12.54v.04l-.01-.03v-.03ZM21.57 12.52v.05V12.51ZM21.86 12.09v.04l.01.03-.01-.04v-.04ZM21.82 12.13l.02.04v.05-.05l-.02-.04ZM21.64 12.13l-.03.06.01.05v.08-.08l-.01-.05c0-.02 0-.04.03-.07ZM21.81 12.06v.02l-.02.02-.02.02v.04-.04c0-.01 0-.02.02-.03l.01-.02v-.02ZM21.63 12.07v.03c0 .01 0 .02-.02.03s-.02.02-.02.03v.04-.04l.02-.03.02-.03v-.03ZM21.74 12.08v.02-.02ZM21.73 12.05l-.02.02v.04l.01.02v.03-.05l-.03.06c0 .02 0 .05.03.07-.02-.03-.03-.05-.03-.08 0-.02.01-.05.03-.06s0-.03 0-.04l.02-.02ZM21.7 12.01l-.01.03-.01.02v.02-.02l.01-.02.01-.03ZM21.99 12.32v.04-.04ZM21.99 12.41v.03l-.01.03-.01.03.01-.03.01-.03v-.03ZM21.93 12.33l.03.06v.07-.06l-.03-.06ZM21.92 12.43l-.02.03-.03.03-.02.02-.01.03v-.02l-.01-.02-.01-.04c0-.01 0-.03.02-.04l.01-.03v-.03.03l-.01.03-.02.04.01.04.01.03v.01-.01l.02-.02.02-.03.02-.03ZM21.77 12.38v.04l.01.03-.01-.03v-.04ZM21.68 12.43v.02-.02ZM21.71 12.35v.03l-.01.02.01-.02v-.02ZM21.63 12.5s-.02-.06-.01-.09l.03-.06.02-.03v-.05.05l-.02.03a.22.22 0 0 0-.03.05l.01.08ZM21.58 12.45v.04-.04ZM21.81 12.28l.02.04c.01.01 0 .03-.01.04v-.04c0-.01 0-.03-.02-.04ZM21.88 12.23v.08-.04c0-.02-.01-.02-.02-.03l.02.03v.02-.07ZM21.92 12.17l.02.04V12.3v-.1c0-.01 0-.03-.02-.03ZM21.81 12.16l-.01.03v.03-.03l.01-.03ZM21.59 12.31s0 .04-.02.05l-.04.04c.02 0 .03-.02.04-.03l.02-.05ZM21.58 12.23v.04-.04ZM21.73 12.22v.05-.05ZM21.77 12.16l-.01.04v.04l.02.06c0 .02 0 .04-.02.06l.02-.06-.01-.06v-.04c0-.01 0-.03.02-.04ZM21.54 11.75l.05-.02.06.01h.04-.04l-.06.03h-.04.04l.05-.03h-.05c-.02 0-.03 0-.05.02Z"
  /><path
    d="m21.59 11.74.01.01-.01.01-.01-.01.01-.01ZM21.68 11.82l.02-.02.01-.02-.02.02-.02.02ZM21.87 11.74h.02-.02ZM21.76 11.74l.02-.02h.03-.03l-.02.02ZM21.77 11.76v-.01h.01-.01ZM21.6 11.82v.03-.04ZM21.65 11.84v.01-.01ZM21.61 11.79h.04-.04ZM21.65 11.69h-.01v-.01h.01ZM21.59 11.7h.01ZM21.56 11.7v-.01c0-.01 0 0 0 0ZM21.52 11.73h-.01v.01-.01h.01ZM21.52 11.78s0 .01 0 0v-.02ZM21.48 11.79v.02-.02ZM21.53 11.86v.03-.03ZM21.5 11.84v.02-.02ZM21.47 11.61h.01v.01-.01h-.01ZM21.73 11.95v.06-.06ZM21.65 12.05s0-.02.02-.03.01-.02.02-.03l.02-.03v-.04.04l-.02.04-.02.03-.01.03ZM21.54 12.02v-.01h.01-.01v.01ZM21.52 12.01l.01-.01.02-.01h-.01l-.01.01ZM21.63 11.9h.02-.02ZM21.57 11.89ZM22.79 12.24ZM21.44 12.88l.02.01h.02-.02l-.02-.01Z"
  /><path
    d="M22.46 11.67h.08a.3.3 0 0 1-.1.04l.01-.02v-.02ZM22.39 11.66h.06v.01l-.01.01h-.06l.01-.02v-.02ZM21.86 11.51h.1l.03.02v.04-.05l-.01-.01c.04 0 .07.01.11.03v.02l-.01.03.02-.03v-.02l.09.04v.02l-.02.02.03-.02v-.02l.06.03v.02l-.02.02.02-.02v-.02h.02l.07.02v.02l-.01.02c-.07 0-.14-.04-.21-.07h-.02c-.03 0-.05-.02-.08-.03a.19.19 0 0 1-.07-.02h-.08v-.04l-.02-.02Z"
    class="j"
  /><path
    d="m21.74 11.54.1-.03c.02 0 .03.01.03.02v.03h-.04l-.05.01c0-.02-.02-.03-.03-.03h-.02ZM22.11 11.73l-.03-.02a.28.28 0 0 0-.15-.04c.02-.02.02-.04.02-.05l-.03-.04h.05l.09.03v.04l-.03.03c.02-.01.03-.02.03-.04v-.04c.02 0 .04.02.05.03l.05.04c0 .02 0 .03-.02.04h-.04ZM22.22 11.81l-.09-.07h.05l.02-.04.06.05.03.03v.03h-.04Z"
    class="j"
  /><path
    d="m22.32 11.88-.03-.02a.3.3 0 0 1-.07-.05h.03l.02-.01v-.03l.07.05.04.02-.01.02h-.05ZM22.44 11.92l-.1-.04h.05c.01 0 .02-.01.02-.03l.06.03v.02l-.03.02Z"
    class="j"
  /><path
    d="M22.68 11.9h.01a.26.26 0 0 1-.24.02l.03-.02v-.02l.08.02v.01l-.02.02.03-.02v-.02h.11ZM22.19 13.11l-.01.02-.06.02c0 .01 0 .02.02.02.03-.01.03-.02.04-.01 0 0 0 .02-.03.04.02.03.07.02.1.01.02 0 .05-.03.06-.05l-.01-.03-.03-.01h-.07ZM21.43 12.87l-.05.03s-.03 0-.03.02h.02c.02-.02.03 0 0 .01v.01c.02.02.08.03.11.01.02-.01.03-.03.01-.04v-.01h-.03l-.02-.01-.02-.02ZM21.93 13.04c-.01.01.02 0 .03.02v.02c-.01.03-.09.02-.12 0l-.01-.02h.05-.04.01l.04-.01.06.01ZM21.57 13.02v.01l-.04.03v.02s.02 0 .03-.02h.01l-.01.03.04.02.06-.03v-.04h-.08ZM21.71 11.69h.05a.3.3 0 0 1 .09-.02l.09-.01c.02-.02.02-.03.01-.04l-.04-.04h-.1l.03.02.02.05c0-.02 0-.03-.02-.04l-.04-.02h-.06c-.01 0-.03 0-.04.02h.04l.03.04c0-.02-.01-.03-.02-.03-.02-.01-.06 0-.08.01l-.03.03c.04 0 .08 0 .11.02Zm-.11-.02.03-.03.03-.02a.22.22 0 0 1 .05-.03l.07-.01-.03-.03h-.04c-.03 0-.05.02-.08.04h.02-.04l-.06.05c.02 0 .03.01.03.02Z"
    class="j"
  /><path
    d="m24.48 14.53 1.05-2.37-.77-1.24-1.37.51-.64 2.5c.6.15 1.18.36 1.74.6Z"
    class="g"
  /><path
    d="M23.15 12.34c.69.18 1.36.41 2 .69l-.4.91a12.5 12.5 0 0 0-1.84-.64l.25-.97Z"
    class="h"
  /><path
    d="m24.81 13.8.27-.61c-.63-.28-1.29-.51-1.97-.68l-.16.62c.64.16 1.27.38 1.87.65v.02Z"
    class="j"
  /><path
    d="M23.3 12.98h.14v-.03c-.03-.02-.04-.05-.05-.07-.02 0-.03-.01-.03-.02h-.03c-.04 0-.05 0-.06-.02l-.03-.02-.01-.02v-.03h.08c.02 0 .03-.01.04-.03v-.02h.01c.02 0 .03.01.04.03.03 0 .05.02.06.04.03 0 .06.01.06.03 0 0 0 .02-.02.03l.02.02c.02 0 .04.02.05.03.05 0 .13.03.24.1l.21.06h.04c.12-.02.24 0 .34.08.04 0 .08.02.11.03l.08.02c.04 0 .09.01.13.04.05.01.09.03.12.06.02.02.02.05-.01.06-.02.03-.05.03-.09.02a.21.21 0 0 1-.1-.04.42.42 0 0 1-.13-.07l-.06-.03h-.04l.02.04v.05c0 .02.01.03.03.05l.05.02.01.02.02.08.02.02c.03.02.01.05-.01.05a.16.16 0 0 1-.07.04l-.03-.01-.02-.01c-.02-.02 0-.05.05-.03h.01v-.05h-.02c-.02 0-.04-.02-.05-.03a.35.35 0 0 0-.12-.07c-.04 0-.06-.02-.09-.03h-.27l-.02-.01-.03-.01c-.02 0-.03-.01-.03-.02-.03 0-.02-.03 0-.03h.07l.06-.01c.01 0 .01-.02.03-.02-.04 0-.07 0-.09-.02-.06-.04-.11-.05-.14-.01h-.21c-.03.01-.05.02-.06 0l-.03-.02-.02-.01c-.02 0-.02-.01-.02-.02v-.02h.05l.03.02h.08l.04-.01c-.02 0-.03-.02-.04-.04a.11.11 0 0 1-.08-.03l-.05-.01H23.33c-.01.02-.03.02-.05.01l-.04-.03a.02.02 0 0 1-.02-.02c-.02-.01-.01-.02 0-.03h.07Z"
  /><path
    d="M24.09 13.22h-.02c-.04 0-.08 0-.11-.02a.21.21 0 0 0-.1-.04l.04-.02h.07a.3.3 0 0 1 .1.02c.03 0 .04.02.05.04l.03.02.01.02h-.04l-.04-.01Z"
    class="h"
  /><path
    d="m24.17 11.42.05.25-.19.16.01.01.23.08.05.24.19-.16.23.08h.01l-.05-.24.19-.16-.01-.01-.23-.08-.05-.24-.19.16-.23-.08h-.01Z"
  /><path
    d="m24.06 11.84.17-.15.22.08-.39.08ZM24.48 11.75l.18-.15.22.08-.39.08Z"
    class="e"
  /><path
    d="m24.88 11.68-.17.15-.22-.08.39-.08ZM24.46 11.77l-.18.15-.22-.08.39-.08ZM24.2 11.44l.22.08.04.23-.26-.3ZM24.48 11.77l.22.08.04.23-.26-.3Z"
    class="e"
  /><path
    d="m24.74 12.08-.22-.08-.04-.23.26.3ZM24.46 11.75l-.22-.08-.04-.23.26.3ZM24.61 11.37l.04.23-.18.15.13-.38ZM24.47 11.77l.04.23-.18.15.13-.38Z"
    class="e"
  /><path
    d="m24.33 12.15-.04-.23.18-.15-.13.38ZM24.47 11.74l-.04-.23.18-.15-.13.38Z"
    class="e"
  /></svg>
