<svg xmlns="http://www.w3.org/2000/svg" id="a" viewBox="0 0 38 25"><defs><style
    >.c{fill:#4e5b31}</style></defs><path
    fill="#fffffe"
    fill-rule="evenodd"
    d="M0 25h38V0H0v25Z"
  /><path
    d="M17.38 19.77c-.49-.92-.99-1.03-1.19-1.03h-.11c-.01.16.03.31.11.44.13.2.45.48 1.2.58h-.01Zm-3.15-1.82h-.04c-.06 0-.11 0-.16.02.05.14.12.26.22.38.16.18.47.42 1.01.5-.25-.76-.75-.88-1.03-.89h-.01Zm1.51 1.01s.08-.02.1-.06l-.01-.13c-.04-.09-.12-.18-.23-.18s-.05 0-.07.01v.18s.04.09.07.12c.03.04.08.06.13.06h.01Zm-.46.17a.93.93 0 0 0-.33.07l.03.09c.04.07.09.13.16.17.16.11.41.16.72.16.16 0 .33-.01.5-.04a1.5 1.5 0 0 0-1.01-.47h-.06Zm-1.98-.16v-.11l-.07-.11a.16.16 0 0 0-.11-.05h-.05l.01.17c0 .04.02.08.05.11s.06.05.1.05.06-.02.08-.05h-.01Zm2.87.83a.89.89 0 0 0-.48.13.37.37 0 0 0-.12.13c.25.15.55.23.85.24.28 0 .56-.07.79-.21a2.61 2.61 0 0 0-1.05-.29Zm1.97.32h-.03l-.45-.2-.12.15.24.11h.05l.3-.06Zm-4.43-2.01s.08-.02.1-.06l-.01-.13c-.04-.09-.12-.18-.23-.18s-.05 0-.07.01v.18c.01.05.04.09.07.12.03.04.08.06.13.05h.01Zm1.3 1.55h-.07l.01.19c0 .04.03.09.06.12.03.04.08.06.13.06s.08-.02.1-.06l-.01-.13c-.04-.09-.12-.18-.23-.18h.01Zm-3.42-4.01.03.24.03.37c0 .08.06.2.13.3l.13.18s.03-.32.03-.65-.35-.45-.36-.46Zm6.58 4.65-.03.03.26.35.2.24.07.07v.02l.03-.04.04-.05.12-.12.17-.15-.6-.45-.29.09h.02Zm-5.4-2.29Zm-1.03-1.04h-.05c.03.41.32.66.57.81.16.1.33.17.51.22a2.18 2.18 0 0 0-.62-.88.64.64 0 0 0-.4-.15h-.01Zm-.75-.44c.19.11.38.19.48.2h.03l.02-.02v-.08a.99.99 0 0 0-.09-.24c-.07-.17-.17-.35-.18-.37l-.3-.35c-.08-.09-.18-.16-.27-.23-.11-.07-.19-.11-.26-.11h-.06v.3c.02.22.07.4.16.51.1.12.28.25.5.38h-.01Zm2.26 1.66c-.06 0-.11 0-.16.02s.02.07.04.1c.04.09.11.17.18.23.17.15.53.35 1.2.38-.55-.64-1-.73-1.24-.73h-.02Zm-1.73-.83a.44.44 0 0 0-.14-.29c-.12-.13-.4-.3-.96-.31.01.09.04.18.08.26.05.12.16.28.35.31.16.03.31.04.48.04h.2Zm1.86.62c-.1-.38-.28-.74-.53-1.06-.17-.19-.33-.23-.44-.23h-.03l-.12.03c.15.39.41.73.72 1 .12.1.25.19.41.26h-.01Zm-1.83-.39h-.1c0 .06 0 .12.02.17s.09.16.29.16c.08 0 .13-.02.15-.05.03-.04 0-.1-.02-.11a.4.4 0 0 0-.35-.16Zm.72.48a2.2 2.2 0 0 0-.37-.04h-.03c-.15 0-.3.02-.45.06s0 .03 0 .05c0 .04.02.07.04.11.05.08.17.18.46.25.34.08.69.08 1.03 0a1.22 1.22 0 0 0-.69-.44h.01Zm2.39 1.2c-.21-.14-.46-.2-.71-.18h-.06a3 3 0 0 0-.67.09c.28.28.75.39 1.09.39h.03c.18 0 .31-.03.39-.09.03-.02.05-.05.04-.09a.27.27 0 0 0-.09-.12h-.01Zm10.05-1.67a.48.48 0 0 0-.35.16c-.01.02-.04.07-.02.11.02.03.07.05.15.05.2 0 .27-.11.29-.16s.03-.1.02-.16-.07-.01-.1-.01Zm-.7-.87-.12-.03h-.03c-.1 0-.26.05-.44.23-.2.21-.38.57-.53 1.06.14-.07.28-.15.41-.26.31-.27.56-.62.72-1h-.01Zm.31-.59c0 .32.03.64.03.65l.13-.18c.07-.1.13-.21.13-.3l.03-.37.03-.24s-.36.13-.36.46Zm-1.11 2.58h-.05s-.08 0-.11.04a.26.26 0 0 0-.07.11c-.01.04-.02.07 0 .11.01.03.04.05.08.05s.08-.02.1-.05a.37.37 0 0 0 .05-.11v-.16.01Zm-.83.4h-.06c-.31 0-.56.06-.71.18-.04.03-.08.07-.09.12 0 .04.01.07.04.09.07.05.2.08.39.09h.03c.33 0 .79-.1 1.09-.39a3.73 3.73 0 0 0-.67-.09h-.01Zm2.45-.99a2.13 2.13 0 0 0-.45-.06h-.03c-.12 0-.24.01-.37.04-.27.06-.52.21-.69.44.34.08.69.08 1.03 0 .28-.07.41-.18.46-.25a.21.21 0 0 0 .04-.11v-.05h.01Zm1.06-2.79c-.07 0-.15.03-.26.11-.22.17-.41.36-.58.58 0 0-.11.19-.18.37l-.09.24v.08l.02.02h.03c.1-.02.27-.09.48-.2.21-.12.4-.25.5-.38a.8.8 0 0 0 .16-.51v-.3h-.07Zm-2.39 2.67Zm-2.24 1.66c-.11 0-.19.09-.23.18a.2.2 0 0 0-.01.13c.02.04.06.06.1.06.05 0 .1-.02.13-.06a.27.27 0 0 0 .06-.12c.01-.06.02-.12.01-.18h-.07l.01-.01ZM23.5 18c.18-.05.36-.12.51-.22.23-.14.53-.41.57-.81s-.04 0-.05 0h-.01a.68.68 0 0 0-.4.15c-.22.17-.43.47-.62.88Zm1.38-.94a.47.47 0 0 0-.14.29h.2c.16 0 .32-.01.48-.04.18-.03.28-.19.35-.31.04-.08.06-.17.08-.26-.57.02-.84.18-.96.31Z"
    class="c"
  /><path
    d="M18.48 20.2h.03l.24-.12-.12-.15-.45.19h-.03l.3.07.02.01Zm1.47-.61.5.04c.31 0 .56-.05.72-.16.07-.04.12-.1.16-.17l.03-.09a.98.98 0 0 0-.33-.07h-.05c-.24 0-.62.08-1.01.47h-.01Zm.27-.83h-.11c-.19-.01-.7.09-1.19 1.01.74-.1 1.06-.38 1.2-.58a.73.73 0 0 0 .11-.43h-.01Zm-2.4 1.42-.6.44.17.15.12.12.04.05.02.04h.01l.07-.08.2-.24.26-.33-.03-.04-.29-.09h.02Zm2.73-1.25c.05 0 .1-.02.13-.06a.27.27 0 0 0 .06-.12c.01-.06.02-.12.01-.18h-.07c-.11-.01-.19.08-.23.17a.2.2 0 0 0-.01.13c.02.04.06.06.1.06h.01Zm2.02-.84c.05 0 .1-.02.13-.06a.34.34 0 0 0 .06-.12c.01-.06.02-.12.01-.18h-.07c-.11-.01-.19.08-.23.17a.2.2 0 0 0-.01.13c.02.04.06.06.1.06h.01Zm-1.97 1.83a.8.8 0 0 0-.48-.13c-.28 0-.64.1-1.05.29.51.3 1.15.29 1.64-.03a.37.37 0 0 0-.12-.13Zm1.49-2h-.02c-.27 0-.77.13-1.03.89.54-.08.85-.31 1.01-.5.1-.11.17-.23.22-.38a.88.88 0 0 0-.16-.02h-.03Zm-.31.96c.67-.02 1.03-.21 1.2-.38a.96.96 0 0 0 .18-.23l.04-.1c-.05-.02-.11-.02-.16-.02h-.02c-.22 0-.69.09-1.24.73Z"
    class="c"
  /><path
    d="M18.48 20.2h-.02l-.3-.07-.3.06h-.02l.29.1.03.03.03-.03.29-.09Z"
    class="c"
  /><path
    fill="#d57800"
    d="m29.93 3.78-.04.02h-.12l-.11.05-.2.14-.07.03-.07-.03-.04.02v.08l-.05.06-.05.03-.16.02-.13.07-.18-.05-.08.03-.17.16-.09.04h-.15l-.05.02-.07.07h-.14l-.04.04-.07.14-.07.08h-.12l-.02.09-.03.04-.09.03-.07.06-.07.03h-.11l-.09.05h-.16l-.07.08h-.02l-.03.03-.05.03h-.07l-.07.03-.03-.05-.05.03h-.07l-.08-.03-.06-.03h-.05l-.02.09-.05.07-.09.06v.02l-.12.14-.2.21-.17.09-.17.05-.12.1-.32.16-.52.25-.1.03-.15.02-.27.1-.23.07h-.01l-.05.02-.33.1-.15-.02-.09.03-.24-.03h-.16l-.1.02-.2.09-.33.16-.11.1-.17.09-.2.06v-.08l-.07.02-.05.02-.16.02h-.09l-.06-.02-.33.11-.38.04-.18.06h-.14l-.09.02-.17.02-.06-.02h-.01l-.51.02-.23-.03-.11.02-.18-.06-.26-.03-.06-.02-.14-.04-.06.04h-.05l-.11-.04h-.04l-.09.03h-.05l-.05-.05-.12-.02-.07-.06-.41.05-.11-.03-.37-.11h-.06l-.07.06-.11.04-.09.02h-.13l-.15-.03-.15-.07h-.23l-.23-.12-.3-.19-.2-.1h-.08v.02l.03.12v.3l.02.06.07.08.03.08.02.22v.23l-.04.37v.05l-.05.19-.04.17-.15.47-.04.06-.1.07-.23.16-.17.1-.05.02h-.23l-.11-.06-.1-.03-.14-.1-.15-.03-.17-.1-.04-.05h-.09l-.13-.05h-.05l-.03-.01h-.16L12.84 9l-.08-.02h-.11l-.11.05-.06.03-.07-.03h-.05l-.06.09-.04.04h-.09l-.04.02-.06.03-.05.02H12l-.08.01-.06-.03-.03-.02h-.08v.1l-.03.06-.08.07-.08.07-.06.09-.16.36-.1.14-.03.03-.1.11-.09.07-.21.16-.2.07-.17.03h-.08l-.16-.02-.14-.04-.15-.1-.17-.14-.24-.24-.03-.02-.08-.05h-.06l-.02.04v.05l-.02.05-.03.27v.02l.02.11.19.26.06.14v.02l.05.06.03.05.06.19-.04.11.02.07-.06.04v.06l.16.21.04.09-.04.13-.06.07-.02.02v.05l.09.07.13.12.07.17.05.05h.09l.05.01.05.05.03.02.05.03.04.05v.17l.09.21v.13l.05.08.02.06-.03.17.06.06h.11l.07.06.08.13h.13l.25.24.06.03.04.02.05.05.08-.05h.09l.04.03.07.05h.09l.2.06.09.02.18.11.08.05.05.04.06.05.12.05.1.02h.06l.04.03.22.09.12.03.11.04.08.03h.06l.08-.07h.15l.07.01.1-.08.02-.03.07-.04.25-.03.07.02.19-.08.13.04.11-.04.24.05.06.05.07.08h.08l-.03.06.11.11.1.15v.02l.08.21.05.07.04.1v.07l-.05.04v.02h-.01v.03h.03l.04-.03h.2l.09-.04.06-.03.1.04h.11l.04.02.13.06h.08l.02-.04v-.04l-.06-.06-.11-.12-.04-.06-.03-.09v-.12l-.02-.08v-.1l.04-.04.02-.08v-.02l.06-.08.16-.1.17-.15.13-.09.14-.06v-.02h.02l.36-.12.16-.03 1.07.07h.04l.04-.11.02-.02h.01l.12-.06h.05l.15.03.06.02.1-.06h.07l.14-.08h.12l.17-.13.17-.05.04-.02h.02l.17-.1.11-.08.09-.05.1-.03.27-.02.05-.09.12-.02.07-.08.08-.03.06-.08.05-.07.07-.04h.22l.26.02.03-.02.06-.21.06-.04.16-.24v-.16l.03-.1-.02-.19.02-.19.1-.24.09-.1.14-.1.07-.03.1-.02h.67l.3.05h.02l.1.04.12.09.12.12.02.02.08.03h.09l.09-.05.07-.06.1-.05.05-.09.02-.03.19-.07h.22l.02-.03h.01l.06-.08h.05l.13.05.09-.02.07.03h.06l.11-.02.12.08h.07l.24.15h.09l.03.04h.04l.04-.05-.02-.03-.09-.03-.08-.13.07-.08-.11-.14-.02-.02-.04-.07-.2-.31-.26-.21-.09-.07-.03-.03-.14-.14-.1-.13v-.03l-.03-.04-.06-.13-.1-.08-.08-.09-.17-.24-.03-.04-.04-.02h-.09l.04-.04h.05l.02-.06-.09-.26v-.09l.07-.38v-.05l.13-.25.08-.06.08-.16.07-.11.07-.07h.01l.12-.08h.1l.1-.03.17.05h.26l.12-.05.06-.04.03-.05.06-.21.02-.07.04-.07.22-.26.17-.16.39-.28.19-.11.1-.06.86-.39.22-.22.12-.12.2-.14.24-.1.2-.16.04-.06.06-.18h.05l.04-.1v-.03l.18-.12h.02l.66-.33h.09l.05-.06.19-.03h.03l.05-.03.04-.07v-.19l.04-.05.02-.12.02-.03.02-.03.05-.04v-.02l-.11.04h.04Z"
  /></svg>
