<?xml version="1.0" encoding="utf-8" ?>
<!-- Generator: Adobe Illustrator 27.2.0, SVG Export Plug-In . SVG Version: 6.00 Build 0)  -->
<svg
  version="1.2"
  baseProfile="tiny"
  id="Layer_1"
  xmlns="http://www.w3.org/2000/svg"
  xmlns:xlink="http://www.w3.org/1999/xlink"
  x="0px"
  y="0px"
  viewBox="0 0 40 40"
  overflow="visible"
  xml:space="preserve"
>
<path
    fill-rule="evenodd"
    fill="#FFFFFE"
    stroke="#CFCFCF"
    stroke-width="0.3"
    stroke-miterlimit="10"
    d="M1,32.5h38v-25H1V32.5z"
  />
<path
    id="branch"
    fill="#4E5B31"
    d="M19.2,28.6L19.2,28.6L19.2,28.6C19.2,28.6,19.2,28.5,19.2,28.6c-0.1-0.2-0.2-0.2-0.3-0.3
	c-0.1-0.2-0.2-0.3-0.3-0.3l0,0l-0.3-0.1l-0.2-0.1l0.1-0.1l0.4,0.2l0.3,0.1l0.6,0.5l0,0c0,0-0.1,0.1-0.2,0.2
	C19.4,28.4,19.3,28.5,19.2,28.6C19.3,28.5,19.2,28.5,19.2,28.6L19.2,28.6 M16.9,27.9c-0.3,0-0.6-0.1-0.8-0.2l0,0l0,0
	c0-0.1,0.1-0.1,0.1-0.1c0.1-0.1,0.2-0.1,0.5-0.1l0,0c0.3,0,0.6,0.1,1,0.3C17.5,27.8,17.2,27.9,16.9,27.9L16.9,27.9L16.9,27.9z
	 M15.7,27.6c-0.1,0-0.1,0-0.1-0.1l-0.1-0.1c0-0.1,0-0.1,0-0.2c0,0,0,0,0.1,0l0,0c0.1,0,0.2,0.1,0.2,0.2v0.1
	C15.8,27.6,15.7,27.6,15.7,27.6L15.7,27.6z M17.9,27.4c-0.7-0.1-1.1-0.4-1.2-0.6c-0.1-0.1-0.1-0.3-0.1-0.4l0,0l0,0h0.1
	C16.9,26.4,17.4,26.5,17.9,27.4L17.9,27.4L17.9,27.4L17.9,27.4z M16.4,27.2c-0.3,0-0.6-0.1-0.7-0.2c-0.1,0-0.1-0.1-0.2-0.2v-0.1
	c0.1,0,0.2-0.1,0.3-0.1c0,0,0,0,0.1,0c0.2,0,0.6,0.1,1,0.5l0,0l0,0C16.7,27.2,16.5,27.2,16.4,27.2L16.4,27.2z M14.8,27.2
	c-0.3,0-0.8-0.1-1.1-0.4l0,0l0,0c0.2-0.1,0.4-0.1,0.7-0.1c0,0,0,0,0.1,0c0.3,0,0.6,0.1,0.7,0.2l0.1,0.1v0.1
	C15.2,27.1,15,27.2,14.8,27.2L14.8,27.2L14.8,27.2z M13.8,26.6h-0.1v-0.1c0-0.1,0-0.1,0-0.2l0,0c0,0,0,0,0.1,0l0,0h0.1l0.1,0.1
	C13.8,26.5,13.8,26.5,13.8,26.6L13.8,26.6L13.8,26.6z M16.3,26.6c-0.1,0-0.1,0-0.1-0.1l-0.1-0.1c0-0.1,0-0.1,0-0.2c0,0,0,0,0.1,0
	l0,0c0.1,0,0.2,0.1,0.2,0.2v0.1C16.3,26.5,16.3,26.6,16.3,26.6L16.3,26.6z M15,26.5c-0.7,0-1-0.2-1.2-0.4c-0.1-0.1-0.1-0.1-0.2-0.2
	v-0.1l0,0c0.1,0,0.1,0,0.2,0l0,0C14,25.8,14.5,25.9,15,26.5L15,26.5L15,26.5z M15.8,26.4c-0.5-0.1-0.8-0.3-1-0.5
	c-0.1-0.1-0.2-0.2-0.2-0.4c0.1,0,0.1,0,0.2,0l0,0l0,0C15,25.6,15.5,25.7,15.8,26.4L15.8,26.4L15.8,26.4z M13,26.2
	c-0.2,0-0.3,0-0.5-0.1c-0.3-0.1-0.4-0.2-0.5-0.3v-0.1l0,0l0,0c0.1,0,0.3-0.1,0.4-0.1l0,0c0.1,0,0.2,0,0.4,0c0.3,0.1,0.5,0.2,0.7,0.4
	l0,0l0,0C13.3,26.2,13.2,26.2,13,26.2L13,26.2z M14.2,25.7c-0.1,0-0.1,0-0.1-0.1L14,25.5c0-0.1,0-0.1,0-0.2c0,0,0,0,0.1,0l0,0
	c0.1,0,0.2,0.1,0.2,0.2C14.4,25.6,14.4,25.6,14.2,25.7C14.3,25.7,14.3,25.7,14.2,25.7L14.2,25.7z M13.3,25.6
	c-0.2-0.1-0.4-0.1-0.5-0.2c-0.2-0.1-0.5-0.4-0.6-0.8l0,0l0,0c0,0,0,0,0.1,0l0,0c0.1,0,0.2,0,0.4,0.2C12.9,24.9,13.1,25.2,13.3,25.6
	L13.3,25.6z M13.9,25.6c-0.1-0.1-0.3-0.2-0.4-0.3c-0.3-0.3-0.6-0.6-0.7-1h0.1l0,0l0,0c0.1,0,0.3,0,0.4,0.2
	C13.6,24.7,13.8,25.1,13.9,25.6L13.9,25.6L13.9,25.6L13.9,25.6z M12.3,25.5c-0.2,0-0.3-0.1-0.3-0.2s0-0.1,0-0.2l0,0h0.1l0,0
	c0.1,0,0.3,0.1,0.3,0.2v0.1C12.5,25.5,12.4,25.5,12.3,25.5L12.3,25.5z M11.9,25c-0.2,0-0.3,0-0.5,0s-0.3-0.2-0.3-0.3
	c0-0.1-0.1-0.2-0.1-0.3l0,0c0.6,0,0.8,0.2,1,0.3c0.1,0.1,0.1,0.2,0.1,0.3l0,0C12.1,24.9,12,25,11.9,25L11.9,25z M12.5,24.4
	c0,0-0.1-0.1-0.1-0.2c-0.1-0.1-0.1-0.2-0.1-0.3c0-0.1,0-0.3,0-0.4s0-0.2,0-0.2l0,0c0,0,0.4,0.1,0.4,0.5S12.5,24.4,12.5,24.4
	L12.5,24.4L12.5,24.4L12.5,24.4z M12,24.3L12,24.3c-0.1,0-0.3-0.1-0.5-0.2s-0.4-0.3-0.5-0.4s-0.1-0.3-0.2-0.5c0-0.1,0-0.2,0-0.3
	c0,0,0,0,0.1,0s0.2,0,0.3,0.1s0.2,0.1,0.3,0.2s0.2,0.2,0.3,0.3l0,0c0,0,0.1,0.2,0.2,0.4C12,24.1,12,24.2,12,24.3
	C12.1,24.3,12.1,24.3,12,24.3L12,24.3L12,24.3L12,24.3z"
  />
<path
    id="branch_00000038389197111732981060000009181641103139520684_"
    fill="#4E5B31"
    d="M18.1,28.6L18.1,28.6L18.1,28.6
	C18.1,28.6,18.2,28.5,18.1,28.6c0.1-0.2,0.2-0.2,0.3-0.3c0.1-0.2,0.2-0.3,0.3-0.3l0,0l0.3-0.1l0.2-0.1l-0.1-0.1l-0.4,0.2L18.4,28
	l-0.6,0.5l0,0c0,0,0.1,0.1,0.2,0.2C18,28.4,18,28.5,18.1,28.6C18.1,28.5,18.1,28.5,18.1,28.6L18.1,28.6 M20.4,27.9
	c0.3,0,0.6-0.1,0.8-0.2l0,0l0,0c0-0.1-0.1-0.1-0.1-0.1c-0.1-0.1-0.2-0.1-0.5-0.1l0,0c-0.3,0-0.6,0.1-1,0.3
	C19.8,27.8,20.1,27.9,20.4,27.9L20.4,27.9L20.4,27.9z M21.6,27.6c0.1,0,0.1,0,0.1-0.1l0.1-0.1c0-0.1,0-0.1,0-0.2c0,0,0,0-0.1,0l0,0
	c-0.1,0-0.2,0.1-0.2,0.2v0.1C21.5,27.6,21.6,27.6,21.6,27.6L21.6,27.6z M19.4,27.4c0.7-0.1,1.1-0.4,1.2-0.6c0.1-0.1,0.1-0.3,0.1-0.4
	l0,0l0,0h-0.1C20.4,26.4,19.9,26.5,19.4,27.4L19.4,27.4L19.4,27.4L19.4,27.4z M20.9,27.2c0.3,0,0.6-0.1,0.7-0.2
	c0.1,0,0.1-0.1,0.2-0.2v-0.1c-0.1,0-0.2-0.1-0.3-0.1c0,0,0,0-0.1,0c-0.2,0-0.6,0.1-1,0.5l0,0l0,0C20.6,27.2,20.8,27.2,20.9,27.2
	L20.9,27.2z M22.5,27.2c0.3,0,0.8-0.1,1.1-0.4l0,0l0,0c-0.2-0.1-0.4-0.1-0.7-0.1c0,0,0,0-0.1,0c-0.3,0-0.6,0.1-0.7,0.2L22,27v0.1
	C22.1,27.1,22.3,27.2,22.5,27.2L22.5,27.2L22.5,27.2z M23.6,26.6h0.1v-0.1c0-0.1,0-0.1,0-0.2l0,0c0,0,0,0-0.1,0l0,0h-0.1l-0.1,0.1
	C23.5,26.5,23.5,26.5,23.6,26.6C23.5,26.6,23.5,26.6,23.6,26.6L23.6,26.6z M21.1,26.6c0.1,0,0.1,0,0.1-0.1l0.1-0.1
	c0-0.1,0-0.1,0-0.2c0,0,0,0-0.1,0l0,0c-0.1,0-0.2,0.1-0.2,0.2v0.1C21,26.5,21,26.6,21.1,26.6L21.1,26.6z M22.3,26.5
	c0.7,0,1-0.2,1.2-0.4c0.1-0.1,0.1-0.1,0.2-0.2v-0.1l0,0c-0.1,0-0.1,0-0.2,0l0,0C23.3,25.8,22.8,25.9,22.3,26.5L22.3,26.5L22.3,26.5z
	 M21.5,26.4c0.5-0.1,0.8-0.3,1-0.5c0.1-0.1,0.2-0.2,0.2-0.4c-0.1,0-0.1,0-0.2,0l0,0l0,0C22.3,25.6,21.8,25.7,21.5,26.4L21.5,26.4
	L21.5,26.4z M24.3,26.2c0.2,0,0.3,0,0.5-0.1c0.3-0.1,0.4-0.2,0.5-0.3v-0.1l0,0l0,0c-0.1,0-0.3-0.1-0.4-0.1l0,0c-0.1,0-0.2,0-0.4,0
	c-0.3,0.1-0.5,0.2-0.7,0.4l0,0l0,0C24,26.2,24.1,26.2,24.3,26.2L24.3,26.2z M23.1,25.7c0.1,0,0.1,0,0.1-0.1l0.1-0.1
	c0-0.1,0-0.1,0-0.2c0,0,0,0-0.1,0l0,0c-0.1,0-0.2,0.1-0.2,0.2S23,25.6,23.1,25.7C23,25.7,23,25.7,23.1,25.7L23.1,25.7z M24,25.6
	c0.2-0.1,0.4-0.1,0.5-0.2c0.2-0.1,0.5-0.4,0.6-0.8l0,0l0,0c0,0,0,0-0.1,0l0,0c-0.1,0-0.2,0-0.4,0.2C24.4,24.9,24.2,25.2,24,25.6
	L24,25.6z M23.4,25.6c0.1-0.1,0.3-0.2,0.4-0.3c0.3-0.3,0.6-0.6,0.7-1h-0.1l0,0l0,0c-0.1,0-0.3,0-0.4,0.2
	C23.7,24.7,23.5,25.1,23.4,25.6L23.4,25.6L23.4,25.6L23.4,25.6z M25,25.5c0.2,0,0.3-0.1,0.3-0.2s0-0.1,0-0.2l0,0h-0.1l0,0
	c-0.1,0-0.3,0.1-0.3,0.2v0.1C24.9,25.5,24.9,25.5,25,25.5L25,25.5z M25.4,25c0.2,0,0.3,0,0.5,0s0.3-0.2,0.3-0.3
	c0-0.1,0.1-0.2,0.1-0.3l0,0c-0.6,0-0.8,0.2-1,0.3c-0.1,0.1-0.1,0.2-0.1,0.3l0,0C25.2,24.9,25.3,25,25.4,25L25.4,25z M24.9,24.4
	c0,0,0.1-0.1,0.1-0.2c0.1-0.1,0.1-0.2,0.1-0.3c0-0.1,0-0.3,0-0.4s0-0.2,0-0.2l0,0c0,0-0.4,0.1-0.4,0.5S24.9,24.4,24.9,24.4
	L24.9,24.4L24.9,24.4L24.9,24.4z M25.3,24.3L25.3,24.3c0.1,0,0.3-0.1,0.5-0.2s0.4-0.3,0.5-0.4s0.1-0.3,0.2-0.5c0-0.1,0-0.2,0-0.3
	c0,0,0,0-0.1,0s-0.2,0-0.3,0.1c-0.1,0.1-0.2,0.1-0.3,0.2c-0.1,0.1-0.2,0.2-0.3,0.3l0,0c0,0-0.1,0.2-0.2,0.4
	C25.3,24.1,25.3,24.2,25.3,24.3L25.3,24.3L25.3,24.3L25.3,24.3L25.3,24.3z"
  />
<path
    fill="#D57800"
    d="M30.5,11.4h-0.1l0,0h-0.1l-0.1,0.1L30,11.6l0,0h-0.1h-0.1l0,0v0.1v0.1l0,0h-0.2l-0.1,0.1h-0.2h-0.1L29,12.1
	h-0.1l0,0h-0.1h-0.1l-0.1,0.1h-0.1l0,0l-0.1,0.1l-0.1,0.1l0,0l0,0l0,0v0.1l0,0h-0.1l-0.1,0.1H28h-0.1l0,0h-0.1h-0.2l-0.1,0.1l0,0
	l0,0h-0.1l0,0h-0.1h-0.1l0,0h-0.1H27h-0.1h-0.1l0,0v0.1l0,0v0.1L26.7,13l0,0l-0.1,0.1l-0.2,0.2l-0.2,0.1L26,13.5l-0.1,0.1l-0.3,0.2
	L25,14.1h-0.1h-0.2l-0.3,0.1l-0.2,0.1l0,0l0,0l-0.3,0.1h-0.2h-0.1h-0.2h-0.2h-0.1l-0.2,0.1l-0.3,0.2l-0.1,0.1l-0.2,0.1L22,15v-0.1
	l0,0h-0.1h-0.1h-0.2h-0.1h-0.1l0,0L21.3,15h-0.4l-0.2,0.1h-0.1h-0.1h-0.2h-0.1l0,0h-0.5h-0.2h-0.1L19.2,15h-0.3h-0.1h-0.1h-0.1l0,0
	h-0.1l0,0h-0.1h-0.1h-0.1h-0.1L18,14.9L17.7,15h-0.1l-0.4-0.1h-0.1L17,15h-0.1h-0.1h-0.1h-0.1l-0.2-0.1h-0.1h-0.1l0,0L16,14.7
	l-0.3-0.2l-0.2-0.1h-0.1l0,0v0.1v0.1v0.1v0.1v0.1l0.1,0.1v0.1v0.2v0.2v0.4V16v0.2v0.2l-0.2,0.5V17l-0.1,0.1L15,17.3l-0.2,0.1h-0.1
	h-0.1h-0.1l-0.1-0.1h-0.1L14.1,17H14l-0.2-0.1v-0.1h-0.1h-0.1l0,0l0,0l0,0l0,0h-0.2l-0.2-0.1h-0.1H13l-0.1,0.1l0,0h-0.1h-0.1h-0.1
	l-0.1,0.1l0,0l0,0h-0.1l0,0l0,0h-0.1l0,0h-0.1l0,0l0,0l0,0l0,0l0,0h-0.1l0,0H12l0,0V17v0.1l-0.1,0.1l-0.1,0.1l-0.1,0.1l-0.2,0.4
	l-0.1,0.1l0,0L11.3,18l0,0l-0.2,0.2l-0.2,0.1h-0.2h-0.1h-0.2h-0.1l-0.2-0.1L10,18l-0.2-0.2l0,0l0,0H9.7H9.6l0,0v0.1l0,0v0.3l0,0v0.1
	l0.2,0.3l0.1,0.1l0,0v0.1l0,0l0,0L10,19v0.1v0.1H9.9v0.1l0.2,0.2v0.1v0.1L10,19.8l0,0v0.1l0.1,0.1l0.1,0.1l0.1,0.2h0.1h0.1l0,0h0.1
	l0.1,0.1l0,0h0.1v0.1v0.2l0.1,0.2V21l0,0v0.1v0.1v0.2l0.1,0.1h0.1l0,0l0.1,0.1l0.1,0.1h0.1h0.1l0.3,0.2h0.1l0,0l0,0L12,22l0.1-0.1
	l0,0h0.1l0,0h0.1h0.1l0.2,0.1h0.1l0.2,0.1H13l0,0h0.1l0.1,0.1h0.1h0.1l0,0l0,0l0,0l0,0l0.2,0.1h0.1h0.1h0.1H14l0.1-0.1h0.1h0.1h0.1
	l0.1-0.1l0,0h0.1h0.3H15l0.2-0.1h0.1h0.1l0.2,0.1h0.1l0.1,0.1l0,0h0.1v0.1l0.1,0.1l0.1,0.1l0,0l0.1,0.2l0.1,0.1v0.1V23h-0.1l0,0l0,0
	l0,0l0,0l0,0h0.1h0.1h0.1h0.1h0.1h0.1h0.1l0,0l0.1,0.1h0.1l0,0l0,0l0,0V23L17,22.9v-0.1v-0.1v-0.1v-0.1v-0.1l0,0v-0.1l0,0l0,0
	l0.1-0.1l0.2-0.1l0.2-0.2l0.1-0.1l0.1-0.1l0,0l0,0l0.4-0.1l0,0h0.2l1.1,0.1l0,0l0,0v-0.1l0,0l0,0l0.1-0.1h0.1h0.2h0.1l0.1-0.1h0.1
	l0.1-0.1h0.1l0,0l0.2-0.1h0.2l0,0l0,0l0.2-0.1L21,21l0.1-0.1h0.1h0.3l0.1-0.1h0.1l0.1-0.1h0.1l0.1-0.1v-0.1h0.1h0.2h0.3l0,0l0.1-0.2
	h0.1l0.2-0.2V20v-0.1v-0.1v-0.2v-0.2l0.1-0.2l0.1-0.1l0.1-0.1h0.1h0.1l0,0l0,0l0,0h0.4H24h0.1l0.3,0.1l0,0h0.1l0.1,0.1l0.1,0.1l0,0
	h0.1l0,0h0.1H25l0.1-0.1l0.1-0.1l0,0l0.1-0.1l0,0l0,0l0,0l0,0l0,0l0.2-0.1h0.2l0,0l0,0l0.1-0.1h0.1H26h0.1h0.1h0.1h0.1l0.1,0.1h0.1
	l0.2,0.1l0,0l0,0l0,0l0,0l0,0l0,0l0,0l0,0l0,0v-0.1l0,0l0,0h-0.1l-0.1-0.1l0.1-0.1l-0.1-0.1l0,0l0,0v-0.1l-0.2-0.3L26.1,18l0,0
	l-0.9,0l0,0l0,0L25,17.8l-0.1-0.1l0,0l0,0l-0.1-0.1l-0.1-0.1l-0.1-0.1l0,0l-0.2-0.2l0,0l0,0h-0.1l0,0l0,0l0,0l0,0l0,0l0,0l-0.1-0.3
	l0,0v-0.1l0.1-0.4l0,0l0.1-0.3l0.1-0.1l0.1-0.2l0.1-0.1l0.1-0.1l0,0l0.1-0.1H25h0.1l0.2,0.1h0.2l0,0h0.1h0.1h0.1l0,0l0.1-0.2v-0.1
	v-0.1l0.2-0.3l0.2-0.2l0.4-0.3l0.2-0.1L27,14l0.9-0.4l0.2-0.2l0.1-0.1l0.2-0.1l0.2-0.1l0.2-0.2v-0.1l0.1-0.2l0,0v-0.1l0,0l0.2-0.1
	l0,0l0.7-0.3h0.1L30,12h0.2l0,0l0,0v-0.1l0,0v-0.2l0,0v-0.1L30.5,11.4L30.5,11.4L30.5,11.4L30.5,11.4L30.5,11.4z"
  />
</svg>
