<?xml version="1.0" encoding="UTF-8"?>
<svg width="40px" height="40px" viewBox="0 0 40 40" version="1.1" xmlns="http://www.w3.org/2000/svg" xmlns:xlink="http://www.w3.org/1999/xlink">
    <title>EC/Icons/Country flags/Square/40x40/cyprus</title>
    <g id="EC/Icons/Country-flags/Square/40x40/cyprus" stroke="none" stroke-width="1" fill="none" fill-rule="evenodd">
        <polygon id="Fill-1" fill="#FFFFFE" points="1 39 39 39 39 1 1 1"></polygon>
        <path d="M8.70321358,25.9747439 C8.69790069,25.9747439 8.6925878,25.9743818 8.68740141,25.9735369 C8.53838752,25.9497594 8.27653799,25.8411309 7.98698553,25.6827749 C7.66555574,25.5069175 7.40459169,25.3185076 7.25203587,25.1523061 C7.11301528,25.0005884 7.030539,24.7625715 7.006631,24.4445316 C6.98980685,24.2189466 7.01004643,24.0308987 7.01219688,24.0123112 C7.03825534,24.003983 7.06595826,24 7.09530565,24 C7.20687632,24.0016898 7.32591033,24.0497277 7.48668847,24.1553386 C7.61204736,24.2376548 7.75018247,24.3496628 7.8972989,24.4881037 C8.1510526,24.7268448 8.35066544,24.9667929 8.3525629,24.9690862 L8.35471335,24.9716208 C8.371411,25.0002263 8.515112,25.2474163 8.62706217,25.4880886 C8.69802719,25.6407719 8.73875934,25.7509694 8.75507749,25.8347339 C8.7643118,25.8825304 8.76696825,25.9137913 8.7548245,25.9422761 C8.74963811,25.9539838 8.73989781,25.9649673 8.73041051,25.9693125 C8.72155569,25.9729334 8.71270088,25.9747439 8.70258109,25.9747439 L8.70321358,25.9747439 Z M28.297022,25.9747439 C28.2866492,25.9747439 28.2776679,25.9729334 28.2695721,25.9691918 C28.2600848,25.9648466 28.2503445,25.9539838 28.2451581,25.9421554 C28.2330144,25.9137913 28.2355443,25.8824097 28.2449051,25.8347339 C28.2612233,25.7508487 28.3019554,25.6405305 28.3729204,25.4880886 C28.4860091,25.2448816 28.631481,24.9950363 28.6457752,24.9707759 L28.6472932,24.9692069 C28.6491907,24.9667929 28.84893,24.7268448 29.1025572,24.4881037 C29.2496736,24.3496628 29.3879353,24.2377755 29.5131676,24.1553386 C29.6716688,24.0510554 29.7943713,24.0016898 29.8992376,24 L29.8998701,24 C29.9344038,24 29.9619803,24.0041037 29.9869002,24.0119491 L29.9877857,24.0123112 L29.9877857,24.012794 C29.9877857,24.012794 30.0110612,24.2078424 29.9933516,24.4445316 C29.9694436,24.7625715 29.8868408,25.0005884 29.7478202,25.1523061 C29.5953909,25.3185076 29.3344269,25.5069175 29.0128706,25.6827749 C28.7234446,25.8411309 28.4615951,25.9498801 28.3125812,25.9735369 C28.3075213,25.9735369 28.3024614,25.9741404 28.296769,25.9741404 L28.297022,25.9747439 Z M9.35657244,26.0177125 C9.35543396,26.0162641 9.25942247,25.9030491 9.16467594,25.7625564 C9.06524902,25.6149424 8.97315894,25.4609315 8.97315894,25.3349225 C8.97315894,25.2132587 8.94330557,24.9567749 8.92534294,24.8148338 C8.90269991,24.6346313 8.87980389,24.4804997 8.87790643,24.4674643 L8.87866541,24.4677057 C8.90004347,24.4750683 9.40413544,24.6556328 9.40413544,25.1068029 C9.40413544,25.5586971 9.35758442,26.0128845 9.35707843,26.0173504 L9.35695193,26.0180746 L9.35631944,26.0180746 L9.35657244,26.0177125 Z M27.6430307,26.0177125 C27.6423982,26.0133673 27.5958472,25.5588178 27.5958472,25.1071649 C27.5958472,24.6559949 28.0999391,24.4754304 28.1214437,24.4680678 L28.1222027,24.4678264 C28.1208112,24.4769994 28.0976622,24.6328209 28.0746397,24.8151959 C28.0568035,24.957137 28.0268237,25.2132587 28.0268237,25.3354053 C28.0268237,25.4614143 27.9347336,25.6154252 27.8353067,25.7629185 C27.7404336,25.9034112 27.6445486,26.0167469 27.6436632,26.0178332 L27.6430307,26.0185574 L27.6436632,26.0179539 L27.6430307,26.0177125 Z M8.4818432,26.8516166 C8.31145126,26.8516166 8.05099319,26.8417193 7.77712641,26.7941642 C7.50553658,26.7470919 7.35158929,26.5266969 7.27037799,26.3502361 C7.18182984,26.1580845 7.15678336,25.9747439 7.15665686,25.9728127 L7.15741585,25.9728127 C7.99748481,25.9964696 8.39430703,26.2306242 8.57911967,26.4228965 C8.76987769,26.6214451 8.78126245,26.8275977 8.78176844,26.8406331 L8.78126245,26.8406331 C8.77999747,26.8406331 8.66172244,26.8516166 8.48146371,26.8516166 L8.4818432,26.8516166 Z M28.5183924,26.8516166 C28.3380072,26.8516166 28.2198586,26.8407538 28.2187202,26.8406331 L28.2184672,26.840271 C28.2184672,26.839064 28.2249185,26.6269972 28.4211159,26.4228965 C28.6060551,26.2305035 29.0027508,25.9963489 29.8429463,25.9728127 L29.8435787,25.9728127 L29.8434522,25.973899 C29.8433257,25.9747439 29.8184058,26.1580845 29.7298576,26.3502361 C29.6485198,26.5266969 29.4945725,26.7469712 29.2229827,26.7941642 C28.9491159,26.8406331 28.6891638,26.8508924 28.5183924,26.8508924 L28.5183924,26.8516166 Z M9.1573391,27.6645192 C8.85235396,27.6645192 8.74799364,27.5067666 8.71725478,27.4388135 C8.66678234,27.3272884 8.68208852,27.216246 8.68234151,27.2151597 L8.68246801,27.2139527 C8.73180198,27.2021243 8.78391889,27.1956066 8.83401185,27.1950031 L8.84451113,27.1950031 C9.08485611,27.1950031 9.27447565,27.3113562 9.35581345,27.4267437 C9.37200512,27.4495557 9.42146558,27.5289751 9.38048044,27.591014 C9.34759113,27.6398968 9.27295768,27.6645192 9.1572126,27.6645192 L9.1573391,27.6645192 Z M27.84277,27.6645192 C27.7270249,27.6645192 27.6518855,27.6397761 27.6196287,27.5908933 C27.57877,27.5289751 27.6282305,27.4495557 27.6444222,27.426623 C27.72576,27.3112355 27.9153795,27.1948824 28.155598,27.1948824 L28.1660973,27.1950031 C28.2164432,27.1956066 28.2688131,27.2021243 28.3176411,27.213832 L28.3177676,27.2144355 C28.3180206,27.2158839 28.3335798,27.3266849 28.2828543,27.4388135 C28.2518625,27.5064046 28.1475021,27.6645192 27.8426435,27.6645192 L27.84277,27.6645192 Z M25.4767634,27.7284893 C25.7011697,27.0469064 25.9651697,26.5463708 26.2609205,26.2417284 C26.5183427,25.9766751 26.7507183,25.9162052 26.9001117,25.9122222 C26.9132674,25.9118601 26.9228812,25.9116187 26.9323685,25.9116187 C26.9390729,25.9116187 26.9452712,25.9116187 26.9517226,25.9121015 C27.0573479,25.9183778 27.1278069,25.9521733 27.1343848,25.9555529 C26.8199124,26.6717762 26.3858999,27.1164285 26.0769934,27.3633771 C25.7456968,27.6284305 25.4805583,27.7295756 25.4779019,27.7306619 L25.4757514,27.7313861 L25.4763839,27.7283686 L25.4767634,27.7284893 Z M11.5222072,27.7302998 C11.5198038,27.7294549 11.2546653,27.6281891 10.9233687,27.3631357 C10.6144622,27.1163078 10.1804497,26.6715348 9.8659773,25.9553115 C9.8662303,25.9551908 9.9382073,25.9184985 10.0486395,25.9118601 C10.0549644,25.911498 10.0614157,25.9113773 10.0679936,25.9113773 C10.0773544,25.9113773 10.0872212,25.9116187 10.0972145,25.9118601 C10.2496438,25.9159639 10.4818929,25.9764337 10.7393151,26.2416077 C11.0350659,26.5461294 11.2991924,27.046665 11.5239782,27.7293342 L11.5246107,27.7311447 L11.5227132,27.7305412 L11.5222072,27.7302998 Z M26.3907068,27.7622848 C26.6629291,27.1752086 26.9681673,26.7561443 27.2981989,26.516679 C27.5315865,26.3472187 27.7280369,26.3056985 27.8514983,26.3007498 C27.8592147,26.3005084 27.8665515,26.3003877 27.8735089,26.3003877 C27.8821107,26.3003877 27.890333,26.3005084 27.8980494,26.3007498 C27.9458654,26.3025603 27.9783752,26.3100436 27.9796402,26.310285 L27.9795137,26.311492 C27.9272702,26.8768425 27.4983177,27.2411098 27.147667,27.447021 C26.7694399,27.6685023 26.3981702,27.7602329 26.3899478,27.7620434 L26.3907068,27.7622848 Z M10.6095288,27.7622848 C10.6034569,27.7609571 10.2314282,27.6697093 9.85256858,27.447021 C9.5019179,27.2411098 9.07309186,26.8767218 9.02072195,26.3106471 L9.02072195,26.310285 L9.02148093,26.3100436 C9.02160743,26.3100436 9.05424375,26.3025603 9.10243924,26.3007498 C9.10901711,26.3005084 9.11610096,26.3005084 9.1235643,26.3005084 C9.22830412,26.3005084 9.44271714,26.3285104 9.70203673,26.516679 C10.0321948,26.7569892 10.3370535,27.1756914 10.6096553,27.7628883 L10.6095288,27.7622848 Z M12.0073246,27.9451427 C11.9269988,27.9451427 11.8557808,27.9172614 11.8066998,27.8664474 C11.7662206,27.8248065 11.7367467,27.7673541 11.7167602,27.6909522 C11.6848828,27.569409 11.6937376,27.4495557 11.6946231,27.4384514 C11.7278919,27.4250539 11.7617932,27.417812 11.7935441,27.4170879 L11.8006279,27.4169672 C11.9591291,27.4169672 12.084488,27.5485282 12.1382494,27.6787616 C12.1678497,27.7504564 12.1730361,27.8120125 12.1535555,27.8618609 C12.134075,27.9125541 12.0763922,27.9451427 12.0074511,27.9451427 L12.0073246,27.9451427 Z M24.992911,27.9451427 C24.923717,27.9451427 24.8662871,27.9124334 24.8465536,27.8618609 C24.8271995,27.8120125 24.8323859,27.7504564 24.8619862,27.6788823 C24.9124587,27.556615 25.0295952,27.4283128 25.1778501,27.4169672 C25.1806331,27.4167258 25.1835425,27.4166051 25.1865785,27.4166051 L25.2066915,27.4170879 C25.2386954,27.4179327 25.2728497,27.4252953 25.305486,27.4384514 L25.305486,27.4385721 C25.305486,27.4390549 25.3166177,27.564219 25.2833489,27.6910729 C25.2632359,27.7674748 25.2338885,27.8249272 25.1934093,27.8665681 C25.1440754,27.9178648 25.0732368,27.9456254 24.992911,27.9456254 L24.992911,27.9451427 Z M10.1484459,28.5896712 C9.88596389,28.5896712 9.6314512,28.5608244 9.3918652,28.5036134 C8.97252646,28.4035546 8.79264721,28.2507506 8.71561032,28.1403117 C8.67184223,28.0775486 8.65603006,28.0225102 8.65033768,27.9872663 C8.64502479,27.9537122 8.64793423,27.9270379 8.64844022,27.9225721 L8.65033768,27.9218479 C8.65147616,27.9217272 8.92875837,27.8473771 9.31229836,27.841825 C9.32735155,27.8414629 9.34265773,27.8414629 9.3582169,27.8414629 C9.54328254,27.8414629 9.72543874,27.8582399 9.8998786,27.8914319 C10.5661402,28.0186479 10.911731,28.4985441 10.9151464,28.503372 L10.9153994,28.5039755 L10.9146404,28.5042169 C10.910719,28.5046997 10.5933371,28.5897919 10.1480664,28.5897919 L10.1484459,28.5896712 Z M26.8517897,28.5896712 C26.406266,28.5896712 26.0886311,28.5049411 26.0854687,28.5040962 L26.0847097,28.5039755 L26.0855952,28.5025271 C26.0885046,28.4985441 26.4339689,28.0186479 27.1004835,27.8914319 C27.2746704,27.8582399 27.4569531,27.8414629 27.6420187,27.8414629 C27.6574514,27.8414629 27.6727576,27.8414629 27.6878107,27.841825 C28.0714772,27.8473771 28.348633,27.9217272 28.3514159,27.9224514 L28.3521749,27.9251067 C28.3520484,27.9251067 28.3553373,27.9525052 28.3497714,27.987387 C28.344079,28.0225102 28.3282669,28.0775486 28.2844988,28.1403117 C28.2074619,28.2507506 28.0275827,28.4035546 27.6083704,28.5036134 C27.3699229,28.5609451 27.1156632,28.5899126 26.8531812,28.5899126 L26.8517897,28.5896712 Z M22.7406255,28.9567146 C23.1151842,27.8843107 23.8465919,27.7102639 24.2493595,27.7019357 C24.2612503,27.7015736 24.2730145,27.7014529 24.2843993,27.7014529 C24.2957841,27.7014529 24.3067893,27.7015736 24.3175416,27.7019357 C24.464911,27.7054359 24.56282,27.729817 24.5637055,27.7301791 L24.5644645,27.7301791 C24.5637055,27.7323517 24.49059,27.9854559 24.2345593,28.2575097 C23.9942144,28.512183 23.5407213,28.8406029 22.739993,28.9564732 L22.7406255,28.9567146 Z M14.2596101,28.9567146 C13.4587553,28.8402408 13.0051358,28.5123037 12.7655498,28.2575097 C12.514326,27.9904045 12.4390601,27.7417661 12.4357712,27.7301791 C12.4371626,27.7296963 12.5351981,27.7054359 12.682441,27.7019357 C12.6931933,27.7015736 12.704325,27.7014529 12.7155833,27.7014529 C12.7270946,27.7014529 12.7387323,27.7015736 12.7506231,27.7019357 C13.1533907,27.7102639 13.8849249,27.8843107 14.2594836,28.9562318 L14.2601161,28.9562318 L14.2596101,28.9567146 Z M23.821419,29.0520662 C24.6032991,28.178211 25.2714582,28.0284244 25.6002248,28.0169581 C25.6099651,28.0167167 25.6197054,28.0164753 25.6291927,28.0164753 C25.6426014,28.0164753 25.6557572,28.0167167 25.6681539,28.0169581 C25.8150173,28.0197342 25.9074869,28.0494259 25.9168477,28.0525641 L25.9168477,28.0526848 C25.9168477,28.0526848 25.902933,28.1153272 25.8594179,28.1996952 C25.8172943,28.2810459 25.736589,28.4041581 25.5912435,28.5283565 C25.3330624,28.7489929 24.8164472,29.0189949 23.821166,29.0524283 L23.8217985,29.0518248 L23.821419,29.0520662 Z M13.1786901,29.0526697 C12.1834089,29.0191156 11.6667937,28.7492343 11.4087391,28.5285979 C11.2633936,28.4042788 11.1826883,28.2812872 11.1405647,28.1999366 C11.1008445,28.1230519 11.0857913,28.0641511 11.0831349,28.0526848 L11.0843999,28.052202 C11.0846529,28.052202 11.1786404,28.0200963 11.3301842,28.0173202 L11.3534597,28.0170788 C11.6891837,28.0170788 12.372396,28.1515366 13.1783107,29.0521869 L13.1783107,29.0527904 L13.1786901,29.0526697 Z M14.98191,29.123761 C14.9025962,29.123761 14.8313781,29.0951555 14.7812852,29.0433759 C14.7404265,29.0007695 14.7109527,28.9440413 14.6914721,28.8696912 C14.6595947,28.7479066 14.668323,28.6267256 14.6692085,28.6152593 C14.7024773,28.6018618 14.7363786,28.5946199 14.7681295,28.593775 L14.7752133,28.5936543 C14.9339675,28.5936543 15.0590734,28.7250947 15.1127083,28.8554488 C15.1430676,28.9294368 15.149013,28.9918378 15.1300384,29.0404792 C15.1110638,29.0899655 15.0509776,29.1231575 14.9820365,29.1231575 L14.98191,29.123761 Z M22.0181991,29.123761 C21.9488786,29.123761 21.8894248,29.0904482 21.8700707,29.0405999 C21.8510961,28.9918378 21.856915,28.9294368 21.8874008,28.8554488 C21.9377468,28.7333022 22.0547568,28.6051206 22.2031382,28.5936543 C22.2060477,28.5934129 22.2089571,28.5934129 22.2118666,28.5934129 L22.2321061,28.5938957 C22.2639835,28.5946199 22.2980113,28.6019825 22.3307741,28.6152593 C22.3307741,28.6156214 22.3420323,28.7422338 22.308637,28.8698119 C22.2891565,28.9440413 22.2598091,29.0007695 22.2186974,29.0433759 C22.168731,29.0953969 22.09726,29.1236403 22.0181991,29.1236403 L22.0181991,29.123761 Z M11.2799648,29.2034218 C11.2191196,29.2034218 11.1618163,29.1778338 11.1231081,29.1330547 C11.0912307,29.0960004 11.0689672,29.0476004 11.053155,28.9808542 C11.0265906,28.8693291 11.0345599,28.7602179 11.0346864,28.7591316 L11.0348129,28.7580453 C11.0577089,28.7476652 11.0833879,28.7421131 11.1117233,28.7413889 L11.1118498,28.7413889 C11.1850918,28.7413889 11.2408771,28.7794089 11.2756639,28.8113939 C11.3219619,28.8538797 11.3599111,28.9106079 11.3824276,28.970957 C11.4054502,29.0331166 11.4091186,29.0851375 11.3938124,29.1299166 C11.3811627,29.1655225 11.3381536,29.202939 11.2799648,29.202939 L11.2799648,29.2034218 Z M25.7202708,29.2034218 C25.662082,29.2034218 25.6188199,29.1664881 25.6062967,29.1299166 C25.5909905,29.0850168 25.5946589,29.0329959 25.617808,28.9708363 C25.640198,28.9106079 25.6781472,28.8538797 25.7245717,28.8112732 C25.7593585,28.7794089 25.8152703,28.7412682 25.8834524,28.7412682 C25.9167212,28.7421131 25.9426532,28.7476652 25.9654227,28.7579246 C25.9658022,28.7639595 25.973139,28.8712602 25.9470806,28.9807335 C25.9312684,29.0474797 25.9090049,29.095759 25.877001,29.132934 C25.8384194,29.1769889 25.7808631,29.202939 25.7201443,29.202939 L25.7202708,29.2034218 Z M12.8826863,29.988081 C12.3880817,29.988081 11.7085378,29.8438467 11.2847717,29.4396282 L11.2843922,29.4391455 L11.2856572,29.4387834 C11.2900846,29.4378178 11.750029,29.3264133 12.2674032,29.3143435 C12.298395,29.3136193 12.3293869,29.3132572 12.3607582,29.3132572 C12.8244975,29.3132572 13.1794491,29.3990736 13.4158727,29.5681719 C13.4984755,29.627314 13.5435085,29.6822317 13.5536283,29.7361838 C13.5621036,29.7812043 13.5371837,29.829725 13.4868377,29.8659344 C13.3803269,29.9425778 13.1900749,29.9834945 12.9211415,29.9875983 L12.8830658,29.9888052 L12.8826863,29.988081 Z M24.0788411,29.988081 C23.8100342,29.9839773 23.6196557,29.9429399 23.5131449,29.8662965 C23.4629254,29.8300871 23.4380055,29.7815664 23.4464808,29.7365459 C23.4566006,29.6825938 23.5016336,29.6275554 23.5842364,29.568534 C23.8095282,29.4072811 24.1436077,29.3219475 24.5771142,29.3147056 C24.6049436,29.3142228 24.633026,29.3139814 24.6609819,29.3139814 C24.6851429,29.3139814 24.7090509,29.3142228 24.7325794,29.3147056 C25.2500801,29.3266547 25.7100245,29.4381799 25.7145784,29.4391455 L25.7157169,29.4393869 L25.7147049,29.4404731 C25.2914448,29.8442087 24.611901,29.9883224 24.1172963,29.9883224 L24.0793471,29.9883224 L24.0788411,29.988081 Z M15.1539464,30.0713628 C14.6848942,30.0712421 14.3276657,29.9939953 14.0925071,29.8417948 C13.9571549,29.7541679 13.8911233,29.6580921 13.8593724,29.5927943 C13.8296456,29.5316003 13.8228147,29.4807863 13.8218027,29.4706477 C13.834073,29.4652163 14.026096,29.3838657 14.3128655,29.3710716 C14.337153,29.3699854 14.361567,29.3693819 14.3871194,29.3692612 C14.7497873,29.3692612 15.3009363,29.482114 15.8828242,30.0198247 L15.8833302,30.0204282 L15.8825712,30.0204282 C15.6170532,30.0536202 15.3715219,30.0711214 15.1534404,30.0711214 L15.1539464,30.0713628 Z M21.8461627,30.0713628 C21.6277018,30.0712421 21.3824234,30.0542237 21.1174114,30.0204282 L21.1169054,30.0203075 L21.1171584,30.0200661 C21.6991728,29.482114 22.2504483,29.3692612 22.6104597,29.3692612 C22.6386687,29.3692612 22.6630826,29.3699854 22.6872436,29.3710716 C22.9735072,29.3838657 23.1654037,29.4649749 23.1784329,29.4706477 C23.1778004,29.4766826 23.171855,29.5291863 23.1408632,29.5927943 C23.1091123,29.6579714 23.0429542,29.7541679 22.9077285,29.8416741 C22.6724434,29.9938746 22.3153414,30.0712421 21.8464157,30.0712421 L21.8457832,30.0718456 L21.8461627,30.0713628 Z M17.4043344,30.2788431 C16.3063374,30.129298 15.8409536,29.7505469 15.6438707,29.4591814 C15.4337586,29.1483834 15.4768942,28.8610009 15.4772737,28.8581041 L15.4775267,28.8572592 L15.4782856,28.8570178 C15.4786651,28.8570178 15.5454557,28.839758 15.6464006,28.8392752 C15.9386095,28.8392752 16.6857029,28.9795266 17.4045874,30.2782396 L17.4050934,30.2789638 L17.4038284,30.2783603 L17.4043344,30.2788431 Z M19.5952687,30.2782396 C20.3144062,28.9792852 21.0614996,28.8390338 21.3494076,28.8390338 C21.446431,28.8395166 21.5108182,28.8541211 21.522456,28.8571385 L21.5230884,28.8603974 C21.5230884,28.8607595 21.566224,29.1482627 21.3561119,29.45894 C21.159029,29.7503055 20.6936453,30.1290566 19.5957747,30.2786017 L19.5948892,30.2788431 L19.5952687,30.2782396 Z M14.1356427,30.6403343 C14.0564553,30.6403343 13.9852373,30.6118495 13.9351444,30.5599493 C13.8940327,30.5173428 13.8646853,30.4606147 13.8452047,30.3862645 C13.8133274,30.26448 13.8220557,30.143299 13.8229412,30.131712 C13.85621,30.1184351 13.8902378,30.1110726 13.9217356,30.1104691 L13.9288195,30.1102277 C14.0877002,30.1102277 14.2128061,30.241668 14.2664409,30.3720221 C14.2969268,30.4461309 14.3027457,30.5082905 14.2838976,30.5570525 C14.264923,30.6059353 14.2053427,30.6397308 14.1357692,30.6397308 L14.1356427,30.6403343 Z M22.8639605,30.6403343 C22.7945134,30.6403343 22.7350596,30.6069009 22.7157055,30.5571732 C22.6967309,30.5082905 22.7025498,30.4461309 22.7330357,30.3720221 C22.7833816,30.2499962 22.9003917,30.1215733 23.0487731,30.1102277 C23.0516825,30.110107 23.054592,30.1099863 23.0576279,30.1099863 L23.077741,30.1104691 C23.1094918,30.1111933 23.1436461,30.1185558 23.1765354,30.1318327 L23.1765354,30.1319534 C23.1765354,30.1321947 23.1876672,30.2589279 23.1542719,30.3862645 C23.1347913,30.4606147 23.1054439,30.5174635 23.0643323,30.5599493 C23.0143658,30.6118495 22.9435273,30.6408171 22.863834,30.6408171 L22.8639605,30.6403343 Z M15.9932564,31.0332071 C15.5645568,31.0332071 15.1411702,30.9201129 14.7349872,30.6973039 L14.7344812,30.6970625 L14.7346077,30.6965797 C14.7346077,30.6965797 14.7877366,30.5999004 14.9166374,30.5097388 C15.0393398,30.423681 15.2608367,30.3209668 15.6186977,30.3196391 L15.6261611,30.3196391 C16.0500537,30.3196391 16.5685664,30.4571144 17.1676579,30.7283234 C17.1474183,30.7409967 16.6771011,31.0332071 15.9933829,31.0332071 L15.9940154,31.0338106 L15.9932564,31.0332071 Z M21.0069792,31.0332071 C20.3174421,31.0332071 19.8477574,30.7379792 19.8324512,30.7283234 C20.4314162,30.4571144 20.9501819,30.3196391 21.3740746,30.3196391 L21.3814114,30.3196391 C21.7392724,30.3209668 21.9606428,30.4238017 22.0834717,30.5097388 C22.2066802,30.5959174 22.260568,30.6880101 22.2657544,30.6970625 L22.2652485,30.6973039 C21.8590654,30.9207163 21.4360583,31.0335692 21.0072322,31.0335692 L21.0069792,31.0332071 Z M19.366941,32 C19.3555562,31.99481 19.3531527,31.9926374 19.3449304,31.9852748 L19.3370876,31.9781536 C19.316595,31.9602903 19.2825672,31.9286673 19.2369017,31.8790604 C19.1527809,31.7876918 19.0398188,31.6540788 18.9403919,31.5359153 C18.7434355,31.30164 18.5805069,31.0997118 18.5498945,31.0618126 L18.4996751,30.9994116 L18.4495821,31.0618126 C18.4189697,31.0999532 18.2559147,31.3018814 18.0589583,31.5359153 C17.9596578,31.6540788 17.8465692,31.7876918 17.7624485,31.8789397 C17.7167829,31.9285466 17.6827551,31.9602903 17.662389,31.9781536 L17.6544197,31.9852748 C17.6460709,31.9929995 17.6437939,31.9949307 17.6365836,31.9983102 L17.6283613,31.998793 L17.5013579,31.987206 L17.5625826,31.9419441 L17.6193799,31.9762224 C17.6167235,31.9699461 17.6119166,31.9590833 17.6030618,31.9470135 C17.5887676,31.927219 17.5678955,31.9028379 17.5442405,31.8780948 C17.4928826,31.8246255 17.4200201,31.7602933 17.3623373,31.7102035 C17.232804,31.5979542 17.1025117,31.4945158 17.1012468,31.4934295 L17.0999818,31.4924639 L18.0084858,30.8549358 L17.6497393,30.6953727 L17.8413828,30.4898236 L18.4996751,30.7587393 L19.1580938,30.4898236 L19.3497373,30.6953727 L18.9909908,30.8549358 L19.8993683,31.4924639 L19.8987359,31.4929467 C19.8968384,31.4943951 19.7665461,31.5979542 19.6371393,31.7102035 C19.57933,31.7602933 19.506594,31.8246255 19.4551096,31.8780948 C19.4314546,31.9027172 19.4105825,31.927219 19.3962883,31.9468928 C19.38756,31.9590833 19.3827531,31.9700668 19.3803497,31.9753776 L19.4367675,31.9419441 L19.4979922,31.987206 L19.3735188,31.9983102 L19.3678264,31.9995172 L19.366941,32 L19.366941,32 Z" id="Fill-3" fill="#2E4023"></path>
        <path d="M35.9871405,7.00221062 L35.8386264,7.06319759 L35.7803806,7.08725429 L35.6006003,7.07698143 L35.4320405,7.16033463 L35.1332471,7.37099326 L35.1201355,7.38061594 L35.0086868,7.4106543 L34.9053069,7.36462149 L34.8465568,7.39218916 L34.826259,7.5170239 L34.7702825,7.60674888 L34.7015727,7.65655274 L34.4630423,7.68164973 L34.2619556,7.78866951 L34.0003538,7.71649943 L33.8788193,7.76552307 L33.6203694,8.00556988 L33.4883708,8.07006784 L33.442228,8.06733708 L33.2671124,8.05810451 L33.1932335,8.08307145 L33.0827935,8.19308207 L32.8737642,8.20985674 L32.8087104,8.25627966 L32.7065912,8.46823866 L32.5961511,8.58579138 L32.5328624,8.59970525 L32.4644047,8.57382805 L32.4129668,8.58319065 L32.3896433,8.7188184 L32.3395923,8.77551418 L32.1997771,8.82518801 L32.0879503,8.92128476 L31.9898653,8.97329923 L31.8584971,8.96991829 L31.8283656,8.96991829 L31.6973756,9.04442903 L31.4512809,9.06666522 L31.3489095,9.16731324 L31.3263424,9.18889924 L31.2785607,9.21867753 L31.2003953,9.26666089 L31.1812322,9.27862422 L31.0870555,9.2613294 L30.9767415,9.30645196 L30.9321116,9.23558224 L30.8557113,9.28291541 L30.7546007,9.28733664 L30.6286536,9.22960057 L30.5327119,9.1855183 L30.4624892,9.1959212 L30.4381571,9.32205631 L30.4357617,9.33545003 L30.3620089,9.43661819 L30.2242109,9.52270215 L30.2055521,9.54792917 L30.0489693,9.75650723 L29.7513106,10.0793871 L29.4995425,10.2112438 L29.2386971,10.2930366 L29.0560171,10.4477796 L28.5770653,10.6927678 L27.8208785,11.0806658 L27.6663128,11.13177 L27.4444241,11.1684402 L27.0486805,11.318632 L26.699584,11.4273423 L26.6800426,11.4333239 L26.6109545,11.45504 L26.118765,11.6086127 L25.889564,11.5836458 L25.7539093,11.6344899 L25.4005263,11.5940487 L25.1548097,11.5991201 L24.9994876,11.6324094 L24.7071239,11.7770096 L24.2137997,12.0216077 L24.0506611,12.1754405 L23.7968758,12.3119785 L23.4997214,12.4091155 L23.5003518,12.2803797 L23.4985868,12.2749182 L23.3954589,12.3084675 L23.3209497,12.3327843 L23.0798978,12.371145 L22.945756,12.371145 L22.8624217,12.346048 L22.8495622,12.3505993 L22.3567423,12.5180859 L21.8071894,12.5728311 L21.5320978,12.6638564 L21.3265986,12.6603455 L21.1981301,12.6998765 L20.946362,12.7316053 L20.8563457,12.7067684 L20.836048,12.7010468 L20.0953682,12.734206 L19.7567358,12.6948051 L19.59511,12.7327756 L19.3243049,12.6387595 L18.9290656,12.5914263 L18.83678,12.5629484 L18.6290115,12.4993607 L18.535087,12.5552762 L18.4647382,12.5629484 L18.2966826,12.5000108 L18.2360415,12.4984504 L18.0972349,12.5502048 L18.0174306,12.5291389 L17.9431735,12.468152 L17.7691926,12.4413645 L17.6631651,12.3494289 L17.0704952,12.4304415 L16.9096259,12.3816779 L16.370411,12.2196528 L16.2846813,12.2242041 L16.1777713,12.3067771 L16.0171541,12.3672439 L15.8777172,12.4045643 L15.687851,12.4113262 L15.4673491,12.3517696 L15.2400392,12.2381179 L15.1560745,12.2174422 L14.9686037,12.2369476 L14.9112404,12.2424091 L14.5666825,12.051646 L14.122779,11.7654364 L13.8215902,11.6161548 L13.7085026,11.5971695 L13.6932478,11.652565 L13.7493503,11.8350057 L13.7685134,12.0153659 L13.7627141,12.1820723 L13.7596883,12.285191 L13.7878026,12.3779069 L13.8964777,12.5020914 L13.941864,12.6269262 L13.9750212,12.9706118 L13.974643,13.3191088 L13.9218184,13.8751436 L13.903916,13.9597971 L13.8408794,14.2478273 L13.7831379,14.5123209 L13.5596102,15.216727 L13.4983387,15.3041113 L13.3475552,15.4100908 L13.005897,15.6498775 L12.754381,15.7995492 L12.6748289,15.8334887 L12.4705904,15.8493531 L12.3433826,15.8425912 L12.1850347,15.7541666 L12.0294604,15.7128151 L11.8257262,15.561713 L11.5991728,15.5133395 L11.3506826,15.3652283 L11.2860071,15.284996 L11.1508567,15.2719924 L10.9632598,15.2138662 L10.9632598,15.2134761 L10.8944239,15.1922802 L10.8467683,15.1779762 L10.6074814,15.1710843 L10.384332,15.0649748 L10.2668318,15.0355866 L10.1063407,15.0272643 L9.93828516,15.1078867 L9.93815909,15.1074966 L9.85305971,15.148458 L9.74539325,15.1043757 L9.66760611,15.1094471 L9.57935491,15.2468954 L9.5662433,15.2682213 L9.50547605,15.3013806 L9.42983216,15.3002102 L9.37070385,15.2986498 L9.30653262,15.3275178 L9.22042466,15.3661386 L9.22042466,15.3662686 L9.14427648,15.4005982 L9.1070849,15.4171128 L9.10645454,15.4164626 L9.08350923,15.4211439 L9.0427876,15.4284259 L8.99248441,15.4384387 L8.90347677,15.3848638 L8.85632542,15.3561258 L8.77689933,15.3394812 L8.73428661,15.37134 L8.72596578,15.5208816 L8.68700918,15.6104766 L8.5634575,15.723218 L8.43776257,15.8373897 L8.3502678,15.9704168 L8.11841929,16.5159186 L7.97330909,16.7359398 L7.92830098,16.7873041 L7.77650891,16.9599922 L7.64173672,17.0677922 L7.3314707,17.3157712 L7.03784635,17.4290327 L6.78494361,17.4823476 L6.66189622,17.4827377 L6.42891305,17.4508788 L6.21950555,17.3845604 L5.98929598,17.2361891 L5.73702362,17.0269608 L5.37178971,16.6547973 L5.32009972,16.6226783 L5.30925743,16.6153963 L5.19427872,16.5394551 L5.1089272,16.5417958 L5.07551781,16.5984916 L5.05723721,16.6806745 L5.04173021,16.7534947 L5,17.16753 L5.02496248,17.3619341 L5.30244948,17.7617954 L5.38805315,17.9742745 L5.40204727,17.9984612 L5.45928447,18.0976789 L5.50290578,18.1732299 L5.50731834,18.180902 L5.60199928,18.4727032 L5.53543265,18.6374591 L5.56909418,18.7478598 L5.48487732,18.8152186 L5.46937033,18.9105351 L5.71849086,19.2325047 L5.77282839,19.3745042 L5.71218721,19.5715091 L5.61523696,19.6802193 L5.5882573,19.7098676 L5.6018732,19.7930907 L5.71647369,19.8993303 L5.91125671,20.0782601 L6.01488883,20.343794 L6.0939367,20.4150539 L6.18571795,20.3948982 L6.23677757,20.4352095 L6.31418648,20.4337791 L6.39033466,20.5123209 L6.43975534,20.5368978 L6.51754247,20.577079 L6.57919224,20.659782 L6.59280814,20.9140027 L6.70766077,21.2299907 L6.7094258,21.4013784 L6.71005616,21.4256952 L6.78153964,21.5523504 L6.80398066,21.6523482 L6.76590657,21.9168419 L6.85693138,22.0017555 L6.95577273,21.9809497 L7.01956574,21.9913526 L7.12206321,22.0793871 L7.24611918,22.2745714 L7.36752762,22.2561063 L7.44455832,22.294467 L7.81660017,22.6412735 L7.90106918,22.6853558 L7.90573389,22.6879565 L7.96637507,22.7194252 L8.04189289,22.7979671 L8.15888877,22.7177348 L8.1718743,22.7164344 L8.29908211,22.7048612 L8.35493251,22.743742 L8.46234683,22.8185128 L8.60317054,22.8164322 L8.9085197,22.9131792 L9.04203116,22.948419 L9.31069304,23.1204569 L9.42491531,23.1934072 L9.49236444,23.2499729 L9.58225459,23.3255239 L9.76153061,23.4051061 L9.91533985,23.4430767 L9.9986742,23.4634923 L10.0613326,23.4884593 L10.0629715,23.4844282 L10.063854,23.4846882 L10.0623411,23.4888494 L10.3954264,23.620316 L10.5758371,23.663618 L10.7426318,23.7270757 L10.8641664,23.7728484 L10.9533001,23.7742788 L11.0794993,23.6650484 L11.2015381,23.6576364 L11.303027,23.6837737 L11.4018683,23.6666089 L11.5585772,23.5671312 L11.5890869,23.5203182 L11.7001574,23.465833 L12.0748468,23.4178496 L12.1844043,23.4545198 L12.4655475,23.3283847 L12.6537747,23.3824798 L12.8205694,23.3213628 L13.1849208,23.404846 L13.281745,23.4751956 L13.3899158,23.6028911 L13.4032795,23.6035413 L13.5236794,23.605882 L13.4733762,23.6924861 L13.6323544,23.864524 L13.7760778,24.0885763 L13.7857855,24.1180945 L13.890174,24.4343426 L13.9678351,24.5464338 L14.0221726,24.7027373 L14.0249462,24.8046856 L13.9404772,24.8711341 L13.9264831,24.9091047 L13.9218184,24.9231486 L13.9388383,24.9656704 L13.9707348,24.9477255 L14.031502,24.9131358 L14.1050027,24.9013025 L14.2352362,24.9156065 L14.3212181,24.9249691 L14.4569989,24.8553998 L14.5470151,24.8092369 L14.6914949,24.8734748 L14.8503471,24.8716543 L14.9170398,24.9023428 L15.1057713,24.9905074 L15.2022173,25 L15.2377699,24.9758133 L15.2604631,24.9201578 L15.2488643,24.8553998 L15.1766244,24.7693158 L15.0171419,24.5784227 L14.951836,24.4801153 L14.9021632,24.3379857 L14.8866562,24.1564552 L14.8756878,24.0338311 L14.8954813,23.8727162 L14.9383462,23.8153703 L14.9698645,23.6872846 L14.9704948,23.6872846 L14.9785635,23.6538653 L15.0671929,23.5325416 L15.3019411,23.3768882 L15.5540874,23.1439934 L15.7534091,23.0084957 L15.9589083,22.9166901 L15.9643294,22.890943 L15.9872747,22.9004356 L16.509974,22.7170846 L16.518547,22.7161743 L16.751278,22.6743027 L18.3221494,22.7883444 L18.3805213,22.7702694 L18.3806474,22.7698793 L18.4329677,22.6183871 L18.4612081,22.5902993 L18.4798669,22.5719642 L18.6525871,22.4935524 L18.7334,22.4817191 L18.957432,22.5386749 L19.0493393,22.5620814 L19.1963406,22.4770378 L19.3006031,22.4788583 L19.5159361,22.3575345 L19.6490693,22.3610455 L19.6996246,22.3401097 L19.958831,22.1480462 L20.2084558,22.0741856 L20.2735096,22.0385557 L20.2963288,22.0256821 L20.5522573,21.8861533 L20.7148917,21.7574175 L20.855085,21.6805661 L21.0088943,21.6396047 L21.4109415,21.6103465 L21.4918805,21.4714679 L21.6648528,21.4476713 L21.7693675,21.3260874 L21.8887587,21.2758935 L22.0463502,21.0419583 L22.1465783,20.9820117 L22.4680649,20.9612059 L22.849184,21.0098394 L22.8994872,20.9783706 L22.9855951,20.6614724 L23.0757374,20.6019159 L23.3185543,20.2370343 L23.3193107,20.1041373 L23.3195629,19.9930864 L23.3595281,19.8348324 L23.3324224,19.5494029 L23.3644449,19.2603325 L23.5153545,18.8929802 L23.6483617,18.744869 L23.8628121,18.5951973 L23.9717393,18.5461737 L24.1260528,18.5193862 L24.1260528,18.5189961 L24.1488721,18.515095 L24.1880808,18.5080731 L24.7198573,18.500661 C24.7271696,18.4949394 24.9131275,18.4978002 24.9131275,18.4978002 L25.0903863,18.4954596 L25.5388285,18.5776424 L25.570725,18.5834941 L25.7222649,18.6340782 L25.8971284,18.7743872 L26.0822038,18.9608591 L26.1168739,18.9955788 L26.2368955,19.0475932 L26.2730785,19.0639778 L26.372172,19.0475932 L26.5131218,18.9719122 L26.6195275,18.8791964 L26.7645116,18.7974036 L26.7681678,18.7922022 L26.8497371,18.6655469 L26.8521325,18.6629462 L26.8540236,18.6634663 L26.8541496,18.6626861 L26.8527628,18.662426 L26.8849115,18.611972 L27.1652982,18.4993607 L27.4949794,18.4795952 L27.5320449,18.4589194 L27.5527209,18.4474762 L27.6398375,18.3420169 L27.7214068,18.3412366 L27.9190895,18.4149672 L28.0580221,18.3866193 L28.1683361,18.4320019 L28.2540659,18.421599 L28.4156916,18.4018335 L28.5892944,18.5278386 L28.690405,18.5411023 L29.047066,18.7563122 L29.0657248,18.759433 L29.0753063,18.7612535 L29.0956041,18.7647645 L29.1379647,18.7517609 L29.2008752,18.7329057 L29.2093221,18.730435 L29.2171386,18.7417481 L29.2577342,18.8007846 L29.3133324,18.8089768 L29.3791426,18.7183416 L29.3529194,18.6773802 L29.3430857,18.662296 L29.2157518,18.6356386 L29.1012774,18.4338224 L29.2102046,18.3128888 L29.010883,18.0607486 L28.9421731,17.9530786 L28.6430015,17.4826077 L28.2534355,17.1618084 L28.2531833,17.1620684 L28.1167722,17.0494571 L28.1158897,17.0488069 L28.068108,17.0100561 L27.8599612,16.7917254 L27.711321,16.5882187 L27.6917796,16.5443965 L27.6611438,16.4753473 L27.5720101,16.2752216 L27.4168141,16.1519473 L27.2904888,16.0094276 L27.2841851,16.0011053 L27.0233398,15.6353135 L26.9803489,15.5739364 L26.9186991,15.5372662 L26.7884655,15.536356 L26.7762364,15.5236124 L26.7689242,15.5156802 L26.7733367,15.5108689 L26.835743,15.4468911 L26.9054614,15.428686 L26.9354668,15.3579463 L26.8025857,14.9610758 L26.8017032,14.947162 L26.7917434,14.8205067 L26.9000403,14.2447064 L26.9139083,14.1744869 L27.0984794,13.7872391 L27.2128277,13.6906222 L27.3376402,13.4375718 L27.4445502,13.2756767 L27.5470477,13.1729481 L27.56495,13.1620251 L27.7498993,13.046553 L27.9053475,13.0240567 L28.0533574,13.0024707 L28.3116813,13.0846536 L28.5575239,13.0797122 L28.6055578,13.0743807 L28.7170065,13.061247 L28.900569,13.0015604 L28.9871812,12.9464251 L29.0321893,12.8752953 L29.1258617,12.5511151 L29.1559932,12.4479964 L29.2138607,12.3357751 L29.5483328,11.9386446 L29.8011094,11.6975575 L30.3696993,11.2675278 L30.6480688,11.0960101 L30.7900272,11.0083657 L32.0587013,10.4267138 L32.3883826,10.0819878 L32.5602203,9.90279795 L32.8640565,9.69239938 L33.2197089,9.54220758 L33.5256884,9.29240805 L33.5925072,9.20567391 L33.6767241,8.92583602 L33.7469468,8.90841117 L33.8102355,8.7669318 L33.8281379,8.72688065 L34.0780149,8.54535012 L34.1062553,8.53078607 L35.0762621,8.02949654 L35.2172118,8.04952212 L35.2926036,7.93287965 L35.5747553,7.88398604 L35.6266974,7.87501355 L35.6962898,7.83912356 L35.7555442,7.73522464 L35.7555442,7.71467892 L35.7637389,7.43679157 L35.8238758,7.36176069 L35.8567809,7.17866973 L35.8876688,7.13640797 L35.9200696,7.09245573 L36,7.03445959 L35.986132,7 L35.9871405,7.00221062" id="Fill-4" fill="#EFA53C"></path>
    </g>
</svg>