<svg xmlns="http://www.w3.org/2000/svg" id="a" viewBox="0 0 40 40"><defs><style
    >.c{fill:#4e5b31}</style></defs><path
    fill="#fffffe"
    fill-rule="evenodd"
    d="M1 39h38V1H1v38Z"
  /><path
    d="M16.88 30.92c-.72-1.36-1.47-1.51-1.75-1.51h-.16c-.01.24.04.46.16.64.19.3.66.7 1.77.85h-.01Zm-4.64-2.68h-.06c-.09 0-.16 0-.24.03.07.21.18.39.33.55.24.27.69.61 1.5.73-.37-1.12-1.11-1.3-1.51-1.32h-.01Zm2.23 1.5s.12-.03.15-.09l-.01-.19c-.06-.13-.18-.27-.34-.27s-.07 0-.1.01v.27c.01.06.06.13.1.18.04.06.12.09.19.09h.01Zm-.67.25c-.17 0-.34.04-.49.1l.04.13c.06.1.13.19.24.25.24.16.6.24 1.06.24.24 0 .49-.01.73-.06a2.15 2.15 0 0 0-1.5-.69h-.09Zm-2.92-.24v-.16a.44.44 0 0 0-.1-.16.2.2 0 0 0-.16-.07h-.07l.01.25c0 .06.03.12.07.16s.09.07.15.07.09-.03.12-.07h-.01Zm4.24 1.23c-.25-.01-.5.06-.7.19a.65.65 0 0 0-.18.19c.37.22.81.34 1.26.36.42 0 .82-.1 1.17-.31a3.84 3.84 0 0 0-1.54-.43Zm2.91.48h-.04l-.66-.3-.18.22.36.16h.07l.45-.09Zm-6.53-2.97s.12-.03.15-.09l-.01-.19c-.06-.13-.18-.27-.34-.27s-.07 0-.1.01v.27c.01.07.06.13.1.18.04.06.12.09.19.07h.01Zm1.92 2.29h-.1l.01.28c0 .06.04.13.09.18.04.06.12.09.19.09s.12-.03.15-.09l-.01-.19c-.06-.13-.18-.27-.34-.27h.01Zm-5.05-5.92.04.36.04.54c0 .12.09.3.19.45l.19.27s.04-.48.04-.96-.51-.66-.52-.67Zm9.71 6.86-.04.04.39.51.3.36.1.1v.03l.04-.06.06-.07.18-.18.25-.22-.88-.66-.43.13h.03Zm-7.97-3.39ZM8.6 26.8h-.07c.04.6.48.97.84 1.2.23.14.49.25.75.33a3.3 3.3 0 0 0-.91-1.3.91.91 0 0 0-.58-.22h-.01Zm-1.11-.64c.28.16.55.28.7.3h.04l.03-.03v-.12a4.16 4.16 0 0 0-.4-.9l-.45-.51c-.12-.13-.27-.24-.4-.34-.16-.1-.28-.16-.39-.16h-.09v.45c.03.33.1.58.24.75.15.18.42.37.73.55h-.01Zm3.34 2.46c-.09 0-.16 0-.24.03s.03.1.06.15a1 1 0 0 0 .27.34c.25.22.78.51 1.77.55-.81-.94-1.48-1.08-1.83-1.08h-.03Zm-2.55-1.23a.68.68 0 0 0-.21-.43c-.18-.19-.58-.45-1.42-.46.01.13.06.27.12.39.07.18.24.42.51.46.24.04.46.06.7.06h.3Zm2.74.91a4.32 4.32 0 0 0-.78-1.56c-.25-.28-.49-.34-.64-.34h-.04c-.06 0-.12.02-.18.04.22.57.6 1.08 1.06 1.48.18.15.37.28.6.39h-.01Zm-2.7-.57h-.15c0 .09 0 .18.03.25s.13.24.43.24c.12 0 .19-.03.22-.07.04-.06 0-.15-.03-.16a.6.6 0 0 0-.51-.24Zm1.06.7a4.95 4.95 0 0 0-.54-.06H8.8c-.22 0-.45.03-.66.09s0 .04 0 .07c0 .06.03.1.06.16.07.12.25.27.67.37.5.12 1.02.12 1.51 0a1.68 1.68 0 0 0-1.02-.64h.01Zm3.52 1.77c-.31-.2-.68-.29-1.05-.27h-.09c-.33 0-.67.05-.99.13.42.42 1.11.57 1.6.57h.04c.27 0 .46-.04.57-.13.04-.03.07-.07.06-.13a.46.46 0 0 0-.13-.18h-.01Zm14.83-2.47c-.2 0-.38.09-.51.24-.01.03-.06.1-.03.16.03.04.1.07.22.07.3 0 .4-.16.43-.24s.04-.15.03-.24-.1-.01-.15-.01Zm-1.03-1.29-.18-.04h-.04c-.15 0-.39.07-.64.34-.3.31-.55.84-.78 1.56.21-.1.42-.22.6-.39.46-.4.82-.91 1.06-1.48h-.01Zm.46-.87c0 .48.04.94.04.96l.19-.27c.1-.15.19-.31.19-.45l.04-.54.04-.36s-.52.19-.52.67Zm-1.63 3.81h-.07a.17.17 0 0 0-.16.06.4.4 0 0 0-.1.16c-.01.06-.03.1 0 .16.01.04.06.07.12.07s.12-.03.15-.07a.56.56 0 0 0 .07-.16v-.24.01Zm-1.23.58h-.09c-.46 0-.82.09-1.05.27-.06.04-.12.1-.13.18 0 .06.01.1.06.13.1.07.3.12.57.13h.04c.49 0 1.17-.15 1.6-.57a4.71 4.71 0 0 0-.99-.13h-.01Zm3.61-1.47c-.21-.06-.43-.07-.66-.09h-.04a1.99 1.99 0 0 0-1.56.7c.5.12 1.02.12 1.51 0 .42-.1.6-.27.67-.37a.27.27 0 0 0 .06-.16v-.07h.01Zm1.56-4.12c-.1 0-.22.04-.39.16-.32.25-.61.53-.85.85 0 0-.16.28-.27.54l-.13.36v.12l.03.03h.04c.15-.03.4-.13.7-.3.31-.18.58-.37.73-.55.16-.22.24-.48.24-.75v-.45h-.1Zm-3.52 3.94Zm-3.31 2.46c-.16 0-.28.13-.34.27a.25.25 0 0 0-.01.19c.03.06.09.09.15.09.07 0 .15-.03.19-.09a.38.38 0 0 0 .09-.18c.01-.09.03-.18.01-.27h-.1l.01-.01Zm3.31-2.47c.27-.07.52-.18.75-.33.34-.21.78-.6.84-1.2s-.06 0-.07 0h-.01c-.21.01-.42.09-.58.22-.33.25-.63.69-.91 1.3Zm2.04-1.39a.8.8 0 0 0-.21.43h.3c.24 0 .48-.01.7-.06.27-.04.42-.28.51-.46.06-.12.09-.25.12-.39-.84.03-1.24.27-1.42.46Z"
    class="c"
  /><path
    d="M18.49 31.55h.04l.36-.18-.18-.22-.66.28h-.04l.45.1.03.01Zm2.17-.9.73.06c.46 0 .82-.07 1.06-.24.1-.06.18-.15.24-.25l.04-.13c-.16-.06-.32-.1-.49-.1h-.07c-.36 0-.91.12-1.5.69h-.01Zm.4-1.23h-.16c-.28-.01-1.03.13-1.75 1.5 1.09-.15 1.56-.55 1.77-.85.12-.19.18-.41.16-.63h-.01Zm-3.54 2.1-.88.64.25.22.18.18.06.07.03.06h.01l.1-.12.3-.36.39-.49-.04-.06-.43-.13h.03Zm4.03-1.84c.07 0 .15-.03.19-.09a.38.38 0 0 0 .09-.18c.01-.09.03-.18.01-.27h-.1c-.16-.01-.28.12-.34.25a.25.25 0 0 0-.01.19c.03.06.09.09.15.09h.01Zm2.98-1.24c.07 0 .15-.03.19-.09a.5.5 0 0 0 .09-.18c.01-.09.03-.18.01-.27h-.1c-.16-.01-.28.12-.34.25a.25.25 0 0 0-.01.19c.03.06.09.09.15.09h.01Zm-2.91 2.7a1.1 1.1 0 0 0-.7-.19c-.42 0-.94.15-1.54.43.75.44 1.69.43 2.43-.04a.41.41 0 0 0-.18-.19Zm2.2-2.95h-.03c-.4 0-1.14.19-1.51 1.32a2.45 2.45 0 0 0 1.5-.73c.15-.16.25-.34.33-.55a.99.99 0 0 0-.24-.03h-.04Zm-.46 1.42c.99-.03 1.51-.31 1.77-.55.11-.1.2-.21.27-.34l.06-.15c-.07-.03-.16-.03-.24-.03h-.03c-.33 0-1.02.13-1.83 1.08Z"
    class="c"
  /><path
    d="M18.49 31.55h-.03l-.45-.1-.45.09h-.03l.43.15.04.04.04-.04.43-.13Z"
    class="c"
  /><path
    fill="#d57800"
    d="m35.4 7.31-.06.03h-.18l-.16.07-.3.21-.1.04-.1-.04-.06.03v.12l-.07.09-.07.04-.24.03-.19.1-.27-.07-.12.04-.25.24-.13.06h-.22l-.07.03-.1.1h-.21l-.06.06-.1.21-.1.12h-.18l-.03.13-.04.06-.13.04-.1.09-.1.04h-.16l-.13.07h-.24l-.1.12H31l-.04.04-.07.04h-.1l-.1.04-.04-.07-.07.04h-.1l-.12-.04-.09-.04h-.07l-.03.13-.07.1-.13.09v.03l-.18.21-.3.31-.25.13-.25.07-.18.15-.48.24-.76.37-.15.04-.22.03-.4.15-.34.1h-.01l-.07.03-.49.15-.22-.03-.13.04-.36-.04h-.24l-.15.03-.3.13-.49.24-.16.15-.25.13-.3.09v-.12l-.1.03-.07.03-.24.03h-.13l-.09-.03-.49.16-.55.06-.27.09h-.21l-.13.03-.25.03-.09-.03h-.01l-.75.03-.34-.04-.16.03-.27-.09-.39-.04-.09-.03-.21-.06-.09.06h-.07l-.16-.06h-.06l-.13.04h-.07l-.07-.07-.18-.03-.1-.09-.6.07-.16-.04-.54-.16h-.09l-.1.09-.16.06-.13.03h-.19l-.22-.04-.22-.1h-.34l-.34-.18-.45-.28-.3-.15h-.12v.03l.04.18v.45l.03.09.1.12.04.12.03.33v.34l-.06.54v.07l-.07.28-.06.25-.22.69-.06.09-.15.1-.34.24-.25.15-.07.03h-.34l-.16-.09-.15-.04-.21-.15-.22-.04-.25-.15-.06-.07H11l-.19-.07h-.07l-.04-.01h-.24l-.22-.12-.12-.03h-.16l-.16.07-.09.04-.1-.04h-.07l-.09.13-.06.06h-.13l-.06.03-.09.04-.07.03h-.03l-.12.01-.09-.04-.04-.03h-.12v.15l-.04.09-.12.1-.12.1-.09.13-.24.52-.15.21-.04.04-.15.16-.13.1-.31.24-.3.1-.25.04h-.12l-.24-.03-.21-.06-.22-.15-.25-.21-.36-.36-.04-.03-.12-.07h-.09l-.03.06v.07l-.03.07-.04.4v.03l.03.16.28.39.09.21v.03l.07.09.04.07.09.28-.06.16.03.1-.09.06v.09l.24.31.06.13-.06.19-.09.1-.03.03v.07l.13.1.19.18.1.25.07.07h.13l.07.01.07.07.04.03.07.04.06.07v.25l.13.31v.19l.07.12.03.09-.04.25.09.09h.16l.1.09.12.19h.19l.37.36.09.04.06.03.07.07.12-.07h.13l.06.04.1.07h.13l.3.09.13.03.27.16.12.07.07.06.09.07.18.07.15.03h.09l.06.04.33.13.18.04.16.06.12.04h.09l.12-.1h.22l.1.01.15-.12.03-.04.1-.06.37-.04.1.03.28-.12.19.06.16-.06.36.07.09.07.1.12h.12l-.04.09.16.16.15.22v.03l.12.31.07.1.06.15v.1l-.07.06v.03h-.01v.04h.04l.06-.04h.3l.13-.06.09-.04.15.06h.16l.06.03.19.09h.12l.03-.06v-.06l-.09-.09-.16-.18-.06-.09-.04-.13v-.18l-.03-.12v-.15l.06-.06.03-.12v-.03l.09-.12.24-.15.25-.22.19-.13.21-.09v-.03h.03l.52-.18.24-.04 1.57.1h.06l.06-.16.03-.03h.01l.18-.09h.07l.22.04.09.03.15-.09h.1l.21-.12h.18l.25-.19.25-.07.06-.03h.03l.25-.15.16-.12.13-.07.15-.04.4-.03.07-.13.18-.03.1-.12.12-.04.09-.12.07-.1.1-.06h.33l.39.03.04-.03.09-.31.09-.06.24-.36v-.24l.04-.15-.03-.28.03-.28.15-.36.13-.15.21-.15.1-.04.15-.03h.99l.45.07h.03l.15.06.18.13.18.18.03.03.12.04h.13l.13-.07.1-.09.15-.07.07-.13.03-.04.28-.1h.33l.03-.04h.01l.09-.12h.07l.19.07.13-.03.1.04h.09l.16-.03.18.12h.1l.36.22h.13l.04.06h.06l.06-.07-.03-.04-.13-.04-.12-.19.1-.12-.16-.21-.03-.03-.06-.1-.3-.46-.39-.31-.13-.1-.04-.04-.21-.21-.15-.19v-.04l-.04-.06-.09-.19-.15-.12-.12-.13-.25-.36-.04-.06-.06-.03h-.13l.06-.06h.07l.03-.09-.13-.39v-.13l.1-.55v-.07l.19-.37.12-.09.12-.24.1-.16.1-.1h.01l.18-.12h.15l.15-.04.25.07h.39l.18-.07.09-.06.04-.07.09-.31.03-.1.06-.1.33-.39.25-.24.57-.42.28-.16.15-.09 1.27-.57.33-.33.18-.18.3-.21.36-.15.3-.24.06-.09.09-.27h.07l.06-.15v-.04l.27-.18h.03l.97-.49h.13l.07-.09.28-.04h.04l.07-.04.06-.1V7.6l.06-.07.03-.18.03-.04.03-.04.07-.06v-.03l-.16.06h.06Z"
  /></svg>
