<?xml version="1.0" encoding="UTF-8"?>
<svg width="40px" height="40px" viewBox="0 0 40 40" version="1.1" xmlns="http://www.w3.org/2000/svg" xmlns:xlink="http://www.w3.org/1999/xlink">
    <title>EC/Icons/Country flags/Square/40x40/EU</title>
    <g id="EC/Icons/Country-flags/Square/40x40/EU" stroke="none" stroke-width="1" fill="none" fill-rule="evenodd">
        <polygon id="Background" fill="#003399" points="2 1 38 1 38 39 2 39"></polygon>
        <path d="M18.9861986,11.1429217 L18.9851271,11.1440169 L19.372944,9.94294056 L18.3590541,9.20167855 L18.3576879,9.2009915 L19.6123423,9.2009915 L19.9996411,8.0015198 L19.9998682,8 L20.3876577,9.2009915 L21.640724,9.2009915 L21.6422306,9.20073926 L20.627056,9.94294056 L21.0143822,11.1424971 L21.0150861,11.143861 L20,10.4017244 L18.9861986,11.1429217 Z M19.372944,30.7989236 L18.3590541,30.0576616 L18.3576879,30.0569746 L19.6123423,30.0569746 L19.9996411,28.8575029 L19.9998682,28.8559831 L20.3876577,30.0569746 L21.6423121,30.0569746 L21.6409459,30.0576616 L20.627056,30.7989236 L21.0148729,32 L21.0138014,31.9989048 L20,31.2577075 L18.9849139,31.9998441 L18.9856178,31.9984802 L19.372944,30.7989236 Z M9.64209882,18.4279915 L10.0298883,19.628983 L11.2845427,19.628983 L11.2831765,19.6296701 L10.2692866,20.3709321 L10.6571035,21.5720085 L10.656032,21.5709133 L9.64223061,20.829716 L8.62714449,21.5718526 L8.62784845,21.5704887 L9.01517463,20.3709321 L8,19.6287308 L8.00150659,19.628983 L9.25457288,19.628983 L9.64187166,18.4295113 L9.64209882,18.4279915 Z M13.8060068,12.5411331 L14.1937963,11.3401416 L13.1787596,10.5980412 L13.1802662,10.5982934 L14.433503,10.5982934 L14.8213199,9.39721703 L14.8215471,9.39873684 L15.2087848,10.5980193 L16.4635002,10.5980193 L16.462134,10.5987063 L15.4481009,11.340073 L15.8358631,12.54098 L15.8347916,12.5398848 L14.8210397,11.7987236 L13.8070783,12.5400379 L13.8060068,12.5411331 Z M11.0294768,13.2156064 L11.029704,13.2140866 L11.4175209,14.4151629 L12.6707577,14.4151629 L12.6722643,14.4149107 L11.6572276,15.1570111 L12.0445264,16.3564828 L12.0452303,16.3578495 L11.0299842,15.6155932 L10.0162323,16.3567543 L10.0151608,16.3578495 L10.402923,15.1569426 L9.38888988,14.4155758 L9.38752369,14.4148888 L10.6422391,14.4148888 L11.0294768,13.2156064 Z M9.38884486,24.8438128 L9.38747867,24.8431257 L10.6424806,24.8431257 L11.029752,23.6437386 L11.0299792,23.6422188 L11.4176887,24.8429625 L12.6710139,24.8429625 L12.6725205,24.8427103 L11.6572744,25.5849638 L12.0444931,26.7841878 L12.0451971,26.7855517 L11.0300225,26.0433504 L10.0159894,26.7847171 L10.0149178,26.7858123 L10.4026462,25.5850101 L9.38884486,24.8438128 Z M16.4637272,28.6596201 L15.4484811,29.4018737 L15.8361906,30.6026174 L15.8351191,30.6015222 L14.8212292,29.8602602 L13.8059113,30.6025662 L13.8066153,30.6012023 L14.193853,29.4019199 L13.1787668,28.6597833 L13.1802734,28.6600355 L14.4336873,28.6600355 L14.8214495,27.4591286 L14.8216767,27.4606484 L15.2088954,28.6598723 L16.4622206,28.6598723 L16.4637272,28.6596201 Z M30.3579012,18.4279915 L30.3581283,18.4295113 L30.7454271,19.628983 L31.9984934,19.628983 L32,19.6287308 L30.9848254,20.3709321 L31.3721515,21.5704887 L31.3728555,21.5718526 L30.3577694,20.829716 L29.343968,21.5709133 L29.3428965,21.5720085 L29.7307134,20.3709321 L28.7168235,19.6296701 L28.7154573,19.628983 L29.9701117,19.628983 L30.3579012,18.4279915 Z M26.1939932,12.5411331 L26.1929217,12.5400379 L25.1789603,11.7987236 L24.1652084,12.5398848 L24.1641369,12.54098 L24.5518991,11.340073 L23.537866,10.5987063 L23.5364998,10.5980193 L24.7912152,10.5980193 L25.1784529,9.39873684 L25.1786801,9.39721703 L25.566497,10.5982934 L26.8197338,10.5982934 L26.8212404,10.5980412 L25.8062037,11.3401416 L26.1939932,12.5411331 Z M27.9547697,16.3578467 L27.9554736,16.3564828 L28.3427724,15.1570111 L27.3290205,14.41585 L27.3276543,14.4151629 L28.5824791,14.4151629 L28.9698053,13.2156064 L28.9700325,13.2140866 L29.3577609,14.4148888 L30.6108883,14.4148888 L30.6123949,14.4146365 L29.597077,15.1569426 L29.9843485,16.3563297 L29.9850524,16.3576936 L28.9700158,15.6155932 L27.9547697,16.3578467 Z M28.970248,23.6437386 L29.3575194,24.8431257 L30.6125213,24.8431257 L30.6111551,24.8438128 L29.5973538,25.5850101 L29.9850822,26.7858123 L29.9840106,26.7847171 L28.9699775,26.0433504 L27.9548029,26.7855517 L27.9555069,26.7841878 L28.3427256,25.5849638 L27.3274795,24.8427103 L27.3289861,24.8429625 L28.5823113,24.8429625 L28.9700208,23.6422188 L28.970248,23.6437386 Z M23.6542273,28.7192318 L23.5361914,28.6598723 L23.5730361,28.6598723 L23.5362728,28.6329944 L23.696811,28.6598723 L24.7911046,28.6598723 L25.1709134,27.4835971 L25.1785505,27.4325029 L25.5663127,28.6334098 L26.8213146,28.6334098 L26.7427385,28.6729252 L26.8212332,28.6597833 L25.8131023,29.3968348 L26.1938754,30.5760964 L26.1654107,30.5470032 L26.1940887,30.6025662 L25.1605616,29.8469473 L24.2563862,30.5079963 L24.1638094,30.6026174 L24.1751951,30.5673558 L24.1635962,30.5758358 L24.1872626,30.5299826 L24.5584742,29.380333 L23.6542273,28.7192318 Z" id="Stars" fill="#FFCC00"></path>
    </g>
</svg>