<?xml version="1.0" encoding="UTF-8"?>
<svg width="40px" height="40px" viewBox="0 0 40 40" version="1.1" xmlns="http://www.w3.org/2000/svg" xmlns:xlink="http://www.w3.org/1999/xlink">
    <title>EC/Icons/Country flags/Square/40x40/greece</title>
    <defs>
        <polygon id="path-1" points="1 39 39 39 39 1 1 1"></polygon>
    </defs>
    <g id="EC/Icons/Country-flags/Square/40x40/greece" stroke="none" stroke-width="1" fill="none" fill-rule="evenodd">
        <mask id="mask-2" fill="white">
            <use xlink:href="#path-1"></use>
        </mask>
        <use id="Mask" fill="#215596" xlink:href="#path-1"></use>
        <g id="Group" mask="url(#mask-2)">
            <g transform="translate(1.000000, 1.000000)">
                <polygon id="Fill-1" fill="#215596" fill-rule="evenodd" points="0 38 38 38 38 7.81597009e-14 0 7.81597009e-14"></polygon>
                <path d="M38,29.9186667 L38,33.7693333 L0,33.7693333 L0,29.9186667 L38,29.9186667 Z M12.1516491,0 L12.151,8.258 L21.75,8.25866667 L21.75,12.1093333 L12.151,12.109 L12.151,21.254 L38,21.2546667 L38,25.1053333 L0,25.1053333 L0,21.2546667 L8.3,21.254 L8.3,12.109 L0,12.1093333 L0,8.25866667 L8.3,8.258 L8.30098246,0 L12.1516491,0 Z M37.95,12.5906667 L37.95,16.4413333 L21.75,16.4413333 L21.75,12.5906667 L37.95,12.5906667 Z M37.95,3.92666667 L37.95,7.77733333 L21.75,7.77733333 L21.75,3.92666667 L37.95,3.92666667 Z" id="Stroke-2" fill="#FFFFFE" fill-rule="nonzero"></path>
            </g>
        </g>
        <path d="M38.9,1.1 L38.9,38.9 L1.1,38.9 L1.1,1.1 L38.9,1.1 Z" id="Fill-1" stroke="#979797" stroke-width="0.2" mask="url(#mask-2)"></path>
    </g>
</svg>