<svg xmlns="http://www.w3.org/2000/svg" id="a" viewBox="0 0 40 40"><defs><style
    >.n,.p,.r,.s,.t,.u,.v,.w,.x{stroke:#000;stroke-linejoin:round}.n,.p,.s,.t,.u,.w,.x{fill:none}.n,.s,.v,.w,.x{stroke-linecap:round}.n,.p,.u,.x{stroke-width:.02px}.v{fill-rule:evenodd}.r{stroke-width:0}.s{stroke-width:.01px}.t{stroke-width:.03px}.v{stroke-width:0}.w{stroke-width:.03px}</style></defs><path
    fill="#cf142b"
    fill-rule="evenodd"
    d="M20 39h19V1H20v38Z"
  /><path fill="#fffffe" fill-rule="evenodd" d="M1 39h19V1H1v38Z" /><path
    fill="#fff"
    fill-rule="evenodd"
    d="m8.91 5-.01.01v2.95a.95.95 0 0 0-.91.94H5.02l-.01.01v3.19l.01.01h2.95c0 .5.46.91.94.91v2.97l.01.01h3.19l.01-.01v-2.95c.48 0 .91-.47.91-.94H16l.01-.01V8.9L16 8.89h-2.95c0-.54-.5-.91-.94-.91V5.01L12.1 5H8.91Z"
  /><path d="M10.72 11.09h.19l.03.01h.08-.11l-.03-.01H10.73Z" /><path
    d="M11.67 11.55v-.01Zm-.4-.16V11.31l-.01-.02h-.01l-.01-.02h-.02l-.01-.01h-.01c-.01 0 0 0 0 0h-.19H11.3l.01.03v.11s0 .01 0 0Z"
    class="r"
  /><path
    d="M10.97 11.32h.04l.03-.02h.15H11.08l-.02.01h-.04l-.01.02h-.02s0-.01 0 0Zm.12.08h.02l.02-.01h.02l.02-.02h.02l.02-.01h.03-.1v.02h-.01l-.01.01Zm.64-.7h-.05s0-.01 0 0h.06s0 .01 0 0Zm.07.11h-.03l-.03-.01-.01-.01v-.04s0-.01 0 0v.04h.01l.03.01h.03s0 .01 0 0Zm.2.31-.03-.01-.02-.02h-.1l-.02.01-.02.02-.02.02h-.01l-.01.03v.02l-.03.01h-.11l-.02-.01-.02-.02-.02-.02-.02-.02-.03-.02-.03-.02h-.02v-.01h.03c.01 0 .02 0 .03.02l.03.02.02.02.02.02.02.02.02.01h.09l.02-.01.01-.01v-.02l.03-.02h.01l.02-.04.02-.02.02-.01h.09l.01.01.02.01.03.02s0 .01 0 0Zm-.48-.3.01.01h.01l.01.02h.04l.01.02h.02l.02.02h.07-.1l-.02-.02h-.01l-.02-.02h-.02l-.01-.02-.01-.01-.01-.01s0-.01 0 0Z"
    class="r"
  /><path
    d="M11.75 10.95v.02h-.03l-.01-.01.01.01h.01v.01l.01.02.01.03h.02l.01.02H11.9v-.01l-.02.01h-.1l-.01-.01-.02-.02h-.01v-.03l.01-.01v-.01l.01.02.02.02.03.01H11.88h-.07l-.03-.01s-.02 0-.02-.02l-.01-.01Zm-.03.05Z"
  /><path
    d="M11.78 10.76v.02l.01.01h.02s0 .01 0 0h-.02l-.01-.01v-.02s0-.01 0 0Z"
    class="r"
  /><path
    d="M11.35 10.96c-.07.03-.12.06-.1.13s.07.09.04.17m-.39.43s-.01-.03-.05-.02h-.1c.03-.03.06-.07.06-.12 0-.06-.07-.13-.13-.12-.03-.03-.11-.06-.16-.04m.9.29s-.05-.2-.3-.07"
    class="s"
  /><path
    d="M11.3 10.91h-.01l-.03.03-.02.02-.03.04v.05s0 .01 0 0v-.04l.02-.03.03-.04.02-.02.03-.02h.02s0 .01 0 0Zm-.23-.07s0 .02-.02.02l-.02.01h-.01v.01s0-.01 0 0h.01l.02-.02v-.01Zm.51.6h-.04l-.02.01h-.04s0-.01 0 0h.06l.02-.02h.01ZM11.59 11.42v-.04h-.02l-.02-.02-.03-.01h-.1l-.02.01h-.02v.01s0 .01 0 0v-.01l.01-.01H11.56l.02.02.01.01v.04s0 .01 0 0ZM11.41 10.96h-.02l-.02.01h-.02l-.01.02v.13l.02.04.02.03.02.02.02.02.02.02.02.02.02.02.01.01h.01l.01.02h.01v.01s0-.01 0 0h-.03l-.02-.02-.02-.02-.02-.02-.02-.02-.02-.02-.02-.02h-.02v-.02l-.01-.02a.08.08 0 0 0-.02-.04s0-.02 0-.03v-.09c0-.01 0-.02.02-.03l.01-.01h.02l.02-.02h.02s0 .01 0 0Zm.56.25h-.02c0-.02 0 0 0 0v.01s0 .02 0 0v.01l-.01.03v.01s0-.01 0 0 .01-.03 0 0v-.04h.02s0 .01 0 0Zm-.07.12-.01.02h-.03s0-.01 0 0h.04s0-.01 0 0Zm-.26.32h.03v-.04.02l-.01.01h-.03s0-.01 0 0ZM11.73 11.51v.07h.02-.01v-.05Z"
    class="r"
  /><path
    d="M11.78 11.47c-.07.05-.19.11-.21.15m-.65-.29v.02s.05-.03.09 0c.08.05.02.1.02.1s.06-.06.12-.03c.04.02.03.07.02.11.02.01.05-.08.09-.13.02.03.07.03.06-.01s-.04-.15-.14-.22c-.04-.02-.05-.03-.02-.05.04-.07-.1-.22-.26-.26"
    class="s"
  /><path
    d="M11.69 11.51h-.02l-.02.02-.01.01h-.02l-.02.03h-.02l-.02.02h-.02l-.02.02h-.03v-.06h-.01l-.01-.01H11.31s0-.01 0 0h.15l.02.02.01.01v.03l.01.02v.02h.02l.02-.01h.02l.02-.02h.02l.02-.03h.02l.01-.02h.04l.01-.01s0 .01 0 0Zm-.42-.34H11.2v-.01h.07s0 .01 0 0Zm-.18-.06v-.06l-.02-.02h-.01l-.01-.03v-.02l-.03-.01-.02-.01h-.02l-.02-.03-.02-.01h-.04l-.02-.01h-.07l-.03-.01H10.59s0-.01 0 0H10.79l.03.01h.03l.02.01h.04l.02.01h.02l.02.01h.02l.02.03v.01h.01l.01.03h.01l.01.03.01.02v.02l.01.01v.05s0 .01 0 0Zm-.45-.13H10.89v.05s0-.01 0 0v-.04H10.65s0-.01 0 0Z"
    class="r"
  /><path
    d="M10.79 11.11h.22v.02H11v-.01h.01-.21s0-.01 0 0Zm.08.24.02.01.02.02h.01v.02l.03.02.02.02.02.03H11.08l-.02.01h-.05l-.02-.01-.02-.02-.03-.02-.03-.02-.02-.02-.02-.02-.02-.02s0-.01 0 0ZM10.85 11.38v.06h.05l.02.02h.03-.05l-.03-.01-.02-.01-.01-.01v-.07ZM10.82 11.48v.11s0 .01 0 0v-.13Zm.13.16H11.37 10.93l-.01-.01s0-.01 0 0Zm-.22.02h-.19l-.02.01h-.03s0-.01 0 0h.05l.02-.01H10.74s0 .01 0 0ZM10.41 11.7s0 .01 0 0c0 0 0-.01 0 0Zm.39 0h-.03v-.04h.03c.01 0 0 0 0 0s0 .01 0 0Zm0 .08h-.09s0 .01 0 0v-.02H10.8s0 .01 0 0Zm-.28-.4h-.01l-.03.02h-.02l-.02.02.02-.02h.02l.03-.03h.02Zm-.23.03h-.01l-.01.03s0 .01 0 0v.05s0 .01 0 0v-.04l.01-.02v-.02l.03-.01s0 .01 0 0Zm-.23.24v.06s0 .02-.02.03h-.02s0-.01 0 0h.01l.01-.01s0-.01 0 0V11.66Z"
    class="r"
  /><path
    d="M10.58 10.93h.15l.04.01h.04l.04.01H11.01v.02-.03H11v-.01h-.03l-.04-.01h-.03l-.04-.01h-.04l-.04-.01h-.2Zm.46.25h-.13H11.02Z"
  /><path
    d="M11.47 11.11v.07l.03.02v.02l.02.01v.04l.01.02v.02V11.22l-.03-.02v-.02l-.02-.02v-.03l.01-.01h.01Z"
    class="r"
  /><path
    d="M11.16 11.24h-.02l-.03.01h-.06l-.03.01h-.03l-.01.01h.01l.01-.01h.06l.03-.01h.03l.03-.02h.02Zm.07.08h-.08l-.01.01h-.01l-.01.02h-.01.01l.01-.02v-.02h.09Zm.02.06-.01.02-.01.02v.04-.05l.01-.02h.01l.01-.03Z"
  /><path
    d="M10.39 11.79h.02-.01ZM10.46 11.79H10.62h-.15l-.01-.01Zm0-.2h.02s0 .01 0 0h-.02Zm-.16-.05.01.02H10.42h-.12v-.02Zm-.17-.03.02-.01h.1-.08l-.02.01h-.02Zm-.18.12.01.01h-.01v-.01Zm-.03.05-.01.02v.01h.04-.06v-.01l.01-.01Zm.06.25v.04l-.02.01h-.03.03l.02-.02v-.04Z"
    class="r"
  /><path
    d="M10.26 11.75H9.9l.94.29s.03.03.02.04h-.05l-.73-.22c.05.08 0 .14-.02.16s-.09.01-.12.01-.04.01-.05.02c-.03.01-.05.02-.06 0 0-.02.02-.08.06-.09.03 0 .08-.01.08-.04s-.09-.02-.16-.05c-.06-.02-.07-.06-.07-.11l-.07-.02h-.4c.33.33.77.51 1.23.51.45 0 .87-.17 1.2-.47a10.5 10.5 0 0 0-.8-.03l-.01.03h-.05c-.01 0-.02.02 0 .02.05 0 .07 0 .07.03 0 .02-.02.03-.05.03-.08 0-.15-.01-.17-.04-.02.02-.22 0-.27-.01s-.06-.03-.06-.05v-.01h-.1Z"
    class="p"
  /><path
    d="M11.44 10.55s-.04 0-.05.02c-.03.02-.19.23-.2.24h.02l.1.02c0-.02.01-.03.03-.05.02-.01.03-.02.02-.04s-.04-.06-.02-.1.04-.07.08-.08.1-.02.08-.03h-.07Zm.28.1s-.04.01-.05.03c-.03.01-.07.04-.06.06s.05.06.06.13c-.03 0-.05 0-.08-.05-.03-.03-.06-.05-.1-.05-.01 0-.03.01 0 .02l.03.02-.01.05a.2.2 0 0 1 .11.09c.03.05.02.11.02.13-.04-.06-.09-.11-.13-.12h-.15c0-.03-.03-.06-.03-.08H11.19c-.02 0-.06-.04-.08-.05s-.12-.03-.14-.02l-.03-.01-.02.05-.29-.05h-.16c-.02 0-.03.04 0 .03s.1 0 .11.03l-.01.06-.04.03s.02.02.06.01.11 0 .12.04V11.09h.09c.02 0 .07.07.03.1-.03.02-.02.05 0 .03s.07-.02.09 0 .02.07-.01.08h-.33c-.11 0-.25.03-.29.08-.07 0-.17 0-.24.02l.07.09.02.03c.02-.02.04-.04.11-.02.03.04.12.09.2.07-.04.04-.07.09-.05.12-.03.01-.04.03-.04.05v.01c0 .02 0 .05.06.05s.25.03.27.01c.02.03.09.05.17.04.03 0 .05-.01.05-.03 0-.02-.02-.03-.07-.03-.02 0-.01-.02 0-.02h.05c.01 0 .03-.03 0-.04s-.06 0-.06-.02c0 0 0-.03.02-.03s.05 0 .05-.02c.05.03.07.05.14.05h.24l.05-.02c.01 0 .07-.03.08-.05 0 .03.02.03.04.02l.11-.07c0 .02.02.07.07.05 0 .02.02.07.06.07.03 0 .12-.1.13-.12v-.05l-.04-.01v-.08l.1-.11.06-.09c.02-.02.04-.04.06-.03l.03.02c0-.01.02-.04 0-.05h-.05c0-.02-.03-.05-.06-.04s-.11.1-.11.11l-.01.04c-.02.02-.12.11-.19.11a.19.19 0 0 0-.03-.09v-.06c-.01-.02-.06-.12-.09-.15.04 0 .07.06.11.09s.13.05.18.01.1-.1.13-.1.06 0 .11.02c.06.02.07 0 .07 0l.03-.01v-.04l-.1-.06a.32.32 0 0 1-.11-.12c.02-.02.03-.05.02-.06h-.03v-.02c-.01 0-.03 0-.03.02l-.03-.04v-.04h-.03c0-.02-.01-.04-.03-.03l-.03-.06h-.01Zm-1.76.86-.02.11c-.06 0-.15.01-.19.09l.14.04h.06c.04.01.13-.03.14-.11h-.02c-.03 0-.06-.04-.07-.07l-.04-.06Zm-.22.26c0 .05 0 .09.07.11.07.03.16.02.16.05s-.05.04-.08.04c-.04.01-.06.08-.06.09h.06c.02 0 .02-.02.05-.02l.12-.01c.02-.01.07-.07.02-.16l-.34-.1Z"
    class="p"
  /><path
    d="m9.35 11.59 1.49.46s.03.03.02.04h-.05l-1.5-.45c-.03 0 0-.08.04-.06Z"
    class="p"
  /><path
    d="M10.75 9.33h-.02.05V9.44l.02.02.02.02.02.02.02.03.02.02.04.02v-.01a.08.08 0 0 1-.04-.02l-.01-.02-.02-.03-.02-.02-.02-.02-.02-.02v-.05.02l.01.02.01.02.03.01h.14v-.01h.01v-.03h.15V9.4h-.16v.01l-.01.01h-.13l-.03-.01-.01-.02v-.1l-.01-.01h-.04Zm.58.03v.02l-.01-.01v-.03s0-.01 0 0Z"
    class="r"
  /><path d="M11.35 9.44h-.05s0-.01 0 0h.03s0 .01 0 0Z" /><path
    d="m10.97 9.91.04.02h.03l.01.01h.02l.03.01h.03l.03.02h.02l.01.02.01.03v.03l.02.03v.03l.02.02s0 .01 0 0v-.05l-.02-.03v-.03l-.03-.03-.01-.01h-.02l-.03-.02h-.03l-.03-.02h-.02l-.04-.02a.08.08 0 0 1-.04-.02s0-.01 0 0Zm.31.41h-.04l-.02-.01-.05-.02h-.03s0-.01 0 0h.03l.05.01.04.02.01.01h.03Zm.08.06h-.11s0-.01 0 0h.11s0 .01 0 0Zm-.06-.22v.06l.02.02v.1s.01 0 0 0v-.03h.01l.01-.01h.01v-.05l.02-.04v-.02h.01l-.01.02v.05h-.03l-.01.02v-.06l-.01-.02v-.06Zm.13.03v.02l-.02.02v.02-.01Zm.15-.09h.13l.05.01.03.01.02.02.03.02.02.02.01.01.01.02h.01v.02s0 .01 0 0h-.01l-.01-.02-.01-.02-.02-.02-.03-.02-.02-.02-.03-.01h-.09l-.03-.01h-.06s0-.01 0 0ZM11.89 10.24h.06v.02l.02.02v.04l.01-.02v-.08h-.07Zm.09.12Zm-1.36-.32.05.02h.02l.03.02h.04l.03.02c.02 0 .04 0 .06.02l.02.01.05.04.02.02v.01h-.02l-.02-.03a.14.14 0 0 0-.04-.03l-.02-.01-.06-.02h-.03l-.07-.03-.06-.03s0-.01 0 0Zm.34.39.01.03.02.03.02.02.03.02H11.16l.06-.01.03-.01h.07v.01h-.1l-.06.03H11.09c-.02 0-.04 0-.06-.02l-.03-.02-.02-.02-.02-.02v-.03s-.01-.01 0 0Zm.42.07.04-.01h.19v.02l-.04-.01H11.42l-.04.01s0-.01 0 0Zm.27.02h.01l.01.01.01.01h.01l.01.02.01.01.02.02.02.02.02.02.01.02v.02l.02.02s0 .01 0 0l-.01-.02v-.02l-.02-.02-.01-.02-.02-.02-.02-.02h-.01l-.01-.02h-.01l-.01-.02h-.02c-.01 0 0-.01 0 0Zm.26.27v.01l.03.01h.02s0 .01 0 0h-.02l-.03-.01-.01-.02s0-.01 0 0ZM11.86 10.72h.02l.02.01.01.01v.02s0 .01 0 0v-.02h-.02l-.02-.03h-.01s0-.01 0 0Zm-1.61-.03v.04l-.04.05-.05.03-.02.03v.02h-.01l-.04.07-.04.05.05-.05.05-.07.03-.06v-.01l.05-.03.04-.05.02-.05.02.01h.02l.05.02h.05-.06l-.07-.01-.03-.01Zm-.06.11-.04.03.04-.03Zm-.18.21Zm0 0Z"
    class="r"
  /><path
    d="M10.35 10.73v.02l-.01.02h-.13s0-.01 0 0h.12v-.03s0-.01 0 0Zm-.26.38v.06l.01.02.02.01h.1l.02-.01H10.58l.04.01.02.02v.02s0-.02-.02-.02l-.04-.01h-.36l-.02.01h-.06l-.02-.01-.02-.01-.01-.02v-.07Z"
    class="r"
  /><path
    d="M10.53 11.2h.08l.01-.01v-.02.01l-.02.03-.02.01h-.06s0-.01 0 0Z"
  /><path
    d="M10.08 10.94v.02l.02.01h.05c.02 0 .04 0 .05-.02l.03-.01-.03.02h-.02l-.04.02h-.04l-.02-.02-.01-.03Zm-.06-.02-.01.02-.02.01h-.02l-.02.03h-.02l-.02.03h-.02l-.03.04-.02.02v.04-.02c0-.01 0-.02.02-.03l.03-.03.03-.02h.02l.02-.02.02-.02H10l.02-.02.02-.01.01-.02s0 .01 0 0Zm-.47-.4v.06l.02.02.02.03c0 .02.02.03.04.04h.01l.08.05.04.02h.2v-.01s0 .01 0 0l-.04.01H9.77l-.04-.02-.08-.04a.12.12 0 0 1-.05-.05l-.02-.03v-.02l-.02-.03v-.03s0-.01 0 0ZM9.75 10.79l.05.04.07.03h.1c.03 0 .05-.02.07-.03l.04-.02v.01l-.04.02-.07.03h-.1l-.07-.03-.05-.04s0-.01 0 0Zm.35.83.02.02.01.02v.03l.02.01v-.01l.01-.01v-.08h-.01v.04-.03l-.03-.02-.02-.02Zm.04.09Zm-.16-1.54.02.02.03.02h.01l.03.02v.08s0 .01 0 0v-.08l-.03-.01-.04-.03-.02-.03s0-.01 0 0ZM10.24 10.71l-.02-.02-.02-.03-.01-.02-.03-.02h-.03l-.02-.02h-.02V10.42s0-.01 0 0V10.59h.04l.03.02.03.02.02.02.02.03.01.03s0 .01 0 0Zm-.51.54h.04l.02.01.02.01h.01l.01.02v.02l.01.03.02.02v.02l.02.02.01.02.02.02.02.02.02.02v.02l.02.02v.07-.1l-.03-.02-.02-.02-.02-.02v-.02l-.02-.02v-.02l-.03-.02v-.02h-.02v-.02h-.01l-.01-.02h-.02l-.02-.02h-.02l-.02-.01s0-.01 0 0Zm-.48-.72-.04-.01h-.04l-.04-.01h-.06l-.03.02s0 .01 0 0v.05l.01.02v.02l.02.02v.02l.02.01.01.01s0 .01 0 0h-.01l-.02-.02v-.02h-.01l-.01-.03-.01-.02v-.05l.02-.04.03-.02h.14l.04.02s0 .01 0 0Zm-.04.26.02.03v.02l.02.02v.02l.02.03v.13l-.01.03v.01V10.88l-.02-.02h-.01l-.02-.04Zm-.08.29-.02.03-.01.04v.03l.01.02v.02l.02.02V11.33h-.01s0 .01 0 0v-.02l.02-.02v-.05l-.01-.02v-.02l-.02-.02v-.03l.01-.04.02-.03s0-.01 0 0Zm-.06-.2.01.01.01.03V11.06s0 .01 0 0v-.02l.01-.03v-.12l-.01-.02s0-.01 0 0Zm2-1.61v.03l.01.02.02.01h.02l.03.02h.04l.03.02h.02l.01.01v.01s0 .01 0 0v-.01l-.01-.01h-.05l-.04-.02c-.01 0-.02 0-.03-.02h-.02l-.02-.02-.01-.02v-.02l.01-.02s0 .01 0 0Zm-.11-.02-.02-.01-.02-.01h-.01c.01-.02 0 0 0 0v.01h.03s0-.01 0 0v.01c0 .01 0 0 0 0v.01h-.05l-.02-.02v-.01l.01-.01h.01l.02.01.02.02Zm-.06.06h.03l.06.03.04.02.01.02-.01-.01-.04-.02-.06-.03h-.03Zm-.19.03-.01.01-.01.03v.03l-.04.05-.02.04v.04l-.02.04v.06-.07l.01-.03V9.5l.03-.04.02-.04v-.03h.02v-.02Zm-.11.32v.02-.02Zm0 .05v.09-.1Zm.02.13v.05l.01.03v.01-.04l-.01-.02v-.02Zm1.45.47.02.02.02.02V10.42v-.08l-.02-.02-.02-.02Zm-.84.08-.04.03-.04.02h-.02.02l.04-.02.04-.03Zm.74.37.03.03.02.02.03.02.02.02.01.02v.01h-.01.01l-.01-.02-.02-.02-.03-.02-.02-.02-.03-.03Zm-1.86-.47h.26l.05.01h.14l.04.02.02.02v.05-.04l-.02-.02h-.14l-.05-.02h-.05l-.07-.01h-.19Zm.7.33-.04.02-.04.01h-.05s-.04.03-.07.03h-.26l-.04-.02h-.03.01l.05.01h.07l.11.01H10.67l.05-.03.04-.01.04-.02Z"
    class="r"
  /><path
    d="M10.12 10.56h.03l.03.02c.01 0 .02 0 .03.02l.03.04.02.03-.02-.03-.03-.04-.03-.02-.03-.01h-.03v-.01Zm.6.64.02.03.03.02.02.03.01.03v.01h-.06s0-.01 0 0h.06l-.01-.03-.02-.03-.03-.02-.02-.03Zm-.5.45.02.02.02.02.01.01h.04l-.01.01h-.09s0-.01 0 0H10.3h-.04l-.01-.02-.02-.02-.02-.03Zm-.47-.55-.02.03V11.19l.02.02-.02-.02v-.05l.02-.02.02-.03Zm-.22-.68v.16l.01.02.02.02-.02-.02-.01-.02v-.02l-.01-.03v-.1l.02-.03Zm-.53.1v.02l-.03.04v.09l.01.05.03.03.02.02h.01v.01h-.01l-.02-.03-.03-.03-.01-.04v-.09l.02-.04.02-.03Zm.21.59v.12l-.01.02-.02.01h.02V11.11Z"
    class="r"
  /><path
    d="m10.67 9.19.04.04m-.06 0 .03.03m-.05 0 .03.03m-.06.01.03.03m-.06-.01.04.04m-.07-.02.05.05m-.07-.02.06.05m-.1-.02.1.05m-.11-.01.1.04m-.11 0 .11.02m-.11.03h.1m-.11.03h.11m-.11.03h.11m-.11.04.11-.01m-.05.09h.05m-.05.04.05-.01m-.09.07h.01m.04-.02.04-.01M10.5 9.77l.05-.01m-.08.08h.03m-.02.04.08-.02m-.08.06.09-.02m-.09.06.09-.03m-.09.07.09-.04"
    class="v"
  /><path
    d="M11.16 9.51h.04l.09.02s.03-.04.02-.05c-.04-.02-.05-.04-.06-.06.05 0 .1.02.11.01s.03-.03.01-.06c-.01-.02-.05-.02-.07-.03-.03-.01-.18-.08-.21-.11s-.1-.04-.13-.04l-.08-.04-.05-.1h0s-.03.11-.05.13a.48.48 0 0 0-.17.21c-.01.03-.04.13-.05.22m0 .08v.03l.01.07m.41-.18-.04-.03.01-.09c.07 0 .12-.02.14-.03l.04.03m-.55.36v.06s.02.07-.04.09l-.09.03.17.05.1.03c.02 0 .04.01.05.05l.08.19.16.23.02.03.08-.02.28-.07c.04-.02.1 0 .13 0 .04 0 .06 0 .1.02s.13.09.15.14l.05.06c.01 0 .05-.01.07.01v.08l.17.05c.05.02.08.02.06 0l-.16-.17-.26-.26c-.03-.04-.08-.06-.15-.07s-.18 0-.18 0v-.04c.05-.04.11-.14.13-.17.04-.03.09-.06.12-.05l.24.11c.02.02.03.05.04.04h.06c.02.03.01.05.01.05-.02.02-.02.04 0 .05s.05 0 .09.03l.09.04s.01-.08-.02-.12-.06-.11-.12-.14l-.31-.17s-.11-.02-.16 0c-.07.02-.16.12-.23.13a.23.23 0 0 0-.1-.14.74.74 0 0 0-.18-.32m-.97.49-.06.02a.76.76 0 0 0-.26.08l.23.23v.08l-.07-.02-.24-.25a.35.35 0 0 0-.15.17c-.04.02-.14.04-.27-.02-.09-.04-.27.02-.29.18-.01.12.07.21.12.25s.02.1 0 .13-.04.13 0 .16.07.07.06.12c-.02.07 0 .11.04.07l.1-.08c.03-.02.03-.1 0-.14l-.01-.07c.07-.06.12-.11.06-.18s-.19-.18-.2-.21c-.01-.04 0-.12.05-.14.04-.01.1 0 .15.02s.16.02.18.01c.06.12.15.21.2.25l.1.08c.01.02.02.04 0 .08l-.11.19s-.02.06 0 .07l.16.14c.04.03.15.18.16.21s.04.07.07.07.05.03.05.04c0 .04 0 .05-.02.07h.26c-.03-.03-.07-.06-.09-.11l-.15-.13-.22-.24c-.07-.06-.06-.13-.01-.18l.12-.08s.02.08 0 .13 0 .1.05.1h.12l.06-.01.24.02c.04.02.07.01.1 0 .03 0 .05.04.05.08h.2l-.04-.05-.06-.07c-.04-.02-.08-.06-.11-.06h-.14c-.04 0-.22 0-.24-.02s-.02-.06 0-.1a.56.56 0 0 0 .16-.28l.32-.05.15-.03h0s-.14-.1-.16-.14l-.1-.2c-.02-.02-.09-.05-.18-.03-.03 0-.09 0-.16-.03-.04-.01-.13 0-.16-.03-.03-.02-.09-.04-.09-.07h0Z"
    class="x"
  /><path
    d="M10.55 9.62c.01-.09.04-.19.05-.22.01-.04.1-.17.16-.2l-.05-.04s0 0 0 0h0s-.04 0-.03.02h-.03s0 0 0 0l.02.02h-.03v.04h-.01v.02h-.04l-.01.01.03.02h-.03v.01l.02.01h-.02s0 0 0 0v.01s0 0 0 0h-.01v.02s0 0 0 0 0 0 0 0c-.03 0-.06.02-.05.03-.01 0-.03.03-.01.03-.02.01-.03.03 0 .04-.03 0-.04.05 0 .05-.02.01-.04.03-.02.04a.03.03 0 0 0 0 .04c-.01 0-.02.04 0 .04v.03m.05.02s0 0 0 0v.08m.06.02v-.07l-.01-.03m-.1.08s0 0 0 0h0s0 0 0 0h0Zm.01 0h0v.03c-.02.01 0 .03.01.02 0 .02-.02.04 0 .04-.03.02-.02.04 0 .04-.02.01-.03.03 0 .03v.04c-.01.01-.02.01 0 .02h.04c.05-.03.06-.07.05-.1l-.01-.06"
    class="x"
  /><path
    d="m11.17 9.44-.09.1c-.04.03-.09.08-.16.12l-.2.1s-.14.05-.18.05c-.02 0-.04-.02-.05-.03 0 0 0 0 0 0h-.03c.03.05.08.06.11.06s.12-.02.2-.06c.08-.03.23-.12.29-.17s.12-.13.15-.17m-.63.18s-.08 0-.1.02a.05.05 0 0 0-.03.05H10.51l.08.01c.02.01.05.02.06-.02.01-.03-.01-.05-.04-.05h-.03 0Zm-.02.03s.07 0 .05.02-.02 0-.04 0h-.09c-.01.01-.01 0 0 0l.07-.01Z"
    class="n"
  /><path
    d="M9.08 9.66h.03l.01.03v.02h.02l.05-.02h.1l.07-.04h.01l.02-.01h.02l.02-.01h.12v.01H9.43l-.03.01h-.04l-.01.02h-.01l-.03.02h-.02l-.01.02h-.01l-.03.02h-.12v-.04l-.03-.01v-.01Zm.67-.42h.08v.01h-.08v-.01Zm.11.02h.13v.01h-.13v-.01Zm-.48.08h.1v.01H9.39v-.01Zm-.17.12h.03l.02.02.03.01h.02l.01.02.02-.01.04-.02.05-.01H9.64l.03-.01h.03l.02-.01h.01v.01h-.01l-.02.01h-.06l-.03.01h-.22v.01l-.03.01h-.02v.01h-.02l-.03-.02h-.02l-.01-.02h-.01v-.01Z"
    class="r"
  /><path
    d="m9.43 9.31.01-.01H9.5l.01.02.01.02.01.01.01.01.02.02v.03l.02-.02h.01l.06-.01h.05l.03-.01h.1v.01h-.09l-.04.01h-.05l-.02.02H9.6l-.02.02-.01-.02-.02-.02h-.01l-.01-.02v-.02h-.02l-.01-.01H9.44Zm-.22.26v.03l-.01.03-.01.02v-.01l.01-.03v-.04Zm-.32.42h.08l.04.01h.03l.01.01v.02-.01l.04-.05.07-.05.03-.03.02-.02.02-.02.03-.03.04-.03.02-.02.03-.01.04-.02.03-.01h.02v.02l-.02.01h-.03l-.01.02-.03.02h-.02l-.03.03-.03.03-.03.02-.02.02-.02.02-.04.03-.07.05h-.02v.02l-.01.01v.01-.02h-.04l-.03-.01h-.08V10Z"
    class="r"
  /><path
    d="M10.56 9.27h.01-.03.02Zm-.15.05h-.02l-.02.01-.01.02-.01.02v.07-.09l.01-.02.01-.02.02-.01h.02Zm-.49.2V9.5h-.01.04l.03-.02.03-.02.02-.02h.02v-.01l-.02.01-.02.02-.03.02-.03.02-.03.01h-.01.01c.01 0 0 0 0 0v.02Z"
  /><path
    d="M10.22 9.26v.02l-.01.01v.13l.02.03s0 .02.02.02h.01s0 .02.02.03l.03.02h.02l.02.02h.03-.05l-.02-.01-.03-.02v-.02h-.01l-.02-.04-.01-.03V9.4l-.02-.03v-.11Zm-.28.26v.05l.01.01v.02l.02.02.02.02.02.01.04.02h.04v.01h-.03l-.04-.02-.03-.02-.02-.02V9.6l-.02-.02v-.07ZM10.16 9.7h.11v.01h-.11Z"
    class="r"
  /><path d="M10.36 9.65h-.04l-.02.02h-.02l.01-.01h.04l.02-.02h.02Z" /><path
    d="M10.02 9.8h.02l.07.01h.05s0 .01 0 0h-.15Zm.18.02h.04l.02.01.02.02v.01-.04l-.02-.01h-.03Zm.15.2h-.1l-.01-.01-.02-.01h.05l.03.02h.03Zm-.29-.06h.05l.03-.02v.01H10.07Z"
    class="r"
  /><path d="m9.55 9.97-.01.02v.04-.07h.02Z" /><path
    d="M9.36 10.05h.02v-.02.01h-.01v.01Zm.03.02h.01l.01-.02-.01.02Zm.02.02.02-.02.02-.02v-.02.02l-.02.02v.01Z"
    class="r"
  /><path d="M9.74 9.65V9.6v.01s0-.01 0 0v.04Z" /><path
    d="m9.82 10.41.01.01h.01l.01.02v.02l.02.01.01.01-.01-.01h-.01l-.01-.03-.01-.01h-.01l-.01-.03Zm-.29-.3.02.02h.01l.01.03.01.01h.01v.02l-.01-.02h-.01l-.01-.02h-.01l-.02-.04ZM9.64 10.22l.04.04.04.04.01.01.01.01s0 .01 0 0h-.01l-.01-.02-.04-.04-.04-.04Z"
    class="r"
  /><path d="M10.47 9.72h-.02.03Zm0 .02h-.03.04ZM10.47 9.76h-.02.02Z" /><path
    d="M10.06 10.14h.06l.02.01h.04l.01.01.01.02v.01h.04l.02.01H10.52v.02h-.06v-.01H10.21l-.02-.02-.01-.01h-.01v-.01h-.1Zm.71.41.01.01v.01l.02.01.02.01h.02v.01h.01-.03l-.02-.02h-.02l-.02-.02-.02-.01Zm.14.1h-.01v-.01Zm-.95-1.56h.06-.05Zm.14.02h.04l.02.01h-.05Zm.24-.07-.01.01v.08s0 .01 0 0v-.1h.01Zm-.06.11V9.1v.05Z"
    class="r"
  /><path
    d="M10.39 9.14h-.08H10.41v.03-.04l-.01-.01h-.03Zm.27.02h-.01c-.01 0 0 0 0 0H10.59 10.66s0 .01 0 0Z"
    class="r"
  /><path
    d="M10.5 9.27v.01l-.01.02h-.03.03l.01-.01v-.02Zm.03.04h-.01Zm-.18-.09v.05l-.01.05-.01.02-.02.02v-.02l.02-.02.01-.03v-.07Z"
  /><path
    d="M10.07 9.42v.01l.02.05.04.05.02.02.02.01h.03v.02h-.03l-.02-.02-.03-.02-.03-.05-.02-.04-.01-.03Z"
    class="r"
  /><path
    stroke="#000"
    stroke-linejoin="round"
    stroke-width="0"
    d="m10.91 10.45-.19.06c-.02 0-.02.02 0 0l.19-.06Zm.02.03-.18.05v.01l.18-.06Zm.08.13-.14.02h.06l.06.11-.05-.1h.07v-.02Z"
  /><path d="M11.02 10.63v.1V10.62Z" class="r" /><path
    d="M11.2 10.82h.08-.09Zm-.78-1.35v.08-.08Zm-.03.12v.03-.03Z"
  /><path
    d="M10.7 10.15v.03l.01.01h.02l.01.02v.05-.07h-.03l-.01-.01v-.03Zm-.16.56V10.77v-.05Zm.11-1.6h-.02l-.02-.02-.02-.01v-.02l-.01-.02-.02-.02H10.45l-.02.02-.02.01-.01.01.01-.01.02-.01H10.55l.02.01.02.02.01.02v.02l.02.01.02.02h.02Z"
    class="r"
  /><path
    d="M10.77 9.05c-.05 0-.08 0-.08.05-.02.01-.07-.02-.07-.06-.01-.04-.04-.07-.09-.07s-.15.03-.17.09v.08h-.05c0 .02 0 .04-.02.04s-.11-.05-.12-.07h-.08c-.02.01-.07 0-.09-.01h-.11c-.03 0-.04-.04-.01-.05s.11 0 .13 0l.07-.02h.09l.05.02c.02.01.08 0 .12-.04s.1-.12.19-.12.17.04.19.08c.03.04.07.04.07.07Z"
    class="p"
  /><path
    d="M10.52 8.97c-.05 0-.15.03-.17.09v.08h-.05v.04h.08c.02 0 .04 0 .05.02v.03c-.01.03-.01.06.03.06s.05-.03.06-.05l.04-.04c0-.04.05-.03.08-.03s.02-.03.03-.03c.03.01.04-.04.03-.06-.02.01-.07-.02-.07-.06a.09.09 0 0 0-.09-.07Z"
    class="u"
  /><path
    d="M10.6 9.19s-.04 0-.04.03c0 .02-.03.02-.04.04s-.02.05-.06.05-.04-.03-.03-.06c0-.02 0-.04-.02-.05h-.09c0 .02 0 .05-.02.06h-.06l-.11-.06-.09.05a1.8 1.8 0 0 0-.31.27c-.06.04-.09.08-.13.12s-.14.24-.17.32c-.05.02-.08.07-.09.08s0 .03.02.03c0 0 .01.03.03.03 0 0 .02.03.03.02 0 0 0 .03.02.03s.12-.11.12-.11l.03-.15c.02-.03.13-.15.16-.23l.06-.05c.02 0 .09-.03.13-.07-.02.11.02.19.07.27-.01.07 0 .12.04.18v.18c0 .03.06.05.09.07.03.02.12.01.16.03l.16.03c.09-.01.15.01.18.03s.08.15.1.2.13.11.16.14.04.08.04.12 0 .05.04.04l.14.02.08.05h.12c.03 0 .03-.04.01-.04l-.1-.02c-.03-.01-.11-.07-.14-.11l-.06-.12-.16-.23a1.54 1.54 0 0 1-.08-.19c-.01-.03-.03-.04-.05-.05l-.1-.03c-.02 0-.1-.04-.17-.05-.07-.01-.08-.02-.09-.07v-.31l.02-.02v-.1c0-.04-.02-.1-.01-.13l.06-.08c.02-.02.02 0 .03 0l.04.03h.02c0-.01 0-.03.02-.04l.01-.01v-.01l.01-.02h.03l.01-.08h-.03Z"
    class="p"
  /><path
    d="M9.81 9.2s-.07.02-.09.05l-.19.02h-.12c-.03 0-.05.03-.05.05v.07l-.09.03c-.05 0-.1.05-.1.08s.02.09-.01.1-.11.03-.13.06-.02.12-.02.16l-.16.15c-.02.01 0 .03.03.06s.16.13.22.13l.08-.06.15.04h.06v-.02h-.02c-.01 0 0 0 0 0v-.03h.02c-.02 0-.05-.02-.05-.05l.04-.04c.02 0 .04.03.05.05h.01v-.01h.02V10l.03-.04.05-.1.05-.09.02-.03.02-.02.06-.06.03-.03.04-.03.03-.03.03-.03.04-.03.04-.03.18-.14.03-.02h-.06l-.18-.03Zm.12.33-.13.07-.03.03h-.01l-.01.02v.03l-.02.03v.03l-.02.03-.07.09.14-.1c.08-.05.11-.07.21-.09v-.15Z"
    class="p"
  /><path d="M10.49 9.74v.04h-.07V9.7h.07v.04Z" class="u" /><path
    d="M9.34 9.92s-.05.03-.04.04c0 .03.04.04.05.05l.04-.04c0-.03-.03-.05-.05-.05Zm.21.11-.12.11s0 .04.02.03l.13-.11a.02.02 0 0 0-.03-.03ZM9.49 10.14l.39.4.08.02v-.08l-.41-.39-.05.05ZM10.59 10.7l-.14.02v.03l.02.05h.15c-.03-.03-.03-.05-.02-.1Z"
    class="p"
  /><path
    d="M10.44 9.68v-.03c-.02 0 0-.03 0-.04v-.04c-.02 0 0-.03.02-.04-.03 0-.02-.05 0-.05-.02 0-.01-.02 0-.03v-.02l-.05-.05h0l-.03.04c0 .04.02.09.01.13v.01c0 .03 0 .08.02.1l.01.04h.01"
    class="n"
  /><circle cx="10.5" cy="10.5" r="1.77" class="t" /><circle
    cx="11.55"
    cy="12.26"
    r=".09"
  /><circle cx="9.45" cy="12.26" r=".09" /><path
    d="M10.5 12.5h.03c.01 0 .02 0 .02.02l.02.02v.06c0 .01 0 .02-.02.02 0 .02-.01.02-.02.02h-.06c-.01 0-.02 0-.02-.02a.02.02 0 0 1-.02-.02v-.06c0-.01 0-.02.02-.02 0 0 0-.02.02-.02h.03Z"
  /><path
    d="m10.43 12.37-.06.03c-.03.02-.06.04-.05.08.01.04.05.02.06.06s-.05-.01-.08.01c-.04.02-.02.06 0 .09s.02.07.06.07c.04 0 .03-.04.07-.04s-.03.04-.02.08c.01.04.05.04.09.04s.07 0 .09-.04c.01-.04-.03-.04-.01-.08s.03.04.07.04c.04 0 .05-.03.06-.07s.03-.07-.01-.09c-.04-.02-.05.01-.08-.01s.05-.02.06-.06c.01-.04-.01-.06-.05-.08s-.06-.05-.09-.02c-.03.03 0 .05-.04.07s0-.05-.03-.07l-.03-.01Zm.01.05.02.01c0 .02 0 .05.03.06s.03-.04.03-.06c0-.02.03-.01.06 0 .03.02.05.04.03.06-.02.01-.05.01-.04.05s.04.02.07.02c.02 0 .02.03.01.06-.01.04-.03.06-.05.04-.02-.01-.03-.04-.06-.03s0 .05 0 .07c0 .02-.02.03-.06.03-.04 0-.06 0-.06-.03 0-.02.03-.04 0-.07s-.04.01-.06.02c-.02.01-.03 0-.05-.04-.01-.04-.01-.06.01-.06s.05.02.07-.01-.03-.04-.04-.06c-.02-.02 0-.04.03-.06l.05-.02Z"
  /><path
    fill-rule="evenodd"
    d="m10.5 12.3-.02.01v.12-.12l-.02-.01Zm-.25.18-.01.01v.02l.11.04-.11-.04Zm.51 0-.11.04.12-.04v-.02l-.01-.02Zm-.23 0h-.04v.02h.04v-.02Zm-.11.05v.02l-.01.02h.02v-.03h-.02Zm.18 0h-.02v.04h.02l-.01-.02v-.02Zm-.15.1v.04-.02l-.01-.02Zm.12 0c0 .02-.01.02-.02.02l.01.02v-.01h.02v-.02Zm0 .05.07.1h.02v-.02l-.07-.1Zm-.16 0-.07.1v.02h.02l.07-.1Z"
  /><circle cx="10.5" cy="10.5" r="2.37" class="t" /><path
    id="b"
    d="m12.76 8.97-.13.13c-.3-.12-.42-.2-.53-.4s-.15-.43-.15-.59c.26 0 .51.08.66.23.15.15.27.4.29.48l-.07.04a.76.76 0 0 0-.2-.43c-.14-.14-.42-.26-.5-.17s-.05.25.03.4.34.3.42.32l.09-.11.09.11Z"
    class="w"
  /><path
    id="c"
    d="m12.63 8.43-.05-.04a.95.95 0 0 1-.33.13c0-.1.03-.2.06-.28l-.09-.02c0 .09-.05.32-.09.39l.02.04s0 0 0 0c.12-.07.34-.16.49-.2l-.03-.03h0Z"
    class="w"
  /><path
    id="d"
    d="M12.72 8.55c-.09.1-.22.22-.35.32l.08.05c.09-.1.22-.24.31-.3l-.04-.07Z"
    class="w"
  /><path
    id="e"
    d="m12.03 12.76-.13-.13c.12-.3.2-.42.4-.53s.43-.15.59-.15c0 .26-.08.51-.23.66-.15.15-.4.27-.48.29l-.04-.07a.76.76 0 0 0 .43-.2c.14-.14.26-.42.17-.5s-.25-.05-.4.03-.3.34-.32.42l.11.09-.11.09Z"
    class="w"
  /><path
    id="f"
    d="m12.57 12.63.04-.05a.95.95 0 0 1-.13-.33c.1 0 .2.03.28.06l.02-.09c-.09 0-.32-.05-.39-.09a.08.08 0 0 0-.04.02s0 0 0 0c.07.12.16.34.2.49l.03-.03h0Z"
    class="w"
  /><path
    id="g"
    d="M12.45 12.72c-.1-.09-.22-.22-.32-.35l-.05.08c.1.09.24.22.3.31l.07-.04Z"
    class="w"
  /><path
    id="h"
    d="m8.24 12.03.13-.13c.3.12.42.2.53.4s.15.43.15.59a.95.95 0 0 1-.66-.23c-.15-.15-.27-.4-.29-.48l.07-.04c.02.13.06.28.2.43.14.14.42.26.5.17s.05-.25-.03-.4-.34-.3-.42-.32l-.09.11-.09-.11Z"
    class="w"
  /><path
    id="i"
    d="m8.37 12.57.05.04a.95.95 0 0 1 .33-.13c0 .1-.03.2-.06.28a.3.3 0 0 1 .09.02c0-.09.05-.32.09-.39a.08.08 0 0 0-.02-.04s0 0 0 0a2.4 2.4 0 0 1-.49.2l.03.03h0Z"
    class="w"
  /><path
    id="j"
    d="M8.28 12.45c.09-.1.22-.22.35-.32l-.08-.05c-.09.1-.22.24-.31.3l.04.07Z"
    class="w"
  /><path
    id="k"
    d="m8.97 8.24.13.13c-.12.3-.2.42-.4.53s-.43.15-.59.15c0-.26.08-.51.23-.66.15-.15.4-.27.48-.29l.04.07a.76.76 0 0 0-.43.2c-.14.14-.26.42-.17.5s.25.05.4-.03.3-.34.32-.42a8.48 8.48 0 0 1-.11-.09l.11-.09Z"
    class="w"
  /><path
    id="l"
    d="m8.43 8.37-.04.05c.05.07.12.24.13.33-.1 0-.2-.03-.28-.06l-.02.09c.09 0 .32.05.39.09l.04-.02s0 0 0 0a2.4 2.4 0 0 1-.2-.49l-.03.03h0Z"
    class="w"
  /><path
    id="m"
    d="M8.55 8.28c.1.09.22.22.32.35l.05-.08c-.1-.09-.24-.22-.3-.31l-.07.04Z"
    class="w"
  /><path
    d="M8.59 11.78a1.1 1.1 0 0 0-.16-.24l.07-.04c0 .06.09.18.09.18l.13-.08a.9.9 0 0 0-.09-.12.28.28 0 0 1 .08-.04c0 .03.02.08.07.13 0 0 .12-.06.16-.11l.05.08c-.06.01-.31.17-.39.25Zm-.16-1.09c-.14.02-.21.14-.18.27s.14.22.27.2.2-.14.18-.28-.13-.22-.27-.19Zm.02.08c.11-.02.2.03.22.12s-.05.17-.16.19-.2-.05-.21-.12.05-.17.16-.18Zm.28-.83h-.01a.92.92 0 0 1-.23.2.14.14 0 0 0-.11-.11c-.06 0-.12.04-.13.07l-.03.22c.11 0 .36 0 .45.04v-.1l-.17-.01v-.04l.13-.1c.02-.01.11-.1.12-.17 0 0 0-.02-.01-.01Zm-.27.33c-.05 0-.16 0-.19-.02.01-.1.04-.14.1-.14.05 0 .1.03.09.15Zm.47-1.37.05.05c-.1 0-.22.1-.22.18 0 .04.02.1.07.14s.11.05.16.05.12-.07.12-.1-.08-.13-.13-.13L9.06 9c.02.05.11.12.14.13-.04.09-.08.17-.17.22s-.19.04-.28-.04c-.08-.08-.05-.23 0-.29.06-.07.15-.12.18-.12Zm.54-.44v.33s.02.12 0 .19l.1-.07-.03-.13.17-.09s.08.05.07.11l.14-.06c-.08-.03-.18-.11-.18-.11l-.26-.18Zm.05.1.15.1-.15.08v-.18Zm.78-.32c-.02.08-.02.24 0 .37.1 0 .18-.04.22-.08v.11l-.32.02c0-.15 0-.33-.05-.41h.14Zm1.71 1.2-.05-.08c.07 0 .29-.15.39-.22l.02.03-.08.44c.08-.04.22-.11.25-.15l.06.09c-.1 0-.27.08-.4.17V9.7l.05-.43s-.22.11-.24.17Zm.67.64c0-.06 0-.11-.04-.12v-.03h.08c.03.07.07.31.07.37l-.08.01v-.16c-.12.01-.33.05-.36.09l-.02-.11s.26 0 .37-.04Zm-.55 1.27-.07.11c.05 0 .12.04.18.08.02.05.09.19.08.32l.09-.15s-.08-.04-.11-.18c.12-.04.2-.05.24-.03l.08-.13a.9.9 0 0 1-.34.09c-.04-.02-.14-.06-.16-.12Zm-.27-2.7-.29.16s-.1.06-.18.06l.11.06.11-.08.15.11s-.01.09-.07.11l.11.1.01-.21.05-.31Zm-.07.09-.03.18-.14-.1.16-.08Zm-.74-.45a.97.97 0 0 0-.1.36c.1.02.19.02.23-.01l-.03.11-.32-.08c.05-.14.09-.31.08-.41l.13.03Zm1.22 2.76h.01c.05-.07.15-.14.23-.2.01.06.06.1.11.11.06 0 .12-.04.13-.07l.03-.22c-.11 0-.36-.01-.45-.05v.1l.17.01v.04l-.13.1c-.02.01-.12.1-.12.17v.01Zm.28-.33c.05 0 .16 0 .19.02-.01.1-.05.14-.1.14s-.1-.04-.09-.15Z"
  /><path
    fill="none"
    stroke="#cf142b"
    stroke-miterlimit="3.95"
    stroke-width=".19"
    d="M16 8.89h-2.96c0-.54-.5-.91-.94-.91V5H8.89v2.96a.95.95 0 0 0-.91.94H5v3.21h2.96c0 .5.46.91.94.91V16h3.21v-2.96c.48 0 .91-.47.91-.94H16V8.89Z"
  /><path
    fill-rule="evenodd"
    stroke="#000"
    stroke-linejoin="round"
    stroke-width="0"
    d="m9.21 5.3-.01.01v3.18l.01.01.01-.01V5.32h2.56v3.17l.01.01.01-.01V5.31l-.01-.01H9.21ZM5.32 9.19l-.01.01v2.58l.01.01h3.2l-.02-.02H5.32V9.21H8.5v-.02H5.31Zm7.17 0 .02.02h3.18v2.56h-3.18v.02h3.19l.01-.01V9.2l-.01-.01h-3.2Zm-3.27 3.3-.01.01v3.18l.01.01h2.58l.01-.01V12.5l-.01-.01-.01.01v3.17H9.23V12.5l-.01-.01Zm-.18-7.37-.01.01v3.15l.02.02V5.14h2.92v2.97h.02V5.13l-.01-.01H9.03Zm2.94 3.19v.32l.02.02v-.23l-.02-.11Zm-2.92.2-.02.05v.09l.02-.02v-.12Zm-3.9.5-.01.01v2.95l.01.01h3.15l.02-.02H5.17V9.04h2.97v-.02H5.16Zm3.28 0-.1.02h.32l.02-.02h-.24Zm3.93 0 .02.02h.12l-.05-.02h-.09Zm.37 0-.02.02h3.16v2.92h-2.97v.02h2.98l.01-.01V9.01L15.89 9h-3.15Zm-4.2 2.95.05.02h.09l-.02-.02h-.11Zm3.85 0-.02.02h.28l.07-.02h-.33Zm-.38.38-.02.02v.12l.02-.05v-.09Zm-2.97 0v.28l.02.06v-.32l-.02-.02Zm2.95.35v3.16H9.07v-2.97h-.02v2.98l.01.01h2.95l.01-.01v-3.15l-.02-.02Z"
  /></svg>
