<svg xmlns="http://www.w3.org/2000/svg" id="a" viewBox="0 0 40 40"><defs><style
    >.p,.q,.r,.s,.t,.u,.v,.w,.x{stroke:#000;stroke-linejoin:round}.t{fill-rule:evenodd}.p,.r,.s,.u,.v,.w,.x{fill:none}.p,.v{stroke-width:.01px}.q{stroke-width:0}.r{stroke-width:.02px}.r,.s,.t,.u,.v{stroke-linecap:round}.s,.w{stroke-width:.01px}.t,.u{stroke-width:0}.x{stroke-width:.02px}</style></defs><path
    fill="#cf142b"
    fill-rule="evenodd"
    d="M20 33h19V7H20v26Z"
  /><path fill="#fffffe" fill-rule="evenodd" d="M1 33h19V7H1v26Z" /><path
    fill="#fff"
    fill-rule="evenodd"
    d="M5.49 9v1.87c-.3 0-.58.28-.58.6H3.02v2.03h1.87c0 .32.29.58.6.58v1.89h2.03V14.1c.31 0 .58-.3.58-.6h1.89v-2.03H8.12c0-.34-.32-.58-.6-.58V9H5.49Z"
  /><path d="M6.64 12.87h.13-.13Z" /><path
    d="M7.24 13.17Zm-.25-.1v-.05h-.05.08V13.11ZM6.8 13.02l.02-.01h.07-.07v.01Zm.08.05h.02l.01-.01h.04-.05v.01Zm.41-.45h-.04.04Zm.04.07h-.04v-.01.01h.04Zm.13.2H7.36l-.01.01h-.01v.05h-.08l-.01-.01h-.01l-.01-.02h-.02l-.02-.03h-.02.02l.02.01.02.02.01.01h.01l.01.02h.08v-.02l.01-.02.01-.01h.1v.02Zm-.31-.19v.01h.02v.01h.01l.01.01h.05H7.18l-.01-.01-.01-.01h-.01v-.01Z"
    class="q"
  /><path
    d="M7.29 12.78v.05H7.35 7.29v-.03l.01.01h.06-.06l-.01-.01Zm-.02.03Z"
  /><path d="M7.32 12.67v.01-.01Z" class="q" /><path
    d="M7.04 12.79s-.07.04-.06.08.05.06.02.11m-.25.27s0-.02-.03-.02h-.06c.02-.02.04-.04.04-.08s-.04-.09-.08-.07c-.02-.02-.07-.04-.1-.03m.57.18s-.03-.13-.19-.05"
    class="u"
  /><path
    d="m7.01 12.76-.02.02-.01.01-.02.03v.03-.02l.01-.02.02-.02.01-.01.02-.01h.01Zm-.15-.05v.02h-.01l.01-.01Zm.33.38h-.03.02ZM7.19 13.09l-.01-.01h-.1H7.18v.01ZM7.08 12.79h-.02v.11l.02.02.01.02h.01l.01.02h.01l.01.02v-.01h-.01l-.01-.02H7.1l-.01-.02-.01-.01h-.01v-.02l-.01-.03v-.08l.01-.02.02-.01h.01Zm.36.16c0-.01 0 0 0 0v.02s0-.02 0 0v-.02Zm-.04.08v.01h-.01.01Zm-.16.2v.01h-.01ZM7.28 13.14v.01h.01v-.01Z"
    class="q"
  /><path
    d="m7.32 13.12-.14.09m-.41-.19s0 .01 0 0c0 0 .03-.02.06 0 .05.03.01.06.02.06 0 0 .04-.04.08-.02.03.01.02.05.01.07l.06-.08c.01.02.04.02.04 0s-.02-.09-.09-.14c-.03-.01-.03-.02-.02-.03.02-.04-.06-.14-.17-.16"
    class="u"
  /><path
    d="M7.25 13.14h-.01l-.01.01h-.01l-.01.02H7.2l-.01.02h-.01l-.01.01h-.01v-.04h-.07.05v.05h.02l.01-.01h.01l.01-.02h.01v-.02h.02Zm-.27-.22h-.03.03Zm-.11-.04v-.08h-.01l-.01-.02H6.67 6.87l.01.02v.08Zm-.29-.08H6.68v.01-.02H6.62ZM6.68 12.89h.1-.1Zm.05.15h.01l.01.01v.01h.02l.01.02v.02h.05-.05l-.01-.02-.02-.02h-.02l-.01-.03h-.01L6.7 13ZM6.72 13.06v.03h.02l.01.01H6.7v-.03ZM6.7 13.13v.02-.01c0-.01 0 0 0 0v-.01Zm.08.1h.28-.25Zm-.14.01H6.54h.12ZM6.44 13.26Zm.25 0v-.02Zm0 .05h-.04.03Zm-.18-.26-.02.01h-.01l-.01.01.01-.01h.01l.02-.02h.01Zm-.15.02v.05-.05Zm-.15.15v.04-.02Z"
    class="q"
  /><path d="M6.55 12.78H6.8h-.26Zm.29.16h-.02Z" /><path
    d="M7.12 12.89V12.98v-.11Z"
    class="q"
  /><path
    d="M6.92 12.97h-.08.06l.02-.01h.01Zm.04.05h-.05v.01-.02h.02Zm.01.04v.04-.06Z"
  /><path
    d="M6.43 13.32ZM6.47 13.32H6.55 6.49Zm0-.13Zm-.1-.03v.01h.04-.04v-.01Zm-.11-.02h.04-.04Zm-.11.08Zm-.02.03v.01h.04-.04Zm.04.16h-.02.02v-.01Z"
    class="q"
  /><path
    d="M6.35 13.3h-.23l.6.19.01.02H6.7l-.47-.14c.03.05 0 .09-.01.1s-.05 0-.08 0l-.03.01h-.04c0-.01.01-.05.04-.06.02 0 .05 0 .05-.03s-.06-.01-.1-.03c-.04-.01-.05-.04-.04-.07h-.29a1.12 1.12 0 0 0 1.54.02 8.36 8.36 0 0 0-.51-.02v.02h-.03v.01c.03 0 .05 0 .05.02 0 .01-.01.02-.03.02-.05 0-.09 0-.11-.03h-.17c-.03 0-.04-.02-.04-.03h-.07Z"
    class="p"
  /><path
    d="m7.1 12.53-.03.01-.13.15h.08v.02c0-.01 0-.02.02-.03.02 0 .02-.01.01-.03s-.02-.04 0-.06l.05-.05c.02-.01.07-.01.05-.02H7.1Zm.18.07s-.03 0-.03.02c-.02 0-.05.02-.04.04l.04.08c-.02 0-.03 0-.05-.03l-.06-.03s-.02 0 0 .02l.02.01v.03c.01 0 .05.02.07.05.02.03.01.07.01.08-.02-.04-.06-.07-.08-.08h-.09l-.02-.05h-.09l-.05-.03a.24.24 0 0 0-.09-.02H6.8v.03l-.2-.03h-.1c-.01 0-.02.02 0 .02s.06 0 .07.02v.04l-.03.02h.04c.04-.01.07 0 .08.02V12.87h.06c.02 0 .05.05.02.06-.02 0-.02.03 0 .02s.04-.02.06 0 .01.05 0 .05h-.21c-.07 0-.16.02-.19.05l-.15.01.05.06.01.02c0-.01.03-.03.07-.01.02.03.08.06.13.05-.03.03-.04.06-.03.07-.02 0-.03.02-.03.03 0 .02 0 .03.04.03s.16.02.17 0c.01.02.05.03.11.03.02 0 .03 0 .03-.02s-.01-.02-.05-.02v-.01h.03c.01 0 .02-.02 0-.02l-.04-.01.01-.02.03-.01c.03.02.04.03.09.03h.15l.03-.01.05-.03c0 .02.01.02.03.01l.07-.04c0 .01.01.04.04.03 0 .01.01.04.04.04.02 0 .08-.06.08-.08v-.03h-.02v-.05l.06-.07.04-.05.04-.02.02.01v-.03h-.03c0-.01-.02-.03-.04-.02l-.07.07v.02c-.01.01-.07.07-.12.07 0-.02 0-.05-.02-.06v-.04a.37.37 0 0 0-.06-.1c.03 0 .05.04.07.06s.08.03.11 0l.08-.07c.02-.01.04 0 .07.01.04.02.04 0 .05 0h.02v-.02l-.07-.04a.18.18 0 0 1-.07-.08c.01-.02.02-.03.01-.04h-.02v-.01h-.02l-.02-.03v-.03h-.02s0-.02-.02-.02l-.02-.04Zm-1.12.55s-.02.04 0 .07c-.04 0-.1 0-.12.05l.09.03h.04c.03 0 .09-.02.09-.07h-.01c-.02 0-.04-.02-.05-.04l-.02-.04Zm-.14.17s0 .06.04.07c.04.02.1.01.1.03s-.03.02-.05.03c-.03 0-.04.05-.04.06h.04l.03-.01h.08c.02 0 .04-.05.01-.1l-.22-.06ZM5.77 13.19l.95.3.01.02H6.7l-.95-.28c-.02 0 0-.05.02-.04Z"
    class="p"
  /><path
    d="M6.66 11.76h-.01.03V11.83l.01.02h.01l.01.03v.02l.03.01.02.01-.02-.01v-.03l-.02-.01h-.01l-.01-.03v-.01.03h.13-.13v-.07h-.02Zm.37.02Z"
    class="q"
  /><path d="M7.04 11.82h-.02.01Z" /><path
    d="M6.8 12.12h.02l.02.02h.03l.02.01h.02l.02.01v.04l.01.02v.02l.01.01v-.03l-.01-.02v-.02l-.02-.02h-.06l-.02-.01h-.01l-.02-.01s-.02 0-.02-.02Zm.19.26h-.06l-.02-.01h.05l.03.01H7Zm.05.04H6.98 7.04ZM7 12.28v.04l.01.01V12.39v-.04l.01-.02v-.02.03h-.01v.01V12.26Zm.08.02v.04Zm.1-.06h.13l.02.02.02.01v.02-.02h-.04l-.02-.02h-.11ZM7.39 12.33h.03v.03-.07H7.4Zm.05.07Zm-.87-.2h.03v.02h.02l.02.01h.02l.04.02h.01l.03.03h.01v.02h-.01v-.02l-.02-.02h-.07l-.04-.02a.08.08 0 0 1-.04-.02Zm.22.25v.02l.01.02.01.01.02.01H7h-.06l-.04.02h-.04l-.04-.01-.02-.01h-.01l-.01-.03v-.02Zm.27.05h.14-.13Zm.17.01v.01h.01l.01.03v.05-.07l-.02-.01v-.03Zm.17.17h.03-.03v-.01ZM7.37 12.64h.02v-.01l-.01-.02Zm-1.02-.02v.02l-.03.03-.03.02-.01.02v.02l-.03.04-.03.03.03-.03.03-.04.02-.04.03-.02.03-.03.01-.03h.02l.03.01h.03-.11Zm-.04.07-.03.02.03-.02Zm-.11.13Zm0 0Z"
    class="q"
  /><path
    d="M6.4 12.65v.02h-.06.07v-.02Zm-.17.24v.04H6.56v.02-.01h-.33v-.04Z"
    class="q"
  /><path d="M6.52 12.95h.05l-.01.02h-.05Z" /><path
    d="M6.23 12.78v.01h.04l.03-.01h.02l-.02.01h-.01l-.02.01h-.03l-.01-.01v-.02Zm-.04-.01v.01h-.02l-.01.02h-.01l-.01.02h-.01l-.02.02-.02.02v.02-.04l.02-.02.02-.01h.01l.01-.02h.01l.01-.02h.01l.01-.02v-.01Zm-.3-.25v.06l.01.02.02.03.05.03.03.01h.13-.12l-.03-.01c-.02 0-.03-.02-.05-.03l-.03-.03-.01-.02v-.02l-.01-.02v-.02ZM6.02 12.68l.03.02.05.02H6.16l.05-.02h.02-.02l-.05.03H6.09l-.05-.02-.03-.03Zm.22.53.01.01v.03h.01v-.02.02-.02l-.02-.01-.01-.01Zm.03.06Zm-.1-.98.02.01.02.01.02.02v.05-.05h-.02l-.03-.02v-.02h-.01ZM6.34 12.63v-.02l-.02-.02v-.01l-.02-.01h-.02l-.01-.01h-.01v-.1.1h.04l.02.01.01.01v.02l.02.02Zm-.33.34h.03v.04l.01.02v.02l.01.01v.01h.01l.01.03h.01V13.17v-.04l-.01-.03h-.01l-.01-.03v-.02l-.01-.03v-.04h-.01v-.01h-.02Zm-.31-.46H5.59l-.02.01V12.59v-.08l.01-.02.02-.01h.08l.03.01Zm-.03.16v.02h.02v.14-.13l-.01-.03Zm-.05.19v.02l-.02.02v.12V12.86h.01Zm-.04-.13V12.85 12.74Zm1.28-1.02v.02h.02l.02.02h.02l.02.01h-.02l-.02-.01h-.03l-.01-.01v-.02Zm-.07-.01h-.05l-.01-.01h.02Zm-.04.04h.02l.04.02.02.01v.01l-.02-.01-.04-.02Zm-.12.02v.04l-.02.03-.01.03v.02l-.01.03v.04-.08l.02-.03v-.03l.02-.02v-.01Zm-.07.2v.01-.01Zm0 .03v.06-.06Zm.01.08v.05-.03Zm.93.28.01.01v.04-.03l-.01-.01v-.02s-.01 0 0 0Zm-.54.05-.02.02-.03.01H6.9h.01s.02 0 .03-.02l.02-.02Zm.47.23.02.02.01.02.02.01.02.01v.01-.01l-.02-.01h-.02l-.02-.03-.02-.02Zm-1.19-.3h.27l.03.01.01.01v.02-.03l-.01-.01h-.09l-.03-.01H6.24Zm.45.21-.02.01h-.05l-.04.02h-.16l-.02-.01h-.01H6.63l.03-.02h.04Z"
    class="q"
  /><path
    d="M6.26 12.54h.02l.02.01.02.01.02.02v.02-.02l-.03-.03-.02-.01h-.04Zm.38.41v.02l.03.02.01.02v.02h-.04.04v-.02l-.01-.02-.02-.02-.01-.02Zm-.32.29.01.02h.01v.02h.01-.05.05-.02v-.01h-.01l-.01-.03Zm-.3-.35-.02.02v.04h.01L6 12.94v-.05l.01-.02Zm-.14-.44v.12V12.45l.01-.02Zm-.34.06v.02l-.02.03v.09l.02.02h.01v.02l-.01-.02-.02-.02v-.12l.02-.02Zm.13.37v.09h-.01.01v-.09Z"
    class="q"
  /><path
    d="m6.61 11.66.03.03m-.04 0 .02.02m-.03 0 .02.02m-.04 0 .02.02m-.04 0 .02.03m-.04-.01.03.03m-.05-.01.04.03m-.07-.01.06.03m-.07 0 .07.02m-.07 0 .07.01m-.07.02h.06m-.07.02h.07m-.07.02h.07m-.07.03h.07m-.03.06h.03m-.03.02h.03m-.05.05s0 0 0 0m.03-.01h.02M6.5 12.04h.03m-.05.05h.02m-.01.03.05-.01m-.05.04.06-.01m-.06.04.06-.02m-.06.05.06-.02"
    class="t"
  /><path
    d="M6.92 11.87H7s.02-.01 0-.02c-.03-.01-.03-.03-.04-.04.03 0 .06.01.07 0s.02-.02 0-.04l-.04-.02c-.02 0-.12-.05-.13-.07s-.06-.03-.08-.03l-.05-.02-.03-.06h0l-.03.08c-.04.02-.1.1-.11.13l-.03.14m0 .05v.06m.26-.11-.03-.02v-.06c.05 0 .08-.01.09-.02l.03.02m-.35.23v.04s.01.04-.02.06l-.06.02.11.03.07.02c.02 0 .02 0 .03.03l.05.12.1.14v.02l.06-.02c.07 0 .15-.03.18-.04s.07 0 .08 0l.06.01c.02.01.09.06.1.09l.03.04h.04v.05l.11.03h.04l-.1-.11-.17-.17c-.03-.03-.05-.04-.1-.05h-.12v-.03a.6.6 0 0 0 .08-.11c.02-.02.06-.04.08-.03l.15.07.03.03h.04v.06a.1.1 0 0 1 .06.02l.05.03-.01-.08a.17.17 0 0 0-.08-.09l-.2-.11h-.1c-.05.01-.1.08-.15.08a.13.13 0 0 0-.06-.09c0-.05-.07-.15-.11-.21m-.62.31h-.04l-.17.06.15.14v.05l-.04-.01-.15-.16s-.08.06-.09.11c-.03.01-.09.03-.17-.01-.06-.03-.17.01-.18.11 0 .08.05.13.07.16s.01.06 0 .08c-.01.02-.02.08 0 .1l.04.07c-.01.05 0 .07.02.04s.05-.04.07-.05.02-.07 0-.09v-.04c.05-.04.08-.07.04-.11l-.13-.13c0-.03 0-.08.03-.09l.09.01h.12c.04.08.1.13.13.16l.06.05v.05l-.07.12v.04l.1.09.1.13c.01.02.03.05.05.04s.03.02.03.02l-.01.04h.17c-.02-.02-.05-.04-.06-.07l-.1-.09-.14-.15c-.04-.04-.04-.08 0-.12l.08-.05v.09c-.01.04 0 .06.03.07h.12l.15.01h.06c.02 0 .03.02.03.05h.13l-.02-.03a.08.08 0 0 0-.04-.04l-.07-.04h-.09l-.15-.01c-.01-.01-.02-.04 0-.07a.37.37 0 0 0 .1-.18l.2-.03.09-.02h0s-.09-.06-.1-.09l-.07-.13c-.02-.02-.06-.03-.11-.02-.02 0-.06 0-.1-.02-.02 0-.08 0-.1-.02-.02-.01-.06-.02-.06-.04h0Z"
    class="v"
  /><path
    d="M6.53 11.94c0-.06.02-.12.03-.14 0-.03.06-.11.1-.13a.14.14 0 0 0-.03-.02s0 0 0 0h0s-.02 0-.02.02H6.6s0 0 0 0 0 0 0 0l.01.02h-.02v.02s0 0 0 0 0 0 0 0h0l-.02.01s0 0 0 0l.02.01h-.02s0 0 0 0h.01-.01s0 0 0 0 0 0 0 0 0 0 0 0 0 0 0 0v.01s0 0 0 0 0 0 0 0c-.02 0-.04.01-.03.02 0 0-.02.02 0 .02 0 0-.02.02 0 .02-.02 0-.02.03 0 .03-.01 0-.02.02-.01.03v.02s-.02.02 0 .03v.02m.03.02s0 0 0 0v.03s0 0 0 0m.04.02v-.06m-.06.05s0 0 0 0h0s0 0 0 0h0Zm0 0h0v.06c-.02.01-.01.03 0 .03-.01 0-.02.02 0 .02v.03h.03s.04-.05.03-.06v-.04"
    class="v"
  /><path
    d="m6.93 11.82-.06.07-.1.08-.13.06-.11.03-.03-.02s0 0 0 0h-.02c.02.03.05.04.07.04l.13-.04.18-.11a1 1 0 0 0 .1-.11m-.4.12-.07.01-.02.03h.03s0 0 0 0h.05c.01 0 .03.01.04-.01 0-.02 0-.03-.03-.03h-.02 0Zm-.01.02s.04 0 .03.01h-.09s0 0 0 0h.05Z"
    class="s"
  /><path
    d="M5.6 11.96h.01V12h.01l.03-.01h.04l.04-.02h.11-.11v.01l-.02.01h-.02V12h-.1v-.03Zm.43-.27h.04-.04Zm.07.01h.08-.08Zm-.3.05H5.86s0 .01 0 0H5.8Zm-.11.08.01.01h.03v.01h.01l.03-.01H5.97 5.73l-.02-.01H5.7v-.01Z"
    class="q"
  /><path
    d="M5.82 11.74v.05l.01-.02h.13-.13l-.01.01v-.05Zm-.14.16v.05s0-.01 0 0v-.04Zm-.2.26H5.57l.03-.03.04-.03.02-.02h.01l.01-.03.02-.02.03-.02.01-.01h.04l.02-.02h.01-.03v.01h-.02l-.01.02h-.02v.02l-.02.02h-.02l-.01.03v.02l-.04.02-.04.03h-.01v.01H5.5Z"
    class="q"
  /><path
    d="M6.54 11.72Zm-.09.03h-.01v.05-.08h.01Zm-.31.13v-.01h.02l.02-.01h.02l.02-.02h.01-.03l-.02.02h-.02l-.02.02v.01Z"
  /><path
    d="M6.32 11.71V11.83l.01.02v.03l.02.01h.01l.01.01h.01-.03l-.02-.01v-.07l-.01-.02V11.73Zm-.18.17v.06l.01.02.03.01h.02-.01l-.02-.01-.02-.01-.01-.02v-.07ZM6.28 11.99h.08-.08Z"
    class="q"
  /><path d="M6.41 11.96h-.02l-.01.01h-.01.02l.01-.01Z" /><path
    d="M6.19 12.05h.08-.07Zm.12.01h.03l.01.01v-.02h-.02Zm.1.13H6.33h.03l.02.01h.01Zm-.19-.04h.03l.02-.01h-.04Z"
    class="q"
  /><path d="M5.89 12.16v.04-.05Z" /><path
    d="M5.78 12.22h.01v-.01Zm.02.01v-.01.01Zm.02.02v-.01l-.01.01Z"
    class="q"
  /><path d="M6.01 11.96v-.01.02Z" /><path
    d="M6.07 12.45v.04-.04Zm-.19-.19.01.01v.03-.03l-.01-.02ZM5.95 12.32l.03.03.03.02v-.02l-.03-.02-.03-.03Z"
    class="q"
  /><path d="M6.48 12.01h.01Zm0 .01h.01ZM6.48 12.03Z" /><path
    d="M6.22 12.27H6.28v.01H6.44v.01h-.13l-.01-.01h-.03Zm.45.26h.02-.01l-.01-.01h-.01l-.01-.01Zm.09.07Zm-.6-.99h.01-.02Zm.09.01h.03-.02Zm.15-.05v.04-.07Zm-.04.07v-.02.02Z"
    class="q"
  /><path d="M6.43 11.64h-.02.02v-.02h-.01Zm.17.01h-.03.03Z" class="q" /><path
    d="M6.5 11.71v.01-.01Zm.02.03Zm-.12-.06v.08l-.01.01.01-.01v-.07Z"
  /><path
    d="m6.23 11.81.02.03.03.03.01.01h.03v.01H6.3l-.01-.01-.02-.01-.02-.03-.02-.03v-.02Z"
    class="q"
  /><path
    stroke="#000"
    stroke-linejoin="round"
    stroke-width="0"
    d="m6.76 12.47-.12.04c-.01 0-.01.01 0 0l.12-.04Zm.01.02-.11.03.12-.04Zm.05.08-.09.02h.04l.04.07-.03-.07h.04v-.02Z"
  /><path d="M6.83 12.59V12.65v-.05Z" class="q" /><path
    d="M6.95 12.71h.03-.04Zm-.49-.86v.05-.04Zm-.02.08v-.01Z"
  /><path
    d="M6.63 12.28v.06-.05Zm-.1.36v.01-.02Zm.07-1.02h-.02v-.02h-.01v-.02h-.05l-.01.01H6.5h.08l.01.01v.02h.02v.01Z"
    class="q"
  /><path
    d="M6.67 11.58s-.05 0-.05.03l-.05-.04c0-.03-.03-.04-.06-.04s-.09.02-.11.06v.05h-.03l-.01.03a.3.3 0 0 1-.08-.04H6.1c-.02 0-.02-.03 0-.03h.08l.05-.01h.06l.03.01c.01.01.05 0 .07-.02s.07-.07.12-.08.11.03.12.05c.02.02.04.03.04.05Z"
    class="p"
  /><path
    d="M6.51 11.53s-.09.02-.11.06v.05h-.03v.03h.05l.03.01v.02c0 .02 0 .04.02.04s.03-.02.04-.03l.02-.02c0-.03.03-.02.05-.02s.01-.02.02-.02c.02 0 .03-.03.02-.04l-.05-.04c0-.03-.03-.04-.06-.04Z"
    class="w"
  /><path
    d="M6.56 11.67s-.02 0-.03.02l-.02.02c0 .01-.01.03-.04.03s-.03-.02-.02-.04l-.01-.03h-.06l-.01.04h-.04l-.07-.04-.05.03-.12.09a.3.3 0 0 0-.08.08c-.04.02-.06.05-.08.08l-.11.2c-.03.01-.05.04-.06.05s0 .02.01.02c0 0 0 .02.02.02 0 0 .01.02.02.01l.01.02.07-.07c0-.03 0-.07.02-.09.01-.02.08-.09.1-.15l.04-.03a.2.2 0 0 0 .08-.04c-.01.07.01.12.04.17 0 .04 0 .07.02.11v.11c0 .02.04.03.06.04.02.01.08 0 .1.02l.1.02c.05 0 .1 0 .11.02l.07.13.1.09c.02.02.03.05.02.07s0 .03.02.03.08 0 .09.02.04.03.05.03h.08c.03 0 .02-.02 0-.03l-.07-.01c-.03-.01-.07-.05-.09-.07l-.04-.08a1.21 1.21 0 0 0-.1-.14l-.05-.12c0-.02-.02-.03-.03-.03l-.07-.02-.11-.03c-.04 0-.05-.01-.06-.04v-.19l.01-.01v-.14l.04-.05h.02l.02.02h.01v-.03h.02v-.05h-.02Z"
    class="p"
  /><path
    d="M6.06 11.67 6 11.7l-.12.01H5.8c-.02 0-.03.02-.03.03v.05l-.06.02c-.03 0-.06.03-.06.05v.06c-.01 0-.07.02-.08.04l-.01.1-.1.09.02.04c.02.02.1.08.14.08.02 0 .04-.03.05-.04l.09.02h.04v-.02l-.03-.03.03-.03.03.03h.01v-.02l.02-.03.03-.06.03-.06v-.02l.02-.01.04-.04.02-.02.02-.02.02-.02.02-.02.02-.02.02-.02.12-.09h.02l-.04-.01-.12-.02Zm.07.21-.08.04-.02.02v.05h-.02V12l-.01.02-.04.05.09-.06s.07-.05.13-.06V11.87Z"
    class="p"
  /><path d="M6.49 12.02v.02h-.04v-.03h.04v.02Z" class="w" /><path
    d="m5.76 12.13-.03.03c0 .02.02.03.03.03l.03-.02c0-.02-.02-.03-.03-.03Zm.13.07-.08.07s0 .03.01.02l.08-.07c0-.01 0-.03-.02-.02ZM5.86 12.27l.25.25h.05v-.04l-.25-.25-.03.03ZM6.56 12.63h-.09v.06h.09c-.02-.02-.02-.03-.01-.06Z"
    class="p"
  /><path
    d="M6.46 11.98v-.07l.01-.03c-.02 0-.02-.03 0-.03v-.03l-.03-.03h0l-.02.03v.08s0 0 0 0l.01.06v.03h0s0 0 0 0"
    class="s"
  /><circle cx="6.5" cy="12.5" r="1.12" class="x" /><circle
    cx="7.17"
    cy="13.62"
    r=".05"
  /><circle cx="5.83" cy="13.62" r=".05" /><path
    d="M6.5 13.78h.02l.02.01.01.02v.04l-.01.02-.02.01h-.04l-.02-.01-.01-.02v-.04l.01-.02.02-.01h.02Z"
  /><path
    d="M6.46 13.69s-.03 0-.04.02c-.02.02-.04.03-.03.05 0 .03.03.01.04.04s-.03 0-.05 0c-.02.02-.01.04 0 .06s.01.04.04.04.02-.03.05-.02-.02.03-.01.05c0 .03.03.02.06.02s.05 0 .05-.02c0-.03-.02-.03 0-.05s.02.02.05.02c.03 0 .03-.02.04-.05s.02-.04 0-.06c-.02-.02-.03 0-.05 0s.03-.01.04-.04c0-.03 0-.04-.03-.05s-.04-.03-.06-.01c-.02.02 0 .03-.02.05s0-.03-.02-.05H6.5Zm0 .03h.01c0 .01 0 .03.02.04s.02-.02.02-.04h.04c.02.01.03.03.02.04-.01 0-.03 0-.03.03s.03.01.04.01c.02 0 .01.02 0 .04 0 .02-.02.04-.03.03-.01 0-.02-.03-.04-.02s0 .03 0 .05c0 .01-.01.02-.04.02-.02 0-.04 0-.04-.02 0-.01.02-.02 0-.04s-.03 0-.04.01c-.01 0-.02 0-.03-.03v-.04h.04l-.03-.04.02-.04.03-.01Z"
  /><path
    fill-rule="evenodd"
    d="M6.5 13.65h-.01v.08-.08h-.01Zm-.16.11v.01l.07.02-.07-.02Zm.32 0-.07.02.07-.02v-.01Zm-.15 0 .01.01h.01Zm-.07.02v.02h.01v-.01h-.01Zm.11 0h-.01v.03h.01v-.03Zm-.1.06.01.01v.01l-.02-.02Zm.08 0-.02.01v.01h.01Zm.01.02.05.06h.01v-.01l-.04-.06Zm-.1 0-.05.06v.01h.02l.04-.06Z"
  /><circle cx="6.5" cy="12.5" r="1.51" class="x" /><path
    id="b"
    d="m7.94 11.53-.08.08c-.19-.08-.27-.13-.34-.26s-.09-.28-.09-.37c.17 0 .32.05.42.15.1.09.17.25.18.31l-.05.03a.45.45 0 0 0-.13-.27c-.09-.09-.26-.17-.32-.11s-.03.16.02.25.22.19.26.2l.06-.07.06.07Z"
    class="r"
  /><path
    id="c"
    d="m7.85 11.18-.03-.03a.67.67 0 0 1-.21.09c0-.07.02-.13.04-.18h-.06c0 .05-.03.2-.06.25l.01.03s0 0 0 0c.08-.05.22-.1.31-.13l-.02-.02h0Z"
    class="r"
  /><path
    id="d"
    d="m7.91 11.26-.22.21.05.03.19-.19c0-.02-.02-.03-.03-.05Z"
    class="r"
  /><path
    id="e"
    d="m7.47 13.94-.08-.08c.08-.19.13-.27.26-.34s.28-.09.37-.09c0 .17-.05.32-.15.42a.68.68 0 0 1-.31.18l-.03-.05a.45.45 0 0 0 .27-.13c.09-.09.17-.26.11-.32s-.16-.03-.25.02-.19.22-.2.26l.07.06-.07.06Z"
    class="r"
  /><path
    id="f"
    d="m7.82 13.85.03-.03a.67.67 0 0 1-.09-.21c.07 0 .13.02.18.04v-.06a.76.76 0 0 1-.25-.06l-.03.01s0 0 0 0c.05.08.1.22.13.31l.02-.02h0Z"
    class="r"
  /><path
    id="g"
    d="M7.74 13.91a4.68 4.68 0 0 1-.21-.22l-.03.05.19.19c.02 0 .03-.02.05-.03Z"
    class="r"
  /><path
    id="h"
    d="m5.06 13.47.08-.08c.19.08.27.13.34.26s.09.28.09.37a.58.58 0 0 1-.42-.15.68.68 0 0 1-.18-.31l.05-.03c.01.08.04.18.13.27.09.09.26.17.32.11s.03-.16-.02-.25-.22-.19-.26-.2l-.06.07-.06-.07Z"
    class="r"
  /><path
    id="i"
    d="m5.15 13.82.03.03a.67.67 0 0 1 .21-.09c0 .07-.02.13-.04.18h.06c0-.05.03-.2.06-.25l-.01-.03s0 0 0 0c-.08.05-.22.1-.31.13l.02.02h0Z"
    class="r"
  /><path
    id="j"
    d="m5.09 13.74.22-.21-.05-.03a1.7 1.7 0 0 1-.19.19c0 .02.02.03.03.05Z"
    class="r"
  /><path
    id="k"
    d="m5.53 11.06.08.08c-.08.19-.13.27-.26.34s-.28.09-.37.09c0-.17.05-.32.15-.42.09-.1.25-.17.31-.18l.03.05a.45.45 0 0 0-.27.13c-.09.09-.17.26-.11.32s.16.03.25-.02.19-.22.2-.26l-.07-.06.07-.06Z"
    class="r"
  /><path
    id="l"
    d="m5.18 11.15-.03.03c.03.04.08.15.09.21a.48.48 0 0 1-.18-.04v.06c.05 0 .2.03.25.06l.03-.01s0 0 0 0a1.7 1.7 0 0 1-.13-.31l-.02.02h0Z"
    class="r"
  /><path
    id="m"
    d="m5.26 11.09.21.22.03-.05a1.7 1.7 0 0 1-.19-.19c-.02 0-.03.02-.05.03Z"
    class="r"
  /><path
    d="M5.28 13.31a.76.76 0 0 0-.1-.15l.04-.03c0 .04.06.11.06.11l.08-.05-.06-.07.05-.03c0 .02.01.05.04.09 0 0 .08-.04.1-.07l.03.05s-.2.11-.25.16Zm-.1-.69c-.09.02-.13.09-.12.17s.09.14.17.13.13-.09.11-.18-.08-.14-.17-.12Zm.01.05c.07-.01.13.02.14.08s-.03.11-.1.12-.13-.03-.13-.08.03-.11.1-.12Zm.18-.53c-.03.05-.09.09-.15.13 0-.04-.04-.06-.07-.07a.1.1 0 0 0-.08.05l-.02.14c.07 0 .23 0 .28.03v-.06h-.11v-.03l.08-.07c.01 0 .07-.07.07-.11Zm-.17.21-.12-.01c0-.07.03-.09.06-.09s.07.02.06.1Zm.3-.87.03.03c-.06 0-.14.06-.14.11 0 .03 0 .06.05.09s.07.03.1.03.08-.04.07-.07-.05-.08-.08-.08l.05-.06.09.09c-.02.05-.05.11-.11.14s-.12.03-.18-.03c-.05-.05-.03-.15 0-.18l.11-.08Zm.34-.28V11.53l.07-.05-.02-.08.11-.06s.05.03.04.07l.09-.04-.12-.07-.16-.12Zm.03.07.1.07-.09.05v-.12Zm.5-.21a.95.95 0 0 0 0 .24.2.2 0 0 0 .14-.05v.07l-.2.01c0-.09 0-.21-.03-.26h.09Zm1.09.76-.03-.05s.19-.09.25-.14v.02l-.04.28a.49.49 0 0 0 .16-.1l.04.06a.53.53 0 0 0-.25.11s.04-.29.04-.29-.14.07-.15.11Zm.43.41s0-.07-.03-.08v-.02h.05l.04.24H7.9v-.11c-.08 0-.21.03-.23.06v-.07s.15 0 .22-.03Zm-.35.81-.05.07s.08.02.12.05c.01.03.06.12.05.2l.06-.09s-.05-.03-.07-.12c.07-.02.13-.03.15-.02l.05-.08a.52.52 0 0 1-.21.05c-.02-.01-.09-.04-.1-.07Zm-.17-1.72-.19.1s-.07.04-.12.04l.07.04.07-.05.1.07s0 .06-.05.07l.07.07v-.13l.03-.2Zm-.04.06-.02.11-.09-.06.1-.05Zm-.47-.29s-.06.14-.07.23c.06.02.12.01.15 0l-.02.07-.2-.05a.7.7 0 0 0 .05-.26l.09.02Zm.78 1.76a.36.36 0 0 1 .15-.12c0 .04.04.07.07.07a.1.1 0 0 0 .08-.05l.02-.14c-.07 0-.23 0-.28-.03v.06h.11v.03l-.09.07c-.01 0-.07.06-.08.11Zm.18-.21.12.01c0 .07-.03.09-.06.09s-.07-.02-.06-.1Z"
  /><path
    fill="none"
    stroke="#cf142b"
    stroke-miterlimit="3.95"
    stroke-width=".12"
    d="M10 11.48H8.12c0-.34-.32-.58-.6-.58V9H5.48v1.88c-.3 0-.58.28-.58.6H3v2.04h1.88c0 .32.29.58.6.58V16h2.04v-1.88c.31 0 .58-.3.58-.6H10v-2.04Z"
  /><path
    fill-rule="evenodd"
    stroke="#000"
    stroke-linejoin="round"
    stroke-width="0"
    d="M5.68 9.19v2.02-2.02h1.63v2.02-2.02H5.67ZM3.2 11.67v1.64h2.04-.01l-2.02-.01v-1.63h2.03l-2.04-.01Zm4.56 0 2.02.01v1.63H7.75l2.04.01v-1.64H7.75Zm-2.08 2.1v2.02h1.64v-2.02 2.02H5.69v-2.02Zm-.12-4.69v2.01h.01v-2h1.86v1.89h.01V9.09H5.56Zm1.87 2.03v.2h.01V11.1Zm-1.88.13v.03l-.01.05h.01v-.08Zm-2.49.32v1.88h2.02l-2.01-.01v-1.86h1.89l-1.9-.01Zm2.09 0h-.06l.2.01h.01l-.15-.01Zm2.5 0h.01l.08.01h-.03l-.06-.01Zm.23 0h-.01l2.01.01v1.86H7.99l1.9.01v-1.88H7.88Zm-2.67 1.88h.03l.06.01h-.01l-.07-.01Zm2.45 0h-.01l.13.01h.05l.04-.01h-.21Zm-.24.24h-.01v.09-.03l.01-.06Zm-1.89 0v.18l.01.04v-.21h-.01Zm1.88.21v2.01H5.55v-1.89h-.01v1.9h1.88V13.9h-.01Z"
  /></svg>
