<svg
  width="40"
  height="40"
  viewBox="0 0 40 40"
  fill="none"
  xmlns="http://www.w3.org/2000/svg"
>
<g clip-path="url(#clip0_17507_12729)">
<path d="M1 7.5H39V32.5H1V7.5Z" fill="#CC092F" />
<path d="M1 7.5H26.3333V32.5H1V7.5Z" fill="#FFD200" />
<path d="M1 7.5H13.6667V32.5H1V7.5Z" fill="#0046AE" />
</g>
<path
    d="M18.9762 14.3685C18.9189 14.3659 18.8621 14.3814 18.8141 14.4128C18.871 14.4296 18.9098 14.4821 18.9092 14.5414V14.6981H18.7525C18.6936 14.6987 18.6412 14.6605 18.6239 14.6041C18.5648 14.7041 18.5648 14.8283 18.6239 14.9283C18.6407 14.8714 18.6932 14.8326 18.7525 14.8332H18.9092V15.5864C18.9094 15.6141 18.901 15.6412 18.8851 15.6638C18.8693 15.6865 18.8467 15.7036 18.8206 15.7129C18.8954 15.7231 18.9597 15.8234 18.9773 15.8782C18.995 15.8235 19.0593 15.7231 19.134 15.7129C19.1077 15.7039 19.0849 15.6868 19.0688 15.6642C19.0526 15.6415 19.0441 15.6143 19.0443 15.5864V14.8331H19.201C19.26 14.8325 19.3124 14.8708 19.3297 14.9272C19.3887 14.8272 19.3887 14.703 19.3297 14.603C19.3128 14.6598 19.2603 14.6987 19.201 14.6981H19.0443V14.5414C19.0437 14.4824 19.082 14.43 19.1383 14.4127C19.0903 14.3813 19.0336 14.3658 18.9762 14.3684V14.3685Z"
    fill="black"
  />
<path
    d="M18.976 14.4004C18.9444 14.4005 18.9131 14.4056 18.8831 14.4155C18.9013 14.431 18.9159 14.4502 18.926 14.4718C18.9361 14.4935 18.9413 14.517 18.9415 14.5409V14.6976C18.9413 14.6998 18.941 14.702 18.9404 14.7041V14.729H18.9155C18.9134 14.7295 18.9112 14.7299 18.909 14.7301H18.7523C18.7046 14.7297 18.6593 14.7089 18.628 14.6728C18.6176 14.7027 18.6121 14.7341 18.6118 14.7657C18.6119 14.7973 18.6171 14.8287 18.6269 14.8587C18.6582 14.8219 18.704 14.8006 18.7523 14.8003H18.9414C18.9412 14.8036 18.9403 14.8067 18.9403 14.81V14.8262C18.9409 14.8284 18.9413 14.8305 18.9414 14.8327V15.586C18.9399 15.6318 18.9186 15.6748 18.8831 15.7038C18.9064 15.7183 18.9272 15.7366 18.9447 15.7579C18.9574 15.7754 18.9682 15.7942 18.9771 15.814C18.9859 15.7942 18.9968 15.7754 19.0095 15.7579C19.0267 15.7371 19.0472 15.7192 19.07 15.7049C19.0524 15.6904 19.038 15.6723 19.028 15.6518C19.0179 15.6313 19.0123 15.6088 19.0117 15.586V14.8014H19.0376C19.0397 14.8008 19.0419 14.8004 19.0441 14.8003H19.2008C19.2244 14.8005 19.2477 14.8056 19.2691 14.8155C19.2905 14.8254 19.3096 14.8397 19.3251 14.8576C19.3355 14.8277 19.341 14.7963 19.3413 14.7646C19.3411 14.733 19.336 14.7017 19.3262 14.6717C19.2949 14.7085 19.2491 14.7298 19.2008 14.73H19.0441C19.0419 14.7299 19.0397 14.7295 19.0376 14.7289H19.0127V14.7041C19.0122 14.7019 19.0118 14.6998 19.0116 14.6976V14.5409C19.0118 14.5173 19.017 14.494 19.0269 14.4726C19.0367 14.4511 19.0511 14.4321 19.0689 14.4166C19.039 14.4062 19.0076 14.4007 18.976 14.4004"
    fill="#FFD200"
  />
<path
    d="M20.9376 17.1285C20.846 17.0664 20.7677 16.9866 20.7074 16.8939C20.5729 16.6781 20.5161 16.4132 20.5161 16.1439C20.5161 16.0301 20.6436 15.902 20.6436 15.8099C20.6444 15.7355 20.6401 15.6611 20.6306 15.5873C20.6759 15.5935 20.7549 15.6738 20.7549 15.6738C20.7549 15.6738 20.7522 15.4429 20.6792 15.4025C20.6792 15.4025 20.7087 15.3722 20.8154 15.369C20.7854 15.2931 20.6371 15.2004 20.6371 15.2004C20.6467 15.1856 20.6601 15.1736 20.676 15.1658C20.717 15.1457 20.7607 15.1315 20.8057 15.1237C20.7563 15.113 20.7076 15.0996 20.6598 15.0837C20.5217 15.0375 20.3867 14.9827 20.2556 14.9194C20.0879 14.8354 19.9028 14.792 19.7152 14.793C19.6398 14.793 19.5286 14.7951 19.4634 14.8384C19.4038 14.878 19.4087 14.9295 19.3878 14.9476C19.3386 14.9901 19.2543 14.9886 19.2138 14.9886C18.9511 14.9886 18.9414 15.2696 18.9414 15.2696C18.9414 15.2696 19.0086 15.168 19.1273 15.168C19.3247 15.168 19.4742 15.2756 19.4742 15.3161C19.4742 15.3325 19.4539 15.3355 19.4526 15.3355C19.3237 15.3355 19.1291 15.2613 19.0257 15.2577V15.3085C19.2564 15.3888 19.4904 15.5024 19.4904 16.0034C19.4904 16.3189 19.4526 16.6408 19.2948 16.8939C19.234 16.9866 19.1554 17.0663 19.0635 17.1285L20.0006 17.2974L20.9376 17.1285V17.1285Z"
    fill="black"
  />
<path
    d="M20.0009 16.9175L19.0639 17.1286C19.0213 17.1158 18.8209 17.0535 18.6803 16.9752C18.4327 16.8373 18.3044 16.7001 18.0102 16.6866V16.4629C18.0102 16.3433 18.0535 16.2357 18.0535 16.1214C17.9295 16.0881 17.5853 15.6673 17.2678 15.4805C16.8006 15.7831 16.4388 16.2798 16.4388 16.5083V23.1268C16.4388 23.2254 16.3794 23.3646 16.3794 23.3646C16.55 23.2924 16.8626 22.8647 16.9284 22.7021V22.7799C17.186 22.6625 17.3746 22.3538 17.4591 22.1941L17.4645 22.2752C17.6946 22.0735 17.9875 20.881 17.9875 20.881L18.4757 21.3608C18.4757 21.3608 18.2992 21.7192 18.2304 21.7833C18.263 21.7871 18.2959 21.7889 18.3287 21.7888C18.2966 21.8349 18.0512 22.1883 17.9742 22.3216C17.9022 22.4462 17.8515 22.3907 17.7408 22.3907C17.649 22.3907 17.441 22.5369 17.4069 22.5961C17.3699 22.6566 17.3484 22.7253 17.3442 22.796C17.3442 22.8644 17.4166 22.9581 17.4166 22.9581C17.4193 22.9416 17.4268 22.9261 17.4382 22.9138L17.6565 23.1818C17.6783 23.206 17.7757 23.2216 17.81 23.1905C17.8958 23.1125 17.9789 23.0579 18.0553 22.9452C18.0947 22.8871 18.0976 22.8205 18.1428 22.7582L18.6638 22.059L18.6767 22.1314C18.7547 21.9739 19.1295 21.6731 19.1295 21.6731L19.5217 21.8536C19.5217 21.8536 18.7895 23.5369 18.1395 23.7957C18.1395 23.7957 18.4223 23.9159 18.7695 24.0962L18.9252 24.1794C18.9689 24.1268 19.0149 24.0683 19.0603 24.0076C19.2679 23.7297 19.471 23.4078 19.471 23.4078C19.4851 23.4914 19.3755 23.7496 19.19 24.0681L19.0733 24.2626L19.2138 24.3448C19.5578 24.5518 19.8808 24.7898 20.0005 25.0084L20.0849 24.7971L20.0005 24.5858V17.1978L20.0427 17.0923L20.0009 16.9175Z"
    fill="black"
  />
<path
    d="M20.0004 24.5854C19.879 24.4538 19.6253 24.293 19.3401 24.1445C19.6849 23.5256 19.8558 22.5474 19.7756 22.3526C19.7756 22.3526 19.6341 22.86 19.4611 23.1491C19.3009 23.4169 19.1038 23.7181 18.9132 23.9413C18.7699 23.8794 18.6235 23.8253 18.4744 23.7792C19.0456 23.3392 19.6297 21.8846 19.6297 21.8846L19.0257 21.6047C19.0257 21.6047 18.7997 21.8682 18.7263 21.9171C18.7263 21.9171 18.695 21.7861 18.6766 21.7398C18.6766 21.7398 18.59 21.8053 18.5426 21.8069L18.5178 21.6599C18.4581 21.6996 18.3589 21.6912 18.3589 21.6912C18.446 21.65 18.5491 21.3972 18.5491 21.3972L17.9723 20.63C17.9723 20.63 17.7697 21.6036 17.5389 21.8037V17.6114L17.7216 17.7811L17.9983 17.5228V17.3261L17.7529 17.5552V16.9619C17.7813 16.9193 17.8079 16.8757 17.8329 16.8311C17.8726 16.9003 18.0009 17.1125 18.1517 17.2429C18.1765 17.142 18.3398 17.0462 18.3398 17.0462C18.3398 17.0462 18.3983 17.2047 18.4878 17.2439C18.5193 17.1885 18.7072 17.0656 18.7072 17.0656C18.7072 17.0656 18.5464 17.0901 18.4813 17.151C18.4254 17.1385 18.4111 16.9176 18.4111 16.9176C18.4111 16.9176 18.1745 17.0328 18.1333 17.1154C18.0882 17.1032 18.018 16.9256 17.9906 16.8527C18.0491 16.8462 18.108 16.843 18.1668 16.843C18.2343 16.843 18.3206 16.875 18.411 16.9176C18.5104 16.9644 18.6144 17.0236 18.7072 17.0657C18.8261 17.1195 19.006 17.1304 19.0584 17.1327C18.9955 17.1764 18.9294 17.2154 18.8607 17.2494C18.8607 17.2494 19.1438 17.2468 19.3427 17.1478C19.415 17.1042 19.4843 17.0558 19.5502 17.003C19.5199 17.0913 19.4737 17.1733 19.414 17.245C19.7061 17.2203 19.8515 17.0535 19.8928 16.9976C19.919 17.069 19.9554 17.1364 20.0008 17.1975H20.1064V24.3752L20.0004 24.5854ZM17.848 16.1426L17.8534 16.2767V16.6712C17.7474 16.6347 17.6143 16.4606 17.5497 16.3686V16.3145C17.5504 16.2939 17.5554 16.2736 17.5643 16.255C17.5733 16.2364 17.586 16.2199 17.6016 16.2064L17.5379 16.1838C17.5065 16.2169 17.4884 16.2603 17.4871 16.3059V16.3372L17.2969 16.5415L17.1099 16.2583V16.1892C17.1099 16.1426 17.1458 16.0906 17.1758 16.0552L17.1131 16.0325C17.0815 16.0735 17.0483 16.1287 17.0483 16.1805V16.2367L16.8332 16.4583L16.7241 16.2238C16.8551 16.0423 17.0675 15.8391 17.2677 15.6934C17.2677 15.6934 17.7018 16.092 17.848 16.1426ZM16.7477 16.5252V16.8506L16.5964 16.9911V16.508C16.6007 16.4503 16.6185 16.3944 16.6483 16.3448L16.7477 16.5252ZM17.2189 16.6506V16.8516L17.0449 17.0148V16.3858L17.2189 16.6506ZM16.9833 17.0138L16.8093 16.8516V16.6161L16.9833 16.4334V17.0138ZM17.7776 16.7695C17.7372 16.8266 17.6314 16.9663 17.5172 17.0278V16.4755C17.5434 16.5191 17.6636 16.7136 17.7776 16.7695ZM17.4555 16.5036V17.0137L17.2815 16.8516V16.6711L17.4555 16.5036ZM16.7477 17.0472V17.5563L16.5964 17.4147V17.1888L16.7477 17.0472ZM16.9832 17.2104V17.3931L16.8091 17.5552V17.0483L16.9832 17.2104ZM17.2187 17.0484V17.5552L17.0447 17.392V17.2115L17.2187 17.0484ZM17.4554 17.2115V17.392L17.2814 17.5552V17.0484L17.4554 17.2115ZM17.691 17.5563L17.517 17.3931V17.2234C17.577 17.1868 17.6373 17.1195 17.691 17.0484L17.691 17.5563ZM17.2501 17.7811L17.4338 17.6103V21.8036L17.4555 22.1473L17.0664 22.5407V17.6092L17.2501 17.7811ZM16.9615 22.384C16.9615 22.5188 16.7153 22.8331 16.5962 22.9049V17.6115L16.7777 17.7811L16.9615 17.6104V22.384Z"
    fill="#B07E5B"
  />
<path
    d="M18.4875 21.9289L18.6215 21.837L18.642 21.9419L18.0919 22.6897C18.0514 22.7443 18.0173 22.8832 18.0173 22.8832C18.0173 22.8832 17.9579 22.8551 17.9579 22.8043C17.9579 22.7544 17.9644 22.6951 17.9644 22.6951C17.9486 22.7112 17.9298 22.724 17.909 22.7327C17.8882 22.7414 17.8659 22.7459 17.8433 22.7459C17.8433 22.6846 17.9619 22.6182 17.9665 22.5309C17.8762 22.5979 17.7977 22.5635 17.6931 22.5958C17.5793 22.6308 17.5476 22.6787 17.5127 22.6768C17.4921 22.6757 17.4735 22.6402 17.4813 22.6184C17.4949 22.5807 17.6357 22.4763 17.7342 22.4574C17.7578 22.4529 17.9432 22.4978 17.9806 22.4401L18.4086 21.7798C18.4233 21.7771 18.4375 21.7719 18.4507 21.7646C18.4507 21.7646 18.4493 21.8861 18.4875 21.9289H18.4875ZM17.6258 22.6691C17.6332 22.6772 17.6327 22.6898 17.6247 22.6972L17.5642 22.7502C17.5555 22.7569 17.543 22.7555 17.5361 22.7469C17.5287 22.7388 17.5292 22.7263 17.5372 22.7188L17.5977 22.6659C17.5996 22.6642 17.6019 22.6629 17.6043 22.6622C17.6067 22.6615 17.6093 22.6612 17.6118 22.6616C17.6172 22.6623 17.6222 22.665 17.6258 22.6691ZM17.7177 22.7329C17.7356 22.7518 17.7348 22.7816 17.7159 22.7995L17.7155 22.7999L17.5685 22.9285C17.5462 22.9451 17.5147 22.9404 17.4982 22.9181C17.4834 22.8982 17.4853 22.8706 17.5026 22.8529L17.6496 22.7254C17.6569 22.7192 17.666 22.7154 17.6755 22.7145C17.6917 22.7136 17.7073 22.7204 17.7177 22.7329ZM17.8019 22.8323C17.8062 22.8368 17.8095 22.8421 17.8117 22.8479C17.814 22.8536 17.815 22.8598 17.8149 22.866C17.8147 22.8722 17.8133 22.8782 17.8108 22.8839C17.8083 22.8895 17.8047 22.8946 17.8002 22.8989L17.7997 22.8993L17.6517 23.0279C17.6312 23.0444 17.6013 23.0411 17.5848 23.0206L17.5847 23.0204C17.576 23.011 17.5714 22.9986 17.5718 22.9859C17.5722 22.9731 17.5776 22.9611 17.5869 22.9523L17.7338 22.8248C17.7408 22.8186 17.7495 22.8148 17.7587 22.814C17.7752 22.813 17.7912 22.8198 17.8019 22.8323ZM17.8527 22.9112C17.8605 22.9106 17.8685 22.9118 17.8758 22.9148C17.8831 22.9178 17.8897 22.9225 17.8948 22.9285C17.9129 22.9479 17.9119 22.9783 17.8927 22.9966L17.7457 23.1241C17.7356 23.1314 17.7232 23.1346 17.7109 23.1332C17.6985 23.1319 17.6872 23.1259 17.679 23.1166C17.6707 23.1074 17.6663 23.0953 17.6664 23.0829C17.6666 23.0705 17.6713 23.0586 17.6797 23.0495L17.8278 22.9209C17.8348 22.9151 17.8435 22.9117 17.8527 22.9112Z"
    fill="#CC092F"
  />
<path
    d="M19.9996 16.9175L20.9365 17.1286C20.9791 17.1158 21.1796 17.0535 21.3202 16.9752C21.5677 16.8373 21.6961 16.7001 21.9903 16.6866V16.4629C21.9903 16.3433 21.947 16.2357 21.947 16.1214C22.071 16.0881 22.4152 15.6673 22.7327 15.4805C23.1999 15.7831 23.5616 16.2798 23.5616 16.5083V23.1268C23.5616 23.2254 23.6211 23.3646 23.6211 23.3646C23.4505 23.2924 23.1379 22.8647 23.0721 22.7021V22.7799C22.8145 22.6625 22.6259 22.3538 22.5414 22.1941L22.536 22.2752C22.3059 22.0735 22.0129 20.881 22.0129 20.881L21.5248 21.3608C21.5248 21.3608 21.7013 21.7192 21.7701 21.7833C21.7375 21.7871 21.7046 21.7889 21.6718 21.7888C21.7039 21.8349 21.9493 22.1883 22.0262 22.3216C22.0982 22.4462 22.149 22.3907 22.2597 22.3907C22.3515 22.3907 22.5595 22.5369 22.5936 22.5961C22.6306 22.6566 22.6521 22.7253 22.6563 22.796C22.6563 22.8644 22.5839 22.9581 22.5839 22.9581C22.5812 22.9416 22.5737 22.9261 22.5623 22.9138L22.344 23.1818C22.3221 23.206 22.2248 23.2216 22.1905 23.1905C22.1046 23.1125 22.0216 23.0579 21.9451 22.9452C21.9058 22.8871 21.9028 22.8205 21.8576 22.7582L21.3367 22.059L21.3238 22.1314C21.2458 21.9739 20.8709 21.6731 20.8709 21.6731L20.4787 21.8536C20.4787 21.8536 21.211 23.5369 21.861 23.7957C21.861 23.7957 21.5782 23.9159 21.2309 24.0962L21.0753 24.1794C21.0316 24.1268 20.9856 24.0683 20.9402 24.0076C20.7326 23.7297 20.5295 23.4078 20.5295 23.4078C20.5154 23.4914 20.625 23.7496 20.8105 24.0681L20.9272 24.2626L20.7867 24.3448C20.4427 24.5518 20.1197 24.7898 20 25.0084L19.9155 24.7971L20 24.5858V17.1978L19.9577 17.0923L19.9996 16.9175Z"
    fill="black"
  />
<path
    d="M20 24.5854C20.1214 24.4538 20.3751 24.293 20.6603 24.1445C20.3155 23.5256 20.1446 22.5474 20.2248 22.3526C20.2248 22.3526 20.3664 22.86 20.5393 23.1491C20.6995 23.4169 20.8966 23.7181 21.0872 23.9413C21.2305 23.8794 21.377 23.8253 21.526 23.7792C20.9548 23.3392 20.3707 21.8846 20.3707 21.8846L20.9747 21.6047C20.9747 21.6047 21.2007 21.8682 21.2741 21.9171C21.2741 21.9171 21.3054 21.7861 21.3238 21.7398C21.3238 21.7398 21.4104 21.8053 21.4578 21.8069L21.4827 21.6599C21.5423 21.6996 21.6415 21.6912 21.6415 21.6912C21.5544 21.65 21.4513 21.3972 21.4513 21.3972L22.0281 20.63C22.0281 20.63 22.2307 21.6036 22.4615 21.8037V17.6114L22.2788 17.7811L22.0022 17.5228V17.3261L22.2475 17.5552V16.9619C22.2192 16.9193 22.1925 16.8757 22.1675 16.8311C22.1278 16.9003 21.9995 17.1125 21.8487 17.2429C21.8239 17.142 21.6607 17.0462 21.6607 17.0462C21.6607 17.0462 21.6022 17.2047 21.5126 17.2439C21.4811 17.1885 21.2932 17.0656 21.2932 17.0656C21.2932 17.0656 21.454 17.0901 21.5191 17.151C21.575 17.1385 21.5893 16.9176 21.5893 16.9176C21.5893 16.9176 21.8259 17.0328 21.8671 17.1154C21.9122 17.1032 21.9824 16.9256 22.0098 16.8527C21.9513 16.8462 21.8925 16.843 21.8336 16.843C21.7661 16.843 21.6798 16.875 21.5894 16.9176C21.49 16.9644 21.386 17.0236 21.2932 17.0657C21.1743 17.1195 20.9944 17.1304 20.942 17.1327C21.005 17.1764 21.071 17.2154 21.1397 17.2494C21.1397 17.2494 20.8566 17.2468 20.6577 17.1478C20.5854 17.1042 20.5161 17.0558 20.4502 17.003C20.4805 17.0913 20.5267 17.1733 20.5864 17.245C20.2944 17.2203 20.1489 17.0535 20.1077 16.9976C20.0814 17.069 20.045 17.1364 19.9996 17.1975H19.894V24.3752L20 24.5854ZM22.1524 16.1426L22.147 16.2767V16.6712C22.253 16.6347 22.3861 16.4606 22.4507 16.3686V16.3145C22.45 16.2939 22.445 16.2736 22.4361 16.255C22.4271 16.2364 22.4145 16.2199 22.3988 16.2064L22.4626 16.1838C22.4939 16.2169 22.512 16.2603 22.5134 16.3059V16.3372L22.7036 16.5415L22.8905 16.2583V16.1892C22.8905 16.1426 22.8547 16.0906 22.8246 16.0552L22.8873 16.0325C22.9189 16.0735 22.9521 16.1287 22.9521 16.1805V16.2367L23.1672 16.4583L23.2763 16.2238C23.1453 16.0423 22.9329 15.8391 22.7327 15.6934C22.7327 15.6934 22.2986 16.092 22.1524 16.1426ZM23.2527 16.5252V16.8506L23.404 16.9911V16.508C23.3997 16.4503 23.3819 16.3944 23.3522 16.3448L23.2527 16.5252ZM22.7815 16.6506V16.8516L22.9555 17.0148V16.3858L22.7815 16.6506ZM23.0171 17.0138L23.1912 16.8516V16.6161L23.0171 16.4334V17.0138ZM22.2228 16.7695C22.2632 16.8266 22.369 16.9663 22.4832 17.0278V16.4755C22.457 16.5191 22.3369 16.7136 22.2228 16.7695ZM22.5449 16.5036V17.0137L22.7189 16.8516V16.6711L22.5449 16.5036ZM23.2527 17.0472V17.5563L23.404 17.4147V17.1888L23.2527 17.0472ZM23.0173 17.2104V17.3931L23.1913 17.5552V17.0483L23.0173 17.2104ZM22.7817 17.0484V17.5552L22.9557 17.392V17.2115L22.7817 17.0484ZM22.545 17.2115V17.392L22.719 17.5552V17.0484L22.545 17.2115ZM22.3094 17.5563L22.4834 17.3931V17.2234C22.4234 17.1868 22.3631 17.1195 22.3094 17.0484L22.3094 17.5563ZM22.7503 17.7811L22.5666 17.6103V21.8036L22.545 22.1473L22.934 22.5407V17.6092L22.7503 17.7811ZM23.0389 22.384C23.0389 22.5188 23.2851 22.8331 23.4042 22.9049V17.6115L23.2227 17.7811L23.0389 17.6104V22.384Z"
    fill="#B07E5B"
  />
<path
    d="M21.5129 21.9289L21.3789 21.837L21.3584 21.9419L21.9085 22.6897C21.949 22.7443 21.9831 22.8832 21.9831 22.8832C21.9831 22.8832 22.0425 22.8551 22.0425 22.8043C22.0425 22.7544 22.036 22.6951 22.036 22.6951C22.0518 22.7112 22.0706 22.724 22.0914 22.7327C22.1122 22.7414 22.1345 22.7459 22.1571 22.7459C22.1571 22.6846 22.0386 22.6182 22.0339 22.5309C22.1242 22.5979 22.2027 22.5635 22.3073 22.5958C22.4211 22.6308 22.4528 22.6787 22.4878 22.6768C22.5083 22.6757 22.5269 22.6402 22.5191 22.6184C22.5055 22.5807 22.3647 22.4763 22.2662 22.4574C22.2427 22.4529 22.0572 22.4978 22.0198 22.4401L21.5918 21.7798C21.5771 21.7771 21.5629 21.7719 21.5497 21.7646C21.5497 21.7646 21.5512 21.8861 21.513 21.9289H21.5129ZM22.3746 22.6691C22.3672 22.6772 22.3677 22.6898 22.3757 22.6972L22.4362 22.7502C22.4449 22.7569 22.4574 22.7555 22.4643 22.7469C22.4717 22.7388 22.4712 22.7263 22.4632 22.7188L22.4027 22.6659C22.4008 22.6642 22.3985 22.6629 22.3961 22.6622C22.3937 22.6615 22.3911 22.6612 22.3886 22.6616C22.3832 22.6623 22.3782 22.665 22.3746 22.6691ZM22.2827 22.7329C22.2648 22.7518 22.2656 22.7816 22.2845 22.7995L22.2849 22.7999L22.4319 22.9285C22.4542 22.9451 22.4857 22.9404 22.5023 22.9181C22.517 22.8982 22.5151 22.8706 22.4978 22.8529L22.3508 22.7254C22.3435 22.7192 22.3344 22.7154 22.3249 22.7145C22.3087 22.7136 22.2931 22.7204 22.2827 22.7329ZM22.1985 22.8323C22.1942 22.8368 22.1909 22.8421 22.1887 22.8479C22.1865 22.8536 22.1854 22.8598 22.1856 22.866C22.1857 22.8722 22.1871 22.8782 22.1896 22.8839C22.1921 22.8895 22.1957 22.8946 22.2002 22.8989L22.2007 22.8993L22.3487 23.0279C22.3692 23.0444 22.3991 23.0411 22.4156 23.0206L22.4157 23.0204C22.4244 23.011 22.4291 22.9986 22.4286 22.9859C22.4282 22.9731 22.4228 22.9611 22.4135 22.9523L22.2666 22.8248C22.2596 22.8186 22.2509 22.8148 22.2417 22.814C22.2252 22.813 22.2093 22.8198 22.1985 22.8323ZM22.1478 22.9112C22.1399 22.9106 22.1319 22.9118 22.1246 22.9148C22.1173 22.9178 22.1108 22.9225 22.1056 22.9285C22.0875 22.9479 22.0885 22.9783 22.1078 22.9966L22.2548 23.1241C22.2648 23.1314 22.2772 23.1346 22.2895 23.1332C22.3019 23.1319 22.3132 23.1259 22.3215 23.1166C22.3297 23.1074 22.3341 23.0953 22.334 23.0829C22.3339 23.0705 22.3291 23.0586 22.3207 23.0495L22.1726 22.9209C22.1656 22.9151 22.1569 22.9117 22.1478 22.9112Z"
    fill="#CC092F"
  />
<path
    d="M19.7834 14.8625C20.0252 14.8625 20.1954 14.9728 20.4243 15.0743C20.4842 15.1009 20.5393 15.1225 20.5885 15.1392C20.5618 15.1596 20.5406 15.1863 20.5269 15.217C20.5269 15.217 20.6295 15.236 20.676 15.3219C20.676 15.3219 20.5785 15.3329 20.5625 15.3899C20.6172 15.394 20.6715 15.4629 20.6717 15.5294L20.5334 15.4861C20.5546 15.5929 20.5659 15.7014 20.5669 15.8103C20.5669 15.8966 20.4426 15.9981 20.4426 16.1443C20.4426 16.6031 20.5582 16.7795 20.6404 16.9213C20.6726 16.9768 20.6987 17.0407 20.7528 17.0888C20.516 16.9627 20.3399 16.8051 20.3399 16.6587V16.1043H20.2783V16.6587C20.2783 16.7649 20.3043 16.8143 20.3043 16.8143C20.3414 16.9318 20.4166 17.1131 20.4632 17.1861C20.2453 17.0684 20.1346 16.9209 20.1346 16.8662V16.1043H20.073V16.877L20.0849 16.93C20.0585 16.9696 20.0241 17.0166 20.0006 17.0326C19.9771 17.0167 19.9438 16.9696 19.9173 16.93L19.9292 16.877V16.1043H19.8676V16.8662C19.8676 16.9209 19.7569 17.0684 19.5391 17.1861C19.5856 17.1131 19.6608 16.9318 19.6979 16.8143C19.6979 16.8143 19.7239 16.7649 19.7239 16.6587V16.1043H19.6623V16.6587C19.6623 16.805 19.4869 16.9628 19.2505 17.0888C19.304 17.0406 19.3298 16.9765 19.3618 16.9213C19.4517 16.7662 19.5628 16.5691 19.5628 16.0081C19.5628 15.7975 19.5317 15.6544 19.4774 15.5542C19.4609 15.5211 19.4387 15.4331 19.565 15.4331C19.6303 15.4331 19.78 15.5488 19.78 15.5488C19.7741 15.4912 19.7443 15.4387 19.6979 15.404C19.6884 15.3965 19.6806 15.3872 19.6748 15.3766C19.6691 15.366 19.6655 15.3543 19.6644 15.3423C19.6731 15.3098 19.694 15.282 19.7227 15.2645C19.7403 15.2565 19.4655 15.2087 19.4655 15.084C19.4655 15.0581 19.4819 15.0408 19.539 15.0408C19.6138 15.0408 19.7356 15.1305 19.8438 15.1305C19.9238 15.1305 19.9553 15.111 20.0372 15.111C20.1373 15.111 20.3462 15.3006 20.4176 15.2937C20.3378 15.2435 20.2088 15.0537 20.0135 15.0537C19.9457 15.0537 19.8843 15.0689 19.8211 15.0689C19.74 15.0689 19.6601 14.9943 19.5725 14.9943C19.5138 14.9943 19.4482 14.9976 19.4385 14.9824C19.4215 14.9559 19.4368 14.9405 19.4525 14.9186C19.4823 14.8773 19.5658 14.8653 19.6482 14.8625C19.6729 14.8616 19.6975 14.8612 19.7206 14.8614L19.7833 14.8625L19.7834 14.8625Z"
    fill="#B07E5B"
  />
<path
    d="M18.9981 15.159C19.0366 15.0969 19.1052 15.0601 19.1783 15.0623C19.2322 15.0623 19.4103 15.0586 19.4103 15.0586C19.434 15.1203 19.5422 15.2233 19.5422 15.3305C19.5422 15.3305 19.4324 15.1325 19.1259 15.1325C19.0818 15.1318 19.0382 15.1409 18.998 15.159L18.9981 15.159ZM19.4965 15.3683C19.4965 15.3683 19.4312 15.437 19.417 15.4737C19.3524 15.4493 19.2397 15.3331 19.2397 15.3331C19.2397 15.3331 19.3353 15.3889 19.4965 15.3683H19.4965Z"
    fill="#CC092F"
  />
<path
    d="M19.3932 15.1859C19.3932 15.1859 19.3179 15.1618 19.3179 15.1365C19.3179 15.1042 19.3545 15.1042 19.3763 15.1293C19.3867 15.1464 19.3925 15.1659 19.3932 15.1859L19.3932 15.1859Z"
    fill="black"
  />
<path
    d="M19.7445 15.3457C19.8305 15.3457 19.9002 15.2928 19.9002 15.2275C19.9002 15.1623 19.8305 15.1094 19.7445 15.1094C19.6586 15.1094 19.5889 15.1623 19.5889 15.2275C19.5889 15.2928 19.6586 15.3457 19.7445 15.3457Z"
    fill="black"
  />
<path
    d="M19.7443 15.3354C19.804 15.3354 19.8525 15.287 19.8525 15.2273C19.8525 15.1675 19.804 15.1191 19.7443 15.1191C19.6846 15.1191 19.6362 15.1675 19.6362 15.2273C19.6362 15.287 19.6846 15.3354 19.7443 15.3354Z"
    fill="#FFD200"
  />
<path
    d="M19.7444 15.2768C19.7717 15.2768 19.7939 15.2546 19.7939 15.2273C19.7939 15.1999 19.7717 15.1777 19.7444 15.1777C19.717 15.1777 19.6948 15.1999 19.6948 15.2273C19.6948 15.2546 19.717 15.2768 19.7444 15.2768Z"
    fill="black"
  />
<path
    d="M17.998 22.9971L18.34 23.1837L18.2571 23.5643L17.915 23.3777L17.998 22.9971Z"
    fill="black"
  />
<path
    d="M16.4045 19.3398L16.2812 19.3961L17.6732 22.4449H17.8213L16.4045 19.3398ZM18.0461 22.9355L17.9456 23.0392L18.0083 23.1776L18.1304 23.1214L18.0461 22.9355Z"
    fill="black"
  />
<path
    d="M16.8371 21.7435C16.8371 21.7435 16.9544 21.9857 17.0435 22.0189C16.9974 22.0064 16.8478 22.0613 16.8478 22.0613C16.8478 22.0613 17.1116 22.297 17.3354 22.3124C17.5252 22.3255 17.6174 22.2308 17.6174 22.2308L17.5794 22.0297C17.497 21.9377 17.3933 21.8673 17.2774 21.8248C17.0897 21.7594 16.8371 21.7436 16.8371 21.7436L16.8371 21.7435ZM17.7211 21.3097C17.7211 21.3097 17.5592 21.4483 17.5148 21.6088C17.4705 21.7693 17.5437 21.9518 17.5437 21.9518L17.6798 22.2056C17.6798 22.2056 17.8683 22.1052 17.9485 21.9552C18.0287 21.8052 17.9993 21.6027 17.9993 21.6027C17.9993 21.6027 17.8499 21.6583 17.8309 21.6829C17.8625 21.5165 17.7211 21.3097 17.7211 21.3097ZM17.2007 21.2449C17.2007 21.2449 17.0165 21.3071 16.8377 21.2963C16.6674 21.2861 16.5258 21.143 16.5258 21.143C16.5258 21.143 16.667 21.0475 16.7366 21.0602C16.66 21.0322 16.5488 20.8402 16.5488 20.8402C16.5488 20.8402 16.7068 20.7924 16.8468 20.8452C16.9869 20.898 17.109 21.0515 17.109 21.0515L17.2007 21.2449ZM17.264 20.3455C17.264 20.3455 17.3561 20.5362 17.3343 20.6025C17.3628 20.5584 17.4709 20.4896 17.4709 20.4896C17.4709 20.4896 17.5363 20.7984 17.4738 20.9891C17.4113 21.1797 17.221 21.2523 17.221 21.2523L17.0111 20.8441C17.0111 20.8441 16.9798 20.6928 17.0453 20.5731C17.1107 20.4533 17.264 20.3455 17.264 20.3455V20.3455ZM16.0659 19.8408C16.0659 19.8408 16.265 19.8199 16.447 19.8953C16.5992 19.9585 16.6459 20.0733 16.6459 20.0733L16.7209 20.2743C16.7209 20.2743 16.5042 20.3556 16.3331 20.2934C16.1619 20.2313 16.0362 20.0258 16.0362 20.0258C16.0362 20.0258 16.1558 19.9804 16.2013 19.9974C16.135 19.9681 16.066 19.8408 16.066 19.8408V19.8408L16.0659 19.8408ZM16.6919 19.4677C16.6919 19.4677 16.7792 19.5799 16.7818 19.7089C16.8051 19.6403 16.9142 19.5645 16.9142 19.5645C16.9142 19.5645 17.0263 19.8359 17.0017 20.0286C16.9771 20.2213 16.8157 20.3353 16.8157 20.3353L16.6145 19.9533C16.6145 19.9533 16.5489 19.7968 16.5683 19.6754C16.5876 19.5539 16.6919 19.4677 16.6919 19.4677V19.4677ZM16.0026 18.7373C16.0026 18.7373 15.9665 18.9453 16.0279 19.0652C16.0828 19.1721 16.1177 19.1955 16.1177 19.1955C16.0131 19.1265 15.855 19.1206 15.855 19.1206C15.855 19.1206 15.9113 19.3469 16.0458 19.4502C16.1803 19.5534 16.3877 19.5293 16.3877 19.5293C16.3877 19.5293 16.524 19.3477 16.5145 19.1521C16.505 18.9565 16.3497 18.7469 16.3497 18.7469C16.3497 18.7469 16.2884 18.874 16.283 18.9688C16.2434 18.871 16.0026 18.7373 16.0026 18.7373L16.0026 18.7373ZM17.6282 22.2221L17.6338 22.2968C17.7578 22.2979 17.7763 22.2856 17.8081 22.3247C17.8387 22.3591 17.8883 22.3695 17.9302 22.3503C17.9546 22.339 17.9736 22.3186 17.983 22.2934C17.9924 22.2682 17.9915 22.2403 17.9805 22.2157C17.9574 22.1651 17.9103 22.1541 17.8649 22.163C17.837 22.1685 17.8187 22.1908 17.7951 22.203C17.7502 22.2262 17.6281 22.2221 17.6281 22.2221L17.6282 22.2221Z"
    fill="black"
  />
<path
    d="M17.6174 22.1654L17.6778 22.2096C17.613 22.3154 17.5928 22.3246 17.6091 22.3722C17.6155 22.3938 17.6147 22.4168 17.607 22.4379C17.5992 22.459 17.5849 22.4771 17.5662 22.4895C17.5437 22.5042 17.5163 22.5094 17.4899 22.5041C17.4635 22.4987 17.4404 22.4832 17.4254 22.4608C17.3947 22.4144 17.4103 22.3686 17.4419 22.3349C17.4613 22.3141 17.4898 22.3104 17.5127 22.2968C17.5562 22.271 17.6174 22.1653 17.6174 22.1653L17.6174 22.1654ZM17.1973 21.2787L17.2029 21.3534C17.3269 21.3545 17.3454 21.3422 17.3772 21.3812C17.4078 21.4157 17.4574 21.4261 17.4993 21.4069C17.5502 21.3834 17.5726 21.3234 17.5496 21.2723C17.5265 21.2216 17.4794 21.2107 17.434 21.2196C17.4061 21.2251 17.3878 21.2473 17.3642 21.2595C17.3193 21.2828 17.1973 21.2787 17.1973 21.2787L17.1973 21.2787Z"
    fill="black"
  />
<path
    d="M17.2225 21.3048L17.2753 21.3579C17.1949 21.4524 17.1734 21.4583 17.1822 21.5079C17.1881 21.5537 17.1635 21.598 17.1215 21.6171C17.097 21.6281 17.0691 21.629 17.0439 21.6196C17.0187 21.6102 16.9982 21.5912 16.9869 21.5668C16.9638 21.5162 16.9863 21.4734 17.0228 21.445C17.0452 21.4276 17.074 21.4283 17.0986 21.4184C17.1457 21.3997 17.2225 21.3048 17.2225 21.3048V21.3048ZM16.7798 20.3949L16.7854 20.4696C16.9094 20.4707 16.9279 20.4584 16.9597 20.4975C16.9747 20.5143 16.9946 20.5258 17.0166 20.5304C17.0386 20.535 17.0615 20.5325 17.0819 20.5231C17.1063 20.5118 17.1253 20.4913 17.1347 20.4661C17.1441 20.4409 17.1432 20.413 17.1321 20.3885C17.109 20.3379 17.0619 20.3269 17.0165 20.3358C16.9887 20.3413 16.9704 20.3635 16.9467 20.3758C16.9018 20.399 16.7798 20.3949 16.7798 20.3949L16.7798 20.3949Z"
    fill="black"
  />
<path
    d="M16.8142 20.3794L16.867 20.4325C16.7866 20.527 16.7652 20.5329 16.7739 20.5825C16.7798 20.6282 16.7552 20.6725 16.7132 20.6916C16.6887 20.7026 16.6608 20.7036 16.6356 20.6941C16.6104 20.6847 16.5899 20.6658 16.5786 20.6414C16.5555 20.5907 16.578 20.5479 16.6145 20.5196C16.6369 20.5021 16.6657 20.5028 16.6904 20.493C16.7374 20.4742 16.8142 20.3794 16.8142 20.3794ZM16.335 19.4623L16.3406 19.537C16.4646 19.5381 16.4831 19.5258 16.5149 19.5648C16.5298 19.5816 16.5497 19.5932 16.5717 19.5978C16.5937 19.6024 16.6166 19.5999 16.6371 19.5905C16.6615 19.5792 16.6804 19.5588 16.6898 19.5336C16.6993 19.5083 16.6983 19.4804 16.6873 19.4559C16.6642 19.4052 16.6171 19.3942 16.5717 19.4032C16.5439 19.4087 16.5256 19.431 16.5019 19.4431C16.457 19.4664 16.335 19.4623 16.335 19.4623H16.335Z"
    fill="black"
  />
<path
    d="M16.3695 19.4473L16.4222 19.5004C16.3418 19.5949 16.3204 19.6007 16.3291 19.6504C16.3351 19.6961 16.3105 19.7404 16.2685 19.7595C16.244 19.7705 16.2161 19.7715 16.1909 19.762C16.1657 19.7526 16.1452 19.7337 16.1339 19.7093C16.1108 19.6587 16.1333 19.6158 16.1698 19.5875C16.1922 19.57 16.221 19.5707 16.2456 19.5609C16.2926 19.5422 16.3695 19.4473 16.3695 19.4473L16.3695 19.4473Z"
    fill="black"
  />
<path
    d="M18.0472 23.1042L18.2593 23.2199L18.2078 23.456L17.9957 23.3403L18.0472 23.1042ZM17.1185 21.057C17.074 21.0755 17.0081 20.8819 16.9597 20.7758C16.91 20.667 16.8091 20.4993 16.8378 20.4862C16.8692 20.4718 16.9106 20.5599 16.9615 20.6713C17.0123 20.7826 17.1601 21.0396 17.1185 21.057V21.057ZM16.6619 20.0375C16.6174 20.0561 16.5688 19.9293 16.5204 19.8233C16.4707 19.7144 16.4223 19.6376 16.4509 19.6245C16.4824 19.6101 16.5288 19.7055 16.5695 19.7945C16.6089 19.8808 16.7035 20.0202 16.6618 20.0376L16.6619 20.0375ZM17.7183 22.349C17.6834 22.3583 17.531 22.0395 17.4079 21.7697C17.2847 21.4999 17.193 21.2816 17.2217 21.2686C17.2531 21.2542 17.3528 21.5091 17.476 21.7789C17.5992 22.0487 17.7444 22.342 17.7183 22.349H17.7183Z"
    fill="#FFD200"
  />
<path
    d="M17.8885 22.3132C17.9189 22.3132 17.9435 22.2885 17.9435 22.2581C17.9435 22.2278 17.9189 22.2031 17.8885 22.2031C17.8581 22.2031 17.8335 22.2278 17.8335 22.2581C17.8335 22.2885 17.8581 22.3132 17.8885 22.3132Z"
    fill="#FFD200"
  />
<path
    d="M17.5101 22.4606C17.5405 22.4606 17.5651 22.436 17.5651 22.4056C17.5651 22.3752 17.5405 22.3506 17.5101 22.3506C17.4797 22.3506 17.4551 22.3752 17.4551 22.4056C17.4551 22.436 17.4797 22.4606 17.5101 22.4606Z"
    fill="#FFD200"
  />
<path
    d="M17.4574 21.3688C17.4877 21.3688 17.5124 21.3442 17.5124 21.3138C17.5124 21.2834 17.4877 21.2588 17.4574 21.2588C17.427 21.2588 17.4023 21.2834 17.4023 21.3138C17.4023 21.3442 17.427 21.3688 17.4574 21.3688Z"
    fill="#FFD200"
  />
<path
    d="M17.0789 21.5798C17.1093 21.5798 17.134 21.5551 17.134 21.5247C17.134 21.4944 17.1093 21.4697 17.0789 21.4697C17.0486 21.4697 17.0239 21.4944 17.0239 21.5247C17.0239 21.5551 17.0486 21.5798 17.0789 21.5798Z"
    fill="#FFD200"
  />
<path
    d="M17.0399 20.486C17.0703 20.486 17.0949 20.4614 17.0949 20.431C17.0949 20.4006 17.0703 20.376 17.0399 20.376C17.0095 20.376 16.9849 20.4006 16.9849 20.431C16.9849 20.4614 17.0095 20.486 17.0399 20.486Z"
    fill="#FFD200"
  />
<path
    d="M16.6707 20.655C16.7011 20.655 16.7258 20.6303 16.7258 20.5999C16.7258 20.5696 16.7011 20.5449 16.6707 20.5449C16.6404 20.5449 16.6157 20.5696 16.6157 20.5999C16.6157 20.6303 16.6404 20.655 16.6707 20.655Z"
    fill="#FFD200"
  />
<path
    d="M16.5951 19.5534C16.6254 19.5534 16.6501 19.5288 16.6501 19.4984C16.6501 19.468 16.6254 19.4434 16.5951 19.4434C16.5647 19.4434 16.54 19.468 16.54 19.4984C16.54 19.5288 16.5647 19.5534 16.5951 19.5534Z"
    fill="#FFD200"
  />
<path
    d="M16.2259 19.7223C16.2563 19.7223 16.2809 19.6977 16.2809 19.6673C16.2809 19.6369 16.2563 19.6123 16.2259 19.6123C16.1955 19.6123 16.1709 19.6369 16.1709 19.6673C16.1709 19.6977 16.1955 19.7223 16.2259 19.7223Z"
    fill="#FFD200"
  />
<path
    d="M16.0636 18.8643C16.0636 18.8643 16.0582 19.0163 16.1085 19.1025C16.1588 19.1887 16.2712 19.2231 16.2712 19.2231C16.2712 19.2231 16.2765 19.0712 16.2262 18.985C16.176 18.8987 16.0636 18.8643 16.0636 18.8643ZM15.9585 19.2082C15.9585 19.2082 16.0905 19.2159 16.1668 19.2744C16.2431 19.3328 16.2726 19.4545 16.2726 19.4545C16.2139 19.4576 16.156 19.4401 16.1088 19.405C16.0326 19.3465 15.9585 19.2082 15.9585 19.2082ZM16.3729 18.9012C16.3459 18.9676 16.3327 19.0388 16.3341 19.1105C16.3391 19.219 16.4025 19.3413 16.4025 19.3413C16.4025 19.3413 16.4597 19.211 16.4547 19.1024C16.4496 18.9938 16.3883 18.9319 16.3729 18.9012ZM16.1506 19.8799C16.1947 19.9379 16.2509 19.9857 16.3153 20.0198C16.4151 20.0691 16.5638 20.071 16.5638 20.071C16.516 20.0114 16.4568 19.9619 16.3897 19.9253C16.2899 19.876 16.1506 19.8799 16.1506 19.8799V19.8799ZM16.1827 20.0902C16.1827 20.0902 16.2303 20.1835 16.3175 20.2235C16.4046 20.2635 16.5829 20.2602 16.5829 20.2602C16.5403 20.2077 16.4874 20.1644 16.4274 20.133C16.3402 20.093 16.1827 20.0902 16.1827 20.0902ZM16.6845 19.5924C16.6528 19.6481 16.6364 19.7112 16.637 19.7753C16.6422 19.8713 16.7051 19.9761 16.7051 19.9761C16.7051 19.9761 16.7494 19.8559 16.7442 19.76C16.7398 19.6998 16.7192 19.6418 16.6845 19.5924H16.6845ZM16.8785 19.7155C16.8785 19.7155 16.7884 19.8364 16.7755 19.9608C16.7625 20.0852 16.8267 20.2129 16.8267 20.2129C16.8267 20.2129 16.9356 20.1036 16.9485 19.9792C16.9615 19.8549 16.8785 19.7155 16.8785 19.7155V19.7155ZM16.63 20.8639C16.64 20.8975 16.6564 20.9289 16.6785 20.9561C16.7093 20.9919 16.7435 21.0247 16.7806 21.0539C16.8262 21.0417 16.8741 21.0405 16.9203 21.0506C16.9976 21.0674 17.1006 21.1363 17.1006 21.1363C17.1006 21.1363 16.9898 20.971 16.8748 20.9067C16.7995 20.8679 16.7141 20.853 16.6301 20.8639L16.63 20.8639ZM16.6186 21.1481C16.6186 21.1481 16.762 21.0868 16.8801 21.1026C16.9982 21.1184 17.1047 21.2118 17.1047 21.2118C17.1047 21.2118 16.9451 21.267 16.827 21.2512C16.7492 21.2372 16.6769 21.2014 16.6186 21.1481H16.6186ZM17.2247 20.4814C17.2247 20.4814 17.0979 20.6157 17.0873 20.7323C17.0766 20.8489 17.1901 20.9575 17.1901 20.9575C17.1871 20.9157 17.1918 20.8737 17.2041 20.8335C17.2202 20.7973 17.2407 20.7631 17.2651 20.7317C17.2752 20.6966 17.2789 20.66 17.276 20.6236C17.2663 20.5738 17.249 20.5259 17.2247 20.4814ZM17.4067 20.637C17.4067 20.637 17.2872 20.7579 17.2556 20.8874C17.224 21.0169 17.2803 21.155 17.2803 21.155C17.2803 21.155 17.389 21.0693 17.4206 20.9398C17.4522 20.8103 17.4067 20.637 17.4067 20.637ZM17.7061 21.4176C17.7373 21.4837 17.7601 21.5535 17.7739 21.6252C17.7877 21.7197 17.775 21.7525 17.775 21.7525C17.775 21.7525 17.719 21.8075 17.6939 21.8399C17.6616 21.8815 17.6569 21.9576 17.6569 21.9576C17.6569 21.9576 17.5445 21.7905 17.5618 21.6683C17.5791 21.5461 17.7061 21.4176 17.7061 21.4176V21.4176ZM17.9429 21.6792C17.9429 21.6792 17.799 21.7743 17.7419 21.8718C17.7079 21.9317 17.6981 22.0023 17.7144 22.0692C17.7473 22.0645 17.7787 22.0525 17.8063 22.0341C17.834 22.0156 17.8571 21.9912 17.8741 21.9626C17.9312 21.8652 17.9429 21.6792 17.9429 21.6792L17.9429 21.6792ZM16.9972 22.0807C16.9972 22.0807 17.2046 22.0751 17.3314 22.1063C17.4582 22.1374 17.5043 22.2054 17.5043 22.2054C17.5043 22.2054 17.3618 22.2721 17.235 22.241C17.1082 22.2098 16.9971 22.0807 16.9971 22.0807L16.9972 22.0807ZM16.9621 21.8346C16.9621 21.8346 17.0557 21.9797 17.1767 22.0323C17.3434 22.1049 17.5365 22.0697 17.5365 22.0697C17.5365 22.0697 17.4316 21.9412 17.2873 21.8844C17.143 21.8277 16.9621 21.8346 16.9621 21.8346Z"
    fill="#007A50"
  />
<path
    d="M24.0646 18.9856L24.0916 19.0429C24.0648 19.053 24.0422 19.0721 24.0278 19.0969C24.008 19.1359 24.0408 19.191 24.0408 19.191C24.0408 19.191 23.8127 19.1711 23.7771 19.1942C23.7449 19.2151 23.7908 19.3731 23.7695 19.5066C23.7399 19.6925 23.6666 19.6769 23.6636 19.713C23.6607 19.748 23.6917 19.8027 23.6917 19.8027C23.6917 19.8027 23.6489 19.8161 23.6398 19.834C23.6252 19.8628 23.65 19.9158 23.6323 19.9507L23.2897 20.623C23.2761 20.6495 23.2398 20.6596 23.2216 20.6954C23.212 20.7214 23.2109 20.7497 23.2183 20.7764C23.2183 20.7764 23.1541 20.7803 23.1319 20.824C23.1179 20.8586 23.1145 20.8966 23.1221 20.9331C23.1093 20.9354 23.0972 20.9406 23.0867 20.9483C23.0762 20.9559 23.0676 20.9659 23.0616 20.9774C23.0403 21.0193 23.0764 21.0412 23.0671 21.0596L22.6899 21.7999C22.6554 21.8674 22.535 21.881 22.465 22.0182C22.4455 22.0551 22.4378 22.0971 22.443 22.1385C22.4483 22.1798 22.4661 22.2186 22.4942 22.2495C22.4942 22.2495 22.3935 22.2586 22.3667 22.3111C22.3394 22.3646 22.361 22.4459 22.4337 22.4829C22.5064 22.52 22.5859 22.49 22.6132 22.4365C22.6399 22.384 22.5861 22.297 22.5861 22.297C22.6277 22.3012 22.6695 22.2926 22.706 22.2723C22.7425 22.252 22.772 22.2211 22.7904 22.1835C22.8603 22.0463 22.8013 21.942 22.8357 21.8745L23.2129 21.1341C23.2223 21.1157 23.2608 21.1317 23.2821 21.0898C23.2879 21.0783 23.2909 21.0655 23.2909 21.0526C23.2909 21.0396 23.2879 21.0269 23.2821 21.0153C23.3164 20.9999 23.3454 20.9747 23.3653 20.9428C23.3876 20.8991 23.3535 20.8445 23.3535 20.8445C23.3795 20.8352 23.4018 20.8178 23.4172 20.7948C23.4354 20.7591 23.422 20.7241 23.4356 20.6975L23.7782 20.0253C23.796 19.9904 23.8532 19.9784 23.8679 19.9496C23.877 19.9318 23.8625 19.8891 23.8625 19.8891C23.8625 19.8891 23.9256 19.8829 23.9522 19.8599C23.9796 19.8363 23.9239 19.7857 24.057 19.6524C24.1525 19.5568 24.3065 19.5006 24.3045 19.4622C24.3023 19.4198 24.1521 19.2472 24.1521 19.2472C24.1521 19.2472 24.2155 19.2418 24.2353 19.2029C24.247 19.1763 24.2493 19.1466 24.2418 19.1186L24.3045 19.1077V18.8105L24.0646 18.9856ZM21.9928 23.125C21.9877 23.1352 21.9851 23.1465 21.9851 23.1579C21.9851 23.1694 21.9877 23.1806 21.9928 23.1909C21.9928 23.1909 21.9172 23.1672 21.8912 23.1801C21.8668 23.1922 21.8912 23.5486 21.8912 23.5486C21.8912 23.5486 22.193 23.3582 22.1884 23.3314C22.1836 23.3028 22.1203 23.2546 22.1203 23.2546C22.1315 23.2529 22.1421 23.2486 22.1513 23.242C22.1605 23.2355 22.168 23.2268 22.1733 23.2168C22.1832 23.1973 22.1846 23.1415 22.116 23.1066C22.0956 23.0952 22.0723 23.09 22.049 23.0914C22.026 23.0929 22.0051 23.1054 21.9928 23.125Z"
    fill="black"
  />
<path
    d="M24.1193 18.9972L24.2619 19.0697L24.2598 18.8978L24.1193 18.9972ZM24.0642 19.101C24.039 19.139 24.0494 19.1901 24.0874 19.2153C24.1254 19.2404 24.1765 19.23 24.2017 19.192C24.2268 19.1541 24.2164 19.1029 24.1785 19.0778C24.1758 19.076 24.173 19.0744 24.1701 19.0729C24.1558 19.0655 24.1397 19.0621 24.1236 19.0632C24.0985 19.0643 24.0759 19.0787 24.0642 19.101L24.0642 19.101ZM23.8189 19.2318C23.8039 19.2415 23.8243 19.37 23.8199 19.4792C23.8158 19.5823 23.7829 19.6113 23.7648 19.6468C23.7482 19.6795 23.6881 19.7181 23.6881 19.7181L23.7378 19.7678C23.7378 19.7678 23.7701 19.7174 23.821 19.6175C23.881 19.4998 23.8791 19.2863 23.8967 19.275C23.9428 19.2588 23.9897 19.2451 24.0372 19.2339C24.0372 19.2339 23.9223 19.2277 23.8589 19.2285C23.8454 19.2277 23.832 19.2288 23.8189 19.2318V19.2318ZM23.832 19.8251C23.8539 19.7705 23.8788 19.7171 23.9065 19.6651C23.9764 19.5279 24.1257 19.4284 24.1291 19.4036C24.1328 19.378 24.0773 19.2577 24.0773 19.2577C24.0773 19.2577 23.9456 19.283 23.927 19.301C23.909 19.3183 23.9169 19.4966 23.847 19.6338C23.8211 19.6872 23.7922 19.7392 23.7606 19.7894L23.832 19.8251ZM24.168 19.4133C24.1691 19.4342 23.9957 19.5582 23.9357 19.6759C23.8848 19.7758 23.8633 19.8316 23.8633 19.8316L23.9324 19.8424C23.9324 19.8424 23.9277 19.7713 23.9443 19.7386C23.9624 19.7032 23.9671 19.6599 24.0481 19.596C24.134 19.5282 24.2501 19.469 24.2491 19.4511C24.2482 19.4346 24.1194 19.275 24.1194 19.275C24.138 19.3202 24.1543 19.3664 24.168 19.4133ZM23.6601 20.1839C23.7643 19.9794 23.7961 19.9654 23.8093 19.9397C23.8234 19.912 23.82 19.8747 23.7736 19.851C23.7598 19.8433 23.744 19.84 23.7282 19.8413C23.7183 19.8425 23.7088 19.8462 23.7006 19.8521C23.6925 19.8579 23.686 19.8657 23.6817 19.8748C23.6686 19.9006 23.6757 19.9351 23.5715 20.1396L23.3348 20.6032C23.3315 20.6088 23.3294 20.615 23.3286 20.6214C23.3277 20.6278 23.3281 20.6343 23.3298 20.6406C23.3315 20.6468 23.3344 20.6527 23.3383 20.6578C23.3422 20.6629 23.3471 20.6672 23.3527 20.6705C23.3539 20.6712 23.3551 20.6718 23.3564 20.6724C23.3673 20.6785 23.3802 20.68 23.3923 20.6766C23.4044 20.6732 23.4146 20.6652 23.4207 20.6542C23.4217 20.6524 23.4226 20.6505 23.4234 20.6486L23.6601 20.1839ZM23.2419 20.7156C23.229 20.741 23.2511 20.7782 23.2916 20.7989C23.3321 20.8195 23.376 20.8156 23.3889 20.7902C23.4018 20.7649 23.3786 20.7276 23.3381 20.707C23.3202 20.6973 23.3 20.6929 23.2797 20.694C23.2642 20.6941 23.2499 20.7023 23.2419 20.7156ZM23.1543 20.8475C23.1376 20.8803 23.1636 20.9273 23.2127 20.9524C23.2617 20.9774 23.3148 20.9711 23.3315 20.9383C23.3482 20.9055 23.3222 20.8584 23.2732 20.8334C23.2564 20.8246 23.238 20.8194 23.2191 20.8183C23.1937 20.8145 23.1684 20.8259 23.1543 20.8475ZM23.0992 20.9945C23.0863 21.0198 23.1084 21.057 23.1489 21.0777C23.1894 21.0983 23.2332 21.0944 23.2462 21.0691C23.2591 21.0437 23.237 21.0065 23.1965 20.9858C23.1782 20.9762 23.1576 20.9717 23.137 20.9729C23.1294 20.9729 23.1219 20.9749 23.1153 20.9787C23.1087 20.9825 23.1031 20.9879 23.0992 20.9945ZM23.0635 21.135L22.708 21.8342C22.6784 21.8923 22.5536 21.9286 22.5048 22.0244C22.4556 22.1209 22.4903 22.2111 22.5545 22.2438C22.6187 22.2765 22.7129 22.2528 22.762 22.1563C22.8109 22.0605 22.767 21.9377 22.7966 21.8796L23.1522 21.1804C23.1589 21.1694 23.161 21.1562 23.1579 21.1437C23.1549 21.1312 23.1471 21.1204 23.1361 21.1136C23.1347 21.1128 23.1332 21.1119 23.1316 21.1112C23.1223 21.1063 23.1118 21.1044 23.1014 21.1058C23.0849 21.1092 23.071 21.12 23.0635 21.135V21.135ZM22.3987 22.3357C22.379 22.3743 22.4015 22.4258 22.4495 22.4502C22.4974 22.4746 22.553 22.4629 22.5727 22.4243C22.5924 22.3857 22.5688 22.3341 22.5208 22.3097C22.5042 22.3009 22.4856 22.2965 22.4668 22.2967C22.4387 22.2962 22.4125 22.3111 22.3987 22.3357ZM22.0486 23.1257C22.0424 23.1251 22.0361 23.1263 22.0304 23.1289C22.0247 23.1316 22.0198 23.1357 22.0162 23.1408C22.0062 23.1606 22.027 23.1918 22.0627 23.21C22.0984 23.2282 22.1358 23.2265 22.1459 23.2067C22.156 23.187 22.1351 23.1558 22.0994 23.1376C22.0838 23.1294 22.0663 23.1253 22.0486 23.1257ZM21.9254 23.2229V23.478L22.133 23.3288C22.1108 23.2944 22.0799 23.2665 22.0435 23.2479C22.007 23.2293 21.9663 23.2207 21.9254 23.2229ZM22.0568 17.5424C22.0568 17.4025 22.2405 17.2646 22.2405 17.2646H17.7598C17.7598 17.2646 17.9435 17.4025 17.9435 17.5424V20.8777C17.9419 20.9509 17.9668 21.0223 18.0138 21.0787C18.0568 21.1389 18.1487 21.2221 18.2439 21.284C18.5382 21.4751 19.0302 21.6767 19.4025 21.846C19.7127 21.9871 19.8389 22.044 20.0001 22.2437C20.1614 22.044 20.2887 21.9871 20.5989 21.846C20.9711 21.6767 21.4631 21.4751 21.7574 21.284C21.8527 21.2221 21.9446 21.1389 21.9876 21.0787C22.0342 21.0222 22.0587 20.9508 22.0568 20.8777V17.5424Z"
    fill="#FFD200"
  />
<path
    d="M18.0496 19.4299V17.5429C18.0507 17.4813 18.0317 17.421 17.9956 17.3711H22.0052C21.9691 17.421 21.9501 17.4813 21.9512 17.5429L21.9523 19.4299L20.001 20.021L18.0497 19.4299H18.0496Z"
    fill="#CC092F"
  />
<path
    d="M21.9519 19.4299L20.7437 19.4072H19.2576L18.0493 19.4299V20.8782C18.0493 20.951 18.1249 21.1215 18.5605 21.3385C19.2806 21.6974 19.8342 21.8649 20.0001 22.0691C20.166 21.8649 20.7195 21.6974 21.4396 21.3385C21.8753 21.1215 21.9508 20.951 21.9508 20.8782L21.9519 19.4299Z"
    fill="#0046AE"
  />
<path
    d="M20.7145 19.354C20.7145 19.354 21.4116 19.1783 21.4116 18.4332C21.4116 17.8513 20.7128 17.5627 20.6929 17.4238C20.6246 17.6641 20.9263 17.9959 20.9263 18.3889C20.9263 18.8974 20.5513 18.9217 20.5513 18.9217C20.4636 18.9217 20.428 18.9844 20.3935 18.9844C20.3197 18.9767 20.2849 18.8828 20.2119 18.8828C20.1434 18.8828 20.0908 18.9887 20.0001 18.9887C19.9095 18.9887 19.8579 18.8828 19.7894 18.8828C19.7164 18.8828 19.6816 18.9767 19.6078 18.9844C19.5733 18.9844 19.5378 18.9217 19.45 18.9217C19.45 18.9217 19.075 18.8974 19.075 18.3889C19.075 17.9959 19.3768 17.6641 19.3084 17.4238C19.2886 17.5627 18.5898 17.8513 18.5898 18.4332C18.5898 19.1783 19.2869 19.354 19.2869 19.354L19.088 19.7161C19.088 19.7161 19.3761 19.7305 19.529 19.8609C19.7133 20.0181 19.6954 20.3513 19.6954 20.5937C19.6954 20.7846 19.6712 20.9861 19.5733 21.0692C19.4417 21.1807 19.3528 21.189 19.3528 21.3199C19.3528 21.4291 19.4367 21.451 19.5733 21.5231C19.7482 21.6154 19.7401 21.7392 20.0001 21.7392C20.2602 21.7392 20.2531 21.6155 20.4281 21.5231C20.5647 21.451 20.6486 21.4291 20.6486 21.3199C20.6486 21.189 20.5596 21.1807 20.4281 21.0692C20.3301 20.9861 20.306 20.7846 20.306 20.5937C20.306 20.3513 20.2881 20.0181 20.4724 19.8609C20.6253 19.7305 20.9134 19.7161 20.9134 19.7161L20.7145 19.354ZM20.0001 17.4756L19.879 17.8193L19.5494 17.6625L19.7061 17.9922L19.3624 18.1143L19.7061 18.2364L19.5494 18.565L19.879 18.4083L20.0001 18.7519L20.1222 18.4083L20.4518 18.565L20.2951 18.2364L20.6388 18.1143L20.2951 17.9922L20.4518 17.6625L20.1222 17.8193L20.0001 17.4756ZM19.2576 19.407C19.2576 19.407 18.8272 19.3018 18.6664 19.0893C18.4875 19.2456 18.277 19.3617 18.0493 19.4297C18.0493 19.4297 18.3999 19.588 18.6664 19.7896C18.7892 19.6136 19.2576 19.407 19.2576 19.407Z"
    fill="black"
  />
<path
    d="M20.7435 19.4066C20.7435 19.4066 21.2119 19.6132 21.3347 19.7892C21.6012 19.5876 21.9518 19.4293 21.9518 19.4293C21.7241 19.3613 21.5137 19.2452 21.3347 19.0889C21.174 19.3014 20.7435 19.4066 20.7435 19.4066ZM19.4338 19.8647L19.2663 20.0322L19.4338 20.1997L19.6013 20.0322L19.4338 19.8647ZM20.5675 19.8647L20.4 20.0322L20.5675 20.1997L20.735 20.0322L20.5675 19.8647ZM19.3916 20.8428C19.3936 20.9509 19.3867 21.059 19.3711 21.1659C19.3711 21.1659 19.6073 21.0964 19.6543 20.8569C19.6763 20.7445 19.7009 20.3308 19.5873 20.2603L19.2793 20.1998C19.3538 20.406 19.3918 20.6236 19.3917 20.8428H19.3916ZM20.414 20.2603C20.3004 20.3308 20.3249 20.7445 20.347 20.8569C20.394 21.0964 20.6301 21.166 20.6301 21.166C20.6145 21.059 20.6076 20.9509 20.6096 20.8428C20.6094 20.6236 20.6475 20.406 20.722 20.1998L20.414 20.2603ZM18.6655 20.2723C18.5601 20.2976 18.4953 20.4035 18.5206 20.5088C18.5248 20.5262 18.5314 20.543 18.5401 20.5587C18.5244 20.5534 18.508 20.5501 18.4915 20.5489C18.4846 20.5486 18.4778 20.5486 18.4709 20.5489C18.4438 20.5499 18.4171 20.5564 18.3926 20.5682C18.3681 20.5799 18.3462 20.5965 18.3284 20.617C18.3106 20.6375 18.2972 20.6615 18.289 20.6874C18.2808 20.7133 18.278 20.7406 18.2809 20.7676C18.2837 20.7946 18.292 20.8208 18.3054 20.8445C18.3187 20.8681 18.3368 20.8888 18.3585 20.9052C18.3802 20.9216 18.405 20.9333 18.4314 20.9397C18.4578 20.9461 18.4852 20.947 18.512 20.9423C18.5024 20.9553 18.4944 20.9695 18.4883 20.9845C18.4684 21.0332 18.4687 21.0879 18.4891 21.1364C18.5095 21.185 18.5484 21.2234 18.5971 21.2433C18.6459 21.2632 18.7006 21.2629 18.7491 21.2425C18.7977 21.2221 18.8361 21.1832 18.856 21.1344L18.8568 21.1326C18.8627 21.1176 18.8667 21.102 18.8687 21.0861C18.8783 21.0993 18.8896 21.1113 18.9022 21.1217C18.9851 21.1932 19.1103 21.1839 19.1818 21.1009C19.2533 21.018 19.244 20.8928 19.161 20.8213C19.1475 20.8096 19.1324 20.7998 19.1161 20.7921C19.1317 20.7871 19.1466 20.7802 19.1604 20.7716C19.205 20.7434 19.2366 20.6987 19.2484 20.6473C19.2601 20.5958 19.251 20.5418 19.2231 20.4971C19.1845 20.4355 19.1151 20.4002 19.0426 20.4052C19.0096 20.4074 18.9777 20.4179 18.9497 20.4355C18.9359 20.444 18.9232 20.4541 18.9119 20.4657C18.9116 20.4127 18.8903 20.362 18.8527 20.3247C18.815 20.2874 18.7641 20.2665 18.7111 20.2668C18.6957 20.2668 18.6804 20.2687 18.6655 20.2722V20.2723ZM20.7728 20.8493C20.7942 21.0517 20.9587 21.2213 21.1618 21.2697C21.1266 21.213 21.1044 21.1492 21.097 21.0828C21.0715 20.8428 21.2572 20.6483 21.5109 20.6483C21.5502 20.6484 21.5894 20.6531 21.6276 20.6624C21.533 20.5093 21.3666 20.4155 21.1867 20.4138C20.9329 20.4138 20.7473 20.6093 20.7728 20.8493V20.8493Z"
    fill="black"
  />
<path
    d="M18.9733 18.3882C18.9733 18.7709 19.1774 18.9966 19.4499 18.9966C19.5019 18.9966 19.5588 19.0669 19.6077 19.0669C19.6876 19.0669 19.7407 18.9782 19.7893 18.9782C19.8511 18.9782 19.8928 19.0755 20.0001 19.0755C20.1073 19.0755 20.1501 18.9782 20.2119 18.9782C20.2605 18.9782 20.3136 19.0669 20.3934 19.0669C20.4424 19.0669 20.4992 18.9966 20.5512 18.9966C20.8238 18.9966 21.0279 18.7709 21.0279 18.3882C21.0279 18.0761 20.7658 17.6955 20.7944 17.6338C20.7944 17.6338 21.3056 18.0005 21.3056 18.4325C21.3056 19.1283 20.5999 19.3003 20.5999 19.3003L20.7587 19.658C20.7587 19.658 20.54 19.6908 20.4064 19.7985C20.2283 19.9422 20.2259 20.3303 20.2259 20.5929C20.2259 20.9021 20.2374 21.0331 20.3491 21.117C20.4669 21.2056 20.5555 21.2246 20.5555 21.3148C20.5555 21.3934 20.4638 21.4256 20.3448 21.478C20.2094 21.5377 20.1959 21.6412 20.0001 21.6412C19.8042 21.6412 19.7917 21.5377 19.6564 21.478C19.5374 21.4256 19.4456 21.3934 19.4456 21.3148C19.4456 21.2246 19.5342 21.2056 19.652 21.117C19.7637 21.0331 19.7752 20.9021 19.7752 20.5929C19.7752 20.3303 19.7729 19.9422 19.5947 19.7985C19.4611 19.6908 19.2424 19.658 19.2424 19.658L19.4013 19.3003C19.4013 19.3003 18.6956 19.1284 18.6956 18.4325C18.6956 18.0005 19.2068 17.6338 19.2068 17.6338C19.2354 17.6955 18.9733 18.0761 18.9733 18.3882ZM19.7331 21.2619C19.5944 21.2619 19.5061 21.2912 19.5061 21.3333C19.5061 21.3753 19.5945 21.4035 19.7331 21.4035C19.77 21.4035 19.812 21.382 19.812 21.3333C19.8115 21.3138 19.8034 21.2954 19.7893 21.282C19.7753 21.2686 19.7565 21.2613 19.737 21.2617C19.7357 21.2618 19.7344 21.2618 19.7331 21.2619ZM20.268 21.2619C20.2584 21.2612 20.2488 21.2623 20.2397 21.2653C20.2305 21.2683 20.222 21.2731 20.2147 21.2793C20.2074 21.2856 20.2014 21.2932 20.1971 21.3018C20.1927 21.3104 20.1901 21.3197 20.1893 21.3293C20.1892 21.3306 20.1892 21.332 20.1891 21.3333C20.1891 21.382 20.2311 21.4035 20.268 21.4035C20.4067 21.4035 20.495 21.3754 20.495 21.3333C20.495 21.2912 20.4067 21.2619 20.268 21.2619ZM20.0012 17.7062L20.079 17.9256L20.2887 17.8251L20.1892 18.0358L20.4076 18.1137L20.1892 18.1915L20.2887 18.4012L20.079 18.3017L20.0001 18.52L19.9223 18.3017L19.7126 18.4012L19.8121 18.1915L19.5938 18.1137L19.8121 18.0358L19.7126 17.8251L19.9223 17.9256L20.0012 17.7062ZM18.2544 19.4352C18.2544 19.4352 18.5206 19.5678 18.6543 19.6859L18.6618 19.6924L18.6661 19.687C18.7925 19.542 19.0271 19.419 19.0271 19.419C19.0271 19.419 18.8017 19.3568 18.6597 19.1942C18.5095 19.3472 18.2544 19.4352 18.2544 19.4352ZM21.7464 19.4355C21.7464 19.4355 21.4802 19.5681 21.3465 19.6862L21.339 19.6927L21.3347 19.6873C21.2083 19.5423 20.9737 19.4193 20.9737 19.4193C20.9737 19.4193 21.1991 19.3571 21.3411 19.1945C21.4913 19.3475 21.7464 19.4355 21.7464 19.4355ZM19.4337 19.9444L19.5213 20.0319L19.4337 20.1205L19.3451 20.0319L19.4337 19.9444ZM20.5674 19.9444L20.656 20.0319L20.5674 20.1205L20.4799 20.0319L20.5674 19.9444ZM19.5526 20.3269C19.6138 20.4113 19.6034 20.5478 19.6034 20.7376C19.6052 20.7906 19.5929 20.843 19.5676 20.8896C19.5423 20.9361 19.5051 20.9751 19.4597 21.0024C19.4597 20.5423 19.4123 20.4317 19.3873 20.2923L19.5526 20.3269ZM20.6138 20.2923C20.5888 20.4317 20.5414 20.5423 20.5414 21.0024C20.4961 20.9751 20.4588 20.9361 20.4335 20.8896C20.4082 20.843 20.3959 20.7905 20.3977 20.7376C20.3977 20.5477 20.3873 20.4113 20.4485 20.3269L20.6138 20.2923ZM18.8728 20.4664C18.8768 20.4831 18.8779 20.5002 18.8761 20.5172C18.8747 20.5306 18.8714 20.5437 18.8664 20.5561C18.7798 20.5254 18.6832 20.5502 18.6221 20.6188C18.6113 20.6094 18.6018 20.5985 18.594 20.5864C18.5847 20.5725 18.5778 20.5572 18.5735 20.541C18.5637 20.5013 18.57 20.4593 18.5911 20.4243C18.6122 20.3892 18.6463 20.364 18.686 20.3541C18.7257 20.3443 18.7676 20.3506 18.8027 20.3717C18.8377 20.3927 18.8629 20.4268 18.8728 20.4664ZM19.1033 20.7548C19.0887 20.7637 19.0727 20.77 19.0559 20.7735C19.0428 20.7763 19.0293 20.7772 19.0159 20.7763C19.0184 20.6845 18.965 20.6003 18.8808 20.5634C18.8865 20.5502 18.8939 20.5378 18.903 20.5267C18.9133 20.5135 18.9258 20.5022 18.9398 20.4931C18.9745 20.4714 19.0164 20.4644 19.0562 20.4737C19.0961 20.4829 19.1307 20.5075 19.1524 20.5422C19.174 20.5769 19.181 20.6188 19.1718 20.6586C19.1626 20.6985 19.1379 20.7331 19.1033 20.7547V20.7548ZM18.9002 21.063C18.8873 21.0519 18.8763 21.0386 18.8678 21.0238C18.8611 21.0122 18.856 20.9996 18.8527 20.9866C18.9408 20.9605 19.0044 20.8837 19.0135 20.7923C19.0278 20.7936 19.0419 20.7969 19.0553 20.8021C19.071 20.8078 19.0856 20.8162 19.0986 20.8267C19.1298 20.8531 19.1493 20.8908 19.1528 20.9316C19.1562 20.9723 19.1434 21.0128 19.117 21.0441C19.0907 21.0752 19.0531 21.0947 19.0125 21.0982C18.9719 21.1018 18.9316 21.0891 18.9002 21.063ZM18.5444 20.9652C18.5509 20.9494 18.5601 20.9348 18.5716 20.9222C18.5806 20.9122 18.5909 20.9035 18.6023 20.8964C18.6543 20.9721 18.747 21.0088 18.8368 20.9892C18.84 21.0032 18.8412 21.0176 18.8404 21.032C18.8398 21.0487 18.8364 21.0652 18.8304 21.0808C18.815 21.1187 18.7852 21.1489 18.7475 21.1649C18.7099 21.1808 18.6674 21.1812 18.6295 21.1658C18.5916 21.1505 18.5614 21.1207 18.5454 21.0831C18.5295 21.0455 18.5291 21.003 18.5444 20.9651V20.9652ZM18.5274 20.5965C18.5445 20.5978 18.5611 20.6021 18.5767 20.6091C18.589 20.6146 18.6004 20.6217 18.6107 20.6304C18.5548 20.7032 18.5485 20.8027 18.5949 20.882C18.5825 20.8894 18.5692 20.895 18.5554 20.8987C18.5393 20.9033 18.5225 20.9051 18.5058 20.9042C18.4651 20.9013 18.4271 20.8823 18.4003 20.8514C18.3735 20.8205 18.36 20.7803 18.3629 20.7395C18.3658 20.6987 18.3848 20.6608 18.4156 20.634C18.4465 20.6072 18.4867 20.5937 18.5274 20.5965V20.5965Z"
    fill="#FFD200"
  />
<path
    d="M18.7898 20.9184C18.8721 20.9184 18.9389 20.8516 18.9389 20.7693C18.9389 20.6869 18.8721 20.6201 18.7898 20.6201C18.7074 20.6201 18.6406 20.6869 18.6406 20.7693C18.6406 20.8516 18.7074 20.9184 18.7898 20.9184Z"
    fill="#FFD200"
  />
<path
    d="M21.4082 20.5678C21.1606 20.6157 20.9824 20.8344 21.0083 21.0898C20.9294 21.0244 20.8716 20.9364 20.8613 20.8391C20.8412 20.6495 20.9789 20.5029 21.1866 20.5029C21.265 20.5036 21.3417 20.5261 21.4082 20.5678Z"
    fill="#FFD200"
  />
<path
    d="M22.153 17.2985H17.8475C17.9046 17.356 17.9771 17.4477 17.9771 17.5427V20.4392H17.9769V20.878H17.9771C17.9764 20.9123 17.9819 20.9465 17.9934 20.979C18.0045 21.0077 18.0199 21.0345 18.0391 21.0586L18.0399 21.0596C18.0819 21.1131 18.1307 21.1609 18.185 21.2018C18.1973 21.2115 18.2098 21.2208 18.2225 21.23C18.2351 21.239 18.2479 21.2477 18.2609 21.2562L18.2611 21.2564C18.4903 21.4051 18.8433 21.5615 19.164 21.7036L19.4151 21.8157L19.4153 21.8159V21.8158L19.4224 21.8191H19.4225C19.716 21.9526 19.847 22.0122 20.0002 22.1917C20.154 22.0115 20.2844 21.9522 20.5807 21.8174L20.5807 21.8174L20.584 21.8158L20.8352 21.7037C21.1559 21.5616 21.5089 21.4052 21.7381 21.2564L21.7383 21.2563C21.8026 21.2145 21.8621 21.1658 21.9158 21.111C21.9242 21.1023 21.9324 21.0933 21.9402 21.0841C21.9472 21.0759 21.9537 21.0676 21.9594 21.0596L21.9599 21.0591L21.96 21.059L21.9603 21.0586C21.9797 21.0344 21.9953 21.0075 22.0067 20.9787C22.0184 20.9464 22.0241 20.9123 22.0235 20.878H22.0236V20.4392H22.0235V17.5427C22.0235 17.4477 22.096 17.356 22.153 17.2985ZM22.0905 17.5427V20.4392H22.0904V20.878H22.0905C22.0911 20.9204 22.0839 20.9625 22.0693 21.0022C22.0557 21.037 22.037 21.0694 22.0138 21.0986L22.0138 21.0987C22.0067 21.1085 21.9992 21.1181 21.9913 21.1273C21.9825 21.1376 21.9734 21.1476 21.964 21.1574C21.9068 21.2158 21.8433 21.2678 21.7747 21.3124L21.7745 21.3125C21.5404 21.4645 21.185 21.622 20.8622 21.765L20.6118 21.8769L20.6084 21.8784H20.6083C20.3057 22.0161 20.1819 22.0723 20.0263 22.265L20.0003 22.2973L19.9742 22.2651C19.8193 22.0733 19.6948 22.0166 19.3948 21.8801L19.3948 21.8801L19.3877 21.8769L19.3875 21.8768L19.3874 21.8767L19.3874 21.8768L19.137 21.7649C18.8142 21.6219 18.4588 21.4644 18.2247 21.3124L18.2239 21.3119L18.2236 21.3117C18.2104 21.3032 18.197 21.294 18.1834 21.2842C18.1699 21.2745 18.1567 21.2646 18.1438 21.2545C18.0844 21.2096 18.0312 21.1572 17.9854 21.0984H17.9855C17.9623 21.0693 17.9438 21.0368 17.9305 21.002C17.9163 20.9623 17.9093 20.9203 17.91 20.878H17.9101V20.4392H17.91V17.5427C17.91 17.4194 17.7402 17.292 17.7397 17.2917V17.2314H22.2607V17.2917C22.2602 17.292 22.0905 17.4194 22.0905 17.5427H22.0905ZM21.9891 17.3375L21.9892 17.3374H22.0051L22.0745 17.3373L22.0312 17.3917C21.9997 17.4357 21.9833 17.4887 21.9846 17.5427V20.4392H21.9845V20.878H21.9846C21.9846 20.9373 21.943 21.0519 21.7475 21.1948L21.7475 21.1948C21.7109 21.2215 21.6687 21.2495 21.6201 21.2785C21.5712 21.3077 21.5165 21.3376 21.4555 21.3681L21.4554 21.3679L21.4548 21.3683V21.3684C21.1935 21.4986 20.9521 21.6045 20.7438 21.6958C20.3859 21.8527 20.1267 21.9664 20.0263 22.0899L20.0258 22.0906L20.0257 22.0907L19.9996 22.1211L19.9743 22.0901C19.8739 21.9664 19.6146 21.8527 19.2566 21.6957C19.0484 21.6044 18.8073 21.4987 18.5462 21.3686V21.3685L18.5458 21.3682L18.5457 21.3684C18.3605 21.2761 18.2386 21.1914 18.1594 21.1187C18.1449 21.1053 18.1308 21.0914 18.1173 21.077C18.0369 20.9905 18.0161 20.9207 18.016 20.8781H18.0159V20.878H18.016V20.4391H18.0159V17.5427C18.0172 17.4887 18.0008 17.4357 17.9694 17.3917L17.926 17.3375H18.07V17.3374H21.9305V17.3375H21.989H21.9891ZM21.9306 17.4043V17.4044H18.07V17.4043H18.0533C18.0729 17.4478 18.083 17.495 18.083 17.5427V20.4392H18.0828V20.878H18.083V20.8781H18.0828C18.0829 20.9082 18.1 20.9602 18.1663 21.0314C18.1777 21.0436 18.1905 21.0564 18.2048 21.0695C18.2797 21.1383 18.3964 21.2191 18.5756 21.3084V21.3085L18.5761 21.3087L18.5761 21.3086C18.8387 21.4395 19.0773 21.5441 19.2834 21.6345C19.624 21.7838 19.8773 21.8949 20.0003 22.0191C20.1233 21.8949 20.3766 21.7839 20.7171 21.6345C20.9233 21.5441 21.1621 21.4393 21.4249 21.3084L21.425 21.3085L21.4256 21.3082V21.308C21.4864 21.2777 21.5396 21.2487 21.5858 21.2211C21.6324 21.1933 21.673 21.1665 21.708 21.1409H21.7081C21.8809 21.0147 21.9176 20.9234 21.9176 20.878H21.9177V20.4391H21.9176V17.5427C21.9175 17.495 21.9276 17.4478 21.9472 17.4043H21.9306Z"
    fill="black"
  />
<defs>
<clipPath id="clip0_17507_12729">
<rect width="38" height="25" fill="white" transform="translate(1 7.5)" />
</clipPath>
</defs>
</svg>
