<svg
  width="40"
  height="41"
  viewBox="0 0 40 41"
  fill="none"
  xmlns="http://www.w3.org/2000/svg"
>
<g clip-path="url(#clip0_17507_13412)">
<path d="M1 1.08887H39V39.0889H1V1.08887Z" fill="#CC092F" />
<path d="M1 1.08887H26.3333V39.0889H1V1.08887Z" fill="#FFD200" />
<path d="M1 1.08887H13.6667V39.0889H1V1.08887Z" fill="#0046AE" />
</g>
<path
    d="M18.8966 14.7689C18.8393 14.7663 18.7826 14.7818 18.7345 14.8132C18.7914 14.83 18.8302 14.8825 18.8296 14.9418V15.0985H18.6729C18.614 15.0991 18.5616 15.0608 18.5443 15.0045C18.4852 15.1045 18.4852 15.2287 18.5443 15.3287C18.5611 15.2718 18.6136 15.233 18.6729 15.2336H18.8296V15.9868C18.8299 16.0145 18.8214 16.0416 18.8055 16.0642C18.7897 16.0869 18.7671 16.104 18.741 16.1133C18.8158 16.1234 18.8801 16.2238 18.8977 16.2786C18.9154 16.2239 18.9797 16.1234 19.0544 16.1133C19.0281 16.1043 19.0053 16.0872 18.9892 16.0645C18.9731 16.0418 18.9645 16.0147 18.9647 15.9868V15.2335H19.1214C19.1804 15.2329 19.2328 15.2712 19.2501 15.3276C19.3091 15.2276 19.3091 15.1034 19.2501 15.0034C19.2333 15.0602 19.1807 15.0991 19.1214 15.0984H18.9647V14.9418C18.9641 14.8828 19.0024 14.8304 19.0588 14.8131C19.0107 14.7817 18.954 14.7662 18.8966 14.7688V14.7689Z"
    fill="black"
  />
<path
    d="M18.8964 14.8008C18.8649 14.8009 18.8335 14.806 18.8035 14.8159C18.8217 14.8314 18.8363 14.8506 18.8464 14.8722C18.8565 14.8939 18.8618 14.9174 18.8619 14.9413V15.098C18.8617 15.1002 18.8614 15.1024 18.8608 15.1045V15.1294H18.8359C18.8338 15.1299 18.8316 15.1303 18.8294 15.1305H18.6727C18.625 15.1301 18.5797 15.1093 18.5484 15.0732C18.538 15.1031 18.5325 15.1345 18.5322 15.1661C18.5324 15.1977 18.5375 15.2291 18.5473 15.2591C18.5786 15.2223 18.6244 15.201 18.6727 15.2007H18.8618C18.8616 15.204 18.8607 15.2071 18.8607 15.2104V15.2266C18.8613 15.2288 18.8617 15.2309 18.8618 15.2331V15.9864C18.8603 16.0322 18.839 16.0752 18.8035 16.1042C18.8268 16.1187 18.8476 16.137 18.8651 16.1582C18.8778 16.1758 18.8886 16.1946 18.8975 16.2144C18.9063 16.1946 18.9172 16.1758 18.9299 16.1582C18.9471 16.1375 18.9676 16.1196 18.9904 16.1053C18.9728 16.0908 18.9584 16.0727 18.9484 16.0522C18.9383 16.0317 18.9327 16.0092 18.9321 15.9864V15.2017H18.958C18.9601 15.2012 18.9623 15.2008 18.9645 15.2007H19.1212C19.1448 15.2008 19.1681 15.206 19.1895 15.2159C19.2109 15.2258 19.23 15.2401 19.2455 15.2579C19.2559 15.228 19.2614 15.1967 19.2617 15.165C19.2616 15.1334 19.2564 15.1021 19.2466 15.0721C19.2153 15.1089 19.1695 15.1302 19.1212 15.1304H18.9645C18.9623 15.1303 18.9601 15.1299 18.958 15.1293H18.9331V15.1045C18.9326 15.1023 18.9322 15.1002 18.9321 15.098V14.9413C18.9322 14.9177 18.9374 14.8944 18.9473 14.873C18.9572 14.8515 18.9715 14.8324 18.9893 14.817C18.9594 14.8066 18.928 14.8011 18.8964 14.8008"
    fill="#FFD200"
  />
<path
    d="M20.858 17.5289C20.7664 17.4667 20.6882 17.387 20.6278 17.2943C20.4933 17.0785 20.4365 16.8135 20.4365 16.5443C20.4365 16.4305 20.564 16.3024 20.564 16.2103C20.5648 16.1359 20.5605 16.0615 20.551 15.9877C20.5963 15.9939 20.6753 16.0742 20.6753 16.0742C20.6753 16.0742 20.6726 15.8433 20.5996 15.8029C20.5996 15.8029 20.6292 15.7726 20.7358 15.7694C20.7059 15.6935 20.5575 15.6008 20.5575 15.6008C20.5671 15.5859 20.5805 15.574 20.5964 15.5662C20.6374 15.5461 20.6811 15.5319 20.7261 15.5241C20.6768 15.5134 20.6281 15.5 20.5802 15.4841C20.4421 15.4379 20.3071 15.3831 20.176 15.3198C20.0083 15.2357 19.8232 15.1924 19.6356 15.1934C19.5602 15.1934 19.449 15.1954 19.3839 15.2388C19.3242 15.2784 19.3291 15.3299 19.3082 15.348C19.259 15.3905 19.1747 15.389 19.1342 15.389C18.8715 15.389 18.8618 15.67 18.8618 15.67C18.8618 15.67 18.929 15.5684 19.0477 15.5684C19.2451 15.5684 19.3946 15.676 19.3946 15.7165C19.3946 15.7329 19.3743 15.7359 19.373 15.7359C19.2441 15.7359 19.0495 15.6617 18.9461 15.6581V15.7089C19.1769 15.7892 19.4108 15.9028 19.4108 16.4038C19.4108 16.7193 19.373 17.0411 19.2152 17.2943C19.1544 17.387 19.0758 17.4667 18.9839 17.5289L19.921 17.6978L20.858 17.5289V17.5289Z"
    fill="black"
  />
<path
    d="M19.9213 17.3179L18.9844 17.529C18.9417 17.5161 18.7413 17.4539 18.6007 17.3756C18.3531 17.2377 18.2248 17.1005 17.9306 17.087V16.8633C17.9306 16.7437 17.9739 16.636 17.9739 16.5217C17.8499 16.4885 17.5057 16.0677 17.1882 15.8809C16.721 16.1835 16.3592 16.6802 16.3592 16.9087V23.5272C16.3592 23.6258 16.2998 23.765 16.2998 23.765C16.4704 23.6928 16.783 23.2651 16.8488 23.1025V23.1803C17.1064 23.0628 17.295 22.7542 17.3795 22.5945L17.3849 22.6756C17.615 22.4738 17.9079 21.2814 17.9079 21.2814L18.3961 21.7612C18.3961 21.7612 18.2196 22.1196 18.1508 22.1837C18.1834 22.1875 18.2163 22.1893 18.2491 22.1891C18.217 22.2353 17.9716 22.5887 17.8946 22.7219C17.8227 22.8466 17.7719 22.7911 17.6612 22.7911C17.5694 22.7911 17.3614 22.9373 17.3273 22.9965C17.2903 23.057 17.2688 23.1257 17.2646 23.1964C17.2646 23.2648 17.337 23.3585 17.337 23.3585C17.3397 23.3419 17.3472 23.3265 17.3586 23.3142L17.5769 23.5822C17.5987 23.6064 17.6961 23.622 17.7304 23.5909C17.8162 23.5129 17.8993 23.4583 17.9757 23.3456C18.0151 23.2875 18.0181 23.2209 18.0633 23.1586L18.5842 22.4593L18.5971 22.5318C18.6751 22.3743 19.0499 22.0735 19.0499 22.0735L19.4422 22.254C19.4422 22.254 18.7099 23.9373 18.0599 24.1961C18.0599 24.1961 18.3427 24.3163 18.6899 24.4966L18.8456 24.5798C18.8893 24.5272 18.9353 24.4687 18.9807 24.408C19.1883 24.1301 19.3914 23.8082 19.3914 23.8082C19.4055 23.8918 19.2959 24.15 19.1104 24.4685L18.9937 24.663L19.1342 24.7452C19.4782 24.9522 19.8012 25.1901 19.9209 25.4088L20.0054 25.1975L19.9209 24.9861V17.5982L19.9631 17.4926L19.9213 17.3179Z"
    fill="black"
  />
<path
    d="M19.9208 24.9858C19.7994 24.8542 19.5457 24.6933 19.2605 24.5449C19.6053 23.926 19.7762 22.9478 19.696 22.753C19.696 22.753 19.5545 23.2604 19.3815 23.5495C19.2214 23.8173 19.0242 24.1184 18.8336 24.3417C18.6903 24.2798 18.5439 24.2257 18.3948 24.1796C18.966 23.7396 19.5501 22.285 19.5501 22.285L18.9461 22.0051C18.9461 22.0051 18.7201 22.2685 18.6467 22.3175C18.6467 22.3175 18.6154 22.1864 18.597 22.1402C18.597 22.1402 18.5104 22.2057 18.463 22.2073L18.4382 22.0602C18.3785 22.1 18.2793 22.0916 18.2793 22.0916C18.3664 22.0503 18.4695 21.7976 18.4695 21.7976L17.8927 21.0304C17.8927 21.0304 17.6901 22.0039 17.4594 22.2041V18.0118L17.642 18.1815L17.9187 17.9232V17.7265L17.6733 17.9556V17.3623C17.7017 17.3197 17.7283 17.2761 17.7533 17.2315C17.793 17.3007 17.9214 17.5129 18.0721 17.6433C18.0969 17.5424 18.2602 17.4466 18.2602 17.4466C18.2602 17.4466 18.3187 17.6051 18.4082 17.6443C18.4397 17.5889 18.6276 17.466 18.6276 17.466C18.6276 17.466 18.4668 17.4905 18.4017 17.5514C18.3458 17.5389 18.3315 17.318 18.3315 17.318C18.3315 17.318 18.0949 17.4332 18.0537 17.5157C18.0086 17.5035 17.9384 17.326 17.9111 17.2531C17.9696 17.2466 18.0284 17.2434 18.0872 17.2434C18.1547 17.2434 18.241 17.2754 18.3315 17.318C18.4308 17.3648 18.5348 17.424 18.6276 17.4661C18.7465 17.5199 18.9264 17.5308 18.9788 17.5331C18.9159 17.5768 18.8498 17.6158 18.7811 17.6498C18.7811 17.6498 19.0642 17.6472 19.2631 17.5482C19.3354 17.5046 19.4047 17.4562 19.4706 17.4034C19.4403 17.4917 19.3941 17.5737 19.3344 17.6454C19.6265 17.6207 19.7719 17.4539 19.8132 17.3979C19.8394 17.4694 19.8758 17.5367 19.9212 17.5979H20.0268V24.7756L19.9208 24.9858ZM17.7684 16.543L17.7738 16.677V17.0716C17.6679 17.0351 17.5347 16.861 17.4701 16.7689V16.7149C17.4709 16.6943 17.4758 16.674 17.4848 16.6554C17.4937 16.6368 17.5064 16.6203 17.522 16.6068L17.4583 16.5842C17.4269 16.6173 17.4088 16.6607 17.4075 16.7063V16.7376L17.2173 16.9419L17.0303 16.6587V16.5896C17.0303 16.543 17.0662 16.491 17.0962 16.4556L17.0335 16.4329C17.0019 16.4739 16.9687 16.5291 16.9687 16.5809V16.6371L16.7536 16.8587L16.6445 16.6241C16.7755 16.4427 16.9879 16.2395 17.1881 16.0938C17.1881 16.0938 17.6222 16.4923 17.7684 16.543ZM16.6681 16.9256V17.251L16.5168 17.3914V16.9084C16.5211 16.8507 16.5389 16.7948 16.5687 16.7452L16.6681 16.9256ZM17.1393 17.051V17.252L16.9653 17.4152V16.7862L17.1393 17.051ZM16.9037 17.4141L16.7297 17.252V17.0165L16.9037 16.8338V17.4141ZM17.698 17.1699C17.6576 17.227 17.5518 17.3667 17.4376 17.4282V16.8759C17.4638 16.9195 17.584 17.114 17.698 17.1699ZM17.376 16.904V17.4141L17.2019 17.252V17.0715L17.376 16.904ZM16.6681 17.4476V17.9567L16.5168 17.8151V17.5892L16.6681 17.4476ZM16.9036 17.6108V17.7935L16.7295 17.9556V17.4487L16.9036 17.6108ZM17.1391 17.4487V17.9556L16.9651 17.7924V17.6119L17.1391 17.4487ZM17.3758 17.6119V17.7924L17.2018 17.9556V17.4487L17.3758 17.6119ZM17.6114 17.9567L17.4374 17.7935V17.6238C17.4974 17.5872 17.5578 17.5199 17.6114 17.4487L17.6114 17.9567ZM17.1705 18.1815L17.3542 18.0107V22.204L17.3759 22.5477L16.9868 22.941V18.0096L17.1705 18.1815ZM16.8819 22.7844C16.8819 22.9191 16.6358 23.2335 16.5166 23.3053V18.0119L16.6982 18.1815L16.8819 18.0107V22.7844Z"
    fill="#B07E5B"
  />
<path
    d="M18.4079 22.3293L18.5419 22.2374L18.5624 22.3423L18.0123 23.0901C17.9718 23.1447 17.9377 23.2836 17.9377 23.2836C17.9377 23.2836 17.8783 23.2555 17.8783 23.2047C17.8783 23.1548 17.8848 23.0955 17.8848 23.0955C17.869 23.1116 17.8502 23.1244 17.8294 23.1331C17.8086 23.1418 17.7863 23.1463 17.7638 23.1463C17.7638 23.085 17.8823 23.0186 17.887 22.9313C17.7966 22.9983 17.7181 22.9639 17.6135 22.9961C17.4997 23.0312 17.468 23.079 17.4331 23.0772C17.4125 23.0761 17.3939 23.0406 17.4017 23.0188C17.4153 22.9811 17.5561 22.8767 17.6546 22.8578C17.6782 22.8533 17.8637 22.8982 17.901 22.8405L18.329 22.1802C18.3437 22.1774 18.358 22.1723 18.3711 22.165C18.3711 22.165 18.3697 22.2864 18.4079 22.3293H18.4079ZM17.5462 23.0695C17.5537 23.0776 17.5531 23.0901 17.5451 23.0976L17.4846 23.1505C17.4759 23.1573 17.4634 23.1559 17.4565 23.1473C17.4491 23.1392 17.4496 23.1267 17.4576 23.1192L17.5181 23.0663C17.5201 23.0646 17.5223 23.0633 17.5247 23.0626C17.5271 23.0618 17.5297 23.0616 17.5322 23.0619C17.5377 23.0627 17.5426 23.0654 17.5462 23.0695ZM17.6381 23.1333C17.656 23.1522 17.6552 23.182 17.6363 23.1999L17.6359 23.2003L17.489 23.3289C17.4666 23.3455 17.4351 23.3408 17.4186 23.3185C17.4038 23.2986 17.4057 23.2709 17.423 23.2533L17.57 23.1257C17.5773 23.1196 17.5864 23.1158 17.5959 23.1149C17.6121 23.114 17.6277 23.1208 17.6381 23.1333ZM17.7223 23.2327C17.7266 23.2372 17.7299 23.2425 17.7322 23.2482C17.7344 23.254 17.7354 23.2602 17.7353 23.2664C17.7351 23.2725 17.7337 23.2786 17.7312 23.2843C17.7287 23.2899 17.7251 23.295 17.7206 23.2993L17.7202 23.2997L17.5721 23.4283C17.5516 23.4448 17.5217 23.4415 17.5052 23.421L17.5051 23.4208C17.4964 23.4114 17.4918 23.399 17.4922 23.3863C17.4926 23.3735 17.498 23.3615 17.5073 23.3527L17.6542 23.2252C17.6612 23.219 17.6699 23.2152 17.6791 23.2143C17.6956 23.2134 17.7116 23.2202 17.7223 23.2327ZM17.7731 23.3116C17.781 23.3109 17.7889 23.3122 17.7962 23.3152C17.8036 23.3182 17.8101 23.3229 17.8152 23.3289C17.8333 23.3483 17.8323 23.3787 17.8131 23.397L17.6661 23.5245C17.656 23.5318 17.6436 23.535 17.6313 23.5336C17.619 23.5322 17.6076 23.5263 17.5994 23.517C17.5912 23.5077 17.5867 23.4957 17.5868 23.4833C17.587 23.4709 17.5917 23.459 17.6001 23.4499L17.7482 23.3213C17.7552 23.3155 17.7639 23.312 17.7731 23.3116Z"
    fill="#CC092F"
  />
<path
    d="M19.92 17.3179L20.8569 17.529C20.8996 17.5161 21.1 17.4539 21.2406 17.3756C21.4882 17.2377 21.6165 17.1005 21.9107 17.087V16.8633C21.9107 16.7437 21.8674 16.636 21.8674 16.5217C21.9914 16.4885 22.3356 16.0677 22.6531 15.8809C23.1203 16.1835 23.4821 16.6802 23.4821 16.9087V23.5272C23.4821 23.6258 23.5415 23.765 23.5415 23.765C23.3709 23.6928 23.0583 23.2651 22.9925 23.1025V23.1803C22.7349 23.0628 22.5463 22.7542 22.4618 22.5945L22.4564 22.6756C22.2263 22.4738 21.9333 21.2814 21.9333 21.2814L21.4452 21.7612C21.4452 21.7612 21.6217 22.1196 21.6905 22.1837C21.6579 22.1875 21.625 22.1893 21.5922 22.1891C21.6243 22.2353 21.8697 22.5887 21.9466 22.7219C22.0186 22.8466 22.0694 22.7911 22.1801 22.7911C22.2719 22.7911 22.4799 22.9373 22.514 22.9965C22.551 23.057 22.5725 23.1257 22.5767 23.1964C22.5767 23.2648 22.5043 23.3585 22.5043 23.3585C22.5016 23.3419 22.4941 23.3265 22.4827 23.3142L22.2644 23.5822C22.2425 23.6064 22.1452 23.622 22.1109 23.5909C22.0251 23.5129 21.942 23.4583 21.8656 23.3456C21.8262 23.2875 21.8232 23.2209 21.778 23.1586L21.2571 22.4593L21.2442 22.5318C21.1662 22.3743 20.7913 22.0735 20.7913 22.0735L20.3991 22.254C20.3991 22.254 21.1314 23.9373 21.7814 24.1961C21.7814 24.1961 21.4986 24.3163 21.1513 24.4966L20.9957 24.5798C20.952 24.5272 20.906 24.4687 20.8606 24.408C20.653 24.1301 20.4499 23.8082 20.4499 23.8082C20.4358 23.8918 20.5454 24.15 20.7309 24.4685L20.8476 24.663L20.7071 24.7452C20.3631 24.9522 20.0401 25.1901 19.9204 25.4088L19.8359 25.1975L19.9204 24.9861V17.5982L19.8782 17.4926L19.92 17.3179Z"
    fill="black"
  />
<path
    d="M19.9204 24.9858C20.0418 24.8542 20.2956 24.6933 20.5807 24.5449C20.2359 23.926 20.065 22.9478 20.1452 22.753C20.1452 22.753 20.2868 23.2604 20.4597 23.5495C20.6199 23.8173 20.817 24.1184 21.0077 24.3417C21.1509 24.2798 21.2974 24.2257 21.4464 24.1796C20.8752 23.7396 20.2911 22.285 20.2911 22.285L20.8952 22.0051C20.8952 22.0051 21.1211 22.2685 21.1945 22.3175C21.1945 22.3175 21.2259 22.1864 21.2442 22.1402C21.2442 22.1402 21.3308 22.2057 21.3782 22.2073L21.4031 22.0602C21.4627 22.1 21.5619 22.0916 21.5619 22.0916C21.4748 22.0503 21.3717 21.7976 21.3717 21.7976L21.9485 21.0304C21.9485 21.0304 22.1511 22.0039 22.3819 22.2041V18.0118L22.1992 18.1815L21.9226 17.9232V17.7265L22.1679 17.9556V17.3623C22.1396 17.3197 22.1129 17.2761 22.0879 17.2315C22.0482 17.3007 21.9199 17.5129 21.7691 17.6433C21.7443 17.5424 21.5811 17.4466 21.5811 17.4466C21.5811 17.4466 21.5226 17.6051 21.433 17.6443C21.4015 17.5889 21.2136 17.466 21.2136 17.466C21.2136 17.466 21.3744 17.4905 21.4395 17.5514C21.4954 17.5389 21.5098 17.318 21.5098 17.318C21.5098 17.318 21.7464 17.4332 21.7875 17.5157C21.8326 17.5035 21.9028 17.326 21.9302 17.2531C21.8717 17.2466 21.8129 17.2434 21.754 17.2434C21.6865 17.2434 21.6002 17.2754 21.5098 17.318C21.4104 17.3648 21.3065 17.424 21.2136 17.4661C21.0947 17.5199 20.9148 17.5308 20.8624 17.5331C20.9254 17.5768 20.9915 17.6158 21.0602 17.6498C21.0602 17.6498 20.777 17.6472 20.5781 17.5482C20.5058 17.5046 20.4365 17.4562 20.3706 17.4034C20.4009 17.4917 20.4471 17.5737 20.5069 17.6454C20.2148 17.6207 20.0693 17.4539 20.0281 17.3979C20.0018 17.4694 19.9654 17.5367 19.92 17.5979H19.8145V24.7756L19.9204 24.9858ZM22.0728 16.543L22.0674 16.677V17.0716C22.1734 17.0351 22.3065 16.861 22.3711 16.7689V16.7149C22.3704 16.6943 22.3654 16.674 22.3565 16.6554C22.3476 16.6368 22.3349 16.6203 22.3192 16.6068L22.383 16.5842C22.4143 16.6173 22.4324 16.6607 22.4338 16.7063V16.7376L22.624 16.9419L22.8109 16.6587V16.5896C22.8109 16.543 22.7751 16.491 22.745 16.4556L22.8077 16.4329C22.8393 16.4739 22.8725 16.5291 22.8725 16.5809V16.6371L23.0876 16.8587L23.1967 16.6241C23.0658 16.4427 22.8534 16.2395 22.6532 16.0938C22.6532 16.0938 22.219 16.4923 22.0728 16.543ZM23.1731 16.9256V17.251L23.3244 17.3914V16.9084C23.3201 16.8507 23.3024 16.7948 23.2726 16.7452L23.1731 16.9256ZM22.7019 17.051V17.252L22.8759 17.4152V16.7862L22.7019 17.051ZM22.9375 17.4141L23.1116 17.252V17.0165L22.9375 16.8338V17.4141ZM22.1432 17.1699C22.1836 17.227 22.2894 17.3667 22.4036 17.4282V16.8759C22.3774 16.9195 22.2573 17.114 22.1432 17.1699ZM22.4653 16.904V17.4141L22.6393 17.252V17.0715L22.4653 16.904ZM23.1731 17.4476V17.9567L23.3244 17.8151V17.5892L23.1731 17.4476ZM22.9377 17.6108V17.7935L23.1117 17.9556V17.4487L22.9377 17.6108ZM22.7021 17.4487V17.9556L22.8761 17.7924V17.6119L22.7021 17.4487ZM22.4654 17.6119V17.7924L22.6394 17.9556V17.4487L22.4654 17.6119ZM22.2298 17.9567L22.4039 17.7935V17.6238C22.3438 17.5872 22.2835 17.5199 22.2298 17.4487L22.2298 17.9567ZM22.6707 18.1815L22.487 18.0107V22.204L22.4654 22.5477L22.8544 22.941V18.0096L22.6707 18.1815ZM22.9594 22.7844C22.9594 22.9191 23.2055 23.2335 23.3246 23.3053V18.0119L23.1431 18.1815L22.9594 18.0107V22.7844Z"
    fill="#B07E5B"
  />
<path
    d="M21.4333 22.3293L21.2993 22.2374L21.2788 22.3423L21.8289 23.0901C21.8695 23.1447 21.9035 23.2836 21.9035 23.2836C21.9035 23.2836 21.9629 23.2555 21.9629 23.2047C21.9629 23.1548 21.9564 23.0955 21.9564 23.0955C21.9722 23.1116 21.9911 23.1244 22.0118 23.1331C22.0326 23.1418 22.0549 23.1463 22.0775 23.1463C22.0775 23.085 21.959 23.0186 21.9543 22.9313C22.0447 22.9983 22.1231 22.9639 22.2277 22.9961C22.3415 23.0312 22.3733 23.079 22.4082 23.0772C22.4287 23.0761 22.4474 23.0406 22.4395 23.0188C22.4259 22.9811 22.2851 22.8767 22.1867 22.8578C22.1631 22.8533 21.9776 22.8982 21.9402 22.8405L21.5123 22.1802C21.4975 22.1774 21.4833 22.1723 21.4701 22.165C21.4701 22.165 21.4716 22.2864 21.4334 22.3293H21.4333ZM22.295 23.0695C22.2876 23.0776 22.2881 23.0901 22.2961 23.0976L22.3566 23.1505C22.3653 23.1573 22.3778 23.1559 22.3847 23.1473C22.3921 23.1392 22.3916 23.1267 22.3836 23.1192L22.3231 23.0663C22.3212 23.0646 22.3189 23.0633 22.3165 23.0626C22.3141 23.0618 22.3115 23.0616 22.309 23.0619C22.3036 23.0627 22.2986 23.0654 22.295 23.0695ZM22.2031 23.1333C22.1852 23.1522 22.186 23.182 22.2049 23.1999L22.2053 23.2003L22.3523 23.3289C22.3746 23.3455 22.4061 23.3408 22.4227 23.3185C22.4374 23.2986 22.4355 23.2709 22.4182 23.2533L22.2712 23.1257C22.2639 23.1196 22.2549 23.1158 22.2453 23.1149C22.2291 23.114 22.2135 23.1208 22.2031 23.1333ZM22.1189 23.2327C22.1146 23.2372 22.1113 23.2425 22.1091 23.2482C22.1069 23.254 22.1058 23.2602 22.106 23.2664C22.1061 23.2725 22.1075 23.2786 22.11 23.2843C22.1125 23.2899 22.1161 23.295 22.1206 23.2993L22.1211 23.2997L22.2691 23.4283C22.2896 23.4448 22.3195 23.4415 22.336 23.421L22.3361 23.4208C22.3448 23.4114 22.3495 23.399 22.3491 23.3863C22.3486 23.3735 22.3432 23.3615 22.3339 23.3527L22.187 23.2252C22.1801 23.219 22.1713 23.2152 22.1621 23.2143C22.1457 23.2134 22.1297 23.2202 22.1189 23.2327ZM22.0682 23.3116C22.0603 23.3109 22.0523 23.3122 22.045 23.3152C22.0377 23.3182 22.0312 23.3229 22.026 23.3289C22.0079 23.3483 22.0089 23.3787 22.0282 23.397L22.1752 23.5245C22.1852 23.5318 22.1976 23.535 22.21 23.5336C22.2223 23.5322 22.2337 23.5263 22.2419 23.517C22.2501 23.5077 22.2545 23.4957 22.2544 23.4833C22.2543 23.4709 22.2495 23.459 22.2411 23.4499L22.093 23.3213C22.086 23.3155 22.0773 23.312 22.0682 23.3116Z"
    fill="#CC092F"
  />
<path
    d="M19.7038 15.2629C19.9457 15.2629 20.1158 15.3732 20.3447 15.4747C20.4047 15.5013 20.4597 15.5229 20.5089 15.5396C20.4822 15.56 20.461 15.5867 20.4473 15.6174C20.4473 15.6174 20.5499 15.6364 20.5964 15.7222C20.5964 15.7222 20.4989 15.7333 20.483 15.7903C20.5376 15.7944 20.5919 15.8633 20.5921 15.9297L20.4538 15.8865C20.4751 15.9933 20.4863 16.1018 20.4873 16.2107C20.4873 16.297 20.363 16.3985 20.363 16.5447C20.363 17.0035 20.4786 17.1799 20.5608 17.3217C20.593 17.3772 20.6191 17.4411 20.6732 17.4892C20.4364 17.3631 20.2604 17.2055 20.2604 17.0591V16.5047H20.1988V17.0591C20.1988 17.1653 20.2247 17.2147 20.2247 17.2147C20.2619 17.3322 20.337 17.5135 20.3836 17.5865C20.1657 17.4687 20.055 17.3213 20.055 17.2666V16.5047H19.9934V17.2774L20.0053 17.3303C19.9789 17.37 19.9445 17.417 19.921 17.433C19.8975 17.417 19.8642 17.37 19.8377 17.3303L19.8496 17.2774V16.5047H19.788V17.2666C19.788 17.3213 19.6774 17.4687 19.4595 17.5865C19.506 17.5135 19.5812 17.3322 19.6183 17.2147C19.6183 17.2147 19.6443 17.1653 19.6443 17.0591V16.5047H19.5827V17.0591C19.5827 17.2053 19.4073 17.3632 19.1709 17.4892C19.2245 17.441 19.2502 17.3769 19.2822 17.3217C19.3721 17.1666 19.4832 16.9695 19.4832 16.4085C19.4832 16.1979 19.4521 16.0548 19.3978 15.9546C19.3814 15.9215 19.3591 15.8335 19.4854 15.8335C19.5508 15.8335 19.7005 15.9492 19.7005 15.9492C19.6945 15.8916 19.6647 15.8391 19.6183 15.8043C19.6088 15.7969 19.601 15.7876 19.5952 15.777C19.5895 15.7664 19.5859 15.7547 19.5848 15.7427C19.5935 15.7102 19.6144 15.6824 19.6432 15.6649C19.6607 15.6569 19.386 15.609 19.386 15.4844C19.386 15.4585 19.4023 15.4412 19.4594 15.4412C19.5342 15.4412 19.656 15.5309 19.7642 15.5309C19.8442 15.5309 19.8757 15.5114 19.9576 15.5114C20.0578 15.5114 20.2666 15.701 20.338 15.6941C20.2582 15.6439 20.1292 15.4541 19.9339 15.4541C19.8661 15.4541 19.8047 15.4693 19.7415 15.4693C19.6604 15.4693 19.5805 15.3947 19.4929 15.3947C19.4342 15.3947 19.3686 15.398 19.3589 15.3828C19.3419 15.3563 19.3572 15.3409 19.3729 15.319C19.4027 15.2777 19.4862 15.2657 19.5686 15.2628C19.5933 15.262 19.6179 15.2616 19.641 15.2618L19.7037 15.2629L19.7038 15.2629Z"
    fill="#B07E5B"
  />
<path
    d="M18.9185 15.5594C18.957 15.4973 19.0256 15.4605 19.0987 15.4627C19.1526 15.4627 19.3307 15.459 19.3307 15.459C19.3544 15.5206 19.4626 15.6237 19.4626 15.7309C19.4626 15.7309 19.3528 15.5329 19.0463 15.5329C19.0022 15.5322 18.9586 15.5413 18.9185 15.5594L18.9185 15.5594ZM19.4169 15.7686C19.4169 15.7686 19.3516 15.8374 19.3374 15.8741C19.2728 15.8496 19.1601 15.7335 19.1601 15.7335C19.1601 15.7335 19.2557 15.7893 19.4169 15.7686H19.4169Z"
    fill="#CC092F"
  />
<path
    d="M19.3136 15.5863C19.3136 15.5863 19.2383 15.5621 19.2383 15.5369C19.2383 15.5046 19.2749 15.5046 19.2967 15.5297C19.3071 15.5468 19.313 15.5663 19.3136 15.5863L19.3136 15.5863Z"
    fill="black"
  />
<path
    d="M19.6649 15.746C19.7509 15.746 19.8206 15.6931 19.8206 15.6279C19.8206 15.5627 19.7509 15.5098 19.6649 15.5098C19.579 15.5098 19.5093 15.5627 19.5093 15.6279C19.5093 15.6931 19.579 15.746 19.6649 15.746Z"
    fill="black"
  />
<path
    d="M19.6648 15.7358C19.7245 15.7358 19.7729 15.6873 19.7729 15.6276C19.7729 15.5679 19.7245 15.5195 19.6648 15.5195C19.605 15.5195 19.5566 15.5679 19.5566 15.6276C19.5566 15.6873 19.605 15.7358 19.6648 15.7358Z"
    fill="#FFD200"
  />
<path
    d="M19.6648 15.6772C19.6921 15.6772 19.7143 15.655 19.7143 15.6277C19.7143 15.6003 19.6921 15.5781 19.6648 15.5781C19.6374 15.5781 19.6152 15.6003 19.6152 15.6277C19.6152 15.655 19.6374 15.6772 19.6648 15.6772Z"
    fill="black"
  />
<path
    d="M17.9184 23.3975L18.2605 23.5841L18.1775 23.9647L17.8354 23.7781L17.9184 23.3975Z"
    fill="black"
  />
<path
    d="M16.3249 19.7402L16.2017 19.7965L17.5936 22.8453H17.7417L16.3249 19.7402ZM17.9665 23.3359L17.866 23.4396L17.9287 23.578L18.0508 23.5218L17.9665 23.3359Z"
    fill="black"
  />
<path
    d="M16.7575 22.1439C16.7575 22.1439 16.8748 22.3861 16.9639 22.4193C16.9178 22.4067 16.7682 22.4617 16.7682 22.4617C16.7682 22.4617 17.0321 22.6974 17.2558 22.7128C17.4456 22.7259 17.5378 22.6312 17.5378 22.6312L17.4998 22.4301C17.4174 22.3381 17.3138 22.2677 17.1978 22.2252C17.0101 22.1598 16.7575 22.144 16.7575 22.144L16.7575 22.1439ZM17.6415 21.7101C17.6415 21.7101 17.4796 21.8487 17.4353 22.0092C17.3909 22.1697 17.4641 22.3522 17.4641 22.3522L17.6002 22.606C17.6002 22.606 17.7887 22.5056 17.8689 22.3556C17.9491 22.2056 17.9197 22.0031 17.9197 22.0031C17.9197 22.0031 17.7703 22.0587 17.7513 22.0833C17.7829 21.9169 17.6415 21.7101 17.6415 21.7101ZM17.1211 21.6453C17.1211 21.6453 16.9369 21.7075 16.7581 21.6967C16.5878 21.6865 16.4462 21.5434 16.4462 21.5434C16.4462 21.5434 16.5874 21.4479 16.6571 21.4606C16.5804 21.4326 16.4692 21.2406 16.4692 21.2406C16.4692 21.2406 16.6272 21.1928 16.7673 21.2456C16.9073 21.2984 17.0294 21.4519 17.0294 21.4519L17.1211 21.6453ZM17.1844 20.7459C17.1844 20.7459 17.2765 20.9366 17.2547 21.0029C17.2832 20.9588 17.3913 20.89 17.3913 20.89C17.3913 20.89 17.4567 21.1988 17.3942 21.3894C17.3317 21.5801 17.1414 21.6527 17.1414 21.6527L16.9315 21.2445C16.9315 21.2445 16.9003 21.0932 16.9657 20.9735C17.0311 20.8537 17.1844 20.7459 17.1844 20.7459V20.7459ZM15.9864 20.2412C15.9864 20.2412 16.1854 20.2203 16.3674 20.2957C16.5196 20.3589 16.5663 20.4737 16.5663 20.4737L16.6413 20.6747C16.6413 20.6747 16.4246 20.7559 16.2535 20.6938C16.0823 20.6317 15.9566 20.4261 15.9566 20.4261C15.9566 20.4261 16.0762 20.3808 16.1217 20.3978C16.0554 20.3684 15.9864 20.2412 15.9864 20.2412V20.2412L15.9864 20.2412ZM16.6123 19.8681C16.6123 19.8681 16.6996 19.9803 16.7023 20.1093C16.7255 20.0407 16.8346 19.9649 16.8346 19.9649C16.8346 19.9649 16.9467 20.2363 16.9221 20.429C16.8975 20.6217 16.7361 20.7357 16.7361 20.7357L16.5349 20.3537C16.5349 20.3537 16.4694 20.1972 16.4887 20.0757C16.508 19.9543 16.6123 19.8681 16.6123 19.8681V19.8681ZM15.923 19.1377C15.923 19.1377 15.8869 19.3457 15.9483 19.4656C16.0032 19.5725 16.0381 19.5959 16.0381 19.5959C15.9335 19.5269 15.7754 19.521 15.7754 19.521C15.7754 19.521 15.8317 19.7473 15.9662 19.8506C16.1007 19.9538 16.3081 19.9297 16.3081 19.9297C16.3081 19.9297 16.4444 19.7481 16.4349 19.5525C16.4254 19.3569 16.2701 19.1473 16.2701 19.1473C16.2701 19.1473 16.2088 19.2743 16.2034 19.3692C16.1638 19.2714 15.923 19.1377 15.923 19.1377L15.923 19.1377ZM17.5486 22.6225L17.5542 22.6972C17.6782 22.6983 17.6967 22.686 17.7285 22.7251C17.7591 22.7595 17.8087 22.7699 17.8506 22.7507C17.875 22.7394 17.894 22.7189 17.9034 22.6937C17.9128 22.6685 17.9119 22.6407 17.9009 22.6161C17.8778 22.5655 17.8307 22.5545 17.7853 22.5634C17.7574 22.5689 17.7391 22.5911 17.7155 22.6034C17.6706 22.6266 17.5485 22.6225 17.5485 22.6225L17.5486 22.6225Z"
    fill="black"
  />
<path
    d="M17.5378 22.5657L17.5982 22.61C17.5334 22.7158 17.5132 22.7249 17.5296 22.7726C17.5359 22.7942 17.5351 22.8172 17.5274 22.8383C17.5196 22.8594 17.5053 22.8775 17.4866 22.8899C17.4641 22.9046 17.4367 22.9098 17.4103 22.9045C17.384 22.8991 17.3608 22.8835 17.3458 22.8612C17.3151 22.8147 17.3307 22.769 17.3623 22.7353C17.3818 22.7145 17.4103 22.7108 17.4331 22.6972C17.4766 22.6714 17.5378 22.5657 17.5378 22.5657L17.5378 22.5657ZM17.1177 21.6791L17.1233 21.7537C17.2473 21.7549 17.2658 21.7426 17.2976 21.7816C17.3283 21.8161 17.3778 21.8265 17.4198 21.8073C17.4706 21.7838 17.493 21.7237 17.47 21.6727C17.4469 21.622 17.3998 21.6111 17.3544 21.62C17.3266 21.6255 17.3082 21.6477 17.2846 21.6599C17.2397 21.6832 17.1177 21.6791 17.1177 21.6791L17.1177 21.6791Z"
    fill="black"
  />
<path
    d="M17.1429 21.7052L17.1957 21.7583C17.1153 21.8528 17.0939 21.8587 17.1026 21.9083C17.1085 21.9541 17.0839 21.9983 17.0419 22.0175C17.0174 22.0285 16.9895 22.0294 16.9643 22.02C16.9391 22.0106 16.9186 21.9916 16.9073 21.9672C16.8842 21.9166 16.9067 21.8738 16.9432 21.8454C16.9656 21.828 16.9944 21.8287 17.0191 21.8188C17.0661 21.8001 17.1429 21.7052 17.1429 21.7052V21.7052ZM16.7002 20.7953L16.7058 20.87C16.8299 20.8711 16.8483 20.8588 16.8801 20.8979C16.8951 20.9147 16.915 20.9262 16.937 20.9308C16.959 20.9354 16.9819 20.9329 17.0023 20.9235C17.0267 20.9122 17.0457 20.8917 17.0551 20.8665C17.0645 20.8413 17.0636 20.8134 17.0525 20.7889C17.0294 20.7382 16.9823 20.7273 16.9369 20.7362C16.9091 20.7417 16.8908 20.7639 16.8671 20.7761C16.8222 20.7994 16.7002 20.7953 16.7002 20.7953L16.7002 20.7953Z"
    fill="black"
  />
<path
    d="M16.7346 20.7798L16.7874 20.8329C16.707 20.9274 16.6856 20.9332 16.6943 20.9829C16.7002 21.0286 16.6756 21.0729 16.6336 21.092C16.6091 21.103 16.5812 21.1039 16.556 21.0945C16.5308 21.0851 16.5103 21.0662 16.499 21.0418C16.4759 20.9911 16.4984 20.9483 16.5349 20.9199C16.5573 20.9025 16.5861 20.9032 16.6108 20.8933C16.6578 20.8746 16.7346 20.7798 16.7346 20.7798ZM16.2554 19.8627L16.261 19.9374C16.385 19.9385 16.4035 19.9262 16.4353 19.9652C16.4502 19.982 16.4702 19.9936 16.4921 19.9982C16.5141 20.0028 16.537 20.0003 16.5575 19.9909C16.5819 19.9796 16.6008 19.9591 16.6103 19.9339C16.6197 19.9087 16.6188 19.8808 16.6077 19.8563C16.5846 19.8056 16.5375 19.7946 16.4921 19.8036C16.4643 19.8091 16.446 19.8314 16.4223 19.8435C16.3774 19.8668 16.2554 19.8627 16.2554 19.8627H16.2554Z"
    fill="black"
  />
<path
    d="M16.2899 19.8477L16.3426 19.9008C16.2623 19.9953 16.2408 20.0011 16.2495 20.0508C16.2555 20.0965 16.2309 20.1408 16.1889 20.1599C16.1644 20.1709 16.1365 20.1718 16.1113 20.1624C16.0861 20.153 16.0656 20.1341 16.0543 20.1097C16.0312 20.059 16.0537 20.0162 16.0902 19.9879C16.1126 19.9704 16.1414 19.9711 16.1661 19.9613C16.213 19.9426 16.2899 19.8477 16.2899 19.8477L16.2899 19.8477Z"
    fill="black"
  />
<path
    d="M17.9676 23.5046L18.1797 23.6203L18.1282 23.8564L17.9161 23.7407L17.9676 23.5046ZM17.0389 21.4574C16.9944 21.4758 16.9285 21.2823 16.8801 21.1762C16.8304 21.0674 16.7295 20.8997 16.7582 20.8866C16.7896 20.8722 16.831 20.9603 16.8819 21.0717C16.9327 21.183 17.0806 21.44 17.0389 21.4574V21.4574ZM16.5823 20.4379C16.5378 20.4565 16.4892 20.3297 16.4408 20.2236C16.3911 20.1148 16.3427 20.038 16.3714 20.0249C16.4028 20.0105 16.4493 20.1059 16.4899 20.1949C16.5293 20.2812 16.6239 20.4206 16.5823 20.438L16.5823 20.4379ZM17.6387 22.7494C17.6038 22.7587 17.4514 22.4399 17.3283 22.1701C17.2051 21.9003 17.1134 21.682 17.1421 21.669C17.1735 21.6546 17.2732 21.9094 17.3964 22.1793C17.5196 22.4491 17.6648 22.7424 17.6387 22.7494H17.6387Z"
    fill="#FFD200"
  />
<path
    d="M17.8089 22.7135C17.8393 22.7135 17.8639 22.6889 17.8639 22.6585C17.8639 22.6281 17.8393 22.6035 17.8089 22.6035C17.7785 22.6035 17.7539 22.6281 17.7539 22.6585C17.7539 22.6889 17.7785 22.7135 17.8089 22.7135Z"
    fill="#FFD200"
  />
<path
    d="M17.4305 22.861C17.4609 22.861 17.4855 22.8364 17.4855 22.806C17.4855 22.7756 17.4609 22.751 17.4305 22.751C17.4001 22.751 17.3755 22.7756 17.3755 22.806C17.3755 22.8364 17.4001 22.861 17.4305 22.861Z"
    fill="#FFD200"
  />
<path
    d="M17.3778 21.7692C17.4082 21.7692 17.4328 21.7446 17.4328 21.7142C17.4328 21.6838 17.4082 21.6592 17.3778 21.6592C17.3474 21.6592 17.3228 21.6838 17.3228 21.7142C17.3228 21.7446 17.3474 21.7692 17.3778 21.7692Z"
    fill="#FFD200"
  />
<path
    d="M16.9994 21.9801C17.0297 21.9801 17.0544 21.9555 17.0544 21.9251C17.0544 21.8947 17.0297 21.8701 16.9994 21.8701C16.969 21.8701 16.9443 21.8947 16.9443 21.9251C16.9443 21.9555 16.969 21.9801 16.9994 21.9801Z"
    fill="#FFD200"
  />
<path
    d="M16.9603 20.8864C16.9907 20.8864 17.0153 20.8618 17.0153 20.8314C17.0153 20.801 16.9907 20.7764 16.9603 20.7764C16.9299 20.7764 16.9053 20.801 16.9053 20.8314C16.9053 20.8618 16.9299 20.8864 16.9603 20.8864Z"
    fill="#FFD200"
  />
<path
    d="M16.5911 21.0553C16.6215 21.0553 16.6462 21.0307 16.6462 21.0003C16.6462 20.9699 16.6215 20.9453 16.5911 20.9453C16.5608 20.9453 16.5361 20.9699 16.5361 21.0003C16.5361 21.0307 16.5608 21.0553 16.5911 21.0553Z"
    fill="#FFD200"
  />
<path
    d="M16.5155 19.9538C16.5458 19.9538 16.5705 19.9292 16.5705 19.8988C16.5705 19.8684 16.5458 19.8438 16.5155 19.8438C16.4851 19.8438 16.4604 19.8684 16.4604 19.8988C16.4604 19.9292 16.4851 19.9538 16.5155 19.9538Z"
    fill="#FFD200"
  />
<path
    d="M16.1463 20.1227C16.1767 20.1227 16.2013 20.0981 16.2013 20.0677C16.2013 20.0373 16.1767 20.0127 16.1463 20.0127C16.1159 20.0127 16.0913 20.0373 16.0913 20.0677C16.0913 20.0981 16.1159 20.1227 16.1463 20.1227Z"
    fill="#FFD200"
  />
<path
    d="M15.984 19.2646C15.984 19.2646 15.9787 19.4167 16.0289 19.5029C16.0792 19.5891 16.1916 19.6235 16.1916 19.6235C16.1916 19.6235 16.1969 19.4716 16.1467 19.3853C16.0964 19.2991 15.984 19.2646 15.984 19.2646ZM15.8789 19.6085C15.8789 19.6085 16.011 19.6163 16.0872 19.6748C16.1635 19.7332 16.193 19.8549 16.193 19.8549C16.1343 19.858 16.0764 19.8405 16.0292 19.8054C15.953 19.7469 15.8789 19.6085 15.8789 19.6085ZM16.2933 19.3016C16.2664 19.368 16.2531 19.4392 16.2545 19.5108C16.2595 19.6194 16.3229 19.7417 16.3229 19.7417C16.3229 19.7417 16.3801 19.6114 16.3751 19.5028C16.3701 19.3942 16.3087 19.3323 16.2933 19.3016ZM16.071 20.2803C16.1151 20.3383 16.1713 20.3861 16.2357 20.4202C16.3355 20.4695 16.4842 20.4714 16.4842 20.4714C16.4364 20.4118 16.3772 20.3623 16.3101 20.3257C16.2103 20.2764 16.071 20.2803 16.071 20.2803V20.2803ZM16.1031 20.4906C16.1031 20.4906 16.1508 20.5839 16.2379 20.6239C16.325 20.6639 16.5033 20.6606 16.5033 20.6606C16.4607 20.608 16.4078 20.5647 16.3478 20.5334C16.2606 20.4934 16.1031 20.4906 16.1031 20.4906ZM16.6049 19.9928C16.5732 20.0485 16.5568 20.1116 16.5574 20.1757C16.5626 20.2717 16.6255 20.3765 16.6255 20.3765C16.6255 20.3765 16.6698 20.2563 16.6646 20.1604C16.6602 20.1002 16.6396 20.0422 16.6049 19.9928H16.6049ZM16.7989 20.1158C16.7989 20.1158 16.7088 20.2368 16.6959 20.3612C16.6829 20.4855 16.7471 20.6133 16.7471 20.6133C16.7471 20.6133 16.856 20.504 16.8689 20.3796C16.8819 20.2553 16.7989 20.1159 16.7989 20.1159V20.1158ZM16.5505 21.2643C16.5604 21.2979 16.5769 21.3293 16.5989 21.3565C16.6297 21.3923 16.6639 21.4251 16.701 21.4543C16.7467 21.442 16.7945 21.4409 16.8407 21.451C16.9181 21.4678 17.021 21.5367 17.021 21.5367C17.021 21.5367 16.9102 21.3714 16.7952 21.3071C16.7199 21.2683 16.6345 21.2534 16.5505 21.2643L16.5505 21.2643ZM16.5391 21.5484C16.5391 21.5484 16.6825 21.4872 16.8006 21.503C16.9186 21.5188 17.0252 21.6122 17.0252 21.6122C17.0252 21.6122 16.8655 21.6674 16.7474 21.6516C16.6696 21.6376 16.5974 21.6018 16.539 21.5484H16.5391ZM17.1452 20.8818C17.1452 20.8818 17.0183 21.0161 17.0077 21.1327C16.9971 21.2493 17.1105 21.3579 17.1105 21.3579C17.1075 21.3161 17.1123 21.2741 17.1245 21.2339C17.1406 21.1977 17.1612 21.1635 17.1856 21.1321C17.1956 21.097 17.1993 21.0604 17.1964 21.024C17.1867 20.9742 17.1694 20.9263 17.1452 20.8818ZM17.3271 21.0373C17.3271 21.0373 17.2076 21.1583 17.176 21.2878C17.1444 21.4173 17.2007 21.5554 17.2007 21.5554C17.2007 21.5554 17.3094 21.4697 17.341 21.3402C17.3726 21.2107 17.3271 21.0373 17.3271 21.0373ZM17.6265 21.818C17.6577 21.8841 17.6805 21.9539 17.6944 22.0256C17.7081 22.1201 17.6954 22.1529 17.6954 22.1529C17.6954 22.1529 17.6394 22.2079 17.6143 22.2403C17.582 22.2818 17.5773 22.358 17.5773 22.358C17.5773 22.358 17.4649 22.1909 17.4822 22.0687C17.4995 21.9465 17.6265 21.818 17.6265 21.818V21.818ZM17.8634 22.0796C17.8634 22.0796 17.7194 22.1747 17.6623 22.2722C17.6283 22.3321 17.6185 22.4027 17.6348 22.4696C17.6677 22.4649 17.6991 22.4529 17.7267 22.4345C17.7544 22.416 17.7775 22.3916 17.7945 22.363C17.8516 22.2655 17.8633 22.0796 17.8633 22.0796L17.8634 22.0796ZM16.9176 22.4811C16.9176 22.4811 17.125 22.4755 17.2518 22.5067C17.3786 22.5378 17.4247 22.6058 17.4247 22.6058C17.4247 22.6058 17.2822 22.6725 17.1554 22.6414C17.0286 22.6102 16.9176 22.4811 16.9176 22.4811L16.9176 22.4811ZM16.8825 22.235C16.8825 22.235 16.9761 22.3801 17.0971 22.4327C17.2638 22.5052 17.4569 22.4701 17.4569 22.4701C17.4569 22.4701 17.352 22.3415 17.2077 22.2848C17.0634 22.2281 16.8825 22.235 16.8825 22.235Z"
    fill="#007A50"
  />
<path
    d="M23.985 19.386L24.012 19.4433C23.9852 19.4534 23.9626 19.4725 23.9482 19.4973C23.9284 19.5363 23.9612 19.5914 23.9612 19.5914C23.9612 19.5914 23.7331 19.5715 23.6975 19.5946C23.6653 19.6155 23.7112 19.7735 23.6899 19.9069C23.6603 20.0929 23.587 20.0773 23.584 20.1134C23.5811 20.1484 23.6121 20.2031 23.6121 20.2031C23.6121 20.2031 23.5694 20.2165 23.5602 20.2344C23.5456 20.2632 23.5705 20.3162 23.5527 20.3511L23.2101 21.0233C23.1966 21.0499 23.1602 21.06 23.142 21.0958C23.1324 21.1218 23.1313 21.1501 23.1388 21.1768C23.1388 21.1768 23.0746 21.1806 23.0523 21.2244C23.0383 21.259 23.0349 21.297 23.0426 21.3335C23.0297 21.3358 23.0176 21.341 23.0071 21.3486C22.9966 21.3563 22.9881 21.3663 22.982 21.3778C22.9607 21.4196 22.9968 21.4416 22.9875 21.46L22.6103 22.2003C22.5758 22.2678 22.4554 22.2814 22.3854 22.4186C22.3659 22.4555 22.3582 22.4975 22.3635 22.5388C22.3687 22.5802 22.3865 22.619 22.4146 22.6499C22.4146 22.6499 22.3139 22.659 22.2871 22.7115C22.2598 22.765 22.2814 22.8463 22.3541 22.8833C22.4268 22.9204 22.5063 22.8904 22.5336 22.8368C22.5603 22.7843 22.5065 22.6974 22.5065 22.6974C22.5481 22.7016 22.5899 22.693 22.6264 22.6727C22.663 22.6524 22.6924 22.6214 22.7108 22.5839C22.7807 22.4467 22.7217 22.3424 22.7562 22.2749L23.1334 21.5345C23.1427 21.5161 23.1812 21.5321 23.2025 21.4902C23.2083 21.4787 23.2113 21.4659 23.2113 21.453C23.2113 21.44 23.2083 21.4273 23.2025 21.4157C23.2368 21.4003 23.2658 21.3751 23.2858 21.3432C23.308 21.2995 23.2739 21.2449 23.2739 21.2449C23.2999 21.2356 23.3222 21.2182 23.3376 21.1952C23.3558 21.1595 23.3424 21.1245 23.356 21.0979L23.6986 20.4257C23.7164 20.3908 23.7736 20.3788 23.7883 20.35C23.7974 20.3322 23.7829 20.2895 23.7829 20.2895C23.7829 20.2895 23.846 20.2833 23.8726 20.2603C23.9 20.2367 23.8444 20.1861 23.9774 20.0528C24.0729 19.9572 24.2269 19.901 24.2249 19.8626C24.2227 19.8202 24.0725 19.6476 24.0725 19.6476C24.0725 19.6476 24.1359 19.6422 24.1557 19.6033C24.1674 19.5767 24.1697 19.547 24.1622 19.5189L24.2249 19.5081V19.2109L23.985 19.386ZM21.9132 23.5254C21.9081 23.5356 21.9055 23.5469 21.9055 23.5583C21.9055 23.5697 21.9081 23.581 21.9132 23.5913C21.9132 23.5913 21.8376 23.5676 21.8116 23.5804C21.7872 23.5925 21.8116 23.949 21.8116 23.949C21.8116 23.949 22.1134 23.7586 22.1088 23.7318C22.104 23.7032 22.0407 23.655 22.0407 23.655C22.0519 23.6533 22.0625 23.649 22.0717 23.6424C22.0809 23.6359 22.0885 23.6272 22.0937 23.6172C22.1036 23.5977 22.105 23.5419 22.0364 23.507C22.016 23.4956 21.9927 23.4904 21.9694 23.4918C21.9464 23.4933 21.9255 23.5058 21.9132 23.5254Z"
    fill="black"
  />
<path
    d="M24.0397 19.3976L24.1823 19.4701L24.1802 19.2982L24.0397 19.3976ZM23.9846 19.5014C23.9594 19.5394 23.9698 19.5905 24.0078 19.6157C24.0458 19.6408 24.0969 19.6304 24.1221 19.5924C24.1472 19.5545 24.1368 19.5033 24.0989 19.4782C24.0962 19.4764 24.0934 19.4748 24.0905 19.4733C24.0762 19.4659 24.0601 19.4625 24.044 19.4636C24.0189 19.4647 23.9963 19.4791 23.9846 19.5014L23.9846 19.5014ZM23.7393 19.6322C23.7243 19.6419 23.7447 19.7703 23.7404 19.8796C23.7363 19.9827 23.7033 20.0117 23.6852 20.0471C23.6686 20.0799 23.6085 20.1185 23.6085 20.1185L23.6582 20.1682C23.6582 20.1682 23.6906 20.1178 23.7414 20.0179C23.8014 19.9002 23.7995 19.6867 23.8171 19.6754C23.8632 19.6592 23.9101 19.6454 23.9576 19.6343C23.9576 19.6343 23.8427 19.6281 23.7793 19.6289C23.7659 19.6281 23.7524 19.6292 23.7393 19.6322V19.6322ZM23.7524 20.2255C23.7743 20.1709 23.7992 20.1175 23.827 20.0655C23.8968 19.9283 24.0461 19.8288 24.0495 19.804C24.0532 19.7784 23.9977 19.6581 23.9977 19.6581C23.9977 19.6581 23.866 19.6833 23.8474 19.7013C23.8294 19.7187 23.8374 19.897 23.7674 20.0342C23.7415 20.0876 23.7126 20.1396 23.681 20.1898L23.7524 20.2255ZM24.0885 19.8137C24.0896 19.8346 23.9161 19.9586 23.8561 20.0763C23.8052 20.1762 23.7837 20.232 23.7837 20.232L23.8529 20.2428C23.8529 20.2428 23.8481 20.1717 23.8647 20.139C23.8828 20.1036 23.8875 20.0603 23.9685 19.9964C24.0544 19.9286 24.1705 19.8694 24.1695 19.8515C24.1687 19.835 24.0398 19.6754 24.0398 19.6754C24.0584 19.7206 24.0747 19.7668 24.0885 19.8137ZM23.5805 20.5843C23.6847 20.3798 23.7166 20.3658 23.7297 20.34C23.7438 20.3123 23.7404 20.2751 23.694 20.2514C23.6802 20.2437 23.6644 20.2404 23.6486 20.2417C23.6387 20.2429 23.6292 20.2466 23.6211 20.2524C23.6129 20.2583 23.6064 20.2661 23.6021 20.2752C23.589 20.301 23.5961 20.3355 23.4919 20.54L23.2552 21.0036C23.2519 21.0092 23.2498 21.0154 23.249 21.0218C23.2481 21.0282 23.2486 21.0347 23.2502 21.041C23.2519 21.0472 23.2548 21.0531 23.2587 21.0582C23.2626 21.0633 23.2675 21.0676 23.2731 21.0709C23.2743 21.0716 23.2756 21.0722 23.2768 21.0728C23.2877 21.0789 23.3007 21.0804 23.3127 21.077C23.3248 21.0736 23.335 21.0656 23.3411 21.0546C23.3421 21.0528 23.343 21.0509 23.3438 21.049L23.5805 20.5843ZM23.1623 21.116C23.1494 21.1414 23.1715 21.1786 23.212 21.1993C23.2525 21.2199 23.2964 21.216 23.3093 21.1906C23.3222 21.1653 23.299 21.128 23.2585 21.1074C23.2406 21.0977 23.2204 21.0933 23.2001 21.0944C23.1846 21.0945 23.1703 21.1027 23.1623 21.116ZM23.0747 21.2479C23.058 21.2806 23.084 21.3277 23.1331 21.3527C23.1821 21.3778 23.2352 21.3714 23.2519 21.3387C23.2686 21.3059 23.2426 21.2588 23.1936 21.2338C23.1768 21.225 23.1584 21.2198 23.1396 21.2187C23.1141 21.2149 23.0888 21.2263 23.0747 21.2479ZM23.0196 21.3949C23.0067 21.4202 23.0288 21.4574 23.0693 21.4781C23.1098 21.4987 23.1537 21.4948 23.1666 21.4694C23.1795 21.4441 23.1574 21.4069 23.1169 21.3862C23.0986 21.3766 23.0781 21.3721 23.0574 21.3732C23.0498 21.3733 23.0423 21.3753 23.0357 21.3791C23.0291 21.3829 23.0235 21.3883 23.0196 21.3949ZM22.9839 21.5354L22.6284 22.2346C22.5988 22.2927 22.474 22.329 22.4252 22.4248C22.376 22.5213 22.4107 22.6115 22.4749 22.6442C22.5391 22.6769 22.6333 22.6531 22.6824 22.5567C22.7313 22.4608 22.6874 22.3381 22.717 22.28L23.0726 21.5808C23.0793 21.5698 23.0814 21.5566 23.0784 21.5441C23.0753 21.5316 23.0675 21.5208 23.0565 21.514C23.0551 21.5131 23.0536 21.5123 23.052 21.5116C23.0428 21.5067 23.0322 21.5048 23.0218 21.5062C23.0053 21.5096 22.9914 21.5203 22.9839 21.5354V21.5354ZM22.3191 22.736C22.2994 22.7747 22.322 22.8262 22.3699 22.8506C22.4178 22.875 22.4734 22.8633 22.4931 22.8247C22.5128 22.7861 22.4892 22.7345 22.4413 22.7101C22.4246 22.7013 22.406 22.6968 22.3872 22.6971C22.3591 22.6966 22.333 22.7115 22.3191 22.736ZM21.969 23.5261C21.9628 23.5255 21.9565 23.5266 21.9508 23.5293C21.9451 23.532 21.9402 23.5361 21.9366 23.5412C21.9266 23.561 21.9474 23.5922 21.9831 23.6104C22.0188 23.6286 22.0562 23.6269 22.0663 23.6071C22.0764 23.5874 22.0556 23.5562 22.0199 23.538C22.0042 23.5298 21.9867 23.5257 21.969 23.5261ZM21.8458 23.6233V23.8784L22.0534 23.7292C22.0312 23.6948 22.0003 23.6669 21.9639 23.6483C21.9274 23.6297 21.8867 23.6211 21.8458 23.6233ZM21.9772 17.9428C21.9772 17.8029 22.1609 17.665 22.1609 17.665H17.6802C17.6802 17.665 17.8639 17.8029 17.8639 17.9428V21.2781C17.8623 21.3513 17.8873 21.4227 17.9342 21.479C17.9773 21.5393 18.0691 21.6225 18.1643 21.6844C18.4586 21.8755 18.9506 22.077 19.3229 22.2464C19.6331 22.3875 19.7593 22.4444 19.9205 22.6441C20.0818 22.4444 20.2091 22.3875 20.5193 22.2464C20.8915 22.0771 21.3835 21.8755 21.6778 21.6844C21.7732 21.6225 21.865 21.5393 21.908 21.479C21.9546 21.4226 21.9792 21.3512 21.9772 21.2781V17.9428Z"
    fill="#FFD200"
  />
<path
    d="M17.9701 19.8303V17.9433C17.9711 17.8817 17.9521 17.8214 17.916 17.7715H21.9256C21.8895 17.8214 21.8706 17.8817 21.8716 17.9433L21.8727 19.8303L19.9214 20.4214L17.9701 19.8303H17.9701Z"
    fill="#CC092F"
  />
<path
    d="M21.8723 19.8303L20.6641 19.8076H19.178L17.9697 19.8303V21.2786C17.9697 21.3513 18.0453 21.5219 18.4809 21.7389C19.2011 22.0978 19.7546 22.2653 19.9205 22.4695C20.0864 22.2653 20.6399 22.0977 21.36 21.7389C21.7957 21.5219 21.8712 21.3513 21.8712 21.2786L21.8723 19.8303Z"
    fill="#0046AE"
  />
<path
    d="M20.6349 19.7544C20.6349 19.7544 21.332 19.5787 21.332 18.8336C21.332 18.2517 20.6332 17.9631 20.6133 17.8242C20.545 18.0645 20.8467 18.3963 20.8467 18.7893C20.8467 19.2978 20.4717 19.3221 20.4717 19.3221C20.384 19.3221 20.3484 19.3848 20.3139 19.3848C20.2401 19.3771 20.2054 19.2832 20.1323 19.2832C20.0638 19.2832 20.0112 19.3891 19.9205 19.3891C19.8299 19.3891 19.7784 19.2832 19.7098 19.2832C19.6368 19.2832 19.6021 19.3771 19.5282 19.3848C19.4937 19.3848 19.4582 19.3221 19.3704 19.3221C19.3704 19.3221 18.9954 19.2978 18.9954 18.7893C18.9954 18.3963 19.2972 18.0644 19.2289 17.8242C19.2091 17.9631 18.5102 18.2517 18.5102 18.8336C18.5102 19.5787 19.2073 19.7544 19.2073 19.7544L19.0084 20.1165C19.0084 20.1165 19.2965 20.1309 19.4494 20.2613C19.6337 20.4185 19.6158 20.7517 19.6158 20.994C19.6158 21.185 19.5917 21.3865 19.4937 21.4696C19.3621 21.5811 19.2732 21.5894 19.2732 21.7203C19.2732 21.8295 19.3571 21.8514 19.4937 21.9235C19.6686 22.0158 19.6605 22.1396 19.9205 22.1396C20.1806 22.1396 20.1736 22.0158 20.3485 21.9235C20.4851 21.8514 20.569 21.8295 20.569 21.7203C20.569 21.5894 20.48 21.5811 20.3485 21.4696C20.2505 21.3865 20.2264 21.185 20.2264 20.994C20.2264 20.7517 20.2085 20.4185 20.3928 20.2613C20.5457 20.1309 20.8338 20.1165 20.8338 20.1165L20.6349 19.7544ZM19.9205 17.8759L19.7994 18.2196L19.4698 18.0629L19.6265 18.3926L19.2828 18.5147L19.6265 18.6368L19.4698 18.9654L19.7994 18.8086L19.9205 19.1523L20.0426 18.8086L20.3722 18.9654L20.2155 18.6368L20.5592 18.5147L20.2155 18.3926L20.3722 18.0629L20.0426 18.2196L19.9205 17.8759ZM19.178 19.8074C19.178 19.8074 18.7476 19.7022 18.5868 19.4897C18.4079 19.646 18.1975 19.7621 17.9697 19.8301C17.9697 19.8301 18.3203 19.9884 18.5868 20.19C18.7096 20.014 19.178 19.8074 19.178 19.8074Z"
    fill="black"
  />
<path
    d="M20.6639 19.807C20.6639 19.807 21.1323 20.0136 21.2551 20.1896C21.5216 19.988 21.8722 19.8297 21.8722 19.8297C21.6445 19.7617 21.4341 19.6456 21.2551 19.4893C21.0944 19.7018 20.6639 19.807 20.6639 19.807ZM19.3542 20.2651L19.1867 20.4326L19.3542 20.6001L19.5217 20.4326L19.3542 20.2651ZM20.4879 20.2651L20.3204 20.4326L20.4879 20.6001L20.6554 20.4326L20.4879 20.2651ZM19.312 21.2432C19.314 21.3513 19.3072 21.4594 19.2915 21.5663C19.2915 21.5663 19.5277 21.4968 19.5747 21.2572C19.5968 21.1449 19.6213 20.7312 19.5077 20.6607L19.1997 20.6001C19.2742 20.8063 19.3122 21.0239 19.3121 21.2432H19.312ZM20.3344 20.6607C20.2208 20.7312 20.2453 21.1449 20.2674 21.2573C20.3144 21.4968 20.5505 21.5664 20.5505 21.5664C20.5349 21.4594 20.528 21.3513 20.53 21.2432C20.5298 21.0239 20.5679 20.8064 20.6424 20.6001L20.3344 20.6607ZM18.5859 20.6727C18.4805 20.698 18.4157 20.8039 18.441 20.9092C18.4452 20.9266 18.4518 20.9434 18.4605 20.9591C18.4448 20.9538 18.4284 20.9505 18.4119 20.9493C18.405 20.949 18.3982 20.949 18.3914 20.9493C18.3642 20.9503 18.3375 20.9568 18.313 20.9685C18.2885 20.9802 18.2666 20.9969 18.2488 21.0174C18.231 21.0379 18.2176 21.0618 18.2094 21.0878C18.2012 21.1137 18.1984 21.141 18.2013 21.168C18.2041 21.195 18.2124 21.2212 18.2258 21.2449C18.2391 21.2685 18.2572 21.2892 18.2789 21.3056C18.3006 21.322 18.3254 21.3337 18.3518 21.3401C18.3782 21.3465 18.4056 21.3474 18.4324 21.3427C18.4228 21.3557 18.4148 21.3699 18.4087 21.3849C18.3888 21.4336 18.3891 21.4883 18.4095 21.5368C18.4299 21.5854 18.4688 21.6238 18.5176 21.6437C18.5663 21.6636 18.621 21.6633 18.6695 21.6429C18.7181 21.6224 18.7565 21.5836 18.7764 21.5348L18.7772 21.533C18.7831 21.518 18.7871 21.5024 18.7891 21.4865C18.7987 21.4997 18.81 21.5117 18.8226 21.5221C18.9055 21.5936 19.0307 21.5843 19.1022 21.5013C19.1738 21.4184 19.1644 21.2932 19.0815 21.2217C19.0679 21.21 19.0528 21.2001 19.0365 21.1925C19.0521 21.1875 19.067 21.1806 19.0808 21.172C19.1254 21.1438 19.1571 21.0991 19.1688 21.0476C19.1805 20.9962 19.1715 20.9422 19.1435 20.8975C19.1049 20.8359 19.0355 20.8006 18.963 20.8056C18.93 20.8078 18.8981 20.8182 18.8701 20.8359C18.8563 20.8444 18.8436 20.8545 18.8323 20.8661C18.832 20.8131 18.8107 20.7624 18.7731 20.7251C18.7354 20.6878 18.6845 20.6669 18.6315 20.6671C18.6161 20.6672 18.6008 20.6691 18.5859 20.6726V20.6727ZM20.6932 21.2497C20.7146 21.4521 20.8791 21.6217 21.0822 21.6701C21.047 21.6134 21.0248 21.5495 21.0174 21.4832C20.9919 21.2431 21.1776 21.0487 21.4313 21.0487C21.4706 21.0488 21.5098 21.0535 21.548 21.0628C21.4534 20.9097 21.287 20.8159 21.1071 20.8142C20.8533 20.8142 20.6677 21.0097 20.6932 21.2497V21.2497Z"
    fill="black"
  />
<path
    d="M18.8937 18.7886C18.8937 19.1713 19.0978 19.397 19.3703 19.397C19.4223 19.397 19.4792 19.4673 19.5282 19.4673C19.608 19.4673 19.6611 19.3786 19.7097 19.3786C19.7715 19.3786 19.8132 19.4759 19.9205 19.4759C20.0277 19.4759 20.0705 19.3786 20.1323 19.3786C20.1809 19.3786 20.234 19.4673 20.3138 19.4673C20.3628 19.4673 20.4197 19.397 20.4717 19.397C20.7442 19.397 20.9483 19.1713 20.9483 18.7886C20.9483 18.4765 20.6862 18.0959 20.7148 18.0342C20.7148 18.0342 21.226 18.4009 21.226 18.8329C21.226 19.5287 20.5203 19.7007 20.5203 19.7007L20.6792 20.0584C20.6792 20.0584 20.4604 20.0912 20.3268 20.1989C20.1487 20.3426 20.1463 20.7307 20.1463 20.9933C20.1463 21.3025 20.1578 21.4335 20.2696 21.5174C20.3874 21.6059 20.476 21.625 20.476 21.7152C20.476 21.7938 20.3842 21.826 20.2652 21.8784C20.1298 21.9381 20.1163 22.0416 19.9205 22.0416C19.7246 22.0416 19.7122 21.9381 19.5768 21.8784C19.4578 21.826 19.366 21.7938 19.366 21.7152C19.366 21.625 19.4546 21.6059 19.5724 21.5174C19.6841 21.4335 19.6956 21.3025 19.6956 20.9933C19.6956 20.7307 19.6933 20.3426 19.5151 20.1989C19.3816 20.0912 19.1628 20.0584 19.1628 20.0584L19.3217 19.7007C19.3217 19.7007 18.616 19.5288 18.616 18.8329C18.616 18.4009 19.1272 18.0342 19.1272 18.0342C19.1558 18.0959 18.8937 18.4765 18.8937 18.7886ZM19.6535 21.6623C19.5149 21.6623 19.4265 21.6916 19.4265 21.7337C19.4265 21.7757 19.5149 21.8039 19.6535 21.8039C19.6904 21.8039 19.7324 21.7824 19.7324 21.7337C19.7319 21.7142 19.7238 21.6958 19.7097 21.6824C19.6957 21.669 19.6769 21.6617 19.6574 21.6621C19.6561 21.6622 19.6548 21.6622 19.6535 21.6623ZM20.1884 21.6623C20.1789 21.6616 20.1692 21.6627 20.1601 21.6657C20.1509 21.6687 20.1424 21.6735 20.1351 21.6797C20.1278 21.686 20.1218 21.6936 20.1175 21.7022C20.1131 21.7108 20.1105 21.7201 20.1097 21.7297C20.1096 21.731 20.1096 21.7323 20.1096 21.7337C20.1095 21.7824 20.1515 21.8039 20.1884 21.8039C20.3271 21.8039 20.4154 21.7758 20.4154 21.7337C20.4154 21.6915 20.3271 21.6623 20.1884 21.6623ZM19.9216 18.1066L19.9994 18.326L20.2091 18.2255L20.1096 18.4362L20.328 18.5141L20.1096 18.5919L20.2091 18.8015L19.9994 18.7021L19.9205 18.9204L19.8427 18.7021L19.6331 18.8015L19.7325 18.5919L19.5142 18.5141L19.7325 18.4362L19.6331 18.2255L19.8427 18.326L19.9216 18.1066ZM18.1748 19.8356C18.1748 19.8356 18.441 19.9681 18.5747 20.0863L18.5822 20.0928L18.5866 20.0874C18.7129 19.9423 18.9475 19.8194 18.9475 19.8194C18.9475 19.8194 18.7221 19.7572 18.5801 19.5946C18.43 19.7476 18.1748 19.8356 18.1748 19.8356ZM21.6668 19.8359C21.6668 19.8359 21.4006 19.9685 21.2669 20.0866L21.2594 20.0931L21.2551 20.0877C21.1287 19.9427 20.8941 19.8197 20.8941 19.8197C20.8941 19.8197 21.1195 19.7575 21.2615 19.5949C21.4117 19.7479 21.6668 19.8359 21.6668 19.8359ZM19.3541 20.3448L19.4417 20.4323L19.3541 20.5209L19.2655 20.4323L19.3541 20.3448ZM20.4878 20.3448L20.5764 20.4323L20.4878 20.5209L20.4003 20.4323L20.4878 20.3448ZM19.4731 20.7273C19.5342 20.8117 19.5238 20.9482 19.5238 21.138C19.5257 21.1909 19.5133 21.2434 19.488 21.29C19.4627 21.3365 19.4255 21.3755 19.3801 21.4028C19.3801 20.9427 19.3327 20.8321 19.3077 20.6927L19.4731 20.7273ZM20.5342 20.6927C20.5092 20.8321 20.4619 20.9427 20.4619 21.4027C20.4165 21.3754 20.3792 21.3365 20.3539 21.2899C20.3287 21.2434 20.3163 21.1909 20.3181 21.138C20.3181 20.9481 20.3077 20.8117 20.3689 20.7273L20.5342 20.6927ZM18.7933 20.8668C18.7972 20.8835 18.7983 20.9006 18.7965 20.9176C18.7951 20.931 18.7918 20.9441 18.7868 20.9565C18.7002 20.9258 18.6036 20.9506 18.5425 21.0192C18.5317 21.0098 18.5222 20.9989 18.5144 20.9868C18.5051 20.9729 18.4982 20.9576 18.4939 20.9414C18.4841 20.9017 18.4904 20.8597 18.5115 20.8247C18.5326 20.7896 18.5667 20.7644 18.6064 20.7545C18.6461 20.7447 18.688 20.751 18.7231 20.7721C18.7581 20.7931 18.7833 20.8272 18.7933 20.8668ZM19.0237 21.1552C19.0091 21.1641 18.9931 21.1704 18.9763 21.1739C18.9632 21.1767 18.9497 21.1776 18.9363 21.1767C18.9388 21.0849 18.8854 21.0007 18.8012 20.9638C18.8069 20.9506 18.8143 20.9382 18.8234 20.9271C18.8337 20.9139 18.8462 20.9026 18.8602 20.8935C18.8949 20.8718 18.9368 20.8648 18.9767 20.874C19.0165 20.8833 19.0511 20.9079 19.0728 20.9426C19.0944 20.9773 19.1014 21.0192 19.0922 21.059C19.083 21.0989 19.0583 21.1334 19.0237 21.1551V21.1552ZM18.8207 21.4634C18.8077 21.4523 18.7967 21.439 18.7882 21.4242C18.7815 21.4125 18.7764 21.4 18.7732 21.387C18.8613 21.3609 18.9248 21.2841 18.9339 21.1927C18.9482 21.194 18.9623 21.1973 18.9757 21.2024C18.9914 21.2082 19.006 21.2165 19.019 21.2271C19.0502 21.2535 19.0697 21.2912 19.0732 21.332C19.0766 21.3727 19.0638 21.4132 19.0374 21.4444C19.0111 21.4756 18.9735 21.4951 18.9329 21.4986C18.8923 21.5022 18.852 21.4895 18.8207 21.4634ZM18.4648 21.3655C18.4713 21.3498 18.4806 21.3352 18.492 21.3225C18.501 21.3126 18.5114 21.3039 18.5227 21.2968C18.5748 21.3725 18.6674 21.4092 18.7572 21.3896C18.7604 21.4036 18.7616 21.418 18.7608 21.4324C18.7602 21.4491 18.7568 21.4656 18.7508 21.4812C18.7354 21.5191 18.7056 21.5493 18.668 21.5653C18.6303 21.5812 18.5878 21.5816 18.5499 21.5662C18.512 21.5509 18.4818 21.5211 18.4658 21.4835C18.4499 21.4459 18.4495 21.4034 18.4648 21.3655V21.3655ZM18.4478 20.9969C18.4649 20.9982 18.4816 21.0025 18.4971 21.0095C18.5094 21.015 18.5208 21.0221 18.5311 21.0307C18.4752 21.1036 18.4689 21.2031 18.5153 21.2824C18.503 21.2898 18.4897 21.2954 18.4758 21.2991C18.4597 21.3037 18.443 21.3055 18.4263 21.3046C18.3855 21.3017 18.3475 21.2827 18.3207 21.2518C18.2939 21.2209 18.2804 21.1807 18.2833 21.1399C18.2862 21.0991 18.3052 21.0612 18.336 21.0344C18.3669 21.0076 18.4071 20.9941 18.4478 20.9969V20.9969Z"
    fill="#FFD200"
  />
<path
    d="M18.7102 21.3188C18.7926 21.3188 18.8593 21.252 18.8593 21.1697C18.8593 21.0873 18.7926 21.0205 18.7102 21.0205C18.6278 21.0205 18.561 21.0873 18.561 21.1697C18.561 21.252 18.6278 21.3188 18.7102 21.3188Z"
    fill="#FFD200"
  />
<path
    d="M21.3286 20.9682C21.081 21.0161 20.9028 21.2348 20.9287 21.4902C20.8498 21.4248 20.792 21.3368 20.7817 21.2395C20.7616 21.0499 20.8993 20.9033 21.107 20.9033C21.1855 20.904 21.2622 20.9265 21.3286 20.9682Z"
    fill="#FFD200"
  />
<path
    d="M22.0735 17.6989H17.7679C17.825 17.7563 17.8975 17.8481 17.8975 17.9431V20.8396H17.8973V21.2784H17.8975C17.8968 21.3127 17.9023 21.3469 17.9138 21.3793C17.9249 21.4081 17.9403 21.4349 17.9596 21.459L17.9603 21.46C18.0023 21.5135 18.0511 21.5613 18.1054 21.6022C18.1177 21.6119 18.1302 21.6212 18.1429 21.6304C18.1555 21.6394 18.1683 21.6481 18.1813 21.6566L18.1816 21.6568C18.4107 21.8055 18.7637 21.9619 19.0844 22.104L19.3355 22.2161L19.3357 22.2163V22.2162L19.3428 22.2195H19.3429C19.6365 22.353 19.7674 22.4126 19.9207 22.5921C20.0744 22.4119 20.2048 22.3525 20.5011 22.2178L20.5011 22.2178L20.5045 22.2162L20.7556 22.1041C21.0763 21.962 21.4294 21.8056 21.6585 21.6568L21.6587 21.6567C21.723 21.6149 21.7825 21.5662 21.8362 21.5114C21.8446 21.5027 21.8528 21.4937 21.8606 21.4845C21.8676 21.4762 21.8741 21.468 21.8798 21.46L21.8803 21.4595L21.8804 21.4594L21.8807 21.459C21.9001 21.4348 21.9157 21.4079 21.9271 21.3791C21.9388 21.3468 21.9445 21.3127 21.9439 21.2784H21.944V20.8396H21.9439V17.9431C21.9439 17.8481 22.0164 17.7564 22.0735 17.6989ZM22.0109 17.9431V20.8396H22.0108V21.2784H22.0109C22.0115 21.3207 22.0043 21.3629 21.9897 21.4026C21.9761 21.4373 21.9574 21.4698 21.9342 21.499L21.9342 21.4991C21.9271 21.5089 21.9196 21.5185 21.9117 21.5277C21.9029 21.538 21.8938 21.548 21.8844 21.5578C21.8272 21.6162 21.7637 21.6682 21.6951 21.7128L21.695 21.7129C21.4608 21.8649 21.1054 22.0224 20.7826 22.1654L20.5322 22.2772L20.5288 22.2788H20.5287C20.2261 22.4164 20.1023 22.4727 19.9467 22.6654L19.9207 22.6977L19.8946 22.6655C19.7397 22.4737 19.6152 22.417 19.3152 22.2805L19.3152 22.2805L19.3082 22.2773L19.3079 22.2772L19.3078 22.2771L19.3078 22.2772L19.0574 22.1653C18.7346 22.0223 18.3792 21.8648 18.1451 21.7128L18.1443 21.7123L18.144 21.7121C18.1308 21.7035 18.1174 21.6943 18.1038 21.6846C18.0903 21.6749 18.0771 21.665 18.0642 21.6549C18.0049 21.61 17.9516 21.5575 17.9058 21.4988H17.9059C17.8827 21.4697 17.8642 21.4372 17.8509 21.4024C17.8367 21.3626 17.8297 21.3207 17.8304 21.2784H17.8305V20.8396H17.8304V17.9431C17.8304 17.8198 17.6606 17.6924 17.6602 17.6921V17.6318H22.1811V17.6921C22.1806 17.6924 22.0109 17.8198 22.0109 17.9431H22.0109ZM21.9095 17.7379L21.9096 17.7378H21.9255L21.9949 17.7377L21.9516 17.7921C21.9201 17.8361 21.9037 17.8891 21.905 17.9431V20.8396H21.9049V21.2784H21.905C21.905 21.3377 21.8634 21.4523 21.6679 21.5951L21.6679 21.5952C21.6313 21.6219 21.5891 21.6499 21.5405 21.6789C21.4916 21.708 21.4369 21.738 21.3759 21.7684L21.3758 21.7683L21.3752 21.7687V21.7688C21.1139 21.899 20.8725 22.0048 20.6642 22.0962C20.3063 22.2531 20.0471 22.3668 19.9467 22.4903L19.9462 22.491L19.9461 22.4911L19.92 22.5215L19.8947 22.4904C19.7943 22.3668 19.5351 22.2531 19.177 22.0961C18.9688 22.0048 18.7277 21.8991 18.4666 21.769V21.7689L18.4662 21.7686L18.4661 21.7687C18.2809 21.6765 18.159 21.5918 18.0798 21.5191C18.0653 21.5057 18.0512 21.4918 18.0377 21.4773C17.9573 21.3909 17.9365 21.3211 17.9365 21.2785H17.9363V21.2784H17.9365V20.8395H17.9363V17.9431C17.9376 17.889 17.9212 17.836 17.8898 17.7921L17.8464 17.7379H17.9904V17.7378H21.8509V17.7379H21.9094H21.9095ZM21.851 17.8047V17.8048H17.9904V17.8047H17.9737C17.9933 17.8482 18.0034 17.8954 18.0034 17.9431V20.8396H18.0033V21.2784H18.0034V21.2785H18.0033C18.0033 21.3086 18.0204 21.3606 18.0867 21.4318C18.0981 21.444 18.1109 21.4568 18.1252 21.4699C18.2001 21.5387 18.3168 21.6195 18.496 21.7088V21.7089L18.4965 21.7091L18.4965 21.709C18.7592 21.8399 18.9978 21.9445 19.2038 22.0348C19.5444 22.1842 19.7977 22.2953 19.9207 22.4195C20.0437 22.2953 20.297 22.1842 20.6375 22.0349C20.8437 21.9445 21.0825 21.8397 21.3454 21.7088L21.3454 21.7089L21.3461 21.7086V21.7084C21.4069 21.6781 21.46 21.6491 21.5062 21.6215C21.5528 21.5937 21.5934 21.5669 21.6284 21.5412H21.6285C21.8013 21.4151 21.838 21.3238 21.838 21.2784H21.8381V20.8395H21.838V17.9431C21.8379 17.8954 21.848 17.8482 21.8676 17.8047H21.851Z"
    fill="black"
  />
<defs>
<clipPath id="clip0_17507_13412">
<rect width="38" height="38" fill="white" transform="translate(1 1.08887)" />
</clipPath>
</defs>
</svg>
