<svg xmlns="http://www.w3.org/2000/svg" id="a" viewBox="0 0 40 40"><defs><style
    >.as{stroke-width:.04px}.as,.at{stroke-linecap:round;stroke-linejoin:round}.as,.at,.au,.av,.aw{fill:#ff0}.as,.at,.av,.aw{stroke:#000}.as,.at{fill-rule:evenodd}.at{stroke-width:.04px}.bb{fill:#039}.bc{fill:#fff}.av{stroke-miterlimit:4}.av,.aw{stroke-width:.03px}</style></defs><path
    fill="#d9252a"
    fill-rule="evenodd"
    d="M1 32h38V7H1v25Z"
  /><path fill="#1d5c31" fill-rule="evenodd" d="M1 32h15V7H1v25Z" /><path
    d="M21.58 23.51c-1.96-.06-10.94-5.67-11-6.56l.5-.83c.89 1.29 10.07 6.75 10.98 6.55l-.47.83"
    class="at"
  /><path
    d="M10.97 16.01c-.18.47 2.34 2.03 5.38 3.87 3.03 1.84 5.65 2.98 5.84 2.82.01-.02.1-.16.09-.16-.04.05-.12.07-.26.03-.82-.24-2.96-1.22-5.6-2.82-2.65-1.6-4.95-3.08-5.31-3.71a.478.478 0 0 1-.04-.18h0l-.08.13v.02h-.01 0Zm10.66 7.52c-.03.06-.1.06-.21.05-.73-.08-2.96-1.16-5.59-2.74-3.06-1.83-5.59-3.5-5.32-3.94l.07-.13h.01c-.25.74 4.99 3.74 5.3 3.93 3.03 1.88 5.58 2.97 5.81 2.69l-.08.14h0s0 0 0 0Z"
    class="at"
  /><path
    d="M16.52 17.49c1.96-.02 4.38-.27 5.77-.82l-.3-.49c-.82.46-3.26.76-5.49.8-2.64-.02-4.51-.27-5.44-.9l-.28.52c1.72.73 3.48.88 5.74.89"
    class="at"
  /><path
    d="M22.37 16.68c-.05.08-.96.39-2.29.62-.91.14-2.09.26-3.57.26-1.4 0-2.55-.1-3.42-.22-1.4-.22-2.13-.53-2.4-.63.03-.05.04-.09.07-.13.77.31 1.5.49 2.35.62.86.12 1.99.22 3.39.22 1.47 0 2.64-.13 3.54-.26 1.37-.22 2.12-.51 2.23-.64l.1.17h0Zm-.26-.49c-.15.12-.89.38-2.19.59-.87.12-1.98.24-3.39.24-1.34 0-2.44-.09-3.27-.21-1.32-.17-2.03-.48-2.28-.58.03-.04.05-.09.08-.13.2.1.88.38 2.22.57.82.12 1.92.2 3.26.2 1.41 0 2.5-.12 3.36-.24 1.31-.18 2.02-.52 2.12-.6l.1.16h0s0 0 0 0ZM10.08 19.86c1.21.65 3.88.98 6.42 1 2.31 0 5.31-.36 6.44-.95l-.03-.65c-.35.55-3.57 1.08-6.43 1.06-2.86-.02-5.51-.46-6.4-1.03v.58"
    class="at"
  /><path
    d="M23 19.76v.15c-.17.2-1.23.51-2.56.72-1.01.16-2.33.27-3.97.27s-2.81-.11-3.77-.26c-1.53-.22-2.5-.61-2.7-.73v-.18c.59.39 2.18.68 2.72.77.96.15 2.2.26 3.75.26 1.64 0 2.95-.12 3.95-.27.95-.14 2.31-.5 2.58-.73h0Zm0-.55v.15c-.17.2-1.23.51-2.56.72-1.01.16-2.33.27-3.97.27s-2.81-.11-3.77-.26c-1.53-.22-2.5-.61-2.7-.73v-.18c.59.39 2.18.68 2.72.76.96.15 2.2.26 3.75.26 1.64 0 2.95-.12 3.95-.27.95-.14 2.31-.5 2.58-.73h0s0 0 0 0ZM16.49 23.4c-2.77-.02-5.15-.76-5.65-.88l.37.57c.89.37 3.21.93 5.31.87 2.11-.06 3.95-.22 5.25-.86l.38-.59c-.88.42-3.9.88-5.65.89"
    class="at"
  /><path
    d="M21.91 22.97c-.06.08-.11.17-.17.25-.61.22-1.58.44-1.98.51-.83.17-2.12.3-3.26.3-2.46-.04-4.47-.52-5.41-.93l-.08-.13v-.02l.14.05c1.68.6 3.57.84 5.36.89 1.14 0 2.28-.13 3.2-.3 1.41-.28 1.98-.5 2.16-.59l.04-.02h0Zm.33-.54s0 0 0 0c-.04.07-.08.14-.13.21-.33.12-1.21.38-2.51.56-.85.12-1.38.23-3.08.26-3.18-.08-5.24-.7-5.73-.86l-.07-.14c1.84.48 3.72.82 5.8.85 1.55-.03 2.21-.15 3.06-.26 1.51-.23 2.27-.48 2.5-.55l-.01-.01.16-.06h0s0 0 0 0Z"
    class="as"
  /><path
    d="M22.27 19.34c0 1.82-.92 3.46-1.68 4.18a6.025 6.025 0 0 1-4.12 1.71c-1.84.03-3.57-1.17-4.04-1.69-.91-1.03-1.65-2.34-1.67-4.1.11-1.99.89-3.38 2.03-4.33s2.64-1.41 3.9-1.38c1.45.04 3.14.75 4.31 2.16.77.93 1.1 1.93 1.27 3.45h0Zm-5.78-6.25c3.53 0 6.44 2.88 6.44 6.4s-2.91 6.4-6.44 6.4-6.42-2.88-6.42-6.4 2.88-6.4 6.42-6.4"
    class="at"
  /><path
    d="M16.5 13.07c3.54 0 6.42 2.88 6.42 6.42s-2.88 6.42-6.42 6.42-6.42-2.88-6.42-6.42 2.88-6.42 6.42-6.42h0Zm-6.28 6.42c0 3.45 2.84 6.28 6.28 6.28s6.28-2.83 6.28-6.28-2.84-6.28-6.28-6.28-6.28 2.83-6.28 6.28h0Z"
    class="at"
  /><path
    d="M16.51 13.61c3.22 0 5.88 2.65 5.88 5.88s-2.66 5.88-5.88 5.88-5.88-2.65-5.88-5.88 2.66-5.88 5.88-5.88h0Zm-5.74 5.88c0 3.16 2.59 5.74 5.74 5.74s5.74-2.58 5.74-5.74-2.59-5.74-5.74-5.74-5.74 2.58-5.74 5.74h0Z"
    class="at"
  /><path d="M16.76 13.05h-.55v12.9h.55v-12.9Z" class="at" /><path
    d="M16.71 12.97h.14v13.05h-.14V12.97s0 0 0 0Zm-.55 0h.14v13.05h-.14V12.97h0Z"
    class="at"
  /><path
    d="M22.93 19.74v-.48l-.39-.36-2.2-.58-3.18-.32-3.83.19-2.72.65-.55.41v.48l1.39-.62 3.31-.52h3.18l2.33.26 1.62.39 1.04.51Z"
    class="at"
  /><path
    d="M16.5 18.5c1.52 0 2.99.14 4.15.37 1.2.24 2.05.54 2.34.88v.17c-.35-.42-1.49-.73-2.37-.91-1.16-.23-2.62-.37-4.13-.37-1.59 0-3.07.15-4.21.38-.92.18-2.14.54-2.29.9v-.17c.08-.25.99-.61 2.27-.87 1.15-.22 2.63-.37 4.23-.38h0Zm0-.55c1.52 0 2.99.14 4.15.37 1.2.24 2.05.54 2.34.88v.17c-.35-.42-1.49-.73-2.37-.91-1.16-.23-2.62-.37-4.13-.37-1.59 0-3.07.15-4.21.38-.88.17-2.15.54-2.3.9v-.17c.08-.24 1.01-.63 2.27-.87 1.15-.22 2.63-.37 4.23-.38h0ZM16.47 15.14c2.39-.01 4.47.33 5.43.82l.35.6c-.83-.45-3.08-.91-5.77-.84-2.2.01-4.54.24-5.72.87l.42-.69c.97-.5 3.24-.76 5.3-.76"
    class="at"
  /><path
    d="M16.5 15.64c1.36 0 2.68.07 3.73.26.98.18 1.91.45 2.04.6l.1.18c-.32-.21-1.13-.45-2.16-.64-1.04-.2-2.35-.26-3.71-.26-1.54 0-2.73.08-3.76.25-1.08.2-1.84.49-2.02.63l.1-.19c.36-.18.93-.41 1.9-.58 1.06-.19 2.27-.25 3.79-.26h0Zm0-.55c1.3 0 2.59.07 3.6.25.79.15 1.57.39 1.86.61l.15.24c-.26-.28-1.22-.56-2.07-.71-1-.17-2.23-.24-3.53-.25-1.37 0-2.63.09-3.62.27-.94.18-1.54.39-1.8.55l.13-.2c.35-.19.92-.36 1.64-.5.99-.18 2.26-.26 3.64-.27h0ZM19.69 22.16c-1.18-.22-2.36-.25-3.19-.24-3.98.05-5.27.82-5.43 1.05l-.3-.49c1.01-.73 3.18-1.15 5.74-1.1 1.33.02 2.48.11 3.44.3l-.27.48"
    class="at"
  /><path
    d="M16.48 21.85c1.11.02 2.2.06 3.24.26l-.08.13c-.97-.18-2.01-.25-3.16-.24-1.47-.01-2.96.13-4.25.5-.41.11-1.08.38-1.15.59l-.08-.12c.02-.13.43-.39 1.19-.61 1.48-.42 2.87-.5 4.28-.51h0s0 0 0 0Zm.05-.56c1.15.02 2.33.07 3.48.3l-.08.14c-1.04-.21-2.03-.28-3.4-.3-1.47 0-3.04.11-4.46.52-.46.13-1.25.42-1.28.65l-.08-.13c.02-.21.7-.48 1.32-.66 1.43-.42 3-.52 4.49-.53h0Z"
    class="as"
  /><path
    d="m22.19 22.56-.48.74-1.37-1.22-3.57-2.4-4.02-2.2-2.09-.71.44-.82.15-.08 1.3.32 4.28 2.2 2.46 1.56 2.08 1.49.84.97-.03.15Z"
    class="at"
  /><path
    d="M10.58 16.78c.37-.25 3.06.95 5.87 2.65s5.49 3.63 5.25 3.99l-.08.13-.04.03s.05-.05 0-.19c-.12-.39-2.02-1.91-5.18-3.82-3.08-1.84-5.64-2.94-5.9-2.63l.08-.15h0Zm11.7 5.77c.23-.46-2.26-2.34-5.36-4.17-3.17-1.79-5.45-2.85-5.86-2.54l-.09.17s0-.01.02-.03c.08-.07.2-.06.26-.06.72.01 2.77.95 5.64 2.6 1.26.73 5.32 3.34 5.31 4.07 0 .06 0 .08-.02.11l.1-.16h0s0 0 0 0Z"
    class="at"
  /><path
    fill="#fff"
    stroke="#000"
    stroke-width=".04"
    d="M12.65 20.2c0 1.06.43 2.01 1.13 2.71a3.818 3.818 0 0 0 5.43.01c.7-.7 1.13-1.66 1.13-2.72v-5.14h-7.7v5.13Z"
  /><path
    fill="red"
    stroke="#000"
    stroke-width=".03"
    d="M12.8 20.21c0 1.01.42 1.93 1.09 2.6a3.69 3.69 0 0 0 5.22 0c.67-.67 1.08-1.58 1.08-2.6v-4.98h-7.38v4.98m5.9-3.49v3.51c0 .09 0 .19-.02.27-.06.5-.29.94-.63 1.28-.4.4-.95.64-1.56.64s-1.14-.26-1.55-.65c-.41-.41-.65-.97-.65-1.55v-3.5h4.4Z"
  /><path
    d="M13.28 16.53c0-.36.26-.44.26-.44s.27.09.27.45h-.54"
    class="au"
  /><path
    d="m13.06 16.1-.04.41h.27c0-.34.26-.4.26-.4s.26.08.27.4h.27l-.05-.41h-.97ZM13 16.51h1.1s.04.02.04.05-.02.05-.04.05H13s-.04-.02-.04-.05.02-.05.04-.05Z"
    class="aw"
  /><path
    d="M13.39 16.51c0-.21.15-.28.15-.28s.15.06.15.28h-.3M13.02 15.93h1.05s.04.02.04.05-.02.05-.04.05h-1.05s-.04-.02-.04-.05.02-.05.04-.05Z"
    class="aw"
  /><path
    d="M13.04 16.02h1.01s.04.02.04.05-.02.05-.04.05h-1.01s-.04-.02-.04-.05.02-.05.04-.05ZM13.37 15.33h.08v.06h.06v-.06h.08v.06h.06v-.06h.08v.13s-.02.03-.04.03h-.29s-.04-.02-.04-.03v-.13ZM13.67 15.51l.02.42h-.28l.02-.42h.24"
    class="aw"
  /><path id="b" d="M13.33 15.7v.23h-.26v-.23h.26Z" class="aw" /><path
    id="c"
    d="M14.01 15.7v.23h-.26v-.23h.26Z"
    class="aw"
  /><path
    id="d"
    d="M13.02 15.54h.08v.06h.06v-.06h.08v.06h.06v-.06h.08v.13c0 .02-.02.03-.03.03h-.28s-.04-.02-.04-.03v-.13Z"
    class="aw"
  /><path
    id="e"
    d="M13.71 15.54h.08v.06h.06v-.06h.08v.06h.06v-.06h.08v.13c0 .02-.02.03-.03.03h-.28s-.04-.02-.04-.03v-.13Z"
    class="aw"
  /><path d="M13.52 15.64s.06-.04.06 0v.1h-.06v-.1" /><path
    id="f"
    d="M13.17 15.78s.05-.04.05 0v.08h-.05v-.08"
  /><path id="g" d="M13.86 15.78s.05-.04.05 0v.08h-.05v-.08" /><path
    d="M13.28 19.54c0-.36.26-.44.26-.44s.27.09.27.45h-.54"
    class="au"
  /><path
    d="m13.06 19.1-.04.41h.27c0-.34.26-.4.26-.4s.26.08.27.4h.27l-.05-.41h-.97ZM13 19.51h1.1s.04.02.04.05-.02.05-.04.05H13s-.04-.02-.04-.05.02-.05.04-.05Z"
    class="aw"
  /><path
    d="M13.39 19.51c0-.21.15-.28.15-.28s.15.06.15.28h-.3M13.02 18.93h1.05s.04.02.04.05-.02.05-.04.05h-1.05s-.04-.02-.04-.05.02-.05.04-.05Z"
    class="aw"
  /><path
    d="M13.04 19.02h1.01s.04.02.04.05-.02.05-.04.05h-1.01s-.04-.02-.04-.05.02-.05.04-.05ZM13.37 18.33h.08v.06h.06v-.06h.08v.06h.06v-.06h.08v.13s-.02.03-.04.03h-.29s-.04-.02-.04-.03v-.13ZM13.67 18.51l.02.42h-.28l.02-.42h.24"
    class="aw"
  /><path id="h" d="M13.33 18.7v.23h-.26v-.23h.26Z" class="aw" /><path
    id="i"
    d="M14.01 18.7v.23h-.26v-.23h.26Z"
    class="aw"
  /><path
    id="j"
    d="M13.02 18.54h.08v.06h.06v-.06h.08v.06h.06v-.06h.08v.13c0 .02-.02.03-.03.03h-.28s-.04-.02-.04-.03v-.13Z"
    class="aw"
  /><path
    id="k"
    d="M13.71 18.54h.08v.06h.06v-.06h.08v.06h.06v-.06h.08v.13c0 .02-.02.03-.03.03h-.28s-.04-.02-.04-.03v-.13Z"
    class="aw"
  /><path d="M13.52 18.64s.06-.04.06 0v.1h-.06v-.1" /><path
    id="l"
    d="M13.17 18.79s.05-.04.05 0v.08h-.05v-.08"
  /><path id="m" d="M13.86 18.79s.05-.04.05 0v.08h-.05v-.08" /><path
    d="M14.45 22.66c-.25-.26-.13-.5-.13-.5s.26-.13.51.12l-.38.38"
    class="au"
  /><path
    d="m13.98 22.51.26.32.19-.19c-.24-.24-.1-.46-.09-.47 0 0 .24-.13.47.09l.19-.19-.33-.26-.68.69ZM14.23 22.85l.77-.78s.05-.01.07 0 .02.05 0 .07l-.77.78s-.05.01-.07 0-.02-.05 0-.07Z"
    class="av"
  /><path
    d="M14.51 22.56c-.15-.15-.09-.3-.09-.3s.15-.06.3.09l-.21.21M13.83 22.42l.74-.75s.04-.01.06 0 .02.05 0 .06l-.74.75s-.04.01-.06 0-.02-.05 0-.06ZM13.92 22.47l.71-.72s.04-.01.06 0 .02.04 0 .06l-.71.72s-.04.01-.06 0-.02-.04 0-.06ZM13.66 21.75l.06-.06.04.04.04-.04-.04-.04.06-.06.04.04.04-.04-.04-.04.06-.06.09.09s.01.04 0 .05l-.2.2s-.04.02-.05 0l-.09-.09ZM13.99 21.66l.31.28-.2.2-.28-.31.17-.17"
    class="av"
  /><path
    id="n"
    d="m13.89 22.04.17.15-.19.19-.15-.16.18-.18Z"
    class="av"
  /><path
    id="o"
    d="m14.37 21.55.17.15-.19.19-.15-.16.18-.18Z"
    class="av"
  /><path
    id="p"
    d="m13.56 22.14.05-.06.04.04.04-.04-.04-.04.06-.06.04.04.04-.04-.04-.04.06-.06.09.09s.01.04 0 .05l-.2.2s-.04.01-.05 0l-.09-.09Z"
    class="av"
  /><path
    id="q"
    d="m14.05 21.65.05-.06.04.04.04-.04-.04-.04.06-.06.04.04.04-.04-.04-.04.06-.06.09.09s.01.04 0 .05l-.2.2s-.04.01-.05 0l-.09-.09Z"
    class="av"
  /><path d="M13.98 21.86s.01-.07.04-.04l.07.07-.04.04-.07-.07" /><path
    id="r"
    d="M13.84 22.21s0-.07.04-.04l.05.05-.04.04-.05-.05"
  /><path id="s" d="M14.33 21.72s0-.07.04-.04l.05.05-.04.04-.05-.05" /><path
    d="M16.24 16.53c0-.36.26-.44.26-.44s.27.09.27.45h-.54"
    class="au"
  /><path
    d="m16.02 16.1-.04.41h.27c0-.34.26-.4.26-.4s.26.08.27.4h.27L17 16.1h-.97ZM15.96 16.51h1.1s.04.02.04.05-.02.05-.04.05h-1.1s-.04-.02-.04-.05.02-.05.04-.05Z"
    class="aw"
  /><path
    d="M16.36 16.51c0-.21.15-.28.15-.28s.15.06.15.28h-.3M15.98 15.93h1.05s.04.02.04.05-.02.05-.04.05h-1.05s-.04-.02-.04-.05.02-.05.04-.05Z"
    class="aw"
  /><path
    d="M16 16.02h1.01s.04.02.04.05-.02.05-.04.05H16s-.04-.02-.04-.05.02-.05.04-.05ZM16.33 15.33h.08v.06h.06v-.06h.08v.06h.06v-.06h.08v.13s-.02.03-.04.03h-.29s-.04-.02-.04-.03v-.13ZM16.63 15.51l.02.42h-.28l.02-.42h.24"
    class="aw"
  /><path id="t" d="M16.29 15.7v.23h-.26v-.23h.26Z" class="aw" /><path
    id="u"
    d="M16.98 15.7v.23h-.26v-.23h.26Z"
    class="aw"
  /><path
    id="v"
    d="M15.99 15.54h.08v.06h.06v-.06h.08v.06h.06v-.06h.08v.13c0 .02-.02.03-.03.03h-.28s-.04-.02-.04-.03v-.13Z"
    class="aw"
  /><path
    id="w"
    d="M16.68 15.54h.08v.06h.06v-.06h.08v.06h.06v-.06h.08v.13c0 .02-.02.03-.03.03h-.28s-.04-.02-.04-.03v-.13Z"
    class="aw"
  /><path d="M16.48 15.64s.06-.04.06 0v.1h-.06v-.1" /><path
    id="x"
    d="M16.14 15.78s.05-.04.05 0v.08h-.05v-.08"
  /><path id="y" d="M16.83 15.78s.05-.04.05 0v.08h-.05v-.08" /><path
    d="M19.72 16.53c0-.36-.26-.44-.26-.44s-.27.09-.27.45h.54"
    class="au"
  /><path
    d="m19.94 16.1.04.41h-.27c0-.34-.26-.4-.26-.4s-.26.08-.27.4h-.27l.05-.41h.97ZM20 16.51h-1.1s-.04.02-.04.05.02.05.04.05H20s.04-.02.04-.05-.02-.05-.04-.05Z"
    class="aw"
  /><path
    d="M19.61 16.51c0-.21-.15-.28-.15-.28s-.15.06-.15.28h.3M19.98 15.93h-1.05s-.04.02-.04.05.02.05.04.05h1.05s.04-.02.04-.05-.02-.05-.04-.05Z"
    class="aw"
  /><path
    d="M19.96 16.02h-1.01s-.04.02-.04.05.02.05.04.05h1.01s.04-.02.04-.05-.02-.05-.04-.05ZM19.63 15.33h-.08v.06h-.06v-.06h-.08v.06h-.06v-.06h-.08v.13s.02.03.04.03h.29s.04-.02.04-.03v-.13ZM19.33 15.51l-.02.42h.28l-.02-.42h-.24"
    class="aw"
  /><path id="z" d="M19.67 15.7v.23h.26v-.23h-.26Z" class="aw" /><path
    id="aa"
    d="M18.99 15.7v.23h.26v-.23h-.26Z"
    class="aw"
  /><path
    id="ab"
    d="M19.98 15.54h-.08v.06h-.06v-.06h-.08v.06h-.06v-.06h-.08v.13c0 .02.02.03.03.03h.28s.04-.02.04-.03v-.13Z"
    class="aw"
  /><path
    id="ac"
    d="M19.29 15.54h-.08v.06h-.06v-.06h-.08v.06h-.06v-.06h-.08v.13c0 .02.02.03.03.03h.28s.04-.02.04-.03v-.13Z"
    class="aw"
  /><path d="M19.48 15.64s-.06-.04-.06 0v.1h.06v-.1" /><path
    id="ad"
    d="M19.83 15.78s-.05-.04-.05 0v.08h.05v-.08"
  /><path id="ae" d="M19.14 15.78s-.05-.04-.05 0v.08h.05v-.08" /><path
    d="M19.72 19.54c0-.36-.26-.44-.26-.44s-.27.09-.27.45h.54"
    class="au"
  /><path
    d="m19.94 19.1.04.41h-.27c0-.34-.26-.4-.26-.4s-.26.08-.27.4h-.27l.05-.41h.97ZM20 19.51h-1.1s-.04.02-.04.05.02.05.04.05H20s.04-.02.04-.05-.02-.05-.04-.05Z"
    class="aw"
  /><path
    d="M19.61 19.51c0-.21-.15-.28-.15-.28s-.15.06-.15.28h.3M19.98 18.93h-1.05s-.04.02-.04.05.02.05.04.05h1.05s.04-.02.04-.05-.02-.05-.04-.05Z"
    class="aw"
  /><path
    d="M19.96 19.02h-1.01s-.04.02-.04.05.02.05.04.05h1.01s.04-.02.04-.05-.02-.05-.04-.05ZM19.63 18.33h-.08v.06h-.06v-.06h-.08v.06h-.06v-.06h-.08v.13s.02.03.04.03h.29s.04-.02.04-.03v-.13ZM19.33 18.51l-.02.42h.28l-.02-.42h-.24"
    class="aw"
  /><path id="af" d="M19.67 18.7v.23h.26v-.23h-.26Z" class="aw" /><path
    id="ag"
    d="M18.99 18.7v.23h.26v-.23h-.26Z"
    class="aw"
  /><path
    id="ah"
    d="M19.98 18.54h-.08v.06h-.06v-.06h-.08v.06h-.06v-.06h-.08v.13c0 .02.02.03.03.03h.28s.04-.02.04-.03v-.13Z"
    class="aw"
  /><path
    id="ai"
    d="M19.29 18.54h-.08v.06h-.06v-.06h-.08v.06h-.06v-.06h-.08v.13c0 .02.02.03.03.03h.28s.04-.02.04-.03v-.13Z"
    class="aw"
  /><path d="M19.48 18.64s-.06-.04-.06 0v.1h.06v-.1" /><path
    id="aj"
    d="M19.83 18.79s-.05-.04-.05 0v.08h.05v-.08"
  /><path id="ak" d="M19.14 18.79s-.05-.04-.05 0v.08h.05v-.08" /><path
    d="M18.55 22.66c.25-.26.13-.5.13-.5s-.26-.13-.51.12l.38.38"
    class="au"
  /><path
    d="m19.02 22.51-.26.32-.19-.19c.24-.24.1-.46.09-.47 0 0-.24-.13-.47.09l-.19-.19.33-.26.68.69Z"
    class="av"
  /><path
    d="m18.77 22.85-.77-.78s-.05-.01-.07 0-.02.05 0 .07l.77.78s.05.01.07 0 .02-.05 0-.07ZM18.49 22.56c.15-.15.09-.3.09-.3s-.15-.06-.3.09l.21.21M19.17 22.42l-.74-.75s-.04-.01-.06 0-.02.05 0 .06l.74.75s.04.01.06 0 .02-.05 0-.06ZM19.08 22.47l-.71-.72s-.04-.01-.06 0-.02.04 0 .06l.71.72s.04.01.06 0 .02-.04 0-.06ZM19.34 21.75l-.06-.06-.04.04-.04-.04.04-.04-.06-.06-.04.04-.04-.04.04-.04-.06-.06-.09.09s-.01.04 0 .05l.2.2s.04.02.05 0l.09-.09ZM19.01 21.66l-.31.28.2.2.28-.31-.17-.17"
    class="av"
  /><path
    id="al"
    d="m19.11 22.04-.17.15.19.19.15-.16-.18-.18Z"
    class="av"
  /><path
    id="am"
    d="m18.63 21.55-.17.15.19.19.15-.16-.18-.18Z"
    class="av"
  /><path
    id="an"
    d="m19.44 22.14-.05-.06-.04.04-.04-.04.04-.04-.06-.06-.04.04-.04-.04.04-.04-.06-.06-.09.09s-.01.04 0 .05l.2.2s.04.01.05 0l.09-.09Z"
    class="av"
  /><path
    id="ao"
    d="m18.95 21.65-.05-.06-.04.04-.04-.04.04-.04-.06-.06-.04.04-.04-.04.04-.04-.06-.06-.09.09s-.01.04 0 .05l.2.2s.04.01.05 0l.09-.09Z"
    class="av"
  /><path d="M19.02 21.86s-.01-.07-.04-.04l-.07.07.04.04.07-.07" /><path
    id="ap"
    d="M19.16 22.21s0-.07-.04-.04l-.05.05.04.04.05-.05"
  /><path id="aq" d="M18.67 21.72s0-.07-.04-.04l-.05.05.04.04.05-.05" /><path
    d="M16.03 19.64c0 .14.06.27.14.37.09.1.21.15.34.15s.26-.06.34-.15a.53.53 0 0 0 .14-.37v-.7h-.97v.7"
    class="bb"
  /><circle cx="16.25" cy="19.21" r=".1" class="bc" /><circle
    cx="16.79"
    cy="19.21"
    r=".1"
    class="bc"
  /><circle cx="16.52" cy="19.47" r=".1" class="bc" /><circle
    cx="16.25"
    cy="19.74"
    r=".1"
    class="bc"
  /><circle cx="16.79" cy="19.74" r=".1" class="bc" /><path
    d="M16.03 17.96c0 .14.06.27.14.37.09.1.21.15.34.15s.26-.06.34-.15a.53.53 0 0 0 .14-.37v-.7h-.97v.7"
    class="bb"
  /><circle cx="16.25" cy="17.53" r=".1" class="bc" /><circle
    cx="16.79"
    cy="17.53"
    r=".1"
    class="bc"
  /><circle cx="16.52" cy="17.78" r=".1" class="bc" /><circle
    cx="16.25"
    cy="18.06"
    r=".1"
    class="bc"
  /><circle cx="16.79" cy="18.05" r=".1" class="bc" /><path
    d="M14.68 19.64c0 .14.06.27.14.37.09.1.21.15.34.15s.26-.06.34-.15a.53.53 0 0 0 .14-.37v-.7h-.97v.7"
    class="bb"
  /><circle cx="14.9" cy="19.21" r=".1" class="bc" /><circle
    cx="15.44"
    cy="19.21"
    r=".1"
    class="bc"
  /><circle cx="15.17" cy="19.47" r=".1" class="bc" /><circle
    cx="14.9"
    cy="19.74"
    r=".1"
    class="bc"
  /><circle cx="15.44" cy="19.74" r=".1" class="bc" /><path
    d="M17.37 19.64c0 .14.06.27.14.37.09.1.21.15.34.15s.26-.06.34-.15a.53.53 0 0 0 .14-.37v-.7h-.97v.7"
    class="bb"
  /><circle cx="17.6" cy="19.21" r=".1" class="bc" /><circle
    cx="18.14"
    cy="19.21"
    r=".1"
    class="bc"
  /><circle cx="17.87" cy="19.47" r=".1" class="bc" /><circle
    cx="17.6"
    cy="19.74"
    r=".1"
    class="bc"
  /><circle cx="18.14" cy="19.74" r=".1" class="bc" /><path
    d="M16.03 21.32c0 .14.06.27.14.37.09.1.21.15.34.15s.26-.06.34-.15a.53.53 0 0 0 .14-.37v-.7h-.97v.7"
    class="bb"
  /><circle cx="16.25" cy="20.88" r=".1" class="bc" /><circle
    cx="16.79"
    cy="20.88"
    r=".1"
    class="bc"
  /><circle cx="16.52" cy="21.14" r=".1" class="bc" /><circle
    cx="16.25"
    cy="21.41"
    r=".1"
    class="bc"
  /><circle cx="16.79" cy="21.41" r=".1" class="bc" /><path
    fill="none"
    d="M10 13h13v13H10z"
  /></svg>
