<?xml version="1.0" encoding="utf-8" ?>
<!-- Generator: Adobe Illustrator 27.2.0, SVG Export Plug-In . SVG Version: 6.00 Build 0)  -->
<svg
  version="1.2"
  baseProfile="tiny"
  id="Layer_1"
  xmlns="http://www.w3.org/2000/svg"
  xmlns:xlink="http://www.w3.org/1999/xlink"
  x="0px"
  y="0px"
  viewBox="0 0 40 40"
  overflow="visible"
  xml:space="preserve"
>
<path fill-rule="evenodd" fill="#FF0000" d="M1,39h38V1H1V39z" />
<path fill-rule="evenodd" fill="#006600" d="M1,39h13V1H1V39z" />
<path
    fill-rule="evenodd"
    fill="#FFFF00"
    stroke="#000000"
    stroke-width="5.430822e-02"
    stroke-linecap="round"
    stroke-linejoin="round"
    d="
	M21.9,25.4c-2.9-0.1-16-8.3-16.1-9.6l0.7-1.2c1.3,1.9,14.7,9.9,16,9.6L21.9,25.4"
  />
<path
    fill-rule="evenodd"
    fill="#FFFF00"
    stroke="#000000"
    stroke-width="5.430822e-02"
    stroke-linecap="round"
    stroke-linejoin="round"
    d="
	M6.4,14.4c-0.3,0.7,3.4,3,7.9,5.7c4.4,2.7,8.3,4.4,8.5,4.1c0,0,0.1-0.2,0.1-0.2c-0.1,0.1-0.2,0.1-0.4,0c-1.2-0.3-4.3-1.8-8.2-4.1
	c-3.9-2.3-7.2-4.5-7.8-5.4c0-0.1-0.1-0.2-0.1-0.3l0,0L6.4,14.4L6.4,14.4L6.4,14.4L6.4,14.4z M22,25.4c0,0.1-0.1,0.1-0.3,0.1
	c-1.1-0.1-4.3-1.7-8.2-4c-4.5-2.7-8.2-5.1-7.8-5.8l0.1-0.2l0,0c-0.4,1.1,7.3,5.5,7.7,5.7c4.4,2.7,8.2,4.3,8.5,3.9L22,25.4L22,25.4
	L22,25.4z"
  />
<path
    fill-rule="evenodd"
    fill="#FFFF00"
    stroke="#000000"
    stroke-width="5.430822e-02"
    stroke-linecap="round"
    stroke-linejoin="round"
    d="
	M14.5,16.6c2.9,0,6.4-0.4,8.4-1.2l-0.4-0.7c-1.2,0.7-4.8,1.1-8,1.2c-3.9,0-6.6-0.4-8-1.3l-0.4,0.8C8.6,16.3,11.2,16.6,14.5,16.6"
  />
<path
    fill-rule="evenodd"
    fill="#FFFF00"
    stroke="#000000"
    stroke-width="5.430822e-02"
    stroke-linecap="round"
    stroke-linejoin="round"
    d="
	M23.1,15.4c-0.1,0.1-1.4,0.6-3.4,0.9c-1.3,0.2-3.1,0.4-5.2,0.4c-2.1,0-3.7-0.1-5-0.3C7.5,16,6.4,15.6,6,15.4c0-0.1,0.1-0.1,0.1-0.2
	c1.1,0.4,2.2,0.7,3.4,0.9c1.3,0.2,2.9,0.3,5,0.3c2.1,0,3.9-0.2,5.2-0.4c2-0.3,3.1-0.7,3.3-0.9L23.1,15.4L23.1,15.4L23.1,15.4z
	 M22.7,14.7c-0.2,0.2-1.3,0.6-3.2,0.9c-1.3,0.2-2.9,0.3-5,0.3c-2,0-3.6-0.1-4.8-0.3c-1.9-0.3-3-0.7-3.3-0.8c0-0.1,0.1-0.1,0.1-0.2
	c0.3,0.1,1.3,0.5,3.2,0.8c1.2,0.2,2.8,0.3,4.8,0.3c2.1,0,3.7-0.2,4.9-0.3c1.9-0.3,2.9-0.8,3.1-0.9L22.7,14.7L22.7,14.7L22.7,14.7z"
  />
<path
    fill-rule="evenodd"
    fill="#FFFF00"
    stroke="#000000"
    stroke-width="5.430822e-02"
    stroke-linecap="round"
    stroke-linejoin="round"
    d="
	M5.1,20c1.8,0.9,5.7,1.4,9.4,1.5c3.4,0,7.8-0.5,9.4-1.4l0-0.9c-0.5,0.8-5.2,1.6-9.4,1.5c-4.2,0-8.1-0.7-9.4-1.5L5.1,20"
  />
<path
    fill-rule="evenodd"
    fill="#FFFF00"
    stroke="#000000"
    stroke-width="5.430822e-02"
    stroke-linecap="round"
    stroke-linejoin="round"
    d="
	M24,19.9l0,0.2c-0.2,0.3-1.8,0.7-3.7,1.1c-1.5,0.2-3.4,0.4-5.8,0.4c-2.3,0-4.1-0.2-5.5-0.4c-2.2-0.3-3.7-0.9-3.9-1.1l0-0.3
	c0.9,0.6,3.2,1,4,1.1c1.4,0.2,3.2,0.4,5.5,0.4c2.4,0,4.3-0.2,5.8-0.4C21.6,20.8,23.6,20.2,24,19.9L24,19.9L24,19.9z M24,19.1l0,0.2
	c-0.2,0.3-1.8,0.7-3.7,1.1c-1.5,0.2-3.4,0.4-5.8,0.4c-2.3,0-4.1-0.2-5.5-0.4c-2.2-0.3-3.7-0.9-3.9-1.1l0-0.3c0.9,0.6,3.2,1,4,1.1
	c1.4,0.2,3.2,0.4,5.5,0.4c2.4,0,4.3-0.2,5.8-0.4C21.6,20,23.6,19.4,24,19.1L24,19.1L24,19.1z"
  />
<path
    fill-rule="evenodd"
    fill="#FFFF00"
    stroke="#000000"
    stroke-width="5.430822e-02"
    stroke-linecap="round"
    stroke-linejoin="round"
    d="
	M14.5,25.2c-4.1,0-7.5-1.1-8.3-1.3l0.5,0.8c1.3,0.5,4.7,1.4,7.8,1.3c3.1-0.1,5.8-0.3,7.7-1.3l0.5-0.9C21.5,24.5,17.1,25.2,14.5,25.2
	"
  />
<path
    fill-rule="evenodd"
    fill="#FFFF00"
    stroke="#000000"
    stroke-width="5.212831e-02"
    stroke-linecap="round"
    stroke-linejoin="round"
    d="
	M22.4,24.6c-0.1,0.1-0.2,0.2-0.2,0.4c-0.9,0.3-2.3,0.6-2.9,0.7c-1.2,0.3-3.1,0.4-4.8,0.4c-3.6-0.1-6.5-0.8-7.9-1.4l-0.1-0.2l0,0
	l0.2,0.1c2.5,0.9,5.2,1.2,7.8,1.3c1.7,0,3.3-0.2,4.7-0.4C21.2,25.1,22.1,24.8,22.4,24.6L22.4,24.6L22.4,24.6L22.4,24.6z M22.9,23.8
	C22.9,23.8,22.9,23.8,22.9,23.8c-0.1,0.1-0.1,0.2-0.2,0.3c-0.5,0.2-1.8,0.5-3.7,0.8c-1.2,0.2-2,0.3-4.5,0.4c-4.6-0.1-7.7-1-8.4-1.3
	l-0.1-0.2c2.7,0.7,5.4,1.2,8.5,1.2c2.3,0,3.2-0.2,4.5-0.4c2.2-0.3,3.3-0.7,3.7-0.8c0,0,0,0,0,0L22.9,23.8L22.9,23.8L22.9,23.8z"
  />
<path
    fill-rule="evenodd"
    fill="#FFFF00"
    stroke="#000000"
    stroke-width="5.430822e-02"
    stroke-linecap="round"
    stroke-linejoin="round"
    d="
	M22.9,19.3c0,2.7-1.4,5.1-2.5,6.1c-1.6,1.5-3.6,2.5-6,2.5c-2.7,0-5.2-1.7-5.9-2.5c-1.3-1.5-2.4-3.4-2.4-6c0.2-2.9,1.3-4.9,3-6.3
	s3.9-2.1,5.7-2c2.1,0.1,4.6,1.1,6.3,3.2C22.2,15.6,22.7,17,22.9,19.3L22.9,19.3z M14.5,10.1c5.2,0,9.4,4.2,9.4,9.4
	c0,5.2-4.2,9.4-9.4,9.4s-9.4-4.2-9.4-9.4S9.3,10.1,14.5,10.1"
  />
<path
    fill-rule="evenodd"
    fill="#FFFF00"
    stroke="#000000"
    stroke-width="5.430822e-02"
    stroke-linecap="round"
    stroke-linejoin="round"
    d="
	M14.5,10.1c5.2,0,9.4,4.2,9.4,9.4c0,5.2-4.2,9.4-9.4,9.4c-5.2,0-9.4-4.2-9.4-9.4S9.3,10.1,14.5,10.1L14.5,10.1z M5.3,19.5
	c0,5,4.1,9.2,9.2,9.2c5,0,9.2-4.1,9.2-9.2c0-5-4.1-9.2-9.2-9.2S5.3,14.4,5.3,19.5L5.3,19.5z"
  />
<path
    fill-rule="evenodd"
    fill="#FFFF00"
    stroke="#000000"
    stroke-width="5.430822e-02"
    stroke-linecap="round"
    stroke-linejoin="round"
    d="
	M14.5,10.9c4.7,0,8.6,3.9,8.6,8.6c0,4.7-3.9,8.6-8.6,8.6s-8.6-3.9-8.6-8.6C5.9,14.8,9.8,10.9,14.5,10.9L14.5,10.9z M6.1,19.5
	c0,4.6,3.8,8.4,8.4,8.4s8.4-3.8,8.4-8.4c0-4.6-3.8-8.4-8.4-8.4C9.9,11.1,6.1,14.9,6.1,19.5L6.1,19.5z"
  />
<path
    fill-rule="evenodd"
    fill="#FFFF00"
    stroke="#000000"
    stroke-width="5.430822e-02"
    stroke-linecap="round"
    stroke-linejoin="round"
    d="
	M14.9,10.1h-0.8l0,18.9h0.8L14.9,10.1z"
  />
<path
    fill-rule="evenodd"
    fill="#FFFF00"
    stroke="#000000"
    stroke-width="5.430822e-02"
    stroke-linecap="round"
    stroke-linejoin="round"
    d="
	M14.8,10H15L15,29h-0.2L14.8,10L14.8,10z M14,10h0.2l0,19.1H14L14,10L14,10z"
  />
<path
    fill-rule="evenodd"
    fill="#FFFF00"
    stroke="#000000"
    stroke-width="5.430822e-02"
    stroke-linecap="round"
    stroke-linejoin="round"
    d="
	M23.9,19.9v-0.7l-0.6-0.5l-3.2-0.9l-4.6-0.5l-5.6,0.3l-4,0.9l-0.8,0.6v0.7l2-0.9l4.8-0.8h4.6l3.4,0.4l2.4,0.6L23.9,19.9z"
  />
<path
    fill-rule="evenodd"
    fill="#FFFF00"
    stroke="#000000"
    stroke-width="5.430822e-02"
    stroke-linecap="round"
    stroke-linejoin="round"
    d="
	M14.5,18c2.2,0,4.4,0.2,6.1,0.5c1.8,0.4,3,0.8,3.4,1.3l0,0.2c-0.5-0.6-2.2-1.1-3.5-1.3c-1.7-0.3-3.8-0.5-6-0.5
	c-2.3,0-4.5,0.2-6.2,0.6C7,19.1,5.2,19.6,5,20.1v-0.3c0.1-0.4,1.5-0.9,3.3-1.3C10,18.3,12.2,18,14.5,18L14.5,18z M14.5,17.2
	c2.2,0,4.4,0.2,6.1,0.5c1.8,0.4,3,0.8,3.4,1.3l0,0.2c-0.5-0.6-2.2-1.1-3.5-1.3c-1.7-0.3-3.8-0.5-6-0.5c-2.3,0-4.5,0.2-6.1,0.5
	c-1.3,0.2-3.1,0.8-3.4,1.3v-0.3c0.1-0.4,1.5-0.9,3.3-1.3C10,17.5,12.2,17.2,14.5,17.2L14.5,17.2z"
  />
<path
    fill-rule="evenodd"
    fill="#FFFF00"
    stroke="#000000"
    stroke-width="5.430822e-02"
    stroke-linecap="round"
    stroke-linejoin="round"
    d="
	M14.5,13.1c3.5,0,6.5,0.5,7.9,1.2l0.5,0.9c-1.2-0.7-4.5-1.3-8.4-1.2c-3.2,0-6.6,0.4-8.4,1.3l0.6-1C8.1,13.5,11.5,13.1,14.5,13.1"
  />
<path
    fill-rule="evenodd"
    fill="#FFFF00"
    stroke="#000000"
    stroke-width="5.430822e-02"
    stroke-linecap="round"
    stroke-linejoin="round"
    d="
	M14.5,13.9c2,0,3.9,0.1,5.4,0.4c1.4,0.3,2.8,0.7,3,0.9l0.2,0.3c-0.5-0.3-1.6-0.7-3.2-0.9c-1.5-0.3-3.4-0.4-5.4-0.4
	c-2.2,0-4,0.1-5.5,0.4c-1.6,0.3-2.7,0.7-3,0.9l0.1-0.3c0.5-0.3,1.4-0.6,2.8-0.8C10.5,14,12.3,13.9,14.5,13.9L14.5,13.9L14.5,13.9z
	 M14.5,13.1c1.9,0,3.8,0.1,5.3,0.4c1.2,0.2,2.3,0.6,2.7,0.9l0.2,0.4c-0.4-0.4-1.8-0.8-3-1c-1.5-0.3-3.3-0.4-5.2-0.4
	c-2,0-3.8,0.1-5.3,0.4c-1.4,0.3-2.3,0.6-2.6,0.8l0.2-0.3c0.5-0.3,1.3-0.5,2.4-0.7C10.6,13.2,12.5,13.1,14.5,13.1L14.5,13.1z"
  />
<path
    fill-rule="evenodd"
    fill="#FFFF00"
    stroke="#000000"
    stroke-width="5.430822e-02"
    stroke-linecap="round"
    stroke-linejoin="round"
    d="
	M19.2,23.4c-1.7-0.3-3.5-0.4-4.7-0.4c-5.8,0.1-7.7,1.2-7.9,1.5l-0.4-0.7c1.5-1.1,4.7-1.7,8.4-1.6c1.9,0,3.6,0.2,5,0.4L19.2,23.4"
  />
<path
    fill-rule="evenodd"
    fill="#FFFF00"
    stroke="#000000"
    stroke-width="5.212831e-02"
    stroke-linecap="round"
    stroke-linejoin="round"
    d="
	M14.5,22.9c1.6,0,3.2,0.1,4.7,0.4l-0.1,0.2c-1.4-0.3-2.9-0.4-4.6-0.4c-2.1,0-4.3,0.2-6.2,0.7c-0.6,0.2-1.6,0.5-1.7,0.9l-0.1-0.2
	c0-0.2,0.6-0.6,1.7-0.9C10.4,23.1,12.4,23,14.5,22.9L14.5,22.9L14.5,22.9z M14.5,22.1c1.7,0,3.4,0.1,5.1,0.4l-0.1,0.2
	c-1.5-0.3-3-0.4-5-0.4c-2.2,0-4.4,0.2-6.5,0.8c-0.7,0.2-1.8,0.6-1.9,1l-0.1-0.2c0-0.3,1-0.7,1.9-1C10.1,22.3,12.4,22.1,14.5,22.1
	L14.5,22.1z"
  />
<path
    fill-rule="evenodd"
    fill="#FFFF00"
    stroke="#000000"
    stroke-width="5.430822e-02"
    stroke-linecap="round"
    stroke-linejoin="round"
    d="
	M22.8,24l-0.7,1.1l-2-1.8l-5.2-3.5L9,16.5l-3.1-1l0.7-1.2l0.2-0.1l1.9,0.5l6.3,3.2l3.6,2.3l3,2.2l1.2,1.4L22.8,24z"
  />
<path
    fill-rule="evenodd"
    fill="#FFFF00"
    stroke="#000000"
    stroke-width="5.430822e-02"
    stroke-linecap="round"
    stroke-linejoin="round"
    d="
	M5.9,15.5c0.5-0.4,4.5,1.4,8.6,3.9c4.1,2.5,8,5.3,7.7,5.8L22,25.4l-0.1,0c0,0,0.1-0.1,0-0.3c-0.2-0.6-3-2.8-7.6-5.6
	c-4.5-2.7-8.2-4.3-8.6-3.8L5.9,15.5L5.9,15.5L5.9,15.5z M23,24c0.3-0.7-3.3-3.4-7.8-6.1c-4.6-2.6-8-4.2-8.6-3.7l-0.1,0.2
	c0,0,0,0,0,0c0.1-0.1,0.3-0.1,0.4-0.1c1,0,4,1.4,8.2,3.8c1.8,1.1,7.8,4.9,7.8,6c0,0.1,0,0.1,0,0.2L23,24L23,24L23,24z"
  />
<path
    fill="#FFFFFF"
    stroke="#000000"
    stroke-width="6.353682e-02"
    d="M8.9,20.5c0,1.5,0.6,2.9,1.7,4c1,1,2.4,1.7,4,1.7
	c1.6,0,3-0.6,4-1.6c1-1,1.7-2.4,1.7-4h0V13L8.9,13L8.9,20.5L8.9,20.5L8.9,20.5z"
  />
<path
    fill="#FF0000"
    stroke="#000000"
    stroke-width="4.808505e-02"
    d="M9.1,20.5L9.1,20.5c0,1.5,0.6,2.8,1.6,3.8
	c1,1,2.3,1.6,3.8,1.6c1.5,0,2.8-0.6,3.8-1.6c1-1,1.6-2.3,1.6-3.8h0v-7.3l-10.8,0L9.1,20.5 M17.7,15.4l0,4.6l0,0.5h0
	c0,0.1,0,0.3,0,0.4c-0.1,0.7-0.4,1.4-0.9,1.9c-0.6,0.6-1.4,0.9-2.3,0.9c-0.9,0-1.7-0.4-2.3-1c-0.6-0.6-1-1.4-1-2.3l0-5.1L17.7,15.4
	L17.7,15.4L17.7,15.4z"
  />
<path
    fill="#FFFF00"
    d="M9.8,15.2c0-0.5,0.4-0.6,0.4-0.6c0,0,0.4,0.1,0.4,0.7L9.8,15.2"
  />
<path
    fill="#FFFF00"
    stroke="#000000"
    stroke-width="4.738937e-02"
    d="M9.5,14.5l-0.1,0.6l0.4,0c0-0.5,0.4-0.6,0.4-0.6
	c0,0,0.4,0.1,0.4,0.6H11l-0.1-0.6L9.5,14.5L9.5,14.5L9.5,14.5z"
  />
<path
    fill="#FFFF00"
    stroke="#000000"
    stroke-width="4.738937e-02"
    d="M9.4,15.1H11c0,0,0.1,0,0.1,0.1c0,0,0,0.1-0.1,0.1H9.4
	C9.3,15.3,9.3,15.2,9.4,15.1C9.3,15.2,9.3,15.1,9.4,15.1z"
  />
<path
    fill="#FFFF00"
    stroke="#000000"
    stroke-width="4.738937e-02"
    d="M10,15.1c0-0.3,0.2-0.4,0.2-0.4c0,0,0.2,0.1,0.2,0.4H10"
  />
<path
    fill="#FFFF00"
    stroke="#000000"
    stroke-width="4.738937e-02"
    d="M9.4,14.3H11c0,0,0.1,0,0.1,0.1c0,0,0,0.1-0.1,0.1H9.4
	C9.4,14.4,9.4,14.4,9.4,14.3C9.4,14.3,9.4,14.3,9.4,14.3z"
  />
<path
    fill="#FFFF00"
    stroke="#000000"
    stroke-width="4.738937e-02"
    d="M9.4,14.4h1.5c0,0,0.1,0,0.1,0.1c0,0,0,0.1-0.1,0.1H9.4
	C9.4,14.5,9.4,14.5,9.4,14.4C9.4,14.4,9.4,14.4,9.4,14.4z"
  />
<path
    fill="#FFFF00"
    stroke="#000000"
    stroke-width="4.738937e-02"
    d="M9.9,13.4l0.1,0v0.1h0.1v-0.1l0.1,0v0.1h0.1v-0.1h0.1l0,0.2
	c0,0,0,0-0.1,0H10c0,0-0.1,0-0.1,0L9.9,13.4L9.9,13.4L9.9,13.4z"
  />
<path
    fill="#FFFF00"
    stroke="#000000"
    stroke-width="4.738937e-02"
    d="M10.4,13.7l0,0.6l-0.4,0l0-0.6L10.4,13.7"
  />
<path
    id="cp1"
    fill="#FFFF00"
    stroke="#000000"
    stroke-width="4.738937e-02"
    d="M9.9,13.9l0,0.3l-0.4,0l0-0.3L9.9,13.9L9.9,13.9
	L9.9,13.9z"
  />
<path
    id="cp1_00000125578843288631502910000000603794548923614884_"
    fill="#FFFF00"
    stroke="#000000"
    stroke-width="4.738937e-02"
    d="
	M10.9,13.9l0,0.3l-0.4,0l0-0.3L10.9,13.9L10.9,13.9L10.9,13.9z"
  />
<path
    id="cp2"
    fill="#FFFF00"
    stroke="#000000"
    stroke-width="4.738937e-02"
    d="M9.4,13.7l0.1,0v0.1h0.1v-0.1l0.1,0v0.1h0.1v-0.1
	l0.1,0l0,0.2c0,0,0,0-0.1,0H9.5c0,0-0.1,0-0.1,0L9.4,13.7L9.4,13.7L9.4,13.7z"
  />
<path
    id="cp2_00000133524499640488764760000003278597466298106555_"
    fill="#FFFF00"
    stroke="#000000"
    stroke-width="4.738937e-02"
    d="
	M10.4,13.7l0.1,0v0.1h0.1v-0.1l0.1,0v0.1h0.1v-0.1l0.1,0l0,0.2c0,0,0,0-0.1,0h-0.4c0,0-0.1,0-0.1,0L10.4,13.7L10.4,13.7L10.4,13.7z"
  />
<path d="M10.1,13.9C10.1,13.8,10.2,13.8,10.1,13.9l0.1,0.1h-0.1L10.1,13.9" />
<path id="cp3" d="M9.6,14.1C9.6,14,9.7,14,9.6,14.1l0.1,0.1H9.6L9.6,14.1" />
<path
    id="cp3_00000161613673859562789910000008276320415723539606_"
    d="M10.6,14.1C10.6,14,10.7,14,10.6,14.1l0.1,0.1h-0.1
	L10.6,14.1"
  />
<path
    fill="#FFFF00"
    d="M9.8,19.6c0-0.5,0.4-0.6,0.4-0.6c0,0,0.4,0.1,0.4,0.7L9.8,19.6"
  />
<path
    fill="#FFFF00"
    stroke="#000000"
    stroke-width="4.738937e-02"
    d="M9.5,18.9l-0.1,0.6l0.4,0c0-0.5,0.4-0.6,0.4-0.6
	c0,0,0.4,0.1,0.4,0.6H11l-0.1-0.6L9.5,18.9L9.5,18.9L9.5,18.9z"
  />
<path
    fill="#FFFF00"
    stroke="#000000"
    stroke-width="4.738937e-02"
    d="M9.4,19.5H11c0,0,0.1,0,0.1,0.1c0,0,0,0.1-0.1,0.1H9.4
	C9.3,19.7,9.3,19.6,9.4,19.5C9.3,19.6,9.3,19.5,9.4,19.5z"
  />
<path
    fill="#FFFF00"
    stroke="#000000"
    stroke-width="4.738937e-02"
    d="M10,19.5c0-0.3,0.2-0.4,0.2-0.4c0,0,0.2,0.1,0.2,0.4H10"
  />
<path
    fill="#FFFF00"
    stroke="#000000"
    stroke-width="4.738937e-02"
    d="M9.4,18.7H11c0,0,0.1,0,0.1,0.1c0,0,0,0.1-0.1,0.1H9.4
	C9.4,18.8,9.4,18.8,9.4,18.7C9.4,18.7,9.4,18.7,9.4,18.7z"
  />
<path
    fill="#FFFF00"
    stroke="#000000"
    stroke-width="4.738937e-02"
    d="M9.4,18.8h1.5c0,0,0.1,0,0.1,0.1c0,0,0,0.1-0.1,0.1H9.4
	C9.4,18.9,9.4,18.9,9.4,18.8C9.4,18.8,9.4,18.8,9.4,18.8z"
  />
<path
    fill="#FFFF00"
    stroke="#000000"
    stroke-width="4.738937e-02"
    d="M9.9,17.8l0.1,0v0.1h0.1v-0.1l0.1,0v0.1h0.1v-0.1h0.1l0,0.2
	c0,0,0,0-0.1,0H10c0,0-0.1,0-0.1,0L9.9,17.8L9.9,17.8L9.9,17.8z"
  />
<path
    fill="#FFFF00"
    stroke="#000000"
    stroke-width="4.738937e-02"
    d="M10.4,18.1l0,0.6l-0.4,0l0-0.6L10.4,18.1"
  />
<path
    id="cp1_00000079452991211234155680000005607770579838126215_"
    fill="#FFFF00"
    stroke="#000000"
    stroke-width="4.738937e-02"
    d="
	M9.9,18.3l0,0.3l-0.4,0l0-0.3L9.9,18.3L9.9,18.3L9.9,18.3z"
  />
<path
    id="cp1_00000098903762989914776290000008267946852407124643_"
    fill="#FFFF00"
    stroke="#000000"
    stroke-width="4.738937e-02"
    d="
	M10.9,18.3l0,0.3l-0.4,0l0-0.3L10.9,18.3L10.9,18.3L10.9,18.3z"
  />
<path
    id="cp2_00000046316197368644179260000003853035659600311975_"
    fill="#FFFF00"
    stroke="#000000"
    stroke-width="4.738937e-02"
    d="
	M9.4,18.1l0.1,0v0.1h0.1v-0.1l0.1,0v0.1h0.1v-0.1l0.1,0l0,0.2c0,0,0,0-0.1,0H9.5c0,0-0.1,0-0.1,0L9.4,18.1L9.4,18.1L9.4,18.1z"
  />
<path
    id="cp2_00000135657761941210203590000011852930744521288083_"
    fill="#FFFF00"
    stroke="#000000"
    stroke-width="4.738937e-02"
    d="
	M10.4,18.1l0.1,0v0.1h0.1v-0.1l0.1,0v0.1h0.1v-0.1l0.1,0l0,0.2c0,0,0,0-0.1,0h-0.4c0,0-0.1,0-0.1,0L10.4,18.1L10.4,18.1L10.4,18.1z"
  />
<path d="M10.1,18.2C10.1,18.2,10.2,18.2,10.1,18.2l0.1,0.1h-0.1L10.1,18.2" />
<path
    id="cp3_00000148629329162788118320000014441991751889949620_"
    d="M9.6,18.5C9.6,18.4,9.7,18.4,9.6,18.5l0.1,0.1H9.6L9.6,18.5"
  />
<path
    id="cp3_00000039834264413133485740000012869530857007520896_"
    d="M10.6,18.5C10.6,18.4,10.7,18.4,10.6,18.5l0.1,0.1h-0.1
	L10.6,18.5"
  />
<path
    fill="#FFFF00"
    d="M11.5,24.1c-0.4-0.4-0.2-0.7-0.2-0.7c0,0,0.4-0.2,0.7,0.2L11.5,24.1"
  />
<path
    fill="#FFFF00"
    stroke="#000000"
    stroke-width="4.738937e-02"
    d="M10.8,23.9l0.4,0.5l0.3-0.3c-0.4-0.4-0.1-0.7-0.1-0.7
	c0,0,0.3-0.2,0.7,0.1l0.3-0.3l-0.5-0.4L10.8,23.9L10.8,23.9L10.8,23.9z"
  />
<path
    fill="#FFFF00"
    stroke="#000000"
    stroke-width="4.738937e-02"
    d="M11.2,24.4l1.1-1.1c0,0,0.1,0,0.1,0c0,0,0,0.1,0,0.1l-1.1,1.1
	C11.3,24.5,11.2,24.5,11.2,24.4C11.2,24.5,11.2,24.4,11.2,24.4z"
  />
<path
    fill="#FFFF00"
    stroke="#000000"
    stroke-width="4.738937e-02"
    d="M11.6,24c-0.2-0.2-0.1-0.4-0.1-0.4c0,0,0.2-0.1,0.4,0.1
	L11.6,24"
  />
<path
    fill="#FFFF00"
    stroke="#000000"
    stroke-width="4.738937e-02"
    d="M10.6,23.8l1.1-1.1c0,0,0.1,0,0.1,0c0,0,0,0.1,0,0.1
	L10.6,23.8C10.7,23.9,10.6,23.9,10.6,23.8C10.6,23.8,10.6,23.8,10.6,23.8z"
  />
<path
    fill="#FFFF00"
    stroke="#000000"
    stroke-width="4.738937e-02"
    d="M10.7,23.8l1-1c0,0,0.1,0,0.1,0c0,0,0,0.1,0,0.1L10.7,23.8
	C10.8,24,10.8,24,10.7,23.8C10.7,23.9,10.7,23.9,10.7,23.8z"
  />
<path
    fill="#FFFF00"
    stroke="#000000"
    stroke-width="4.738937e-02"
    d="M10.3,22.8L10.3,22.8l0.1,0l0.1-0.1l-0.1-0.1l0.1-0.1l0.1,0.1
	l0.1-0.1l-0.1-0.1l0.1-0.1l0.1,0.1c0,0,0,0.1,0,0.1l-0.3,0.3c0,0-0.1,0-0.1,0L10.3,22.8L10.3,22.8L10.3,22.8z"
  />
<path
    fill="#FFFF00"
    stroke="#000000"
    stroke-width="4.738937e-02"
    d="M10.8,22.7l0.5,0.4L11,23.4l-0.4-0.5L10.8,22.7"
  />
<path
    id="cp1_00000163072584789279409700000012286251568562743951_"
    fill="#FFFF00"
    stroke="#000000"
    stroke-width="4.738937e-02"
    d="
	M10.7,23.2l0.2,0.2l-0.3,0.3l-0.2-0.2L10.7,23.2L10.7,23.2L10.7,23.2z"
  />
<path
    id="cp1_00000016067171686472944820000013584678515447719338_"
    fill="#FFFF00"
    stroke="#000000"
    stroke-width="4.738937e-02"
    d="
	M11.4,22.5l0.2,0.2L11.4,23l-0.2-0.2L11.4,22.5L11.4,22.5L11.4,22.5z"
  />
<path
    id="cp2_00000153675662496783407450000000720093171488770746_"
    fill="#FFFF00"
    stroke="#000000"
    stroke-width="4.738937e-02"
    d="
	M10.2,23.4L10.2,23.4l0.1,0l0.1-0.1l-0.1-0.1l0.1-0.1l0.1,0.1l0.1-0.1l-0.1-0.1l0.1-0.1l0.1,0.1c0,0,0,0.1,0,0.1l-0.3,0.3
	c0,0-0.1,0-0.1,0L10.2,23.4L10.2,23.4L10.2,23.4z"
  />
<path
    id="cp2_00000060710107884690466170000003081501322659469705_"
    fill="#FFFF00"
    stroke="#000000"
    stroke-width="4.738937e-02"
    d="
	M10.9,22.6L10.9,22.6l0.1,0l0.1-0.1l-0.1-0.1l0.1-0.1l0.1,0.1l0.1-0.1l-0.1-0.1l0.1-0.1l0.1,0.1c0,0,0,0.1,0,0.1l-0.3,0.3
	c0,0-0.1,0-0.1,0L10.9,22.6L10.9,22.6L10.9,22.6z"
  />
<path d="M10.8,23C10.8,22.9,10.8,22.9,10.8,23l0.2,0l-0.1,0.1L10.8,23" />
<path
    id="cp3_00000127046473310633854930000000220280341989375139_"
    d="M10.6,23.5C10.6,23.4,10.6,23.4,10.6,23.5l0.1,0L10.6,23.5
	L10.6,23.5"
  />
<path
    id="cp3_00000125573331421174627380000016638644231701265050_"
    d="M11.3,22.7C11.3,22.7,11.3,22.6,11.3,22.7l0.1,0L11.3,22.7
	L11.3,22.7"
  />
<path
    fill="#FFFF00"
    d="M14.1,15.2c0-0.5,0.4-0.6,0.4-0.6c0,0,0.4,0.1,0.4,0.7L14.1,15.2"
  />
<path
    fill="#FFFF00"
    stroke="#000000"
    stroke-width="4.738937e-02"
    d="M13.8,14.5l-0.1,0.6l0.4,0c0-0.5,0.4-0.6,0.4-0.6
	c0,0,0.4,0.1,0.4,0.6h0.4l-0.1-0.6L13.8,14.5L13.8,14.5L13.8,14.5z"
  />
<path
    fill="#FFFF00"
    stroke="#000000"
    stroke-width="4.738937e-02"
    d="M13.7,15.1h1.6c0,0,0.1,0,0.1,0.1c0,0,0,0.1-0.1,0.1h-1.6
	C13.7,15.3,13.6,15.2,13.7,15.1C13.6,15.2,13.7,15.1,13.7,15.1z"
  />
<path
    fill="#FFFF00"
    stroke="#000000"
    stroke-width="4.738937e-02"
    d="M14.3,15.1c0-0.3,0.2-0.4,0.2-0.4c0,0,0.2,0.1,0.2,0.4H14.3"
  />
<path
    fill="#FFFF00"
    stroke="#000000"
    stroke-width="4.738937e-02"
    d="M13.7,14.3h1.5c0,0,0.1,0,0.1,0.1c0,0,0,0.1-0.1,0.1h-1.5
	C13.7,14.4,13.7,14.4,13.7,14.3C13.7,14.3,13.7,14.3,13.7,14.3z"
  />
<path
    fill="#FFFF00"
    stroke="#000000"
    stroke-width="4.738937e-02"
    d="M13.8,14.4h1.5c0,0,0.1,0,0.1,0.1c0,0,0,0.1-0.1,0.1h-1.5
	C13.7,14.5,13.7,14.5,13.8,14.4C13.7,14.4,13.7,14.4,13.8,14.4z"
  />
<path
    fill="#FFFF00"
    stroke="#000000"
    stroke-width="4.738937e-02"
    d="M14.3,13.4l0.1,0v0.1h0.1v-0.1l0.1,0v0.1h0.1v-0.1h0.1l0,0.2
	c0,0,0,0-0.1,0h-0.4c0,0-0.1,0-0.1,0L14.3,13.4L14.3,13.4L14.3,13.4z"
  />
<path
    fill="#FFFF00"
    stroke="#000000"
    stroke-width="4.738937e-02"
    d="M14.7,13.7l0,0.6l-0.4,0l0-0.6L14.7,13.7"
  />
<path
    id="cp1_00000183218785332299678490000007887789808017277351_"
    fill="#FFFF00"
    stroke="#000000"
    stroke-width="4.738937e-02"
    d="
	M14.2,13.9l0,0.3l-0.4,0l0-0.3L14.2,13.9L14.2,13.9L14.2,13.9z"
  />
<path
    id="cp1_00000182521666941922223950000012848982215638356152_"
    fill="#FFFF00"
    stroke="#000000"
    stroke-width="4.738937e-02"
    d="
	M15.2,13.9l0,0.3l-0.4,0l0-0.3L15.2,13.9L15.2,13.9L15.2,13.9z"
  />
<path
    id="cp2_00000125560665856211191980000004775091115292184727_"
    fill="#FFFF00"
    stroke="#000000"
    stroke-width="4.738937e-02"
    d="
	M13.8,13.7l0.1,0v0.1h0.1v-0.1l0.1,0v0.1h0.1v-0.1l0.1,0l0,0.2c0,0,0,0-0.1,0h-0.4c0,0-0.1,0-0.1,0L13.8,13.7L13.8,13.7L13.8,13.7z"
  />
<path
    id="cp2_00000108283556352282610330000002496052205756935562_"
    fill="#FFFF00"
    stroke="#000000"
    stroke-width="4.738937e-02"
    d="
	M14.8,13.7l0.1,0v0.1H15v-0.1l0.1,0v0.1h0.1v-0.1l0.1,0l0,0.2c0,0,0,0-0.1,0h-0.4c0,0-0.1,0-0.1,0L14.8,13.7L14.8,13.7L14.8,13.7z"
  />
<path d="M14.5,13.9C14.5,13.8,14.6,13.8,14.5,13.9l0.1,0.1h-0.1L14.5,13.9" />
<path
    id="cp3_00000150085966212391424350000002929482236477163434_"
    d="M14,14.1C14,14,14,14,14,14.1l0.1,0.1H14L14,14.1"
  />
<path
    id="cp3_00000169542551305950787140000007810538704506864788_"
    d="M15,14.1C15,14,15.1,14,15,14.1l0.1,0.1H15L15,14.1"
  />
<path
    fill="#FFFF00"
    d="M19.2,15.2c0-0.5-0.4-0.6-0.4-0.6c0,0-0.4,0.1-0.4,0.7L19.2,15.2"
  />
<path
    fill="#FFFF00"
    stroke="#000000"
    stroke-width="4.738937e-02"
    d="M19.5,14.5l0.1,0.6l-0.4,0c0-0.5-0.4-0.6-0.4-0.6
	c0,0-0.4,0.1-0.4,0.6H18l0.1-0.6L19.5,14.5L19.5,14.5L19.5,14.5z"
  />
<path
    fill="#FFFF00"
    stroke="#000000"
    stroke-width="4.738937e-02"
    d="M19.6,15.1H18c0,0-0.1,0-0.1,0.1c0,0,0,0.1,0.1,0.1h1.6
	C19.7,15.3,19.7,15.2,19.6,15.1C19.7,15.2,19.7,15.1,19.6,15.1z"
  />
<path
    fill="#FFFF00"
    stroke="#000000"
    stroke-width="4.738937e-02"
    d="M19,15.1c0-0.3-0.2-0.4-0.2-0.4c0,0-0.2,0.1-0.2,0.4H19"
  />
<path
    fill="#FFFF00"
    stroke="#000000"
    stroke-width="4.738937e-02"
    d="M19.6,14.3H18c0,0-0.1,0-0.1,0.1c0,0,0,0.1,0.1,0.1h1.5
	C19.6,14.4,19.6,14.4,19.6,14.3C19.6,14.3,19.6,14.3,19.6,14.3z"
  />
<path
    fill="#FFFF00"
    stroke="#000000"
    stroke-width="4.738937e-02"
    d="M19.6,14.4h-1.5c0,0-0.1,0-0.1,0.1c0,0,0,0.1,0.1,0.1h1.5
	C19.6,14.5,19.6,14.5,19.6,14.4C19.6,14.4,19.6,14.4,19.6,14.4z"
  />
<path
    fill="#FFFF00"
    stroke="#000000"
    stroke-width="4.738937e-02"
    d="M19.1,13.4l-0.1,0v0.1h-0.1v-0.1l-0.1,0v0.1h-0.1v-0.1h-0.1
	l0,0.2c0,0,0,0,0.1,0H19c0,0,0.1,0,0.1,0L19.1,13.4L19.1,13.4L19.1,13.4z"
  />
<path
    fill="#FFFF00"
    stroke="#000000"
    stroke-width="4.738937e-02"
    d="M18.6,13.7l0,0.6l0.4,0l0-0.6L18.6,13.7"
  />
<path
    id="cp1_00000080928339494823309440000006766970869137716916_"
    fill="#FFFF00"
    stroke="#000000"
    stroke-width="4.738937e-02"
    d="
	M19.1,13.9l0,0.3l0.4,0l0-0.3L19.1,13.9L19.1,13.9L19.1,13.9z"
  />
<path
    id="cp1_00000153705657821591591440000015253442360600186254_"
    fill="#FFFF00"
    stroke="#000000"
    stroke-width="4.738937e-02"
    d="
	M18.1,13.9l0,0.3l0.4,0l0-0.3L18.1,13.9L18.1,13.9L18.1,13.9z"
  />
<path
    id="cp2_00000151502761542123790690000017037804469198474893_"
    fill="#FFFF00"
    stroke="#000000"
    stroke-width="4.738937e-02"
    d="
	M19.6,13.7l-0.1,0v0.1h-0.1v-0.1l-0.1,0v0.1h-0.1v-0.1l-0.1,0l0,0.2c0,0,0,0,0.1,0h0.4c0,0,0.1,0,0.1,0L19.6,13.7L19.6,13.7
	L19.6,13.7z"
  />
<path
    id="cp2_00000068669015167513335980000009226639376384693936_"
    fill="#FFFF00"
    stroke="#000000"
    stroke-width="4.738937e-02"
    d="
	M18.6,13.7l-0.1,0v0.1h-0.1v-0.1l-0.1,0v0.1h-0.1v-0.1l-0.1,0l0,0.2c0,0,0,0,0.1,0h0.4c0,0,0.1,0,0.1,0L18.6,13.7L18.6,13.7
	L18.6,13.7z"
  />
<path d="M18.9,13.9C18.9,13.8,18.8,13.8,18.9,13.9L18.8,14h0.1L18.9,13.9" />
<path
    id="cp3_00000129894181195913409680000010097578705047016879_"
    d="M19.4,14.1C19.4,14,19.3,14,19.4,14.1l-0.1,0.1h0.1
	L19.4,14.1"
  />
<path
    id="cp3_00000071537328418380106230000004563633790435215517_"
    d="M18.4,14.1C18.4,14,18.3,14,18.4,14.1l-0.1,0.1h0.1
	L18.4,14.1"
  />
<path
    fill="#FFFF00"
    d="M19.2,19.6c0-0.5-0.4-0.6-0.4-0.6c0,0-0.4,0.1-0.4,0.7L19.2,19.6"
  />
<path
    fill="#FFFF00"
    stroke="#000000"
    stroke-width="4.738937e-02"
    d="M19.5,18.9l0.1,0.6l-0.4,0c0-0.5-0.4-0.6-0.4-0.6
	c0,0-0.4,0.1-0.4,0.6H18l0.1-0.6L19.5,18.9L19.5,18.9L19.5,18.9z"
  />
<path
    fill="#FFFF00"
    stroke="#000000"
    stroke-width="4.738937e-02"
    d="M19.6,19.5H18c0,0-0.1,0-0.1,0.1c0,0,0,0.1,0.1,0.1h1.6
	C19.7,19.7,19.7,19.6,19.6,19.5C19.7,19.6,19.7,19.5,19.6,19.5z"
  />
<path
    fill="#FFFF00"
    stroke="#000000"
    stroke-width="4.738937e-02"
    d="M19,19.5c0-0.3-0.2-0.4-0.2-0.4c0,0-0.2,0.1-0.2,0.4H19"
  />
<path
    fill="#FFFF00"
    stroke="#000000"
    stroke-width="4.738937e-02"
    d="M19.6,18.7H18c0,0-0.1,0-0.1,0.1c0,0,0,0.1,0.1,0.1h1.5
	C19.6,18.8,19.6,18.8,19.6,18.7C19.6,18.7,19.6,18.7,19.6,18.7z"
  />
<path
    fill="#FFFF00"
    stroke="#000000"
    stroke-width="4.738937e-02"
    d="M19.6,18.8h-1.5c0,0-0.1,0-0.1,0.1c0,0,0,0.1,0.1,0.1h1.5
	C19.6,18.9,19.6,18.9,19.6,18.8C19.6,18.8,19.6,18.8,19.6,18.8z"
  />
<path
    fill="#FFFF00"
    stroke="#000000"
    stroke-width="4.738937e-02"
    d="M19.1,17.8l-0.1,0v0.1h-0.1v-0.1l-0.1,0v0.1h-0.1v-0.1h-0.1
	l0,0.2c0,0,0,0,0.1,0H19c0,0,0.1,0,0.1,0L19.1,17.8L19.1,17.8L19.1,17.8z"
  />
<path
    fill="#FFFF00"
    stroke="#000000"
    stroke-width="4.738937e-02"
    d="M18.6,18.1l0,0.6l0.4,0l0-0.6L18.6,18.1"
  />
<path
    id="cp1_00000003070139116580038710000000160576961547372672_"
    fill="#FFFF00"
    stroke="#000000"
    stroke-width="4.738937e-02"
    d="
	M19.1,18.3l0,0.3l0.4,0l0-0.3L19.1,18.3L19.1,18.3L19.1,18.3z"
  />
<g>
	
		<path
      id="cp1_00000168832670103461481670000018385482227011638666_"
      fill="#FFFF00"
      stroke="#000000"
      stroke-width="4.738937e-02"
      d="
		M18.1,18.3l0,0.3l0.4,0l0-0.3L18.1,18.3L18.1,18.3L18.1,18.3z"
    />
</g>
<path
    id="cp2_00000123428107647787051600000011972906632684716439_"
    fill="#FFFF00"
    stroke="#000000"
    stroke-width="4.738937e-02"
    d="
	M19.6,18.1l-0.1,0v0.1h-0.1v-0.1l-0.1,0v0.1h-0.1v-0.1l-0.1,0l0,0.2c0,0,0,0,0.1,0h0.4c0,0,0.1,0,0.1,0L19.6,18.1L19.6,18.1
	L19.6,18.1z"
  />
<g>
	
		<path
      id="cp2_00000056427621222992658620000003718332036596680089_"
      fill="#FFFF00"
      stroke="#000000"
      stroke-width="4.738937e-02"
      d="
		M18.6,18.1l-0.1,0v0.1h-0.1v-0.1l-0.1,0v0.1h-0.1v-0.1l-0.1,0l0,0.2c0,0,0,0,0.1,0h0.4c0,0,0.1,0,0.1,0L18.6,18.1L18.6,18.1
		L18.6,18.1z"
    />
</g>
<path d="M18.9,18.2C18.9,18.2,18.8,18.2,18.9,18.2l-0.1,0.1h0.1L18.9,18.2" />
<path
    id="cp3_00000138533813561210223860000015604124255100766594_"
    d="M19.4,18.5C19.4,18.4,19.3,18.4,19.4,18.5l-0.1,0.1h0.1
	L19.4,18.5"
  />
<g>
	<path
      id="cp3_00000055670071399473063040000010018720232054714260_"
      d="M18.4,18.5C18.4,18.4,18.3,18.4,18.4,18.5l-0.1,0.1h0.1
		L18.4,18.5"
    />
</g>
<path
    fill="#FFFF00"
    d="M17.5,24.1c0.4-0.4,0.2-0.7,0.2-0.7c0,0-0.4-0.2-0.7,0.2L17.5,24.1"
  />
<path
    fill="#FFFF00"
    stroke="#000000"
    stroke-width="4.738937e-02"
    d="M18.2,23.9l-0.4,0.5l-0.3-0.3c0.4-0.4,0.1-0.7,0.1-0.7
	c0,0-0.3-0.2-0.7,0.1l-0.3-0.3l0.5-0.4L18.2,23.9L18.2,23.9L18.2,23.9z"
  />
<path
    fill="#FFFF00"
    stroke="#000000"
    stroke-width="4.738937e-02"
    d="M17.8,24.4l-1.1-1.1c0,0-0.1,0-0.1,0c0,0,0,0.1,0,0.1l1.1,1.1
	C17.7,24.5,17.8,24.5,17.8,24.4C17.8,24.5,17.8,24.4,17.8,24.4z"
  />
<path
    fill="#FFFF00"
    stroke="#000000"
    stroke-width="4.738937e-02"
    d="M17.4,24c0.2-0.2,0.1-0.4,0.1-0.4c0,0-0.2-0.1-0.4,0.1
	L17.4,24"
  />
<path
    fill="#FFFF00"
    stroke="#000000"
    stroke-width="4.738937e-02"
    d="M18.4,23.8l-1.1-1.1c0,0-0.1,0-0.1,0c0,0,0,0.1,0,0.1
	L18.4,23.8C18.3,23.9,18.4,23.9,18.4,23.8C18.4,23.8,18.4,23.8,18.4,23.8z"
  />
<path
    fill="#FFFF00"
    stroke="#000000"
    stroke-width="4.738937e-02"
    d="M18.3,23.8l-1-1c0,0-0.1,0-0.1,0c0,0,0,0.1,0,0.1L18.3,23.8
	C18.2,24,18.2,24,18.3,23.8C18.3,23.9,18.3,23.9,18.3,23.8z"
  />
<path
    fill="#FFFF00"
    stroke="#000000"
    stroke-width="4.738937e-02"
    d="M18.7,22.8L18.7,22.8l-0.1,0l-0.1-0.1l0.1-0.1l-0.1-0.1
	l-0.1,0.1l-0.1-0.1l0.1-0.1l-0.1-0.1l-0.1,0.1c0,0,0,0.1,0,0.1l0.3,0.3c0,0,0.1,0,0.1,0L18.7,22.8L18.7,22.8L18.7,22.8z"
  />
<path
    fill="#FFFF00"
    stroke="#000000"
    stroke-width="4.738937e-02"
    d="M18.2,22.7l-0.5,0.4l0.3,0.3l0.4-0.5L18.2,22.7"
  />
<path
    id="cp1_00000005244932003770800790000007417920021346745765_"
    fill="#FFFF00"
    stroke="#000000"
    stroke-width="4.738937e-02"
    d="
	M18.3,23.2l-0.2,0.2l0.3,0.3l0.2-0.2L18.3,23.2L18.3,23.2L18.3,23.2z"
  />
<g>
	
		<path
      id="cp1_00000152960525241925192280000016726521144121267879_"
      fill="#FFFF00"
      stroke="#000000"
      stroke-width="4.738937e-02"
      d="
		M17.6,22.5l-0.2,0.2l0.3,0.3l0.2-0.2L17.6,22.5L17.6,22.5L17.6,22.5z"
    />
</g>
<path
    id="cp2_00000103970360019835353190000011470713627858740144_"
    fill="#FFFF00"
    stroke="#000000"
    stroke-width="4.738937e-02"
    d="
	M18.8,23.4L18.8,23.4l-0.1,0l-0.1-0.1l0.1-0.1l-0.1-0.1l-0.1,0.1l-0.1-0.1l0.1-0.1L18.4,23l-0.1,0.1c0,0,0,0.1,0,0.1l0.3,0.3
	c0,0,0.1,0,0.1,0L18.8,23.4L18.8,23.4L18.8,23.4z"
  />
<g>
	
		<path
      id="cp2_00000147940358194744375220000007764890009726704568_"
      fill="#FFFF00"
      stroke="#000000"
      stroke-width="4.738937e-02"
      d="
		M18.1,22.6L18.1,22.6l-0.1,0l-0.1-0.1l0.1-0.1l-0.1-0.1l-0.1,0.1l-0.1-0.1l0.1-0.1l-0.1-0.1l-0.1,0.1c0,0,0,0.1,0,0.1l0.3,0.3
		c0,0,0.1,0,0.1,0L18.1,22.6L18.1,22.6L18.1,22.6z"
    />
</g>
<path d="M18.2,23C18.2,22.9,18.2,22.9,18.2,23L18,23l0.1,0.1L18.2,23" />
<path
    id="cp3_00000088842696599534087170000010719656133903468439_"
    d="M18.4,23.5C18.4,23.4,18.4,23.4,18.4,23.5l-0.1,0L18.4,23.5
	L18.4,23.5"
  />
<g>
	<path
      id="cp3_00000047025420404051136950000009179251714077449899_"
      d="M17.7,22.7C17.7,22.7,17.7,22.6,17.7,22.7l-0.1,0L17.7,22.7
		L17.7,22.7"
    />
</g>
<path
    fill="#003399"
    d="M13.8,19.7L13.8,19.7c0,0.2,0.1,0.4,0.2,0.5c0.1,0.1,0.3,0.2,0.5,0.2c0.2,0,0.4-0.1,0.5-0.2
	c0.1-0.1,0.2-0.3,0.2-0.5v-1l-1.4,0L13.8,19.7"
  />
<circle fill="#FFFFFF" cx="14.1" cy="19.1" r="0.1" />
<circle fill="#FFFFFF" cx="14.9" cy="19.1" r="0.1" />
<circle fill="#FFFFFF" cx="14.5" cy="19.5" r="0.1" />
<circle fill="#FFFFFF" cx="14.1" cy="19.9" r="0.1" />
<circle fill="#FFFFFF" cx="14.9" cy="19.9" r="0.1" />
<path
    fill="#003399"
    d="M13.8,17.2L13.8,17.2c0,0.2,0.1,0.4,0.2,0.5c0.1,0.1,0.3,0.2,0.5,0.2c0.2,0,0.4-0.1,0.5-0.2
	c0.1-0.1,0.2-0.3,0.2-0.5v-1l-1.4,0L13.8,17.2"
  />
<circle fill="#FFFFFF" cx="14.1" cy="16.6" r="0.1" />
<circle fill="#FFFFFF" cx="14.9" cy="16.6" r="0.1" />
<circle fill="#FFFFFF" cx="14.5" cy="17" r="0.1" />
<circle fill="#FFFFFF" cx="14.1" cy="17.4" r="0.1" />
<circle fill="#FFFFFF" cx="14.9" cy="17.4" r="0.1" />
<path
    fill="#003399"
    d="M11.8,19.7L11.8,19.7c0,0.2,0.1,0.4,0.2,0.5c0.1,0.1,0.3,0.2,0.5,0.2c0.2,0,0.4-0.1,0.5-0.2
	c0.1-0.1,0.2-0.3,0.2-0.5v-1l-1.4,0L11.8,19.7"
  />
<circle fill="#FFFFFF" cx="12.2" cy="19.1" r="0.1" />
<circle fill="#FFFFFF" cx="13" cy="19.1" r="0.1" />
<circle fill="#FFFFFF" cx="12.6" cy="19.5" r="0.1" />
<circle fill="#FFFFFF" cx="12.2" cy="19.9" r="0.1" />
<circle fill="#FFFFFF" cx="13" cy="19.9" r="0.1" />
<path
    fill="#003399"
    d="M15.8,19.7L15.8,19.7c0,0.2,0.1,0.4,0.2,0.5c0.1,0.1,0.3,0.2,0.5,0.2c0.2,0,0.4-0.1,0.5-0.2
	c0.1-0.1,0.2-0.3,0.2-0.5v-1l-1.4,0L15.8,19.7"
  />
<circle fill="#FFFFFF" cx="16.1" cy="19.1" r="0.1" />
<circle fill="#FFFFFF" cx="16.9" cy="19.1" r="0.1" />
<circle fill="#FFFFFF" cx="16.5" cy="19.5" r="0.1" />
<circle fill="#FFFFFF" cx="16.1" cy="19.9" r="0.1" />
<circle fill="#FFFFFF" cx="16.9" cy="19.9" r="0.1" />
<path
    fill="#003399"
    d="M13.8,22.2L13.8,22.2c0,0.2,0.1,0.4,0.2,0.5c0.1,0.1,0.3,0.2,0.5,0.2c0.2,0,0.4-0.1,0.5-0.2
	c0.1-0.1,0.2-0.3,0.2-0.5v-1l-1.4,0L13.8,22.2"
  />
<circle fill="#FFFFFF" cx="14.1" cy="21.5" r="0.1" />
<circle fill="#FFFFFF" cx="14.9" cy="21.5" r="0.1" />
<circle fill="#FFFFFF" cx="14.5" cy="21.9" r="0.1" />
<circle fill="#FFFFFF" cx="14.1" cy="22.3" r="0.1" />
<circle fill="#FFFFFF" cx="14.9" cy="22.3" r="0.1" />
</svg>
