<svg xmlns="http://www.w3.org/2000/svg" id="a" viewBox="0 0 40 40"><defs><style
    >.ar{stroke-width:.05px}.ar,.as{stroke-linecap:round;stroke-linejoin:round}.ar,.as,.av,.aw{stroke:#000}.ar,.as,.av,.aw,.ax{fill:#ff0}.ar,.as{fill-rule:evenodd}.as{stroke-width:.05px}.bb{fill:#fff}.bc{fill:#039}.av{stroke-miterlimit:4}.av,.aw{stroke-width:.05px}</style></defs><path
    fill="#d9252a"
    fill-rule="evenodd"
    d="M1 39h38V1H1v38Z"
  /><path fill="#1d5c31" fill-rule="evenodd" d="M1 39h13V1H1v38Z" /><path
    d="M21.93 25.36c-2.86-.09-15.99-8.28-16.08-9.59l.73-1.21c1.3 1.89 14.72 9.86 16.04 9.58l-.69 1.22"
    class="as"
  /><path
    d="M6.41 14.4c-.26.69 3.43 2.97 7.86 5.66s8.25 4.36 8.54 4.12l.13-.24c-.05.08-.18.11-.38.05-1.2-.35-4.32-1.78-8.19-4.12-3.87-2.35-7.23-4.51-7.75-5.42a.57.57 0 0 1-.06-.27h-.01l-.11.19-.02.03h0Zm15.58 11c-.05.09-.14.09-.31.07-1.07-.12-4.32-1.7-8.17-4-4.47-2.68-8.17-5.12-7.77-5.76l.11-.19h.02c-.36 1.09 7.29 5.46 7.74 5.74 4.43 2.74 8.16 4.35 8.49 3.93l-.12.21h0s0 0 0 0Z"
    class="as"
  /><path
    d="M14.53 16.57c2.87-.02 6.4-.39 8.44-1.2l-.44-.71c-1.2.67-4.76 1.1-8.02 1.17-3.86-.04-6.59-.4-7.95-1.31l-.41.76c2.51 1.06 5.08 1.29 8.39 1.3"
    class="as"
  /><path
    d="M23.08 15.38c-.07.11-1.4.57-3.35.91a36.07 36.07 0 0 1-10.2.06c-2.05-.32-3.11-.77-3.5-.93l.1-.2c1.13.45 2.19.72 3.44.91a36.83 36.83 0 0 0 10.13-.06c2.01-.32 3.1-.74 3.25-.93l.14.24h0Zm-.38-.72c-.22.17-1.3.56-3.21.86-1.27.18-2.89.35-4.95.35-1.96 0-3.57-.13-4.78-.31-1.93-.25-2.96-.71-3.34-.84l.11-.19c.29.15 1.28.55 3.24.83 1.21.17 2.81.3 4.76.3 2.06 0 3.65-.17 4.92-.35 1.92-.26 2.95-.75 3.1-.88l.14.23h0s0 0 0 0ZM5.12 20.02c1.76.95 5.68 1.43 9.38 1.46 3.37 0 7.77-.52 9.41-1.39l-.05-.95c-.51.8-5.22 1.57-9.4 1.54-4.18-.03-8.06-.68-9.35-1.51v.85"
    class="as"
  /><path
    d="M24 19.88v.23c-.25.3-1.8.74-3.74 1.06-1.48.23-3.41.4-5.81.4s-4.1-.16-5.51-.38A13.51 13.51 0 0 1 5 20.13v-.26c.86.57 3.19.99 3.97 1.12 1.4.22 3.21.38 5.48.38a39 39 0 0 0 5.77-.39c1.39-.2 3.38-.72 3.77-1.07h0Zm0-.8v.23c-.25.3-1.8.74-3.74 1.06-1.48.23-3.41.4-5.81.4s-4.1-.16-5.51-.38A13.51 13.51 0 0 1 5 19.33v-.26c.86.57 3.19.99 3.97 1.12 1.4.22 3.21.38 5.48.38 2.39 0 4.31-.17 5.77-.4 1.39-.2 3.38-.72 3.77-1.07h0s0 0 0 0ZM14.49 25.2c-4.05-.02-7.53-1.11-8.26-1.28l.53.84c1.3.55 4.68 1.36 7.76 1.27 3.08-.09 5.77-.33 7.67-1.25l.55-.87c-1.29.61-5.69 1.29-8.26 1.3"
    class="as"
  /><path
    d="m22.4 24.58-.25.36c-.89.32-2.3.65-2.9.74-1.22.25-3.1.44-4.76.44-3.59-.05-6.53-.76-7.91-1.36l-.11-.19.02-.03.19.07a25.35 25.35 0 0 0 12.51.86c2.06-.41 2.9-.73 3.15-.87l.07-.04h0Zm.48-.78s0 0 0 0l-.19.31c-.48.17-1.77.55-3.66.81-1.25.17-2.02.33-4.5.38a31.16 31.16 0 0 1-8.37-1.25l-.11-.2a35.4 35.4 0 0 0 8.47 1.24c2.27-.05 3.23-.22 4.47-.38 2.21-.34 3.32-.71 3.65-.81l-.01-.02.24-.09h0s0 0 0 0Z"
    class="ar"
  /><path
    d="M22.93 19.27a9.07 9.07 0 0 1-2.45 6.12 8.88 8.88 0 0 1-6.02 2.5 8.91 8.91 0 0 1-5.9-2.47 9.02 9.02 0 0 1-2.45-5.99c.16-2.91 1.31-4.94 2.96-6.33s3.86-2.07 5.7-2.02a8.74 8.74 0 0 1 6.3 3.16c1.12 1.35 1.61 2.82 1.86 5.04h0Zm-8.45-9.13c5.16 0 9.41 4.2 9.41 9.35s-4.25 9.36-9.41 9.36-9.38-4.2-9.38-9.36 4.21-9.35 9.38-9.35"
    class="as"
  /><path
    d="M14.5 10.11c5.17 0 9.38 4.22 9.38 9.39s-4.22 9.38-9.38 9.38-9.38-4.22-9.38-9.38 4.22-9.39 9.38-9.39h0ZM5.32 19.5c0 5.05 4.15 9.18 9.18 9.18s9.18-4.13 9.18-9.18-4.15-9.18-9.18-9.18-9.18 4.13-9.18 9.18h0Z"
    class="as"
  /><path
    d="M14.51 10.89c4.71 0 8.6 3.87 8.6 8.6s-3.88 8.6-8.6 8.6-8.6-3.87-8.6-8.6 3.88-8.6 8.6-8.6h0Zm-8.39 8.6c0 4.61 3.79 8.39 8.39 8.39s8.39-3.78 8.39-8.39-3.79-8.39-8.39-8.39-8.39 3.78-8.39 8.39h0Z"
    class="as"
  /><path d="M14.89 10.07h-.8v18.86h.81V10.07Z" class="as" /><path
    d="M14.81 9.96h.2v19.07h-.2V9.96s0 0 0 0Zm-.8 0h.21v19.07h-.21V9.96h0Z"
    class="as"
  /><path
    d="M23.89 19.86v-.7l-.57-.53-3.22-.85-4.64-.47-5.59.28-3.98.95-.8.6v.7l2.04-.91 4.83-.76h4.64l3.41.38 2.37.57 1.52.75Z"
    class="as"
  /><path
    d="M14.5 18.04c2.22 0 4.37.21 6.07.54 1.76.35 3 .79 3.42 1.29v.24c-.51-.62-2.18-1.07-3.46-1.32a32.6 32.6 0 0 0-6.03-.54c-2.33 0-4.49.22-6.16.55-1.34.27-3.12.79-3.35 1.31v-.25c.12-.36 1.45-.9 3.32-1.27a34 34 0 0 1 6.19-.55h0Zm0-.8c2.22 0 4.37.21 6.07.54 1.76.35 3 .79 3.42 1.29v.24c-.51-.61-2.18-1.07-3.46-1.32a32.6 32.6 0 0 0-6.03-.54c-2.33 0-4.48.22-6.15.55-1.29.24-3.15.79-3.36 1.31v-.26c.12-.36 1.48-.91 3.32-1.27a34 34 0 0 1 6.19-.55h0ZM14.46 13.13c3.49-.02 6.54.49 7.93 1.2l.51.88c-1.21-.65-4.5-1.33-8.44-1.23-3.21.02-6.64.35-8.36 1.27l.61-1.01c1.41-.73 4.74-1.1 7.75-1.11"
    class="as"
  /><path
    d="M14.51 13.86c1.99 0 3.92.11 5.45.38 1.43.27 2.79.66 2.98.88l.15.27c-.47-.31-1.65-.65-3.16-.94a29.7 29.7 0 0 0-5.42-.37c-2.25 0-4 .11-5.49.37-1.59.3-2.69.72-2.96.92l.15-.28c.53-.27 1.36-.59 2.77-.85 1.55-.28 3.32-.37 5.54-.38h0Zm0-.8c1.91 0 3.79.1 5.26.36a8.7 8.7 0 0 1 2.72.89l.22.35c-.37-.42-1.79-.81-3.03-1.03a34.16 34.16 0 0 0-5.17-.37c-2 0-3.85.13-5.28.39a8.7 8.7 0 0 0-2.63.81l.19-.29a9.38 9.38 0 0 1 2.4-.72c1.45-.26 3.31-.38 5.32-.39h0ZM19.17 23.39a24.18 24.18 0 0 0-4.66-.35c-5.82.07-7.7 1.2-7.93 1.54l-.43-.71c1.48-1.07 4.65-1.68 8.4-1.61 1.94.03 3.62.16 5.03.43l-.4.71"
    class="as"
  /><path
    d="M14.47 22.94c1.62.02 3.21.09 4.74.38l-.11.2a25.67 25.67 0 0 0-4.63-.36c-2.15-.02-4.32.18-6.21.73-.6.17-1.58.55-1.69.87l-.11-.18c.03-.19.63-.58 1.75-.89 2.17-.62 4.19-.72 6.26-.74h0s0 0 0 0Zm.07-.81c1.68.03 3.41.11 5.09.44l-.12.2c-1.52-.3-2.97-.4-4.97-.43-2.15 0-4.44.16-6.52.76-.67.2-1.83.62-1.87.95l-.11-.2c.03-.3 1.03-.7 1.93-.96 2.09-.61 4.39-.77 6.56-.77h0Z"
    class="ar"
  /><path
    d="m22.81 23.97-.7 1.09-2.01-1.78-5.21-3.51-5.88-3.22-3.05-1.04.65-1.21.22-.12 1.9.47 6.26 3.22 3.6 2.27 3.03 2.18 1.23 1.42-.04.23Z"
    class="as"
  /><path
    d="M5.85 15.53c.54-.36 4.47 1.39 8.58 3.87 4.1 2.49 8.03 5.3 7.67 5.83l-.12.18-.05.04s.07-.08 0-.28c-.17-.58-2.96-2.8-7.57-5.58-4.5-2.68-8.25-4.3-8.62-3.84l.12-.23h0Zm17.1 8.43c.34-.67-3.31-3.42-7.83-6.09-4.63-2.62-7.96-4.17-8.57-3.71l-.14.25s0-.02.03-.04c.11-.1.29-.09.38-.09 1.05.02 4.04 1.39 8.25 3.8 1.84 1.07 7.78 4.88 7.76 5.95 0 .09 0 .11-.03.16l.15-.23h0s0 0 0 0Z"
    class="as"
  /><path
    fill="#fff"
    stroke="#000"
    stroke-width=".06"
    d="M8.88 20.53c0 1.54.63 2.94 1.65 3.96 1.03 1.02 2.42 1.67 3.96 1.67a5.63 5.63 0 0 0 5.63-5.62v-7.51H8.87v7.5Z"
  /><path
    fill="red"
    stroke="#000"
    stroke-width=".05"
    d="M9.09 20.54a5.37 5.37 0 1 0 10.79 0v-7.28H9.09v7.27m8.63-5.09v5.12c0 .13 0 .28-.02.4a3.22 3.22 0 0 1-3.2 2.81c-.89 0-1.67-.37-2.26-.96-.6-.6-.95-1.42-.95-2.27v-5.12l6.44.01Z"
  /><path
    d="M9.79 15.16c.01-.52.38-.65.39-.65 0 0 .4.13.4.65h-.79"
    class="ax"
  /><path
    d="m9.47 14.53-.06.6h.39c0-.5.38-.58.39-.58 0 0 .38.11.39.58h.39l-.07-.61H9.48ZM9.38 15.13h1.61s.06.03.06.07-.03.07-.06.07H9.38s-.06-.03-.06-.07.03-.07.06-.07Z"
    class="aw"
  /><path
    d="M9.96 15.13c0-.31.21-.4.22-.4 0 0 .22.09.22.4h-.44M9.41 14.28h1.54s.06.03.06.07-.03.07-.06.07H9.41s-.06-.03-.06-.07.03-.07.06-.07Z"
    class="aw"
  /><path
    d="M9.44 14.41h1.47s.06.03.06.07-.03.07-.06.07H9.44s-.06-.03-.06-.07.03-.07.06-.07ZM9.92 13.41h.12v.08h.08v-.08h.12v.08h.09v-.08h.12v.19s-.02.05-.05.05h-.42s-.05-.02-.05-.05v-.19ZM10.36 13.66l.03.61h-.41l.03-.61h.35"
    class="aw"
  /><path id="b" d="M9.86 13.94v.33h-.38v-.33h.38Z" class="aw" /><path
    id="c"
    d="M10.87 13.94v.33h-.38v-.33h.38Z"
    class="aw"
  /><path
    id="d"
    d="M9.42 13.71h.11v.08h.08v-.08h.12v.08h.08v-.08h.12v.19c0 .03-.02.05-.05.05h-.41s-.05-.02-.05-.05v-.19Z"
    class="aw"
  /><path
    id="e"
    d="M10.43 13.71h.11v.08h.08v-.08h.12v.08h.08v-.08h.12v.19c0 .03-.02.05-.05.05h-.41s-.05-.02-.05-.05v-.19Z"
    class="aw"
  /><path d="M10.14 13.85c0-.06.08-.06.08 0V14h-.08v-.15" /><path
    id="f"
    d="M9.64 14.07c0-.06.08-.06.08 0v.11h-.08v-.11"
  /><path id="g" d="M10.64 14.07c0-.06.08-.06.08 0v.11h-.08v-.11" /><path
    d="M9.79 19.55c.01-.52.38-.65.39-.65 0 0 .4.13.4.65h-.79"
    class="ax"
  /><path
    d="m9.47 18.92-.06.6h.39c0-.5.38-.58.39-.58 0 0 .38.11.39.58h.39l-.07-.61H9.48Z"
    class="aw"
  /><path
    d="M9.38 19.52h1.61s.06.03.06.07-.03.07-.06.07H9.38s-.06-.03-.06-.07.03-.07.06-.07ZM9.96 19.52c0-.31.21-.4.22-.4 0 0 .22.09.22.4h-.44M9.41 18.67h1.54s.06.03.06.07-.03.07-.06.07H9.41s-.06-.03-.06-.07.03-.07.06-.07Z"
    class="aw"
  /><path
    d="M9.44 18.8h1.47s.06.03.06.07-.03.07-.06.07H9.44s-.06-.03-.06-.07.03-.07.06-.07ZM9.92 17.8h.12v.08h.08v-.08h.12v.08h.09v-.08h.12v.19s-.02.05-.05.05h-.42s-.05-.02-.05-.05v-.19ZM10.36 18.05l.03.61h-.41l.03-.61h.35"
    class="aw"
  /><path id="h" d="M9.86 18.33v.33h-.38v-.33h.38Z" class="aw" /><path
    id="i"
    d="M10.87 18.33v.33h-.38v-.33h.38Z"
    class="aw"
  /><path
    id="j"
    d="M9.42 18.1h.11v.08h.08v-.08h.12v.08h.08v-.08h.12v.19c0 .03-.02.05-.05.05h-.41s-.05-.02-.05-.05v-.19Z"
    class="aw"
  /><path
    id="k"
    d="M10.43 18.1h.11v.08h.08v-.08h.12v.08h.08v-.08h.12v.19c0 .03-.02.05-.05.05h-.41s-.05-.02-.05-.05v-.19Z"
    class="aw"
  /><path d="M10.14 18.24c0-.06.08-.06.08 0v.15h-.08v-.15" /><path
    id="l"
    d="M9.64 18.46c0-.06.08-.06.08 0v.11h-.08v-.11"
  /><path id="m" d="M10.64 18.46c0-.06.08-.06.08 0v.11h-.08v-.11" /><path
    d="M11.5 24.12c-.36-.38-.19-.73-.19-.73s.38-.19.75.18l-.56.55"
    class="ax"
  /><path
    d="m10.82 23.9.38.47.28-.28c-.35-.35-.15-.68-.14-.68 0 0 .34-.19.68.13l.28-.28-.48-.38-1 1.01ZM11.19 24.39l1.13-1.14s.07-.02.1 0 .03.07 0 .1l-1.13 1.14s-.07.02-.1 0-.03-.07 0-.1Z"
    class="av"
  /><path
    d="M11.6 23.98c-.22-.22-.13-.44-.13-.44s.22-.09.44.12l-.31.31M10.6 23.77l1.08-1.09s.06-.02.09 0 .03.07 0 .09l-1.08 1.09s-.06.02-.09 0-.03-.07 0-.09ZM10.72 23.84l1.04-1.05s.06-.02.09 0 .03.07 0 .09l-1.04 1.05s-.06.02-.09 0-.03-.07 0-.09ZM10.35 22.79l.08-.08.06.06.06-.06-.06-.06.08-.08.06.06.06-.06-.06-.06.08-.08.14.13s.02.05 0 .07l-.29.3s-.05.02-.07 0l-.13-.13ZM10.83 22.66l.45.41-.29.29-.41-.45.25-.25"
    class="av"
  /><path
    id="n"
    d="m10.69 23.21.24.22-.28.28-.23-.24.26-.26Z"
    class="av"
  /><path id="o" d="m11.39 22.5.24.22-.28.28-.23-.24.26-.26Z" class="av" /><path
    id="p"
    d="m10.21 23.36.08-.08.06.06.06-.06-.06-.06.08-.08.06.06.06-.06-.06-.06.08-.08.14.13s.02.05 0 .07l-.29.29s-.05.02-.07 0l-.13-.13Z"
    class="av"
  /><path
    id="q"
    d="m10.91 22.64.08-.08.06.06.06-.06-.06-.06.08-.08.06.06.06-.06-.06-.06.08-.08.14.13s.02.05 0 .07l-.29.29s-.05.02-.07 0l-.13-.13Z"
    class="av"
  /><path d="M10.82 22.95s.02-.1.06-.06l.1.1-.06.06-.1-.1" /><path
    id="r"
    d="M10.61 23.46s.01-.1.06-.06l.08.08-.06.06-.08-.08"
  /><path id="s" d="M11.32 22.74s.01-.1.06-.06l.08.08-.06.06-.08-.08" /><path
    d="M14.12 15.16c.01-.52.38-.65.39-.65 0 0 .4.13.4.65h-.79"
    class="ax"
  /><path
    d="m13.8 14.53-.06.6h.39c0-.5.38-.58.39-.58 0 0 .38.11.39.58h.39l-.07-.61h-1.42ZM13.71 15.13h1.61s.06.03.06.07-.03.07-.06.07h-1.61s-.06-.03-.06-.07.03-.07.06-.07Z"
    class="aw"
  /><path
    d="M14.29 15.13c0-.31.21-.4.22-.4 0 0 .22.09.22.4h-.44M13.74 14.28h1.54s.06.03.06.07-.03.07-.06.07h-1.54s-.06-.03-.06-.07.03-.07.06-.07Z"
    class="aw"
  /><path
    d="M13.78 14.41h1.47s.06.03.06.07-.03.07-.06.07h-1.47s-.06-.03-.06-.07.03-.07.06-.07ZM14.25 13.41h.12v.08h.08v-.08h.12v.08h.09v-.08h.12v.19s-.02.05-.05.05h-.42s-.05-.02-.05-.05v-.19ZM14.69 13.66l.03.61h-.41l.03-.61h.35"
    class="aw"
  /><path id="t" d="M14.19 13.94v.33h-.38v-.33h.38Z" class="aw" /><path
    id="u"
    d="M15.2 13.94v.33h-.38v-.33h.38Z"
    class="aw"
  /><path
    id="v"
    d="M13.75 13.71h.11v.08h.08v-.08h.12v.08h.08v-.08h.12v.19c0 .03-.02.05-.05.05h-.41s-.05-.02-.05-.05v-.19Z"
    class="aw"
  /><path
    id="w"
    d="M14.76 13.71h.11v.08h.08v-.08h.12v.08h.08v-.08h.12v.19c0 .03-.02.05-.05.05h-.41s-.05-.02-.05-.05v-.19Z"
    class="aw"
  /><path d="M14.47 13.85c0-.06.08-.06.08 0V14h-.08v-.15" /><path
    id="x"
    d="M13.97 14.07c0-.06.08-.06.08 0v.11h-.08v-.11"
  /><path id="y" d="M14.98 14.07c0-.06.08-.06.08 0v.11h-.08v-.11" /><path
    d="M19.21 15.16c-.01-.52-.38-.65-.39-.65 0 0-.4.13-.4.65h.79"
    class="ax"
  /><path
    d="m19.53 14.53.06.6h-.39c0-.5-.38-.58-.39-.58 0 0-.38.11-.39.58h-.39l.07-.61h1.42ZM19.62 15.13h-1.61s-.06.03-.06.07.03.07.06.07h1.61s.06-.03.06-.07-.03-.07-.06-.07Z"
    class="aw"
  /><path
    d="M19.04 15.13c0-.31-.21-.4-.22-.4 0 0-.22.09-.22.4h.44M19.59 14.28h-1.54s-.06.03-.06.07.03.07.06.07h1.54s.06-.03.06-.07-.03-.07-.06-.07Z"
    class="aw"
  /><path
    d="M19.56 14.41h-1.47s-.06.03-.06.07.03.07.06.07h1.47s.06-.03.06-.07-.03-.07-.06-.07ZM19.08 13.41h-.12v.08h-.08v-.08h-.12v.08h-.09v-.08h-.12v.19s.02.05.05.05h.42s.05-.02.05-.05v-.19ZM18.64 13.66l-.03.61h.41l-.03-.61h-.35"
    class="aw"
  /><path id="z" d="M19.14 13.94v.33h.38v-.33h-.38Z" class="aw" /><path
    id="aa"
    d="M18.13 13.94v.33h.38v-.33h-.38Z"
    class="aw"
  /><path
    id="ab"
    d="M19.58 13.71h-.11v.08h-.08v-.08h-.12v.08h-.08v-.08h-.12v.19c0 .03.02.05.05.05h.41s.05-.02.05-.05v-.19Z"
    class="aw"
  /><path
    id="ac"
    d="M18.57 13.71h-.11v.08h-.08v-.08h-.12v.08h-.08v-.08h-.12v.19c0 .03.02.05.05.05h.41s.05-.02.05-.05v-.19Z"
    class="aw"
  /><path d="M18.86 13.85c0-.06-.08-.06-.08 0V14h.08v-.15" /><path
    id="ad"
    d="M19.36 14.07c0-.06-.08-.06-.08 0v.11h.08v-.11"
  /><path id="ae" d="M18.36 14.07c0-.06-.08-.06-.08 0v.11h.08v-.11" /><path
    d="M19.21 19.55c-.01-.52-.38-.65-.39-.65 0 0-.4.13-.4.65h.79"
    class="ax"
  /><path
    d="m19.53 18.92.06.6h-.39c0-.5-.38-.58-.39-.58 0 0-.38.11-.39.58h-.39l.07-.61h1.42Z"
    class="aw"
  /><path
    d="M19.62 19.52h-1.61s-.06.03-.06.07.03.07.06.07h1.61s.06-.03.06-.07-.03-.07-.06-.07ZM19.04 19.52c0-.31-.21-.4-.22-.4 0 0-.22.09-.22.4h.44M19.59 18.67h-1.54s-.06.03-.06.07.03.07.06.07h1.54s.06-.03.06-.07-.03-.07-.06-.07Z"
    class="aw"
  /><path
    d="M19.56 18.8h-1.47s-.06.03-.06.07.03.07.06.07h1.47s.06-.03.06-.07-.03-.07-.06-.07ZM19.08 17.8h-.12v.08h-.08v-.08h-.12v.08h-.09v-.08h-.12v.19s.02.05.05.05h.42s.05-.02.05-.05v-.19ZM18.64 18.05l-.03.61h.41l-.03-.61h-.35"
    class="aw"
  /><path id="af" d="M19.14 18.33v.33h.38v-.33h-.38Z" class="aw" /><path
    id="ag"
    d="M18.13 18.33v.33h.38v-.33h-.38Z"
    class="aw"
  /><path
    id="ah"
    d="M19.58 18.1h-.11v.08h-.08v-.08h-.12v.08h-.08v-.08h-.12v.19c0 .03.02.05.05.05h.41s.05-.02.05-.05v-.19Z"
    class="aw"
  /><path
    id="ai"
    d="M18.57 18.1h-.11v.08h-.08v-.08h-.12v.08h-.08v-.08h-.12v.19c0 .03.02.05.05.05h.41s.05-.02.05-.05v-.19Z"
    class="aw"
  /><path d="M18.86 18.24c0-.06-.08-.06-.08 0v.15h.08v-.15" /><path
    id="aj"
    d="M19.36 18.46c0-.06-.08-.06-.08 0v.11h.08v-.11"
  /><path id="ak" d="M18.36 18.46c0-.06-.08-.06-.08 0v.11h.08v-.11" /><path
    d="M17.5 24.12c.36-.38.19-.73.19-.73s-.38-.19-.75.18l.56.55"
    class="ax"
  /><path
    d="m18.18 23.9-.38.47-.28-.28c.35-.35.15-.68.14-.68 0 0-.34-.19-.68.13l-.28-.28.48-.38 1 1.01ZM17.81 24.39l-1.13-1.14s-.07-.02-.1 0-.03.07 0 .1l1.13 1.14s.07.02.1 0 .03-.07 0-.1Z"
    class="av"
  /><path
    d="M17.4 23.98c.22-.22.13-.44.13-.44s-.22-.09-.44.12l.31.31M18.4 23.77l-1.08-1.09s-.06-.02-.09 0-.03.07 0 .09l1.08 1.09s.06.02.09 0 .03-.07 0-.09ZM18.28 23.84l-1.04-1.05s-.06-.02-.09 0-.03.07 0 .09l1.04 1.05s.06.02.09 0 .03-.07 0-.09ZM18.65 22.79l-.08-.08-.06.06-.06-.06.06-.06-.08-.08-.06.06-.06-.06.06-.06-.08-.08-.14.13s-.02.05 0 .07l.29.3s.05.02.07 0l.13-.13ZM18.17 22.66l-.45.41.29.29.41-.45-.25-.25"
    class="av"
  /><path
    id="al"
    d="m18.31 23.21-.24.22.28.28.23-.24-.26-.26Z"
    class="av"
  /><path
    id="am"
    d="m17.61 22.5-.24.22.28.28.23-.24-.26-.26Z"
    class="av"
  /><path
    id="an"
    d="m18.79 23.36-.08-.08-.06.06-.06-.06.06-.06-.08-.08-.06.06-.06-.06.06-.06-.08-.08-.14.13s-.02.05 0 .07l.29.29s.05.02.07 0l.13-.13Z"
    class="av"
  /><path
    id="ao"
    d="m18.09 22.64-.08-.08-.06.06-.06-.06.06-.06-.08-.08-.06.06-.06-.06.06-.06-.08-.08-.14.13s-.02.05 0 .07l.29.29s.05.02.07 0l.13-.13Z"
    class="av"
  /><path d="M18.18 22.95s-.02-.1-.06-.06l-.1.1.06.06.1-.1" /><path
    id="ap"
    d="M18.39 23.46s-.01-.1-.06-.06l-.08.08.06.06.08-.08"
  /><path id="aq" d="M17.68 22.74s-.01-.1-.06-.06l-.08.08.06.06.08-.08" /><path
    d="M13.81 19.71c0 .21.08.4.21.54s.31.23.5.23.37-.09.5-.22a.8.8 0 0 0 .21-.54V18.7h-1.42v1.02"
    class="bc"
  /><circle cx="14.14" cy="19.08" r=".14" class="bb" /><circle
    cx="14.93"
    cy="19.08"
    r=".14"
    class="bb"
  /><circle cx="14.53" cy="19.46" r=".14" class="bb" /><circle
    cx="14.14"
    cy="19.85"
    r=".14"
    class="bb"
  /><circle cx="14.93" cy="19.85" r=".14" class="bb" /><path
    d="M13.81 17.25c0 .21.08.4.21.54s.31.23.5.23.37-.09.5-.22a.8.8 0 0 0 .21-.54v-1.02h-1.42v1.02"
    class="bc"
  /><circle cx="14.14" cy="16.61" r=".14" class="bb" /><circle
    cx="14.93"
    cy="16.61"
    r=".14"
    class="bb"
  /><circle cx="14.53" cy="16.99" r=".14" class="bb" /><circle
    cx="14.14"
    cy="17.39"
    r=".14"
    class="bb"
  /><circle cx="14.93" cy="17.39" r=".14" class="bb" /><path
    d="M11.84 19.71c0 .21.08.4.21.54s.31.23.5.23.37-.09.5-.22a.8.8 0 0 0 .21-.54V18.7h-1.42v1.02"
    class="bc"
  /><circle cx="12.17" cy="19.08" r=".14" class="bb" /><circle
    cx="12.95"
    cy="19.08"
    r=".14"
    class="bb"
  /><circle cx="12.56" cy="19.46" r=".14" class="bb" /><circle
    cx="12.17"
    cy="19.85"
    r=".14"
    class="bb"
  /><circle cx="12.95" cy="19.85" r=".14" class="bb" /><path
    d="M15.78 19.71c0 .21.08.4.21.54s.31.23.5.23.37-.09.5-.22a.8.8 0 0 0 .21-.54V18.7h-1.42v1.02"
    class="bc"
  /><circle cx="16.1" cy="19.08" r=".14" class="bb" /><circle
    cx="16.89"
    cy="19.08"
    r=".14"
    class="bb"
  /><circle cx="16.5" cy="19.46" r=".14" class="bb" /><circle
    cx="16.1"
    cy="19.85"
    r=".14"
    class="bb"
  /><circle cx="16.89" cy="19.85" r=".14" class="bb" /><path
    d="M13.81 22.16c0 .21.08.4.21.54s.31.23.5.23.37-.09.5-.22a.8.8 0 0 0 .21-.54v-1.02h-1.42v1.02"
    class="bc"
  /><circle cx="14.14" cy="21.52" r=".14" class="bb" /><circle
    cx="14.93"
    cy="21.52"
    r=".14"
    class="bb"
  /><circle cx="14.53" cy="21.9" r=".14" class="bb" /><circle
    cx="14.14"
    cy="22.3"
    r=".14"
    class="bb"
  /><circle cx="14.93" cy="22.3" r=".14" class="bb" /><path
    fill="none"
    d="M5 10h19v19H5z"
  /></svg>
