<?xml version="1.0" encoding="UTF-8" ?>
<svg
  id="a"
  xmlns="http://www.w3.org/2000/svg"
  xmlns:xlink="http://www.w3.org/1999/xlink"
  viewBox="0 0 44 40"
><defs><filter id="b" filterUnits="userSpaceOnUse"><feOffset
        dx=".67"
        dy=".67"
      /><feGaussianBlur result="c" stdDeviation="2.51" /><feFlood
        flood-color="#000"
        flood-opacity=".25"
      /><feComposite in2="c" operator="in" /><feComposite
        in="SourceGraphic"
      /></filter><clipPath id="d"><rect
        x="3"
        y="7.5"
        width="38"
        height="25"
        fill="none"
        stroke-width="0"
      /></clipPath></defs><g filter="url(#b)"><g clip-path="url(#d)"><path
        d="m3,7.5h38v25H3V7.5Z"
        fill="#fff"
        fill-rule="evenodd"
        stroke-width="0"
      /><path
        d="m3,7.5h38v16.67H3V7.5Z"
        fill="#0c4076"
        fill-rule="evenodd"
        stroke-width="0"
      /><path
        d="m3,7.5h38v8.33H3V7.5Z"
        fill="#c6363c"
        fill-rule="evenodd"
        stroke-width="0"
      /><path
        d="m16.57,11.36c.26,0,.48-.21.48-.47s-.21-.47-.48-.47-.48.21-.48.47.21.47.48.47Z"
        fill="#0c4076"
        fill-rule="evenodd"
        stroke="#21231e"
        stroke-width=".03"
      /><path
        d="m16.66,9.86s.04,0,.06-.02c.02-.02.02-.04.02-.06s0-.04-.02-.06c-.02-.02-.04-.02-.06-.02,0-.02,0-.04-.02-.06-.02-.02-.04-.02-.06-.02s-.04,0-.06.02c-.02.02-.02.04-.02.06-.02,0-.04,0-.06.02-.02.02-.02.04-.02.06s0,.04.02.06c.02.02.04.02.06.02v.18h-.15s0-.04-.02-.06c-.02-.02-.04-.02-.06-.02s-.04,0-.06.02c-.02.02-.02.04-.02.06-.02,0-.04,0-.06.02-.02.02-.02.04-.02.06s0,.04.02.06c.02.02.04.02.06.02,0,.02,0,.04.02.06.02.02.04.02.06.02s.04,0,.06-.02c.02-.02.02-.04.02-.06h.15v.6h.17v-.6h.15s0,.04.02.06c.02.02.04.02.06.02s.04,0,.06-.02c.02-.02.02-.04.02-.06.02,0,.04,0,.06-.02.02-.02.02-.04.02-.06s0-.04-.02-.06c-.02-.02-.04-.02-.06-.02,0-.02,0-.04-.02-.06-.02-.02-.04-.02-.06-.02s-.04,0-.06.02c-.02.02-.02.04-.02.06h-.15v-.18Z"
        fill="#edb92e"
        fill-rule="evenodd"
        stroke="#21231e"
        stroke-linejoin="round"
        stroke-width=".03"
      /><path
        d="m16.66,10.42c-.06,0-.11,0-.17,0v.47h.17v-.47Z"
        fill="#edb92e"
        fill-rule="evenodd"
        stroke="#21231e"
        stroke-linejoin="round"
        stroke-width=".03"
      /><path
        d="m17.04,10.81c.01.06.01.11,0,.17-.32-.01-.63-.01-.95,0-.01-.06-.01-.11,0-.17.32-.01.63-.01.95,0Z"
        fill="#edb92e"
        fill-rule="evenodd"
        stroke="#21231e"
        stroke-linejoin="round"
        stroke-width=".03"
      /><path
        d="m19.41,14.83c.11-.22.22-.39.31-.5-.32.24-.49.19-.51-.17-.3.41-.55.37-.76-.11-.36.5-.65.48-.87-.06-.38.46-.71.44-1.01-.06-.3.5-.64.52-1.01.06-.23.54-.52.56-.87.06-.21.48-.46.52-.76.11-.02.35-.19.41-.51.17.09.11.2.28.31.5h5.69Z"
        fill="#edb92e"
        fill-rule="evenodd"
        stroke="#21231e"
        stroke-linejoin="round"
        stroke-width=".03"
      /><path
        d="m13.73,14.85l.17.86h5.35l.17-.86-2.84-.14-2.84.14Z"
        fill="#edb92e"
        fill-rule="evenodd"
        stroke="#21231e"
        stroke-linejoin="round"
        stroke-width=".03"
      /><path
        d="m19.7,14.05c-.2.5-.37.5-.39.06.03-.03.02-.11.07-.07.03.02.06-.03.04-.06-.05-.04-.11-.04-.17.02-.01-.08-.07-.11-.14-.08-.03.01-.03.07,0,.07.06,0,.04.04.06.07-.38.46-.53.4-.48-.19l-.28-.06c-.32.63-.56.66-.73.08.03-.03.03-.09.08-.07.03.01.06-.04.02-.07-.07-.06-.14-.03-.19.03-.03-.08-.11-.11-.19-.06-.03.02-.01.08.02.07.07-.02.04.07.08.09-.14.56-.87.58-.75-.22h-.37c.13.81-.61.78-.75.22.04-.03.01-.11.08-.09.03,0,.06-.05.02-.07-.08-.05-.16-.03-.19.06-.06-.06-.12-.08-.19-.03-.03.03,0,.08.02.07.06-.02.06.04.08.07-.17.57-.41.55-.73-.08l-.28.06c.06.59-.1.66-.48.19.01-.03,0-.08.06-.07.03,0,.03-.06,0-.07-.07-.03-.13,0-.14.08-.06-.06-.12-.06-.17-.02-.03.02.01.07.04.06.05-.03.04.04.07.07-.03.44-.2.44-.39-.06l-.11.03c0,.11.04.25.11.33.28.33.51.28.52-.14.38.44.69.39.75-.08.31.61.84.31.86-.06.15.53.94.53,1-.08.06.61.84.61,1,.08.01.36.55.67.86.06.06.47.37.53.75.08.01.42.24.47.52.14.07-.08.11-.22.11-.33l-.11-.03Z"
        fill="#edb92e"
        fill-rule="evenodd"
        stroke="#21231e"
        stroke-linejoin="round"
        stroke-width=".03"
      /><path
        d="m13.73,14.93c-.14.01-.14-.12,0-.14,1.9-.19,3.79-.19,5.69,0,.14.01.14.15,0,.14-1.9-.19-3.79-.19-5.69,0Z"
        fill="#edb92e"
        fill-rule="evenodd"
        stroke="#21231e"
        stroke-linejoin="round"
        stroke-width=".03"
      /><path
        d="m16.29,13.04l-.2-.25c.06-.54.06-1.03,0-1.47-.04-.13,0-.17.11-.11.24.12.49.12.73,0,.11-.06.15-.02.11.11-.06.44-.06.94,0,1.47l-.2.25h-.56Z"
        fill="#edb92e"
        fill-rule="evenodd"
        stroke="#21231e"
        stroke-linejoin="round"
        stroke-width=".03"
      /><path
        d="m17.22,15.17l-.65.32-.65-.32.65-.32.65.32Z"
        fill="#edb92e"
        fill-rule="evenodd"
        stroke="#21231e"
        stroke-linecap="round"
        stroke-width=".03"
      /><path
        d="m19.38,11.92l.78.36.08.33-.31.47.03.39h.25l.42-1.11-.53-.44-1.22-.42.5.42Z"
        fill="#edb92e"
        fill-rule="evenodd"
        stroke="#21231e"
        stroke-linejoin="round"
        stroke-width=".03"
      /><path
        d="m19.99,13.43s.03-.09.03-.13c.02-.08,0-.15-.02-.23.08-.12.18-.24.24-.37.05-.09.08-.19.06-.29-.03-.11-.12-.18-.21-.25-.1-.08-.24-.15-.38-.21-.31-.13-.56-.19-.74-.2l.11.11c.34.11.73.25.92.4.25.19.24.24-.12.74-.01.02-.04.06-.03.07.02.04.05.2,0,.32.03.06.08.03.12.03h0Z"
        fill="#edb92e"
        fill-rule="evenodd"
        stroke="#21231e"
        stroke-linejoin="round"
        stroke-width=".03"
      /><path
        d="m17.64,13.12c-.1,0-.07.16-.05.2.02.05.05.05.08,0,.02-.04.07-.2-.03-.21Z"
        fill="#edb92e"
        fill-rule="evenodd"
        stroke="#21231e"
        stroke-linejoin="round"
        stroke-width=".03"
      /><path
        d="m19.45,13.36c-.09-.03-.11.14-.1.18.01.05.03.06.08.02.03-.03.12-.18.02-.21Z"
        fill="#edb92e"
        fill-rule="evenodd"
        stroke="#21231e"
        stroke-linejoin="round"
        stroke-width=".03"
      /><path
        d="m19.02,11.71c.1,0,.18-.08.18-.18s-.08-.18-.18-.18-.18.08-.18.18.08.18.18.18Z"
        fill="#fff"
        fill-rule="evenodd"
        stroke="#21231e"
        stroke-linejoin="round"
        stroke-width=".03"
      /><path
        d="m19.36,11.82c.1,0,.18-.08.18-.18s-.08-.18-.18-.18-.18.08-.18.18.08.18.18.18Z"
        fill="#fff"
        fill-rule="evenodd"
        stroke="#21231e"
        stroke-linejoin="round"
        stroke-width=".03"
      /><path
        d="m19.7,11.93c.1,0,.18-.08.18-.18s-.08-.18-.18-.18-.18.08-.18.18.08.18.18.18Z"
        fill="#fff"
        fill-rule="evenodd"
        stroke="#21231e"
        stroke-linejoin="round"
        stroke-width=".03"
      /><path
        d="m20.03,12.08c.1,0,.18-.08.18-.18s-.08-.18-.18-.18-.18.08-.18.18.08.18.18.18Z"
        fill="#fff"
        fill-rule="evenodd"
        stroke="#21231e"
        stroke-linejoin="round"
        stroke-width=".03"
      /><path
        d="m20.34,12.26c.1,0,.18-.08.18-.18s-.08-.18-.18-.18-.18.08-.18.18.08.18.18.18Z"
        fill="#fff"
        fill-rule="evenodd"
        stroke="#21231e"
        stroke-linejoin="round"
        stroke-width=".03"
      /><path
        d="m20.2,13.51c.1,0,.18-.08.18-.18s-.08-.18-.18-.18-.18.08-.18.18.08.18.18.18Z"
        fill="#fff"
        fill-rule="evenodd"
        stroke="#21231e"
        stroke-linejoin="round"
        stroke-width=".03"
      /><path
        d="m20.37,13.21c.1,0,.18-.08.18-.18s-.08-.18-.18-.18-.18.08-.18.18.08.18.18.18Z"
        fill="#fff"
        fill-rule="evenodd"
        stroke="#21231e"
        stroke-linejoin="round"
        stroke-width=".03"
      /><path
        d="m20.51,12.9c.1,0,.18-.08.18-.18s-.08-.18-.18-.18-.18.08-.18.18.08.18.18.18Z"
        fill="#fff"
        fill-rule="evenodd"
        stroke="#21231e"
        stroke-linejoin="round"
        stroke-width=".03"
      /><path
        d="m20.57,12.54c.1,0,.18-.08.18-.18s-.08-.18-.18-.18-.18.08-.18.18.08.18.18.18Z"
        fill="#fff"
        fill-rule="evenodd"
        stroke="#21231e"
        stroke-linejoin="round"
        stroke-width=".03"
      /><path
        d="m17.25,15.48s.09-.04.09-.09-.04-.09-.09-.09-.09.04-.09.09.04.09.09.09Z"
        fill="#fff"
        fill-rule="evenodd"
        stroke="#21231e"
        stroke-linejoin="round"
        stroke-width=".03"
      /><path
        d="m18.63,15.56s.09-.04.09-.09-.04-.09-.09-.09-.09.04-.09.09.04.09.09.09Z"
        fill="#fff"
        fill-rule="evenodd"
        stroke="#21231e"
        stroke-linejoin="round"
        stroke-width=".03"
      /><path
        d="m18.68,15.14s.09-.04.09-.09-.04-.09-.09-.09-.09.04-.09.09.04.09.09.09Z"
        fill="#fff"
        fill-rule="evenodd"
        stroke="#21231e"
        stroke-linejoin="round"
        stroke-width=".03"
      /><path
        d="m17.27,15.06s.09-.04.09-.09-.04-.09-.09-.09-.09.04-.09.09.04.09.09.09Z"
        fill="#fff"
        fill-rule="evenodd"
        stroke="#21231e"
        stroke-linejoin="round"
        stroke-width=".03"
      /><path
        d="m17.69,13.69c.06-.08.16-.47-.06-.49-.23-.01-.17.39-.13.47.06.11.12.12.19.01Z"
        fill="#fff"
        fill-rule="evenodd"
        stroke="#21231e"
        stroke-linejoin="round"
        stroke-width=".03"
      /><path
        d="m19.19,13.88c.03.12.08.14.18.05.08-.07.27-.41.06-.48-.22-.07-.26.33-.23.43Z"
        fill="#fff"
        fill-rule="evenodd"
        stroke="#21231e"
        stroke-linejoin="round"
        stroke-width=".03"
      /><path
        d="m17.02,11.39l.99.03.62.19.17.39-.45.86.2.56.59-.5.28-1.03-.76-.64-1.6-.11-.03.25Z"
        fill="#edb92e"
        fill-rule="evenodd"
        stroke="#21231e"
        stroke-linejoin="round"
        stroke-width=".03"
      /><path
        d="m17.07,11.33c.49-.04.98,0,1.47.2.41.16.37.64-.13,1.3.05.08.07.19.08.31-.05,0-.09,0-.14,0,.04-.08,0-.18-.05-.25-.03-.05-.04-.04,0-.09.3-.42.5-.78.38-1-.14-.27-.69-.41-1.62-.39,0-.02,0-.05,0-.07,0,0,0,0,0-.01Z"
        fill="#edb92e"
        fill-rule="evenodd"
        stroke="#21231e"
        stroke-linejoin="round"
        stroke-width=".03"
      /><path
        d="m19.04,11.5s-.03.05-.05.07c.27.15.39.31.36.46,0,.03-.09.32-.27.88-.13.09-.22.16-.28.23,0,0-.02.03-.01.04-.02.09.08.07.14.05.03-.08.13-.17.18-.21.01,0,.05-.03.06-.04.1-.32.2-.61.28-.88.09-.27-.1-.47-.4-.6h0Z"
        fill="#edb92e"
        fill-rule="evenodd"
        stroke="#21231e"
        stroke-linejoin="round"
        stroke-width=".03"
      /><path
        d="m17.19,11.29c.1,0,.18-.08.18-.18s-.08-.18-.18-.18-.18.08-.18.18.08.18.18.18Z"
        fill="#fff"
        fill-rule="evenodd"
        stroke="#21231e"
        stroke-linejoin="round"
        stroke-width=".03"
      /><path
        d="m17.54,11.29c.1,0,.18-.08.18-.18s-.08-.18-.18-.18-.18.08-.18.18.08.18.18.18Z"
        fill="#fff"
        fill-rule="evenodd"
        stroke="#21231e"
        stroke-linejoin="round"
        stroke-width=".03"
      /><path
        d="m17.89,11.33c.1,0,.18-.08.18-.18s-.08-.18-.18-.18-.18.08-.18.18.08.18.18.18Z"
        fill="#fff"
        fill-rule="evenodd"
        stroke="#21231e"
        stroke-linejoin="round"
        stroke-width=".03"
      /><path
        d="m18.23,11.4c.1,0,.18-.08.18-.18s-.08-.18-.18-.18-.18.08-.18.18.08.18.18.18Z"
        fill="#fff"
        fill-rule="evenodd"
        stroke="#21231e"
        stroke-linejoin="round"
        stroke-width=".03"
      /><path
        d="m18.57,11.51c.1,0,.18-.08.18-.18s-.08-.18-.18-.18-.18.08-.18.18.08.18.18.18Z"
        fill="#fff"
        fill-rule="evenodd"
        stroke="#21231e"
        stroke-linejoin="round"
        stroke-width=".03"
      /><path
        d="m18.88,11.65c.1,0,.18-.08.18-.18s-.08-.18-.18-.18-.18.08-.18.18.08.18.18.18Z"
        fill="#fff"
        fill-rule="evenodd"
        stroke="#21231e"
        stroke-linejoin="round"
        stroke-width=".03"
      /><path
        d="m19.08,11.87c.1,0,.18-.08.18-.18s-.08-.18-.18-.18-.18.08-.18.18.08.18.18.18Z"
        fill="#fff"
        fill-rule="evenodd"
        stroke="#21231e"
        stroke-linejoin="round"
        stroke-width=".03"
      /><path
        d="m18.71,13.15c.1,0,.18-.08.18-.18s-.08-.18-.18-.18-.18.08-.18.18.08.18.18.18Z"
        fill="#fff"
        fill-rule="evenodd"
        stroke="#21231e"
        stroke-linejoin="round"
        stroke-width=".03"
      /><path
        d="m18.85,12.85c.1,0,.18-.08.18-.18s-.08-.18-.18-.18-.18.08-.18.18.08.18.18.18Z"
        fill="#fff"
        fill-rule="evenodd"
        stroke="#21231e"
        stroke-linejoin="round"
        stroke-width=".03"
      /><path
        d="m18.99,12.54c.1,0,.18-.08.18-.18s-.08-.18-.18-.18-.18.08-.18.18.08.18.18.18Z"
        fill="#fff"
        fill-rule="evenodd"
        stroke="#21231e"
        stroke-linejoin="round"
        stroke-width=".03"
      /><path
        d="m19.1,12.21c.1,0,.18-.08.18-.18s-.08-.18-.18-.18-.18.08-.18.18.08.18.18.18Z"
        fill="#fff"
        fill-rule="evenodd"
        stroke="#21231e"
        stroke-linejoin="round"
        stroke-width=".03"
      /><path
        d="m20.06,13.53v.05c.09.02.16.02.21.01-.09-.09-.16-.11-.21-.07Z"
        fill="#edb92e"
        fill-rule="evenodd"
        stroke="#21231e"
        stroke-linejoin="round"
        stroke-width=".03"
      /><path
        d="m20.09,13.4s-.05.02-.08.02c-.03,0-.07,0-.09-.02-.11-.06-.11.05-.07.14.03.06.06.14.03.2-.03.06-.03.09,0,.11.02.01.03.02.05.03.03.03.05.03.06-.02.11-.04.1-.16.13-.25.05-.13.22-.16-.02-.22Z"
        fill="#edb92e"
        fill-rule="evenodd"
        stroke="#21231e"
        stroke-linejoin="round"
        stroke-width=".03"
      /><path
        d="m20.03,13.4c-.09.03-.1-.02-.17-.02.02.14.05.22.2.14.08-.04.19.02.21.07,0,.02.06-.02.07-.06.07-.16-.19-.18-.31-.13Z"
        fill="#edb92e"
        fill-rule="evenodd"
        stroke="#21231e"
        stroke-linejoin="round"
        stroke-width=".03"
      /><path
        d="m19.7,14.1c-.07-.02-.17.13-.2.13-.03-.09.03-.29.16-.45.08-.03.09-.08.11-.2,0-.04.08-.01.08.05,0,.07,0,.1,0,.16,0,.02,0,.04.02.06-.13.05-.16.11-.15.25Z"
        fill="#edb92e"
        fill-rule="evenodd"
        stroke="#21231e"
        stroke-linejoin="round"
        stroke-width=".03"
      /><path
        d="m19.76,13.57s.02.05.02.09c0,.03,0,.06-.03.09-.02.03-.05.05-.08.07-.02.01-.04.05-.06.08-.02.04-.03.08-.03.11,0,.1-.02.19-.07.2-.03.01-.04,0-.07,0,0-.02,0-.04.02-.07.02-.03.04-.07.04-.1,0-.03.01-.04,0-.09,0-.03-.03-.04-.02-.07,0-.06.05-.17.12-.17s.1,0,.13-.09c.01-.03.03-.04.04-.06h0Z"
        fill="#edb92e"
        fill-rule="evenodd"
        stroke="#21231e"
        stroke-linejoin="round"
        stroke-width=".03"
      /><path
        d="m20.01,13.81s-.04-.02-.06-.03c-.03-.01-.07-.02-.11,0-.16.05-.23.32-.05.39.03,0,.07-.03.1-.09.04-.09.07-.15.12-.19.03-.03.03-.06,0-.07Z"
        fill="#edb92e"
        fill-rule="evenodd"
        stroke="#21231e"
        stroke-linejoin="round"
        stroke-width=".03"
      /><path
        d="m19.93,13.83c-.15-.06-.26.23-.12.28.08.03.08-.06.1-.12.02-.07.17-.11.02-.17Z"
        fill="#edb92e"
        fill-rule="evenodd"
        stroke="#21231e"
        stroke-linejoin="round"
        stroke-width=".03"
      /><path
        d="m16.79,13c.08-.14.16-.23.24-.27-.12-.37-.15-.84-.08-1.42,0-.09.03-.12.06-.12.03,0,.05.04.05.15-.02.32-.05.6-.03.84.01.21.06.39.12.59,0,.03-.01.05-.11.1-.07.04-.12.09-.13.14-.02,0-.03,0-.04,0-.07.02-.1.01-.08,0h0Z"
        fill="#edb92e"
        fill-rule="evenodd"
        stroke="#21231e"
        stroke-linejoin="round"
        stroke-width=".03"
      /><path
        d="m17.24,13.46s-.05-.02-.07-.04c-.02-.02-.02-.06-.01-.1.02-.15-.07-.13-.17-.06-.05.03-.1.11-.14.15-.04.04-.08.04-.09.06,0,.06,0,.1,0,.13,0,.02,0,.07,0,.13.01.02.05.02.09.06.04.04.09.11.14.15.1.06.19.09.17-.06,0-.04,0-.07.01-.1.01-.02.02-.01.07-.04.03-.02.05-.04.06-.06s0-.05,0-.07,0-.05,0-.07-.04-.04-.06-.06Z"
        fill="#edb92e"
        fill-rule="evenodd"
        stroke="#21231e"
        stroke-linejoin="round"
        stroke-width=".03"
      /><path
        d="m17.16,13.26s-.07.03-.1.06c-.05.04-.02.11.04.18.02.02.03.06.03.1,0,.04,0,.08-.03.1-.06.07-.09.14-.04.18.03.03.06.04.1.06,0-.02,0-.04,0-.07,0-.04,0-.07.01-.1.01-.02.02-.01.07-.04.03-.02.05-.04.06-.06.01-.02,0-.05,0-.07s0-.05,0-.07c-.01-.02-.04-.04-.06-.06-.04-.03-.05-.02-.07-.04-.02-.02-.02-.06-.01-.1,0-.03,0-.05,0-.07h0Z"
        fill="#edb92e"
        fill-rule="evenodd"
        stroke="#21231e"
        stroke-linejoin="round"
        stroke-width=".03"
      /><path
        d="m18.58,13.06s-.03.06-.05.07c-.03.02-.06.01-.1,0-.14-.05-.14.06-.1.18.02.06.08.12.1.17.03.05.02.09.03.1.05,0,.09.01.11.02.02,0,.06,0,.11.01.02,0,.03-.04.07-.08.05-.04.12-.08.17-.13.09-.1.13-.19,0-.19-.03,0-.07,0-.08-.03-.01-.02,0-.03-.01-.08,0-.04-.02-.06-.04-.08-.02-.02-.04-.02-.07-.02-.02,0-.04-.02-.07,0-.03.01-.05.03-.08.06Z"
        fill="#edb92e"
        fill-rule="evenodd"
        stroke="#21231e"
        stroke-linejoin="round"
        stroke-width=".03"
      /><path
        d="m18.37,13.11s.01.08.03.12c.03.06.1.04.18-.02.02-.02.06-.02.1-.02.03,0,.07.02.08.04.04.07.1.11.15.07.03-.03.06-.06.08-.1-.01,0-.03,0-.06,0-.03,0-.07,0-.08-.03-.01-.02,0-.03-.01-.08,0-.04-.02-.06-.04-.08-.02-.02-.04-.02-.07-.02-.02,0-.04-.02-.07,0-.03.01-.05.03-.08.06-.04.05-.03.06-.05.07-.03.02-.06.01-.1,0-.03,0-.05-.01-.06-.01Z"
        fill="#edb92e"
        fill-rule="evenodd"
        stroke="#21231e"
        stroke-linejoin="round"
        stroke-width=".03"
      /><path
        d="m19.12,13.65s-.03-.02-.03-.04c0-.02,0-.05.02-.09.07-.13,0-.12-.1-.07-.02.01-.05.04-.08.06-.03.02-.06.05-.08.06-.05.03-.08.03-.09.05-.02.05-.04.1-.05.12,0,.02-.02.06-.04.12,0,.01.03.02.05.05.02.04.04.1.06.13.04.05.07.07.09.07.03,0,.04-.04.05-.12,0-.03.02-.06.04-.08.02-.02.02,0,.06-.03.03-.01.05-.03.07-.05.02-.02.02-.04.03-.06,0-.02.02-.04.02-.06,0-.02,0-.04-.02-.06Z"
        fill="#edb92e"
        fill-rule="evenodd"
        stroke="#21231e"
        stroke-linejoin="round"
        stroke-width=".03"
      /><path
        d="m19.13,13.44s-.05.02-.08.05c-.02.02-.04.05-.04.08,0,.03,0,.07,0,.11,0,.02,0,.06-.02.1-.01.04-.03.08-.06.1-.07.07-.12.14-.1.18.01.03.02.04.04.05,0-.02.03-.03.03-.06,0-.04.02-.07.04-.1.02-.02.02-.04.06-.06.03-.02.05,0,.07-.03.04-.04.08-.15.04-.2-.05-.05-.06-.07-.02-.16.01-.03.01-.05.02-.07Z"
        fill="#edb92e"
        fill-rule="evenodd"
        stroke="#21231e"
        stroke-linejoin="round"
        stroke-width=".03"
      /><path
        d="m17.93,13.78s.05.02.06.04c.01.02,0,.06,0,.09-.04.13.04.12.14.07.05-.03.11-.09.15-.12.04-.03.08-.03.09-.05.01-.05.02-.1.03-.12,0-.02.01-.07.03-.12,0-.02-.04-.02-.07-.07-.03-.04-.06-.13-.1-.17-.08-.08-.16-.12-.17.04,0,.04,0,.08-.03.1-.02.02-.02,0-.07.03-.03.01-.05.03-.07.06-.02.02-.01.05-.02.07,0,.03-.01.05,0,.07,0,.02.03.05.05.07Z"
        fill="#edb92e"
        fill-rule="evenodd"
        stroke="#21231e"
        stroke-linejoin="round"
        stroke-width=".03"
      /><path
        d="m17.96,13.98s.06-.02.09-.04c.05-.04.03-.11,0-.18-.01-.02-.01-.06,0-.1,0-.04.02-.07.04-.09.07-.06.11-.13.07-.18-.02-.03-.05-.05-.08-.07,0,.02,0,.04-.01.07,0,.04,0,.08-.03.1-.02.02-.02,0-.07.03-.03.01-.05.03-.07.06-.02.02-.01.05-.02.07,0,.02-.02.05,0,.07,0,.02.03.05.05.07.04.03.05.02.06.04.01.02,0,.06,0,.09,0,.03-.01.05-.01.06h0Z"
        fill="#edb92e"
        fill-rule="evenodd"
        stroke="#21231e"
        stroke-linejoin="round"
        stroke-width=".03"
      /><path
        d="m18.63,15.25l-.62-.36-.66.28.62.36.66-.28Z"
        fill="#edb92e"
        fill-rule="evenodd"
        stroke="#21231e"
        stroke-linecap="round"
        stroke-width=".03"
      /><path
        d="m19.38,15l-.67.26.55.36c.14-.05.26-.53.12-.62h0Z"
        fill="#edb92e"
        fill-rule="evenodd"
        stroke="#21231e"
        stroke-linecap="round"
        stroke-width=".03"
      /><path
        d="m16.76,13.64c.1.01.19.05.27.12-.05-.08-.15-.13-.27-.14v.03Z"
        fill="#21231e"
        fill-rule="evenodd"
        stroke-width="0"
      /><path
        d="m16.76,13.55c.1-.01.19-.05.27-.12-.05.08-.15.13-.27.14v-.03Z"
        fill="#21231e"
        fill-rule="evenodd"
        stroke-width="0"
      /><path
        d="m19.94,13.77c.04-.06.05-.12.04-.17.04.05.03.11-.02.18h-.02Z"
        fill="#21231e"
        fill-rule="evenodd"
        stroke-width="0"
      /><path
        d="m18.62,13.59c.04-.1.1-.19.18-.27-.08.05-.15.14-.2.27h.02Z"
        fill="#21231e"
        fill-rule="evenodd"
        stroke-width="0"
      /><path
        d="m18.54,13.58c.01-.11,0-.21-.05-.3.06.07.08.17.06.31h-.02Z"
        fill="#21231e"
        fill-rule="evenodd"
        stroke-width="0"
      /><path
        d="m18.69,13.81c.08.02.13.07.17.14-.02-.08-.07-.14-.16-.16v.02Z"
        fill="#21231e"
        fill-rule="evenodd"
        stroke-width="0"
      /><path
        d="m18.73,13.71c.09,0,.17-.05.26-.11-.08.08-.17.12-.27.13v-.02Z"
        fill="#21231e"
        fill-rule="evenodd"
        stroke-width="0"
      /><path
        d="m18.38,13.66c-.09-.02-.16-.07-.22-.15.03.09.11.14.22.18v-.03Z"
        fill="#21231e"
        fill-rule="evenodd"
        stroke-width="0"
      /><path
        d="m18.36,13.75c-.09,0-.18.03-.26.09.06-.07.15-.11.27-.11v.02Z"
        fill="#21231e"
        fill-rule="evenodd"
        stroke-width="0"
      /><path
        d="m17.98,15.4c.16.01.29-.07.29-.17,0-.11-.11-.2-.27-.21-.16-.01-.29.07-.29.17,0,.11.11.2.27.21Z"
        fill="#c6363c"
        fill-rule="evenodd"
        stroke="#21231e"
        stroke-width=".03"
      /><path
        d="m18.59,13.51c-.11,0-.22.09-.24.21-.02.12.06.21.17.21.11,0,.21-.09.23-.2.02-.12-.05-.22-.16-.22Z"
        fill="#edb92e"
        fill-rule="evenodd"
        stroke="#21231e"
        stroke-linejoin="round"
        stroke-width=".03"
      /><path
        d="m18.58,13.57c-.08,0-.16.07-.17.15-.01.09.04.16.13.16.08,0,.16-.06.17-.15.01-.09-.04-.16-.12-.16Z"
        fill="#edb92e"
        fill-rule="evenodd"
        stroke="#21231e"
        stroke-linejoin="round"
        stroke-width=".03"
      /><path
        d="m19.92,13.87c-.07-.03-.18.14-.08.18.06.03.11,0,.13-.06.02-.05,0-.1-.05-.12Z"
        fill="#0c4076"
        fill-rule="evenodd"
        stroke="#21231e"
        stroke-width=".03"
      /><path
        d="m19.36,15.11c-.16-.02-.3.06-.31.16-.01.11.11.2.27.22.11.01.17-.06.18-.16.01-.11-.03-.21-.14-.22Z"
        fill="#0c4076"
        fill-rule="evenodd"
        stroke="#21231e"
        stroke-width=".03"
      /><path
        d="m18.57,13.63c-.05,0-.1.04-.11.1,0,.05.03.1.08.1.05,0,.1-.04.11-.09,0-.05-.02-.1-.08-.1Z"
        fill="#0c4076"
        fill-rule="evenodd"
        stroke="#21231e"
        stroke-width=".03"
      /><path
        d="m13.76,11.92l-.78.36-.08.33.31.47-.03.39h-.25l-.42-1.11.53-.44,1.22-.42-.5.42Z"
        fill="#edb92e"
        fill-rule="evenodd"
        stroke="#21231e"
        stroke-linejoin="round"
        stroke-width=".03"
      /><path
        d="m13.16,13.43s-.03-.09-.03-.13c-.02-.08,0-.15.02-.23-.08-.12-.18-.24-.24-.37-.05-.09-.08-.19-.06-.29.03-.11.12-.18.21-.25.1-.08.24-.15.38-.21.31-.13.56-.19.74-.2l-.11.11c-.34.11-.73.25-.92.4-.25.19-.24.24.12.74.01.02.04.06.03.07-.02.04-.05.2,0,.32-.03.06-.08.03-.12.03h0Z"
        fill="#edb92e"
        fill-rule="evenodd"
        stroke="#21231e"
        stroke-linejoin="round"
        stroke-width=".03"
      /><path
        d="m15.5,13.12c.1,0,.07.16.05.2-.02.05-.05.05-.08,0-.02-.04-.07-.2.03-.21Z"
        fill="#edb92e"
        fill-rule="evenodd"
        stroke="#21231e"
        stroke-linejoin="round"
        stroke-width=".03"
      /><path
        d="m13.69,13.36c.09-.03.11.14.1.18-.01.05-.03.06-.08.02-.03-.03-.12-.18-.02-.21Z"
        fill="#edb92e"
        fill-rule="evenodd"
        stroke="#21231e"
        stroke-linejoin="round"
        stroke-width=".03"
      /><path
        d="m14.12,11.71c-.1,0-.18-.08-.18-.18s.08-.18.18-.18.18.08.18.18-.08.18-.18.18Z"
        fill="#fff"
        fill-rule="evenodd"
        stroke="#21231e"
        stroke-linejoin="round"
        stroke-width=".03"
      /><path
        d="m13.78,11.82c-.1,0-.18-.08-.18-.18s.08-.18.18-.18.18.08.18.18-.08.18-.18.18Z"
        fill="#fff"
        fill-rule="evenodd"
        stroke="#21231e"
        stroke-linejoin="round"
        stroke-width=".03"
      /><path
        d="m13.45,11.93c-.1,0-.18-.08-.18-.18s.08-.18.18-.18.18.08.18.18-.08.18-.18.18Z"
        fill="#fff"
        fill-rule="evenodd"
        stroke="#21231e"
        stroke-linejoin="round"
        stroke-width=".03"
      /><path
        d="m13.11,12.08c-.1,0-.18-.08-.18-.18s.08-.18.18-.18.18.08.18.18-.08.18-.18.18Z"
        fill="#fff"
        fill-rule="evenodd"
        stroke="#21231e"
        stroke-linejoin="round"
        stroke-width=".03"
      /><path
        d="m12.8,12.26c-.1,0-.18-.08-.18-.18s.08-.18.18-.18.18.08.18.18-.08.18-.18.18Z"
        fill="#fff"
        fill-rule="evenodd"
        stroke="#21231e"
        stroke-linejoin="round"
        stroke-width=".03"
      /><path
        d="m12.94,13.51c-.1,0-.18-.08-.18-.18s.08-.18.18-.18.18.08.18.18-.08.18-.18.18Z"
        fill="#fff"
        fill-rule="evenodd"
        stroke="#21231e"
        stroke-linejoin="round"
        stroke-width=".03"
      /><path
        d="m12.77,13.21c-.1,0-.18-.08-.18-.18s.08-.18.18-.18.18.08.18.18-.08.18-.18.18Z"
        fill="#fff"
        fill-rule="evenodd"
        stroke="#21231e"
        stroke-linejoin="round"
        stroke-width=".03"
      /><path
        d="m12.63,12.9c-.1,0-.18-.08-.18-.18s.08-.18.18-.18.18.08.18.18-.08.18-.18.18Z"
        fill="#fff"
        fill-rule="evenodd"
        stroke="#21231e"
        stroke-linejoin="round"
        stroke-width=".03"
      /><path
        d="m12.57,12.54c-.1,0-.18-.08-.18-.18s.08-.18.18-.18.18.08.18.18-.08.18-.18.18Z"
        fill="#fff"
        fill-rule="evenodd"
        stroke="#21231e"
        stroke-linejoin="round"
        stroke-width=".03"
      /><path
        d="m15.9,15.48s-.09-.04-.09-.09.04-.09.09-.09.09.04.09.09-.04.09-.09.09Z"
        fill="#fff"
        fill-rule="evenodd"
        stroke="#21231e"
        stroke-linejoin="round"
        stroke-width=".03"
      /><path
        d="m14.52,15.56s-.09-.04-.09-.09.04-.09.09-.09.09.04.09.09-.04.09-.09.09Z"
        fill="#fff"
        fill-rule="evenodd"
        stroke="#21231e"
        stroke-linejoin="round"
        stroke-width=".03"
      /><path
        d="m14.46,15.14s-.09-.04-.09-.09.04-.09.09-.09.09.04.09.09-.04.09-.09.09Z"
        fill="#fff"
        fill-rule="evenodd"
        stroke="#21231e"
        stroke-linejoin="round"
        stroke-width=".03"
      /><path
        d="m15.87,15.06s-.09-.04-.09-.09.04-.09.09-.09.09.04.09.09-.04.09-.09.09Z"
        fill="#fff"
        fill-rule="evenodd"
        stroke="#21231e"
        stroke-linejoin="round"
        stroke-width=".03"
      /><path
        d="m15.45,13.69c-.06-.08-.16-.47.06-.49.23-.01.17.39.13.47-.06.11-.12.12-.19.01Z"
        fill="#fff"
        fill-rule="evenodd"
        stroke="#21231e"
        stroke-linejoin="round"
        stroke-width=".03"
      /><path
        d="m13.95,13.88c-.03.12-.08.14-.18.05-.08-.07-.27-.41-.06-.48.22-.07.26.33.23.43Z"
        fill="#fff"
        fill-rule="evenodd"
        stroke="#21231e"
        stroke-linejoin="round"
        stroke-width=".03"
      /><path
        d="m16.12,11.39l-.99.03-.62.19-.17.39.45.86-.2.56-.59-.5-.28-1.03.76-.64,1.6-.11.03.25Z"
        fill="#edb92e"
        fill-rule="evenodd"
        stroke="#21231e"
        stroke-linejoin="round"
        stroke-width=".03"
      /><path
        d="m16.07,11.33c-.49-.04-.98,0-1.47.2-.41.16-.37.64.13,1.3-.05.08-.07.19-.08.31.05,0,.09,0,.14,0-.04-.08,0-.18.05-.25.03-.05.04-.04,0-.09-.3-.42-.5-.78-.38-1,.14-.27.69-.41,1.62-.39,0-.02,0-.05,0-.07,0,0,0,0,0-.01Z"
        fill="#edb92e"
        fill-rule="evenodd"
        stroke="#21231e"
        stroke-linejoin="round"
        stroke-width=".03"
      /><path
        d="m14.1,11.5s.03.05.05.07c-.27.15-.39.31-.36.46,0,.03.09.32.27.88.13.09.22.16.28.23,0,0,.02.03.01.04.02.09-.08.07-.14.05-.03-.08-.13-.17-.18-.21-.01,0-.05-.03-.06-.04-.1-.32-.2-.61-.28-.88-.09-.27.1-.47.4-.6h0Z"
        fill="#edb92e"
        fill-rule="evenodd"
        stroke="#21231e"
        stroke-linejoin="round"
        stroke-width=".03"
      /><path
        d="m15.95,11.29c-.1,0-.18-.08-.18-.18s.08-.18.18-.18.18.08.18.18-.08.18-.18.18Z"
        fill="#fff"
        fill-rule="evenodd"
        stroke="#21231e"
        stroke-linejoin="round"
        stroke-width=".03"
      /><path
        d="m15.6,11.29c-.1,0-.18-.08-.18-.18s.08-.18.18-.18.18.08.18.18-.08.18-.18.18Z"
        fill="#fff"
        fill-rule="evenodd"
        stroke="#21231e"
        stroke-linejoin="round"
        stroke-width=".03"
      /><path
        d="m15.25,11.33c-.1,0-.18-.08-.18-.18s.08-.18.18-.18.18.08.18.18-.08.18-.18.18Z"
        fill="#fff"
        fill-rule="evenodd"
        stroke="#21231e"
        stroke-linejoin="round"
        stroke-width=".03"
      /><path
        d="m14.91,11.4c-.1,0-.18-.08-.18-.18s.08-.18.18-.18.18.08.18.18-.08.18-.18.18Z"
        fill="#fff"
        fill-rule="evenodd"
        stroke="#21231e"
        stroke-linejoin="round"
        stroke-width=".03"
      /><path
        d="m14.57,11.51c-.1,0-.18-.08-.18-.18s.08-.18.18-.18.18.08.18.18-.08.18-.18.18Z"
        fill="#fff"
        fill-rule="evenodd"
        stroke="#21231e"
        stroke-linejoin="round"
        stroke-width=".03"
      /><path
        d="m14.26,11.65c-.1,0-.18-.08-.18-.18s.08-.18.18-.18.18.08.18.18-.08.18-.18.18Z"
        fill="#fff"
        fill-rule="evenodd"
        stroke="#21231e"
        stroke-linejoin="round"
        stroke-width=".03"
      /><path
        d="m14.07,11.87c-.1,0-.18-.08-.18-.18s.08-.18.18-.18.18.08.18.18-.08.18-.18.18Z"
        fill="#fff"
        fill-rule="evenodd"
        stroke="#21231e"
        stroke-linejoin="round"
        stroke-width=".03"
      /><path
        d="m14.43,13.15c-.1,0-.18-.08-.18-.18s.08-.18.18-.18.18.08.18.18-.08.18-.18.18Z"
        fill="#fff"
        fill-rule="evenodd"
        stroke="#21231e"
        stroke-linejoin="round"
        stroke-width=".03"
      /><path
        d="m14.29,12.85c-.1,0-.18-.08-.18-.18s.08-.18.18-.18.18.08.18.18-.08.18-.18.18Z"
        fill="#fff"
        fill-rule="evenodd"
        stroke="#21231e"
        stroke-linejoin="round"
        stroke-width=".03"
      /><path
        d="m14.15,12.54c-.1,0-.18-.08-.18-.18s.08-.18.18-.18.18.08.18.18-.08.18-.18.18Z"
        fill="#fff"
        fill-rule="evenodd"
        stroke="#21231e"
        stroke-linejoin="round"
        stroke-width=".03"
      /><path
        d="m14.04,12.21c-.1,0-.18-.08-.18-.18s.08-.18.18-.18.18.08.18.18-.08.18-.18.18Z"
        fill="#fff"
        fill-rule="evenodd"
        stroke="#21231e"
        stroke-linejoin="round"
        stroke-width=".03"
      /><path
        d="m13.08,13.53v.06c-.09.02-.16.02-.21.01.09-.09.16-.11.21-.07Z"
        fill="#edb92e"
        fill-rule="evenodd"
        stroke="#21231e"
        stroke-linejoin="round"
        stroke-width=".03"
      /><path
        d="m13.05,13.4s.05.02.08.02c.03,0,.07,0,.09-.02.11-.06.11.05.07.14-.03.06-.06.14-.03.2.03.06.03.09,0,.11-.02.01-.03.02-.05.03-.03.03-.05.03-.06-.02-.11-.04-.1-.16-.13-.25-.05-.13-.22-.16.02-.22Z"
        fill="#edb92e"
        fill-rule="evenodd"
        stroke="#21231e"
        stroke-linejoin="round"
        stroke-width=".03"
      /><path
        d="m13.11,13.4c.09.03.1-.02.17-.02-.02.14-.05.22-.2.14-.08-.04-.19.02-.21.07,0,.02-.06-.02-.07-.06-.07-.16.19-.18.31-.13Z"
        fill="#edb92e"
        fill-rule="evenodd"
        stroke="#21231e"
        stroke-linejoin="round"
        stroke-width=".03"
      /><path
        d="m13.44,14.09c.07-.02.17.13.2.13.03-.09-.03-.29-.16-.45-.08-.03-.09-.08-.11-.2,0-.04-.08-.01-.08.05,0,.07,0,.1,0,.16,0,.02,0,.04-.02.06.13.05.16.11.15.25Z"
        fill="#edb92e"
        fill-rule="evenodd"
        stroke="#21231e"
        stroke-linejoin="round"
        stroke-width=".03"
      /><path
        d="m13.38,13.57s-.02.05-.02.09c0,.03,0,.06.03.09.02.03.05.05.08.07.02.01.04.05.06.08.02.04.03.08.03.11,0,.1.02.19.07.2.03.01.04,0,.07,0,0-.02,0-.04-.02-.07-.02-.03-.04-.07-.04-.1,0-.03-.01-.04,0-.09,0-.03.03-.04.02-.07,0-.06-.05-.17-.12-.17s-.1,0-.13-.09c-.01-.03-.03-.04-.04-.06h0Z"
        fill="#edb92e"
        fill-rule="evenodd"
        stroke="#21231e"
        stroke-linejoin="round"
        stroke-width=".03"
      /><path
        d="m13.13,13.81s.04-.02.06-.03c.03-.01.07-.02.11,0,.16.05.23.32.05.39-.03,0-.07-.03-.1-.09-.04-.09-.07-.15-.12-.19-.03-.03-.03-.06,0-.07Z"
        fill="#edb92e"
        fill-rule="evenodd"
        stroke="#21231e"
        stroke-linejoin="round"
        stroke-width=".03"
      /><path
        d="m13.21,13.83c.15-.06.26.23.12.28-.08.03-.08-.06-.1-.12-.02-.07-.17-.11-.02-.17Z"
        fill="#edb92e"
        fill-rule="evenodd"
        stroke="#21231e"
        stroke-linejoin="round"
        stroke-width=".03"
      /><path
        d="m16.35,13c-.08-.14-.16-.23-.24-.27.12-.37.15-.84.08-1.42,0-.09-.03-.12-.06-.12-.03,0-.05.04-.05.14.02.32.05.6.03.84-.01.21-.06.39-.12.59,0,.03.01.05.11.1.07.04.12.09.13.14.02,0,.03,0,.04,0,.07.02.1.01.08,0h0Z"
        fill="#edb92e"
        fill-rule="evenodd"
        stroke="#21231e"
        stroke-linejoin="round"
        stroke-width=".03"
      /><path
        d="m15.9,13.46s.05-.02.07-.04c.02-.02.02-.06.01-.1-.02-.15.07-.13.17-.06.05.03.1.11.14.15.04.04.08.04.09.06,0,.06,0,.1,0,.13,0,.02,0,.07,0,.13-.01.02-.05.02-.09.06-.04.04-.09.11-.14.15-.1.06-.19.09-.17-.06,0-.04,0-.07-.01-.1-.01-.02-.02-.01-.07-.04-.03-.02-.05-.04-.06-.06-.01-.02,0-.05,0-.07s0-.05,0-.07c.01-.02.04-.04.06-.06Z"
        fill="#edb92e"
        fill-rule="evenodd"
        stroke="#21231e"
        stroke-linejoin="round"
        stroke-width=".03"
      /><path
        d="m15.98,13.26s.07.03.1.06c.05.04.02.11-.04.18-.02.02-.03.06-.03.1,0,.04,0,.08.03.1.06.07.09.14.04.18-.03.03-.06.04-.1.06,0-.02,0-.04,0-.07,0-.04,0-.07-.01-.1-.01-.02-.02-.01-.07-.04-.03-.02-.05-.04-.06-.06-.01-.02,0-.05,0-.07s0-.05,0-.07c.01-.02.04-.04.06-.06.04-.03.05-.02.07-.04.02-.02.02-.06.01-.1,0-.03,0-.05,0-.07h0Z"
        fill="#edb92e"
        fill-rule="evenodd"
        stroke="#21231e"
        stroke-linejoin="round"
        stroke-width=".03"
      /><path
        d="m14.56,13.06s.03.06.05.07c.03.02.06.01.1,0,.14-.05.14.06.1.18-.02.06-.08.12-.1.17-.03.05-.02.09-.03.1-.05,0-.09.01-.11.02-.02,0-.06,0-.11.01-.02,0-.03-.04-.07-.08-.05-.04-.12-.08-.17-.13-.09-.1-.13-.19,0-.19.03,0,.07,0,.08-.03.01-.02,0-.03.01-.08,0-.04.02-.06.04-.08.02-.02.04-.02.07-.02.02,0,.04-.02.07,0,.03.01.05.03.08.06Z"
        fill="#edb92e"
        fill-rule="evenodd"
        stroke="#21231e"
        stroke-linejoin="round"
        stroke-width=".03"
      /><path
        d="m14.78,13.11s-.01.08-.03.12c-.03.06-.1.04-.18-.02-.02-.02-.06-.02-.1-.02-.03,0-.07.02-.08.04-.05.07-.1.11-.15.07-.03-.03-.06-.06-.08-.1.01,0,.03,0,.06,0,.03,0,.07,0,.08-.03.01-.02,0-.03.01-.08,0-.04.02-.06.04-.08.02-.02.04-.02.07-.02.02,0,.04-.02.07,0,.03.01.05.03.08.06.04.05.03.06.05.07.03.02.06.01.1,0,.03,0,.05-.01.06-.01Z"
        fill="#edb92e"
        fill-rule="evenodd"
        stroke="#21231e"
        stroke-linejoin="round"
        stroke-width=".03"
      /><path
        d="m14.03,13.64s.03-.02.03-.04c0-.02,0-.05-.02-.09-.07-.13,0-.12.1-.07.02.01.05.04.08.06.03.02.06.05.08.06.05.03.08.03.09.05.02.05.04.1.05.12,0,.02.02.06.04.12,0,.01-.03.02-.05.06-.02.04-.04.1-.06.13-.04.05-.07.07-.09.07-.03,0-.04-.04-.05-.12,0-.03-.02-.06-.04-.08-.02-.02-.02,0-.06-.03-.03-.01-.05-.03-.07-.05-.02-.02-.02-.04-.03-.06,0-.02-.02-.04-.02-.06,0-.02,0-.04.02-.06Z"
        fill="#edb92e"
        fill-rule="evenodd"
        stroke="#21231e"
        stroke-linejoin="round"
        stroke-width=".03"
      /><path
        d="m14.02,13.44s.05.02.08.05c.02.02.04.05.04.08,0,.03,0,.07,0,.11,0,.02,0,.06.02.1.01.04.03.08.06.1.07.07.12.14.1.18-.01.03-.02.04-.04.05,0-.02-.03-.03-.03-.06,0-.04-.02-.07-.04-.1-.02-.02-.02-.04-.06-.06-.03-.02-.05,0-.07-.03-.04-.04-.08-.15-.04-.2.05-.05.06-.07.02-.16-.01-.03-.01-.05-.02-.07Z"
        fill="#edb92e"
        fill-rule="evenodd"
        stroke="#21231e"
        stroke-linejoin="round"
        stroke-width=".03"
      /><path
        d="m15.22,13.78s-.05.02-.05.04c-.01.02,0,.06,0,.09.04.13-.04.12-.14.07-.05-.03-.11-.09-.15-.12-.04-.03-.08-.03-.09-.05-.01-.05-.02-.1-.03-.12,0-.02-.01-.07-.02-.12,0-.02.04-.02.07-.07.03-.04.06-.13.1-.17.08-.08.16-.12.17.04,0,.04,0,.08.03.1.02.02.02,0,.07.03.03.01.05.03.07.06.02.02.01.05.02.07,0,.02.01.05,0,.07,0,.02-.03.05-.05.07Z"
        fill="#edb92e"
        fill-rule="evenodd"
        stroke="#21231e"
        stroke-linejoin="round"
        stroke-width=".03"
      /><path
        d="m15.18,13.98s-.06-.02-.09-.04c-.05-.04-.03-.11,0-.18.01-.02.01-.06,0-.1,0-.04-.02-.07-.04-.09-.07-.06-.11-.13-.07-.18.02-.03.05-.05.08-.07,0,.02,0,.04.01.07,0,.04,0,.08.03.1.02.02.02,0,.07.03.03.01.05.03.07.06.02.02.01.05.02.07,0,.02.02.05,0,.07,0,.02-.03.05-.05.07-.04.03-.05.02-.06.04-.01.02,0,.06,0,.09,0,.03.01.05.01.06h0Z"
        fill="#edb92e"
        fill-rule="evenodd"
        stroke="#21231e"
        stroke-linejoin="round"
        stroke-width=".03"
      /><path
        d="m14.51,15.25l.62-.36.66.28-.62.36-.66-.28Z"
        fill="#edb92e"
        fill-rule="evenodd"
        stroke="#21231e"
        stroke-linecap="round"
        stroke-width=".03"
      /><path
        d="m13.76,15l.67.26-.55.36c-.14-.05-.26-.53-.12-.62h0Z"
        fill="#edb92e"
        fill-rule="evenodd"
        stroke="#21231e"
        stroke-linecap="round"
        stroke-width=".03"
      /><path
        d="m16.38,13.64c-.1.01-.19.05-.27.12.05-.08.15-.13.27-.14v.02Z"
        fill="#21231e"
        fill-rule="evenodd"
        stroke-width="0"
      /><path
        d="m16.38,13.55c-.1-.01-.19-.05-.27-.12.05.08.15.13.27.14v-.02Z"
        fill="#21231e"
        fill-rule="evenodd"
        stroke-width="0"
      /><path
        d="m13.2,13.77c-.04-.06-.05-.12-.04-.17-.04.05-.03.11.02.18h.02Z"
        fill="#21231e"
        fill-rule="evenodd"
        stroke-width="0"
      /><path
        d="m14.52,13.6c-.04-.1-.1-.19-.18-.27.08.05.15.14.2.27h-.02Z"
        fill="#21231e"
        fill-rule="evenodd"
        stroke-width="0"
      /><path
        d="m14.6,13.58c-.01-.11,0-.21.05-.3-.06.07-.08.17-.06.31h.02Z"
        fill="#21231e"
        fill-rule="evenodd"
        stroke-width="0"
      /><path
        d="m14.45,13.81c-.08.02-.13.07-.17.14.02-.08.07-.14.16-.16v.02Z"
        fill="#21231e"
        fill-rule="evenodd"
        stroke-width="0"
      /><path
        d="m14.41,13.71c-.09,0-.17-.05-.26-.11.08.08.17.12.27.13v-.03Z"
        fill="#21231e"
        fill-rule="evenodd"
        stroke-width="0"
      /><path
        d="m14.76,13.66c.09-.02.16-.07.22-.15-.03.09-.11.14-.22.18v-.02Z"
        fill="#21231e"
        fill-rule="evenodd"
        stroke-width="0"
      /><path
        d="m14.78,13.75c.09,0,.18.03.26.09-.06-.07-.15-.11-.27-.11v.02Z"
        fill="#21231e"
        fill-rule="evenodd"
        stroke-width="0"
      /><path
        d="m15.16,15.4c-.16.01-.29-.07-.29-.17,0-.11.11-.2.27-.21.15-.01.29.07.29.17,0,.11-.11.2-.27.21Z"
        fill="#c6363c"
        fill-rule="evenodd"
        stroke="#21231e"
        stroke-width=".03"
      /><path
        d="m14.56,13.51c.11,0,.22.09.24.21.02.12-.06.21-.17.21s-.21-.09-.23-.2c-.02-.12.05-.22.16-.22Z"
        fill="#edb92e"
        fill-rule="evenodd"
        stroke="#21231e"
        stroke-linejoin="round"
        stroke-width=".03"
      /><path
        d="m14.56,13.57c.08,0,.16.07.17.15.01.09-.04.16-.13.16-.08,0-.16-.06-.17-.15-.01-.09.04-.16.12-.16Z"
        fill="#edb92e"
        fill-rule="evenodd"
        stroke="#21231e"
        stroke-linejoin="round"
        stroke-width=".03"
      /><path
        d="m13.23,13.87c.07-.03.18.14.08.18-.06.03-.11,0-.13-.06-.02-.05,0-.1.05-.12Z"
        fill="#0c4076"
        fill-rule="evenodd"
        stroke="#21231e"
        stroke-width=".03"
      /><path
        d="m13.78,15.11c.16-.02.3.06.31.16.01.11-.11.2-.27.22-.11.01-.17-.06-.18-.16-.01-.11.03-.21.14-.22Z"
        fill="#0c4076"
        fill-rule="evenodd"
        stroke="#21231e"
        stroke-width=".03"
      /><path
        d="m14.57,13.63c.05,0,.1.04.11.1,0,.05-.03.1-.08.1-.05,0-.1-.04-.11-.09,0-.05.02-.1.08-.1Z"
        fill="#0c4076"
        fill-rule="evenodd"
        stroke="#21231e"
        stroke-width=".03"
      /><path
        d="m16.57,12.93c.1,0,.18-.08.18-.18s-.08-.18-.18-.18-.18.08-.18.18.08.18.18.18Z"
        fill="#fff"
        fill-rule="evenodd"
        stroke="#21231e"
        stroke-linejoin="round"
        stroke-width=".03"
      /><path
        d="m16.57,12.59c.1,0,.18-.08.18-.18s-.08-.18-.18-.18-.18.08-.18.18.08.18.18.18Z"
        fill="#fff"
        fill-rule="evenodd"
        stroke="#21231e"
        stroke-linejoin="round"
        stroke-width=".03"
      /><path
        d="m16.57,12.28c.1,0,.18-.08.18-.18s-.08-.18-.18-.18-.18.08-.18.18.08.18.18.18Z"
        fill="#fff"
        fill-rule="evenodd"
        stroke="#21231e"
        stroke-linejoin="round"
        stroke-width=".03"
      /><path
        d="m16.57,11.37c.1,0,.18-.08.18-.18s-.08-.18-.18-.18-.18.08-.18.18.08.18.18.18Z"
        fill="#fff"
        fill-rule="evenodd"
        stroke="#21231e"
        stroke-linejoin="round"
        stroke-width=".03"
      /><path
        d="m16.57,11.65c.1,0,.18-.08.18-.18s-.08-.18-.18-.18-.18.08-.18.18.08.18.18.18Z"
        fill="#fff"
        fill-rule="evenodd"
        stroke="#21231e"
        stroke-linejoin="round"
        stroke-width=".03"
      /><path
        d="m16.57,11.96c.1,0,.18-.08.18-.18s-.08-.18-.18-.18-.18.08-.18.18.08.18.18.18Z"
        fill="#fff"
        fill-rule="evenodd"
        stroke="#21231e"
        stroke-linejoin="round"
        stroke-width=".03"
      /><path
        d="m16.57,12.86s.05,0,.07,0c.02.01.05.04.06.06.03.04.02.06.04.07.03.01.06.02.1.01.15-.02.13.06.06.16-.03.05-.11.1-.15.14-.04.04-.04.08-.06.09h-.25s-.02-.05-.06-.09c-.04-.04-.12-.09-.15-.14-.07-.1-.08-.19.06-.16.04,0,.07,0,.1-.01.02-.01.01-.03.04-.07.02-.03.04-.05.06-.06.02-.01.05,0,.07,0Z"
        fill="#edb92e"
        fill-rule="evenodd"
        stroke="#21231e"
        stroke-linejoin="round"
        stroke-width=".03"
      /><path
        d="m16.62,13.41c.01-.1.05-.19.12-.27-.08.05-.13.14-.15.27h.03Z"
        fill="#21231e"
        fill-rule="evenodd"
        stroke-width="0"
      /><path
        d="m16.53,13.41c-.01-.1-.05-.19-.12-.27.08.05.13.14.15.27h-.03Z"
        fill="#21231e"
        fill-rule="evenodd"
        stroke-width="0"
      /><path
        d="m16.57,12.86s.05,0,.07,0,.05.04.06.06c.03.04.02.06.04.07.03.01.06.02.1.01.03,0,.05,0,.07,0-.01.03-.03.07-.06.1-.04.04-.1.01-.19-.04-.03-.02-.06-.03-.1-.03s-.07,0-.1.03c-.08.06-.14.09-.19.04-.03-.03-.04-.07-.06-.1.02,0,.04,0,.07,0,.04,0,.07,0,.1-.01.02-.01.01-.03.04-.07.02-.03.04-.05.06-.06.02-.01.05,0,.07,0Z"
        fill="#edb92e"
        fill-rule="evenodd"
        stroke="#21231e"
        stroke-linejoin="round"
        stroke-width=".03"
      /><path
        d="m16.57,13.38c.12,0,.22.1.22.22s-.1.22-.22.22-.22-.1-.22-.22.1-.22.22-.22Z"
        fill="#edb92e"
        fill-rule="evenodd"
        stroke="#21231e"
        stroke-linejoin="round"
        stroke-width=".03"
      /><path
        d="m19.33,15.74c0-.05-.05-.08-.14-.09-1.75-.14-3.49-.14-5.24,0-.09,0-.14.04-.14.09s.05.08.14.09c1.75.14,3.49.14,5.24,0,.09,0,.14-.04.14-.09Z"
        fill="#edb92e"
        fill-rule="evenodd"
        stroke="#21231e"
        stroke-linejoin="round"
        stroke-width=".03"
      /><path
        d="m16.57,13.81c.12,0,.22-.1.22-.21s-.1-.21-.22-.21-.22.1-.22.21.1.21.22.21Z"
        fill="#edb92e"
        fill-rule="evenodd"
        stroke="#21231e"
        stroke-linejoin="round"
        stroke-width=".03"
      /><path
        d="m16.57,13.75c.09,0,.16-.07.16-.16s-.07-.16-.16-.16-.16.07-.16.16.07.16.16.16Z"
        fill="#edb92e"
        fill-rule="evenodd"
        stroke="#21231e"
        stroke-linejoin="round"
        stroke-width=".03"
      /><path
        d="m16.57,15.36c.16,0,.28-.09.28-.19s-.13-.19-.28-.19-.28.09-.28.19.13.19.28.19Z"
        fill="#0c4076"
        fill-rule="evenodd"
        stroke="#21231e"
        stroke-width=".03"
      /><path
        d="m16.57,13.7c.06,0,.1-.05.1-.1s-.05-.1-.1-.1-.1.05-.1.1.05.1.1.1Z"
        fill="#0c4076"
        fill-rule="evenodd"
        stroke="#21231e"
        stroke-width=".03"
      /><path
        d="m15.25,15.83c-.2-.01-.41-.03-.65-.06,1.31-.09,2.63-.09,3.94,0-.23.02-.45.04-.65.06"
        fill="none"
        fill-rule="evenodd"
        stroke="#21231e"
        stroke-linecap="round"
        stroke-width=".03"
      /><path
        d="m21.32,15.87v7.63c0,1.25-.56,2.47-1.41,3.36-.84.89-2.03,1.5-3.34,1.5s-2.5-.61-3.34-1.5c-.84-.89-1.41-2.11-1.41-3.36v-7.63h9.5Z"
        fill="#c6363c"
        fill-rule="evenodd"
        stroke="#fff"
        stroke-width=".07"
      /><path
        d="m16.53,27.91s-.11,0-.16-.04c-.07-.05-.04-.27-.04-.41.03-.7.06-1.89.1-3.55.06,0,.1,0,.14,0,.04,0,.08-.01.14,0,.04,1.66.07,2.85.1,3.55,0,.14.03.36-.04.41-.05.04-.12.03-.16.04h-.09Z"
        fill="#fff"
        fill-rule="evenodd"
        stroke="#21231e"
        stroke-linejoin="round"
        stroke-width=".03"
      /><path
        d="m16.08,27.89s.11.01.17-.02c.07-.05.08-.27.09-.41.03-.7.1-1.88.22-3.55-.06-.01-.1-.01-.14-.01,0,0-.01,0-.02,0-.27,1.64-.37,2.81-.55,3.51-.03.1-.08.34,0,.42.05.05.12.04.16.05h.09s0,0,0,0Z"
        fill="#fff"
        fill-rule="evenodd"
        stroke="#21231e"
        stroke-linejoin="round"
        stroke-width=".03"
      /><path
        d="m15.56,27.82s.11.02.17,0c.08-.04.08-.26.11-.4.18-.7.28-1.87.55-3.51-.06-.02-.1-.02-.14-.02-.43,1.6-.55,2.72-.89,3.42-.03.1-.11.35-.03.44.04.05.11.05.15.07l.08.02h0Z"
        fill="#fff"
        fill-rule="evenodd"
        stroke="#21231e"
        stroke-linejoin="round"
        stroke-width=".03"
      /><path
        d="m15.03,27.67s.11.04.17.02c.08-.03.09-.27.15-.39.33-.7.46-1.83.89-3.44-.05-.02-.1-.03-.14-.04-.04-.02-.03-.03-.09-.03-.5,1.59-.66,2.7-1.14,3.38-.08.11-.13.33-.08.4.04.05.11.06.15.08l.08.02h0Z"
        fill="#fff"
        fill-rule="evenodd"
        stroke="#21231e"
        stroke-linejoin="round"
        stroke-width=".03"
      /><path
        d="m17.06,27.89s-.11.01-.17-.02c-.07-.05-.08-.27-.09-.41-.03-.7-.1-1.88-.22-3.55.06-.01.1-.01.14-.01,0,0,.01,0,.02,0,.27,1.64.37,2.81.55,3.51.03.1.08.34,0,.42-.05.05-.12.04-.16.05h-.09s0,0,0,0Z"
        fill="#fff"
        fill-rule="evenodd"
        stroke="#21231e"
        stroke-linejoin="round"
        stroke-width=".03"
      /><path
        d="m17.59,27.82s-.11.02-.17,0c-.08-.04-.08-.26-.11-.4-.18-.7-.28-1.87-.55-3.51.06-.02.1-.02.14-.02.43,1.6.55,2.72.89,3.42.03.1.11.35.03.44-.04.05-.11.05-.15.07l-.08.02h0Z"
        fill="#fff"
        fill-rule="evenodd"
        stroke="#21231e"
        stroke-linejoin="round"
        stroke-width=".03"
      /><path
        d="m18.11,27.67s-.11.04-.17.02c-.08-.03-.09-.27-.15-.39-.33-.7-.46-1.83-.89-3.44.05-.02.1-.03.14-.04.04-.02.03-.03.09-.03.5,1.59.66,2.7,1.14,3.38.08.11.13.33.08.4-.04.05-.11.06-.15.08l-.08.02h0Z"
        fill="#fff"
        fill-rule="evenodd"
        stroke="#21231e"
        stroke-linejoin="round"
        stroke-width=".03"
      /><path
        d="m15.31,26.47s.09.02.15,0c.08-.04.13-.25.17-.39.34-.65.64-1.82,1.14-3.43-.05-.02-.09-.03-.12-.03-.03-.01-.07-.03-.12-.03-.54,1.6-.78,2.75-1.31,3.39-.09.11-.15.33-.11.4.03.05.09.06.13.07l.07.02h0Z"
        fill="#fff"
        fill-rule="evenodd"
        stroke="#21231e"
        stroke-linejoin="round"
        stroke-width=".03"
      /><path
        d="m15.74,26.55s.1.02.15-.01c.07-.04.1-.26.13-.4.14-.7.38-1.86.74-3.5-.05-.02-.09-.02-.13-.02-.03-.01-.07-.02-.13-.02-.42,1.63-.52,2.85-.91,3.48-.07.11-.11.34-.06.41.04.05.1.05.14.06h.08s0,.01,0,.01Z"
        fill="#fff"
        fill-rule="evenodd"
        stroke="#21231e"
        stroke-linejoin="round"
        stroke-width=".03"
      /><path
        d="m16.17,26.6s.1,0,.15-.03c.07-.05.07-.27.08-.41.05-.7.17-1.89.33-3.55-.05-.01-.09-.01-.13,0-.04,0-.07-.02-.13-.01-.23,1.65-.36,2.85-.5,3.53-.03.14-.07.35-.02.41.04.04.11.04.14.05h.08Z"
        fill="#fff"
        fill-rule="evenodd"
        stroke="#21231e"
        stroke-linejoin="round"
        stroke-width=".03"
      /><path
        d="m17.84,26.47s-.09.03-.15,0c-.08-.04-.13-.25-.17-.39-.34-.65-.64-1.82-1.14-3.43.05-.02.09-.03.12-.03.03-.01.07-.03.12-.03.54,1.6.78,2.75,1.31,3.39.09.1.15.33.11.4-.03.05-.09.06-.13.07l-.07.02h0Z"
        fill="#fff"
        fill-rule="evenodd"
        stroke="#21231e"
        stroke-linejoin="round"
        stroke-width=".03"
      /><path
        d="m17.41,26.55s-.1.02-.15-.01c-.07-.04-.1-.26-.13-.4-.14-.7-.38-1.86-.74-3.5.05-.02.09-.02.13-.02.03-.01.07-.02.13-.02.42,1.63.52,2.85.91,3.48.07.11.11.34.06.41-.04.05-.1.05-.13.06h-.08Z"
        fill="#fff"
        fill-rule="evenodd"
        stroke="#21231e"
        stroke-linejoin="round"
        stroke-width=".03"
      /><path
        d="m16.97,26.6s-.1,0-.15-.03c-.07-.05-.07-.27-.08-.41-.05-.7-.17-1.89-.33-3.55.05-.01.09-.01.13,0,.04,0,.07-.02.13-.01.23,1.65.36,2.85.5,3.53.03.14.07.35.02.41-.04.04-.11.04-.14.05h-.08s0,0,0,0Z"
        fill="#fff"
        fill-rule="evenodd"
        stroke="#21231e"
        stroke-linejoin="round"
        stroke-width=".03"
      /><path
        d="m16.53,26.61s-.1,0-.15-.04c-.06-.05-.04-.27-.03-.41.03-.7.06-1.89.09-3.56.05,0,.09,0,.13,0,.04,0,.08-.01.13,0,.03,1.67.06,2.85.09,3.56,0,.14.03.36-.03.41-.05.04-.11.03-.15.04h-.08Z"
        fill="#fff"
        fill-rule="evenodd"
        stroke="#21231e"
        stroke-linejoin="round"
        stroke-width=".03"
      /><path
        d="m15.6,25.5s.07.03.12,0c.06-.04.1-.25.13-.39.26-.65.49-1.82.88-3.43l-.19-.06c-.41,1.6-.6,2.75-1.01,3.39-.07.1-.12.33-.08.4.02.05.07.06.1.07.02,0,.04.01.06.02Z"
        fill="#fff"
        fill-rule="evenodd"
        stroke="#21231e"
        stroke-linejoin="round"
        stroke-width=".03"
      /><path
        d="m15.93,25.58s.07.02.12-.01c.06-.04.08-.26.1-.4.1-.7.29-1.86.57-3.5l-.19-.04c-.32,1.63-.39,2.85-.7,3.48-.06.11-.09.34-.05.41.03.05.08.05.1.06.02,0,.04,0,.06.01h0Z"
        fill="#fff"
        fill-rule="evenodd"
        stroke="#21231e"
        stroke-linejoin="round"
        stroke-width=".03"
      /><path
        d="m16.26,25.63s.08,0,.12-.03c.05-.05.05-.27.06-.41.04-.7.13-1.89.25-3.55l-.2-.02c-.17,1.65-.27,2.85-.38,3.53-.02.14-.06.35-.01.41.03.04.08.04.11.05.02,0,.04,0,.06,0h0Z"
        fill="#fff"
        fill-rule="evenodd"
        stroke="#21231e"
        stroke-linejoin="round"
        stroke-width=".03"
      /><path
        d="m17.54,25.5s-.07.03-.12,0c-.06-.04-.1-.25-.13-.39-.26-.65-.49-1.82-.88-3.43l.19-.06c.41,1.6.6,2.75,1.01,3.39.07.1.12.33.08.4-.02.05-.07.06-.1.07-.02,0-.04.01-.06.02Z"
        fill="#fff"
        fill-rule="evenodd"
        stroke="#21231e"
        stroke-linejoin="round"
        stroke-width=".03"
      /><path
        d="m17.21,25.58s-.07.02-.12-.01c-.06-.04-.08-.26-.1-.4-.1-.7-.29-1.86-.57-3.5l.19-.04c.32,1.63.39,2.85.7,3.48.06.11.09.34.05.41-.03.05-.08.05-.1.06-.02,0-.04,0-.06.01h0Z"
        fill="#fff"
        fill-rule="evenodd"
        stroke="#21231e"
        stroke-linejoin="round"
        stroke-width=".03"
      /><path
        d="m16.88,25.63s-.08,0-.12-.03c-.05-.05-.05-.27-.06-.41-.04-.7-.13-1.89-.25-3.55l.2-.02c.17,1.65.27,2.85.38,3.53.02.14.05.35.01.41-.03.04-.08.04-.11.05-.02,0-.04,0-.06,0h0Z"
        fill="#fff"
        fill-rule="evenodd"
        stroke="#21231e"
        stroke-linejoin="round"
        stroke-width=".03"
      /><path
        d="m16.54,25.65s-.08,0-.11-.04c-.05-.05-.03-.27-.02-.41.02-.7.04-1.89.07-3.56h.2c.03,1.67.05,2.85.07,3.56,0,.14.02.36-.02.41-.04.04-.08.03-.11.04h-.06Z"
        fill="#fff"
        fill-rule="evenodd"
        stroke="#21231e"
        stroke-linejoin="round"
        stroke-width=".03"
      /><path
        d="m17.08,23.48c0,.13-.33,1.54-.51,1.54s-.51-1.41-.51-1.54h1.02Z"
        fill="#fff"
        fill-rule="evenodd"
        stroke="#21231e"
        stroke-linejoin="round"
        stroke-width=".03"
      /><path
        d="m18.88,25.22s.02.02.02.03c.03.08.14.22.22.31.13.13.1.33.01.44-.09.12-.15.26-.17.35-.01.07-.03.21-.02.43,0,.11.08.16.14.21.03.02-.02.09-.12.17-.01,0-.04.02-.06.08,0,0-.05,0-.06,0-.02-.06-.05-.08-.06-.08-.1-.08-.15-.14-.12-.17.06-.05.13-.1.14-.21.02-.22,0-.36-.02-.43-.02-.1-.07-.23-.17-.35-.08-.11-.12-.31.01-.44.08-.08.19-.22.22-.31,0,0,.01-.03.02-.03Z"
        fill="#edb92e"
        fill-rule="evenodd"
        stroke="#21231e"
        stroke-linejoin="round"
        stroke-width=".03"
      /><path
        d="m19.24,26.98c-.23.17-.43-.23-.23-.77.15-.4.88-.23.47.29-.02.03-.05.01-.04-.01.02-.11-.04-.18-.16-.15-.3.06-.31.61.02.49.06,0,0,.11-.05.16Z"
        fill="#edb92e"
        fill-rule="evenodd"
        stroke="#21231e"
        stroke-linejoin="round"
        stroke-width=".03"
      /><path
        d="m18.52,26.98c.23.17.43-.23.23-.77-.15-.4-.88-.23-.47.29.02.03.05.01.04-.01-.02-.11.04-.18.16-.15.3.06.31.61-.02.49-.06,0,0,.11.05.16Z"
        fill="#edb92e"
        fill-rule="evenodd"
        stroke="#21231e"
        stroke-linejoin="round"
        stroke-width=".03"
      /><path
        d="m18.71,26.54s-.05.01-.07.03c-.02.02-.03.04-.03.07s.01.05.03.07c.02.02.04.03.07.03h.34s.05-.01.07-.03c.02-.02.03-.04.03-.07s-.01-.05-.03-.07-.04-.03-.07-.03h-.34Z"
        fill="#edb92e"
        fill-rule="evenodd"
        stroke="#21231e"
        stroke-linejoin="round"
        stroke-width=".03"
      /><path
        d="m19.05,24.06c.14.31.31.58.48.83.08.03.14.07.2.09.06.02.45.01.46-.02.13-.1.32-.01.24.1.06.06-.06.21-.14.14-.08-.07-.37,0-.45-.03.03.08.31.13.48.14.17,0,.14.17.08.31l-.06.03c-.06.11-.22.08-.23-.03,0-.11-.39-.25-.45-.33.06.17.23.33.31.5.08.08.14.08.03.25l-.2.03c-.17,0-.2-.06-.17-.19.03-.14-.1-.39-.14-.46-.03-.07-.04-.14-.08-.17-.06-.08-.36-.21-.43-.17-.14.07-.24.03-.25-.11.03-.03,0-.22.1-.24.08-.01.12.03.19.08.11.09.17.14.21.13.09-.02-.16-.14-.39-.44-.23-.29-.32-.73.19-.43Z"
        fill="#edb92e"
        fill-rule="evenodd"
        stroke="#21231e"
        stroke-linejoin="round"
        stroke-width=".03"
      /><path
        d="m20.43,25.13c.11-.07.18-.06.22-.01.02.03.05.01.04-.03-.08-.18-.19-.2-.3-.11-.03.03-.05.05-.08.07.02.03.11.06.12.08h0Z"
        fill="#edb92e"
        fill-rule="evenodd"
        stroke="#21231e"
        stroke-linejoin="round"
        stroke-width=".03"
      /><path
        d="m18.81,24.97c-.12-.08-.23-.1-.29-.05-.03.02-.07,0-.04-.03.12-.17.27-.18.38-.08.03.03.05.06.08.09-.04.04-.12.09-.13.08h0Z"
        fill="#edb92e"
        fill-rule="evenodd"
        stroke="#21231e"
        stroke-linejoin="round"
        stroke-width=".03"
      /><path
        d="m19.75,25.96s.03-.15.08-.2c.04.03.08.06.12.1.12.12.12.31-.07.46-.05.04-.07,0-.05-.05.03-.08,0-.18-.08-.32Z"
        fill="#edb92e"
        fill-rule="evenodd"
        stroke="#21231e"
        stroke-linejoin="round"
        stroke-width=".03"
      /><path
        d="m20.22,25.58c.11.05.15.1.15.18,0,.04.03.06.04,0,.14-.31,0-.37-.21-.36-.01.05.02.17.02.17Z"
        fill="#edb92e"
        fill-rule="evenodd"
        stroke="#21231e"
        stroke-linejoin="round"
        stroke-width=".03"
      /><path
        d="m18.72,24.28c.05-.05.11-.1.16-.04.05.06.03.12-.05.2.05-.03.11-.14.17-.07.06.08,0,.14-.06.21.06-.05.12-.13.17-.07.06.07,0,.13-.05.18.06-.04.11-.09.15-.05.05.06,0,.1-.05.15.06-.04.1-.09.15-.04.05.05-.01.11-.05.13"
        fill="none"
        fill-rule="evenodd"
        stroke="#21231e"
        stroke-linecap="round"
        stroke-width=".03"
      /><path
        d="m18.73,20.53c0,.24.04,1.85.05,2.08.01.23.12.38.22.47.1-.13.16-.32.17-.53,0-.11-.01-1.63-.02-1.94l-.43-.07Z"
        fill="#fff"
        fill-rule="evenodd"
        stroke="#21231e"
        stroke-linejoin="round"
        stroke-width=".03"
      /><path
        d="m19.79,20.13l.07,2.21c.02.2-.24,1.36-.38,1.59-.35-.15-.42-.94-.36-1.71.07-.77-.01-1.44-.06-1.58l.73-.52Z"
        fill="#fff"
        fill-rule="evenodd"
        stroke="#21231e"
        stroke-linejoin="round"
        stroke-width=".03"
      /><path
        d="m20.2,20.5l-.05,2.21c.01.2-.31,1.35-.46,1.57-.35-.27-.28-1.38-.23-1.72.11-.67.09-1.45.05-1.57l.69-.49Z"
        fill="#fff"
        fill-rule="evenodd"
        stroke="#21231e"
        stroke-linejoin="round"
        stroke-width=".03"
      /><path
        d="m20.51,21.02h-.59c.05.23.01.98-.09,1.55-.1.54-.23,1.92.34,2.26.35-.73.08-1.44.26-2.08l.08-1.72Z"
        fill="#fff"
        fill-rule="evenodd"
        stroke="#21231e"
        stroke-linejoin="round"
        stroke-width=".03"
      /><path
        d="m18.26,20.12l.12,2.07c.02.23.13.38.24.46.1-.14.15-.32.16-.54,0-.11-.06-1.63-.08-1.94l-.43-.06Z"
        fill="#fff"
        fill-rule="evenodd"
        stroke="#21231e"
        stroke-linejoin="round"
        stroke-width=".03"
      /><path
        d="m19.31,18.81c.02.52.02,1.64.02,1.74,0,.22-.09.49-.19.63-.11-.09-.22-.24-.24-.46-.02-.19-.02-1.1-.03-1.55l.43-.35Z"
        fill="#fff"
        fill-rule="evenodd"
        stroke="#21231e"
        stroke-linejoin="round"
        stroke-width=".03"
      /><path
        d="m18.89,19.15c.01.56,0,1.44,0,1.51,0,.22-.06.4-.16.54-.11-.09-.23-.24-.25-.47-.01-.14-.05-.73-.06-1.19l.46-.39Z"
        fill="#fff"
        fill-rule="evenodd"
        stroke="#21231e"
        stroke-linejoin="round"
        stroke-width=".03"
      /><path
        d="m19.25,18.77l.4-.57c.08.28.18,2.3.06,2.46,0,.22-.09.4-.18.54-.11-.08-.28-.24-.23-.47.05-.23,0-1.73-.05-1.97Z"
        fill="#fff"
        fill-rule="evenodd"
        stroke="#21231e"
        stroke-linejoin="round"
        stroke-width=".03"
      /><path
        d="m20.07,20.03l.03.63c0,.22-.06.4-.16.54-.11-.08-.25-.24-.24-.46.06-.87-.04-1.7-.15-2.49l.35-.21.17,1.99Z"
        fill="#fff"
        fill-rule="evenodd"
        stroke="#21231e"
        stroke-linejoin="round"
        stroke-width=".03"
      /><path
        d="m20.47,20.61l-.11.41c0,.22-.14.39-.24.53-.11-.08-.21-.22-.18-.45.16-1.29.1-2.14-.17-3.2.62.42.91,1.3.7,2.71h0Z"
        fill="#fff"
        fill-rule="evenodd"
        stroke="#21231e"
        stroke-linejoin="round"
        stroke-width=".03"
      /><path
        d="m20.44,21.01l.57-.19c.07.56-.04,1.27-.19,2.2-.13.8-.06,1.43.04,1.84-.61-.08-.86-.85-.56-2.31.08-.38.16-.87.14-1.54Z"
        fill="#fff"
        fill-rule="evenodd"
        stroke="#21231e"
        stroke-linejoin="round"
        stroke-width=".03"
      /><path
        d="m20.22,18.41c.14.67.23,1.47.13,2.34-.04.32-.11.59-.21.79.41-.05.67-.44.64-1.13l-.09-1.93-.46-.08Z"
        fill="#fff"
        fill-rule="evenodd"
        stroke="#21231e"
        stroke-linejoin="round"
        stroke-width=".03"
      /><path
        d="m20.52,18.5c.03.17.14.38.16.6.07.74.07,1.66-.15,2.26.41-.05.55-.41.56-1.1.01-.57.01-1.24-.13-2.02l-.44.26Z"
        fill="#fff"
        fill-rule="evenodd"
        stroke="#21231e"
        stroke-linejoin="round"
        stroke-width=".03"
      /><path
        d="m19.66,18.33l.38-.04c.07.35.12.6.14.73.03.25-.05.47-.14.64-.14-.08-.2-.26-.26-.52l-.11-.81Z"
        fill="#fff"
        fill-rule="evenodd"
        stroke="#21231e"
        stroke-linejoin="round"
        stroke-width=".03"
      /><path
        d="m18.68,19.13h.34c.01.31.02.51.01.62-.01.21-.06.39-.15.52-.1-.08-.2-.23-.21-.45-.02-.22.02-.46.02-.69Z"
        fill="#fff"
        fill-rule="evenodd"
        stroke="#21231e"
        stroke-linejoin="round"
        stroke-width=".03"
      /><path
        d="m18.66,19.3c0,.3,0,.51,0,.62-.02.21-.08.39-.17.52-.1-.09-.19-.24-.2-.46l.38-.68Z"
        fill="#fff"
        fill-rule="evenodd"
        stroke="#21231e"
        stroke-linejoin="round"
        stroke-width=".03"
      /><path
        d="m19.02,18.96l.33-.02c.04.3.06.51.07.61,0,.21-.03.39-.11.53-.11-.08-.22-.22-.25-.43-.03-.22-.02-.46-.04-.69Z"
        fill="#fff"
        fill-rule="evenodd"
        stroke="#21231e"
        stroke-linejoin="round"
        stroke-width=".03"
      /><path
        d="m19.71,18.45c.06.25.15,1.05,0,1.39-.12-.08-.25-.24-.29-.48-.04-.24-.05-.5-.08-.76l.37-.15Z"
        fill="#fff"
        fill-rule="evenodd"
        stroke="#21231e"
        stroke-linejoin="round"
        stroke-width=".03"
      /><path
        d="m18.39,23.29l.56.28c.16.35.31.53.5.7-.28.05-.51,0-.67-.2-.2-.27-.31-.44-.38-.47v-.3Z"
        fill="#fff"
        fill-rule="evenodd"
        stroke="#21231e"
        stroke-linejoin="round"
        stroke-width=".03"
      /><path
        d="m18.51,23.49c.14.27.23.46.27.56.08.2.1.38.06.54-.13-.03-.29-.13-.4-.32l.07-.78Z"
        fill="#fff"
        fill-rule="evenodd"
        stroke="#21231e"
        stroke-linejoin="round"
        stroke-width=".03"
      /><path
        d="m18.44,23.58c.06.3.11.5.12.61.02.21,0,.39-.07.54-.12-.07-.25-.19-.3-.41-.05-.22-.06-.45-.1-.68l.36-.05Z"
        fill="#fff"
        fill-rule="evenodd"
        stroke="#21231e"
        stroke-linejoin="round"
        stroke-width=".03"
      /><path
        d="m17.71,23.76c.19.34.25.57.27.82.21-.19.3-.41.23-.65-.1-.32-.19-.7-.18-.77l-.32.61Z"
        fill="#fff"
        fill-rule="evenodd"
        stroke="#21231e"
        stroke-linejoin="round"
        stroke-width=".03"
      /><path
        d="m18.27,22.89c.12.28.2.47.23.57.06.2.07.39.03.55-.13-.04-.3-.13-.39-.33-.09-.2-.13-.45-.21-.67l.34-.12Z"
        fill="#fff"
        fill-rule="evenodd"
        stroke="#21231e"
        stroke-linejoin="round"
        stroke-width=".03"
      /><path
        d="m18.24,22.32c.08-.02.18.16.28.26.02.02.05.05.07.08.04.06.08.14.1.22.08.37.21.57.36.77-.28,0-.5-.11-.61-.33-.14-.31-.22-.49-.28-.54l.07-.46Z"
        fill="#fff"
        fill-rule="evenodd"
        stroke="#21231e"
        stroke-linejoin="round"
        stroke-width=".03"
      /><path
        d="m17.39,24.1c-.24.3-.34.52-.39.76-.17-.22-.23-.45-.12-.68.41-.46.41-.46.52-.09Z"
        fill="#fff"
        fill-rule="evenodd"
        stroke="#21231e"
        stroke-linejoin="round"
        stroke-width=".03"
      /><path
        d="m17.33,23.88c-.24.3-.49.53-.55.77-.17-.22-.25-.45-.14-.68l.68-.09Z"
        fill="#fff"
        fill-rule="evenodd"
        stroke="#21231e"
        stroke-linejoin="round"
        stroke-width=".03"
      /><path
        d="m17.76,23.78c-.24.3-.34.52-.39.76-.17-.22-.23-.45-.12-.68l.52-.09Z"
        fill="#fff"
        fill-rule="evenodd"
        stroke="#21231e"
        stroke-linejoin="round"
        stroke-width=".03"
      /><path
        d="m14.26,25.22s-.02.02-.02.03c-.03.08-.14.22-.22.31-.13.13-.1.33-.01.44.09.12.15.26.17.35.01.07.03.21.02.43,0,.11-.08.16-.14.21-.03.02.02.09.12.17.01,0,.04.02.06.08,0,0,.05,0,.06,0,.02-.06.05-.08.06-.08.1-.08.15-.14.12-.17-.06-.05-.13-.1-.14-.21-.02-.22,0-.36.02-.43.02-.1.07-.23.17-.35.08-.11.12-.31-.01-.44-.08-.08-.19-.22-.22-.31,0,0-.01-.03-.02-.03Z"
        fill="#edb92e"
        fill-rule="evenodd"
        stroke="#21231e"
        stroke-linejoin="round"
        stroke-width=".03"
      /><path
        d="m13.91,26.98c.23.17.43-.23.23-.77-.15-.4-.88-.23-.47.29.02.02.05.01.04-.01-.02-.11.04-.18.16-.15.3.06.31.61-.02.49-.06,0,0,.11.05.16Z"
        fill="#edb92e"
        fill-rule="evenodd"
        stroke="#21231e"
        stroke-linejoin="round"
        stroke-width=".03"
      /><path
        d="m14.62,26.98c-.23.17-.43-.23-.23-.77.15-.4.88-.23.47.29-.02.03-.05.01-.04-.01.02-.11-.04-.18-.16-.15-.3.06-.31.61.02.49.06,0,0,.11-.05.16Z"
        fill="#edb92e"
        fill-rule="evenodd"
        stroke="#21231e"
        stroke-linejoin="round"
        stroke-width=".03"
      /><path
        d="m14.43,26.54s.05.01.07.03.03.04.03.07-.01.05-.03.07c-.02.02-.04.03-.07.03h-.34s-.05-.01-.07-.03c-.02-.02-.03-.04-.03-.07s.01-.05.03-.07c.02-.02.04-.03.07-.03h.34Z"
        fill="#edb92e"
        fill-rule="evenodd"
        stroke="#21231e"
        stroke-linejoin="round"
        stroke-width=".03"
      /><path
        d="m14.09,24.06c-.14.31-.31.58-.48.83-.08.03-.14.07-.2.09-.06.02-.45.01-.46-.02-.13-.1-.32-.01-.24.1-.06.06.06.21.14.14.08-.07.37,0,.45-.03-.03.08-.31.13-.48.14-.17,0-.14.17-.08.31l.06.03c.06.11.22.08.23-.03,0-.11.39-.25.45-.33-.06.17-.23.33-.31.5-.08.08-.14.08-.03.25l.2.03c.17,0,.2-.06.17-.19-.03-.14.1-.39.14-.46.03-.07.04-.14.08-.17.06-.08.36-.21.43-.17.14.07.24.03.25-.11-.03-.03,0-.22-.1-.24-.08-.01-.12.03-.19.08-.11.09-.17.14-.21.13-.09-.02.16-.14.39-.44.23-.29.32-.73-.19-.43Z"
        fill="#edb92e"
        fill-rule="evenodd"
        stroke="#21231e"
        stroke-linejoin="round"
        stroke-width=".03"
      /><path
        d="m12.72,25.13c-.11-.07-.18-.06-.22-.01-.02.03-.05.01-.04-.03.08-.18.19-.2.3-.11.03.03.05.05.08.07-.02.03-.11.06-.12.08h0Z"
        fill="#edb92e"
        fill-rule="evenodd"
        stroke="#21231e"
        stroke-linejoin="round"
        stroke-width=".03"
      /><path
        d="m14.34,24.97c.12-.08.23-.1.29-.05.03.02.07,0,.04-.03-.12-.17-.27-.18-.38-.08-.03.03-.05.06-.08.09.04.04.12.09.13.08h0Z"
        fill="#edb92e"
        fill-rule="evenodd"
        stroke="#21231e"
        stroke-linejoin="round"
        stroke-width=".03"
      /><path
        d="m13.39,25.96s-.03-.15-.08-.2c-.04.03-.08.06-.12.1-.12.12-.12.31.07.46.05.04.07,0,.05-.05-.03-.08,0-.18.08-.32Z"
        fill="#edb92e"
        fill-rule="evenodd"
        stroke="#21231e"
        stroke-linejoin="round"
        stroke-width=".03"
      /><path
        d="m12.92,25.58c-.11.05-.15.1-.15.18,0,.04-.03.06-.04,0-.14-.31,0-.37.21-.36.01.05-.02.17-.02.17Z"
        fill="#edb92e"
        fill-rule="evenodd"
        stroke="#21231e"
        stroke-linejoin="round"
        stroke-width=".03"
      /><path
        d="m14.42,24.28c-.05-.05-.11-.1-.16-.04-.05.06-.03.12.05.2-.05-.03-.11-.14-.17-.07-.06.08,0,.14.06.21-.06-.05-.12-.13-.17-.07-.06.07,0,.13.05.18-.06-.04-.11-.09-.15-.05-.05.06,0,.1.05.15-.06-.04-.1-.09-.15-.04-.05.05.01.11.05.13"
        fill="none"
        fill-rule="evenodd"
        stroke="#21231e"
        stroke-linecap="round"
        stroke-width=".03"
      /><path
        d="m14.41,20.53c0,.24-.04,1.85-.05,2.08-.01.23-.12.38-.22.47-.1-.13-.16-.32-.17-.53,0-.11.01-1.63.02-1.94l.43-.07Z"
        fill="#fff"
        fill-rule="evenodd"
        stroke="#21231e"
        stroke-linejoin="round"
        stroke-width=".03"
      /><path
        d="m13.36,20.13l-.07,2.21c-.02.2.24,1.36.38,1.59.35-.15.42-.94.36-1.71-.07-.77.01-1.44.06-1.58l-.73-.52Z"
        fill="#fff"
        fill-rule="evenodd"
        stroke="#21231e"
        stroke-linejoin="round"
        stroke-width=".03"
      /><path
        d="m12.94,20.5l.05,2.21c-.01.2.31,1.35.46,1.57.36-.27.28-1.38.23-1.72-.11-.67-.09-1.45-.05-1.57l-.69-.49Z"
        fill="#fff"
        fill-rule="evenodd"
        stroke="#21231e"
        stroke-linejoin="round"
        stroke-width=".03"
      /><path
        d="m12.63,21.02h.59c-.05.23,0,.98.09,1.55.1.54.23,1.92-.34,2.26-.35-.73-.08-1.44-.26-2.08l-.08-1.72Z"
        fill="#fff"
        fill-rule="evenodd"
        stroke="#21231e"
        stroke-linejoin="round"
        stroke-width=".03"
      /><path
        d="m14.88,20.12l-.12,2.07c-.02.23-.13.38-.24.46-.1-.14-.15-.32-.16-.54,0-.11.06-1.63.08-1.94l.43-.06Z"
        fill="#fff"
        fill-rule="evenodd"
        stroke="#21231e"
        stroke-linejoin="round"
        stroke-width=".03"
      /><path
        d="m13.84,18.81c-.02.52-.02,1.64-.02,1.74,0,.22.09.49.19.63.11-.09.22-.24.24-.46.02-.19.02-1.1.03-1.55l-.43-.35Z"
        fill="#fff"
        fill-rule="evenodd"
        stroke="#21231e"
        stroke-linejoin="round"
        stroke-width=".03"
      /><path
        d="m14.26,19.15c-.01.56,0,1.44,0,1.51,0,.22.06.4.16.54.11-.09.23-.24.25-.47.01-.14.05-.73.06-1.19l-.46-.39Z"
        fill="#fff"
        fill-rule="evenodd"
        stroke="#21231e"
        stroke-linejoin="round"
        stroke-width=".03"
      /><path
        d="m13.9,18.77l-.4-.57c-.08.28-.18,2.3-.06,2.46,0,.22.09.4.18.54.11-.08.28-.24.23-.47-.05-.23,0-1.73.05-1.97Z"
        fill="#fff"
        fill-rule="evenodd"
        stroke="#21231e"
        stroke-linejoin="round"
        stroke-width=".03"
      /><path
        d="m13.07,20.03l-.03.63c0,.22.06.4.16.54.11-.08.25-.24.24-.46-.06-.87.04-1.7.15-2.49l-.35-.21-.17,1.99Z"
        fill="#fff"
        fill-rule="evenodd"
        stroke="#21231e"
        stroke-linejoin="round"
        stroke-width=".03"
      /><path
        d="m12.67,20.61l.11.41c0,.22.14.39.24.53.11-.08.21-.22.18-.45-.16-1.29-.1-2.14.17-3.2-.62.42-.91,1.3-.7,2.71h0Z"
        fill="#fff"
        fill-rule="evenodd"
        stroke="#21231e"
        stroke-linejoin="round"
        stroke-width=".03"
      /><path
        d="m12.7,21.01l-.57-.19c-.07.56.04,1.27.19,2.2.13.8.06,1.43-.04,1.84.61-.08.86-.85.56-2.31-.08-.38-.16-.87-.14-1.54Z"
        fill="#fff"
        fill-rule="evenodd"
        stroke="#21231e"
        stroke-linejoin="round"
        stroke-width=".03"
      /><path
        d="m12.93,18.41c-.14.67-.23,1.47-.13,2.34.04.32.11.59.21.79-.41-.05-.67-.44-.64-1.13l.09-1.93.46-.08Z"
        fill="#fff"
        fill-rule="evenodd"
        stroke="#21231e"
        stroke-linejoin="round"
        stroke-width=".03"
      /><path
        d="m12.63,18.5c-.03.17-.14.38-.16.6-.07.74-.07,1.66.15,2.26-.41-.05-.55-.41-.56-1.1-.01-.57-.01-1.24.13-2.02l.44.26Z"
        fill="#fff"
        fill-rule="evenodd"
        stroke="#21231e"
        stroke-linejoin="round"
        stroke-width=".03"
      /><path
        d="m13.48,18.33l-.38-.04c-.07.35-.12.6-.14.73-.03.25.05.47.14.64.14-.08.2-.26.26-.52l.11-.81Z"
        fill="#fff"
        fill-rule="evenodd"
        stroke="#21231e"
        stroke-linejoin="round"
        stroke-width=".03"
      /><path
        d="m14.46,19.13h-.34c-.01.31-.02.51-.01.62.01.21.06.39.15.52.1-.08.2-.23.21-.45.02-.22-.02-.46-.02-.69Z"
        fill="#fff"
        fill-rule="evenodd"
        stroke="#21231e"
        stroke-linejoin="round"
        stroke-width=".03"
      /><path
        d="m14.49,19.3c0,.3,0,.51,0,.62.02.21.08.39.17.52.1-.09.19-.24.2-.46l-.38-.68Z"
        fill="#fff"
        fill-rule="evenodd"
        stroke="#21231e"
        stroke-linejoin="round"
        stroke-width=".03"
      /><path
        d="m14.12,18.96l-.33-.02c-.04.3-.06.51-.06.61,0,.21.03.39.11.53.11-.08.22-.22.25-.43.03-.22.02-.46.04-.69Z"
        fill="#fff"
        fill-rule="evenodd"
        stroke="#21231e"
        stroke-linejoin="round"
        stroke-width=".03"
      /><path
        d="m13.44,18.45c-.06.25-.15,1.05,0,1.39.12-.08.25-.24.29-.48.04-.24.05-.5.08-.76l-.37-.15Z"
        fill="#fff"
        fill-rule="evenodd"
        stroke="#21231e"
        stroke-linejoin="round"
        stroke-width=".03"
      /><path
        d="m14.75,23.29l-.56.28c-.16.35-.31.53-.5.7.28.05.51,0,.67-.2.2-.27.31-.44.38-.47v-.3Z"
        fill="#fff"
        fill-rule="evenodd"
        stroke="#21231e"
        stroke-linejoin="round"
        stroke-width=".03"
      /><path
        d="m14.64,23.49c-.14.27-.23.46-.27.56-.08.2-.1.38-.06.54.13-.03.29-.13.4-.32l-.07-.78Z"
        fill="#fff"
        fill-rule="evenodd"
        stroke="#21231e"
        stroke-linejoin="round"
        stroke-width=".03"
      /><path
        d="m14.71,23.57c-.06.3-.11.5-.12.61-.02.21,0,.39.07.54.12-.07.25-.19.3-.41.05-.22.06-.45.1-.68l-.36-.05Z"
        fill="#fff"
        fill-rule="evenodd"
        stroke="#21231e"
        stroke-linejoin="round"
        stroke-width=".03"
      /><path
        d="m15.43,23.76c-.19.34-.25.57-.27.82-.21-.19-.3-.41-.23-.65.1-.32.19-.7.18-.77l.32.61Z"
        fill="#fff"
        fill-rule="evenodd"
        stroke="#21231e"
        stroke-linejoin="round"
        stroke-width=".03"
      /><path
        d="m14.87,22.89c-.12.28-.2.47-.23.57-.06.2-.07.39-.03.55.13-.04.3-.13.39-.33.09-.2.13-.45.21-.67l-.34-.12Z"
        fill="#fff"
        fill-rule="evenodd"
        stroke="#21231e"
        stroke-linejoin="round"
        stroke-width=".03"
      /><path
        d="m14.91,22.31c-.08-.02-.18.16-.28.26-.02.02-.05.05-.07.08-.04.06-.08.14-.1.22-.08.37-.21.57-.36.77.28,0,.5-.11.61-.33.14-.31.22-.49.28-.54l-.07-.46Z"
        fill="#fff"
        fill-rule="evenodd"
        stroke="#21231e"
        stroke-linejoin="round"
        stroke-width=".03"
      /><path
        d="m15.75,24.1c.24.3.34.52.39.76.17-.22.23-.45.12-.68-.41-.46-.41-.46-.52-.09Z"
        fill="#fff"
        fill-rule="evenodd"
        stroke="#21231e"
        stroke-linejoin="round"
        stroke-width=".03"
      /><path
        d="m15.82,23.88c.24.3.49.53.55.77.17-.22.25-.45.14-.68l-.68-.09Z"
        fill="#fff"
        fill-rule="evenodd"
        stroke="#21231e"
        stroke-linejoin="round"
        stroke-width=".03"
      /><path
        d="m15.38,23.78c.24.3.34.52.39.76.17-.22.23-.45.12-.68l-.52-.09Z"
        fill="#fff"
        fill-rule="evenodd"
        stroke="#21231e"
        stroke-linejoin="round"
        stroke-width=".03"
      /><path
        d="m16.57,18.26c-.05-.6-.16-1.01-.42-1.43.12.01.25-.01.19-.3-.17-.04-.24.02-.72-.2-.39-.18-.97-.25-.93-.05.07.39.33.67.6.86.13.31.44.9.22,1.22-.21.33-.39.48-.61.61.05.02.09.03.14.04-.03.04-.31.13-.34.11-.22-.14-.42-.5-.6-.7-.52-.57-.79-1.02-.68-1.38.12-.39.59-.82-.02-.74-.61.08-1.12.92-1.28,1.89-.06.36-.1.68-.14.93.33-.12.48-.24.57-.38-.04.14-.07.27-.09.39.27-.05.46-.18.54-.42.03-.09.06-.18.1-.25.08.03.19.03.32,0,.05.12.43.53.63.83.23.34.57.6.68.62h3.66c.11-.02.46-.28.68-.62.2-.3.58-.72.63-.83.13.03.24.03.32,0,.04.07.07.15.1.25.08.24.27.37.54.42-.02-.12-.05-.25-.09-.39.09.14.24.26.57.38-.04-.25-.08-.57-.14-.93-.15-.98-.66-1.82-1.28-1.89-.61-.07-.14.35-.02.74.1.35-.17.8-.68,1.38-.18.2-.38.56-.6.7-.03.02-.31-.06-.34-.11.05,0,.09-.02.14-.04-.21-.13-.39-.29-.61-.61-.21-.32.1-.91.22-1.22.27-.2.53-.48.6-.86.04-.19-.54-.13-.93.05-.48.22-.54.16-.71.2-.06.29.07.31.19.3-.26.42-.37.83-.43,1.43Z"
        fill="#fff"
        fill-rule="evenodd"
        stroke="#21231e"
        stroke-linejoin="round"
        stroke-width=".03"
      /><path
        d="m17.71,17.4l.54.08c.42.02.66-.11.71-.38-.15.18-.35.27-.56.22-.28-.07-.46-.13-.52-.11l-.17.18Z"
        fill="#edb92e"
        fill-rule="evenodd"
        stroke="#21231e"
        stroke-linejoin="round"
        stroke-width=".03"
      /><path
        d="m18.72,16.33c.47.05.44.35,0,.78-.09.09-.11.08-.13,0-.04-.16-.2-.23-.28-.12-.06.07-.05.12-.24.09-.25.21-.45.36-.13.34.13,0,.26.08.44.07-.05.11-.06.12-.1.13-.19.03-.37-.08-.56-.04-.4.07.64-1.08.63-1.12-.03-.11.25-.32.35-.12Z"
        fill="#edb92e"
        fill-rule="evenodd"
        stroke="#21231e"
        stroke-linejoin="round"
        stroke-width=".03"
      /><path
        d="m18.05,16.69l.06-.06s.01-.09-.05-.15c-.05.02-.09.04-.12.05.03.08.06.14.11.16Z"
        fill="#21231e"
        fill-rule="evenodd"
        stroke-width="0"
      /><path
        d="m18.77,16.6s.04-.02.04-.04-.02-.04-.04-.04-.04.02-.04.04.02.04.04.04Z"
        fill="#21231e"
        fill-rule="evenodd"
        stroke-width="0"
      /><path
        d="m20.73,21.3c-.02.5-.06.89-.15,1.31-.1.42-.11.69-.13,1.11"
        fill="none"
        fill-rule="evenodd"
        stroke="#21231e"
        stroke-linecap="round"
        stroke-linejoin="round"
        stroke-width=".03"
      /><path
        d="m20.52,21.36c.24-.62.23-1.58.15-2.21-.08-.63-.48-1.46-.63-1.56"
        fill="none"
        fill-rule="evenodd"
        stroke="#21231e"
        stroke-linecap="round"
        stroke-linejoin="round"
        stroke-width=".03"
      /><path
        d="m18.72,16.33c-.02.09-.1.19-.24.29"
        fill="none"
        fill-rule="evenodd"
        stroke="#21231e"
        stroke-linecap="round"
        stroke-linejoin="round"
        stroke-width=".03"
      /><path
        d="m17.46,18.81c.2.22.46.28.77.17"
        fill="none"
        fill-rule="evenodd"
        stroke="#21231e"
        stroke-linecap="round"
        stroke-linejoin="round"
        stroke-width=".03"
      /><path
        d="m17.43,18.64c0,.08.04.24.13.46-.19-.04-.33-.13-.42-.25"
        fill="none"
        fill-rule="evenodd"
        stroke="#21231e"
        stroke-linecap="round"
        stroke-linejoin="round"
        stroke-width=".03"
      /><path
        d="m17.18,18.62c-.02.19-.08.34-.15.44-.11-.08-.18-.19-.22-.33"
        fill="none"
        fill-rule="evenodd"
        stroke="#21231e"
        stroke-linecap="round"
        stroke-linejoin="round"
        stroke-width=".03"
      /><path
        d="m17.78,16.6c.05.09.13.2.23.14.14-.08.17-.19.23-.29"
        fill="none"
        fill-rule="evenodd"
        stroke="#21231e"
        stroke-linecap="round"
        stroke-linejoin="round"
        stroke-width=".03"
      /><path
        d="m17.64,16.62c.06,0,.12-.02.27-.07.14-.05.3-.11.44-.1"
        fill="none"
        fill-rule="evenodd"
        stroke="#21231e"
        stroke-linecap="round"
        stroke-linejoin="round"
        stroke-width=".03"
      /><path
        d="m17.27,16.78c-.07.02-.16.04-.27.06"
        fill="none"
        fill-rule="evenodd"
        stroke="#21231e"
        stroke-linecap="round"
        stroke-linejoin="round"
        stroke-width=".03"
      /><path
        d="m15.43,17.4l-.54.08c-.42.02-.66-.11-.71-.38.15.18.35.27.56.23.28-.07.46-.13.52-.11l.17.18Z"
        fill="#edb92e"
        fill-rule="evenodd"
        stroke="#21231e"
        stroke-linejoin="round"
        stroke-width=".03"
      /><path
        d="m14.43,16.33c-.47.05-.44.35,0,.78.09.09.11.08.13,0,.04-.16.2-.23.28-.12.06.07.05.12.24.09.25.21.45.36.13.34-.13,0-.26.08-.44.07.05.11.06.12.1.13.19.03.37-.08.56-.04.4.07-.64-1.08-.63-1.12.03-.11-.25-.32-.35-.12Z"
        fill="#edb92e"
        fill-rule="evenodd"
        stroke="#21231e"
        stroke-linejoin="round"
        stroke-width=".03"
      /><path
        d="m15.09,16.69l-.06-.06s-.01-.09.05-.15c.05.02.09.04.12.05-.03.08-.06.14-.11.16Z"
        fill="#21231e"
        fill-rule="evenodd"
        stroke-width="0"
      /><path
        d="m14.38,16.59s-.04-.02-.04-.04.02-.04.04-.04.04.02.04.04-.02.04-.04.04Z"
        fill="#21231e"
        fill-rule="evenodd"
        stroke-width="0"
      /><path
        d="m12.41,21.3c.02.5.06.89.15,1.31.1.42.11.69.13,1.11"
        fill="none"
        fill-rule="evenodd"
        stroke="#21231e"
        stroke-linecap="round"
        stroke-linejoin="round"
        stroke-width=".03"
      /><path
        d="m12.62,21.36c-.24-.62-.23-1.58-.15-2.21.08-.63.48-1.46.63-1.56"
        fill="none"
        fill-rule="evenodd"
        stroke="#21231e"
        stroke-linecap="round"
        stroke-linejoin="round"
        stroke-width=".03"
      /><path
        d="m14.43,16.33c.02.09.1.19.24.29"
        fill="none"
        fill-rule="evenodd"
        stroke="#21231e"
        stroke-linecap="round"
        stroke-linejoin="round"
        stroke-width=".03"
      /><path
        d="m15.68,18.81c-.2.22-.46.28-.77.17"
        fill="none"
        fill-rule="evenodd"
        stroke="#21231e"
        stroke-linecap="round"
        stroke-linejoin="round"
        stroke-width=".03"
      /><path
        d="m15.72,18.64c0,.08-.04.24-.13.46.19-.04.33-.13.42-.25"
        fill="none"
        fill-rule="evenodd"
        stroke="#21231e"
        stroke-linecap="round"
        stroke-linejoin="round"
        stroke-width=".03"
      /><path
        d="m15.97,18.62c.02.19.08.34.15.44.1-.08.18-.19.22-.33"
        fill="none"
        fill-rule="evenodd"
        stroke="#21231e"
        stroke-linecap="round"
        stroke-linejoin="round"
        stroke-width=".03"
      /><path
        d="m15.37,16.6c-.05.09-.13.2-.23.14-.14-.08-.17-.19-.23-.29"
        fill="none"
        fill-rule="evenodd"
        stroke="#21231e"
        stroke-linecap="round"
        stroke-linejoin="round"
        stroke-width=".03"
      /><path
        d="m15.5,16.62c-.06,0-.12-.02-.27-.07-.14-.05-.3-.11-.44-.1"
        fill="none"
        fill-rule="evenodd"
        stroke="#21231e"
        stroke-linecap="round"
        stroke-linejoin="round"
        stroke-width=".03"
      /><path
        d="m15.87,16.78c.07.02.16.04.27.06"
        fill="none"
        fill-rule="evenodd"
        stroke="#21231e"
        stroke-linecap="round"
        stroke-linejoin="round"
        stroke-width=".03"
      /><path
        d="m16.32,18.58c.02.22.1.42.25.62.15-.19.24-.4.25-.62"
        fill="#fff"
        fill-rule="evenodd"
        stroke-width="0"
      /><path
        d="m16.32,18.58c.02.22.1.42.25.62.15-.19.24-.4.25-.62"
        fill="none"
        fill-rule="evenodd"
        stroke="#21231e"
        stroke-linejoin="round"
        stroke-width=".03"
      /><path
        d="m18.47,19.22v3.01c0,.54-.23,1.03-.56,1.38-.34.35-.83.6-1.34.6s-1-.25-1.34-.6-.56-.84-.56-1.38v-3.01h3.8Z"
        fill="#c6363c"
        fill-rule="evenodd"
        stroke="#21231e"
        stroke-width=".07"
      /><path
        d="m18.46,21.07v.78h-1.51v2.31c-.25.06-.51.06-.76,0v-2.31h-1.51v-.78h1.51v-1.83h.76v1.83h1.51Z"
        fill="#fff"
        fill-rule="evenodd"
        stroke="#21231e"
        stroke-linecap="round"
        stroke-width=".03"
      /><path
        d="m17.22,22.17c.23-.08.84-.28.84.21,0,.23-.29.39-.37.18-.04-.1,0-.17.06-.19.06-.02.12.03.11.1.25-.13-.23-.4-.44-.05-.06.1.1.21.1.29s-.16.19-.1.29c.2.35.68.08.44-.05.02.08-.05.12-.11.1-.06-.02-.1-.09-.06-.19.08-.21.37-.05.37.18,0,.49-.62.29-.84.21v-1.08Z"
        fill="#fff"
        fill-rule="evenodd"
        stroke="#21231e"
        stroke-linejoin="round"
        stroke-width=".03"
      /><path
        d="m15.92,19.67c-.23-.08-.84-.28-.84.21,0,.23.29.39.37.18.04-.1,0-.17-.06-.19s-.12.03-.11.1c-.25-.13.23-.4.44-.05.06.1-.1.21-.1.29s.16.19.1.29c-.2.35-.68.08-.44-.05-.02.08.05.12.11.1s.1-.09.06-.19c-.08-.21-.37-.05-.37.18,0,.49.62.29.84.21v-1.08Z"
        fill="#fff"
        fill-rule="evenodd"
        stroke="#21231e"
        stroke-linejoin="round"
        stroke-width=".03"
      /><path
        d="m17.22,19.67c.23-.08.84-.28.84.21,0,.23-.29.39-.37.18-.04-.1,0-.17.06-.19.06-.02.12.03.11.1.25-.13-.23-.4-.44-.05-.06.1.1.21.1.29s-.16.19-.1.29c.2.35.68.08.44-.05.02.08-.05.12-.11.1-.06-.02-.1-.09-.06-.19.08-.21.37-.05.37.18,0,.49-.62.29-.84.21v-1.08Z"
        fill="#fff"
        fill-rule="evenodd"
        stroke="#21231e"
        stroke-linejoin="round"
        stroke-width=".03"
      /><path
        d="m15.92,22.17c-.23-.08-.84-.28-.84.21,0,.23.29.39.37.18.04-.1,0-.17-.06-.19-.06-.02-.12.03-.11.1-.25-.13.23-.4.44-.05.06.1-.1.21-.1.29s.16.19.1.29c-.2.35-.68.08-.44-.05-.02.08.05.12.11.1.06-.02.1-.09.06-.19-.08-.21-.37-.05-.37.18,0,.49.62.29.84.21v-1.08Z"
        fill="#fff"
        fill-rule="evenodd"
        stroke="#21231e"
        stroke-linejoin="round"
        stroke-width=".03"
      /></g></g></svg>
