<svg width="44" height="44" viewBox="0 0 44 44" fill="none" xmlns="http://www.w3.org/2000/svg">
<g filter="url(#filter0_d_1_1081999)">
<path fill-rule="evenodd" clip-rule="evenodd" d="M2 40H40V2H2V40Z" fill="#D8262D"/>
<path fill-rule="evenodd" clip-rule="evenodd" d="M2 27.65H40V2H2V27.65Z" fill="#1C4689"/>
<path fill-rule="evenodd" clip-rule="evenodd" d="M2 14.35H40V2H2V14.35Z" fill="#FFFFFE"/>
<path fill-rule="evenodd" clip-rule="evenodd" d="M16.4999 32C13.0026 30.3363 8 27.0344 8 20.5024C8 13.9706 8.3163 11 8.3163 11H24.6837C24.6837 11 25 13.9706 25 20.5024C25 27.0344 19.9975 30.3363 16.4999 32Z" fill="#FFFFFE"/>
<path fill-rule="evenodd" clip-rule="evenodd" d="M16.4999 31C13.4141 29.4947 9 26.5072 9 20.5973C9 14.6876 9.27906 12 9.27906 12H23.7208C23.7208 12 24 14.6876 24 20.5973C24 26.5072 19.5859 29.4947 16.4999 31Z" fill="#D8262D"/>
<mask id="mask0_1_1081999" style="mask-type:alpha" maskUnits="userSpaceOnUse" x="9" y="12" width="16" height="19">
<path fill-rule="evenodd" clip-rule="evenodd" d="M16.5999 31C13.4729 29.4947 9 26.5072 9 20.5973C9 14.6876 9.28278 12 9.28278 12H23.9171C23.9171 12 24.2 14.6876 24.2 20.5973C24.2 26.5072 19.7271 29.4947 16.5999 31Z" fill="white"/>
</mask>
<g mask="url(#mask0_1_1081999)">
<path fill-rule="evenodd" clip-rule="evenodd" d="M17.3298 19.0005C18.174 19.0142 19.8205 19.0474 21.2867 18.5549C21.2867 18.5549 21.248 19.0815 21.248 19.6949C21.248 20.3085 21.2867 20.8349 21.2867 20.8349C19.9419 20.3833 18.281 20.3739 17.3298 20.386V23.6533H15.9968V20.386C15.0458 20.3739 13.385 20.3833 12.04 20.8349C12.04 20.8349 12.0787 20.3085 12.0787 19.6949C12.0787 19.0815 12.04 18.5549 12.04 18.5549C13.5063 19.0474 15.1528 19.0142 15.9968 19.0005V16.9485C15.2276 16.9416 14.119 16.9785 12.8657 17.3995C12.8657 17.3995 12.9045 16.8729 12.9045 16.2593C12.9045 15.646 12.8657 15.1195 12.8657 15.1195C14.1173 15.5397 15.2243 15.5772 15.9934 15.5705C15.9538 14.2711 15.5766 12.6333 15.5766 12.6333C15.5766 12.6333 16.3529 12.694 16.6632 12.694C16.9739 12.694 17.7501 12.6333 17.7501 12.6333C17.7501 12.6333 17.3729 14.2711 17.3334 15.5705C18.1024 15.5772 19.2095 15.5397 20.4609 15.1195C20.4609 15.1195 20.4221 15.646 20.4221 16.2593C20.4221 16.8729 20.4609 17.3995 20.4609 17.3995C19.2077 16.9785 18.0992 16.9416 17.3298 16.9485V19.0005Z" fill="#FFFFFE"/>
<path fill-rule="evenodd" clip-rule="evenodd" d="M16.4627 33.0267L10.0132 27.2365C10.0132 27.2365 10.8377 24.5507 12.447 24.5507C13.726 24.5507 14.1927 25.5893 14.1927 25.5893C14.1927 25.5893 15.0323 23.4 16.5997 23.4C18.1674 23.4 19.007 25.5893 19.007 25.5893C19.007 25.5893 19.4736 24.5507 20.7526 24.5507C22.362 24.5507 23.1865 27.2365 23.1865 27.2365L16.4627 33.0267Z" fill="#1C4689"/>
</g>
</g>
<defs>
<filter id="filter0_d_1_1081999" x="0.159683" y="0.159683" width="43.019" height="43.019" filterUnits="userSpaceOnUse" color-interpolation-filters="sRGB">
<feFlood flood-opacity="0" result="BackgroundImageFix"/>
<feColorMatrix in="SourceAlpha" type="matrix" values="0 0 0 0 0 0 0 0 0 0 0 0 0 0 0 0 0 0 127 0" result="hardAlpha"/>
<feOffset dx="0.669206" dy="0.669206"/>
<feGaussianBlur stdDeviation="1.25476"/>
<feComposite in2="hardAlpha" operator="out"/>
<feColorMatrix type="matrix" values="0 0 0 0 0 0 0 0 0 0 0 0 0 0 0 0 0 0 0.25 0"/>
<feBlend mode="normal" in2="BackgroundImageFix" result="effect1_dropShadow_1_1081999"/>
<feBlend mode="normal" in="SourceGraphic" in2="effect1_dropShadow_1_1081999" result="shape"/>
</filter>
</defs>
</svg>
