<?xml version="1.0" encoding="utf-8" ?>
<!-- Generator: Adobe Illustrator 27.2.0, SVG Export Plug-In . SVG Version: 6.00 Build 0)  -->
<svg
  version="1.2"
  baseProfile="tiny"
  id="Layer_1"
  xmlns="http://www.w3.org/2000/svg"
  xmlns:xlink="http://www.w3.org/1999/xlink"
  x="0px"
  y="0px"
  viewBox="0 0 40 40"
  overflow="visible"
  xml:space="preserve"
>
<rect x="1" y="24.2" fill="#FF0000" width="38" height="8.3" />
<rect x="1" y="15.8" fill="#0000FF" width="38" height="8.3" />
<rect x="1" y="7.5" fill="#FFFFFE" width="38" height="8.3" />
<path
    fill="#0000FF"
    d="M7.2,12.6c1.8-0.8,3.8-0.8,5.6,0c0.3,4.1-0.6,6.5-2.8,7C7.8,19,6.9,16.7,7.2,12.6z"
  />
<path
    id="a"
    fill="#FFFF00"
    d="M10,13.3l0.1,0.2l0.2,0l-0.1,0.2l0.1,0.2l-0.2,0L10,14l-0.1-0.2l-0.2,0l0.1-0.2l-0.1-0.2l0.2,0"
  />
<path
    id="a_00000080895548518897065580000015965401367179106477_"
    fill="#FFFF00"
    d="M9.2,12.3l0.1,0.2l0.2,0l-0.1,0.2l0.1,0.2
	l-0.2,0L9.2,13l-0.1-0.2l-0.2,0L9,12.6l-0.1-0.2l0.2,0"
  />
<path
    id="a_00000052821774276387775170000015555607994723548812_"
    fill="#FFFF00"
    d="M10.8,12.3l0.1,0.2l0.2,0L11,12.6l0.1,0.2
	l-0.2,0L10.8,13l-0.1-0.2l-0.2,0l0.1-0.2l-0.1-0.2l0.2,0"
  />
<path
    fill="#FFFFFF"
    d="M10,14.4l0.7,1.4l0.4-0.6l1.1,1.5c0,0.1,0,0.1,0,0.2c-0.3,1.1-1.1,2-2.2,2.3c-1.1-0.4-1.9-1.2-2.2-2.3
	c0-0.1,0-0.1,0-0.2l1.1-1.5l0.4,0.6L10,14.4z"
  />
<path
    id="b"
    fill="#0000FF"
    d="M7.8,16.9c0.1,0.4,0.5,0.6,0.9,0.5c0.1,0,0.1,0,0.2-0.1c0.2-0.1,0.5-0.1,0.8,0s0.5,0.1,0.8,0
	s0.5-0.1,0.8,0c0.4,0.2,0.8,0.1,1-0.3c0-0.1,0.1-0.1,0.1-0.2l0,0v0.5c-0.1,0-0.3,0-0.4,0.1c-0.2,0.1-0.5,0.1-0.8,0
	c-0.2-0.1-0.5-0.1-0.8,0c-0.2,0.1-0.5,0.1-0.8,0c-0.2-0.1-0.5-0.1-0.8,0c-0.2,0.1-0.5,0.1-0.8,0c-0.1-0.1-0.2-0.1-0.4-0.1L7.8,16.9"
  />
<path
    id="b_00000059301158818397639200000011463711444815959176_"
    fill="#0000FF"
    d="M7.8,17.3c0.1,0.4,0.5,0.6,0.9,0.5
	c0.1,0,0.1,0,0.2-0.1c0.2-0.1,0.5-0.1,0.8,0c0.2,0.1,0.5,0.1,0.8,0c0.2-0.1,0.5-0.1,0.8,0c0.4,0.2,0.8,0.1,1-0.3
	c0-0.1,0.1-0.1,0.1-0.2l0,0v0.5c-0.1,0-0.3,0-0.4,0.1c-0.2,0.1-0.5,0.1-0.8,0s-0.5-0.1-0.8,0s-0.5,0.1-0.8,0s-0.5-0.1-0.8,0
	s-0.5,0.1-0.8,0c-0.1-0.1-0.2-0.1-0.4-0.1L7.8,17.3"
  />
<path
    fill="#FF0000"
    d="M7,12.7c0.1,0,0.1-0.1,0.2-0.1l0.2,3.6c0.1,1.5,1.1,2.8,2.6,3.3c1.5-0.5,2.5-1.8,2.6-3.3l0.2-3.6
	c0.1,0,0.1,0.1,0.2,0.1l-0.2,3.5c-0.1,1.6-1.2,3-2.8,3.5c-1.6-0.5-2.7-1.9-2.8-3.5L7,12.7z"
  />
</svg>
