<?xml version="1.0" encoding="UTF-8" ?>
<svg xmlns="http://www.w3.org/2000/svg" viewBox="0 0 40 40"><defs><style
    >.cls-1,.cls-2{fill:none;}.cls-3{fill:#fffffe;}.cls-4{fill:#d8262d;}.cls-5{fill:#1c4689;}.cls-2{stroke:#d3d3d3;stroke-miterlimit:10;stroke-width:.5px;}</style></defs><g
    id="transparant_bg"
  ><rect class="cls-1" y="0" width="48" height="48" /><polygon
      class="cls-2"
      points="1 1 1 7.79 1 20 1 32.21 1 39 39 39 39 20 39 1 1 1"
    /></g><g id="Layer_1"><g><rect
        class="cls-4"
        x="1"
        y="26.65"
        width="38"
        height="12.35"
      /><rect class="cls-5" x="1" y="13.35" width="38" height="13.3" /><rect
        class="cls-3"
        x="1"
        y="1"
        width="38"
        height="12.35"
      /></g><g><path
        class="cls-4"
        d="M22.72,11H8.28s-.28,2.69-.28,8.6c0,2.2,.61,3.99,1.54,5.45,.41-.72,1.04-1.5,1.91-1.5,1.28,0,1.75,1.04,1.75,1.04,0,0,.63-1.62,1.8-2.07v-3.13c-.95-.01-2.61,0-3.96,.45,0,0,.04-.53,.04-1.14s-.04-1.14-.04-1.14c1.47,.49,3.11,.46,3.96,.45v-2.05c-.77,0-1.88,.03-3.13,.45,0,0,.04-.53,.04-1.14s-.04-1.14-.04-1.14c1.25,.42,2.36,.46,3.13,.45-.04-1.3-.42-2.94-.42-2.94,0,0,.78,.06,1.09,.06s1.09-.06,1.09-.06c0,0-.38,1.64-.42,2.94,.77,0,1.88-.03,3.13-.45,0,0-.04,.53-.04,1.14s.04,1.14,.04,1.14c-1.25-.42-2.36-.46-3.13-.45v2.05c.84,.01,2.49,.05,3.96-.45,0,0-.04,.53-.04,1.14s.04,1.14,.04,1.14c-1.34-.45-3.01-.46-3.96-.45v3.2c1.09,.51,1.68,2,1.68,2,0,0,.47-1.04,1.75-1.04,.8,0,1.4,.66,1.81,1.33,.87-1.43,1.44-3.17,1.44-5.28,0-5.91-.28-8.6-.28-8.6Z"
      /><path
        class="cls-3"
        d="M16.33,22.58v-3.2c.95-.01,2.61,0,3.96,.45,0,0-.04-.53-.04-1.14s.04-1.14,.04-1.14c-1.47,.49-3.11,.46-3.96,.45v-2.05c.77,0,1.88,.03,3.13,.45,0,0-.04-.53-.04-1.14s.04-1.14,.04-1.14c-1.25,.42-2.36,.46-3.13,.45,.04-1.3,.42-2.94,.42-2.94,0,0-.78,.06-1.09,.06s-1.09-.06-1.09-.06c0,0,.38,1.64,.42,2.94-.77,0-1.88-.03-3.13-.45,0,0,.04,.53,.04,1.14s-.04,1.14-.04,1.14c1.25-.42,2.36-.46,3.13-.45v2.05c-.84,.01-2.49,.05-3.96-.45,0,0,.04,.53,.04,1.14s-.04,1.14-.04,1.14c1.35-.45,3.01-.46,3.96-.45v3.13c.19-.07,.39-.12,.6-.12,.27,0,.51,.08,.73,.18Z"
      /><path
        class="cls-3"
        d="M23.68,10H7.32s-.32,2.97-.32,9.5c0,2.68,.85,4.81,2.09,6.52,.26,.36,.53,.7,.82,1.02,.66,.73,1.39,1.37,2.14,1.92,1.17,.86,2.38,1.53,3.45,2.04,2.11-1,4.76-2.61,6.54-5.16,1.17-1.67,1.96-3.75,1.96-6.34,0-6.53-.32-9.5-.32-9.5Zm-2.12,14.88c-1.56,2.57-4.08,4.16-6.06,5.12-1.94-.95-4.4-2.48-5.96-4.95-.93-1.46-1.54-3.26-1.54-5.45,0-5.91,.28-8.6,.28-8.6h14.44s.28,2.69,.28,8.6c0,2.11-.57,3.85-1.44,5.28Z"
      /><path
        class="cls-5"
        d="M19.75,23.55c-1.28,0-1.75,1.04-1.75,1.04,0,0-.59-1.49-1.68-2-.22-.11-.46-.18-.73-.18-.22,0-.41,.05-.6,.12-1.18,.45-1.8,2.07-1.8,2.07,0,0-.47-1.04-1.75-1.04-.87,0-1.5,.78-1.91,1.5,1.56,2.47,4.02,4,5.96,4.95,1.98-.97,4.51-2.55,6.06-5.12-.41-.67-1.01-1.33-1.81-1.33Z"
      /></g></g></svg>
