<?xml version="1.0" encoding="UTF-8" ?>
<svg id="a" xmlns="http://www.w3.org/2000/svg" viewBox="0 0 40 40"><defs><style
    >.g{fill:blue;}.h{fill:#fff;}.i{fill:#ff0;}.j{fill:red;}</style></defs><rect
    class="j"
    x="1"
    y="24.67"
    width="38"
    height="8.33"
  /><rect class="g" x="1" y="16.33" width="38" height="8.33" /><rect
    class="h"
    x="1"
    y="8"
    width="38"
    height="8.33"
  /><g><path
      class="g"
      d="m7.21,13.09c1.78-.78,3.8-.78,5.58,0,.29,4.12-.64,6.45-2.79,7-2.15-.55-3.08-2.88-2.79-7Z"
    /><path
      id="b"
      class="i"
      d="m10,13.83l.08.19.21-.02-.12.17.12.17-.21-.02-.08.19-.08-.19-.21.02.12-.17-.12-.17.21.02"
    /><path
      id="c"
      class="i"
      d="m9.21,12.78l.08.19.21-.02-.12.17.12.17-.21-.02-.08.19-.08-.19-.21.02.12-.17-.12-.17.21.02"
    /><path
      id="d"
      class="i"
      d="m10.79,12.78l.08.19.21-.02-.12.17.12.17-.21-.02-.08.19-.08-.19-.21.02.12-.17-.12-.17.21.02"
    /><path
      class="h"
      d="m10,14.92l.67,1.35.45-.6,1.12,1.5c0,.07,0,.14-.03.21-.31,1.1-1.14,1.97-2.22,2.34-1.08-.37-1.91-1.24-2.22-2.34-.02-.07-.03-.14-.03-.21l1.12-1.5.45.6.67-1.35Z"
    /><path
      id="e"
      class="g"
      d="m7.78,17.37c.11.4.53.63.93.52.06-.02.12-.04.17-.07.23-.13.52-.13.75,0,.23.13.52.13.75,0,.23-.13.52-.13.75,0,.36.21.82.08,1.02-.27.03-.05.05-.11.07-.17h.03v.56c-.13,0-.26.03-.38.1-.23.13-.52.13-.75,0-.23-.13-.52-.13-.75,0-.23.13-.52.13-.75,0-.23-.13-.52-.13-.75,0-.23.13-.52.13-.75,0-.11-.07-.24-.1-.38-.1v-.55"
    /><path
      id="f"
      class="g"
      d="m7.78,17.8c.11.4.53.63.93.52.06-.02.12-.04.17-.07.23-.13.52-.13.75,0,.23.13.52.13.75,0,.23-.13.52-.13.75,0,.36.21.82.08,1.02-.27.03-.05.05-.11.07-.17h.03v.56c-.13,0-.26.03-.38.1-.23.13-.52.13-.75,0-.23-.13-.52-.13-.75,0-.23.13-.52.13-.75,0-.23-.13-.52-.13-.75,0-.23.13-.52.13-.75,0-.11-.07-.24-.1-.38-.1v-.55"
    /><path
      class="j"
      d="m7,13.19c.07-.03.14-.07.21-.1l.22,3.56c.1,1.52,1.11,2.83,2.57,3.29,1.45-.46,2.47-1.77,2.57-3.29l.22-3.56c.07.03.14.06.21.1l-.22,3.47c-.1,1.64-1.21,3.03-2.78,3.51-1.57-.47-2.68-1.87-2.78-3.51l-.22-3.47Z"
    /></g></svg>
