<svg width="40" height="40" viewBox="0 0 40 40" version="1.1" xmlns="http://www.w3.org/2000/svg" xmlns:xlink="http://www.w3.org/1999/xlink"><title>EC/Icons/Country flags/Square/40x40/slovakia</title><defs><path d="M7.6 19C4.473 17.495 0 14.507 0 8.597S.283 0 .283 0h14.634s.283 2.688.283 8.597c0 5.91-4.473 8.898-7.6 10.403" id="a"/></defs><g stroke="none" stroke-width="1" fill="none" fill-rule="evenodd"><path fill="#D8262D" d="M1 39h38V1H1z"/><path fill="#1C4689" d="M1 26.65h38V1H1z"/><path fill="#FFFFFE" d="M1 13.35h38V1H1z"/><path d="M38.9 1.1v37.8H1.1V1.1h37.8z" stroke="#979797" stroke-width=".2"/><path d="M15.5 31C12.003 29.336 7 26.034 7 19.502 7 12.971 7.316 10 7.316 10h16.368S24 12.97 24 19.502 18.997 29.336 15.5 31" fill="#FFFFFE"/><path d="M15.5 30C12.414 28.495 8 25.507 8 19.597S8.28 11 8.28 11h14.44s.28 2.688.28 8.597c0 5.91-4.414 8.898-7.5 10.403" fill="#D8262D"/><g transform="translate(8 11)"><mask id="b" fill="#fff"><use xlink:href="#a"/></mask><path d="M8.33 7c.844.014 2.49.047 3.957-.445 0 0-.039.527-.039 1.14 0 .614.039 1.14.039 1.14-1.345-.452-3.006-.461-3.957-.449v3.267H6.997V8.386c-.951-.012-2.612-.003-3.957.449 0 0 .039-.526.039-1.14 0-.613-.039-1.14-.039-1.14 1.466.492 3.113.46 3.957.446V4.948c-.77-.006-1.878.03-3.131.451 0 0 .038-.526.038-1.14 0-.613-.038-1.14-.038-1.14 1.251.42 2.358.458 3.127.452-.04-1.3-.416-2.938-.416-2.938s.776.061 1.086.061c.31 0 1.087-.06 1.087-.06S8.373 2.27 8.333 3.57c.77.006 1.876-.031 3.128-.452 0 0-.039.527-.039 1.14 0 .614.039 1.14.039 1.14-1.253-.42-2.362-.457-3.131-.45V7" fill="#FFFFFE" mask="url(#b)"/><path d="M7.463 21.027l-6.45-5.79s.825-2.686 2.434-2.686a1.924 1.924 0 0 1 1.746 1.038S6.033 11.4 7.6 11.4c1.568 0 2.407 2.19 2.407 2.19s.467-1.04 1.746-1.04c1.61 0 2.434 2.687 2.434 2.687l-6.724 5.79" fill="#1C4689" mask="url(#b)"/></g></g></svg>