<?xml version="1.0" encoding="utf-8" ?>
<!-- Generator: Adobe Illustrator 27.2.0, SVG Export Plug-In . SVG Version: 6.00 Build 0)  -->
<svg
  version="1.2"
  baseProfile="tiny"
  id="Layer_1"
  xmlns="http://www.w3.org/2000/svg"
  xmlns:xlink="http://www.w3.org/1999/xlink"
  x="0px"
  y="0px"
  viewBox="0 0 40 40"
  overflow="visible"
  xml:space="preserve"
>
<rect x="1" y="26.7" fill="#C60B1E" width="38" height="5.8" />
<rect x="1" y="7.5" fill="#C60B1E" width="38" height="5.8" />
<rect x="1" y="13.3" fill="#FFC400" width="38" height="13.5" />
<path
    fill-rule="evenodd"
    fill="#992528"
    d="M10.2,17.2C10.2,17.2,10.1,17.2,10.2,17.2C10.1,17.2,10.1,17.2,10.2,17.2l-0.1,0l0,0
	c0,0,0,0,0,0C10,17.1,10,17.1,10.2,17.2C10.1,17.1,10.1,17.1,10.2,17.2C10.1,17.1,10.2,17.1,10.2,17.2
	C10.2,17.1,10.2,17.1,10.2,17.2c0.1-0.1,0.1-0.1,0.1-0.1c0,0,0,0,0,0c0,0,0,0,0.1,0c0,0,0.1,0,0.1,0c0,0,0.1,0,0.1,0
	c0,0,0.1,0,0.1,0c0,0,0,0,0.1,0c0,0,0.1,0,0.1,0c0,0,0.1,0,0.1,0c0,0,0.1,0,0.1,0c0,0,0,0,0.1,0c0,0,0,0,0,0c0,0,0,0,0,0
	c0,0,0,0,0,0l0,0l0,0c0,0,0,0,0,0c0,0-0.2,0-0.4,0S10.2,17.2,10.2,17.2"
  />
<path
    fill="#AD1519"
    stroke="#000000"
    stroke-width="1.652698e-02"
    stroke-linejoin="round"
    d="M7.8,18.2
	C7.8,18.2,7.7,18.2,7.8,18.2c-0.1,0-0.1-0.1-0.1-0.1l0,0l0-0.1c0,0,0-0.1,0-0.1c0-0.1,0.1-0.1,0.1-0.1c0,0,0.1,0,0.1,0s0.1,0,0.1,0
	c0,0,0.1,0,0.1,0s0,0,0,0c0,0,0,0,0.1,0c0,0,0.1,0,0.1,0c0,0,0.1,0,0.1,0s0.1,0,0.1,0c0,0,0.1,0,0.1,0c0,0,0,0,0.1,0
	c0,0,0.1,0,0.1,0c0,0,0.1,0,0.1,0c0,0,0.1,0,0.1,0c0,0,0.1,0,0.1,0.1c0,0,0,0,0,0.1c0,0,0,0.1,0,0.1c0,0,0,0.1,0,0.1l0,0.1l-0.1,0
	c0,0,0,0-0.1,0c0,0-0.3-0.1-0.5-0.1S7.8,18.2,7.8,18.2L7.8,18.2L7.8,18.2z"
  />
<ellipse
    fill="#C8B100"
    stroke="#000000"
    stroke-width="1.652698e-02"
    cx="8.3"
    cy="17.8"
    rx="0.1"
    ry="0.2"
  />
<ellipse
    fill="#C8B100"
    stroke="#000000"
    stroke-width="1.652698e-02"
    cx="8.3"
    cy="17.8"
    rx="0"
    ry="0.1"
  />
<ellipse fill="#C8B100" cx="8.3" cy="17.7" rx="0.1" ry="0.1" />
<path
    fill="#C8B100"
    stroke="#000000"
    stroke-width="1.906960e-02"
    d="M8.3,17.6L8.3,17.6l-0.2,0v0h0.1v-0.1h0v0h0v0h0v0h0L8.3,17.6
	L8.3,17.6L8.3,17.6L8.3,17.6"
  />
<path
    fill="none"
    stroke="#000000"
    stroke-width="1.652698e-02"
    d="M8.3,17.6C8.3,17.6,8.3,17.6,8.3,17.6c0,0.1,0,0.1,0,0.1
	C8.2,17.7,8.2,17.7,8.3,17.6C8.2,17.6,8.2,17.6,8.3,17.6"
  />
<path
    fill="#C8B100"
    stroke="#000000"
    stroke-width="1.652698e-02"
    d="M8.3,18.2H8l0-0.1l0-0.1l0-0.1c-0.1-0.1-0.2-0.2-0.2-0.2
	c0,0,0,0,0,0c0.1,0,0.2,0.1,0.3,0.2c0,0,0,0,0,0h0.3c0,0,0,0,0,0c0.1-0.2,0.3-0.3,0.3-0.2c0,0,0,0,0,0c0,0-0.1,0.1-0.2,0.2l0,0.1
	l0,0.1l0,0.1H8.3L8.3,18.2z"
  />
<path
    fill="none"
    stroke="#000000"
    stroke-width="1.652698e-02"
    d="M7.7,17.8c0.1,0,0.2,0.1,0.3,0.2 M8.8,17.8
	c-0.1,0-0.2,0.1-0.3,0.2"
  />
<path
    fill="#C8B100"
    stroke="#000000"
    stroke-width="1.652698e-02"
    d="M7.8,18.4C7.8,18.3,7.8,18.3,7.8,18.4
	c0.1-0.1,0.3-0.1,0.5-0.1c0.2,0,0.4,0,0.5,0.1c0,0,0,0,0,0.1c0,0,0,0.1,0,0.1c-0.1,0-0.3-0.1-0.4-0.1C8.1,18.4,7.9,18.4,7.8,18.4
	C7.8,18.4,7.8,18.4,7.8,18.4L7.8,18.4"
  />
<path
    fill="#C8B100"
    stroke="#000000"
    stroke-width="1.652698e-02"
    d="M8.3,18.5c0.2,0,0.3,0,0.4,0c0,0,0.1,0,0.1-0.1c0,0,0,0,0,0
	c-0.1,0-0.3-0.1-0.4-0.1c-0.2,0-0.3,0-0.4,0.1c0,0,0,0,0,0c0,0,0,0,0.1,0.1C7.9,18.5,8.1,18.5,8.3,18.5z"
  />
<path
    fill="#C8B100"
    stroke="#000000"
    stroke-width="1.652698e-02"
    d="M8.8,18.2L8.8,18.2c0,0-0.1,0-0.1,0c0,0-0.1-0.1-0.1-0.1
	s-0.1,0-0.1,0c0,0-0.1,0-0.1,0s0,0-0.1,0c0,0-0.1-0.1-0.1-0.1s0,0.1-0.1,0.1c0,0-0.1,0-0.1,0s0,0-0.1,0c-0.1,0-0.1,0-0.1,0
	s0,0-0.1,0.1c0,0-0.1,0-0.1,0s0,0,0,0c0,0,0,0,0,0l0,0c0.1,0,0.3-0.1,0.5-0.1S8.6,18.2,8.8,18.2L8.8,18.2L8.8,18.2L8.8,18.2z"
  />
<path
    fill="#C8B100"
    stroke="#000000"
    stroke-width="1.652698e-02"
    d="M8.3,18.1L8.3,18.1C8.3,18.1,8.3,18.1,8.3,18.1
	C8.3,18.1,8.3,18.2,8.3,18.1c0.1,0.1,0.1,0.1,0.2,0c0,0,0,0,0,0c0,0,0,0,0,0c0,0,0,0.1,0.1,0.1c0,0,0.1,0,0.1-0.1c0,0,0,0,0,0l0,0
	l0,0c0,0,0,0,0,0c0,0,0,0.1,0.1,0.1c0,0,0,0,0.1,0l0,0v0c0,0,0,0,0,0c0,0,0,0,0.1,0c0,0,0.1,0,0.1,0l0,0c0,0,0,0.1-0.1,0.1
	c0,0,0,0-0.1,0c0,0,0,0,0,0c0,0,0,0-0.1,0c0,0-0.1,0-0.1-0.1c0,0,0,0-0.1,0c0,0-0.1,0-0.1,0c0,0,0,0-0.1,0
	C8.3,18.2,8.3,18.2,8.3,18.1c0,0.1-0.1,0.1-0.1,0.1c0,0-0.1,0-0.1,0c0,0,0,0-0.1,0c0,0-0.1,0-0.1,0c0,0-0.1,0.1-0.1,0.1
	c0,0,0,0-0.1,0c0,0,0,0,0,0c0,0,0,0-0.1,0c0,0-0.1-0.1-0.1-0.1l0,0c0,0,0,0,0.1,0s0.1,0,0.1,0c0,0,0,0,0,0v0l0,0c0,0,0,0,0.1,0
	c0,0,0.1,0,0.1-0.1c0,0,0,0,0,0l0,0l0,0c0,0,0,0,0,0c0,0,0,0.1,0.1,0.1c0,0,0.1,0,0.1-0.1c0,0,0,0,0,0c0,0,0,0,0,0
	C8.1,18.1,8.1,18.2,8.3,18.1C8.2,18.2,8.2,18.1,8.3,18.1C8.2,18.1,8.2,18.1,8.3,18.1L8.3,18.1L8.3,18.1L8.3,18.1z"
  />
<path
    fill="#C8B100"
    stroke="#000000"
    stroke-width="1.652698e-02"
    stroke-linejoin="round"
    d="M8.3,18.2c-0.2,0-0.4,0-0.5,0.1
	c0,0,0,0,0,0c0,0,0,0,0,0C7.9,18.2,8.1,18.2,8.3,18.2c0.2,0,0.4,0,0.5,0c0,0,0,0,0,0c0,0,0,0,0,0C8.6,18.3,8.4,18.2,8.3,18.2z"
  />
<path
    fill="#C8B100"
    stroke="#000000"
    stroke-width="1.652698e-02"
    d="M7.6,18.2C7.6,18.2,7.6,18.1,7.6,18.2
	C7.6,18.1,7.5,18.1,7.6,18.2C7.5,18.1,7.5,18.1,7.6,18.2C7.6,18.1,7.6,18.1,7.6,18.2L7.6,18.2C7.6,18.1,7.6,18.1,7.6,18.2
	C7.6,18.1,7.6,18.1,7.6,18.2C7.6,18.1,7.6,18.2,7.6,18.2L7.6,18.2z"
  />
<path
    fill="#C8B100"
    stroke="#000000"
    stroke-width="1.652698e-02"
    d="M7.7,18.1L7.7,18.1L7.7,18.1l-0.1,0l0,0L7.7,18.1L7.7,18.1"
  />
<path
    fill="#C8B100"
    stroke="#000000"
    stroke-width="1.652698e-02"
    d="M7.6,18.1C7.6,18.1,7.6,18.1,7.6,18.1
	C7.7,18.2,7.7,18.2,7.6,18.1C7.6,18.2,7.6,18.2,7.6,18.1C7.6,18.2,7.6,18.2,7.6,18.1z"
  />
<path
    fill="#C8B100"
    stroke="#000000"
    stroke-width="1.652698e-02"
    d="M7.8,18.2C7.8,18.1,7.8,18.1,7.8,18.2
	C7.8,18.1,7.8,18.1,7.8,18.2C7.8,18.2,7.8,18.2,7.8,18.2C7.8,18.2,7.8,18.2,7.8,18.2z"
  />
<path
    fill="#C8B100"
    stroke="#000000"
    stroke-width="1.652698e-02"
    d="M7.8,18.1L7.8,18.1l0.1,0l0,0l0,0L7.8,18.1L7.8,18.1"
  />
<path
    fill="#C8B100"
    stroke="#000000"
    stroke-width="1.652698e-02"
    d="M7.9,18L7.9,18l0,0.1l0,0l0,0L7.9,18L7.9,18"
  />
<path
    fill="#C8B100"
    stroke="#000000"
    stroke-width="1.652698e-02"
    d="M8,18.1L8,18.1l-0.1,0l0,0l0,0L8,18.1L8,18.1"
  />
<ellipse
    fill="#C8B100"
    stroke="#000000"
    stroke-width="1.652698e-02"
    cx="7.9"
    cy="18.1"
    rx="0"
    ry="0"
  />
<path
    fill="#C8B100"
    stroke="#000000"
    stroke-width="1.652698e-02"
    d="M8.1,18.1C8.1,18.1,8.1,18.1,8.1,18.1
	C8.1,18.1,8.1,18.1,8.1,18.1C8.1,18.1,8.1,18.1,8.1,18.1C8.1,18.1,8.1,18.1,8.1,18.1z"
  />
<path
    fill="#C8B100"
    stroke="#000000"
    stroke-width="1.652698e-02"
    d="M8.1,18L8.1,18l0.1,0l0,0l0,0L8.1,18L8.1,18"
  />
<path
    fill="#C8B100"
    stroke="#000000"
    stroke-width="1.652698e-02"
    d="M8.3,17.9L8.3,17.9l0,0.1l0,0l0,0L8.3,17.9L8.3,17.9"
  />
<path
    fill="#C8B100"
    stroke="#000000"
    stroke-width="1.652698e-02"
    d="M8.4,18L8.4,18l-0.1,0l0,0l0,0L8.4,18L8.4,18"
  />
<ellipse
    fill="#C8B100"
    stroke="#000000"
    stroke-width="1.652698e-02"
    cx="8.3"
    cy="18"
    rx="0"
    ry="0"
  />
<path
    fill="#C8B100"
    stroke="#000000"
    stroke-width="1.652698e-02"
    d="M8.4,18.1C8.4,18.1,8.4,18.1,8.4,18.1
	C8.4,18.1,8.4,18.1,8.4,18.1C8.4,18.1,8.4,18.1,8.4,18.1C8.4,18.1,8.4,18.1,8.4,18.1z"
  />
<path
    fill="#C8B100"
    stroke="#000000"
    stroke-width="1.652698e-02"
    d="M8.5,18.1L8.5,18.1l0.1,0l0,0l0,0L8.5,18.1L8.5,18.1"
  />
<path
    fill="#C8B100"
    stroke="#000000"
    stroke-width="1.652698e-02"
    d="M8.6,18L8.6,18l0,0.1l0,0l0,0L8.6,18L8.6,18"
  />
<path
    fill="#C8B100"
    stroke="#000000"
    stroke-width="1.652698e-02"
    d="M8.7,18.1L8.7,18.1l-0.1,0l0,0l0,0L8.7,18.1L8.7,18.1"
  />
<ellipse
    fill="#C8B100"
    stroke="#000000"
    stroke-width="1.652698e-02"
    cx="8.6"
    cy="18.1"
    rx="0"
    ry="0"
  />
<path
    fill="#C8B100"
    stroke="#000000"
    stroke-width="1.652698e-02"
    d="M8.7,18.2C8.7,18.1,8.7,18.1,8.7,18.2
	C8.7,18.1,8.7,18.1,8.7,18.2C8.7,18.2,8.7,18.2,8.7,18.2C8.7,18.2,8.7,18.2,8.7,18.2z"
  />
<path
    fill="#C8B100"
    stroke="#000000"
    stroke-width="1.652698e-02"
    d="M8.9,18.2C8.9,18.2,8.9,18.1,8.9,18.2C9,18.1,9,18.1,8.9,18.2
	C9,18.1,9,18.1,8.9,18.2C8.9,18.1,8.9,18.1,8.9,18.2L8.9,18.2C8.9,18.1,8.9,18.1,8.9,18.2C8.9,18.1,8.9,18.1,8.9,18.2
	C8.9,18.1,8.9,18.2,8.9,18.2L8.9,18.2z"
  />
<path
    fill="#C8B100"
    stroke="#000000"
    stroke-width="1.652698e-02"
    d="M8.8,18.1L8.8,18.1L8.8,18.1l0.1,0l0,0L8.8,18.1L8.8,18.1"
  />
<path
    fill="#C8B100"
    stroke="#000000"
    stroke-width="1.652698e-02"
    d="M8.9,18.1C8.9,18.1,8.9,18.1,8.9,18.1
	C8.9,18.2,8.8,18.2,8.9,18.1C8.9,18.2,8.9,18.2,8.9,18.1C8.9,18.2,8.9,18.2,8.9,18.1z"
  />
<path
    fill="#AD1519"
    stroke="#000000"
    stroke-width="1.652698e-02"
    d="M7.8,18.4L7.8,18.4L7.8,18.4L7.8,18.4L7.8,18.4"
  />
<path
    fill="#058E6E"
    stroke="#000000"
    stroke-width="1.652698e-02"
    d="M8,18.3L8,18.3C7.9,18.3,7.9,18.3,8,18.3
	C7.9,18.3,7.9,18.3,8,18.3L8,18.3L8,18.3C8,18.3,8,18.3,8,18.3C8,18.3,8,18.3,8,18.3L8,18.3"
  />
<ellipse
    fill="#FFFFFF"
    stroke="#000000"
    stroke-width="1.652698e-02"
    cx="8.1"
    cy="18.3"
    rx="0"
    ry="0"
  />
<path
    fill="#AD1519"
    stroke="#000000"
    stroke-width="1.652698e-02"
    d="M8.3,18.3L8.3,18.3C8.2,18.3,8.2,18.3,8.3,18.3
	C8.2,18.3,8.2,18.3,8.3,18.3L8.3,18.3C8.3,18.3,8.3,18.3,8.3,18.3C8.3,18.3,8.3,18.3,8.3,18.3L8.3,18.3"
  />
<ellipse
    fill="#FFFFFF"
    stroke="#000000"
    stroke-width="1.652698e-02"
    cx="8.4"
    cy="18.3"
    rx="0"
    ry="0"
  />
<path
    fill="#058E6E"
    stroke="#000000"
    stroke-width="1.652698e-02"
    d="M8.6,18.3L8.6,18.3C8.6,18.3,8.6,18.3,8.6,18.3
	C8.6,18.3,8.6,18.3,8.6,18.3L8.6,18.3L8.6,18.3C8.5,18.3,8.5,18.3,8.6,18.3C8.5,18.3,8.5,18.3,8.6,18.3L8.6,18.3"
  />
<path
    fill="#AD1519"
    stroke="#000000"
    stroke-width="1.652698e-02"
    d="M8.7,18.4L8.7,18.4L8.7,18.4L8.7,18.4L8.7,18.4"
  />
<path
    fill="#AD1519"
    stroke="#000000"
    stroke-width="1.652698e-02"
    stroke-linejoin="round"
    d="M8.3,18.5c-0.2,0-0.3,0-0.4,0
	C8,18.4,8.1,18.4,8.3,18.5c0.2-0.1,0.3-0.1,0.4,0C8.6,18.5,8.4,18.5,8.3,18.5z"
  />
<path
    fill="none"
    stroke="#000000"
    stroke-width="6.356532e-04"
    d="M8.3,18.5L8.3,18.5 M8.3,18.5L8.3,18.5 M8.3,18.5L8.3,18.5"
  />
<path
    fill="none"
    stroke="#000000"
    stroke-width="1.271306e-03"
    d="M8.2,18.5L8.2,18.5"
  />
<path
    fill="none"
    stroke="#000000"
    stroke-width="1.906960e-03"
    d="M8.2,18.5L8.2,18.5"
  />
<path
    fill="none"
    stroke="#000000"
    stroke-width="2.542613e-03"
    d="M8.2,18.5L8.2,18.5"
  />
<path
    fill="none"
    stroke="#000000"
    stroke-width="2.542613e-03"
    d="M8.2,18.5L8.2,18.5"
  />
<path
    fill="none"
    stroke="#000000"
    stroke-width="3.178266e-03"
    d="M8.2,18.5L8.2,18.5"
  />
<path
    fill="none"
    stroke="#000000"
    stroke-width="3.813919e-03"
    d="M8.1,18.5L8.1,18.5 M8.1,18.5L8.1,18.5"
  />
<path
    fill="none"
    stroke="#000000"
    stroke-width="4.449572e-03"
    d="M8.1,18.5L8.1,18.5 M8.1,18.5L8.1,18.5"
  />
<path
    fill="none"
    stroke="#000000"
    stroke-width="5.085226e-03"
    d="M8.1,18.5L8.1,18.5 M8.1,18.5L8.1,18.5 M8.1,18.5L8.1,18.5"
  />
<path
    fill="none"
    stroke="#000000"
    stroke-width="5.720879e-03"
    d="M8,18.5L8,18.5"
  />
<path
    fill="none"
    stroke="#000000"
    stroke-width="6.356532e-03"
    d="M8,18.5L8,18.5"
  />
<path
    fill="none"
    stroke="#000000"
    stroke-width="6.992185e-03"
    d="M8,18.5L8,18.5"
  />
<path
    fill="none"
    stroke="#000000"
    stroke-width="7.627838e-03"
    d="M8,18.5L8,18.5 M8,18.5L8,18.5"
  />
<path
    fill="none"
    stroke="#000000"
    stroke-width="7.627838e-03"
    d="M8,18.5L8,18.5"
  />
<path
    fill="none"
    stroke="#000000"
    stroke-width="8.263491e-03"
    d="M7.9,18.5L7.9,18.5"
  />
<path
    fill="none"
    stroke="#000000"
    stroke-width="8.899145e-03"
    d="M7.9,18.5L7.9,18.5"
  />
<path
    fill="none"
    stroke="#000000"
    stroke-width="9.534799e-03"
    d="M7.9,18.5L7.9,18.5"
  />
<path
    fill="none"
    stroke="#000000"
    stroke-width="1.144176e-02"
    d="M7.9,18.5L7.9,18.5"
  />
<path
    fill="#005BBF"
    stroke="#000000"
    stroke-width="2.479048e-02"
    d="M9.2,25.1c-0.1,0-0.2,0-0.2-0.1C8.9,25,8.8,25,8.8,25
	c-0.1,0-0.2,0-0.2,0.1c-0.1,0-0.2,0.1-0.2,0.1c-0.1,0-0.2,0-0.2-0.1C7.9,25,7.9,25,7.8,25c-0.1,0-0.2,0-0.2,0.1
	c-0.1,0-0.2,0.1-0.3,0.1v0.2c0.1,0,0.2,0,0.3-0.1c0.1,0,0.1-0.1,0.2-0.1c0.1,0,0.2,0,0.2,0.1c0.1,0,0.2,0.1,0.2,0.1
	c0.1,0,0.2,0,0.2-0.1c0.1,0,0.2-0.1,0.2-0.1c0.1,0,0.2,0,0.2,0.1c0.1,0,0.2,0.1,0.2,0.1L9.2,25.1L9.2,25.1z"
  />
<path
    fill="#CCCCCC"
    stroke="#000000"
    stroke-width="2.479048e-02"
    d="M9.2,25.3c-0.1,0-0.2,0-0.2-0.1c-0.1,0-0.2-0.1-0.2-0.1
	c-0.1,0-0.2,0-0.2,0.1c-0.1,0-0.2,0.1-0.2,0.1c-0.1,0-0.2,0-0.2-0.1c-0.1,0-0.1-0.1-0.2-0.1c-0.1,0-0.2,0-0.2,0.1
	c-0.1,0-0.2,0.1-0.3,0.1v0.2c0.1,0,0.2,0,0.3-0.1c0.1,0,0.1-0.1,0.2-0.1c0.1,0,0.2,0,0.2,0.1c0.1,0,0.2,0.1,0.2,0.1
	c0.1,0,0.2,0,0.2-0.1c0.1,0,0.2-0.1,0.2-0.1c0.1,0,0.2,0,0.2,0.1c0.1,0,0.2,0.1,0.2,0.1L9.2,25.3"
  />
<path
    fill="#005BBF"
    stroke="#000000"
    stroke-width="2.479048e-02"
    d="M9.2,25.4c-0.1,0-0.2,0-0.2-0.1c-0.1,0-0.2-0.1-0.2-0.1
	c-0.1,0-0.2,0-0.2,0.1c-0.1,0-0.2,0.1-0.2,0.1c-0.1,0-0.2,0-0.2-0.1c-0.1,0-0.1-0.1-0.2-0.1c-0.1,0-0.2,0-0.2,0.1
	c-0.1,0-0.2,0.1-0.3,0.1v0.2c0.1,0,0.2,0,0.3-0.1c0.1,0,0.1-0.1,0.2-0.1c0.1,0,0.2,0,0.2,0.1c0.1,0,0.2,0.1,0.2,0.1
	c0.1,0,0.2,0,0.2-0.1c0.1,0,0.2-0.1,0.2-0.1c0.1,0,0.2,0,0.2,0.1c0.1,0,0.2,0.1,0.2,0.1L9.2,25.4"
  />
<path
    fill="#CCCCCC"
    stroke="#000000"
    stroke-width="2.479048e-02"
    d="M9.2,25.7c-0.1,0-0.2,0-0.2-0.1c-0.1,0-0.2-0.1-0.2-0.1
	c-0.1,0-0.2,0-0.2,0.1c-0.1,0-0.2,0.1-0.2,0.1c-0.1,0-0.2,0-0.2-0.1c-0.1,0-0.1-0.1-0.2-0.1c-0.1,0-0.2,0-0.2,0.1
	c-0.1,0-0.2,0.1-0.3,0.1v-0.2c0.1,0,0.2,0,0.3-0.1c0.1,0,0.1-0.1,0.2-0.1c0.1,0,0.2,0,0.2,0.1c0.1,0,0.2,0.1,0.2,0.1
	c0.1,0,0.2,0,0.2-0.1c0.1,0,0.2-0.1,0.2-0.1c0.1,0,0.2,0,0.2,0.1c0.1,0,0.2,0.1,0.2,0.1L9.2,25.7"
  />
<path
    fill="#005BBF"
    stroke="#000000"
    stroke-width="2.479048e-02"
    d="M9.2,25.9c-0.1,0-0.2,0-0.2-0.1c-0.1,0-0.2-0.1-0.2-0.1
	c-0.1,0-0.2,0-0.2,0.1c-0.1,0-0.2,0.1-0.2,0.1c-0.1,0-0.2,0-0.2-0.1c-0.1,0-0.1-0.1-0.2-0.1c-0.1,0-0.2,0-0.2,0.1
	c-0.1,0-0.2,0.1-0.3,0.1v-0.2c0.1,0,0.2,0,0.3-0.1c0.1,0,0.1-0.1,0.2-0.1c0.1,0,0.2,0,0.2,0.1c0.1,0,0.2,0.1,0.2,0.1
	c0.1,0,0.2,0,0.2-0.1c0.1,0,0.2-0.1,0.2-0.1c0.1,0,0.2,0,0.2,0.1c0.1,0,0.2,0.1,0.2,0.1L9.2,25.9L9.2,25.9z"
  />
<path
    fill="#C8B100"
    stroke="#000000"
    stroke-width="2.479048e-02"
    stroke-linejoin="round"
    d="M7.7,24.5
	C7.7,24.5,7.7,24.5,7.7,24.5c0,0.1-0.1,0.2-0.2,0.2H9c-0.1,0-0.2-0.1-0.2-0.2c0,0,0,0,0,0c0,0,0,0,0,0L7.7,24.5
	C7.7,24.5,7.7,24.5,7.7,24.5z"
  />
<path
    fill="#C8B100"
    stroke="#000000"
    stroke-width="2.479048e-02"
    d="M7.7,24.4h1.1c0,0,0.1,0,0.1,0c0,0,0,0.1-0.1,0.1L7.7,24.4
	C7.7,24.5,7.7,24.5,7.7,24.4C7.7,24.4,7.7,24.4,7.7,24.4z"
  />
<path
    fill="#C8B100"
    stroke="#000000"
    stroke-width="2.479048e-02"
    d="M7.5,25.1H9v-0.4H7.5V25.1z"
  />
<path
    fill="#CCCCCC"
    stroke="#000000"
    stroke-width="2.479048e-02"
    d="M7.7,24.3h1v-5.1h-1V24.3z"
  />
<path
    fill="none"
    stroke="#000000"
    stroke-width="2.479048e-02"
    d="M8.5,19.3v5.1 M8.6,19.3v5.1"
  />
<path
    fill="#C8B100"
    stroke="#000000"
    stroke-width="2.479048e-02"
    d="M7.6,18.9H9v-0.4H7.6L7.6,18.9L7.6,18.9z"
  />
<path
    fill="#C8B100"
    stroke="#000000"
    stroke-width="2.479048e-02"
    stroke-linejoin="round"
    d="M7.7,19.1
	C7.7,19.1,7.7,19.1,7.7,19.1l1.1,0c0,0,0,0,0,0c0,0-0.1,0-0.1-0.1s0-0.1,0.1-0.1c0,0,0,0,0,0H7.7c0,0,0,0,0,0l0,0
	C7.7,19,7.8,19,7.7,19.1C7.8,19.1,7.7,19.1,7.7,19.1L7.7,19.1z"
  />
<path
    fill="#C8B100"
    stroke="#000000"
    stroke-width="2.479048e-02"
    d="M7.7,19.1h1.1c0,0,0.1,0,0.1,0c0,0,0,0.1-0.1,0.1L7.7,19.1
	C7.7,19.2,7.7,19.2,7.7,19.1C7.7,19.1,7.7,19.1,7.7,19.1z"
  />
<path
    fill="#C8B100"
    stroke="#000000"
    stroke-width="2.479048e-02"
    d="M7.7,18.9h1.1c0,0,0.1,0,0.1,0c0,0,0,0-0.1,0L7.7,18.9
	C7.7,19,7.7,18.9,7.7,18.9C7.7,18.9,7.7,18.9,7.7,18.9z"
  />
<path
    fill="#AD1519"
    stroke="#000000"
    stroke-width="2.479048e-02"
    d="M7.4,23.1c-0.1,0.1-0.2,0.2-0.2,0.2c0,0,0.1,0.1,0.1,0.1
	c0.1,0.1,0.2,0.2,0.1,0.3c0.1-0.1,0.1-0.2,0.1-0.3C7.6,23.3,7.5,23.2,7.4,23.1z"
  />
<path
    fill="#AD1519"
    stroke="#000000"
    stroke-width="2.479048e-02"
    stroke-linejoin="round"
    d="M9.8,21.2c-0.2-0.1-0.6-0.2-1-0.2
	c-0.2,0-0.3,0-0.5,0c-0.6,0.1-1.1,0.4-1.1,0.6c0,0,0,0,0,0c0,0-0.2-0.5-0.2-0.5c0-0.2,0.5-0.5,1.2-0.6c0.2,0,0.4-0.1,0.6,0
	c0.4,0,0.8,0.1,1.1,0.1L9.8,21.2"
  />
<path
    fill="#AD1519"
    stroke="#000000"
    stroke-width="2.479048e-02"
    d="M7.7,21.8c-0.3,0-0.5-0.1-0.5-0.2c0-0.1,0.1-0.2,0.3-0.3
	c0.1,0,0.2,0,0.3,0L7.7,21.8"
  />
<path
    fill="#AD1519"
    stroke="#000000"
    stroke-width="2.479048e-02"
    d="M8.8,21.4c0.2,0,0.3,0.1,0.4,0.1l0,0c0,0.1-0.1,0.2-0.4,0.4
	L8.8,21.4"
  />
<path
    fill="#AD1519"
    stroke="#000000"
    stroke-width="2.479048e-02"
    stroke-linejoin="round"
    d="M7.1,22.8c0-0.1,0.3-0.2,0.6-0.4
	c0.2-0.1,0.3-0.1,0.5-0.2c0.5-0.2,1-0.5,0.9-0.6l0,0c0,0,0.1,0.5,0.1,0.5c0,0.1-0.3,0.4-0.8,0.6c-0.2,0.1-0.5,0.2-0.7,0.3
	c-0.3,0.1-0.6,0.3-0.5,0.4L7.1,22.8L7.1,22.8L7.1,22.8z"
  />
<path
    fill="#AD1519"
    stroke="#000000"
    stroke-width="1.716264e-02"
    d="M17.7,18.1C17.7,18.1,17.7,18.2,17.7,18.1
	c-0.1,0.1-0.2,0-0.2,0s0,0-0.1,0c0,0-0.1,0-0.1,0s0,0.1-0.1,0.1c0,0-0.1,0-0.1,0s0,0,0,0c0,0,0,0,0,0l0,0l0,0l0,0c0,0,0-0.1,0-0.1
	c0,0,0,0,0,0c0,0,0.1-0.1,0.1-0.1c0.1,0,0.1,0,0.1,0c0,0,0.1-0.1,0.2-0.1c0.1,0,0.2,0,0.2,0c0,0,0.1,0,0.2,0c0.1,0,0.2,0,0.2,0.1
	c0,0,0.1,0,0.1,0c0.1,0,0.2,0.1,0.1,0.1c0,0,0,0,0,0c0,0,0,0.1,0,0.1l0,0l0,0l0,0c0,0,0,0,0,0c0,0,0,0,0,0s0,0-0.1,0
	c0,0-0.1-0.1-0.1-0.1s-0.1,0.1-0.1,0c0,0-0.1,0-0.1,0S17.9,18.2,17.7,18.1C17.8,18.2,17.7,18.1,17.7,18.1L17.7,18.1z"
  />
<ellipse
    fill="#C8B100"
    stroke="#000000"
    stroke-width="1.652698e-02"
    cx="17.7"
    cy="17.9"
    rx="0.1"
    ry="0.1"
  />
<ellipse
    fill="#C8B100"
    stroke="#000000"
    stroke-width="1.652698e-02"
    cx="17.7"
    cy="17.9"
    rx="0"
    ry="0.1"
  />
<ellipse fill="#C8B100" cx="17.7" cy="17.7" rx="0.1" ry="0.1" />
<path
    fill="#C8B100"
    stroke="#000000"
    stroke-width="1.906960e-02"
    d="M17.8,17.7L17.8,17.7l-0.2,0v0h0.1v-0.1h0v0h0v0h0v0h0
	L17.8,17.7L17.8,17.7L17.8,17.7L17.8,17.7"
  />
<path
    fill="none"
    stroke="#000000"
    stroke-width="1.652698e-02"
    d="M17.8,17.7C17.8,17.7,17.8,17.7,17.8,17.7c0,0.1,0,0.1,0,0.1
	S17.7,17.7,17.8,17.7C17.7,17.7,17.7,17.7,17.8,17.7"
  />
<path
    fill="none"
    stroke="#000000"
    stroke-width="1.652698e-02"
    stroke-linecap="round"
    d="M17.1,18.1
	C17.1,18.1,17.1,18.1,17.1,18.1c0-0.2,0.1-0.3,0.2-0.3c0,0,0.1,0,0.1,0"
  />
<path
    fill="none"
    stroke="#000000"
    stroke-width="1.652698e-02"
    d="M17.4,18C17.4,17.9,17.4,17.9,17.4,18c0-0.1,0.1-0.2,0.1-0.2
	c0,0,0.1,0,0.1,0"
  />
<path
    fill="none"
    stroke="#000000"
    stroke-width="1.652698e-02"
    d="M18.1,18C18.1,18,18.1,17.9,18.1,18c0-0.1-0.1-0.2-0.2-0.2
	c0,0-0.1,0-0.1,0"
  />
<path
    fill="none"
    stroke="#000000"
    stroke-width="1.652698e-02"
    stroke-linecap="round"
    d="M18.4,18.1
	C18.4,18.1,18.4,18.1,18.4,18.1c0-0.2-0.1-0.3-0.2-0.3c0,0-0.1,0-0.1,0"
  />
<ellipse
    fill="none"
    stroke="#000000"
    stroke-width="1.334872e-02"
    cx="17"
    cy="18"
    rx="0"
    ry="0"
  />
<ellipse
    fill="none"
    stroke="#000000"
    stroke-width="1.334872e-02"
    cx="17"
    cy="17.9"
    rx="0"
    ry="0"
  />
<ellipse
    fill="none"
    stroke="#000000"
    stroke-width="1.334872e-02"
    cx="17.1"
    cy="17.8"
    rx="0"
    ry="0"
  />
<ellipse
    fill="none"
    stroke="#000000"
    stroke-width="1.334872e-02"
    cx="17.2"
    cy="17.8"
    rx="0"
    ry="0"
  />
<ellipse
    fill="none"
    stroke="#000000"
    stroke-width="1.334872e-02"
    cx="17.3"
    cy="17.8"
    rx="0"
    ry="0"
  />
<ellipse
    fill="#FFFFFF"
    stroke="#000000"
    stroke-width="1.334872e-02"
    cx="17.3"
    cy="17.9"
    rx="0"
    ry="0"
  />
<ellipse
    fill="none"
    stroke="#000000"
    stroke-width="1.334872e-02"
    cx="17.3"
    cy="17.8"
    rx="0"
    ry="0"
  />
<ellipse
    fill="none"
    stroke="#000000"
    stroke-width="1.334872e-02"
    cx="17.4"
    cy="17.8"
    rx="0"
    ry="0"
  />
<ellipse
    fill="none"
    stroke="#000000"
    stroke-width="1.334872e-02"
    cx="17.5"
    cy="17.7"
    rx="0"
    ry="0"
  />
<ellipse
    fill="none"
    stroke="#000000"
    stroke-width="1.334872e-02"
    cx="17.6"
    cy="17.7"
    rx="0"
    ry="0"
  />
<ellipse
    fill="none"
    stroke="#000000"
    stroke-width="1.334872e-02"
    cx="17.9"
    cy="17.7"
    rx="0"
    ry="0"
  />
<ellipse
    fill="none"
    stroke="#000000"
    stroke-width="1.334872e-02"
    cx="18"
    cy="17.7"
    rx="0"
    ry="0"
  />
<ellipse
    fill="none"
    stroke="#000000"
    stroke-width="1.334872e-02"
    cx="18.1"
    cy="17.8"
    rx="0"
    ry="0"
  />
<ellipse
    fill="none"
    stroke="#000000"
    stroke-width="1.334872e-02"
    cx="18.1"
    cy="17.8"
    rx="0"
    ry="0"
  />
<ellipse
    fill="#FFFFFF"
    stroke="#000000"
    stroke-width="1.334872e-02"
    cx="18.1"
    cy="17.9"
    rx="0"
    ry="0"
  />
<ellipse
    fill="none"
    stroke="#000000"
    stroke-width="1.334872e-02"
    cx="18.2"
    cy="17.8"
    rx="0"
    ry="0"
  />
<ellipse
    fill="none"
    stroke="#000000"
    stroke-width="1.334872e-02"
    cx="18.3"
    cy="17.8"
    rx="0"
    ry="0"
  />
<ellipse
    fill="none"
    stroke="#000000"
    stroke-width="1.334872e-02"
    cx="18.4"
    cy="17.8"
    rx="0"
    ry="0"
  />
<ellipse
    fill="none"
    stroke="#000000"
    stroke-width="1.334872e-02"
    cx="18.4"
    cy="17.9"
    rx="0"
    ry="0"
  />
<ellipse
    fill="none"
    stroke="#000000"
    stroke-width="1.334872e-02"
    cx="18.5"
    cy="18"
    rx="0"
    ry="0"
  />
<path
    fill="#C8B100"
    stroke="#000000"
    stroke-width="1.652698e-02"
    d="M17.3,18.4C17.3,18.3,17.3,18.3,17.3,18.4
	c0.1-0.1,0.3-0.1,0.5-0.1c0.2,0,0.4,0,0.5,0.1c0,0,0,0,0,0.1c0,0,0,0.1,0,0.1c-0.1,0-0.3-0.1-0.4-0.1C17.6,18.4,17.4,18.4,17.3,18.4
	C17.3,18.4,17.3,18.4,17.3,18.4L17.3,18.4"
  />
<path
    fill="#C8B100"
    stroke="#000000"
    stroke-width="1.652698e-02"
    d="M17.7,18.5c0.2,0,0.3,0,0.4,0c0,0,0.1,0,0.1-0.1c0,0,0,0,0,0
	c-0.1,0-0.3-0.1-0.4-0.1c-0.2,0-0.3,0-0.4,0.1c0,0,0,0,0,0c0,0,0,0,0.1,0.1C17.4,18.5,17.6,18.5,17.7,18.5z"
  />
<path
    fill="#C8B100"
    stroke="#000000"
    stroke-width="1.652698e-02"
    d="M18.2,18.2L18.2,18.2c0,0-0.1,0-0.1,0c0,0-0.1-0.1-0.1-0.1
	s-0.1,0-0.1,0c0,0-0.1,0-0.1,0s0,0-0.1,0c0,0-0.1-0.1-0.1-0.1s0,0.1-0.1,0.1c0,0-0.1,0-0.1,0s0,0-0.1,0c-0.1,0-0.1,0-0.1,0
	s0,0-0.1,0.1c0,0-0.1,0-0.1,0s0,0,0,0c0,0,0,0,0,0l0,0c0.1,0,0.3-0.1,0.5-0.1C17.9,18.2,18.1,18.2,18.2,18.2L18.2,18.2L18.2,18.2
	L18.2,18.2z"
  />
<path
    fill="#C8B100"
    stroke="#000000"
    stroke-width="1.652698e-02"
    d="M17.7,18.1L17.7,18.1C17.8,18.1,17.8,18.1,17.7,18.1
	C17.8,18.1,17.8,18.2,17.7,18.1c0.1,0.1,0.1,0.1,0.2,0c0,0,0,0,0,0c0,0,0,0,0,0c0,0,0,0.1,0.1,0.1c0,0,0.1,0,0.1-0.1c0,0,0,0,0,0
	l0,0l0,0c0,0,0,0,0,0c0,0,0,0.1,0.1,0.1c0,0,0,0,0.1,0l0,0v0c0,0,0,0,0,0c0,0,0,0,0.1,0c0,0,0.1,0,0.1,0l0,0c0,0,0,0.1-0.1,0.1
	c0,0,0,0-0.1,0c0,0,0,0,0,0c0,0,0,0-0.1,0c0,0-0.1,0-0.1-0.1c0,0,0,0-0.1,0c0,0-0.1,0-0.1,0c0,0,0,0-0.1,0
	C17.8,18.2,17.8,18.2,17.7,18.1c0,0.1-0.1,0.1-0.1,0.1c0,0-0.1,0-0.1,0c0,0,0,0-0.1,0c0,0-0.1,0-0.1,0c0,0-0.1,0.1-0.1,0.1
	c0,0,0,0-0.1,0c0,0,0,0,0,0c0,0,0,0-0.1,0c0,0-0.1-0.1-0.1-0.1l0,0c0,0,0,0,0.1,0s0.1,0,0.1,0c0,0,0,0,0,0v0l0,0c0,0,0,0,0.1,0
	c0,0,0.1,0,0.1-0.1c0,0,0,0,0,0l0,0l0,0c0,0,0,0,0,0c0,0,0,0.1,0.1,0.1c0,0,0.1,0,0.1-0.1c0,0,0,0,0,0c0,0,0,0,0,0
	C17.6,18.1,17.6,18.2,17.7,18.1C17.7,18.2,17.7,18.1,17.7,18.1C17.7,18.1,17.7,18.1,17.7,18.1L17.7,18.1L17.7,18.1L17.7,18.1z"
  />
<path
    fill="#C8B100"
    stroke="#000000"
    stroke-width="1.652698e-02"
    stroke-linejoin="round"
    d="M17.7,18.2c-0.2,0-0.4,0-0.5,0.1
	c0,0,0,0,0,0c0,0,0,0,0,0C17.4,18.2,17.5,18.2,17.7,18.2c0.2,0,0.4,0,0.5,0c0,0,0,0,0,0c0,0,0,0,0,0C18.1,18.3,17.9,18.2,17.7,18.2z
	"
  />
<path
    fill="#C8B100"
    stroke="#000000"
    stroke-width="1.652698e-02"
    d="M17.1,18.2C17.1,18.2,17.1,18.1,17.1,18.2
	C17,18.1,17,18.1,17.1,18.2C17,18.1,17,18.1,17.1,18.2C17.1,18.1,17.1,18.1,17.1,18.2L17.1,18.2C17.1,18.1,17.1,18.1,17.1,18.2
	C17.1,18.1,17.1,18.1,17.1,18.2C17.1,18.1,17.1,18.2,17.1,18.2L17.1,18.2z"
  />
<path
    fill="#C8B100"
    stroke="#000000"
    stroke-width="1.652698e-02"
    d="M17.2,18.1L17.2,18.1L17.2,18.1l-0.1,0l0,0L17.2,18.1
	L17.2,18.1"
  />
<path
    fill="#C8B100"
    stroke="#000000"
    stroke-width="1.652698e-02"
    d="M17.1,18.1C17.1,18.1,17.1,18.1,17.1,18.1
	C17.1,18.2,17.1,18.2,17.1,18.1C17.1,18.2,17.1,18.2,17.1,18.1C17.1,18.2,17.1,18.2,17.1,18.1z"
  />
<path
    fill="#C8B100"
    stroke="#000000"
    stroke-width="1.652698e-02"
    d="M17.3,18.2C17.2,18.1,17.3,18.1,17.3,18.2
	C17.3,18.1,17.3,18.1,17.3,18.2C17.3,18.2,17.3,18.2,17.3,18.2C17.3,18.2,17.3,18.2,17.3,18.2z"
  />
<path
    fill="#C8B100"
    stroke="#000000"
    stroke-width="1.652698e-02"
    d="M17.3,18.1L17.3,18.1l0.1,0l0,0l0,0L17.3,18.1L17.3,18.1"
  />
<path
    fill="#C8B100"
    stroke="#000000"
    stroke-width="1.652698e-02"
    d="M17.4,18L17.4,18l0,0.1l0,0l0,0L17.4,18L17.4,18"
  />
<path
    fill="#C8B100"
    stroke="#000000"
    stroke-width="1.652698e-02"
    d="M17.5,18.1L17.5,18.1l-0.1,0l0,0l0,0L17.5,18.1L17.5,18.1"
  />
<ellipse
    fill="#C8B100"
    stroke="#000000"
    stroke-width="1.652698e-02"
    cx="17.4"
    cy="18.1"
    rx="0"
    ry="0"
  />
<path
    fill="#C8B100"
    stroke="#000000"
    stroke-width="1.652698e-02"
    d="M17.6,18.1C17.6,18.1,17.6,18.1,17.6,18.1
	C17.6,18.1,17.6,18.1,17.6,18.1C17.6,18.1,17.6,18.1,17.6,18.1C17.6,18.1,17.6,18.1,17.6,18.1z"
  />
<path
    fill="#C8B100"
    stroke="#000000"
    stroke-width="1.652698e-02"
    d="M17.6,18L17.6,18l0.1,0l0,0l0,0L17.6,18L17.6,18"
  />
<path
    fill="#C8B100"
    stroke="#000000"
    stroke-width="1.652698e-02"
    d="M17.7,17.9L17.7,17.9l0,0.1l0,0l0,0L17.7,17.9L17.7,17.9"
  />
<path
    fill="#C8B100"
    stroke="#000000"
    stroke-width="1.652698e-02"
    d="M17.9,18L17.9,18l-0.1,0l0,0l0,0L17.9,18L17.9,18"
  />
<ellipse
    fill="#C8B100"
    stroke="#000000"
    stroke-width="1.652698e-02"
    cx="17.7"
    cy="18"
    rx="0"
    ry="0"
  />
<path
    fill="#C8B100"
    stroke="#000000"
    stroke-width="1.652698e-02"
    d="M17.9,18.1C17.9,18.1,17.9,18.1,17.9,18.1
	C17.9,18.1,17.9,18.1,17.9,18.1C17.9,18.1,17.9,18.1,17.9,18.1C17.9,18.1,17.9,18.1,17.9,18.1z"
  />
<path
    fill="#C8B100"
    stroke="#000000"
    stroke-width="1.652698e-02"
    d="M18,18.1L18,18.1l0.1,0l0,0l0,0L18,18.1L18,18.1"
  />
<path
    fill="#C8B100"
    stroke="#000000"
    stroke-width="1.652698e-02"
    d="M18.1,18L18.1,18l0,0.1l0,0l0,0L18.1,18L18.1,18"
  />
<path
    fill="#C8B100"
    stroke="#000000"
    stroke-width="1.652698e-02"
    d="M18.2,18.1L18.2,18.1l-0.1,0l0,0l0,0L18.2,18.1L18.2,18.1"
  />
<ellipse
    fill="#C8B100"
    stroke="#000000"
    stroke-width="1.652698e-02"
    cx="18.1"
    cy="18.1"
    rx="0"
    ry="0"
  />
<path
    fill="#C8B100"
    stroke="#000000"
    stroke-width="1.652698e-02"
    d="M18.2,18.2C18.2,18.1,18.2,18.1,18.2,18.2
	C18.2,18.1,18.2,18.1,18.2,18.2C18.2,18.2,18.2,18.2,18.2,18.2C18.2,18.2,18.2,18.2,18.2,18.2z"
  />
<path
    fill="#C8B100"
    stroke="#000000"
    stroke-width="1.652698e-02"
    d="M18.4,18.2C18.4,18.2,18.4,18.1,18.4,18.2
	C18.4,18.1,18.5,18.1,18.4,18.2C18.5,18.1,18.4,18.1,18.4,18.2C18.4,18.1,18.4,18.1,18.4,18.2L18.4,18.2
	C18.4,18.1,18.4,18.1,18.4,18.2C18.4,18.1,18.4,18.1,18.4,18.2C18.4,18.1,18.4,18.2,18.4,18.2L18.4,18.2z"
  />
<path
    fill="#C8B100"
    stroke="#000000"
    stroke-width="1.652698e-02"
    d="M18.3,18.1L18.3,18.1L18.3,18.1l0.1,0l0,0L18.3,18.1
	L18.3,18.1"
  />
<path
    fill="#C8B100"
    stroke="#000000"
    stroke-width="1.652698e-02"
    d="M18.4,18.1C18.4,18.1,18.4,18.1,18.4,18.1
	C18.3,18.2,18.3,18.2,18.4,18.1C18.3,18.2,18.4,18.2,18.4,18.1C18.4,18.2,18.4,18.2,18.4,18.1z"
  />
<path
    fill="#AD1519"
    stroke="#000000"
    stroke-width="1.652698e-02"
    d="M17.3,18.4L17.3,18.4L17.3,18.4L17.3,18.4L17.3,18.4"
  />
<path
    fill="#058E6E"
    stroke="#000000"
    stroke-width="1.652698e-02"
    d="M17.4,18.3L17.4,18.3C17.4,18.3,17.4,18.3,17.4,18.3
	C17.4,18.3,17.4,18.3,17.4,18.3L17.4,18.3L17.4,18.3C17.5,18.3,17.5,18.3,17.4,18.3C17.5,18.3,17.5,18.3,17.4,18.3L17.4,18.3"
  />
<ellipse
    fill="#FFFFFF"
    stroke="#000000"
    stroke-width="1.652698e-02"
    cx="17.6"
    cy="18.3"
    rx="0"
    ry="0"
  />
<path
    fill="#AD1519"
    stroke="#000000"
    stroke-width="1.652698e-02"
    d="M17.7,18.3L17.7,18.3C17.7,18.3,17.7,18.3,17.7,18.3
	C17.7,18.3,17.7,18.3,17.7,18.3L17.7,18.3C17.8,18.3,17.8,18.3,17.7,18.3C17.8,18.3,17.8,18.3,17.7,18.3L17.7,18.3"
  />
<ellipse
    fill="#FFFFFF"
    stroke="#000000"
    stroke-width="1.652698e-02"
    cx="17.9"
    cy="18.3"
    rx="0"
    ry="0"
  />
<path
    fill="#058E6E"
    stroke="#000000"
    stroke-width="1.652698e-02"
    d="M18,18.3L18,18.3C18.1,18.3,18.1,18.3,18,18.3
	C18.1,18.3,18.1,18.3,18,18.3L18,18.3L18,18.3C18,18.3,18,18.3,18,18.3C18,18.3,18,18.3,18,18.3L18,18.3"
  />
<path
    fill="#AD1519"
    stroke="#000000"
    stroke-width="1.652698e-02"
    d="M18.2,18.4L18.2,18.4L18.2,18.4L18.2,18.4L18.2,18.4"
  />
<path
    fill="#AD1519"
    stroke="#000000"
    stroke-width="1.652698e-02"
    stroke-linejoin="round"
    d="M17.7,18.5c-0.2,0-0.3,0-0.4,0
	C17.4,18.4,17.6,18.4,17.7,18.5c0.2-0.1,0.3-0.1,0.4,0C18,18.5,17.9,18.5,17.7,18.5z"
  />
<path
    fill="none"
    stroke="#000000"
    stroke-width="6.356532e-04"
    d="M17.8,18.5L17.8,18.5 M17.8,18.5L17.8,18.5 M17.7,18.5L17.7,18.5
	"
  />
<path
    fill="none"
    stroke="#000000"
    stroke-width="1.271306e-03"
    d="M17.7,18.5L17.7,18.5"
  />
<path
    fill="none"
    stroke="#000000"
    stroke-width="1.906960e-03"
    d="M17.7,18.5L17.7,18.5"
  />
<path
    fill="none"
    stroke="#000000"
    stroke-width="2.542613e-03"
    d="M17.7,18.5L17.7,18.5"
  />
<path
    fill="none"
    stroke="#000000"
    stroke-width="2.542613e-03"
    d="M17.7,18.5L17.7,18.5"
  />
<path
    fill="none"
    stroke="#000000"
    stroke-width="3.178266e-03"
    d="M17.6,18.5L17.6,18.5"
  />
<path
    fill="none"
    stroke="#000000"
    stroke-width="3.813919e-03"
    d="M17.6,18.5L17.6,18.5 M17.6,18.5L17.6,18.5"
  />
<path
    fill="none"
    stroke="#000000"
    stroke-width="4.449572e-03"
    d="M17.6,18.5L17.6,18.5 M17.6,18.5L17.6,18.5"
  />
<path
    fill="none"
    stroke="#000000"
    stroke-width="5.085226e-03"
    d="M17.5,18.5L17.5,18.5 M17.5,18.5L17.5,18.5 M17.6,18.5L17.6,18.5
	"
  />
<path
    fill="none"
    stroke="#000000"
    stroke-width="5.720879e-03"
    d="M17.5,18.5L17.5,18.5"
  />
<path
    fill="none"
    stroke="#000000"
    stroke-width="6.356532e-03"
    d="M17.5,18.5L17.5,18.5"
  />
<path
    fill="none"
    stroke="#000000"
    stroke-width="6.992185e-03"
    d="M17.5,18.5L17.5,18.5"
  />
<path
    fill="none"
    stroke="#000000"
    stroke-width="7.627838e-03"
    d="M17.5,18.5L17.5,18.5 M17.5,18.5L17.5,18.5"
  />
<path
    fill="none"
    stroke="#000000"
    stroke-width="7.627838e-03"
    d="M17.4,18.5L17.4,18.5"
  />
<path
    fill="none"
    stroke="#000000"
    stroke-width="8.263491e-03"
    d="M17.4,18.5L17.4,18.5"
  />
<path
    fill="none"
    stroke="#000000"
    stroke-width="8.899145e-03"
    d="M17.4,18.5L17.4,18.5"
  />
<path
    fill="none"
    stroke="#000000"
    stroke-width="9.534799e-03"
    d="M17.4,18.5L17.4,18.5"
  />
<path
    fill="none"
    stroke="#000000"
    stroke-width="1.144176e-02"
    d="M17.4,18.5L17.4,18.5"
  />
<path
    fill="#005BBF"
    stroke="#000000"
    stroke-width="2.479048e-02"
    d="M18.7,25.1c-0.1,0-0.2,0-0.2-0.1c-0.1,0-0.2-0.1-0.2-0.1
	c-0.1,0-0.2,0-0.2,0.1c-0.1,0-0.2,0.1-0.2,0.1c-0.1,0-0.2,0-0.2-0.1c-0.1,0-0.1-0.1-0.2-0.1c-0.1,0-0.2,0-0.2,0.1
	c-0.1,0-0.2,0.1-0.3,0.1v0.2c0.1,0,0.2,0,0.3-0.1c0.1,0,0.1-0.1,0.2-0.1c0.1,0,0.2,0,0.2,0.1c0.1,0,0.2,0.1,0.2,0.1
	c0.1,0,0.2,0,0.2-0.1c0.1,0,0.2-0.1,0.2-0.1c0.1,0,0.2,0,0.2,0.1c0.1,0,0.2,0.1,0.2,0.1L18.7,25.1L18.7,25.1z"
  />
<path
    fill="#CCCCCC"
    stroke="#000000"
    stroke-width="2.479048e-02"
    d="M18.7,25.3c-0.1,0-0.2,0-0.2-0.1c-0.1,0-0.2-0.1-0.2-0.1
	c-0.1,0-0.2,0-0.2,0.1c-0.1,0-0.2,0.1-0.2,0.1c-0.1,0-0.2,0-0.2-0.1c-0.1,0-0.1-0.1-0.2-0.1c-0.1,0-0.2,0-0.2,0.1
	c-0.1,0-0.2,0.1-0.3,0.1v0.2c0.1,0,0.2,0,0.3-0.1c0.1,0,0.1-0.1,0.2-0.1c0.1,0,0.2,0,0.2,0.1c0.1,0,0.2,0.1,0.2,0.1
	c0.1,0,0.2,0,0.2-0.1c0.1,0,0.2-0.1,0.2-0.1c0.1,0,0.2,0,0.2,0.1c0.1,0,0.2,0.1,0.2,0.1L18.7,25.3"
  />
<path
    fill="#005BBF"
    stroke="#000000"
    stroke-width="2.479048e-02"
    d="M18.7,25.4c-0.1,0-0.2,0-0.2-0.1c-0.1,0-0.2-0.1-0.2-0.1
	c-0.1,0-0.2,0-0.2,0.1c-0.1,0-0.2,0.1-0.2,0.1c-0.1,0-0.2,0-0.2-0.1c-0.1,0-0.1-0.1-0.2-0.1c-0.1,0-0.2,0-0.2,0.1
	c-0.1,0-0.2,0.1-0.3,0.1v0.2c0.1,0,0.2,0,0.3-0.1c0.1,0,0.1-0.1,0.2-0.1c0.1,0,0.2,0,0.2,0.1c0.1,0,0.2,0.1,0.2,0.1
	c0.1,0,0.2,0,0.2-0.1c0.1,0,0.2-0.1,0.2-0.1c0.1,0,0.2,0,0.2,0.1c0.1,0,0.2,0.1,0.2,0.1L18.7,25.4"
  />
<path
    fill="#CCCCCC"
    stroke="#000000"
    stroke-width="2.479048e-02"
    d="M18.7,25.7c-0.1,0-0.2,0-0.2-0.1c-0.1,0-0.2-0.1-0.2-0.1
	c-0.1,0-0.2,0-0.2,0.1c-0.1,0-0.2,0.1-0.2,0.1c-0.1,0-0.2,0-0.2-0.1c-0.1,0-0.1-0.1-0.2-0.1c-0.1,0-0.2,0-0.2,0.1
	c-0.1,0-0.2,0.1-0.3,0.1v-0.2c0.1,0,0.2,0,0.3-0.1c0.1,0,0.1-0.1,0.2-0.1c0.1,0,0.2,0,0.2,0.1c0.1,0,0.2,0.1,0.2,0.1
	c0.1,0,0.2,0,0.2-0.1c0.1,0,0.2-0.1,0.2-0.1c0.1,0,0.2,0,0.2,0.1c0.1,0,0.2,0.1,0.2,0.1L18.7,25.7"
  />
<path
    fill="#005BBF"
    stroke="#000000"
    stroke-width="2.479048e-02"
    d="M18.7,25.9c-0.1,0-0.2,0-0.2-0.1c-0.1,0-0.2-0.1-0.2-0.1
	c-0.1,0-0.2,0-0.2,0.1c-0.1,0-0.2,0.1-0.2,0.1c-0.1,0-0.2,0-0.2-0.1c-0.1,0-0.1-0.1-0.2-0.1c-0.1,0-0.2,0-0.2,0.1
	c-0.1,0-0.2,0.1-0.3,0.1v-0.2c0.1,0,0.2,0,0.3-0.1c0.1,0,0.1-0.1,0.2-0.1c0.1,0,0.2,0,0.2,0.1c0.1,0,0.2,0.1,0.2,0.1
	c0.1,0,0.2,0,0.2-0.1c0.1,0,0.2-0.1,0.2-0.1c0.1,0,0.2,0,0.2,0.1c0.1,0,0.2,0.1,0.2,0.1L18.7,25.9L18.7,25.9z"
  />
<path
    fill="#C8B100"
    stroke="#000000"
    stroke-width="2.479048e-02"
    stroke-linejoin="round"
    d="M17.2,24.5
	C17.2,24.5,17.2,24.5,17.2,24.5c0,0.1-0.1,0.2-0.2,0.2h1.5c-0.1,0-0.2-0.1-0.2-0.2c0,0,0,0,0,0c0,0,0,0,0,0L17.2,24.5
	C17.2,24.5,17.2,24.5,17.2,24.5z"
  />
<path
    fill="#C8B100"
    stroke="#000000"
    stroke-width="2.479048e-02"
    d="M17.2,24.4h1.1c0,0,0.1,0,0.1,0c0,0,0,0.1-0.1,0.1L17.2,24.4
	C17.2,24.5,17.1,24.5,17.2,24.4C17.1,24.4,17.2,24.4,17.2,24.4z"
  />
<path
    fill="#C8B100"
    stroke="#000000"
    stroke-width="2.479048e-02"
    d="M17,25.1h1.5v-0.4H17V25.1z"
  />
<path
    fill="#CCCCCC"
    stroke="#000000"
    stroke-width="2.479048e-02"
    d="M17.2,24.3h1v-5.1h-1V24.3z"
  />
<path
    fill="none"
    stroke="#000000"
    stroke-width="2.479048e-02"
    d="M18,19.3v5.1 M18.1,19.3v5.1"
  />
<path
    fill="#C8B100"
    stroke="#000000"
    stroke-width="2.479048e-02"
    d="M17,18.9h1.4v-0.4H17V18.9L17,18.9z"
  />
<path
    fill="#C8B100"
    stroke="#000000"
    stroke-width="2.479048e-02"
    stroke-linejoin="round"
    d="M17.2,19.1
	C17.2,19.1,17.2,19.1,17.2,19.1l1.1,0c0,0,0,0,0,0c0,0-0.1,0-0.1-0.1s0-0.1,0.1-0.1c0,0,0,0,0,0h-1.1c0,0,0,0,0,0l0,0
	C17.2,19,17.2,19,17.2,19.1C17.2,19.1,17.2,19.1,17.2,19.1L17.2,19.1z"
  />
<path
    fill="#C8B100"
    stroke="#000000"
    stroke-width="2.479048e-02"
    d="M17.2,19.1h1.1c0,0,0.1,0,0.1,0c0,0,0,0.1-0.1,0.1L17.2,19.1
	C17.2,19.2,17.1,19.2,17.2,19.1C17.1,19.1,17.2,19.1,17.2,19.1z"
  />
<path
    fill="#C8B100"
    stroke="#000000"
    stroke-width="2.479048e-02"
    d="M17.2,18.9h1.1c0,0,0.1,0,0.1,0c0,0,0,0-0.1,0L17.2,18.9
	C17.2,19,17.1,18.9,17.2,18.9C17.1,18.9,17.2,18.9,17.2,18.9z"
  />
<path
    fill="#AD1519"
    stroke="#000000"
    stroke-width="2.479048e-02"
    d="M18.6,23.1c0.1,0.1,0.2,0.2,0.2,0.2c0,0-0.1,0.1-0.1,0.1
	c-0.1,0.1-0.2,0.2-0.1,0.3c-0.1-0.1-0.1-0.2-0.1-0.3C18.4,23.3,18.5,23.2,18.6,23.1z"
  />
<path
    fill="#AD1519"
    stroke="#000000"
    stroke-width="2.479048e-02"
    stroke-linejoin="round"
    d="M16.2,21.2c0.2-0.1,0.6-0.2,1-0.2
	c0.2,0,0.3,0,0.5,0c0.6,0.1,1.1,0.4,1.1,0.6c0,0,0,0,0,0c0,0,0.2-0.5,0.2-0.5c0-0.2-0.5-0.5-1.2-0.6c-0.2,0-0.4-0.1-0.6,0
	c-0.4,0-0.8,0.1-1.1,0.1L16.2,21.2"
  />
<path
    fill="#AD1519"
    stroke="#000000"
    stroke-width="2.479048e-02"
    d="M18.3,21.8c0.3,0,0.5-0.1,0.5-0.2c0-0.1-0.1-0.2-0.3-0.3
	c-0.1,0-0.2,0-0.3,0L18.3,21.8"
  />
<path
    fill="#AD1519"
    stroke="#000000"
    stroke-width="2.479048e-02"
    d="M17.2,21.4c-0.2,0-0.3,0.1-0.4,0.1l0,0c0,0.1,0.1,0.2,0.4,0.4
	L17.2,21.4"
  />
<path
    fill="#AD1519"
    stroke="#000000"
    stroke-width="2.479048e-02"
    stroke-linejoin="round"
    d="M18.9,22.8c0-0.1-0.3-0.2-0.6-0.4
	c-0.2-0.1-0.3-0.1-0.5-0.2c-0.5-0.2-1-0.5-0.9-0.6l0,0c0,0-0.1,0.5-0.1,0.5c0,0.1,0.3,0.4,0.8,0.6c0.2,0.1,0.5,0.2,0.7,0.3
	c0.3,0.1,0.6,0.3,0.5,0.4L18.9,22.8L18.9,22.8L18.9,22.8z"
  />
<path
    fill="#C8B100"
    d="M7.7,20.9c0.1,0,0.2-0.1,0.2-0.2c0-0.1-0.1-0.1-0.2,0l-0.2,0.1l0.2,0.4c0,0,0,0,0.1,0c0,0,0,0,0.1,0
	L7.7,20.9L7.7,20.9L7.7,20.9z M7.6,20.8L7.6,20.8c0.1,0,0.1,0,0.1,0c0,0,0,0.1,0,0.1c0,0,0,0,0,0L7.6,20.8"
  />
<path
    fill="#C8B100"
    d="M8.1,20.6C8.1,20.6,8,20.6,8.1,20.6c-0.1,0-0.1,0-0.1,0L8.1,21L8.3,21c0,0,0,0,0,0c0,0,0,0,0,0
	c0,0-0.1,0-0.2,0L8.1,20.6"
  />
<path
    fill="#C8B100"
    d="M8.6,20.9c0.1-0.1,0.1-0.3,0.2-0.4c0,0,0,0,0,0c0,0,0,0,0,0c0,0.1-0.1,0.2-0.1,0.3c-0.1-0.1-0.1-0.2-0.2-0.3
	c0,0,0,0-0.1,0c0,0,0,0-0.1,0C8.4,20.7,8.5,20.8,8.6,20.9C8.6,20.9,8.6,20.9,8.6,20.9C8.6,20.9,8.6,20.9,8.6,20.9"
  />
<path
    fill="#C8B100"
    d="M9.2,20.6C9.2,20.6,9.2,20.6,9.2,20.6C9.2,20.6,9.2,20.5,9.2,20.6c-0.2-0.1-0.3-0.1-0.3,0
	c0,0.1,0.2,0.1,0.2,0.2c0,0,0,0.1-0.1,0.1c-0.1,0-0.1,0-0.1-0.1l0,0c0,0,0,0,0,0.1c0,0,0.1,0,0.1,0c0.1,0,0.2,0,0.2-0.1
	c0-0.1-0.2-0.1-0.2-0.2C9,20.6,9.1,20.6,9.2,20.6C9.2,20.6,9.2,20.6,9.2,20.6L9.2,20.6"
  />
<path
    fill="#C8B100"
    d="M16.8,21c0-0.1,0.1-0.3,0.1-0.4c0,0,0,0,0,0c0,0,0,0,0,0c0,0.1-0.1,0.2-0.1,0.3c-0.1-0.1-0.1-0.2-0.2-0.3
	c0,0,0,0-0.1,0c0,0,0,0-0.1,0C16.6,20.7,16.7,20.8,16.8,21C16.8,21,16.8,21,16.8,21C16.8,21,16.8,21,16.8,21"
  />
<path
    fill="#C8B100"
    d="M17.2,20.5C17.2,20.5,17.2,20.5,17.2,20.5c-0.1,0-0.1,0-0.1,0l0,0.4l0.3,0c0,0,0,0,0,0c0,0,0,0,0,0
	c-0.1,0-0.1,0-0.2,0L17.2,20.5"
  />
<path
    fill="#C8B100"
    d="M17.7,20.6c0,0,0.1,0,0.1,0c0,0,0,0,0,0c0,0,0,0,0,0l-0.4,0c0,0,0,0,0,0c0,0,0,0,0,0c0,0,0.1,0,0.1,0l0,0.4
	c0,0,0,0,0.1,0c0,0,0,0,0.1,0L17.7,20.6"
  />
<path
    fill="#C8B100"
    d="M17.8,21C17.8,21,17.9,21,17.8,21c0.1,0,0.1,0,0.1,0l0-0.2l0,0c0,0,0,0.1,0,0.1l0.1,0.1c0,0,0,0,0.1,0
	c0,0,0,0,0.1,0l0,0c0-0.1-0.1-0.1-0.1-0.2c0.1,0,0.1,0,0.1-0.1c0,0,0-0.1,0-0.1c0,0-0.1,0-0.1,0l-0.2,0L17.8,21 M18,20.6
	c0,0,0.1,0,0.1,0.1C18.1,20.7,18.1,20.7,18,20.6c0.1,0.2,0,0.2,0,0.2L18,20.6"
  />
<path
    fill="#C8B100"
    d="M18.5,21.1c0,0,0,0.1,0,0.1c0,0,0,0,0.1,0c0,0,0,0,0.1,0l0-0.5c0,0,0,0,0,0c0,0,0,0,0,0l-0.4,0.3
	c0,0,0,0,0,0c0,0,0,0,0,0c0,0,0.1-0.1,0.1-0.1L18.5,21.1L18.5,21.1z M18.4,21l0.1-0.1l0,0.2L18.4,21"
  />
<path
    fill="#AD1519"
    stroke="#000000"
    stroke-width="1.652698e-02"
    d="M13,15.7c0.4,0,0.8,0.1,1,0.2c0.1,0.1,0.3,0.1,0.5,0.1
	c0.2,0,0.3,0,0.4,0c0.2,0,0.4,0,0.7,0.2c0.2,0.1,0.4,0.2,0.5,0.3L16,16.6l0,0.3l-0.3,0.3l-0.1,0.1l-0.3,0.3l-0.2,0l-0.1,0.1L13,17.4
	l-2.1,0.2l-0.1-0.1l-0.2,0l-0.3-0.3l-0.1-0.1l-0.3-0.3l0-0.3l-0.1-0.1c0.1-0.1,0.3-0.2,0.5-0.3c0.3-0.1,0.5-0.2,0.7-0.2
	c0.1,0,0.3,0,0.4,0c0.2,0,0.4-0.1,0.5-0.1C12.2,15.8,12.5,15.7,13,15.7L13,15.7z"
  />
<path
    fill="#C8B100"
    stroke="#000000"
    stroke-width="2.479048e-02"
    d="M11.4,16.3L11.4,16.3l0.2-0.1c-0.1-0.1-0.2-0.2-0.2-0.4
	c0,0,0,0,0-0.1c0-0.3,0.3-0.5,0.8-0.5c0.2,0,0.4,0.1,0.6,0.2c0,0,0-0.1,0-0.1c-0.2-0.1-0.4-0.1-0.6-0.1c-0.5,0-0.9,0.3-0.9,0.6
	c0,0,0,0,0,0.1c0,0.2,0.1,0.3,0.2,0.4L11.4,16.3"
  />
<path
    fill="#C8B100"
    stroke="#000000"
    stroke-width="2.479048e-02"
    d="M11.4,16.3c-0.2-0.1-0.3-0.3-0.3-0.5c0-0.2,0.1-0.4,0.4-0.5
	c-0.1,0.1-0.2,0.2-0.2,0.4c0,0,0,0,0,0.1c0,0.2,0.1,0.3,0.2,0.4L11.4,16.3"
  />
<path
    fill="#C8B100"
    stroke="#000000"
    stroke-width="2.479048e-02"
    d="M9.9,16.5c-0.1-0.1-0.2-0.2-0.2-0.4c0-0.1,0-0.2,0.1-0.3
	c0.1-0.3,0.6-0.5,1.1-0.5c0.1,0,0.3,0,0.4,0c0,0,0,0.1-0.1,0.1c-0.1,0-0.2,0-0.3,0c-0.5,0-0.8,0.2-1,0.4c0,0.1,0,0.1,0,0.2
	c0,0.1,0.1,0.3,0.2,0.4l-0.2,0.3l-0.1-0.1L9.9,16.5L9.9,16.5z"
  />
<path
    fill="#C8B100"
    stroke="#000000"
    stroke-width="2.479048e-02"
    d="M10.1,15.6c-0.1,0.1-0.2,0.2-0.3,0.3c0,0.1-0.1,0.2-0.1,0.3
	c0,0.1,0.1,0.3,0.2,0.4l-0.1,0.2c-0.1-0.1-0.2-0.3-0.2-0.4C9.7,16,9.9,15.7,10.1,15.6L10.1,15.6z"
  />
<path
    fill="#C8B100"
    stroke="#000000"
    stroke-width="2.479048e-02"
    d="M13,15c0.1,0,0.2,0.1,0.2,0.2c0,0.1,0,0.2,0,0.3c0,0,0,0,0,0
	c0,0,0,0,0,0c0,0.2,0,0.4,0.1,0.5L13,16.4l-0.3-0.3c0-0.1,0.1-0.3,0.1-0.5c0,0,0,0,0,0c0,0,0,0,0,0c0-0.1,0-0.2,0-0.3
	C12.8,15.1,12.9,15,13,15L13,15z"
  />
<path
    fill="#C8B100"
    stroke="#000000"
    stroke-width="2.479048e-02"
    d="M13,15.1c0.1,0,0.1,0,0.1,0.1c0,0.1,0,0.2,0,0.3c0,0,0,0,0,0
	c0,0,0,0,0,0c0,0.2,0,0.4,0.1,0.5L13,16.3l-0.2-0.2c0-0.1,0.1-0.3,0.1-0.5c0,0,0,0,0,0c0,0,0,0,0,0c0-0.1,0-0.2,0-0.3
	C12.9,15.1,12.9,15.1,13,15.1z"
  />
<path
    fill="#C8B100"
    stroke="#000000"
    stroke-width="2.479048e-02"
    d="M14.6,16.3L14.6,16.3l-0.2-0.1c0.1-0.1,0.2-0.2,0.2-0.4
	c0,0,0,0,0-0.1c0-0.3-0.3-0.5-0.8-0.5c-0.2,0-0.4,0.1-0.6,0.2c0,0,0-0.1,0-0.1c0.2-0.1,0.4-0.1,0.6-0.1c0.5,0,0.9,0.3,0.9,0.6
	c0,0,0,0,0,0.1c0,0.2-0.1,0.3-0.2,0.4L14.6,16.3"
  />
<path
    fill="#C8B100"
    stroke="#000000"
    stroke-width="2.479048e-02"
    d="M14.5,16.3c0.2-0.1,0.3-0.3,0.3-0.5c0-0.2-0.1-0.4-0.4-0.5
	c0.1,0.1,0.2,0.2,0.2,0.4c0,0,0,0,0,0.1c0,0.2-0.1,0.3-0.2,0.4L14.5,16.3"
  />
<path
    fill="#C8B100"
    stroke="#000000"
    stroke-width="2.479048e-02"
    d="M16,16.5c0.1-0.1,0.2-0.2,0.2-0.4c0-0.1,0-0.2-0.1-0.3
	c-0.1-0.3-0.6-0.5-1.1-0.5c-0.1,0-0.3,0-0.4,0c0,0,0,0.1,0.1,0.1c0.1,0,0.2,0,0.3,0c0.5,0,0.8,0.2,1,0.4c0,0.1,0,0.1,0,0.2
	c0,0.1-0.1,0.3-0.2,0.4l0.2,0.3l0.1-0.1L16,16.5z"
  />
<path
    fill="#C8B100"
    stroke="#000000"
    stroke-width="2.479048e-02"
    d="M15.9,15.6c0.1,0.1,0.2,0.2,0.3,0.3c0,0.1,0.1,0.2,0.1,0.3
	c0,0.1-0.1,0.3-0.2,0.4l0.1,0.2c0.1-0.1,0.2-0.3,0.2-0.4C16.3,16,16.1,15.7,15.9,15.6L15.9,15.6z"
  />
<ellipse
    fill="#005BBF"
    stroke="#000000"
    stroke-width="1.652698e-02"
    cx="13"
    cy="14.7"
    rx="0.3"
    ry="0.3"
  />
<path
    fill="#C8B100"
    stroke="#000000"
    stroke-width="1.652698e-02"
    d="M12.9,14v0.1h-0.2v0.1h0.2v0.2v0.2h-0.2c0,0,0,0,0,0
	c0,0,0,0.1,0,0.1c0,0,0,0,0,0h0.5c0,0,0,0,0,0c0,0,0-0.1,0-0.1c0,0,0,0,0,0h-0.2v-0.2v-0.2h0.2v-0.1h-0.2V14L12.9,14L12.9,14z"
  />
<ellipse
    fill="#FFFFFF"
    stroke="#000000"
    stroke-width="2.479048e-02"
    cx="13"
    cy="16.1"
    rx="0.1"
    ry="0.1"
  />
<ellipse
    fill="#FFFFFF"
    stroke="#000000"
    stroke-width="2.479048e-02"
    cx="13"
    cy="15.9"
    rx="0.1"
    ry="0.1"
  />
<ellipse
    fill="#FFFFFF"
    stroke="#000000"
    stroke-width="2.479048e-02"
    cx="13"
    cy="15.7"
    rx="0.1"
    ry="0.1"
  />
<ellipse
    fill="#FFFFFF"
    stroke="#000000"
    stroke-width="2.479048e-02"
    cx="13"
    cy="15.4"
    rx="0.1"
    ry="0.1"
  />
<ellipse
    fill="#FFFFFF"
    stroke="#000000"
    stroke-width="2.479048e-02"
    cx="13"
    cy="15.2"
    rx="0.1"
    ry="0.1"
  />
<ellipse
    fill="#FFFFFF"
    stroke="#000000"
    stroke-width="2.479048e-02"
    cx="9.7"
    cy="16.7"
    rx="0.1"
    ry="0.1"
  />
<ellipse
    fill="#FFFFFF"
    stroke="#000000"
    stroke-width="2.479048e-02"
    cx="9.6"
    cy="16.6"
    rx="0.1"
    ry="0.1"
  />
<ellipse
    fill="#FFFFFF"
    stroke="#000000"
    stroke-width="2.479048e-02"
    cx="9.6"
    cy="16.4"
    rx="0.1"
    ry="0.1"
  />
<ellipse
    fill="#FFFFFF"
    stroke="#000000"
    stroke-width="2.479048e-02"
    cx="9.6"
    cy="16.2"
    rx="0.1"
    ry="0.1"
  />
<ellipse
    fill="#FFFFFF"
    stroke="#000000"
    stroke-width="2.479048e-02"
    cx="9.6"
    cy="16"
    rx="0.1"
    ry="0.1"
  />
<ellipse
    fill="#FFFFFF"
    stroke="#000000"
    stroke-width="2.479048e-02"
    cx="9.7"
    cy="15.8"
    rx="0.1"
    ry="0.1"
  />
<ellipse
    fill="#FFFFFF"
    stroke="#000000"
    stroke-width="2.479048e-02"
    cx="9.9"
    cy="15.6"
    rx="0.1"
    ry="0.1"
  />
<ellipse
    fill="#FFFFFF"
    stroke="#000000"
    stroke-width="2.479048e-02"
    cx="10"
    cy="15.5"
    rx="0.1"
    ry="0.1"
  />
<ellipse
    fill="#FFFFFF"
    stroke="#000000"
    stroke-width="2.479048e-02"
    cx="10.2"
    cy="15.4"
    rx="0.1"
    ry="0.1"
  />
<ellipse
    fill="#FFFFFF"
    stroke="#000000"
    stroke-width="2.479048e-02"
    cx="10.4"
    cy="15.3"
    rx="0.1"
    ry="0.1"
  />
<ellipse
    fill="#FFFFFF"
    stroke="#000000"
    stroke-width="2.479048e-02"
    cx="10.7"
    cy="15.3"
    rx="0.1"
    ry="0.1"
  />
<ellipse
    fill="#FFFFFF"
    stroke="#000000"
    stroke-width="2.479048e-02"
    cx="10.9"
    cy="15.3"
    rx="0.1"
    ry="0.1"
  />
<ellipse
    fill="#FFFFFF"
    stroke="#000000"
    stroke-width="2.479048e-02"
    cx="11.1"
    cy="15.3"
    rx="0.1"
    ry="0.1"
  />
<ellipse
    fill="#FFFFFF"
    stroke="#000000"
    stroke-width="2.479048e-02"
    cx="11.3"
    cy="16.2"
    rx="0.1"
    ry="0.1"
  />
<ellipse
    fill="#FFFFFF"
    stroke="#000000"
    stroke-width="2.479048e-02"
    cx="11.2"
    cy="16"
    rx="0.1"
    ry="0.1"
  />
<ellipse
    fill="#FFFFFF"
    stroke="#000000"
    stroke-width="2.479048e-02"
    cx="11.2"
    cy="15.9"
    rx="0.1"
    ry="0.1"
  />
<ellipse
    fill="#FFFFFF"
    stroke="#000000"
    stroke-width="2.479048e-02"
    cx="11.2"
    cy="15.7"
    rx="0.1"
    ry="0.1"
  />
<ellipse
    fill="#FFFFFF"
    stroke="#000000"
    stroke-width="2.479048e-02"
    cx="11.2"
    cy="15.5"
    rx="0.1"
    ry="0.1"
  />
<ellipse
    fill="#FFFFFF"
    stroke="#000000"
    stroke-width="2.479048e-02"
    cx="11.3"
    cy="15.3"
    rx="0.1"
    ry="0.1"
  />
<ellipse
    fill="#FFFFFF"
    stroke="#000000"
    stroke-width="2.479048e-02"
    cx="11.5"
    cy="15.1"
    rx="0.1"
    ry="0.1"
  />
<ellipse
    fill="#FFFFFF"
    stroke="#000000"
    stroke-width="2.479048e-02"
    cx="11.7"
    cy="15"
    rx="0.1"
    ry="0.1"
  />
<ellipse
    fill="#FFFFFF"
    stroke="#000000"
    stroke-width="2.479048e-02"
    cx="11.9"
    cy="15"
    rx="0.1"
    ry="0.1"
  />
<ellipse
    fill="#FFFFFF"
    stroke="#000000"
    stroke-width="2.479048e-02"
    cx="12.1"
    cy="14.9"
    rx="0.1"
    ry="0.1"
  />
<ellipse
    fill="#FFFFFF"
    stroke="#000000"
    stroke-width="2.479048e-02"
    cx="12.3"
    cy="14.9"
    rx="0.1"
    ry="0.1"
  />
<ellipse
    fill="#FFFFFF"
    stroke="#000000"
    stroke-width="2.479048e-02"
    cx="12.5"
    cy="15"
    rx="0.1"
    ry="0.1"
  />
<ellipse
    fill="#FFFFFF"
    stroke="#000000"
    stroke-width="2.479048e-02"
    cx="12.7"
    cy="15"
    rx="0.1"
    ry="0.1"
  />
<ellipse
    fill="#FFFFFF"
    stroke="#000000"
    stroke-width="2.479048e-02"
    cx="13.2"
    cy="15"
    rx="0.1"
    ry="0.1"
  />
<ellipse
    fill="#FFFFFF"
    stroke="#000000"
    stroke-width="2.479048e-02"
    cx="13.4"
    cy="15"
    rx="0.1"
    ry="0.1"
  />
<ellipse
    fill="#FFFFFF"
    stroke="#000000"
    stroke-width="2.479048e-02"
    cx="13.7"
    cy="14.9"
    rx="0.1"
    ry="0.1"
  />
<ellipse
    fill="#FFFFFF"
    stroke="#000000"
    stroke-width="2.479048e-02"
    cx="13.9"
    cy="14.9"
    rx="0.1"
    ry="0.1"
  />
<ellipse
    fill="#FFFFFF"
    stroke="#000000"
    stroke-width="2.479048e-02"
    cx="14.1"
    cy="15"
    rx="0.1"
    ry="0.1"
  />
<ellipse
    fill="#FFFFFF"
    stroke="#000000"
    stroke-width="2.479048e-02"
    cx="14.3"
    cy="15"
    rx="0.1"
    ry="0.1"
  />
<ellipse
    fill="#FFFFFF"
    stroke="#000000"
    stroke-width="2.479048e-02"
    cx="14.5"
    cy="15.1"
    rx="0.1"
    ry="0.1"
  />
<ellipse
    fill="#FFFFFF"
    stroke="#000000"
    stroke-width="2.479048e-02"
    cx="14.6"
    cy="15.3"
    rx="0.1"
    ry="0.1"
  />
<ellipse
    fill="#FFFFFF"
    stroke="#000000"
    stroke-width="2.479048e-02"
    cx="14.8"
    cy="15.5"
    rx="0.1"
    ry="0.1"
  />
<ellipse
    fill="#FFFFFF"
    stroke="#000000"
    stroke-width="2.479048e-02"
    cx="14.8"
    cy="15.7"
    rx="0.1"
    ry="0.1"
  />
<ellipse
    fill="#FFFFFF"
    stroke="#000000"
    stroke-width="2.479048e-02"
    cx="14.8"
    cy="15.9"
    rx="0.1"
    ry="0.1"
  />
<ellipse
    fill="#FFFFFF"
    stroke="#000000"
    stroke-width="2.479048e-02"
    cx="14.7"
    cy="16"
    rx="0.1"
    ry="0.1"
  />
<ellipse
    fill="#FFFFFF"
    stroke="#000000"
    stroke-width="2.479048e-02"
    cx="14.6"
    cy="16.2"
    rx="0.1"
    ry="0.1"
  />
<ellipse
    fill="#FFFFFF"
    stroke="#000000"
    stroke-width="2.479048e-02"
    cx="14.9"
    cy="15.3"
    rx="0.1"
    ry="0.1"
  />
<ellipse
    fill="#FFFFFF"
    stroke="#000000"
    stroke-width="2.479048e-02"
    cx="15.1"
    cy="15.3"
    rx="0.1"
    ry="0.1"
  />
<ellipse
    fill="#FFFFFF"
    stroke="#000000"
    stroke-width="2.479048e-02"
    cx="15.3"
    cy="15.3"
    rx="0.1"
    ry="0.1"
  />
<ellipse
    fill="#FFFFFF"
    stroke="#000000"
    stroke-width="2.479048e-02"
    cx="15.5"
    cy="15.3"
    rx="0.1"
    ry="0.1"
  />
<ellipse
    fill="#FFFFFF"
    stroke="#000000"
    stroke-width="2.479048e-02"
    cx="15.7"
    cy="15.4"
    rx="0.1"
    ry="0.1"
  />
<ellipse
    fill="#FFFFFF"
    stroke="#000000"
    stroke-width="2.479048e-02"
    cx="15.9"
    cy="15.5"
    rx="0.1"
    ry="0.1"
  />
<ellipse
    fill="#FFFFFF"
    stroke="#000000"
    stroke-width="2.479048e-02"
    cx="16.1"
    cy="15.6"
    rx="0.1"
    ry="0.1"
  />
<ellipse
    fill="#FFFFFF"
    stroke="#000000"
    stroke-width="2.479048e-02"
    cx="16.2"
    cy="15.8"
    rx="0.1"
    ry="0.1"
  />
<ellipse
    fill="#FFFFFF"
    stroke="#000000"
    stroke-width="2.479048e-02"
    cx="16.3"
    cy="16"
    rx="0.1"
    ry="0.1"
  />
<ellipse
    fill="#FFFFFF"
    stroke="#000000"
    stroke-width="2.479048e-02"
    cx="16.4"
    cy="16.2"
    rx="0.1"
    ry="0.1"
  />
<ellipse
    fill="#FFFFFF"
    stroke="#000000"
    stroke-width="2.479048e-02"
    cx="16.4"
    cy="16.4"
    rx="0.1"
    ry="0.1"
  />
<ellipse
    fill="#FFFFFF"
    stroke="#000000"
    stroke-width="2.479048e-02"
    cx="16.3"
    cy="16.6"
    rx="0.1"
    ry="0.1"
  />
<ellipse
    fill="#FFFFFF"
    stroke="#000000"
    stroke-width="2.479048e-02"
    cx="16.2"
    cy="16.7"
    rx="0.1"
    ry="0.1"
  />
<path
    fill="#C8B100"
    stroke="#000000"
    stroke-width="2.479048e-02"
    d="M13,18.5c-0.8,0-1.5-0.1-2-0.2c0,0-0.1,0-0.1-0.1
	c0,0,0-0.1,0.1-0.1c0.5-0.2,1.2-0.2,2-0.2c0.8,0,1.5,0.1,2,0.2c0,0,0.1,0,0.1,0.1c0,0,0,0.1-0.1,0.1C14.5,18.4,13.8,18.5,13,18.5"
  />
<path
    fill="#C8B100"
    stroke="#000000"
    stroke-width="2.479048e-02"
    d="M13,17.8c-0.8,0-1.5,0.1-2,0.3c0,0,0-0.1,0-0.2
	c-0.1-0.2-0.2-0.2-0.2-0.2c0.6-0.2,1.3-0.3,2.2-0.3c0.9,0,1.6,0.1,2.2,0.3c0,0-0.1,0-0.2,0.2C15,18,15,18.1,15,18.1
	C14.5,17.9,13.8,17.9,13,17.8"
  />
<path
    fill="#C8B100"
    stroke="#000000"
    stroke-width="2.479048e-02"
    d="M13,17.5c-0.9,0-1.6,0.1-2.2,0.3c0,0-0.1,0-0.1,0
	c0,0,0-0.1,0-0.1c0.6-0.2,1.3-0.3,2.2-0.3c0.9,0,1.7,0.1,2.2,0.3c0,0,0.1,0.1,0,0.1c0,0-0.1,0-0.1,0C14.6,17.6,13.8,17.5,13,17.5"
  />
<path
    fill="#C8B100"
    stroke="#000000"
    stroke-width="2.479048e-02"
    d="M13,16.8L13,16.8c0.1,0,0.1,0.1,0.1,0.1
	c0,0.2,0.1,0.3,0.3,0.3c0.1,0,0.3-0.1,0.3-0.2c0,0,0-0.1,0-0.1c0,0,0,0.1,0,0.1c0,0.1,0.2,0.2,0.3,0.2c0.2,0,0.3-0.1,0.3-0.3
	c0,0,0,0,0,0l0.1-0.1l0.1,0.1c0,0,0,0.1,0,0.1c0,0.2,0.1,0.3,0.3,0.3c0.1,0,0.2,0,0.2-0.1l0.1-0.1l0,0.1c0,0.1,0,0.2,0.1,0.2
	c0,0,0.1,0,0.3-0.1c0.1-0.1,0.2-0.2,0.2-0.2l0,0.1c0,0-0.1,0.2-0.3,0.3c-0.1,0-0.2,0.1-0.3,0.1c-0.1,0-0.2-0.1-0.2-0.2
	c-0.1,0-0.1,0.1-0.2,0.1c-0.2,0-0.3-0.1-0.4-0.2c-0.1,0.1-0.2,0.1-0.3,0.1c-0.1,0-0.3-0.1-0.4-0.2c-0.1,0.1-0.2,0.1-0.3,0.1
	c-0.2,0-0.3-0.1-0.4-0.2c-0.1,0.1-0.2,0.2-0.4,0.2c-0.1,0-0.2,0-0.3-0.1c-0.1,0.1-0.2,0.2-0.4,0.2c-0.1,0-0.2-0.1-0.3-0.1
	c-0.1,0.1-0.2,0.2-0.4,0.2c-0.1,0-0.2,0-0.2-0.1c0,0.1-0.1,0.2-0.2,0.2c-0.1,0-0.2,0-0.3-0.1c-0.1-0.1-0.3-0.3-0.3-0.3l0-0.1
	c0,0,0.1,0.1,0.2,0.2c0.1,0.1,0.3,0.1,0.3,0.1c0.1,0,0.1-0.1,0.1-0.2l0-0.1l0.1,0.1c0.1,0.1,0.1,0.1,0.2,0.1c0.2,0,0.3-0.1,0.3-0.3
	c0,0,0-0.1,0-0.1l0.1-0.1l0.1,0.1c0,0,0,0,0,0c0,0.2,0.1,0.3,0.3,0.3c0.2,0,0.3-0.1,0.3-0.2c0,0,0-0.1,0-0.1c0,0,0,0.1,0,0.1
	c0,0.1,0.2,0.2,0.3,0.2c0.2,0,0.3-0.1,0.3-0.3C12.9,16.9,12.9,16.9,13,16.8L13,16.8"
  />
<path
    fill="#C8B100"
    stroke="#000000"
    stroke-width="2.479048e-02"
    d="M10.3,17.2C10.3,17.2,10.3,17.2,10.3,17.2
	c-0.1-0.1-0.2-0.1-0.2-0.1c0,0,0,0,0,0c0,0-0.1-0.1-0.2-0.2c-0.1,0-0.2,0-0.2,0c0-0.1,0.1-0.2,0.2-0.2c0.1,0,0.1,0,0.2,0.1l0-0.1
	c0,0,0.1,0,0.1,0.1c0,0.1,0,0.2,0,0.2s0-0.1,0.1-0.1c0,0,0.1-0.1,0.2-0.1c0,0,0.1-0.1,0.1-0.1s0,0,0,0c0,0,0,0.1,0,0.1
	c0.1,0,0.2,0,0.2,0c0,0.1-0.1,0.1-0.2,0.1c0,0,0,0,0.1,0c0,0,0,0,0,0s-0.1,0-0.1,0c0,0-0.1,0-0.2,0C10.4,17.2,10.4,17.2,10.3,17.2"
  />
<path
    fill="#AD1519"
    stroke="#000000"
    stroke-width="2.479048e-02"
    d="M10.1,17.1c0,0,0.1,0,0.2,0c0.1,0,0.1,0.1,0,0.1
	c0,0-0.1,0-0.2,0C10.1,17.2,10.1,17.2,10.1,17.1"
  />
<path
    fill="#FFFFFF"
    stroke="#000000"
    stroke-width="2.479048e-02"
    d="M10.8,17.2c0-0.1,0-0.1,0-0.1c0,0,0.1,0,0.1,0.1
	c0,0.1,0,0.1,0,0.1C10.9,17.3,10.9,17.3,10.8,17.2"
  />
<path
    fill="#C8B100"
    stroke="#000000"
    stroke-width="2.479048e-02"
    d="M11.5,16.9C11.4,16.9,11.4,16.9,11.5,16.9c0-0.1,0-0.1,0-0.1
	c0,0-0.1,0-0.1,0c0,0-0.1,0-0.2,0c0,0-0.1,0-0.1,0s0,0,0,0c0,0,0,0,0,0c-0.1,0-0.1,0.1-0.2,0.1c0.1,0,0.1,0.1,0.2,0.1c0,0,0,0,0,0.1
	c0,0,0,0,0,0s0,0,0.1,0C11.3,17.1,11.3,17,11.5,16.9C11.4,17,11.5,16.9,11.5,16.9"
  />
<path
    fill="#C8B100"
    stroke="#000000"
    stroke-width="2.479048e-02"
    d="M11.4,16.3c0.1,0,0.1,0.1,0.1,0.2c0,0,0,0,0,0
	c0,0,0.1,0,0.1,0s0,0.1,0,0.1c0,0,0,0.1,0,0.1c0,0.1,0,0.1,0,0.1c0,0-0.1,0-0.1,0c0,0-0.1,0-0.1,0.1c0,0,0,0-0.1-0.1
	c0-0.1-0.1-0.1-0.1-0.1c0,0,0-0.1,0-0.1s0,0,0.1,0c0,0,0.1,0,0.1,0C11.4,16.4,11.4,16.4,11.4,16.3"
  />
<path
    fill="#C8B100"
    stroke="#000000"
    stroke-width="2.479048e-02"
    d="M11.6,16.9C11.7,16.9,11.7,16.9,11.6,16.9c0-0.1,0-0.1,0-0.1
	c0,0,0,0,0.1-0.1c0,0,0.1-0.1,0.1-0.1c0,0,0.1,0,0.1,0s0,0,0,0c0,0,0,0.1,0,0.1c0.1,0,0.2,0,0.2,0.1c0,0.1-0.1,0.1-0.2,0.1
	c0,0,0,0,0,0c0,0,0,0,0,0s0,0-0.1,0c0,0-0.1,0-0.2,0C11.7,16.9,11.6,16.9,11.6,16.9"
  />
<ellipse
    fill="#AD1519"
    stroke="#000000"
    stroke-width="2.479048e-02"
    cx="11.5"
    cy="16.9"
    rx="0.1"
    ry="0.1"
  />
<path
    fill="#FFFFFF"
    stroke="#000000"
    stroke-width="2.479048e-02"
    d="M12.2,16.9c0-0.1,0-0.1,0.1-0.1c0,0,0.1,0,0.1,0.1
	C12.4,17,12.3,17,12.2,16.9C12.2,17,12.2,17,12.2,16.9"
  />
<path
    fill="#C8B100"
    stroke="#000000"
    stroke-width="2.479048e-02"
    d="M12.9,16.8C12.9,16.8,12.9,16.8,12.9,16.8c0-0.1,0-0.1,0-0.2
	c0,0-0.1,0-0.1-0.1c0,0-0.1,0-0.2,0c0,0-0.1,0-0.1,0s0,0,0,0c0,0,0,0.1,0,0.1c-0.1,0-0.2,0.1-0.2,0.1c0.1,0.1,0.1,0.1,0.2,0.1
	c0,0,0,0,0,0.1c0,0,0,0,0,0s0.1,0,0.1,0c0,0,0.1,0,0.2,0C12.8,16.9,12.9,16.8,12.9,16.8"
  />
<path
    fill="#C8B100"
    stroke="#000000"
    stroke-width="2.479048e-02"
    d="M13,16.1c0.1,0.1,0.1,0.2,0.1,0.2c0,0,0,0,0.1,0
	c0,0,0.1,0,0.1,0s0,0.1,0,0.1c0,0,0,0.1-0.1,0.2c0,0.1-0.1,0.1-0.1,0.1c0,0-0.1,0-0.1,0c0,0-0.1,0-0.1,0c0,0,0,0-0.1-0.1
	c0-0.1,0-0.1-0.1-0.2c0,0,0-0.1,0-0.1s0,0,0.1,0c0,0,0.1,0,0.1,0C12.9,16.2,12.9,16.1,13,16.1"
  />
<path
    fill="#C8B100"
    stroke="#000000"
    stroke-width="2.479048e-02"
    d="M13.1,16.8C13.1,16.8,13.1,16.8,13.1,16.8c0-0.1,0-0.1,0-0.2
	c0,0,0.1,0,0.1-0.1c0,0,0.1,0,0.2,0c0,0,0.1,0,0.1,0s0,0,0,0c0,0,0,0.1,0,0.1c0.1,0,0.2,0.1,0.2,0.1c-0.1,0.1-0.1,0.1-0.2,0.1
	c0,0,0,0,0,0.1c0,0,0,0,0,0l-0.1,0c0,0-0.1,0-0.2,0C13.2,16.9,13.1,16.8,13.1,16.8"
  />
<ellipse
    fill="#AD1519"
    stroke="#000000"
    stroke-width="2.479048e-02"
    cx="13"
    cy="16.7"
    rx="0.1"
    ry="0.1"
  />
<path
    fill="#FFFFFF"
    stroke="#000000"
    stroke-width="2.479048e-02"
    d="M13.8,16.9c0-0.1,0-0.1-0.1-0.1c0,0-0.1,0-0.1,0.1
	C13.6,17,13.7,17,13.8,16.9C13.7,17,13.8,17,13.8,16.9"
  />
<path
    fill="#C8B100"
    stroke="#000000"
    stroke-width="2.479048e-02"
    d="M14.3,16.9C14.3,16.9,14.3,16.9,14.3,16.9c0-0.1,0-0.1,0-0.1
	c0,0,0,0-0.1-0.1c0,0-0.1-0.1-0.1-0.1c0,0-0.1,0-0.1,0s0,0,0,0c0,0,0,0.1,0,0.1c-0.1,0-0.2,0-0.2,0.1c0,0.1,0.1,0.1,0.2,0.1
	c0,0,0,0,0,0c0,0,0,0,0,0l0.1,0c0,0,0.1,0,0.2,0C14.3,16.9,14.3,16.9,14.3,16.9"
  />
<path
    fill="#C8B100"
    stroke="#000000"
    stroke-width="2.479048e-02"
    d="M14.6,16.3c-0.1,0-0.1,0.1-0.1,0.2c0,0,0,0,0,0
	c0,0-0.1,0-0.1,0s0,0.1,0,0.1c0,0,0,0.1,0,0.1c0,0.1,0,0.1,0,0.1c0,0,0.1,0,0.1,0c0,0,0.1,0,0.1,0.1c0,0,0,0,0.1-0.1
	c0-0.1,0.1-0.1,0.1-0.1c0,0,0-0.1,0-0.1s0,0-0.1,0c0,0-0.1,0-0.1,0C14.6,16.4,14.6,16.4,14.6,16.3"
  />
<path
    fill="#C8B100"
    stroke="#000000"
    stroke-width="2.479048e-02"
    d="M14.5,16.9C14.5,16.9,14.6,16.9,14.5,16.9c0-0.1,0-0.1,0-0.1
	c0,0,0.1,0,0.1,0c0,0,0.1,0,0.2,0c0,0,0.1,0,0.1,0s0,0,0,0c0,0,0,0,0,0c0.1,0,0.1,0.1,0.2,0.1C15,17,14.9,17,14.8,17c0,0,0,0,0,0.1
	c0,0,0,0,0,0s0,0-0.1,0C14.7,17.1,14.7,17,14.5,16.9C14.6,17,14.5,16.9,14.5,16.9"
  />
<ellipse
    fill="#AD1519"
    stroke="#000000"
    stroke-width="2.479048e-02"
    cx="14.4"
    cy="16.9"
    rx="0.1"
    ry="0.1"
  />
<path
    fill="#FFFFFF"
    stroke="#000000"
    stroke-width="2.479048e-02"
    d="M15.1,17.2c0-0.1,0-0.1,0-0.1c0,0-0.1,0-0.1,0.1
	c0,0.1,0,0.1,0,0.1C15.1,17.3,15.1,17.3,15.1,17.2"
  />
<path
    fill="#C8B100"
    stroke="#000000"
    stroke-width="2.479048e-02"
    d="M15.6,17.2C15.7,17.2,15.7,17.2,15.6,17.2
	c0.1-0.1,0.2-0.1,0.2-0.1c0,0,0,0,0,0c0,0,0.1-0.1,0.2-0.2c0.1,0,0.2,0,0.2,0c0-0.1-0.1-0.2-0.2-0.2c-0.1,0-0.1,0-0.2,0.1l0-0.1
	c0,0-0.1,0-0.1,0.1c0,0.1,0,0.2,0,0.2s0-0.1-0.1-0.1c0,0-0.1-0.1-0.2-0.1c0,0-0.1-0.1-0.1-0.1s0,0,0,0c0,0,0,0.1,0,0.1
	c-0.1,0-0.2,0-0.2,0c0,0.1,0.1,0.1,0.2,0.1c0,0,0,0-0.1,0c0,0,0,0,0,0s0.1,0,0.1,0c0,0,0.1,0,0.2,0C15.6,17.2,15.6,17.2,15.6,17.2"
  />
<path
    fill="#AD1519"
    stroke="#000000"
    stroke-width="2.479048e-02"
    d="M15.8,17.1c0,0-0.1,0-0.2,0c-0.1,0-0.1,0.1,0,0.1
	c0,0,0.1,0,0.2,0C15.9,17.2,15.9,17.2,15.8,17.1"
  />
<path
    fill="#AD1519"
    stroke="#000000"
    stroke-width="2.479048e-02"
    stroke-linejoin="round"
    d="M13,18.4c-0.7,0-1.3-0.1-1.8-0.2
	c0.5-0.1,1.1-0.2,1.8-0.2c0.7,0,1.3,0.1,1.8,0.2C14.3,18.3,13.7,18.4,13,18.4L13,18.4z"
  />
<path
    fill="none"
    stroke="#000000"
    stroke-width="3.178266e-03"
    d="M13.5,18.4V18 M13.3,18.4l0-0.4 M13.2,18.4V18"
  />
<path
    fill="none"
    stroke="#000000"
    stroke-width="5.720879e-03"
    d="M13,18.4V18"
  />
<path
    fill="none"
    stroke="#000000"
    stroke-width="8.899145e-03"
    d="M12.9,18.4V18"
  />
<path
    fill="none"
    stroke="#000000"
    stroke-width="1.144176e-02"
    d="M12.8,18.4V18"
  />
<path
    fill="none"
    stroke="#000000"
    stroke-width="1.462002e-02"
    d="M12.7,18.4V18"
  />
<path
    fill="none"
    stroke="#000000"
    stroke-width="1.779829e-02"
    d="M12.6,18.4V18"
  />
<path
    fill="none"
    stroke="#000000"
    stroke-width="2.097656e-02"
    d="M12.4,18.4l0-0.4 M12.5,18.4V18"
  />
<path
    fill="none"
    stroke="#000000"
    stroke-width="2.351917e-02"
    d="M12.3,18.4V18 M12.4,18.4l0-0.4"
  />
<path
    fill="none"
    stroke="#000000"
    stroke-width="2.669743e-02"
    d="M12.1,18.3V18 M12.1,18.3V18 M12.2,18.3V18"
  />
<path
    fill="none"
    stroke="#000000"
    stroke-width="2.924005e-02"
    d="M12,18.3V18"
  />
<path
    fill="none"
    stroke="#000000"
    stroke-width="3.241831e-02"
    d="M11.9,18.3V18"
  />
<path
    fill="none"
    stroke="#000000"
    stroke-width="3.559658e-02"
    d="M11.8,18.3V18"
  />
<path
    fill="none"
    stroke="#000000"
    stroke-width="3.813919e-02"
    d="M11.7,18.3l0-0.2 M11.7,18.3v-0.2"
  />
<path
    fill="none"
    stroke="#000000"
    stroke-width="4.004615e-02"
    d="M11.6,18.3v-0.2"
  />
<path
    fill="none"
    stroke="#000000"
    stroke-width="4.322442e-02"
    d="M11.5,18.3v-0.2"
  />
<path
    fill="none"
    stroke="#000000"
    stroke-width="4.640269e-02"
    d="M11.4,18.2v-0.1"
  />
<path
    fill="none"
    stroke="#000000"
    stroke-width="4.894530e-02"
    d="M11.3,18.2L11.3,18.2"
  />
<path
    fill="none"
    stroke="#000000"
    stroke-width="5.784445e-02"
    d="M11.2,18.2L11.2,18.2"
  />
<path
    fill="none"
    stroke="#000000"
    stroke-width="2.479048e-02"
    d="M11.1,18.2c0.5-0.1,1.2-0.2,1.9-0.2c0.7,0,1.4,0.1,1.9,0.2"
  />
<path
    fill="#AD1519"
    stroke="#000000"
    stroke-width="2.479048e-02"
    d="M10.9,17.9l0.1-0.1l0.2,0L11,18L10.9,17.9"
  />
<path
    fill="#FFFFFF"
    stroke="#000000"
    stroke-width="2.479048e-02"
    d="M11.3,17.8C11.3,17.8,11.4,17.7,11.3,17.8
	c0.1-0.1,0.1,0,0.1,0C11.5,17.8,11.4,17.9,11.3,17.8C11.4,17.9,11.3,17.8,11.3,17.8"
  />
<path
    fill="#058E6E"
    stroke="#000000"
    stroke-width="2.479048e-02"
    d="M11.9,17.8l-0.2,0c0,0-0.1,0-0.1-0.1c0,0,0-0.1,0.1-0.1l0.2,0
	l0.2,0c0,0,0.1,0,0.1,0.1s0,0.1-0.1,0.1L11.9,17.8"
  />
<path
    fill="#FFFFFF"
    stroke="#000000"
    stroke-width="2.479048e-02"
    d="M12.4,17.7C12.4,17.6,12.4,17.6,12.4,17.7
	c0.1-0.1,0.1,0,0.1,0C12.5,17.7,12.5,17.7,12.4,17.7C12.4,17.7,12.4,17.7,12.4,17.7"
  />
<path
    fill="#AD1519"
    stroke="#000000"
    stroke-width="2.479048e-02"
    d="M13,17.7h-0.2c0,0-0.1,0-0.1-0.1c0,0,0-0.1,0.1-0.1h0.4
	c0,0,0.1,0,0.1,0.1c0,0,0,0.1-0.1,0.1H13"
  />
<path
    fill="#FFFFFF"
    stroke="#000000"
    stroke-width="2.479048e-02"
    d="M13.5,17.7C13.5,17.6,13.5,17.6,13.5,17.7
	c0.1-0.1,0.1,0,0.1,0C13.6,17.7,13.6,17.7,13.5,17.7C13.5,17.7,13.5,17.7,13.5,17.7"
  />
<path
    fill="#058E6E"
    stroke="#000000"
    stroke-width="2.479048e-02"
    d="M14,17.8l0.2,0c0,0,0.1,0,0.1-0.1c0,0,0-0.1-0.1-0.1l-0.2,0
	l-0.2,0c0,0-0.1,0-0.1,0.1c0,0,0,0.1,0.1,0.1L14,17.8"
  />
<path
    fill="#FFFFFF"
    stroke="#000000"
    stroke-width="2.479048e-02"
    d="M14.5,17.8C14.5,17.8,14.5,17.7,14.5,17.8
	c0.1-0.1,0.1,0,0.1,0C14.7,17.8,14.6,17.9,14.5,17.8C14.5,17.9,14.5,17.8,14.5,17.8"
  />
<path
    fill="#AD1519"
    stroke="#000000"
    stroke-width="2.479048e-02"
    d="M15.1,17.9L15,17.8l-0.2,0L15,18L15.1,17.9"
  />
<path
    fill="#CCCCCC"
    stroke="#000000"
    stroke-width="3.305396e-02"
    d="M13,26c-0.8,0-1.7-0.2-2.3-0.5c-0.5-0.3-0.8-0.8-0.8-1.3V22
	h6.4v2.1c0,0.6-0.3,1.1-0.8,1.3C14.7,25.8,13.8,26,13,26L13,26z"
  />
<path
    fill="#FFD691"
    stroke="#000000"
    stroke-width="3.305396e-02"
    d="M13.2,25.1c0.1,0,0.2,0.1,0.2,0.3c0,0.2-0.1,0.3-0.3,0.3
	c-0.2,0-0.3-0.1-0.3-0.3c0-0.1,0.1-0.2,0.2-0.3c0,0,0,0,0,0c0,0,0,0,0,0s0.1,0,0.1,0c0,0,0,0,0,0s0,0,0,0c0,0,0,0,0,0
	S13.1,25,13.2,25.1C13.1,25,13.1,25,13.2,25.1C13.1,25,13.1,25,13.2,25.1C13.2,25,13.2,25,13.2,25.1C13.2,25,13.2,25,13.2,25.1
	C13.2,25,13.2,25.1,13.2,25.1"
  />
<path
    fill="#058E6E"
    stroke="#000000"
    stroke-width="3.305396e-02"
    d="M13,25.7c0,0-0.3-0.2-0.4-0.2c-0.1,0-0.3,0-0.4,0
	c0,0,0.1,0.1,0.1,0.1s0.2,0.1,0.2,0.1C12.8,25.8,13,25.7,13,25.7"
  />
<path
    fill="#058E6E"
    stroke="#000000"
    stroke-width="3.305396e-02"
    d="M13.1,25.8c0,0,0.2-0.2,0.3-0.2c0.2,0,0.3,0,0.4,0
	c0,0-0.1,0-0.1,0.1c0,0-0.1,0.1-0.3,0.1C13.3,25.8,13.2,25.7,13.1,25.8C13.1,25.8,13.1,25.8,13.1,25.8"
  />
<path
    fill="#AD1519"
    stroke="#000000"
    stroke-width="3.305396e-02"
    d="M13,25.6c-0.1-0.1-0.1-0.1-0.1-0.2c0-0.1,0-0.2,0.1-0.2
	c0.1,0.1,0.1,0.1,0.1,0.2C13.1,25.4,13.1,25.5,13,25.6"
  />
<path
    fill="#058E6E"
    stroke="#000000"
    stroke-width="3.305396e-02"
    d="M13,25.9c0,0,0-0.1,0-0.2c0-0.1,0-0.1,0-0.1h0h0
	c0,0,0,0.1,0,0.1C13.1,25.8,13.1,25.9,13,25.9C13.1,25.9,13,25.9,13,25.9C13,25.9,13,25.9,13,25.9"
  />
<path
    fill="#AD1519"
    stroke="#000000"
    stroke-width="3.305396e-02"
    d="M13,24.1c0,0.8-0.7,1.5-1.6,1.5c-0.9,0-1.6-0.7-1.6-1.5V22H13
	V24.1"
  />
<path
    fill="#C8B100"
    stroke="#000000"
    stroke-width="3.305396e-02"
    d="M9.8,24.1c0,0.4,0.2,0.8,0.4,1v-3.1H9.8L9.8,24.1L9.8,24.1z"
  />
<path
    fill="#C8B100"
    stroke="#000000"
    stroke-width="3.305396e-02"
    d="M10.5,25.4c0.1,0.1,0.2,0.1,0.4,0.2l0-3.6h-0.4V25.4z"
  />
<path
    fill="#C8B100"
    stroke="#000000"
    stroke-width="3.305396e-02"
    d="M11.2,25.6c0.1,0,0.3,0,0.4,0v-3.7h-0.4V25.6z"
  />
<path
    fill="#C8B100"
    stroke="#000000"
    stroke-width="3.305396e-02"
    d="M11.9,25.5c0.1,0,0.3-0.1,0.4-0.2v-3.5h-0.4L11.9,25.5
	L11.9,25.5z"
  />
<path
    fill="#C8B100"
    stroke="#000000"
    stroke-width="3.305396e-02"
    d="M12.7,25c0.2-0.1,0.3-0.5,0.4-0.8l0-2.3h-0.4L12.7,25z"
  />
<path
    fill="#AD1519"
    stroke="#000000"
    stroke-width="3.305396e-02"
    d="M16.2,22v2.1c0,0.8-0.7,1.5-1.6,1.5c-0.9,0-1.6-0.7-1.6-1.5
	V22H16.2"
  />
<path
    id="chains_half"
    fill="#C8B100"
    stroke="#C8B100"
    stroke-width="1.652698e-02"
    d="M14.4,23.6C14.4,23.6,14.4,23.6,14.4,23.6
	l-0.3-0.3l-0.1,0l-0.2-0.2l0.1-0.1l-0.3-0.4c0,0,0,0,0,0l0,0.3l0.1,0v0.3l-0.1,0l0,0.3c0.1,0,0.1,0.1,0.1,0.1l0.2,0l0-0.1h0.3l0,0.1
	L14.4,23.6z M14,22.4v0.1h0.2v-0.1H14z M13.5,23.7C13.6,23.7,13.6,23.7,13.5,23.7c0.1-0.1,0-0.1,0-0.1
	C13.5,23.6,13.4,23.6,13.5,23.7C13.4,23.7,13.5,23.7,13.5,23.7z M14.5,23.1l-0.1,0v-0.3l0.1,0l0-0.1c-0.1,0-0.1-0.1-0.1-0.1h-0.2
	l0,0.1h-0.3l0-0.1h-0.2c0,0,0,0,0,0l0.3,0.4l0.1,0l0.2,0.2l-0.1,0.1l0.3,0.3c0,0,0,0,0,0L14.5,23.1z M14.1,23L14.1,23l0,0.2l0.1-0.1
	L14.1,23z M14.6,25.3c-0.1,0-0.1-0.1-0.2-0.1c-0.1,0-0.2,0-0.3-0.1l0.1-0.1c0.1,0,0.2,0.1,0.3,0.1c0,0,0.1-0.1,0.1-0.1l0-0.4l-0.1,0
	v-0.3l0.1,0v-0.5c0,0,0,0,0,0l-0.3,0.3l0.1,0.1l-0.2,0.2l-0.1,0l-0.2,0.2c0,0.1,0,0.1,0,0.2c0.1,0.1,0.1,0.1,0.2,0.2L14,25
	c-0.1-0.1-0.2-0.1-0.2-0.2c-0.1,0-0.1,0-0.2,0c-0.1-0.1-0.1-0.2,0-0.2l0,0c0-0.1-0.1-0.2-0.1-0.3l0.1,0c0,0.1,0,0.2,0.1,0.3
	c0,0,0.1,0,0.1,0l0.2-0.2l-0.1-0.1l0.2-0.2l0.1,0l0.3-0.3c0,0,0,0,0,0l-0.2,0l0,0.1h-0.3l0-0.1l-0.2,0c0,0-0.1,0.1-0.1,0.1l0,0.3
	l-0.1,0v-0.3c-0.1,0-0.1-0.1-0.1-0.2c0-0.1,0.1-0.1,0.1-0.2l0-0.3l-0.1,0v-0.3l0.1,0v-0.3c-0.1,0-0.1-0.1-0.1-0.2
	c0-0.1,0.1-0.2,0.2-0.2c0.1,0,0.1,0,0.2,0.1h0.2l0-0.1h0.3l0,0.1h0.2c0-0.1,0.1-0.1,0.2-0.1l0,0.5h-0.1V23h0.1l0,1.4h0v0.2h0
	L14.6,25.3z M14.2,24.1L14.2,24.1L14,24.2l0.1,0.1L14.2,24.1z M13.6,22.9h-0.1l0,0.2h0.1V22.9z M14.2,23.7v-0.1H14v0.1H14.2z
	 M13.5,24.3l-0.1,0l0-0.3l0.1,0v0.2C13.5,24.2,13.5,24.2,13.5,24.3L13.5,24.3z M13.6,23.9l0.1,0c0,0,0,0.2,0,0.1c0,0,0,0.1,0,0.1
	l-0.1,0c0-0.1,0-0.1,0-0.2L13.6,23.9z M14.3,25l0-0.1c-0.1,0-0.2-0.1-0.3-0.1l-0.1,0.1C14,24.9,14.1,25,14.3,25L14.3,25z M14.2,25.1
	L14.2,25.1c-0.2,0-0.3,0-0.3-0.1l0-0.1C14,25,14.1,25.1,14.2,25.1L14.2,25.1z"
  />
<path
    id="chains_half_00000023988749802864698870000011918017779317470851_"
    fill="#C8B100"
    stroke="#C8B100"
    stroke-width="1.652698e-02"
    d="
	M14.7,23.6C14.7,23.6,14.7,23.6,14.7,23.6l0.3-0.3l0.1,0l0.2-0.2L15.2,23l0.3-0.4c0,0,0,0,0,0l0,0.3l-0.1,0v0.3l0.1,0l0,0.3
	c-0.1,0-0.1,0.1-0.1,0.1l-0.2,0l0-0.1h-0.3l0,0.1L14.7,23.6z M15.2,22.4v0.1H15v-0.1H15.2z M15.7,23.7
	C15.6,23.7,15.6,23.7,15.7,23.7c-0.1-0.1,0-0.1,0-0.1C15.7,23.6,15.7,23.6,15.7,23.7C15.7,23.7,15.7,23.7,15.7,23.7z M14.6,23.1
	l0.1,0v-0.3l-0.1,0l0-0.1c0.1,0,0.1-0.1,0.1-0.1h0.2l0,0.1h0.3l0-0.1h0.2c0,0,0,0,0,0l-0.3,0.4l-0.1,0l-0.2,0.2l0.1,0.1l-0.3,0.3
	c0,0,0,0,0,0L14.6,23.1z M15.1,23L15.1,23l0,0.2L15,23.1L15.1,23z M14.6,25.3c0.1,0,0.1-0.1,0.2-0.1c0.1,0,0.2,0,0.3-0.1L15,25
	c-0.1,0-0.2,0.1-0.3,0.1c0,0-0.1-0.1-0.1-0.1l0-0.4l0.1,0v-0.3l-0.1,0v-0.5c0,0,0,0,0,0l0.3,0.3l-0.1,0.1l0.2,0.2l0.1,0l0.2,0.2
	c0,0.1,0,0.1,0,0.2c-0.1,0.1-0.1,0.1-0.2,0.2l0.1,0.1c0.1-0.1,0.2-0.1,0.2-0.2c0.1,0,0.1,0,0.2,0c0.1-0.1,0.1-0.2,0-0.2l0,0
	c0-0.1,0.1-0.2,0.1-0.3l-0.1,0c0,0.1,0,0.2-0.1,0.3c0,0-0.1,0-0.1,0l-0.2-0.2l0.1-0.1l-0.2-0.2L15,24l-0.3-0.3c0,0,0,0,0,0l0.2,0
	l0,0.1h0.3l0-0.1l0.2,0c0,0,0.1,0.1,0.1,0.1l0,0.3l0.1,0v-0.3c0.1,0,0.1-0.1,0.1-0.2c0-0.1-0.1-0.1-0.1-0.2l0-0.3l0.1,0v-0.3l-0.1,0
	v-0.3c0.1,0,0.1-0.1,0.1-0.2c0-0.1-0.1-0.2-0.2-0.2c-0.1,0-0.1,0-0.2,0.1h-0.2l0-0.1H15l0,0.1h-0.2c0-0.1-0.1-0.1-0.2-0.1l0,0.5h0.1
	V23h-0.1l0,1.4h0v0.2h0L14.6,25.3z M15,24.1L15,24.1l0.2,0.1l-0.1,0.1L15,24.1z M15.6,22.9h0.1l0,0.2h-0.1V22.9z M15,23.7v-0.1h0.2
	v0.1H15z M15.7,24.3l0.1,0l0-0.3l-0.1,0v0.2C15.7,24.2,15.7,24.2,15.7,24.3L15.7,24.3z M15.6,23.9l-0.1,0c0,0,0,0.2,0,0.1
	c0,0,0,0.1,0,0.1l0.1,0c0-0.1,0-0.1,0-0.2L15.6,23.9z M14.9,25l0-0.1c0.1,0,0.2-0.1,0.3-0.1l0.1,0.1C15.1,24.9,15,25,14.9,25
	L14.9,25z M15,25.1L15,25.1c0.2,0,0.3,0,0.3-0.1l0-0.1C15.2,25,15.1,25.1,15,25.1L15,25.1z"
  />
<path
    fill="#058E6E"
    d="M14.4,23.6c0-0.1,0.1-0.2,0.2-0.2s0.2,0.1,0.2,0.2c0,0.1-0.1,0.2-0.2,0.2S14.4,23.7,14.4,23.6"
  />
<path
    fill="#AD1519"
    stroke="#000000"
    stroke-width="3.305396e-02"
    d="M9.8,22H13v-3.5H9.8V22z"
  />
<path
    fill="#C8B100"
    stroke="#000000"
    stroke-width="2.924005e-02"
    d="M10.9,19.3L10.9,19.3L10.9,19.3l-0.2-0.1v0.2h0.1v0.2h-0.2
	v0.5h0.1V21h-0.2v0.5h1.8V21h-0.2v-0.9h0.1v-0.5H12v-0.2h0.1v-0.2H12v0.1h-0.1v-0.1h-0.1v0.1h-0.1v-0.1h-0.1v0.2h0.1v0.2h-0.2v-0.5
	h0.1v-0.2h-0.1v0.1h-0.1v-0.1h-0.1v0.1h-0.1v-0.1h-0.1v0.2h0.1v0.5h-0.2v-0.2h0.1v-0.2h-0.1v0.1H11v-0.1L10.9,19.3L10.9,19.3
	L10.9,19.3z M10.5,21.5h1.8 M10.5,21.4h1.8 M10.5,21.3h1.8 M10.5,21.1h1.8 M10.5,21h1.8 M10.7,20.9h1.3 M10.7,20.8h1.3 M10.7,20.7
	h1.3 M10.7,20.5h1.3 M10.7,20.4h1.3 M10.7,20.3h1.3 M10.7,20.2h1.3 M10.6,20.1h1.6 M10.6,20h1.6 M10.6,19.8h1.6 M10.6,19.7h1.6
	 M10.8,19.6H12 M11.3,19.5h0.2 M11.3,19.4h0.2 M11.3,19.3h0.2 M11.3,19.1h0.2 M11.2,19h0.5 M10.8,19.5h0.2 M10.7,19.3h0.4
	 M10.7,21.5v-0.1 M10.7,21.3v-0.1 M10.6,21.3v0.1 M10.8,21.4v-0.1 M11,21.5v-0.1 M11,21.3v-0.1 M11,21v-0.1 M11,20.8v-0.1
	 M10.8,21.1V21 M10.6,21.1V21 M11.1,21v0.1 M11.2,21v-0.1 M10.8,20.8v0.1 M11.1,20.8v0.1 M11.3,20.8v0.1 M11.2,20.8v-0.1 M11.3,20.5
	v0.1 M11.3,20.3v0.1 M11.2,20.2v0.1 M11.3,20.1v0.1 M11.1,20.1v0.1 M10.8,20.1v0.1 M10.7,20v0.1 M11,20v0.1 M11.2,20v0.1 M11.3,19.8
	V20 M11.1,19.8V20 M10.8,19.8V20 M10.7,19.7v0.1 M11.2,19.7v0.1 M11,19.5v0.1 M12,19.5h-0.2 M12.1,19.3h-0.4 M12.1,21.5v-0.1
	 M12.1,21.3v-0.1 M12.2,21.3v0.1 M12,21.4v-0.1 M11.9,21.5v-0.1 M11.9,21.3v-0.1 M11.9,21v-0.1 M11.9,20.8v-0.1 M12,21.1V21
	 M12.2,21.1V21 M11.7,21v0.1 M11.6,21v-0.1 M12,20.8v0.1 M11.7,20.8v0.1 M11.5,20.8v0.1 M11.6,20.8v-0.1 M11.5,20.5v0.1 M11.5,20.3
	v0.1 M11.6,20.2v0.1 M11.5,20.1v0.1 M11.7,20.1v0.1 M12,20.1v0.1 M12.1,20v0.1 M11.9,20v0.1 M11.6,20v0.1 M11.5,19.8V20 M11.7,19.8
	V20 M12,19.8V20 M12.1,19.7v0.1 M11.6,19.7v0.1 M11.9,19.5v0.1 M11.4,20.8v-0.1 M11.4,20.3v-0.1 M11.4,20.5v-0.1 M11.4,20.1V20
	 M11.4,19.8v-0.1 M11.4,19.5v-0.1 M11.4,19.3v-0.1 M10.8,19.4h0.2 M11.3,19.1h0.2 M11.7,19.4H12"
  />
<path
    fill="#C8B100"
    stroke="#000000"
    stroke-width="2.924005e-02"
    d="M11.7,21.5v-0.3c0-0.1,0-0.2-0.3-0.2c-0.3,0-0.3,0.2-0.3,0.2
	v0.3H11.7z"
  />
<path
    fill="#C8B100"
    stroke="#000000"
    stroke-width="2.924005e-02"
    d="M11.2,21.2l-0.1,0c0-0.1,0-0.1,0.1-0.2L11.2,21.2
	C11.2,21.1,11.2,21.2,11.2,21.2z"
  />
<path
    fill="#C8B100"
    stroke="#000000"
    stroke-width="2.924005e-02"
    d="M11.5,21.1l0.1-0.1c0,0-0.1,0-0.1,0c0,0-0.1,0-0.1,0l0.1,0.1
	H11.5L11.5,21.1z"
  />
<path
    fill="#C8B100"
    stroke="#000000"
    stroke-width="2.924005e-02"
    d="M11.6,21.2l0.1,0c0-0.1,0-0.1-0.1-0.2L11.6,21.2
	C11.6,21.1,11.6,21.2,11.6,21.2z"
  />
<path
    fill="#C8B100"
    stroke="#000000"
    stroke-width="2.924005e-02"
    d="M11.2,20.7v-0.3c0-0.1-0.1-0.2-0.2-0.2
	c-0.1,0-0.2,0.1-0.2,0.2v0.3H11.2L11.2,20.7z"
  />
<path
    fill="#C8B100"
    stroke="#000000"
    stroke-width="2.924005e-02"
    d="M11.6,20.7v-0.3c0-0.1,0.1-0.2,0.2-0.2c0.1,0,0.2,0.1,0.2,0.2
	v0.3H11.6z"
  />
<path
    fill="#C8B100"
    stroke="#000000"
    stroke-width="2.924005e-02"
    d="M11.1,19.9l0-0.3h-0.3l0,0.3H11.1z"
  />
<path
    fill="#C8B100"
    stroke="#000000"
    stroke-width="2.924005e-02"
    d="M11.5,19.9l0-0.3h-0.3l0,0.3H11.5z"
  />
<path
    fill="#C8B100"
    stroke="#000000"
    stroke-width="2.924005e-02"
    d="M11.7,19.9l0-0.3H12l0,0.3H11.7L11.7,19.9z"
  />
<path
    fill="#0039F0"
    d="M11.6,21.5v-0.3c0,0,0-0.2-0.2-0.2c-0.2,0-0.2,0.1-0.2,0.2v0.3H11.6L11.6,21.5z"
  />
<path
    fill="#0039F0"
    d="M11.2,20.7v-0.3c0-0.1,0-0.1-0.1-0.1c-0.1,0-0.1,0.1-0.1,0.1v0.3H11.2z"
  />
<path
    fill="#0039F0"
    d="M11.7,20.7v-0.3c0-0.1,0-0.1,0.1-0.1c0.1,0,0.1,0.1,0.1,0.1v0.3H11.7z"
  />
<path
    fill="#CCCCCC"
    stroke="#000000"
    stroke-width="3.305396e-02"
    d="M13,22h3.2v-3.5H13V22z"
  />
<path
    fill="#DB4446"
    stroke="#000000"
    stroke-width="2.479048e-02"
    d="M14.6,19.3L14.6,19.3L14.6,19.3c0-0.1-0.1-0.1-0.1-0.1
	c-0.1,0-0.1,0-0.2-0.1c-0.1,0-0.1-0.1-0.1-0.1c-0.1,0-0.2,0-0.2,0s0.1,0,0.1,0.1s0.1,0.1,0.1,0.1c0,0,0.2,0,0.2,0
	C14.5,19.3,14.6,19.3,14.6,19.3L14.6,19.3z"
  />
<path
    fill="#ED72AA"
    stroke="#000000"
    stroke-width="2.479048e-02"
    d="M15.1,19.2C15.1,19.2,15.1,19.2,15.1,19.2c0,0.1,0,0.2,0,0.2
	c0,0,0,0,0,0.1c0,0,0,0.1,0,0.1s0,0,0,0c0,0,0,0,0,0s0,0,0,0.1c0,0,0,0.1,0,0.1c0,0,0.1,0.1,0.1,0.1c0,0,0,0.1,0,0.1s0,0-0.1-0.1
	c0,0-0.1,0-0.1,0s0.1,0.1,0.1,0.1c0,0,0,0.1,0,0.1s0,0-0.1-0.1c0,0-0.1-0.1-0.1-0.1s0,0.1,0,0.1c0,0.1,0,0.2,0,0.2s0,0-0.1-0.1
	c0,0-0.1,0-0.1,0c0,0,0,0,0,0.1c0,0,0,0.1,0.1,0.3c0.1,0.1,0.2,0.2,0.3,0.2c0.2,0,0.1-0.3,0.1-0.4c0-0.1-0.1-0.3-0.1-0.3
	c0,0,0-0.2,0-0.2c0,0,0-0.1,0-0.2c0-0.1,0-0.1,0.1-0.2c0,0,0-0.1,0-0.1c0,0,0-0.1,0-0.1s0,0.1,0,0.1c0,0,0,0.1,0,0.1s0-0.1,0.1-0.1
	c0.1,0,0.1-0.1,0.1-0.1s0,0,0,0s0,0.1,0,0.2c0,0-0.1,0.1-0.1,0.1s0,0,0.1,0c0,0,0.1,0,0.1,0s0,0-0.1,0.1c-0.1,0.1,0,0.1-0.1,0.1
	c0,0.1-0.1,0.1-0.1,0.1c-0.1,0.1,0,0.3,0,0.3c0,0,0.1,0.3,0.1,0.4c0,0.1,0,0.2-0.1,0.3c-0.1,0.1-0.2,0.1-0.2,0.1
	c0,0-0.1,0.1-0.1,0.2c0,0.1,0,0.1,0.1,0.2c0,0,0.1,0,0.1,0c0,0,0,0,0,0c0,0,0,0,0,0.1c0,0-0.1,0.1-0.1,0.1c0,0-0.1,0.1-0.1,0.2
	s0,0.1,0,0.1c0,0,0.1,0.1,0,0.1c0,0,0,0-0.1,0c0,0-0.1,0-0.1,0c0,0,0,0,0,0c0,0,0,0,0,0c0,0,0,0,0,0c0,0,0,0.1,0,0.1s0,0-0.1,0
	c0,0-0.1,0-0.1,0c0,0,0-0.1,0-0.1c0,0,0,0,0,0c0,0,0,0,0,0c0,0-0.1,0,0,0c0,0,0,0,0-0.1c0,0,0,0,0-0.1c0,0,0.1,0,0.1,0
	c0,0,0.1,0,0.1,0s0-0.1,0-0.1c0,0-0.1,0-0.1-0.1c0,0,0-0.1,0-0.1s0,0.1,0,0.1s0,0.1,0,0.1s0,0,0-0.1c0,0,0-0.1,0-0.1s0,0.1,0,0.1
	c0,0,0,0,0,0.1c0,0-0.1,0-0.1-0.1c0,0,0,0-0.1-0.1c0,0,0-0.1,0-0.1c0,0,0-0.1,0-0.1c0,0,0-0.1,0-0.1h-0.1c0,0-0.1,0-0.1,0
	c0,0,0,0.1,0,0.2c0,0.1,0,0.1,0,0.1c0,0,0,0.1,0,0.1c0,0,0,0-0.1,0c0,0,0,0-0.1,0s-0.1,0-0.1,0c0,0-0.1,0-0.1,0c0,0-0.1,0,0,0
	c0,0,0,0,0,0c0,0,0,0-0.1,0c0,0-0.1,0-0.1,0c0,0,0,0,0,0c0,0,0,0,0,0c0,0,0,0,0,0c0,0,0,0,0,0c0,0,0,0,0-0.1c0,0,0-0.1,0-0.1
	c0,0,0.1,0,0.1,0c0,0,0,0,0,0s0,0,0,0c0,0,0,0,0,0c0,0,0-0.1,0,0c0,0,0,0,0,0.1c0,0,0.1,0.1,0.1,0.1c0.1,0,0.1,0,0.1,0
	c0,0,0-0.1,0-0.1c0,0,0-0.1,0-0.1s0,0,0,0c0,0,0,0.1,0,0.1s0,0,0-0.1c0,0,0-0.1,0-0.1c0,0,0-0.1,0-0.1s0,0,0,0.1c0,0,0,0.1,0,0.1
	s0,0,0-0.1c0,0,0-0.1,0-0.1c0,0,0-0.1,0.1-0.1c0.1,0,0.1,0,0.2,0c0,0,0.1,0,0.1,0s-0.2-0.1-0.2-0.1c0,0-0.1-0.1-0.1-0.1
	c0,0,0-0.1,0-0.1s0,0-0.1,0c0,0-0.1,0-0.1,0.1c0,0,0,0.1,0,0.1s0-0.1,0-0.1c0,0,0-0.1,0-0.1s0,0.1-0.1,0.1c0,0-0.1,0.1-0.1,0.1
	s0,0,0-0.1c0,0,0-0.1,0-0.1s0,0-0.1,0.1c0,0-0.1,0-0.1,0c0,0,0,0.1,0,0.1c0,0,0,0,0,0s0,0-0.1,0c0,0,0,0,0,0s0,0,0,0c0,0,0,0,0-0.1
	c0,0,0,0-0.1,0c0,0-0.1,0-0.1,0c0,0,0,0,0-0.1c0,0,0,0,0,0c0,0,0.1,0,0.1,0c0,0,0,0-0.1,0c0,0-0.1,0,0,0c0,0,0,0,0,0c0,0,0,0,0,0
	c0,0,0,0.1,0.1,0.1c0,0,0.1,0,0.1,0c0,0,0.1-0.1,0.1-0.1c0,0,0.1-0.1,0.1-0.1s0,0-0.1-0.1c0,0,0-0.1-0.1-0.1c0,0-0.1,0-0.1,0
	c0,0-0.1,0-0.1,0s0,0,0.1,0c0,0,0,0,0.1,0c0,0,0,0,0,0s-0.1,0-0.1,0c0,0-0.1,0-0.1,0s-0.1,0-0.1,0s0,0,0.1,0c0,0,0.1,0,0.1,0
	s-0.1,0-0.1,0c0,0,0-0.1,0-0.1c0,0,0,0,0,0s-0.1,0-0.1,0c0,0,0,0,0,0c0,0,0,0,0,0c0,0,0-0.1,0-0.1c0,0,0.1,0,0.1,0c0,0,0,0-0.1-0.1
	c0,0-0.1,0,0,0c0,0,0,0,0.1,0c0,0,0-0.1,0,0c0,0,0.1,0.1,0.1,0.1c0,0,0-0.1,0-0.1c0,0,0-0.1,0-0.1c0,0,0,0,0.1,0c0,0,0.1,0,0.1,0
	c0,0,0,0,0,0.1c0,0,0,0.1,0,0.1c0,0,0,0.1,0.1,0.1c0,0,0.1,0,0.1,0.1c0,0,0.1,0.1,0.1,0.1c0,0,0.1,0,0.1,0s0,0,0.1,0s0.1,0,0.2,0
	c0,0,0.1,0,0.1-0.1c0,0-0.1-0.1-0.1-0.1c0,0,0,0,0.1,0c0,0,0.1,0,0.1-0.1c0-0.1,0-0.1-0.1-0.1c-0.1,0-0.1,0-0.1-0.1c0,0,0-0.1,0-0.1
	c0,0,0,0,0.1,0c0.1,0,0.1,0,0.1,0c0,0,0,0,0-0.1c0,0,0.1,0,0.1,0s0.1,0,0.2,0.1C15,19.1,15.1,19.2,15.1,19.2"
  />
<path
    fill="none"
    stroke="#000000"
    stroke-width="2.479048e-02"
    d="M14.2,19.6C14.2,19.6,14.1,19.6,14.2,19.6
	c-0.1,0.1-0.1,0.1-0.1,0.1S14.1,19.7,14.2,19.6c0.1,0.1,0.1,0.1,0.1,0.1c0,0,0.1,0,0.1,0s0,0.1,0,0.1c0,0,0,0.1,0,0.1
	c0,0,0,0.1,0,0.1s0,0,0.1,0c0,0,0.1,0,0.1-0.1c0,0,0.1-0.1,0.1-0.1s0,0.1,0,0.1c0,0,0,0.1,0,0.1s0,0,0.1,0c0,0,0,0,0.1,0
	c0,0,0-0.1,0-0.1s0,0.1,0,0.1c0,0,0,0.1,0,0.1s0-0.1,0-0.1c0,0,0-0.1,0-0.1c0,0,0-0.1,0-0.1l0,0.1 M14.1,19.9
	C14.1,19.9,14.2,19.9,14.1,19.9c0.1-0.1,0.1-0.1,0.1-0.1c0,0,0.1,0,0.1,0 M14.4,20.1C14.4,20.1,14.4,20.1,14.4,20.1
	c0.1-0.1,0.2-0.1,0.2-0.1"
  />
<path
    fill="none"
    stroke="#000000"
    stroke-width="1.652698e-02"
    d="M15.1,19.4C15.1,19.4,15,19.4,15.1,19.4
	C15,19.4,15,19.4,15.1,19.4"
  />
<path
    fill="none"
    stroke="#000000"
    stroke-width="2.479048e-02"
    d="M14.8,20.5c0,0,0.1,0.1,0.1,0.1c0,0.1-0.1,0.2-0.1,0.2"
  />
<path
    stroke="#000000"
    stroke-width="1.652698e-02"
    d="M14.4,19.1C14.4,19.1,14.4,19.1,14.4,19.1C14.4,19.1,14.4,19.1,14.4,19.1
	C14.4,19.1,14.5,19.1,14.4,19.1C14.5,19.1,14.5,19.1,14.4,19.1C14.5,19.1,14.4,19.1,14.4,19.1L14.4,19.1z"
  />
<path
    stroke="#000000"
    stroke-width="3.178266e-03"
    d="M14.7,19L14.7,19C14.7,19,14.7,19,14.7,19c0.1,0,0.1,0.1,0.1,0.1
	C14.8,19.1,14.8,19.1,14.7,19C14.8,19.1,14.8,19.1,14.7,19C14.7,19.1,14.7,19.1,14.7,19C14.7,19.1,14.7,19,14.7,19L14.7,19z"
  />
<path
    stroke="#000000"
    stroke-width="1.652698e-02"
    d="M14.4,19.4L14.4,19.4L14.4,19.4L14.4,19.4"
  />
<path
    stroke="#000000"
    stroke-width="1.652698e-02"
    d="M14.5,19.4L14.5,19.4L14.5,19.4L14.5,19.4"
  />
<path
    stroke="#000000"
    stroke-width="1.652698e-02"
    d="M14.5,19.2L14.5,19.2L14.5,19.2L14.5,19.2"
  />
<path
    stroke="#000000"
    stroke-width="1.652698e-02"
    d="M14.5,19.2L14.5,19.2L14.5,19.2L14.5,19.2"
  />
<path
    fill="#DB4446"
    stroke="#000000"
    stroke-width="2.479048e-02"
    d="M13.7,19.1C13.7,19.1,13.8,19.1,13.7,19.1c0.1,0,0.1,0,0.1,0
	c0,0,0,0,0-0.1c0-0.1-0.1-0.1-0.1-0.1S13.8,19,13.7,19.1C13.8,19.1,13.7,19.1,13.7,19.1L13.7,19.1z"
  />
<path
    fill="#DB4446"
    stroke="#000000"
    stroke-width="2.479048e-02"
    d="M13.6,19.2C13.6,19.2,13.6,19.1,13.6,19.2c-0.1,0-0.2,0-0.2,0
	s0.1,0,0.1,0C13.5,19.2,13.5,19.3,13.6,19.2C13.5,19.3,13.6,19.2,13.6,19.2C13.6,19.2,13.6,19.2,13.6,19.2L13.6,19.2z"
  />
<path
    fill="#DB4446"
    stroke="#000000"
    stroke-width="2.479048e-02"
    d="M13.5,19.4C13.5,19.4,13.5,19.4,13.5,19.4
	c-0.1,0.1-0.1,0.1-0.1,0.1S13.5,19.5,13.5,19.4c0,0.1,0,0.1,0,0.1S13.5,19.5,13.5,19.4C13.5,19.4,13.5,19.4,13.5,19.4L13.5,19.4z"
  />
<path
    fill="#DB4446"
    stroke="#000000"
    stroke-width="2.479048e-02"
    d="M13.7,20C13.7,20,13.7,20,13.7,20c-0.1,0-0.2,0-0.2,0
	S13.6,20.1,13.7,20C13.6,20.1,13.6,20.1,13.7,20C13.6,20.1,13.7,20.1,13.7,20C13.7,20.1,13.7,20,13.7,20L13.7,20z"
  />
<path
    fill="#DB4446"
    stroke="#000000"
    stroke-width="2.479048e-02"
    d="M13.6,20.2C13.6,20.2,13.6,20.2,13.6,20.2
	c-0.1,0-0.1,0.1-0.1,0.1S13.6,20.3,13.6,20.2C13.6,20.3,13.6,20.3,13.6,20.2C13.6,20.3,13.6,20.3,13.6,20.2
	C13.6,20.2,13.6,20.2,13.6,20.2L13.6,20.2z"
  />
<path
    fill="#DB4446"
    stroke="#000000"
    stroke-width="2.479048e-02"
    d="M13.7,20.4C13.7,20.4,13.7,20.4,13.7,20.4
	c0,0.1,0.1,0.1,0.1,0.1S13.8,20.5,13.7,20.4C13.8,20.4,13.8,20.4,13.7,20.4C13.8,20.4,13.8,20.4,13.7,20.4
	C13.7,20.4,13.7,20.4,13.7,20.4L13.7,20.4z"
  />
<path
    fill="#DB4446"
    stroke="#000000"
    stroke-width="2.479048e-02"
    d="M14.2,20.8C14.2,20.8,14.2,20.8,14.2,20.8c-0.1,0-0.2,0-0.2,0
	S14.1,20.8,14.2,20.8C14.1,20.9,14.1,20.9,14.2,20.8C14.1,20.9,14.1,20.9,14.2,20.8C14.2,20.9,14.2,20.8,14.2,20.8L14.2,20.8z"
  />
<path
    fill="#DB4446"
    stroke="#000000"
    stroke-width="2.479048e-02"
    d="M14.1,21C14.1,21,14,21,14.1,21c-0.1,0.1-0.1,0.1-0.1,0.1
	S14,21.1,14.1,21C14,21.1,14.1,21.1,14.1,21C14.1,21.1,14.1,21.1,14.1,21C14.1,21,14.1,21,14.1,21L14.1,21z"
  />
<path
    fill="#DB4446"
    stroke="#000000"
    stroke-width="2.479048e-02"
    d="M14.2,21.2C14.2,21.2,14.2,21.2,14.2,21.2
	c0,0.1,0.1,0.1,0.1,0.1S14.2,21.3,14.2,21.2C14.2,21.3,14.3,21.2,14.2,21.2L14.2,21.2L14.2,21.2z"
  />
<path
    fill="#DB4446"
    stroke="#000000"
    stroke-width="2.479048e-02"
    d="M15,21.3C15,21.3,14.9,21.3,15,21.3c-0.1,0-0.1,0.1-0.1,0.1
	S14.9,21.3,15,21.3C14.9,21.3,15,21.4,15,21.3C15,21.4,15,21.3,15,21.3C15,21.3,15,21.3,15,21.3L15,21.3z"
  />
<path
    fill="#DB4446"
    stroke="#000000"
    stroke-width="2.479048e-02"
    d="M15,21.5C15,21.5,15,21.5,15,21.5c0,0.1,0,0.1,0,0.1
	S15,21.6,15,21.5C15,21.5,15.1,21.5,15,21.5C15.1,21.5,15.1,21.5,15,21.5C15,21.5,15,21.5,15,21.5z"
  />
<path
    fill="#DB4446"
    stroke="#000000"
    stroke-width="2.479048e-02"
    d="M15.2,21.5C15.2,21.5,15.2,21.6,15.2,21.5
	c0.1,0.1,0.1,0.1,0.1,0.1S15.2,21.6,15.2,21.5c0.1,0,0.1,0,0.1,0S15.2,21.5,15.2,21.5C15.2,21.5,15.2,21.5,15.2,21.5L15.2,21.5z"
  />
<path
    fill="#C8B100"
    stroke="#000000"
    stroke-width="1.652698e-02"
    d="M15.1,18.9L15.1,18.9C15.1,18.9,15,18.9,15.1,18.9
	C15,18.9,15,18.9,15.1,18.9C15,18.9,15,18.9,15.1,18.9c-0.1,0-0.1,0-0.1,0c0,0,0,0,0-0.1c0,0,0,0,0,0l0,0l0,0l0,0c0,0,0,0,0,0
	c0,0,0,0,0,0c0,0,0,0,0,0c0,0,0-0.1,0-0.1l0,0c0,0,0,0,0,0.1c0,0,0,0.1,0,0.1c0,0,0.1,0.1,0.2,0.1c0.1,0.1,0.1,0.1,0.1,0.2
	c0,0,0,0,0.1,0c0,0,0.1,0,0.1,0l0,0c0,0-0.1,0-0.1,0c0,0,0,0,0,0c0,0,0,0,0,0c0,0,0,0,0,0l0,0l0,0l0,0c0,0,0,0,0,0c0,0,0,0-0.1,0
	C15.1,19,15.1,19,15.1,18.9C15.1,19,15.1,19,15.1,18.9C15,19,15,19,15.1,18.9C15.1,18.9,15.1,18.9,15.1,18.9L15.1,18.9L15.1,18.9
	L15.1,18.9z"
  />
<path
    stroke="#000000"
    stroke-width="3.178266e-03"
    d="M14.9,18.9C14.9,18.9,14.9,18.9,14.9,18.9C14.9,19,14.9,19,14.9,18.9
	C14.9,19,14.9,19,14.9,18.9C14.9,19,14.9,19,14.9,18.9L14.9,18.9z"
  />
<path
    stroke="#000000"
    stroke-width="3.178266e-03"
    d="M15,19L15,19C15,19,15,19,15,19C15,19,15,19,15,19L15,19L15,19
	C15,19,15,19,15,19C15,19,15,19,15,19L15,19"
  />
<path
    stroke="#000000"
    stroke-width="3.178266e-03"
    d="M14.9,18.9L14.9,18.9C14.9,18.9,14.9,18.9,14.9,18.9
	C14.9,18.9,14.9,18.9,14.9,18.9L14.9,18.9L14.9,18.9C14.9,18.9,14.9,18.9,14.9,18.9C14.9,18.9,14.9,18.9,14.9,18.9L14.9,18.9"
  />
<path
    stroke="#000000"
    stroke-width="3.178266e-03"
    d="M14.8,18.9C14.8,18.9,14.8,18.9,14.8,18.9C14.8,18.9,14.8,18.9,14.8,18.9
	C14.8,18.9,14.8,18.9,14.8,18.9C14.8,18.9,14.8,18.9,14.8,18.9L14.8,18.9z"
  />
<path
    stroke="#000000"
    stroke-width="3.178266e-03"
    d="M15.1,19C15.1,19,15.1,19,15.1,19C15,19,15,19,15.1,19C15,19,15,19,15.1,19
	C15,19,15.1,19,15.1,19L15.1,19z"
  />
<path
    stroke="#000000"
    stroke-width="3.178266e-03"
    d="M15.1,19.1L15.1,19.1C15.1,19.1,15.1,19.1,15.1,19.1
	C15.1,19.1,15.1,19.1,15.1,19.1L15.1,19.1L15.1,19.1C15.1,19.1,15.1,19.1,15.1,19.1C15.1,19.1,15.1,19.1,15.1,19.1L15.1,19.1"
  />
<path
    stroke="#000000"
    stroke-width="3.178266e-03"
    d="M15.2,19.1C15.2,19.1,15.2,19.1,15.2,19.1C15.1,19.1,15.1,19.1,15.2,19.1
	C15.1,19.1,15.1,19.1,15.2,19.1C15.1,19.1,15.1,19.1,15.2,19.1z"
  />
<path
    fill="#C8B100"
    stroke="#000000"
    stroke-width="1.652698e-02"
    d="M15,18.8L15,18.8L15,18.8L15,18.8L15,18.8L15,18.8L15,18.8"
  />
<path
    fill="#C8B100"
    stroke="#000000"
    stroke-width="1.652698e-02"
    d="M15,18.8L15,18.8L15,18.8L15,18.8L15,18.8L15,18.8L15,18.8"
  />
<path
    fill="#C8B100"
    stroke="#000000"
    stroke-width="1.652698e-02"
    d="M14.9,18.8L14.9,18.8L14.9,18.8L14.9,18.8L14.9,18.8
	L14.9,18.8L14.9,18.8"
  />
<path
    fill="#C8B100"
    stroke="#000000"
    stroke-width="1.652698e-02"
    d="M15,18.9L15,18.9L15,18.9L15,18.9L15,18.9L15,18.9L15,18.9"
  />
<path
    fill="#C8B100"
    stroke="#000000"
    stroke-width="1.652698e-02"
    d="M14.9,18.8C14.9,18.8,14.9,18.8,14.9,18.8
	C15,18.8,15,18.8,14.9,18.8C14.9,18.8,14.9,18.8,14.9,18.8C14.9,18.8,14.9,18.8,14.9,18.8z"
  />
<path
    fill="#C8B100"
    stroke="#000000"
    stroke-width="1.652698e-02"
    d="M14.8,18.8C14.8,18.8,14.8,18.7,14.8,18.8
	C14.8,18.7,14.7,18.7,14.8,18.8C14.7,18.7,14.8,18.7,14.8,18.8C14.8,18.7,14.8,18.7,14.8,18.8C14.8,18.7,14.8,18.8,14.8,18.8
	L14.8,18.8z"
  />
<path
    fill="#C8B100"
    stroke="#000000"
    stroke-width="1.652698e-02"
    d="M14.9,18.8L14.9,18.8L14.9,18.8L14.9,18.8L14.9,18.8
	L14.9,18.8L14.9,18.8"
  />
<path
    fill="#C8B100"
    stroke="#000000"
    stroke-width="1.652698e-02"
    d="M14.8,18.8C14.8,18.7,14.8,18.7,14.8,18.8
	C14.8,18.7,14.8,18.7,14.8,18.8C14.8,18.8,14.8,18.8,14.8,18.8C14.8,18.8,14.8,18.8,14.8,18.8z"
  />
<path
    fill="#C8B100"
    stroke="#000000"
    stroke-width="1.652698e-02"
    d="M15.1,18.8L15.1,18.8L15.1,18.8L15.1,18.8L15.1,18.8
	L15.1,18.8L15.1,18.8"
  />
<path
    fill="#C8B100"
    stroke="#000000"
    stroke-width="1.652698e-02"
    d="M15,18.9L15,18.9L15,18.9L15,18.9L15,18.9L15,18.9L15,18.9"
  />
<path
    fill="#C8B100"
    stroke="#000000"
    stroke-width="1.652698e-02"
    d="M15.1,18.9L15.1,18.9L15.1,18.9L15.1,18.9L15.1,18.9
	L15.1,18.9L15.1,18.9"
  />
<path
    fill="#C8B100"
    stroke="#000000"
    stroke-width="1.652698e-02"
    d="M15.1,18.9C15.1,18.9,15.1,18.9,15.1,18.9
	C15.1,18.9,15.1,18.9,15.1,18.9C15.1,18.9,15.1,18.9,15.1,18.9C15.1,18.9,15.1,18.9,15.1,18.9L15.1,18.9z"
  />
<path
    fill="#C8B100"
    stroke="#000000"
    stroke-width="1.652698e-02"
    d="M15.2,19L15.2,19L15.2,19L15.2,19L15.2,19L15.2,19L15.2,19"
  />
<path
    fill="#C8B100"
    stroke="#000000"
    stroke-width="1.652698e-02"
    d="M15.2,19.1L15.2,19.1L15.2,19.1L15.2,19.1L15.2,19.1
	L15.2,19.1L15.2,19.1"
  />
<path
    fill="#C8B100"
    stroke="#000000"
    stroke-width="1.652698e-02"
    d="M15.1,19L15.1,19L15.1,19L15.1,19L15.1,19L15.1,19L15.1,19"
  />
<path
    fill="#C8B100"
    stroke="#000000"
    stroke-width="1.652698e-02"
    d="M15.2,19C15.2,19,15.2,19,15.2,19C15.2,19,15.2,19,15.2,19
	C15.2,19,15.2,19,15.2,19C15.2,19,15.2,19,15.2,19L15.2,19z"
  />
<path
    fill="#C8B100"
    stroke="#000000"
    stroke-width="1.652698e-02"
    d="M15.3,19.1C15.3,19.1,15.3,19.1,15.3,19.1
	C15.4,19.1,15.4,19.2,15.3,19.1C15.4,19.2,15.4,19.1,15.3,19.1C15.3,19.1,15.3,19.1,15.3,19.1C15.3,19.1,15.3,19.1,15.3,19.1
	L15.3,19.1z"
  />
<path
    fill="#C8B100"
    stroke="#000000"
    stroke-width="1.652698e-02"
    d="M15.3,19.1L15.3,19.1L15.3,19.1L15.3,19.1L15.3,19.1
	L15.3,19.1L15.3,19.1"
  />
<path
    fill="#C8B100"
    stroke="#000000"
    stroke-width="1.652698e-02"
    d="M15.3,19.1C15.3,19.1,15.3,19.1,15.3,19.1
	C15.3,19.1,15.3,19.1,15.3,19.1C15.3,19.1,15.3,19.1,15.3,19.1C15.3,19.2,15.3,19.2,15.3,19.1z"
  />
<ellipse
    fill="#AD1519"
    stroke="#000000"
    stroke-width="3.877485e-02"
    cx="13"
    cy="22"
    rx="1"
    ry="1.2"
  />
<ellipse
    fill="#005BBF"
    stroke="#000000"
    stroke-width="3.877485e-02"
    cx="13"
    cy="22"
    rx="0.7"
    ry="0.9"
  />
<path
    fill="#C8B100"
    stroke="#000000"
    stroke-width="2.161221e-02"
    stroke-linejoin="round"
    d="M12.7,21.4c0,0-0.1,0.1-0.1,0.2
	c0,0.1,0,0.2,0,0.2c0,0,0-0.1-0.1-0.1c-0.1,0-0.1,0-0.1,0.1c0,0,0,0,0,0l0,0.1c0,0,0,0,0.1,0c0,0,0.1,0,0.1,0.1c0,0,0,0,0,0l-0.1,0
	V22h0.1l-0.1,0.1l0.1,0l0.1,0.1l0.1-0.1l0.1,0L12.7,22h0.1v-0.1l-0.1,0c0,0,0,0,0,0c0,0,0-0.1,0.1-0.1c0,0,0.1,0,0.1,0l0-0.1
	c0,0,0,0,0,0c0-0.1,0-0.1-0.1-0.1c0,0-0.1,0-0.1,0.1c0,0,0-0.1,0-0.2C12.8,21.5,12.7,21.4,12.7,21.4L12.7,21.4z"
  />
<path
    fill="#C8B100"
    stroke="#000000"
    stroke-width="2.161221e-02"
    d="M12.5,22h0.3v-0.1L12.5,22L12.5,22z"
  />
<path
    fill="#C8B100"
    stroke="#000000"
    stroke-width="2.161221e-02"
    stroke-linejoin="round"
    d="M13.3,21.4c0,0-0.1,0.1-0.1,0.2
	c0,0.1,0,0.2,0,0.2c0,0,0-0.1-0.1-0.1c-0.1,0-0.1,0-0.1,0.1c0,0,0,0,0,0l0,0.1c0,0,0,0,0.1,0c0,0,0.1,0,0.1,0.1c0,0,0,0,0,0l-0.1,0
	V22h0.1l-0.1,0.1l0.1,0l0.1,0.1l0.1-0.1l0.1,0L13.4,22h0.1v-0.1l-0.1,0c0,0,0,0,0,0c0,0,0-0.1,0.1-0.1c0,0,0.1,0,0.1,0l0-0.1
	c0,0,0,0,0,0c0-0.1,0-0.1-0.1-0.1c0,0-0.1,0-0.1,0.1c0,0,0-0.1,0-0.2C13.4,21.5,13.3,21.4,13.3,21.4L13.3,21.4z"
  />
<path
    fill="#C8B100"
    stroke="#000000"
    stroke-width="2.161221e-02"
    d="M13.2,22h0.3v-0.1L13.2,22L13.2,22z"
  />
<path
    fill="#C8B100"
    stroke="#000000"
    stroke-width="2.161221e-02"
    stroke-linejoin="round"
    d="M13,22c0,0-0.1,0.1-0.1,0.2
	c0,0.1,0,0.2,0,0.2c0,0,0-0.1-0.1-0.1c-0.1,0-0.1,0-0.1,0.1c0,0,0,0,0,0l0,0.1c0,0,0,0,0.1,0c0,0,0.1,0,0.1,0.1c0,0,0,0,0,0l-0.1,0
	v0.1h0.1l-0.1,0.1l0.1,0l0.1,0.1l0.1-0.1l0.1,0l-0.1-0.1h0.1v-0.1l-0.1,0c0,0,0,0,0,0c0,0,0-0.1,0.1-0.1c0,0,0.1,0,0.1,0l0-0.1
	c0,0,0,0,0,0c0-0.1,0-0.1-0.1-0.1c0,0-0.1,0-0.1,0.1c0,0,0-0.1,0-0.2C13.1,22.1,13,22,13,22L13,22z"
  />
<path
    fill="#C8B100"
    stroke="#000000"
    stroke-width="2.161221e-02"
    d="M12.9,22.6h0.3v-0.1L12.9,22.6L12.9,22.6z"
  />
</svg>
