<svg xmlns="http://www.w3.org/2000/svg" id="a" viewBox="0 0 38 38"><defs><style
    >.d{stroke-width:0}.aa,.ab,.ad,.ah,.ai,.aj,.ak,.al,.an,.ao,.ap,.as,.at,.au,.av,.ax,.ay,.az,.ba,.be,.bg,.bj,.bk,.bm,.bo,.bp,.bq,.d,.e,.f,.g,.h,.i,.j,.l,.n,.o,.p,.q,.r,.s,.t,.u,.v,.x,.z{stroke:#000}.aa,.ab,.ad,.al,.an,.ap,.au,.av,.bg,.bj,.bk,.bo,.bp,.d,.i,.j,.t,.u,.v,.z{fill:none}.ak,.at,.ba,.be,.bm,.br,.bs,.e,.g,.p,.x{fill:#c8b100}.e{stroke-width:.03px}.ah,.ai,.aj,.ak,.av,.bs,.f,.g,.h,.v{stroke-width:.02px}.as,.at,.be,.f,.g{stroke-linejoin:round}.ai,.as,.ay,.f,.r{fill:#ad1519}.as,.at,.i,.l,.n,.o,.p,.q,.r,.s{stroke-width:.02px}.ao,.j{stroke-width:0}.bt{fill:#0039f0}.bv{fill:#b3252b}.aj,.az,.s{fill:#058e6e}.l{fill:#005bbf}.ah,.bq,.n{fill:#fff}.o{fill:#db4446}.ax,.q{fill:#ccc}.bq,.t{stroke-width:.01px}.u{stroke-width:0}.v{stroke-linecap:round}.x{stroke-width:.02px}.aa,.ab,.ad,.z{stroke-width:0}.bs{stroke:#c8b100}.al{stroke-width:0}.an{stroke-width:.01px}.ap,.au{stroke-width:0}.ax,.ay,.az,.ba{stroke-width:.03px}.be,.bm{stroke-width:.02px}.bg,.bj,.bk,.bo,.bp{stroke-width:0}</style></defs><path
    d="M0 28h38v10H0zM0 0h38v10H0z"
    class="bv"
  /><path fill="#f6bf25" d="M0 10h38v18H0z" /><path
    d="m7.77 16.24-.05-.01-.07-.06-.04-.03-.04-.05s-.05-.08-.03-.13c.02-.06.06-.08.09-.1a.5.5 0 0 1 .1-.04l.07-.03.08-.02.04-.02.06-.01.07-.02H8.46l.09.03.13.05.15.04c.04.02.06.05.08.07.02.02.02.05.03.07v.07c0 .02-.03.05-.03.05l-.04.06-.05.04-.06.03c-.03 0-.32-.05-.51-.05s-.49.05-.49.05Z"
    class="f"
  /><ellipse cx="8.26" cy="15.82" class="ak" rx=".09" ry=".16" /><ellipse
    cx="8.26"
    cy="15.82"
    class="ak"
    rx=".04"
    ry=".15"
  /><circle cx="8.26" cy="15.65" r=".06" class="br" /><path
    d="M8.34 15.64v.04h-.16v-.04h.06v-.08H8.2v-.04h.04v-.04h.04v.04h.04v.04h-.04v.08h.06"
    class="x"
  /><path
    d="M8.27 15.6s.05.04.04.07c0 .03-.04.05-.07.04s-.05-.04-.04-.07c0-.02.02-.03.04-.04"
    class="av"
  /><path
    d="M8.26 16.23h-.31v-.08l-.02-.08v-.1c-.1-.11-.18-.18-.2-.17 0-.02.01-.04.03-.05.08-.04.23.06.35.24l.03.05h.25l.03-.05c.12-.18.27-.28.35-.24.02 0 .02.02.03.05-.03-.02-.1.06-.19.17v.1l-.03.08v.08h-.31Z"
    class="ak"
  /><path
    d="M7.74 15.81c.06-.03.19.07.3.24m.73-.24c-.06-.03-.19.07-.3.24"
    class="av"
  /><path
    d="m7.81 16.37-.04-.07c.12-.04.3-.06.49-.06s.37.02.49.06l-.03.06a.47.47 0 0 0-.02.05 1.7 1.7 0 0 0-.43-.05c-.18 0-.35.02-.44.05l-.01-.04"
    class="ak"
  /><path
    d="M8.26 16.52c.15 0 .32-.02.39-.04.04-.01.07-.03.06-.05a.02.02 0 0 0-.02-.02c-.09-.03-.26-.05-.43-.05s-.33.02-.43.05a.02.02 0 0 0-.02.02c0 .02.02.04.06.05.06.02.23.04.39.04ZM8.75 16.23l-.04-.03-.08.02c-.04 0-.06-.06-.06-.06s-.05.04-.09.04c-.04 0-.07-.04-.07-.04s-.05.03-.08.03c-.04 0-.08-.05-.08-.05s-.04.05-.08.05a.11.11 0 0 1-.07-.03s-.02.04-.07.05-.09-.04-.09-.04-.03.05-.06.06c-.03.01-.08-.02-.08-.02l-.01.03-.02.01v.03c.13-.04.3-.06.49-.06s.36.02.48.06v-.03h.01Z"
    class="ak"
  /><path
    d="M8.26 16.06h.02v.03c0 .04.03.07.07.07.03 0 .06-.02.07-.05v-.02.03c0 .03.03.06.07.06.04 0 .07-.03.07-.07l.02-.02v.06c0 .04.03.06.07.06l.06-.03v-.02l.01.02c0 .02 0 .04.03.05l.06-.02.05-.05v.03l-.06.07-.06.02c-.02 0-.03-.02-.04-.04l-.05.01c-.04 0-.08-.02-.09-.05a.1.1 0 0 1-.07.03.1.1 0 0 1-.08-.04.1.1 0 0 1-.07.03c-.03 0-.07-.02-.08-.04-.02.03-.05.04-.09.04a.1.1 0 0 1-.07-.03c-.02.02-.05.04-.08.04s-.06-.01-.07-.03c-.01.03-.05.05-.09.05l-.05-.01c0 .02-.02.04-.04.04s-.04 0-.06-.02l-.06-.07v-.03l.06.05c.04.03.06.02.06.02.02 0 .03-.02.03-.05v-.02.02l.07.03c.04 0 .07-.03.07-.06v-.06l.03.02c0 .04.03.07.07.07.03 0 .07-.02.07-.06v-.03l.01.02c0 .03.04.05.07.05.04 0 .07-.03.07-.07v-.02h.02Z"
    class="ak"
  /><path
    d="M8.26 16.24c-.19 0-.36.02-.49.06l-.02-.01.01-.02c.12-.04.3-.06.5-.06s.37.02.5.06l.01.02-.02.01c-.12-.04-.3-.06-.49-.06Z"
    class="g"
  /><path
    d="m7.61 16.16-.04-.05-.04-.02.04-.02.03.01h.02v.07ZM7.73 16.11v.04h-.11v-.02l.07-.06.04.03"
    class="ak"
  /><path
    d="M7.61 16.14h.03c.01 0 .02.02 0 .03h-.03c-.01 0-.02-.02 0-.03ZM7.77 16.15v-.03s.02 0 .02.02v.03s-.02 0-.02-.02ZM7.81 16.1l.03.03.08-.04-.01-.02h-.09l-.02.04M7.9 15.95l-.04.04.05.07h.02l.02-.09-.06-.02M8.05 16.05l-.02.04h-.09l-.01-.02.08-.05.03.03"
    class="ak"
  /><circle cx="7.93" cy="16.07" r=".03" class="ak" /><path
    d="m8.08 16.09.01-.02c.01 0 .02 0 .02.02l-.01.02s-.02 0-.02-.02ZM8.14 16.05l.03.04.09-.03v-.02l-.08-.02-.03.04"
    class="ak"
  /><path
    d="m8.26 15.92-.05.03.04.09h.02l.04-.09-.05-.03M8.38 16.05l-.02.04-.09-.03v-.02l.09-.02.02.04"
    class="ak"
  /><circle cx="8.26" cy="16.05" r=".03" class="ak" /><path
    d="m8.44 16.09-.01-.02c-.01 0-.02 0-.02.02l.01.02s.02 0 .02-.02ZM8.47 16.05l.02.04h.09l.01-.02-.08-.05-.03.03M8.61 15.95l.04.04-.05.07h-.02l-.02-.09.06-.02M8.7 16.1l-.03.03-.08-.04.01-.02h.09l.02.04"
    class="ak"
  /><circle cx="8.59" cy="16.07" r=".03" class="ak" /><path
    d="M8.74 16.15v-.03s-.02 0-.02.02v.03s.02 0 .02-.02ZM8.9 16.16l.04-.05.04-.02-.04-.02-.03.01h-.02v.07ZM8.78 16.11v.04h.11v-.02l-.07-.06-.04.03"
    class="ak"
  /><path d="M8.9 16.14h-.03c-.01 0-.02.02 0 .03h.03v-.03Z" class="ak" /><path
    d="m7.77 16.37.02-.03h.04l-.02.04h-.04"
    class="ai"
  /><path
    d="M7.95 16.34h-.06c0-.01 0-.02.02-.02h.04l.05-.01c.01 0 .02 0 .02.02 0 .01 0 .02-.02.02h-.05"
    class="aj"
  /><circle cx="8.1" cy="16.31" r=".03" class="ah" /><path
    d="M8.26 16.32H8.2s-.02 0-.02-.02 0-.02.02-.02h.12s.02 0 .02.02 0 .02-.02.02h-.06"
    class="ai"
  /><circle cx="8.42" cy="16.31" r=".03" class="ah" /><path
    d="M8.56 16.34h.06c0-.01 0-.02-.02-.02h-.04l-.05-.01c-.01 0-.02 0-.02.02 0 .01 0 .02.02.02h.05"
    class="aj"
  /><path d="m8.74 16.37-.02-.03h-.04l.02.04h.04" class="ai" /><path
    d="M8.26 16.49a1.6 1.6 0 0 1-.4-.04 2.06 2.06 0 0 1 .8 0 1.6 1.6 0 0 1-.4.04Z"
    class="f"
  /><path d="M8.33 16.48v-.07m-.04.08v-.08m-.03.08v-.08" class="ab" /><path
    d="M8.24 16.49v-.08"
    class="aa"
  /><path d="M8.22 16.49v-.08" class="bp" /><path
    d="M8.2 16.49v-.08M8.18 16.49v-.08"
    class="al"
  /><path d="M8.16 16.49v-.08" class="j" /><path
    d="M8.13 16.48v-.07m.02.07v-.08"
    class="bj"
  /><path d="M8.09 16.48v-.07m.02.07v-.07" class="z" /><path
    d="M8.05 16.48v-.06m.01.06v-.06m.01.06v-.06"
    class="ad"
  /><path d="M8.04 16.48v-.06" class="u" /><path
    d="M8.02 16.47v-.05"
    class="bo"
  /><path d="M8.01 16.47v-.05" class="d" /><path
    d="M7.98 16.47v-.04m.02.04v-.04M7.96 16.46v-.03"
    class="bk"
  /><path d="M7.94 16.46v-.03" class="au" /><path
    d="M7.93 16.46v-.02"
    class="ap"
  /><path d="M7.91 16.46v-.02" class="bg" /><path
    d="M7.9 16.45"
    class="an"
  /><path
    d="M9.25 23.13a.49.49 0 0 1-.25-.06c-.06-.03-.15-.05-.25-.05s-.18.02-.25.05c-.06.03-.15.05-.25.05s-.19-.02-.25-.06c-.06-.03-.15-.05-.24-.05s-.18.02-.25.05a.57.57 0 0 1-.25.06v.15c.1 0 .19-.02.25-.06.06-.03.15-.05.25-.05s.18.02.24.05c.06.03.15.06.25.06s.18-.02.25-.05c.06-.03.15-.05.25-.05s.18.02.25.05c.06.03.15.06.25.06v-.15Z"
    class="l"
  /><path
    d="M9.25 23.29a.49.49 0 0 1-.25-.06c-.06-.03-.15-.05-.25-.05s-.18.02-.25.05c-.06.03-.15.05-.25.05s-.19-.02-.25-.06c-.06-.03-.15-.05-.24-.05s-.18.02-.25.05a.57.57 0 0 1-.25.06v.15c.1 0 .19-.02.25-.06.06-.03.15-.05.25-.05s.18.02.24.05c.06.03.15.06.25.06s.18-.02.25-.05.15-.05.25-.05.18.02.25.05c.06.03.15.05.25.05v-.15"
    class="q"
  /><path
    d="M9.25 23.44a.62.62 0 0 1-.25-.05c-.06-.03-.15-.05-.25-.05s-.18.02-.25.05-.15.05-.25.05-.19-.02-.25-.06c-.06-.03-.15-.05-.24-.05s-.18.02-.25.05a.57.57 0 0 1-.25.06v.15c.1 0 .19-.02.25-.06.06-.03.15-.05.25-.05s.18.02.24.05c.06.03.15.06.25.06s.18-.02.25-.05c.06-.03.15-.05.25-.05s.18.02.25.05c.06.03.15.05.25.05v-.15"
    class="l"
  /><path
    d="M9.25 23.75a.49.49 0 0 1-.25-.06c-.06-.03-.15-.05-.25-.05s-.18.02-.25.05-.15.05-.25.05-.19-.02-.25-.06c-.06-.03-.15-.05-.24-.05s-.18.02-.25.05a.57.57 0 0 1-.25.06v-.15c.1 0 .19-.02.25-.06.06-.03.15-.05.25-.05s.18.02.24.05c.06.03.15.06.25.06s.18-.02.25-.05c.06-.03.15-.05.25-.05s.18.02.25.05c.06.03.15.05.25.05v.15"
    class="q"
  /><path
    d="M9.25 23.9a.62.62 0 0 1-.25-.05c-.06-.03-.15-.05-.25-.05s-.18.02-.25.05-.15.05-.25.05-.19-.02-.25-.06c-.06-.03-.15-.05-.24-.05s-.18.02-.25.05a.57.57 0 0 1-.25.06v-.15c.1 0 .19-.02.25-.06.06-.03.15-.05.25-.05s.18.02.24.05c.06.03.15.06.25.06s.18-.02.25-.05.15-.05.25-.05.18.02.25.05c.06.03.15.06.25.06v.15Z"
    class="l"
  /><path
    d="M7.7 22.5v.04c0 .09-.08.17-.18.17h1.46c-.1 0-.18-.07-.18-.17v-.04H7.68Z"
    class="at"
  /><path
    d="M7.73 22.41h1.06s.06.02.06.05-.03.05-.06.05H7.73s-.06-.02-.06-.05.03-.05.06-.05ZM7.53 23.08h1.45v-.37H7.53v.37Z"
    class="p"
  /><path d="M7.74 22.35h1.03v-5.06H7.74v5.06Z" class="q" /><path
    d="M8.48 17.29v5.05m.12-5.05v5.05"
    class="i"
  /><path d="M7.55 16.88h1.42v-.37H7.55v.37Z" class="p" /><path
    d="M7.7 17.13h1.12c-.04-.01-.06-.05-.06-.08s.03-.07.07-.08H7.71s.06.05.06.08-.02.07-.06.08Z"
    class="at"
  /><path
    d="M7.73 17.13h1.06s.06.02.06.05-.03.05-.06.05H7.73s-.06-.02-.06-.05.03-.05.06-.05ZM7.73 16.88h1.06s.07.02.07.04-.03.04-.07.04H7.73s-.06-.02-.06-.04.03-.04.06-.04Z"
    class="p"
  /><path
    d="M7.42 21.09c-.14.08-.24.17-.23.21 0 .04.05.07.12.11.1.07.17.2.12.26.09-.07.14-.17.14-.29s-.06-.23-.15-.29Z"
    class="r"
  /><path
    d="M9.83 19.18A3.57 3.57 0 0 0 8.78 19c-.15 0-.32.02-.5.04-.62.1-1.09.35-1.05.55v.02l-.24-.54c-.04-.22.48-.5 1.17-.61.22-.04.43-.05.61-.05.44 0 .82.06 1.05.14v.62"
    class="as"
  /><path
    d="M7.74 19.81c-.29-.02-.48-.1-.5-.22-.02-.1.08-.2.25-.3l.25.02v.5M8.78 19.43c.18.03.31.07.38.13.03.08-.13.22-.39.37v-.5"
    class="r"
  /><path
    d="M7.1 20.79c-.03-.08.25-.25.65-.39.18-.06.33-.13.51-.21.55-.24.95-.52.9-.62s.08.51.08.51c.05.09-.32.37-.83.61-.16.08-.5.2-.66.26-.29.1-.57.29-.55.36l-.1-.51Z"
    class="as"
  /><path
    fill="#ad1519"
    stroke="#000"
    stroke-width=".02"
    d="m17.74 16.12-.08.06c-.03 0-.08-.03-.08-.03s-.03.03-.07.04c-.04 0-.09-.04-.09-.04s-.04.05-.07.06c-.03.01-.07-.02-.07-.02l-.04.04h-.03l-.04-.02-.04-.05-.04-.02-.02-.07v-.04c0-.04.06-.09.15-.11h.13a.34.34 0 0 1 .2-.05c.08 0 .15.02.19.04.04-.03.11-.04.19-.04.09 0 .17.02.2.05a.28.28 0 0 1 .13 0c.09.02.15.07.15.11v.04l-.02.07-.04.02-.04.05-.04.02h-.03c-.03-.01-.04-.04-.04-.04s-.04.03-.07.02c-.03-.01-.07-.06-.07-.06s-.05.05-.09.04c-.04 0-.07-.04-.07-.04s-.04.04-.08.03c-.03 0-.08-.06-.08-.06Z"
  /><ellipse cx="17.74" cy="15.86" class="ak" rx=".09" ry=".12" /><ellipse
    cx="17.74"
    cy="15.86"
    class="ak"
    rx=".04"
    ry=".12"
  /><circle cx="17.74" cy="15.71" r=".06" class="br" /><path
    d="M17.82 15.69v.04h-.16v-.04h.06v-.08h-.04v-.04h.04v-.04h.04v.04h.04v.04h-.04v.08h.06"
    class="x"
  /><path
    d="M17.76 15.66s.05.04.04.07c0 .03-.04.05-.07.04s-.05-.04-.04-.07c0-.02.02-.03.04-.04"
    class="av"
  /><path
    d="m17.08 16.1-.01-.07c0-.1.08-.18.18-.18.03 0 .06 0 .09.02"
    class="v"
  /><path
    d="m17.4 15.97-.02-.05c0-.07.08-.13.17-.13.04 0 .08.01.1.03M18.08 15.97l.02-.06c0-.07-.08-.13-.17-.13-.04 0-.08.01-.1.03"
    class="av"
  /><path
    d="m18.4 16.1.01-.07c0-.1-.08-.18-.18-.18-.03 0-.06 0-.09.02"
    class="v"
  /><circle cx="17.02" cy="16.01" r=".03" class="t" /><circle
    cx="17.03"
    cy="15.91"
    r=".03"
    class="t"
  /><circle cx="17.1" cy="15.84" r=".03" class="t" /><circle
    cx="17.18"
    cy="15.8"
    r=".03"
    class="t"
  /><circle cx="17.28" cy="15.8" r=".03" class="t" /><circle
    cx="17.33"
    cy="15.91"
    r=".03"
    class="bq"
  /><circle cx="17.35" cy="15.82" r=".03" class="t" /><circle
    cx="17.42"
    cy="15.76"
    r=".03"
    class="t"
  /><circle cx="17.51" cy="15.73" r=".03" class="t" /><circle
    cx="17.6"
    cy="15.73"
    r=".03"
    class="t"
  /><circle cx="17.87" cy="15.73" r=".03" class="t" /><circle
    cx="17.96"
    cy="15.73"
    r=".03"
    class="t"
  /><circle cx="18.05" cy="15.76" r=".03" class="t" /><circle
    cx="18.13"
    cy="15.82"
    r=".03"
    class="t"
  /><circle cx="18.14" cy="15.91" r=".03" class="bq" /><circle
    cx="18.2"
    cy="15.8"
    r=".03"
    class="t"
  /><circle cx="18.29" cy="15.8" r=".03" class="t" /><circle
    cx="18.38"
    cy="15.84"
    r=".03"
    class="t"
  /><circle cx="18.44" cy="15.91" r=".03" class="t" /><circle
    cx="18.45"
    cy="16.01"
    r=".03"
    class="t"
  /><path
    d="m17.29 16.37-.04-.07c.12-.04.3-.06.49-.06s.37.02.49.06l-.03.06a.47.47 0 0 0-.02.05 1.7 1.7 0 0 0-.43-.05c-.18 0-.35.02-.44.05l-.01-.04"
    class="ak"
  /><path
    d="M17.74 16.52c.15 0 .32-.02.39-.04.04-.01.07-.03.06-.05a.02.02 0 0 0-.02-.02c-.09-.03-.26-.05-.43-.05s-.33.02-.43.05a.02.02 0 0 0-.02.02c0 .02.02.04.06.05.06.02.23.04.39.04ZM18.24 16.23l-.04-.03-.08.02c-.04 0-.06-.06-.06-.06s-.05.04-.09.04c-.04 0-.07-.04-.07-.04s-.05.03-.08.03c-.04 0-.08-.05-.08-.05s-.04.05-.08.05a.11.11 0 0 1-.07-.03s-.02.04-.07.05-.09-.04-.09-.04-.03.05-.06.06c-.03.01-.08-.02-.08-.02l-.01.03-.02.01v.03c.13-.04.3-.06.49-.06s.36.02.48.06v-.03h.01Z"
    class="ak"
  /><path
    d="M17.74 16.06h.02v.03c0 .04.03.07.07.07.03 0 .06-.02.07-.05v-.02.03c0 .03.03.06.07.06.04 0 .07-.03.07-.07l.02-.02v.06c0 .04.03.06.07.06l.06-.03v-.02l.01.02c0 .02 0 .04.03.05l.06-.02.05-.05v.03l-.06.07-.06.02c-.02 0-.03-.02-.04-.04l-.05.01c-.04 0-.08-.02-.09-.05a.1.1 0 0 1-.07.03.1.1 0 0 1-.08-.04.1.1 0 0 1-.07.03c-.03 0-.07-.02-.08-.04-.02.03-.05.04-.09.04a.1.1 0 0 1-.07-.03c-.02.02-.05.04-.08.04s-.06-.01-.07-.03c-.01.03-.05.05-.09.05l-.05-.01c0 .02-.02.04-.04.04s-.04 0-.06-.02l-.06-.07v-.03l.06.05c.04.03.06.02.06.02.02 0 .03-.02.03-.05v-.02.02l.07.03c.04 0 .07-.03.07-.06v-.06l.03.02c0 .04.03.07.07.07.03 0 .07-.02.07-.06v-.03l.01.02c0 .03.04.05.07.05.04 0 .07-.03.07-.07v-.02h.02Z"
    class="ak"
  /><path
    d="M17.74 16.24c-.19 0-.36.02-.49.06l-.02-.01.01-.02c.12-.04.3-.06.5-.06s.37.02.5.06l.01.02-.02.01c-.12-.04-.3-.06-.49-.06Z"
    class="g"
  /><path
    d="m17.09 16.16-.04-.05-.04-.02.04-.02.03.01h.02v.07ZM17.21 16.11v.04h-.11v-.02l.07-.06.04.03"
    class="ak"
  /><path
    d="M17.09 16.14h.03c.01 0 .02.02 0 .03h-.03c-.01 0-.02-.02 0-.03ZM17.25 16.15v-.03s.02 0 .02.02v.03s-.02 0-.02-.02ZM17.29 16.1l.03.03.08-.04-.01-.02h-.09l-.02.04M17.38 15.95l-.04.04.05.07h.02l.02-.09-.06-.02M17.53 16.05l-.02.04h-.09l-.01-.02.08-.05.03.03"
    class="ak"
  /><circle cx="17.41" cy="16.07" r=".03" class="ak" /><path
    d="m17.56 16.09.01-.02c.01 0 .02 0 .02.02l-.01.02s-.02 0-.02-.02ZM17.62 16.05l.03.04.09-.03v-.02l-.08-.02-.03.04"
    class="ak"
  /><path
    d="m17.74 15.92-.05.03.04.09h.02l.04-.09-.05-.03M17.86 16.05l-.02.04-.09-.03v-.02l.09-.02.02.04"
    class="ak"
  /><circle cx="17.74" cy="16.05" r=".03" class="ak" /><path
    d="m17.92 16.09-.01-.02c-.01 0-.02 0-.02.02l.01.02s.02 0 .02-.02ZM17.95 16.05l.02.04h.09l.01-.02-.08-.05-.03.03M18.1 15.95l.04.04-.05.07h-.02l-.02-.09.06-.02M18.18 16.1l-.03.03-.08-.04.01-.02h.09l.02.04"
    class="ak"
  /><circle cx="18.07" cy="16.07" r=".03" class="ak" /><path
    d="M18.23 16.15v-.03s-.02 0-.02.02v.03s.02 0 .02-.02ZM18.38 16.16l.04-.05.04-.02-.04-.02-.03.01h-.02v.07Z"
    class="ak"
  /><path d="M18.26 16.11v.04h.11v-.02l-.07-.06-.04.03" class="ak" /><path
    d="M18.38 16.14h-.03c-.01 0-.02.02 0 .03h.03v-.03Z"
    class="ak"
  /><path d="m17.25 16.37.02-.03h.04l-.02.04h-.04" class="ai" /><path
    d="M17.43 16.34h-.06c0-.01 0-.02.02-.02h.04l.05-.01c.01 0 .02 0 .02.02 0 .01 0 .02-.02.02h-.05"
    class="aj"
  /><circle cx="17.58" cy="16.31" r=".03" class="ah" /><path
    d="M17.74 16.32h-.06s-.02 0-.02-.02 0-.02.02-.02h.12s.02 0 .02.02 0 .02-.02.02h-.06"
    class="ai"
  /><circle cx="17.9" cy="16.31" r=".03" class="ah" /><path
    d="M18.05 16.34h.06c0-.01 0-.02-.02-.02h-.04l-.05-.01c-.01 0-.02 0-.02.02 0 .01 0 .02.02.02h.05"
    class="aj"
  /><path d="m18.22 16.37-.02-.03h-.04l.02.04h.04" class="ai" /><path
    d="M17.74 16.49a1.6 1.6 0 0 1-.4-.04 2.06 2.06 0 0 1 .8 0 1.6 1.6 0 0 1-.4.04Z"
    class="f"
  /><path d="M17.81 16.48v-.07m-.04.08v-.08m-.03.08v-.08" class="ab" /><path
    d="M17.72 16.49v-.08"
    class="aa"
  /><path d="M17.7 16.49v-.08" class="bp" /><path
    d="M17.68 16.49v-.08M17.66 16.49v-.08"
    class="al"
  /><path d="M17.64 16.49v-.08" class="j" /><path
    d="M17.61 16.48v-.07m.02.07v-.08"
    class="bj"
  /><path d="M17.58 16.48v-.07m.02.07v-.07" class="z" /><path
    d="M17.53 16.48v-.06m.01.06v-.06m.01.06v-.06"
    class="ad"
  /><path d="M17.52 16.48v-.06" class="u" /><path
    d="M17.5 16.47v-.05"
    class="bo"
  /><path d="M17.49 16.47v-.05" class="d" /><path
    d="M17.46 16.47v-.04m.02.04v-.04M17.44 16.46v-.03"
    class="bk"
  /><path d="M17.43 16.46v-.03" class="au" /><path
    d="M17.41 16.46v-.02"
    class="ap"
  /><path d="M17.4 16.46v-.02" class="bg" /><path
    d="M17.38 16.45"
    class="an"
  /><path
    d="M18.73 23.13a.49.49 0 0 1-.25-.06c-.06-.03-.15-.05-.25-.05s-.18.02-.25.05c-.06.03-.15.05-.25.05s-.19-.02-.25-.06c-.06-.03-.15-.05-.24-.05s-.18.02-.25.05a.57.57 0 0 1-.25.06v.15c.1 0 .19-.02.25-.06.06-.03.15-.05.25-.05s.18.02.24.05c.06.03.15.06.25.06s.18-.02.25-.05c.06-.03.15-.05.25-.05s.18.02.25.05c.06.03.15.06.25.06v-.15Z"
    class="l"
  /><path
    d="M18.73 23.29a.49.49 0 0 1-.25-.06c-.06-.03-.15-.05-.25-.05s-.18.02-.25.05c-.06.03-.15.05-.25.05s-.19-.02-.25-.06c-.06-.03-.15-.05-.24-.05s-.18.02-.25.05a.57.57 0 0 1-.25.06v.15c.1 0 .19-.02.25-.06.06-.03.15-.05.25-.05s.18.02.24.05c.06.03.15.06.25.06s.18-.02.25-.05.15-.05.25-.05.18.02.25.05c.06.03.15.05.25.05v-.15"
    class="q"
  /><path
    d="M18.73 23.44a.62.62 0 0 1-.25-.05c-.06-.03-.15-.05-.25-.05s-.18.02-.25.05-.15.05-.25.05-.19-.02-.25-.06c-.06-.03-.15-.05-.24-.05s-.18.02-.25.05a.57.57 0 0 1-.25.06v.15c.1 0 .19-.02.25-.06.06-.03.15-.05.25-.05s.18.02.24.05c.06.03.15.06.25.06s.18-.02.25-.05c.06-.03.15-.05.25-.05s.18.02.25.05c.06.03.15.05.25.05v-.15"
    class="l"
  /><path
    d="M18.73 23.75a.49.49 0 0 1-.25-.06c-.06-.03-.15-.05-.25-.05s-.18.02-.25.05-.15.05-.25.05-.19-.02-.25-.06c-.06-.03-.15-.05-.24-.05s-.18.02-.25.05a.57.57 0 0 1-.25.06v-.15c.1 0 .19-.02.25-.06.06-.03.15-.05.25-.05s.18.02.24.05c.06.03.15.06.25.06s.18-.02.25-.05c.06-.03.15-.05.25-.05s.18.02.25.05c.06.03.15.05.25.05v.15"
    class="q"
  /><path
    d="M18.73 23.9a.62.62 0 0 1-.25-.05c-.06-.03-.15-.05-.25-.05s-.18.02-.25.05-.15.05-.25.05-.19-.02-.25-.06c-.06-.03-.15-.05-.24-.05s-.18.02-.25.05a.57.57 0 0 1-.25.06v-.15c.1 0 .19-.02.25-.06.06-.03.15-.05.25-.05s.18.02.24.05c.06.03.15.06.25.06s.18-.02.25-.05.15-.05.25-.05.18.02.25.05c.06.03.15.06.25.06v.15Z"
    class="l"
  /><path
    d="M17.18 22.5v.04c0 .09-.08.17-.18.17h1.46c-.1 0-.18-.07-.18-.17v-.04h-1.12Z"
    class="at"
  /><path
    d="M17.21 22.41h1.06s.06.02.06.05-.03.05-.06.05h-1.06s-.06-.02-.06-.05.03-.05.06-.05ZM17.01 23.08h1.45v-.37h-1.45v.37Z"
    class="p"
  /><path d="M17.22 22.35h1.03v-5.06h-1.03v5.06Z" class="q" /><path
    d="M17.96 17.29v5.05m.12-5.05v5.05"
    class="i"
  /><path d="M17.03 16.88h1.42v-.37h-1.42v.37Z" class="p" /><path
    d="M17.18 17.13h1.12c-.04-.01-.06-.05-.06-.08s.03-.07.07-.08h-1.12s.06.05.06.08-.02.07-.06.08Z"
    class="at"
  /><path
    d="M17.21 17.13h1.06s.06.02.06.05-.03.05-.06.05h-1.06s-.06-.02-.06-.05.03-.05.06-.05ZM17.21 16.88h1.06s.07.02.07.04-.03.04-.07.04h-1.06s-.06-.02-.06-.04.03-.04.06-.04Z"
    class="p"
  /><path
    d="M18.58 21.09c.14.08.24.17.23.21 0 .04-.05.07-.12.11-.1.07-.17.2-.12.26-.09-.07-.14-.17-.14-.29s.06-.23.15-.29Z"
    class="r"
  /><path
    d="M16.17 19.18c.23-.09.61-.16 1.05-.18.15 0 .32.02.5.04.62.1 1.09.35 1.05.55v.02l.24-.54c.04-.22-.48-.5-1.17-.61a3.4 3.4 0 0 0-.61-.05c-.44 0-.82.06-1.05.14v.62"
    class="as"
  /><path
    d="M18.26 19.81c.29-.02.48-.1.5-.22.02-.1-.08-.2-.25-.3l-.25.02v.5M17.22 19.43a.83.83 0 0 0-.38.13c-.03.08.13.22.39.37v-.5"
    class="r"
  /><path
    d="M18.9 20.79c.03-.08-.25-.25-.65-.39-.18-.06-.33-.13-.51-.21-.55-.24-.95-.52-.9-.62s-.08.51-.08.51c-.05.09.32.37.83.61.16.08.5.2.66.26.29.1.57.29.55.36l.1-.51Z"
    class="as"
  /><path
    d="M7.67 18.94c.13-.05.21-.1.17-.2-.03-.06-.09-.08-.19-.04l-.17.06.16.38.05-.02.05-.02-.07-.17Zm-.08-.18.04-.02s.08 0 .1.05c.01.03.01.07-.03.1a.08.08 0 0 0-.04.02l-.06-.15M8.07 18.59l-.05.01h-.06l.09.4.28-.06v-.05l-.17.04-.08-.36M8.63 18.93l.18-.42h-.06l-.12.31c-.05-.1-.11-.19-.15-.29h-.14l.23.4h.06M9.21 18.63l.03-.06-.12-.04c-.11-.01-.18.04-.19.11-.02.14.21.13.2.23 0 .04-.05.06-.09.05a.1.1 0 0 1-.1-.08h-.01l-.03.07.12.04c.12.01.2-.03.21-.11.01-.14-.21-.14-.21-.23 0-.03.03-.06.09-.05.04 0 .07.03.08.06h.01M16.81 18.96l.14-.44h-.06l-.09.31-.18-.27-.06.01c-.02.01-.04 0-.07 0l.27.38h.06M17.21 18.52h-.12v.41h.28v-.06h-.17v-.36M17.66 18.59l.13.02v-.05l-.39-.03v.06h.14l-.03.37h.12l.03-.37M17.81 18.99h.06l.05.01.05-.19.03.08.06.14.07.01.07.02-.02-.04-.09-.19c.07 0 .13-.02.14-.08 0-.04 0-.07-.04-.1l-.12-.04-.16-.03-.1.4m.2-.34s.1.02.1.07v.03c-.01.06-.06.08-.14.06l.04-.16M18.55 19.11l-.02.13.06.03.05.03.04-.46-.03-.01s-.02 0-.02-.02l-.41.26.03.02.03.02.11-.08.15.08Zm-.12-.1.14-.09-.02.15-.12-.07"
    class="br"
  /><path
    d="M12.96 13.73c.42 0 .8.06 1.04.16a2.26 2.26 0 0 0 .97.16c.17 0 .42.05.68.16.21.09.38.2.5.31l-.1.09-.03.25-.27.31-.14.12-.32.26h-.17l-.05.16-2.09-.25-2.1.25-.05-.14h-.17l-.32-.27-.14-.12-.27-.31-.03-.25-.1-.09c.12-.11.29-.22.5-.31.25-.11.5-.16.68-.16.13 0 .28 0 .44-.02.21-.03.39-.07.53-.14.25-.1.6-.16 1.02-.16Z"
    class="ai"
  /><path
    d="m11.41 14.28.09.07.13-.22a.5.5 0 0 1-.24-.41v-.06c.01-.28.35-.5.78-.5.22 0 .42.06.56.16l.01-.12a1.16 1.16 0 0 0-.58-.14c-.49 0-.87.28-.89.61v.06c0 .18.08.33.21.44l-.07.12"
    class="p"
  /><path
    d="M11.42 14.28c-.17-.13-.27-.29-.27-.48 0-.21.14-.41.35-.53a.56.56 0 0 0-.22.4v.06c0 .18.08.33.21.44l-.06.12"
    class="p"
  /><path
    d="M9.94 14.5a.59.59 0 0 1-.15-.39c0-.09.02-.17.06-.25.14-.28.56-.48 1.07-.48.14 0 .27.01.39.04a.55.55 0 0 0-.07.09c-.1-.02-.21-.03-.32-.03-.46 0-.85.18-.96.42a.46.46 0 0 0-.05.2c0 .15.07.28.18.37l-.17.27-.09-.07.12-.18Z"
    class="p"
  /><path
    d="M10.12 13.59a.69.69 0 0 0-.26.28.54.54 0 0 0-.06.25c0 .15.06.28.15.39l-.1.16a.66.66 0 0 1-.15-.43c0-.27.17-.5.43-.65ZM12.98 13c.11 0 .21.07.23.17l.03.29v.07c0 .22.04.42.08.54l-.34.33-.35-.33c.05-.12.08-.32.08-.54v-.07c0-.11.01-.21.03-.29.02-.1.12-.17.24-.17Z"
    class="p"
  /><path
    d="M12.98 13.11c.06 0 .11.04.12.09l.03.28v.07c0 .21.03.4.08.51l-.23.21-.23-.21c.04-.11.07-.3.08-.51v-.07c0-.1.01-.2.03-.28.01-.05.06-.09.12-.09ZM14.55 14.28l-.09.07-.13-.22a.5.5 0 0 0 .24-.41v-.06c-.01-.28-.35-.5-.78-.5a.98.98 0 0 0-.56.16l-.01-.12c.16-.09.36-.14.58-.14.49 0 .87.28.89.61v.06c0 .18-.08.33-.21.44l.07.12"
    class="p"
  /><path
    d="M14.55 14.28c.17-.13.27-.29.27-.48 0-.21-.14-.41-.35-.53.13.11.21.24.22.4v.06c0 .18-.08.33-.21.44l.06.12"
    class="p"
  /><path
    d="M16.02 14.5c.09-.1.15-.24.15-.39a.54.54 0 0 0-.06-.25c-.14-.28-.56-.48-1.07-.48-.14 0-.27.01-.39.04l.07.09c.1-.02.21-.03.32-.03.46 0 .85.18.96.42.03.06.05.13.05.2 0 .15-.07.28-.18.37l.17.27.09-.07-.12-.18Z"
    class="p"
  /><path
    d="M15.85 13.59c.12.08.21.17.26.28.04.08.06.16.06.25 0 .15-.06.28-.15.39l.1.16c.1-.12.15-.27.15-.43 0-.27-.17-.5-.43-.65Z"
    class="p"
  /><ellipse
    cx="12.99"
    cy="12.75"
    fill="#005bbf"
    stroke="#000"
    stroke-width=".02"
    rx=".28"
    ry=".27"
  /><path
    d="M12.91 12v.14h-.15v.15h.15v.42h-.19l-.01.04c0 .04 0 .07.02.1h.52a.36.36 0 0 0 .02-.1l-.01-.04h-.19v-.42h.15v-.15h-.15V12h-.15Z"
    class="ak"
  /><ellipse cx="12.98" cy="14.12" class="n" rx=".12" ry=".11" /><ellipse
    cx="12.98"
    cy="13.9"
    class="n"
    rx=".12"
    ry=".11"
  /><ellipse cx="12.98" cy="13.66" class="n" rx=".1" ry=".09" /><circle
    cx="12.98"
    cy="13.44"
    r=".07"
    class="n"
  /><circle cx="12.98" cy="13.25" r=".06" class="n" /><circle
    cx="9.74"
    cy="14.74"
    r=".07"
    class="n"
  /><circle cx="9.64" cy="14.57" r=".07" class="n" /><circle
    cx="9.58"
    cy="14.38"
    r=".07"
    class="n"
  /><circle cx="9.57" cy="14.17" r=".07" class="n" /><circle
    cx="9.62"
    cy="13.96"
    r=".07"
    class="n"
  /><circle cx="9.73" cy="13.77" r=".07" class="n" /><circle
    cx="9.87"
    cy="13.62"
    r=".07"
    class="n"
  /><circle cx="10.04" cy="13.49" r=".07" class="n" /><circle
    cx="10.24"
    cy="13.39"
    r=".07"
    class="n"
  /><circle cx="10.44" cy="13.31" r=".07" class="n" /><circle
    cx="10.67"
    cy="13.27"
    r=".07"
    class="n"
  /><circle cx="10.89" cy="13.26" r=".07" class="n" /><circle
    cx="11.1"
    cy="13.27"
    r=".07"
    class="n"
  /><circle cx="11.34" cy="14.21" r=".07" class="n" /><circle
    cx="11.22"
    cy="14.04"
    r=".07"
    class="n"
  /><circle cx="11.16" cy="13.86" r=".07" class="n" /><circle
    cx="11.17"
    cy="13.65"
    r=".07"
    class="n"
  /><circle cx="11.21" cy="13.45" r=".07" class="n" /><circle
    cx="11.32"
    cy="13.27"
    r=".07"
    class="n"
  /><circle cx="11.48" cy="13.14" r=".07" class="n" /><circle
    cx="11.67"
    cy="13.03"
    r=".07"
    class="n"
  /><circle cx="11.88" cy="12.97" r=".07" class="n" /><circle
    cx="12.1"
    cy="12.93"
    r=".07"
    class="n"
  /><circle cx="12.31" cy="12.94" r=".07" class="n" /><circle
    cx="12.54"
    cy="12.97"
    r=".07"
    class="n"
  /><circle cx="12.74" cy="13.05" r=".07" class="n" /><circle
    cx="13.22"
    cy="13.05"
    r=".07"
    class="n"
  /><circle cx="13.43" cy="12.97" r=".07" class="n" /><circle
    cx="13.65"
    cy="12.94"
    r=".07"
    class="n"
  /><circle cx="13.87" cy="12.93" r=".07" class="n" /><circle
    cx="14.08"
    cy="12.97"
    r=".07"
    class="n"
  /><circle cx="14.29" cy="13.03" r=".07" class="n" /><circle
    cx="14.48"
    cy="13.14"
    r=".07"
    class="n"
  /><circle cx="14.65" cy="13.27" r=".07" class="n" /><circle
    cx="14.75"
    cy="13.45"
    r=".07"
    class="n"
  /><circle cx="14.8" cy="13.65" r=".07" class="n" /><circle
    cx="14.81"
    cy="13.86"
    r=".07"
    class="n"
  /><circle cx="14.74" cy="14.04" r=".07" class="n" /><circle
    cx="14.62"
    cy="14.21"
    r=".07"
    class="n"
  /><circle cx="14.86" cy="13.27" r=".07" class="n" /><circle
    cx="15.08"
    cy="13.26"
    r=".07"
    class="n"
  /><circle cx="15.29" cy="13.27" r=".07" class="n" /><circle
    cx="15.52"
    cy="13.31"
    r=".07"
    class="n"
  /><circle cx="15.73" cy="13.39" r=".07" class="n" /><circle
    cx="15.93"
    cy="13.49"
    r=".07"
    class="n"
  /><circle cx="16.09" cy="13.62" r=".07" class="n" /><circle
    cx="16.24"
    cy="13.77"
    r=".07"
    class="n"
  /><circle cx="16.35" cy="13.96" r=".07" class="n" /><circle
    cx="16.4"
    cy="14.17"
    r=".07"
    class="n"
  /><circle cx="16.39" cy="14.38" r=".07" class="n" /><circle
    cx="16.33"
    cy="14.57"
    r=".07"
    class="n"
  /><circle cx="16.23" cy="14.74" r=".07" class="n" /><path
    d="M12.99 16.49c-.78 0-1.48-.09-1.98-.24-.04-.01-.06-.04-.05-.08 0-.03.02-.06.05-.07.5-.15 1.2-.24 1.98-.24s1.48.09 1.98.24c.03.01.05.04.05.07 0 .03-.02.07-.05.08-.5.15-1.2.24-1.98.24"
    class="p"
  /><path
    d="M12.99 15.85c-.79 0-1.5.1-2 .25.04-.02.04-.07-.01-.2-.06-.16-.16-.15-.16-.15a8.53 8.53 0 0 1 2.17-.27c.85 0 1.63.1 2.18.27 0 0-.1 0-.16.15-.05.13-.06.18-.01.2a7.37 7.37 0 0 0-2.01-.25"
    class="p"
  /><path
    d="M12.99 15.48c-.85 0-1.62.1-2.17.27-.04.01-.08 0-.09-.04s0-.08.04-.09a7.88 7.88 0 0 1 2.21-.28c.88 0 1.66.11 2.22.28.04.01.06.05.04.09s-.05.05-.09.04a8.55 8.55 0 0 0-2.18-.27"
    class="p"
  /><path
    d="M12.99 14.81h.08l-.02.12c0 .16.14.3.31.3.14 0 .26-.09.3-.2l.04-.11.01.11c.02.15.16.25.31.25a.3.3 0 0 0 .31-.3v-.04l.1-.1.05.12s-.03.08-.03.13c0 .16.13.28.3.28.1 0 .19-.05.25-.13l.06-.08v.1c0 .1.04.19.14.2 0 0 .11 0 .26-.11.15-.11.23-.21.23-.21v.11s-.11.19-.24.26c-.07.04-.18.09-.27.07a.27.27 0 0 1-.19-.17.44.44 0 0 1-.23.06.42.42 0 0 1-.4-.25.44.44 0 0 1-.33.14.45.45 0 0 1-.35-.16.48.48 0 0 1-.31.12.47.47 0 0 1-.38-.19.45.45 0 0 1-.38.19.48.48 0 0 1-.31-.12.45.45 0 0 1-.35.16.44.44 0 0 1-.33-.14.42.42 0 0 1-.4.25.46.46 0 0 1-.23-.06c-.03.09-.1.16-.19.17a.5.5 0 0 1-.27-.07c-.13-.08-.25-.26-.25-.26v-.11l.24.21c.15.12.26.11.26.11.1-.02.14-.1.14-.2v-.1l.06.08c.05.08.14.13.25.13.16 0 .3-.13.3-.28 0-.05 0-.09-.03-.13l.05-.12.1.1v.04c0 .16.14.3.31.3.15 0 .29-.1.31-.25l.01-.11.04.11c.04.12.16.2.3.2a.3.3 0 0 0 .31-.3c0-.04 0-.07-.02-.1h.08"
    class="p"
  /><path
    d="M10.34 15.23s-.02-.05-.05-.07c-.05-.04-.12-.05-.15-.02l-.01.02s-.07-.13-.15-.18c-.08-.04-.22-.03-.22-.03 0-.1.08-.18.19-.18.06 0 .12.03.16.07v-.07s.1.02.14.12 0 .24 0 .24l.05-.1a.57.57 0 0 1 .16-.11l.09-.05v.09c.08-.01.17 0 .24.03a.32.32 0 0 1-.17.15l.05.05.03.03-.08.01c-.03 0-.12.02-.17.01l-.11-.01"
    class="p"
  /><path
    d="M10.14 15.14s.1-.03.15.02c.05.04.06.11.03.14-.03.03-.1.03-.15-.02-.05-.04-.06-.11-.03-.14"
    class="r"
  /><path
    d="M10.85 15.2c-.02-.05 0-.1.04-.12.04-.01.08.02.1.07s0 .1-.04.12c-.04.01-.08-.02-.1-.07"
    class="n"
  /><path
    d="M11.46 14.94s-.04-.04-.04-.07l.01-.08-.12-.04-.15-.01h-.07l.02.03.03.05a.33.33 0 0 0-.19.13c.06.04.15.07.23.06l-.01.05v.04l.07-.02c.02 0 .1-.03.14-.06.05-.03.09-.08.09-.08M11.44 14.3c.07.04.13.11.15.19 0 0 0-.02.05-.04l.07-.02-.02.08c0 .02 0 .09-.02.15a.35.35 0 0 1-.04.11.17.17 0 0 0-.1-.03.09.09 0 0 0-.08.06l-.08-.09-.07-.13-.05-.07s.03-.01.07 0c.04 0 .06.02.06.02 0-.08.02-.17.07-.23"
    class="p"
  /><path
    d="m11.65 14.91.02-.08c0-.03-.02-.05-.04-.07 0 0 .04-.05.09-.08.04-.03.11-.05.14-.06l.07-.03v.04l-.01.06c.08 0 .17.02.23.06a.33.33 0 0 1-.19.13l.03.05.02.04h-.07l-.15-.01-.12-.04"
    class="p"
  /><ellipse cx="11.54" cy="14.85" class="r" rx=".14" ry=".13" /><path
    d="M12.2 14.94c0-.06.02-.1.06-.11.04 0 .08.04.09.09 0 .05-.02.1-.06.11-.04 0-.08-.04-.09-.09"
    class="n"
  /><path
    d="M12.89 14.82s-.03-.05-.03-.08.01-.06.03-.08l-.12-.07a.68.68 0 0 0-.17-.04.3.3 0 0 1-.08-.02l.01.04.03.06a.36.36 0 0 0-.24.11c.06.06.15.11.24.11l-.03.06-.01.04.08-.02.17-.04.12-.07M12.99 14.09c.07.06.12.15.12.24 0 0 .01-.02.06-.03.05-.02.08-.01.08-.01l-.03.09c-.01.02-.02.1-.05.16l-.07.11c-.03-.03-.06-.05-.11-.05s-.08.02-.11.05l-.07-.11c-.03-.06-.04-.14-.05-.16l-.04-.09.08.01.06.03c0-.09.05-.18.12-.24M13.09 14.82s.03-.05.03-.08-.01-.06-.03-.08l.12-.07a.68.68 0 0 1 .17-.04.3.3 0 0 0 .08-.02l-.01.04-.03.06c.09 0 .18.05.24.11a.36.36 0 0 1-.24.11l.03.06.01.04-.08-.02-.17-.04-.12-.07"
    class="p"
  /><ellipse cx="12.99" cy="14.73" class="r" rx=".14" ry=".13" /><path
    d="M13.78 14.94c0-.06-.02-.1-.06-.11s-.08.04-.09.09c0 .05.02.1.06.11.04 0 .08-.04.09-.09"
    class="n"
  /><path
    d="m14.34 14.91-.02-.08c0-.03.02-.05.04-.07 0 0-.04-.05-.09-.08-.04-.03-.11-.05-.14-.06a.24.24 0 0 1-.07-.03v.04l.01.06a.44.44 0 0 0-.23.06c.04.06.11.11.19.13l-.03.05-.02.04h.07l.15-.01.12-.04"
    class="p"
  /><path
    d="M14.55 14.3a.32.32 0 0 0-.15.19s0-.02-.05-.04l-.07-.02.02.08c0 .02 0 .09.02.15.01.06.04.11.04.11a.17.17 0 0 1 .1-.03c.04 0 .07.03.08.06l.08-.09.07-.13.05-.07s-.03-.01-.07 0c-.04 0-.06.02-.06.02a.37.37 0 0 0-.07-.23M14.52 14.94s.04-.04.04-.07l-.01-.08.12-.04.15-.01h.07l-.02.03a.52.52 0 0 0-.03.05c.08.02.15.07.19.13a.36.36 0 0 1-.23.06l.01.05v.04l-.07-.02a.39.39 0 0 1-.14-.06c-.05-.03-.09-.08-.09-.08"
    class="p"
  /><ellipse cx="14.44" cy="14.85" class="r" rx=".14" ry=".13" /><path
    d="M15.14 15.2c.02-.05 0-.1-.04-.12-.04-.01-.08.02-.1.07-.02.05 0 .1.04.12.04.01.08-.02.1-.07"
    class="n"
  /><path
    d="M15.65 15.23s.02-.05.05-.07c.05-.04.12-.05.15-.02l.01.02s.07-.13.15-.18.22-.03.22-.03c0-.1-.08-.18-.19-.18a.24.24 0 0 0-.16.07v-.07s-.1.02-.14.12 0 .24 0 .24l-.05-.1a.57.57 0 0 0-.16-.11l-.09-.05v.09a.48.48 0 0 0-.24.03c.03.06.09.12.17.15l-.05.05-.03.03.08.01c.03 0 .12.02.17.01l.11-.01"
    class="p"
  /><path
    d="M15.85 15.14s-.1-.03-.15.02c-.05.04-.06.11-.03.14.03.03.1.03.15-.02.05-.04.06-.11.03-.14"
    class="r"
  /><path
    d="M12.99 16.39c-.7 0-1.34-.08-1.82-.21.48-.13 1.12-.2 1.82-.2s1.34.08 1.83.2c-.48.13-1.12.21-1.83.21Z"
    class="as"
  /><path d="M13.49 16.37v-.38m-.19.39v-.4m-.14.41v-.41" class="j" /><path
    d="M13.04 16.39v-.42"
    class="u"
  /><path d="M12.93 16.39v-.42" class="ap" /><path
    d="M12.82 16.39v-.42"
    class="an"
  /><path
    fill="none"
    stroke="#000"
    stroke-width=".01"
    d="M12.72 16.39v-.42"
  /><path
    fill="none"
    stroke="#000"
    stroke-width=".02"
    d="M12.62 16.39v-.42M12.44 16.37v-.38m.09.38v-.4M12.27 16.35V16m.08.36v-.37"
  /><path
    fill="none"
    stroke="#000"
    stroke-width=".03"
    d="M12.05 16.33v-.31m.07.31v-.32m.08.33V16M11.97 16.33v-.3M11.9 16.31v-.28"
  /><path
    fill="none"
    stroke="#000"
    stroke-width=".04"
    d="M11.82 16.31v-.26M11.66 16.28v-.2m.08.21v-.23M11.58 16.27v-.18M11.5 16.25v-.15"
  /><path
    fill="none"
    stroke="#000"
    stroke-width=".05"
    d="M11.42 16.23v-.12M11.34 16.22v-.09"
  /><path
    fill="none"
    stroke="#000"
    stroke-width=".06"
    d="M11.25 16.2v-.04"
  /><path d="M11.08 16.2a7.66 7.66 0 0 1 3.82 0" class="i" /><path
    d="m10.87 15.92.08-.1.21.03-.17.12-.12-.05"
    class="r"
  /><path
    d="M11.33 15.8s.03-.07.07-.07.07.03.07.07-.03.07-.07.07-.07-.03-.07-.07"
    class="n"
  /><path
    d="m11.94 15.78-.15.02s-.07-.02-.08-.06c0-.04.02-.07.06-.07l.15-.02.15-.02s.07.02.08.06-.02.07-.06.07l-.15.02"
    class="s"
  /><path
    d="M12.38 15.67s.03-.07.07-.07.07.03.07.07-.03.07-.07.07-.07-.03-.07-.07"
    class="n"
  /><path
    d="M12.99 15.73h-.21s-.07-.03-.07-.07.03-.07.07-.07h.42s.07.03.07.07-.03.07-.07.07h-.21"
    class="r"
  /><path
    d="M13.46 15.67s.03-.07.07-.07.07.03.07.07-.03.07-.07.07-.07-.03-.07-.07"
    class="n"
  /><path
    d="m14.04 15.78.15.02s.07-.02.08-.06-.02-.07-.06-.07l-.15-.02-.15-.02s-.07.02-.08.06c0 .04.02.07.06.07l.15.02"
    class="s"
  /><path
    d="M14.51 15.8s.03-.07.07-.07.07.03.07.07-.03.07-.07.07-.07-.03-.07-.07"
    class="n"
  /><path d="m15.12 15.92-.08-.1-.21.03.17.12.12-.05" class="r" /><path
    d="M13.01 24a5.4 5.4 0 0 1-2.35-.54 1.5 1.5 0 0 1-.85-1.35v-2.12h6.38v2.12c0 .58-.34 1.09-.85 1.35-.69.34-1.5.54-2.34.54Z"
    class="ax"
  /><path
    fill="#ffd691"
    stroke="#000"
    stroke-width=".03"
    d="M13.17 23.06c.13.04.2.14.2.25 0 .15-.15.27-.34.27s-.34-.11-.34-.27c0-.11.06-.24.2-.25l-.02-.03-.04-.04h.08l.05.03.03-.05.04-.03.04.04.02.04.05-.03.05-.02-.01.04v.05"
  /><path
    d="M13 23.75s-.25-.17-.36-.19c-.14-.03-.3 0-.37 0l.12.09c.04.03.15.1.22.12.2.05.39-.01.39-.01M13.07 23.76s.16-.17.33-.19c.2-.03.33.02.41.04l-.1.06c-.03.02-.13.1-.26.1l-.32-.01h-.06"
    class="az"
  /><path
    d="M13.03 23.55c-.06-.06-.1-.14-.1-.24s.04-.18.1-.24c.06.06.1.14.1.24s-.04.18-.1.24"
    class="ay"
  /><path
    d="M12.96 23.9s.04-.1.04-.18v-.14h.05l.02.14-.01.15-.05.01-.05.02"
    class="az"
  /><path
    d="M13 22.11c0 .84-.71 1.51-1.59 1.51s-1.6-.68-1.6-1.51v-2.12H13v2.12"
    class="ay"
  /><path
    d="M9.81 22.08c0 .45.19.78.36 1v-3.14h-.36v2.15ZM10.51 23.36c.1.05.24.14.38.18v-3.62h-.38v3.44ZM11.22 23.61h.37v-3.7h-.37v3.7ZM11.92 23.53c.15-.03.31-.12.38-.17v-3.45h-.37v3.62ZM12.65 23.04c.16-.14.3-.45.36-.81v-2.32h-.36v3.13Z"
    class="ba"
  /><path
    d="M16.2 19.99v2.12c0 .84-.72 1.51-1.6 1.51s-1.6-.68-1.6-1.51v-2.12h3.2"
    class="ay"
  /><path
    id="b"
    d="m14.43 21.57.01-.03-.27-.3-.11.05-.19-.22.06-.09-.34-.38h-.02v.26l.11.03v.28l-.11.03v.26a.2.2 0 0 1 .11.11h.2l.03-.11h.3l.03.11h.17Zm-.44-1.18v.1h.18v-.1h-.18Zm-.46 1.29s.07-.03.07-.07-.03-.07-.07-.07-.07.03-.07.07.03.07.07.07Zm1.02-.62-.11-.03v-.28l.11-.03v-.12c-.05-.02-.1-.06-.11-.11h-.17l-.03.11h-.3l-.03-.11h-.2l-.02.04.34.38.11-.05.19.22-.06.09.27.29h.02v-.39Zm-.46-.09-.08.07.11.13.08-.07-.11-.13Zm.51 2.3c-.08 0-.14-.06-.16-.13a.95.95 0 0 1-.3-.08l.05-.09c.08.03.17.06.26.07a.18.18 0 0 1 .1-.09v-.36l-.11-.03v-.28l.11-.03v-.49h-.01l-.25.28.06.09-.19.22-.11-.05-.21.23c.04.06.03.13 0 .18.06.07.13.13.21.17l-.05.09a1.6 1.6 0 0 1-.24-.2c-.06.02-.12 0-.17-.03a.16.16 0 0 1-.02-.23 1.32 1.32 0 0 1-.08-.33h.11c0 .1.03.19.07.27l.09.01.21-.23-.06-.09.19-.22.11.05.25-.28-.01-.03h-.18l-.03.11h-.3l-.03-.11h-.21s-.06.09-.11.1v.26h-.11v-.25c-.07-.02-.12-.08-.12-.16s.05-.14.12-.16v-.26l-.11-.03v-.28l.11-.03v-.26a.16.16 0 0 1-.12-.16c0-.09.08-.16.17-.16a.2.2 0 0 1 .17.11h.2l.03-.11h.3l.03.11h.17c.02-.07.09-.11.16-.11v.53h-.05v.17h.05v1.37h-.05v.17h.05v.77Zm-.38-1.16-.08-.07-.11.13.08.07.11-.13Zm-.63-1.17h-.11v.17h.11v-.17Zm.58.73v-.1h-.18v.1h.18Zm-.67.62-.11-.02-.02-.28.11-.04v.16c0 .06 0 .12.02.18Zm.09-.35.11.03v.14l.01.14-.11.04a1.1 1.1 0 0 1-.02-.18v-.17Zm.69 1.08.02-.11c-.1-.03-.19-.08-.27-.13l-.08.07c.09.07.2.13.32.17Zm-.05.09-.08.08a1.26 1.26 0 0 1-.26-.13l.02-.11c.1.07.2.13.32.17Z"
    class="bs"
  /><path
    id="c"
    d="m14.74 21.57-.01-.03.27-.3.11.05.19-.22-.06-.09.34-.38h.02v.26l-.11.03v.28l.11.03v.26a.2.2 0 0 0-.11.11h-.2l-.03-.11h-.3l-.03.11h-.17Zm.44-1.18v.1H15v-.1h.18Zm.46 1.29s-.07-.03-.07-.07.03-.07.07-.07.07.03.07.07-.03.07-.07.07Zm-1.02-.62.11-.03v-.28l-.11-.03v-.12c.05-.02.1-.06.11-.11h.17l.03.11h.3l.03-.11h.2l.02.04-.34.38-.11-.05-.19.22.06.09-.27.29h-.02v-.39Zm.46-.09.08.07-.11.13-.08-.07.11-.13Zm-.51 2.3c.08 0 .14-.06.16-.13a.95.95 0 0 0 .3-.08l-.05-.09a1.1 1.1 0 0 1-.26.07.18.18 0 0 0-.1-.09v-.36l.11-.03v-.28l-.11-.03v-.49h.01l.25.28-.06.09.19.22.11-.05.21.23a.17.17 0 0 0 0 .18.68.68 0 0 1-.21.17l.05.09c.09-.06.17-.13.24-.2.06.02.12 0 .17-.03a.16.16 0 0 0 .02-.23c.04-.11.07-.22.08-.33h-.11a.6.6 0 0 1-.07.27l-.09.01-.21-.23.06-.09-.19-.22-.11.05-.25-.28.01-.03h.18l.03.11h.3l.03-.11h.21s.06.09.11.1v.26h.11v-.25c.07-.02.12-.08.12-.16s-.05-.14-.12-.16v-.26l.11-.03v-.28l-.11-.03v-.26a.16.16 0 0 0 .12-.16c0-.09-.08-.16-.17-.16a.2.2 0 0 0-.17.11h-.2l-.03-.11h-.3l-.03.11h-.17c-.02-.07-.09-.11-.16-.11v.53h.05v.17h-.05v1.37h.05v.17h-.05v.77Zm.38-1.16.08-.07.11.13-.08.07-.11-.13Zm.63-1.17h.11v.17h-.11v-.17Zm-.58.73v-.1h.18v.1H15Zm.67.62.11-.02.02-.28-.11-.04v.16c0 .06 0 .12-.02.18Zm-.09-.35-.11.03v.14l-.01.14.11.04.02-.18v-.17Zm-.69 1.08-.02-.11c.1-.03.19-.08.27-.13l.08.07c-.09.07-.2.13-.32.17Zm.05.09.08.08c.09-.03.18-.08.26-.13l-.02-.11c-.1.07-.2.13-.32.17Z"
    class="bs"
  /><path
    fill="#058e6e"
    d="M14.42 21.62c0-.09.08-.17.17-.17s.17.07.17.17-.08.16-.17.16-.17-.07-.17-.16"
  /><path d="M9.81 19.99H13v-3.54H9.81v3.54Z" class="ay" /><path
    d="M10.91 17.27h-.06v-.06h-.1v.23h.1v.16h-.22v.47h.12v.94h-.24v.49h1.81v-.49h-.23v-.94h.12v-.47h-.22v-.16h.1v-.23h-.1v.06h-.06v-.06h-.1v.06h-.07v-.06h-.1v.23h.1v.16h-.22v-.51h.12v-.24h-.12v.06h-.06v-.06h-.1v.06h-.06v-.06h-.12v.24h.12v.51h-.22v-.16h.1v-.23h-.1v.06h-.06v-.06h-.12v.06Zm-.4 2.23h1.81m-1.81-.12h1.81m-1.81-.12h1.81m-1.81-.12h1.81m-1.81-.13h1.81m-1.57-.1h1.34m-1.34-.12h1.34m-1.34-.13h1.34m-1.34-.12h1.34m-1.34-.12h1.34m-1.34-.12h1.34m-1.34-.12h1.34m-1.45-.12h1.57m-1.57-.12h1.57m-1.57-.12h1.57m-1.57-.12h1.57m-1.35-.12h1.13m-.68-.12h.22m-.22-.12h.22m-.22-.12h.22m-.22-.12h.22m-.34-.15h.46m-.79.5h.23m-.34-.15h.44m-.44 2.16v-.12m0-.12v-.12m-.12.12v.12m.22 0v-.12m.12.24v-.12m0-.12v-.12m0-.13v-.1m0-.12v-.13m-.12.49v-.13m-.22.13v-.13m.46 0v.13m.1-.13v-.1m-.34-.12v.12m.23-.12v.12m.22-.12v.12m-.12-.12v-.13m.12-.12v.12m0-.35v.12m-.12-.24v.12m.12-.24v.12m-.22-.12v.12m-.23-.12v.12m-.1-.24v.12m.22-.12v.12m.22-.12v.12m.12-.24v.12m-.22-.12v.12m-.23-.12v.12m-.1-.23v.12m.44-.12v.12m-.22-.35v.12m1.01-.12h-.24m.34-.15h-.44m.44 2.16v-.12m0-.12v-.12m.12.12v.12m-.22 0v-.12m-.12.24v-.12m0-.12v-.12m0-.13v-.1m0-.12v-.13m.12.49v-.13m.22.13v-.13m-.46 0v.13m-.1-.13v-.1m.34-.12v.12m-.24-.12v.12m-.22-.12v.12m.12-.12v-.13m-.12-.12v.12m0-.35v.12m.12-.24v.12m-.12-.24v.12m.22-.12v.12m.24-.12v.12m.1-.24v.12m-.22-.12v.12m-.22-.12v.12m-.12-.24v.12m.22-.12v.12m.24-.12v.12m.1-.23v.12m-.44-.12v.12m.22-.35v.12m-.46 1.19v-.13m0-.35v-.12m0 .35v-.12m0-.35v-.12m0-.12v-.12m0-.24v-.12m0-.12v-.12m-.56.31h.23m.22-.35h.22m.22.35h.24"
    class="e"
  /><path
    d="M11.71 19.5v-.31c0-.06-.03-.24-.31-.24-.26 0-.29.18-.29.24v.31h.6Z"
    class="e"
  /><path
    d="M11.21 19.21h-.15c0-.07.01-.16.06-.19l.13.1s-.04.06-.04.09ZM11.46 19.06l.07-.13-.13-.03a.27.27 0 0 0-.12.03l.07.13h.1ZM11.61 19.21h.15c0-.07-.01-.16-.06-.19l-.13.1s.04.06.04.09ZM11.18 18.69v-.32c0-.09-.06-.16-.16-.16s-.16.07-.16.16v.32h.32ZM11.64 18.69v-.32c0-.09.06-.16.16-.16s.16.07.16.16v.32h-.32ZM11.08 17.9v-.29h-.26l.03.29h.23ZM11.52 17.9l.03-.29h-.28v.29h.25ZM11.74 17.9l-.03-.29H12l-.03.29h-.24Z"
    class="e"
  /><path
    d="M11.61 19.5v-.26s-.03-.18-.21-.18c-.16 0-.19.13-.19.18v.26h.4ZM11.16 18.66v-.28c0-.07-.04-.15-.13-.15s-.13.07-.13.15v.28h.26ZM11.67 18.66v-.28c0-.07.04-.15.13-.15s.13.07.13.15v.28h-.26Z"
    class="bt"
  /><path d="M13 19.99h3.2v-3.54H13v3.54Z" class="ax" /><path
    d="M14.63 17.32v-.06h-.16c-.06 0-.1-.04-.15-.08-.05-.04-.07-.07-.11-.08a.24.24 0 0 0-.15.03s.06.02.11.08.1.09.12.1h.2l.12.01Z"
    class="o"
  /><path
    fill="#ed72aa"
    stroke="#000"
    stroke-width=".02"
    d="M15.11 17.18v.19l.02.06.01.06-.05-.03-.04-.03v.07c0 .02.01.06.03.08l.07.08v.09s-.03-.05-.06-.06a.3.3 0 0 1-.08-.04s.05.05.05.1l-.02.1-.05-.07-.07-.06s.03.07.03.12V18s-.02-.04-.05-.06l-.06-.05c0-.01.03.04.03.07 0 .03.02.15.12.3.06.09.15.24.35.19.2-.05.12-.32.08-.44a1.24 1.24 0 0 1-.06-.31c0-.05.04-.19.03-.22 0-.03-.02-.13 0-.21l.06-.15.03-.09v-.09l.05.09v.1s0-.07.06-.11l.14-.09.02-.03s0 .12-.04.17l-.11.13.08-.02h.06l-.09.1c-.05.07-.03.08-.07.14s-.07.06-.11.1c-.07.06-.03.28-.02.31 0 .03.13.3.13.37s.01.21-.1.31c-.07.06-.2.06-.22.08-.03.02-.08.07-.08.18s.04.13.07.16c.03.03.07.01.08.03 0 .02.01.03.03.05l.02.05c0 .02-.06.08-.08.12l-.06.16.01.09s.06.07.02.08c-.03 0-.05-.02-.06-.01-.03 0-.05.03-.06.03-.02 0-.02-.02-.03-.05l-.01-.05c-.01 0-.02.01-.02.03s0 .06-.02.06-.04-.03-.05-.03-.05-.01-.06-.03c0-.02.02-.05.05-.06.03 0 .05-.02.03-.03h-.05c-.02.01-.05 0-.05-.02v-.05c0-.01-.03-.03 0-.05.04-.02.05.02.09.01s.05-.02.07-.04.01-.07-.01-.1-.05-.03-.06-.05l-.02-.06v.15l-.05-.05c-.02-.02-.04-.09-.04-.09v.09c0 .03.03.05.02.05l-.06-.05c-.01 0-.05-.04-.06-.07l-.03-.09v-.1l.03-.07h-.09s-.08-.01-.1.02 0 .1.01.18c.02.08.04.13.03.14 0 .02-.04.05-.05.06h-.06l-.08-.02h-.09l-.07-.02c-.01 0-.05.02-.04.05.01.04-.01.05-.03.05l-.06-.02c-.02 0-.06 0-.05-.03 0-.03.01-.03.03-.05.01-.02.02-.03 0-.03h-.04c-.01.01-.03.03-.05.02-.02 0-.03-.03-.03-.07s-.04-.08 0-.07c.04 0 .09.03.1 0s0-.03-.02-.05-.05-.03-.02-.05l.05-.03c.01-.01.03-.05.05-.04.04.02 0 .05.04.09.04.04.06.06.13.05.07 0 .08-.02.08-.03v-.13l-.04.04c0 .02-.03.05-.03.05v-.13l-.01-.06-.02.06-.01.07s-.04-.04-.03-.1v-.13c.01-.02.05-.1.13-.11h.18l.13-.02-.23-.13a.57.57 0 0 1-.13-.14.5.5 0 0 1-.04-.1l-.06.02-.08.06-.05.07v-.13s-.02.08-.06.11l-.09.07v-.06l.01-.06s-.03.05-.08.05-.12 0-.12.04v.09l-.03.03-.05-.02-.05.01s-.02-.03-.01-.04c0-.02.04-.04.03-.05l-.06.01c-.02 0-.06.02-.05-.01 0-.03.01-.05 0-.07l.01-.04.08-.01c0-.01-.01-.03-.05-.04-.04 0-.06-.03-.04-.05.02-.02.03-.02.03-.04s.01-.05.05-.03c.03.02.03.05.06.06.04.01.12 0 .14-.02l.1-.06c.02 0 .1-.07.1-.07l-.07-.05-.07-.07-.12-.04a.53.53 0 0 1-.11-.03l.05-.02c.01-.01.04-.04.06-.03h.02-.09l-.08-.03h-.05l.09-.04h.07l-.08-.04a.31.31 0 0 0-.04-.06c-.01-.01-.02-.04-.04-.04l-.07.02c-.02 0-.03-.01-.04-.04v-.03c0-.02-.04-.05 0-.06h.09l-.05-.05c-.02-.01-.06-.03-.04-.05l.05-.04c.01-.02.02-.06.05-.04l.07.08c.02 0 .02-.05.02-.07 0-.02 0-.06.02-.05s.03.03.06.03l.07.01-.04.07c-.02.02-.03.07-.02.1.01.03.05.08.07.09l.12.05c.03.02.11.09.14.09s.05.02.05.02l.07-.01h.17c.03 0 .08-.04.07-.07-.01-.03-.09-.06-.09-.09s.04-.03.08-.03c.05 0 .11 0 .13-.06.01-.07.02-.11-.05-.12-.07-.02-.12-.02-.13-.07-.01-.05-.02-.06-.01-.08.01-.01.04-.02.09-.02.05 0 .11 0 .12-.02.02-.01.02-.04.04-.06l.1-.03.18.11c.08.06.15.14.15.14"
  /><path
    d="M14.19 17.58s-.05.01-.07.04c-.02.03-.02.07-.02.07s.04-.04.1-.02l.08.02.08-.02s-.05.05-.04.09l.01.07c0 .05-.04.1-.04.1l.07-.02a.23.23 0 0 0 .11-.05l.06-.06v.09l.01.11.05-.04.06-.04.02-.07s0 .06.02.09l.04.11.04-.08.04-.07v-.05l.02.05m-.73.04.06-.07.08-.05.06-.03m.06.33.09-.05.07-.07"
    class="i"
  /><path d="m15.05 17.43-.03-.04-.01-.03" class="av" /><path
    d="M14.78 18.48s.13.08.13.15c0 .07-.07.15-.07.15"
    class="i"
  /><path
    d="m14.45 17.13-.01-.04v-.02s.06 0 .05.02c0 .02-.02.02-.02.02l-.01.02Z"
    class="h"
  /><path
    d="M14.7 17.04v-.03s.05 0 .07.02c.04.03.06.06.06.07l-.05-.02h-.03l-.02-.01v-.02h-.02Z"
    class="ao"
  /><path
    d="m14.45 17.38.02-.03.02.03h-.04M14.5 17.38l.03-.03.03.03h-.05M14.48 17.17l.05.02-.05.02v-.04M14.54 17.18h.05l-.04.04v-.04"
    class="h"
  /><path
    d="m13.74 17.12.05.03h.05v-.06c-.01-.08-.08-.09-.08-.09s.02.05.01.07c-.01.03-.04.05-.04.05ZM13.59 17.19s-.03-.05-.08-.04c-.06 0-.1.05-.1.05h.08l.03.05.05-.03.02-.04ZM13.52 17.38s-.05 0-.08.04c-.03.03-.02.09-.02.09s.03-.03.06-.03l.07.01-.01-.05-.02-.05ZM13.68 18.03s-.03-.03-.07-.02c-.05 0-.08.06-.08.06h.06c.02 0 .04.03.04.03l.03-.03.02-.04ZM13.63 18.22s-.04 0-.07.02c-.03.03-.04.08-.04.08s.03-.03.06-.02l.06.02v-.04l-.01-.05ZM13.72 18.39s0 .05.02.08c.03.03.07.04.07.04l-.02-.05c0-.03.02-.05.02-.05s-.02-.02-.05-.02h-.05ZM14.19 18.84s-.03-.04-.08-.04-.09.04-.09.04l.07.01.03.04.04-.02.03-.04ZM14.05 19.02s-.06 0-.09.02c-.03.03-.03.09-.03.09s.04-.04.07-.04l.07.02v-.05l-.01-.04ZM14.18 19.21s-.03.04 0 .07l.07.05s-.02-.02 0-.05c0-.02.04-.05.04-.05l-.09-.02ZM14.97 19.28h-.08c-.03.02-.05.09-.05.09s.05-.04.08-.03l.06.02v-.08ZM14.99 19.47s-.04.04-.03.08l.04.07.01-.06c.02-.02.07-.02.07-.02s-.03-.03-.05-.03l-.05-.02ZM15.19 19.53s-.02.05.02.08l.07.04s-.03-.05-.02-.08c0-.03.03-.05.03-.05l-.05-.01-.05.02Z"
    class="o"
  /><path
    d="M15.07 16.91h-.02s0 .02-.02.02c-.02.02-.04.02-.05 0v-.03h-.03c-.02 0-.02-.03 0-.05v-.03h-.02s-.03.03-.04.02v-.02h-.01c-.03 0-.05-.07-.05-.09v.1l-.02.08c.05.01.12.05.19.1s.13.11.15.15l.08-.03.09-.01h.01s-.1 0-.1-.04v-.01h-.02v-.04h.01V17h-.02v.01c-.02.01-.04.02-.05 0v-.03h-.03c-.02 0-.02-.03 0-.05l.02-.02v-.02Z"
    class="ak"
  /><path
    d="M14.93 16.95h.01v.01h-.02v-.01ZM14.99 17l-.02-.02v-.01h.01l.02.02.02.02v.01h-.01l-.02-.02M14.88 16.92h-.02v-.02h.03l.02.02v.01h-.03M14.81 16.88h.02v.01h-.01v-.01ZM15.06 17.05v-.01h-.02v.01h.01ZM15.09 17.09h.01l.01.02v-.01h-.01l-.01-.03h-.01v.01h.01M15.15 17.14v-.01h-.01v.01h.01Z"
    class="ao"
  /><path d="M14.98 16.76h-.04v.06l.05-.03-.02-.03" class="ak" /><path
    d="M14.98 16.76h-.04v.06l.05-.03-.02-.03M14.88 16.79v.03h.06v-.01l-.03-.05-.03.02"
    class="ak"
  /><path
    d="m15 16.85-.03.02-.03-.05v-.01H15v.04M14.92 16.81h.02v.02h-.02v-.02ZM14.78 16.76s0-.03-.02-.05l-.02-.03h.06c.02.02 0 .06 0 .06l-.01.01Z"
    class="ak"
  /><path d="m14.85 16.77-.03.02-.04-.04v-.01h.06v.03" class="ak" /><path
    d="m14.78 16.75.02-.01v.02l-.02.01v-.02ZM15.12 16.85h-.04l-.02.05.05-.03v-.03"
    class="ak"
  /><path
    d="M15.02 16.86v.03l.05.01v-.01l-.03-.05h-.03M15.13 16.95h-.03l-.03-.04v-.01h.06v.05"
    class="ak"
  /><path
    d="M15.06 16.89h.03v.02h-.03v-.02ZM15.25 16.96v.03l-.05.02h-.01V17l.02-.05h.04M15.24 17.06h-.04l-.02-.04v-.01l.05.02v.03"
    class="ak"
  /><path d="M15.14 16.97V17l.04.02h.01v-.01l-.02-.05h-.04" class="ak" /><path
    d="M15.2 17.03v-.02h-.03v.02h.03ZM15.29 17.14h.05l.03.02s0-.03-.02-.05c-.02-.02-.06.01-.06.01v.01ZM15.25 17.08l-.02.03.05.03v-.06h-.04"
    class="ak"
  /><path d="M15.29 17.15v-.02h-.02v.02h.02Z" class="ak" /><ellipse
    cx="13.01"
    cy="19.98"
    fill="#ad1519"
    stroke="#000"
    stroke-width=".04"
    rx="1.03"
    ry="1.16"
  /><ellipse
    cx="13.01"
    cy="19.97"
    fill="#005bbf"
    stroke="#000"
    stroke-width=".04"
    rx=".73"
    ry=".85"
  /><path
    d="M12.67 19.39s-.09.09-.09.18.04.16.04.16c-.01-.03-.05-.06-.09-.06-.05 0-.1.04-.1.09 0 .01 0 .04.02.05l.03.06s.03-.04.06-.04c.04 0 .07.03.07.06v.02h-.08v.07h.07l-.05.1.07-.03.05.06.05-.06.07.03-.05-.1h.07v-.07h-.08v-.02c0-.04.03-.06.07-.06.03 0 .05.01.06.04l.03-.06.02-.05a.09.09 0 0 0-.09-.09c-.04 0-.08.02-.09.06 0 0 .04-.07.04-.16s-.09-.18-.09-.18Z"
    class="be"
  /><path d="M12.53 19.98h.28v-.07h-.28v.07Z" class="bm" /><path
    d="M13.34 19.39s-.09.09-.09.18.04.16.04.16c-.01-.03-.05-.06-.09-.06-.05 0-.1.04-.1.09 0 .01 0 .04.02.05l.03.06s.03-.04.06-.04c.04 0 .07.03.07.06v.02h-.08v.07h.07l-.05.1.07-.03.05.06.05-.06.07.03-.05-.1h.07v-.07h-.08v-.02c0-.04.03-.06.07-.06.03 0 .05.01.06.04l.03-.06.02-.05a.09.09 0 0 0-.09-.09c-.04 0-.08.02-.09.06 0 0 .04-.07.04-.16s-.09-.18-.09-.18Z"
    class="be"
  /><path d="M13.2 19.98h.28v-.07h-.28v.07Z" class="bm" /><path
    d="M13 19.97s-.09.09-.09.18.04.16.04.16c-.01-.03-.05-.06-.09-.06-.05 0-.1.04-.1.09 0 .01 0 .04.02.05l.03.06s.03-.04.06-.04c.04 0 .07.03.07.06v.02h-.08v.07h.07l-.05.1.07-.03.05.06.05-.06.07.03-.05-.1h.07v-.07h-.08v-.02c0-.04.03-.06.07-.06.03 0 .05.01.06.04l.03-.06.02-.05a.09.09 0 0 0-.09-.09c-.04 0-.08.02-.09.06 0 0 .04-.07.04-.16s-.09-.18-.09-.18Z"
    class="be"
  /><path d="M12.87 20.56h.28v-.07h-.28v.07Z" class="bm" /></svg>
