<?xml version="1.0" encoding="UTF-8"?>
<svg width="180px" height="48px" viewBox="0 0 180 48" version="1.1" xmlns="http://www.w3.org/2000/svg" xmlns:xlink="http://www.w3.org/1999/xlink">
    <!-- Generator: Sketch 51.2 (57519) - http://www.bohemiancoding.com/sketch -->
    <title>Logos/EC-logo-horizontal-small</title>
    <desc>Created with Sketch.</desc>
    <defs>
        <polyline id="path-1" points="0.00010828877 0 179.969896 0 179.969896 48 0.00010828877 48"></polyline>
        <polygon id="path-3" points="0.00010828877 0 179.969896 0 179.969896 48 0.00010828877 48"></polygon>
    </defs>
    <g id="Logos" stroke="none" stroke-width="1" fill="none" fill-rule="evenodd">
        <g transform="translate(-952.000000, -420.000000)" id="Logos/EC-logo-horizontal-small">
            <g transform="translate(952.000000, 420.000000)">
                <path d="M101.950015,24.1067273 C101.950015,23.9274545 102.032675,23.8303636 102.224346,23.8303636 L107.271325,23.8303636 C107.435924,23.8303636 107.53194,23.9274545 107.53194,24.0929091 L107.53194,24.9496364 C107.53194,25.1154545 107.462996,25.1983636 107.257608,25.1983636 L103.513705,25.1983636 L103.513705,27.5747273 L106.832394,27.5747273 C107.011071,27.5747273 107.106726,27.6576364 107.106726,27.8234545 L107.106726,28.6798182 C107.106726,28.8456364 107.038143,28.9289091 106.832394,28.9289091 L103.513705,28.9289091 L103.513705,31.6503636 L107.353985,31.6503636 C107.518223,31.6503636 107.600523,31.7336364 107.600523,31.9129091 L107.600523,32.7558182 C107.600523,32.9350909 107.53194,33.0045455 107.339908,33.0045455 L102.224346,33.0045455 C102.032675,33.0045455 101.950015,32.9216364 101.950015,32.7558182 L101.950015,24.1067273 Z" id="Fill-1" fill="#626366" fill-rule="evenodd"></path>
                <path d="M114.513894,33.0044364 L113.540017,33.0044364 C113.334269,33.0044364 113.279402,32.9077091 113.279402,32.7418909 L113.279402,32.3138909 L113.251969,32.3000727 C112.717023,32.6728 111.784295,33.1288 110.947945,33.1288 C109.096568,33.1288 108.918253,32.0237091 108.918253,30.5728 L108.918253,26.5109818 C108.918253,26.3451636 108.986475,26.2346182 109.178868,26.2346182 L110.179817,26.2346182 C110.358132,26.2346182 110.427076,26.3309818 110.427076,26.5109818 L110.427076,30.3931636 C110.427076,31.2222545 110.591314,31.7473455 111.428025,31.7473455 C112.017477,31.7473455 112.922771,31.3051636 113.279402,31.1255273 L113.279402,26.5109818 C113.279402,26.3451636 113.334269,26.2346182 113.540017,26.2346182 L114.513894,26.2346182 C114.705566,26.2346182 114.774148,26.3309818 114.774148,26.5109818 L114.774148,32.7418909 C114.774148,32.9215273 114.705566,33.0044364 114.513894,33.0044364" id="Fill-3" fill="#626366" fill-rule="evenodd"></path>
                <path d="M117.998049,32.7420364 C117.998049,32.9078545 117.929828,33.0045818 117.737434,33.0045818 L116.750202,33.0045818 C116.558531,33.0045818 116.489587,32.9216727 116.489587,32.7420364 L116.489587,26.5107636 C116.489587,26.3311273 116.558531,26.2347636 116.750202,26.2347636 L117.723718,26.2347636 C117.929828,26.2347636 117.998049,26.3449455 117.998049,26.5107636 L117.998049,27.1187636 L118.025483,27.1464 C118.437341,26.7594909 119.410857,26.2900364 120.055175,26.1653091 C120.233491,26.1242182 120.35694,26.1653091 120.384373,26.4005818 L120.480389,27.3260364 C120.494467,27.5194909 120.507822,27.6024 120.219774,27.6576727 C119.451646,27.8096727 118.47813,28.0856727 117.998049,28.2933091 L117.998049,32.7420364 Z" id="Fill-5" fill="#626366" fill-rule="evenodd"></path>
                <path d="M124.046988,27.4227636 C122.88144,27.4227636 122.620825,28.1689455 122.620825,29.6056727 C122.620825,31.0700364 122.88144,31.7885818 124.033632,31.7885818 C125.28148,31.7885818 125.528378,31.0838545 125.528378,29.6056727 C125.528378,28.1413091 125.295197,27.4227636 124.046988,27.4227636 M124.033632,33.1147636 C121.2766,33.1147636 121.098646,31.0838545 121.098646,29.5089455 C121.098646,28.2104 121.386333,26.0965818 124.033632,26.0965818 C126.693926,26.0965818 127.064274,27.8787636 127.064274,29.5089455 C127.064274,31.0838545 126.872242,33.1147636 124.033632,33.1147636" id="Fill-7" fill="#626366" fill-rule="evenodd"></path>
                <path d="M131.714266,27.5055273 C131.151886,27.5055273 130.288103,27.9062545 129.876606,28.1273455 L129.876606,31.5815273 C130.493852,31.7608 130.987287,31.8160727 131.453651,31.8160727 C132.441245,31.8160727 132.784159,31.3051636 132.784159,29.5640727 C132.784159,27.8095273 132.441245,27.5055273 131.714266,27.5055273 M131.604533,33.1288 C131.151886,33.1288 130.520924,33.0458909 129.890322,32.8248 L129.876606,32.8386182 L129.876606,35.2702545 C129.876606,35.4222545 129.835456,35.5466182 129.616352,35.5466182 L128.642114,35.5466182 C128.423009,35.5466182 128.38186,35.4498909 128.38186,35.2702545 L128.38186,26.5109818 C128.38186,26.3309818 128.450443,26.2346182 128.642114,26.2346182 L129.616352,26.2346182 C129.808023,26.2346182 129.862889,26.3451636 129.862889,26.5109818 L129.862889,26.9251636 L129.904039,26.9528 C130.397836,26.6073455 131.275336,26.1240727 132.070897,26.1240727 C133.867769,26.1240727 134.333771,27.4917091 134.333771,29.5778909 C134.333771,31.8302545 133.771392,33.1288 131.604533,33.1288" id="Fill-9" fill="#626366" fill-rule="evenodd"></path>
                <path d="M136.981721,28.9977091 L139.697242,28.9977091 C139.697242,28.1551636 139.477777,27.3395273 138.339662,27.3395273 C137.324635,27.3395273 137.050303,27.9613455 136.981721,28.9977091 L136.981721,28.9977091 Z M136.968004,30.0340727 C137.009154,31.4293455 137.502951,31.8162545 138.627349,31.8162545 C139.121507,31.8162545 139.889274,31.7195273 140.410504,31.6642545 C140.657402,31.6366182 140.739341,31.6366182 140.780491,31.8995273 L140.863151,32.3548 C140.90394,32.5624364 140.876868,32.6726182 140.629608,32.7835273 C140.095023,32.9908 139.093713,33.1286182 138.4216,33.1286182 C135.802095,33.1286182 135.418392,31.4435273 135.418392,29.6471636 C135.418392,28.3071636 135.664929,26.0966182 138.339662,26.0966182 C140.794568,26.0966182 141.233138,27.6991636 141.274287,29.1911636 C141.288365,29.6882545 141.151199,30.0340727 140.602175,30.0340727 L136.968004,30.0340727 Z" id="Fill-11" fill="#626366" fill-rule="evenodd"></path>
                <path d="M146.679052,29.9234909 L145.00563,29.9234909 C144.320162,29.9234909 143.881231,30.1722182 143.881231,31.0838545 C143.881231,31.6918545 144.086619,31.8853091 144.731659,31.8853091 C145.321111,31.8853091 146.157822,31.5398545 146.679052,31.2358545 L146.679052,29.9234909 Z M146.761352,32.2169455 C146.075523,32.7420364 145.156512,33.1147636 144.237501,33.1147636 C142.783905,33.1147636 142.358691,32.3136727 142.358691,31.1533091 C142.344975,29.5365818 143.209119,28.8456727 144.937047,28.8456727 L146.692408,28.8456727 L146.692408,28.4867636 C146.692408,27.6573091 146.390643,27.3674909 145.266245,27.3674909 C144.813598,27.3674909 143.949814,27.4365818 143.401151,27.4918545 C143.12682,27.5333091 143.058237,27.5194909 143.017448,27.3260364 L142.893638,26.8147636 C142.866566,26.6351273 142.907354,26.5245818 143.209119,26.4002182 C143.798932,26.1929455 144.88218,26.0965818 145.52686,26.0965818 C147.899467,26.0965818 148.187515,27.0773091 148.187515,28.6249455 L148.187515,31.2914909 C148.187515,31.8576727 148.256098,31.8714909 148.681311,31.9267636 C148.886699,31.9405818 148.941926,31.9820364 148.941926,32.1340364 L148.941926,32.7144 C148.941926,32.8664 148.84591,32.9627636 148.612368,33.0045818 C148.393263,33.0460364 148.173798,33.0736727 147.968049,33.0736727 C147.32337,33.0736727 146.925951,32.8802182 146.788785,32.2307636 L146.761352,32.2169455 Z" id="Fill-13" fill="#626366" fill-rule="evenodd"></path>
                <path d="M155.470801,33.0044364 L154.483568,33.0044364 C154.305253,33.0044364 154.222953,32.9215273 154.222953,32.7418909 L154.23667,28.8597091 C154.23667,28.0444364 154.044638,27.5055273 153.249076,27.5055273 C152.700413,27.5055273 151.740614,27.9477091 151.370266,28.1273455 L151.370266,32.7418909 C151.370266,32.9077091 151.301683,33.0044364 151.109651,33.0044364 L150.136135,33.0044364 C149.944103,33.0044364 149.875159,32.9215273 149.875159,32.7418909 L149.875159,26.5109818 C149.875159,26.3309818 149.944103,26.2346182 150.136135,26.2346182 L151.109651,26.2346182 C151.301683,26.2346182 151.370266,26.3309818 151.370266,26.5109818 L151.370266,26.9251636 C151.383983,26.9251636 151.397699,26.9389818 151.411416,26.9389818 C151.918568,26.5800727 152.878729,26.1102545 153.71544,26.1102545 C155.566817,26.1102545 155.731416,27.3397091 155.731416,28.7353455 L155.731416,32.7418909 C155.731416,32.9077091 155.676549,33.0044364 155.470801,33.0044364" id="Fill-15" fill="#626366" fill-rule="evenodd"></path>
                <mask id="mask-2" fill="white">
                    <use xlink:href="#path-1"></use>
                </mask>
                <g id="Clip-18"></g>
                <path d="M105.630822,38.2793091 C106.302934,38.2793091 107.413616,38.3760364 108.140595,38.6800364 C108.36006,38.7767636 108.44236,38.8873091 108.401571,39.1080364 L108.278122,39.6745818 C108.236611,39.8404 108.168028,39.9094909 107.921491,39.8818545 C107.249378,39.7993091 106.426384,39.7022182 105.713483,39.7022182 C103.848028,39.7022182 103.573697,41.2222182 103.573697,43.0182182 C103.573697,44.8280364 103.916611,46.2513091 105.713483,46.2513091 C106.508683,46.2513091 107.180795,46.1680364 107.921491,46.0716727 C108.181745,46.0436727 108.236611,46.1131273 108.291477,46.2927636 L108.401571,46.8174909 C108.456076,47.0385818 108.387493,47.1633091 108.168028,47.2596727 C107.496277,47.5498545 106.302934,47.6742182 105.630822,47.6742182 C102.572386,47.6742182 101.928068,45.3945818 101.928068,43.0458545 C101.928068,40.6833091 102.504164,38.2793091 105.630822,38.2793091" id="Fill-17" fill="#626366" fill-rule="evenodd" mask="url(#mask-2)"></path>
                <path d="M112.338265,41.9682182 C111.173078,41.9682182 110.912102,42.7144 110.912102,44.1511273 C110.912102,45.6154909 111.173078,46.3340364 112.324909,46.3340364 C113.572757,46.3340364 113.819655,45.6293091 113.819655,44.1511273 C113.819655,42.6867636 113.586473,41.9682182 112.338265,41.9682182 M112.324909,47.6602182 C109.568238,47.6602182 109.389922,45.6293091 109.389922,44.0544 C109.389922,42.7558545 109.677971,40.6420364 112.324909,40.6420364 C114.985564,40.6420364 115.355551,42.4242182 115.355551,44.0544 C115.355551,45.6293091 115.16388,47.6602182 112.324909,47.6602182" id="Fill-20" fill="#626366" fill-rule="evenodd" mask="url(#mask-2)"></path>
                <path d="M126.273369,47.5498909 L125.286136,47.5498909 C125.094104,47.5498909 125.025521,47.4669818 125.025521,47.2873455 L125.025521,43.3633455 C125.025521,42.3411636 124.778623,42.0509818 124.092794,42.0509818 C123.585642,42.0509818 122.762286,42.4517091 122.337433,42.6728 C122.337433,42.8109818 122.351511,43.0593455 122.351511,43.3771636 L122.351511,47.2873455 C122.351511,47.4531636 122.296283,47.5498909 122.090535,47.5498909 L121.089586,47.5498909 C120.91127,47.5498909 120.856043,47.4669818 120.856043,47.2873455 L120.856043,43.2946182 C120.856043,42.4517091 120.636939,42.0509818 119.950749,42.0509818 C119.471029,42.0509818 118.702901,42.3964364 118.182032,42.6728 L118.182032,47.2873455 C118.182032,47.4531636 118.11381,47.5498909 117.921056,47.5498909 L116.934184,47.5498909 C116.755869,47.5498909 116.686925,47.4669818 116.686925,47.2873455 L116.686925,41.0564364 C116.686925,40.8764364 116.755869,40.7800727 116.934184,40.7800727 L117.907701,40.7800727 C118.11381,40.7800727 118.182032,40.8906182 118.182032,41.0564364 L118.182032,41.4568 L118.195388,41.4706182 C118.730695,41.0978909 119.484746,40.6833455 120.239158,40.6557091 C121.034358,40.6557091 121.693115,40.8215273 122.117968,41.6226182 C122.803797,41.1117091 123.654225,40.6557091 124.532086,40.6557091 C126.341952,40.6557091 126.520628,41.8440727 126.520628,43.2251636 L126.520628,47.2873455 C126.520628,47.4531636 126.465401,47.5498909 126.273369,47.5498909" id="Fill-22" fill="#626366" fill-rule="evenodd" mask="url(#mask-2)"></path>
                <path d="M137.576009,47.5498909 L136.588416,47.5498909 C136.396384,47.5498909 136.327801,47.4669818 136.327801,47.2873455 L136.327801,43.3633455 C136.327801,42.3411636 136.080902,42.0509818 135.395074,42.0509818 C134.887921,42.0509818 134.064926,42.4517091 133.639713,42.6728 C133.639713,42.8109818 133.653429,43.0593455 133.653429,43.3771636 L133.653429,47.2873455 C133.653429,47.4531636 133.598924,47.5498909 133.392814,47.5498909 L132.391865,47.5498909 C132.213549,47.5498909 132.158683,47.4669818 132.158683,47.2873455 L132.158683,43.2946182 C132.158683,42.4517091 131.939218,42.0509818 131.253389,42.0509818 C130.773309,42.0509818 130.00518,42.3964364 129.484311,42.6728 L129.484311,47.2873455 C129.484311,47.4531636 129.415729,47.5498909 129.223697,47.5498909 L128.236103,47.5498909 C128.058148,47.5498909 127.989205,47.4669818 127.989205,47.2873455 L127.989205,41.0564364 C127.989205,40.8764364 128.058148,40.7800727 128.236103,40.7800727 L129.20998,40.7800727 C129.415729,40.7800727 129.484311,40.8906182 129.484311,41.0564364 L129.484311,41.4568 L129.498028,41.4706182 C130.032975,41.0978909 130.787025,40.6833455 131.541437,40.6557091 C132.336638,40.6557091 132.995394,40.8215273 133.420247,41.6226182 C134.106076,41.1117091 134.956143,40.6557091 135.834004,40.6557091 C137.644231,40.6557091 137.822908,41.8440727 137.822908,43.2251636 L137.822908,47.2873455 C137.822908,47.4531636 137.76768,47.5498909 137.576009,47.5498909" id="Fill-24" fill="#626366" fill-rule="evenodd" mask="url(#mask-2)"></path>
                <path d="M140.992123,47.2874909 C140.992123,47.4394909 140.937618,47.5500364 140.745225,47.5500364 L139.771709,47.5500364 C139.579676,47.5500364 139.497377,47.4671273 139.497377,47.2874909 L139.497377,41.0424 C139.497377,40.8489455 139.579676,40.7802182 139.771709,40.7802182 L140.745225,40.7802182 C140.937618,40.7802182 140.992123,40.8904 140.992123,41.0424 L140.992123,47.2874909 Z M140.265144,39.7853091 C139.552243,39.7853091 139.456227,39.3845818 139.456227,38.9838545 C139.456227,38.5416727 139.60711,38.1962182 140.265144,38.1962182 C140.937618,38.1962182 141.074422,38.5140364 141.074422,38.9838545 C141.074422,39.4122182 140.951334,39.7853091 140.265144,39.7853091 L140.265144,39.7853091 Z" id="Fill-26" fill="#626366" fill-rule="evenodd" mask="url(#mask-2)"></path>
                <path d="M144.942606,47.6603636 C144.256777,47.6603636 143.338127,47.5636364 142.816536,47.3563636 C142.542566,47.2458182 142.487338,47.1214545 142.528849,46.9003636 L142.624504,46.4447273 C142.665654,46.2236364 142.76167,46.2098182 142.981135,46.2374545 C143.584664,46.3338182 144.462525,46.4032727 144.928889,46.4032727 C145.80675,46.4032727 146.16302,46.168 146.16302,45.6156364 C146.16302,44.98 145.929838,44.8418182 145.066055,44.7174545 C143.72183,44.5243636 142.542566,44.2338182 142.542566,42.728 C142.542566,41.3603636 143.584664,40.6418182 145.12056,40.6418182 C145.68294,40.6418182 146.629384,40.7247273 147.20548,40.9458182 C147.438301,41.0425455 147.534678,41.1527273 147.493167,41.3603636 L147.383795,41.8578182 C147.342285,42.0509091 147.260346,42.0785455 147.013087,42.0509091 C146.423635,41.9821818 145.655868,41.8989091 145.147993,41.8989091 C144.270493,41.8989091 144.064745,42.148 144.064745,42.6727273 C144.064745,43.2116364 144.393582,43.2807273 145.230654,43.4189091 C146.533368,43.6123636 147.712993,43.8749091 147.712993,45.5189091 C147.712993,47.1356364 146.355052,47.6603636 144.942606,47.6603636" id="Fill-28" fill="#626366" fill-rule="evenodd" mask="url(#mask-2)"></path>
                <path d="M151.238659,47.6603636 C150.55283,47.6603636 149.63418,47.5636364 149.11259,47.3563636 C148.838619,47.2458182 148.783392,47.1214545 148.824902,46.9003636 L148.920557,46.4447273 C148.961707,46.2236364 149.057723,46.2098182 149.277189,46.2374545 C149.880718,46.3338182 150.758579,46.4032727 151.224943,46.4032727 C152.102803,46.4032727 152.459074,46.168 152.459074,45.6156364 C152.459074,44.98 152.225892,44.8418182 151.362108,44.7174545 C150.017884,44.5243636 148.838619,44.2338182 148.838619,42.728 C148.838619,41.3603636 149.880718,40.6418182 151.416614,40.6418182 C151.979354,40.6418182 152.925437,40.7247273 153.501533,40.9458182 C153.734715,41.0425455 153.830731,41.1527273 153.789221,41.3603636 L153.679849,41.8578182 C153.638338,42.0509091 153.5564,42.0785455 153.30914,42.0509091 C152.719689,41.9821818 151.951921,41.8989091 151.444047,41.8989091 C150.566547,41.8989091 150.360798,42.148 150.360798,42.6727273 C150.360798,43.2116364 150.689635,43.2807273 151.526707,43.4189091 C152.829421,43.6123636 154.009047,43.8749091 154.009047,45.5189091 C154.009047,47.1356364 152.651106,47.6603636 151.238659,47.6603636" id="Fill-30" fill="#626366" fill-rule="evenodd" mask="url(#mask-2)"></path>
                <path d="M156.972116,47.2874909 C156.972116,47.4394909 156.917611,47.5500364 156.725218,47.5500364 L155.751702,47.5500364 C155.55967,47.5500364 155.47737,47.4671273 155.47737,47.2874909 L155.47737,41.0424 C155.47737,40.8489455 155.55967,40.7802182 155.751702,40.7802182 L156.725218,40.7802182 C156.917611,40.7802182 156.972116,40.8904 156.972116,41.0424 L156.972116,47.2874909 Z M156.245138,39.7853091 C155.532237,39.7853091 155.436221,39.3845818 155.436221,38.9838545 C155.436221,38.5416727 155.587103,38.1962182 156.245138,38.1962182 C156.917611,38.1962182 157.054416,38.5140364 157.054416,38.9838545 C157.054416,39.4122182 156.931328,39.7853091 156.245138,39.7853091 L156.245138,39.7853091 Z" id="Fill-32" fill="#626366" fill-rule="evenodd" mask="url(#mask-2)"></path>
                <path d="M161.48487,41.9682182 C160.319322,41.9682182 160.058346,42.7144 160.058346,44.1511273 C160.058346,45.6154909 160.319322,46.3340364 161.471154,46.3340364 C162.719001,46.3340364 162.966261,45.6293091 162.966261,44.1511273 C162.966261,42.6867636 162.732718,41.9682182 161.48487,41.9682182 M161.471154,47.6602182 C158.714483,47.6602182 158.536167,45.6293091 158.536167,44.0544 C158.536167,42.7558545 158.824215,40.6420364 161.471154,40.6420364 C164.131809,40.6420364 164.501795,42.4242182 164.501795,44.0544 C164.501795,45.6293091 164.309763,47.6602182 161.471154,47.6602182" id="Fill-34" fill="#626366" fill-rule="evenodd" mask="url(#mask-2)"></path>
                <path d="M171.387698,47.5498909 L170.400465,47.5498909 C170.221789,47.5498909 170.13985,47.4669818 170.13985,47.2873455 L170.153567,43.4051636 C170.153567,42.5898909 169.961535,42.0509818 169.165973,42.0509818 C168.61731,42.0509818 167.657511,42.4931636 167.287163,42.6728 L167.287163,47.2873455 C167.287163,47.4531636 167.21858,47.5498909 167.026548,47.5498909 L166.053032,47.5498909 C165.861,47.5498909 165.792056,47.4669818 165.792056,47.2873455 L165.792056,41.0564364 C165.792056,40.8764364 165.861,40.7800727 166.053032,40.7800727 L167.026548,40.7800727 C167.21858,40.7800727 167.287163,40.8764364 167.287163,41.0564364 L167.287163,41.4706182 C167.30088,41.4706182 167.314596,41.4844364 167.328313,41.4844364 C167.835465,41.1255273 168.795626,40.6557091 169.632337,40.6557091 C171.483714,40.6557091 171.648313,41.8851636 171.648313,43.2808 L171.648313,47.2873455 C171.648313,47.4531636 171.593447,47.5498909 171.387698,47.5498909" id="Fill-36" fill="#626366" fill-rule="evenodd" mask="url(#mask-2)"></path>
                <mask id="mask-4" fill="white">
                    <use xlink:href="#path-3"></use>
                </mask>
                <g id="Clip-39"></g>
                <polygon id="Fill-38" fill="#004494" fill-rule="evenodd" mask="url(#mask-4)" points="179.969787 20.2 177.617755 20.2 177.617755 47.9690909 179.969787 47.9690909"></polygon>
                <path d="M0.00010828877,17.5738909 C0.00010828877,17.5738909 28.3389184,13.8517091 29.1395334,13.7186182 C30.3657233,13.5157091 31.4551083,13.2782545 32.470857,12.9928 C34.7633302,12.3553455 36.8731564,11.3826182 38.7411377,10.1011636 C40.531873,8.88189091 42.1977152,7.10807273 43.849119,5.16225455 C44.8991591,3.92407273 46.0018997,2.30989091 47.030643,0.751709091 L47.030643,7.27272727e-05 C45.8102286,1.83389091 44.6078623,3.41389091 43.3715655,4.8088 C41.7331564,6.66043636 40.0142527,8.17498182 38.2621404,9.31134545 C36.4540789,10.4935273 34.4189719,11.3760727 32.2127687,11.9346182 C31.2240922,12.1873455 30.165389,12.3924364 28.9756564,12.5604364 C28.1909238,12.6724364 27.3823676,12.7586182 26.6008837,12.8422545 C26.2886511,12.8757091 0.00010828877,15.7062545 0.00010828877,15.7062545 L0.00010828877,17.5738909 Z" id="Fill-40" fill="#BBBDBF" fill-rule="evenodd" mask="url(#mask-4)"></path>
                <path d="M38.0037634,12.7503636 C36.2299933,13.786 34.1811698,14.5438182 31.9146858,15.0027273 C30.9465842,15.2012727 29.8918516,15.3623636 28.6884024,15.4954545 C27.9819987,15.5732727 27.2701805,15.6361818 26.5572794,15.6983636 C26.1724933,15.7321818 25.7880682,15.766 25.4047259,15.802 C16.7203275,16.5921818 8.08032754,17.4332727 0.000180481284,18.2292727 L0.000180481284,20.0954545 C8.14385695,19.0983636 16.8437767,18.0427273 25.5252874,17.0452727 C25.9115174,16.9994545 26.2977473,16.9558182 26.6843382,16.9132727 C27.3954345,16.8336364 28.1076136,16.754 28.8219586,16.6583636 C30.0571725,16.4914545 31.1382553,16.2998182 32.1258489,16.0721818 C34.4804078,15.5376364 36.6075602,14.694 38.4455816,13.5645455 C40.2724131,12.4514545 41.8866377,10.8932727 43.6225067,8.98745455 C44.7032286,7.80127273 45.9055949,6.12745455 47.0307152,4.55436364 L47.0307152,3.87036364 C45.7052607,5.69545455 44.4476671,7.22854545 43.2027072,8.53654545 C41.5083489,10.3183636 39.7591243,11.7358182 38.0037634,12.7503636" id="Fill-41" fill="#BBBDBF" fill-rule="evenodd" mask="url(#mask-4)"></path>
                <path d="M42.9632807,12.2931636 C41.2339091,13.9029818 39.4290963,15.1691636 37.5968503,16.0571636 C35.805754,16.9342545 33.8013289,17.5495273 31.4684278,17.9389818 C30.5057406,18.1008 29.4589492,18.2331636 28.2699385,18.3429818 L7.21925115e-05,20.6997091 L7.21925115e-05,22.5618909 L25.1295642,19.8549818 L28.381115,19.5077091 C29.6055,19.3644364 30.6739492,19.2029818 31.6460214,19.0153455 C34.0623048,18.5524364 36.1353128,17.8608 37.9816364,16.9011636 C39.8694706,15.9320727 41.755861,14.3197091 43.5094171,12.6124364 C44.686516,11.4677091 45.8195775,9.98916364 47.030607,8.43825455 L47.030607,7.81789091 C45.631877,9.58261818 44.2963155,11.0535273 42.9632807,12.2931636" id="Fill-42" fill="#BBBDBF" fill-rule="evenodd" mask="url(#mask-4)"></path>
                <path d="M36.1271912,21.9629091 C34.4815628,22.8974545 33.2506805,23.436 30.9004532,23.6850909 C29.4800655,23.8403636 28.0199719,23.9141818 26.6075254,23.9854545 C25.9242233,24.0203636 25.2398382,24.0545455 24.5568971,24.0981818 C20.285988,24.3461818 16.0919639,24.6210909 11.8131136,24.904 L0.000252673798,25.7116364 L0.000252673798,27.5734545 L11.9311484,26.4621818 C15.7862286,26.1112727 20.266496,25.7061818 24.6402794,25.344 L27.8192767,25.0941818 C29.060627,24.9974545 30.0785414,24.8945455 31.0213757,24.7698182 C33.4398249,24.4530909 35.5056136,23.9570909 37.3360548,23.2549091 C39.3072714,22.5061818 41.1658676,21.3447273 43.0273516,19.9789091 C44.7054666,18.748 47.0278997,16.3196364 47.0307874,16.288 L47.0307874,15.6301818 C45.5122179,17.1338182 44.6379666,17.9781818 42.9760949,19.0901818 C40.9897179,20.4185455 37.6028061,21.1250909 36.1271912,21.9629091" id="Fill-43" fill="#BBBDBF" fill-rule="evenodd" mask="url(#mask-4)"></path>
                <path d="M36.7282299,25.5016 C34.9447139,26.0321455 32.9374011,26.3914182 30.5915053,26.5997818 C29.6410909,26.6830545 28.6159572,26.7474182 27.4569064,26.7946909 L24.2948743,26.9354182 C16.4378021,27.3059636 8.61899198,27.7205091 0.000288770053,28.1834182 L0.000288770053,30.0408727 C8.23312299,29.3939636 16.3013583,28.7645091 24.3663449,28.1819636 L27.518992,27.9634182 C28.7361578,27.8823273 29.7450481,27.7939636 30.6943797,27.6856 C33.0994733,27.4125091 35.1565989,26.9910545 36.9819866,26.3979636 C39.0055428,25.7474182 40.9778422,24.8041455 42.8440187,23.5943273 C44.2221738,22.7037818 45.6006898,21.6419636 47.0308235,20.3746909 L47.0308235,20.3423273 C45.4545,21.7077818 43.9528957,22.0106909 42.455984,22.9281455 C40.623016,24.0554182 38.6961979,24.9212364 36.7282299,25.5016" id="Fill-44" fill="#BBBDBF" fill-rule="evenodd" mask="url(#mask-4)"></path>
                <path d="M36.4367166,28.5866545 C34.6402059,29.0128364 32.6938957,29.2870182 30.309738,29.4492 C29.3903663,29.5117455 28.4020508,29.5586545 27.1982406,29.5964727 L24.0665294,29.7095636 C16.1758877,30.0124727 8.17515241,30.3608364 7.21925115e-05,30.7208364 L7.21925115e-05,32.5772 C8.12245187,32.0146545 16.0907005,31.4673818 24.128254,30.9568364 L27.252746,30.7666545 C28.4778529,30.6957455 29.4762754,30.6233818 30.3934813,30.5386545 C32.8216765,30.3113818 34.8084144,29.9801091 36.6453529,29.4968364 C38.7064492,28.9579273 40.7097914,28.1677455 42.6005134,27.1484727 C44.0624118,26.3619273 45.5199786,25.4164727 47.030607,24.2779273 L47.030607,23.4837455 C45.3979733,24.6812 43.8317567,25.6568364 42.2637353,26.4524727 C40.4076658,27.3961091 38.447639,28.1135636 36.4367166,28.5866545" id="Fill-45" fill="#BBBDBF" fill-rule="evenodd" mask="url(#mask-4)"></path>
                <path d="M36.1691711,31.6115273 C34.366885,31.9464364 32.4256283,32.1602545 30.0595187,32.2846182 C29.169385,32.3308 28.2171658,32.3642545 26.971123,32.3933455 L0,33.1348 L0,34.9893455 L23.9170187,33.7220727 L27.0155214,33.5624364 C28.224385,33.5046182 29.2134225,33.4453455 30.1281016,33.3733455 C32.5266979,33.1875273 34.5000802,32.9195273 36.3373797,32.5297091 C38.4233824,32.0900727 40.4476604,31.4482545 42.3546257,30.6235273 C43.8901604,29.9624364 45.4285829,29.1558909 47.0305348,28.1755273 L47.0305348,27.4300727 C45.3188503,28.4409818 43.6912701,29.2522545 42.0752406,29.9009818 C40.1949866,30.6598909 38.2078877,31.2348 36.1691711,31.6115273" id="Fill-46" fill="#BBBDBF" fill-rule="evenodd" mask="url(#mask-4)"></path>
                <path d="M35.9574666,34.6489818 C32.6481618,35.0969818 29.2410361,35.1489818 25.9461698,35.1988 C25.1910361,35.2093455 24.4355414,35.2213455 23.6811297,35.2369818 L0.000180481284,35.6704364 L0.000180481284,37.5224364 L23.7222794,36.4849818 C24.4741644,36.4500727 25.2274933,36.4195273 25.9815441,36.3889818 C29.299512,36.2540727 32.7308222,36.1155273 36.0848864,35.5744364 C38.2084291,35.2348 40.2514773,34.7322545 42.1580816,34.0817091 C43.7372928,33.5446182 45.3735361,32.8500727 47.0307152,32.0289818 L47.0307152,31.3180727 C45.2890709,32.1420727 43.5763035,32.8257091 41.931758,33.3384364 C40.0475334,33.9293455 38.0376939,34.3704364 35.9574666,34.6489818" id="Fill-47" fill="#BBBDBF" fill-rule="evenodd" mask="url(#mask-4)"></path>
                <path d="M35.7694051,37.7058182 C32.6683757,37.9658182 29.4951537,37.9665455 26.4255281,37.9665455 C25.4707821,37.9665455 24.5160361,37.9665455 23.5612901,37.9741818 C15.7161297,38.0090909 7.93305481,38.0745455 0.000180481284,38.144 L0.000180481284,39.9970909 C7.55584893,39.7363636 15.5721056,39.4643636 23.5880013,39.2229091 C24.5394987,39.1909091 25.491357,39.1661818 26.4442981,39.1410909 C29.5301671,39.0621818 32.7210762,38.98 35.8535094,38.6363636 C38.0423864,38.3981818 40.0334559,38.0487273 41.941504,37.5694545 C43.6055414,37.1545455 45.3143382,36.6007273 47.0307152,35.9352727 L47.0307152,35.2549091 C45.259111,35.9003636 43.4932821,36.4272727 41.7743783,36.8109091 C39.8851003,37.2341818 37.920381,37.5269091 35.7694051,37.7058182" id="Fill-48" fill="#BBBDBF" fill-rule="evenodd" mask="url(#mask-4)"></path>
                <path d="M35.6495655,40.7193091 C34.3576805,40.7713091 32.9585896,40.7960364 31.3717981,40.7960364 C30.7722393,40.7960364 30.1726805,40.7924 29.5745655,40.7869455 L23.4710495,40.7116727 C19.3062634,40.6804 15.1573596,40.6731273 11.2647393,40.6694909 L0.000180481284,40.6804 L0.000180481284,42.5324 L11.2918115,42.2320364 C15.1699933,42.1356727 19.3311698,42.0353091 23.4826003,41.9593091 L29.5810628,41.8778545 C31.2541243,41.8505818 33.4617714,41.8011273 35.6979345,41.6516727 C37.8893382,41.5076727 39.8832955,41.2862182 41.7945922,40.9764 C43.5149398,40.6967636 45.2724666,40.3207636 47.0307152,39.8662182 L47.0307152,39.2087636 C45.2240976,39.6320364 43.4290307,39.9691273 41.6870254,40.2058545 C39.7865575,40.4644 37.8117313,40.6320364 35.6495655,40.7193091" id="Fill-49" fill="#BBBDBF" fill-rule="evenodd" mask="url(#mask-4)"></path>
                <path d="M29.5036725,43.6312364 L23.4207313,43.5650545 C15.661119,43.4545091 7.90836497,43.3101455 3.60962558e-05,43.1603273 L3.60962558e-05,45.0134182 C7.54884626,44.9621455 15.5438061,44.9039636 23.4265067,44.8137818 L29.5123356,44.7221455 C31.5633249,44.6865091 33.5717206,44.6490545 35.602496,44.5799636 C39.7838864,44.4436 43.5299559,44.1454182 47.0305709,43.6752364 L47.0305709,43.0312364 C43.5166003,43.4145091 39.7651163,43.6170545 35.5808382,43.6446909 C33.5565602,43.6632364 31.5301163,43.6483273 29.5036725,43.6312364" id="Fill-50" fill="#BBBDBF" fill-rule="evenodd" mask="url(#mask-4)"></path>
                <polygon id="Fill-51" fill="#BBBDBF" fill-rule="evenodd" mask="url(#mask-4)" points="47.030643 47.3101818 0.00010828877 46.1 0.00010828877 47.9516364 47.030643 47.9516364"></polygon>
                <path d="M42.7958663,15.7922545 C41.0094626,17.2489818 39.6291417,18.2842545 37.4427914,19.1660727 C35.5387139,19.9344364 33.4935,20.2489818 31.1566283,20.5722545 C29.6528583,20.7860727 28.0812273,21.1024364 26.579984,21.2038909 C25.962738,21.2460727 25.345131,21.2875273 24.7293289,21.3366182 L0.000144385028,23.1660727 L0.000144385028,25.0249818 L24.8289545,22.5809818 L28.0480187,22.2744364 C29.2424439,22.1598909 30.3022299,22.0264364 31.2887406,21.8649818 C33.6949171,21.4729818 35.7682861,20.8740727 37.6265214,20.0344364 C39.5544225,19.1711636 41.5057861,17.7573455 43.3189011,16.2086182 C44.5526711,15.1569818 45.7391551,13.8337091 47.0306791,12.3886182 L47.0306791,11.7224364 C45.4684332,13.3613455 44.1736604,14.6711636 42.7958663,15.7922545" id="Fill-52" fill="#BBBDBF" fill-rule="evenodd" mask="url(#mask-4)"></path>
                <path d="M67.0455481,0 C67.0455481,0 75.5097594,13.5807273 77.0572059,16.0709091 C78.6046524,18.5603636 80.3737299,20.5301818 86.6360695,21.868 C92.8984091,23.2058182 95.6247594,23.8378182 95.6247594,23.8378182 L95.6247594,24.3207273 C95.6247594,24.3207273 91.645508,23.4658182 86.525254,22.3138182 C81.405,21.1618182 79.3117781,20.7741818 76.9777941,17.5025455 C75.0354545,14.7796364 67.0455481,3.208 67.0455481,3.208 L67.0455481,0 Z" id="Fill-53" fill="#BBBDBF" fill-rule="evenodd" mask="url(#mask-4)"></path>
                <path d="M67.0455481,15.5092364 C67.0455481,15.5092364 74.7506551,23.6430545 76.9777941,25.9779636 C79.341016,28.4550545 82.3687701,29.3714182 86.5649599,30.1263273 C90.5705615,30.8466909 95.6225936,31.6786909 95.6225936,31.6786909 L95.6225936,32.1368727 C95.6225936,32.1368727 90.8784626,31.3539636 86.5649599,30.6099636 C82.3355615,29.8801455 79.3749465,29.4732364 76.9525267,27.2248727 C74.7835027,25.2114182 67.0455481,17.9016 67.0455481,17.9016 L67.0455481,15.5092364 Z" id="Fill-54" fill="#BBBDBF" fill-rule="evenodd" mask="url(#mask-4)"></path>
                <path d="M67.0455481,19.1740364 C67.0455481,19.1740364 74.3730882,26.0285818 76.9777941,28.3704 C79.3749465,30.5253091 81.3176471,31.1954909 86.5902273,32.1369455 C91.8635294,33.0787636 95.6225936,33.6638545 95.6225936,33.6638545 L95.6225936,34.1474909 C95.6225936,34.1474909 90.8539171,33.3584 86.5649599,32.6711273 C82.2763636,31.9842182 79.5431551,31.7125818 76.9777941,29.6173091 C74.0164572,27.1980364 67.0455481,21.4136727 67.0455481,21.4136727 L67.0455481,19.1740364 Z" id="Fill-55" fill="#BBBDBF" fill-rule="evenodd" mask="url(#mask-4)"></path>
                <path d="M67.0455481,23.0808 C67.0455481,23.0808 75.4159091,29.7702545 76.9799599,30.9408 C78.5440107,32.1113455 80.6134091,33.4771636 86.6176604,34.3513455 C92.5720989,35.2178909 95.6247594,35.6491636 95.6247594,35.6491636 L95.6247594,36.1582545 C95.6247594,36.1582545 90.2258422,35.3691636 86.6176604,34.9109818 C83.0102005,34.4528 80.2434225,34.2582545 77.0052273,32.0858909 C73.8529412,29.9717091 67.0455481,25.1433455 67.0455481,25.1433455 L67.0455481,23.0808 Z" id="Fill-56" fill="#BBBDBF" fill-rule="evenodd" mask="url(#mask-4)"></path>
                <path d="M67.0455481,26.8364727 C67.0455481,26.8364727 75.4408155,32.4677455 77.0304947,33.3586545 C78.6201738,34.2492 80.4870722,35.7001091 86.6176604,36.4892 C92.7489706,37.2782909 95.6247594,37.6339273 95.6247594,37.6339273 L95.6247594,38.1175636 C95.6247594,38.1175636 90.5535963,37.5579273 86.592393,37.1255636 C82.6315508,36.6924727 79.9322727,36.1070182 76.9799599,34.4786545 C74.028008,32.8499273 67.0455481,28.7397455 67.0455481,28.7397455 L67.0455481,26.8364727 Z" id="Fill-57" fill="#BBBDBF" fill-rule="evenodd" mask="url(#mask-4)"></path>
                <path d="M67.0455481,30.5921818 C67.0455481,30.5921818 74.4665775,34.6590909 76.9777941,35.9289091 C79.7785027,37.3456364 82.2009225,38.0238182 86.5902273,38.5503636 C90.9004813,39.0674545 95.6225936,39.5689091 95.6225936,39.5689091 L95.6225936,40.0267273 C95.6225936,40.0267273 91.2563904,39.5558182 86.5902273,39.1107273 C81.9648529,38.6689091 80.3174198,38.4656364 76.9777941,36.9729091 C73.9911898,35.6376364 67.0455481,32.3747273 67.0455481,32.3747273 L67.0455481,30.5921818 Z" id="Fill-58" fill="#BBBDBF" fill-rule="evenodd" mask="url(#mask-4)"></path>
                <path d="M67.0455481,34.3989818 C67.0455481,34.3989818 72.909746,36.9288 77.0304947,38.5757091 C81.0844652,40.1957091 84.1789973,40.3320727 86.6429278,40.6120727 C87.7279813,40.7349818 95.6247594,41.5538909 95.6247594,41.5538909 L95.6247594,42.0113455 C95.6247594,42.0113455 90.9066176,41.6298909 86.6176604,41.2484364 C82.3283422,40.8669818 80.4787701,40.7051636 77.0052273,39.5433455 C73.4905348,38.3677091 67.0455481,36.1037091 67.0455481,36.1037091 L67.0455481,34.3989818 Z" id="Fill-59" fill="#BBBDBF" fill-rule="evenodd" mask="url(#mask-4)"></path>
                <path d="M67.0455481,38.2796727 C67.0455481,38.2796727 72.9660561,40.1284 77.0030615,41.1971273 C81.0400668,42.2662182 84.7485963,42.6993091 86.6154947,42.8258545 C88.482393,42.9538545 95.6247594,43.5382182 95.6247594,43.5382182 L95.6247594,43.9713091 C95.6247594,43.9713091 91.5624866,43.6924 86.5902273,43.3349455 C82.5701872,43.0465818 79.341016,42.7414909 76.9777941,42.2149455 C74.3586497,41.6327636 67.0455481,39.8818545 67.0455481,39.8818545 L67.0455481,38.2796727 Z" id="Fill-60" fill="#BBBDBF" fill-rule="evenodd" mask="url(#mask-4)"></path>
                <path d="M67.0455481,42.0978545 C67.0455481,42.0978545 71.8875,42.9389455 77.0030615,43.7931273 C80.8379278,44.4338545 86.0354278,44.8371273 86.5902273,44.8629455 C87.1457487,44.8876727 95.6225936,45.4734909 95.6225936,45.4734909 L95.6225936,45.9309455 C95.6225936,45.9309455 90.1969652,45.6484 86.5902273,45.4480364 C82.8333289,45.2385818 79.0991711,45.0091273 76.9777941,44.7862182 C72.2264439,44.2869455 67.0455481,43.6262182 67.0455481,43.6262182 L67.0455481,42.0978545 Z" id="Fill-61" fill="#BBBDBF" fill-rule="evenodd" mask="url(#mask-4)"></path>
                <path d="M67.0455481,46.45 C67.0455481,46.45 74.6820722,46.7390909 77.0030615,46.7903636 C79.3244118,46.8405455 95.6225936,47.5027273 95.6225936,47.5027273 L95.6225936,47.9485455 L67.0455481,47.9485455 L67.0455481,46.45 Z" id="Fill-62" fill="#BBBDBF" fill-rule="evenodd" mask="url(#mask-4)"></path>
                <path d="M86.5902273,23.9673455 C79.6774332,22.4658909 78.1133824,19.9208 76.9525267,18.3426182 C75.7916711,16.7644364 67.0455481,3.88661818 67.0455481,3.88661818 L67.0455481,6.7928 C67.3902674,7.24734545 74.8762701,17.1197091 76.9777941,19.8440727 C79.3460695,22.9138909 83.0582086,23.6109818 86.5902273,24.3746182 C90.122246,25.1378909 95.6247594,26.2022545 95.6247594,26.2022545 L95.6247594,25.7953455 C95.6247594,25.7953455 88.3751872,24.3549818 86.5902273,23.9673455" id="Fill-63" fill="#BBBDBF" fill-rule="evenodd" mask="url(#mask-4)"></path>
                <path d="M86.5902273,26.0033818 C80.9137299,24.8833818 78.618008,23.0764727 76.9525267,20.8877455 C75.2874064,18.6990182 67.0455481,7.75501818 67.0455481,7.75501818 L67.0455481,10.5066545 C67.3906283,10.9190182 74.9300535,19.9281091 76.9525267,22.2619273 C79.3117781,24.9841091 82.6041176,25.6979273 86.5902273,26.4357455 C90.5766979,27.1739273 95.6225936,28.1408364 95.6225936,28.1408364 L95.6225936,27.7339273 C95.6225936,27.7339273 89.8634358,26.6492 86.5902273,26.0033818" id="Fill-64" fill="#BBBDBF" fill-rule="evenodd" mask="url(#mask-4)"></path>
                <path d="M86.5902273,28.1156 C80.6870455,26.9621455 79.476016,26.0119636 76.9777941,23.2545091 C75.406885,21.5214182 67.384131,11.9777818 67.0455481,11.5752364 L67.0455481,14.1177818 C67.0455481,14.1177818 74.5427406,22.1737818 76.9525267,24.5526909 C80.1152807,27.6748727 83.0834759,27.9119636 86.5902273,28.5483273 C90.0973396,29.1843273 95.6225936,30.2028727 95.6225936,30.2028727 L95.6225936,29.7701455 C95.6225936,29.7701455 88.9516444,28.5774182 86.5902273,28.1156" id="Fill-65" fill="#BBBDBF" fill-rule="evenodd" mask="url(#mask-4)"></path>
                <polygon id="Fill-66" fill="#004494" fill-rule="evenodd" mask="url(#mask-4)" points="60.7522741 20.23 19.5483971 20.23 19.5483971 47.998 60.7522741 47.998"></polygon>
                <polygon id="Fill-67" fill="#FFF100" fill-rule="evenodd" mask="url(#mask-4)" points="40.5969545 23.7283636 42.0306979 23.7283636 40.8748957 24.6352727 41.3242941 26.0738182 40.1731845 25.1876364 39.0220749 26.0738182 39.4758048 24.6352727 38.3109786 23.7283636 39.7400294 23.7283636 40.1731845 22.3254545"></polygon>
                <polygon id="Fill-68" fill="#FFF100" fill-rule="evenodd" mask="url(#mask-4)" points="40.6473449 42.2462909 42.083254 42.2462909 40.9274519 43.1204727 41.3764893 44.5033818 40.2257406 43.6510182 39.074631 44.5033818 39.528 43.1204727 38.361369 42.2462909 39.7925856 42.2462909 40.2257406 40.8961091"></polygon>
                <polygon id="Fill-69" fill="#FFF100" fill-rule="evenodd" mask="url(#mask-4)" points="45.1942821 41.0197091 46.6305521 41.0197091 45.47475 41.8920727 45.9237874 43.2768 44.7726778 42.4226182 43.6215682 43.2768 44.0752981 41.8920727 42.9083061 41.0197091 44.3395227 41.0197091 44.7726778 39.6695273"></polygon>
                <polygon id="Fill-70" fill="#FFF100" fill-rule="evenodd" mask="url(#mask-4)" points="45.1942821 24.9636 46.6305521 24.9636 45.47475 25.8363273 45.9237874 27.2206909 44.7726778 26.3676 43.6215682 27.2206909 44.0752981 25.8363273 42.9083061 24.9636 44.3395227 24.9636 44.7726778 23.6137818"></polygon>
                <polygon id="Fill-71" fill="#FFF100" fill-rule="evenodd" mask="url(#mask-4)" points="48.5701845 28.3641818 50.0035668 28.3641818 48.8481257 29.2354545 49.2971631 30.6212727 48.1460535 29.7681818 46.9974706 30.6212727 47.4508396 29.2354545 46.2838476 28.3641818 47.7128984 28.3641818 48.1460535 27.014"></polygon>
                <polygon id="Fill-72" fill="#FFF100" fill-rule="evenodd" mask="url(#mask-4)" points="48.5701845 37.6653091 50.0035668 37.6653091 48.8481257 38.5402182 49.2971631 39.9245818 48.1460535 39.0700364 46.9974706 39.9245818 47.4508396 38.5402182 46.2838476 37.6653091 47.7128984 37.6653091 48.1460535 36.3151273"></polygon>
                <polygon id="Fill-73" fill="#FFF100" fill-rule="evenodd" mask="url(#mask-4)" points="49.8349612 32.9437455 51.2712313 32.9437455 50.1150682 33.8164727 50.5641056 35.2015636 49.412996 34.3470182 48.2622473 35.2015636 48.7156163 33.8164727 47.5486243 32.9437455 48.9780361 32.9437455 49.412996 31.5946545"></polygon>
                <polygon id="Fill-74" fill="#FFF100" fill-rule="evenodd" mask="url(#mask-4)" points="35.9611845 24.9749818 37.3945668 24.9749818 36.2391257 25.8488 36.6881631 27.2331636 35.5370535 26.3789818 34.3859439 27.2331636 34.8400348 25.8488 33.6752086 24.9749818 35.1042594 24.9749818 35.5370535 23.6251636"></polygon>
                <polygon id="Fill-75" fill="#FFF100" fill-rule="evenodd" mask="url(#mask-4)" points="32.6790241 28.3755636 34.1149332 28.3755636 32.959131 29.2479273 33.4060027 30.6330182 32.2574198 29.7795636 31.1063102 30.6330182 31.5585963 29.2479273 30.3930481 28.3755636 31.8242647 28.3755636 32.2574198 27.0257455"></polygon>
                <polygon id="Fill-76" fill="#FFF100" fill-rule="evenodd" mask="url(#mask-4)" points="31.4607754 32.9550909 32.8956016 32.9550909 31.7397995 33.8285455 32.1888369 35.2129091 31.0380882 34.3612727 29.8869786 35.2129091 30.3403476 33.8285455 29.1758824 32.9550909 30.6049332 32.9550909 31.0380882 31.6063636"></polygon>
                <polygon id="Fill-77" fill="#FFF100" fill-rule="evenodd" mask="url(#mask-4)" points="32.6790241 37.6766909 34.1149332 37.6766909 32.959131 38.5516 33.4060027 39.9359636 32.2574198 39.0821455 31.1063102 39.9359636 31.5585963 38.5516 30.3930481 37.6766909 31.8242647 37.6766909 32.2574198 36.3286909"></polygon>
                <polygon id="Fill-78" fill="#FFF100" fill-rule="evenodd" mask="url(#mask-4)" points="36.0091203 41.0310909 37.4425027 41.0310909 36.2870615 41.9038182 36.7335722 43.2881818 35.5849893 42.4343636 34.4338797 43.2881818 34.8876096 41.9038182 33.7231444 41.0310909 35.1518342 41.0310909 35.5849893 39.6809091"></polygon>
            </g>
        </g>
    </g>
</svg>