<?xml version="1.0" encoding="UTF-8"?>
<svg width="272px" height="72px" viewBox="0 0 272 72" version="1.1" xmlns="http://www.w3.org/2000/svg" xmlns:xlink="http://www.w3.org/1999/xlink">
    <!-- Generator: Sketch 51.2 (57519) - http://www.bohemiancoding.com/sketch -->
    <title>Logos/EC-logo-horizontal</title>
    <desc>Created with Sketch.</desc>
    <defs>
        <polyline id="path-1" points="0.000163636363 0.488727273 271.954509 0.488727273 271.954509 72 0.000163636363 72"></polyline>
        <polygon id="path-3" points="0.000163636363 0.488727273 271.954509 0.488727273 271.954509 72 0.000163636363 72"></polygon>
    </defs>
    <g id="Logos" stroke="none" stroke-width="1" fill="none" fill-rule="evenodd">
        <g transform="translate(-232.000000, -396.000000)" id="Logos/EC-logo-horizontal-large">
            <g transform="translate(232.000000, 396.000000)">
                <path d="M154.0578,36.6488182 C154.0578,36.3799091 154.182709,36.2342727 154.472345,36.2342727 L162.098891,36.2342727 C162.347618,36.2342727 162.492709,36.3799091 162.492709,36.6280909 L162.492709,37.9131818 C162.492709,38.1619091 162.388527,38.2862727 162.078164,38.2862727 L156.420709,38.2862727 L156.420709,41.8508182 L161.435618,41.8508182 C161.705618,41.8508182 161.850164,41.9751818 161.850164,42.2239091 L161.850164,43.5084545 C161.850164,43.7571818 161.746527,43.8820909 161.435618,43.8820909 L156.420709,43.8820909 L156.420709,47.9642727 L162.2238,47.9642727 C162.471982,47.9642727 162.596345,48.0891818 162.596345,48.3580909 L162.596345,49.6224545 C162.596345,49.8913636 162.492709,49.9955455 162.202527,49.9955455 L154.472345,49.9955455 C154.182709,49.9955455 154.0578,49.8711818 154.0578,49.6224545 L154.0578,36.6488182 Z" id="Fill-1" fill="#626366" fill-rule="evenodd"></path>
                <path d="M173.043218,49.9953818 L171.571582,49.9953818 C171.260673,49.9953818 171.177764,49.8502909 171.177764,49.6015636 L171.177764,48.9595636 L171.136309,48.9388364 C170.327945,49.4979273 168.918491,50.1819273 167.654673,50.1819273 C164.857036,50.1819273 164.587582,48.5242909 164.587582,46.3479273 L164.587582,40.2552 C164.587582,40.0064727 164.690673,39.8406545 164.9814,39.8406545 L166.493945,39.8406545 C166.7634,39.8406545 166.867582,39.9852 166.867582,40.2552 L166.867582,46.0784727 C166.867582,47.3221091 167.115764,48.1097455 168.380127,48.1097455 C169.270855,48.1097455 170.638855,47.4464727 171.177764,47.1770182 L171.177764,40.2552 C171.177764,40.0064727 171.260673,39.8406545 171.571582,39.8406545 L173.043218,39.8406545 C173.332855,39.8406545 173.436491,39.9852 173.436491,40.2552 L173.436491,49.6015636 C173.436491,49.8710182 173.332855,49.9953818 173.043218,49.9953818" id="Fill-3" fill="#626366" fill-rule="evenodd"></path>
                <path d="M178.308164,49.6017818 C178.308164,49.8505091 178.205073,49.9956 177.914345,49.9956 L176.422527,49.9956 C176.132891,49.9956 176.028709,49.8712364 176.028709,49.6017818 L176.028709,40.2548727 C176.028709,39.9854182 176.132891,39.8408727 176.422527,39.8408727 L177.893618,39.8408727 C178.205073,39.8408727 178.308164,40.0061455 178.308164,40.2548727 L178.308164,41.1668727 L178.349618,41.2083273 C178.971982,40.6279636 180.443073,39.9237818 181.416709,39.7366909 C181.686164,39.6750545 181.872709,39.7366909 181.914164,40.0896 L182.059255,41.4777818 C182.080527,41.7679636 182.100709,41.8923273 181.665436,41.9752364 C180.504709,42.2032364 179.033618,42.6172364 178.308164,42.9286909 L178.308164,49.6017818 Z" id="Fill-5" fill="#626366" fill-rule="evenodd"></path>
                <path d="M187.448782,41.6228727 C185.687509,41.6228727 185.293691,42.7421455 185.293691,44.8972364 C185.293691,47.0937818 185.687509,48.1716 187.4286,48.1716 C189.314236,48.1716 189.687327,47.1145091 189.687327,44.8972364 C189.687327,42.7006909 189.334964,41.6228727 187.448782,41.6228727 M187.4286,50.1608727 C183.262418,50.1608727 182.993509,47.1145091 182.993509,44.7521455 C182.993509,42.8043273 183.428236,39.6336 187.4286,39.6336 C191.4486,39.6336 192.008236,42.3068727 192.008236,44.7521455 C192.008236,47.1145091 191.718055,50.1608727 187.4286,50.1608727" id="Fill-7" fill="#626366" fill-rule="evenodd"></path>
                <path d="M199.034891,41.7470182 C198.185073,41.7470182 196.8798,42.3481091 196.257982,42.6797455 L196.257982,47.8610182 C197.190709,48.1299273 197.936345,48.2128364 198.641073,48.2128364 C200.133436,48.2128364 200.651618,47.4464727 200.651618,44.8348364 C200.651618,42.2030182 200.133436,41.7470182 199.034891,41.7470182 M198.869073,50.1819273 C198.185073,50.1819273 197.231618,50.0575636 196.278709,49.7259273 L196.257982,49.7466545 L196.257982,53.3941091 C196.257982,53.6221091 196.1958,53.8086545 195.864709,53.8086545 L194.392527,53.8086545 C194.061436,53.8086545 193.999255,53.6635636 193.999255,53.3941091 L193.999255,40.2552 C193.999255,39.9852 194.102891,39.8406545 194.392527,39.8406545 L195.864709,39.8406545 C196.154345,39.8406545 196.237255,40.0064727 196.237255,40.2552 L196.237255,40.8764727 L196.299436,40.9179273 C197.045618,40.3997455 198.371618,39.6748364 199.5738,39.6748364 C202.289073,39.6748364 202.993255,41.7262909 202.993255,44.8555636 C202.993255,48.2341091 202.143436,50.1819273 198.869073,50.1819273" id="Fill-9" fill="#626366" fill-rule="evenodd"></path>
                <path d="M206.9946,43.9852909 L211.098055,43.9852909 C211.098055,42.7214727 210.766418,41.4980182 209.0466,41.4980182 C207.512782,41.4980182 207.098236,42.4307455 206.9946,43.9852909 L206.9946,43.9852909 Z M206.973873,45.5398364 C207.036055,47.6327455 207.782236,48.2131091 209.481327,48.2131091 C210.228055,48.2131091 211.388236,48.0680182 212.175873,47.9851091 C212.548964,47.9436545 212.672782,47.9436545 212.734964,48.3380182 L212.859873,49.0209273 C212.921509,49.3323818 212.8806,49.4976545 212.506964,49.6640182 C211.699145,49.9749273 210.186055,50.1816545 209.170418,50.1816545 C205.212055,50.1816545 204.632236,47.6540182 204.632236,44.9594727 C204.632236,42.9494727 205.004782,39.6336545 209.0466,39.6336545 C212.756236,39.6336545 213.418964,42.0374727 213.481145,44.2754727 C213.502418,45.0211091 213.295145,45.5398364 212.465509,45.5398364 L206.973873,45.5398364 Z" id="Fill-11" fill="#626366" fill-rule="evenodd"></path>
                <path d="M221.648345,45.3739636 L219.119618,45.3739636 C218.0838,45.3739636 217.420527,45.7470545 217.420527,47.1145091 C217.420527,48.0265091 217.730891,48.3166909 218.705618,48.3166909 C219.596345,48.3166909 220.860709,47.7985091 221.648345,47.3425091 L221.648345,45.3739636 Z M221.772709,48.8141455 C220.736345,49.6017818 219.347618,50.1608727 217.958891,50.1608727 C215.762345,50.1608727 215.1198,48.9592364 215.1198,47.2186909 C215.099073,44.7936 216.404891,43.7572364 219.015982,43.7572364 L221.668527,43.7572364 L221.668527,43.2188727 C221.668527,41.9746909 221.212527,41.5399636 219.513436,41.5399636 C218.829436,41.5399636 217.524164,41.6436 216.695073,41.7265091 C216.280527,41.7886909 216.176891,41.7679636 216.115255,41.4777818 L215.928164,40.7108727 C215.887255,40.4414182 215.948891,40.2756 216.404891,40.0890545 C217.296164,39.7781455 218.933073,39.6336 219.907255,39.6336 C223.492527,39.6336 223.9278,41.1046909 223.9278,43.4261455 L223.9278,47.4259636 C223.9278,48.2752364 224.031436,48.2959636 224.673982,48.3788727 C224.984345,48.3996 225.0678,48.4617818 225.0678,48.6897818 L225.0678,49.5603273 C225.0678,49.7883273 224.922709,49.9328727 224.5698,49.9956 C224.238709,50.0577818 223.907073,50.0992364 223.596164,50.0992364 C222.621982,50.0992364 222.021436,49.8090545 221.814164,48.8348727 L221.772709,48.8141455 Z" id="Fill-13" fill="#626366" fill-rule="evenodd"></path>
                <path d="M234.933655,49.9953818 L233.441836,49.9953818 C233.172382,49.9953818 233.048018,49.8710182 233.048018,49.6015636 L233.068745,43.7782909 C233.068745,42.5553818 232.778564,41.7470182 231.576382,41.7470182 C230.747291,41.7470182 229.296927,42.4102909 228.737291,42.6797455 L228.737291,49.6015636 C228.737291,49.8502909 228.633655,49.9953818 228.343473,49.9953818 L226.872382,49.9953818 C226.5822,49.9953818 226.478018,49.8710182 226.478018,49.6015636 L226.478018,40.2552 C226.478018,39.9852 226.5822,39.8406545 226.872382,39.8406545 L228.343473,39.8406545 C228.633655,39.8406545 228.737291,39.9852 228.737291,40.2552 L228.737291,40.8764727 C228.758018,40.8764727 228.778745,40.8972 228.799473,40.8972 C229.565836,40.3588364 231.016745,39.6541091 232.281109,39.6541091 C235.078745,39.6541091 235.327473,41.4982909 235.327473,43.5917455 L235.327473,49.6015636 C235.327473,49.8502909 235.244564,49.9953818 234.933655,49.9953818" id="Fill-15" fill="#626366" fill-rule="evenodd"></path>
                <mask id="mask-2" fill="white">
                    <use xlink:href="#path-1"></use>
                </mask>
                <g id="Clip-18"></g>
                <path d="M159.619909,57.9076909 C160.635545,57.9076909 162.313909,58.0527818 163.412455,58.5087818 C163.744091,58.6538727 163.868455,58.8196909 163.806818,59.1507818 L163.620273,60.0006 C163.557545,60.2493273 163.453909,60.3529636 163.081364,60.3115091 C162.065727,60.1876909 160.822091,60.0420545 159.744818,60.0420545 C156.925909,60.0420545 156.511364,62.3220545 156.511364,65.0160545 C156.511364,67.7307818 157.029545,69.8656909 159.744818,69.8656909 C160.946455,69.8656909 161.962091,69.7407818 163.081364,69.5962364 C163.474636,69.5542364 163.557545,69.6584182 163.640455,69.9278727 L163.806818,70.7149636 C163.889182,71.0466 163.785545,71.2336909 163.453909,71.3782364 C162.438818,71.8135091 160.635545,72.0000545 159.619909,72.0000545 C154.998273,72.0000545 154.024636,68.5806 154.024636,65.0575091 C154.024636,61.5136909 154.895182,57.9076909 159.619909,57.9076909" id="Fill-17" fill="#626366" fill-rule="evenodd" mask="url(#mask-2)"></path>
                <path d="M169.7556,63.4410545 C167.994873,63.4410545 167.600509,64.5603273 167.600509,66.7154182 C167.600509,68.9119636 167.994873,69.9897818 169.735418,69.9897818 C171.621055,69.9897818 171.994145,68.9326909 171.994145,66.7154182 C171.994145,64.5188727 171.641782,63.4410545 169.7556,63.4410545 M169.735418,71.9790545 C165.569782,71.9790545 165.300327,68.9326909 165.300327,66.5703273 C165.300327,64.6225091 165.7356,61.4517818 169.735418,61.4517818 C173.755964,61.4517818 174.315055,64.1250545 174.315055,66.5703273 C174.315055,68.9326909 174.025418,71.9790545 169.735418,71.9790545" id="Fill-20" fill="#626366" fill-rule="evenodd" mask="url(#mask-2)"></path>
                <path d="M190.813091,71.8135636 L189.321273,71.8135636 C189.031091,71.8135636 188.927455,71.6892 188.927455,71.4197455 L188.927455,65.5337455 C188.927455,64.0004727 188.554364,63.5652 187.518,63.5652 C186.751636,63.5652 185.507455,64.1662909 184.865455,64.4979273 C184.865455,64.7052 184.886727,65.0777455 184.886727,65.5544727 L184.886727,71.4197455 C184.886727,71.6684727 184.803273,71.8135636 184.492364,71.8135636 L182.979818,71.8135636 C182.710364,71.8135636 182.626909,71.6892 182.626909,71.4197455 L182.626909,65.4306545 C182.626909,64.1662909 182.295818,63.5652 181.258909,63.5652 C180.534,63.5652 179.373273,64.0833818 178.586182,64.4979273 L178.586182,71.4197455 C178.586182,71.6684727 178.483091,71.8135636 178.191818,71.8135636 L176.700545,71.8135636 C176.431091,71.8135636 176.326909,71.6892 176.326909,71.4197455 L176.326909,62.0733818 C176.326909,61.8033818 176.431091,61.6588364 176.700545,61.6588364 L178.171636,61.6588364 C178.483091,61.6588364 178.586182,61.8246545 178.586182,62.0733818 L178.586182,62.6739273 L178.606364,62.6946545 C179.415273,62.1355636 180.554727,61.5137455 181.694727,61.4722909 C182.896364,61.4722909 183.891818,61.7210182 184.533818,62.9226545 C185.570182,62.1562909 186.855273,61.4722909 188.181818,61.4722909 C190.916727,61.4722909 191.186727,63.2548364 191.186727,65.3264727 L191.186727,71.4197455 C191.186727,71.6684727 191.103273,71.8135636 190.813091,71.8135636" id="Fill-22" fill="#626366" fill-rule="evenodd" mask="url(#mask-2)"></path>
                <path d="M207.892636,71.8135636 L206.400273,71.8135636 C206.110091,71.8135636 206.006455,71.6892 206.006455,71.4197455 L206.006455,65.5337455 C206.006455,64.0004727 205.633364,63.5652 204.597,63.5652 C203.830636,63.5652 202.587,64.1662909 201.944455,64.4979273 C201.944455,64.7052 201.965182,65.0777455 201.965182,65.5544727 L201.965182,71.4197455 C201.965182,71.6684727 201.882818,71.8135636 201.571364,71.8135636 L200.058818,71.8135636 C199.789364,71.8135636 199.706455,71.6892 199.706455,71.4197455 L199.706455,65.4306545 C199.706455,64.1662909 199.374818,63.5652 198.338455,63.5652 C197.613,63.5652 196.452273,64.0833818 195.665182,64.4979273 L195.665182,71.4197455 C195.665182,71.6684727 195.561545,71.8135636 195.271364,71.8135636 L193.779,71.8135636 C193.510091,71.8135636 193.405909,71.6892 193.405909,71.4197455 L193.405909,62.0733818 C193.405909,61.8033818 193.510091,61.6588364 193.779,61.6588364 L195.250636,61.6588364 C195.561545,61.6588364 195.665182,61.8246545 195.665182,62.0733818 L195.665182,62.6739273 L195.685909,62.6946545 C196.494273,62.1355636 197.633727,61.5137455 198.773727,61.4722909 C199.975364,61.4722909 200.970818,61.7210182 201.612818,62.9226545 C202.649182,62.1562909 203.933727,61.4722909 205.260273,61.4722909 C207.995727,61.4722909 208.265727,63.2548364 208.265727,65.3264727 L208.265727,71.4197455 C208.265727,71.6684727 208.182273,71.8135636 207.892636,71.8135636" id="Fill-24" fill="#626366" fill-rule="evenodd" mask="url(#mask-2)"></path>
                <path d="M213.054764,71.4199636 C213.054764,71.6479636 212.9724,71.8137818 212.681673,71.8137818 L211.210582,71.8137818 C210.9204,71.8137818 210.796036,71.6894182 210.796036,71.4199636 L210.796036,62.0523273 C210.796036,61.7621455 210.9204,61.6590545 211.210582,61.6590545 L212.681673,61.6590545 C212.9724,61.6590545 213.054764,61.8243273 213.054764,62.0523273 L213.054764,71.4199636 Z M211.956218,60.1666909 C210.878945,60.1666909 210.733855,59.5656 210.733855,58.9645091 C210.733855,58.3012364 210.961855,57.7830545 211.956218,57.7830545 C212.9724,57.7830545 213.179127,58.2597818 213.179127,58.9645091 C213.179127,59.6070545 212.993127,60.1666909 211.956218,60.1666909 L211.956218,60.1666909 Z" id="Fill-26" fill="#626366" fill-rule="evenodd" mask="url(#mask-2)"></path>
                <path d="M219.024382,71.9792727 C217.988018,71.9792727 216.599836,71.8341818 215.811655,71.5232727 C215.397655,71.3574545 215.3142,71.1709091 215.376927,70.8392727 L215.521473,70.1558182 C215.583655,69.8241818 215.728745,69.8034545 216.060382,69.8449091 C216.972382,69.9894545 218.298927,70.0936364 219.003655,70.0936364 C220.3302,70.0936364 220.868564,69.7407273 220.868564,68.9121818 C220.868564,67.9587273 220.5162,67.7514545 219.210927,67.5649091 C217.179655,67.2752727 215.397655,66.8394545 215.397655,64.5807273 C215.397655,62.5292727 216.972382,61.4514545 219.293291,61.4514545 C220.143109,61.4514545 221.573291,61.5758182 222.443836,61.9074545 C222.795655,62.0525455 222.941291,62.2178182 222.878564,62.5292727 L222.713291,63.2754545 C222.650564,63.5650909 222.526745,63.6065455 222.153109,63.5650909 C221.262382,63.462 220.1022,63.3370909 219.334745,63.3370909 C218.008745,63.3370909 217.697836,63.7107273 217.697836,64.4978182 C217.697836,65.3061818 218.194745,65.4098182 219.459655,65.6170909 C221.4282,65.9072727 223.210745,66.3010909 223.210745,68.7670909 C223.210745,71.1921818 221.158745,71.9792727 219.024382,71.9792727" id="Fill-28" fill="#626366" fill-rule="evenodd" mask="url(#mask-2)"></path>
                <path d="M228.538418,71.9792727 C227.502055,71.9792727 226.113873,71.8341818 225.325691,71.5232727 C224.911691,71.3574545 224.828236,71.1709091 224.890964,70.8392727 L225.035509,70.1558182 C225.097691,69.8241818 225.242782,69.8034545 225.574418,69.8449091 C226.486418,69.9894545 227.812964,70.0936364 228.517691,70.0936364 C229.844236,70.0936364 230.3826,69.7407273 230.3826,68.9121818 C230.3826,67.9587273 230.030236,67.7514545 228.724964,67.5649091 C226.693691,67.2752727 224.911691,66.8394545 224.911691,64.5807273 C224.911691,62.5292727 226.486418,61.4514545 228.807327,61.4514545 C229.657691,61.4514545 231.087327,61.5758182 231.957873,61.9074545 C232.310236,62.0525455 232.455327,62.2178182 232.3926,62.5292727 L232.227327,63.2754545 C232.1646,63.5650909 232.040782,63.6065455 231.667145,63.5650909 C230.776418,63.462 229.616236,63.3370909 228.848782,63.3370909 C227.522782,63.3370909 227.211873,63.7107273 227.211873,64.4978182 C227.211873,65.3061818 227.708782,65.4098182 228.973691,65.6170909 C230.942236,65.9072727 232.724782,66.3010909 232.724782,68.7670909 C232.724782,71.1921818 230.672782,71.9792727 228.538418,71.9792727" id="Fill-30" fill="#626366" fill-rule="evenodd" mask="url(#mask-2)"></path>
                <path d="M237.202309,71.4199636 C237.202309,71.6479636 237.119945,71.8137818 236.829218,71.8137818 L235.358127,71.8137818 C235.067945,71.8137818 234.943582,71.6894182 234.943582,71.4199636 L234.943582,62.0523273 C234.943582,61.7621455 235.067945,61.6590545 235.358127,61.6590545 L236.829218,61.6590545 C237.119945,61.6590545 237.202309,61.8243273 237.202309,62.0523273 L237.202309,71.4199636 Z M236.103764,60.1666909 C235.026491,60.1666909 234.8814,59.5656 234.8814,58.9645091 C234.8814,58.3012364 235.1094,57.7830545 236.103764,57.7830545 C237.119945,57.7830545 237.326673,58.2597818 237.326673,58.9645091 C237.326673,59.6070545 237.140673,60.1666909 236.103764,60.1666909 L236.103764,60.1666909 Z" id="Fill-32" fill="#626366" fill-rule="evenodd" mask="url(#mask-2)"></path>
                <path d="M244.021582,63.4410545 C242.260309,63.4410545 241.865945,64.5603273 241.865945,66.7154182 C241.865945,68.9119636 242.260309,69.9897818 244.000855,69.9897818 C245.886491,69.9897818 246.260127,68.9326909 246.260127,66.7154182 C246.260127,64.5188727 245.907218,63.4410545 244.021582,63.4410545 M244.000855,71.9790545 C239.835218,71.9790545 239.565764,68.9326909 239.565764,66.5703273 C239.565764,64.6225091 240.001036,61.4517818 244.000855,61.4517818 C248.0214,61.4517818 248.580491,64.1250545 248.580491,66.5703273 C248.580491,68.9326909 248.290309,71.9790545 244.000855,71.9790545" id="Fill-34" fill="#626366" fill-rule="evenodd" mask="url(#mask-2)"></path>
                <path d="M258.985855,71.8135636 L257.494036,71.8135636 C257.224036,71.8135636 257.100218,71.6892 257.100218,71.4197455 L257.120945,65.5964727 C257.120945,64.3735636 256.830764,63.5652 255.628582,63.5652 C254.799491,63.5652 253.349127,64.2284727 252.789491,64.4979273 L252.789491,71.4197455 C252.789491,71.6684727 252.685855,71.8135636 252.395673,71.8135636 L250.924582,71.8135636 C250.6344,71.8135636 250.530218,71.6892 250.530218,71.4197455 L250.530218,62.0733818 C250.530218,61.8033818 250.6344,61.6588364 250.924582,61.6588364 L252.395673,61.6588364 C252.685855,61.6588364 252.789491,61.8033818 252.789491,62.0733818 L252.789491,62.6946545 C252.810218,62.6946545 252.830945,62.7153818 252.851673,62.7153818 C253.618036,62.1770182 255.068945,61.4722909 256.333309,61.4722909 C259.130945,61.4722909 259.379673,63.3164727 259.379673,65.4099273 L259.379673,71.4197455 C259.379673,71.6684727 259.296764,71.8135636 258.985855,71.8135636" id="Fill-36" fill="#626366" fill-rule="evenodd" mask="url(#mask-2)"></path>
                <mask id="mask-4" fill="white">
                    <use xlink:href="#path-3"></use>
                </mask>
                <g id="Clip-39"></g>
                <polygon id="Fill-38" fill="#004494" fill-rule="evenodd" mask="url(#mask-4)" points="271.954345 30.34 268.400164 30.34 268.400164 71.9936364 271.954345 71.9936364"></polygon>
                <path d="M0.000163636363,26.8495636 C0.000163636363,26.8495636 42.8232545,21.2662909 44.0330727,21.0666545 C45.8859818,20.7622909 47.5321636,20.4061091 49.0670727,19.9779273 C52.5312545,19.0217455 55.7194364,17.5626545 58.5421636,15.6404727 C61.2481636,13.8115636 63.7654364,11.1508364 66.2608909,8.23210909 C67.8476182,6.37483636 69.5139818,3.95356364 71.0685273,1.61629091 L71.0685273,0.488836364 C69.2243455,3.23956364 67.4074364,5.60956364 65.5392545,7.70192727 C63.0634364,10.4793818 60.4659818,12.7512 57.8183455,14.4557455 C55.0861636,16.2290182 52.0108909,17.5528364 48.6770727,18.3906545 C47.1830727,18.7697455 45.5832545,19.0773818 43.7854364,19.3293818 C42.5996182,19.4973818 41.3778,19.6266545 40.1968909,19.7521091 C39.7250727,19.8022909 0.000163636363,24.0481091 0.000163636363,24.0481091 L0.000163636363,26.8495636 Z" id="Fill-40" fill="#BBBDBF" fill-rule="evenodd" mask="url(#mask-4)"></path>
                <path d="M57.4279091,19.6142727 C54.7475455,21.1677273 51.6515455,22.3044545 48.2266364,22.9928182 C46.7637273,23.2906364 45.1699091,23.5322727 43.3513636,23.7319091 C42.2839091,23.8486364 41.2082727,23.943 40.131,24.0362727 C39.5495455,24.087 38.9686364,24.1377273 38.3893636,24.1917273 C25.2662727,25.377 12.2102727,26.6386364 0.000272727273,27.8326364 L0.000272727273,30.6319091 C12.3062727,29.1362727 25.4528182,27.5528182 38.5715455,26.0566364 C39.1551818,25.9879091 39.7388182,25.9224545 40.323,25.8586364 C41.3975455,25.7391818 42.4737273,25.6197273 43.5531818,25.4762727 C45.4197273,25.2259091 47.0533636,24.9384545 48.5457273,24.597 C52.1037273,23.7951818 55.3180909,22.5297273 58.0955455,20.8355455 C60.8560909,19.1659091 63.2953636,16.8286364 65.9184545,13.9699091 C67.5515455,12.1906364 69.3684545,9.67990909 71.0686364,7.32027273 L71.0686364,6.29427273 C69.0657273,9.03190909 67.1653636,11.3315455 65.2840909,13.2935455 C62.7237273,15.9662727 60.0804545,18.0924545 57.4279091,19.6142727" id="Fill-41" fill="#BBBDBF" fill-rule="evenodd" mask="url(#mask-4)"></path>
                <path d="M64.9222909,18.9284727 C62.3090182,21.3432 59.5817455,23.2424727 56.8130182,24.5744727 C54.1064727,25.8901091 51.0775636,26.8130182 47.5522909,27.3972 C46.0975636,27.6399273 44.5157455,27.8384727 42.7190182,28.0032 L0.000109090906,31.5382909 L0.000109090906,34.3315636 L37.9735636,30.2712 L42.8870182,29.7502909 C44.7372,29.5353818 46.3517455,29.2932 47.8206545,29.0117455 C51.4719273,28.3173818 54.6044727,27.2799273 57.3944727,25.8404727 C60.2472,24.3868364 63.0977455,21.9682909 65.7475636,19.4073818 C67.5262909,17.6902909 69.2384727,15.4724727 71.0684727,13.1461091 L71.0684727,12.2155636 C68.9548364,14.8626545 66.9366545,17.0690182 64.9222909,18.9284727" id="Fill-42" fill="#BBBDBF" fill-rule="evenodd" mask="url(#mask-4)"></path>
                <path d="M54.5922,33.4330909 C52.1054727,34.8349091 50.2454727,35.6427273 46.6940182,36.0163636 C44.5476545,36.2492727 42.3412909,36.36 40.2069273,36.4669091 C39.1743818,36.5192727 38.1402,36.5705455 37.1082,36.636 C30.6543818,37.008 24.3167455,37.4203636 17.8509273,37.8447273 L0.000381818183,39.0561818 L0.000381818183,41.8489091 L18.0292909,40.182 C23.8547455,39.6556364 30.6249273,39.048 37.2342,38.5047273 L42.0380182,38.13 C43.9138364,37.9849091 45.4520182,37.8305455 46.8767455,37.6434545 C50.5312909,37.1683636 53.6529273,36.4243636 56.4189273,35.3710909 C59.3976545,34.248 62.2062,32.5058182 65.0191091,30.4570909 C67.5549273,28.6107273 71.0643818,24.9681818 71.0687455,24.9207273 L71.0687455,23.934 C68.7740182,26.1894545 67.4529273,27.456 64.9416545,29.124 C61.9400182,31.1165455 56.8220182,32.1763636 54.5922,33.4330909" id="Fill-43" fill="#BBBDBF" fill-rule="evenodd" mask="url(#mask-4)"></path>
                <path d="M55.5004364,38.7411273 C52.8053455,39.5369455 49.7720727,40.0758545 46.2271636,40.3884 C44.7909818,40.5133091 43.2418909,40.6098545 41.4904364,40.6807636 L36.7122545,40.8918545 C24.8393455,41.4476727 13.0242545,42.0694909 0.000436363636,42.7638545 L0.000436363636,45.5500364 C12.4411636,44.5796727 24.6331636,43.6354909 36.8202545,42.7616727 L41.5842545,42.4338545 C43.4235273,42.3122182 44.9480727,42.1796727 46.3826182,42.0171273 C50.0169818,41.6074909 53.1255273,40.9753091 55.8838909,40.0856727 C58.9417091,39.1098545 61.9220727,37.6949455 64.7420727,35.8802182 C66.8246182,34.5444 68.9077091,32.9516727 71.0688,31.0507636 L71.0688,31.0022182 C68.6868,33.0504 66.4177091,33.5047636 64.1557091,34.8809455 C61.3858909,36.5718545 58.4742545,37.8705818 55.5004364,38.7411273" id="Fill-44" fill="#BBBDBF" fill-rule="evenodd" mask="url(#mask-4)"></path>
                <path d="M55.0599273,43.3687091 C52.3452,44.0079818 49.4041091,44.4192545 45.8013818,44.6625273 C44.4121091,44.7563455 42.9186545,44.8267091 41.0995636,44.8834364 L36.3672,45.0530727 C24.4435636,45.5074364 12.3535636,46.0299818 0.000109090906,46.5699818 L0.000109090906,49.3545273 C12.2739273,48.5107091 24.3148364,47.6898 36.4604727,46.9239818 L41.1819273,46.6387091 C43.0332,46.5323455 44.5419273,46.4238 45.9279273,46.2967091 C49.5972,45.9558 52.5993818,45.4588909 55.3752,44.7339818 C58.4897455,43.9256182 61.5170182,42.7403455 64.3741091,41.2114364 C66.5832,40.0316182 68.7857455,38.6134364 71.0684727,36.9056182 L71.0684727,35.7143455 C68.6013818,37.5105273 66.2346545,38.9739818 63.8652,40.1674364 C61.0604727,41.5828909 58.0986545,42.6590727 55.0599273,43.3687091" id="Fill-45" fill="#BBBDBF" fill-rule="evenodd" mask="url(#mask-4)"></path>
                <path d="M54.6556364,47.9060182 C51.9321818,48.4083818 48.9987273,48.7291091 45.4232727,48.9156545 C44.0781818,48.9849273 42.6392727,49.0351091 40.7563636,49.0787455 L0,50.1909273 L0,52.9727455 L36.1412727,51.0718364 L40.8234545,50.8323818 C42.6501818,50.7456545 44.1447273,50.6567455 45.5269091,50.5487455 C49.1514545,50.2700182 52.1334545,49.8680182 54.9098182,49.2832909 C58.062,48.6238364 61.1209091,47.6611091 64.0025455,46.4240182 C66.3229091,45.4323818 68.6476364,44.2225636 71.0683636,42.7520182 L71.0683636,41.6338364 C68.4818182,43.1502 66.0223636,44.3671091 63.5803636,45.3402 C60.7390909,46.4785636 57.7363636,47.3409273 54.6556364,47.9060182" id="Fill-46" fill="#BBBDBF" fill-rule="evenodd" mask="url(#mask-4)"></path>
                <path d="M54.3357273,52.4622 C49.335,53.1342 44.1864545,53.2122 39.2075455,53.2869273 C38.0664545,53.3027455 36.9248182,53.3207455 35.7848182,53.3442 L0.000272727273,53.9943818 L0.000272727273,56.7723818 L35.847,55.2162 C36.9831818,55.1638364 38.1215455,55.1180182 39.261,55.0722 C44.2748182,54.8698364 49.4599091,54.6620182 54.5282727,53.8503818 C57.7371818,53.3409273 60.8244545,52.5871091 63.7055455,51.6112909 C66.0919091,50.8056545 68.5644545,49.7638364 71.0686364,48.5322 L71.0686364,47.4658364 C68.4368182,48.7018364 65.8486364,49.7272909 63.3635455,50.4963818 C60.5162727,51.3827455 57.4791818,52.0443818 54.3357273,52.4622" id="Fill-47" fill="#BBBDBF" fill-rule="evenodd" mask="url(#mask-4)"></path>
                <path d="M54.0515455,57.0474545 C49.3655455,57.4374545 44.5704545,57.4385455 39.9319091,57.4385455 C38.4891818,57.4385455 37.0464545,57.4385455 35.6037273,57.45 C23.7488182,57.5023636 11.9877273,57.6005455 0.000272727273,57.7047273 L0.000272727273,60.4843636 C11.4177273,60.0932727 23.5311818,59.6852727 35.6440909,59.3230909 C37.0819091,59.2750909 38.5202727,59.238 39.9602727,59.2003636 C44.6233636,59.082 49.4451818,58.9587273 54.1786364,58.4432727 C57.4862727,58.086 60.495,57.5618182 63.3782727,56.8429091 C65.8928182,56.2205455 68.475,55.3898182 71.0686364,54.3916364 L71.0686364,53.3710909 C68.3915455,54.3392727 65.7231818,55.1296364 63.1257273,55.7050909 C60.2708182,56.34 57.3019091,56.7790909 54.0515455,57.0474545" id="Fill-48" fill="#BBBDBF" fill-rule="evenodd" mask="url(#mask-4)"></path>
                <path d="M53.8704545,61.5676909 C51.9182727,61.6456909 49.8040909,61.6827818 47.4062727,61.6827818 C46.5002727,61.6827818 45.5942727,61.6773273 44.6904545,61.6691455 L35.4673636,61.5562364 C29.1739091,61.5093273 22.9044545,61.4984182 17.0222727,61.4929636 L0.000272727273,61.5093273 L0.000272727273,64.2873273 L17.0631818,63.8367818 C22.9235455,63.6922364 29.2115455,63.5416909 35.4848182,63.4276909 L44.7002727,63.3055091 C47.2284545,63.2646 50.5644545,63.1904182 53.9435455,62.9662364 C57.255,62.7502364 60.2680909,62.4180545 63.1562727,61.9533273 C65.7559091,61.5338727 68.4117273,60.9698727 71.0686364,60.2880545 L71.0686364,59.3018727 C68.3386364,59.9367818 65.6260909,60.4424182 62.9937273,60.7975091 C60.1219091,61.1853273 57.1377273,61.4367818 53.8704545,61.5676909" id="Fill-49" fill="#BBBDBF" fill-rule="evenodd" mask="url(#mask-4)"></path>
                <path d="M44.5833273,65.9355818 L35.3913273,65.8363091 C23.6656909,65.6704909 11.9504182,65.4539455 5.45454532e-05,65.2292182 L5.45454532e-05,68.0088545 C11.4071455,67.9319455 23.4884182,67.8446727 35.4000545,67.7094 L44.5964182,67.5719455 C47.6956909,67.5184909 50.7306,67.4623091 53.7993273,67.3586727 C60.1178727,67.1541273 65.7786,66.7068545 71.0684182,66.0015818 L71.0684182,65.0355818 C65.7584182,65.6104909 60.0895091,65.9143091 53.7666,65.9557636 C50.7076909,65.9835818 47.6455091,65.9612182 44.5833273,65.9355818" id="Fill-50" fill="#BBBDBF" fill-rule="evenodd" mask="url(#mask-4)"></path>
                <polygon id="Fill-51" fill="#BBBDBF" fill-rule="evenodd" mask="url(#mask-4)" points="71.0685273 71.0352727 0.000163636363 69.22 0.000163636363 71.9974545 71.0685273 71.9974545"></polygon>
                <path d="M64.6693091,24.1771091 C61.9698545,26.3622 59.8840364,27.9151091 56.5802182,29.2378364 C53.7029455,30.3903818 50.6124,30.8622 47.0811273,31.3471091 C44.8087636,31.6678364 42.4338545,32.1423818 40.1653091,32.2945636 C39.2325818,32.3578364 38.2993091,32.4200182 37.3687636,32.4936545 L0.00021818182,35.2378364 L0.00021818182,38.0262 L37.5193091,34.3602 L42.3836727,33.9003818 C44.1885818,33.7285636 45.7900364,33.5283818 47.2807636,33.2862 C50.9167636,32.6982 54.0498545,31.7998364 56.8578545,30.5403818 C59.7711273,29.2454727 62.7198545,27.1247455 65.4596727,24.8016545 C67.3240364,23.2242 69.1169455,21.2392909 71.0685818,19.0716545 L71.0685818,18.0723818 C68.7078545,20.5307455 66.7513091,22.4954727 64.6693091,24.1771091" id="Fill-52" fill="#BBBDBF" fill-rule="evenodd" mask="url(#mask-4)"></path>
                <path d="M101.313273,0.488727273 C101.313273,0.488727273 114.103636,20.8598182 116.442,24.5950909 C118.780364,28.3292727 121.453636,31.284 130.916727,33.2907273 C140.379818,35.2974545 144.499636,36.2454545 144.499636,36.2454545 L144.499636,36.9698182 C144.499636,36.9698182 138.486545,35.6874545 130.749273,33.9594545 C123.012,32.2314545 119.848909,31.65 116.322,26.7425455 C113.386909,22.6581818 101.313273,5.30072727 101.313273,5.30072727 L101.313273,0.488727273 Z" id="Fill-53" fill="#BBBDBF" fill-rule="evenodd" mask="url(#mask-4)"></path>
                <path d="M101.313273,23.7525818 C101.313273,23.7525818 112.956545,35.9533091 116.322,39.4556727 C119.893091,43.1713091 124.468364,44.5458545 130.809273,45.6782182 C136.862182,46.7587636 144.496364,48.0067636 144.496364,48.0067636 L144.496364,48.6940364 C144.496364,48.6940364 137.327455,47.5196727 130.809273,46.4036727 C124.418182,45.3089455 119.944364,44.6985818 116.283818,41.3260364 C113.006182,38.3058545 101.313273,27.3411273 101.313273,27.3411273 L101.313273,23.7525818 Z" id="Fill-54" fill="#BBBDBF" fill-rule="evenodd" mask="url(#mask-4)"></path>
                <path d="M101.313273,29.2497818 C101.313273,29.2497818 112.386,39.5316 116.322,43.0443273 C119.944364,46.2766909 122.88,47.2819636 130.847455,48.6941455 C138.816,50.1068727 144.496364,50.9845091 144.496364,50.9845091 L144.496364,51.7099636 C144.496364,51.7099636 137.290364,50.5263273 130.809273,49.4954182 C124.328727,48.4650545 120.198545,48.0576 116.322,44.9146909 C111.847091,41.2857818 101.313273,32.6092364 101.313273,32.6092364 L101.313273,29.2497818 Z" id="Fill-55" fill="#BBBDBF" fill-rule="evenodd" mask="url(#mask-4)"></path>
                <path d="M101.313273,35.1099273 C101.313273,35.1099273 113.961818,45.1441091 116.325273,46.8999273 C118.688727,48.6557455 121.815818,50.7044727 130.888909,52.0157455 C139.886727,53.3155636 144.499636,53.9624727 144.499636,53.9624727 L144.499636,54.7261091 C144.499636,54.7261091 136.341273,53.5424727 130.888909,52.8552 C125.437636,52.1679273 121.256727,51.8761091 116.363455,48.6175636 C111.6,45.4462909 101.313273,38.2037455 101.313273,38.2037455 L101.313273,35.1099273 Z" id="Fill-56" fill="#BBBDBF" fill-rule="evenodd" mask="url(#mask-4)"></path>
                <path d="M101.313273,40.7434364 C101.313273,40.7434364 113.999455,49.1903455 116.401636,50.5267091 C118.803818,51.8625273 121.624909,54.0388909 130.888909,55.2225273 C140.154,56.4061636 144.499636,56.9396182 144.499636,56.9396182 L144.499636,57.6650727 C144.499636,57.6650727 136.836545,56.8256182 130.850727,56.1770727 C124.865455,55.5274364 120.786545,54.6492545 116.325273,52.2067091 C111.864545,49.7636182 101.313273,43.5983455 101.313273,43.5983455 L101.313273,40.7434364 Z" id="Fill-57" fill="#BBBDBF" fill-rule="evenodd" mask="url(#mask-4)"></path>
                <path d="M101.313273,46.377 C101.313273,46.377 112.527273,52.4773636 116.322,54.3820909 C120.554182,56.5071818 124.214727,57.5244545 130.847455,58.3142727 C137.360727,59.0899091 144.496364,59.8420909 144.496364,59.8420909 L144.496364,60.5288182 C144.496364,60.5288182 137.898545,59.8224545 130.847455,59.1548182 C123.858,58.4920909 121.368545,58.1871818 116.322,55.9480909 C111.808909,53.9451818 101.313273,49.0508182 101.313273,49.0508182 L101.313273,46.377 Z" id="Fill-58" fill="#BBBDBF" fill-rule="evenodd" mask="url(#mask-4)"></path>
                <path d="M101.313273,52.0872 C101.313273,52.0872 110.174727,55.8819273 116.401636,58.3522909 C122.527636,60.7822909 127.203818,60.9868364 130.927091,61.4068364 C132.566727,61.5912 144.499636,62.8195636 144.499636,62.8195636 L144.499636,63.5057455 C144.499636,63.5057455 137.37,62.9335636 130.888909,62.3613818 C124.407273,61.7892 121.612364,61.5464727 116.363455,59.8037455 C111.052364,58.0402909 101.313273,54.6442909 101.313273,54.6442909 L101.313273,52.0872 Z" id="Fill-59" fill="#BBBDBF" fill-rule="evenodd" mask="url(#mask-4)"></path>
                <path d="M101.313273,57.9082364 C101.313273,57.9082364 110.259818,60.6813273 116.360182,62.2844182 C122.460545,63.8880545 128.064545,64.5376909 130.885636,64.7275091 C133.706727,64.9195091 144.499636,65.7960545 144.499636,65.7960545 L144.499636,66.4456909 C144.499636,66.4456909 138.361091,66.0273273 130.847455,65.4911455 C124.772727,65.0586 119.893091,64.6009636 116.322,63.8111455 C112.364182,62.9378727 101.313273,60.3115091 101.313273,60.3115091 L101.313273,57.9082364 Z" id="Fill-60" fill="#BBBDBF" fill-rule="evenodd" mask="url(#mask-4)"></path>
                <path d="M101.313273,63.6355091 C101.313273,63.6355091 108.63,64.8971455 116.360182,66.1784182 C122.155091,67.1395091 130.009091,67.7444182 130.847455,67.7831455 C131.686909,67.8202364 144.496364,68.6989636 144.496364,68.6989636 L144.496364,69.3851455 C144.496364,69.3851455 136.297636,68.9613273 130.847455,68.6607818 C125.170364,68.3466 119.527636,68.0024182 116.322,67.6680545 C109.142182,66.9191455 101.313273,65.9280545 101.313273,65.9280545 L101.313273,63.6355091 Z" id="Fill-61" fill="#BBBDBF" fill-rule="evenodd" mask="url(#mask-4)"></path>
                <path d="M101.313273,69.75 C101.313273,69.75 112.852909,70.1836364 116.360182,70.2605455 C119.868,70.3358182 144.496364,71.3290909 144.496364,71.3290909 L144.496364,71.9978182 L101.313273,71.9978182 L101.313273,69.75 Z" id="Fill-62" fill="#BBBDBF" fill-rule="evenodd" mask="url(#mask-4)"></path>
                <path d="M130.847455,36.4397455 C120.401455,34.1875636 118.038,30.3699273 116.283818,28.0026545 C114.529636,25.6353818 101.313273,6.31865455 101.313273,6.31865455 L101.313273,10.6779273 C101.834182,11.3597455 113.146364,26.1682909 116.322,30.2548364 C119.900727,34.8595636 125.510182,35.9052 130.847455,37.0506545 C136.184727,38.1955636 144.499636,39.7921091 144.499636,39.7921091 L144.499636,39.1817455 C144.499636,39.1817455 133.544727,37.0212 130.847455,36.4397455" id="Fill-63" fill="#BBBDBF" fill-rule="evenodd" mask="url(#mask-4)"></path>
                <path d="M130.847455,39.4938 C122.269636,37.8138 118.800545,35.1034364 116.283818,31.8203455 C113.767636,28.5372545 101.313273,12.1212545 101.313273,12.1212545 L101.313273,16.2487091 C101.834727,16.8672545 113.227636,30.3808909 116.283818,33.8816182 C119.848909,37.9648909 124.824,39.0356182 130.847455,40.1423455 C136.871455,41.2496182 144.496364,42.6999818 144.496364,42.6999818 L144.496364,42.0896182 C144.496364,42.0896182 135.793636,40.4625273 130.847455,39.4938" id="Fill-64" fill="#BBBDBF" fill-rule="evenodd" mask="url(#mask-4)"></path>
                <path d="M130.847455,42.6621273 C121.927091,40.9319455 120.097091,39.5066727 116.322,35.3704909 C113.948182,32.7708545 101.824909,18.4554 101.313273,17.8515818 L101.313273,21.6654 C101.313273,21.6654 112.642364,33.7494 116.283818,37.3177636 C121.063091,42.0010364 125.548364,42.3566727 130.847455,43.3112182 C136.147091,44.2652182 144.496364,45.7930364 144.496364,45.7930364 L144.496364,45.1439455 C144.496364,45.1439455 134.415818,43.3548545 130.847455,42.6621273" id="Fill-65" fill="#BBBDBF" fill-rule="evenodd" mask="url(#mask-4)"></path>
                <polygon id="Fill-66" fill="#004494" fill-rule="evenodd" mask="url(#mask-4)" points="91.8034364 30.34 29.5398 30.34 29.5398 71.992 91.8034364 71.992"></polygon>
                <polygon id="Fill-67" fill="#FFF100" fill-rule="evenodd" mask="url(#mask-4)" points="61.3465091 36.0812727 63.5130545 36.0812727 61.7665091 37.4416364 62.4456 39.5994545 60.7061455 38.2701818 58.9666909 39.5994545 59.6523273 37.4416364 57.8921455 36.0812727 60.0516 36.0812727 60.7061455 33.9769091"></polygon>
                <polygon id="Fill-68" fill="#FFF100" fill-rule="evenodd" mask="url(#mask-4)" points="61.4226545 63.8581636 63.5924727 63.8581636 61.8459273 65.1694364 62.5244727 67.2438 60.7855636 65.9652545 59.0461091 67.2438 59.7312 65.1694364 57.9682909 63.8581636 60.1310182 63.8581636 60.7855636 61.8328909"></polygon>
                <polygon id="Fill-69" fill="#FFF100" fill-rule="evenodd" mask="url(#mask-4)" points="68.2935818 62.0182909 70.4639455 62.0182909 68.7174 63.3268364 69.3959455 65.4039273 67.6564909 64.1226545 65.9170364 65.4039273 66.6026727 63.3268364 64.8392182 62.0182909 67.0019455 62.0182909 67.6564909 59.9930182"></polygon>
                <polygon id="Fill-70" fill="#FFF100" fill-rule="evenodd" mask="url(#mask-4)" points="68.2935818 37.9341273 70.4639455 37.9341273 68.7174 39.2432182 69.3959455 41.3197636 67.6564909 40.0401273 65.9170364 41.3197636 66.6026727 39.2432182 64.8392182 37.9341273 67.0019455 37.9341273 67.6564909 35.9094"></polygon>
                <polygon id="Fill-71" fill="#FFF100" fill-rule="evenodd" mask="url(#mask-4)" points="73.3949455 43.035 75.5609455 43.035 73.8149455 44.3419091 74.4934909 46.4206364 72.7540364 45.141 71.0184 46.4206364 71.7034909 44.3419091 69.9400364 43.035 72.0994909 43.035 72.7540364 41.0097273"></polygon>
                <polygon id="Fill-72" fill="#FFF100" fill-rule="evenodd" mask="url(#mask-4)" points="73.3949455 56.9866909 75.5609455 56.9866909 73.8149455 58.2990545 74.4934909 60.3756 72.7540364 59.0937818 71.0184 60.3756 71.7034909 58.2990545 69.9400364 56.9866909 72.0994909 56.9866909 72.7540364 54.9614182"></polygon>
                <polygon id="Fill-73" fill="#FFF100" fill-rule="evenodd" mask="url(#mask-4)" points="75.3061636 49.9043455 77.4765273 49.9043455 75.7294364 51.2134364 76.4079818 53.2910727 74.6685273 52.0092545 72.9296182 53.2910727 73.6147091 51.2134364 71.8512545 49.9043455 74.0112545 49.9043455 74.6685273 47.8807091"></polygon>
                <polygon id="Fill-74" fill="#FFF100" fill-rule="evenodd" mask="url(#mask-4)" points="54.3413455 37.9512 56.5073455 37.9512 54.7613455 39.2619273 55.4398909 41.3384727 53.7004364 40.0572 51.9609818 41.3384727 52.6471636 39.2619273 50.8869818 37.9512 53.0464364 37.9512 53.7004364 35.9264727"></polygon>
                <polygon id="Fill-75" fill="#FFF100" fill-rule="evenodd" mask="url(#mask-4)" points="49.3816364 43.0520727 51.5514545 43.0520727 49.8049091 44.3606182 50.4801818 46.4382545 48.7445455 45.1580727 47.0050909 46.4382545 47.6885455 44.3606182 45.9272727 43.0520727 48.09 43.0520727 48.7445455 41.0273455"></polygon>
                <polygon id="Fill-76" fill="#FFF100" fill-rule="evenodd" mask="url(#mask-4)" points="47.5407273 49.9213636 49.7089091 49.9213636 47.9623636 51.2315455 48.6409091 53.3080909 46.902 52.0306364 45.1625455 53.3080909 45.8476364 51.2315455 44.088 49.9213636 46.2474545 49.9213636 46.902 47.8982727"></polygon>
                <polygon id="Fill-77" fill="#FFF100" fill-rule="evenodd" mask="url(#mask-4)" points="49.3816364 57.0037636 51.5514545 57.0037636 49.8049091 58.3161273 50.4801818 60.3926727 48.7445455 59.1119455 47.0050909 60.3926727 47.6885455 58.3161273 45.9272727 57.0037636 48.09 57.0037636 48.7445455 54.9817636"></polygon>
                <polygon id="Fill-78" fill="#FFF100" fill-rule="evenodd" mask="url(#mask-4)" points="54.4137818 62.0353636 56.5797818 62.0353636 54.8337818 63.3444545 55.5085091 65.421 53.7728727 64.1402727 52.0334182 65.421 52.7190545 63.3444545 50.9594182 62.0353636 53.1183273 62.0353636 53.7728727 60.0100909"></polygon>
            </g>
        </g>
    </g>
</svg>