<!-- Generated by IcoMoon.io -->
<svg version="1.1" xmlns="http://www.w3.org/2000/svg" width="28" height="32" viewBox="0 0 28 32">
<title>data</title>
<path d="M14.075 0.376c-7.791 0-14.075 3.078-14.075 7.022v18.115c0 3.848 6.284 7.022 14.075 7.022s14.043-3.11 14.043-6.958v-18.18c0-3.944-6.38-7.022-14.043-7.022zM25.137 25.513c0 1.218-3.751 4.008-11.062 4.008-7.214 0-11.062-2.789-11.062-4.008v-4.713c2.533 1.603 6.541 2.725 11.062 2.725 4.393 0 8.432-1.026 11.062-2.725v4.713zM25.137 16.503c0 1.218-3.751 4.040-11.062 4.040-7.214 0-11.062-2.822-11.062-4.040v-4.681c2.533 1.571 6.541 2.693 11.062 2.693 4.393 0 8.432-1.026 11.062-2.693v4.681zM14.075 11.437c-7.214 0-11.062-2.822-11.062-4.040s3.751-4.008 11.062-4.008c7.214 0 11.062 2.789 11.062 4.008s-3.848 4.040-11.062 4.040z"></path>
</svg>
