<!-- Generated by IcoMoon.io -->
<svg version="1.1" xmlns="http://www.w3.org/2000/svg" width="32" height="32" viewBox="0 0 32 32">
<title>faq</title>
<path d="M18.564 24.166h-5.451c0-0.802 0-1.282 0-1.443 0-1.763 0.289-3.206 0.866-4.361s1.763-2.437 3.495-3.848c1.763-1.411 2.822-2.373 3.142-2.789 0.545-0.705 0.802-1.475 0.802-2.309 0-1.186-0.481-2.18-1.411-3.014s-2.18-1.25-3.751-1.25c-1.539 0-2.822 0.449-3.848 1.315s-1.731 2.18-2.116 3.976l-5.515-0.705c0.16-2.533 1.25-4.713 3.27-6.477 2.020-1.796 4.649-2.693 7.952-2.693 3.431 0 6.188 0.898 8.208 2.725 2.052 1.796 3.078 3.88 3.078 6.284 0 1.315-0.385 2.565-1.122 3.751-0.77 1.186-2.373 2.789-4.809 4.841-1.282 1.058-2.052 1.892-2.373 2.533-0.289 0.641-0.449 1.796-0.417 3.463zM13.114 32.246v-6.028h6.028v6.028h-6.028z"></path>
</svg>
