<!-- Generated by IcoMoon.io -->
<svg version="1.1" xmlns="http://www.w3.org/2000/svg" width="32" height="32" viewBox="0 0 32 32">
<title>googleplus</title>
<path d="M10.741 30.931c-3.783 0-6.637-2.437-6.637-5.29s3.399-5.29 7.182-5.098c0.962 0 1.731 0.192 2.469 0.385 2.084 1.507 3.591 2.276 3.976 3.976 0 0.353 0.192 0.737 0.192 0.93 0 2.822-1.892 5.098-7.182 5.098v0zM11.671 13.938c-2.469-0.16-4.906-3.014-5.483-6.22-0.385-3.399 1.315-5.835 3.783-5.835 2.661 0 4.938 2.822 5.483 6.22 0.577 3.206-1.122 5.835-3.783 5.835v0zM16.993 18.844c-0.77-0.545-2.661-2.244-2.661-3.014 0-1.122 0.385-1.507 1.892-2.822 1.699-1.315 2.854-3.206 2.854-5.29 0-2.437-1.154-4.906-3.238-5.643h3.238l2.244-1.699h-10.036c-4.328 0-8.689 3.399-8.689 7.342s3.014 7.182 7.567 7.182h0.93c-0.16 0.577-0.353 1.122-0.353 1.892 0 1.122 0.545 2.052 1.315 2.822h-1.699c-5.483-0.192-9.843 3.399-9.843 6.99s4.713 5.835 10.228 5.835c6.252 0 9.843-3.591 9.843-7.182 0-2.822-0.962-4.521-3.591-6.413v0zM31.55 14.13h-3.976v-3.751h-3.206v3.944h-3.976v3.014h3.976v3.783h3.206v-3.783h3.976v-3.206z"></path>
</svg>
