<!-- Generated by IcoMoon.io -->
<svg version="1.1" xmlns="http://www.w3.org/2000/svg" width="32" height="32" viewBox="0 0 32 32">
<title>linkedin</title>
<path d="M6.99 31.188h-6.22v-19.911h6.22v19.911zM3.783 8.84v0c-2.276 0-3.783-1.507-3.783-3.399 0-2.052 1.507-3.559 3.783-3.559s3.751 1.507 3.751 3.367c0 2.084-1.507 3.591-3.751 3.591v0zM32.063 31.188h-7.15v-10.324c0-2.629-1.154-4.521-3.591-4.521-1.892 0-2.822 1.315-3.399 2.437 0 0.385 0 1.122 0 1.699v10.709h-6.99v-19.911h6.99v3.174c0.385-1.315 2.629-3.367 6.22-3.367 4.521 0 7.919 2.822 7.919 9.010v11.094z"></path>
</svg>
