<!-- Generated by IcoMoon.io -->
<svg version="1.1" xmlns="http://www.w3.org/2000/svg" width="32" height="32" viewBox="0 0 32 32">
<title>regulation</title>
<path d="M15.807 1.594h0.385c4.296 2.244 8.849 5.002 13.274 7.471 0.609 0.321 1.603 0.705 1.796 1.122 0.256 0.545 0.064 1.892-0.192 2.084-0.385 0.385-2.501 0.192-3.623 0.192h-22.957c-1.411 0-3.591 0.321-3.815-0.545v-1.539c0.096-0.353 0.353-0.481 0.545-0.641 1.058-0.705 2.373-1.347 3.591-2.020 3.495-1.988 7.471-4.232 10.997-6.124v0zM15.55 9.674c2.693 0.545 2.789-3.88 0-3.27-1.86 0.449-1.283 3.046 0 3.27v0zM10.484 13.521c0.257 0.994-0.096 1.86-0.93 1.988-0.032 2.565 0.096 5.322-0.064 7.791-1.443 0.096-3.335 0.096-4.809 0-0.128-2.469-0.032-5.194-0.064-7.727-0.737-0.224-1.218-0.994-0.93-2.052 2.116-0.096 4.681-0.096 6.797 0v0zM19.398 13.521c0.256 0.994-0.096 1.86-0.93 1.988-0.032 2.565 0.096 5.322-0.064 7.791-1.475 0.096-3.367 0.096-4.809 0-0.16-2.469-0.032-5.194-0.064-7.727-0.737-0.224-1.25-0.994-0.93-2.052 2.116-0.096 4.681-0.096 6.797 0v0zM28.311 13.521c0.256 0.994-0.128 1.86-0.93 1.988-0.064 2.565 0.064 5.322-0.064 7.791-1.475 0.096-3.367 0.096-4.841 0-0.128-2.469 0-5.194-0.064-7.727-0.737-0.224-1.218-0.994-0.93-2.052 2.148-0.096 4.681-0.096 6.829 0v0zM3.206 24.39c0.609-0.192 2.308-0.064 3.334-0.064h19.526c0.93 0 2.693-0.096 3.046 0.192 0.417 0.385 0.321 2.308 0 2.597-0.385 0.353-2.18 0.192-3.174 0.192h-19.943c-0.898 0-2.693 0.192-3.11-0.192-0.513-0.449-0.385-2.469 0.321-2.725v0zM0.673 30.643v-1.731c0.16-0.385 0.321-0.513 0.673-0.609 0.962-0.224 2.405 0 3.719 0h22.444c1.122 0 3.174-0.16 3.559 0.192 0.417 0.353 0.321 2.308 0 2.597-0.385 0.321-2.437 0.192-3.527 0.192h-22.476c-1.796 0-3.976 0.353-4.393-0.641v0z"></path>
</svg>
