<!-- Generated by IcoMoon.io -->
<svg version="1.1" xmlns="http://www.w3.org/2000/svg" width="26" height="32" viewBox="0 0 26 32">
<title>share</title>
<path d="M20.841 21.216q1.988 0 3.399 1.379t1.411 3.431q0 1.988-1.411 3.399t-3.399 1.411-3.399-1.411-1.411-3.399q0-0.192 0.032-0.449t0.032-0.385l-8.336-5.002q-1.347 1.026-2.95 1.026-1.988 0-3.399-1.411t-1.411-3.399 1.411-3.399 3.399-1.411q1.731 0 2.95 0.962l8.336-5.002q0-0.128-0.032-0.385t-0.032-0.385q0-1.988 1.411-3.399t3.399-1.411 3.399 1.379 1.411 3.431q0 1.988-1.411 3.399t-3.399 1.411q-1.667 0-2.886-1.026l-8.4 5.002q0.064 0.257 0.064 0.834 0 0.513-0.064 0.77l8.4 5.002q1.154-0.962 2.886-0.962z"></path>
</svg>
