<svg width="24" height="24" xmlns="http://www.w3.org/2000/svg" xmlns:xlink="http://www.w3.org/1999/xlink"><defs><path d="M15.136 21.11c2.01-.77 3.622-1.937 4.727-3.61h-2.665c-.437 1.424-1.343 2.608-2.062 3.61zm-2.45.3c1.318-.831 2.327-2.344 3.052-3.91h-3.051v3.91zm-1.847-.3c.126.107.296.31.473.257V17.5c-1.002.028-2.12-.057-3.05.043.635 1.326 1.534 2.673 2.577 3.566zm-1.934-.044A10.335 10.335 0 0 1 6.801 17.5H4.136a8.946 8.946 0 0 0 4.77 3.566zm9.325-8.38c-.162 1.172-.242 2.423-.559 3.439h3.008c.472-.975.82-2.074.902-3.438H18.23zm-5.5 0c-.1 1.062-.014 2.307-.043 3.439h3.566c.297-1.035.464-2.201.559-3.438H12.73zm-5.5 0c-.017 1.166.249 2.417.515 3.439h3.567v-3.438H7.23zm-4.812 0a8.878 8.878 0 0 0 .902 3.439h3.008c-.284-1.034-.453-2.184-.516-3.438H2.418zm15.769-1.374h3.395a8.927 8.927 0 0 0-.903-3.437h-3.008c.286 1.032.449 2.188.516 3.437zM12.73 7.875c-.1 1.06-.014 2.306-.043 3.437 1.36-.028 2.835.057 4.125-.043-.102-1.216-.264-2.371-.559-3.394H12.73zm-5.543 3.437h4.125V7.875H7.788c-.375.97-.49 2.202-.601 3.437zM3.363 7.875c-.55.912-.841 2.08-.945 3.437h3.394c.063-1.253.232-2.403.516-3.437H3.363zM17.198 6.5h2.665a8.94 8.94 0 0 0-4.77-3.566c.894.997 1.62 2.16 2.105 3.566zm-13.062 0h2.665c.436-1.425 1.344-2.608 2.062-3.61-2.009.77-3.622 1.936-4.727 3.61zm9.024-3.61c-.126-.107-.296-.31-.473-.257V6.5c1.002-.03 2.12.057 3.05-.043-.635-1.327-1.535-2.672-2.577-3.566zM8.26 6.5h3.05c-.027-1.304.058-2.722-.042-3.954C9.963 3.561 8.981 4.9 8.261 6.5zM11.184 1h1.632C18.75 1.856 22.143 5.25 23 11.184v1.632C22.143 18.75 18.75 22.144 12.816 23h-1.632C5.248 22.146 1.856 18.75 1 12.816v-1.632C1.856 5.25 5.247 1.854 11.184 1z" id="a"/></defs><use xlink:href="#a"/></svg>