<svg width="24" height="24" xmlns="http://www.w3.org/2000/svg" xmlns:xlink="http://www.w3.org/1999/xlink"><defs><path d="M15.56 7.178c2.985 2.672 2.985 7.055-.046 9.769-.23.209-.552.292-.781.292-.322 0-.643-.083-.873-.292-.505-.46-.505-1.086 0-1.545 2.021-1.795 2.021-4.842 0-6.679-.505-.46-.505-1.085 0-1.545.505-.459 1.194-.459 1.7 0zm2.572-1.962c.505-.459 1.194-.459 1.653 0 2.02 1.837 3.215 4.3 3.215 6.93s-1.148 5.093-3.215 6.93c-.138.167-.46.292-.78.292-.322 0-.644-.083-.873-.292-.506-.46-.506-1.085 0-1.545 3.306-2.964 3.306-7.848 0-10.77-.506-.46-.506-1.085 0-1.545zM12.207 1v22l-7.211-6.596H1V7.68h3.996L12.206 1z" id="a"/></defs><use xlink:href="#a"/></svg>