<?xml version="1.0" encoding="UTF-8"?>
<svg width="460px" height="345px" viewBox="0 0 460 345" version="1.1" xmlns="http://www.w3.org/2000/svg" xmlns:xlink="http://www.w3.org/1999/xlink">
    <title>ec_comp_ticker</title>
    <g id="thumbnails---final" stroke="none" stroke-width="1" fill="none" fill-rule="evenodd">
        <g id="thumbnails---final_symbols" transform="translate(-500.000000, -4400.000000)">
            <g id="ec_comp_ticker" transform="translate(500.000000, 4400.000000)">
                <g id="Group-4" transform="translate(48.000000, 152.000000)">
                    <g id="Group-7-Copy">
                        <rect id="Rectangle" stroke="#004494" stroke-width="2" fill="#FFFFFF" x="1" y="1" width="362" height="28"></rect>
                        <path d="M15.6874769,6.24999702 C14.1510224,6.24999702 12.7382652,6.62760048 11.4492058,7.38280682 C10.1601463,8.13801315 9.13801315,9.16014633 8.38280682,10.4492058 C7.62760048,11.7382652 7.24999702,13.1510224 7.24999702,14.6874769 C7.24999702,16.2239314 7.62760048,17.6366886 8.38280682,18.925748 C9.13801315,20.2148075 10.1601463,21.2369407 11.4492058,21.992147 C12.7382652,22.7473533 14.1510224,23.1249568 15.6874769,23.1249568 C17.2239314,23.1249568 18.6366886,22.7473533 19.925748,21.992147 C21.2148075,21.2369407 22.2369407,20.2148075 22.992147,18.925748 C23.7473533,17.6366886 24.1249568,16.2239314 24.1249568,14.6874769 C24.1249568,13.1510224 23.7473533,11.7382652 22.992147,10.4492058 C22.2369407,9.16014633 21.2082969,8.13801315 19.9062168,7.38280682 C18.6041368,6.62760048 17.1978902,6.24999702 15.6874769,6.24999702 Z M15.6874769,5 C17.4322646,5 19.0468439,5.43619708 20.5312154,6.30859063 C22.0155868,7.18098418 23.1939696,8.35936699 24.0663632,9.84373845 C24.9387567,11.3281099 25.3749538,12.9426892 25.3749538,14.6874769 C25.3749538,16.4322646 24.9387567,18.0468439 24.0663632,19.5312154 C23.1939696,21.0155868 22.0155868,22.1939696 20.5312154,23.0663632 C19.0468439,23.9387567 17.4322646,24.3749538 15.6874769,24.3749538 C13.9426892,24.3749538 12.3281099,23.9387567 10.8437385,23.0663632 C9.35936699,22.1939696 8.18098418,21.0155868 7.30859063,19.5312154 C6.43619708,18.0468439 6,16.4322646 6,14.6874769 C6,12.9426892 6.43619708,11.3281099 7.30859063,9.84373845 C8.18098418,8.35936699 9.35936699,7.18098418 10.8437385,6.30859063 C12.3281099,5.43619708 13.9426892,5 15.6874769,5 Z M14.7499791,18.437468 L14.7499791,13.7499791 L14.2812303,13.7499791 C14.1510224,13.7499791 14.0403452,13.7044061 13.9491998,13.6132607 C13.8580544,13.5221153 13.8124814,13.4114381 13.8124814,13.2812303 L13.8124814,12.968731 C13.8124814,12.8385232 13.8580544,12.727846 13.9491998,12.6367005 C14.0403452,12.5455551 14.1510224,12.4999821 14.2812303,12.4999821 L16.1562258,12.4999821 C16.2864336,12.4999821 16.3971108,12.5455551 16.4882562,12.6367005 C16.5794017,12.727846 16.6249747,12.8385232 16.6249747,12.968731 L16.6249747,18.437468 L17.0937236,18.437468 C17.2239314,18.437468 17.3346086,18.483041 17.425754,18.5741864 C17.5168994,18.6653318 17.5624724,18.776009 17.5624724,18.9062168 L17.5624724,19.2187161 C17.5624724,19.3489239 17.5168994,19.4596011 17.425754,19.5507466 C17.3346086,19.641892 17.2239314,19.687465 17.0937236,19.687465 L14.2812303,19.687465 C14.1510224,19.687465 14.0403452,19.641892 13.9491998,19.5507466 C13.8580544,19.4596011 13.8124814,19.3489239 13.8124814,19.2187161 L13.8124814,18.9062168 C13.8124814,18.776009 13.8580544,18.6653318 13.9491998,18.5741864 C14.0403452,18.483041 14.1510224,18.437468 14.2812303,18.437468 L14.7499791,18.437468 Z M15.6874769,9.06249031 C16.026018,9.06249031 16.318986,9.18618813 16.5663811,9.43358318 C16.8137761,9.68097822 16.9374799,9.97394628 16.9374799,10.3124873 C16.9374799,10.6510284 16.8137761,10.9439964 16.5663811,11.1913915 C16.318986,11.4387865 16.026018,11.5624903 15.6874769,11.5624903 C15.3489358,11.5624903 15.0559678,11.4387865 14.8085727,11.1913915 C14.5611777,10.9439964 14.4374799,10.6510284 14.4374799,10.3124873 C14.4374799,9.97394628 14.5611777,9.68097822 14.8085727,9.43358318 C15.0559678,9.18618813 15.3489358,9.06249031 15.6874769,9.06249031 Z" id="" fill="#004494" fill-rule="nonzero"></path>
                        <rect id="Rectangle" fill="#404040" x="30" y="10" width="244" height="10"></rect>
                    </g>
                    <g id="Group-7-Copy-2" transform="translate(304.000000, 0.000000)">
                        <rect id="Rectangle" stroke="#004494" stroke-width="2" fill="#004494" x="1" y="1" width="58" height="28"></rect>
                        <g id="Group" transform="translate(25.000000, 10.000000)">
                            <circle id="Oval" stroke="#FFFFFF" cx="5" cy="5" r="5"></circle>
                            <path d="M4.09577361,6.94724435 C3.93946056,6.99413826 3.77272656,7.00976957 3.59557184,6.99413826 C3.41841713,6.97850696 3.26991974,6.93682352 3.15007965,6.86908782 C3.03023957,6.80135213 2.97031964,6.72059042 2.97031964,6.62680259 L2.97031964,3.37549115 C2.97031964,3.27128249 3.03284486,3.18661284 3.1578953,3.12148244 C3.28294574,3.05635204 3.43404844,3.01727378 3.61120315,3.00424765 C3.78835786,2.99122153 3.9498815,3.00815548 4.09577361,3.05504939 L4.09577361,6.94724435 Z" id="" fill="#FFFFFF" fill-rule="nonzero"></path>
                            <path d="M7.09577361,6.94724435 C6.93946056,6.99413826 6.77272656,7.00976957 6.59557184,6.99413826 C6.41841713,6.97850696 6.26991974,6.93682352 6.15007965,6.86908782 C6.03023957,6.80135213 5.97031964,6.72059042 5.97031964,6.62680259 L5.97031964,3.37549115 C5.97031964,3.27128249 6.03284486,3.18661284 6.1578953,3.12148244 C6.28294574,3.05635204 6.43404844,3.01727378 6.61120315,3.00424765 C6.78835786,2.99122153 6.9498815,3.00815548 7.09577361,3.05504939 L7.09577361,6.94724435 Z" id="-copy" fill="#FFFFFF" fill-rule="nonzero" transform="translate(6.533047, 5.000000) scale(-1, 1) translate(-6.533047, -5.000000) "></path>
                        </g>
                        <path d="M46.5669291,10.0678733 C46.6141732,10.0226244 46.6771655,10 46.7559055,10 C46.8346455,10 46.9055117,10.0226244 46.9685039,10.0678733 L51.9055118,14.8190045 C51.9685041,14.8642534 52,14.9245853 52,15 C52,15.0754147 51.9685041,15.1357466 51.9055118,15.1809955 L46.9685039,19.9321267 C46.9055117,19.9773756 46.8346455,20 46.7559055,20 C46.6771655,20 46.6141732,19.9773756 46.5669291,19.9321267 L46.0944882,19.479638 C46.0314959,19.4343891 46,19.3740572 46,19.2986425 C46,19.2232279 46.0314959,19.1553546 46.0944882,19.0950226 L50.3700787,15 L46.0944882,10.9049774 C46.0314959,10.8446454 46,10.7767721 46,10.7013575 C46,10.6259428 46.0314959,10.5656109 46.0944882,10.520362 L46.5669291,10.0678733 Z" id="" fill="#FFFFFF" fill-rule="nonzero" transform="translate(49.000000, 15.000000) rotate(-360.000000) translate(-49.000000, -15.000000) "></path>
                        <path d="M8.56692913,10.0678733 C8.61417323,10.0226244 8.67716547,10 8.75590551,10 C8.83464555,10 8.90551169,10.0226244 8.96850394,10.0678733 L13.9055118,14.8190045 C13.9685041,14.8642534 14,14.9245853 14,15 C14,15.0754147 13.9685041,15.1357466 13.9055118,15.1809955 L8.96850394,19.9321267 C8.90551169,19.9773756 8.83464555,20 8.75590551,20 C8.67716547,20 8.61417323,19.9773756 8.56692913,19.9321267 L8.09448819,19.479638 C8.03149594,19.4343891 8,19.3740572 8,19.2986425 C8,19.2232279 8.03149594,19.1553546 8.09448819,19.0950226 L12.3700787,15 L8.09448819,10.9049774 C8.03149594,10.8446454 8,10.7767721 8,10.7013575 C8,10.6259428 8.03149594,10.5656109 8.09448819,10.520362 L8.56692913,10.0678733 Z" id="-copy" fill="#FFFFFF" fill-rule="nonzero" transform="translate(11.000000, 15.000000) scale(-1, 1) rotate(-360.000000) translate(-11.000000, -15.000000) "></path>
                    </g>
                </g>
            </g>
        </g>
    </g>
</svg>