<?xml version="1.0" encoding="UTF-8"?>
<svg width="460px" height="345px" viewBox="0 0 460 345" version="1.1" xmlns="http://www.w3.org/2000/svg" xmlns:xlink="http://www.w3.org/1999/xlink">
    <title>eu_comp_file</title>
    <g id="thumbnails---final" stroke="none" stroke-width="1" fill="none" fill-rule="evenodd">
        <g id="EU-thumbnails---final_symbols" transform="translate(-980.000000, -385.000000)">
            <g id="eu_comp_file" transform="translate(980.000000, 385.000000)">
                <g id="Group-5-Copy" transform="translate(80.000000, 139.000000)">
                    <rect id="Rectangle-Copy" stroke-opacity="0.2" stroke="#0E47CB" fill="#F3F6FC" x="0.5" y="0.5" width="299" height="67" rx="4"></rect>
                    <g id="Group" transform="translate(69.000000, 19.000000)">
                        <polygon id="Fill-10" fill="#404040" points="0 10 211 10 211 0 0 0"></polygon>
                        <polygon id="Fill-10-Copy-3" fill="#CFCFCF" points="0 30 86 30 86 20 0 20"></polygon>
                    </g>
                    <path d="M46.1966667,18.8421053 C47.6466667,18.8421053 49,20.2995951 49,21.659919 L49,55.2793522 C49,56.6396761 47.55,58 46.1966667,58 L26.8633333,58 C25.3166667,58 23.9633333,56.5425101 23.9633333,55.2793522 L23.9633333,25.7408907 L30.9233333,18.9392713 L46.1966667,18.9392713 L46.1966667,18.8421053 Z M46.1966667,21.659919 L33.7266667,21.659919 L33.7266667,25.9352227 C33.7266667,27.3927126 32.2766667,28.6558704 31.02,28.6558704 L26.7666667,28.6558704 L26.7666667,55.2793522 L46.1966667,55.2793522 L46.1966667,21.659919 Z M43.1033333,10 C44.65,10 46.1,11.4574899 46.1,12.9149798 L46.1,12.9149798 L46.1,17.8704453 L43.2,17.8704453 L43.2,12.9149798 L30.15,12.9149798 L30.15,17.3846154 C30.15,18.9392713 28.7,20.2024291 27.25,20.2024291 L27.25,20.2024291 L22.9,20.2024291 L22.9,48.8663968 C21.3533333,48.7692308 20,47.3117409 20,46.048583 L20,46.048583 L20,17.0931174 L27.25,10 Z" id="Combined-Shape" fill="#0E47CB"></path>
                </g>
            </g>
        </g>
    </g>
</svg>