<svg
  width="460"
  height="345"
  viewBox="0 0 460 345"
  fill="none"
  xmlns="http://www.w3.org/2000/svg"
>
<rect x="80" y="112" width="300" height="121" rx="4" fill="#F3F6FC" />
<rect
    x="80.5"
    y="112.5"
    width="299"
    height="120"
    rx="3.5"
    stroke="#0E47CB"
    stroke-opacity="0.2"
  />
<rect
    x="253"
    y="198"
    width="53"
    height="19"
    rx="4"
    stroke="#0E47CB"
    stroke-width="2"
  />
<path
    fill-rule="evenodd"
    clip-rule="evenodd"
    d="M265.871 209.4H293.129V205.6H265.871V209.4Z"
    fill="#0E47CB"
  />
<rect x="311" y="198" width="53" height="19" rx="4" fill="#0E47CB" />
<path
    fill-rule="evenodd"
    clip-rule="evenodd"
    d="M323.871 209.4H351.129V205.6H323.871V209.4Z"
    fill="white"
  />
<path
    fill-rule="evenodd"
    clip-rule="evenodd"
    d="M123 138H242V128H123V138Z"
    fill="#404040"
  />
<path
    fill-rule="evenodd"
    clip-rule="evenodd"
    d="M96 158H335V154H96V158Z"
    fill="#CFCFCF"
  />
<path
    fill-rule="evenodd"
    clip-rule="evenodd"
    d="M96 170H279V166H96V170Z"
    fill="#CFCFCF"
  />
<path
    fill-rule="evenodd"
    clip-rule="evenodd"
    d="M96 182H335V178H96V182Z"
    fill="#CFCFCF"
  />
<path
    fill-rule="evenodd"
    clip-rule="evenodd"
    d="M360.327 133L363.847 136.52C363.949 136.656 364 136.81 364 136.98C364 137.15 363.949 137.286 363.847 137.388L363.388 137.847C363.286 137.949 363.15 138 362.98 138C362.81 138 362.656 137.949 362.52 137.847L359 134.276L355.48 137.847C355.344 137.949 355.19 138 355.02 138C354.85 138 354.714 137.949 354.612 137.847L354.153 137.388C354.051 137.286 354 137.15 354 136.98C354 136.81 354.051 136.656 354.153 136.52L357.724 133L354.153 129.48C354.051 129.344 354 129.19 354 129.02C354 128.85 354.051 128.714 354.153 128.612L354.612 128.153C354.714 128.051 354.85 128 355.02 128C355.19 128 355.344 128.051 355.48 128.153L359 131.673L362.52 128.153C362.656 128.051 362.81 128 362.98 128C363.15 128 363.286 128.051 363.388 128.153L363.847 128.612C363.949 128.714 364 128.85 364 129.02C364 129.19 363.949 129.344 363.847 129.48L360.327 133Z"
    fill="#0E47CB"
  />
<path
    fill-rule="evenodd"
    clip-rule="evenodd"
    d="M110.25 124.283C108.794 123.428 107.211 123 105.5 123C103.789 123 102.206 123.428 100.75 124.283C99.2944 125.139 98.1388 126.294 97.2833 127.75C96.4278 129.206 96 130.789 96 132.5C96 134.211 96.4278 135.794 97.2833 137.25C98.1388 138.706 99.2944 139.861 100.75 140.717C102.206 141.572 103.789 142 105.5 142C107.211 142 108.794 141.572 110.25 140.717C111.706 139.861 112.861 138.706 113.717 137.25C114.572 135.794 115 134.211 115 132.5C115 130.789 114.572 129.206 113.717 127.75C112.861 126.294 111.706 125.139 110.25 124.283ZM101.344 125.337C102.608 124.596 103.993 124.226 105.5 124.226C106.981 124.226 108.36 124.596 109.637 125.337C110.914 126.077 111.923 127.08 112.663 128.344C113.404 129.608 113.774 130.993 113.774 132.5C113.774 134.007 113.404 135.392 112.663 136.656C111.923 137.92 110.92 138.923 109.656 139.663C108.392 140.404 107.007 140.774 105.5 140.774C103.993 140.774 102.608 140.404 101.344 139.663C100.079 138.923 99.0771 137.92 98.3365 136.656C97.5959 135.392 97.2256 134.007 97.2256 132.5C97.2256 130.993 97.5959 129.608 98.3365 128.344C99.0771 127.08 100.079 126.077 101.344 125.337ZM104.58 136.177V131.581H104.121C103.993 131.581 103.884 131.536 103.795 131.447C103.706 131.357 103.661 131.249 103.661 131.121V130.815C103.661 130.687 103.706 130.578 103.795 130.489C103.884 130.4 103.993 130.355 104.121 130.355H105.959C106.087 130.355 106.196 130.4 106.285 130.489C106.374 130.578 106.419 130.687 106.419 130.815V136.177H106.879C107.006 136.177 107.115 136.222 107.204 136.311C107.294 136.401 107.338 136.509 107.338 136.637V136.944C107.338 137.071 107.294 137.18 107.204 137.269C107.115 137.359 107.006 137.403 106.879 137.403H104.121C103.993 137.403 103.884 137.359 103.795 137.269C103.706 137.18 103.661 137.071 103.661 136.944V136.637C103.661 136.509 103.706 136.401 103.795 136.311C103.884 136.222 103.993 136.177 104.121 136.177H104.58ZM106.362 127.348C106.119 127.105 105.832 126.984 105.5 126.984C105.168 126.984 104.881 127.105 104.638 127.348C104.396 127.59 104.274 127.878 104.274 128.21C104.274 128.542 104.396 128.829 104.638 129.072C104.881 129.314 105.168 129.435 105.5 129.435C105.832 129.435 106.119 129.314 106.362 129.072C106.605 128.829 106.726 128.542 106.726 128.21C106.726 127.878 106.605 127.59 106.362 127.348Z"
    fill="#0E47CB"
  />
</svg>
