<svg xmlns="http://www.w3.org/2000/svg" viewBox="0 90 612 612"><circle fill="#FF2423" cx="306" cy="396" r="306"/><path fill="#FFF" d="M443.5 289.9c4.2 4.2 4.2 10.4 0 14.8l-84 84c-4.2 4.2-4.2 10.4 0 14.8l84 84c4.2 4.2 4.2 10.4 0 14.8L412 533.6c-4.2 4.2-10.4 4.2-14.8 0l-84-84c-4.2-4.2-10.4-4.2-14.8 0l-84 84c-4.2 4.2-10.4 4.2-14.8 0l-31.3-31.5c-4.2-4.2-4.2-10.4 0-14.8l84-84c4.2-4.2 4.2-10.4 0-14.8l-84-84c-4.2-4.2-4.2-10.4 0-14.8l31.5-31.3c4.2-4.2 10.4-4.2 14.8 0l84 84c4.2 4.2 10.4 4.2 14.8 0l84-84c4.2-4.2 10.4-4.2 14.8 0l31.3 31.5z"/></svg>