<?xml version="1.0" encoding="UTF-8" ?>
<svg
  width="180px"
  height="89px"
  viewBox="0 0 180 89"
  version="1.1"
  xmlns="http://www.w3.org/2000/svg"
  xmlns:xlink="http://www.w3.org/1999/xlink"
>
    <!-- Generator: Sketch 51.2 (57519) - http://www.bohemiancoding.com/sketch -->
    <title>Logos/EC_logo</title>
    <desc>Created with Sketch.</desc>
    <defs />
    <g
    id="Logos"
    stroke="none"
    stroke-width="1"
    fill="none"
    fill-rule="evenodd"
  >
        <g
      transform="translate(-32.000000, -380.000000)"
      id="Logos/EC_logo-large"
    >
            <g transform="translate(32.000000, 380.000000)">
                <path
          d="M0,32.8474484 C0,32.8474484 53.007874,25.998406 54.5669291,25.7188533 C56.8346457,25.2995241 58.9606299,24.880195 60.8031496,24.3210895 C65.0551181,23.2028785 69.023622,21.3857856 72.5669291,19.0095872 C75.9685039,16.7731652 79.0866142,13.5583085 82.0629921,9.92412272 C84.0472441,7.6877007 86.0314961,4.7523968 88.015748,1.81709289 L88.015748,0.419329129 C85.7480315,3.77396216 83.480315,6.70926607 81.2125984,9.22524084 C78.0944882,12.5798739 74.976378,15.3754014 71.5748031,17.472047 C68.1732283,19.7084691 64.3464567,21.2460092 60.2362205,22.2244438 C58.3937008,22.643773 56.4094488,23.0631021 54.1417323,23.3426549 C52.7244094,23.4824312 51.1653543,23.761984 49.7480315,23.9017604 C49.1811024,24.1813131 0,29.353039 0,29.353039 L0,32.8474484 L0,32.8474484 Z"
          id="Shape"
          fill="#BCBEC0"
        />
                <path
          d="M71.1496063,24.0415367 C67.8897638,25.998406 63.9212598,27.3961698 59.8110236,28.234828 C57.9685039,28.6541572 55.984252,28.9337099 53.7165354,29.0734863 C52.4409449,29.2132627 51.023622,29.2132627 49.7480315,29.353039 C49.0393701,29.353039 48.3307087,29.4928154 47.6220472,29.4928154 C31.3228346,30.8905792 15.1653543,32.4281193 0,33.9656595 L0,37.3202925 C15.3070866,35.5031996 31.6062992,33.5463303 47.7637795,31.7292374 C48.4724409,31.5894611 49.1811024,31.5894611 49.8897638,31.4496847 C51.1653543,31.3099083 52.5826772,31.1701319 53.8582677,31.0303556 C56.1259843,30.7508028 58.2519685,30.3314737 60.0944882,29.9121445 C64.488189,28.9337099 68.4566929,27.3961698 72,25.2995241 C75.4015748,23.2028785 78.3779528,20.4073509 81.6377953,16.9129415 C83.6220472,14.6765195 85.8897638,11.6014392 88.015748,8.80591171 L88.015748,7.6877007 C85.4645669,11.0423337 83.1968504,13.8378613 80.7874016,16.2140597 C77.6692913,19.5686927 74.4094488,22.0846675 71.1496063,24.0415367"
          id="Shape"
          fill="#BCBEC0"
        />
                <path
          d="M80.503937,23.2028785 C77.2440945,26.1381824 73.8425197,28.5143808 70.4409449,30.0519209 C67.0393701,31.7292374 63.3543307,32.8474484 58.9606299,33.5463303 C57.1181102,33.8258831 55.1338583,34.1054358 53.007874,34.2452122 L0,38.5782799 L0,41.9329129 L47.0551181,36.9009634 L53.1496063,36.2020815 C55.4173228,35.9225287 57.4015748,35.642976 59.2440945,35.3634232 C63.7795276,34.524765 67.6062992,33.2667776 71.1496063,31.4496847 C74.6929134,29.6325918 78.2362205,26.6972879 81.496063,23.6222076 C83.7637795,21.525562 85.8897638,18.8698108 88.1574803,15.9345069 L88.1574803,14.8162959 C85.4645669,18.1709289 82.9133858,20.8266801 80.503937,23.2028785"
          id="Shape"
          fill="#BCBEC0"
        />
                <path
          d="M67.6062992,40.8147019 C64.488189,42.4920184 62.2204724,43.470453 57.8267717,44.0295586 C55.1338583,44.3091113 52.4409449,44.4488877 49.7480315,44.5886641 C48.4724409,44.5886641 47.1968504,44.7284404 45.9212598,44.7284404 C37.984252,45.1477696 30.0472441,45.7068751 22.1102362,46.2659806 L0,47.8035207 L0,51.1581537 L22.3937008,49.0615081 C29.6220472,48.3626262 37.984252,47.6637443 46.2047244,46.9648625 L52.1574803,46.5455333 C54.4251969,46.405757 56.4094488,46.1262042 58.1102362,45.9864278 C62.6456693,45.4273223 66.4724409,44.4488877 69.8740157,43.1909003 C73.5590551,41.7931365 77.1023622,39.6964909 80.503937,37.1805161 C83.6220472,34.9440941 88.015748,30.47125 88.015748,30.47125 L88.015748,29.2132627 C85.1811024,32.0087902 83.480315,33.5463303 80.3622047,35.5031996 C76.8188976,38.0191744 70.4409449,39.2771618 67.6062992,40.8147019"
          id="Shape"
          fill="#BCBEC0"
        />
                <path
          d="M68.7401575,47.3841916 C65.3385827,48.3626262 61.6535433,49.0615081 57.2598425,49.3410609 C55.4173228,49.4808372 53.5748031,49.6206136 51.4488189,49.76039 L45.496063,50.0399427 C30.7559055,50.7388246 16.1574803,51.4377065 -7.10542736e-15,52.2763648 L-7.10542736e-15,55.6309978 C15.4488189,54.5127868 30.4724409,53.2547994 45.6377953,52.2763648 L51.5905512,51.8570356 C53.8582677,51.7172593 55.7007874,51.5774829 57.5433071,51.2979301 C62.0787402,50.7388246 65.9055118,50.0399427 69.3070866,48.9217317 C73.1338583,47.6637443 76.8188976,45.9864278 80.2204724,43.7500058 C82.7716535,42.0726893 85.3228346,40.11582 88.015748,37.879398 L88.015748,37.879398 C85.0393701,40.3953728 82.2047244,40.9544783 79.511811,42.6317948 C76.1102362,44.7284404 72.4251969,46.2659806 68.7401575,47.3841916"
          id="Shape"
          fill="#BCBEC0"
        />
                <path
          d="M68.1732283,52.9752466 C64.7716535,53.8139049 61.2283465,54.233234 56.6929134,54.5127868 C54.992126,54.6525632 53.1496063,54.6525632 50.8818898,54.7923395 L45.0708661,54.9321159 C30.3307087,55.4912214 15.3070866,56.1901033 -7.10542736e-15,56.7492088 L-7.10542736e-15,60.1038418 C15.1653543,59.1254072 30.1889764,58.0071962 45.2125984,57.1685379 L51.023622,56.8889852 C53.2913386,56.7492088 55.1338583,56.6094324 56.976378,56.4696561 C61.511811,56.0503269 65.1968504,55.4912214 68.7401575,54.5127868 C72.5669291,53.5343521 76.3937008,52.1365884 79.9370079,50.1797191 C82.6299213,48.7819554 85.4645669,46.9648625 88.2992126,44.8682168 L88.2992126,43.470453 C85.1811024,45.7068751 82.3464567,47.523968 79.3700787,48.9217317 C75.6850394,50.878601 72,52.1365884 68.1732283,52.9752466"
          id="Shape"
          fill="#BCBEC0"
        />
                <path
          d="M67.7480315,58.5663017 C64.3464567,59.1254072 60.8031496,59.5447363 56.2677165,59.8242891 C54.5669291,59.9640655 52.8661417,59.9640655 50.4566929,59.9640655 L0,61.3618292 L0,64.7164623 L44.7874016,62.3402639 L50.5984252,62.0607111 C52.8661417,61.9209347 54.7086614,61.7811584 56.4094488,61.7811584 C60.9448819,61.5016056 64.6299213,60.9425001 68.0314961,60.2436182 C72,59.40496 75.6850394,58.2867489 79.3700787,56.7492088 C82.2047244,55.4912214 85.1811024,54.0934577 88.1574803,52.2763648 L88.1574803,50.878601 C84.8976378,52.6956939 81.9212598,54.233234 78.9448819,55.351445 C75.2598425,56.7492088 71.5748031,57.8674198 67.7480315,58.5663017"
          id="Shape"
          fill="#BCBEC0"
        />
                <path
          d="M67.3228346,64.1573568 C61.0866142,64.996015 54.7086614,65.1357914 48.6141732,65.1357914 C47.1968504,65.1357914 45.7795276,65.1357914 44.3622047,65.2755678 L0,65.9744496 L0,69.3290827 L44.3622047,67.3722134 C45.7795276,67.3722134 47.1968504,67.232437 48.6141732,67.232437 C54.8503937,66.9528843 61.2283465,66.6733315 67.6062992,65.6948969 C71.5748031,65.1357914 75.4015748,64.1573568 78.9448819,62.8993694 C81.9212598,61.9209347 84.8976378,60.6629473 88.015748,59.1254072 L88.015748,57.8674198 C84.7559055,59.40496 81.496063,60.6629473 78.519685,61.5016056 C74.976378,62.759593 71.2913386,63.5982512 67.3228346,64.1573568"
          id="Shape"
          fill="#BCBEC0"
        />
                <path
          d="M67.0393701,69.7484118 C61.2283465,70.1677409 55.2755906,70.1677409 49.6062992,70.1677409 L44.2204724,70.1677409 C29.480315,70.1677409 14.8818898,70.3075173 0.141732283,70.4472937 L0.141732283,73.8019267 C14.3149606,73.3825976 29.3385827,72.8234921 44.3622047,72.404163 C46.2047244,72.404163 47.9055118,72.2643866 49.7480315,72.2643866 C55.5590551,72.1246102 61.511811,71.9848338 67.3228346,71.2859519 C71.4330709,70.8666228 75.1181102,70.1677409 78.6614173,69.3290827 C81.7795276,68.6302008 85.0393701,67.5119898 88.1574803,66.3937788 L88.1574803,65.1357914 C84.8976378,66.2540024 81.496063,67.232437 78.3779528,67.9313189 C74.6929134,68.9097535 71.007874,69.4688591 67.0393701,69.7484118"
          id="Shape"
          fill="#BCBEC0"
        />
                <path
          d="M66.7559055,75.1996905 C64.3464567,75.3394669 61.6535433,75.3394669 58.6771654,75.3394669 L55.2755906,75.3394669 L43.9370079,75.1996905 C36.1417323,75.1996905 28.3464567,75.0599141 21.1181102,75.0599141 L0,75.1996905 L0,78.5543235 L21.1181102,77.995218 C28.3464567,77.8554416 36.1417323,77.5758889 43.9370079,77.4361125 L55.4173228,77.2963361 C58.5354331,77.2963361 62.6456693,77.1565598 66.8976378,76.877007 C71.007874,76.5974542 74.6929134,76.1781251 78.3779528,75.6190196 C81.6377953,75.0599141 84.8976378,74.3610322 88.1574803,73.522374 L88.1574803,72.2643866 C84.7559055,73.1030448 81.3543307,73.6621503 78.0944882,74.0814795 C74.5511811,74.7803614 70.8661417,75.0599141 66.7559055,75.1996905"
          id="Shape"
          fill="#BCBEC0"
        />
                <path
          d="M55.2755906,80.6509692 L43.9370079,80.5111928 C29.3385827,80.23164 14.8818898,79.9520873 0,79.6725345 L0,83.0271676 C14.1732283,82.8873912 29.0551181,82.8873912 43.9370079,82.6078384 L55.2755906,82.4680621 C59.1023622,82.4680621 62.9291339,82.3282857 66.6141732,82.1885093 C74.4094488,81.9089565 81.496063,81.349851 88.015748,80.5111928 L88.015748,79.3929818 C81.496063,80.0918637 74.4094488,80.5111928 66.6141732,80.5111928 C62.7874016,80.6509692 59.1023622,80.6509692 55.2755906,80.6509692"
          id="Shape"
          fill="#BCBEC0"
        />
                <polygon
          id="Shape"
          fill="#BCBEC0"
          points="88.015748 86.886422 0 84.65 0 88.004633 88.015748 88.004633"
        />
                <path
          d="M80.2204724,29.4928154 C76.8188976,32.1485666 74.2677165,34.1054358 70.1574803,35.642976 C66.6141732,37.0407397 62.7874016,37.5998452 58.3937008,38.1589507 C55.5590551,38.5782799 52.5826772,39.1373854 49.8897638,39.2771618 C48.7559055,39.4169381 47.6220472,39.4169381 46.488189,39.5567145 L0,43.0511239 L0,46.405757 L46.488189,41.9329129 L52.5826772,41.3738074 C54.8503937,41.0942547 56.8346457,40.9544783 58.6771654,40.6749255 C63.2125984,39.9760436 67.0393701,38.8578326 70.5826772,37.3202925 C74.1259843,35.7827523 77.8110236,33.1270012 81.2125984,30.3314737 C83.480315,28.3746044 85.7480315,25.998406 88.1574803,23.3426549 L88.1574803,22.0846675 C85.1811024,25.1597477 82.7716535,27.5359461 80.2204724,29.4928154"
          id="Shape"
          fill="#BCBEC0"
        />
                <path
          d="M125.574803,0.559105505 C125.574803,0.559105505 141.448819,25.4393005 144.283465,30.0519209 C147.11811,34.6645413 150.519685,38.1589507 162.283465,40.6749255 C174.047244,43.1909003 179.149606,44.3091113 179.149606,44.3091113 L179.149606,45.1477696 C179.149606,45.1477696 171.637795,43.6102294 162.141732,41.5135838 C152.503937,39.4169381 148.677165,38.7180563 144.283465,32.7076721 C140.598425,27.6757225 125.716535,6.56948969 125.716535,6.56948969 L125.716535,0.559105505 L125.574803,0.559105505 Z"
          id="Shape"
          fill="#BCBEC0"
        />
                <path
          d="M125.574803,29.0734863 C125.574803,29.0734863 140.031496,44.0295586 144.141732,48.2228498 C148.535433,52.6956939 154.204724,54.5127868 162.141732,55.7707742 C169.653543,57.0287616 179.149606,58.5663017 179.149606,58.5663017 L179.149606,59.40496 C179.149606,59.40496 170.220472,58.0071962 162.141732,56.6094324 C154.204724,55.2116687 148.677165,54.5127868 144.141732,50.4592719 C140.031496,46.8250861 125.574803,33.406554 125.574803,33.406554 L125.574803,29.0734863 L125.574803,29.0734863 Z"
          id="Shape"
          fill="#BCBEC0"
        />
                <path
          d="M125.574803,35.7827523 C125.574803,35.7827523 139.322835,48.3626262 144.141732,52.6956939 C148.677165,56.6094324 152.220472,57.8674198 162.141732,59.5447363 C172.062992,61.2220528 179.007874,62.3402639 179.007874,62.3402639 L179.007874,63.1789221 C179.007874,63.1789221 170.07874,61.7811584 162,60.523171 C153.92126,59.2651836 148.818898,58.7060781 144,54.9321159 C138.472441,50.4592719 125.433071,39.8362673 125.433071,39.8362673 L125.433071,35.7827523 L125.574803,35.7827523 Z"
          id="Shape"
          fill="#BCBEC0"
        />
                <path
          d="M125.574803,42.9113475 C125.574803,42.9113475 141.307087,55.2116687 144.141732,57.3083143 C147.11811,59.40496 150.944882,61.9209347 162.141732,63.5982512 C173.338583,65.1357914 179.007874,65.9744496 179.007874,65.9744496 L179.007874,66.9528843 C179.007874,66.9528843 168.944882,65.5551205 162.141732,64.7164623 C155.338583,63.877804 150.23622,63.4584749 144.141732,59.5447363 C138.188976,55.6309978 125.433071,46.8250861 125.433071,46.8250861 L125.433071,42.9113475 L125.574803,42.9113475 Z"
          id="Shape"
          fill="#BCBEC0"
        />
                <path
          d="M125.574803,49.76039 C125.574803,49.76039 141.307087,60.1038418 144.283465,61.7811584 C147.259843,63.4584749 150.80315,66.114226 162.283465,67.5119898 C173.76378,68.9097535 179.149606,69.6086354 179.149606,69.6086354 L179.149606,70.4472937 C179.149606,70.4472937 169.653543,69.4688591 162.283465,68.6302008 C154.913386,67.7915425 149.811024,66.8131079 144.283465,63.7380276 C138.755906,60.8027237 125.716535,53.2547994 125.716535,53.2547994 L125.716535,49.76039 L125.574803,49.76039 Z"
          id="Shape"
          fill="#BCBEC0"
        />
                <path
          d="M125.574803,56.7492088 C125.574803,56.7492088 139.464567,64.1573568 144.141732,66.5335551 C149.385827,69.1893063 153.92126,70.3075173 162.141732,71.2859519 C170.220472,72.2643866 179.007874,73.1030448 179.007874,73.1030448 L179.007874,73.9417031 C179.007874,73.9417031 170.787402,73.1030448 162.141732,72.2643866 C153.496063,71.4257283 150.377953,71.1461756 144.141732,68.350648 C138.614173,65.8346733 125.574803,59.9640655 125.574803,59.9640655 L125.574803,56.7492088 L125.574803,56.7492088 Z"
          id="Shape"
          fill="#BCBEC0"
        />
                <path
          d="M125.574803,63.7380276 C125.574803,63.7380276 136.488189,68.350648 144.283465,71.4257283 C151.937008,74.3610322 157.606299,74.640585 162.283465,75.1996905 C164.267717,75.4792432 179.149606,76.877007 179.149606,76.877007 L179.149606,77.7156653 C179.149606,77.7156653 170.362205,77.0167834 162.283465,76.3179015 C154.204724,75.6190196 150.80315,75.3394669 144.283465,73.2428212 C137.76378,71.1461756 125.574803,66.9528843 125.574803,66.9528843 L125.574803,63.7380276 L125.574803,63.7380276 Z"
          id="Shape"
          fill="#BCBEC0"
        />
                <path
          d="M125.574803,70.7268464 C125.574803,70.7268464 136.629921,74.0814795 144.283465,76.0383487 C151.795276,77.995218 158.740157,78.8338763 162.283465,78.9736526 C165.826772,79.2532054 179.149606,80.23164 179.149606,80.23164 L179.149606,81.0702983 C179.149606,81.0702983 171.496063,80.5111928 162.283465,79.9520873 C154.771654,79.3929818 148.677165,78.8338763 144.283465,77.8554416 C139.322835,76.7372306 125.716535,73.522374 125.716535,73.522374 L125.716535,70.7268464 L125.574803,70.7268464 Z"
          id="Shape"
          fill="#BCBEC0"
        />
                <path
          d="M125.574803,77.8554416 C125.574803,77.8554416 134.645669,79.3929818 144.283465,80.9305219 C151.511811,82.0487329 161.149606,82.8873912 162.283465,82.8873912 C163.275591,82.8873912 179.149606,84.0056022 179.149606,84.0056022 L179.149606,84.8442605 C179.149606,84.8442605 168.944882,84.2851549 162.283465,84.0056022 C155.19685,83.5862731 148.251969,83.1669439 144.283465,82.7476148 C135.354331,81.7691802 125.716535,80.6509692 125.716535,80.6509692 L125.716535,77.8554416 L125.574803,77.8554416 Z"
          id="Shape"
          fill="#BCBEC0"
        />
                <path
          d="M125.574803,85.35 C125.574803,85.35 139.889764,85.9091055 144.283465,85.9091055 C148.677165,86.0488819 179.149606,87.1670929 179.149606,87.1670929 L179.149606,88.0057512 L125.574803,88.0057512 L125.574803,85.35 L125.574803,85.35 Z"
          id="Shape"
          fill="#BCBEC0"
        />
                <path
          d="M162.141732,44.5886641 C149.244094,41.7931365 146.267717,37.1805161 144.141732,34.2452122 C142.015748,31.3099083 125.574803,7.6877007 125.574803,7.6877007 L125.574803,12.999203 C126.283465,13.8378613 140.173228,31.8690138 144.141732,36.9009634 C148.535433,42.4920184 155.480315,43.7500058 162.141732,45.1477696 C168.80315,46.5455333 179.007874,48.5024026 179.007874,48.5024026 L179.007874,47.8035207 C179.149606,47.9432971 165.543307,45.2875459 162.141732,44.5886641"
          id="Shape"
          fill="#BCBEC0"
        />
                <path
          d="M162.141732,48.2228498 C151.511811,46.1262042 147.259843,42.9113475 144.141732,38.8578326 C141.023622,34.8043177 125.574803,14.8162959 125.574803,14.8162959 L125.574803,19.8482454 C126.283465,20.5471273 140.314961,37.1805161 144.141732,41.3738074 C148.535433,46.405757 154.771654,47.6637443 162.141732,49.0615081 C169.653543,50.4592719 179.007874,52.1365884 179.007874,52.1365884 L179.007874,51.4377065 C179.149606,51.4377065 168.23622,49.4808372 162.141732,48.2228498"
          id="Shape"
          fill="#BCBEC0"
        />
                <path
          d="M162.141732,52.1365884 C151.086614,50.0399427 148.818898,48.2228498 144.141732,43.1909003 C141.165354,39.9760436 126.141732,22.5039966 125.574803,21.8051147 L125.574803,26.5575115 C125.574803,26.5575115 139.606299,41.3738074 144.141732,45.7068751 C150.094488,51.4377065 155.622047,51.8570356 162.141732,52.9752466 C168.661417,54.0934577 179.007874,56.0503269 179.007874,56.0503269 L179.007874,55.2116687 C179.149606,55.2116687 166.535433,52.9752466 162.141732,52.1365884"
          id="Shape"
          fill="#BCBEC0"
        />
                <rect
          id="Rectangle-path"
          fill="#004494"
          x="36.5669291"
          y="37.12"
          width="77.1023622"
          height="50.878601"
        />
                <polygon
          id="Shape"
          fill="#FAEA27"
          points="75.9685039 44.1693349 78.6614173 44.1693349 76.5354331 45.7068751 77.3858268 48.3626262 75.2598425 46.8250861 73.1338583 48.3626262 73.984252 45.7068751 71.7165354 44.1693349 74.4094488 44.1693349 75.2598425 41.5135838"
        />
                <polygon
          id="Shape"
          fill="#FAEA27"
          points="76.1102362 77.995218 78.8031496 77.995218 76.6771654 79.6725345 77.5275591 82.1885093 75.4015748 80.6509692 73.1338583 82.1885093 73.984252 79.6725345 71.8582677 77.995218 74.5511811 77.995218 75.4015748 75.6190196"
        />
                <polygon
          id="Shape"
          fill="#FAEA27"
          points="84.6141732 75.758796 87.3070866 75.758796 85.1811024 77.4361125 86.0314961 79.9520873 83.9055118 78.4145471 81.6377953 79.9520873 82.488189 77.4361125 80.3622047 75.758796 83.0551181 75.758796 83.9055118 73.3825976"
        />
                <polygon
          id="Shape"
          fill="#FAEA27"
          points="84.6141732 46.405757 87.3070866 46.405757 85.1811024 47.9432971 86.0314961 50.4592719 83.9055118 48.9217317 81.6377953 50.4592719 82.488189 47.9432971 80.3622047 46.405757 83.0551181 46.405757 83.9055118 43.8897822"
        />
                <polygon
          id="Shape"
          fill="#FAEA27"
          points="90.992126 52.5559175 93.6850394 52.5559175 91.4173228 54.233234 92.2677165 56.7492088 90.1417323 55.2116687 88.015748 56.7492088 88.8661417 54.233234 86.7401575 52.5559175 89.2913386 52.5559175 90.1417323 50.1797191"
        />
                <polygon
          id="Shape"
          fill="#FAEA27"
          points="90.992126 69.6086354 93.6850394 69.6086354 91.4173228 71.2859519 92.2677165 73.8019267 90.1417323 72.2643866 88.015748 73.8019267 88.8661417 71.2859519 86.7401575 69.6086354 89.2913386 69.6086354 90.1417323 67.232437"
        />
                <polygon
          id="Shape"
          fill="#FAEA27"
          points="93.4015748 60.9425001 96.0944882 60.9425001 93.8267717 62.6198166 94.6771654 65.1357914 92.5511811 63.5982512 90.4251969 65.1357914 91.2755906 62.6198166 89.007874 60.9425001 91.7007874 60.9425001 92.5511811 58.5663017"
        />
                <polygon
          id="Shape"
          fill="#FAEA27"
          points="67.3228346 46.405757 70.015748 46.405757 67.8897638 47.9432971 68.7401575 50.5990482 66.6141732 48.9217317 64.3464567 50.5990482 65.1968504 47.9432971 63.0708661 46.405757 65.7637795 46.405757 66.6141732 43.8897822"
        />
                <polygon
          id="Shape"
          fill="#FAEA27"
          points="61.2283465 52.6956939 63.9212598 52.6956939 61.7952756 54.233234 62.503937 56.7492088 60.3779528 55.2116687 58.2519685 56.7492088 59.1023622 54.233234 56.976378 52.6956939 59.6692913 52.6956939 60.3779528 50.1797191"
        />
                <polygon
          id="Shape"
          fill="#FAEA27"
          points="58.9606299 61.0822765 61.6535433 61.0822765 59.3858268 62.6198166 60.2362205 65.1357914 58.1102362 63.5982512 55.984252 65.1357914 56.8346457 62.6198166 54.7086614 61.0822765 57.2598425 61.0822765 58.1102362 58.5663017"
        />
                <polygon
          id="Shape"
          fill="#FAEA27"
          points="61.2283465 69.7484118 63.9212598 69.7484118 61.7952756 71.2859519 62.503937 73.8019267 60.3779528 72.2643866 58.2519685 73.8019267 59.1023622 71.2859519 56.976378 69.7484118 59.6692913 69.7484118 60.3779528 67.232437"
        />
                <polygon
          id="Shape"
          fill="#FAEA27"
          points="67.4645669 75.8985724 70.1574803 75.8985724 68.0314961 77.4361125 68.7401575 79.9520873 66.6141732 78.4145471 64.488189 79.9520873 65.3385827 77.4361125 63.2125984 75.8985724 65.9055118 75.8985724 66.6141732 73.3825976"
        />
            </g>
        </g>
    </g>
</svg>
