<svg
  width="179"
  height="88"
  viewBox="0 0 179 88"
  fill="none"
  xmlns="http://www.w3.org/2000/svg"
>
<path
    d="M114.049 36.613H113.975H37.2402V87.9933H113.975H114.049V36.613Z"
    fill="#003399"
  />
<path
    d="M76.3402 44.3764H79.0154L76.8577 46.0569L77.6979 48.7186L75.5537 47.0786L73.4095 48.7186L74.2497 46.0569L72.0786 44.3764H74.7471L75.5537 41.7819L76.3402 44.3764Z"
    fill="#FFED00"
  />
<path
    d="M76.4344 78.6435H79.1096L76.9587 80.2634L77.7922 82.8244L75.648 81.2448L73.5037 82.8244L74.3507 80.2634L72.1729 78.6435H74.8414L75.648 76.1497L76.4344 78.6435Z"
    fill="#FFED00"
  />
<path
    d="M84.9105 76.3783H87.5924L85.4348 77.9915L86.275 80.5524L84.124 78.9728L81.9798 80.5524L82.8267 77.9915L80.6489 76.3783H83.3174L84.124 73.8778L84.9105 76.3783Z"
    fill="#FFED00"
  />
<path
    d="M84.9105 46.6618H87.5924L85.4348 48.2818L86.275 50.8427L84.124 49.2631L81.9798 50.8427L82.8267 48.2818L80.6489 46.6618H83.3174L84.124 44.1681L84.9105 46.6618Z"
    fill="#FFED00"
  />
<path
    d="M91.2084 52.96H93.8769L91.726 54.5732L92.5595 57.1342L90.4153 55.5546L88.2711 57.1342L89.118 54.5732L86.9402 52.96H89.6087L90.4153 50.4596L91.2084 52.96Z"
    fill="#FFED00"
  />
<path
    d="M91.2084 70.1675H93.8769L91.726 71.7874L92.5595 74.3484L90.4153 72.7688L88.2711 74.3484L89.118 71.7874L86.9402 70.1675H89.6087L90.4153 67.6737L91.2084 70.1675Z"
    fill="#FFED00"
  />
<path
    d="M93.5611 61.4293H96.243L94.0854 63.0492L94.9256 65.6102L92.7747 64.0306L90.6304 65.6102L91.4774 63.0492L89.2996 61.4293H91.9681L92.7747 58.9356L93.5611 61.4293Z"
    fill="#FFED00"
  />
<path
    d="M67.7029 46.6887H70.3714L68.2205 48.3019L69.054 50.8628L66.9098 49.2832L64.7656 50.8628L65.6125 48.3019L63.4414 46.6887H66.1032L66.9098 44.1882L67.7029 46.6887Z"
    fill="#FFED00"
  />
<path
    d="M61.5794 52.9801H64.2613L62.1037 54.5933L62.9372 57.1543L60.793 55.5747L58.6488 57.1543L59.4957 54.5933L57.3179 52.9801H59.9864L60.793 50.4797L61.5794 52.9801Z"
    fill="#FFED00"
  />
<path
    d="M59.3075 61.4562H61.9828L59.8318 63.0694L60.6653 65.6304L58.5211 64.0575L56.3769 65.6304L57.2238 63.0694L55.0527 61.4562H57.7145L58.5211 58.9558L59.3075 61.4562Z"
    fill="#FFED00"
  />
<path
    d="M61.5794 70.1877H64.2613L62.1037 71.8076L62.9372 74.3685L60.793 72.7889L58.6488 74.3685L59.4957 71.8076L57.3179 70.1877H59.9864L60.793 67.6939L61.5794 70.1877Z"
    fill="#FFED00"
  />
<path
    d="M67.7903 76.3985H70.4588L68.3079 78.0117L69.1414 80.5726L66.9972 78.993L64.853 80.5726L65.6999 78.0117L63.5288 76.3985H66.1906L66.9972 73.898L67.7903 76.3985Z"
    fill="#FFED00"
  />
<path
    d="M125.718 0.0067231C125.718 0.0067231 141.493 25.139 144.384 29.7434C147.267 34.3477 150.568 37.9976 162.243 40.4711C173.919 42.9447 179 44.1143 179 44.1143V45.0082C179 45.0082 171.579 43.4287 162.035 41.2979C152.49 39.1671 148.585 38.4479 144.236 32.3917C140.613 27.3504 125.718 4.80599 125.718 4.80599V0V0.0067231Z"
    fill="#6D6E70"
  />
<path
    d="M125.718 28.7082C125.718 28.7082 140.082 43.758 144.236 48.08C148.645 52.6642 154.285 54.358 162.109 55.7561C169.576 57.087 178.993 58.6263 178.993 58.6263V59.4732C178.993 59.4732 170.148 58.0213 162.109 56.6501C154.224 55.2991 148.706 54.5462 144.189 50.3855C140.142 46.6617 125.718 33.131 125.718 33.131V28.7015V28.7082Z"
    fill="#6D6E70"
  />
<path
    d="M125.718 35.4904C125.718 35.4904 139.376 48.1742 144.236 52.5096C148.706 56.4956 152.329 57.7391 162.156 59.48C171.983 61.2209 178.993 62.3031 178.993 62.3031V63.1971C178.993 63.1971 170.101 61.7385 162.109 60.4614C154.117 59.191 149.022 58.6868 144.236 54.8085C138.717 50.3318 125.718 39.6309 125.718 39.6309V35.4837V35.4904Z"
    fill="#6D6E70"
  />
<path
    d="M125.718 42.7162C125.718 42.7162 141.319 55.0975 144.236 57.2619C147.153 59.4262 151.011 61.9536 162.203 63.5735C173.3 65.18 178.993 65.9731 178.993 65.9731V66.9142C178.993 66.9142 168.931 65.4556 162.203 64.6086C155.474 63.7617 150.319 63.3987 144.283 59.3792C138.408 55.4672 125.718 46.5341 125.718 46.5341V42.7162Z"
    fill="#6D6E70"
  />
<path
    d="M125.718 49.6664C125.718 49.6664 141.366 60.0849 144.33 61.7385C147.294 63.3853 150.776 66.0739 162.203 67.5325C173.63 68.9911 178.993 69.6499 178.993 69.6499V70.5438C178.993 70.5438 169.543 69.5087 162.156 68.7088C154.775 67.909 149.741 66.8268 144.236 63.8087C138.731 60.7974 125.718 53.1885 125.718 53.1885V49.6664Z"
    fill="#6D6E70"
  />
<path
    d="M125.718 56.6165C125.718 56.6165 139.551 64.1448 144.236 66.4907C149.458 69.1121 153.975 70.3691 162.156 71.3437C170.188 72.2982 178.993 73.2258 178.993 73.2258V74.0727C178.993 74.0727 170.853 73.1989 162.156 72.3788C153.532 71.5588 150.46 71.1824 144.236 68.4198C138.67 65.9462 125.718 59.9102 125.718 59.9102V56.6098V56.6165Z"
    fill="#6D6E70"
  />
<path
    d="M125.718 63.6608C125.718 63.6608 136.647 68.3391 144.33 71.3907C151.885 74.3886 157.659 74.644 162.25 75.1616C164.273 75.3901 178.993 76.9025 178.993 76.9025V77.7494C178.993 77.7494 170.201 77.0437 162.203 76.3379C154.204 75.6321 150.756 75.3296 144.283 73.1854C137.729 71.0076 125.718 66.82 125.718 66.82V63.6675V63.6608Z"
    fill="#6D6E70"
  />
<path
    d="M125.718 70.8463C125.718 70.8463 136.755 74.2677 144.283 76.2438C151.811 78.22 158.721 79.0266 162.203 79.2551C165.685 79.4904 179 80.5726 179 80.5726V81.3725C179 81.3725 171.425 80.8549 162.156 80.1962C154.661 79.6652 148.645 79.1005 144.236 78.1259C139.356 77.0504 125.718 73.8106 125.718 73.8106V70.8463Z"
    fill="#6D6E70"
  />
<path
    d="M125.718 77.9108C125.718 77.9108 134.745 79.4702 144.283 81.0498C151.435 82.2328 161.121 82.9789 162.156 83.026C163.191 83.073 178.993 84.1552 178.993 84.1552V85.0022C178.993 85.0022 168.877 84.4779 162.156 84.1082C155.152 83.7183 148.188 83.2949 144.236 82.8848C135.377 81.964 125.718 80.7406 125.718 80.7406V77.9108Z"
    fill="#6D6E70"
  />
<path
    d="M125.718 85.224C125.718 85.224 139.954 85.7617 144.283 85.8558C148.612 85.9499 178.993 87.1732 178.993 87.1732V88H125.718V85.224Z"
    fill="#6D6E70"
  />
<path
    d="M162.149 44.3562C149.263 41.5802 146.346 36.8683 144.182 33.9511C142.017 31.0272 125.711 7.19888 125.711 7.19888V11.5814C126.356 12.4216 140.31 31.6859 144.229 36.7271C148.645 42.4069 155.562 43.6975 162.149 45.109C168.729 46.5206 178.993 48.49 178.993 48.49V47.7372C178.993 47.7372 165.483 45.0687 162.149 44.3562Z"
    fill="#6D6E70"
  />
<path
    d="M162.149 48.1271C151.569 46.0568 147.287 42.7095 144.182 38.663C141.076 34.6099 125.711 13.887 125.711 13.887V18.982C126.356 19.7415 140.411 36.8952 144.182 41.2105C148.578 46.2451 154.715 47.5692 162.149 48.9337C169.583 50.2982 178.987 52.0862 178.987 52.0862V51.3334C178.987 51.3334 168.252 49.3236 162.149 48.1338V48.1271Z"
    fill="#6D6E70"
  />
<path
    d="M162.149 52.0324C151.145 49.8949 148.887 48.1405 144.229 43.0388C141.298 39.8326 126.343 22.1748 125.711 21.4287V26.1338C125.711 26.1338 139.685 41.0425 144.182 45.4452C150.077 51.2258 155.609 51.6627 162.149 52.839C168.689 54.0153 178.987 55.8973 178.987 55.8973V55.0975C178.987 55.0975 166.552 52.8928 162.149 52.0391V52.0324Z"
    fill="#6D6E70"
  />
<path
    d="M0.714728 36.9288C0.714728 36.9288 37.1461 33.0437 47.3496 31.612C63.4816 29.3535 76.6829 26.9471 88.8962 8.2273C88.8962 8.2273 88.9097 7.16527 88.8962 6.68803C81.415 18.0678 71.0973 25.8313 56.8877 28.0831C43.0074 30.2878 0.708008 33.5075 0.708008 33.5075V36.9288H0.714728Z"
    fill="#6D6E70"
  />
<path
    d="M0.708008 32.2841C0.708008 32.2841 34.4709 28.0562 45.5953 26.4968C63.1926 24.0367 75.5672 21.8252 88.8895 1.40483C88.8895 1.40483 88.8962 0.524297 88.8895 0.00672913C80.7294 12.4216 70.6536 20.4406 55.1535 22.9007C40.0096 25.3071 0.708008 28.8158 0.708008 28.8158V32.2909V32.2841Z"
    fill="#6D6E70"
  />
<path d="M35.1768 85.2575H0.728271V87.9865H35.1768V85.2575Z" fill="#6D6E70" />
<path
    d="M88.8895 30.0055C88.8895 30.0055 88.9097 28.399 88.9029 28.0562C87.283 30.5231 85.1523 32.7614 82.6921 34.7308H85.1052C86.463 33.3327 87.7334 31.7666 88.8828 30.0055H88.8895Z"
    fill="#6D6E70"
  />
<path
    d="M88.8895 22.7461C88.8895 22.7461 88.903 21.3211 88.8963 20.9313C84.991 26.8732 79.1767 31.6187 72.4551 34.7644L76.4209 34.751C81.005 32.0825 85.2666 28.2915 88.8828 22.7461H88.8895Z"
    fill="#6D6E70"
  />
<path
    d="M88.8895 15.4867C88.8895 15.4867 88.903 14.2432 88.8895 13.813C82.0939 24.1577 71.5275 31.2356 58.6084 33.2857C55.5501 33.7697 50.5693 34.3074 44.782 34.8518L60.5577 34.7981C70.9696 32.4791 80.716 27.9958 88.8761 15.4867H88.8895Z"
    fill="#6D6E70"
  />
<path
    d="M35.1835 80.6599C17.6064 80.754 0.728271 80.828 0.728271 80.828V83.6712C0.728271 83.6712 18.4062 83.5435 35.1835 83.4024V80.6599Z"
    fill="#6D6E70"
  />
<path
    d="M35.1834 75.78C17.7272 75.9749 0.721436 76.1228 0.721436 76.1228V79.0266C0.721436 79.0266 18.5809 78.7913 35.1834 78.5292V75.78Z"
    fill="#6D6E70"
  />
<path
    d="M35.1767 70.8866C17.8482 71.1891 0.721436 71.4176 0.721436 71.4176V74.3819C0.721436 74.3819 18.7691 74.0256 35.1767 73.6358V70.8866Z"
    fill="#6D6E70"
  />
<path
    d="M35.1834 65.9664C17.9827 66.3898 0.721436 66.7058 0.721436 66.7058V69.7238C0.721436 69.7238 18.9775 69.2264 35.1834 68.7088V65.9597V65.9664Z"
    fill="#6D6E70"
  />
<path
    d="M35.1901 61.0327C18.1171 61.5772 0.721436 62.0074 0.721436 62.0074V65.0859C0.721436 65.0859 19.1993 64.4406 35.1901 63.7819V61.0394V61.0327Z"
    fill="#6D6E70"
  />
<path
    d="M35.1834 56.0789C18.2448 56.7645 0.721436 57.3022 0.721436 57.3022V60.4345C0.721436 60.4345 19.4278 59.6144 35.1834 58.8011V56.0721V56.0789Z"
    fill="#6D6E70"
  />
<path
    d="M35.1902 51.0914C18.3794 51.9248 0.714844 52.5903 0.714844 52.5903V55.7831C0.714844 55.7831 19.6699 54.7681 35.1902 53.7935V51.0914Z"
    fill="#6D6E70"
  />
<path
    d="M35.1902 46.077C18.5071 47.0718 0.714844 47.8851 0.714844 47.8851V51.1317C0.714844 51.1317 19.9254 49.8949 35.1902 48.7522V46.077Z"
    fill="#6D6E70"
  />
<path
    d="M35.1902 41.0358C18.6213 42.2053 0.714844 43.1867 0.714844 43.1867V46.4938C0.714844 46.4938 20.1808 45.0016 35.1902 43.6841V41.0425V41.0358Z"
    fill="#6D6E70"
  />
<path
    d="M35.1901 35.9474C18.7221 37.3119 0.708008 38.4748 0.708008 38.4748V41.8356C0.708008 41.8356 20.4361 40.0476 35.1901 38.542V35.9474Z"
    fill="#6D6E70"
  />
</svg>
