<?xml version="1.0" encoding="UTF-8"?>
<svg width="120px" height="60px" viewBox="0 0 120 60" version="1.1" xmlns="http://www.w3.org/2000/svg" xmlns:xlink="http://www.w3.org/1999/xlink">
    <!-- Generator: Sketch 51.2 (57519) - http://www.bohemiancoding.com/sketch -->
    <title>Logos/EC_logo-small</title>
    <desc>Created with Sketch.</desc>
    <defs></defs>
    <g id="Logos" stroke="none" stroke-width="1" fill="none" fill-rule="evenodd">
        <g transform="translate(-752.000000, -408.000000)" id="Logos/EC_logo-small">
            <g transform="translate(752.000000, 408.000000)">
                <path d="M0,22.1100814 C0,22.1100814 35.3385827,17.4402797 36.3779528,17.2496755 C37.8897638,16.9637693 39.3070866,16.6778631 40.5354331,16.2966548 C43.3700787,15.5342382 46.015748,14.2953112 48.3779528,12.6751759 C50.6456693,11.1503428 52.7244094,8.95839503 54.7086614,6.48054109 C56.0314961,4.95570789 57.3543307,2.95436432 58.6771654,0.953020748 L58.6771654,-1.77635684e-15 C57.1653543,2.2872498 55.6535433,4.28859337 54.1417323,6.00403071 C52.0629921,8.29128051 49.984252,10.197322 47.7165354,11.6268531 C45.4488189,13.1516863 42.8976378,14.2000091 40.1574803,14.8671237 C38.9291339,15.1530299 37.6062992,15.4389361 36.0944882,15.6295403 C35.1496063,15.7248423 34.1102362,15.9154465 33.1653543,16.0107486 C32.7874016,16.2013527 0,19.7275295 0,19.7275295 L0,22.1100814 L0,22.1100814 Z" id="Shape" fill="#BCBEC0"></path>
                <path d="M47.4330709,16.1060506 C45.2598425,17.4402797 42.6141732,18.3933004 39.8740157,18.9651129 C38.6456693,19.2510191 37.3228346,19.4416233 35.8110236,19.5369253 C34.9606299,19.6322274 34.015748,19.6322274 33.1653543,19.7275295 C32.6929134,19.7275295 32.2204724,19.8228316 31.7480315,19.8228316 C20.8818898,20.7758523 10.1102362,21.8241751 0,22.872498 L0,25.1597477 C10.2047244,23.9208208 21.0708661,22.5865917 31.8425197,21.3476648 C32.3149606,21.2523627 32.7874016,21.2523627 33.2598425,21.1570606 C34.1102362,21.0617585 35.0551181,20.9664565 35.9055118,20.8711544 C37.4173228,20.6805502 38.8346457,20.394644 40.0629921,20.1087378 C42.992126,19.4416233 45.6377953,18.3933004 48,16.9637693 C50.2677165,15.5342382 52.2519685,13.6281967 54.4251969,11.2456448 C55.7480315,9.72081163 57.2598425,7.62416598 58.6771654,5.71812449 L58.6771654,4.95570789 C56.976378,7.24295768 55.4645669,9.14899918 53.8582677,10.7691345 C51.7795276,13.0563842 49.6062992,14.7718216 47.4330709,16.1060506" id="Shape" fill="#BCBEC0"></path>
                <path d="M53.6692913,15.5342382 C51.496063,17.5355818 49.2283465,19.155717 46.9606299,20.2040399 C44.6929134,21.3476648 42.2362205,22.1100814 39.3070866,22.5865917 C38.0787402,22.7771959 36.7559055,22.9678 35.3385827,23.0631021 L0,26.0174664 L0,28.3047162 L31.3700787,24.8738415 L35.4330709,24.3973311 C36.9448819,24.206727 38.2677165,24.0161228 39.496063,23.8255187 C42.519685,23.2537062 45.0708661,22.3959876 47.4330709,21.1570606 C49.7952756,19.9181336 52.1574803,17.9167901 54.3307087,15.8201444 C55.8425197,14.3906133 57.2598425,12.5798739 58.7716535,10.5785303 L58.7716535,9.8161137 C56.976378,12.1033635 55.2755906,13.9141029 53.6692913,15.5342382" id="Shape" fill="#BCBEC0"></path>
                <path d="M45.0708661,27.5422996 C42.992126,28.6859245 41.480315,29.353039 38.5511811,29.7342473 C36.7559055,29.9248515 34.9606299,30.0201536 33.1653543,30.1154556 C32.3149606,30.1154556 31.4645669,30.2107577 30.6141732,30.2107577 C25.3228346,30.4966639 20.0314961,30.8778722 14.7401575,31.2590805 L0,32.3074034 L0,34.5946532 L14.9291339,33.165122 C19.7480315,32.6886117 25.3228346,32.2121013 30.8031496,31.7355909 L34.7716535,31.4496847 C36.2834646,31.3543826 37.6062992,31.1637785 38.7401575,31.0684764 C41.7637795,30.6872681 44.3149606,30.0201536 46.5826772,29.1624349 C49.0393701,28.2094141 51.4015748,26.779883 53.6692913,25.0644457 C55.7480315,23.5396125 58.6771654,20.4899461 58.6771654,20.4899461 L58.6771654,19.6322274 C56.7874016,21.5382689 55.6535433,22.5865917 53.5748031,23.9208208 C51.2125984,25.6362581 46.9606299,26.4939768 45.0708661,27.5422996" id="Shape" fill="#BCBEC0"></path>
                <path d="M45.8267717,32.0214971 C43.5590551,32.6886117 41.1023622,33.165122 38.1732283,33.3557262 C36.9448819,33.4510283 35.7165354,33.5463303 34.2992126,33.6416324 L30.3307087,33.8322366 C20.503937,34.3087469 10.7716535,34.7852573 -7.10542736e-15,35.3570697 L-7.10542736e-15,37.6443195 C10.2992126,36.8819029 20.3149606,36.0241843 30.4251969,35.3570697 L34.3937008,35.0711635 C35.9055118,34.9758614 37.1338583,34.8805594 38.3622047,34.6899552 C41.3858268,34.3087469 43.9370079,33.8322366 46.2047244,33.06982 C48.7559055,32.2121013 51.2125984,31.0684764 53.480315,29.5436432 C55.1811024,28.4000183 56.8818898,27.0657892 58.6771654,25.540956 L58.6771654,25.540956 C56.6929134,27.2563934 54.8031496,27.6376017 53.007874,28.7812266 C50.7401575,30.2107577 48.2834646,31.2590805 45.8267717,32.0214971" id="Shape" fill="#BCBEC0"></path>
                <path d="M45.4488189,35.8335801 C43.1811024,36.4053926 40.8188976,36.6912988 37.7952756,36.8819029 C36.6614173,36.977205 35.4330709,36.977205 33.9212598,37.0725071 L30.0472441,37.1678092 C20.2204724,37.5490175 10.2047244,38.0255278 -7.10542736e-15,38.4067361 L-7.10542736e-15,40.6939859 C10.1102362,40.0268714 20.1259843,39.2644548 30.1417323,38.6926424 L34.015748,38.5020382 C35.5275591,38.4067361 36.7559055,38.3114341 37.984252,38.216132 C41.007874,37.9302258 43.4645669,37.5490175 45.8267717,36.8819029 C48.3779528,36.2147884 50.9291339,35.2617677 53.2913386,33.9275386 C55.0866142,32.9745179 56.976378,31.7355909 58.8661417,30.3060598 L58.8661417,29.353039 C56.7874016,30.8778722 54.8976378,32.1167992 52.9133858,33.06982 C50.4566929,34.404049 48,35.2617677 45.4488189,35.8335801" id="Shape" fill="#BCBEC0"></path>
                <path d="M45.1653543,39.6456631 C42.8976378,40.0268714 40.5354331,40.3127776 37.511811,40.5033818 C36.3779528,40.5986839 35.2440945,40.5986839 33.6377953,40.5986839 L0,41.5517046 L0,43.8389544 L29.8582677,42.2188191 L33.7322835,42.028215 C35.2440945,41.9329129 36.4724409,41.8376108 37.6062992,41.8376108 C40.6299213,41.6470067 43.0866142,41.2657984 45.3543307,40.789288 C48,40.2174756 50.4566929,39.455059 52.9133858,38.4067361 C54.8031496,37.5490175 56.7874016,36.5959967 58.7716535,35.3570697 L58.7716535,34.404049 C56.5984252,35.642976 54.6141732,36.6912988 52.6299213,37.4537154 C50.1732283,38.4067361 47.7165354,39.1691527 45.1653543,39.6456631" id="Shape" fill="#BCBEC0"></path>
                <path d="M44.8818898,43.4577461 C40.7244094,44.0295586 36.4724409,44.1248606 32.4094488,44.1248606 C31.4645669,44.1248606 30.519685,44.1248606 29.5748031,44.2201627 L0,44.6966731 L0,46.9839229 L29.5748031,45.6496938 C30.519685,45.6496938 31.4645669,45.5543918 32.4094488,45.5543918 C36.5669291,45.3637876 40.8188976,45.1731835 45.0708661,44.5060689 C47.7165354,44.1248606 50.2677165,43.4577461 52.6299213,42.6000274 C54.6141732,41.9329129 56.5984252,41.0751942 58.6771654,40.0268714 L58.6771654,39.1691527 C56.503937,40.2174756 54.3307087,41.0751942 52.3464567,41.6470067 C49.984252,42.5047254 47.5275591,43.0765378 44.8818898,43.4577461" id="Shape" fill="#BCBEC0"></path>
                <path d="M44.6929134,47.2698291 C40.8188976,47.5557353 36.8503937,47.5557353 33.0708661,47.5557353 L29.480315,47.5557353 C19.6535433,47.5557353 9.92125984,47.6510374 0.094488189,47.7463395 L0.094488189,50.0335893 C9.54330709,49.747683 19.5590551,49.3664747 29.5748031,49.0805685 C30.8031496,49.0805685 31.9370079,48.9852664 33.1653543,48.9852664 C37.0393701,48.8899644 41.007874,48.7946623 44.8818898,48.3181519 C47.6220472,48.0322457 50.0787402,47.5557353 52.4409449,46.9839229 C54.519685,46.5074125 56.6929134,45.7449959 58.7716535,44.9825793 L58.7716535,44.1248606 C56.5984252,44.8872772 54.3307087,45.5543918 52.2519685,46.0309021 C49.7952756,46.6980166 47.3385827,47.0792249 44.6929134,47.2698291" id="Shape" fill="#BCBEC0"></path>
                <path d="M44.503937,50.98661 C42.8976378,51.0819121 41.1023622,51.0819121 39.1181102,51.0819121 L36.8503937,51.0819121 L29.2913386,50.98661 C24.0944882,50.98661 18.8976378,50.8913079 14.0787402,50.8913079 L0,50.98661 L0,53.2738598 L14.0787402,52.8926515 C18.8976378,52.7973494 24.0944882,52.6067453 29.2913386,52.5114432 L36.9448819,52.4161411 C39.023622,52.4161411 41.7637795,52.3208391 44.5984252,52.1302349 C47.3385827,51.9396308 49.7952756,51.6537245 52.2519685,51.2725162 C54.4251969,50.8913079 56.5984252,50.4147976 58.7716535,49.8429851 L58.7716535,48.9852664 C56.503937,49.5570789 54.2362205,49.9382872 52.0629921,50.2241934 C49.7007874,50.7007038 47.2440945,50.8913079 44.503937,50.98661" id="Shape" fill="#BCBEC0"></path>
                <path d="M36.8503937,54.7033909 L29.2913386,54.6080889 C19.5590551,54.4174847 9.92125984,54.2268806 0,54.0362764 L0,56.3235262 C9.4488189,56.2282241 19.3700787,56.2282241 29.2913386,56.03762 L36.8503937,55.9423179 C39.4015748,55.9423179 41.9527559,55.8470158 44.4094488,55.7517138 C49.6062992,55.5611096 54.3307087,55.1799013 58.6771654,54.6080889 L58.6771654,53.8456723 C54.3307087,54.3221826 49.6062992,54.6080889 44.4094488,54.6080889 C41.8582677,54.7033909 39.4015748,54.7033909 36.8503937,54.7033909" id="Shape" fill="#BCBEC0"></path>
                <polygon id="Shape" fill="#BCBEC0" points="58.6771654 59.2248332 0 57.7 0 59.9872498 58.6771654 59.9872498"></polygon>
                <path d="M53.480315,19.8228316 C51.2125984,21.633571 49.511811,22.9678 46.7716535,24.0161228 C44.4094488,24.9691436 41.8582677,25.3503519 38.9291339,25.7315602 C37.0393701,26.0174664 35.0551181,26.3986747 33.2598425,26.4939768 C32.503937,26.5892789 31.7480315,26.5892789 30.992126,26.6845809 L0,29.0671328 L0,31.3543826 L30.992126,28.3047162 L35.0551181,27.9235079 C36.5669291,27.7329038 37.8897638,27.6376017 39.1181102,27.4469975 C42.1417323,26.9704872 44.6929134,26.2080706 47.0551181,25.1597477 C49.4173228,24.1114249 51.8740157,22.3006855 54.1417323,20.394644 C55.6535433,19.060415 57.1653543,17.4402797 58.7716535,15.6295403 L58.7716535,14.7718216 C56.7874016,16.8684672 55.1811024,18.4886025 53.480315,19.8228316" id="Shape" fill="#BCBEC0"></path>
                <path d="M83.7165354,0.0953020748 C83.7165354,0.0953020748 94.2992126,17.0590714 96.1889764,20.2040399 C98.0787402,23.3490083 100.346457,25.7315602 108.188976,27.4469975 C116.031496,29.1624349 119.433071,29.9248515 119.433071,29.9248515 L119.433071,30.4966639 C119.433071,30.4966639 114.425197,29.4483411 108.094488,28.01881 C101.669291,26.5892789 99.1181102,26.1127685 96.1889764,22.0147793 C93.7322835,18.5839046 83.8110236,4.19329129 83.8110236,4.19329129 L83.8110236,0.0953020748 L83.7165354,0.0953020748 Z" id="Shape" fill="#BCBEC0"></path>
                <path d="M83.7165354,19.5369253 C83.7165354,19.5369253 93.3543307,29.7342473 96.0944882,32.5933096 C99.023622,35.642976 102.80315,36.8819029 108.094488,37.7396216 C113.102362,38.5973403 119.433071,39.6456631 119.433071,39.6456631 L119.433071,40.2174756 C119.433071,40.2174756 113.480315,39.2644548 108.094488,38.3114341 C102.80315,37.3584133 99.1181102,36.8819029 96.0944882,34.1181428 C93.3543307,31.6402888 83.7165354,22.4912897 83.7165354,22.4912897 L83.7165354,19.5369253 L83.7165354,19.5369253 Z" id="Shape" fill="#BCBEC0"></path>
                <path d="M83.7165354,24.1114249 C83.7165354,24.1114249 92.8818898,32.6886117 96.0944882,35.642976 C99.1181102,38.3114341 101.480315,39.1691527 108.094488,40.3127776 C114.708661,41.4564025 119.338583,42.2188191 119.338583,42.2188191 L119.338583,42.7906316 C119.338583,42.7906316 113.385827,41.8376108 108,40.9798922 C102.614173,40.1221735 99.2125984,39.7409652 96,37.1678092 C92.3149606,34.1181428 83.6220472,26.8751851 83.6220472,26.8751851 L83.6220472,24.1114249 L83.7165354,24.1114249 Z" id="Shape" fill="#BCBEC0"></path>
                <path d="M83.7165354,28.9718307 C83.7165354,28.9718307 94.2047244,37.3584133 96.0944882,38.7879444 C98.0787402,40.2174756 100.629921,41.9329129 108.094488,43.0765378 C115.559055,44.1248606 119.338583,44.6966731 119.338583,44.6966731 L119.338583,45.3637876 C119.338583,45.3637876 112.629921,44.4107669 108.094488,43.8389544 C103.559055,43.267142 100.15748,42.9812357 96.0944882,40.3127776 C92.1259843,37.6443195 83.6220472,31.6402888 83.6220472,31.6402888 L83.6220472,28.9718307 L83.7165354,28.9718307 Z" id="Shape" fill="#BCBEC0"></path>
                <path d="M83.7165354,33.6416324 C83.7165354,33.6416324 94.2047244,40.6939859 96.1889764,41.8376108 C98.1732283,42.9812357 100.535433,44.7919752 108.188976,45.7449959 C115.84252,46.6980166 119.433071,47.174527 119.433071,47.174527 L119.433071,47.7463395 C119.433071,47.7463395 113.102362,47.0792249 108.188976,46.5074125 C103.275591,45.9356001 99.8740157,45.2684855 96.1889764,43.1718399 C92.503937,41.1704963 83.8110236,36.0241843 83.8110236,36.0241843 L83.8110236,33.6416324 L83.7165354,33.6416324 Z" id="Shape" fill="#BCBEC0"></path>
                <path d="M83.7165354,38.4067361 C83.7165354,38.4067361 92.976378,43.4577461 96.0944882,45.0778814 C99.5905512,46.8886208 102.614173,47.6510374 108.094488,48.3181519 C113.480315,48.9852664 119.338583,49.5570789 119.338583,49.5570789 L119.338583,50.1288913 C119.338583,50.1288913 113.858268,49.5570789 108.094488,48.9852664 C102.330709,48.413454 100.251969,48.2228498 96.0944882,46.3168084 C92.4094488,44.601371 83.7165354,40.5986839 83.7165354,40.5986839 L83.7165354,38.4067361 L83.7165354,38.4067361 Z" id="Shape" fill="#BCBEC0"></path>
                <path d="M83.7165354,43.1718399 C83.7165354,43.1718399 90.992126,46.3168084 96.1889764,48.413454 C101.291339,50.4147976 105.070866,50.6054017 108.188976,50.98661 C109.511811,51.1772142 119.433071,52.1302349 119.433071,52.1302349 L119.433071,52.7020474 C119.433071,52.7020474 113.574803,52.225537 108.188976,51.7490266 C102.80315,51.2725162 100.535433,51.0819121 96.1889764,49.652381 C91.8425197,48.2228498 83.7165354,45.3637876 83.7165354,45.3637876 L83.7165354,43.1718399 L83.7165354,43.1718399 Z" id="Shape" fill="#BCBEC0"></path>
                <path d="M83.7165354,47.9369436 C83.7165354,47.9369436 91.0866142,50.2241934 96.1889764,51.5584225 C101.19685,52.8926515 105.826772,53.464464 108.188976,53.559766 C110.551181,53.7503702 119.433071,54.4174847 119.433071,54.4174847 L119.433071,54.9892972 C119.433071,54.9892972 114.330709,54.6080889 108.188976,54.2268806 C103.181102,53.8456723 99.1181102,53.464464 96.1889764,52.7973494 C92.8818898,52.0349328 83.8110236,49.8429851 83.8110236,49.8429851 L83.8110236,47.9369436 L83.7165354,47.9369436 Z" id="Shape" fill="#BCBEC0"></path>
                <path d="M83.7165354,52.7973494 C83.7165354,52.7973494 89.7637795,53.8456723 96.1889764,54.8939951 C101.007874,55.6564117 107.433071,56.2282241 108.188976,56.2282241 C108.850394,56.2282241 119.433071,56.9906407 119.433071,56.9906407 L119.433071,57.5624532 C119.433071,57.5624532 112.629921,57.1812449 108.188976,56.9906407 C103.464567,56.7047345 98.8346457,56.4188283 96.1889764,56.1329221 C90.2362205,55.4658075 83.8110236,54.7033909 83.8110236,54.7033909 L83.8110236,52.7973494 L83.7165354,52.7973494 Z" id="Shape" fill="#BCBEC0"></path>
                <path d="M83.7165354,58.18 C83.7165354,58.18 93.2598425,58.5612083 96.1889764,58.5612083 C99.1181102,58.6565104 119.433071,59.418927 119.433071,59.418927 L119.433071,59.9907394 L83.7165354,59.9907394 L83.7165354,58.18 L83.7165354,58.18 Z" id="Shape" fill="#BCBEC0"></path>
                <path d="M108.094488,30.1154556 C99.496063,28.2094141 97.511811,25.0644457 96.0944882,23.0631021 C94.6771654,21.0617585 83.7165354,4.95570789 83.7165354,4.95570789 L83.7165354,8.57718673 C84.1889764,9.14899918 93.4488189,21.4429668 96.0944882,24.8738415 C99.023622,28.6859245 103.653543,29.5436432 108.094488,30.4966639 C112.535433,31.4496847 119.338583,32.7839137 119.338583,32.7839137 L119.338583,32.3074034 C119.433071,32.4027054 110.362205,30.591966 108.094488,30.1154556" id="Shape" fill="#BCBEC0"></path>
                <path d="M108.094488,32.5933096 C101.007874,31.1637785 98.1732283,28.9718307 96.0944882,26.2080706 C94.015748,23.4443104 83.7165354,9.8161137 83.7165354,9.8161137 L83.7165354,13.2469884 C84.1889764,13.7234988 93.5433071,25.0644457 96.0944882,27.9235079 C99.023622,31.3543826 103.181102,32.2121013 108.094488,33.165122 C113.102362,34.1181428 119.338583,35.2617677 119.338583,35.2617677 L119.338583,34.7852573 C119.433071,34.7852573 112.15748,33.4510283 108.094488,32.5933096" id="Shape" fill="#BCBEC0"></path>
                <path d="M108.094488,35.2617677 C100.724409,33.8322366 99.2125984,32.5933096 96.0944882,29.1624349 C94.1102362,26.9704872 84.0944882,15.0577278 83.7165354,14.5812174 L83.7165354,17.821488 C83.7165354,17.821488 93.0708661,27.9235079 96.0944882,30.8778722 C100.062992,34.7852573 103.748031,35.0711635 108.094488,35.8335801 C112.440945,36.5959967 119.338583,37.9302258 119.338583,37.9302258 L119.338583,37.3584133 C119.433071,37.3584133 111.023622,35.8335801 108.094488,35.2617677" id="Shape" fill="#BCBEC0"></path>
                <rect id="Rectangle-path" fill="#004494" x="24.3779528" y="25.3" width="51.4015748" height="34.6899552"></rect>
                <polygon id="Shape" fill="#FAEA27" points="50.6456693 29.8295494 52.4409449 29.8295494 51.023622 30.8778722 51.5905512 32.6886117 50.1732283 31.6402888 48.7559055 32.6886117 49.3228346 30.8778722 47.8110236 29.8295494 49.6062992 29.8295494 50.1732283 28.01881"></polygon>
                <polygon id="Shape" fill="#FAEA27" points="50.7401575 52.8926515 52.5354331 52.8926515 51.1181102 54.0362764 51.6850394 55.7517138 50.2677165 54.7033909 48.7559055 55.7517138 49.3228346 54.0362764 47.9055118 52.8926515 49.7007874 52.8926515 50.2677165 51.2725162"></polygon>
                <polygon id="Shape" fill="#FAEA27" points="56.4094488 51.3678183 58.2047244 51.3678183 56.7874016 52.5114432 57.3543307 54.2268806 55.9370079 53.1785577 54.4251969 54.2268806 54.992126 52.5114432 53.5748031 51.3678183 55.3700787 51.3678183 55.9370079 49.747683"></polygon>
                <polygon id="Shape" fill="#FAEA27" points="56.4094488 31.3543826 58.2047244 31.3543826 56.7874016 32.4027054 57.3543307 34.1181428 55.9370079 33.06982 54.4251969 34.1181428 54.992126 32.4027054 53.5748031 31.3543826 55.3700787 31.3543826 55.9370079 29.6389453"></polygon>
                <polygon id="Shape" fill="#FAEA27" points="60.6614173 35.5476739 62.4566929 35.5476739 60.9448819 36.6912988 61.511811 38.4067361 60.0944882 37.3584133 58.6771654 38.4067361 59.2440945 36.6912988 57.8267717 35.5476739 59.5275591 35.5476739 60.0944882 33.9275386"></polygon>
                <polygon id="Shape" fill="#FAEA27" points="60.6614173 47.174527 62.4566929 47.174527 60.9448819 48.3181519 61.511811 50.0335893 60.0944882 48.9852664 58.6771654 50.0335893 59.2440945 48.3181519 57.8267717 47.174527 59.5275591 47.174527 60.0944882 45.5543918"></polygon>
                <polygon id="Shape" fill="#FAEA27" points="62.2677165 41.2657984 64.0629921 41.2657984 62.5511811 42.4094233 63.1181102 44.1248606 61.7007874 43.0765378 60.2834646 44.1248606 60.8503937 42.4094233 59.3385827 41.2657984 61.1338583 41.2657984 61.7007874 39.6456631"></polygon>
                <polygon id="Shape" fill="#FAEA27" points="44.8818898 31.3543826 46.6771654 31.3543826 45.2598425 32.4027054 45.8267717 34.2134449 44.4094488 33.06982 42.8976378 34.2134449 43.4645669 32.4027054 42.0472441 31.3543826 43.8425197 31.3543826 44.4094488 29.6389453"></polygon>
                <polygon id="Shape" fill="#FAEA27" points="40.8188976 35.642976 42.6141732 35.642976 41.1968504 36.6912988 41.6692913 38.4067361 40.2519685 37.3584133 38.8346457 38.4067361 39.4015748 36.6912988 37.984252 35.642976 39.7795276 35.642976 40.2519685 33.9275386"></polygon>
                <polygon id="Shape" fill="#FAEA27" points="39.3070866 41.3611005 41.1023622 41.3611005 39.5905512 42.4094233 40.1574803 44.1248606 38.7401575 43.0765378 37.3228346 44.1248606 37.8897638 42.4094233 36.4724409 41.3611005 38.1732283 41.3611005 38.7401575 39.6456631"></polygon>
                <polygon id="Shape" fill="#FAEA27" points="40.8188976 47.2698291 42.6141732 47.2698291 41.1968504 48.3181519 41.6692913 50.0335893 40.2519685 48.9852664 38.8346457 50.0335893 39.4015748 48.3181519 37.984252 47.2698291 39.7795276 47.2698291 40.2519685 45.5543918"></polygon>
                <polygon id="Shape" fill="#FAEA27" points="44.976378 51.4631204 46.7716535 51.4631204 45.3543307 52.5114432 45.8267717 54.2268806 44.4094488 53.1785577 42.992126 54.2268806 43.5590551 52.5114432 42.1417323 51.4631204 43.9370079 51.4631204 44.4094488 49.747683"></polygon>
            </g>
        </g>
    </g>
</svg>