<svg
  width="211"
  height="44"
  viewBox="0 0 211 44"
  fill="none"
  xmlns="http://www.w3.org/2000/svg"
>
<rect x="0.878418" y="0.880005" width="63.2432" height="42.24" fill="#003399" />
<path
    fill-rule="evenodd"
    clip-rule="evenodd"
    d="M30.3392 7.74403L31.6743 8.72083L31.1649 10.3136L32.5 9.32803L33.8352 10.3136L33.3257 8.72083L34.6608 7.74403H33.0095L32.5 6.16003L31.9906 7.74403H30.3392ZM33.8352 37.84L33.3257 36.256L34.6608 35.2792H33.0095L32.5 33.6864L31.9906 35.2792H30.3392L31.6743 36.256L31.1649 37.84L32.5 36.8632L33.8352 37.84ZM18.85 23.056L17.5149 24.0416L18.0243 22.4576L16.6892 21.5072H18.3406L18.85 19.9232L19.3595 21.5072H21.0196L19.6757 22.4928L20.1852 24.0768L18.85 23.0912V23.056ZM27.0102 12.144L26.5007 10.56L27.8358 9.59203H26.1845L25.675 8.00803L25.1656 9.59203H23.5142L24.8493 10.5688L24.3399 12.1528L25.675 11.176L27.0102 12.144ZM20.2027 14.6256L20.7122 13.0416L21.2304 14.6256H22.8379L21.5027 15.6112L22.0122 17.1952L20.6683 16.2096L19.3243 17.1952L19.8338 15.6112L18.4987 14.6256H20.2027ZM20.7122 26.8048L20.2027 28.3888H18.5162H18.4987L19.8338 29.3744L19.3243 30.9584L20.6683 29.9816L22.0122 30.9584L21.5027 29.3744L22.8379 28.3888H21.2304L20.7122 26.8048ZM24.8493 34.408L23.5142 33.44H25.1656L25.675 31.856L26.1845 33.44H27.8358L26.5007 34.408L27.0102 35.992L25.675 35.0152L24.3399 35.992L24.8493 34.408ZM47.4852 24.0768L46.9757 22.4928L48.3108 21.5072H46.6946L46.1852 19.9232L45.6757 21.5072H43.9629L45.3068 22.4928L44.7973 24.0768L46.15 23.0912L47.4852 24.0768ZM38.4993 10.56L37.1642 9.59203H38.8156L39.325 8.00803L39.8345 9.59203H41.4858L40.1507 10.56L40.6602 12.144L39.325 11.176L37.9899 12.1528L38.4993 10.5688V10.56ZM44.2879 13.0328L43.7696 14.6168L42.1622 14.6256L43.4885 15.6112L42.9791 17.1952L44.323 16.2096L45.6581 17.1952L45.1487 15.6112L46.4487 14.6168H44.7973L44.2879 13.0328ZM44.8412 28.3888H46.4487L45.1487 29.3744L45.6581 30.9584L44.323 29.9816L42.9791 30.9584L43.4885 29.3744L42.1622 28.3888H43.8135L44.3318 26.8048L44.8412 28.3888ZM40.1507 34.408L41.4858 33.44H39.8345L39.325 31.856L38.8156 33.44H37.1642L38.4993 34.408L37.9899 35.992L39.325 35.0152L40.6602 35.992L40.1507 34.408Z"
    fill="#FFCC00"
  />
<path
    fill-rule="evenodd"
    clip-rule="evenodd"
    d="M65 44H0V0H65V44ZM64.1216 0.88H0.878378V43.12H64.1216V0.88Z"
    fill="white"
  />
<path
    d="M74.6821 25.2472H77.2213V32.0672C77.2018 32.7726 77.2341 33.4785 77.3179 34.1792C77.4161 34.6733 77.6911 35.1145 78.0911 35.42C78.585 35.754 79.1741 35.9178 79.7692 35.8864C80.3475 35.9236 80.9218 35.769 81.4035 35.4464C81.7617 35.1689 82.0031 34.767 82.08 34.32C82.1661 33.6106 82.2013 32.896 82.1854 32.1816V25.2472H84.7334V31.8648C84.7667 32.9368 84.6961 34.0096 84.5225 35.068C84.4054 35.6505 84.1458 36.1947 83.7669 36.652C83.3601 37.1078 82.8512 37.4606 82.2821 37.6816C81.5073 37.9574 80.6878 38.0858 79.8659 38.06C78.9367 38.1046 78.0079 37.964 77.1334 37.6464C76.5641 37.4053 76.0588 37.0347 75.6573 36.564C75.3226 36.1675 75.0795 35.7017 74.9457 35.2C74.7435 34.1359 74.6552 33.0532 74.6821 31.9704V25.2472Z"
    fill="white"
  />
<path
    d="M95.1537 37.84H92.7375V33.176C92.7688 32.5357 92.7186 31.894 92.5882 31.2664C92.4942 30.9946 92.3195 30.7582 92.0874 30.5888C91.8265 30.4195 91.5192 30.3364 91.2087 30.3512C90.8076 30.3471 90.4148 30.4669 90.0841 30.6944C89.7697 30.9069 89.5324 31.2157 89.4076 31.5744C89.2526 32.2611 89.1905 32.9656 89.2231 33.6688V37.84H86.842V28.7144H89.0825V30.0608C89.7724 29.0851 90.8936 28.5072 92.0874 28.512C92.5885 28.5054 93.0854 28.6043 93.5459 28.8024C93.9363 28.9567 94.281 29.2081 94.5475 29.5328C94.7689 29.8355 94.9272 30.1796 95.0131 30.5448C95.1229 31.0802 95.1701 31.6265 95.1537 32.1728V37.84Z"
    fill="white"
  />
<path
    fill-rule="evenodd"
    clip-rule="evenodd"
    d="M97.157 25.2472V27.4824H99.5644V25.2472H97.157ZM97.157 28.7144V37.8488L99.5644 37.84V28.7144H97.157Z"
    fill="white"
  />
<path
    fill-rule="evenodd"
    clip-rule="evenodd"
    d="M101.638 30.8264C101.25 31.5394 101.045 32.3376 101.04 33.1496C101.008 34.0626 101.201 34.9696 101.603 35.7896C101.994 36.5191 102.611 37.1024 103.36 37.4528C104.101 37.8263 104.92 38.0193 105.75 38.016C107.012 38.0506 108.232 37.5562 109.115 36.652C110.005 35.7362 110.484 34.4971 110.442 33.22C110.482 31.9552 110.007 30.7285 109.124 29.8232C108.23 28.9204 107.001 28.4323 105.732 28.4768C104.888 28.4694 104.054 28.672 103.307 29.0664C102.582 29.4659 101.999 30.0808 101.638 30.8264ZM104.16 35.3584C103.691 34.772 103.459 34.031 103.509 33.2816C103.459 32.5322 103.691 31.7912 104.16 31.2048C104.558 30.7476 105.135 30.4852 105.741 30.4852C106.347 30.4852 106.924 30.7476 107.323 31.2048C107.786 31.7866 108.015 32.5214 107.964 33.264C108.019 34.0178 107.79 34.7649 107.323 35.3584C106.924 35.8156 106.347 36.078 105.741 36.078C105.135 36.078 104.558 35.8156 104.16 35.3584Z"
    fill="white"
  />
<path
    d="M120.185 37.84H117.734V33.176C117.765 32.5357 117.715 31.894 117.585 31.2664C117.491 30.9946 117.316 30.7582 117.084 30.5888C116.823 30.4195 116.516 30.3364 116.205 30.3512C115.804 30.3471 115.411 30.4669 115.081 30.6944C114.766 30.9069 114.529 31.2157 114.404 31.5744C114.249 32.2611 114.187 32.9656 114.22 33.6688V37.84H111.803V28.7144H114.044V30.0608C114.734 29.0851 115.855 28.5072 117.049 28.512C117.55 28.5054 118.047 28.6043 118.507 28.8024C118.898 28.9567 119.242 29.2081 119.509 29.5328C119.729 29.8371 119.89 30.1805 119.983 30.5448C120.085 31.0812 120.129 31.627 120.115 32.1728L120.185 37.84Z"
    fill="white"
  />
<path
    d="M74.6821 18.7704V6.16003H84.0394V8.29843H77.2477V11.0968H83.5649V13.2H77.2477V16.6232H84.2766V18.7528L74.6821 18.7704Z"
    fill="white"
  />
<path
    d="M92.1665 18.7705V17.3977C91.8337 17.8859 91.3835 18.2824 90.8574 18.5505C90.3156 18.8349 89.7118 18.9801 89.1001 18.9729C88.5238 18.9834 87.9547 18.8439 87.4483 18.5681C86.9792 18.3195 86.6077 17.9194 86.394 17.4329C86.1648 16.787 86.0663 16.102 86.1041 15.4177V9.68005H88.5202V13.8777C88.4848 14.6662 88.5289 15.4564 88.652 16.2361C88.7292 16.5138 88.9 16.7563 89.1353 16.9225C89.3945 17.0969 89.7017 17.1861 90.0139 17.1777C90.4069 17.1816 90.7911 17.0615 91.1122 16.8345C91.423 16.6376 91.6607 16.3438 91.7887 15.9985C91.9465 15.1873 92.0056 14.3599 91.9644 13.5345V9.68005H94.3806V18.7705H92.1665Z"
    fill="white"
  />
<path
    d="M98.9406 18.7704H96.5332V9.67999H98.7737V10.9824C99.0316 10.5101 99.3847 10.0966 99.8104 9.76799C100.12 9.57205 100.481 9.47111 100.847 9.47759C101.409 9.47899 101.96 9.63747 102.437 9.93519L101.691 12.0384C101.359 11.7987 100.965 11.6611 100.557 11.6424C100.241 11.6318 99.9302 11.7313 99.6786 11.924C99.3975 12.1985 99.2047 12.5509 99.1251 12.936C98.9501 13.9438 98.8823 14.9674 98.923 15.9896L98.9406 18.7704Z"
    fill="white"
  />
<path
    fill-rule="evenodd"
    clip-rule="evenodd"
    d="M103.246 11.7569C102.861 12.4705 102.658 13.2688 102.657 14.0801C102.616 14.9974 102.803 15.9107 103.202 16.7377C103.597 17.4641 104.213 18.0463 104.959 18.4009C105.7 18.7744 106.519 18.9673 107.349 18.9641C108.609 18.9984 109.825 18.5039 110.705 17.6001C111.589 16.6844 112.064 15.4495 112.023 14.1769C112.064 12.9121 111.588 11.6853 110.705 10.7801C109.824 9.87756 108.609 9.38063 107.349 9.40727C106.504 9.3934 105.669 9.59637 104.924 9.99687C104.199 10.3986 103.613 11.0127 103.246 11.7569ZM105.767 16.2889C105.301 15.7016 105.072 14.9604 105.126 14.2121V14.2033C105.075 13.4579 105.303 12.7202 105.767 12.1353C106.168 11.6776 106.746 11.4152 107.353 11.4152C107.961 11.4152 108.539 11.6776 108.939 12.1353C109.403 12.7171 109.632 13.4519 109.581 14.1945C109.635 14.9483 109.407 15.6954 108.939 16.2889C108.539 16.7465 107.961 17.0089 107.353 17.0089C106.746 17.0089 106.168 16.7465 105.767 16.2889Z"
    fill="white"
  />
<path
    fill-rule="evenodd"
    clip-rule="evenodd"
    d="M115.828 9.68006H113.578L113.57 22.2377H115.977V17.6441C116.338 18.0564 116.765 18.4046 117.242 18.6737C117.67 18.8778 118.139 18.9802 118.613 18.9729C119.669 18.9873 120.676 18.5252 121.354 17.7145C122.137 16.7139 122.533 15.4641 122.47 14.1945C122.546 12.9409 122.151 11.7042 121.363 10.7273C120.697 9.9257 119.707 9.46679 118.666 9.47766C118.086 9.46886 117.515 9.6179 117.014 9.90886C116.531 10.1761 116.123 10.5604 115.828 11.0265V9.68006ZM116.592 16.3593C116.131 15.6931 115.914 14.8881 115.977 14.0801C115.929 13.357 116.137 12.64 116.566 12.0561C116.926 11.6184 117.466 11.3691 118.033 11.3785C118.591 11.3708 119.119 11.6288 119.456 12.0737C119.887 12.696 120.089 13.4486 120.027 14.2033C120.094 14.9836 119.9 15.7639 119.474 16.4209C119.137 16.8483 118.621 17.0953 118.077 17.0897C117.495 17.0918 116.946 16.8216 116.592 16.3593Z"
    fill="white"
  />
<path
    fill-rule="evenodd"
    clip-rule="evenodd"
    d="M131.88 16.2361L129.481 15.8401C129.405 16.2289 129.212 16.5851 128.928 16.8609C128.652 17.0688 128.315 17.1774 127.97 17.1689C127.443 17.1794 126.937 16.9612 126.582 16.5705C126.187 16.1052 125.98 15.5088 126.002 14.8985H132.038C132.184 13.4337 131.783 11.9666 130.913 10.7801C130.1 9.87336 128.922 9.38201 127.706 9.44249C126.569 9.41475 125.475 9.88365 124.71 10.7273C123.881 11.7062 123.457 12.9654 123.524 14.2473C123.475 15.3616 123.783 16.4624 124.403 17.3889C125.241 18.4633 126.56 19.0476 127.917 18.9465C128.804 18.9809 129.679 18.7379 130.421 18.2513C131.115 17.7582 131.628 17.05 131.88 16.2361ZM129.077 11.8009C129.45 12.2454 129.645 12.8133 129.622 13.3937H126.02C125.981 12.8267 126.16 12.2663 126.52 11.8273C126.851 11.4529 127.33 11.2436 127.829 11.2553C128.304 11.2502 128.758 11.4488 129.077 11.8009Z"
    fill="white"
  />
<path
    fill-rule="evenodd"
    clip-rule="evenodd"
    d="M133.593 12.0296L135.781 12.4256C135.867 12.0661 136.063 11.7428 136.343 11.5016C136.646 11.3162 136.999 11.2272 137.354 11.2464C137.805 11.1971 138.261 11.3026 138.645 11.5456C138.898 11.8077 139.024 12.1682 138.988 12.5312V12.7776C138.226 13.0477 137.441 13.2451 136.642 13.3672C135.983 13.4762 135.34 13.6654 134.726 13.9304C134.302 14.1361 133.945 14.4599 133.698 14.8632C133.076 15.9376 133.256 17.2979 134.138 18.172C134.747 18.7089 135.542 18.984 136.352 18.9376C136.868 18.9429 137.38 18.841 137.854 18.6384C138.347 18.4304 138.797 18.1319 139.181 17.7584C139.184 17.7753 139.193 17.7957 139.204 17.8207C139.228 17.8737 139.26 17.947 139.26 18.0488C139.36 18.3597 139.439 18.5973 139.497 18.7616H141.878C141.685 18.3703 141.54 17.9565 141.448 17.5296C141.356 16.9477 141.318 16.3585 141.334 15.7696V12.9448C141.386 12.2109 141.275 11.4746 141.009 10.7888C140.75 10.3526 140.359 10.0104 139.893 9.81199C139.128 9.52027 138.311 9.39139 137.494 9.43359C136.572 9.37938 135.655 9.59986 134.858 10.0672C134.22 10.553 133.773 11.2474 133.593 12.0296ZM137.538 14.7576C138.206 14.608 138.698 14.4848 139.005 14.388V14.8896C139.022 15.2851 138.989 15.6812 138.909 16.0688C138.813 16.3923 138.612 16.6743 138.338 16.8696C137.978 17.1422 137.541 17.2932 137.09 17.3008C136.734 17.3123 136.388 17.1789 136.132 16.9312C135.889 16.704 135.751 16.3846 135.754 16.0512C135.748 15.695 135.928 15.3615 136.229 15.1712C136.642 14.9673 137.083 14.8278 137.538 14.7576Z"
    fill="white"
  />
<path
    d="M151.93 18.7705H149.522V14.0801C149.557 13.4393 149.504 12.7968 149.364 12.1705C149.277 11.8952 149.101 11.6569 148.863 11.4929C148.604 11.3207 148.296 11.2373 147.985 11.2553C147.584 11.2511 147.191 11.3709 146.86 11.5985C146.541 11.806 146.302 12.1165 146.184 12.4785C146.029 13.1651 145.967 13.8696 145.999 14.5729V18.7089H143.583V9.68006H145.85V11.0265C146.539 10.0496 147.66 9.47132 148.855 9.47766C149.356 9.47181 149.852 9.57072 150.313 9.76806C150.703 9.9223 151.048 10.1737 151.315 10.4985C151.536 10.8011 151.694 11.1453 151.78 11.5105C151.882 12.0469 151.926 12.5926 151.912 13.1385L151.93 18.7705Z"
    fill="white"
  />
</svg>
