<svg
  width="211"
  height="44"
  viewBox="0 0 211 44"
  fill="none"
  xmlns="http://www.w3.org/2000/svg"
>
<rect x="0.878418" y="0.879997" width="63.2432" height="42.24" fill="#003399" />
<path
    fill-rule="evenodd"
    clip-rule="evenodd"
    d="M30.3392 7.744L31.6743 8.7208L31.1649 10.3136L32.5 9.328L33.8352 10.3136L33.3257 8.7208L34.6608 7.744H33.0095L32.5 6.16L31.9906 7.744H30.3392ZM33.8352 37.84L33.3257 36.256L34.6608 35.2792H33.0095L32.5 33.6864L31.9906 35.2792H30.3392L31.6743 36.256L31.1649 37.84L32.5 36.8632L33.8352 37.84ZM18.85 23.056L17.5149 24.0416L18.0243 22.4576L16.6892 21.5072H18.3406L18.85 19.9232L19.3595 21.5072H21.0196L19.6757 22.4928L20.1852 24.0768L18.85 23.0912V23.056ZM27.0102 12.144L26.5007 10.56L27.8358 9.592H26.1845L25.675 8.008L25.1656 9.592H23.5142L24.8493 10.5688L24.3399 12.1528L25.675 11.176L27.0102 12.144ZM20.2027 14.6256L20.7122 13.0416L21.2304 14.6256H22.8379L21.5027 15.6112L22.0122 17.1952L20.6683 16.2096L19.3243 17.1952L19.8338 15.6112L18.4987 14.6256H20.2027ZM20.7122 26.8048L20.2027 28.3888H18.5162H18.4987L19.8338 29.3744L19.3243 30.9584L20.6683 29.9816L22.0122 30.9584L21.5027 29.3744L22.8379 28.3888H21.2304L20.7122 26.8048ZM24.8493 34.408L23.5142 33.44H25.1656L25.675 31.856L26.1845 33.44H27.8358L26.5007 34.408L27.0102 35.992L25.675 35.0152L24.3399 35.992L24.8493 34.408ZM47.4852 24.0768L46.9757 22.4928L48.3108 21.5072H46.6946L46.1852 19.9232L45.6757 21.5072H43.9629L45.3068 22.4928L44.7973 24.0768L46.15 23.0912L47.4852 24.0768ZM38.4993 10.56L37.1642 9.592H38.8156L39.325 8.008L39.8345 9.592H41.4858L40.1507 10.56L40.6602 12.144L39.325 11.176L37.9899 12.1528L38.4993 10.5688V10.56ZM44.2879 13.0328L43.7696 14.6168L42.1622 14.6256L43.4885 15.6112L42.9791 17.1952L44.323 16.2096L45.6581 17.1952L45.1487 15.6112L46.4487 14.6168H44.7973L44.2879 13.0328ZM44.8412 28.3888H46.4487L45.1487 29.3744L45.6581 30.9584L44.323 29.9816L42.9791 30.9584L43.4885 29.3744L42.1622 28.3888H43.8135L44.3318 26.8048L44.8412 28.3888ZM40.1507 34.408L41.4858 33.44H39.8345L39.325 31.856L38.8156 33.44H37.1642L38.4993 34.408L37.9899 35.992L39.325 35.0152L40.6602 35.992L40.1507 34.408Z"
    fill="#FFCC00"
  />
<path
    fill-rule="evenodd"
    clip-rule="evenodd"
    d="M65 44H0V0H65V44ZM64.1216 0.88H0.878378V43.12H64.1216V0.88Z"
    fill="white"
  />
<path
    fill-rule="evenodd"
    clip-rule="evenodd"
    d="M74.9806 37.8448V25.2468H84.3401V27.3772H77.5296V30.1704H83.8666V32.2929H77.5296V35.7223H84.5816V37.8448H74.9806Z"
    fill="white"
  />
<path
    fill-rule="evenodd"
    clip-rule="evenodd"
    d="M92.497 37.8448V36.4782C92.1637 36.9648 91.7264 37.3494 91.1842 37.6301C90.6419 37.9108 90.0688 38.0508 89.4657 38.0508C88.852 38.0508 88.3009 37.917 87.8133 37.6468C87.3249 37.3776 86.9713 37 86.7535 36.5125C86.5357 36.0259 86.4264 35.3527 86.4264 34.4929V28.7184H88.8458V32.9124C88.8458 34.1955 88.8908 34.9822 88.9799 35.2708C89.068 35.5604 89.2311 35.79 89.4657 35.9581C89.7011 36.1271 90 36.2124 90.3615 36.2124C90.775 36.2124 91.1454 36.0989 91.4725 35.8728C91.7996 35.6457 92.0236 35.3659 92.1443 35.0306C92.2643 34.6953 92.3251 33.8743 92.3251 32.5684V28.7184H94.7445V37.8448H92.497Z"
    fill="white"
  />
<path
    fill-rule="evenodd"
    clip-rule="evenodd"
    d="M99.302 37.8448H96.8826V28.7184H99.1301V30.0164C99.5145 29.403 99.8601 28.9991 100.167 28.8046C100.475 28.6092 100.824 28.5124 101.214 28.5124C101.765 28.5124 102.296 28.6638 102.807 28.9674L102.057 31.0732C101.65 30.8092 101.271 30.6772 100.921 30.6772C100.582 30.6772 100.295 30.7705 100.059 30.9571C99.8249 31.1428 99.6397 31.4798 99.5039 31.9664C99.369 32.454 99.302 33.4739 99.302 35.0262V37.8448Z"
    fill="white"
  />
<path
    fill-rule="evenodd"
    clip-rule="evenodd"
    d="M105.504 33.2816C105.504 34.1871 105.719 34.8797 106.15 35.361C106.581 35.8424 107.111 36.0835 107.743 36.0835C108.374 36.0835 108.903 35.8424 109.332 35.361C109.759 34.8797 109.973 34.181 109.973 33.264C109.973 32.3708 109.759 31.6835 109.332 31.2022C108.903 30.7208 108.374 30.4797 107.743 30.4797C107.111 30.4797 106.581 30.7208 106.15 31.2022C105.719 31.6835 105.504 32.3761 105.504 33.2816M103.024 33.1531C103.024 32.3506 103.222 31.5744 103.618 30.8238C104.015 30.0731 104.576 29.5002 105.302 29.1051C106.028 28.71 106.839 28.512 107.734 28.512C109.118 28.512 110.251 28.9599 111.136 29.8566C112.02 30.7534 112.462 31.8868 112.462 33.2561C112.462 34.6368 112.016 35.7808 111.122 36.689C110.229 37.5971 109.106 38.0512 107.752 38.0512C106.914 38.0512 106.113 37.862 105.353 37.4836C104.593 37.1061 104.015 36.5517 103.618 35.8213C103.222 35.0909 103.024 34.2012 103.024 33.1531"
    fill="white"
  />
<path
    fill-rule="evenodd"
    clip-rule="evenodd"
    d="M116.381 33.1269C116.381 34.153 116.585 34.9098 116.992 35.3999C117.399 35.8901 117.897 36.1347 118.482 36.1347C119.045 36.1347 119.513 35.9103 119.886 35.4598C120.258 35.0101 120.445 34.2727 120.445 33.2475C120.445 32.29 120.253 31.5799 119.868 31.1161C119.484 30.6515 119.008 30.42 118.439 30.42C117.847 30.42 117.356 30.6479 116.966 31.1029C116.577 31.5587 116.381 32.2328 116.381 33.1269V33.1269ZM113.987 28.7181H116.243V30.0592C116.536 29.6007 116.932 29.2285 117.431 28.9416C117.931 28.6547 118.485 28.5122 119.093 28.5122C120.155 28.5122 121.057 28.9275 121.797 29.7583C122.537 30.589 122.907 31.7462 122.907 33.2299C122.907 34.754 122.534 35.9385 121.789 36.7833C121.042 37.629 120.138 38.0514 119.076 38.0514C118.57 38.0514 118.114 37.9511 117.703 37.7504C117.292 37.5498 116.861 37.2057 116.407 36.7191V41.3171H113.987V28.7181Z"
    fill="white"
  />
<path
    fill-rule="evenodd"
    clip-rule="evenodd"
    d="M130.085 32.4995C130.067 31.8008 129.886 31.2693 129.542 30.905C129.198 30.5415 128.779 30.3594 128.285 30.3594C127.757 30.3594 127.321 30.5521 126.977 30.9358C126.632 31.3195 126.463 31.8404 126.468 32.4995H130.085ZM129.947 34.9398L132.358 35.3437C132.048 36.2263 131.559 36.8987 130.89 37.3589C130.221 37.82 129.385 38.0515 128.379 38.0515C126.79 38.0515 125.614 37.5323 124.85 36.4956C124.247 35.6649 123.945 34.6168 123.945 33.3505C123.945 31.8378 124.341 30.6533 125.134 29.7971C125.926 28.9408 126.927 28.5123 128.139 28.5123C129.499 28.5123 130.573 28.9602 131.359 29.8569C132.145 30.7536 132.522 32.1273 132.487 33.9779H126.426C126.442 34.6943 126.638 35.2504 127.011 35.6491C127.384 36.0477 127.849 36.2466 128.406 36.2466C128.784 36.2466 129.103 36.1436 129.362 35.9368C129.62 35.7309 129.815 35.3983 129.947 34.9398V34.9398Z"
    fill="white"
  />
<path
    fill-rule="evenodd"
    clip-rule="evenodd"
    d="M139.505 33.4621C139.194 33.565 138.704 33.6882 138.032 33.8317C137.36 33.9751 136.921 34.115 136.715 34.2523C136.399 34.4758 136.241 34.7601 136.241 35.1033C136.241 35.4421 136.367 35.7342 136.62 35.9798C136.873 36.2262 137.194 36.3494 137.584 36.3494C138.021 36.3494 138.437 36.2068 138.833 35.9199C139.125 35.7017 139.318 35.4359 139.41 35.1209C139.473 34.9141 139.505 34.5225 139.505 33.9434V33.4621ZM136.267 31.5023L134.071 31.1072C134.318 30.2254 134.743 29.5725 135.346 29.1483C135.949 28.7242 136.844 28.5121 138.032 28.5121C139.111 28.5121 139.915 28.6397 140.443 28.8949C140.971 29.1492 141.343 29.473 141.558 29.8655C141.773 30.258 141.881 30.9787 141.881 32.0268L141.855 34.8454C141.855 35.648 141.894 36.2394 141.972 36.6204C142.049 37.0014 142.194 37.4098 142.406 37.8445H140.012C139.95 37.6843 139.872 37.4467 139.78 37.1317C139.74 36.9882 139.711 36.8941 139.694 36.8483C139.281 37.2487 138.839 37.5497 138.368 37.7503C137.897 37.951 137.395 38.0513 136.861 38.0513C135.92 38.0513 135.178 37.7961 134.636 37.2866C134.093 36.7762 133.822 36.132 133.822 35.3523C133.822 34.8366 133.944 34.3773 134.192 33.9734C134.439 33.5694 134.784 33.2606 135.229 33.045C135.674 32.8302 136.316 32.6428 137.154 32.4826C138.284 32.2706 139.068 32.0726 139.505 31.8895V31.6484C139.505 31.1846 139.39 30.8538 139.16 30.6566C138.931 30.4586 138.497 30.3601 137.86 30.3601C137.429 30.3601 137.094 30.4446 136.852 30.6135C136.612 30.7825 136.416 31.079 136.267 31.5023V31.5023Z"
    fill="white"
  />
<path
    fill-rule="evenodd"
    clip-rule="evenodd"
    d="M152.478 37.8448H150.059V33.187C150.059 32.2014 150.007 31.5643 149.903 31.2748C149.8 30.9861 149.632 30.7608 149.4 30.6007C149.167 30.4396 148.888 30.3596 148.561 30.3596C148.141 30.3596 147.765 30.4748 147.432 30.7036C147.099 30.9324 146.871 31.236 146.748 31.6144C146.624 31.9928 146.563 32.6916 146.563 33.7115V37.8448H144.143V28.7184H146.391V30.0586C147.189 29.0272 148.193 28.5124 149.404 28.5124C149.938 28.5124 150.426 28.6075 150.868 28.8002C151.31 28.992 151.645 29.2367 151.871 29.535C152.097 29.8324 152.256 30.1704 152.345 30.5488C152.433 30.9272 152.478 31.4684 152.478 32.1732V37.8448Z"
    fill="white"
  />
<path
    fill-rule="evenodd"
    clip-rule="evenodd"
    d="M159.537 33.4621C159.227 33.565 158.736 33.6882 158.065 33.8317C157.393 33.9751 156.954 34.115 156.747 34.2523C156.432 34.4758 156.274 34.7601 156.274 35.1033C156.274 35.4421 156.4 35.7342 156.653 35.9798C156.905 36.2262 157.227 36.3494 157.617 36.3494C158.053 36.3494 158.469 36.2068 158.865 35.9199C159.158 35.7017 159.35 35.4359 159.443 35.1209C159.505 34.9141 159.537 34.5225 159.537 33.9434V33.4621ZM159.623 25.0317H160.803C160.734 25.8105 160.46 26.4221 159.981 26.8665C159.501 27.31 158.88 27.5326 158.117 27.5326C157.352 27.5326 156.731 27.31 156.252 26.8665C155.772 26.4221 155.499 25.8105 155.43 25.0317H156.61C156.65 25.4382 156.793 25.7462 157.04 25.9557C157.287 26.1651 157.645 26.269 158.117 26.269C158.587 26.269 158.945 26.1651 159.192 25.9557C159.44 25.7462 159.583 25.4382 159.623 25.0317V25.0317ZM156.299 31.5023L154.104 31.1072C154.351 30.2254 154.776 29.5725 155.378 29.1483C155.981 28.7242 156.876 28.5121 158.065 28.5121C159.144 28.5121 159.948 28.6397 160.475 28.8949C161.003 29.1492 161.375 29.473 161.591 29.8655C161.806 30.258 161.913 30.9787 161.913 32.0268L161.888 34.8454C161.888 35.648 161.927 36.2394 162.004 36.6204C162.082 37.0014 162.226 37.4098 162.439 37.8445H160.045C159.982 37.6843 159.905 37.4467 159.812 37.1317C159.772 36.9882 159.743 36.8941 159.727 36.8483C159.313 37.2487 158.871 37.5497 158.401 37.7503C157.93 37.951 157.427 38.0513 156.894 38.0513C155.953 38.0513 155.21 37.7961 154.668 37.2866C154.125 36.7762 153.854 36.132 153.854 35.3523C153.854 34.8366 153.977 34.3773 154.225 33.9734C154.472 33.5694 154.816 33.2606 155.262 33.045C155.707 32.8302 156.349 32.6428 157.186 32.4826C158.317 32.2706 159.101 32.0726 159.537 31.8895V31.6484C159.537 31.1846 159.422 30.8538 159.192 30.6566C158.963 30.4586 158.529 30.3601 157.893 30.3601C157.461 30.3601 157.126 30.4446 156.885 30.6135C156.644 30.7825 156.448 31.079 156.299 31.5023V31.5023Z"
    fill="white"
  />
<path
    fill-rule="evenodd"
    clip-rule="evenodd"
    d="M74.9557 6.16827H77.5047V12.9918C77.5047 14.0742 77.5365 14.7764 77.5991 15.0968C77.7084 15.6124 77.9676 16.0269 78.3785 16.3393C78.7894 16.6517 79.3493 16.8075 80.0617 16.8075C80.7847 16.8075 81.3296 16.6596 81.6973 16.3648C82.065 16.0692 82.2854 15.7075 82.3604 15.278C82.4353 14.8477 82.4724 14.1349 82.4724 13.1379V6.16827H85.0214V12.7859C85.0214 14.2977 84.9526 15.3669 84.8151 15.9908C84.6767 16.6156 84.4227 17.1428 84.0524 17.5722C83.6821 18.0016 83.1874 18.344 82.5676 18.5992C81.9477 18.8544 81.1383 18.982 80.1393 18.982C78.934 18.982 78.0197 18.8429 77.3972 18.5648C76.7747 18.2868 76.2818 17.926 75.9203 17.4816C75.5588 17.038 75.3198 16.5725 75.2052 16.0859C75.0395 15.3634 74.9557 14.2977 74.9557 12.8888V6.16827Z"
    fill="white"
  />
<path
    fill-rule="evenodd"
    clip-rule="evenodd"
    d="M95.4798 18.7667H93.0604V14.1089C93.0604 13.1233 93.0083 12.4861 92.9052 12.1966C92.802 11.908 92.6336 11.6827 92.4017 11.5225C92.1689 11.3615 91.8894 11.2814 91.5623 11.2814C91.1426 11.2814 90.767 11.3967 90.4337 11.6255C90.1004 11.8543 89.8729 12.1579 89.7495 12.5363C89.6261 12.9147 89.5643 13.6134 89.5643 14.6333V18.7667H87.1449V9.64022H89.3924V10.9805C90.1904 9.9491 91.1946 9.4343 92.4061 9.4343C92.9396 9.4343 93.428 9.52934 93.8698 9.72206C94.3115 9.9139 94.6466 10.1585 94.8732 10.4569C95.0989 10.7543 95.2576 11.0922 95.3467 11.4706C95.4348 11.849 95.4798 12.3902 95.4798 13.0951V18.7667Z"
    fill="white"
  />
<path
    fill-rule="evenodd"
    clip-rule="evenodd"
    d="M97.4927 18.7669H99.9121V9.6404H97.4927V18.7669ZM97.4927 8.40224H99.9121V6.16792H97.4927V8.40224Z"
    fill="white"
  />
<path
    fill-rule="evenodd"
    clip-rule="evenodd"
    d="M107.97 18.7667V17.4001C107.637 17.8867 107.2 18.2713 106.657 18.552C106.115 18.8327 105.542 18.9726 104.939 18.9726C104.325 18.9726 103.774 18.8389 103.286 18.5687C102.798 18.2994 102.444 17.9219 102.227 17.4344C102.009 16.9477 101.9 16.2745 101.9 15.4148V9.64023H104.319V13.8343C104.319 15.1173 104.364 15.9041 104.453 16.1927C104.541 16.4822 104.704 16.7119 104.939 16.88C105.174 17.0489 105.473 17.1343 105.835 17.1343C106.248 17.1343 106.619 17.0208 106.946 16.7946C107.273 16.5676 107.497 16.2877 107.617 15.9525C107.737 15.6172 107.798 14.7961 107.798 13.4902V9.64023H110.218V18.7667H107.97Z"
    fill="white"
  />
<path
    fill-rule="evenodd"
    clip-rule="evenodd"
    d="M120.776 18.7667H118.356V14.1089C118.356 13.1233 118.304 12.4861 118.201 12.1966C118.098 11.908 117.93 11.6827 117.698 11.5225C117.465 11.3615 117.185 11.2814 116.858 11.2814C116.439 11.2814 116.063 11.3967 115.73 11.6255C115.396 11.8543 115.169 12.1579 115.046 12.5363C114.922 12.9147 114.86 13.6134 114.86 14.6333V18.7667H112.441V9.64022H114.688V10.9805C115.486 9.9491 116.491 9.4343 117.702 9.4343C118.236 9.4343 118.724 9.52934 119.166 9.72206C119.608 9.9139 119.943 10.1585 120.169 10.4569C120.395 10.7543 120.554 11.0922 120.643 11.4706C120.731 11.849 120.776 12.3902 120.776 13.0951V18.7667Z"
    fill="white"
  />
<path
    fill-rule="evenodd"
    clip-rule="evenodd"
    d="M128.663 13.4214C128.645 12.7227 128.465 12.1912 128.121 11.8268C127.776 11.4634 127.357 11.2812 126.864 11.2812C126.335 11.2812 125.899 11.474 125.555 11.8576C125.21 12.2413 125.041 12.7623 125.046 13.4214H128.663ZM128.526 15.8616L130.936 16.2656C130.627 17.1482 130.137 17.8205 129.468 18.2808C128.799 18.7419 127.963 18.9733 126.958 18.9733C125.368 18.9733 124.192 18.4541 123.428 17.4175C122.825 16.5868 122.524 15.5387 122.524 14.2724C122.524 12.7596 122.92 11.5752 123.712 10.7189C124.504 9.86269 125.506 9.43413 126.717 9.43413C128.078 9.43413 129.152 9.88205 129.937 10.7788C130.724 11.6755 131.1 13.0492 131.066 14.8998H125.004C125.021 15.6161 125.216 16.1723 125.589 16.5709C125.962 16.9696 126.427 17.1684 126.984 17.1684C127.363 17.1684 127.682 17.0655 127.94 16.8587C128.198 16.6528 128.393 16.3201 128.526 15.8616V15.8616Z"
    fill="white"
  />
<path
    fill-rule="evenodd"
    clip-rule="evenodd"
    d="M138.083 14.384C137.773 14.4869 137.282 14.6101 136.611 14.7536C135.939 14.897 135.5 15.0369 135.293 15.1742C134.978 15.3977 134.82 15.682 134.82 16.0252C134.82 16.364 134.946 16.6561 135.199 16.9016C135.451 17.148 135.773 17.2712 136.163 17.2712C136.599 17.2712 137.015 17.1287 137.411 16.8418C137.704 16.6236 137.896 16.3578 137.989 16.0428C138.051 15.836 138.083 15.4444 138.083 14.8653V14.384ZM134.845 12.4242L132.65 12.0291C132.897 11.1473 133.322 10.4944 133.924 10.0702C134.527 9.64603 135.422 9.43395 136.611 9.43395C137.69 9.43395 138.494 9.56155 139.021 9.81675C139.549 10.0711 139.921 10.3949 140.137 10.7874C140.352 11.1799 140.459 11.9006 140.459 12.9487L140.434 15.7673C140.434 16.5699 140.473 17.1612 140.55 17.5423C140.628 17.9233 140.772 18.3316 140.985 18.7664H138.591C138.528 18.6062 138.451 18.3686 138.358 18.0536C138.318 17.9101 138.289 17.816 138.273 17.7702C137.859 18.1706 137.417 18.4716 136.947 18.6722C136.476 18.8728 135.973 18.9732 135.44 18.9732C134.499 18.9732 133.756 18.718 133.214 18.2084C132.671 17.698 132.4 17.0539 132.4 16.2742C132.4 15.7585 132.523 15.2992 132.771 14.8952C133.018 14.4913 133.362 14.1824 133.808 13.9668C134.253 13.7521 134.895 13.5647 135.732 13.4045C136.863 13.1924 137.647 12.9944 138.083 12.8114V12.5703C138.083 12.1065 137.968 11.7756 137.738 11.5785C137.509 11.3805 137.075 11.282 136.439 11.282C136.008 11.282 135.672 11.3664 135.431 11.5354C135.19 11.7044 134.994 12.0009 134.845 12.4242V12.4242Z"
    fill="white"
  />
</svg>
