<svg
  width="211"
  height="44"
  viewBox="0 0 211 44"
  fill="none"
  xmlns="http://www.w3.org/2000/svg"
>
<rect x="0.878418" y="0.880005" width="63.2432" height="42.24" fill="#003399" />
<path
    fill-rule="evenodd"
    clip-rule="evenodd"
    d="M30.3392 7.74397L31.6743 8.72077L31.1649 10.3136L32.5 9.32797L33.8352 10.3136L33.3257 8.72077L34.6608 7.74397H33.0095L32.5 6.15997L31.9906 7.74397H30.3392ZM33.8352 37.84L33.3257 36.256L34.6608 35.2792H33.0095L32.5 33.6864L31.9906 35.2792H30.3392L31.6743 36.256L31.1649 37.84L32.5 36.8632L33.8352 37.84ZM18.85 23.056L17.5149 24.0416L18.0243 22.4576L16.6892 21.5072H18.3406L18.85 19.9232L19.3595 21.5072H21.0196L19.6757 22.4928L20.1852 24.0768L18.85 23.0912V23.056ZM27.0102 12.144L26.5007 10.56L27.8358 9.59197H26.1845L25.675 8.00797L25.1656 9.59197H23.5142L24.8493 10.5688L24.3399 12.1528L25.675 11.176L27.0102 12.144ZM20.2027 14.6256L20.7122 13.0416L21.2304 14.6256H22.8379L21.5027 15.6112L22.0122 17.1952L20.6683 16.2096L19.3243 17.1952L19.8338 15.6112L18.4987 14.6256H20.2027ZM20.7122 26.8048L20.2027 28.3888H18.5162H18.4987L19.8338 29.3744L19.3243 30.9584L20.6683 29.9816L22.0122 30.9584L21.5027 29.3744L22.8379 28.3888H21.2304L20.7122 26.8048ZM24.8493 34.408L23.5142 33.44H25.1656L25.675 31.856L26.1845 33.44H27.8358L26.5007 34.408L27.0102 35.992L25.675 35.0152L24.3399 35.992L24.8493 34.408ZM47.4852 24.0768L46.9757 22.4928L48.3108 21.5072H46.6946L46.1852 19.9232L45.6757 21.5072H43.9629L45.3068 22.4928L44.7973 24.0768L46.15 23.0912L47.4852 24.0768ZM38.4993 10.56L37.1642 9.59197H38.8156L39.325 8.00797L39.8345 9.59197H41.4858L40.1507 10.56L40.6602 12.144L39.325 11.176L37.9899 12.1528L38.4993 10.5688V10.56ZM44.2879 13.0328L43.7696 14.6168L42.1622 14.6256L43.4885 15.6112L42.9791 17.1952L44.323 16.2096L45.6581 17.1952L45.1487 15.6112L46.4487 14.6168H44.7973L44.2879 13.0328ZM44.8412 28.3888H46.4487L45.1487 29.3744L45.6581 30.9584L44.323 29.9816L42.9791 30.9584L43.4885 29.3744L42.1622 28.3888H43.8135L44.3318 26.8048L44.8412 28.3888ZM40.1507 34.408L41.4858 33.44H39.8345L39.325 31.856L38.8156 33.44H37.1642L38.4993 34.408L37.9899 35.992L39.325 35.0152L40.6602 35.992L40.1507 34.408Z"
    fill="#FFCC00"
  />
<path
    fill-rule="evenodd"
    clip-rule="evenodd"
    d="M65 44H0V0H65V44ZM64.1216 0.88H0.878378V43.12H64.1216V0.88Z"
    fill="white"
  />
<path
    fill-rule="evenodd"
    clip-rule="evenodd"
    d="M74.0253 33.7459L76.4952 33.5056C76.6427 34.3355 76.9448 34.9462 77.3996 35.336C77.8536 35.7259 78.4673 35.9203 79.2382 35.9203C80.0557 35.9203 80.6721 35.747 81.0865 35.4003C81.501 35.0535 81.7082 34.6479 81.7082 34.1841C81.7082 33.8867 81.6204 33.6332 81.4465 33.4238C81.2727 33.2143 80.968 33.0322 80.5334 32.8782C80.2357 32.7743 79.5587 32.5913 78.5016 32.3282C77.1406 31.9894 76.1861 31.5749 75.6374 31.0821C74.8656 30.3887 74.4801 29.5439 74.4801 28.5468C74.4801 27.9053 74.6619 27.3051 75.0245 26.7463C75.3871 26.1875 75.9096 25.7625 76.5936 25.4703C77.2767 25.1782 78.1012 25.0321 79.067 25.0321C80.6449 25.0321 81.8329 25.3788 82.6301 26.0714C83.4274 26.7648 83.8462 27.6906 83.8858 28.8478L81.3482 28.9595C81.2393 28.3119 81.0066 27.8463 80.6493 27.563C80.2919 27.2787 79.7554 27.1371 79.0416 27.1371C78.304 27.1371 77.7271 27.2893 77.3092 27.5929C77.0414 27.7874 76.9061 28.0479 76.9061 28.3743C76.9061 28.6727 77.0326 28.9279 77.2837 29.1399C77.6033 29.4092 78.3813 29.6899 79.6158 29.9821C80.8503 30.2743 81.7635 30.5761 82.3553 30.8885C82.9471 31.2009 83.4099 31.6277 83.7444 32.1689C84.0789 32.7101 84.2466 33.3789 84.2466 34.1753C84.2466 34.8978 84.0464 35.5736 83.646 36.2037C83.2457 36.8338 82.6793 37.3028 81.9479 37.6091C81.2165 37.9153 80.3042 38.0684 79.2128 38.0684C77.6244 38.0684 76.403 37.7006 75.5513 36.964C74.7005 36.2283 74.1903 35.1556 74.0253 33.7459"
    fill="white"
  />
<path
    fill-rule="evenodd"
    clip-rule="evenodd"
    d="M93.5541 37.8451C93.4452 37.9252 93.3469 38.0185 93.2582 38.1241C93.1704 38.2305 93.094 38.3432 93.0308 38.4637C92.9684 38.5843 92.9193 38.7057 92.885 38.8289C92.8508 38.9521 92.8341 39.0709 92.8341 39.1853C92.8341 39.3745 92.8833 39.5338 92.9842 39.6623C93.0843 39.7917 93.2512 39.8559 93.4856 39.8559C93.5883 39.8559 93.7042 39.8374 93.8324 39.8005C93.9615 39.7626 94.0836 39.7274 94.1968 39.6931V41.1275C93.7174 41.3572 93.2854 41.4716 92.9026 41.4716C92.583 41.4716 92.3046 41.4285 92.0711 41.3431C91.8366 41.2569 91.64 41.1398 91.4837 40.9902C91.3265 40.8415 91.2088 40.6681 91.1316 40.4701C91.0543 40.273 91.0157 40.0627 91.0157 39.8392C91.0157 39.5065 91.1166 39.1598 91.316 38.799C91.5162 38.4382 91.7848 38.1197 92.122 37.8451H93.5541ZM91.2132 33.4627C90.9042 33.5657 90.416 33.6889 89.7469 33.8314C89.0778 33.9749 88.6405 34.1157 88.4351 34.2529C88.1207 34.4765 87.9636 34.7598 87.9636 35.1039C87.9636 35.4418 88.0891 35.734 88.3411 35.9804C88.5922 36.2268 88.9127 36.35 89.3008 36.35C89.7355 36.35 90.1499 36.2065 90.5442 35.9197C90.8357 35.7023 91.0271 35.4357 91.1193 35.1206C91.1816 34.9147 91.2132 34.5222 91.2132 33.9432V33.4627ZM87.989 31.5029L85.8027 31.1078C86.0485 30.2252 86.4718 29.5722 87.0715 29.1481C87.6721 28.7239 88.5633 28.5127 89.7469 28.5127C90.8216 28.5127 91.6224 28.6403 92.1475 28.8946C92.6734 29.1498 93.044 29.4737 93.2582 29.8661C93.4724 30.2577 93.5796 30.9785 93.5796 32.0274L93.5541 34.8461C93.5541 35.6477 93.5927 36.2391 93.67 36.6201C93.7473 37.0021 93.8913 37.4095 94.1029 37.8451H91.719C91.6566 37.6849 91.5794 37.4465 91.4872 37.1314C91.4477 36.9889 91.4187 36.8938 91.402 36.8481C90.9902 37.2493 90.5503 37.5503 90.0814 37.7509C89.6125 37.9516 89.1121 38.051 88.5808 38.051C87.644 38.051 86.9046 37.7967 86.3646 37.2863C85.8238 36.7768 85.5542 36.1317 85.5542 35.3529C85.5542 34.8373 85.6762 34.3779 85.923 33.974C86.1688 33.5701 86.5122 33.2603 86.9556 33.0456C87.399 32.8309 88.0382 32.6425 88.8723 32.4824C89.998 32.2712 90.7786 32.0732 91.2132 31.8893V31.649C91.2132 31.1853 91.0991 30.8544 90.8699 30.6564C90.6416 30.4584 90.2096 30.3598 89.5757 30.3598C89.1463 30.3598 88.8126 30.4443 88.5721 30.6133C88.3323 30.7822 88.1374 31.0788 87.989 31.5029V31.5029Z"
    fill="white"
  />
<path
    fill-rule="evenodd"
    clip-rule="evenodd"
    d="M96.3422 27.4806H98.7516V25.2463H96.3422V27.4806ZM98.7525 28.7188V37.5619C98.7525 38.7244 98.677 39.5454 98.5251 40.0232C98.3732 40.502 98.0817 40.876 97.6505 41.1452C97.2194 41.4145 96.6689 41.5492 95.9998 41.5492C95.7592 41.5492 95.5002 41.5272 95.2236 41.4849C94.947 41.4418 94.6476 41.3767 94.328 41.2913L94.7477 39.2286C94.8619 39.2515 94.969 39.27 95.0691 39.2849C95.1701 39.299 95.2622 39.306 95.3483 39.306C95.5941 39.306 95.7952 39.2532 95.9524 39.1468C96.1096 39.0412 96.2141 38.9136 96.2659 38.7648C96.3168 38.6152 96.3422 38.1682 96.3422 37.4237V28.7188H98.7525Z"
    fill="white"
  />
<path
    fill-rule="evenodd"
    clip-rule="evenodd"
    d="M106.828 37.8451V36.4785C106.496 36.9651 106.06 37.3497 105.52 37.6304C104.98 37.9111 104.41 38.051 103.809 38.051C103.198 38.051 102.649 37.9173 102.164 37.6471C101.677 37.3778 101.325 37.0003 101.108 36.5128C100.891 36.0261 100.782 35.3529 100.782 34.4932V28.7186H103.192V32.9127C103.192 34.1957 103.236 34.9825 103.325 35.2711C103.413 35.5606 103.575 35.7903 103.809 35.9584C104.043 36.1273 104.341 36.2127 104.701 36.2127C105.113 36.2127 105.482 36.0992 105.807 35.873C106.133 35.646 106.356 35.3661 106.476 35.0309C106.596 34.6956 106.656 33.8745 106.656 32.5686V28.7186H109.066V37.8451H106.828Z"
    fill="white"
  />
<path
    fill-rule="evenodd"
    clip-rule="evenodd"
    d="M119.405 37.8451H116.996V33.1873C116.996 32.2017 116.944 31.5645 116.841 31.275C116.738 30.9864 116.571 30.7611 116.34 30.6009C116.108 30.4399 115.83 30.3598 115.504 30.3598C115.086 30.3598 114.712 30.4751 114.38 30.7039C114.048 30.9327 113.822 31.2363 113.699 31.6147C113.576 31.9931 113.514 32.6918 113.514 33.7117V37.8451H111.105V28.7186H113.343V30.0589C114.138 29.0275 115.138 28.5127 116.344 28.5127C116.875 28.5127 117.362 28.6077 117.802 28.8005C118.242 28.9923 118.575 29.2369 118.801 29.5353C119.026 29.8327 119.184 30.1706 119.272 30.549C119.36 30.9274 119.405 31.4686 119.405 32.1735V37.8451Z"
    fill="white"
  />
<path
    fill-rule="evenodd"
    clip-rule="evenodd"
    d="M123.427 33.0927C123.427 34.0607 123.614 34.77 123.989 35.2197C124.363 35.6694 124.825 35.8946 125.374 35.8946C125.963 35.8946 126.46 35.6632 126.866 35.2021C127.272 34.7418 127.474 34.0581 127.474 33.1526C127.474 32.2074 127.28 31.5061 126.891 31.0476C126.503 30.5891 126.011 30.3603 125.417 30.3603C124.839 30.3603 124.363 30.5847 123.989 31.0344C123.614 31.4841 123.427 32.1705 123.427 33.0927M121.275 38.4466L124.028 38.7819C124.073 39.1031 124.179 39.3231 124.345 39.4437C124.574 39.6153 124.934 39.7015 125.425 39.7015C126.054 39.7015 126.525 39.6065 126.84 39.4173C127.052 39.2914 127.212 39.0882 127.321 38.8074C127.395 38.6068 127.432 38.2372 127.432 37.6986V36.3672C126.711 37.3519 125.803 37.8447 124.705 37.8447C123.482 37.8447 122.513 37.3264 121.799 36.2898C121.238 35.4705 120.958 34.4506 120.958 33.23C120.958 31.7006 121.325 30.5319 122.059 29.7241C122.794 28.9162 123.708 28.5123 124.799 28.5123C125.926 28.5123 126.854 29.0078 127.586 29.9986V28.7182H129.842V36.9084C129.842 37.9855 129.753 38.7907 129.576 39.3231C129.398 39.8564 129.15 40.2744 128.829 40.578C128.51 40.8816 128.082 41.1192 127.547 41.2908C127.013 41.4633 126.336 41.5486 125.52 41.5486C123.976 41.5486 122.881 41.2838 122.236 40.754C121.59 40.2242 121.267 39.5519 121.267 38.7388C121.267 38.6587 121.269 38.561 121.275 38.4466"
    fill="white"
  />
<path
    fill-rule="evenodd"
    clip-rule="evenodd"
    d="M137.074 33.4623C136.765 33.5652 136.277 33.6884 135.608 33.8319C134.939 33.9753 134.501 34.1152 134.296 34.2525C133.982 34.476 133.824 34.7603 133.824 35.1035C133.824 35.4423 133.95 35.7344 134.202 35.9799C134.453 36.2263 134.774 36.3495 135.162 36.3495C135.596 36.3495 136.011 36.207 136.405 35.9201C136.697 35.7019 136.888 35.4361 136.98 35.1211C137.042 34.9143 137.074 34.5227 137.074 33.9436V33.4623ZM133.85 31.5025L131.664 31.1074C131.909 30.2256 132.333 29.5727 132.932 29.1485C133.533 28.7243 134.424 28.5123 135.608 28.5123C136.682 28.5123 137.483 28.6399 138.008 28.8951C138.534 29.1494 138.905 29.4732 139.119 29.8657C139.333 30.2582 139.44 30.9789 139.44 32.027L139.415 34.8456C139.415 35.6482 139.454 36.2395 139.531 36.6206C139.608 37.0016 139.752 37.4099 139.964 37.8447H137.58C137.517 37.6845 137.44 37.4469 137.348 37.1319C137.309 36.9884 137.28 36.8943 137.263 36.8485C136.851 37.2489 136.411 37.5499 135.942 37.7505C135.473 37.9511 134.973 38.0515 134.442 38.0515C133.505 38.0515 132.765 37.7963 132.225 37.2867C131.685 36.7763 131.415 36.1322 131.415 35.3525C131.415 34.8368 131.537 34.3775 131.784 33.9735C132.03 33.5696 132.373 33.2607 132.816 33.0451C133.26 32.8304 133.899 32.643 134.733 32.4828C135.859 32.2707 136.639 32.0727 137.074 31.8897V31.6486C137.074 31.1848 136.96 30.8539 136.731 30.6568C136.502 30.4588 136.07 30.3603 135.437 30.3603C135.007 30.3603 134.673 30.4447 134.433 30.6137C134.193 30.7827 133.998 31.0792 133.85 31.5025V31.5025Z"
    fill="white"
  />
<path
    fill-rule="evenodd"
    clip-rule="evenodd"
    d="M74.6605 18.7665V6.16846H83.981V8.29894H77.199V11.0921H83.5095V13.2146H77.199V16.644H84.2216V18.7665H74.6605Z"
    fill="white"
  />
<path
    fill-rule="evenodd"
    clip-rule="evenodd"
    d="M92.104 18.7666V17.3999C91.7721 17.8874 91.3365 18.272 90.7965 18.5518C90.2565 18.8326 89.6858 18.9725 89.0852 18.9725C88.4741 18.9725 87.9253 18.8387 87.4398 18.5686C86.9533 18.3002 86.6012 17.9218 86.3843 17.4342C86.1675 16.9485 86.0586 16.2744 86.0586 15.4146V9.64008H88.468V13.8342C88.468 15.1181 88.5127 15.9039 88.6014 16.1926C88.6892 16.4821 88.8517 16.7118 89.0852 16.8798C89.3197 17.0497 89.6173 17.1342 89.9773 17.1342C90.3891 17.1342 90.7579 17.0215 91.0837 16.7945C91.4094 16.5683 91.6324 16.2876 91.7527 15.9523C91.8722 15.617 91.9327 14.796 91.9327 13.4901V9.64008H94.3421V18.7666H92.104Z"
    fill="white"
  />
<path
    fill-rule="evenodd"
    clip-rule="evenodd"
    d="M98.8807 18.7665H96.4713V9.64006H98.7095V10.9381C99.0923 10.3247 99.4365 9.92078 99.742 9.7263C100.048 9.53182 100.396 9.43414 100.784 9.43414C101.333 9.43414 101.863 9.5855 102.371 9.8891L101.625 11.9949C101.219 11.7318 100.841 11.5989 100.493 11.5989C100.156 11.5989 99.8694 11.6931 99.6349 11.8788C99.4014 12.0653 99.217 12.4024 99.0818 12.8881C98.9474 13.3757 98.8807 14.3956 98.8807 15.9479V18.7665Z"
    fill="white"
  />
<path
    fill-rule="evenodd"
    clip-rule="evenodd"
    d="M105.057 14.2033C105.057 15.1088 105.271 15.8014 105.7 16.2828C106.129 16.7641 106.658 17.0052 107.286 17.0052C107.915 17.0052 108.442 16.7641 108.869 16.2828C109.294 15.8014 109.507 15.1027 109.507 14.1857C109.507 13.2925 109.294 12.6052 108.869 12.1239C108.442 11.6425 107.915 11.4014 107.286 11.4014C106.658 11.4014 106.129 11.6425 105.7 12.1239C105.271 12.6052 105.057 13.2987 105.057 14.2033M102.587 14.0748C102.587 13.2723 102.785 12.497 103.179 11.7455C103.574 10.9948 104.132 10.422 104.856 10.0268C105.579 9.63172 106.386 9.43372 107.278 9.43372C108.656 9.43372 109.784 9.88252 110.665 10.7784C111.546 11.676 111.986 12.8085 111.986 14.1778C111.986 15.5585 111.541 16.7034 110.652 17.6107C109.762 18.5188 108.644 18.9729 107.295 18.9729C106.461 18.9729 105.664 18.7837 104.907 18.4053C104.15 18.0278 103.574 17.4734 103.179 16.743C102.785 16.0126 102.587 15.1229 102.587 14.0748"
    fill="white"
  />
<path
    fill-rule="evenodd"
    clip-rule="evenodd"
    d="M115.889 14.0486C115.889 15.0747 116.091 15.8315 116.497 16.3217C116.903 16.8118 117.398 17.0565 117.981 17.0565C118.541 17.0565 119.007 16.8321 119.379 16.3815C119.749 15.9327 119.935 15.1953 119.935 14.1692C119.935 13.2126 119.745 12.5016 119.361 12.0378C118.978 11.5732 118.504 11.3417 117.938 11.3417C117.349 11.3417 116.86 11.5697 116.472 12.0246C116.083 12.4805 115.889 13.1545 115.889 14.0486V14.0486ZM113.505 9.63982H115.752V10.9809C116.043 10.5225 116.437 10.1502 116.934 9.86334C117.432 9.57734 117.984 9.4339 118.589 9.4339C119.647 9.4339 120.545 9.85014 121.282 10.68C122.019 11.5107 122.388 12.6688 122.388 14.1516C122.388 15.6766 122.016 16.8602 121.274 17.705C120.53 18.5507 119.63 18.9731 118.573 18.9731C118.069 18.9731 117.614 18.8728 117.205 18.6721C116.796 18.4715 116.366 18.1283 115.914 17.6408V22.2388H113.505V9.63982Z"
    fill="white"
  />
<path
    fill-rule="evenodd"
    clip-rule="evenodd"
    d="M126.037 14.2033C126.037 15.1088 126.251 15.8014 126.679 16.2828C127.109 16.7641 127.637 17.0052 128.266 17.0052C128.895 17.0052 129.421 16.7641 129.848 16.2828C130.274 15.8014 130.487 15.1027 130.487 14.1857C130.487 13.2925 130.274 12.6052 129.848 12.1239C129.421 11.6425 128.895 11.4014 128.266 11.4014C127.637 11.4014 127.109 11.6425 126.679 12.1239C126.251 12.6052 126.037 13.2987 126.037 14.2033M123.567 14.0748C123.567 13.2723 123.764 12.497 124.158 11.7455C124.554 10.9948 125.112 10.422 125.836 10.0268C126.558 9.63172 127.366 9.43372 128.257 9.43372C129.636 9.43372 130.764 9.88252 131.645 10.7784C132.525 11.676 132.965 12.8085 132.965 14.1778C132.965 15.5585 132.521 16.7034 131.632 17.6107C130.742 18.5188 129.623 18.9729 128.275 18.9729C127.441 18.9729 126.643 18.7837 125.886 18.4053C125.13 18.0278 124.554 17.4734 124.158 16.743C123.764 16.0126 123.567 15.1229 123.567 14.0748"
    fill="white"
  />
<path
    fill-rule="evenodd"
    clip-rule="evenodd"
    d="M134.003 16.1626L136.421 15.793C136.523 16.2629 136.732 16.6202 137.047 16.8631C137.361 17.1069 137.801 17.2283 138.367 17.2283C138.991 17.2283 139.459 17.1139 139.773 16.8842C139.985 16.7249 140.091 16.5102 140.091 16.2401C140.091 16.057 140.033 15.9048 139.919 15.7842C139.799 15.6698 139.531 15.5642 139.113 15.4665C137.169 15.0371 135.938 14.6446 135.417 14.2891C134.697 13.7972 134.337 13.1117 134.337 12.2352C134.337 11.4449 134.648 10.7805 135.271 10.2411C135.895 9.70342 136.861 9.43414 138.17 9.43414C139.416 9.43414 140.342 9.63742 140.948 10.044C141.555 10.4514 141.971 11.0525 142.2 11.8489L139.928 12.2695C139.831 11.9149 139.647 11.6421 139.374 11.4529C139.103 11.2645 138.716 11.1695 138.213 11.1695C137.578 11.1695 137.124 11.2593 136.849 11.4361C136.667 11.562 136.575 11.7257 136.575 11.9263C136.575 12.0979 136.655 12.244 136.815 12.3645C137.032 12.5247 137.783 12.7509 139.066 13.043C140.35 13.3352 141.246 13.6933 141.754 14.1175C142.257 14.5469 142.509 15.1462 142.509 15.9136C142.509 16.7505 142.16 17.4685 141.462 18.0705C140.765 18.6724 139.733 18.9725 138.367 18.9725C137.127 18.9725 136.144 18.7208 135.421 18.2165C134.699 17.7132 134.226 17.0277 134.003 16.1626"
    fill="white"
  />
</svg>
