<svg
  width="211"
  height="44"
  viewBox="0 0 211 44"
  fill="none"
  xmlns="http://www.w3.org/2000/svg"
>
<rect x="0.891907" y="0.880005" width="64.2162" height="42.24" fill="#003399" />
<path
    fill-rule="evenodd"
    clip-rule="evenodd"
    d="M30.8059 7.74403L32.1616 8.72083L31.6443 10.3136L33 9.32803L34.3556 10.3136L33.8384 8.72083L35.194 7.74403H33.5173L33 6.16003L32.4827 7.74403H30.8059ZM34.3556 37.84L33.8384 36.256L35.194 35.2792H33.5173L33 33.6864L32.4827 35.2792H30.8059L32.1616 36.256L31.6443 37.84L33 36.8632L34.3556 37.84ZM19.14 23.056L17.7843 24.0416L18.3016 22.4576L16.9459 21.5072H18.6227L19.14 19.9232L19.6573 21.5072H21.343L19.9784 22.4928L20.4957 24.0768L19.14 23.0912V23.056ZM27.4257 12.144L26.9084 10.56L28.264 9.59203H26.5873L26.07 8.00803L25.5527 9.59203H23.8759L25.2316 10.5688L24.7143 12.1528L26.07 11.176L27.4257 12.144ZM20.5135 14.6256L21.0308 13.0416L21.557 14.6256H23.1892L21.8335 15.6112L22.3508 17.1952L20.9862 16.2096L19.6216 17.1952L20.1389 15.6112L18.7832 14.6256H20.5135ZM20.5135 28.3888H18.8011H18.7832L20.1389 29.3744L19.6216 30.9584L20.9862 29.9816L22.3508 30.9584L21.8335 29.3744L23.1892 28.3888H21.557L21.0308 26.8048L20.5135 28.3888ZM25.2316 34.408L23.8759 33.44H25.5527L26.07 31.856L26.5873 33.44H28.264L26.9084 34.408L27.4257 35.992L26.07 35.0152L24.7143 35.992L25.2316 34.408ZM48.2157 24.0768L47.6984 22.4928L49.054 21.5072H47.4129L46.8957 19.9232L46.3784 21.5072H44.6392L46.0038 22.4928L45.4865 24.0768L46.86 23.0912L48.2157 24.0768ZM39.0916 10.56L37.7359 9.59203H39.4127L39.93 8.00803L40.4473 9.59203H42.124L40.7684 10.56L41.2857 12.144L39.93 11.176L38.5743 12.1528L39.0916 10.5688V10.56ZM44.9692 13.0328L44.4429 14.6168L42.8108 14.6256L44.1575 15.6112L43.6402 17.1952L45.0048 16.2096L46.3605 17.1952L45.8432 15.6112L47.1632 14.6168H45.4865L44.9692 13.0328ZM45.5311 28.3888H47.1632L45.8432 29.3744L46.3605 30.9584L45.0048 29.9816L43.6402 30.9584L44.1575 29.3744L42.8108 28.3888H44.4875L45.0138 26.8048L45.5311 28.3888ZM40.7684 34.408L42.124 33.44H40.4473L39.93 31.856L39.4127 33.44H37.7359L39.0916 34.408L38.5743 35.992L39.93 35.0152L41.2857 35.992L40.7684 34.408Z"
    fill="#FFCC00"
  />
<path
    fill-rule="evenodd"
    clip-rule="evenodd"
    d="M66 44H0V0H66V44ZM65.1081 0.88H0.891892V43.12H65.1081V0.88Z"
    fill="white"
  />
<path
    d="M76.112 19.7726C77.048 20.6366 78.032 21.6446 78.968 22.6766C78.2 24.4766 77.24 26.0606 76.112 27.2846V19.7726ZM89.96 18.4526H92.432C92.192 19.9166 91.88 21.4286 91.544 22.5326L93.176 23.4206C93.872 21.7406 94.472 19.1246 94.832 16.8446L93.32 16.2686L92.96 16.4126H87.224C87.512 15.1406 87.752 13.8206 87.944 12.5006L85.712 12.1406C85.232 15.9326 84.368 19.6526 82.808 21.9806C83.36 22.2686 84.272 23.0366 84.632 23.3966C85.472 22.0766 86.144 20.3726 86.696 18.4526H87.776V21.5486C87.8 23.3246 87.2 27.4766 84.2 30.5486V29.2766H76.112V27.3326C76.568 27.6686 77.408 28.3406 77.72 28.7246C78.752 27.5246 79.64 26.0606 80.408 24.4286C81.272 25.4846 81.968 26.4926 82.448 27.3566L83.864 25.7006C83.312 24.7166 82.376 23.5166 81.296 22.2926C81.968 20.5166 82.496 18.5966 82.904 16.5806L80.864 16.2446C80.576 17.7566 80.192 19.2206 79.736 20.5886C78.92 19.7486 78.08 18.9326 77.288 18.2126L76.112 19.5086V15.6926H84.032V13.6286H74V33.0926H76.112V31.3646H83.312C82.904 31.7006 82.472 32.0126 81.992 32.3006C82.4 32.7086 83.024 33.6686 83.288 34.1246C87.008 31.8206 88.544 27.6686 88.856 25.6286C89.168 27.5966 90.512 31.9406 93.8 34.1246C94.136 33.5966 94.784 32.6846 95.192 32.2046C90.8 29.2766 89.96 23.6366 89.96 21.5486V18.4526Z"
    fill="white"
  />
<path
    d="M101.672 12.5726V20.0126C101.672 24.2846 101.24 29.0126 97.376 32.4446C97.856 32.8286 98.648 33.6206 98.96 34.1726C103.352 30.2846 103.88 24.9566 103.88 20.0126V12.5726H101.672ZM108.392 13.1006V32.5886H110.576V13.1006H108.392ZM115.352 12.5006V33.9326H117.584V12.5006H115.352ZM98.816 17.9966C98.48 20.1806 97.76 22.7486 96.752 24.4286L98.672 25.2206C99.704 23.5166 100.328 20.7326 100.736 18.5246L98.816 17.9966ZM104.048 19.1246C104.864 21.1166 105.632 23.6606 105.824 25.2446L107.744 24.3806C107.528 22.8206 106.712 20.3486 105.848 18.4286L104.048 19.1246ZM110.72 19.0766C111.776 20.9486 112.832 23.4686 113.192 25.0526L115.016 24.0446C114.656 22.5086 113.504 20.0846 112.4 18.2126L110.72 19.0766Z"
    fill="white"
  />
<path
    d="M130.52 23.5886V22.0046H133.664V23.5886H130.52ZM130.52 18.9086H133.664V20.4686H130.52V18.9086ZM139.064 18.9086V20.4686H135.824V18.9086H139.064ZM139.064 23.5886H135.824V22.0046H139.064V23.5886ZM133.664 30.9566H135.824V28.4366H142.688V26.6126H135.824V25.1966H141.2V17.3246H135.824V15.9566H142.352V14.1086H135.824V12.1646H133.664V14.1086H127.424V15.9566H133.664V17.3246H128.456V25.1966H133.664V26.6126H127.088V28.4366H133.664V30.9566ZM126.848 16.6046C126.128 15.4286 124.448 13.8446 123.056 12.7646L121.352 14.0126C122.768 15.1646 124.376 16.8206 125.048 18.0206L126.848 16.6046ZM126.2 21.4766H121.184V23.5406H124.064V29.3246C123.056 30.2126 121.88 31.1246 120.92 31.7726L122.024 33.9806C123.2 32.9486 124.256 31.9886 125.264 31.0046C126.728 32.8526 128.792 33.6446 131.768 33.7646C134.552 33.8606 139.64 33.8126 142.4 33.6926C142.52 33.0446 142.856 32.0126 143.12 31.5086C140.072 31.7246 134.504 31.7966 131.792 31.6766C129.128 31.5566 127.232 30.8126 126.2 29.1566V21.4766Z"
    fill="white"
  />
<path
    d="M161.216 26.5886V31.2926H150.896V26.5886H161.216ZM148.712 34.2206H150.896V33.2846H161.216V34.2206H163.496V24.5726H148.712V34.2206ZM150.56 19.8686C152.816 18.1406 154.736 16.1726 155.96 14.3966C157.304 16.2446 159.368 18.1886 161.624 19.8686H150.56ZM154.712 12.2126C152.888 15.2126 148.952 18.8126 144.848 20.9006C145.304 21.3566 145.952 22.1486 146.216 22.6766C147.536 21.9566 148.856 21.1406 150.08 20.2286V21.8606H162.032V20.1566C163.304 21.0926 164.648 21.9086 165.92 22.5806C166.304 21.9086 166.832 21.1406 167.384 20.5886C163.616 18.9566 159.56 15.7886 156.992 12.2126H154.712Z"
    fill="white"
  />
</svg>
