<svg
  width="211"
  height="44"
  viewBox="0 0 211 44"
  fill="none"
  xmlns="http://www.w3.org/2000/svg"
>
<rect x="0.878357" y="0.879997" width="63.2432" height="42.24" fill="#003399" />
<path
    fill-rule="evenodd"
    clip-rule="evenodd"
    d="M30.3392 7.744L31.6743 8.7208L31.1649 10.3136L32.5 9.328L33.8352 10.3136L33.3257 8.7208L34.6608 7.744H33.0095L32.5 6.16L31.9906 7.744H30.3392ZM33.8352 37.84L33.3257 36.256L34.6608 35.2792H33.0095L32.5 33.6864L31.9906 35.2792H30.3392L31.6743 36.256L31.1649 37.84L32.5 36.8632L33.8352 37.84ZM18.85 23.056L17.5149 24.0416L18.0243 22.4576L16.6892 21.5072H18.3406L18.85 19.9232L19.3595 21.5072H21.0196L19.6757 22.4928L20.1852 24.0768L18.85 23.0912V23.056ZM27.0102 12.144L26.5007 10.56L27.8358 9.592H26.1845L25.675 8.008L25.1656 9.592H23.5142L24.8493 10.5688L24.3399 12.1528L25.675 11.176L27.0102 12.144ZM20.2027 14.6256L20.7122 13.0416L21.2304 14.6256H22.8379L21.5027 15.6112L22.0122 17.1952L20.6683 16.2096L19.3243 17.1952L19.8338 15.6112L18.4987 14.6256H20.2027ZM20.7122 26.8048L20.2027 28.3888H18.5162H18.4987L19.8338 29.3744L19.3243 30.9584L20.6683 29.9816L22.0122 30.9584L21.5027 29.3744L22.8379 28.3888H21.2304L20.7122 26.8048ZM24.8493 34.408L23.5142 33.44H25.1656L25.675 31.856L26.1845 33.44H27.8358L26.5007 34.408L27.0102 35.992L25.675 35.0152L24.3399 35.992L24.8493 34.408ZM47.4852 24.0768L46.9757 22.4928L48.3108 21.5072H46.6946L46.1852 19.9232L45.6757 21.5072H43.9629L45.3068 22.4928L44.7973 24.0768L46.15 23.0912L47.4852 24.0768ZM38.4993 10.56L37.1642 9.592H38.8156L39.325 8.008L39.8345 9.592H41.4858L40.1507 10.56L40.6602 12.144L39.325 11.176L37.9899 12.1528L38.4993 10.5688V10.56ZM44.2879 13.0328L43.7696 14.6168L42.1622 14.6256L43.4885 15.6112L42.9791 17.1952L44.323 16.2096L45.6581 17.1952L45.1487 15.6112L46.4487 14.6168H44.7973L44.2879 13.0328ZM44.8412 28.3888H46.4487L45.1487 29.3744L45.6581 30.9584L44.323 29.9816L42.9791 30.9584L43.4885 29.3744L42.1622 28.3888H43.8135L44.3318 26.8048L44.8412 28.3888ZM40.1507 34.408L41.4858 33.44H39.8345L39.325 31.856L38.8156 33.44H37.1642L38.4993 34.408L37.9899 35.992L39.325 35.0152L40.6602 35.992L40.1507 34.408Z"
    fill="#FFCC00"
  />
<path
    fill-rule="evenodd"
    clip-rule="evenodd"
    d="M65 44H0V0H65V44ZM64.1216 0.88H0.878378V43.12H64.1216V0.88Z"
    fill="white"
  />
<path
    fill-rule="evenodd"
    clip-rule="evenodd"
    d="M74.7444 37.8448V25.2468H84.0744V27.3772H77.2854V30.1704H83.6024V32.2929H77.2854V35.7223H84.3152V37.8448H74.7444Z"
    fill="white"
  />
<path
    fill-rule="evenodd"
    clip-rule="evenodd"
    d="M92.2057 37.8448V36.4782C91.8735 36.9648 91.4375 37.3494 90.897 37.6301C90.3564 37.9108 89.7851 38.0508 89.1839 38.0508C88.5722 38.0508 88.0228 37.917 87.5368 37.6468C87.0498 37.3776 86.6974 37 86.4803 36.5125C86.2632 36.0259 86.1542 35.3527 86.1542 34.4929V28.7184H88.566V32.9124C88.566 34.1955 88.6108 34.9822 88.6996 35.2708C88.7875 35.5604 88.9501 35.79 89.1839 35.9581C89.4186 36.1271 89.7165 36.2124 90.0769 36.2124C90.4891 36.2124 90.8583 36.0989 91.1844 35.8728C91.5105 35.6457 91.7337 35.3659 91.8541 35.0306C91.9737 34.6953 92.0343 33.8743 92.0343 32.5684V28.7184H94.4462V37.8448H92.2057Z"
    fill="white"
  />
<path
    fill-rule="evenodd"
    clip-rule="evenodd"
    d="M98.9892 37.8448H96.5774V28.7184H98.8178V30.0164C99.2011 29.403 99.5456 28.9991 99.8515 28.8046C100.158 28.6092 100.506 28.5124 100.895 28.5124C101.444 28.5124 101.974 28.6638 102.483 28.9674L101.736 31.0732C101.33 30.8092 100.952 30.6772 100.603 30.6772C100.265 30.6772 99.9789 30.7705 99.7442 30.9571C99.5104 31.1428 99.3259 31.4798 99.1905 31.9664C99.056 32.454 98.9892 33.4739 98.9892 35.0262V37.8448Z"
    fill="white"
  />
<path
    fill-rule="evenodd"
    clip-rule="evenodd"
    d="M105.172 33.2815C105.172 34.187 105.386 34.8796 105.815 35.361C106.245 35.8423 106.774 36.0834 107.403 36.0834C108.033 36.0834 108.56 35.8423 108.987 35.361C109.414 34.8796 109.626 34.1809 109.626 33.2639C109.626 32.3707 109.414 31.6834 108.987 31.2021C108.56 30.7207 108.033 30.4796 107.403 30.4796C106.774 30.4796 106.245 30.7207 105.815 31.2021C105.386 31.6834 105.172 32.376 105.172 33.2815M102.699 33.153C102.699 32.3505 102.897 31.5743 103.292 30.8237C103.687 30.073 104.246 29.5002 104.971 29.105C105.694 28.7099 106.503 28.5119 107.395 28.5119C108.775 28.5119 109.904 28.9598 110.786 29.8566C111.667 30.7533 112.108 31.8867 112.108 33.256C112.108 34.6367 111.663 35.7807 110.772 36.6889C109.882 37.597 108.762 38.0511 107.412 38.0511C106.577 38.0511 105.779 37.8619 105.022 37.4835C104.264 37.106 103.687 36.5516 103.292 35.8212C102.897 35.0908 102.699 34.2011 102.699 33.153"
    fill="white"
  />
<path
    fill-rule="evenodd"
    clip-rule="evenodd"
    d="M116.015 33.1269C116.015 34.153 116.218 34.9098 116.624 35.3999C117.03 35.8901 117.525 36.1347 118.109 36.1347C118.67 36.1347 119.137 35.9103 119.508 35.4598C119.879 35.0101 120.066 34.2727 120.066 33.2475C120.066 32.29 119.875 31.5799 119.491 31.1161C119.108 30.6515 118.633 30.42 118.066 30.42C117.476 30.42 116.987 30.6479 116.598 31.1029C116.21 31.5587 116.015 32.2328 116.015 33.1269V33.1269ZM113.628 28.7181H115.877V30.0592C116.169 29.6007 116.564 29.2285 117.061 28.9416C117.56 28.6547 118.112 28.5122 118.718 28.5122C119.776 28.5122 120.676 28.9275 121.414 29.7583C122.151 30.589 122.52 31.7462 122.52 33.2299C122.52 34.754 122.149 35.9385 121.405 36.7833C120.661 37.629 119.76 38.0514 118.701 38.0514C118.197 38.0514 117.742 37.9511 117.332 37.7504C116.922 37.5498 116.493 37.2057 116.04 36.7191V41.3171H113.628V28.7181Z"
    fill="white"
  />
<path
    fill-rule="evenodd"
    clip-rule="evenodd"
    d="M129.675 32.4995C129.657 31.8008 129.477 31.2693 129.134 30.905C128.791 30.5415 128.373 30.3594 127.881 30.3594C127.355 30.3594 126.92 30.5521 126.577 30.9358C126.233 31.3195 126.064 31.8404 126.07 32.4995H129.675ZM129.538 34.9398L131.941 35.3437C131.632 36.2263 131.145 36.8987 130.478 37.3589C129.81 37.82 128.977 38.0515 127.975 38.0515C126.39 38.0515 125.218 37.5323 124.457 36.4956C123.856 35.6649 123.555 34.6168 123.555 33.3505C123.555 31.8378 123.95 30.6533 124.74 29.7971C125.529 28.9408 126.528 28.5123 127.735 28.5123C129.091 28.5123 130.162 28.9602 130.945 29.8569C131.729 30.7536 132.104 32.1273 132.07 33.9779H126.027C126.044 34.6943 126.239 35.2504 126.611 35.6491C126.983 36.0477 127.446 36.2466 128.002 36.2466C128.379 36.2466 128.697 36.1436 128.954 35.9368C129.212 35.7309 129.406 35.3983 129.538 34.9398V34.9398Z"
    fill="white"
  />
<path
    fill-rule="evenodd"
    clip-rule="evenodd"
    d="M133.984 27.4806H136.396V25.2463H133.984V27.4806ZM136.396 28.7179V37.561C136.396 38.7244 136.32 39.5454 136.168 40.0233C136.016 40.502 135.724 40.8751 135.293 41.1444C134.861 41.4146 134.31 41.5483 133.64 41.5483C133.4 41.5483 133.141 41.5272 132.863 41.4841C132.587 41.441 132.287 41.3767 131.967 41.2914L132.387 39.2286C132.501 39.2515 132.609 39.27 132.71 39.2841C132.81 39.2982 132.902 39.3061 132.988 39.3061C133.234 39.3061 133.437 39.2533 133.594 39.1468C133.75 39.0403 133.855 38.9136 133.907 38.764C133.959 38.6153 133.984 38.1682 133.984 37.4238V28.7179H136.396Z"
    fill="white"
  />
<path
    fill-rule="evenodd"
    clip-rule="evenodd"
    d="M138.07 35.2409L140.49 34.8713C140.593 35.3412 140.801 35.6976 141.117 35.9414C141.432 36.1852 141.872 36.3066 142.439 36.3066C143.063 36.3066 143.531 36.1922 143.846 35.9625C144.058 35.8024 144.164 35.5876 144.164 35.3184C144.164 35.1344 144.106 34.9831 143.992 34.8625C143.873 34.7481 143.604 34.6425 143.185 34.5448C141.239 34.1154 140.007 33.7229 139.486 33.3674C138.765 32.8746 138.405 32.19 138.405 31.3135C138.405 30.5232 138.716 29.858 139.34 29.3194C139.964 28.7817 140.931 28.5124 142.241 28.5124C143.488 28.5124 144.416 28.7148 145.022 29.1223C145.63 29.5288 146.046 30.1308 146.276 30.9272L144.001 31.3478C143.904 30.9923 143.72 30.7204 143.447 30.5312C143.176 30.3428 142.788 30.2478 142.284 30.2478C141.649 30.2478 141.194 30.3367 140.919 30.5144C140.736 30.6403 140.645 30.804 140.645 31.0046C140.645 31.1762 140.725 31.3223 140.885 31.4428C141.102 31.603 141.854 31.8292 143.139 32.1213C144.424 32.4135 145.32 32.7716 145.829 33.1958C146.333 33.6252 146.585 34.2236 146.585 34.9919C146.585 35.8279 146.235 36.5468 145.537 37.1488C144.839 37.7507 143.806 38.0508 142.439 38.0508C141.197 38.0508 140.213 37.7991 139.49 37.2948C138.767 36.7906 138.293 36.106 138.07 35.2409"
    fill="white"
  />
<path
    fill-rule="evenodd"
    clip-rule="evenodd"
    d="M148.258 37.8448V25.2468H150.67V31.9321L153.494 28.7184H156.464L153.348 32.0527L156.687 37.8448H154.087L151.794 33.7458L150.67 34.9232V37.8448H148.258Z"
    fill="white"
  />
<path
    fill-rule="evenodd"
    clip-rule="evenodd"
    d="M163.151 33.462C162.841 33.565 162.353 33.6882 161.683 33.8316C161.013 33.975 160.575 34.115 160.37 34.2522C160.055 34.4758 159.898 34.76 159.898 35.1032C159.898 35.442 160.023 35.7342 160.276 35.9797C160.527 36.2261 160.848 36.3493 161.236 36.3493C161.671 36.3493 162.086 36.2067 162.481 35.9198C162.773 35.7016 162.964 35.4358 163.057 35.1208C163.119 34.914 163.151 34.5224 163.151 33.9434V33.462ZM159.923 31.5022L157.735 31.1071C157.981 30.2254 158.404 29.5724 159.005 29.1482C159.606 28.7241 160.498 28.512 161.683 28.512C162.759 28.512 163.56 28.6396 164.086 28.8948C164.612 29.1491 164.983 29.473 165.198 29.8654C165.412 30.2579 165.519 30.9786 165.519 32.0267L165.494 34.8454C165.494 35.6479 165.533 36.2393 165.61 36.6203C165.687 37.0014 165.831 37.4097 166.043 37.8444H163.657C163.595 37.6842 163.517 37.4466 163.425 37.1316C163.385 36.9882 163.356 36.894 163.34 36.8482C162.927 37.2486 162.487 37.5496 162.018 37.7502C161.548 37.9509 161.047 38.0512 160.516 38.0512C159.578 38.0512 158.838 37.796 158.297 37.2865C157.756 36.7761 157.486 36.1319 157.486 35.3522C157.486 34.8366 157.608 34.3772 157.855 33.9733C158.101 33.5694 158.445 33.2605 158.889 33.0449C159.333 32.8302 159.972 32.6427 160.807 32.4826C161.934 32.2705 162.716 32.0725 163.151 31.8894V31.6483C163.151 31.1846 163.036 30.8537 162.807 30.6566C162.578 30.4586 162.146 30.36 161.511 30.36C161.082 30.36 160.748 30.4445 160.507 30.6134C160.267 30.7824 160.072 31.079 159.923 31.5022V31.5022Z"
    fill="white"
  />
<path
    fill-rule="evenodd"
    clip-rule="evenodd"
    d="M74.7203 6.16827H77.2613V12.9918C77.2613 14.0742 77.293 14.7764 77.3554 15.0968C77.4643 15.6124 77.7228 16.0269 78.1323 16.3393C78.5419 16.6517 79.1001 16.8075 79.8103 16.8075C80.531 16.8075 81.0742 16.6596 81.4407 16.3648C81.8072 16.0692 82.027 15.7075 82.1017 15.278C82.1764 14.8477 82.2133 14.1349 82.2133 13.1379V6.16827H84.7543V12.7859C84.7543 14.2977 84.6858 15.3669 84.5487 15.9908C84.4107 16.6156 84.1575 17.1428 83.7884 17.5722C83.4192 18.0016 82.9261 18.344 82.3082 18.5992C81.6903 18.8544 80.8835 18.982 79.8876 18.982C78.6861 18.982 77.7746 18.8429 77.1541 18.5648C76.5335 18.2868 76.0422 17.926 75.6818 17.4816C75.3215 17.038 75.0833 16.5725 74.969 16.0859C74.8038 15.3634 74.7203 14.2977 74.7203 12.8888V6.16827Z"
    fill="white"
  />
<path
    fill-rule="evenodd"
    clip-rule="evenodd"
    d="M95.1799 18.7667H92.7681V14.1089C92.7681 13.1233 92.7162 12.4861 92.6134 12.1966C92.5105 11.908 92.3427 11.6827 92.1115 11.5225C91.8795 11.3615 91.6008 11.2814 91.2747 11.2814C90.8564 11.2814 90.4819 11.3967 90.1497 11.6255C89.8174 11.8543 89.5907 12.1579 89.4676 12.5363C89.3446 12.9147 89.283 13.6134 89.283 14.6333V18.7667H86.8712V9.64022H89.1117V10.9805C89.9071 9.9491 90.9082 9.4343 92.1159 9.4343C92.6477 9.4343 93.1346 9.52934 93.5749 9.72206C94.0153 9.9139 94.3493 10.1585 94.5752 10.4569C94.8002 10.7543 94.9584 11.0922 95.0472 11.4706C95.1351 11.849 95.1799 12.3902 95.1799 13.0951V18.7667Z"
    fill="white"
  />
<path
    fill-rule="evenodd"
    clip-rule="evenodd"
    d="M97.187 18.7669H99.5988V9.6404H97.187V18.7669ZM97.187 8.40224H99.5988V6.16792H97.187V8.40224Z"
    fill="white"
  />
<path
    fill-rule="evenodd"
    clip-rule="evenodd"
    d="M106.836 14.3839C106.527 14.4868 106.038 14.61 105.368 14.7535C104.699 14.8969 104.261 15.0368 104.055 15.1741C103.741 15.3976 103.583 15.6819 103.583 16.0251C103.583 16.3639 103.709 16.656 103.961 16.9015C104.213 17.1479 104.533 17.2711 104.922 17.2711C105.357 17.2711 105.772 17.1286 106.166 16.8417C106.458 16.6235 106.65 16.3577 106.742 16.0427C106.805 15.8359 106.836 15.4443 106.836 14.8652V14.3839ZM103.609 12.4241L101.42 12.029C101.666 11.1472 102.09 10.4943 102.69 10.0701C103.291 9.64595 104.184 9.43387 105.368 9.43387C106.444 9.43387 107.246 9.56147 107.771 9.81667C108.298 10.071 108.669 10.3948 108.883 10.7873C109.098 11.1798 109.205 11.9005 109.205 12.9486L109.179 15.7672C109.179 16.5698 109.218 17.1611 109.295 17.5422C109.373 17.9232 109.517 18.3315 109.729 18.7663H107.342C107.28 18.6061 107.203 18.3685 107.11 18.0535C107.071 17.91 107.042 17.8159 107.025 17.7701C106.613 18.1705 106.173 18.4715 105.703 18.6721C105.234 18.8727 104.733 18.9731 104.201 18.9731C103.263 18.9731 102.523 18.7179 101.983 18.2083C101.441 17.6979 101.171 17.0538 101.171 16.2741C101.171 15.7584 101.294 15.2991 101.541 14.8951C101.787 14.4912 102.13 14.1823 102.574 13.9667C103.018 13.752 103.658 13.5646 104.493 13.4044C105.62 13.1923 106.401 12.9943 106.836 12.8113V12.5702C106.836 12.1064 106.722 11.7755 106.493 11.5784C106.264 11.3804 105.832 11.2819 105.197 11.2819C104.767 11.2819 104.433 11.3663 104.192 11.5353C103.952 11.7043 103.757 12.0008 103.609 12.4241V12.4241Z"
    fill="white"
  />
</svg>
