<svg
  width="211"
  height="44"
  viewBox="0 0 211 44"
  fill="none"
  xmlns="http://www.w3.org/2000/svg"
>
<rect x="0.878418" y="0.880005" width="63.2432" height="42.24" fill="#003399" />
<path
    fill-rule="evenodd"
    clip-rule="evenodd"
    d="M30.3392 7.74397L31.6743 8.72077L31.1649 10.3136L32.5 9.32797L33.8352 10.3136L33.3257 8.72077L34.6608 7.74397H33.0095L32.5 6.15997L31.9906 7.74397H30.3392ZM33.8352 37.84L33.3257 36.256L34.6608 35.2792H33.0095L32.5 33.6864L31.9906 35.2792H30.3392L31.6743 36.256L31.1649 37.84L32.5 36.8632L33.8352 37.84ZM18.85 23.056L17.5149 24.0416L18.0243 22.4576L16.6892 21.5072H18.3406L18.85 19.9232L19.3595 21.5072H21.0196L19.6757 22.4928L20.1852 24.0768L18.85 23.0912V23.056ZM27.0102 12.144L26.5007 10.56L27.8358 9.59197H26.1845L25.675 8.00797L25.1656 9.59197H23.5142L24.8493 10.5688L24.3399 12.1528L25.675 11.176L27.0102 12.144ZM20.2027 14.6256L20.7122 13.0416L21.2304 14.6256H22.8379L21.5027 15.6112L22.0122 17.1952L20.6683 16.2096L19.3243 17.1952L19.8338 15.6112L18.4987 14.6256H20.2027ZM20.7122 26.8048L20.2027 28.3888H18.5162H18.4987L19.8338 29.3744L19.3243 30.9584L20.6683 29.9816L22.0122 30.9584L21.5027 29.3744L22.8379 28.3888H21.2304L20.7122 26.8048ZM24.8493 34.408L23.5142 33.44H25.1656L25.675 31.856L26.1845 33.44H27.8358L26.5007 34.408L27.0102 35.992L25.675 35.0152L24.3399 35.992L24.8493 34.408ZM47.4852 24.0768L46.9757 22.4928L48.3108 21.5072H46.6946L46.1852 19.9232L45.6757 21.5072H43.9629L45.3068 22.4928L44.7973 24.0768L46.15 23.0912L47.4852 24.0768ZM38.4993 10.56L37.1642 9.59197H38.8156L39.325 8.00797L39.8345 9.59197H41.4858L40.1507 10.56L40.6602 12.144L39.325 11.176L37.9899 12.1528L38.4993 10.5688V10.56ZM44.2879 13.0328L43.7696 14.6168L42.1622 14.6256L43.4885 15.6112L42.9791 17.1952L44.323 16.2096L45.6581 17.1952L45.1487 15.6112L46.4487 14.6168H44.7973L44.2879 13.0328ZM44.8412 28.3888H46.4487L45.1487 29.3744L45.6581 30.9584L44.323 29.9816L42.9791 30.9584L43.4885 29.3744L42.1622 28.3888H43.8135L44.3318 26.8048L44.8412 28.3888ZM40.1507 34.408L41.4858 33.44H39.8345L39.325 31.856L38.8156 33.44H37.1642L38.4993 34.408L37.9899 35.992L39.325 35.0152L40.6602 35.992L40.1507 34.408Z"
    fill="#FFCC00"
  />
<path
    fill-rule="evenodd"
    clip-rule="evenodd"
    d="M65 44H0V0H65V44ZM64.1216 0.88H0.878378V43.12H64.1216V0.88Z"
    fill="white"
  />
<path
    fill-rule="evenodd"
    clip-rule="evenodd"
    d="M80.4211 32.4998C80.4034 31.8011 80.2226 31.2696 79.8786 30.9052C79.5338 30.5418 79.1148 30.3596 78.6209 30.3596C78.0926 30.3596 77.656 30.5524 77.3121 30.936C76.9672 31.3197 76.7979 31.8407 76.8032 32.4998H80.4211ZM80.2835 34.94L82.6948 35.344C82.3853 36.2266 81.8957 36.8989 81.2263 37.3592C80.5569 37.8203 79.7208 38.0517 78.7153 38.0517C77.1251 38.0517 75.9485 37.5325 75.1847 36.4959C74.5814 35.6652 74.2798 34.6171 74.2798 33.3508C74.2798 31.838 74.6758 30.6536 75.4687 29.7973C76.2607 28.9411 77.2627 28.5125 78.4745 28.5125C79.8354 28.5125 80.9097 28.9604 81.6955 29.8572C82.4823 30.7539 82.8589 32.1276 82.8245 33.9782H76.7608C76.7776 34.6945 76.9734 35.2507 77.3465 35.6493C77.7195 36.048 78.1843 36.2468 78.7418 36.2468C79.1201 36.2468 79.4394 36.1439 79.6978 35.9371C79.9563 35.7312 80.1512 35.3985 80.2835 34.94V34.94Z"
    fill="white"
  />
<path
    fill-rule="evenodd"
    clip-rule="evenodd"
    d="M90.5527 37.8451V36.4785C90.2193 36.9651 89.7819 37.3497 89.2394 37.6304C88.697 37.9111 88.1237 38.051 87.5204 38.051C86.9066 38.051 86.3553 37.9173 85.8676 37.6471C85.379 37.3778 85.0253 37.0003 84.8074 36.5128C84.5896 36.0261 84.4802 35.3529 84.4802 34.4932V28.7186H86.9004V32.9127C86.9004 34.1957 86.9454 34.9825 87.0345 35.2711C87.1227 35.5606 87.2858 35.7903 87.5204 35.9584C87.7559 36.1273 88.0549 36.2127 88.4165 36.2127C88.8302 36.2127 89.2006 36.0992 89.5278 35.873C89.8551 35.646 90.0791 35.3661 90.1999 35.0309C90.3199 34.6956 90.3807 33.8745 90.3807 32.5686V28.7186H92.8009V37.8451H90.5527Z"
    fill="white"
  />
<path
    fill-rule="evenodd"
    clip-rule="evenodd"
    d="M97.3597 37.8451H94.9396V28.7186H97.1878V30.0166C97.5723 29.4033 97.918 28.9993 98.225 28.8049C98.5328 28.6095 98.8821 28.5127 99.2719 28.5127C99.8231 28.5127 100.355 28.6641 100.866 28.9677L100.116 31.0735C99.7085 30.8095 99.3292 30.6775 98.9791 30.6775C98.6404 30.6775 98.3529 30.7708 98.1174 30.9573C97.8828 31.143 97.6976 31.4801 97.5617 31.9667C97.4268 32.4542 97.3597 33.4741 97.3597 35.0265V37.8451Z"
    fill="white"
  />
<path
    fill-rule="evenodd"
    clip-rule="evenodd"
    d="M103.563 33.2819C103.563 34.1874 103.778 34.8799 104.209 35.3613C104.64 35.8427 105.171 36.0838 105.802 36.0838C106.434 36.0838 106.963 35.8427 107.392 35.3613C107.819 34.8799 108.033 34.1812 108.033 33.2643C108.033 32.3711 107.819 31.6838 107.392 31.2024C106.963 30.7211 106.434 30.4799 105.802 30.4799C105.171 30.4799 104.64 30.7211 104.209 31.2024C103.778 31.6838 103.563 32.3763 103.563 33.2819M101.082 33.1534C101.082 32.3508 101.28 31.5747 101.676 30.824C102.073 30.0734 102.634 29.5005 103.361 29.1054C104.087 28.7103 104.898 28.5123 105.793 28.5123C107.178 28.5123 108.312 28.9602 109.196 29.8569C110.081 30.7536 110.523 31.8871 110.523 33.2563C110.523 34.6371 110.076 35.7811 109.183 36.6892C108.29 37.5974 107.166 38.0515 105.811 38.0515C104.973 38.0515 104.172 37.8623 103.412 37.4839C102.652 37.1063 102.073 36.5519 101.676 35.8215C101.28 35.0911 101.082 34.2015 101.082 33.1534"
    fill="white"
  />
<path
    fill-rule="evenodd"
    clip-rule="evenodd"
    d="M114.443 33.1272C114.443 34.1533 114.647 34.9101 115.054 35.4002C115.462 35.8904 115.959 36.135 116.545 36.135C117.108 36.135 117.576 35.9106 117.949 35.4601C118.321 35.0104 118.508 34.2729 118.508 33.2477C118.508 32.2903 118.317 31.5801 117.931 31.1164C117.547 30.6517 117.07 30.4203 116.502 30.4203C115.91 30.4203 115.419 30.6482 115.029 31.1032C114.639 31.559 114.443 32.2331 114.443 33.1272V33.1272ZM112.048 28.7184H114.305V30.0595C114.598 29.601 114.994 29.2288 115.494 28.9419C115.994 28.655 116.547 28.5125 117.156 28.5125C118.218 28.5125 119.12 28.9278 119.861 29.7585C120.601 30.5893 120.972 31.7465 120.972 33.2301C120.972 34.7543 120.598 35.9388 119.852 36.7836C119.105 37.6293 118.201 38.0517 117.139 38.0517C116.633 38.0517 116.176 37.9513 115.765 37.7507C115.354 37.5501 114.923 37.206 114.469 36.7193V41.3173H112.048V28.7184Z"
    fill="white"
  />
<path
    fill-rule="evenodd"
    clip-rule="evenodd"
    d="M128.151 32.4998C128.133 31.8011 127.952 31.2696 127.609 30.9052C127.264 30.5418 126.845 30.3596 126.351 30.3596C125.822 30.3596 125.386 30.5524 125.042 30.936C124.697 31.3197 124.528 31.8407 124.533 32.4998H128.151ZM128.013 34.94L130.425 35.344C130.115 36.2266 129.626 36.8989 128.956 37.3592C128.287 37.8203 127.451 38.0517 126.445 38.0517C124.855 38.0517 123.678 37.5325 122.915 36.4959C122.311 35.6652 122.01 34.6171 122.01 33.3508C122.01 31.838 122.406 30.6536 123.199 29.7973C123.991 28.9411 124.993 28.5125 126.204 28.5125C127.565 28.5125 128.64 28.9604 129.425 29.8572C130.212 30.7539 130.589 32.1276 130.554 33.9782H124.491C124.507 34.6945 124.703 35.2507 125.076 35.6493C125.449 36.048 125.914 36.2468 126.472 36.2468C126.85 36.2468 127.169 36.1439 127.428 35.9371C127.686 35.7312 127.881 35.3985 128.013 34.94V34.94Z"
    fill="white"
  />
<path
    fill-rule="evenodd"
    clip-rule="evenodd"
    d="M137.574 33.4623C137.263 33.5652 136.773 33.6884 136.101 33.8319C135.429 33.9753 134.989 34.1152 134.783 34.2525C134.467 34.476 134.309 34.7603 134.309 35.1035C134.309 35.4423 134.436 35.7344 134.689 35.9799C134.941 36.2263 135.263 36.3495 135.653 36.3495C136.089 36.3495 136.506 36.207 136.902 35.9201C137.194 35.7019 137.387 35.4361 137.479 35.1211C137.542 34.9143 137.574 34.5227 137.574 33.9436V33.4623ZM134.335 31.5025L132.139 31.1074C132.386 30.2256 132.811 29.5727 133.413 29.1485C134.017 28.7243 134.912 28.5123 136.101 28.5123C137.18 28.5123 137.985 28.6399 138.512 28.8951C139.04 29.1494 139.413 29.4732 139.628 29.8657C139.843 30.2582 139.951 30.9789 139.951 32.027L139.925 34.8456C139.925 35.6482 139.964 36.2395 140.041 36.6206C140.119 37.0016 140.264 37.4099 140.476 37.8447H138.082C138.019 37.6845 137.941 37.4469 137.849 37.1319C137.809 36.9884 137.78 36.8943 137.763 36.8485C137.35 37.2489 136.908 37.5499 136.437 37.7505C135.966 37.9511 135.463 38.0515 134.929 38.0515C133.988 38.0515 133.246 37.7963 132.703 37.2867C132.16 36.7763 131.889 36.1322 131.889 35.3525C131.889 34.8368 132.012 34.3775 132.26 33.9735C132.507 33.5696 132.852 33.2607 133.297 33.0451C133.742 32.8304 134.384 32.643 135.222 32.4828C136.353 32.2707 137.137 32.0727 137.574 31.8897V31.6486C137.574 31.1848 137.459 30.8539 137.229 30.6568C137 30.4588 136.566 30.3603 135.929 30.3603C135.497 30.3603 135.162 30.4447 134.921 30.6137C134.68 30.7827 134.484 31.0792 134.335 31.5025V31.5025Z"
    fill="white"
  />
<path
    fill-rule="evenodd"
    clip-rule="evenodd"
    d="M74.9784 6.16809H77.5282V12.9916C77.5282 14.074 77.56 14.7763 77.6226 15.0966C77.732 15.6123 77.9913 16.0267 78.4023 16.3391C78.8133 16.6515 79.3733 16.8073 80.086 16.8073C80.8092 16.8073 81.3543 16.6603 81.7221 16.3647C82.0899 16.0699 82.3104 15.7073 82.3853 15.2779C82.4603 14.8475 82.4973 14.1347 82.4973 13.1377V6.16809H85.0472V12.7857C85.0472 14.2975 84.9784 15.3667 84.8408 15.9907C84.7023 16.6155 84.4483 17.1426 84.0779 17.572C83.7074 18.0015 83.2126 18.3447 82.5926 18.599C81.9726 18.8542 81.1629 18.9818 80.1636 18.9818C78.9579 18.9818 78.0433 18.8427 77.4206 18.5647C76.7979 18.2866 76.3049 17.9258 75.9433 17.4814C75.5817 17.0387 75.3427 16.5723 75.228 16.0857C75.0622 15.3632 74.9784 14.2975 74.9784 12.8887V6.16809Z"
    fill="white"
  />
<path
    fill-rule="evenodd"
    clip-rule="evenodd"
    d="M95.5087 18.7665H93.0885V14.1087C93.0885 13.124 93.0365 12.486 92.9333 12.1965C92.8301 11.9078 92.6616 11.6825 92.4297 11.5224C92.1968 11.3622 91.9172 11.2813 91.59 11.2813C91.1702 11.2813 90.7945 11.3965 90.4611 11.6253C90.1277 11.855 89.9001 12.1577 89.7767 12.5361C89.6532 12.9145 89.5914 13.6141 89.5914 14.6332V18.7665H87.1713V9.64006H89.4195V10.9803C90.2176 9.94894 91.2222 9.43414 92.4341 9.43414C92.9677 9.43414 93.4563 9.53006 93.8982 9.7219C94.3401 9.91374 94.6752 10.1593 94.9019 10.4567C95.1277 10.755 95.2864 11.0921 95.3755 11.4705C95.4637 11.8489 95.5087 12.3901 95.5087 13.0949V18.7665Z"
    fill="white"
  />
<path
    fill-rule="evenodd"
    clip-rule="evenodd"
    d="M97.5222 18.7669H99.9424V9.64039H97.5222V18.7669ZM97.5222 8.40223H99.9424V6.16791H97.5222V8.40223Z"
    fill="white"
  />
<path
    fill-rule="evenodd"
    clip-rule="evenodd"
    d="M103.903 14.2033C103.903 15.1088 104.118 15.8013 104.549 16.2827C104.98 16.7641 105.511 17.0052 106.142 17.0052C106.774 17.0052 107.303 16.7641 107.732 16.2827C108.16 15.8013 108.373 15.1026 108.373 14.1857C108.373 13.2925 108.16 12.6052 107.732 12.1238C107.303 11.6425 106.774 11.4013 106.142 11.4013C105.511 11.4013 104.98 11.6425 104.549 12.1238C104.118 12.6052 103.903 13.2986 103.903 14.2033M101.422 14.0748C101.422 13.2722 101.62 12.4969 102.016 11.7454C102.413 10.9948 102.974 10.4219 103.701 10.0268C104.427 9.63165 105.238 9.43365 106.134 9.43365C107.518 9.43365 108.652 9.88245 109.536 10.7783C110.421 11.6759 110.863 12.8085 110.863 14.1777C110.863 15.5585 110.417 16.7033 109.523 17.6106C108.63 18.5188 107.506 18.9729 106.151 18.9729C105.313 18.9729 104.512 18.7837 103.752 18.4053C102.992 18.0277 102.413 17.4733 102.016 16.7429C101.62 16.0125 101.422 15.1229 101.422 14.0748"
    fill="white"
  />
<path
    fill-rule="evenodd"
    clip-rule="evenodd"
    d="M120.637 18.7665H118.217V14.1087C118.217 13.124 118.165 12.486 118.061 12.1965C117.958 11.9078 117.79 11.6825 117.558 11.5224C117.325 11.3622 117.045 11.2813 116.718 11.2813C116.298 11.2813 115.923 11.3965 115.589 11.6253C115.256 11.855 115.028 12.1577 114.905 12.5361C114.781 12.9145 114.719 13.6141 114.719 14.6332V18.7665H112.299V9.64006H114.548V10.9803C115.346 9.94894 116.35 9.43414 117.562 9.43414C118.096 9.43414 118.584 9.53006 119.026 9.7219C119.468 9.91374 119.803 10.1593 120.03 10.4567C120.256 10.755 120.414 11.0921 120.504 11.4705C120.592 11.8489 120.637 12.3901 120.637 13.0949V18.7665Z"
    fill="white"
  />
<path
    fill-rule="evenodd"
    clip-rule="evenodd"
    d="M128.526 13.4212C128.509 12.7225 128.328 12.1919 127.984 11.8267C127.639 11.4632 127.22 11.2811 126.726 11.2811C126.198 11.2811 125.761 11.4738 125.417 11.8575C125.073 12.2412 124.903 12.763 124.908 13.4212H128.526ZM128.389 15.8615L130.8 16.2654C130.491 17.148 130.001 17.8204 129.332 18.2806C128.662 18.7426 127.826 18.9732 126.821 18.9732C125.23 18.9732 124.054 18.4548 123.29 17.4173C122.687 16.5875 122.385 15.5385 122.385 14.2722C122.385 12.7595 122.781 11.575 123.574 10.7188C124.366 9.86252 125.368 9.43396 126.58 9.43396C127.941 9.43396 129.015 9.88276 129.801 10.7786C130.588 11.6762 130.964 13.049 130.93 14.8996H124.866C124.883 15.616 125.079 16.173 125.452 16.5708C125.825 16.9694 126.29 17.1683 126.847 17.1683C127.225 17.1683 127.545 17.0653 127.803 16.8585C128.062 16.6526 128.257 16.3208 128.389 15.8615V15.8615Z"
    fill="white"
  />
</svg>
