<svg
  width="219"
  height="44"
  viewBox="0 0 219 44"
  fill="none"
  xmlns="http://www.w3.org/2000/svg"
>
<path
    d="M28.6 29.0201C28.6 28.7001 28.6266 28.3601 28.68 28.0001C28.7466 27.6267 28.84 27.2334 28.96 26.8201C29.0933 26.3934 29.2533 25.9467 29.44 25.4801L30.88 26.0401C30.7466 26.4134 30.6266 26.7667 30.52 27.1001C30.4266 27.4334 30.3533 27.7467 30.3 28.0401C30.26 28.3334 30.24 28.6134 30.24 28.8801C30.24 29.4401 30.36 29.9134 30.6 30.3001C30.8533 30.7001 31.2 31.0267 31.64 31.2801C32.08 31.5334 32.58 31.7201 33.14 31.8401C33.7133 31.9601 34.32 32.0201 34.96 32.0201C35.7333 32.0201 36.4533 31.9534 37.12 31.8201C37.8 31.6867 38.3933 31.4934 38.9 31.2401C39.42 31.0001 39.8266 30.7201 40.12 30.4001C40.4133 30.0934 40.56 29.7601 40.56 29.4001C40.56 29.2267 40.4933 29.0667 40.36 28.9201C40.2266 28.7734 40.0266 28.6334 39.76 28.5001C39.4933 28.3667 39.1733 28.2401 38.8 28.1201C38.4266 27.9867 38 27.8534 37.52 27.7201L37.9 26.0601C38.5933 26.3267 39.2066 26.5534 39.74 26.7401C40.2733 26.9134 40.74 27.0534 41.14 27.1601C41.54 27.2667 41.8866 27.3467 42.18 27.4001C42.4733 27.4401 42.72 27.4601 42.92 27.4601C43.2 27.4601 43.4 27.5401 43.52 27.7001C43.6533 27.8467 43.72 28.0267 43.72 28.2401C43.72 28.4534 43.6266 28.6534 43.44 28.8401C43.2533 29.0134 43.0133 29.1001 42.72 29.1001C42.64 29.1001 42.56 29.1001 42.48 29.1001C42.4 29.1001 42.3133 29.1001 42.22 29.1001C42.14 29.1001 42.06 29.1001 41.98 29.1001C42.0066 29.2201 42.0266 29.3134 42.04 29.3801C42.0533 29.4601 42.06 29.5601 42.06 29.6801C42.06 30.1734 41.8866 30.6534 41.54 31.1201C41.2066 31.5867 40.7133 32.0067 40.06 32.3801C39.4066 32.7667 38.6133 33.0734 37.68 33.3001C36.76 33.5267 35.7066 33.6401 34.52 33.6401C33.4666 33.6401 32.4866 33.4667 31.58 33.1201C30.6866 32.7867 29.9666 32.2801 29.42 31.6001C28.8733 30.9201 28.6 30.0601 28.6 29.0201ZM35.96 37.4201C35.68 37.4201 35.44 37.3201 35.24 37.1201C35.0533 36.9334 34.96 36.7067 34.96 36.4401C34.96 36.1734 35.0533 35.9401 35.24 35.7401C35.44 35.5401 35.68 35.4401 35.96 35.4401C36.2266 35.4401 36.4533 35.5401 36.64 35.7401C36.84 35.9401 36.94 36.1734 36.94 36.4401C36.94 36.7067 36.84 36.9334 36.64 37.1201C36.4533 37.3201 36.2266 37.4201 35.96 37.4201ZM33.22 37.4201C32.94 37.4201 32.7 37.3201 32.5 37.1201C32.3133 36.9334 32.22 36.7067 32.22 36.4401C32.22 36.1734 32.3133 35.9401 32.5 35.7401C32.7 35.5401 32.94 35.4401 33.22 35.4401C33.4866 35.4401 33.7133 35.5401 33.9 35.7401C34.1 35.9401 34.2 36.1734 34.2 36.4401C34.2 36.7067 34.1 36.9334 33.9 37.1201C33.7133 37.3201 33.4866 37.4201 33.22 37.4201Z"
    fill="white"
  />
<path
    d="M42.7265 29.1001L42.9265 27.4601C43.5799 27.4601 44.0999 27.4201 44.4865 27.3401C44.8732 27.2601 45.1532 27.1001 45.3265 26.8601C45.4999 26.6067 45.5865 26.2334 45.5865 25.7401C45.5865 25.4067 45.5332 25.0134 45.4265 24.5601C45.3199 24.0934 45.1799 23.6001 45.0065 23.0801C44.8332 22.5601 44.6465 22.0467 44.4465 21.5401L46.0665 20.9401C46.2399 21.3667 46.3999 21.8534 46.5465 22.4001C46.7065 22.9467 46.8399 23.4867 46.9465 24.0201C47.0532 24.5534 47.1065 25.0201 47.1065 25.4201C47.1065 25.9534 47.0465 26.4267 46.9265 26.8401C46.8199 27.2401 46.6532 27.5867 46.4265 27.8801C46.1999 28.1601 45.9065 28.3934 45.5465 28.5801C45.1999 28.7534 44.7932 28.8867 44.3265 28.9801C43.8599 29.0601 43.3265 29.1001 42.7265 29.1001ZM44.8665 32.8201C44.5865 32.8201 44.3465 32.7201 44.1465 32.5201C43.9599 32.3334 43.8665 32.1067 43.8665 31.8401C43.8665 31.5734 43.9599 31.3401 44.1465 31.1401C44.3465 30.9401 44.5865 30.8401 44.8665 30.8401C45.1332 30.8401 45.3599 30.9401 45.5465 31.1401C45.7465 31.3401 45.8465 31.5734 45.8465 31.8401C45.8465 32.1067 45.7465 32.3334 45.5465 32.5201C45.3599 32.7201 45.1332 32.8201 44.8665 32.8201Z"
    fill="white"
  />
<path
    d="M49.2576 33.6001L48.8976 31.9601C49.6976 31.8534 50.431 31.7001 51.0976 31.5001C51.7776 31.3134 52.3576 31.0401 52.8376 30.6801C53.331 30.3201 53.711 29.8467 53.9776 29.2601C54.2443 28.6734 54.3776 27.9401 54.3776 27.0601C54.3776 26.6467 54.3376 26.2534 54.2576 25.8801C54.1776 25.4934 54.0576 25.1534 53.8976 24.8601C53.7376 24.5667 53.5443 24.3334 53.3176 24.1601C53.1043 23.9867 52.8576 23.9001 52.5776 23.9001C52.271 23.9001 51.991 24.0201 51.7376 24.2601C51.4976 24.4867 51.3043 24.7801 51.1576 25.1401C51.0243 25.5001 50.9576 25.8601 50.9576 26.2201C50.9576 26.5001 51.011 26.7467 51.1176 26.9601C51.2376 27.1601 51.431 27.3134 51.6976 27.4201C51.9643 27.5267 52.311 27.5801 52.7376 27.5801C53.1243 27.5801 53.511 27.5401 53.8976 27.4601C54.2976 27.3801 54.6376 27.2734 54.9176 27.1401L54.9976 28.5401C54.6776 28.7667 54.2976 28.9267 53.8576 29.0201C53.431 29.1134 52.9976 29.1601 52.5576 29.1601C52.051 29.1601 51.5976 29.1067 51.1976 29.0001C50.811 28.8934 50.4776 28.7401 50.1976 28.5401C49.931 28.3267 49.7243 28.0601 49.5776 27.7401C49.4443 27.4201 49.3776 27.0467 49.3776 26.6201C49.3776 26.1134 49.4576 25.6067 49.6176 25.1001C49.7776 24.5801 50.0043 24.1067 50.2976 23.6801C50.591 23.2534 50.9443 22.9134 51.3576 22.6601C51.771 22.3934 52.231 22.2601 52.7376 22.2601C53.271 22.2601 53.7376 22.4001 54.1376 22.6801C54.5376 22.9467 54.871 23.3134 55.1376 23.7801C55.4043 24.2467 55.6043 24.7734 55.7376 25.3601C55.871 25.9467 55.9376 26.5534 55.9376 27.1801C55.9376 28.4201 55.6843 29.4867 55.1776 30.3801C54.6843 31.2867 53.9376 32.0067 52.9376 32.5401C51.951 33.0734 50.7243 33.4267 49.2576 33.6001Z"
    fill="white"
  />
<path
    d="M57.1229 33.6001L56.5429 32.0801C57.8896 31.6534 58.9229 31.1401 59.6429 30.5401C60.3763 29.9534 60.8763 29.3401 61.1429 28.7001C61.4229 28.0601 61.5629 27.4467 61.5629 26.8601C61.5629 26.4867 61.5229 26.1267 61.4429 25.7801C61.3629 25.4334 61.2229 25.0401 61.0229 24.6001C60.8229 24.1601 60.5429 23.6134 60.1829 22.9601L61.6429 22.2201C62.1496 23.0867 62.5096 23.9067 62.7229 24.6801C62.9496 25.4534 63.0629 26.1334 63.0629 26.7201C63.0629 27.5601 62.9229 28.3201 62.6429 29.0001C62.3763 29.6801 62.0163 30.2801 61.5629 30.8001C61.1229 31.3334 60.6363 31.7867 60.1029 32.1601C59.5829 32.5334 59.0563 32.8401 58.5229 33.0801C58.0029 33.3201 57.5363 33.4934 57.1229 33.6001Z"
    fill="white"
  />
<path
    d="M65.5467 33.6001L65.1867 31.9601C65.9867 31.8534 66.72 31.7001 67.3867 31.5001C68.0667 31.3134 68.6467 31.0401 69.1267 30.6801C69.62 30.3201 70 29.8467 70.2667 29.2601C70.5334 28.6734 70.6667 27.9401 70.6667 27.0601C70.6667 26.6467 70.6267 26.2534 70.5467 25.8801C70.4667 25.4934 70.3467 25.1534 70.1867 24.8601C70.0267 24.5667 69.8334 24.3334 69.6067 24.1601C69.3934 23.9867 69.1467 23.9001 68.8667 23.9001C68.56 23.9001 68.28 24.0201 68.0267 24.2601C67.7867 24.4867 67.5934 24.7801 67.4467 25.1401C67.3134 25.5001 67.2467 25.8601 67.2467 26.2201C67.2467 26.5001 67.3 26.7467 67.4067 26.9601C67.5267 27.1601 67.72 27.3134 67.9867 27.4201C68.2534 27.5267 68.6 27.5801 69.0267 27.5801C69.4134 27.5801 69.8 27.5401 70.1867 27.4601C70.5867 27.3801 70.9267 27.2734 71.2067 27.1401L71.2867 28.5401C70.9667 28.7667 70.5867 28.9267 70.1467 29.0201C69.72 29.1134 69.2867 29.1601 68.8467 29.1601C68.34 29.1601 67.8867 29.1067 67.4867 29.0001C67.1 28.8934 66.7667 28.7401 66.4867 28.5401C66.22 28.3267 66.0134 28.0601 65.8667 27.7401C65.7334 27.4201 65.6667 27.0467 65.6667 26.6201C65.6667 26.1134 65.7467 25.6067 65.9067 25.1001C66.0667 24.5801 66.2934 24.1067 66.5867 23.6801C66.88 23.2534 67.2334 22.9134 67.6467 22.6601C68.06 22.3934 68.52 22.2601 69.0267 22.2601C69.56 22.2601 70.0267 22.4001 70.4267 22.6801C70.8267 22.9467 71.16 23.3134 71.4267 23.7801C71.6934 24.2467 71.8934 24.7734 72.0267 25.3601C72.16 25.9467 72.2267 26.5534 72.2267 27.1801C72.2267 28.4201 71.9734 29.4867 71.4667 30.3801C70.9734 31.2867 70.2267 32.0067 69.2267 32.5401C68.24 33.0734 67.0134 33.4267 65.5467 33.6001Z"
    fill="white"
  />
<path
    d="M81.192 18.2801C81.192 17.9867 81.172 17.6334 81.132 17.2201C81.092 16.8067 81.0453 16.3934 80.992 15.9801C80.9387 15.5667 80.8853 15.2134 80.832 14.9201L82.552 14.7201C82.592 14.9867 82.632 15.3401 82.672 15.7801C82.7253 16.2067 82.7653 16.6334 82.792 17.0601C82.8187 17.4867 82.832 17.8401 82.832 18.1201C82.832 18.7601 82.7853 19.3867 82.692 20.0001C82.612 20.6001 82.4787 21.1934 82.292 21.7801C82.1053 22.3534 81.8587 22.9134 81.552 23.4601L81.312 23.9001C80.9387 24.5267 80.4787 25.1334 79.932 25.7201C79.3853 26.2934 78.7453 26.8401 78.012 27.3601H80.532C80.9853 27.3601 81.332 27.3067 81.572 27.2001C81.812 27.0801 81.972 26.9267 82.052 26.7401C82.1453 26.5534 82.192 26.3534 82.192 26.1401C82.192 25.7801 81.972 25.3334 81.532 24.8001C81.1053 24.2534 80.512 23.6534 79.752 23.0001C78.992 22.3334 78.132 21.6334 77.172 20.9001C76.212 20.1667 75.1987 19.4201 74.132 18.6601L75.072 17.3401C76.2987 18.2467 77.3787 19.0667 78.312 19.8001C79.2587 20.5334 80.0653 21.2067 80.732 21.8201C81.412 22.4201 81.9653 22.9801 82.392 23.5001C82.832 24.0067 83.152 24.4934 83.352 24.9601C83.5653 25.4134 83.672 25.8601 83.672 26.3001C83.672 26.5934 83.6187 26.9001 83.512 27.2201C83.4187 27.5267 83.2453 27.8201 82.992 28.1001C82.752 28.3667 82.4053 28.5867 81.952 28.7601C81.512 28.9201 80.9387 29.0001 80.232 29.0001H75.632V27.3801C77.0053 26.3934 78.092 25.4334 78.892 24.5001C79.7053 23.5667 80.292 22.5934 80.652 21.5801C81.012 20.5667 81.192 19.4667 81.192 18.2801ZM73.852 16.2801L73.612 15.2001C73.9587 15.1201 74.2387 15.0534 74.452 15.0001C74.6653 14.9467 74.9053 14.8867 75.172 14.8201L75.072 15.2401C74.7253 15.1334 74.392 14.9067 74.072 14.5601C73.7653 14.2134 73.612 13.8201 73.612 13.3801C73.612 12.9801 73.7053 12.6467 73.892 12.3801C74.092 12.1001 74.3453 11.8934 74.652 11.7601C74.972 11.6267 75.312 11.5601 75.672 11.5601C75.8187 11.5601 75.972 11.5734 76.132 11.6001C76.3053 11.6267 76.4653 11.6667 76.612 11.7201L76.452 12.7201C76.3187 12.6934 76.192 12.6667 76.072 12.6401C75.952 12.6134 75.8187 12.6001 75.672 12.6001C75.3653 12.6001 75.1253 12.6667 74.952 12.8001C74.7787 12.9201 74.692 13.0934 74.692 13.3201C74.692 13.6001 74.7787 13.8401 74.952 14.0401C75.1387 14.2401 75.3453 14.4001 75.572 14.5201C75.812 14.6267 76.0053 14.6801 76.152 14.6801L75.332 14.7601C75.692 14.6667 76.0253 14.5734 76.332 14.4801C76.652 14.3734 76.9387 14.2734 77.192 14.1801L77.512 15.2001C77.192 15.3201 76.812 15.4467 76.372 15.5801C75.9453 15.7134 75.512 15.8401 75.072 15.9601C74.632 16.0801 74.2253 16.1867 73.852 16.2801Z"
    fill="white"
  />
<path
    d="M86.8126 29.0001L86.4126 14.7201H88.0326L88.4326 29.0001H86.8126Z"
    fill="white"
  />
<path
    d="M95.6336 28.1001L96.4336 26.7201C96.7002 26.8934 97.0736 27.0601 97.5536 27.2201C98.0336 27.3801 98.5936 27.4601 99.2336 27.4601C99.9002 27.4601 100.427 27.3934 100.814 27.2601C101.214 27.1267 101.5 26.9334 101.674 26.6801C101.86 26.4134 101.954 26.1067 101.954 25.7601C101.954 25.4934 101.894 25.1667 101.774 24.7801C101.667 24.3801 101.427 23.8467 101.054 23.1801C100.68 22.5001 100.107 21.6134 99.3336 20.5201L100.714 19.6201C101.42 20.5934 101.98 21.4734 102.394 22.2601C102.82 23.0467 103.12 23.7401 103.294 24.3401C103.48 24.9267 103.574 25.4334 103.574 25.8601C103.574 26.3934 103.44 26.9134 103.174 27.4201C102.907 27.9134 102.46 28.3201 101.834 28.6401C101.207 28.9601 100.34 29.1201 99.2336 29.1201C98.7536 29.1201 98.2869 29.0801 97.8336 29.0001C97.3936 28.9201 96.9869 28.8067 96.6136 28.6601C96.2402 28.5001 95.9136 28.3134 95.6336 28.1001Z"
    fill="white"
  />
<path
    d="M110.285 29.1001C109.218 29.1001 108.398 28.9801 107.825 28.7401C107.265 28.5001 106.878 28.1267 106.665 27.6201C106.451 27.1134 106.331 26.4601 106.305 25.6601L105.905 14.7201H107.545L107.945 25.0201C107.971 25.6734 108.031 26.1801 108.125 26.5401C108.231 26.8867 108.458 27.1267 108.805 27.2601C109.165 27.3934 109.725 27.4601 110.485 27.4601C110.765 27.4601 110.965 27.5401 111.085 27.7001C111.218 27.8467 111.285 28.0267 111.285 28.2401C111.285 28.4534 111.191 28.6534 111.005 28.8401C110.818 29.0134 110.578 29.1001 110.285 29.1001Z"
    fill="white"
  />
<path
    d="M123.025 29.1001C122.465 29.1001 121.952 29.0667 121.485 29.0001C121.018 28.9201 120.598 28.7801 120.225 28.5801C119.852 28.3801 119.538 28.0934 119.285 27.7201C119.032 27.3334 118.838 26.8267 118.705 26.2001L119.885 25.5001C120.058 26.0334 120.272 26.4401 120.525 26.7201C120.778 27.0001 121.118 27.1934 121.545 27.3001C121.985 27.4067 122.545 27.4601 123.225 27.4601C123.505 27.4601 123.705 27.5401 123.825 27.7001C123.958 27.8467 124.025 28.0267 124.025 28.2401C124.025 28.4534 123.932 28.6534 123.745 28.8401C123.558 29.0134 123.318 29.1001 123.025 29.1001ZM110.285 29.1001L110.465 27.4601C111.158 27.4601 111.838 27.4067 112.505 27.3001C113.172 27.1934 113.825 27.0401 114.465 26.8401C115.105 26.6401 115.718 26.4001 116.305 26.1201C116.905 25.8267 117.472 25.4934 118.005 25.1201C117.658 24.8134 117.258 24.5467 116.805 24.3201C116.352 24.0934 115.852 23.9201 115.305 23.8001C114.772 23.6667 114.205 23.6001 113.605 23.6001C113.392 23.6001 113.192 23.6067 113.005 23.6201C112.818 23.6334 112.632 23.6601 112.445 23.7001C112.258 23.7267 112.045 23.7667 111.805 23.8201L111.485 22.3001C111.845 22.1934 112.205 22.1134 112.565 22.0601C112.925 21.9934 113.272 21.9601 113.605 21.9601C114.298 21.9601 114.925 22.0467 115.485 22.2201C116.045 22.3801 116.552 22.5801 117.005 22.8201C117.472 23.0601 117.905 23.3001 118.305 23.5401C118.718 23.7801 119.118 23.9867 119.505 24.1601C119.892 24.3201 120.292 24.4001 120.705 24.4001H121.125L121.265 25.8401C120.692 25.8401 120.165 25.9201 119.685 26.0801C119.205 26.2401 118.732 26.4467 118.265 26.7001C117.812 26.9401 117.332 27.2001 116.825 27.4801C116.318 27.7467 115.758 28.0067 115.145 28.2601C114.532 28.5001 113.825 28.7001 113.025 28.8601C112.238 29.0201 111.325 29.1001 110.285 29.1001Z"
    fill="white"
  />
<path
    d="M123.02 29.1001L123.22 27.4601C124.006 27.4601 124.62 27.4334 125.06 27.3801C125.5 27.3134 125.813 27.1601 126 26.9201C126.186 26.6667 126.28 26.2734 126.28 25.7401C126.28 25.4067 126.226 25.0134 126.12 24.5601C126.013 24.0934 125.873 23.6001 125.7 23.0801C125.526 22.5601 125.34 22.0467 125.14 21.5401L126.76 20.9401C126.933 21.3667 127.093 21.8534 127.24 22.4001C127.4 22.9467 127.533 23.4867 127.64 24.0201C127.746 24.5534 127.8 25.0201 127.8 25.4201C127.8 26.0867 127.706 26.6534 127.52 27.1201C127.346 27.5867 127.066 27.9667 126.68 28.2601C126.293 28.5534 125.793 28.7667 125.18 28.9001C124.58 29.0334 123.86 29.1001 123.02 29.1001ZM127.38 18.8601C127.1 18.8601 126.86 18.7667 126.66 18.5801C126.473 18.3801 126.38 18.1467 126.38 17.8801C126.38 17.6134 126.473 17.3801 126.66 17.1801C126.86 16.9801 127.1 16.8801 127.38 16.8801C127.646 16.8801 127.873 16.9801 128.06 17.1801C128.26 17.3801 128.36 17.6134 128.36 17.8801C128.36 18.1467 128.26 18.3801 128.06 18.5801C127.873 18.7667 127.646 18.8601 127.38 18.8601ZM124.64 18.8601C124.36 18.8601 124.12 18.7667 123.92 18.5801C123.733 18.3801 123.64 18.1467 123.64 17.8801C123.64 17.6134 123.733 17.3801 123.92 17.1801C124.12 16.9801 124.36 16.8801 124.64 16.8801C124.906 16.8801 125.133 16.9801 125.32 17.1801C125.52 17.3801 125.62 17.6134 125.62 17.8801C125.62 18.1467 125.52 18.3801 125.32 18.5801C125.133 18.7667 124.906 18.8601 124.64 18.8601Z"
    fill="white"
  />
<path
    d="M136.856 18.2801C136.856 17.9867 136.836 17.6334 136.796 17.2201C136.756 16.8067 136.709 16.3934 136.656 15.9801C136.603 15.5667 136.549 15.2134 136.496 14.9201L138.216 14.7201C138.256 14.9867 138.296 15.3401 138.336 15.7801C138.389 16.2067 138.429 16.6334 138.456 17.0601C138.483 17.4867 138.496 17.8401 138.496 18.1201C138.496 18.7601 138.449 19.3867 138.356 20.0001C138.276 20.6001 138.143 21.1934 137.956 21.7801C137.769 22.3534 137.523 22.9134 137.216 23.4601L136.976 23.9001C136.603 24.5267 136.143 25.1334 135.596 25.7201C135.049 26.2934 134.409 26.8401 133.676 27.3601H136.196C136.649 27.3601 136.996 27.3067 137.236 27.2001C137.476 27.0801 137.636 26.9267 137.716 26.7401C137.809 26.5534 137.856 26.3534 137.856 26.1401C137.856 25.7801 137.636 25.3334 137.196 24.8001C136.769 24.2534 136.176 23.6534 135.416 23.0001C134.656 22.3334 133.796 21.6334 132.836 20.9001C131.876 20.1667 130.863 19.4201 129.796 18.6601L130.736 17.3401C131.963 18.2467 133.043 19.0667 133.976 19.8001C134.923 20.5334 135.729 21.2067 136.396 21.8201C137.076 22.4201 137.629 22.9801 138.056 23.5001C138.496 24.0067 138.816 24.4934 139.016 24.9601C139.229 25.4134 139.336 25.8601 139.336 26.3001C139.336 26.5934 139.283 26.9001 139.176 27.2201C139.083 27.5267 138.909 27.8201 138.656 28.1001C138.416 28.3667 138.069 28.5867 137.616 28.7601C137.176 28.9201 136.603 29.0001 135.896 29.0001H131.296V27.3801C132.669 26.3934 133.756 25.4334 134.556 24.5001C135.369 23.5667 135.956 22.5934 136.316 21.5801C136.676 20.5667 136.856 19.4667 136.856 18.2801Z"
    fill="white"
  />
<path
    d="M142.477 29.0001L142.077 14.7201H143.697L144.097 29.0001H142.477Z"
    fill="white"
  />
<rect x="154.878" y="0.879883" width="63.2432" height="42.24" fill="#003399" />
<path
    fill-rule="evenodd"
    clip-rule="evenodd"
    d="M184.339 7.74416L185.674 8.72096L185.165 10.3138L186.5 9.32816L187.835 10.3138L187.326 8.72096L188.661 7.74416H187.009L186.5 6.16016L185.991 7.74416H184.339ZM187.835 37.8401L187.326 36.2561L188.661 35.2793H187.009L186.5 33.6865L185.991 35.2793H184.339L185.674 36.2561L185.165 37.8401L186.5 36.8633L187.835 37.8401ZM172.85 23.0566L171.515 24.0422L172.024 22.4582L170.689 21.5078H172.341L172.85 19.9238L173.359 21.5078H175.02L173.676 22.4934L174.185 24.0774L172.85 23.0918V23.0566ZM181.01 12.1438L180.501 10.5598L181.836 9.59181H180.184L179.675 8.00781L179.166 9.59181H177.514L178.849 10.5686L178.34 12.1526L179.675 11.1758L181.01 12.1438ZM174.203 14.626L174.712 13.042L175.23 14.626H176.838L175.503 15.6116L176.012 17.1956L174.668 16.21L173.324 17.1956L173.834 15.6116L172.499 14.626H174.203ZM174.203 28.3887H172.516H172.499L173.834 29.3743L173.324 30.9583L174.668 29.9815L176.012 30.9583L175.503 29.3743L176.838 28.3887H175.23L174.712 26.8047L174.203 28.3887ZM178.849 34.4084L177.514 33.4404H179.166L179.675 31.8564L180.184 33.4404H181.836L180.501 34.4084L181.01 35.9924L179.675 35.0156L178.34 35.9924L178.849 34.4084ZM201.485 24.0774L200.976 22.4934L202.311 21.5078H200.695L200.185 19.9238L199.676 21.5078H197.963L199.307 22.4934L198.797 24.0774L200.15 23.0918L201.485 24.0774ZM192.499 10.5598L191.164 9.59181H192.816L193.325 8.00781L193.834 9.59181H195.486L194.151 10.5598L194.66 12.1438L193.325 11.1758L191.99 12.1526L192.499 10.5686V10.5598ZM198.288 13.0332L197.77 14.6172L196.162 14.626L197.489 15.6116L196.979 17.1956L198.323 16.21L199.658 17.1956L199.149 15.6116L200.449 14.6172H198.797L198.288 13.0332ZM198.841 28.3887H200.449L199.149 29.3743L199.658 30.9583L198.323 29.9815L196.979 30.9583L197.489 29.3743L196.162 28.3887H197.814L198.332 26.8047L198.841 28.3887ZM194.151 34.4084L195.486 33.4404H193.834L193.325 31.8564L192.816 33.4404H191.164L192.499 34.4084L191.99 35.9924L193.325 35.0156L194.66 35.9924L194.151 34.4084Z"
    fill="#FFCC00"
  />
<path
    fill-rule="evenodd"
    clip-rule="evenodd"
    d="M219 44H154V0H219V44ZM218.122 0.879883H154.878V43.1199H218.122V0.879883Z"
    fill="white"
  />
</svg>
