<svg
  width="211"
  height="44"
  viewBox="0 0 211 44"
  fill="none"
  xmlns="http://www.w3.org/2000/svg"
>
<rect x="0.878418" y="0.880005" width="63.2432" height="42.24" fill="#003399" />
<path
    fill-rule="evenodd"
    clip-rule="evenodd"
    d="M30.3392 7.744L31.6743 8.7208L31.1649 10.3136L32.5 9.328L33.8352 10.3136L33.3257 8.7208L34.6608 7.744H33.0095L32.5 6.16L31.9906 7.744H30.3392ZM33.8352 37.84L33.3257 36.256L34.6608 35.2792H33.0095L32.5 33.6864L31.9906 35.2792H30.3392L31.6743 36.256L31.1649 37.84L32.5 36.8632L33.8352 37.84ZM18.85 23.056L17.5149 24.0416L18.0243 22.4576L16.6892 21.5072H18.3406L18.85 19.9232L19.3595 21.5072H21.0196L19.6757 22.4928L20.1852 24.0768L18.85 23.0912V23.056ZM27.0102 12.144L26.5007 10.56L27.8358 9.592H26.1845L25.675 8.008L25.1656 9.592H23.5142L24.8493 10.5688L24.3399 12.1528L25.675 11.176L27.0102 12.144ZM20.2027 14.6256L20.7122 13.0416L21.2304 14.6256H22.8379L21.5027 15.6112L22.0122 17.1952L20.6683 16.2096L19.3243 17.1952L19.8338 15.6112L18.4987 14.6256H20.2027ZM20.7122 26.8048L20.2027 28.3888H18.5162H18.4987L19.8338 29.3744L19.3243 30.9584L20.6683 29.9816L22.0122 30.9584L21.5027 29.3744L22.8379 28.3888H21.2304L20.7122 26.8048ZM24.8493 34.408L23.5142 33.44H25.1656L25.675 31.856L26.1845 33.44H27.8358L26.5007 34.408L27.0102 35.992L25.675 35.0152L24.3399 35.992L24.8493 34.408ZM47.4852 24.0768L46.9757 22.4928L48.3108 21.5072H46.6946L46.1852 19.9232L45.6757 21.5072H43.9629L45.3068 22.4928L44.7973 24.0768L46.15 23.0912L47.4852 24.0768ZM38.4993 10.56L37.1642 9.592H38.8156L39.325 8.008L39.8345 9.592H41.4858L40.1507 10.56L40.6602 12.144L39.325 11.176L37.9899 12.1528L38.4993 10.5688V10.56ZM44.2879 13.0328L43.7696 14.6168L42.1622 14.6256L43.4885 15.6112L42.9791 17.1952L44.323 16.2096L45.6581 17.1952L45.1487 15.6112L46.4487 14.6168H44.7973L44.2879 13.0328ZM44.8412 28.3888H46.4487L45.1487 29.3744L45.6581 30.9584L44.323 29.9816L42.9791 30.9584L43.4885 29.3744L42.1622 28.3888H43.8135L44.3318 26.8048L44.8412 28.3888ZM40.1507 34.408L41.4858 33.44H39.8345L39.325 31.856L38.8156 33.44H37.1642L38.4993 34.408L37.9899 35.992L39.325 35.0152L40.6602 35.992L40.1507 34.408Z"
    fill="#FFCC00"
  />
<path
    fill-rule="evenodd"
    clip-rule="evenodd"
    d="M65 44H0V0H65V44ZM64.1216 0.88H0.878378V43.12H64.1216V0.88Z"
    fill="white"
  />
<path
    fill-rule="evenodd"
    clip-rule="evenodd"
    d="M74.7577 25.2465H77.2998V32.07C77.2998 33.1524 77.3323 33.8547 77.3939 34.175C77.5038 34.6907 77.7614 35.1051 78.1721 35.4175C78.5809 35.7299 79.1402 35.8857 79.8498 35.8857C80.5708 35.8857 81.1151 35.7379 81.4809 35.4431C81.8484 35.1474 82.0683 34.7857 82.1421 34.3563C82.2178 33.9259 82.2538 33.2131 82.2538 32.2161V25.2465H84.7959V31.8641C84.7959 33.3759 84.7273 34.4451 84.5901 35.0691C84.4521 35.6939 84.1997 36.221 83.8304 36.6504C83.4611 37.0799 82.9669 37.4222 82.3488 37.6774C81.7306 37.9326 80.9234 38.0602 79.9272 38.0602C78.7251 38.0602 77.8133 37.9211 77.1934 37.6431C76.5717 37.365 76.0802 37.0042 75.7197 36.5598C75.3591 36.1163 75.1217 35.6507 75.0065 35.1641C74.8421 34.4416 74.7577 33.3759 74.7577 31.9671V25.2465Z"
    fill="white"
  />
<path
    fill-rule="evenodd"
    clip-rule="evenodd"
    d="M95.2257 37.8449H92.8129V33.1871C92.8129 32.2015 92.761 31.5644 92.6581 31.2748C92.5552 30.9862 92.3882 30.7609 92.1569 30.6008C91.9248 30.4397 91.6451 30.3596 91.3189 30.3596C90.9012 30.3596 90.5267 30.4749 90.1934 30.7037C89.8619 30.9325 89.6342 31.2361 89.5119 31.6145C89.388 31.9929 89.3264 32.6916 89.3264 33.7116V37.8449H86.9136V28.7184H89.1549V30.0587C89.9516 29.0273 90.9531 28.5125 92.1604 28.5125C92.6924 28.5125 93.1804 28.6076 93.6201 28.8003C94.0615 28.9921 94.3947 29.2368 94.6216 29.5351C94.8458 29.8325 95.0041 30.1704 95.0938 30.5488C95.1809 30.9272 95.2257 31.4684 95.2257 32.1733V37.8449Z"
    fill="white"
  />
<path
    fill-rule="evenodd"
    clip-rule="evenodd"
    d="M97.2332 37.8453H99.646V28.7188H97.2332V37.8453ZM97.2332 27.4806H99.646V25.2463H97.2332V27.4806Z"
    fill="white"
  />
<path
    fill-rule="evenodd"
    clip-rule="evenodd"
    d="M107.273 32.4996C107.256 31.8009 107.075 31.2694 106.732 30.905C106.389 30.5416 105.972 30.3594 105.479 30.3594C104.953 30.3594 104.517 30.5522 104.174 30.9358C103.83 31.3195 103.662 31.8405 103.666 32.4996H107.273ZM107.136 34.9398L109.54 35.3438C109.231 36.2264 108.743 36.8987 108.077 37.359C107.409 37.8201 106.576 38.0515 105.573 38.0515C103.988 38.0515 102.815 37.5323 102.053 36.4957C101.451 35.665 101.151 34.6169 101.151 33.3506C101.151 31.8378 101.545 30.6534 102.336 29.7971C103.126 28.9409 104.125 28.5123 105.333 28.5123C106.689 28.5123 107.761 28.9602 108.544 29.857C109.329 30.7537 109.704 32.1274 109.669 33.978H103.624C103.641 34.6943 103.837 35.2505 104.208 35.6491C104.58 36.0478 105.044 36.2466 105.599 36.2466C105.976 36.2466 106.295 36.1437 106.552 35.9369C106.81 35.731 107.005 35.3983 107.136 34.9398V34.9398Z"
    fill="white"
  />
<path
    fill-rule="evenodd"
    clip-rule="evenodd"
    d="M74.7681 18.7668V6.1687H84.1019V8.29918H77.3102V11.0923H83.6298V13.2149H77.3102V16.6442H84.3429V18.7668H74.7681Z"
    fill="white"
  />
<path
    fill-rule="evenodd"
    clip-rule="evenodd"
    d="M92.2367 18.7668V17.4001C91.9043 17.8868 91.4682 18.2713 90.9274 18.552C90.3866 18.8328 89.815 18.9727 89.2136 18.9727C88.6016 18.9727 88.052 18.8389 87.5658 18.5688C87.0786 18.2995 86.726 17.922 86.5088 17.4344C86.2917 16.9478 86.1826 16.2746 86.1826 15.4148V9.64029H88.5954V13.8344C88.5954 15.1174 88.6403 15.9041 88.7291 16.1928C88.817 16.4823 88.9797 16.712 89.2136 16.88C89.4484 17.049 89.7465 17.1344 90.107 17.1344C90.5194 17.1344 90.8887 17.0208 91.2149 16.7947C91.5411 16.5676 91.7645 16.2878 91.8849 15.9525C92.0045 15.6172 92.0652 14.7962 92.0652 13.4903V9.64029H94.478V18.7668H92.2367Z"
    fill="white"
  />
<path
    fill-rule="evenodd"
    clip-rule="evenodd"
    d="M99.0229 18.7668H96.6101V9.64031H98.8515V10.9383C99.2348 10.3249 99.5795 9.92103 99.8855 9.72655C100.192 9.53119 100.541 9.43439 100.929 9.43439C101.479 9.43439 102.009 9.58575 102.518 9.88935L101.771 11.9952C101.365 11.7312 100.986 11.5992 100.637 11.5992C100.3 11.5992 100.013 11.6925 99.7783 11.879C99.5444 12.0647 99.3597 12.4017 99.2243 12.8884C99.0898 13.3759 99.0229 14.3958 99.0229 15.9481V18.7668Z"
    fill="white"
  />
<path
    fill-rule="evenodd"
    clip-rule="evenodd"
    d="M105.208 14.2035C105.208 15.109 105.423 15.8016 105.852 16.283C106.282 16.7643 106.811 17.0054 107.441 17.0054C108.07 17.0054 108.598 16.7643 109.025 16.283C109.452 15.8016 109.665 15.1029 109.665 14.1859C109.665 13.2927 109.452 12.6054 109.025 12.1241C108.598 11.6427 108.07 11.4016 107.441 11.4016C106.811 11.4016 106.282 11.6427 105.852 12.1241C105.423 12.6054 105.208 13.298 105.208 14.2035M102.735 14.075C102.735 13.2725 102.933 12.4963 103.327 11.7457C103.723 10.995 104.282 10.4222 105.007 10.027C105.731 9.63193 106.54 9.43393 107.432 9.43393C108.813 9.43393 109.942 9.88185 110.824 10.7786C111.706 11.6753 112.147 12.8087 112.147 14.178C112.147 15.5587 111.702 16.7027 110.811 17.6109C109.92 18.519 108.8 18.9731 107.45 18.9731C106.614 18.9731 105.816 18.7839 105.058 18.4055C104.3 18.028 103.723 17.4736 103.327 16.7432C102.933 16.0128 102.735 15.1231 102.735 14.075"
    fill="white"
  />
<path
    fill-rule="evenodd"
    clip-rule="evenodd"
    d="M116.055 14.0488C116.055 15.0749 116.258 15.8317 116.665 16.3219C117.071 16.812 117.567 17.0567 118.151 17.0567C118.712 17.0567 119.179 16.8323 119.551 16.3817C119.922 15.932 120.108 15.1946 120.108 14.1694C120.108 13.212 119.917 12.5018 119.533 12.038C119.15 11.5734 118.675 11.342 118.108 11.342C117.518 11.342 117.028 11.5699 116.639 12.0248C116.251 12.4807 116.055 13.1548 116.055 14.0488V14.0488ZM113.668 9.64003H115.918V10.9812C116.21 10.5227 116.605 10.1504 117.103 9.86355C117.601 9.57667 118.153 9.43411 118.76 9.43411C119.819 9.43411 120.718 9.84947 121.457 10.6802C122.195 11.5109 122.564 12.6681 122.564 14.1518C122.564 15.676 122.192 16.8604 121.448 17.7052C120.703 18.5509 119.802 18.9733 118.743 18.9733C118.239 18.9733 117.783 18.873 117.373 18.6724C116.964 18.4717 116.534 18.1276 116.081 17.641V22.239H113.668V9.64003Z"
    fill="white"
  />
<path
    fill-rule="evenodd"
    clip-rule="evenodd"
    d="M129.722 13.4215C129.704 12.7228 129.524 12.1912 129.181 11.8269C128.837 11.4635 128.419 11.2813 127.927 11.2813C127.4 11.2813 126.965 11.474 126.622 11.8577C126.278 12.2414 126.109 12.7624 126.115 13.4215H129.722ZM129.584 15.8617L131.988 16.2656C131.68 17.1483 131.192 17.8206 130.524 18.2808C129.857 18.742 129.023 18.9734 128.021 18.9734C126.436 18.9734 125.263 18.4542 124.501 17.4176C123.9 16.5868 123.599 15.5388 123.599 14.2724C123.599 12.7597 123.994 11.5752 124.784 10.719C125.574 9.86276 126.573 9.4342 127.781 9.4342C129.138 9.4342 130.209 9.88212 130.992 10.7788C131.776 11.6756 132.152 13.0492 132.118 14.8999H126.072C126.089 15.6162 126.284 16.1724 126.656 16.571C127.028 16.9696 127.492 17.1685 128.047 17.1685C128.425 17.1685 128.743 17.0656 129 16.8588C129.258 16.6528 129.452 16.3202 129.584 15.8617V15.8617Z"
    fill="white"
  />
<path
    fill-rule="evenodd"
    clip-rule="evenodd"
    d="M133.234 16.1629L135.655 15.7933C135.758 16.2632 135.967 16.6196 136.282 16.8633C136.597 17.1071 137.038 17.2285 137.605 17.2285C138.229 17.2285 138.698 17.1141 139.012 16.8845C139.224 16.7243 139.331 16.5096 139.331 16.2403C139.331 16.0564 139.273 15.905 139.158 15.7845C139.039 15.6701 138.77 15.5645 138.351 15.4668C136.404 15.0373 135.172 14.6449 134.65 14.2893C133.929 13.7965 133.569 13.1119 133.569 12.2354C133.569 11.4452 133.88 10.7799 134.504 10.2413C135.129 9.70367 136.096 9.43439 137.407 9.43439C138.655 9.43439 139.582 9.63679 140.189 10.0442C140.797 10.4508 141.213 11.0527 141.443 11.8491L139.167 12.2697C139.071 11.9142 138.886 11.6423 138.613 11.4531C138.342 11.2648 137.954 11.1697 137.45 11.1697C136.814 11.1697 136.36 11.2586 136.084 11.4364C135.901 11.5622 135.81 11.7259 135.81 11.9265C135.81 12.0981 135.89 12.2442 136.05 12.3648C136.267 12.5249 137.019 12.7511 138.305 13.0433C139.59 13.3354 140.487 13.6936 140.996 14.1177C141.5 14.5472 141.752 15.1456 141.752 15.9138C141.752 16.7498 141.402 17.4688 140.704 18.0707C140.006 18.6726 138.972 18.9727 137.605 18.9727C136.362 18.9727 135.378 18.721 134.655 18.2168C133.931 17.7125 133.457 17.0279 133.234 16.1629"
    fill="white"
  />
<path
    fill-rule="evenodd"
    clip-rule="evenodd"
    d="M149.019 13.4215C149.002 12.7228 148.821 12.1912 148.478 11.8269C148.135 11.4635 147.717 11.2813 147.224 11.2813C146.698 11.2813 146.262 11.474 145.92 11.8577C145.576 12.2414 145.407 12.7624 145.412 13.4215H149.019ZM148.882 15.8617L151.286 16.2656C150.977 17.1483 150.489 17.8206 149.822 18.2808C149.155 18.742 148.321 18.9734 147.319 18.9734C145.733 18.9734 144.56 18.4542 143.799 17.4176C143.197 16.5868 142.896 15.5388 142.896 14.2724C142.896 12.7597 143.291 11.5752 144.082 10.719C144.871 9.86276 145.87 9.4342 147.078 9.4342C148.435 9.4342 149.506 9.88212 150.29 10.7788C151.074 11.6756 151.45 13.0492 151.415 14.8999H145.37C145.387 15.6162 145.582 16.1724 145.954 16.571C146.326 16.9696 146.789 17.1685 147.345 17.1685C147.722 17.1685 148.04 17.0656 148.298 16.8588C148.556 16.6528 148.75 16.3202 148.882 15.8617V15.8617Z"
    fill="white"
  />
</svg>
