<svg
  width="219"
  height="44"
  viewBox="0 0 219 44"
  fill="none"
  xmlns="http://www.w3.org/2000/svg"
>
<rect x="0.878357" y="0.880005" width="63.2432" height="42.24" fill="#003399" />
<path
    fill-rule="evenodd"
    clip-rule="evenodd"
    d="M30.3392 7.744L31.6743 8.7208L31.1649 10.3136L32.5 9.328L33.8352 10.3136L33.3257 8.7208L34.6608 7.744H33.0095L32.5 6.16L31.9906 7.744H30.3392ZM33.8352 37.84L33.3257 36.256L34.6608 35.2792H33.0095L32.5 33.6864L31.9906 35.2792H30.3392L31.6743 36.256L31.1649 37.84L32.5 36.8632L33.8352 37.84ZM18.85 23.056L17.5149 24.0416L18.0243 22.4576L16.6892 21.5072H18.3406L18.85 19.9232L19.3595 21.5072H21.0196L19.6757 22.4928L20.1852 24.0768L18.85 23.0912V23.056ZM27.0102 12.144L26.5007 10.56L27.8358 9.592H26.1845L25.675 8.008L25.1656 9.592H23.5142L24.8493 10.5688L24.3399 12.1528L25.675 11.176L27.0102 12.144ZM20.2027 14.6256L20.7122 13.0416L21.2304 14.6256H22.8379L21.5027 15.6112L22.0122 17.1952L20.6683 16.2096L19.3243 17.1952L19.8338 15.6112L18.4987 14.6256H20.2027ZM20.7122 26.8048L20.2027 28.3888H18.5162H18.4987L19.8338 29.3744L19.3243 30.9584L20.6683 29.9816L22.0122 30.9584L21.5027 29.3744L22.8379 28.3888H21.2304L20.7122 26.8048ZM24.8493 34.408L23.5142 33.44H25.1656L25.675 31.856L26.1845 33.44H27.8358L26.5007 34.408L27.0102 35.992L25.675 35.0152L24.3399 35.992L24.8493 34.408ZM47.4852 24.0768L46.9757 22.4928L48.3108 21.5072H46.6946L46.1852 19.9232L45.6757 21.5072H43.9629L45.3068 22.4928L44.7973 24.0768L46.15 23.0912L47.4852 24.0768ZM38.4993 10.56L37.1642 9.592H38.8156L39.325 8.008L39.8345 9.592H41.4858L40.1507 10.56L40.6602 12.144L39.325 11.176L37.9899 12.1528L38.4993 10.5688V10.56ZM44.2879 13.0328L43.7696 14.6168L42.1622 14.6256L43.4885 15.6112L42.9791 17.1952L44.323 16.2096L45.6581 17.1952L45.1487 15.6112L46.4487 14.6168H44.7973L44.2879 13.0328ZM44.8412 28.3888H46.4487L45.1487 29.3744L45.6581 30.9584L44.323 29.9816L42.9791 30.9584L43.4885 29.3744L42.1622 28.3888H43.8135L44.3318 26.8048L44.8412 28.3888ZM40.1507 34.408L41.4858 33.44H39.8345L39.325 31.856L38.8156 33.44H37.1642L38.4993 34.408L37.9899 35.992L39.325 35.0152L40.6602 35.992L40.1507 34.408Z"
    fill="#FFCC00"
  />
<path
    fill-rule="evenodd"
    clip-rule="evenodd"
    d="M65 44H0V0H65V44ZM64.1216 0.88H0.878378V43.12H64.1216V0.88Z"
    fill="white"
  />
<path
    d="M88.9287 19H86.0986L84.9736 16.0732H79.8232L78.7598 19H76L81.0186 6.11523H83.7695L88.9287 19ZM84.1387 13.9023L82.3633 9.12109L80.623 13.9023H84.1387Z"
    fill="white"
  />
<path
    d="M92.1982 19L88.4365 9.66602H91.0293L92.7871 14.4297L93.2969 16.0205C93.4316 15.6162 93.5166 15.3496 93.5518 15.2207C93.6338 14.957 93.7217 14.6934 93.8154 14.4297L95.5908 9.66602H98.1309L94.4219 19H92.1982Z"
    fill="white"
  />
<path
    d="M102.016 19H99.5459V9.66602H101.84V10.9932C102.232 10.3662 102.584 9.95312 102.895 9.75391C103.211 9.55469 103.568 9.45508 103.967 9.45508C104.529 9.45508 105.071 9.61035 105.593 9.9209L104.828 12.0742C104.412 11.8047 104.025 11.6699 103.668 11.6699C103.322 11.6699 103.029 11.7666 102.789 11.96C102.549 12.1475 102.358 12.4902 102.218 12.9883C102.083 13.4863 102.016 14.5293 102.016 16.1172V19Z"
    fill="white"
  />
<path
    d="M112.809 19V17.6025C112.469 18.1006 112.021 18.4932 111.464 18.7803C110.913 19.0674 110.33 19.2109 109.715 19.2109C109.088 19.2109 108.525 19.0732 108.027 18.7979C107.529 18.5225 107.169 18.1357 106.946 17.6377C106.724 17.1396 106.612 16.4512 106.612 15.5723V9.66602H109.082V13.9551C109.082 15.2676 109.126 16.0732 109.214 16.3721C109.308 16.665 109.475 16.8994 109.715 17.0752C109.955 17.2451 110.26 17.3301 110.629 17.3301C111.051 17.3301 111.429 17.2158 111.763 16.9873C112.097 16.7529 112.325 16.4658 112.448 16.126C112.571 15.7803 112.633 14.9395 112.633 13.6035V9.66602H115.103V19H112.809Z"
    fill="white"
  />
<path
    d="M117.599 9.66602H119.901V11.0371C120.2 10.5684 120.604 10.1875 121.114 9.89453C121.624 9.60156 122.189 9.45508 122.811 9.45508C123.895 9.45508 124.814 9.87988 125.57 10.7295C126.326 11.5791 126.704 12.7627 126.704 14.2803C126.704 15.8389 126.323 17.0518 125.562 17.9189C124.8 18.7803 123.877 19.2109 122.793 19.2109C122.277 19.2109 121.809 19.1084 121.387 18.9033C120.971 18.6982 120.531 18.3467 120.068 17.8486V22.5508H117.599V9.66602ZM120.042 14.1748C120.042 15.2236 120.25 16 120.666 16.5039C121.082 17.002 121.589 17.251 122.187 17.251C122.761 17.251 123.238 17.0225 123.619 16.5654C124 16.1025 124.19 15.3467 124.19 14.2979C124.19 13.3193 123.994 12.5928 123.602 12.1182C123.209 11.6436 122.723 11.4062 122.143 11.4062C121.539 11.4062 121.038 11.6406 120.64 12.1094C120.241 12.5723 120.042 13.2607 120.042 14.1748Z"
    fill="white"
  />
<path
    d="M130.519 12.5137L128.277 12.1094C128.529 11.207 128.963 10.5391 129.578 10.1055C130.193 9.67188 131.107 9.45508 132.32 9.45508C133.422 9.45508 134.242 9.58691 134.781 9.85059C135.32 10.1084 135.698 10.4395 135.915 10.8438C136.138 11.2422 136.249 11.9775 136.249 13.0498L136.223 15.9326C136.223 16.7529 136.261 17.3594 136.337 17.752C136.419 18.1387 136.568 18.5547 136.785 19H134.342C134.277 18.8359 134.198 18.5928 134.104 18.2705C134.063 18.124 134.034 18.0273 134.017 17.9805C133.595 18.3906 133.144 18.6982 132.663 18.9033C132.183 19.1084 131.67 19.2109 131.125 19.2109C130.164 19.2109 129.405 18.9502 128.849 18.4287C128.298 17.9072 128.022 17.248 128.022 16.4512C128.022 15.9238 128.148 15.4551 128.4 15.0449C128.652 14.6289 129.004 14.3125 129.455 14.0957C129.912 13.873 130.568 13.6797 131.424 13.5156C132.578 13.2988 133.378 13.0967 133.823 12.9092V12.6631C133.823 12.1885 133.706 11.8516 133.472 11.6523C133.237 11.4473 132.795 11.3447 132.145 11.3447C131.705 11.3447 131.362 11.4326 131.116 11.6084C130.87 11.7783 130.671 12.0801 130.519 12.5137ZM133.823 14.5176C133.507 14.623 133.006 14.749 132.32 14.8955C131.635 15.042 131.187 15.1855 130.976 15.3262C130.653 15.5547 130.492 15.8447 130.492 16.1963C130.492 16.542 130.621 16.8408 130.879 17.0928C131.137 17.3447 131.465 17.4707 131.863 17.4707C132.309 17.4707 132.733 17.3242 133.138 17.0312C133.437 16.8086 133.633 16.5361 133.727 16.2139C133.791 16.0029 133.823 15.6016 133.823 15.0098V14.5176Z"
    fill="white"
  />
<path
    d="M77.3184 25.1152H82.4688C83.4883 25.1152 84.2471 25.1592 84.7451 25.2471C85.249 25.3291 85.6973 25.5049 86.0898 25.7744C86.4883 26.0439 86.8193 26.4043 87.083 26.8555C87.3467 27.3008 87.4785 27.8018 87.4785 28.3584C87.4785 28.9619 87.3145 29.5156 86.9863 30.0195C86.6641 30.5234 86.2246 30.9014 85.668 31.1533C86.4531 31.3818 87.0566 31.7715 87.4785 32.3223C87.9004 32.873 88.1113 33.5205 88.1113 34.2646C88.1113 34.8506 87.9736 35.4219 87.6982 35.9785C87.4287 36.5293 87.0566 36.9717 86.582 37.3057C86.1133 37.6338 85.5332 37.8359 84.8418 37.9121C84.4082 37.959 83.3623 37.9883 81.7041 38H77.3184V25.1152ZM79.9199 27.2598V30.2393H81.625C82.6387 30.2393 83.2686 30.2246 83.5146 30.1953C83.96 30.1426 84.3086 29.9902 84.5605 29.7383C84.8184 29.4805 84.9473 29.1436 84.9473 28.7275C84.9473 28.3291 84.8359 28.0068 84.6133 27.7607C84.3965 27.5088 84.0713 27.3564 83.6377 27.3037C83.3799 27.2744 82.6387 27.2598 81.4141 27.2598H79.9199ZM79.9199 32.3838V35.8291H82.3281C83.2656 35.8291 83.8604 35.8027 84.1123 35.75C84.499 35.6797 84.8125 35.5098 85.0527 35.2402C85.2988 34.9648 85.4219 34.5986 85.4219 34.1416C85.4219 33.7549 85.3281 33.4268 85.1406 33.1572C84.9531 32.8877 84.6807 32.6914 84.3232 32.5684C83.9717 32.4453 83.2041 32.3838 82.0205 32.3838H79.9199Z"
    fill="white"
  />
<path
    d="M90.2998 27.4004V25.1152H92.7695V27.4004H90.2998ZM90.2998 38V28.666H92.7695V38H90.2998Z"
    fill="white"
  />
<path
    d="M97.6738 38H95.2041V28.666H97.498V29.9932C97.8906 29.3662 98.2422 28.9531 98.5527 28.7539C98.8691 28.5547 99.2266 28.4551 99.625 28.4551C100.188 28.4551 100.729 28.6104 101.251 28.9209L100.486 31.0742C100.07 30.8047 99.6836 30.6699 99.3262 30.6699C98.9805 30.6699 98.6875 30.7666 98.4473 30.96C98.207 31.1475 98.0166 31.4902 97.876 31.9883C97.7412 32.4863 97.6738 33.5293 97.6738 35.1172V38Z"
    fill="white"
  />
<path d="M102.323 38V25.1152H104.793V38H102.323Z" fill="white" />
<path
    d="M107.333 27.4004V25.1152H109.803V27.4004H107.333ZM107.333 38V28.666H109.803V38H107.333Z"
    fill="white"
  />
<path
    d="M112.114 38.6152L114.936 38.958C114.982 39.2861 115.091 39.5117 115.261 39.6348C115.495 39.8105 115.864 39.8984 116.368 39.8984C117.013 39.8984 117.496 39.8018 117.818 39.6084C118.035 39.4795 118.199 39.2715 118.311 38.9844C118.387 38.7793 118.425 38.4014 118.425 37.8506V36.4883C117.687 37.4961 116.755 38 115.63 38C114.376 38 113.383 37.4697 112.65 36.4092C112.076 35.5713 111.789 34.5283 111.789 33.2803C111.789 31.7158 112.164 30.5205 112.914 29.6943C113.67 28.8682 114.607 28.4551 115.727 28.4551C116.881 28.4551 117.833 28.9619 118.583 29.9756V28.666H120.895V37.042C120.895 38.1436 120.804 38.9668 120.622 39.5117C120.44 40.0566 120.186 40.4844 119.857 40.7949C119.529 41.1055 119.09 41.3486 118.539 41.5244C117.994 41.7002 117.303 41.7881 116.465 41.7881C114.883 41.7881 113.761 41.5156 113.099 40.9707C112.437 40.4316 112.105 39.7461 112.105 38.9141C112.105 38.832 112.108 38.7324 112.114 38.6152ZM114.32 33.1396C114.32 34.1299 114.511 34.8564 114.892 35.3193C115.278 35.7764 115.753 36.0049 116.315 36.0049C116.919 36.0049 117.429 35.7705 117.845 35.3018C118.261 34.8271 118.469 34.127 118.469 33.2012C118.469 32.2344 118.27 31.5166 117.871 31.0479C117.473 30.5791 116.969 30.3447 116.359 30.3447C115.768 30.3447 115.278 30.5762 114.892 31.0391C114.511 31.4961 114.32 32.1963 114.32 33.1396ZM117.854 24.8955H119.058C118.987 25.6924 118.706 26.3193 118.214 26.7764C117.728 27.2275 117.095 27.4531 116.315 27.4531C115.536 27.4531 114.9 27.2275 114.408 26.7764C113.922 26.3193 113.644 25.6924 113.573 24.8955H114.777C114.818 25.3115 114.965 25.6279 115.217 25.8447C115.469 26.0557 115.835 26.1611 116.315 26.1611C116.796 26.1611 117.162 26.0557 117.414 25.8447C117.666 25.6279 117.812 25.3115 117.854 24.8955Z"
    fill="white"
  />
<path
    d="M123.347 27.4004V25.1152H125.816V27.4004H123.347ZM123.347 38V28.666H125.816V38H123.347Z"
    fill="white"
  />
</svg>
