<svg
  width="211"
  height="44"
  viewBox="0 0 211 44"
  fill="none"
  xmlns="http://www.w3.org/2000/svg"
>
<rect x="0.878357" y="0.880005" width="63.2432" height="42.24" fill="#003399" />
<path
    fill-rule="evenodd"
    clip-rule="evenodd"
    d="M30.3392 7.74403L31.6743 8.72083L31.1649 10.3136L32.5 9.32803L33.8352 10.3136L33.3257 8.72083L34.6608 7.74403H33.0095L32.5 6.16003L31.9906 7.74403H30.3392ZM33.8352 37.84L33.3257 36.256L34.6608 35.2792H33.0095L32.5 33.6864L31.9906 35.2792H30.3392L31.6743 36.256L31.1649 37.84L32.5 36.8632L33.8352 37.84ZM18.85 23.056L17.5149 24.0416L18.0243 22.4576L16.6892 21.5072H18.3406L18.85 19.9232L19.3595 21.5072H21.0196L19.6757 22.4928L20.1852 24.0768L18.85 23.0912V23.056ZM27.0102 12.144L26.5007 10.56L27.8358 9.59203H26.1845L25.675 8.00803L25.1656 9.59203H23.5142L24.8493 10.5688L24.3399 12.1528L25.675 11.176L27.0102 12.144ZM20.2027 14.6256L20.7122 13.0416L21.2304 14.6256H22.8379L21.5027 15.6112L22.0122 17.1952L20.6683 16.2096L19.3243 17.1952L19.8338 15.6112L18.4987 14.6256H20.2027ZM20.7122 26.8048L20.2027 28.3888H18.5162H18.4987L19.8338 29.3744L19.3243 30.9584L20.6683 29.9816L22.0122 30.9584L21.5027 29.3744L22.8379 28.3888H21.2304L20.7122 26.8048ZM24.8493 34.408L23.5142 33.44H25.1656L25.675 31.856L26.1845 33.44H27.8358L26.5007 34.408L27.0102 35.992L25.675 35.0152L24.3399 35.992L24.8493 34.408ZM47.4852 24.0768L46.9757 22.4928L48.3108 21.5072H46.6946L46.1852 19.9232L45.6757 21.5072H43.9629L45.3068 22.4928L44.7973 24.0768L46.15 23.0912L47.4852 24.0768ZM38.4993 10.56L37.1642 9.59203H38.8156L39.325 8.00803L39.8345 9.59203H41.4858L40.1507 10.56L40.6602 12.144L39.325 11.176L37.9899 12.1528L38.4993 10.5688V10.56ZM44.2879 13.0328L43.7696 14.6168L42.1622 14.6256L43.4885 15.6112L42.9791 17.1952L44.323 16.2096L45.6581 17.1952L45.1487 15.6112L46.4487 14.6168H44.7973L44.2879 13.0328ZM44.8412 28.3888H46.4487L45.1487 29.3744L45.6581 30.9584L44.323 29.9816L42.9791 30.9584L43.4885 29.3744L42.1622 28.3888H43.8135L44.3318 26.8048L44.8412 28.3888ZM40.1507 34.408L41.4858 33.44H39.8345L39.325 31.856L38.8156 33.44H37.1642L38.4993 34.408L37.9899 35.992L39.325 35.0152L40.6602 35.992L40.1507 34.408Z"
    fill="#FFCC00"
  />
<path
    fill-rule="evenodd"
    clip-rule="evenodd"
    d="M65 44H0V0H65V44ZM64.1216 0.88H0.878378V43.12H64.1216V0.88Z"
    fill="white"
  />
<path
    fill-rule="evenodd"
    clip-rule="evenodd"
    d="M74.6046 37.8451V25.2471H83.9172V27.3776H77.1409V30.1707H83.446V32.2932H77.1409V35.7226H84.1575V37.8451H74.6046Z"
    fill="white"
  />
<path
    fill-rule="evenodd"
    clip-rule="evenodd"
    d="M92.0333 37.8451V36.4785C91.7016 36.9651 91.2665 37.3497 90.727 37.6304C90.1874 37.9111 89.6172 38.051 89.0171 38.051C88.4065 38.051 87.8582 37.9173 87.373 37.6471C86.887 37.3778 86.5352 37.0003 86.3185 36.5128C86.1018 36.0261 85.993 35.3529 85.993 34.4932V28.7186H88.4004V32.9127C88.4004 34.1957 88.4451 34.9825 88.5337 35.2711C88.6214 35.5606 88.7837 35.7903 89.0171 35.9584C89.2513 36.1273 89.5487 36.2127 89.9084 36.2127C90.3199 36.2127 90.6884 36.0992 91.0138 35.873C91.3393 35.646 91.5621 35.3661 91.6823 35.0309C91.8016 34.6956 91.8622 33.8745 91.8622 32.5686V28.7186H94.2695V37.8451H92.0333Z"
    fill="white"
  />
<path
    fill-rule="evenodd"
    clip-rule="evenodd"
    d="M98.804 37.8451H96.3967V28.7186H98.633V30.0166C99.0155 29.4033 99.3594 28.9993 99.6647 28.8049C99.9709 28.6095 100.318 28.5127 100.706 28.5127C101.254 28.5127 101.783 28.6641 102.291 28.9677L101.546 31.0735C101.14 30.8095 100.763 30.6775 100.415 30.6775C100.078 30.6775 99.7919 30.7708 99.5576 30.9573C99.3243 31.143 99.14 31.4801 99.0049 31.9667C98.8707 32.4542 98.804 33.4741 98.804 35.0265V37.8451Z"
    fill="white"
  />
<path
    fill-rule="evenodd"
    clip-rule="evenodd"
    d="M104.975 33.2818C104.975 34.1873 105.189 34.8799 105.617 35.3612C106.046 35.8426 106.574 36.0837 107.203 36.0837C107.831 36.0837 108.357 35.8426 108.784 35.3612C109.209 34.8799 109.421 34.1812 109.421 33.2642C109.421 32.371 109.209 31.6837 108.784 31.2024C108.357 30.721 107.831 30.4799 107.203 30.4799C106.574 30.4799 106.046 30.721 105.617 31.2024C105.189 31.6837 104.975 32.3763 104.975 33.2818M102.507 33.1533C102.507 32.3508 102.705 31.5746 103.099 30.824C103.493 30.0733 104.051 29.5004 104.774 29.1053C105.496 28.7102 106.303 28.5122 107.194 28.5122C108.571 28.5122 109.699 28.9601 110.578 29.8568C111.458 30.7536 111.898 31.887 111.898 33.2563C111.898 34.637 111.454 35.781 110.565 36.6892C109.677 37.5973 108.559 38.0514 107.211 38.0514C106.378 38.0514 105.581 37.8622 104.825 37.4838C104.069 37.1063 103.493 36.5519 103.099 35.8215C102.705 35.0911 102.507 34.2014 102.507 33.1533"
    fill="white"
  />
<path
    fill-rule="evenodd"
    clip-rule="evenodd"
    d="M115.798 33.1272C115.798 34.1533 116 34.9101 116.405 35.4002C116.811 35.8904 117.306 36.135 117.888 36.135C118.448 36.135 118.914 35.9106 119.285 35.4601C119.655 35.0104 119.841 34.2729 119.841 33.2477C119.841 32.2903 119.651 31.5801 119.267 31.1164C118.885 30.6517 118.411 30.4203 117.845 30.4203C117.256 30.4203 116.768 30.6482 116.38 31.1032C115.992 31.559 115.798 32.2331 115.798 33.1272V33.1272ZM113.416 28.7184H115.661V30.0595C115.952 29.601 116.346 29.2288 116.842 28.9419C117.34 28.655 117.891 28.5125 118.496 28.5125C119.552 28.5125 120.45 28.9278 121.187 29.7585C121.923 30.5893 122.291 31.7465 122.291 33.2301C122.291 34.7543 121.92 35.9388 121.178 36.7836C120.435 37.6293 119.536 38.0517 118.479 38.0517C117.976 38.0517 117.521 37.9513 117.113 37.7507C116.704 37.5501 116.275 37.206 115.823 36.7193V41.3173H113.416V28.7184Z"
    fill="white"
  />
<path
    fill-rule="evenodd"
    clip-rule="evenodd"
    d="M129.432 32.4999C129.415 31.8011 129.235 31.2696 128.893 30.9053C128.55 30.5419 128.133 30.3597 127.642 30.3597C127.116 30.3597 126.682 30.5524 126.34 30.9361C125.997 31.3198 125.829 31.8407 125.834 32.4999H129.432ZM129.296 34.9401L131.694 35.344C131.386 36.2267 130.899 36.899 130.233 37.3592C129.568 37.8203 128.736 38.0518 127.736 38.0518C126.154 38.0518 124.984 37.5326 124.224 36.4959C123.624 35.6652 123.324 34.6171 123.324 33.3508C123.324 31.8381 123.718 30.6536 124.506 29.7974C125.294 28.9411 126.291 28.5126 127.496 28.5126C128.85 28.5126 129.919 28.9605 130.7 29.8572C131.483 30.7539 131.857 32.1276 131.823 33.9783H125.792C125.808 34.6946 126.003 35.2507 126.374 35.6494C126.745 36.048 127.208 36.2469 127.762 36.2469C128.138 36.2469 128.456 36.1439 128.713 35.9371C128.97 35.7312 129.164 35.3986 129.296 34.9401V34.9401Z"
    fill="white"
  />
<path
    fill-rule="evenodd"
    clip-rule="evenodd"
    d="M138.805 33.4623C138.496 33.5653 138.009 33.6885 137.34 33.8319C136.672 33.9754 136.235 34.1153 136.029 34.2526C135.715 34.4761 135.558 34.7603 135.558 35.1035C135.558 35.4423 135.684 35.7345 135.936 35.98C136.186 36.2264 136.507 36.3496 136.894 36.3496C137.329 36.3496 137.743 36.207 138.137 35.9202C138.428 35.7019 138.619 35.4362 138.711 35.1211C138.774 34.9143 138.805 34.5227 138.805 33.9437V33.4623ZM135.584 31.5026L133.399 31.1074C133.645 30.2257 134.068 29.5727 134.667 29.1486C135.267 28.7244 136.158 28.5123 137.34 28.5123C138.414 28.5123 139.214 28.6399 139.739 28.8951C140.264 29.1494 140.634 29.4733 140.848 29.8658C141.062 30.2582 141.17 30.979 141.17 32.027L141.144 34.8457C141.144 35.6482 141.183 36.2396 141.26 36.6206C141.337 37.0017 141.481 37.41 141.692 37.8447H139.311C139.248 37.6846 139.171 37.447 139.079 37.1319C139.039 36.9885 139.01 36.8943 138.994 36.8486C138.582 37.249 138.143 37.5499 137.674 37.7506C137.206 37.9512 136.706 38.0515 136.175 38.0515C135.239 38.0515 134.5 37.7963 133.961 37.2868C133.42 36.7764 133.151 36.1322 133.151 35.3526C133.151 34.8369 133.273 34.3775 133.519 33.9736C133.765 33.5697 134.108 33.2608 134.551 33.0452C134.994 32.8305 135.633 32.643 136.466 32.4829C137.591 32.2708 138.371 32.0728 138.805 31.8898V31.6486C138.805 31.1849 138.691 30.854 138.462 30.6569C138.234 30.4589 137.802 30.3603 137.169 30.3603C136.74 30.3603 136.407 30.4448 136.166 30.6138C135.927 30.7827 135.732 31.0793 135.584 31.5026V31.5026Z"
    fill="white"
  />
<path
    fill-rule="evenodd"
    clip-rule="evenodd"
    d="M74.5798 6.16809H77.116V12.9916C77.116 14.074 77.1476 14.7763 77.2099 15.0966C77.3187 15.6123 77.5766 16.0267 77.9855 16.3391C78.3943 16.6515 78.9514 16.8073 79.6602 16.8073C80.3796 16.8073 80.9218 16.6595 81.2876 16.3647C81.6534 16.069 81.8728 15.7073 81.9473 15.2779C82.0219 14.8475 82.0588 14.1347 82.0588 13.1377V6.16809H84.595V12.7857C84.595 14.2975 84.5266 15.3667 84.3897 15.9907C84.252 16.6155 83.9993 17.1426 83.6309 17.572C83.2624 18.0015 82.7703 18.3438 82.1535 18.599C81.5368 18.8542 80.7314 18.9818 79.7374 18.9818C78.5382 18.9818 77.6284 18.8427 77.009 18.5647C76.3896 18.2866 75.8992 17.9258 75.5395 17.4814C75.1798 17.0379 74.9421 16.5723 74.828 16.0857C74.6631 15.3632 74.5798 14.2975 74.5798 12.8887V6.16809Z"
    fill="white"
  />
<path
    fill-rule="evenodd"
    clip-rule="evenodd"
    d="M95.001 18.7666H92.5937V14.1088C92.5937 13.1232 92.5419 12.486 92.4393 12.1965C92.3366 11.9079 92.1691 11.6826 91.9384 11.5224C91.7067 11.3614 91.4286 11.2813 91.1032 11.2813C90.6856 11.2813 90.3118 11.3957 89.9802 11.6254C89.6486 11.8542 89.4223 12.1578 89.2994 12.5362C89.1766 12.9146 89.1152 13.6133 89.1152 14.6332V18.7666H86.7079V9.64012H88.9441V10.9804C89.7381 9.949 90.7373 9.4342 91.9427 9.4342C92.4735 9.4342 92.9595 9.52924 93.3991 9.72196C93.8386 9.9138 94.172 10.1584 94.3974 10.4568C94.622 10.7542 94.7799 11.0921 94.8685 11.4705C94.9563 11.8489 95.001 12.3901 95.001 13.095V18.7666Z"
    fill="white"
  />
<path
    fill-rule="evenodd"
    clip-rule="evenodd"
    d="M97.004 18.7668H99.4113V9.64033H97.004V18.7668ZM97.004 8.40217H99.4113V6.16785H97.004V8.40217Z"
    fill="white"
  />
<path
    fill-rule="evenodd"
    clip-rule="evenodd"
    d="M104.362 8.52285L105.544 5.95325H108.243L105.887 8.52285H104.362ZM103.351 14.2032C103.351 15.1088 103.565 15.8013 103.993 16.2827C104.421 16.764 104.95 17.0052 105.579 17.0052C106.207 17.0052 106.733 16.764 107.159 16.2827C107.585 15.8013 107.797 15.1026 107.797 14.1865C107.797 13.2924 107.585 12.6052 107.159 12.1238C106.733 11.6424 106.207 11.4013 105.579 11.4013C104.95 11.4013 104.421 11.6424 103.993 12.1238C103.565 12.6052 103.351 13.2977 103.351 14.2032V14.2032ZM100.883 14.0748C100.883 13.2722 101.081 12.496 101.475 11.7454C101.869 10.9948 102.427 10.4219 103.149 10.0268C103.871 9.63165 104.679 9.43365 105.57 9.43365C106.946 9.43365 108.074 9.88157 108.954 10.7783C109.834 11.6759 110.273 12.8084 110.273 14.1777C110.273 15.5584 109.829 16.7024 108.941 17.6106C108.053 18.5188 106.935 18.9728 105.587 18.9728C104.753 18.9728 103.957 18.7836 103.201 18.4052C102.444 18.0277 101.869 17.4733 101.475 16.7429C101.081 16.0125 100.883 15.1228 100.883 14.0748V14.0748Z"
    fill="white"
  />
<path
    fill-rule="evenodd"
    clip-rule="evenodd"
    d="M120.17 18.7666H117.763V14.1088C117.763 13.1232 117.711 12.486 117.609 12.1965C117.506 11.9079 117.338 11.6826 117.108 11.5224C116.876 11.3614 116.598 11.2813 116.272 11.2813C115.855 11.2813 115.481 11.3957 115.15 11.6254C114.818 11.8542 114.592 12.1578 114.469 12.5362C114.346 12.9146 114.285 13.6133 114.285 14.6332V18.7666H111.877V9.64012H114.113V10.9804C114.907 9.949 115.907 9.4342 117.112 9.4342C117.643 9.4342 118.129 9.52924 118.568 9.72196C119.008 9.9138 119.341 10.1584 119.567 10.4568C119.791 10.7542 119.949 11.0921 120.038 11.4705C120.126 11.8489 120.17 12.3901 120.17 13.095V18.7666Z"
    fill="white"
  />
</svg>
