<svg
  width="219"
  height="44"
  viewBox="0 0 219 44"
  fill="none"
  xmlns="http://www.w3.org/2000/svg"
>
<rect x="0.878418" y="0.880005" width="63.2432" height="42.24" fill="#003399" />
<path
    fill-rule="evenodd"
    clip-rule="evenodd"
    d="M30.3392 7.744L31.6743 8.7208L31.1649 10.3136L32.5 9.328L33.8352 10.3136L33.3257 8.7208L34.6608 7.744H33.0095L32.5 6.16L31.9906 7.744H30.3392ZM33.8352 37.84L33.3257 36.256L34.6608 35.2792H33.0095L32.5 33.6864L31.9906 35.2792H30.3392L31.6743 36.256L31.1649 37.84L32.5 36.8632L33.8352 37.84ZM18.85 23.056L17.5149 24.0416L18.0243 22.4576L16.6892 21.5072H18.3406L18.85 19.9232L19.3595 21.5072H21.0196L19.6757 22.4928L20.1852 24.0768L18.85 23.0912V23.056ZM27.0102 12.144L26.5007 10.56L27.8358 9.592H26.1845L25.675 8.008L25.1656 9.592H23.5142L24.8493 10.5688L24.3399 12.1528L25.675 11.176L27.0102 12.144ZM20.2027 14.6256L20.7122 13.0416L21.2304 14.6256H22.8379L21.5027 15.6112L22.0122 17.1952L20.6683 16.2096L19.3243 17.1952L19.8338 15.6112L18.4987 14.6256H20.2027ZM20.7122 26.8048L20.2027 28.3888H18.5162H18.4987L19.8338 29.3744L19.3243 30.9584L20.6683 29.9816L22.0122 30.9584L21.5027 29.3744L22.8379 28.3888H21.2304L20.7122 26.8048ZM24.8493 34.408L23.5142 33.44H25.1656L25.675 31.856L26.1845 33.44H27.8358L26.5007 34.408L27.0102 35.992L25.675 35.0152L24.3399 35.992L24.8493 34.408ZM47.4852 24.0768L46.9757 22.4928L48.3108 21.5072H46.6946L46.1852 19.9232L45.6757 21.5072H43.9629L45.3068 22.4928L44.7973 24.0768L46.15 23.0912L47.4852 24.0768ZM38.4993 10.56L37.1642 9.592H38.8156L39.325 8.008L39.8345 9.592H41.4858L40.1507 10.56L40.6602 12.144L39.325 11.176L37.9899 12.1528L38.4993 10.5688V10.56ZM44.2879 13.0328L43.7696 14.6168L42.1622 14.6256L43.4885 15.6112L42.9791 17.1952L44.323 16.2096L45.6581 17.1952L45.1487 15.6112L46.4487 14.6168H44.7973L44.2879 13.0328ZM44.8412 28.3888H46.4487L45.1487 29.3744L45.6581 30.9584L44.323 29.9816L42.9791 30.9584L43.4885 29.3744L42.1622 28.3888H43.8135L44.3318 26.8048L44.8412 28.3888ZM40.1507 34.408L41.4858 33.44H39.8345L39.325 31.856L38.8156 33.44H37.1642L38.4993 34.408L37.9899 35.992L39.325 35.0152L40.6602 35.992L40.1507 34.408Z"
    fill="#FFCC00"
  />
<path
    fill-rule="evenodd"
    clip-rule="evenodd"
    d="M65 44H0V0H65V44ZM64.1216 0.88H0.878378V43.12H64.1216V0.88Z"
    fill="white"
  />
<path
    d="M77.3096 19V6.11523H86.8633V8.29492H79.9111V11.1514H86.3799V13.3223H79.9111V16.8291H87.1094V19H77.3096Z"
    fill="white"
  />
<path
    d="M91.8643 19L88.1025 9.66602H90.6953L92.4531 14.4297L92.9629 16.0205C93.0977 15.6162 93.1826 15.3496 93.2178 15.2207C93.2998 14.957 93.3877 14.6934 93.4814 14.4297L95.2568 9.66602H97.7969L94.0879 19H91.8643Z"
    fill="white"
  />
<path
    d="M101.682 19H99.2119V9.66602H101.506V10.9932C101.898 10.3662 102.25 9.95312 102.561 9.75391C102.877 9.55469 103.234 9.45508 103.633 9.45508C104.195 9.45508 104.737 9.61035 105.259 9.9209L104.494 12.0742C104.078 11.8047 103.691 11.6699 103.334 11.6699C102.988 11.6699 102.695 11.7666 102.455 11.96C102.215 12.1475 102.024 12.4902 101.884 12.9883C101.749 13.4863 101.682 14.5293 101.682 16.1172V19Z"
    fill="white"
  />
<path
    d="M105.76 14.2012C105.76 13.3809 105.962 12.5869 106.366 11.8193C106.771 11.0518 107.342 10.4658 108.08 10.0615C108.824 9.65723 109.653 9.45508 110.567 9.45508C111.979 9.45508 113.137 9.91504 114.039 10.835C114.941 11.749 115.393 12.9062 115.393 14.3066C115.393 15.7188 114.936 16.8906 114.021 17.8223C113.113 18.748 111.968 19.2109 110.585 19.2109C109.729 19.2109 108.912 19.0176 108.133 18.6309C107.359 18.2441 106.771 17.6787 106.366 16.9346C105.962 16.1846 105.76 15.2734 105.76 14.2012ZM108.291 14.333C108.291 15.2588 108.511 15.9678 108.95 16.46C109.39 16.9521 109.932 17.1982 110.576 17.1982C111.221 17.1982 111.76 16.9521 112.193 16.46C112.633 15.9678 112.853 15.2529 112.853 14.3154C112.853 13.4014 112.633 12.6982 112.193 12.2061C111.76 11.7139 111.221 11.4678 110.576 11.4678C109.932 11.4678 109.39 11.7139 108.95 12.2061C108.511 12.6982 108.291 13.4072 108.291 14.333ZM109.328 8.52344L110.541 5.89551H113.31L110.893 8.52344H109.328Z"
    fill="white"
  />
<path
    d="M117.265 9.66602H119.567V11.0371C119.866 10.5684 120.271 10.1875 120.78 9.89453C121.29 9.60156 121.855 9.45508 122.477 9.45508C123.561 9.45508 124.48 9.87988 125.236 10.7295C125.992 11.5791 126.37 12.7627 126.37 14.2803C126.37 15.8389 125.989 17.0518 125.228 17.9189C124.466 18.7803 123.543 19.2109 122.459 19.2109C121.943 19.2109 121.475 19.1084 121.053 18.9033C120.637 18.6982 120.197 18.3467 119.734 17.8486V22.5508H117.265V9.66602ZM119.708 14.1748C119.708 15.2236 119.916 16 120.332 16.5039C120.748 17.002 121.255 17.251 121.853 17.251C122.427 17.251 122.904 17.0225 123.285 16.5654C123.666 16.1025 123.856 15.3467 123.856 14.2979C123.856 13.3193 123.66 12.5928 123.268 12.1182C122.875 11.6436 122.389 11.4062 121.809 11.4062C121.205 11.4062 120.704 11.6406 120.306 12.1094C119.907 12.5723 119.708 13.2607 119.708 14.1748Z"
    fill="white"
  />
<path
    d="M134.482 19V17.6025C134.143 18.1006 133.694 18.4932 133.138 18.7803C132.587 19.0674 132.004 19.2109 131.389 19.2109C130.762 19.2109 130.199 19.0732 129.701 18.7979C129.203 18.5225 128.843 18.1357 128.62 17.6377C128.397 17.1396 128.286 16.4512 128.286 15.5723V9.66602H130.756V13.9551C130.756 15.2676 130.8 16.0732 130.888 16.3721C130.981 16.665 131.148 16.8994 131.389 17.0752C131.629 17.2451 131.934 17.3301 132.303 17.3301C132.725 17.3301 133.103 17.2158 133.437 16.9873C133.771 16.7529 133.999 16.4658 134.122 16.126C134.245 15.7803 134.307 14.9395 134.307 13.6035V9.66602H136.776V19H134.482Z"
    fill="white"
  />
<path
    d="M138.473 16.3369L140.951 15.959C141.057 16.4395 141.271 16.8057 141.593 17.0576C141.915 17.3037 142.366 17.4268 142.946 17.4268C143.585 17.4268 144.065 17.3096 144.388 17.0752C144.604 16.9111 144.713 16.6914 144.713 16.416C144.713 16.2285 144.654 16.0732 144.537 15.9502C144.414 15.833 144.139 15.7246 143.711 15.625C141.719 15.1855 140.456 14.7842 139.923 14.4209C139.185 13.917 138.815 13.2168 138.815 12.3203C138.815 11.5117 139.135 10.832 139.773 10.2812C140.412 9.73047 141.402 9.45508 142.744 9.45508C144.021 9.45508 144.971 9.66309 145.592 10.0791C146.213 10.4951 146.641 11.1104 146.875 11.9248L144.546 12.3555C144.446 11.9922 144.256 11.7139 143.975 11.5205C143.699 11.3271 143.304 11.2305 142.788 11.2305C142.138 11.2305 141.672 11.3213 141.391 11.5029C141.203 11.6318 141.109 11.7988 141.109 12.0039C141.109 12.1797 141.191 12.3291 141.355 12.4521C141.578 12.6162 142.346 12.8477 143.658 13.1465C144.977 13.4453 145.896 13.8115 146.418 14.2451C146.934 14.6846 147.191 15.2969 147.191 16.082C147.191 16.9375 146.834 17.6729 146.119 18.2881C145.404 18.9033 144.347 19.2109 142.946 19.2109C141.675 19.2109 140.667 18.9531 139.923 18.4375C139.185 17.9219 138.701 17.2217 138.473 16.3369Z"
    fill="white"
  />
<path
    d="M151.208 12.5137L148.967 12.1094C149.219 11.207 149.652 10.5391 150.268 10.1055C150.883 9.67188 151.797 9.45508 153.01 9.45508C154.111 9.45508 154.932 9.58691 155.471 9.85059C156.01 10.1084 156.388 10.4395 156.604 10.8438C156.827 11.2422 156.938 11.9775 156.938 13.0498L156.912 15.9326C156.912 16.7529 156.95 17.3594 157.026 17.752C157.108 18.1387 157.258 18.5547 157.475 19H155.031C154.967 18.8359 154.888 18.5928 154.794 18.2705C154.753 18.124 154.724 18.0273 154.706 17.9805C154.284 18.3906 153.833 18.6982 153.353 18.9033C152.872 19.1084 152.359 19.2109 151.814 19.2109C150.854 19.2109 150.095 18.9502 149.538 18.4287C148.987 17.9072 148.712 17.248 148.712 16.4512C148.712 15.9238 148.838 15.4551 149.09 15.0449C149.342 14.6289 149.693 14.3125 150.145 14.0957C150.602 13.873 151.258 13.6797 152.113 13.5156C153.268 13.2988 154.067 13.0967 154.513 12.9092V12.6631C154.513 12.1885 154.396 11.8516 154.161 11.6523C153.927 11.4473 153.484 11.3447 152.834 11.3447C152.395 11.3447 152.052 11.4326 151.806 11.6084C151.56 11.7783 151.36 12.0801 151.208 12.5137ZM154.513 14.5176C154.196 14.623 153.695 14.749 153.01 14.8955C152.324 15.042 151.876 15.1855 151.665 15.3262C151.343 15.5547 151.182 15.8447 151.182 16.1963C151.182 16.542 151.311 16.8408 151.568 17.0928C151.826 17.3447 152.154 17.4707 152.553 17.4707C152.998 17.4707 153.423 17.3242 153.827 17.0312C154.126 16.8086 154.322 16.5361 154.416 16.2139C154.48 16.0029 154.513 15.6016 154.513 15.0098V14.5176Z"
    fill="white"
  />
<path
    d="M159.197 9.66602H161.474V10.9404C162.288 9.9502 163.258 9.45508 164.383 9.45508C164.98 9.45508 165.499 9.57812 165.938 9.82422C166.378 10.0703 166.738 10.4424 167.02 10.9404C167.43 10.4424 167.872 10.0703 168.347 9.82422C168.821 9.57812 169.328 9.45508 169.867 9.45508C170.553 9.45508 171.133 9.5957 171.607 9.87695C172.082 10.1523 172.437 10.5596 172.671 11.0986C172.841 11.4971 172.926 12.1416 172.926 13.0322V19H170.456V13.665C170.456 12.7393 170.371 12.1416 170.201 11.8721C169.973 11.5205 169.621 11.3447 169.146 11.3447C168.801 11.3447 168.476 11.4502 168.171 11.6611C167.866 11.8721 167.646 12.1826 167.512 12.5928C167.377 12.9971 167.31 13.6387 167.31 14.5176V19H164.84V13.8848C164.84 12.9766 164.796 12.3906 164.708 12.127C164.62 11.8633 164.482 11.667 164.295 11.5381C164.113 11.4092 163.864 11.3447 163.548 11.3447C163.167 11.3447 162.824 11.4473 162.52 11.6523C162.215 11.8574 161.995 12.1533 161.86 12.54C161.731 12.9268 161.667 13.5684 161.667 14.4648V19H159.197V9.66602Z"
    fill="white"
  />
<path
    d="M77.1865 38V25.1152H79.6562V29.7559C80.418 28.8887 81.3203 28.4551 82.3633 28.4551C83.5 28.4551 84.4404 28.8682 85.1846 29.6943C85.9287 30.5146 86.3008 31.6953 86.3008 33.2363C86.3008 34.8301 85.9199 36.0576 85.1582 36.9189C84.4023 37.7803 83.4824 38.2109 82.3984 38.2109C81.8652 38.2109 81.3379 38.0791 80.8164 37.8154C80.3008 37.5459 79.8555 37.1504 79.4805 36.6289V38H77.1865ZM79.6387 33.1309C79.6387 34.0977 79.791 34.8125 80.0957 35.2754C80.5234 35.9316 81.0918 36.2598 81.8008 36.2598C82.3457 36.2598 82.8086 36.0283 83.1895 35.5654C83.5762 35.0967 83.7695 34.3613 83.7695 33.3594C83.7695 32.293 83.5762 31.5254 83.1895 31.0566C82.8027 30.582 82.3076 30.3447 81.7041 30.3447C81.1123 30.3447 80.6201 30.5762 80.2275 31.0391C79.835 31.4961 79.6387 32.1934 79.6387 33.1309Z"
    fill="white"
  />
<path
    d="M90.1416 31.5137L87.9004 31.1094C88.1523 30.207 88.5859 29.5391 89.2012 29.1055C89.8164 28.6719 90.7305 28.4551 91.9434 28.4551C93.0449 28.4551 93.8652 28.5869 94.4043 28.8506C94.9434 29.1084 95.3213 29.4395 95.5381 29.8438C95.7607 30.2422 95.8721 30.9775 95.8721 32.0498L95.8457 34.9326C95.8457 35.7529 95.8838 36.3594 95.96 36.752C96.042 37.1387 96.1914 37.5547 96.4082 38H93.9648C93.9004 37.8359 93.8213 37.5928 93.7275 37.2705C93.6865 37.124 93.6572 37.0273 93.6396 36.9805C93.2178 37.3906 92.7666 37.6982 92.2861 37.9033C91.8057 38.1084 91.293 38.2109 90.748 38.2109C89.7871 38.2109 89.0283 37.9502 88.4717 37.4287C87.9209 36.9072 87.6455 36.248 87.6455 35.4512C87.6455 34.9238 87.7715 34.4551 88.0234 34.0449C88.2754 33.6289 88.627 33.3125 89.0781 33.0957C89.5352 32.873 90.1914 32.6797 91.0469 32.5156C92.2012 32.2988 93.001 32.0967 93.4463 31.9092V31.6631C93.4463 31.1885 93.3291 30.8516 93.0947 30.6523C92.8604 30.4473 92.418 30.3447 91.7676 30.3447C91.3281 30.3447 90.9854 30.4326 90.7393 30.6084C90.4932 30.7783 90.2939 31.0801 90.1416 31.5137ZM93.4463 33.5176C93.1299 33.623 92.6289 33.749 91.9434 33.8955C91.2578 34.042 90.8096 34.1855 90.5986 34.3262C90.2764 34.5547 90.1152 34.8447 90.1152 35.1963C90.1152 35.542 90.2441 35.8408 90.502 36.0928C90.7598 36.3447 91.0879 36.4707 91.4863 36.4707C91.9316 36.4707 92.3564 36.3242 92.7607 36.0312C93.0596 35.8086 93.2559 35.5361 93.3496 35.2139C93.4141 35.0029 93.4463 34.6016 93.4463 34.0098V33.5176Z"
    fill="white"
  />
<path
    d="M106.806 38H104.336V33.2363C104.336 32.2285 104.283 31.5781 104.178 31.2852C104.072 30.9863 103.899 30.7549 103.659 30.5908C103.425 30.4268 103.141 30.3447 102.807 30.3447C102.379 30.3447 101.995 30.4619 101.655 30.6963C101.315 30.9307 101.081 31.2412 100.952 31.6279C100.829 32.0146 100.768 32.7295 100.768 33.7725V38H98.2979V28.666H100.592V30.0371C101.406 28.9824 102.432 28.4551 103.668 28.4551C104.213 28.4551 104.711 28.5547 105.162 28.7539C105.613 28.9473 105.953 29.1963 106.182 29.501C106.416 29.8057 106.577 30.1514 106.665 30.5381C106.759 30.9248 106.806 31.4785 106.806 32.1992V38Z"
    fill="white"
  />
<path
    d="M117.88 38H115.586V36.6289C115.205 37.1621 114.754 37.5605 114.232 37.8242C113.717 38.082 113.195 38.2109 112.668 38.2109C111.596 38.2109 110.676 37.7803 109.908 36.9189C109.146 36.0518 108.766 34.8447 108.766 33.2979C108.766 31.7158 109.138 30.5146 109.882 29.6943C110.626 28.8682 111.566 28.4551 112.703 28.4551C113.746 28.4551 114.648 28.8887 115.41 29.7559V25.1152H117.88V38ZM111.288 33.1309C111.288 34.127 111.426 34.8477 111.701 35.293C112.1 35.9375 112.656 36.2598 113.371 36.2598C113.939 36.2598 114.423 36.0195 114.821 35.5391C115.22 35.0527 115.419 34.3291 115.419 33.3682C115.419 32.2959 115.226 31.5254 114.839 31.0566C114.452 30.582 113.957 30.3447 113.354 30.3447C112.768 30.3447 112.275 30.5791 111.877 31.0479C111.484 31.5107 111.288 32.2051 111.288 33.1309Z"
    fill="white"
  />
<path
    d="M120.323 27.4004V25.1152H122.793V27.4004H120.323ZM120.323 38V28.666H122.793V38H120.323Z"
    fill="white"
  />
<path
    d="M126.959 25.1152H129.534C129.868 25.373 130.188 25.6338 130.492 25.8975L132.083 25.1152L132.479 25.9766L131.213 26.5654C132.338 27.6963 133.144 28.833 133.63 29.9756C134.122 31.1123 134.368 32.1875 134.368 33.2012C134.368 34.7129 133.917 35.9287 133.015 36.8486C132.112 37.7627 130.946 38.2197 129.517 38.2197C128.14 38.2197 127.003 37.7656 126.106 36.8574C125.216 35.9434 124.771 34.7627 124.771 33.3154C124.771 31.8916 125.245 30.7227 126.194 29.8086C126.985 29.0469 127.876 28.666 128.866 28.666C129.183 28.666 129.502 28.7129 129.824 28.8066C130.059 28.877 130.39 29.0322 130.817 29.2725C130.589 28.8623 130.398 28.543 130.246 28.3145C130.094 28.0859 129.856 27.7695 129.534 27.3652L127.337 28.4111L126.959 27.5674L128.875 26.6621C128.289 26.123 127.65 25.6074 126.959 25.1152ZM127.346 33.3418C127.346 34.2734 127.557 34.9854 127.979 35.4775C128.406 35.9639 128.928 36.207 129.543 36.207C130.17 36.207 130.703 35.9609 131.143 35.4688C131.582 34.9766 131.802 34.2969 131.802 33.4297C131.802 32.5566 131.576 31.8682 131.125 31.3643C130.674 30.8604 130.141 30.6084 129.525 30.6084C128.922 30.6084 128.406 30.8486 127.979 31.3291C127.557 31.8037 127.346 32.4746 127.346 33.3418Z"
    fill="white"
  />
</svg>
