<svg
  width="211"
  height="44"
  viewBox="0 0 211 44"
  fill="none"
  xmlns="http://www.w3.org/2000/svg"
>
<rect x="0.878418" y="0.880005" width="63.2432" height="42.24" fill="#003399" />
<path
    fill-rule="evenodd"
    clip-rule="evenodd"
    d="M30.3392 7.744L31.6743 8.7208L31.1649 10.3136L32.5 9.328L33.8352 10.3136L33.3257 8.7208L34.6608 7.744H33.0095L32.5 6.16L31.9906 7.744H30.3392ZM33.8352 37.84L33.3257 36.256L34.6608 35.2792H33.0095L32.5 33.6864L31.9906 35.2792H30.3392L31.6743 36.256L31.1649 37.84L32.5 36.8632L33.8352 37.84ZM18.85 23.056L17.5149 24.0416L18.0243 22.4576L16.6892 21.5072H18.3406L18.85 19.9232L19.3595 21.5072H21.0196L19.6757 22.4928L20.1852 24.0768L18.85 23.0912V23.056ZM27.0102 12.144L26.5007 10.56L27.8358 9.592H26.1845L25.675 8.008L25.1656 9.592H23.5142L24.8493 10.5688L24.3399 12.1528L25.675 11.176L27.0102 12.144ZM20.2027 14.6256L20.7122 13.0416L21.2304 14.6256H22.8379L21.5027 15.6112L22.0122 17.1952L20.6683 16.2096L19.3243 17.1952L19.8338 15.6112L18.4987 14.6256H20.2027ZM20.7122 26.8048L20.2027 28.3888H18.5162H18.4987L19.8338 29.3744L19.3243 30.9584L20.6683 29.9816L22.0122 30.9584L21.5027 29.3744L22.8379 28.3888H21.2304L20.7122 26.8048ZM24.8493 34.408L23.5142 33.44H25.1656L25.675 31.856L26.1845 33.44H27.8358L26.5007 34.408L27.0102 35.992L25.675 35.0152L24.3399 35.992L24.8493 34.408ZM47.4852 24.0768L46.9757 22.4928L48.3108 21.5072H46.6946L46.1852 19.9232L45.6757 21.5072H43.9629L45.3068 22.4928L44.7973 24.0768L46.15 23.0912L47.4852 24.0768ZM38.4993 10.56L37.1642 9.592H38.8156L39.325 8.008L39.8345 9.592H41.4858L40.1507 10.56L40.6602 12.144L39.325 11.176L37.9899 12.1528L38.4993 10.5688V10.56ZM44.2879 13.0328L43.7696 14.6168L42.1622 14.6256L43.4885 15.6112L42.9791 17.1952L44.323 16.2096L45.6581 17.1952L45.1487 15.6112L46.4487 14.6168H44.7973L44.2879 13.0328ZM44.8412 28.3888H46.4487L45.1487 29.3744L45.6581 30.9584L44.323 29.9816L42.9791 30.9584L43.4885 29.3744L42.1622 28.3888H43.8135L44.3318 26.8048L44.8412 28.3888ZM40.1507 34.408L41.4858 33.44H39.8345L39.325 31.856L38.8156 33.44H37.1642L38.4993 34.408L37.9899 35.992L39.325 35.0152L40.6602 35.992L40.1507 34.408Z"
    fill="#FFCC00"
  />
<path
    fill-rule="evenodd"
    clip-rule="evenodd"
    d="M65 44H0V0H65V44ZM64.1216 0.88H0.878378V43.12H64.1216V0.88Z"
    fill="white"
  />
<path
    fill-rule="evenodd"
    clip-rule="evenodd"
    d="M80.727 37.8451V36.4785C80.3947 36.9651 79.9588 37.3497 79.4182 37.6304C78.8777 37.9111 78.3063 38.051 77.7051 38.051C77.0934 38.051 76.5441 37.9173 76.058 37.6471C75.5711 37.3778 75.2186 37.0003 75.0015 36.5128C74.7844 36.0261 74.6754 35.3529 74.6754 34.4932V28.7186H77.0872V32.9127C77.0872 34.1957 77.1321 34.9825 77.2208 35.2711C77.3087 35.5606 77.4713 35.7903 77.7051 35.9584C77.9398 36.1273 78.2378 36.2127 78.5982 36.2127C79.0104 36.2127 79.3795 36.0992 79.7056 35.873C80.0317 35.646 80.255 35.3661 80.3754 35.0309C80.4949 34.6956 80.5556 33.8745 80.5556 32.5686V28.7186H82.9674V37.8451H80.727Z"
    fill="white"
  />
<path
    fill-rule="evenodd"
    clip-rule="evenodd"
    d="M93.7567 37.8451H91.3449V33.1873C91.3449 32.2017 91.293 31.5646 91.1902 31.275C91.0873 30.9864 90.9194 30.7611 90.6883 30.601C90.4562 30.4399 90.1776 30.3598 89.8515 30.3598C89.4331 30.3598 89.0587 30.4751 88.7265 30.7039C88.3942 30.9327 88.1675 31.2363 88.0444 31.6147C87.9214 31.9931 87.8598 32.6918 87.8598 33.7118V37.8451H85.448V28.7186H87.6884V30.0589C88.4839 29.0275 89.485 28.5127 90.6927 28.5127C91.2244 28.5127 91.7114 28.6078 92.1517 28.8005C92.5921 28.9923 92.9261 29.237 93.152 29.5353C93.377 29.8327 93.5352 30.1706 93.624 30.549C93.7119 30.9274 93.7567 31.4686 93.7567 32.1735V37.8451Z"
    fill="white"
  />
<path
    fill-rule="evenodd"
    clip-rule="evenodd"
    d="M95.7639 37.8453H98.1757V28.7188H95.7639V37.8453ZM95.7639 27.4806H98.1757V25.2463H95.7639V27.4806Z"
    fill="white"
  />
<path
    fill-rule="evenodd"
    clip-rule="evenodd"
    d="M102.122 33.2819C102.122 34.1874 102.337 34.8799 102.766 35.3613C103.195 35.8427 103.724 36.0838 104.354 36.0838C104.983 36.0838 105.51 35.8427 105.938 35.3613C106.364 34.8799 106.577 34.1812 106.577 33.2643C106.577 32.3711 106.364 31.6838 105.938 31.2024C105.51 30.7211 104.983 30.4799 104.354 30.4799C103.724 30.4799 103.195 30.7211 102.766 31.2024C102.337 31.6838 102.122 32.3763 102.122 33.2819M99.6497 33.1534C99.6497 32.3508 99.8474 31.5747 100.242 30.824C100.638 30.0734 101.197 29.5005 101.921 29.1054C102.644 28.7103 103.453 28.5123 104.345 28.5123C105.725 28.5123 106.854 28.9602 107.736 29.8569C108.618 30.7536 109.058 31.8871 109.058 33.2563C109.058 34.6371 108.613 35.7811 107.723 36.6892C106.832 37.5974 105.713 38.0515 104.363 38.0515C103.528 38.0515 102.729 37.8623 101.972 37.4839C101.214 37.1063 100.638 36.5519 100.242 35.8215C99.8474 35.0911 99.6497 34.2015 99.6497 33.1534"
    fill="white"
  />
<path
    fill-rule="evenodd"
    clip-rule="evenodd"
    d="M118.798 37.8451H116.386V33.1873C116.386 32.2017 116.335 31.5646 116.232 31.275C116.129 30.9864 115.961 30.7611 115.73 30.601C115.498 30.4399 115.219 30.3598 114.893 30.3598C114.475 30.3598 114.1 30.4751 113.768 30.7039C113.436 30.9327 113.209 31.2363 113.086 31.6147C112.963 31.9931 112.901 32.6918 112.901 33.7118V37.8451H110.49V28.7186H112.73V30.0589C113.525 29.0275 114.527 28.5127 115.734 28.5127C116.266 28.5127 116.753 28.6078 117.193 28.8005C117.634 28.9923 117.968 29.237 118.193 29.5353C118.418 29.8327 118.577 30.1706 118.665 30.549C118.753 30.9274 118.798 31.4686 118.798 32.1735V37.8451Z"
    fill="white"
  />
<path
    fill-rule="evenodd"
    clip-rule="evenodd"
    d="M126.661 32.4998C126.643 31.8011 126.463 31.2696 126.12 30.9052C125.776 30.5418 125.359 30.3596 124.867 30.3596C124.34 30.3596 123.905 30.5524 123.562 30.936C123.219 31.3197 123.05 31.8407 123.055 32.4998H126.661ZM126.524 34.94L128.927 35.344C128.618 36.2266 128.13 36.8989 127.463 37.3592C126.796 37.8203 125.963 38.0517 124.961 38.0517C123.376 38.0517 122.203 37.5325 121.442 36.4959C120.841 35.6652 120.541 34.6171 120.541 33.3508C120.541 31.838 120.935 30.6536 121.725 29.7973C122.515 28.9411 123.513 28.5125 124.721 28.5125C126.077 28.5125 127.148 28.9604 127.931 29.8572C128.715 30.7539 129.09 32.1276 129.056 33.9782H123.013C123.03 34.6945 123.225 35.2507 123.597 35.6493C123.968 36.048 124.432 36.2468 124.987 36.2468C125.364 36.2468 125.682 36.1439 125.94 35.9371C126.197 35.7312 126.392 35.3985 126.524 34.94V34.94Z"
    fill="white"
  />
<path
    fill-rule="evenodd"
    clip-rule="evenodd"
    d="M139.049 37.8451H136.637V33.1873C136.637 32.2017 136.585 31.5646 136.483 31.275C136.38 30.9864 136.212 30.7611 135.981 30.601C135.749 30.4399 135.47 30.3598 135.144 30.3598C134.726 30.3598 134.351 30.4751 134.019 30.7039C133.687 30.9327 133.46 31.2363 133.337 31.6147C133.214 31.9931 133.152 32.6918 133.152 33.7118V37.8451H130.74V28.7186H132.981V30.0589C133.776 29.0275 134.777 28.5127 135.985 28.5127C136.517 28.5127 137.004 28.6078 137.444 28.8005C137.884 28.9923 138.218 29.237 138.444 29.5353C138.669 29.8327 138.828 30.1706 138.916 30.549C139.004 30.9274 139.049 31.4686 139.049 32.1735V37.8451Z"
    fill="white"
  />
<path
    fill-rule="evenodd"
    clip-rule="evenodd"
    d="M74.7375 18.7665V6.16846H84.0676V8.29894H77.2786V11.0921H83.5956V13.2146H77.2786V16.644H84.3084V18.7665H74.7375Z"
    fill="white"
  />
<path
    fill-rule="evenodd"
    clip-rule="evenodd"
    d="M92.1989 18.7665V17.3999C91.8666 17.8874 91.4307 18.272 90.8901 18.5518C90.3496 18.8325 89.7783 18.9724 89.1771 18.9724C88.5653 18.9724 88.016 18.8387 87.5299 18.5685C87.043 18.3001 86.6905 17.9217 86.4734 17.4342C86.2563 16.9484 86.1473 16.2744 86.1473 15.4146V9.64005H88.5592V13.8341C88.5592 15.118 88.604 15.9039 88.6928 16.1925C88.7807 16.482 88.9433 16.7117 89.1771 16.8798C89.4117 17.0496 89.7097 17.1341 90.0701 17.1341C90.4823 17.1341 90.8515 17.0215 91.1776 16.7944C91.5036 16.5683 91.7269 16.2876 91.8473 15.9523C91.9668 15.617 92.0275 14.796 92.0275 13.49V9.64005H94.4393V18.7665H92.1989Z"
    fill="white"
  />
<path
    fill-rule="evenodd"
    clip-rule="evenodd"
    d="M98.9824 18.7665H96.5706V9.64005H98.811V10.938C99.1942 10.3247 99.5388 9.92077 99.8446 9.72629C100.151 9.53181 100.499 9.43413 100.888 9.43413C101.437 9.43413 101.967 9.58549 102.476 9.88909L101.729 11.9949C101.323 11.7318 100.945 11.5989 100.596 11.5989C100.259 11.5989 99.9721 11.6931 99.7374 11.8788C99.5036 12.0653 99.319 12.4024 99.1837 12.8881C99.0492 13.3756 98.9824 14.3956 98.9824 15.9479V18.7665Z"
    fill="white"
  />
<path
    fill-rule="evenodd"
    clip-rule="evenodd"
    d="M105.165 14.2033C105.165 15.1088 105.379 15.8014 105.808 16.2827C106.238 16.7641 106.767 17.0052 107.397 17.0052C108.026 17.0052 108.553 16.7641 108.98 16.2827C109.407 15.8014 109.619 15.1026 109.619 14.1857C109.619 13.2925 109.407 12.6052 108.98 12.1238C108.553 11.6425 108.026 11.4014 107.397 11.4014C106.767 11.4014 106.238 11.6425 105.808 12.1238C105.379 12.6052 105.165 13.2986 105.165 14.2033M102.693 14.0748C102.693 13.2722 102.89 12.497 103.285 11.7454C103.68 10.9948 104.239 10.4219 104.964 10.0268C105.687 9.63169 106.496 9.43369 107.388 9.43369C108.768 9.43369 109.897 9.88249 110.779 10.7783C111.66 11.6759 112.101 12.8085 112.101 14.1778C112.101 15.5585 111.656 16.7034 110.766 17.6106C109.875 18.5188 108.755 18.9729 107.405 18.9729C106.57 18.9729 105.772 18.7837 105.015 18.4053C104.257 18.0278 103.68 17.4734 103.285 16.743C102.89 16.0126 102.693 15.1229 102.693 14.0748"
    fill="white"
  />
<path
    fill-rule="evenodd"
    clip-rule="evenodd"
    d="M116.008 14.0486C116.008 15.0747 116.211 15.8315 116.617 16.3216C117.023 16.8118 117.519 17.0564 118.102 17.0564C118.663 17.0564 119.13 16.832 119.501 16.3815C119.872 15.9327 120.059 15.1952 120.059 14.1691C120.059 13.2126 119.868 12.5015 119.484 12.0378C119.101 11.5731 118.626 11.3417 118.059 11.3417C117.469 11.3417 116.98 11.5696 116.591 12.0246C116.203 12.4804 116.008 13.1545 116.008 14.0486V14.0486ZM113.621 9.63979H115.871V10.9809C116.162 10.5224 116.557 10.1502 117.055 9.86331C117.553 9.57731 118.105 9.43387 118.711 9.43387C119.77 9.43387 120.669 9.85011 121.407 10.6799C122.144 11.5107 122.514 12.6687 122.514 14.1515C122.514 15.6766 122.142 16.8602 121.398 17.705C120.654 18.5507 119.753 18.9731 118.695 18.9731C118.19 18.9731 117.735 18.8727 117.325 18.6721C116.916 18.4715 116.486 18.1283 116.033 17.6407V22.2387H113.621V9.63979Z"
    fill="white"
  />
<path
    fill-rule="evenodd"
    clip-rule="evenodd"
    d="M129.668 13.4212C129.651 12.7225 129.471 12.1919 129.128 11.8267C128.784 11.4632 128.367 11.2811 127.874 11.2811C127.348 11.2811 126.913 11.4738 126.57 11.8575C126.226 12.2412 126.058 12.763 126.063 13.4212H129.668ZM129.531 15.8615L131.934 16.2654C131.626 17.148 131.138 17.8204 130.471 18.2806C129.804 18.7426 128.97 18.9732 127.968 18.9732C126.384 18.9732 125.211 18.4548 124.45 17.4173C123.849 16.5875 123.548 15.5385 123.548 14.2722C123.548 12.7595 123.943 11.575 124.733 10.7188C125.522 9.86252 126.521 9.43396 127.728 9.43396C129.085 9.43396 130.155 9.88276 130.938 10.7786C131.722 11.6762 132.098 13.049 132.063 14.8996H126.021C126.037 15.616 126.233 16.173 126.604 16.5708C126.976 16.9694 127.439 17.1683 127.995 17.1683C128.372 17.1683 128.69 17.0653 128.948 16.8585C129.205 16.6526 129.399 16.3208 129.531 15.8615V15.8615Z"
    fill="white"
  />
<path
    fill-rule="evenodd"
    clip-rule="evenodd"
    d="M133.941 18.7669H136.353V9.6404H133.941V18.7669ZM133.941 8.40224H136.353V6.16792H133.941V8.40224Z"
    fill="white"
  />
<path
    fill-rule="evenodd"
    clip-rule="evenodd"
    d="M137.624 16.1626L140.044 15.793C140.147 16.2629 140.355 16.6202 140.671 16.8631C140.986 17.1068 141.426 17.2283 141.993 17.2283C142.617 17.2283 143.085 17.1139 143.4 16.8842C143.612 16.7249 143.718 16.5102 143.718 16.24C143.718 16.057 143.66 15.9048 143.546 15.7842C143.426 15.6698 143.157 15.5642 142.739 15.4665C140.793 15.0371 139.561 14.6446 139.04 14.2891C138.319 13.7972 137.958 13.1116 137.958 12.2352C137.958 11.4449 138.27 10.7805 138.894 10.2411C139.518 9.70341 140.485 9.43413 141.795 9.43413C143.042 9.43413 143.97 9.63741 144.576 10.044C145.183 10.4514 145.6 11.0524 145.829 11.8488L143.555 12.2695C143.458 11.9148 143.273 11.642 143.001 11.4528C142.729 11.2645 142.342 11.1695 141.838 11.1695C141.203 11.1695 140.748 11.2592 140.473 11.4361C140.29 11.562 140.199 11.7256 140.199 11.9263C140.199 12.0979 140.279 12.244 140.439 12.3645C140.656 12.5247 141.407 12.7508 142.692 13.043C143.977 13.3352 144.874 13.6933 145.383 14.1175C145.887 14.5469 146.139 15.1462 146.139 15.9136C146.139 16.7504 145.789 17.4685 145.091 18.0704C144.393 18.6724 143.36 18.9724 141.993 18.9724C140.751 18.9724 139.767 18.7208 139.044 18.2165C138.321 17.7132 137.847 17.0276 137.624 16.1626"
    fill="white"
  />
<path
    fill-rule="evenodd"
    clip-rule="evenodd"
    d="M147.812 18.7665V6.16846H150.224V12.8538L153.048 9.64006H156.018L152.902 12.9744L156.241 18.7665H153.64L151.348 14.6675L150.224 15.8449V18.7665H147.812Z"
    fill="white"
  />
<path
    fill-rule="evenodd"
    clip-rule="evenodd"
    d="M162.704 14.3838C162.395 14.4867 161.906 14.6108 161.237 14.7534C160.567 14.8968 160.129 15.0367 159.923 15.174C159.609 15.3975 159.451 15.6818 159.451 16.025C159.451 16.3638 159.577 16.6559 159.829 16.9015C160.081 17.1487 160.402 17.2711 160.79 17.2711C161.225 17.2711 161.64 17.1285 162.035 16.8416C162.326 16.6243 162.518 16.3576 162.61 16.0426C162.673 15.8358 162.704 15.4442 162.704 14.8651V14.3838ZM159.477 12.424L157.288 12.0289C157.534 11.1471 157.958 10.4942 158.558 10.07C159.16 9.64586 160.052 9.43378 161.237 9.43378C162.312 9.43378 163.114 9.56226 163.64 9.81658C164.166 10.0718 164.537 10.3956 164.751 10.7872C164.966 11.1797 165.073 11.9004 165.073 12.9485L165.048 15.7671C165.048 16.5697 165.086 17.1611 165.164 17.5421C165.241 17.9231 165.385 18.3315 165.597 18.7662H163.211C163.148 18.6069 163.071 18.3684 162.979 18.0534C162.939 17.9108 162.91 17.8158 162.893 17.77C162.481 18.1713 162.041 18.4723 161.571 18.672C161.102 18.8735 160.601 18.973 160.069 18.973C159.131 18.973 158.391 18.7187 157.851 18.2083C157.309 17.6987 157.04 17.0537 157.04 16.274C157.04 15.7583 157.162 15.299 157.409 14.8951C157.655 14.4911 157.998 14.1823 158.442 13.9667C158.886 13.7519 159.526 13.5645 160.361 13.4043C161.488 13.1923 162.269 12.9951 162.704 12.8112V12.5701C162.704 12.1063 162.59 11.7755 162.361 11.5783C162.132 11.3803 161.7 11.2818 161.065 11.2818C160.635 11.2818 160.301 11.3663 160.06 11.5352C159.821 11.7042 159.625 12.0007 159.477 12.424V12.424Z"
    fill="white"
  />
</svg>
