<svg
  width="211"
  height="44"
  viewBox="0 0 211 44"
  fill="none"
  xmlns="http://www.w3.org/2000/svg"
>
<path
    d="M80.7939 10.9941V13.1562H76.751C76.8975 14.3105 77.2402 15.1602 77.7793 15.7051C78.3242 16.2441 78.9805 16.5137 79.748 16.5137C80.5391 16.5137 81.1924 16.2793 81.708 15.8105C82.2236 15.3359 82.54 14.6562 82.6572 13.7715L85.2676 14.5801C84.9688 15.8633 84.3652 16.874 83.457 17.6123C82.5488 18.3506 81.3682 18.7197 79.915 18.7197C78.4268 18.7197 77.252 18.3682 76.3906 17.665C75.5352 16.9619 74.9229 16.1504 74.5537 15.2305C74.1846 14.3105 74 13.2764 74 12.1279C74 10.1123 74.5303 8.48633 75.5908 7.25C76.6514 6.01367 78.1104 5.39551 79.9678 5.39551C81.4033 5.39551 82.5693 5.73535 83.4658 6.41504C84.3682 7.09473 84.957 8.01465 85.2324 9.1748L82.6572 9.76367C82.4697 9.08984 82.124 8.56836 81.6201 8.19922C81.1162 7.83008 80.542 7.64551 79.8975 7.64551C78.9717 7.64551 78.2393 7.96484 77.7002 8.60352C77.167 9.23633 76.8506 10.0332 76.751 10.9941H80.7939Z"
    fill="white"
  />
<path
    d="M87.3594 9.16602H92.7646C93.8721 9.16602 94.7012 9.36816 95.252 9.77246C95.8027 10.1768 96.0781 10.7861 96.0781 11.6006C96.0781 12.1221 95.9258 12.5762 95.6211 12.9629C95.3223 13.3496 94.9443 13.6074 94.4873 13.7363C95.1318 13.8945 95.6123 14.1904 95.9287 14.624C96.2451 15.0576 96.4033 15.5322 96.4033 16.0479C96.4033 16.7744 96.1367 17.3662 95.6035 17.8232C95.0703 18.2744 94.2822 18.5 93.2393 18.5H87.3594V9.16602ZM89.8467 13.042H91.4375C92.2051 13.042 92.7588 12.9453 93.0986 12.752C93.4443 12.5586 93.6172 12.2539 93.6172 11.8379C93.6172 11.4453 93.4561 11.167 93.1338 11.0029C92.8174 10.833 92.252 10.748 91.4375 10.748H89.8467V13.042ZM89.8467 16.918H91.7979C92.501 16.918 93.0137 16.833 93.3359 16.6631C93.6582 16.4932 93.8193 16.1885 93.8193 15.749C93.8193 15.292 93.6348 14.9785 93.2656 14.8086C92.8965 14.6328 92.1787 14.5449 91.1123 14.5449H89.8467V16.918Z"
    fill="white"
  />
<path
    d="M98.3369 9.16602H100.64V10.5371C100.938 10.0684 101.343 9.6875 101.853 9.39453C102.362 9.10156 102.928 8.95508 103.549 8.95508C104.633 8.95508 105.553 9.37988 106.309 10.2295C107.064 11.0791 107.442 12.2627 107.442 13.7803C107.442 15.3389 107.062 16.5518 106.3 17.4189C105.538 18.2803 104.615 18.7109 103.531 18.7109C103.016 18.7109 102.547 18.6084 102.125 18.4033C101.709 18.1982 101.27 17.8467 100.807 17.3486V22.0508H98.3369V9.16602ZM100.78 13.6748C100.78 14.7236 100.988 15.5 101.404 16.0039C101.82 16.502 102.327 16.751 102.925 16.751C103.499 16.751 103.977 16.5225 104.357 16.0654C104.738 15.6025 104.929 14.8467 104.929 13.7979C104.929 12.8193 104.732 12.0928 104.34 11.6182C103.947 11.1436 103.461 10.9062 102.881 10.9062C102.277 10.9062 101.776 11.1406 101.378 11.6094C100.979 12.0723 100.78 12.7607 100.78 13.6748Z"
    fill="white"
  />
<path
    d="M108.84 13.7012C108.84 12.8809 109.042 12.0869 109.446 11.3193C109.851 10.5518 110.422 9.96582 111.16 9.56152C111.904 9.15723 112.733 8.95508 113.647 8.95508C115.06 8.95508 116.217 9.41504 117.119 10.335C118.021 11.249 118.473 12.4062 118.473 13.8066C118.473 15.2188 118.016 16.3906 117.102 17.3223C116.193 18.248 115.048 18.7109 113.665 18.7109C112.81 18.7109 111.992 18.5176 111.213 18.1309C110.439 17.7441 109.851 17.1787 109.446 16.4346C109.042 15.6846 108.84 14.7734 108.84 13.7012ZM111.371 13.833C111.371 14.7588 111.591 15.4678 112.03 15.96C112.47 16.4521 113.012 16.6982 113.656 16.6982C114.301 16.6982 114.84 16.4521 115.273 15.96C115.713 15.4678 115.933 14.7529 115.933 13.8154C115.933 12.9014 115.713 12.1982 115.273 11.7061C114.84 11.2139 114.301 10.9678 113.656 10.9678C113.012 10.9678 112.47 11.2139 112.03 11.7061C111.591 12.1982 111.371 12.9072 111.371 13.833Z"
    fill="white"
  />
<path
    d="M120.318 9.16602H128.606V18.5H126.137V11.1611H122.788V18.5H120.318V9.16602Z"
    fill="white"
  />
<path
    d="M136.701 15.5293L139.162 15.9424C138.846 16.8447 138.345 17.5332 137.659 18.0078C136.979 18.4766 136.127 18.7109 135.102 18.7109C133.479 18.7109 132.277 18.1807 131.498 17.1201C130.883 16.2705 130.575 15.1982 130.575 13.9033C130.575 12.3564 130.979 11.1465 131.788 10.2734C132.597 9.39453 133.619 8.95508 134.855 8.95508C136.244 8.95508 137.34 9.41504 138.143 10.335C138.945 11.249 139.329 12.6523 139.294 14.5449H133.106C133.124 15.2773 133.323 15.8486 133.704 16.2588C134.085 16.6631 134.56 16.8652 135.128 16.8652C135.515 16.8652 135.84 16.7598 136.104 16.5488C136.367 16.3379 136.566 15.998 136.701 15.5293ZM136.842 13.0332C136.824 12.3184 136.64 11.7764 136.288 11.4072C135.937 11.0322 135.509 10.8447 135.005 10.8447C134.466 10.8447 134.021 11.041 133.669 11.4336C133.317 11.8262 133.145 12.3594 133.15 13.0332H136.842Z"
    fill="white"
  />
<path
    d="M141.254 9.16602H143.627V15.0283L147.424 9.16602H149.85V18.5H147.477V12.5322L143.627 18.5H141.254V9.16602ZM147.169 5.37793H148.373C148.303 6.1748 148.021 6.80176 147.529 7.25879C147.043 7.70996 146.41 7.93555 145.631 7.93555C144.852 7.93555 144.216 7.70996 143.724 7.25879C143.237 6.80176 142.959 6.1748 142.889 5.37793H144.093C144.134 5.79395 144.28 6.11035 144.532 6.32715C144.784 6.53809 145.15 6.64355 145.631 6.64355C146.111 6.64355 146.478 6.53809 146.729 6.32715C146.981 6.11035 147.128 5.79395 147.169 5.37793Z"
    fill="white"
  />
<path
    d="M160.528 11.9258L158.094 12.3652C158.012 11.8789 157.824 11.5127 157.531 11.2666C157.244 11.0205 156.869 10.8975 156.406 10.8975C155.791 10.8975 155.299 11.1113 154.93 11.5391C154.566 11.9609 154.385 12.6699 154.385 13.666C154.385 14.7734 154.569 15.5557 154.938 16.0127C155.313 16.4697 155.814 16.6982 156.441 16.6982C156.91 16.6982 157.294 16.5664 157.593 16.3027C157.892 16.0332 158.103 15.5732 158.226 14.9229L160.651 15.3359C160.399 16.4492 159.916 17.29 159.201 17.8584C158.486 18.4268 157.528 18.7109 156.327 18.7109C154.962 18.7109 153.872 18.2803 153.058 17.4189C152.249 16.5576 151.845 15.3652 151.845 13.8418C151.845 12.3008 152.252 11.1025 153.066 10.2471C153.881 9.38574 154.982 8.95508 156.371 8.95508C157.508 8.95508 158.41 9.20117 159.078 9.69336C159.752 10.1797 160.235 10.9238 160.528 11.9258Z"
    fill="white"
  />
<path
    d="M162.462 9.16602H164.932V13.042H167.41C168.383 13.042 169.13 13.1123 169.651 13.2529C170.173 13.3936 170.606 13.6982 170.952 14.167C171.298 14.6299 171.471 15.1689 171.471 15.7842C171.471 16.6865 171.16 17.3662 170.539 17.8232C169.924 18.2744 168.998 18.5 167.762 18.5H162.462V9.16602ZM164.932 16.9355H167.234C167.955 16.9355 168.415 16.8184 168.614 16.584C168.819 16.3496 168.922 16.0713 168.922 15.749C168.922 15.2979 168.746 14.9873 168.395 14.8174C168.049 14.6475 167.431 14.5625 166.54 14.5625H164.932V16.9355Z"
    fill="white"
  />
<path
    d="M173.387 9.16602H175.848V12.9805C176.258 12.9336 176.548 12.8076 176.718 12.6025C176.888 12.3975 177.093 11.9492 177.333 11.2578C177.649 10.3379 177.995 9.74902 178.37 9.49121C178.745 9.2334 179.237 9.10449 179.847 9.10449C180.034 9.10449 180.359 9.11914 180.822 9.14844L180.831 10.7832C180.181 10.7832 179.765 10.8447 179.583 10.9678C179.401 11.0967 179.205 11.4805 178.994 12.1191C178.707 12.9805 178.294 13.5107 177.755 13.71C178.534 13.9268 179.193 14.6035 179.732 15.7402C179.762 15.7988 179.794 15.8604 179.829 15.9248L181.209 18.5H178.555L177.324 15.8018C177.072 15.2568 176.853 14.9082 176.665 14.7559C176.483 14.5977 176.211 14.5186 175.848 14.5186V18.5H173.387V9.16602Z"
    fill="white"
  />
<path
    d="M182.439 9.16602H184.812V15.0283L188.609 9.16602H191.035V18.5H188.662V12.5322L184.812 18.5H182.439V9.16602Z"
    fill="white"
  />
<path
    d="M193.514 9.16602H195.887V15.0283L199.684 9.16602H202.109V18.5H199.736V12.5322L195.887 18.5H193.514V9.16602ZM199.429 5.37793H200.633C200.562 6.1748 200.281 6.80176 199.789 7.25879C199.303 7.70996 198.67 7.93555 197.891 7.93555C197.111 7.93555 196.476 7.70996 195.983 7.25879C195.497 6.80176 195.219 6.1748 195.148 5.37793H196.353C196.394 5.79395 196.54 6.11035 196.792 6.32715C197.044 6.53809 197.41 6.64355 197.891 6.64355C198.371 6.64355 198.737 6.53809 198.989 6.32715C199.241 6.11035 199.388 5.79395 199.429 5.37793Z"
    fill="white"
  />
<path
    d="M82.7793 33.7627L85.3018 34.5625C84.915 35.9688 84.2705 37.0146 83.3682 37.7002C82.4717 38.3799 81.332 38.7197 79.9492 38.7197C78.2383 38.7197 76.832 38.1367 75.7305 36.9707C74.6289 35.7988 74.0781 34.1992 74.0781 32.1719C74.0781 30.0273 74.6318 28.3633 75.7393 27.1797C76.8467 25.9902 78.3027 25.3955 80.1074 25.3955C81.6836 25.3955 82.9639 25.8613 83.9482 26.793C84.5342 27.3438 84.9736 28.1348 85.2666 29.166L82.6914 29.7812C82.5391 29.1133 82.2197 28.5859 81.7334 28.1992C81.2529 27.8125 80.667 27.6191 79.9756 27.6191C79.0205 27.6191 78.2441 27.9619 77.6465 28.6475C77.0547 29.333 76.7588 30.4434 76.7588 31.9785C76.7588 33.6074 77.0518 34.7676 77.6377 35.459C78.2236 36.1504 78.9854 36.4961 79.9229 36.4961C80.6143 36.4961 81.209 36.2764 81.707 35.8369C82.2051 35.3975 82.5625 34.7061 82.7793 33.7627Z"
    fill="white"
  />
<path
    d="M86.9541 33.7012C86.9541 32.8809 87.1562 32.0869 87.5605 31.3193C87.9648 30.5518 88.5361 29.9658 89.2744 29.5615C90.0186 29.1572 90.8477 28.9551 91.7617 28.9551C93.1738 28.9551 94.3311 29.415 95.2334 30.335C96.1357 31.249 96.5869 32.4062 96.5869 33.8066C96.5869 35.2188 96.1299 36.3906 95.2158 37.3223C94.3076 38.248 93.1621 38.7109 91.7793 38.7109C90.9238 38.7109 90.1064 38.5176 89.3271 38.1309C88.5537 37.7441 87.9648 37.1787 87.5605 36.4346C87.1562 35.6846 86.9541 34.7734 86.9541 33.7012ZM89.4854 33.833C89.4854 34.7588 89.7051 35.4678 90.1445 35.96C90.584 36.4521 91.126 36.6982 91.7705 36.6982C92.415 36.6982 92.9541 36.4521 93.3877 35.96C93.8271 35.4678 94.0469 34.7529 94.0469 33.8154C94.0469 32.9014 93.8271 32.1982 93.3877 31.7061C92.9541 31.2139 92.415 30.9678 91.7705 30.9678C91.126 30.9678 90.584 31.2139 90.1445 31.7061C89.7051 32.1982 89.4854 32.9072 89.4854 33.833Z"
    fill="white"
  />
<path
    d="M98.5117 29.166H100.981V32.9365H102.95C103.079 31.7412 103.53 30.7803 104.304 30.0537C105.083 29.3213 106.123 28.9551 107.424 28.9551C108.736 28.9551 109.812 29.3799 110.649 30.2295C111.487 31.0791 111.906 32.3037 111.906 33.9033C111.906 34.8408 111.748 35.6611 111.432 36.3643C111.121 37.0674 110.644 37.6357 109.999 38.0693C109.354 38.4971 108.514 38.7109 107.477 38.7109C105.982 38.7109 104.869 38.3066 104.137 37.498C103.404 36.6836 103.009 35.8164 102.95 34.8965H100.981V38.5H98.5117V29.166ZM107.389 30.8799C106.703 30.8799 106.202 31.0996 105.886 31.5391C105.575 31.9785 105.42 32.6787 105.42 33.6396C105.42 34.8701 105.587 35.7021 105.921 36.1357C106.261 36.5635 106.773 36.7773 107.459 36.7773C108.092 36.7773 108.566 36.5371 108.883 36.0566C109.199 35.5703 109.357 34.8438 109.357 33.877C109.357 32.6934 109.185 31.8994 108.839 31.4951C108.499 31.085 108.016 30.8799 107.389 30.8799Z"
    fill="white"
  />
<path
    d="M116.424 34.668V33.0596C116.852 33.0596 117.162 33.0332 117.355 32.9805C117.549 32.9219 117.73 32.7871 117.9 32.5762C118.076 32.3594 118.164 32.1133 118.164 31.8379C118.164 31.5449 118.056 31.2754 117.839 31.0293C117.628 30.7773 117.309 30.6514 116.881 30.6514C116.553 30.6514 116.26 30.7217 116.002 30.8623C115.744 31.0029 115.51 31.3369 115.299 31.8643L113.207 31.416C113.418 30.5957 113.869 29.9805 114.561 29.5703C115.252 29.1602 116.04 28.9551 116.925 28.9551C118.05 28.9551 118.92 29.2129 119.535 29.7285C120.156 30.2441 120.467 30.8916 120.467 31.6709C120.467 32.1572 120.332 32.5615 120.062 32.8838C119.799 33.2002 119.38 33.4961 118.806 33.7715C119.497 33.959 120.013 34.2432 120.353 34.624C120.698 35.0049 120.871 35.4795 120.871 36.0479C120.871 36.7744 120.531 37.4014 119.852 37.9287C119.172 38.4502 118.193 38.7109 116.916 38.7109C114.689 38.7109 113.327 37.8408 112.829 36.1006L115.088 35.6875C115.451 36.6016 116.052 37.0586 116.89 37.0586C117.353 37.0586 117.722 36.9385 117.997 36.6982C118.278 36.4521 118.419 36.165 118.419 35.8369C118.419 35.4736 118.272 35.1895 117.979 34.9844C117.692 34.7734 117.314 34.668 116.846 34.668H116.424Z"
    fill="white"
  />
<rect x="0.891846" y="0.880005" width="64.2162" height="42.24" fill="#003399" />
<path
    fill-rule="evenodd"
    clip-rule="evenodd"
    d="M30.8059 7.74397L32.1616 8.72077L31.6443 10.3136L33 9.32797L34.3556 10.3136L33.8384 8.72077L35.194 7.74397H33.5173L33 6.15997L32.4827 7.74397H30.8059ZM34.3556 37.84L33.8384 36.256L35.194 35.2792H33.5173L33 33.6864L32.4827 35.2792H30.8059L32.1616 36.256L31.6443 37.84L33 36.8632L34.3556 37.84ZM19.14 23.056L17.7843 24.0416L18.3016 22.4576L16.9459 21.5072H18.6227L19.14 19.9232L19.6573 21.5072H21.343L19.9784 22.4928L20.4957 24.0768L19.14 23.0912V23.056ZM27.4257 12.144L26.9084 10.56L28.264 9.59197H26.5873L26.07 8.00797L25.5527 9.59197H23.8759L25.2316 10.5688L24.7143 12.1528L26.07 11.176L27.4257 12.144ZM20.5135 14.6256L21.0308 13.0416L21.557 14.6256H23.1892L21.8335 15.6112L22.3508 17.1952L20.9862 16.2096L19.6216 17.1952L20.1389 15.6112L18.7832 14.6256H20.5135ZM20.5135 28.3888H18.8011H18.7832L20.1389 29.3744L19.6216 30.9584L20.9862 29.9816L22.3508 30.9584L21.8335 29.3744L23.1892 28.3888H21.557L21.0308 26.8048L20.5135 28.3888ZM25.2316 34.408L23.8759 33.44H25.5527L26.07 31.856L26.5873 33.44H28.264L26.9084 34.408L27.4257 35.992L26.07 35.0152L24.7143 35.992L25.2316 34.408ZM48.2157 24.0768L47.6984 22.4928L49.054 21.5072H47.4129L46.8957 19.9232L46.3784 21.5072H44.6392L46.0038 22.4928L45.4865 24.0768L46.86 23.0912L48.2157 24.0768ZM39.0916 10.56L37.7359 9.59197H39.4127L39.93 8.00797L40.4473 9.59197H42.124L40.7684 10.56L41.2857 12.144L39.93 11.176L38.5743 12.1528L39.0916 10.5688V10.56ZM44.9692 13.0328L44.4429 14.6168L42.8108 14.6256L44.1575 15.6112L43.6402 17.1952L45.0048 16.2096L46.3605 17.1952L45.8432 15.6112L47.1632 14.6168H45.4865L44.9692 13.0328ZM45.5311 28.3888H47.1632L45.8432 29.3744L46.3605 30.9584L45.0048 29.9816L43.6402 30.9584L44.1575 29.3744L42.8108 28.3888H44.4875L45.0138 26.8048L45.5311 28.3888ZM40.7684 34.408L42.124 33.44H40.4473L39.93 31.856L39.4127 33.44H37.7359L39.0916 34.408L38.5743 35.992L39.93 35.0152L41.2857 35.992L40.7684 34.408Z"
    fill="#FFCC00"
  />
<path
    fill-rule="evenodd"
    clip-rule="evenodd"
    d="M66 44H0V0H66V44ZM65.1081 0.88H0.891892V43.12H65.1081V0.88Z"
    fill="white"
  />
</svg>
