<svg
  width="211"
  height="44"
  viewBox="0 0 211 44"
  fill="none"
  xmlns="http://www.w3.org/2000/svg"
>
<rect x="0.878357" y="0.880005" width="63.2432" height="42.24" fill="#003399" />
<path
    fill-rule="evenodd"
    clip-rule="evenodd"
    d="M30.3392 7.74397L31.6743 8.72077L31.1649 10.3136L32.5 9.32797L33.8352 10.3136L33.3257 8.72077L34.6608 7.74397H33.0095L32.5 6.15997L31.9906 7.74397H30.3392ZM33.8352 37.84L33.3257 36.256L34.6608 35.2792H33.0095L32.5 33.6864L31.9906 35.2792H30.3392L31.6743 36.256L31.1649 37.84L32.5 36.8632L33.8352 37.84ZM18.85 23.056L17.5149 24.0416L18.0243 22.4576L16.6892 21.5072H18.3406L18.85 19.9232L19.3595 21.5072H21.0196L19.6757 22.4928L20.1852 24.0768L18.85 23.0912V23.056ZM27.0102 12.144L26.5007 10.56L27.8358 9.59197H26.1845L25.675 8.00797L25.1656 9.59197H23.5142L24.8493 10.5688L24.3399 12.1528L25.675 11.176L27.0102 12.144ZM20.2027 14.6256L20.7122 13.0416L21.2304 14.6256H22.8379L21.5027 15.6112L22.0122 17.1952L20.6683 16.2096L19.3243 17.1952L19.8338 15.6112L18.4987 14.6256H20.2027ZM20.7122 26.8048L20.2027 28.3888H18.5162H18.4987L19.8338 29.3744L19.3243 30.9584L20.6683 29.9816L22.0122 30.9584L21.5027 29.3744L22.8379 28.3888H21.2304L20.7122 26.8048ZM24.8493 34.408L23.5142 33.44H25.1656L25.675 31.856L26.1845 33.44H27.8358L26.5007 34.408L27.0102 35.992L25.675 35.0152L24.3399 35.992L24.8493 34.408ZM47.4852 24.0768L46.9757 22.4928L48.3108 21.5072H46.6946L46.1852 19.9232L45.6757 21.5072H43.9629L45.3068 22.4928L44.7973 24.0768L46.15 23.0912L47.4852 24.0768ZM38.4993 10.56L37.1642 9.59197H38.8156L39.325 8.00797L39.8345 9.59197H41.4858L40.1507 10.56L40.6602 12.144L39.325 11.176L37.9899 12.1528L38.4993 10.5688V10.56ZM44.2879 13.0328L43.7696 14.6168L42.1622 14.6256L43.4885 15.6112L42.9791 17.1952L44.323 16.2096L45.6581 17.1952L45.1487 15.6112L46.4487 14.6168H44.7973L44.2879 13.0328ZM44.8412 28.3888H46.4487L45.1487 29.3744L45.6581 30.9584L44.323 29.9816L42.9791 30.9584L43.4885 29.3744L42.1622 28.3888H43.8135L44.3318 26.8048L44.8412 28.3888ZM40.1507 34.408L41.4858 33.44H39.8345L39.325 31.856L38.8156 33.44H37.1642L38.4993 34.408L37.9899 35.992L39.325 35.0152L40.6602 35.992L40.1507 34.408Z"
    fill="#FFCC00"
  />
<path
    fill-rule="evenodd"
    clip-rule="evenodd"
    d="M65 44H0V0H65V44ZM64.1216 0.88H0.878378V43.12H64.1216V0.88Z"
    fill="white"
  />
<path
    fill-rule="evenodd"
    clip-rule="evenodd"
    d="M74.7302 25.2468H77.2713V32.0703C77.2713 33.1527 77.3029 33.8549 77.3653 34.1752C77.4743 34.6909 77.7328 35.1054 78.1424 35.4178C78.552 35.7302 79.1101 35.886 79.8203 35.886C80.5411 35.886 81.0843 35.7381 81.4509 35.4433C81.8174 35.1476 82.0371 34.786 82.1118 34.3565C82.1866 33.9262 82.2235 33.2134 82.2235 32.2164V25.2468H84.7646V31.8644C84.7646 33.3762 84.696 34.4454 84.5589 35.0693C84.4209 35.6941 84.1678 36.2212 83.7986 36.6507C83.4294 37.0801 82.9363 37.4224 82.3184 37.6776C81.7005 37.9328 80.8936 38.0604 79.8977 38.0604C78.6961 38.0604 77.7846 37.9214 77.1641 37.6433C76.5435 37.3652 76.0522 37.0044 75.6918 36.56C75.3314 36.1165 75.0932 35.651 74.9789 35.1644C74.8137 34.4419 74.7302 33.3762 74.7302 31.9673V25.2468Z"
    fill="white"
  />
<path
    fill-rule="evenodd"
    clip-rule="evenodd"
    d="M95.1906 37.8452H92.7787V33.1874C92.7787 32.2018 92.7268 31.5647 92.624 31.2751C92.5211 30.9865 92.3532 30.7612 92.1221 30.6011C91.89 30.44 91.6114 30.3599 91.2853 30.3599C90.8669 30.3599 90.4924 30.4752 90.1602 30.704C89.8279 30.9328 89.6012 31.2364 89.4781 31.6148C89.355 31.9932 89.2935 32.6919 89.2935 33.7119V37.8452H86.8816V28.7187H89.1221V30.059C89.9176 29.0276 90.9188 28.5128 92.1265 28.5128C92.6583 28.5128 93.1452 28.6079 93.5856 28.8006C94.0259 28.9924 94.36 29.2371 94.5859 29.5354C94.8109 29.8328 94.9691 30.1707 95.0579 30.5491C95.1458 30.9275 95.1906 31.4687 95.1906 32.1736V37.8452Z"
    fill="white"
  />
<path
    fill-rule="evenodd"
    clip-rule="evenodd"
    d="M97.1978 37.8453H99.6097V28.7188H97.1978V37.8453ZM97.1978 27.4807H99.6097V25.2463H97.1978V27.4807Z"
    fill="white"
  />
<path
    fill-rule="evenodd"
    clip-rule="evenodd"
    d="M104.569 27.6015L105.754 25.0319H108.458L106.097 27.6015H104.569ZM103.557 33.2819C103.557 34.1874 103.771 34.8799 104.2 35.3613C104.629 35.8427 105.159 36.0838 105.788 36.0838C106.418 36.0838 106.945 35.8427 107.371 35.3613C107.799 34.8799 108.011 34.1812 108.011 33.2651C108.011 32.3711 107.799 31.6838 107.371 31.2024C106.945 30.7211 106.418 30.4799 105.788 30.4799C105.159 30.4799 104.629 30.7211 104.2 31.2024C103.771 31.6838 103.557 32.3763 103.557 33.2819V33.2819ZM101.084 33.1534C101.084 32.3508 101.282 31.5747 101.676 30.824C102.071 30.0734 102.631 29.5005 103.354 29.1054C104.078 28.7103 104.886 28.5123 105.78 28.5123C107.159 28.5123 108.288 28.9602 109.17 29.8569C110.051 30.7545 110.492 31.8871 110.492 33.2563C110.492 34.6371 110.047 35.7811 109.157 36.6892C108.267 37.5974 107.147 38.0515 105.796 38.0515C104.961 38.0515 104.164 37.8623 103.406 37.4839C102.648 37.1063 102.071 36.5519 101.676 35.8215C101.282 35.0911 101.084 34.2015 101.084 33.1534V33.1534Z"
    fill="white"
  />
<path
    fill-rule="evenodd"
    clip-rule="evenodd"
    d="M74.7405 18.7667V6.16858H84.0709V8.29906H77.2816V11.0922H83.5988V13.2147H77.2816V16.6441H84.3117V18.7667H74.7405Z"
    fill="white"
  />
<path
    fill-rule="evenodd"
    clip-rule="evenodd"
    d="M92.2025 18.7666V17.4C91.8703 17.8866 91.4343 18.2712 90.8937 18.5519C90.3532 18.8326 89.7818 18.9725 89.1806 18.9725C88.5688 18.9725 88.0195 18.8388 87.5334 18.5686C87.0464 18.2993 86.694 17.9218 86.4769 17.4343C86.2598 16.9477 86.1508 16.2745 86.1508 15.4147V9.64014H88.5627V13.8342C88.5627 15.1173 88.6075 15.904 88.6963 16.1926C88.7842 16.4821 88.9468 16.7118 89.1806 16.8799C89.4153 17.0489 89.7133 17.1342 90.0736 17.1342C90.4859 17.1342 90.8551 17.0207 91.1812 16.7945C91.5073 16.5675 91.7305 16.2877 91.8509 15.9524C91.9705 15.6171 92.0311 14.7961 92.0311 13.4901V9.64014H94.4431V18.7666H92.2025Z"
    fill="white"
  />
<path
    fill-rule="evenodd"
    clip-rule="evenodd"
    d="M98.9863 18.7667H96.5743V9.64019H98.8149V10.9382C99.1981 10.3248 99.5427 9.92091 99.8485 9.72643C100.155 9.53107 100.503 9.43427 100.892 9.43427C101.441 9.43427 101.971 9.58563 102.48 9.88923L101.733 11.9951C101.327 11.7311 100.949 11.5991 100.6 11.5991C100.263 11.5991 99.976 11.6923 99.7413 11.8789C99.5075 12.0646 99.3229 12.4016 99.1876 12.8883C99.0531 13.3758 98.9863 14.3957 98.9863 15.948V18.7667Z"
    fill="white"
  />
<path
    fill-rule="evenodd"
    clip-rule="evenodd"
    d="M106.182 8.52291L107.367 5.95331H110.071L107.71 8.52291H106.182ZM105.169 14.2033C105.169 15.1088 105.384 15.8014 105.813 16.2827C106.242 16.7641 106.772 17.0052 107.401 17.0052C108.031 17.0052 108.558 16.7641 108.984 16.2827C109.411 15.8014 109.624 15.1027 109.624 14.1866C109.624 13.2925 109.411 12.6052 108.984 12.1239C108.558 11.6425 108.031 11.4014 107.401 11.4014C106.772 11.4014 106.242 11.6425 105.813 12.1239C105.384 12.6052 105.169 13.2978 105.169 14.2033V14.2033ZM102.697 14.0748C102.697 13.2723 102.895 12.4961 103.289 11.7455C103.684 10.9948 104.244 10.4219 104.967 10.0268C105.691 9.63171 106.499 9.43371 107.392 9.43371C108.772 9.43371 109.901 9.88163 110.783 10.7783C111.664 11.6759 112.105 12.8085 112.105 14.1778C112.105 15.5585 111.66 16.7025 110.77 17.6107C109.88 18.5188 108.76 18.9729 107.409 18.9729C106.574 18.9729 105.777 18.7837 105.019 18.4053C104.261 18.0278 103.684 17.4734 103.289 16.743C102.895 16.0126 102.697 15.1229 102.697 14.0748V14.0748Z"
    fill="white"
  />
<path
    fill-rule="evenodd"
    clip-rule="evenodd"
    d="M116.012 14.0487C116.012 15.0748 116.215 15.8316 116.621 16.3217C117.028 16.8119 117.523 17.0565 118.107 17.0565C118.668 17.0565 119.134 16.8321 119.506 16.3816C119.877 15.9319 120.064 15.1944 120.064 14.1692C120.064 13.2118 119.873 12.5016 119.489 12.0379C119.105 11.5732 118.631 11.3418 118.064 11.3418C117.474 11.3418 116.984 11.5697 116.596 12.0247C116.207 12.4805 116.012 13.1546 116.012 14.0487V14.0487ZM113.626 9.63988H115.875V10.981C116.167 10.5225 116.562 10.1503 117.059 9.8634C117.558 9.57652 118.11 9.43396 118.716 9.43396C119.774 9.43396 120.674 9.84932 121.412 10.68C122.149 11.5108 122.519 12.668 122.519 14.1516C122.519 15.6758 122.147 16.8603 121.403 17.7051C120.659 18.5508 119.758 18.9732 118.699 18.9732C118.195 18.9732 117.739 18.8728 117.33 18.6722C116.92 18.4716 116.49 18.1275 116.038 17.6408V22.2388H113.626V9.63988Z"
    fill="white"
  />
<path
    fill-rule="evenodd"
    clip-rule="evenodd"
    d="M129.287 14.3839C128.978 14.4869 128.489 14.6101 127.819 14.7535C127.149 14.8969 126.712 15.0369 126.506 15.1741C126.191 15.3977 126.034 15.6819 126.034 16.0251C126.034 16.3639 126.16 16.6561 126.412 16.9016C126.663 17.148 126.984 17.2712 127.373 17.2712C127.808 17.2712 128.223 17.1286 128.617 16.8417C128.909 16.6235 129.101 16.3577 129.193 16.0427C129.255 15.8359 129.287 15.4443 129.287 14.8653V14.3839ZM126.059 12.4241L123.871 12.029C124.117 11.1473 124.541 10.4943 125.141 10.0701C125.742 9.64598 126.634 9.4339 127.819 9.4339C128.895 9.4339 129.697 9.5615 130.222 9.8167C130.749 10.071 131.12 10.3949 131.334 10.7873C131.549 11.1798 131.656 11.9005 131.656 12.9486L131.63 15.7673C131.63 16.5698 131.669 17.1612 131.746 17.5422C131.824 17.9233 131.968 18.3316 132.18 18.7663H129.793C129.731 18.6061 129.654 18.3685 129.561 18.0535C129.522 17.9101 129.493 17.8159 129.476 17.7701C129.064 18.1705 128.623 18.4715 128.154 18.6721C127.685 18.8728 127.184 18.9731 126.652 18.9731C125.714 18.9731 124.974 18.7179 124.433 18.2084C123.892 17.698 123.622 17.0538 123.622 16.2741C123.622 15.7585 123.744 15.2991 123.991 14.8952C124.237 14.4913 124.581 14.1824 125.025 13.9668C125.469 13.7521 126.109 13.5646 126.944 13.4045C128.071 13.1924 128.852 12.9944 129.287 12.8113V12.5702C129.287 12.1065 129.173 11.7756 128.943 11.5785C128.715 11.3805 128.282 11.2819 127.648 11.2819C127.218 11.2819 126.884 11.3664 126.643 11.5353C126.403 11.7043 126.208 12.0009 126.059 12.4241V12.4241Z"
    fill="white"
  />
<path
    fill-rule="evenodd"
    clip-rule="evenodd"
    d="M134.21 18.7669H136.622V9.64045H134.21V18.7669ZM134.21 8.40229H136.622V6.16797H134.21V8.40229Z"
    fill="white"
  />
</svg>
