<svg
  width="219"
  height="44"
  viewBox="0 0 219 44"
  fill="none"
  xmlns="http://www.w3.org/2000/svg"
>
<path
    d="M16.52 28.44C16.52 28.1333 16.5467 27.7733 16.6 27.36C16.6534 26.9466 16.7534 26.48 16.9 25.96C17.0467 25.4266 17.2667 24.8333 17.56 24.18L20.02 25.04C19.8734 25.4533 19.7467 25.8333 19.64 26.18C19.5334 26.5133 19.4534 26.8266 19.4 27.12C19.3467 27.4 19.32 27.68 19.32 27.96C19.32 28.4 19.4134 28.7933 19.6 29.14C19.8 29.5 20.0867 29.8 20.46 30.04C20.8334 30.2933 21.2867 30.4866 21.82 30.62C22.3667 30.7533 22.9934 30.82 23.7 30.82C24.4334 30.82 25.0867 30.7866 25.66 30.72C26.2467 30.6533 26.74 30.5533 27.14 30.42C27.5534 30.2866 27.8667 30.1133 28.08 29.9C28.2934 29.7 28.4 29.4666 28.4 29.2C28.4 29.08 28.3534 28.9666 28.26 28.86C28.18 28.7533 28.04 28.64 27.84 28.52C27.6534 28.4 27.4 28.2733 27.08 28.14C26.7734 28.0066 26.4 27.86 25.96 27.7L26.62 24.88C27.1934 25.12 27.7334 25.3333 28.24 25.52C28.76 25.6933 29.2534 25.84 29.72 25.96C30.1867 26.0666 30.6267 26.1533 31.04 26.22C31.4534 26.2733 31.84 26.3 32.2 26.3C32.7067 26.3 33.0667 26.4333 33.28 26.7C33.4934 26.9533 33.6 27.2733 33.6 27.66C33.6 28.0733 33.46 28.42 33.18 28.7C32.9 28.9666 32.5067 29.1 32 29.1C31.8934 29.1 31.7867 29.1 31.68 29.1C31.5867 29.1 31.4867 29.1 31.38 29.1C31.2867 29.1 31.1867 29.1 31.08 29.1C31.1067 29.2333 31.12 29.3466 31.12 29.44C31.12 29.5466 31.12 29.6466 31.12 29.74C31.12 30.18 30.9667 30.6266 30.66 31.08C30.3667 31.5333 29.9067 31.9533 29.28 32.34C28.6534 32.7266 27.8534 33.0333 26.88 33.26C25.92 33.5 24.7734 33.62 23.44 33.62C22 33.62 20.76 33.4333 19.72 33.06C18.6934 32.7 17.9 32.1333 17.34 31.36C16.7934 30.6 16.52 29.6266 16.52 28.44ZM25.4 38.26C25.0134 38.26 24.68 38.12 24.4 37.84C24.1334 37.5733 24 37.2533 24 36.88C24 36.4933 24.1334 36.16 24.4 35.88C24.68 35.6 25.0134 35.46 25.4 35.46C25.7734 35.46 26.0934 35.6 26.36 35.88C26.6267 36.16 26.76 36.4933 26.76 36.88C26.76 37.2533 26.6267 37.5733 26.36 37.84C26.0934 38.12 25.7734 38.26 25.4 38.26ZM21.94 38.26C21.5534 38.26 21.22 38.12 20.94 37.84C20.6734 37.5733 20.54 37.2533 20.54 36.88C20.54 36.4933 20.6734 36.16 20.94 35.88C21.22 35.6 21.5534 35.46 21.94 35.46C22.3134 35.46 22.6334 35.6 22.9 35.88C23.1667 36.16 23.3 36.4933 23.3 36.88C23.3 37.2533 23.1667 37.5733 22.9 37.84C22.6334 38.12 22.3134 38.26 21.94 38.26Z"
    fill="white"
  />
<path
    d="M31.9961 29.1L32.1961 26.3C32.7828 26.3 33.2428 26.26 33.5761 26.18C33.9228 26.1 34.1694 25.9533 34.3161 25.74C34.4628 25.5133 34.5361 25.1933 34.5361 24.78C34.5361 24.4066 34.4828 23.96 34.3761 23.44C34.2828 22.92 34.1561 22.38 33.9961 21.82C33.8361 21.26 33.6761 20.7466 33.5161 20.28L36.2761 19.52C36.4361 19.9733 36.5961 20.5 36.7561 21.1C36.9161 21.7 37.0494 22.32 37.1561 22.96C37.2761 23.5866 37.3361 24.1933 37.3361 24.78C37.3361 25.5133 37.2428 26.1333 37.0561 26.64C36.8694 27.1333 36.6094 27.5466 36.2761 27.88C35.9561 28.2 35.5694 28.4533 35.1161 28.64C34.6761 28.8133 34.1894 28.9333 33.6561 29C33.1228 29.0666 32.5694 29.1 31.9961 29.1ZM34.4561 33.7C34.0694 33.7 33.7361 33.5666 33.4561 33.3C33.1894 33.0333 33.0561 32.7066 33.0561 32.32C33.0561 31.9333 33.1894 31.5933 33.4561 31.3C33.7361 31.02 34.0694 30.88 34.4561 30.88C34.8428 30.88 35.1694 31.02 35.4361 31.3C35.7161 31.5933 35.8561 31.9333 35.8561 32.32C35.8561 32.7066 35.7161 33.0333 35.4361 33.3C35.1694 33.5666 34.8428 33.7 34.4561 33.7Z"
    fill="white"
  />
<path
    d="M39.4838 33.6L38.9038 30.8C39.8504 30.68 40.6771 30.5333 41.3838 30.36C42.0904 30.2 42.6838 29.9733 43.1638 29.68C43.6438 29.3866 44.0038 28.9866 44.2438 28.48C44.4838 27.96 44.6038 27.2933 44.6038 26.48C44.6038 26.1866 44.5771 25.8933 44.5238 25.6C44.4704 25.2933 44.3904 25.0133 44.2838 24.76C44.1771 24.5066 44.0371 24.3 43.8638 24.14C43.7038 23.98 43.5104 23.9 43.2838 23.9C43.0438 23.9 42.8304 23.9866 42.6438 24.16C42.4571 24.32 42.3104 24.5266 42.2038 24.78C42.0971 25.02 42.0438 25.2666 42.0438 25.52C42.0438 25.7066 42.0904 25.8666 42.1838 26C42.2771 26.12 42.4171 26.2133 42.6038 26.28C42.7904 26.3333 43.0238 26.36 43.3038 26.36C43.6238 26.36 43.9504 26.3266 44.2838 26.26C44.6304 26.18 44.9438 26.0733 45.2238 25.94L45.3038 28.12C44.9838 28.3733 44.6171 28.6 44.2038 28.8C43.7904 28.9866 43.2904 29.08 42.7038 29.08C42.2238 29.08 41.7771 29.0266 41.3638 28.92C40.9504 28.8 40.5838 28.62 40.2638 28.38C39.9571 28.14 39.7171 27.8333 39.5438 27.46C39.3704 27.0733 39.2838 26.6133 39.2838 26.08C39.2838 25.4266 39.3904 24.7933 39.6038 24.18C39.8171 23.5666 40.1104 23.02 40.4838 22.54C40.8704 22.0466 41.3104 21.66 41.8038 21.38C42.3104 21.0866 42.8438 20.94 43.4038 20.94C44.0704 20.94 44.6504 21.1066 45.1438 21.44C45.6504 21.7733 46.0704 22.2133 46.4038 22.76C46.7371 23.2933 46.9904 23.8733 47.1638 24.5C47.3371 25.1266 47.4238 25.7266 47.4238 26.3C47.4238 27.8066 47.1038 29.0866 46.4638 30.14C45.8238 31.1933 44.9104 32.0066 43.7238 32.58C42.5371 33.1666 41.1238 33.5066 39.4838 33.6Z"
    fill="white"
  />
<path
    d="M48.6247 33.6L47.6047 31.04C48.7514 30.64 49.678 30.2 50.3847 29.72C51.1047 29.24 51.6314 28.7266 51.9647 28.18C52.3114 27.6333 52.4847 27.0666 52.4847 26.48C52.4847 26.1066 52.4314 25.72 52.3247 25.32C52.218 24.9066 52.0647 24.4733 51.8647 24.02C51.678 23.5666 51.4514 23.0933 51.1847 22.6L53.8047 21.34C54.2714 22.2333 54.6314 23.0866 54.8847 23.9C55.1514 24.7133 55.2847 25.4733 55.2847 26.18C55.2847 26.8333 55.198 27.46 55.0247 28.06C54.8647 28.66 54.6114 29.22 54.2647 29.74C53.9314 30.2733 53.498 30.7733 52.9647 31.24C52.4314 31.7066 51.8047 32.1333 51.0847 32.52C50.3647 32.92 49.5447 33.28 48.6247 33.6Z"
    fill="white"
  />
<path
    d="M57.6283 33.6L57.0483 30.8C57.995 30.68 58.8216 30.5333 59.5283 30.36C60.235 30.2 60.8283 29.9733 61.3083 29.68C61.7883 29.3866 62.1483 28.9866 62.3883 28.48C62.6283 27.96 62.7483 27.2933 62.7483 26.48C62.7483 26.1866 62.7216 25.8933 62.6683 25.6C62.615 25.2933 62.535 25.0133 62.4283 24.76C62.3216 24.5066 62.1816 24.3 62.0083 24.14C61.8483 23.98 61.655 23.9 61.4283 23.9C61.1883 23.9 60.975 23.9866 60.7883 24.16C60.6016 24.32 60.455 24.5266 60.3483 24.78C60.2416 25.02 60.1883 25.2666 60.1883 25.52C60.1883 25.7066 60.235 25.8666 60.3283 26C60.4216 26.12 60.5616 26.2133 60.7483 26.28C60.935 26.3333 61.1683 26.36 61.4483 26.36C61.7683 26.36 62.095 26.3266 62.4283 26.26C62.775 26.18 63.0883 26.0733 63.3683 25.94L63.4483 28.12C63.1283 28.3733 62.7616 28.6 62.3483 28.8C61.935 28.9866 61.435 29.08 60.8483 29.08C60.3683 29.08 59.9216 29.0266 59.5083 28.92C59.095 28.8 58.7283 28.62 58.4083 28.38C58.1016 28.14 57.8616 27.8333 57.6883 27.46C57.515 27.0733 57.4283 26.6133 57.4283 26.08C57.4283 25.4266 57.535 24.7933 57.7483 24.18C57.9616 23.5666 58.255 23.02 58.6283 22.54C59.015 22.0466 59.455 21.66 59.9483 21.38C60.455 21.0866 60.9883 20.94 61.5483 20.94C62.215 20.94 62.795 21.1066 63.2883 21.44C63.795 21.7733 64.215 22.2133 64.5483 22.76C64.8816 23.2933 65.135 23.8733 65.3083 24.5C65.4816 25.1266 65.5683 25.7266 65.5683 26.3C65.5683 27.8066 65.2483 29.0866 64.6083 30.14C63.9683 31.1933 63.055 32.0066 61.8683 32.58C60.6816 33.1666 59.2683 33.5066 57.6283 33.6Z"
    fill="white"
  />
<path
    d="M74.3292 18.28C74.3292 17.84 74.3026 17.4 74.2492 16.96C74.2092 16.52 74.1559 16.1066 74.0892 15.72C74.0226 15.32 73.9626 14.9733 73.9092 14.68L76.7092 14.28C76.7626 14.5466 76.8159 14.9 76.8692 15.34C76.9226 15.78 76.9692 16.2466 77.0092 16.74C77.0492 17.22 77.0692 17.68 77.0692 18.12C77.0692 18.8133 77.0092 19.4666 76.8892 20.08C76.7692 20.6933 76.5892 21.2733 76.3492 21.82C76.1092 22.3533 75.8092 22.8666 75.4492 23.36L75.0892 23.84C74.7426 24.2666 74.3359 24.6866 73.8692 25.1C73.4159 25.5133 72.9159 25.9133 72.3692 26.3H73.6692C74.1226 26.3 74.4692 26.2733 74.7092 26.22C74.9492 26.1666 75.1092 26.0933 75.1892 26C75.2826 25.8933 75.3292 25.7733 75.3292 25.64C75.3292 25.4 75.1226 25.0466 74.7092 24.58C74.2959 24.1 73.7226 23.5533 72.9892 22.94C72.2559 22.3133 71.3959 21.6533 70.4092 20.96C69.4359 20.2533 68.3826 19.5466 67.2492 18.84L68.7092 16.7C70.2826 17.6733 71.6092 18.5666 72.6892 19.38C73.7826 20.1933 74.6759 20.9333 75.3692 21.6C76.0759 22.2666 76.6226 22.8733 77.0092 23.42C77.3959 23.9666 77.6626 24.46 77.8092 24.9C77.9559 25.3266 78.0292 25.7133 78.0292 26.06C78.0292 26.4466 77.9692 26.82 77.8492 27.18C77.7292 27.5266 77.5359 27.84 77.2692 28.12C77.0026 28.3866 76.6559 28.6 76.2292 28.76C75.8026 28.92 75.2759 29 74.6492 29H68.7692V26.32C70.1426 25.3333 71.2292 24.4 72.0292 23.52C72.8426 22.64 73.4292 21.7733 73.7892 20.92C74.1492 20.0666 74.3292 19.1866 74.3292 18.28ZM67.0692 16.4L66.7292 15C67.1959 14.92 67.5426 14.8533 67.7692 14.8C68.0092 14.7466 68.2626 14.6866 68.5292 14.62L68.3292 15.12C67.9826 15 67.6492 14.7666 67.3292 14.42C67.0226 14.06 66.8692 13.6533 66.8692 13.2C66.8692 12.72 66.9759 12.3333 67.1892 12.04C67.4026 11.7466 67.6759 11.5333 68.0092 11.4C68.3426 11.2666 68.6892 11.2 69.0492 11.2C69.2492 11.2 69.4359 11.2133 69.6092 11.24C69.7959 11.2666 69.9626 11.3066 70.1092 11.36L69.9492 12.8C69.8159 12.7733 69.6826 12.7466 69.5492 12.72C69.4159 12.6933 69.2692 12.68 69.1092 12.68C68.9359 12.68 68.7759 12.74 68.6292 12.86C68.4959 12.9666 68.4292 13.1 68.4292 13.26C68.4292 13.4866 68.5092 13.6866 68.6692 13.86C68.8292 14.0333 69.0159 14.1733 69.2292 14.28C69.4559 14.3733 69.6426 14.4266 69.7892 14.44L68.6892 14.56C69.0492 14.4666 69.3892 14.3733 69.7092 14.28C70.0292 14.1733 70.3292 14.0666 70.6092 13.96L71.0092 15.3C70.6759 15.42 70.2826 15.5533 69.8292 15.7C69.3892 15.8333 68.9292 15.96 68.4492 16.08C67.9826 16.2 67.5226 16.3066 67.0692 16.4Z"
    fill="white"
  />
<path d="M81.2914 29L80.8714 14.36H83.6714L84.0914 29H81.2914Z" fill="white" />
<path
    d="M91.0555 28.2L92.0355 25.66C92.5288 25.8733 93.0022 26.0333 93.4555 26.14C93.9088 26.2466 94.3622 26.3 94.8155 26.3C95.2822 26.3 95.6688 26.26 95.9755 26.18C96.2955 26.0866 96.5355 25.9533 96.6955 25.78C96.8555 25.6066 96.9355 25.4 96.9355 25.16C96.9355 24.9333 96.8622 24.62 96.7155 24.22C96.5822 23.82 96.3355 23.3 95.9755 22.66C95.6155 22.0066 95.0888 21.2 94.3955 20.24L96.7755 18.66C97.4155 19.5666 97.9688 20.4533 98.4355 21.32C98.9022 22.1733 99.2622 22.9733 99.5155 23.72C99.7822 24.4533 99.9155 25.1 99.9155 25.66C99.9155 26.3533 99.7288 26.96 99.3555 27.48C98.9955 27.9866 98.4555 28.3866 97.7355 28.68C97.0288 28.9733 96.1555 29.12 95.1155 29.12C94.7288 29.12 94.2955 29.0866 93.8155 29.02C93.3355 28.9533 92.8488 28.8533 92.3555 28.72C91.8755 28.5866 91.4422 28.4133 91.0555 28.2Z"
    fill="white"
  />
<path
    d="M107.028 29.1C105.788 29.1 104.828 28.9733 104.148 28.72C103.481 28.4666 103.014 28.0733 102.748 27.54C102.481 26.9933 102.328 26.3066 102.288 25.48L101.868 14.36H104.668L105.088 24.14C105.114 24.7533 105.181 25.2133 105.288 25.52C105.394 25.8266 105.594 26.0333 105.888 26.14C106.194 26.2466 106.641 26.3 107.228 26.3C107.734 26.3 108.094 26.4333 108.308 26.7C108.534 26.9533 108.648 27.2733 108.648 27.66C108.648 28.0733 108.508 28.42 108.228 28.7C107.948 28.9666 107.548 29.1 107.028 29.1Z"
    fill="white"
  />
<path
    d="M120.135 29.1C119.521 29.1 118.948 29.0533 118.415 28.96C117.895 28.8666 117.415 28.7066 116.975 28.48C116.535 28.24 116.141 27.9133 115.795 27.5C115.461 27.0866 115.181 26.5666 114.955 25.94L116.535 24.68C116.775 25.1066 117.068 25.44 117.415 25.68C117.761 25.9066 118.175 26.0666 118.655 26.16C119.135 26.2533 119.695 26.3 120.335 26.3C120.841 26.3 121.201 26.4333 121.415 26.7C121.628 26.9533 121.735 27.2733 121.735 27.66C121.735 28.0733 121.595 28.42 121.315 28.7C121.048 28.9666 120.655 29.1 120.135 29.1ZM107.055 29.1L107.255 26.3C107.975 26.3 108.688 26.26 109.395 26.18C110.101 26.1 110.788 25.98 111.455 25.82C112.121 25.66 112.755 25.4533 113.355 25.2C113.968 24.9466 114.541 24.64 115.075 24.28C114.675 24.04 114.241 23.8333 113.775 23.66C113.308 23.4866 112.808 23.36 112.275 23.28C111.755 23.1866 111.201 23.14 110.615 23.14C110.401 23.14 110.175 23.1466 109.935 23.16C109.708 23.1733 109.475 23.2 109.235 23.24C108.995 23.2666 108.755 23.3066 108.515 23.36L108.115 20.62C108.501 20.5133 108.908 20.44 109.335 20.4C109.775 20.3466 110.161 20.32 110.495 20.32C111.215 20.32 111.875 20.4 112.475 20.56C113.088 20.72 113.648 20.92 114.155 21.16C114.675 21.4 115.155 21.64 115.595 21.88C116.048 22.12 116.475 22.32 116.875 22.48C117.288 22.64 117.688 22.72 118.075 22.72H118.815L119.135 25.38C118.561 25.4066 118.021 25.52 117.515 25.72C117.021 25.9066 116.528 26.1466 116.035 26.44C115.555 26.72 115.035 27.0133 114.475 27.32C113.928 27.6266 113.308 27.9133 112.615 28.18C111.921 28.4466 111.121 28.6666 110.215 28.84C109.308 29.0133 108.255 29.1 107.055 29.1Z"
    fill="white"
  />
<path
    d="M120.141 29.1L120.341 26.3C121.141 26.3 121.754 26.26 122.181 26.18C122.607 26.1 122.901 25.9533 123.061 25.74C123.234 25.5133 123.321 25.1933 123.321 24.78C123.321 24.4066 123.267 23.96 123.161 23.44C123.067 22.92 122.941 22.38 122.781 21.82C122.634 21.26 122.474 20.7466 122.301 20.28L125.061 19.52C125.234 19.9733 125.401 20.5 125.561 21.1C125.721 21.7 125.854 22.32 125.961 22.96C126.067 23.5866 126.121 24.1933 126.121 24.78C126.121 25.6866 125.974 26.4266 125.681 27C125.387 27.56 124.974 27.9933 124.441 28.3C123.921 28.6066 123.294 28.82 122.561 28.94C121.827 29.0466 121.021 29.1 120.141 29.1ZM125.561 17.9C125.174 17.9 124.841 17.7666 124.561 17.5C124.294 17.22 124.161 16.8933 124.161 16.52C124.161 16.1333 124.294 15.8 124.561 15.52C124.841 15.24 125.174 15.1 125.561 15.1C125.934 15.1 126.254 15.24 126.521 15.52C126.787 15.8 126.921 16.1333 126.921 16.52C126.921 16.8933 126.787 17.22 126.521 17.5C126.254 17.7666 125.934 17.9 125.561 17.9ZM122.101 17.88C121.714 17.88 121.381 17.7466 121.101 17.48C120.834 17.2 120.701 16.8733 120.701 16.5C120.701 16.1133 120.834 15.78 121.101 15.5C121.381 15.22 121.714 15.08 122.101 15.08C122.474 15.08 122.794 15.22 123.061 15.5C123.327 15.78 123.461 16.1133 123.461 16.5C123.461 16.8733 123.327 17.2 123.061 17.48C122.794 17.7466 122.474 17.88 122.101 17.88Z"
    fill="white"
  />
<path
    d="M135.208 18.28C135.208 17.84 135.181 17.4 135.128 16.96C135.088 16.52 135.035 16.1066 134.968 15.72C134.901 15.32 134.841 14.9733 134.788 14.68L137.588 14.28C137.641 14.5466 137.695 14.9 137.748 15.34C137.801 15.78 137.848 16.2466 137.888 16.74C137.928 17.22 137.948 17.68 137.948 18.12C137.948 18.8133 137.888 19.4666 137.768 20.08C137.648 20.6933 137.468 21.2733 137.228 21.82C136.988 22.3533 136.688 22.8666 136.328 23.36L135.968 23.84C135.621 24.2666 135.215 24.6866 134.748 25.1C134.295 25.5133 133.795 25.9133 133.248 26.3H134.548C135.001 26.3 135.348 26.2733 135.588 26.22C135.828 26.1666 135.988 26.0933 136.068 26C136.161 25.8933 136.208 25.7733 136.208 25.64C136.208 25.4 136.001 25.0466 135.588 24.58C135.175 24.1 134.601 23.5533 133.868 22.94C133.135 22.3133 132.275 21.6533 131.288 20.96C130.315 20.2533 129.261 19.5466 128.128 18.84L129.588 16.7C131.161 17.6733 132.488 18.5666 133.568 19.38C134.661 20.1933 135.555 20.9333 136.248 21.6C136.955 22.2666 137.501 22.8733 137.888 23.42C138.275 23.9666 138.541 24.46 138.688 24.9C138.835 25.3266 138.908 25.7133 138.908 26.06C138.908 26.4466 138.848 26.82 138.728 27.18C138.608 27.5266 138.415 27.84 138.148 28.12C137.881 28.3866 137.535 28.6 137.108 28.76C136.681 28.92 136.155 29 135.528 29H129.648V26.32C131.021 25.3333 132.108 24.4 132.908 23.52C133.721 22.64 134.308 21.7733 134.668 20.92C135.028 20.0666 135.208 19.1866 135.208 18.28Z"
    fill="white"
  />
<path d="M141.565 29L141.145 14.36H143.945L144.365 29H141.565Z" fill="white" />
<rect x="154.878" y="0.879883" width="63.2432" height="42.24" fill="#003399" />
<path
    fill-rule="evenodd"
    clip-rule="evenodd"
    d="M184.339 7.74416L185.674 8.72096L185.165 10.3138L186.5 9.32816L187.835 10.3138L187.326 8.72096L188.661 7.74416H187.009L186.5 6.16016L185.991 7.74416H184.339ZM187.835 37.8401L187.326 36.2561L188.661 35.2793H187.009L186.5 33.6865L185.991 35.2793H184.339L185.674 36.2561L185.165 37.8401L186.5 36.8633L187.835 37.8401ZM172.85 23.0566L171.515 24.0422L172.024 22.4582L170.689 21.5078H172.341L172.85 19.9238L173.359 21.5078H175.02L173.676 22.4934L174.185 24.0774L172.85 23.0918V23.0566ZM181.01 12.1438L180.501 10.5598L181.836 9.59181H180.184L179.675 8.00781L179.166 9.59181H177.514L178.849 10.5686L178.34 12.1526L179.675 11.1758L181.01 12.1438ZM174.203 14.626L174.712 13.042L175.23 14.626H176.838L175.503 15.6116L176.012 17.1956L174.668 16.21L173.324 17.1956L173.834 15.6116L172.499 14.626H174.203ZM174.203 28.3887H172.516H172.499L173.834 29.3743L173.324 30.9583L174.668 29.9815L176.012 30.9583L175.503 29.3743L176.838 28.3887H175.23L174.712 26.8047L174.203 28.3887ZM178.849 34.4084L177.514 33.4404H179.166L179.675 31.8564L180.184 33.4404H181.836L180.501 34.4084L181.01 35.9924L179.675 35.0156L178.34 35.9924L178.849 34.4084ZM201.485 24.0774L200.976 22.4934L202.311 21.5078H200.695L200.185 19.9238L199.676 21.5078H197.963L199.307 22.4934L198.797 24.0774L200.15 23.0918L201.485 24.0774ZM192.499 10.5598L191.164 9.59181H192.816L193.325 8.00781L193.834 9.59181H195.486L194.151 10.5598L194.66 12.1438L193.325 11.1758L191.99 12.1526L192.499 10.5686V10.5598ZM198.288 13.0332L197.77 14.6172L196.162 14.626L197.489 15.6116L196.979 17.1956L198.323 16.21L199.658 17.1956L199.149 15.6116L200.449 14.6172H198.797L198.288 13.0332ZM198.841 28.3887H200.449L199.149 29.3743L199.658 30.9583L198.323 29.9815L196.979 30.9583L197.489 29.3743L196.162 28.3887H197.814L198.332 26.8047L198.841 28.3887ZM194.151 34.4084L195.486 33.4404H193.834L193.325 31.8564L192.816 33.4404H191.164L192.499 34.4084L191.99 35.9924L193.325 35.0156L194.66 35.9924L194.151 34.4084Z"
    fill="#FFCC00"
  />
<path
    fill-rule="evenodd"
    clip-rule="evenodd"
    d="M219 44H154V0H219V44ZM218.122 0.879883H154.878V43.1199H218.122V0.879883Z"
    fill="white"
  />
</svg>
