<svg
  width="211"
  height="44"
  viewBox="0 0 211 44"
  fill="none"
  xmlns="http://www.w3.org/2000/svg"
>
<rect x="0.878418" y="0.880005" width="63.2432" height="42.24" fill="#003399" />
<path
    fill-rule="evenodd"
    clip-rule="evenodd"
    d="M30.3392 7.74397L31.6743 8.72077L31.1649 10.3136L32.5 9.32797L33.8352 10.3136L33.3257 8.72077L34.6608 7.74397H33.0095L32.5 6.15997L31.9906 7.74397H30.3392ZM33.8352 37.84L33.3257 36.256L34.6608 35.2792H33.0095L32.5 33.6864L31.9906 35.2792H30.3392L31.6743 36.256L31.1649 37.84L32.5 36.8632L33.8352 37.84ZM18.85 23.056L17.5149 24.0416L18.0243 22.4576L16.6892 21.5072H18.3406L18.85 19.9232L19.3595 21.5072H21.0196L19.6757 22.4928L20.1852 24.0768L18.85 23.0912V23.056ZM27.0102 12.144L26.5007 10.56L27.8358 9.59197H26.1845L25.675 8.00797L25.1656 9.59197H23.5142L24.8493 10.5688L24.3399 12.1528L25.675 11.176L27.0102 12.144ZM20.2027 14.6256L20.7122 13.0416L21.2304 14.6256H22.8379L21.5027 15.6112L22.0122 17.1952L20.6683 16.2096L19.3243 17.1952L19.8338 15.6112L18.4987 14.6256H20.2027ZM20.7122 26.8048L20.2027 28.3888H18.5162H18.4987L19.8338 29.3744L19.3243 30.9584L20.6683 29.9816L22.0122 30.9584L21.5027 29.3744L22.8379 28.3888H21.2304L20.7122 26.8048ZM24.8493 34.408L23.5142 33.44H25.1656L25.675 31.856L26.1845 33.44H27.8358L26.5007 34.408L27.0102 35.992L25.675 35.0152L24.3399 35.992L24.8493 34.408ZM47.4852 24.0768L46.9757 22.4928L48.3108 21.5072H46.6946L46.1852 19.9232L45.6757 21.5072H43.9629L45.3068 22.4928L44.7973 24.0768L46.15 23.0912L47.4852 24.0768ZM38.4993 10.56L37.1642 9.59197H38.8156L39.325 8.00797L39.8345 9.59197H41.4858L40.1507 10.56L40.6602 12.144L39.325 11.176L37.9899 12.1528L38.4993 10.5688V10.56ZM44.2879 13.0328L43.7696 14.6168L42.1622 14.6256L43.4885 15.6112L42.9791 17.1952L44.323 16.2096L45.6581 17.1952L45.1487 15.6112L46.4487 14.6168H44.7973L44.2879 13.0328ZM44.8412 28.3888H46.4487L45.1487 29.3744L45.6581 30.9584L44.323 29.9816L42.9791 30.9584L43.4885 29.3744L42.1622 28.3888H43.8135L44.3318 26.8048L44.8412 28.3888ZM40.1507 34.408L41.4858 33.44H39.8345L39.325 31.856L38.8156 33.44H37.1642L38.4993 34.408L37.9899 35.992L39.325 35.0152L40.6602 35.992L40.1507 34.408Z"
    fill="#FFCC00"
  />
<path
    fill-rule="evenodd"
    clip-rule="evenodd"
    d="M65 44H0V0H65V44ZM64.1216 0.88H0.878378V43.12H64.1216V0.88Z"
    fill="white"
  />
<path
    fill-rule="evenodd"
    clip-rule="evenodd"
    d="M74.5454 38.1185V25.5204H83.8548V27.6509H77.0808V30.444H83.3839V32.5665H77.0808V35.9959H84.0951V38.1185H74.5454Z"
    fill="white"
  />
<path
    fill-rule="evenodd"
    clip-rule="evenodd"
    d="M87.6114 33.5552C87.6114 34.4607 87.8254 35.1533 88.2534 35.6346C88.6822 36.116 89.2102 36.3571 89.8381 36.3571C90.4661 36.3571 90.9923 36.116 91.4185 35.6346C91.8439 35.1533 92.0561 34.4545 92.0561 33.5376C92.0561 32.6444 91.8439 31.9571 91.4185 31.4757C90.9923 30.9944 90.4661 30.7533 89.8381 30.7533C89.2102 30.7533 88.6822 30.9944 88.2534 31.4757C87.8254 31.9571 87.6114 32.6497 87.6114 33.5552M85.1444 33.4267C85.1444 32.6241 85.3417 31.848 85.7355 31.0973C86.1302 30.3467 86.6879 29.7738 87.4106 29.3787C88.1324 28.9836 88.9392 28.7856 89.8294 28.7856C91.2063 28.7856 92.3332 29.2335 93.2129 30.1302C94.0925 31.0269 94.5319 32.1604 94.5319 33.5297C94.5319 34.9104 94.0881 36.0544 93.1997 36.9625C92.3113 37.8707 91.194 38.3248 89.8469 38.3248C89.0138 38.3248 88.2174 38.1356 87.4615 37.7572C86.7055 37.3797 86.1302 36.8253 85.7355 36.0949C85.3417 35.3645 85.1444 34.4748 85.1444 33.4267"
    fill="white"
  />
<path
    fill-rule="evenodd"
    clip-rule="evenodd"
    d="M98.2811 38.1185H95.8746V28.992H98.1101V30.29C98.4925 29.6766 98.8363 29.2727 99.1415 29.0782C99.4476 28.8829 99.7948 28.7861 100.182 28.7861C100.731 28.7861 101.259 28.9374 101.767 29.241L101.022 31.3469C100.617 31.0829 100.239 30.9509 99.8913 30.9509C99.5545 30.9509 99.2686 31.0442 99.0345 31.2307C98.8012 31.4164 98.617 31.7534 98.482 32.2401C98.3478 32.7276 98.2811 33.7475 98.2811 35.2998V38.1185Z"
    fill="white"
  />
<path
    fill-rule="evenodd"
    clip-rule="evenodd"
    d="M105.116 33.4005C105.116 34.4266 105.318 35.1834 105.723 35.6735C106.129 36.1637 106.623 36.4083 107.205 36.4083C107.765 36.4083 108.231 36.1839 108.602 35.7334C108.972 35.2837 109.158 34.5462 109.158 33.521C109.158 32.5636 108.967 31.8534 108.584 31.3897C108.202 30.925 107.728 30.6936 107.162 30.6936C106.574 30.6936 106.086 30.9215 105.698 31.3765C105.31 31.8323 105.116 32.5064 105.116 33.4005V33.4005ZM102.734 28.9917H104.979V30.3328C105.27 29.8743 105.664 29.5021 106.16 29.2152C106.657 28.9283 107.208 28.7858 107.813 28.7858C108.869 28.7858 109.766 29.2011 110.503 30.0318C111.239 30.8626 111.607 32.0198 111.607 33.5034C111.607 35.0276 111.236 36.2121 110.494 37.0569C109.751 37.9026 108.852 38.325 107.797 38.325C107.293 38.325 106.839 38.2246 106.43 38.024C106.022 37.8234 105.593 37.4793 105.141 36.9926V41.5906H102.734V28.9917Z"
    fill="white"
  />
<path
    fill-rule="evenodd"
    clip-rule="evenodd"
    d="M118.448 33.7357C118.139 33.8387 117.652 33.9619 116.983 34.1053C116.315 34.2487 115.878 34.3887 115.673 34.5259C115.359 34.7495 115.202 35.0337 115.202 35.3769C115.202 35.7157 115.328 36.0079 115.579 36.2534C115.83 36.4998 116.15 36.623 116.538 36.623C116.972 36.623 117.386 36.4804 117.78 36.1935C118.071 35.9753 118.262 35.7095 118.354 35.3945C118.416 35.1877 118.448 34.7961 118.448 34.2171V33.7357ZM115.228 31.7759L113.044 31.3808C113.289 30.4991 113.712 29.8461 114.311 29.4219C114.911 28.9978 115.801 28.7857 116.983 28.7857C118.057 28.7857 118.857 28.9133 119.381 29.1685C119.906 29.4228 120.277 29.7467 120.49 30.1391C120.704 30.5316 120.811 31.2523 120.811 32.3004L120.786 35.1191C120.786 35.9216 120.825 36.513 120.902 36.894C120.979 37.2751 121.123 37.6834 121.334 38.1181H118.953C118.891 37.9579 118.814 37.7203 118.722 37.4053C118.682 37.2619 118.653 37.1677 118.637 37.1219C118.225 37.5223 117.786 37.8233 117.317 38.0239C116.849 38.2246 116.349 38.3249 115.819 38.3249C114.883 38.3249 114.144 38.0697 113.605 37.5602C113.065 37.0498 112.796 36.4056 112.796 35.6259C112.796 35.1103 112.918 34.6509 113.164 34.247C113.41 33.8431 113.752 33.5342 114.195 33.3186C114.638 33.1039 115.277 32.9164 116.11 32.7563C117.234 32.5442 118.014 32.3462 118.448 32.1631V31.922C118.448 31.4583 118.334 31.1274 118.105 30.9303C117.877 30.7323 117.446 30.6337 116.812 30.6337C116.383 30.6337 116.05 30.7182 115.81 30.8871C115.57 31.0561 115.376 31.3527 115.228 31.7759V31.7759Z"
    fill="white"
  />
<path
    fill-rule="evenodd"
    clip-rule="evenodd"
    d="M130.676 31.6903L128.304 32.1198C128.224 31.6446 128.043 31.2864 127.76 31.0462C127.478 30.8051 127.111 30.6845 126.66 30.6845C126.06 30.6845 125.582 30.8922 125.225 31.3075C124.868 31.7238 124.69 32.4181 124.69 33.3923C124.69 34.4747 124.871 35.2394 125.234 35.6864C125.596 36.1335 126.083 36.357 126.694 36.357C127.15 36.357 127.524 36.2267 127.816 35.9654C128.107 35.7049 128.313 35.257 128.432 34.6207L130.796 35.0247C130.55 36.1132 130.079 36.9351 129.383 37.4913C128.686 38.0466 127.753 38.3247 126.582 38.3247C125.252 38.3247 124.191 37.904 123.401 37.0619C122.61 36.2188 122.215 35.0537 122.215 33.5639C122.215 32.0573 122.611 30.8834 123.405 30.0447C124.199 29.2052 125.272 28.7855 126.625 28.7855C127.733 28.7855 128.614 29.0248 129.268 29.5035C129.921 29.9814 130.391 30.7109 130.676 31.6903"
    fill="white"
  />
<path
    fill-rule="evenodd"
    clip-rule="evenodd"
    d="M134.723 25.52V30.1523C135.5 29.2415 136.427 28.7857 137.507 28.7857C138.061 28.7857 138.56 28.8887 139.005 29.0946C139.451 29.3014 139.786 29.5645 140.011 29.8857C140.237 30.2069 140.391 30.5615 140.474 30.9514C140.557 31.3412 140.598 31.9449 140.598 32.7642V38.1181H138.192V33.2975C138.192 32.34 138.146 31.7337 138.055 31.4759C137.963 31.218 137.802 31.013 137.571 30.8607C137.339 30.7094 137.05 30.6337 136.702 30.6337C136.302 30.6337 135.946 30.7305 135.631 30.9259C135.317 31.1203 135.087 31.4143 134.941 31.8067C134.796 32.1983 134.723 32.7791 134.723 33.5465V38.1181H132.317V25.52H134.723Z"
    fill="white"
  />
<path
    fill-rule="evenodd"
    clip-rule="evenodd"
    d="M75.1664 12.0204L77.3501 12.4155C77.4984 11.9923 77.6931 11.6957 77.9325 11.5267C78.1728 11.3578 78.506 11.2733 78.9349 11.2733C79.5681 11.2733 79.9996 11.3719 80.2276 11.5699C80.4565 11.767 80.5705 12.0979 80.5705 12.5616V12.8027C80.1364 12.9858 79.3567 13.1838 78.2324 13.3959C77.3993 13.556 76.7608 13.7435 76.3179 13.9582C75.875 14.1738 75.5321 14.4827 75.2866 14.8866C75.0401 15.2905 74.9182 15.7499 74.9182 16.2655C74.9182 17.0452 75.1875 17.6894 75.7277 18.1998C76.267 18.7093 77.0055 18.9645 77.9413 18.9645C78.4718 18.9645 78.9717 18.8642 79.4401 18.6635C79.9084 18.4629 80.3478 18.1619 80.7591 17.7615C80.7757 17.8073 80.8047 17.9015 80.8441 18.0449C80.9362 18.3599 81.0134 18.5975 81.0757 18.7577H83.4567C83.2454 18.323 83.1015 17.9147 83.0244 17.5336C82.9472 17.1526 82.9086 16.5612 82.9086 15.7587L82.934 12.94C82.934 11.8919 82.827 11.1712 82.6131 10.7787C82.3991 10.3863 82.029 10.0624 81.5036 9.80809C80.9792 9.55289 80.1794 9.42529 79.1059 9.42529C77.9237 9.42529 77.0335 9.63737 76.4337 10.0615C75.8347 10.4857 75.412 11.1387 75.1664 12.0204ZM79.1059 14.7449C79.7742 14.6015 80.2618 14.4783 80.5705 14.3753V14.8567C80.5705 15.4357 80.5389 15.8273 80.4767 16.0341C80.3846 16.3491 80.1934 16.6149 79.9022 16.8331C79.5085 17.12 79.0945 17.2626 78.6604 17.2626C78.2728 17.2626 77.9527 17.1394 77.7018 16.893C77.4501 16.6475 77.3247 16.3553 77.3247 16.0165C77.3247 15.6733 77.4817 15.3891 77.7957 15.1655C78.0009 15.0283 78.4376 14.8883 79.1059 14.7449Z"
    fill="white"
  />
<path
    d="M93.4122 18.7581H91.0057V14.1002C91.0057 13.1146 90.9539 12.4775 90.8513 12.188C90.7487 11.8993 90.5812 11.6741 90.3505 11.5139C90.119 11.3529 89.841 11.2728 89.5156 11.2728C89.0982 11.2728 88.7246 11.3881 88.3931 11.6169C88.0615 11.8457 87.8353 12.1493 87.7125 12.5277C87.5897 12.9061 87.5283 13.6048 87.5283 14.6247V18.7581H85.1218V9.63158H87.3573V10.9718C88.151 9.94046 89.1499 9.42566 90.3549 9.42566C90.8855 9.42566 91.3714 9.5207 91.8107 9.71342C92.2501 9.90526 92.5834 10.1499 92.8088 10.4482C93.0333 10.7457 93.1912 11.0836 93.2797 11.462C93.3674 11.8404 93.4122 12.3816 93.4122 13.0865V18.7581Z"
    fill="white"
  />
<path
    d="M105.248 9.6315V11.5569H103.603V15.2345C103.603 15.9789 103.619 16.4137 103.651 16.5369C103.682 16.6601 103.753 16.7613 103.865 16.8413C103.976 16.9223 104.111 16.9619 104.271 16.9619C104.494 16.9619 104.817 16.8845 105.239 16.7296L105.445 18.6031C104.885 18.8442 104.251 18.9639 103.544 18.9639C103.109 18.9639 102.718 18.8909 102.37 18.7448C102.021 18.5987 101.766 18.4104 101.604 18.1781C101.44 17.9457 101.327 17.6325 101.265 17.2373C101.213 16.9566 101.188 16.389 101.188 15.5354V11.5569H100.083V9.6315H101.188V7.81782L103.603 6.40894V9.6315H105.248Z"
    fill="white"
  />
<path
    fill-rule="evenodd"
    clip-rule="evenodd"
    d="M115.851 18.7581H118.608L113.581 6.15997H110.9L106.01 18.7581H108.699L109.735 15.8963H114.754L115.851 18.7581ZM112.21 9.09917L113.941 13.7737H110.515L112.21 9.09917Z"
    fill="white"
  />
<path
    fill-rule="evenodd"
    clip-rule="evenodd"
    d="M119.531 11.737C119.137 12.4876 118.94 13.2638 118.94 14.0664C118.94 15.1144 119.137 16.0041 119.531 16.7345C119.926 17.4649 120.501 18.0193 121.257 18.3968C122.013 18.7752 122.809 18.9644 123.642 18.9644C124.99 18.9644 126.107 18.5104 126.995 17.6022C127.884 16.694 128.327 15.55 128.327 14.1693C128.327 12.8 127.888 11.6666 127.008 10.7699C126.129 9.87315 125.002 9.42523 123.625 9.42523C122.735 9.42523 121.928 9.62323 121.206 10.0184C120.483 10.4135 119.926 10.9864 119.531 11.737ZM122.049 16.2743C121.621 15.7929 121.407 15.1004 121.407 14.1948C121.407 13.2893 121.621 12.5968 122.049 12.1154C122.478 11.634 123.006 11.3929 123.634 11.3929C124.262 11.3929 124.788 11.634 125.214 12.1154C125.639 12.5968 125.852 13.284 125.852 14.1772C125.852 15.0942 125.639 15.7929 125.214 16.2743C124.788 16.7556 124.262 16.9968 123.634 16.9968C123.006 16.9968 122.478 16.7556 122.049 16.2743Z"
    fill="white"
  />
<path
    d="M138.046 18.7581H135.64V14.1002C135.64 13.1146 135.588 12.4775 135.485 12.188C135.383 11.8993 135.215 11.6741 134.984 11.5139C134.753 11.3529 134.475 11.2728 134.15 11.2728C133.732 11.2728 133.358 11.3881 133.027 11.6169C132.695 11.8457 132.469 12.1493 132.346 12.5277C132.224 12.9061 132.162 13.6048 132.162 14.6247V18.7581H129.756V9.63158H131.991V10.9718C132.785 9.94046 133.784 9.42566 134.989 9.42566C135.519 9.42566 136.005 9.5207 136.445 9.71342C136.884 9.90526 137.217 10.1499 137.443 10.4482C137.667 10.7457 137.825 11.0836 137.914 11.462C138.001 11.8404 138.046 12.3816 138.046 13.0865V18.7581Z"
    fill="white"
  />
<path
    d="M144.658 9.6315V11.5569H143.014V15.2345C143.014 15.9789 143.029 16.4137 143.061 16.5369C143.093 16.6601 143.164 16.7613 143.275 16.8413C143.386 16.9223 143.521 16.9619 143.682 16.9619C143.905 16.9619 144.227 16.8845 144.649 16.7296L144.855 18.6031C144.296 18.8442 143.662 18.9639 142.954 18.9639C142.52 18.9639 142.129 18.8909 141.781 18.7448C141.431 18.5987 141.176 18.4104 141.014 18.1781C140.851 17.9457 140.738 17.6325 140.675 17.2373C140.624 16.9566 140.598 16.389 140.598 15.5354V11.5569H139.493V9.6315H140.598V7.81782L143.014 6.40894V9.6315H144.658Z"
    fill="white"
  />
<path
    fill-rule="evenodd"
    clip-rule="evenodd"
    d="M146.118 12.0204L148.302 12.4155C148.45 11.9923 148.645 11.6957 148.884 11.5267C149.125 11.3578 149.458 11.2733 149.887 11.2733C150.52 11.2733 150.951 11.3719 151.179 11.5699C151.408 11.767 151.522 12.0979 151.522 12.5616V12.8027C151.088 12.9858 150.309 13.1838 149.184 13.3959C148.351 13.556 147.713 13.7435 147.27 13.9582C146.827 14.1738 146.484 14.4827 146.238 14.8866C145.992 15.2905 145.87 15.7499 145.87 16.2655C145.87 17.0452 146.139 17.6894 146.679 18.1998C147.219 18.7093 147.957 18.9645 148.893 18.9645C149.424 18.9645 149.924 18.8642 150.392 18.6635C150.86 18.4629 151.3 18.1619 151.711 17.7615C151.728 17.8073 151.756 17.9015 151.796 18.0449C151.888 18.3599 151.965 18.5975 152.027 18.7577H154.409C154.197 18.323 154.053 17.9147 153.976 17.5336C153.899 17.1526 153.86 16.5612 153.86 15.7587L153.886 12.94C153.886 11.8919 153.779 11.1712 153.565 10.7787C153.351 10.3863 152.981 10.0624 152.455 9.80809C151.931 9.55289 151.131 9.42529 150.058 9.42529C148.875 9.42529 147.985 9.63737 147.385 10.0615C146.786 10.4857 146.364 11.1387 146.118 12.0204ZM150.058 14.7449C150.726 14.6015 151.214 14.4783 151.522 14.3753V14.8567C151.522 15.4357 151.491 15.8273 151.428 16.0341C151.336 16.3491 151.145 16.6149 150.854 16.8331C150.46 17.12 150.046 17.2626 149.612 17.2626C149.225 17.2626 148.904 17.1394 148.654 16.893C148.402 16.6475 148.276 16.3553 148.276 16.0165C148.276 15.6733 148.433 15.3891 148.747 15.1655C148.953 15.0283 149.389 14.8883 150.058 14.7449Z"
    fill="white"
  />
<path
    d="M155.411 16.1542L157.826 15.7846C157.929 16.2545 158.136 16.6109 158.451 16.8547C158.765 17.0984 159.205 17.2199 159.77 17.2199C160.393 17.2199 160.86 17.1055 161.174 16.8758C161.386 16.7156 161.492 16.5009 161.492 16.2316C161.492 16.0477 161.434 15.8964 161.32 15.7758C161.201 15.6614 160.932 15.5558 160.515 15.4581C158.573 15.0287 157.344 14.6362 156.824 14.2807C156.104 13.7879 155.745 13.1032 155.745 12.2268C155.745 11.4365 156.055 10.7712 156.678 10.2327C157.301 9.695 158.265 9.42572 159.573 9.42572C160.817 9.42572 161.743 9.62812 162.348 10.0356C162.954 10.4421 163.369 11.044 163.598 11.8404L161.329 12.2611C161.232 11.9056 161.048 11.6336 160.776 11.4444C160.505 11.2561 160.118 11.1611 159.616 11.1611C158.982 11.1611 158.528 11.25 158.254 11.4277C158.071 11.5536 157.98 11.7172 157.98 11.9179C157.98 12.0895 158.06 12.2356 158.22 12.3561C158.436 12.5163 159.186 12.7424 160.468 13.0346C161.751 13.3268 162.645 13.6849 163.153 14.1091C163.655 14.5385 163.907 15.1369 163.907 15.9052C163.907 16.7412 163.558 17.4601 162.862 18.062C162.165 18.664 161.134 18.964 159.77 18.964C158.531 18.964 157.55 18.7124 156.828 18.2081C156.106 17.7039 155.633 17.0192 155.411 16.1542"
    fill="white"
  />
</svg>
