<svg
  width="219"
  height="44"
  viewBox="0 0 219 44"
  fill="none"
  xmlns="http://www.w3.org/2000/svg"
>
<rect x="0.878418" y="0.880005" width="63.2432" height="42.24" fill="#003399" />
<path
    fill-rule="evenodd"
    clip-rule="evenodd"
    d="M30.3392 7.744L31.6743 8.7208L31.1649 10.3136L32.5 9.328L33.8352 10.3136L33.3257 8.7208L34.6608 7.744H33.0095L32.5 6.16L31.9906 7.744H30.3392ZM33.8352 37.84L33.3257 36.256L34.6608 35.2792H33.0095L32.5 33.6864L31.9906 35.2792H30.3392L31.6743 36.256L31.1649 37.84L32.5 36.8632L33.8352 37.84ZM18.85 23.056L17.5149 24.0416L18.0243 22.4576L16.6892 21.5072H18.3406L18.85 19.9232L19.3595 21.5072H21.0196L19.6757 22.4928L20.1852 24.0768L18.85 23.0912V23.056ZM27.0102 12.144L26.5007 10.56L27.8358 9.592H26.1845L25.675 8.008L25.1656 9.592H23.5142L24.8493 10.5688L24.3399 12.1528L25.675 11.176L27.0102 12.144ZM20.2027 14.6256L20.7122 13.0416L21.2304 14.6256H22.8379L21.5027 15.6112L22.0122 17.1952L20.6683 16.2096L19.3243 17.1952L19.8338 15.6112L18.4987 14.6256H20.2027ZM20.7122 26.8048L20.2027 28.3888H18.5162H18.4987L19.8338 29.3744L19.3243 30.9584L20.6683 29.9816L22.0122 30.9584L21.5027 29.3744L22.8379 28.3888H21.2304L20.7122 26.8048ZM24.8493 34.408L23.5142 33.44H25.1656L25.675 31.856L26.1845 33.44H27.8358L26.5007 34.408L27.0102 35.992L25.675 35.0152L24.3399 35.992L24.8493 34.408ZM47.4852 24.0768L46.9757 22.4928L48.3108 21.5072H46.6946L46.1852 19.9232L45.6757 21.5072H43.9629L45.3068 22.4928L44.7973 24.0768L46.15 23.0912L47.4852 24.0768ZM38.4993 10.56L37.1642 9.592H38.8156L39.325 8.008L39.8345 9.592H41.4858L40.1507 10.56L40.6602 12.144L39.325 11.176L37.9899 12.1528L38.4993 10.5688V10.56ZM44.2879 13.0328L43.7696 14.6168L42.1622 14.6256L43.4885 15.6112L42.9791 17.1952L44.323 16.2096L45.6581 17.1952L45.1487 15.6112L46.4487 14.6168H44.7973L44.2879 13.0328ZM44.8412 28.3888H46.4487L45.1487 29.3744L45.6581 30.9584L44.323 29.9816L42.9791 30.9584L43.4885 29.3744L42.1622 28.3888H43.8135L44.3318 26.8048L44.8412 28.3888ZM40.1507 34.408L41.4858 33.44H39.8345L39.325 31.856L38.8156 33.44H37.1642L38.4993 34.408L37.9899 35.992L39.325 35.0152L40.6602 35.992L40.1507 34.408Z"
    fill="#FFCC00"
  />
<path
    fill-rule="evenodd"
    clip-rule="evenodd"
    d="M65 44H0V0H65V44ZM64.1216 0.88H0.878378V43.12H64.1216V0.88Z"
    fill="white"
  />
<path
    d="M82.6973 16.0293L85.1582 16.4424C84.8418 17.3447 84.3408 18.0332 83.6553 18.5078C82.9756 18.9766 82.123 19.2109 81.0977 19.2109C79.4746 19.2109 78.2734 18.6807 77.4941 17.6201C76.8789 16.7705 76.5713 15.6982 76.5713 14.4033C76.5713 12.8564 76.9756 11.6465 77.7842 10.7734C78.5928 9.89453 79.6152 9.45508 80.8516 9.45508C82.2402 9.45508 83.3359 9.91504 84.1387 10.835C84.9414 11.749 85.3252 13.1523 85.29 15.0449H79.1025C79.1201 15.7773 79.3193 16.3486 79.7002 16.7588C80.0811 17.1631 80.5557 17.3652 81.124 17.3652C81.5107 17.3652 81.8359 17.2598 82.0996 17.0488C82.3633 16.8379 82.5625 16.498 82.6973 16.0293ZM82.8379 13.5332C82.8203 12.8184 82.6357 12.2764 82.2842 11.9072C81.9326 11.5322 81.5049 11.3447 81.001 11.3447C80.4619 11.3447 80.0166 11.541 79.665 11.9336C79.3135 12.3262 79.1406 12.8594 79.1465 13.5332H82.8379Z"
    fill="white"
  />
<path
    d="M93.4551 19V17.6025C93.1152 18.1006 92.667 18.4932 92.1104 18.7803C91.5596 19.0674 90.9766 19.2109 90.3613 19.2109C89.7344 19.2109 89.1719 19.0732 88.6738 18.7979C88.1758 18.5225 87.8154 18.1357 87.5928 17.6377C87.3701 17.1396 87.2588 16.4512 87.2588 15.5723V9.66602H89.7285V13.9551C89.7285 15.2676 89.7725 16.0732 89.8604 16.3721C89.9541 16.665 90.1211 16.8994 90.3613 17.0752C90.6016 17.2451 90.9062 17.3301 91.2754 17.3301C91.6973 17.3301 92.0752 17.2158 92.4092 16.9873C92.7432 16.7529 92.9717 16.4658 93.0947 16.126C93.2178 15.7803 93.2793 14.9395 93.2793 13.6035V9.66602H95.749V19H93.4551Z"
    fill="white"
  />
<path
    d="M100.68 19H98.21V9.66602H100.504V10.9932C100.896 10.3662 101.248 9.95312 101.559 9.75391C101.875 9.55469 102.232 9.45508 102.631 9.45508C103.193 9.45508 103.735 9.61035 104.257 9.9209L103.492 12.0742C103.076 11.8047 102.689 11.6699 102.332 11.6699C101.986 11.6699 101.693 11.7666 101.453 11.96C101.213 12.1475 101.022 12.4902 100.882 12.9883C100.747 13.4863 100.68 14.5293 100.68 16.1172V19Z"
    fill="white"
  />
<path
    d="M104.758 14.2012C104.758 13.3809 104.96 12.5869 105.364 11.8193C105.769 11.0518 106.34 10.4658 107.078 10.0615C107.822 9.65723 108.651 9.45508 109.565 9.45508C110.978 9.45508 112.135 9.91504 113.037 10.835C113.939 11.749 114.391 12.9062 114.391 14.3066C114.391 15.7188 113.934 16.8906 113.02 17.8223C112.111 18.748 110.966 19.2109 109.583 19.2109C108.728 19.2109 107.91 19.0176 107.131 18.6309C106.357 18.2441 105.769 17.6787 105.364 16.9346C104.96 16.1846 104.758 15.2734 104.758 14.2012ZM107.289 14.333C107.289 15.2588 107.509 15.9678 107.948 16.46C108.388 16.9521 108.93 17.1982 109.574 17.1982C110.219 17.1982 110.758 16.9521 111.191 16.46C111.631 15.9678 111.851 15.2529 111.851 14.3154C111.851 13.4014 111.631 12.6982 111.191 12.2061C110.758 11.7139 110.219 11.4678 109.574 11.4678C108.93 11.4678 108.388 11.7139 107.948 12.2061C107.509 12.6982 107.289 13.4072 107.289 14.333Z"
    fill="white"
  />
<path
    d="M116.263 9.66602H118.565V11.0371C118.864 10.5684 119.269 10.1875 119.778 9.89453C120.288 9.60156 120.854 9.45508 121.475 9.45508C122.559 9.45508 123.479 9.87988 124.234 10.7295C124.99 11.5791 125.368 12.7627 125.368 14.2803C125.368 15.8389 124.987 17.0518 124.226 17.9189C123.464 18.7803 122.541 19.2109 121.457 19.2109C120.941 19.2109 120.473 19.1084 120.051 18.9033C119.635 18.6982 119.195 18.3467 118.732 17.8486V22.5508H116.263V9.66602ZM118.706 14.1748C118.706 15.2236 118.914 16 119.33 16.5039C119.746 17.002 120.253 17.251 120.851 17.251C121.425 17.251 121.902 17.0225 122.283 16.5654C122.664 16.1025 122.854 15.3467 122.854 14.2979C122.854 13.3193 122.658 12.5928 122.266 12.1182C121.873 11.6436 121.387 11.4062 120.807 11.4062C120.203 11.4062 119.702 11.6406 119.304 12.1094C118.905 12.5723 118.706 13.2607 118.706 14.1748Z"
    fill="white"
  />
<path
    d="M132.742 16.0293L135.203 16.4424C134.887 17.3447 134.386 18.0332 133.7 18.5078C133.021 18.9766 132.168 19.2109 131.143 19.2109C129.52 19.2109 128.318 18.6807 127.539 17.6201C126.924 16.7705 126.616 15.6982 126.616 14.4033C126.616 12.8564 127.021 11.6465 127.829 10.7734C128.638 9.89453 129.66 9.45508 130.896 9.45508C132.285 9.45508 133.381 9.91504 134.184 10.835C134.986 11.749 135.37 13.1523 135.335 15.0449H129.147C129.165 15.7773 129.364 16.3486 129.745 16.7588C130.126 17.1631 130.601 17.3652 131.169 17.3652C131.556 17.3652 131.881 17.2598 132.145 17.0488C132.408 16.8379 132.607 16.498 132.742 16.0293ZM132.883 13.5332C132.865 12.8184 132.681 12.2764 132.329 11.9072C131.978 11.5322 131.55 11.3447 131.046 11.3447C130.507 11.3447 130.062 11.541 129.71 11.9336C129.358 12.3262 129.186 12.8594 129.191 13.5332H132.883Z"
    fill="white"
  />
<path
    d="M137.356 8.40039V6.11523H139.826V8.40039H137.356ZM137.356 19V9.66602H139.826V19H137.356Z"
    fill="white"
  />
<path
    d="M141.496 16.3369L143.975 15.959C144.08 16.4395 144.294 16.8057 144.616 17.0576C144.938 17.3037 145.39 17.4268 145.97 17.4268C146.608 17.4268 147.089 17.3096 147.411 17.0752C147.628 16.9111 147.736 16.6914 147.736 16.416C147.736 16.2285 147.678 16.0732 147.561 15.9502C147.438 15.833 147.162 15.7246 146.734 15.625C144.742 15.1855 143.479 14.7842 142.946 14.4209C142.208 13.917 141.839 13.2168 141.839 12.3203C141.839 11.5117 142.158 10.832 142.797 10.2812C143.436 9.73047 144.426 9.45508 145.768 9.45508C147.045 9.45508 147.994 9.66309 148.615 10.0791C149.236 10.4951 149.664 11.1104 149.898 11.9248L147.569 12.3555C147.47 11.9922 147.279 11.7139 146.998 11.5205C146.723 11.3271 146.327 11.2305 145.812 11.2305C145.161 11.2305 144.695 11.3213 144.414 11.5029C144.227 11.6318 144.133 11.7988 144.133 12.0039C144.133 12.1797 144.215 12.3291 144.379 12.4521C144.602 12.6162 145.369 12.8477 146.682 13.1465C148 13.4453 148.92 13.8115 149.441 14.2451C149.957 14.6846 150.215 15.2969 150.215 16.082C150.215 16.9375 149.857 17.6729 149.143 18.2881C148.428 18.9033 147.37 19.2109 145.97 19.2109C144.698 19.2109 143.69 18.9531 142.946 18.4375C142.208 17.9219 141.725 17.2217 141.496 16.3369Z"
    fill="white"
  />
<path
    d="M152.298 19V6.11523H154.768V12.9531L157.659 9.66602H160.7L157.51 13.0762L160.929 19H158.266L155.919 14.8076L154.768 16.0117V19H152.298Z"
    fill="white"
  />
<path
    d="M167.811 16.0293L170.271 16.4424C169.955 17.3447 169.454 18.0332 168.769 18.5078C168.089 18.9766 167.236 19.2109 166.211 19.2109C164.588 19.2109 163.387 18.6807 162.607 17.6201C161.992 16.7705 161.685 15.6982 161.685 14.4033C161.685 12.8564 162.089 11.6465 162.897 10.7734C163.706 9.89453 164.729 9.45508 165.965 9.45508C167.354 9.45508 168.449 9.91504 169.252 10.835C170.055 11.749 170.438 13.1523 170.403 15.0449H164.216C164.233 15.7773 164.433 16.3486 164.813 16.7588C165.194 17.1631 165.669 17.3652 166.237 17.3652C166.624 17.3652 166.949 17.2598 167.213 17.0488C167.477 16.8379 167.676 16.498 167.811 16.0293ZM167.951 13.5332C167.934 12.8184 167.749 12.2764 167.397 11.9072C167.046 11.5322 166.618 11.3447 166.114 11.3447C165.575 11.3447 165.13 11.541 164.778 11.9336C164.427 12.3262 164.254 12.8594 164.26 13.5332H167.951Z"
    fill="white"
  />
<path
    d="M83.4355 38V36.6025C83.0957 37.1006 82.6475 37.4932 82.0908 37.7803C81.54 38.0674 80.957 38.2109 80.3418 38.2109C79.7148 38.2109 79.1523 38.0732 78.6543 37.7979C78.1562 37.5225 77.7959 37.1357 77.5732 36.6377C77.3506 36.1396 77.2393 35.4512 77.2393 34.5723V28.666H79.709V32.9551C79.709 34.2676 79.7529 35.0732 79.8408 35.3721C79.9346 35.665 80.1016 35.8994 80.3418 36.0752C80.582 36.2451 80.8867 36.3301 81.2559 36.3301C81.6777 36.3301 82.0557 36.2158 82.3896 35.9873C82.7236 35.7529 82.9521 35.4658 83.0752 35.126C83.1982 34.7803 83.2598 33.9395 83.2598 32.6035V28.666H85.7295V38H83.4355Z"
    fill="white"
  />
<path
    d="M96.7861 38H94.3164V33.2363C94.3164 32.2285 94.2637 31.5781 94.1582 31.2852C94.0527 30.9863 93.8799 30.7549 93.6396 30.5908C93.4053 30.4268 93.1211 30.3447 92.7871 30.3447C92.3594 30.3447 91.9756 30.4619 91.6357 30.6963C91.2959 30.9307 91.0615 31.2412 90.9326 31.6279C90.8096 32.0146 90.748 32.7295 90.748 33.7725V38H88.2783V28.666H90.5723V30.0371C91.3867 28.9824 92.4121 28.4551 93.6484 28.4551C94.1934 28.4551 94.6914 28.5547 95.1426 28.7539C95.5938 28.9473 95.9336 29.1963 96.1621 29.501C96.3965 29.8057 96.5576 30.1514 96.6455 30.5381C96.7393 30.9248 96.7861 31.4785 96.7861 32.1992V38Z"
    fill="white"
  />
<path
    d="M99.2998 27.4004V25.1152H101.77V27.4004H99.2998ZM99.2998 38V28.666H101.77V38H99.2998Z"
    fill="white"
  />
<path
    d="M103.738 33.2012C103.738 32.3809 103.94 31.5869 104.345 30.8193C104.749 30.0518 105.32 29.4658 106.059 29.0615C106.803 28.6572 107.632 28.4551 108.546 28.4551C109.958 28.4551 111.115 28.915 112.018 29.835C112.92 30.749 113.371 31.9062 113.371 33.3066C113.371 34.7188 112.914 35.8906 112 36.8223C111.092 37.748 109.946 38.2109 108.563 38.2109C107.708 38.2109 106.891 38.0176 106.111 37.6309C105.338 37.2441 104.749 36.6787 104.345 35.9346C103.94 35.1846 103.738 34.2734 103.738 33.2012ZM106.27 33.333C106.27 34.2588 106.489 34.9678 106.929 35.46C107.368 35.9521 107.91 36.1982 108.555 36.1982C109.199 36.1982 109.738 35.9521 110.172 35.46C110.611 34.9678 110.831 34.2529 110.831 33.3154C110.831 32.4014 110.611 31.6982 110.172 31.2061C109.738 30.7139 109.199 30.4678 108.555 30.4678C107.91 30.4678 107.368 30.7139 106.929 31.2061C106.489 31.6982 106.27 32.4072 106.27 33.333Z"
    fill="white"
  />
<path
    d="M123.804 38H121.334V33.2363C121.334 32.2285 121.281 31.5781 121.176 31.2852C121.07 30.9863 120.897 30.7549 120.657 30.5908C120.423 30.4268 120.139 30.3447 119.805 30.3447C119.377 30.3447 118.993 30.4619 118.653 30.6963C118.313 30.9307 118.079 31.2412 117.95 31.6279C117.827 32.0146 117.766 32.7295 117.766 33.7725V38H115.296V28.666H117.59V30.0371C118.404 28.9824 119.43 28.4551 120.666 28.4551C121.211 28.4551 121.709 28.5547 122.16 28.7539C122.611 28.9473 122.951 29.1963 123.18 29.501C123.414 29.8057 123.575 30.1514 123.663 30.5381C123.757 30.9248 123.804 31.4785 123.804 32.1992V38Z"
    fill="white"
  />
</svg>
