<svg
  width="240"
  height="44"
  viewBox="0 0 240 44"
  fill="none"
  xmlns="http://www.w3.org/2000/svg"
>
<rect x="0.878418" y="0.880005" width="63.2432" height="42.24" fill="#003399" />
<path
    fill-rule="evenodd"
    clip-rule="evenodd"
    d="M30.3392 7.74403L31.6743 8.72083L31.1649 10.3136L32.5 9.32803L33.8352 10.3136L33.3257 8.72083L34.6608 7.74403H33.0095L32.5 6.16003L31.9906 7.74403H30.3392ZM33.8352 37.84L33.3257 36.256L34.6608 35.2792H33.0095L32.5 33.6864L31.9906 35.2792H30.3392L31.6743 36.256L31.1649 37.84L32.5 36.8632L33.8352 37.84ZM18.85 23.056L17.5149 24.0416L18.0243 22.4576L16.6892 21.5072H18.3406L18.85 19.9232L19.3595 21.5072H21.0196L19.6757 22.4928L20.1852 24.0768L18.85 23.0912V23.056ZM27.0102 12.144L26.5007 10.56L27.8358 9.59203H26.1845L25.675 8.00803L25.1656 9.59203H23.5142L24.8493 10.5688L24.3399 12.1528L25.675 11.176L27.0102 12.144ZM20.2027 14.6256L20.7122 13.0416L21.2304 14.6256H22.8379L21.5027 15.6112L22.0122 17.1952L20.6683 16.2096L19.3243 17.1952L19.8338 15.6112L18.4987 14.6256H20.2027ZM20.7122 26.8048L20.2027 28.3888H18.5162H18.4987L19.8338 29.3744L19.3243 30.9584L20.6683 29.9816L22.0122 30.9584L21.5027 29.3744L22.8379 28.3888H21.2304L20.7122 26.8048ZM24.8493 34.408L23.5142 33.44H25.1656L25.675 31.856L26.1845 33.44H27.8358L26.5007 34.408L27.0102 35.992L25.675 35.0152L24.3399 35.992L24.8493 34.408ZM47.4852 24.0768L46.9757 22.4928L48.3108 21.5072H46.6946L46.1852 19.9232L45.6757 21.5072H43.9629L45.3068 22.4928L44.7973 24.0768L46.15 23.0912L47.4852 24.0768ZM38.4993 10.56L37.1642 9.59203H38.8156L39.325 8.00803L39.8345 9.59203H41.4858L40.1507 10.56L40.6602 12.144L39.325 11.176L37.9899 12.1528L38.4993 10.5688V10.56ZM44.2879 13.0328L43.7696 14.6168L42.1622 14.6256L43.4885 15.6112L42.9791 17.1952L44.323 16.2096L45.6581 17.1952L45.1487 15.6112L46.4487 14.6168H44.7973L44.2879 13.0328ZM44.8412 28.3888H46.4487L45.1487 29.3744L45.6581 30.9584L44.323 29.9816L42.9791 30.9584L43.4885 29.3744L42.1622 28.3888H43.8135L44.3318 26.8048L44.8412 28.3888ZM40.1507 34.408L41.4858 33.44H39.8345L39.325 31.856L38.8156 33.44H37.1642L38.4993 34.408L37.9899 35.992L39.325 35.0152L40.6602 35.992L40.1507 34.408Z"
    fill="#FFCC00"
  />
<path
    fill-rule="evenodd"
    clip-rule="evenodd"
    d="M65 44H0V0H65V44ZM64.1216 0.88H0.878378V43.12H64.1216V0.88Z"
    fill="white"
  />
<path
    fill-rule="evenodd"
    clip-rule="evenodd"
    d="M80.7608 37.8449V36.4782C80.4285 36.9649 79.9923 37.3494 79.4515 37.6301C78.9108 37.9109 78.3392 38.0508 77.7378 38.0508C77.1258 38.0508 76.5762 37.917 76.0899 37.6469C75.6028 37.3776 75.2502 37.0001 75.033 36.5125C74.8158 36.0259 74.7068 35.3527 74.7068 34.4929V28.7184H77.1196V32.9125C77.1196 34.1955 77.1645 34.9822 77.2533 35.2709C77.3412 35.5604 77.5039 35.7901 77.7378 35.9581C77.9725 36.1271 78.2706 36.2125 78.6311 36.2125C79.0435 36.2125 79.4129 36.0989 79.7391 35.8728C80.0653 35.6457 80.2886 35.3659 80.4091 35.0306C80.5287 34.6953 80.5894 33.8743 80.5894 32.5684V28.7184H83.0022V37.8449H80.7608Z"
    fill="white"
  />
<path
    fill-rule="evenodd"
    clip-rule="evenodd"
    d="M93.5323 37.8449H91.1195V33.187C91.1195 32.2014 91.0676 31.5643 90.9647 31.2748C90.8619 30.9861 90.6939 30.7609 90.4627 30.6007C90.2305 30.4397 89.9518 30.3596 89.6256 30.3596C89.207 30.3596 88.8324 30.4749 88.5 30.7037C88.1677 30.9325 87.9408 31.2361 87.8177 31.6145C87.6946 31.9929 87.633 32.6916 87.633 33.7115V37.8449H85.2202V28.7184H87.4616V30.0586C88.2574 29.0273 89.2589 28.5125 90.4671 28.5125C90.999 28.5125 91.4862 28.6075 91.9267 28.8002C92.3672 28.9921 92.7014 29.2367 92.9274 29.535C93.1525 29.8325 93.3107 30.1704 93.3996 30.5488C93.4875 30.9272 93.5323 31.4684 93.5323 32.1733V37.8449Z"
    fill="white"
  />
<path
    fill-rule="evenodd"
    clip-rule="evenodd"
    d="M95.8035 37.8444H98.2163V28.7179H95.8035V37.8444ZM95.8035 27.4807H98.2163V25.2463H95.8035V27.4807Z"
    fill="white"
  />
<path
    fill-rule="evenodd"
    clip-rule="evenodd"
    d="M106.108 32.4996C106.09 31.8009 105.91 31.2694 105.567 30.905C105.223 30.5416 104.806 30.3594 104.313 30.3594C103.787 30.3594 103.351 30.5522 103.008 30.9358C102.665 31.3195 102.496 31.8405 102.501 32.4996H106.108ZM105.971 34.9398L108.375 35.3438C108.066 36.2264 107.578 36.8987 106.911 37.359C106.243 37.8201 105.41 38.0515 104.407 38.0515C102.822 38.0515 101.649 37.5323 100.888 36.4957C100.286 35.665 99.9854 34.6169 99.9854 33.3506C99.9854 31.8378 100.38 30.6534 101.171 29.7971C101.96 28.9409 102.959 28.5123 104.167 28.5123C105.524 28.5123 106.595 28.9602 107.379 29.857C108.163 30.7537 108.538 32.1274 108.504 33.978H102.459C102.476 34.6943 102.671 35.2505 103.043 35.6491C103.415 36.0478 103.878 36.2466 104.434 36.2466C104.811 36.2466 105.129 36.1437 105.387 35.9369C105.645 35.731 105.839 35.3983 105.971 34.9398V34.9398Z"
    fill="white"
  />
<path
    fill-rule="evenodd"
    clip-rule="evenodd"
    d="M74.7681 18.7667V6.16858H84.1019V8.29906H77.3102V11.0922H83.6298V13.2147H77.3102V16.6441H84.3429V18.7667H74.7681Z"
    fill="white"
  />
<path
    fill-rule="evenodd"
    clip-rule="evenodd"
    d="M88.7245 18.7667L85.049 9.64026H87.5822L89.2995 14.2981L89.7981 15.8531C89.9291 15.4579 90.0127 15.1975 90.047 15.0716C90.127 14.8138 90.2123 14.5559 90.3046 14.2981L92.0395 9.64026H94.5209L90.8972 18.7667H88.7245Z"
    fill="white"
  />
<path
    fill-rule="evenodd"
    clip-rule="evenodd"
    d="M98.4836 18.7667H96.0708V9.64025H98.3122V10.9382C98.6955 10.3249 99.0402 9.92097 99.3462 9.72649C99.6531 9.53113 100.001 9.43433 100.39 9.43433C100.94 9.43433 101.47 9.58569 101.979 9.88929L101.231 11.9951C100.825 11.7311 100.447 11.5991 100.098 11.5991C99.7604 11.5991 99.4737 11.6924 99.239 11.879C99.0051 12.0646 98.8204 12.4017 98.685 12.8883C98.5505 13.3758 98.4836 14.3958 98.4836 15.9481V18.7667Z"
    fill="white"
  />
<path
    fill-rule="evenodd"
    clip-rule="evenodd"
    d="M105.108 14.2034C105.108 15.109 105.322 15.8015 105.751 16.2829C106.181 16.7642 106.711 17.0054 107.34 17.0054C107.97 17.0054 108.497 16.7642 108.925 16.2829C109.351 15.8015 109.564 15.1028 109.564 14.1858C109.564 13.2926 109.351 12.6054 108.925 12.124C108.497 11.6426 107.97 11.4015 107.34 11.4015C106.711 11.4015 106.181 11.6426 105.751 12.124C105.322 12.6054 105.108 13.2979 105.108 14.2034M102.634 14.075C102.634 13.2724 102.832 12.4962 103.227 11.7456C103.623 10.995 104.182 10.4221 104.906 10.027C105.63 9.63184 106.439 9.43384 107.331 9.43384C108.712 9.43384 109.842 9.88176 110.724 10.7785C111.606 11.6752 112.046 12.8086 112.046 14.1779C112.046 15.5586 111.601 16.7026 110.711 17.6108C109.82 18.519 108.7 18.973 107.349 18.973C106.514 18.973 105.715 18.7838 104.957 18.4054C104.199 18.0279 103.623 17.4735 103.227 16.7431C102.832 16.0127 102.634 15.123 102.634 14.075"
    fill="white"
  />
<path
    fill-rule="evenodd"
    clip-rule="evenodd"
    d="M115.99 14.0488C115.99 15.0749 116.193 15.8317 116.599 16.3218C117.006 16.812 117.502 17.0566 118.085 17.0566C118.646 17.0566 119.113 16.8322 119.485 16.3817C119.856 15.932 120.043 15.1946 120.043 14.1694C120.043 13.2119 119.852 12.5018 119.468 12.038C119.084 11.5734 118.609 11.3419 118.042 11.3419C117.452 11.3419 116.963 11.5698 116.574 12.0248C116.185 12.4806 115.99 13.1547 115.99 14.0488V14.0488ZM113.603 9.64H115.853V10.9811C116.145 10.5226 116.54 10.1504 117.037 9.86352C117.536 9.57664 118.088 9.43408 118.695 9.43408C119.753 9.43408 120.653 9.84944 121.392 10.6802C122.129 11.5109 122.499 12.6681 122.499 14.1518C122.499 15.6759 122.127 16.8604 121.383 17.7052C120.638 18.5509 119.737 18.9733 118.678 18.9733C118.173 18.9733 117.718 18.873 117.308 18.6723C116.898 18.4717 116.468 18.1276 116.015 17.641V22.239H113.603V9.64Z"
    fill="white"
  />
<path
    fill-rule="evenodd"
    clip-rule="evenodd"
    d="M123.74 16.1628L126.161 15.7932C126.264 16.2631 126.473 16.6195 126.788 16.8633C127.103 17.107 127.544 17.2285 128.111 17.2285C128.735 17.2285 129.204 17.1141 129.519 16.8844C129.73 16.7242 129.837 16.5095 129.837 16.2402C129.837 16.0563 129.779 15.905 129.665 15.7844C129.545 15.67 129.276 15.5644 128.857 15.4667C126.911 15.0373 125.678 14.6448 125.156 14.2893C124.435 13.7965 124.075 13.1118 124.075 12.2354C124.075 11.4451 124.386 10.7798 125.01 10.2413C125.635 9.70361 126.602 9.43433 127.913 9.43433C129.161 9.43433 130.088 9.63673 130.695 10.0442C131.303 10.4507 131.719 11.0526 131.949 11.849L129.673 12.2697C129.577 11.9142 129.392 11.6422 129.119 11.453C128.848 11.2647 128.46 11.1697 127.956 11.1697C127.32 11.1697 126.866 11.2586 126.59 11.4363C126.408 11.5622 126.316 11.7258 126.316 11.9265C126.316 12.0981 126.396 12.2442 126.556 12.3647C126.773 12.5249 127.525 12.751 128.811 13.0432C130.096 13.3354 130.993 13.6935 131.502 14.1177C132.006 14.5471 132.259 15.1455 132.259 15.9138C132.259 16.7498 131.909 17.4687 131.21 18.0706C130.512 18.6726 129.478 18.9726 128.111 18.9726C126.868 18.9726 125.884 18.721 125.161 18.2167C124.437 17.7125 123.963 17.0278 123.74 16.1628"
    fill="white"
  />
<path
    fill-rule="evenodd"
    clip-rule="evenodd"
    d="M134.021 18.7667V6.16858H136.434V12.8539L139.259 9.64018H142.23L139.113 12.9745L142.454 18.7667H139.852L137.558 14.6676L136.434 15.8451V18.7667H134.021Z"
    fill="white"
  />
<path
    fill-rule="evenodd"
    clip-rule="evenodd"
    d="M146.309 8.52297L147.494 5.95337H150.199L147.837 8.52297H146.309ZM148.92 14.3838C148.61 14.4867 148.121 14.6099 147.451 14.7534C146.781 14.8968 146.343 15.0367 146.138 15.1749C145.822 15.3975 145.665 15.6818 145.665 16.025C145.665 16.3638 145.791 16.6559 146.043 16.9014C146.294 17.1478 146.616 17.271 147.005 17.271C147.44 17.271 147.855 17.1285 148.25 16.8416C148.542 16.6242 148.733 16.3576 148.825 16.0426C148.888 15.8366 148.92 15.4442 148.92 14.8651V14.3838ZM145.691 12.4249L143.501 12.0289C143.748 11.1471 144.171 10.4942 144.772 10.07C145.373 9.64585 146.266 9.43377 147.451 9.43377C148.527 9.43377 149.33 9.56137 149.855 9.81657C150.382 10.0709 150.753 10.3947 150.968 10.7872C151.182 11.1797 151.289 11.9004 151.289 12.9485L151.264 15.7671C151.264 16.5697 151.303 17.161 151.38 17.5421C151.457 17.9231 151.602 18.3314 151.814 18.767H149.426C149.364 18.606 149.286 18.3684 149.194 18.0534C149.154 17.9099 149.126 17.8158 149.109 17.77C148.696 18.1704 148.256 18.4714 147.786 18.672C147.317 18.8726 146.816 18.973 146.284 18.973C145.344 18.973 144.605 18.7178 144.063 18.2082C143.523 17.6978 143.252 17.0537 143.252 16.2749C143.252 15.7592 143.375 15.299 143.621 14.895C143.868 14.4911 144.212 14.1822 144.656 13.9675C145.1 13.7519 145.74 13.5645 146.576 13.4043C147.703 13.1922 148.484 12.9951 148.92 12.8112V12.571C148.92 12.1063 148.805 11.7754 148.576 11.5783C148.346 11.3803 147.915 11.2818 147.28 11.2818C146.85 11.2818 146.515 11.3662 146.275 11.5352C146.035 11.7042 145.84 12.0007 145.691 12.4249V12.4249Z"
    fill="white"
  />
</svg>
