<svg
  width="211"
  height="44"
  viewBox="0 0 211 44"
  fill="none"
  xmlns="http://www.w3.org/2000/svg"
>
<path
    d="M74.0176 18.5V5.61523H83.5713V7.79492H76.6191V10.6514H83.0879V12.8223H76.6191V16.3291H83.8174V18.5H74.0176Z"
    fill="white"
  />
<path
    d="M92.1494 18.5V17.1025C91.8096 17.6006 91.3613 17.9932 90.8047 18.2803C90.2539 18.5674 89.6709 18.7109 89.0557 18.7109C88.4287 18.7109 87.8662 18.5732 87.3682 18.2979C86.8701 18.0225 86.5098 17.6357 86.2871 17.1377C86.0645 16.6396 85.9531 15.9512 85.9531 15.0723V9.16602H88.4229V13.4551C88.4229 14.7676 88.4668 15.5732 88.5547 15.8721C88.6484 16.165 88.8154 16.3994 89.0557 16.5752C89.2959 16.7451 89.6006 16.8301 89.9697 16.8301C90.3916 16.8301 90.7695 16.7158 91.1035 16.4873C91.4375 16.2529 91.666 15.9658 91.7891 15.626C91.9121 15.2803 91.9736 14.4395 91.9736 13.1035V9.16602H94.4434V18.5H92.1494Z"
    fill="white"
  />
<path
    d="M99.374 18.5H96.9043V9.16602H99.1982V10.4932C99.5908 9.86621 99.9424 9.45312 100.253 9.25391C100.569 9.05469 100.927 8.95508 101.325 8.95508C101.888 8.95508 102.43 9.11035 102.951 9.4209L102.187 11.5742C101.771 11.3047 101.384 11.1699 101.026 11.1699C100.681 11.1699 100.388 11.2666 100.147 11.46C99.9072 11.6475 99.7168 11.9902 99.5762 12.4883C99.4414 12.9863 99.374 14.0293 99.374 15.6172V18.5Z"
    fill="white"
  />
<path
    d="M103.452 13.7012C103.452 12.8809 103.654 12.0869 104.059 11.3193C104.463 10.5518 105.034 9.96582 105.772 9.56152C106.517 9.15723 107.346 8.95508 108.26 8.95508C109.672 8.95508 110.829 9.41504 111.731 10.335C112.634 11.249 113.085 12.4062 113.085 13.8066C113.085 15.2188 112.628 16.3906 111.714 17.3223C110.806 18.248 109.66 18.7109 108.277 18.7109C107.422 18.7109 106.604 18.5176 105.825 18.1309C105.052 17.7441 104.463 17.1787 104.059 16.4346C103.654 15.6846 103.452 14.7734 103.452 13.7012ZM105.983 13.833C105.983 14.7588 106.203 15.4678 106.643 15.96C107.082 16.4521 107.624 16.6982 108.269 16.6982C108.913 16.6982 109.452 16.4521 109.886 15.96C110.325 15.4678 110.545 14.7529 110.545 13.8154C110.545 12.9014 110.325 12.1982 109.886 11.7061C109.452 11.2139 108.913 10.9678 108.269 10.9678C107.624 10.9678 107.082 11.2139 106.643 11.7061C106.203 12.1982 105.983 12.9072 105.983 13.833Z"
    fill="white"
  />
<path
    d="M114.957 9.16602H117.26V10.5371C117.559 10.0684 117.963 9.6875 118.473 9.39453C118.982 9.10156 119.548 8.95508 120.169 8.95508C121.253 8.95508 122.173 9.37988 122.929 10.2295C123.685 11.0791 124.062 12.2627 124.062 13.7803C124.062 15.3389 123.682 16.5518 122.92 17.4189C122.158 18.2803 121.235 18.7109 120.151 18.7109C119.636 18.7109 119.167 18.6084 118.745 18.4033C118.329 18.1982 117.89 17.8467 117.427 17.3486V22.0508H114.957V9.16602ZM117.4 13.6748C117.4 14.7236 117.608 15.5 118.024 16.0039C118.44 16.502 118.947 16.751 119.545 16.751C120.119 16.751 120.597 16.5225 120.978 16.0654C121.358 15.6025 121.549 14.8467 121.549 13.7979C121.549 12.8193 121.353 12.0928 120.96 11.6182C120.567 11.1436 120.081 10.9062 119.501 10.9062C118.897 10.9062 118.396 11.1406 117.998 11.6094C117.6 12.0723 117.4 12.7607 117.4 13.6748Z"
    fill="white"
  />
<path
    d="M127.877 12.0137L125.636 11.6094C125.888 10.707 126.321 10.0391 126.937 9.60547C127.552 9.17188 128.466 8.95508 129.679 8.95508C130.78 8.95508 131.601 9.08691 132.14 9.35059C132.679 9.6084 133.057 9.93945 133.273 10.3438C133.496 10.7422 133.607 11.4775 133.607 12.5498L133.581 15.4326C133.581 16.2529 133.619 16.8594 133.695 17.252C133.777 17.6387 133.927 18.0547 134.144 18.5H131.7C131.636 18.3359 131.557 18.0928 131.463 17.7705C131.422 17.624 131.393 17.5273 131.375 17.4805C130.953 17.8906 130.502 18.1982 130.021 18.4033C129.541 18.6084 129.028 18.7109 128.483 18.7109C127.522 18.7109 126.764 18.4502 126.207 17.9287C125.656 17.4072 125.381 16.748 125.381 15.9512C125.381 15.4238 125.507 14.9551 125.759 14.5449C126.011 14.1289 126.362 13.8125 126.813 13.5957C127.271 13.373 127.927 13.1797 128.782 13.0156C129.937 12.7988 130.736 12.5967 131.182 12.4092V12.1631C131.182 11.6885 131.064 11.3516 130.83 11.1523C130.596 10.9473 130.153 10.8447 129.503 10.8447C129.063 10.8447 128.721 10.9326 128.475 11.1084C128.229 11.2783 128.029 11.5801 127.877 12.0137ZM131.182 14.0176C130.865 14.123 130.364 14.249 129.679 14.3955C128.993 14.542 128.545 14.6855 128.334 14.8262C128.012 15.0547 127.851 15.3447 127.851 15.6963C127.851 16.042 127.979 16.3408 128.237 16.5928C128.495 16.8447 128.823 16.9707 129.222 16.9707C129.667 16.9707 130.092 16.8242 130.496 16.5312C130.795 16.3086 130.991 16.0361 131.085 15.7139C131.149 15.5029 131.182 15.1016 131.182 14.5098V14.0176ZM126.813 7.51367V5.39551H128.932V7.51367H126.813ZM130.593 7.51367V5.39551H132.72V7.51367H130.593Z"
    fill="white"
  />
<path
    d="M141.456 15.5293L143.917 15.9424C143.601 16.8447 143.1 17.5332 142.414 18.0078C141.734 18.4766 140.882 18.7109 139.856 18.7109C138.233 18.7109 137.032 18.1807 136.253 17.1201C135.638 16.2705 135.33 15.1982 135.33 13.9033C135.33 12.3564 135.734 11.1465 136.543 10.2734C137.352 9.39453 138.374 8.95508 139.61 8.95508C140.999 8.95508 142.095 9.41504 142.897 10.335C143.7 11.249 144.084 12.6523 144.049 14.5449H137.861C137.879 15.2773 138.078 15.8486 138.459 16.2588C138.84 16.6631 139.314 16.8652 139.883 16.8652C140.27 16.8652 140.595 16.7598 140.858 16.5488C141.122 16.3379 141.321 15.998 141.456 15.5293ZM141.597 13.0332C141.579 12.3184 141.395 11.7764 141.043 11.4072C140.691 11.0322 140.264 10.8447 139.76 10.8447C139.221 10.8447 138.775 11.041 138.424 11.4336C138.072 11.8262 137.899 12.3594 137.905 13.0332H141.597Z"
    fill="white"
  />
<path
    d="M145.2 15.8369L147.679 15.459C147.784 15.9395 147.998 16.3057 148.32 16.5576C148.643 16.8037 149.094 16.9268 149.674 16.9268C150.312 16.9268 150.793 16.8096 151.115 16.5752C151.332 16.4111 151.44 16.1914 151.44 15.916C151.44 15.7285 151.382 15.5732 151.265 15.4502C151.142 15.333 150.866 15.2246 150.438 15.125C148.446 14.6855 147.184 14.2842 146.65 13.9209C145.912 13.417 145.543 12.7168 145.543 11.8203C145.543 11.0117 145.862 10.332 146.501 9.78125C147.14 9.23047 148.13 8.95508 149.472 8.95508C150.749 8.95508 151.698 9.16309 152.319 9.5791C152.94 9.99512 153.368 10.6104 153.603 11.4248L151.273 11.8555C151.174 11.4922 150.983 11.2139 150.702 11.0205C150.427 10.8271 150.031 10.7305 149.516 10.7305C148.865 10.7305 148.399 10.8213 148.118 11.0029C147.931 11.1318 147.837 11.2988 147.837 11.5039C147.837 11.6797 147.919 11.8291 148.083 11.9521C148.306 12.1162 149.073 12.3477 150.386 12.6465C151.704 12.9453 152.624 13.3115 153.146 13.7451C153.661 14.1846 153.919 14.7969 153.919 15.582C153.919 16.4375 153.562 17.1729 152.847 17.7881C152.132 18.4033 151.074 18.7109 149.674 18.7109C148.402 18.7109 147.395 18.4531 146.65 17.9375C145.912 17.4219 145.429 16.7217 145.2 15.8369Z"
    fill="white"
  />
<path
    d="M164.229 11.9258L161.794 12.3652C161.712 11.8789 161.524 11.5127 161.231 11.2666C160.944 11.0205 160.569 10.8975 160.106 10.8975C159.491 10.8975 158.999 11.1113 158.63 11.5391C158.267 11.9609 158.085 12.6699 158.085 13.666C158.085 14.7734 158.27 15.5557 158.639 16.0127C159.014 16.4697 159.515 16.6982 160.142 16.6982C160.61 16.6982 160.994 16.5664 161.293 16.3027C161.592 16.0332 161.803 15.5732 161.926 14.9229L164.352 15.3359C164.1 16.4492 163.616 17.29 162.901 17.8584C162.187 18.4268 161.229 18.7109 160.027 18.7109C158.662 18.7109 157.572 18.2803 156.758 17.4189C155.949 16.5576 155.545 15.3652 155.545 13.8418C155.545 12.3008 155.952 11.1025 156.767 10.2471C157.581 9.38574 158.683 8.95508 160.071 8.95508C161.208 8.95508 162.11 9.20117 162.778 9.69336C163.452 10.1797 163.936 10.9238 164.229 11.9258Z"
    fill="white"
  />
<path
    d="M168.57 5.61523V10.3525C169.367 9.4209 170.319 8.95508 171.427 8.95508C171.995 8.95508 172.508 9.06055 172.965 9.27148C173.422 9.48242 173.765 9.75195 173.993 10.0801C174.228 10.4082 174.386 10.7715 174.468 11.1699C174.556 11.5684 174.6 12.1865 174.6 13.0244V18.5H172.13V13.5693C172.13 12.5908 172.083 11.9697 171.989 11.7061C171.896 11.4424 171.729 11.2344 171.488 11.082C171.254 10.9238 170.958 10.8447 170.601 10.8447C170.19 10.8447 169.824 10.9443 169.502 11.1436C169.18 11.3428 168.942 11.6445 168.79 12.0488C168.644 12.4473 168.57 13.0391 168.57 13.8242V18.5H166.101V5.61523H168.57Z"
    fill="white"
  />
<path
    d="M74 25.6152H76.6016V32.5938C76.6016 33.7012 76.6338 34.4189 76.6982 34.7471C76.8096 35.2744 77.0732 35.6992 77.4893 36.0215C77.9111 36.3379 78.4854 36.4961 79.2119 36.4961C79.9502 36.4961 80.5068 36.3467 80.8818 36.0479C81.2568 35.7432 81.4824 35.3711 81.5586 34.9316C81.6348 34.4922 81.6729 33.7627 81.6729 32.7432V25.6152H84.2744V32.3828C84.2744 33.9297 84.2041 35.0225 84.0635 35.6611C83.9229 36.2998 83.6621 36.8389 83.2812 37.2783C82.9062 37.7178 82.4023 38.0693 81.7695 38.333C81.1367 38.5908 80.3105 38.7197 79.291 38.7197C78.0605 38.7197 77.126 38.5791 76.4873 38.2979C75.8545 38.0107 75.3535 37.6416 74.9844 37.1904C74.6152 36.7334 74.3721 36.2559 74.2549 35.7578C74.085 35.0195 74 33.9297 74 32.4883V25.6152Z"
    fill="white"
  />
<path
    d="M95.498 38.5H93.0283V33.7363C93.0283 32.7285 92.9756 32.0781 92.8701 31.7852C92.7646 31.4863 92.5918 31.2549 92.3516 31.0908C92.1172 30.9268 91.833 30.8447 91.499 30.8447C91.0713 30.8447 90.6875 30.9619 90.3477 31.1963C90.0078 31.4307 89.7734 31.7412 89.6445 32.1279C89.5215 32.5146 89.46 33.2295 89.46 34.2725V38.5H86.9902V29.166H89.2842V30.5371C90.0986 29.4824 91.124 28.9551 92.3604 28.9551C92.9053 28.9551 93.4033 29.0547 93.8545 29.2539C94.3057 29.4473 94.6455 29.6963 94.874 30.001C95.1084 30.3057 95.2695 30.6514 95.3574 31.0381C95.4512 31.4248 95.498 31.9785 95.498 32.6992V38.5Z"
    fill="white"
  />
<path
    d="M98.0117 27.9004V25.6152H100.481V27.9004H98.0117ZM98.0117 38.5V29.166H100.481V38.5H98.0117Z"
    fill="white"
  />
<path
    d="M102.45 33.7012C102.45 32.8809 102.652 32.0869 103.057 31.3193C103.461 30.5518 104.032 29.9658 104.771 29.5615C105.515 29.1572 106.344 28.9551 107.258 28.9551C108.67 28.9551 109.827 29.415 110.729 30.335C111.632 31.249 112.083 32.4062 112.083 33.8066C112.083 35.2188 111.626 36.3906 110.712 37.3223C109.804 38.248 108.658 38.7109 107.275 38.7109C106.42 38.7109 105.603 38.5176 104.823 38.1309C104.05 37.7441 103.461 37.1787 103.057 36.4346C102.652 35.6846 102.45 34.7734 102.45 33.7012ZM104.981 33.833C104.981 34.7588 105.201 35.4678 105.641 35.96C106.08 36.4521 106.622 36.6982 107.267 36.6982C107.911 36.6982 108.45 36.4521 108.884 35.96C109.323 35.4678 109.543 34.7529 109.543 33.8154C109.543 32.9014 109.323 32.1982 108.884 31.7061C108.45 31.2139 107.911 30.9678 107.267 30.9678C106.622 30.9678 106.08 31.2139 105.641 31.7061C105.201 32.1982 104.981 32.9072 104.981 33.833Z"
    fill="white"
  />
<path
    d="M120.169 38.5V37.1025C119.829 37.6006 119.381 37.9932 118.824 38.2803C118.273 38.5674 117.69 38.7109 117.075 38.7109C116.448 38.7109 115.886 38.5732 115.388 38.2979C114.89 38.0225 114.529 37.6357 114.307 37.1377C114.084 36.6396 113.973 35.9512 113.973 35.0723V29.166H116.442V33.4551C116.442 34.7676 116.486 35.5732 116.574 35.8721C116.668 36.165 116.835 36.3994 117.075 36.5752C117.315 36.7451 117.62 36.8301 117.989 36.8301C118.411 36.8301 118.789 36.7158 119.123 36.4873C119.457 36.2529 119.686 35.9658 119.809 35.626C119.932 35.2803 119.993 34.4395 119.993 33.1035V29.166H122.463V38.5H120.169Z"
    fill="white"
  />
<path
    d="M133.52 38.5H131.05V33.7363C131.05 32.7285 130.997 32.0781 130.892 31.7852C130.786 31.4863 130.613 31.2549 130.373 31.0908C130.139 30.9268 129.854 30.8447 129.521 30.8447C129.093 30.8447 128.709 30.9619 128.369 31.1963C128.029 31.4307 127.795 31.7412 127.666 32.1279C127.543 32.5146 127.481 33.2295 127.481 34.2725V38.5H125.012V29.166H127.306V30.5371C128.12 29.4824 129.146 28.9551 130.382 28.9551C130.927 28.9551 131.425 29.0547 131.876 29.2539C132.327 29.4473 132.667 29.6963 132.896 30.001C133.13 30.3057 133.291 30.6514 133.379 31.0381C133.473 31.4248 133.52 31.9785 133.52 32.6992V38.5Z"
    fill="white"
  />
<rect x="0.891907" y="0.880005" width="64.2162" height="42.24" fill="#003399" />
<path
    fill-rule="evenodd"
    clip-rule="evenodd"
    d="M30.8059 7.74397L32.1616 8.72077L31.6443 10.3136L33 9.32797L34.3556 10.3136L33.8384 8.72077L35.194 7.74397H33.5173L33 6.15997L32.4827 7.74397H30.8059ZM34.3556 37.84L33.8384 36.256L35.194 35.2792H33.5173L33 33.6864L32.4827 35.2792H30.8059L32.1616 36.256L31.6443 37.84L33 36.8632L34.3556 37.84ZM19.14 23.056L17.7843 24.0416L18.3016 22.4576L16.9459 21.5072H18.6227L19.14 19.9232L19.6573 21.5072H21.343L19.9784 22.4928L20.4957 24.0768L19.14 23.0912V23.056ZM27.4257 12.144L26.9084 10.56L28.264 9.59197H26.5873L26.07 8.00797L25.5527 9.59197H23.8759L25.2316 10.5688L24.7143 12.1528L26.07 11.176L27.4257 12.144ZM20.5135 14.6256L21.0308 13.0416L21.557 14.6256H23.1892L21.8335 15.6112L22.3508 17.1952L20.9862 16.2096L19.6216 17.1952L20.1389 15.6112L18.7832 14.6256H20.5135ZM20.5135 28.3888H18.8011H18.7832L20.1389 29.3744L19.6216 30.9584L20.9862 29.9816L22.3508 30.9584L21.8335 29.3744L23.1892 28.3888H21.557L21.0308 26.8048L20.5135 28.3888ZM25.2316 34.408L23.8759 33.44H25.5527L26.07 31.856L26.5873 33.44H28.264L26.9084 34.408L27.4257 35.992L26.07 35.0152L24.7143 35.992L25.2316 34.408ZM48.2157 24.0768L47.6984 22.4928L49.054 21.5072H47.4129L46.8957 19.9232L46.3784 21.5072H44.6392L46.0038 22.4928L45.4865 24.0768L46.86 23.0912L48.2157 24.0768ZM39.0916 10.56L37.7359 9.59197H39.4127L39.93 8.00797L40.4473 9.59197H42.124L40.7684 10.56L41.2857 12.144L39.93 11.176L38.5743 12.1528L39.0916 10.5688V10.56ZM44.9692 13.0328L44.4429 14.6168L42.8108 14.6256L44.1575 15.6112L43.6402 17.1952L45.0048 16.2096L46.3605 17.1952L45.8432 15.6112L47.1632 14.6168H45.4865L44.9692 13.0328ZM45.5311 28.3888H47.1632L45.8432 29.3744L46.3605 30.9584L45.0048 29.9816L43.6402 30.9584L44.1575 29.3744L42.8108 28.3888H44.4875L45.0138 26.8048L45.5311 28.3888ZM40.7684 34.408L42.124 33.44H40.4473L39.93 31.856L39.4127 33.44H37.7359L39.0916 34.408L38.5743 35.992L39.93 35.0152L41.2857 35.992L40.7684 34.408Z"
    fill="#FFCC00"
  />
<path
    fill-rule="evenodd"
    clip-rule="evenodd"
    d="M66 44H0V0H66V44ZM65.1081 0.88H0.891892V43.12H65.1081V0.88Z"
    fill="white"
  />
</svg>
