<svg
  width="211"
  height="44"
  viewBox="0 0 211 44"
  fill="none"
  xmlns="http://www.w3.org/2000/svg"
>
<rect x="0.878418" y="0.880005" width="63.2432" height="42.24" fill="#003399" />
<path
    fill-rule="evenodd"
    clip-rule="evenodd"
    d="M30.3392 7.74403L31.6743 8.72083L31.1649 10.3136L32.5 9.32803L33.8352 10.3136L33.3257 8.72083L34.6608 7.74403H33.0095L32.5 6.16003L31.9906 7.74403H30.3392ZM33.8352 37.84L33.3257 36.256L34.6608 35.2792H33.0095L32.5 33.6864L31.9906 35.2792H30.3392L31.6743 36.256L31.1649 37.84L32.5 36.8632L33.8352 37.84ZM18.85 23.056L17.5149 24.0416L18.0243 22.4576L16.6892 21.5072H18.3406L18.85 19.9232L19.3595 21.5072H21.0196L19.6757 22.4928L20.1852 24.0768L18.85 23.0912V23.056ZM27.0102 12.144L26.5007 10.56L27.8358 9.59203H26.1845L25.675 8.00803L25.1656 9.59203H23.5142L24.8493 10.5688L24.3399 12.1528L25.675 11.176L27.0102 12.144ZM20.2027 14.6256L20.7122 13.0416L21.2304 14.6256H22.8379L21.5027 15.6112L22.0122 17.1952L20.6683 16.2096L19.3243 17.1952L19.8338 15.6112L18.4987 14.6256H20.2027ZM20.7122 26.8048L20.2027 28.3888H18.5162H18.4987L19.8338 29.3744L19.3243 30.9584L20.6683 29.9816L22.0122 30.9584L21.5027 29.3744L22.8379 28.3888H21.2304L20.7122 26.8048ZM24.8493 34.408L23.5142 33.44H25.1656L25.675 31.856L26.1845 33.44H27.8358L26.5007 34.408L27.0102 35.992L25.675 35.0152L24.3399 35.992L24.8493 34.408ZM47.4852 24.0768L46.9757 22.4928L48.3108 21.5072H46.6946L46.1852 19.9232L45.6757 21.5072H43.9629L45.3068 22.4928L44.7973 24.0768L46.15 23.0912L47.4852 24.0768ZM38.4993 10.56L37.1642 9.59203H38.8156L39.325 8.00803L39.8345 9.59203H41.4858L40.1507 10.56L40.6602 12.144L39.325 11.176L37.9899 12.1528L38.4993 10.5688V10.56ZM44.2879 13.0328L43.7696 14.6168L42.1622 14.6256L43.4885 15.6112L42.9791 17.1952L44.323 16.2096L45.6581 17.1952L45.1487 15.6112L46.4487 14.6168H44.7973L44.2879 13.0328ZM44.8412 28.3888H46.4487L45.1487 29.3744L45.6581 30.9584L44.323 29.9816L42.9791 30.9584L43.4885 29.3744L42.1622 28.3888H43.8135L44.3318 26.8048L44.8412 28.3888ZM40.1507 34.408L41.4858 33.44H39.8345L39.325 31.856L38.8156 33.44H37.1642L38.4993 34.408L37.9899 35.992L39.325 35.0152L40.6602 35.992L40.1507 34.408Z"
    fill="#FFCC00"
  />
<path
    fill-rule="evenodd"
    clip-rule="evenodd"
    d="M65 44H0V0H65V44ZM64.1216 0.88H0.878378V43.12H64.1216V0.88Z"
    fill="white"
  />
<path
    fill-rule="evenodd"
    clip-rule="evenodd"
    d="M74.7461 25.2465H77.2878V32.07C77.2878 33.1524 77.3194 33.8546 77.3818 34.1749C77.4909 34.6906 77.7493 35.1051 78.159 35.4175C78.5687 35.7299 79.127 35.8857 79.8373 35.8857C80.5583 35.8857 81.1016 35.7378 81.4682 35.443C81.8348 35.1473 82.0546 34.7857 82.1293 34.3562C82.2041 33.9259 82.241 33.2131 82.241 32.2161V25.2465H84.7827V31.8641C84.7827 33.3759 84.7141 34.4451 84.5769 35.069C84.4389 35.6938 84.1857 36.2209 83.8165 36.6504C83.4472 37.0798 82.954 37.4221 82.3359 37.6773C81.7179 37.9325 80.9108 38.0601 79.9147 38.0601C78.7129 38.0601 77.8012 37.9211 77.1805 37.643C76.5598 37.3649 76.0684 37.0041 75.7079 36.5597C75.3474 36.1162 75.1092 35.6507 74.9949 35.1641C74.8296 34.4416 74.7461 33.3759 74.7461 31.967V25.2465Z"
    fill="white"
  />
<path
    fill-rule="evenodd"
    clip-rule="evenodd"
    d="M95.2108 37.8449H92.7984V33.187C92.7984 32.2014 92.7465 31.5643 92.6436 31.2748C92.5408 30.9861 92.3728 30.7609 92.1416 30.6007C91.9095 30.4397 91.6308 30.3596 91.3046 30.3596C90.8862 30.3596 90.5116 30.4749 90.1793 30.7037C89.847 30.9325 89.6202 31.2361 89.4971 31.6145C89.374 31.9929 89.3125 32.6916 89.3125 33.7115V37.8449H86.9V28.7184H89.141V30.0586C89.9367 29.0273 90.938 28.5125 92.146 28.5125C92.6779 28.5125 93.165 28.6075 93.6054 28.8002C94.0459 28.9921 94.38 29.2367 94.6059 29.535C94.831 29.8325 94.9892 30.1704 95.078 30.5488C95.1659 30.9272 95.2108 31.4684 95.2108 32.1733V37.8449Z"
    fill="white"
  />
<path
    fill-rule="evenodd"
    clip-rule="evenodd"
    d="M97.2183 37.8444H99.6307V28.7179H97.2183V37.8444ZM97.2183 27.4807H99.6307V25.2463H97.2183V27.4807Z"
    fill="white"
  />
<path
    fill-rule="evenodd"
    clip-rule="evenodd"
    d="M103.578 33.2816C103.578 34.1871 103.793 34.8796 104.222 35.361C104.652 35.8424 105.181 36.0835 105.811 36.0835C106.44 36.0835 106.968 35.8424 107.395 35.361C107.821 34.8796 108.034 34.1809 108.034 33.264C108.034 32.3708 107.821 31.6835 107.395 31.2021C106.968 30.7208 106.44 30.4796 105.811 30.4796C105.181 30.4796 104.652 30.7208 104.222 31.2021C103.793 31.6835 103.578 32.376 103.578 33.2816M101.105 33.1531C101.105 32.3505 101.303 31.5744 101.698 30.8237C102.093 30.0731 102.653 29.5002 103.377 29.1051C104.101 28.71 104.909 28.512 105.802 28.512C107.182 28.512 108.312 28.9599 109.194 29.8566C110.075 30.7533 110.516 31.8868 110.516 33.256C110.516 34.6368 110.071 35.7808 109.18 36.6889C108.29 37.5971 107.17 38.0512 105.819 38.0512C104.984 38.0512 104.186 37.862 103.428 37.4836C102.67 37.106 102.093 36.5516 101.698 35.8212C101.303 35.0908 101.105 34.2012 101.105 33.1531"
    fill="white"
  />
<path
    fill-rule="evenodd"
    clip-rule="evenodd"
    d="M120.258 37.8449H117.846V33.187C117.846 32.2014 117.794 31.5643 117.691 31.2748C117.588 30.9861 117.42 30.7609 117.189 30.6007C116.957 30.4397 116.678 30.3596 116.352 30.3596C115.934 30.3596 115.559 30.4749 115.227 30.7037C114.895 30.9325 114.668 31.2361 114.545 31.6145C114.422 31.9929 114.36 32.6916 114.36 33.7115V37.8449H111.948V28.7184H114.189V30.0586C114.984 29.0273 115.986 28.5125 117.194 28.5125C117.726 28.5125 118.213 28.6075 118.653 28.8002C119.093 28.9921 119.428 29.2367 119.654 29.535C119.879 29.8325 120.037 30.1704 120.126 30.5488C120.214 30.9272 120.258 31.4684 120.258 32.1733V37.8449Z"
    fill="white"
  />
<path
    fill-rule="evenodd"
    clip-rule="evenodd"
    d="M77.2884 8.29957V16.6437H79.1856C79.896 16.6437 80.4077 16.6041 80.7224 16.5241C81.1347 16.4211 81.4767 16.246 81.7484 15.9996C82.0209 15.7532 82.2425 15.3475 82.4139 14.7834C82.5854 14.2193 82.6715 13.4502 82.6715 12.4761C82.6715 11.5019 82.5854 10.7548 82.4139 10.2329C82.2425 9.71197 82.0016 9.30541 81.693 9.01325C81.3835 8.72109 80.9914 8.52309 80.5167 8.42013C80.1624 8.33917 79.4669 8.29957 78.4304 8.29957H77.2884ZM74.7467 6.16821H79.3922C80.4393 6.16821 81.2376 6.24829 81.7871 6.40933C82.5256 6.62669 83.1586 7.01389 83.6843 7.56917C84.2109 8.12445 84.6118 8.80557 84.887 9.60989C85.1613 10.4151 85.2985 11.4077 85.2985 12.5878C85.2985 13.6245 85.1701 14.5185 84.9125 15.2692C84.5969 16.1853 84.1485 16.928 83.5647 17.4947C83.1243 17.925 82.5282 18.2594 81.7783 18.5005C81.2183 18.6774 80.4674 18.7672 79.5294 18.7672H74.7467V6.16821Z"
    fill="white"
  />
<path
    fill-rule="evenodd"
    clip-rule="evenodd"
    d="M92.8541 13.4215C92.8365 12.7228 92.6562 12.1912 92.3134 11.8269C91.9696 11.4635 91.552 11.2813 91.0597 11.2813C90.5331 11.2813 90.0979 11.474 89.755 11.8577C89.4112 12.2414 89.2424 12.7624 89.2477 13.4215H92.8541ZM92.7169 15.8617L95.1206 16.2656C94.812 17.1483 94.324 17.8206 93.6567 18.2808C92.9895 18.742 92.156 18.9734 91.1538 18.9734C89.5686 18.9734 88.3958 18.4542 87.6344 17.4176C87.0331 16.5868 86.7324 15.5388 86.7324 14.2724C86.7324 12.7597 87.1272 11.5752 87.9175 10.719C88.707 9.86276 89.7058 9.4342 90.9137 9.4342C92.2703 9.4342 93.3411 9.88212 94.1245 10.7788C94.9087 11.6756 95.2841 13.0492 95.2498 14.8999H89.2055C89.2222 15.6162 89.4174 16.1724 89.7893 16.571C90.1612 16.9696 90.6245 17.1685 91.1801 17.1685C91.5573 17.1685 91.8755 17.0656 92.1331 16.8588C92.3907 16.6528 92.585 16.3202 92.7169 15.8617V15.8617Z"
    fill="white"
  />
<path
    fill-rule="evenodd"
    clip-rule="evenodd"
    d="M105.246 18.7668H102.833V14.109C102.833 13.1234 102.782 12.4863 102.679 12.1968C102.576 11.9081 102.408 11.6828 102.177 11.5227C101.945 11.3616 101.666 11.2816 101.34 11.2816C100.921 11.2816 100.547 11.3968 100.214 11.6256C99.882 11.8544 99.6552 12.158 99.5321 12.5364C99.409 12.9148 99.3475 13.6136 99.3475 14.6335V18.7668H96.9351V9.64037H99.1761V10.9806C99.9717 9.94925 100.973 9.43445 102.181 9.43445C102.713 9.43445 103.2 9.52949 103.64 9.72221C104.081 9.91405 104.415 10.1587 104.641 10.457C104.866 10.7544 105.024 11.0924 105.113 11.4708C105.201 11.8492 105.246 12.3904 105.246 13.0952V18.7668Z"
    fill="white"
  />
<path
    fill-rule="evenodd"
    clip-rule="evenodd"
    d="M112.946 18.7668V6.1687H122.279V8.29918H115.488V11.0923H121.806V13.2149H115.488V16.6442H122.519V18.7668H112.946Z"
    fill="white"
  />
<path
    fill-rule="evenodd"
    clip-rule="evenodd"
    d="M130.219 18.7669V17.4002C129.886 17.8869 129.45 18.2714 128.91 18.5521C128.369 18.8329 127.797 18.9728 127.196 18.9728C126.584 18.9728 126.035 18.839 125.549 18.5689C125.062 18.2996 124.709 17.9221 124.492 17.4345C124.275 16.9479 124.166 16.2747 124.166 15.4149V9.64038H126.578V13.8345C126.578 15.1175 126.623 15.9042 126.712 16.1929C126.8 16.4824 126.962 16.7121 127.196 16.8801C127.431 17.0491 127.729 17.1345 128.089 17.1345C128.502 17.1345 128.871 17.0209 129.197 16.7948C129.523 16.5677 129.747 16.2879 129.867 15.9526C129.987 15.6173 130.047 14.7963 130.047 13.4904V9.64038H132.46V18.7669H130.219Z"
    fill="white"
  />
<path
    fill-rule="evenodd"
    clip-rule="evenodd"
    d="M137.268 18.7668H134.855V9.64037H137.096V10.9384C137.479 10.325 137.824 9.92109 138.13 9.72661C138.437 9.53125 138.785 9.43445 139.174 9.43445C139.723 9.43445 140.253 9.58581 140.762 9.88941L140.015 11.9952C139.609 11.7312 139.231 11.5992 138.882 11.5992C138.544 11.5992 138.257 11.6925 138.023 11.8791C137.789 12.0648 137.604 12.4018 137.469 12.8884C137.334 13.376 137.268 14.3959 137.268 15.9482V18.7668Z"
    fill="white"
  />
<path
    fill-rule="evenodd"
    clip-rule="evenodd"
    d="M143.452 14.2036C143.452 15.1091 143.666 15.8016 144.095 16.283C144.525 16.7644 145.054 17.0055 145.684 17.0055C146.313 17.0055 146.841 16.7644 147.268 16.283C147.695 15.8016 147.907 15.1029 147.907 14.186C147.907 13.2928 147.695 12.6055 147.268 12.1241C146.841 11.6428 146.313 11.4016 145.684 11.4016C145.054 11.4016 144.525 11.6428 144.095 12.1241C143.666 12.6055 143.452 13.298 143.452 14.2036M140.979 14.0751C140.979 13.2725 141.176 12.4964 141.571 11.7457C141.967 10.9951 142.526 10.4222 143.25 10.0271C143.974 9.63196 144.783 9.43396 145.675 9.43396C147.055 9.43396 148.185 9.88188 149.067 10.7786C149.949 11.6753 150.389 12.8088 150.389 14.178C150.389 15.5588 149.944 16.7028 149.054 17.6109C148.163 18.5191 147.043 18.9732 145.693 18.9732C144.858 18.9732 144.059 18.784 143.301 18.4056C142.544 18.028 141.967 17.4736 141.571 16.7432C141.176 16.0128 140.979 15.1232 140.979 14.0751"
    fill="white"
  />
<path
    fill-rule="evenodd"
    clip-rule="evenodd"
    d="M154.332 14.0488C154.332 15.0749 154.535 15.8317 154.942 16.3218C155.348 16.812 155.844 17.0566 156.427 17.0566C156.988 17.0566 157.455 16.8322 157.827 16.3817C158.198 15.932 158.384 15.1946 158.384 14.1694C158.384 13.2119 158.194 12.5018 157.809 12.038C157.426 11.5734 156.951 11.3419 156.384 11.3419C155.794 11.3419 155.305 11.5698 154.916 12.0248C154.527 12.4806 154.332 13.1547 154.332 14.0488V14.0488ZM151.945 9.64H154.195V10.9811C154.487 10.5226 154.882 10.1504 155.379 9.86352C155.878 9.57664 156.43 9.43408 157.037 9.43408C158.095 9.43408 158.994 9.84944 159.733 10.6802C160.471 11.5109 160.84 12.6681 160.84 14.1518C160.84 15.6759 160.468 16.8604 159.724 17.7052C158.98 18.5509 158.078 18.9733 157.02 18.9733C156.515 18.9733 156.06 18.873 155.65 18.6723C155.24 18.4717 154.811 18.1276 154.358 17.641V22.239H151.945V9.64Z"
    fill="white"
  />
<path
    fill-rule="evenodd"
    clip-rule="evenodd"
    d="M173.828 13.4043C173.794 12.9 173.726 12.5366 173.623 12.3131C173.479 11.9919 173.263 11.7402 172.974 11.5563C172.685 11.3732 172.345 11.2817 171.957 11.2817C171.619 11.2817 171.323 11.36 171.068 11.5176C170.813 11.676 170.612 11.9118 170.463 12.2268C170.263 12.6448 170.171 13.0373 170.188 13.4043H173.828ZM167.759 14.4013C166.436 14.7507 165.717 14.9452 165.604 14.9856C165.22 15.1115 164.952 15.2637 164.8 15.4406C164.649 15.6184 164.573 15.8278 164.573 16.068C164.573 16.4007 164.697 16.684 164.946 16.919C165.196 17.154 165.52 17.2719 165.921 17.2719C166.344 17.2719 166.742 17.1372 167.114 16.868C167.389 16.6673 167.565 16.4165 167.643 16.1156C167.72 15.8146 167.759 15.2435 167.759 14.4013V14.4013ZM173.734 15.8533L176.095 16.2748C175.769 17.1742 175.274 17.8483 174.61 18.2988C173.946 18.7485 173.099 18.9729 172.068 18.9729C171.427 18.9729 170.835 18.8682 170.292 18.6596C169.747 18.4502 169.255 18.136 168.815 17.718C168.408 18.0674 167.883 18.364 167.239 18.6077C166.595 18.8515 165.933 18.9729 165.251 18.9729C164.279 18.9729 163.519 18.7195 162.976 18.2126C162.433 17.7057 162.161 17.0651 162.161 16.2916C162.161 15.8278 162.257 15.4151 162.448 15.0543C162.639 14.6935 162.871 14.411 163.144 14.2077C163.416 14.0044 163.795 13.8284 164.282 13.6788C164.51 13.6049 165.191 13.45 166.325 13.2151C166.891 13.0945 167.374 12.9687 167.775 12.8367V12.5964C167.775 12.1556 167.656 11.8264 167.415 11.6082C167.175 11.39 166.794 11.2817 166.273 11.2817C165.816 11.2817 165.452 11.375 165.183 11.5607C164.914 11.7472 164.722 12.035 164.608 12.4248L162.418 12.0033C162.704 11.1216 163.154 10.4721 163.771 10.0568C164.386 9.6414 165.322 9.43372 166.582 9.43372C167.178 9.43372 167.709 9.50412 168.175 9.64492C168.641 9.78484 169.04 9.99516 169.373 10.2759C169.722 9.99516 170.104 9.78484 170.518 9.64492C170.933 9.50412 171.379 9.43372 171.854 9.43372C172.77 9.43372 173.544 9.62732 174.177 10.0136C174.809 10.4008 175.307 10.9711 175.67 11.7244C176.033 12.4776 176.213 13.5416 176.207 14.917H170.146C170.242 15.6958 170.46 16.2608 170.798 16.6101C171.136 16.9595 171.551 17.1337 172.043 17.1337C172.449 17.1337 172.795 17.0299 173.081 16.8204C173.368 16.611 173.586 16.2889 173.734 15.8533V15.8533Z"
    fill="white"
  />
<path
    fill-rule="evenodd"
    clip-rule="evenodd"
    d="M178.037 18.7669H180.45V9.64045H178.037V18.7669ZM178.037 8.40229H180.45V6.16797H178.037V8.40229Z"
    fill="white"
  />
<path
    fill-rule="evenodd"
    clip-rule="evenodd"
    d="M182.072 16.1629L184.494 15.7933C184.596 16.2632 184.805 16.6196 185.12 16.8634C185.435 17.1072 185.876 17.2286 186.443 17.2286C187.067 17.2286 187.536 17.1142 187.85 16.8845C188.062 16.7244 188.169 16.5096 188.169 16.2404C188.169 16.0564 188.111 15.9051 187.996 15.7845C187.877 15.6701 187.608 15.5645 187.189 15.4668C185.243 15.0374 184.01 14.6449 183.489 14.2894C182.768 13.7966 182.407 13.112 182.407 12.2355C182.407 11.4452 182.719 10.78 183.343 10.2414C183.967 9.70373 184.934 9.43445 186.245 9.43445C187.492 9.43445 188.42 9.63685 189.027 10.0443C189.634 10.4508 190.051 11.0528 190.28 11.8492L188.005 12.2698C187.908 11.9143 187.724 11.6424 187.451 11.4532C187.179 11.2648 186.792 11.1698 186.288 11.1698C185.652 11.1698 185.198 11.2587 184.923 11.4364C184.74 11.5623 184.648 11.726 184.648 11.9266C184.648 12.0982 184.728 12.2443 184.888 12.3648C185.106 12.525 185.857 12.7512 187.143 13.0433C188.428 13.3355 189.325 13.6936 189.834 14.1178C190.337 14.5472 190.59 15.1456 190.59 15.9139C190.59 16.7499 190.24 17.4688 189.542 18.0708C188.844 18.6727 187.81 18.9728 186.443 18.9728C185.2 18.9728 184.217 18.7211 183.493 18.2168C182.77 17.7126 182.296 17.028 182.072 16.1629"
    fill="white"
  />
<path
    fill-rule="evenodd"
    clip-rule="evenodd"
    d="M192.352 18.7668V6.1687H194.764V12.8541L197.589 9.6403H200.56L197.443 12.9746L200.783 18.7668H198.182L195.889 14.6677L194.764 15.8452V18.7668H192.352Z"
    fill="white"
  />
<path
    fill-rule="evenodd"
    clip-rule="evenodd"
    d="M207.371 13.4215C207.353 12.7228 207.173 12.1912 206.83 11.8269C206.486 11.4635 206.069 11.2813 205.576 11.2813C205.05 11.2813 204.615 11.474 204.272 11.8577C203.928 12.2414 203.759 12.7624 203.764 13.4215H207.371ZM207.234 15.8617L209.637 16.2656C209.329 17.1483 208.841 17.8206 208.173 18.2808C207.506 18.742 206.673 18.9734 205.67 18.9734C204.085 18.9734 202.913 18.4542 202.151 17.4176C201.55 16.5868 201.249 15.5388 201.249 14.2724C201.249 12.7597 201.644 11.5752 202.434 10.719C203.224 9.86276 204.222 9.4342 205.43 9.4342C206.787 9.4342 207.858 9.88212 208.641 10.7788C209.425 11.6756 209.801 13.0492 209.767 14.8999H203.722C203.739 15.6162 203.934 16.1724 204.306 16.571C204.678 16.9696 205.141 17.1685 205.697 17.1685C206.074 17.1685 206.392 17.0656 206.65 16.8588C206.907 16.6528 207.102 16.3202 207.234 15.8617V15.8617Z"
    fill="white"
  />
</svg>
