<svg
  width="211"
  height="44"
  viewBox="0 0 211 44"
  fill="none"
  xmlns="http://www.w3.org/2000/svg"
>
<rect x="0.878357" y="0.880005" width="63.2432" height="42.24" fill="#003399" />
<path
    fill-rule="evenodd"
    clip-rule="evenodd"
    d="M30.3392 7.74397L31.6743 8.72077L31.1649 10.3136L32.5 9.32797L33.8352 10.3136L33.3257 8.72077L34.6608 7.74397H33.0095L32.5 6.15997L31.9906 7.74397H30.3392ZM33.8352 37.84L33.3257 36.256L34.6608 35.2792H33.0095L32.5 33.6864L31.9906 35.2792H30.3392L31.6743 36.256L31.1649 37.84L32.5 36.8632L33.8352 37.84ZM18.85 23.056L17.5149 24.0416L18.0243 22.4576L16.6892 21.5072H18.3406L18.85 19.9232L19.3595 21.5072H21.0196L19.6757 22.4928L20.1852 24.0768L18.85 23.0912V23.056ZM27.0102 12.144L26.5007 10.56L27.8358 9.59197H26.1845L25.675 8.00797L25.1656 9.59197H23.5142L24.8493 10.5688L24.3399 12.1528L25.675 11.176L27.0102 12.144ZM20.2027 14.6256L20.7122 13.0416L21.2304 14.6256H22.8379L21.5027 15.6112L22.0122 17.1952L20.6683 16.2096L19.3243 17.1952L19.8338 15.6112L18.4987 14.6256H20.2027ZM20.7122 26.8048L20.2027 28.3888H18.5162H18.4987L19.8338 29.3744L19.3243 30.9584L20.6683 29.9816L22.0122 30.9584L21.5027 29.3744L22.8379 28.3888H21.2304L20.7122 26.8048ZM24.8493 34.408L23.5142 33.44H25.1656L25.675 31.856L26.1845 33.44H27.8358L26.5007 34.408L27.0102 35.992L25.675 35.0152L24.3399 35.992L24.8493 34.408ZM47.4852 24.0768L46.9757 22.4928L48.3108 21.5072H46.6946L46.1852 19.9232L45.6757 21.5072H43.9629L45.3068 22.4928L44.7973 24.0768L46.15 23.0912L47.4852 24.0768ZM38.4993 10.56L37.1642 9.59197H38.8156L39.325 8.00797L39.8345 9.59197H41.4858L40.1507 10.56L40.6602 12.144L39.325 11.176L37.9899 12.1528L38.4993 10.5688V10.56ZM44.2879 13.0328L43.7696 14.6168L42.1622 14.6256L43.4885 15.6112L42.9791 17.1952L44.323 16.2096L45.6581 17.1952L45.1487 15.6112L46.4487 14.6168H44.7973L44.2879 13.0328ZM44.8412 28.3888H46.4487L45.1487 29.3744L45.6581 30.9584L44.323 29.9816L42.9791 30.9584L43.4885 29.3744L42.1622 28.3888H43.8135L44.3318 26.8048L44.8412 28.3888ZM40.1507 34.408L41.4858 33.44H39.8345L39.325 31.856L38.8156 33.44H37.1642L38.4993 34.408L37.9899 35.992L39.325 35.0152L40.6602 35.992L40.1507 34.408Z"
    fill="#FFCC00"
  />
<path
    fill-rule="evenodd"
    clip-rule="evenodd"
    d="M65 44H0V0H65V44ZM64.1216 0.88H0.878378V43.12H64.1216V0.88Z"
    fill="white"
  />
<path
    fill-rule="evenodd"
    clip-rule="evenodd"
    d="M79.9592 32.4997C79.9416 31.801 79.7619 31.2695 79.4199 30.9052C79.077 30.5417 78.6604 30.3596 78.1694 30.3596C77.6441 30.3596 77.21 30.5523 76.868 30.936C76.5251 31.3197 76.3568 31.8406 76.362 32.4997H79.9592ZM79.8224 34.94L82.2199 35.3439C81.9121 36.2265 81.4254 36.8989 80.7598 37.3591C80.0942 37.8202 79.2629 38.0517 78.2632 38.0517C76.6821 38.0517 75.5123 37.5325 74.7529 36.4958C74.1531 35.6651 73.8531 34.617 73.8531 33.3507C73.8531 31.838 74.2469 30.6535 75.0352 29.7973C75.8227 28.941 76.8189 28.5125 78.0238 28.5125C79.3769 28.5125 80.445 28.9604 81.2263 29.8571C82.0085 30.7538 82.383 32.1275 82.3488 33.9781H76.3199C76.3366 34.6945 76.5313 35.2506 76.9022 35.6493C77.2731 36.0479 77.7353 36.2468 78.2895 36.2468C78.6657 36.2468 78.9831 36.1438 79.2401 35.937C79.497 35.7311 79.6908 35.3985 79.8224 34.94V34.94Z"
    fill="white"
  />
<path
    fill-rule="evenodd"
    clip-rule="evenodd"
    d="M89.9445 37.845V36.4783C89.613 36.965 89.178 37.3495 88.6387 37.6303C88.0994 37.911 87.5294 38.0509 86.9296 38.0509C86.3193 38.0509 85.7712 37.9171 85.2863 37.647C84.8004 37.3777 84.4488 37.0002 84.2322 36.5127C84.0156 36.026 83.9069 35.3528 83.9069 34.4931V28.7185H86.3131V32.9126C86.3131 34.1956 86.3579 34.9823 86.4464 35.271C86.5341 35.5605 86.6964 35.7902 86.9296 35.9583C87.1638 36.1272 87.461 36.2126 87.8206 36.2126C88.2318 36.2126 88.6002 36.0991 88.9255 35.8729C89.2508 35.6459 89.4736 35.366 89.5937 35.0307C89.713 34.6955 89.7735 33.8744 89.7735 32.5685V28.7185H92.1798V37.845H89.9445Z"
    fill="white"
  />
<path
    fill-rule="evenodd"
    clip-rule="evenodd"
    d="M96.7123 37.845H94.306V28.7186H96.5413V30.0166C96.9236 29.4032 97.2674 28.9993 97.5726 28.8048C97.8786 28.6094 98.2259 28.5126 98.6135 28.5126C99.1616 28.5126 99.6903 28.664 100.198 28.9676L99.4527 31.0734C99.0476 30.8094 98.6705 30.6774 98.3223 30.6774C97.9856 30.6774 97.6997 30.7707 97.4656 30.9573C97.2323 31.143 97.0482 31.48 96.9131 31.9666C96.779 32.4542 96.7123 33.4741 96.7123 35.0264V37.845Z"
    fill="white"
  />
<path
    fill-rule="evenodd"
    clip-rule="evenodd"
    d="M102.881 33.2817C102.881 34.1872 103.095 34.8798 103.523 35.3611C103.952 35.8425 104.479 36.0836 105.107 36.0836C105.735 36.0836 106.261 35.8425 106.688 35.3611C107.113 34.8798 107.325 34.181 107.325 33.2641C107.325 32.3709 107.113 31.6836 106.688 31.2022C106.261 30.7209 105.735 30.4798 105.107 30.4798C104.479 30.4798 103.952 30.7209 103.523 31.2022C103.095 31.6836 102.881 32.3762 102.881 33.2817M100.414 33.1532C100.414 32.3506 100.611 31.5745 101.005 30.8238C101.4 30.0732 101.957 29.5003 102.68 29.1052C103.402 28.7101 104.209 28.5121 105.099 28.5121C106.475 28.5121 107.602 28.96 108.482 29.8567C109.361 30.7534 109.801 31.8869 109.801 33.2562C109.801 34.6369 109.357 35.7809 108.469 36.689C107.58 37.5972 106.463 38.0513 105.116 38.0513C104.283 38.0513 103.487 37.8621 102.731 37.4837C101.975 37.1062 101.4 36.5518 101.005 35.8214C100.611 35.091 100.414 34.2013 100.414 33.1532"
    fill="white"
  />
<path
    fill-rule="evenodd"
    clip-rule="evenodd"
    d="M113.698 33.127C113.698 34.1531 113.901 34.9099 114.306 35.4C114.711 35.8902 115.206 36.1348 115.788 36.1348C116.348 36.1348 116.813 35.9104 117.184 35.4599C117.554 35.0102 117.74 34.2727 117.74 33.2475C117.74 32.2901 117.55 31.5799 117.167 31.1162C116.784 30.6515 116.311 30.4201 115.745 30.4201C115.157 30.4201 114.668 30.648 114.281 31.103C113.893 31.5588 113.698 32.2329 113.698 33.127V33.127ZM111.318 28.7182H113.562V30.0593C113.853 29.6008 114.247 29.2286 114.743 28.9417C115.24 28.6548 115.791 28.5123 116.396 28.5123C117.452 28.5123 118.349 28.9276 119.085 29.7583C119.821 30.5891 120.189 31.7463 120.189 33.2299C120.189 34.7541 119.819 35.9386 119.077 36.7834C118.334 37.6291 117.435 38.0515 116.379 38.0515C115.876 38.0515 115.422 37.9511 115.013 37.7505C114.604 37.5499 114.176 37.2058 113.724 36.7191V41.3171H111.318V28.7182Z"
    fill="white"
  />
<path
    fill-rule="evenodd"
    clip-rule="evenodd"
    d="M124.253 27.6013L125.435 25.0317H128.133L125.777 27.6013H124.253ZM127.328 32.4994C127.31 31.8006 127.13 31.2691 126.788 30.9057C126.446 30.5414 126.028 30.3601 125.538 30.3601C125.013 30.3601 124.579 30.5519 124.236 30.9356C123.894 31.3193 123.724 31.8411 123.731 32.4994H127.328ZM127.191 34.9405L129.588 35.3444C129.28 36.2262 128.794 36.8985 128.128 37.3596C127.463 37.8207 126.631 38.0513 125.632 38.0513C124.051 38.0513 122.881 37.533 122.121 36.4954C121.522 35.6656 121.222 34.6166 121.222 33.3503C121.222 31.8376 121.615 30.6531 122.404 29.7969C123.191 28.9406 124.187 28.5121 125.392 28.5121C126.745 28.5121 127.814 28.96 128.595 29.8567C129.377 30.7543 129.752 32.1271 129.716 33.9778H123.688C123.705 34.6941 123.9 35.2511 124.271 35.6498C124.641 36.0475 125.104 36.2464 125.658 36.2464C126.034 36.2464 126.352 36.1434 126.609 35.9375C126.866 35.7307 127.059 35.399 127.191 34.9405V34.9405Z"
    fill="white"
  />
<path
    fill-rule="evenodd"
    clip-rule="evenodd"
    d="M137.082 32.4997C137.064 31.801 136.884 31.2695 136.542 30.9052C136.2 30.5417 135.783 30.3596 135.292 30.3596C134.767 30.3596 134.333 30.5523 133.991 30.936C133.648 31.3197 133.479 31.8406 133.485 32.4997H137.082ZM136.945 34.94L139.342 35.3439C139.035 36.2265 138.548 36.8989 137.882 37.3591C137.217 37.8202 136.385 38.0517 135.386 38.0517C133.805 38.0517 132.635 37.5325 131.875 36.4958C131.276 35.6651 130.976 34.617 130.976 33.3507C130.976 31.838 131.369 30.6535 132.158 29.7973C132.945 28.941 133.941 28.5125 135.146 28.5125C136.499 28.5125 137.568 28.9604 138.349 29.8571C139.131 30.7538 139.506 32.1275 139.471 33.9781H133.442C133.459 34.6945 133.654 35.2506 134.025 35.6493C134.396 36.0479 134.858 36.2468 135.412 36.2468C135.788 36.2468 136.106 36.1438 136.363 35.937C136.62 35.7311 136.813 35.3985 136.945 34.94V34.94Z"
    fill="white"
  />
<path
    fill-rule="evenodd"
    clip-rule="evenodd"
    d="M149.353 37.845H146.947V33.1872C146.947 32.2016 146.895 31.5645 146.793 31.275C146.69 30.9863 146.523 30.761 146.292 30.6009C146.061 30.4398 145.783 30.3598 145.457 30.3598C145.04 30.3598 144.666 30.475 144.335 30.7038C144.003 30.9326 143.777 31.2362 143.654 31.6146C143.532 31.993 143.47 32.6918 143.47 33.7117V37.845H141.064V28.7186H143.299V30.0588C144.093 29.0274 145.092 28.5126 146.296 28.5126C146.827 28.5126 147.313 28.6077 147.752 28.8004C148.191 28.9922 148.525 29.2369 148.75 29.5352C148.975 29.8326 149.132 30.1706 149.221 30.549C149.309 30.9274 149.353 31.4686 149.353 32.1734V37.845Z"
    fill="white"
  />
<path
    fill-rule="evenodd"
    clip-rule="evenodd"
    d="M159.628 37.845H157.222V33.1872C157.222 32.2016 157.17 31.5645 157.068 31.275C156.965 30.9863 156.797 30.761 156.567 30.6009C156.335 30.4398 156.057 30.3598 155.732 30.3598C155.315 30.3598 154.941 30.475 154.61 30.7038C154.278 30.9326 154.052 31.2362 153.929 31.6146C153.806 31.993 153.745 32.6918 153.745 33.7117V37.845H151.339V28.7186H153.574V30.0588C154.368 29.0274 155.366 28.5126 156.571 28.5126C157.102 28.5126 157.588 28.6077 158.027 28.8004C158.466 28.9922 158.799 29.2369 159.025 29.5352C159.249 29.8326 159.407 30.1706 159.496 30.549C159.583 30.9274 159.628 31.4686 159.628 32.1734V37.845Z"
    fill="white"
  />
<path
    fill-rule="evenodd"
    clip-rule="evenodd"
    d="M167.298 32.4997C167.28 31.801 167.1 31.2695 166.758 30.9052C166.416 30.5417 165.999 30.3596 165.508 30.3596C164.983 30.3596 164.549 30.5523 164.207 30.936C163.864 31.3197 163.695 31.8406 163.701 32.4997H167.298ZM167.161 34.94L169.558 35.3439C169.251 36.2265 168.764 36.8989 168.098 37.3591C167.433 37.8202 166.602 38.0517 165.602 38.0517C164.021 38.0517 162.851 37.5325 162.091 36.4958C161.492 35.6651 161.192 34.617 161.192 33.3507C161.192 31.838 161.586 30.6535 162.374 29.7973C163.161 28.941 164.158 28.5125 165.362 28.5125C166.716 28.5125 167.784 28.9604 168.565 29.8571C169.347 30.7538 169.722 32.1275 169.687 33.9781H163.659C163.675 34.6945 163.87 35.2506 164.241 35.6493C164.612 36.0479 165.074 36.2468 165.628 36.2468C166.004 36.2468 166.322 36.1438 166.579 35.937C166.836 35.7311 167.029 35.3985 167.161 34.94V34.94Z"
    fill="white"
  />
<path
    fill-rule="evenodd"
    clip-rule="evenodd"
    d="M74.5479 6.16846H77.083V12.992C77.083 14.0744 77.1146 14.7766 77.1769 15.0969C77.2856 15.6126 77.5434 16.0271 77.9521 16.3395C78.3607 16.6519 78.9176 16.8077 79.6261 16.8077C80.3452 16.8077 80.8871 16.6598 81.2528 16.365C81.6185 16.0693 81.8377 15.7077 81.9123 15.2782C81.9868 14.8479 82.0236 14.1351 82.0236 13.1381V6.16846H84.5588V12.7861C84.5588 14.2979 84.4904 15.3671 84.3536 15.991C84.2159 16.6158 83.9634 17.1429 83.5951 17.5724C83.2268 18.0018 82.7348 18.3441 82.1183 18.5993C81.5019 18.8545 80.6968 18.9821 79.7033 18.9821C78.5045 18.9821 77.5952 18.8431 76.9761 18.565C76.3569 18.2869 75.8667 17.9261 75.5072 17.4817C75.1477 17.0382 74.91 16.5727 74.796 16.0861C74.6312 15.3636 74.5479 14.2979 74.5479 12.889V6.16846Z"
    fill="white"
  />
<path
    fill-rule="evenodd"
    clip-rule="evenodd"
    d="M94.9602 18.7669H92.5539V14.1091C92.5539 13.1235 92.5022 12.4863 92.3996 12.1968C92.297 11.9082 92.1295 11.6829 91.8989 11.5227C91.6674 11.3617 91.3894 11.2816 91.064 11.2816C90.6466 11.2816 90.2731 11.396 89.9416 11.6257C89.6101 11.8545 89.3839 12.1581 89.2611 12.5365C89.1383 12.9149 89.0769 13.6136 89.0769 14.6335V18.7669H86.6707V9.64043H88.9059V10.9807C89.6995 9.94931 90.6984 9.43451 91.9033 9.43451C92.4338 9.43451 92.9196 9.52955 93.3589 9.72227C93.7983 9.91411 94.1315 10.1587 94.3569 10.4571C94.5814 10.7545 94.7392 11.0924 94.8278 11.4708C94.9155 11.8492 94.9602 12.3904 94.9602 13.0953V18.7669Z"
    fill="white"
  />
<path
    fill-rule="evenodd"
    clip-rule="evenodd"
    d="M96.9623 18.7669H99.3686V9.64042H96.9623V18.7669ZM96.9623 8.40314H99.3686V6.16882H96.9623V8.40314Z"
    fill="white"
  />
<path
    fill-rule="evenodd"
    clip-rule="evenodd"
    d="M103.307 14.2036C103.307 15.1091 103.52 15.8016 103.948 16.283C104.377 16.7644 104.905 17.0055 105.533 17.0055C106.161 17.0055 106.687 16.7644 107.113 16.283C107.539 15.8016 107.751 15.1029 107.751 14.186C107.751 13.2928 107.539 12.6055 107.113 12.1241C106.687 11.6428 106.161 11.4016 105.533 11.4016C104.905 11.4016 104.377 11.6428 103.948 12.1241C103.52 12.6055 103.307 13.298 103.307 14.2036M100.84 14.0751C100.84 13.2725 101.037 12.4964 101.431 11.7457C101.825 10.9951 102.383 10.4222 103.106 10.0271C103.827 9.63196 104.634 9.43396 105.524 9.43396C106.901 9.43396 108.028 9.88188 108.907 10.7786C109.787 11.6753 110.226 12.8088 110.226 14.178C110.226 15.5588 109.783 16.7028 108.894 17.6109C108.006 18.5191 106.889 18.9732 105.542 18.9732C104.709 18.9732 103.912 18.784 103.157 18.4056C102.401 18.028 101.825 17.4736 101.431 16.7432C101.037 16.0128 100.84 15.1232 100.84 14.0751"
    fill="white"
  />
<path
    fill-rule="evenodd"
    clip-rule="evenodd"
    d="M119.944 18.7669H117.538V14.1091C117.538 13.1235 117.486 12.4863 117.383 12.1968C117.281 11.9082 117.113 11.6829 116.883 11.5227C116.651 11.3617 116.373 11.2816 116.048 11.2816C115.63 11.2816 115.257 11.396 114.925 11.6257C114.594 11.8545 114.368 12.1581 114.245 12.5365C114.122 12.9149 114.061 13.6136 114.061 14.6335V18.7669H111.654V9.64043H113.89V10.9807C114.683 9.94931 115.682 9.43451 116.887 9.43451C117.418 9.43451 117.903 9.52955 118.343 9.72227C118.782 9.91411 119.115 10.1587 119.341 10.4571C119.565 10.7545 119.723 11.0924 119.812 11.4708C119.899 11.8492 119.944 12.3904 119.944 13.0953V18.7669Z"
    fill="white"
  />
</svg>
