<svg
  width="211"
  height="44"
  viewBox="0 0 211 44"
  fill="none"
  xmlns="http://www.w3.org/2000/svg"
>
<rect x="0.878418" y="0.880005" width="63.2432" height="42.24" fill="#003399" />
<path
    fill-rule="evenodd"
    clip-rule="evenodd"
    d="M30.3392 7.74403L31.6743 8.72083L31.1649 10.3136L32.5 9.32803L33.8352 10.3136L33.3257 8.72083L34.6608 7.74403H33.0095L32.5 6.16003L31.9906 7.74403H30.3392ZM33.8352 37.84L33.3257 36.256L34.6608 35.2792H33.0095L32.5 33.6864L31.9906 35.2792H30.3392L31.6743 36.256L31.1649 37.84L32.5 36.8632L33.8352 37.84ZM18.85 23.056L17.5149 24.0416L18.0243 22.4576L16.6892 21.5072H18.3406L18.85 19.9232L19.3595 21.5072H21.0196L19.6757 22.4928L20.1852 24.0768L18.85 23.0912V23.056ZM27.0102 12.144L26.5007 10.56L27.8358 9.59203H26.1845L25.675 8.00803L25.1656 9.59203H23.5142L24.8493 10.5688L24.3399 12.1528L25.675 11.176L27.0102 12.144ZM20.2027 14.6256L20.7122 13.0416L21.2304 14.6256H22.8379L21.5027 15.6112L22.0122 17.1952L20.6683 16.2096L19.3243 17.1952L19.8338 15.6112L18.4987 14.6256H20.2027ZM20.7122 26.8048L20.2027 28.3888H18.5162H18.4987L19.8338 29.3744L19.3243 30.9584L20.6683 29.9816L22.0122 30.9584L21.5027 29.3744L22.8379 28.3888H21.2304L20.7122 26.8048ZM24.8493 34.408L23.5142 33.44H25.1656L25.675 31.856L26.1845 33.44H27.8358L26.5007 34.408L27.0102 35.992L25.675 35.0152L24.3399 35.992L24.8493 34.408ZM47.4852 24.0768L46.9757 22.4928L48.3108 21.5072H46.6946L46.1852 19.9232L45.6757 21.5072H43.9629L45.3068 22.4928L44.7973 24.0768L46.15 23.0912L47.4852 24.0768ZM38.4993 10.56L37.1642 9.59203H38.8156L39.325 8.00803L39.8345 9.59203H41.4858L40.1507 10.56L40.6602 12.144L39.325 11.176L37.9899 12.1528L38.4993 10.5688V10.56ZM44.2879 13.0328L43.7696 14.6168L42.1622 14.6256L43.4885 15.6112L42.9791 17.1952L44.323 16.2096L45.6581 17.1952L45.1487 15.6112L46.4487 14.6168H44.7973L44.2879 13.0328ZM44.8412 28.3888H46.4487L45.1487 29.3744L45.6581 30.9584L44.323 29.9816L42.9791 30.9584L43.4885 29.3744L42.1622 28.3888H43.8135L44.3318 26.8048L44.8412 28.3888ZM40.1507 34.408L41.4858 33.44H39.8345L39.325 31.856L38.8156 33.44H37.1642L38.4993 34.408L37.9899 35.992L39.325 35.0152L40.6602 35.992L40.1507 34.408Z"
    fill="#FFCC00"
  />
<path
    fill-rule="evenodd"
    clip-rule="evenodd"
    d="M65 44H0V0H65V44ZM64.1216 0.88H0.878378V43.12H64.1216V0.88Z"
    fill="white"
  />
<path
    fill-rule="evenodd"
    clip-rule="evenodd"
    d="M77.8352 37.8449V25.2468H87.1437V27.3773H80.3616V30.1704H86.6728V32.293H80.3616V35.7223H87.384V37.8449H77.8352ZM72.7052 27.4811L74.0758 25.2468H77.2696L74.4529 27.4811H72.7052Z"
    fill="white"
  />
<path
    fill-rule="evenodd"
    clip-rule="evenodd"
    d="M92.0167 37.8449L88.3512 28.7184H90.8776L92.5902 33.3762L93.0875 34.9312C93.2181 34.5361 93.3014 34.2756 93.3356 34.1497C93.4154 33.8919 93.5005 33.6341 93.5926 33.3762L95.3227 28.7184H97.7974L94.1836 37.8449H92.0167Z"
    fill="white"
  />
<path
    fill-rule="evenodd"
    clip-rule="evenodd"
    d="M99.9724 28.7184H102.267C101.52 30.2821 101.146 31.8864 101.146 33.5311C101.146 34.4709 101.312 35.1406 101.646 35.5419C101.981 35.9423 102.376 36.1438 102.833 36.1438C103.147 36.1438 103.422 36.0461 103.659 35.8508C103.897 35.6563 104.048 35.4161 104.118 35.1292C104.186 34.8423 104.22 34.4041 104.22 33.8145V31.0469H106.627V33.8145C106.627 34.3821 106.659 34.8141 106.725 35.1125C106.79 35.4099 106.945 35.6563 107.188 35.8508C107.43 36.0461 107.705 36.1438 108.014 36.1438C108.493 36.1438 108.894 35.9344 109.217 35.5164C109.54 35.0984 109.701 34.4041 109.701 33.4361C109.701 32.7831 109.604 32.0184 109.41 31.1419C109.215 30.2654 108.939 29.4576 108.579 28.7184H110.874C111.194 29.2508 111.489 29.9803 111.76 30.9052C112.032 31.8309 112.167 32.6801 112.167 33.4537C112.167 34.7939 111.814 35.8957 111.105 36.7581C110.397 37.6205 109.467 38.0508 108.314 38.0508C106.933 38.0508 105.97 37.4119 105.428 36.135C104.88 37.4119 103.914 38.0508 102.533 38.0508C101.375 38.0508 100.442 37.6187 99.7365 36.7537C99.0324 35.8886 98.679 34.7886 98.679 33.4537C98.679 32.6801 98.8149 31.8309 99.0858 30.9052C99.3577 29.9803 99.6532 29.2508 99.9724 28.7184"
    fill="white"
  />
<path
    fill-rule="evenodd"
    clip-rule="evenodd"
    d="M115.961 33.2817C115.961 34.1529 116.169 34.8375 116.586 35.3356C117.003 35.8337 117.537 36.0836 118.187 36.0836C118.815 36.0836 119.341 35.8425 119.768 35.3611C120.193 34.8798 120.405 34.1722 120.405 33.2386C120.405 32.414 120.202 31.7478 119.797 31.241C119.392 30.7332 118.856 30.4798 118.187 30.4798C117.53 30.4798 116.996 30.7297 116.582 31.2278C116.168 31.7258 115.961 32.4105 115.961 33.2817V33.2817ZM124.413 28.718V30.7209H122.212C122.658 31.483 122.881 32.3251 122.881 33.2474C122.881 34.5762 122.447 35.7096 121.583 36.6459C120.718 37.5831 119.575 38.0513 118.153 38.0513C116.766 38.0513 115.642 37.6157 114.783 36.7454C113.925 35.8742 113.494 34.7337 113.494 33.3248C113.494 31.9265 113.916 30.7754 114.758 29.8699C115.6 28.9644 116.754 28.5121 118.222 28.5121C118.649 28.5121 119.144 28.5807 119.704 28.718H124.413Z"
    fill="white"
  />
<path
    fill-rule="evenodd"
    clip-rule="evenodd"
    d="M134.33 41.3167H131.924V33.1873C131.924 32.3733 131.891 31.8022 131.825 31.4722C131.759 31.143 131.605 30.8755 131.362 30.6687C131.12 30.4628 130.81 30.3598 130.434 30.3598C129.982 30.3598 129.588 30.4883 129.252 30.7462C128.915 31.004 128.697 31.3349 128.597 31.7388C128.497 32.1427 128.447 32.8001 128.447 33.7109V37.8451H126.04V28.7186H128.276V30.0589C129.069 29.0275 130.072 28.5118 131.281 28.5118C131.983 28.5118 132.577 28.6641 133.063 28.9677C133.548 29.2713 133.88 29.6576 134.06 30.1275C134.24 30.5974 134.33 31.2794 134.33 32.1726V41.3167Z"
    fill="white"
  />
<path
    fill-rule="evenodd"
    clip-rule="evenodd"
    d="M74.5648 18.7668V6.1687H83.8734V8.29918H77.1V11.0923H83.4025V13.2149H77.1V16.6442H84.1136V18.7668H74.5648Z"
    fill="white"
  />
<path
    fill-rule="evenodd"
    clip-rule="evenodd"
    d="M85.5588 9.64026H87.9651V14.3148C87.9651 15.4324 88.1221 16.1602 88.436 16.4981C88.7508 16.836 89.156 17.005 89.6523 17.005C90.2285 17.005 90.6546 16.8087 90.9282 16.4163C91.2027 16.0238 91.3395 15.3233 91.3395 14.3148V9.64026H93.7458V13.9285C93.7458 15.1543 93.6116 16.1074 93.3433 16.7859C93.0749 17.4652 92.6181 17.9994 91.9727 18.3883C91.3281 18.7782 90.5661 18.9727 89.6865 18.9727C88.7386 18.9727 87.9414 18.7703 87.2934 18.3628C86.6445 17.9563 86.1946 17.4142 85.9403 16.7383C85.686 16.0625 85.5588 15.1262 85.5588 13.9285V9.64026Z"
    fill="white"
  />
<path
    fill-rule="evenodd"
    clip-rule="evenodd"
    d="M97.9977 14.4786C97.9977 15.2345 98.1889 15.8452 98.5712 16.309C98.9544 16.7728 99.4736 17.0051 100.13 17.0051C100.775 17.0051 101.298 16.7464 101.697 16.2272C102.097 15.7088 102.296 15.0286 102.296 14.1864C102.296 13.3267 102.112 12.6482 101.744 12.1501C101.376 11.6512 100.847 11.4021 100.156 11.4021C99.556 11.4021 99.0465 11.6265 98.6273 12.0771C98.2073 12.5268 97.9977 13.3267 97.9977 14.4786M97.9977 18.208V22.2384H95.5914V15.0541C95.5914 13.7596 95.7238 12.7327 95.9896 11.9732C96.2553 11.2147 96.7367 10.6013 97.4321 10.134C98.1284 9.66765 98.9711 9.43445 99.9585 9.43445C101.426 9.43445 102.594 9.90965 103.461 10.8609C104.329 11.8113 104.763 12.9544 104.763 14.2894C104.763 15.5962 104.345 16.7032 103.508 17.6114C102.672 18.5187 101.646 18.9728 100.429 18.9728C99.6244 18.9728 98.8141 18.7184 97.9977 18.208"
    fill="white"
  />
<path
    fill-rule="evenodd"
    clip-rule="evenodd"
    d="M107.568 9.64026H109.863C109.115 11.204 108.741 12.8083 108.741 14.453C108.741 15.3928 108.908 16.0625 109.242 16.4638C109.576 16.8642 109.971 17.0657 110.428 17.0657C110.742 17.0657 111.017 16.968 111.254 16.7727C111.492 16.5782 111.644 16.3379 111.713 16.0511C111.781 15.7642 111.815 15.3259 111.815 14.7363V11.9687H114.222V14.7363C114.222 15.3039 114.254 15.736 114.32 16.0343C114.386 16.3318 114.54 16.5782 114.783 16.7727C115.025 16.968 115.3 17.0657 115.609 17.0657C116.089 17.0657 116.489 16.8563 116.812 16.4383C117.135 16.0203 117.296 15.3259 117.296 14.3579C117.296 13.705 117.199 12.9403 117.005 12.0638C116.81 11.1873 116.534 10.3795 116.174 9.64026H118.47C118.789 10.1727 119.084 10.9022 119.355 11.8271C119.627 12.7528 119.762 13.602 119.762 14.3755C119.762 15.7158 119.409 16.8175 118.7 17.6799C117.992 18.5423 117.062 18.9727 115.909 18.9727C114.528 18.9727 113.565 18.3338 113.023 17.0569C112.475 18.3338 111.509 18.9727 110.128 18.9727C108.97 18.9727 108.037 18.5406 107.332 17.6755C106.628 16.8105 106.274 15.7105 106.274 14.3755C106.274 13.602 106.41 12.7528 106.681 11.8271C106.953 10.9022 107.248 10.1727 107.568 9.64026"
    fill="white"
  />
<path
    fill-rule="evenodd"
    clip-rule="evenodd"
    d="M121.008 9.64026H133.605V11.6423H131.19V18.7667H128.784V11.6423H125.83V18.7667H123.423V11.6423H121.008V9.64026Z"
    fill="white"
  />
<path
    fill-rule="evenodd"
    clip-rule="evenodd"
    d="M137.335 14.2293C137.335 15.0715 137.513 15.7544 137.87 16.2788C138.228 16.8033 138.691 17.0656 139.262 17.0656C139.81 17.0656 140.258 16.8332 140.606 16.3695C140.955 15.9048 141.129 15.192 141.129 14.2293C141.129 13.2842 140.943 12.5679 140.572 12.0812C140.202 11.5937 139.753 11.3508 139.227 11.3508C138.679 11.3508 138.228 11.6025 137.87 12.1068C137.513 12.611 137.335 13.3185 137.335 14.2293M142.345 9.64012H144.408C144.083 10.3054 143.811 11.1537 143.591 12.1886C143.371 13.2226 143.261 13.946 143.261 14.3578C143.261 14.8911 143.361 15.5872 143.561 16.4469C143.76 17.3058 144.012 18.0793 144.315 18.7666H142.293C142.265 18.6522 142.213 18.492 142.14 18.2852C142.02 17.942 141.917 17.598 141.831 17.2548C141.129 18.4005 140.127 18.9734 138.825 18.9734C137.598 18.9734 136.631 18.4736 135.927 17.4739C135.222 16.4733 134.868 15.3064 134.868 13.9715C134.868 12.7113 135.22 11.6395 135.922 10.7577C136.624 9.87508 137.601 9.4342 138.851 9.4342C140.084 9.4342 141.08 10.0273 141.84 11.2127C141.942 10.7947 142.111 10.2702 142.345 9.64012"
    fill="white"
  />
<path
    fill-rule="evenodd"
    clip-rule="evenodd"
    d="M148.428 8.02477H150.5V5.95325H148.428V8.02477ZM146.416 18.7669H148.823V9.64045H146.416V18.7669ZM144.746 8.02477H146.81V5.95325H144.746V8.02477Z"
    fill="white"
  />
<path
    fill-rule="evenodd"
    clip-rule="evenodd"
    d="M151.422 9.64026H153.828V12.803L156.637 9.64026H159.574L155.917 13.5079L159.857 18.7667H157.039L154.376 15.1227L153.828 15.7079V18.7667H151.422V9.64026Z"
    fill="white"
  />
<path
    fill-rule="evenodd"
    clip-rule="evenodd"
    d="M164.203 8.52309L165.385 5.95349H168.082L165.727 8.52309H164.203ZM169.666 22.2388H167.26V14.1093C167.26 13.2953 167.227 12.7242 167.162 12.3942C167.096 12.0651 166.941 11.7976 166.699 11.5908C166.456 11.3849 166.147 11.2819 165.77 11.2819C165.318 11.2819 164.924 11.4104 164.588 11.6682C164.252 11.9261 164.034 12.2569 163.933 12.6609C163.833 13.0648 163.783 13.7221 163.783 14.6329V18.7672H161.376V9.64069H163.612V10.9809C164.405 9.94957 165.408 9.43389 166.618 9.43389C167.32 9.43389 167.913 9.58613 168.399 9.88973C168.885 10.1933 169.217 10.5797 169.397 11.0496C169.577 11.5195 169.666 12.2015 169.666 13.0947V22.2388Z"
    fill="white"
  />
</svg>
