<svg
  width="211"
  height="44"
  viewBox="0 0 211 44"
  fill="none"
  xmlns="http://www.w3.org/2000/svg"
>
<rect x="0.878418" y="0.880005" width="63.2432" height="42.24" fill="#003399" />
<path
    fill-rule="evenodd"
    clip-rule="evenodd"
    d="M30.3392 7.744L31.6743 8.7208L31.1649 10.3136L32.5 9.328L33.8352 10.3136L33.3257 8.7208L34.6608 7.744H33.0095L32.5 6.16L31.9906 7.744H30.3392ZM33.8352 37.84L33.3257 36.256L34.6608 35.2792H33.0095L32.5 33.6864L31.9906 35.2792H30.3392L31.6743 36.256L31.1649 37.84L32.5 36.8632L33.8352 37.84ZM18.85 23.056L17.5149 24.0416L18.0243 22.4576L16.6892 21.5072H18.3406L18.85 19.9232L19.3595 21.5072H21.0196L19.6757 22.4928L20.1852 24.0768L18.85 23.0912V23.056ZM27.0102 12.144L26.5007 10.56L27.8358 9.592H26.1845L25.675 8.008L25.1656 9.592H23.5142L24.8493 10.5688L24.3399 12.1528L25.675 11.176L27.0102 12.144ZM20.2027 14.6256L20.7122 13.0416L21.2304 14.6256H22.8379L21.5027 15.6112L22.0122 17.1952L20.6683 16.2096L19.3243 17.1952L19.8338 15.6112L18.4987 14.6256H20.2027ZM20.7122 26.8048L20.2027 28.3888H18.5162H18.4987L19.8338 29.3744L19.3243 30.9584L20.6683 29.9816L22.0122 30.9584L21.5027 29.3744L22.8379 28.3888H21.2304L20.7122 26.8048ZM24.8493 34.408L23.5142 33.44H25.1656L25.675 31.856L26.1845 33.44H27.8358L26.5007 34.408L27.0102 35.992L25.675 35.0152L24.3399 35.992L24.8493 34.408ZM47.4852 24.0768L46.9757 22.4928L48.3108 21.5072H46.6946L46.1852 19.9232L45.6757 21.5072H43.9629L45.3068 22.4928L44.7973 24.0768L46.15 23.0912L47.4852 24.0768ZM38.4993 10.56L37.1642 9.592H38.8156L39.325 8.008L39.8345 9.592H41.4858L40.1507 10.56L40.6602 12.144L39.325 11.176L37.9899 12.1528L38.4993 10.5688V10.56ZM44.2879 13.0328L43.7696 14.6168L42.1622 14.6256L43.4885 15.6112L42.9791 17.1952L44.323 16.2096L45.6581 17.1952L45.1487 15.6112L46.4487 14.6168H44.7973L44.2879 13.0328ZM44.8412 28.3888H46.4487L45.1487 29.3744L45.6581 30.9584L44.323 29.9816L42.9791 30.9584L43.4885 29.3744L42.1622 28.3888H43.8135L44.3318 26.8048L44.8412 28.3888ZM40.1507 34.408L41.4858 33.44H39.8345L39.325 31.856L38.8156 33.44H37.1642L38.4993 34.408L37.9899 35.992L39.325 35.0152L40.6602 35.992L40.1507 34.408Z"
    fill="#FFCC00"
  />
<path
    fill-rule="evenodd"
    clip-rule="evenodd"
    d="M65 44H0V0H65V44ZM64.1216 0.88H0.878378V43.12H64.1216V0.88Z"
    fill="white"
  />
<path
    fill-rule="evenodd"
    clip-rule="evenodd"
    d="M80.6967 37.8452V36.4786C80.3646 36.9652 79.9288 37.3498 79.3885 37.6305C78.8481 37.9112 78.277 38.0511 77.676 38.0511C77.0645 38.0511 76.5154 37.9174 76.0295 37.6472C75.5428 37.3779 75.1904 37.0004 74.9734 36.5129C74.7564 36.0262 74.6475 35.353 74.6475 34.4933V28.7187H77.0584V32.9128C77.0584 34.1958 77.1032 34.9826 77.1919 35.2712C77.2798 35.5607 77.4423 35.7904 77.676 35.9585C77.9106 36.1274 78.2085 36.2128 78.5687 36.2128C78.9808 36.2128 79.3498 36.0993 79.6758 35.8731C80.0017 35.6461 80.2249 35.3662 80.3453 35.031C80.4648 34.6957 80.5254 33.8746 80.5254 32.5687V28.7187H82.9363V37.8452H80.6967Z"
    fill="white"
  />
<path
    fill-rule="evenodd"
    clip-rule="evenodd"
    d="M93.458 37.8452H91.0471V33.1874C91.0471 32.2018 90.9952 31.5646 90.8924 31.2751C90.7896 30.9865 90.6218 30.7612 90.3908 30.601C90.1588 30.44 89.8803 30.3599 89.5543 30.3599C89.1361 30.3599 88.7618 30.4752 88.4297 30.704C88.0976 30.9328 87.8709 31.2364 87.7479 31.6148C87.6249 31.9932 87.5634 32.6919 87.5634 33.7118V37.8452H85.1525V28.7187H87.392V30.059C88.1872 29.0276 89.1879 28.5128 90.3951 28.5128C90.9267 28.5128 91.4135 28.6078 91.8536 28.8006C92.2938 28.9924 92.6277 29.237 92.8535 29.5354C93.0784 29.8328 93.2366 30.1707 93.3253 30.5491C93.4132 30.9275 93.458 31.4687 93.458 32.1736V37.8452Z"
    fill="white"
  />
<path
    fill-rule="evenodd"
    clip-rule="evenodd"
    d="M95.7275 37.8453H98.1385V28.7188H95.7275V37.8453ZM95.7275 27.4806H98.1385V25.2463H95.7275V27.4806Z"
    fill="white"
  />
<path
    fill-rule="evenodd"
    clip-rule="evenodd"
    d="M100.558 27.4806H102.969V25.2463H100.558V27.4806ZM102.969 28.7188V37.5619C102.969 38.7244 102.893 39.5454 102.741 40.0233C102.59 40.502 102.299 40.876 101.866 41.1453C101.435 41.4146 100.884 41.5492 100.215 41.5492C99.9746 41.5492 99.7155 41.5272 99.4387 41.485C99.161 41.4418 98.8614 41.3776 98.5416 41.2914L98.9625 39.2286C99.0767 39.2515 99.1839 39.2709 99.2841 39.285C99.3842 39.299 99.4773 39.3061 99.5626 39.3061C99.8086 39.3061 100.011 39.2533 100.168 39.1468C100.324 39.0412 100.43 38.9136 100.481 38.7649C100.533 38.6153 100.558 38.1691 100.558 37.4238V28.7188H102.969Z"
    fill="white"
  />
<path
    fill-rule="evenodd"
    clip-rule="evenodd"
    d="M110.52 33.4624C110.21 33.5653 109.722 33.6885 109.052 33.832C108.383 33.9754 107.945 34.1153 107.74 34.2526C107.425 34.4761 107.268 34.7604 107.268 35.1036C107.268 35.4424 107.394 35.7345 107.646 35.98C107.897 36.2264 108.218 36.3496 108.606 36.3496C109.041 36.3496 109.456 36.2071 109.85 35.9202C110.142 35.702 110.333 35.4362 110.426 35.1212C110.488 34.9144 110.52 34.5228 110.52 33.9437V33.4624ZM107.293 31.5026L105.106 31.1075C105.352 30.2257 105.775 29.5728 106.375 29.1486C106.976 28.7244 107.868 28.5124 109.052 28.5124C110.128 28.5124 110.929 28.64 111.455 28.8952C111.981 29.1495 112.352 29.4733 112.566 29.8658C112.78 30.2583 112.888 30.979 112.888 32.0271L112.862 34.8457C112.862 35.6483 112.901 36.2396 112.978 36.6207C113.055 37.0017 113.199 37.41 113.411 37.8448H111.026C110.963 37.6846 110.886 37.447 110.794 37.132C110.754 36.9885 110.725 36.8944 110.709 36.8486C110.297 37.249 109.856 37.55 109.387 37.7506C108.918 37.9512 108.417 38.0516 107.886 38.0516C106.948 38.0516 106.208 37.7964 105.668 37.2868C105.127 36.7764 104.857 36.1323 104.857 35.3526C104.857 34.8369 104.979 34.3776 105.226 33.9736C105.472 33.5697 105.816 33.2608 106.259 33.0452C106.703 32.8305 107.343 32.6431 108.177 32.4829C109.304 32.2708 110.085 32.0728 110.52 31.8898V31.6487C110.52 31.1849 110.405 30.854 110.176 30.6569C109.948 30.4589 109.515 30.3604 108.881 30.3604C108.451 30.3604 108.118 30.4448 107.877 30.6138C107.637 30.7828 107.442 31.0793 107.293 31.5026V31.5026Z"
    fill="white"
  />
<path
    fill-rule="evenodd"
    clip-rule="evenodd"
    d="M74.7085 18.7666V6.16853H84.035V8.29901H77.2486V11.0921H83.5632V13.2147H77.2486V16.6441H84.2757V18.7666H74.7085Z"
    fill="white"
  />
<path
    fill-rule="evenodd"
    clip-rule="evenodd"
    d="M88.671 18.7666L84.9984 9.64014H87.5297L89.2456 14.298L89.7438 15.8529C89.8747 15.4578 89.9582 15.1973 89.9924 15.0715C90.0724 14.8137 90.1576 14.5558 90.2499 14.298L91.9834 9.64014H94.4628L90.8421 18.7666H88.671Z"
    fill="white"
  />
<path
    fill-rule="evenodd"
    clip-rule="evenodd"
    d="M98.4225 18.7666H96.0116V9.64014H98.2512V10.9381C98.6343 10.3248 98.9787 9.92086 99.2844 9.72638C99.5911 9.53102 99.939 9.43422 100.327 9.43422C100.876 9.43422 101.406 9.58558 101.915 9.88918L101.168 11.995C100.762 11.731 100.384 11.599 100.036 11.599C99.6983 11.599 99.4118 11.6923 99.1772 11.8789C98.9435 12.0645 98.759 12.4016 98.6237 12.8882C98.4893 13.3757 98.4225 14.3957 98.4225 15.948V18.7666Z"
    fill="white"
  />
<path
    fill-rule="evenodd"
    clip-rule="evenodd"
    d="M104.603 14.2034C104.603 15.1089 104.817 15.8015 105.246 16.2828C105.676 16.7642 106.205 17.0053 106.834 17.0053C107.463 17.0053 107.99 16.7642 108.417 16.2828C108.843 15.8015 109.056 15.1027 109.056 14.1858C109.056 13.2926 108.843 12.6053 108.417 12.1239C107.99 11.6426 107.463 11.4015 106.834 11.4015C106.205 11.4015 105.676 11.6426 105.246 12.1239C104.817 12.6053 104.603 13.2979 104.603 14.2034M102.131 14.0749C102.131 13.2723 102.329 12.4962 102.724 11.7455C103.119 10.9949 103.678 10.422 104.402 10.0269C105.125 9.63178 105.933 9.43378 106.825 9.43378C108.204 9.43378 109.333 9.8817 110.215 10.7784C111.096 11.6751 111.536 12.8086 111.536 14.1779C111.536 15.5586 111.091 16.7026 110.201 17.6107C109.311 18.5189 108.192 18.973 106.842 18.973C106.008 18.973 105.21 18.7838 104.453 18.4054C103.695 18.0279 103.119 17.4735 102.724 16.7431C102.329 16.0127 102.131 15.123 102.131 14.0749"
    fill="white"
  />
<path
    fill-rule="evenodd"
    clip-rule="evenodd"
    d="M115.441 14.0487C115.441 15.0747 115.644 15.8315 116.05 16.3217C116.456 16.8119 116.952 17.0565 117.535 17.0565C118.096 17.0565 118.562 16.8321 118.934 16.3815C119.305 15.9319 119.491 15.1944 119.491 14.1692C119.491 13.2118 119.3 12.5016 118.916 12.0379C118.533 11.5732 118.059 11.3418 117.492 11.3418C116.902 11.3418 116.413 11.5697 116.025 12.0247C115.636 12.4805 115.441 13.1546 115.441 14.0487V14.0487ZM113.056 9.63986H115.304V10.981C115.596 10.5225 115.99 10.1503 116.488 9.86338C116.986 9.5765 117.538 9.43394 118.144 9.43394C119.202 9.43394 120.101 9.8493 120.839 10.68C121.576 11.5107 121.945 12.6679 121.945 14.1516C121.945 15.6758 121.573 16.8603 120.83 17.7051C120.086 18.5507 119.185 18.9731 118.127 18.9731C117.623 18.9731 117.168 18.8728 116.758 18.6722C116.349 18.4715 115.919 18.1275 115.467 17.6408V22.2388H113.056V9.63986Z"
    fill="white"
  />
<path
    fill-rule="evenodd"
    clip-rule="evenodd"
    d="M122.833 16.1627L125.253 15.7931C125.356 16.263 125.564 16.6194 125.879 16.8632C126.194 17.1069 126.634 17.2284 127.201 17.2284C127.825 17.2284 128.293 17.114 128.607 16.8843C128.819 16.7241 128.926 16.5094 128.926 16.2401C128.926 16.0562 128.868 15.9049 128.753 15.7843C128.634 15.6699 128.365 15.5643 127.947 15.4666C126.002 15.0372 124.77 14.6447 124.249 14.2892C123.528 13.7964 123.168 13.1117 123.168 12.2353C123.168 11.445 123.479 10.7797 124.103 10.2412C124.727 9.7035 125.693 9.43422 127.003 9.43422C128.25 9.43422 129.177 9.63662 129.783 10.0441C130.39 10.4506 130.807 11.0525 131.036 11.8489L128.762 12.2696C128.665 11.9141 128.481 11.6421 128.209 11.4529C127.937 11.2646 127.55 11.1696 127.046 11.1696C126.411 11.1696 125.957 11.2585 125.682 11.4362C125.499 11.5621 125.408 11.7257 125.408 11.9264C125.408 12.098 125.488 12.2441 125.647 12.3646C125.864 12.5248 126.616 12.7509 127.9 13.0431C129.185 13.3353 130.081 13.6934 130.59 14.1176C131.093 14.547 131.345 15.1454 131.345 15.9137C131.345 16.7497 130.996 17.4686 130.298 18.0705C129.6 18.6725 128.567 18.9725 127.201 18.9725C125.959 18.9725 124.976 18.7209 124.253 18.2166C123.53 17.7124 123.056 17.0277 122.833 16.1627"
    fill="white"
  />
<path
    fill-rule="evenodd"
    clip-rule="evenodd"
    d="M133.018 18.7666V6.16853H135.429V12.8539L138.252 9.64013H141.221L138.106 12.9745L141.444 18.7666H138.844L136.553 14.6676L135.429 15.845V18.7666H133.018Z"
    fill="white"
  />
<path
    fill-rule="evenodd"
    clip-rule="evenodd"
    d="M147.904 14.3839C147.595 14.4868 147.107 14.61 146.437 14.7535C145.768 14.8969 145.33 15.0368 145.125 15.1741C144.81 15.3976 144.653 15.6819 144.653 16.0251C144.653 16.3639 144.778 16.656 145.031 16.9015C145.282 17.1479 145.603 17.2711 145.991 17.2711C146.426 17.2711 146.84 17.1286 147.235 16.8417C147.527 16.6235 147.718 16.3577 147.81 16.0427C147.873 15.8359 147.904 15.4443 147.904 14.8652V14.3839ZM144.678 12.4241L142.49 12.029C142.736 11.1472 143.16 10.4943 143.76 10.0701C144.361 9.64595 145.253 9.43387 146.437 9.43387C147.513 9.43387 148.314 9.56147 148.839 9.81667C149.366 10.071 149.736 10.3948 149.951 10.7873C150.165 11.1798 150.272 11.9005 150.272 12.9486L150.247 15.7672C150.247 16.5698 150.286 17.1611 150.363 17.5422C150.44 17.9232 150.584 18.3315 150.796 18.7663H148.411C148.348 18.6061 148.271 18.3685 148.179 18.0535C148.139 17.91 148.11 17.8159 148.093 17.7701C147.681 18.1705 147.241 18.4715 146.772 18.6721C146.303 18.8727 145.802 18.9731 145.27 18.9731C144.333 18.9731 143.593 18.7179 143.053 18.2083C142.512 17.6979 142.242 17.0538 142.242 16.2741C142.242 15.7584 142.364 15.2991 142.611 14.8951C142.857 14.4912 143.2 14.1823 143.644 13.9667C144.088 13.752 144.727 13.5646 145.562 13.4044C146.688 13.1923 147.47 12.9943 147.904 12.8113V12.5702C147.904 12.1064 147.79 11.7755 147.561 11.5784C147.333 11.3804 146.9 11.2819 146.266 11.2819C145.836 11.2819 145.502 11.3663 145.262 11.5353C145.022 11.7043 144.827 12.0008 144.678 12.4241V12.4241Z"
    fill="white"
  />
</svg>
