<svg width="24" height="24" xmlns="http://www.w3.org/2000/svg" xmlns:xlink="http://www.w3.org/1999/xlink"><defs><path d="M3.123 9.767v-.75C3.384 5.58 4.71 3.266 6.713 1.59c.283.287.63.552.848.926C5.668 4.17 4.21 6.77 4.428 10.186c.326 4.63 4.373 8.575 9.486 8.222 2.132-.132 3.59-.97 4.982-2.006a4.382 4.382 0 0 0-.958-.948c-1.936 1.807-5.678 2.072-8.18.75-2.285-1.19-4.243-3.792-4.004-7.341.24-3.726 2.916-6.414 6.18-7.032 3.894-.727 7.18 1.698 8.354 4.607 1.044 2.6.478 6.106-1.066 7.76.588.66 1.24 1.234 1.762 1.961-1.936 2.073-4.482 3.858-8.506 3.55-2.742-.2-4.939-1.477-6.484-3.087-1.61-1.697-2.698-3.902-2.828-6.811 0-.022 0-.044-.044-.044zm7.941-5.71c1.023.243.631 1.301.13 1.83-.74.771-3.154 1.257-1.392 2.204.13.727.61.573 1.306.64.826.065 1.936.352 2.219 1.123.283.75-.24 1.588-.566 2.248-.327.64-.479 1.39-.827 1.808-.196.22-.544.397-.783.33-.783-.198-.283-2.006-.544-3.042-.13-.595-.61-.904-.566-1.542.022-.265.24-.463.152-.684-.523-.352-1.24-.396-1.675-.837-.262-.243-.305-.595-.632-.793-.892 2.424.11 4.981 1.371 6.238 1.001 1.014 2.589 1.785 4.395 1.653 3.351-.22 5.918-3.152 5.287-7.053-.218.066-.5.022-.696.088.043.484.087.859.022 1.388-.87.552-.5 2.403-1.72 2.623-.63-.771 0-2.667-.652-3.262-.566-.485-1.87.066-1.827-.926.043-.882 1.697-1.058 1.936-1.742-.108-.132-.544.044-.61-.132.088-.859.74-1.168 1.611-1.256-1.066-1.257-4.09-1.896-5.94-.904h.001zm7.18 18.87h-9.9c.284-1.301 2.154-.993 3.678-1.037.021-.352-.065-.815.043-1.102h2.545v1.102c1.501.044 3.395-.286 3.634 1.036z" id="a"/></defs><use xlink:href="#a"/></svg>