<svg width="24" height="24" xmlns="http://www.w3.org/2000/svg" xmlns:xlink="http://www.w3.org/1999/xlink"><defs><path d="M20.8 18.958H3.2V5.042h17.6v13.916zM22.927 4.77C22.78 3.817 21.753 3 20.8 3H3.347C2.173 3 1.147 3.885 1 4.77v14.256C1 19.979 2.1 21 3.347 21H20.8c1.027 0 2.2-1.021 2.2-2.042V5.042l-.073-.272zM14.934 8.6c0-1.2.949-2 2.157-2 1.207 0 2.156.88 2.156 2s-.949 2-2.156 2c-1.208 0-2.157-.96-2.157-2zm4.4 8.8H4.666v-2.72l4.4-6.8 6.039 6.8 4.227-2.72v5.44z" id="a"/></defs><use xlink:href="#a"/></svg>