<svg id="Layer_1" xmlns="http://www.w3.org/2000/svg" viewBox="0 0 18 18"><style>.st0{fill:#fff}.st1{fill:#b3b4b5}</style><title>Rectangle 37</title><path class="st0" d="M2.8 17.1c-1 0-1.9-.9-1.9-1.9V2.8c0-1 .9-1.9 1.9-1.9h12.4c1 0 1.9.9 1.9 1.9v12.3c0 1-.9 1.9-1.9 1.9H2.8v.1z"/><path class="st1" d="M15.3 1.9c.6 0 .9.4.9.9v12.3c0 .6-.4.9-.9.9H2.8c-.6 0-.9-.4-.9-.9V2.8c0-.6.4-.9.9-.9h12.5m0-1.9H2.8C1.2 0 0 1.2 0 2.8v12.3C0 16.8 1.2 18 2.8 18h12.4c1.6 0 2.8-1.2 2.8-2.8V2.8c.1-1.6-1.1-2.8-2.7-2.8z"/></svg>