<svg id="Layer_1" xmlns="http://www.w3.org/2000/svg" xmlns:xlink="http://www.w3.org/1999/xlink" viewBox="0 0 20 20"><style>.st0{fill:#004494}.st1{fill:#fff}.st2{clip-path:url(#SVGID_2_)}.st3{clip-path:url(#SVGID_4_);fill:#004494}.st4{clip-path:url(#SVGID_6_);fill:none;stroke:#ffd617;stroke-width:3;stroke-miterlimit:10}.st5{clip-path:url(#SVGID_8_)}.st6,.st7{clip-path:url(#SVGID_10_);fill:none;stroke:#004494;stroke-miterlimit:10}.st7{clip-path:url(#SVGID_12_);stroke:#ffd617;stroke-width:3}</style><g id="Filter-and-Forms-"><g id="Desktop_Form" transform="translate(-76 -200)"><g id="Group-2-Copy" transform="translate(76 200)"><path id="Page-1" class="st0" d="M15.4 18.5H4.6c-1.7 0-3.1-1.4-3.1-3.1V4.6c0-1.7 1.4-3.1 3.1-3.1h10.8c1.7 0 3.1 1.4 3.1 3.1v10.8c0 1.7-1.4 3.1-3.1 3.1"/><path id="Page-1_1_" class="st1" d="M12.8 7.5L9.3 11 7.7 9.4l-1.2 1.2 2.8 2.8L14 8.7l-1.2-1.2z"/></g></g></g><defs><path id="SVGID_1_" d="M-540.6-984.5h-10.8c-1.7 0-3.1-1.4-3.1-3.1v-10.8c0-1.7 1.4-3.1 3.1-3.1h10.8c1.7 0 3.1 1.4 3.1 3.1v10.8c0 1.7-1.4 3.1-3.1 3.1"/></defs><clipPath id="SVGID_2_"><use xlink:href="#SVGID_1_" overflow="visible"/></clipPath><g class="st2"><defs><path id="SVGID_3_" d="M-685.5-1197.5h1400v2426h-1400z"/></defs><clipPath id="SVGID_4_"><use xlink:href="#SVGID_3_" overflow="visible"/></clipPath><path class="st3" d="M-559.5-1006.5h27v27h-27z"/></g><defs><path id="SVGID_5_" d="M-685.5-1197.5h1400v2426h-1400z"/></defs><clipPath id="SVGID_6_"><use xlink:href="#SVGID_5_" overflow="visible"/></clipPath><path class="st4" d="M-540.6-984.5h-10.8c-1.7 0-3.1-1.4-3.1-3.1v-10.8c0-1.7 1.4-3.1 3.1-3.1h10.8c1.7 0 3.1 1.4 3.1 3.1v10.8c0 1.7-1.4 3.1-3.1 3.1"/><defs><path id="SVGID_7_" d="M15.4 18.5H4.6c-1.7 0-3.1-1.4-3.1-3.1V4.6c0-1.7 1.4-3.1 3.1-3.1h10.8c1.7 0 3.1 1.4 3.1 3.1v10.8c0 1.7-1.4 3.1-3.1 3.1"/></defs><clipPath id="SVGID_8_"><use xlink:href="#SVGID_7_" overflow="visible"/></clipPath><g class="st5"><defs><path id="SVGID_9_" d="M-129.5-194.5h1400v2426h-1400z"/></defs><clipPath id="SVGID_10_"><use xlink:href="#SVGID_9_" overflow="visible"/></clipPath><path class="st6" d="M-3.5-3.5h27v27h-27z"/></g><g><defs><path id="SVGID_11_" d="M-129.5-194.5h1400v2426h-1400z"/></defs><clipPath id="SVGID_12_"><use xlink:href="#SVGID_11_" overflow="visible"/></clipPath><path class="st7" d="M15.4 18.5H4.6c-1.7 0-3.1-1.4-3.1-3.1V4.6c0-1.7 1.4-3.1 3.1-3.1h10.8c1.7 0 3.1 1.4 3.1 3.1v10.8c0 1.7-1.4 3.1-3.1 3.1"/></g></svg>