<?xml version="1.0" encoding="UTF-8" standalone="no"?>
<!-- Generator: Adobe Illustrator 19.2.0, SVG Export Plug-In . SVG Version: 6.00 Build 0)  -->
<svg id="Layer_1" style="enable-background:new 0 0 31 11" xmlns="http://www.w3.org/2000/svg" xml:space="preserve" height="11px" viewBox="0 0 31 11" width="31px" version="1.1" y="0px" x="0px" xmlns:xlink="http://www.w3.org/1999/xlink">
<style type="text/css">
	.st0{filter:url(#Adobe_OpacityMaskFilter);}
	.st1{fill:#FFFFFF;}
	.st2{mask:url(#mask-2);fill:#B3B4B5;}
	.st3{filter:url(#Adobe_OpacityMaskFilter_1_);}
	.st4{mask:url(#mask-4);fill:#B3B4B5;}
	.st5{fill:#B3B4B5;}
</style>
<title>Link</title>
<desc>Created with Sketch.</desc>
<g id="Page-1">
	<g id="Desktop_detail_v2-Copy" transform="translate(-150 -933)">
		<g id="Link" transform="translate(150 933)">
			<g id="Group-3">
				<defs>
					<filter id="Adobe_OpacityMaskFilter" height="11" width="13.8" y="0" x="0" filterUnits="userSpaceOnUse">
						<feColorMatrix values="1 0 0 0 0  0 1 0 0 0  0 0 1 0 0  0 0 0 1 0" type="matrix"/>
					</filter>
				</defs>
				<mask id="mask-2" height="11" width="13.8" y="0" x="0" maskUnits="userSpaceOnUse">
					<g class="st0">
						<polygon id="path-1" points="13.8 0 0 0 0 11 13.8 11" class="st1"/>
					</g>
				</mask>
				<path id="Fill-1" d="m5.2 0h3.8c1.4 0 2.8 0.6 3.7 1.6 0.4 0.4 0.8 1 1 1.5h-2.9c-0.4-0.4-1.1-0.6-1.8-0.6h-3.8c-0.8 0-1.5 0.3-2.1 0.9-0.4 0.5-0.8 1.3-0.8 2.1s0.3 1.6 0.9 2.2c0.5 0.6 1.3 0.9 2.1 0.9h3.7c0.7 0 1.3-0.3 1.8-0.7h2.9c-0.3 0.6-0.6 1.1-1 1.5-0.9 1-2.3 1.6-3.7 1.6h-3.8c-1.4 0-2.8-0.6-3.7-1.6s-1.5-2.4-1.5-3.9c0-1.5 0.6-2.9 1.5-3.9s2.3-1.6 3.7-1.6" class="st2"/>
			</g>
			<g id="Group-6" transform="translate(17)">
				<defs>
					<filter id="Adobe_OpacityMaskFilter_1_" height="11" width="13.8" y="0" x=".1" filterUnits="userSpaceOnUse">
						<feColorMatrix values="1 0 0 0 0  0 1 0 0 0  0 0 1 0 0  0 0 0 1 0" type="matrix"/>
					</filter>
				</defs>
				<mask id="mask-4" height="11" width="13.8" y="0" x="0.1" maskUnits="userSpaceOnUse">
					<g class="st3">
						<polygon id="path-3" points="13.9 0 0.1 0 0.1 11 13.9 11" class="st1"/>
					</g>
				</mask>
				<path id="Fill-4" d="m4.8 0h3.8c1.4 0 2.8 0.6 3.7 1.6s1.5 2.4 1.5 3.9-0.6 2.9-1.5 3.9-2.3 1.6-3.7 1.6h-3.8c-1.4 0-2.8-0.6-3.7-1.6-0.4-0.4-0.8-1-1-1.5h2.9c0.5 0.4 1.1 0.7 1.8 0.7h3.8c0.8 0 1.5-0.3 2.1-0.9 0.5-0.6 0.9-1.3 0.9-2.2 0-0.8-0.3-1.6-0.9-2.2-0.5-0.6-1.3-0.9-2.1-0.9h-3.8c-0.7 0.1-1.3 0.3-1.8 0.8h-2.9c0.3-0.6 0.6-1.1 1-1.5 1-1.1 2.3-1.7 3.7-1.7" class="st4"/>
			</g>
			<path id="Fill-7" d="m11.1 4h9.8c0.6 0 1.1 0.5 1.1 1s-0.5 1-1.1 1h-9.8c-0.6 0-1.1-0.4-1.1-1 0-0.5 0.5-1 1.1-1" class="st5"/>
		</g>
	</g>
</g>
</svg>
