<svg width="460" height="345" viewBox="0 0 460 345" fill="none" xmlns="http://www.w3.org/2000/svg">
<path d="M120.571 154.522C121.071 153.258 122.86 153.258 123.36 154.522L127.164 164.127C127.379 164.672 127.892 165.041 128.477 165.073L138.924 165.642C140.3 165.717 140.855 167.453 139.778 168.312L131.718 174.743C131.251 175.116 131.05 175.73 131.205 176.307L133.874 186.182C134.23 187.501 132.781 188.571 131.625 187.842L122.766 182.25C122.277 181.942 121.654 181.942 121.165 182.25L112.306 187.842C111.151 188.571 109.701 187.501 110.058 186.182L112.726 176.307C112.882 175.73 112.681 175.116 112.213 174.743L104.153 168.312C103.076 167.453 103.631 165.717 105.007 165.642L115.455 165.073C116.039 165.041 116.552 164.672 116.768 164.127L120.571 154.522Z" fill="#FFD633"/>
<path d="M174.503 154.522C175.003 153.258 176.792 153.258 177.292 154.522L181.095 164.127C181.311 164.672 181.824 165.041 182.408 165.073L192.856 165.642C194.232 165.717 194.787 167.453 193.71 168.312L185.65 174.743C185.183 175.116 184.981 175.73 185.137 176.307L187.805 186.182C188.162 187.501 186.712 188.571 185.557 187.842L176.698 182.25C176.209 181.942 175.586 181.942 175.097 182.25L166.238 187.842C165.082 188.571 163.633 187.501 163.989 186.182L166.658 176.307C166.814 175.73 166.612 175.116 166.145 174.743L158.085 168.312C157.008 167.453 157.563 165.717 158.939 165.642L169.386 165.073C169.971 165.041 170.484 164.672 170.699 164.127L174.503 154.522Z" fill="#FFD633"/>
<path d="M228.434 154.522C228.934 153.258 230.723 153.258 231.223 154.522L235.027 164.127C235.242 164.672 235.755 165.041 236.34 165.073L246.787 165.642C248.163 165.717 248.718 167.453 247.641 168.312L239.581 174.743C239.114 175.116 238.912 175.73 239.068 176.307L241.737 186.182C242.093 187.501 240.644 188.571 239.488 187.842L230.629 182.25C230.14 181.942 229.517 181.942 229.028 182.25L220.169 187.842C219.014 188.571 217.564 187.501 217.921 186.182L220.589 176.307C220.745 175.73 220.543 175.116 220.076 174.743L212.016 168.312C210.939 167.453 211.494 165.717 212.87 165.642L223.317 165.073C223.902 165.041 224.415 164.672 224.631 164.127L228.434 154.522Z" fill="#FFD633"/>
<path d="M283.295 154.89C283.462 154.469 284.058 154.469 284.225 154.89L288.028 164.496C288.388 165.403 289.242 166.018 290.217 166.071L300.664 166.64C301.123 166.665 301.308 167.244 300.949 167.531L292.889 173.961C292.11 174.583 291.775 175.606 292.034 176.568L294.703 186.443C294.821 186.882 294.338 187.239 293.953 186.996L285.094 181.405C284.279 180.89 283.241 180.89 282.426 181.405L273.567 186.996C273.182 187.239 272.698 186.882 272.817 186.443L275.486 176.568C275.745 175.606 275.41 174.583 274.631 173.961L266.571 167.531C266.212 167.244 266.397 166.665 266.856 166.64L277.303 166.071C278.278 166.018 279.132 165.403 279.492 164.496L283.295 154.89Z" fill="white" stroke="#7D8088" stroke-width="2"/>
<path d="M337.226 154.89C337.393 154.469 337.989 154.469 338.156 154.89L341.96 164.496C342.319 165.403 343.173 166.018 344.148 166.071L354.595 166.64C355.054 166.665 355.239 167.244 354.88 167.531L346.82 173.961C346.041 174.583 345.706 175.606 345.966 176.568L348.634 186.443C348.753 186.882 348.27 187.239 347.884 186.996L339.026 181.405C338.21 180.89 337.172 180.89 336.357 181.405L327.498 186.996C327.113 187.239 326.63 186.882 326.749 186.443L329.417 176.568C329.677 175.606 329.341 174.583 328.563 173.961L320.503 167.531C320.144 167.244 320.329 166.665 320.787 166.64L331.235 166.071C332.209 166.018 333.064 165.403 333.423 164.496L337.226 154.89Z" fill="white" stroke="#7D8088" stroke-width="2"/>
</svg>
