<?xml version="1.0" encoding="UTF-8"?>
<svg width="460px" height="345px" viewBox="0 0 460 345" version="1.1" xmlns="http://www.w3.org/2000/svg" xmlns:xlink="http://www.w3.org/1999/xlink">
    <title>eu_comp_messages</title>
    <defs>
        <rect id="path-1" x="0" y="0" width="300" height="89" rx="4"></rect>
    </defs>
    <g id="thumbnails---final" stroke="none" stroke-width="1" fill="none" fill-rule="evenodd">
        <g id="EU-thumbnails---final_symbols" transform="translate(-980.000000, -750.000000)">
            <g id="eu_comp_messages" transform="translate(980.000000, 750.000000)">
                <g id="notifications" transform="translate(80.000000, 128.000000)">
                    <mask id="mask-2" fill="white">
                        <use xlink:href="#path-1"></use>
                    </mask>
                    <use id="Rectangle-Copy" fill="#F3F6FC" xlink:href="#path-1"></use>
                    <rect id="Rectangle-Copy" fill="#0E47CB" mask="url(#mask-2)" x="0" y="0" width="4.41176471" height="89"></rect>
                    <path d="M26.4705672,21.7236489 C24.9341127,21.7236489 23.5213555,22.1012524 22.2322961,22.8564587 C20.9432366,23.611665 19.9211034,24.6337982 19.1658971,25.9228576 C18.4106908,27.2119171 18.0330873,28.6246743 18.0330873,30.1611288 C18.0330873,31.6975833 18.4106908,33.1103405 19.1658971,34.3993999 C19.9211034,35.6884594 20.9432366,36.7105925 22.2322961,37.4657989 C23.5213555,38.2210052 24.9341127,38.5986087 26.4705672,38.5986087 C28.0070217,38.5986087 29.4197789,38.2210052 30.7088383,37.4657989 C31.9978978,36.7105925 33.0200309,35.6884594 33.7752373,34.3993999 C34.5304436,33.1103405 34.9080471,31.6975833 34.9080471,30.1611288 C34.9080471,28.6246743 34.5304436,27.2119171 33.7752373,25.9228576 C33.0200309,24.6337982 31.9913872,23.611665 30.6893071,22.8564587 C29.3872271,22.1012524 27.9809805,21.7236489 26.4705672,21.7236489 Z M26.4705672,20.4736519 C28.2153549,20.4736519 29.8299342,20.909849 31.3143056,21.7822425 C32.7986771,22.6546361 33.9770599,23.8330189 34.8494535,25.3173903 C35.721847,26.8017618 36.1580441,28.4163411 36.1580441,30.1611288 C36.1580441,31.9059165 35.721847,33.5204958 34.8494535,35.0048672 C33.9770599,36.4892387 32.7986771,37.6676215 31.3143056,38.5400151 C29.8299342,39.4124086 28.2153549,39.8486057 26.4705672,39.8486057 C24.7257795,39.8486057 23.1112002,39.4124086 21.6268287,38.5400151 C20.1424573,37.6676215 18.9640745,36.4892387 18.0916809,35.0048672 C17.2192874,33.5204958 16.7830903,31.9059165 16.7830903,30.1611288 C16.7830903,28.4163411 17.2192874,26.8017618 18.0916809,25.3173903 C18.9640745,23.8330189 20.1424573,22.6546361 21.6268287,21.7822425 C23.1112002,20.909849 24.7257795,20.4736519 26.4705672,20.4736519 Z M25.5330694,33.9111199 L25.5330694,29.223631 L25.0643206,29.223631 C24.9341127,29.223631 24.8234355,29.178058 24.7322901,29.0869126 C24.6411447,28.9957672 24.5955717,28.88509 24.5955717,28.7548821 L24.5955717,28.4423829 C24.5955717,28.3121751 24.6411447,28.2014979 24.7322901,28.1103524 C24.8234355,28.019207 24.9341127,27.973634 25.0643206,27.973634 L26.9393161,27.973634 C27.0695239,27.973634 27.1802011,28.019207 27.2713465,28.1103524 C27.362492,28.2014979 27.408065,28.3121751 27.408065,28.4423829 L27.408065,33.9111199 L27.8768138,33.9111199 C28.0070217,33.9111199 28.1176989,33.9566929 28.2088443,34.0478383 C28.2999897,34.1389837 28.3455627,34.2496609 28.3455627,34.3798687 L28.3455627,34.692368 C28.3455627,34.8225758 28.2999897,34.933253 28.2088443,35.0243984 C28.1176989,35.1155439 28.0070217,35.1611169 27.8768138,35.1611169 L25.0643206,35.1611169 C24.9341127,35.1611169 24.8234355,35.1155439 24.7322901,35.0243984 C24.6411447,34.933253 24.5955717,34.8225758 24.5955717,34.692368 L24.5955717,34.3798687 C24.5955717,34.2496609 24.6411447,34.1389837 24.7322901,34.0478383 C24.8234355,33.9566929 24.9341127,33.9111199 25.0643206,33.9111199 L25.5330694,33.9111199 Z M26.4705672,24.5361422 C26.8091083,24.5361422 27.1020763,24.65984 27.3494714,24.9072351 C27.5968664,25.1546301 27.7205702,25.4475982 27.7205702,25.7861392 C27.7205702,26.1246803 27.5968664,26.4176483 27.3494714,26.6650434 C27.1020763,26.9124384 26.8091083,27.0361422 26.4705672,27.0361422 C26.1320261,27.0361422 25.8390581,26.9124384 25.591663,26.6650434 C25.344268,26.4176483 25.2205702,26.1246803 25.2205702,25.7861392 C25.2205702,25.4475982 25.344268,25.1546301 25.591663,24.9072351 C25.8390581,24.65984 26.1320261,24.5361422 26.4705672,24.5361422 Z" id="ïš" fill="#0E47CB" fill-rule="nonzero" mask="url(#mask-2)"></path>
                    <g id="Group-14" mask="url(#mask-2)">
                        <g transform="translate(44.117647, 19.777778)" id="Group">
                            <polygon id="Fill-10" fill="#404040" points="0 9.88888889 199.411765 9.88888889 199.411765 0 0 0"></polygon>
                            <polygon id="Fill-10-Copy-3" fill="#CFCFCF" points="0 29.6666667 162.785114 29.6666667 162.785114 19.7777778 0 19.7777778"></polygon>
                            <polygon id="Fill-10-Copy-4" fill="#CFCFCF" points="0 49.4444444 172.959184 49.4444444 172.959184 39.5555556 0 39.5555556"></polygon>
                        </g>
                    </g>
                    <path d="M276.326531,24.7222222 L279.846939,28.2426304 C279.94898,28.3786851 280,28.5317463 280,28.7018141 C280,28.8718818 279.94898,29.0079365 279.846939,29.1099773 L279.387755,29.569161 C279.285714,29.6712018 279.14966,29.7222222 278.979592,29.7222222 C278.809524,29.7222222 278.656463,29.6712018 278.520408,29.569161 L275,25.9977324 L271.479592,29.569161 C271.343537,29.6712018 271.190476,29.7222222 271.020408,29.7222222 C270.85034,29.7222222 270.714286,29.6712018 270.612245,29.569161 L270.153061,29.1099773 C270.05102,29.0079365 270,28.8718818 270,28.7018141 C270,28.5317463 270.05102,28.3786851 270.153061,28.2426304 L273.72449,24.7222222 L270.153061,21.2018141 C270.05102,21.0657594 270,20.9126982 270,20.7426304 C270,20.5725626 270.05102,20.4365079 270.153061,20.3344671 L270.612245,19.8752834 C270.714286,19.7732426 270.85034,19.7222222 271.020408,19.7222222 C271.190476,19.7222222 271.343537,19.7732426 271.479592,19.8752834 L275,23.3956916 L278.520408,19.8752834 C278.656463,19.7732426 278.809524,19.7222222 278.979592,19.7222222 C279.14966,19.7222222 279.285714,19.7732426 279.387755,19.8752834 L279.846939,20.3344671 C279.94898,20.4365079 280,20.5725626 280,20.7426304 C280,20.9126982 279.94898,21.0657594 279.846939,21.2018141 L276.326531,24.7222222 Z" id="Path" fill="#0E47CB" mask="url(#mask-2)"></path>
                </g>
            </g>
        </g>
    </g>
</svg>