<?xml version="1.0" encoding="UTF-8"?>
<svg width="24px" height="24px" viewBox="0 0 24 24" version="1.1" xmlns="http://www.w3.org/2000/svg" xmlns:xlink="http://www.w3.org/1999/xlink">
    <!-- Generator: Sketch 51.2 (57519) - http://www.bohemiancoding.com/sketch -->
    <title>Icons/24x24/Branded/Icon_Facebook</title>
    <desc>Created with Sketch.</desc>
    <defs>
        <path d="M7,8.2238806 L9.14285714,8.2238806 L9.14285714,6.03482587 C9.14285714,5.04975124 9.14285714,3.62686567 9.85714286,2.64179104 C10.4693878,1.65671642 11.3877551,1 13.122449,1 C15.7755102,1 17,1.43781095 17,1.43781095 L16.4897959,4.83084577 C16.4897959,4.83084577 15.6734694,4.6119403 14.8571429,4.6119403 C14.0408163,4.6119403 13.3265306,4.83084577 13.3265306,5.8159204 L13.3265306,8.44278606 L16.6938776,8.44278606 L16.4897959,11.6169154 L13.2244898,11.6169154 L13.2244898,23 L9.24489796,23 L9.24489796,11.39801 L7.10204082,11.39801 L7.10204082,8.2238806 L7,8.2238806 Z" id="path-1"></path>
    </defs>
    <g id="Icons/24x24/Branded/Icon_Facebook" stroke="none" stroke-width="1" fill="none" fill-rule="evenodd">
        <mask id="mask-2" fill="white">
            <use xlink:href="#path-1"></use>
        </mask>
        <use id="Facebook" fill="#000000" fill-rule="nonzero" xlink:href="#path-1"></use>
    </g>
</svg>