<?xml version="1.0" encoding="UTF-8"?>
<svg width="24px" height="24px" viewBox="0 0 24 24" version="1.1" xmlns="http://www.w3.org/2000/svg" xmlns:xlink="http://www.w3.org/1999/xlink">
    <!-- Generator: Sketch 51.2 (57519) - http://www.bohemiancoding.com/sketch -->
    <title>Icons/24x24/Branded/Icon_Twitter</title>
    <desc>Created with Sketch.</desc>
    <defs>
        <path d="M20.5920398,8.0310559 C20.5920398,14.068323 16.1044776,21 7.89552239,21 C5.26865671,21 2.86069652,20.2173913 1,18.8757764 L1.98507463,18.8757764 C4.06467661,18.8757764 5.92537313,18.0931677 7.56716418,16.8633541 C5.48756219,16.8633541 3.84577115,15.5217392 3.29850746,13.7329193 C3.73631841,13.8447205 3.95522388,13.8447205 4.17412935,13.8447205 C4.6119403,13.8447205 4.9402985,13.8447205 5.37810945,13.7329193 C3.29850746,13.2857143 1.76616915,11.4968944 1.76616915,9.26086956 C2.42288557,9.48447206 3.07960199,9.81987577 3.84577115,9.81987577 C2.53233831,9.03726708 1.76616915,7.58385093 1.76616915,6.01863354 C1.76616915,5.12422361 1.98507463,4.3416149 2.42288557,3.67080745 C4.6119403,6.57763975 8.00497512,8.36645963 11.7263682,8.59006211 C11.6169154,8.14285714 11.6169154,7.91925466 11.6169154,7.58385093 C11.6169154,5.12422361 13.6965175,3 16.1044776,3 C17.5273632,3 18.7313433,3.55900621 19.4975124,4.45341615 C20.4825871,4.3416149 21.4676617,3.89440994 22.3432836,3.44720497 C22.1243781,4.45341615 21.358209,5.45962732 20.3731343,5.9068323 C21.2487562,5.79503106 22.1243781,5.45962732 23,5.12422361 C22.2338309,5.9068323 21.4676617,6.689441 20.5920398,7.36024845 L20.5920398,8.0310559 Z" id="path-1"></path>
    </defs>
    <g id="Icons/24x24/Branded/Icon_Twitter" stroke="none" stroke-width="1" fill="none" fill-rule="evenodd">
        <mask id="mask-2" fill="white">
            <use xlink:href="#path-1"></use>
        </mask>
        <g id="Twitter" fill-rule="nonzero"></g>
        <g id="Colours/General/Black-#000000" mask="url(#mask-2)" fill="#000000">
            <rect x="0" y="0" width="24" height="24"></rect>
        </g>
    </g>
</svg>