<?xml version="1.0" encoding="UTF-8"?>
<svg width="24px" height="24px" viewBox="0 0 24 24" version="1.1" xmlns="http://www.w3.org/2000/svg" xmlns:xlink="http://www.w3.org/1999/xlink">
    <!-- Generator: Sketch 51.2 (57519) - http://www.bohemiancoding.com/sketch -->
    <title>Icons/24x24/Branded/Icon_Skype</title>
    <desc>Created with Sketch.</desc>
    <defs>
        <path d="M22.45,12.0541872 C22.45,6.31034483 17.83,1.75862069 12,1.75862069 C11.34,1.75862069 10.79,1.75862069 10.24,1.86699507 C9.36,1.21674877 8.15,1 7.05,1 C3.64,1 1,3.70935961 1,6.96059113 C1,8.15270936 1.22,9.12807882 1.77,9.99507389 C1.66,10.6453202 1.66,11.2955665 1.66,12.0541872 C1.66,17.7980296 6.28,22.3497537 12.11,22.3497537 C12.77,22.3497537 13.43,22.3497537 14.09,22.2413793 C14.97,22.7832513 15.85,23 16.95,23 C20.36,23 23,20.2906404 23,17.0394089 C23,16.0640394 22.78,15.08867 22.34,14.3300493 C22.34,13.5714285 22.45,12.8128079 22.45,12.0541872 Z M17.5,17.0394089 C16.95,17.6896552 16.29,18.3399015 15.41,18.6650246 C14.53,19.0985222 13.32,19.2068965 12.22,19.2068965 C10.68,19.2068965 9.47,18.9901478 8.48,18.4482759 C7.82,18.0147783 7.16,17.5812808 6.83,16.9310345 C6.39,16.2807882 6.17,15.6305419 6.17,14.9802956 C6.17,14.546798 6.28,14.2216748 6.61,14.0049261 C6.83,13.7881774 7.27,13.5714285 7.6,13.5714285 C7.93,13.5714285 8.26,13.679803 8.48,13.7881774 C8.7,14.0049261 8.92,14.3300493 9.14,14.6551724 C9.25,15.08867 9.58,15.4137931 9.8,15.6305419 C10.02,15.8472906 10.35,16.1724137 10.68,16.2807882 C11.12,16.3891626 11.56,16.497537 12.22,16.497537 C13.1,16.497537 13.76,16.3891626 14.31,15.955665 C14.86,15.5221674 15.08,15.1970443 15.08,14.6551724 C15.08,14.2216748 14.97,13.8965517 14.64,13.679803 C14.42,13.4630542 13.98,13.1379311 13.43,13.0295567 C12.88,12.9211822 12.22,12.8128079 11.45,12.4876848 C10.46,12.2709359 9.36,11.9458128 8.7,11.729064 C7.93,11.5123153 7.27,10.9704434 6.94,10.4285714 C6.5,9.8866995 6.28,9.12807882 6.28,8.36945813 C6.28,7.61083744 6.5,6.85221674 7.05,6.31034483 C7.6,5.66009852 8.26,5.33497537 9.14,4.90147783 C10.02,4.68472906 11.12,4.35960591 12.22,4.35960591 C13.1,4.35960591 13.98,4.4679803 14.64,4.57635468 C15.3,4.79310345 15.96,5.1182266 16.29,5.44334976 C16.84,5.87684729 17.06,6.20197044 17.28,6.63546798 C17.5,7.06896552 17.72,7.39408867 17.72,7.8275862 C17.72,8.26108374 17.61,8.58620689 17.28,8.80295567 C16.95,9.01970443 16.62,9.2364532 16.29,9.2364532 C15.96,9.2364532 15.63,9.12807882 15.41,9.01970443 C15.19,8.91133005 14.97,8.58620689 14.75,8.26108374 C14.53,7.71921182 14.2,7.39408867 13.87,7.06896552 C13.43,6.85221674 12.99,6.63546798 12.11,6.63546798 C11.34,6.63546798 10.68,6.74384237 10.35,7.06896552 C9.47,7.50246305 9.36,7.8275862 9.36,8.26108374 C9.36,8.47783252 9.47,8.69458128 9.58,8.91133005 C9.69,9.01970443 10.02,9.34482759 10.24,9.45320197 C10.46,9.56157635 10.79,9.66995074 11.12,9.8866995 C11.34,9.99507389 11.89,10.1034483 12.55,10.320197 C13.43,10.4285714 14.2,10.7536946 14.86,10.9704434 C15.52,11.1871921 16.18,11.5123153 16.62,11.729064 C17.17,12.1625616 17.5,12.4876848 17.83,13.0295567 C18.05,13.5714285 18.27,14.2216748 18.27,14.7635468 C18.05,15.5221674 17.83,16.2807882 17.5,17.0394089 Z" id="path-1"></path>
    </defs>
    <g id="Icons/24x24/Branded/Icon_Skype" stroke="none" stroke-width="1" fill="none" fill-rule="evenodd">
        <mask id="mask-2" fill="white">
            <use xlink:href="#path-1"></use>
        </mask>
        <g id="Skype" fill-rule="nonzero"></g>
        <g id="Colours/General/Black-#000000" mask="url(#mask-2)" fill="#000000">
            <rect x="0" y="0" width="24" height="24"></rect>
        </g>
    </g>
</svg>