<?xml version="1.0" encoding="UTF-8"?>
<svg width="24px" height="24px" viewBox="0 0 24 24" version="1.1" xmlns="http://www.w3.org/2000/svg" xmlns:xlink="http://www.w3.org/1999/xlink">
    <!-- Generator: Sketch 51.2 (57519) - http://www.bohemiancoding.com/sketch -->
    <title>Icons/24x24/Branded/Icon_LinkedIn</title>
    <desc>Created with Sketch.</desc>
    <defs>
        <path d="M5.84,22.5 L1.55,22.5 L1.55,8.07692308 L5.84,8.07692308 L5.84,22.5 Z M3.64,6.34615384 C2.1,6.34615384 1,5.30769231 1,3.92307692 C1,2.53846154 1.99,1.5 3.64,1.5 C5.18,1.5 6.28,2.53846154 6.28,3.92307692 C6.28,5.30769231 5.29,6.34615384 3.64,6.34615384 Z M23,22.5 L18.05,22.5 L18.05,15 C18.05,13.1538461 17.28,11.7692308 15.63,11.7692308 C14.31,11.7692308 13.65,12.6923077 13.32,13.5 L13.32,14.7692308 L13.32,22.5 L8.48,22.5 L8.48,8.07692308 L13.32,8.07692308 L13.32,10.3846154 C13.54,9.46153846 15.08,7.96153847 17.61,7.96153847 C20.69,7.96153847 23,10.0384615 23,14.4230769 L23,22.5 Z" id="path-1"></path>
    </defs>
    <g id="Icons/24x24/Branded/Icon_LinkedIn" stroke="none" stroke-width="1" fill="none" fill-rule="evenodd">
        <mask id="mask-2" fill="white">
            <use xlink:href="#path-1"></use>
        </mask>
        <g id="LinkedIn" fill-rule="nonzero"></g>
        <g id="Colours/General/Black-#000000" mask="url(#mask-2)" fill="#000000">
            <rect x="0" y="0" width="24" height="24"></rect>
        </g>
    </g>
</svg>