<?xml version="1.0" encoding="UTF-8"?>
<svg width="24px" height="24px" viewBox="0 0 24 24" version="1.1" xmlns="http://www.w3.org/2000/svg" xmlns:xlink="http://www.w3.org/1999/xlink">
    <!-- Generator: Sketch 51.2 (57519) - http://www.bohemiancoding.com/sketch -->
    <title>Icons/24x24/Branded/Icon_RSS</title>
    <desc>Created with Sketch.</desc>
    <defs>
        <path d="M6.03482587,22.0149254 C5.48756219,22.562189 4.72139304,22.8905472 3.95522388,22.8905472 C3.18905473,22.8905472 2.42288557,22.4527364 1.87562189,22.0149254 C1.43781095,21.4676617 1,20.7014926 1,19.9353233 C1,19.1691542 1.43781095,18.4029851 1.87562189,17.8557214 C2.42288557,17.3084577 3.18905473,16.9800995 3.95522388,16.9800995 C4.72139304,16.9800995 5.48756219,17.4179104 6.03482587,17.8557214 C6.58208956,18.4029851 6.91044776,19.1691542 6.91044776,19.9353233 C6.80099502,20.8109452 6.58208956,21.4676617 6.03482587,22.0149254 Z M11.2885572,22.8905473 C11.2885572,20.1542288 10.3034826,17.6368159 8.33333334,15.6666666 C6.36318408,13.6965175 3.84577115,12.7114428 1.10945274,12.7114428 L1.10945274,8.5522388 C5.04975124,8.5522388 8.66169154,10.1940299 11.2885572,12.8208956 C13.9154228,15.4477612 15.5572139,18.9502488 15.5572139,23 L11.2885572,22.8905473 Z M18.7313433,22.8905473 C18.7313433,13.1492537 10.7412935,5.15920398 1.10945274,5.15920398 L1.10945274,1 C7.12935323,1 12.6019901,3.4079602 16.5422885,7.45771145 C20.4825871,11.5074627 23,16.8706468 23,22.8905473 L18.7313433,22.8905473 Z" id="path-1"></path>
    </defs>
    <g id="Icons/24x24/Branded/Icon_RSS" stroke="none" stroke-width="1" fill="none" fill-rule="evenodd">
        <mask id="mask-2" fill="white">
            <use xlink:href="#path-1"></use>
        </mask>
        <use id="RSS" fill="#000000" fill-rule="nonzero" xlink:href="#path-1"></use>
    </g>
</svg>