<?xml version="1.0" encoding="UTF-8"?>
<svg width="24px" height="24px" viewBox="0 0 24 24" version="1.1" xmlns="http://www.w3.org/2000/svg" xmlns:xlink="http://www.w3.org/1999/xlink">
    <!-- Generator: Sketch 51.2 (57519) - http://www.bohemiancoding.com/sketch -->
    <title>Icons/24x24/Branded/Icon_Pinterest</title>
    <desc>Created with Sketch.</desc>
    <defs>
        <path d="M11.78,23 C10.79,23 9.69,22.8894472 8.7,22.5577889 C9.14,21.8944724 9.58,21.0100503 9.91,20.2361809 C10.02,19.6834171 10.68,17.2512562 10.68,17.2512562 C11.12,18.0251256 12.22,18.6884422 13.43,18.6884422 C16.95,18.6884422 19.37,15.482412 19.37,11.1708543 C19.37,7.96482412 16.62,4.75879397 12.33,4.75879397 C7.16,4.75879397 4.41,8.51758793 4.41,11.6130653 C4.41,13.603015 5.18,15.2613065 6.61,15.8140704 C6.83,15.9246231 7.16,15.8140704 7.16,15.5929649 C7.16,15.482412 7.27,14.9296483 7.38,14.7085428 C7.49,14.4874371 7.38,14.2663316 7.27,14.0452261 C6.83,13.4924623 6.5,12.8291457 6.5,11.8341709 C6.5,9.07035176 8.59,6.52763819 11.89,6.52763819 C14.86,6.52763819 16.4,8.29648241 16.4,10.839196 C16.4,14.0452261 14.97,16.6984925 12.88,16.6984925 C11.67,16.6984925 10.79,15.8140704 11.23,14.5979899 C11.67,13.160804 12.22,11.7236181 12.22,10.7286432 C12.22,9.84422111 11.67,9.07035176 10.79,9.07035176 C9.58,9.07035176 8.7,10.2864322 8.7,11.9447236 C8.7,12.9396985 9.14,13.603015 9.14,13.603015 C9.14,13.603015 7.93,18.6884422 7.71,19.5728643 C7.49,20.3467337 7.49,21.3417085 7.6,22.2261306 C3.75,20.5678392 1,16.5879397 1,12.0552764 C1,5.97487438 5.95,1 12,1 C18.05,1 23,5.97487438 23,12.0552764 C22.78,18.0251256 17.83,23 11.78,23 Z" id="path-1"></path>
    </defs>
    <g id="Icons/24x24/Branded/Icon_Pinterest" stroke="none" stroke-width="1" fill="none" fill-rule="evenodd">
        <mask id="mask-2" fill="white">
            <use xlink:href="#path-1"></use>
        </mask>
        <use id="Pinterest" fill="#000000" fill-rule="nonzero" xlink:href="#path-1"></use>
    </g>
</svg>