<?xml version="1.0" encoding="UTF-8"?>
<svg width="24px" height="24px" viewBox="0 0 24 24" version="1.1" xmlns="http://www.w3.org/2000/svg" xmlns:xlink="http://www.w3.org/1999/xlink">
    <!-- Generator: Sketch 51.2 (57519) - http://www.bohemiancoding.com/sketch -->
    <title>Icons/24x24/Branded/Icon_Youtube</title>
    <desc>Created with Sketch.</desc>
    <defs>
        <path d="M9.72886666,15.3194262 L9.72788888,8.12892371 L15.6722888,11.7365445 L9.72886666,15.3194262 Z M22.7804888,6.88316141 C22.7804888,6.88316141 22.5653778,5.11958737 21.9056222,4.34272761 C21.0693778,3.32359678 20.1314444,3.31876274 19.7014666,3.25904804 C16.6229334,3 12.0048888,3 12.0048888,3 L11.9951111,3 C11.9951111,3 7.37731112,3 4.29853334,3.25904804 C3.86855556,3.31876274 2.93111112,3.32359678 2.09437778,4.34272761 C1.43462222,5.11958737 1.22,6.88316141 1.22,6.88316141 C1.22,6.88316141 1,8.95412395 1,11.0250865 L1,12.9669516 C1,15.0376297 1.22,17.1085923 1.22,17.1085923 C1.22,17.1085923 1.43462222,18.8721663 2.09437778,19.6490261 C2.93111112,20.6684412 4.03037778,20.6357403 4.52,20.742658 C6.28024444,20.9391478 12,21 12,21 C12,21 16.6229334,20.9917536 19.7014666,20.73299 C20.1314444,20.6732752 21.0693778,20.6684412 21.9056222,19.6490261 C22.5653778,18.8721663 22.7804888,17.1085923 22.7804888,17.1085923 C22.7804888,17.1085923 23,15.0376297 23,12.9669516 L23,11.0250865 C23,8.95412395 22.7804888,6.88316141 22.7804888,6.88316141 Z" id="path-1"></path>
    </defs>
    <g id="Icons/24x24/Branded/Icon_Youtube" stroke="none" stroke-width="1" fill="none" fill-rule="evenodd">
        <mask id="mask-2" fill="white">
            <use xlink:href="#path-1"></use>
        </mask>
        <g id="Youtube" fill-rule="nonzero"></g>
        <g id="Colours/General/Black-#000000" mask="url(#mask-2)" fill="#000000">
            <rect x="0" y="0" width="24" height="24"></rect>
        </g>
    </g>
</svg>