<?xml version="1.0" encoding="UTF-8"?>
<svg width="24px" height="24px" viewBox="0 0 24 24" version="1.1" xmlns="http://www.w3.org/2000/svg" xmlns:xlink="http://www.w3.org/1999/xlink">
    <!-- Generator: Sketch 51.2 (57519) - http://www.bohemiancoding.com/sketch -->
    <title>Icons/24x24/Branded/Icon_Google-Plus</title>
    <desc>Created with Sketch.</desc>
    <defs>
        <path d="M8.04139635,10.8570397 L14.6908099,10.8570397 C14.7508461,11.2569134 14.8013528,11.657148 14.8013528,12.1829747 C14.8013528,16.7544549 12.1054386,20 8.04139635,20 C4.14856862,20 1,16.4227906 1,12 C1,7.57720936 4.14856862,4 8.04139635,4 C9.94254478,4 11.5320764,4.78855957 12.7591669,6.09139712 L10.8478536,8.18279424 C10.3246804,7.61149456 9.40952438,6.94852709 8.04139635,6.94852709 C5.63740449,6.94852709 3.67590214,9.2109893 3.67590214,12 C3.67590214,14.7890107 5.63740449,17.0514729 8.04139635,17.0514729 C10.8275238,17.0514729 11.8738702,14.7771011 12.0349198,13.6002165 L8.04139635,13.6002165 L8.04139635,10.8570397 Z M23,10.8200603 L23,13.1059808 L20.987991,13.1059808 L20.987991,15.3915404 L18.9762996,15.3915404 L18.9762996,13.1059808 L16.9646082,13.1059808 L16.9646082,10.8200603 L18.9762996,10.8200603 L18.9762996,8.53450065 L20.987991,8.53450065 L20.987991,10.8200603 L23,10.8200603 Z" id="path-1"></path>
    </defs>
    <g id="Icons/24x24/Branded/Icon_Google-Plus" stroke="none" stroke-width="1" fill="none" fill-rule="evenodd">
        <mask id="mask-2" fill="white">
            <use xlink:href="#path-1"></use>
        </mask>
        <g id="Google-Plus" fill-rule="nonzero"></g>
        <g id="Colours/General/Black-#000000" mask="url(#mask-2)" fill="#000000">
            <rect x="0" y="0" width="24" height="24"></rect>
        </g>
    </g>
</svg>