<svg
  width="219"
  height="44"
  viewBox="0 0 219 44"
  fill="none"
  xmlns="http://www.w3.org/2000/svg"
>
<path
    d="M27.6 29.0201C27.6 28.7001 27.6266 28.3601 27.68 28.0001C27.7466 27.6267 27.84 27.2334 27.96 26.8201C28.0933 26.3934 28.2533 25.9467 28.44 25.4801L29.88 26.0401C29.7466 26.4134 29.6266 26.7667 29.52 27.1001C29.4266 27.4334 29.3533 27.7467 29.3 28.0401C29.26 28.3334 29.24 28.6134 29.24 28.8801C29.24 29.4401 29.36 29.9134 29.6 30.3001C29.8533 30.7001 30.2 31.0267 30.64 31.2801C31.08 31.5334 31.58 31.7201 32.14 31.8401C32.7133 31.9601 33.32 32.0201 33.96 32.0201C34.7333 32.0201 35.4533 31.9534 36.12 31.8201C36.8 31.6867 37.3933 31.4934 37.9 31.2401C38.42 31.0001 38.8266 30.7201 39.12 30.4001C39.4133 30.0934 39.56 29.7601 39.56 29.4001C39.56 29.2267 39.4933 29.0667 39.36 28.9201C39.2266 28.7734 39.0266 28.6334 38.76 28.5001C38.4933 28.3667 38.1733 28.2401 37.8 28.1201C37.4266 27.9867 37 27.8534 36.52 27.7201L36.9 26.0601C37.5933 26.3267 38.2066 26.5534 38.74 26.7401C39.2733 26.9134 39.74 27.0534 40.14 27.1601C40.54 27.2667 40.8866 27.3467 41.18 27.4001C41.4733 27.4401 41.72 27.4601 41.92 27.4601C42.2 27.4601 42.4 27.5401 42.52 27.7001C42.6533 27.8467 42.72 28.0267 42.72 28.2401C42.72 28.4534 42.6266 28.6534 42.44 28.8401C42.2533 29.0134 42.0133 29.1001 41.72 29.1001C41.64 29.1001 41.56 29.1001 41.48 29.1001C41.4 29.1001 41.3133 29.1001 41.22 29.1001C41.14 29.1001 41.06 29.1001 40.98 29.1001C41.0066 29.2201 41.0266 29.3134 41.04 29.3801C41.0533 29.4601 41.06 29.5601 41.06 29.6801C41.06 30.1734 40.8866 30.6534 40.54 31.1201C40.2066 31.5867 39.7133 32.0067 39.06 32.3801C38.4066 32.7667 37.6133 33.0734 36.68 33.3001C35.76 33.5267 34.7066 33.6401 33.52 33.6401C32.4666 33.6401 31.4866 33.4667 30.58 33.1201C29.6866 32.7867 28.9666 32.2801 28.42 31.6001C27.8733 30.9201 27.6 30.0601 27.6 29.0201ZM34.96 37.4201C34.68 37.4201 34.44 37.3201 34.24 37.1201C34.0533 36.9334 33.96 36.7067 33.96 36.4401C33.96 36.1734 34.0533 35.9401 34.24 35.7401C34.44 35.5401 34.68 35.4401 34.96 35.4401C35.2266 35.4401 35.4533 35.5401 35.64 35.7401C35.84 35.9401 35.94 36.1734 35.94 36.4401C35.94 36.7067 35.84 36.9334 35.64 37.1201C35.4533 37.3201 35.2266 37.4201 34.96 37.4201ZM32.22 37.4201C31.94 37.4201 31.7 37.3201 31.5 37.1201C31.3133 36.9334 31.22 36.7067 31.22 36.4401C31.22 36.1734 31.3133 35.9401 31.5 35.7401C31.7 35.5401 31.94 35.4401 32.22 35.4401C32.4866 35.4401 32.7133 35.5401 32.9 35.7401C33.1 35.9401 33.2 36.1734 33.2 36.4401C33.2 36.7067 33.1 36.9334 32.9 37.1201C32.7133 37.3201 32.4866 37.4201 32.22 37.4201Z"
    fill="#515560"
  />
<path
    d="M41.7265 29.1001L41.9265 27.4601C42.5799 27.4601 43.0999 27.4201 43.4865 27.3401C43.8732 27.2601 44.1532 27.1001 44.3265 26.8601C44.4999 26.6067 44.5865 26.2334 44.5865 25.7401C44.5865 25.4067 44.5332 25.0134 44.4265 24.5601C44.3199 24.0934 44.1799 23.6001 44.0065 23.0801C43.8332 22.5601 43.6465 22.0467 43.4465 21.5401L45.0665 20.9401C45.2399 21.3667 45.3999 21.8534 45.5465 22.4001C45.7065 22.9467 45.8399 23.4867 45.9465 24.0201C46.0532 24.5534 46.1065 25.0201 46.1065 25.4201C46.1065 25.9534 46.0465 26.4267 45.9265 26.8401C45.8199 27.2401 45.6532 27.5867 45.4265 27.8801C45.1999 28.1601 44.9065 28.3934 44.5465 28.5801C44.1999 28.7534 43.7932 28.8867 43.3265 28.9801C42.8599 29.0601 42.3265 29.1001 41.7265 29.1001ZM43.8665 32.8201C43.5865 32.8201 43.3465 32.7201 43.1465 32.5201C42.9599 32.3334 42.8665 32.1067 42.8665 31.8401C42.8665 31.5734 42.9599 31.3401 43.1465 31.1401C43.3465 30.9401 43.5865 30.8401 43.8665 30.8401C44.1332 30.8401 44.3599 30.9401 44.5465 31.1401C44.7465 31.3401 44.8465 31.5734 44.8465 31.8401C44.8465 32.1067 44.7465 32.3334 44.5465 32.5201C44.3599 32.7201 44.1332 32.8201 43.8665 32.8201Z"
    fill="#515560"
  />
<path
    d="M48.2576 33.6001L47.8976 31.9601C48.6976 31.8534 49.431 31.7001 50.0976 31.5001C50.7776 31.3134 51.3576 31.0401 51.8376 30.6801C52.331 30.3201 52.711 29.8467 52.9776 29.2601C53.2443 28.6734 53.3776 27.9401 53.3776 27.0601C53.3776 26.6467 53.3376 26.2534 53.2576 25.8801C53.1776 25.4934 53.0576 25.1534 52.8976 24.8601C52.7376 24.5667 52.5443 24.3334 52.3176 24.1601C52.1043 23.9867 51.8576 23.9001 51.5776 23.9001C51.271 23.9001 50.991 24.0201 50.7376 24.2601C50.4976 24.4867 50.3043 24.7801 50.1576 25.1401C50.0243 25.5001 49.9576 25.8601 49.9576 26.2201C49.9576 26.5001 50.011 26.7467 50.1176 26.9601C50.2376 27.1601 50.431 27.3134 50.6976 27.4201C50.9643 27.5267 51.311 27.5801 51.7376 27.5801C52.1243 27.5801 52.511 27.5401 52.8976 27.4601C53.2976 27.3801 53.6376 27.2734 53.9176 27.1401L53.9976 28.5401C53.6776 28.7667 53.2976 28.9267 52.8576 29.0201C52.431 29.1134 51.9976 29.1601 51.5576 29.1601C51.051 29.1601 50.5976 29.1067 50.1976 29.0001C49.811 28.8934 49.4776 28.7401 49.1976 28.5401C48.931 28.3267 48.7243 28.0601 48.5776 27.7401C48.4443 27.4201 48.3776 27.0467 48.3776 26.6201C48.3776 26.1134 48.4576 25.6067 48.6176 25.1001C48.7776 24.5801 49.0043 24.1067 49.2976 23.6801C49.591 23.2534 49.9443 22.9134 50.3576 22.6601C50.771 22.3934 51.231 22.2601 51.7376 22.2601C52.271 22.2601 52.7376 22.4001 53.1376 22.6801C53.5376 22.9467 53.871 23.3134 54.1376 23.7801C54.4043 24.2467 54.6043 24.7734 54.7376 25.3601C54.871 25.9467 54.9376 26.5534 54.9376 27.1801C54.9376 28.4201 54.6843 29.4867 54.1776 30.3801C53.6843 31.2867 52.9376 32.0067 51.9376 32.5401C50.951 33.0734 49.7243 33.4267 48.2576 33.6001Z"
    fill="#515560"
  />
<path
    d="M56.1229 33.6001L55.5429 32.0801C56.8896 31.6534 57.9229 31.1401 58.6429 30.5401C59.3763 29.9534 59.8763 29.3401 60.1429 28.7001C60.4229 28.0601 60.5629 27.4467 60.5629 26.8601C60.5629 26.4867 60.5229 26.1267 60.4429 25.7801C60.3629 25.4334 60.2229 25.0401 60.0229 24.6001C59.8229 24.1601 59.5429 23.6134 59.1829 22.9601L60.6429 22.2201C61.1496 23.0867 61.5096 23.9067 61.7229 24.6801C61.9496 25.4534 62.0629 26.1334 62.0629 26.7201C62.0629 27.5601 61.9229 28.3201 61.6429 29.0001C61.3763 29.6801 61.0163 30.2801 60.5629 30.8001C60.1229 31.3334 59.6363 31.7867 59.1029 32.1601C58.5829 32.5334 58.0563 32.8401 57.5229 33.0801C57.0029 33.3201 56.5363 33.4934 56.1229 33.6001Z"
    fill="#515560"
  />
<path
    d="M64.5467 33.6001L64.1867 31.9601C64.9867 31.8534 65.72 31.7001 66.3867 31.5001C67.0667 31.3134 67.6467 31.0401 68.1267 30.6801C68.62 30.3201 69 29.8467 69.2667 29.2601C69.5334 28.6734 69.6667 27.9401 69.6667 27.0601C69.6667 26.6467 69.6267 26.2534 69.5467 25.8801C69.4667 25.4934 69.3467 25.1534 69.1867 24.8601C69.0267 24.5667 68.8334 24.3334 68.6067 24.1601C68.3934 23.9867 68.1467 23.9001 67.8667 23.9001C67.56 23.9001 67.28 24.0201 67.0267 24.2601C66.7867 24.4867 66.5934 24.7801 66.4467 25.1401C66.3134 25.5001 66.2467 25.8601 66.2467 26.2201C66.2467 26.5001 66.3 26.7467 66.4067 26.9601C66.5267 27.1601 66.72 27.3134 66.9867 27.4201C67.2534 27.5267 67.6 27.5801 68.0267 27.5801C68.4134 27.5801 68.8 27.5401 69.1867 27.4601C69.5867 27.3801 69.9267 27.2734 70.2067 27.1401L70.2867 28.5401C69.9667 28.7667 69.5867 28.9267 69.1467 29.0201C68.72 29.1134 68.2867 29.1601 67.8467 29.1601C67.34 29.1601 66.8867 29.1067 66.4867 29.0001C66.1 28.8934 65.7667 28.7401 65.4867 28.5401C65.22 28.3267 65.0134 28.0601 64.8667 27.7401C64.7334 27.4201 64.6667 27.0467 64.6667 26.6201C64.6667 26.1134 64.7467 25.6067 64.9067 25.1001C65.0667 24.5801 65.2934 24.1067 65.5867 23.6801C65.88 23.2534 66.2334 22.9134 66.6467 22.6601C67.06 22.3934 67.52 22.2601 68.0267 22.2601C68.56 22.2601 69.0267 22.4001 69.4267 22.6801C69.8267 22.9467 70.16 23.3134 70.4267 23.7801C70.6934 24.2467 70.8934 24.7734 71.0267 25.3601C71.16 25.9467 71.2267 26.5534 71.2267 27.1801C71.2267 28.4201 70.9734 29.4867 70.4667 30.3801C69.9734 31.2867 69.2267 32.0067 68.2267 32.5401C67.24 33.0734 66.0134 33.4267 64.5467 33.6001Z"
    fill="#515560"
  />
<path
    d="M80.192 18.2801C80.192 17.9867 80.172 17.6334 80.132 17.2201C80.092 16.8067 80.0453 16.3934 79.992 15.9801C79.9387 15.5667 79.8853 15.2134 79.832 14.9201L81.552 14.7201C81.592 14.9867 81.632 15.3401 81.672 15.7801C81.7253 16.2067 81.7653 16.6334 81.792 17.0601C81.8187 17.4867 81.832 17.8401 81.832 18.1201C81.832 18.7601 81.7853 19.3867 81.692 20.0001C81.612 20.6001 81.4787 21.1934 81.292 21.7801C81.1053 22.3534 80.8587 22.9134 80.552 23.4601L80.312 23.9001C79.9387 24.5267 79.4787 25.1334 78.932 25.7201C78.3853 26.2934 77.7453 26.8401 77.012 27.3601H79.532C79.9853 27.3601 80.332 27.3067 80.572 27.2001C80.812 27.0801 80.972 26.9267 81.052 26.7401C81.1453 26.5534 81.192 26.3534 81.192 26.1401C81.192 25.7801 80.972 25.3334 80.532 24.8001C80.1053 24.2534 79.512 23.6534 78.752 23.0001C77.992 22.3334 77.132 21.6334 76.172 20.9001C75.212 20.1667 74.1987 19.4201 73.132 18.6601L74.072 17.3401C75.2987 18.2467 76.3787 19.0667 77.312 19.8001C78.2587 20.5334 79.0653 21.2067 79.732 21.8201C80.412 22.4201 80.9653 22.9801 81.392 23.5001C81.832 24.0067 82.152 24.4934 82.352 24.9601C82.5653 25.4134 82.672 25.8601 82.672 26.3001C82.672 26.5934 82.6187 26.9001 82.512 27.2201C82.4187 27.5267 82.2453 27.8201 81.992 28.1001C81.752 28.3667 81.4053 28.5867 80.952 28.7601C80.512 28.9201 79.9387 29.0001 79.232 29.0001H74.632V27.3801C76.0053 26.3934 77.092 25.4334 77.892 24.5001C78.7053 23.5667 79.292 22.5934 79.652 21.5801C80.012 20.5667 80.192 19.4667 80.192 18.2801ZM72.852 16.2801L72.612 15.2001C72.9587 15.1201 73.2387 15.0534 73.452 15.0001C73.6653 14.9467 73.9053 14.8867 74.172 14.8201L74.072 15.2401C73.7253 15.1334 73.392 14.9067 73.072 14.5601C72.7653 14.2134 72.612 13.8201 72.612 13.3801C72.612 12.9801 72.7053 12.6467 72.892 12.3801C73.092 12.1001 73.3453 11.8934 73.652 11.7601C73.972 11.6267 74.312 11.5601 74.672 11.5601C74.8187 11.5601 74.972 11.5734 75.132 11.6001C75.3053 11.6267 75.4653 11.6667 75.612 11.7201L75.452 12.7201C75.3187 12.6934 75.192 12.6667 75.072 12.6401C74.952 12.6134 74.8187 12.6001 74.672 12.6001C74.3653 12.6001 74.1253 12.6667 73.952 12.8001C73.7787 12.9201 73.692 13.0934 73.692 13.3201C73.692 13.6001 73.7787 13.8401 73.952 14.0401C74.1387 14.2401 74.3453 14.4001 74.572 14.5201C74.812 14.6267 75.0053 14.6801 75.152 14.6801L74.332 14.7601C74.692 14.6667 75.0253 14.5734 75.332 14.4801C75.652 14.3734 75.9387 14.2734 76.192 14.1801L76.512 15.2001C76.192 15.3201 75.812 15.4467 75.372 15.5801C74.9453 15.7134 74.512 15.8401 74.072 15.9601C73.632 16.0801 73.2253 16.1867 72.852 16.2801Z"
    fill="#515560"
  />
<path
    d="M85.8126 29.0001L85.4126 14.7201H87.0326L87.4326 29.0001H85.8126Z"
    fill="#515560"
  />
<path
    d="M94.6336 28.1001L95.4336 26.7201C95.7002 26.8934 96.0736 27.0601 96.5536 27.2201C97.0336 27.3801 97.5936 27.4601 98.2336 27.4601C98.9002 27.4601 99.4269 27.3934 99.8136 27.2601C100.214 27.1267 100.5 26.9334 100.674 26.6801C100.86 26.4134 100.954 26.1067 100.954 25.7601C100.954 25.4934 100.894 25.1667 100.774 24.7801C100.667 24.3801 100.427 23.8467 100.054 23.1801C99.6802 22.5001 99.1069 21.6134 98.3336 20.5201L99.7136 19.6201C100.42 20.5934 100.98 21.4734 101.394 22.2601C101.82 23.0467 102.12 23.7401 102.294 24.3401C102.48 24.9267 102.574 25.4334 102.574 25.8601C102.574 26.3934 102.44 26.9134 102.174 27.4201C101.907 27.9134 101.46 28.3201 100.834 28.6401C100.207 28.9601 99.3402 29.1201 98.2336 29.1201C97.7536 29.1201 97.2869 29.0801 96.8336 29.0001C96.3936 28.9201 95.9869 28.8067 95.6136 28.6601C95.2402 28.5001 94.9136 28.3134 94.6336 28.1001Z"
    fill="#515560"
  />
<path
    d="M109.285 29.1001C108.218 29.1001 107.398 28.9801 106.825 28.7401C106.265 28.5001 105.878 28.1267 105.665 27.6201C105.451 27.1134 105.331 26.4601 105.305 25.6601L104.905 14.7201H106.545L106.945 25.0201C106.971 25.6734 107.031 26.1801 107.125 26.5401C107.231 26.8867 107.458 27.1267 107.805 27.2601C108.165 27.3934 108.725 27.4601 109.485 27.4601C109.765 27.4601 109.965 27.5401 110.085 27.7001C110.218 27.8467 110.285 28.0267 110.285 28.2401C110.285 28.4534 110.191 28.6534 110.005 28.8401C109.818 29.0134 109.578 29.1001 109.285 29.1001Z"
    fill="#515560"
  />
<path
    d="M122.025 29.1001C121.465 29.1001 120.952 29.0667 120.485 29.0001C120.018 28.9201 119.598 28.7801 119.225 28.5801C118.852 28.3801 118.538 28.0934 118.285 27.7201C118.032 27.3334 117.838 26.8267 117.705 26.2001L118.885 25.5001C119.058 26.0334 119.272 26.4401 119.525 26.7201C119.778 27.0001 120.118 27.1934 120.545 27.3001C120.985 27.4067 121.545 27.4601 122.225 27.4601C122.505 27.4601 122.705 27.5401 122.825 27.7001C122.958 27.8467 123.025 28.0267 123.025 28.2401C123.025 28.4534 122.932 28.6534 122.745 28.8401C122.558 29.0134 122.318 29.1001 122.025 29.1001ZM109.285 29.1001L109.465 27.4601C110.158 27.4601 110.838 27.4067 111.505 27.3001C112.172 27.1934 112.825 27.0401 113.465 26.8401C114.105 26.6401 114.718 26.4001 115.305 26.1201C115.905 25.8267 116.472 25.4934 117.005 25.1201C116.658 24.8134 116.258 24.5467 115.805 24.3201C115.352 24.0934 114.852 23.9201 114.305 23.8001C113.772 23.6667 113.205 23.6001 112.605 23.6001C112.392 23.6001 112.192 23.6067 112.005 23.6201C111.818 23.6334 111.632 23.6601 111.445 23.7001C111.258 23.7267 111.045 23.7667 110.805 23.8201L110.485 22.3001C110.845 22.1934 111.205 22.1134 111.565 22.0601C111.925 21.9934 112.272 21.9601 112.605 21.9601C113.298 21.9601 113.925 22.0467 114.485 22.2201C115.045 22.3801 115.552 22.5801 116.005 22.8201C116.472 23.0601 116.905 23.3001 117.305 23.5401C117.718 23.7801 118.118 23.9867 118.505 24.1601C118.892 24.3201 119.292 24.4001 119.705 24.4001H120.125L120.265 25.8401C119.692 25.8401 119.165 25.9201 118.685 26.0801C118.205 26.2401 117.732 26.4467 117.265 26.7001C116.812 26.9401 116.332 27.2001 115.825 27.4801C115.318 27.7467 114.758 28.0067 114.145 28.2601C113.532 28.5001 112.825 28.7001 112.025 28.8601C111.238 29.0201 110.325 29.1001 109.285 29.1001Z"
    fill="#515560"
  />
<path
    d="M122.02 29.1001L122.22 27.4601C123.006 27.4601 123.62 27.4334 124.06 27.3801C124.5 27.3134 124.813 27.1601 125 26.9201C125.186 26.6667 125.28 26.2734 125.28 25.7401C125.28 25.4067 125.226 25.0134 125.12 24.5601C125.013 24.0934 124.873 23.6001 124.7 23.0801C124.526 22.5601 124.34 22.0467 124.14 21.5401L125.76 20.9401C125.933 21.3667 126.093 21.8534 126.24 22.4001C126.4 22.9467 126.533 23.4867 126.64 24.0201C126.746 24.5534 126.8 25.0201 126.8 25.4201C126.8 26.0867 126.706 26.6534 126.52 27.1201C126.346 27.5867 126.066 27.9667 125.68 28.2601C125.293 28.5534 124.793 28.7667 124.18 28.9001C123.58 29.0334 122.86 29.1001 122.02 29.1001ZM126.38 18.8601C126.1 18.8601 125.86 18.7667 125.66 18.5801C125.473 18.3801 125.38 18.1467 125.38 17.8801C125.38 17.6134 125.473 17.3801 125.66 17.1801C125.86 16.9801 126.1 16.8801 126.38 16.8801C126.646 16.8801 126.873 16.9801 127.06 17.1801C127.26 17.3801 127.36 17.6134 127.36 17.8801C127.36 18.1467 127.26 18.3801 127.06 18.5801C126.873 18.7667 126.646 18.8601 126.38 18.8601ZM123.64 18.8601C123.36 18.8601 123.12 18.7667 122.92 18.5801C122.733 18.3801 122.64 18.1467 122.64 17.8801C122.64 17.6134 122.733 17.3801 122.92 17.1801C123.12 16.9801 123.36 16.8801 123.64 16.8801C123.906 16.8801 124.133 16.9801 124.32 17.1801C124.52 17.3801 124.62 17.6134 124.62 17.8801C124.62 18.1467 124.52 18.3801 124.32 18.5801C124.133 18.7667 123.906 18.8601 123.64 18.8601Z"
    fill="#515560"
  />
<path
    d="M135.856 18.2801C135.856 17.9867 135.836 17.6334 135.796 17.2201C135.756 16.8067 135.709 16.3934 135.656 15.9801C135.603 15.5667 135.549 15.2134 135.496 14.9201L137.216 14.7201C137.256 14.9867 137.296 15.3401 137.336 15.7801C137.389 16.2067 137.429 16.6334 137.456 17.0601C137.483 17.4867 137.496 17.8401 137.496 18.1201C137.496 18.7601 137.449 19.3867 137.356 20.0001C137.276 20.6001 137.143 21.1934 136.956 21.7801C136.769 22.3534 136.523 22.9134 136.216 23.4601L135.976 23.9001C135.603 24.5267 135.143 25.1334 134.596 25.7201C134.049 26.2934 133.409 26.8401 132.676 27.3601H135.196C135.649 27.3601 135.996 27.3067 136.236 27.2001C136.476 27.0801 136.636 26.9267 136.716 26.7401C136.809 26.5534 136.856 26.3534 136.856 26.1401C136.856 25.7801 136.636 25.3334 136.196 24.8001C135.769 24.2534 135.176 23.6534 134.416 23.0001C133.656 22.3334 132.796 21.6334 131.836 20.9001C130.876 20.1667 129.863 19.4201 128.796 18.6601L129.736 17.3401C130.963 18.2467 132.043 19.0667 132.976 19.8001C133.923 20.5334 134.729 21.2067 135.396 21.8201C136.076 22.4201 136.629 22.9801 137.056 23.5001C137.496 24.0067 137.816 24.4934 138.016 24.9601C138.229 25.4134 138.336 25.8601 138.336 26.3001C138.336 26.5934 138.283 26.9001 138.176 27.2201C138.083 27.5267 137.909 27.8201 137.656 28.1001C137.416 28.3667 137.069 28.5867 136.616 28.7601C136.176 28.9201 135.603 29.0001 134.896 29.0001H130.296V27.3801C131.669 26.3934 132.756 25.4334 133.556 24.5001C134.369 23.5667 134.956 22.5934 135.316 21.5801C135.676 20.5667 135.856 19.4667 135.856 18.2801Z"
    fill="#515560"
  />
<path
    d="M141.477 29.0001L141.077 14.7201H142.697L143.097 29.0001H141.477Z"
    fill="#515560"
  />
<rect x="153" width="66" height="44" fill="#003399" />
<path
    fill-rule="evenodd"
    clip-rule="evenodd"
    d="M183.745 7.15L185.138 8.1675L184.607 9.82667L186 8.8L187.393 9.82667L186.862 8.1675L188.255 7.15H186.532L186 5.5L185.468 7.15H183.745ZM187.393 38.4995L186.862 36.8495L188.255 35.832H186.532L186 34.1729L185.468 35.832H183.745L185.138 36.8495L184.607 38.4995L186 37.482L187.393 38.4995ZM171.755 23.1002L170.362 24.1269L170.893 22.4769L169.5 21.4869H171.223L171.755 19.8369L172.287 21.4869H174.019L172.617 22.5136L173.148 24.1636L171.755 23.1369V23.1002ZM180.271 11.7331L179.739 10.0831L181.133 9.0748H179.409L178.878 7.4248L178.346 9.0748H176.623L178.016 10.0923L177.484 11.7423L178.878 10.7248L180.271 11.7331ZM173.167 14.318L173.698 12.668L174.239 14.318H175.917L174.523 15.3446L175.055 16.9946L173.653 15.968L172.25 16.9946L172.782 15.3446L171.388 14.318H173.167ZM173.167 28.6549H171.407H171.388L172.782 29.6815L172.25 31.3316L173.653 30.314L175.055 31.3316L174.523 29.6815L175.917 28.6549H174.239L173.698 27.0049L173.167 28.6549ZM178.016 34.9249L176.623 33.9166H178.346L178.878 32.2666L179.409 33.9166H181.133L179.739 34.9249L180.271 36.5749L178.878 35.5574L177.484 36.5749L178.016 34.9249ZM201.638 24.1636L201.107 22.5136L202.5 21.4869H200.813L200.282 19.8369L199.75 21.4869H197.963L199.365 22.5136L198.833 24.1636L200.245 23.1369L201.638 24.1636ZM192.261 10.0831L190.868 9.0748H192.591L193.123 7.4248L193.654 9.0748H195.378L193.984 10.0831L194.516 11.7331L193.123 10.7248L191.729 11.7423L192.261 10.0923V10.0831ZM198.302 12.6592L197.761 14.3092L196.083 14.3183L197.468 15.345L196.936 16.995L198.338 15.9683L199.732 16.995L199.2 15.345L200.557 14.3092H198.833L198.302 12.6592ZM198.879 28.6549H200.557L199.2 29.6815L199.732 31.3316L198.338 30.314L196.936 31.3316L197.468 29.6815L196.083 28.6549H197.807L198.348 27.0049L198.879 28.6549ZM193.984 34.9249L195.378 33.9166H193.654L193.123 32.2666L192.591 33.9166H190.868L192.261 34.9249L191.729 36.5749L193.123 35.5574L194.516 36.5749L193.984 34.9249Z"
    fill="#FFCC00"
  />
</svg>
