<?xml version="1.0" encoding="UTF-8" ?>
<svg
  width="163px"
  height="48px"
  viewBox="0 0 163 48"
  version="1.1"
  xmlns="http://www.w3.org/2000/svg"
  xmlns:xlink="http://www.w3.org/1999/xlink"
>
    <!-- Generator: Sketch 64 (93537) - https://sketch.com -->
    <title>EU/EU-emblem/standard-version/positive/LT</title>
    <desc>Created with Sketch.</desc>
    <g
    id="EU/EU-emblem/standard-version/positive/LT"
    stroke="none"
    stroke-width="1"
    fill="none"
    fill-rule="evenodd"
  >
        <g id="EU-emblem_standard">
            <g id="EU/EU-emblem/flag/flag-positive">
                <g id="EU_flag">
                    <rect
            id="🌈-flag"
            fill="#003399"
            fill-rule="nonzero"
            x="0"
            y="0"
            width="72"
            height="48"
          />
                    <path
            d="M35.06,8.91 L33.54,7.8 L35.42,7.8 L36,6 L36.58,7.8 L38.46,7.8 L36.94,8.91 L37.52,10.72 L36,9.6 L34.48,10.72 L35.06,8.91 L35.06,8.91 Z M36.94,40.2 L37.52,42 L36,40.89 L34.48,42 L35.06,40.2 L33.54,39.09 L35.42,39.09 L36,37.28 L36.58,39.09 L38.46,39.09 L36.94,40.2 Z M20.46,25.2 L18.94,26.32 L19.52,24.52 L18,23.44 L19.88,23.44 L20.46,21.64 L21.04,23.44 L22.93,23.44 L21.4,24.56 L21.98,26.36 L20.46,25.24 L20.46,25.2 Z M29.17,11 L29.75,12.8 L28.23,11.7 L26.71,12.81 L27.29,11.01 L25.77,9.9 L27.65,9.9 L28.23,8.1 L28.81,9.9 L30.69,9.9 L29.17,11 Z M22,15.62 L22.58,13.82 L23.17,15.62 L25,15.62 L23.48,16.74 L24.06,18.54 L22.53,17.42 L21,18.54 L21.58,16.74 L20.06,15.62 L22,15.62 Z M20.08,31.26 L22,31.26 L22.58,29.46 L23.17,31.26 L25,31.26 L23.48,32.38 L24.06,34.18 L22.53,33.07 L21,34.18 L21.58,32.38 L20.06,31.26 L20.08,31.26 Z M27.29,38.1 L25.77,37 L27.65,37 L28.23,35.2 L28.81,37 L30.69,37 L29.17,38.1 L29.75,39.9 L28.23,38.79 L26.71,39.9 L27.29,38.1 Z M52.48,24.56 L53.06,26.36 L51.54,25.24 L50,26.36 L50.58,24.56 L49.05,23.44 L51,23.44 L51.58,21.64 L52.16,23.44 L54,23.44 L52.48,24.56 Z M42.83,11 L41.31,9.9 L43.19,9.9 L43.77,8.1 L44.35,9.9 L46.23,9.9 L44.71,11 L45.29,12.8 L43.77,11.7 L42.25,12.81 L42.83,11.01 L42.83,11 Z M48.83,15.61 L49.42,13.81 L50,15.61 L51.88,15.61 L50.4,16.74 L50.98,18.54 L49.46,17.42 L47.93,18.54 L48.51,16.74 L47,15.62 L48.83,15.61 Z M50,31.26 L51.88,31.26 L50.4,32.38 L50.98,34.18 L49.46,33.07 L47.93,34.18 L48.51,32.38 L47,31.26 L48.88,31.26 L49.47,29.46 L50.05,31.26 L50,31.26 Z M46.23,37 L44.71,38.1 L45.29,39.9 L43.77,38.79 L42.25,39.9 L42.83,38.1 L41.31,37 L43.19,37 L43.77,35.2 L44.35,37 L46.23,37 Z"
            id="🌈-stars"
            fill="#FFCC00"
            fill-rule="nonzero"
          />
                </g>
            </g>
            <g
        id="🌈-Sąjunga"
        transform="translate(83.306500, 27.445600)"
        fill="#515560"
      >
                <path
          d="M-1.91846539e-13,9.902 L2.813,9.629 C2.981,10.572 3.325,11.266 3.843,11.709 C4.36,12.152 5.059,12.373 5.937,12.373 C6.868,12.373 7.57,12.176 8.042,11.782 C8.514,11.388 8.75,10.927 8.75,10.4 C8.75,10.062 8.65,9.774 8.452,9.536 C8.254,9.298 7.907,9.091 7.412,8.916 C7.073,8.798 6.302,8.59 5.098,8.291 C3.548,7.906 2.461,7.435 1.836,6.875 C0.957,6.087 0.518,5.127 0.518,3.994 C0.518,3.265 0.725,2.583 1.138,1.948 C1.551,1.313 2.146,0.83 2.925,0.498 C3.703,0.166 4.642,1.52766688e-13 5.742,1.52766688e-13 C7.539,1.52766688e-13 8.892,0.394 9.8,1.181 C10.708,1.969 11.185,3.021 11.23,4.336 L8.34,4.463 C8.216,3.727 7.951,3.198 7.544,2.876 C7.137,2.553 6.526,2.392 5.713,2.392 C4.873,2.392 4.216,2.565 3.74,2.91 C3.435,3.131 3.281,3.427 3.281,3.798 C3.281,4.137 3.425,4.427 3.711,4.668 C4.075,4.974 4.961,5.293 6.367,5.625 C7.773,5.957 8.813,6.3 9.487,6.655 C10.161,7.01 10.688,7.495 11.069,8.11 C11.45,8.725 11.641,9.485 11.641,10.39 C11.641,11.211 11.413,11.979 10.957,12.695 C10.501,13.411 9.856,13.944 9.023,14.292 C8.19,14.64 7.151,14.814 5.908,14.814 C4.099,14.814 2.708,14.396 1.738,13.559 C0.769,12.723 0.188,11.504 -1.91846539e-13,9.902"
          id="Fill-3"
        />
                <path
          d="M22.2412,14.5602 C22.1172,14.6512 22.0052,14.7572 21.9042,14.8772 C21.8042,14.9982 21.7172,15.1262 21.6452,15.2632 C21.5742,15.4002 21.5182,15.5382 21.4792,15.6782 C21.4402,15.8182 21.4212,15.9532 21.4212,16.0832 C21.4212,16.2982 21.4772,16.4792 21.5922,16.6252 C21.7062,16.7722 21.8962,16.8452 22.1632,16.8452 C22.2802,16.8452 22.4122,16.8242 22.5582,16.7822 C22.7052,16.7392 22.8442,16.6992 22.9732,16.6602 L22.9732,18.2902 C22.4272,18.5512 21.9352,18.6812 21.4992,18.6812 C21.1352,18.6812 20.8182,18.6322 20.5522,18.5352 C20.2852,18.4372 20.0612,18.3042 19.8832,18.1342 C19.7042,17.9652 19.5702,17.7682 19.4822,17.5432 C19.3942,17.3192 19.3502,17.0802 19.3502,16.8262 C19.3502,16.4482 19.4652,16.0542 19.6922,15.6442 C19.9202,15.2342 20.2262,14.8722 20.6102,14.5602 L22.2412,14.5602 Z M19.5752,9.5802 C19.2232,9.6972 18.6672,9.8372 17.9052,9.9992 C17.1432,10.1622 16.6452,10.3222 16.4112,10.4782 C16.0532,10.7322 15.8742,11.0542 15.8742,11.4452 C15.8742,11.8292 16.0172,12.1612 16.3042,12.4412 C16.5902,12.7212 16.9552,12.8612 17.3972,12.8612 C17.8922,12.8612 18.3642,12.6982 18.8132,12.3722 C19.1452,12.1252 19.3632,11.8222 19.4682,11.4642 C19.5392,11.2302 19.5752,10.7842 19.5752,10.1262 L19.5752,9.5802 Z M15.9032,7.3532 L13.4132,6.9042 C13.6932,5.9012 14.1752,5.1592 14.8582,4.6772 C15.5422,4.1952 16.5572,3.9552 17.9052,3.9552 C19.1292,3.9552 20.0412,4.1002 20.6392,4.3892 C21.2382,4.6792 21.6602,5.0472 21.9042,5.4932 C22.1482,5.9382 22.2702,6.7572 22.2702,7.9492 L22.2412,11.1522 C22.2412,12.0632 22.2852,12.7352 22.3732,13.1682 C22.4612,13.6022 22.6252,14.0652 22.8662,14.5602 L20.1512,14.5602 C20.0802,14.3782 19.9922,14.1072 19.8872,13.7492 C19.8422,13.5872 19.8092,13.4792 19.7902,13.4272 C19.3212,13.8832 18.8202,14.2252 18.2862,14.4532 C17.7522,14.6812 17.1822,14.7942 16.5772,14.7942 C15.5102,14.7942 14.6682,14.5052 14.0532,13.9252 C13.4372,13.3462 13.1302,12.6132 13.1302,11.7282 C13.1302,11.1422 13.2692,10.6202 13.5502,10.1612 C13.8302,9.7022 14.2212,9.3502 14.7262,9.1062 C15.2312,8.8622 15.9592,8.6482 16.9092,8.4662 C18.1912,8.2262 19.0802,8.0012 19.5752,7.7922 L19.5752,7.5192 C19.5752,6.9922 19.4452,6.6162 19.1842,6.3912 C18.9242,6.1662 18.4322,6.0542 17.7102,6.0542 C17.2212,6.0542 16.8412,6.1502 16.5672,6.3422 C16.2942,6.5342 16.0722,6.8712 15.9032,7.3532 L15.9032,7.3532 Z"
          id="Fill-5"
        />
                <path
          d="M25.4165,2.7824 L28.1605,2.7824 L28.1605,0.2434 L25.4165,0.2434 L25.4165,2.7824 Z M28.1615,4.1894 L28.1615,14.2384 C28.1615,15.5594 28.0755,16.4924 27.9025,17.0354 C27.7295,17.5794 27.3975,18.0044 26.9065,18.3104 C26.4155,18.6164 25.7885,18.7694 25.0265,18.7694 C24.7525,18.7694 24.4575,18.7444 24.1425,18.6964 C23.8275,18.6474 23.4865,18.5734 23.1225,18.4764 L23.6005,16.1324 C23.7305,16.1584 23.8525,16.1794 23.9665,16.1964 C24.0815,16.2124 24.1865,16.2204 24.2845,16.2204 C24.5645,16.2204 24.7935,16.1604 24.9725,16.0394 C25.1515,15.9194 25.2705,15.7744 25.3295,15.6054 C25.3875,15.4354 25.4165,14.9274 25.4165,14.0814 L25.4165,4.1894 L28.1615,4.1894 Z"
          id="Fill-7"
        />
                <path
          d="M37.3584,14.5602 L37.3584,13.0072 C36.9804,13.5602 36.4844,13.9972 35.8694,14.3162 C35.2544,14.6352 34.6044,14.7942 33.9204,14.7942 C33.2244,14.7942 32.5994,14.6422 32.0464,14.3352 C31.4924,14.0292 31.0914,13.6002 30.8444,13.0462 C30.5974,12.4932 30.4734,11.7282 30.4734,10.7512 L30.4734,4.1892 L33.2174,4.1892 L33.2174,8.9552 C33.2174,10.4132 33.2684,11.3072 33.3694,11.6352 C33.4694,11.9642 33.6544,12.2252 33.9204,12.4162 C34.1874,12.6082 34.5264,12.7052 34.9364,12.7052 C35.4054,12.7052 35.8254,12.5762 36.1964,12.3192 C36.5674,12.0612 36.8214,11.7432 36.9584,11.3622 C37.0944,10.9812 37.1634,10.0482 37.1634,8.5642 L37.1634,4.1892 L39.9074,4.1892 L39.9074,14.5602 L37.3584,14.5602 Z"
          id="Fill-9"
        />
                <path
          d="M51.6826,14.5602 L48.9386,14.5602 L48.9386,9.2672 C48.9386,8.1472 48.8796,7.4232 48.7626,7.0942 C48.6456,6.7662 48.4546,6.5102 48.1916,6.3282 C47.9276,6.1452 47.6106,6.0542 47.2396,6.0542 C46.7636,6.0542 46.3376,6.1852 45.9596,6.4452 C45.5816,6.7052 45.3236,7.0502 45.1836,7.4802 C45.0436,7.9102 44.9736,8.7042 44.9736,9.8632 L44.9736,14.5602 L42.2296,14.5602 L42.2296,4.1892 L44.7786,4.1892 L44.7786,5.7122 C45.6836,4.5402 46.8226,3.9552 48.1966,3.9552 C48.8016,3.9552 49.3556,4.0632 49.8566,4.2822 C50.3576,4.5002 50.7376,4.7782 50.9946,5.1172 C51.2506,5.4552 51.4306,5.8392 51.5316,6.2692 C51.6316,6.6992 51.6826,7.3142 51.6826,8.1152 L51.6826,14.5602 Z"
          id="Fill-10"
        />
                <path
          d="M56.2636,9.1598 C56.2636,10.2598 56.4766,11.0658 56.9036,11.5768 C57.3296,12.0878 57.8556,12.3438 58.4806,12.3438 C59.1516,12.3438 59.7176,12.0808 60.1796,11.5568 C60.6416,11.0338 60.8726,10.2568 60.8726,9.2278 C60.8726,8.1538 60.6516,7.3568 60.2086,6.8358 C59.7666,6.3148 59.2056,6.0548 58.5296,6.0548 C57.8716,6.0548 57.3296,6.3098 56.9036,6.8208 C56.4766,7.3318 56.2636,8.1118 56.2636,9.1598 M53.8126,15.2438 L56.9476,15.6248 C56.9986,15.9898 57.1196,16.2398 57.3086,16.3768 C57.5696,16.5718 57.9796,16.6698 58.5386,16.6698 C59.2546,16.6698 59.7916,16.5618 60.1506,16.3468 C60.3916,16.2038 60.5736,15.9728 60.6976,15.6538 C60.7826,15.4258 60.8246,15.0058 60.8246,14.3938 L60.8246,12.8808 C60.0036,13.9998 58.9686,14.5598 57.7186,14.5598 C56.3256,14.5598 55.2216,13.9708 54.4086,12.7928 C53.7706,11.8618 53.4506,10.7028 53.4506,9.3158 C53.4506,7.5778 53.8686,6.2498 54.7056,5.3318 C55.5426,4.4138 56.5826,3.9548 57.8256,3.9548 C59.1086,3.9548 60.1666,4.5178 60.9996,5.6438 L60.9996,4.1888 L63.5686,4.1888 L63.5686,13.4958 C63.5686,14.7198 63.4676,15.6348 63.2656,16.2398 C63.0636,16.8458 62.7806,17.3208 62.4156,17.6658 C62.0516,18.0108 61.5646,18.2808 60.9556,18.4758 C60.3476,18.6718 59.5766,18.7688 58.6466,18.7688 C56.8886,18.7688 55.6416,18.4678 54.9066,17.8658 C54.1706,17.2638 53.8026,16.4998 53.8026,15.5758 C53.8026,15.4848 53.8056,15.3738 53.8126,15.2438"
          id="Fill-11"
        />
                <path
          d="M71.8056,9.5797 C71.4536,9.6967 70.8976,9.8367 70.1356,9.9997 C69.3736,10.1627 68.8756,10.3217 68.6416,10.4777 C68.2836,10.7317 68.1046,11.0547 68.1046,11.4447 C68.1046,11.8297 68.2476,12.1617 68.5346,12.4407 C68.8206,12.7207 69.1856,12.8607 69.6276,12.8607 C70.1226,12.8607 70.5946,12.6987 71.0436,12.3727 C71.3756,12.1247 71.5936,11.8227 71.6986,11.4647 C71.7696,11.2297 71.8056,10.7847 71.8056,10.1267 L71.8056,9.5797 Z M68.1336,7.3527 L65.6436,6.9037 C65.9236,5.9017 66.4056,5.1597 67.0886,4.6777 C67.7726,4.1957 68.7876,3.9547 70.1356,3.9547 C71.3596,3.9547 72.2716,4.0997 72.8696,4.3897 C73.4686,4.6787 73.8906,5.0467 74.1346,5.4927 C74.3786,5.9387 74.5006,6.7577 74.5006,7.9487 L74.4716,11.1517 C74.4716,12.0637 74.5156,12.7357 74.6036,13.1687 C74.6916,13.6017 74.8556,14.0657 75.0966,14.5597 L72.3816,14.5597 C72.3106,14.3777 72.2226,14.1077 72.1176,13.7497 C72.0726,13.5867 72.0396,13.4797 72.0206,13.4277 C71.5516,13.8827 71.0506,14.2247 70.5166,14.4527 C69.9826,14.6807 69.4126,14.7947 68.8076,14.7947 C67.7406,14.7947 66.8986,14.5047 66.2836,13.9257 C65.6676,13.3457 65.3606,12.6137 65.3606,11.7277 C65.3606,11.1417 65.4996,10.6197 65.7806,10.1607 C66.0606,9.7017 66.4516,9.3507 66.9566,9.1057 C67.4616,8.8617 68.1896,8.6487 69.1396,8.4667 C70.4216,8.2257 71.3106,8.0007 71.8056,7.7927 L71.8056,7.5187 C71.8056,6.9917 71.6756,6.6157 71.4146,6.3917 C71.1546,6.1667 70.6626,6.0547 69.9406,6.0547 C69.4516,6.0547 69.0716,6.1507 68.7976,6.3427 C68.5246,6.5347 68.3026,6.8717 68.1336,7.3527 L68.1336,7.3527 Z"
          id="Fill-12"
        />
            </g>
            <g
        id="🌈-Europos"
        transform="translate(84.030100, 6.009600)"
        fill="#515560"
      >
                <polygon
          id="Fill-13"
          points="-3.90798505e-13 14.316 -3.90798505e-13 3.57047725e-13 10.615 3.57047725e-13 10.615 2.421 2.891 2.421 2.891 5.595 10.078 5.595 10.078 8.007 2.891 8.007 2.891 11.904 10.889 11.904 10.889 14.316"
        />
                <path
          d="M19.8662,14.316 L19.8662,12.763 C19.4882,13.317 18.9922,13.754 18.3772,14.072 C17.7622,14.391 17.1122,14.55 16.4282,14.55 C15.7322,14.55 15.1072,14.398 14.5542,14.091 C14.0002,13.786 13.5992,13.356 13.3522,12.802 C13.1052,12.25 12.9812,11.484 12.9812,10.507 L12.9812,3.945 L15.7252,3.945 L15.7252,8.711 C15.7252,10.17 15.7762,11.063 15.8772,11.391 C15.9772,11.72 16.1622,11.981 16.4282,12.172 C16.6952,12.365 17.0342,12.461 17.4442,12.461 C17.9132,12.461 18.3332,12.333 18.7042,12.075 C19.0752,11.818 19.3292,11.499 19.4662,11.118 C19.6022,10.737 19.6712,9.804 19.6712,8.32 L19.6712,3.945 L22.4152,3.945 L22.4152,14.316 L19.8662,14.316 Z"
          id="Fill-14"
        />
                <path
          d="M27.584,14.316 L24.84,14.316 L24.84,3.945 L27.389,3.945 L27.389,5.42 C27.825,4.723 28.217,4.264 28.565,4.043 C28.914,3.822 29.31,3.711 29.752,3.711 C30.377,3.711 30.98,3.883 31.559,4.228 L30.709,6.621 C30.247,6.322 29.817,6.171 29.42,6.171 C29.036,6.171 28.71,6.278 28.443,6.489 C28.177,6.701 27.967,7.084 27.813,7.636 C27.66,8.19 27.584,9.349 27.584,11.113 L27.584,14.316 Z"
          id="Fill-15"
        />
                <path
          d="M34.6182,9.1305 C34.6182,10.1595 34.8622,10.9465 35.3502,11.4935 C35.8392,12.0405 36.4412,12.3145 37.1572,12.3145 C37.8732,12.3145 38.4732,12.0405 38.9592,11.4935 C39.4442,10.9465 39.6862,10.1525 39.6862,9.1105 C39.6862,8.0955 39.4442,7.3145 38.9592,6.7675 C38.4732,6.2205 37.8732,5.9465 37.1572,5.9465 C36.4412,5.9465 35.8392,6.2205 35.3502,6.7675 C34.8622,7.3145 34.6182,8.1025 34.6182,9.1305 M31.8052,8.9845 C31.8052,8.0725 32.0302,7.1915 32.4792,6.3375 C32.9292,5.4845 33.5652,4.8335 34.3892,4.3845 C35.2122,3.9355 36.1322,3.7105 37.1472,3.7105 C38.7172,3.7105 40.0022,4.2205 41.0052,5.2385 C42.0082,6.2585 42.5092,7.5455 42.5092,9.1015 C42.5092,10.6705 42.0032,11.9715 40.9902,13.0025 C39.9772,14.0345 38.7032,14.5505 37.1672,14.5505 C36.2172,14.5505 35.3092,14.3355 34.4472,13.9055 C33.5852,13.4765 32.9292,12.8465 32.4792,12.0165 C32.0302,11.1865 31.8052,10.1755 31.8052,8.9845"
          id="Fill-16"
        />
                <path
          d="M46.9541,8.9547 C46.9541,10.1207 47.1851,10.9807 47.6471,11.5377 C48.1091,12.0947 48.6731,12.3727 49.3371,12.3727 C49.9751,12.3727 50.5061,12.1177 50.9291,11.6057 C51.3511,11.0957 51.5631,10.2577 51.5631,9.0917 C51.5631,8.0047 51.3461,7.1967 50.9091,6.6697 C50.4731,6.1417 49.9331,5.8787 49.2881,5.8787 C48.6171,5.8787 48.0601,6.1377 47.6181,6.6547 C47.1761,7.1727 46.9541,7.9387 46.9541,8.9547 L46.9541,8.9547 Z M44.2391,3.9447 L46.7981,3.9447 L46.7981,5.4687 C47.1301,4.9477 47.5791,4.5247 48.1451,4.1987 C48.7121,3.8737 49.3401,3.7107 50.0301,3.7107 C51.2341,3.7107 52.2571,4.1837 53.0971,5.1267 C53.9361,6.0707 54.3561,7.3867 54.3561,9.0717 C54.3561,10.8047 53.9331,12.1497 53.0871,13.1097 C52.2401,14.0707 51.2151,14.5507 50.0111,14.5507 C49.4371,14.5507 48.9191,14.4367 48.4531,14.2087 C47.9871,13.9807 47.4981,13.5907 46.9831,13.0367 L46.9831,18.2617 L44.2391,18.2617 L44.2391,3.9447 Z"
          id="Fill-17"
        />
                <path
          d="M58.5117,9.1305 C58.5117,10.1595 58.7557,10.9465 59.2437,11.4935 C59.7327,12.0405 60.3347,12.3145 61.0507,12.3145 C61.7667,12.3145 62.3667,12.0405 62.8527,11.4935 C63.3377,10.9465 63.5797,10.1525 63.5797,9.1105 C63.5797,8.0955 63.3377,7.3145 62.8527,6.7675 C62.3667,6.2205 61.7667,5.9465 61.0507,5.9465 C60.3347,5.9465 59.7327,6.2205 59.2437,6.7675 C58.7557,7.3145 58.5117,8.1025 58.5117,9.1305 M55.6987,8.9845 C55.6987,8.0725 55.9237,7.1915 56.3727,6.3375 C56.8227,5.4845 57.4587,4.8335 58.2827,4.3845 C59.1057,3.9355 60.0257,3.7105 61.0407,3.7105 C62.6107,3.7105 63.8957,4.2205 64.8987,5.2385 C65.9017,6.2585 66.4027,7.5455 66.4027,9.1015 C66.4027,10.6705 65.8967,11.9715 64.8837,13.0025 C63.8707,14.0345 62.5967,14.5505 61.0607,14.5505 C60.1107,14.5505 59.2027,14.3355 58.3407,13.9055 C57.4787,13.4765 56.8227,12.8465 56.3727,12.0165 C55.9237,11.1865 55.6987,10.1755 55.6987,8.9845"
          id="Fill-18"
        />
                <path
          d="M67.584,11.357 L70.338,10.937 C70.455,11.471 70.692,11.877 71.051,12.153 C71.409,12.43 71.91,12.568 72.555,12.568 C73.265,12.568 73.798,12.438 74.156,12.177 C74.397,11.996 74.518,11.752 74.518,11.445 C74.518,11.237 74.452,11.064 74.322,10.927 C74.186,10.797 73.88,10.677 73.404,10.566 C71.19,10.078 69.788,9.632 69.195,9.228 C68.375,8.669 67.965,7.89 67.965,6.894 C67.965,5.996 68.319,5.241 69.029,4.628 C69.739,4.017 70.839,3.711 72.33,3.711 C73.749,3.711 74.804,3.942 75.494,4.404 C76.185,4.867 76.659,5.55 76.92,6.455 L74.332,6.933 C74.222,6.53 74.012,6.22 73.702,6.005 C73.393,5.791 72.952,5.683 72.379,5.683 C71.656,5.683 71.139,5.785 70.826,5.986 C70.618,6.129 70.514,6.315 70.514,6.543 C70.514,6.738 70.605,6.904 70.787,7.041 C71.034,7.223 71.889,7.48 73.351,7.812 C74.813,8.144 75.833,8.551 76.412,9.033 C76.985,9.521 77.272,10.202 77.272,11.074 C77.272,12.025 76.874,12.841 76.08,13.525 C75.286,14.209 74.11,14.55 72.555,14.55 C71.142,14.55 70.023,14.264 69.2,13.691 C68.377,13.119 67.838,12.34 67.584,11.357"
          id="Fill-19"
        />
            </g>
        </g>
    </g>
</svg>
