<?xml version="1.0" encoding="UTF-8" ?>
<svg
  width="189px"
  height="48px"
  viewBox="0 0 189 48"
  version="1.1"
  xmlns="http://www.w3.org/2000/svg"
  xmlns:xlink="http://www.w3.org/1999/xlink"
>
    <!-- Generator: Sketch 64 (93537) - https://sketch.com -->
    <title>EU/EU-emblem/standard-version/positive/PL</title>
    <desc>Created with Sketch.</desc>
    <g
    id="EU/EU-emblem/standard-version/positive/PL"
    stroke="none"
    stroke-width="1"
    fill="none"
    fill-rule="evenodd"
  >
        <g id="EU-emblem_standard">
            <g id="EU/EU-emblem/flag/flag-positive">
                <g id="EU_flag">
                    <rect
            id="🌈-flag"
            fill="#003399"
            fill-rule="nonzero"
            x="0"
            y="0"
            width="72"
            height="48"
          />
                    <path
            d="M35.06,8.91 L33.54,7.8 L35.42,7.8 L36,6 L36.58,7.8 L38.46,7.8 L36.94,8.91 L37.52,10.72 L36,9.6 L34.48,10.72 L35.06,8.91 L35.06,8.91 Z M36.94,40.2 L37.52,42 L36,40.89 L34.48,42 L35.06,40.2 L33.54,39.09 L35.42,39.09 L36,37.28 L36.58,39.09 L38.46,39.09 L36.94,40.2 Z M20.46,25.2 L18.94,26.32 L19.52,24.52 L18,23.44 L19.88,23.44 L20.46,21.64 L21.04,23.44 L22.93,23.44 L21.4,24.56 L21.98,26.36 L20.46,25.24 L20.46,25.2 Z M29.17,11 L29.75,12.8 L28.23,11.7 L26.71,12.81 L27.29,11.01 L25.77,9.9 L27.65,9.9 L28.23,8.1 L28.81,9.9 L30.69,9.9 L29.17,11 Z M22,15.62 L22.58,13.82 L23.17,15.62 L25,15.62 L23.48,16.74 L24.06,18.54 L22.53,17.42 L21,18.54 L21.58,16.74 L20.06,15.62 L22,15.62 Z M20.08,31.26 L22,31.26 L22.58,29.46 L23.17,31.26 L25,31.26 L23.48,32.38 L24.06,34.18 L22.53,33.07 L21,34.18 L21.58,32.38 L20.06,31.26 L20.08,31.26 Z M27.29,38.1 L25.77,37 L27.65,37 L28.23,35.2 L28.81,37 L30.69,37 L29.17,38.1 L29.75,39.9 L28.23,38.79 L26.71,39.9 L27.29,38.1 Z M52.48,24.56 L53.06,26.36 L51.54,25.24 L50,26.36 L50.58,24.56 L49.05,23.44 L51,23.44 L51.58,21.64 L52.16,23.44 L54,23.44 L52.48,24.56 Z M42.83,11 L41.31,9.9 L43.19,9.9 L43.77,8.1 L44.35,9.9 L46.23,9.9 L44.71,11 L45.29,12.8 L43.77,11.7 L42.25,12.81 L42.83,11.01 L42.83,11 Z M48.83,15.61 L49.42,13.81 L50,15.61 L51.88,15.61 L50.4,16.74 L50.98,18.54 L49.46,17.42 L47.93,18.54 L48.51,16.74 L47,15.62 L48.83,15.61 Z M50,31.26 L51.88,31.26 L50.4,32.38 L50.98,34.18 L49.46,33.07 L47.93,34.18 L48.51,32.38 L47,31.26 L48.88,31.26 L49.47,29.46 L50.05,31.26 L50,31.26 Z M46.23,37 L44.71,38.1 L45.29,39.9 L43.77,38.79 L42.25,39.9 L42.83,38.1 L41.31,37 L43.19,37 L43.77,35.2 L44.35,37 L46.23,37 Z"
            id="🌈-stars"
            fill="#FFCC00"
            fill-rule="nonzero"
          />
                </g>
            </g>
            <g
        id="🌈-Europejska"
        transform="translate(84.038500, 27.689000)"
        fill="#515560"
      >
                <polygon
          id="Fill-3"
          points="-3.90798505e-13 14.3165 -3.90798505e-13 0.0005 10.615 0.0005 10.615 2.4215 2.891 2.4215 2.891 5.5955 10.078 5.5955 10.078 8.0075 2.891 8.0075 2.891 11.9045 10.889 11.9045 10.889 14.3165"
        />
                <path
          d="M19.8662,14.3165 L19.8662,12.7635 C19.4882,13.3165 18.9922,13.7535 18.3772,14.0725 C17.7622,14.3915 17.1122,14.5505 16.4282,14.5505 C15.7322,14.5505 15.1072,14.3985 14.5542,14.0915 C14.0002,13.7855 13.5992,13.3565 13.3522,12.8025 C13.1052,12.2495 12.9812,11.4845 12.9812,10.5075 L12.9812,3.9455 L15.7252,3.9455 L15.7252,8.7115 C15.7252,10.1695 15.7762,11.0635 15.8772,11.3915 C15.9772,11.7205 16.1622,11.9815 16.4282,12.1725 C16.6952,12.3645 17.0342,12.4615 17.4442,12.4615 C17.9132,12.4615 18.3332,12.3325 18.7042,12.0755 C19.0752,11.8175 19.3292,11.4995 19.4662,11.1185 C19.6022,10.7375 19.6712,9.8045 19.6712,8.3205 L19.6712,3.9455 L22.4152,3.9455 L22.4152,14.3165 L19.8662,14.3165 Z"
          id="Fill-4"
        />
                <path
          d="M27.5839,14.3165 L24.8399,14.3165 L24.8399,3.9455 L27.3889,3.9455 L27.3889,5.4205 C27.8249,4.7235 28.2169,4.2645 28.5649,4.0435 C28.9139,3.8215 29.3099,3.7115 29.7519,3.7115 C30.3769,3.7115 30.9799,3.8835 31.5589,4.2285 L30.7089,6.6215 C30.2469,6.3215 29.8169,6.1715 29.4199,6.1715 C29.0359,6.1715 28.7099,6.2775 28.4429,6.4895 C28.1769,6.7005 27.9669,7.0835 27.8129,7.6365 C27.6599,8.1905 27.5839,9.3495 27.5839,11.1135 L27.5839,14.3165 Z"
          id="Fill-6"
        />
                <path
          d="M34.6181,9.1309 C34.6181,10.1599 34.8621,10.9469 35.3501,11.4939 C35.8391,12.0409 36.4411,12.3149 37.1571,12.3149 C37.8731,12.3149 38.4731,12.0409 38.9591,11.4939 C39.4441,10.9469 39.6861,10.1529 39.6861,9.1109 C39.6861,8.0959 39.4441,7.3149 38.9591,6.7679 C38.4731,6.2209 37.8731,5.9469 37.1571,5.9469 C36.4411,5.9469 35.8391,6.2209 35.3501,6.7679 C34.8621,7.3149 34.6181,8.1019 34.6181,9.1309 M31.8051,8.9849 C31.8051,8.0729 32.0301,7.1909 32.4791,6.3379 C32.9291,5.4849 33.5651,4.8339 34.3891,4.3849 C35.2121,3.9359 36.1321,3.7109 37.1471,3.7109 C38.7171,3.7109 40.0021,4.2199 41.0051,5.2389 C42.0081,6.2579 42.5091,7.5459 42.5091,9.1019 C42.5091,10.6709 42.0031,11.9709 40.9901,13.0029 C39.9771,14.0349 38.7031,14.5509 37.1671,14.5509 C36.2171,14.5509 35.3091,14.3359 34.4471,13.9059 C33.5851,13.4769 32.9291,12.8469 32.4791,12.0169 C32.0301,11.1869 31.8051,10.1759 31.8051,8.9849"
          id="Fill-8"
        />
                <path
          d="M46.954,8.9552 C46.954,10.1212 47.185,10.9812 47.647,11.5382 C48.109,12.0952 48.673,12.3732 49.337,12.3732 C49.975,12.3732 50.506,12.1182 50.929,11.6062 C51.351,11.0952 51.563,10.2572 51.563,9.0922 C51.563,8.0042 51.346,7.1972 50.909,6.6702 C50.473,6.1422 49.933,5.8792 49.288,5.8792 C48.617,5.8792 48.06,6.1382 47.618,6.6552 C47.176,7.1732 46.954,7.9392 46.954,8.9552 L46.954,8.9552 Z M44.239,3.9452 L46.798,3.9452 L46.798,5.4692 C47.13,4.9482 47.579,4.5252 48.145,4.1992 C48.712,3.8732 49.34,3.7112 50.03,3.7112 C51.234,3.7112 52.257,4.1832 53.097,5.1272 C53.936,6.0712 54.356,7.3862 54.356,9.0722 C54.356,10.8042 53.933,12.1502 53.087,13.1102 C52.24,14.0712 51.215,14.5512 50.011,14.5512 C49.437,14.5512 48.919,14.4372 48.453,14.2092 C47.987,13.9812 47.498,13.5902 46.983,13.0372 L46.983,18.2622 L44.239,18.2622 L44.239,3.9452 Z"
          id="Fill-10"
        />
                <path
          d="M62.496,8.2423 C62.476,7.4483 62.271,6.8443 61.881,6.4303 C61.49,6.0173 61.015,5.8103 60.455,5.8103 C59.856,5.8103 59.361,6.0293 58.971,6.4653 C58.58,6.9013 58.388,7.4933 58.394,8.2423 L62.496,8.2423 Z M62.34,11.0153 L65.074,11.4743 C64.723,12.4773 64.168,13.2413 63.409,13.7643 C62.65,14.2883 61.702,14.5513 60.562,14.5513 C58.759,14.5513 57.425,13.9613 56.559,12.7833 C55.875,11.8393 55.533,10.6483 55.533,9.2093 C55.533,7.4903 55.982,6.1443 56.881,5.1713 C57.779,4.1983 58.915,3.7113 60.289,3.7113 C61.832,3.7113 63.05,4.2203 63.941,5.2393 C64.833,6.2583 65.26,7.8193 65.221,9.9223 L58.346,9.9223 C58.365,10.7363 58.587,11.3683 59.01,11.8213 C59.433,12.2743 59.96,12.5003 60.592,12.5003 C61.021,12.5003 61.383,12.3833 61.676,12.1483 C61.969,11.9143 62.19,11.5363 62.34,11.0153 L62.34,11.0153 Z"
          id="Fill-12"
        />
                <path
          d="M67.3985,2.539 L70.1425,2.539 L70.1425,-1.81188398e-13 L67.3985,-1.81188398e-13 L67.3985,2.539 Z M70.1425,3.945 L70.1425,13.994 C70.1425,15.316 70.0565,16.249 69.8835,16.792 C69.7105,17.336 69.3785,17.76 68.8875,18.066 C68.3965,18.373 67.7695,18.525 67.0075,18.525 C66.7345,18.525 66.4395,18.501 66.1235,18.452 C65.8085,18.403 65.4675,18.33 65.1035,18.233 L65.5815,15.889 C65.7115,15.915 65.8335,15.936 65.9485,15.952 C66.0625,15.968 66.1675,15.977 66.2655,15.977 C66.5455,15.977 66.7755,15.917 66.9545,15.796 C67.1325,15.675 67.2515,15.531 67.3105,15.361 C67.3695,15.192 67.3985,14.684 67.3985,13.838 L67.3985,3.945 L70.1425,3.945 Z"
          id="Fill-14"
        />
                <path
          d="M72.0468,11.3575 L74.8008,10.9375 C74.9178,11.4715 75.1548,11.8765 75.5138,12.1535 C75.8718,12.4305 76.3728,12.5685 77.0178,12.5685 C77.7278,12.5685 78.2608,12.4385 78.6188,12.1775 C78.8598,11.9955 78.9808,11.7515 78.9808,11.4455 C78.9808,11.2365 78.9148,11.0645 78.7848,10.9275 C78.6488,10.7975 78.3428,10.6775 77.8668,10.5665 C75.6528,10.0785 74.2508,9.6325 73.6578,9.2285 C72.8378,8.6685 72.4278,7.8905 72.4278,6.8945 C72.4278,5.9965 72.7818,5.2405 73.4918,4.6285 C74.2018,4.0175 75.3018,3.7115 76.7928,3.7115 C78.2118,3.7115 79.2668,3.9415 79.9568,4.4045 C80.6478,4.8665 81.1218,5.5505 81.3828,6.4555 L78.7948,6.9335 C78.6848,6.5295 78.4748,6.2205 78.1648,6.0055 C77.8558,5.7915 77.4148,5.6835 76.8418,5.6835 C76.1188,5.6835 75.6018,5.7845 75.2888,5.9865 C75.0808,6.1295 74.9768,6.3155 74.9768,6.5435 C74.9768,6.7385 75.0678,6.9045 75.2498,7.0415 C75.4968,7.2235 76.3518,7.4805 77.8138,7.8125 C79.2758,8.1445 80.2958,8.5515 80.8748,9.0335 C81.4478,9.5215 81.7348,10.2015 81.7348,11.0745 C81.7348,12.0245 81.3368,12.8415 80.5428,13.5255 C79.7488,14.2095 78.5728,14.5505 77.0178,14.5505 C75.6048,14.5505 74.4858,14.2645 73.6628,13.6915 C72.8398,13.1185 72.3008,12.3405 72.0468,11.3575"
          id="Fill-16"
        />
                <polygon
          id="Fill-17"
          points="83.6386 14.3165 83.6386 0.0005 86.3826 0.0005 86.3826 7.5975 89.5956 3.9455 92.9746 3.9455 89.4296 7.7345 93.2286 14.3165 90.2696 14.3165 87.6616 9.6585 86.3826 10.9965 86.3826 14.3165"
        />
                <path
          d="M100.582,9.336 C100.23,9.453 99.674,9.593 98.912,9.756 C98.15,9.919 97.652,10.078 97.418,10.234 C97.06,10.488 96.881,10.811 96.881,11.201 C96.881,11.586 97.024,11.918 97.311,12.197 C97.597,12.477 97.962,12.617 98.404,12.617 C98.899,12.617 99.371,12.455 99.82,12.129 C100.152,11.881 100.37,11.579 100.475,11.221 C100.546,10.986 100.582,10.541 100.582,9.883 L100.582,9.336 Z M96.91,7.109 L94.42,6.66 C94.7,5.658 95.182,4.916 95.865,4.434 C96.549,3.952 97.564,3.711 98.912,3.711 C100.136,3.711 101.048,3.856 101.646,4.146 C102.245,4.435 102.667,4.803 102.911,5.249 C103.155,5.695 103.277,6.514 103.277,7.705 L103.248,10.908 C103.248,11.82 103.292,12.492 103.38,12.925 C103.468,13.358 103.632,13.822 103.873,14.316 L101.158,14.316 C101.087,14.134 100.999,13.864 100.894,13.506 C100.849,13.343 100.816,13.236 100.797,13.184 C100.328,13.639 99.827,13.981 99.293,14.209 C98.759,14.437 98.189,14.551 97.584,14.551 C96.517,14.551 95.675,14.261 95.06,13.682 C94.444,13.102 94.137,12.37 94.137,11.484 C94.137,10.898 94.276,10.376 94.557,9.917 C94.837,9.458 95.228,9.107 95.733,8.862 C96.238,8.618 96.966,8.405 97.916,8.223 C99.198,7.982 100.087,7.757 100.582,7.549 L100.582,7.275 C100.582,6.748 100.452,6.372 100.191,6.148 C99.931,5.923 99.439,5.811 98.717,5.811 C98.228,5.811 97.848,5.907 97.574,6.099 C97.301,6.291 97.079,6.628 96.91,7.109 L96.91,7.109 Z"
          id="Fill-18"
        />
            </g>
            <g
        id="🌈-Unia"
        transform="translate(84.011100, 6.009000)"
        fill="#515560"
      >
                <path
          d="M-3.69482223e-13,0.0004 L2.891,0.0004 L2.891,7.7544 C2.891,8.9844 2.927,9.7824 2.998,10.1464 C3.122,10.7324 3.416,11.2034 3.882,11.5584 C4.348,11.9134 4.983,12.0904 5.791,12.0904 C6.611,12.0904 7.229,11.9224 7.646,11.5874 C8.063,11.2514 8.313,10.8404 8.398,10.3524 C8.483,9.8634 8.525,9.0534 8.525,7.9204 L8.525,0.0004 L11.416,0.0004 L11.416,7.5204 C11.416,9.2384 11.338,10.4534 11.182,11.1624 C11.025,11.8724 10.737,12.4714 10.317,12.9594 C9.897,13.4474 9.336,13.8364 8.633,14.1264 C7.93,14.4164 7.012,14.5614 5.879,14.5614 C4.512,14.5614 3.475,14.4034 2.769,14.0874 C2.063,13.7714 1.504,13.3614 1.094,12.8564 C0.684,12.3524 0.413,11.8234 0.283,11.2704 C0.095,10.4494 -3.69482223e-13,9.2384 -3.69482223e-13,7.6374 L-3.69482223e-13,0.0004 Z"
          id="Fill-19"
        />
                <path
          d="M23.2774,14.3168 L20.5334,14.3168 L20.5334,9.0238 C20.5334,7.9038 20.4744,7.1798 20.3574,6.8508 C20.2404,6.5228 20.0494,6.2668 19.7864,6.0848 C19.5224,5.9018 19.2054,5.8108 18.8344,5.8108 C18.3584,5.8108 17.9324,5.9418 17.5544,6.2018 C17.1764,6.4618 16.9184,6.8068 16.7784,7.2368 C16.6384,7.6668 16.5684,8.4608 16.5684,9.6198 L16.5684,14.3168 L13.8244,14.3168 L13.8244,3.9458 L16.3734,3.9458 L16.3734,5.4688 C17.2784,4.2968 18.4174,3.7118 19.7914,3.7118 C20.3964,3.7118 20.9504,3.8198 21.4514,4.0388 C21.9524,4.2568 22.3324,4.5348 22.5894,4.8738 C22.8454,5.2118 23.0254,5.5958 23.1264,6.0258 C23.2264,6.4558 23.2774,7.0708 23.2774,7.8718 L23.2774,14.3168 Z"
          id="Fill-20"
        />
                <path
          d="M25.5609,14.317 L28.3049,14.317 L28.3049,3.946 L25.5609,3.946 L25.5609,14.317 Z M25.5609,2.539 L28.3049,2.539 L28.3049,-4.51194637e-13 L25.5609,-4.51194637e-13 L25.5609,2.539 Z"
          id="Fill-21"
        />
                <path
          d="M36.5391,9.3363 C36.1871,9.4533 35.6311,9.5933 34.8691,9.7563 C34.1071,9.9193 33.6091,10.0783 33.3751,10.2343 C33.0171,10.4883 32.8381,10.8113 32.8381,11.2013 C32.8381,11.5863 32.9811,11.9183 33.2681,12.1973 C33.5541,12.4773 33.9191,12.6173 34.3611,12.6173 C34.8561,12.6173 35.3281,12.4553 35.7771,12.1293 C36.1091,11.8813 36.3271,11.5793 36.4321,11.2213 C36.5031,10.9863 36.5391,10.5413 36.5391,9.8833 L36.5391,9.3363 Z M32.8671,7.1093 L30.3771,6.6603 C30.6571,5.6583 31.1391,4.9163 31.8221,4.4343 C32.5061,3.9523 33.5211,3.7113 34.8691,3.7113 C36.0931,3.7113 37.0051,3.8563 37.6031,4.1463 C38.2021,4.4353 38.6241,4.8033 38.8681,5.2493 C39.1121,5.6953 39.2341,6.5143 39.2341,7.7053 L39.2051,10.9083 C39.2051,11.8203 39.2491,12.4923 39.3371,12.9253 C39.4251,13.3583 39.5891,13.8223 39.8301,14.3163 L37.1151,14.3163 C37.0441,14.1343 36.9561,13.8643 36.8511,13.5063 C36.8061,13.3433 36.7731,13.2363 36.7541,13.1843 C36.2851,13.6393 35.7841,13.9813 35.2501,14.2093 C34.7161,14.4373 34.1461,14.5513 33.5411,14.5513 C32.4741,14.5513 31.6321,14.2613 31.0171,13.6823 C30.4011,13.1023 30.0941,12.3703 30.0941,11.4843 C30.0941,10.8983 30.2331,10.3763 30.5141,9.9173 C30.7941,9.4583 31.1851,9.1073 31.6901,8.8623 C32.1951,8.6183 32.9231,8.4053 33.8731,8.2233 C35.1551,7.9823 36.0441,7.7573 36.5391,7.5493 L36.5391,7.2753 C36.5391,6.7483 36.4091,6.3723 36.1481,6.1483 C35.8881,5.9233 35.3961,5.8113 34.6741,5.8113 C34.1851,5.8113 33.8051,5.9073 33.5311,6.0993 C33.2581,6.2913 33.0361,6.6283 32.8671,7.1093 L32.8671,7.1093 Z"
          id="Fill-22"
        />
            </g>
        </g>
    </g>
</svg>
