<?xml version="1.0" encoding="UTF-8" ?>
<svg
  width="173px"
  height="48px"
  viewBox="0 0 173 48"
  version="1.1"
  xmlns="http://www.w3.org/2000/svg"
  xmlns:xlink="http://www.w3.org/1999/xlink"
>
    <!-- Generator: Sketch 64 (93537) - https://sketch.com -->
    <title>EU/EU-emblem/standard-version/positive/NL</title>
    <desc>Created with Sketch.</desc>
    <g
    id="EU/EU-emblem/standard-version/positive/NL"
    stroke="none"
    stroke-width="1"
    fill="none"
    fill-rule="evenodd"
  >
        <g id="EU-emblem_standard">
            <g id="EU/EU-emblem/flag/flag-positive">
                <g id="EU_flag">
                    <rect
            id="🌈-flag"
            fill="#003399"
            fill-rule="nonzero"
            x="0"
            y="0"
            width="72"
            height="48"
          />
                    <path
            d="M35.06,8.91 L33.54,7.8 L35.42,7.8 L36,6 L36.58,7.8 L38.46,7.8 L36.94,8.91 L37.52,10.72 L36,9.6 L34.48,10.72 L35.06,8.91 L35.06,8.91 Z M36.94,40.2 L37.52,42 L36,40.89 L34.48,42 L35.06,40.2 L33.54,39.09 L35.42,39.09 L36,37.28 L36.58,39.09 L38.46,39.09 L36.94,40.2 Z M20.46,25.2 L18.94,26.32 L19.52,24.52 L18,23.44 L19.88,23.44 L20.46,21.64 L21.04,23.44 L22.93,23.44 L21.4,24.56 L21.98,26.36 L20.46,25.24 L20.46,25.2 Z M29.17,11 L29.75,12.8 L28.23,11.7 L26.71,12.81 L27.29,11.01 L25.77,9.9 L27.65,9.9 L28.23,8.1 L28.81,9.9 L30.69,9.9 L29.17,11 Z M22,15.62 L22.58,13.82 L23.17,15.62 L25,15.62 L23.48,16.74 L24.06,18.54 L22.53,17.42 L21,18.54 L21.58,16.74 L20.06,15.62 L22,15.62 Z M20.08,31.26 L22,31.26 L22.58,29.46 L23.17,31.26 L25,31.26 L23.48,32.38 L24.06,34.18 L22.53,33.07 L21,34.18 L21.58,32.38 L20.06,31.26 L20.08,31.26 Z M27.29,38.1 L25.77,37 L27.65,37 L28.23,35.2 L28.81,37 L30.69,37 L29.17,38.1 L29.75,39.9 L28.23,38.79 L26.71,39.9 L27.29,38.1 Z M52.48,24.56 L53.06,26.36 L51.54,25.24 L50,26.36 L50.58,24.56 L49.05,23.44 L51,23.44 L51.58,21.64 L52.16,23.44 L54,23.44 L52.48,24.56 Z M42.83,11 L41.31,9.9 L43.19,9.9 L43.77,8.1 L44.35,9.9 L46.23,9.9 L44.71,11 L45.29,12.8 L43.77,11.7 L42.25,12.81 L42.83,11.01 L42.83,11 Z M48.83,15.61 L49.42,13.81 L50,15.61 L51.88,15.61 L50.4,16.74 L50.98,18.54 L49.46,17.42 L47.93,18.54 L48.51,16.74 L47,15.62 L48.83,15.61 Z M50,31.26 L51.88,31.26 L50.4,32.38 L50.98,34.18 L49.46,33.07 L47.93,34.18 L48.51,32.38 L47,31.26 L48.88,31.26 L49.47,29.46 L50.05,31.26 L50,31.26 Z M46.23,37 L44.71,38.1 L45.29,39.9 L43.77,38.79 L42.25,39.9 L42.83,38.1 L41.31,37 L43.19,37 L43.77,35.2 L44.35,37 L46.23,37 Z"
            id="🌈-stars"
            fill="#FFCC00"
            fill-rule="nonzero"
          />
                </g>
            </g>
            <g
        id="🌈-Unie"
        transform="translate(84.018600, 27.689000)"
        fill="#515560"
      >
                <path
          d="M-3.69482223e-13,0.000199999999 L2.891,0.000199999999 L2.891,7.7542 C2.891,8.9842 2.928,9.7822 2.998,10.1462 C3.123,10.7322 3.416,11.2032 3.883,11.5582 C4.348,11.9132 4.984,12.0902 5.791,12.0902 C6.611,12.0902 7.23,11.9222 7.646,11.5872 C8.064,11.2512 8.314,10.8402 8.398,10.3522 C8.484,9.8632 8.525,9.0532 8.525,7.9202 L8.525,0.000199999999 L11.416,0.000199999999 L11.416,7.5202 C11.416,9.2382 11.338,10.4532 11.182,11.1622 C11.025,11.8722 10.738,12.4712 10.318,12.9592 C9.898,13.4472 9.336,13.8362 8.633,14.1262 C7.93,14.4162 7.012,14.5612 5.879,14.5612 C4.512,14.5612 3.475,14.4032 2.77,14.0872 C2.063,13.7712 1.504,13.3612 1.094,12.8562 C0.684,12.3522 0.414,11.8232 0.283,11.2702 C0.096,10.4492 -3.69482223e-13,9.2382 -3.69482223e-13,7.6372 L-3.69482223e-13,0.000199999999 Z"
          id="Fill-3"
        />
                <path
          d="M23.2773,14.3166 L20.5333,14.3166 L20.5333,9.0236 C20.5333,7.9036 20.4743,7.1796 20.3573,6.8506 C20.2403,6.5226 20.0503,6.2666 19.7873,6.0846 C19.5233,5.9016 19.2053,5.8106 18.8343,5.8106 C18.3593,5.8106 17.9333,5.9416 17.5543,6.2016 C17.1773,6.4616 16.9183,6.8066 16.7793,7.2366 C16.6383,7.6666 16.5683,8.4606 16.5683,9.6196 L16.5683,14.3166 L13.8243,14.3166 L13.8243,3.9456 L16.3733,3.9456 L16.3733,5.4686 C17.2793,4.2966 18.4183,3.7116 19.7913,3.7116 C20.3963,3.7116 20.9513,3.8196 21.4513,4.0386 C21.9533,4.2566 22.3323,4.5346 22.5903,4.8736 C22.8453,5.2116 23.0253,5.5956 23.1273,6.0256 C23.2263,6.4556 23.2773,7.0706 23.2773,7.8716 L23.2773,14.3166 Z"
          id="Fill-5"
        />
                <path
          d="M25.5604,14.317 L28.3044,14.317 L28.3044,3.946 L25.5604,3.946 L25.5604,14.317 Z M25.5604,2.539 L28.3044,2.539 L28.3044,-4.50306459e-13 L25.5604,-4.50306459e-13 L25.5604,2.539 Z"
          id="Fill-7"
        />
                <path
          d="M36.9785,8.2424 C36.9585,7.4484 36.7535,6.8444 36.3635,6.4304 C35.9725,6.0174 35.4985,5.8104 34.9375,5.8104 C34.3395,5.8104 33.8435,6.0294 33.4535,6.4654 C33.0625,6.9014 32.8715,7.4934 32.8765,8.2424 L36.9785,8.2424 Z M36.8225,11.0154 L39.5565,11.4744 C39.2055,12.4774 38.6505,13.2414 37.8925,13.7644 C37.1325,14.2884 36.1855,14.5514 35.0445,14.5514 C33.2425,14.5514 31.9085,13.9614 31.0415,12.7834 C30.3575,11.8394 30.0155,10.6484 30.0155,9.2094 C30.0155,7.4904 30.4645,6.1444 31.3635,5.1714 C32.2615,4.1984 33.3985,3.7114 34.7715,3.7114 C36.3145,3.7114 37.5335,4.2204 38.4235,5.2394 C39.3165,6.2584 39.7425,7.8194 39.7035,9.9224 L32.8285,9.9224 C32.8475,10.7364 33.0705,11.3684 33.4925,11.8214 C33.9155,12.2744 34.4435,12.5004 35.0745,12.5004 C35.5035,12.5004 35.8655,12.3834 36.1585,12.1484 C36.4515,11.9144 36.6735,11.5364 36.8225,11.0154 L36.8225,11.0154 Z"
          id="Fill-9"
        />
            </g>
            <g
        id="🌈-Europese"
        transform="translate(84.030300, 6.009900)"
        fill="#515560"
      >
                <polygon
          id="Fill-10"
          points="-3.90798505e-13 14.316 -3.90798505e-13 3.55271368e-13 10.615 3.55271368e-13 10.615 2.421 2.891 2.421 2.891 5.595 10.078 5.595 10.078 8.007 2.891 8.007 2.891 11.904 10.889 11.904 10.889 14.316"
        />
                <path
          d="M19.8662,14.316 L19.8662,12.763 C19.4882,13.316 18.9922,13.753 18.3772,14.072 C17.7622,14.391 17.1122,14.55 16.4282,14.55 C15.7322,14.55 15.1072,14.398 14.5542,14.091 C14.0002,13.785 13.5992,13.356 13.3522,12.802 C13.1052,12.249 12.9812,11.484 12.9812,10.507 L12.9812,3.945 L15.7252,3.945 L15.7252,8.711 C15.7252,10.169 15.7762,11.063 15.8772,11.391 C15.9772,11.72 16.1622,11.981 16.4282,12.172 C16.6952,12.364 17.0342,12.461 17.4442,12.461 C17.9132,12.461 18.3332,12.332 18.7042,12.075 C19.0752,11.817 19.3292,11.499 19.4662,11.118 C19.6022,10.737 19.6712,9.804 19.6712,8.32 L19.6712,3.945 L22.4152,3.945 L22.4152,14.316 L19.8662,14.316 Z"
          id="Fill-11"
        />
                <path
          d="M27.584,14.316 L24.84,14.316 L24.84,3.945 L27.389,3.945 L27.389,5.42 C27.825,4.723 28.217,4.264 28.565,4.043 C28.914,3.821 29.31,3.711 29.752,3.711 C30.377,3.711 30.98,3.883 31.559,4.228 L30.709,6.621 C30.247,6.321 29.817,6.171 29.42,6.171 C29.036,6.171 28.71,6.277 28.443,6.489 C28.177,6.7 27.967,7.083 27.813,7.636 C27.66,8.19 27.584,9.349 27.584,11.113 L27.584,14.316 Z"
          id="Fill-12"
        />
                <path
          d="M34.6182,9.1305 C34.6182,10.1595 34.8622,10.9465 35.3502,11.4935 C35.8392,12.0405 36.4412,12.3145 37.1572,12.3145 C37.8732,12.3145 38.4732,12.0405 38.9592,11.4935 C39.4442,10.9465 39.6862,10.1525 39.6862,9.1105 C39.6862,8.0955 39.4442,7.3145 38.9592,6.7675 C38.4732,6.2205 37.8732,5.9465 37.1572,5.9465 C36.4412,5.9465 35.8392,6.2205 35.3502,6.7675 C34.8622,7.3145 34.6182,8.1015 34.6182,9.1305 M31.8052,8.9845 C31.8052,8.0725 32.0302,7.1905 32.4792,6.3375 C32.9292,5.4845 33.5652,4.8335 34.3892,4.3845 C35.2122,3.9355 36.1322,3.7105 37.1472,3.7105 C38.7172,3.7105 40.0022,4.2195 41.0052,5.2385 C42.0082,6.2575 42.5092,7.5455 42.5092,9.1015 C42.5092,10.6705 42.0032,11.9705 40.9902,13.0025 C39.9772,14.0345 38.7032,14.5505 37.1672,14.5505 C36.2172,14.5505 35.3092,14.3355 34.4472,13.9055 C33.5852,13.4765 32.9292,12.8465 32.4792,12.0165 C32.0302,11.1865 31.8052,10.1755 31.8052,8.9845"
          id="Fill-13"
        />
                <path
          d="M46.9541,8.9547 C46.9541,10.1207 47.1851,10.9807 47.6471,11.5377 C48.1091,12.0947 48.6731,12.3727 49.3371,12.3727 C49.9751,12.3727 50.5061,12.1177 50.9291,11.6057 C51.3511,11.0947 51.5631,10.2567 51.5631,9.0917 C51.5631,8.0037 51.3461,7.1967 50.9091,6.6697 C50.4731,6.1417 49.9331,5.8787 49.2881,5.8787 C48.6171,5.8787 48.0601,6.1377 47.6181,6.6547 C47.1761,7.1727 46.9541,7.9387 46.9541,8.9547 L46.9541,8.9547 Z M44.2391,3.9447 L46.7981,3.9447 L46.7981,5.4687 C47.1301,4.9477 47.5791,4.5247 48.1451,4.1987 C48.7121,3.8727 49.3401,3.7107 50.0301,3.7107 C51.2341,3.7107 52.2571,4.1827 53.0971,5.1267 C53.9361,6.0707 54.3561,7.3857 54.3561,9.0717 C54.3561,10.8037 53.9331,12.1497 53.0871,13.1097 C52.2401,14.0707 51.2151,14.5507 50.0111,14.5507 C49.4371,14.5507 48.9191,14.4367 48.4531,14.2087 C47.9871,13.9807 47.4981,13.5897 46.9831,13.0367 L46.9831,18.2617 L44.2391,18.2617 L44.2391,3.9447 Z"
          id="Fill-14"
        />
                <path
          d="M62.4961,8.2418 C62.4761,7.4478 62.2711,6.8438 61.8811,6.4298 C61.4901,6.0168 61.0151,5.8098 60.4551,5.8098 C59.8561,5.8098 59.3611,6.0288 58.9711,6.4648 C58.5801,6.9008 58.3881,7.4928 58.3941,8.2418 L62.4961,8.2418 Z M62.3401,11.0148 L65.0741,11.4738 C64.7231,12.4768 64.1681,13.2408 63.4091,13.7638 C62.6501,14.2878 61.7021,14.5508 60.5621,14.5508 C58.7591,14.5508 57.4251,13.9608 56.5591,12.7828 C55.8751,11.8388 55.5331,10.6478 55.5331,9.2088 C55.5331,7.4898 55.9821,6.1438 56.8811,5.1708 C57.7791,4.1978 58.9151,3.7108 60.2891,3.7108 C61.8321,3.7108 63.0501,4.2198 63.9411,5.2388 C64.8331,6.2578 65.2601,7.8188 65.2211,9.9218 L58.3461,9.9218 C58.3651,10.7358 58.5871,11.3678 59.0101,11.8208 C59.4331,12.2738 59.9601,12.4998 60.5921,12.4998 C61.0211,12.4998 61.3831,12.3828 61.6761,12.1478 C61.9691,11.9138 62.1901,11.5358 62.3401,11.0148 L62.3401,11.0148 Z"
          id="Fill-15"
        />
                <path
          d="M66.4902,11.357 L69.2442,10.937 C69.3612,11.471 69.5982,11.876 69.9572,12.153 C70.3152,12.43 70.8162,12.568 71.4612,12.568 C72.1712,12.568 72.7042,12.438 73.0622,12.177 C73.3032,11.995 73.4242,11.751 73.4242,11.445 C73.4242,11.236 73.3582,11.064 73.2282,10.927 C73.0922,10.797 72.7862,10.677 72.3102,10.566 C70.0962,10.078 68.6942,9.632 68.1012,9.228 C67.2812,8.668 66.8712,7.89 66.8712,6.894 C66.8712,5.996 67.2252,5.24 67.9352,4.628 C68.6452,4.017 69.7452,3.711 71.2362,3.711 C72.6552,3.711 73.7102,3.941 74.4002,4.404 C75.0912,4.866 75.5652,5.55 75.8262,6.455 L73.2382,6.933 C73.1282,6.529 72.9182,6.22 72.6082,6.005 C72.2992,5.791 71.8582,5.683 71.2852,5.683 C70.5622,5.683 70.0452,5.784 69.7322,5.986 C69.5242,6.129 69.4202,6.315 69.4202,6.543 C69.4202,6.738 69.5112,6.904 69.6932,7.041 C69.9402,7.223 70.7952,7.48 72.2572,7.812 C73.7192,8.144 74.7392,8.551 75.3182,9.033 C75.8912,9.521 76.1782,10.201 76.1782,11.074 C76.1782,12.024 75.7802,12.841 74.9862,13.525 C74.1922,14.209 73.0162,14.55 71.4612,14.55 C70.0482,14.55 68.9292,14.264 68.1062,13.691 C67.2832,13.118 66.7442,12.34 66.4902,11.357"
          id="Fill-16"
        />
                <path
          d="M84.4424,8.2418 C84.4224,7.4478 84.2174,6.8438 83.8274,6.4298 C83.4364,6.0168 82.9614,5.8098 82.4014,5.8098 C81.8024,5.8098 81.3074,6.0288 80.9174,6.4648 C80.5264,6.9008 80.3344,7.4928 80.3404,8.2418 L84.4424,8.2418 Z M84.2864,11.0148 L87.0204,11.4738 C86.6694,12.4768 86.1144,13.2408 85.3554,13.7638 C84.5964,14.2878 83.6484,14.5508 82.5084,14.5508 C80.7054,14.5508 79.3714,13.9608 78.5054,12.7828 C77.8214,11.8388 77.4794,10.6478 77.4794,9.2088 C77.4794,7.4898 77.9284,6.1438 78.8274,5.1708 C79.7254,4.1978 80.8614,3.7108 82.2354,3.7108 C83.7784,3.7108 84.9964,4.2198 85.8874,5.2388 C86.7794,6.2578 87.2064,7.8188 87.1674,9.9218 L80.2924,9.9218 C80.3114,10.7358 80.5334,11.3678 80.9564,11.8208 C81.3794,12.2738 81.9064,12.4998 82.5384,12.4998 C82.9674,12.4998 83.3294,12.3828 83.6224,12.1478 C83.9154,11.9138 84.1364,11.5358 84.2864,11.0148 L84.2864,11.0148 Z"
          id="Fill-17"
        />
            </g>
        </g>
    </g>
</svg>
