<?xml version="1.0" encoding="UTF-8" ?>
<svg
  width="172px"
  height="48px"
  viewBox="0 0 172 48"
  version="1.1"
  xmlns="http://www.w3.org/2000/svg"
  xmlns:xlink="http://www.w3.org/1999/xlink"
>
    <!-- Generator: Sketch 64 (93537) - https://sketch.com -->
    <title>EU/EU-emblem/standard-version/positive/SL</title>
    <desc>Created with Sketch.</desc>
    <g
    id="EU/EU-emblem/standard-version/positive/SL"
    stroke="none"
    stroke-width="1"
    fill="none"
    fill-rule="evenodd"
  >
        <g id="EU-emblem_standard">
            <g id="EU/EU-emblem/flag/flag-positive">
                <g id="EU_flag">
                    <rect
            id="🌈-flag"
            fill="#003399"
            fill-rule="nonzero"
            x="0"
            y="0"
            width="72"
            height="48"
          />
                    <path
            d="M35.06,8.91 L33.54,7.8 L35.42,7.8 L36,6 L36.58,7.8 L38.46,7.8 L36.94,8.91 L37.52,10.72 L36,9.6 L34.48,10.72 L35.06,8.91 L35.06,8.91 Z M36.94,40.2 L37.52,42 L36,40.89 L34.48,42 L35.06,40.2 L33.54,39.09 L35.42,39.09 L36,37.28 L36.58,39.09 L38.46,39.09 L36.94,40.2 Z M20.46,25.2 L18.94,26.32 L19.52,24.52 L18,23.44 L19.88,23.44 L20.46,21.64 L21.04,23.44 L22.93,23.44 L21.4,24.56 L21.98,26.36 L20.46,25.24 L20.46,25.2 Z M29.17,11 L29.75,12.8 L28.23,11.7 L26.71,12.81 L27.29,11.01 L25.77,9.9 L27.65,9.9 L28.23,8.1 L28.81,9.9 L30.69,9.9 L29.17,11 Z M22,15.62 L22.58,13.82 L23.17,15.62 L25,15.62 L23.48,16.74 L24.06,18.54 L22.53,17.42 L21,18.54 L21.58,16.74 L20.06,15.62 L22,15.62 Z M20.08,31.26 L22,31.26 L22.58,29.46 L23.17,31.26 L25,31.26 L23.48,32.38 L24.06,34.18 L22.53,33.07 L21,34.18 L21.58,32.38 L20.06,31.26 L20.08,31.26 Z M27.29,38.1 L25.77,37 L27.65,37 L28.23,35.2 L28.81,37 L30.69,37 L29.17,38.1 L29.75,39.9 L28.23,38.79 L26.71,39.9 L27.29,38.1 Z M52.48,24.56 L53.06,26.36 L51.54,25.24 L50,26.36 L50.58,24.56 L49.05,23.44 L51,23.44 L51.58,21.64 L52.16,23.44 L54,23.44 L52.48,24.56 Z M42.83,11 L41.31,9.9 L43.19,9.9 L43.77,8.1 L44.35,9.9 L46.23,9.9 L44.71,11 L45.29,12.8 L43.77,11.7 L42.25,12.81 L42.83,11.01 L42.83,11 Z M48.83,15.61 L49.42,13.81 L50,15.61 L51.88,15.61 L50.4,16.74 L50.98,18.54 L49.46,17.42 L47.93,18.54 L48.51,16.74 L47,15.62 L48.83,15.61 Z M50,31.26 L51.88,31.26 L50.4,32.38 L50.98,34.18 L49.46,33.07 L47.93,34.18 L48.51,32.38 L47,31.26 L48.88,31.26 L49.47,29.46 L50.05,31.26 L50,31.26 Z M46.23,37 L44.71,38.1 L45.29,39.9 L43.77,38.79 L42.25,39.9 L42.83,38.1 L41.31,37 L43.19,37 L43.77,35.2 L44.35,37 L46.23,37 Z"
            id="🌈-stars"
            fill="#FFCC00"
            fill-rule="nonzero"
          />
                </g>
            </g>
            <g
        id="🌈-unija"
        transform="translate(83.960600, 27.689000)"
        fill="#515560"
      >
                <path
          d="M6.885,14.3169 L6.885,12.7639 C6.507,13.3169 6.011,13.7539 5.396,14.0729 C4.781,14.3919 4.131,14.5509 3.447,14.5509 C2.751,14.5509 2.126,14.3989 1.573,14.0919 C1.019,13.7859 0.618,13.3569 0.371,12.8029 C0.124,12.2499 -3.62376795e-13,11.4849 -3.62376795e-13,10.5079 L-3.62376795e-13,3.9459 L2.744,3.9459 L2.744,8.7119 C2.744,10.1699 2.795,11.0639 2.896,11.3919 C2.996,11.7209 3.181,11.9819 3.447,12.1729 C3.714,12.3649 4.053,12.4619 4.463,12.4619 C4.932,12.4619 5.352,12.3329 5.723,12.0759 C6.094,11.8179 6.348,11.4999 6.485,11.1189 C6.621,10.7379 6.69,9.8049 6.69,8.3209 L6.69,3.9459 L9.434,3.9459 L9.434,14.3169 L6.885,14.3169 Z"
          id="Fill-3"
        />
                <path
          d="M21.4094,14.3169 L18.6654,14.3169 L18.6654,9.0239 C18.6654,7.9039 18.6064,7.1799 18.4894,6.8509 C18.3724,6.5229 18.1814,6.2669 17.9184,6.0849 C17.6544,5.9019 17.3374,5.8109 16.9664,5.8109 C16.4904,5.8109 16.0644,5.9419 15.6864,6.2019 C15.3084,6.4619 15.0504,6.8069 14.9104,7.2369 C14.7704,7.6669 14.7004,8.4609 14.7004,9.6199 L14.7004,14.3169 L11.9564,14.3169 L11.9564,3.9459 L14.5054,3.9459 L14.5054,5.4689 C15.4104,4.2969 16.5494,3.7119 17.9234,3.7119 C18.5284,3.7119 19.0824,3.8199 19.5834,4.0389 C20.0844,4.2569 20.4644,4.5349 20.7214,4.8739 C20.9774,5.2119 21.1574,5.5959 21.2584,6.0259 C21.3584,6.4559 21.4094,7.0709 21.4094,7.8719 L21.4094,14.3169 Z"
          id="Fill-5"
        />
                <path
          d="M23.9924,14.317 L26.7364,14.317 L26.7364,3.946 L23.9924,3.946 L23.9924,14.317 Z M23.9924,2.539 L26.7364,2.539 L26.7364,-4.50306459e-13 L23.9924,-4.50306459e-13 L23.9924,2.539 Z"
          id="Fill-7"
        />
                <path
          d="M29.4904,2.539 L32.2344,2.539 L32.2344,-7.99360578e-14 L29.4904,-7.99360578e-14 L29.4904,2.539 Z M32.2344,3.946 L32.2344,13.995 C32.2344,15.316 32.1484,16.249 31.9754,16.792 C31.8034,17.336 31.4714,17.761 30.9794,18.067 C30.4884,18.373 29.8614,18.526 29.0994,18.526 C28.8264,18.526 28.5314,18.501 28.2164,18.453 C27.9004,18.404 27.5594,18.331 27.1954,18.233 L27.6744,15.889 C27.8044,15.915 27.9264,15.937 28.0404,15.953 C28.1544,15.969 28.2604,15.977 28.3574,15.977 C28.6374,15.977 28.8674,15.917 29.0464,15.796 C29.2244,15.676 29.3444,15.531 29.4024,15.362 C29.4614,15.192 29.4904,14.685 29.4904,13.838 L29.4904,3.946 L32.2344,3.946 Z"
          id="Fill-9"
        />
                <path
          d="M40.8283,9.3364 C40.4763,9.4534 39.9203,9.5934 39.1583,9.7564 C38.3963,9.9194 37.8983,10.0784 37.6643,10.2344 C37.3063,10.4884 37.1273,10.8114 37.1273,11.2014 C37.1273,11.5864 37.2703,11.9184 37.5573,12.1974 C37.8433,12.4774 38.2083,12.6174 38.6503,12.6174 C39.1453,12.6174 39.6173,12.4554 40.0663,12.1294 C40.3983,11.8814 40.6163,11.5794 40.7213,11.2214 C40.7923,10.9864 40.8283,10.5414 40.8283,9.8834 L40.8283,9.3364 Z M37.1563,7.1094 L34.6663,6.6604 C34.9463,5.6584 35.4283,4.9164 36.1113,4.4344 C36.7953,3.9524 37.8103,3.7114 39.1583,3.7114 C40.3823,3.7114 41.2943,3.8564 41.8923,4.1464 C42.4913,4.4354 42.9133,4.8034 43.1573,5.2494 C43.4013,5.6954 43.5233,6.5144 43.5233,7.7054 L43.4943,10.9084 C43.4943,11.8204 43.5383,12.4924 43.6263,12.9254 C43.7143,13.3584 43.8783,13.8224 44.1193,14.3164 L41.4043,14.3164 C41.3333,14.1344 41.2453,13.8644 41.1403,13.5064 C41.0953,13.3434 41.0623,13.2364 41.0433,13.1844 C40.5743,13.6394 40.0733,13.9814 39.5393,14.2094 C39.0053,14.4374 38.4353,14.5514 37.8303,14.5514 C36.7633,14.5514 35.9213,14.2614 35.3063,13.6824 C34.6903,13.1024 34.3833,12.3704 34.3833,11.4844 C34.3833,10.8984 34.5223,10.3764 34.8033,9.9174 C35.0833,9.4584 35.4743,9.1074 35.9793,8.8624 C36.4843,8.6184 37.2123,8.4054 38.1623,8.2234 C39.4443,7.9824 40.3333,7.7574 40.8283,7.5494 L40.8283,7.2754 C40.8283,6.7484 40.6983,6.3724 40.4373,6.1484 C40.1773,5.9234 39.6853,5.8114 38.9633,5.8114 C38.4743,5.8114 38.0943,5.9074 37.8203,6.0994 C37.5473,6.2914 37.3253,6.6284 37.1563,7.1094 L37.1563,7.1094 Z"
          id="Fill-10"
        />
            </g>
            <g
        id="🌈-Evropska"
        transform="translate(84.030100, 6.009700)"
        fill="#515560"
      >
                <polygon
          id="Fill-11"
          points="-3.90798505e-13 14.316 -3.90798505e-13 3.55271368e-13 10.615 3.55271368e-13 10.615 2.421 2.891 2.421 2.891 5.595 10.078 5.595 10.078 8.007 2.891 8.007 2.891 11.904 10.889 11.904 10.889 14.316"
        />
                <path
          d="M15.8916,14.316 L11.7116,3.945 L14.5926,3.945 L16.5456,9.238 L17.1126,11.005 C17.2616,10.556 17.3566,10.26 17.3956,10.117 C17.4866,9.824 17.5836,9.531 17.6886,9.238 L19.6616,3.945 L22.4836,3.945 L18.3626,14.316 L15.8916,14.316 Z"
          id="Fill-12"
        />
                <path
          d="M26.9903,14.316 L24.2463,14.316 L24.2463,3.945 L26.7953,3.945 L26.7953,5.42 C27.2313,4.723 27.6233,4.264 27.9713,4.043 C28.3203,3.821 28.7163,3.711 29.1583,3.711 C29.7833,3.711 30.3863,3.883 30.9653,4.228 L30.1153,6.621 C29.6533,6.321 29.2233,6.171 28.8263,6.171 C28.4423,6.171 28.1163,6.277 27.8493,6.489 C27.5833,6.7 27.3733,7.083 27.2193,7.636 C27.0663,8.19 26.9903,9.349 26.9903,11.113 L26.9903,14.316 Z"
          id="Fill-13"
        />
                <path
          d="M34.0245,9.1305 C34.0245,10.1595 34.2685,10.9465 34.7565,11.4935 C35.2455,12.0405 35.8475,12.3145 36.5635,12.3145 C37.2795,12.3145 37.8795,12.0405 38.3655,11.4935 C38.8505,10.9465 39.0925,10.1525 39.0925,9.1105 C39.0925,8.0955 38.8505,7.3145 38.3655,6.7675 C37.8795,6.2205 37.2795,5.9465 36.5635,5.9465 C35.8475,5.9465 35.2455,6.2205 34.7565,6.7675 C34.2685,7.3145 34.0245,8.1015 34.0245,9.1305 M31.2115,8.9845 C31.2115,8.0725 31.4365,7.1905 31.8855,6.3375 C32.3355,5.4845 32.9715,4.8335 33.7955,4.3845 C34.6185,3.9355 35.5385,3.7105 36.5535,3.7105 C38.1235,3.7105 39.4085,4.2195 40.4115,5.2385 C41.4145,6.2575 41.9155,7.5455 41.9155,9.1015 C41.9155,10.6705 41.4095,11.9705 40.3965,13.0025 C39.3835,14.0345 38.1095,14.5505 36.5735,14.5505 C35.6235,14.5505 34.7155,14.3355 33.8535,13.9055 C32.9915,13.4765 32.3355,12.8465 31.8855,12.0165 C31.4365,11.1865 31.2115,10.1755 31.2115,8.9845"
          id="Fill-14"
        />
                <path
          d="M46.3604,8.9547 C46.3604,10.1207 46.5914,10.9807 47.0534,11.5377 C47.5154,12.0947 48.0794,12.3727 48.7434,12.3727 C49.3814,12.3727 49.9124,12.1177 50.3354,11.6057 C50.7574,11.0947 50.9694,10.2567 50.9694,9.0917 C50.9694,8.0037 50.7524,7.1967 50.3154,6.6697 C49.8794,6.1417 49.3394,5.8787 48.6944,5.8787 C48.0234,5.8787 47.4664,6.1377 47.0244,6.6547 C46.5824,7.1727 46.3604,7.9387 46.3604,8.9547 L46.3604,8.9547 Z M43.6454,3.9447 L46.2044,3.9447 L46.2044,5.4687 C46.5364,4.9477 46.9854,4.5247 47.5514,4.1987 C48.1184,3.8727 48.7464,3.7107 49.4364,3.7107 C50.6404,3.7107 51.6634,4.1827 52.5034,5.1267 C53.3424,6.0707 53.7624,7.3857 53.7624,9.0717 C53.7624,10.8037 53.3394,12.1497 52.4934,13.1097 C51.6464,14.0707 50.6214,14.5507 49.4174,14.5507 C48.8434,14.5507 48.3254,14.4367 47.8594,14.2087 C47.3934,13.9807 46.9044,13.5897 46.3894,13.0367 L46.3894,18.2617 L43.6454,18.2617 L43.6454,3.9447 Z"
          id="Fill-15"
        />
                <path
          d="M54.7735,11.357 L57.5275,10.937 C57.6445,11.471 57.8815,11.876 58.2405,12.153 C58.5985,12.43 59.0995,12.568 59.7445,12.568 C60.4545,12.568 60.9875,12.438 61.3455,12.177 C61.5865,11.995 61.7075,11.751 61.7075,11.445 C61.7075,11.236 61.6415,11.064 61.5115,10.927 C61.3755,10.797 61.0695,10.677 60.5935,10.566 C58.3795,10.078 56.9775,9.632 56.3845,9.228 C55.5645,8.668 55.1545,7.89 55.1545,6.894 C55.1545,5.996 55.5085,5.24 56.2185,4.628 C56.9285,4.017 58.0285,3.711 59.5195,3.711 C60.9385,3.711 61.9935,3.941 62.6835,4.404 C63.3745,4.866 63.8485,5.55 64.1095,6.455 L61.5215,6.933 C61.4115,6.529 61.2015,6.22 60.8915,6.005 C60.5825,5.791 60.1415,5.683 59.5685,5.683 C58.8455,5.683 58.3285,5.784 58.0155,5.986 C57.8075,6.129 57.7035,6.315 57.7035,6.543 C57.7035,6.738 57.7945,6.904 57.9765,7.041 C58.2235,7.223 59.0785,7.48 60.5405,7.812 C62.0025,8.144 63.0225,8.551 63.6015,9.033 C64.1745,9.521 64.4615,10.201 64.4615,11.074 C64.4615,12.024 64.0635,12.841 63.2695,13.525 C62.4755,14.209 61.2995,14.55 59.7445,14.55 C58.3315,14.55 57.2125,14.264 56.3895,13.691 C55.5665,13.118 55.0275,12.34 54.7735,11.357"
          id="Fill-16"
        />
                <polygon
          id="Fill-17"
          points="66.3653 14.316 66.3653 3.55271368e-13 69.1093 3.55271368e-13 69.1093 7.597 72.3223 3.945 75.7013 3.945 72.1563 7.734 75.9553 14.316 72.9963 14.316 70.3883 9.658 69.1093 10.996 69.1093 14.316"
        />
                <path
          d="M83.3086,9.3356 C82.9566,9.4526 82.4006,9.5926 81.6386,9.7556 C80.8766,9.9186 80.3786,10.0776 80.1446,10.2336 C79.7866,10.4876 79.6076,10.8106 79.6076,11.2006 C79.6076,11.5856 79.7506,11.9176 80.0376,12.1966 C80.3236,12.4766 80.6886,12.6166 81.1306,12.6166 C81.6256,12.6166 82.0976,12.4546 82.5466,12.1286 C82.8786,11.8806 83.0966,11.5786 83.2016,11.2206 C83.2726,10.9856 83.3086,10.5406 83.3086,9.8826 L83.3086,9.3356 Z M79.6366,7.1086 L77.1466,6.6596 C77.4266,5.6576 77.9086,4.9156 78.5916,4.4336 C79.2756,3.9516 80.2906,3.7106 81.6386,3.7106 C82.8626,3.7106 83.7746,3.8556 84.3726,4.1456 C84.9716,4.4346 85.3936,4.8026 85.6376,5.2486 C85.8816,5.6946 86.0036,6.5136 86.0036,7.7046 L85.9746,10.9076 C85.9746,11.8196 86.0186,12.4916 86.1066,12.9246 C86.1946,13.3576 86.3586,13.8216 86.5996,14.3156 L83.8846,14.3156 C83.8136,14.1336 83.7256,13.8636 83.6206,13.5056 C83.5756,13.3426 83.5426,13.2356 83.5236,13.1836 C83.0546,13.6386 82.5536,13.9806 82.0196,14.2086 C81.4856,14.4366 80.9156,14.5506 80.3106,14.5506 C79.2436,14.5506 78.4016,14.2606 77.7866,13.6816 C77.1706,13.1016 76.8636,12.3696 76.8636,11.4836 C76.8636,10.8976 77.0026,10.3756 77.2836,9.9166 C77.5636,9.4576 77.9546,9.1066 78.4596,8.8616 C78.9646,8.6176 79.6926,8.4046 80.6426,8.2226 C81.9246,7.9816 82.8136,7.7566 83.3086,7.5486 L83.3086,7.2746 C83.3086,6.7476 83.1786,6.3716 82.9176,6.1476 C82.6576,5.9226 82.1656,5.8106 81.4436,5.8106 C80.9546,5.8106 80.5746,5.9066 80.3006,6.0986 C80.0276,6.2906 79.8056,6.6276 79.6366,7.1086 L79.6366,7.1086 Z"
          id="Fill-18"
        />
            </g>
        </g>
    </g>
</svg>
