<?xml version="1.0" encoding="UTF-8" ?>
<svg
  width="166px"
  height="48px"
  viewBox="0 0 166 48"
  version="1.1"
  xmlns="http://www.w3.org/2000/svg"
  xmlns:xlink="http://www.w3.org/1999/xlink"
>
    <!-- Generator: Sketch 64 (93537) - https://sketch.com -->
    <title>EU/EU-emblem/standard-version/positive/MT</title>
    <desc>Created with Sketch.</desc>
    <g
    id="EU/EU-emblem/standard-version/positive/MT"
    stroke="none"
    stroke-width="1"
    fill="none"
    fill-rule="evenodd"
  >
        <g id="EU-emblem_standard">
            <g id="EU/EU-emblem/flag/flag-positive">
                <g id="EU_flag">
                    <rect
            id="🌈-flag"
            fill="#003399"
            fill-rule="nonzero"
            x="0"
            y="0"
            width="72"
            height="48"
          />
                    <path
            d="M35.06,8.91 L33.54,7.8 L35.42,7.8 L36,6 L36.58,7.8 L38.46,7.8 L36.94,8.91 L37.52,10.72 L36,9.6 L34.48,10.72 L35.06,8.91 L35.06,8.91 Z M36.94,40.2 L37.52,42 L36,40.89 L34.48,42 L35.06,40.2 L33.54,39.09 L35.42,39.09 L36,37.28 L36.58,39.09 L38.46,39.09 L36.94,40.2 Z M20.46,25.2 L18.94,26.32 L19.52,24.52 L18,23.44 L19.88,23.44 L20.46,21.64 L21.04,23.44 L22.93,23.44 L21.4,24.56 L21.98,26.36 L20.46,25.24 L20.46,25.2 Z M29.17,11 L29.75,12.8 L28.23,11.7 L26.71,12.81 L27.29,11.01 L25.77,9.9 L27.65,9.9 L28.23,8.1 L28.81,9.9 L30.69,9.9 L29.17,11 Z M22,15.62 L22.58,13.82 L23.17,15.62 L25,15.62 L23.48,16.74 L24.06,18.54 L22.53,17.42 L21,18.54 L21.58,16.74 L20.06,15.62 L22,15.62 Z M20.08,31.26 L22,31.26 L22.58,29.46 L23.17,31.26 L25,31.26 L23.48,32.38 L24.06,34.18 L22.53,33.07 L21,34.18 L21.58,32.38 L20.06,31.26 L20.08,31.26 Z M27.29,38.1 L25.77,37 L27.65,37 L28.23,35.2 L28.81,37 L30.69,37 L29.17,38.1 L29.75,39.9 L28.23,38.79 L26.71,39.9 L27.29,38.1 Z M52.48,24.56 L53.06,26.36 L51.54,25.24 L50,26.36 L50.58,24.56 L49.05,23.44 L51,23.44 L51.58,21.64 L52.16,23.44 L54,23.44 L52.48,24.56 Z M42.83,11 L41.31,9.9 L43.19,9.9 L43.77,8.1 L44.35,9.9 L46.23,9.9 L44.71,11 L45.29,12.8 L43.77,11.7 L42.25,12.81 L42.83,11.01 L42.83,11 Z M48.83,15.61 L49.42,13.81 L50,15.61 L51.88,15.61 L50.4,16.74 L50.98,18.54 L49.46,17.42 L47.93,18.54 L48.51,16.74 L47,15.62 L48.83,15.61 Z M50,31.26 L51.88,31.26 L50.4,32.38 L50.98,34.18 L49.46,33.07 L47.93,34.18 L48.51,32.38 L47,31.26 L48.88,31.26 L49.47,29.46 L50.05,31.26 L50,31.26 Z M46.23,37 L44.71,38.1 L45.29,39.9 L43.77,38.79 L42.25,39.9 L42.83,38.1 L41.31,37 L43.19,37 L43.77,35.2 L44.35,37 L46.23,37 Z"
            id="🌈-stars"
            fill="#FFCC00"
            fill-rule="nonzero"
          />
                </g>
            </g>
            <g
        id="🌈-Ewropea"
        transform="translate(84.039000, 27.689900)"
        fill="#515560"
      >
                <polygon
          id="Fill-3"
          points="0 14.316 0 0 10.615 0 10.615 2.421 2.891 2.421 2.891 5.595 10.078 5.595 10.078 8.007 2.891 8.007 2.891 11.904 10.889 11.904 10.889 14.316"
        />
                <polygon
          id="Fill-4"
          points="15.2539 14.316 11.9729 3.945 14.6389 3.945 16.5819 10.742 18.3689 3.945 21.0159 3.945 22.7439 10.742 24.7269 3.945 27.4319 3.945 24.1019 14.316 21.4649 14.316 19.6779 7.646 17.9199 14.316"
        />
                <path
          d="M31.5039,14.316 L28.7599,14.316 L28.7599,3.945 L31.3089,3.945 L31.3089,5.42 C31.7449,4.723 32.1369,4.264 32.4849,4.043 C32.8339,3.821 33.2299,3.711 33.6719,3.711 C34.2969,3.711 34.8999,3.883 35.4789,4.228 L34.6289,6.621 C34.1669,6.321 33.7369,6.171 33.3399,6.171 C32.9559,6.171 32.6299,6.277 32.3629,6.489 C32.0969,6.7 31.8869,7.083 31.7329,7.636 C31.5799,8.19 31.5039,9.349 31.5039,11.113 L31.5039,14.316 Z"
          id="Fill-5"
        />
                <path
          d="M38.5381,9.1304 C38.5381,10.1594 38.7821,10.9464 39.2701,11.4934 C39.7591,12.0404 40.3611,12.3144 41.0771,12.3144 C41.7931,12.3144 42.3931,12.0404 42.8791,11.4934 C43.3641,10.9464 43.6061,10.1524 43.6061,9.1104 C43.6061,8.0954 43.3641,7.3144 42.8791,6.7674 C42.3931,6.2204 41.7931,5.9464 41.0771,5.9464 C40.3611,5.9464 39.7591,6.2204 39.2701,6.7674 C38.7821,7.3144 38.5381,8.1014 38.5381,9.1304 M35.7251,8.9844 C35.7251,8.0724 35.9501,7.1904 36.3991,6.3374 C36.8491,5.4844 37.4851,4.8334 38.3091,4.3844 C39.1321,3.9354 40.0521,3.7104 41.0671,3.7104 C42.6371,3.7104 43.9221,4.2194 44.9251,5.2384 C45.9281,6.2574 46.4291,7.5454 46.4291,9.1014 C46.4291,10.6704 45.9231,11.9704 44.9101,13.0024 C43.8971,14.0344 42.6231,14.5504 41.0871,14.5504 C40.1371,14.5504 39.2291,14.3354 38.3671,13.9054 C37.5051,13.4764 36.8491,12.8464 36.3991,12.0164 C35.9501,11.1864 35.7251,10.1754 35.7251,8.9844"
          id="Fill-7"
        />
                <path
          d="M50.8741,8.9547 C50.8741,10.1207 51.1051,10.9807 51.5671,11.5377 C52.0291,12.0947 52.5931,12.3727 53.2571,12.3727 C53.8951,12.3727 54.4261,12.1177 54.8491,11.6057 C55.2711,11.0947 55.4831,10.2567 55.4831,9.0917 C55.4831,8.0037 55.2661,7.1967 54.8291,6.6697 C54.3931,6.1417 53.8531,5.8787 53.2081,5.8787 C52.5371,5.8787 51.9801,6.1377 51.5381,6.6547 C51.0961,7.1727 50.8741,7.9387 50.8741,8.9547 L50.8741,8.9547 Z M48.1591,3.9447 L50.7181,3.9447 L50.7181,5.4687 C51.0501,4.9477 51.4991,4.5247 52.0651,4.1987 C52.6321,3.8727 53.2601,3.7107 53.9501,3.7107 C55.1541,3.7107 56.1771,4.1827 57.0171,5.1267 C57.8561,6.0707 58.2761,7.3857 58.2761,9.0717 C58.2761,10.8037 57.8531,12.1497 57.0071,13.1097 C56.1601,14.0707 55.1351,14.5507 53.9311,14.5507 C53.3571,14.5507 52.8391,14.4367 52.3731,14.2087 C51.9071,13.9807 51.4181,13.5897 50.9031,13.0367 L50.9031,18.2617 L48.1591,18.2617 L48.1591,3.9447 Z"
          id="Fill-9"
        />
                <path
          d="M66.416,8.2418 C66.396,7.4478 66.191,6.8438 65.801,6.4298 C65.41,6.0168 64.935,5.8098 64.375,5.8098 C63.776,5.8098 63.281,6.0288 62.891,6.4648 C62.5,6.9008 62.308,7.4928 62.314,8.2418 L66.416,8.2418 Z M66.26,11.0148 L68.994,11.4738 C68.643,12.4768 68.088,13.2408 67.329,13.7638 C66.57,14.2878 65.622,14.5508 64.482,14.5508 C62.679,14.5508 61.345,13.9608 60.479,12.7828 C59.795,11.8388 59.453,10.6478 59.453,9.2088 C59.453,7.4898 59.902,6.1438 60.801,5.1708 C61.699,4.1978 62.835,3.7108 64.209,3.7108 C65.752,3.7108 66.97,4.2198 67.861,5.2388 C68.753,6.2578 69.18,7.8188 69.141,9.9218 L62.266,9.9218 C62.285,10.7358 62.507,11.3678 62.93,11.8208 C63.353,12.2738 63.88,12.4998 64.512,12.4998 C64.941,12.4998 65.303,12.3828 65.596,12.1478 C65.889,11.9138 66.11,11.5358 66.26,11.0148 L66.26,11.0148 Z"
          id="Fill-11"
        />
                <path
          d="M77.0996,9.3355 C76.7476,9.4525 76.1916,9.5925 75.4296,9.7555 C74.6676,9.9185 74.1696,10.0775 73.9356,10.2335 C73.5776,10.4875 73.3986,10.8105 73.3986,11.2005 C73.3986,11.5855 73.5416,11.9175 73.8286,12.1965 C74.1146,12.4765 74.4796,12.6165 74.9216,12.6165 C75.4166,12.6165 75.8886,12.4545 76.3376,12.1285 C76.6696,11.8805 76.8876,11.5785 76.9926,11.2205 C77.0636,10.9855 77.0996,10.5405 77.0996,9.8825 L77.0996,9.3355 Z M73.4276,7.1085 L70.9376,6.6595 C71.2176,5.6575 71.6996,4.9155 72.3826,4.4335 C73.0666,3.9515 74.0816,3.7105 75.4296,3.7105 C76.6536,3.7105 77.5656,3.8555 78.1636,4.1455 C78.7626,4.4345 79.1846,4.8025 79.4286,5.2485 C79.6726,5.6945 79.7946,6.5135 79.7946,7.7045 L79.7656,10.9075 C79.7656,11.8195 79.8096,12.4915 79.8976,12.9245 C79.9856,13.3575 80.1496,13.8215 80.3906,14.3155 L77.6756,14.3155 C77.6046,14.1335 77.5166,13.8635 77.4116,13.5055 C77.3666,13.3425 77.3336,13.2355 77.3146,13.1835 C76.8456,13.6385 76.3446,13.9805 75.8106,14.2085 C75.2766,14.4365 74.7066,14.5505 74.1016,14.5505 C73.0346,14.5505 72.1926,14.2605 71.5776,13.6815 C70.9616,13.1015 70.6546,12.3695 70.6546,11.4835 C70.6546,10.8975 70.7936,10.3755 71.0746,9.9165 C71.3546,9.4575 71.7456,9.1065 72.2506,8.8615 C72.7556,8.6175 73.4836,8.4045 74.4336,8.2225 C75.7156,7.9815 76.6046,7.7565 77.0996,7.5485 L77.0996,7.2745 C77.0996,6.7475 76.9696,6.3715 76.7086,6.1475 C76.4486,5.9225 75.9566,5.8105 75.2346,5.8105 C74.7456,5.8105 74.3656,5.9065 74.0916,6.0985 C73.8186,6.2905 73.5966,6.6275 73.4276,7.1085 L73.4276,7.1085 Z"
          id="Fill-13"
        />
            </g>
            <g
        id="🌈-l-Unjoni-"
        transform="translate(83.108400, 5.009000)"
        fill="#515560"
      >
                <path
          d="M0.8916,15.3074063 L0.8916,0.991 L3.63574062,0.991 L3.63574062,15.3074063 L0.8916,15.3074063 Z M6.13574062,11.4890469 L6.13574062,8.74490625 L11.5263656,8.74490625 L11.5263656,11.4890469 L6.13574062,11.4890469 Z"
          id="l-"
          fill-rule="nonzero"
        />
                <path
          d="M13.8916,1.0003 L16.7826,1.0003 L16.7826,8.7543 C16.7826,9.9843 16.8186,10.7823 16.8896,11.1463 C17.0136,11.7323 17.3076,12.2033 17.7736,12.5583 C18.2396,12.9133 18.8746,13.0903 19.6826,13.0903 C20.5026,13.0903 21.1206,12.9223 21.5376,12.5873 C21.9546,12.2513 22.2046,11.8403 22.2896,11.3523 C22.3746,10.8633 22.4166,10.0533 22.4166,8.9203 L22.4166,1.0003 L25.3076,1.0003 L25.3076,8.5203 C25.3076,10.2383 25.2296,11.4533 25.0736,12.1623 C24.9166,12.8723 24.6286,13.4713 24.2086,13.9593 C23.7886,14.4473 23.2276,14.8363 22.5246,15.1263 C21.8216,15.4163 20.9036,15.5613 19.7706,15.5613 C18.4036,15.5613 17.3666,15.4033 16.6606,15.0873 C15.9546,14.7713 15.3956,14.3613 14.9856,13.8563 C14.5756,13.3523 14.3046,12.8233 14.1746,12.2703 C13.9866,11.4493 13.8916,10.2383 13.8916,8.6373 L13.8916,1.0003 Z"
          id="Fill-19"
        />
                <path
          d="M37.1689,15.3167 L34.4249,15.3167 L34.4249,10.0237 C34.4249,8.9037 34.3659,8.1797 34.2489,7.8507 C34.1319,7.5227 33.9409,7.2667 33.6779,7.0847 C33.4139,6.9017 33.0969,6.8107 32.7259,6.8107 C32.2499,6.8107 31.8239,6.9417 31.4459,7.2017 C31.0679,7.4617 30.8099,7.8067 30.6699,8.2367 C30.5299,8.6667 30.4599,9.4607 30.4599,10.6197 L30.4599,15.3167 L27.7159,15.3167 L27.7159,4.9457 L30.2649,4.9457 L30.2649,6.4687 C31.1699,5.2967 32.3089,4.7117 33.6829,4.7117 C34.2879,4.7117 34.8419,4.8197 35.3429,5.0387 C35.8439,5.2567 36.2239,5.5347 36.4809,5.8737 C36.7369,6.2117 36.9169,6.5957 37.0179,7.0257 C37.1179,7.4557 37.1689,8.0707 37.1689,8.8717 L37.1689,15.3167 Z"
          id="Fill-20"
        />
                <path
          d="M39.3939,3.539 L42.1379,3.539 L42.1379,1 L39.3939,1 L39.3939,3.539 Z M42.1379,4.946 L42.1379,14.994 C42.1379,16.316 42.0519,17.249 41.8789,17.792 C41.7059,18.336 41.3739,18.761 40.8829,19.067 C40.3919,19.373 39.7649,19.526 39.0029,19.526 C38.7299,19.526 38.4349,19.501 38.1189,19.452 C37.8039,19.404 37.4629,19.33 37.0989,19.233 L37.5769,16.889 C37.7069,16.915 37.8289,16.936 37.9429,16.952 C38.0579,16.969 38.1629,16.977 38.2609,16.977 C38.5409,16.977 38.7709,16.917 38.9489,16.796 C39.1279,16.676 39.2469,16.531 39.3059,16.362 C39.3639,16.192 39.3939,15.684 39.3939,14.838 L39.3939,4.946 L42.1379,4.946 Z"
          id="Fill-21"
        />
                <path
          d="M46.6865,10.1312 C46.6865,11.1602 46.9305,11.9472 47.4185,12.4942 C47.9075,13.0412 48.5095,13.3152 49.2255,13.3152 C49.9415,13.3152 50.5415,13.0412 51.0275,12.4942 C51.5125,11.9472 51.7545,11.1532 51.7545,10.1112 C51.7545,9.0962 51.5125,8.3152 51.0275,7.7682 C50.5415,7.2212 49.9415,6.9472 49.2255,6.9472 C48.5095,6.9472 47.9075,7.2212 47.4185,7.7682 C46.9305,8.3152 46.6865,9.1022 46.6865,10.1312 M43.8735,9.9852 C43.8735,9.0732 44.0985,8.1912 44.5475,7.3382 C44.9975,6.4852 45.6335,5.8342 46.4575,5.3852 C47.2805,4.9362 48.2005,4.7112 49.2155,4.7112 C50.7855,4.7112 52.0705,5.2202 53.0735,6.2392 C54.0765,7.2582 54.5775,8.5462 54.5775,10.1022 C54.5775,11.6712 54.0715,12.9712 53.0585,14.0032 C52.0455,15.0352 50.7715,15.5512 49.2355,15.5512 C48.2855,15.5512 47.3775,15.3362 46.5155,14.9062 C45.6535,14.4772 44.9975,13.8472 44.5475,13.0172 C44.0985,12.1872 43.8735,11.1762 43.8735,9.9852"
          id="Fill-22"
        />
                <path
          d="M65.6591,15.3167 L62.9151,15.3167 L62.9151,10.0237 C62.9151,8.9037 62.8561,8.1797 62.7391,7.8507 C62.6221,7.5227 62.4311,7.2667 62.1681,7.0847 C61.9041,6.9017 61.5871,6.8107 61.2161,6.8107 C60.7401,6.8107 60.3141,6.9417 59.9361,7.2017 C59.5581,7.4617 59.3001,7.8067 59.1601,8.2367 C59.0201,8.6667 58.9501,9.4607 58.9501,10.6197 L58.9501,15.3167 L56.2061,15.3167 L56.2061,4.9457 L58.7551,4.9457 L58.7551,6.4687 C59.6601,5.2967 60.7991,4.7117 62.1731,4.7117 C62.7781,4.7117 63.3321,4.8197 63.8331,5.0387 C64.3341,5.2567 64.7141,5.5347 64.9711,5.8737 C65.2271,6.2117 65.4071,6.5957 65.5081,7.0257 C65.6081,7.4557 65.6591,8.0707 65.6591,8.8717 L65.6591,15.3167 Z"
          id="Fill-23"
        />
                <path
          d="M68.2419,15.317 L70.9859,15.317 L70.9859,4.946 L68.2419,4.946 L68.2419,15.317 Z M68.2419,3.539 L70.9859,3.539 L70.9859,1 L68.2419,1 L68.2419,3.539 Z"
          id="Fill-24"
        />
            </g>
        </g>
    </g>
</svg>
