<svg
  width="219"
  height="44"
  viewBox="0 0 219 44"
  fill="none"
  xmlns="http://www.w3.org/2000/svg"
>
<g id="Emblem type=standard_version, Positive/Negative=positive, Language=IC">
<g id="EU-emblem_standard">
<g id="Flag">
<g id="EU_flag">
<rect
            id="&#240;&#159;&#140;&#136; flag"
            width="66"
            height="44"
            fill="#003399"
          />
<path
            id="&#240;&#159;&#140;&#136; stars"
            fill-rule="evenodd"
            clip-rule="evenodd"
            d="M30.745 7.15L32.1383 8.1675L31.6067 9.82667L33 8.8L34.3933 9.82667L33.8617 8.1675L35.255 7.15H33.5317L33 5.5L32.4683 7.15H30.745ZM34.3933 38.5L33.8617 36.85L35.255 35.8325H33.5317L33 34.1733L32.4683 35.8325H30.745L32.1383 36.85L31.6067 38.5L33 37.4825L34.3933 38.5ZM18.755 23.1L17.3617 24.1267L17.8933 22.4767L16.5 21.4867H18.2233L18.755 19.8367L19.2867 21.4867H21.0192L19.6167 22.5133L20.1483 24.1633L18.755 23.1367V23.1ZM27.2708 11.7333L26.7392 10.0833L28.1325 9.075H26.4092L25.8775 7.425L25.3458 9.075H23.6225L25.0158 10.0925L24.4842 11.7425L25.8775 10.725L27.2708 11.7333ZM20.1667 14.3183L20.6983 12.6683L21.2392 14.3183H22.9167L21.5233 15.345L22.055 16.995L20.6525 15.9683L19.25 16.995L19.7817 15.345L18.3883 14.3183H20.1667ZM20.6983 27.005L20.1667 28.655H18.4067H18.3883L19.7817 29.6817L19.25 31.3317L20.6525 30.3142L22.055 31.3317L21.5233 29.6817L22.9167 28.655H21.2392L20.6983 27.005ZM25.0158 34.925L23.6225 33.9167H25.3458L25.8775 32.2667L26.4092 33.9167H28.1325L26.7392 34.925L27.2708 36.575L25.8775 35.5575L24.4842 36.575L25.0158 34.925ZM48.6383 24.1633L48.1067 22.5133L49.5 21.4867H47.8133L47.2817 19.8367L46.75 21.4867H44.9625L46.365 22.5133L45.8333 24.1633L47.245 23.1367L48.6383 24.1633ZM39.2608 10.0833L37.8675 9.075H39.5908L40.1225 7.425L40.6542 9.075H42.3775L40.9842 10.0833L41.5158 11.7333L40.1225 10.725L38.7292 11.7425L39.2608 10.0925V10.0833ZM45.3017 12.6592L44.7608 14.3092L43.0833 14.3183L44.4675 15.345L43.9358 16.995L45.3383 15.9683L46.7317 16.995L46.2 15.345L47.5567 14.3092H45.8333L45.3017 12.6592ZM45.8792 28.655H47.5567L46.2 29.6817L46.7317 31.3317L45.3383 30.3142L43.9358 31.3317L44.4675 29.6817L43.0833 28.655H44.8067L45.3475 27.005L45.8792 28.655ZM40.9842 34.925L42.3775 33.9167H40.6542L40.1225 32.2667L39.5908 33.9167H37.8675L39.2608 34.925L38.7292 36.575L40.1225 35.5575L41.5158 36.575L40.9842 34.925Z"
            fill="#FFCC00"
          />
</g>
</g>
</g>
<g id="Evr&#195;&#179;pusam">
<path
        d="M77.3086 19V6.11523H86.8623V8.29492H79.9102V11.1514H86.3789V13.3223H79.9102V16.8291H87.1084V19H77.3086Z"
        fill="#515560"
      />
<path
        d="M91.8633 19L88.1016 9.66602H90.6943L92.4521 14.4297L92.9619 16.0205C93.0967 15.6162 93.1816 15.3496 93.2168 15.2207C93.2988 14.957 93.3867 14.6934 93.4805 14.4297L95.2559 9.66602H97.7959L94.0869 19H91.8633Z"
        fill="#515560"
      />
<path
        d="M101.681 19H99.2109V9.66602H101.505V10.9932C101.897 10.3662 102.249 9.95312 102.56 9.75391C102.876 9.55469 103.233 9.45508 103.632 9.45508C104.194 9.45508 104.736 9.61035 105.258 9.9209L104.493 12.0742C104.077 11.8047 103.69 11.6699 103.333 11.6699C102.987 11.6699 102.694 11.7666 102.454 11.96C102.214 12.1475 102.023 12.4902 101.883 12.9883C101.748 13.4863 101.681 14.5293 101.681 16.1172V19Z"
        fill="#515560"
      />
<path
        d="M105.759 14.2012C105.759 13.3809 105.961 12.5869 106.365 11.8193C106.77 11.0518 107.341 10.4658 108.079 10.0615C108.823 9.65723 109.652 9.45508 110.566 9.45508C111.979 9.45508 113.136 9.91504 114.038 10.835C114.94 11.749 115.392 12.9062 115.392 14.3066C115.392 15.7188 114.935 16.8906 114.021 17.8223C113.112 18.748 111.967 19.2109 110.584 19.2109C109.729 19.2109 108.911 19.0176 108.132 18.6309C107.358 18.2441 106.77 17.6787 106.365 16.9346C105.961 16.1846 105.759 15.2734 105.759 14.2012ZM108.29 14.333C108.29 15.2588 108.51 15.9678 108.949 16.46C109.389 16.9521 109.931 17.1982 110.575 17.1982C111.22 17.1982 111.759 16.9521 112.192 16.46C112.632 15.9678 112.852 15.2529 112.852 14.3154C112.852 13.4014 112.632 12.6982 112.192 12.2061C111.759 11.7139 111.22 11.4678 110.575 11.4678C109.931 11.4678 109.389 11.7139 108.949 12.2061C108.51 12.6982 108.29 13.4072 108.29 14.333ZM109.327 8.52344L110.54 5.89551H113.309L110.892 8.52344H109.327Z"
        fill="#515560"
      />
<path
        d="M117.264 9.66602H119.566V11.0371C119.865 10.5684 120.27 10.1875 120.779 9.89453C121.289 9.60156 121.854 9.45508 122.476 9.45508C123.56 9.45508 124.479 9.87988 125.235 10.7295C125.991 11.5791 126.369 12.7627 126.369 14.2803C126.369 15.8389 125.988 17.0518 125.227 17.9189C124.465 18.7803 123.542 19.2109 122.458 19.2109C121.942 19.2109 121.474 19.1084 121.052 18.9033C120.636 18.6982 120.196 18.3467 119.733 17.8486V22.5508H117.264V9.66602ZM119.707 14.1748C119.707 15.2236 119.915 16 120.331 16.5039C120.747 17.002 121.254 17.251 121.852 17.251C122.426 17.251 122.903 17.0225 123.284 16.5654C123.665 16.1025 123.855 15.3467 123.855 14.2979C123.855 13.3193 123.659 12.5928 123.267 12.1182C122.874 11.6436 122.388 11.4062 121.808 11.4062C121.204 11.4062 120.703 11.6406 120.305 12.1094C119.906 12.5723 119.707 13.2607 119.707 14.1748Z"
        fill="#515560"
      />
<path
        d="M134.481 19V17.6025C134.142 18.1006 133.693 18.4932 133.137 18.7803C132.586 19.0674 132.003 19.2109 131.388 19.2109C130.761 19.2109 130.198 19.0732 129.7 18.7979C129.202 18.5225 128.842 18.1357 128.619 17.6377C128.396 17.1396 128.285 16.4512 128.285 15.5723V9.66602H130.755V13.9551C130.755 15.2676 130.799 16.0732 130.887 16.3721C130.98 16.665 131.147 16.8994 131.388 17.0752C131.628 17.2451 131.933 17.3301 132.302 17.3301C132.724 17.3301 133.102 17.2158 133.436 16.9873C133.77 16.7529 133.998 16.4658 134.121 16.126C134.244 15.7803 134.306 14.9395 134.306 13.6035V9.66602H136.775V19H134.481Z"
        fill="#515560"
      />
<path
        d="M138.472 16.3369L140.95 15.959C141.056 16.4395 141.27 16.8057 141.592 17.0576C141.914 17.3037 142.365 17.4268 142.945 17.4268C143.584 17.4268 144.064 17.3096 144.387 17.0752C144.604 16.9111 144.712 16.6914 144.712 16.416C144.712 16.2285 144.653 16.0732 144.536 15.9502C144.413 15.833 144.138 15.7246 143.71 15.625C141.718 15.1855 140.455 14.7842 139.922 14.4209C139.184 13.917 138.814 13.2168 138.814 12.3203C138.814 11.5117 139.134 10.832 139.772 10.2812C140.411 9.73047 141.401 9.45508 142.743 9.45508C144.021 9.45508 144.97 9.66309 145.591 10.0791C146.212 10.4951 146.64 11.1104 146.874 11.9248L144.545 12.3555C144.445 11.9922 144.255 11.7139 143.974 11.5205C143.698 11.3271 143.303 11.2305 142.787 11.2305C142.137 11.2305 141.671 11.3213 141.39 11.5029C141.202 11.6318 141.108 11.7988 141.108 12.0039C141.108 12.1797 141.19 12.3291 141.354 12.4521C141.577 12.6162 142.345 12.8477 143.657 13.1465C144.976 13.4453 145.896 13.8115 146.417 14.2451C146.933 14.6846 147.19 15.2969 147.19 16.082C147.19 16.9375 146.833 17.6729 146.118 18.2881C145.403 18.9033 144.346 19.2109 142.945 19.2109C141.674 19.2109 140.666 18.9531 139.922 18.4375C139.184 17.9219 138.7 17.2217 138.472 16.3369Z"
        fill="#515560"
      />
<path
        d="M151.207 12.5137L148.966 12.1094C149.218 11.207 149.651 10.5391 150.267 10.1055C150.882 9.67188 151.796 9.45508 153.009 9.45508C154.11 9.45508 154.931 9.58691 155.47 9.85059C156.009 10.1084 156.387 10.4395 156.604 10.8438C156.826 11.2422 156.938 11.9775 156.938 13.0498L156.911 15.9326C156.911 16.7529 156.949 17.3594 157.025 17.752C157.107 18.1387 157.257 18.5547 157.474 19H155.03C154.966 18.8359 154.887 18.5928 154.793 18.2705C154.752 18.124 154.723 18.0273 154.705 17.9805C154.283 18.3906 153.832 18.6982 153.352 18.9033C152.871 19.1084 152.358 19.2109 151.813 19.2109C150.853 19.2109 150.094 18.9502 149.537 18.4287C148.986 17.9072 148.711 17.248 148.711 16.4512C148.711 15.9238 148.837 15.4551 149.089 15.0449C149.341 14.6289 149.692 14.3125 150.144 14.0957C150.601 13.873 151.257 13.6797 152.112 13.5156C153.267 13.2988 154.066 13.0967 154.512 12.9092V12.6631C154.512 12.1885 154.395 11.8516 154.16 11.6523C153.926 11.4473 153.483 11.3447 152.833 11.3447C152.394 11.3447 152.051 11.4326 151.805 11.6084C151.559 11.7783 151.359 12.0801 151.207 12.5137ZM154.512 14.5176C154.195 14.623 153.694 14.749 153.009 14.8955C152.323 15.042 151.875 15.1855 151.664 15.3262C151.342 15.5547 151.181 15.8447 151.181 16.1963C151.181 16.542 151.31 16.8408 151.567 17.0928C151.825 17.3447 152.153 17.4707 152.552 17.4707C152.997 17.4707 153.422 17.3242 153.826 17.0312C154.125 16.8086 154.321 16.5361 154.415 16.2139C154.479 16.0029 154.512 15.6016 154.512 15.0098V14.5176Z"
        fill="#515560"
      />
<path
        d="M159.196 9.66602H161.473V10.9404C162.287 9.9502 163.257 9.45508 164.382 9.45508C164.979 9.45508 165.498 9.57812 165.938 9.82422C166.377 10.0703 166.737 10.4424 167.019 10.9404C167.429 10.4424 167.871 10.0703 168.346 9.82422C168.82 9.57812 169.327 9.45508 169.866 9.45508C170.552 9.45508 171.132 9.5957 171.606 9.87695C172.081 10.1523 172.436 10.5596 172.67 11.0986C172.84 11.4971 172.925 12.1416 172.925 13.0322V19H170.455V13.665C170.455 12.7393 170.37 12.1416 170.2 11.8721C169.972 11.5205 169.62 11.3447 169.146 11.3447C168.8 11.3447 168.475 11.4502 168.17 11.6611C167.865 11.8721 167.646 12.1826 167.511 12.5928C167.376 12.9971 167.309 13.6387 167.309 14.5176V19H164.839V13.8848C164.839 12.9766 164.795 12.3906 164.707 12.127C164.619 11.8633 164.481 11.667 164.294 11.5381C164.112 11.4092 163.863 11.3447 163.547 11.3447C163.166 11.3447 162.823 11.4473 162.519 11.6523C162.214 11.8574 161.994 12.1533 161.859 12.54C161.73 12.9268 161.666 13.5684 161.666 14.4648V19H159.196V9.66602Z"
        fill="#515560"
      />
</g>
<g id="bandi&#195;&#176;">
<path
        d="M77.1875 38V25.1152H79.6572V29.7559C80.4189 28.8887 81.3213 28.4551 82.3643 28.4551C83.501 28.4551 84.4414 28.8682 85.1855 29.6943C85.9297 30.5146 86.3018 31.6953 86.3018 33.2363C86.3018 34.8301 85.9209 36.0576 85.1592 36.9189C84.4033 37.7803 83.4834 38.2109 82.3994 38.2109C81.8662 38.2109 81.3389 38.0791 80.8174 37.8154C80.3018 37.5459 79.8564 37.1504 79.4814 36.6289V38H77.1875ZM79.6396 33.1309C79.6396 34.0977 79.792 34.8125 80.0967 35.2754C80.5244 35.9316 81.0928 36.2598 81.8018 36.2598C82.3467 36.2598 82.8096 36.0283 83.1904 35.5654C83.5771 35.0967 83.7705 34.3613 83.7705 33.3594C83.7705 32.293 83.5771 31.5254 83.1904 31.0566C82.8037 30.582 82.3086 30.3447 81.7051 30.3447C81.1133 30.3447 80.6211 30.5762 80.2285 31.0391C79.8359 31.4961 79.6396 32.1934 79.6396 33.1309Z"
        fill="#515560"
      />
<path
        d="M90.1426 31.5137L87.9014 31.1094C88.1533 30.207 88.5869 29.5391 89.2021 29.1055C89.8174 28.6719 90.7314 28.4551 91.9443 28.4551C93.0459 28.4551 93.8662 28.5869 94.4053 28.8506C94.9443 29.1084 95.3223 29.4395 95.5391 29.8438C95.7617 30.2422 95.873 30.9775 95.873 32.0498L95.8467 34.9326C95.8467 35.7529 95.8848 36.3594 95.9609 36.752C96.043 37.1387 96.1924 37.5547 96.4092 38H93.9658C93.9014 37.8359 93.8223 37.5928 93.7285 37.2705C93.6875 37.124 93.6582 37.0273 93.6406 36.9805C93.2188 37.3906 92.7676 37.6982 92.2871 37.9033C91.8066 38.1084 91.2939 38.2109 90.749 38.2109C89.7881 38.2109 89.0293 37.9502 88.4727 37.4287C87.9219 36.9072 87.6465 36.248 87.6465 35.4512C87.6465 34.9238 87.7725 34.4551 88.0244 34.0449C88.2764 33.6289 88.6279 33.3125 89.0791 33.0957C89.5361 32.873 90.1924 32.6797 91.0479 32.5156C92.2021 32.2988 93.002 32.0967 93.4473 31.9092V31.6631C93.4473 31.1885 93.3301 30.8516 93.0957 30.6523C92.8613 30.4473 92.4189 30.3447 91.7686 30.3447C91.3291 30.3447 90.9863 30.4326 90.7402 30.6084C90.4941 30.7783 90.2949 31.0801 90.1426 31.5137ZM93.4473 33.5176C93.1309 33.623 92.6299 33.749 91.9443 33.8955C91.2588 34.042 90.8105 34.1855 90.5996 34.3262C90.2773 34.5547 90.1162 34.8447 90.1162 35.1963C90.1162 35.542 90.2451 35.8408 90.5029 36.0928C90.7607 36.3447 91.0889 36.4707 91.4873 36.4707C91.9326 36.4707 92.3574 36.3242 92.7617 36.0312C93.0605 35.8086 93.2568 35.5361 93.3506 35.2139C93.415 35.0029 93.4473 34.6016 93.4473 34.0098V33.5176Z"
        fill="#515560"
      />
<path
        d="M106.807 38H104.337V33.2363C104.337 32.2285 104.284 31.5781 104.179 31.2852C104.073 30.9863 103.9 30.7549 103.66 30.5908C103.426 30.4268 103.142 30.3447 102.808 30.3447C102.38 30.3447 101.996 30.4619 101.656 30.6963C101.316 30.9307 101.082 31.2412 100.953 31.6279C100.83 32.0146 100.769 32.7295 100.769 33.7725V38H98.2988V28.666H100.593V30.0371C101.407 28.9824 102.433 28.4551 103.669 28.4551C104.214 28.4551 104.712 28.5547 105.163 28.7539C105.614 28.9473 105.954 29.1963 106.183 29.501C106.417 29.8057 106.578 30.1514 106.666 30.5381C106.76 30.9248 106.807 31.4785 106.807 32.1992V38Z"
        fill="#515560"
      />
<path
        d="M117.881 38H115.587V36.6289C115.206 37.1621 114.755 37.5605 114.233 37.8242C113.718 38.082 113.196 38.2109 112.669 38.2109C111.597 38.2109 110.677 37.7803 109.909 36.9189C109.147 36.0518 108.767 34.8447 108.767 33.2979C108.767 31.7158 109.139 30.5146 109.883 29.6943C110.627 28.8682 111.567 28.4551 112.704 28.4551C113.747 28.4551 114.649 28.8887 115.411 29.7559V25.1152H117.881V38ZM111.289 33.1309C111.289 34.127 111.427 34.8477 111.702 35.293C112.101 35.9375 112.657 36.2598 113.372 36.2598C113.94 36.2598 114.424 36.0195 114.822 35.5391C115.221 35.0527 115.42 34.3291 115.42 33.3682C115.42 32.2959 115.227 31.5254 114.84 31.0566C114.453 30.582 113.958 30.3447 113.354 30.3447C112.769 30.3447 112.276 30.5791 111.878 31.0479C111.485 31.5107 111.289 32.2051 111.289 33.1309Z"
        fill="#515560"
      />
<path
        d="M120.324 27.4004V25.1152H122.794V27.4004H120.324ZM120.324 38V28.666H122.794V38H120.324Z"
        fill="#515560"
      />
<path
        d="M126.96 25.1152H129.535C129.869 25.373 130.188 25.6338 130.493 25.8975L132.084 25.1152L132.479 25.9766L131.214 26.5654C132.339 27.6963 133.145 28.833 133.631 29.9756C134.123 31.1123 134.369 32.1875 134.369 33.2012C134.369 34.7129 133.918 35.9287 133.016 36.8486C132.113 37.7627 130.947 38.2197 129.518 38.2197C128.141 38.2197 127.004 37.7656 126.107 36.8574C125.217 35.9434 124.771 34.7627 124.771 33.3154C124.771 31.8916 125.246 30.7227 126.195 29.8086C126.986 29.0469 127.877 28.666 128.867 28.666C129.184 28.666 129.503 28.7129 129.825 28.8066C130.06 28.877 130.391 29.0322 130.818 29.2725C130.59 28.8623 130.399 28.543 130.247 28.3145C130.095 28.0859 129.857 27.7695 129.535 27.3652L127.338 28.4111L126.96 27.5674L128.876 26.6621C128.29 26.123 127.651 25.6074 126.96 25.1152ZM127.347 33.3418C127.347 34.2734 127.558 34.9854 127.979 35.4775C128.407 35.9639 128.929 36.207 129.544 36.207C130.171 36.207 130.704 35.9609 131.144 35.4688C131.583 34.9766 131.803 34.2969 131.803 33.4297C131.803 32.5566 131.577 31.8682 131.126 31.3643C130.675 30.8604 130.142 30.6084 129.526 30.6084C128.923 30.6084 128.407 30.8486 127.979 31.3291C127.558 31.8037 127.347 32.4746 127.347 33.3418Z"
        fill="#515560"
      />
</g>
</g>
</svg>
