<?xml version="1.0" encoding="UTF-8" ?>
<svg
  width="186px"
  height="48px"
  viewBox="0 0 186 48"
  version="1.1"
  xmlns="http://www.w3.org/2000/svg"
  xmlns:xlink="http://www.w3.org/1999/xlink"
>
    <!-- Generator: Sketch 64 (93537) - https://sketch.com -->
    <title>EU/EU-emblem/standard-version/positive/GA</title>
    <desc>Created with Sketch.</desc>
    <g
    id="EU/EU-emblem/standard-version/positive/GA"
    stroke="none"
    stroke-width="1"
    fill="none"
    fill-rule="evenodd"
  >
        <g id="EU-emblem_standard">
            <g id="EU/EU-emblem/flag/flag-positive">
                <g id="EU_flag">
                    <rect
            id="🌈-flag"
            fill="#003399"
            fill-rule="nonzero"
            x="0"
            y="0"
            width="72"
            height="48"
          />
                    <path
            d="M35.06,8.91 L33.54,7.8 L35.42,7.8 L36,6 L36.58,7.8 L38.46,7.8 L36.94,8.91 L37.52,10.72 L36,9.6 L34.48,10.72 L35.06,8.91 L35.06,8.91 Z M36.94,40.2 L37.52,42 L36,40.89 L34.48,42 L35.06,40.2 L33.54,39.09 L35.42,39.09 L36,37.28 L36.58,39.09 L38.46,39.09 L36.94,40.2 Z M20.46,25.2 L18.94,26.32 L19.52,24.52 L18,23.44 L19.88,23.44 L20.46,21.64 L21.04,23.44 L22.93,23.44 L21.4,24.56 L21.98,26.36 L20.46,25.24 L20.46,25.2 Z M29.17,11 L29.75,12.8 L28.23,11.7 L26.71,12.81 L27.29,11.01 L25.77,9.9 L27.65,9.9 L28.23,8.1 L28.81,9.9 L30.69,9.9 L29.17,11 Z M22,15.62 L22.58,13.82 L23.17,15.62 L25,15.62 L23.48,16.74 L24.06,18.54 L22.53,17.42 L21,18.54 L21.58,16.74 L20.06,15.62 L22,15.62 Z M20.08,31.26 L22,31.26 L22.58,29.46 L23.17,31.26 L25,31.26 L23.48,32.38 L24.06,34.18 L22.53,33.07 L21,34.18 L21.58,32.38 L20.06,31.26 L20.08,31.26 Z M27.29,38.1 L25.77,37 L27.65,37 L28.23,35.2 L28.81,37 L30.69,37 L29.17,38.1 L29.75,39.9 L28.23,38.79 L26.71,39.9 L27.29,38.1 Z M52.48,24.56 L53.06,26.36 L51.54,25.24 L50,26.36 L50.58,24.56 L49.05,23.44 L51,23.44 L51.58,21.64 L52.16,23.44 L54,23.44 L52.48,24.56 Z M42.83,11 L41.31,9.9 L43.19,9.9 L43.77,8.1 L44.35,9.9 L46.23,9.9 L44.71,11 L45.29,12.8 L43.77,11.7 L42.25,12.81 L42.83,11.01 L42.83,11 Z M48.83,15.61 L49.42,13.81 L50,15.61 L51.88,15.61 L50.4,16.74 L50.98,18.54 L49.46,17.42 L47.93,18.54 L48.51,16.74 L47,15.62 L48.83,15.61 Z M50,31.26 L51.88,31.26 L50.4,32.38 L50.98,34.18 L49.46,33.07 L47.93,34.18 L48.51,32.38 L47,31.26 L48.88,31.26 L49.47,29.46 L50.05,31.26 L50,31.26 Z M46.23,37 L44.71,38.1 L45.29,39.9 L43.77,38.79 L42.25,39.9 L42.83,38.1 L41.31,37 L43.19,37 L43.77,35.2 L44.35,37 L46.23,37 Z"
            id="🌈-stars"
            fill="#FFCC00"
            fill-rule="nonzero"
          />
                </g>
            </g>
            <g
        id="🌈-Eorpach"
        transform="translate(84.000000, 28.000000)"
        fill="#515560"
        fill-rule="nonzero"
      >
                <polygon
          id="Fill-3"
          points="-3.90798505e-13 14.3164 -3.90798505e-13 0.0004 10.615 0.0004 10.615 2.4214 2.891 2.4214 2.891 5.5954 10.078 5.5954 10.078 8.0074 2.891 8.0074 2.891 11.9044 10.889 11.9044 10.889 14.3164"
        />
                <path
          d="M14.8985,9.1309 C14.8985,10.1599 15.1425,10.9469 15.6305,11.4939 C16.1195,12.0409 16.7215,12.3149 17.4375,12.3149 C18.1535,12.3149 18.7535,12.0409 19.2395,11.4939 C19.7245,10.9469 19.9665,10.1529 19.9665,9.1109 C19.9665,8.0959 19.7245,7.3149 19.2395,6.7679 C18.7535,6.2209 18.1535,5.9469 17.4375,5.9469 C16.7215,5.9469 16.1195,6.2209 15.6305,6.7679 C15.1425,7.3149 14.8985,8.1019 14.8985,9.1309 M12.0855,8.9849 C12.0855,8.0729 12.3105,7.1909 12.7595,6.3379 C13.2095,5.4849 13.8455,4.8339 14.6695,4.3849 C15.4925,3.9359 16.4125,3.7109 17.4275,3.7109 C18.9975,3.7109 20.2825,4.2199 21.2855,5.2389 C22.2885,6.2579 22.7895,7.5459 22.7895,9.1019 C22.7895,10.6709 22.2835,11.9709 21.2705,13.0029 C20.2575,14.0349 18.9835,14.5509 17.4475,14.5509 C16.4975,14.5509 15.5895,14.3359 14.7275,13.9059 C13.8655,13.4769 13.2095,12.8469 12.7595,12.0169 C12.3105,11.1869 12.0855,10.1759 12.0855,8.9849"
          id="Fill-4"
        />
                <path
          d="M27.0645,14.3164 L24.3205,14.3164 L24.3205,3.9454 L26.8695,3.9454 L26.8695,5.4204 C27.3055,4.7234 27.6975,4.2644 28.0455,4.0434 C28.3945,3.8214 28.7905,3.7114 29.2325,3.7114 C29.8575,3.7114 30.4605,3.8834 31.0395,4.2284 L30.1895,6.6214 C29.7275,6.3214 29.2975,6.1714 28.9005,6.1714 C28.5165,6.1714 28.1905,6.2774 27.9235,6.4894 C27.6575,6.7004 27.4475,7.0834 27.2935,7.6364 C27.1405,8.1904 27.0645,9.3494 27.0645,11.1134 L27.0645,14.3164 Z"
          id="Fill-6"
        />
                <path
          d="M34.8574,8.9551 C34.8574,10.1211 35.0884,10.9811 35.5504,11.5381 C36.0124,12.0951 36.5764,12.3731 37.2404,12.3731 C37.8784,12.3731 38.4094,12.1181 38.8324,11.6061 C39.2544,11.0951 39.4664,10.2571 39.4664,9.0921 C39.4664,8.0041 39.2494,7.1971 38.8124,6.6701 C38.3764,6.1421 37.8364,5.8791 37.1914,5.8791 C36.5204,5.8791 35.9634,6.1381 35.5214,6.6551 C35.0794,7.1731 34.8574,7.9391 34.8574,8.9551 L34.8574,8.9551 Z M32.1424,3.9451 L34.7014,3.9451 L34.7014,5.4691 C35.0334,4.9481 35.4824,4.5251 36.0484,4.1991 C36.6154,3.8731 37.2434,3.7111 37.9334,3.7111 C39.1374,3.7111 40.1604,4.1831 41.0004,5.1271 C41.8394,6.0711 42.2594,7.3861 42.2594,9.0721 C42.2594,10.8041 41.8364,12.1501 40.9904,13.1101 C40.1434,14.0711 39.1184,14.5511 37.9144,14.5511 C37.3404,14.5511 36.8224,14.4371 36.3564,14.2091 C35.8904,13.9811 35.4014,13.5901 34.8864,13.0371 L34.8864,18.2621 L32.1424,18.2621 L32.1424,3.9451 Z"
          id="Fill-8"
        />
                <path
          d="M50.0596,9.336 C49.7076,9.453 49.1516,9.593 48.3896,9.756 C47.6276,9.919 47.1296,10.078 46.8956,10.234 C46.5376,10.488 46.3586,10.811 46.3586,11.201 C46.3586,11.586 46.5016,11.918 46.7886,12.197 C47.0746,12.477 47.4396,12.617 47.8816,12.617 C48.3766,12.617 48.8486,12.455 49.2976,12.129 C49.6296,11.881 49.8476,11.579 49.9526,11.221 C50.0236,10.986 50.0596,10.541 50.0596,9.883 L50.0596,9.336 Z M46.3876,7.109 L43.8976,6.66 C44.1776,5.658 44.6596,4.916 45.3426,4.434 C46.0266,3.952 47.0416,3.711 48.3896,3.711 C49.6136,3.711 50.5256,3.856 51.1236,4.146 C51.7226,4.435 52.1446,4.803 52.3886,5.249 C52.6326,5.695 52.7546,6.514 52.7546,7.705 L52.7256,10.908 C52.7256,11.82 52.7696,12.492 52.8576,12.925 C52.9456,13.358 53.1096,13.822 53.3506,14.316 L50.6356,14.316 C50.5646,14.134 50.4766,13.864 50.3716,13.506 C50.3266,13.343 50.2936,13.236 50.2746,13.184 C49.8056,13.639 49.3046,13.981 48.7706,14.209 C48.2366,14.437 47.6666,14.551 47.0616,14.551 C45.9946,14.551 45.1526,14.261 44.5376,13.682 C43.9216,13.102 43.6146,12.37 43.6146,11.484 C43.6146,10.898 43.7536,10.376 44.0346,9.917 C44.3146,9.458 44.7056,9.107 45.2106,8.862 C45.7156,8.618 46.4436,8.405 47.3936,8.223 C48.6756,7.982 49.5646,7.757 50.0596,7.549 L50.0596,7.275 C50.0596,6.748 49.9296,6.372 49.6686,6.148 C49.4086,5.923 48.9166,5.811 48.1946,5.811 C47.7056,5.811 47.3256,5.907 47.0516,6.099 C46.7786,6.291 46.5566,6.628 46.3876,7.109 L46.3876,7.109 Z"
          id="Fill-10"
        />
                <path
          d="M64.0029,7.0117 L61.2979,7.4997 C61.2069,6.9597 60.9999,6.5527 60.6779,6.2797 C60.3559,6.0057 59.9379,5.8687 59.4229,5.8687 C58.7389,5.8687 58.1939,6.1047 57.7869,6.5767 C57.3799,7.0497 57.1769,7.8387 57.1769,8.9457 C57.1769,10.1757 57.3839,11.0447 57.7969,11.5527 C58.2099,12.0607 58.7659,12.3147 59.4619,12.3147 C59.9819,12.3147 60.4089,12.1667 60.7409,11.8697 C61.0729,11.5737 61.3079,11.0647 61.4439,10.3417 L64.1399,10.8007 C63.8589,12.0377 63.3219,12.9717 62.5279,13.6037 C61.7339,14.2347 60.6699,14.5507 59.3349,14.5507 C57.8179,14.5507 56.6079,14.0727 55.7069,13.1157 C54.8059,12.1577 54.3549,10.8337 54.3549,9.1407 C54.3549,7.4287 54.8069,6.0947 55.7119,5.1417 C56.6169,4.1877 57.8409,3.7107 59.3839,3.7107 C60.6469,3.7107 61.6509,3.9827 62.3969,4.5267 C63.1419,5.0697 63.6779,5.8987 64.0029,7.0117"
          id="Fill-12"
        />
                <path
          d="M68.6172,-9.85878046e-14 L68.6172,5.264 C69.5032,4.229 70.5602,3.711 71.7912,3.711 C72.4232,3.711 72.9922,3.828 73.5002,4.062 C74.0082,4.297 74.3902,4.596 74.6472,4.961 C74.9042,5.326 75.0802,5.729 75.1752,6.172 C75.2692,6.615 75.3162,7.301 75.3162,8.232 L75.3162,14.316 L72.5722,14.316 L72.5722,8.838 C72.5722,7.75 72.5202,7.061 72.4162,6.768 C72.3112,6.475 72.1282,6.242 71.8642,6.069 C71.6002,5.897 71.2702,5.811 70.8732,5.811 C70.4172,5.811 70.0112,5.921 69.6522,6.143 C69.2942,6.364 69.0322,6.698 68.8662,7.144 C68.7002,7.589 68.6172,8.249 68.6172,9.121 L68.6172,14.316 L65.8732,14.316 L65.8732,-9.85878046e-14 L68.6172,-9.85878046e-14 Z"
          id="Fill-14"
        />
            </g>
            <g
        id="🌈-an-tAontas-"
        transform="translate(84.000000, 6.000000)"
        fill="#515560"
        fill-rule="nonzero"
      >
                <path
          d="M6.8701,9.3356 C6.5181,9.4526 5.9621,9.5926 5.2001,9.7556 C4.4381,9.9186 3.9401,10.0776 3.7061,10.2336 C3.3481,10.4876 3.1691,10.8106 3.1691,11.2006 C3.1691,11.5856 3.3121,11.9176 3.5991,12.1966 C3.8851,12.4766 4.2501,12.6166 4.6921,12.6166 C5.1871,12.6166 5.6591,12.4546 6.1081,12.1286 C6.4401,11.8806 6.6581,11.5786 6.7631,11.2206 C6.8341,10.9856 6.8701,10.5406 6.8701,9.8826 L6.8701,9.3356 Z M3.1981,7.1086 L0.7081,6.6596 C0.9881,5.6576 1.4701,4.9156 2.1531,4.4336 C2.8371,3.9516 3.8521,3.7106 5.2001,3.7106 C6.4241,3.7106 7.3361,3.8556 7.9341,4.1456 C8.5331,4.4346 8.9551,4.8026 9.1991,5.2486 C9.4431,5.6946 9.5651,6.5136 9.5651,7.7046 L9.5361,10.9076 C9.5361,11.8196 9.5801,12.4916 9.6681,12.9246 C9.7561,13.3576 9.9201,13.8216 10.1611,14.3156 L7.4461,14.3156 C7.3751,14.1336 7.2871,13.8636 7.1821,13.5056 C7.1371,13.3426 7.1041,13.2356 7.0851,13.1836 C6.6161,13.6386 6.1151,13.9806 5.5811,14.2086 C5.0471,14.4366 4.4771,14.5506 3.8721,14.5506 C2.8051,14.5506 1.9631,14.2606 1.3481,13.6816 C0.7321,13.1016 0.4251,12.3696 0.4251,11.4836 C0.4251,10.8976 0.5641,10.3756 0.8451,9.9166 C1.1251,9.4576 1.5161,9.1066 2.0211,8.8616 C2.5261,8.6176 3.2541,8.4046 4.2041,8.2226 C5.4861,7.9816 6.3751,7.7566 6.8701,7.5486 L6.8701,7.2746 C6.8701,6.7476 6.7401,6.3716 6.4791,6.1476 C6.2191,5.9226 5.7271,5.8106 5.0051,5.8106 C4.5161,5.8106 4.1361,5.9066 3.8621,6.0986 C3.5891,6.2906 3.3671,6.6276 3.1981,7.1086 L3.1981,7.1086 Z"
          id="Fill-30"
        />
                <path
          d="M21.5127,14.316 L18.7687,14.316 L18.7687,9.023 C18.7687,7.903 18.7097,7.179 18.5927,6.85 C18.4757,6.522 18.2847,6.266 18.0217,6.084 C17.7577,5.901 17.4407,5.81 17.0697,5.81 C16.5937,5.81 16.1677,5.941 15.7897,6.201 C15.4117,6.461 15.1537,6.806 15.0137,7.236 C14.8737,7.666 14.8037,8.46 14.8037,9.619 L14.8037,14.316 L12.0597,14.316 L12.0597,3.945 L14.6087,3.945 L14.6087,5.468 C15.5137,4.296 16.6527,3.711 18.0267,3.711 C18.6317,3.711 19.1857,3.819 19.6867,4.038 C20.1877,4.256 20.5677,4.534 20.8247,4.873 C21.0807,5.211 21.2607,5.595 21.3617,6.025 C21.4617,6.455 21.5127,7.07 21.5127,7.871 L21.5127,14.316 Z"
          id="Fill-18"
        />
                <path
          d="M35.0079,3.9449 L35.0079,6.1329 L33.1329,6.1329 L33.1329,10.3119 C33.1329,11.1579 33.1509,11.6519 33.1869,11.7919 C33.2229,11.9319 33.3039,12.0469 33.4309,12.1379 C33.5579,12.2299 33.7119,12.2749 33.8949,12.2749 C34.1489,12.2749 34.5169,12.1869 34.9979,12.0109 L35.2329,14.1399 C34.5949,14.4139 33.8719,14.5499 33.0649,14.5499 C32.5699,14.5499 32.1239,14.4669 31.7269,14.3009 C31.3289,14.1349 31.0379,13.9209 30.8529,13.6569 C30.6669,13.3929 30.5379,13.0369 30.4669,12.5879 C30.4079,12.2689 30.3789,11.6239 30.3789,10.6539 L30.3789,6.1329 L29.1189,6.1329 L29.1189,3.9449 L30.3789,3.9449 L30.3789,1.8839 L33.1329,0.2829 L33.1329,3.9449 L35.0079,3.9449 Z"
          id="Fill-20"
        />
                <path
          d="M44.92,8.652 L42.947,3.34 L41.014,8.652 L44.92,8.652 Z M50.242,14.316 L47.098,14.316 L45.848,11.064 L40.125,11.064 L38.943,14.316 L35.877,14.316 L41.453,0 L44.51,0 L50.242,14.316 Z"
          id="Fill-22"
        />
                <path
          d="M53.4336,9.1305 C53.4336,10.1595 53.6776,10.9465 54.1656,11.4935 C54.6546,12.0405 55.2566,12.3145 55.9726,12.3145 C56.6886,12.3145 57.2886,12.0405 57.7746,11.4935 C58.2596,10.9465 58.5016,10.1525 58.5016,9.1105 C58.5016,8.0955 58.2596,7.3145 57.7746,6.7675 C57.2886,6.2205 56.6886,5.9465 55.9726,5.9465 C55.2566,5.9465 54.6546,6.2205 54.1656,6.7675 C53.6776,7.3145 53.4336,8.1015 53.4336,9.1305 M50.6206,8.9845 C50.6206,8.0725 50.8456,7.1905 51.2946,6.3375 C51.7446,5.4845 52.3806,4.8335 53.2046,4.3845 C54.0276,3.9355 54.9476,3.7105 55.9626,3.7105 C57.5326,3.7105 58.8176,4.2195 59.8206,5.2385 C60.8236,6.2575 61.3246,7.5455 61.3246,9.1015 C61.3246,10.6705 60.8186,11.9705 59.8056,13.0025 C58.7926,14.0345 57.5186,14.5505 55.9826,14.5505 C55.0326,14.5505 54.1246,14.3355 53.2626,13.9055 C52.4006,13.4765 51.7446,12.8465 51.2946,12.0165 C50.8456,11.1865 50.6206,10.1755 50.6206,8.9845"
          id="Fill-24"
        />
                <path
          d="M72.4063,14.316 L69.6623,14.316 L69.6623,9.023 C69.6623,7.903 69.6033,7.179 69.4863,6.85 C69.3693,6.522 69.1783,6.266 68.9153,6.084 C68.6513,5.901 68.3343,5.81 67.9633,5.81 C67.4873,5.81 67.0613,5.941 66.6833,6.201 C66.3053,6.461 66.0473,6.806 65.9073,7.236 C65.7673,7.666 65.6973,8.46 65.6973,9.619 L65.6973,14.316 L62.9533,14.316 L62.9533,3.945 L65.5023,3.945 L65.5023,5.468 C66.4073,4.296 67.5463,3.711 68.9203,3.711 C69.5253,3.711 70.0793,3.819 70.5803,4.038 C71.0813,4.256 71.4613,4.534 71.7183,4.873 C71.9743,5.211 72.1543,5.595 72.2553,6.025 C72.3553,6.455 72.4063,7.07 72.4063,7.871 L72.4063,14.316 Z"
          id="Fill-26"
        />
                <path
          d="M79.9454,3.9449 L79.9454,6.1329 L78.0704,6.1329 L78.0704,10.3119 C78.0704,11.1579 78.0884,11.6519 78.1244,11.7919 C78.1604,11.9319 78.2414,12.0469 78.3684,12.1379 C78.4954,12.2299 78.6494,12.2749 78.8324,12.2749 C79.0864,12.2749 79.4544,12.1869 79.9354,12.0109 L80.1704,14.1399 C79.5324,14.4139 78.8094,14.5499 78.0024,14.5499 C77.5074,14.5499 77.0614,14.4669 76.6644,14.3009 C76.2664,14.1349 75.9754,13.9209 75.7904,13.6569 C75.6044,13.3929 75.4754,13.0369 75.4044,12.5879 C75.3454,12.2689 75.3164,11.6239 75.3164,10.6539 L75.3164,6.1329 L74.0564,6.1329 L74.0564,3.9449 L75.3164,3.9449 L75.3164,1.8839 L78.0704,0.2829 L78.0704,3.9449 L79.9454,3.9449 Z"
          id="Fill-28"
        />
                <path
          d="M87.7725,9.3356 C87.4205,9.4526 86.8645,9.5926 86.1025,9.7556 C85.3405,9.9186 84.8425,10.0776 84.6085,10.2336 C84.2505,10.4876 84.0715,10.8106 84.0715,11.2006 C84.0715,11.5856 84.2145,11.9176 84.5015,12.1966 C84.7875,12.4766 85.1525,12.6166 85.5945,12.6166 C86.0895,12.6166 86.5615,12.4546 87.0105,12.1286 C87.3425,11.8806 87.5605,11.5786 87.6655,11.2206 C87.7365,10.9856 87.7725,10.5406 87.7725,9.8826 L87.7725,9.3356 Z M84.1005,7.1086 L81.6105,6.6596 C81.8905,5.6576 82.3725,4.9156 83.0555,4.4336 C83.7395,3.9516 84.7545,3.7106 86.1025,3.7106 C87.3265,3.7106 88.2385,3.8556 88.8365,4.1456 C89.4355,4.4346 89.8575,4.8026 90.1015,5.2486 C90.3455,5.6946 90.4675,6.5136 90.4675,7.7046 L90.4385,10.9076 C90.4385,11.8196 90.4825,12.4916 90.5705,12.9246 C90.6585,13.3576 90.8225,13.8216 91.0635,14.3156 L88.3485,14.3156 C88.2775,14.1336 88.1895,13.8636 88.0845,13.5056 C88.0395,13.3426 88.0065,13.2356 87.9875,13.1836 C87.5185,13.6386 87.0175,13.9806 86.4835,14.2086 C85.9495,14.4366 85.3795,14.5506 84.7745,14.5506 C83.7075,14.5506 82.8655,14.2606 82.2505,13.6816 C81.6345,13.1016 81.3275,12.3696 81.3275,11.4836 C81.3275,10.8976 81.4665,10.3756 81.7475,9.9166 C82.0275,9.4576 82.4185,9.1066 82.9235,8.8616 C83.4285,8.6176 84.1565,8.4046 85.1065,8.2226 C86.3885,7.9816 87.2775,7.7566 87.7725,7.5486 L87.7725,7.2746 C87.7725,6.7476 87.6425,6.3716 87.3815,6.1476 C87.1215,5.9226 86.6295,5.8106 85.9075,5.8106 C85.4185,5.8106 85.0385,5.9066 84.7645,6.0986 C84.4915,6.2906 84.2695,6.6276 84.1005,7.1086 L84.1005,7.1086 Z"
          id="Fill-30"
        />
                <path
          d="M92.2061,11.3571 L94.9601,10.9371 C95.0771,11.4711 95.3141,11.8761 95.6731,12.1531 C96.0311,12.4301 96.5321,12.5681 97.1771,12.5681 C97.8871,12.5681 98.4201,12.4381 98.7781,12.1771 C99.0191,11.9951 99.1401,11.7511 99.1401,11.4451 C99.1401,11.2361 99.0741,11.0641 98.9441,10.9271 C98.8081,10.7971 98.5021,10.6771 98.0261,10.5661 C95.8121,10.0781 94.4101,9.6321 93.8171,9.2281 C92.9971,8.6681 92.5871,7.8901 92.5871,6.8941 C92.5871,5.9961 92.9411,5.2401 93.6511,4.6281 C94.3611,4.0171 95.4611,3.7111 96.9521,3.7111 C98.3711,3.7111 99.4261,3.9411 100.1161,4.4041 C100.8071,4.8661 101.2811,5.5501 101.5421,6.4551 L98.9541,6.9331 C98.8441,6.5291 98.6341,6.2201 98.3241,6.0051 C98.0151,5.7911 97.5741,5.6831 97.0011,5.6831 C96.2781,5.6831 95.7611,5.7841 95.4481,5.9861 C95.2401,6.1291 95.1361,6.3151 95.1361,6.5431 C95.1361,6.7381 95.2271,6.9041 95.4091,7.0411 C95.6561,7.2231 96.5111,7.4801 97.9731,7.8121 C99.4351,8.1441 100.4551,8.5511 101.0341,9.0331 C101.6071,9.5211 101.8941,10.2011 101.8941,11.0741 C101.8941,12.0241 101.4961,12.8411 100.7021,13.5251 C99.9081,14.2091 98.7321,14.5501 97.1771,14.5501 C95.7641,14.5501 94.6451,14.2641 93.8221,13.6911 C92.9991,13.1181 92.4601,12.3401 92.2061,11.3571"
          id="Fill-32"
        />
            </g>
        </g>
    </g>
</svg>
