<?xml version="1.0" encoding="UTF-8" ?>
<svg
  width="163px"
  height="48px"
  viewBox="0 0 163 48"
  version="1.1"
  xmlns="http://www.w3.org/2000/svg"
  xmlns:xlink="http://www.w3.org/1999/xlink"
>
    <!-- Generator: Sketch 64 (93537) - https://sketch.com -->
    <title>EU/EU-emblem/standard-version/positive/ET</title>
    <desc>Created with Sketch.</desc>
    <g
    id="EU/EU-emblem/standard-version/positive/ET"
    stroke="none"
    stroke-width="1"
    fill="none"
    fill-rule="evenodd"
  >
        <g id="EU-emblem_standard">
            <g id="EU/EU-emblem/flag/flag-positive">
                <g id="EU_flag">
                    <rect
            id="🌈-flag"
            fill="#003399"
            fill-rule="nonzero"
            x="0"
            y="0"
            width="72"
            height="48"
          />
                    <path
            d="M35.06,8.91 L33.54,7.8 L35.42,7.8 L36,6 L36.58,7.8 L38.46,7.8 L36.94,8.91 L37.52,10.72 L36,9.6 L34.48,10.72 L35.06,8.91 L35.06,8.91 Z M36.94,40.2 L37.52,42 L36,40.89 L34.48,42 L35.06,40.2 L33.54,39.09 L35.42,39.09 L36,37.28 L36.58,39.09 L38.46,39.09 L36.94,40.2 Z M20.46,25.2 L18.94,26.32 L19.52,24.52 L18,23.44 L19.88,23.44 L20.46,21.64 L21.04,23.44 L22.93,23.44 L21.4,24.56 L21.98,26.36 L20.46,25.24 L20.46,25.2 Z M29.17,11 L29.75,12.8 L28.23,11.7 L26.71,12.81 L27.29,11.01 L25.77,9.9 L27.65,9.9 L28.23,8.1 L28.81,9.9 L30.69,9.9 L29.17,11 Z M22,15.62 L22.58,13.82 L23.17,15.62 L25,15.62 L23.48,16.74 L24.06,18.54 L22.53,17.42 L21,18.54 L21.58,16.74 L20.06,15.62 L22,15.62 Z M20.08,31.26 L22,31.26 L22.58,29.46 L23.17,31.26 L25,31.26 L23.48,32.38 L24.06,34.18 L22.53,33.07 L21,34.18 L21.58,32.38 L20.06,31.26 L20.08,31.26 Z M27.29,38.1 L25.77,37 L27.65,37 L28.23,35.2 L28.81,37 L30.69,37 L29.17,38.1 L29.75,39.9 L28.23,38.79 L26.71,39.9 L27.29,38.1 Z M52.48,24.56 L53.06,26.36 L51.54,25.24 L50,26.36 L50.58,24.56 L49.05,23.44 L51,23.44 L51.58,21.64 L52.16,23.44 L54,23.44 L52.48,24.56 Z M42.83,11 L41.31,9.9 L43.19,9.9 L43.77,8.1 L44.35,9.9 L46.23,9.9 L44.71,11 L45.29,12.8 L43.77,11.7 L42.25,12.81 L42.83,11.01 L42.83,11 Z M48.83,15.61 L49.42,13.81 L50,15.61 L51.88,15.61 L50.4,16.74 L50.98,18.54 L49.46,17.42 L47.93,18.54 L48.51,16.74 L47,15.62 L48.83,15.61 Z M50,31.26 L51.88,31.26 L50.4,32.38 L50.98,34.18 L49.46,33.07 L47.93,34.18 L48.51,32.38 L47,31.26 L48.88,31.26 L49.47,29.46 L50.05,31.26 L50,31.26 Z M46.23,37 L44.71,38.1 L45.29,39.9 L43.77,38.79 L42.25,39.9 L42.83,38.1 L41.31,37 L43.19,37 L43.77,35.2 L44.35,37 L46.23,37 Z"
            id="🌈-stars"
            fill="#FFCC00"
            fill-rule="nonzero"
          />
                </g>
            </g>
            <g
        id="🌈-Liit"
        transform="translate(84.117000, 27.689000)"
        fill="#515560"
      >
                <polygon
          id="Fill-3"
          points="-2.4158453e-13 14.3168 -2.4158453e-13 0.1178 2.891 0.1178 2.891 11.9048 10.078 11.9048 10.078 14.3168"
        />
                <path
          d="M12.119,14.317 L14.863,14.317 L14.863,3.946 L12.119,3.946 L12.119,14.317 Z M12.119,2.539 L14.863,2.539 L14.863,4.4408921e-15 L12.119,4.4408921e-15 L12.119,2.539 Z"
          id="Fill-4"
        />
                <path
          d="M17.676,14.317 L20.42,14.317 L20.42,3.946 L17.676,3.946 L17.676,14.317 Z M17.676,2.539 L20.42,2.539 L20.42,4.4408921e-15 L17.676,4.4408921e-15 L17.676,2.539 Z"
          id="Fill-5"
        />
                <path
          d="M27.9882,3.9457 L27.9882,6.1337 L26.1132,6.1337 L26.1132,10.3127 C26.1132,11.1587 26.1312,11.6527 26.1672,11.7927 C26.2032,11.9327 26.2842,12.0477 26.4112,12.1387 C26.5382,12.2307 26.6922,12.2757 26.8752,12.2757 C27.1292,12.2757 27.4972,12.1877 27.9782,12.0117 L28.2132,14.1407 C27.5752,14.4147 26.8522,14.5507 26.0452,14.5507 C25.5502,14.5507 25.1042,14.4677 24.7072,14.3017 C24.3092,14.1357 24.0182,13.9217 23.8332,13.6577 C23.6472,13.3937 23.5182,13.0377 23.4472,12.5887 C23.3882,12.2697 23.3592,11.6247 23.3592,10.6547 L23.3592,6.1337 L22.0992,6.1337 L22.0992,3.9457 L23.3592,3.9457 L23.3592,1.8847 L26.1132,0.2837 L26.1132,3.9457 L27.9882,3.9457 Z"
          id="Fill-6"
        />
            </g>
            <g
        id="🌈-Euroopa"
        transform="translate(84.030000, 6.010100)"
        fill="#515560"
      >
                <polygon
          id="Fill-8"
          points="-3.90798505e-13 14.316 -3.90798505e-13 -9.76996262e-14 10.615 -9.76996262e-14 10.615 2.421 2.891 2.421 2.891 5.595 10.078 5.595 10.078 8.007 2.891 8.007 2.891 11.904 10.889 11.904 10.889 14.316"
        />
                <path
          d="M19.8663,14.316 L19.8663,12.763 C19.4883,13.316 18.9923,13.753 18.3773,14.072 C17.7623,14.391 17.1123,14.55 16.4283,14.55 C15.7323,14.55 15.1073,14.398 14.5543,14.091 C14.0003,13.785 13.5993,13.356 13.3523,12.802 C13.1053,12.249 12.9813,11.484 12.9813,10.507 L12.9813,3.945 L15.7253,3.945 L15.7253,8.711 C15.7253,10.169 15.7763,11.063 15.8773,11.391 C15.9773,11.72 16.1623,11.981 16.4283,12.172 C16.6953,12.364 17.0343,12.461 17.4443,12.461 C17.9133,12.461 18.3333,12.332 18.7043,12.075 C19.0753,11.817 19.3293,11.499 19.4663,11.118 C19.6023,10.737 19.6713,9.804 19.6713,8.32 L19.6713,3.945 L22.4153,3.945 L22.4153,14.316 L19.8663,14.316 Z"
          id="Fill-10"
        />
                <path
          d="M27.584,14.316 L24.84,14.316 L24.84,3.945 L27.389,3.945 L27.389,5.42 C27.825,4.723 28.217,4.264 28.565,4.043 C28.914,3.821 29.31,3.711 29.752,3.711 C30.377,3.711 30.98,3.883 31.559,4.228 L30.709,6.621 C30.247,6.321 29.817,6.171 29.42,6.171 C29.036,6.171 28.71,6.277 28.443,6.489 C28.177,6.7 27.967,7.083 27.813,7.636 C27.66,8.19 27.584,9.349 27.584,11.113 L27.584,14.316 Z"
          id="Fill-12"
        />
                <path
          d="M34.6182,9.1304 C34.6182,10.1594 34.8622,10.9464 35.3502,11.4934 C35.8392,12.0404 36.4412,12.3144 37.1572,12.3144 C37.8732,12.3144 38.4732,12.0404 38.9592,11.4934 C39.4442,10.9464 39.6862,10.1524 39.6862,9.1104 C39.6862,8.0954 39.4442,7.3144 38.9592,6.7674 C38.4732,6.2204 37.8732,5.9464 37.1572,5.9464 C36.4412,5.9464 35.8392,6.2204 35.3502,6.7674 C34.8622,7.3144 34.6182,8.1014 34.6182,9.1304 M31.8052,8.9844 C31.8052,8.0724 32.0302,7.1904 32.4792,6.3374 C32.9292,5.4844 33.5652,4.8334 34.3892,4.3844 C35.2122,3.9354 36.1322,3.7104 37.1472,3.7104 C38.7172,3.7104 40.0022,4.2194 41.0052,5.2384 C42.0082,6.2574 42.5092,7.5454 42.5092,9.1014 C42.5092,10.6704 42.0032,11.9704 40.9902,13.0024 C39.9772,14.0344 38.7032,14.5504 37.1672,14.5504 C36.2172,14.5504 35.3092,14.3354 34.4472,13.9054 C33.5852,13.4764 32.9292,12.8464 32.4792,12.0164 C32.0302,11.1864 31.8052,10.1754 31.8052,8.9844"
          id="Fill-14"
        />
                <path
          d="M46.5352,9.1304 C46.5352,10.1594 46.7792,10.9464 47.2672,11.4934 C47.7562,12.0404 48.3582,12.3144 49.0742,12.3144 C49.7902,12.3144 50.3902,12.0404 50.8762,11.4934 C51.3612,10.9464 51.6032,10.1524 51.6032,9.1104 C51.6032,8.0954 51.3612,7.3144 50.8762,6.7674 C50.3902,6.2204 49.7902,5.9464 49.0742,5.9464 C48.3582,5.9464 47.7562,6.2204 47.2672,6.7674 C46.7792,7.3144 46.5352,8.1014 46.5352,9.1304 M43.7232,8.9844 C43.7232,8.0724 43.9472,7.1904 44.3962,6.3374 C44.8462,5.4844 45.4822,4.8334 46.3062,4.3844 C47.1292,3.9354 48.0492,3.7104 49.0642,3.7104 C50.6342,3.7104 51.9192,4.2194 52.9222,5.2384 C53.9252,6.2574 54.4262,7.5454 54.4262,9.1014 C54.4262,10.6704 53.9202,11.9704 52.9072,13.0024 C51.8942,14.0344 50.6202,14.5504 49.0842,14.5504 C48.1342,14.5504 47.2262,14.3354 46.3642,13.9054 C45.5022,13.4764 44.8462,12.8464 44.3962,12.0164 C43.9472,11.1864 43.7232,10.1754 43.7232,8.9844"
          id="Fill-16"
        />
                <path
          d="M58.8711,8.9547 C58.8711,10.1207 59.1021,10.9807 59.5641,11.5377 C60.0261,12.0947 60.5901,12.3727 61.2541,12.3727 C61.8921,12.3727 62.4231,12.1177 62.8461,11.6057 C63.2681,11.0947 63.4801,10.2567 63.4801,9.0917 C63.4801,8.0037 63.2631,7.1967 62.8261,6.6697 C62.3901,6.1417 61.8501,5.8787 61.2051,5.8787 C60.5341,5.8787 59.9771,6.1377 59.5351,6.6547 C59.0931,7.1727 58.8711,7.9387 58.8711,8.9547 L58.8711,8.9547 Z M56.1561,3.9447 L58.7151,3.9447 L58.7151,5.4687 C59.0471,4.9477 59.4961,4.5247 60.0621,4.1987 C60.6291,3.8727 61.2571,3.7107 61.9471,3.7107 C63.1511,3.7107 64.1741,4.1827 65.0141,5.1267 C65.8531,6.0707 66.2731,7.3857 66.2731,9.0717 C66.2731,10.8037 65.8501,12.1497 65.0041,13.1097 C64.1571,14.0707 63.1321,14.5507 61.9281,14.5507 C61.3541,14.5507 60.8361,14.4367 60.3701,14.2087 C59.9041,13.9807 59.4151,13.5897 58.9001,13.0367 L58.9001,18.2617 L56.1561,18.2617 L56.1561,3.9447 Z"
          id="Fill-18"
        />
                <path
          d="M73.9737,9.3355 C73.6217,9.4525 73.0657,9.5925 72.3037,9.7555 C71.5417,9.9185 71.0437,10.0775 70.8097,10.2335 C70.4517,10.4875 70.2727,10.8105 70.2727,11.2005 C70.2727,11.5855 70.4157,11.9175 70.7027,12.1965 C70.9887,12.4765 71.3537,12.6165 71.7957,12.6165 C72.2907,12.6165 72.7627,12.4545 73.2117,12.1285 C73.5437,11.8805 73.7617,11.5785 73.8667,11.2205 C73.9377,10.9855 73.9737,10.5405 73.9737,9.8825 L73.9737,9.3355 Z M70.3017,7.1085 L67.8117,6.6595 C68.0917,5.6575 68.5737,4.9155 69.2567,4.4335 C69.9407,3.9515 70.9557,3.7105 72.3037,3.7105 C73.5277,3.7105 74.4397,3.8555 75.0377,4.1455 C75.6367,4.4345 76.0587,4.8025 76.3027,5.2485 C76.5467,5.6945 76.6687,6.5135 76.6687,7.7045 L76.6397,10.9075 C76.6397,11.8195 76.6837,12.4915 76.7717,12.9245 C76.8597,13.3575 77.0237,13.8215 77.2647,14.3155 L74.5497,14.3155 C74.4787,14.1335 74.3907,13.8635 74.2857,13.5055 C74.2407,13.3425 74.2077,13.2355 74.1887,13.1835 C73.7197,13.6385 73.2187,13.9805 72.6847,14.2085 C72.1507,14.4365 71.5807,14.5505 70.9757,14.5505 C69.9087,14.5505 69.0667,14.2605 68.4517,13.6815 C67.8357,13.1015 67.5287,12.3695 67.5287,11.4835 C67.5287,10.8985 67.6677,10.3755 67.9487,9.9165 C68.2287,9.4575 68.6197,9.1065 69.1247,8.8615 C69.6297,8.6175 70.3577,8.4045 71.3077,8.2225 C72.5897,7.9815 73.4787,7.7565 73.9737,7.5485 L73.9737,7.2745 C73.9737,6.7475 73.8437,6.3715 73.5827,6.1475 C73.3227,5.9225 72.8307,5.8105 72.1087,5.8105 C71.6197,5.8105 71.2397,5.9065 70.9657,6.0985 C70.6927,6.2905 70.4707,6.6275 70.3017,7.1085 L70.3017,7.1085 Z"
          id="Fill-20"
        />
            </g>
        </g>
    </g>
</svg>
