<svg
  width="219"
  height="45"
  viewBox="0 0 219 45"
  fill="none"
  xmlns="http://www.w3.org/2000/svg"
>
<path
    d="M142.48 36.248L142.102 23.072H144.622L145 36.248H142.48Z"
    fill="#515560"
  />
<path
    d="M136.214 26.6C136.214 26.204 136.19 25.808 136.142 25.412C136.106 25.016 136.058 24.644 135.998 24.296C135.938 23.936 135.884 23.624 135.836 23.36L138.356 23C138.404 23.24 138.452 23.558 138.5 23.954C138.548 24.35 138.59 24.77 138.626 25.214C138.662 25.646 138.68 26.06 138.68 26.456C138.68 27.08 138.626 27.668 138.518 28.22C138.41 28.772 138.248 29.294 138.032 29.786C137.816 30.266 137.546 30.728 137.222 31.172L136.898 31.604C136.586 31.988 136.22 32.366 135.8 32.738C135.392 33.11 134.942 33.47 134.45 33.818H135.62C136.028 33.818 136.34 33.794 136.556 33.746C136.772 33.698 136.916 33.632 136.988 33.548C137.072 33.452 137.114 33.344 137.114 33.224C137.114 33.008 136.928 32.69 136.556 32.27C136.184 31.838 135.668 31.346 135.008 30.794C134.348 30.23 133.574 29.636 132.686 29.012C131.81 28.376 130.862 27.74 129.842 27.104L131.156 25.178C132.572 26.054 133.766 26.858 134.738 27.59C135.722 28.322 136.526 28.988 137.15 29.588C137.786 30.188 138.278 30.734 138.626 31.226C138.974 31.718 139.214 32.162 139.346 32.558C139.478 32.942 139.544 33.29 139.544 33.602C139.544 33.95 139.49 34.286 139.382 34.61C139.274 34.922 139.1 35.204 138.86 35.456C138.62 35.696 138.308 35.888 137.924 36.032C137.54 36.176 137.066 36.248 136.502 36.248H131.21V33.836C132.446 32.948 133.424 32.108 134.144 31.316C134.876 30.524 135.404 29.744 135.728 28.976C136.052 28.208 136.214 27.416 136.214 26.6ZM129.68 24.908L129.374 23.648C129.794 23.576 130.106 23.516 130.31 23.468C130.526 23.42 130.754 23.366 130.994 23.306L130.814 23.756C130.502 23.648 130.202 23.438 129.914 23.126C129.638 22.802 129.5 22.436 129.5 22.028C129.5 21.596 129.596 21.248 129.788 20.984C129.98 20.72 130.226 20.528 130.526 20.408C130.826 20.288 131.138 20.228 131.462 20.228C131.642 20.228 131.81 20.24 131.966 20.264C132.134 20.288 132.284 20.324 132.416 20.372L132.272 21.668C132.152 21.644 132.032 21.62 131.912 21.596C131.792 21.572 131.66 21.56 131.516 21.56C131.36 21.56 131.216 21.614 131.084 21.722C130.964 21.818 130.904 21.938 130.904 22.082C130.904 22.286 130.976 22.466 131.12 22.622C131.264 22.778 131.432 22.904 131.624 23C131.828 23.084 131.996 23.132 132.128 23.144L131.138 23.252C131.462 23.168 131.768 23.084 132.056 23C132.344 22.904 132.614 22.808 132.866 22.712L133.226 23.918C132.926 24.026 132.572 24.146 132.164 24.278C131.768 24.398 131.354 24.512 130.922 24.62C130.502 24.728 130.088 24.824 129.68 24.908Z"
    fill="#515560"
  />
<path
    d="M121.183 40.3879L120.661 37.8679C121.513 37.7599 122.257 37.6279 122.893 37.4719C123.529 37.3279 124.063 37.1239 124.495 36.8599C124.927 36.5959 125.251 36.2359 125.467 35.7799C125.683 35.3119 125.791 34.7119 125.791 33.9799C125.791 33.7159 125.767 33.4519 125.719 33.1879C125.671 32.9119 125.599 32.6599 125.503 32.4319C125.407 32.2039 125.281 32.0179 125.125 31.8739C124.981 31.7299 124.807 31.6579 124.603 31.6579C124.387 31.6579 124.195 31.7359 124.027 31.8919C123.859 32.0359 123.727 32.2219 123.631 32.4499C123.535 32.6659 123.487 32.8879 123.487 33.1159C123.487 33.2839 123.529 33.4279 123.613 33.5479C123.697 33.6559 123.823 33.7399 123.991 33.7999C124.159 33.8479 124.369 33.8719 124.621 33.8719C124.909 33.8719 125.203 33.8419 125.503 33.7819C125.815 33.7099 126.097 33.6139 126.349 33.4939L126.421 35.4559C126.133 35.6839 125.803 35.8879 125.431 36.0679C125.059 36.2359 124.609 36.3199 124.081 36.3199C123.649 36.3199 123.247 36.2719 122.875 36.1759C122.503 36.0679 122.173 35.9059 121.885 35.6899C121.609 35.4739 121.393 35.1979 121.237 34.8619C121.081 34.5139 121.003 34.0999 121.003 33.6199C121.003 33.0319 121.099 32.4619 121.291 31.9099C121.483 31.3579 121.747 30.8659 122.083 30.4339C122.431 29.9899 122.827 29.6419 123.271 29.3899C123.727 29.1259 124.207 28.9939 124.711 28.9939C125.311 28.9939 125.833 29.1439 126.277 29.4439C126.733 29.7439 127.111 30.1399 127.411 30.6319C127.711 31.1119 127.939 31.6339 128.095 32.1979C128.251 32.7619 128.329 33.3019 128.329 33.8179C128.329 35.1739 128.041 36.3259 127.465 37.2739C126.889 38.2219 126.067 38.9539 124.999 39.4699C123.931 39.9979 122.659 40.3039 121.183 40.3879Z"
    fill="#515560"
  />
<path
    d="M113.08 40.388L112.162 38.084C113.194 37.724 114.028 37.328 114.664 36.896C115.312 36.464 115.786 36.002 116.086 35.51C116.398 35.018 116.554 34.508 116.554 33.98C116.554 33.644 116.506 33.296 116.41 32.936C116.314 32.564 116.176 32.174 115.996 31.766C115.828 31.358 115.624 30.932 115.384 30.488L117.742 29.354C118.162 30.158 118.486 30.926 118.714 31.658C118.954 32.39 119.074 33.074 119.074 33.71C119.074 34.298 118.996 34.862 118.84 35.402C118.696 35.942 118.468 36.446 118.156 36.914C117.856 37.394 117.466 37.844 116.986 38.264C116.506 38.684 115.942 39.068 115.294 39.416C114.646 39.776 113.908 40.1 113.08 40.388Z"
    fill="#515560"
  />
<path
    d="M104.853 40.3879L104.331 37.8679C105.183 37.7599 105.927 37.6279 106.563 37.4719C107.199 37.3279 107.733 37.1239 108.165 36.8599C108.597 36.5959 108.921 36.2359 109.137 35.7799C109.353 35.3119 109.461 34.7119 109.461 33.9799C109.461 33.7159 109.437 33.4519 109.389 33.1879C109.341 32.9119 109.269 32.6599 109.173 32.4319C109.077 32.2039 108.951 32.0179 108.795 31.8739C108.651 31.7299 108.477 31.6579 108.273 31.6579C108.057 31.6579 107.865 31.7359 107.697 31.8919C107.529 32.0359 107.397 32.2219 107.301 32.4499C107.205 32.6659 107.157 32.8879 107.157 33.1159C107.157 33.2839 107.199 33.4279 107.283 33.5479C107.367 33.6559 107.493 33.7399 107.661 33.7999C107.829 33.8479 108.039 33.8719 108.291 33.8719C108.579 33.8719 108.873 33.8419 109.173 33.7819C109.485 33.7099 109.767 33.6139 110.019 33.4939L110.091 35.4559C109.803 35.6839 109.473 35.8879 109.101 36.0679C108.729 36.2359 108.279 36.3199 107.751 36.3199C107.319 36.3199 106.917 36.2719 106.545 36.1759C106.173 36.0679 105.843 35.9059 105.555 35.6899C105.279 35.4739 105.063 35.1979 104.907 34.8619C104.751 34.5139 104.673 34.0999 104.673 33.6199C104.673 33.0319 104.769 32.4619 104.961 31.9099C105.153 31.3579 105.417 30.8659 105.753 30.4339C106.101 29.9899 106.497 29.6419 106.941 29.3899C107.397 29.1259 107.877 28.9939 108.381 28.9939C108.981 28.9939 109.503 29.1439 109.947 29.4439C110.403 29.7439 110.781 30.1399 111.081 30.6319C111.381 31.1119 111.609 31.6339 111.765 32.1979C111.921 32.7619 111.999 33.3019 111.999 33.8179C111.999 35.1739 111.711 36.3259 111.135 37.2739C110.559 38.2219 109.737 38.9539 108.669 39.4699C107.601 39.9979 106.329 40.3039 104.853 40.3879Z"
    fill="#515560"
  />
<path
    d="M98.1142 36.3381L98.2942 33.8181C98.8222 33.8181 99.2362 33.7821 99.5362 33.7101C99.8482 33.6381 100.07 33.5061 100.202 33.3141C100.334 33.1101 100.4 32.8221 100.4 32.4501C100.4 32.1141 100.352 31.7121 100.256 31.2441C100.172 30.7761 100.058 30.2901 99.9142 29.7861C99.7702 29.2821 99.6262 28.8201 99.4822 28.4001L101.966 27.7161C102.11 28.1241 102.254 28.5981 102.398 29.1381C102.542 29.6781 102.662 30.2361 102.758 30.8121C102.866 31.3761 102.92 31.9221 102.92 32.4501C102.92 33.1101 102.836 33.6681 102.668 34.1241C102.5 34.5681 102.266 34.9401 101.966 35.2401C101.678 35.5281 101.33 35.7561 100.922 35.9241C100.526 36.0801 100.088 36.1881 99.6082 36.2481C99.1282 36.3081 98.6302 36.3381 98.1142 36.3381ZM100.328 40.4781C99.9802 40.4781 99.6802 40.3581 99.4282 40.1181C99.1882 39.8781 99.0682 39.5841 99.0682 39.2361C99.0682 38.8881 99.1882 38.5821 99.4282 38.3181C99.6802 38.0661 99.9802 37.9401 100.328 37.9401C100.676 37.9401 100.97 38.0661 101.21 38.3181C101.462 38.5821 101.588 38.8881 101.588 39.2361C101.588 39.5841 101.462 39.8781 101.21 40.1181C100.97 40.3581 100.676 40.4781 100.328 40.4781Z"
    fill="#515560"
  />
<path
    d="M84.1857 35.7439C84.1857 35.4679 84.2097 35.1439 84.2577 34.7719C84.3057 34.3999 84.3957 33.9799 84.5277 33.5119C84.6597 33.0319 84.8577 32.4979 85.1217 31.9099L87.3357 32.6839C87.2037 33.0559 87.0897 33.3979 86.9937 33.7099C86.8977 34.0099 86.8257 34.2919 86.7777 34.5559C86.7297 34.8079 86.7057 35.0599 86.7057 35.3119C86.7057 35.7079 86.7897 36.0619 86.9577 36.3739C87.1377 36.6979 87.3957 36.9679 87.7317 37.1839C88.0677 37.4119 88.4757 37.5859 88.9557 37.7059C89.4477 37.8259 90.0117 37.8859 90.6477 37.8859C91.3077 37.8859 91.8957 37.8559 92.4117 37.7959C92.9397 37.7359 93.3837 37.6459 93.7437 37.5259C94.1157 37.4059 94.3977 37.2499 94.5897 37.0579C94.7817 36.8779 94.8777 36.6679 94.8777 36.4279C94.8777 36.3199 94.8357 36.2179 94.7517 36.1219C94.6797 36.0259 94.5537 35.9239 94.3737 35.8159C94.2057 35.7079 93.9777 35.5939 93.6897 35.4739C93.4137 35.3539 93.0777 35.2219 92.6817 35.0779L93.2757 32.5399C93.7917 32.7559 94.2777 32.9479 94.7337 33.1159C95.2017 33.2719 95.6457 33.4039 96.0657 33.5119C96.4857 33.6079 96.8817 33.6859 97.2537 33.7459C97.6257 33.7939 97.9737 33.8179 98.2977 33.8179C98.7537 33.8179 99.0777 33.9379 99.2697 34.1779C99.4617 34.4059 99.5577 34.6939 99.5577 35.0419C99.5577 35.4139 99.4317 35.7259 99.1797 35.9779C98.9277 36.2179 98.5737 36.3379 98.1177 36.3379C98.0217 36.3379 97.9257 36.3379 97.8297 36.3379C97.7457 36.3379 97.6557 36.3379 97.5597 36.3379C97.4757 36.3379 97.3857 36.3379 97.2897 36.3379C97.3137 36.4579 97.3257 36.5599 97.3257 36.6439C97.3257 36.7399 97.3257 36.8299 97.3257 36.9139C97.3257 37.3099 97.1877 37.7119 96.9117 38.1199C96.6477 38.5279 96.2337 38.9059 95.6697 39.2539C95.1057 39.6019 94.3857 39.8779 93.5097 40.0819C92.6457 40.2979 91.6137 40.4059 90.4137 40.4059C89.1177 40.4059 88.0017 40.2379 87.0657 39.9019C86.1417 39.5779 85.4277 39.0679 84.9237 38.3719C84.4317 37.6879 84.1857 36.8119 84.1857 35.7439ZM92.1777 44.5819C91.8297 44.5819 91.5297 44.4559 91.2777 44.2039C91.0377 43.9639 90.9177 43.6759 90.9177 43.3399C90.9177 42.9919 91.0377 42.6919 91.2777 42.4399C91.5297 42.1879 91.8297 42.0619 92.1777 42.0619C92.5137 42.0619 92.8017 42.1879 93.0417 42.4399C93.2817 42.6919 93.4017 42.9919 93.4017 43.3399C93.4017 43.6759 93.2817 43.9639 93.0417 44.2039C92.8017 44.4559 92.5137 44.5819 92.1777 44.5819ZM89.0637 44.5819C88.7157 44.5819 88.4157 44.4559 88.1637 44.2039C87.9237 43.9639 87.8037 43.6759 87.8037 43.3399C87.8037 42.9919 87.9237 42.6919 88.1637 42.4399C88.4157 42.1879 88.7157 42.0619 89.0637 42.0619C89.3997 42.0619 89.6877 42.1879 89.9277 42.4399C90.1677 42.6919 90.2877 42.9919 90.2877 43.3399C90.2877 43.6759 90.1677 43.9639 89.9277 44.2039C89.6877 44.4559 89.3997 44.5819 89.0637 44.5819Z"
    fill="#515560"
  />
<path
    d="M142.48 13.248L142.102 0.0720215H144.622L145 13.248H142.48Z"
    fill="#515560"
  />
<path
    d="M136.759 3.6C136.759 3.204 136.735 2.808 136.687 2.412C136.651 2.016 136.603 1.644 136.543 1.296C136.483 0.936001 136.429 0.624001 136.381 0.360001L138.901 0C138.949 0.24 138.997 0.558001 139.045 0.954C139.093 1.35 139.135 1.77 139.171 2.214C139.207 2.646 139.225 3.06 139.225 3.456C139.225 4.08 139.171 4.668 139.063 5.22C138.955 5.772 138.793 6.294 138.577 6.786C138.361 7.266 138.091 7.728 137.767 8.172L137.443 8.604C137.131 8.988 136.765 9.366 136.345 9.738C135.937 10.11 135.487 10.47 134.995 10.818H136.165C136.573 10.818 136.885 10.794 137.101 10.746C137.317 10.698 137.461 10.632 137.533 10.548C137.617 10.452 137.659 10.344 137.659 10.224C137.659 10.008 137.473 9.69 137.101 9.27C136.729 8.838 136.213 8.346 135.553 7.794C134.893 7.23 134.119 6.636 133.231 6.012C132.355 5.376 131.407 4.74 130.387 4.104L131.701 2.178C133.117 3.054 134.311 3.858 135.283 4.59C136.267 5.322 137.071 5.988 137.695 6.588C138.331 7.188 138.823 7.734 139.171 8.226C139.519 8.718 139.759 9.162 139.891 9.558C140.023 9.942 140.089 10.29 140.089 10.602C140.089 10.95 140.035 11.286 139.927 11.61C139.819 11.922 139.645 12.204 139.405 12.456C139.165 12.696 138.853 12.888 138.469 13.032C138.085 13.176 137.611 13.248 137.047 13.248H131.755V10.836C132.991 9.948 133.969 9.108 134.689 8.316C135.421 7.524 135.949 6.744 136.273 5.976C136.597 5.208 136.759 4.416 136.759 3.6Z"
    fill="#515560"
  />
<path
    d="M123.198 13.338L123.378 10.818C124.098 10.818 124.65 10.782 125.034 10.71C125.418 10.638 125.682 10.506 125.826 10.314C125.982 10.11 126.06 9.82197 126.06 9.44997C126.06 9.11397 126.012 8.71197 125.916 8.24397C125.832 7.77597 125.718 7.28997 125.574 6.78597C125.442 6.28197 125.298 5.81997 125.142 5.39997L127.626 4.71597C127.782 5.12397 127.932 5.59797 128.076 6.13797C128.22 6.67797 128.34 7.23597 128.436 7.81197C128.532 8.37597 128.58 8.92197 128.58 9.44997C128.58 10.266 128.448 10.932 128.184 11.448C127.92 11.952 127.548 12.342 127.068 12.618C126.6 12.894 126.036 13.086 125.376 13.194C124.716 13.29 123.99 13.338 123.198 13.338ZM128.076 3.25797C127.728 3.25797 127.428 3.13797 127.176 2.89797C126.936 2.64597 126.816 2.35197 126.816 2.01597C126.816 1.66797 126.936 1.36797 127.176 1.11597C127.428 0.863971 127.728 0.73797 128.076 0.73797C128.412 0.73797 128.7 0.863971 128.94 1.11597C129.18 1.36797 129.3 1.66797 129.3 2.01597C129.3 2.35197 129.18 2.64597 128.94 2.89797C128.7 3.13797 128.412 3.25797 128.076 3.25797ZM124.962 3.23997C124.614 3.23997 124.314 3.11997 124.062 2.87997C123.822 2.62797 123.702 2.33397 123.702 1.99797C123.702 1.64997 123.822 1.34997 124.062 1.09797C124.314 0.845971 124.614 0.719971 124.962 0.719971C125.298 0.719971 125.586 0.845971 125.826 1.09797C126.066 1.34997 126.186 1.64997 126.186 1.99797C126.186 2.33397 126.066 2.62797 125.826 2.87997C125.586 3.11997 125.298 3.23997 124.962 3.23997Z"
    fill="#515560"
  />
<path
    d="M123.193 13.338C122.641 13.338 122.125 13.296 121.645 13.212C121.177 13.128 120.745 12.984 120.349 12.78C119.953 12.564 119.599 12.27 119.287 11.898C118.987 11.526 118.735 11.058 118.531 10.494L119.953 9.36003C120.169 9.74403 120.433 10.044 120.745 10.26C121.057 10.464 121.429 10.608 121.861 10.692C122.293 10.776 122.797 10.818 123.373 10.818C123.829 10.818 124.153 10.938 124.345 11.178C124.537 11.406 124.633 11.694 124.633 12.042C124.633 12.414 124.507 12.726 124.255 12.978C124.015 13.218 123.661 13.338 123.193 13.338ZM111.421 13.338L111.601 10.818C112.249 10.818 112.891 10.782 113.527 10.71C114.163 10.638 114.781 10.53 115.381 10.386C115.981 10.242 116.551 10.056 117.091 9.82804C117.643 9.60004 118.159 9.32404 118.639 9.00004C118.279 8.78404 117.889 8.59803 117.469 8.44203C117.049 8.28603 116.599 8.17203 116.119 8.10003C115.651 8.01603 115.153 7.97404 114.625 7.97404C114.433 7.97404 114.229 7.98004 114.013 7.99203C113.809 8.00404 113.599 8.02804 113.383 8.06404C113.167 8.08804 112.951 8.12404 112.735 8.17204L112.375 5.70603C112.723 5.61003 113.089 5.54404 113.473 5.50804C113.869 5.46004 114.217 5.43604 114.517 5.43604C115.165 5.43604 115.759 5.50803 116.299 5.65203C116.851 5.79603 117.355 5.97603 117.811 6.19203C118.279 6.40803 118.711 6.62404 119.107 6.84004C119.515 7.05604 119.899 7.23604 120.259 7.38004C120.631 7.52404 120.991 7.59604 121.339 7.59604H122.005L122.293 9.99004C121.777 10.014 121.291 10.116 120.835 10.296C120.391 10.464 119.947 10.68 119.503 10.944C119.071 11.196 118.603 11.46 118.099 11.736C117.607 12.012 117.049 12.27 116.425 12.51C115.801 12.75 115.081 12.948 114.265 13.104C113.449 13.26 112.501 13.338 111.421 13.338Z"
    fill="#515560"
  />
<path
    d="M111.396 13.338C110.28 13.338 109.416 13.224 108.804 12.996C108.204 12.768 107.784 12.414 107.544 11.934C107.304 11.442 107.166 10.824 107.13 10.08L106.752 0.0720215H109.272L109.65 8.87402C109.674 9.42602 109.734 9.84002 109.83 10.116C109.926 10.392 110.106 10.578 110.37 10.674C110.646 10.77 111.048 10.818 111.576 10.818C112.032 10.818 112.356 10.938 112.548 11.178C112.752 11.406 112.854 11.694 112.854 12.042C112.854 12.414 112.728 12.726 112.476 12.978C112.224 13.218 111.864 13.338 111.396 13.338Z"
    fill="#515560"
  />
<path
    d="M97.0215 12.5279L97.9035 10.2419C98.3475 10.4339 98.7735 10.5779 99.1815 10.6739C99.5895 10.7699 99.9975 10.8179 100.406 10.8179C100.826 10.8179 101.174 10.7819 101.45 10.7099C101.738 10.6259 101.954 10.5059 102.098 10.3499C102.242 10.1939 102.314 10.0079 102.314 9.79189C102.314 9.58789 102.248 9.30589 102.116 8.94589C101.996 8.58589 101.774 8.11789 101.45 7.54189C101.126 6.95389 100.652 6.22789 100.028 5.36389L102.17 3.94189C102.746 4.75789 103.244 5.55589 103.664 6.3359C104.084 7.10389 104.408 7.82389 104.636 8.49589C104.876 9.15589 104.996 9.73789 104.996 10.2419C104.996 10.8659 104.828 11.4119 104.492 11.8799C104.168 12.3359 103.682 12.6959 103.034 12.9599C102.398 13.2239 101.612 13.3559 100.676 13.3559C100.328 13.3559 99.9375 13.3259 99.5055 13.2659C99.0735 13.2059 98.6355 13.1159 98.1915 12.9959C97.7595 12.8759 97.3695 12.7199 97.0215 12.5279Z"
    fill="#515560"
  />
<rect x="153" width="66" height="44" fill="#003399" />
<path
    fill-rule="evenodd"
    clip-rule="evenodd"
    d="M183.745 7.15L185.138 8.1675L184.607 9.82667L186 8.8L187.393 9.82667L186.862 8.1675L188.255 7.15H186.532L186 5.5L185.468 7.15H183.745ZM187.393 38.4995L186.862 36.8495L188.255 35.832H186.532L186 34.1729L185.468 35.832H183.745L185.138 36.8495L184.607 38.4995L186 37.482L187.393 38.4995ZM171.755 23.1002L170.362 24.1269L170.893 22.4769L169.5 21.4869H171.223L171.755 19.8369L172.287 21.4869H174.019L172.617 22.5136L173.148 24.1636L171.755 23.1369V23.1002ZM180.271 11.7331L179.739 10.0831L181.133 9.0748H179.409L178.878 7.4248L178.346 9.0748H176.623L178.016 10.0923L177.484 11.7423L178.878 10.7248L180.271 11.7331ZM173.167 14.318L173.698 12.668L174.239 14.318H175.917L174.523 15.3446L175.055 16.9946L173.653 15.968L172.25 16.9946L172.782 15.3446L171.388 14.318H173.167ZM173.167 28.6549H171.407H171.388L172.782 29.6815L172.25 31.3316L173.653 30.314L175.055 31.3316L174.523 29.6815L175.917 28.6549H174.239L173.698 27.0049L173.167 28.6549ZM178.016 34.9249L176.623 33.9166H178.346L178.878 32.2666L179.409 33.9166H181.133L179.739 34.9249L180.271 36.5749L178.878 35.5574L177.484 36.5749L178.016 34.9249ZM201.638 24.1636L201.107 22.5136L202.5 21.4869H200.813L200.282 19.8369L199.75 21.4869H197.963L199.365 22.5136L198.833 24.1636L200.245 23.1369L201.638 24.1636ZM192.261 10.0831L190.868 9.0748H192.591L193.123 7.4248L193.654 9.0748H195.378L193.984 10.0831L194.516 11.7331L193.123 10.7248L191.729 11.7423L192.261 10.0923V10.0831ZM198.302 12.6592L197.761 14.3092L196.083 14.3183L197.468 15.345L196.936 16.995L198.338 15.9683L199.732 16.995L199.2 15.345L200.557 14.3092H198.833L198.302 12.6592ZM198.879 28.6549H200.557L199.2 29.6815L199.732 31.3316L198.338 30.314L196.936 31.3316L197.468 29.6815L196.083 28.6549H197.807L198.348 27.0049L198.879 28.6549ZM193.984 34.9249L195.378 33.9166H193.654L193.123 32.2666L192.591 33.9166H190.868L192.261 34.9249L191.729 36.5749L193.123 35.5574L194.516 36.5749L193.984 34.9249Z"
    fill="#FFCC00"
  />
</svg>
