<?xml version="1.0" encoding="UTF-8" ?>
<svg
  width="173px"
  height="48px"
  viewBox="0 0 173 48"
  version="1.1"
  xmlns="http://www.w3.org/2000/svg"
  xmlns:xlink="http://www.w3.org/1999/xlink"
>
    <!-- Generator: Sketch 64 (93537) - https://sketch.com -->
    <title>EU/EU-emblem/standard-version/positive/LV</title>
    <desc>Created with Sketch.</desc>
    <g
    id="EU/EU-emblem/standard-version/positive/LV"
    stroke="none"
    stroke-width="1"
    fill="none"
    fill-rule="evenodd"
  >
        <g id="EU-emblem_standard">
            <g id="EU/EU-emblem/flag/flag-positive">
                <g id="EU_flag">
                    <rect
            id="🌈-flag"
            fill="#003399"
            fill-rule="nonzero"
            x="0"
            y="0"
            width="72"
            height="48"
          />
                    <path
            d="M35.06,8.91 L33.54,7.8 L35.42,7.8 L36,6 L36.58,7.8 L38.46,7.8 L36.94,8.91 L37.52,10.72 L36,9.6 L34.48,10.72 L35.06,8.91 L35.06,8.91 Z M36.94,40.2 L37.52,42 L36,40.89 L34.48,42 L35.06,40.2 L33.54,39.09 L35.42,39.09 L36,37.28 L36.58,39.09 L38.46,39.09 L36.94,40.2 Z M20.46,25.2 L18.94,26.32 L19.52,24.52 L18,23.44 L19.88,23.44 L20.46,21.64 L21.04,23.44 L22.93,23.44 L21.4,24.56 L21.98,26.36 L20.46,25.24 L20.46,25.2 Z M29.17,11 L29.75,12.8 L28.23,11.7 L26.71,12.81 L27.29,11.01 L25.77,9.9 L27.65,9.9 L28.23,8.1 L28.81,9.9 L30.69,9.9 L29.17,11 Z M22,15.62 L22.58,13.82 L23.17,15.62 L25,15.62 L23.48,16.74 L24.06,18.54 L22.53,17.42 L21,18.54 L21.58,16.74 L20.06,15.62 L22,15.62 Z M20.08,31.26 L22,31.26 L22.58,29.46 L23.17,31.26 L25,31.26 L23.48,32.38 L24.06,34.18 L22.53,33.07 L21,34.18 L21.58,32.38 L20.06,31.26 L20.08,31.26 Z M27.29,38.1 L25.77,37 L27.65,37 L28.23,35.2 L28.81,37 L30.69,37 L29.17,38.1 L29.75,39.9 L28.23,38.79 L26.71,39.9 L27.29,38.1 Z M52.48,24.56 L53.06,26.36 L51.54,25.24 L50,26.36 L50.58,24.56 L49.05,23.44 L51,23.44 L51.58,21.64 L52.16,23.44 L54,23.44 L52.48,24.56 Z M42.83,11 L41.31,9.9 L43.19,9.9 L43.77,8.1 L44.35,9.9 L46.23,9.9 L44.71,11 L45.29,12.8 L43.77,11.7 L42.25,12.81 L42.83,11.01 L42.83,11 Z M48.83,15.61 L49.42,13.81 L50,15.61 L51.88,15.61 L50.4,16.74 L50.98,18.54 L49.46,17.42 L47.93,18.54 L48.51,16.74 L47,15.62 L48.83,15.61 Z M50,31.26 L51.88,31.26 L50.4,32.38 L50.98,34.18 L49.46,33.07 L47.93,34.18 L48.51,32.38 L47,31.26 L48.88,31.26 L49.47,29.46 L50.05,31.26 L50,31.26 Z M46.23,37 L44.71,38.1 L45.29,39.9 L43.77,38.79 L42.25,39.9 L42.83,38.1 L41.31,37 L43.19,37 L43.77,35.2 L44.35,37 L46.23,37 Z"
            id="🌈-stars"
            fill="#FFCC00"
            fill-rule="nonzero"
          />
                </g>
            </g>
            <g
        id="🌈-Savienības"
        transform="translate(83.306500, 27.445300)"
        fill="#515560"
      >
                <path
          d="M-1.91846539e-13,9.902 L2.813,9.629 C2.981,10.572 3.325,11.266 3.843,11.709 C4.36,12.152 5.059,12.373 5.937,12.373 C6.868,12.373 7.57,12.176 8.042,11.782 C8.514,11.388 8.75,10.927 8.75,10.4 C8.75,10.062 8.65,9.774 8.452,9.536 C8.254,9.298 7.907,9.091 7.412,8.916 C7.073,8.798 6.302,8.59 5.098,8.291 C3.548,7.906 2.461,7.435 1.836,6.875 C0.957,6.087 0.518,5.127 0.518,3.994 C0.518,3.265 0.725,2.583 1.138,1.948 C1.551,1.313 2.146,0.83 2.925,0.498 C3.703,0.166 4.642,1.50990331e-13 5.742,1.50990331e-13 C7.539,1.50990331e-13 8.892,0.394 9.8,1.181 C10.708,1.969 11.185,3.021 11.23,4.336 L8.34,4.463 C8.216,3.727 7.951,3.198 7.544,2.876 C7.137,2.553 6.526,2.392 5.713,2.392 C4.873,2.392 4.216,2.565 3.74,2.91 C3.435,3.131 3.281,3.427 3.281,3.798 C3.281,4.137 3.425,4.427 3.711,4.668 C4.075,4.974 4.961,5.293 6.367,5.625 C7.773,5.957 8.813,6.3 9.487,6.655 C10.161,7.01 10.688,7.495 11.069,8.11 C11.45,8.725 11.641,9.485 11.641,10.39 C11.641,11.211 11.413,11.979 10.957,12.695 C10.501,13.411 9.856,13.944 9.023,14.292 C8.19,14.64 7.151,14.814 5.908,14.814 C4.099,14.814 2.708,14.396 1.738,13.559 C0.769,12.723 0.188,11.504 -1.91846539e-13,9.902"
          id="Fill-3"
        />
                <path
          d="M19.2754,9.5797 C18.9234,9.6967 18.3674,9.8367 17.6054,9.9997 C16.8434,10.1627 16.3454,10.3217 16.1114,10.4777 C15.7534,10.7317 15.5744,11.0547 15.5744,11.4447 C15.5744,11.8297 15.7174,12.1617 16.0044,12.4407 C16.2904,12.7207 16.6554,12.8607 17.0974,12.8607 C17.5924,12.8607 18.0644,12.6987 18.5134,12.3727 C18.8454,12.1247 19.0634,11.8227 19.1684,11.4647 C19.2394,11.2297 19.2754,10.7847 19.2754,10.1267 L19.2754,9.5797 Z M15.6034,7.3527 L13.1134,6.9037 C13.3934,5.9017 13.8754,5.1597 14.5584,4.6777 C15.2424,4.1957 16.2574,3.9547 17.6054,3.9547 C18.8294,3.9547 19.7414,4.0997 20.3394,4.3897 C20.9384,4.6787 21.3604,5.0467 21.6044,5.4927 C21.8484,5.9387 21.9704,6.7577 21.9704,7.9487 L21.9414,11.1517 C21.9414,12.0637 21.9854,12.7357 22.0734,13.1687 C22.1614,13.6017 22.3254,14.0657 22.5664,14.5597 L19.8514,14.5597 C19.7804,14.3777 19.6924,14.1077 19.5874,13.7497 C19.5424,13.5867 19.5094,13.4797 19.4904,13.4277 C19.0214,13.8827 18.5204,14.2247 17.9864,14.4527 C17.4524,14.6807 16.8824,14.7947 16.2774,14.7947 C15.2104,14.7947 14.3684,14.5047 13.7534,13.9257 C13.1374,13.3457 12.8304,12.6137 12.8304,11.7277 C12.8304,11.1417 12.9694,10.6197 13.2504,10.1607 C13.5304,9.7017 13.9214,9.3507 14.4264,9.1057 C14.9314,8.8617 15.6594,8.6487 16.6094,8.4667 C17.8914,8.2257 18.7804,8.0007 19.2754,7.7927 L19.2754,7.5187 C19.2754,6.9917 19.1454,6.6157 18.8844,6.3917 C18.6244,6.1667 18.1324,6.0547 17.4104,6.0547 C16.9214,6.0547 16.5414,6.1507 16.2674,6.3427 C15.9944,6.5347 15.7724,6.8717 15.6034,7.3527 L15.6034,7.3527 Z"
          id="Fill-5"
        />
                <path
          d="M26.9278,14.5602 L22.7478,4.1892 L25.6288,4.1892 L27.5818,9.4822 L28.1488,11.2492 C28.2978,10.8002 28.3928,10.5042 28.4318,10.3612 C28.5228,10.0682 28.6198,9.7752 28.7248,9.4822 L30.6978,4.1892 L33.5198,4.1892 L29.3988,14.5602 L26.9278,14.5602 Z"
          id="Fill-7"
        />
                <path
          d="M34.8985,14.5597 L37.6425,14.5597 L37.6425,4.1887 L34.8985,4.1887 L34.8985,14.5597 Z M34.8985,2.7827 L37.6425,2.7827 L37.6425,0.2437 L34.8985,0.2437 L34.8985,2.7827 Z"
          id="Fill-9"
        />
                <path
          d="M46.1172,8.486 C46.0972,7.692 45.8922,7.088 45.5022,6.674 C45.1112,6.261 44.6362,6.054 44.0762,6.054 C43.4772,6.054 42.9822,6.273 42.5922,6.709 C42.2012,7.145 42.0092,7.737 42.0152,8.486 L46.1172,8.486 Z M45.9612,11.259 L48.6952,11.718 C48.3442,12.721 47.7892,13.485 47.0302,14.008 C46.2712,14.532 45.3232,14.795 44.1832,14.795 C42.3802,14.795 41.0462,14.205 40.1802,13.027 C39.4962,12.083 39.1542,10.892 39.1542,9.453 C39.1542,7.734 39.6032,6.388 40.5022,5.415 C41.4002,4.442 42.5362,3.955 43.9102,3.955 C45.4532,3.955 46.6712,4.464 47.5622,5.483 C48.4542,6.502 48.8812,8.063 48.8422,10.166 L41.9672,10.166 C41.9862,10.98 42.2082,11.612 42.6312,12.065 C43.0542,12.518 43.5812,12.744 44.2132,12.744 C44.6422,12.744 45.0042,12.627 45.2972,12.392 C45.5902,12.158 45.8112,11.78 45.9612,11.259 L45.9612,11.259 Z"
          id="Fill-11"
        />
                <path
          d="M60.0117,14.5602 L57.2677,14.5602 L57.2677,9.2672 C57.2677,8.1472 57.2087,7.4232 57.0917,7.0942 C56.9747,6.7662 56.7837,6.5102 56.5207,6.3282 C56.2567,6.1452 55.9397,6.0542 55.5687,6.0542 C55.0927,6.0542 54.6667,6.1852 54.2887,6.4452 C53.9107,6.7052 53.6527,7.0502 53.5127,7.4802 C53.3727,7.9102 53.3027,8.7042 53.3027,9.8632 L53.3027,14.5602 L50.5587,14.5602 L50.5587,4.1892 L53.1077,4.1892 L53.1077,5.7122 C54.0127,4.5402 55.1517,3.9552 56.5257,3.9552 C57.1307,3.9552 57.6847,4.0632 58.1857,4.2822 C58.6867,4.5002 59.0667,4.7782 59.3237,5.1172 C59.5797,5.4552 59.7597,5.8392 59.8607,6.2692 C59.9607,6.6992 60.0117,7.3142 60.0117,8.1152 L60.0117,14.5602 Z"
          id="Fill-12"
        />
                <path
          d="M62.2945,14.5597 L65.0385,14.5597 L65.0385,4.1887 L62.2945,4.1887 L62.2945,14.5597 Z M60.4885,2.4807 L66.7775,2.4807 L66.7775,0.6737 L60.4885,0.6737 L60.4885,2.4807 Z"
          id="Fill-13"
        />
                <path
          d="M70.459,9.15 C70.459,10.224 70.628,11.019 70.967,11.533 C71.442,12.262 72.073,12.627 72.861,12.627 C73.467,12.627 73.982,12.368 74.409,11.85 C74.836,11.333 75.049,10.517 75.049,9.404 C75.049,8.219 74.834,7.364 74.404,6.84 C73.975,6.317 73.425,6.054 72.754,6.054 C72.097,6.054 71.55,6.31 71.113,6.821 C70.677,7.332 70.459,8.108 70.459,9.15 L70.459,9.15 Z M67.734,14.56 L67.734,0.244 L70.479,0.244 L70.479,5.4 C71.325,4.437 72.327,3.955 73.486,3.955 C74.749,3.955 75.794,4.412 76.621,5.327 C77.448,6.241 77.861,7.555 77.861,9.267 C77.861,11.038 77.439,12.402 76.597,13.359 C75.754,14.316 74.73,14.795 73.525,14.795 C72.933,14.795 72.349,14.647 71.772,14.35 C71.196,14.054 70.7,13.616 70.283,13.037 L70.283,14.56 L67.734,14.56 Z"
          id="Fill-14"
        />
                <path
          d="M85.5918,9.5797 C85.2398,9.6967 84.6838,9.8367 83.9218,9.9997 C83.1598,10.1627 82.6618,10.3217 82.4278,10.4777 C82.0698,10.7317 81.8908,11.0547 81.8908,11.4447 C81.8908,11.8297 82.0338,12.1617 82.3208,12.4407 C82.6068,12.7207 82.9718,12.8607 83.4138,12.8607 C83.9088,12.8607 84.3808,12.6987 84.8298,12.3727 C85.1618,12.1247 85.3798,11.8227 85.4848,11.4647 C85.5558,11.2297 85.5918,10.7847 85.5918,10.1267 L85.5918,9.5797 Z M81.9198,7.3527 L79.4298,6.9037 C79.7098,5.9017 80.1918,5.1597 80.8748,4.6777 C81.5588,4.1957 82.5738,3.9547 83.9218,3.9547 C85.1458,3.9547 86.0578,4.0997 86.6558,4.3897 C87.2548,4.6787 87.6768,5.0467 87.9208,5.4927 C88.1648,5.9387 88.2868,6.7577 88.2868,7.9487 L88.2578,11.1517 C88.2578,12.0637 88.3018,12.7357 88.3898,13.1687 C88.4778,13.6017 88.6418,14.0657 88.8828,14.5597 L86.1678,14.5597 C86.0968,14.3777 86.0088,14.1077 85.9038,13.7497 C85.8588,13.5867 85.8258,13.4797 85.8068,13.4277 C85.3378,13.8827 84.8368,14.2247 84.3028,14.4527 C83.7688,14.6807 83.1988,14.7947 82.5938,14.7947 C81.5268,14.7947 80.6848,14.5047 80.0698,13.9257 C79.4538,13.3457 79.1468,12.6137 79.1468,11.7277 C79.1468,11.1417 79.2858,10.6197 79.5668,10.1607 C79.8468,9.7017 80.2378,9.3507 80.7428,9.1057 C81.2478,8.8617 81.9758,8.6487 82.9258,8.4667 C84.2078,8.2257 85.0968,8.0007 85.5918,7.7927 L85.5918,7.5187 C85.5918,6.9917 85.4618,6.6157 85.2008,6.3917 C84.9408,6.1667 84.4488,6.0547 83.7268,6.0547 C83.2378,6.0547 82.8578,6.1507 82.5838,6.3427 C82.3108,6.5347 82.0888,6.8717 81.9198,7.3527 L81.9198,7.3527 Z"
          id="Fill-15"
        />
            </g>
            <g
        id="🌈-Eiropas"
        transform="translate(84.030200, 6.009000)"
        fill="#515560"
      >
                <polygon
          id="Fill-17"
          points="-3.90798505e-13 14.3168 -3.90798505e-13 0.0008 10.615 0.0008 10.615 2.4218 2.891 2.4218 2.891 5.5958 10.078 5.5958 10.078 8.0078 2.891 8.0078 2.891 11.9048 10.889 11.9048 10.889 14.3168"
        />
                <path
          d="M13.0398,14.317 L15.7838,14.317 L15.7838,3.946 L13.0398,3.946 L13.0398,14.317 Z M13.0398,2.539 L15.7838,2.539 L15.7838,-4.51194637e-13 L13.0398,-4.51194637e-13 L13.0398,2.539 Z"
          id="Fill-18"
        />
                <path
          d="M21.4238,14.3168 L18.6798,14.3168 L18.6798,3.9458 L21.2288,3.9458 L21.2288,5.4208 C21.6648,4.7238 22.0568,4.2648 22.4048,4.0438 C22.7538,3.8218 23.1498,3.7118 23.5918,3.7118 C24.2168,3.7118 24.8198,3.8838 25.3988,4.2288 L24.5488,6.6218 C24.0868,6.3218 23.6568,6.1718 23.2598,6.1718 C22.8758,6.1718 22.5498,6.2778 22.2828,6.4898 C22.0168,6.7008 21.8068,7.0838 21.6528,7.6368 C21.4998,8.1908 21.4238,9.3498 21.4238,11.1138 L21.4238,14.3168 Z"
          id="Fill-19"
        />
                <path
          d="M28.458,9.1313 C28.458,10.1603 28.702,10.9473 29.19,11.4943 C29.679,12.0413 30.281,12.3153 30.997,12.3153 C31.713,12.3153 32.313,12.0413 32.799,11.4943 C33.284,10.9473 33.526,10.1533 33.526,9.1113 C33.526,8.0963 33.284,7.3153 32.799,6.7683 C32.313,6.2213 31.713,5.9473 30.997,5.9473 C30.281,5.9473 29.679,6.2213 29.19,6.7683 C28.702,7.3153 28.458,8.1023 28.458,9.1313 M25.645,8.9853 C25.645,8.0733 25.87,7.1913 26.319,6.3383 C26.769,5.4853 27.405,4.8343 28.229,4.3853 C29.052,3.9363 29.972,3.7113 30.987,3.7113 C32.557,3.7113 33.842,4.2203 34.845,5.2393 C35.848,6.2583 36.349,7.5463 36.349,9.1023 C36.349,10.6713 35.843,11.9713 34.83,13.0033 C33.817,14.0353 32.543,14.5513 31.007,14.5513 C30.057,14.5513 29.149,14.3363 28.287,13.9063 C27.425,13.4773 26.769,12.8473 26.319,12.0173 C25.87,11.1873 25.645,10.1763 25.645,8.9853"
          id="Fill-20"
        />
                <path
          d="M40.7939,8.9555 C40.7939,10.1215 41.0249,10.9815 41.4869,11.5385 C41.9489,12.0955 42.5129,12.3735 43.1769,12.3735 C43.8149,12.3735 44.3459,12.1185 44.7689,11.6065 C45.1909,11.0955 45.4029,10.2575 45.4029,9.0925 C45.4029,8.0045 45.1859,7.1975 44.7489,6.6705 C44.3129,6.1425 43.7729,5.8795 43.1279,5.8795 C42.4569,5.8795 41.8999,6.1385 41.4579,6.6555 C41.0159,7.1735 40.7939,7.9395 40.7939,8.9555 L40.7939,8.9555 Z M38.0789,3.9455 L40.6379,3.9455 L40.6379,5.4695 C40.9699,4.9485 41.4189,4.5255 41.9849,4.1995 C42.5519,3.8735 43.1799,3.7115 43.8699,3.7115 C45.0739,3.7115 46.0969,4.1835 46.9369,5.1275 C47.7759,6.0715 48.1959,7.3865 48.1959,9.0725 C48.1959,10.8045 47.7729,12.1505 46.9269,13.1105 C46.0799,14.0715 45.0549,14.5515 43.8509,14.5515 C43.2769,14.5515 42.7589,14.4375 42.2929,14.2095 C41.8269,13.9815 41.3379,13.5905 40.8229,13.0375 L40.8229,18.2625 L38.0789,18.2625 L38.0789,3.9455 Z"
          id="Fill-21"
        />
                <path
          d="M55.8964,9.3363 C55.5444,9.4533 54.9884,9.5933 54.2264,9.7563 C53.4644,9.9193 52.9664,10.0783 52.7324,10.2343 C52.3744,10.4883 52.1954,10.8113 52.1954,11.2013 C52.1954,11.5863 52.3384,11.9183 52.6254,12.1973 C52.9114,12.4773 53.2764,12.6173 53.7184,12.6173 C54.2134,12.6173 54.6854,12.4553 55.1344,12.1293 C55.4664,11.8813 55.6844,11.5793 55.7894,11.2213 C55.8604,10.9863 55.8964,10.5413 55.8964,9.8833 L55.8964,9.3363 Z M52.2244,7.1093 L49.7344,6.6603 C50.0144,5.6583 50.4964,4.9163 51.1794,4.4343 C51.8634,3.9523 52.8784,3.7113 54.2264,3.7113 C55.4504,3.7113 56.3624,3.8563 56.9604,4.1463 C57.5594,4.4353 57.9814,4.8033 58.2254,5.2493 C58.4694,5.6953 58.5914,6.5143 58.5914,7.7053 L58.5624,10.9083 C58.5624,11.8203 58.6064,12.4923 58.6944,12.9253 C58.7824,13.3583 58.9464,13.8223 59.1874,14.3163 L56.4724,14.3163 C56.4014,14.1343 56.3134,13.8643 56.2084,13.5063 C56.1634,13.3433 56.1304,13.2363 56.1114,13.1843 C55.6424,13.6393 55.1414,13.9813 54.6074,14.2093 C54.0734,14.4373 53.5034,14.5513 52.8984,14.5513 C51.8314,14.5513 50.9894,14.2613 50.3744,13.6823 C49.7584,13.1023 49.4514,12.3703 49.4514,11.4843 C49.4514,10.8983 49.5904,10.3763 49.8714,9.9173 C50.1514,9.4583 50.5424,9.1073 51.0474,8.8623 C51.5524,8.6183 52.2804,8.4053 53.2304,8.2233 C54.5124,7.9823 55.4014,7.7573 55.8964,7.5493 L55.8964,7.2753 C55.8964,6.7483 55.7664,6.3723 55.5054,6.1483 C55.2454,5.9233 54.7534,5.8113 54.0314,5.8113 C53.5424,5.8113 53.1624,5.9073 52.8884,6.0993 C52.6154,6.2913 52.3934,6.6283 52.2244,7.1093 L52.2244,7.1093 Z"
          id="Fill-22"
        />
                <path
          d="M60.5302,11.3578 L63.2842,10.9378 C63.4012,11.4718 63.6382,11.8768 63.9972,12.1538 C64.3552,12.4308 64.8562,12.5688 65.5012,12.5688 C66.2112,12.5688 66.7442,12.4388 67.1022,12.1778 C67.3432,11.9958 67.4642,11.7518 67.4642,11.4458 C67.4642,11.2368 67.3982,11.0648 67.2682,10.9278 C67.1322,10.7978 66.8262,10.6778 66.3502,10.5668 C64.1362,10.0788 62.7342,9.6328 62.1412,9.2288 C61.3212,8.6688 60.9112,7.8908 60.9112,6.8948 C60.9112,5.9968 61.2652,5.2408 61.9752,4.6288 C62.6852,4.0178 63.7852,3.7118 65.2762,3.7118 C66.6952,3.7118 67.7502,3.9418 68.4402,4.4048 C69.1312,4.8668 69.6052,5.5508 69.8662,6.4558 L67.2782,6.9338 C67.1682,6.5298 66.9582,6.2208 66.6482,6.0058 C66.3392,5.7918 65.8982,5.6838 65.3252,5.6838 C64.6022,5.6838 64.0852,5.7848 63.7722,5.9868 C63.5642,6.1298 63.4602,6.3158 63.4602,6.5438 C63.4602,6.7388 63.5512,6.9048 63.7332,7.0418 C63.9802,7.2238 64.8352,7.4808 66.2972,7.8128 C67.7592,8.1448 68.7792,8.5518 69.3582,9.0338 C69.9312,9.5218 70.2182,10.2018 70.2182,11.0748 C70.2182,12.0248 69.8202,12.8418 69.0262,13.5258 C68.2322,14.2098 67.0562,14.5508 65.5012,14.5508 C64.0882,14.5508 62.9692,14.2648 62.1462,13.6918 C61.3232,13.1188 60.7842,12.3408 60.5302,11.3578"
          id="Fill-23"
        />
            </g>
        </g>
    </g>
</svg>
