<?xml version="1.0" encoding="UTF-8" ?>
<svg
  width="194px"
  height="48px"
  viewBox="0 0 194 48"
  version="1.1"
  xmlns="http://www.w3.org/2000/svg"
  xmlns:xlink="http://www.w3.org/1999/xlink"
>
    <!-- Generator: Sketch 64 (93537) - https://sketch.com -->
    <title>EU/EU-emblem/standard-version/positive/EL</title>
    <desc>Created with Sketch.</desc>
    <g
    id="EU/EU-emblem/standard-version/positive/EL"
    stroke="none"
    stroke-width="1"
    fill="none"
    fill-rule="evenodd"
  >
        <g id="EU-emblem_standard">
            <g id="EU/EU-emblem/flag/flag-positive">
                <g id="EU_flag">
                    <rect
            id="ðŸŒˆ-flag"
            fill="#003399"
            fill-rule="nonzero"
            x="0"
            y="0"
            width="72"
            height="48"
          />
                    <path
            d="M35.06,8.91 L33.54,7.8 L35.42,7.8 L36,6 L36.58,7.8 L38.46,7.8 L36.94,8.91 L37.52,10.72 L36,9.6 L34.48,10.72 L35.06,8.91 L35.06,8.91 Z M36.94,40.2 L37.52,42 L36,40.89 L34.48,42 L35.06,40.2 L33.54,39.09 L35.42,39.09 L36,37.28 L36.58,39.09 L38.46,39.09 L36.94,40.2 Z M20.46,25.2 L18.94,26.32 L19.52,24.52 L18,23.44 L19.88,23.44 L20.46,21.64 L21.04,23.44 L22.93,23.44 L21.4,24.56 L21.98,26.36 L20.46,25.24 L20.46,25.2 Z M29.17,11 L29.75,12.8 L28.23,11.7 L26.71,12.81 L27.29,11.01 L25.77,9.9 L27.65,9.9 L28.23,8.1 L28.81,9.9 L30.69,9.9 L29.17,11 Z M22,15.62 L22.58,13.82 L23.17,15.62 L25,15.62 L23.48,16.74 L24.06,18.54 L22.53,17.42 L21,18.54 L21.58,16.74 L20.06,15.62 L22,15.62 Z M20.08,31.26 L22,31.26 L22.58,29.46 L23.17,31.26 L25,31.26 L23.48,32.38 L24.06,34.18 L22.53,33.07 L21,34.18 L21.58,32.38 L20.06,31.26 L20.08,31.26 Z M27.29,38.1 L25.77,37 L27.65,37 L28.23,35.2 L28.81,37 L30.69,37 L29.17,38.1 L29.75,39.9 L28.23,38.79 L26.71,39.9 L27.29,38.1 Z M52.48,24.56 L53.06,26.36 L51.54,25.24 L50,26.36 L50.58,24.56 L49.05,23.44 L51,23.44 L51.58,21.64 L52.16,23.44 L54,23.44 L52.48,24.56 Z M42.83,11 L41.31,9.9 L43.19,9.9 L43.77,8.1 L44.35,9.9 L46.23,9.9 L44.71,11 L45.29,12.8 L43.77,11.7 L42.25,12.81 L42.83,11.01 L42.83,11 Z M48.83,15.61 L49.42,13.81 L50,15.61 L51.88,15.61 L50.4,16.74 L50.98,18.54 L49.46,17.42 L47.93,18.54 L48.51,16.74 L47,15.62 L48.83,15.61 Z M50,31.26 L51.88,31.26 L50.4,32.38 L50.98,34.18 L49.46,33.07 L47.93,34.18 L48.51,32.38 L47,31.26 L48.88,31.26 L49.47,29.46 L50.05,31.26 L50,31.26 Z M46.23,37 L44.71,38.1 L45.29,39.9 L43.77,38.79 L42.25,39.9 L42.83,38.1 L41.31,37 L43.19,37 L43.77,35.2 L44.35,37 L46.23,37 Z"
            id="ðŸŒˆ-stars"
            fill="#FFCC00"
            fill-rule="nonzero"
          />
                </g>
            </g>
            <g
        id="ðŸŒˆ-ÎˆÎ½Ï‰ÏƒÎ·"
        transform="translate(83.909500, 27.689600)"
        fill="#515560"
      >
                <path
          d="M5.9405,14.316 L5.9405,-5.53335155e-13 L16.5555,-5.53335155e-13 L16.5555,2.421 L8.8215,2.421 L8.8215,5.595 L16.0185,5.595 L16.0185,8.007 L8.8215,8.007 L8.8215,11.904 L16.8295,11.904 L16.8295,14.316 L5.9405,14.316 Z M0.0905,2.539 L1.6535,-5.53335155e-13 L5.2955,-5.53335155e-13 L2.0835,2.539 L0.0905,2.539 Z"
          id="Fill-3"
        />
                <path
          d="M22.1124,14.316 L17.9324,3.945 L20.8134,3.945 L22.7664,9.238 L23.3334,11.005 C23.4824,10.556 23.5774,10.26 23.6164,10.117 C23.7074,9.824 23.8044,9.531 23.9094,9.238 L25.8824,3.945 L28.7044,3.945 L24.5834,14.316 L22.1124,14.316 Z"
          id="Fill-4"
        />
                <path
          d="M31.1847,3.9449 L33.8017,3.9449 C32.9497,5.7219 32.5227,7.5449 32.5227,9.4139 C32.5227,10.4819 32.7127,11.2429 33.0937,11.6989 C33.4747,12.1539 33.9257,12.3829 34.4467,12.3829 C34.8047,12.3829 35.1187,12.2719 35.3887,12.0499 C35.6597,11.8289 35.8327,11.5559 35.9117,11.2299 C35.9897,10.9039 36.0287,10.4059 36.0287,9.7359 L36.0287,6.5909 L38.7727,6.5909 L38.7727,9.7359 C38.7727,10.3809 38.8097,10.8719 38.8847,11.2109 C38.9597,11.5489 39.1357,11.8289 39.4127,12.0499 C39.6887,12.2719 40.0027,12.3829 40.3547,12.3829 C40.9017,12.3829 41.3587,12.1449 41.7267,11.6699 C42.0947,11.1949 42.2787,10.4059 42.2787,9.3059 C42.2787,8.5639 42.1677,7.6949 41.9467,6.6989 C41.7247,5.7029 41.4097,4.7849 40.9987,3.9449 L43.6167,3.9449 C43.9807,4.5499 44.3177,5.3789 44.6267,6.4299 C44.9367,7.4819 45.0907,8.4469 45.0907,9.3259 C45.0907,10.8489 44.6877,12.1009 43.8797,13.0809 C43.0727,14.0609 42.0117,14.5499 40.6967,14.5499 C39.1217,14.5499 38.0237,13.8239 37.4057,12.3729 C36.7807,13.8239 35.6797,14.5499 34.1047,14.5499 C32.7837,14.5499 31.7197,14.0589 30.9157,13.0759 C30.1127,12.0929 29.7097,10.8429 29.7097,9.3259 C29.7097,8.4469 29.8647,7.4819 30.1737,6.4299 C30.4837,5.3789 30.8207,4.5499 31.1847,3.9449"
          id="Fill-6"
        />
                <path
          d="M49.4171,9.1305 C49.4171,10.1205 49.6541,10.8985 50.1301,11.4645 C50.6051,12.0305 51.2141,12.3145 51.9561,12.3145 C52.6721,12.3145 53.2721,12.0405 53.7581,11.4935 C54.2431,10.9465 54.4851,10.1425 54.4851,9.0815 C54.4851,8.1445 54.2541,7.3875 53.7921,6.8115 C53.3301,6.2345 52.7181,5.9465 51.9561,5.9465 C51.2071,5.9465 50.5971,6.2305 50.1251,6.7965 C49.6531,7.3625 49.4171,8.1405 49.4171,9.1305 L49.4171,9.1305 Z M59.0561,3.9445 L59.0561,6.2205 L56.5461,6.2205 C57.0541,7.0865 57.3081,8.0435 57.3081,9.0915 C57.3081,10.6015 56.8141,11.8895 55.8281,12.9535 C54.8421,14.0185 53.5381,14.5505 51.9171,14.5505 C50.3351,14.5505 49.0541,14.0555 48.0741,13.0665 C47.0951,12.0765 46.6041,10.7805 46.6041,9.1795 C46.6041,7.5905 47.0851,6.2825 48.0451,5.2535 C49.0051,4.2245 50.3221,3.7105 51.9951,3.7105 C52.4831,3.7105 53.0471,3.7885 53.6851,3.9445 L59.0561,3.9445 Z"
          id="Fill-8"
        />
                <path
          d="M70.3643,18.2613 L67.6203,18.2613 L67.6203,9.0233 C67.6203,8.0983 67.5833,7.4493 67.5083,7.0743 C67.4323,6.7003 67.2573,6.3963 66.9803,6.1613 C66.7043,5.9273 66.3503,5.8103 65.9213,5.8103 C65.4063,5.8103 64.9573,5.9563 64.5733,6.2493 C64.1893,6.5423 63.9403,6.9183 63.8263,7.3773 C63.7123,7.8363 63.6553,8.5833 63.6553,9.6183 L63.6553,14.3163 L60.9113,14.3163 L60.9113,3.9453 L63.4603,3.9453 L63.4603,5.4683 C64.3653,4.2963 65.5083,3.7103 66.8873,3.7103 C67.6883,3.7103 68.3653,3.8833 68.9193,4.2283 C69.4723,4.5733 69.8513,5.0123 70.0563,5.5463 C70.2613,6.0803 70.3643,6.8553 70.3643,7.8703 L70.3643,18.2613 Z"
          id="Fill-10"
        />
            </g>
            <g
        id="ðŸŒˆ-Î•Ï…ÏÏ‰Ï€Î±ÏŠÎºÎ®"
        transform="translate(84.030000, 5.765000)"
        fill="#515560"
      >
                <polygon
          id="Fill-12"
          points="0 14.5609 0 0.2449 10.615 0.2449 10.615 2.6659 2.891 2.6659 2.891 5.8399 10.078 5.8399 10.078 8.2519 2.891 8.2519 2.891 12.1489 10.889 12.1489 10.889 14.5609"
        />
                <path
          d="M12.5371,4.1898 L15.2811,4.1898 L15.2811,9.5018 C15.2811,10.7718 15.4601,11.5988 15.8181,11.9828 C16.1771,12.3668 16.6391,12.5588 17.2051,12.5588 C17.8621,12.5588 18.3481,12.3358 18.6601,11.8898 C18.9731,11.4438 19.1291,10.6478 19.1291,9.5018 L19.1291,4.1898 L21.8731,4.1898 L21.8731,9.0628 C21.8731,10.4558 21.7201,11.5388 21.4141,12.3098 C21.1081,13.0818 20.5871,13.6888 19.8511,14.1308 C19.1161,14.5738 18.2471,14.7948 17.2441,14.7948 C16.1631,14.7948 15.2541,14.5648 14.5151,14.1018 C13.7751,13.6398 13.2621,13.0238 12.9721,12.2558 C12.6821,11.4878 12.5371,10.4238 12.5371,9.0628 L12.5371,4.1898 Z"
          id="Fill-14"
        />
                <path
          d="M26.7217,9.6879 C26.7217,10.5469 26.9397,11.2409 27.3757,11.7679 C27.8127,12.2949 28.4047,12.5589 29.1537,12.5589 C29.8887,12.5589 30.4847,12.2649 30.9407,11.6749 C31.3967,11.0859 31.6237,10.3129 31.6237,9.3559 C31.6237,8.3789 31.4137,7.6079 30.9937,7.0419 C30.5747,6.4749 29.9707,6.1919 29.1827,6.1919 C28.4987,6.1919 27.9177,6.4469 27.4397,6.9589 C26.9607,7.4699 26.7217,8.3789 26.7217,9.6879 M26.7217,13.9259 L26.7217,18.5059 L23.9777,18.5059 L23.9777,10.3419 C23.9777,8.8709 24.1287,7.7039 24.4317,6.8409 C24.7347,5.9789 25.2837,5.2819 26.0767,4.7509 C26.8707,4.2209 27.8317,3.9559 28.9577,3.9559 C30.6307,3.9559 31.9627,4.4959 32.9517,5.5769 C33.9417,6.6569 34.4367,7.9559 34.4367,9.4729 C34.4367,10.9579 33.9597,12.2159 33.0057,13.2479 C32.0517,14.2789 30.8817,14.7949 29.4947,14.7949 C28.5767,14.7949 27.6527,14.5059 26.7217,13.9259"
          id="Fill-16"
        />
                <path
          d="M37.6348,4.1898 L40.2518,4.1898 C39.3998,5.9668 38.9728,7.7898 38.9728,9.6588 C38.9728,10.7268 39.1628,11.4878 39.5438,11.9438 C39.9248,12.3988 40.3758,12.6278 40.8968,12.6278 C41.2548,12.6278 41.5688,12.5168 41.8388,12.2948 C42.1098,12.0738 42.2828,11.8008 42.3618,11.4748 C42.4398,11.1488 42.4788,10.6508 42.4788,9.9808 L42.4788,6.8358 L45.2228,6.8358 L45.2228,9.9808 C45.2228,10.6258 45.2598,11.1168 45.3348,11.4558 C45.4098,11.7938 45.5858,12.0738 45.8628,12.2948 C46.1388,12.5168 46.4528,12.6278 46.8048,12.6278 C47.3518,12.6278 47.8088,12.3898 48.1768,11.9148 C48.5448,11.4398 48.7288,10.6508 48.7288,9.5508 C48.7288,8.8088 48.6178,7.9398 48.3968,6.9438 C48.1748,5.9478 47.8598,5.0298 47.4488,4.1898 L50.0668,4.1898 C50.4308,4.7948 50.7678,5.6238 51.0768,6.6748 C51.3868,7.7268 51.5408,8.6918 51.5408,9.5708 C51.5408,11.0938 51.1378,12.3458 50.3298,13.3258 C49.5228,14.3058 48.4618,14.7948 47.1468,14.7948 C45.5718,14.7948 44.4738,14.0688 43.8558,12.6178 C43.2308,14.0688 42.1298,14.7948 40.5548,14.7948 C39.2338,14.7948 38.1698,14.3038 37.3658,13.3208 C36.5628,12.3378 36.1598,11.0878 36.1598,9.5708 C36.1598,8.6918 36.3148,7.7268 36.6238,6.6748 C36.9338,5.6238 37.2708,4.7948 37.6348,4.1898"
          id="Fill-18"
        />
                <polygon
          id="Fill-20"
          points="52.9619 4.1898 67.3269 4.1898 67.3269 6.4648 64.5729 6.4648 64.5729 14.5608 61.8289 14.5608 61.8289 6.4648 58.4599 6.4648 58.4599 14.5608 55.7159 14.5608 55.7159 6.4648 52.9619 6.4648"
        />
                <path
          d="M71.5801,9.4047 C71.5801,10.3617 71.7831,11.1377 72.1901,11.7337 C72.5981,12.3297 73.1261,12.6277 73.7771,12.6277 C74.4021,12.6277 74.9131,12.3637 75.3101,11.8367 C75.7081,11.3087 75.9061,10.4987 75.9061,9.4047 C75.9061,8.3307 75.6941,7.5167 75.2711,6.9637 C74.8491,6.4097 74.3371,6.1337 73.7381,6.1337 C73.1131,6.1337 72.5981,6.4197 72.1901,6.9927 C71.7831,7.5657 71.5801,8.3697 71.5801,9.4047 M77.2931,4.1897 L79.6461,4.1897 C79.2751,4.9457 78.9651,5.9097 78.7141,7.0857 C78.4631,8.2607 78.3381,9.0827 78.3381,9.5507 C78.3381,10.1567 78.4521,10.9477 78.6801,11.9247 C78.9071,12.9007 79.1941,13.7797 79.5391,14.5607 L77.2341,14.5607 C77.2021,14.4307 77.1431,14.2487 77.0591,14.0137 C76.9221,13.6237 76.8051,13.2327 76.7071,12.8427 C75.9061,14.1447 74.7641,14.7957 73.2791,14.7957 C71.8801,14.7957 70.7771,14.2277 69.9741,13.0917 C69.1701,11.9547 68.7671,10.6287 68.7671,9.1117 C68.7671,7.6797 69.1681,6.4617 69.9691,5.4597 C70.7691,4.4567 71.8831,3.9557 73.3091,3.9557 C74.7151,3.9557 75.8511,4.6297 76.7171,5.9767 C76.8341,5.5017 77.0261,4.9057 77.2931,4.1897"
          id="Fill-22"
        />
                <path
          d="M84.23,2.354 L86.593,2.354 L86.593,0 L84.23,0 L84.23,2.354 Z M81.936,14.561 L84.68,14.561 L84.68,4.19 L81.936,4.19 L81.936,14.561 Z M80.031,2.354 L82.385,2.354 L82.385,0 L80.031,0 L80.031,2.354 Z"
          id="Fill-24"
        />
                <polygon
          id="Fill-26"
          points="87.6436 4.1898 90.3876 4.1898 90.3876 7.7838 93.5906 4.1898 96.9406 4.1898 92.7706 8.5848 97.2626 14.5608 94.0496 14.5608 91.0126 10.4198 90.3876 11.0848 90.3876 14.5608 87.6436 14.5608"
        />
                <path
          d="M102.2188,2.9203 L103.5668,0.0003 L106.6428,0.0003 L103.9568,2.9203 L102.2188,2.9203 Z M108.4488,18.5063 L105.7048,18.5063 L105.7048,9.2683 C105.7048,8.3433 105.6678,7.6943 105.5928,7.3193 C105.5178,6.9453 105.3418,6.6413 105.0658,6.4063 C104.7888,6.1723 104.4358,6.0553 104.0058,6.0553 C103.4908,6.0553 103.0418,6.2013 102.6578,6.4943 C102.2748,6.7873 102.0258,7.1633 101.9108,7.6223 C101.7968,8.0813 101.7398,8.8283 101.7398,9.8633 L101.7398,14.5613 L98.9958,14.5613 L98.9958,4.1903 L101.5448,4.1903 L101.5448,5.7133 C102.4498,4.5413 103.5928,3.9553 104.9728,3.9553 C105.7738,3.9553 106.4498,4.1283 107.0038,4.4733 C107.5578,4.8183 107.9368,5.2573 108.1418,5.7913 C108.3468,6.3253 108.4488,7.1003 108.4488,8.1153 L108.4488,18.5063 Z"
          id="Fill-27"
        />
            </g>
        </g>
    </g>
</svg>
