<?xml version="1.0" encoding="UTF-8" ?>
<svg
  width="173px"
  height="48px"
  viewBox="0 0 173 48"
  version="1.1"
  xmlns="http://www.w3.org/2000/svg"
  xmlns:xlink="http://www.w3.org/1999/xlink"
>
    <!-- Generator: Sketch 64 (93537) - https://sketch.com -->
    <title>EU/EU-emblem/standard-version/positive/CS</title>
    <desc>Created with Sketch.</desc>
    <g
    id="EU/EU-emblem/standard-version/positive/CS"
    stroke="none"
    stroke-width="1"
    fill="none"
    fill-rule="evenodd"
  >
        <g id="EU-emblem_standard">
            <g id="EU/EU-emblem/flag/flag-positive">
                <g id="EU_flag">
                    <rect
            id="🌈-flag"
            fill="#003399"
            fill-rule="nonzero"
            x="0"
            y="0"
            width="72"
            height="48"
          />
                    <path
            d="M35.06,8.91 L33.54,7.8 L35.42,7.8 L36,6 L36.58,7.8 L38.46,7.8 L36.94,8.91 L37.52,10.72 L36,9.6 L34.48,10.72 L35.06,8.91 L35.06,8.91 Z M36.94,40.2 L37.52,42 L36,40.89 L34.48,42 L35.06,40.2 L33.54,39.09 L35.42,39.09 L36,37.28 L36.58,39.09 L38.46,39.09 L36.94,40.2 Z M20.46,25.2 L18.94,26.32 L19.52,24.52 L18,23.44 L19.88,23.44 L20.46,21.64 L21.04,23.44 L22.93,23.44 L21.4,24.56 L21.98,26.36 L20.46,25.24 L20.46,25.2 Z M29.17,11 L29.75,12.8 L28.23,11.7 L26.71,12.81 L27.29,11.01 L25.77,9.9 L27.65,9.9 L28.23,8.1 L28.81,9.9 L30.69,9.9 L29.17,11 Z M22,15.62 L22.58,13.82 L23.17,15.62 L25,15.62 L23.48,16.74 L24.06,18.54 L22.53,17.42 L21,18.54 L21.58,16.74 L20.06,15.62 L22,15.62 Z M20.08,31.26 L22,31.26 L22.58,29.46 L23.17,31.26 L25,31.26 L23.48,32.38 L24.06,34.18 L22.53,33.07 L21,34.18 L21.58,32.38 L20.06,31.26 L20.08,31.26 Z M27.29,38.1 L25.77,37 L27.65,37 L28.23,35.2 L28.81,37 L30.69,37 L29.17,38.1 L29.75,39.9 L28.23,38.79 L26.71,39.9 L27.29,38.1 Z M52.48,24.56 L53.06,26.36 L51.54,25.24 L50,26.36 L50.58,24.56 L49.05,23.44 L51,23.44 L51.58,21.64 L52.16,23.44 L54,23.44 L52.48,24.56 Z M42.83,11 L41.31,9.9 L43.19,9.9 L43.77,8.1 L44.35,9.9 L46.23,9.9 L44.71,11 L45.29,12.8 L43.77,11.7 L42.25,12.81 L42.83,11.01 L42.83,11 Z M48.83,15.61 L49.42,13.81 L50,15.61 L51.88,15.61 L50.4,16.74 L50.98,18.54 L49.46,17.42 L47.93,18.54 L48.51,16.74 L47,15.62 L48.83,15.61 Z M50,31.26 L51.88,31.26 L50.4,32.38 L50.98,34.18 L49.46,33.07 L47.93,34.18 L48.51,32.38 L47,31.26 L48.88,31.26 L49.47,29.46 L50.05,31.26 L50,31.26 Z M46.23,37 L44.71,38.1 L45.29,39.9 L43.77,38.79 L42.25,39.9 L42.83,38.1 L41.31,37 L43.19,37 L43.77,35.2 L44.35,37 L46.23,37 Z"
            id="🌈-stars"
            fill="#FFCC00"
            fill-rule="nonzero"
          />
                </g>
            </g>
            <g
        id="🌈-unie"
        transform="translate(83.960700, 27.689000)"
        fill="#515560"
      >
                <path
          d="M6.885,14.3165 L6.885,12.7635 C6.507,13.3165 6.011,13.7535 5.396,14.0725 C4.781,14.3915 4.131,14.5505 3.447,14.5505 C2.751,14.5505 2.126,14.3985 1.573,14.0915 C1.019,13.7855 0.618,13.3565 0.371,12.8025 C0.124,12.2495 -3.62376795e-13,11.4845 -3.62376795e-13,10.5075 L-3.62376795e-13,3.9455 L2.744,3.9455 L2.744,8.7115 C2.744,10.1695 2.795,11.0635 2.896,11.3915 C2.996,11.7205 3.181,11.9815 3.447,12.1725 C3.714,12.3645 4.053,12.4615 4.463,12.4615 C4.932,12.4615 5.352,12.3325 5.723,12.0755 C6.094,11.8175 6.348,11.4995 6.485,11.1185 C6.621,10.7375 6.69,9.8045 6.69,8.3205 L6.69,3.9455 L9.434,3.9455 L9.434,14.3165 L6.885,14.3165 Z"
          id="Fill-3"
        />
                <path
          d="M21.4094,14.3165 L18.6654,14.3165 L18.6654,9.0235 C18.6654,7.9035 18.6064,7.1795 18.4894,6.8505 C18.3724,6.5225 18.1814,6.2665 17.9184,6.0845 C17.6544,5.9015 17.3374,5.8105 16.9664,5.8105 C16.4904,5.8105 16.0644,5.9415 15.6864,6.2015 C15.3084,6.4615 15.0504,6.8065 14.9104,7.2365 C14.7704,7.6665 14.7004,8.4605 14.7004,9.6195 L14.7004,14.3165 L11.9564,14.3165 L11.9564,3.9455 L14.5054,3.9455 L14.5054,5.4685 C15.4104,4.2965 16.5494,3.7115 17.9234,3.7115 C18.5284,3.7115 19.0824,3.8195 19.5834,4.0385 C20.0844,4.2565 20.4644,4.5345 20.7214,4.8735 C20.9774,5.2115 21.1574,5.5955 21.2584,6.0255 C21.3584,6.4555 21.4094,7.0705 21.4094,7.8715 L21.4094,14.3165 Z"
          id="Fill-5"
        />
                <path
          d="M23.9923,14.316 L26.7363,14.316 L26.7363,3.945 L23.9923,3.945 L23.9923,14.316 Z M23.9923,2.539 L26.7363,2.539 L26.7363,-9.85878046e-14 L23.9923,-9.85878046e-14 L23.9923,2.539 Z"
          id="Fill-7"
        />
                <path
          d="M35.7112,8.2423 C35.6912,7.4483 35.4862,6.8443 35.0962,6.4303 C34.7052,6.0173 34.2302,5.8103 33.6702,5.8103 C33.0712,5.8103 32.5762,6.0293 32.1862,6.4653 C31.7952,6.9013 31.6032,7.4933 31.6092,8.2423 L35.7112,8.2423 Z M35.5552,11.0153 L38.2892,11.4743 C37.9382,12.4773 37.3832,13.2413 36.6242,13.7643 C35.8652,14.2883 34.9172,14.5513 33.7772,14.5513 C31.9742,14.5513 30.6402,13.9613 29.7742,12.7833 C29.0902,11.8393 28.7482,10.6483 28.7482,9.2093 C28.7482,7.4903 29.1972,6.1443 30.0962,5.1713 C30.9942,4.1983 32.1302,3.7113 33.5042,3.7113 C35.0472,3.7113 36.2652,4.2203 37.1562,5.2393 C38.0482,6.2583 38.4752,7.8193 38.4362,9.9223 L31.5612,9.9223 C31.5802,10.7363 31.8022,11.3683 32.2252,11.8213 C32.6482,12.2743 33.1752,12.5003 33.8072,12.5003 C34.2362,12.5003 34.5982,12.3833 34.8912,12.1483 C35.1842,11.9143 35.4052,11.5363 35.5552,11.0153 L35.5552,11.0153 Z"
          id="Fill-9"
        />
            </g>
            <g
        id="🌈-Evropská"
        transform="translate(84.030300, 5.765200)"
        fill="#515560"
      >
                <polygon
          id="Fill-10"
          points="-3.90798505e-13 14.5606 -3.90798505e-13 0.2446 10.615 0.2446 10.615 2.6656 2.891 2.6656 2.891 5.8396 10.078 5.8396 10.078 8.2516 2.891 8.2516 2.891 12.1486 10.889 12.1486 10.889 14.5606"
        />
                <path
          d="M15.872,14.5606 L11.692,4.1896 L14.573,4.1896 L16.526,9.4826 L17.093,11.2496 C17.242,10.8006 17.337,10.5046 17.376,10.3616 C17.467,10.0686 17.564,9.7756 17.669,9.4826 L19.642,4.1896 L22.464,4.1896 L18.343,14.5606 L15.872,14.5606 Z"
          id="Fill-11"
        />
                <path
          d="M26.9707,14.5606 L24.2267,14.5606 L24.2267,4.1896 L26.7757,4.1896 L26.7757,5.6646 C27.2117,4.9676 27.6037,4.5086 27.9517,4.2876 C28.3007,4.0656 28.6967,3.9556 29.1387,3.9556 C29.7637,3.9556 30.3667,4.1276 30.9457,4.4726 L30.0957,6.8656 C29.6337,6.5656 29.2037,6.4156 28.8067,6.4156 C28.4227,6.4156 28.0967,6.5216 27.8297,6.7336 C27.5637,6.9446 27.3537,7.3276 27.1997,7.8806 C27.0467,8.4346 26.9707,9.5936 26.9707,11.3576 L26.9707,14.5606 Z"
          id="Fill-12"
        />
                <path
          d="M34.5039,9.3751 C34.5039,10.4041 34.7479,11.1911 35.2359,11.7381 C35.7249,12.2851 36.3269,12.5591 37.0429,12.5591 C37.7589,12.5591 38.3589,12.2851 38.8449,11.7381 C39.3299,11.1911 39.5719,10.3971 39.5719,9.3551 C39.5719,8.3401 39.3299,7.5591 38.8449,7.0121 C38.3589,6.4651 37.7589,6.1911 37.0429,6.1911 C36.3269,6.1911 35.7249,6.4651 35.2359,7.0121 C34.7479,7.5591 34.5039,8.3461 34.5039,9.3751 M31.6909,9.2291 C31.6909,8.3171 31.9159,7.4351 32.3649,6.5821 C32.8149,5.7291 33.4509,5.0781 34.2749,4.6291 C35.0979,4.1801 36.0179,3.9551 37.0329,3.9551 C38.6029,3.9551 39.8879,4.4641 40.8909,5.4831 C41.8939,6.5021 42.3949,7.7901 42.3949,9.3461 C42.3949,10.9151 41.8889,12.2151 40.8759,13.2471 C39.8629,14.2791 38.5889,14.7951 37.0529,14.7951 C36.1029,14.7951 35.1949,14.5801 34.3329,14.1501 C33.4709,13.7211 32.8149,13.0911 32.3649,12.2611 C31.9159,11.4311 31.6909,10.4201 31.6909,9.2291"
          id="Fill-13"
        />
                <path
          d="M46.8798,9.1993 C46.8798,10.3653 47.1108,11.2253 47.5728,11.7823 C48.0348,12.3393 48.5988,12.6173 49.2628,12.6173 C49.9008,12.6173 50.4318,12.3623 50.8548,11.8503 C51.2768,11.3393 51.4888,10.5013 51.4888,9.3363 C51.4888,8.2483 51.2718,7.4413 50.8348,6.9143 C50.3988,6.3863 49.8588,6.1233 49.2138,6.1233 C48.5428,6.1233 47.9858,6.3823 47.5438,6.8993 C47.1018,7.4173 46.8798,8.1833 46.8798,9.1993 L46.8798,9.1993 Z M44.1648,4.1893 L46.7238,4.1893 L46.7238,5.7133 C47.0558,5.1923 47.5048,4.7693 48.0708,4.4433 C48.6378,4.1173 49.2658,3.9553 49.9558,3.9553 C51.1598,3.9553 52.1828,4.4273 53.0228,5.3713 C53.8618,6.3153 54.2818,7.6303 54.2818,9.3163 C54.2818,11.0483 53.8588,12.3943 53.0128,13.3543 C52.1658,14.3153 51.1408,14.7953 49.9368,14.7953 C49.3628,14.7953 48.8448,14.6813 48.3788,14.4533 C47.9128,14.2253 47.4238,13.8343 46.9088,13.2813 L46.9088,18.5063 L44.1648,18.5063 L44.1648,4.1893 Z"
          id="Fill-14"
        />
                <path
          d="M55.6933,11.6016 L58.4473,11.1816 C58.5643,11.7156 58.8013,12.1206 59.1603,12.3976 C59.5183,12.6746 60.0193,12.8126 60.6643,12.8126 C61.3743,12.8126 61.9073,12.6826 62.2653,12.4216 C62.5063,12.2396 62.6273,11.9956 62.6273,11.6896 C62.6273,11.4806 62.5613,11.3086 62.4313,11.1716 C62.2953,11.0416 61.9893,10.9216 61.5133,10.8106 C59.2993,10.3226 57.8973,9.8766 57.3043,9.4726 C56.4843,8.9126 56.0743,8.1346 56.0743,7.1386 C56.0743,6.2406 56.4283,5.4846 57.1383,4.8726 C57.8483,4.2616 58.9483,3.9556 60.4393,3.9556 C61.8583,3.9556 62.9133,4.1856 63.6033,4.6486 C64.2943,5.1106 64.7683,5.7946 65.0293,6.6996 L62.4413,7.1776 C62.3313,6.7736 62.1213,6.4646 61.8113,6.2496 C61.5023,6.0356 61.0613,5.9276 60.4883,5.9276 C59.7653,5.9276 59.2483,6.0286 58.9353,6.2306 C58.7273,6.3736 58.6233,6.5596 58.6233,6.7876 C58.6233,6.9826 58.7143,7.1486 58.8963,7.2856 C59.1433,7.4676 59.9983,7.7246 61.4603,8.0566 C62.9223,8.3886 63.9423,8.7956 64.5213,9.2776 C65.0943,9.7656 65.3813,10.4456 65.3813,11.3186 C65.3813,12.2686 64.9833,13.0856 64.1893,13.7696 C63.3953,14.4536 62.2193,14.7946 60.6643,14.7946 C59.2513,14.7946 58.1323,14.5086 57.3093,13.9356 C56.4863,13.3626 55.9473,12.5846 55.6933,11.6016"
          id="Fill-15"
        />
                <polygon
          id="Fill-16"
          points="67.3857 14.5606 67.3857 0.2446 70.1297 0.2446 70.1297 7.8416 73.3427 4.1896 76.7217 4.1896 73.1767 7.9786 76.9757 14.5606 74.0167 14.5606 71.4087 9.9026 70.1297 11.2406 70.1297 14.5606"
        />
                <path
          d="M81.3603,2.92 L82.7083,3.55271368e-14 L85.7843,3.55271368e-14 L83.0983,2.92 L81.3603,2.92 Z M84.3293,9.58 C83.9773,9.697 83.4213,9.837 82.6593,10 C81.8973,10.163 81.3993,10.322 81.1653,10.479 C80.8063,10.732 80.6283,11.055 80.6283,11.445 C80.6283,11.83 80.7713,12.162 81.0573,12.441 C81.3433,12.721 81.7093,12.861 82.1513,12.861 C82.6463,12.861 83.1183,12.699 83.5673,12.373 C83.8993,12.126 84.1173,11.823 84.2213,11.465 C84.2933,11.231 84.3293,10.785 84.3293,10.127 L84.3293,9.58 Z M80.6573,7.354 L78.1673,6.904 C78.4473,5.902 78.9283,5.16 79.6123,4.678 C80.2963,4.196 81.3113,3.955 82.6593,3.955 C83.8823,3.955 84.7953,4.1 85.3933,4.39 C85.9923,4.679 86.4143,5.047 86.6583,5.493 C86.9023,5.939 87.0243,6.758 87.0243,7.949 L86.9953,11.152 C86.9953,12.064 87.0393,12.736 87.1273,13.169 C87.2143,13.602 87.3793,14.066 87.6203,14.561 L84.9053,14.561 C84.8343,14.378 84.7463,14.108 84.6413,13.75 C84.5953,13.587 84.5633,13.48 84.5443,13.428 C84.0753,13.883 83.5743,14.225 83.0403,14.453 C82.5063,14.681 81.9363,14.795 81.3313,14.795 C80.2633,14.795 79.4223,14.505 78.8063,13.926 C78.1913,13.346 77.8833,12.614 77.8833,11.729 C77.8833,11.143 78.0233,10.62 78.3033,10.161 C78.5843,9.702 78.9753,9.351 79.4803,9.107 C79.9853,8.862 80.7133,8.649 81.6633,8.467 C82.9453,8.226 83.8343,8.002 84.3293,7.793 L84.3293,7.52 C84.3293,6.992 84.1993,6.616 83.9383,6.392 C83.6773,6.167 83.1863,6.055 82.4643,6.055 C81.9753,6.055 81.5943,6.151 81.3213,6.343 C81.0483,6.535 80.8263,6.872 80.6573,7.354 L80.6573,7.354 Z"
          id="Fill-17"
        />
            </g>
        </g>
    </g>
</svg>
