<?xml version="1.0" encoding="UTF-8" ?>
<svg
  width="173px"
  height="48px"
  viewBox="0 0 173 48"
  version="1.1"
  xmlns="http://www.w3.org/2000/svg"
  xmlns:xlink="http://www.w3.org/1999/xlink"
>
    <!-- Generator: Sketch 64 (93537) - https://sketch.com -->
    <title>EU/EU-emblem/standard-version/positive/HR</title>
    <desc>Created with Sketch.</desc>
    <g
    id="EU/EU-emblem/standard-version/positive/HR"
    stroke="none"
    stroke-width="1"
    fill="none"
    fill-rule="evenodd"
  >
        <g id="EU-emblem_standard">
            <g id="EU/EU-emblem/flag/flag-positive">
                <g id="EU_flag">
                    <rect
            id="🌈-flag"
            fill="#003399"
            fill-rule="nonzero"
            x="0"
            y="0"
            width="72"
            height="48"
          />
                    <path
            d="M35.06,8.91 L33.54,7.8 L35.42,7.8 L36,6 L36.58,7.8 L38.46,7.8 L36.94,8.91 L37.52,10.72 L36,9.6 L34.48,10.72 L35.06,8.91 L35.06,8.91 Z M36.94,40.2 L37.52,42 L36,40.89 L34.48,42 L35.06,40.2 L33.54,39.09 L35.42,39.09 L36,37.28 L36.58,39.09 L38.46,39.09 L36.94,40.2 Z M20.46,25.2 L18.94,26.32 L19.52,24.52 L18,23.44 L19.88,23.44 L20.46,21.64 L21.04,23.44 L22.93,23.44 L21.4,24.56 L21.98,26.36 L20.46,25.24 L20.46,25.2 Z M29.17,11 L29.75,12.8 L28.23,11.7 L26.71,12.81 L27.29,11.01 L25.77,9.9 L27.65,9.9 L28.23,8.1 L28.81,9.9 L30.69,9.9 L29.17,11 Z M22,15.62 L22.58,13.82 L23.17,15.62 L25,15.62 L23.48,16.74 L24.06,18.54 L22.53,17.42 L21,18.54 L21.58,16.74 L20.06,15.62 L22,15.62 Z M20.08,31.26 L22,31.26 L22.58,29.46 L23.17,31.26 L25,31.26 L23.48,32.38 L24.06,34.18 L22.53,33.07 L21,34.18 L21.58,32.38 L20.06,31.26 L20.08,31.26 Z M27.29,38.1 L25.77,37 L27.65,37 L28.23,35.2 L28.81,37 L30.69,37 L29.17,38.1 L29.75,39.9 L28.23,38.79 L26.71,39.9 L27.29,38.1 Z M52.48,24.56 L53.06,26.36 L51.54,25.24 L50,26.36 L50.58,24.56 L49.05,23.44 L51,23.44 L51.58,21.64 L52.16,23.44 L54,23.44 L52.48,24.56 Z M42.83,11 L41.31,9.9 L43.19,9.9 L43.77,8.1 L44.35,9.9 L46.23,9.9 L44.71,11 L45.29,12.8 L43.77,11.7 L42.25,12.81 L42.83,11.01 L42.83,11 Z M48.83,15.61 L49.42,13.81 L50,15.61 L51.88,15.61 L50.4,16.74 L50.98,18.54 L49.46,17.42 L47.93,18.54 L48.51,16.74 L47,15.62 L48.83,15.61 Z M50,31.26 L51.88,31.26 L50.4,32.38 L50.98,34.18 L49.46,33.07 L47.93,34.18 L48.51,32.38 L47,31.26 L48.88,31.26 L49.47,29.46 L50.05,31.26 L50,31.26 Z M46.23,37 L44.71,38.1 L45.29,39.9 L43.77,38.79 L42.25,39.9 L42.83,38.1 L41.31,37 L43.19,37 L43.77,35.2 L44.35,37 L46.23,37 Z"
            id="🌈-stars"
            fill="#FFCC00"
            fill-rule="nonzero"
          />
                </g>
            </g>
            <g
        id="🌈-unija"
        transform="translate(83.960600, 27.689000)"
        fill="#515560"
      >
                <path
          d="M6.885,14.3165 L6.885,12.7635 C6.507,13.3165 6.011,13.7535 5.396,14.0725 C4.781,14.3915 4.131,14.5505 3.447,14.5505 C2.751,14.5505 2.126,14.3985 1.573,14.0915 C1.019,13.7855 0.618,13.3565 0.371,12.8025 C0.124,12.2495 -3.62376795e-13,11.4845 -3.62376795e-13,10.5075 L-3.62376795e-13,3.9455 L2.744,3.9455 L2.744,8.7115 C2.744,10.1695 2.795,11.0635 2.896,11.3915 C2.996,11.7205 3.181,11.9815 3.447,12.1725 C3.714,12.3645 4.053,12.4615 4.463,12.4615 C4.932,12.4615 5.352,12.3325 5.723,12.0755 C6.094,11.8175 6.348,11.4995 6.485,11.1185 C6.621,10.7375 6.69,9.8045 6.69,8.3205 L6.69,3.9455 L9.434,3.9455 L9.434,14.3165 L6.885,14.3165 Z"
          id="Fill-3"
        />
                <path
          d="M21.4094,14.3165 L18.6654,14.3165 L18.6654,9.0235 C18.6654,7.9035 18.6064,7.1795 18.4894,6.8505 C18.3724,6.5225 18.1814,6.2665 17.9184,6.0845 C17.6544,5.9015 17.3374,5.8105 16.9664,5.8105 C16.4904,5.8105 16.0644,5.9415 15.6864,6.2015 C15.3084,6.4615 15.0504,6.8065 14.9104,7.2365 C14.7704,7.6665 14.7004,8.4605 14.7004,9.6195 L14.7004,14.3165 L11.9564,14.3165 L11.9564,3.9455 L14.5054,3.9455 L14.5054,5.4685 C15.4104,4.2965 16.5494,3.7115 17.9234,3.7115 C18.5284,3.7115 19.0824,3.8195 19.5834,4.0385 C20.0844,4.2565 20.4644,4.5345 20.7214,4.8735 C20.9774,5.2115 21.1574,5.5955 21.2584,6.0255 C21.3584,6.4555 21.4094,7.0705 21.4094,7.8715 L21.4094,14.3165 Z"
          id="Fill-5"
        />
                <path
          d="M23.9924,14.316 L26.7364,14.316 L26.7364,3.945 L23.9924,3.945 L23.9924,14.316 Z M23.9924,2.539 L26.7364,2.539 L26.7364,-9.85878046e-14 L23.9924,-9.85878046e-14 L23.9924,2.539 Z"
          id="Fill-7"
        />
                <path
          d="M29.4904,2.539 L32.2344,2.539 L32.2344,4.61852778e-14 L29.4904,4.61852778e-14 L29.4904,2.539 Z M32.2344,3.945 L32.2344,13.994 C32.2344,15.316 32.1484,16.249 31.9754,16.792 C31.8034,17.336 31.4704,17.76 30.9794,18.067 C30.4884,18.373 29.8614,18.525 29.0994,18.525 C28.8264,18.525 28.5314,18.501 28.2164,18.452 C27.9004,18.403 27.5594,18.33 27.1954,18.233 L27.6744,15.889 C27.8034,15.915 27.9264,15.936 28.0404,15.952 C28.1544,15.968 28.2604,15.977 28.3574,15.977 C28.6374,15.977 28.8674,15.917 29.0464,15.796 C29.2244,15.675 29.3444,15.531 29.4024,15.361 C29.4614,15.192 29.4904,14.684 29.4904,13.838 L29.4904,3.945 L32.2344,3.945 Z"
          id="Fill-9"
        />
                <path
          d="M40.8283,9.336 C40.4763,9.453 39.9203,9.593 39.1583,9.756 C38.3963,9.919 37.8983,10.078 37.6643,10.234 C37.3063,10.488 37.1273,10.811 37.1273,11.201 C37.1273,11.586 37.2703,11.918 37.5573,12.197 C37.8433,12.477 38.2083,12.617 38.6503,12.617 C39.1453,12.617 39.6173,12.455 40.0663,12.129 C40.3983,11.881 40.6163,11.579 40.7213,11.221 C40.7923,10.986 40.8283,10.541 40.8283,9.883 L40.8283,9.336 Z M37.1563,7.109 L34.6663,6.66 C34.9463,5.658 35.4283,4.916 36.1113,4.434 C36.7953,3.952 37.8103,3.711 39.1583,3.711 C40.3823,3.711 41.2943,3.856 41.8923,4.146 C42.4913,4.435 42.9133,4.803 43.1573,5.249 C43.4013,5.695 43.5233,6.514 43.5233,7.705 L43.4943,10.908 C43.4943,11.82 43.5383,12.492 43.6263,12.925 C43.7143,13.358 43.8783,13.822 44.1193,14.316 L41.4043,14.316 C41.3333,14.134 41.2453,13.864 41.1403,13.506 C41.0953,13.343 41.0623,13.236 41.0433,13.184 C40.5743,13.639 40.0733,13.981 39.5393,14.209 C39.0053,14.437 38.4353,14.551 37.8303,14.551 C36.7633,14.551 35.9213,14.261 35.3063,13.682 C34.6903,13.102 34.3833,12.37 34.3833,11.484 C34.3833,10.898 34.5223,10.376 34.8033,9.917 C35.0833,9.458 35.4743,9.107 35.9793,8.862 C36.4843,8.618 37.2123,8.405 38.1623,8.223 C39.4443,7.982 40.3333,7.757 40.8283,7.549 L40.8283,7.275 C40.8283,6.748 40.6983,6.372 40.4373,6.148 C40.1773,5.923 39.6853,5.811 38.9633,5.811 C38.4743,5.811 38.0943,5.907 37.8203,6.099 C37.5473,6.291 37.3253,6.628 37.1563,7.109 L37.1563,7.109 Z"
          id="Fill-10"
        />
            </g>
            <g
        id="🌈-Europska"
        transform="translate(84.030100, 6.009800)"
        fill="#515560"
      >
                <polygon
          id="Fill-11"
          points="-3.90798505e-13 14.316 -3.90798505e-13 -9.76996262e-14 10.615 -9.76996262e-14 10.615 2.421 2.891 2.421 2.891 5.595 10.078 5.595 10.078 8.007 2.891 8.007 2.891 11.904 10.889 11.904 10.889 14.316"
        />
                <path
          d="M19.8662,14.316 L19.8662,12.763 C19.4882,13.316 18.9922,13.753 18.3772,14.072 C17.7622,14.391 17.1122,14.55 16.4282,14.55 C15.7322,14.55 15.1072,14.398 14.5542,14.091 C14.0002,13.785 13.5992,13.356 13.3522,12.802 C13.1052,12.249 12.9812,11.484 12.9812,10.507 L12.9812,3.945 L15.7252,3.945 L15.7252,8.711 C15.7252,10.169 15.7762,11.063 15.8772,11.391 C15.9772,11.72 16.1622,11.981 16.4282,12.172 C16.6952,12.364 17.0342,12.461 17.4442,12.461 C17.9132,12.461 18.3332,12.332 18.7042,12.075 C19.0752,11.817 19.3292,11.499 19.4662,11.118 C19.6022,10.737 19.6712,9.804 19.6712,8.32 L19.6712,3.945 L22.4152,3.945 L22.4152,14.316 L19.8662,14.316 Z"
          id="Fill-12"
        />
                <path
          d="M27.584,14.316 L24.84,14.316 L24.84,3.945 L27.389,3.945 L27.389,5.42 C27.825,4.723 28.217,4.264 28.565,4.043 C28.914,3.821 29.31,3.711 29.752,3.711 C30.377,3.711 30.98,3.883 31.559,4.228 L30.709,6.621 C30.247,6.321 29.817,6.171 29.42,6.171 C29.036,6.171 28.71,6.277 28.443,6.489 C28.177,6.7 27.967,7.083 27.813,7.636 C27.66,8.19 27.584,9.349 27.584,11.113 L27.584,14.316 Z"
          id="Fill-13"
        />
                <path
          d="M34.6182,9.1305 C34.6182,10.1595 34.8622,10.9465 35.3502,11.4935 C35.8392,12.0405 36.4412,12.3145 37.1572,12.3145 C37.8732,12.3145 38.4732,12.0405 38.9592,11.4935 C39.4442,10.9465 39.6862,10.1525 39.6862,9.1105 C39.6862,8.0955 39.4442,7.3145 38.9592,6.7675 C38.4732,6.2205 37.8732,5.9465 37.1572,5.9465 C36.4412,5.9465 35.8392,6.2205 35.3502,6.7675 C34.8622,7.3145 34.6182,8.1015 34.6182,9.1305 M31.8052,8.9845 C31.8052,8.0725 32.0302,7.1905 32.4792,6.3375 C32.9292,5.4845 33.5652,4.8335 34.3892,4.3845 C35.2122,3.9355 36.1322,3.7105 37.1472,3.7105 C38.7172,3.7105 40.0022,4.2195 41.0052,5.2385 C42.0082,6.2575 42.5092,7.5455 42.5092,9.1015 C42.5092,10.6705 42.0032,11.9705 40.9902,13.0025 C39.9772,14.0345 38.7032,14.5505 37.1672,14.5505 C36.2172,14.5505 35.3092,14.3355 34.4472,13.9055 C33.5852,13.4765 32.9292,12.8465 32.4792,12.0165 C32.0302,11.1865 31.8052,10.1755 31.8052,8.9845"
          id="Fill-14"
        />
                <path
          d="M46.9541,8.9547 C46.9541,10.1207 47.1851,10.9807 47.6471,11.5377 C48.1091,12.0947 48.6731,12.3727 49.3371,12.3727 C49.9751,12.3727 50.5061,12.1177 50.9291,11.6057 C51.3511,11.0947 51.5631,10.2567 51.5631,9.0917 C51.5631,8.0037 51.3461,7.1967 50.9091,6.6697 C50.4731,6.1417 49.9331,5.8787 49.2881,5.8787 C48.6171,5.8787 48.0601,6.1377 47.6181,6.6547 C47.1761,7.1727 46.9541,7.9387 46.9541,8.9547 L46.9541,8.9547 Z M44.2391,3.9447 L46.7981,3.9447 L46.7981,5.4687 C47.1301,4.9477 47.5791,4.5247 48.1451,4.1987 C48.7121,3.8727 49.3401,3.7107 50.0301,3.7107 C51.2341,3.7107 52.2571,4.1827 53.0971,5.1267 C53.9361,6.0707 54.3561,7.3857 54.3561,9.0717 C54.3561,10.8037 53.9331,12.1497 53.0871,13.1097 C52.2401,14.0707 51.2151,14.5507 50.0111,14.5507 C49.4371,14.5507 48.9191,14.4367 48.4531,14.2087 C47.9871,13.9807 47.4981,13.5897 46.9831,13.0367 L46.9831,18.2617 L44.2391,18.2617 L44.2391,3.9447 Z"
          id="Fill-15"
        />
                <path
          d="M55.3672,11.357 L58.1212,10.937 C58.2382,11.471 58.4752,11.876 58.8342,12.153 C59.1922,12.43 59.6932,12.568 60.3382,12.568 C61.0482,12.568 61.5812,12.438 61.9392,12.177 C62.1802,11.995 62.3012,11.751 62.3012,11.445 C62.3012,11.236 62.2352,11.064 62.1052,10.927 C61.9692,10.797 61.6632,10.677 61.1872,10.566 C58.9732,10.078 57.5712,9.632 56.9782,9.228 C56.1582,8.668 55.7482,7.89 55.7482,6.894 C55.7482,5.996 56.1022,5.24 56.8122,4.628 C57.5222,4.017 58.6222,3.711 60.1132,3.711 C61.5322,3.711 62.5872,3.941 63.2772,4.404 C63.9682,4.866 64.4422,5.55 64.7032,6.455 L62.1152,6.933 C62.0052,6.529 61.7952,6.22 61.4852,6.005 C61.1762,5.791 60.7352,5.683 60.1622,5.683 C59.4392,5.683 58.9222,5.784 58.6092,5.986 C58.4012,6.129 58.2972,6.315 58.2972,6.543 C58.2972,6.738 58.3882,6.904 58.5702,7.041 C58.8172,7.223 59.6722,7.48 61.1342,7.812 C62.5962,8.144 63.6162,8.551 64.1952,9.033 C64.7682,9.521 65.0552,10.201 65.0552,11.074 C65.0552,12.024 64.6572,12.841 63.8632,13.525 C63.0692,14.209 61.8932,14.55 60.3382,14.55 C58.9252,14.55 57.8062,14.264 56.9832,13.691 C56.1602,13.118 55.6212,12.34 55.3672,11.357"
          id="Fill-16"
        />
                <polygon
          id="Fill-17"
          points="66.959 14.316 66.959 -9.76996262e-14 69.703 -9.76996262e-14 69.703 7.597 72.916 3.945 76.295 3.945 72.75 7.734 76.549 14.316 73.59 14.316 70.982 9.658 69.703 10.996 69.703 14.316"
        />
                <path
          d="M83.9024,9.3356 C83.5504,9.4526 82.9944,9.5926 82.2324,9.7556 C81.4704,9.9186 80.9724,10.0776 80.7384,10.2336 C80.3804,10.4876 80.2014,10.8106 80.2014,11.2006 C80.2014,11.5856 80.3444,11.9176 80.6314,12.1966 C80.9174,12.4766 81.2824,12.6166 81.7244,12.6166 C82.2194,12.6166 82.6914,12.4546 83.1404,12.1286 C83.4724,11.8806 83.6904,11.5786 83.7954,11.2206 C83.8664,10.9856 83.9024,10.5406 83.9024,9.8826 L83.9024,9.3356 Z M80.2304,7.1086 L77.7404,6.6596 C78.0204,5.6576 78.5024,4.9156 79.1854,4.4336 C79.8694,3.9516 80.8844,3.7106 82.2324,3.7106 C83.4564,3.7106 84.3684,3.8556 84.9664,4.1456 C85.5654,4.4346 85.9874,4.8026 86.2314,5.2486 C86.4754,5.6946 86.5974,6.5136 86.5974,7.7046 L86.5684,10.9076 C86.5684,11.8196 86.6124,12.4916 86.7004,12.9246 C86.7884,13.3576 86.9524,13.8216 87.1934,14.3156 L84.4784,14.3156 C84.4074,14.1336 84.3194,13.8636 84.2144,13.5056 C84.1694,13.3426 84.1364,13.2356 84.1174,13.1836 C83.6484,13.6386 83.1474,13.9806 82.6134,14.2086 C82.0794,14.4366 81.5094,14.5506 80.9044,14.5506 C79.8374,14.5506 78.9954,14.2606 78.3804,13.6816 C77.7644,13.1016 77.4574,12.3696 77.4574,11.4836 C77.4574,10.8976 77.5964,10.3756 77.8774,9.9166 C78.1574,9.4576 78.5484,9.1066 79.0534,8.8616 C79.5584,8.6176 80.2864,8.4046 81.2364,8.2226 C82.5184,7.9816 83.4074,7.7566 83.9024,7.5486 L83.9024,7.2746 C83.9024,6.7476 83.7724,6.3716 83.5114,6.1476 C83.2514,5.9226 82.7594,5.8106 82.0374,5.8106 C81.5484,5.8106 81.1684,5.9066 80.8944,6.0986 C80.6214,6.2906 80.3994,6.6276 80.2304,7.1086 L80.2304,7.1086 Z"
          id="Fill-18"
        />
            </g>
        </g>
    </g>
</svg>
