<svg
  width="219"
  height="44"
  viewBox="0 0 219 44"
  fill="none"
  xmlns="http://www.w3.org/2000/svg"
>
<path
    d="M78.0176 18.5V5.61523H87.5713V7.79492H80.6191V10.6514H87.0879V12.8223H80.6191V16.3291H87.8174V18.5H78.0176Z"
    fill="#515560"
  />
<path
    d="M96.1494 18.5V17.1025C95.8096 17.6006 95.3613 17.9932 94.8047 18.2803C94.2539 18.5674 93.6709 18.7109 93.0557 18.7109C92.4287 18.7109 91.8662 18.5732 91.3682 18.2979C90.8701 18.0225 90.5098 17.6357 90.2871 17.1377C90.0645 16.6396 89.9531 15.9512 89.9531 15.0723V9.16602H92.4229V13.4551C92.4229 14.7676 92.4668 15.5732 92.5547 15.8721C92.6484 16.165 92.8154 16.3994 93.0557 16.5752C93.2959 16.7451 93.6006 16.8301 93.9697 16.8301C94.3916 16.8301 94.7695 16.7158 95.1035 16.4873C95.4375 16.2529 95.666 15.9658 95.7891 15.626C95.9121 15.2803 95.9736 14.4395 95.9736 13.1035V9.16602H98.4434V18.5H96.1494Z"
    fill="#515560"
  />
<path
    d="M103.374 18.5H100.904V9.16602H103.198V10.4932C103.591 9.86621 103.942 9.45312 104.253 9.25391C104.569 9.05469 104.927 8.95508 105.325 8.95508C105.888 8.95508 106.43 9.11035 106.951 9.4209L106.187 11.5742C105.771 11.3047 105.384 11.1699 105.026 11.1699C104.681 11.1699 104.388 11.2666 104.147 11.46C103.907 11.6475 103.717 11.9902 103.576 12.4883C103.441 12.9863 103.374 14.0293 103.374 15.6172V18.5Z"
    fill="#515560"
  />
<path
    d="M107.452 13.7012C107.452 12.8809 107.654 12.0869 108.059 11.3193C108.463 10.5518 109.034 9.96582 109.772 9.56152C110.517 9.15723 111.346 8.95508 112.26 8.95508C113.672 8.95508 114.829 9.41504 115.731 10.335C116.634 11.249 117.085 12.4062 117.085 13.8066C117.085 15.2188 116.628 16.3906 115.714 17.3223C114.806 18.248 113.66 18.7109 112.277 18.7109C111.422 18.7109 110.604 18.5176 109.825 18.1309C109.052 17.7441 108.463 17.1787 108.059 16.4346C107.654 15.6846 107.452 14.7734 107.452 13.7012ZM109.983 13.833C109.983 14.7588 110.203 15.4678 110.643 15.96C111.082 16.4521 111.624 16.6982 112.269 16.6982C112.913 16.6982 113.452 16.4521 113.886 15.96C114.325 15.4678 114.545 14.7529 114.545 13.8154C114.545 12.9014 114.325 12.1982 113.886 11.7061C113.452 11.2139 112.913 10.9678 112.269 10.9678C111.624 10.9678 111.082 11.2139 110.643 11.7061C110.203 12.1982 109.983 12.9072 109.983 13.833Z"
    fill="#515560"
  />
<path
    d="M118.957 9.16602H121.26V10.5371C121.559 10.0684 121.963 9.6875 122.473 9.39453C122.982 9.10156 123.548 8.95508 124.169 8.95508C125.253 8.95508 126.173 9.37988 126.929 10.2295C127.685 11.0791 128.062 12.2627 128.062 13.7803C128.062 15.3389 127.682 16.5518 126.92 17.4189C126.158 18.2803 125.235 18.7109 124.151 18.7109C123.636 18.7109 123.167 18.6084 122.745 18.4033C122.329 18.1982 121.89 17.8467 121.427 17.3486V22.0508H118.957V9.16602ZM121.4 13.6748C121.4 14.7236 121.608 15.5 122.024 16.0039C122.44 16.502 122.947 16.751 123.545 16.751C124.119 16.751 124.597 16.5225 124.978 16.0654C125.358 15.6025 125.549 14.8467 125.549 13.7979C125.549 12.8193 125.353 12.0928 124.96 11.6182C124.567 11.1436 124.081 10.9062 123.501 10.9062C122.897 10.9062 122.396 11.1406 121.998 11.6094C121.6 12.0723 121.4 12.7607 121.4 13.6748Z"
    fill="#515560"
  />
<path
    d="M131.877 12.0137L129.636 11.6094C129.888 10.707 130.321 10.0391 130.937 9.60547C131.552 9.17188 132.466 8.95508 133.679 8.95508C134.78 8.95508 135.601 9.08691 136.14 9.35059C136.679 9.6084 137.057 9.93945 137.273 10.3438C137.496 10.7422 137.607 11.4775 137.607 12.5498L137.581 15.4326C137.581 16.2529 137.619 16.8594 137.695 17.252C137.777 17.6387 137.927 18.0547 138.144 18.5H135.7C135.636 18.3359 135.557 18.0928 135.463 17.7705C135.422 17.624 135.393 17.5273 135.375 17.4805C134.953 17.8906 134.502 18.1982 134.021 18.4033C133.541 18.6084 133.028 18.7109 132.483 18.7109C131.522 18.7109 130.764 18.4502 130.207 17.9287C129.656 17.4072 129.381 16.748 129.381 15.9512C129.381 15.4238 129.507 14.9551 129.759 14.5449C130.011 14.1289 130.362 13.8125 130.813 13.5957C131.271 13.373 131.927 13.1797 132.782 13.0156C133.937 12.7988 134.736 12.5967 135.182 12.4092V12.1631C135.182 11.6885 135.064 11.3516 134.83 11.1523C134.596 10.9473 134.153 10.8447 133.503 10.8447C133.063 10.8447 132.721 10.9326 132.475 11.1084C132.229 11.2783 132.029 11.5801 131.877 12.0137ZM135.182 14.0176C134.865 14.123 134.364 14.249 133.679 14.3955C132.993 14.542 132.545 14.6855 132.334 14.8262C132.012 15.0547 131.851 15.3447 131.851 15.6963C131.851 16.042 131.979 16.3408 132.237 16.5928C132.495 16.8447 132.823 16.9707 133.222 16.9707C133.667 16.9707 134.092 16.8242 134.496 16.5312C134.795 16.3086 134.991 16.0361 135.085 15.7139C135.149 15.5029 135.182 15.1016 135.182 14.5098V14.0176ZM130.813 7.51367V5.39551H132.932V7.51367H130.813ZM134.593 7.51367V5.39551H136.72V7.51367H134.593Z"
    fill="#515560"
  />
<path
    d="M145.456 15.5293L147.917 15.9424C147.601 16.8447 147.1 17.5332 146.414 18.0078C145.734 18.4766 144.882 18.7109 143.856 18.7109C142.233 18.7109 141.032 18.1807 140.253 17.1201C139.638 16.2705 139.33 15.1982 139.33 13.9033C139.33 12.3564 139.734 11.1465 140.543 10.2734C141.352 9.39453 142.374 8.95508 143.61 8.95508C144.999 8.95508 146.095 9.41504 146.897 10.335C147.7 11.249 148.084 12.6523 148.049 14.5449H141.861C141.879 15.2773 142.078 15.8486 142.459 16.2588C142.84 16.6631 143.314 16.8652 143.883 16.8652C144.27 16.8652 144.595 16.7598 144.858 16.5488C145.122 16.3379 145.321 15.998 145.456 15.5293ZM145.597 13.0332C145.579 12.3184 145.395 11.7764 145.043 11.4072C144.691 11.0322 144.264 10.8447 143.76 10.8447C143.221 10.8447 142.775 11.041 142.424 11.4336C142.072 11.8262 141.899 12.3594 141.905 13.0332H145.597Z"
    fill="#515560"
  />
<path
    d="M149.2 15.8369L151.679 15.459C151.784 15.9395 151.998 16.3057 152.32 16.5576C152.643 16.8037 153.094 16.9268 153.674 16.9268C154.312 16.9268 154.793 16.8096 155.115 16.5752C155.332 16.4111 155.44 16.1914 155.44 15.916C155.44 15.7285 155.382 15.5732 155.265 15.4502C155.142 15.333 154.866 15.2246 154.438 15.125C152.446 14.6855 151.184 14.2842 150.65 13.9209C149.912 13.417 149.543 12.7168 149.543 11.8203C149.543 11.0117 149.862 10.332 150.501 9.78125C151.14 9.23047 152.13 8.95508 153.472 8.95508C154.749 8.95508 155.698 9.16309 156.319 9.5791C156.94 9.99512 157.368 10.6104 157.603 11.4248L155.273 11.8555C155.174 11.4922 154.983 11.2139 154.702 11.0205C154.427 10.8271 154.031 10.7305 153.516 10.7305C152.865 10.7305 152.399 10.8213 152.118 11.0029C151.931 11.1318 151.837 11.2988 151.837 11.5039C151.837 11.6797 151.919 11.8291 152.083 11.9521C152.306 12.1162 153.073 12.3477 154.386 12.6465C155.704 12.9453 156.624 13.3115 157.146 13.7451C157.661 14.1846 157.919 14.7969 157.919 15.582C157.919 16.4375 157.562 17.1729 156.847 17.7881C156.132 18.4033 155.074 18.7109 153.674 18.7109C152.402 18.7109 151.395 18.4531 150.65 17.9375C149.912 17.4219 149.429 16.7217 149.2 15.8369Z"
    fill="#515560"
  />
<path
    d="M168.229 11.9258L165.794 12.3652C165.712 11.8789 165.524 11.5127 165.231 11.2666C164.944 11.0205 164.569 10.8975 164.106 10.8975C163.491 10.8975 162.999 11.1113 162.63 11.5391C162.267 11.9609 162.085 12.6699 162.085 13.666C162.085 14.7734 162.27 15.5557 162.639 16.0127C163.014 16.4697 163.515 16.6982 164.142 16.6982C164.61 16.6982 164.994 16.5664 165.293 16.3027C165.592 16.0332 165.803 15.5732 165.926 14.9229L168.352 15.3359C168.1 16.4492 167.616 17.29 166.901 17.8584C166.187 18.4268 165.229 18.7109 164.027 18.7109C162.662 18.7109 161.572 18.2803 160.758 17.4189C159.949 16.5576 159.545 15.3652 159.545 13.8418C159.545 12.3008 159.952 11.1025 160.767 10.2471C161.581 9.38574 162.683 8.95508 164.071 8.95508C165.208 8.95508 166.11 9.20117 166.778 9.69336C167.452 10.1797 167.936 10.9238 168.229 11.9258Z"
    fill="#515560"
  />
<path
    d="M172.57 5.61523V10.3525C173.367 9.4209 174.319 8.95508 175.427 8.95508C175.995 8.95508 176.508 9.06055 176.965 9.27148C177.422 9.48242 177.765 9.75195 177.993 10.0801C178.228 10.4082 178.386 10.7715 178.468 11.1699C178.556 11.5684 178.6 12.1865 178.6 13.0244V18.5H176.13V13.5693C176.13 12.5908 176.083 11.9697 175.989 11.7061C175.896 11.4424 175.729 11.2344 175.488 11.082C175.254 10.9238 174.958 10.8447 174.601 10.8447C174.19 10.8447 173.824 10.9443 173.502 11.1436C173.18 11.3428 172.942 11.6445 172.79 12.0488C172.644 12.4473 172.57 13.0391 172.57 13.8242V18.5H170.101V5.61523H172.57Z"
    fill="#515560"
  />
<path
    d="M78 25.6152H80.6016V32.5938C80.6016 33.7012 80.6338 34.4189 80.6982 34.7471C80.8096 35.2744 81.0732 35.6992 81.4893 36.0215C81.9111 36.3379 82.4854 36.4961 83.2119 36.4961C83.9502 36.4961 84.5068 36.3467 84.8818 36.0479C85.2568 35.7432 85.4824 35.3711 85.5586 34.9316C85.6348 34.4922 85.6729 33.7627 85.6729 32.7432V25.6152H88.2744V32.3828C88.2744 33.9297 88.2041 35.0225 88.0635 35.6611C87.9229 36.2998 87.6621 36.8389 87.2812 37.2783C86.9062 37.7178 86.4023 38.0693 85.7695 38.333C85.1367 38.5908 84.3105 38.7197 83.291 38.7197C82.0605 38.7197 81.126 38.5791 80.4873 38.2979C79.8545 38.0107 79.3535 37.6416 78.9844 37.1904C78.6152 36.7334 78.3721 36.2559 78.2549 35.7578C78.085 35.0195 78 33.9297 78 32.4883V25.6152Z"
    fill="#515560"
  />
<path
    d="M99.498 38.5H97.0283V33.7363C97.0283 32.7285 96.9756 32.0781 96.8701 31.7852C96.7646 31.4863 96.5918 31.2549 96.3516 31.0908C96.1172 30.9268 95.833 30.8447 95.499 30.8447C95.0713 30.8447 94.6875 30.9619 94.3477 31.1963C94.0078 31.4307 93.7734 31.7412 93.6445 32.1279C93.5215 32.5146 93.46 33.2295 93.46 34.2725V38.5H90.9902V29.166H93.2842V30.5371C94.0986 29.4824 95.124 28.9551 96.3604 28.9551C96.9053 28.9551 97.4033 29.0547 97.8545 29.2539C98.3057 29.4473 98.6455 29.6963 98.874 30.001C99.1084 30.3057 99.2695 30.6514 99.3574 31.0381C99.4512 31.4248 99.498 31.9785 99.498 32.6992V38.5Z"
    fill="#515560"
  />
<path
    d="M102.012 27.9004V25.6152H104.481V27.9004H102.012ZM102.012 38.5V29.166H104.481V38.5H102.012Z"
    fill="#515560"
  />
<path
    d="M106.45 33.7012C106.45 32.8809 106.652 32.0869 107.057 31.3193C107.461 30.5518 108.032 29.9658 108.771 29.5615C109.515 29.1572 110.344 28.9551 111.258 28.9551C112.67 28.9551 113.827 29.415 114.729 30.335C115.632 31.249 116.083 32.4062 116.083 33.8066C116.083 35.2188 115.626 36.3906 114.712 37.3223C113.804 38.248 112.658 38.7109 111.275 38.7109C110.42 38.7109 109.603 38.5176 108.823 38.1309C108.05 37.7441 107.461 37.1787 107.057 36.4346C106.652 35.6846 106.45 34.7734 106.45 33.7012ZM108.981 33.833C108.981 34.7588 109.201 35.4678 109.641 35.96C110.08 36.4521 110.622 36.6982 111.267 36.6982C111.911 36.6982 112.45 36.4521 112.884 35.96C113.323 35.4678 113.543 34.7529 113.543 33.8154C113.543 32.9014 113.323 32.1982 112.884 31.7061C112.45 31.2139 111.911 30.9678 111.267 30.9678C110.622 30.9678 110.08 31.2139 109.641 31.7061C109.201 32.1982 108.981 32.9072 108.981 33.833Z"
    fill="#515560"
  />
<path
    d="M124.169 38.5V37.1025C123.829 37.6006 123.381 37.9932 122.824 38.2803C122.273 38.5674 121.69 38.7109 121.075 38.7109C120.448 38.7109 119.886 38.5732 119.388 38.2979C118.89 38.0225 118.529 37.6357 118.307 37.1377C118.084 36.6396 117.973 35.9512 117.973 35.0723V29.166H120.442V33.4551C120.442 34.7676 120.486 35.5732 120.574 35.8721C120.668 36.165 120.835 36.3994 121.075 36.5752C121.315 36.7451 121.62 36.8301 121.989 36.8301C122.411 36.8301 122.789 36.7158 123.123 36.4873C123.457 36.2529 123.686 35.9658 123.809 35.626C123.932 35.2803 123.993 34.4395 123.993 33.1035V29.166H126.463V38.5H124.169Z"
    fill="#515560"
  />
<path
    d="M137.52 38.5H135.05V33.7363C135.05 32.7285 134.997 32.0781 134.892 31.7852C134.786 31.4863 134.613 31.2549 134.373 31.0908C134.139 30.9268 133.854 30.8447 133.521 30.8447C133.093 30.8447 132.709 30.9619 132.369 31.1963C132.029 31.4307 131.795 31.7412 131.666 32.1279C131.543 32.5146 131.481 33.2295 131.481 34.2725V38.5H129.012V29.166H131.306V30.5371C132.12 29.4824 133.146 28.9551 134.382 28.9551C134.927 28.9551 135.425 29.0547 135.876 29.2539C136.327 29.4473 136.667 29.6963 136.896 30.001C137.13 30.3057 137.291 30.6514 137.379 31.0381C137.473 31.4248 137.52 31.9785 137.52 32.6992V38.5Z"
    fill="#515560"
  />
<rect width="66" height="44" fill="#003399" />
<path
    fill-rule="evenodd"
    clip-rule="evenodd"
    d="M30.745 7.15L32.1383 8.1675L31.6067 9.82667L33 8.8L34.3933 9.82667L33.8617 8.1675L35.255 7.15H33.5317L33 5.5L32.4683 7.15H30.745ZM34.3933 38.5L33.8617 36.85L35.255 35.8325H33.5317L33 34.1733L32.4683 35.8325H30.745L32.1383 36.85L31.6067 38.5L33 37.4825L34.3933 38.5ZM18.755 23.1L17.3617 24.1267L17.8933 22.4767L16.5 21.4867H18.2233L18.755 19.8367L19.2867 21.4867H21.0192L19.6167 22.5133L20.1483 24.1633L18.755 23.1367V23.1ZM27.2708 11.7333L26.7392 10.0833L28.1325 9.075H26.4092L25.8775 7.425L25.3458 9.075H23.6225L25.0158 10.0925L24.4842 11.7425L25.8775 10.725L27.2708 11.7333ZM20.1667 14.3183L20.6983 12.6683L21.2392 14.3183H22.9167L21.5233 15.345L22.055 16.995L20.6525 15.9683L19.25 16.995L19.7817 15.345L18.3883 14.3183H20.1667ZM20.6983 27.005L20.1667 28.655H18.4067H18.3883L19.7817 29.6817L19.25 31.3317L20.6525 30.3142L22.055 31.3317L21.5233 29.6817L22.9167 28.655H21.2392L20.6983 27.005ZM25.0158 34.925L23.6225 33.9167H25.3458L25.8775 32.2667L26.4092 33.9167H28.1325L26.7392 34.925L27.2708 36.575L25.8775 35.5575L24.4842 36.575L25.0158 34.925ZM48.6383 24.1633L48.1067 22.5133L49.5 21.4867H47.8133L47.2817 19.8367L46.75 21.4867H44.9625L46.365 22.5133L45.8333 24.1633L47.245 23.1367L48.6383 24.1633ZM39.2608 10.0833L37.8675 9.075H39.5908L40.1225 7.425L40.6542 9.075H42.3775L40.9842 10.0833L41.5158 11.7333L40.1225 10.725L38.7292 11.7425L39.2608 10.0925V10.0833ZM45.3017 12.6592L44.7608 14.3092L43.0833 14.3183L44.4675 15.345L43.9358 16.995L45.3383 15.9683L46.7317 16.995L46.2 15.345L47.5567 14.3092H45.8333L45.3017 12.6592ZM45.8792 28.655H47.5567L46.2 29.6817L46.7317 31.3317L45.3383 30.3142L43.9358 31.3317L44.4675 29.6817L43.0833 28.655H44.8067L45.3475 27.005L45.8792 28.655ZM40.9842 34.925L42.3775 33.9167H40.6542L40.1225 32.2667L39.5908 33.9167H37.8675L39.2608 34.925L38.7292 36.575L40.1225 35.5575L41.5158 36.575L40.9842 34.925Z"
    fill="#FFCC00"
  />
</svg>
