<?xml version="1.0" encoding="UTF-8" ?>
<svg
  width="202px"
  height="48px"
  viewBox="0 0 202 48"
  version="1.1"
  xmlns="http://www.w3.org/2000/svg"
  xmlns:xlink="http://www.w3.org/1999/xlink"
>
    <!-- Generator: Sketch 64 (93537) - https://sketch.com -->
    <title>EU/EU-emblem/standard-version/positive/DE</title>
    <desc>Created with Sketch.</desc>
    <g
    id="EU/EU-emblem/standard-version/positive/DE"
    stroke="none"
    stroke-width="1"
    fill="none"
    fill-rule="evenodd"
  >
        <g id="EU-emblem_standard">
            <g id="EU/EU-emblem/flag/flag-positive">
                <g id="EU_flag">
                    <rect
            id="🌈-flag"
            fill="#003399"
            fill-rule="nonzero"
            x="0"
            y="0"
            width="72"
            height="48"
          />
                    <path
            d="M35.06,8.91 L33.54,7.8 L35.42,7.8 L36,6 L36.58,7.8 L38.46,7.8 L36.94,8.91 L37.52,10.72 L36,9.6 L34.48,10.72 L35.06,8.91 L35.06,8.91 Z M36.94,40.2 L37.52,42 L36,40.89 L34.48,42 L35.06,40.2 L33.54,39.09 L35.42,39.09 L36,37.28 L36.58,39.09 L38.46,39.09 L36.94,40.2 Z M20.46,25.2 L18.94,26.32 L19.52,24.52 L18,23.44 L19.88,23.44 L20.46,21.64 L21.04,23.44 L22.93,23.44 L21.4,24.56 L21.98,26.36 L20.46,25.24 L20.46,25.2 Z M29.17,11 L29.75,12.8 L28.23,11.7 L26.71,12.81 L27.29,11.01 L25.77,9.9 L27.65,9.9 L28.23,8.1 L28.81,9.9 L30.69,9.9 L29.17,11 Z M22,15.62 L22.58,13.82 L23.17,15.62 L25,15.62 L23.48,16.74 L24.06,18.54 L22.53,17.42 L21,18.54 L21.58,16.74 L20.06,15.62 L22,15.62 Z M20.08,31.26 L22,31.26 L22.58,29.46 L23.17,31.26 L25,31.26 L23.48,32.38 L24.06,34.18 L22.53,33.07 L21,34.18 L21.58,32.38 L20.06,31.26 L20.08,31.26 Z M27.29,38.1 L25.77,37 L27.65,37 L28.23,35.2 L28.81,37 L30.69,37 L29.17,38.1 L29.75,39.9 L28.23,38.79 L26.71,39.9 L27.29,38.1 Z M52.48,24.56 L53.06,26.36 L51.54,25.24 L50,26.36 L50.58,24.56 L49.05,23.44 L51,23.44 L51.58,21.64 L52.16,23.44 L54,23.44 L52.48,24.56 Z M42.83,11 L41.31,9.9 L43.19,9.9 L43.77,8.1 L44.35,9.9 L46.23,9.9 L44.71,11 L45.29,12.8 L43.77,11.7 L42.25,12.81 L42.83,11.01 L42.83,11 Z M48.83,15.61 L49.42,13.81 L50,15.61 L51.88,15.61 L50.4,16.74 L50.98,18.54 L49.46,17.42 L47.93,18.54 L48.51,16.74 L47,15.62 L48.83,15.61 Z M50,31.26 L51.88,31.26 L50.4,32.38 L50.98,34.18 L49.46,33.07 L47.93,34.18 L48.51,32.38 L47,31.26 L48.88,31.26 L49.47,29.46 L50.05,31.26 L50,31.26 Z M46.23,37 L44.71,38.1 L45.29,39.9 L43.77,38.79 L42.25,39.9 L42.83,38.1 L41.31,37 L43.19,37 L43.77,35.2 L44.35,37 L46.23,37 Z"
            id="🌈-stars"
            fill="#FFCC00"
            fill-rule="nonzero"
          />
                </g>
            </g>
            <g
        id="🌈-Union"
        transform="translate(84.000000, 27.689000)"
        fill="#515560"
      >
                <path
          d="M-3.69482223e-13,0.0004 L2.891,0.0004 L2.891,7.7544 C2.891,8.9844 2.927,9.7824 2.998,10.1464 C3.122,10.7324 3.416,11.2034 3.882,11.5584 C4.348,11.9134 4.983,12.0904 5.791,12.0904 C6.611,12.0904 7.229,11.9224 7.646,11.5874 C8.063,11.2514 8.313,10.8404 8.398,10.3524 C8.483,9.8634 8.525,9.0534 8.525,7.9204 L8.525,0.0004 L11.416,0.0004 L11.416,7.5204 C11.416,9.2384 11.338,10.4534 11.182,11.1624 C11.025,11.8724 10.737,12.4714 10.317,12.9594 C9.897,13.4474 9.336,13.8364 8.633,14.1264 C7.93,14.4164 7.012,14.5614 5.879,14.5614 C4.512,14.5614 3.475,14.4034 2.769,14.0874 C2.063,13.7714 1.504,13.3614 1.094,12.8564 C0.684,12.3524 0.413,11.8234 0.283,11.2704 C0.095,10.4494 -3.69482223e-13,9.2384 -3.69482223e-13,7.6374 L-3.69482223e-13,0.0004 Z"
          id="Fill-3"
        />
                <path
          d="M23.2774,14.3168 L20.5334,14.3168 L20.5334,9.0238 C20.5334,7.9038 20.4744,7.1798 20.3574,6.8508 C20.2404,6.5228 20.0494,6.2668 19.7864,6.0848 C19.5224,5.9018 19.2054,5.8108 18.8344,5.8108 C18.3584,5.8108 17.9324,5.9418 17.5544,6.2018 C17.1764,6.4618 16.9184,6.8068 16.7784,7.2368 C16.6384,7.6668 16.5684,8.4608 16.5684,9.6198 L16.5684,14.3168 L13.8244,14.3168 L13.8244,3.9458 L16.3734,3.9458 L16.3734,5.4688 C17.2784,4.2968 18.4174,3.7118 19.7914,3.7118 C20.3964,3.7118 20.9504,3.8198 21.4514,4.0388 C21.9524,4.2568 22.3324,4.5348 22.5894,4.8738 C22.8454,5.2118 23.0254,5.5958 23.1264,6.0258 C23.2264,6.4558 23.2774,7.0708 23.2774,7.8718 L23.2774,14.3168 Z"
          id="Fill-5"
        />
                <path
          d="M25.5607,14.317 L28.3047,14.317 L28.3047,3.946 L25.5607,3.946 L25.5607,14.317 Z M25.5607,2.539 L28.3047,2.539 L28.3047,4.4408921e-15 L25.5607,4.4408921e-15 L25.5607,2.539 Z"
          id="Fill-7"
        />
                <path
          d="M32.795,9.1313 C32.795,10.1603 33.039,10.9473 33.527,11.4943 C34.016,12.0413 34.618,12.3153 35.334,12.3153 C36.05,12.3153 36.65,12.0413 37.136,11.4943 C37.621,10.9473 37.863,10.1533 37.863,9.1113 C37.863,8.0963 37.621,7.3153 37.136,6.7683 C36.65,6.2213 36.05,5.9473 35.334,5.9473 C34.618,5.9473 34.016,6.2213 33.527,6.7683 C33.039,7.3153 32.795,8.1023 32.795,9.1313 M29.982,8.9853 C29.982,8.0733 30.207,7.1913 30.656,6.3383 C31.106,5.4853 31.742,4.8343 32.566,4.3853 C33.389,3.9363 34.309,3.7113 35.324,3.7113 C36.894,3.7113 38.179,4.2203 39.182,5.2393 C40.185,6.2583 40.686,7.5463 40.686,9.1023 C40.686,10.6713 40.18,11.9713 39.167,13.0033 C38.154,14.0353 36.88,14.5513 35.344,14.5513 C34.394,14.5513 33.486,14.3363 32.624,13.9063 C31.762,13.4773 31.106,12.8473 30.656,12.0173 C30.207,11.1873 29.982,10.1763 29.982,8.9853"
          id="Fill-9"
        />
                <path
          d="M51.7676,14.3168 L49.0236,14.3168 L49.0236,9.0238 C49.0236,7.9038 48.9646,7.1798 48.8476,6.8508 C48.7306,6.5228 48.5396,6.2668 48.2766,6.0848 C48.0126,5.9018 47.6956,5.8108 47.3246,5.8108 C46.8486,5.8108 46.4226,5.9418 46.0446,6.2018 C45.6666,6.4618 45.4086,6.8068 45.2686,7.2368 C45.1286,7.6668 45.0586,8.4608 45.0586,9.6198 L45.0586,14.3168 L42.3146,14.3168 L42.3146,3.9458 L44.8636,3.9458 L44.8636,5.4688 C45.7686,4.2968 46.9076,3.7118 48.2816,3.7118 C48.8866,3.7118 49.4406,3.8198 49.9416,4.0388 C50.4426,4.2568 50.8226,4.5348 51.0796,4.8738 C51.3356,5.2118 51.5156,5.5958 51.6166,6.0258 C51.7166,6.4558 51.7676,7.0708 51.7676,7.8718 L51.7676,14.3168 Z"
          id="Fill-10"
        />
            </g>
            <g
        id="🌈-Europäische"
        transform="translate(84.010800, 5.765000)"
        fill="#515560"
      >
                <polygon
          id="Fill-11"
          points="-3.90798505e-13 14.5606 -3.90798505e-13 0.2446 10.615 0.2446 10.615 2.6656 2.891 2.6656 2.891 5.8396 10.078 5.8396 10.078 8.2516 2.891 8.2516 2.891 12.1486 10.889 12.1486 10.889 14.5606"
        />
                <path
          d="M19.6465,14.5606 L19.6465,13.0076 C19.2685,13.5616 18.7725,13.9986 18.1575,14.3166 C17.5425,14.6356 16.8925,14.7946 16.2085,14.7946 C15.5125,14.7946 14.8875,14.6426 14.3345,14.3356 C13.7805,14.0306 13.3795,13.6006 13.1325,13.0466 C12.8855,12.4946 12.7615,11.7286 12.7615,10.7516 L12.7615,4.1896 L15.5055,4.1896 L15.5055,8.9556 C15.5055,10.4146 15.5565,11.3076 15.6575,11.6356 C15.7575,11.9646 15.9425,12.2256 16.2085,12.4166 C16.4755,12.6096 16.8145,12.7056 17.2245,12.7056 C17.6935,12.7056 18.1135,12.5776 18.4845,12.3196 C18.8555,12.0626 19.1095,11.7436 19.2465,11.3626 C19.3825,10.9816 19.4515,10.0486 19.4515,8.5646 L19.4515,4.1896 L22.1955,4.1896 L22.1955,14.5606 L19.6465,14.5606 Z"
          id="Fill-12"
        />
                <path
          d="M27.6641,14.5606 L24.9201,14.5606 L24.9201,4.1896 L27.4691,4.1896 L27.4691,5.6646 C27.9051,4.9676 28.2971,4.5086 28.6451,4.2876 C28.9941,4.0666 29.3901,3.9556 29.8321,3.9556 C30.4571,3.9556 31.0601,4.1276 31.6391,4.4726 L30.7891,6.8656 C30.3271,6.5666 29.8971,6.4156 29.5001,6.4156 C29.1161,6.4156 28.7901,6.5226 28.5231,6.7336 C28.2571,6.9456 28.0471,7.3286 27.8931,7.8806 C27.7401,8.4346 27.6641,9.5936 27.6641,11.3576 L27.6641,14.5606 Z"
          id="Fill-13"
        />
                <path
          d="M34.6982,9.3751 C34.6982,10.4041 34.9422,11.1911 35.4302,11.7381 C35.9192,12.2851 36.5212,12.5591 37.2372,12.5591 C37.9532,12.5591 38.5532,12.2851 39.0392,11.7381 C39.5242,11.1911 39.7662,10.3971 39.7662,9.3551 C39.7662,8.3401 39.5242,7.5591 39.0392,7.0121 C38.5532,6.4651 37.9532,6.1911 37.2372,6.1911 C36.5212,6.1911 35.9192,6.4651 35.4302,7.0121 C34.9422,7.5591 34.6982,8.3471 34.6982,9.3751 M31.8852,9.2291 C31.8852,8.3171 32.1102,7.4361 32.5592,6.5821 C33.0092,5.7291 33.6452,5.0781 34.4692,4.6291 C35.2922,4.1801 36.2122,3.9551 37.2272,3.9551 C38.7972,3.9551 40.0822,4.4651 41.0852,5.4831 C42.0882,6.5031 42.5892,7.7901 42.5892,9.3461 C42.5892,10.9151 42.0832,12.2161 41.0702,13.2471 C40.0572,14.2791 38.7832,14.7951 37.2472,14.7951 C36.2972,14.7951 35.3892,14.5801 34.5272,14.1501 C33.6652,13.7211 33.0092,13.0911 32.5592,12.2611 C32.1102,11.4311 31.8852,10.4201 31.8852,9.2291"
          id="Fill-14"
        />
                <path
          d="M47.0742,9.1993 C47.0742,10.3653 47.3052,11.2253 47.7672,11.7823 C48.2292,12.3393 48.7932,12.6173 49.4572,12.6173 C50.0952,12.6173 50.6262,12.3623 51.0492,11.8503 C51.4712,11.3403 51.6832,10.5023 51.6832,9.3363 C51.6832,8.2493 51.4662,7.4413 51.0292,6.9143 C50.5932,6.3863 50.0532,6.1233 49.4082,6.1233 C48.7372,6.1233 48.1802,6.3823 47.7382,6.8993 C47.2962,7.4173 47.0742,8.1833 47.0742,9.1993 L47.0742,9.1993 Z M44.3592,4.1893 L46.9182,4.1893 L46.9182,5.7133 C47.2502,5.1923 47.6992,4.7693 48.2652,4.4433 C48.8322,4.1183 49.4602,3.9553 50.1502,3.9553 C51.3542,3.9553 52.3772,4.4283 53.2172,5.3713 C54.0562,6.3153 54.4762,7.6313 54.4762,9.3163 C54.4762,11.0493 54.0532,12.3943 53.2072,13.3543 C52.3602,14.3153 51.3352,14.7953 50.1312,14.7953 C49.5572,14.7953 49.0392,14.6813 48.5732,14.4533 C48.1072,14.2253 47.6182,13.8353 47.1032,13.2813 L47.1032,18.5063 L44.3592,18.5063 L44.3592,4.1893 Z"
          id="Fill-15"
        />
                <path
          d="M61.6219,2.354 L63.9849,2.354 L63.9849,3.73034936e-14 L61.6219,3.73034936e-14 L61.6219,2.354 Z M62.2759,9.58 C61.9249,9.697 61.3679,9.838 60.6069,10 C59.8449,10.163 59.3469,10.322 59.1119,10.479 C58.7539,10.732 58.5749,11.055 58.5749,11.445 C58.5749,11.83 58.7189,12.162 59.0049,12.441 C59.2909,12.722 59.6559,12.861 60.0989,12.861 C60.5939,12.861 61.0659,12.699 61.5149,12.373 C61.8469,12.126 62.0649,11.823 62.1689,11.465 C62.2399,11.231 62.2759,10.785 62.2759,10.127 L62.2759,9.58 Z M57.4229,2.354 L59.7769,2.354 L59.7769,3.73034936e-14 L57.4229,3.73034936e-14 L57.4229,2.354 Z M58.6049,7.354 L56.1139,6.904 C56.3949,5.902 56.8759,5.16 57.5599,4.678 C58.2429,4.196 59.2589,3.955 60.6069,3.955 C61.8299,3.955 62.7419,4.101 63.3409,4.39 C63.9399,4.68 64.3609,5.048 64.6059,5.493 C64.8499,5.94 64.9719,6.758 64.9719,7.949 L64.9419,11.152 C64.9419,12.065 64.9859,12.736 65.0739,13.169 C65.1619,13.603 65.3259,14.066 65.5669,14.561 L62.8529,14.561 C62.7809,14.379 62.6929,14.108 62.5889,13.75 C62.5429,13.588 62.5109,13.481 62.4909,13.428 C62.0229,13.884 61.5219,14.226 60.9869,14.453 C60.4529,14.682 59.8839,14.795 59.2779,14.795 C58.2109,14.795 57.3689,14.506 56.7539,13.926 C56.1389,13.347 55.8309,12.614 55.8309,11.729 C55.8309,11.143 55.9709,10.62 56.2509,10.161 C56.5309,9.702 56.9229,9.351 57.4279,9.107 C57.9329,8.862 58.6599,8.649 59.6099,8.467 C60.8929,8.227 61.7809,8.002 62.2759,7.793 L62.2759,7.52 C62.2759,6.992 62.1469,6.616 61.8859,6.392 C61.6249,6.167 61.1339,6.055 60.4109,6.055 C59.9229,6.055 59.5419,6.151 59.2689,6.343 C58.9949,6.535 58.7739,6.872 58.6049,7.354 L58.6049,7.354 Z"
          id="Fill-16"
        />
                <path
          d="M67.8769,14.561 L70.6209,14.561 L70.6209,4.19 L67.8769,4.19 L67.8769,14.561 Z M67.8769,2.783 L70.6209,2.783 L70.6209,0.244 L67.8769,0.244 L67.8769,2.783 Z"
          id="Fill-17"
        />
                <path
          d="M72.667,11.6016 L75.421,11.1816 C75.538,11.7156 75.775,12.1216 76.134,12.3976 C76.492,12.6746 76.993,12.8126 77.638,12.8126 C78.348,12.8126 78.881,12.6826 79.239,12.4216 C79.48,12.2406 79.601,11.9966 79.601,11.6896 C79.601,11.4816 79.535,11.3086 79.405,11.1716 C79.269,11.0416 78.963,10.9216 78.487,10.8106 C76.273,10.3226 74.871,9.8766 74.278,9.4726 C73.458,8.9136 73.048,8.1346 73.048,7.1386 C73.048,6.2406 73.402,5.4856 74.112,4.8726 C74.822,4.2616 75.922,3.9556 77.413,3.9556 C78.832,3.9556 79.887,4.1866 80.577,4.6486 C81.268,5.1116 81.742,5.7946 82.003,6.6996 L79.415,7.1776 C79.305,6.7746 79.095,6.4646 78.785,6.2496 C78.476,6.0356 78.035,5.9276 77.462,5.9276 C76.739,5.9276 76.222,6.0296 75.909,6.2306 C75.701,6.3736 75.597,6.5596 75.597,6.7876 C75.597,6.9826 75.688,7.1486 75.87,7.2856 C76.117,7.4676 76.972,7.7246 78.434,8.0566 C79.896,8.3886 80.916,8.7956 81.495,9.2776 C82.068,9.7656 82.355,10.4466 82.355,11.3186 C82.355,12.2696 81.957,13.0856 81.163,13.7696 C80.369,14.4536 79.193,14.7946 77.638,14.7946 C76.225,14.7946 75.106,14.5086 74.283,13.9356 C73.46,13.3636 72.921,12.5846 72.667,11.6016"
          id="Fill-18"
        />
                <path
          d="M93.5,7.2559 L90.795,7.7439 C90.704,7.2039 90.497,6.7969 90.175,6.5239 C89.853,6.2499 89.435,6.1129 88.92,6.1129 C88.236,6.1129 87.691,6.3499 87.284,6.8209 C86.877,7.2939 86.674,8.0829 86.674,9.1899 C86.674,10.4199 86.881,11.2889 87.294,11.7969 C87.707,12.3049 88.263,12.5589 88.959,12.5589 C89.479,12.5589 89.906,12.4109 90.238,12.1139 C90.57,11.8179 90.805,11.3089 90.941,10.5859 L93.637,11.0449 C93.356,12.2819 92.819,13.2169 92.025,13.8479 C91.231,14.4799 90.167,14.7949 88.832,14.7949 C87.315,14.7949 86.105,14.3169 85.204,13.3599 C84.303,12.4019 83.852,11.0779 83.852,9.3849 C83.852,7.6729 84.304,6.3399 85.209,5.3859 C86.114,4.4329 87.338,3.9549 88.881,3.9549 C90.144,3.9549 91.148,4.2279 91.894,4.7709 C92.639,5.3149 93.175,6.1429 93.5,7.2559"
          id="Fill-19"
        />
                <path
          d="M98.0136,0.2442 L98.0136,5.5082 C98.8996,4.4732 99.9566,3.9552 101.1876,3.9552 C101.8196,3.9552 102.3886,4.0722 102.8966,4.3062 C103.4046,4.5412 103.7866,4.8412 104.0436,5.2052 C104.3006,5.5702 104.4766,5.9732 104.5716,6.4162 C104.6656,6.8592 104.7126,7.5462 104.7126,8.4762 L104.7126,14.5602 L101.9686,14.5602 L101.9686,9.0822 C101.9686,7.9952 101.9166,7.3052 101.8126,7.0122 C101.7076,6.7192 101.5246,6.4862 101.2606,6.3132 C100.9966,6.1412 100.6666,6.0552 100.2696,6.0552 C99.8136,6.0552 99.4076,6.1662 99.0486,6.3872 C98.6906,6.6082 98.4286,6.9422 98.2626,7.3882 C98.0966,7.8342 98.0136,8.4932 98.0136,9.3652 L98.0136,14.5602 L95.2696,14.5602 L95.2696,0.2442 L98.0136,0.2442 Z"
          id="Fill-20"
        />
                <path
          d="M113.5586,8.4864 C113.5386,7.6924 113.3336,7.0894 112.9436,6.6744 C112.5526,6.2614 112.0776,6.0544 111.5176,6.0544 C110.9186,6.0544 110.4236,6.2734 110.0336,6.7094 C109.6426,7.1454 109.4506,7.7384 109.4566,8.4864 L113.5586,8.4864 Z M113.4026,11.2594 L116.1366,11.7184 C115.7856,12.7214 115.2306,13.4854 114.4716,14.0084 C113.7126,14.5334 112.7646,14.7954 111.6246,14.7954 C109.8216,14.7954 108.4876,14.2064 107.6216,13.0274 C106.9376,12.0844 106.5956,10.8924 106.5956,9.4534 C106.5956,7.7344 107.0446,6.3884 107.9436,5.4154 C108.8416,4.4424 109.9776,3.9554 111.3516,3.9554 C112.8946,3.9554 114.1126,4.4654 115.0036,5.4834 C115.8956,6.5034 116.3226,8.0634 116.2836,10.1664 L109.4086,10.1664 C109.4276,10.9804 109.6496,11.6134 110.0726,12.0654 C110.4956,12.5184 111.0226,12.7444 111.6546,12.7444 C112.0836,12.7444 112.4456,12.6274 112.7386,12.3924 C113.0316,12.1584 113.2526,11.7814 113.4026,11.2594 L113.4026,11.2594 Z"
          id="Fill-21"
        />
            </g>
        </g>
    </g>
</svg>
