<svg
  width="219"
  height="44"
  viewBox="0 0 219 44"
  fill="none"
  xmlns="http://www.w3.org/2000/svg"
>
<g id="Emblem type=standard_version, Positive/Negative=positive, Language=NO">
<g id="EU-emblem_standard">
<g id="Flag">
<g id="EU_flag">
<rect
            id="&#240;&#159;&#140;&#136; flag"
            width="66"
            height="44"
            fill="#003399"
          />
<path
            id="&#240;&#159;&#140;&#136; stars"
            fill-rule="evenodd"
            clip-rule="evenodd"
            d="M30.745 7.15L32.1383 8.1675L31.6067 9.82667L33 8.8L34.3933 9.82667L33.8617 8.1675L35.255 7.15H33.5317L33 5.5L32.4683 7.15H30.745ZM34.3933 38.5L33.8617 36.85L35.255 35.8325H33.5317L33 34.1733L32.4683 35.8325H30.745L32.1383 36.85L31.6067 38.5L33 37.4825L34.3933 38.5ZM18.755 23.1L17.3617 24.1267L17.8933 22.4767L16.5 21.4867H18.2233L18.755 19.8367L19.2867 21.4867H21.0192L19.6167 22.5133L20.1483 24.1633L18.755 23.1367V23.1ZM27.2708 11.7333L26.7392 10.0833L28.1325 9.075H26.4092L25.8775 7.425L25.3458 9.075H23.6225L25.0158 10.0925L24.4842 11.7425L25.8775 10.725L27.2708 11.7333ZM20.1667 14.3183L20.6983 12.6683L21.2392 14.3183H22.9167L21.5233 15.345L22.055 16.995L20.6525 15.9683L19.25 16.995L19.7817 15.345L18.3883 14.3183H20.1667ZM20.6983 27.005L20.1667 28.655H18.4067H18.3883L19.7817 29.6817L19.25 31.3317L20.6525 30.3142L22.055 31.3317L21.5233 29.6817L22.9167 28.655H21.2392L20.6983 27.005ZM25.0158 34.925L23.6225 33.9167H25.3458L25.8775 32.2667L26.4092 33.9167H28.1325L26.7392 34.925L27.2708 36.575L25.8775 35.5575L24.4842 36.575L25.0158 34.925ZM48.6383 24.1633L48.1067 22.5133L49.5 21.4867H47.8133L47.2817 19.8367L46.75 21.4867H44.9625L46.365 22.5133L45.8333 24.1633L47.245 23.1367L48.6383 24.1633ZM39.2608 10.0833L37.8675 9.075H39.5908L40.1225 7.425L40.6542 9.075H42.3775L40.9842 10.0833L41.5158 11.7333L40.1225 10.725L38.7292 11.7425L39.2608 10.0925V10.0833ZM45.3017 12.6592L44.7608 14.3092L43.0833 14.3183L44.4675 15.345L43.9358 16.995L45.3383 15.9683L46.7317 16.995L46.2 15.345L47.5567 14.3092H45.8333L45.3017 12.6592ZM45.8792 28.655H47.5567L46.2 29.6817L46.7317 31.3317L45.3383 30.3142L43.9358 31.3317L44.4675 29.6817L43.0833 28.655H44.8067L45.3475 27.005L45.8792 28.655ZM40.9842 34.925L42.3775 33.9167H40.6542L40.1225 32.2667L39.5908 33.9167H37.8675L39.2608 34.925L38.7292 36.575L40.1225 35.5575L41.5158 36.575L40.9842 34.925Z"
            fill="#FFCC00"
          />
</g>
</g>
</g>
<g id="europeiske">
<path
        d="M82.6963 16.0293L85.1572 16.4424C84.8408 17.3447 84.3398 18.0332 83.6543 18.5078C82.9746 18.9766 82.1221 19.2109 81.0967 19.2109C79.4736 19.2109 78.2725 18.6807 77.4932 17.6201C76.8779 16.7705 76.5703 15.6982 76.5703 14.4033C76.5703 12.8564 76.9746 11.6465 77.7832 10.7734C78.5918 9.89453 79.6143 9.45508 80.8506 9.45508C82.2393 9.45508 83.335 9.91504 84.1377 10.835C84.9404 11.749 85.3242 13.1523 85.2891 15.0449H79.1016C79.1191 15.7773 79.3184 16.3486 79.6992 16.7588C80.0801 17.1631 80.5547 17.3652 81.123 17.3652C81.5098 17.3652 81.835 17.2598 82.0986 17.0488C82.3623 16.8379 82.5615 16.498 82.6963 16.0293ZM82.8369 13.5332C82.8193 12.8184 82.6348 12.2764 82.2832 11.9072C81.9316 11.5322 81.5039 11.3447 81 11.3447C80.4609 11.3447 80.0156 11.541 79.6641 11.9336C79.3125 12.3262 79.1396 12.8594 79.1455 13.5332H82.8369Z"
        fill="#515560"
      />
<path
        d="M93.4541 19V17.6025C93.1143 18.1006 92.666 18.4932 92.1094 18.7803C91.5586 19.0674 90.9756 19.2109 90.3604 19.2109C89.7334 19.2109 89.1709 19.0732 88.6729 18.7979C88.1748 18.5225 87.8145 18.1357 87.5918 17.6377C87.3691 17.1396 87.2578 16.4512 87.2578 15.5723V9.66602H89.7275V13.9551C89.7275 15.2676 89.7715 16.0732 89.8594 16.3721C89.9531 16.665 90.1201 16.8994 90.3604 17.0752C90.6006 17.2451 90.9053 17.3301 91.2744 17.3301C91.6963 17.3301 92.0742 17.2158 92.4082 16.9873C92.7422 16.7529 92.9707 16.4658 93.0938 16.126C93.2168 15.7803 93.2783 14.9395 93.2783 13.6035V9.66602H95.748V19H93.4541Z"
        fill="#515560"
      />
<path
        d="M100.679 19H98.209V9.66602H100.503V10.9932C100.896 10.3662 101.247 9.95312 101.558 9.75391C101.874 9.55469 102.231 9.45508 102.63 9.45508C103.192 9.45508 103.734 9.61035 104.256 9.9209L103.491 12.0742C103.075 11.8047 102.688 11.6699 102.331 11.6699C101.985 11.6699 101.692 11.7666 101.452 11.96C101.212 12.1475 101.021 12.4902 100.881 12.9883C100.746 13.4863 100.679 14.5293 100.679 16.1172V19Z"
        fill="#515560"
      />
<path
        d="M104.757 14.2012C104.757 13.3809 104.959 12.5869 105.363 11.8193C105.768 11.0518 106.339 10.4658 107.077 10.0615C107.821 9.65723 108.65 9.45508 109.564 9.45508C110.977 9.45508 112.134 9.91504 113.036 10.835C113.938 11.749 114.39 12.9062 114.39 14.3066C114.39 15.7188 113.933 16.8906 113.019 17.8223C112.11 18.748 110.965 19.2109 109.582 19.2109C108.727 19.2109 107.909 19.0176 107.13 18.6309C106.356 18.2441 105.768 17.6787 105.363 16.9346C104.959 16.1846 104.757 15.2734 104.757 14.2012ZM107.288 14.333C107.288 15.2588 107.508 15.9678 107.947 16.46C108.387 16.9521 108.929 17.1982 109.573 17.1982C110.218 17.1982 110.757 16.9521 111.19 16.46C111.63 15.9678 111.85 15.2529 111.85 14.3154C111.85 13.4014 111.63 12.6982 111.19 12.2061C110.757 11.7139 110.218 11.4678 109.573 11.4678C108.929 11.4678 108.387 11.7139 107.947 12.2061C107.508 12.6982 107.288 13.4072 107.288 14.333Z"
        fill="#515560"
      />
<path
        d="M116.262 9.66602H118.564V11.0371C118.863 10.5684 119.268 10.1875 119.777 9.89453C120.287 9.60156 120.853 9.45508 121.474 9.45508C122.558 9.45508 123.478 9.87988 124.233 10.7295C124.989 11.5791 125.367 12.7627 125.367 14.2803C125.367 15.8389 124.986 17.0518 124.225 17.9189C123.463 18.7803 122.54 19.2109 121.456 19.2109C120.94 19.2109 120.472 19.1084 120.05 18.9033C119.634 18.6982 119.194 18.3467 118.731 17.8486V22.5508H116.262V9.66602ZM118.705 14.1748C118.705 15.2236 118.913 16 119.329 16.5039C119.745 17.002 120.252 17.251 120.85 17.251C121.424 17.251 121.901 17.0225 122.282 16.5654C122.663 16.1025 122.854 15.3467 122.854 14.2979C122.854 13.3193 122.657 12.5928 122.265 12.1182C121.872 11.6436 121.386 11.4062 120.806 11.4062C120.202 11.4062 119.701 11.6406 119.303 12.1094C118.904 12.5723 118.705 13.2607 118.705 14.1748Z"
        fill="#515560"
      />
<path
        d="M132.741 16.0293L135.202 16.4424C134.886 17.3447 134.385 18.0332 133.699 18.5078C133.02 18.9766 132.167 19.2109 131.142 19.2109C129.519 19.2109 128.317 18.6807 127.538 17.6201C126.923 16.7705 126.615 15.6982 126.615 14.4033C126.615 12.8564 127.02 11.6465 127.828 10.7734C128.637 9.89453 129.659 9.45508 130.896 9.45508C132.284 9.45508 133.38 9.91504 134.183 10.835C134.985 11.749 135.369 13.1523 135.334 15.0449H129.146C129.164 15.7773 129.363 16.3486 129.744 16.7588C130.125 17.1631 130.6 17.3652 131.168 17.3652C131.555 17.3652 131.88 17.2598 132.144 17.0488C132.407 16.8379 132.606 16.498 132.741 16.0293ZM132.882 13.5332C132.864 12.8184 132.68 12.2764 132.328 11.9072C131.977 11.5322 131.549 11.3447 131.045 11.3447C130.506 11.3447 130.061 11.541 129.709 11.9336C129.357 12.3262 129.185 12.8594 129.19 13.5332H132.882Z"
        fill="#515560"
      />
<path
        d="M137.355 8.40039V6.11523H139.825V8.40039H137.355ZM137.355 19V9.66602H139.825V19H137.355Z"
        fill="#515560"
      />
<path
        d="M141.495 16.3369L143.974 15.959C144.079 16.4395 144.293 16.8057 144.615 17.0576C144.938 17.3037 145.389 17.4268 145.969 17.4268C146.607 17.4268 147.088 17.3096 147.41 17.0752C147.627 16.9111 147.735 16.6914 147.735 16.416C147.735 16.2285 147.677 16.0732 147.56 15.9502C147.437 15.833 147.161 15.7246 146.733 15.625C144.741 15.1855 143.479 14.7842 142.945 14.4209C142.207 13.917 141.838 13.2168 141.838 12.3203C141.838 11.5117 142.157 10.832 142.796 10.2812C143.435 9.73047 144.425 9.45508 145.767 9.45508C147.044 9.45508 147.993 9.66309 148.614 10.0791C149.235 10.4951 149.663 11.1104 149.897 11.9248L147.568 12.3555C147.469 11.9922 147.278 11.7139 146.997 11.5205C146.722 11.3271 146.326 11.2305 145.811 11.2305C145.16 11.2305 144.694 11.3213 144.413 11.5029C144.226 11.6318 144.132 11.7988 144.132 12.0039C144.132 12.1797 144.214 12.3291 144.378 12.4521C144.601 12.6162 145.368 12.8477 146.681 13.1465C147.999 13.4453 148.919 13.8115 149.44 14.2451C149.956 14.6846 150.214 15.2969 150.214 16.082C150.214 16.9375 149.856 17.6729 149.142 18.2881C148.427 18.9033 147.369 19.2109 145.969 19.2109C144.697 19.2109 143.689 18.9531 142.945 18.4375C142.207 17.9219 141.724 17.2217 141.495 16.3369Z"
        fill="#515560"
      />
<path
        d="M152.297 19V6.11523H154.767V12.9531L157.658 9.66602H160.699L157.509 13.0762L160.928 19H158.265L155.918 14.8076L154.767 16.0117V19H152.297Z"
        fill="#515560"
      />
<path
        d="M167.81 16.0293L170.271 16.4424C169.954 17.3447 169.453 18.0332 168.768 18.5078C168.088 18.9766 167.235 19.2109 166.21 19.2109C164.587 19.2109 163.386 18.6807 162.606 17.6201C161.991 16.7705 161.684 15.6982 161.684 14.4033C161.684 12.8564 162.088 11.6465 162.896 10.7734C163.705 9.89453 164.728 9.45508 165.964 9.45508C167.353 9.45508 168.448 9.91504 169.251 10.835C170.054 11.749 170.438 13.1523 170.402 15.0449H164.215C164.232 15.7773 164.432 16.3486 164.812 16.7588C165.193 17.1631 165.668 17.3652 166.236 17.3652C166.623 17.3652 166.948 17.2598 167.212 17.0488C167.476 16.8379 167.675 16.498 167.81 16.0293ZM167.95 13.5332C167.933 12.8184 167.748 12.2764 167.396 11.9072C167.045 11.5322 166.617 11.3447 166.113 11.3447C165.574 11.3447 165.129 11.541 164.777 11.9336C164.426 12.3262 164.253 12.8594 164.259 13.5332H167.95Z"
        fill="#515560"
      />
</g>
<g id="union">
<path
        d="M83.4346 38V36.6025C83.0947 37.1006 82.6465 37.4932 82.0898 37.7803C81.5391 38.0674 80.9561 38.2109 80.3408 38.2109C79.7139 38.2109 79.1514 38.0732 78.6533 37.7979C78.1553 37.5225 77.7949 37.1357 77.5723 36.6377C77.3496 36.1396 77.2383 35.4512 77.2383 34.5723V28.666H79.708V32.9551C79.708 34.2676 79.752 35.0732 79.8398 35.3721C79.9336 35.665 80.1006 35.8994 80.3408 36.0752C80.5811 36.2451 80.8857 36.3301 81.2549 36.3301C81.6768 36.3301 82.0547 36.2158 82.3887 35.9873C82.7227 35.7529 82.9512 35.4658 83.0742 35.126C83.1973 34.7803 83.2588 33.9395 83.2588 32.6035V28.666H85.7285V38H83.4346Z"
        fill="#515560"
      />
<path
        d="M96.7852 38H94.3154V33.2363C94.3154 32.2285 94.2627 31.5781 94.1572 31.2852C94.0518 30.9863 93.8789 30.7549 93.6387 30.5908C93.4043 30.4268 93.1201 30.3447 92.7861 30.3447C92.3584 30.3447 91.9746 30.4619 91.6348 30.6963C91.2949 30.9307 91.0605 31.2412 90.9316 31.6279C90.8086 32.0146 90.7471 32.7295 90.7471 33.7725V38H88.2773V28.666H90.5713V30.0371C91.3857 28.9824 92.4111 28.4551 93.6475 28.4551C94.1924 28.4551 94.6904 28.5547 95.1416 28.7539C95.5928 28.9473 95.9326 29.1963 96.1611 29.501C96.3955 29.8057 96.5566 30.1514 96.6445 30.5381C96.7383 30.9248 96.7852 31.4785 96.7852 32.1992V38Z"
        fill="#515560"
      />
<path
        d="M99.2988 27.4004V25.1152H101.769V27.4004H99.2988ZM99.2988 38V28.666H101.769V38H99.2988Z"
        fill="#515560"
      />
<path
        d="M103.737 33.2012C103.737 32.3809 103.939 31.5869 104.344 30.8193C104.748 30.0518 105.319 29.4658 106.058 29.0615C106.802 28.6572 107.631 28.4551 108.545 28.4551C109.957 28.4551 111.114 28.915 112.017 29.835C112.919 30.749 113.37 31.9062 113.37 33.3066C113.37 34.7188 112.913 35.8906 111.999 36.8223C111.091 37.748 109.945 38.2109 108.562 38.2109C107.707 38.2109 106.89 38.0176 106.11 37.6309C105.337 37.2441 104.748 36.6787 104.344 35.9346C103.939 35.1846 103.737 34.2734 103.737 33.2012ZM106.269 33.333C106.269 34.2588 106.488 34.9678 106.928 35.46C107.367 35.9521 107.909 36.1982 108.554 36.1982C109.198 36.1982 109.737 35.9521 110.171 35.46C110.61 34.9678 110.83 34.2529 110.83 33.3154C110.83 32.4014 110.61 31.6982 110.171 31.2061C109.737 30.7139 109.198 30.4678 108.554 30.4678C107.909 30.4678 107.367 30.7139 106.928 31.2061C106.488 31.6982 106.269 32.4072 106.269 33.333Z"
        fill="#515560"
      />
<path
        d="M123.803 38H121.333V33.2363C121.333 32.2285 121.28 31.5781 121.175 31.2852C121.069 30.9863 120.896 30.7549 120.656 30.5908C120.422 30.4268 120.138 30.3447 119.804 30.3447C119.376 30.3447 118.992 30.4619 118.652 30.6963C118.312 30.9307 118.078 31.2412 117.949 31.6279C117.826 32.0146 117.765 32.7295 117.765 33.7725V38H115.295V28.666H117.589V30.0371C118.403 28.9824 119.429 28.4551 120.665 28.4551C121.21 28.4551 121.708 28.5547 122.159 28.7539C122.61 28.9473 122.95 29.1963 123.179 29.501C123.413 29.8057 123.574 30.1514 123.662 30.5381C123.756 30.9248 123.803 31.4785 123.803 32.1992V38Z"
        fill="#515560"
      />
</g>
</g>
</svg>
