<?xml version="1.0" encoding="UTF-8" ?>
<svg
  width="161px"
  height="48px"
  viewBox="0 0 161 48"
  version="1.1"
  xmlns="http://www.w3.org/2000/svg"
  xmlns:xlink="http://www.w3.org/1999/xlink"
>
    <!-- Generator: Sketch 64 (93537) - https://sketch.com -->
    <title>EU/EU-emblem/standard-version/positive/ES</title>
    <desc>Created with Sketch.</desc>
    <g
    id="EU/EU-emblem/standard-version/positive/ES"
    stroke="none"
    stroke-width="1"
    fill="none"
    fill-rule="evenodd"
  >
        <g id="EU-emblem_standard">
            <g id="EU/EU-emblem/flag/flag-positive">
                <g id="EU_flag">
                    <rect
            id="🌈-flag"
            fill="#003399"
            fill-rule="nonzero"
            x="0"
            y="0"
            width="72"
            height="48"
          />
                    <path
            d="M35.06,8.91 L33.54,7.8 L35.42,7.8 L36,6 L36.58,7.8 L38.46,7.8 L36.94,8.91 L37.52,10.72 L36,9.6 L34.48,10.72 L35.06,8.91 L35.06,8.91 Z M36.94,40.2 L37.52,42 L36,40.89 L34.48,42 L35.06,40.2 L33.54,39.09 L35.42,39.09 L36,37.28 L36.58,39.09 L38.46,39.09 L36.94,40.2 Z M20.46,25.2 L18.94,26.32 L19.52,24.52 L18,23.44 L19.88,23.44 L20.46,21.64 L21.04,23.44 L22.93,23.44 L21.4,24.56 L21.98,26.36 L20.46,25.24 L20.46,25.2 Z M29.17,11 L29.75,12.8 L28.23,11.7 L26.71,12.81 L27.29,11.01 L25.77,9.9 L27.65,9.9 L28.23,8.1 L28.81,9.9 L30.69,9.9 L29.17,11 Z M22,15.62 L22.58,13.82 L23.17,15.62 L25,15.62 L23.48,16.74 L24.06,18.54 L22.53,17.42 L21,18.54 L21.58,16.74 L20.06,15.62 L22,15.62 Z M20.08,31.26 L22,31.26 L22.58,29.46 L23.17,31.26 L25,31.26 L23.48,32.38 L24.06,34.18 L22.53,33.07 L21,34.18 L21.58,32.38 L20.06,31.26 L20.08,31.26 Z M27.29,38.1 L25.77,37 L27.65,37 L28.23,35.2 L28.81,37 L30.69,37 L29.17,38.1 L29.75,39.9 L28.23,38.79 L26.71,39.9 L27.29,38.1 Z M52.48,24.56 L53.06,26.36 L51.54,25.24 L50,26.36 L50.58,24.56 L49.05,23.44 L51,23.44 L51.58,21.64 L52.16,23.44 L54,23.44 L52.48,24.56 Z M42.83,11 L41.31,9.9 L43.19,9.9 L43.77,8.1 L44.35,9.9 L46.23,9.9 L44.71,11 L45.29,12.8 L43.77,11.7 L42.25,12.81 L42.83,11.01 L42.83,11 Z M48.83,15.61 L49.42,13.81 L50,15.61 L51.88,15.61 L50.4,16.74 L50.98,18.54 L49.46,17.42 L47.93,18.54 L48.51,16.74 L47,15.62 L48.83,15.61 Z M50,31.26 L51.88,31.26 L50.4,32.38 L50.98,34.18 L49.46,33.07 L47.93,34.18 L48.51,32.38 L47,31.26 L48.88,31.26 L49.47,29.46 L50.05,31.26 L50,31.26 Z M46.23,37 L44.71,38.1 L45.29,39.9 L43.77,38.79 L42.25,39.9 L42.83,38.1 L41.31,37 L43.19,37 L43.77,35.2 L44.35,37 L46.23,37 Z"
            id="🌈-stars"
            fill="#FFCC00"
            fill-rule="nonzero"
          />
                </g>
            </g>
            <g
        id="🌈-Europea"
        transform="translate(84.000000, 27.689900)"
        fill="#515560"
      >
                <polygon
          id="Fill-3"
          points="-3.90798505e-13 14.316 -3.90798505e-13 -9.9475983e-14 10.615 -9.9475983e-14 10.615 2.421 2.891 2.421 2.891 5.595 10.078 5.595 10.078 8.007 2.891 8.007 2.891 11.904 10.889 11.904 10.889 14.316"
        />
                <path
          d="M19.8662,14.316 L19.8662,12.763 C19.4882,13.316 18.9922,13.753 18.3772,14.072 C17.7622,14.391 17.1122,14.55 16.4282,14.55 C15.7322,14.55 15.1072,14.398 14.5542,14.091 C14.0002,13.785 13.5992,13.356 13.3522,12.802 C13.1052,12.249 12.9812,11.484 12.9812,10.507 L12.9812,3.945 L15.7252,3.945 L15.7252,8.711 C15.7252,10.169 15.7762,11.063 15.8772,11.391 C15.9772,11.72 16.1622,11.981 16.4282,12.172 C16.6952,12.364 17.0342,12.461 17.4442,12.461 C17.9132,12.461 18.3332,12.332 18.7042,12.075 C19.0752,11.817 19.3292,11.499 19.4662,11.118 C19.6022,10.737 19.6712,9.804 19.6712,8.32 L19.6712,3.945 L22.4152,3.945 L22.4152,14.316 L19.8662,14.316 Z"
          id="Fill-4"
        />
                <path
          d="M27.584,14.316 L24.84,14.316 L24.84,3.945 L27.389,3.945 L27.389,5.42 C27.825,4.723 28.217,4.264 28.565,4.043 C28.914,3.821 29.31,3.711 29.752,3.711 C30.377,3.711 30.98,3.883 31.559,4.228 L30.709,6.621 C30.247,6.321 29.817,6.171 29.42,6.171 C29.036,6.171 28.71,6.277 28.443,6.489 C28.177,6.7 27.967,7.083 27.813,7.636 C27.66,8.19 27.584,9.349 27.584,11.113 L27.584,14.316 Z"
          id="Fill-6"
        />
                <path
          d="M34.6182,9.1304 C34.6182,10.1594 34.8622,10.9464 35.3502,11.4934 C35.8392,12.0404 36.4412,12.3144 37.1572,12.3144 C37.8732,12.3144 38.4732,12.0404 38.9592,11.4934 C39.4442,10.9464 39.6862,10.1524 39.6862,9.1104 C39.6862,8.0954 39.4442,7.3144 38.9592,6.7674 C38.4732,6.2204 37.8732,5.9464 37.1572,5.9464 C36.4412,5.9464 35.8392,6.2204 35.3502,6.7674 C34.8622,7.3144 34.6182,8.1014 34.6182,9.1304 M31.8052,8.9844 C31.8052,8.0724 32.0302,7.1904 32.4792,6.3374 C32.9292,5.4844 33.5652,4.8334 34.3892,4.3844 C35.2122,3.9354 36.1322,3.7104 37.1472,3.7104 C38.7172,3.7104 40.0022,4.2194 41.0052,5.2384 C42.0082,6.2574 42.5092,7.5454 42.5092,9.1014 C42.5092,10.6704 42.0032,11.9704 40.9902,13.0024 C39.9772,14.0344 38.7032,14.5504 37.1672,14.5504 C36.2172,14.5504 35.3092,14.3354 34.4472,13.9054 C33.5852,13.4764 32.9292,12.8464 32.4792,12.0164 C32.0302,11.1864 31.8052,10.1754 31.8052,8.9844"
          id="Fill-8"
        />
                <path
          d="M46.9541,8.9546 C46.9541,10.1206 47.1851,10.9806 47.6471,11.5376 C48.1091,12.0946 48.6731,12.3726 49.3371,12.3726 C49.9751,12.3726 50.5061,12.1176 50.9291,11.6056 C51.3511,11.0946 51.5631,10.2566 51.5631,9.0916 C51.5631,8.0036 51.3461,7.1966 50.9091,6.6696 C50.4731,6.1416 49.9331,5.8786 49.2881,5.8786 C48.6171,5.8786 48.0601,6.1376 47.6181,6.6546 C47.1761,7.1726 46.9541,7.9386 46.9541,8.9546 L46.9541,8.9546 Z M44.2391,3.9446 L46.7981,3.9446 L46.7981,5.4686 C47.1301,4.9476 47.5791,4.5246 48.1451,4.1986 C48.7121,3.8726 49.3401,3.7106 50.0301,3.7106 C51.2341,3.7106 52.2571,4.1826 53.0971,5.1266 C53.9361,6.0706 54.3561,7.3856 54.3561,9.0716 C54.3561,10.8036 53.9331,12.1496 53.0871,13.1096 C52.2401,14.0706 51.2151,14.5506 50.0111,14.5506 C49.4371,14.5506 48.9191,14.4366 48.4531,14.2086 C47.9871,13.9806 47.4981,13.5896 46.9831,13.0366 L46.9831,18.2616 L44.2391,18.2616 L44.2391,3.9446 Z"
          id="Fill-10"
        />
                <path
          d="M62.4961,8.2418 C62.4761,7.4478 62.2711,6.8438 61.8811,6.4298 C61.4901,6.0168 61.0151,5.8098 60.4551,5.8098 C59.8561,5.8098 59.3611,6.0288 58.9711,6.4648 C58.5801,6.9008 58.3881,7.4928 58.3941,8.2418 L62.4961,8.2418 Z M62.3401,11.0148 L65.0741,11.4738 C64.7231,12.4768 64.1681,13.2408 63.4091,13.7638 C62.6501,14.2878 61.7021,14.5508 60.5621,14.5508 C58.7591,14.5508 57.4251,13.9608 56.5591,12.7828 C55.8751,11.8388 55.5331,10.6478 55.5331,9.2088 C55.5331,7.4898 55.9821,6.1438 56.8811,5.1708 C57.7791,4.1978 58.9151,3.7108 60.2891,3.7108 C61.8321,3.7108 63.0501,4.2198 63.9411,5.2388 C64.8331,6.2578 65.2601,7.8188 65.2211,9.9218 L58.3461,9.9218 C58.3651,10.7358 58.5871,11.3678 59.0101,11.8208 C59.4331,12.2738 59.9601,12.4998 60.5921,12.4998 C61.0211,12.4998 61.3831,12.3828 61.6761,12.1478 C61.9691,11.9138 62.1901,11.5358 62.3401,11.0148 L62.3401,11.0148 Z"
          id="Fill-12"
        />
                <path
          d="M73.1797,9.3355 C72.8277,9.4525 72.2717,9.5925 71.5097,9.7555 C70.7477,9.9185 70.2497,10.0775 70.0157,10.2335 C69.6577,10.4875 69.4787,10.8105 69.4787,11.2005 C69.4787,11.5855 69.6217,11.9175 69.9087,12.1965 C70.1947,12.4765 70.5597,12.6165 71.0017,12.6165 C71.4967,12.6165 71.9687,12.4545 72.4177,12.1285 C72.7497,11.8805 72.9677,11.5785 73.0727,11.2205 C73.1437,10.9855 73.1797,10.5405 73.1797,9.8825 L73.1797,9.3355 Z M69.5077,7.1085 L67.0177,6.6595 C67.2977,5.6575 67.7797,4.9155 68.4627,4.4335 C69.1467,3.9515 70.1617,3.7105 71.5097,3.7105 C72.7337,3.7105 73.6457,3.8555 74.2437,4.1455 C74.8427,4.4345 75.2647,4.8025 75.5087,5.2485 C75.7527,5.6945 75.8747,6.5135 75.8747,7.7045 L75.8457,10.9075 C75.8457,11.8195 75.8897,12.4915 75.9777,12.9245 C76.0657,13.3575 76.2297,13.8215 76.4707,14.3155 L73.7557,14.3155 C73.6847,14.1335 73.5967,13.8635 73.4917,13.5055 C73.4467,13.3425 73.4137,13.2355 73.3947,13.1835 C72.9257,13.6385 72.4247,13.9805 71.8907,14.2085 C71.3567,14.4365 70.7867,14.5505 70.1817,14.5505 C69.1147,14.5505 68.2727,14.2605 67.6577,13.6815 C67.0417,13.1015 66.7347,12.3695 66.7347,11.4835 C66.7347,10.8975 66.8737,10.3755 67.1547,9.9165 C67.4347,9.4575 67.8257,9.1065 68.3307,8.8615 C68.8357,8.6175 69.5637,8.4045 70.5137,8.2225 C71.7957,7.9815 72.6847,7.7565 73.1797,7.5485 L73.1797,7.2745 C73.1797,6.7475 73.0497,6.3715 72.7887,6.1475 C72.5287,5.9225 72.0367,5.8105 71.3147,5.8105 C70.8257,5.8105 70.4457,5.9065 70.1717,6.0985 C69.8987,6.2905 69.6767,6.6275 69.5077,7.1085 L69.5077,7.1085 Z"
          id="Fill-14"
        />
            </g>
            <g
        id="🌈-Unión"
        transform="translate(84.000000, 5.765100)"
        fill="#515560"
      >
                <path
          d="M-3.69482223e-13,0.2442 L2.891,0.2442 L2.891,7.9982 C2.891,9.2282 2.927,10.0262 2.998,10.3902 C3.122,10.9762 3.416,11.4472 3.882,11.8022 C4.348,12.1572 4.983,12.3342 5.791,12.3342 C6.611,12.3342 7.229,12.1662 7.646,11.8312 C8.063,11.4952 8.313,11.0842 8.398,10.5962 C8.483,10.1072 8.525,9.2972 8.525,8.1642 L8.525,0.2442 L11.416,0.2442 L11.416,7.7642 C11.416,9.4822 11.338,10.6972 11.182,11.4062 C11.025,12.1162 10.737,12.7152 10.317,13.2032 C9.897,13.6912 9.336,14.0802 8.633,14.3702 C7.93,14.6602 7.012,14.8052 5.879,14.8052 C4.512,14.8052 3.475,14.6472 2.769,14.3312 C2.063,14.0152 1.504,13.6052 1.094,13.1002 C0.684,12.5962 0.413,12.0672 0.283,11.5142 C0.095,10.6932 -3.69482223e-13,9.4822 -3.69482223e-13,7.8812 L-3.69482223e-13,0.2442 Z"
          id="Fill-16"
        />
                <path
          d="M23.2774,14.5606 L20.5334,14.5606 L20.5334,9.2676 C20.5334,8.1476 20.4744,7.4236 20.3574,7.0946 C20.2404,6.7666 20.0494,6.5106 19.7864,6.3286 C19.5224,6.1456 19.2054,6.0546 18.8344,6.0546 C18.3584,6.0546 17.9324,6.1846 17.5544,6.4456 C17.1764,6.7056 16.9184,7.0506 16.7784,7.4806 C16.6384,7.9106 16.5684,8.7046 16.5684,9.8636 L16.5684,14.5606 L13.8244,14.5606 L13.8244,4.1896 L16.3734,4.1896 L16.3734,5.7126 C17.2784,4.5406 18.4174,3.9556 19.7914,3.9556 C20.3964,3.9556 20.9504,4.0636 21.4514,4.2826 C21.9524,4.5006 22.3324,4.7786 22.5894,5.1176 C22.8454,5.4556 23.0254,5.8396 23.1264,6.2696 C23.2264,6.6996 23.2774,7.3146 23.2774,8.1156 L23.2774,14.5606 Z"
          id="Fill-18"
        />
                <path
          d="M25.5605,14.5609 L28.3045,14.5609 L28.3045,4.1899 L25.5605,4.1899 L25.5605,14.5609 Z M25.5605,2.7829 L28.3045,2.7829 L28.3045,0.2439 L25.5605,0.2439 L25.5605,2.7829 Z"
          id="Fill-20"
        />
                <path
          d="M33.9473,2.92 L35.2953,-7.81597009e-14 L38.3713,-7.81597009e-14 L35.6853,2.92 L33.9473,2.92 Z M32.7953,9.375 C32.7953,10.404 33.0393,11.191 33.5273,11.738 C34.0153,12.285 34.6183,12.559 35.3343,12.559 C36.0503,12.559 36.6503,12.285 37.1353,11.738 C37.6213,11.191 37.8633,10.397 37.8633,9.356 C37.8633,8.34 37.6213,7.559 37.1353,7.012 C36.6503,6.465 36.0503,6.191 35.3343,6.191 C34.6183,6.191 34.0153,6.465 33.5273,7.012 C33.0393,7.559 32.7953,8.346 32.7953,9.375 L32.7953,9.375 Z M29.9823,9.229 C29.9823,8.317 30.2073,7.435 30.6563,6.582 C31.1053,5.729 31.7423,5.078 32.5653,4.629 C33.3883,4.18 34.3083,3.955 35.3243,3.955 C36.8933,3.955 38.1783,4.464 39.1813,5.483 C40.1843,6.503 40.6853,7.79 40.6853,9.346 C40.6853,10.915 40.1793,12.215 39.1673,13.247 C38.1543,14.279 36.8803,14.795 35.3433,14.795 C34.3933,14.795 33.4863,14.58 32.6243,14.15 C31.7613,13.721 31.1053,13.091 30.6563,12.261 C30.2073,11.431 29.9823,10.42 29.9823,9.229 L29.9823,9.229 Z"
          id="Fill-22"
        />
                <path
          d="M51.9668,14.5606 L49.2228,14.5606 L49.2228,9.2676 C49.2228,8.1476 49.1638,7.4236 49.0468,7.0946 C48.9298,6.7666 48.7388,6.5106 48.4758,6.3286 C48.2118,6.1456 47.8948,6.0546 47.5238,6.0546 C47.0478,6.0546 46.6218,6.1846 46.2438,6.4456 C45.8658,6.7056 45.6078,7.0506 45.4678,7.4806 C45.3278,7.9106 45.2578,8.7046 45.2578,9.8636 L45.2578,14.5606 L42.5138,14.5606 L42.5138,4.1896 L45.0628,4.1896 L45.0628,5.7126 C45.9678,4.5406 47.1068,3.9556 48.4808,3.9556 C49.0858,3.9556 49.6398,4.0636 50.1408,4.2826 C50.6418,4.5006 51.0218,4.7786 51.2788,5.1176 C51.5348,5.4556 51.7148,5.8396 51.8158,6.2696 C51.9158,6.6996 51.9668,7.3146 51.9668,8.1156 L51.9668,14.5606 Z"
          id="Fill-23"
        />
            </g>
        </g>
    </g>
</svg>
