<svg
  width="219"
  height="44"
  viewBox="0 0 219 44"
  fill="none"
  xmlns="http://www.w3.org/2000/svg"
>
<rect width="66" height="44" fill="#003399" />
<path
    fill-rule="evenodd"
    clip-rule="evenodd"
    d="M30.745 7.15L32.1383 8.1675L31.6067 9.82667L33 8.8L34.3933 9.82667L33.8617 8.1675L35.255 7.15H33.5317L33 5.5L32.4683 7.15H30.745ZM34.3933 38.5L33.8617 36.85L35.255 35.8325H33.5317L33 34.1733L32.4683 35.8325H30.745L32.1383 36.85L31.6067 38.5L33 37.4825L34.3933 38.5ZM18.755 23.1L17.3617 24.1267L17.8933 22.4767L16.5 21.4867H18.2233L18.755 19.8367L19.2867 21.4867H21.0192L19.6167 22.5133L20.1483 24.1633L18.755 23.1367V23.1ZM27.2708 11.7333L26.7392 10.0833L28.1325 9.075H26.4092L25.8775 7.425L25.3458 9.075H23.6225L25.0158 10.0925L24.4842 11.7425L25.8775 10.725L27.2708 11.7333ZM20.1667 14.3183L20.6983 12.6683L21.2392 14.3183H22.9167L21.5233 15.345L22.055 16.995L20.6525 15.9683L19.25 16.995L19.7817 15.345L18.3883 14.3183H20.1667ZM20.6983 27.005L20.1667 28.655H18.4067H18.3883L19.7817 29.6817L19.25 31.3317L20.6525 30.3142L22.055 31.3317L21.5233 29.6817L22.9167 28.655H21.2392L20.6983 27.005ZM25.0158 34.925L23.6225 33.9167H25.3458L25.8775 32.2667L26.4092 33.9167H28.1325L26.7392 34.925L27.2708 36.575L25.8775 35.5575L24.4842 36.575L25.0158 34.925ZM48.6383 24.1633L48.1067 22.5133L49.5 21.4867H47.8133L47.2817 19.8367L46.75 21.4867H44.9625L46.365 22.5133L45.8333 24.1633L47.245 23.1367L48.6383 24.1633ZM39.2608 10.0833L37.8675 9.075H39.5908L40.1225 7.425L40.6542 9.075H42.3775L40.9842 10.0833L41.5158 11.7333L40.1225 10.725L38.7292 11.7425L39.2608 10.0925V10.0833ZM45.3017 12.6592L44.7608 14.3092L43.0833 14.3183L44.4675 15.345L43.9358 16.995L45.3383 15.9683L46.7317 16.995L46.2 15.345L47.5567 14.3092H45.8333L45.3017 12.6592ZM45.8792 28.655H47.5567L46.2 29.6817L46.7317 31.3317L45.3383 30.3142L43.9358 31.3317L44.4675 29.6817L43.0833 28.655H44.8067L45.3475 27.005L45.8792 28.655ZM40.9842 34.925L42.3775 33.9167H40.6542L40.1225 32.2667L39.5908 33.9167H37.8675L39.2608 34.925L38.7292 36.575L40.1225 35.5575L41.5158 36.575L40.9842 34.925Z"
    fill="#FFCC00"
  />
<path
    d="M107.183 14.8033C106.295 14.0833 104.519 13.0513 103.247 12.4033L101.951 14.0113C103.247 14.7553 104.975 15.8593 105.791 16.6033L107.183 14.8033ZM106.271 20.9953C105.335 20.3473 103.511 19.3633 102.215 18.7393L100.943 20.3713C102.287 21.0673 104.087 22.1233 104.951 22.8193L106.271 20.9953ZM103.415 33.8833C104.423 31.6513 105.575 28.8193 106.439 26.2993L104.615 25.1233C103.655 27.8593 102.359 30.8833 101.399 32.7313L103.415 33.8833ZM111.791 19.8433V12.7393H109.679V20.8753C109.679 21.9073 109.655 22.9153 109.607 23.9473C109.271 22.5073 108.695 20.7073 108.095 19.2673L106.487 19.8433C107.159 21.5953 107.855 23.9473 108.023 25.4833L109.511 24.9313C109.247 27.7873 108.503 30.5233 106.631 32.8753C107.207 33.1393 108.071 33.7633 108.503 34.1713C111.455 30.3793 111.791 25.5553 111.791 20.8753V20.3233C112.415 21.9313 112.991 23.8993 113.207 25.1953L114.815 24.5713C114.527 23.1793 113.855 20.9953 113.135 19.3393L111.791 19.8433ZM119.927 12.7153V23.2753C119.423 21.9313 118.631 20.2993 117.863 18.9793L116.903 19.4113V13.0993H114.839V33.5953H116.903V20.7313C117.671 22.2673 118.415 24.0433 118.727 25.2673L119.927 24.6913V34.1713H122.063V12.7153H119.927Z"
    fill="#515560"
  />
<path
    d="M139.607 16.0513C139.175 15.0433 138.191 13.5793 137.231 12.4993L135.431 13.3393C136.343 14.4673 137.303 16.0033 137.711 17.0593L139.607 16.0513ZM131.447 18.1393H128.255V15.1633H131.447V18.1393ZM128.255 24.8593H131.447V27.4033C130.367 27.5953 129.263 27.7633 128.255 27.9313V24.8593ZM131.447 23.0113H128.255V19.9873H131.447V23.0113ZM134.423 15.1633V13.1473H125.207V15.1633H126.335V28.2433C125.759 28.3153 125.255 28.3873 124.775 28.4593L125.111 30.5713C126.911 30.2113 129.167 29.8033 131.447 29.3713V34.1953H133.367V15.1633H134.423ZM146.903 25.1953V23.1793H141.215C141.287 22.4113 141.311 21.6433 141.311 21.0193V19.1233H146.303V17.0833H143.111C143.879 15.9313 144.719 14.4673 145.439 13.0993L143.159 12.4993C142.631 13.8913 141.695 15.7873 140.855 17.0833H134.807V19.1233H139.055V20.9713C139.055 21.5953 139.055 22.3633 138.983 23.1793H134.375V25.1953H138.671C138.143 27.6673 136.847 30.4273 133.727 32.7553C134.303 33.0913 135.095 33.7633 135.479 34.2193C138.935 31.4833 140.351 28.1233 140.927 25.1953H146.903ZM140.855 27.6673C142.559 29.6833 144.599 32.4433 145.511 34.1233L147.191 32.8033C146.255 31.1233 144.143 28.4593 142.415 26.5153L140.855 27.6673Z"
    fill="#515560"
  />
<path
    d="M167.303 14.6593V16.4593H162.359V14.6593H167.303ZM162.239 19.8673C162.311 19.2433 162.359 18.6193 162.359 18.0433H167.303V19.8673H162.239ZM167.303 21.4753V23.1073C167.303 23.4193 167.183 23.5153 166.847 23.5153C166.535 23.5153 165.455 23.5393 164.303 23.4913C164.615 23.9953 164.999 24.7873 165.119 25.3633C166.679 25.3633 167.807 25.3153 168.551 25.0033C169.271 24.6913 169.511 24.1633 169.511 23.1073V12.8833H160.319V17.7553C160.319 19.8673 160.055 22.4353 157.703 24.2113C158.159 24.4993 158.951 25.2433 159.263 25.6753C160.727 24.5473 161.519 23.0113 161.927 21.4753H167.303ZM156.191 15.0193V17.2033H152.447V15.0193H156.191ZM152.447 21.0913V18.9073H156.191V21.0913H152.447ZM152.447 22.8433H158.207V13.2673H150.407V24.0913H152.447V22.8433ZM153.935 27.7393H156.623V31.5793H153.935V27.7393ZM161.375 27.7393V31.5793H158.663V27.7393H161.375ZM166.151 27.7393V31.5793H163.415V27.7393H166.151ZM168.311 31.5793V25.9873H151.847V31.5793H149.063V33.5233H170.951V31.5793H168.311Z"
    fill="#515560"
  />
<path
    d="M80.112 19.4718C81.048 20.3358 82.032 21.3438 82.968 22.3758C82.2 24.1758 81.24 25.7598 80.112 26.9838V19.4718ZM93.96 18.1518H96.432C96.192 19.6158 95.88 21.1278 95.544 22.2318L97.176 23.1198C97.872 21.4398 98.472 18.8238 98.832 16.5438L97.32 15.9678L96.96 16.1118H91.224C91.512 14.8398 91.752 13.5198 91.944 12.1998L89.712 11.8398C89.232 15.6318 88.368 19.3518 86.808 21.6798C87.36 21.9678 88.272 22.7358 88.632 23.0958C89.472 21.7758 90.144 20.0718 90.696 18.1518H91.776V21.2478C91.8 23.0238 91.2 27.1758 88.2 30.2478V28.9758H80.112V27.0318C80.568 27.3678 81.408 28.0398 81.72 28.4238C82.752 27.2238 83.64 25.7598 84.408 24.1278C85.272 25.1838 85.968 26.1918 86.448 27.0558L87.864 25.3998C87.312 24.4158 86.376 23.2158 85.296 21.9918C85.968 20.2158 86.496 18.2958 86.904 16.2798L84.864 15.9438C84.576 17.4558 84.192 18.9198 83.736 20.2878C82.92 19.4478 82.08 18.6318 81.288 17.9118L80.112 19.2078V15.3918H88.032V13.3278H78V32.7918H80.112V31.0638H87.312C86.904 31.3998 86.472 31.7118 85.992 31.9998C86.4 32.4078 87.024 33.3678 87.288 33.8238C91.008 31.5198 92.544 27.3678 92.856 25.3278C93.168 27.2958 94.512 31.6398 97.8 33.8238C98.136 33.2958 98.784 32.3838 99.192 31.9038C94.8 28.9758 93.96 23.3358 93.96 21.2478V18.1518Z"
    fill="#515560"
  />
</svg>
