<?xml version="1.0" encoding="UTF-8" ?>
<svg
  width="185px"
  height="48px"
  viewBox="0 0 185 48"
  version="1.1"
  xmlns="http://www.w3.org/2000/svg"
  xmlns:xlink="http://www.w3.org/1999/xlink"
>
    <!-- Generator: Sketch 64 (93537) - https://sketch.com -->
    <title>EU/EU-emblem/standard-version/positive/RO</title>
    <desc>Created with Sketch.</desc>
    <g
    id="EU/EU-emblem/standard-version/positive/RO"
    stroke="none"
    stroke-width="1"
    fill="none"
    fill-rule="evenodd"
  >
        <g id="EU-emblem_standard">
            <g id="EU/EU-emblem/flag/flag-positive">
                <g id="EU_flag">
                    <rect
            id="🌈-flag"
            fill="#003399"
            fill-rule="nonzero"
            x="0"
            y="0"
            width="72"
            height="48"
          />
                    <path
            d="M35.06,8.91 L33.54,7.8 L35.42,7.8 L36,6 L36.58,7.8 L38.46,7.8 L36.94,8.91 L37.52,10.72 L36,9.6 L34.48,10.72 L35.06,8.91 L35.06,8.91 Z M36.94,40.2 L37.52,42 L36,40.89 L34.48,42 L35.06,40.2 L33.54,39.09 L35.42,39.09 L36,37.28 L36.58,39.09 L38.46,39.09 L36.94,40.2 Z M20.46,25.2 L18.94,26.32 L19.52,24.52 L18,23.44 L19.88,23.44 L20.46,21.64 L21.04,23.44 L22.93,23.44 L21.4,24.56 L21.98,26.36 L20.46,25.24 L20.46,25.2 Z M29.17,11 L29.75,12.8 L28.23,11.7 L26.71,12.81 L27.29,11.01 L25.77,9.9 L27.65,9.9 L28.23,8.1 L28.81,9.9 L30.69,9.9 L29.17,11 Z M22,15.62 L22.58,13.82 L23.17,15.62 L25,15.62 L23.48,16.74 L24.06,18.54 L22.53,17.42 L21,18.54 L21.58,16.74 L20.06,15.62 L22,15.62 Z M20.08,31.26 L22,31.26 L22.58,29.46 L23.17,31.26 L25,31.26 L23.48,32.38 L24.06,34.18 L22.53,33.07 L21,34.18 L21.58,32.38 L20.06,31.26 L20.08,31.26 Z M27.29,38.1 L25.77,37 L27.65,37 L28.23,35.2 L28.81,37 L30.69,37 L29.17,38.1 L29.75,39.9 L28.23,38.79 L26.71,39.9 L27.29,38.1 Z M52.48,24.56 L53.06,26.36 L51.54,25.24 L50,26.36 L50.58,24.56 L49.05,23.44 L51,23.44 L51.58,21.64 L52.16,23.44 L54,23.44 L52.48,24.56 Z M42.83,11 L41.31,9.9 L43.19,9.9 L43.77,8.1 L44.35,9.9 L46.23,9.9 L44.71,11 L45.29,12.8 L43.77,11.7 L42.25,12.81 L42.83,11.01 L42.83,11 Z M48.83,15.61 L49.42,13.81 L50,15.61 L51.88,15.61 L50.4,16.74 L50.98,18.54 L49.46,17.42 L47.93,18.54 L48.51,16.74 L47,15.62 L48.83,15.61 Z M50,31.26 L51.88,31.26 L50.4,32.38 L50.98,34.18 L49.46,33.07 L47.93,34.18 L48.51,32.38 L47,31.26 L48.88,31.26 L49.47,29.46 L50.05,31.26 L50,31.26 Z M46.23,37 L44.71,38.1 L45.29,39.9 L43.77,38.79 L42.25,39.9 L42.83,38.1 L41.31,37 L43.19,37 L43.77,35.2 L44.35,37 L46.23,37 Z"
            id="🌈-stars"
            fill="#FFCC00"
            fill-rule="nonzero"
          />
                </g>
            </g>
            <g
        id="🌈-Europeană"
        transform="translate(84.039000, 27.445100)"
        fill="#515560"
      >
                <polygon
          id="Fill-3"
          points="-3.90798505e-13 14.5604 -3.90798505e-13 0.2444 10.615 0.2444 10.615 2.6654 2.891 2.6654 2.891 5.8394 10.078 5.8394 10.078 8.2514 2.891 8.2514 2.891 12.1484 10.889 12.1484 10.889 14.5604"
        />
                <path
          d="M19.8662,14.5604 L19.8662,13.0074 C19.4882,13.5604 18.9922,13.9974 18.3772,14.3164 C17.7622,14.6354 17.1122,14.7944 16.4282,14.7944 C15.7322,14.7944 15.1072,14.6424 14.5542,14.3354 C14.0002,14.0294 13.5992,13.6004 13.3522,13.0464 C13.1052,12.4934 12.9812,11.7284 12.9812,10.7514 L12.9812,4.1894 L15.7252,4.1894 L15.7252,8.9554 C15.7252,10.4134 15.7762,11.3074 15.8772,11.6354 C15.9772,11.9644 16.1622,12.2254 16.4282,12.4164 C16.6952,12.6084 17.0342,12.7054 17.4442,12.7054 C17.9132,12.7054 18.3332,12.5764 18.7042,12.3194 C19.0752,12.0614 19.3292,11.7434 19.4662,11.3624 C19.6022,10.9814 19.6712,10.0484 19.6712,8.5644 L19.6712,4.1894 L22.4152,4.1894 L22.4152,14.5604 L19.8662,14.5604 Z"
          id="Fill-4"
        />
                <path
          d="M27.584,14.5604 L24.84,14.5604 L24.84,4.1894 L27.389,4.1894 L27.389,5.6644 C27.825,4.9674 28.217,4.5084 28.565,4.2874 C28.914,4.0654 29.31,3.9554 29.752,3.9554 C30.377,3.9554 30.98,4.1274 31.559,4.4724 L30.709,6.8654 C30.247,6.5654 29.817,6.4154 29.42,6.4154 C29.036,6.4154 28.71,6.5214 28.443,6.7334 C28.177,6.9444 27.967,7.3274 27.813,7.8804 C27.66,8.4344 27.584,9.5934 27.584,11.3574 L27.584,14.5604 Z"
          id="Fill-6"
        />
                <path
          d="M34.6181,9.3749 C34.6181,10.4039 34.8621,11.1909 35.3501,11.7379 C35.8391,12.2849 36.4411,12.5589 37.1571,12.5589 C37.8731,12.5589 38.4731,12.2849 38.9591,11.7379 C39.4441,11.1909 39.6861,10.3969 39.6861,9.3549 C39.6861,8.3399 39.4441,7.5589 38.9591,7.0119 C38.4731,6.4649 37.8731,6.1909 37.1571,6.1909 C36.4411,6.1909 35.8391,6.4649 35.3501,7.0119 C34.8621,7.5589 34.6181,8.3459 34.6181,9.3749 M31.8051,9.2289 C31.8051,8.3169 32.0301,7.4349 32.4791,6.5819 C32.9291,5.7289 33.5651,5.0779 34.3891,4.6289 C35.2121,4.1799 36.1321,3.9549 37.1471,3.9549 C38.7171,3.9549 40.0021,4.4639 41.0051,5.4829 C42.0081,6.5019 42.5091,7.7899 42.5091,9.3459 C42.5091,10.9149 42.0031,12.2149 40.9901,13.2469 C39.9771,14.2789 38.7031,14.7949 37.1671,14.7949 C36.2171,14.7949 35.3091,14.5799 34.4471,14.1499 C33.5851,13.7209 32.9291,13.0909 32.4791,12.2609 C32.0301,11.4309 31.8051,10.4199 31.8051,9.2289"
          id="Fill-8"
        />
                <path
          d="M46.9541,9.1991 C46.9541,10.3651 47.1851,11.2251 47.6471,11.7821 C48.1091,12.3391 48.6731,12.6171 49.3371,12.6171 C49.9751,12.6171 50.5061,12.3621 50.9291,11.8501 C51.3511,11.3391 51.5631,10.5011 51.5631,9.3361 C51.5631,8.2481 51.3461,7.4411 50.9091,6.9141 C50.4731,6.3861 49.9331,6.1231 49.2881,6.1231 C48.6171,6.1231 48.0601,6.3821 47.6181,6.8991 C47.1761,7.4171 46.9541,8.1831 46.9541,9.1991 L46.9541,9.1991 Z M44.2391,4.1891 L46.7981,4.1891 L46.7981,5.7131 C47.1301,5.1921 47.5791,4.7691 48.1451,4.4431 C48.7121,4.1171 49.3401,3.9551 50.0301,3.9551 C51.2341,3.9551 52.2571,4.4271 53.0971,5.3711 C53.9361,6.3151 54.3561,7.6301 54.3561,9.3161 C54.3561,11.0481 53.9331,12.3941 53.0871,13.3541 C52.2401,14.3151 51.2151,14.7951 50.0111,14.7951 C49.4371,14.7951 48.9191,14.6811 48.4531,14.4531 C47.9871,14.2251 47.4981,13.8341 46.9831,13.2811 L46.9831,18.5061 L44.2391,18.5061 L44.2391,4.1891 Z"
          id="Fill-10"
        />
                <path
          d="M62.4961,8.4862 C62.4761,7.6922 62.2711,7.0882 61.8811,6.6742 C61.4901,6.2612 61.0151,6.0542 60.4551,6.0542 C59.8561,6.0542 59.3611,6.2732 58.9711,6.7092 C58.5801,7.1452 58.3881,7.7372 58.3941,8.4862 L62.4961,8.4862 Z M62.3401,11.2592 L65.0741,11.7182 C64.7231,12.7212 64.1681,13.4852 63.4091,14.0082 C62.6501,14.5322 61.7021,14.7952 60.5621,14.7952 C58.7591,14.7952 57.4251,14.2052 56.5591,13.0272 C55.8751,12.0832 55.5331,10.8922 55.5331,9.4532 C55.5331,7.7342 55.9821,6.3882 56.8811,5.4152 C57.7791,4.4422 58.9151,3.9552 60.2891,3.9552 C61.8321,3.9552 63.0501,4.4642 63.9411,5.4832 C64.8331,6.5022 65.2601,8.0632 65.2211,10.1662 L58.3461,10.1662 C58.3651,10.9802 58.5871,11.6122 59.0101,12.0652 C59.4331,12.5182 59.9601,12.7442 60.5921,12.7442 C61.0211,12.7442 61.3831,12.6272 61.6761,12.3922 C61.9691,12.1582 62.1901,11.7802 62.3401,11.2592 L62.3401,11.2592 Z"
          id="Fill-12"
        />
                <path
          d="M73.1797,9.58 C72.8277,9.697 72.2717,9.837 71.5097,10 C70.7477,10.163 70.2497,10.322 70.0157,10.478 C69.6577,10.732 69.4787,11.055 69.4787,11.445 C69.4787,11.83 69.6217,12.162 69.9087,12.441 C70.1947,12.721 70.5597,12.861 71.0017,12.861 C71.4967,12.861 71.9687,12.699 72.4177,12.373 C72.7497,12.125 72.9677,11.823 73.0727,11.465 C73.1437,11.23 73.1797,10.785 73.1797,10.127 L73.1797,9.58 Z M69.5077,7.353 L67.0177,6.904 C67.2977,5.902 67.7797,5.16 68.4627,4.678 C69.1467,4.196 70.1617,3.955 71.5097,3.955 C72.7337,3.955 73.6457,4.1 74.2437,4.39 C74.8427,4.679 75.2647,5.047 75.5087,5.493 C75.7527,5.939 75.8747,6.758 75.8747,7.949 L75.8457,11.152 C75.8457,12.064 75.8897,12.736 75.9777,13.169 C76.0657,13.602 76.2297,14.066 76.4707,14.56 L73.7557,14.56 C73.6847,14.378 73.5967,14.108 73.4917,13.75 C73.4467,13.587 73.4137,13.48 73.3947,13.428 C72.9257,13.883 72.4247,14.225 71.8907,14.453 C71.3567,14.681 70.7867,14.795 70.1817,14.795 C69.1147,14.795 68.2727,14.505 67.6577,13.926 C67.0417,13.346 66.7347,12.614 66.7347,11.728 C66.7347,11.142 66.8737,10.62 67.1547,10.161 C67.4347,9.702 67.8257,9.351 68.3307,9.106 C68.8357,8.862 69.5637,8.649 70.5137,8.467 C71.7957,8.226 72.6847,8.001 73.1797,7.793 L73.1797,7.519 C73.1797,6.992 73.0497,6.616 72.7887,6.392 C72.5287,6.167 72.0367,6.055 71.3147,6.055 C70.8257,6.055 70.4457,6.151 70.1717,6.343 C69.8987,6.535 69.6767,6.872 69.5077,7.353 L69.5077,7.353 Z"
          id="Fill-14"
        />
                <path
          d="M87.8935,14.5604 L85.1495,14.5604 L85.1495,9.2674 C85.1495,8.1474 85.0905,7.4234 84.9735,7.0944 C84.8565,6.7664 84.6655,6.5104 84.4025,6.3284 C84.1385,6.1454 83.8215,6.0544 83.4505,6.0544 C82.9745,6.0544 82.5485,6.1854 82.1705,6.4454 C81.7925,6.7054 81.5345,7.0504 81.3945,7.4804 C81.2545,7.9104 81.1845,8.7044 81.1845,9.8634 L81.1845,14.5604 L78.4405,14.5604 L78.4405,4.1894 L80.9895,4.1894 L80.9895,5.7124 C81.8945,4.5404 83.0335,3.9554 84.4075,3.9554 C85.0125,3.9554 85.5665,4.0634 86.0675,4.2824 C86.5685,4.5004 86.9485,4.7784 87.2055,5.1174 C87.4615,5.4554 87.6415,5.8394 87.7425,6.2694 C87.8425,6.6994 87.8935,7.3144 87.8935,8.1154 L87.8935,14.5604 Z"
          id="Fill-16"
        />
                <path
          d="M95.8994,9.58 C95.5474,9.697 94.9914,9.837 94.2294,10 C93.4674,10.163 92.9694,10.322 92.7354,10.478 C92.3774,10.732 92.1984,11.055 92.1984,11.445 C92.1984,11.83 92.3414,12.162 92.6284,12.441 C92.9144,12.721 93.2794,12.861 93.7214,12.861 C94.2164,12.861 94.6884,12.699 95.1374,12.373 C95.4694,12.125 95.6874,11.823 95.7924,11.465 C95.8634,11.23 95.8994,10.785 95.8994,10.127 L95.8994,9.58 Z M95.9974,3.64153152e-14 L97.3354,3.64153152e-14 C97.2564,0.885 96.9464,1.58 96.4024,2.085 C95.8584,2.589 95.1544,2.842 94.2884,2.842 C93.4214,2.842 92.7174,2.589 92.1734,2.085 C91.6294,1.58 91.3194,0.885 91.2414,3.64153152e-14 L92.5794,3.64153152e-14 C92.6254,0.462 92.7874,0.812 93.0674,1.05 C93.3474,1.288 93.7534,1.406 94.2884,1.406 C94.8224,1.406 95.2284,1.288 95.5084,1.05 C95.7894,0.812 95.9514,0.462 95.9974,3.64153152e-14 L95.9974,3.64153152e-14 Z M92.2274,7.353 L89.7374,6.904 C90.0174,5.902 90.4994,5.16 91.1824,4.678 C91.8664,4.196 92.8814,3.955 94.2294,3.955 C95.4534,3.955 96.3654,4.1 96.9634,4.39 C97.5624,4.679 97.9844,5.047 98.2284,5.493 C98.4724,5.939 98.5944,6.758 98.5944,7.949 L98.5654,11.152 C98.5654,12.064 98.6094,12.736 98.6974,13.169 C98.7854,13.602 98.9494,14.066 99.1904,14.56 L96.4754,14.56 C96.4044,14.378 96.3164,14.108 96.2114,13.75 C96.1664,13.587 96.1334,13.48 96.1144,13.428 C95.6454,13.883 95.1444,14.225 94.6104,14.453 C94.0764,14.681 93.5064,14.795 92.9014,14.795 C91.8344,14.795 90.9924,14.505 90.3774,13.926 C89.7614,13.346 89.4544,12.614 89.4544,11.728 C89.4544,11.142 89.5934,10.62 89.8744,10.161 C90.1544,9.702 90.5454,9.351 91.0504,9.106 C91.5554,8.862 92.2834,8.649 93.2334,8.467 C94.5154,8.226 95.4044,8.001 95.8994,7.793 L95.8994,7.519 C95.8994,6.992 95.7694,6.616 95.5084,6.392 C95.2484,6.167 94.7564,6.055 94.0344,6.055 C93.5454,6.055 93.1654,6.151 92.8914,6.343 C92.6184,6.535 92.3964,6.872 92.2274,7.353 L92.2274,7.353 Z"
          id="Fill-18"
        />
            </g>
            <g
        id="🌈-Uniunea"
        transform="translate(84.010700, 6.009000)"
        fill="#515560"
      >
                <path
          d="M-3.69482223e-13,0.0004 L2.891,0.0004 L2.891,7.7544 C2.891,8.9844 2.927,9.7824 2.998,10.1464 C3.122,10.7324 3.416,11.2034 3.882,11.5584 C4.348,11.9134 4.983,12.0904 5.791,12.0904 C6.611,12.0904 7.229,11.9224 7.646,11.5874 C8.063,11.2514 8.313,10.8404 8.398,10.3524 C8.483,9.8634 8.525,9.0534 8.525,7.9204 L8.525,0.0004 L11.416,0.0004 L11.416,7.5204 C11.416,9.2384 11.338,10.4534 11.182,11.1624 C11.025,11.8724 10.737,12.4714 10.317,12.9594 C9.897,13.4474 9.336,13.8364 8.633,14.1264 C7.93,14.4164 7.012,14.5614 5.879,14.5614 C4.512,14.5614 3.475,14.4034 2.769,14.0874 C2.063,13.7714 1.504,13.3614 1.094,12.8564 C0.684,12.3524 0.413,11.8234 0.283,11.2704 C0.095,10.4494 -3.69482223e-13,9.2384 -3.69482223e-13,7.6374 L-3.69482223e-13,0.0004 Z"
          id="Fill-21"
        />
                <path
          d="M23.2773,14.3168 L20.5333,14.3168 L20.5333,9.0238 C20.5333,7.9038 20.4743,7.1798 20.3573,6.8508 C20.2403,6.5228 20.0493,6.2668 19.7863,6.0848 C19.5223,5.9018 19.2053,5.8108 18.8343,5.8108 C18.3583,5.8108 17.9323,5.9418 17.5543,6.2018 C17.1763,6.4618 16.9183,6.8068 16.7783,7.2368 C16.6383,7.6668 16.5683,8.4608 16.5683,9.6198 L16.5683,14.3168 L13.8243,14.3168 L13.8243,3.9458 L16.3733,3.9458 L16.3733,5.4688 C17.2783,4.2968 18.4173,3.7118 19.7913,3.7118 C20.3963,3.7118 20.9503,3.8198 21.4513,4.0388 C21.9523,4.2568 22.3323,4.5348 22.5893,4.8738 C22.8453,5.2118 23.0253,5.5958 23.1263,6.0258 C23.2263,6.4558 23.2773,7.0708 23.2773,7.8718 L23.2773,14.3168 Z"
          id="Fill-23"
        />
                <path
          d="M25.5603,14.317 L28.3043,14.317 L28.3043,3.946 L25.5603,3.946 L25.5603,14.317 Z M25.5603,2.539 L28.3043,2.539 L28.3043,-4.51194637e-13 L25.5603,-4.51194637e-13 L25.5603,2.539 Z"
          id="Fill-25"
        />
                <path
          d="M37.4433,14.3168 L37.4433,12.7638 C37.0653,13.3168 36.5693,13.7538 35.9543,14.0728 C35.3393,14.3918 34.6893,14.5508 34.0053,14.5508 C33.3093,14.5508 32.6843,14.3988 32.1313,14.0918 C31.5773,13.7858 31.1763,13.3568 30.9293,12.8028 C30.6823,12.2498 30.5583,11.4848 30.5583,10.5078 L30.5583,3.9458 L33.3023,3.9458 L33.3023,8.7118 C33.3023,10.1698 33.3533,11.0638 33.4543,11.3918 C33.5543,11.7208 33.7393,11.9818 34.0053,12.1728 C34.2723,12.3648 34.6113,12.4618 35.0213,12.4618 C35.4903,12.4618 35.9103,12.3328 36.2813,12.0758 C36.6523,11.8178 36.9063,11.4998 37.0433,11.1188 C37.1793,10.7378 37.2483,9.8048 37.2483,8.3208 L37.2483,3.9458 L39.9923,3.9458 L39.9923,14.3168 L37.4433,14.3168 Z"
          id="Fill-27"
        />
                <path
          d="M51.9667,14.3168 L49.2227,14.3168 L49.2227,9.0238 C49.2227,7.9038 49.1637,7.1798 49.0467,6.8508 C48.9297,6.5228 48.7387,6.2668 48.4757,6.0848 C48.2117,5.9018 47.8947,5.8108 47.5237,5.8108 C47.0477,5.8108 46.6217,5.9418 46.2437,6.2018 C45.8657,6.4618 45.6077,6.8068 45.4677,7.2368 C45.3277,7.6668 45.2577,8.4608 45.2577,9.6198 L45.2577,14.3168 L42.5137,14.3168 L42.5137,3.9458 L45.0627,3.9458 L45.0627,5.4688 C45.9677,4.2968 47.1067,3.7118 48.4807,3.7118 C49.0857,3.7118 49.6397,3.8198 50.1407,4.0388 C50.6417,4.2568 51.0217,4.5348 51.2787,4.8738 C51.5347,5.2118 51.7147,5.5958 51.8157,6.0258 C51.9157,6.4558 51.9667,7.0708 51.9667,7.8718 L51.9667,14.3168 Z"
          id="Fill-28"
        />
                <path
          d="M60.9121,8.2426 C60.8921,7.4486 60.6871,6.8446 60.2971,6.4306 C59.9061,6.0176 59.4311,5.8106 58.8711,5.8106 C58.2721,5.8106 57.7771,6.0296 57.3871,6.4656 C56.9961,6.9016 56.8041,7.4936 56.8101,8.2426 L60.9121,8.2426 Z M60.7561,11.0156 L63.4901,11.4746 C63.1391,12.4776 62.5841,13.2416 61.8251,13.7646 C61.0661,14.2886 60.1181,14.5516 58.9781,14.5516 C57.1751,14.5516 55.8411,13.9616 54.9751,12.7836 C54.2911,11.8396 53.9491,10.6486 53.9491,9.2096 C53.9491,7.4906 54.3981,6.1446 55.2971,5.1716 C56.1951,4.1986 57.3311,3.7116 58.7051,3.7116 C60.2481,3.7116 61.4661,4.2206 62.3571,5.2396 C63.2491,6.2586 63.6761,7.8196 63.6371,9.9226 L56.7621,9.9226 C56.7811,10.7366 57.0031,11.3686 57.4261,11.8216 C57.8491,12.2746 58.3761,12.5006 59.0081,12.5006 C59.4371,12.5006 59.7991,12.3836 60.0921,12.1486 C60.3851,11.9146 60.6061,11.5366 60.7561,11.0156 L60.7561,11.0156 Z"
          id="Fill-29"
        />
                <path
          d="M71.5957,9.3364 C71.2437,9.4534 70.6877,9.5934 69.9257,9.7564 C69.1637,9.9194 68.6657,10.0784 68.4317,10.2344 C68.0737,10.4884 67.8947,10.8114 67.8947,11.2014 C67.8947,11.5864 68.0377,11.9184 68.3247,12.1974 C68.6107,12.4774 68.9757,12.6174 69.4177,12.6174 C69.9127,12.6174 70.3847,12.4554 70.8337,12.1294 C71.1657,11.8814 71.3837,11.5794 71.4887,11.2214 C71.5597,10.9864 71.5957,10.5414 71.5957,9.8834 L71.5957,9.3364 Z M67.9237,7.1094 L65.4337,6.6604 C65.7137,5.6584 66.1957,4.9164 66.8787,4.4344 C67.5627,3.9524 68.5777,3.7114 69.9257,3.7114 C71.1497,3.7114 72.0617,3.8564 72.6597,4.1464 C73.2587,4.4354 73.6807,4.8034 73.9247,5.2494 C74.1687,5.6954 74.2907,6.5144 74.2907,7.7054 L74.2617,10.9084 C74.2617,11.8204 74.3057,12.4924 74.3937,12.9254 C74.4817,13.3584 74.6457,13.8224 74.8867,14.3164 L72.1717,14.3164 C72.1007,14.1344 72.0127,13.8644 71.9077,13.5064 C71.8627,13.3434 71.8297,13.2364 71.8107,13.1844 C71.3417,13.6394 70.8407,13.9814 70.3067,14.2094 C69.7727,14.4374 69.2027,14.5514 68.5977,14.5514 C67.5307,14.5514 66.6887,14.2614 66.0737,13.6824 C65.4577,13.1024 65.1507,12.3704 65.1507,11.4844 C65.1507,10.8984 65.2897,10.3764 65.5707,9.9174 C65.8507,9.4584 66.2417,9.1074 66.7467,8.8624 C67.2517,8.6184 67.9797,8.4054 68.9297,8.2234 C70.2117,7.9824 71.1007,7.7574 71.5957,7.5494 L71.5957,7.2754 C71.5957,6.7484 71.4657,6.3724 71.2047,6.1484 C70.9447,5.9234 70.4527,5.8114 69.7307,5.8114 C69.2417,5.8114 68.8617,5.9074 68.5877,6.0994 C68.3147,6.2914 68.0927,6.6284 67.9237,7.1094 L67.9237,7.1094 Z"
          id="Fill-30"
        />
            </g>
        </g>
    </g>
</svg>
