<?xml version="1.0" encoding="UTF-8" ?>
<svg
  width="156px"
  height="48px"
  viewBox="0 0 156 48"
  version="1.1"
  xmlns="http://www.w3.org/2000/svg"
  xmlns:xlink="http://www.w3.org/1999/xlink"
>
    <!-- Generator: Sketch 64 (93537) - https://sketch.com -->
    <title>EU/EU-emblem/standard-version/positive/HU</title>
    <desc>Created with Sketch.</desc>
    <g
    id="EU/EU-emblem/standard-version/positive/HU"
    stroke="none"
    stroke-width="1"
    fill="none"
    fill-rule="evenodd"
  >
        <g id="EU-emblem_standard">
            <g id="EU/EU-emblem/flag/flag-positive">
                <g id="EU_flag">
                    <rect
            id="🌈-flag"
            fill="#003399"
            fill-rule="nonzero"
            x="0"
            y="0"
            width="72"
            height="48"
          />
                    <path
            d="M35.06,8.91 L33.54,7.8 L35.42,7.8 L36,6 L36.58,7.8 L38.46,7.8 L36.94,8.91 L37.52,10.72 L36,9.6 L34.48,10.72 L35.06,8.91 L35.06,8.91 Z M36.94,40.2 L37.52,42 L36,40.89 L34.48,42 L35.06,40.2 L33.54,39.09 L35.42,39.09 L36,37.28 L36.58,39.09 L38.46,39.09 L36.94,40.2 Z M20.46,25.2 L18.94,26.32 L19.52,24.52 L18,23.44 L19.88,23.44 L20.46,21.64 L21.04,23.44 L22.93,23.44 L21.4,24.56 L21.98,26.36 L20.46,25.24 L20.46,25.2 Z M29.17,11 L29.75,12.8 L28.23,11.7 L26.71,12.81 L27.29,11.01 L25.77,9.9 L27.65,9.9 L28.23,8.1 L28.81,9.9 L30.69,9.9 L29.17,11 Z M22,15.62 L22.58,13.82 L23.17,15.62 L25,15.62 L23.48,16.74 L24.06,18.54 L22.53,17.42 L21,18.54 L21.58,16.74 L20.06,15.62 L22,15.62 Z M20.08,31.26 L22,31.26 L22.58,29.46 L23.17,31.26 L25,31.26 L23.48,32.38 L24.06,34.18 L22.53,33.07 L21,34.18 L21.58,32.38 L20.06,31.26 L20.08,31.26 Z M27.29,38.1 L25.77,37 L27.65,37 L28.23,35.2 L28.81,37 L30.69,37 L29.17,38.1 L29.75,39.9 L28.23,38.79 L26.71,39.9 L27.29,38.1 Z M52.48,24.56 L53.06,26.36 L51.54,25.24 L50,26.36 L50.58,24.56 L49.05,23.44 L51,23.44 L51.58,21.64 L52.16,23.44 L54,23.44 L52.48,24.56 Z M42.83,11 L41.31,9.9 L43.19,9.9 L43.77,8.1 L44.35,9.9 L46.23,9.9 L44.71,11 L45.29,12.8 L43.77,11.7 L42.25,12.81 L42.83,11.01 L42.83,11 Z M48.83,15.61 L49.42,13.81 L50,15.61 L51.88,15.61 L50.4,16.74 L50.98,18.54 L49.46,17.42 L47.93,18.54 L48.51,16.74 L47,15.62 L48.83,15.61 Z M50,31.26 L51.88,31.26 L50.4,32.38 L50.98,34.18 L49.46,33.07 L47.93,34.18 L48.51,32.38 L47,31.26 L48.88,31.26 L49.47,29.46 L50.05,31.26 L50,31.26 Z M46.23,37 L44.71,38.1 L45.29,39.9 L43.77,38.79 L42.25,39.9 L42.83,38.1 L41.31,37 L43.19,37 L43.77,35.2 L44.35,37 L46.23,37 Z"
            id="🌈-stars"
            fill="#FFCC00"
            fill-rule="nonzero"
          />
                </g>
            </g>
            <g
        id="🌈-Unió"
        transform="translate(84.019100, 27.445300)"
        fill="#515560"
      >
                <path
          d="M-3.69482223e-13,0.2442 L2.891,0.2442 L2.891,7.9982 C2.891,9.2282 2.927,10.0262 2.998,10.3902 C3.122,10.9762 3.416,11.4472 3.882,11.8022 C4.348,12.1572 4.983,12.3342 5.791,12.3342 C6.611,12.3342 7.229,12.1662 7.646,11.8312 C8.063,11.4952 8.313,11.0842 8.398,10.5962 C8.483,10.1072 8.525,9.2972 8.525,8.1642 L8.525,0.2442 L11.416,0.2442 L11.416,7.7642 C11.416,9.4822 11.338,10.6972 11.182,11.4062 C11.025,12.1162 10.737,12.7152 10.317,13.2032 C9.897,13.6912 9.336,14.0802 8.633,14.3702 C7.93,14.6602 7.012,14.8052 5.879,14.8052 C4.512,14.8052 3.475,14.6472 2.769,14.3312 C2.063,14.0152 1.504,13.6052 1.094,13.1002 C0.684,12.5962 0.413,12.0672 0.283,11.5142 C0.095,10.6932 -3.69482223e-13,9.4822 -3.69482223e-13,7.8812 L-3.69482223e-13,0.2442 Z"
          id="Fill-3"
        />
                <path
          d="M23.2774,14.5606 L20.5334,14.5606 L20.5334,9.2676 C20.5334,8.1476 20.4744,7.4236 20.3574,7.0946 C20.2404,6.7666 20.0494,6.5106 19.7864,6.3286 C19.5224,6.1456 19.2054,6.0546 18.8344,6.0546 C18.3584,6.0546 17.9324,6.1856 17.5544,6.4456 C17.1764,6.7056 16.9184,7.0506 16.7784,7.4806 C16.6384,7.9106 16.5684,8.7046 16.5684,9.8636 L16.5684,14.5606 L13.8244,14.5606 L13.8244,4.1896 L16.3734,4.1896 L16.3734,5.7126 C17.2784,4.5406 18.4174,3.9556 19.7914,3.9556 C20.3964,3.9556 20.9504,4.0636 21.4514,4.2826 C21.9524,4.5006 22.3324,4.7786 22.5894,5.1176 C22.8454,5.4556 23.0254,5.8396 23.1264,6.2696 C23.2264,6.6996 23.2774,7.3146 23.2774,8.1156 L23.2774,14.5606 Z"
          id="Fill-5"
        />
                <path
          d="M25.5609,14.5607 L28.3049,14.5607 L28.3049,4.1897 L25.5609,4.1897 L25.5609,14.5607 Z M25.5609,2.7827 L28.3049,2.7827 L28.3049,0.2437 L25.5609,0.2437 L25.5609,2.7827 Z"
          id="Fill-7"
        />
                <path
          d="M33.9473,2.92 L35.2953,3.55271368e-14 L38.3713,3.55271368e-14 L35.6853,2.92 L33.9473,2.92 Z M32.7953,9.375 C32.7953,10.404 33.0393,11.191 33.5273,11.738 C34.0153,12.285 34.6183,12.559 35.3343,12.559 C36.0503,12.559 36.6503,12.285 37.1353,11.738 C37.6213,11.191 37.8633,10.397 37.8633,9.356 C37.8633,8.34 37.6213,7.559 37.1353,7.012 C36.6503,6.465 36.0503,6.191 35.3343,6.191 C34.6183,6.191 34.0153,6.465 33.5273,7.012 C33.0393,7.559 32.7953,8.346 32.7953,9.375 L32.7953,9.375 Z M29.9823,9.229 C29.9823,8.317 30.2073,7.435 30.6563,6.582 C31.1053,5.729 31.7423,5.078 32.5653,4.629 C33.3883,4.18 34.3083,3.955 35.3243,3.955 C36.8933,3.955 38.1783,4.464 39.1813,5.483 C40.1843,6.503 40.6853,7.79 40.6853,9.346 C40.6853,10.915 40.1793,12.215 39.1673,13.247 C38.1543,14.279 36.8803,14.795 35.3433,14.795 C34.3933,14.795 33.4863,14.58 32.6243,14.15 C31.7613,13.721 31.1053,13.091 30.6563,12.261 C30.2073,11.431 29.9823,10.42 29.9823,9.229 L29.9823,9.229 Z"
          id="Fill-9"
        />
            </g>
            <g
        id="🌈-Európai"
        transform="translate(84.030800, 5.765100)"
        fill="#515560"
      >
                <polygon
          id="Fill-10"
          points="-3.90798505e-13 14.5606 -3.90798505e-13 0.2446 10.615 0.2446 10.615 2.6656 2.891 2.6656 2.891 5.8396 10.078 5.8396 10.078 8.2516 2.891 8.2516 2.891 12.1486 10.889 12.1486 10.889 14.5606"
        />
                <path
          d="M19.8662,14.5606 L19.8662,13.0076 C19.4882,13.5606 18.9922,13.9976 18.3772,14.3166 C17.7622,14.6356 17.1122,14.7946 16.4282,14.7946 C15.7322,14.7946 15.1072,14.6426 14.5542,14.3356 C14.0002,14.0296 13.5992,13.6006 13.3522,13.0466 C13.1052,12.4936 12.9812,11.7286 12.9812,10.7516 L12.9812,4.1896 L15.7252,4.1896 L15.7252,8.9556 C15.7252,10.4136 15.7762,11.3076 15.8772,11.6356 C15.9772,11.9646 16.1622,12.2256 16.4282,12.4166 C16.6952,12.6086 17.0342,12.7056 17.4442,12.7056 C17.9132,12.7056 18.3332,12.5766 18.7042,12.3196 C19.0752,12.0616 19.3292,11.7436 19.4662,11.3626 C19.6022,10.9816 19.6712,10.0486 19.6712,8.5646 L19.6712,4.1896 L22.4152,4.1896 L22.4152,14.5606 L19.8662,14.5606 Z"
          id="Fill-11"
        />
                <path
          d="M27.584,14.5606 L24.84,14.5606 L24.84,4.1896 L27.389,4.1896 L27.389,5.6646 C27.825,4.9676 28.217,4.5086 28.565,4.2876 C28.914,4.0656 29.31,3.9556 29.752,3.9556 C30.377,3.9556 30.98,4.1276 31.559,4.4726 L30.709,6.8656 C30.247,6.5656 29.817,6.4156 29.42,6.4156 C29.036,6.4156 28.71,6.5216 28.443,6.7336 C28.177,6.9446 27.967,7.3276 27.813,7.8806 C27.66,8.4346 27.584,9.5936 27.584,11.3576 L27.584,14.5606 Z"
          id="Fill-12"
        />
                <path
          d="M35.7705,2.92 L37.1185,3.55271368e-14 L40.1945,3.55271368e-14 L37.5085,2.92 L35.7705,2.92 Z M34.6185,9.375 C34.6185,10.404 34.8625,11.191 35.3505,11.738 C35.8385,12.285 36.4415,12.559 37.1575,12.559 C37.8735,12.559 38.4735,12.285 38.9585,11.738 C39.4445,11.191 39.6865,10.397 39.6865,9.356 C39.6865,8.34 39.4445,7.559 38.9585,7.012 C38.4735,6.465 37.8735,6.191 37.1575,6.191 C36.4415,6.191 35.8385,6.465 35.3505,7.012 C34.8625,7.559 34.6185,8.346 34.6185,9.375 L34.6185,9.375 Z M31.8055,9.229 C31.8055,8.317 32.0305,7.435 32.4795,6.582 C32.9285,5.729 33.5655,5.078 34.3885,4.629 C35.2115,4.18 36.1315,3.955 37.1475,3.955 C38.7165,3.955 40.0015,4.464 41.0045,5.483 C42.0075,6.503 42.5085,7.79 42.5085,9.346 C42.5085,10.915 42.0025,12.215 40.9905,13.247 C39.9775,14.279 38.7035,14.795 37.1665,14.795 C36.2165,14.795 35.3095,14.58 34.4475,14.15 C33.5845,13.721 32.9285,13.091 32.4795,12.261 C32.0305,11.431 31.8055,10.42 31.8055,9.229 L31.8055,9.229 Z"
          id="Fill-13"
        />
                <path
          d="M46.9541,9.1993 C46.9541,10.3653 47.1851,11.2253 47.6471,11.7823 C48.1091,12.3393 48.6731,12.6173 49.3371,12.6173 C49.9751,12.6173 50.5061,12.3623 50.9291,11.8503 C51.3511,11.3393 51.5631,10.5013 51.5631,9.3363 C51.5631,8.2483 51.3461,7.4413 50.9091,6.9143 C50.4731,6.3863 49.9331,6.1233 49.2881,6.1233 C48.6171,6.1233 48.0601,6.3823 47.6181,6.8993 C47.1761,7.4173 46.9541,8.1833 46.9541,9.1993 L46.9541,9.1993 Z M44.2391,4.1893 L46.7981,4.1893 L46.7981,5.7133 C47.1301,5.1923 47.5791,4.7693 48.1451,4.4433 C48.7121,4.1173 49.3401,3.9553 50.0301,3.9553 C51.2341,3.9553 52.2571,4.4273 53.0971,5.3713 C53.9361,6.3153 54.3561,7.6303 54.3561,9.3163 C54.3561,11.0483 53.9331,12.3943 53.0871,13.3543 C52.2401,14.3153 51.2151,14.7953 50.0111,14.7953 C49.4371,14.7953 48.9191,14.6813 48.4531,14.4533 C47.9871,14.2253 47.4981,13.8343 46.9831,13.2813 L46.9831,18.5063 L44.2391,18.5063 L44.2391,4.1893 Z"
          id="Fill-14"
        />
                <path
          d="M62.0567,9.5802 C61.7047,9.6972 61.1487,9.8372 60.3867,10.0002 C59.6247,10.1632 59.1267,10.3222 58.8927,10.4782 C58.5347,10.7322 58.3557,11.0552 58.3557,11.4452 C58.3557,11.8302 58.4987,12.1622 58.7857,12.4412 C59.0717,12.7212 59.4367,12.8612 59.8787,12.8612 C60.3737,12.8612 60.8457,12.6992 61.2947,12.3732 C61.6267,12.1252 61.8447,11.8232 61.9497,11.4652 C62.0207,11.2302 62.0567,10.7852 62.0567,10.1272 L62.0567,9.5802 Z M58.3847,7.3532 L55.8947,6.9042 C56.1747,5.9022 56.6567,5.1602 57.3397,4.6782 C58.0237,4.1962 59.0387,3.9552 60.3867,3.9552 C61.6107,3.9552 62.5227,4.1002 63.1207,4.3902 C63.7197,4.6792 64.1417,5.0472 64.3857,5.4932 C64.6297,5.9392 64.7517,6.7582 64.7517,7.9492 L64.7227,11.1522 C64.7227,12.0642 64.7667,12.7362 64.8547,13.1692 C64.9427,13.6022 65.1067,14.0662 65.3477,14.5602 L62.6327,14.5602 C62.5617,14.3782 62.4737,14.1082 62.3687,13.7502 C62.3237,13.5872 62.2907,13.4802 62.2717,13.4282 C61.8027,13.8832 61.3017,14.2252 60.7677,14.4532 C60.2337,14.6812 59.6637,14.7952 59.0587,14.7952 C57.9917,14.7952 57.1497,14.5052 56.5347,13.9262 C55.9187,13.3462 55.6117,12.6142 55.6117,11.7282 C55.6117,11.1422 55.7507,10.6202 56.0317,10.1612 C56.3117,9.7022 56.7027,9.3512 57.2077,9.1062 C57.7127,8.8622 58.4407,8.6492 59.3907,8.4672 C60.6727,8.2262 61.5617,8.0012 62.0567,7.7932 L62.0567,7.5192 C62.0567,6.9922 61.9267,6.6162 61.6657,6.3922 C61.4057,6.1672 60.9137,6.0552 60.1917,6.0552 C59.7027,6.0552 59.3227,6.1512 59.0487,6.3432 C58.7757,6.5352 58.5537,6.8722 58.3847,7.3532 L58.3847,7.3532 Z"
          id="Fill-15"
        />
                <path
          d="M67.6572,14.5609 L70.4012,14.5609 L70.4012,4.1899 L67.6572,4.1899 L67.6572,14.5609 Z M67.6572,2.7829 L70.4012,2.7829 L70.4012,0.2439 L67.6572,0.2439 L67.6572,2.7829 Z"
          id="Fill-16"
        />
            </g>
        </g>
    </g>
</svg>
