<svg
  width="219"
  height="44"
  viewBox="0 0 219 44"
  fill="none"
  xmlns="http://www.w3.org/2000/svg"
>
<path
    d="M78.5625 18.5V5.61523H88.1162V7.79492H81.1641V10.6514H87.6328V12.8223H81.1641V16.3291H88.3623V18.5H78.5625Z"
    fill="#515560"
  />
<path
    d="M90.5771 9.16602H95.9824C97.0898 9.16602 97.9189 9.36816 98.4697 9.77246C99.0205 10.1768 99.2959 10.7861 99.2959 11.6006C99.2959 12.1221 99.1436 12.5762 98.8389 12.9629C98.54 13.3496 98.1621 13.6074 97.7051 13.7363C98.3496 13.8945 98.8301 14.1904 99.1465 14.624C99.4629 15.0576 99.6211 15.5322 99.6211 16.0479C99.6211 16.7744 99.3545 17.3662 98.8213 17.8232C98.2881 18.2744 97.5 18.5 96.457 18.5H90.5771V9.16602ZM93.0645 13.042H94.6553C95.4229 13.042 95.9766 12.9453 96.3164 12.752C96.6621 12.5586 96.835 12.2539 96.835 11.8379C96.835 11.4453 96.6738 11.167 96.3516 11.0029C96.0352 10.833 95.4697 10.748 94.6553 10.748H93.0645V13.042ZM93.0645 16.918H95.0156C95.7188 16.918 96.2314 16.833 96.5537 16.6631C96.876 16.4932 97.0371 16.1885 97.0371 15.749C97.0371 15.292 96.8525 14.9785 96.4834 14.8086C96.1143 14.6328 95.3965 14.5449 94.3301 14.5449H93.0645V16.918Z"
    fill="#515560"
  />
<path
    d="M101.555 9.16602H103.857V10.5371C104.156 10.0684 104.561 9.6875 105.07 9.39453C105.58 9.10156 106.146 8.95508 106.767 8.95508C107.851 8.95508 108.771 9.37988 109.526 10.2295C110.282 11.0791 110.66 12.2627 110.66 13.7803C110.66 15.3389 110.279 16.5518 109.518 17.4189C108.756 18.2803 107.833 18.7109 106.749 18.7109C106.233 18.7109 105.765 18.6084 105.343 18.4033C104.927 18.1982 104.487 17.8467 104.024 17.3486V22.0508H101.555V9.16602ZM103.998 13.6748C103.998 14.7236 104.206 15.5 104.622 16.0039C105.038 16.502 105.545 16.751 106.143 16.751C106.717 16.751 107.194 16.5225 107.575 16.0654C107.956 15.6025 108.146 14.8467 108.146 13.7979C108.146 12.8193 107.95 12.0928 107.558 11.6182C107.165 11.1436 106.679 10.9062 106.099 10.9062C105.495 10.9062 104.994 11.1406 104.596 11.6094C104.197 12.0723 103.998 12.7607 103.998 13.6748Z"
    fill="#515560"
  />
<path
    d="M112.058 13.7012C112.058 12.8809 112.26 12.0869 112.664 11.3193C113.068 10.5518 113.64 9.96582 114.378 9.56152C115.122 9.15723 115.951 8.95508 116.865 8.95508C118.277 8.95508 119.435 9.41504 120.337 10.335C121.239 11.249 121.69 12.4062 121.69 13.8066C121.69 15.2188 121.233 16.3906 120.319 17.3223C119.411 18.248 118.266 18.7109 116.883 18.7109C116.027 18.7109 115.21 18.5176 114.431 18.1309C113.657 17.7441 113.068 17.1787 112.664 16.4346C112.26 15.6846 112.058 14.7734 112.058 13.7012ZM114.589 13.833C114.589 14.7588 114.809 15.4678 115.248 15.96C115.688 16.4521 116.229 16.6982 116.874 16.6982C117.519 16.6982 118.058 16.4521 118.491 15.96C118.931 15.4678 119.15 14.7529 119.15 13.8154C119.15 12.9014 118.931 12.1982 118.491 11.7061C118.058 11.2139 117.519 10.9678 116.874 10.9678C116.229 10.9678 115.688 11.2139 115.248 11.7061C114.809 12.1982 114.589 12.9072 114.589 13.833Z"
    fill="#515560"
  />
<path
    d="M123.536 9.16602H131.824V18.5H129.354V11.1611H126.006V18.5H123.536V9.16602Z"
    fill="#515560"
  />
<path
    d="M139.919 15.5293L142.38 15.9424C142.063 16.8447 141.562 17.5332 140.877 18.0078C140.197 18.4766 139.345 18.7109 138.319 18.7109C136.696 18.7109 135.495 18.1807 134.716 17.1201C134.101 16.2705 133.793 15.1982 133.793 13.9033C133.793 12.3564 134.197 11.1465 135.006 10.2734C135.814 9.39453 136.837 8.95508 138.073 8.95508C139.462 8.95508 140.558 9.41504 141.36 10.335C142.163 11.249 142.547 12.6523 142.512 14.5449H136.324C136.342 15.2773 136.541 15.8486 136.922 16.2588C137.303 16.6631 137.777 16.8652 138.346 16.8652C138.732 16.8652 139.058 16.7598 139.321 16.5488C139.585 16.3379 139.784 15.998 139.919 15.5293ZM140.06 13.0332C140.042 12.3184 139.857 11.7764 139.506 11.4072C139.154 11.0322 138.727 10.8447 138.223 10.8447C137.684 10.8447 137.238 11.041 136.887 11.4336C136.535 11.8262 136.362 12.3594 136.368 13.0332H140.06Z"
    fill="#515560"
  />
<path
    d="M144.472 9.16602H146.845V15.0283L150.642 9.16602H153.067V18.5H150.694V12.5322L146.845 18.5H144.472V9.16602ZM150.387 5.37793H151.591C151.521 6.1748 151.239 6.80176 150.747 7.25879C150.261 7.70996 149.628 7.93555 148.849 7.93555C148.069 7.93555 147.434 7.70996 146.941 7.25879C146.455 6.80176 146.177 6.1748 146.106 5.37793H147.311C147.352 5.79395 147.498 6.11035 147.75 6.32715C148.002 6.53809 148.368 6.64355 148.849 6.64355C149.329 6.64355 149.695 6.53809 149.947 6.32715C150.199 6.11035 150.346 5.79395 150.387 5.37793Z"
    fill="#515560"
  />
<path
    d="M163.746 11.9258L161.312 12.3652C161.229 11.8789 161.042 11.5127 160.749 11.2666C160.462 11.0205 160.087 10.8975 159.624 10.8975C159.009 10.8975 158.517 11.1113 158.147 11.5391C157.784 11.9609 157.603 12.6699 157.603 13.666C157.603 14.7734 157.787 15.5557 158.156 16.0127C158.531 16.4697 159.032 16.6982 159.659 16.6982C160.128 16.6982 160.512 16.5664 160.811 16.3027C161.109 16.0332 161.32 15.5732 161.443 14.9229L163.869 15.3359C163.617 16.4492 163.134 17.29 162.419 17.8584C161.704 18.4268 160.746 18.7109 159.545 18.7109C158.18 18.7109 157.09 18.2803 156.275 17.4189C155.467 16.5576 155.062 15.3652 155.062 13.8418C155.062 12.3008 155.47 11.1025 156.284 10.2471C157.099 9.38574 158.2 8.95508 159.589 8.95508C160.726 8.95508 161.628 9.20117 162.296 9.69336C162.97 10.1797 163.453 10.9238 163.746 11.9258Z"
    fill="#515560"
  />
<path
    d="M165.53 9.16602H167.991V12.9805C168.401 12.9336 168.691 12.8076 168.861 12.6025C169.031 12.3975 169.236 11.9492 169.477 11.2578C169.793 10.3379 170.139 9.74902 170.514 9.49121C170.889 9.2334 171.381 9.10449 171.99 9.10449C172.178 9.10449 172.503 9.11914 172.966 9.14844L172.975 10.7832C172.324 10.7832 171.908 10.8447 171.727 10.9678C171.545 11.0967 171.349 11.4805 171.138 12.1191C170.851 12.9805 170.438 13.5107 169.898 13.71C170.678 13.9268 171.337 14.6035 171.876 15.7402C171.905 15.7988 171.938 15.8604 171.973 15.9248L173.353 18.5H170.698L169.468 15.8018C169.216 15.2568 168.996 14.9082 168.809 14.7559C168.627 14.5977 168.354 14.5186 167.991 14.5186V18.5H165.53V9.16602Z"
    fill="#515560"
  />
<path
    d="M174.583 9.16602H176.956V15.0283L180.753 9.16602H183.179V18.5H180.806V12.5322L176.956 18.5H174.583V9.16602Z"
    fill="#515560"
  />
<path
    d="M185.657 9.16602H188.03V15.0283L191.827 9.16602H194.253V18.5H191.88V12.5322L188.03 18.5H185.657V9.16602ZM191.572 5.37793H192.776C192.706 6.1748 192.425 6.80176 191.933 7.25879C191.446 7.70996 190.813 7.93555 190.034 7.93555C189.255 7.93555 188.619 7.70996 188.127 7.25879C187.641 6.80176 187.362 6.1748 187.292 5.37793H188.496C188.537 5.79395 188.684 6.11035 188.936 6.32715C189.188 6.53809 189.554 6.64355 190.034 6.64355C190.515 6.64355 190.881 6.53809 191.133 6.32715C191.385 6.11035 191.531 5.79395 191.572 5.37793Z"
    fill="#515560"
  />
<path
    d="M86.6836 31.9258L84.249 32.3652C84.167 31.8789 83.9795 31.5127 83.6865 31.2666C83.3994 31.0205 83.0244 30.8975 82.5615 30.8975C81.9463 30.8975 81.4541 31.1113 81.085 31.5391C80.7217 31.9609 80.54 32.6699 80.54 33.666C80.54 34.7734 80.7246 35.5557 81.0938 36.0127C81.4688 36.4697 81.9697 36.6982 82.5967 36.6982C83.0654 36.6982 83.4492 36.5664 83.748 36.3027C84.0469 36.0332 84.2578 35.5732 84.3809 34.9229L86.8066 35.3359C86.5547 36.4492 86.0713 37.29 85.3564 37.8584C84.6416 38.4268 83.6836 38.7109 82.4824 38.7109C81.1172 38.7109 80.0273 38.2803 79.2129 37.4189C78.4043 36.5576 78 35.3652 78 33.8418C78 32.3008 78.4072 31.1025 79.2217 30.2471C80.0361 29.3857 81.1377 28.9551 82.5264 28.9551C83.6631 28.9551 84.5654 29.2012 85.2334 29.6934C85.9072 30.1797 86.3906 30.9238 86.6836 31.9258Z"
    fill="#515560"
  />
<path
    d="M87.9932 33.7012C87.9932 32.8809 88.1953 32.0869 88.5996 31.3193C89.0039 30.5518 89.5752 29.9658 90.3135 29.5615C91.0576 29.1572 91.8867 28.9551 92.8008 28.9551C94.2129 28.9551 95.3701 29.415 96.2725 30.335C97.1748 31.249 97.626 32.4062 97.626 33.8066C97.626 35.2188 97.1689 36.3906 96.2549 37.3223C95.3467 38.248 94.2012 38.7109 92.8184 38.7109C91.9629 38.7109 91.1455 38.5176 90.3662 38.1309C89.5928 37.7441 89.0039 37.1787 88.5996 36.4346C88.1953 35.6846 87.9932 34.7734 87.9932 33.7012ZM90.5244 33.833C90.5244 34.7588 90.7441 35.4678 91.1836 35.96C91.623 36.4521 92.165 36.6982 92.8096 36.6982C93.4541 36.6982 93.9932 36.4521 94.4268 35.96C94.8662 35.4678 95.0859 34.7529 95.0859 33.8154C95.0859 32.9014 94.8662 32.1982 94.4268 31.7061C93.9932 31.2139 93.4541 30.9678 92.8096 30.9678C92.165 30.9678 91.623 31.2139 91.1836 31.7061C90.7441 32.1982 90.5244 32.9072 90.5244 33.833Z"
    fill="#515560"
  />
<path
    d="M99.5508 29.166H102.021V32.9365H103.989C104.118 31.7412 104.569 30.7803 105.343 30.0537C106.122 29.3213 107.162 28.9551 108.463 28.9551C109.775 28.9551 110.851 29.3799 111.688 30.2295C112.526 31.0791 112.945 32.3037 112.945 33.9033C112.945 34.8408 112.787 35.6611 112.471 36.3643C112.16 37.0674 111.683 37.6357 111.038 38.0693C110.394 38.4971 109.553 38.7109 108.516 38.7109C107.021 38.7109 105.908 38.3066 105.176 37.498C104.443 36.6836 104.048 35.8164 103.989 34.8965H102.021V38.5H99.5508V29.166ZM108.428 30.8799C107.742 30.8799 107.241 31.0996 106.925 31.5391C106.614 31.9785 106.459 32.6787 106.459 33.6396C106.459 34.8701 106.626 35.7021 106.96 36.1357C107.3 36.5635 107.812 36.7773 108.498 36.7773C109.131 36.7773 109.605 36.5371 109.922 36.0566C110.238 35.5703 110.396 34.8438 110.396 33.877C110.396 32.6934 110.224 31.8994 109.878 31.4951C109.538 31.085 109.055 30.8799 108.428 30.8799Z"
    fill="#515560"
  />
<path
    d="M117.463 34.668V33.0596C117.891 33.0596 118.201 33.0332 118.395 32.9805C118.588 32.9219 118.77 32.7871 118.939 32.5762C119.115 32.3594 119.203 32.1133 119.203 31.8379C119.203 31.5449 119.095 31.2754 118.878 31.0293C118.667 30.7773 118.348 30.6514 117.92 30.6514C117.592 30.6514 117.299 30.7217 117.041 30.8623C116.783 31.0029 116.549 31.3369 116.338 31.8643L114.246 31.416C114.457 30.5957 114.908 29.9805 115.6 29.5703C116.291 29.1602 117.079 28.9551 117.964 28.9551C119.089 28.9551 119.959 29.2129 120.574 29.7285C121.195 30.2441 121.506 30.8916 121.506 31.6709C121.506 32.1572 121.371 32.5615 121.102 32.8838C120.838 33.2002 120.419 33.4961 119.845 33.7715C120.536 33.959 121.052 34.2432 121.392 34.624C121.737 35.0049 121.91 35.4795 121.91 36.0479C121.91 36.7744 121.57 37.4014 120.891 37.9287C120.211 38.4502 119.232 38.7109 117.955 38.7109C115.729 38.7109 114.366 37.8408 113.868 36.1006L116.127 35.6875C116.49 36.6016 117.091 37.0586 117.929 37.0586C118.392 37.0586 118.761 36.9385 119.036 36.6982C119.317 36.4521 119.458 36.165 119.458 35.8369C119.458 35.4736 119.312 35.1895 119.019 34.9844C118.731 34.7734 118.354 34.668 117.885 34.668H117.463Z"
    fill="#515560"
  />
<rect width="66" height="44" fill="#003399" />
<path
    fill-rule="evenodd"
    clip-rule="evenodd"
    d="M30.745 7.15L32.1383 8.1675L31.6067 9.82667L33 8.8L34.3933 9.82667L33.8617 8.1675L35.255 7.15H33.5317L33 5.5L32.4683 7.15H30.745ZM34.3933 38.5L33.8617 36.85L35.255 35.8325H33.5317L33 34.1733L32.4683 35.8325H30.745L32.1383 36.85L31.6067 38.5L33 37.4825L34.3933 38.5ZM18.755 23.1L17.3617 24.1267L17.8933 22.4767L16.5 21.4867H18.2233L18.755 19.8367L19.2867 21.4867H21.0192L19.6167 22.5133L20.1483 24.1633L18.755 23.1367V23.1ZM27.2708 11.7333L26.7392 10.0833L28.1325 9.075H26.4092L25.8775 7.425L25.3458 9.075H23.6225L25.0158 10.0925L24.4842 11.7425L25.8775 10.725L27.2708 11.7333ZM20.1667 14.3183L20.6983 12.6683L21.2392 14.3183H22.9167L21.5233 15.345L22.055 16.995L20.6525 15.9683L19.25 16.995L19.7817 15.345L18.3883 14.3183H20.1667ZM20.6983 27.005L20.1667 28.655H18.4067H18.3883L19.7817 29.6817L19.25 31.3317L20.6525 30.3142L22.055 31.3317L21.5233 29.6817L22.9167 28.655H21.2392L20.6983 27.005ZM25.0158 34.925L23.6225 33.9167H25.3458L25.8775 32.2667L26.4092 33.9167H28.1325L26.7392 34.925L27.2708 36.575L25.8775 35.5575L24.4842 36.575L25.0158 34.925ZM48.6383 24.1633L48.1067 22.5133L49.5 21.4867H47.8133L47.2817 19.8367L46.75 21.4867H44.9625L46.365 22.5133L45.8333 24.1633L47.245 23.1367L48.6383 24.1633ZM39.2608 10.0833L37.8675 9.075H39.5908L40.1225 7.425L40.6542 9.075H42.3775L40.9842 10.0833L41.5158 11.7333L40.1225 10.725L38.7292 11.7425L39.2608 10.0925V10.0833ZM45.3017 12.6592L44.7608 14.3092L43.0833 14.3183L44.4675 15.345L43.9358 16.995L45.3383 15.9683L46.7317 16.995L46.2 15.345L47.5567 14.3092H45.8333L45.3017 12.6592ZM45.8792 28.655H47.5567L46.2 29.6817L46.7317 31.3317L45.3383 30.3142L43.9358 31.3317L44.4675 29.6817L43.0833 28.655H44.8067L45.3475 27.005L45.8792 28.655ZM40.9842 34.925L42.3775 33.9167H40.6542L40.1225 32.2667L39.5908 33.9167H37.8675L39.2608 34.925L38.7292 36.575L40.1225 35.5575L41.5158 36.575L40.9842 34.925Z"
    fill="#FFCC00"
  />
</svg>
