<svg
  width="219"
  height="44"
  viewBox="0 0 219 44"
  fill="none"
  xmlns="http://www.w3.org/2000/svg"
>
<path
    d="M84.7939 10.9941V13.1562H80.751C80.8975 14.3105 81.2402 15.1602 81.7793 15.7051C82.3242 16.2441 82.9805 16.5137 83.748 16.5137C84.5391 16.5137 85.1924 16.2793 85.708 15.8105C86.2236 15.3359 86.54 14.6562 86.6572 13.7715L89.2676 14.5801C88.9688 15.8633 88.3652 16.874 87.457 17.6123C86.5488 18.3506 85.3682 18.7197 83.915 18.7197C82.4268 18.7197 81.252 18.3682 80.3906 17.665C79.5352 16.9619 78.9229 16.1504 78.5537 15.2305C78.1846 14.3105 78 13.2764 78 12.1279C78 10.1123 78.5303 8.48633 79.5908 7.25C80.6514 6.01367 82.1104 5.39551 83.9678 5.39551C85.4033 5.39551 86.5693 5.73535 87.4658 6.41504C88.3682 7.09473 88.957 8.01465 89.2324 9.1748L86.6572 9.76367C86.4697 9.08984 86.124 8.56836 85.6201 8.19922C85.1162 7.83008 84.542 7.64551 83.8975 7.64551C82.9717 7.64551 82.2393 7.96484 81.7002 8.60352C81.167 9.23633 80.8506 10.0332 80.751 10.9941H84.7939Z"
    fill="#515560"
  />
<path
    d="M91.3594 9.16602H96.7646C97.8721 9.16602 98.7012 9.36816 99.252 9.77246C99.8027 10.1768 100.078 10.7861 100.078 11.6006C100.078 12.1221 99.9258 12.5762 99.6211 12.9629C99.3223 13.3496 98.9443 13.6074 98.4873 13.7363C99.1318 13.8945 99.6123 14.1904 99.9287 14.624C100.245 15.0576 100.403 15.5322 100.403 16.0479C100.403 16.7744 100.137 17.3662 99.6035 17.8232C99.0703 18.2744 98.2822 18.5 97.2393 18.5H91.3594V9.16602ZM93.8467 13.042H95.4375C96.2051 13.042 96.7588 12.9453 97.0986 12.752C97.4443 12.5586 97.6172 12.2539 97.6172 11.8379C97.6172 11.4453 97.4561 11.167 97.1338 11.0029C96.8174 10.833 96.252 10.748 95.4375 10.748H93.8467V13.042ZM93.8467 16.918H95.7979C96.501 16.918 97.0137 16.833 97.3359 16.6631C97.6582 16.4932 97.8193 16.1885 97.8193 15.749C97.8193 15.292 97.6348 14.9785 97.2656 14.8086C96.8965 14.6328 96.1787 14.5449 95.1123 14.5449H93.8467V16.918Z"
    fill="#515560"
  />
<path
    d="M102.337 9.16602H104.64V10.5371C104.938 10.0684 105.343 9.6875 105.853 9.39453C106.362 9.10156 106.928 8.95508 107.549 8.95508C108.633 8.95508 109.553 9.37988 110.309 10.2295C111.064 11.0791 111.442 12.2627 111.442 13.7803C111.442 15.3389 111.062 16.5518 110.3 17.4189C109.538 18.2803 108.615 18.7109 107.531 18.7109C107.016 18.7109 106.547 18.6084 106.125 18.4033C105.709 18.1982 105.27 17.8467 104.807 17.3486V22.0508H102.337V9.16602ZM104.78 13.6748C104.78 14.7236 104.988 15.5 105.404 16.0039C105.82 16.502 106.327 16.751 106.925 16.751C107.499 16.751 107.977 16.5225 108.357 16.0654C108.738 15.6025 108.929 14.8467 108.929 13.7979C108.929 12.8193 108.732 12.0928 108.34 11.6182C107.947 11.1436 107.461 10.9062 106.881 10.9062C106.277 10.9062 105.776 11.1406 105.378 11.6094C104.979 12.0723 104.78 12.7607 104.78 13.6748Z"
    fill="#515560"
  />
<path
    d="M112.84 13.7012C112.84 12.8809 113.042 12.0869 113.446 11.3193C113.851 10.5518 114.422 9.96582 115.16 9.56152C115.904 9.15723 116.733 8.95508 117.647 8.95508C119.06 8.95508 120.217 9.41504 121.119 10.335C122.021 11.249 122.473 12.4062 122.473 13.8066C122.473 15.2188 122.016 16.3906 121.102 17.3223C120.193 18.248 119.048 18.7109 117.665 18.7109C116.81 18.7109 115.992 18.5176 115.213 18.1309C114.439 17.7441 113.851 17.1787 113.446 16.4346C113.042 15.6846 112.84 14.7734 112.84 13.7012ZM115.371 13.833C115.371 14.7588 115.591 15.4678 116.03 15.96C116.47 16.4521 117.012 16.6982 117.656 16.6982C118.301 16.6982 118.84 16.4521 119.273 15.96C119.713 15.4678 119.933 14.7529 119.933 13.8154C119.933 12.9014 119.713 12.1982 119.273 11.7061C118.84 11.2139 118.301 10.9678 117.656 10.9678C117.012 10.9678 116.47 11.2139 116.03 11.7061C115.591 12.1982 115.371 12.9072 115.371 13.833Z"
    fill="#515560"
  />
<path
    d="M124.318 9.16602H132.606V18.5H130.137V11.1611H126.788V18.5H124.318V9.16602Z"
    fill="#515560"
  />
<path
    d="M140.701 15.5293L143.162 15.9424C142.846 16.8447 142.345 17.5332 141.659 18.0078C140.979 18.4766 140.127 18.7109 139.102 18.7109C137.479 18.7109 136.277 18.1807 135.498 17.1201C134.883 16.2705 134.575 15.1982 134.575 13.9033C134.575 12.3564 134.979 11.1465 135.788 10.2734C136.597 9.39453 137.619 8.95508 138.855 8.95508C140.244 8.95508 141.34 9.41504 142.143 10.335C142.945 11.249 143.329 12.6523 143.294 14.5449H137.106C137.124 15.2773 137.323 15.8486 137.704 16.2588C138.085 16.6631 138.56 16.8652 139.128 16.8652C139.515 16.8652 139.84 16.7598 140.104 16.5488C140.367 16.3379 140.566 15.998 140.701 15.5293ZM140.842 13.0332C140.824 12.3184 140.64 11.7764 140.288 11.4072C139.937 11.0322 139.509 10.8447 139.005 10.8447C138.466 10.8447 138.021 11.041 137.669 11.4336C137.317 11.8262 137.145 12.3594 137.15 13.0332H140.842Z"
    fill="#515560"
  />
<path
    d="M145.254 9.16602H147.627V15.0283L151.424 9.16602H153.85V18.5H151.477V12.5322L147.627 18.5H145.254V9.16602ZM151.169 5.37793H152.373C152.303 6.1748 152.021 6.80176 151.529 7.25879C151.043 7.70996 150.41 7.93555 149.631 7.93555C148.852 7.93555 148.216 7.70996 147.724 7.25879C147.237 6.80176 146.959 6.1748 146.889 5.37793H148.093C148.134 5.79395 148.28 6.11035 148.532 6.32715C148.784 6.53809 149.15 6.64355 149.631 6.64355C150.111 6.64355 150.478 6.53809 150.729 6.32715C150.981 6.11035 151.128 5.79395 151.169 5.37793Z"
    fill="#515560"
  />
<path
    d="M164.528 11.9258L162.094 12.3652C162.012 11.8789 161.824 11.5127 161.531 11.2666C161.244 11.0205 160.869 10.8975 160.406 10.8975C159.791 10.8975 159.299 11.1113 158.93 11.5391C158.566 11.9609 158.385 12.6699 158.385 13.666C158.385 14.7734 158.569 15.5557 158.938 16.0127C159.313 16.4697 159.814 16.6982 160.441 16.6982C160.91 16.6982 161.294 16.5664 161.593 16.3027C161.892 16.0332 162.103 15.5732 162.226 14.9229L164.651 15.3359C164.399 16.4492 163.916 17.29 163.201 17.8584C162.486 18.4268 161.528 18.7109 160.327 18.7109C158.962 18.7109 157.872 18.2803 157.058 17.4189C156.249 16.5576 155.845 15.3652 155.845 13.8418C155.845 12.3008 156.252 11.1025 157.066 10.2471C157.881 9.38574 158.982 8.95508 160.371 8.95508C161.508 8.95508 162.41 9.20117 163.078 9.69336C163.752 10.1797 164.235 10.9238 164.528 11.9258Z"
    fill="#515560"
  />
<path
    d="M166.462 9.16602H168.932V13.042H171.41C172.383 13.042 173.13 13.1123 173.651 13.2529C174.173 13.3936 174.606 13.6982 174.952 14.167C175.298 14.6299 175.471 15.1689 175.471 15.7842C175.471 16.6865 175.16 17.3662 174.539 17.8232C173.924 18.2744 172.998 18.5 171.762 18.5H166.462V9.16602ZM168.932 16.9355H171.234C171.955 16.9355 172.415 16.8184 172.614 16.584C172.819 16.3496 172.922 16.0713 172.922 15.749C172.922 15.2979 172.746 14.9873 172.395 14.8174C172.049 14.6475 171.431 14.5625 170.54 14.5625H168.932V16.9355Z"
    fill="#515560"
  />
<path
    d="M177.387 9.16602H179.848V12.9805C180.258 12.9336 180.548 12.8076 180.718 12.6025C180.888 12.3975 181.093 11.9492 181.333 11.2578C181.649 10.3379 181.995 9.74902 182.37 9.49121C182.745 9.2334 183.237 9.10449 183.847 9.10449C184.034 9.10449 184.359 9.11914 184.822 9.14844L184.831 10.7832C184.181 10.7832 183.765 10.8447 183.583 10.9678C183.401 11.0967 183.205 11.4805 182.994 12.1191C182.707 12.9805 182.294 13.5107 181.755 13.71C182.534 13.9268 183.193 14.6035 183.732 15.7402C183.762 15.7988 183.794 15.8604 183.829 15.9248L185.209 18.5H182.555L181.324 15.8018C181.072 15.2568 180.853 14.9082 180.665 14.7559C180.483 14.5977 180.211 14.5186 179.848 14.5186V18.5H177.387V9.16602Z"
    fill="#515560"
  />
<path
    d="M186.439 9.16602H188.812V15.0283L192.609 9.16602H195.035V18.5H192.662V12.5322L188.812 18.5H186.439V9.16602Z"
    fill="#515560"
  />
<path
    d="M197.514 9.16602H199.887V15.0283L203.684 9.16602H206.109V18.5H203.736V12.5322L199.887 18.5H197.514V9.16602ZM203.429 5.37793H204.633C204.562 6.1748 204.281 6.80176 203.789 7.25879C203.303 7.70996 202.67 7.93555 201.891 7.93555C201.111 7.93555 200.476 7.70996 199.983 7.25879C199.497 6.80176 199.219 6.1748 199.148 5.37793H200.353C200.394 5.79395 200.54 6.11035 200.792 6.32715C201.044 6.53809 201.41 6.64355 201.891 6.64355C202.371 6.64355 202.737 6.53809 202.989 6.32715C203.241 6.11035 203.388 5.79395 203.429 5.37793Z"
    fill="#515560"
  />
<path
    d="M86.7793 33.7627L89.3018 34.5625C88.915 35.9688 88.2705 37.0146 87.3682 37.7002C86.4717 38.3799 85.332 38.7197 83.9492 38.7197C82.2383 38.7197 80.832 38.1367 79.7305 36.9707C78.6289 35.7988 78.0781 34.1992 78.0781 32.1719C78.0781 30.0273 78.6318 28.3633 79.7393 27.1797C80.8467 25.9902 82.3027 25.3955 84.1074 25.3955C85.6836 25.3955 86.9639 25.8613 87.9482 26.793C88.5342 27.3438 88.9736 28.1348 89.2666 29.166L86.6914 29.7812C86.5391 29.1133 86.2197 28.5859 85.7334 28.1992C85.2529 27.8125 84.667 27.6191 83.9756 27.6191C83.0205 27.6191 82.2441 27.9619 81.6465 28.6475C81.0547 29.333 80.7588 30.4434 80.7588 31.9785C80.7588 33.6074 81.0518 34.7676 81.6377 35.459C82.2236 36.1504 82.9854 36.4961 83.9229 36.4961C84.6143 36.4961 85.209 36.2764 85.707 35.8369C86.2051 35.3975 86.5625 34.7061 86.7793 33.7627Z"
    fill="#515560"
  />
<path
    d="M90.9541 33.7012C90.9541 32.8809 91.1562 32.0869 91.5605 31.3193C91.9648 30.5518 92.5361 29.9658 93.2744 29.5615C94.0186 29.1572 94.8477 28.9551 95.7617 28.9551C97.1738 28.9551 98.3311 29.415 99.2334 30.335C100.136 31.249 100.587 32.4062 100.587 33.8066C100.587 35.2188 100.13 36.3906 99.2158 37.3223C98.3076 38.248 97.1621 38.7109 95.7793 38.7109C94.9238 38.7109 94.1064 38.5176 93.3271 38.1309C92.5537 37.7441 91.9648 37.1787 91.5605 36.4346C91.1562 35.6846 90.9541 34.7734 90.9541 33.7012ZM93.4854 33.833C93.4854 34.7588 93.7051 35.4678 94.1445 35.96C94.584 36.4521 95.126 36.6982 95.7705 36.6982C96.415 36.6982 96.9541 36.4521 97.3877 35.96C97.8271 35.4678 98.0469 34.7529 98.0469 33.8154C98.0469 32.9014 97.8271 32.1982 97.3877 31.7061C96.9541 31.2139 96.415 30.9678 95.7705 30.9678C95.126 30.9678 94.584 31.2139 94.1445 31.7061C93.7051 32.1982 93.4854 32.9072 93.4854 33.833Z"
    fill="#515560"
  />
<path
    d="M102.512 29.166H104.981V32.9365H106.95C107.079 31.7412 107.53 30.7803 108.304 30.0537C109.083 29.3213 110.123 28.9551 111.424 28.9551C112.736 28.9551 113.812 29.3799 114.649 30.2295C115.487 31.0791 115.906 32.3037 115.906 33.9033C115.906 34.8408 115.748 35.6611 115.432 36.3643C115.121 37.0674 114.644 37.6357 113.999 38.0693C113.354 38.4971 112.514 38.7109 111.477 38.7109C109.982 38.7109 108.869 38.3066 108.137 37.498C107.404 36.6836 107.009 35.8164 106.95 34.8965H104.981V38.5H102.512V29.166ZM111.389 30.8799C110.703 30.8799 110.202 31.0996 109.886 31.5391C109.575 31.9785 109.42 32.6787 109.42 33.6396C109.42 34.8701 109.587 35.7021 109.921 36.1357C110.261 36.5635 110.773 36.7773 111.459 36.7773C112.092 36.7773 112.566 36.5371 112.883 36.0566C113.199 35.5703 113.357 34.8438 113.357 33.877C113.357 32.6934 113.185 31.8994 112.839 31.4951C112.499 31.085 112.016 30.8799 111.389 30.8799Z"
    fill="#515560"
  />
<path
    d="M120.424 34.668V33.0596C120.852 33.0596 121.162 33.0332 121.355 32.9805C121.549 32.9219 121.73 32.7871 121.9 32.5762C122.076 32.3594 122.164 32.1133 122.164 31.8379C122.164 31.5449 122.056 31.2754 121.839 31.0293C121.628 30.7773 121.309 30.6514 120.881 30.6514C120.553 30.6514 120.26 30.7217 120.002 30.8623C119.744 31.0029 119.51 31.3369 119.299 31.8643L117.207 31.416C117.418 30.5957 117.869 29.9805 118.561 29.5703C119.252 29.1602 120.04 28.9551 120.925 28.9551C122.05 28.9551 122.92 29.2129 123.535 29.7285C124.156 30.2441 124.467 30.8916 124.467 31.6709C124.467 32.1572 124.332 32.5615 124.062 32.8838C123.799 33.2002 123.38 33.4961 122.806 33.7715C123.497 33.959 124.013 34.2432 124.353 34.624C124.698 35.0049 124.871 35.4795 124.871 36.0479C124.871 36.7744 124.531 37.4014 123.852 37.9287C123.172 38.4502 122.193 38.7109 120.916 38.7109C118.689 38.7109 117.327 37.8408 116.829 36.1006L119.088 35.6875C119.451 36.6016 120.052 37.0586 120.89 37.0586C121.353 37.0586 121.722 36.9385 121.997 36.6982C122.278 36.4521 122.419 36.165 122.419 35.8369C122.419 35.4736 122.272 35.1895 121.979 34.9844C121.692 34.7734 121.314 34.668 120.846 34.668H120.424Z"
    fill="#515560"
  />
<rect width="66" height="44" fill="#003399" />
<path
    fill-rule="evenodd"
    clip-rule="evenodd"
    d="M30.745 7.15L32.1383 8.1675L31.6067 9.82667L33 8.8L34.3933 9.82667L33.8617 8.1675L35.255 7.15H33.5317L33 5.5L32.4683 7.15H30.745ZM34.3933 38.5L33.8617 36.85L35.255 35.8325H33.5317L33 34.1733L32.4683 35.8325H30.745L32.1383 36.85L31.6067 38.5L33 37.4825L34.3933 38.5ZM18.755 23.1L17.3617 24.1267L17.8933 22.4767L16.5 21.4867H18.2233L18.755 19.8367L19.2867 21.4867H21.0192L19.6167 22.5133L20.1483 24.1633L18.755 23.1367V23.1ZM27.2708 11.7333L26.7392 10.0833L28.1325 9.075H26.4092L25.8775 7.425L25.3458 9.075H23.6225L25.0158 10.0925L24.4842 11.7425L25.8775 10.725L27.2708 11.7333ZM20.1667 14.3183L20.6983 12.6683L21.2392 14.3183H22.9167L21.5233 15.345L22.055 16.995L20.6525 15.9683L19.25 16.995L19.7817 15.345L18.3883 14.3183H20.1667ZM20.6983 27.005L20.1667 28.655H18.4067H18.3883L19.7817 29.6817L19.25 31.3317L20.6525 30.3142L22.055 31.3317L21.5233 29.6817L22.9167 28.655H21.2392L20.6983 27.005ZM25.0158 34.925L23.6225 33.9167H25.3458L25.8775 32.2667L26.4092 33.9167H28.1325L26.7392 34.925L27.2708 36.575L25.8775 35.5575L24.4842 36.575L25.0158 34.925ZM48.6383 24.1633L48.1067 22.5133L49.5 21.4867H47.8133L47.2817 19.8367L46.75 21.4867H44.9625L46.365 22.5133L45.8333 24.1633L47.245 23.1367L48.6383 24.1633ZM39.2608 10.0833L37.8675 9.075H39.5908L40.1225 7.425L40.6542 9.075H42.3775L40.9842 10.0833L41.5158 11.7333L40.1225 10.725L38.7292 11.7425L39.2608 10.0925V10.0833ZM45.3017 12.6592L44.7608 14.3092L43.0833 14.3183L44.4675 15.345L43.9358 16.995L45.3383 15.9683L46.7317 16.995L46.2 15.345L47.5567 14.3092H45.8333L45.3017 12.6592ZM45.8792 28.655H47.5567L46.2 29.6817L46.7317 31.3317L45.3383 30.3142L43.9358 31.3317L44.4675 29.6817L43.0833 28.655H44.8067L45.3475 27.005L45.8792 28.655ZM40.9842 34.925L42.3775 33.9167H40.6542L40.1225 32.2667L39.5908 33.9167H37.8675L39.2608 34.925L38.7292 36.575L40.1225 35.5575L41.5158 36.575L40.9842 34.925Z"
    fill="#FFCC00"
  />
</svg>
