<?xml version="1.0" encoding="UTF-8" ?>
<svg
  width="175px"
  height="48px"
  viewBox="0 0 175 48"
  version="1.1"
  xmlns="http://www.w3.org/2000/svg"
  xmlns:xlink="http://www.w3.org/1999/xlink"
>
    <!-- Generator: Sketch 64 (93537) - https://sketch.com -->
    <title>EU/EU-emblem/standard-version/positive/FI</title>
    <desc>Created with Sketch.</desc>
    <g
    id="EU/EU-emblem/standard-version/positive/FI"
    stroke="none"
    stroke-width="1"
    fill="none"
    fill-rule="evenodd"
  >
        <g id="EU-emblem_standard">
            <g id="EU/EU-emblem/flag/flag-positive">
                <g id="EU_flag">
                    <rect
            id="🌈-flag"
            fill="#003399"
            fill-rule="nonzero"
            x="0"
            y="0"
            width="72"
            height="48"
          />
                    <path
            d="M35.06,8.91 L33.54,7.8 L35.42,7.8 L36,6 L36.58,7.8 L38.46,7.8 L36.94,8.91 L37.52,10.72 L36,9.6 L34.48,10.72 L35.06,8.91 L35.06,8.91 Z M36.94,40.2 L37.52,42 L36,40.89 L34.48,42 L35.06,40.2 L33.54,39.09 L35.42,39.09 L36,37.28 L36.58,39.09 L38.46,39.09 L36.94,40.2 Z M20.46,25.2 L18.94,26.32 L19.52,24.52 L18,23.44 L19.88,23.44 L20.46,21.64 L21.04,23.44 L22.93,23.44 L21.4,24.56 L21.98,26.36 L20.46,25.24 L20.46,25.2 Z M29.17,11 L29.75,12.8 L28.23,11.7 L26.71,12.81 L27.29,11.01 L25.77,9.9 L27.65,9.9 L28.23,8.1 L28.81,9.9 L30.69,9.9 L29.17,11 Z M22,15.62 L22.58,13.82 L23.17,15.62 L25,15.62 L23.48,16.74 L24.06,18.54 L22.53,17.42 L21,18.54 L21.58,16.74 L20.06,15.62 L22,15.62 Z M20.08,31.26 L22,31.26 L22.58,29.46 L23.17,31.26 L25,31.26 L23.48,32.38 L24.06,34.18 L22.53,33.07 L21,34.18 L21.58,32.38 L20.06,31.26 L20.08,31.26 Z M27.29,38.1 L25.77,37 L27.65,37 L28.23,35.2 L28.81,37 L30.69,37 L29.17,38.1 L29.75,39.9 L28.23,38.79 L26.71,39.9 L27.29,38.1 Z M52.48,24.56 L53.06,26.36 L51.54,25.24 L50,26.36 L50.58,24.56 L49.05,23.44 L51,23.44 L51.58,21.64 L52.16,23.44 L54,23.44 L52.48,24.56 Z M42.83,11 L41.31,9.9 L43.19,9.9 L43.77,8.1 L44.35,9.9 L46.23,9.9 L44.71,11 L45.29,12.8 L43.77,11.7 L42.25,12.81 L42.83,11.01 L42.83,11 Z M48.83,15.61 L49.42,13.81 L50,15.61 L51.88,15.61 L50.4,16.74 L50.98,18.54 L49.46,17.42 L47.93,18.54 L48.51,16.74 L47,15.62 L48.83,15.61 Z M50,31.26 L51.88,31.26 L50.4,32.38 L50.98,34.18 L49.46,33.07 L47.93,34.18 L48.51,32.38 L47,31.26 L48.88,31.26 L49.47,29.46 L50.05,31.26 L50,31.26 Z M46.23,37 L44.71,38.1 L45.29,39.9 L43.77,38.79 L42.25,39.9 L42.83,38.1 L41.31,37 L43.19,37 L43.77,35.2 L44.35,37 L46.23,37 Z"
            id="🌈-stars"
            fill="#FFCC00"
            fill-rule="nonzero"
          />
                </g>
            </g>
            <g
        id="🌈-unioni"
        transform="translate(83.959900, 27.689000)"
        fill="#515560"
      >
                <path
          d="M6.885,14.3167 L6.885,12.7637 C6.507,13.3167 6.011,13.7537 5.396,14.0727 C4.781,14.3917 4.131,14.5507 3.447,14.5507 C2.751,14.5507 2.126,14.3987 1.573,14.0917 C1.019,13.7857 0.618,13.3567 0.371,12.8027 C0.124,12.2497 -3.62376795e-13,11.4847 -3.62376795e-13,10.5077 L-3.62376795e-13,3.9457 L2.744,3.9457 L2.744,8.7117 C2.744,10.1697 2.795,11.0637 2.896,11.3917 C2.996,11.7207 3.181,11.9817 3.447,12.1727 C3.714,12.3647 4.053,12.4617 4.463,12.4617 C4.932,12.4617 5.352,12.3327 5.723,12.0757 C6.094,11.8177 6.348,11.4997 6.485,11.1187 C6.621,10.7377 6.69,9.8047 6.69,8.3207 L6.69,3.9457 L9.434,3.9457 L9.434,14.3167 L6.885,14.3167 Z"
          id="Fill-3"
        />
                <path
          d="M21.7093,14.3167 L18.9653,14.3167 L18.9653,9.0237 C18.9653,7.9037 18.9063,7.1797 18.7893,6.8507 C18.6723,6.5227 18.4813,6.2667 18.2183,6.0847 C17.9543,5.9017 17.6373,5.8107 17.2663,5.8107 C16.7903,5.8107 16.3643,5.9417 15.9863,6.2017 C15.6083,6.4617 15.3503,6.8067 15.2103,7.2367 C15.0703,7.6667 15.0003,8.4607 15.0003,9.6197 L15.0003,14.3167 L12.2563,14.3167 L12.2563,3.9457 L14.8053,3.9457 L14.8053,5.4687 C15.7103,4.2967 16.8493,3.7117 18.2233,3.7117 C18.8283,3.7117 19.3823,3.8197 19.8833,4.0387 C20.3843,4.2567 20.7643,4.5347 21.0213,4.8737 C21.2773,5.2117 21.4573,5.5957 21.5583,6.0257 C21.6583,6.4557 21.7093,7.0707 21.7093,7.8717 L21.7093,14.3167 Z"
          id="Fill-5"
        />
                <path
          d="M23.9921,14.317 L26.7361,14.317 L26.7361,3.946 L23.9921,3.946 L23.9921,14.317 Z M23.9921,2.539 L26.7361,2.539 L26.7361,-4.50306459e-13 L23.9921,-4.50306459e-13 L23.9921,2.539 Z"
          id="Fill-7"
        />
                <path
          d="M31.2268,9.1311 C31.2268,10.1601 31.4708,10.9471 31.9588,11.4941 C32.4478,12.0411 33.0498,12.3151 33.7658,12.3151 C34.4818,12.3151 35.0818,12.0411 35.5678,11.4941 C36.0528,10.9471 36.2948,10.1531 36.2948,9.1111 C36.2948,8.0961 36.0528,7.3151 35.5678,6.7681 C35.0818,6.2211 34.4818,5.9471 33.7658,5.9471 C33.0498,5.9471 32.4478,6.2211 31.9588,6.7681 C31.4708,7.3151 31.2268,8.1021 31.2268,9.1311 M28.4138,8.9851 C28.4138,8.0731 28.6388,7.1911 29.0878,6.3381 C29.5378,5.4851 30.1738,4.8341 30.9978,4.3851 C31.8208,3.9361 32.7408,3.7111 33.7558,3.7111 C35.3258,3.7111 36.6108,4.2201 37.6138,5.2391 C38.6168,6.2581 39.1178,7.5461 39.1178,9.1021 C39.1178,10.6711 38.6118,11.9711 37.5988,13.0031 C36.5858,14.0351 35.3118,14.5511 33.7758,14.5511 C32.8258,14.5511 31.9178,14.3361 31.0558,13.9061 C30.1938,13.4771 29.5378,12.8471 29.0878,12.0171 C28.6388,11.1871 28.4138,10.1761 28.4138,8.9851"
          id="Fill-9"
        />
                <path
          d="M50.1995,14.3167 L47.4555,14.3167 L47.4555,9.0237 C47.4555,7.9037 47.3965,7.1797 47.2795,6.8507 C47.1625,6.5227 46.9715,6.2667 46.7085,6.0847 C46.4445,5.9017 46.1275,5.8107 45.7565,5.8107 C45.2805,5.8107 44.8545,5.9417 44.4765,6.2017 C44.0985,6.4617 43.8405,6.8067 43.7005,7.2367 C43.5605,7.6667 43.4905,8.4607 43.4905,9.6197 L43.4905,14.3167 L40.7465,14.3167 L40.7465,3.9457 L43.2955,3.9457 L43.2955,5.4687 C44.2005,4.2967 45.3395,3.7117 46.7135,3.7117 C47.3185,3.7117 47.8725,3.8197 48.3735,4.0387 C48.8745,4.2567 49.2545,4.5347 49.5115,4.8737 C49.7675,5.2117 49.9475,5.5957 50.0485,6.0257 C50.1485,6.4557 50.1995,7.0707 50.1995,7.8717 L50.1995,14.3167 Z"
          id="Fill-10"
        />
                <path
          d="M52.9831,14.317 L55.7271,14.317 L55.7271,3.946 L52.9831,3.946 L52.9831,14.317 Z M52.9831,2.539 L55.7271,2.539 L55.7271,-4.50306459e-13 L52.9831,-4.50306459e-13 L52.9831,2.539 Z"
          id="Fill-11"
        />
            </g>
            <g
        id="🌈-Euroopan"
        transform="translate(84.030500, 6.010000)"
        fill="#515560"
      >
                <polygon
          id="Fill-12"
          points="-3.90798505e-13 14.316 -3.90798505e-13 3.55271368e-13 10.615 3.55271368e-13 10.615 2.421 2.891 2.421 2.891 5.595 10.078 5.595 10.078 8.007 2.891 8.007 2.891 11.904 10.889 11.904 10.889 14.316"
        />
                <path
          d="M19.8662,14.316 L19.8662,12.763 C19.4882,13.316 18.9922,13.753 18.3772,14.072 C17.7622,14.391 17.1122,14.55 16.4282,14.55 C15.7322,14.55 15.1072,14.398 14.5542,14.091 C14.0002,13.785 13.5992,13.356 13.3522,12.802 C13.1052,12.249 12.9812,11.484 12.9812,10.507 L12.9812,3.945 L15.7252,3.945 L15.7252,8.711 C15.7252,10.169 15.7762,11.063 15.8772,11.391 C15.9772,11.72 16.1622,11.981 16.4282,12.172 C16.6952,12.364 17.0342,12.461 17.4442,12.461 C17.9132,12.461 18.3332,12.332 18.7042,12.075 C19.0752,11.817 19.3292,11.499 19.4662,11.118 C19.6022,10.737 19.6712,9.804 19.6712,8.32 L19.6712,3.945 L22.4152,3.945 L22.4152,14.316 L19.8662,14.316 Z"
          id="Fill-13"
        />
                <path
          d="M27.584,14.316 L24.84,14.316 L24.84,3.945 L27.389,3.945 L27.389,5.42 C27.825,4.723 28.217,4.264 28.565,4.043 C28.914,3.821 29.31,3.711 29.752,3.711 C30.377,3.711 30.98,3.883 31.559,4.228 L30.709,6.621 C30.247,6.321 29.817,6.171 29.42,6.171 C29.036,6.171 28.71,6.277 28.443,6.489 C28.177,6.7 27.967,7.083 27.813,7.636 C27.66,8.19 27.584,9.349 27.584,11.113 L27.584,14.316 Z"
          id="Fill-14"
        />
                <path
          d="M34.6182,9.1304 C34.6182,10.1594 34.8622,10.9464 35.3502,11.4934 C35.8392,12.0404 36.4412,12.3144 37.1572,12.3144 C37.8732,12.3144 38.4732,12.0404 38.9592,11.4934 C39.4442,10.9464 39.6862,10.1524 39.6862,9.1104 C39.6862,8.0954 39.4442,7.3144 38.9592,6.7674 C38.4732,6.2204 37.8732,5.9464 37.1572,5.9464 C36.4412,5.9464 35.8392,6.2204 35.3502,6.7674 C34.8622,7.3144 34.6182,8.1014 34.6182,9.1304 M31.8052,8.9844 C31.8052,8.0724 32.0302,7.1904 32.4792,6.3374 C32.9292,5.4844 33.5652,4.8334 34.3892,4.3844 C35.2122,3.9354 36.1322,3.7104 37.1472,3.7104 C38.7172,3.7104 40.0022,4.2194 41.0052,5.2384 C42.0082,6.2574 42.5092,7.5454 42.5092,9.1014 C42.5092,10.6704 42.0032,11.9704 40.9902,13.0024 C39.9772,14.0344 38.7032,14.5504 37.1672,14.5504 C36.2172,14.5504 35.3092,14.3354 34.4472,13.9054 C33.5852,13.4764 32.9292,12.8464 32.4792,12.0164 C32.0302,11.1864 31.8052,10.1754 31.8052,8.9844"
          id="Fill-15"
        />
                <path
          d="M46.5351,9.1304 C46.5351,10.1594 46.7791,10.9464 47.2671,11.4934 C47.7561,12.0404 48.3581,12.3144 49.0741,12.3144 C49.7901,12.3144 50.3901,12.0404 50.8761,11.4934 C51.3611,10.9464 51.6031,10.1524 51.6031,9.1104 C51.6031,8.0954 51.3611,7.3144 50.8761,6.7674 C50.3901,6.2204 49.7901,5.9464 49.0741,5.9464 C48.3581,5.9464 47.7561,6.2204 47.2671,6.7674 C46.7791,7.3144 46.5351,8.1014 46.5351,9.1304 M43.7221,8.9844 C43.7221,8.0724 43.9471,7.1904 44.3961,6.3374 C44.8461,5.4844 45.4821,4.8334 46.3061,4.3844 C47.1291,3.9354 48.0491,3.7104 49.0641,3.7104 C50.6341,3.7104 51.9191,4.2194 52.9221,5.2384 C53.9251,6.2574 54.4261,7.5454 54.4261,9.1014 C54.4261,10.6704 53.9201,11.9704 52.9071,13.0024 C51.8941,14.0344 50.6201,14.5504 49.0841,14.5504 C48.1341,14.5504 47.2261,14.3354 46.3641,13.9054 C45.5021,13.4764 44.8461,12.8464 44.3961,12.0164 C43.9471,11.1864 43.7221,10.1754 43.7221,8.9844"
          id="Fill-16"
        />
                <path
          d="M58.8711,8.9546 C58.8711,10.1206 59.1021,10.9806 59.5641,11.5376 C60.0261,12.0946 60.5901,12.3726 61.2541,12.3726 C61.8921,12.3726 62.4231,12.1176 62.8461,11.6056 C63.2681,11.0946 63.4801,10.2566 63.4801,9.0916 C63.4801,8.0036 63.2631,7.1966 62.8261,6.6696 C62.3901,6.1416 61.8501,5.8786 61.2051,5.8786 C60.5341,5.8786 59.9771,6.1376 59.5351,6.6546 C59.0931,7.1726 58.8711,7.9386 58.8711,8.9546 L58.8711,8.9546 Z M56.1561,3.9446 L58.7151,3.9446 L58.7151,5.4686 C59.0471,4.9476 59.4961,4.5246 60.0621,4.1986 C60.6291,3.8726 61.2571,3.7106 61.9471,3.7106 C63.1511,3.7106 64.1741,4.1826 65.0141,5.1266 C65.8531,6.0706 66.2731,7.3856 66.2731,9.0716 C66.2731,10.8036 65.8501,12.1496 65.0041,13.1096 C64.1571,14.0706 63.1321,14.5506 61.9281,14.5506 C61.3541,14.5506 60.8361,14.4366 60.3701,14.2086 C59.9041,13.9806 59.4151,13.5896 58.9001,13.0366 L58.9001,18.2616 L56.1561,18.2616 L56.1561,3.9446 Z"
          id="Fill-17"
        />
                <path
          d="M73.9736,9.3355 C73.6216,9.4525 73.0656,9.5925 72.3036,9.7555 C71.5416,9.9185 71.0436,10.0775 70.8096,10.2335 C70.4516,10.4875 70.2726,10.8105 70.2726,11.2005 C70.2726,11.5855 70.4156,11.9175 70.7026,12.1965 C70.9886,12.4765 71.3536,12.6165 71.7956,12.6165 C72.2906,12.6165 72.7626,12.4545 73.2116,12.1285 C73.5436,11.8805 73.7616,11.5785 73.8666,11.2205 C73.9376,10.9855 73.9736,10.5405 73.9736,9.8825 L73.9736,9.3355 Z M70.3016,7.1085 L67.8116,6.6595 C68.0916,5.6575 68.5736,4.9155 69.2566,4.4335 C69.9406,3.9515 70.9556,3.7105 72.3036,3.7105 C73.5276,3.7105 74.4396,3.8555 75.0376,4.1455 C75.6366,4.4345 76.0586,4.8025 76.3026,5.2485 C76.5466,5.6945 76.6686,6.5135 76.6686,7.7045 L76.6396,10.9075 C76.6396,11.8195 76.6836,12.4915 76.7716,12.9245 C76.8596,13.3575 77.0236,13.8215 77.2646,14.3155 L74.5496,14.3155 C74.4786,14.1335 74.3906,13.8635 74.2856,13.5055 C74.2406,13.3425 74.2076,13.2355 74.1886,13.1835 C73.7196,13.6385 73.2186,13.9805 72.6846,14.2085 C72.1506,14.4365 71.5806,14.5505 70.9756,14.5505 C69.9086,14.5505 69.0666,14.2605 68.4516,13.6815 C67.8356,13.1015 67.5286,12.3695 67.5286,11.4835 C67.5286,10.8975 67.6676,10.3755 67.9486,9.9165 C68.2286,9.4575 68.6196,9.1065 69.1246,8.8615 C69.6296,8.6175 70.3576,8.4045 71.3076,8.2225 C72.5896,7.9815 73.4786,7.7565 73.9736,7.5485 L73.9736,7.2745 C73.9736,6.7475 73.8436,6.3715 73.5826,6.1475 C73.3226,5.9225 72.8306,5.8105 72.1086,5.8105 C71.6196,5.8105 71.2396,5.9065 70.9656,6.0985 C70.6926,6.2905 70.4706,6.6275 70.3016,7.1085 L70.3016,7.1085 Z"
          id="Fill-18"
        />
                <path
          d="M89.0078,14.316 L86.2638,14.316 L86.2638,9.023 C86.2638,7.903 86.2048,7.179 86.0878,6.85 C85.9708,6.522 85.7798,6.266 85.5168,6.084 C85.2528,5.901 84.9358,5.81 84.5648,5.81 C84.0888,5.81 83.6628,5.941 83.2848,6.201 C82.9068,6.461 82.6488,6.806 82.5088,7.236 C82.3688,7.666 82.2988,8.46 82.2988,9.619 L82.2988,14.316 L79.5548,14.316 L79.5548,3.945 L82.1038,3.945 L82.1038,5.468 C83.0088,4.296 84.1478,3.711 85.5218,3.711 C86.1268,3.711 86.6808,3.819 87.1818,4.038 C87.6828,4.256 88.0628,4.534 88.3198,4.873 C88.5758,5.211 88.7558,5.595 88.8568,6.025 C88.9568,6.455 89.0078,7.07 89.0078,7.871 L89.0078,14.316 Z"
          id="Fill-19"
        />
            </g>
        </g>
    </g>
</svg>
