<?xml version="1.0" encoding="UTF-8" ?>
<svg
  width="189px"
  height="48px"
  viewBox="0 0 189 48"
  version="1.1"
  xmlns="http://www.w3.org/2000/svg"
  xmlns:xlink="http://www.w3.org/1999/xlink"
>
    <!-- Generator: Sketch 64 (93537) - https://sketch.com -->
    <title>EU/EU-emblem/standard-version/positive/SV</title>
    <desc>Created with Sketch.</desc>
    <g
    id="EU/EU-emblem/standard-version/positive/SV"
    stroke="none"
    stroke-width="1"
    fill="none"
    fill-rule="evenodd"
  >
        <g id="EU-emblem_standard">
            <g id="EU/EU-emblem/flag/flag-positive">
                <g id="EU_flag">
                    <rect
            id="🌈-flag"
            fill="#003399"
            fill-rule="nonzero"
            x="0"
            y="0"
            width="72"
            height="48"
          />
                    <path
            d="M35.06,8.91 L33.54,7.8 L35.42,7.8 L36,6 L36.58,7.8 L38.46,7.8 L36.94,8.91 L37.52,10.72 L36,9.6 L34.48,10.72 L35.06,8.91 L35.06,8.91 Z M36.94,40.2 L37.52,42 L36,40.89 L34.48,42 L35.06,40.2 L33.54,39.09 L35.42,39.09 L36,37.28 L36.58,39.09 L38.46,39.09 L36.94,40.2 Z M20.46,25.2 L18.94,26.32 L19.52,24.52 L18,23.44 L19.88,23.44 L20.46,21.64 L21.04,23.44 L22.93,23.44 L21.4,24.56 L21.98,26.36 L20.46,25.24 L20.46,25.2 Z M29.17,11 L29.75,12.8 L28.23,11.7 L26.71,12.81 L27.29,11.01 L25.77,9.9 L27.65,9.9 L28.23,8.1 L28.81,9.9 L30.69,9.9 L29.17,11 Z M22,15.62 L22.58,13.82 L23.17,15.62 L25,15.62 L23.48,16.74 L24.06,18.54 L22.53,17.42 L21,18.54 L21.58,16.74 L20.06,15.62 L22,15.62 Z M20.08,31.26 L22,31.26 L22.58,29.46 L23.17,31.26 L25,31.26 L23.48,32.38 L24.06,34.18 L22.53,33.07 L21,34.18 L21.58,32.38 L20.06,31.26 L20.08,31.26 Z M27.29,38.1 L25.77,37 L27.65,37 L28.23,35.2 L28.81,37 L30.69,37 L29.17,38.1 L29.75,39.9 L28.23,38.79 L26.71,39.9 L27.29,38.1 Z M52.48,24.56 L53.06,26.36 L51.54,25.24 L50,26.36 L50.58,24.56 L49.05,23.44 L51,23.44 L51.58,21.64 L52.16,23.44 L54,23.44 L52.48,24.56 Z M42.83,11 L41.31,9.9 L43.19,9.9 L43.77,8.1 L44.35,9.9 L46.23,9.9 L44.71,11 L45.29,12.8 L43.77,11.7 L42.25,12.81 L42.83,11.01 L42.83,11 Z M48.83,15.61 L49.42,13.81 L50,15.61 L51.88,15.61 L50.4,16.74 L50.98,18.54 L49.46,17.42 L47.93,18.54 L48.51,16.74 L47,15.62 L48.83,15.61 Z M50,31.26 L51.88,31.26 L50.4,32.38 L50.98,34.18 L49.46,33.07 L47.93,34.18 L48.51,32.38 L47,31.26 L48.88,31.26 L49.47,29.46 L50.05,31.26 L50,31.26 Z M46.23,37 L44.71,38.1 L45.29,39.9 L43.77,38.79 L42.25,39.9 L42.83,38.1 L41.31,37 L43.19,37 L43.77,35.2 L44.35,37 L46.23,37 Z"
            id="🌈-stars"
            fill="#FFCC00"
            fill-rule="nonzero"
          />
                </g>
            </g>
            <g
        id="🌈-unionen"
        transform="translate(83.960100, 27.689000)"
        fill="#515560"
      >
                <path
          d="M6.885,14.3168 L6.885,12.7638 C6.507,13.3168 6.011,13.7538 5.396,14.0728 C4.781,14.3918 4.131,14.5508 3.447,14.5508 C2.751,14.5508 2.126,14.3988 1.573,14.0918 C1.019,13.7858 0.618,13.3568 0.371,12.8028 C0.124,12.2498 -3.62376795e-13,11.4848 -3.62376795e-13,10.5078 L-3.62376795e-13,3.9458 L2.744,3.9458 L2.744,8.7118 C2.744,10.1698 2.795,11.0638 2.896,11.3918 C2.996,11.7208 3.181,11.9818 3.447,12.1728 C3.714,12.3648 4.053,12.4618 4.463,12.4618 C4.932,12.4618 5.352,12.3328 5.723,12.0758 C6.094,11.8178 6.348,11.4998 6.485,11.1188 C6.621,10.7378 6.69,9.8048 6.69,8.3208 L6.69,3.9458 L9.434,3.9458 L9.434,14.3168 L6.885,14.3168 Z"
          id="Fill-3"
        />
                <path
          d="M21.7093,14.3168 L18.9653,14.3168 L18.9653,9.0238 C18.9653,7.9038 18.9063,7.1798 18.7893,6.8508 C18.6723,6.5228 18.4813,6.2668 18.2183,6.0848 C17.9543,5.9018 17.6373,5.8108 17.2663,5.8108 C16.7903,5.8108 16.3643,5.9418 15.9863,6.2018 C15.6083,6.4618 15.3503,6.8068 15.2103,7.2368 C15.0703,7.6668 15.0003,8.4608 15.0003,9.6198 L15.0003,14.3168 L12.2563,14.3168 L12.2563,3.9458 L14.8053,3.9458 L14.8053,5.4688 C15.7103,4.2968 16.8493,3.7118 18.2233,3.7118 C18.8283,3.7118 19.3823,3.8198 19.8833,4.0388 C20.3843,4.2568 20.7643,4.5348 21.0213,4.8738 C21.2773,5.2118 21.4573,5.5958 21.5583,6.0258 C21.6583,6.4558 21.7093,7.0708 21.7093,7.8718 L21.7093,14.3168 Z"
          id="Fill-5"
        />
                <path
          d="M23.9929,14.317 L26.7369,14.317 L26.7369,3.946 L23.9929,3.946 L23.9929,14.317 Z M23.9929,2.539 L26.7369,2.539 L26.7369,-4.50306459e-13 L23.9929,-4.50306459e-13 L23.9929,2.539 Z"
          id="Fill-7"
        />
                <path
          d="M31.2268,9.1313 C31.2268,10.1603 31.4708,10.9473 31.9588,11.4943 C32.4478,12.0413 33.0498,12.3153 33.7658,12.3153 C34.4818,12.3153 35.0818,12.0413 35.5678,11.4943 C36.0528,10.9473 36.2948,10.1533 36.2948,9.1113 C36.2948,8.0963 36.0528,7.3153 35.5678,6.7683 C35.0818,6.2213 34.4818,5.9473 33.7658,5.9473 C33.0498,5.9473 32.4478,6.2213 31.9588,6.7683 C31.4708,7.3153 31.2268,8.1023 31.2268,9.1313 M28.4138,8.9853 C28.4138,8.0733 28.6388,7.1913 29.0878,6.3383 C29.5378,5.4853 30.1738,4.8343 30.9978,4.3853 C31.8208,3.9363 32.7408,3.7113 33.7558,3.7113 C35.3258,3.7113 36.6108,4.2203 37.6138,5.2393 C38.6168,6.2583 39.1178,7.5463 39.1178,9.1023 C39.1178,10.6713 38.6118,11.9713 37.5988,13.0033 C36.5858,14.0353 35.3118,14.5513 33.7758,14.5513 C32.8258,14.5513 31.9178,14.3363 31.0558,13.9063 C30.1938,13.4773 29.5378,12.8473 29.0878,12.0173 C28.6388,11.1873 28.4138,10.1763 28.4138,8.9853"
          id="Fill-9"
        />
                <path
          d="M50.1995,14.3168 L47.4555,14.3168 L47.4555,9.0238 C47.4555,7.9038 47.3965,7.1798 47.2795,6.8508 C47.1625,6.5228 46.9715,6.2668 46.7085,6.0848 C46.4445,5.9018 46.1275,5.8108 45.7565,5.8108 C45.2805,5.8108 44.8545,5.9418 44.4765,6.2018 C44.0985,6.4618 43.8405,6.8068 43.7005,7.2368 C43.5605,7.6668 43.4905,8.4608 43.4905,9.6198 L43.4905,14.3168 L40.7465,14.3168 L40.7465,3.9458 L43.2955,3.9458 L43.2955,5.4688 C44.2005,4.2968 45.3395,3.7118 46.7135,3.7118 C47.3185,3.7118 47.8725,3.8198 48.3735,4.0388 C48.8745,4.2568 49.2545,4.5348 49.5115,4.8738 C49.7675,5.2118 49.9475,5.5958 50.0485,6.0258 C50.1485,6.4558 50.1995,7.0708 50.1995,7.8718 L50.1995,14.3168 Z"
          id="Fill-10"
        />
                <path
          d="M59.1448,8.2426 C59.1248,7.4486 58.9198,6.8446 58.5298,6.4306 C58.1388,6.0176 57.6638,5.8106 57.1038,5.8106 C56.5048,5.8106 56.0098,6.0296 55.6198,6.4656 C55.2288,6.9016 55.0368,7.4936 55.0428,8.2426 L59.1448,8.2426 Z M58.9888,11.0156 L61.7228,11.4746 C61.3718,12.4776 60.8168,13.2416 60.0578,13.7646 C59.2988,14.2886 58.3508,14.5516 57.2108,14.5516 C55.4078,14.5516 54.0738,13.9616 53.2078,12.7836 C52.5238,11.8396 52.1818,10.6486 52.1818,9.2096 C52.1818,7.4906 52.6308,6.1446 53.5298,5.1716 C54.4278,4.1986 55.5638,3.7116 56.9378,3.7116 C58.4808,3.7116 59.6988,4.2206 60.5898,5.2396 C61.4818,6.2586 61.9088,7.8196 61.8698,9.9226 L54.9948,9.9226 C55.0138,10.7366 55.2358,11.3686 55.6588,11.8216 C56.0818,12.2746 56.6088,12.5006 57.2408,12.5006 C57.6698,12.5006 58.0318,12.3836 58.3248,12.1486 C58.6178,11.9146 58.8388,11.5366 58.9888,11.0156 L58.9888,11.0156 Z"
          id="Fill-11"
        />
                <path
          d="M73.2395,14.3168 L70.4955,14.3168 L70.4955,9.0238 C70.4955,7.9038 70.4365,7.1798 70.3195,6.8508 C70.2025,6.5228 70.0115,6.2668 69.7485,6.0848 C69.4845,5.9018 69.1675,5.8108 68.7965,5.8108 C68.3205,5.8108 67.8945,5.9418 67.5165,6.2018 C67.1385,6.4618 66.8805,6.8068 66.7405,7.2368 C66.6005,7.6668 66.5305,8.4608 66.5305,9.6198 L66.5305,14.3168 L63.7865,14.3168 L63.7865,3.9458 L66.3355,3.9458 L66.3355,5.4688 C67.2405,4.2968 68.3795,3.7118 69.7535,3.7118 C70.3585,3.7118 70.9125,3.8198 71.4135,4.0388 C71.9145,4.2568 72.2945,4.5348 72.5515,4.8738 C72.8075,5.2118 72.9875,5.5958 73.0885,6.0258 C73.1885,6.4558 73.2395,7.0708 73.2395,7.8718 L73.2395,14.3168 Z"
          id="Fill-12"
        />
            </g>
            <g
        id="🌈-Europeiska"
        transform="translate(84.030700, 6.009000)"
        fill="#515560"
      >
                <polygon
          id="Fill-13"
          points="-3.90798505e-13 14.3166 -3.90798505e-13 0.000600000001 10.615 0.000600000001 10.615 2.4216 2.891 2.4216 2.891 5.5956 10.078 5.5956 10.078 8.0076 2.891 8.0076 2.891 11.9046 10.889 11.9046 10.889 14.3166"
        />
                <path
          d="M19.8662,14.3166 L19.8662,12.7636 C19.4882,13.3176 18.9922,13.7546 18.3772,14.0726 C17.7622,14.3916 17.1122,14.5506 16.4282,14.5506 C15.7322,14.5506 15.1072,14.3986 14.5542,14.0916 C14.0002,13.7866 13.5992,13.3566 13.3522,12.8026 C13.1052,12.2506 12.9812,11.4846 12.9812,10.5076 L12.9812,3.9456 L15.7252,3.9456 L15.7252,8.7116 C15.7252,10.1706 15.7762,11.0636 15.8772,11.3916 C15.9772,11.7206 16.1622,11.9816 16.4282,12.1726 C16.6952,12.3656 17.0342,12.4616 17.4442,12.4616 C17.9132,12.4616 18.3332,12.3336 18.7042,12.0756 C19.0752,11.8186 19.3292,11.4996 19.4662,11.1186 C19.6022,10.7376 19.6712,9.8046 19.6712,8.3206 L19.6712,3.9456 L22.4152,3.9456 L22.4152,14.3166 L19.8662,14.3166 Z"
          id="Fill-14"
        />
                <path
          d="M27.584,14.3166 L24.84,14.3166 L24.84,3.9456 L27.389,3.9456 L27.389,5.4206 C27.825,4.7236 28.217,4.2646 28.565,4.0436 C28.914,3.8226 29.31,3.7116 29.752,3.7116 C30.377,3.7116 30.98,3.8836 31.559,4.2286 L30.709,6.6216 C30.247,6.3226 29.817,6.1716 29.42,6.1716 C29.036,6.1716 28.71,6.2786 28.443,6.4896 C28.177,6.7016 27.967,7.0846 27.813,7.6366 C27.66,8.1906 27.584,9.3496 27.584,11.1136 L27.584,14.3166 Z"
          id="Fill-15"
        />
                <path
          d="M34.6181,9.1311 C34.6181,10.1601 34.8621,10.9471 35.3501,11.4941 C35.8391,12.0411 36.4411,12.3151 37.1571,12.3151 C37.8731,12.3151 38.4731,12.0411 38.9591,11.4941 C39.4441,10.9471 39.6861,10.1531 39.6861,9.1111 C39.6861,8.0961 39.4441,7.3151 38.9591,6.7681 C38.4731,6.2211 37.8731,5.9471 37.1571,5.9471 C36.4411,5.9471 35.8391,6.2211 35.3501,6.7681 C34.8621,7.3151 34.6181,8.1031 34.6181,9.1311 M31.8051,8.9851 C31.8051,8.0731 32.0301,7.1921 32.4791,6.3381 C32.9291,5.4851 33.5651,4.8341 34.3891,4.3851 C35.2121,3.9361 36.1321,3.7111 37.1471,3.7111 C38.7171,3.7111 40.0021,4.2211 41.0051,5.2391 C42.0081,6.2591 42.5091,7.5461 42.5091,9.1021 C42.5091,10.6711 42.0031,11.9721 40.9901,13.0031 C39.9771,14.0351 38.7031,14.5511 37.1671,14.5511 C36.2171,14.5511 35.3091,14.3361 34.4471,13.9061 C33.5851,13.4771 32.9291,12.8471 32.4791,12.0171 C32.0301,11.1871 31.8051,10.1761 31.8051,8.9851"
          id="Fill-16"
        />
                <path
          d="M46.9541,8.9553 C46.9541,10.1213 47.1851,10.9813 47.6471,11.5383 C48.1091,12.0953 48.6731,12.3733 49.3371,12.3733 C49.9751,12.3733 50.5061,12.1183 50.9291,11.6063 C51.3511,11.0963 51.5631,10.2583 51.5631,9.0923 C51.5631,8.0053 51.3461,7.1973 50.9091,6.6703 C50.4731,6.1423 49.9331,5.8793 49.2881,5.8793 C48.6171,5.8793 48.0601,6.1383 47.6181,6.6553 C47.1761,7.1733 46.9541,7.9393 46.9541,8.9553 L46.9541,8.9553 Z M44.2391,3.9453 L46.7981,3.9453 L46.7981,5.4693 C47.1301,4.9483 47.5791,4.5253 48.1451,4.1993 C48.7121,3.8743 49.3401,3.7113 50.0301,3.7113 C51.2341,3.7113 52.2571,4.1843 53.0971,5.1273 C53.9361,6.0713 54.3561,7.3873 54.3561,9.0723 C54.3561,10.8053 53.9331,12.1503 53.0871,13.1103 C52.2401,14.0713 51.2151,14.5513 50.0111,14.5513 C49.4371,14.5513 48.9191,14.4373 48.4531,14.2093 C47.9871,13.9813 47.4981,13.5913 46.9831,13.0373 L46.9831,18.2623 L44.2391,18.2623 L44.2391,3.9453 Z"
          id="Fill-17"
        />
                <path
          d="M62.4961,8.2424 C62.4761,7.4484 62.2711,6.8454 61.8811,6.4304 C61.4901,6.0174 61.0151,5.8104 60.4551,5.8104 C59.8561,5.8104 59.3611,6.0294 58.9711,6.4654 C58.5801,6.9014 58.3881,7.4944 58.3941,8.2424 L62.4961,8.2424 Z M62.3401,11.0154 L65.0741,11.4744 C64.7231,12.4774 64.1681,13.2414 63.4091,13.7644 C62.6501,14.2894 61.7021,14.5514 60.5621,14.5514 C58.7591,14.5514 57.4251,13.9624 56.5591,12.7834 C55.8751,11.8404 55.5331,10.6484 55.5331,9.2094 C55.5331,7.4904 55.9821,6.1444 56.8811,5.1714 C57.7791,4.1984 58.9151,3.7114 60.2891,3.7114 C61.8321,3.7114 63.0501,4.2214 63.9411,5.2394 C64.8331,6.2594 65.2601,7.8194 65.2211,9.9224 L58.3461,9.9224 C58.3651,10.7364 58.5871,11.3694 59.0101,11.8214 C59.4331,12.2744 59.9601,12.5004 60.5921,12.5004 C61.0211,12.5004 61.3831,12.3834 61.6761,12.1484 C61.9691,11.9144 62.1901,11.5374 62.3401,11.0154 L62.3401,11.0154 Z"
          id="Fill-18"
        />
                <path
          d="M67.3573,14.317 L70.1013,14.317 L70.1013,3.946 L67.3573,3.946 L67.3573,14.317 Z M67.3573,2.539 L70.1013,2.539 L70.1013,-4.51194637e-13 L67.3573,-4.51194637e-13 L67.3573,2.539 Z"
          id="Fill-19"
        />
                <path
          d="M71.5469,11.3576 L74.3009,10.9376 C74.4179,11.4716 74.6549,11.8776 75.0139,12.1536 C75.3719,12.4306 75.8729,12.5686 76.5179,12.5686 C77.2279,12.5686 77.7609,12.4386 78.1189,12.1776 C78.3599,11.9966 78.4809,11.7526 78.4809,11.4456 C78.4809,11.2376 78.4149,11.0646 78.2849,10.9276 C78.1489,10.7976 77.8429,10.6776 77.3669,10.5666 C75.1529,10.0786 73.7509,9.6326 73.1579,9.2286 C72.3379,8.6696 71.9279,7.8906 71.9279,6.8946 C71.9279,5.9966 72.2819,5.2416 72.9919,4.6286 C73.7019,4.0176 74.8019,3.7116 76.2929,3.7116 C77.7119,3.7116 78.7669,3.9426 79.4569,4.4046 C80.1479,4.8676 80.6219,5.5506 80.8829,6.4556 L78.2949,6.9336 C78.1849,6.5306 77.9749,6.2206 77.6649,6.0056 C77.3559,5.7916 76.9149,5.6836 76.3419,5.6836 C75.6189,5.6836 75.1019,5.7856 74.7889,5.9866 C74.5809,6.1296 74.4769,6.3156 74.4769,6.5436 C74.4769,6.7386 74.5679,6.9046 74.7499,7.0416 C74.9969,7.2236 75.8519,7.4806 77.3139,7.8126 C78.7759,8.1446 79.7959,8.5516 80.3749,9.0336 C80.9479,9.5216 81.2349,10.2026 81.2349,11.0746 C81.2349,12.0256 80.8369,12.8416 80.0429,13.5256 C79.2489,14.2096 78.0729,14.5506 76.5179,14.5506 C75.1049,14.5506 73.9859,14.2646 73.1629,13.6916 C72.3399,13.1196 71.8009,12.3406 71.5469,11.3576"
          id="Fill-20"
        />
                <polygon
          id="Fill-21"
          points="83.1387 14.3166 83.1387 0.000600000001 85.8827 0.000600000001 85.8827 7.5976 89.0957 3.9456 92.4747 3.9456 88.9297 7.7346 92.7287 14.3166 89.7697 14.3166 87.1617 9.6586 85.8827 10.9966 85.8827 14.3166"
        />
                <path
          d="M100.082,9.3362 C99.73,9.4532 99.174,9.5942 98.412,9.7562 C97.65,9.9192 97.152,10.0782 96.918,10.2342 C96.56,10.4882 96.381,10.8112 96.381,11.2012 C96.381,11.5862 96.524,11.9182 96.811,12.1972 C97.097,12.4782 97.462,12.6172 97.904,12.6172 C98.399,12.6172 98.871,12.4552 99.32,12.1292 C99.652,11.8822 99.87,11.5792 99.975,11.2212 C100.046,10.9862 100.082,10.5412 100.082,9.8832 L100.082,9.3362 Z M96.41,7.1092 L93.92,6.6602 C94.2,5.6582 94.682,4.9162 95.365,4.4342 C96.049,3.9522 97.064,3.7112 98.412,3.7112 C99.636,3.7112 100.548,3.8572 101.146,4.1462 C101.745,4.4362 102.167,4.8042 102.411,5.2492 C102.655,5.6952 102.777,6.5142 102.777,7.7052 L102.748,10.9082 C102.748,11.8202 102.792,12.4922 102.88,12.9252 C102.968,13.3582 103.132,13.8222 103.373,14.3162 L100.658,14.3162 C100.587,14.1352 100.499,13.8642 100.394,13.5062 C100.349,13.3442 100.316,13.2362 100.297,13.1842 C99.828,13.6402 99.327,13.9822 98.793,14.2092 C98.259,14.4382 97.689,14.5512 97.084,14.5512 C96.017,14.5512 95.175,14.2622 94.56,13.6822 C93.944,13.1032 93.637,12.3702 93.637,11.4842 C93.637,10.8982 93.776,10.3762 94.057,9.9172 C94.337,9.4582 94.728,9.1072 95.233,8.8622 C95.738,8.6182 96.466,8.4052 97.416,8.2232 C98.698,7.9822 99.587,7.7582 100.082,7.5492 L100.082,7.2752 C100.082,6.7482 99.952,6.3722 99.691,6.1482 C99.431,5.9232 98.939,5.8112 98.217,5.8112 C97.728,5.8112 97.348,5.9072 97.074,6.0992 C96.801,6.2912 96.579,6.6282 96.41,7.1092 L96.41,7.1092 Z"
          id="Fill-22"
        />
            </g>
        </g>
    </g>
</svg>
