<svg width="24" height="24" xmlns="http://www.w3.org/2000/svg" xmlns:xlink="http://www.w3.org/1999/xlink"><defs><path d="M15.086 18.175H8.913v-1.508h1.508v-4.665H8.913v-1.507h4.665v6.172h1.576v1.508h-.068zM10.42 7c0-.617.548-1.166 1.165-1.166h.754c.617 0 1.165.549 1.165 1.166v.753c0 .617-.548 1.165-1.165 1.165h-.754c-.617 0-1.165-.548-1.165-1.165V7zM11.998.005A11.97 11.97 0 0 0 0 12.002 11.97 11.97 0 0 0 11.998 24a11.97 11.97 0 0 0 11.997-11.998c0-6.647-5.414-11.997-11.998-11.997z" id="a"/></defs><use xlink:href="#a"/></svg>