<?xml version="1.0" encoding="UTF-8"?>
<svg width="24px" height="24px" viewBox="0 0 24 24" version="1.1" xmlns="http://www.w3.org/2000/svg" xmlns:xlink="http://www.w3.org/1999/xlink">
    <!-- Generator: Sketch 51.2 (57519) - http://www.bohemiancoding.com/sketch -->
    <title>Icons/24x24/Notifications/Icon_Error</title>
    <desc>Created with Sketch.</desc>
    <defs>
        <path d="M13.5755351,12.2060524 L16.0423483,14.6728658 C16.1793936,14.809911 16.1793936,15.0154788 16.0423483,15.1525239 L15.1515547,16.0433177 C15.0145095,16.1803628 14.8089417,16.1803628 14.6718965,16.0433177 L12.2050831,13.5765043 C12.068038,13.4394591 11.8624701,13.4394591 11.725425,13.5765043 L9.25861162,16.0433177 C9.12156644,16.1803628 8.91599865,16.1803628 8.77895347,16.0433177 L7.88815975,15.1525239 C7.75111457,15.0154788 7.75111457,14.809911 7.88815975,14.6728658 L10.3549732,12.2060524 C10.4920183,12.0690072 10.4920183,11.8634395 10.3549732,11.7263942 L7.88815975,9.25958088 C7.75111457,9.1225357 7.75111457,8.91696791 7.88815975,8.77992273 L8.77895347,7.88912901 C8.91599865,7.75208383 9.12156644,7.75208383 9.25861162,7.88912901 L11.725425,10.3559424 C11.8624701,10.4929875 12.068038,10.4929875 12.2050831,10.3559424 L14.6718965,7.88912901 C14.8089417,7.75208383 15.0145095,7.75208383 15.1515547,7.88912901 L16.0423483,8.77992273 C16.1793936,8.91696791 16.1793936,9.1225357 16.0423483,9.25958088 L13.5755351,11.7263942 C13.4384898,11.931962 13.4384898,12.0690072 13.5755351,12.2060524 Z M16.9331421,0.005 L6.99333529,0.005 L0,7.06685788 L0,17.0066647 L7.06185788,24 L17.0016647,24 L23.995,16.9381421 L23.995,7.06685788 L16.9331421,0.005 Z" id="path-1"></path>
    </defs>
    <g id="Icons/24x24/Notifications/Icon_Error" stroke="none" stroke-width="1" fill="none" fill-rule="evenodd">
        <mask id="mask-2" fill="white">
            <use xlink:href="#path-1"></use>
        </mask>
        <use id="Mask" fill="#000000" fill-rule="nonzero" xlink:href="#path-1"></use>
    </g>
</svg>