<?xml version="1.0" encoding="UTF-8"?>
<svg width="24px" height="24px" viewBox="0 0 24 24" version="1.1" xmlns="http://www.w3.org/2000/svg" xmlns:xlink="http://www.w3.org/1999/xlink">
    <!-- Generator: Sketch 51.2 (57519) - http://www.bohemiancoding.com/sketch -->
    <title>Icons/24x24/Notifications/Icon_Information</title>
    <desc>Created with Sketch.</desc>
    <defs>
        <path d="M15.0855662,18.174601 L8.91346522,18.174601 L8.91346522,16.6668507 L10.4212156,16.6668507 L10.4212156,12.0025 L8.91346522,12.0025 L8.91346522,10.4947497 L13.5778159,10.4947497 L13.5778159,16.6668507 L15.1541003,16.6668507 L15.1541003,18.174601 L15.0855662,18.174601 Z M10.4212156,6.99951025 C10.4212156,6.38270329 10.9694884,5.83443044 11.5862954,5.83443044 L12.3401705,5.83443044 C12.9569775,5.83443044 13.5052503,6.38270329 13.5052503,6.99951025 L13.5052503,7.75338542 C13.5052503,8.37019237 12.9569775,8.91846522 12.3401705,8.91846522 L11.5862954,8.91846522 C10.9694884,8.91846522 10.4212156,8.37019237 10.4212156,7.75338542 L10.4212156,6.99951025 Z M11.9975,0.005 C5.3496917,0.005 0,5.3546917 0,12.0025 C0,18.6503083 5.3496917,24 11.9975,24 C18.6453083,24 23.995,18.6503083 23.995,12.0025 C23.995,5.3546917 18.5808056,0.005 11.9975,0.005 Z" id="path-1"></path>
    </defs>
    <g id="Icons/24x24/Notifications/Icon_Information" stroke="none" stroke-width="1" fill="none" fill-rule="evenodd">
        <mask id="mask-2" fill="white">
            <use xlink:href="#path-1"></use>
        </mask>
        <use id="Mask" fill="#000000" fill-rule="nonzero" xlink:href="#path-1"></use>
    </g>
</svg>