<?xml version="1.0" encoding="UTF-8"?>
<svg width="24px" height="24px" viewBox="0 0 24 24" version="1.1" xmlns="http://www.w3.org/2000/svg" xmlns:xlink="http://www.w3.org/1999/xlink">
    <!-- Generator: Sketch 51.2 (57519) - http://www.bohemiancoding.com/sketch -->
    <title>Icons/24x24/Notifications/Icon_Success</title>
    <desc>Created with Sketch.</desc>
    <defs>
        <path d="M17.4157258,9.53527217 L10.7638861,15.9129754 C10.6268179,16.0500437 10.4212156,16.0500437 10.2841473,15.9129754 L9.32466986,14.953498 L8.84493111,14.4737592 L6.58330561,12.1435996 C6.5147715,12.0750655 6.5147715,12.0065315 6.5147715,11.8694632 C6.5147715,11.8009291 6.58330561,11.732395 6.58330561,11.6638609 L7.61131721,10.7729175 C7.67985131,10.7043834 7.74838542,10.7043834 7.88545362,10.7043834 C7.95398773,10.7043834 8.09105595,10.7043834 8.15959005,10.7729175 L10.2841473,13.034543 C10.4212156,13.1716112 10.6268179,13.1716112 10.7638861,13.034543 L15.9079754,8.09605595 C16.0450437,7.95898773 16.250646,7.95898773 16.3877142,8.09605595 L17.3471917,9.05553343 C17.552794,9.19260165 17.552794,9.39820396 17.4157258,9.53527217 M11.9975,0.005 C5.3496917,0.005 0,5.3546917 0,12.0025 C0,18.6503083 5.3496917,24 11.9975,24 C18.6453083,24 23.995,18.6503083 23.995,12.0025 C23.995,5.3546917 18.6493397,0.005 11.9975,0.005" id="path-1"></path>
    </defs>
    <g id="Icons/24x24/Notifications/Icon_Success" stroke="none" stroke-width="1" fill="none" fill-rule="evenodd">
        <mask id="mask-2" fill="white">
            <use xlink:href="#path-1"></use>
        </mask>
        <use id="Mask" fill="#000000" fill-rule="nonzero" xlink:href="#path-1"></use>
    </g>
</svg>