<?xml version="1.0" encoding="UTF-8"?>
<svg width="460px" height="345px" viewBox="0 0 460 345" version="1.1" xmlns="http://www.w3.org/2000/svg" xmlns:xlink="http://www.w3.org/1999/xlink">
    <title>eu_comp_accordion</title>
    <g id="thumbnails---final" stroke="none" stroke-width="1" fill="none" fill-rule="evenodd">
        <g id="EU-thumbnails---final_symbols" transform="translate(-20.000000, -20.000000)">
            <g id="eu_comp_accordion" transform="translate(20.000000, 20.000000)">
                <g id="Group" transform="translate(80.000000, 70.000000)">
                    <polygon id="Fill-3" stroke-opacity="0.2" stroke="#0E47CB" fill="#FFFFFF" points="-4.54747351e-13 120 300 120 300 50 -4.54747351e-13 50"></polygon>
                    <polygon id="Fill-2" stroke-opacity="0.2" stroke="#0E47CB" points="0 174 300 174 300 124 0 124"></polygon>
                    <path d="M8,228 L292,228 C296.418278,228 300,224.418278 300,220 L300,178 L300,178 L0,178 L0,220 C5.41083001e-16,224.418278 3.581722,228 8,228 Z" id="Fill-2" stroke-opacity="0.2" stroke="#0E47CB"></path>
                    <polygon id="Fill-2" fill="#0E47CB" points="0 120 5 120 5 50 0 50"></polygon>
                    <g id="Group-4" transform="translate(-0.000000, 0.000000)">
                        <path d="M0,50 L300,50 L300,8 C300,3.581722 296.418278,-8.11624501e-16 292,0 L8,0 C3.581722,8.11624501e-16 -5.41083001e-16,3.581722 0,8 L0,50 L0,50 Z" id="Fill-2" stroke-opacity="0.2" stroke="#0E47CB" fill="#FFFFFF"></path>
                        <path d="M14,4 L38,4 C40.209139,4 42,2.209139 42,0 L42,0 L42,0 L10,0 C10,2.209139 11.790861,4 14,4 Z" id="Fill-2" fill="#FFCC00"></path>
                        <g id="Group-16" transform="translate(10.000000, 20.000000)" fill="#404040">
                            <polygon id="Fill-10" points="0 10 212 10 212 0 0 0"></polygon>
                            <path d="M266.683592,-1.21091077 C266.738279,-1.26559814 266.811196,-1.29294183 266.902342,-1.29294183 C266.993487,-1.29294183 267.075518,-1.26559814 267.148435,-1.21091077 L272.863265,4.53126304 C272.936182,4.58595041 272.97264,4.65886704 272.97264,4.75001252 C272.97264,4.84115799 272.936182,4.91407463 272.863265,4.968762 L267.148435,10.7109358 C267.075518,10.7656232 266.993487,10.7929669 266.902342,10.7929669 C266.811196,10.7929669 266.738279,10.7656232 266.683592,10.7109358 L266.136718,10.1640621 C266.063802,10.1093747 266.027344,10.0364581 266.027344,9.94531263 C266.027344,9.85416715 266.063802,9.7721361 266.136718,9.69921947 L271.085925,4.75001252 L266.136718,-0.199194433 C266.063802,-0.272111065 266.027344,-0.354142119 266.027344,-0.445287596 C266.027344,-0.536433073 266.063802,-0.609349705 266.136718,-0.664037075 L266.683592,-1.21091077 Z" id="" fill-rule="nonzero" transform="translate(269.499992, 4.750013) rotate(-90.000000) translate(-269.499992, -4.750013) "></path>
                        </g>
                    </g>
                    <g id="Group-9" transform="translate(10.000000, 144.000000)" fill="#404040">
                        <polygon id="Fill-10" points="0 10 213 10 213 0 0 0"></polygon>
                        <path d="M266.683592,-1.21091077 C266.738279,-1.26559814 266.811196,-1.29294183 266.902342,-1.29294183 C266.993487,-1.29294183 267.075518,-1.26559814 267.148435,-1.21091077 L272.863265,4.53126304 C272.936182,4.58595041 272.97264,4.65886704 272.97264,4.75001252 C272.97264,4.84115799 272.936182,4.91407463 272.863265,4.968762 L267.148435,10.7109358 C267.075518,10.7656232 266.993487,10.7929669 266.902342,10.7929669 C266.811196,10.7929669 266.738279,10.7656232 266.683592,10.7109358 L266.136718,10.1640621 C266.063802,10.1093747 266.027344,10.0364581 266.027344,9.94531263 C266.027344,9.85416715 266.063802,9.7721361 266.136718,9.69921947 L271.085925,4.75001252 L266.136718,-0.199194433 C266.063802,-0.272111065 266.027344,-0.354142119 266.027344,-0.445287596 C266.027344,-0.536433073 266.063802,-0.609349705 266.136718,-0.664037075 L266.683592,-1.21091077 Z" id="" fill-rule="nonzero" transform="translate(269.499992, 4.750013) rotate(-270.000000) translate(-269.499992, -4.750013) "></path>
                    </g>
                    <g id="Group-10" transform="translate(10.000000, 198.000000)" fill="#404040">
                        <polygon id="Fill-10" points="0 10 179 10 179 0 0 0"></polygon>
                        <path d="M266.683592,-1.21091077 C266.738279,-1.26559814 266.811196,-1.29294183 266.902342,-1.29294183 C266.993487,-1.29294183 267.075518,-1.26559814 267.148435,-1.21091077 L272.863265,4.53126304 C272.936182,4.58595041 272.97264,4.65886704 272.97264,4.75001252 C272.97264,4.84115799 272.936182,4.91407463 272.863265,4.968762 L267.148435,10.7109358 C267.075518,10.7656232 266.993487,10.7929669 266.902342,10.7929669 C266.811196,10.7929669 266.738279,10.7656232 266.683592,10.7109358 L266.136718,10.1640621 C266.063802,10.1093747 266.027344,10.0364581 266.027344,9.94531263 C266.027344,9.85416715 266.063802,9.7721361 266.136718,9.69921947 L271.085925,4.75001252 L266.136718,-0.199194433 C266.063802,-0.272111065 266.027344,-0.354142119 266.027344,-0.445287596 C266.027344,-0.536433073 266.063802,-0.609349705 266.136718,-0.664037075 L266.683592,-1.21091077 Z" id="" fill-rule="nonzero" transform="translate(269.499992, 4.750013) rotate(-270.000000) translate(-269.499992, -4.750013) "></path>
                    </g>
                    <polygon id="Fill-8" fill="#CFCFCF" points="10 68 290 68 290 58 10 58"></polygon>
                    <polygon id="Fill-8-Copy" fill="#CFCFCF" points="10 88 240 88 240 78 10 78"></polygon>
                    <polygon id="Fill-8-Copy-2" fill="#CFCFCF" points="10 108 102 108 102 98 10 98"></polygon>
                </g>
            </g>
        </g>
    </g>
</svg>