<svg
  width="460"
  height="345"
  viewBox="0 0 460 345"
  fill="none"
  xmlns="http://www.w3.org/2000/svg"
>
<rect
    x="81"
    y="113"
    width="298"
    height="119"
    stroke="#004494"
    stroke-width="2"
  />
<path
    fill-rule="evenodd"
    clip-rule="evenodd"
    d="M120 138H266V128H120V138Z"
    fill="#404040"
  />
<path
    fill-rule="evenodd"
    clip-rule="evenodd"
    d="M96 158H335V154H96V158Z"
    fill="#CFCFCF"
  />
<path
    fill-rule="evenodd"
    clip-rule="evenodd"
    d="M96 170H279V166H96V170Z"
    fill="#CFCFCF"
  />
<path
    fill-rule="evenodd"
    clip-rule="evenodd"
    d="M96 182H335V178H96V182Z"
    fill="#CFCFCF"
  />
<path
    fill-rule="evenodd"
    clip-rule="evenodd"
    d="M360.327 133L363.847 136.52C363.949 136.656 364 136.81 364 136.98C364 137.15 363.949 137.286 363.847 137.388L363.388 137.847C363.286 137.949 363.15 138 362.98 138C362.81 138 362.656 137.949 362.52 137.847L359 134.276L355.48 137.847C355.344 137.949 355.19 138 355.02 138C354.85 138 354.714 137.949 354.612 137.847L354.153 137.388C354.051 137.286 354 137.15 354 136.98C354 136.81 354.051 136.656 354.153 136.52L357.724 133L354.153 129.48C354.051 129.344 354 129.19 354 129.02C354 128.85 354.051 128.714 354.153 128.612L354.612 128.153C354.714 128.051 354.85 128 355.02 128C355.19 128 355.344 128.051 355.48 128.153L359 131.673L362.52 128.153C362.656 128.051 362.81 128 362.98 128C363.15 128 363.286 128.051 363.388 128.153L363.847 128.612C363.949 128.714 364 128.85 364 129.02C364 129.19 363.949 129.344 363.847 129.48L360.327 133Z"
    fill="#004494"
  />
<rect x="96" y="198" width="53" height="18.9286" fill="#004494" />
<path
    fill-rule="evenodd"
    clip-rule="evenodd"
    d="M111.9 209.357H133.479V205.571H111.9V209.357Z"
    fill="white"
  />
<rect
    x="157"
    y="198"
    width="53"
    height="18.9286"
    stroke="#004494"
    stroke-width="2"
  />
<path
    fill-rule="evenodd"
    clip-rule="evenodd"
    d="M172.9 209.357H194.479V205.571H172.9V209.357Z"
    fill="#004494"
  />
<path
    fill-rule="evenodd"
    clip-rule="evenodd"
    d="M107 125.283C105.468 124.428 103.801 124 102 124C100.199 124 98.5323 124.428 97 125.283C95.4677 126.139 94.2513 127.294 93.3508 128.75C92.4503 130.206 92 131.789 92 133.5C92 135.211 92.4503 136.794 93.3508 138.25C94.2513 139.706 95.4677 140.861 97 141.717C98.5323 142.572 100.199 143 102 143C103.801 143 105.468 142.572 107 141.717C108.532 140.861 109.749 139.706 110.649 138.25C111.55 136.794 112 135.211 112 133.5C112 131.789 111.55 130.206 110.649 128.75C109.749 127.294 108.532 126.139 107 125.283ZM97.625 126.337C98.9557 125.596 100.414 125.226 102 125.226C103.559 125.226 105.011 125.596 106.355 126.337C107.699 127.077 108.761 128.08 109.54 129.344C110.32 130.608 110.71 131.993 110.71 133.5C110.71 135.007 110.32 136.392 109.54 137.656C108.761 138.92 107.706 139.923 106.375 140.663C105.044 141.404 103.586 141.774 102 141.774C100.414 141.774 98.9557 141.404 97.625 140.663C96.2944 139.923 95.2393 138.92 94.4597 137.656C93.6801 136.392 93.2903 135.007 93.2903 133.5C93.2903 131.993 93.6801 130.608 94.4597 129.344C95.2393 128.08 96.2944 127.077 97.625 126.337ZM101.032 137.177V132.581H100.548C100.414 132.581 100.3 132.536 100.206 132.447C100.112 132.357 100.064 132.249 100.064 132.121V131.814C100.064 131.687 100.112 131.578 100.206 131.489C100.3 131.399 100.414 131.355 100.548 131.355H102.484C102.618 131.355 102.732 131.399 102.827 131.489C102.921 131.578 102.968 131.687 102.968 131.814V137.177H103.452C103.586 137.177 103.7 137.222 103.794 137.311C103.888 137.401 103.935 137.509 103.935 137.637V137.944C103.935 138.071 103.888 138.18 103.794 138.269C103.7 138.358 103.586 138.403 103.452 138.403H100.548C100.414 138.403 100.3 138.358 100.206 138.269C100.112 138.18 100.064 138.071 100.064 137.944V137.637C100.064 137.509 100.112 137.401 100.206 137.311C100.3 137.222 100.414 137.177 100.548 137.177H101.032ZM102.907 128.348C102.652 128.105 102.349 127.984 102 127.984C101.651 127.984 101.348 128.105 101.093 128.348C100.837 128.59 100.71 128.878 100.71 129.21C100.71 129.542 100.837 129.829 101.093 130.072C101.348 130.314 101.651 130.435 102 130.435C102.349 130.435 102.652 130.314 102.907 130.072C103.163 129.829 103.29 129.542 103.29 129.21C103.29 128.878 103.163 128.59 102.907 128.348Z"
    fill="#004494"
  />
</svg>
