<svg width="24" height="24" xmlns="http://www.w3.org/2000/svg" xmlns:xlink="http://www.w3.org/1999/xlink"><defs><path d="M12.846 2.3c-1.212.305-2.19.84-2.781 1.747-2.279.408-5.322.332-7.417-.35C2.127 3.527 1 3.133 1 2.649c0-.587 1.553-1.026 2.214-1.196 2.979-.772 7.65-.6 9.632.847zm-1.692 2.077c1.004-1.205 2.948-1.368 4.998-1.617 1.913-.233 4.176.16 5.648.758.423.172 1.2.513 1.2.909-.002.615-1.9 1.18-2.5 1.315-2.096.464-4.806.445-6.847-.052-1.016-.247-2.063-.48-2.5-1.313zM1 4.385c2.004 1.193 5.527 1.482 8.462 1.004v2.168C6.449 7.997 2.679 7.85 1 6.182V4.385zm10.154 1.692c2.981 1.567 8.843 1.651 11.802 0-.106.45.139 1.17 0 1.69-.19.71-1.696 1.12-2.54 1.322-3.037.73-7.77.437-9.262-1.321V6.077zM1 7.769c2.044 1.204 5.558 1.514 8.462 1.004v2.164c-2.998.44-6.812.314-8.462-1.372V7.769zm10.154 1.693c2.912 1.578 8.858 1.675 11.747 0-.022.424.192 1.141.05 1.69-.182.7-1.661 1.123-2.489 1.32-3.046.724-7.76.446-9.308-1.267V9.462zm0 3.384c2.872 1.565 8.93 1.624 11.787 0 .117.479.017 1.18.051 1.744-.639.728-1.694.99-2.848 1.23-1.027.217-2.445.593-3.695.309-.329-.075-.685-.468-1.1-.667-1.159-.553-2.682-.795-4.195-.975v-1.64zM9.183 16.27c1.978-.13 4.159.054 5.798.717.55.222 1.255.556 1.25.92-.012.617-1.953 1.204-2.5 1.33-2.176.513-4.723.496-6.847 0-.745-.171-2.487-.713-2.5-1.33-.011-.618 1.435-1.014 2-1.177 1.052-.302 1.792-.394 2.799-.46zm-4.798 3.345c2.97 1.61 8.87 1.592 11.846 0v1.733c-2.438 2.19-9.415 2.215-11.846 0v-1.733z" id="a"/></defs><use xlink:href="#a"/></svg>