<svg width="24" height="24" xmlns="http://www.w3.org/2000/svg" xmlns:xlink="http://www.w3.org/1999/xlink"><defs><path d="M5.23 4.058V2.494C5.23 1.668 5.977 1 6.898 1c.92 0 1.666.668 1.666 1.494v1.564c0 .825-.746 1.494-1.666 1.494-.92 0-1.666-.67-1.666-1.494zm10.155 0V2.494c0-.826.745-1.494 1.666-1.494.92 0 1.666.668 1.666 1.494v1.564c0 .825-.746 1.494-1.666 1.494-.92 0-1.666-.67-1.666-1.494zm4.23 15.908h-2.538V17.69h2.538v2.276zm0-3.794h-2.538v-2.275h2.538v2.275zm0-3.793h-2.538v-2.276h2.538v2.276zm-4.23 7.587h-2.539V17.69h2.539v2.276zm0-3.794h-2.539v-2.275h2.539v2.275zm0-3.793h-2.539v-2.276h2.539v2.276zm-4.231 7.587H8.615V17.69h2.539v2.276zm0-3.794H8.615v-2.275h2.539v2.275zm0-3.793H8.615v-2.276h2.539v2.276zm-4.23 7.587h-2.54V17.69h2.54v2.276zm0-3.794h-2.54v-2.275h2.54v2.275zm0-3.793h-2.54v-2.276h2.54v2.276zm14.854-4.046H2.222v13.445h19.556V8.332zM2.692 23C1.758 23 1 22.32 1 21.483V4.793c0-.838.758-1.517 1.692-1.517h1.693v.758c0 1.258 1.136 2.276 2.538 2.276s2.539-1.018 2.539-2.276v-.758h5.076v.758c0 1.258 1.138 2.276 2.539 2.276 1.401 0 2.538-1.018 2.538-2.276v-.758h1.693c.934 0 1.692.679 1.692 1.517v16.69C23 22.32 22.242 23 21.308 23H2.692z" id="a"/></defs><use xlink:href="#a"/></svg>