<svg width="24" height="24" xmlns="http://www.w3.org/2000/svg" xmlns:xlink="http://www.w3.org/1999/xlink"><path d="m14.975 16.461c-.163-1.489-1.447-2.648-3.006-2.648h-3.723c-1.67 0-3.024 1.329-3.024 2.968v.255c-2.657-1.537-4.444-4.412-4.444-7.703 0-4.906 3.973-8.889 8.88-8.889 4.915 0 8.898 3.983 8.898 8.889 0 2.917-1.407 5.507-3.581 7.128zm-5.286 1.761c-.01 0-.021 0-.031 0-.011 0-.021 0-.031 0zm-.022-12.444c-1.964 0-3.556 1.592-3.556 3.556s1.592 3.555 3.556 3.555c1.963 0 3.555-1.591 3.555-3.555s-1.592-3.556-3.555-3.556zm5.497 16.889-4.323-4.215c-.541-.527-.541-1.382 0-1.91.541-.527 1.418-.527 1.959 0l2.375 2.315 6.465-6.235c.544-.524 1.421-.52 1.96.011.538.53.533 1.385-.011 1.91z"/></svg>