<?xml version="1.0" encoding="UTF-8"?>
<svg width="78px" height="36px" viewBox="0 0 78 36" version="1.1" xmlns="http://www.w3.org/2000/svg" xmlns:xlink="http://www.w3.org/1999/xlink">
    <!-- Generator: Sketch 55.1 (78136) - https://sketchapp.com -->
    <title>Links</title>
    <desc>Created with Sketch.</desc>
    <g id="thumbnails---final" stroke="none" stroke-width="1" fill="none" fill-rule="evenodd">
        <g id="thumbnails---final_symbols" transform="translate(-1171.000000, -2365.000000)">
            <g id="Group-2" transform="translate(20.000000, 20.000000)">
                <g id="Group-21" transform="translate(0.000000, 2190.000000)">
                    <g id="ec_comp_links" transform="translate(960.000000, 0.000000)">
                        <g id="Links_v2" transform="translate(191.000000, 155.000000)">
                            <g id="Group-3">
                                <g id="Group-7-Copy" transform="translate(9.000000, 0.000000)" fill="#044695">
                                    <g id="Stacked-Group">
                                        <g id="Simple-link">
                                            <g id="Group">
                                                <polygon id="Decoration" fill-rule="nonzero" points="0 12 0 11 60 11 60 12"></polygon>
                                                <polygon id="Fill-10-Copy-2" points="0 10 60 10 60 0 0 0"></polygon>
                                            </g>
                                        </g>
                                    </g>
                                </g>
                                <g id="Group-2" transform="translate(0.000000, 22.000000)">
                                    <g id="Group-7-Copy-3" transform="translate(0.000000, 1.000000)" fill="#044695">
                                        <g id="Stacked-Group">
                                            <g id="Simple-link">
                                                <g id="Group">
                                                    <polygon id="Decoration" fill-rule="nonzero" points="0 12 0 11 60 11 60 12"></polygon>
                                                    <polygon id="Fill-10-Copy-2" points="0 10 60 10 60 0 0 0"></polygon>
                                                </g>
                                            </g>
                                        </g>
                                    </g>
                                    <g id="Group-7-Copy-2" transform="translate(64.000000, 0.000000)" fill="#004494">
                                        <g id="Stacked-Group">
                                            <path d="M0,0 L5.25,0.029285768 L5.25,1.7536388 L1.77905,1.7536388 L1.77905,12.2752962 L12.25,12.2752962 L12.25,8.79747977 L14,8.79747977 L14,14 L0,14 L0,0 Z M7.22399087,0 L14,0 L14,6.75109852 L11.4626458,4.22313921 L7.67174872,8 L6,6.33479803 L9.76134506,2.58755827 L7.22399087,0 Z" id="Combined-Shape"></path>
                                        </g>
                                    </g>
                                </g>
                            </g>
                        </g>
                    </g>
                </g>
            </g>
        </g>
    </g>
</svg>
