<?xml version="1.0" encoding="UTF-8"?>
<svg width="460px" height="345px" viewBox="0 0 460 345" version="1.1" xmlns="http://www.w3.org/2000/svg" xmlns:xlink="http://www.w3.org/1999/xlink">
    <!-- Generator: Sketch 55 (78076) - https://sketchapp.com -->
    <title>ec_component</title>
    <desc>Created with Sketch.</desc>
    <g id="Symbols" stroke="none" stroke-width="1" fill="none" fill-rule="evenodd">
        <g id="ecl-component-library">
            <g id="Links_v2" transform="translate(182.000000, 149.000000)">
                <g id="Group-7-Copy" transform="translate(14.000000, 1.000000)" fill="#044695">
                    <g id="Stacked-Group" fill-rule="nonzero">
                        <g id="Simple-link">
                            <path d="M0.469726562,6.43652344 L2.29785156,6.25878906 C2.40787815,6.8723989 2.63110183,7.32307799 2.9675293,7.61083984 C3.30395676,7.8986017 3.75780964,8.04248047 4.32910156,8.04248047 C4.93424782,8.04248047 5.39021656,7.91447068 5.69702148,7.65844727 C6.0038264,7.40242385 6.15722656,7.10302906 6.15722656,6.76025391 C6.15722656,6.54020072 6.0926927,6.35294674 5.96362305,6.19848633 C5.83455339,6.04402592 5.60921385,5.90966854 5.28759766,5.79541016 C5.06754447,5.7192379 4.56608464,5.58382259 3.78320312,5.38916016 C2.77603663,5.13948443 2.06933797,4.83268411 1.66308594,4.46875 C1.09179402,3.95670317 0.806152344,3.33252321 0.806152344,2.59619141 C0.806152344,2.1222307 0.940509724,1.67895714 1.20922852,1.26635742 C1.47794731,0.853757703 1.86515047,0.53955186 2.37084961,0.323730469 C2.87654875,0.107909077 3.48697559,0 4.20214844,0 C5.37012303,0 6.24926463,0.256019575 6.83959961,0.768066406 C7.42993459,1.28011324 7.73990871,1.96353739 7.76953125,2.81835938 L5.890625,2.90087891 C5.81022095,2.42268641 5.63777802,2.07885847 5.37329102,1.86938477 C5.10880402,1.65991106 4.71207947,1.55517578 4.18310547,1.55517578 C3.6372043,1.55517578 3.20979972,1.66731659 2.90087891,1.89160156 C2.70198468,2.03548249 2.60253906,2.22802614 2.60253906,2.46923828 C2.60253906,2.68929146 2.69563709,2.87760338 2.88183594,3.03417969 C3.11881629,3.23307391 3.69433137,3.44042861 4.60839844,3.65625 C5.52246551,3.87207139 6.19848414,4.09529507 6.63647461,4.32592773 C7.07446508,4.5565604 7.41723509,4.87182417 7.66479492,5.27172852 C7.91235475,5.67163286 8.03613281,6.16568716 8.03613281,6.75390625 C8.03613281,7.28711204 7.88802231,7.78645601 7.59179688,8.25195312 C7.29557144,8.71745024 6.87663031,9.06339405 6.33496094,9.28979492 C5.79329156,9.51619579 5.11833086,9.62939453 4.31005859,9.62939453 C3.13362042,9.62939453 2.23014638,9.35750597 1.59960938,8.8137207 C0.969072368,8.26993543 0.59244853,7.47754427 0.469726562,6.43652344 Z M9.60400391,1.80908203 L9.60400391,0.158691406 L11.3876953,0.158691406 L11.3876953,1.80908203 L9.60400391,1.80908203 Z M9.60400391,9.46435547 L9.60400391,2.72314453 L11.3876953,2.72314453 L11.3876953,9.46435547 L9.60400391,9.46435547 Z M13.0825195,2.72314453 L14.7265625,2.72314453 L14.7265625,3.64355469 C15.3147816,2.92838184 16.0151327,2.57080078 16.8276367,2.57080078 C17.2592795,2.57080078 17.6337875,2.65966708 17.9511719,2.83740234 C18.2685563,3.01513761 18.5288076,3.28385237 18.7319336,3.64355469 C19.028159,3.28385237 19.3476545,3.01513761 19.6904297,2.83740234 C20.0332048,2.65966708 20.3992494,2.57080078 20.7885742,2.57080078 C21.2836939,2.57080078 21.702635,2.67130433 22.0454102,2.87231445 C22.3881853,3.07332457 22.6442049,3.36848764 22.8134766,3.7578125 C22.9361985,4.04557436 22.9975586,4.51106449 22.9975586,5.15429688 L22.9975586,9.46435547 L21.2138672,9.46435547 L21.2138672,5.61132812 C21.2138672,4.94270499 21.1525071,4.51106868 21.0297852,4.31640625 C20.8647453,4.06249873 20.6108416,3.93554688 20.2680664,3.93554688 C20.0183907,3.93554688 19.7835297,4.01171799 19.5634766,4.1640625 C19.3434234,4.31640701 19.1847336,4.53963069 19.0874023,4.83374023 C18.9900711,5.12784978 18.9414062,5.59228198 18.9414062,6.22705078 L18.9414062,9.46435547 L17.1577148,9.46435547 L17.1577148,5.77001953 C17.1577148,5.11409177 17.1259769,4.69091892 17.0625,4.50048828 C16.9990231,4.31005764 16.9006354,4.16829474 16.767334,4.07519531 C16.6340325,3.98209589 16.4531261,3.93554688 16.2246094,3.93554688 C15.9495429,3.93554688 15.7019868,4.00960212 15.4819336,4.15771484 C15.2618804,4.30582756 15.1042485,4.51952985 15.0090332,4.79882812 C14.9138179,5.0781264 14.8662109,5.54150067 14.8662109,6.18896484 L14.8662109,9.46435547 L13.0825195,9.46435547 L13.0825195,2.72314453 Z M24.7241211,2.72314453 L26.387207,2.72314453 L26.387207,3.71337891 C26.6030284,3.37483555 26.8950177,3.09977319 27.2631836,2.88818359 C27.6313495,2.67659399 28.0397113,2.57080078 28.4882812,2.57080078 C29.2711628,2.57080078 29.9355441,2.8776011 30.4814453,3.49121094 C31.0273465,4.10482078 31.300293,4.95962994 31.300293,6.05566406 C31.300293,7.18132073 31.0252306,8.0562306 30.4750977,8.68041992 C29.9249647,9.30460924 29.2584675,9.61669922 28.4755859,9.61669922 C28.1031882,9.61669922 27.7657079,9.54264397 27.4631348,9.39453125 C27.1605616,9.24641853 26.8421241,8.99251482 26.5078125,8.6328125 L26.5078125,12.0288086 L24.7241211,12.0288086 L24.7241211,2.72314453 Z M26.4887695,5.97949219 C26.4887695,6.73698295 26.6389959,7.29662905 26.9394531,7.65844727 C27.2399104,8.02026548 27.6059549,8.20117188 28.0375977,8.20117188 C28.4523133,8.20117188 28.7971991,8.03507653 29.0722656,7.70288086 C29.3473321,7.37068519 29.4848633,6.82585014 29.4848633,6.06835938 C29.4848633,5.36165011 29.3431004,4.83691578 29.0595703,4.49414062 C28.7760402,4.15136547 28.4248068,3.97998047 28.0058594,3.97998047 C27.5699848,3.97998047 27.208172,4.14819168 26.9204102,4.48461914 C26.6326483,4.8210466 26.4887695,5.31933264 26.4887695,5.97949219 Z M32.7158203,9.46435547 L32.7158203,0.158691406 L34.4995117,0.158691406 L34.4995117,9.46435547 L32.7158203,9.46435547 Z M40.2314453,7.31884766 L42.0087891,7.6171875 C41.7802723,8.26888347 41.4195174,8.76505364 40.9265137,9.10571289 C40.4335099,9.44637215 39.8167355,9.61669922 39.0761719,9.61669922 C37.9039655,9.61669922 37.0364611,9.23372779 36.4736328,8.46777344 C36.0292947,7.8541636 35.8071289,7.07975728 35.8071289,6.14453125 C35.8071289,5.02733816 36.0991182,4.15242829 36.6831055,3.51977539 C37.2670928,2.88712249 38.0055294,2.57080078 38.8984375,2.57080078 C39.9013722,2.57080078 40.6927054,2.90193354 41.2724609,3.56420898 C41.8522164,4.22648443 42.1293947,5.24104134 42.1040039,6.60791016 L37.6352539,6.60791016 C37.6479493,7.13688416 37.7918281,7.54841975 38.0668945,7.8425293 C38.341961,8.13663884 38.684731,8.28369141 39.0952148,8.28369141 C39.3745131,8.28369141 39.609374,8.20752029 39.7998047,8.05517578 C39.9902353,7.90283127 40.1341141,7.65739102 40.2314453,7.31884766 Z M40.3330078,5.51611328 C40.3203124,4.99983466 40.187013,4.60734184 39.9331055,4.33862305 C39.6791979,4.06990426 39.3702818,3.93554688 39.0063477,3.93554688 C38.6170228,3.93554688 38.2954114,4.07730978 38.0415039,4.36083984 C37.7875964,4.64436991 37.6627604,5.0294572 37.6669922,5.51611328 L40.3330078,5.51611328 Z M47.1694336,9.46435547 L47.1694336,0.158691406 L48.953125,0.158691406 L48.953125,9.46435547 L47.1694336,9.46435547 Z M50.78125,1.80908203 L50.78125,0.158691406 L52.5649414,0.158691406 L52.5649414,1.80908203 L50.78125,1.80908203 Z M50.78125,9.46435547 L50.78125,2.72314453 L52.5649414,2.72314453 L52.5649414,9.46435547 L50.78125,9.46435547 Z M60.5249023,9.46435547 L58.7412109,9.46435547 L58.7412109,6.02392578 C58.7412109,5.29605756 58.7031254,4.82527776 58.6269531,4.61157227 C58.5507809,4.39786677 58.4270028,4.23177143 58.2556152,4.11328125 C58.0842277,3.99479107 57.8779309,3.93554688 57.6367188,3.93554688 C57.3277979,3.93554688 57.0506197,4.02018145 56.8051758,4.18945312 C56.5597318,4.3587248 56.3915206,4.58300642 56.3005371,4.86230469 C56.2095536,5.14160296 56.1640625,5.65787384 56.1640625,6.41113281 L56.1640625,9.46435547 L54.3803711,9.46435547 L54.3803711,2.72314453 L56.0371094,2.72314453 L56.0371094,3.71337891 C56.6253285,2.95165635 57.365881,2.57080078 58.2587891,2.57080078 C58.6523457,2.57080078 59.0120426,2.64168223 59.3378906,2.78344727 C59.6637386,2.9252123 59.9102368,3.10611869 60.0773926,3.32617188 C60.2445484,3.54622506 60.3609209,3.79589704 60.4265137,4.07519531 C60.4921064,4.35449358 60.5249023,4.75439193 60.5249023,5.27490234 L60.5249023,9.46435547 Z M62.2705078,9.46435547 L62.2705078,0.158691406 L64.0541992,0.158691406 L64.0541992,5.09716797 L66.1425781,2.72314453 L68.3388672,2.72314453 L66.034668,5.18603516 L68.5039062,9.46435547 L66.5805664,9.46435547 L64.8857422,6.43652344 L64.0541992,7.30615234 L64.0541992,9.46435547 L62.2705078,9.46435547 Z" id="Simplelink"></path>
                            <path d="M28.4092256,11.4770508 L28.4092256,10.4770508 L68.4092256,10.4770508 L68.4092256,11.4770508 L28.4092256,11.4770508 Z M23,11.4770508 L2.20268248e-13,11.4770508 L2.20268248e-13,10.4770508 L23,10.4770508 L23,11.4770508 Z" id="Decoration"></path>
                        </g>
                    </g>
                </g>
                <g id="Group-7-Copy-2" transform="translate(0.000000, 33.000000)">
                    <g id="Stacked-Group">
                        <g id="External-link" transform="translate(0.000000, 2.000000)" fill="#044695" fill-rule="nonzero">
                            <path d="M0.945800781,9.30566406 L0.945800781,0 L7.84570312,0 L7.84570312,1.57421875 L2.82470703,1.57421875 L2.82470703,3.63720703 L7.49658203,3.63720703 L7.49658203,5.20507812 L2.82470703,5.20507812 L2.82470703,7.73779297 L8.0234375,7.73779297 L8.0234375,9.30566406 L0.945800781,9.30566406 Z M8.74707031,9.30566406 L11.1782227,5.83349609 L8.84863281,2.56445312 L11.0258789,2.56445312 L12.2192383,4.41796875 L13.4760742,2.56445312 L15.5708008,2.56445312 L13.2856445,5.75732422 L15.7802734,9.30566406 L13.590332,9.30566406 L12.2192383,7.21728516 L10.8354492,9.30566406 L8.74707031,9.30566406 Z M19.925293,2.56445312 L19.925293,3.98632812 L18.706543,3.98632812 L18.706543,6.703125 C18.706543,7.25325796 18.7181802,7.57381139 18.7414551,7.66479492 C18.7647299,7.75577845 18.8176265,7.83089163 18.9001465,7.89013672 C18.9826664,7.94938181 19.08317,7.97900391 19.2016602,7.97900391 C19.3667,7.97900391 19.6057927,7.92187557 19.9189453,7.80761719 L20.0712891,9.19140625 C19.6565734,9.36914151 19.1868516,9.45800781 18.6621094,9.45800781 C18.3404932,9.45800781 18.0506198,9.40405327 17.7924805,9.29614258 C17.5343412,9.18823188 17.3449713,9.04858484 17.2243652,8.87719727 C17.1037592,8.70580969 17.0201825,8.47412255 16.9736328,8.18212891 C16.9355467,7.9747711 16.9165039,7.55582998 16.9165039,6.92529297 L16.9165039,3.98632812 L16.0976562,3.98632812 L16.0976562,2.56445312 L16.9165039,2.56445312 L16.9165039,1.22509766 L18.706543,0.184082031 L18.706543,2.56445312 L19.925293,2.56445312 Z M25.0668945,7.16015625 L26.8442383,7.45849609 C26.6157215,8.11019206 26.2549667,8.60636223 25.7619629,8.94702148 C25.2689591,9.28768074 24.6521847,9.45800781 23.9116211,9.45800781 C22.7394147,9.45800781 21.8719104,9.07503638 21.309082,8.30908203 C20.8647439,7.69547219 20.6425781,6.92106587 20.6425781,5.98583984 C20.6425781,4.86864676 20.9345674,3.99373689 21.5185547,3.36108398 C22.102542,2.72843108 22.8409786,2.41210938 23.7338867,2.41210938 C24.7368214,2.41210938 25.5281547,2.74324213 26.1079102,3.40551758 C26.6876657,4.06779302 26.9648439,5.08234994 26.9394531,6.44921875 L22.4707031,6.44921875 C22.4833985,6.97819275 22.6272773,7.38972835 22.9023438,7.68383789 C23.1774102,7.97794743 23.5201802,8.125 23.9306641,8.125 C24.2099623,8.125 24.4448233,8.04882889 24.6352539,7.89648438 C24.8256845,7.74413986 24.9695633,7.49869961 25.0668945,7.16015625 Z M25.168457,5.35742188 C25.1557617,4.84114325 25.0224622,4.44865043 24.7685547,4.17993164 C24.5146472,3.91121285 24.205731,3.77685547 23.8417969,3.77685547 C23.452472,3.77685547 23.1308606,3.91861837 22.8769531,4.20214844 C22.6230456,4.4856785 22.4982096,4.8707658 22.5024414,5.35742188 L25.168457,5.35742188 Z M30.1005859,9.30566406 L28.3168945,9.30566406 L28.3168945,2.56445312 L29.9736328,2.56445312 L29.9736328,3.52294922 C30.2571629,3.07014748 30.5121245,2.77181062 30.7385254,2.62792969 C30.9649263,2.48404876 31.2220038,2.41210938 31.5097656,2.41210938 C31.9160177,2.41210938 32.3074525,2.52425018 32.684082,2.74853516 L32.1318359,4.30371094 C31.8313787,4.10904851 31.5520846,4.01171875 31.2939453,4.01171875 C31.0442696,4.01171875 30.8326832,4.08048434 30.6591797,4.21801758 C30.4856762,4.35555082 30.349203,4.60416487 30.2497559,4.96386719 C30.1503087,5.32356951 30.1005859,6.07681718 30.1005859,7.22363281 L30.1005859,9.30566406 Z M39.5839844,9.30566406 L37.800293,9.30566406 L37.800293,5.86523438 C37.800293,5.13736615 37.7622074,4.66658635 37.6860352,4.45288086 C37.6098629,4.23917536 37.4860848,4.07308002 37.3146973,3.95458984 C37.1433097,3.83609967 36.9370129,3.77685547 36.6958008,3.77685547 C36.38688,3.77685547 36.1097017,3.86149004 35.8642578,4.03076172 C35.6188139,4.2000334 35.4506027,4.42431501 35.3596191,4.70361328 C35.2686356,4.98291155 35.2231445,5.49918243 35.2231445,6.25244141 L35.2231445,9.30566406 L33.4394531,9.30566406 L33.4394531,2.56445312 L35.0961914,2.56445312 L35.0961914,3.5546875 C35.6844105,2.79296494 36.424963,2.41210938 37.3178711,2.41210938 C37.7114277,2.41210938 38.0711247,2.48299083 38.3969727,2.62475586 C38.7228206,2.76652089 38.9693188,2.94742729 39.1364746,3.16748047 C39.3036304,3.38753365 39.4200029,3.63720563 39.4855957,3.91650391 C39.5511885,4.19580218 39.5839844,4.59570052 39.5839844,5.11621094 L39.5839844,9.30566406 Z M42.7260742,4.62109375 L41.1074219,4.32910156 C41.2893889,3.6774056 41.6025368,3.19498854 42.046875,2.88183594 C42.4912132,2.56868333 43.1513628,2.41210938 44.0273438,2.41210938 C44.8229206,2.41210938 45.4153626,2.50626533 45.8046875,2.69458008 C46.1940124,2.88289482 46.4680168,3.12198748 46.626709,3.41186523 C46.7854012,3.70174299 46.8647461,4.23388285 46.8647461,5.00830078 L46.8457031,7.09033203 C46.8457031,7.68278291 46.8742673,8.11970888 46.9313965,8.40112305 C46.9885257,8.68253721 47.0953768,8.98404787 47.2519531,9.30566406 L45.4873047,9.30566406 C45.440755,9.18717389 45.3836266,9.01155715 45.315918,8.77880859 C45.2862954,8.67301379 45.2651368,8.60319027 45.2524414,8.56933594 C44.9477524,8.86556138 44.6219093,9.08772712 44.2749023,9.23583984 C43.9278954,9.38395256 43.5576192,9.45800781 43.1640625,9.45800781 C42.4700486,9.45800781 41.9230977,9.26969589 41.5231934,8.89306641 C41.123289,8.51643692 40.9233398,8.04036746 40.9233398,7.46484375 C40.9233398,7.08398247 41.014322,6.74438626 41.1962891,6.44604492 C41.3782561,6.14770359 41.6332178,5.91919025 41.9611816,5.76049805 C42.2891455,5.60180585 42.7620412,5.46321674 43.3798828,5.34472656 C44.2135458,5.18815026 44.7911768,5.04215562 45.112793,4.90673828 L45.112793,4.72900391 C45.112793,4.38622875 45.0281584,4.14184643 44.8588867,3.99584961 C44.689615,3.84985279 44.3701195,3.77685547 43.9003906,3.77685547 C43.5830062,3.77685547 43.3354501,3.83927346 43.1577148,3.96411133 C42.9799796,4.08894919 42.8361008,4.30794114 42.7260742,4.62109375 Z M45.112793,6.06835938 C44.8842762,6.14453163 44.5224634,6.23551379 44.0273438,6.34130859 C43.5322241,6.44710339 43.2084969,6.55078074 43.0561523,6.65234375 C42.8234038,6.81738364 42.7070312,7.0268542 42.7070312,7.28076172 C42.7070312,7.53043745 42.8001293,7.7462556 42.9863281,7.92822266 C43.172527,8.11018971 43.4095038,8.20117188 43.6972656,8.20117188 C44.0188818,8.20117188 44.3256821,8.09537866 44.6176758,7.88378906 C44.8334972,7.72298097 44.9752601,7.52620559 45.0429688,7.29345703 C45.0895185,7.14111252 45.112793,6.85123912 45.112793,6.42382812 L45.112793,6.06835938 Z M48.6230469,9.30566406 L48.6230469,0 L50.4067383,0 L50.4067383,9.30566406 L48.6230469,9.30566406 Z M55.8466797,9.30566406 L55.8466797,0 L57.6303711,0 L57.6303711,9.30566406 L55.8466797,9.30566406 Z M59.4584961,1.65039062 L59.4584961,0 L61.2421875,0 L61.2421875,1.65039062 L59.4584961,1.65039062 Z M59.4584961,9.30566406 L59.4584961,2.56445312 L61.2421875,2.56445312 L61.2421875,9.30566406 L59.4584961,9.30566406 Z M69.2021484,9.30566406 L67.418457,9.30566406 L67.418457,5.86523438 C67.418457,5.13736615 67.3803715,4.66658635 67.3041992,4.45288086 C67.228027,4.23917536 67.1042489,4.07308002 66.9328613,3.95458984 C66.7614738,3.83609967 66.555177,3.77685547 66.3139648,3.77685547 C66.005044,3.77685547 65.7278658,3.86149004 65.4824219,4.03076172 C65.2369779,4.2000334 65.0687667,4.42431501 64.9777832,4.70361328 C64.8867997,4.98291155 64.8413086,5.49918243 64.8413086,6.25244141 L64.8413086,9.30566406 L63.0576172,9.30566406 L63.0576172,2.56445312 L64.7143555,2.56445312 L64.7143555,3.5546875 C65.3025746,2.79296494 66.043127,2.41210938 66.9360352,2.41210938 C67.3295918,2.41210938 67.6892887,2.48299083 68.0151367,2.62475586 C68.3409847,2.76652089 68.5874829,2.94742729 68.7546387,3.16748047 C68.9217945,3.38753365 69.038167,3.63720563 69.1037598,3.91650391 C69.1693525,4.19580218 69.2021484,4.59570052 69.2021484,5.11621094 L69.2021484,9.30566406 Z M70.9477539,9.30566406 L70.9477539,0 L72.7314453,0 L72.7314453,4.93847656 L74.8198242,2.56445312 L77.0161133,2.56445312 L74.7119141,5.02734375 L77.1811523,9.30566406 L75.2578125,9.30566406 L73.5629883,6.27783203 L72.7314453,7.14746094 L72.7314453,9.30566406 L70.9477539,9.30566406 Z" id="Externallink"></path>
                            <polygon id="Decoration" points="77 10 77 11 0 11 0 10"></polygon>
                        </g>
                        <path d="M83,0 L88.25,0.029285768 L88.25,1.7536388 L84.77905,1.7536388 L84.77905,12.2752962 L95.25,12.2752962 L95.25,8.79747977 L97,8.79747977 L97,14 L83,14 L83,0 Z M90.2239909,0 L97,0 L97,6.75109852 L94.4626458,4.22313921 L90.6717487,8 L89,6.33479803 L92.7613451,2.58755827 L90.2239909,0 Z" id="Combined-Shape" fill="#004494"></path>
                    </g>
                </g>
            </g>
        </g>
    </g>
</svg>