<?xml version="1.0" encoding="UTF-8"?>
<svg width="24px" height="24px" viewBox="0 0 24 24" version="1.1" xmlns="http://www.w3.org/2000/svg" xmlns:xlink="http://www.w3.org/1999/xlink">
    <!-- Generator: Sketch 51.2 (57519) - http://www.bohemiancoding.com/sketch -->
    <title>Icons/24x24/UI/Icon_Close</title>
    <desc>Created with Sketch.</desc>
    <defs>
        <path d="M16.5375,15.2054 L13.3211,11.989 L16.5199,8.7946 L15.1878,7.4625 L11.9879,10.6558 L8.8122,7.4801 L7.479,8.8122 L10.6558,11.989 L7.4614,15.1878 L8.7946,16.521 L11.9879,13.3211 L15.2054,16.5375 L16.5375,15.2054 Z M22.1321,7.7155 C21.581,6.4054 20.7879,5.2339 19.777,4.223 C18.7606,3.2055 17.5825,2.4135 16.2845,1.8679 C14.9293,1.2926 13.4872,1 12,1 C10.5117,1 9.0696,1.2926 7.7144,1.8679 C6.4109,2.419 5.2328,3.2121 4.2219,4.223 C3.2055,5.2394 2.4124,6.4164 1.8668,7.7155 C1.2926,9.0707 1,10.5128 1,12 C1,13.4883 1.2926,14.9293 1.8668,16.2856 C2.4179,17.5891 3.211,18.7672 4.2219,19.7781 C5.2383,20.7945 6.4164,21.5876 7.7144,22.1332 C9.0696,22.7074 10.5117,23 12,23 C13.4872,23 14.9293,22.7074 16.2845,22.1332 C17.5891,21.581 18.7661,20.789 19.777,19.7781 C20.7934,18.7606 21.5865,17.5836 22.1321,16.2856 C22.7063,14.9293 23,13.4883 23,12 C23,10.5128 22.7063,9.0707 22.1321,7.7155 Z M21.702,12 C21.702,14.5905 20.69,17.0259 18.8585,18.8585 C17.0314,20.6911 14.596,21.702 12,21.702 C9.4095,21.702 6.973,20.6911 5.1415,18.8585 C3.3089,17.0325 2.298,14.596 2.298,12 C2.298,9.404 3.3089,6.9686 5.1415,5.1415 C6.9675,3.3089 9.4029,2.298 12,2.298 C14.596,2.298 17.0314,3.3089 18.8585,5.1415 C20.69,6.9686 21.702,9.404 21.702,12 Z" id="path-1"></path>
    </defs>
    <g id="Icons/24x24/UI/Icon_Close" stroke="none" stroke-width="1" fill="none" fill-rule="evenodd">
        <mask id="mask-2" fill="white">
            <use xlink:href="#path-1"></use>
        </mask>
        <g id="Close" fill-rule="nonzero"></g>
        <g id="Colours/General/Black-#000000" mask="url(#mask-2)" fill="#000000">
            <rect x="0" y="0" width="24" height="24"></rect>
        </g>
    </g>
</svg>