<svg width="460" height="345" viewBox="0 0 460 345" fill="none" xmlns="http://www.w3.org/2000/svg">
<rect width="259.657" height="43" transform="translate(106 151)" fill="white"/>
<path d="M127.501 152.174C127.668 151.753 128.264 151.753 128.431 152.174L133.4 164.723C133.471 164.904 133.642 165.027 133.837 165.038L147.546 165.785C148.004 165.81 148.189 166.388 147.83 166.675L137.205 175.152C137.049 175.276 136.982 175.481 137.034 175.674L140.542 188.656C140.661 189.096 140.178 189.453 139.793 189.21L128.233 181.913C128.07 181.811 127.862 181.811 127.699 181.913L116.139 189.21C115.753 189.453 115.27 189.096 115.389 188.656L118.897 175.674C118.949 175.481 118.882 175.276 118.726 175.152L108.101 166.675C107.742 166.388 107.927 165.81 108.386 165.785L122.094 165.038C122.289 165.027 122.46 164.904 122.532 164.723L127.501 152.174Z" fill="#FFDE39"/>
<path d="M181.432 152.174C181.599 151.753 182.195 151.753 182.362 152.174L187.331 164.723C187.403 164.904 187.574 165.027 187.769 165.038L201.477 165.785C201.936 165.81 202.121 166.388 201.762 166.675L191.137 175.152C190.981 175.276 190.914 175.481 190.966 175.674L194.474 188.656C194.593 189.096 194.11 189.453 193.724 189.21L182.164 181.913C182.001 181.811 181.793 181.811 181.63 181.913L170.07 189.21C169.685 189.453 169.202 189.096 169.32 188.656L172.829 175.674C172.881 175.481 172.813 175.276 172.658 175.152L162.033 166.675C161.673 166.388 161.858 165.81 162.317 165.785L176.026 165.038C176.22 165.027 176.391 164.904 176.463 164.723L181.432 152.174Z" fill="#FFDE39"/>
<path d="M235.364 152.174C235.53 151.753 236.127 151.753 236.293 152.174L241.262 164.723C241.334 164.904 241.505 165.027 241.7 165.038L255.408 165.785C255.867 165.81 256.052 166.388 255.693 166.675L245.068 175.152C244.912 175.276 244.845 175.481 244.897 175.674L248.405 188.656C248.524 189.096 248.041 189.453 247.656 189.21L236.095 181.913C235.932 181.811 235.725 181.811 235.562 181.913L224.001 189.21C223.616 189.453 223.133 189.096 223.252 188.656L226.76 175.674C226.812 175.481 226.745 175.276 226.589 175.152L215.964 166.675C215.605 166.388 215.79 165.81 216.249 165.785L229.957 165.038C230.152 165.027 230.323 164.904 230.395 164.723L235.364 152.174Z" fill="#FFDE39"/>
<path d="M285.488 165.183L289.76 154.395L294.032 165.183C294.283 165.818 294.881 166.249 295.564 166.286L307.306 166.926L298.22 174.175C297.675 174.61 297.44 175.327 297.622 176L300.628 187.127L290.694 180.856C290.123 180.496 289.397 180.496 288.826 180.856L278.891 187.127L281.898 176C282.08 175.327 281.845 174.61 281.3 174.175L272.214 166.926L283.956 166.286C284.639 166.249 285.237 165.818 285.488 165.183Z" fill="white" stroke="#707070" stroke-width="2.5"/>
<path d="M339.42 165.183L343.691 154.395L347.963 165.183C348.215 165.818 348.813 166.249 349.495 166.286L361.237 166.926L352.151 174.175C351.606 174.61 351.371 175.327 351.553 176L354.56 187.127L344.625 180.856C344.055 180.496 343.328 180.496 342.757 180.856L332.823 187.127L335.83 176C336.011 175.327 335.777 174.61 335.232 174.175L326.146 166.926L337.888 166.286C338.57 166.249 339.168 165.818 339.42 165.183Z" fill="white" stroke="#707070" stroke-width="2.5"/>
</svg>
