<?xml version="1.0" encoding="utf-8"?>
<!-- Generator: Adobe Illustrator 19.2.0, SVG Export Plug-In . SVG Version: 6.00 Build 0)  -->
<svg version="1.1" id="Layer_1" xmlns:sketch="http://www.bohemiancoding.com/sketch/ns"
	 xmlns="http://www.w3.org/2000/svg" xmlns:xlink="http://www.w3.org/1999/xlink" x="0px" y="0px" viewBox="0 0 40 40"
	 style="enable-background:new 0 0 40 40;" xml:space="preserve">
<style type="text/css">
	.st0{fill:#49AE48;}
	.st1{fill-opacity:0.3;}
	.st2{fill:#FFFFFF;}
</style>
<title>technorati_hover</title>
<desc>Created with Sketch.</desc>
<g id="Page-1" sketch:type="MSPage">
	<g id="technorati_hover" sketch:type="MSLayerGroup">
		<g id="bg">
			<g sketch:type="MSShapeGroup">
				<rect id="path-1" class="st0" width="40" height="40"/>
			</g>
			<g>
				<rect id="path-1_1_" class="st1" width="40" height="40"/>
			</g>
		</g>
		<path id="icon" sketch:type="MSShapeGroup" class="st2" d="M40,10.9v11.9c-3.5,2.3-7.9,3.7-12.7,3.7c-2.2,0-4.3-0.3-6.2-0.8l0,0
			c-1.9,1-7,3.8-7.7,4.4c-0.8,0.7-1.1,0.9-1.1,0.9l0.9-9.3C9.4,18.7,7,14.4,7,9.6C7,6.1,8.3,2.7,10.7,0l0,0H40v8.6
			c-0.8-4.8-6.1-8.5-12.7-8.5c-7.1,0-12.8,4.3-12.8,9.6s5.7,9.6,12.8,9.6C33.9,19.4,39.2,15.7,40,10.9z"/>
	</g>
</g>
</svg>
