<?xml version="1.0" encoding="utf-8"?>
<!-- Generator: Adobe Illustrator 19.2.0, SVG Export Plug-In . SVG Version: 6.00 Build 0)  -->
<svg version="1.1" id="Layer_1" xmlns:sketch="http://www.bohemiancoding.com/sketch/ns"
	 xmlns="http://www.w3.org/2000/svg" xmlns:xlink="http://www.w3.org/1999/xlink" x="0px" y="0px" viewBox="0 0 40 40"
	 style="enable-background:new 0 0 40 40;" xml:space="preserve">
<style type="text/css">
	.st0{fill:#327CAB;}
	.st1{fill:#4A4A4A;fill-opacity:0.3;}
	.st2{fill:#F58237;}
	.st3{fill:#FFFFFF;}
</style>
<title>wykop_hover</title>
<desc>Created with Sketch.</desc>
<g id="Page-1" sketch:type="MSPage">
	<g id="wykop_hover" sketch:type="MSLayerGroup">
		<g id="bg">
			<g sketch:type="MSShapeGroup">
				<rect id="path-1" class="st0" width="40" height="40"/>
			</g>
			<g>
				<rect id="path-1_1_" class="st1" width="40" height="40"/>
			</g>
		</g>
		<g id="icon" transform="translate(94.000000, 114.000000)" sketch:type="MSShapeGroup">
			<path id="Rectangle-108" class="st2" d="M-69.7-92.5l-1.4,0.7l0,0l-3.6-7.3l-3,1.5l3.6,7.3l-1.4,0.7l0,0L-79-97l-3,1.5l3.9,8.1
				l0.4,0.7l10.1-4.9l1.7-0.8l-4.3-8.8l-3,1.5L-69.7-92.5L-69.7-92.5z"/>
			<g>
				<path class="st3" d="M-63.4-102.6c-2-1.9-3.6-2.3-10.9-2.3s-9.2,0.8-10.5,2.3c-1.3,1.5-1.7,3.1-1.7,7.9s-0.1,7,1.7,9.4
					c1.8,2.3,6.3,2.3,10.8,2.3c4.5,0.1,8,0.1,10.3-2c2.2-2.1,2-6.1,2-8.4S-61.4-100.8-63.4-102.6z M-64.4-93.5c0,2,0,5.7-1.5,6.7
					c-1.5,1-4.3,1-8.1,0.9c-3.8,0-6.8,0.1-8.2-0.9c-1.4-1-1.6-4.5-1.6-7.8s0.3-4.9,1.2-6c0.9-1.1,2.8-1.5,8.6-1.5s7.5,0.3,8.6,1.5
					C-64.4-99.5-64.4-95.5-64.4-93.5z"/>
			</g>
		</g>
	</g>
</g>
</svg>
