<svg xmlns="http://www.w3.org/2000/svg" viewBox="0 0 40 40"><defs><style>.a{fill:#ce2823;}.b{fill:#fff;}</style></defs><title>youtube_hover</title><rect class="a" width="40" height="40"/><path class="b" d="M17,23.32V16.13l6.79,3.61Zm14.91-8.44a5.6,5.6,0,0,0-1-2.54,3.56,3.56,0,0,0-2.52-1.08C24.85,11,19.57,11,19.57,11h0s-5.28,0-8.79.26a3.56,3.56,0,0,0-2.52,1.08,5.6,5.6,0,0,0-1,2.54A39.4,39.4,0,0,0,7,19V21a39.4,39.4,0,0,0,.25,4.14,5.6,5.6,0,0,0,1,2.54A4.21,4.21,0,0,0,11,28.74c2,0.2,8.54.26,8.54,0.26s5.28,0,8.8-.27a3.56,3.56,0,0,0,2.52-1.08,5.6,5.6,0,0,0,1-2.54A39.49,39.49,0,0,0,32.13,21V19a39.49,39.49,0,0,0-.25-4.14h0Z"/></svg>