<?xml version="1.0" encoding="UTF-8"?>
<svg width="352px" height="145px" viewBox="0 0 352 145" version="1.1" xmlns="http://www.w3.org/2000/svg" xmlns:xlink="http://www.w3.org/1999/xlink">
    <title>featured item</title>
    <g id="thumbnails---final" stroke="none" stroke-width="1" fill="none" fill-rule="evenodd">
        <g id="thumbnails---final_symbols" transform="translate(-1029.000000, -4500.000000)">
            <g id="ec_comp_featured_items" transform="translate(980.000000, 4400.000000)">
                <g id="Group" transform="translate(49.000000, 100.000000)">
                    <g transform="translate(170.000000, 104.000000)" id="button">
                        <g id="Group-7-Copy" fill="#004494">
                            <rect id="Rectangle" x="0" y="0" width="75.6" height="27"></rect>
                        </g>
                        <polygon id="Fill-10" fill="#FFFFFF" points="22.68 16.2 53.46 16.2 53.46 10.8 22.68 10.8"></polygon>
                    </g>
                    <polygon id="Fill-8-Copy-3" fill="#444444" points="0 10 70 10 70 0 0 0"></polygon>
                    <g id="Group-9" transform="translate(170.000000, 20.000000)" fill="#404040">
                        <polygon id="Fill-10" points="0 10 48 10 48 0 0 0"></polygon>
                    </g>
                    <g id="Group-3" transform="translate(170.000000, 42.000000)" fill="#CFCFCF">
                        <polygon id="Fill-8" points="0 10 167.922652 10 167.922652 0 0 0"></polygon>
                        <polygon id="Fill-8-Copy" points="0 30 182 30 182 20 0 20"></polygon>
                        <polygon id="Fill-8-Copy-2" points="0 50 86.4751381 50 86.4751381 40 0 40"></polygon>
                    </g>
                    <rect id="Rectangle" fill="#BED0E4" x="0" y="20" width="160" height="125"></rect>
                    <path d="M118,66.5 L118,108.928571 C118,110.892856 117.316406,112.562501 115.949219,113.9375 C114.582032,115.312499 112.921874,116 110.96875,116 L50.03125,116 C48.0781257,116 46.417968,115.312499 45.0507812,113.9375 C43.6835945,112.562501 43,110.892856 43,108.928571 L43,66.5 C43,64.535715 43.6835945,62.8660707 45.0507812,61.4910714 C46.417968,60.1160722 48.0781257,59.4285714 50.03125,59.4285714 L62.921875,59.4285714 L64.6796875,54.5669643 C65.265625,53.191965 66.1445312,52.0870543 67.3164062,51.2522321 C68.4882812,50.41741 69.8066406,50 71.2714844,50 L89.7285156,50 C91.1933594,50 92.5117187,50.41741 93.6835937,51.2522321 C94.8554687,52.0870543 95.734375,53.191965 96.3203125,54.5669643 L98.078125,59.4285714 L110.96875,59.4285714 C112.921874,59.4285714 114.582032,60.1160722 115.949219,61.4910714 C117.316406,62.8660707 118,64.535715 118,66.5 Z M98,87.5 C98,84.2916667 97.222223,81.3506937 95.6666667,78.6770833 C94.1111104,76.003473 91.996527,73.8888896 89.3229167,72.3333333 C86.6493063,70.777777 83.7083333,70 80.5,70 C77.2916667,70 74.3506937,70.777777 71.6770833,72.3333333 C69.003473,73.8888896 66.8888896,76.003473 65.3333333,78.6770833 C63.777777,81.3506937 63,84.2916667 63,87.5 C63,90.7083333 63.777777,93.6493063 65.3333333,96.3229167 C66.8888896,98.996527 69.003473,101.11111 71.6770833,102.666667 C74.3506937,104.222223 77.2916667,105 80.5,105 C83.7083333,105 86.6493063,104.222223 89.3229167,102.666667 C91.996527,101.11111 94.1111104,98.996527 95.6666667,96.3229167 C97.222223,93.6493063 98,90.7083333 98,87.5 Z M94,88 C94,91.5454545 92.7196962,94.5984856 90.1590909,97.1590909 C87.5984856,99.7196962 84.5454545,101 81,101 C77.4545455,101 74.4015144,99.7196962 71.8409091,97.1590909 C69.2803038,94.5984856 68,91.5454545 68,88 C68,84.4545455 69.2803038,81.4015144 71.8409091,78.8409091 C74.4015144,76.2803038 77.4545455,75 81,75 C84.5454545,75 87.5984856,76.2803038 90.1590909,78.8409091 C92.7196962,81.4015144 94,84.4545455 94,88 Z" id="" fill="#C6D9EE" fill-rule="nonzero"></path>
                </g>
            </g>
        </g>
    </g>
</svg>