<?xml version="1.0" encoding="UTF-8"?>
<svg width="460px" height="345px" viewBox="0 0 460 345" version="1.1" xmlns="http://www.w3.org/2000/svg" xmlns:xlink="http://www.w3.org/1999/xlink">
    <title>eu_comp_pagination</title>
    <g id="thumbnails---final" stroke="none" stroke-width="1" fill="none" fill-rule="evenodd">
        <g id="EU-thumbnails---final_symbols" transform="translate(-980.000000, -2575.000000)">
            <g id="eu_comp_pagination" transform="translate(980.000000, 2575.000000)">
                <g id="thumb-back" fill="#FFFFFF" stroke="#979797">
                    <rect id="Rectangle" x="0.5" y="0.5" width="459" height="344"></rect>
                </g>
                <g id="Group" transform="translate(103.000000, 164.000000)">
                    <g id="Group-7-Copy" transform="translate(-11.000000, 0.000000)">
                        <polygon id="bg" fill-opacity="0.2" fill="#0E47CB" points="0 18 277 18 277 0 0 0"></polygon>
                        <g id="Stacked-Group" transform="translate(11.999129, 4.000000)" fill-rule="nonzero">
                            <path d="M252.821744,5.38990826 L248.374627,9.83944954 C248.267652,9.9464833 248.137753,10 247.984931,10 C247.832109,10 247.702211,9.9464833 247.595235,9.83944954 L247.090923,9.33486239 C246.983948,9.22782863 246.926639,9.09785944 246.918998,8.94495413 C246.911357,8.79204881 246.961024,8.66207963 247.068,8.55504587 L250.621109,5 L247.068,1.44495413 C246.961024,1.33792037 246.911357,1.20795119 246.918998,1.05504587 C246.926639,0.902140556 246.983948,0.77217137 247.090923,0.665137615 L247.595235,0.160550459 C247.702211,0.0535167029 247.832109,7.99360578e-15 247.984931,7.99360578e-15 C248.137753,7.99360578e-15 248.267652,0.0535167029 248.374627,0.160550459 L252.821744,4.61009174 C252.944001,4.7171255 253.00513,4.84709468 253.00513,5 C253.00513,5.15290532 252.944001,5.2828745 252.821744,5.38990826 Z M190.965881,7.99360578e-15 L240.965881,7.99360578e-15 L240.965881,10 L190.965881,10 L190.965881,7.99360578e-15 Z" id="Next" fill="#0E47CB"></path>
                            <path d="M61.8246363,5.38990826 L57.3775193,9.83944954 C57.2705438,9.9464833 57.1406454,10 56.9878234,10 C56.8350014,10 56.7051031,9.9464833 56.5981276,9.83944954 L56.0938154,9.33486239 C55.9868399,9.22782863 55.9295317,9.09785944 55.9218908,8.94495413 C55.9142498,8.79204881 55.9639167,8.66207963 56.0708921,8.55504587 L59.624001,5 L56.0708921,1.44495413 C55.9639167,1.33792037 55.9142498,1.20795119 55.9218908,1.05504587 C55.9295317,0.902140556 55.9868399,0.77217137 56.0938154,0.665137615 L56.5981276,0.160550459 C56.7051031,0.0535167029 56.8350014,1.77635684e-15 56.9878234,1.77635684e-15 C57.1406454,1.77635684e-15 57.2705438,0.0535167029 57.3775193,0.160550459 L61.8246363,4.61009174 C61.9468936,4.7171255 62.0080225,4.84709468 62.0080225,5 C62.0080225,5.15290532 61.9468936,5.2828745 61.8246363,5.38990826 Z M0,3.55271368e-15 L50,3.55271368e-15 L50,10 L0,10 L0,3.55271368e-15 Z" id="Next-Copy" fill="#0E47CB" transform="translate(31.004011, 5.000000) rotate(-180.000000) translate(-31.004011, -5.000000) "></path>
                            <path d="M168.000871,7.49762067 L169.167537,7.39972808 C169.253958,7.96261328 169.454573,8.38579056 169.769389,8.6692726 C170.084206,8.95275465 170.463831,9.09449354 170.908278,9.09449354 C171.44326,9.09449354 171.895931,8.8946315 172.266303,8.49490143 C172.636675,8.09517135 172.821858,7.56492513 172.821858,6.90414684 C172.821858,6.27599958 172.643877,5.7804233 172.287908,5.41740313 C171.931939,5.05438296 171.465894,4.87287559 170.88976,4.87287559 C170.531733,4.87287559 170.208691,4.95343223 169.920624,5.11454793 C169.632556,5.27566362 169.406221,5.484703 169.241611,5.74167233 L168.198402,5.60707002 L169.074945,1 L173.574945,1 L173.574945,2.05234534 L169.963834,2.05234534 L169.476179,4.46295037 C170.019392,4.08769357 170.589345,3.90006798 171.186056,3.90006798 C171.976183,3.90006798 172.642843,4.17130932 173.186056,4.71380014 C173.729268,5.25629095 174.000871,5.95376868 174.000871,6.80625425 C174.000871,7.61795103 173.76219,8.31950758 173.284821,8.91094494 C172.704571,9.63698528 171.912398,10 170.908278,10 C170.085229,10 169.413425,9.77158624 168.892846,9.31475187 C168.372267,8.8579175 168.074945,8.25221315 168.000871,7.49762067 Z" id="5" fill="#0E47CB"></path>
                            <path d="M148.764184,10 L148.764184,7.84515689 L145.000871,7.84515689 L145.000871,6.83219645 L148.959451,1 L149.829273,1 L149.829273,6.83219645 L151.000871,6.83219645 L151.000871,7.84515689 L149.829273,7.84515689 L149.829273,10 L148.764184,10 Z M148.764184,6.83219645 L148.764184,2.77421555 L146.048208,6.83219645 L148.764184,6.83219645 Z" id="4" fill="#0E47CB"></path>
                            <path d="M122.000871,7.23446894 L123.676435,7.01402806 C123.729824,7.47717889 123.873559,7.83121677 124.107647,8.0761523 C124.341734,8.32108784 124.625099,8.44355377 124.95775,8.44355377 C125.315041,8.44355377 125.615859,8.29659466 125.860214,8.00267201 C126.104568,7.70874937 126.226743,7.31240508 126.226743,6.81362725 C126.226743,6.34156967 126.109701,5.96749192 125.875614,5.69138277 C125.641527,5.41527361 125.356108,5.27722111 125.019351,5.27722111 C124.797584,5.27722111 124.5327,5.32398083 124.22469,5.41750167 L124.415655,3.88777555 C124.88383,3.90113567 125.241116,3.79091633 125.487524,3.55711423 C125.733931,3.32331212 125.857133,3.01269399 125.857133,2.6252505 C125.857133,2.29570087 125.766785,2.03295578 125.586086,1.83700735 C125.405387,1.64105892 125.165143,1.54308617 124.865347,1.54308617 C124.569658,1.54308617 124.317093,1.65441884 124.107647,1.87708751 C123.8982,2.09975618 123.770891,2.42484756 123.725717,2.85237141 L122.130234,2.55845023 C122.241118,1.96615157 122.408467,1.49298774 122.632287,1.13894456 C122.856108,0.784901369 123.16822,0.506569706 123.568632,0.303941216 C123.969045,0.101312725 124.417706,7.99360578e-15 124.914628,7.99360578e-15 C125.764735,7.99360578e-15 126.446453,0.293918236 126.959803,0.881763527 C127.382803,1.36272786 127.5943,1.90603126 127.5943,2.51169005 C127.5943,3.37119112 127.161039,4.05700033 126.294505,4.56913828 C126.811962,4.68937936 127.225715,4.95880441 127.535778,5.37742151 C127.845841,5.79603861 128.000871,6.30148891 128.000871,6.89378758 C128.000871,7.75328864 127.711346,8.48585758 127.132287,9.09151637 C126.553229,9.69717515 125.832497,10 124.97007,10 C124.152817,10 123.475206,9.7450482 122.937216,9.23513694 C122.399225,8.72522568 122.087113,8.05834302 122.000871,7.23446894 Z" id="3" fill="#000000"></path>
                            <path d="M105.000871,8.94225543 L105.000871,10 L99.0018612,10 C98.9936066,9.73505302 99.0369427,9.48030014 99.1318707,9.2357337 C99.284581,8.83219907 99.5291203,8.43478457 99.8654957,8.04347826 C100.201871,7.65217196 100.687854,7.19973083 101.323459,6.6861413 C102.309885,5.88722427 102.976435,5.25441809 103.323129,4.7877038 C103.669823,4.32098951 103.843167,3.87975751 103.843167,3.46399457 C103.843167,3.02785108 103.6853,2.65998791 103.369561,2.36039402 C103.053822,2.06080013 102.64213,1.91100543 102.134471,1.91100543 C101.597921,1.91100543 101.168688,2.06997124 100.846758,2.38790761 C100.524828,2.70584398 100.361802,3.14605697 100.357674,3.70855978 L99.2123528,3.5923913 C99.2907716,2.74863709 99.5858696,2.1056408 100.097656,1.66338315 C100.609441,1.22112551 101.296628,1 102.159235,1 C103.030096,1 103.719346,1.2384487 104.227005,1.71535326 C104.734663,2.19225782 104.988489,2.78328452 104.988489,3.48845109 C104.988489,3.84714853 104.914198,4.19972653 104.765615,4.54619565 C104.617032,4.89266478 104.37043,5.25747091 104.025799,5.640625 C103.681169,6.02377909 103.108514,6.54958905 102.307817,7.21807065 C101.639193,7.77242125 101.20996,8.14843651 101.020104,8.34612772 C100.830248,8.54381892 100.673412,8.74252618 100.549593,8.94225543 L105.000871,8.94225543 Z" id="2" fill="#0E47CB"></path>
                            <path d="M82.0008707,9 L81.0008707,9 L81.0008707,2.76630435 C80.7601287,2.99094315 80.4443911,3.21557859 80.0536484,3.44021739 C79.6629057,3.6648562 79.3119833,3.83333277 79.0008707,3.94565217 L79.0008707,3 C79.5601327,2.74275234 80.0490167,2.43116125 80.4675373,2.06521739 C80.8860579,1.69927353 81.1823513,1.34420462 81.3564262,1 L82.0008707,1 L82.0008707,9 Z" id="1" fill="#0E47CB"></path>
                        </g>
                    </g>
                </g>
            </g>
        </g>
    </g>
</svg>