<?xml version="1.0" encoding="UTF-8"?>
<svg width="460px" height="345px" viewBox="0 0 460 345" version="1.1" xmlns="http://www.w3.org/2000/svg" xmlns:xlink="http://www.w3.org/1999/xlink">
    <title>ec_comp_inpage_navigation</title>
    <g id="thumbnails---final" stroke="none" stroke-width="1" fill="none" fill-rule="evenodd">
        <g id="thumbnails---final_symbols" transform="translate(-500.000000, -2575.000000)">
            <g id="ec_comp_inpage_navigation" transform="translate(500.000000, 2575.000000)">
                <g id="Group-2" transform="translate(60.000000, 105.000000)">
                    <g id="Group-5-Copy">
                        <rect id="Rectangle-Copy" fill="#EBEBEB" x="0" y="0" width="100" height="20"></rect>
                        <rect id="Rectangle-Copy" fill="#044695" x="0" y="0" width="2" height="20"></rect>
                        <polygon id="Fill-10" fill="#404040" points="10 15 90 15 90 5 10 5"></polygon>
                        <g id="Group" transform="translate(10.000000, 25.000000)" fill="#404040">
                            <polygon id="Fill-10" points="0 10 70 10 70 0 0 0"></polygon>
                            <polygon id="Fill-10-Copy" points="0 30 75 30 75 20 0 20"></polygon>
                        </g>
                    </g>
                    <g id="Group" transform="translate(120.000000, 5.000000)">
                        <polygon id="Fill-10" fill="#404040" points="0 10 220 10 220 0 0 0"></polygon>
                        <polygon id="Fill-10-Copy-3" fill="#CFCFCF" points="0 30 200 30 200 20 0 20"></polygon>
                        <polygon id="Fill-10-Copy-4" fill="#CFCFCF" points="0 50 220 50 220 40 0 40"></polygon>
                        <polygon id="Fill-10-Copy-4" fill="#CFCFCF" points="0 70 200 70 200 60 0 60"></polygon>
                        <polygon id="Fill-10-Copy-5" fill="#CFCFCF" points="0 90 200 90 200 80 0 80"></polygon>
                        <polygon id="Fill-10-Copy-6" fill="#CFCFCF" points="0 110 190 110 190 100 0 100"></polygon>
                        <polygon id="Fill-10-Copy-6" fill="#CFCFCF" points="0 130 190 130 190 120 0 120"></polygon>
                    </g>
                </g>
            </g>
        </g>
    </g>
</svg>