<?xml version="1.0" encoding="utf-8" ?>
<!-- Generator: Adobe Illustrator 27.2.0, SVG Export Plug-In . SVG Version: 6.00 Build 0)  -->
<svg
  version="1.2"
  baseProfile="tiny"
  id="Layer_1"
  xmlns="http://www.w3.org/2000/svg"
  xmlns:xlink="http://www.w3.org/1999/xlink"
  width="40px"
  height="40px"
  viewBox="0 0 40 40"
  overflow="visible"
  xml:space="preserve"
>
<path
    fill-rule="evenodd"
    fill="#FFFFFE"
    stroke="#CFCFCF"
    stroke-width="0.3"
    stroke-miterlimit="10"
    d="M1,39h38V1H1V39z"
  />
<path
    id="branch"
    fill="#4E5B31"
    d="M19.3,32.2L19.3,32.2L19.3,32.2c-0.1-0.1-0.1-0.1-0.1-0.1c-0.1-0.1-0.2-0.2-0.3-0.4
  c-0.2-0.2-0.4-0.5-0.4-0.5v-0.1L18,31l-0.4-0.2l0.2-0.2l0.7,0.3L19,31l0.9,0.7l0,0c0,0-0.1,0.1-0.3,0.2c-0.1,0.1-0.1,0.1-0.2,0.2
  C19.4,32.1,19.4,32.1,19.3,32.2C19.4,32.2,19.4,32.2,19.3,32.2 M16,31.2c-0.4,0-0.9-0.1-1.3-0.4l0,0l0,0c0-0.1,0.1-0.1,0.2-0.2
  c0.1-0.1,0.3-0.2,0.7-0.2l0,0c0.4,0,0.9,0.1,1.5,0.4C16.8,31.1,16.4,31.2,16,31.2L16,31.2L16,31.2z M14.1,30.8c-0.1,0-0.1,0-0.2-0.1
  c0-0.1-0.1-0.1-0.1-0.2s0-0.2,0-0.3h0.1l0,0c0.2,0,0.3,0.1,0.3,0.3c0,0.1,0,0.1,0,0.2C14.3,30.7,14.2,30.8,14.1,30.8L14.1,30.8z
   M17.4,30.4c-1.1-0.2-1.6-0.6-1.8-0.9c-0.1-0.2-0.2-0.4-0.2-0.6l0,0l0,0c0.1,0,0.1,0,0.2,0C15.9,28.9,16.7,29,17.4,30.4L17.4,30.4
  L17.4,30.4L17.4,30.4z M15.1,30.2c-0.5,0-0.8-0.1-1.1-0.2c-0.1-0.1-0.2-0.2-0.2-0.3v-0.1c0.2-0.1,0.3-0.1,0.5-0.1c0,0,0,0,0.1,0
  c0.4,0,0.9,0.1,1.5,0.7l0,0l0,0C15.6,30.2,15.4,30.2,15.1,30.2L15.1,30.2z M12.9,30.1c-0.5,0-1.2-0.2-1.6-0.6l0,0l0,0
  c0.3-0.1,0.6-0.1,1-0.1h0.1c0.5,0,0.8,0.1,1.1,0.3c0.1,0,0.1,0.1,0.1,0.2s0,0.1-0.1,0.1S13.2,30.1,12.9,30.1L12.9,30.1L12.9,30.1z
   M11.3,29.3c-0.1,0-0.1,0-0.2-0.1c0,0-0.1-0.1-0.1-0.2s0-0.2,0-0.2l0,0h0.1l0,0c0.1,0,0.1,0,0.2,0.1c0,0,0.1,0.1,0.1,0.2
  s0,0.1,0,0.2C11.4,29.2,11.3,29.3,11.3,29.3L11.3,29.3z M15,29.2c-0.1,0-0.1,0-0.2-0.1c0-0.1-0.1-0.1-0.1-0.2s0-0.2,0-0.3h0.1l0,0
  c0.2,0,0.3,0.1,0.3,0.3c0,0.1,0,0.1,0,0.2S15,29.2,15,29.2L15,29.2z M13.2,29.1c-1,0-1.5-0.3-1.8-0.5c-0.1-0.1-0.2-0.2-0.3-0.3
  c0,0,0-0.1-0.1-0.2l0,0c0.1,0,0.2,0,0.2,0l0,0C11.7,28,12.4,28.2,13.2,29.1L13.2,29.1L13.2,29.1z M14.3,29c-0.8-0.1-1.3-0.5-1.5-0.7
  c-0.1-0.2-0.3-0.3-0.3-0.6c0.1,0,0.2,0,0.2,0l0,0l0,0C13.2,27.7,13.9,27.9,14.3,29L14.3,29L14.3,29z M10.2,28.6
  c-0.3,0-0.5,0-0.8-0.1c-0.4-0.1-0.6-0.3-0.7-0.4c0,0-0.1-0.1-0.1-0.2c0,0,0,0,0-0.1l0,0c0.2-0.1,0.4-0.1,0.7-0.1l0,0
  c0.2,0,0.4,0,0.5,0.1c0.4,0.1,0.8,0.3,1,0.6l0,0l0,0C10.7,28.6,10.4,28.6,10.2,28.6L10.2,28.6z M12,28c-0.1,0-0.1,0-0.2-0.1
  c0-0.1-0.1-0.1-0.1-0.2s0-0.2,0-0.3h0.1l0,0c0.2,0,0.3,0.1,0.3,0.3c0,0.1,0,0.1,0,0.2C12.1,27.9,12.1,28,12,28L12,28z M10.6,27.8
  c-0.3-0.1-0.5-0.2-0.8-0.3C9.5,27.3,9,26.9,9,26.3l0,0l0,0h0.1l0,0c0.1,0,0.3,0,0.6,0.2C10,26.7,10.3,27.2,10.6,27.8L10.6,27.8z
   M11.5,27.7c-0.2-0.1-0.4-0.2-0.6-0.4c-0.5-0.4-0.8-0.9-1.1-1.5c0.1,0,0.1,0,0.2,0l0,0l0,0c0.2,0,0.4,0.1,0.6,0.3
  C11,26.5,11.3,27,11.5,27.7L11.5,27.7L11.5,27.7L11.5,27.7z M9.2,27.7c-0.3,0-0.4-0.2-0.4-0.2c0-0.1,0-0.2,0-0.2l0,0
  c0,0,0.1,0,0.2,0l0,0c0.2,0,0.4,0.1,0.5,0.2c0,0,0.1,0.1,0,0.2C9.4,27.6,9.3,27.7,9.2,27.7L9.2,27.7z M8.5,26.8
  c-0.2,0-0.5,0-0.7-0.1c-0.3,0-0.4-0.3-0.5-0.5c-0.1-0.1-0.1-0.3-0.1-0.4l0,0c0.8,0,1.2,0.3,1.4,0.5c0.1,0.1,0.2,0.3,0.2,0.4l0,0
  C8.8,26.8,8.7,26.8,8.5,26.8L8.5,26.8z M9.4,25.9c0,0-0.1-0.1-0.2-0.3C9.1,25.5,9,25.4,9,25.2c0-0.1,0-0.4,0-0.5c0-0.2,0-0.3,0-0.4
  l0,0c0,0,0.5,0.2,0.5,0.7C9.4,25.5,9.4,25.9,9.4,25.9L9.4,25.9L9.4,25.9L9.4,25.9z M8.7,25.9L8.7,25.9c-0.2,0-0.4-0.1-0.7-0.3
  c-0.3-0.2-0.6-0.4-0.7-0.6C7.1,24.9,7,24.6,7,24.3c0-0.2,0-0.3,0-0.5h0.1c0.1,0,0.2,0.1,0.4,0.2c0.1,0.1,0.3,0.2,0.4,0.3
  c0.2,0.2,0.3,0.3,0.5,0.5l0,0c0,0,0.2,0.3,0.3,0.5c0.1,0.1,0.1,0.2,0.1,0.4C8.8,25.8,8.8,25.8,8.7,25.9C8.8,25.9,8.8,25.9,8.7,25.9
  L8.7,25.9L8.7,25.9z"
  />
<path
    id="branch_00000126283984183208913010000008577985208424232320_"
    fill="#4E5B31"
    d="M17.7,32.2L17.7,32.2L17.7,32.2
  c0.1-0.1,0.1-0.1,0.1-0.1c0.1-0.1,0.2-0.2,0.3-0.4c0.2-0.2,0.4-0.5,0.4-0.5v-0.1L19,31l0.4-0.2l-0.2-0.2l-0.7,0.3L18.1,31l-0.9,0.7
  l0,0c0,0,0.1,0.1,0.3,0.2C17.6,32,17.6,32,17.7,32.2C17.6,32.1,17.6,32.1,17.7,32.2L17.7,32.2 M21.1,31.2c0.4,0,0.9-0.1,1.3-0.4l0,0
  l0,0c0-0.1-0.1-0.1-0.2-0.2s-0.3-0.2-0.7-0.2l0,0c-0.4,0-0.9,0.1-1.5,0.4C20.2,31.1,20.6,31.2,21.1,31.2L21.1,31.2L21.1,31.2z
   M22.9,30.8c0.1,0,0.1,0,0.2-0.1c0-0.1,0.1-0.1,0.1-0.2s0-0.2,0-0.3h-0.1l0,0c-0.2,0-0.3,0.1-0.3,0.3c0,0.1,0,0.1,0,0.2
  C22.8,30.7,22.8,30.8,22.9,30.8L22.9,30.8z M19.6,30.4c1.1-0.2,1.6-0.6,1.8-0.9c0.1-0.2,0.2-0.4,0.2-0.6l0,0l0,0c-0.1,0-0.1,0-0.2,0
  C21.1,28.9,20.4,29,19.6,30.4L19.6,30.4L19.6,30.4L19.6,30.4z M21.9,30.2c0.5,0,0.8-0.1,1.1-0.2c0.1-0.1,0.2-0.2,0.2-0.3v-0.1
  c-0.2-0.1-0.3-0.1-0.5-0.1c0,0,0,0-0.1,0c-0.4,0-0.9,0.1-1.5,0.7l0,0l0,0C21.4,30.2,21.6,30.2,21.9,30.2L21.9,30.2z M24.2,30.1
  c0.5,0,1.2-0.2,1.6-0.6l0,0l0,0c-0.3-0.1-0.6-0.1-1-0.1h-0.1c-0.5,0-0.8,0.1-1.1,0.3c-0.1,0-0.1,0.1-0.1,0.2s0,0.1,0.1,0.1
  S23.8,30.1,24.2,30.1L24.2,30.1L24.2,30.1z M25.8,29.3c0.1,0,0.1,0,0.2-0.1c0,0,0.1-0.1,0.1-0.2s0-0.2,0-0.2l0,0H26l0,0
  c-0.1,0-0.1,0-0.2,0.1c0,0-0.1,0.1-0.1,0.2s0,0.1,0,0.2C25.7,29.2,25.7,29.3,25.8,29.3L25.8,29.3z M22.1,29.2c0.1,0,0.1,0,0.2-0.1
  c0-0.1,0.1-0.1,0.1-0.2s0-0.2,0-0.3h-0.1l0,0c-0.2,0-0.3,0.1-0.3,0.3c0,0.1,0,0.1,0,0.2C21.9,29.2,22,29.2,22.1,29.2L22.1,29.2z
   M23.9,29.1c1,0,1.5-0.3,1.8-0.5c0.1-0.1,0.2-0.2,0.3-0.3c0,0,0-0.1,0.1-0.2l0,0c-0.1,0-0.2,0-0.2,0l0,0
  C25.3,28,24.7,28.2,23.9,29.1L23.9,29.1L23.9,29.1z M22.8,29c0.8-0.1,1.3-0.5,1.5-0.7c0.1-0.2,0.3-0.3,0.3-0.6c-0.1,0-0.2,0-0.2,0
  l0,0l0,0C23.9,27.7,23.2,27.9,22.8,29L22.8,29L22.8,29z M26.9,28.6c0.3,0,0.5,0,0.8-0.1c0.4-0.1,0.6-0.3,0.7-0.4
  c0,0,0.1-0.1,0.1-0.2c0,0,0,0,0-0.1l0,0c-0.2-0.1-0.4-0.1-0.7-0.1l0,0c-0.2,0-0.4,0-0.5,0.1c-0.4,0.1-0.8,0.3-1,0.6l0,0l0,0
  C26.4,28.6,26.6,28.6,26.9,28.6L26.9,28.6z M25,28c0.1,0,0.1,0,0.2-0.1c0-0.1,0.1-0.1,0.1-0.2s0-0.2,0-0.3h-0.1l0,0
  c-0.2,0-0.3,0.1-0.3,0.3c0,0.1,0,0.1,0,0.2C24.9,27.9,25,28,25,28L25,28z M26.4,27.8c0.3-0.1,0.5-0.2,0.8-0.3
  c0.3-0.2,0.8-0.6,0.8-1.2l0,0l0,0h-0.1l0,0c-0.1,0-0.3,0-0.6,0.2C27,26.7,26.7,27.2,26.4,27.8L26.4,27.8z M25.5,27.7
  c0.2-0.1,0.4-0.2,0.6-0.4c0.5-0.4,0.8-0.9,1.1-1.5c-0.1,0-0.1,0-0.2,0l0,0l0,0c-0.2,0-0.4,0.1-0.6,0.3C26,26.5,25.7,27,25.5,27.7
  L25.5,27.7L25.5,27.7L25.5,27.7z M27.9,27.7c0.3,0,0.4-0.2,0.4-0.2c0-0.1,0-0.2,0-0.2l0,0c0,0-0.1,0-0.2,0l0,0
  c-0.2,0-0.4,0.1-0.5,0.2c0,0-0.1,0.1,0,0.2C27.7,27.6,27.8,27.7,27.9,27.7L27.9,27.7z M28.5,26.8c0.2,0,0.5,0,0.7-0.1
  c0.3,0,0.4-0.3,0.5-0.5c0.1-0.1,0.1-0.3,0.1-0.4l0,0c-0.8,0-1.2,0.3-1.4,0.5c-0.1,0.1-0.2,0.3-0.2,0.4l0,0
  C28.2,26.8,28.4,26.8,28.5,26.8L28.5,26.8z M27.7,25.9c0,0,0.1-0.1,0.2-0.3c0.1-0.2,0.2-0.3,0.2-0.4s0-0.4,0-0.5c0-0.2,0-0.3,0-0.4
  l0,0c0,0-0.5,0.2-0.5,0.7C27.6,25.5,27.7,25.9,27.7,25.9L27.7,25.9L27.7,25.9L27.7,25.9z M28.3,25.9L28.3,25.9
  c0.2,0,0.4-0.1,0.7-0.3c0.3-0.2,0.6-0.4,0.7-0.6s0.2-0.4,0.2-0.7c0-0.2,0-0.3,0-0.5h-0.1c-0.1,0-0.2,0.1-0.4,0.2
  c-0.1,0.1-0.3,0.2-0.4,0.3c-0.2,0.2-0.3,0.3-0.5,0.5l0,0c0,0-0.2,0.3-0.3,0.5c-0.1,0.1-0.1,0.2-0.1,0.4
  C28.3,25.8,28.3,25.8,28.3,25.9L28.3,25.9L28.3,25.9L28.3,25.9z"
  />
<path
    fill="#D57800"
    d="M36,6.8L36,6.8l-0.2,0.1h-0.2L35.4,7l-0.3,0.2l0,0H35h-0.1h-0.1v0.1l-0.1,0.1h-0.1h-0.2l-0.2,0.1l-0.2,0
  h-0.1l-0.3,0.2l-0.1,0.1l0,0h-0.2h-0.1L33.1,8h-0.2h-0.1l-0.1,0.2l-0.1,0.1h-0.1h-0.1h-0.1v0.1v0.1h-0.1l-0.1,0.1L32,8.7h-0.1l0,0
  l-0.1,0.1h-0.2l-0.1,0.1l0,0l0,0h-0.1l0,0h-0.1L31,9V8.9h-0.1h-0.1L30.6,9h-0.1h-0.1v0.1l0,0l-0.1,0.1l-0.1,0.1l0,0L30,9.5l-0.3,0.3
  l-0.3,0.1L29.2,10L29,10.2l-0.5,0.2l-0.8,0.4h-0.2h-0.2L27,11l-0.3,0.1l0,0h-0.1l-0.5,0.1h-0.2h-0.1h-0.4h-0.2H25l-0.3,0.1l-0.5,0.2
  L24,11.6L23.8,12h-0.3v-0.1l0,0h-0.1h-0.1h-0.2H23h-0.1l0,0l-0.5,0.2l-0.5,0.1l-0.3,0.1h-0.2h-0.1H21h-0.1l0,0h-0.7h-0.3h-0.2
  l-0.3-0.1H19h-0.1l-0.2-0.1l-0.1,0.1h-0.1l-0.2-0.1h-0.1l-0.1,0.1H18l-0.1-0.1h-0.2l0-0.1l-0.6,0.1h-0.2l-0.5-0.2h-0.1L16.2,12
  L16,12h-0.1h-0.2h-0.2l-0.2-0.1h-0.1H15h-0.1l-0.3-0.2l-0.4-0.3l-0.3-0.1h-0.1v0.1l0.1,0.2v0.2V12v0.1v0.1l0.1,0.1v0.1v0.3V13
  l-0.1,0.5v0.1l-0.1,0.3l-0.1,0.3l-0.2,0.7L13.4,15l-0.1,0L13,15.2l-0.3,0.1h-0.1h-0.2h-0.1l-0.2-0.1h-0.2l-0.2-0.1h-0.2L11.3,15
  l-0.1-0.1h-0.1L11,14.8l0,0h-0.1l0,0l0,0h-0.2l-0.2-0.1h-0.1h-0.2L10,14.8l0,0H9.9H9.8H9.7l-0.1,0.1l0,0H9.5H9.4H9.3H9.2H9.1l0,0H9
  l0,0l0,0l0,0l0,0L9,15l-0.1-0.1l0,0H8.8l0,0V15v0.1l-0.1,0.1l-0.1,0.1l-0.1,0.1L8.1,16L8,16.2l0,0l-0.2,0.2l-0.1,0.1l-0.3,0.2
  L7,16.9L6.8,17H6.7H6.5l-0.2-0.1L6,16.7l-0.3-0.2l-0.4-0.4H5.2l0,0L5.1,16H5v0.1v0.1v0.1v0.4l0,0v0.2l0.3,0.4l0.1,0.2l0,0l0.1,0.1
  v0.1l0,0L5.6,18l-0.1,0.2v0.1l-0.1,0.1v0.1l0.2,0.3l0.1,0.1V19l-0.1,0.1l0,0v0.1l0.1,0.1l0.2,0.2L6,19.7l0.1,0.1h0.1h0.1h0.1
  l0.1,0.1l0,0h0.1l0,0.1v0.2l0.1,0.3v0.2l0,0l0.1,0.1v0.1v0.3l0.1,0.1H7h0.1l0.1,0.1l0.1,0.2h0.1h0.1L7.8,22h0.1l0,0H8v0.1L8.2,22
  l0,0h0.1h0.1l0.1,0.1h0.1l0.3,0.1H9l0.3,0.2l0.1,0.1l0.1,0.1l0.1,0.1l0.2,0.1H10h0.1h0.1l0,0l0,0l0,0l0.3,0.1h0.2l0.2,0.1H11h0.1
  l0.1-0.1h0.1h0.1h0.1l0.2-0.1l0,0l0.1-0.1h0.4h0.1l0.3-0.1l0.2,0.1l0.2-0.1l0.4,0.1l0.1,0.1l0.1,0.1l0,0h0.1L13.5,23l0.2,0.2
  l0.1,0.2l0,0l0.1,0.3l0.1,0.1l0,0.2v0.1l-0.1,0.1l0,0l0,0l0,0l0,0H14h0.1h0.1h0.1l0.1-0.1h0.1l0.1,0.1h0.2h0.1l0.2,0.1h0.1l0,0v-0.1
  v-0.1l0-0.1L15,23.8l0,0v-0.1v-0.2v-0.1v-0.2v-0.1V23l0,0l0,0l0.1-0.1l0.2-0.2l0.3-0.2l0.2-0.1l0.2-0.1l0,0l0,0l0.5-0.2l0,0h0.2
  l1.6,0.1h0.1l0,0l0.1-0.1l0,0l0,0l0.2-0.1h0.1l0.2,0.1h0.1l0.1-0.1h0.1l0.2-0.1h0.1h0.1l0.3-0.2l0.2-0.1h0.1l0,0l0.3-0.1l0.2-0.1
  l0.1-0.1h0.2h0.4l0.1-0.1h0.2l0.1-0.1H22l0.1-0.1l0.1-0.1l0.1-0.1h0.3H23h0.1L23,20l0.1-0.1l0.2-0.4v-0.1v-0.1v-0.2v-0.3v-0.3
  l0.2-0.4l0.1-0.1l0.2-0.1h0.1h0.2l0,0l0,0l0,0h0.5h0.2H25l0.4,0.1l0,0h0.2l0.2,0.1l0.2,0.2l0,0l0.1,0.1l0,0h0.1l0.1-0.1l0.1-0.1
  l0.1-0.1l0,0l0.1-0.1l0,0l0,0l0,0l0,0l0,0l0.3-0.1h0.3l0,0l0,0l0.1-0.1h0.1l0.2,0.1h0.1h0.1h0.1h0.2l0.2,0.1h0.1l0.4,0.2l0,0l0,0
  l0,0l0,0h0.1l0,0l0,0v0.1H29l0.1-0.1l0,0l0,0H29L28.9,18l0.1-0.1l0-0.3l0,0l0,0l-0.1-0.1L28.6,17l-0.4-0.3l0,0l-0.1-0.1l0,0l0,0
  l-0.2-0.2l-0.1-0.2l0,0v-0.1l-0.1-0.2l-0.2-0.1l-0.1-0.1l0,0L27,15.2v-0.1h-0.1h-0.1l0,0l0,0l0,0l0.1-0.1H27v-0.1l-0.1-0.4l0,0v-0.1
  l0.1-0.6v-0.1l0.2-0.4l0.1-0.1l0.1-0.2l0.1-0.2l0.1-0.1l0,0l0.2-0.1H28h0.1l0.3,0.1h0.2l0,0h0.1l0.2-0.1l0.1-0.1v-0.1l0.1-0.3V12
  l0.1-0.1l0.3-0.4l0.3-0.2l0.6-0.4l0.3-0.2l0.1-0.1l1.3-0.6l0.3-0.3l0.2-0.2l0.3-0.2l0.4-0.1L33.5,9l0.1-0.1l0.1-0.3h0.1l0.1-0.1l0,0
  l0.2-0.2l0,0l1-0.5h0.1l0.1-0.1h0.3h0.1h0.1l0.1-0.1l0,0V7.3L36,7.2V7l0,0L36,6.8L36,6.8L36,6.8L36,6.8z"
  />
</svg>
