<?xml version="1.0" encoding="utf-8" ?>
<!-- Generator: Adobe Illustrator 28.0.0, SVG Export Plug-In . SVG Version: 6.00 Build 0)  -->
<svg
  version="1.1"
  id="Layer_1"
  xmlns:v="https://vecta.io/nano"
  xmlns="http://www.w3.org/2000/svg"
  xmlns:xlink="http://www.w3.org/1999/xlink"
  x="0px"
  y="0px"
  viewBox="0 0 40 40"
  style="enable-background:new 0 0 40 40;"
  xml:space="preserve"
>
<style type="text/css">
.st0 {
  fill-rule: evenodd;
  clip-rule: evenodd;
  fill: #fffffe;
  stroke: #d5d5d4;
  stroke-width: 0.5;
  stroke-miterlimit: 10;
}
.st1 {
  fill-rule: evenodd;
  clip-rule: evenodd;
  fill: #cf142b;
}
.st2 {
  fill-rule: evenodd;
  clip-rule: evenodd;
  fill: #fffffe;
}
.st3 {
  fill-rule: evenodd;
  clip-rule: evenodd;
  fill: #ffffff;
}
.st4 {
  stroke: #000000;
  stroke-width: 6.626546e-3;
  stroke-linejoin: round;
  stroke-miterlimit: 3.9492;
}
.st5 {
  fill: none;
  stroke: #000000;
  stroke-width: 1.139766e-2;
  stroke-linecap: round;
  stroke-linejoin: round;
  stroke-miterlimit: 3.9492;
}
.st6 {
  fill: none;
  stroke: #000000;
  stroke-width: 1.987964e-2;
  stroke-linejoin: round;
  stroke-miterlimit: 3.9492;
}

.st7 {
  fill-rule: evenodd;
  clip-rule: evenodd;
  stroke: #000000;
  stroke-width: 3.777131e-3;
  stroke-linecap: round;
  stroke-linejoin: round;
  stroke-miterlimit: 3.9492;
}
.st8 {
  fill: none;
  stroke: #000000;
  stroke-width: 1.987964e-2;
  stroke-linecap: round;
  stroke-linejoin: round;
  stroke-miterlimit: 3.9492;
}
.st9 {
  fill: none;
  stroke: #000000;
  stroke-width: 1.656636e-2;
  stroke-linecap: round;
  stroke-linejoin: round;
  stroke-miterlimit: 3.9492;
}
.st10 {
  stroke: #000000;
  stroke-width: 9.939819e-3;
  stroke-linejoin: round;
  stroke-miterlimit: 3.9492;
}
.st11 {
  fill: none;
  stroke: #000000;
  stroke-width: 1.656636e-2;
  stroke-linejoin: round;
  stroke-miterlimit: 3.9492;
}
.st12 {
  fill: none;
  stroke: #000000;
  stroke-width: 3.313273e-2;
  stroke-linejoin: round;
  stroke-miterlimit: 3.9492;
}
.st13 {
  fill-rule: evenodd;
  clip-rule: evenodd;
}
.st14 {
  fill: none;
  stroke: #000000;
  stroke-width: 2.650444e-2;
  stroke-linecap: round;
  stroke-linejoin: round;
  stroke-miterlimit: 10;
}
.st15 {
  fill: none;
  stroke: #cf142b;
  stroke-width: 0.1865;
  stroke-miterlimit: 3.9492;
}

.st16 {
  fill-rule: evenodd;
  clip-rule: evenodd;
  stroke: #000000;
  stroke-width: 9.939819e-3;
  stroke-linejoin: round;
  stroke-miterlimit: 3.9492;
}
  </style>
<path class="st0" d="M1,39h38V1H1V39z" />
<path class="st1" d="M20,39h19V1H20V39z" />
<path class="st2" d="M1,39h19V1H1V39z" />
<path
    class="st3"
    d="M8.9,5L8.9,5v3C8.4,8,8,8.4,8,8.9H5l0,0v3.2l0,0h3C8,12.6,8.4,13,8.9,13v3l0,0h3.2l0,0v-3
    c0.5,0,0.9-0.5,0.9-0.9h3l0,0V8.9l0,0h-3C13,8.4,12.5,8,12.1,8V5l0,0H8.9z"
  />
<path
    d="M10.7,11.1L10.7,11.1L10.7,11.1C10.8,11.1,10.8,11.1,10.7,11.1C10.8,11.1,10.8,11.1,10.7,11.1h0.1l0,0l0,0l0,0l0,0l0,0l0,0
    l0,0l0,0l0,0l0,0l0,0l0,0l0,0l0,0l0,0l0,0l0,0l0,0l0,0l0,0l0,0l0,0l0,0l0,0l0,0l0,0l0,0l0,0l0,0l0,0l0,0H10.7L10.7,11.1
    C10.8,11.1,10.8,11.1,10.7,11.1L10.7,11.1L10.7,11.1L10.7,11.1L10.7,11.1L10.7,11.1z"
  />
<path
    class="st4"
    d="M11.7,11.6L11.7,11.6L11.7,11.6L11.7,11.6L11.7,11.6L11.7,11.6L11.7,11.6L11.7,11.6L11.7,11.6L11.7,11.6
    L11.7,11.6L11.7,11.6L11.7,11.6L11.7,11.6L11.7,11.6L11.7,11.6L11.7,11.6L11.7,11.6L11.7,11.6L11.7,11.6L11.7,11.6L11.7,11.6
    L11.7,11.6L11.7,11.6L11.7,11.6C11.7,11.5,11.7,11.5,11.7,11.6C11.7,11.5,11.7,11.6,11.7,11.6L11.7,11.6z M11.3,11.4L11.3,11.4
    L11.3,11.4L11.3,11.4L11.3,11.4C11.3,11.3,11.3,11.3,11.3,11.4L11.3,11.4L11.3,11.4L11.3,11.4C11.2,11.3,11.2,11.3,11.3,11.4v-0.1
    l0,0l0,0l0,0l0,0l0,0l0,0l0,0l0,0l0,0l0,0l0,0l0,0l0,0l0,0l0,0l0,0l0,0l0,0l0,0l0,0l0,0l0,0l0,0l0,0l0,0l0,0l0,0l0,0l0,0l0,0l0,0
    l0,0l0,0l0,0l0,0l0,0l0,0l0,0l0,0l0,0l0,0l0,0l0,0l0,0l0,0l0,0l0,0l0,0l0,0l0,0l0,0l0,0l0,0l0,0l0,0l0,0l0,0l0,0l0,0l0,0l0,0l0,0
    l0,0l0,0l0,0l0,0l0,0l0,0l0,0l0,0l0,0l0,0l0,0l0,0l0,0l0,0l0,0l0,0l0,0V11.4C11.3,11.3,11.3,11.3,11.3,11.4L11.3,11.4L11.3,11.4
    L11.3,11.4L11.3,11.4L11.3,11.4L11.3,11.4L11.3,11.4z"
  />
<path
    class="st4"
    d="M11,11.3L11,11.3L11,11.3L11,11.3L11,11.3L11,11.3L11,11.3L11,11.3c0.1,0,0.1,0,0.1,0l0,0l0,0l0,0l0,0l0,0l0,0
    l0,0l0,0l0,0l0,0l0,0l0,0l0,0l0,0l0,0l0,0l0,0l0,0l0,0l0,0H11C11.1,11.3,11.1,11.3,11,11.3L11,11.3L11,11.3L11,11.3L11,11.3L11,11.3
    L11,11.3L11,11.3L11,11.3L11,11.3L11,11.3L11,11.3z M11.1,11.4L11.1,11.4L11.1,11.4L11.1,11.4L11.1,11.4
    C11.2,11.4,11.2,11.4,11.1,11.4l0.1-0.1l0,0l0,0l0,0l0,0l0,0l0,0l0,0l0,0l0,0C11.2,11.4,11.2,11.4,11.1,11.4L11.1,11.4L11.1,11.4
    C11.2,11.4,11.2,11.4,11.1,11.4L11.1,11.4L11.1,11.4L11.1,11.4L11.1,11.4L11.1,11.4L11.1,11.4L11.1,11.4L11.1,11.4L11.1,11.4
    L11.1,11.4z M11.7,10.7L11.7,10.7L11.7,10.7L11.7,10.7L11.7,10.7L11.7,10.7L11.7,10.7L11.7,10.7L11.7,10.7L11.7,10.7L11.7,10.7z
     M11.8,10.8L11.8,10.8L11.8,10.8C11.7,10.8,11.7,10.8,11.8,10.8C11.7,10.8,11.7,10.8,11.8,10.8C11.7,10.8,11.7,10.8,11.8,10.8
    C11.7,10.8,11.7,10.8,11.8,10.8L11.8,10.8C11.7,10.8,11.7,10.8,11.8,10.8C11.7,10.8,11.7,10.8,11.8,10.8
    C11.7,10.8,11.7,10.8,11.8,10.8L11.8,10.8L11.8,10.8L11.8,10.8L11.8,10.8z M12,11.1L12,11.1L12,11.1C12,11.1,11.9,11.1,12,11.1
    C11.9,11.1,11.9,11.1,12,11.1C11.9,11.1,11.9,11.1,12,11.1h-0.1l0,0l0,0l0,0l0,0l0,0l0,0l0,0l0,0l0,0l0,0l0,0l0,0l0,0l0,0l0,0l0,0
    l0,0l0,0l0,0l0,0l0,0l0,0l0,0l0,0l0,0l0,0l0,0l0,0l0,0l0,0l0,0l0,0l0,0l0,0l0,0l0,0l0,0l0,0l0,0l0,0l0,0l0,0H12
    C11.9,11.1,11.9,11.1,12,11.1L12,11.1L12,11.1L12,11.1L12,11.1L12,11.1L12,11.1z M11.5,10.8L11.5,10.8L11.5,10.8
    C11.6,10.8,11.6,10.8,11.5,10.8C11.6,10.9,11.6,10.9,11.5,10.8L11.5,10.8L11.5,10.8l0.1,0.1l0,0l0,0l0,0l0,0l0,0l0,0l0,0l0,0l0,0
    l0,0l0,0L11.5,10.8L11.5,10.8L11.5,10.8L11.5,10.8L11.5,10.8L11.5,10.8L11.5,10.8L11.5,10.8L11.5,10.8L11.5,10.8z"
  />
<path
    d="M11.7,10.9L11.7,10.9C11.7,11,11.7,11,11.7,10.9L11.7,10.9C11.7,11,11.7,11,11.7,10.9C11.7,11,11.7,11,11.7,10.9
    C11.7,11,11.7,11,11.7,10.9L11.7,10.9C11.7,11,11.7,11,11.7,10.9C11.7,11,11.7,11,11.7,10.9L11.7,10.9C11.7,11,11.7,11,11.7,10.9
    C11.7,11,11.7,11,11.7,10.9C11.7,11,11.7,11,11.7,10.9C11.7,11,11.7,11,11.7,10.9C11.7,11,11.7,11,11.7,10.9c-0.1,0-0.1,0-0.1,0l0,0
    l0,0l0,0H11.7L11.7,10.9C11.7,11,11.7,11,11.7,10.9C11.7,11,11.7,11,11.7,10.9L11.7,10.9L11.6,11l0,0l0,0l0,0l0,0l0,0l0,0l0,0l0,0
    l0,0l0,0l0,0l0,0l0,0l0,0l0,0l0,0l0,0l0,0l0,0L11.7,10.9L11.7,10.9L11.7,10.9L11.7,10.9C11.7,11,11.7,11,11.7,10.9L11.7,10.9
    C11.7,11,11.7,11,11.7,10.9C11.7,11,11.7,11,11.7,10.9C11.7,11,11.7,11,11.7,10.9C11.7,11,11.7,11,11.7,10.9
    C11.7,11,11.7,11,11.7,10.9L11.7,10.9L11.7,10.9L11.7,10.9C11.7,11,11.7,11,11.7,10.9C11.7,11,11.7,11,11.7,10.9
    C11.7,11,11.7,11,11.7,10.9C11.7,11,11.7,11,11.7,10.9C11.8,11,11.8,11,11.7,10.9C11.8,11,11.8,11,11.7,10.9
    C11.8,11,11.8,11,11.7,10.9c0.1,0.1,0.1,0.1,0.1,0.1l0,0l0,0l0,0l0,0l0,0l0,0l0,0C11.8,11,11.8,11,11.7,10.9
    C11.8,11,11.8,11,11.7,10.9C11.8,11,11.8,11,11.7,10.9C11.8,11,11.8,11,11.7,10.9C11.8,11,11.8,10.9,11.7,10.9L11.7,10.9L11.7,10.9z
     M11.7,11L11.7,11L11.7,11L11.7,11z"
  />
<path
    class="st4"
    d="M11.8,10.8L11.8,10.8L11.8,10.8L11.8,10.8L11.8,10.8L11.8,10.8L11.8,10.8L11.8,10.8L11.8,10.8L11.8,10.8
    L11.8,10.8L11.8,10.8L11.8,10.8z"
  />
<path
    class="st5"
    d="M11.4,11c-0.1,0-0.1,0.1-0.1,0.1s0.1,0.1,0,0.2 M10.9,11.7L10.9,11.7c-0.1,0-0.1,0-0.2,0l0.1-0.1
    c0-0.1-0.1-0.1-0.1-0.1s-0.1-0.1-0.2,0 M11.4,11.7c0,0-0.1-0.2-0.3-0.1"
  />
<path
    class="st4"
    d="M11.3,10.9L11.3,10.9L11.3,10.9L11.3,10.9L11.3,10.9C11.2,10.9,11.2,11,11.3,10.9C11.2,11,11.2,11,11.3,10.9
    C11.2,11,11.2,11,11.3,10.9C11.2,11,11.2,11,11.3,10.9C11.2,11,11.2,11,11.2,11l0,0l0,0l0,0l0,0l0,0l0,0l0,0l0,0
    C11.2,11,11.2,11,11.3,10.9C11.2,11,11.2,11,11.3,10.9C11.2,10.9,11.3,10.9,11.3,10.9L11.3,10.9L11.3,10.9L11.3,10.9L11.3,10.9z
     M11.1,10.8L11.1,10.8L11.1,10.8C11.1,10.9,11,10.9,11.1,10.8L11.1,10.8C11,10.9,11,10.9,11.1,10.8C11,10.9,11,10.9,11.1,10.8
    C11,10.9,11,10.9,11.1,10.8L11.1,10.8C11,10.9,11,10.9,11.1,10.8C11,10.9,11,10.9,11.1,10.8L11.1,10.8
    C11.1,10.9,11.1,10.9,11.1,10.8L11.1,10.8L11.1,10.8L11.1,10.8L11.1,10.8L11.1,10.8L11.1,10.8z M11.6,11.4L11.6,11.4L11.6,11.4
    L11.6,11.4L11.6,11.4L11.6,11.4c-0.1,0-0.1,0-0.1,0l0,0l0,0l0,0H11.6C11.5,11.5,11.5,11.5,11.6,11.4L11.6,11.4L11.6,11.4L11.6,11.4
    L11.6,11.4L11.6,11.4L11.6,11.4L11.6,11.4L11.6,11.4L11.6,11.4L11.6,11.4z"
  />
<path
    class="st4"
    d="M11.6,11.4L11.6,11.4L11.6,11.4L11.6,11.4L11.6,11.4L11.6,11.4L11.6,11.4L11.6,11.4L11.6,11.4
    C11.5,11.4,11.5,11.4,11.6,11.4C11.5,11.3,11.5,11.3,11.6,11.4c-0.1-0.1-0.1-0.1-0.1-0.1l0,0l0,0l0,0l0,0l0,0l0,0l0,0l0,0l0,0l0,0
    l0,0l0,0l0,0l0,0l0,0l0,0l0,0l0,0l0,0l0,0l0,0l0,0l0,0L11.6,11.4L11.6,11.4C11.5,11.3,11.5,11.3,11.6,11.4L11.6,11.4L11.6,11.4
    L11.6,11.4L11.6,11.4L11.6,11.4L11.6,11.4L11.6,11.4L11.6,11.4L11.6,11.4L11.6,11.4z"
  />
<path
    class="st4"
    d="M11.4,11L11.4,11L11.4,11L11.4,11L11.4,11C11.3,11,11.3,11,11.4,11C11.3,11,11.3,11,11.4,11L11.4,11L11.4,11
    L11.4,11C11.3,11,11.3,11,11.4,11L11.4,11C11.3,11,11.3,11,11.4,11c-0.1,0.1-0.1,0.1-0.1,0.1l0,0l0,0l0,0l0,0l0,0l0,0l0,0l0,0l0,0
    l0,0l0,0l0,0l0,0l0,0l0,0l0,0l0,0l0,0l0,0l0,0l0,0l0,0l0,0l0,0l0,0l0,0l0,0l0,0l0,0l0,0l0,0l0,0l0,0l0,0l0,0l0,0l0,0l0,0l0,0l0,0
    l0,0l0,0l0,0l0,0l0,0l0,0l0,0l0,0l0,0l0,0L11.4,11C11.3,11,11.3,11,11.4,11C11.3,11,11.3,11,11.4,11L11.4,11
    C11.3,11,11.3,11,11.4,11L11.4,11L11.4,11L11.4,11L11.4,11L11.4,11z M12,11.2L12,11.2L12,11.2L12,11.2C11.9,11.2,11.9,11.2,12,11.2
    C11.9,11.2,11.9,11.2,12,11.2C11.9,11.2,11.9,11.2,12,11.2C11.9,11.2,11.9,11.2,12,11.2C11.9,11.2,11.9,11.2,12,11.2
    C11.9,11.2,11.9,11.2,12,11.2C11.9,11.2,11.9,11.2,12,11.2C11.9,11.2,11.9,11.2,12,11.2C11.9,11.2,11.9,11.2,12,11.2
    C11.9,11.2,11.9,11.2,12,11.2L12,11.2C11.9,11.3,11.9,11.3,12,11.2L12,11.2L12,11.2L12,11.2C11.9,11.3,11.9,11.3,12,11.2l-0.1,0.1
    l0,0l0,0l0,0l0,0l0,0l0,0l0,0l0,0l0,0l0,0l0,0l0,0l0,0l0,0l0,0l0,0l0,0l0,0l0,0l0,0l0,0l0,0l0,0l0,0l0,0l0,0l0,0
    C11.9,11.3,11.9,11.3,12,11.2L12,11.2C11.9,11.3,11.9,11.3,12,11.2L12,11.2L12,11.2C11.9,11.3,11.9,11.2,12,11.2
    C11.9,11.2,11.9,11.2,12,11.2C11.9,11.2,11.9,11.2,12,11.2C11.9,11.2,11.9,11.2,12,11.2L12,11.2C11.9,11.2,11.9,11.2,12,11.2
    L12,11.2C11.9,11.2,11.9,11.2,12,11.2C11.9,11.2,11.9,11.2,12,11.2C11.9,11.2,11.9,11.2,12,11.2C11.9,11.2,11.9,11.2,12,11.2
    L12,11.2L12,11.2L12,11.2L12,11.2L12,11.2z M11.9,11.3L11.9,11.3C11.9,11.3,11.9,11.4,11.9,11.3L11.9,11.3
    C11.9,11.4,11.9,11.4,11.9,11.3L11.9,11.3L11.9,11.3C11.9,11.4,11.9,11.4,11.9,11.3L11.9,11.3L11.9,11.3L11.9,11.3
    C11.8,11.4,11.8,11.4,11.9,11.3C11.8,11.4,11.8,11.4,11.9,11.3C11.8,11.4,11.8,11.4,11.9,11.3C11.8,11.4,11.8,11.4,11.9,11.3
    L11.9,11.3C11.8,11.4,11.8,11.4,11.9,11.3L11.9,11.3L11.9,11.3L11.9,11.3C11.9,11.4,11.9,11.4,11.9,11.3
    C11.9,11.4,11.9,11.4,11.9,11.3C11.9,11.4,11.9,11.4,11.9,11.3C11.9,11.4,11.9,11.3,11.9,11.3L11.9,11.3L11.9,11.3L11.9,11.3
    L11.9,11.3C11.9,11.4,11.9,11.3,11.9,11.3L11.9,11.3L11.9,11.3L11.9,11.3L11.9,11.3z M11.6,11.7L11.6,11.7L11.6,11.7L11.6,11.7
    C11.7,11.6,11.7,11.6,11.6,11.7L11.6,11.7L11.6,11.7L11.6,11.7L11.6,11.7L11.6,11.7C11.7,11.6,11.7,11.6,11.6,11.7L11.6,11.7
    C11.7,11.6,11.7,11.6,11.6,11.7C11.7,11.6,11.7,11.6,11.6,11.7l0.1-0.1l0,0l0,0l0,0C11.7,11.6,11.7,11.6,11.6,11.7
    C11.7,11.6,11.7,11.6,11.6,11.7C11.7,11.6,11.7,11.6,11.6,11.7C11.7,11.6,11.7,11.6,11.6,11.7L11.6,11.7L11.6,11.7
    C11.7,11.6,11.7,11.6,11.6,11.7L11.6,11.7L11.6,11.7L11.6,11.7L11.6,11.7L11.6,11.7C11.7,11.7,11.7,11.7,11.6,11.7L11.6,11.7
    L11.6,11.7L11.6,11.7L11.6,11.7z"
  />
<path
    class="st4"
    d="M11.7,11.5L11.7,11.5L11.7,11.5L11.7,11.5L11.7,11.5L11.7,11.5C11.7,11.6,11.7,11.6,11.7,11.5L11.7,11.5
    C11.8,11.6,11.7,11.6,11.7,11.5L11.7,11.5C11.8,11.6,11.8,11.6,11.7,11.5C11.8,11.6,11.8,11.6,11.7,11.5L11.7,11.5L11.7,11.5
    l0.1,0.1l0,0l0,0l0,0C11.8,11.6,11.8,11.6,11.7,11.5C11.8,11.6,11.8,11.6,11.7,11.5L11.7,11.5C11.8,11.6,11.8,11.6,11.7,11.5
    L11.7,11.5L11.7,11.5L11.7,11.5L11.7,11.5C11.8,11.6,11.8,11.6,11.7,11.5L11.7,11.5L11.7,11.5L11.7,11.5
    C11.8,11.6,11.8,11.5,11.7,11.5C11.8,11.5,11.8,11.5,11.7,11.5C11.8,11.5,11.8,11.6,11.7,11.5C11.8,11.6,11.8,11.6,11.7,11.5
    C11.8,11.6,11.8,11.6,11.7,11.5L11.7,11.5L11.7,11.5C11.8,11.6,11.8,11.6,11.7,11.5L11.7,11.5L11.7,11.5L11.7,11.5L11.7,11.5
    L11.7,11.5L11.7,11.5L11.7,11.5L11.7,11.5z"
  />
<path
    class="st5"
    d="M11.8,11.5c-0.1,0-0.2,0.1-0.2,0.1 M10.9,11.3L10.9,11.3C10.9,11.3,11,11.3,10.9,11.3c0.2,0.1,0.1,0.1,0.1,0.1
    s0.1-0.1,0.1,0v0.1l0.1-0.1h0.1c0,0,0-0.1-0.1-0.2l0,0c0-0.1-0.1-0.2-0.3-0.3"
  />
<path
    class="st4"
    d="M11.7,11.5L11.7,11.5L11.7,11.5L11.7,11.5C11.6,11.5,11.6,11.5,11.7,11.5C11.6,11.5,11.6,11.5,11.7,11.5
    L11.7,11.5C11.6,11.6,11.6,11.6,11.7,11.5l-0.1,0.1l0,0l0,0l0,0l0,0l0,0l0,0l0,0l0,0l0,0l0,0l0,0l0,0l0,0l0,0l0,0l0,0l0,0l0,0l0,0
    l0,0l0,0l0,0l0,0l0,0l0,0l0,0l0,0l0,0l0,0l0,0l0,0l0,0l0,0l0,0l0,0l0,0l0,0l0,0l0,0l0,0l0,0l0,0l0,0l0,0l0,0l0,0l0,0l0,0l0,0l0,0
    l0,0l0,0l0,0l0,0l0,0l0,0l0,0l0,0l0,0l0,0l0,0l0,0l0,0l0,0l0,0l0,0l0,0l0,0l0,0l0,0l0,0l0,0l0,0l0,0l0,0L11.7,11.5L11.7,11.5
    L11.7,11.5L11.7,11.5C11.6,11.5,11.7,11.5,11.7,11.5L11.7,11.5L11.7,11.5L11.7,11.5L11.7,11.5L11.7,11.5z M11.3,11.2L11.3,11.2
    L11.3,11.2C11.3,11.2,11.2,11.2,11.3,11.2L11.3,11.2L11.3,11.2L11.3,11.2L11.3,11.2C11.2,11.1,11.2,11.1,11.3,11.2L11.3,11.2
    C11.2,11.1,11.2,11.1,11.3,11.2L11.3,11.2L11.3,11.2C11.2,11.1,11.2,11.1,11.3,11.2L11.3,11.2L11.3,11.2
    C11.2,11.1,11.2,11.1,11.3,11.2L11.3,11.2C11.3,11.1,11.3,11.1,11.3,11.2C11.3,11.1,11.3,11.2,11.3,11.2L11.3,11.2L11.3,11.2z
     M11.1,11.1L11.1,11.1L11.1,11.1L11.1,11.1L11.1,11.1L11.1,11.1L11.1,11.1L11.1,11.1C11.1,11,11.1,11,11.1,11.1V11l0,0l0,0l0,0l0,0
    l0,0l0,0l0,0l0,0l0,0l0,0l0,0l0,0l0,0l0,0l0,0l0,0l0,0l0,0l0,0l0,0l0,0l0,0l0,0l0,0l0,0l0,0l0,0l0,0l0,0l0,0l0,0l0,0l0,0l0,0l0,0
    l0,0l0,0l0,0l0,0l0,0l0,0l0,0l0,0l0,0l0,0l0,0l0,0l0,0l0,0l0,0l0,0l0,0l0,0l0,0l0,0l0,0l0,0l0,0l0,0l0,0l0,0l0,0l0,0V11.1
    C11.1,11,11.1,11,11.1,11.1L11.1,11.1L11.1,11.1L11.1,11.1L11.1,11.1L11.1,11.1L11.1,11.1L11.1,11.1L11.1,11.1L11.1,11.1z M10.6,11
    L10.6,11L10.6,11L10.6,11L10.6,11C10.7,11,10.7,11,10.6,11C10.7,11,10.7,11,10.6,11L10.6,11L10.6,11L10.6,11L10.6,11L10.6,11
    L10.6,11L10.6,11h0.1l0,0l0,0l0,0l0,0l0,0l0,0l0,0l0,0l0,0l0,0l0,0l0,0l0,0l0,0l0,0l0,0l0,0l0,0l0,0l0,0l0,0l0,0l0,0l0,0l0,0l0,0
    l0,0l0,0l0,0l0,0l0,0l0,0l0,0l0,0l0,0l0,0l0,0l0,0l0,0l0,0l0,0l0,0l0,0l0,0l0,0l0,0l0,0l0,0l0,0l0,0l0,0l0,0l0,0l0,0l0,0l0,0l0,0
    l0,0l0,0l0,0l0,0l0,0l0,0l0,0l0,0l0,0l0,0l0,0l0,0l0,0l0,0l0,0l0,0l0,0l0,0l0,0l0,0l0,0l0,0H10.6L10.6,11L10.6,11L10.6,11L10.6,11
    L10.6,11L10.6,11L10.6,11C10.7,11,10.7,11,10.6,11C10.7,11,10.7,11,10.6,11C10.7,11,10.7,11,10.6,11C10.7,11,10.7,11,10.6,11
    C10.7,11,10.7,11,10.6,11L10.6,11L10.6,11L10.6,11L10.6,11z"
  />
<path
    class="st4"
    d="M10.8,11.1L10.8,11.1L10.8,11.1L10.8,11.1L10.8,11.1L10.8,11.1L10.8,11.1L10.8,11.1L10.8,11.1L10.8,11.1
    L10.8,11.1h0.1l0,0l0,0l0,0l0,0l0,0l0,0l0,0l0,0l0,0l0,0l0,0l0,0l0,0l0,0l0,0l0,0l0,0l0,0l0,0l0,0l0,0l0,0l0,0l0,0l0,0l0,0l0,0l0,0
    l0,0l0,0l0,0l0,0l0,0l0,0l0,0l0,0l0,0l0,0l0,0l0,0l0,0C10.9,11.1,10.9,11.1,10.8,11.1C10.9,11.1,10.9,11.1,10.8,11.1L10.8,11.1
    L10.8,11.1L10.8,11.1L10.8,11.1L10.8,11.1L10.8,11.1L10.8,11.1L10.8,11.1L10.8,11.1L10.8,11.1z M10.9,11.4L10.9,11.4L10.9,11.4
    L10.9,11.4L10.9,11.4L10.9,11.4l0.1,0.1l0,0l0,0l0,0l0,0l0,0l0,0l0,0l0,0l0,0l0,0l0,0l0,0l0,0l0,0l0,0l0,0l0,0l0,0l0,0l0,0l0,0
    C11,11.5,11,11.5,10.9,11.4L10.9,11.4L10.9,11.4L10.9,11.4L10.9,11.4C10.9,11.4,10.9,11.3,10.9,11.4L10.9,11.4z"
  />
<path
    class="st4"
    d="M10.9,11.4L10.9,11.4L10.9,11.4L10.9,11.4L10.9,11.4L10.9,11.4L10.9,11.4C10.9,11.5,10.9,11.5,10.9,11.4
    C10.9,11.5,10.9,11.5,10.9,11.4C10.9,11.5,10.9,11.5,10.9,11.4L10.9,11.4L10.9,11.4C10.9,11.5,10.9,11.5,10.9,11.4l0.1,0.1l0,0l0,0
    l0,0l0,0l0,0l0,0l0,0l0,0l0,0l0,0l0,0l0,0l0,0C10.9,11.5,10.9,11.5,10.9,11.4C10.9,11.5,10.9,11.5,10.9,11.4
    C10.9,11.5,10.9,11.5,10.9,11.4L10.9,11.4L10.9,11.4C10.8,11.4,10.8,11.4,10.9,11.4L10.9,11.4L10.9,11.4
    C10.8,11.4,10.8,11.4,10.9,11.4L10.9,11.4z"
  />
<path
    class="st4"
    d="M10.8,11.5L10.8,11.5L10.8,11.5L10.8,11.5L10.8,11.5L10.8,11.5C10.8,11.5,10.9,11.5,10.8,11.5
    C10.9,11.5,10.9,11.5,10.8,11.5C10.9,11.5,10.9,11.5,10.8,11.5C10.9,11.5,10.9,11.5,10.8,11.5C10.9,11.5,10.9,11.5,10.8,11.5
    C10.9,11.5,10.9,11.5,10.8,11.5L10.8,11.5C10.9,11.5,10.9,11.5,10.8,11.5C10.9,11.5,10.9,11.5,10.8,11.5L10.8,11.5L10.8,11.5
    L10.8,11.5L10.8,11.5C10.9,11.6,10.9,11.6,10.8,11.5C10.9,11.6,10.9,11.6,10.8,11.5C10.9,11.6,10.9,11.6,10.8,11.5L10.8,11.5
    c0.1,0.1,0.1,0.1,0.1,0.1l0,0l0,0l0,0l0,0l0,0l0,0l0,0l0,0l0,0l0,0l0,0l0,0l0,0l0,0l0,0l0,0l0,0l0,0l0,0l0,0l0,0l0,0l0,0l0,0l0,0
    l0,0l0,0l0,0l0,0L10.8,11.5C10.9,11.6,10.9,11.6,10.8,11.5L10.8,11.5L10.8,11.5C10.9,11.6,10.9,11.6,10.8,11.5L10.8,11.5
    C10.9,11.5,10.9,11.5,10.8,11.5L10.8,11.5C10.9,11.5,10.9,11.5,10.8,11.5C10.9,11.5,10.9,11.5,10.8,11.5L10.8,11.5
    C10.9,11.5,10.9,11.5,10.8,11.5C10.9,11.5,10.9,11.5,10.8,11.5L10.8,11.5C10.9,11.5,10.9,11.5,10.8,11.5L10.8,11.5L10.8,11.5
    L10.8,11.5L10.8,11.5L10.8,11.5L10.8,11.5L10.8,11.5L10.8,11.5L10.8,11.5z M10.9,11.6C10.9,11.7,11,11.7,10.9,11.6
    C11,11.7,11,11.7,10.9,11.6C11,11.7,11,11.7,10.9,11.6C11,11.7,11,11.7,10.9,11.6c0.1,0,0.1,0,0.1,0l0,0l0,0l0,0l0,0l0,0l0,0l0,0
    l0,0l0,0l0,0l0,0l0,0l0,0l0,0l0,0l0,0l0,0l0,0l0,0l0,0l0,0l0,0l0,0l0,0l0,0l0,0l0,0l0,0l0,0l0,0H10.9L10.9,11.6L10.9,11.6
    C11,11.7,11,11.7,10.9,11.6C11,11.7,11,11.7,10.9,11.6C10.9,11.7,10.9,11.7,10.9,11.6C10.9,11.7,10.9,11.6,10.9,11.6L10.9,11.6z
     M10.7,11.7L10.7,11.7L10.7,11.7L10.7,11.7L10.7,11.7L10.7,11.7c-0.1,0-0.1,0-0.1,0l0,0l0,0l0,0l0,0l0,0l0,0l0,0l0,0l0,0l0,0l0,0
    l0,0l0,0l0,0l0,0l0,0l0,0l0,0l0,0l0,0H10.7L10.7,11.7L10.7,11.7L10.7,11.7L10.7,11.7L10.7,11.7z"
  />
<path
    class="st4"
    d="M10.4,11.7L10.4,11.7L10.4,11.7L10.4,11.7L10.4,11.7L10.4,11.7L10.4,11.7L10.4,11.7L10.4,11.7L10.4,11.7
    L10.4,11.7C10.5,11.7,10.5,11.7,10.4,11.7C10.5,11.7,10.5,11.7,10.4,11.7C10.5,11.7,10.5,11.7,10.4,11.7L10.4,11.7
    C10.5,11.7,10.5,11.7,10.4,11.7C10.5,11.7,10.5,11.7,10.4,11.7C10.5,11.7,10.5,11.7,10.4,11.7L10.4,11.7L10.4,11.7L10.4,11.7
    L10.4,11.7L10.4,11.7L10.4,11.7L10.4,11.7L10.4,11.7L10.4,11.7L10.4,11.7L10.4,11.7L10.4,11.7z M10.8,11.7L10.8,11.7L10.8,11.7
    L10.8,11.7L10.8,11.7C10.8,11.7,10.7,11.7,10.8,11.7C10.7,11.7,10.7,11.7,10.8,11.7L10.8,11.7L10.8,11.7L10.8,11.7L10.8,11.7
    C10.7,11.7,10.7,11.7,10.8,11.7L10.8,11.7L10.8,11.7C10.7,11.7,10.7,11.7,10.8,11.7C10.7,11.7,10.7,11.7,10.8,11.7
    C10.7,11.7,10.7,11.7,10.8,11.7L10.8,11.7L10.8,11.7L10.8,11.7L10.8,11.7L10.8,11.7L10.8,11.7L10.8,11.7L10.8,11.7z M10.8,11.8
    L10.8,11.8L10.8,11.8L10.8,11.8C10.7,11.8,10.7,11.8,10.8,11.8C10.7,11.8,10.7,11.8,10.8,11.8C10.7,11.8,10.7,11.8,10.8,11.8
    c-0.1,0-0.1,0-0.1,0l0,0H10.8C10.7,11.8,10.7,11.8,10.8,11.8C10.7,11.8,10.7,11.8,10.8,11.8L10.8,11.8L10.8,11.8c-0.1,0-0.1,0-0.1,0
    l0,0l0,0l0,0l0,0l0,0C10.7,11.8,10.7,11.8,10.8,11.8C10.7,11.8,10.7,11.8,10.8,11.8C10.7,11.8,10.7,11.8,10.8,11.8L10.8,11.8
    L10.8,11.8L10.8,11.8L10.8,11.8L10.8,11.8L10.8,11.8z M10.5,11.4L10.5,11.4L10.5,11.4L10.5,11.4L10.5,11.4L10.5,11.4L10.5,11.4
    C10.4,11.4,10.4,11.4,10.5,11.4L10.5,11.4L10.5,11.4C10.4,11.4,10.5,11.4,10.5,11.4L10.5,11.4L10.5,11.4L10.5,11.4L10.5,11.4
    L10.5,11.4L10.5,11.4z M10.3,11.4L10.3,11.4L10.3,11.4C10.3,11.4,10.2,11.5,10.3,11.4L10.3,11.4L10.3,11.4
    C10.3,11.4,10.3,11.5,10.3,11.4C10.3,11.5,10.3,11.5,10.3,11.4L10.3,11.4L10.3,11.4L10.3,11.4L10.3,11.4L10.3,11.4
    c0,0.1,0,0.1,0,0.1l0,0l0,0V11.4L10.3,11.4L10.3,11.4L10.3,11.4L10.3,11.4C10.3,11.5,10.3,11.5,10.3,11.4L10.3,11.4L10.3,11.4
    L10.3,11.4L10.3,11.4L10.3,11.4z M10.1,11.7L10.1,11.7L10.1,11.7L10.1,11.7C10.1,11.7,10,11.7,10.1,11.7C10,11.7,10,11.7,10.1,11.7
    C10,11.7,10,11.7,10.1,11.7C10,11.7,10,11.7,10.1,11.7C10,11.7,10,11.7,10.1,11.7C10,11.7,10,11.7,10.1,11.7L10.1,11.7
    C10,11.7,10,11.7,10.1,11.7C10,11.7,10,11.7,10.1,11.7L10.1,11.7C10,11.7,10,11.7,10.1,11.7C10,11.7,10.1,11.7,10.1,11.7
    C10,11.7,10,11.7,10.1,11.7C10,11.7,10,11.7,10.1,11.7L10.1,11.7L10.1,11.7L10.1,11.7L10.1,11.7L10.1,11.7
    C10,11.7,10,11.7,10.1,11.7C10,11.7,10,11.7,10.1,11.7L10.1,11.7z"
  />
<path
    d="M10.6,10.9L10.6,10.9L10.6,10.9L10.6,10.9C10.6,10.9,10.7,10.9,10.6,10.9h0.1l0,0l0,0l0,0l0,0l0,0l0,0l0,0l0,0l0,0l0,0l0,0
    l0,0l0,0l0,0l0,0l0,0l0,0l0,0l0,0l0,0l0,0l0,0l0,0l0,0l0,0l0,0l0,0l0,0l0,0l0,0l0,0l0,0l0,0l0,0l0,0l0,0l0,0l0,0l0,0l0,0l0,0H10.6
    L10.6,10.9L10.6,10.9L10.6,10.9L10.6,10.9L10.6,10.9L10.6,10.9L10.6,10.9z M11,11.2L11,11.2L11,11.2L11,11.2L11,11.2L11,11.2
    L11,11.2L11,11.2L11,11.2L11,11.2L11,11.2L11,11.2L11,11.2c-0.1,0-0.1,0-0.1,0l0,0l0,0l0,0l0,0l0,0l0,0l0,0l0,0l0,0l0,0l0,0l0,0l0,0
    l0,0l0,0l0,0l0,0l0,0l0,0l0,0l0,0l0,0l0,0l0,0l0,0l0,0l0,0l0,0l0,0l0,0l0,0l0,0H11L11,11.2L11,11.2L11,11.2L11,11.2L11,11.2L11,11.2
    L11,11.2L11,11.2L11,11.2L11,11.2L11,11.2L11,11.2L11,11.2L11,11.2L11,11.2L11,11.2L11,11.2C11.1,11.2,11,11.2,11,11.2L11,11.2z"
  />
<path
    class="st4"
    d="M11.5,11.1L11.5,11.1L11.5,11.1L11.5,11.1L11.5,11.1L11.5,11.1L11.5,11.1L11.5,11.1L11.5,11.1
    C11.5,11.1,11.5,11.2,11.5,11.1L11.5,11.1L11.5,11.1v0.1l0,0l0,0l0,0l0,0l0,0l0,0l0,0l0,0l0,0l0,0l0,0l0,0l0,0l0,0l0,0l0,0l0,0l0,0
    V11.1L11.5,11.1C11.5,11.2,11.5,11.2,11.5,11.1C11.4,11.1,11.4,11.1,11.5,11.1L11.5,11.1C11.4,11.1,11.4,11.1,11.5,11.1L11.5,11.1
    L11.5,11.1L11.5,11.1L11.5,11.1z"
  />
<path
    d="M11.2,11.2L11.2,11.2C11.1,11.2,11.1,11.2,11.2,11.2L11.2,11.2L11.2,11.2h-0.1l0,0l0,0l0,0l0,0l0,0l0,0l0,0l0,0l0,0l0,0l0,0
    l0,0l0,0l0,0l0,0l0,0l0,0l0,0l0,0l0,0l0,0l0,0l0,0l0,0l0,0l0,0l0,0H11.2L11.2,11.2C11.1,11.2,11.1,11.2,11.2,11.2
    C11.1,11.2,11.2,11.2,11.2,11.2L11.2,11.2L11.2,11.2z M11.2,11.3L11.2,11.3L11.2,11.3L11.2,11.3C11.1,11.3,11.1,11.3,11.2,11.3
    c-0.1,0-0.1,0-0.1,0l0,0l0,0l0,0l0,0l0,0l0,0l0,0l0,0l0,0l0,0l0,0l0,0l0,0l0,0l0,0l0,0H11.2C11.1,11.3,11.1,11.3,11.2,11.3
    L11.2,11.3L11.2,11.3L11.2,11.3L11.2,11.3L11.2,11.3L11.2,11.3L11.2,11.3L11.2,11.3L11.2,11.3z M11.2,11.4L11.2,11.4L11.2,11.4
    L11.2,11.4L11.2,11.4L11.2,11.4L11.2,11.4L11.2,11.4L11.2,11.4L11.2,11.4L11.2,11.4L11.2,11.4L11.2,11.4
    C11.2,11.5,11.2,11.5,11.2,11.4C11.2,11.5,11.2,11.5,11.2,11.4C11.2,11.5,11.2,11.5,11.2,11.4C11.2,11.5,11.2,11.5,11.2,11.4
    C11.2,11.5,11.2,11.5,11.2,11.4L11.2,11.4L11.2,11.4L11.2,11.4L11.2,11.4L11.2,11.4L11.2,11.4L11.2,11.4
    C11.3,11.4,11.2,11.4,11.2,11.4L11.2,11.4z"
  />
<path
    class="st4"
    d="M10.4,11.8L10.4,11.8L10.4,11.8L10.4,11.8L10.4,11.8L10.4,11.8L10.4,11.8L10.4,11.8L10.4,11.8L10.4,11.8
    C10.5,11.8,10.5,11.8,10.4,11.8C10.5,11.8,10.5,11.8,10.4,11.8C10.5,11.8,10.5,11.8,10.4,11.8L10.4,11.8L10.4,11.8
    C10.5,11.8,10.5,11.8,10.4,11.8C10.5,11.8,10.5,11.8,10.4,11.8L10.4,11.8L10.4,11.8L10.4,11.8L10.4,11.8L10.4,11.8L10.4,11.8
    L10.4,11.8L10.4,11.8L10.4,11.8L10.4,11.8L10.4,11.8L10.4,11.8z"
  />
<path
    class="st4"
    d="M10.5,11.8L10.5,11.8L10.5,11.8L10.5,11.8L10.5,11.8L10.5,11.8L10.5,11.8L10.5,11.8c0.1,0,0.1,0,0.1,0l0,0l0,0
    l0,0l0,0l0,0l0,0l0,0l0,0l0,0l0,0l0,0l0,0l0,0l0,0l0,0l0,0l0,0l0,0l0,0l0,0l0,0l0,0H10.5L10.5,11.8L10.5,11.8L10.5,11.8L10.5,11.8
    L10.5,11.8L10.5,11.8L10.5,11.8L10.5,11.8L10.5,11.8L10.5,11.8z M10.5,11.6L10.5,11.6L10.5,11.6L10.5,11.6L10.5,11.6L10.5,11.6
    L10.5,11.6L10.5,11.6L10.5,11.6L10.5,11.6L10.5,11.6L10.5,11.6L10.5,11.6L10.5,11.6L10.5,11.6L10.5,11.6L10.5,11.6L10.5,11.6
    L10.5,11.6z M10.3,11.5L10.3,11.5L10.3,11.5C10.3,11.6,10.3,11.6,10.3,11.5C10.3,11.6,10.3,11.6,10.3,11.5L10.3,11.5h0.1l0,0l0,0
    l0,0l0,0l0,0l0,0l0,0l0,0l0,0l0,0l0,0H10.3L10.3,11.5C10.4,11.6,10.4,11.6,10.3,11.5C10.3,11.6,10.3,11.6,10.3,11.5
    C10.3,11.6,10.3,11.6,10.3,11.5L10.3,11.5L10.3,11.5L10.3,11.5L10.3,11.5z M10.1,11.5L10.1,11.5C10.1,11.5,10.2,11.5,10.1,11.5
    L10.1,11.5C10.2,11.5,10.2,11.5,10.1,11.5L10.1,11.5c0.1,0,0.1,0,0.1,0l0,0l0,0l0,0l0,0l0,0C10.2,11.5,10.2,11.5,10.1,11.5
    C10.2,11.5,10.2,11.5,10.1,11.5L10.1,11.5C10.2,11.5,10.2,11.5,10.1,11.5L10.1,11.5L10.1,11.5L10.1,11.5L10.1,11.5L10.1,11.5z
     M9.9,11.6L9.9,11.6L9.9,11.6C10,11.6,10,11.6,9.9,11.6C10,11.6,10,11.6,9.9,11.6C10,11.7,10,11.7,9.9,11.6L9.9,11.6
    C10,11.7,10,11.7,9.9,11.6C10,11.7,10,11.7,9.9,11.6L9.9,11.6L9.9,11.6L9.9,11.6L9.9,11.6z M9.9,11.7L9.9,11.7L9.9,11.7L9.9,11.7
    L9.9,11.7L9.9,11.7L9.9,11.7L9.9,11.7L9.9,11.7L9.9,11.7L9.9,11.7L9.9,11.7L9.9,11.7L9.9,11.7L9.9,11.7C10,11.7,10,11.7,9.9,11.7
    L9.9,11.7C10,11.7,10,11.7,9.9,11.7L9.9,11.7L9.9,11.7L9.9,11.7L9.9,11.7L9.9,11.7L9.9,11.7L9.9,11.7L9.9,11.7L9.9,11.7L9.9,11.7
    L9.9,11.7L9.9,11.7L9.9,11.7L9.9,11.7z M10,11.9L10,11.9L10,11.9C10,12,10,12,10,11.9C10,12,10,12,10,11.9C10,12,10,12,10,11.9
    L10,11.9C10,12,10,12,10,11.9L10,11.9L10,11.9C9.9,12,9.9,12,10,11.9C9.9,12,9.9,12,10,11.9L10,11.9L10,11.9C9.9,12,9.9,12,10,11.9
    L10,11.9C10,12,10,12,10,11.9L10,11.9C10,12,10,12,10,11.9C10,12,10,12,10,11.9C10,12,10,12,10,11.9C10,12,10,12,10,11.9
    C10,12,10,12,10,11.9L10,11.9C10,12,10,11.9,10,11.9L10,11.9L10,11.9L10,11.9z"
  />
<path
    class="st6"
    d="M10.3,11.8H10c0,0,0,0-0.1,0c0,0,0,0-0.1,0l0.9,0.3l0,0l0,0c0,0-0.4-0.1-0.7-0.2c0,0.1,0,0.1,0,0.2H9.9
    c0,0,0,0-0.1,0H9.7c0,0,0-0.1,0.1-0.1h0.1c0,0-0.1,0-0.2,0c-0.1,0-0.1-0.1-0.1-0.1H9.5H9.1c0.3,0.3,0.8,0.5,1.2,0.5s0.9-0.2,1.2-0.5
    c-0.2,0-0.6,0-0.8,0l0,0l0,0l0,0h0.1c0,0,0,0-0.1,0s-0.1,0-0.2,0c0,0-0.2,0-0.3,0s-0.1,0-0.1-0.1l0,0L10.3,11.8L10.3,11.8z"
  />
<path
    class="st6"
    d="M11.4,10.6L11.4,10.6c-0.1,0-0.2,0.2-0.3,0.3l0,0h0.1l0,0l0,0l0,0v-0.1L11.4,10.6
    C11.5,10.6,11.5,10.6,11.4,10.6L11.4,10.6L11.4,10.6z M11.7,10.7L11.7,10.7c-0.1,0-0.1,0.1-0.1,0.1l0.1,0.1h-0.1h-0.1l0,0l0,0
    c0,0,0,0,0,0.1c0,0,0.1,0,0.1,0.1s0,0.1,0,0.1c0-0.1-0.1-0.1-0.1-0.1h-0.1V11l0,0l0,0h-0.1h-0.1h-0.1l0,0v0.1c-0.1,0-0.3,0-0.3,0
    s-0.1,0-0.2,0l0,0h0.1v0.1l0,0c0,0,0,0,0.1,0h0.1v0.1l0,0H11c0,0,0.1,0.1,0,0.1l0,0h0.1v0.1c0,0,0,0-0.1,0l0,0h-0.2l0,0h-0.1
    c-0.1,0-0.2,0-0.3,0.1c-0.1,0-0.2,0-0.2,0l0.1,0.1l0,0c0,0,0,0,0.1,0c0,0,0.1,0.1,0.2,0.1c0,0-0.1,0.1,0,0.1l0,0l0,0l0,0
    c0,0,0,0.1,0.1,0.1c0,0,0.2,0,0.3,0c0,0,0.1,0.1,0.2,0h0.1c0,0,0,0-0.1,0l0,0l0,0l0,0h-0.1l0,0c0,0,0,0,0.1,0s0.1,0,0.1,0h0.2
    c0,0,0,0,0.1,0s0.1,0,0.1,0l0,0c0,0,0.1,0,0.1-0.1c0,0,0,0.1,0.1,0c0,0,0,0.1,0.1,0.1l0.1-0.1l0,0l0,0v-0.1l0.1-0.1
    c0,0,0-0.1,0.1-0.1c0,0,0,0,0.1,0l0,0c0,0,0,0,0-0.1c0,0,0,0-0.1,0c0,0,0,0-0.1,0l-0.1,0.1l0,0c0,0-0.1,0.1-0.2,0.1v-0.1
    c0,0,0,0,0-0.1s-0.1-0.1-0.1-0.2l0.1,0.1c0,0,0.1,0,0.2,0c0.1,0,0.1-0.1,0.1-0.1h0.1c0.1,0,0.1,0,0.1,0l0,0l0,0c0,0-0.4-0.2-0.4-0.3
    l-0.1-0.1c0,0,0,0,0-0.1l0,0l0,0l0,0l0,0l0,0l0,0C11.8,10.7,11.8,10.7,11.7,10.7C11.8,10.7,11.7,10.7,11.7,10.7L11.7,10.7L11.7,10.7
    z M10,11.5v0.1c-0.1,0-0.2,0-0.2,0.1h0.1c0,0,0,0,0.1,0c0,0,0.1,0,0.1-0.1l0,0C10,11.7,10,11.6,10,11.5C10,11.6,10,11.5,10,11.5
    L10,11.5z M9.7,11.8c0,0.1,0,0.1,0.1,0.1s0.2,0,0.2,0s0,0-0.1,0L9.8,12c0,0,0,0,0.1,0c0,0,0,0,0.1,0s0.1,0,0.1,0s0.1-0.1,0-0.2
    L9.7,11.8L9.7,11.8z"
  />
<path
    class="st6"
    d="M9.3,11.6l1.5,0.5l0,0l0,0C10.8,12.1,9.3,11.7,9.3,11.6L9.3,11.6z"
  />
<path
    class="st4"
    d="M10.7,9.3L10.7,9.3L10.7,9.3L10.7,9.3C10.8,9.3,10.8,9.3,10.7,9.3C10.8,9.3,10.8,9.3,10.7,9.3
    C10.8,9.4,10.8,9.4,10.7,9.3C10.8,9.4,10.8,9.4,10.7,9.3L10.7,9.3C10.8,9.4,10.8,9.4,10.7,9.3C10.8,9.4,10.8,9.4,10.7,9.3v0.1l0,0
    l0,0l0,0l0,0l0,0l0,0l0,0l0,0l0,0l0,0l0,0l0,0l0,0l0,0l0,0l0,0l0,0C10.8,9.4,10.8,9.4,10.7,9.3L10.7,9.3C10.8,9.4,10.8,9.4,10.7,9.3
    L10.7,9.3c0.1,0.1,0.1,0.1,0.1,0.1l0,0l0,0l0,0l0,0l0,0l0,0l0,0l0,0l0,0l0,0l0,0l0,0l0,0l0,0l0,0l0,0l0,0l0,0l0,0l0,0l0,0l0,0l0,0
    l0,0l0,0l0,0l0,0l0,0l0,0l0,0l0,0l0,0l0,0l0,0l0,0l0,0l0,0l0,0l0,0l0,0l0,0l0,0l0,0l0,0l0,0l0,0l0,0l0,0l0,0l0,0l0,0l0,0l0,0l0,0
    l0,0l0,0l0,0l0,0l0,0l0,0l0,0l0,0l0,0l0,0l0,0l0,0C10.8,9.4,10.8,9.4,10.7,9.3C10.8,9.4,10.8,9.4,10.7,9.3
    C10.8,9.4,10.8,9.4,10.7,9.3L10.7,9.3C10.8,9.3,10.8,9.3,10.7,9.3C10.8,9.3,10.8,9.3,10.7,9.3L10.7,9.3L10.7,9.3z M11.3,9.4
    L11.3,9.4L11.3,9.4L11.3,9.4L11.3,9.4L11.3,9.4L11.3,9.4L11.3,9.4L11.3,9.4C11.4,9.4,11.4,9.4,11.3,9.4L11.3,9.4L11.3,9.4L11.3,9.4
    L11.3,9.4L11.3,9.4L11.3,9.4L11.3,9.4L11.3,9.4L11.3,9.4L11.3,9.4z"
  />
<path
    d="M11.3,9.4L11.3,9.4L11.3,9.4L11.3,9.4L11.3,9.4L11.3,9.4L11.3,9.4L11.3,9.4L11.3,9.4L11.3,9.4L11.3,9.4
    C11.4,9.4,11.4,9.4,11.3,9.4C11.4,9.4,11.4,9.4,11.3,9.4L11.3,9.4z"
  />
<path
    class="st4"
    d="M11,9.9L11,9.9L11,9.9L11,9.9L11,9.9h0.1l0,0l0,0l0,0l0,0l0,0l0,0l0,0l0,0l0,0l0,0l0,0l0,0l0,0l0,0l0,0l0,0l0,0
    l0,0l0,0l0,0H11L11,9.9C11,10,11,9.9,11,9.9L11,9.9L11,9.9L11,9.9z M11.3,10.3L11.3,10.3C11.3,10.3,11.2,10.3,11.3,10.3
    C11.2,10.3,11.2,10.3,11.3,10.3C11.2,10.3,11.2,10.3,11.3,10.3L11.3,10.3L11.3,10.3l-0.1-0.1l0,0l0,0l0,0l0,0l0,0l0,0
    C11.2,10.3,11.2,10.3,11.3,10.3C11.2,10.3,11.2,10.3,11.3,10.3C11.2,10.3,11.2,10.3,11.3,10.3L11.3,10.3L11.3,10.3L11.3,10.3
    L11.3,10.3L11.3,10.3z M11.4,10.4C11.3,10.4,11.3,10.4,11.4,10.4L11.4,10.4h-0.1l0,0l0,0C11.3,10.4,11.3,10.4,11.4,10.4L11.4,10.4
    L11.4,10.4L11.4,10.4L11.4,10.4L11.4,10.4L11.4,10.4z M11.3,10.2L11.3,10.2L11.3,10.2L11.3,10.2L11.3,10.2c0,0.1,0,0.1,0,0.1l0,0
    l0,0l0,0l0,0l0,0l0,0l0,0l0,0l0,0l0,0l0,0l0,0l0,0l0,0C11.4,10.3,11.4,10.3,11.3,10.2l0.1,0.1l0,0l0,0l0,0l0,0l0,0l0,0l0,0l0,0l0,0
    l0,0l0,0l0,0l0,0l0,0l0,0L11.3,10.2L11.3,10.2L11.3,10.2l0.1,0.1l0,0l0,0l0,0l0,0l0,0l0,0l0,0L11.3,10.2L11.3,10.2L11.3,10.2
    L11.3,10.2L11.3,10.2L11.3,10.2z M11.4,10.2L11.4,10.2L11.4,10.2L11.4,10.2L11.4,10.2L11.4,10.2L11.4,10.2L11.4,10.2L11.4,10.2
    L11.4,10.2L11.4,10.2L11.4,10.2L11.4,10.2L11.4,10.2L11.4,10.2L11.4,10.2L11.4,10.2L11.4,10.2L11.4,10.2L11.4,10.2L11.4,10.2z
     M11.6,10.1L11.6,10.1L11.6,10.1L11.6,10.1L11.6,10.1L11.6,10.1h0.1l0,0l0,0l0,0l0,0l0,0l0,0l0,0l0,0l0,0l0,0l0,0l0,0l0,0l0,0l0,0
    l0,0l0,0l0,0l0,0l0,0l0,0l0,0H11.6L11.6,10.1L11.6,10.1L11.6,10.1L11.6,10.1L11.6,10.1L11.6,10.1L11.6,10.1z"
  />
<path
    class="st4"
    d="M11.9,10.2L11.9,10.2L11.9,10.2C11.9,10.3,11.9,10.3,11.9,10.2L11.9,10.2L11.9,10.2L11.9,10.2L11.9,10.2
    L11.9,10.2C12,10.3,12,10.3,11.9,10.2C12,10.3,12,10.3,11.9,10.2L11.9,10.2L11.9,10.2C12,10.3,12,10.3,11.9,10.2
    C12,10.3,12,10.3,11.9,10.2c0.1,0.1,0.1,0.1,0.1,0.1l0,0l0,0l0,0C12,10.3,12,10.3,11.9,10.2c0.1,0.1,0.1,0.1,0.1,0.1l0,0
    C12,10.3,12,10.3,11.9,10.2C12,10.3,12,10.3,11.9,10.2L11.9,10.2C12,10.3,12,10.3,11.9,10.2C12,10.2,12,10.2,11.9,10.2L11.9,10.2
    L11.9,10.2L11.9,10.2L11.9,10.2L11.9,10.2L11.9,10.2z M12,10.4L12,10.4z M10.6,10L10.6,10L10.6,10L10.6,10l0.1,0.1l0,0
    c0,0,0,0,0.1,0l0,0c0,0,0,0,0.1,0l0,0l0,0l0,0l0,0l0,0l0,0l0,0c0,0,0,0-0.1,0l0,0C10.7,10.1,10.7,10.1,10.6,10
    C10.7,10.1,10.6,10.1,10.6,10L10.6,10L10.6,10L10.6,10z M11,10.4L11,10.4C11,10.5,11,10.5,11,10.4C11,10.5,11,10.5,11,10.4
    C11,10.5,11,10.5,11,10.4C11,10.5,11,10.5,11,10.4c0.1,0.1,0.1,0.1,0.1,0.1l0,0l0,0l0,0c0,0,0,0,0.1,0l0,0l0,0l0,0l0,0l0,0l0,0l0,0
    l0,0l0,0c0,0,0,0-0.1,0l0,0c0,0,0,0-0.1,0c0,0,0,0-0.1,0C11,10.5,11,10.5,11,10.4L11,10.4C11,10.5,11,10.5,11,10.4L11,10.4
    C10.9,10.4,11,10.4,11,10.4L11,10.4z M11.4,10.5L11.4,10.5C11.4,10.5,11.5,10.5,11.4,10.5c0.1,0,0.1,0,0.2,0l0,0l0,0l0,0l0,0l0,0
    l0,0l0,0l0,0l0,0H11.4C11.5,10.5,11.4,10.5,11.4,10.5L11.4,10.5L11.4,10.5L11.4,10.5z M11.6,10.5C11.7,10.5,11.7,10.5,11.6,10.5
    L11.6,10.5L11.6,10.5L11.6,10.5C11.7,10.5,11.7,10.5,11.6,10.5C11.7,10.5,11.7,10.6,11.6,10.5L11.6,10.5L11.6,10.5
    C11.7,10.6,11.7,10.6,11.6,10.5l0.1,0.1l0,0l0,0l0,0l0,0l0,0l0,0l0,0l0,0l0,0l0,0l0,0l0,0l0,0l0,0l0,0L11.6,10.5L11.6,10.5
    L11.6,10.5L11.6,10.5L11.6,10.5C11.7,10.6,11.7,10.5,11.6,10.5L11.6,10.5L11.6,10.5C11.7,10.5,11.7,10.5,11.6,10.5L11.6,10.5
    L11.6,10.5L11.6,10.5z M11.9,10.8L11.9,10.8L11.9,10.8L11.9,10.8L11.9,10.8L11.9,10.8C12,10.8,12,10.8,11.9,10.8L11.9,10.8
    L11.9,10.8C12,10.8,11.9,10.8,11.9,10.8L11.9,10.8L11.9,10.8L11.9,10.8L11.9,10.8L11.9,10.8z"
  />
<path
    class="st4"
    d="M11.9,10.7L11.9,10.7L11.9,10.7L11.9,10.7C11.9,10.8,11.9,10.8,11.9,10.7C11.9,10.8,11.9,10.8,11.9,10.7
    C11.9,10.8,11.9,10.8,11.9,10.7L11.9,10.7L11.9,10.7C11.9,10.8,11.9,10.8,11.9,10.7L11.9,10.7L11.9,10.7L11.9,10.7L11.9,10.7
    L11.9,10.7L11.9,10.7L11.9,10.7L11.9,10.7z M10.3,10.7C10.3,10.7,10.2,10.7,10.3,10.7L10.3,10.7L10.3,10.7L10.3,10.7L10.3,10.7
    L10.3,10.7C10.2,10.8,10.2,10.8,10.3,10.7L10.3,10.7c-0.1,0.1-0.1,0.1-0.1,0.1l0,0l0,0l0,0l0,0l0,0l0,0l0,0l0,0l0,0c0,0,0,0,0,0.1
    l0,0l0,0l0,0l0,0l0,0l0,0l0,0l0,0l0,0c0,0,0,0,0-0.1l0,0c0,0,0,0,0-0.1l0,0l0,0l0,0l0,0l0,0l0,0C10.2,10.8,10.2,10.8,10.3,10.7
    L10.3,10.7L10.3,10.7L10.3,10.7L10.3,10.7L10.3,10.7c0.1,0,0.1,0,0.1,0l0,0l0,0l0,0l0,0l0,0C10.3,10.7,10.3,10.7,10.3,10.7
    L10.3,10.7L10.3,10.7L10.3,10.7L10.3,10.7L10.3,10.7z M10.2,10.8L10.2,10.8L10.2,10.8L10.2,10.8L10.2,10.8L10.2,10.8L10.2,10.8
    L10.2,10.8z M10,11L10,11L10,11z M10,11L10,11L10,11z"
  />
<path
    class="st4"
    d="M10.3,10.7L10.3,10.7C10.3,10.7,10.3,10.8,10.3,10.7C10.3,10.8,10.3,10.8,10.3,10.7
    C10.3,10.8,10.3,10.8,10.3,10.7C10.3,10.8,10.3,10.8,10.3,10.7C10.3,10.8,10.3,10.8,10.3,10.7l-0.1,0.1l0,0l0,0l0,0l0,0l0,0l0,0
    L10.3,10.7C10.3,10.8,10.3,10.8,10.3,10.7C10.3,10.8,10.3,10.8,10.3,10.7C10.3,10.8,10.3,10.8,10.3,10.7
    C10.3,10.8,10.3,10.8,10.3,10.7C10.3,10.8,10.3,10.8,10.3,10.7L10.3,10.7C10.3,10.8,10.3,10.7,10.3,10.7L10.3,10.7L10.3,10.7z
     M10.1,11.1L10.1,11.1L10.1,11.1L10.1,11.1L10.1,11.1L10.1,11.1L10.1,11.1L10.1,11.1L10.1,11.1C10.1,11.2,10.1,11.2,10.1,11.1
    C10.1,11.2,10.1,11.2,10.1,11.1C10.1,11.2,10.1,11.2,10.1,11.1C10.1,11.2,10.1,11.2,10.1,11.1C10.1,11.2,10.1,11.2,10.1,11.1
    C10.2,11.2,10.2,11.2,10.1,11.1l0.1,0.1l0,0l0,0l0,0l0,0l0,0l0,0l0,0l0,0l0,0l0,0l0,0l0,0l0,0l0,0l0,0l0,0l0,0l0,0l0,0l0,0l0,0l0,0
    l0,0l0,0l0,0l0,0l0,0l0,0l0,0l0,0l0,0l0,0l0,0l0,0l0,0l0,0l0,0C10.1,11.2,10.1,11.2,10.1,11.1C10.1,11.2,10.1,11.2,10.1,11.1
    C10.1,11.2,10.1,11.2,10.1,11.1C10.1,11.2,10.1,11.2,10.1,11.1C10.1,11.2,10.1,11.2,10.1,11.1L10.1,11.1L10.1,11.1L10.1,11.1
    L10.1,11.1L10.1,11.1L10.1,11.1L10.1,11.1L10.1,11.1z"
  />
<path
    d="M10.5,11.2L10.5,11.2C10.6,11.2,10.6,11.2,10.5,11.2C10.6,11.2,10.6,11.2,10.5,11.2C10.6,11.2,10.6,11.2,10.5,11.2
    C10.6,11.2,10.6,11.2,10.5,11.2L10.5,11.2L10.5,11.2C10.6,11.2,10.6,11.2,10.5,11.2C10.6,11.2,10.6,11.2,10.5,11.2L10.5,11.2
    C10.6,11.2,10.6,11.1,10.5,11.2L10.5,11.2c0.1,0,0.1,0,0.1,0l0,0C10.6,11.2,10.6,11.2,10.5,11.2L10.5,11.2
    C10.6,11.2,10.6,11.2,10.5,11.2C10.6,11.2,10.6,11.2,10.5,11.2L10.5,11.2L10.5,11.2L10.5,11.2z"
  />
<path
    class="st4"
    d="M10.1,10.9C10.1,11,10.1,11,10.1,10.9C10.1,11,10.1,11,10.1,10.9C10.1,11,10.1,11,10.1,10.9
    C10.1,11,10.1,11,10.1,10.9C10.1,11,10.1,11,10.1,10.9c0.1,0,0.1,0,0.1,0l0,0l0,0l0,0l0,0l0,0l0,0l0,0C10.2,11,10.2,11,10.1,10.9
    C10.1,11,10.1,11,10.1,10.9L10.1,10.9C10.1,11,10.1,11,10.1,10.9C10.1,11,10.1,11,10.1,10.9C10.1,11,10.1,10.9,10.1,10.9L10.1,10.9
    L10.1,10.9z M10,10.9L10,10.9C10,10.9,10,11,10,10.9L10,10.9L10,10.9L10,10.9L9.9,11l0,0l0,0l0,0l0,0l0,0l0,0l0,0l0,0l0,0l0,0l0,0
    l0,0l0,0l0,0l0,0l0,0l0,0L10,10.9L10,10.9L10,10.9L10,10.9L10,10.9L10,10.9L10,10.9L10,10.9z M9.6,10.5L9.6,10.5L9.6,10.5
    C9.6,10.6,9.6,10.6,9.6,10.5c0,0.1,0,0.1,0,0.1l0,0l0,0c0,0,0,0,0.1,0l0,0l0,0h0.1c0,0,0,0,0.1,0l0,0l0,0l0,0l0,0l0,0l0,0H9.8H9.7
    l0,0l0,0H9.6C9.6,10.6,9.6,10.6,9.6,10.5C9.6,10.6,9.6,10.6,9.6,10.5L9.6,10.5L9.6,10.5L9.6,10.5C9.5,10.5,9.6,10.5,9.6,10.5
    L9.6,10.5z"
  />
<path
    class="st4"
    d="M9.7,10.8C9.8,10.8,9.8,10.8,9.7,10.8c0.1,0.1,0.1,0.1,0.1,0.1l0,0c0,0,0,0,0.1,0l0,0c0,0,0,0,0.1,0l0,0l0,0
    l0,0l0,0c0,0,0,0-0.1,0l0,0c0,0,0,0-0.1,0l0,0C9.8,10.9,9.8,10.9,9.7,10.8C9.8,10.8,9.8,10.8,9.7,10.8L9.7,10.8L9.7,10.8z
     M10.1,11.6L10.1,11.6L10.1,11.6C10.1,11.7,10.1,11.7,10.1,11.6L10.1,11.6C10.1,11.7,10.1,11.7,10.1,11.6L10.1,11.6L10.1,11.6
    L10.1,11.6c0,0.1,0,0.1,0,0.1l0,0C10.1,11.7,10.1,11.7,10.1,11.6C10.1,11.7,10.1,11.7,10.1,11.6L10.1,11.6L10.1,11.6
    c0,0.1,0,0.1,0,0.1l0,0l0,0C10.1,11.7,10.2,11.7,10.1,11.6C10.2,11.7,10.2,11.7,10.1,11.6L10.1,11.6L10.1,11.6
    C10.2,11.7,10.2,11.7,10.1,11.6C10.2,11.7,10.2,11.7,10.1,11.6L10.1,11.6L10.1,11.6C10.1,11.7,10.1,11.7,10.1,11.6
    C10.1,11.7,10.1,11.7,10.1,11.6C10.1,11.7,10.1,11.7,10.1,11.6C10.1,11.7,10.1,11.7,10.1,11.6L10.1,11.6
    C10.1,11.7,10.1,11.6,10.1,11.6L10.1,11.6L10.1,11.6L10.1,11.6z M10.1,11.7L10.1,11.7L10.1,11.7L10.1,11.7L10.1,11.7z M10,10.2
    L10,10.2L10,10.2L10,10.2C10.1,10.2,10.1,10.2,10,10.2C10.1,10.2,10.1,10.3,10,10.2c0.1,0.1,0.1,0.1,0.1,0.1l0,0l0,0l0,0l0,0l0,0
    l0,0L10,10.2C10.1,10.3,10.1,10.3,10,10.2C10.1,10.2,10,10.2,10,10.2L10,10.2L10,10.2L10,10.2L10,10.2z"
  />
<path
    class="st4"
    d="M10.2,10.7L10.2,10.7L10.2,10.7C10.2,10.7,10.2,10.6,10.2,10.7C10.2,10.6,10.2,10.6,10.2,10.7
    C10.2,10.6,10.2,10.6,10.2,10.7l-0.1-0.1l0,0l0,0l0,0l0,0l0,0l0,0l0,0l0,0l0,0l0,0l0,0l0,0l0,0l0,0l0,0l0,0l0,0l0,0l0,0l0,0l0,0l0,0
    l0,0l0,0l0,0l0,0l0,0C10.2,10.6,10.2,10.6,10.2,10.7C10.2,10.6,10.2,10.6,10.2,10.7L10.2,10.7L10.2,10.7
    C10.3,10.7,10.2,10.7,10.2,10.7L10.2,10.7z M9.7,11.2C9.7,11.2,9.7,11.3,9.7,11.2L9.7,11.2L9.7,11.2C9.8,11.3,9.8,11.3,9.7,11.2
    L9.7,11.2L9.7,11.2c0.1,0,0.1,0.1,0.1,0.1l0,0l0,0l0,0l0,0l0,0l0,0l0,0l0,0l0,0l0,0l0,0l0,0l0,0l0,0l0,0l0,0l0,0l0,0l0,0l0,0l0,0
    l0,0l0,0l0,0l0,0l0,0l0,0l0,0l0,0l0,0l0,0l0,0l0,0l0,0l0,0l0,0l0,0C9.8,11.3,9.8,11.3,9.7,11.2C9.8,11.3,9.8,11.3,9.7,11.2L9.7,11.2
    C9.8,11.3,9.8,11.3,9.7,11.2L9.7,11.2C9.8,11.3,9.8,11.3,9.7,11.2L9.7,11.2C9.7,11.3,9.7,11.3,9.7,11.2C9.7,11.3,9.7,11.2,9.7,11.2
    L9.7,11.2z M9.3,10.5C9.2,10.5,9.2,10.5,9.3,10.5L9.3,10.5c-0.1,0-0.1,0-0.1,0l0,0l0,0l0,0l0,0l0,0l0,0l0,0l0,0l0,0l0,0l0,0l0,0l0,0
    l0,0l0,0l0,0l0,0l0,0l0,0l0,0l0,0l0,0l0,0l0,0l0,0l0,0l0,0l0,0l0,0l0,0l0,0l0,0l0,0C9.1,10.5,9.2,10.5,9.3,10.5L9.3,10.5L9.3,10.5
    L9.3,10.5L9.3,10.5z M9.2,10.8L9.2,10.8L9.2,10.8L9.2,10.8L9.2,10.8c0.1,0.1,0.1,0.1,0.1,0.1l0,0l0,0l0,0l0,0l0,0l0,0l0,0l0,0l0,0
    l0,0l0,0l0,0l0,0l0,0l0,0l0,0l0,0l0,0C9.3,10.9,9.3,10.9,9.2,10.8L9.2,10.8L9.2,10.8L9.2,10.8L9.2,10.8L9.2,10.8L9.2,10.8L9.2,10.8z
     M9.1,11.1L9.1,11.1L9.1,11.1C9.1,11.2,9.1,11.2,9.1,11.1c0,0.1,0,0.1,0,0.1l0,0l0,0l0,0l0,0l0,0l0,0l0,0l0,0l0,0l0,0l0,0l0,0l0,0
    l0,0l0,0l0,0l0,0C9.1,11.2,9.1,11.2,9.1,11.1L9.1,11.1L9.1,11.1L9.1,11.1L9.1,11.1z M9.1,10.9L9.1,10.9L9.1,10.9L9.1,10.9
    c0,0.1,0,0.1,0,0.1l0,0l0,0l0,0l0,0l0,0l0,0l0,0l0,0l0,0l0,0C9.1,11,9.1,11,9.1,10.9L9.1,10.9L9.1,10.9L9.1,10.9L9.1,10.9L9.1,10.9z
     M11.1,9.3L11.1,9.3L11.1,9.3L11.1,9.3L11.1,9.3L11.1,9.3L11.1,9.3L11.1,9.3L11.1,9.3L11.1,9.3l0.1,0.1l0,0l0,0l0,0l0,0l0,0l0,0l0,0
    l0,0l0,0l0,0l0,0l0,0C11.2,9.4,11.2,9.4,11.1,9.3C11.1,9.4,11.1,9.4,11.1,9.3L11.1,9.3L11.1,9.3L11.1,9.3L11.1,9.3L11.1,9.3
    L11.1,9.3L11.1,9.3L11.1,9.3L11.1,9.3z M11,9.2L11,9.2C10.9,9.2,10.9,9.2,11,9.2C10.9,9.2,10.9,9.2,11,9.2C10.9,9.2,10.9,9.2,11,9.2
    C10.9,9.2,10.9,9.2,11,9.2C10.9,9.2,10.9,9.2,11,9.2C10.9,9.2,10.9,9.2,11,9.2C10.9,9.2,10.9,9.2,11,9.2C10.9,9.2,10.9,9.2,11,9.2
    L11,9.2C10.9,9.2,10.9,9.2,11,9.2L11,9.2L11,9.2L11,9.2L11,9.2C11,9.3,11,9.3,11,9.2C11,9.3,11,9.3,11,9.2C11,9.3,11,9.3,11,9.2
    C11,9.3,11,9.3,11,9.2C11,9.3,11,9.3,11,9.2C11,9.3,11,9.3,11,9.2C11,9.3,11,9.2,11,9.2L11,9.2L11,9.2L11,9.2L11,9.2L11,9.2L11,9.2
    C11,9.3,11,9.3,11,9.2C11,9.3,11,9.3,11,9.2C11,9.3,11,9.3,11,9.2C11,9.3,10.9,9.3,11,9.2L11,9.2C10.9,9.3,10.9,9.2,11,9.2
    C10.9,9.2,10.9,9.2,11,9.2L11,9.2C10.9,9.2,10.9,9.2,11,9.2C10.9,9.2,10.9,9.2,11,9.2C10.9,9.2,10.9,9.2,11,9.2
    C10.9,9.2,10.9,9.2,11,9.2C10.9,9.2,10.9,9.2,11,9.2L11,9.2L11,9.2L11,9.2L11,9.2z M10.9,9.3L10.9,9.3C11,9.3,11,9.3,10.9,9.3
    c0.1,0,0.1,0,0.1,0.1l0,0l0,0l0,0l0,0l0,0l0,0l0,0C11,9.4,11,9.4,10.9,9.3L10.9,9.3L10.9,9.3L10.9,9.3L10.9,9.3L10.9,9.3L10.9,9.3z
     M10.7,9.3C10.7,9.3,10.7,9.4,10.7,9.3C10.7,9.4,10.7,9.4,10.7,9.3L10.7,9.3l-0.1,0.1l0,0l0,0l0,0l0,0l0,0l0,0V9.3l0,0l0,0l0,0l0,0
    H10.7L10.7,9.3L10.7,9.3L10.7,9.3C10.7,9.4,10.7,9.4,10.7,9.3C10.7,9.4,10.7,9.4,10.7,9.3L10.7,9.3L10.7,9.3L10.7,9.3z M10.6,9.7
    L10.6,9.7L10.6,9.7L10.6,9.7L10.6,9.7L10.6,9.7L10.6,9.7z M10.6,9.7L10.6,9.7C10.6,9.8,10.6,9.8,10.6,9.7L10.6,9.7
    C10.6,9.8,10.6,9.8,10.6,9.7L10.6,9.7L10.6,9.7L10.6,9.7z M10.6,9.8L10.6,9.8L10.6,9.8L10.6,9.8L10.6,9.8
    C10.6,9.9,10.6,9.9,10.6,9.8C10.6,9.9,10.6,9.9,10.6,9.8C10.6,9.9,10.6,9.9,10.6,9.8L10.6,9.8L10.6,9.8L10.6,9.8z M12.1,10.3
    L12.1,10.3L12.1,10.3C12.1,10.4,12.1,10.4,12.1,10.3C12.1,10.4,12.1,10.4,12.1,10.3C12.1,10.4,12.1,10.4,12.1,10.3
    c0,0.1,0,0.1,0,0.1l0,0l0,0l0,0l0,0l0,0C12.1,10.4,12.1,10.4,12.1,10.3C12.1,10.4,12.1,10.4,12.1,10.3
    C12.1,10.4,12.1,10.4,12.1,10.3L12.1,10.3L12.1,10.3L12.1,10.3L12.1,10.3z M11.2,10.4L11.2,10.4L11.2,10.4
    C11.2,10.4,11.1,10.4,11.2,10.4C11.1,10.4,11.1,10.4,11.2,10.4L11.2,10.4C11.1,10.4,11.2,10.4,11.2,10.4L11.2,10.4L11.2,10.4
    L11.2,10.4L11.2,10.4z M12,10.7C12,10.8,12,10.8,12,10.7C12,10.8,12,10.8,12,10.7C12,10.8,12,10.8,12,10.7c0.1,0.1,0.1,0.1,0.1,0.1
    l0,0l0,0l0,0l0,0l0,0l0,0l0,0l0,0l0,0l0,0l0,0C12.1,10.8,12.1,10.8,12,10.7L12,10.7C12,10.8,12,10.8,12,10.7L12,10.7
    C12,10.8,12,10.7,12,10.7L12,10.7z M10.1,10.3C10.1,10.3,10.2,10.3,10.1,10.3h0.1c0,0,0,0,0.1,0h0.1l0,0l0,0h0.1l0,0l0,0l0,0l0,0
    l0,0l0,0l0,0l0,0l0,0l0,0l0,0l0,0l0,0l0,0l0,0l0,0l0,0l0,0l0,0l0,0h-0.1l0,0l0,0h-0.1h-0.1H10.1L10.1,10.3L10.1,10.3z M10.8,10.6
    L10.8,10.6C10.8,10.6,10.7,10.6,10.8,10.6h-0.1c0,0,0,0-0.1,0h-0.1h-0.1h-0.1l0,0l0,0l0,0l0,0l0,0l0,0c0,0,0,0,0.1,0h0.1h0.1l0,0
    h0.1H10.8L10.8,10.6L10.8,10.6L10.8,10.6L10.8,10.6L10.8,10.6z"
  />
<path
    class="st4"
    d="M10.1,10.6L10.1,10.6C10.2,10.6,10.2,10.6,10.1,10.6C10.2,10.6,10.2,10.6,10.1,10.6c0.1,0,0.1,0.1,0.1,0.1l0,0
    l0,0l0,0l0,0C10.2,10.6,10.2,10.6,10.1,10.6C10.2,10.6,10.2,10.6,10.1,10.6C10.2,10.6,10.2,10.6,10.1,10.6L10.1,10.6L10.1,10.6
    L10.1,10.6z M10.7,11.2L10.7,11.2L10.7,11.2C10.8,11.3,10.8,11.3,10.7,11.2c0.1,0.1,0.1,0.1,0.1,0.1l0,0l0,0l0,0l0,0l0,0l0,0l0,0
    l0,0l0,0l0,0l0,0C10.8,11.3,10.8,11.3,10.7,11.2C10.8,11.3,10.8,11.3,10.7,11.2L10.7,11.2L10.7,11.2L10.7,11.2L10.7,11.2z
     M10.2,11.7L10.2,11.7L10.2,11.7C10.3,11.7,10.3,11.7,10.2,11.7C10.3,11.7,10.3,11.7,10.2,11.7C10.3,11.7,10.3,11.7,10.2,11.7
    C10.3,11.7,10.3,11.7,10.2,11.7C10.3,11.7,10.3,11.7,10.2,11.7C10.3,11.7,10.3,11.7,10.2,11.7C10.3,11.7,10.3,11.7,10.2,11.7
    L10.2,11.7L10.2,11.7L10.2,11.7L10.2,11.7L10.2,11.7C10.3,11.7,10.3,11.7,10.2,11.7C10.3,11.7,10.3,11.7,10.2,11.7
    C10.3,11.7,10.3,11.7,10.2,11.7C10.3,11.7,10.3,11.7,10.2,11.7C10.3,11.7,10.3,11.7,10.2,11.7C10.3,11.7,10.3,11.7,10.2,11.7
    L10.2,11.7L10.2,11.7L10.2,11.7L10.2,11.7L10.2,11.7L10.2,11.7z M9.8,11.1L9.8,11.1L9.8,11.1C9.7,11.1,9.7,11.1,9.8,11.1
    C9.7,11.1,9.7,11.1,9.8,11.1L9.8,11.1L9.8,11.1C9.7,11.2,9.7,11.2,9.8,11.1c0,0.1,0,0.1,0,0.1l0,0l0,0l0,0l0,0l0,0l0,0
    C9.7,11.2,9.7,11.2,9.8,11.1C9.7,11.2,9.7,11.2,9.8,11.1L9.8,11.1C9.7,11.1,9.7,11.1,9.8,11.1C9.7,11.1,9.7,11.1,9.8,11.1L9.8,11.1
    L9.8,11.1z M9.5,10.4L9.5,10.4L9.5,10.4L9.5,10.4C9.5,10.4,9.5,10.5,9.5,10.4C9.5,10.5,9.5,10.5,9.5,10.4L9.5,10.4
    c0,0.1,0,0.1,0,0.1l0,0l0,0l0,0l0,0l0,0l0,0l0,0l0,0l0,0l0,0C9.5,10.5,9.5,10.5,9.5,10.4L9.5,10.4C9.5,10.5,9.5,10.5,9.5,10.4
    C9.5,10.5,9.5,10.5,9.5,10.4L9.5,10.4L9.5,10.4L9.5,10.4z M9,10.5L9,10.5C9,10.6,9,10.6,9,10.5c0,0.1,0,0.1,0,0.1s0,0,0,0.1l0,0l0,0
    l0,0l0,0l0,0l0,0l0,0l0,0l0,0l0,0c0,0,0,0,0-0.1C9,10.6,9,10.6,9,10.5L9,10.5L9,10.5L9,10.5L9,10.5z M9.2,11.1L9.2,11.1
    C9.2,11.2,9.2,11.2,9.2,11.1L9.2,11.1c0,0.1,0,0.1,0,0.1l0,0l0,0l0,0l0,0l0,0l0,0l0,0l0,0l0,0l0,0l0,0l0,0l0,0V11.1
    C9.2,11.2,9.2,11.2,9.2,11.1L9.2,11.1L9.2,11.1z"
  />
<path
    class="st7"
    d="M10.7,9.2L10.7,9.2 M10.7,9.2C10.7,9.3,10.7,9.3,10.7,9.2 M10.6,9.3C10.6,9.3,10.7,9.3,10.6,9.3 M10.6,9.3
    L10.6,9.3 M10.6,9.3C10.6,9.3,10.6,9.4,10.6,9.3 M10.5,9.3C10.6,9.4,10.6,9.4,10.5,9.3 M10.5,9.4C10.6,9.4,10.6,9.4,10.5,9.4
     M10.5,9.4C10.5,9.4,10.6,9.4,10.5,9.4 M10.5,9.4h0.1 M10.5,9.5h0.1 M10.5,9.5C10.5,9.5,10.6,9.5,10.5,9.5 M10.4,9.6h0.1 M10.4,9.6
    h0.1 M10.4,9.6h0.1 M10.5,9.7L10.5,9.7 M10.5,9.8C10.5,9.8,10.5,9.7,10.5,9.8 M10.5,9.8L10.5,9.8 M10.5,9.8
    C10.5,9.8,10.6,9.8,10.5,9.8"
  />
<path
    class="st7"
    d="M10.5,9.8C10.5,9.8,10.6,9.8,10.5,9.8 M10.5,9.8L10.5,9.8 M10.5,9.9C10.5,9.9,10.6,9.9,10.5,9.9 M10.5,9.9
    C10.5,9.9,10.6,9.9,10.5,9.9 M10.5,10C10.5,9.9,10.6,9.9,10.5,10 M10.5,10C10.5,10,10.6,10,10.5,10"
  />
<path
    class="st8"
    d="M11.2,9.5L11.2,9.5h0.1l0,0C11.3,9.5,11.3,9.5,11.2,9.5c0.1-0.1,0.2-0.1,0.2-0.1s0,0,0-0.1c0,0,0,0-0.1,0
    l-0.2-0.1H11h-0.1V9.1l0,0c0,0,0,0.1-0.1,0.1s-0.2,0.2-0.2,0.2s0,0.1,0,0.2 M10.5,9.7L10.5,9.7v0.1 M11,9.6C11,9.6,10.9,9.6,11,9.6
    c0-0.1,0-0.1,0-0.1c0.1,0,0.1,0,0.1,0l0,0 M10.6,9.9L10.6,9.9c0,0.1,0,0.1,0,0.2c0,0,0,0-0.1,0c0.1,0,0.2,0,0.2,0.1h0.1
    c0,0,0,0,0.1,0l0.1,0.2c0,0,0.1,0.2,0.2,0.2l0,0h0.1c0.1,0,0.2-0.1,0.3-0.1h0.1h0.1c0,0,0.1,0.1,0.2,0.1c0,0,0,0.1,0.1,0.1
    s0.1,0,0.1,0v0.1c0,0,0.1,0,0.2,0h0.1c0,0-0.1-0.2-0.2-0.2c0,0-0.2-0.2-0.3-0.3c0,0-0.1-0.1-0.2-0.1c-0.1,0-0.2,0-0.2,0l0,0
    c0,0,0.1-0.1,0.1-0.2l0.1-0.1L12,10l0,0c0,0,0,0,0.1,0l0,0c0,0,0,0,0,0.1c0,0,0,0,0.1,0h0.1V10l-0.1-0.1L11.7,10c0,0-0.1,0-0.2,0
    c-0.1,0-0.2,0.1-0.2,0.1c0-0.1-0.1-0.1-0.1-0.1c0-0.1-0.1-0.2-0.2-0.3 M10,10.2L10,10.2c-0.1,0-0.2,0.1-0.3,0.1l0.2,0.2v0.1H9.8
    l-0.2-0.2c-0.1,0-0.1,0.1-0.1,0.2c0,0-0.1,0-0.3,0c-0.1,0-0.3,0-0.3,0.2C8.9,10.9,9,11,9,11.1v0.1c0,0,0,0.1,0,0.2l0.1,0.1
    c0,0.1,0,0.1,0,0.1l0.1-0.1v-0.1c0,0,0,0,0-0.1C9.3,11,9.4,11,9.3,10.9c-0.1-0.1-0.2-0.2-0.2-0.2s0-0.1,0.1-0.1h0.1h0.2
    c0.1,0.1,0.2,0.2,0.2,0.2l0.1,0.1c0,0,0,0,0,0.1l-0.1,0.2v0.1c0,0,0.1,0.1,0.2,0.1c0,0,0.1,0.2,0.2,0.2c0,0,0,0.1,0.1,0.1
    c0,0,0.1,0,0,0v0.1h0.2h0.1l-0.1-0.1l-0.2-0.1L10,11.4c-0.1-0.1-0.1-0.1,0-0.2l0-0.2v0.1c0,0.1,0,0.1,0,0.1h0.1c0,0,0,0,0.1,0h0.2
    h0.1c0,0,0.1,0,0.1,0.1h0.2c0,0,0,0,0-0.1c0,0,0,0-0.1-0.1L10.6,11h-0.1h-0.2v-0.1c0,0,0.1-0.2,0.2-0.3h0.3h0.1l0,0
    c0,0-0.1-0.1-0.2-0.1l-0.1-0.2c0,0-0.1,0-0.2,0c0,0-0.1,0-0.2,0C10.3,10.2,10.2,10.2,10,10.2C10.1,10.2,10,10.2,10,10.2L10,10.2z"
  />
<path
    class="st8"
    d="M10.5,9.6c0-0.1,0-0.2,0-0.2s0.1-0.2,0.2-0.2c0,0,0,0-0.1,0l0,0l0,0l0,0l0,0l0,0l0,0l0,0l0,0l0,0l0,0l0,0l0,0
    l0,0l0,0l0,0l0,0l0,0l0,0l0,0l0,0l0,0l0,0l0,0l0,0l0,0l0,0c0,0-0.1,0,0,0l0,0l0,0C10.4,9.5,10.4,9.5,10.5,9.6
    c-0.1-0.1-0.1-0.1-0.1-0.1l0,0l0,0l0,0 M10.5,9.7L10.5,9.7L10.5,9.7L10.5,9.7C10.5,9.7,10.5,9.8,10.5,9.7
    C10.5,9.8,10.5,9.8,10.5,9.7 M10.6,9.8L10.6,9.8c0-0.1,0-0.1,0-0.1 M10.4,9.8L10.4,9.8L10.4,9.8L10.4,9.8L10.4,9.8z M10.5,9.8
    L10.5,9.8C10.4,9.8,10.4,9.8,10.5,9.8C10.4,9.8,10.5,9.8,10.5,9.8C10.5,9.9,10.5,9.9,10.5,9.8c0,0.1,0,0.1,0,0.1l0,0l0,0l0,0l0,0
    l0,0C10.6,9.9,10.6,9.8,10.5,9.8c0,0,0,0,0-0.1"
  />
<path
    class="st9"
    d="M11.2,9.4l-0.1,0.1c0,0-0.1,0.1-0.2,0.1l-0.2,0.1c0,0-0.1,0.1-0.2,0c0,0,0,0-0.1,0l0,0l0,0
    c0,0.1,0.1,0.1,0.1,0.1s0.1,0,0.2-0.1c0.1,0,0.2-0.1,0.3-0.2S11.2,9.5,11.2,9.4 M10.6,9.6h-0.1l0,0C10.5,9.7,10.5,9.7,10.6,9.6
    C10.5,9.7,10.5,9.7,10.6,9.6C10.5,9.7,10.6,9.7,10.6,9.6C10.6,9.7,10.6,9.7,10.6,9.6C10.7,9.7,10.6,9.6,10.6,9.6L10.6,9.6L10.6,9.6z
     M10.6,9.7L10.6,9.7L10.6,9.7C10.5,9.7,10.5,9.7,10.6,9.7C10.5,9.7,10.5,9.7,10.6,9.7C10.5,9.7,10.5,9.7,10.6,9.7z"
  />
<path
    class="st4"
    d="M9.1,9.7L9.1,9.7L9.1,9.7L9.1,9.7L9.1,9.7L9.1,9.7L9.1,9.7L9.1,9.7C9.1,9.7,9.2,9.7,9.1,9.7
    C9.2,9.7,9.2,9.7,9.1,9.7L9.1,9.7h0.1l0,0l0,0l0,0l0,0l0,0h0.1l0,0l0,0l0,0l0,0l0,0l0,0l0,0l0,0l0,0l0,0l0,0l0,0l0,0l0,0l0,0l0,0
    l0,0l0,0l0,0l0,0l0,0l0,0l0,0l0,0l0,0l0,0l0,0l0,0l0,0l0,0H9.1C9.2,9.7,9.2,9.7,9.1,9.7L9.1,9.7L9.1,9.7L9.1,9.7L9.1,9.7L9.1,9.7
    L9.1,9.7L9.1,9.7L9.1,9.7L9.1,9.7L9.1,9.7z M9.8,9.2L9.8,9.2L9.8,9.2L9.8,9.2L9.8,9.2L9.8,9.2L9.8,9.2L9.8,9.2
    C9.9,9.2,9.8,9.2,9.8,9.2L9.8,9.2L9.8,9.2L9.8,9.2L9.8,9.2L9.8,9.2C9.8,9.3,9.8,9.3,9.8,9.2C9.7,9.2,9.7,9.2,9.8,9.2
    C9.7,9.2,9.7,9.2,9.8,9.2L9.8,9.2z M9.9,9.3L9.9,9.3L9.9,9.3L9.9,9.3L9.9,9.3c0.1,0,0.1,0,0.1,0l0,0l0,0l0,0l0,0l0,0H9.9L9.9,9.3
    L9.9,9.3L9.9,9.3L9.9,9.3L9.9,9.3L9.9,9.3C9.8,9.3,9.9,9.3,9.9,9.3L9.9,9.3z M9.4,9.3L9.4,9.3L9.4,9.3C9.4,9.3,9.5,9.3,9.4,9.3
    L9.4,9.3L9.4,9.3C9.5,9.3,9.5,9.4,9.4,9.3L9.4,9.3L9.4,9.3C9.5,9.4,9.5,9.3,9.4,9.3L9.4,9.3L9.4,9.3C9.4,9.4,9.4,9.4,9.4,9.3
    L9.4,9.3L9.4,9.3z M9.2,9.5L9.2,9.5L9.2,9.5L9.2,9.5C9.3,9.5,9.3,9.5,9.2,9.5C9.3,9.5,9.3,9.5,9.2,9.5h0.1l0,0l0,0l0,0l0,0l0,0l0,0
    l0,0l0,0l0,0l0,0l0,0l0,0l0,0l0,0l0,0l0,0l0,0l0,0l0,0l0,0l0,0l0,0l0,0l0,0l0,0l0,0l0,0l0,0l0,0l0,0H9.2H9.1l0,0l0,0l0,0l0,0l0,0
    l0,0l0,0l0,0l0,0l0,0H9.2L9.2,9.5L9.2,9.5L9.2,9.5L9.2,9.5L9.2,9.5L9.2,9.5L9.2,9.5L9.2,9.5L9.2,9.5z"
  />
<path
    class="st4"
    d="M9.4,9.3L9.4,9.3L9.4,9.3C9.5,9.3,9.5,9.3,9.4,9.3C9.5,9.3,9.5,9.3,9.4,9.3C9.5,9.3,9.5,9.3,9.4,9.3
    C9.5,9.3,9.5,9.3,9.4,9.3L9.4,9.3C9.5,9.3,9.5,9.3,9.4,9.3c0.1,0,0.1,0,0.1,0l0,0l0,0l0,0l0,0l0,0l0,0l0,0l0,0l0,0l0,0l0,0
    c0,0,0,0,0.1,0h0.1l0,0l0,0l0,0l0,0l0,0l0,0l0,0l0,0l0,0l0,0l0,0l0,0l0,0l0,0l0,0H9.6l0,0l0,0l0,0l0,0l0,0l0,0l0,0l0,0l0,0l0,0l0,0
    l0,0l0,0l0,0H9.4L9.4,9.3C9.5,9.3,9.5,9.3,9.4,9.3L9.4,9.3L9.4,9.3C9.5,9.3,9.5,9.3,9.4,9.3C9.5,9.3,9.5,9.3,9.4,9.3
    C9.5,9.3,9.5,9.3,9.4,9.3C9.5,9.3,9.5,9.3,9.4,9.3L9.4,9.3L9.4,9.3L9.4,9.3L9.4,9.3z M9.2,9.6L9.2,9.6L9.2,9.6L9.2,9.6L9.2,9.6
    L9.2,9.6L9.2,9.6L9.2,9.6L9.2,9.6L9.2,9.6L9.2,9.6z M8.9,10L8.9,10L8.9,10L8.9,10H9l0,0l0,0l0,0l0,0l0,0l0,0l0,0l0,0l0,0l0,0l0,0
    l0.1-0.1l0,0l0,0l0,0l0,0l0,0l0,0l0,0l0,0l0,0l0,0l0,0l0,0l0,0l0,0l0,0l0,0l0,0l0,0l0,0l0,0l0,0l0,0l0,0l0,0l0,0l0,0l0,0l0,0l0,0
    c0,0,0,0-0.1,0.1l0,0l0,0l0,0l0,0l0,0l0,0l0,0l0,0l0,0l0,0l0,0l0,0l0,0l0,0H8.9L8.9,10L8.9,10L8.9,10L8.9,10L8.9,10z"
  />
<path
    d="M10.6,9.3L10.6,9.3L10.6,9.3L10.6,9.3L10.6,9.3C10.5,9.3,10.5,9.3,10.6,9.3C10.5,9.3,10.5,9.3,10.6,9.3
    C10.5,9.3,10.6,9.3,10.6,9.3L10.6,9.3z M10.4,9.3L10.4,9.3L10.4,9.3C10.4,9.3,10.4,9.4,10.4,9.3C10.4,9.4,10.4,9.4,10.4,9.3
    C10.4,9.4,10.3,9.4,10.4,9.3C10.4,9.4,10.4,9.4,10.4,9.3C10.4,9.4,10.4,9.4,10.4,9.3C10.3,9.4,10.3,9.4,10.4,9.3
    c-0.1,0.1-0.1,0.1-0.1,0.1l0,0l0,0l0,0C10.3,9.4,10.3,9.4,10.4,9.3L10.4,9.3C10.3,9.4,10.4,9.4,10.4,9.3L10.4,9.3
    C10.4,9.4,10.4,9.4,10.4,9.3L10.4,9.3L10.4,9.3L10.4,9.3L10.4,9.3L10.4,9.3z M9.9,9.5L9.9,9.5L9.9,9.5L9.9,9.5L9.9,9.5L9.9,9.5
    L9.9,9.5L9.9,9.5L9.9,9.5L9.9,9.5L9.9,9.5L9.9,9.5L9.9,9.5L10,9.4l0,0l0,0l0,0l0,0l0,0l0,0l0,0L9.9,9.5L9.9,9.5L9.9,9.5L9.9,9.5
    L9.9,9.5L9.9,9.5L9.9,9.5L9.9,9.5L9.9,9.5L9.9,9.5L9.9,9.5L9.9,9.5L9.9,9.5L9.9,9.5L9.9,9.5L9.9,9.5L9.9,9.5z"
  />
<path
    class="st4"
    d="M10.2,9.3L10.2,9.3L10.2,9.3L10.2,9.3L10.2,9.3L10.2,9.3v0.1l0,0l0,0l0,0l0,0l0,0l0,0l0,0l0,0l0,0l0,0l0,0l0,0
    l0,0l0,0l0,0l0,0l0,0l0,0l0,0l0,0l0,0l0,0l0,0l0,0l0,0C10.2,9.4,10.2,9.4,10.2,9.3L10.2,9.3L10.2,9.3L10.2,9.3L10.2,9.3L10.2,9.3
    L10.2,9.3L10.2,9.3z M9.9,9.5L9.9,9.5L9.9,9.5L9.9,9.5L9.9,9.5L9.9,9.5C10,9.5,10,9.6,9.9,9.5L9.9,9.5C10,9.6,10,9.6,9.9,9.5
    L9.9,9.5C10,9.6,10,9.6,10,9.6l0,0l0,0l0,0l0,0l0,0l0,0l0,0l0,0l0,0l0,0l0,0l0,0l0,0l0,0l0,0l0,0L9.9,9.5L9.9,9.5L9.9,9.5
    C10,9.6,10,9.6,9.9,9.5L9.9,9.5C9.9,9.6,9.9,9.5,9.9,9.5L9.9,9.5L9.9,9.5L9.9,9.5L9.9,9.5z"
  />
<path
    class="st4"
    d="M10.2,9.7L10.2,9.7L10.2,9.7L10.2,9.7c0.1,0,0.1,0,0.1,0l0,0l0,0C10.3,9.7,10.3,9.7,10.2,9.7L10.2,9.7L10.2,9.7
    L10.2,9.7L10.2,9.7L10.2,9.7z"
  />
<path
    d="M10.4,9.7L10.4,9.7L10.4,9.7L10.4,9.7C10.3,9.7,10.3,9.7,10.4,9.7C10.3,9.7,10.3,9.7,10.4,9.7L10.4,9.7
    C10.3,9.7,10.3,9.7,10.4,9.7C10.3,9.7,10.3,9.7,10.4,9.7C10.3,9.7,10.3,9.7,10.4,9.7C10.3,9.7,10.3,9.7,10.4,9.7
    C10.3,9.7,10.3,9.7,10.4,9.7L10.4,9.7L10.4,9.7C10.4,9.6,10.4,9.6,10.4,9.7C10.4,9.6,10.4,9.7,10.4,9.7L10.4,9.7z"
  />
<path
    class="st4"
    d="M10,9.8L10,9.8L10,9.8L10,9.8c0.1,0,0.1,0,0.1,0l0,0l0,0l0,0l0,0l0,0C10.1,9.8,10.1,9.8,10,9.8
    C10.1,9.8,10.1,9.8,10,9.8L10,9.8L10,9.8L10,9.8L10,9.8L10,9.8z M10.2,9.8L10.2,9.8L10.2,9.8C10.2,9.8,10.3,9.8,10.2,9.8
    C10.3,9.8,10.3,9.8,10.2,9.8C10.3,9.9,10.3,9.9,10.2,9.8C10.3,9.9,10.3,9.9,10.2,9.8C10.3,9.9,10.3,9.9,10.2,9.8L10.2,9.8L10.2,9.8
    C10.3,9.9,10.3,9.9,10.2,9.8L10.2,9.8L10.2,9.8L10.2,9.8L10.2,9.8L10.2,9.8L10.2,9.8L10.2,9.8L10.2,9.8L10.2,9.8L10.2,9.8z M10.4,10
    C10.3,10,10.3,10,10.4,10C10.3,10,10.3,10,10.4,10L10.4,10C10.3,10,10.3,10,10.4,10h-0.1l0,0l0,0l0,0l0,0l0,0l0,0l0,0H10.4
    C10.3,10,10.3,10,10.4,10L10.4,10C10.3,10,10.3,10,10.4,10L10.4,10L10.4,10L10.4,10L10.4,10L10.4,10z M10.1,10L10.1,10L10.1,10
    C10.1,9.9,10.1,10,10.1,10L10.1,10L10.1,10L10.1,10L10.1,10L10.1,10L10.1,10L10.1,10z"
  />
<path
    d="M9.5,10L9.5,10L9.5,10L9.5,10L9.5,10L9.5,10L9.5,10L9.5,10L9.5,10L9.5,10z"
  />
<path
    class="st4"
    d="M9.4,10.1L9.4,10.1L9.4,10.1L9.4,10.1L9.4,10.1L9.4,10.1C9.4,10,9.4,10,9.4,10.1L9.4,10.1L9.4,10.1L9.4,10.1
    L9.4,10.1L9.4,10.1L9.4,10.1L9.4,10.1L9.4,10.1z M9.4,10.1L9.4,10.1L9.4,10.1L9.4,10.1C9.4,10,9.4,10.1,9.4,10.1L9.4,10.1L9.4,10.1
    L9.4,10.1L9.4,10.1L9.4,10.1L9.4,10.1L9.4,10.1L9.4,10.1z M9.4,10.1L9.4,10.1L9.4,10.1L9.4,10.1L9.4,10.1L9.4,10.1
    C9.5,10.1,9.5,10.1,9.4,10.1L9.4,10.1L9.4,10.1L9.4,10.1L9.4,10.1L9.4,10.1L9.4,10.1L9.4,10.1L9.4,10.1z"
  />
<path
    d="M9.7,9.6L9.7,9.6L9.7,9.6L9.7,9.6L9.7,9.6C9.8,9.6,9.8,9.6,9.7,9.6C9.8,9.6,9.8,9.6,9.7,9.6L9.7,9.6
    C9.8,9.6,9.8,9.6,9.7,9.6L9.7,9.6C9.8,9.6,9.8,9.6,9.7,9.6C9.8,9.6,9.7,9.6,9.7,9.6S9.8,9.6,9.7,9.6L9.7,9.6L9.7,9.6L9.7,9.6
    L9.7,9.6L9.7,9.6z"
  />
<path
    class="st4"
    d="M9.8,10.4L9.8,10.4L9.8,10.4L9.8,10.4L9.8,10.4L9.8,10.4C9.9,10.5,9.9,10.5,9.8,10.4
    C9.9,10.5,9.9,10.5,9.8,10.4C9.9,10.5,9.9,10.5,9.8,10.4L9.8,10.4C9.9,10.5,9.9,10.5,9.8,10.4C9.9,10.5,9.9,10.5,9.8,10.4L9.8,10.4
    L9.8,10.4C9.9,10.5,9.8,10.5,9.8,10.4L9.8,10.4L9.8,10.4L9.8,10.4L9.8,10.4z M9.5,10.1L9.5,10.1L9.5,10.1L9.5,10.1
    C9.6,10.2,9.6,10.2,9.5,10.1L9.5,10.1L9.5,10.1C9.6,10.2,9.6,10.2,9.5,10.1L9.5,10.1L9.5,10.1L9.5,10.1L9.5,10.1L9.5,10.1L9.5,10.1
    L9.5,10.1L9.5,10.1L9.5,10.1z"
  />
<path
    class="st4"
    d="M9.6,10.2L9.6,10.2C9.7,10.3,9.7,10.3,9.6,10.2C9.7,10.3,9.7,10.3,9.6,10.2c0.1,0.1,0.1,0.1,0.1,0.1l0,0l0,0
    C9.7,10.3,9.7,10.3,9.6,10.2C9.7,10.3,9.7,10.3,9.6,10.2C9.7,10.3,9.6,10.2,9.6,10.2L9.6,10.2L9.6,10.2z"
  />
<path
    d="M10.5,9.7L10.5,9.7L10.5,9.7L10.5,9.7L10.5,9.7C10.4,9.7,10.4,9.7,10.5,9.7L10.5,9.7C10.4,9.7,10.4,9.7,10.5,9.7L10.5,9.7
    C10.4,9.7,10.4,9.7,10.5,9.7L10.5,9.7L10.5,9.7L10.5,9.7L10.5,9.7L10.5,9.7L10.5,9.7z M10.5,9.7L10.5,9.7L10.5,9.7L10.5,9.7
    C10.4,9.7,10.4,9.7,10.5,9.7L10.5,9.7C10.4,9.7,10.4,9.7,10.5,9.7L10.5,9.7C10.4,9.7,10.5,9.7,10.5,9.7L10.5,9.7L10.5,9.7L10.5,9.7
    L10.5,9.7z"
  />
<path
    d="M10.5,9.8L10.5,9.8L10.5,9.8L10.5,9.8L10.5,9.8C10.4,9.8,10.4,9.8,10.5,9.8L10.5,9.8C10.4,9.8,10.4,9.8,10.5,9.8
    C10.4,9.8,10.4,9.8,10.5,9.8C10.4,9.8,10.4,9.8,10.5,9.8L10.5,9.8C10.4,9.8,10.4,9.8,10.5,9.8L10.5,9.8C10.5,9.8,10.4,9.8,10.5,9.8
    L10.5,9.8L10.5,9.8L10.5,9.8L10.5,9.8L10.5,9.8z"
  />
<path
    class="st4"
    d="M10.1,10.1L10.1,10.1L10.1,10.1L10.1,10.1L10.1,10.1L10.1,10.1L10.1,10.1c0.1,0,0.1,0,0.1,0l0,0l0,0l0,0l0,0
    l0,0l0,0l0,0l0,0l0,0l0,0l0,0l0,0l0,0l0,0l0,0l0,0l0,0l0,0l0,0l0,0l0,0l0,0l0,0l0,0l0,0l0,0l0,0l0,0l0,0l0,0l0,0l0,0l0,0l0,0l0,0
    l0,0l0,0l0,0l0,0l0,0l0,0l0,0l0,0l0,0l0,0l0,0l0,0l0,0l0,0l0,0l0,0l0,0l0,0l0,0l0,0l0,0l0,0l0,0l0,0l0,0l0,0l0,0l0,0l0,0l0,0l0,0
    l0,0l0,0H10.1C10.1,10.2,10.1,10.2,10.1,10.1C10.1,10.2,10.1,10.2,10.1,10.1L10.1,10.1L10.1,10.1L10.1,10.1L10.1,10.1L10.1,10.1
    L10.1,10.1L10.1,10.1L10.1,10.1z M10.8,10.5L10.8,10.5C10.8,10.6,10.8,10.6,10.8,10.5L10.8,10.5L10.8,10.5
    C10.8,10.6,10.8,10.6,10.8,10.5L10.8,10.5L10.8,10.5L10.8,10.5L10.8,10.5L10.8,10.5L10.8,10.5c0.1,0.1,0.1,0.1,0.1,0.1l0,0l0,0l0,0
    l0,0l0,0l0,0l0,0L10.8,10.5L10.8,10.5L10.8,10.5L10.8,10.5C10.8,10.6,10.8,10.6,10.8,10.5L10.8,10.5L10.8,10.5L10.8,10.5L10.8,10.5z
     M10.9,10.6C10.9,10.6,10.9,10.7,10.9,10.6C10.9,10.7,10.9,10.7,10.9,10.6L10.9,10.6C10.9,10.7,10.9,10.7,10.9,10.6L10.9,10.6
    C10.9,10.6,10.9,10.7,10.9,10.6z M10,9.1L10,9.1L10,9.1L10,9.1L10,9.1L10,9.1L10,9.1L10,9.1L10,9.1L10,9.1L10,9.1L10,9.1L10,9.1
    L10,9.1L10,9.1L10,9.1L10,9.1z M10.1,9.1L10.1,9.1L10.1,9.1L10.1,9.1C10.2,9.1,10.2,9.1,10.1,9.1L10.1,9.1
    C10.2,9.1,10.2,9.1,10.1,9.1L10.1,9.1L10.1,9.1L10.1,9.1L10.1,9.1L10.1,9.1L10.1,9.1L10.1,9.1L10.1,9.1L10.1,9.1L10.1,9.1z M10.3,9
    L10.3,9C10.3,9,10.3,9.1,10.3,9C10.3,9.1,10.3,9.1,10.3,9C10.3,9.1,10.3,9.1,10.3,9C10.3,9.1,10.3,9.1,10.3,9
    C10.3,9.1,10.3,9.1,10.3,9C10.3,9.1,10.3,9.1,10.3,9C10.3,9.1,10.3,9.1,10.3,9c0,0.1,0,0.1,0,0.1l0,0l0,0C10.3,9.1,10.3,9.1,10.3,9
    C10.3,9.1,10.3,9.1,10.3,9C10.3,9.1,10.3,9.1,10.3,9C10.3,9.1,10.3,9,10.3,9L10.3,9L10.3,9L10.3,9L10.3,9z M10.3,9.1L10.3,9.1
    L10.3,9.1L10.3,9.1L10.3,9.1L10.3,9.1L10.3,9.1L10.3,9.1L10.3,9.1L10.3,9.1L10.3,9.1L10.3,9.1L10.3,9.1L10.3,9.1L10.3,9.1L10.3,9.1
    L10.3,9.1L10.3,9.1L10.3,9.1L10.3,9.1z"
  />
<path
    class="st7"
    d="M10.7,9C10.7,9,10.7,9.1,10.7,9 M10.7,9C10.7,9,10.6,9,10.7,9 M10.7,9C10.6,9,10.6,9,10.7,9L10.7,9 M10.6,8.9
    C10.6,9,10.6,9,10.6,8.9 M10.6,8.9C10.6,9,10.6,9,10.6,8.9 M10.6,8.9C10.6,8.9,10.6,9,10.6,8.9 M10.5,8.9C10.5,8.9,10.5,9,10.5,8.9
     M10.5,8.9C10.5,9,10.5,9,10.5,8.9 M10.5,8.9L10.5,8.9 M10.4,8.9C10.4,9,10.4,9,10.4,8.9 M10.4,8.9C10.4,9,10.4,9,10.4,8.9 M10.4,9
    L10.4,9 M10.4,9L10.4,9"
  />
<path
    class="st4"
    d="M10.4,9.1L10.4,9.1L10.4,9.1L10.4,9.1L10.4,9.1C10.3,9.2,10.3,9.2,10.4,9.1C10.3,9.2,10.3,9.2,10.4,9.1
    C10.3,9.2,10.3,9.2,10.4,9.1C10.3,9.2,10.3,9.2,10.4,9.1C10.3,9.2,10.3,9.2,10.4,9.1C10.3,9.2,10.3,9.2,10.4,9.1L10.4,9.1L10.4,9.1
    C10.4,9.2,10.4,9.2,10.4,9.1L10.4,9.1L10.4,9.1L10.4,9.1C10.4,9.2,10.4,9.2,10.4,9.1C10.4,9.2,10.4,9.2,10.4,9.1
    C10.4,9.2,10.4,9.2,10.4,9.1C10.4,9.2,10.4,9.2,10.4,9.1C10.4,9.2,10.4,9.2,10.4,9.1C10.4,9.2,10.4,9.2,10.4,9.1
    C10.4,9.2,10.4,9.2,10.4,9.1C10.4,9.2,10.4,9.2,10.4,9.1C10.4,9.2,10.4,9.2,10.4,9.1C10.5,9.2,10.5,9.2,10.4,9.1
    C10.5,9.2,10.5,9.2,10.4,9.1C10.5,9.2,10.5,9.2,10.4,9.1C10.5,9.2,10.5,9.2,10.4,9.1C10.5,9.2,10.4,9.2,10.4,9.1
    C10.4,9.2,10.4,9.1,10.4,9.1L10.4,9.1L10.4,9.1L10.4,9.1L10.4,9.1z M10.7,9.2L10.7,9.2L10.7,9.2C10.6,9.2,10.6,9.1,10.7,9.2
    L10.7,9.2C10.6,9.1,10.6,9.1,10.7,9.2C10.6,9.1,10.6,9.1,10.7,9.2L10.7,9.2C10.6,9.1,10.6,9.1,10.7,9.2L10.7,9.2L10.7,9.2L10.7,9.2
    C10.6,9.1,10.6,9.1,10.7,9.2C10.6,9.1,10.6,9.1,10.7,9.2L10.7,9.2L10.7,9.2L10.7,9.2L10.7,9.2L10.7,9.2z"
  />
<path
    d="M10.5,9.3L10.5,9.3L10.5,9.3L10.5,9.3L10.5,9.3L10.5,9.3C10.4,9.3,10.4,9.3,10.5,9.3C10.4,9.3,10.4,9.3,10.5,9.3
    C10.4,9.3,10.4,9.3,10.5,9.3L10.5,9.3L10.5,9.3L10.5,9.3L10.5,9.3L10.5,9.3L10.5,9.3L10.5,9.3L10.5,9.3L10.5,9.3z M10.5,9.3
    L10.5,9.3L10.5,9.3L10.5,9.3L10.5,9.3C10.5,9.3,10.6,9.3,10.5,9.3L10.5,9.3L10.5,9.3z M10.3,9.2C10.3,9.2,10.4,9.2,10.3,9.2
    C10.4,9.2,10.4,9.2,10.3,9.2L10.3,9.2C10.4,9.3,10.3,9.3,10.3,9.2L10.3,9.2C10.3,9.3,10.3,9.3,10.3,9.2c0,0.1,0,0.1,0,0.1l0,0l0,0
    l0,0l0,0l0,0l0,0l0,0l0,0l0,0C10.3,9.3,10.3,9.3,10.3,9.2L10.3,9.2C10.3,9.3,10.3,9.3,10.3,9.2L10.3,9.2L10.3,9.2L10.3,9.2z"
  />
<path
    class="st4"
    d="M10.1,9.4L10.1,9.4L10.1,9.4L10.1,9.4c0,0.1,0.1,0.1,0.1,0.1l0,0l0,0l0,0l0,0l0,0l0,0l0,0l0,0l0,0l0,0
    C10.1,9.5,10.1,9.5,10.1,9.4L10.1,9.4L10.1,9.4L10.1,9.4L10.1,9.4z"
  />
<path
    class="st10"
    d="M10.9,10.4l-0.2,0.1l0,0L10.9,10.4C10.9,10.5,10.9,10.5,10.9,10.4L10.9,10.4z M10.9,10.5l-0.2,0.1l0,0
    L10.9,10.5L10.9,10.5L10.9,10.5z M11,10.6h-0.1l0,0C10.9,10.6,10.9,10.6,11,10.6v0.1l0,0C11,10.7,11,10.6,11,10.6L11,10.6L11,10.6
    L11,10.6z"
  />
<path
    class="st4"
    d="M11,10.6L11,10.6L11,10.6C11,10.7,11,10.7,11,10.6L11,10.6L11,10.6L11,10.6L11,10.6L11,10.6
    C11,10.7,11,10.7,11,10.6c0,0.1,0,0.1,0,0.1l0,0l0,0l0,0l0,0l0,0l0,0l0,0l0,0C11,10.7,11,10.7,11,10.6L11,10.6L11,10.6L11,10.6
    L11,10.6L11,10.6C11,10.7,11,10.7,11,10.6L11,10.6L11,10.6L11,10.6L11,10.6z"
  />
<path
    d="M11.2,10.8L11.2,10.8L11.2,10.8L11.2,10.8L11.2,10.8L11.2,10.8L11.2,10.8L11.2,10.8C11.3,10.8,11.3,10.8,11.2,10.8
    c0.1,0,0.1,0,0.1,0l0,0l0,0l0,0H11.2L11.2,10.8C11.3,10.8,11.3,10.8,11.2,10.8L11.2,10.8L11.2,10.8L11.2,10.8L11.2,10.8L11.2,10.8
    L11.2,10.8z M10.4,9.5L10.4,9.5L10.4,9.5L10.4,9.5L10.4,9.5L10.4,9.5L10.4,9.5C10.4,9.6,10.4,9.6,10.4,9.5c0,0.1,0,0.1,0,0.1l0,0
    l0,0C10.4,9.6,10.4,9.6,10.4,9.5C10.4,9.6,10.4,9.6,10.4,9.5L10.4,9.5L10.4,9.5L10.4,9.5L10.4,9.5L10.4,9.5L10.4,9.5L10.4,9.5
    L10.4,9.5z M10.4,9.6L10.4,9.6L10.4,9.6L10.4,9.6L10.4,9.6L10.4,9.6L10.4,9.6L10.4,9.6L10.4,9.6L10.4,9.6L10.4,9.6L10.4,9.6
    L10.4,9.6L10.4,9.6z"
  />
<path
    class="st4"
    d="M10.7,10.2L10.7,10.2L10.7,10.2L10.7,10.2L10.7,10.2L10.7,10.2L10.7,10.2C10.7,10.2,10.8,10.2,10.7,10.2
    C10.8,10.2,10.8,10.2,10.7,10.2l0.1,0.1l0,0l0,0l0,0l0,0L10.7,10.2C10.8,10.2,10.8,10.2,10.7,10.2L10.7,10.2L10.7,10.2L10.7,10.2
    L10.7,10.2L10.7,10.2L10.7,10.2L10.7,10.2L10.7,10.2L10.7,10.2L10.7,10.2z M10.5,10.7L10.5,10.7L10.5,10.7L10.5,10.7
    C10.6,10.8,10.6,10.8,10.5,10.7C10.6,10.8,10.6,10.8,10.5,10.7C10.6,10.8,10.6,10.8,10.5,10.7C10.6,10.8,10.5,10.8,10.5,10.7
    C10.5,10.8,10.5,10.8,10.5,10.7L10.5,10.7C10.5,10.8,10.5,10.8,10.5,10.7C10.6,10.8,10.6,10.8,10.5,10.7L10.5,10.7L10.5,10.7
    C10.5,10.8,10.5,10.8,10.5,10.7L10.5,10.7L10.5,10.7L10.5,10.7L10.5,10.7z M10.6,9.1L10.6,9.1L10.6,9.1L10.6,9.1L10.6,9.1
    C10.6,9.1,10.6,9,10.6,9.1L10.6,9.1C10.5,9,10.5,9,10.5,9l0,0l0,0l0,0l0,0l0,0l0,0l0,0l0,0l0,0l0,0l0,0l0,0l0,0l0,0l0,0l0,0l0,0l0,0
    l0,0C10.5,9,10.5,9,10.6,9.1C10.6,9,10.6,9,10.6,9.1C10.6,9,10.6,9,10.6,9.1L10.6,9.1L10.6,9.1L10.6,9.1L10.6,9.1L10.6,9.1L10.6,9.1
    z"
  />
<path
    class="st6"
    d="M10.8,9.1C10.7,9.1,10.7,9.1,10.8,9.1c-0.1,0.1-0.1,0-0.2,0c0,0,0-0.1-0.1-0.1s-0.1,0-0.2,0.1v0.1l0,0l0,0
    c0,0-0.1,0-0.1-0.1h-0.1H10H9.9l0,0H10c0,0,0,0,0.1,0h0.1c0,0,0,0,0.1,0h0.1c0,0,0.1-0.1,0.2-0.1C10.6,8.9,10.7,8.9,10.8,9.1
    C10.7,9,10.8,9,10.8,9.1L10.8,9.1z"
  />
<path
    class="st11"
    d="M10.5,9c-0.1,0-0.1,0-0.2,0.1v0.1l0,0l0,0c0,0,0,0,0.1,0c0,0,0,0,0.1,0l0,0v0.1h0.1l0,0h0.1l0,0c0,0,0,0,0-0.1
    C10.7,9.1,10.6,9.1,10.5,9C10.6,9,10.6,9,10.5,9L10.5,9z"
  />
<path
    class="st6"
    d="M10.6,9.2L10.6,9.2C10.5,9.2,10.5,9.2,10.6,9.2c-0.1,0.1-0.1,0.1-0.1,0.1s0,0,0-0.1c0,0,0,0,0-0.1l0,0
    c0,0,0,0-0.1,0v0.1c0,0,0,0-0.1,0l-0.1-0.1h-0.1c0,0-0.1,0.1-0.2,0.1c-0.1,0-0.1,0.1-0.1,0.1c-0.1,0-0.1,0.1-0.1,0.1S9.5,9.9,9.4,10
    H9.3l0,0l0,0l0,0l0,0l0,0h0.3l0,0c0-0.1,0-0.1,0-0.1s0.1-0.1,0.2-0.2c0,0,0,0,0.1-0.1c0,0,0.1,0,0.1-0.1c0,0.1,0,0.2,0.1,0.3
    c0,0.1,0,0.1,0,0.2c0,0,0,0.1,0,0.2l0.1,0.1c0,0,0.1,0,0.2,0c0.1,0,0.1,0,0.2,0c0.1,0,0.2,0,0.2,0l0.1,0.2c0,0,0.1,0.1,0.2,0.1
    s0,0.1,0,0.1l0,0h0.1h0.1h0.1l0,0h-0.1l-0.1-0.1c0,0,0-0.1-0.1-0.1c0,0-0.1-0.2-0.2-0.2c0-0.1-0.1-0.1-0.1-0.2c0,0,0,0-0.1,0h-0.1
    c0,0-0.1,0-0.2-0.1c-0.1,0-0.1,0-0.1-0.1V9.8V9.7V9.6l0,0V9.5V9.4c0,0,0-0.1,0.1-0.1s0,0,0,0l0,0l0,0l0,0l0,0l0,0
    C10.6,9.3,10.6,9.3,10.6,9.2C10.6,9.3,10.6,9.3,10.6,9.2C10.6,9.3,10.6,9.2,10.6,9.2L10.6,9.2L10.6,9.2z"
  />
<path
    class="st6"
    d="M9.8,9.2C9.8,9.2,9.7,9.2,9.8,9.2C9.7,9.3,9.6,9.3,9.5,9.3H9.4l0,0v0.1H9.3c-0.1,0-0.1,0-0.1,0.1s0,0.1,0,0.1
    S9.1,9.6,9,9.7c0,0,0,0.1,0,0.2c0,0-0.1,0.1-0.2,0.1s0,0,0,0.1L9,10.2c0,0,0.1,0,0.1-0.1h0.1c0,0,0,0,0.1,0l0,0l0,0l0,0l0,0l0,0l0,0
    l0,0l0,0l0,0l0,0l0,0l0,0l0,0l0,0l0,0l0,0l0,0l0,0c0,0,0,0-0.1-0.1l0,0c0,0,0,0,0.1,0.1l0,0l0,0l0,0l0,0l0,0V10V9.9l0,0l0,0l0.1-0.1
    l0,0l0,0l0,0l0,0l0,0l0,0L10,9.2l0,0C10,9.2,10,9.2,9.8,9.2L9.8,9.2L9.8,9.2L9.8,9.2z M9.9,9.5L9.8,9.6l0,0l0,0l0,0l0,0l0,0l0,0l0,0
    l0,0l0,0l0,0l0,0l0,0l0,0l0,0l0,0l0,0l0,0L9.6,9.9l0,0l0,0l0.1-0.1c0.1,0,0.1-0.1,0.2-0.1l0,0l0,0C9.9,9.6,9.9,9.6,9.9,9.5L9.9,9.5
    L9.9,9.5C9.9,9.6,9.9,9.6,9.9,9.5L9.9,9.5L9.9,9.5L9.9,9.5L9.9,9.5z"
  />
<path
    class="st11"
    d="M10.5,9.7C10.5,9.7,10.5,9.8,10.5,9.7C10.5,9.8,10.5,9.8,10.5,9.7C10.5,9.8,10.4,9.8,10.5,9.7
    C10.4,9.8,10.4,9.8,10.5,9.7C10.4,9.8,10.4,9.7,10.5,9.7C10.4,9.7,10.4,9.7,10.5,9.7C10.4,9.7,10.4,9.7,10.5,9.7
    C10.4,9.7,10.5,9.7,10.5,9.7L10.5,9.7L10.5,9.7L10.5,9.7z"
  />
<path
    class="st6"
    d="M9.3,9.9C9.3,9.9,9.3,10,9.3,9.9C9.3,10,9.3,10,9.3,9.9C9.4,10,9.4,10,9.3,9.9C9.4,9.9,9.4,9.9,9.3,9.9L9.3,9.9
    z M9.6,10l-0.1,0.1l0,0C9.5,10.1,9.5,10.1,9.6,10L9.6,10L9.6,10z"
  />
<path class="st6" d="M9.5,10.1l0.4,0.4H10v-0.1L9.5,10.1L9.5,10.1z" />
<path
    class="st6"
    d="M10.6,10.7h-0.1l0,0l0,0C10.5,10.8,10.6,10.8,10.6,10.7C10.6,10.8,10.6,10.8,10.6,10.7L10.6,10.7z"
  />
<path
    class="st9"
    d="M10.4,9.7L10.4,9.7C10.4,9.6,10.4,9.6,10.4,9.7c0-0.1,0-0.1,0-0.1l0,0c0,0,0,0,0-0.1l0,0l0,0c0,0,0,0-0.1-0.1
    l0,0l0,0v0.1l0,0C10.4,9.6,10.4,9.6,10.4,9.7L10.4,9.7L10.4,9.7L10.4,9.7"
  />
<circle class="st12" cx="10.5" cy="10.5" r="1.8" />
<circle cx="11.6" cy="12.3" r="0.1" />
<circle cx="9.4" cy="12.3" r="0.1" />
<path
    d="M10.5,12.5L10.5,12.5L10.5,12.5L10.5,12.5C10.6,12.5,10.6,12.5,10.5,12.5C10.6,12.6,10.6,12.6,10.5,12.5
    c0.1,0.1,0.1,0.1,0.1,0.1l0,0l0,0l0,0l0,0l0,0l0,0C10.4,12.6,10.4,12.6,10.5,12.5C10.4,12.6,10.4,12.6,10.5,12.5
    C10.4,12.5,10.4,12.5,10.5,12.5C10.4,12.5,10.4,12.5,10.5,12.5L10.5,12.5z"
  />
<path
    d="M10.4,12.4L10.4,12.4c-0.1,0.1-0.1,0.1-0.1,0.1s0,0,0.1,0.1l0,0c0,0,0,0-0.1,0v0.1c0,0,0,0.1,0.1,0.1c0,0,0,0,0.1,0l0,0
    c0,0,0,0,0,0.1c0,0,0,0,0.1,0h0.1c0,0,0,0,0-0.1l0,0c0,0,0,0,0.1,0c0,0,0.1,0,0.1-0.1v-0.1c0,0,0,0-0.1,0l0,0c0,0,0,0,0.1-0.1v-0.1
    h-0.1C10.5,12.4,10.5,12.4,10.4,12.4L10.4,12.4C10.5,12.4,10.5,12.4,10.4,12.4C10.5,12.4,10.4,12.4,10.4,12.4L10.4,12.4z M10.4,12.4
    C10.5,12.4,10.5,12.4,10.4,12.4C10.5,12.5,10.5,12.5,10.4,12.4L10.4,12.4C10.5,12.5,10.5,12.5,10.4,12.4c0.1,0,0.1,0,0.2,0
    c0,0,0,0,0,0.1c0,0,0,0,0,0.1l0,0c0,0,0,0,0.1,0c0,0,0,0,0,0.1c0,0,0,0.1,0,0c0,0,0,0-0.1,0l0,0c0,0,0,0,0,0.1c0,0,0,0-0.1,0h-0.1
    c0,0,0,0,0-0.1l0,0c0,0,0,0-0.1,0l0,0v-0.1c0,0,0,0,0.1,0l0,0C10.4,12.5,10.4,12.5,10.4,12.4C10.3,12.5,10.4,12.5,10.4,12.4
    L10.4,12.4L10.4,12.4L10.4,12.4z"
  />
<path
    class="st13"
    d="M10.5,12.3L10.5,12.3L10.5,12.3v0.1l0,0l0,0l0,0l0,0l0,0l0,0l0,0l0,0l0,0l0,0l0,0l0,0l0,0l0,0l0,0l0,0l0,0l0,0
    V12.3L10.5,12.3L10.5,12.3L10.5,12.3L10.5,12.3z M10.2,12.5L10.2,12.5L10.2,12.5l0.1,0.1l0,0l0,0l0,0l0,0l0,0l0,0l0,0l0,0l0,0l0,0
    l0,0l0,0l0,0l0,0l0,0l0,0l0,0L10.2,12.5L10.2,12.5L10.2,12.5z M10.8,12.5C10.7,12.5,10.7,12.5,10.8,12.5L10.8,12.5L10.8,12.5h-0.1
    l0,0l0,0l0,0l0,0l0,0l0,0l0,0l0,0l0,0l0,0l0,0l0,0l0,0l0,0l0,0l0,0l0,0H10.8L10.8,12.5L10.8,12.5L10.8,12.5z M10.5,12.5L10.5,12.5
    L10.5,12.5L10.5,12.5L10.5,12.5L10.5,12.5L10.5,12.5L10.5,12.5z M10.4,12.5L10.4,12.5L10.4,12.5C10.4,12.6,10.4,12.6,10.4,12.5
    L10.4,12.5C10.4,12.6,10.4,12.6,10.4,12.5L10.4,12.5L10.4,12.5z M10.6,12.5L10.6,12.5L10.6,12.5C10.6,12.6,10.6,12.6,10.6,12.5
    L10.6,12.5C10.6,12.6,10.6,12.6,10.6,12.5L10.6,12.5L10.6,12.5L10.6,12.5z M10.4,12.6L10.4,12.6C10.4,12.7,10.4,12.7,10.4,12.6
    L10.4,12.6C10.5,12.7,10.5,12.7,10.4,12.6L10.4,12.6C10.5,12.7,10.4,12.6,10.4,12.6L10.4,12.6L10.4,12.6z M10.6,12.6L10.6,12.6
    C10.5,12.7,10.5,12.7,10.6,12.6L10.6,12.6L10.6,12.6C10.5,12.7,10.5,12.7,10.6,12.6L10.6,12.6C10.6,12.7,10.6,12.7,10.6,12.6
    L10.6,12.6z M10.6,12.7L10.6,12.7L10.6,12.7L10.6,12.7L10.6,12.7L10.6,12.7L10.6,12.7L10.6,12.7L10.6,12.7L10.6,12.7L10.6,12.7
    L10.6,12.7l0.1,0.1l0,0l0,0l0,0l0,0L10.6,12.7L10.6,12.7L10.6,12.7L10.6,12.7L10.6,12.7L10.6,12.7L10.6,12.7L10.6,12.7z M10.4,12.7
    L10.4,12.7L10.4,12.7L10.4,12.7L10.4,12.7l-0.1,0.1l0,0l0,0l0,0L10.4,12.7L10.4,12.7L10.4,12.7L10.4,12.7L10.4,12.7L10.4,12.7
    L10.4,12.7L10.4,12.7L10.4,12.7L10.4,12.7L10.4,12.7z"
  />
<circle class="st12" cx="10.5" cy="10.5" r="2.4" />
<path
    id="A"
    class="st14"
    d="M12.8,9l-0.1,0.1c-0.3-0.1-0.4-0.2-0.5-0.4s-0.1-0.4-0.1-0.6c0.3,0,0.5,0.1,0.7,0.2s0.3,0.4,0.3,0.5H13
    c0-0.1-0.1-0.3-0.2-0.4c-0.1-0.1-0.4-0.3-0.5-0.2s-0.1,0.3,0,0.4C12.2,8.8,12.5,9,12.6,9l0.1-0.1L12.8,9z"
  />
<path
    id="B"
    class="st14"
    d="M12.6,8.4L12.6,8.4c-0.1,0-0.3,0.1-0.4,0.1c0-0.1,0-0.2,0.1-0.3h-0.1c0,0.1,0,0.3-0.1,0.4l0,0l0,0
    C12.3,8.6,12.5,8.5,12.6,8.4C12.6,8.5,12.6,8.4,12.6,8.4L12.6,8.4z"
  />
<path
    id="C"
    class="st14"
    d="M12.7,8.5c-0.1,0.1-0.2,0.2-0.3,0.3c0,0,0.1,0,0.1,0.1C12.5,8.8,12.7,8.7,12.7,8.5
    C12.7,8.6,12.7,8.6,12.7,8.5z"
  />
<path
    id="A_00000000184333762263021520000016684680936041935035_"
    class="st14"
    d="M12,12.8l-0.1-0.1c0.1-0.3,0.2-0.4,0.4-0.5
    s0.4-0.1,0.6-0.1c0,0.3-0.1,0.5-0.2,0.7c-0.1,0.2-0.4,0.3-0.5,0.3V13c0.1,0,0.3-0.1,0.4-0.2c0.1-0.1,0.3-0.4,0.2-0.5s-0.3-0.1-0.4,0
    c-0.1,0.1-0.3,0.3-0.3,0.4l0.1,0.1L12,12.8z"
  />
<path
    id="B_00000013871638140290415100000007631785347862112438_"
    class="st14"
    d="M12.6,12.6L12.6,12.6c0-0.1-0.1-0.3-0.1-0.4
    c0.1,0,0.2,0,0.3,0.1v-0.1c-0.1,0-0.3,0-0.4-0.1l0,0l0,0C12.4,12.3,12.5,12.5,12.6,12.6C12.5,12.6,12.6,12.6,12.6,12.6L12.6,12.6z"
  />
<path
    id="C_00000142888963624455050090000004449503482052109469_"
    class="st14"
    d="M12.5,12.7c-0.1-0.1-0.2-0.2-0.3-0.3
    c0,0,0,0.1-0.1,0.1C12.2,12.5,12.3,12.7,12.5,12.7C12.4,12.7,12.4,12.7,12.5,12.7z"
  />
<path
    id="A_00000070814636204550763140000010495984421081161615_"
    class="st14"
    d="M8.2,12l0.1-0.1c0.3,0.1,0.4,0.2,0.5,0.4
    s0.1,0.4,0.1,0.6c-0.3,0-0.5-0.1-0.7-0.2c-0.2-0.1-0.3-0.4-0.3-0.5H8c0,0.1,0.1,0.3,0.2,0.4c0.1,0.1,0.4,0.3,0.5,0.2s0.1-0.3,0-0.4
    C8.8,12.2,8.5,12,8.4,12l-0.1,0.1L8.2,12z"
  />
<path
    id="B_00000091725397702798139500000008523453231946137753_"
    class="st14"
    d="M8.4,12.6L8.4,12.6c0.1,0,0.3-0.1,0.4-0.1
    c0,0.1,0,0.2-0.1,0.3h0.1c0-0.1,0-0.3,0.1-0.4l0,0l0,0C8.7,12.4,8.5,12.5,8.4,12.6C8.4,12.5,8.4,12.6,8.4,12.6L8.4,12.6z"
  />
<path
    id="C_00000123409762939926732200000001727775310947294624_"
    class="st14"
    d="M8.3,12.5c0.1-0.1,0.2-0.2,0.3-0.3
    c0,0-0.1,0-0.1-0.1C8.5,12.2,8.3,12.3,8.3,12.5C8.3,12.4,8.3,12.4,8.3,12.5z"
  />
<path
    id="A_00000080927713741220798250000015445353064527341972_"
    class="st14"
    d="M9,8.2l0.1,0.1C9,8.7,8.9,8.8,8.7,8.9
    C8.5,9,8.3,9.1,8.1,9.1c0-0.3,0.1-0.5,0.2-0.7s0.4-0.3,0.5-0.3v0.1c-0.1,0-0.3,0.1-0.4,0.2C8.3,8.5,8.2,8.8,8.3,8.9
    C8.4,9,8.6,9,8.7,8.9C8.8,8.8,9,8.5,9,8.4L8.9,8.3L9,8.2z"
  />
<path
    id="B_00000101801136867394846450000014568601880427057085_"
    class="st14"
    d="M8.4,8.4L8.4,8.4c0,0.1,0.1,0.3,0.1,0.4
    c-0.1,0-0.2,0-0.3-0.1v0.1c0.1,0,0.3,0,0.4,0.1l0,0l0,0C8.6,8.7,8.5,8.5,8.4,8.4C8.5,8.4,8.4,8.4,8.4,8.4L8.4,8.4z"
  />
<path
    id="C_00000183207000188534411510000011587484703468356482_"
    class="st14"
    d="M8.5,8.3c0.1,0.1,0.2,0.2,0.3,0.3
    c0,0,0-0.1,0.1-0.1C8.8,8.5,8.7,8.3,8.5,8.3C8.6,8.3,8.6,8.3,8.5,8.3z"
  />
<path
    d="M8.6,11.8c-0.1-0.1-0.1-0.2-0.2-0.2h0.1C8.5,11.7,8.6,11.8,8.6,11.8l0.1-0.1c0-0.1-0.1-0.1-0.1-0.1h0.1c0,0,0,0.1,0.1,0.1
    c0,0,0.1-0.1,0.2-0.1l0-0.1C8.9,11.5,8.7,11.7,8.6,11.8z M8.4,10.7c-0.1,0-0.2,0.1-0.2,0.3s0.1,0.2,0.3,0.2s0.2-0.1,0.2-0.3
    S8.6,10.7,8.4,10.7z M8.4,10.8c0.1,0,0.2,0,0.2,0.1s-0.1,0.2-0.2,0.2c-0.1,0-0.2-0.1-0.2-0.1C8.3,10.9,8.3,10.8,8.4,10.8L8.4,10.8z
     M8.7,9.9L8.7,9.9C8.6,10,8.5,10,8.5,10.1C8.5,10,8.4,10,8.4,10c-0.1,0-0.1,0-0.1,0.1v0.2c0.1,0,0.4,0,0.4,0v-0.1
    c-0.1,0-0.2,0-0.2,0l0,0l0.1-0.1C8.6,10.1,8.7,10,8.7,9.9L8.7,9.9L8.7,9.9z M8.5,10.3c-0.1,0-0.2,0-0.2,0c0-0.1,0-0.1,0.1-0.1
    C8.4,10.1,8.5,10.1,8.5,10.3z M8.9,8.9L8.9,8.9C8.9,9,8.8,9,8.8,9.1c0,0,0,0.1,0.1,0.1s0.1,0.1,0.2,0l0.1-0.1L9.1,9l0,0
    c0,0.1,0.1,0.1,0.1,0.1c0,0.1-0.1,0.2-0.2,0.2c-0.1,0-0.2,0-0.3,0c0-0.1,0-0.2,0-0.3C8.8,9,8.9,8.9,8.9,8.9L8.9,8.9z M9.5,8.5v0.3
    c0,0,0,0.1,0,0.2l0.1-0.1V8.8l0.2-0.1l0.1,0.1L10,8.7c-0.1,0-0.2-0.1-0.2-0.1L9.5,8.5z M9.5,8.6l0.2,0.1L9.5,8.6L9.5,8.6z M10.3,8.2
    c0,0.1,0,0.2,0,0.4c0.1,0,0.2,0,0.2-0.1v0.1h-0.3c0-0.1,0-0.3,0-0.4H10.3z M12,9.4L12,9.4c0-0.1,0.2-0.2,0.3-0.3l0,0l-0.1,0.4
    c0.1,0,0.2-0.1,0.3-0.2l0.1,0.1c-0.1,0-0.3,0.1-0.4,0.2l0,0l0.1-0.4C12.2,9.3,12,9.4,12,9.4L12,9.4z M12.7,10.1c0-0.1,0-0.1,0-0.1
    l0,0h0.1c0,0.1,0.1,0.3,0.1,0.4h-0.1l0,0C12.7,10.3,12.7,10.2,12.7,10.1c-0.1,0.1-0.3,0.1-0.3,0.2v-0.1
    C12.4,10.1,12.6,10.1,12.7,10.1L12.7,10.1z M12.1,11.4L12,11.5c0.1,0,0.1,0,0.2,0.1c0,0.1,0.1,0.2,0.1,0.3l0.1-0.1
    c0,0-0.1,0-0.1-0.2c0.1,0,0.2,0,0.2,0l0.1-0.1c-0.1,0.1-0.3,0.1-0.3,0.1C12.2,11.5,12.1,11.4,12.1,11.4L12.1,11.4z M11.9,8.7
    l-0.3,0.2c0,0-0.1,0.1-0.2,0.1l0.1,0.1L11.6,9h0.1c0,0,0,0.1-0.1,0.1l0.1,0.1c0-0.1,0-0.2,0-0.2L11.9,8.7z M11.8,8.7v0.2l-0.1-0.1
    L11.8,8.7z M11,8.3c0,0.1-0.1,0.2-0.1,0.4c0.1,0,0.2,0,0.2,0v0.1l-0.3-0.1c0-0.1,0.1-0.3,0.1-0.4H11z M12.3,11.1L12.3,11.1
    c0.1-0.1,0.2-0.1,0.2-0.2c0,0.1,0.1,0.1,0.1,0.1c0.1,0,0.1,0,0.1-0.1v-0.2c-0.1,0-0.4,0-0.4,0v0.1c0.1,0,0.2,0,0.2,0l0,0l-0.1,0.1
    C12.4,10.9,12.3,11,12.3,11.1L12.3,11.1L12.3,11.1z M12.5,10.7c0.1,0,0.2,0,0.2,0c0,0.1,0,0.1-0.1,0.1
    C12.6,10.9,12.5,10.9,12.5,10.7z"
  />
<path
    class="st15"
    d="M16,8.9h-3C13,8.4,12.5,8,12.1,8V5H8.9v3C8.4,8,8,8.4,8,8.9H5v3.2h3C8,12.6,8.4,13,8.9,13v3h3.2v-3
    c0.5,0,0.9-0.5,0.9-0.9h3C16,12.1,16,8.9,16,8.9z"
  />
<path
    class="st16"
    d="M9.2,5.3L9.2,5.3v3.2l0,0l0,0V5.3h2.6v3.2l0,0l0,0V5.3l0,0H9.2z M5.3,9.2L5.3,9.2v2.6l0,0h3.2l0,0H5.3V9.2h3.2
    l0,0H5.3z M12.5,9.2L12.5,9.2h3.2v2.6h-3.2l0,0h3.2l0,0V9.2l0,0H12.5z M9.2,12.5L9.2,12.5v3.2l0,0h2.6l0,0v-3.2l0,0l0,0v3.2H9.2
    V12.5L9.2,12.5z M9,5.1L9,5.1v3.2l0,0V5.1h2.9v3l0,0v-3l0,0C11.9,5.1,9,5.1,9,5.1z M12,8.3v0.3l0,0V8.3L12,8.3z M9,8.5L9,8.5v0.1
    l0,0V8.5z M5.1,9L5.1,9v3l0,0h3.2l0,0H5.1V9h3l0,0H5.1z M8.4,9L8.4,9h0.2l0,0H8.4z M12.3,9L12.3,9h0.1H12.3L12.3,9z M12.7,9L12.7,9
    h3.1v3h-3l0,0h3l0,0V9l0,0H12.7z M8.5,12L8.5,12h0.1l0,0H8.5z M12.4,12L12.4,12h0.2h0.1h0.1H12.4z M12,12.3L12,12.3v0.1V12.3
    L12,12.3z M9,12.3v0.2l0,0v0.1V12.3L9,12.3z M12,12.7v3.2H9v-3l0,0v3l0,0h3l0,0V12.7L12,12.7z"
  />
</svg>
