<?xml version="1.0" encoding="UTF-8" standalone="no" ?>
<svg
  xmlns:dc="http://purl.org/dc/elements/1.1/"
  xmlns:cc="http://creativecommons.org/ns#"
  xmlns:rdf="http://www.w3.org/1999/02/22-rdf-syntax-ns#"
  xmlns:svg="http://www.w3.org/2000/svg"
  xmlns="http://www.w3.org/2000/svg"
  id="svg1053"
  version="1.1"
  viewBox="0 0 40 40"
  height="40"
  width="40"
>
  <metadata id="metadata1057">
    <rdf:RDF>
      <cc:Work rdf:about="">
        <dc:format>image/svg+xml</dc:format>
        <dc:type rdf:resource="http://purl.org/dc/dcmitype/StillImage" />
        <dc:title>EC/Icons/Country flags/Square/40x40/slovakia</dc:title>
      </cc:Work>
    </rdf:RDF>
  </metadata>
  <title id="title1025">EC/Icons/Country flags/Square/40x40/slovakia</title>
  <defs id="defs1028">
    <path
      id="a"
      d="M7.6 19C4.473 17.495 0 14.507 0 8.597S.283 0 .283 0h14.634s.283 2.688.283 8.597c0 5.91-4.473 8.898-7.6 10.403"
    />
    <style
      id="style1154"
    >.cls-1{fill:none;}.cls-2{fill:#fffffe;}.cls-3{fill:#d8262d;}.cls-4{fill:#1c4689;}.cls-5{fill:#fff;stroke:#d3d3d3;stroke-miterlimit:10;stroke-width:.5px;}</style>
  </defs>
  <g transform="translate(-0.04237263)" id="transparant_bg">
    <rect
      id="rect1158"
      height="40"
      width="40"
      y="0"
      class="cls-1"
      x="0"
      style="fill:none"
    />
    <polygon
      id="polygon1160"
      points="39,1 1,1 1,7.79 1,20 1,32.21 1,39 39,39 39,20 "
      class="cls-5"
      style="fill:#ffffff;stroke:#d3d3d3;stroke-width:0.5px;stroke-miterlimit:10"
    />
  </g>
  <g transform="translate(-0.04237263)" id="g1169">
    <rect
      style="fill:#d8262d"
      class="cls-3"
      x="1"
      y="26.65"
      width="38"
      height="12.35"
      id="rect1163"
    />
    <rect
      style="fill:#1c4689"
      class="cls-4"
      x="1"
      y="13.35"
      width="38"
      height="13.3"
      id="rect1165"
    />
    <rect
      style="fill:#fffffe"
      class="cls-2"
      x="1"
      y="1"
      width="38"
      height="12.35"
      id="rect1167"
    />
  </g>
  <path
    id="path1171"
    d="M 22.677627,11 H 8.2376274 c 0,0 -0.28,2.69 -0.28,8.6 0,2.2 0.61,3.99 1.54,5.45 0.41,-0.72 1.0399996,-1.5 1.9099996,-1.5 1.28,0 1.75,1.04 1.75,1.04 0,0 0.63,-1.62 1.8,-2.07 v -3.13 c -0.95,-0.01 -2.61,0 -3.96,0.45 0,0 0.04,-0.53 0.04,-1.14 0,-0.61 -0.04,-1.14 -0.04,-1.14 1.47,0.49 3.11,0.46 3.96,0.45 v -2.05 c -0.77,0 -1.88,0.03 -3.13,0.45 0,0 0.04,-0.53 0.04,-1.14 0,-0.61 -0.04,-1.14 -0.04,-1.14 1.25,0.42 2.36,0.46 3.13,0.45 -0.04,-1.3 -0.42,-2.94 -0.42,-2.94 0,0 0.78,0.06 1.09,0.06 0.31,0 1.09,-0.06 1.09,-0.06 0,0 -0.38,1.64 -0.42,2.94 0.77,0 1.88,-0.03 3.13,-0.45 0,0 -0.04,0.53 -0.04,1.14 0,0.61 0.04,1.14 0.04,1.14 -1.25,-0.42 -2.36,-0.46 -3.13,-0.45 v 2.05 c 0.84,0.01 2.49,0.05 3.96,-0.45 0,0 -0.04,0.53 -0.04,1.14 0,0.61 0.04,1.14 0.04,1.14 -1.34,-0.45 -3.01,-0.46 -3.96,-0.45 v 3.2 c 1.09,0.51 1.68,2 1.68,2 0,0 0.47,-1.04 1.75,-1.04 0.8,0 1.4,0.66 1.81,1.33 0.87,-1.43 1.44,-3.17 1.44,-5.28 0,-5.91 -0.28,-8.6 -0.28,-8.6 z"
    class="cls-3"
    style="fill:#d8262d"
  />
  <path
    id="path1173"
    d="m 16.287627,22.58 v -3.2 c 0.95,-0.01 2.61,0 3.96,0.45 0,0 -0.04,-0.53 -0.04,-1.14 0,-0.61 0.04,-1.14 0.04,-1.14 -1.47,0.49 -3.11,0.46 -3.96,0.45 v -2.05 c 0.77,0 1.88,0.03 3.13,0.45 0,0 -0.04,-0.53 -0.04,-1.14 0,-0.61 0.04,-1.14 0.04,-1.14 -1.25,0.42 -2.36,0.46 -3.13,0.45 0.04,-1.3 0.42,-2.94 0.42,-2.94 0,0 -0.78,0.06 -1.09,0.06 -0.31,0 -1.09,-0.06 -1.09,-0.06 0,0 0.38,1.64 0.42,2.94 -0.77,0 -1.88,-0.03 -3.13,-0.45 0,0 0.04,0.53 0.04,1.14 0,0.61 -0.04,1.14 -0.04,1.14 1.25,-0.42 2.36,-0.46 3.13,-0.45 V 18 c -0.84,0.01 -2.49,0.05 -3.96,-0.45 0,0 0.04,0.53 0.04,1.14 0,0.61 -0.04,1.14 -0.04,1.14 1.35,-0.45 3.01,-0.46 3.96,-0.45 v 3.13 c 0.19,-0.07 0.39,-0.12 0.6,-0.12 0.27,0 0.51,0.08 0.73,0.18 z"
    class="cls-2"
    style="fill:#fffffe"
  />
  <path
    id="path1175"
    d="M 23.637627,10 H 7.2776274 c 0,0 -0.32,2.97 -0.32,9.5 0,2.68 0.85,4.81 2.09,6.52 0.26,0.36 0.53,0.7 0.82,1.02 0.6599996,0.73 1.3899996,1.37 2.1399996,1.92 1.17,0.86 2.38,1.53 3.45,2.04 2.11,-1 4.76,-2.61 6.54,-5.16 1.17,-1.67 1.96,-3.75 1.96,-6.34 0,-6.53 -0.32,-9.5 -0.32,-9.5 z m -2.12,14.88 c -1.56,2.57 -4.08,4.16 -6.06,5.12 -1.94,-0.95 -4.4,-2.48 -5.9599996,-4.95 -0.93,-1.46 -1.54,-3.26 -1.54,-5.45 0,-5.91 0.28,-8.6 0.28,-8.6 H 22.677627 c 0,0 0.28,2.69 0.28,8.6 0,2.11 -0.57,3.85 -1.44,5.28 z"
    class="cls-2"
    style="fill:#fffffe"
  />
  <path
    id="path1177"
    d="m 19.707627,23.55 c -1.28,0 -1.75,1.04 -1.75,1.04 0,0 -0.59,-1.49 -1.68,-2 -0.22,-0.11 -0.46,-0.18 -0.73,-0.18 -0.22,0 -0.41,0.05 -0.6,0.12 -1.18,0.45 -1.8,2.07 -1.8,2.07 0,0 -0.47,-1.04 -1.75,-1.04 -0.87,0 -1.4999996,0.78 -1.9099996,1.5 1.5599996,2.47 4.0199996,4 5.9599996,4.95 1.98,-0.97 4.51,-2.55 6.06,-5.12 -0.41,-0.67 -1.01,-1.33 -1.81,-1.33 z"
    class="cls-4"
    style="fill:#1c4689"
  />
</svg>
