<svg
  width="40"
  height="40"
  viewBox="0 0 40 40"
  fill="none"
  xmlns="http://www.w3.org/2000/svg"
>
<g clip-path="url(#clip0_1_1080025)">
<path
      fill-rule="evenodd"
      clip-rule="evenodd"
      d="M1 32.5H39V7.5H1V32.5Z"
      fill="#EA3323"
    />
<path
      fill-rule="evenodd"
      clip-rule="evenodd"
      d="M1 24.1667H39V7.5H1V24.1667Z"
      fill="#005CE5"
    />
<path
      fill-rule="evenodd"
      clip-rule="evenodd"
      d="M1 15.8333H39V7.5H1V15.8333Z"
      fill="#FFFFFE"
    />
</g>
<rect
    x="1.25"
    y="7.75"
    width="37.5"
    height="24.5"
    stroke="#D5D5D4"
    stroke-width="0.5"
  />
<path
    fill-rule="evenodd"
    clip-rule="evenodd"
    d="M10.67 11C10.6062 11.0001 10.5426 11.0014 10.4792 11.0032C9.24544 11.0352 8.08717 11.3539 7.26243 11.7425L7.26252 11.7436C7.17234 11.7813 7.084 11.8191 7 11.8569L7.28348 16.2976C7.4799 18.6183 8.99207 19.9694 10.6722 20.5C12.3523 19.9694 13.8644 18.6183 14.0608 16.2976L14.3427 11.871C14.2586 11.8274 14.1703 11.7851 14.0802 11.7436L14.0803 11.7425C13.2135 11.334 11.9784 11.0023 10.6743 11.0001C10.6733 11.0001 10.6723 11 10.6714 11C10.6709 11 10.6704 11 10.67 11V11Z"
    fill="#005CE5"
  />
<path
    fill-rule="evenodd"
    clip-rule="evenodd"
    d="M10.6714 14.0735L9.84208 15.6931L9.30596 14.9965L7.90506 16.8481C7.93038 16.963 7.96011 17.0739 7.99258 17.1822C8.14904 17.4463 8.4497 17.7478 8.83532 17.7478C9.14133 17.7478 9.44733 17.503 9.75334 17.503C10.0593 17.503 10.3654 17.7478 10.6714 17.7478C10.9774 17.7478 11.2834 17.503 11.5894 17.503C11.8954 17.503 12.2014 17.7478 12.5074 17.7478C12.8895 17.7478 13.1882 17.4519 13.3459 17.1896C13.3795 17.0784 13.4097 16.9638 13.4358 16.8456L12.0368 14.9965L11.5006 15.6931L10.6714 14.0735ZM9.75334 17.7478C9.44733 17.7478 9.14133 17.9926 8.83532 17.9926C8.59313 17.9926 8.38508 17.9069 8.22392 17.7852C8.28083 17.906 8.34103 18.0234 8.40691 18.1346C8.53316 18.2132 8.67663 18.2662 8.83532 18.2662C9.14133 18.2662 9.44733 18.0214 9.75334 18.0214C10.0593 18.0214 10.3654 18.2662 10.6714 18.2662C10.9774 18.2662 11.2834 18.0214 11.5894 18.0214C11.8954 18.0214 12.2014 18.2662 12.5074 18.2662C12.6638 18.2662 12.8053 18.2143 12.9303 18.1377C12.9961 18.0269 13.0563 17.9098 13.1133 17.7894C12.9529 17.9089 12.7468 17.9926 12.5074 17.9926C12.2014 17.9926 11.8954 17.7478 11.5894 17.7478C11.2834 17.7478 10.9774 17.9926 10.6714 17.9926C10.3654 17.9926 10.0593 17.7478 9.75334 17.7478V17.7478ZM9.75334 18.2662C9.44733 18.2662 9.14133 18.5111 8.83532 18.5111C8.76884 18.5111 8.70561 18.5033 8.64437 18.4915C9.17378 19.1988 9.89605 19.6723 10.6707 19.9446C11.4438 19.6728 12.165 19.1989 12.6941 18.4927C12.6342 18.504 12.5723 18.5111 12.5074 18.5111C12.2014 18.5111 11.8954 18.2662 11.5894 18.2662C11.2834 18.2662 10.9774 18.5111 10.6714 18.5111C10.3654 18.5111 10.0593 18.2662 9.75334 18.2662V18.2662Z"
    fill="white"
  />
<path
    fill-rule="evenodd"
    clip-rule="evenodd"
    d="M9.5309 11.5771H10.1313L9.83108 12.0971"
    fill="#FFE500"
  />
<path
    fill-rule="evenodd"
    clip-rule="evenodd"
    d="M9.5309 11.9242H10.1313L9.83108 11.4043"
    fill="#FFE500"
  />
<path
    fill-rule="evenodd"
    clip-rule="evenodd"
    d="M11.211 11.5771H11.8113L11.5111 12.0971"
    fill="#FFE500"
  />
<path
    fill-rule="evenodd"
    clip-rule="evenodd"
    d="M11.211 11.9242H11.8113L11.5111 11.4043"
    fill="#FFE500"
  />
<path
    fill-rule="evenodd"
    clip-rule="evenodd"
    d="M10.3717 12.8688H10.972L10.6718 13.3887"
    fill="#FFE500"
  />
<path
    fill-rule="evenodd"
    clip-rule="evenodd"
    d="M10.3717 13.2167H10.972L10.6718 12.6968"
    fill="#FFE500"
  />
<path
    fill-rule="evenodd"
    clip-rule="evenodd"
    d="M10.6702 11C10.6043 11.0001 10.5387 11.0015 10.4732 11.0034C10.5387 11.0017 10.6043 11.0001 10.6702 11ZM7.26252 11.7436C7.17231 11.7813 7.08402 11.8191 7 11.8569L7.28348 16.2977C7.4799 18.6184 8.99198 19.9694 10.6721 20.5C12.3523 19.9694 13.8643 18.6184 14.0607 16.2977L14.3427 11.871C14.2585 11.8274 14.1702 11.7851 14.0801 11.7436L13.8171 16.1507C13.6347 18.4069 12.2311 19.7205 10.6714 20.2363C9.11167 19.7205 7.70793 18.4069 7.5256 16.1507L7.26252 11.7436Z"
    fill="#FF0000"
  />
<defs>
<clipPath id="clip0_1_1080025">
<rect x="1" y="7.5" width="38" height="25" fill="white" />
</clipPath>
</defs>
</svg>
