<svg
  width="40"
  height="40"
  viewBox="0 0 40 40"
  fill="none"
  xmlns="http://www.w3.org/2000/svg"
>
<g clip-path="url(#clip0_1_1082010)">
<path
      fill-rule="evenodd"
      clip-rule="evenodd"
      d="M1 39H39V1H1V39Z"
      fill="#EA3323"
    />
<path
      fill-rule="evenodd"
      clip-rule="evenodd"
      d="M1 27H39V1H1V27Z"
      fill="#005CE5"
    />
<path
      fill-rule="evenodd"
      clip-rule="evenodd"
      d="M1 13H39V1H1V13Z"
      fill="#FFFFFE"
    />
</g>
<rect
    x="1.25"
    y="1.25"
    width="37.5"
    height="37.5"
    stroke="#D5D5D4"
    stroke-width="0.5"
  />
<path
    fill-rule="evenodd"
    clip-rule="evenodd"
    d="M13.4979 6C13.4024 6.00015 13.3071 6.00211 13.2121 6.00487C11.3638 6.05278 9.62867 6.53012 8.39314 7.11227L8.39327 7.11394C8.25817 7.17041 8.12583 7.22702 8 7.28364L8.42468 13.9363C8.71893 17.4128 10.9843 19.4369 13.5013 20.2317C16.0182 19.4369 18.2834 17.4128 18.5777 13.9363L19 7.30476C18.8739 7.23949 18.7417 7.17621 18.6067 7.11394L18.6069 7.11227C17.3083 6.50041 15.458 6.00343 13.5043 6.00014C13.5029 6.00014 13.5014 6 13.5 6C13.4993 6 13.4986 6 13.4979 6V6Z"
    fill="#005CE5"
  />
<path
    fill-rule="evenodd"
    clip-rule="evenodd"
    d="M13.5 10.6038L12.2577 13.03L11.4545 11.9865L9.35587 14.7603C9.39379 14.9325 9.43834 15.0986 9.48697 15.2609C9.72136 15.6565 10.1718 16.1082 10.7495 16.1082C11.2079 16.1082 11.6663 15.7414 12.1247 15.7414C12.5832 15.7414 13.0416 16.1082 13.5 16.1082C13.9584 16.1082 14.4168 15.7414 14.8753 15.7414C15.3337 15.7414 15.7921 16.1082 16.2505 16.1082C16.823 16.1082 17.2704 15.6649 17.5066 15.2719C17.557 15.1053 17.6023 14.9337 17.6414 14.7566L15.5455 11.9865L14.7423 13.03L13.5 10.6038ZM12.1247 16.1082C11.6663 16.1082 11.2079 16.475 10.7495 16.475C10.3867 16.475 10.075 16.3464 9.83354 16.1641C9.9188 16.3451 10.009 16.5211 10.1077 16.6877C10.2968 16.8053 10.5117 16.8848 10.7495 16.8848C11.2079 16.8848 11.6663 16.5181 12.1247 16.5181C12.5832 16.5181 13.0416 16.8848 13.5 16.8848C13.9584 16.8848 14.4168 16.5181 14.8753 16.5181C15.3337 16.5181 15.7921 16.8848 16.2505 16.8848C16.4849 16.8848 16.6968 16.8071 16.8841 16.6923C16.9827 16.5262 17.0728 16.3508 17.1582 16.1705C16.9179 16.3495 16.6091 16.475 16.2505 16.475C15.7921 16.475 15.3337 16.1082 14.8753 16.1082C14.4168 16.1082 13.9584 16.475 13.5 16.475C13.0416 16.475 12.5832 16.1082 12.1247 16.1082V16.1082ZM12.1247 16.8848C11.6663 16.8848 11.2079 17.2516 10.7495 17.2516C10.6499 17.2516 10.5552 17.2399 10.4634 17.2223C11.2565 18.2819 12.3385 18.9912 13.4991 19.3991C14.6572 18.9919 15.7375 18.2821 16.5302 17.2241C16.4404 17.241 16.3477 17.2516 16.2505 17.2516C15.7921 17.2516 15.3337 16.8848 14.8753 16.8848C14.4168 16.8848 13.9584 17.2516 13.5 17.2516C13.0416 17.2516 12.5832 16.8848 12.1247 16.8848V16.8848Z"
    fill="white"
  />
<path
    fill-rule="evenodd"
    clip-rule="evenodd"
    d="M11.7916 6.86475H12.6909L12.2413 7.6436"
    fill="#FFE500"
  />
<path
    fill-rule="evenodd"
    clip-rule="evenodd"
    d="M11.7916 7.3844H12.6909L12.2413 6.60555"
    fill="#FFE500"
  />
<path
    fill-rule="evenodd"
    clip-rule="evenodd"
    d="M14.3083 6.86475H15.2077L14.758 7.6436"
    fill="#FFE500"
  />
<path
    fill-rule="evenodd"
    clip-rule="evenodd"
    d="M14.3083 7.3844H15.2077L14.758 6.60555"
    fill="#FFE500"
  />
<path
    fill-rule="evenodd"
    clip-rule="evenodd"
    d="M13.0511 8.79968H13.9505L13.5008 9.57853"
    fill="#FFE500"
  />
<path
    fill-rule="evenodd"
    clip-rule="evenodd"
    d="M13.0511 9.32007H13.9505L13.5008 8.54122"
    fill="#FFE500"
  />
<path
    fill-rule="evenodd"
    clip-rule="evenodd"
    d="M13.4982 6C13.3996 6.00014 13.3013 6.00221 13.2032 6.00514C13.3013 6.00253 13.3995 6.00015 13.4982 6ZM8.39327 7.11394C8.25813 7.17043 8.12587 7.22701 8 7.28364L8.42468 13.9364C8.71893 17.4129 10.9841 19.4369 13.5011 20.2317C16.0181 19.4369 18.2833 17.4129 18.5775 13.9364L18.9999 7.30476C18.8738 7.23948 18.7416 7.17621 18.6066 7.11394L18.2125 13.7161C17.9393 17.0961 15.8366 19.064 13.5 19.8367C11.1634 19.064 9.06054 17.0961 8.78738 13.7161L8.39327 7.11394Z"
    fill="#FF0000"
  />
<defs>
<clipPath id="clip0_1_1082010">
<rect x="1" y="1" width="38" height="38" fill="white" />
</clipPath>
</defs>
</svg>
