<?xml version="1.0" encoding="utf-8" ?>
<!-- Generator: Adobe Illustrator 27.2.0, SVG Export Plug-In . SVG Version: 6.00 Build 0)  -->
<svg
  version="1.2"
  baseProfile="tiny"
  id="Layer_1"
  xmlns="http://www.w3.org/2000/svg"
  xmlns:xlink="http://www.w3.org/1999/xlink"
  width="40px"
  height="40px"
  viewBox="0 0 40 40"
  overflow="visible"
  xml:space="preserve"
>
<rect x="1" y="26.9" fill="#FF0000" width="38" height="12" />
<rect x="1" y="12.9" fill="#0000FF" width="38" height="14" />
<rect x="1" y="0.9" fill="#FFFFFE" width="38" height="12" />
<path
    fill="#0000FF"
    d="M8.4,7c3.3-1.4,7-1.4,10.2,0c0.5,7.6-1.2,11.8-5.1,12.8C9.6,18.8,7.9,14.5,8.4,7z"
  />
<path
    id="a"
    fill="#FFFF00"
    d="M13.5,8.3l0.2,0.4l0.4,0L13.8,9L14,9.3l-0.4,0l-0.2,0.4l-0.2-0.4l-0.4,0L13.2,9L13,8.6l0.4,0"
  />
<path
    id="a_00000173137108238533814910000000805527287043349133_"
    fill="#FFFF00"
    d="M12.1,6.4l0.2,0.4l0.4,0L12.4,7l0.2,0.3l-0.4,0
	l-0.2,0.4l-0.2-0.4l-0.4,0L11.8,7l-0.2-0.3l0.4,0"
  />
<path
    id="a_00000147918388731411904030000013765811465261437365_"
    fill="#FFFF00"
    d="M15,6.4l0.2,0.4l0.4,0L15.3,7l0.2,0.3l-0.4,0
	L15,7.7l-0.2-0.4l-0.4,0L14.6,7l-0.2-0.3l0.4,0"
  />
<path
    fill="#FFFFFF"
    d="M13.5,10.3l1.2,2.5l0.8-1.1l2.1,2.8c0,0.1,0,0.3-0.1,0.4c-0.6,2-2.1,3.6-4.1,4.3c-2-0.7-3.5-2.3-4.1-4.3
	c0-0.1-0.1-0.2-0.1-0.4l2.1-2.8l0.8,1.1L13.5,10.3z"
  />
<path
    id="b"
    fill="#0000FF"
    d="M9.4,14.8c0.2,0.7,1,1.2,1.7,0.9c0.1,0,0.2-0.1,0.3-0.1c0.4-0.2,0.9-0.2,1.4,0c0.4,0.2,0.9,0.2,1.4,0
	c0.4-0.2,0.9-0.2,1.4,0c0.7,0.4,1.5,0.2,1.9-0.5c0.1-0.1,0.1-0.2,0.1-0.3l0.1,0v1c-0.2,0-0.5,0.1-0.7,0.2c-0.4,0.2-0.9,0.2-1.4,0
	c-0.4-0.2-0.9-0.2-1.4,0c-0.4,0.2-0.9,0.2-1.4,0c-0.4-0.2-0.9-0.2-1.4,0c-0.4,0.2-0.9,0.2-1.4,0c-0.2-0.1-0.4-0.2-0.7-0.2L9.4,14.8"
  />
<path
    id="b_00000147898553325226282380000006459646569277429430_"
    fill="#0000FF"
    d="M9.4,15.6c0.2,0.7,1,1.2,1.7,0.9
	c0.1,0,0.2-0.1,0.3-0.1c0.4-0.2,0.9-0.2,1.4,0c0.4,0.2,0.9,0.2,1.4,0c0.4-0.2,0.9-0.2,1.4,0c0.7,0.4,1.5,0.2,1.9-0.5
	c0.1-0.1,0.1-0.2,0.1-0.3l0.1,0v1c-0.2,0-0.5,0.1-0.7,0.2c-0.4,0.2-0.9,0.2-1.4,0c-0.4-0.2-0.9-0.2-1.4,0c-0.4,0.2-0.9,0.2-1.4,0
	c-0.4-0.2-0.9-0.2-1.4,0c-0.4,0.2-0.9,0.2-1.4,0c-0.2-0.1-0.4-0.2-0.7-0.2L9.4,15.6"
  />
<path
    fill="#FF0000"
    d="M8,7.2C8.1,7.1,8.3,7,8.4,7l0.4,6.5c0.2,2.8,2,5.2,4.7,6c2.7-0.9,4.5-3.2,4.7-6L18.6,7
	C18.8,7,18.9,7.1,19,7.2l-0.4,6.4c-0.2,3-2.2,5.6-5.1,6.4c-2.9-0.9-4.9-3.4-5.1-6.4L8,7.2z"
  />
</svg>
