<?xml version="1.0" encoding="utf-8"?>
<!-- Generator: Adobe Illustrator 19.2.0, SVG Export Plug-In . SVG Version: 6.00 Build 0)  -->
<svg version="1.1" id="Layer_1" xmlns:sketch="http://www.bohemiancoding.com/sketch/ns"
	 xmlns="http://www.w3.org/2000/svg" xmlns:xlink="http://www.w3.org/1999/xlink" x="0px" y="0px" viewBox="0 0 40 40"
	 style="enable-background:new 0 0 40 40;" xml:space="preserve">
<style type="text/css">
	.st0{fill:#FFFFFF;}
</style>
<title>gplus copy</title>
<desc>Created with Sketch.</desc>
<g id="Icon" sketch:type="MSPage">
	<g id="Social-media-Icons" transform="translate(-77.000000, -137.000000)" sketch:type="MSArtboardGroup">
		<g id="gplus-copy" transform="translate(77.003685, 137.000000)" sketch:type="MSLayerGroup">
			<path id="bg" sketch:type="MSShapeGroup" d="M0,0v40h40V0H0L0,0z"/>
			<path id="icon" sketch:type="MSShapeGroup" class="st0" d="M20.7,21.6c-0.6-0.4-1.7-1.5-1.7-2c0-0.7,0.2-1,1.3-1.9
				c1.2-0.8,1.9-2,1.9-3.5c0-1.6-0.7-3.3-2.1-3.7h2.1l1.5-1.2h-6.6c-3,0-5.7,2.2-5.7,4.9s2,4.8,5,4.8H17c-0.2,0.4-0.4,0.7-0.4,1.3
				c0,0.7,0.4,1.4,0.8,1.9h-1.2c-3.6,0-6.5,2.3-6.5,4.8s3.1,3.8,6.8,3.8c4.1,0,6.5-2.3,6.5-4.8C23,24.1,22.4,22.9,20.7,21.6
				L20.7,21.6z M17.2,18.4c-1.7,0-3.3-1.9-3.6-4.1c-0.2-2.2,0.8-3.8,2.5-3.8s3.3,1.9,3.6,4.1C20.1,16.6,18.9,18.4,17.2,18.4
				L17.2,18.4z M16.6,29.7c-2.5,0-4.4-1.6-4.4-3.5s2.2-3.5,4.8-3.4c0.6,0,1.2,0.1,1.6,0.2c1.4,1,2.3,1.5,2.7,2.7
				c0,0.2,0.1,0.5,0.1,0.6C21.3,28.1,20.1,29.7,16.6,29.7z M27.8,16h-2.1v2.5h-2.5v2.1h2.5v2.4h2.1v-2.4h2.4v-2.1h-2.4V16z"/>
		</g>
	</g>
</g>
</svg>
