<?xml version="1.0" encoding="UTF-8" standalone="no"?>
<svg width="40px" height="40px" viewBox="0 0 40 40" version="1.1" xmlns="http://www.w3.org/2000/svg" xmlns:xlink="http://www.w3.org/1999/xlink" xmlns:sketch="http://www.bohemiancoding.com/sketch/ns">
    <!-- Generator: Sketch 3.5.2 (25235) - http://www.bohemiancoding.com/sketch -->
    <title>xerpi</title>
    <desc>Created with Sketch.</desc>
    <defs></defs>
    <g id="Icon" stroke="none" stroke-width="1" fill="none" fill-rule="evenodd" sketch:type="MSPage">
        <g id="Social-media-Icons" sketch:type="MSArtboardGroup" transform="translate(-37.000000, -1536.000000)">
            <g id="xerpi" sketch:type="MSLayerGroup" transform="translate(37.000000, 1536.000000)">
                <rect id="bg" fill="#660066" sketch:type="MSShapeGroup" x="0" y="0" width="40" height="40"></rect>
                <path d="M24.2753333,9.28 C22.57125,9.28 21.0083333,10.259052 20,11.8701503 C18.9916667,10.259052 17.42875,9.28 15.7246667,9.28 C12.7450417,9.28 10.32,12.2729249 10.32,15.9536647 C10.32,17.6824971 10.8544167,19.324578 11.8274583,20.5762775 L19.4504583,30.0383815 L20,30.72 L20.5495417,30.0383815 L28.0263333,20.7559769 C29.0850833,19.4980809 29.68,17.7878382 29.68,15.9536647 C29.68,12.2729249 27.2549583,9.28 24.2753333,9.28 L24.2753333,9.28 L24.2753333,9.28 Z" id="icon" fill="#BDC60A" sketch:type="MSShapeGroup"></path>
            </g>
        </g>
    </g>
</svg>