<?xml version="1.0" encoding="utf-8"?>
<!-- Generator: Adobe Illustrator 19.2.0, SVG Export Plug-In . SVG Version: 6.00 Build 0)  -->
<svg version="1.1" id="Layer_1" xmlns:sketch="http://www.bohemiancoding.com/sketch/ns"
	 xmlns="http://www.w3.org/2000/svg" xmlns:xlink="http://www.w3.org/1999/xlink" x="0px" y="0px" viewBox="0 0 40 40"
	 style="enable-background:new 0 0 40 40;" xml:space="preserve">
<style type="text/css">
	.st0{fill:#00B285;}
	.st1{fill:#FFFFFF;}
</style>
<title>vine</title>
<desc>Created with Sketch.</desc>
<g id="Page-1" sketch:type="MSPage">
	<g id="vine" sketch:type="MSLayerGroup">
		<rect id="bg" sketch:type="MSShapeGroup" class="st0" width="40" height="40">
		</rect>
		<path id="icon" sketch:type="MSShapeGroup" class="st1" d="M11.2,19.2c-0.7-2.3-1.1-4.7-1.5-7.1c0-0.2,0-0.3,0.2-0.3
			c1.2,0,2.3,0,3.5,0c0.1,0,0.1,0.1,0.2,0.1c-0.4,0.1-0.8,0-1.2,0.1c-0.8,0-1.6,0-2.4,0c1.1,0,2.1,0,3.2,0c0.2,0,0.3,0.1,0.4-0.1
			c0.3,0.9,0.3,1.8,0.4,2.7c0.8,4.7,2.3,9,5.3,12.8c0.1,0.1,0.1,0.1,0.1,0.2c0.2,0.4,0.4,0.3,0.7,0c1.4-1.5,2.5-3.1,3.4-4.9
			c0.2-0.3,0.1-0.4-0.2-0.6c-2.1-1.2-3.2-3.1-3.7-5.4c-0.3-1.6-0.4-3.2,0.2-4.8c0.9-2.6,3.3-3.9,6.1-3.4c2.5,0.5,3.9,2.2,4.1,4.9
			c0.1,1.4-0.1,2.8-0.6,4.1c-0.2,0.5-0.4,0.6-0.9,0.6c-0.9,0-1.7-0.2-2.4-0.8c-0.2-0.2-0.3-0.4-0.2-0.8c0.3-1.1,0.5-2.3,0.2-3.5
			c-0.2-0.8-0.7-1.2-1.3-1.2c-0.6,0-1.2,0.4-1.5,1.1c-1.2,2.9,0.9,6.6,3.9,7.1c0.8,0.1,1.6,0.1,2.4,0c0.3-0.1,0.4,0,0.4,0.3
			c0,0.7,0,1.4,0,2.1c0,0.3-0.1,0.4-0.4,0.4c-0.6,0.1-1.3,0.2-1.9,0.2c-0.4,0-0.6,0.2-0.7,0.5c-1.4,2.7-3.2,5.1-5.4,7.1
			c-1.6,1.4-2.6,1.4-4.2,0c-2-1.7-3.3-3.9-4.5-6.3c-0.7-1.4-1.2-2.8-1.6-4.3C11.4,19.8,11.4,19.5,11.2,19.2L11.2,19.2z"/>
	</g>
</g>
</svg>
