<?xml version="1.0" encoding="UTF-8" standalone="no"?>
<svg viewBox="0 0 40 40" version="1.1" xmlns="http://www.w3.org/2000/svg" xmlns:xlink="http://www.w3.org/1999/xlink" xmlns:sketch="http://www.bohemiancoding.com/sketch/ns">
    <!-- Generator: Sketch 3.5.2 (25235) - http://www.bohemiancoding.com/sketch -->
    <title>youtube</title>
    <desc>Created with Sketch.</desc>
    <defs></defs>
    <g id="Icon" stroke="none" stroke-width="1" fill="none" fill-rule="evenodd" sketch:type="MSPage">
        <g id="Social-media-Icons" sketch:type="MSArtboardGroup" transform="translate(-37.000000, -1816.000000)">
            <g id="youtube" sketch:type="MSLayerGroup" transform="translate(37.000000, 1816.000000)">
                <rect id="bg" fill="#E9654B" sketch:type="MSShapeGroup" x="0" y="0" width="40" height="40"></rect>
                <path d="M28.2314325,18.4812123 L28.2402231,18.4814842 L28.4724953,18.4814842 C30.1094569,18.4814842 31.4412836,19.7956844 31.4412836,21.4108959 L31.4412836,21.4279335 L31.4434586,21.4450163 C31.5513478,22.8588135 31.6041823,24.3359123 31.5997417,25.8372081 C31.6041823,27.3407695 31.5513478,28.817823 31.4434586,30.2316202 L31.4412836,30.2486577 L31.4412836,30.2657406 C31.4412836,31.8809521 29.8868362,33.1951523 28.2501466,33.1951523 L28.454325,33.1951523 C25.8396996,33.3046274 22.8475753,33.3569181 20.0007231,33.3519791 C17.1521942,33.3569181 14.1600246,33.3046274 11.5453993,33.1951523 L11.7498495,33.1951523 C10.112888,33.1951523 8.55821403,31.8809521 8.55821403,30.2657406 L8.55821403,30.2486577 L8.55685465,30.2316202 C8.44869357,28.8189105 8.39585913,27.3412679 8.40025445,25.8393831 C8.39585913,24.335867 8.4484217,22.8582244 8.55685465,21.4450163 L8.55821403,21.4279335 L8.55821403,21.4108959 C8.55821403,19.7956844 10.112888,18.4814842 11.7498495,18.4814842 L11.5453993,18.4812123 C14.1594356,18.3719638 17.1518771,18.3194012 19.9990012,18.3246574 C22.8480737,18.3194012 25.6173962,18.3719638 28.2314325,18.4812123 L28.2314325,18.4812123 Z M27.123631,25.2626901 C27.123631,24.9390678 27.1731576,24.7079285 27.2727999,24.5681392 C27.3723969,24.42835 27.5358394,24.3579342 27.7647584,24.3579342 C27.9827118,24.3579342 28.1423027,24.42835 28.2413559,24.5681392 C28.3409529,24.7079285 28.3910686,24.9391132 28.3910686,25.2626901 L28.3910686,26.0430631 L27.123631,26.0430631 L27.123631,25.2626901 L27.123631,25.2626901 Z M29.8670347,27.2411725 L29.8670347,25.2770089 C29.8670347,24.5445314 29.69095,23.9831541 29.3387355,23.5929676 C28.986521,23.2022374 28.4824187,23.0074387 27.8258397,23.0074387 C27.1836248,23.0074387 26.6608085,23.2181874 26.2552158,23.6397755 C25.849623,24.0613182 25.6470759,24.6067002 25.6470759,25.2770089 L25.6470759,28.7397042 C25.6470759,29.4826489 25.8319965,30.0660028 26.2007501,30.4908534 C26.5700021,30.9146164 27.0757809,31.1269964 27.7174521,31.1269964 C28.4318046,31.1269964 28.9683506,30.9266696 29.3277246,30.526605 C29.6876422,30.1264951 29.8670347,29.5310427 29.8670347,28.7396588 L29.8670347,28.1607456 L28.3910686,28.1607456 L28.3910686,28.6967932 C28.3910686,29.1502813 28.343717,29.4441332 28.2490591,29.5767631 C28.1544011,29.709393 27.9881946,29.7759571 27.7498959,29.7759571 C27.5215206,29.7759571 27.3597547,29.6972945 27.2650515,29.5404224 C27.1703936,29.3835956 27.123631,29.1023859 27.123631,28.6967932 L27.123631,27.2411725 L29.8670347,27.2411725 L29.8670347,27.2411725 Z M23.0891365,29.1095 C23.0891365,29.3555472 23.0473131,29.5333083 22.9647989,29.6411069 C22.8822394,29.7495399 22.7523736,29.8040056 22.5773312,29.8040056 L22.2306448,29.7203586 L21.8911178,29.4495707 L21.8911178,24.6413643 L22.186601,24.4063734 L22.4898326,24.3304295 C22.6840876,24.3304295 22.8332112,24.3980812 22.9350285,24.5329314 C23.0373896,24.6677815 23.0890912,24.8653443 23.0890912,25.1262087 L23.0890912,29.1095 L23.0891365,29.1095 Z M23.1662132,23.1048154 C22.9438645,23.1048154 22.7242798,23.165942 22.5068701,23.2886484 C22.2895058,23.4113549 22.0842399,23.5902035 21.8910724,23.8257835 L21.8910724,20.4583353 L20.4425658,20.4583353 L20.4425658,30.9179243 L21.8910724,30.9179243 L21.8910724,30.3246922 C22.0798446,30.5596832 22.2834339,30.7341365 22.5036076,30.846421 C22.7231923,30.959204 22.9735895,31.01589 23.2537118,31.01589 C23.6785623,31.01589 24.0038159,30.8706179 24.2283396,30.5788957 C24.4529087,30.2877625 24.5651932,29.8678963 24.5651932,29.3197502 L24.5651932,25.0392539 C24.5651932,24.4085937 24.4452509,23.9286884 24.206363,23.5990395 C23.9675205,23.2693906 23.6207435,23.1048154 23.1662132,23.1048154 L23.1662132,23.1048154 Z M17.6084011,29.0588858 L17.1651083,29.474402 C17.0038409,29.582835 16.8707126,29.6367569 16.7650437,29.6367569 C16.6304654,29.6367569 16.5330887,29.5960209 16.4730949,29.5140052 C16.4131011,29.4319895 16.3828323,29.2999033 16.3828323,29.1172031 L16.3828323,23.2022374 L14.9484179,23.2022374 L14.9484179,29.6510304 C14.9484179,30.1105904 15.0326086,30.4550564 15.2007182,30.6851083 C15.3688731,30.9145711 15.6189531,31.0296197 15.9505505,31.0296197 C16.2196618,31.0296197 16.4972918,30.9471055 16.7832141,30.7836178 C17.0693629,30.6196317 17.3442742,30.3796563 17.6084464,30.0659575 L17.6084464,30.9178789 L19.043178,30.9178789 L19.043178,23.2022374 L17.6084011,23.2022374 L17.6084011,29.0588858 L17.6084011,29.0588858 Z M14.9681741,20.45829 L10.0099832,20.45829 L10.0099832,21.9766686 L11.6812916,21.9766686 L11.6812916,30.9178789 L13.2965032,30.9178789 L13.2965032,21.9766686 L14.9681741,21.9766686 L14.9681741,20.45829 L14.9681741,20.45829 Z M12.3353784,6.64770124 L13.9624619,6.64770124 L15.0108586,10.8286006 L15.1120868,10.8286006 L16.1117272,6.64770124 L17.7531294,6.64770124 L15.87293,12.7671172 L15.87293,17.1073355 L14.2574466,17.1073355 L14.2574466,12.9624597 L12.3353784,6.64770124 L12.3353784,6.64770124 Z M19.1561875,15.2997268 C19.1561875,15.5121521 19.2071189,15.6759117 19.3094799,15.7917306 C19.4115691,15.9075495 19.5574303,15.9650512 19.7469727,15.9650512 C19.9415448,15.9650512 20.0958794,15.9061448 20.2103843,15.7881509 C20.3243,15.6698398 20.3815298,15.5072131 20.3815298,15.2997268 L20.3815298,11.0976666 C20.3815298,10.9290132 20.3231672,10.7927583 20.2068046,10.6890379 C20.0901247,10.5855893 19.9368777,10.5335705 19.747018,10.5335705 C19.5720209,10.5335705 19.4297395,10.585544 19.3205362,10.6890379 C19.2110157,10.7927583 19.1562329,10.9290132 19.1562329,11.0976666 L19.1562329,15.2997268 L19.1561875,15.2997268 Z M17.6799496,11.1554401 C17.6799496,10.5578127 17.8731171,10.0823027 18.2591348,9.72786785 C18.6454697,9.37347832 19.1644344,9.19653277 19.8165728,9.19653277 C20.410122,9.19653277 20.896643,9.38335645 21.2752294,9.75673195 C21.6549487,10.1301528 21.8443099,10.6108737 21.8443099,11.1988948 L21.8443099,15.1840892 C21.8443099,15.8444745 21.6583018,16.3623517 21.2862857,16.7382647 C20.9148133,17.1141324 20.403008,17.3020436 19.7510962,17.3020436 C19.1237438,17.3020436 18.6212728,17.1080605 18.2448613,16.7203662 C17.868178,16.3324001 17.6799496,15.8106713 17.6799496,15.1551798 L17.6799496,11.1554401 L17.6799496,11.1554401 Z M27.1566185,9.39137678 L27.1566185,17.1073355 L25.7219322,17.1073355 L25.7219322,16.2553688 C25.45776,16.5693848 25.1826222,16.8084539 24.896428,16.9724853 C24.6102792,17.1364715 24.3328757,17.2187591 24.0643082,17.2187591 C23.7324843,17.2187591 23.4820418,17.1040277 23.314204,16.8739758 C23.1457772,16.644513 23.0616318,16.3000016 23.0616318,15.8404416 L23.0616318,9.39137678 L24.4969072,9.39137678 L24.4969072,15.3060706 C24.4969072,15.4890427 24.5265869,15.6214007 24.5865807,15.7031446 C24.6465292,15.7848884 24.7439966,15.8261682 24.8788014,15.8261682 C24.9844703,15.8261682 25.1176439,15.7719744 25.2783223,15.6635414 L25.7218869,15.2482971 L25.7218869,9.39137678 L27.1566185,9.39137678 L27.1566185,9.39137678 Z" id="icon" fill="#FFFFFF" sketch:type="MSShapeGroup"></path>
            </g>
        </g>
    </g>
</svg>