<?xml version="1.0" encoding="UTF-8"?>
<svg width="300px" height="190px" viewBox="0 0 300 190" version="1.1" xmlns="http://www.w3.org/2000/svg" xmlns:xlink="http://www.w3.org/1999/xlink">
    <!-- Generator: Sketch 55.1 (78136) - https://sketchapp.com -->
    <title>timeline</title>
    <desc>Created with Sketch.</desc>
    <g id="thumbnails---final" stroke="none" stroke-width="1" fill="none" fill-rule="evenodd">
        <g id="thumbnails---final_symbols" transform="translate(-580.000000, -1188.000000)">
            <g id="Group-2" transform="translate(20.000000, 20.000000)">
                <g id="Group" transform="translate(0.000000, 1095.000000)">
                    <g id="ec_comp_timeline" transform="translate(480.000000, 0.000000)">
                        <g id="timeline" transform="translate(81.000000, 73.000000)">
                            <g id="Group-4" stroke-width="1" fill-rule="evenodd">
                                <rect id="Rectangle" fill="#484848" x="3" y="0" width="4" height="143"></rect>
                                <g id="Group-2" transform="translate(0.000000, 10.000000)">
                                    <g id="list-copy" transform="translate(20.000000, 0.000000)">
                                        <g id="Group">
                                            <polygon id="Fill-8-Copy" fill="#CFCFCF" points="0 30 279 30 279 20 0 20"></polygon>
                                            <polygon id="Fill-8-Copy-2" fill="#484848" points="0 10 60 10 60 0 0 0"></polygon>
                                        </g>
                                    </g>
                                    <path d="M5,10 C7.76142375,10 10,7.76142375 10,5 C10,2.23857625 7.76142375,-5.07265313e-16 5,0 C2.23857625,5.07265313e-16 -3.38176876e-16,2.23857625 0,5 C3.38176876e-16,7.76142375 2.23857625,10 5,10 Z" id="Fill-10-Copy" stroke="#FFDD39" stroke-width="2" fill="#FFFFFF"></path>
                                </g>
                                <g id="Group-2-Copy" transform="translate(0.000000, 60.000000)">
                                    <g id="list-copy" transform="translate(20.000000, 0.000000)">
                                        <g id="Group">
                                            <polygon id="Fill-8-Copy" fill="#CFCFCF" points="0 30 279 30 279 20 0 20"></polygon>
                                            <polygon id="Fill-8-Copy-2" fill="#484848" points="0 10 60 10 60 5.68434189e-14 0 5.68434189e-14"></polygon>
                                        </g>
                                    </g>
                                    <path d="M5,10 C7.76142375,10 10,7.76142375 10,5 C10,2.23857625 7.76142375,-5.07265313e-16 5,0 C2.23857625,5.07265313e-16 -3.38176876e-16,2.23857625 0,5 C3.38176876e-16,7.76142375 2.23857625,10 5,10 Z" id="Fill-10-Copy" stroke="#FFDD39" stroke-width="2" fill="#FFFFFF"></path>
                                </g>
                                <g id="Group-2-Copy-2" transform="translate(0.000000, 110.000000)">
                                    <g id="list-copy" transform="translate(20.000000, 0.000000)">
                                        <g id="Group">
                                            <polygon id="Fill-8-Copy" fill="#CFCFCF" points="0 30 279 30 279 20 0 20"></polygon>
                                            <polygon id="Fill-8-Copy-2" fill="#484848" points="0 10 60 10 60 1.42108547e-14 0 1.42108547e-14"></polygon>
                                        </g>
                                    </g>
                                    <path d="M5,10 C7.76142375,10 10,7.76142375 10,5 C10,2.23857625 7.76142375,-5.07265313e-16 5,0 C2.23857625,5.07265313e-16 -3.38176876e-16,2.23857625 0,5 C3.38176876e-16,7.76142375 2.23857625,10 5,10 Z" id="Fill-10-Copy" stroke="#FFDD39" stroke-width="2" fill="#FFFFFF"></path>
                                </g>
                            </g>
                            <g id="Group-7-Copy" stroke-width="1" fill-rule="evenodd" transform="translate(20.000000, 160.000000)">
                                <rect id="Rectangle" stroke="#004494" stroke-width="2" fill="#FFFFFF" x="1" y="1" width="95" height="28"></rect>
                                <rect id="Rectangle" fill="#044695" x="10" y="10" width="53" height="10"></rect>
                                <g id="Group-11" transform="translate(73.000000, 11.000000)" fill="#044695" fill-rule="nonzero">
                                    <g id="Group-13">
                                        <path d="M4.18359212,-2.21091077 C4.23827949,-2.26559814 4.31119612,-2.29294183 4.4023416,-2.29294183 C4.49348708,-2.29294183 4.57551813,-2.26559814 4.64843476,-2.21091077 L10.3632649,3.53126304 C10.4361815,3.58595041 10.4726396,3.65886704 10.4726396,3.75001252 C10.4726396,3.84115799 10.4361815,3.91407463 10.3632649,3.968762 L4.64843476,9.7109358 C4.57551813,9.76562317 4.49348708,9.79296686 4.4023416,9.79296686 C4.31119612,9.79296686 4.23827949,9.76562317 4.18359212,9.7109358 L3.63671842,9.16406211 C3.56380179,9.10937474 3.52734368,9.03645811 3.52734368,8.94531263 C3.52734368,8.85416715 3.56380179,8.7721361 3.63671842,8.69921947 L8.58592537,3.75001252 L3.63671842,-1.19919443 C3.56380179,-1.27211107 3.52734368,-1.35414212 3.52734368,-1.4452876 C3.52734368,-1.53643307 3.56380179,-1.60934971 3.63671842,-1.66403707 L4.18359212,-2.21091077 Z" id="ï”" transform="translate(6.999992, 3.750013) rotate(-270.000000) translate(-6.999992, -3.750013) "></path>
                                    </g>
                                </g>
                            </g>
                            <path d="M5,123.5 L5,188" id="Line" stroke="#484848" stroke-width="4" stroke-linecap="square" stroke-dasharray="6"></path>
                        </g>
                    </g>
                </g>
            </g>
        </g>
    </g>
</svg>
