<?xml version="1.0" encoding="UTF-8"?>
<svg width="460px" height="345px" viewBox="0 0 460 345" version="1.1" xmlns="http://www.w3.org/2000/svg" xmlns:xlink="http://www.w3.org/1999/xlink">
    <title>eu_comp_timeline</title>
    <g id="thumbnails---final" stroke="none" stroke-width="1" fill="none" fill-rule="evenodd">
        <g id="EU-thumbnails---final_symbols" transform="translate(-500.000000, -1115.000000)">
            <g id="eu_comp_timeline" transform="translate(500.000000, 1115.000000)">
                <g id="Group" transform="translate(81.000000, 73.000000)">
                    <g id="Group-4" transform="translate(0.000000, 10.000000)">
                        <rect id="Rectangle" fill="#0E47CB" x="3" y="0" width="4" height="133"></rect>
                        <g id="Group-2">
                            <g id="Group" transform="translate(20.000000, 0.000000)">
                                <polygon id="Fill-8-Copy" fill="#CFCFCF" points="0 30 279 30 279 20 0 20"></polygon>
                                <polygon id="Fill-8-Copy-2" fill="#484848" points="0 10 60 10 60 0 0 0"></polygon>
                            </g>
                            <path d="M5,10 C7.76142375,10 10,7.76142375 10,5 C10,2.23857625 7.76142375,-5.07265313e-16 5,0 C2.23857625,5.07265313e-16 -3.38176876e-16,2.23857625 0,5 C3.38176876e-16,7.76142375 2.23857625,10 5,10 Z" id="Fill-10-Copy" stroke="#0E47CB" stroke-width="2" fill="#FFFFFF"></path>
                        </g>
                        <g id="Group-2-Copy" transform="translate(0.000000, 50.000000)">
                            <g id="Group" transform="translate(20.000000, 0.000000)">
                                <polygon id="Fill-8-Copy" fill="#CFCFCF" points="0 30 279 30 279 20 0 20"></polygon>
                                <polygon id="Fill-8-Copy-2" fill="#484848" points="0 10 60 10 60 5.68434189e-14 0 5.68434189e-14"></polygon>
                            </g>
                            <path d="M5,10 C7.76142375,10 10,7.76142375 10,5 C10,2.23857625 7.76142375,-5.07265313e-16 5,0 C2.23857625,5.07265313e-16 -3.38176876e-16,2.23857625 0,5 C3.38176876e-16,7.76142375 2.23857625,10 5,10 Z" id="Fill-10-Copy" stroke="#0E47CB" stroke-width="2" fill="#FFFFFF"></path>
                        </g>
                        <g id="Group-2-Copy-2" transform="translate(0.000000, 100.000000)">
                            <g id="Group" transform="translate(20.000000, 0.000000)">
                                <polygon id="Fill-8-Copy" fill="#CFCFCF" points="0 30 279 30 279 20 0 20"></polygon>
                                <polygon id="Fill-8-Copy-2" fill="#484848" points="0 10 60 10 60 1.42108547e-14 0 1.42108547e-14"></polygon>
                            </g>
                            <path d="M5,10 C7.76142375,10 10,7.76142375 10,5 C10,2.23857625 7.76142375,-5.07265313e-16 5,0 C2.23857625,5.07265313e-16 -3.38176876e-16,2.23857625 0,5 C3.38176876e-16,7.76142375 2.23857625,10 5,10 Z" id="Fill-10-Copy" stroke="#0E47CB" stroke-width="2" fill="#FFFFFF"></path>
                        </g>
                    </g>
                    <g id="Group-7-Copy" transform="translate(20.000000, 160.000000)">
                        <rect id="Rectangle" stroke="#0E47CB" stroke-width="2" fill="#FFFFFF" x="1" y="1" width="118" height="28" rx="4"></rect>
                        <rect id="Rectangle" fill="#0E47CB" x="10" y="10" width="80" height="10"></rect>
                        <g id="Group-11" transform="translate(98.457037, 11.277365)" fill="#0E47CB" fill-rule="nonzero">
                            <g id="Group-13">
                                <path d="M3.22655481,-2.48827532 C3.28124218,-2.54296269 3.35415881,-2.57030637 3.44530429,-2.57030637 C3.53644976,-2.57030637 3.61848082,-2.54296269 3.69139745,-2.48827532 L9.40622757,3.25389849 C9.47914421,3.30858586 9.51560231,3.38150249 9.51560231,3.47264797 C9.51560231,3.56379345 9.47914421,3.63671008 9.40622757,3.69139745 L3.69139745,9.43357126 C3.61848082,9.48825863 3.53644976,9.51560231 3.44530429,9.51560231 C3.35415881,9.51560231 3.28124218,9.48825863 3.22655481,9.43357126 L2.67968111,8.88669756 C2.60676448,8.83201019 2.57030637,8.75909356 2.57030637,8.66794808 C2.57030637,8.57680261 2.60676448,8.49477155 2.67968111,8.42185492 L7.62888806,3.47264797 L2.67968111,-1.47655898 C2.60676448,-1.54947561 2.57030637,-1.63150667 2.57030637,-1.72265214 C2.57030637,-1.81379762 2.60676448,-1.88671425 2.67968111,-1.94140162 L3.22655481,-2.48827532 Z" id="ï”" transform="translate(6.042954, 3.472648) scale(1, -1) rotate(-90.000000) translate(-6.042954, -3.472648) "></path>
                            </g>
                        </g>
                    </g>
                    <line x1="5" y1="123.5" x2="5" y2="188" id="Line" stroke="#0E47CB" stroke-width="4" stroke-linecap="square" stroke-dasharray="6"></line>
                </g>
            </g>
        </g>
    </g>
</svg>