<svg width="920" height="690" viewBox="0 0 920 690" fill="none" xmlns="http://www.w3.org/2000/svg">
<g id="ec_comp_carousel">
<g id="thumb-back">
<rect id="Rectangle" x="0.5" y="0.5" width="919" height="689" fill="white" stroke="white"/>
</g>
<g id="Group 3">
<rect id="Rectangle_2" x="80" y="470" width="760" height="38" fill="#044695"/>
<g id="Group 2">
<path id="Fill 8 Copy 3" fill-rule="evenodd" clip-rule="evenodd" d="M234 498H308V482H234V498Z" fill="white"/>
<g id="Group">
<circle id="Oval" cx="208" cy="490" r="10" stroke="white"/>
<path id="&#239;&#129;&#139;" d="M212.131 489.361C212.298 489.455 212.41 489.585 212.467 489.752C212.524 489.919 212.524 490.086 212.467 490.252C212.41 490.419 212.298 490.549 212.131 490.643L206.629 493.894C206.473 493.988 206.306 494.02 206.129 493.988C205.952 493.957 205.803 493.874 205.683 493.738C205.563 493.603 205.503 493.441 205.503 493.254V486.751C205.503 486.543 205.566 486.373 205.691 486.243C205.816 486.113 205.967 486.035 206.144 486.008C206.321 485.982 206.483 486.016 206.629 486.11L212.131 489.361Z" fill="white"/>
</g>
</g>
</g>
<g id="banner copy">
<g id="gallery">
<g id="&#239;&#128;&#176;">
<rect id="Mask" x="80" y="218" width="760" height="253.333" fill="#BED0E4"/>
<mask id="mask0_0_54" style="mask-type:alpha" maskUnits="userSpaceOnUse" x="80" y="218" width="760" height="254">
<rect id="Mask_2" x="80" y="218" width="760" height="253.333" fill="white"/>
</mask>
<g mask="url(#mask0_0_54)">
<path id="&#239;&#128;&#176;_2" fill-rule="evenodd" clip-rule="evenodd" d="M709.436 340.769V621.385C709.436 634.376 704.907 645.419 695.848 654.513C686.79 663.607 675.79 668.154 662.849 668.154H259.099C246.159 668.154 235.159 663.607 226.101 654.513C217.042 645.419 212.513 634.376 212.513 621.385V340.769C212.513 327.778 217.042 316.735 226.101 307.641C235.159 298.547 246.159 294 259.099 294H344.508L356.155 261.846C360.037 252.752 365.86 245.445 373.625 239.923C381.389 234.402 390.124 231.641 399.83 231.641H522.119C531.825 231.641 540.56 234.402 548.324 239.923C556.089 245.445 561.912 252.752 565.794 261.846L577.441 294H662.849C675.79 294 686.79 298.547 695.848 307.641C704.907 316.735 709.436 327.778 709.436 340.769ZM576.923 483.026C576.923 461.59 571.813 441.94 561.593 424.077C551.373 406.214 537.48 392.086 519.915 381.692C502.349 371.299 483.027 366.103 461.949 366.103C440.87 366.103 421.548 371.299 403.982 381.692C386.417 392.086 372.524 406.214 362.304 424.077C352.084 441.94 346.974 461.59 346.974 483.026C346.974 504.462 352.084 524.111 362.304 541.974C372.524 559.838 386.417 573.966 403.982 584.359C421.548 594.752 440.87 599.949 461.949 599.949C483.027 599.949 502.349 594.752 519.915 584.359C537.48 573.966 551.373 559.838 561.593 541.974C571.813 524.111 576.923 504.462 576.923 483.026ZM522.071 541.199C539.152 524.119 547.692 503.753 547.692 480.103C547.692 456.452 539.152 436.087 522.071 419.006C504.99 401.925 484.625 393.385 460.974 393.385C437.324 393.385 416.958 401.925 399.878 419.006C382.797 436.087 374.256 456.452 374.256 480.103C374.256 503.753 382.797 524.119 399.878 541.199C416.958 558.28 437.324 566.821 460.974 566.821C484.625 566.821 504.99 558.28 522.071 541.199Z" fill="#C6D9EE"/>
</g>
</g>
</g>
<g id="Group 2_2">
<rect id="Rectangle Copy 5" x="407.385" y="393.385" width="107.179" height="38.9744" fill="#FFDE39"/>
<rect id="Rectangle Copy 4" x="323.59" y="295.949" width="272.821" height="19.4872" fill="#404040"/>
<rect id="Rectangle Copy 6" x="265.128" y="334.923" width="389.744" height="19.4872" fill="#404040"/>
</g>
</g>
<rect id="Rectangle_3" x="800" y="336" width="40" height="40" fill="#044695"/>
<path id="&#239;&#129;&#148;" d="M815.134 346.136C815.228 346.045 815.354 346 815.512 346C815.669 346 815.811 346.045 815.937 346.136L825.811 355.638C825.937 355.729 826 355.849 826 356C826 356.151 825.937 356.271 825.811 356.362L815.937 365.864C815.811 365.955 815.669 366 815.512 366C815.354 366 815.228 365.955 815.134 365.864L814.189 364.959C814.063 364.869 814 364.748 814 364.597C814 364.446 814.063 364.311 814.189 364.19L822.74 356L814.189 347.81C814.063 347.689 814 347.554 814 347.403C814 347.252 814.063 347.131 814.189 347.041L815.134 346.136Z" fill="white"/>
<rect id="Rectangle_4" x="80" y="336" width="40" height="40" fill="#044695"/>
<path id="&#239;&#129;&#148; copy" d="M104.866 346.136C104.772 346.045 104.646 346 104.488 346C104.331 346 104.189 346.045 104.063 346.136L94.189 355.638C94.063 355.729 94 355.849 94 356C94 356.151 94.063 356.271 94.189 356.362L104.063 365.864C104.189 365.955 104.331 366 104.488 366C104.646 366 104.772 365.955 104.866 365.864L105.811 364.959C105.937 364.869 106 364.748 106 364.597C106 364.446 105.937 364.311 105.811 364.19L97.2598 356L105.811 347.81C105.937 347.689 106 347.554 106 347.403C106 347.252 105.937 347.131 105.811 347.041L104.866 346.136Z" fill="white"/>
</g>
</svg>
