<?xml version="1.0" encoding="UTF-8"?>
<svg width="460px" height="345px" viewBox="0 0 460 345" version="1.1" xmlns="http://www.w3.org/2000/svg" xmlns:xlink="http://www.w3.org/1999/xlink">
    <title>eu_comp_table</title>
    <g id="thumbnails---final" stroke="none" stroke-width="1" fill="none" fill-rule="evenodd">
        <g id="EU-thumbnails---final_symbols" transform="translate(-20.000000, -3670.000000)">
            <g id="eu_comp_table" transform="translate(20.000000, 3670.000000)">
                <g id="Group" transform="translate(30.000000, 52.000000)">
                    <rect id="Rectangle" fill="#F3F6FC" x="0" y="20" width="400" height="221"></rect>
                    <polygon id="Fill-8" fill-opacity="0.2" fill="#0E47CB" points="0 51 400 51 400 50 0 50"></polygon>
                    <polygon id="Fill-8" fill-opacity="0.2" fill="#0E47CB" points="0 82 400 82 400 81 0 81"></polygon>
                    <polygon id="Fill-8" fill-opacity="0.2" fill="#0E47CB" points="0 113 400 113 400 112 0 112"></polygon>
                    <polygon id="Fill-8" fill-opacity="0.2" fill="#0E47CB" points="0 144 400 144 400 143 0 143"></polygon>
                    <polygon id="Fill-8" fill-opacity="0.2" fill="#0E47CB" points="0 175 400 175 400 174 0 174"></polygon>
                    <polygon id="Fill-8" fill-opacity="0.2" fill="#0E47CB" points="0 206 400 206 400 205 0 205"></polygon>
                    <polygon id="Fill-8" fill="#CFCFCF" points="24 40 109 40 109 30 24 30"></polygon>
                    <polygon id="Fill-8" fill="#CFCFCF" points="24 71 109 71 109 61 24 61"></polygon>
                    <polygon id="Fill-8" fill="#CFCFCF" points="24 102 109 102 109 92 24 92"></polygon>
                    <polygon id="Fill-8" fill="#CFCFCF" points="24 133 109 133 109 123 24 123"></polygon>
                    <polygon id="Fill-8" fill="#CFCFCF" points="24 164 109 164 109 154 24 154"></polygon>
                    <polygon id="Fill-8" fill="#CFCFCF" points="24 195 109 195 109 185 24 185"></polygon>
                    <polygon id="Fill-8" fill="#CFCFCF" points="159 40 244 40 244 30 159 30"></polygon>
                    <polygon id="Fill-8" fill="#CFCFCF" points="159 71 244 71 244 61 159 61"></polygon>
                    <polygon id="Fill-8" fill="#CFCFCF" points="159 102 244 102 244 92 159 92"></polygon>
                    <polygon id="Fill-8" fill="#CFCFCF" points="159 133 244 133 244 123 159 123"></polygon>
                    <polygon id="Fill-8" fill="#CFCFCF" points="159 164 244 164 244 154 159 154"></polygon>
                    <polygon id="Fill-8" fill="#CFCFCF" points="159 195 244 195 244 185 159 185"></polygon>
                    <polygon id="Fill-8" fill="#CFCFCF" points="294 40 379 40 379 30 294 30"></polygon>
                    <polygon id="Fill-8" fill="#CFCFCF" points="294 71 379 71 379 61 294 61"></polygon>
                    <polygon id="Fill-8" fill="#CFCFCF" points="294 102 379 102 379 92 294 92"></polygon>
                    <polygon id="Fill-8" fill="#CFCFCF" points="294 133 379 133 379 123 294 123"></polygon>
                    <polygon id="Fill-8" fill="#CFCFCF" points="294 164 379 164 379 154 294 154"></polygon>
                    <polygon id="Fill-8" fill="#CFCFCF" points="294 195 379 195 379 185 294 185"></polygon>
                    <rect id="Rectangle" fill-opacity="0.2" fill="#0E47CB" x="0" y="0" width="400" height="20"></rect>
                    <polygon id="Fill-8-Copy-3" fill="#444444" points="24 15 64 15 64 5 24 5"></polygon>
                    <polygon id="Fill-8-Copy-3" fill="#444444" points="159 15 199 15 199 5 159 5"></polygon>
                    <polygon id="Fill-8-Copy-3" fill="#444444" points="294 15 334 15 334 5 294 5"></polygon>
                </g>
            </g>
        </g>
    </g>
</svg>