<?xml version="1.0" encoding="utf-8"?>
<!-- Generator: Adobe Illustrator 19.2.0, SVG Export Plug-In . SVG Version: 6.00 Build 0)  -->
<svg version="1.1" id="Layer_1" xmlns="http://www.w3.org/2000/svg" xmlns:xlink="http://www.w3.org/1999/xlink" x="0px" y="0px"
	 viewBox="0 0 40 40" style="enable-background:new 0 0 40 40;" xml:space="preserve">
<style type="text/css">
	.st0{fill:#A14F00;}
	.st1{fill:#FFFFFF;}
</style>
<g>
	<path class="st0" d="M0,0v0.5v38.6V40h40v-0.9V0.5V0H0z"/>
	<g>
		<path class="st1" d="M31.4,10.3c0-1.8-1.5-3.3-3.3-3.3H11.9c-1.8,0-3.3,1.5-3.3,3.3v16.2c0,1.8,1.5,3.3,3.3,3.3
			c0.3,1.6,1.4,4.5,4.7,5.3c0,0-1.8-2.5-0.7-5.3h12.3c1.8,0,3.3-1.5,3.3-3.3l0,0L31.4,10.3L31.4,10.3z"/>
		<g>
			<rect x="13" y="17.8" class="st0" width="13.9" height="1.3"/>
			<rect x="13" y="21.2" class="st0" width="13.9" height="1.3"/>
			<rect x="13" y="14.4" class="st0" width="13.9" height="1.3"/>
		</g>
	</g>
</g>
</svg>
