<?xml version="1.0" encoding="utf-8"?>
<!-- Generator: Adobe Illustrator 19.2.0, SVG Export Plug-In . SVG Version: 6.00 Build 0)  -->
<svg version="1.1" id="Layer_1" xmlns:sketch="http://www.bohemiancoding.com/sketch/ns"
	 xmlns="http://www.w3.org/2000/svg" xmlns:xlink="http://www.w3.org/1999/xlink" x="0px" y="0px" viewBox="0 0 40 40"
	 style="enable-background:new 0 0 40 40;" xml:space="preserve">
<style type="text/css">
	.st0{fill:#C8A051;}
	.st1{fill:#FFFFFF;}
</style>
<title>blogger_hover</title>
<desc>Created with Sketch.</desc>
<g id="Page-1" sketch:type="MSPage">
	<g id="blogger_hover" sketch:type="MSLayerGroup">
		<rect id="bg" sketch:type="MSShapeGroup" class="st0" width="40" height="40">
		</rect>
		<path id="icon" sketch:type="MSShapeGroup" class="st1" d="M30.1,18.2v-0.2l-0.4-0.2c-0.4-0.2-2.3,0-2.8-0.5
			c-0.4-0.4-0.4-0.9-0.5-1.8c-0.2-1.5-0.4-1.6-0.6-2.2c-0.8-2-3.4-3.4-4.9-3.5h-4.6c-3.6,0-6.5,2.9-6.5,6.5v7.6
			c0,3.5,2.9,6.5,6.5,6.5h7.5c3.6,0,6.5-2.9,6.5-6.5v-5.2L30.1,18.2L30.1,18.2z M16.4,15.1H20c0.7,0,1.2,0.6,1.2,1.2
			c0,0.7-0.6,1.2-1.2,1.2h-3.6c-0.7,0-1.2-0.6-1.2-1.2C15.1,15.7,15.7,15.1,16.4,15.1L16.4,15.1z M23.7,24.9h-7.3
			c-0.7,0-1.2-0.6-1.2-1.2c0-0.7,0.6-1.2,1.2-1.2h7.3c0.7,0,1.2,0.6,1.2,1.2C24.9,24.3,24.4,24.9,23.7,24.9L23.7,24.9z"/>
	</g>
</g>
</svg>
