<?xml version="1.0" encoding="utf-8"?>
<!-- Generator: Adobe Illustrator 19.2.0, SVG Export Plug-In . SVG Version: 6.00 Build 0)  -->
<svg version="1.1" id="Layer_1" xmlns:sketch="http://www.bohemiancoding.com/sketch/ns"
	 xmlns="http://www.w3.org/2000/svg" xmlns:xlink="http://www.w3.org/1999/xlink" x="0px" y="0px" viewBox="0 0 40 40"
	 style="enable-background:new 0 0 40 40;" xml:space="preserve">
<style type="text/css">
	.st0{fill:#326495;}
	.st1{fill:#FFFFFF;}
</style>
<title>instagram</title>
<desc>Created with Sketch.</desc>
<g id="Page-1" sketch:type="MSPage">
	<g id="instagram" sketch:type="MSLayerGroup">
		<path id="bg" sketch:type="MSShapeGroup" class="st0" d="M0,0h40v40H0V0z"/>
		<path id="icon" sketch:type="MSShapeGroup" class="st1" d="M20,9.8h7.9c0.6,0,1.1,0.2,1.5,0.5c0.6,0.5,0.8,1.1,0.8,1.8v15.8
			c0,1.1-0.8,2.1-2,2.3c-0.1,0-0.2,0-0.3,0h-0.1H12.1c-0.3,0-0.7-0.1-1-0.2c-0.8-0.4-1.2-1-1.4-1.8c0-0.1,0-0.3,0-0.4V13.4v-1.3
			c0-0.7,0.2-1.2,0.7-1.7c0.5-0.4,1-0.7,1.7-0.7h5.2C18.2,9.8,19.1,9.8,20,9.8L20,9.8z M12.1,18.4v0.1V27c0,0,0,0.1,0,0.1
			c0,0.3,0.2,0.6,0.5,0.7c0.1,0,0.2,0,0.3,0h7.3H27c0.1,0,0.1,0,0.2,0c0.4-0.1,0.6-0.4,0.6-0.8v-1.6v-7v-0.1h-1.8
			c0.5,1.9,0.1,3.7-1,5.3c-1.2,1.6-2.8,2.4-4.8,2.5c-1.2,0.1-2.3-0.2-3.3-0.8c-1-0.6-1.9-1.4-2.5-2.4c-0.8-1.5-1-3-0.6-4.7
			C13.3,18.4,12.7,18.4,12.1,18.4L12.1,18.4z M20,16.1c-2.2,0-3.9,1.8-3.9,3.9c0,2.2,1.8,3.9,3.9,3.9s3.9-1.8,3.9-3.9
			S22.2,16.1,20,16.1L20,16.1z M25.9,16.1h1.2c0.1,0,0.1,0,0.2,0c0.4-0.1,0.7-0.4,0.7-0.8v-2.4c0,0,0-0.1,0-0.1
			c-0.1-0.4-0.4-0.7-0.8-0.7h-2.3c-0.5,0-0.8,0.3-0.8,0.8v2.3c0,0,0,0.1,0,0.1c0.1,0.4,0.4,0.7,0.8,0.7
			C25.1,16.1,25.5,16.1,25.9,16.1L25.9,16.1z"/>
	</g>
</g>
</svg>
