<?xml version="1.0" encoding="utf-8"?>
<!-- Generator: Adobe Illustrator 19.2.0, SVG Export Plug-In . SVG Version: 6.00 Build 0)  -->
<svg version="1.1" id="Layer_1" xmlns:sketch="http://www.bohemiancoding.com/sketch/ns"
	 xmlns="http://www.w3.org/2000/svg" xmlns:xlink="http://www.w3.org/1999/xlink" x="0px" y="0px" viewBox="0 0 40 40"
	 style="enable-background:new 0 0 40 40;" xml:space="preserve">
<style type="text/css">
	.st0{fill:#B2062E;}
	.st1{fill:#FFFFFF;}
</style>
<title>pocket_hover</title>
<desc>Created with Sketch.</desc>
<g id="Page-1" sketch:type="MSPage">
	<g id="pocket_hover" sketch:type="MSLayerGroup">
		<path id="bg" sketch:type="MSShapeGroup" class="st0" d="M0,0v40h40V0H0L0,0z"/>
		<path id="Shape" sketch:type="MSShapeGroup" class="st1" d="M8.5,11.3c0.6-1.3,1.6-1.6,2.9-1.6c5.8,0,11.7,0,17.5,0
			c0.7,0,1.4,0,1.9,0.5c0.3,0.4,0.6,0.9,0.6,1.3c0,2.8,0.1,5.7-0.1,8.5c-0.4,4.7-3.9,8.6-8.5,9.7c-6.5,1.6-12.9-2.4-14.2-9
			c-0.1-0.5-0.1-0.9-0.2-1.4C8.5,16.7,8.5,14,8.5,11.3L8.5,11.3z M20,20.1c-0.3-0.3-0.6-0.5-0.8-0.8c-1.1-1.1-2.3-2.2-3.4-3.3
			c-0.7-0.7-1.7-0.7-2.3,0c-0.6,0.6-0.6,1.6,0.1,2.3c1.8,1.7,3.6,3.4,5.4,5.1c0.7,0.7,1.5,0.7,2.2,0.1c1.9-1.7,3.7-3.5,5.5-5.3
			c0.9-0.9,0.4-2.4-0.9-2.7c-0.7-0.1-1.1,0.2-1.6,0.6C22.8,17.5,21.4,18.8,20,20.1L20,20.1z"/>
	</g>
</g>
</svg>
