<?xml version="1.0" encoding="utf-8"?>
<!-- Generator: Adobe Illustrator 19.2.0, SVG Export Plug-In . SVG Version: 6.00 Build 0)  -->
<svg version="1.1" id="Layer_1" xmlns:sketch="http://www.bohemiancoding.com/sketch/ns"
	 xmlns="http://www.w3.org/2000/svg" xmlns:xlink="http://www.w3.org/1999/xlink" x="0px" y="0px" viewBox="0 0 40 40"
	 style="enable-background:new 0 0 40 40;" xml:space="preserve">
<style type="text/css">
	.st0{fill:#0083A8;}
	.st1{fill:#FFFFFF;}
</style>
<title>storify_hover</title>
<desc>Created with Sketch.</desc>
<g id="Page-1" sketch:type="MSPage">
	<g id="storify_hover" sketch:type="MSLayerGroup">
		<path id="bg" sketch:type="MSShapeGroup" class="st0" d="M40,0H0v40h40V0L40,0L40,0z"/>
		<g id="icon" transform="translate(119.247312, 122.000000)" sketch:type="MSShapeGroup">
			<path id="Shape" class="st1" d="M-95.5-109.2c1.7,0,3,0.7,4.2,1.9c1.4,1.4,2.3,3.1,2.5,5c0.4,3.5-1.1,7-4.4,8.9
				c-1.5,0.9-3.2,1.4-5,1.6c-0.2,0-0.5-0.3-0.5-0.5c0-0.1,0.2-0.1,0.3-0.1c1.2-0.4,2.2-1,3-2c1.5-1.8,1.8-5-0.1-7.2
				c-0.6-0.7-1.3-1.3-2-2c-0.3-0.3-0.5-0.5-0.7-0.8c-1.4-1.9-0.5-4.2,1.9-4.6C-96.1-109.2-95.8-109.3-95.5-109.2L-95.5-109.2z"/>
			<path id="Shape_1_" class="st1" d="M-103-94.8c-1.6,0-3-0.7-4.1-1.8c-1.4-1.4-2.3-3-2.6-4.9c-0.6-3.6,1.2-7.2,4.4-9.1
				c1.5-0.9,3.2-1.4,4.9-1.6c0.2,0,0.5,0.3,0.5,0.5c0,0.1-0.2,0.1-0.2,0.1c-1.2,0.4-2.2,1-3,2c-1.5,1.8-1.8,5,0.1,7.2
				c0.6,0.7,1.3,1.3,2,2c0.3,0.3,0.5,0.5,0.7,0.8c1.4,1.9,0.5,4.2-1.9,4.6C-102.3-94.8-102.6-94.8-103-94.8L-103-94.8z"/>
		</g>
	</g>
</g>
</svg>
