<?xml version="1.0" standalone="no"?>
<!DOCTYPE svg PUBLIC "-//W3C//DTD SVG 1.1//EN" "http://www.w3.org/Graphics/SVG/1.1/DTD/svg11.dtd" >
<svg xmlns="http://www.w3.org/2000/svg">
<metadata>
<json>
<![CDATA[
{
	"fontFamily": "europa-icons",
	"description": "ECL icons\nFont generated by IcoMoon.",
	"majorVersion": 1,
	"minorVersion": 1,
	"version": "Version 1.1",
	"fontId": "europa-icons",
	"psName": "europa-icons",
	"subFamily": "Regular",
	"fullName": "europa-icons"
}
]]>
</json>
</metadata>
<defs>
<font id="europa-icons" horiz-adv-x="1024">
<font-face units-per-em="1024" ascent="870.850439882698" descent="-153.14956011730206" />
<missing-glyph horiz-adv-x="1024" />
<glyph unicode="&#x20;" horiz-adv-x="0" d="" />
<glyph unicode="&#x21;" glyph-name="faq" data-tags="faq" d="M595.218 77.158h-174.761c0 25.7 0 41.12 0 46.26 0 56.54 9.252 102.8 27.756 139.809s56.54 78.128 112.052 123.36c56.54 45.232 90.464 76.072 100.744 89.436 17.476 22.616 25.7 47.288 25.7 74.016 0 38.036-15.42 69.904-45.232 96.632s-69.904 40.092-120.276 40.092c-49.344 0-90.464-14.392-123.36-42.148s-55.512-69.904-67.848-127.472l-176.818 22.616c5.14 81.212 40.092 151.117 104.856 207.658 64.764 57.568 149.061 86.352 254.946 86.352 109.996 0 198.406-28.784 263.171-87.38 65.792-57.568 98.688-124.388 98.688-201.49 0-42.148-12.336-82.24-35.98-120.276-24.672-38.036-76.072-89.436-154.201-155.229-41.12-33.924-65.792-60.652-76.072-81.212-9.252-20.56-14.392-57.568-13.364-111.024zM420.456-181.901v193.266h193.266v-193.266h-193.266z" />
<glyph unicode="&#x22;" glyph-name="book" data-tags="book" horiz-adv-x="839" d="M837.828-12.279v852.22h-733.999c-58.596 0-103.828-47.288-103.828-102.8v-822.408c0-58.596 47.288-102.8 103.828-102.8h605.498v852.22h-583.91c-32.896 0-58.596 27.756-58.596 58.596-2.056 33.924 25.7 61.68 58.596 61.68h668.207v-796.708h44.204z" />
<glyph unicode="&#x24;" glyph-name="data" data-tags="data" horiz-adv-x="902" d="M451.296 839.941c-249.806 0-451.296-98.688-451.296-225.134v-580.826c0-123.36 201.49-225.134 451.296-225.134s450.268 99.716 450.268 223.078v582.882c0 126.444-204.574 225.134-450.268 225.134zM805.96 33.981c0-39.064-120.276-128.5-354.663-128.5-231.302 0-354.663 89.436-354.663 128.5v151.117c81.212-51.4 209.714-87.38 354.663-87.38 140.837 0 270.367 32.896 354.663 87.38v-151.117zM805.96 322.853c0-39.064-120.276-129.528-354.663-129.528-231.302 0-354.663 90.464-354.663 129.528v150.089c81.212-50.372 209.714-86.352 354.663-86.352 140.837 0 270.367 32.896 354.663 86.352v-150.089zM451.296 485.278c-231.302 0-354.663 90.464-354.663 129.528s120.276 128.5 354.663 128.5c231.302 0 354.663-89.436 354.663-128.5s-123.36-129.528-354.663-129.528z" />
<glyph unicode="&#x26;" glyph-name="file" data-tags="file" horiz-adv-x="735" d="M584.938 839.941h-400.924l-184.014-178.874v-778.203c4.729-39.614 37.744-70.14 78.049-70.931l508.945-0.001c38.739 4.173 69.297 34.381 73.976 72.587l0.040 882.435c-3.195 40.023-35.732 71.492-75.929 72.984zM586.994 543.875v-658.955h-514.004v698.019h111.024c39.172 1.047 70.798 31.957 72.979 70.736l0.009 113.278h329.991v-223.078z" />
<glyph unicode="&#x29;" glyph-name="copy" data-tags="copy" horiz-adv-x="782" d="M632.226 703.216v136.725h-464.66l-167.565-162.425v-728.859h150.089v-136.725h632.226v891.285h-150.089zM78.128 25.757v595.218h145.977v139.809h328.963v-57.568h-235.414l-167.565-161.397v-516.060h-71.96zM703.159 423.597v-533.538h-475.968v595.218h147.005v139.809h328.963v-201.49z" />
<glyph unicode="&#x2d;" glyph-name="spreadsheet" data-tags="spreadsheet" horiz-adv-x="1071" d="M0 711.44v-771.007c0-70.932 57.568-128.5 128.5-128.5h814.184c70.932 0 128.5 57.568 128.5 128.5v771.007c0 70.932-57.568 128.5-128.5 128.5h-814.184c-70.932 0-128.5-57.568-128.5-128.5zM85.324 582.94h214.854v-171.677h-214.854v171.677zM342.327 582.94h642.506v-171.677h-642.506v171.677zM984.834 369.113v-128.5h-642.506v128.5h642.506zM984.834 197.436v-128.5h-642.506v128.5h642.506zM984.834 25.757v-42.148c0-71.96-14.392-86.352-85.324-86.352h-557.182v128.5h642.506zM300.179-102.744h-128.5c-71.96 0-86.352 14.392-86.352 86.352v42.148h214.854v-128.5zM85.324 68.934v128.5h214.854v-128.5h-214.854zM85.324 240.612v128.5h214.854v-128.5h-214.854z" />
<glyph unicode="&#xe800;" glyph-name="video" data-tags="video" horiz-adv-x="1167" d="M1164.734 739.196c-8.224 54.484-62.708 100.744-113.080 100.744h-927.266c-61.68 0-116.164-50.372-124.388-100.744v-814.184c0-54.484 58.596-113.080 124.388-113.080h927.266c54.484 0 116.164 58.596 116.164 117.192v793.624l-3.084 16.448zM400.924 107.998v435.876l365.971-217.938-365.971-217.938z" />
<glyph unicode="&#xe801;" glyph-name="audio" data-tags="audio" horiz-adv-x="935" d="M619.89 550.043c-21.588 21.588-49.344 21.588-71.96 0-21.588-21.588-21.588-49.344 0-70.932 87.38-87.38 87.38-228.218 0-311.487-21.588-22.616-21.588-50.372 0-71.96 9.252-9.252 25.7-12.336 38.036-12.336 9.252 0 24.672 3.084 33.924 12.336 124.388 124.388 124.388 329.991 0 454.38zM728.859 643.592c-21.588-21.588-21.588-49.344 0-71.96 140.837-136.725 140.837-363.915 0-503.724-21.588-22.616-21.588-50.372 0-71.96 9.252-9.252 24.672-12.336 38.036-12.336s27.756 6.168 33.924 12.336c87.38 87.38 136.725 202.518 136.725 323.823s-49.344 236.442-136.725 323.823c-21.588 21.588-50.372 21.588-71.96 0zM476.996 839.941l-308.403-311.487h-168.593v-408.12h168.593l308.403-308.403" />
<glyph unicode="&#xe802;" glyph-name="brochure" data-tags="brochure" horiz-adv-x="1038" d="M703.159 715.552l-325.879 111.024-377.279-149.061v-865.584l377.279 138.781 325.879-114.108 335.131 131.585v871.752l-335.131-124.388zM321.767 29.869l-225.134-79.156v668.207l225.134 89.436v-678.487zM653.814-43.119l-221.022 72.988v681.571l221.022-79.156v-675.403zM944.742 29.869l-187.098-72.988v672.319l187.098 71.96v-671.291z" />
<glyph unicode="&#xe803;" glyph-name="euro" data-tags="euro" d="M515.032 694.992c-267.283 0-483.164-161.397-483.164-358.775 0-88.408 66.82-189.154 137.753-251.862l-68.876-215.882 209.714 141.865c61.68-21.588 130.556-33.924 203.546-33.924 267.283 0 483.164 160.369 483.164 358.775s-215.882 359.803-482.136 359.803v0zM617.834 402.009l-9.252-45.232h-159.341c0-5.14 0-10.28 0-17.476s0-14.392 0-21.588h151.117l-10.28-46.26h-134.669c5.14-20.56 12.336-37.008 22.616-49.344 19.532-22.616 45.232-34.952 77.1-34.952 38.036 0 67.848 12.336 90.464 34.952v-90.464c-25.7-12.336-55.512-19.532-89.436-19.532-57.568 0-104.856 19.532-141.865 59.624-25.7 26.728-42.148 59.624-50.372 99.716h-43.176l9.252 46.26h28.784c0 5.14 0 9.252 0 15.42 0 9.252 0 16.448 1.028 23.644h-39.064l9.252 46.26h34.952c8.224 39.064 24.672 71.96 49.344 97.66 38.036 40.092 86.352 60.652 147.005 60.652 33.924 0 62.708-6.168 86.352-18.504l-17.476-82.24c-16.448 17.476-41.12 25.7-72.988 25.7s-58.596-11.308-78.128-34.952c-11.308-12.336-19.532-28.784-24.672-48.316h163.453v-1.028z" />
<glyph unicode="&#xe804;" glyph-name="warning" data-tags="warning" d="M515.032 812.184l-515.032-972.498h1028.010l-512.976 972.498zM515.032-59.567c-32.896 0-59.624 27.756-59.624 60.652s26.728 60.652 59.624 60.652c33.924 0 60.652-26.728 60.652-60.652s-26.728-60.652-60.652-60.652v0zM515.032 122.39c-32.896 0-59.624 27.756-59.624 60.652v181.958c0 33.924 26.728 60.652 59.624 60.652s60.652-26.728 60.652-60.652v-181.958c0-32.896-26.728-60.652-60.652-60.652v0z" />
<glyph unicode="&#xe805;" glyph-name="spinner" data-tags="spinner" d="M1028.010 454.438h-385.503l143.921 143.921c-72.988 72.988-169.621 113.080-272.423 113.080s-199.434-40.092-272.423-113.080c-72.988-72.988-113.080-169.621-113.080-272.423s40.092-199.434 113.080-272.423c72.988-72.988 169.621-113.080 272.423-113.080s199.434 40.092 272.423 113.080c6.168 6.168 12.336 12.336 17.476 18.504l96.632-84.296c-93.548-107.94-232.33-175.79-386.531-175.79-283.731 0-514.004 230.274-514.004 514.004s230.274 514.004 514.004 514.004c141.865 0 270.367-57.568 363.915-150.089l150.089 150.089v-385.503z" />
<glyph unicode="&#xe806;" glyph-name="download" data-tags="download" d="M900.537 387.617v-448.212h-767.923v448.212h-128.5v-575.686h1023.898v575.686M772.035 387.617h-192.238v448.212h-127.472v-448.212h-192.238l255.974-255.974" />
<glyph unicode="&#xe807;" glyph-name="edit" data-tags="edit" horiz-adv-x="735" d="M586.994 217.996v-333.075h-514.004v698.019h111.024c39.172 1.047 70.798 31.957 72.979 70.736l0.009 113.278h329.991v-223.078l5.14 5.14c2.089 2.528 5.226 4.13 8.74 4.13s6.647-1.602 8.724-4.111l51.415-51.419v269.339c-3.195 40.023-35.732 71.492-75.929 72.984l-401.068 0.004-184.014-178.874v-778.203c4.729-39.614 37.744-70.14 78.049-70.931l508.945-0.001c38.739 4.173 69.297 34.381 73.976 72.587l0.040 407.495zM572.602 551.071l19.532 19.532c2.089 2.528 5.226 4.13 8.74 4.13s6.647-1.602 8.724-4.111l122.347-120.295c2.186-2.066 3.545-4.987 3.545-8.224s-1.359-6.158-3.54-8.219l-315.604-315.604c-0.81-1.841-2.619-3.101-4.72-3.101-0.148 0-0.294 0.006-0.439 0.019l-180.91-58.597c-1.105-0.395-2.38-0.627-3.711-0.627-6.245 0-11.308 5.063-11.308 11.308 0 1.328 0.228 2.606 0.652 3.79l58.572 181.878c0 2.056 2.056 2.056 2.056 4.112l217.938 217.938M299.151 122.39l62.708 22.616c4.744 1.792 8.055 6.293 8.055 11.568 0 3.044-1.102 5.831-2.93 7.982l-44.189 44.186c-2.133 1.813-4.92 2.915-7.964 2.915-5.275 0-9.78-3.311-11.54-7.97l-19.56-65.877c-0.93-1.608-1.477-3.533-1.477-5.589 0-6.245 5.063-11.308 11.308-11.308 2.056 0 3.985 0.551 5.646 1.506z" />
<glyph unicode="&#xe808;" glyph-name="share" data-tags="share" horiz-adv-x="823" d="M668.207 171.734q63.736 0 108.968-44.204t45.232-109.996q0-63.736-45.232-108.968t-108.968-45.232-108.968 45.232-45.232 108.968q0 6.168 1.028 14.392t1.028 12.336l-267.283 160.369q-43.176-32.896-94.576-32.896-63.736 0-108.968 45.232t-45.232 108.968 45.232 108.968 108.968 45.232q55.512 0 94.576-30.84l267.283 160.369q0 4.112-1.028 12.336t-1.028 12.336q0 63.736 45.232 108.968t108.968 45.232 108.968-44.204 45.232-109.996q0-63.736-45.232-108.968t-108.968-45.232q-53.456 0-92.52 32.896l-269.339-160.369q2.056-8.224 2.056-26.728 0-16.448-2.056-24.672l269.339-160.369q37.008 30.84 92.52 30.84z" />
<glyph unicode="&#xe80b;" glyph-name="digital" data-tags="digital" d="M479.052 799.848h69.904c257.002-37.008 404.008-184.014 441.016-441.016v-69.904c-37.008-257.002-184.014-404.008-441.016-441.016h-69.904c-257.002 37.008-404.008 184.014-441.016 441.016v69.904c37.008 257.002 184.014 404.008 441.016 441.016v0zM351.579 562.379h132.613c-1.028 56.54 2.056 117.192-2.056 170.649-56.54-44.204-98.688-101.772-130.556-170.649v0zM564.378 718.636c-6.168 4.112-13.364 13.364-20.56 10.28v-166.537c43.176 1.028 91.492-3.084 131.585 1.028-26.728 57.568-65.792 116.164-111.024 155.229v0zM173.733 562.379h115.136c18.504 61.68 58.596 112.052 89.436 156.257-87.38-33.924-157.285-84.296-204.574-156.257v0zM739.139 562.379h115.136c-47.288 70.932-120.276 127.472-206.63 154.201 39.064-43.176 69.904-93.548 91.492-154.201v0zM139.809 502.754c-23.644-40.092-35.98-90.464-41.12-149.061h147.005c3.084 54.484 10.28 103.828 22.616 149.061-43.176 0-85.324 0-128.5 0v0zM305.319 353.693h178.874v149.061h-152.145c-16.448-42.148-21.588-95.604-26.728-149.061v0zM545.874 502.754c-5.14-46.26-1.028-99.716-2.056-149.061 58.596 1.028 122.332-2.056 178.874 2.056-5.14 52.428-12.336 102.8-24.672 147.005-50.372 0-101.772 0-152.145 0v0zM781.287 353.693h147.005c-3.084 58.596-18.504 106.912-39.064 149.061h-129.528c12.336-45.232 19.532-94.576 21.588-149.061v0zM98.688 294.068c4.112-58.596 18.504-106.912 39.064-149.061h130.556c-12.336 45.232-19.532 94.576-22.616 149.061h-147.005zM307.375 294.068c-1.028-50.372 11.308-104.856 22.616-149.061h154.201v149.061h-176.818zM545.874 294.068c-5.14-46.26-1.028-99.716-2.056-149.061h154.201c13.364 45.232 20.56 95.604 24.672 149.061h-176.818zM783.343 294.068c-7.196-50.372-10.28-104.856-23.644-149.061h129.528c20.56 42.148 35.98 90.464 39.064 149.061h-144.949zM380.363-68.819c-39.064 43.176-70.932 93.548-91.492 154.201h-115.136c47.288-70.932 120.276-127.472 206.63-154.201v0zM463.632-70.875c5.14-4.112 12.336-13.364 20.56-10.28v166.537c-43.176-1.028-91.492 3.084-132.613-1.028 27.756-57.568 66.82-116.164 112.052-155.229v0zM543.818-83.211c56.54 35.98 100.744 101.772 131.585 168.593h-131.585v-168.593zM649.702-70.875c87.38 33.924 156.257 84.296 204.574 156.257h-115.136c-19.532-60.652-58.596-112.052-89.436-156.257v0z" />
<glyph unicode="&#xe80d;" glyph-name="image" data-tags="image" horiz-adv-x="1167" d="M965.302 22.673h-762.783v151.117l230.274 382.419 314.571-382.419 217.938 152.145v-303.263zM736.055 517.146c0 65.792 50.372 113.080 113.080 113.080s113.080-51.4 113.080-113.080-51.4-113.080-113.080-113.080-113.080 54.484-113.080 113.080zM1164.734 739.196c-8.224 54.484-62.708 100.744-113.080 100.744h-927.266c-61.68 0-116.164-50.372-124.388-100.744v-814.184c0-54.484 58.596-113.080 124.388-113.080h927.266c54.484 0 116.164 58.596 116.164 117.192v793.624l-3.084 16.448zM1051.654-70.875h-934.462v793.624h934.462v-793.624z" />
<glyph unicode="&#xe80e;" glyph-name="presentation" data-tags="presentation" horiz-adv-x="916" d="M405.036 825.548h102.8v-50.372h-102.8zM898.481 748.448h-884.089v-103.828h23.644v-501.668h363.915v-47.288l-182.986-218.966c-12.336-11.308-9.252-29.812 3.084-41.12s28.784-9.252 41.12 3.084l197.378 233.358 189.154-230.274c9.252-12.336 26.728-15.42 41.12-3.084 12.336 8.224 15.42 26.728 3.084 41.12l-182.986 227.19v35.98h363.915v501.668h25.7l-2.056 103.828zM821.38 196.408h-729.887v451.296h726.803l3.084-451.296z" />
<glyph unicode="&#xe80f;" glyph-name="infographic" data-tags="infographic" horiz-adv-x="999" d="M509.892 429.765v86.352c-0.147 0-0.32 0.001-0.493 0.001-107.306 0-194.294-86.989-194.294-194.294s86.989-194.294 194.294-194.294c79.429 0 147.727 47.664 177.852 115.949l-87.921 19.746c-19.526-29.873-52.814-49.337-90.647-49.337-59.614 0-107.94 48.326-107.94 107.94s48.326 107.94 107.94 107.94c0.424 0 0.851-0.002 1.274-0.007zM914.929 195.38c-55.53-173.602-215.456-297.094-404.225-297.094-233.914 0-423.54 189.626-423.54 423.54 0 233.629 189.164 423.077 422.685 423.539l0.044 86.352c-0.167 0-0.366 0-0.568 0-281.606 0-509.892-228.287-509.892-509.892 0-140.944 57.187-268.531 149.621-360.825 92.307-92.45 219.897-149.639 360.843-149.639 230.516 0 425.304 152.967 488.396 362.931zM163.453 321.825c0.965-190.602 155.7-344.741 346.435-344.741 151.348 0 280.027 97.051 327.202 232.313l-83.559 20.933c-38.096-99.347-132.692-168.593-243.463-168.593-143.642 0-260.086 116.444-260.086 260.086 0 143.58 116.345 259.986 259.901 260.086l0.009 86.352c-191.333 0-346.439-155.105-346.439-346.439z" />
<glyph unicode="&#xe810;" glyph-name="linkedin" data-tags="linkedin" d="M224.106-147.976h-199.434v638.394h199.434v-638.394zM121.304 568.547v0c-72.988 0-121.304 48.316-121.304 108.968 0 65.792 48.316 114.108 121.304 114.108s120.276-48.316 120.276-107.94c0-66.82-48.316-115.136-120.276-115.136v0zM1028.010-147.976h-229.246v331.019c0 84.296-37.008 144.949-115.136 144.949-60.652 0-90.464-42.148-108.968-78.128 0-12.336 0-35.98 0-54.484v-343.355h-224.106v638.394h224.106v-101.772c12.336 42.148 84.296 107.94 199.434 107.94 144.949 0 253.918-90.464 253.918-288.871v-355.691z" />
<glyph unicode="&#xe811;" glyph-name="organigram" data-tags="organigram" horiz-adv-x="1195" d="M0 58.654h335.131v-246.722h-335.131zM430.736 58.654h334.103v-246.722h-334.103zM860.444 58.654h335.131v-246.722h-335.131zM214.854 246.78h335.131v-124.388h95.604v124.388h335.131v-124.388h95.604v219.994h-430.736v55.512h-95.604v-55.512h-430.736v-219.994h95.604zM346.439 839.941h502.696v-366.999h-502.696z" />
<glyph unicode="&#xe812;" glyph-name="package" data-tags="package" horiz-adv-x="1113" d="M1069.13 454.438h44.204v170.649l-129.528 214.854h-854.276l-129.528-214.854v-170.649h1069.13zM44.204 413.317v-511.948c0-48.316 37.008-85.324 85.324-85.324h857.36c48.316 0 85.324 37.008 85.324 85.324v511.948h-1028.010zM386.531 327.993h341.299v-129.528h-341.299v129.528z" />
<glyph unicode="&#xe813;" glyph-name="rss" data-tags="rss" d="M235.414 46.317c24.672-23.644 43.176-59.624 43.176-96.632s-18.504-71.96-43.176-95.604v0c-23.644-24.672-59.624-42.148-96.632-42.148s-71.96 17.476-96.632 42.148c-23.644 23.644-42.148 59.624-42.148 95.604s18.504 72.988 42.148 96.632v0c24.672 24.672 60.652 42.148 96.632 42.148s66.82-12.336 96.632-42.148v0zM0 491.446v-192.238c127.472 0 247.75-48.316 338.215-138.781 91.492-95.604 145.977-215.882 145.977-342.327v0h199.434c0 186.070-79.156 354.663-199.434 474.94-127.472 126.444-297.095 198.406-484.192 198.406v0zM0 839.941v-192.238c459.52 0 828.576-373.167 828.576-829.604h199.434c0 282.703-115.136 534.566-302.235 721.663s-441.016 300.179-725.775 300.179v0z" />
<glyph unicode="&#xe814;" glyph-name="success" data-tags="success" d="M514.004 839.941c-284.759 0-514.004-229.246-514.004-514.004s229.246-514.004 514.004-514.004c284.759 0 514.004 229.246 514.004 514.004s-229.246 514.004-514.004 514.004v0zM746.335 431.821l-284.759-273.451c-6.168-6.168-15.42-6.168-20.56 0l-41.12 41.12c-6.168 6.168-15.42 14.392-20.56 20.56l-97.66 99.716c-2.056 3.084-2.056 6.168-2.056 12.336 0 2.056 2.056 5.14 2.056 8.224l44.204 38.036c3.084 3.084 6.168 3.084 12.336 3.084 3.084 0 8.224 0 11.308-3.084l91.492-96.632c5.14-6.168 14.392-6.168 20.56 0l219.994 211.77c6.168 6.168 14.392 6.168 20.56 0l41.12-41.12c9.252-6.168 9.252-14.392 3.084-20.56v0z" />
<glyph unicode="&#xe815;" glyph-name="info" data-tags="info" d="M514.004 839.941c-284.759 0-514.004-229.246-514.004-514.004s229.246-514.004 514.004-514.004c284.759 0 514.004 229.246 514.004 514.004s-232.33 514.004-514.004 514.004v0zM446.156 540.791c0 25.7 23.644 49.344 50.372 49.344h31.868c26.728 0 50.372-23.644 50.372-49.344v-32.896c0-26.728-23.644-49.344-50.372-49.344h-31.868c-26.728 0-50.372 22.616-50.372 49.344v32.896zM646.618 61.738h-264.199v64.764h63.736v199.434h-63.736v64.764h199.434v-264.199h67.848v-64.764h-3.084z" />
<glyph unicode="&#xe816;" glyph-name="check" data-tags="check" horiz-adv-x="1452" d="M1379.589 675.46l-118.22 117.192c-16.448 16.448-41.12 16.448-57.568 0l-629.142-603.442c-16.448-16.448-41.12-16.448-57.568 0l-260.086 276.535c-9.252 9.252-25.7 9.252-33.924 9.252-16.448 0-25.7 0-34.952-9.252l-124.388-108.968c0-8.224-9.252-16.448-9.252-24.672 0-16.448 0-25.7 9.252-33.924l276.535-284.759c16.448-16.448 41.12-41.12 57.568-57.568l118.22-118.22c16.448-15.42 41.12-15.42 57.568 0l813.156 779.231c17.476 16.448 17.476 42.148-7.196 58.596z" />
<glyph unicode="&#xe817;" glyph-name="twitter" data-tags="twitter" d="M1028.010 653.872c-35.98-18.504-79.156-30.84-121.304-37.008 42.148 24.672 79.156 67.848 90.464 116.164-42.148-24.672-84.296-42.148-133.641-48.316-35.98 42.148-90.464 66.82-152.145 66.82-115.136 0-212.798-97.66-212.798-213.826 0-18.504 0-30.84 6.168-49.344-175.79 12.336-334.103 91.492-437.932 226.162-18.504-35.98-29.812-72.988-29.812-109.996 0-72.988 35.98-140.837 96.632-177.846-35.98 0-66.82 12.336-96.632 24.672v0c0-103.828 72.988-190.182 169.621-207.658-18.504-6.168-35.98-12.336-54.484-12.336-12.336 0-24.672 0-42.148 6.168 23.644-86.352 102.8-147.005 200.462-147.005-72.988-55.512-164.481-92.52-262.142-92.52h-48.316c91.492-60.652 206.63-97.66 328.963-97.66 388.587 0 601.386 324.851 601.386 606.526v30.84c37.008 29.812 72.988 72.988 97.66 116.164z" />
<glyph unicode="&#xe818;" glyph-name="energy" data-tags="energy" d="M509.892 824.52h7.196c16.448-9.252 24.672-24.672 29.812-42.148 31.868-92.52 23.644-235.414 29.812-355.691-30.84 22.616-97.66 16.448-126.444 2.056 4.112 113.080-1.028 263.171 29.812 351.579 5.14 16.448 18.504 39.064 29.812 44.204v0zM499.612 409.205c77.1 11.308 141.865-71.96 95.604-144.949-39.064-61.68-168.593-61.68-176.818 41.12-2.056 24.672 13.364 60.652 13.364 61.68 13.364 20.56 35.98 37.008 67.848 42.148v0zM482.136 319.769c-5.14-53.456 69.904-44.204 62.708 2.056-2.056 15.42-13.364 28.784-39.064 23.644-17.476-4.112-22.616-14.392-23.644-25.7v0zM386.531 337.245c1.028 0 2.056-1.028 2.056-2.056-7.196-35.98 4.112-67.848 19.532-91.492 9.252-14.392 24.672-22.616 29.812-35.98-74.016-39.064-156.257-85.324-246.722-121.304-27.756-10.28-114.108-50.372-123.36-1.028-6.168 31.868 41.12 64.764 59.624 81.212 77.1 64.764 178.874 123.36 259.058 170.649v0zM638.394 337.245c84.296-46.26 179.902-104.856 259.058-170.649 18.504-15.42 65.792-46.26 61.68-80.184-7.196-50.372-93.548-12.336-125.416 0-86.352 34.952-170.649 82.24-244.666 121.304 5.14 14.392 23.644 23.644 33.924 40.092 13.364 21.588 20.56 50.372 15.42 83.268v6.168zM576.714-171.621h-126.444v361.859c33.924-17.476 95.604-12.336 126.444-2.056v-359.803z" />
<glyph unicode="&#xe81a;" glyph-name="budget" data-tags="budget" d="M537.65 754.616c-51.4-13.364-92.52-35.98-117.192-75.044-95.604-18.504-223.078-14.392-311.487 14.392-21.588 7.196-68.876 24.672-68.876 45.232 0 25.7 65.792 45.232 93.548 52.428 124.388 32.896 320.739 25.7 404.008-37.008v0zM479.052 650.788c43.176 51.4 127.472 58.596 215.882 68.876 82.24 10.28 180.93-6.168 243.638-31.868 18.504-7.196 52.428-21.588 52.428-39.064 0-25.7-82.24-50.372-107.94-55.512-90.464-20.56-207.658-19.532-296.067 2.056-44.204 10.28-89.436 20.56-107.94 55.512v0zM40.092 654.9c89.436-48.316 245.694-59.624 376.251-40.092v-89.436c-133.641-17.476-301.207-11.308-376.251 56.54 0 24.672 0 49.344 0 72.988v0zM479.052 564.435c129.528-63.736 383.447-66.82 511.948 0-5.14-18.504 6.168-47.288 0-68.876-8.224-28.784-74.016-45.232-109.996-54.484-132.613-29.812-337.187-17.476-401.952 54.484v68.876zM40.092 503.782c91.492-48.316 246.722-61.68 376.251-41.12v-88.408c-133.641-17.476-302.235-12.336-376.251 56.54 0 24.672 0 49.344 0 72.988v0zM479.052 413.317c126.444-64.764 384.475-67.848 509.892 0-1.028-17.476 8.224-46.26 2.056-68.876-8.224-28.784-71.96-46.26-107.94-54.484-132.613-28.784-337.187-17.476-404.008 52.428 0 23.644 0 47.288 0 70.932v0zM479.052 262.2c124.388-65.792 386.531-67.848 509.892 0 5.14-20.56 0-49.344 2.056-72.988-27.756-30.84-72.988-42.148-123.36-52.428-44.204-9.252-105.884-24.672-159.341-12.336-14.392 3.084-29.812 19.532-48.316 27.756-49.344 23.644-116.164 33.924-180.93 41.12 0 22.616 0 46.26 0 68.876v0zM369.055 130.614c85.324 5.14 178.874-2.056 249.806-29.812 24.672-10.28 54.484-23.644 54.484-39.064-1.028-26.728-84.296-51.4-107.94-56.54-94.576-21.588-204.574-20.56-296.067 0-31.868 7.196-107.94 29.812-107.94 56.54-1.028 25.7 61.68 42.148 86.352 49.344 45.232 13.364 77.1 16.448 121.304 19.532v0zM161.397-22.559c128.5-66.82 383.447-65.792 511.948 0v-71.96c-105.884-89.436-407.092-90.464-511.948 0 0 23.644 0 48.316 0 71.96v0z" />
<glyph unicode="&#xe81b;" glyph-name="location" data-tags="location" horiz-adv-x="687" d="M340.271 325.937c-97.66 0-176.818 79.156-176.818 176.818s79.156 175.79 176.818 175.79c97.66 0 175.79-79.156 175.79-175.79s-78.128-176.818-175.79-176.818zM340.271 839.941c-188.126 0-340.271-152.145-340.271-340.271 0-75.044 48.316-198.406 147.005-376.251 70.932-125.416 139.809-230.274 142.893-235.414l50.372-76.072 50.372 76.072c3.084 5.14 71.96 109.996 141.865 235.414 99.716 177.846 148.033 301.207 148.033 376.251 0 188.126-153.173 340.271-340.271 340.271z" />
<glyph unicode="&#xe81c;" glyph-name="livestreaming" data-tags="livestreaming" horiz-adv-x="1255" d="M1142.118 839.941h-1028.010c-62.708 0-114.108-51.4-114.108-114.108v-171.677h114.108v171.677h1028.010v-799.792h-399.896v-114.108h399.896c62.708 0 114.108 51.4 114.108 114.108v799.792c0 62.708-51.4 114.108-114.108 114.108v0zM0-16.391v-171.677h171.677c0 96.632-75.044 171.677-171.677 171.677v0zM0 211.828v-114.108c160.369 0 285.787-125.416 285.787-285.787h114.108c0 223.078-176.818 399.896-399.896 399.896v0zM0 440.046v-114.108c285.787 0 514.004-228.218 514.004-514.004h114.108c0 348.495-279.619 628.114-628.114 628.114v0z" />
<glyph unicode="&#xe81d;" glyph-name="icon-calendar" data-tags="icon-calendar" horiz-adv-x="922" d="M246.722 627.144c-38.036 0-69.904 31.868-69.904 69.904v72.988c0 39.064 31.868 69.904 69.904 69.904s69.904-30.84 69.904-69.904v-72.988c0-38.036-30.84-69.904-69.904-69.904v0zM672.319 627.144c-38.036 0-69.904 31.868-69.904 69.904v72.988c0 39.064 31.868 69.904 69.904 69.904s69.904-30.84 69.904-69.904v-72.988c0-38.036-30.84-69.904-69.904-69.904v0zM780.259-46.203h-106.912v105.884h106.912v-105.884zM780.259 130.614h-106.912v106.912h106.912v-106.912zM780.259 308.46h-106.912v105.884h106.912v-105.884zM602.414-46.203h-105.884v105.884h105.884v-105.884zM602.414 130.614h-105.884v106.912h105.884v-106.912zM602.414 308.46h-105.884v105.884h105.884v-105.884zM425.596-46.203h-106.912v105.884h106.912v-105.884zM425.596 130.614h-106.912v106.912h106.912v-106.912zM425.596 308.46h-106.912v105.884h106.912v-105.884zM247.75-46.203h-105.884v105.884h105.884v-105.884zM247.75 130.614h-105.884v106.912h105.884v-106.912zM247.75 308.46h-105.884v105.884h105.884v-105.884zM851.192 485.278h-780.259v-602.414h780.259v602.414zM851.192-188.069h-780.259c-39.064 0-70.932 31.868-70.932 70.932v780.259c0 39.064 31.868 70.932 70.932 70.932h70.932v-35.98c0-58.596 47.288-105.884 105.884-105.884s106.912 47.288 106.912 105.884v35.98h212.798v-35.98c0-58.596 47.288-105.884 105.884-105.884s106.912 47.288 106.912 105.884v35.98h70.932c39.064 0 70.932-31.868 70.932-70.932v-780.259c0-39.064-31.868-70.932-70.932-70.932v0z" />
<glyph unicode="&#xe81e;" glyph-name="generic-lang" data-tags="generic-lang" horiz-adv-x="1030" d="M667.179 308.46h81.212c13.364 28.784 21.588 59.624 23.644 92.52h-91.492c-1.028-33.924-6.168-64.764-13.364-92.52zM681.571 437.989h91.492c-2.056 32.896-10.28 63.736-23.644 92.52h-82.24c7.196-27.756 12.336-58.596 14.392-92.52zM533.538 271.452v-105.884c16.448 12.336 54.484 45.232 81.212 105.884h-81.212zM653.814 271.452c-16.448-41.12-38.036-74.016-57.568-96.632 53.456 18.504 98.688 51.4 130.556 96.632h-72.988zM655.87 567.519h71.96c-30.84 45.232-76.072 79.156-128.5 97.66 18.504-23.644 40.092-55.512 56.54-97.66zM629.142 530.511h-95.604v-92.52h111.024c-2.056 34.952-7.196 65.792-15.42 92.52zM643.534 400.981h-109.996v-92.52h95.604c8.224 26.728 13.364 57.568 14.392 92.52zM614.75 568.547c-8.224 22.616-20.56 41.12-30.84 56.54-15.42 20.56-30.84 34.952-42.148 44.204-2.056 3.084-5.14 4.112-8.224 6.168v-106.912h81.212zM415.316 568.547h82.24v105.884c-17.476-12.336-55.512-46.26-82.24-105.884zM303.263 568.547h72.988c15.42 41.12 38.036 74.016 57.568 96.632-53.456-17.476-98.688-52.428-130.556-96.632zM348.495 402.009h-91.492c2.056-32.896 10.28-64.764 23.644-92.52h81.212c-7.196 27.756-11.308 57.568-13.364 92.52zM362.887 531.539h-81.212c-13.364-28.784-21.588-59.624-24.672-92.52h92.52c2.056 33.924 6.168 64.764 13.364 92.52zM0 614.808v-389.615c0-124.388 100.744-225.134 225.134-225.134h151.117l393.727-188.126v188.126h34.952c123.36 0 225.134 100.744 225.134 225.134v389.615c0 124.388-101.772 225.134-225.134 225.134h-579.798c-124.388 0-225.134-100.744-225.134-225.134zM219.994 420.513c0 163.453 132.613 296.067 296.067 295.039 163.453 0 295.039-132.613 294.011-296.067 0-163.453-132.613-296.067-296.067-295.039-163.453 0-295.039 132.613-294.011 296.067zM375.223 272.48h-72.988c31.868-45.232 77.1-79.156 129.528-97.66-19.532 23.644-41.12 55.512-56.54 97.66zM401.952 309.488h94.576v92.52h-109.996c1.028-34.952 6.168-65.792 15.42-92.52zM386.531 439.018h109.996v92.52h-95.604c-8.224-26.728-12.336-57.568-14.392-92.52zM414.288 271.452c9.252-21.588 21.588-40.092 31.868-55.512 15.42-19.532 30.84-34.952 42.148-44.204 2.056-3.084 5.14-5.14 7.196-6.168v105.884h-81.212z" />
<glyph unicode="&#xe81f;" glyph-name="down" data-tags="down" d="M514.004 100.802c-17.476 0-33.924 7.196-46.26 19.532l-319.711 318.683c-25.7 25.7-25.7 66.82 0 92.52s67.848 25.7 93.548 0l272.423-271.395 272.423 271.395c25.7 25.7 67.848 25.7 93.548 0s25.7-66.82 0-92.52l-319.711-318.683c-12.336-12.336-28.784-19.532-46.26-19.532v0z" />
<glyph unicode="&#xe820;" glyph-name="multiple-files" data-tags="multiple-files" horiz-adv-x="626" d="M564.378 650.788c30.84 0 59.624-31.868 59.624-60.652v-719.607c0-29.812-30.84-58.596-59.624-58.596h-416.344c-33.924 0-62.708 30.84-62.708 58.596v632.226l150.089 145.977h328.963v2.056zM564.378 590.136h-269.339v-91.492c0-30.84-30.84-58.596-57.568-58.596h-91.492v-569.518h418.4v719.607zM564.378 650.788c30.84 0 59.624-31.868 59.624-60.652v-719.607c0-29.812-30.84-58.596-59.624-58.596h-416.344c-33.924 0-62.708 30.84-62.708 58.596v632.226l150.089 145.977h328.963v2.056zM62.708 69.962v551.014h93.548c30.84 0 62.708 27.756 62.708 60.652v95.604h280.647v-105.884h62.708v105.884c0 31.868-31.868 62.708-64.764 62.708h-341.299l-156.257-152.145v-619.89c0-26.728 28.784-58.596 62.708-60.652v62.708z" />
<glyph unicode="&#xe821;" glyph-name="arrow-up" data-tags="arrow-up" horiz-adv-x="1248" d="M1250.060-188.069l-638.394 1028.010-611.666-1028.010z" />
<glyph unicode="&#xe822;" glyph-name="arrow-down" data-tags="arrow-down" horiz-adv-x="1248" d="M0 839.941l639.422-1028.010 610.638 1028.010z" />
<glyph unicode="&#xe823;" glyph-name="search" data-tags="search" horiz-adv-x="1029" d="M1004.366-42.091l-224.106 223.078c-1.028 1.028-2.056 2.056-3.084 3.084 44.204 66.82 69.904 147.005 69.904 232.33 0 234.386-190.182 423.54-423.54 423.54s-423.54-188.126-423.54-422.512c0-234.386 190.182-423.54 423.54-423.54 85.324 0 165.509 25.7 232.33 69.904 1.028-1.028 2.056-2.056 3.084-3.084l223.078-224.106c33.924-32.896 88.408-32.896 122.332 0s33.924 87.38 0 121.304v0zM423.54 140.894c-153.173 0-276.535 123.36-276.535 276.535s123.36 276.535 276.535 276.535c152.145 0 276.535-123.36 276.535-276.535s-124.388-276.535-276.535-276.535v0z" />
<glyph unicode="&#xe824;" glyph-name="language" data-tags="language" horiz-adv-x="1030" d="M804.932 839.941h-579.798c-124.388 0-225.134-100.744-225.134-225.134v-389.615c0-124.388 100.744-225.134 225.134-225.134h34.952v-188.126l393.727 188.126h151.117c123.36 0 225.134 100.744 225.134 225.134v389.615c0 124.388-101.772 225.134-225.134 225.134z" />
<glyph unicode="&#xe825;" glyph-name="external" data-tags="external" horiz-adv-x="1199" d="M0 839.941v-1028.010h1028.010v382.419h-128.5v-255.974h-768.951v773.063h254.946v126.444l-385.503 2.056zM538.678 839.941l182.986-187.098-271.395-270.367 120.276-120.276 274.479 272.423 182.986-182.986v488.304h-489.332z" />
<glyph unicode="&#xe826;" glyph-name="left" data-tags="left" d="M288.871 325.937c0 17.476 7.196 33.924 19.532 46.26l318.683 319.711c25.7 25.7 66.82 25.7 92.52 0s25.7-67.848 0-93.548l-271.395-272.423 271.395-272.423c25.7-25.7 25.7-66.82 0-93.548-25.7-25.7-66.82-25.7-92.52 0l-318.683 319.711c-12.336 12.336-19.532 28.784-19.532 46.26v0z" />
<glyph unicode="&#xe827;" glyph-name="up" data-tags="up" d="M514.004 551.071c17.476 0 33.924-7.196 46.26-19.532l319.711-318.683c25.7-25.7 25.7-66.82 0-92.52s-67.848-25.7-93.548 0l-272.423 271.395-272.423-271.395c-25.7-25.7-66.82-25.7-93.548 0-25.7 25.7-25.7 66.82 0 93.548l319.711 317.655c12.336 12.336 28.784 19.532 46.26 19.532v0z" />
<glyph unicode="&#xe828;" glyph-name="right" data-tags="right" d="M739.139 325.937c0-17.476-7.196-33.924-19.532-46.26l-318.683-319.711c-25.7-25.7-66.82-25.7-92.52 0s-25.7 67.848 0 93.548l271.395 272.423-271.395 272.423c-25.7 25.7-25.7 67.848 0 93.548s66.82 25.7 93.548 0l317.655-319.711c12.336-12.336 19.532-28.784 19.532-46.26v0z" />
<glyph unicode="&#xe829;" glyph-name="global" data-tags="global" d="M93.548 443.13v34.952c12.336 160.369 75.044 268.311 169.621 346.439 13.364-13.364 29.812-25.7 40.092-43.176-89.436-77.1-158.313-198.406-148.033-357.747 15.42-215.882 206.63-399.896 448.212-383.447 100.744 6.168 169.621 45.232 235.414 93.548-12.336 16.448-27.756 31.868-45.232 44.204-91.492-84.296-268.311-96.632-386.531-34.952-107.94 55.512-200.462 176.818-189.154 342.327 11.308 173.733 137.753 299.151 291.955 327.935 184.014 33.924 339.243-79.156 394.756-214.854 49.344-121.304 22.616-284.759-50.372-361.859 27.756-30.84 58.596-57.568 83.268-91.492-91.492-96.632-211.77-179.902-401.952-165.509-129.528 9.252-233.358 68.876-306.347 143.921-76.072 79.156-127.472 181.958-133.641 317.655 0 1.028 0 2.056-2.056 2.056v0zM468.772 709.384c48.316-11.308 29.812-60.652 6.168-85.324-34.952-35.98-149.061-58.596-65.792-102.8 6.168-33.924 28.784-26.728 61.68-29.812 39.064-3.084 91.492-16.448 104.856-52.428 13.364-34.952-11.308-74.016-26.728-104.856-15.42-29.812-22.616-64.764-39.064-84.296-9.252-10.28-25.7-18.504-37.008-15.42-37.008 9.252-13.364 93.548-25.7 141.865-6.168 27.756-28.784 42.148-26.728 71.96 1.028 12.336 11.308 21.588 7.196 31.868-24.672 16.448-58.596 18.504-79.156 39.064-12.336 11.308-14.392 27.756-29.812 37.008-42.148-113.080 5.14-232.33 64.764-290.927 47.288-47.288 122.332-83.268 207.658-77.1 158.313 10.28 279.619 147.005 249.806 328.963-10.28-3.084-23.644-1.028-32.896-4.112 2.056-22.616 4.112-40.092 1.028-64.764-41.12-25.7-23.644-112.052-81.212-122.332-29.812 35.98 0 124.388-30.84 152.145-26.728 22.616-88.408-3.084-86.352 43.176 2.056 41.12 80.184 49.344 91.492 81.212-5.14 6.168-25.7-2.056-28.784 6.168 4.112 40.092 34.952 54.484 76.072 58.596-50.372 58.596-193.266 88.408-280.647 42.148v0zM808.016-170.592h-467.744c13.364 60.652 101.772 46.26 173.733 48.316 1.028 16.448-3.084 38.036 2.056 51.4h120.276v-51.4c70.932-2.056 160.369 13.364 171.677-48.316v0z" />
<glyph unicode="&#xe82a;" glyph-name="growth" data-tags="growth" d="M113.080 106.97h167.565v-223.078h-167.565v223.078zM332.047 215.94h168.593v-331.019h-168.593v331.019zM555.126 271.452h167.565v-386.531h-167.565v386.531zM774.091 439.018h168.593v-556.154h-168.593v556.154zM930.35 763.868l-228.218-5.14 83.268-83.268-216.91-230.274-178.874 155.229-309.431-301.207 60.652-61.68 251.862 245.694 181.958-157.285 272.423 287.843 78.128-78.128 5.14 228.218z" />
<glyph unicode="&#xe82b;" glyph-name="regulation" data-tags="regulation" d="M506.808 800.876h12.336c137.753-71.96 283.731-160.369 425.596-239.526 19.532-10.28 51.4-22.616 57.568-35.98 8.224-17.476 2.056-60.652-6.168-66.82-12.336-12.336-80.184-6.168-116.164-6.168h-736.055c-45.232 0-115.136-10.28-122.332 17.476v49.344c3.084 11.308 11.308 15.42 17.476 20.56 33.924 22.616 76.072 43.176 115.136 64.764 112.052 63.736 239.526 135.697 352.607 196.35v0zM498.584 541.819c86.352-17.476 89.436 124.388 0 104.856-59.624-14.392-41.12-97.66 0-104.856v0zM336.159 418.457c8.224-31.868-3.084-59.624-29.812-63.736-1.028-82.24 3.084-170.649-2.056-249.806-46.26-3.084-106.912-3.084-154.201 0-4.112 79.156-1.028 166.537-2.056 247.75-23.644 7.196-39.064 31.868-29.812 65.792 67.848 3.084 150.089 3.084 217.938 0v0zM621.946 418.457c8.224-31.868-3.084-59.624-29.812-63.736-1.028-82.24 3.084-170.649-2.056-249.806-47.288-3.084-107.94-3.084-154.201 0-5.14 79.156-1.028 166.537-2.056 247.75-23.644 7.196-40.092 31.868-29.812 65.792 67.848 3.084 150.089 3.084 217.938 0v0zM907.733 418.457c8.224-31.868-4.112-59.624-29.812-63.736-2.056-82.24 2.056-170.649-2.056-249.806-47.288-3.084-107.94-3.084-155.229 0-4.112 79.156 0 166.537-2.056 247.75-23.644 7.196-39.064 31.868-29.812 65.792 68.876 3.084 150.089 3.084 218.966 0v0zM102.8 69.962c19.532 6.168 74.016 2.056 106.912 2.056h626.058c29.812 0 86.352 3.084 97.66-6.168 13.364-12.336 10.28-74.016 0-83.268-12.336-11.308-69.904-6.168-101.772-6.168h-639.422c-28.784 0-86.352-6.168-99.716 6.168-16.448 14.392-12.336 79.156 10.28 87.38v0zM21.588-130.5v55.512c5.14 12.336 10.28 16.448 21.588 19.532 30.84 7.196 77.1 0 119.248 0h719.607c35.98 0 101.772 5.14 114.108-6.168 13.364-11.308 10.28-74.016 0-83.268-12.336-10.28-78.128-6.168-113.080-6.168h-720.635c-57.568 0-127.472-11.308-140.837 20.56v0z" />
<glyph unicode="&#xe82c;" glyph-name="close" data-tags="close" d="M966.33 325.937c0-123.36-46.26-236.442-133.641-318.683-87.38-87.38-200.462-133.641-318.683-133.641-123.36 0-236.442 46.26-318.683 133.641-87.38 87.38-133.641 200.462-133.641 318.683s46.26 236.442 133.641 318.683c82.24 87.38 195.322 133.641 318.683 133.641s236.442-46.26 318.683-133.641c87.38-82.24 133.641-195.322 133.641-318.683v0zM986.89 526.398c-25.7 61.68-61.68 118.22-107.94 164.481s-102.8 82.24-164.481 107.94c-61.68 25.7-128.5 41.12-200.462 41.12s-138.781-15.42-200.462-41.12c-61.68-25.7-118.22-61.68-164.481-107.94-46.26-51.4-82.24-102.8-107.94-164.481s-41.12-128.5-41.12-200.462 15.42-138.781 41.12-200.462c25.7-61.68 61.68-118.22 107.94-164.481s102.8-82.24 164.481-107.94c61.68-25.7 128.5-41.12 200.462-41.12s138.781 15.42 200.462 41.12c61.68 25.7 118.22 61.68 164.481 107.94s82.24 102.8 107.94 164.481c25.7 61.68 41.12 128.5 41.12 200.462s-15.42 138.781-41.12 200.462v0zM724.747 176.875l-149.061 149.061 149.061 149.061-61.68 61.68-149.061-149.061-149.061 149.061-61.68-61.68 149.061-149.061-149.061-149.061 61.68-61.68 149.061 149.061 149.061-149.061 61.68 61.68z" />
<glyph unicode="&#xe82d;" glyph-name="close-dark" data-tags="close-dark" d="M665.123 112.11l-151.117 151.117-151.117-151.117-62.708 63.736 150.089 151.117-150.089 149.061 63.736 63.736 150.089-150.089 150.089 151.117 63.736-63.736-151.117-150.089 152.145-152.145-63.736-62.708zM514.004 839.941c-283.731 0-514.004-230.274-514.004-514.004s230.274-514.004 514.004-514.004c283.731 0 514.004 230.274 514.004 514.004s-230.274 514.004-514.004 514.004v0z" />
<glyph unicode="&#xe82e;" glyph-name="feedback" data-tags="feedback" horiz-adv-x="1199" d="M1199.687 394.813c0-117.192-60.652-223.078-159.341-302.235 4.112-77.1 20.56-181.958 81.212-235.414-115.136 0-232.33 71.96-301.207 123.36-68.876-20.56-142.893-31.868-221.022-31.868-331.019 0-599.33 200.462-599.33 446.156s268.311 445.128 599.33 445.128c331.019 0 600.358-199.434 600.358-445.128z" />
<glyph unicode="&#xe82f;" glyph-name="error" data-tags="error" d="M713.439 811.156h-401.952l-282.703-285.787v-401.952l285.787-282.703h401.952l282.703 285.787v398.868zM576.714 317.713l99.716-100.744c2.615-2.444 4.241-5.917 4.241-9.768s-1.63-7.32-4.233-9.761l-37.015-37.015c-2.444-2.615-5.917-4.241-9.768-4.241s-7.32 1.63-9.761 4.233l-99.723 99.723c-2.467 2.957-6.156 4.826-10.28 4.826s-7.813-1.869-10.263-4.805l-99.733-99.737c-2.467-2.957-6.156-4.826-10.28-4.826s-7.813 1.869-10.263 4.805l-37.025 37.029c-2.615 2.444-4.241 5.917-4.241 9.768s1.63 7.32 4.233 9.761l100.751 100.751c2.615 2.444 4.241 5.917 4.241 9.768s-1.63 7.32-4.233 9.761l-100.751 99.723c-2.957 2.467-4.826 6.156-4.826 10.28s1.869 7.813 4.805 10.263l37.029 37.025c2.467 2.957 6.156 4.826 10.28 4.826s7.813-1.869 10.263-4.805l99.733-99.737c2.467-2.957 6.156-4.826 10.28-4.826s7.813 1.869 10.263 4.805l99.733 99.737c2.444 2.615 5.917 4.241 9.768 4.241s7.32-1.63 9.761-4.233l37.015-37.015c2.957-2.467 4.826-6.156 4.826-10.28s-1.869-7.813-4.805-10.263l-99.737-99.733c-2.615-2.444-4.241-5.917-4.241-9.768s1.63-7.32 4.233-9.761z" />
<glyph unicode="&#xe900;" glyph-name="facebook" data-tags="facebook" d="M1024 348.885c0 284.501-229.248 515.115-512 515.115s-512-230.613-512-515.115c0-257.109 187.221-470.229 432-508.885v359.979h-130.005v148.907h130.005v113.493c0 129.067 76.459 200.405 193.408 200.405 55.979 0 114.603-10.069 114.603-10.069v-126.763h-64.555c-63.616 0-83.456-39.723-83.456-80.469v-96.597h141.995l-22.699-148.907h-119.296v-359.979c244.779 38.656 432 251.776 432 508.885z" />
<glyph unicode="&#xe901;" glyph-name="if_gear_298781" data-tags="if_gear_298781" horiz-adv-x="899" d="M449.253 494.938c-89.669 0-162.413-72.744-162.413-162.476 0-89.637 72.744-162.538 162.413-162.538 89.701 0 161.912 72.901 161.912 162.538-0.001 89.732-72.212 162.476-161.912 162.476zM774.893 239.127l-29.275-70.519 59.111-116.089-72.401-72.401-118.784 56.102-70.519-28.959-35.793-109.571-4.574-14.542h-102.332l-44.285 123.675-70.519 29.084-116.244-58.859-72.369 72.338 56.040 118.848-29.053 70.457-123.897 40.43v102.269l123.769 44.348 29.053 70.395-52.059 102.769-6.865 13.477 72.274 72.274 118.942-56.009 70.426 29.115 35.761 109.509 4.606 14.51h102.3l44.317-123.832 70.332-29.115 116.403 58.986 72.338-72.274-56.040-118.754 28.959-70.552 124.113-40.367v-102.238l-123.738-44.503z" />
<glyph unicode="&#xe902;" glyph-name="instagram" data-tags="instagram" d="M923.403 851.982h-820.803c-56.43 0-102.6-46.17-102.6-102.6v-820.803c0-56.43 46.17-102.6 102.6-102.6h820.803c56.43 0 102.6 46.17 102.6 102.6v820.803c0 56.43-46.17 102.6-102.6 102.6zM513.001 544.182c112.86 0 205.2-92.34 205.2-205.2s-92.34-205.2-205.2-205.2c-112.86 0-205.2 92.34-205.2 205.2s92.34 205.2 205.2 205.2zM128.25-71.42c-15.39 0-25.65 10.26-25.65 25.65v436.051h107.73c-5.13-15.39-5.13-35.91-5.13-51.3 0-169.29 138.51-307.801 307.801-307.801s307.801 138.51 307.801 307.801c0 15.39 0 35.91-5.13 51.3h107.73v-436.051c0-15.39-10.26-25.65-25.65-25.65h-769.502zM923.403 621.132c0-15.39-10.26-25.65-25.65-25.65h-102.6c-15.39 0-25.65 10.26-25.65 25.65v102.6c0 15.39 10.26 25.65 25.65 25.65h102.6c15.39 0 25.65-10.26 25.65-25.65v-102.6z" />
</font>
</defs>
</svg>
