<?xml version="1.0" encoding="UTF-8"?>
<svg width="460px" height="345px" viewBox="0 0 460 345" version="1.1" xmlns="http://www.w3.org/2000/svg" xmlns:xlink="http://www.w3.org/1999/xlink">
    <title>eu_comp_menu</title>
    <g id="thumbnails---final" stroke="none" stroke-width="1" fill="none" fill-rule="evenodd">
        <g id="EU-thumbnails---final_symbols" transform="translate(-980.000000, -3670.000000)">
            <g id="eu_comp_menu" transform="translate(980.000000, 3670.000000)">
                <g id="Group" transform="translate(62.000000, 144.000000)">
                    <rect id="Rectangle" fill="#0E47CB" x="0" y="0" width="336" height="58"></rect>
                    <polygon id="Fill-8" fill="#FFFFFF" points="20 48 50 48 50 38 20 38"></polygon>
                    <polygon id="Fill-8" fill="#FFFFFF" points="58 48 88 48 88 38 58 38"></polygon>
                    <polygon id="Fill-8-Copy" fill="#FFFFFF" points="96 48 126 48 126 38 96 38"></polygon>
                    <polygon id="Fill-8-Copy-4" fill="#FFFFFF" points="134 48 164 48 164 38 134 38"></polygon>
                    <polygon id="Fill-8-Copy-4" fill="#FFFFFF" points="172 48 202 48 202 38 172 38"></polygon>
                    <polygon id="Fill-8-Copy" fill="#FFFFFF" points="210 48 240 48 240 38 210 38"></polygon>
                    <polygon id="Fill-8-Copy-4" fill="#FFFFFF" points="248 48 278 48 278 38 248 38"></polygon>
                    <polygon id="Fill-8-Copy-4" fill="#FFFFFF" points="286 48 316 48 316 38 286 38"></polygon>
                </g>
            </g>
        </g>
    </g>
</svg>