<?xml version="1.0" encoding="UTF-8"?>
<svg width="380px" height="225px" viewBox="0 0 380 225" version="1.1" xmlns="http://www.w3.org/2000/svg" xmlns:xlink="http://www.w3.org/1999/xlink">
    <title>display list</title>
    <g id="thumbnails---final" stroke="none" stroke-width="1" fill="none" fill-rule="evenodd">
        <g id="thumbnails---final_symbols" transform="translate(-60.000000, -4824.000000)">
            <g id="ec_comp_featured_items" transform="translate(20.000000, 4765.000000)">
                <g id="display-list" transform="translate(40.000000, 54.000000)">
                    <g id="Group-3">
                        <rect id="Rectangle" x="0" y="0" width="380" height="78.7142857"></rect>
                        <g id="Group-2" transform="translate(5.428571, 5.428571)">
                            <polygon id="Fill-8" fill="#CFCFCF" points="95 29.8571429 363.714286 29.8571429 363.714286 21.7142857 95 21.7142857"></polygon>
                            <polygon id="Fill-8-Copy-4" fill="#CFCFCF" points="95 44.7857143 363.714286 44.7857143 363.714286 36.6428571 95 36.6428571"></polygon>
                            <polygon id="Fill-10" fill="#404040" points="95 12.8174603 127.494574 12.8174603 127.494574 5.42857143 95 5.42857143"></polygon>
                            <g id="Image-Copy">
                                <rect id="Rectangle" fill="#BED0E4" x="0" y="0" width="84.1428571" height="66.5"></rect>
                                <path d="M62.0553571,24.738 L62.0553571,47.31 C62.0553571,48.3549996 61.6958597,49.2432504 60.9768659,49.97475 C60.2578722,50.7062496 59.3848071,51.072 58.357673,51.072 L26.311077,51.072 C25.2839429,51.072 24.4108778,50.7062496 23.6918841,49.97475 C22.9728903,49.2432504 22.6133929,48.3549996 22.6133929,47.31 L22.6133929,24.738 C22.6133929,23.6930004 22.9728903,22.8047496 23.6918841,22.07325 C24.4108778,21.3417504 25.2839429,20.976 26.311077,20.976 L33.0901646,20.976 L34.0145857,18.389625 C34.322726,17.6581254 34.7849365,17.0703129 35.4012172,16.6261875 C36.0174979,16.1820621 36.7108137,15.96 37.4811646,15.96 L47.1875854,15.96 C47.9579363,15.96 48.6512521,16.1820621 49.2675328,16.6261875 C49.8838135,17.0703129 50.346024,17.6581254 50.6541643,18.389625 L51.5785854,20.976 L58.357673,20.976 C59.3848071,20.976 60.2578722,21.3417504 60.9768659,22.07325 C61.6958597,22.8047496 62.0553571,23.6930004 62.0553571,24.738 Z M51.5375,35.91 C51.5375,34.2031667 51.1284726,32.638569 50.3104167,31.2162083 C49.4923607,29.7938476 48.3803165,28.6688893 46.9742839,27.8413333 C45.5682513,27.0137774 44.0216146,26.6 42.334375,26.6 C40.6471354,26.6 39.1004987,27.0137774 37.6944661,27.8413333 C36.2884335,28.6688893 35.1763893,29.7938476 34.3583333,31.2162083 C33.5402774,32.638569 33.13125,34.2031667 33.13125,35.91 C33.13125,37.6168333 33.5402774,39.181431 34.3583333,40.6037917 C35.1763893,42.0261524 36.2884335,43.1511107 37.6944661,43.9786667 C39.1004987,44.8062226 40.6471354,45.22 42.334375,45.22 C44.0216146,45.22 45.5682513,44.8062226 46.9742839,43.9786667 C48.3803165,43.1511107 49.4923607,42.0261524 50.3104167,40.6037917 C51.1284726,39.181431 51.5375,37.6168333 51.5375,35.91 Z M49.4339286,36.176 C49.4339286,38.0621818 48.760626,39.6863943 47.4140219,41.0486364 C46.0674179,42.4108784 44.4618506,43.092 42.5973214,43.092 C40.7327922,43.092 39.127225,42.4108784 37.7806209,41.0486364 C36.4340169,39.6863943 35.7607143,38.0621818 35.7607143,36.176 C35.7607143,34.2898182 36.4340169,32.6656057 37.7806209,31.3033636 C39.127225,29.9411216 40.7327922,29.26 42.5973214,29.26 C44.4618506,29.26 46.0674179,29.9411216 47.4140219,31.3033636 C48.760626,32.6656057 49.4339286,34.2898182 49.4339286,36.176 Z" id="" fill="#C6D9EE" fill-rule="nonzero"></path>
                            </g>
                            <polygon id="Fill-8-Copy-5" fill="#CFCFCF" points="95 59.7142857 310.852459 59.7142857 310.852459 51.5714286 95 51.5714286"></polygon>
                        </g>
                    </g>
                    <g id="Group-3-Copy" transform="translate(0.000000, 78.714286)">
                        <rect id="Rectangle" fill="#E7E7E7" x="0" y="0" width="380" height="78.7142857"></rect>
                        <g id="Group-2" transform="translate(5.428571, 5.428571)">
                            <polygon id="Fill-8" fill="#CFCFCF" points="95 29.8571429 363.714286 29.8571429 363.714286 21.7142857 95 21.7142857"></polygon>
                            <polygon id="Fill-8-Copy-4" fill="#CFCFCF" points="95 44.7857143 363.714286 44.7857143 363.714286 36.6428571 95 36.6428571"></polygon>
                            <polygon id="Fill-10" fill="#404040" points="95 12.8174603 127.494574 12.8174603 127.494574 5.42857143 95 5.42857143"></polygon>
                            <g id="Image-Copy">
                                <rect id="Rectangle" fill="#BED0E4" x="0" y="0" width="84.1428571" height="66.5"></rect>
                                <path d="M62.0553571,24.738 L62.0553571,47.31 C62.0553571,48.3549996 61.6958597,49.2432504 60.9768659,49.97475 C60.2578722,50.7062496 59.3848071,51.072 58.357673,51.072 L26.311077,51.072 C25.2839429,51.072 24.4108778,50.7062496 23.6918841,49.97475 C22.9728903,49.2432504 22.6133929,48.3549996 22.6133929,47.31 L22.6133929,24.738 C22.6133929,23.6930004 22.9728903,22.8047496 23.6918841,22.07325 C24.4108778,21.3417504 25.2839429,20.976 26.311077,20.976 L33.0901646,20.976 L34.0145857,18.389625 C34.322726,17.6581254 34.7849365,17.0703129 35.4012172,16.6261875 C36.0174979,16.1820621 36.7108137,15.96 37.4811646,15.96 L47.1875854,15.96 C47.9579363,15.96 48.6512521,16.1820621 49.2675328,16.6261875 C49.8838135,17.0703129 50.346024,17.6581254 50.6541643,18.389625 L51.5785854,20.976 L58.357673,20.976 C59.3848071,20.976 60.2578722,21.3417504 60.9768659,22.07325 C61.6958597,22.8047496 62.0553571,23.6930004 62.0553571,24.738 Z M51.5375,35.91 C51.5375,34.2031667 51.1284726,32.638569 50.3104167,31.2162083 C49.4923607,29.7938476 48.3803165,28.6688893 46.9742839,27.8413333 C45.5682513,27.0137774 44.0216146,26.6 42.334375,26.6 C40.6471354,26.6 39.1004987,27.0137774 37.6944661,27.8413333 C36.2884335,28.6688893 35.1763893,29.7938476 34.3583333,31.2162083 C33.5402774,32.638569 33.13125,34.2031667 33.13125,35.91 C33.13125,37.6168333 33.5402774,39.181431 34.3583333,40.6037917 C35.1763893,42.0261524 36.2884335,43.1511107 37.6944661,43.9786667 C39.1004987,44.8062226 40.6471354,45.22 42.334375,45.22 C44.0216146,45.22 45.5682513,44.8062226 46.9742839,43.9786667 C48.3803165,43.1511107 49.4923607,42.0261524 50.3104167,40.6037917 C51.1284726,39.181431 51.5375,37.6168333 51.5375,35.91 Z M49.4339286,36.176 C49.4339286,38.0621818 48.760626,39.6863943 47.4140219,41.0486364 C46.0674179,42.4108784 44.4618506,43.092 42.5973214,43.092 C40.7327922,43.092 39.127225,42.4108784 37.7806209,41.0486364 C36.4340169,39.6863943 35.7607143,38.0621818 35.7607143,36.176 C35.7607143,34.2898182 36.4340169,32.6656057 37.7806209,31.3033636 C39.127225,29.9411216 40.7327922,29.26 42.5973214,29.26 C44.4618506,29.26 46.0674179,29.9411216 47.4140219,31.3033636 C48.760626,32.6656057 49.4339286,34.2898182 49.4339286,36.176 Z" id="" fill="#C6D9EE" fill-rule="nonzero"></path>
                            </g>
                            <polygon id="Fill-8-Copy-5" fill="#CFCFCF" points="95 59.7142857 310.852459 59.7142857 310.852459 51.5714286 95 51.5714286"></polygon>
                        </g>
                    </g>
                    <g id="Group-3-Copy-2" transform="translate(0.000000, 157.428571)">
                        <rect id="Rectangle" x="0" y="0" width="380" height="78.7142857"></rect>
                        <g id="Group-2" transform="translate(5.428571, 5.428571)">
                            <polygon id="Fill-8" fill="#CFCFCF" points="95 29.8571429 363.714286 29.8571429 363.714286 21.7142857 95 21.7142857"></polygon>
                            <polygon id="Fill-8-Copy-4" fill="#CFCFCF" points="95 44.7857143 363.714286 44.7857143 363.714286 36.6428571 95 36.6428571"></polygon>
                            <polygon id="Fill-10" fill="#404040" points="95 12.8174603 127.494574 12.8174603 127.494574 5.42857143 95 5.42857143"></polygon>
                            <g id="Image-Copy">
                                <rect id="Rectangle" fill="#BED0E4" x="0" y="0" width="84.1428571" height="66.5"></rect>
                                <path d="M62.0553571,24.738 L62.0553571,47.31 C62.0553571,48.3549996 61.6958597,49.2432504 60.9768659,49.97475 C60.2578722,50.7062496 59.3848071,51.072 58.357673,51.072 L26.311077,51.072 C25.2839429,51.072 24.4108778,50.7062496 23.6918841,49.97475 C22.9728903,49.2432504 22.6133929,48.3549996 22.6133929,47.31 L22.6133929,24.738 C22.6133929,23.6930004 22.9728903,22.8047496 23.6918841,22.07325 C24.4108778,21.3417504 25.2839429,20.976 26.311077,20.976 L33.0901646,20.976 L34.0145857,18.389625 C34.322726,17.6581254 34.7849365,17.0703129 35.4012172,16.6261875 C36.0174979,16.1820621 36.7108137,15.96 37.4811646,15.96 L47.1875854,15.96 C47.9579363,15.96 48.6512521,16.1820621 49.2675328,16.6261875 C49.8838135,17.0703129 50.346024,17.6581254 50.6541643,18.389625 L51.5785854,20.976 L58.357673,20.976 C59.3848071,20.976 60.2578722,21.3417504 60.9768659,22.07325 C61.6958597,22.8047496 62.0553571,23.6930004 62.0553571,24.738 Z M51.5375,35.91 C51.5375,34.2031667 51.1284726,32.638569 50.3104167,31.2162083 C49.4923607,29.7938476 48.3803165,28.6688893 46.9742839,27.8413333 C45.5682513,27.0137774 44.0216146,26.6 42.334375,26.6 C40.6471354,26.6 39.1004987,27.0137774 37.6944661,27.8413333 C36.2884335,28.6688893 35.1763893,29.7938476 34.3583333,31.2162083 C33.5402774,32.638569 33.13125,34.2031667 33.13125,35.91 C33.13125,37.6168333 33.5402774,39.181431 34.3583333,40.6037917 C35.1763893,42.0261524 36.2884335,43.1511107 37.6944661,43.9786667 C39.1004987,44.8062226 40.6471354,45.22 42.334375,45.22 C44.0216146,45.22 45.5682513,44.8062226 46.9742839,43.9786667 C48.3803165,43.1511107 49.4923607,42.0261524 50.3104167,40.6037917 C51.1284726,39.181431 51.5375,37.6168333 51.5375,35.91 Z M49.4339286,36.176 C49.4339286,38.0621818 48.760626,39.6863943 47.4140219,41.0486364 C46.0674179,42.4108784 44.4618506,43.092 42.5973214,43.092 C40.7327922,43.092 39.127225,42.4108784 37.7806209,41.0486364 C36.4340169,39.6863943 35.7607143,38.0621818 35.7607143,36.176 C35.7607143,34.2898182 36.4340169,32.6656057 37.7806209,31.3033636 C39.127225,29.9411216 40.7327922,29.26 42.5973214,29.26 C44.4618506,29.26 46.0674179,29.9411216 47.4140219,31.3033636 C48.760626,32.6656057 49.4339286,34.2898182 49.4339286,36.176 Z" id="" fill="#C6D9EE" fill-rule="nonzero"></path>
                            </g>
                            <polygon id="Fill-8-Copy-5" fill="#CFCFCF" points="95 59.7142857 310.852459 59.7142857 310.852459 51.5714286 95 51.5714286"></polygon>
                        </g>
                    </g>
                </g>
            </g>
        </g>
    </g>
</svg>