<svg width="290" height="72" viewBox="0 0 290 72" fill="none" xmlns="http://www.w3.org/2000/svg">
<path fill-rule="evenodd" clip-rule="evenodd" d="M0 24.5C0 24.5 39.8 19.3 41 19.1C42.7 18.8 44.3 18.5 45.7 18.1C48.9 17.2 51.9 15.9 54.5 14.1C57 12.4 59.4 9.9 61.7 7.2C63.2 5.5 64.7 3.2 66.2 1V0C64.5 2.6 62.8 4.8 61.1 6.7C58.8 9.3 56.4 11.4 53.9 13C51.4 14.6 48.5 15.9 45.4 16.7C44 17.1 42.5 17.3 40.8 17.6C39.7 17.8 38.6 17.9 37.5 18C37 18 0 21.9 0 21.9V24.5Z" fill="#BBBDBF"/>
<mask id="mask0_1698_40708" style="mask-type:alpha" maskUnits="userSpaceOnUse" x="0" y="5" width="67" height="23">
<path fill-rule="evenodd" clip-rule="evenodd" d="M0 5.19922H66.0999V27.9992H0V5.19922Z" fill="white"/>
</mask>
<g mask="url(#mask0_1698_40708)">
<path fill-rule="evenodd" clip-rule="evenodd" d="M53.4 17.7992C50.9 19.1992 48 20.2992 44.8 20.8992C43.4 21.1992 42 21.3992 40.3 21.5992C39.3 21.6992 38.3 21.7992 37.3 21.8992C36.8 21.8992 36.2 21.9992 35.7 21.9992C23.5 23.1992 11.4 24.2992 0 25.3992V27.9992C11.4 26.5992 23.7 25.0992 35.9 23.6992C36.4 23.5992 37 23.5992 37.5 23.4992C38.5 23.3992 39.5 23.2992 40.5 23.0992C42.2 22.8992 43.8 22.5992 45.1 22.2992C48.4 21.5992 51.4 20.3992 54 18.7992C56.6 17.1992 58.8 15.0992 61.3 12.3992C62.8 10.6992 64.5 8.39922 66.1 6.19922V5.19922C64.2 7.69922 62.5 9.89922 60.7 11.6992C58.3 14.3992 55.9 16.3992 53.4 17.7992" fill="#BBBDBF"/>
</g>
<mask id="mask1_1698_40708" style="mask-type:alpha" maskUnits="userSpaceOnUse" x="0" y="10" width="67" height="22">
<path fill-rule="evenodd" clip-rule="evenodd" d="M0 10.9004H66.0999V31.5004H0V10.9004Z" fill="white"/>
</mask>
<g mask="url(#mask1_1698_40708)">
<path fill-rule="evenodd" clip-rule="evenodd" d="M60.4 17.2004C58 19.4004 55.4 21.2004 52.9 22.5004C50.4 23.7004 47.6 24.6004 44.3 25.1004C42.9 25.3004 41.5 25.5004 39.8 25.7004L0 28.9004V31.5004L35.3 27.7004L39.9 27.2004C41.6 27.0004 43.1 26.8004 44.5 26.5004C47.9 25.9004 50.8 24.9004 53.4 23.6004C56.1 22.2004 58.7 20.0004 61.2 17.6004C62.9 16.0004 64.4 13.9004 66.1 11.8004V10.9004C64.1 13.4004 62.3 15.4004 60.4 17.2004" fill="#BBBDBF"/>
</g>
<mask id="mask2_1698_40708" style="mask-type:alpha" maskUnits="userSpaceOnUse" x="0" y="21" width="67" height="18">
<path fill-rule="evenodd" clip-rule="evenodd" d="M0 21.6992H66.1998V38.4992H0V21.6992Z" fill="white"/>
</mask>
<g mask="url(#mask2_1698_40708)">
<path fill-rule="evenodd" clip-rule="evenodd" d="M50.8 30.5992C48.5 31.8992 46.8 32.6992 43.5 32.9992C41.5 33.1992 39.5 33.2992 37.5 33.3992C36.5 33.3992 35.6 33.4992 34.6 33.5992C28.6 33.8992 22.7 34.2992 16.7 34.6992L0 35.8992V38.4992L16.8 36.8992C22.2 36.3992 28.5 35.7992 34.7 35.2992L39.2 34.9992C40.9 34.8992 42.4 34.6992 43.7 34.4992C47.1 34.0992 50 33.3992 52.6 32.3992C55.4 31.3992 58 29.6992 60.6 27.7992C63 26.0992 66.2 22.6992 66.2 22.5992V21.6992C64.1 23.7992 62.8 24.9992 60.5 26.4992C57.6 28.4992 52.9 29.4992 50.8 30.5992" fill="#BBBDBF"/>
</g>
<path fill-rule="evenodd" clip-rule="evenodd" d="M51.5996 35.6004C49.0996 36.3004 46.2996 36.8004 42.9996 37.1004C41.6996 37.2004 40.1996 37.3004 38.5996 37.4004L34.1996 37.6004C23.1996 38.1004 12.1996 38.7004 0.0996094 39.3004V41.9004C11.6996 41.0004 22.9996 40.1004 34.3996 39.3004L38.7996 39.0004C40.4996 38.9004 41.8996 38.8004 43.2996 38.6004C46.6996 38.2004 49.5996 37.6004 52.0996 36.8004C54.8996 35.9004 57.6996 34.6004 60.2996 32.9004C62.1996 31.7004 64.1996 30.2004 66.1996 28.4004C63.9996 30.3004 61.8996 30.7004 59.7996 32.0004C57.0996 33.6004 54.3996 34.8004 51.5996 35.6004" fill="#BBBDBF"/>
<path fill-rule="evenodd" clip-rule="evenodd" d="M51.2 39.9012C48.7 40.5012 45.9 40.9012 42.6 41.1002C41.3 41.2012 39.9 41.3002 38.2 41.3002L33.8 41.5012C22.7 41.9012 11.5 42.4012 0 42.9012V45.5012C11.4 44.7012 22.6 44.0012 33.9 43.2012L38.3 42.9012C40 42.8002 41.4 42.7012 42.7 42.6002C46.1 42.3002 48.9 41.8002 51.5 41.1002C54.4 40.3002 57.2 39.2012 59.9 37.8002C62 36.7012 64 35.4012 66.1 33.8002V32.7012C63.8 34.4012 61.6 35.7012 59.4 36.8002C56.8 38.2012 54 39.2012 51.2 39.9012" fill="#BBBDBF"/>
<mask id="mask3_1698_40708" style="mask-type:alpha" maskUnits="userSpaceOnUse" x="0" y="38" width="67" height="11">
<path fill-rule="evenodd" clip-rule="evenodd" d="M0 38.2012H66.1998V48.8002H0V38.2012Z" fill="white"/>
</mask>
<g mask="url(#mask3_1698_40708)">
<path fill-rule="evenodd" clip-rule="evenodd" d="M50.8 44.1002C48.3 44.6002 45.5 44.9012 42.2 45.0002C40.9 45.1002 39.6 45.1002 37.9 45.2012L0 46.2012V48.8002L33.6 47.0002L38 46.8002C39.7 46.7012 41.1 46.6002 42.4 46.5002C45.8 46.2012 48.5 45.9012 51.1 45.3002C54 44.7012 56.9 43.8002 59.6 42.6002C61.8 41.7012 63.9 40.6002 66.2 39.2012V38.2012C63.8 39.6002 61.5 40.7012 59.2 41.6002C56.5 42.8002 53.7 43.6002 50.8 44.1002" fill="#BBBDBF"/>
</g>
<path fill-rule="evenodd" clip-rule="evenodd" d="M50.5 48.2988C45.8 48.8998 41.1 48.9988 36.4 49.0988C35.3 49.0988 34.3 49.0988 33.2 49.1988L0 49.7988V52.3998L33.3 50.9988C34.4 50.9988 35.4 50.8998 36.5 50.8998C41.2 50.6988 46 50.4988 50.7 49.7988C53.7 49.2988 56.6 48.5988 59.2 47.6988C61.4 46.9988 63.7 45.9988 66 44.7988V43.7988C63.6 44.8998 61.1 45.8998 58.8 46.5988C56.3 47.2988 53.5 47.9988 50.5 48.2988" fill="#BBBDBF"/>
<mask id="mask4_1698_40708" style="mask-type:alpha" maskUnits="userSpaceOnUse" x="0" y="49" width="67" height="7">
<path fill-rule="evenodd" clip-rule="evenodd" d="M0 49.2012H66.1998V55.8002H0V49.2012Z" fill="white"/>
</mask>
<g mask="url(#mask4_1698_40708)">
<path fill-rule="evenodd" clip-rule="evenodd" d="M50.3 52.6002C45.9 53.0002 41.5 53.0002 37.1 53.0002H33.1C22.1 53.0002 11.1 53.1002 0 53.2012V55.8002C10.6 55.4012 21.9 55.1002 33.2 54.7012C34.5 54.7012 35.9 54.6002 37.2 54.6002C41.5 54.5002 46 54.4012 50.4 53.9012C53.5 53.6002 56.3 53.1002 59 52.4012C61.3 51.8002 63.7 51.0002 66.2 50.1002V49.2012C63.7 50.1002 61.2 50.8002 58.8 51.4012C56.1 52.0002 53.3 52.4012 50.3 52.6002" fill="#BBBDBF"/>
</g>
<path fill-rule="evenodd" clip-rule="evenodd" d="M50.1 56.7994C48.3 56.9004 46.3 56.9004 44.1 56.9004H41.6L33 56.7994C27.1 56.7994 21.3 56.6994 15.8 56.6994L0 56.7994V59.4004L15.9 58.9994C21.4 58.9004 27.2 58.6994 33 58.5994L41.6 58.4994C44 58.4994 47.1 58.4004 50.2 58.1994C53.3 57.9994 56.1 57.6994 58.8 57.2994C61.2 56.9004 63.7 56.4004 66.2 55.7994V54.9004C63.7 55.4994 61.1 55.9994 58.7 56.2994C55.9 56.4994 53.2 56.6994 50.1 56.7994" fill="#BBBDBF"/>
<path fill-rule="evenodd" clip-rule="evenodd" d="M41.5 60.9L32.9 60.799C22 60.599 11.1 60.4 0 60.2V62.799C10.6 62.7 21.8 62.599 32.9 62.5L41.5 62.4C44.4 62.4 47.2 62.299 50.1 62.2C56 62 61.2 61.599 66.2 60.9V60C61.3 60.5 56 60.799 50.1 60.9H41.5" fill="#BBBDBF"/>
<path fill-rule="evenodd" clip-rule="evenodd" d="M66.1 65.5008L0 63.8008V66.4008H66.1V65.5008Z" fill="#BBBDBF"/>
<path fill-rule="evenodd" clip-rule="evenodd" d="M60.2 22.0004C57.7 24.0004 55.7 25.5004 52.7 26.7004C50 27.8004 47.1 28.2004 43.9 28.7004C41.8 29.0004 39.6 29.4004 37.5 29.6004C36.6 29.7004 35.8 29.7004 34.9 29.8004L0 32.3004V34.9004L34.9 31.5004L39.4 31.1004C41.1 30.9004 42.6 30.8004 44 30.5004C47.4 30.0004 50.3 29.1004 52.9 27.9004C55.6 26.7004 58.4 24.7004 60.9 22.6004C62.6 21.1004 64.3 19.3004 66.1 17.3004V16.4004C63.9 18.6004 62.1 20.5004 60.2 22.0004" fill="#BBBDBF"/>
<path fill-rule="evenodd" clip-rule="evenodd" d="M94.2012 0C94.2012 0 106.101 18.9 108.301 22.4C110.501 25.9 113.001 28.6 121.801 30.5C130.601 32.4 134.401 33.2 134.401 33.2V33.9C134.401 33.9 128.801 32.7 121.601 31.1C114.401 29.5 111.501 29 108.201 24.4C105.501 20.6 94.2012 4.5 94.2012 4.5V0Z" fill="#BBBDBF"/>
<path fill-rule="evenodd" clip-rule="evenodd" d="M94.2012 21.5996C94.2012 21.5996 105.001 32.8996 108.201 36.1996C111.501 39.6996 115.801 40.8996 121.701 41.9996C127.301 42.9996 134.401 44.1996 134.401 44.1996V44.7996C134.401 44.7996 127.701 43.6996 121.701 42.6996C115.801 41.6996 111.601 41.0996 108.201 37.9996C105.201 35.1996 94.3012 24.9996 94.3012 24.9996L94.2012 21.5996Z" fill="#BBBDBF"/>
<path fill-rule="evenodd" clip-rule="evenodd" d="M94.2012 26.7988C94.2012 26.7988 104.501 36.3988 108.201 39.5988C111.601 42.5988 114.301 43.4988 121.701 44.8998C129.101 46.1988 134.401 46.9988 134.401 46.9988V47.6988C134.401 47.6988 127.701 46.5988 121.701 45.5988C115.701 44.5988 111.801 44.2988 108.201 41.2988C104.001 37.8998 94.2012 29.8988 94.2012 29.8988V26.7988Z" fill="#BBBDBF"/>
<path fill-rule="evenodd" clip-rule="evenodd" d="M94.2012 32.2012C94.2012 32.2012 106.001 41.5012 108.201 43.2012C110.401 44.8012 113.301 46.7012 121.701 48.0012C130.101 49.2012 134.401 49.8012 134.401 49.8012V50.5012C134.401 50.5012 126.801 49.4012 121.701 48.8012C116.601 48.2012 112.701 47.9012 108.201 44.9012C103.801 42.0012 94.2012 35.2012 94.2012 35.2012V32.2012Z" fill="#BBBDBF"/>
<path fill-rule="evenodd" clip-rule="evenodd" d="M94.2012 37.4004C94.2012 37.4004 106.001 45.2994 108.201 46.5004C110.401 47.7004 113.101 49.7994 121.701 50.9004C130.301 52.0004 134.401 52.5004 134.401 52.5004V53.2004C134.401 53.2004 127.301 52.4004 121.701 51.7994C116.101 51.2004 112.301 50.4004 108.201 48.0994C104.101 45.7994 94.2012 40.0994 94.2012 40.0994V37.4004Z" fill="#BBBDBF"/>
<path fill-rule="evenodd" clip-rule="evenodd" d="M94.2012 42.7012C94.2012 42.7012 104.601 48.4012 108.201 50.1002C112.101 52.1002 115.501 53.0012 121.701 53.8012C127.801 54.5012 134.401 55.2012 134.401 55.2012V55.8012C134.401 55.8012 128.301 55.1002 121.701 54.5012C115.201 53.9012 112.901 53.6002 108.201 51.5012C104.001 49.6002 94.2012 45.1002 94.2012 45.1002V42.7012Z" fill="#BBBDBF"/>
<path fill-rule="evenodd" clip-rule="evenodd" d="M94.1996 48C94.1996 48 102.4 51.5 108.2 53.8C113.9 56.1 118.2 56.3 121.7 56.6C123.2 56.8 134.3 57.9 134.3 57.9V58.5C134.3 58.5 127.7 58 121.6 57.4C115.6 56.9 113 56.6 108.1 55C103.2 53.4 94.0996 50.2 94.0996 50.2L94.1996 48Z" fill="#BBBDBF"/>
<path fill-rule="evenodd" clip-rule="evenodd" d="M94.2012 53.4004C94.2012 53.4004 102.501 56.0004 108.201 57.5004C113.901 59.0004 119.101 59.5994 121.701 59.7994C124.301 60.0004 134.401 60.7994 134.401 60.7994V61.4004C134.401 61.4004 128.701 61.0004 121.701 60.5004C116.001 60.0994 111.501 59.7004 108.201 58.9004C104.501 58.0994 94.2012 55.5994 94.2012 55.5994V53.4004Z" fill="#BBBDBF"/>
<path fill-rule="evenodd" clip-rule="evenodd" d="M94.2012 58.7012C94.2012 58.7012 101.001 59.9012 108.201 61.1002C113.601 62.0012 120.901 62.6002 121.701 62.6002C122.501 62.6002 134.401 63.5012 134.401 63.5012V64.1002C134.401 64.1002 126.801 63.7012 121.701 63.4012C116.401 63.1002 111.201 62.8012 108.201 62.5012C101.501 61.8012 94.2012 60.9012 94.2012 60.9012V58.7012Z" fill="#BBBDBF"/>
<path fill-rule="evenodd" clip-rule="evenodd" d="M94.2012 64.2988C94.2012 64.2988 104.901 64.6988 108.201 64.7988C111.501 64.8998 134.401 65.7988 134.401 65.7988V66.3998H94.2012V64.2988Z" fill="#BBBDBF"/>
<path fill-rule="evenodd" clip-rule="evenodd" d="M121.701 33.4004C112.001 31.3004 109.801 27.8004 108.201 25.6004C106.601 23.4004 94.3008 5.40039 94.3008 5.40039V9.50039C94.8008 10.1004 105.301 23.9004 108.301 27.7004C111.601 32.0004 116.801 33.0004 121.801 34.0004C126.801 35.1004 134.501 36.6004 134.501 36.6004V36.0004C134.401 36.0004 124.201 34.0004 121.701 33.4004" fill="#BBBDBF"/>
<path fill-rule="evenodd" clip-rule="evenodd" d="M121.701 36.3004C113.701 34.7004 110.501 32.2004 108.201 29.2004C105.901 26.1004 94.3008 10.9004 94.3008 10.9004V14.7004C94.8008 15.3004 105.401 27.8004 108.201 31.1004C111.501 34.9004 116.101 35.9004 121.701 36.9004C127.301 37.9014 134.401 39.3004 134.401 39.3004V38.7004C134.401 38.7004 126.301 37.2004 121.701 36.3004" fill="#BBBDBF"/>
<path fill-rule="evenodd" clip-rule="evenodd" d="M121.701 39.1996C113.401 37.5986 111.701 36.2996 108.201 32.3996C106.001 29.9996 94.7012 16.6996 94.2012 16.0996V19.5996C94.2012 19.5996 104.701 30.7996 108.101 34.1996C112.501 38.5986 116.701 38.8996 121.601 39.7996C126.501 40.6996 134.301 42.0986 134.301 42.0986V41.4996C134.401 41.4996 125.001 39.8996 121.701 39.1996" fill="#BBBDBF"/>
<mask id="mask5_1698_40708" style="mask-type:alpha" maskUnits="userSpaceOnUse" x="0" y="0" width="277" height="67">
<path fill-rule="evenodd" clip-rule="evenodd" d="M0 66.7H276.7V0H0V66.7Z" fill="white"/>
</mask>
<g mask="url(#mask5_1698_40708)">
<path fill-rule="evenodd" clip-rule="evenodd" d="M27.5 66.2996H85.4V27.5996H27.5V66.2996Z" fill="#004494"/>
<path fill-rule="evenodd" clip-rule="evenodd" d="M57.1004 33.0996H59.1004L57.5004 34.3996L58.1004 36.3996L56.5004 35.1996L54.9004 36.3996L55.5004 34.3996L53.9004 33.0996H55.9004L56.5004 31.0996L57.1004 33.0996Z" fill="#FFF100"/>
<path fill-rule="evenodd" clip-rule="evenodd" d="M57.1004 58.9H59.1004L57.5004 60.099L58.1004 62L56.5004 60.799L54.9004 62L55.5004 60.099L53.9004 58.9H55.9004L56.5004 57L57.1004 58.9Z" fill="#FFF100"/>
<path fill-rule="evenodd" clip-rule="evenodd" d="M63.5008 57.2008H65.5008L63.9008 58.4008L64.5008 60.3008L62.9008 59.0998L61.3008 60.3008L61.9008 58.4008L60.3008 57.2008H62.3008L62.9008 55.3008L63.5008 57.2008Z" fill="#FFF100"/>
<path fill-rule="evenodd" clip-rule="evenodd" d="M63.5004 34.8004H65.5004L63.9004 36.0004L64.5004 37.9014L62.9004 36.7004L61.3004 38.0004L62.0004 36.0004L60.4004 34.8004H62.4004L63.0004 32.9004L63.5004 34.8004Z" fill="#FFF100"/>
<path fill-rule="evenodd" clip-rule="evenodd" d="M68.2996 39.6002H70.2996L68.6996 40.8002L69.2996 42.7012L67.6996 41.5002L66.0996 42.7012L66.6996 40.8002L65.0996 39.6002H67.0996L67.6996 37.7012L68.2996 39.6002Z" fill="#FFF100"/>
<path fill-rule="evenodd" clip-rule="evenodd" d="M68.2996 52.6002H70.2996L68.6996 53.8002L69.2996 55.7012L67.6996 54.5002L66.0996 55.7012L66.6996 53.8002L65.0996 52.6002H67.0996L67.6996 50.7012L68.2996 52.6002Z" fill="#FFF100"/>
<path fill-rule="evenodd" clip-rule="evenodd" d="M70.1008 45.9996H72.1008L70.5008 47.1996L71.1008 49.0996L69.5008 47.8996L67.9008 49.0996L68.5008 47.1996L66.8008 45.9996H68.8008L69.4008 44.0996L70.1008 45.9996Z" fill="#FFF100"/>
<path fill-rule="evenodd" clip-rule="evenodd" d="M50.5008 34.8H52.5008L50.9008 36L51.5008 37.901L50.0008 36.8L48.3008 38L48.9008 36.1L47.3008 34.9H49.3008L50.0008 33L50.5008 34.8Z" fill="#FFF100"/>
<path fill-rule="evenodd" clip-rule="evenodd" d="M45.8992 39.6002H47.8992L46.2992 40.8002L46.8992 42.7012L45.2992 41.5002L43.6992 42.7012L44.2992 40.8002L42.6992 39.6002H44.6992L45.2992 37.7012L45.8992 39.6002Z" fill="#FFF100"/>
<path fill-rule="evenodd" clip-rule="evenodd" d="M44.2 45.9996H46.2L44.6 47.1996L45.2 49.0996L43.6 47.8996L42 49.0996L42.6 47.1996L41 45.9996H43L43.6 44.0996L44.2 45.9996Z" fill="#FFF100"/>
<path fill-rule="evenodd" clip-rule="evenodd" d="M45.8992 52.6002H47.8992L46.2992 53.8002L46.8992 55.7012L45.2992 54.5002L43.6992 55.7012L44.2992 53.8002L42.6992 52.6002H44.6992L45.2992 50.7012L45.8992 52.6002Z" fill="#FFF100"/>
<path fill-rule="evenodd" clip-rule="evenodd" d="M50.6004 57.2994H52.6004L51.0004 58.4994L51.6004 60.4004L50.0004 59.1994L48.4004 60.4004L49.0004 58.4994L47.4004 57.2994H49.4004L50.0004 55.4004L50.6004 57.2994Z" fill="#FFF100"/>
</g>
<path fill-rule="evenodd" clip-rule="evenodd" d="M226.4 66.7H229.7V28H226.4V66.7Z" fill="#004494"/>
<path d="M143.24 39.4809C143.24 38.6275 143.307 37.7875 143.44 36.9609C143.574 36.1342 143.834 35.4009 144.22 34.7609C144.62 34.1075 145.167 33.5809 145.86 33.1809C146.567 32.7809 147.494 32.5809 148.64 32.5809C148.88 32.5809 149.154 32.5942 149.46 32.6209C149.78 32.6342 150.107 32.6675 150.44 32.7209C150.774 32.7609 151.1 32.8209 151.42 32.9009C151.74 32.9675 152.034 33.0542 152.3 33.1609C152.46 33.2275 152.567 33.3075 152.62 33.4009C152.687 33.4942 152.707 33.6209 152.68 33.7809L152.5 34.6009C152.474 34.7209 152.427 34.8075 152.36 34.8609C152.294 34.9142 152.167 34.9275 151.98 34.9009C151.487 34.8342 150.954 34.7742 150.38 34.7209C149.82 34.6675 149.28 34.6409 148.76 34.6409C148.08 34.6409 147.534 34.7675 147.12 35.0209C146.707 35.2742 146.387 35.6209 146.16 36.0609C145.947 36.5009 145.807 37.0142 145.74 37.6009C145.674 38.1742 145.64 38.7875 145.64 39.4409C145.64 40.0942 145.68 40.7075 145.76 41.2809C145.84 41.8542 145.994 42.3542 146.22 42.7809C146.447 43.1942 146.76 43.5209 147.16 43.7609C147.574 44.0009 148.107 44.1209 148.76 44.1209C149.347 44.1209 149.894 44.0942 150.4 44.0409C150.907 43.9875 151.434 43.9275 151.98 43.8609C152.167 43.8342 152.294 43.8475 152.36 43.9009C152.427 43.9542 152.48 44.0475 152.52 44.1809L152.68 44.9409C152.76 45.2342 152.647 45.4475 152.34 45.5809C152.1 45.6875 151.814 45.7809 151.48 45.8609C151.16 45.9275 150.827 45.9875 150.48 46.0409C150.147 46.0942 149.814 46.1275 149.48 46.1409C149.16 46.1675 148.88 46.1809 148.64 46.1809C147.52 46.1809 146.607 45.9942 145.9 45.6209C145.207 45.2342 144.66 44.7275 144.26 44.1009C143.874 43.4742 143.607 42.7609 143.46 41.9609C143.314 41.1609 143.24 40.3342 143.24 39.4809Z" fill="#626366"/>
<path d="M162.811 40.9409C162.811 41.5142 162.771 42.1075 162.691 42.7209C162.624 43.3342 162.444 43.9009 162.151 44.4209C161.857 44.9275 161.417 45.3475 160.831 45.6809C160.244 46.0009 159.431 46.1609 158.391 46.1609C157.391 46.1609 156.604 46.0009 156.031 45.6809C155.457 45.3475 155.024 44.9275 154.731 44.4209C154.451 43.9009 154.277 43.3342 154.211 42.7209C154.144 42.1075 154.111 41.5142 154.111 40.9409C154.111 40.4742 154.151 39.9542 154.231 39.3809C154.324 38.8075 154.517 38.2742 154.811 37.7809C155.104 37.2742 155.531 36.8542 156.091 36.5209C156.664 36.1742 157.431 36.0009 158.391 36.0009C159.364 36.0009 160.137 36.1475 160.711 36.4409C161.297 36.7342 161.744 37.1209 162.051 37.6009C162.357 38.0675 162.557 38.5942 162.651 39.1809C162.757 39.7675 162.811 40.3542 162.811 40.9409ZM160.571 41.0809C160.571 40.5475 160.544 40.0875 160.491 39.7009C160.437 39.3009 160.331 38.9742 160.171 38.7209C160.011 38.4542 159.791 38.2542 159.511 38.1209C159.231 37.9875 158.864 37.9209 158.411 37.9209C157.984 37.9209 157.637 37.9875 157.371 38.1209C157.104 38.2542 156.891 38.4542 156.731 38.7209C156.584 38.9875 156.477 39.3209 156.411 39.7209C156.357 40.1075 156.331 40.5609 156.331 41.0809C156.331 41.6142 156.357 42.0809 156.411 42.4809C156.477 42.8675 156.584 43.1942 156.731 43.4609C156.877 43.7142 157.084 43.9075 157.351 44.0409C157.617 44.1742 157.964 44.2409 158.391 44.2409C158.844 44.2409 159.211 44.1809 159.491 44.0609C159.784 43.9275 160.011 43.7342 160.171 43.4809C160.331 43.2142 160.437 42.8809 160.491 42.4809C160.544 42.0809 160.571 41.6142 160.571 41.0809Z" fill="#626366"/>
<path d="M179.099 45.6209C179.099 45.7409 179.073 45.8342 179.019 45.9009C178.979 45.9675 178.886 46.0009 178.739 46.0009H177.299C177.046 46.0009 176.919 45.8742 176.919 45.6209V39.9409C176.919 39.1942 176.819 38.6942 176.619 38.4409C176.419 38.1742 176.066 38.0409 175.559 38.0409C175.373 38.0409 175.159 38.0742 174.919 38.1409C174.693 38.2075 174.459 38.2875 174.219 38.3809C173.993 38.4609 173.773 38.5542 173.559 38.6609C173.346 38.7675 173.159 38.8609 172.999 38.9409C172.999 39.0475 172.999 39.1875 172.999 39.3609C173.013 39.5342 173.019 39.7342 173.019 39.9609V45.6209C173.019 45.7409 172.993 45.8342 172.939 45.9009C172.886 45.9675 172.786 46.0009 172.639 46.0009H171.179C170.953 46.0009 170.839 45.8742 170.839 45.6209V39.8409C170.839 39.2275 170.746 38.7742 170.559 38.4809C170.373 38.1875 170.026 38.0409 169.519 38.0409C169.346 38.0409 169.146 38.0675 168.919 38.1209C168.706 38.1742 168.479 38.2475 168.239 38.3409C168.013 38.4342 167.786 38.5342 167.559 38.6409C167.333 38.7475 167.126 38.8475 166.939 38.9409V45.6209C166.939 45.8742 166.813 46.0009 166.559 46.0009H165.119C164.879 46.0009 164.759 45.8742 164.759 45.6209V36.6009C164.759 36.3342 164.879 36.2009 165.119 36.2009H166.539C166.806 36.2009 166.939 36.3342 166.939 36.6009V37.1809L166.959 37.2009C167.159 37.0675 167.373 36.9342 167.599 36.8009C167.826 36.6542 168.066 36.5275 168.319 36.4209C168.586 36.3142 168.853 36.2275 169.119 36.1609C169.386 36.0809 169.659 36.0342 169.939 36.0209C170.513 36.0209 171.033 36.1142 171.499 36.3009C171.979 36.4742 172.373 36.8475 172.679 37.4209C173.186 37.0475 173.739 36.7209 174.339 36.4409C174.939 36.1609 175.559 36.0209 176.199 36.0209C176.853 36.0209 177.373 36.1209 177.759 36.3209C178.146 36.5209 178.439 36.7942 178.639 37.1409C178.839 37.4742 178.966 37.8675 179.019 38.3209C179.073 38.7742 179.099 39.2475 179.099 39.7409V45.6209Z" fill="#626366"/>
<path d="M183.844 33.6009C183.844 33.7609 183.83 33.9142 183.804 34.0609C183.777 34.1942 183.717 34.3142 183.624 34.4209C183.544 34.5275 183.424 34.6142 183.264 34.6809C183.117 34.7342 182.917 34.7609 182.664 34.7609C182.397 34.7609 182.184 34.7275 182.024 34.6609C181.877 34.5942 181.764 34.5075 181.684 34.4009C181.604 34.2942 181.55 34.1742 181.524 34.0409C181.497 33.8942 181.484 33.7475 181.484 33.6009C181.484 33.2809 181.557 33.0142 181.704 32.8009C181.864 32.5742 182.184 32.4609 182.664 32.4609C183.157 32.4609 183.477 32.5675 183.624 32.7809C183.77 32.9809 183.844 33.2542 183.844 33.6009ZM183.724 45.6209C183.724 45.7275 183.697 45.8209 183.644 45.9009C183.604 45.9675 183.51 46.0009 183.364 46.0009H181.944C181.677 46.0009 181.544 45.8742 181.544 45.6209V36.5809C181.544 36.3275 181.677 36.2009 181.944 36.2009H183.364C183.51 36.2009 183.604 36.2409 183.644 36.3209C183.697 36.3875 183.724 36.4742 183.724 36.5809V45.6209Z" fill="#626366"/>
<path d="M193.525 43.0609C193.525 43.6475 193.412 44.1409 193.185 44.5409C192.959 44.9275 192.652 45.2409 192.265 45.4809C191.892 45.7209 191.465 45.8942 190.985 46.0009C190.505 46.1075 190.005 46.1609 189.485 46.1609C188.979 46.1609 188.432 46.1209 187.845 46.0409C187.259 45.9742 186.772 45.8675 186.385 45.7209C186.185 45.6409 186.059 45.5542 186.005 45.4609C185.952 45.3542 185.939 45.2209 185.965 45.0609L186.105 44.4009C186.132 44.2409 186.185 44.1475 186.265 44.1209C186.345 44.0809 186.465 44.0742 186.625 44.1009C186.839 44.1409 187.072 44.1742 187.325 44.2009C187.592 44.2275 187.852 44.2542 188.105 44.2809C188.372 44.2942 188.619 44.3075 188.845 44.3209C189.085 44.3342 189.292 44.3409 189.465 44.3409C190.105 44.3409 190.565 44.2542 190.845 44.0809C191.125 43.8942 191.265 43.6009 191.265 43.2009C191.265 42.9742 191.239 42.7875 191.185 42.6409C191.145 42.4942 191.065 42.3742 190.945 42.2809C190.825 42.1875 190.659 42.1142 190.445 42.0609C190.245 41.9942 189.985 41.9409 189.665 41.9009C189.172 41.8342 188.705 41.7475 188.265 41.6409C187.825 41.5342 187.432 41.3809 187.085 41.1809C186.752 40.9675 186.485 40.6942 186.285 40.3609C186.085 40.0142 185.985 39.5675 185.985 39.0209C185.985 38.0342 186.332 37.2875 187.025 36.7809C187.719 36.2609 188.625 36.0009 189.745 36.0009C189.945 36.0009 190.179 36.0075 190.445 36.0209C190.712 36.0342 190.979 36.0609 191.245 36.1009C191.525 36.1409 191.799 36.1875 192.065 36.2409C192.332 36.2942 192.572 36.3609 192.785 36.4409C193.119 36.5742 193.259 36.7742 193.205 37.0409L193.045 37.7609C193.019 37.9075 192.965 38.0009 192.885 38.0409C192.819 38.0675 192.692 38.0675 192.505 38.0409C192.079 37.9875 191.612 37.9409 191.105 37.9009C190.599 37.8475 190.159 37.8209 189.785 37.8209C189.145 37.8209 188.719 37.9142 188.505 38.1009C188.305 38.2742 188.205 38.5542 188.205 38.9409C188.205 39.3275 188.332 39.5809 188.585 39.7009C188.852 39.8209 189.292 39.9275 189.905 40.0209C190.385 40.0875 190.839 40.1742 191.265 40.2809C191.705 40.3875 192.092 40.5475 192.425 40.7609C192.759 40.9742 193.025 41.2609 193.225 41.6209C193.425 41.9809 193.525 42.4609 193.525 43.0609Z" fill="#626366"/>
<path d="M202.705 43.0609C202.705 43.6475 202.592 44.1409 202.365 44.5409C202.138 44.9275 201.832 45.2409 201.445 45.4809C201.072 45.7209 200.645 45.8942 200.165 46.0009C199.685 46.1075 199.185 46.1609 198.665 46.1609C198.158 46.1609 197.612 46.1209 197.025 46.0409C196.438 45.9742 195.952 45.8675 195.565 45.7209C195.365 45.6409 195.238 45.5542 195.185 45.4609C195.132 45.3542 195.118 45.2209 195.145 45.0609L195.285 44.4009C195.312 44.2409 195.365 44.1475 195.445 44.1209C195.525 44.0809 195.645 44.0742 195.805 44.1009C196.018 44.1409 196.252 44.1742 196.505 44.2009C196.772 44.2275 197.032 44.2542 197.285 44.2809C197.552 44.2942 197.798 44.3075 198.025 44.3209C198.265 44.3342 198.472 44.3409 198.645 44.3409C199.285 44.3409 199.745 44.2542 200.025 44.0809C200.305 43.8942 200.445 43.6009 200.445 43.2009C200.445 42.9742 200.418 42.7875 200.365 42.6409C200.325 42.4942 200.245 42.3742 200.125 42.2809C200.005 42.1875 199.838 42.1142 199.625 42.0609C199.425 41.9942 199.165 41.9409 198.845 41.9009C198.352 41.8342 197.885 41.7475 197.445 41.6409C197.005 41.5342 196.612 41.3809 196.265 41.1809C195.932 40.9675 195.665 40.6942 195.465 40.3609C195.265 40.0142 195.165 39.5675 195.165 39.0209C195.165 38.0342 195.512 37.2875 196.205 36.7809C196.898 36.2609 197.805 36.0009 198.925 36.0009C199.125 36.0009 199.358 36.0075 199.625 36.0209C199.892 36.0342 200.158 36.0609 200.425 36.1009C200.705 36.1409 200.978 36.1875 201.245 36.2409C201.512 36.2942 201.752 36.3609 201.965 36.4409C202.298 36.5742 202.438 36.7742 202.385 37.0409L202.225 37.7609C202.198 37.9075 202.145 38.0009 202.065 38.0409C201.998 38.0675 201.872 38.0675 201.685 38.0409C201.258 37.9875 200.792 37.9409 200.285 37.9009C199.778 37.8475 199.338 37.8209 198.965 37.8209C198.325 37.8209 197.898 37.9142 197.685 38.1009C197.485 38.2742 197.385 38.5542 197.385 38.9409C197.385 39.3275 197.512 39.5809 197.765 39.7009C198.032 39.8209 198.472 39.9275 199.085 40.0209C199.565 40.0875 200.018 40.1742 200.445 40.2809C200.885 40.3875 201.272 40.5475 201.605 40.7609C201.938 40.9742 202.205 41.2609 202.405 41.6209C202.605 41.9809 202.705 42.4609 202.705 43.0609Z" fill="#626366"/>
<path d="M207.145 33.6009C207.145 33.7609 207.131 33.9142 207.105 34.0609C207.078 34.1942 207.018 34.3142 206.925 34.4209C206.845 34.5275 206.725 34.6142 206.565 34.6809C206.418 34.7342 206.218 34.7609 205.965 34.7609C205.698 34.7609 205.485 34.7275 205.325 34.6609C205.178 34.5942 205.065 34.5075 204.985 34.4009C204.905 34.2942 204.851 34.1742 204.825 34.0409C204.798 33.8942 204.785 33.7475 204.785 33.6009C204.785 33.2809 204.858 33.0142 205.005 32.8009C205.165 32.5742 205.485 32.4609 205.965 32.4609C206.458 32.4609 206.778 32.5675 206.925 32.7809C207.071 32.9809 207.145 33.2542 207.145 33.6009ZM207.025 45.6209C207.025 45.7275 206.998 45.8209 206.945 45.9009C206.905 45.9675 206.811 46.0009 206.665 46.0009H205.245C204.978 46.0009 204.845 45.8742 204.845 45.6209V36.5809C204.845 36.3275 204.978 36.2009 205.245 36.2009H206.665C206.811 36.2009 206.905 36.2409 206.945 36.3209C206.998 36.3875 207.025 36.4742 207.025 36.5809V45.6209Z" fill="#626366"/>
<path d="M218.006 40.9409C218.006 41.5142 217.966 42.1075 217.886 42.7209C217.819 43.3342 217.639 43.9009 217.346 44.4209C217.053 44.9275 216.613 45.3475 216.026 45.6809C215.439 46.0009 214.626 46.1609 213.586 46.1609C212.586 46.1609 211.799 46.0009 211.226 45.6809C210.653 45.3475 210.219 44.9275 209.926 44.4209C209.646 43.9009 209.473 43.3342 209.406 42.7209C209.339 42.1075 209.306 41.5142 209.306 40.9409C209.306 40.4742 209.346 39.9542 209.426 39.3809C209.519 38.8075 209.713 38.2742 210.006 37.7809C210.299 37.2742 210.726 36.8542 211.286 36.5209C211.859 36.1742 212.626 36.0009 213.586 36.0009C214.559 36.0009 215.333 36.1475 215.906 36.4409C216.493 36.7342 216.939 37.1209 217.246 37.6009C217.553 38.0675 217.753 38.5942 217.846 39.1809C217.953 39.7675 218.006 40.3542 218.006 40.9409ZM215.766 41.0809C215.766 40.5475 215.739 40.0875 215.686 39.7009C215.633 39.3009 215.526 38.9742 215.366 38.7209C215.206 38.4542 214.986 38.2542 214.706 38.1209C214.426 37.9875 214.059 37.9209 213.606 37.9209C213.179 37.9209 212.833 37.9875 212.566 38.1209C212.299 38.2542 212.086 38.4542 211.926 38.7209C211.779 38.9875 211.673 39.3209 211.606 39.7209C211.553 40.1075 211.526 40.5609 211.526 41.0809C211.526 41.6142 211.553 42.0809 211.606 42.4809C211.673 42.8675 211.779 43.1942 211.926 43.4609C212.073 43.7142 212.279 43.9075 212.546 44.0409C212.813 44.1742 213.159 44.2409 213.586 44.2409C214.039 44.2409 214.406 44.1809 214.686 44.0609C214.979 43.9275 215.206 43.7342 215.366 43.4809C215.526 43.2142 215.633 42.8809 215.686 42.4809C215.739 42.0809 215.766 41.6142 215.766 41.0809ZM216.186 31.8209C216.386 31.9275 216.413 32.0742 216.266 32.2609L214.226 35.0609C214.119 35.2075 213.993 35.2475 213.846 35.1809L213.066 34.8209C212.919 34.7409 212.886 34.6142 212.966 34.4409L214.566 31.3409C214.646 31.1675 214.793 31.1275 215.006 31.2209L216.186 31.8209Z" fill="#626366"/>
<path d="M143.42 53.1207C143.42 52.854 143.553 52.7207 143.82 52.7207H151.18C151.433 52.7207 151.56 52.8474 151.56 53.1007V54.3407C151.56 54.5807 151.427 54.7007 151.16 54.7007H145.7V58.1407H150.54C150.807 58.1407 150.94 58.2607 150.94 58.5007V59.7407C150.94 59.9807 150.807 60.1007 150.54 60.1007H145.7V64.0407H151.3C151.54 64.0407 151.66 64.1674 151.66 64.4207V65.6407C151.66 65.8807 151.533 66.0007 151.28 66.0007H143.82C143.553 66.0007 143.42 65.8807 143.42 65.6407V53.1207Z" fill="#626366"/>
<path d="M162.126 65.6207C162.126 65.874 162 66.0007 161.746 66.0007H160.326C160.18 66.0007 160.08 65.9674 160.026 65.9007C159.973 65.834 159.946 65.7407 159.946 65.6207V65.0007L159.906 64.9807C159.706 65.114 159.473 65.254 159.206 65.4007C158.953 65.534 158.68 65.6607 158.386 65.7807C158.093 65.9007 157.786 65.994 157.466 66.0607C157.16 66.1407 156.853 66.1807 156.546 66.1807C155.866 66.1807 155.326 66.0874 154.926 65.9007C154.54 65.714 154.246 65.454 154.046 65.1207C153.846 64.7874 153.72 64.394 153.666 63.9407C153.613 63.4874 153.586 63.0007 153.586 62.4807V56.6007C153.586 56.334 153.713 56.2007 153.966 56.2007H155.426C155.666 56.2007 155.786 56.334 155.786 56.6007V62.2207C155.786 62.5274 155.806 62.8007 155.846 63.0407C155.886 63.2807 155.96 63.4874 156.066 63.6607C156.173 63.8207 156.32 63.9474 156.506 64.0407C156.693 64.134 156.94 64.1807 157.246 64.1807C157.46 64.1807 157.693 64.1474 157.946 64.0807C158.213 64.014 158.473 63.934 158.726 63.8407C158.98 63.734 159.213 63.634 159.426 63.5407C159.64 63.434 159.813 63.3474 159.946 63.2807V56.6007C159.946 56.4807 159.973 56.3874 160.026 56.3207C160.08 56.2407 160.18 56.2007 160.326 56.2007H161.746C162 56.2007 162.126 56.334 162.126 56.6007V65.6207Z" fill="#626366"/>
<path d="M166.831 65.6207C166.831 65.874 166.705 66.0007 166.451 66.0007H165.011C164.758 66.0007 164.631 65.874 164.631 65.6207V56.6007C164.631 56.334 164.758 56.2007 165.011 56.2007H166.431C166.698 56.2007 166.831 56.334 166.831 56.6007V57.4807L166.871 57.5207C167.018 57.3874 167.211 57.2474 167.451 57.1007C167.691 56.9407 167.945 56.8007 168.211 56.6807C168.491 56.5474 168.771 56.4274 169.051 56.3207C169.331 56.214 169.591 56.1407 169.831 56.1007C169.965 56.074 170.071 56.0807 170.151 56.1207C170.231 56.1607 170.285 56.2674 170.311 56.4407L170.451 57.7807C170.465 57.9274 170.458 58.034 170.431 58.1007C170.405 58.1674 170.285 58.2207 170.071 58.2607C169.791 58.314 169.498 58.3807 169.191 58.4607C168.885 58.5274 168.585 58.6074 168.291 58.7007C167.998 58.7807 167.725 58.8607 167.471 58.9407C167.218 59.0207 167.005 59.1007 166.831 59.1807V65.6207Z" fill="#626366"/>
<path d="M180.056 60.9407C180.056 61.514 180.016 62.1074 179.936 62.7207C179.87 63.334 179.69 63.9007 179.396 64.4207C179.103 64.9274 178.663 65.3474 178.076 65.6807C177.49 66.0007 176.676 66.1607 175.636 66.1607C174.636 66.1607 173.85 66.0007 173.276 65.6807C172.703 65.3474 172.27 64.9274 171.976 64.4207C171.696 63.9007 171.523 63.334 171.456 62.7207C171.39 62.1074 171.356 61.514 171.356 60.9407C171.356 60.474 171.396 59.954 171.476 59.3807C171.57 58.8074 171.763 58.274 172.056 57.7807C172.35 57.274 172.776 56.854 173.336 56.5207C173.91 56.174 174.676 56.0007 175.636 56.0007C176.61 56.0007 177.383 56.1474 177.956 56.4407C178.543 56.734 178.99 57.1207 179.296 57.6007C179.603 58.0674 179.803 58.594 179.896 59.1807C180.003 59.7674 180.056 60.354 180.056 60.9407ZM177.816 61.0807C177.816 60.5474 177.79 60.0874 177.736 59.7007C177.683 59.3007 177.576 58.974 177.416 58.7207C177.256 58.454 177.036 58.254 176.756 58.1207C176.476 57.9874 176.11 57.9207 175.656 57.9207C175.23 57.9207 174.883 57.9874 174.616 58.1207C174.35 58.254 174.136 58.454 173.976 58.7207C173.83 58.9874 173.723 59.3207 173.656 59.7207C173.603 60.1074 173.576 60.5607 173.576 61.0807C173.576 61.614 173.603 62.0807 173.656 62.4807C173.723 62.8674 173.83 63.194 173.976 63.4607C174.123 63.714 174.33 63.9074 174.596 64.0407C174.863 64.174 175.21 64.2407 175.636 64.2407C176.09 64.2407 176.456 64.1807 176.736 64.0607C177.03 63.9274 177.256 63.734 177.416 63.4807C177.576 63.214 177.683 62.8807 177.736 62.4807C177.79 62.0807 177.816 61.614 177.816 61.0807Z" fill="#626366"/>
<path d="M190.665 61.0407C190.665 61.854 190.605 62.5807 190.485 63.2207C190.365 63.8607 190.152 64.4007 189.845 64.8407C189.552 65.2807 189.145 65.614 188.625 65.8407C188.119 66.0674 187.472 66.1807 186.685 66.1807C186.352 66.1807 185.965 66.1474 185.525 66.0807C185.099 66.014 184.652 65.9007 184.185 65.7407L184.165 65.7607V69.2807C184.165 69.3874 184.139 69.4807 184.085 69.5607C184.045 69.6407 183.945 69.6807 183.785 69.6807H182.365C182.205 69.6807 182.099 69.6474 182.045 69.5807C182.005 69.514 181.985 69.414 181.985 69.2807V56.6007C181.985 56.334 182.112 56.2007 182.365 56.2007H183.785C183.932 56.2007 184.025 56.2407 184.065 56.3207C184.119 56.3874 184.145 56.4807 184.145 56.6007V57.2007L184.205 57.2407C184.379 57.1207 184.585 56.994 184.825 56.8607C185.079 56.714 185.345 56.5807 185.625 56.4607C185.905 56.3407 186.192 56.2407 186.485 56.1607C186.779 56.0807 187.072 56.0407 187.365 56.0407C188.019 56.0407 188.559 56.1607 188.985 56.4007C189.412 56.6407 189.745 56.9807 189.985 57.4207C190.239 57.8474 190.412 58.3674 190.505 58.9807C190.612 59.594 190.665 60.2807 190.665 61.0407ZM188.405 61.0207C188.405 60.3807 188.372 59.8674 188.305 59.4807C188.252 59.094 188.159 58.794 188.025 58.5807C187.892 58.3674 187.725 58.2274 187.525 58.1607C187.339 58.0807 187.112 58.0407 186.845 58.0407C186.645 58.0407 186.419 58.074 186.165 58.1407C185.912 58.2074 185.659 58.2874 185.405 58.3807C185.165 58.4607 184.932 58.554 184.705 58.6607C184.492 58.7674 184.312 58.8607 184.165 58.9407V63.9407C184.619 64.074 185.025 64.1674 185.385 64.2207C185.759 64.2607 186.119 64.2807 186.465 64.2807C186.825 64.2807 187.125 64.234 187.365 64.1407C187.619 64.034 187.819 63.854 187.965 63.6007C188.125 63.3474 188.239 63.014 188.305 62.6007C188.372 62.174 188.405 61.6474 188.405 61.0207Z" fill="#626366"/>
<path d="M194.515 61.7007C194.528 62.2074 194.582 62.6274 194.675 62.9607C194.782 63.294 194.935 63.5607 195.135 63.7607C195.335 63.9474 195.582 64.0807 195.875 64.1607C196.168 64.2407 196.522 64.2807 196.935 64.2807C197.295 64.2807 197.722 64.254 198.215 64.2007C198.708 64.1474 199.148 64.1007 199.535 64.0607C199.722 64.034 199.848 64.0407 199.915 64.0807C199.995 64.1074 200.048 64.214 200.075 64.4007L200.195 65.0607C200.222 65.2074 200.215 65.3274 200.175 65.4207C200.148 65.514 200.042 65.6007 199.855 65.6807C199.655 65.7607 199.422 65.834 199.155 65.9007C198.888 65.954 198.608 66.0007 198.315 66.0407C198.022 66.0807 197.728 66.114 197.435 66.1407C197.142 66.1674 196.875 66.1807 196.635 66.1807C195.675 66.1807 194.908 66.0407 194.335 65.7607C193.762 65.4807 193.322 65.1074 193.015 64.6407C192.708 64.174 192.502 63.6407 192.395 63.0407C192.302 62.4274 192.255 61.794 192.255 61.1407C192.255 60.6607 192.295 60.1207 192.375 59.5207C192.455 58.9207 192.635 58.3607 192.915 57.8407C193.208 57.3207 193.635 56.8874 194.195 56.5407C194.768 56.1807 195.542 56.0007 196.515 56.0007C197.408 56.0007 198.128 56.134 198.675 56.4007C199.235 56.6674 199.668 57.014 199.975 57.4407C200.282 57.854 200.488 58.334 200.595 58.8807C200.715 59.414 200.782 59.9474 200.795 60.4807C200.808 60.8407 200.748 61.134 200.615 61.3607C200.482 61.5874 200.215 61.7007 199.815 61.7007H194.515ZM196.515 57.8007C196.142 57.8007 195.835 57.854 195.595 57.9607C195.355 58.0674 195.155 58.2274 194.995 58.4407C194.848 58.6407 194.742 58.894 194.675 59.2007C194.608 59.494 194.562 59.8274 194.535 60.2007H198.495C198.495 59.894 198.468 59.6007 198.415 59.3207C198.362 59.0274 198.262 58.7674 198.115 58.5407C197.982 58.314 197.782 58.134 197.515 58.0007C197.262 57.8674 196.928 57.8007 196.515 57.8007Z" fill="#626366"/>
<path d="M208.671 61.5407H206.231C205.725 61.5407 205.325 61.6607 205.031 61.9007C204.738 62.1274 204.591 62.5674 204.591 63.2207C204.591 63.6607 204.678 63.9674 204.851 64.1407C205.038 64.3007 205.365 64.3807 205.831 64.3807C206.045 64.3807 206.278 64.354 206.531 64.3007C206.785 64.2474 207.038 64.174 207.291 64.0807C207.545 63.9874 207.791 63.8874 208.031 63.7807C208.271 63.6607 208.485 63.5474 208.671 63.4407V61.5407ZM208.791 64.8607C208.285 65.2474 207.711 65.5607 207.071 65.8007C206.445 66.0407 205.791 66.1607 205.111 66.1607C204.578 66.1607 204.131 66.094 203.771 65.9607C203.425 65.814 203.145 65.6207 202.931 65.3807C202.731 65.1274 202.585 64.8274 202.491 64.4807C202.411 64.134 202.371 63.7474 202.371 63.3207C202.358 62.1474 202.665 61.3007 203.291 60.7807C203.918 60.2474 204.865 59.9807 206.131 59.9807H208.691V59.4607C208.691 59.1674 208.658 58.9207 208.591 58.7207C208.538 58.5074 208.431 58.334 208.271 58.2007C208.111 58.0674 207.898 57.974 207.631 57.9207C207.365 57.8674 207.025 57.8407 206.611 57.8407C206.451 57.8407 206.251 57.8474 206.011 57.8607C205.785 57.874 205.545 57.8874 205.291 57.9007C205.051 57.914 204.805 57.934 204.551 57.9607C204.311 57.9874 204.091 58.0074 203.891 58.0207C203.691 58.0474 203.551 58.054 203.471 58.0407C203.405 58.014 203.358 57.9274 203.331 57.7807L203.151 57.0407C203.125 56.9074 203.138 56.8007 203.191 56.7207C203.245 56.6274 203.385 56.534 203.611 56.4407C203.825 56.3607 204.078 56.294 204.371 56.2407C204.665 56.1874 204.965 56.1474 205.271 56.1207C205.578 56.0807 205.878 56.054 206.171 56.0407C206.478 56.014 206.751 56.0007 206.991 56.0007C207.858 56.0007 208.545 56.0874 209.051 56.2607C209.571 56.434 209.965 56.6807 210.231 57.0007C210.498 57.3074 210.671 57.6874 210.751 58.1407C210.831 58.594 210.871 59.1007 210.871 59.6607V63.5207C210.871 63.7207 210.878 63.8807 210.891 64.0007C210.918 64.1074 210.951 64.194 210.991 64.2607C211.045 64.314 211.118 64.354 211.211 64.3807C211.305 64.4074 211.431 64.4274 211.591 64.4407C211.738 64.454 211.838 64.4807 211.891 64.5207C211.945 64.5607 211.971 64.634 211.971 64.7407V65.5807C211.971 65.8074 211.811 65.9474 211.491 66.0007C211.331 66.0274 211.171 66.0474 211.011 66.0607C210.851 66.0874 210.698 66.1007 210.551 66.1007C210.085 66.1007 209.705 66.014 209.411 65.8407C209.131 65.6674 208.938 65.3474 208.831 64.8807L208.791 64.8607Z" fill="#626366"/>
</svg>
