<?xml version="1.0" encoding="UTF-8"?>
<svg width="300px" height="90px" viewBox="0 0 300 90" version="1.1" xmlns="http://www.w3.org/2000/svg" xmlns:xlink="http://www.w3.org/1999/xlink">
    <!-- Generator: Sketch 55.1 (78136) - https://sketchapp.com -->
    <title>expandables</title>
    <desc>Created with Sketch.</desc>
    <g id="thumbnails---final" stroke="none" stroke-width="1" fill="none" fill-rule="evenodd">
        <g id="thumbnails---final_symbols" transform="translate(-580.000000, -513.000000)">
            <g id="Group-2" transform="translate(20.000000, 20.000000)">
                <g id="Group" transform="translate(0.000000, 365.000000)">
                    <g id="ec_comp_expandables" transform="translate(480.000000, 0.000000)">
                        <g id="expandables" transform="translate(80.000000, 128.000000)">
                            <g id="Group-5">
                                <g id="Group-7-Copy">
                                    <rect id="Rectangle" stroke="#004494" stroke-width="2" fill="#FFFFFF" x="1" y="1" width="118" height="28"></rect>
                                    <rect id="Rectangle" fill="#044695" x="10" y="10" width="80" height="10"></rect>
                                    <g id="Group-11" transform="translate(97.000000, 11.000000)" fill="#044695" fill-rule="nonzero">
                                        <g id="Group-13">
                                            <path d="M4.68359212,-2.21091077 C4.73827949,-2.26559814 4.81119612,-2.29294183 4.9023416,-2.29294183 C4.99348708,-2.29294183 5.07551813,-2.26559814 5.14843476,-2.21091077 L10.8632649,3.53126304 C10.9361815,3.58595041 10.9726396,3.65886704 10.9726396,3.75001252 C10.9726396,3.84115799 10.9361815,3.91407463 10.8632649,3.968762 L5.14843476,9.7109358 C5.07551813,9.76562317 4.99348708,9.79296686 4.9023416,9.79296686 C4.81119612,9.79296686 4.73827949,9.76562317 4.68359212,9.7109358 L4.13671842,9.16406211 C4.06380179,9.10937474 4.02734368,9.03645811 4.02734368,8.94531263 C4.02734368,8.85416715 4.06380179,8.7721361 4.13671842,8.69921947 L9.08592537,3.75001252 L4.13671842,-1.19919443 C4.06380179,-1.27211107 4.02734368,-1.35414212 4.02734368,-1.4452876 C4.02734368,-1.53643307 4.06380179,-1.60934971 4.13671842,-1.66403707 L4.68359212,-2.21091077 Z" id="ï”" transform="translate(7.499992, 3.750013) rotate(-90.000000) translate(-7.499992, -3.750013) "></path>
                                        </g>
                                    </g>
                                </g>
                                <polygon id="Fill-8" fill="#CFCFCF" points="0 50 300 50 300 40 0 40"></polygon>
                                <polygon id="Fill-8-Copy-4" fill="#CFCFCF" points="0 70 300 70 300 60 0 60"></polygon>
                                <polygon id="Fill-8-Copy-5" fill="#CFCFCF" points="0 90 240 90 240 80 0 80"></polygon>
                            </g>
                        </g>
                    </g>
                </g>
            </g>
        </g>
    </g>
</svg>
