<?xml version="1.0" encoding="UTF-8"?>
<svg width="460px" height="345px" viewBox="0 0 460 345" version="1.1" xmlns="http://www.w3.org/2000/svg" xmlns:xlink="http://www.w3.org/1999/xlink">
    <!-- Generator: Sketch 55 (78076) - https://sketchapp.com -->
    <title>ec_component</title>
    <desc>Created with Sketch.</desc>
    <g id="Symbols" stroke="none" stroke-width="1" fill="none" fill-rule="evenodd">
        <g id="ecl-component-library">
            <g id="breadcrumb" transform="translate(40.000000, 138.000000)">
                <g id="Group-7-Copy">
                    <rect id="Rectangle" fill="#044695" x="0" y="0" width="380" height="70"></rect>
                    <g id="Stacked-Group" transform="translate(76.000000, 30.000000)" fill-rule="nonzero">
                        <path d="M7.02291525,6.44459103 L8.25925424,6.76781003 C8.0000891,7.81882672 7.53381128,8.62026989 6.86040678,9.17216359 C6.18700228,9.72405729 5.36384667,10 4.39091525,10 C3.38399497,10 2.5650879,9.78782094 1.93416949,9.36345646 C1.30325108,8.93909199 0.823165488,8.32454228 0.493898305,7.51978892 C0.164631122,6.71503555 0,5.8509281 0,4.92744063 C0,3.92039954 0.185873847,3.04200023 0.557627119,2.29221636 C0.92938039,1.54243249 1.45832425,0.972957091 2.14447458,0.583773087 C2.8306249,0.194589083 3.58580379,0 4.4100339,0 C5.34472784,0 6.13070868,0.246259631 6.768,0.73878628 C7.40529132,1.23131293 7.84926428,1.92391814 8.0999322,2.81662269 L6.88271186,3.11345646 C6.66603281,2.40984697 6.35164048,1.89753898 5.93952542,1.57651715 C5.52741037,1.25549532 5.00908787,1.09498681 4.38454237,1.09498681 C3.66652748,1.09498681 3.06642049,1.27308529 2.58420339,1.6292876 C2.10198629,1.98548991 1.76316482,2.46371732 1.56772881,3.06398417 C1.37229281,3.66425102 1.27457627,4.28319822 1.27457627,4.92084433 C1.27457627,5.74318793 1.39034912,6.46107873 1.62189831,7.07453826 C1.85344749,7.68799779 2.21351168,8.14643648 2.70210169,8.44986807 C3.19069171,8.75329967 3.71963557,8.90501319 4.28894915,8.90501319 C4.98147239,8.90501319 5.56777161,8.698331 6.04786441,8.28496042 C6.5279572,7.87158984 6.8529709,7.25813951 7.02291525,6.44459103 Z M9.62305085,9.83509235 L9.62305085,2.8298153 L10.6554576,2.8298153 L10.6554576,3.89182058 C10.9188714,3.39489637 11.1621006,3.06728311 11.3851525,2.90897098 C11.6082045,2.75065884 11.853558,2.67150396 12.1212203,2.67150396 C12.5078437,2.67150396 12.9008342,2.79903127 13.3002034,3.05408971 L12.9050847,4.15567282 C12.6246766,3.98416801 12.3442726,3.89841689 12.0638644,3.89841689 C11.8131965,3.89841689 11.5880236,3.97647239 11.388339,4.13258575 C11.1886544,4.28869911 11.0463281,4.50527566 10.9613559,4.7823219 C10.8338977,5.2044876 10.7701695,5.66622441 10.7701695,6.16754617 L10.7701695,9.83509235 L9.62305085,9.83509235 Z M18.4176271,9.83509235 L18.4176271,8.8060686 C17.8907996,9.59762929 17.1749198,9.99340369 16.2699661,9.99340369 C15.8705969,9.99340369 15.497787,9.91424881 15.1515254,9.75593668 C14.8052638,9.59762454 14.5482268,9.39863796 14.3804068,9.15897098 C14.2125867,8.91930399 14.0946896,8.62577131 14.0267119,8.27836412 C13.9799772,8.04529347 13.9566102,7.67590402 13.9566102,7.1701847 L13.9566102,2.8298153 L15.1037288,2.8298153 L15.1037288,6.71503958 C15.1037288,7.33509545 15.1270958,7.75285732 15.1738305,7.96833773 C15.2460569,8.28056445 15.3990045,8.5257247 15.632678,8.70382586 C15.8663515,8.88192701 16.1552525,8.97097625 16.4993898,8.97097625 C16.8435271,8.97097625 17.1664166,8.87972827 17.4680678,8.69722955 C17.769719,8.51473084 17.9832084,8.26627246 18.1085424,7.95184697 C18.2338763,7.63742147 18.2965424,7.18118153 18.2965424,6.58311346 L18.2965424,2.8298153 L19.443661,2.8298153 L19.443661,9.83509235 L18.4176271,9.83509235 Z M21.2408136,9.83509235 L21.2408136,2.8298153 L22.2668475,2.8298153 L22.2668475,3.81266491 C22.4792779,3.46965528 22.7618061,3.19371257 23.1144407,2.9848285 C23.4670752,2.77594443 23.8685627,2.67150396 24.3189153,2.67150396 C24.8202511,2.67150396 25.2312978,2.77924255 25.5520678,2.99472296 C25.8728378,3.21020336 26.0990728,3.51143166 26.2307797,3.89841689 C26.7661044,3.08047084 27.4628658,2.67150396 28.3210847,2.67150396 C28.9923649,2.67150396 29.5085632,2.86389429 29.8696949,3.24868074 C30.2308267,3.63346718 30.4113898,4.22602942 30.4113898,5.02638522 L30.4113898,9.83509235 L29.2706441,9.83509235 L29.2706441,5.42216359 C29.2706441,4.94722718 29.2334693,4.60532206 29.1591186,4.39643799 C29.084768,4.18755392 28.9498767,4.0193498 28.7544407,3.89182058 C28.5590047,3.76429136 28.3295832,3.7005277 28.0661695,3.7005277 C27.5903253,3.7005277 27.1952106,3.86433433 26.8808136,4.19195251 C26.5664165,4.51957068 26.4092203,5.04397177 26.4092203,5.7651715 L26.4092203,9.83509235 L25.2621017,9.83509235 L25.2621017,5.28364116 C25.2621017,4.75593404 25.1686337,4.36015963 24.9816949,4.09630607 C24.7947561,3.83245251 24.4888609,3.7005277 24.064,3.7005277 C23.7411057,3.7005277 23.4426454,3.78847757 23.1686102,3.96437995 C22.8945749,4.14028232 22.6959554,4.39753569 22.5727458,4.73614776 C22.4495361,5.07475983 22.3879322,5.5628816 22.3879322,6.2005277 L22.3879322,9.83509235 L21.2408136,9.83509235 Z M33.1708475,9.83509235 L32.1065763,9.83509235 L32.1065763,0.164907652 L33.2536949,0.164907652 L33.2536949,3.61477573 C33.7380363,2.98592474 34.3561996,2.67150396 35.1082034,2.67150396 C35.5245671,2.67150396 35.9186196,2.75835445 36.2903729,2.93205805 C36.6621262,3.10576164 36.9680214,3.34982253 37.2080678,3.66424802 C37.4481142,3.97867352 37.6361123,4.35795732 37.7720678,4.80211082 C37.9080233,5.24626431 37.976,5.7211936 37.976,6.22691293 C37.976,7.42744664 37.6892232,8.35531774 37.115661,9.01055409 C36.5420988,9.66579044 35.8538345,9.99340369 35.0508475,9.99340369 C34.252109,9.99340369 33.6254486,9.64820046 33.1708475,8.95778364 L33.1708475,9.83509235 Z M33.1581017,6.27968338 C33.1581017,7.11961722 33.2685639,7.72647131 33.4894915,8.10026385 C33.8506233,8.7115246 34.339206,9.0171504 34.9552542,9.0171504 C35.4565901,9.0171504 35.8899417,8.79177886 36.255322,8.34102902 C36.6207024,7.89027919 36.8033898,7.21856207 36.8033898,6.32585752 C36.8033898,5.41116517 36.6281373,4.73614993 36.2776271,4.30079156 C35.9271169,3.86543318 35.5033245,3.64775726 35.0062373,3.64775726 C34.5049014,3.64775726 34.0715498,3.87312879 33.7061695,4.32387863 C33.3407891,4.77462846 33.1581017,5.42655686 33.1581017,6.27968338 Z M47,9.83509235 L45.8528814,9.83509235 L45.8528814,2.26912929 C45.5767218,2.54177797 45.2145333,2.81442256 44.7663051,3.08707124 C44.3180769,3.35971992 43.9155272,3.56420336 43.5586441,3.7005277 L43.5586441,2.55277045 C44.200184,2.24054373 44.7609919,1.8623593 45.2410847,1.4182058 C45.7211775,0.974052309 46.0610611,0.543097955 46.2607458,0.125329815 L47,0.125329815 L47,9.83509235 Z" id="Crumb1" fill="#FFFFFF"></path>
                        <path d="M183.051188,6.44034278 L184.292505,6.76334871 C184.032296,7.81367258 183.564141,8.61458744 182.888026,9.16611734 C182.21191,9.71764723 181.385441,9.99340804 180.408592,9.99340804 C179.397618,9.99340804 178.575415,9.78136885 177.941956,9.35728411 C177.308498,8.93319937 176.826479,8.31905478 176.495887,7.51483191 C176.165294,6.71060903 176,5.84707119 176,4.92419249 C176,3.91781523 176.186622,3.03999496 176.559872,2.29070534 C176.933122,1.54141572 177.464195,0.972315722 178.153108,0.583388266 C178.842021,0.194460811 179.60024,0 180.427788,0 C181.366245,0 182.15539,0.246097297 182.795247,0.738299275 C183.435104,1.23050125 183.880864,1.9226499 184.132541,2.81476599 L182.91042,3.11140409 C182.692869,2.4082584 182.377211,1.89628813 181.963437,1.57547792 C181.549663,1.2546677 181.029254,1.094265 180.402194,1.094265 C179.681288,1.094265 179.078765,1.27224608 178.594607,1.62821358 C178.110449,1.98418108 177.770263,2.46209324 177.57404,3.0619644 C177.377817,3.66183556 177.279707,4.28037475 177.279707,4.91760053 C177.279707,5.73940204 177.395946,6.45681961 177.628428,7.06987475 C177.860909,7.68292989 178.222423,8.14106638 178.71298,8.44429796 C179.203537,8.74752953 179.73461,8.89914305 180.306216,8.89914305 C181.001527,8.89914305 181.590186,8.6925971 182.072212,8.27949901 C182.554238,7.86640092 182.88056,7.25335498 183.051188,6.44034278 Z M185.661792,9.8286091 L185.661792,2.8279499 L186.698355,2.8279499 L186.698355,3.88925511 C186.962829,3.39265847 187.207037,3.06526117 187.430987,2.90705339 C187.654937,2.74884562 187.901278,2.66974291 188.170018,2.66974291 C188.558198,2.66974291 188.952771,2.79718616 189.353748,3.05207647 L188.957038,4.15293342 C188.675501,3.98154166 188.393969,3.89584707 188.112431,3.89584707 C187.860754,3.89584707 187.634675,3.97385112 187.434186,4.12986157 C187.233698,4.28587202 187.090799,4.5023058 187.005484,4.77916941 C186.877513,5.20105682 186.813528,5.66248926 186.813528,6.16348055 L186.813528,9.8286091 L185.661792,9.8286091 Z M194.491773,9.8286091 L194.491773,8.80026368 C193.962825,9.59130257 193.244063,9.98681608 192.335466,9.98681608 C191.934489,9.98681608 191.560178,9.90771338 191.212523,9.7495056 C190.864867,9.59129782 190.606795,9.39244242 190.4383,9.15293342 C190.269804,8.91342442 190.151432,8.62008523 190.083181,8.27290705 C190.036258,8.03999005 190.012797,7.6708441 190.012797,7.16545814 L190.012797,2.8279499 L191.164534,2.8279499 L191.164534,6.71061305 C191.164534,7.33026018 191.187995,7.74774667 191.234918,7.96308504 C191.307435,8.27510593 191.460998,8.52010458 191.695612,8.69808833 C191.930227,8.87607208 192.220291,8.96506262 192.565814,8.96506262 C192.911336,8.96506262 193.235526,8.87387479 193.538391,8.69149637 C193.841257,8.50911796 194.055606,8.26082337 194.181444,7.94660514 C194.307283,7.63238691 194.370201,7.17644773 194.370201,6.5787739 L194.370201,2.8279499 L195.521938,2.8279499 L195.521938,9.8286091 L194.491773,9.8286091 Z M197.326325,9.8286091 L197.326325,2.8279499 L198.35649,2.8279499 L198.35649,3.81015162 C198.569776,3.46736809 198.853441,3.19160728 199.207495,2.98286091 C199.56155,2.77411454 199.964653,2.66974291 200.416819,2.66974291 C200.920173,2.66974291 201.332875,2.77741048 201.654936,2.99274885 C201.976997,3.20808721 202.204143,3.50911694 202.33638,3.89584707 C202.87386,3.07844021 203.573427,2.66974291 204.435101,2.66974291 C205.109083,2.66974291 205.62736,2.86200643 205.989945,3.24653922 C206.352531,3.63107202 206.533821,4.22324364 206.533821,5.02307185 L206.533821,9.8286091 L205.388483,9.8286091 L205.388483,5.41858932 C205.388483,4.94396599 205.351158,4.60228626 205.276508,4.39353988 C205.201858,4.18479351 205.066424,4.01670026 204.870201,3.88925511 C204.673978,3.76180995 204.443633,3.69808833 204.179159,3.69808833 C203.701399,3.69808833 203.304694,3.86178698 202.989031,4.18918919 C202.673368,4.5165914 202.515539,5.0406468 202.515539,5.76137113 L202.515539,9.8286091 L201.363803,9.8286091 L201.363803,5.28015821 C201.363803,4.75279895 201.269958,4.35728543 201.082267,4.0936058 C200.894576,3.82992617 200.587449,3.69808833 200.160878,3.69808833 C199.836683,3.69808833 199.537021,3.78598022 199.261883,3.96176664 C198.986745,4.13755307 198.787325,4.39463685 198.66362,4.73302571 C198.539914,5.07141457 198.478062,5.55921457 198.478062,6.19644034 L198.478062,9.8286091 L197.326325,9.8286091 Z M209.304388,9.8286091 L208.235832,9.8286091 L208.235832,0.164798945 L209.387569,0.164798945 L209.387569,3.61239288 C209.87386,2.98395643 210.494512,2.66974291 211.249543,2.66974291 C211.667583,2.66974291 212.063222,2.75653616 212.436472,2.93012525 C212.809722,3.10371434 213.116848,3.34761434 213.357861,3.66183256 C213.598874,3.97605079 213.787629,4.35508457 213.924132,4.79894529 C214.060634,5.242806 214.128885,5.71742221 214.128885,6.22280817 C214.128885,7.42255049 213.840954,8.34980995 213.265082,9.00461437 C212.689211,9.65941879 211.998176,9.98681608 211.191956,9.98681608 C210.390002,9.98681608 209.760819,9.64184041 209.304388,8.95187871 L209.304388,9.8286091 Z M209.29159,6.27554384 C209.29159,7.11492399 209.402497,7.72137805 209.624314,8.09492419 C209.9869,8.705782 210.47745,9.01120633 211.095978,9.01120633 C211.599332,9.01120633 212.034428,8.78598336 212.40128,8.33553065 C212.768131,7.88507795 212.951554,7.21380363 212.951554,6.32168754 C212.951554,5.40759815 212.775596,4.73302788 212.423675,4.29795649 C212.071753,3.8628851 211.646255,3.64535267 211.147166,3.64535267 C210.643812,3.64535267 210.208716,3.87057564 209.841865,4.32102835 C209.475013,4.77148105 209.29159,5.4229797 209.29159,6.27554384 Z M218.857404,7.27752142 L220.009141,7.11931444 C220.141378,7.7916975 220.366391,8.27620155 220.684186,8.57284113 C221.001982,8.86948072 221.38909,9.01779829 221.845521,9.01779829 C222.387267,9.01779829 222.844757,8.82443612 223.218007,8.437706 C223.591257,8.05097587 223.777879,7.57196506 223.777879,7.0006592 C223.777879,6.45572129 223.605121,6.00637399 223.259598,5.65260382 C222.914075,5.29883365 222.474713,5.12195122 221.941499,5.12195122 C221.723948,5.12195122 221.453079,5.16589717 221.128885,5.25379038 L221.256856,4.21226104 C221.333638,4.22105036 221.39549,4.22544496 221.442413,4.22544496 C221.93297,4.22544496 222.374465,4.09360712 222.76691,3.82992749 C223.159356,3.56624786 223.355576,3.15974786 223.355576,2.61041529 C223.355576,2.1753439 223.212677,1.81498715 222.926874,1.52933421 C222.641071,1.24368128 222.272092,1.10085695 221.819927,1.10085695 C221.372027,1.10085695 220.998783,1.24587858 220.700183,1.53592617 C220.401583,1.82597376 220.209629,2.26103863 220.124314,2.84113382 L218.972578,2.63019117 C219.113346,1.83475761 219.43327,1.21841572 219.932358,0.781147001 C220.431447,0.343878279 221.052099,0.125247198 221.794333,0.125247198 C222.306218,0.125247198 222.777572,0.238408009 223.20841,0.464733026 C223.639247,0.691058042 223.968768,0.999778312 224.196984,1.3909031 C224.425199,1.78202788 224.539305,2.19731707 224.539305,2.63678312 C224.539305,3.05427587 224.430531,3.43440831 224.21298,3.77719183 C223.995429,4.11997535 223.673372,4.39244021 223.246801,4.59459459 C223.801343,4.72643441 224.232174,4.99999792 224.539305,5.41529334 C224.846437,5.83058876 225,6.35024957 225,6.97429136 C225,7.81806618 224.701405,8.53328645 224.104205,9.11997363 C223.507005,9.70666081 222.751985,10 221.839122,10 C221.01584,10 220.33227,9.74731081 219.788391,9.24192485 C219.244513,8.73653889 218.934187,8.0817443 218.857404,7.27752142 Z" id="Crumb3" fill="#BFD0E4"></path>
                        <path d="M94.0650268,6.44459103 L95.3087793,6.76781003 C95.0480601,7.81882672 94.5789863,8.62026989 93.9015439,9.17216359 C93.2241015,9.72405729 92.39601,10 91.4172445,10 C90.4042864,10 89.580469,9.78782094 88.9457674,9.36345646 C88.3110658,8.93909199 87.8281014,8.32454228 87.4968599,7.51978892 C87.1656183,6.71503555 87,5.8509281 87,4.92744063 C87,3.92039954 87.1869884,3.04200023 87.5609708,2.29221636 C87.9349532,1.54243249 88.4670688,0.972957091 89.1573335,0.583773087 C89.8475982,0.194589083 90.6073054,0 91.4364778,0 C92.3767765,0 93.1674703,0.246259631 93.808583,0.73878628 C94.4496957,1.23131293 94.8963309,1.92391814 95.1485019,2.81662269 L93.9239827,3.11345646 C93.7060044,2.40984697 93.3897269,1.89753898 92.9751407,1.57651715 C92.5605544,1.25549532 92.0391239,1.09498681 91.4108334,1.09498681 C90.6885131,1.09498681 90.0848077,1.27308529 89.5996991,1.6292876 C89.1145904,1.98548991 88.7737373,2.46371732 88.5771294,3.06398417 C88.3805215,3.66425102 88.282219,4.28319822 88.282219,4.92084433 C88.282219,5.74318793 88.3986861,6.46107873 88.6316237,7.07453826 C88.8645613,7.68799779 89.2267846,8.14643648 89.7183043,8.44986807 C90.2098241,8.75329967 90.7419397,8.90501319 91.314667,8.90501319 C92.0113428,8.90501319 92.6011577,8.698331 93.0841293,8.28496042 C93.5671008,7.87158984 93.8940634,7.25813951 94.0650268,6.44459103 Z M96.6807536,9.83509235 L96.6807536,2.8298153 L97.719351,2.8298153 L97.719351,3.89182058 C97.9843443,3.39489637 98.229032,3.06728311 98.4534214,2.90897098 C98.6778109,2.75065884 98.9246356,2.67150396 99.1939029,2.67150396 C99.5828446,2.67150396 99.9781915,2.79903127 100.379956,3.05408971 L99.9824676,4.15567282 C99.700378,3.98416801 99.4182927,3.89841689 99.1362031,3.89841689 C98.8840321,3.89841689 98.657509,3.97647239 98.456627,4.13258575 C98.255745,4.28869911 98.1125653,4.50527566 98.0270836,4.7823219 C97.8988611,5.2044876 97.8347508,5.66622441 97.8347508,6.16754617 L97.8347508,9.83509235 L96.6807536,9.83509235 Z M105.528065,9.83509235 L105.528065,8.8060686 C104.998078,9.59762929 104.277906,9.99340369 103.367526,9.99340369 C102.965762,9.99340369 102.590717,9.91424881 102.242379,9.75593668 C101.894041,9.59762454 101.635462,9.39863796 101.466636,9.15897098 C101.29781,8.91930399 101.179206,8.62577131 101.11082,8.27836412 C101.063805,8.04529347 101.040298,7.67590402 101.040298,7.1701847 L101.040298,2.8298153 L102.194295,2.8298153 L102.194295,6.71503958 C102.194295,7.33509545 102.217803,7.75285732 102.264817,7.96833773 C102.337477,8.28056445 102.491342,8.5257247 102.726416,8.70382586 C102.961491,8.88192701 103.252124,8.97097625 103.598325,8.97097625 C103.944526,8.97097625 104.269352,8.87972827 104.572812,8.69722955 C104.876272,8.51473084 105.091041,8.26627246 105.217127,7.95184697 C105.343212,7.63742147 105.406254,7.18118153 105.406254,6.58311346 L105.406254,2.8298153 L106.560251,2.8298153 L106.560251,9.83509235 L105.528065,9.83509235 Z M108.36818,9.83509235 L108.36818,2.8298153 L109.400366,2.8298153 L109.400366,3.81266491 C109.614071,3.46965528 109.898293,3.19371257 110.253042,2.9848285 C110.607791,2.77594443 111.011686,2.67150396 111.464739,2.67150396 C111.969081,2.67150396 112.382592,2.77924255 112.705286,2.99472296 C113.027979,3.21020336 113.255571,3.51143166 113.388068,3.89841689 C113.926602,3.08047084 114.627542,2.67150396 115.490907,2.67150396 C116.166212,2.67150396 116.685506,2.86389429 117.048803,3.24868074 C117.4121,3.63346718 117.593746,4.22602942 117.593746,5.02638522 L117.593746,9.83509235 L116.44616,9.83509235 L116.44616,5.42216359 C116.44616,4.94722718 116.408762,4.60532206 116.333966,4.39643799 C116.259169,4.18755392 116.123469,4.0193498 115.926861,3.89182058 C115.730253,3.76429136 115.499456,3.7005277 115.234463,3.7005277 C114.755765,3.7005277 114.358281,3.86433433 114.041999,4.19195251 C113.725717,4.51957068 113.567578,5.04397177 113.567578,5.7651715 L113.567578,9.83509235 L112.413581,9.83509235 L112.413581,5.28364116 C112.413581,4.75593404 112.319553,4.36015963 112.131493,4.09630607 C111.943433,3.83245251 111.635704,3.7005277 111.208295,3.7005277 C110.883465,3.7005277 110.583215,3.78847757 110.307536,3.96437995 C110.031858,4.14028232 109.832047,4.39753569 109.708099,4.73614776 C109.58415,5.07475983 109.522177,5.5628816 109.522177,6.2005277 L109.522177,9.83509235 L108.36818,9.83509235 Z M120.36975,9.83509235 L119.299097,9.83509235 L119.299097,0.164907652 L120.453094,0.164907652 L120.453094,3.61477573 C120.94034,2.98592474 121.56221,2.67150396 122.318723,2.67150396 C122.737583,2.67150396 123.133999,2.75835445 123.507981,2.93205805 C123.881964,3.10576164 124.189693,3.34982253 124.431179,3.66424802 C124.672665,3.97867352 124.86179,4.35795732 124.998561,4.80211082 C125.135331,5.24626431 125.203716,5.7211936 125.203716,6.22691293 C125.203716,7.42744664 124.915219,8.35531774 124.338218,9.01055409 C123.761217,9.66579044 123.068825,9.99340369 122.261023,9.99340369 C121.457495,9.99340369 120.827077,9.64820046 120.36975,8.95778364 L120.36975,9.83509235 Z M120.356928,6.27968338 C120.356928,7.11961722 120.468052,7.72647131 120.690305,8.10026385 C121.053602,8.7115246 121.545114,9.0171504 122.164857,9.0171504 C122.669199,9.0171504 123.105149,8.79177886 123.47272,8.34102902 C123.840291,7.89027919 124.024074,7.21856207 124.024074,6.32585752 C124.024074,5.41116517 123.847771,4.73614993 123.495159,4.30079156 C123.142547,3.86543318 122.716213,3.64775726 122.216145,3.64775726 C121.711803,3.64775726 121.275853,3.87312879 120.908282,4.32387863 C120.540711,4.77462846 120.356928,5.42655686 120.356928,6.27968338 Z M136,8.6939314 L136,9.83509235 L129.787649,9.83509235 C129.779101,9.54925099 129.823978,9.27440765 129.922282,9.01055409 C130.080423,8.57519571 130.333659,8.14644011 130.681997,7.72427441 C131.030335,7.30210871 131.5336,6.81398694 132.191809,6.25989446 C133.213316,5.39797282 133.90357,4.71526197 134.262593,4.21174142 C134.621616,3.70822088 134.801125,3.23219222 134.801125,2.78364116 C134.801125,2.31310231 134.637644,1.91622853 134.310676,1.59300792 C133.983709,1.2697873 133.557375,1.10817942 133.031663,1.10817942 C132.476032,1.10817942 132.031534,1.27968166 131.698155,1.62269129 C131.364777,1.96570092 131.195953,2.44063021 131.191679,3.0474934 L130.005626,2.92216359 C130.086834,2.0118688 130.392426,1.31816422 130.922413,0.841029024 C131.452399,0.363893832 132.164024,0.125329815 133.057307,0.125329815 C133.959139,0.125329815 134.672901,0.382583179 135.198613,0.897097625 C135.724326,1.41161207 135.987178,2.04924861 135.987178,2.81002639 C135.987178,3.19701161 135.910245,3.57739479 135.756378,3.95118734 C135.602511,4.32497988 135.347139,4.71855554 134.990253,5.13192612 C134.633366,5.5452967 134.040346,6.11257335 133.211174,6.83377309 C132.518772,7.43184116 132.074274,7.83750993 131.877666,8.05079156 C131.681058,8.26407319 131.518645,8.47845099 131.390423,8.6939314 L136,8.6939314 Z" id="Crumb2" fill="#FFFFFF"></path>
                        <path d="M153.566929,0.0678733032 C153.614173,0.0226244344 153.677165,0 153.755906,0 C153.834646,0 153.905512,0.0226244344 153.968504,0.0678733032 L158.905512,4.81900452 C158.968504,4.86425339 159,4.92458533 159,5 C159,5.07541467 158.968504,5.13574661 158.905512,5.18099548 L153.968504,9.9321267 C153.905512,9.97737557 153.834646,10 153.755906,10 C153.677165,10 153.614173,9.97737557 153.566929,9.9321267 L153.094488,9.47963801 C153.031496,9.43438914 153,9.3740572 153,9.29864253 C153,9.22322787 153.031496,9.15535456 153.094488,9.09502262 L157.370079,5 L153.094488,0.904977376 C153.031496,0.844645435 153,0.776772132 153,0.701357466 C153,0.6259428 153.031496,0.56561086 153.094488,0.520361991 L153.566929,0.0678733032 Z" id="" fill="#FFFFFF" transform="translate(156.000000, 5.000000) rotate(-360.000000) translate(-156.000000, -5.000000) "></path>
                        <path d="M64.5669291,0.0678733032 C64.6141732,0.0226244344 64.6771655,0 64.7559055,0 C64.8346455,0 64.9055117,0.0226244344 64.9685039,0.0678733032 L69.9055118,4.81900452 C69.9685041,4.86425339 70,4.92458533 70,5 C70,5.07541467 69.9685041,5.13574661 69.9055118,5.18099548 L64.9685039,9.9321267 C64.9055117,9.97737557 64.8346455,10 64.7559055,10 C64.6771655,10 64.6141732,9.97737557 64.5669291,9.9321267 L64.0944882,9.47963801 C64.0314959,9.43438914 64,9.3740572 64,9.29864253 C64,9.22322787 64.0314959,9.15535456 64.0944882,9.09502262 L68.3700787,5 L64.0944882,0.904977376 C64.0314959,0.844645435 64,0.776772132 64,0.701357466 C64,0.6259428 64.0314959,0.56561086 64.0944882,0.520361991 L64.5669291,0.0678733032 Z" id="" fill="#FFFFFF" transform="translate(67.000000, 5.000000) rotate(-360.000000) translate(-67.000000, -5.000000) "></path>
                    </g>
                </g>
            </g>
        </g>
    </g>
</svg>