<svg width="290" height="72" viewBox="0 0 290 72" xmlns="http://www.w3.org/2000/svg"><title>logo--et</title><g fill="none" fill-rule="evenodd"><path fill="#FFF" d="M0 0h290v72H0z"/><path d="M0 25.5s39.8-5.2 41-5.4c1.7-.3 3.3-.6 4.7-1 3.2-.9 6.2-2.2 8.8-4 2.5-1.7 4.9-4.2 7.2-6.9 1.5-1.7 3-4 4.5-6.2V1c-1.7 2.6-3.4 4.8-5.1 6.7-2.3 2.6-4.7 4.7-7.2 6.3-2.5 1.6-5.4 2.9-8.5 3.7-1.4.4-2.9.6-4.6.9-1.1.2-2.2.3-3.3.4C37 19 0 22.9 0 22.9v2.6z" fill="#BBBDBF"/><path d="M53.4 18.8c-2.5 1.4-5.4 2.5-8.6 3.1-1.4.3-2.8.5-4.5.7l-3 .3c-.5 0-1.1.1-1.6.1-12.2 1.2-24.3 2.3-35.7 3.4V29c11.4-1.4 23.7-2.9 35.9-4.3.5-.1 1.1-.1 1.6-.2 1-.1 2-.2 3-.4 1.7-.2 3.3-.5 4.6-.8 3.3-.7 6.3-1.9 8.9-3.5 2.6-1.6 4.8-3.7 7.3-6.4 1.5-1.7 3.2-4 4.8-6.2v-1c-1.9 2.5-3.6 4.7-5.4 6.5-2.4 2.7-4.8 4.7-7.3 6.1" fill="#BBBDBF"/><path d="M60.4 18.2c-2.4 2.2-5 4-7.5 5.3-2.5 1.2-5.3 2.1-8.6 2.6-1.4.2-2.8.4-4.5.6L0 29.9v2.6l35.3-3.8 4.6-.5c1.7-.2 3.2-.4 4.6-.7 3.4-.6 6.3-1.6 8.9-2.9 2.7-1.4 5.3-3.6 7.8-6 1.7-1.6 3.2-3.7 4.9-5.8v-.9c-2 2.5-3.8 4.5-5.7 6.3" fill="#BBBDBF"/><path d="M50.8 31.6c-2.3 1.3-4 2.1-7.3 2.4-2 .2-4 .3-6 .4-1 0-1.9.1-2.9.2-6 .3-11.9.7-17.9 1.1L0 36.9v2.6l16.8-1.6c5.4-.5 11.7-1.1 17.9-1.6l4.5-.3c1.7-.1 3.2-.3 4.5-.5 3.4-.4 6.3-1.1 8.9-2.1 2.8-1 5.4-2.7 8-4.6 2.4-1.7 5.6-5.1 5.6-5.2v-.9c-2.1 2.1-3.4 3.3-5.7 4.8-2.9 2-7.6 3-9.7 4.1" fill="#BBBDBF"/><path d="M51.6 36.6c-2.5.7-5.3 1.2-8.6 1.5-1.3.1-2.8.2-4.4.3l-4.4.2c-11 .5-22 1.1-34.1 1.7v2.6c11.6-.9 22.9-1.8 34.3-2.6l4.4-.3c1.7-.1 3.1-.2 4.5-.4 3.4-.4 6.3-1 8.8-1.8 2.8-.9 5.6-2.2 8.2-3.9 1.9-1.2 3.9-2.7 5.9-4.5-2.2 1.9-4.3 2.3-6.4 3.6-2.7 1.6-5.4 2.8-8.2 3.6" fill="#BBBDBF"/><path d="M51.2 40.9c-2.5.6-5.3 1-8.6 1.2-1.3.1-2.7.2-4.4.2l-4.4.2c-11.1.4-22.3.9-33.8 1.4v2.6c11.4-.8 22.6-1.5 33.9-2.3l4.4-.3c1.7-.1 3.1-.2 4.4-.3 3.4-.3 6.2-.8 8.8-1.5 2.9-.8 5.7-1.9 8.4-3.3 2.1-1.1 4.1-2.4 6.2-4v-1.1c-2.3 1.7-4.5 3-6.7 4.1-2.6 1.4-5.4 2.4-8.2 3.1" fill="#BBBDBF"/><path d="M50.8 45.1c-2.5.5-5.3.8-8.6.9-1.3.1-2.6.1-4.3.2L0 47.2v2.6L33.6 48l4.4-.2c1.7-.1 3.1-.2 4.4-.3 3.4-.3 6.1-.6 8.7-1.2 2.9-.6 5.8-1.5 8.5-2.7 2.2-.9 4.3-2 6.6-3.4v-1c-2.4 1.4-4.7 2.5-7 3.4-2.7 1.2-5.5 2-8.4 2.5" fill="#BBBDBF"/><path d="M50.5 49.3c-4.7.6-9.4.7-14.1.8-1.1 0-2.1 0-3.2.1L0 50.8v2.6L33.3 52c1.1 0 2.1-.1 3.2-.1 4.7-.2 9.5-.4 14.2-1.1 3-.5 5.9-1.2 8.5-2.1 2.2-.7 4.5-1.7 6.8-2.9v-1c-2.4 1.1-4.9 2.1-7.2 2.8-2.5.7-5.3 1.4-8.3 1.7" fill="#BBBDBF"/><path d="M50.3 53.6c-4.4.4-8.8.4-13.2.4h-4c-11 0-22 .1-33.1.2v2.6c10.6-.4 21.9-.7 33.2-1.1 1.3 0 2.7-.1 4-.1 4.3-.1 8.8-.2 13.2-.7 3.1-.3 5.9-.8 8.6-1.5 2.3-.6 4.7-1.4 7.2-2.3v-.9c-2.5.9-5 1.6-7.4 2.2-2.7.6-5.5 1-8.5 1.2m-.2 4.2c-1.8.1-3.8.1-6 .1h-2.5l-8.6-.1c-5.9 0-11.7-.1-17.2-.1L0 57.8v2.6l15.9-.4c5.5-.1 11.3-.3 17.1-.4l8.6-.1c2.4 0 5.5-.1 8.6-.3 3.1-.2 5.9-.5 8.6-.9 2.4-.4 4.9-.9 7.4-1.5v-.9c-2.5.6-5.1 1.1-7.5 1.4-2.8.2-5.5.4-8.6.5m-8.6 4.1l-8.6-.1c-10.9-.2-21.8-.4-32.9-.6v2.6c10.6-.1 21.8-.2 32.9-.3l8.6-.1c2.9 0 5.7-.1 8.6-.2 5.9-.2 11.1-.6 16.1-1.3V61c-4.9.5-10.2.8-16.1.9h-8.6m24.6 4.6L0 64.8v2.6h66.1zM60.2 23c-2.5 2-4.5 3.5-7.5 4.7-2.7 1.1-5.6 1.5-8.8 2-2.1.3-4.3.7-6.4.9-.9.1-1.7.1-2.6.2L0 33.3v2.6l34.9-3.4 4.5-.4c1.7-.2 3.2-.3 4.6-.6 3.4-.5 6.3-1.4 8.9-2.6 2.7-1.2 5.5-3.2 8-5.3 1.7-1.5 3.4-3.3 5.2-5.3v-.9c-2.2 2.2-4 4.1-5.9 5.6m34-22s11.9 18.9 14.1 22.4c2.2 3.5 4.7 6.2 13.5 8.1 8.8 1.9 12.6 2.7 12.6 2.7v.7s-5.6-1.2-12.8-2.8c-7.2-1.6-10.1-2.1-13.4-6.7-2.7-3.8-14-19.9-14-19.9V1zm0 21.6s10.8 11.3 14 14.6c3.3 3.5 7.6 4.7 13.5 5.8 5.6 1 12.7 2.2 12.7 2.2v.6s-6.7-1.1-12.7-2.1c-5.9-1-10.1-1.6-13.5-4.7-3-2.8-13.9-13-13.9-13l-.1-3.4z" fill="#BBBDBF"/><path d="M94.2 27.8s10.3 9.6 14 12.8c3.4 3 6.1 3.9 13.5 5.3 7.4 1.3 12.7 2.1 12.7 2.1v.7s-6.7-1.1-12.7-2.1c-6-1-9.9-1.3-13.5-4.3-4.2-3.4-14-11.4-14-11.4v-3.1z" fill="#BBBDBF"/><path d="M94.2 33.2s11.8 9.3 14 11c2.2 1.6 5.1 3.5 13.5 4.8 8.4 1.2 12.7 1.8 12.7 1.8v.7s-7.6-1.1-12.7-1.7c-5.1-.6-9-.9-13.5-3.9-4.4-2.9-14-9.7-14-9.7v-3z" fill="#BBBDBF"/><path d="M94.2 38.4s11.8 7.9 14 9.1c2.2 1.2 4.9 3.3 13.5 4.4 8.6 1.1 12.7 1.6 12.7 1.6v.7s-7.1-.8-12.7-1.4c-5.6-.6-9.4-1.4-13.5-3.7-4.1-2.3-14-8-14-8v-2.7z" fill="#BBBDBF"/><path d="M94.2 43.7s10.4 5.7 14 7.4c3.9 2 7.3 2.9 13.5 3.7 6.1.7 12.7 1.4 12.7 1.4v.6s-6.1-.7-12.7-1.3c-6.5-.6-8.8-.9-13.5-3-4.2-1.9-14-6.4-14-6.4v-2.4z" fill="#BBBDBF"/><path d="M94.2 49s8.2 3.5 14 5.8c5.7 2.3 10 2.5 13.5 2.8 1.5.2 12.6 1.3 12.6 1.3v.6s-6.6-.5-12.7-1.1c-6-.5-8.6-.8-13.5-2.4-4.9-1.6-14-4.8-14-4.8l.1-2.2zm0 5.4s8.3 2.6 14 4.1c5.7 1.5 10.9 2.1 13.5 2.3 2.6.2 12.7 1 12.7 1v.6s-5.7-.4-12.7-.9c-5.7-.4-10.2-.8-13.5-1.6-3.7-.8-14-3.3-14-3.3v-2.2zm0 5.3s6.8 1.2 14 2.4c5.4.9 12.7 1.5 13.5 1.5.8 0 12.7.9 12.7.9v.6s-7.6-.4-12.7-.7c-5.3-.3-10.5-.6-13.5-.9-6.7-.7-14-1.6-14-1.6v-2.2zm0 5.6s10.7.4 14 .5c3.3.1 26.2 1 26.2 1v.6H94.2v-2.1zm27.5-30.9c-9.7-2.1-11.9-5.6-13.5-7.8-1.6-2.2-13.9-20.2-13.9-20.2v4.1c.5.6 11 14.4 14 18.2 3.3 4.3 8.5 5.3 13.5 6.3 5 1.1 12.7 2.6 12.7 2.6V37c-.1 0-10.3-2-12.8-2.6" fill="#BBBDBF"/><path d="M121.7 37.3c-8-1.6-11.2-4.1-13.5-7.1-2.3-3.1-13.9-18.3-13.9-18.3v3.8c.5.6 11.1 13.1 13.9 16.4 3.3 3.8 7.9 4.8 13.5 5.8s12.7 2.4 12.7 2.4v-.6s-8.1-1.5-12.7-2.4" fill="#BBBDBF"/><path d="M121.7 40.2c-8.3-1.6-10-2.9-13.5-6.8-2.2-2.4-13.5-15.7-14-16.3v3.5s10.5 11.2 13.9 14.6c4.4 4.4 8.6 4.7 13.5 5.6 4.9.9 12.7 2.3 12.7 2.3v-.6c.1 0-9.3-1.6-12.6-2.3" fill="#BBBDBF"/><path fill="#034DA1" d="M85.4 28.6H27.5v38.7h57.9z"/><path fill="#FFF100" d="M57.1 34.1h2l-1.6 1.3.6 2-1.6-1.2-1.6 1.2.6-2-1.6-1.3h2l.6-2zm0 25.8h2l-1.6 1.2.6 1.9-1.6-1.2-1.6 1.2.6-1.9-1.6-1.2h2l.6-1.9zm6.4-1.7h2l-1.6 1.2.6 1.9-1.6-1.2-1.6 1.2.6-1.9-1.6-1.2h2l.6-1.9zm0-22.4h2L63.9 37l.6 1.9-1.6-1.2-1.6 1.3.7-2-1.6-1.2h2l.6-1.9zm4.8 4.8h2l-1.6 1.2.6 1.9-1.6-1.2-1.6 1.2.6-1.9-1.6-1.2h2l.6-1.9zm0 13h2l-1.6 1.2.6 1.9-1.6-1.2-1.6 1.2.6-1.9-1.6-1.2h2l.6-1.9zm1.8-6.6h2l-1.6 1.2.6 1.9-1.6-1.2-1.6 1.2.6-1.9-1.7-1.2h2l.6-1.9zM50.5 35.8h2L50.9 37l.6 1.9-1.5-1.1-1.7 1.2.6-1.9-1.6-1.2h2L50 34zm-4.6 4.8h2l-1.6 1.2.6 1.9-1.6-1.2-1.6 1.2.6-1.9-1.6-1.2h2l.6-1.9zM44.2 47h2l-1.6 1.2.6 1.9-1.6-1.2-1.6 1.2.6-1.9L41 47h2l.6-1.9zm1.7 6.6h2l-1.6 1.2.6 1.9-1.6-1.2-1.6 1.2.6-1.9-1.6-1.2h2l.6-1.9zm4.7 4.7h2L51 59.5l.6 1.9-1.6-1.2-1.6 1.2.6-1.9-1.6-1.2h2l.6-1.9z"/><path d="M143.4 34.1c0-.3.1-.4.4-.4h7.4c.3 0 .4.1.4.4v1.2c0 .2-.1.4-.4.4h-5.5v3.5h4.9c.3 0 .4.1.4.4v1.2c0 .2-.1.4-.4.4h-4.9v4h5.6c.2 0 .4.1.4.4v1.2c0 .2-.1.4-.4.4h-7.5c-.3 0-.4-.1-.4-.4V34.1zm18.4 13h-1.4c-.1 0-.2 0-.3-.1-.1-.1-.1-.2-.1-.3V46c-.2.1-.4.3-.7.4-.3.1-.5.3-.8.4l-.9.3c-.3.1-.6.1-.9.1-.7 0-1.2-.1-1.6-.3-.4-.2-.7-.4-.9-.8-.2-.3-.3-.7-.4-1.2-.1-.5-.1-.9-.1-1.5v-5.9c0-.3.1-.4.4-.4h1.5c.2 0 .4.1.4.4v5.6c0 .3 0 .6.1.8 0 .2.1.4.2.6.1.2.3.3.4.4.1.1.4.1.7.1.2 0 .4 0 .7-.1.3-.1.5-.2.8-.3.3-.1.5-.2.7-.3.2-.1.4-.2.5-.3v-6.7c0-.1 0-.2.1-.3.1-.1.2-.1.3-.1h1.4c.3 0 .4.1.4.4v9.1c-.1.5-.2.7-.5.7zm5.1-.4c0 .3-.1.4-.4.4H165c-.3 0-.4-.1-.4-.4v-9.1c0-.3.1-.4.4-.4h1.4c.3 0 .4.1.4.4v.9c.1-.1.3-.3.6-.4.2-.2.5-.3.8-.4.3-.1.6-.2.8-.4.3-.1.5-.2.8-.2h.3c.1 0 .1.1.2.3l.1 1.3v.3c0 .1-.1.1-.4.2-.3.1-.6.1-.9.2-.3.1-.6.2-.9.2-.3.1-.6.2-.8.3-.3.1-.5.2-.6.2v6.6h.1zm13.3-4.7c0 .6 0 1.2-.1 1.8-.1.6-.3 1.2-.6 1.7s-.7.9-1.3 1.3c-.6.3-1.4.5-2.4.5s-1.8-.2-2.4-.5c-.6-.3-1-.7-1.3-1.3-.3-.5-.5-1.1-.5-1.7-.1-.6-.1-1.2-.1-1.8 0-.5 0-1 .1-1.6.1-.6.3-1.1.6-1.6s.7-.9 1.3-1.3c.6-.3 1.3-.5 2.3-.5 1 0 1.8.1 2.3.4.6.3 1 .7 1.3 1.2.3.5.5 1 .6 1.6.1.6.2 1.2.2 1.8zm-2.3.1c0-.5 0-1-.1-1.4-.1-.4-.2-.7-.3-1-.2-.3-.4-.5-.7-.6-.3-.1-.6-.2-1.1-.2-.4 0-.8.1-1 .2-.2.1-.5.3-.6.6-.2.3-.3.6-.3 1-.1.4-.1.9-.1 1.4 0 .5 0 1 .1 1.4.1.4.2.7.3 1 .1.3.4.5.6.6.2.1.6.2 1 .2.5 0 .8-.1 1.1-.2.3-.1.5-.3.7-.6.2-.3.3-.6.3-1 .1-.4.1-.8.1-1.4zm12.7-.1c0 .6 0 1.2-.1 1.8-.1.6-.3 1.2-.6 1.7s-.7.9-1.3 1.3c-.6.3-1.4.5-2.4.5s-1.8-.2-2.4-.5c-.6-.3-1-.7-1.3-1.3-.3-.5-.5-1.1-.5-1.7-.1-.6-.1-1.2-.1-1.8 0-.5 0-1 .1-1.6.1-.6.3-1.1.6-1.6s.7-.9 1.3-1.3c.6-.3 1.3-.5 2.3-.5 1 0 1.8.1 2.3.4.6.3 1 .7 1.3 1.2.3.5.5 1 .6 1.6.2.6.2 1.2.2 1.8zm-2.2.1c0-.5 0-1-.1-1.4-.1-.4-.2-.7-.3-1-.2-.3-.4-.5-.7-.6-.3-.1-.6-.2-1.1-.2-.4 0-.8.1-1 .2-.2.1-.5.3-.6.6-.2.3-.3.6-.3 1-.1.4-.1.9-.1 1.4 0 .5 0 1 .1 1.4.1.4.2.7.3 1 .1.3.4.5.6.6.2.1.6.2 1 .2.5 0 .8-.1 1.1-.2.3-.1.5-.3.7-.6.2-.3.3-.6.3-1s.1-.8.1-1.4zm12.9 0c0 .8-.1 1.5-.2 2.2-.1.6-.3 1.2-.6 1.6-.3.4-.7.8-1.2 1-.5.2-1.2.3-2 .3-.3 0-.7 0-1.2-.1-.4-.1-.9-.2-1.4-.3v3.5c0 .1 0 .2-.1.3-.1.1-.2.1-.3.1H193c-.2 0-.3 0-.3-.1s-.1-.2-.1-.3V37.6c0-.3.1-.4.4-.4h1.4c.1 0 .2 0 .3.1.1.1.1.2.1.3v.6h.1c.2-.1.4-.2.6-.4.2-.1.5-.3.8-.4l.9-.3c.3-.1.6-.1.9-.1.7 0 1.2.1 1.6.4.4.2.8.6 1 1 .2.4.4 1 .5 1.6.1.6.1 1.3.1 2.1zm-2.3 0c0-.6 0-1.2-.1-1.5-.1-.3-.2-.7-.3-.9-.1-.2-.3-.4-.5-.4-.2-.1-.4-.1-.7-.1-.2 0-.4 0-.7.1-.3.1-.5.1-.8.2-.2.1-.5.2-.7.3l-.6.3v5c.5.1.9.2 1.2.3.3.1.7.1 1.1.1.4 0 .7-.1.9-.2.2-.1.4-.3.6-.5.2-.3.3-.6.3-1 .3-.6.3-1.1.3-1.7zm10.3 3.8c-.5.4-1.1.7-1.7.9-.6.2-1.3.4-2 .4-.5 0-1-.1-1.3-.2-.4-.1-.6-.3-.8-.6-.2-.2-.4-.5-.4-.9-.1-.3-.1-.7-.1-1.2 0-1.2.3-2 .9-2.6.6-.5 1.6-.8 2.8-.8h2.6v-.5c0-.3 0-.5-.1-.8-.1-.2-.2-.4-.3-.5l-.6-.3c-.3-.1-.6-.1-1-.1H206c-.2 0-.5 0-.7.1-.2 0-.5 0-.7.1h-.4c-.1 0-.1-.1-.2-.3l-.2-.7v-.3c0-.1.2-.2.4-.3.2-.1.5-.1.8-.2.3-.1.6-.1.9-.1.3 0 .6-.1.9-.1h.8c.9 0 1.6.1 2.1.3.5.2.9.4 1.2.7.3.3.4.7.5 1.2.1.5.1 1 .1 1.5V45c0 .1.1.2.1.3 0 .1.1.1.2.1s.2 0 .4.1c.1 0 .2 0 .3.1.1.1.1.1.1.2v.8c0 .2-.2.4-.5.4-.2 0-.3 0-.5.1h-.5c-.5 0-.8-.1-1.1-.3-.4-.1-.6-.4-.7-.9zm-.1-3.3h-2.4c-.5 0-.9.1-1.2.4-.3.2-.4.7-.4 1.3 0 .4.1.7.3.9.2.2.5.3 1 .3.2 0 .4 0 .7-.1.3-.1.5-.1.8-.2.3-.1.5-.2.7-.3.2-.1.5-.2.6-.3v-2h-.1zM163.1 62.3c0 .6 0 1.2-.1 1.8-.1.6-.3 1.2-.6 1.7s-.7.9-1.3 1.3c-.6.3-1.4.5-2.4.5s-1.8-.2-2.4-.5c-.6-.3-1-.7-1.3-1.3-.3-.5-.5-1.1-.5-1.7-.1-.6-.1-1.2-.1-1.8 0-.5 0-1 .1-1.6.1-.6.3-1.1.6-1.6s.7-.9 1.3-1.3c.6-.3 1.3-.5 2.3-.5 1 0 1.8.1 2.3.4.6.3 1 .7 1.3 1.2.3.5.5 1 .6 1.6.1.6.2 1.2.2 1.8zm-2.2.1c0-.5 0-1-.1-1.4-.1-.4-.2-.7-.3-1-.2-.3-.4-.5-.7-.6-.3-.1-.6-.2-1.1-.2-.4 0-.8.1-1 .2-.2.1-.5.3-.6.6-.2.3-.3.6-.3 1-.1.4-.1.9-.1 1.4 0 .5 0 1 .1 1.4.1.4.2.7.3 1 .1.3.4.5.6.6.2.1.6.2 1 .2.5 0 .8-.1 1.1-.2.3-.1.5-.3.7-.6.2-.3.3-.6.3-1s.1-.8.1-1.4zm18.5 4.9c0 .1-.1.1-.3.1h-1.4c-.3 0-.4-.1-.4-.4v-5.7c0-.7-.1-1.3-.3-1.5-.2-.3-.6-.4-1.1-.4-.2 0-.4 0-.6.1-.2.1-.5.1-.7.2-.2.1-.5.2-.7.3l-.6.3V67c0 .1 0 .2-.1.3-.1.1-.2.1-.3.1h-1.5c-.2 0-.3-.1-.3-.4v-5.8c0-.6-.1-1.1-.3-1.4-.2-.3-.5-.4-1-.4-.2 0-.4 0-.6.1-.2.1-.4.1-.7.2-.2.1-.5.2-.7.3l-.6.3V67c0 .3-.1.4-.4.4h-1.4c-.2 0-.4-.1-.4-.4v-9.1c0-.3.1-.4.4-.4h1.4c.3 0 .4.1.4.4v.6c.2-.1.4-.3.6-.4.2-.1.5-.3.7-.4.2-.1.5-.2.8-.3.3-.1.5-.1.8-.1.6 0 1.1.1 1.6.3.5.2.9.6 1.2 1.1.5-.4 1.1-.7 1.7-1 .6-.3 1.2-.4 1.9-.4s1.2.1 1.6.3c.4.2.7.5.9.8.2.3.3.7.4 1.2.1.5.1.9.1 1.4v6c-.1.1-.1.2-.1.3zm4.8-12.4v.5c0 .1-.1.3-.2.4-.1.1-.2.2-.4.3-.2.1-.4.1-.6.1-.3 0-.5 0-.6-.1-.2-.1-.3-.2-.4-.3-.1-.1-.1-.2-.2-.4V55c0-.3.1-.6.2-.8.2-.2.5-.3 1-.3s.8.1 1 .3c.1.1.2.4.2.7zm-.1 12.1c0 .1 0 .2-.1.3 0 .1-.1.1-.3.1h-1.4c-.3 0-.4-.1-.4-.4v-9.1c0-.3.1-.4.4-.4h1.4c.1 0 .2 0 .3.1 0 .1.1.2.1.3V67zm9.8-2.6c0 .6-.1 1.1-.3 1.5-.2.4-.5.7-.9 1-.4.2-.8.4-1.3.5-.5.1-1 .2-1.5.2s-1.1 0-1.6-.1c-.6-.1-1.1-.2-1.5-.3-.2-.1-.3-.2-.4-.3-.1-.1-.1-.2 0-.4l.1-.7c0-.2.1-.3.2-.3h.4c.2 0 .5.1.7.1.3 0 .5 0 .8.1.3 0 .5 0 .7.1.2.1.4 0 .6 0 .6 0 1.1-.1 1.4-.3.3-.2.4-.5.4-.9 0-.2 0-.4-.1-.6-.1-.2-.1-.3-.2-.4-.1-.1-.3-.2-.5-.2-.2-.1-.5-.1-.8-.2-.5-.1-1-.2-1.4-.3-.4-.1-.8-.3-1.2-.5-.3-.2-.6-.5-.8-.8-.2-.3-.3-.8-.3-1.3 0-1 .3-1.7 1-2.3.7-.5 1.6-.8 2.7-.8h.7c.3 0 .5 0 .8.1.3.1.5.1.8.1.3 0 .5.1.7.2.3.1.5.3.4.6l-.2.7c0 .1-.1.2-.2.3h-.4c-.4-.1-.9-.1-1.4-.2-.5 0-1-.1-1.3-.1-.6 0-1.1.1-1.3.3-.2.2-.3.5-.3.9s.1.6.4.8c.3.2.7.2 1.3.3.5.1.9.2 1.4.3.4.1.8.3 1.2.5.4.2.6.5.8.9.3.4.4.9.4 1.5zm4.7 3.2c0 .7-.1 1.2-.2 1.7s-.4.9-.8 1.3c-.4.3-.8.6-1.4.8-.6.2-1.3.2-2.1.2-.1 0-.2 0-.3-.1-.1-.1-.2-.2-.2-.3l-.1-.9V70c0-.1.1-.1.3-.1.5-.1.9-.2 1.2-.3.3-.1.6-.2.8-.4.2-.2.3-.3.4-.6.1-.2.1-.5.1-.9V58c0-.3.1-.4.4-.4h1.4c.3 0 .4.1.4.4v9.6h.1zm0-12.7v.5c0 .1-.1.3-.2.4-.1.1-.2.2-.4.3-.2.1-.4.1-.6.1-.3 0-.5 0-.6-.1-.2-.1-.3-.2-.4-.3-.1-.1-.1-.2-.2-.4s0-.3 0-.4c0-.3.1-.6.2-.8.1-.2.5-.3 1-.3s.8.1 1 .3c.2.1.2.4.2.7zm11 7.4c0 .6 0 1.2-.1 1.8-.1.6-.3 1.2-.6 1.7s-.7.9-1.3 1.3c-.6.3-1.4.5-2.4.5s-1.8-.2-2.4-.5c-.6-.3-1-.7-1.3-1.3-.3-.5-.5-1.1-.5-1.7-.1-.6-.1-1.2-.1-1.8 0-.5 0-1 .1-1.6.1-.6.3-1.1.6-1.6s.7-.9 1.3-1.3c.6-.3 1.3-.5 2.3-.5 1 0 1.8.1 2.3.4.6.3 1 .7 1.3 1.2.3.5.5 1 .6 1.6.1.6.2 1.2.2 1.8zm-2.3.1c0-.5 0-1-.1-1.4-.1-.4-.2-.7-.3-1-.2-.3-.4-.5-.7-.6-.3-.1-.6-.2-1.1-.2-.4 0-.8.1-1 .2-.2.1-.5.3-.6.6-.2.3-.3.6-.3 1-.1.4-.1.9-.1 1.4 0 .5 0 1 .1 1.4.1.4.2.7.3 1 .1.3.4.5.6.6.2.1.6.2 1 .2.5 0 .8-.1 1.1-.2.3-.1.5-.3.7-.6.2-.3.3-.6.3-1s.1-.8.1-1.4zm12.7 4.9c-.1.1-.2.1-.3.1h-1.5c-.3 0-.4-.1-.4-.4v-5.6c0-.6-.1-1.1-.3-1.4-.2-.4-.6-.5-1.2-.5-.2 0-.4 0-.7.1-.3.1-.5.2-.8.3-.3.1-.5.2-.7.3-.2.1-.4.2-.5.3V67c0 .3-.1.4-.4.4h-1.4c-.3 0-.4-.1-.4-.4v-9.1c0-.3.1-.4.4-.4h1.4c.3 0 .4.1.4.4v.6c.2-.1.4-.3.7-.4.3-.1.5-.3.8-.4l.9-.3c.3-.1.6-.1.9-.1.7 0 1.2.1 1.6.3.4.2.7.5.9.8.2.3.3.8.4 1.2.1.5.1.9.1 1.5V67c.2.1.1.2.1.3zm-74.4-6.9l1.5-2 3.4-4.2c.1-.1.2-.2.3-.2.1 0 .2-.1.4-.1h1.8c.1 0 .2 0 .3.1 0 .1 0 .2-.1.3l-4.4 5.3 4.5 7.2c.1.1.1.2 0 .3-.1.1-.1.1-.2.1h-1.8c-.2 0-.3 0-.4-.1l-.3-.3-3.3-5.5-1.8 2.2V67c0 .1 0 .2-.1.3 0 .1-.1.1-.3.1h-1.5c-.3 0-.4-.1-.4-.4V54.4c0-.3.1-.4.4-.4h1.5c.1 0 .2 0 .3.1 0 .1.1.2.1.3l.1 6z" fill="#626366"/><path fill="#034DA1" d="M228 29h3.3v38.7H228z"/></g></svg>