<svg id="Layer_1" data-name="Layer 1" xmlns="http://www.w3.org/2000/svg" xmlns:xlink="http://www.w3.org/1999/xlink" viewBox="0 0 328 56"><defs><style>.cls-1{fill:none;}.cls-2{fill:#404040;}.cls-3{fill:#039;}.cls-4{clip-path:url(#clip-path);}.cls-5{fill:#fc0;}.cls-6{clip-path:url(#clip-path-2);}.cls-7{clip-path:url(#clip-path-3);}.cls-8{clip-path:url(#clip-path-4);}.cls-9{clip-path:url(#clip-path-5);}.cls-10{clip-path:url(#clip-path-6);}.cls-11{clip-path:url(#clip-path-7);}.cls-12{clip-path:url(#clip-path-8);}.cls-13{clip-path:url(#clip-path-9);}.cls-14{clip-path:url(#clip-path-10);}.cls-15{clip-path:url(#clip-path-11);}.cls-16{clip-path:url(#clip-path-12);}.cls-17{clip-path:url(#clip-path-13);}.cls-18{clip-path:url(#clip-path-14);}.cls-19{clip-path:url(#clip-path-15);}.cls-20{clip-path:url(#clip-path-16);}.cls-21{clip-path:url(#clip-path-17);}.cls-22{clip-path:url(#clip-path-18);}.cls-23{clip-path:url(#clip-path-19);}.cls-24{clip-path:url(#clip-path-20);}.cls-25{clip-path:url(#clip-path-21);}.cls-26{clip-path:url(#clip-path-22);}.cls-27{clip-path:url(#clip-path-23);}.cls-28{clip-path:url(#clip-path-24);}.cls-29{clip-path:url(#clip-path-25);}.cls-30{clip-path:url(#clip-path-26);}.cls-31{clip-path:url(#clip-path-27);}.cls-32{clip-path:url(#clip-path-28);}.cls-33{clip-path:url(#clip-path-29);}.cls-34{clip-path:url(#clip-path-30);}.cls-35{clip-path:url(#clip-path-31);}.cls-36{clip-path:url(#clip-path-32);}.cls-37{clip-path:url(#clip-path-33);}.cls-38{clip-path:url(#clip-path-34);}.cls-39{clip-path:url(#clip-path-35);}.cls-40{clip-path:url(#clip-path-36);}.cls-41{clip-path:url(#clip-path-37);}.cls-42{clip-path:url(#clip-path-38);}.cls-43{clip-path:url(#clip-path-39);}.cls-44{clip-path:url(#clip-path-40);}.cls-45{clip-path:url(#clip-path-41);}.cls-46{clip-path:url(#clip-path-42);}.cls-47{clip-path:url(#clip-path-43);}.cls-48{clip-path:url(#clip-path-44);}.cls-49{clip-path:url(#clip-path-45);}.cls-50{clip-path:url(#clip-path-46);}.cls-51{clip-path:url(#clip-path-47);}.cls-52{clip-path:url(#clip-path-48);}.cls-53{clip-path:url(#clip-path-49);}.cls-54{clip-path:url(#clip-path-50);}.cls-55{clip-path:url(#clip-path-51);}.cls-56{clip-path:url(#clip-path-52);}.cls-57{clip-path:url(#clip-path-53);}.cls-58{clip-path:url(#clip-path-54);}.cls-59{clip-path:url(#clip-path-55);}.cls-60{clip-path:url(#clip-path-56);}.cls-61{clip-path:url(#clip-path-57);}.cls-62{clip-path:url(#clip-path-58);}.cls-63{clip-path:url(#clip-path-59);}.cls-64{clip-path:url(#clip-path-60);}.cls-65{clip-path:url(#clip-path-61);}.cls-66{clip-path:url(#clip-path-62);}.cls-67{clip-path:url(#clip-path-63);}.cls-68{clip-path:url(#clip-path-64);}.cls-69{clip-path:url(#clip-path-65);}.cls-70{clip-path:url(#clip-path-66);}.cls-71{clip-path:url(#clip-path-67);}.cls-72{clip-path:url(#clip-path-68);}.cls-73{clip-path:url(#clip-path-69);}.cls-74{clip-path:url(#clip-path-70);}.cls-75{clip-path:url(#clip-path-71);}.cls-76{clip-path:url(#clip-path-72);}.cls-77{clip-path:url(#clip-path-73);}.cls-78{clip-path:url(#clip-path-74);}.cls-79{clip-path:url(#clip-path-75);}.cls-80{clip-path:url(#clip-path-76);}.cls-81{clip-path:url(#clip-path-77);}.cls-82{clip-path:url(#clip-path-78);}.cls-83{clip-path:url(#clip-path-79);}.cls-84{clip-path:url(#clip-path-80);}.cls-85{clip-path:url(#clip-path-81);}.cls-86{clip-path:url(#clip-path-82);}.cls-87{clip-path:url(#clip-path-83);}.cls-88{clip-path:url(#clip-path-84);}.cls-89{clip-path:url(#clip-path-85);}.cls-90{clip-path:url(#clip-path-86);}.cls-91{clip-path:url(#clip-path-87);}.cls-92{clip-path:url(#clip-path-88);}.cls-93{clip-path:url(#clip-path-89);}.cls-94{clip-path:url(#clip-path-90);}.cls-95{clip-path:url(#clip-path-91);}.cls-96{clip-path:url(#clip-path-92);}.cls-97{clip-path:url(#clip-path-93);}.cls-98{clip-path:url(#clip-path-94);}.cls-99{clip-path:url(#clip-path-95);}.cls-100{clip-path:url(#clip-path-96);}.cls-101{clip-path:url(#clip-path-97);}.cls-102{clip-path:url(#clip-path-98);}.cls-103{clip-path:url(#clip-path-99);}.cls-104{clip-path:url(#clip-path-100);}.cls-105{clip-path:url(#clip-path-101);}.cls-106{clip-path:url(#clip-path-102);}.cls-107{clip-path:url(#clip-path-103);}.cls-108{clip-path:url(#clip-path-104);}.cls-109{clip-path:url(#clip-path-105);}.cls-110{clip-path:url(#clip-path-106);}.cls-111{clip-path:url(#clip-path-107);}.cls-112{clip-path:url(#clip-path-108);}.cls-113{clip-path:url(#clip-path-109);}.cls-114{clip-path:url(#clip-path-110);}.cls-115{clip-path:url(#clip-path-111);}.cls-116{clip-path:url(#clip-path-112);}.cls-117{clip-path:url(#clip-path-113);}.cls-118{clip-path:url(#clip-path-114);}.cls-119{clip-path:url(#clip-path-115);}.cls-120{clip-path:url(#clip-path-116);}.cls-121{clip-path:url(#clip-path-117);}.cls-122{clip-path:url(#clip-path-118);}.cls-123{clip-path:url(#clip-path-119);}.cls-124{clip-path:url(#clip-path-120);}</style><clipPath id="clip-path"><polygon class="cls-1" points="41.5 6.87 40.55 9.78 42.01 10.25 41.5 6.87"/></clipPath><clipPath id="clip-path-2"><polygon class="cls-1" points="41.5 6.87 42.45 9.78 40.99 10.25 41.5 6.87"/></clipPath><clipPath id="clip-path-3"><polygon class="cls-1" points="44.41 8.98 41.35 8.98 41.35 10.51 44.41 8.98"/></clipPath><clipPath id="clip-path-4"><polygon class="cls-1" points="44.41 8.98 41.94 10.78 41.03 9.54 44.41 8.98"/></clipPath><clipPath id="clip-path-5"><polygon class="cls-1" points="43.3 12.4 42.35 9.49 40.9 9.96 43.3 12.4"/></clipPath><clipPath id="clip-path-6"><polygon class="cls-1" points="43.3 12.4 40.82 10.6 41.72 9.37 43.3 12.4"/></clipPath><clipPath id="clip-path-7"><polygon class="cls-1" points="38.59 8.98 41.65 8.98 41.65 10.51 38.59 8.98"/></clipPath><clipPath id="clip-path-8"><polygon class="cls-1" points="38.59 8.98 41.06 10.78 41.97 9.54 38.59 8.98"/></clipPath><clipPath id="clip-path-9"><polygon class="cls-1" points="39.7 12.4 40.65 9.49 42.1 9.96 39.7 12.4"/></clipPath><clipPath id="clip-path-10"><polygon class="cls-1" points="39.7 12.4 42.18 10.6 41.28 9.37 39.7 12.4"/></clipPath><clipPath id="clip-path-11"><polygon class="cls-1" points="41.5 43.6 40.55 46.51 42.01 46.98 41.5 43.6"/></clipPath><clipPath id="clip-path-12"><polygon class="cls-1" points="41.5 43.6 42.45 46.51 40.99 46.98 41.5 43.6"/></clipPath><clipPath id="clip-path-13"><polygon class="cls-1" points="44.41 45.71 41.35 45.71 41.35 47.24 44.41 45.71"/></clipPath><clipPath id="clip-path-14"><polygon class="cls-1" points="44.41 45.71 41.94 47.51 41.03 46.27 44.41 45.71"/></clipPath><clipPath id="clip-path-15"><polygon class="cls-1" points="43.3 49.13 42.35 46.22 40.9 46.7 43.3 49.13"/></clipPath><clipPath id="clip-path-16"><polygon class="cls-1" points="43.3 49.13 40.82 47.34 41.72 46.1 43.3 49.13"/></clipPath><clipPath id="clip-path-17"><polygon class="cls-1" points="38.59 45.71 41.65 45.71 41.65 47.24 38.59 45.71"/></clipPath><clipPath id="clip-path-18"><polygon class="cls-1" points="38.59 45.71 41.06 47.51 41.97 46.27 38.59 45.71"/></clipPath><clipPath id="clip-path-19"><polygon class="cls-1" points="39.7 49.13 40.65 46.22 42.1 46.7 39.7 49.13"/></clipPath><clipPath id="clip-path-20"><polygon class="cls-1" points="39.7 49.13 42.18 47.34 41.28 46.1 39.7 49.13"/></clipPath><clipPath id="clip-path-21"><polygon class="cls-1" points="23.13 25.23 22.19 28.14 23.64 28.61 23.13 25.23"/></clipPath><clipPath id="clip-path-22"><polygon class="cls-1" points="23.13 25.23 24.08 28.14 22.62 28.61 23.13 25.23"/></clipPath><clipPath id="clip-path-23"><polygon class="cls-1" points="26.05 27.35 22.98 27.35 22.98 28.88 26.05 27.35"/></clipPath><clipPath id="clip-path-24"><polygon class="cls-1" points="26.05 27.35 23.57 29.15 22.67 27.91 26.05 27.35"/></clipPath><clipPath id="clip-path-25"><polygon class="cls-1" points="24.93 30.77 23.99 27.86 22.53 28.33 24.93 30.77"/></clipPath><clipPath id="clip-path-26"><polygon class="cls-1" points="24.93 30.77 22.46 28.97 23.36 27.73 24.93 30.77"/></clipPath><clipPath id="clip-path-27"><polygon class="cls-1" points="20.22 27.35 23.28 27.35 23.28 28.88 20.22 27.35"/></clipPath><clipPath id="clip-path-28"><polygon class="cls-1" points="20.22 27.35 22.7 29.15 23.6 27.91 20.22 27.35"/></clipPath><clipPath id="clip-path-29"><polygon class="cls-1" points="21.33 30.77 22.28 27.86 23.74 28.33 21.33 30.77"/></clipPath><clipPath id="clip-path-30"><polygon class="cls-1" points="21.33 30.77 23.81 28.97 22.91 27.73 21.33 30.77"/></clipPath><clipPath id="clip-path-31"><polygon class="cls-1" points="30.52 14.86 32.99 13.06 32.09 11.82 30.52 14.86"/></clipPath><clipPath id="clip-path-32"><polygon class="cls-1" points="30.52 14.86 31.46 11.95 32.92 12.42 30.52 14.86"/></clipPath><clipPath id="clip-path-33"><polygon class="cls-1" points="29.41 11.44 31.88 13.24 32.78 12 29.41 11.44"/></clipPath><clipPath id="clip-path-34"><polygon class="cls-1" points="29.41 11.44 32.47 11.44 32.47 12.97 29.41 11.44"/></clipPath><clipPath id="clip-path-35"><polygon class="cls-1" points="32.32 9.32 31.37 12.24 32.83 12.71 32.32 9.32"/></clipPath><clipPath id="clip-path-36"><polygon class="cls-1" points="32.32 9.32 33.26 12.24 31.81 12.71 32.32 9.32"/></clipPath><clipPath id="clip-path-37"><polygon class="cls-1" points="34.12 14.86 31.64 13.06 32.54 11.82 34.12 14.86"/></clipPath><clipPath id="clip-path-38"><polygon class="cls-1" points="34.12 14.86 33.17 11.95 31.71 12.42 34.12 14.86"/></clipPath><clipPath id="clip-path-39"><polygon class="cls-1" points="35.23 11.44 32.75 13.24 31.85 12 35.23 11.44"/></clipPath><clipPath id="clip-path-40"><polygon class="cls-1" points="35.23 11.44 32.17 11.44 32.17 12.97 35.23 11.44"/></clipPath><clipPath id="clip-path-41"><polygon class="cls-1" points="27.39 21.59 26.45 18.67 24.99 19.15 27.39 21.59"/></clipPath><clipPath id="clip-path-42"><polygon class="cls-1" points="27.39 21.59 24.92 19.79 25.82 18.55 27.39 21.59"/></clipPath><clipPath id="clip-path-43"><polygon class="cls-1" points="23.8 21.59 26.27 19.79 25.37 18.55 23.8 21.59"/></clipPath><clipPath id="clip-path-44"><polygon class="cls-1" points="23.8 21.59 24.74 18.67 26.2 19.15 23.8 21.59"/></clipPath><clipPath id="clip-path-45"><polygon class="cls-1" points="22.68 18.16 25.16 19.96 26.06 18.72 22.68 18.16"/></clipPath><clipPath id="clip-path-46"><polygon class="cls-1" points="22.68 18.16 25.74 18.16 25.74 19.69 22.68 18.16"/></clipPath><clipPath id="clip-path-47"><polygon class="cls-1" points="28.5 18.16 26.03 19.96 25.13 18.72 28.5 18.16"/></clipPath><clipPath id="clip-path-48"><polygon class="cls-1" points="28.5 18.16 25.44 18.16 25.44 19.69 28.5 18.16"/></clipPath><clipPath id="clip-path-49"><polygon class="cls-1" points="25.59 16.05 26.54 18.96 25.08 19.43 25.59 16.05"/></clipPath><clipPath id="clip-path-50"><polygon class="cls-1" points="25.59 16.05 24.65 18.96 26.1 19.43 25.59 16.05"/></clipPath><clipPath id="clip-path-51"><polygon class="cls-1" points="28.5 36.53 25.44 36.53 25.44 38.06 28.5 36.53"/></clipPath><clipPath id="clip-path-52"><polygon class="cls-1" points="28.5 36.53 26.03 38.33 25.13 37.09 28.5 36.53"/></clipPath><clipPath id="clip-path-53"><polygon class="cls-1" points="27.39 39.95 26.45 37.04 24.99 37.51 27.39 39.95"/></clipPath><clipPath id="clip-path-54"><polygon class="cls-1" points="27.39 39.95 24.92 38.15 25.82 36.91 27.39 39.95"/></clipPath><clipPath id="clip-path-55"><polygon class="cls-1" points="23.8 39.95 26.27 38.15 25.37 36.91 23.8 39.95"/></clipPath><clipPath id="clip-path-56"><polygon class="cls-1" points="23.8 39.95 24.74 37.04 26.2 37.51 23.8 39.95"/></clipPath><clipPath id="clip-path-57"><polygon class="cls-1" points="25.59 34.41 26.54 37.33 25.08 37.8 25.59 34.41"/></clipPath><clipPath id="clip-path-58"><polygon class="cls-1" points="25.59 34.41 24.65 37.33 26.1 37.8 25.59 34.41"/></clipPath><clipPath id="clip-path-59"><polygon class="cls-1" points="22.68 36.53 25.74 36.53 25.74 38.06 22.68 36.53"/></clipPath><clipPath id="clip-path-60"><polygon class="cls-1" points="22.68 36.53 25.16 38.33 26.06 37.09 22.68 36.53"/></clipPath><clipPath id="clip-path-61"><polygon class="cls-1" points="35.23 43.25 32.17 43.25 32.17 44.78 35.23 43.25"/></clipPath><clipPath id="clip-path-62"><polygon class="cls-1" points="35.23 43.25 32.75 45.05 31.85 43.81 35.23 43.25"/></clipPath><clipPath id="clip-path-63"><polygon class="cls-1" points="34.12 46.67 33.17 43.76 31.71 44.24 34.12 46.67"/></clipPath><clipPath id="clip-path-64"><polygon class="cls-1" points="34.12 46.67 31.64 44.88 32.54 43.64 34.12 46.67"/></clipPath><clipPath id="clip-path-65"><polygon class="cls-1" points="30.52 46.67 32.99 44.88 32.09 43.64 30.52 46.67"/></clipPath><clipPath id="clip-path-66"><polygon class="cls-1" points="30.52 46.67 31.46 43.76 32.92 44.24 30.52 46.67"/></clipPath><clipPath id="clip-path-67"><polygon class="cls-1" points="32.32 41.14 33.26 44.05 31.81 44.52 32.32 41.14"/></clipPath><clipPath id="clip-path-68"><polygon class="cls-1" points="32.32 41.14 31.37 44.05 32.83 44.52 32.32 41.14"/></clipPath><clipPath id="clip-path-69"><polygon class="cls-1" points="29.41 43.25 32.47 43.25 32.47 44.78 29.41 43.25"/></clipPath><clipPath id="clip-path-70"><polygon class="cls-1" points="29.41 43.25 31.88 45.05 32.78 43.81 29.41 43.25"/></clipPath><clipPath id="clip-path-71"><polygon class="cls-1" points="59.87 25.23 60.81 28.14 59.36 28.61 59.87 25.23"/></clipPath><clipPath id="clip-path-72"><polygon class="cls-1" points="59.87 25.23 58.92 28.14 60.38 28.61 59.87 25.23"/></clipPath><clipPath id="clip-path-73"><polygon class="cls-1" points="56.95 27.35 60.02 27.35 60.02 28.88 56.95 27.35"/></clipPath><clipPath id="clip-path-74"><polygon class="cls-1" points="56.95 27.35 59.43 29.15 60.33 27.91 56.95 27.35"/></clipPath><clipPath id="clip-path-75"><polygon class="cls-1" points="58.07 30.77 59.01 27.86 60.47 28.33 58.07 30.77"/></clipPath><clipPath id="clip-path-76"><polygon class="cls-1" points="58.07 30.77 60.54 28.97 59.64 27.73 58.07 30.77"/></clipPath><clipPath id="clip-path-77"><polygon class="cls-1" points="62.78 27.35 59.72 27.35 59.72 28.88 62.78 27.35"/></clipPath><clipPath id="clip-path-78"><polygon class="cls-1" points="62.78 27.35 60.3 29.15 59.4 27.91 62.78 27.35"/></clipPath><clipPath id="clip-path-79"><polygon class="cls-1" points="61.67 30.77 60.72 27.86 59.26 28.33 61.67 30.77"/></clipPath><clipPath id="clip-path-80"><polygon class="cls-1" points="61.67 30.77 59.19 28.97 60.09 27.73 61.67 30.77"/></clipPath><clipPath id="clip-path-81"><polygon class="cls-1" points="52.48 14.86 50.01 13.06 50.91 11.82 52.48 14.86"/></clipPath><clipPath id="clip-path-82"><polygon class="cls-1" points="52.48 14.86 51.54 11.95 50.08 12.42 52.48 14.86"/></clipPath><clipPath id="clip-path-83"><polygon class="cls-1" points="53.59 11.44 51.12 13.24 50.22 12 53.59 11.44"/></clipPath><clipPath id="clip-path-84"><polygon class="cls-1" points="53.59 11.44 50.53 11.44 50.53 12.97 53.59 11.44"/></clipPath><clipPath id="clip-path-85"><polygon class="cls-1" points="50.68 9.32 51.63 12.24 50.17 12.71 50.68 9.32"/></clipPath><clipPath id="clip-path-86"><polygon class="cls-1" points="50.68 9.32 49.74 12.24 51.19 12.71 50.68 9.32"/></clipPath><clipPath id="clip-path-87"><polygon class="cls-1" points="48.88 14.86 51.36 13.06 50.46 11.82 48.88 14.86"/></clipPath><clipPath id="clip-path-88"><polygon class="cls-1" points="48.88 14.86 49.83 11.95 51.29 12.42 48.88 14.86"/></clipPath><clipPath id="clip-path-89"><polygon class="cls-1" points="47.77 11.44 50.25 13.24 51.15 12 47.77 11.44"/></clipPath><clipPath id="clip-path-90"><polygon class="cls-1" points="47.77 11.44 50.83 11.44 50.83 12.97 47.77 11.44"/></clipPath><clipPath id="clip-path-91"><polygon class="cls-1" points="55.61 21.59 56.55 18.67 58.01 19.15 55.61 21.59"/></clipPath><clipPath id="clip-path-92"><polygon class="cls-1" points="55.61 21.59 58.08 19.79 57.18 18.55 55.61 21.59"/></clipPath><clipPath id="clip-path-93"><polygon class="cls-1" points="59.2 21.59 56.73 19.79 57.63 18.55 59.2 21.59"/></clipPath><clipPath id="clip-path-94"><polygon class="cls-1" points="59.2 21.59 58.26 18.67 56.8 19.15 59.2 21.59"/></clipPath><clipPath id="clip-path-95"><polygon class="cls-1" points="60.32 18.16 57.84 19.96 56.94 18.72 60.32 18.16"/></clipPath><clipPath id="clip-path-96"><polygon class="cls-1" points="60.32 18.16 57.26 18.16 57.26 19.69 60.32 18.16"/></clipPath><clipPath id="clip-path-97"><polygon class="cls-1" points="54.49 18.16 56.97 19.96 57.87 18.72 54.49 18.16"/></clipPath><clipPath id="clip-path-98"><polygon class="cls-1" points="54.49 18.16 57.56 18.16 57.56 19.69 54.49 18.16"/></clipPath><clipPath id="clip-path-99"><polygon class="cls-1" points="57.41 16.05 56.46 18.96 57.92 19.43 57.41 16.05"/></clipPath><clipPath id="clip-path-100"><polygon class="cls-1" points="57.41 16.05 58.35 18.96 56.9 19.43 57.41 16.05"/></clipPath><clipPath id="clip-path-101"><polygon class="cls-1" points="54.49 36.53 57.56 36.53 57.56 38.06 54.49 36.53"/></clipPath><clipPath id="clip-path-102"><polygon class="cls-1" points="54.49 36.53 56.97 38.33 57.87 37.09 54.49 36.53"/></clipPath><clipPath id="clip-path-103"><polygon class="cls-1" points="55.61 39.95 56.55 37.04 58.01 37.51 55.61 39.95"/></clipPath><clipPath id="clip-path-104"><polygon class="cls-1" points="55.61 39.95 58.08 38.15 57.18 36.91 55.61 39.95"/></clipPath><clipPath id="clip-path-105"><polygon class="cls-1" points="59.2 39.95 56.73 38.15 57.63 36.91 59.2 39.95"/></clipPath><clipPath id="clip-path-106"><polygon class="cls-1" points="59.2 39.95 58.26 37.04 56.8 37.51 59.2 39.95"/></clipPath><clipPath id="clip-path-107"><polygon class="cls-1" points="57.41 34.41 56.46 37.33 57.92 37.8 57.41 34.41"/></clipPath><clipPath id="clip-path-108"><polygon class="cls-1" points="57.41 34.41 58.35 37.33 56.9 37.8 57.41 34.41"/></clipPath><clipPath id="clip-path-109"><polygon class="cls-1" points="60.32 36.53 57.26 36.53 57.26 38.06 60.32 36.53"/></clipPath><clipPath id="clip-path-110"><polygon class="cls-1" points="60.32 36.53 57.84 38.33 56.94 37.09 60.32 36.53"/></clipPath><clipPath id="clip-path-111"><polygon class="cls-1" points="47.77 43.25 50.83 43.25 50.83 44.78 47.77 43.25"/></clipPath><clipPath id="clip-path-112"><polygon class="cls-1" points="47.77 43.25 50.25 45.05 51.15 43.81 47.77 43.25"/></clipPath><clipPath id="clip-path-113"><polygon class="cls-1" points="48.88 46.67 49.83 43.76 51.29 44.24 48.88 46.67"/></clipPath><clipPath id="clip-path-114"><polygon class="cls-1" points="48.88 46.67 51.36 44.88 50.46 43.64 48.88 46.67"/></clipPath><clipPath id="clip-path-115"><polygon class="cls-1" points="52.48 46.67 50.01 44.88 50.91 43.64 52.48 46.67"/></clipPath><clipPath id="clip-path-116"><polygon class="cls-1" points="52.48 46.67 51.54 43.76 50.08 44.24 52.48 46.67"/></clipPath><clipPath id="clip-path-117"><polygon class="cls-1" points="50.68 41.14 49.74 44.05 51.19 44.52 50.68 41.14"/></clipPath><clipPath id="clip-path-118"><polygon class="cls-1" points="50.68 41.14 51.63 44.05 50.17 44.52 50.68 41.14"/></clipPath><clipPath id="clip-path-119"><polygon class="cls-1" points="53.59 43.25 50.53 43.25 50.53 44.78 53.59 43.25"/></clipPath><clipPath id="clip-path-120"><polygon class="cls-1" points="53.59 43.25 51.12 45.05 50.22 43.81 53.59 43.25"/></clipPath></defs><title>logo--bg</title><path class="cls-2" d="M93.94,36.59V22.27h10.62v2.42H96.83v3.17H104v2.41H96.83v3.9h8v2.41H93.94Z"/><path class="cls-2" d="M107.29,26.22h6a4.66,4.66,0,0,1,2.76.67,2.36,2.36,0,0,1,.92,2,2.43,2.43,0,0,1-1.77,2.37,2.69,2.69,0,0,1,1.6,1,2.62,2.62,0,0,1,.53,1.58,2.46,2.46,0,0,1-.89,2,4,4,0,0,1-2.63.76h-6.53V26.22Zm2.76,4.31h1.77a4,4,0,0,0,1.85-.32,1.08,1.08,0,0,0,.57-1,1,1,0,0,0-.53-0.93,4.48,4.48,0,0,0-1.89-.28h-1.77v2.55Zm0,4.31h2.17a3.86,3.86,0,0,0,1.71-.28,1.22,1.22,0,0,0-.08-2.07,6.52,6.52,0,0,0-2.39-.29h-1.41v2.64Z"/><path class="cls-2" d="M119.48,26.22H122v1.52a3.83,3.83,0,0,1,1.35-1.27,3.71,3.71,0,0,1,1.88-.49,4,4,0,0,1,3.07,1.42,5.73,5.73,0,0,1,1.26,3.95,5.91,5.91,0,0,1-1.27,4,4,4,0,0,1-3.08,1.44,3.5,3.5,0,0,1-1.56-.34,5.24,5.24,0,0,1-1.47-1.17v5.22h-2.74V26.22Zm2.71,5a4,4,0,0,0,.69,2.58,2.12,2.12,0,0,0,1.69.83,2,2,0,0,0,1.59-.77,4,4,0,0,0,.63-2.51,3.75,3.75,0,0,0-.65-2.42,2,2,0,0,0-1.62-.79,2.11,2.11,0,0,0-1.67.78A3.45,3.45,0,0,0,122.19,31.23Z"/><path class="cls-2" d="M131.14,31.26a5.61,5.61,0,0,1,.67-2.65,4.62,4.62,0,0,1,1.91-2,5.67,5.67,0,0,1,2.76-.67,5.18,5.18,0,0,1,3.86,1.53,5.28,5.28,0,0,1,1.5,3.86,5.34,5.34,0,0,1-1.52,3.9,5.13,5.13,0,0,1-3.82,1.55,6,6,0,0,1-2.72-.64,4.42,4.42,0,0,1-2-1.89A6.3,6.3,0,0,1,131.14,31.26ZM134,31.4a3.44,3.44,0,0,0,.73,2.36,2.39,2.39,0,0,0,3.61,0,3.48,3.48,0,0,0,.73-2.38,3.42,3.42,0,0,0-.73-2.34,2.39,2.39,0,0,0-3.61,0A3.44,3.44,0,0,0,134,31.4Z"/><path class="cls-2" d="M143.88,26.22h9.21V36.59h-2.74V28.43h-3.72v8.15h-2.74V26.22Z"/><path class="cls-2" d="M162.08,33.29l2.73,0.46A4.48,4.48,0,0,1,163.15,36a4.89,4.89,0,0,1-2.85.79,4.64,4.64,0,0,1-4-1.77,5.94,5.94,0,0,1-1-3.57,5.73,5.73,0,0,1,1.35-4A4.44,4.44,0,0,1,160,26a4.6,4.6,0,0,1,3.65,1.53A6.76,6.76,0,0,1,165,32.19h-6.87a2.78,2.78,0,0,0,.66,1.9,2.08,2.08,0,0,0,1.58.68,1.68,1.68,0,0,0,1.08-.35A2.17,2.17,0,0,0,162.08,33.29Zm0.16-2.77a2.64,2.64,0,0,0-.62-1.81,1.89,1.89,0,0,0-1.43-.62,1.91,1.91,0,0,0-1.48.65,2.53,2.53,0,0,0-.58,1.78h4.1Z"/><path class="cls-2" d="M167.13,26.22h2.64v6.51L174,26.22h2.7V36.59H174V30l-4.28,6.63h-2.64V26.22ZM173.7,22H175a3.1,3.1,0,0,1-.93,2.08,3.33,3.33,0,0,1-4.23,0,3.1,3.1,0,0,1-.93-2.08h1.34a1.51,1.51,0,0,0,.49,1,2.27,2.27,0,0,0,2.44,0A1.51,1.51,0,0,0,173.7,22Z"/><path class="cls-2" d="M188.53,29.28l-2.71.49a2,2,0,0,0-.62-1.22,1.87,1.87,0,0,0-1.25-.41,2.05,2.05,0,0,0-1.64.71,3.63,3.63,0,0,0-.61,2.37,4.2,4.2,0,0,0,.62,2.61,2,2,0,0,0,1.67.76,1.85,1.85,0,0,0,1.28-.44,2.67,2.67,0,0,0,.7-1.53l2.7,0.46a4.79,4.79,0,0,1-1.61,2.8,5,5,0,0,1-3.19.95,4.75,4.75,0,0,1-3.63-1.44,5.57,5.57,0,0,1-1.35-4,5.58,5.58,0,0,1,1.36-4A4.82,4.82,0,0,1,183.91,26a5,5,0,0,1,3,.82A4.52,4.52,0,0,1,188.53,29.28Z"/><path class="cls-2" d="M190.5,26.22h2.73v4.24a1.41,1.41,0,0,0,1-.42,5.54,5.54,0,0,0,.68-1.49,4,4,0,0,1,1.15-2,2.84,2.84,0,0,1,1.64-.43l1.08,0V28a2.93,2.93,0,0,0-1.39.21,2.83,2.83,0,0,0-.65,1.28,2.57,2.57,0,0,1-1.38,1.77,3.77,3.77,0,0,1,2.2,2.26l0.11,0.21,1.53,2.86h-2.95l-1.37-3a3.67,3.67,0,0,0-.73-1.17,1.39,1.39,0,0,0-.91-0.26v4.42H190.5V26.22Z"/><path class="cls-2" d="M200.55,26.22h2.64v6.51l4.22-6.51h2.7V36.59h-2.64V30l-4.28,6.63h-2.64V26.22Z"/><path class="cls-2" d="M221.8,26.22V36.59h-2.72V32.28h-0.25a2.8,2.8,0,0,0-1.3.23,3.1,3.1,0,0,0-.92,1l-0.17.21-1.81,2.9h-3.19l2-3a3.3,3.3,0,0,1,1.52-1.48,2.61,2.61,0,0,1-1.87-.87,3,3,0,0,1-.72-2.06,3,3,0,0,1,.47-1.72,2.37,2.37,0,0,1,1.26-1,8,8,0,0,1,2.34-.26h5.4ZM219.08,28h-2a2.78,2.78,0,0,0-1.52.31,1.16,1.16,0,0,0-.44,1,1.12,1.12,0,0,0,.5,1,3.2,3.2,0,0,0,1.63.31h1.8V28Z"/><path class="cls-2" d="M239.19,29.28l-2.71.49a2,2,0,0,0-.62-1.22,1.87,1.87,0,0,0-1.25-.41,2.05,2.05,0,0,0-1.64.71,3.63,3.63,0,0,0-.61,2.37,4.2,4.2,0,0,0,.62,2.61,2,2,0,0,0,1.67.76,1.85,1.85,0,0,0,1.28-.44,2.67,2.67,0,0,0,.7-1.53l2.7,0.46a4.79,4.79,0,0,1-1.61,2.8,5,5,0,0,1-3.19.95,4.75,4.75,0,0,1-3.63-1.44,5.57,5.57,0,0,1-1.35-4,5.58,5.58,0,0,1,1.36-4A4.82,4.82,0,0,1,234.57,26a5,5,0,0,1,3,.82A4.52,4.52,0,0,1,239.19,29.28Z"/><path class="cls-2" d="M240.22,26.22h6.13v4.31h2.73a10.4,10.4,0,0,1,2.5.22,2.63,2.63,0,0,1,1.44,1,3.12,3.12,0,0,1-.28,4,4.72,4.72,0,0,1-3.27.85h-5.86V28.43h-3.39V26.22Zm6.13,8.63h2.55a2.14,2.14,0,0,0,1.54-.39,1.36,1.36,0,0,0,.34-0.93,1,1,0,0,0-.58-1,5.26,5.26,0,0,0-2.08-.28h-1.78v2.64Z"/><path class="cls-2" d="M255.83,26.22h2.74v4.19h2.19a5,5,0,0,1,1.51-3.21,5.38,5.38,0,0,1,7,.2,5.57,5.57,0,0,1,1.4,4.08,6.66,6.66,0,0,1-.52,2.73,4.38,4.38,0,0,1-1.6,1.89,5,5,0,0,1-2.8.72,4.62,4.62,0,0,1-5-4.24h-2.19v4h-2.74V26.22Zm9.86,1.9a1.9,1.9,0,0,0-1.67.73,4.08,4.08,0,0,0-.52,2.33,4.79,4.79,0,0,0,.56,2.77,2,2,0,0,0,1.7.72,1.76,1.76,0,0,0,1.58-.81,4.46,4.46,0,0,0,.53-2.42,4.34,4.34,0,0,0-.57-2.65A2,2,0,0,0,265.69,28.12Z"/><path class="cls-2" d="M275.72,32.33V30.54a4.13,4.13,0,0,0,1-.09,1.38,1.38,0,0,0,.9-1.26,1.36,1.36,0,0,0-.36-0.9,1.33,1.33,0,0,0-1.07-.42,2,2,0,0,0-1,.23,2.12,2.12,0,0,0-.78,1.11l-2.32-.5a3.21,3.21,0,0,1,1.5-2.05,5.05,5.05,0,0,1,2.63-.68,4.41,4.41,0,0,1,2.91.86,2.7,2.7,0,0,1,1,2.16,2,2,0,0,1-.44,1.34,4.14,4.14,0,0,1-1.4,1,3.48,3.48,0,0,1,1.72.95,2.28,2.28,0,0,1,.57,1.58,2.57,2.57,0,0,1-1.13,2.08,5.25,5.25,0,0,1-3.26.87q-3.71,0-4.54-2.9l2.51-.46a2.08,2.08,0,0,0,2,1.52,1.81,1.81,0,0,0,1.24-.41,1.23,1.23,0,0,0,.46-1,1.11,1.11,0,0,0-.48-1,2.12,2.12,0,0,0-1.26-.35h-0.47Z"/><rect class="cls-3" width="83" height="56"/><g class="cls-4"><rect class="cls-5" x="35.22" y="2.79" width="13.06" height="11.53" transform="translate(20.71 45.62) rotate(-72)"/></g><g class="cls-6"><rect class="cls-5" x="35.48" y="2.03" width="11.53" height="13.06" transform="translate(-0.63 13.16) rotate(-18)"/></g><g class="cls-7"><rect class="cls-5" x="36.35" y="3.98" width="13.06" height="11.53"/></g><g class="cls-8"><rect class="cls-5" x="36.19" y="3.49" width="13.06" height="11.53" transform="translate(2.72 26.88) rotate(-36)"/></g><g class="cls-9"><rect class="cls-5" x="36.33" y="4.65" width="11.53" height="13.06" transform="translate(-1.4 13.56) rotate(-18)"/></g><g class="cls-10"><rect class="cls-5" x="36.75" y="4.35" width="11.53" height="13.06" transform="translate(8.72 38.88) rotate(-54)"/></g><g class="cls-11"><rect class="cls-5" x="33.59" y="3.98" width="13.06" height="11.53"/></g><g class="cls-12"><rect class="cls-5" x="34.51" y="2.73" width="11.53" height="13.06" transform="translate(9.11 36.4) rotate(-54)"/></g><g class="cls-13"><rect class="cls-5" x="34.37" y="5.42" width="13.06" height="11.53" transform="translate(17.63 46.63) rotate(-72)"/></g><g class="cls-14"><rect class="cls-5" x="33.96" y="5.12" width="13.06" height="11.53" transform="translate(1.34 25.88) rotate(-36)"/></g><g class="cls-15"><rect class="cls-5" x="35.22" y="39.52" width="13.06" height="11.53" transform="translate(-14.22 71.01) rotate(-72)"/></g><g class="cls-16"><rect class="cls-5" x="35.48" y="38.76" width="11.53" height="13.06" transform="translate(-11.98 14.96) rotate(-18)"/></g><g class="cls-17"><rect class="cls-5" x="36.35" y="40.71" width="13.06" height="11.53"/></g><g class="cls-18"><rect class="cls-5" x="36.19" y="40.23" width="13.06" height="11.53" transform="translate(-18.87 33.9) rotate(-36)"/></g><g class="cls-19"><rect class="cls-5" x="36.33" y="41.39" width="11.53" height="13.06" transform="translate(-12.75 15.35) rotate(-18)"/></g><g class="cls-20"><rect class="cls-5" x="36.75" y="41.09" width="11.53" height="13.06" transform="translate(-21 54.02) rotate(-54)"/></g><g class="cls-21"><rect class="cls-5" x="33.59" y="40.71" width="13.06" height="11.53"/></g><g class="cls-22"><rect class="cls-5" x="34.51" y="39.46" width="11.53" height="13.06" transform="translate(-20.61 51.54) rotate(-54)"/></g><g class="cls-23"><rect class="cls-5" x="34.37" y="42.15" width="13.06" height="11.53" transform="translate(-17.31 72.01) rotate(-72)"/></g><g class="cls-24"><rect class="cls-5" x="33.96" y="41.85" width="13.06" height="11.53" transform="translate(-20.26 32.89) rotate(-36)"/></g><g class="cls-25"><rect class="cls-5" x="16.86" y="21.16" width="13.06" height="11.53" transform="translate(-9.44 40.85) rotate(-72)"/></g><g class="cls-26"><rect class="cls-5" x="17.11" y="20.39" width="11.53" height="13.06" transform="translate(-7.2 8.39) rotate(-18)"/></g><g class="cls-27"><rect class="cls-5" x="17.98" y="22.35" width="13.06" height="11.53"/></g><g class="cls-28"><rect class="cls-5" x="17.83" y="21.86" width="13.06" height="11.53" transform="translate(-11.59 19.59) rotate(-36)"/></g><g class="cls-29"><rect class="cls-5" x="17.97" y="23.02" width="11.53" height="13.06" transform="translate(-7.97 8.78) rotate(-18)"/></g><g class="cls-30"><rect class="cls-5" x="18.38" y="22.72" width="11.53" height="13.06" transform="translate(-13.71 31.59) rotate(-54)"/></g><g class="cls-31"><rect class="cls-5" x="15.22" y="22.35" width="13.06" height="11.53"/></g><g class="cls-32"><rect class="cls-5" x="16.14" y="21.1" width="11.53" height="13.06" transform="translate(-13.32 29.11) rotate(-54)"/></g><g class="cls-33"><rect class="cls-5" x="16" y="23.78" width="13.06" height="11.53" transform="translate(-12.53 41.85) rotate(-72)"/></g><g class="cls-34"><rect class="cls-5" x="15.59" y="23.48" width="13.06" height="11.53" transform="translate(-12.97 18.59) rotate(-36)"/></g><g class="cls-35"><rect class="cls-5" x="24.78" y="7.58" width="13.06" height="11.53" transform="translate(-1.86 20.95) rotate(-36)"/></g><g class="cls-36"><rect class="cls-5" x="25.19" y="7.88" width="13.06" height="11.53" transform="translate(8.94 39.59) rotate(-72)"/></g><g class="cls-37"><rect class="cls-5" x="25.33" y="5.19" width="11.53" height="13.06" transform="translate(3.33 29.99) rotate(-54)"/></g><g class="cls-38"><rect class="cls-5" x="24.41" y="6.44" width="13.06" height="11.53"/></g><g class="cls-39"><rect class="cls-5" x="26.04" y="5.25" width="13.06" height="11.53" transform="translate(12.03 38.59) rotate(-72)"/></g><g class="cls-40"><rect class="cls-5" x="26.3" y="4.49" width="11.53" height="13.06" transform="translate(-1.84 10.45) rotate(-18)"/></g><g class="cls-41"><rect class="cls-5" x="27.56" y="6.81" width="11.53" height="13.06" transform="translate(2.94 32.46) rotate(-54)"/></g><g class="cls-42"><rect class="cls-5" x="27.15" y="7.11" width="11.53" height="13.06" transform="translate(-2.61 10.84) rotate(-18)"/></g><g class="cls-43"><rect class="cls-5" x="27.01" y="5.96" width="13.06" height="11.53" transform="matrix(0.81, -0.59, 0.59, 0.81, -0.48, 21.95)"/></g><g class="cls-44"><rect class="cls-5" x="27.17" y="6.44" width="13.06" height="11.53"/></g><g class="cls-45"><rect class="cls-5" x="20.43" y="13.84" width="11.53" height="13.06" transform="translate(-5.01 9.09) rotate(-18)"/></g><g class="cls-46"><rect class="cls-5" x="20.84" y="13.54" width="11.53" height="13.06" transform="translate(-5.27 29.8) rotate(-54)"/></g><g class="cls-47"><rect class="cls-5" x="18.05" y="14.3" width="13.06" height="11.53" transform="translate(-7.1 18.28) rotate(-36)"/></g><g class="cls-48"><rect class="cls-5" x="18.46" y="14.6" width="13.06" height="11.53" transform="translate(-2.1 37.84) rotate(-72)"/></g><g class="cls-49"><rect class="cls-5" x="18.61" y="11.91" width="11.53" height="13.06" transform="translate(-4.88 27.32) rotate(-54)"/></g><g class="cls-50"><rect class="cls-5" x="17.68" y="13.16" width="13.06" height="11.53"/></g><g class="cls-51"><rect class="cls-5" x="20.29" y="12.68" width="13.06" height="11.53" transform="translate(-5.72 19.29) rotate(-36)"/></g><g class="cls-52"><rect class="cls-5" x="20.44" y="13.16" width="13.06" height="11.53"/></g><g class="cls-53"><rect class="cls-5" x="19.57" y="11.21" width="11.53" height="13.06" transform="translate(-4.24 8.7) rotate(-18)"/></g><g class="cls-54"><rect class="cls-5" x="19.32" y="11.97" width="13.06" height="11.53" transform="translate(0.99 36.84) rotate(-72)"/></g><g class="cls-55"><rect class="cls-5" x="20.44" y="31.53" width="13.06" height="11.53"/></g><g class="cls-56"><rect class="cls-5" x="20.29" y="31.04" width="13.06" height="11.53" transform="translate(-16.51 22.79) rotate(-36)"/></g><g class="cls-57"><rect class="cls-5" x="20.43" y="32.2" width="11.53" height="13.06" transform="translate(-10.69 9.99) rotate(-18)"/></g><g class="cls-58"><rect class="cls-5" x="20.84" y="31.9" width="11.53" height="13.06" transform="translate(-20.13 37.37) rotate(-54)"/></g><g class="cls-59"><rect class="cls-5" x="18.05" y="32.67" width="13.06" height="11.53" transform="translate(-17.9 21.79) rotate(-36)"/></g><g class="cls-60"><rect class="cls-5" x="18.46" y="32.97" width="13.06" height="11.53" transform="translate(-19.57 50.54) rotate(-72)"/></g><g class="cls-61"><rect class="cls-5" x="19.57" y="29.58" width="11.53" height="13.06" transform="translate(-9.92 9.6) rotate(-18)"/></g><g class="cls-62"><rect class="cls-5" x="19.32" y="30.34" width="13.06" height="11.53" transform="translate(-16.48 49.53) rotate(-72)"/></g><g class="cls-63"><rect class="cls-5" x="17.68" y="31.53" width="13.06" height="11.53"/></g><g class="cls-64"><rect class="cls-5" x="18.61" y="30.28" width="11.53" height="13.06" transform="translate(-19.73 34.89) rotate(-54)"/></g><g class="cls-65"><rect class="cls-5" x="27.17" y="38.25" width="13.06" height="11.53"/></g><g class="cls-66"><rect class="cls-5" x="27.01" y="37.77" width="13.06" height="11.53" transform="translate(-19.18 28.03) rotate(-36)"/></g><g class="cls-67"><rect class="cls-5" x="27.15" y="38.93" width="11.53" height="13.06" transform="translate(-12.44 12.4) rotate(-18)"/></g><g class="cls-68"><rect class="cls-5" x="27.56" y="38.63" width="11.53" height="13.06" transform="translate(-22.79 45.58) rotate(-54)"/></g><g class="cls-69"><rect class="cls-5" x="24.78" y="39.39" width="13.06" height="11.53" transform="translate(-20.56 27.03) rotate(-36)"/></g><g class="cls-70"><rect class="cls-5" x="25.19" y="39.69" width="13.06" height="11.53" transform="translate(-21.31 61.57) rotate(-72)"/></g><g class="cls-71"><rect class="cls-5" x="26.3" y="36.3" width="11.53" height="13.06" transform="translate(-11.67 12) rotate(-18)"/></g><g class="cls-72"><rect class="cls-5" x="26.04" y="37.06" width="13.06" height="11.53" transform="translate(-18.23 60.57) rotate(-72)"/></g><g class="cls-73"><rect class="cls-5" x="24.41" y="38.25" width="13.06" height="11.53"/></g><g class="cls-74"><rect class="cls-5" x="25.33" y="37" width="11.53" height="13.06" transform="translate(-22.4 43.1) rotate(-54)"/></g><g class="cls-75"><rect class="cls-5" x="53.85" y="20.39" width="11.53" height="13.06" transform="translate(-5.4 19.74) rotate(-18)"/></g><g class="cls-76"><rect class="cls-5" x="53.59" y="21.16" width="13.06" height="11.53" transform="translate(15.94 75.78) rotate(-72)"/></g><g class="cls-77"><rect class="cls-5" x="51.96" y="22.35" width="13.06" height="11.53"/></g><g class="cls-78"><rect class="cls-5" x="52.88" y="21.1" width="11.53" height="13.06" transform="translate(1.82 58.83) rotate(-54)"/></g><g class="cls-79"><rect class="cls-5" x="52.74" y="23.78" width="13.06" height="11.53" transform="translate(12.85 76.79) rotate(-72)"/></g><g class="cls-80"><rect class="cls-5" x="52.33" y="23.48" width="13.06" height="11.53" transform="translate(-5.95 40.18) rotate(-36)"/></g><g class="cls-81"><rect class="cls-5" x="54.72" y="22.35" width="13.06" height="11.53"/></g><g class="cls-82"><rect class="cls-5" x="54.56" y="21.86" width="13.06" height="11.53" transform="translate(-4.57 41.18) rotate(-36)"/></g><g class="cls-83"><rect class="cls-5" x="54.7" y="23.02" width="11.53" height="13.06" transform="translate(-6.17 20.13) rotate(-18)"/></g><g class="cls-84"><rect class="cls-5" x="55.11" y="22.72" width="11.53" height="13.06" transform="translate(1.43 61.31) rotate(-54)"/></g><g class="cls-85"><rect class="cls-5" x="45.93" y="6.81" width="11.53" height="13.06" transform="translate(10.51 47.32) rotate(-54)"/></g><g class="cls-86"><rect class="cls-5" x="45.52" y="7.11" width="11.53" height="13.06" transform="translate(-1.71 16.51) rotate(-18)"/></g><g class="cls-87"><rect class="cls-5" x="45.38" y="5.96" width="13.06" height="11.53" transform="matrix(0.81, -0.59, 0.59, 0.81, 3.02, 32.75)"/></g><g class="cls-88"><rect class="cls-5" x="45.53" y="6.44" width="13.06" height="11.53"/></g><g class="cls-89"><rect class="cls-5" x="44.66" y="4.49" width="11.53" height="13.06" transform="translate(-0.94 16.12) rotate(-18)"/></g><g class="cls-90"><rect class="cls-5" x="44.41" y="5.25" width="13.06" height="11.53" transform="translate(24.72 56.06) rotate(-72)"/></g><g class="cls-91"><rect class="cls-5" x="43.14" y="7.58" width="13.06" height="11.53" transform="translate(1.64 31.75) rotate(-36)"/></g><g class="cls-92"><rect class="cls-5" x="43.55" y="7.88" width="13.06" height="11.53" transform="translate(21.63 57.06) rotate(-72)"/></g><g class="cls-93"><rect class="cls-5" x="43.69" y="5.19" width="11.53" height="13.06" transform="translate(10.91 44.85) rotate(-54)"/></g><g class="cls-94"><rect class="cls-5" x="42.77" y="6.44" width="13.06" height="11.53"/></g><g class="cls-95"><rect class="cls-5" x="50.28" y="14.6" width="13.06" height="11.53" transform="translate(19.88 68.1) rotate(-72)"/></g><g class="cls-96"><rect class="cls-5" x="49.86" y="14.3" width="13.06" height="11.53" transform="translate(-1.02 36.98) rotate(-36)"/></g><g class="cls-97"><rect class="cls-5" x="52.65" y="13.54" width="11.53" height="13.06" transform="matrix(0.59, -0.81, 0.81, 0.59, 7.85, 55.53)"/></g><g class="cls-98"><rect class="cls-5" x="52.24" y="13.84" width="11.53" height="13.06" transform="translate(-3.45 18.92) rotate(-18)"/></g><g class="cls-99"><rect class="cls-5" x="52.1" y="12.68" width="13.06" height="11.53" transform="translate(0.36 37.98) rotate(-36)"/></g><g class="cls-100"><rect class="cls-5" x="52.26" y="13.16" width="13.06" height="11.53"/></g><g class="cls-101"><rect class="cls-5" x="50.42" y="11.91" width="11.53" height="13.06" transform="translate(8.24 53.06) rotate(-54)"/></g><g class="cls-102"><rect class="cls-5" x="49.49" y="13.16" width="13.06" height="11.53"/></g><g class="cls-103"><rect class="cls-5" x="51.13" y="11.97" width="13.06" height="11.53" transform="translate(22.97 67.1) rotate(-72)"/></g><g class="cls-104"><rect class="cls-5" x="51.39" y="11.21" width="11.53" height="13.06" transform="translate(-2.68 18.53) rotate(-18)"/></g><g class="cls-105"><rect class="cls-5" x="49.49" y="31.53" width="13.06" height="11.53"/></g><g class="cls-106"><rect class="cls-5" x="50.42" y="30.28" width="11.53" height="13.06" transform="translate(-6.62 60.63) rotate(-54)"/></g><g class="cls-107"><rect class="cls-5" x="50.28" y="32.97" width="13.06" height="11.53" transform="translate(2.42 80.79) rotate(-72)"/></g><g class="cls-108"><rect class="cls-5" x="49.86" y="32.67" width="13.06" height="11.53" transform="translate(-11.82 40.49) rotate(-36)"/></g><g class="cls-109"><rect class="cls-5" x="52.65" y="31.9" width="11.53" height="13.06" transform="translate(-7.01 63.1) rotate(-54)"/></g><g class="cls-110"><rect class="cls-5" x="52.24" y="32.2" width="11.53" height="13.06" transform="translate(-9.13 19.82) rotate(-18)"/></g><g class="cls-111"><rect class="cls-5" x="51.13" y="30.34" width="13.06" height="11.53" transform="translate(5.5 79.79) rotate(-72)"/></g><g class="cls-112"><rect class="cls-5" x="51.39" y="29.58" width="11.53" height="13.06" transform="translate(-8.36 19.43) rotate(-18)"/></g><g class="cls-113"><rect class="cls-5" x="52.26" y="31.53" width="13.06" height="11.53"/></g><g class="cls-114"><rect class="cls-5" x="52.1" y="31.04" width="13.06" height="11.53" transform="translate(-10.44 41.49) rotate(-36)"/></g><g class="cls-115"><rect class="cls-5" x="42.77" y="38.25" width="13.06" height="11.53"/></g><g class="cls-116"><rect class="cls-5" x="43.69" y="37" width="11.53" height="13.06" transform="translate(-14.83 57.96) rotate(-54)"/></g><g class="cls-117"><rect class="cls-5" x="43.55" y="39.69" width="13.06" height="11.53" transform="translate(-8.62 79.04) rotate(-72)"/></g><g class="cls-118"><rect class="cls-5" x="43.14" y="39.39" width="13.06" height="11.53" transform="translate(-17.06 37.82) rotate(-36)"/></g><g class="cls-119"><rect class="cls-5" x="45.93" y="38.63" width="11.53" height="13.06" transform="translate(-15.22 60.44) rotate(-54)"/></g><g class="cls-120"><rect class="cls-5" x="45.52" y="38.93" width="11.53" height="13.06" transform="translate(-11.54 18.07) rotate(-18)"/></g><g class="cls-121"><rect class="cls-5" x="44.41" y="37.06" width="13.06" height="11.53" transform="translate(-5.54 78.04) rotate(-72)"/></g><g class="cls-122"><rect class="cls-5" x="44.66" y="36.3" width="11.53" height="13.06" transform="translate(-10.77 17.68) rotate(-18)"/></g><g class="cls-123"><rect class="cls-5" x="45.53" y="38.25" width="13.06" height="11.53"/></g><g class="cls-124"><rect class="cls-5" x="45.38" y="37.77" width="13.06" height="11.53" transform="translate(-15.67 38.82) rotate(-36)"/></g></svg>