<?xml version="1.0" encoding="UTF-8"?>
<svg width="460px" height="345px" viewBox="0 0 460 345" version="1.1" xmlns="http://www.w3.org/2000/svg" xmlns:xlink="http://www.w3.org/1999/xlink">
    <title>eu_comp_inpage_navigation</title>
    <g id="thumbnails---final" stroke="none" stroke-width="1" fill="none" fill-rule="evenodd">
        <g id="EU-thumbnails---final_symbols" transform="translate(-500.000000, -2575.000000)">
            <g id="eu_comp_inpage_navigation" transform="translate(500.000000, 2575.000000)">
                <g id="Group-2" transform="translate(60.000000, 105.000000)">
                    <g id="Group-5-Copy">
                        <path d="M4,0 L96,0 C98.209139,-4.05812251e-16 100,1.790861 100,4 L100,20 L100,20 L0,20 L0,4 C-2.705415e-16,1.790861 1.790861,4.05812251e-16 4,0 Z" id="Rectangle-Copy" fill="#0E47CB"></path>
                        <rect id="Rectangle-Copy-2" fill-opacity="0.2" fill="#0E47CB" x="0" y="40" width="100" height="20"></rect>
                        <polygon id="Fill-10" fill="#FFFFFF" points="10 14 90 14 90 6 10 6"></polygon>
                        <g id="Group" transform="translate(0.000000, 26.000000)">
                            <polygon id="Fill-10" fill="#0E47CB" points="10 8 80 8 80 0 10 0"></polygon>
                            <polygon id="Fill-10-Copy" fill="#404040" points="10 28 85 28 85 20 10 20"></polygon>
                            <path d="M0,36 L100,36 L100,52 C100,54.209139 98.209139,56 96,56 L4,56 C1.790861,56 2.705415e-16,54.209139 0,52 L0,36 L0,36 Z" id="Rectangle-Copy-2" fill-opacity="0.2" fill="#0E47CB"></path>
                            <polygon id="Fill-10-Copy" fill="#404040" points="10 50 85 50 85 42 10 42"></polygon>
                        </g>
                    </g>
                    <g id="Group" transform="translate(120.000000, 5.000000)">
                        <polygon id="Fill-10" fill="#404040" points="0 10 220 10 220 0 0 0"></polygon>
                        <polygon id="Fill-10-Copy-3" fill="#CFCFCF" points="0 30 200 30 200 20 0 20"></polygon>
                        <polygon id="Fill-10-Copy-4" fill="#CFCFCF" points="0 50 220 50 220 40 0 40"></polygon>
                        <polygon id="Fill-10-Copy-4" fill="#CFCFCF" points="0 70 200 70 200 60 0 60"></polygon>
                        <polygon id="Fill-10-Copy-5" fill="#CFCFCF" points="0 90 200 90 200 80 0 80"></polygon>
                        <polygon id="Fill-10-Copy-6" fill="#CFCFCF" points="0 110 190 110 190 100 0 100"></polygon>
                        <polygon id="Fill-10-Copy-6" fill="#CFCFCF" points="0 130 190 130 190 120 0 120"></polygon>
                    </g>
                </g>
            </g>
        </g>
    </g>
</svg>