<svg xmlns="http://www.w3.org/2000/svg" viewBox="0 0 40 40"><defs><style>.a{fill:#a5382a;}.b{fill:#f1f2f2;}</style></defs><title>gplus_hover</title><polygon class="a" points="0 40 40 40 40 0 0 0 0 40"/><path class="b" d="M15.38,19.32v2.79H20a4.4,4.4,0,0,1-4.62,3.51,5.14,5.14,0,0,1,0-10.28,4.58,4.58,0,0,1,3.25,1.26l2.21-2.13a7.81,7.81,0,0,0-5.46-2.13,8.14,8.14,0,0,0,0,16.29c4.7,0,7.82-3.3,7.82-8a7.53,7.53,0,0,0-.13-1.35H15.38Z"/><polygon class="b" points="32.83 19.32 30.51 19.32 30.51 17 28.18 17 28.18 19.32 25.85 19.32 25.85 21.65 28.18 21.65 28.18 23.98 30.51 23.98 30.51 21.65 32.83 21.65 32.83 19.32"/></svg>