<?xml version="1.0" encoding="utf-8"?>
<!-- Generator: Adobe Illustrator 19.2.0, SVG Export Plug-In . SVG Version: 6.00 Build 0)  -->
<svg version="1.1" id="Layer_1" xmlns:sketch="http://www.bohemiancoding.com/sketch/ns"
	 xmlns="http://www.w3.org/2000/svg" xmlns:xlink="http://www.w3.org/1999/xlink" x="0px" y="0px" viewBox="0 0 40 40"
	 style="enable-background:new 0 0 40 40;" xml:space="preserve">
<style type="text/css">
	.st0{fill:#FFFFFF;}
</style>
<title>netlog</title>
<desc>Created with Sketch.</desc>
<g>
	<g id="Page-1" sketch:type="MSPage">
		<g id="netlog" sketch:type="MSLayerGroup">
			<rect id="bg" sketch:type="MSShapeGroup" width="40" height="40">
			</rect>
			<path id="icon" sketch:type="MSShapeGroup" class="st0" d="M10,14.3c3.5-5.2,11.3-6.6,16.5-3.2c4.5,2.7,6.7,8.6,5.1,13.6
				c-0.7,2.4-2.1,4.5-4,6c-1.8-2.4-4.6-3.9-7.6-3.8c-3,0-5.8,1.6-7.5,3.9C7.5,27,6.3,19.3,10,14.3z"/>
		</g>
	</g>
	<path d="M18.5,17.1c2.5-1,5.5,0.8,5.9,3.5c0.5,2.7-2,5.4-4.7,5.2c-2.2-0.1-4.1-2.1-4.2-4.3C15.4,19.6,16.7,17.8,18.5,17.1z"/>
</g>
</svg>
