<?xml version="1.0" encoding="utf-8"?>
<!-- Generator: Adobe Illustrator 19.2.0, SVG Export Plug-In . SVG Version: 6.00 Build 0)  -->
<svg version="1.1" id="Layer_1" xmlns="http://www.w3.org/2000/svg" xmlns:xlink="http://www.w3.org/1999/xlink" x="0px" y="0px"
	 viewBox="0 0 40 40" style="enable-background:new 0 0 40 40;" xml:space="preserve">
<style type="text/css">
	.st0{fill:#FFFFFF;}
	.st1{clip-path:url(#SVGID_2_);}
	.st2{clip-path:url(#SVGID_4_);fill:#FFFFFF;}
	.st3{clip-path:url(#SVGID_6_);}
	.st4{clip-path:url(#SVGID_8_);fill:#414141;}
	.st5{clip-path:url(#SVGID_10_);}
	.st6{clip-path:url(#SVGID_12_);fill:#414141;}
	.st7{clip-path:url(#SVGID_14_);}
	.st8{clip-path:url(#SVGID_16_);}
	.st9{clip-path:url(#SVGID_18_);}
	.st10{clip-path:url(#SVGID_21_);}
	.st11{clip-path:url(#SVGID_22_);}
	.st12{clip-path:url(#SVGID_24_);fill:#414141;}
	.st13{clip-path:url(#SVGID_22_);enable-background:new    ;}
	.st14{clip-path:url(#SVGID_26_);}
	.st15{clip-path:url(#SVGID_28_);fill:#414141;}
	.st16{clip-path:url(#SVGID_30_);}
	.st17{clip-path:url(#SVGID_32_);fill:#FFFFFF;}
	.st18{clip-path:url(#SVGID_34_);}
	.st19{clip-path:url(#SVGID_36_);fill:#414141;}
	.st20{clip-path:url(#SVGID_38_);}
	.st21{clip-path:url(#SVGID_40_);fill:#414141;}
	.st22{clip-path:url(#SVGID_42_);}
	.st23{clip-path:url(#SVGID_44_);}
	.st24{enable-background:new    ;}
	.st25{clip-path:url(#SVGID_47_);}
	.st26{clip-path:url(#SVGID_48_);}
	.st27{clip-path:url(#SVGID_50_);fill:#414141;}
	.st28{clip-path:url(#SVGID_52_);fill:#414141;}
	.st29{clip-path:url(#SVGID_54_);}
	.st30{clip-path:url(#SVGID_56_);fill:#404040;}
	.st31{clip-path:url(#SVGID_58_);}
	.st32{clip-path:url(#SVGID_60_);fill:#404040;}
	.st33{clip-path:url(#SVGID_62_);}
	.st34{clip-path:url(#SVGID_64_);enable-background:new    ;}
	.st35{clip-path:url(#SVGID_66_);}
	.st36{clip-path:url(#SVGID_68_);}
	.st37{clip-path:url(#SVGID_70_);fill:#404040;}
	.st38{clip-path:url(#SVGID_72_);}
	.st39{clip-path:url(#SVGID_74_);fill:#404040;}
</style>
<rect class="st0" width="40" height="40"/>
<g>
	<g>
		<defs>
			<rect id="SVGID_1_" x="382" y="-696" width="40" height="40"/>
		</defs>
		<clipPath id="SVGID_2_">
			<use xlink:href="#SVGID_1_"  style="overflow:visible;"/>
		</clipPath>
		<g class="st1">
			<g>
				<defs>
					<rect id="SVGID_3_" x="-689" y="-1146" width="1400" height="2330"/>
				</defs>
				<clipPath id="SVGID_4_">
					<use xlink:href="#SVGID_3_"  style="overflow:visible;"/>
				</clipPath>
				<rect x="377" y="-701" class="st2" width="50" height="50"/>
			</g>
		</g>
		<g class="st1">
			<g>
				<defs>
					<rect id="SVGID_5_" x="397.2" y="-669.3" width="8.2" height="1.6"/>
				</defs>
				<clipPath id="SVGID_6_">
					<use xlink:href="#SVGID_5_"  style="overflow:visible;"/>
				</clipPath>
				<g class="st3">
					<g>
						<defs>
							<rect id="SVGID_7_" x="-689" y="-1146" width="1400" height="2330"/>
						</defs>
						<clipPath id="SVGID_8_">
							<use xlink:href="#SVGID_7_"  style="overflow:visible;"/>
						</clipPath>
						<rect x="392.2" y="-674.3" class="st4" width="18.2" height="11.6"/>
					</g>
				</g>
				<g class="st3">
					<g>
						<defs>
							<polygon id="SVGID_9_" points="395.5,-687.4 408.5,-687.4 408.5,-684.2 410.1,-684.2 410.1,-687.3 410.1,-687.4 410.1,-689 
								408.6,-689 408.6,-689 408.5,-689 395.5,-689 395.4,-689 395.4,-689 393.9,-689 393.9,-687.4 393.9,-687.3 393.9,-684.2 
								395.5,-684.2 							"/>
						</defs>
						<clipPath id="SVGID_10_">
							<use xlink:href="#SVGID_9_"  style="overflow:visible;"/>
						</clipPath>
						<g class="st5">
							<g>
								<defs>
									<rect id="SVGID_11_" x="-689" y="-1146" width="1400" height="2330"/>
								</defs>
								<clipPath id="SVGID_12_">
									<use xlink:href="#SVGID_11_"  style="overflow:visible;"/>
								</clipPath>
								<rect x="388.9" y="-694" class="st6" width="26.2" height="14.9"/>
							</g>
						</g>
						<g class="st5">
							<g>
								<defs>
									<rect id="SVGID_13_" x="389" y="-689" width="26" height="26"/>
								</defs>
								<clipPath id="SVGID_14_">
									<use xlink:href="#SVGID_13_"  style="overflow:visible;"/>
								</clipPath>
								<g class="st7">
									<g>
										<defs>
											<rect id="SVGID_15_" x="-689" y="-1146" width="1400" height="2330"/>
										</defs>
										<clipPath id="SVGID_16_">
											<use xlink:href="#SVGID_15_"  style="overflow:visible;"/>
										</clipPath>
										<g class="st8">
											<g>
												<g>
													<defs>
														<rect id="SVGID_17_" x="389" y="-683" width="26" height="20"/>
													</defs>
													<clipPath id="SVGID_18_">
														<use xlink:href="#SVGID_17_"  style="overflow:visible;"/>
													</clipPath>
													<g class="st9">
														<g>
															<defs>
																<rect id="SVGID_19_" x="397.1" y="-672.8" width="9.7" height="1.6"/>
															</defs>
															<defs>
																<rect id="SVGID_20_" x="389" y="-683" width="26" height="20"/>
															</defs>
															<clipPath id="SVGID_21_">
																<use xlink:href="#SVGID_19_"  style="overflow:visible;"/>
															</clipPath>
															<clipPath id="SVGID_22_" class="st10">
																<use xlink:href="#SVGID_20_"  style="overflow:visible;"/>
															</clipPath>
															<g class="st11">
																<g>
																	<defs>
																		<rect id="SVGID_23_" x="389" y="-689" width="26" height="26"/>
																	</defs>
																	<clipPath id="SVGID_24_">
																		<use xlink:href="#SVGID_23_"  style="overflow:visible;"/>
																	</clipPath>
																	<rect x="392.1" y="-677.8" class="st12" width="19.7" height="11.6"/>
																</g>
															</g>
															<g class="st13">
																<g>
																	<defs>
																		<path id="SVGID_25_" d="M413.4-682.5h-22.7c-0.9,0-1.6,0.7-1.6,1.6v9.8c0,0.9,0.7,1.6,1.6,1.6h3.2v4.7v0.1v1.6
																			h1.5l0,0h0.1h13h0.1l0,0h1.5v-1.6v-0.1v-4.7h3.2c0.9,0,1.6-0.7,1.6-1.6v-9.8C415-681.8,414.3-682.5,413.4-682.5z
																			 M395.5-674.4h13v9.8h-13V-674.4z M411.7-677.6c-0.9,0-1.6-0.7-1.6-1.6c0-0.9,0.7-1.6,1.6-1.6s1.6,0.7,1.6,1.6
																			C413.4-678.4,412.6-677.6,411.7-677.6z"/>
																	</defs>
																	<clipPath id="SVGID_26_">
																		<use xlink:href="#SVGID_25_"  style="overflow:visible;"/>
																	</clipPath>
																	<g class="st14">
																		<g>
																			<defs>
																				<rect id="SVGID_27_" x="389" y="-689" width="26" height="26"/>
																			</defs>
																			<clipPath id="SVGID_28_">
																				<use xlink:href="#SVGID_27_"  style="overflow:visible;"/>
																			</clipPath>
																			<rect x="384" y="-687.5" class="st15" width="36" height="29.5"/>
																		</g>
																	</g>
																</g>
															</g>
														</g>
													</g>
													<g class="st9">
														<g>
															<defs>
																<rect id="SVGID_29_" width="40" height="40"/>
															</defs>
															<clipPath id="SVGID_30_">
																<use xlink:href="#SVGID_29_"  style="overflow:visible;"/>
															</clipPath>
															<g class="st16">
																<g>
																	<defs>
																		<rect id="SVGID_31_" x="-1071" y="-450" width="1400" height="2330"/>
																	</defs>
																	<clipPath id="SVGID_32_">
																		<use xlink:href="#SVGID_31_"  style="overflow:visible;"/>
																	</clipPath>
																	<rect x="-5" y="-5" class="st17" width="50" height="50"/>
																</g>
															</g>
															<g class="st16">
																<g>
																	<defs>
																		<rect id="SVGID_33_" x="15.2" y="26.7" width="8.2" height="1.6"/>
																	</defs>
																	<clipPath id="SVGID_34_">
																		<use xlink:href="#SVGID_33_"  style="overflow:visible;"/>
																	</clipPath>
																	<g class="st18">
																		<g>
																			<defs>
																				<rect id="SVGID_35_" x="-1071" y="-450" width="1400" height="2330"/>
																			</defs>
																			<clipPath id="SVGID_36_">
																				<use xlink:href="#SVGID_35_"  style="overflow:visible;"/>
																			</clipPath>
																			<rect x="10.2" y="21.7" class="st19" width="18.2" height="11.6"/>
																		</g>
																	</g>
																	<g class="st18">
																		<g>
																			<defs>
																				<polygon id="SVGID_37_" points="13.5,8.6 26.5,8.6 26.5,11.8 28.1,11.8 28.1,8.8 28.1,8.6 28.1,7 26.6,7 
																					26.6,7 26.5,7 13.5,7 13.4,7 13.4,7 11.9,7 11.9,8.6 11.9,8.7 11.9,11.8 13.5,11.8 																				"/>
																			</defs>
																			<clipPath id="SVGID_38_">
																				<use xlink:href="#SVGID_37_"  style="overflow:visible;"/>
																			</clipPath>
																			<g class="st20">
																				<g>
																					<defs>
																						<rect id="SVGID_39_" x="-1071" y="-450" width="1400" height="2330"/>
																					</defs>
																					<clipPath id="SVGID_40_">
																						<use xlink:href="#SVGID_39_"  style="overflow:visible;"/>
																					</clipPath>
																					<rect x="6.9" y="2" class="st21" width="26.2" height="14.9"/>
																				</g>
																			</g>
																			<g class="st20">
																				<g>
																					<defs>
																						<rect id="SVGID_41_" x="7" y="7" width="26" height="26"/>
																					</defs>
																					<clipPath id="SVGID_42_">
																						<use xlink:href="#SVGID_41_"  style="overflow:visible;"/>
																					</clipPath>
																					<g class="st22">
																						<g>
																							<defs>
																								<rect id="SVGID_43_" x="-1071" y="-450" width="1400" height="2330"/>
																							</defs>
																							<clipPath id="SVGID_44_">
																								<use xlink:href="#SVGID_43_"  style="overflow:visible;"/>
																							</clipPath>
																							<g class="st23">
																								<g class="st24">
																									<g>
																										<defs>
																											<rect id="SVGID_45_" x="7" y="13" width="26" height="20"/>
																										</defs>
																										<defs>
																											<rect id="SVGID_46_" x="7" y="13" width="26" height="20"/>
																										</defs>
																										<clipPath id="SVGID_47_">
																											<use xlink:href="#SVGID_45_"  style="overflow:visible;"/>
																										</clipPath>
																										<clipPath id="SVGID_48_" class="st25">
																											<use xlink:href="#SVGID_46_"  style="overflow:visible;"/>
																										</clipPath>
																										<g class="st26">
																											<g>
																												<defs>
																													<rect id="SVGID_49_" x="7" y="7" width="26" height="26"/>
																												</defs>
																												<clipPath id="SVGID_50_">
																													<use xlink:href="#SVGID_49_"  style="overflow:visible;"/>
																												</clipPath>
																												<rect x="10.1" y="18.2" class="st27" width="19.7" height="11.6"/>
																											</g>
																										</g>
																										<g class="st26">
																											<g>
																												<defs>
																													<rect id="SVGID_51_" x="7" y="7" width="26" height="26"/>
																												</defs>
																												<clipPath id="SVGID_52_">
																													<use xlink:href="#SVGID_51_"  style="overflow:visible;"/>
																												</clipPath>
																												<rect x="2" y="8.5" class="st28" width="36" height="29.5"/>
																											</g>
																										</g>
																									</g>
																								</g>
																							</g>
																						</g>
																					</g>
																				</g>
																			</g>
																		</g>
																	</g>
																</g>
															</g>
														</g>
													</g>
												</g>
											</g>
										</g>
									</g>
								</g>
							</g>
						</g>
					</g>
				</g>
			</g>
		</g>
	</g>
</g>
<g>
	<g>
		<defs>
			<rect id="SVGID_53_" x="15.2" y="26.7" width="8.2" height="1.6"/>
		</defs>
		<clipPath id="SVGID_54_">
			<use xlink:href="#SVGID_53_"  style="overflow:visible;"/>
		</clipPath>
		<g class="st29">
			<defs>
				<rect id="SVGID_55_" x="-1071" y="-450" width="1400" height="2330"/>
			</defs>
			<clipPath id="SVGID_56_">
				<use xlink:href="#SVGID_55_"  style="overflow:visible;"/>
			</clipPath>
			<rect x="10.2" y="21.7" class="st30" width="18.2" height="11.6"/>
		</g>
	</g>
	<g>
		<defs>
			<path id="SVGID_57_" d="M13.5,8.6h13v3.2h1.6V8.8V8.6V7h-1.5v0c0,0-0.1,0-0.1,0h-13c0,0-0.1,0-0.1,0v0h-1.5v1.6v0.1v3.1h1.6V8.6z
				"/>
		</defs>
		<clipPath id="SVGID_58_">
			<use xlink:href="#SVGID_57_"  style="overflow:visible;"/>
		</clipPath>
		<g class="st31">
			<defs>
				<rect id="SVGID_59_" x="-1071" y="-450" width="1400" height="2330"/>
			</defs>
			<clipPath id="SVGID_60_">
				<use xlink:href="#SVGID_59_"  style="overflow:visible;"/>
			</clipPath>
			<rect x="6.9" y="2" class="st32" width="26.2" height="14.9"/>
		</g>
	</g>
	<g>
		<defs>
			<rect id="SVGID_61_" x="7" y="7" width="26" height="26"/>
		</defs>
		<clipPath id="SVGID_62_">
			<use xlink:href="#SVGID_61_"  style="overflow:visible;"/>
		</clipPath>
		<g class="st33">
			<defs>
				<rect id="SVGID_63_" x="-1071" y="-450" width="1400" height="2330"/>
			</defs>
			<clipPath id="SVGID_64_">
				<use xlink:href="#SVGID_63_"  style="overflow:visible;"/>
			</clipPath>
			<g class="st34">
				<g>
					<defs>
						<rect id="SVGID_65_" x="7" y="13" width="26" height="20"/>
					</defs>
					<clipPath id="SVGID_66_">
						<use xlink:href="#SVGID_65_"  style="overflow:visible;"/>
					</clipPath>
					<g class="st35">
						<defs>
							<rect id="SVGID_67_" x="15.1" y="23.2" width="9.7" height="1.6"/>
						</defs>
						<clipPath id="SVGID_68_">
							<use xlink:href="#SVGID_67_"  style="overflow:visible;"/>
						</clipPath>
						<g class="st36">
							<defs>
								<rect id="SVGID_69_" x="7" y="7" width="26" height="26"/>
							</defs>
							<clipPath id="SVGID_70_">
								<use xlink:href="#SVGID_69_"  style="overflow:visible;"/>
							</clipPath>
							<rect x="10.1" y="18.2" class="st37" width="19.7" height="11.6"/>
						</g>
					</g>
					<g class="st35">
						<defs>
							<path id="SVGID_71_" d="M31.4,13.5H8.6c-0.9,0-1.6,0.7-1.6,1.6v9.8c0,0.9,0.7,1.6,1.6,1.6h3.2v4.7v0.1V33h1.5v0
								c0,0,0.1,0,0.1,0h13c0,0,0.1,0,0.1,0v0h1.5v-1.6v-0.1v-4.7h3.2c0.9,0,1.6-0.7,1.6-1.6v-9.8C33,14.2,32.3,13.5,31.4,13.5z
								 M13.5,21.6h13v9.8h-13V21.6z M29.7,18.4c-0.9,0-1.6-0.7-1.6-1.6c0-0.9,0.7-1.6,1.6-1.6c0.9,0,1.6,0.7,1.6,1.6
								C31.4,17.6,30.6,18.4,29.7,18.4z"/>
						</defs>
						<clipPath id="SVGID_72_">
							<use xlink:href="#SVGID_71_"  style="overflow:visible;"/>
						</clipPath>
						<g class="st38">
							<defs>
								<rect id="SVGID_73_" x="7" y="7" width="26" height="26"/>
							</defs>
							<clipPath id="SVGID_74_">
								<use xlink:href="#SVGID_73_"  style="overflow:visible;"/>
							</clipPath>
							<rect x="2" y="8.5" class="st39" width="36" height="29.5"/>
						</g>
					</g>
				</g>
			</g>
		</g>
	</g>
</g>
</svg>
