<?xml version="1.0" encoding="utf-8"?>
<!-- Generator: Adobe Illustrator 19.2.0, SVG Export Plug-In . SVG Version: 6.00 Build 0)  -->
<svg version="1.1" id="Layer_1" xmlns:sketch="http://www.bohemiancoding.com/sketch/ns"
	 xmlns="http://www.w3.org/2000/svg" xmlns:xlink="http://www.w3.org/1999/xlink" x="0px" y="0px" viewBox="0 0 40 40"
	 style="enable-background:new 0 0 40 40;" xml:space="preserve">
<style type="text/css">
	.st0{fill:#79CCEF;}
	.st1{fill:#FFFFFF;}
</style>
<title>twitter</title>
<desc>Created with Sketch.</desc>
<g id="Page-1" sketch:type="MSPage">
	<g id="twitter" sketch:type="MSLayerGroup">
		<path id="bg" sketch:type="MSShapeGroup" class="st0" d="M0,0v40h40V0H0L0,0z"/>
		<path id="icon" sketch:type="MSShapeGroup" class="st1" d="M28,15.8v0.6c0,5.5-4.2,11.8-11.8,11.8c-2.4,0-4.7-0.7-6.4-1.9h0.9
			c1.9,0,3.7-0.7,5.2-1.8c-1.9,0-3.5-1.2-4-2.9c0.4,0.1,0.6,0.1,0.8,0.1c0.4,0,0.7,0,1.1-0.1c-1.9-0.4-3.4-2-3.4-4.1
			c0.6,0.2,1.2,0.5,1.9,0.5c-1.2-0.7-1.9-2-1.9-3.5c0-0.8,0.2-1.5,0.6-2.1c2,2.6,5.2,4.3,8.7,4.5c-0.1-0.4-0.1-0.6-0.1-0.9
			c0-2.2,1.9-4.2,4.2-4.2c1.3,0,2.4,0.5,3.2,1.3c0.9-0.1,1.8-0.5,2.6-0.9c-0.2,0.9-0.9,1.8-1.8,2.2c0.8-0.1,1.6-0.4,2.4-0.7
			C29.5,14.4,28.8,15.2,28,15.8L28,15.8z"/>
	</g>
</g>
</svg>
