<?xml version="1.0" encoding="utf-8"?>
<!-- Generator: Adobe Illustrator 19.2.0, SVG Export Plug-In . SVG Version: 6.00 Build 0)  -->
<svg version="1.1" id="Layer_1" xmlns:sketch="http://www.bohemiancoding.com/sketch/ns"
	 xmlns="http://www.w3.org/2000/svg" xmlns:xlink="http://www.w3.org/1999/xlink" x="0px" y="0px" viewBox="0 0 40 40"
	 style="enable-background:new 0 0 40 40;" xml:space="preserve">
<style type="text/css">
	.st0{fill:#F07355;}
	.st1{fill:#FFFFFF;}
</style>
<title>viadeo</title>
<desc>Created with Sketch.</desc>
<g id="Page-1" sketch:type="MSPage">
	<g id="viadeo" sketch:type="MSLayerGroup">
		<rect id="bg" sketch:type="MSShapeGroup" class="st0" width="40" height="40">
		</rect>
		<path id="icon" sketch:type="MSShapeGroup" class="st1" d="M8.8,23.1c0,2.5,0.9,4.7,2.6,6.5c1.7,1.9,3.9,2.8,6.6,2.8
			c2.7,0,4.9-0.9,6.6-2.8c1.7-1.8,2.6-4,2.6-6.5c0-1.3-0.2-2.6-0.7-3.7c-0.7,0.4-1.4,0.7-2.2,0.9c0.4,0.9,0.6,1.8,0.6,2.9
			c0,1.3-0.3,2.5-0.9,3.6c-0.6,1.1-1.5,2-2.5,2.6c-1.1,0.6-2.2,0.9-3.4,0.9c-1.3,0-2.4-0.3-3.5-0.9c-1.1-0.6-1.9-1.5-2.5-2.6
			c-0.6-1.1-0.9-2.3-0.9-3.6c0-2,0.7-3.7,2-5.1c1.4-1.4,3-2.1,4.9-2.1c0.9,0,1.7,0.2,2.5,0.5c0.1-0.7,0.3-1.4,0.7-2.2
			c-1-0.4-2-0.5-3.2-0.5c-2.7,0-5,1-6.8,3C9.6,18.4,8.8,20.6,8.8,23.1L8.8,23.1z M15.9,29.5l1.4,0.1c1.3-0.8,2.3-1.7,3.2-2.8
			c0.9-1.1,1.5-2.1,1.8-3.2c0.4-1.1,0.6-2.1,0.8-3.2c0.1-0.7,0.2-1.4,0.2-2c0-0.4,0-0.7-0.1-1c-0.1-0.9-0.2-1.8-0.3-2.5
			c-0.1-0.7-0.3-1.3-0.4-1.7l-0.2-0.6c-0.4-1.2-0.7-2.2-1.1-3c-0.4-0.9-0.6-1.4-0.8-1.7l-0.3-0.4c0.7,0.3,1.2,0.7,1.6,1.2
			c0.4,0.5,0.6,0.9,0.7,1.4c0.1,0.3,0.1,0.7,0.1,1v0.2c0,0.4-0.1,0.7-0.2,0.9l-0.1,0.3c0.1,1,0.1,1.9,0.1,2.9c0,0.9,0,1.7-0.1,2.6
			c-0.2,1.7-0.4,3.1-0.8,4.3c-0.4,1.1-0.8,2.2-1.3,3.1c-0.5,0.9-1,1.7-1.5,2.2c-0.5,0.5-1,1-1.4,1.3c-0.4,0.3-0.8,0.6-1,0.7
			L15.9,29.5z M22.9,13.3c0.1-0.7,0.3-1.2,0.6-1.6L24,11c0.2-0.2,0.5-0.5,1-0.7c0.5-0.2,0.9-0.4,1.2-0.5l0.5-0.2
			c0.6-0.1,1.2-0.4,1.7-0.9c0.5-0.5,0.9-0.9,1.1-1.3l0.3-0.6c0.7,1,1.1,2.1,1.2,3.3c0.1,0.5,0.1,1,0.1,1.5c0,0.6-0.1,1.1-0.2,1.5
			l-0.3,1.1c-0.2,0.6-0.5,1.1-0.9,1.5c-0.4,0.5-0.7,0.8-0.9,0.9l-0.4,0.3c-0.6,0.3-1.1,0.5-1.7,0.5l-2.8-1.4c1-0.5,1.8-1.1,2.6-1.7
			c0.7-0.6,1.3-1,1.6-1.5s0.6-0.8,0.8-1.1c0.2-0.3,0.3-0.6,0.4-0.8l0.1-0.3c-0.3,0.7-0.7,1.3-1.2,1.9c-0.5,0.6-1,1-1.6,1.3
			c-0.5,0.3-1,0.6-1.5,0.8c-0.5,0.2-0.9,0.4-1.2,0.5l-0.5,0.1c-0.4-0.7-0.6-1.4-0.6-2C22.9,13.5,22.9,13.4,22.9,13.3L22.9,13.3z"/>
	</g>
</g>
</svg>
