<svg width="40" height="40" xmlns="http://www.w3.org/2000/svg"><g fill="none" fill-rule="evenodd"><path d="M0 40h40V0H0v40z" fill="#1E96D3"/><path d="M29.728 20.051c0-5.427-4.3-9.728-9.728-9.728-.614 0-1.126 0-1.638.103-.82-.615-1.946-.82-2.97-.82a5.616 5.616 0 0 0-5.632 5.632c0 1.127.205 2.048.717 2.868-.103.614-.103 1.228-.103 1.945 0 5.427 4.301 9.728 9.728 9.728.615 0 1.23 0 1.844-.102.819.512 1.638.717 2.662.717a5.616 5.616 0 0 0 5.632-5.632c0-.922-.205-1.844-.614-2.56 0-.717.102-1.434.102-2.15zm-4.608 4.71c-.512.615-1.126 1.23-1.946 1.537-.819.41-1.945.512-2.97.512-1.433 0-2.56-.205-3.48-.717-.615-.41-1.23-.82-1.537-1.434-.41-.614-.614-1.229-.614-1.843 0-.41.102-.717.41-.922.204-.204.614-.41.921-.41.307 0 .614.103.82.206.204.204.409.512.614.819.102.41.41.717.614.921.205.205.512.512.82.615.409.102.818.205 1.433.205.819 0 1.433-.103 1.945-.512.512-.41.717-.717.717-1.23 0-.409-.102-.716-.41-.92a2.323 2.323 0 0 0-1.126-.615c-.512-.103-1.126-.205-1.843-.512a28.259 28.259 0 0 1-2.56-.717c-.717-.205-1.331-.717-1.638-1.229-.41-.512-.615-1.229-.615-1.945 0-.717.205-1.434.717-1.946.512-.614 1.126-.922 1.946-1.331.819-.205 1.843-.512 2.867-.512.819 0 1.638.102 2.253.205.614.204 1.228.512 1.536.819.512.41.716.717.921 1.126.205.41.41.717.41 1.127 0 .41-.103.716-.41.921-.307.205-.614.41-.921.41a1.93 1.93 0 0 1-.82-.205c-.204-.102-.41-.41-.614-.717-.205-.512-.512-.819-.82-1.126-.409-.205-.818-.41-1.638-.41-.716 0-1.33.103-1.638.41-.82.41-.922.717-.922 1.126 0 .205.103.41.205.615.103.102.41.41.615.512.204.102.512.204.819.41.205.102.717.204 1.331.409.82.102 1.536.41 2.15.614.615.205 1.23.512 1.639.717.512.41.819.717 1.126 1.229.205.512.41 1.126.41 1.638-.205.717-.41 1.434-.717 2.15z" fill="#FFF"/></g></svg>