<?xml version="1.0" encoding="UTF-8"?>
<svg width="48px" height="48px" viewBox="0 0 48 48" version="1.1" xmlns="http://www.w3.org/2000/svg" xmlns:xlink="http://www.w3.org/1999/xlink">
    <title>EC/Icons/Social/2XL_48x48px/Icon-Blog/Simple</title>
    <defs>
        <path d="M40,2 C45.0014924,2 46,3.01202202 46,7 L46,7 L46,33 C46,36.9423945 44.1138181,38 40,38 L40,38 L30,38 L13,46 L13,38 L7,38 C3.1103758,37.9487259 2,36.9631662 2,33 L2,33 L2,7 C2,3.04223536 3.13209164,2 7,2 L7,2 Z M31,25 L9,25 L9,28 L31,28 L31,25 Z M39,18 L9,18 L9,21 L39,21 L39,18 Z M39,11 L9,11 L9,14 L39,14 L39,11 Z" id="path-1"></path>
    </defs>
    <g id="EC/Icons/Social/2XL_48x48px/Icon-Blog/Simple" stroke="none" stroke-width="1">
        <mask id="mask-2" fill="white">
            <use xlink:href="#path-1"></use>
        </mask>
        <use id="Combined-Shape" xlink:href="#path-1"></use>
    </g>
</svg>
