<svg
  width="48"
  height="48"
  viewBox="0 0 48 48"
  fill="none"
  xmlns="http://www.w3.org/2000/svg"
>
<path
    d="M17.204 7.41327C19.9571 9.46511 22.9135 13.623 24.0007 15.8607V21.7607C24.0007 21.6368 23.9538 21.7762 23.8443 22.0859C23.2733 23.7428 21.0599 30.2003 15.9996 25.0359C13.3325 22.3181 14.5683 19.6004 19.4253 18.7797C16.6487 19.252 13.5281 18.47 12.6677 15.4348C12.4175 14.5599 12.0029 9.17089 12.0029 8.44306C12.0029 4.78847 15.2175 5.92666 17.204 7.41327ZM30.8052 7.41327C28.0521 9.46511 25.0957 13.623 24.0085 15.8607V21.7607C24.0085 21.6368 24.0554 21.7762 24.1649 22.0859C24.7359 23.7428 26.9493 30.2003 32.0096 25.0359C34.6767 22.3181 33.4409 19.6004 28.5839 18.7797C31.3605 19.252 34.4811 18.47 35.3415 15.4348C35.5918 14.5599 36.0063 9.17089 36.0063 8.44306C36.0063 4.78847 32.7918 5.92666 30.8052 7.41327Z"
    fill="#308FEF"
  />
<path
    d="M8.56089 37.6182C9.54637 37.9666 10.0704 38.7719 10.0704 39.6778C10.0704 41.2108 9.03799 42.14 7.0514 42.14H3V33.5532H6.91844C8.80335 33.5532 9.71844 34.5056 9.71844 35.7677C9.71844 36.6194 9.3352 37.231 8.56089 37.6182ZM6.80112 34.8927H4.64246V37.1381H6.80112C7.63799 37.1381 8.09162 36.7045 8.09162 35.9845C8.09162 35.3186 7.63017 34.8927 6.80112 34.8927ZM4.64246 40.7927H6.96536C7.88827 40.7927 8.38883 40.3669 8.38883 39.6081C8.38883 38.8106 7.91173 38.4157 6.96536 38.4157H4.64246V40.7927ZM12.3542 42.14H10.8212V33.5532H12.3542V42.14ZM17.438 39.4068V35.9225H18.971V42.14H17.4849V41.2341C17.0078 41.9309 16.3508 42.2794 15.514 42.2794C14.1844 42.2794 13.324 41.4818 13.324 40.0339V35.9148H14.857V39.7862C14.857 40.5682 15.248 40.9708 16.038 40.9708C16.781 40.9708 17.438 40.4288 17.438 39.4068ZM25.9553 39.1358V39.4997H21.2547C21.3642 40.5759 21.9587 41.1024 22.8894 41.1024C23.5933 41.1024 24.0704 40.8005 24.3285 40.212H25.7989C25.4704 41.4741 24.3754 42.2871 22.8737 42.2871C21.9352 42.2871 21.1844 41.9851 20.6056 41.3967C20.0346 40.8082 19.7374 40.0262 19.7374 39.0351C19.7374 38.0595 20.019 37.2775 20.5899 36.6736C21.1609 36.0851 21.9039 35.7831 22.8425 35.7831C23.7888 35.7831 24.5475 36.0929 25.1106 36.7123C25.6816 37.3162 25.9553 38.137 25.9553 39.1358ZM22.8425 36.9523C22.0056 36.9523 21.419 37.4324 21.2704 38.4312H24.4223C24.2894 37.533 23.7341 36.9523 22.8425 36.9523ZM29.3575 42.3103C27.5274 42.3103 26.5654 41.598 26.4872 40.1656H27.9888C28.0749 40.9398 28.4659 41.2263 29.3888 41.2263C30.2179 41.2263 30.6324 40.9708 30.6324 40.4753C30.6324 40.0262 30.343 39.8094 29.4045 39.6545L28.6849 39.5307C27.3084 39.2984 26.6279 38.6712 26.6279 37.6492C26.6279 36.48 27.5665 35.7677 29.2324 35.7677C31.0235 35.7677 31.9464 36.4645 32.0089 37.8737H30.562C30.5229 37.1149 30.0771 36.8517 29.2324 36.8517C28.505 36.8517 28.1374 37.0917 28.1374 37.5717C28.1374 38.0053 28.4581 38.1989 29.1855 38.3305L29.9754 38.4544C31.5006 38.7332 32.1575 39.2829 32.1575 40.3437C32.1497 41.6057 31.1251 42.3103 29.3575 42.3103ZM38.8838 42.14H37.1318L35.3017 39.2442L34.3553 40.1811V42.1322H32.8458V33.5532H34.3553V38.4931L36.9128 35.9148H38.743L36.3654 38.2686L38.8838 42.14ZM42.8883 37.4866L43.3966 35.9225H45L42.5754 42.651C42.3173 43.3401 42.0045 43.8357 41.5978 44.1066C41.1989 44.3854 40.6201 44.517 39.8693 44.517C39.6112 44.517 39.3922 44.5015 39.1966 44.4783V43.2859H39.7832C40.4793 43.2859 40.8156 42.8601 40.8156 42.2871C40.8156 42.0006 40.714 41.5748 40.5263 41.0328L38.7274 35.9225H40.362L40.8704 37.4788C41.2458 38.648 41.5743 39.8017 41.8715 40.9476C42.1453 39.9565 42.4894 38.8028 42.8883 37.4866Z"
    fill="black"
  />
</svg>
