<svg
  width="48"
  height="48"
  viewBox="0 0 48 48"
  fill="none"
  xmlns="http://www.w3.org/2000/svg"
>
<path
    d="M12.1007 8.47288C16.9179 12.0631 22.0909 19.3384 23.9932 23.2537V33.5773C23.9932 33.3605 23.911 33.6044 23.7195 34.1463C22.7204 37.0456 18.8475 48.3446 9.99316 39.3081C5.32649 34.5528 7.48876 29.7974 15.9873 28.3613C11.129 29.1878 5.66862 27.8194 4.16325 22.5086C3.72532 20.9777 3 11.5483 3 10.2748C3 3.88011 8.62463 5.87167 12.1007 8.47288ZM35.8993 8.47288C31.0821 12.0631 25.9091 19.3384 24.0068 23.2537V33.5773C24.0068 33.3605 24.089 33.6044 24.2805 34.1463C25.2796 37.0456 29.1525 48.3446 38.0068 39.3081C42.6735 34.5528 40.5112 29.7974 32.0127 28.3613C36.871 29.1878 42.3314 27.8194 43.8368 22.5086C44.2747 20.9777 45 11.5483 45 10.2748C45 3.88011 39.3754 5.87167 35.8993 8.47288Z"
    fill="#308FEF"
  />
</svg>
