<?xml version="1.0" encoding="UTF-8" ?>
<svg xmlns="http://www.w3.org/2000/svg" viewBox="0 0 48 48"><defs><style
    >.cls-1{fill:none;}.cls-2{fill:#fff;}</style></defs><g
    id="transparant_bg"
  ><rect class="cls-1" y="0" width="48" height="48" /></g><g id="Layer_1"><path
      class="cls-2"
      d="M41.33,12.08H6.67c-.55,0-1,.45-1,1v21.83c0,.55,.45,1,1,1H41.33c.55,0,1-.45,1-1V13.08c0-.55-.45-1-1-1Zm-2.67,2.75l-14.67,8.25L9.33,14.83h29.33Zm.92,17.33c0,.55-.45,1-1,1H9.42c-.55,0-1-.45-1-1v-15.5l15.58,8.88,15.58-8.88v15.5Z"
    /></g></svg>
