<?xml version="1.0" encoding="UTF-8"?>
<svg width="48px" height="48px" viewBox="0 0 48 48" version="1.1" xmlns="http://www.w3.org/2000/svg" xmlns:xlink="http://www.w3.org/1999/xlink">
    <title>EC/Icons/Social/2XL_48x48px/Icon-Facebook/Simple</title>
    <g id="EC/Icons/Social/2XL_48x48px/Icon-Facebook/Simple" stroke="none" stroke-width="1">
        <path d="M46,24.1341885 C46,11.9105829 36.150875,2 24,2 C11.8505,2 2,11.9105829 2,24.1341885 C2,35.1819154 10.045125,44.3385525 20.5625,46 L20.5625,30.5323524 L14.97725,30.5323524 L14.97725,24.1341885 L20.5625,24.1341885 L20.5625,19.2577501 C20.5625,13.7103691 23.847375,10.6461674 28.871625,10.6461674 C31.27925,10.6461674 33.796875,11.0777841 33.796875,11.0777841 L33.796875,16.5255612 L31.022125,16.5255612 C28.29,16.5255612 27.4375,18.2312771 27.4375,19.9826448 L27.4375,24.1341885 L33.538375,24.1341885 L32.564875,30.5323524 L27.4375,30.5323524 L27.4375,46 C37.954875,44.3385525 46,35.1819154 46,24.1341885" id="Fill-1"></path>
        <path d="M32.756192,30.538835 L33.7404106,24.2524272 L27.5796741,24.2524272 L27.5796741,20.1733981 C27.5796741,18.4526214 28.441733,16.776699 31.2000438,16.776699 L34,16.776699 L34,11.4240777 C34,11.4240777 31.4582451,11 29.0275444,11 C23.9551399,11 20.6387813,14.0106796 20.6387813,19.461165 L20.6387813,24.2524272 L15,24.2524272 L15,30.538835 L20.6387813,30.538835 L20.6387813,45.7363107 C21.7701469,45.9102913 22.929276,46 24.1092277,46 C25.2905677,46 26.4496968,45.9102913 27.5796741,45.7363107 L27.5796741,30.538835 L32.756192,30.538835 Z" id="Fill-3" fill="#FFFFFF"></path>
    </g>
</svg>
