<?xml version="1.0" encoding="UTF-8"?>
<svg width="48px" height="48px" viewBox="0 0 48 48" version="1.1" xmlns="http://www.w3.org/2000/svg" xmlns:xlink="http://www.w3.org/1999/xlink">
    <title>EC/Icons/Social/2XL_48x48px/Icon-Facebook/Cutout</title>
    <g id="EC/Icons/Social/2XL_48x48px/Icon-Facebook/Cutout" stroke="none" stroke-width="1" fill="none" fill-rule="evenodd">
        <path d="M46,24.1341885 C46,11.9105829 36.150875,2 24,2 C11.8505,2 2,11.9105829 2,24.1341885 C2,35.1819154 10.045125,44.3385525 20.5625,46 L20.5625,30.5323524 L14.97725,30.5323524 L14.97725,24.1341885 L20.5625,24.1341885 L20.5625,19.2577501 C20.5625,13.7103691 23.847375,10.6461674 28.871625,10.6461674 C31.27925,10.6461674 33.796875,11.0777841 33.796875,11.0777841 L33.796875,16.5255612 L31.022125,16.5255612 C28.29,16.5255612 27.4375,18.2312771 27.4375,19.9826448 L27.4375,24.1341885 L33.538375,24.1341885 L32.564875,30.5323524 L27.4375,30.5323524 L27.4375,46 C37.954875,44.3385525 46,35.1819154 46,24.1341885" id="Fill-1" fill="#FFFFFF"></path>
    </g>
</svg>
