<?xml version="1.0" encoding="UTF-8" standalone="no"?>
<svg
   xmlns:dc="http://purl.org/dc/elements/1.1/"
   xmlns:cc="http://creativecommons.org/ns#"
   xmlns:rdf="http://www.w3.org/1999/02/22-rdf-syntax-ns#"
   xmlns:svg="http://www.w3.org/2000/svg"
   xmlns="http://www.w3.org/2000/svg"
   xmlns:sodipodi="http://sodipodi.sourceforge.net/DTD/sodipodi-0.dtd"
   xmlns:inkscape="http://www.inkscape.org/namespaces/inkscape"
   inkscape:version="1.0 (4035a4fb49, 2020-05-01)"
   sodipodi:docname="foursquare.svg"
   id="svg55"
   version="1.1"
   viewBox="0 0 48 48"
   height="48px"
   width="48px">
  <metadata
     id="metadata61">
    <rdf:RDF>
      <cc:Work
         rdf:about="">
        <dc:format>image/svg+xml</dc:format>
        <dc:type
           rdf:resource="http://purl.org/dc/dcmitype/StillImage" />
      </cc:Work>
    </rdf:RDF>
  </metadata>
  <defs
     id="defs59" />
  <sodipodi:namedview
     inkscape:current-layer="svg55"
     inkscape:window-maximized="0"
     inkscape:window-y="145"
     inkscape:window-x="275"
     inkscape:cy="24"
     inkscape:cx="24"
     inkscape:zoom="18.541667"
     showgrid="false"
     id="namedview57"
     inkscape:window-height="480"
     inkscape:window-width="717"
     inkscape:pageshadow="2"
     inkscape:pageopacity="0"
     guidetolerance="10"
     gridtolerance="10"
     objecttolerance="10"
     borderopacity="1"
     bordercolor="#666666"
     pagecolor="#ffffff" />
  <title
     id="title50">EC/Icons/Social/2XL_48x48px/Icon-Foursquare/Simple</title>
  <g
     stroke-width="1"
     stroke="none"
     id="EC/Icons/Social/2XL_48x48px/Icon-Foursquare/Simple">
    <path
       d="m 33.970221,8.5113518 -1.079563,5.1161952 c -0.117465,0.557251 -0.630677,1.043981 -1.290721,1.043981 h -9.500711 c -1.044603,0 -1.903219,0.844863 -1.903219,1.879165 v 1.128328 c 0,1.031536 0.858616,1.877782 1.903219,1.877782 h 8.079939 c 0.734159,0 1.357844,0.689995 1.198427,1.469869 -0.162214,0.779874 -0.983073,4.781569 -1.072571,5.211606 -0.0909,0.427272 -0.552367,1.00388 -1.293517,1.00388 -0.741151,0 -6.625607,0.0028 -6.625607,0.0028 -1.335469,0.04148 -1.624938,0.0484 -2.410837,1.01356 -0.785899,0.965163 -7.842212,9.690351 -7.842212,9.690351 C 12.06153,38.0318 12,38.008293 12,37.918414 V 8.2583075 C 12,7.571078 12.581733,7 13.27394,7 h 19.51044 c 0.707589,0 1.364835,0.6554261 1.185841,1.5113518 M 35.054313,2 H 11.25116 C 7.9648419,2 7,4.4364886 7,5.9696065 V 43.269057 c 0,1.847992 0.9425334,2.367739 1.4723599,2.578113 0.5298265,0.211749 1.8906441,0.346499 2.8652461,-0.603622 0,0 11.296458,-12.997814 11.479109,-13.197188 0.182651,-0.200749 0.29001,-0.203499 0.395976,-0.203499 0.107359,0 4.847912,0.0028 7.201457,0.0028 1.932472,0 3.516375,-1.247119 3.930476,-3.198235 0,0 4.198178,-20.1340314 4.584393,-22.0136476 C 39.352879,4.5863629 37.855421,2 35.054313,2"
       id="Path" />
  </g>
</svg>
