<?xml version="1.0" encoding="UTF-8"?>
<svg width="48px" height="48px" viewBox="0 0 48 48" version="1.1" xmlns="http://www.w3.org/2000/svg" xmlns:xlink="http://www.w3.org/1999/xlink">
    <title>EC/Icons/Social/2XL_48x48px/Icon-Foursquare/Cutout</title>
    <g id="EC/Icons/Social/2XL_48x48px/Icon-Foursquare/Cutout" stroke="none" stroke-width="1" fill="none" fill-rule="evenodd">
        <path d="M35.0543125,2 C37.8554215,2 39.3528785,4.58636293 38.9290173,6.63372837 C38.5428017,8.5133446 34.3446239,28.6473756 34.3446239,28.6473756 C33.9305227,30.5984915 32.3466203,31.8456107 30.4141479,31.8456107 L30.4141479,31.8456107 L27.8665768,31.845026 C27.7813779,31.844995 27.6959598,31.8449631 27.6104613,31.8449305 L25.6140033,31.8440688 C25.536087,31.8440319 25.459199,31.8439952 25.3834778,31.8439587 L23.6004944,31.8430542 C23.5619699,31.843034 23.5259981,31.8430152 23.4927177,31.8429978 L23.2126905,31.8428607 C23.1067252,31.8428607 22.9993657,31.8456107 22.8167149,32.0463597 L22.8167149,32.0463597 L22.7712448,32.0977408 C22.3889766,32.5328854 19.770688,35.5430568 17.1361475,38.5730995 L16.6266296,39.1591213 C13.9144767,42.2785756 11.3376058,45.2435481 11.3376058,45.2435481 C10.3630039,46.1936687 9.00218641,46.0589193 8.47235992,45.8471703 C7.94253344,45.6367963 7,45.1170487 7,43.2690574 L7,43.2690574 L7,5.96960647 C7,4.43648863 7.96484192,2 11.2511604,2 L11.2511604,2 Z M32.7843797,7 L13.27394,7 C12.5817333,7 12,7.57107804 12,8.25830755 L12,8.25830755 L12,37.9184142 C12,38.0082933 12.0615295,38.0318001 12.1328477,37.9488348 C12.1328477,37.9488348 12.1418481,37.9377057 12.1592419,37.9161986 L12.2359959,37.8212937 C12.6388749,37.323145 14.1629711,35.438689 15.7592417,33.4655956 L16.3591774,32.7240652 C18.0236804,30.6667978 19.6242121,28.6893604 19.9750601,28.2584839 C20.7609594,27.2933205 21.0504276,27.2864067 22.3858971,27.2449241 L22.3858971,27.2449241 L24.1686281,27.2441026 C24.2467351,27.2440672 24.3263098,27.2440311 24.4071159,27.2439946 L26.4618719,27.243088 C26.547253,27.2430515 26.6319746,27.2430154 26.7158004,27.24298 L29.0115037,27.2421585 C29.7526543,27.2421585 30.2141254,26.6655495 30.3050212,26.238278 C30.3481126,26.0312232 30.5607515,24.9961709 30.7877865,23.8914035 L30.8930291,23.3793218 C31.103299,22.3563028 31.3054968,21.3732831 31.377592,21.0266723 C31.5370093,20.2467982 30.9133241,19.5568032 30.1791655,19.5568032 L30.1791655,19.5568032 L22.0992256,19.5568032 C21.0546228,19.5568032 20.1960068,18.7105568 20.1960068,17.6790211 L20.1960068,17.6790211 L20.1960068,16.5506926 C20.1960068,15.5163915 21.0546228,14.6715278 22.0992256,14.6715278 L22.0992256,14.6715278 L31.5999372,14.6715278 C32.2599807,14.6715278 32.7731925,14.1847979 32.8906579,13.6275474 L32.8906579,13.6275474 L33.9702207,8.51135182 C34.1492155,7.65542613 33.4919688,7 32.7843797,7 L32.7843797,7 Z" id="Combined-Shape" fill="#FFFFFF"></path>
    </g>
</svg>
