<svg
  width="48"
  height="48"
  viewBox="0 0 48 48"
  fill="none"
  xmlns="http://www.w3.org/2000/svg"
>
<path
    d="M5 41H12V24.0044L2 16.5063V38.0008C2 39.6603 3.345 41 5 41Z"
    fill="#4285F4"
  />
<path
    d="M36 41H43C44.66 41 46 39.6553 46 38.0008V16.5063L36 24.0044"
    fill="#34A853"
  />
<path
    d="M36 11.0077V24.0044L46 16.5063V12.5073C46 8.7983 41.765 6.68385 38.8 8.90828"
    fill="#FBBC04"
  />
<path
    d="M12 24.0044V11.0077L24 20.0054L36 11.0077V24.0044L24 33.0021"
    fill="#EA4335"
  />
<path
    d="M2 12.5073V16.5063L12 24.0044V11.0077L9.2 8.90828C6.23 6.68385 2 8.7983 2 12.5073Z"
    fill="#C5221F"
  />
</svg>
