<svg
  width="48"
  height="48"
  viewBox="0 0 48 48"
  fill="none"
  xmlns="http://www.w3.org/2000/svg"
>
<g
    id="Component type=Icons, Icon type=Social, Size=2XL_48x48px, Subject=Icon-Instagram, Style=Simple, Webtools=False"
  >
<path
      id="Vector"
      d="M14.8885 2.15398C12.5477 2.26442 10.9492 2.63798 9.55176 3.1871C8.10548 3.75074 6.87964 4.5071 5.65996 5.73118C4.44028 6.95526 3.6892 8.18199 3.12952 9.63046C2.58788 11.031 2.22092 12.6308 2.11752 14.9729C2.01412 17.3151 1.99124 18.0679 2.00268 24.0422C2.01412 30.0165 2.04052 30.7654 2.15404 33.1124C2.2658 35.4527 2.63804 37.0508 3.18716 38.4487C3.75168 39.895 4.50716 41.1204 5.73168 42.3405C6.9562 43.5606 8.18204 44.3099 9.63404 44.8705C11.0332 45.4113 12.6335 45.78 14.9752 45.8825C17.3169 45.985 18.0706 46.0088 24.0432 45.9973C30.0157 45.9859 30.7677 45.9595 33.1142 45.8482C35.4607 45.7369 37.0504 45.362 38.4488 44.8155C39.895 44.2497 41.1213 43.4955 42.3406 42.2705C43.5598 41.0456 44.3104 39.818 44.8697 38.3686C45.4118 36.9694 45.78 35.3691 45.8817 33.0292C45.9842 30.6809 46.0084 29.9312 45.997 23.9577C45.9855 17.9843 45.9587 17.2354 45.8474 14.8893C45.736 12.5433 45.3634 10.95 44.8147 9.55126C44.2493 8.10498 43.4947 6.88046 42.2706 5.65946C41.0465 4.43846 39.818 3.68826 38.3691 3.13034C36.969 2.5887 35.3696 2.21954 33.028 2.11834C30.6863 2.01714 29.9326 1.99118 23.9578 2.00262C17.983 2.01406 17.235 2.03958 14.8885 2.15398ZM15.1455 41.9247C13.0005 41.8314 11.8358 41.475 11.0596 41.1767C10.0318 40.7807 9.29964 40.302 8.52612 39.5359C7.7526 38.7699 7.2774 38.0351 6.87612 37.0095C6.57472 36.2333 6.21172 35.0699 6.1114 32.9249C6.00228 30.6066 5.9794 29.9105 5.96664 24.0369C5.95388 18.1634 5.97632 17.4682 6.07796 15.1489C6.16948 13.0057 6.52808 11.8397 6.82596 11.064C7.22196 10.0348 7.69892 9.30398 8.46672 8.5309C9.23452 7.75782 9.96712 7.28174 10.9936 6.88046C11.7689 6.57774 12.9323 6.21782 15.0764 6.11574C17.3965 6.00574 18.0917 5.98374 23.9644 5.97098C29.8371 5.95822 30.534 5.98022 32.855 6.0823C34.9983 6.17558 36.1647 6.53066 36.9396 6.8303C37.9678 7.2263 38.6996 7.70195 39.4726 8.47107C40.2457 9.24019 40.7222 9.97015 41.1235 10.9989C41.4267 11.7719 41.7866 12.9349 41.8878 15.0803C41.9982 17.4004 42.0233 18.0961 42.0339 23.9683C42.0444 29.8405 42.0238 30.5379 41.9221 32.8563C41.8284 35.0013 41.4729 36.1664 41.1741 36.9435C40.7781 37.9709 40.3007 38.7035 39.5325 39.4761C38.7642 40.2487 38.0325 40.7248 37.0056 41.1261C36.2312 41.4284 35.0665 41.7892 32.9241 41.8913C30.604 42.0004 29.9088 42.0233 24.0339 42.036C18.159 42.0488 17.466 42.025 15.1459 41.9247M33.0803 12.2419C33.0812 12.764 33.2369 13.2742 33.5277 13.7079C33.8186 14.1416 34.2315 14.4793 34.7143 14.6783C35.1971 14.8773 35.728 14.9286 36.24 14.8258C36.752 14.723 37.2219 14.4707 37.5905 14.1008C37.9591 13.7309 38.2096 13.26 38.3105 12.7476C38.4115 12.2353 38.3582 11.7046 38.1574 11.2225C37.9567 10.7405 37.6175 10.3288 37.1827 10.0395C36.748 9.75026 36.2372 9.59642 35.715 9.59746C35.015 9.59886 34.3442 9.87823 33.8501 10.3741C33.356 10.87 33.0791 11.5418 33.0803 12.2419ZM12.7039 24.022C12.7162 30.2612 17.7833 35.3075 24.0212 35.2957C30.259 35.2838 35.3089 30.2172 35.297 23.978C35.2852 17.7388 30.2168 12.6911 23.978 12.7034C17.7393 12.7157 12.692 17.7837 12.7039 24.022ZM16.6666 24.0141C16.6637 22.5636 17.091 21.1449 17.8944 19.9374C18.6978 18.7298 19.8413 17.7876 21.1802 17.2299C22.5191 16.6722 23.9934 16.524 25.4165 16.8042C26.8396 17.0843 28.1477 17.7802 29.1753 18.8037C30.2029 19.8273 30.904 21.1326 31.1897 22.5546C31.4755 23.9766 31.3332 25.4514 30.7808 26.7925C30.2284 28.1336 29.2907 29.2808 28.0864 30.089C26.882 30.8972 25.465 31.3301 24.0146 31.333C23.0515 31.335 22.0974 31.1473 21.2069 30.7806C20.3164 30.4139 19.5068 29.8753 18.8245 29.1956C18.1421 28.516 17.6004 27.7086 17.2301 26.8195C16.8598 25.9304 16.6683 24.9771 16.6666 24.0141Z"
      fill="black"
    />
</g>
</svg>
