<svg xmlns="http://www.w3.org/2000/svg" width="48" height="48" fill="none">
  <rect width="38" height="38" x="5" y="5" fill="#fff" rx="3.667" />
  <g clip-path="url(#a)">
    <path
      fill="url(#b)"
      d="M16.669 24a7.333 7.333 0 1 1 14.666 0 7.333 7.333 0 1 1-14.666 0Zm-3.965 0c0 6.24 5.058 11.297 11.297 11.297 6.239 0 11.296-5.058 11.296-11.297 0-6.24-5.057-11.297-11.296-11.297-6.24 0-11.297 5.058-11.297 11.297Zm20.4-11.745a2.64 2.64 0 1 0 2.642-2.639h-.001a2.641 2.641 0 0 0-2.64 2.64ZM15.114 41.907c-2.145-.097-3.311-.454-4.086-.756-1.027-.4-1.76-.877-2.53-1.646-.77-.77-1.248-1.502-1.646-2.529-.302-.774-.66-1.94-.757-4.085-.106-2.32-.128-3.016-.128-8.89 0-5.876.023-6.57.128-8.892.098-2.144.458-3.308.757-4.085.4-1.027.876-1.76 1.646-2.53.77-.771 1.501-1.248 2.53-1.646.775-.302 1.94-.66 4.086-.757 2.319-.107 3.015-.128 8.888-.128 5.872 0 6.57.023 8.89.128 2.145.098 3.31.458 4.086.757 1.027.398 1.76.876 2.53 1.646.77.769 1.246 1.503 1.646 2.53.302.774.66 1.94.757 4.086.107 2.32.128 3.015.128 8.89s-.021 6.57-.128 8.89c-.098 2.146-.457 3.312-.757 4.086-.4 1.027-.876 1.76-1.646 2.53-.77.768-1.503 1.245-2.53 1.645-.774.302-1.94.659-4.086.756-2.319.107-3.015.128-8.89.128s-6.57-.02-8.888-.127ZM14.93 2.133c-2.342.107-3.943.478-5.34 1.022a10.79 10.79 0 0 0-3.898 2.538C4.47 6.915 3.717 8.143 3.156 9.59c-.544 1.398-.915 2.998-1.022 5.34-.108 2.346-.133 3.096-.133 9.07s.025 6.724.133 9.07c.107 2.342.478 3.942 1.022 5.34.561 1.447 1.313 2.675 2.537 3.897a10.817 10.817 0 0 0 3.898 2.538c1.4.544 2.998.915 5.34 1.022 2.347.106 3.095.133 9.07.133 5.974 0 6.724-.025 9.07-.133 2.342-.107 3.941-.478 5.34-1.022 1.447-.563 2.673-1.315 3.897-2.538 1.224-1.222 1.974-2.45 2.538-3.897.544-1.398.917-2.998 1.022-5.34.106-2.347.131-3.096.131-9.07s-.025-6.724-.132-9.07c-.106-2.342-.477-3.943-1.021-5.34-.563-1.447-1.315-2.673-2.538-3.897-1.222-1.225-2.45-1.976-3.895-2.538-1.4-.544-3-.917-5.34-1.022C30.727 2.027 29.977 2 24.003 2c-5.975 0-6.726.025-9.072.133Z"
    />
    <path
      fill="url(#c)"
      d="M16.669 24a7.333 7.333 0 1 1 14.666 0 7.333 7.333 0 1 1-14.666 0Zm-3.965 0c0 6.24 5.058 11.297 11.297 11.297 6.239 0 11.296-5.058 11.296-11.297 0-6.24-5.057-11.297-11.296-11.297-6.24 0-11.297 5.058-11.297 11.297Zm20.4-11.745a2.64 2.64 0 1 0 2.642-2.639h-.001a2.641 2.641 0 0 0-2.64 2.64ZM15.114 41.907c-2.145-.097-3.311-.454-4.086-.756-1.027-.4-1.76-.877-2.53-1.646-.77-.77-1.248-1.502-1.646-2.529-.302-.774-.66-1.94-.757-4.085-.106-2.32-.128-3.016-.128-8.89 0-5.876.023-6.57.128-8.892.098-2.144.458-3.308.757-4.085.4-1.027.876-1.76 1.646-2.53.77-.771 1.501-1.248 2.53-1.646.775-.302 1.94-.66 4.086-.757 2.319-.107 3.015-.128 8.888-.128 5.872 0 6.57.023 8.89.128 2.145.098 3.31.458 4.086.757 1.027.398 1.76.876 2.53 1.646.77.769 1.246 1.503 1.646 2.53.302.774.66 1.94.757 4.086.107 2.32.128 3.015.128 8.89s-.021 6.57-.128 8.89c-.098 2.146-.457 3.312-.757 4.086-.4 1.027-.876 1.76-1.646 2.53-.77.768-1.503 1.245-2.53 1.645-.774.302-1.94.659-4.086.756-2.319.107-3.015.128-8.89.128s-6.57-.02-8.888-.127ZM14.93 2.133c-2.342.107-3.943.478-5.34 1.022a10.79 10.79 0 0 0-3.898 2.538C4.47 6.915 3.717 8.143 3.156 9.59c-.544 1.398-.915 2.998-1.022 5.34-.108 2.346-.133 3.096-.133 9.07s.025 6.724.133 9.07c.107 2.342.478 3.942 1.022 5.34.561 1.447 1.313 2.675 2.537 3.897a10.817 10.817 0 0 0 3.898 2.538c1.4.544 2.998.915 5.34 1.022 2.347.106 3.095.133 9.07.133 5.974 0 6.724-.025 9.07-.133 2.342-.107 3.941-.478 5.34-1.022 1.447-.563 2.673-1.315 3.897-2.538 1.224-1.222 1.974-2.45 2.538-3.897.544-1.398.917-2.998 1.022-5.34.106-2.347.131-3.096.131-9.07s-.025-6.724-.132-9.07c-.106-2.342-.477-3.943-1.021-5.34-.563-1.447-1.315-2.673-2.538-3.897-1.222-1.225-2.45-1.976-3.895-2.538-1.4-.544-3-.917-5.34-1.022C30.727 2.027 29.977 2 24.003 2c-5.975 0-6.726.025-9.072.133Z"
    />
  </g>
  <defs>
    <radialGradient
      id="b"
      cx="0"
      cy="0"
      r="1"
      gradientTransform="translate(7.846 46.208) scale(57.4383)"
      gradientUnits="userSpaceOnUse"
    >
      <stop offset=".09" stop-color="#FA8F21" />
      <stop offset=".78" stop-color="#D82D7E" />
    </radialGradient>
    <radialGradient
      id="c"
      cx="0"
      cy="0"
      r="1"
      gradientTransform="translate(28.685 48.18) scale(45.2693)"
      gradientUnits="userSpaceOnUse"
    >
      <stop offset=".64" stop-color="#8C3AAA" stop-opacity="0" />
      <stop offset="1" stop-color="#8C3AAA" />
    </radialGradient>
    <clipPath id="a">
      <path fill="#fff" d="M2 2h44v44H2z" />
    </clipPath>
  </defs>
</svg>
