<?xml version="1.0" encoding="UTF-8" ?>
<svg
  xmlns="http://www.w3.org/2000/svg"
  xmlns:xlink="http://www.w3.org/1999/xlink"
  viewBox="0 0 48 48"
><defs><style
    >.cls-1{fill:none;}.cls-2{mask:url(#mask);}.cls-3{fill:#fff;fill-rule:evenodd;}</style><mask
      id="mask"
      x="2"
      y="2"
      width="44"
      height="44"
      maskUnits="userSpaceOnUse"
    /></defs><g id="transparant_bg"><rect
      class="cls-1"
      y="0"
      width="48"
      height="48"
    /></g><g id="Layer_1"><g
      id="Component_type_Icons_Icon_type_Social_Size_2XL_48x48px_Subject_Icon-Instagram_Style_Negative_Webtools_False"
    ><g class="cls-2"><g><path
            id="Fill_1"
            class="cls-3"
            d="M24,2c-5.97,0-6.72,.03-9.07,.13-2.34,.11-3.94,.48-5.34,1.02-1.45,.56-2.67,1.31-3.9,2.54-1.22,1.22-1.98,2.45-2.54,3.9-.54,1.4-.92,3-1.02,5.34-.11,2.35-.13,3.1-.13,9.07s.03,6.72,.13,9.07c.11,2.34,.48,3.94,1.02,5.34,.56,1.45,1.31,2.67,2.54,3.9,1.22,1.22,2.45,1.98,3.9,2.54,1.4,.54,3,.92,5.34,1.02,2.35,.11,3.1,.13,9.07,.13s6.72-.03,9.07-.13c2.34-.11,3.94-.48,5.34-1.02,1.45-.56,2.67-1.31,3.9-2.54,1.22-1.22,1.98-2.45,2.54-3.9,.54-1.4,.92-3,1.02-5.34,.11-2.35,.13-3.1,.13-9.07s-.03-6.72-.13-9.07c-.11-2.34-.48-3.94-1.02-5.34-.56-1.45-1.31-2.67-2.54-3.9-1.22-1.22-2.45-1.98-3.9-2.54-1.4-.54-3-.92-5.34-1.02-2.35-.11-3.1-.13-9.07-.13Zm0,3.96c5.87,0,6.57,.02,8.89,.13,2.15,.1,3.31,.46,4.09,.76,1.03,.4,1.76,.88,2.53,1.65,.77,.77,1.25,1.5,1.65,2.53,.3,.78,.66,1.94,.76,4.09,.11,2.32,.13,3.02,.13,8.89s-.02,6.57-.13,8.89c-.1,2.15-.46,3.31-.76,4.09-.4,1.03-.88,1.76-1.65,2.53-.77,.77-1.5,1.25-2.53,1.65-.78,.3-1.94,.66-4.09,.76-2.32,.11-3.02,.13-8.89,.13s-6.57-.02-8.89-.13c-2.14-.1-3.31-.46-4.09-.76-1.03-.4-1.76-.88-2.53-1.65-.77-.77-1.25-1.5-1.65-2.53-.3-.78-.66-1.94-.76-4.09-.11-2.32-.13-3.02-.13-8.89s.02-6.57,.13-8.89c.1-2.15,.46-3.31,.76-4.09,.4-1.03,.88-1.76,1.65-2.53,.77-.77,1.5-1.25,2.53-1.65,.78-.3,1.94-.66,4.09-.76,2.32-.11,3.02-.13,8.89-.13Z"
          /><path
            id="Fill_4"
            class="cls-3"
            d="M24.5,31.96c-4.12,0-7.46-3.34-7.46-7.46s3.34-7.46,7.46-7.46,7.46,3.34,7.46,7.46-3.34,7.46-7.46,7.46Zm0-18.96c-6.35,0-11.5,5.15-11.5,11.5s5.15,11.5,11.5,11.5,11.5-5.15,11.5-11.5-5.15-11.5-11.5-11.5Z"
          /><path
            id="Fill_5"
            class="cls-3"
            d="M38,12.5c0,1.38-1.12,2.5-2.5,2.5s-2.5-1.12-2.5-2.5,1.12-2.5,2.5-2.5,2.5,1.12,2.5,2.5Z"
          /></g></g></g></g></svg>
