<?xml version="1.0" encoding="UTF-8"?>
<svg width="48px" height="48px" viewBox="0 0 48 48" version="1.1" xmlns="http://www.w3.org/2000/svg" xmlns:xlink="http://www.w3.org/1999/xlink">
    <title>EC/Icons/Social/2XL_48x48px/Icon-LinkedIn/Cutout</title>
    <g id="EC/Icons/Social/2XL_48x48px/Icon-LinkedIn/Cutout" stroke="none" stroke-width="1" fill="none" fill-rule="evenodd">
        <path d="M42.740288,2.00027876 C44.515815,1.97714719 45.9746697,3.39652233 46,5.17206186 L46,5.17206186 L46,42.8245959 C45.9754085,44.6009882 44.5166719,46.0217679 42.740288,45.9997475 L42.740288,45.9997475 L5.24680897,45.9997475 C3.47393233,46.0183503 2.02088609,44.5974886 2,42.8245959 L2,42.8245959 L2,5.17477835 C2.02162652,3.40273949 3.47478971,1.98328321 5.24680897,2.00328088 L5.24680897,2.00328088 L42.740288,2.00328088 Z M31.2951301,17.7778762 C28.8081803,17.6854011 26.4720276,18.9706934 25.2156106,21.1226747 L25.2156106,21.1226747 L25.129362,21.1226747 L25.129362,18.2929243 L18.9676056,18.2929243 L18.9676056,38.9993302 L25.3861019,38.9993302 L25.3869609,28.5676856 C25.4114227,25.9345486 25.9753192,23.4387166 29.2405426,23.4387166 C32.386244,23.4387166 32.5682188,26.2550649 32.5782626,28.5994328 L32.5782626,28.5994328 L32.5788293,39 L38.9973256,39 L39,27.6408124 C39,22.0643621 37.8005435,17.7778762 31.2951301,17.7778762 Z M14.9346504,18.2929243 L8.50946815,18.2929243 L8.50946815,39 L14.9346504,39 L14.9346504,18.2929243 Z M11.7240651,8.00000006 C9.66695155,8.00037003 7.99963088,9.67120829 8.00000006,11.7319218 C8.00036937,13.7926354 9.6682887,15.4628739 11.7254022,15.4625041 C12.713263,15.4623264 13.6605932,15.0690432 14.3589908,14.3691721 C15.0573885,13.669301 15.4496446,12.7201718 15.4494673,11.7305823 C15.449098,9.66986872 13.7811786,7.99963021 11.7240651,8.00000006 Z" id="Combined-Shape" fill="#FFFFFF"></path>
    </g>
</svg>
