<?xml version="1.0" encoding="UTF-8" standalone="no"?>
<svg
   xmlns:dc="http://purl.org/dc/elements/1.1/"
   xmlns:cc="http://creativecommons.org/ns#"
   xmlns:rdf="http://www.w3.org/1999/02/22-rdf-syntax-ns#"
   xmlns:svg="http://www.w3.org/2000/svg"
   xmlns="http://www.w3.org/2000/svg"
   xmlns:sodipodi="http://sodipodi.sourceforge.net/DTD/sodipodi-0.dtd"
   xmlns:inkscape="http://www.inkscape.org/namespaces/inkscape"
   inkscape:version="1.0 (4035a4fb49, 2020-05-01)"
   sodipodi:docname="linkedin.svg"
   id="svg82"
   version="1.1"
   viewBox="0 0 48 48"
   height="48px"
   width="48px">
  <metadata
     id="metadata88">
    <rdf:RDF>
      <cc:Work
         rdf:about="">
        <dc:format>image/svg+xml</dc:format>
        <dc:type
           rdf:resource="http://purl.org/dc/dcmitype/StillImage" />
      </cc:Work>
    </rdf:RDF>
  </metadata>
  <defs
     id="defs86" />
  <sodipodi:namedview
     inkscape:current-layer="svg82"
     inkscape:window-maximized="0"
     inkscape:window-y="0"
     inkscape:window-x="78"
     inkscape:cy="24"
     inkscape:cx="24"
     inkscape:zoom="18.541667"
     showgrid="false"
     id="namedview84"
     inkscape:window-height="480"
     inkscape:window-width="717"
     inkscape:pageshadow="2"
     inkscape:pageopacity="0"
     guidetolerance="10"
     gridtolerance="10"
     objecttolerance="10"
     borderopacity="1"
     bordercolor="#666666"
     pagecolor="#ffffff" />
  <title
     id="title77">EC/Icons/Social/2XL_48x48px/Icon-LinkedIn/Simple</title>
  <g
     stroke-width="1"
     stroke="none"
     id="EC/Icons/Social/2XL_48x48px/Icon-LinkedIn/Simple">
    <path
       d="m 31.29513,17.777876 c 6.505414,0 7.70487,4.286486 7.70487,9.862936 L 38.997326,39 h -6.418497 l -5.66e-4,-10.400567 c -0.01004,-2.344368 -0.192019,-5.160716 -3.33772,-5.160716 -3.265224,0 -3.82912,2.495832 -3.853582,5.128969 L 25.386102,38.99933 H 18.967606 V 18.292924 h 6.161756 v 2.829751 h 0.08625 c 1.256417,-2.151982 3.592569,-3.437274 6.079519,-3.344799 z M 14.93465,18.292924 V 39 H 8.5094682 V 18.292924 Z M 11.724065,8.0000001 c 2.057114,-3.699e-4 3.725033,1.6698686 3.725402,3.7305819 1.78e-4,0.98959 -0.392078,1.938719 -1.090476,2.63859 -0.698398,0.699871 -1.645728,1.093154 -2.633589,1.093332 C 9.6682887,15.462874 8.0003694,13.792635 8.0000001,11.731922 7.9996309,9.6712083 9.6669516,8.00037 11.724065,8.0000001 Z M 42.740288,2.0032809 H 5.246809 C 3.4747897,1.9832832 2.0216265,3.4027395 2,5.1747784 V 42.824596 c 0.020886,1.772893 1.4739323,3.193754 3.246809,3.175151 H 42.740288 C 44.516672,46.021768 45.975409,44.600988 46,42.824596 V 5.1720619 C 45.97467,3.3965223 44.515815,1.9771472 42.740288,2.0002788"
       id="Combined-Shape" />
  </g>
</svg>
