<svg width="48" height="48" viewBox="0 0 48 48" fill="none" xmlns="http://www.w3.org/2000/svg">
<path d="M45.4356 28.7742C44.7893 32.1609 39.5411 35.8578 33.5174 36.5817C30.3892 36.9436 27.2869 37.3056 24.0036 37.1505C18.6262 36.8919 14.3605 35.8578 14.3605 35.8578C14.3605 36.3749 14.3864 36.8919 14.4639 37.3573C15.1619 42.6571 19.7379 42.9932 24.0553 43.1483C28.4244 43.3034 32.3024 42.0625 32.3024 42.0625L32.4833 46.018C32.4833 46.018 29.4327 47.6467 23.9778 47.9569C20.9788 48.1121 17.256 47.8794 12.9128 46.7419C3.55404 44.2341 1.92531 34.1774 1.69264 24.0173C1.61508 20.9925 1.66679 18.1487 1.66679 15.7702C1.66679 5.35153 8.49192 2.3009 8.49192 2.3009C11.9045 0.723878 17.8248 0.0517056 23.9519 0H24.107C30.2341 0.0517056 36.1544 0.723878 39.5928 2.3009C39.5928 2.3009 46.418 5.35153 46.418 15.7702C46.3921 15.7444 46.4955 23.4226 45.4356 28.7742Z" fill="#2B90D9"/>
<path d="M38.3707 16.5716V29.1877H33.3811V16.9335C33.3811 14.3482 32.2953 13.0556 30.1237 13.0556C27.7194 13.0556 26.5301 14.6068 26.5301 17.6832V24.3791H21.5664V17.6574C21.5664 14.5809 20.3513 13.0297 17.9728 13.0297C15.8012 13.0297 14.7154 14.3482 14.7154 16.9077V29.136H9.69995V16.5716C9.69995 13.9863 10.3463 11.9439 11.6648 10.4445C13.035 8.91914 14.793 8.14355 17.0163 8.14355C19.5757 8.14355 21.5147 9.12596 22.7815 11.0908L24.0224 13.1849L25.2633 11.0908C26.5301 9.12596 28.4691 8.14355 31.0285 8.14355C33.226 8.14355 35.0098 8.91914 36.38 10.4445C37.7244 11.9439 38.3707 13.9863 38.3707 16.5716Z" fill="white"/>
</svg>
