<svg
  width="48"
  height="48"
  viewBox="0 0 48 48"
  fill="none"
  xmlns="http://www.w3.org/2000/svg"
>
<path
    d="M24 2C11.6068 2 2 11.0783 2 23.34C2 29.7536 4.62845 35.2959 8.9091 39.1239C9.26825 39.4457 9.4855 39.8961 9.50035 40.3785L9.62025 44.2917C9.65875 45.5402 10.9479 46.352 12.0903 45.8482L16.4567 43.9205C16.8269 43.7571 17.2416 43.7268 17.6315 43.8341C19.6379 44.3857 21.7736 44.68 24 44.68C36.3932 44.68 46 35.6017 46 23.34C46 11.0783 36.3932 2 24 2ZM37.211 18.4191L30.7485 28.6723C29.7205 30.303 27.5189 30.7095 25.9767 29.5528L20.8364 25.6978C20.365 25.3442 19.7161 25.3459 19.2464 25.7023L12.3048 30.9707C11.378 31.6736 10.1686 30.5648 10.789 29.5809L17.2515 19.3277C18.2794 17.6965 20.4806 17.2906 22.0233 18.4472L27.163 22.3022C27.6344 22.6558 28.2834 22.6542 28.7531 22.2977L35.6946 17.0293C36.6214 16.3264 37.8308 17.4352 37.2104 18.4191H37.211Z"
    fill="black"
  />
<path
    d="M24 2C11.6068 2 2 11.0783 2 23.34C2 29.7536 4.62845 35.2959 8.9091 39.1239C9.26825 39.4457 9.4855 39.8961 9.50035 40.3785L9.62025 44.2917C9.65875 45.5402 10.9479 46.352 12.0903 45.8482L16.4567 43.9205C16.8269 43.7571 17.2416 43.7268 17.6315 43.8341C19.6379 44.3857 21.7736 44.68 24 44.68C36.3932 44.68 46 35.6017 46 23.34C46 11.0783 36.3932 2 24 2ZM37.211 18.4191L30.7485 28.6723C29.7205 30.303 27.5189 30.7095 25.9767 29.5528L20.8364 25.6978C20.365 25.3442 19.7161 25.3459 19.2464 25.7023L12.3048 30.9707C11.378 31.6736 10.1686 30.5648 10.789 29.5809L17.2515 19.3277C18.2794 17.6965 20.4806 17.2906 22.0233 18.4472L27.163 22.3022C27.6344 22.6558 28.2834 22.6542 28.7531 22.2977L35.6946 17.0293C36.6214 16.3264 37.8308 17.4352 37.2104 18.4191H37.211Z"
    fill="black"
  />
</svg>
