<?xml version="1.0" encoding="UTF-8" ?>
<svg
  id="a"
  xmlns="http://www.w3.org/2000/svg"
  viewBox="0 0 48 48"
  width="48px"
  height="48px"
><defs><style>.b{fill:evenodd;}</style></defs><path
    class="b"
    d="m22,0C9.61,0,0,9.08,0,21.34c0,6.41,2.63,11.96,6.91,15.78.36.32.58.77.59,1.25l.12,3.91c.04,1.25,1.33,2.06,2.47,1.56l4.37-1.93c.37-.16.78-.19,1.17-.09,2.01.55,4.14.85,6.37.85,12.39,0,22-9.08,22-21.34S34.39,0,22,0Zm13.21,16.42l-6.46,10.25c-1.03,1.63-3.23,2.04-4.77.88l-5.14-3.85c-.47-.35-1.12-.35-1.59,0l-6.94,5.27c-.93.7-2.14-.41-1.52-1.39l6.46-10.25c1.03-1.63,3.23-2.04,4.77-.88l5.14,3.85c.47.35,1.12.35,1.59,0l6.94-5.27c.93-.7,2.14.41,1.52,1.39h0Z"
  /></svg>
