<?xml version="1.0" encoding="UTF-8" ?>
<svg
  xmlns="http://www.w3.org/2000/svg"
  xmlns:xlink="http://www.w3.org/1999/xlink"
  viewBox="0 0 48 48"
><defs><style
    >.cls-1{fill:none;}.cls-2{mask:url(#mask);}.cls-3{fill:#fff;fill-rule:evenodd;}</style><mask
      id="mask"
      x="2"
      y="2"
      width="43.96"
      height="44"
      maskUnits="userSpaceOnUse"
    /></defs><g id="transparant_bg"><rect
      class="cls-1"
      y="0"
      width="48"
      height="48"
    /></g><g id="Layer_1"><g
      id="Component_type_Icons_Icon_type_Social_Size_2XL_48x48px_Subject_Icon-Pinterest_Style_Negative_Webtools_False"
    ><g class="cls-2"><path
          id="Fill_4"
          class="cls-3"
          d="M24,2C11.85,2,2,11.84,2,23.98c0,9.32,5.79,17.28,13.98,20.48-.2-1.74-.36-4.41,.07-6.31,.4-1.72,2.57-10.93,2.57-10.93,0,0-.65-1.32-.65-3.26,0-3.06,1.77-5.34,3.98-5.34,1.88,0,2.79,1.41,2.79,3.09,0,1.88-1.19,4.7-1.83,7.33-.52,2.19,1.1,3.98,3.26,3.98,3.91,0,6.92-4.13,6.92-10.06,0-5.26-3.78-8.94-9.2-8.94-6.26,0-9.94,4.69-9.94,9.53,0,1.88,.73,3.91,1.63,5.01,.18,.22,.2,.42,.15,.63-.16,.69-.54,2.19-.62,2.5-.09,.4-.33,.49-.74,.29-2.75-1.29-4.47-5.28-4.47-8.52,0-6.93,5.03-13.3,14.54-13.3,7.62,0,13.56,5.43,13.56,12.7s-4.78,13.68-11.41,13.68c-2.23,0-4.33-1.16-5.03-2.53,0,0-1.11,4.2-1.38,5.23-.49,1.92-1.83,4.31-2.73,5.77,2.06,.63,4.24,.98,6.52,.98,12.15,0,22-9.84,22-21.98,.04-12.18-9.81-22.02-21.96-22.02Z"
        /></g></g></g></svg>
