<?xml version="1.0" encoding="UTF-8" ?>
<svg
  id="a"
  xmlns="http://www.w3.org/2000/svg"
  viewBox="0 0 48 48"
  width="48px"
  height="48px"
><defs><style>.b{fill:evenodd;}</style></defs><path
    class="b"
    d="m23.42,28.26c0,.63,6.48,2.27,12.27,1.85.02-.16.24-.37.22-.36l9.83-10.05c.21-.21.3-.53.23-.82-.05-.18-.23-.41-.61-.47-.38-.07-13.48-2.58-13.48-2.58,0,0-.19-.04-.37-.13-.17-.09-.23-.31-.23-.31,0,0-6.47-11.61-6.65-11.96-.34-.61-.94-.58-1.28,0-.18.34-6.65,11.96-6.65,11.96,0,0-.07.22-.23.31-.17.09-.37.13-.37.13,0,0-13.1,2.5-13.48,2.57-.38.07-.55.29-.61.47-.07.3.01.61.23.82l9.83,10.05s.13.14.21.31c.03.18,0,.38,0,.38,0,0-2.18,13.26-2.23,13.64-.06.38.14.67.29.79.15.11.42.19.76.02.35-.17,12.49-5.97,12.49-5.97,0,0,.18-.08.37-.11.19-.03.37.11.37.11,0,0,12.15,5.8,12.49,5.97.69.34,1.14-.22,1.07-.81-.04-.26-1.71-10.39-1.71-10.39,1.61-1,2.61-1.9,3.4-3.21-6.52,2.46-15.75,3.96-23.64,3.39-2.18-.15-3.25-.78-1.27-2.32,1.75-1.31,3.5-2.63,5.24-3.94,2.36-1.77,6.53-4.53,6.53-5.01,0-.52-3.93-1.42-7.4-1.42s-4.18.24-5.16.31c-.9.06-1.41,0-1.48-.26-.11-.45.34-.71,1.08-1.04,1.3-.58,3.41-1.09,3.64-1.14.36-.1,5.65-1.48,10.3-.98,2.41.25,5.95,1.22,5.95,2.33,0,.63-3.16,2.74-5.92,4.76h0c-2.1,1.55-4.07,2.86-4.07,3.09Z"
  /></svg>
