<svg
  width="48"
  height="48"
  viewBox="0 0 48 48"
  fill="none"
  xmlns="http://www.w3.org/2000/svg"
>
<path
    d="M27.4888 25.1698C25.3846 26.7159 23.4229 28.0295 23.4229 28.2572C23.4229 28.8879 29.9065 30.5288 35.6919 30.1115C35.7156 29.955 35.9341 29.7463 35.9151 29.7558L45.7474 19.7065C45.9611 19.4931 46.0466 19.1754 45.9754 18.8861C45.9231 18.7011 45.7474 18.4782 45.3674 18.4118C44.9874 18.3407 31.8872 15.8367 31.8872 15.8367C31.8872 15.8367 31.6924 15.794 31.5215 15.7086C31.3552 15.6233 31.2935 15.4004 31.2935 15.4004C31.2935 15.4004 24.8194 3.78612 24.6389 3.44467C24.2969 2.83764 23.6984 2.86609 23.3611 3.44467C23.1806 3.78612 16.7065 15.4004 16.7065 15.4004C16.7065 15.4004 16.64 15.6233 16.4786 15.7086C16.3076 15.794 16.1128 15.8367 16.1128 15.8367C16.1128 15.8367 3.01261 18.3407 2.63262 18.4024C2.25263 18.4735 2.08163 18.6964 2.02463 18.8766C1.95339 19.1754 2.03888 19.4836 2.25263 19.697L12.0849 29.751C12.0849 29.751 12.2131 29.8933 12.2986 30.064C12.3271 30.249 12.3034 30.4482 12.3034 30.4482C12.3034 30.4482 10.1279 43.7081 10.0709 44.0875C10.014 44.4669 10.2087 44.7609 10.3654 44.8747C10.5174 44.9885 10.7882 45.0691 11.1302 44.8984C11.4817 44.7277 23.6224 38.9277 23.6224 38.9277C23.6224 38.9277 23.8029 38.847 23.9929 38.8186C24.1781 38.7854 24.3586 38.9277 24.3586 38.9277C24.3586 38.9277 36.5041 44.7277 36.8508 44.8984C37.5396 45.2351 37.9861 44.6755 37.9196 44.0875C37.8768 43.8314 36.2048 33.6968 36.2048 33.6968C37.8151 32.7008 38.8173 31.795 39.601 30.4909C33.0794 32.9522 23.8504 34.4555 15.9656 33.8817C13.7806 33.7347 12.7166 33.0992 14.6926 31.5579C16.4406 30.2442 18.1885 28.9258 19.9365 27.6169C22.2924 25.8433 26.4628 23.0879 26.4628 22.6089C26.4628 22.092 22.5299 21.1862 19.0625 21.1862C15.5951 21.1862 14.8873 21.4233 13.9041 21.4944C13.0064 21.5513 12.4934 21.4992 12.4269 21.2383C12.3176 20.7878 12.7641 20.5317 13.5099 20.1997C14.8066 19.6212 16.9203 19.1137 17.1483 19.0568C17.5045 18.9572 22.8007 17.5772 27.4508 18.0751C29.8637 18.3265 33.4024 19.2987 33.4024 20.4084C33.4024 21.0392 30.2437 23.1495 27.484 25.1651L27.4888 25.1698Z"
    fill="white"
  />
</svg>
