<?xml version="1.0" encoding="UTF-8" standalone="no"?>
<svg
   xmlns:dc="http://purl.org/dc/elements/1.1/"
   xmlns:cc="http://creativecommons.org/ns#"
   xmlns:rdf="http://www.w3.org/1999/02/22-rdf-syntax-ns#"
   xmlns:svg="http://www.w3.org/2000/svg"
   xmlns="http://www.w3.org/2000/svg"
   xmlns:sodipodi="http://sodipodi.sourceforge.net/DTD/sodipodi-0.dtd"
   xmlns:inkscape="http://www.inkscape.org/namespaces/inkscape"
   inkscape:version="1.0 (4035a4fb49, 2020-05-01)"
   sodipodi:docname="reddit.svg"
   id="svg158"
   version="1.1"
   viewBox="0 0 48 48"
   height="48px"
   width="48px">
  <metadata
     id="metadata164">
    <rdf:RDF>
      <cc:Work
         rdf:about="">
        <dc:format>image/svg+xml</dc:format>
        <dc:type
           rdf:resource="http://purl.org/dc/dcmitype/StillImage" />
      </cc:Work>
    </rdf:RDF>
  </metadata>
  <defs
     id="defs162" />
  <sodipodi:namedview
     inkscape:current-layer="svg158"
     inkscape:window-maximized="0"
     inkscape:window-y="146"
     inkscape:window-x="324"
     inkscape:cy="24"
     inkscape:cx="24"
     inkscape:zoom="18.541667"
     showgrid="false"
     id="namedview160"
     inkscape:window-height="480"
     inkscape:window-width="705"
     inkscape:pageshadow="2"
     inkscape:pageopacity="0"
     guidetolerance="10"
     gridtolerance="10"
     objecttolerance="10"
     borderopacity="1"
     bordercolor="#666666"
     pagecolor="#ffffff" />
  <title
     id="title153">EC/Icons/Social/2XL_48x48px/Icon-Reddit/Colour</title>
  <g
     stroke-width="1"
     stroke="none"
     id="EC/Icons/Social/2XL_48x48px/Icon-Reddit/Colour">
    <path
       d="m 28.483844,28.79041 c -1.249871,0 -2.267177,-1.023633 -2.267177,-2.281278 0,-1.257645 1.017306,-2.281278 2.267177,-2.281278 1.249871,0 2.265816,1.023633 2.265816,2.281278 0,1.257645 -1.015945,2.281278 -2.265816,2.281278 m 0.39849,3.745566 c -1.547719,1.554608 -4.511232,1.675035 -5.383014,1.675035 -0.873142,0 -3.836655,-0.120427 -5.381654,-1.676404 -0.229845,-0.229907 -0.229845,-0.603505 0,-0.834781 0.228486,-0.231275 0.601135,-0.231275 0.830981,0 0.975144,0.98121 3.060076,1.330176 4.550673,1.330176 1.490597,0 3.576889,-0.348966 4.553393,-1.330176 0.229846,-0.231275 0.601135,-0.231275 0.830981,0 0.228485,0.231276 0.228485,0.604874 -0.0014,0.83615 M 16.24354,26.509132 c 0,-1.257645 1.017305,-2.281278 2.267176,-2.281278 1.249871,0 2.265816,1.023633 2.265816,2.281278 0,1.257645 -1.015945,2.279909 -2.265816,2.279909 -1.249871,0 -2.267176,-1.022264 -2.267176,-2.279909 M 38,24.227854 c 0,-1.763987 -1.421235,-3.192694 -3.172959,-3.192694 -0.855461,0 -1.63068,0.342123 -2.200534,0.894994 -2.170614,-1.573767 -5.158608,-2.591926 -8.486611,-2.708248 l 1.444356,-6.843833 4.723397,1.009947 c 0.05712,1.20838 1.040426,2.173167 2.256296,2.173167 1.251231,0 2.265816,-1.022264 2.265816,-2.281277 0,-1.259014 -1.014585,-2.27991 -2.265816,-2.27991 -0.890822,0 -1.653801,0.520027 -2.02373,1.272699 l -5.274211,-1.129007 c -0.146884,-0.03148 -0.300568,-0.0027 -0.427051,0.08074 -0.125123,0.08211 -0.213525,0.210748 -0.244806,0.358545 l -1.61436,7.636191 c -3.376964,0.09443 -6.413919,1.112585 -8.611734,2.705511 C 13.798199,21.374546 13.0257,21.03516 12.172959,21.03516 10.421235,21.03516 9,22.463867 9,24.227854 c 0,1.297331 0.7711391,2.412653 1.875487,2.912153 -0.04896,0.316122 -0.07616,0.639087 -0.07616,0.964788 0,4.91289 5.683581,8.895205 12.693195,8.895205 7.010974,0 12.694555,-3.982315 12.694555,-8.895205 0,-0.322964 -0.02584,-0.64456 -0.0748,-0.959314 C 37.223421,26.650087 38,25.530659 38,24.227854 M 46,24 C 46,36.150875 36.150875,46 24,46 11.8505,46 2,36.150875 2,24 2,11.8505 11.8505,2 24,2 36.150875,2 46,11.8505 46,24"
       id="Fill-3" />
  </g>
</svg>
