<?xml version="1.0" encoding="UTF-8" ?>
<svg xmlns="http://www.w3.org/2000/svg" viewBox="0 0 48 48"><defs><style
    >.cls-1{fill:none;}.cls-2{fill:#231f20;}</style></defs><g
    id="transparant_bg"
  ><rect class="cls-1" width="48" height="48" /></g><g id="Layer_1"><path
      class="cls-2"
      d="M36,32c-1.32,0-2.53,.44-3.52,1.16l-14.55-8.4c.03-.25,.08-.5,.08-.76s-.04-.51-.08-.76l14.55-8.4c.99,.72,2.2,1.16,3.52,1.16,3.31,0,6-2.69,6-6s-2.69-6-6-6-6,2.69-6,6c0,.53,.09,1.03,.22,1.52l-14.09,8.14c-1.08-1.02-2.52-1.66-4.12-1.66-3.31,0-6,2.69-6,6s2.69,6,6,6c1.6,0,3.05-.64,4.12-1.66l14.09,8.14c-.13,.49-.22,.99-.22,1.52,0,3.31,2.69,6,6,6s6-2.69,6-6-2.69-6-6-6Z"
    /></g></svg>
