<?xml version="1.0" encoding="UTF-8" standalone="no"?>
<svg
   xmlns:dc="http://purl.org/dc/elements/1.1/"
   xmlns:cc="http://creativecommons.org/ns#"
   xmlns:rdf="http://www.w3.org/1999/02/22-rdf-syntax-ns#"
   xmlns:svg="http://www.w3.org/2000/svg"
   xmlns="http://www.w3.org/2000/svg"
   xmlns:sodipodi="http://sodipodi.sourceforge.net/DTD/sodipodi-0.dtd"
   xmlns:inkscape="http://www.inkscape.org/namespaces/inkscape"
   inkscape:version="1.0 (4035a4fb49, 2020-05-01)"
   sodipodi:docname="skype.svg"
   id="svg187"
   version="1.1"
   viewBox="0 0 48 48"
   height="48px"
   width="48px">
  <metadata
     id="metadata193">
    <rdf:RDF>
      <cc:Work
         rdf:about="">
        <dc:format>image/svg+xml</dc:format>
        <dc:type
           rdf:resource="http://purl.org/dc/dcmitype/StillImage" />
      </cc:Work>
    </rdf:RDF>
  </metadata>
  <defs
     id="defs191" />
  <sodipodi:namedview
     inkscape:current-layer="svg187"
     inkscape:window-maximized="0"
     inkscape:window-y="0"
     inkscape:window-x="78"
     inkscape:cy="24"
     inkscape:cx="24"
     inkscape:zoom="18.541667"
     showgrid="false"
     id="namedview189"
     inkscape:window-height="480"
     inkscape:window-width="755"
     inkscape:pageshadow="2"
     inkscape:pageopacity="0"
     guidetolerance="10"
     gridtolerance="10"
     objecttolerance="10"
     borderopacity="1"
     bordercolor="#666666"
     pagecolor="#ffffff" />
  <title
     id="title181">EC/Icons/Social/2XL_48x48px/Icon-Skype/Simple</title>
  <g
     stroke-width="1"
     stroke="none"
     id="EC/Icons/Social/2XL_48x48px/Icon-Skype/Simple">
    <path
       style="stroke-width:1"
       d="M 23.583493,37 C 16.318138,37 13,33.345162 13,30.659872 c 0,-1.377144 1.090451,-2.324642 2.486085,-2.324642 3.107965,0 2.298944,4.608027 8.097408,4.608027 2.967611,0 4.705854,-1.764821 4.705854,-3.420098 0,-0.99658 -0.577975,-2.104128 -2.532149,-2.588547 L 19.297985,25.316325 C 14.095489,24.009603 13.184261,21.148614 13.184261,18.497469 13.184261,12.991026 18.276632,11 23.131478,11 c 4.46905,0 9.783109,2.437033 9.783109,5.741895 0,1.415556 -1.201295,2.185932 -2.598368,2.185932 -2.653071,0 -2.211133,-3.68756 -7.553983,-3.68756 -2.652351,0 -4.051583,1.227053 -4.051583,2.95204 0,1.720007 2.052063,2.304013 3.870201,2.719433 l 4.78071,1.065579 C 32.599328,23.146754 34,26.181308 34,29.071462 34,33.546469 30.493282,37 23.583493,37 m 20.79864,-9.406005 c 0.204692,-1.166853 0.311773,-2.367749 0.311773,-3.594719 0,-11.428064 -9.265765,-20.6940808 -20.69427,-20.6940808 -1.227423,0 -2.427164,0.1057484 -3.594855,0.3114506 C 18.607718,2.5859617 16.524378,2 14.304091,2 7.5084682,2 2,7.5097781 2,14.305195 c 0,2.219267 0.5863947,4.303088 1.6171382,6.10081 -0.2061487,1.166853 -0.3117726,2.367025 -0.3117726,3.593271 0,11.428788 9.2657654,20.696253 20.6942704,20.696253 1.226694,0 2.427892,-0.107197 3.594854,-0.312175 C 29.392282,45.414038 31.474894,46 33.693724,46 40.489347,46 46,40.490946 46,33.69408 46,31.474814 45.410691,29.391717 44.382133,27.593995"
       id="path184" />
  </g>
</svg>
