<?xml version="1.0" encoding="UTF-8"?>
<svg width="48px" height="48px" viewBox="0 0 48 48" version="1.1" xmlns="http://www.w3.org/2000/svg" xmlns:xlink="http://www.w3.org/1999/xlink">
    <title>EC/Icons/Social/2XL_48x48px/Icon-Skype/Negative</title>
    <g id="EC/Icons/Social/2XL_48x48px/Icon-Skype/Negative" stroke="none" stroke-width="1" fill="none" fill-rule="evenodd">
        <path d="M14.3040909,2 C16.5243779,2 18.6077182,2.58596168 20.4047812,3.61664582 C21.5724716,3.41094357 22.7722133,3.30519523 23.9996358,3.30519523 C35.428141,3.30519523 44.6939059,12.5712122 44.6939059,23.9992757 C44.6939059,25.2262461 44.5868252,26.4271416 44.3821333,27.5939949 C45.4106915,29.3917166 46,31.474814 46,33.6940805 C46,40.4909462 40.4893466,46 33.6937238,46 C31.4748936,46 29.3922818,45.4140383 27.5944903,44.3833542 C26.4275284,44.5883321 25.2263298,44.6955291 23.9996358,44.6955291 C12.5711306,44.6955291 3.30536563,35.4280635 3.30536563,23.9992757 C3.30536563,22.7730296 3.41098952,21.5728584 3.61713822,20.4060051 C2.58639472,18.6082834 2,16.5244617 2,14.3051952 C2,7.5097781 7.50846812,2 14.3040909,2 Z M23.1314779,11 C18.2766315,11 13.184261,12.9910262 13.184261,18.4974693 C13.184261,21.1486143 14.0954894,24.009603 19.2979846,25.3163251 L19.2979846,25.3163251 L25.7571977,26.9346119 C27.7113724,27.4190309 28.2893474,28.5265793 28.2893474,29.5231594 C28.2893474,31.1784356 26.5511036,32.9432574 23.5834933,32.9432574 C17.7850288,32.9432574 18.5940499,28.3352302 15.4860845,28.3352302 C14.0904511,28.3352302 13,29.2827282 13,30.6598725 C13,33.3451616 16.3181382,37 23.5834933,37 C30.4932821,37 34,33.5464693 34,29.0714618 C34,26.1813083 32.5993282,23.1467539 27.3615643,21.9773194 L27.3615643,21.9773194 L22.5808541,20.9117398 C20.7627159,20.4963202 18.7106526,19.9123143 18.7106526,18.1923066 C18.7106526,16.4673196 20.1098848,15.240267 22.7622361,15.240267 C28.1050864,15.240267 27.6631478,18.9278269 30.3162188,18.9278269 C31.7132917,18.9278269 32.9145873,18.1574512 32.9145873,16.7418949 C32.9145873,13.4370332 27.6005278,11 23.1314779,11 Z" id="Combined-Shape" fill="#FFFFFF"></path>
    </g>
</svg>
