<?xml version="1.0" encoding="UTF-8" ?>
<svg
  id="a"
  xmlns="http://www.w3.org/2000/svg"
  viewBox="0 0 48 48"
  width="48px"
  height="48px"
><defs><style>.b{fill:evenodd;}</style></defs><path
    class="b"
    d="m40.09,2H7.81c-3.44,0-5.81,2.36-5.81,5.79v24.14c0,3.48,2.35,5.83,5.83,5.83,2.45,0,4.89.01,7.34,0,.47,0,.62.12.61.6-.03,2.08-.02,4.17,0,6.25,0,1.09,1.02,1.7,2.01,1.23.2-.1.39-.24.57-.38,3.25-2.45,6.5-4.9,9.74-7.37.31-.23.61-.34.99-.34,3.67.01,7.34,0,11.01,0s5.88-2.29,5.89-5.78c.03-8.07.03-16.14,0-24.2-.01-3.49-2.4-5.79-5.89-5.79ZM15.26,24.46c-.83.61-1.77.97-2.99.95h0c-1.03-.04-2.17-.37-3.27-.8-.72-.28-1.06-1.03-.87-1.67.21-.69.95-1.1,1.76-.92.71.16,1.4.38,2.1.55.48.12.96.05,1.38-.21.32-.19.35-.45,0-.66-.43-.26-.9-.43-1.38-.54-.93-.2-1.77-.61-2.58-1.08-1.75-1.03-1.61-3.89.2-4.95,1.33-.78,2.73-.92,4.2-.59.48.11.98.14,1.43.39.58.31.93.99.76,1.51-.21.66-.86,1.09-1.56.99-.64-.08-1.28-.19-1.92-.27-.45-.05-.88.04-1.28.23-.12.05-.26.11-.26.27s.12.23.25.28c.48.19.95.4,1.45.54.76.21,1.48.5,2.18.86,1.89.99,2.13,3.85.42,5.12Zm14.26-.71c0,.56-.09,1.11-.65,1.44-.99.59-2.11-.03-2.15-1.22-.04-1.09,0-2.18-.01-3.27,0-.18.06-.38-.1-.61-.45.61-.87,1.18-1.29,1.76-.81,1.09-1.87,1.09-2.68,0-.42-.56-.83-1.12-1.37-1.65,0,.83,0,1.66,0,2.49,0,.52.04,1.03-.06,1.54-.14.73-.62,1.15-1.34,1.16-.71.01-1.23-.41-1.37-1.13-.03-.17-.04-.34-.04-.51,0-2.56,0-5.12,0-7.69,0-.47.07-.91.42-1.27.63-.65,1.61-.58,2.19.19.87,1.14,1.71,2.3,2.57,3.44.1.14.21.26.36.44.92-1.24,1.82-2.44,2.72-3.65.14-.18.27-.37.45-.52.79-.68,2.03-.28,2.28.73.05.2.08.41.08.62,0,2.56.01,5.12,0,7.69Zm8.19,1.31c-.58.22-1.17.36-1.79.35h0c-1.23-.09-2.42-.3-3.54-.83-.72-.34-.99-.93-.77-1.64.22-.7.95-1.12,1.68-.93.64.16,1.24.48,1.91.57.5.07.99.07,1.46-.16.17-.08.35-.19.34-.42,0-.2-.18-.3-.34-.36-.61-.22-1.23-.4-1.84-.62-.52-.19-1.03-.39-1.54-.61-1.17-.5-1.72-1.48-1.73-2.68,0-1.17.52-2.09,1.61-2.71,1.67-.94,3.35-.74,5.04-.19.7.23,1.02.89.85,1.55-.2.74-.81,1.15-1.56,1.02-.7-.11-1.38-.34-2.09-.24-.38.06-.95.05-1,.48-.05.4.52.4.83.53.88.36,1.82.57,2.68.99,1.24.61,1.9,1.59,1.87,2.96-.03,1.41-.75,2.41-2.09,2.93Z"
  /><polygon
    class="b"
    points="23.99 18.88 23.99 18.88 23.99 18.89 23.99 18.88"
  /></svg>
