<?xml version="1.0" encoding="UTF-8" standalone="no"?>
<svg
   xmlns:dc="http://purl.org/dc/elements/1.1/"
   xmlns:cc="http://creativecommons.org/ns#"
   xmlns:rdf="http://www.w3.org/1999/02/22-rdf-syntax-ns#"
   xmlns:svg="http://www.w3.org/2000/svg"
   xmlns="http://www.w3.org/2000/svg"
   xmlns:xlink="http://www.w3.org/1999/xlink"
   xmlns:sodipodi="http://sodipodi.sourceforge.net/DTD/sodipodi-0.dtd"
   xmlns:inkscape="http://www.inkscape.org/namespaces/inkscape"
   inkscape:version="1.0 (4035a4fb49, 2020-05-01)"
   sodipodi:docname="spotify2.svg"
   id="svg86"
   version="1.1"
   viewBox="0 0 48 48"
   height="48px"
   width="48px">
  <metadata
     id="metadata90">
    <rdf:RDF>
      <cc:Work
         rdf:about="">
        <dc:format>image/svg+xml</dc:format>
        <dc:type
           rdf:resource="http://purl.org/dc/dcmitype/StillImage" />
        <dc:title>EC/Icons/Social/2XL_48x48px/Icon-Spotify/Simple</dc:title>
      </cc:Work>
    </rdf:RDF>
  </metadata>
  <sodipodi:namedview
     inkscape:current-layer="EC/Icons/Social/2XL_48x48px/Icon-Spotify/Simple"
     inkscape:window-maximized="1"
     inkscape:window-y="-8"
     inkscape:window-x="70"
     inkscape:cy="24"
     inkscape:cx="24"
     inkscape:zoom="18.541667"
     showgrid="false"
     id="namedview88"
     inkscape:window-height="1057"
     inkscape:window-width="1842"
     inkscape:pageshadow="2"
     inkscape:pageopacity="0"
     guidetolerance="10"
     gridtolerance="10"
     objecttolerance="10"
     borderopacity="1"
     bordercolor="#666666"
     pagecolor="#ffffff" />
  <title
     id="title74">EC/Icons/Social/2XL_48x48px/Icon-Spotify/Simple</title>
  <defs
     id="defs77">
    <polygon
       points="2 2 46 2 46 46 2 46"
       id="path-1" />
  </defs>
  <g
     stroke-width="1"
     stroke="none"
     id="EC/Icons/Social/2XL_48x48px/Icon-Spotify/Simple">
    <mask
       id="mask-2">
      <use
         id="use79"
         xlink:href="#path-1" />
    </mask>
    <g
       id="Clip-2" />
    <path
       d="M 24 2 C 11.850386 2 2 11.850272 2 24 C 2 36.151103 11.850386 46 24 46 C 36.150989 46 46 36.151103 46 24 C 46 11.850272 36.150989 2 24 2 z M 20.730469 14 C 27.064136 13.983083 33.952275 15.313462 39.001953 18.378906 C 39.969532 18.967472 40.289131 20.244523 39.714844 21.232422 C 39.140557 22.220321 37.888685 22.546158 36.923828 21.958984 C 29.905822 17.697104 18.328469 17.306003 11.628906 19.384766 C 10.552458 19.720095 9.4144994 19.096697 9.0878906 17.996094 C 8.7626427 16.895491 9.3675035 15.734328 10.445312 15.400391 C 13.329676 14.50502 16.930269 14.01015 20.730469 14 z M 21.119141 21.671875 C 26.520426 21.791857 31.935033 23.24544 36.136719 25.884766 C 36.934189 26.388455 37.185226 27.457511 36.695312 28.271484 C 36.202678 29.089632 35.156845 29.346048 34.359375 28.84375 C 28.507634 25.167652 19.584855 24.100276 12.662109 26.25 C 11.763935 26.52689 10.817096 26.009296 10.544922 25.09375 C 10.274109 24.175421 10.778968 23.206016 11.675781 22.927734 C 14.641287 22.00784 17.87837 21.599886 21.119141 21.671875 z M 21.253906 28.931641 C 25.867681 29.017761 29.993335 30.182793 33.580078 32.423828 C 34.221048 32.824553 34.419867 33.678631 34.029297 34.333984 C 33.638727 34.987946 32.803671 35.196209 32.164062 34.796875 C 27.051274 31.600812 20.615202 30.879129 13.035156 32.650391 C 12.304369 32.821534 11.577543 32.351263 11.410156 31.605469 C 11.242769 30.858283 11.699493 30.114502 12.431641 29.943359 C 15.542079 29.216523 18.485642 28.879968 21.253906 28.931641 z "
       mask="url(#mask-2)"
       id="Fill-1" />
  </g>
</svg>
