<?xml version="1.0" encoding="UTF-8" ?>
<svg
  xmlns="http://www.w3.org/2000/svg"
  xmlns:xlink="http://www.w3.org/1999/xlink"
  viewBox="0 0 48 48"
><defs><style
    >.cls-1{fill:none;}.cls-2{mask:url(#mask);}.cls-3{fill-rule:evenodd;}</style><mask
      id="mask"
      x="2"
      y="2"
      width="44"
      height="44"
      maskUnits="userSpaceOnUse"
    /></defs><g id="transparant_bg"><rect
      class="cls-1"
      y="0"
      width="48"
      height="48"
    /></g><g id="Layer_1"><g
      id="Component_type_Icons_Icon_type_Social_Size_2XL_48x48px_Subject_Icon-Spotify_Style_Simple_Webtools_False"
    ><g class="cls-2"><path
          id="Subtract"
          class="cls-3"
          d="M2,24C2,11.85,11.85,2,24,2s22,9.85,22,22-9.85,22-22,22S2,36.15,2,24Zm9.63-4.62c6.7-2.08,18.28-1.69,25.3,2.58,.96,.59,2.22,.26,2.79-.73,.57-.99,.26-2.27-.71-2.85-8.08-4.9-20.86-5.37-28.56-2.98-1.08,.33-1.68,1.5-1.36,2.6,.33,1.1,1.46,1.72,2.54,1.39Zm22.73,9.46c.8,.5,1.84,.25,2.34-.57,.49-.81,.24-1.88-.56-2.39-6.72-4.22-16.55-5.41-24.46-2.96-.9,.28-1.4,1.25-1.13,2.17,.27,.92,1.22,1.43,2.12,1.16,6.92-2.15,15.84-1.08,21.7,2.59Zm-.33,5.49c-.39,.65-1.23,.86-1.87,.46-5.11-3.2-11.55-3.92-19.13-2.15-.73,.17-1.46-.3-1.62-1.04-.17-.75,.29-1.49,1.02-1.66,8.29-1.94,15.41-1.1,21.15,2.48,.64,.4,.84,1.26,.45,1.91Z"
        /></g></g></g></svg>
