<?xml version="1.0" encoding="UTF-8" ?>
<svg
  xmlns="http://www.w3.org/2000/svg"
  xmlns:xlink="http://www.w3.org/1999/xlink"
  viewBox="0 0 48 48"
><defs><style
    >.cls-1{fill:none;}.cls-2{mask:url(#mask);}.cls-3{fill:#1ed760;}.cls-3,.cls-4{fill-rule:evenodd;}.cls-4{fill:#fff;}</style><mask
      id="mask"
      x="2"
      y="2"
      width="44"
      height="44"
      maskUnits="userSpaceOnUse"
    /></defs><g id="transparant_bg"><rect
      class="cls-1"
      y="0"
      width="48"
      height="48"
    /></g><g id="Layer_1"><g
      id="Component_type_Icons_Icon_type_Social_Size_2XL_48x48px_Subject_Icon-Spotify_Style_Colour_Webtools_False"
    ><g class="cls-2"><g><path
            id="Fill_1"
            class="cls-3"
            d="M24,2C11.85,2,2,11.85,2,24s9.85,22,22,22,22-9.85,22-22S36.15,2,24,2Z"
          /><path
            id="Combined_Shape"
            class="cls-4"
            d="M36.92,21.96c-7.02-4.26-18.6-4.65-25.3-2.58-1.08,.34-2.21-.29-2.54-1.39-.33-1.1,.28-2.26,1.36-2.6,7.69-2.39,20.48-1.93,28.56,2.98,.97,.59,1.29,1.87,.71,2.85-.57,.99-1.82,1.31-2.79,.73Zm-.23,6.31c-.49,.82-1.54,1.07-2.34,.57-5.85-3.68-14.77-4.74-21.7-2.59-.9,.28-1.85-.24-2.12-1.16-.27-.92,.24-1.89,1.13-2.17,7.91-2.45,17.74-1.27,24.46,2.96,.8,.5,1.05,1.57,.56,2.39Zm-4.53,6.53c.64,.4,1.48,.19,1.87-.46,.39-.66,.19-1.51-.45-1.91-5.74-3.59-12.85-4.42-21.15-2.48-.73,.17-1.19,.92-1.02,1.66,.17,.75,.89,1.21,1.62,1.04,7.58-1.77,14.02-1.05,19.13,2.15Z"
          /></g></g></g></g></svg>
