<?xml version="1.0" encoding="UTF-8"?>
<svg width="48px" height="48px" viewBox="0 0 48 48" version="1.1" xmlns="http://www.w3.org/2000/svg" xmlns:xlink="http://www.w3.org/1999/xlink">
    <title>EC/Icons/Social/2XL_48x48px/Icon-Spotify/Colour</title>
    <defs>
        <polygon id="path-1" points="2 2 46 2 46 46 2 46"></polygon>
    </defs>
    <g id="EC/Icons/Social/2XL_48x48px/Icon-Spotify/Colour" stroke="none" stroke-width="1" fill="none" fill-rule="evenodd">
        <mask id="mask-2" fill="white">
            <use xlink:href="#path-1"></use>
        </mask>
        <g id="Clip-2"></g>
        <path d="M23.9997937,1.99917498 C11.8501798,1.99917498 1.9995875,11.8498597 1.9995875,23.9995875 C1.9995875,36.1506903 11.8501798,46 23.9997937,46 C36.1507827,46 46,36.1506903 46,23.9995875 C46,11.8498597 36.1507827,1.99917498 23.9997937,1.99917498" id="Fill-1" fill="#1ED760" mask="url(#mask-2)"></path>
        <path d="M33.5794304,32.42439 C34.2204001,32.8251153 34.420448,33.6794394 34.0298783,34.3347923 C33.6393086,34.9887537 32.8037345,35.1960734 32.1641256,34.7967395 C27.0513371,31.6006768 20.615783,30.8785364 13.0357373,32.649798 C12.3049501,32.8209411 11.5782456,32.3520368 11.4108586,31.6062425 C11.2434715,30.8590567 11.699363,30.1146538 12.431511,29.9435107 C20.7260135,28.0052803 27.8406417,28.8387333 33.5794304,32.42439 Z M36.136505,25.8847755 C36.9339748,26.3884649 37.1843749,27.4570658 36.6944617,28.2710391 C36.2018268,29.0891866 35.1566786,29.3452055 34.3592088,28.8429075 C28.507468,25.1668093 19.5856045,24.0995999 12.6628589,26.2493242 C11.7646847,26.5262143 10.8161584,26.0086107 10.5439844,25.0930647 C10.2731713,24.1747358 10.7794149,23.2063163 11.6762282,22.9280349 C19.5842436,20.4749837 29.4138074,21.6618542 36.136505,25.8847755 Z M39.0024972,18.3781329 C39.9700757,18.9666982 40.2885193,20.2440101 39.7142322,21.2319093 C39.139945,22.2198085 37.8893055,22.5467893 36.9244487,21.9596154 C29.9064423,17.6977347 18.3281606,17.3053578 11.6285977,19.3841204 C10.5521496,19.7194495 9.41446231,19.0974904 9.08785351,17.9968872 C8.76260559,16.896284 9.36819273,15.7344589 10.4460017,15.4005211 C18.1376388,13.0128661 30.9230122,13.473422 39.0024972,18.3781329 Z" id="Combined-Shape" fill="#FFFFFF" fill-rule="nonzero" mask="url(#mask-2)"></path>
    </g>
</svg>