<svg width="48" height="48" viewBox="0 0 48 48" fill="none" xmlns="http://www.w3.org/2000/svg">
<rect width="48" height="48"  fill="none" fill-rule="evenodd"/>
<path fill-rule="evenodd" clip-rule="evenodd" d="M46 24C46 36.1503 36.1503 46 24 46C11.8497 46 2 36.1503 2 24C2 11.8497 11.8497 2 24 2C36.1503 2 46 11.8497 46 24ZM25.9721 17.7091L11.1565 23.7396C8.55077 24.7446 10.077 25.7125 10.077 25.7125C10.077 25.7125 12.2733 26.4942 14.209 27.0526C16.1447 27.611 17.1498 26.9781 17.1498 26.9781L26.121 20.9477C29.2851 18.7886 28.5034 20.5754 27.7589 21.3199C26.121 22.9951 23.3663 25.6008 21.0956 27.6854C20.0533 28.5788 20.5745 29.3605 21.0212 29.7328C22.3689 30.8967 25.6572 33.0436 26.9253 33.8715C27.1983 34.0497 27.3777 34.1668 27.4239 34.1998C27.7217 34.4604 29.5085 35.6143 30.588 35.3538C31.6675 35.0932 31.7792 33.6414 31.7792 33.6414L33.3799 23.6651C33.901 20.3149 34.3849 17.188 34.4594 16.2946C34.6455 14.1355 32.3748 15.0289 32.3748 15.0289C32.3748 15.0289 27.4239 17.0763 25.9721 17.7091Z" fill="white"/>
</svg>
