<svg
  width="48"
  height="48"
  viewBox="0 0 48 48"
  fill="none"
  xmlns="http://www.w3.org/2000/svg"
>
<path
    fill-rule="evenodd"
    clip-rule="evenodd"
    d="M40.02 3.27006C42.54 3.93006 44.49 6.12006 44.91 8.64006H44.88C44.91 8.85006 44.94 9.09006 44.97 9.33006V38.7901C44.94 39 44.91 39.24 44.88 39.48L44.88 39.4801C44.64 40.9201 43.98 42.1501 42.93 43.1701C41.61 44.4601 39.99 45.0901 38.13 45.0901H9.84H9.63C8.76 45.0901 7.92 44.9101 7.11 44.5501C4.59 43.4401 3 41.0401 3 38.2801V9.90006C3 9.39006 3.03 8.91006 3.15 8.43006C3.6 6.45006 4.71 4.95006 6.48 3.93006C7.44 3.39006 8.46 3.12006 9.57 3.06006H38.58H38.76C39.18 3.09006 39.6 3.15006 40.02 3.27006ZM17.67 34.8901C16.2 33.8701 15.15 32.5201 14.43 30.9001L14.46 31.0801C13.65 29.2801 13.29 27.4201 13.23 25.4701C13.17 23.8501 13.23 22.2601 13.5 20.6701C13.71 19.4401 14.01 18.2401 14.52 17.1001C15.63 14.5501 17.49 12.8101 20.16 11.9701C21.27 11.6101 22.44 11.4301 23.61 11.4301C25.02 11.4001 26.4 11.4901 27.78 11.8201C29.79 12.3301 31.5 13.3801 32.79 15.0301C33.69 16.1701 34.32 17.4901 34.8 18.8701C34.81 18.8901 34.8167 18.9101 34.8233 18.9301C34.8367 18.9701 34.85 19.0101 34.89 19.0501C35.325 18.9301 35.76 18.8176 36.195 18.7051C36.63 18.5926 37.065 18.4801 37.5 18.3601L37.5 18.36C37.35 17.88 37.2 17.4 37.02 16.9501C36.36 15.2701 35.46 13.7401 34.23 12.4201C32.64 10.7701 30.72 9.69006 28.53 9.12006C27.18 8.76006 25.8 8.61006 24.42 8.61006C22.38 8.58006 20.4 8.85006 18.48 9.60006C16.47 10.3801 14.82 11.6101 13.5 13.3201C12.36 14.8201 11.61 16.5301 11.13 18.3601C10.77 19.8301 10.56 21.3301 10.5 22.8601C10.41 24.8101 10.5 26.7601 10.89 28.6801C11.19 30.2101 11.67 31.6501 12.39 33.0301C13.35 34.8301 14.64 36.3301 16.38 37.4401C18.42 38.7601 20.7 39.3901 23.13 39.5401C24.42 39.6001 25.71 39.5401 26.97 39.3301C28.32 39.1201 29.58 38.7301 30.78 38.1301C32.28 37.3801 33.54 36.3901 34.5 35.0401C35.52 33.6301 36.06 32.0701 36.18 30.3601C36.27 29.2501 36.12 28.1701 35.73 27.1201C35.13 25.5601 34.05 24.3901 32.64 23.4901C32.16 23.1901 31.65 22.9201 31.14 22.7101C31.11 22.3801 31.08 22.0501 31.02 21.7201C30.87 20.7301 30.63 19.8001 30.15 18.9301C29.22 17.2501 27.81 16.2301 25.92 15.8701C24.72 15.6601 23.52 15.7201 22.35 15.9901C20.7 16.3501 19.44 17.2801 18.48 18.6601C19.23 19.2001 19.98 19.7101 20.73 20.2201C20.775 20.1751 20.82 20.1226 20.865 20.0701C20.91 20.0176 20.955 19.9651 21 19.9201C21.54 19.2901 22.2 18.8401 23.01 18.6901C23.67 18.5701 24.33 18.5101 24.99 18.5701C26.49 18.6901 27.75 19.7401 28.11 21.2101C28.17 21.4201 28.2 21.6301 28.17 21.8701C28.1048 21.8607 28.0366 21.8485 27.9674 21.8361C27.8138 21.8086 27.6548 21.7801 27.51 21.7801C26.73 21.6901 25.98 21.6601 25.2 21.6601C23.73 21.6601 22.29 21.9001 20.97 22.5901C20.22 22.9801 19.59 23.4601 19.08 24.1501C18.48 24.9601 18.18 25.8901 18.15 26.9101C18.09 27.9001 18.33 28.8301 18.9 29.6401C19.83 30.9901 21.18 31.7401 22.8 32.0401C23.85 32.2201 24.9 32.1601 25.92 31.9201C27.48 31.5601 28.71 30.7501 29.61 29.4301C30.21 28.5301 30.6 27.5701 30.84 26.5201L31.02 25.7101C31.11 25.7401 31.2 25.7701 31.26 25.8301C32.22 26.4901 32.91 27.3301 33.24 28.4401C33.66 29.7901 33.51 31.0801 32.91 32.3401C32.28 33.6301 31.29 34.5601 30.06 35.2801C28.68 36.0601 27.21 36.4501 25.65 36.6301C24.3 36.7801 22.95 36.7501 21.63 36.5101C20.22 36.2401 18.87 35.7301 17.67 34.8901ZM22.4398 24.8399C23.0098 24.5999 23.6098 24.4799 24.2098 24.4199H24.1798C25.1998 24.3299 26.2498 24.3299 27.2698 24.4799C27.5998 24.5099 27.9298 24.5699 28.2598 24.6599C28.1698 25.7099 28.0198 26.7299 27.4798 27.6599C27.0298 28.4999 26.3398 29.0099 25.4098 29.2199C24.5698 29.4299 23.6998 29.4599 22.8598 29.2199C22.4698 29.0999 22.0798 28.9199 21.7198 28.6799C21.0598 28.1999 20.8198 27.5399 20.9098 26.7299C21.0298 25.7999 21.5998 25.1999 22.4398 24.8399Z"
    fill="#26324B"
  />
</svg>
