<?xml version="1.0" encoding="UTF-8" ?>
<svg
  width="48"
  height="48"
  viewBox="0 0 48 48"
  fill="none"
  xmlns="http://www.w3.org/2000/svg"
>
<path
    d="M22.7006 23.3492C20.3965 24.2146 18.0978 25.0962 15.787 25.9428C12.6722 27.0845 9.53456 28.1642 6.28514 28.8692C5.71821 28.9919 5.13243 29.0553 4.55203 29.0849C3.69557 29.1294 3.05054 28.6482 2.70041 27.7895C1.4292 24.6662 1.93553 21.7694 3.83697 19.0653C5.58355 16.5823 8.04115 14.9957 10.7169 13.7111C12.7288 12.7445 14.8551 12.0867 17.0366 11.6608C20.3062 11.0218 23.6082 10.8547 26.9397 11.1229C29.5482 11.3332 32.096 11.7996 34.5697 12.6367C37.9053 13.765 40.9608 15.3785 43.3565 18.0422C45.2108 20.1032 46.2383 22.5013 45.9528 25.3025C45.7225 27.5657 44.6493 29.4785 43.0872 31.115C40.7992 33.5117 37.9632 35.0134 34.8808 36.0972C32.0071 37.1082 29.0513 37.6231 25.9984 37.7741C22.5201 37.9466 19.0956 37.7202 15.7264 36.8831C13.53 36.3371 11.3579 35.6712 9.44164 34.3893C9.40393 34.365 9.36354 34.3448 9.32718 34.3192C8.07347 33.4686 8.01287 32.8108 9.11306 31.7647C10.8529 30.1108 12.9227 28.9286 14.9601 27.7046C17.345 26.2717 19.7986 24.9614 22.2777 23.6997C22.4353 23.6202 22.5888 23.5312 22.7436 23.4463L22.7006 23.3492Z"
    fill="white"
  />
</svg>
