<?xml version="1.0" encoding="UTF-8" ?>
<svg
  width="48"
  height="48"
  viewBox="0 0 48 48"
  fill="none"
  xmlns="http://www.w3.org/2000/svg"
>
<path
    d="M5.23581 30.4441C5.23581 35.5545 11.9078 39.6957 20.1339 39.6957C28.36 39.6957 35.032 35.5545 35.032 30.4441C35.032 25.3336 28.36 21.1924 20.1339 21.1924C11.9078 21.1924 5.23581 25.3336 5.23581 30.4441Z"
    fill="white"
  />
<path
    d="M20.4858 38.9439C13.2002 39.6645 6.91135 36.3762 6.438 31.6118C5.96464 26.841 11.4896 22.3963 18.7677 21.6757C26.0533 20.9551 32.3422 24.2434 32.8093 29.0079C33.2889 33.7786 27.7639 38.2296 20.4858 38.9439ZM35.0495 23.1106C34.4309 22.9233 34.0052 22.8022 34.327 21.9904C35.0308 20.2282 35.1046 18.7084 34.3395 17.6193C32.9132 15.5849 29.0037 15.6936 24.5231 17.5644C24.5231 17.5644 23.1143 18.1763 23.4787 17.0673C24.1649 14.8568 24.061 13.011 22.9928 11.9394C20.5647 9.51161 14.0993 12.0306 8.55556 17.5581C4.41059 21.6944 2 26.0842 2 29.8808C2 37.1343 11.3306 41.5478 20.4558 41.5478C32.4211 41.5478 40.3804 34.6153 40.3804 29.1115C40.3867 25.782 37.5754 23.8924 35.0495 23.1119"
    fill="#E6162D"
  />
<path
    d="M42.9977 9.83379C40.1074 6.63666 35.846 5.42025 31.9127 6.25575C31.0023 6.44933 30.425 7.34603 30.6191 8.24772C30.8132 9.15565 31.7061 9.73138 32.6164 9.53781C35.4152 8.94459 38.4445 9.81006 40.4969 12.0805C42.5493 14.351 43.1079 17.4445 42.2275 20.157C41.942 21.0412 42.4279 21.9854 43.3145 22.2701C44.2011 22.5549 45.1478 22.0703 45.4333 21.1923V21.1861C46.6718 17.3783 45.8891 13.0247 42.9989 9.83379"
    fill="#FF9933"
  />
<path
    d="M38.5596 13.8302C37.1509 12.2741 35.0746 11.6809 33.1624 12.093C32.3798 12.2566 31.8814 13.0309 32.0454 13.8127C32.2157 14.5933 32.9858 15.0903 33.7635 14.9205C34.6989 14.7207 35.7183 15.0117 36.4045 15.7685C37.0907 16.5315 37.2786 17.5669 36.9818 18.4748C36.7389 19.2316 37.1521 20.0484 37.9172 20.2969C38.6824 20.5392 39.4951 20.1271 39.7443 19.364C40.3454 17.5057 39.9684 15.3863 38.5609 13.8302"
    fill="#FF9933"
  />
<path
    d="M20.8865 30.3104C20.6311 30.7463 20.0676 30.9524 19.6293 30.77C19.1922 30.5939 19.0582 30.1044 19.3074 29.6797C19.5629 29.2564 20.1026 29.0503 20.5334 29.2202C20.9704 29.3775 21.1282 29.8683 20.8853 30.3104M18.5598 33.2778C17.8561 34.398 16.3433 34.8888 15.2088 34.373C14.0918 33.8647 13.7574 32.5622 14.4625 31.4669C15.1612 30.3766 16.6176 29.8933 17.7471 30.3654C18.8879 30.8562 19.2523 32.145 18.5611 33.2778M21.2084 25.3461C17.7421 24.4444 13.8263 26.1691 12.3198 29.2152C10.7833 32.3211 12.271 35.7718 15.7686 36.8983C19.3988 38.0672 23.6728 36.2751 25.1605 32.9268C26.6294 29.6448 24.7961 26.2728 21.2084 25.3461Z"
    fill="black"
  />
</svg>
