<?xml version="1.0" encoding="UTF-8" ?>
<svg
  width="48"
  height="48"
  viewBox="0 0 48 48"
  fill="none"
  xmlns="http://www.w3.org/2000/svg"
>
<path
    d="M20.49 38.94C13.2 39.66 6.92 36.37 6.44 31.61C5.97 26.84 11.49 22.39 18.77 21.67C26.06 20.95 32.34 24.24 32.81 29C33.29 33.77 27.76 38.22 20.49 38.94ZM35.05 23.11C34.43 22.92 34.01 22.8 34.33 21.99C35.03 20.23 35.11 18.71 34.34 17.62C32.91 15.59 29 15.69 24.52 17.57C24.52 17.57 23.11 18.18 23.48 17.07C24.17 14.86 24.06 13.01 22.99 11.94C20.56 9.51003 14.1 12.03 8.55 17.56C4.41 21.69 2 26.08 2 29.88C2 37.13 11.33 41.55 20.46 41.55C32.43 41.55 40.38 34.62 40.38 29.11C40.38 25.78 37.57 23.89 35.05 23.11Z"
    fill="white"
  />
<path
    d="M43 9.83003C40.11 6.63003 35.85 5.42003 31.92 6.25003C31.01 6.44003 30.43 7.34003 30.63 8.24003C30.82 9.15003 31.72 9.72003 32.63 9.53003C35.43 8.94003 38.46 9.80003 40.51 12.07C42.56 14.34 43.12 17.43 42.24 20.15C41.95 21.03 42.44 21.98 43.33 22.26C44.22 22.54 45.16 22.06 45.45 21.18C46.69 17.37 45.91 13.01 43.02 9.82003"
    fill="white"
  />
<path
    d="M38.56 13.83C37.15 12.27 35.07 11.68 33.16 12.09C32.38 12.25 31.88 13.03 32.04 13.81C32.21 14.59 32.98 15.09 33.76 14.92C34.7 14.72 35.71 15.01 36.4 15.77C37.09 16.53 37.27 17.57 36.98 18.48C36.74 19.24 37.15 20.05 37.92 20.3C38.69 20.54 39.5 20.13 39.75 19.37C40.35 17.51 39.97 15.39 38.57 13.84"
    fill="white"
  />
<path
    d="M20.89 30.31C20.63 30.75 20.07 30.95 19.63 30.77C19.19 30.59 19.06 30.1 19.31 29.68C19.57 29.26 20.11 29.05 20.54 29.22C20.98 29.38 21.13 29.87 20.89 30.31ZM18.56 33.28C17.86 34.4 16.34 34.89 15.21 34.38C14.09 33.87 13.76 32.57 14.46 31.47C15.16 30.38 16.62 29.9 17.74 30.37C18.88 30.86 19.25 32.15 18.55 33.28M21.2 25.35C17.73 24.45 13.82 26.17 12.31 29.22C10.77 32.33 12.26 35.78 15.76 36.9C19.39 38.07 23.66 36.28 25.15 32.93C26.62 29.65 24.79 26.28 21.2 25.35Z"
    fill="white"
  />
</svg>
