<?xml version="1.0" encoding="UTF-8" ?>
<svg
  width="48"
  height="48"
  viewBox="0 0 48 48"
  fill="none"
  xmlns="http://www.w3.org/2000/svg"
>
<path
    fill-rule="evenodd"
    clip-rule="evenodd"
    d="M39.3068 8.39432C35.2019 4.27213 29.7433 2.00243 23.9268 2C11.9408 2 2.18681 11.7794 2.18195 23.8017C2.17953 27.6442 3.18149 31.3954 5.08474 34.7014L2 46L13.5262 42.9689C16.702 44.707 20.278 45.6205 23.9171 45.6217H23.9268C35.9103 45.6217 45.6655 35.8411 45.6692 23.82C45.6716 17.9937 43.4117 12.5165 39.3068 8.39553V8.39432ZM23.9268 41.9386H23.9195C20.6771 41.9386 17.4965 41.0641 14.7211 39.4123L14.0612 39.0194L7.22089 40.8184L9.04651 34.1309L8.61709 33.4449C6.80846 30.5597 5.85259 27.2245 5.8538 23.8005C5.85744 13.8095 13.9654 5.68065 23.9341 5.68065C28.7607 5.68309 33.2987 7.56964 36.7109 10.9961C40.1232 14.4213 42.001 18.9753 41.9985 23.8163C41.9937 33.8086 33.887 41.9374 23.9268 41.9374V41.9386ZM33.8397 28.3679C33.2962 28.0954 30.6251 26.7781 30.1266 26.5957C29.628 26.4132 29.2665 26.3232 28.9051 26.8681C28.5436 27.4143 27.5016 28.6416 27.185 29.004C26.8684 29.3677 26.5506 29.4127 26.0083 29.1403C25.4649 28.8678 23.7145 28.2925 21.639 26.4363C20.0245 24.9913 18.9339 23.2082 18.6161 22.662C18.2995 22.1159 18.5822 21.8215 18.8539 21.5503C19.0977 21.3058 19.3973 20.9141 19.669 20.5955C19.9408 20.278 20.0305 20.0493 20.2125 19.6868C20.3944 19.3232 20.3034 19.0057 20.1676 18.732C20.0317 18.4596 18.9461 15.7775 18.4924 14.6877C18.0508 13.6258 17.6032 13.7693 17.2709 13.7523C16.9543 13.7365 16.5916 13.7341 16.2289 13.7341C15.8662 13.7341 15.2779 13.8703 14.7793 14.4152C14.2807 14.9614 12.8773 16.2787 12.8773 18.9595C12.8773 21.6403 14.8242 24.2311 15.0959 24.596C15.3676 24.9597 18.9279 30.4624 24.3768 32.8221C25.6723 33.3841 26.6852 33.7186 27.4749 33.9704C28.7765 34.3851 29.9604 34.3268 30.8969 34.1869C31.9401 34.03 34.1114 32.8684 34.5639 31.5961C35.0163 30.3238 35.0163 29.2327 34.8805 29.0053C34.7446 28.7778 34.3819 28.6416 33.8385 28.3691V28.3667L33.8397 28.3679Z"
    fill="white"
  />
</svg>
