<?xml version="1.0" encoding="UTF-8" ?>
<svg id="a" xmlns="http://www.w3.org/2000/svg" viewBox="0 0 48 48"><defs><style
    >.b{fill:none;}</style></defs><polygon
    class="b"
    points="33.84 28.37 33.84 28.37 33.84 28.37 33.84 28.37"
  /><path
    class="b"
    d="m39.31,8.4h0c-4.1-4.12-9.56-6.39-15.38-6.4C11.94,2,2.19,11.78,2.18,23.8c0,3.84,1,7.59,2.9,10.9l-3.08,11.3,11.53-3.03c3.18,1.74,6.75,2.65,10.39,2.65h0c11.98,0,21.74-9.78,21.74-21.8,0-5.83-2.26-11.3-6.36-15.42Zm-15.38,33.54h0s0,0,0,0c-3.24,0-6.42-.87-9.2-2.53l-.66-.39-6.84,1.8,1.83-6.69-.43-.69c-1.81-2.89-2.76-6.22-2.76-9.64,0-9.99,8.11-18.12,18.08-18.12,4.83,0,9.36,1.89,12.78,5.32,3.41,3.43,5.29,7.98,5.29,12.82,0,9.99-8.11,18.12-18.07,18.12Z"
  /><path
    class="b"
    d="m33.84,28.37h0c-.55-.28-3.21-1.59-3.71-1.77-.5-.18-.86-.27-1.22.27-.36.55-1.4,1.77-1.72,2.14-.32.36-.63.41-1.18.14-.54-.27-2.29-.85-4.37-2.7-1.61-1.45-2.71-3.23-3.02-3.77-.32-.55-.03-.84.24-1.11.24-.24.54-.64.82-.95.27-.32.36-.55.54-.91.18-.36.09-.68-.04-.95-.14-.27-1.22-2.95-1.68-4.04-.44-1.06-.89-.92-1.22-.94-.32-.02-.68-.02-1.04-.02s-.95.14-1.45.68c-.5.55-1.9,1.86-1.9,4.54s1.95,5.27,2.22,5.64c.27.36,3.83,5.87,9.28,8.23,1.3.56,2.31.9,3.1,1.15,1.3.41,2.49.36,3.42.22,1.04-.16,3.21-1.32,3.67-2.59.45-1.27.45-2.36.32-2.59-.14-.23-.5-.36-1.04-.64Z"
  /></svg>
