<?xml version="1.0" encoding="UTF-8" ?>
<svg
  width="48"
  height="48"
  viewBox="0 0 48 48"
  fill="none"
  xmlns="http://www.w3.org/2000/svg"
>
<path
    d="M32.1201 36.46C31.6001 36.46 31.2401 36.81 31.2401 37.32C31.2401 37.83 31.6101 38.21 32.1101 38.21C32.6401 38.21 32.9901 37.86 32.9901 37.3C32.9901 36.73 32.7001 36.46 32.1201 36.46Z"
    fill="white"
  />
<path
    d="M17.1501 36.46C16.5801 36.46 16.3001 36.74 16.3001 37.31C16.3001 37.81 16.7401 38.29 17.2201 38.28C17.6301 38.28 18.1401 37.72 18.1301 37.27C18.1301 36.78 17.7401 36.46 17.1601 36.45L17.1501 36.46Z"
    fill="white"
  />
<path
    d="M13.7101 15.3C16.7401 16.79 19.7801 18.26 22.7801 19.81C23.6201 20.25 24.2501 20.28 25.1201 19.83C26.6201 19.06 28.1201 18.28 29.6501 17.56C31.2701 16.8 32.8401 15.96 34.4501 15.18C34.6401 15.09 34.7501 14.95 34.7401 14.72C34.7201 14.25 34.7101 13.77 34.7401 13.3C34.7701 12.91 34.6401 12.82 34.2601 12.82C30.8401 12.83 27.4201 12.82 24.0001 12.82H17.5401C16.2401 12.82 14.9501 12.82 13.6501 12.82C13.3501 12.82 13.2501 12.91 13.2601 13.21C13.2801 13.67 13.3001 14.13 13.2601 14.58C13.2301 14.96 13.3801 15.13 13.7101 15.29V15.3Z"
    fill="white"
  />
<path
    d="M45.9901 2.18997C46.0201 2.02997 45.9601 1.98997 45.8001 1.99997C45.4001 2.01997 45.0101 1.99997 44.6101 1.99997C30.5401 1.99997 16.4701 1.99997 2.40008 1.99997C2.07008 1.99997 2.00008 2.06997 2.00008 2.39997C2.01008 16.38 2.00008 30.36 2.00008 44.34C2.00008 44.75 2.03008 45.17 2.00008 45.58C1.97008 45.93 2.08008 46 2.42008 46C16.8001 45.99 31.1901 45.99 45.5701 46C45.9101 46 45.9901 45.92 45.9901 45.58C45.9801 31.19 45.9901 16.81 45.9901 2.41997C45.9901 2.33997 45.9801 2.25997 45.9901 2.18997ZM11.2601 25.76C11.2601 21.34 11.2701 16.92 11.2801 12.51C11.2801 12.34 11.2701 12.17 11.3501 12.02C11.6101 11.18 12.2201 10.92 13.0501 10.92C16.1901 10.94 19.3301 10.92 22.4601 10.92C22.6401 10.92 22.8201 10.9 23.0101 10.89C26.5201 10.89 30.0301 10.9 33.5401 10.91C34.0901 10.91 34.6401 10.9 35.1901 10.91C36.0901 10.94 36.6501 11.48 36.6501 12.38C36.6501 16.88 36.6701 21.38 36.6501 25.88C36.6501 26.77 36.4201 27.36 35.1401 27.36C27.7901 27.35 20.4301 27.36 13.0801 27.36C12.9101 27.36 12.7401 27.36 12.5801 27.37C11.9201 27.29 11.5801 26.86 11.3801 26.28C11.2601 26.12 11.2901 25.93 11.2901 25.75L11.2601 25.76ZM12.7201 40.78C12.6001 41.08 12.4501 41.28 12.0601 41.23C11.6701 41.18 11.2701 41.22 10.8401 41.22C11.0101 40.8 11.1201 40.4 11.3301 40.05C11.5201 39.73 11.5101 39.47 11.3701 39.14C10.9301 38.17 10.5201 37.19 10.0901 36.22C10.0501 36.15 10.0201 36.07 9.98008 35.99C9.98008 35.96 9.97008 35.93 9.96008 35.9C9.89008 35.74 9.83008 35.56 9.75008 35.41C9.61008 35.15 9.70008 35.05 9.97008 35.07C10.2701 35.07 10.5801 35.11 10.8801 35.07C11.2701 35.02 11.4101 35.23 11.5201 35.53C11.7301 36.11 11.9501 36.68 12.1501 37.26C12.1901 37.38 12.2301 37.52 12.3601 37.51C12.4201 37.51 12.4801 37.36 12.5201 37.27C12.7701 36.64 13.0301 36.02 13.2401 35.37C13.3201 35.13 13.4301 35.06 13.6501 35.07C14.0901 35.08 14.5301 35.07 15.0001 35.07C14.6501 36.27 14.0801 37.32 13.6301 38.42C13.3101 39.2 13.0101 39.98 12.7001 40.76L12.7201 40.78ZM19.5901 39.47C19.1801 39.47 18.7701 39.48 18.3601 39.49C18.3401 39.49 18.3201 39.49 18.3201 39.49C17.9401 39.11 17.6301 39.49 17.2801 39.57C16.4001 39.76 15.6201 39.4 15.1201 38.6C14.3701 37.42 14.8001 35.7 16.0301 35.15C16.5901 34.89 17.1701 34.92 17.7301 35.18C17.8901 35.26 18.0001 35.38 18.1101 35.12C18.1401 35.03 19.4601 35.02 19.5501 35.09C19.6801 35.19 19.6301 35.34 19.6301 35.47C19.6301 36.78 19.6401 38.09 19.6501 39.4C19.6801 39.44 19.6601 39.46 19.6201 39.48L19.5901 39.47ZM24.4301 39.25C24.4301 39.47 24.3501 39.55 24.1401 39.55C23.8001 39.55 23.4701 39.54 23.1301 39.55C22.8801 39.56 22.8201 39.44 22.8201 39.22C22.8201 38.53 22.8301 37.85 22.8201 37.16C22.8101 36.63 22.6501 36.45 22.2601 36.46C21.8801 36.46 21.7201 36.67 21.7201 37.19C21.7201 37.83 21.6901 38.47 21.7201 39.11C21.7401 39.49 21.6001 39.6 21.2501 39.55C20.8801 39.5 20.4901 39.62 20.1201 39.48C20.0301 39.33 20.0501 39.15 20.0501 38.99C20.0501 37.19 20.0501 35.4 20.0501 33.6C20.0501 33.42 20.0001 33.23 20.1701 33.09C20.3101 33.09 20.4401 33.09 20.5801 33.09C21.3301 33.09 21.7001 33.47 21.7001 34.23V35.37C22.0901 35.14 22.4401 35 22.8601 34.98C23.7701 34.94 24.2301 35.7 24.3401 36.29C24.5201 37.27 24.3901 38.26 24.4201 39.25H24.4301ZM29.4201 37.45C29.3801 38.34 28.3901 39.73 27.0201 39.57C25.7401 39.71 24.7201 38.49 24.7301 37.58C24.7501 35.98 25.5301 35.04 26.8001 34.98C28.5201 34.89 29.4801 36.02 29.4201 37.45ZM32.0701 39.57C30.7701 39.57 29.6301 38.49 29.7101 37.27C29.8101 35.77 30.7501 34.96 32.1801 34.92C33.6101 34.88 34.4401 36.05 34.4701 37.41C34.4901 38.44 33.2501 39.78 32.0701 39.58V39.57ZM35.8001 39.66C35.2601 39.66 34.7201 39.24 34.7301 38.59C34.7301 37.99 35.1301 37.57 35.7301 37.56C36.4501 37.62 36.8401 37.9 36.8301 38.56C36.8301 39.1 36.3201 39.66 35.8001 39.66ZM37.2801 36.91C37.2401 37.01 37.2001 37.15 37.0501 37.16C36.4801 37.16 35.9101 37.16 35.3201 37.16C35.8401 35.87 36.3401 34.65 36.8301 33.42C36.9301 33.16 37.0601 33.06 37.3601 33.08C37.8301 33.11 38.3001 33.08 38.8301 33.08C38.3001 34.39 37.8001 35.65 37.2901 36.91H37.2801Z"
    fill="white"
  />
<path
    d="M27.1001 36.46C26.5801 36.46 26.1901 36.84 26.2001 37.35C26.2101 37.82 26.6001 38.21 27.0601 38.21C27.6201 38.21 27.9401 37.87 27.9501 37.26C27.9501 36.72 27.6801 36.46 27.1001 36.46Z"
    fill="white"
  />
<path
    d="M20.1601 34.8C20.1601 34.23 20.1701 33.66 20.1801 33.09C20.0101 33.23 20.0601 33.43 20.0601 33.6C20.0601 35.4 20.0601 37.19 20.0601 38.99C20.0601 39.15 20.0301 39.33 20.1301 39.48C20.1301 38.49 20.1301 37.5 20.1401 36.51C20.1401 35.94 20.1401 35.37 20.1501 34.8H20.1601Z"
    fill="white"
  />
<path
    d="M19.5901 39.47C19.5901 39.47 19.6401 39.43 19.6201 39.39C19.6001 39.41 19.5901 39.44 19.5901 39.47Z"
    fill="white"
  />
<path
    d="M11.3601 16.31C11.3601 14.88 11.3501 13.44 11.3401 12.01C11.2601 12.17 11.2701 12.34 11.2701 12.5C11.2701 16.92 11.2601 21.34 11.2501 25.75C11.2501 25.93 11.2201 26.12 11.3401 26.28C11.3401 22.96 11.3401 19.63 11.3401 16.3L11.3601 16.31Z"
    fill="white"
  />
<path
    d="M9.99008 36H9.98008C10.0101 36.07 10.0501 36.15 10.0901 36.23V36.21C10.0901 36.12 10.0701 36.04 9.99008 35.98V36Z"
    fill="white"
  />
</svg>
