<?xml version="1.0" encoding="UTF-8" ?>
<svg
  width="48"
  height="48"
  viewBox="0 0 48 48"
  fill="none"
  xmlns="http://www.w3.org/2000/svg"
>
<path
    d="M32.1163 36.4573C31.6002 36.4573 31.2372 36.8111 31.2344 37.318C31.2326 37.8268 31.6029 38.2035 32.108 38.2072C32.6424 38.2109 32.9908 37.8524 32.988 37.2997C32.9853 36.7323 32.702 36.4582 32.1163 36.4582V36.4573Z"
    fill="#6619DF"
  />
<path
    d="M17.1527 36.461C16.5816 36.4591 16.3002 36.7405 16.2984 37.3125C16.2965 37.8149 16.742 38.2879 17.2141 38.2842C17.6284 38.2814 18.1344 37.7232 18.1262 37.2777C18.117 36.7836 17.7339 36.4628 17.1527 36.461Z"
    fill="#6619DF"
  />
<path
    d="M13.7143 15.298C16.7448 16.7848 19.7854 18.2542 22.7801 19.8107C23.6243 20.2498 24.2477 20.281 25.1203 19.8291C26.6154 19.0545 28.1178 18.2799 29.6468 17.564C31.2629 16.8077 32.8386 15.9598 34.4464 15.1807C34.6398 15.0872 34.7416 14.9552 34.7333 14.7187C34.715 14.2466 34.7022 13.7708 34.7361 13.2997C34.7636 12.9147 34.6343 12.8212 34.2558 12.823C30.8375 12.8377 27.4184 12.8322 24.0002 12.8322C21.8488 12.8322 19.6964 12.8322 17.545 12.8322C16.248 12.8322 14.9509 12.8404 13.6538 12.8258C13.3531 12.8221 13.2532 12.9129 13.2688 13.2144C13.2926 13.6709 13.3055 14.1329 13.2651 14.5867C13.2321 14.968 13.3889 15.1376 13.7143 15.2971V15.298Z"
    fill="#6619DF"
  />
<path
    d="M45.9925 2.1925C46.0218 2.03208 45.9668 1.99725 45.8064 2.00367C45.4104 2.01925 45.0125 2.00825 44.6156 2.00825C30.5449 2.00917 16.4732 2.01008 2.40247 2C2.07155 2 2.00372 2.06783 2.00372 2.39783C2.0138 16.3787 2.01289 30.3606 2.01289 44.3415C2.01289 44.754 2.03947 45.1683 2.00464 45.5781C1.9753 45.9246 2.08163 45.9997 2.42538 45.9997C16.8096 45.9896 31.1939 45.9896 45.5781 45.9997C45.9219 45.9997 45.9989 45.9227 45.9989 45.579C45.9888 31.1929 45.9906 16.8068 45.9906 2.42166C45.9906 2.34558 45.9796 2.26583 45.9925 2.1925ZM11.2602 25.7589C11.2638 21.3415 11.2702 16.9232 11.2757 12.5059C11.2757 12.339 11.262 12.1694 11.3408 12.0127C11.6002 11.1739 12.2071 10.9127 13.0367 10.9173C16.1753 10.9347 19.313 10.9264 22.4517 10.9255C22.6332 10.9255 22.8156 10.909 22.998 10.8999C26.507 10.9063 30.016 10.9136 33.5249 10.92C34.074 10.9209 34.624 10.9072 35.1731 10.9237C36.0751 10.9503 36.6315 11.4929 36.6333 12.3922C36.6425 16.8939 36.6526 21.3956 36.6242 25.8964C36.6187 26.7874 36.3987 27.3805 35.1144 27.3778C27.7601 27.3631 20.4057 27.3713 13.0513 27.3723C12.8836 27.3723 12.7158 27.3787 12.5481 27.3823C11.889 27.3017 11.5452 26.8763 11.3509 26.2879C11.2272 26.1284 11.2602 25.9395 11.2602 25.7589ZM12.7232 40.7803C12.6049 41.0791 12.4555 41.2817 12.0641 41.2313C11.6754 41.1808 11.2757 41.2203 10.8412 41.2203C11.0127 40.7977 11.1254 40.398 11.3289 40.0506C11.5159 39.7307 11.5132 39.4658 11.3674 39.1431C10.9311 38.1751 10.5149 37.198 10.0914 36.2245C10.0914 36.2281 10.0914 36.2327 10.0914 36.2364C10.0557 36.1557 10.0208 36.0732 9.986 35.9916C9.98967 35.9935 9.99242 35.9962 9.99517 35.998C9.98875 35.9687 9.98234 35.9403 9.97592 35.911C9.90717 35.7469 9.85034 35.5755 9.76601 35.4187C9.62576 35.1575 9.71284 35.0603 9.98692 35.0741C10.2913 35.0786 10.6011 35.119 10.8999 35.0777C11.2913 35.0236 11.4334 35.24 11.5434 35.5425C11.7533 36.1209 11.9742 36.6947 12.1759 37.275C12.2181 37.3969 12.252 37.5325 12.3858 37.5243C12.4445 37.5206 12.5077 37.373 12.5444 37.2805C12.791 36.6507 13.0532 36.0255 13.2631 35.383C13.3428 35.1391 13.4501 35.0768 13.6774 35.0832C14.1146 35.0942 14.5528 35.0869 15.0267 35.0869C14.6756 36.2831 14.1018 37.3355 13.6526 38.4373C13.3364 39.2146 13.033 39.9974 12.725 40.7784L12.7232 40.7803ZM19.5889 39.4713C19.1774 39.4768 18.7667 39.4832 18.3551 39.4887C18.3395 39.4887 18.3175 39.4951 18.3102 39.4878C17.9289 39.1046 17.6172 39.4896 17.267 39.5648C16.3907 39.7518 15.6106 39.3915 15.1028 38.594C14.3521 37.4143 14.7829 35.6974 16.0085 35.141C16.5704 34.8852 17.1525 34.9063 17.7089 35.1758C17.8702 35.2537 17.9811 35.3765 18.0856 35.1125C18.1205 35.0255 19.4368 35.0163 19.522 35.0823C19.6559 35.184 19.6027 35.3344 19.6036 35.4636C19.6119 36.7745 19.6146 38.0853 19.6192 39.3952C19.6449 39.4346 19.6339 39.4594 19.5889 39.4713ZM24.4317 39.2513C24.439 39.4667 24.3538 39.5529 24.1374 39.5464C23.8019 39.5364 23.4664 39.5327 23.1309 39.5483C22.8788 39.5593 22.8229 39.4392 22.8257 39.2164C22.833 38.5299 22.8358 37.8433 22.8229 37.1576C22.8128 36.6296 22.6561 36.449 22.2601 36.4564C21.8815 36.4637 21.7229 36.6672 21.7165 37.1815C21.7092 37.8222 21.6899 38.4639 21.7211 39.1028C21.7394 39.4814 21.601 39.5904 21.2527 39.5474C20.8796 39.5006 20.4955 39.6207 20.127 39.4795C20.0326 39.3255 20.0601 39.1541 20.0601 38.9891C20.0564 37.1915 20.0546 35.3949 20.0564 33.5973C20.0564 33.4213 20.0042 33.2261 20.1738 33.0858C20.3113 33.0858 20.4479 33.0858 20.5854 33.0867C21.3327 33.0867 21.7064 33.4684 21.7064 34.2316C21.7064 34.5937 21.7064 34.9549 21.7064 35.3683C22.0942 35.14 22.4471 34.9989 22.8678 34.9805C23.7808 34.9411 24.2401 35.701 24.3492 36.2895C24.5316 37.2667 24.3987 38.264 24.4317 39.2513ZM29.4211 37.4528C29.3853 38.3401 28.3889 39.7344 27.0222 39.5721C25.7388 39.7078 24.7177 38.4877 24.7314 37.5866C24.7552 35.987 25.5335 35.0493 26.7985 34.9833C28.5154 34.8935 29.4779 36.0228 29.4211 37.4528ZM32.0675 39.5721C30.7667 39.5675 29.6282 38.4914 29.708 37.2722C29.807 35.7689 30.7502 34.9613 32.1747 34.9173C33.6019 34.8733 34.437 36.0512 34.4627 37.4079C34.4819 38.4364 33.2417 39.7774 32.0675 39.573V39.5721ZM35.7983 39.6601C35.2547 39.6574 34.723 39.2357 34.7294 38.5913C34.7359 37.9863 35.1337 37.5683 35.7268 37.5646C36.4509 37.6242 36.8387 37.901 36.8277 38.5629C36.8194 39.1019 36.3189 39.6629 35.7983 39.6601ZM37.2814 36.9138C37.2393 37.0183 37.2053 37.1585 37.0541 37.1604C36.4821 37.165 35.9092 37.1622 35.3198 37.1622C35.8404 35.8743 36.3428 34.6515 36.8268 33.4222C36.9294 33.1619 37.0614 33.0592 37.3529 33.0785C37.8223 33.1096 38.2953 33.0867 38.8251 33.0867C38.2962 34.3994 37.7911 35.658 37.2814 36.9138Z"
    fill="#6619DF"
  />
<path
    d="M27.0985 36.4582C26.5741 36.4555 26.1864 36.8377 26.1983 37.3455C26.2093 37.8158 26.6016 38.2081 27.0609 38.2063C27.6246 38.2035 27.9436 37.8616 27.9464 37.2575C27.9482 36.7167 27.6778 36.4619 27.0985 36.4591V36.4582Z"
    fill="#6619DF"
  />
<path
    d="M11.3509 26.2879C11.5452 26.8773 11.889 27.3017 12.5481 27.3823C12.7158 27.3787 12.8836 27.3723 13.0513 27.3723C20.4057 27.3713 27.7601 27.3631 35.1144 27.3778C36.3987 27.3805 36.6178 26.7874 36.6242 25.8964C36.6526 21.3947 36.6425 16.893 36.6333 12.3922C36.6315 11.4929 36.076 10.9503 35.1731 10.9237C34.624 10.9072 34.0749 10.9209 33.5249 10.92C30.016 10.9136 26.507 10.9072 22.998 10.8999C22.8156 10.909 22.6341 10.9255 22.4517 10.9255C19.313 10.9255 16.1753 10.9347 13.0367 10.9173C12.2071 10.9127 11.6002 11.1739 11.3408 12.0127C11.3472 13.4463 11.3603 14.88 11.3603 16.3127C11.3603 19.6375 11.3546 22.9622 11.3509 26.2879ZM13.2651 14.5876C13.3046 14.1329 13.2917 13.6718 13.2688 13.2153C13.2532 12.9138 13.3531 12.823 13.6538 12.8267C14.9509 12.8414 16.248 12.8331 17.545 12.8331C19.6964 12.8331 21.8488 12.8331 24.0002 12.8331C27.4184 12.8331 30.8375 12.8395 34.2558 12.8239C34.6343 12.8221 34.7636 12.9156 34.7361 13.3006C34.7022 13.7718 34.715 14.2457 34.7333 14.7187C34.7425 14.9552 34.6408 15.0881 34.4464 15.1816C32.8386 15.9607 31.262 16.8077 29.6468 17.5649C28.1169 18.2817 26.6154 19.0554 25.1203 19.83C24.2477 20.2819 23.6243 20.2507 22.7801 19.8116C19.7854 18.2551 16.7448 16.7848 13.7143 15.298C13.3889 15.1385 13.2321 14.9689 13.2651 14.5876Z"
    fill="white"
  />
<path
    d="M24.3485 36.2905C24.2385 35.702 23.7802 34.942 22.8672 34.9815C22.4455 34.9998 22.0926 35.141 21.7058 35.3692C21.7058 34.9558 21.7058 34.5937 21.7058 34.2326C21.7058 33.4693 21.3321 33.0876 20.5847 33.0876C20.4472 33.0876 20.3106 33.0876 20.1731 33.0867C20.1676 33.6578 20.1621 34.228 20.1566 34.799C20.1511 35.3701 20.1456 35.9403 20.1419 36.5114C20.1346 37.5014 20.1318 38.4914 20.1273 39.4814C20.4958 39.6225 20.8798 39.5034 21.2529 39.5492C21.6013 39.5923 21.7397 39.4832 21.7213 39.1046C21.6902 38.4657 21.7094 37.824 21.7168 37.1833C21.7223 36.669 21.8818 36.4655 22.2603 36.4582C22.6563 36.4509 22.814 36.6315 22.8232 37.1595C22.836 37.8451 22.8333 38.5317 22.8259 39.2183C22.8232 39.4401 22.8791 39.5611 23.1312 39.5501C23.4657 39.5354 23.8022 39.5382 24.1377 39.5483C24.354 39.5547 24.4392 39.4685 24.4319 39.2531C24.3989 38.2649 24.5318 37.2685 24.3494 36.2914L24.3485 36.2905Z"
    fill="white"
  />
<path
    d="M19.6029 35.4645C19.6029 35.3353 19.6552 35.185 19.5214 35.0832C19.4361 35.0181 18.1198 35.0264 18.0849 35.1135C17.9804 35.3775 17.8704 35.2555 17.7082 35.1767C17.1518 34.9072 16.5706 34.8861 16.0078 35.1419C14.7822 35.6983 14.3514 37.4143 15.1021 38.5949C15.61 39.3924 16.39 39.7527 17.2664 39.5657C17.6165 39.4914 17.9282 39.1064 18.3095 39.4887C18.3169 39.496 18.3389 39.4896 18.3544 39.4896C18.766 39.4841 19.1767 39.4777 19.5883 39.4722C19.5846 39.4419 19.5947 39.4163 19.6176 39.3961C19.613 38.0853 19.6112 36.7745 19.6029 35.4645ZM17.2141 38.2842C16.742 38.2879 16.2965 37.8149 16.2984 37.3125C16.3002 36.7405 16.5816 36.4591 17.1527 36.461C17.7339 36.4628 18.117 36.7836 18.1253 37.2777C18.1335 37.7232 17.6284 38.2814 17.2132 38.2842L17.2141 38.2842Z"
    fill="white"
  />
<path
    d="M13.6758 35.085C13.4485 35.0795 13.3412 35.1419 13.2615 35.3848C13.0516 36.0274 12.7894 36.6525 12.5428 37.2823C12.5071 37.3749 12.4429 37.5224 12.3842 37.5261C12.2504 37.5344 12.2174 37.3996 12.1743 37.2768C11.9717 36.6965 11.7517 36.1218 11.5418 35.5443C11.4318 35.2418 11.2897 35.0255 10.8983 35.0796C10.5995 35.1208 10.2906 35.0795 9.98533 35.0759C9.71125 35.0621 9.62416 35.1593 9.76441 35.4205C9.84783 35.5773 9.90466 35.7478 9.97433 35.9128C9.98074 35.9412 9.98716 35.9705 9.99358 35.9999C10.0724 36.0549 10.0944 36.1346 10.0907 36.2254C10.5142 37.1989 10.9304 38.176 11.3667 39.144C11.5125 39.4667 11.5152 39.7316 11.3282 40.0515C11.1247 40.3989 11.0111 40.7986 10.8406 41.2212C11.2742 41.2212 11.6747 41.1818 12.0634 41.2322C12.4548 41.2835 12.6051 41.0809 12.7225 40.7812C13.0314 40.0002 13.3339 39.2174 13.6501 38.44C14.0993 37.3373 14.6731 36.285 15.0242 35.0896C14.5503 35.0896 14.1131 35.0979 13.6749 35.086L13.6758 35.085Z"
    fill="white"
  />
<path
    d="M32.1747 34.9173C30.7502 34.9613 29.807 35.7689 29.708 37.2722C29.6273 38.4914 30.7658 39.5684 32.0675 39.5721C33.2417 39.7765 34.4813 38.4354 34.462 37.407C34.4363 36.0503 33.6013 34.8733 32.174 34.9164L32.1747 34.9173ZM32.1089 38.2063C31.6039 38.2026 31.2326 37.8259 31.2354 37.3171C31.2372 36.8102 31.6002 36.4564 32.1172 36.4564C32.7029 36.4564 32.9862 36.7305 32.9889 37.2979C32.9917 37.8497 32.6443 38.209 32.1089 38.2054V38.2063Z"
    fill="white"
  />
<path
    d="M26.7978 34.9842C25.5328 35.0502 24.7546 35.988 24.7307 37.5875C24.717 38.4886 25.7381 39.7087 27.0215 39.573C28.3882 39.7353 29.3846 38.341 29.4204 37.4537C29.4772 36.0228 28.5147 34.8944 26.7978 34.9842ZM27.0609 38.2054C26.6016 38.2072 26.2093 37.8158 26.1983 37.3446C26.1864 36.8377 26.5751 36.4555 27.0985 36.4573C27.6778 36.46 27.9482 36.7149 27.9464 37.2557C27.9446 37.8607 27.6256 38.2026 27.0609 38.2044V38.2054Z"
    fill="white"
  />
<path
    d="M37.3522 33.0794C37.0607 33.0601 36.9287 33.1628 36.8261 33.4231C36.3412 34.6524 35.8398 35.8752 35.3191 37.1631C35.9085 37.1631 36.4805 37.1659 37.0534 37.1613C37.2037 37.1604 37.2377 37.0192 37.2807 36.9147C37.7913 35.6589 38.2964 34.4003 38.8244 33.0876C38.2946 33.0876 37.8216 33.1106 37.3522 33.0794Z"
    fill="white"
  />
<path
    d="M35.7261 37.5655C35.1321 37.5692 34.7352 37.9872 34.7288 38.5922C34.7223 39.2366 35.254 39.6583 35.7976 39.661C36.3183 39.6638 36.8187 39.1028 36.8279 38.5638C36.8389 37.9019 36.4502 37.6251 35.7261 37.5655Z"
    fill="white"
  />
<path
    d="M20.1557 34.7981C20.1612 34.2271 20.1667 33.6569 20.1722 33.0858C20.0026 33.2261 20.0558 33.4213 20.0549 33.5973C20.053 35.3949 20.0548 37.1915 20.0585 38.9891C20.0585 39.1541 20.0319 39.3255 20.1254 39.4795C20.13 38.4895 20.1328 37.4995 20.1401 36.5095C20.1447 35.9385 20.1493 35.3683 20.1548 34.7972L20.1557 34.7981Z"
    fill="#6619DF"
  />
<path
    d="M19.5883 39.4722C19.6332 39.4603 19.6433 39.4355 19.6176 39.3961C19.5947 39.4163 19.5846 39.4419 19.5883 39.4722Z"
    fill="#6619DF"
  />
<path
    d="M11.3603 16.3127C11.3603 14.8791 11.3482 13.4454 11.3408 12.0127C11.262 12.1694 11.2757 12.339 11.2757 12.5059C11.2702 16.9232 11.2638 21.3415 11.2602 25.7589C11.2602 25.9386 11.2283 26.1274 11.3521 26.2879C11.3557 22.9631 11.3612 19.6384 11.3612 16.3127H11.3603Z"
    fill="#6619DF"
  />
<path
    d="M9.99449 35.999C9.99449 35.999 9.99541 36.0035 9.99633 36.0054L9.986 35.9916C10.0208 36.0732 10.0557 36.1557 10.0914 36.2364C10.0905 36.2364 10.0889 36.219 10.0889 36.219C10.0889 36.2208 10.0914 36.2226 10.0914 36.2245C10.0951 36.1337 10.0733 36.053 9.99358 35.999H9.99449Z"
    fill="#6619DF"
  />
<path
    d="M10.0914 36.2364C10.0914 36.2364 10.0914 36.2281 10.0914 36.2245C10.0914 36.2226 10.0898 36.2208 10.0898 36.219C10.0898 36.219 10.0896 36.2364 10.0914 36.2364Z"
    fill="#6619DF"
  />
<path
    d="M9.99449 35.999C9.99449 35.999 9.98899 35.9944 9.98533 35.9925L9.99633 36.0063C9.99633 36.0045 9.99449 36.0017 9.99358 35.9999L9.99449 35.999Z"
    fill="#6619DF"
  />
</svg>
