<?xml version="1.0" encoding="UTF-8" ?>
<svg id="a" xmlns="http://www.w3.org/2000/svg" viewBox="0 0 48 48"><rect
    x="0"
    width="48"
    height="48"
    fill="none"
  /><path
    d="m5.38,6.5c-.29,0-.58.04-.87.15-1.18.43-1.78,1.68-1.39,2.83l9.56,22.68c-1.34,3.69-2.58,5.42-5.44,5.42-.28,0-1.24-.06-1.3-.06-.92-.05-1.78.54-2.03,1.44-.28,1.02.33,2.08,1.38,2.37.76.13,1.53.18,2.23.18,5.26,0,7-2.95,8.74-7.25l10.27-24.92c.37-1.13-.28-2.34-1.43-2.7-1.13-.35-2.33.23-2.74,1.3l-7.21,18.55h-.11L7.44,7.8c-.38-.79-1.19-1.28-2.06-1.3Zm33.16,5.25c-.23,0-.46.02-.69.09-.08.04-.16.08-.25.13-1.43.8-11.11,7.64-10.02,8.41,1.09.77,7.7-2.24,12.23-4.74.86-.69,1.07-1.94.47-2.88-.4-.63-1.06-.98-1.75-1Zm4.47,10.51c-1.64,0-13.46,1.32-12.86,2.55.59,1.22,7.86,1.81,13.05,1.81,1.09-.19,1.87-1.19,1.8-2.34-.07-1.01-.78-1.81-1.7-2.02-.09,0-.18,0-.28,0Zm-14.77,6.99c-.29-.01-.52.02-.65.12-1.09.77,8.59,7.61,10.02,8.41.09.05.17.09.25.13.9.26,1.9-.08,2.43-.92.6-.95.38-2.19-.47-2.88-3.96-2.19-9.52-4.76-11.57-4.86Z"
    fill="#fff"
  /></svg>
