<?xml version="1.0" encoding="UTF-8"?>
<svg width="48px" height="48px" viewBox="0 0 48 48" version="1.1" xmlns="http://www.w3.org/2000/svg" xmlns:xlink="http://www.w3.org/1999/xlink">
    <title>EC/Icons/Social/2XL_48x48px/Icon-YouTube/Negative</title>
    <g id="EC/Icons/Social/2XL_48x48px/Icon-YouTube/Negative" stroke="none" stroke-width="1" fill="none" fill-rule="evenodd">
        <path d="M45.080125,13.8412579 C44.574125,11.935554 43.083625,10.4354653 41.19025,9.92672758 C37.759625,9 24,9 24,9 C24,9 10.240375,9 6.80975,9.92672758 C4.916375,10.4354653 3.425875,11.935554 2.9185,13.8412579 C2,17.2951743 2,24.5 2,24.5 C2,24.5 2,31.7062007 2.9185,35.1587421 C3.425875,37.064446 4.916375,38.5659097 6.80975,39.0746474 C10.240375,40 24,40 24,40 C24,40 37.759625,40 41.19025,39.0746474 C43.083625,38.5659097 44.574125,37.064446 45.080125,35.1587421 C46,31.7062007 46,24.5 46,24.5 C46,24.5 46,17.2951743 45.080125,13.8412579" id="Fill-1" fill="#FFFFFF"></path>
        <polygon id="Fill-4" fill="#000000" points="19.499625 31.0425042 31.000125 24.5004125 19.499625 17.9583208"></polygon>
    </g>
</svg>