<?xml version="1.0" encoding="UTF-8"?>
<svg width="48px" height="48px" viewBox="0 0 48 48" version="1.1" xmlns="http://www.w3.org/2000/svg" xmlns:xlink="http://www.w3.org/1999/xlink">
    <title>EC/Icons/Social/2XL_48x48px/Icon-YouTube/Cutout</title>
    <g id="EC/Icons/Social/2XL_48x48px/Icon-YouTube/Cutout" stroke="none" stroke-width="1" fill="none" fill-rule="evenodd">
        <path d="M24.2264347,9.00040293 C24.2559277,9.00048352 24.2881606,9.00058022 24.3230496,9.00069626 L24.7065012,9.00234989 C26.1084934,9.00966067 29.3957595,9.03971607 32.7289922,9.16327717 L33.4432896,9.19121154 C36.6547614,9.32358876 39.7868125,9.54761175 41.19025,9.92672758 C43.083625,10.4354653 44.574125,11.935554 45.080125,13.8412579 C45.4228235,15.1280111 45.6378501,16.9353633 45.7727687,18.6968253 L45.8127671,19.2508903 C45.9750356,21.639502 45.9966714,23.830518 45.9995562,24.3723248 L45.9995562,24.6276986 C45.9943414,25.6072939 45.9278529,31.9769882 45.080125,35.1587421 C44.574125,37.064446 43.083625,38.5659097 41.19025,39.0746474 C39.7868125,39.4532007 36.6547614,39.6768913 33.4432896,39.8090722 L32.7289922,39.8369651 C29.1576715,39.9691556 25.6391185,39.9941646 24.4356008,39.998896 L24.2264347,39.9995977 C24.1969416,39.9996781 24.1701884,39.9997425 24.1462588,39.999794 L23.8537412,39.999794 C23.8298116,39.9997425 23.8030584,39.9996781 23.7735653,39.9995977 L23.5643992,39.998896 C22.3608815,39.9941646 18.8423285,39.9691556 15.2710078,39.8369651 L14.5567104,39.8090722 C11.3452386,39.6768913 8.2131875,39.4532007 6.80975,39.0746474 C4.916375,38.5659097 3.425875,37.064446 2.9185,35.1587421 C2.12606863,32.1800789 2.01730354,26.4074579 2.002375,24.8789316 L2.00086552,24.6974635 C2.00069242,24.6718236 2.00055393,24.6485411 2.00044315,24.6276986 L2.00044315,24.3723248 C2.00055393,24.3514861 2.00069242,24.3282077 2.00086552,24.3025722 L2.002375,24.1211355 C2.01730354,22.5928677 2.12606863,16.8211073 2.9185,13.8412579 C3.425875,11.935554 4.916375,10.4354653 6.80975,9.92672758 C8.2131875,9.54761175 11.3452386,9.32358876 14.5567104,9.19121154 L15.2710078,9.16327717 C18.6042405,9.03971607 21.8915066,9.00966067 23.2934988,9.00234989 L23.6769504,9.00069626 C23.7118394,9.00058022 23.7440723,9.00048352 23.7735653,9.00040293 Z M19.499625,17.9583208 L19.499625,31.0425042 L31.000125,24.5004125 L19.499625,17.9583208 Z" id="Combined-Shape" fill="#FFFFFF"></path>
    </g>
</svg>
