<svg
  width="460"
  height="345"
  viewBox="0 0 460 345"
  fill="none"
  xmlns="http://www.w3.org/2000/svg"
>
<rect x="41" y="81" width="379" height="34" fill="#F3F5FB" />
<rect x="63" y="90" width="36.9455" height="16" fill="#B9C5E9" />
<path
    fill-rule="evenodd"
    clip-rule="evenodd"
    d="M86.3545 95.952V101.383C86.3545 101.634 86.2663 101.848 86.0898 102.024C85.9133 102.2 85.699 102.288 85.4469 102.288H77.5804C77.3283 102.288 77.114 102.2 76.9375 102.024C76.761 101.848 76.6727 101.634 76.6727 101.383V95.952C76.6727 95.7005 76.761 95.4868 76.9375 95.3108C77.114 95.1348 77.3283 95.0468 77.5804 95.0468H79.2445L79.4714 94.4245C79.547 94.2485 79.6605 94.1071 79.8118 94.0003C79.963 93.8934 80.1332 93.84 80.3223 93.84H82.705C82.8941 93.84 83.0642 93.8934 83.2155 94.0003C83.3668 94.1071 83.4803 94.2485 83.5559 94.4245L83.7828 95.0468H85.4469C85.699 95.0468 85.9133 95.1348 86.0898 95.3108C86.2663 95.4868 86.3545 95.7005 86.3545 95.952ZM83.7728 98.6398C83.7728 98.2292 83.6724 97.8527 83.4716 97.5105C83.2707 97.1683 82.9978 96.8976 82.6526 96.6985C82.3075 96.4994 81.9278 96.3998 81.5137 96.3998C81.0995 96.3998 80.7199 96.4994 80.3747 96.6985C80.0296 96.8976 79.7566 97.1683 79.5558 97.5105C79.355 97.8527 79.2546 98.2292 79.2546 98.6398C79.2546 99.0505 79.355 99.427 79.5558 99.7692C79.7566 100.111 80.0296 100.382 80.3747 100.581C80.7199 100.78 81.0995 100.88 81.5137 100.88C81.9278 100.88 82.3075 100.78 82.6526 100.581C82.9978 100.382 83.2707 100.111 83.4716 99.7692C83.6724 99.427 83.7728 99.0505 83.7728 98.6398ZM82.7605 99.8762C83.0911 99.5484 83.2563 99.1576 83.2563 98.7038C83.2563 98.25 83.0911 97.8592 82.7605 97.5314C82.43 97.2037 82.0358 97.0398 81.5781 97.0398C81.1205 97.0398 80.7263 97.2037 80.3958 97.5314C80.0652 97.8592 79.9 98.25 79.9 98.7038C79.9 99.1576 80.0652 99.5484 80.3958 99.8762C80.7263 100.204 81.1205 100.368 81.5781 100.368C82.0358 100.368 82.43 100.204 82.7605 99.8762Z"
    fill="#E0E5F5"
  />
<path
    fill-rule="evenodd"
    clip-rule="evenodd"
    d="M63 141H167V131H63V141Z"
    fill="#404040"
  />
<path
    fill-rule="evenodd"
    clip-rule="evenodd"
    d="M63 159H143V149H63V159Z"
    fill="#546FA6"
  />
<path
    fill-rule="evenodd"
    clip-rule="evenodd"
    d="M273 159H353V149H273V159Z"
    fill="#546FA6"
  />
<path
    fill-rule="evenodd"
    clip-rule="evenodd"
    d="M77 185H117V175H77V185Z"
    fill="#3860ED"
  />
<path
    fill-rule="evenodd"
    clip-rule="evenodd"
    d="M63 180C63 182.761 65.2386 185 68 185V185C70.7614 185 73 182.761 73 180V180C73 177.239 70.7614 175 68 175V175C65.2386 175 63 177.239 63 180V180Z"
    fill="#444444"
  />
<path
    fill-rule="evenodd"
    clip-rule="evenodd"
    d="M77 205H117V195H77V205Z"
    fill="#3860ED"
  />
<path
    fill-rule="evenodd"
    clip-rule="evenodd"
    d="M63 200C63 202.761 65.2386 205 68 205V205C70.7614 205 73 202.761 73 200V200C73 197.239 70.7614 195 68 195V195C65.2386 195 63 197.239 63 200V200Z"
    fill="#444444"
  />
<path
    fill-rule="evenodd"
    clip-rule="evenodd"
    d="M77 225H117V215H77V225Z"
    fill="#3860ED"
  />
<path
    fill-rule="evenodd"
    clip-rule="evenodd"
    d="M63 220C63 222.761 65.2386 225 68 225V225C70.7614 225 73 222.761 73 220V220C73 217.239 70.7614 215 68 215V215C65.2386 215 63 217.239 63 220V220Z"
    fill="#444444"
  />
<path
    fill-rule="evenodd"
    clip-rule="evenodd"
    d="M77 245H117V235H77V245Z"
    fill="#3860ED"
  />
<path
    fill-rule="evenodd"
    clip-rule="evenodd"
    d="M63 240C63 242.761 65.2386 245 68 245V245C70.7614 245 73 242.761 73 240V240C73 237.239 70.7614 235 68 235V235C65.2386 235 63 237.239 63 240V240Z"
    fill="#444444"
  />
<path
    fill-rule="evenodd"
    clip-rule="evenodd"
    d="M77 265H117V255H77V265Z"
    fill="#3860ED"
  />
<path
    fill-rule="evenodd"
    clip-rule="evenodd"
    d="M63 260C63 262.761 65.2386 265 68 265V265C70.7614 265 73 262.761 73 260V260C73 257.239 70.7614 255 68 255V255C65.2386 255 63 257.239 63 260V260Z"
    fill="#444444"
  />
<path
    fill-rule="evenodd"
    clip-rule="evenodd"
    d="M147 185H187V175H147V185Z"
    fill="#3860ED"
  />
<path
    fill-rule="evenodd"
    clip-rule="evenodd"
    d="M133 180C133 182.761 135.239 185 138 185V185C140.761 185 143 182.761 143 180V180C143 177.239 140.761 175 138 175V175C135.239 175 133 177.239 133 180V180Z"
    fill="#444444"
  />
<path
    fill-rule="evenodd"
    clip-rule="evenodd"
    d="M147 205H187V195H147V205Z"
    fill="#3860ED"
  />
<path
    fill-rule="evenodd"
    clip-rule="evenodd"
    d="M133 200C133 202.761 135.239 205 138 205V205C140.761 205 143 202.761 143 200V200C143 197.239 140.761 195 138 195V195C135.239 195 133 197.239 133 200V200Z"
    fill="#444444"
  />
<path
    fill-rule="evenodd"
    clip-rule="evenodd"
    d="M147 225H187V215H147V225Z"
    fill="#3860ED"
  />
<path
    fill-rule="evenodd"
    clip-rule="evenodd"
    d="M133 220C133 222.761 135.239 225 138 225V225C140.761 225 143 222.761 143 220V220C143 217.239 140.761 215 138 215V215C135.239 215 133 217.239 133 220V220Z"
    fill="#444444"
  />
<path
    fill-rule="evenodd"
    clip-rule="evenodd"
    d="M147 245H187V235H147V245Z"
    fill="#3860ED"
  />
<path
    fill-rule="evenodd"
    clip-rule="evenodd"
    d="M133 240C133 242.761 135.239 245 138 245V245C140.761 245 143 242.761 143 240V240C143 237.239 140.761 235 138 235V235C135.239 235 133 237.239 133 240V240Z"
    fill="#444444"
  />
<path
    fill-rule="evenodd"
    clip-rule="evenodd"
    d="M147 265H187V255H147V265Z"
    fill="#3860ED"
  />
<path
    fill-rule="evenodd"
    clip-rule="evenodd"
    d="M133 260C133 262.761 135.239 265 138 265V265C140.761 265 143 262.761 143 260V260C143 257.239 140.761 255 138 255V255C135.239 255 133 257.239 133 260V260Z"
    fill="#444444"
  />
<path
    fill-rule="evenodd"
    clip-rule="evenodd"
    d="M217 185H257V175H217V185Z"
    fill="#3860ED"
  />
<path
    fill-rule="evenodd"
    clip-rule="evenodd"
    d="M203 180C203 182.761 205.239 185 208 185V185C210.761 185 213 182.761 213 180V180C213 177.239 210.761 175 208 175V175C205.239 175 203 177.239 203 180V180Z"
    fill="#444444"
  />
<path
    fill-rule="evenodd"
    clip-rule="evenodd"
    d="M217 205H257V195H217V205Z"
    fill="#3860ED"
  />
<path
    fill-rule="evenodd"
    clip-rule="evenodd"
    d="M203 200C203 202.761 205.239 205 208 205V205C210.761 205 213 202.761 213 200V200C213 197.239 210.761 195 208 195V195C205.239 195 203 197.239 203 200V200Z"
    fill="#444444"
  />
<path
    fill-rule="evenodd"
    clip-rule="evenodd"
    d="M217 225H257V215H217V225Z"
    fill="#3860ED"
  />
<path
    fill-rule="evenodd"
    clip-rule="evenodd"
    d="M203 220C203 222.761 205.239 225 208 225V225C210.761 225 213 222.761 213 220V220C213 217.239 210.761 215 208 215V215C205.239 215 203 217.239 203 220V220Z"
    fill="#444444"
  />
<path
    fill-rule="evenodd"
    clip-rule="evenodd"
    d="M217 245H257V235H217V245Z"
    fill="#3860ED"
  />
<path
    fill-rule="evenodd"
    clip-rule="evenodd"
    d="M203 240C203 242.761 205.239 245 208 245V245C210.761 245 213 242.761 213 240V240C213 237.239 210.761 235 208 235V235C205.239 235 203 237.239 203 240V240Z"
    fill="#444444"
  />
<path
    fill-rule="evenodd"
    clip-rule="evenodd"
    d="M217 265H257V255H217V265Z"
    fill="#3860ED"
  />
<path
    fill-rule="evenodd"
    clip-rule="evenodd"
    d="M203 260C203 262.761 205.239 265 208 265V265C210.761 265 213 262.761 213 260V260C213 257.239 210.761 255 208 255V255C205.239 255 203 257.239 203 260V260Z"
    fill="#444444"
  />
<path
    fill-rule="evenodd"
    clip-rule="evenodd"
    d="M287 185H327V175H287V185Z"
    fill="#3860ED"
  />
<path
    fill-rule="evenodd"
    clip-rule="evenodd"
    d="M273 180C273 182.761 275.239 185 278 185V185C280.761 185 283 182.761 283 180V180C283 177.239 280.761 175 278 175V175C275.239 175 273 177.239 273 180V180Z"
    fill="#444444"
  />
<path
    fill-rule="evenodd"
    clip-rule="evenodd"
    d="M287 205H327V195H287V205Z"
    fill="#3860ED"
  />
<path
    fill-rule="evenodd"
    clip-rule="evenodd"
    d="M273 200C273 202.761 275.239 205 278 205V205C280.761 205 283 202.761 283 200V200C283 197.239 280.761 195 278 195V195C275.239 195 273 197.239 273 200V200Z"
    fill="#444444"
  />
<path
    fill-rule="evenodd"
    clip-rule="evenodd"
    d="M287 225H327V215H287V225Z"
    fill="#3860ED"
  />
<path
    fill-rule="evenodd"
    clip-rule="evenodd"
    d="M273 220C273 222.761 275.239 225 278 225V225C280.761 225 283 222.761 283 220V220C283 217.239 280.761 215 278 215V215C275.239 215 273 217.239 273 220V220Z"
    fill="#444444"
  />
<path
    fill-rule="evenodd"
    clip-rule="evenodd"
    d="M287 245H327V235H287V245Z"
    fill="#3860ED"
  />
<path
    fill-rule="evenodd"
    clip-rule="evenodd"
    d="M273 240C273 242.761 275.239 245 278 245V245C280.761 245 283 242.761 283 240V240C283 237.239 280.761 235 278 235V235C275.239 235 273 237.239 273 240V240Z"
    fill="#444444"
  />
<path
    fill-rule="evenodd"
    clip-rule="evenodd"
    d="M287 265H327V255H287V265Z"
    fill="#3860ED"
  />
<path
    fill-rule="evenodd"
    clip-rule="evenodd"
    d="M273 260C273 262.761 275.239 265 278 265V265C280.761 265 283 262.761 283 260V260C283 257.239 280.761 255 278 255V255C275.239 255 273 257.239 273 260V260Z"
    fill="#444444"
  />
<path
    fill-rule="evenodd"
    clip-rule="evenodd"
    d="M357 185H397V175H357V185Z"
    fill="#3860ED"
  />
<path
    fill-rule="evenodd"
    clip-rule="evenodd"
    d="M343 180C343 182.761 345.239 185 348 185V185C350.761 185 353 182.761 353 180V180C353 177.239 350.761 175 348 175V175C345.239 175 343 177.239 343 180V180Z"
    fill="#444444"
  />
<path
    fill-rule="evenodd"
    clip-rule="evenodd"
    d="M357 205H397V195H357V205Z"
    fill="#3860ED"
  />
<path
    fill-rule="evenodd"
    clip-rule="evenodd"
    d="M343 200C343 202.761 345.239 205 348 205V205C350.761 205 353 202.761 353 200V200C353 197.239 350.761 195 348 195V195C345.239 195 343 197.239 343 200V200Z"
    fill="#444444"
  />
<path
    fill-rule="evenodd"
    clip-rule="evenodd"
    d="M357 225H397V215H357V225Z"
    fill="#3860ED"
  />
<path
    fill-rule="evenodd"
    clip-rule="evenodd"
    d="M343 220C343 222.761 345.239 225 348 225V225C350.761 225 353 222.761 353 220V220C353 217.239 350.761 215 348 215V215C345.239 215 343 217.239 343 220V220Z"
    fill="#444444"
  />
<path
    fill-rule="evenodd"
    clip-rule="evenodd"
    d="M357 245H397V235H357V245Z"
    fill="#3860ED"
  />
<path
    fill-rule="evenodd"
    clip-rule="evenodd"
    d="M343 240C343 242.761 345.239 245 348 245V245C350.761 245 353 242.761 353 240V240C353 237.239 350.761 235 348 235V235C345.239 235 343 237.239 343 240V240Z"
    fill="#444444"
  />
<path
    fill-rule="evenodd"
    clip-rule="evenodd"
    d="M357 265H397V255H357V265Z"
    fill="#3860ED"
  />
<path
    fill-rule="evenodd"
    clip-rule="evenodd"
    d="M343 260C343 262.761 345.239 265 348 265V265C350.761 265 353 262.761 353 260V260C353 257.239 350.761 255 348 255V255C345.239 255 343 257.239 343 260V260Z"
    fill="#444444"
  />
<path
    fill-rule="evenodd"
    clip-rule="evenodd"
    d="M264 265H266V149H264V265Z"
    fill="#0E47CB"
    fill-opacity="0.2"
  />
</svg>
