<!-- Generated by IcoMoon.io -->
<svg version="1.1" xmlns="http://www.w3.org/2000/svg" width="29" height="32" viewBox="0 0 29 32">
<title>audio</title>
<path d="M19.334 9.417c-0.673-0.673-1.539-0.673-2.244 0-0.673 0.673-0.673 1.539 0 2.212 2.725 2.725 2.725 7.118 0 9.715-0.673 0.705-0.673 1.571 0 2.244 0.289 0.289 0.802 0.385 1.186 0.385 0.289 0 0.77-0.096 1.058-0.385 3.88-3.88 3.88-10.292 0-14.172zM22.732 6.5c-0.673 0.673-0.673 1.539 0 2.244 4.393 4.264 4.393 11.35 0 15.711-0.673 0.705-0.673 1.571 0 2.244 0.289 0.289 0.77 0.385 1.186 0.385s0.866-0.192 1.058-0.385c2.725-2.725 4.264-6.316 4.264-10.1s-1.539-7.374-4.264-10.1c-0.673-0.673-1.571-0.673-2.244 0zM14.877 0.376l-9.619 9.715h-5.258v12.729h5.258l9.619 9.619"></path>
</svg>
