<!-- Generated by IcoMoon.io -->
<svg version="1.1" xmlns="http://www.w3.org/2000/svg" width="23" height="32" viewBox="0 0 23 32">
<title>edit</title>
<path d="M18.308 19.773v10.388h-16.031v-21.77h3.463c1.222-0.033 2.208-0.997 2.276-2.206l0-3.533h10.292v6.958l0.16-0.16c0.065-0.079 0.163-0.129 0.273-0.129s0.207 0.050 0.272 0.128l1.604 1.604v-8.4c-0.1-1.248-1.114-2.23-2.368-2.276l-12.509-0-5.739 5.579v24.271c0.147 1.235 1.177 2.188 2.434 2.212l15.873 0c1.208-0.13 2.161-1.072 2.307-2.264l0.001-12.709zM17.859 9.385l0.609-0.609c0.065-0.079 0.163-0.129 0.273-0.129s0.207 0.050 0.272 0.128l3.816 3.752c0.068 0.064 0.111 0.156 0.111 0.257s-0.042 0.192-0.11 0.256l-9.843 9.843c-0.025 0.057-0.082 0.097-0.147 0.097-0.005 0-0.009-0-0.014-0.001l-5.642 1.828c-0.034 0.012-0.074 0.020-0.116 0.020-0.195 0-0.353-0.158-0.353-0.353 0-0.041 0.007-0.081 0.020-0.118l1.827-5.673c0-0.064 0.064-0.064 0.064-0.128l6.797-6.797M9.33 22.755l1.956-0.705c0.148-0.056 0.251-0.196 0.251-0.361 0-0.095-0.034-0.182-0.091-0.249l-1.378-1.378c-0.067-0.057-0.153-0.091-0.248-0.091-0.165 0-0.305 0.103-0.36 0.249l-0.61 2.055c-0.029 0.050-0.046 0.11-0.046 0.174 0 0.195 0.158 0.353 0.353 0.353 0.064 0 0.124-0.017 0.176-0.047z"></path>
</svg>
