<!-- Generated by IcoMoon.io -->
<svg version="1.1" xmlns="http://www.w3.org/2000/svg" width="36" height="32" viewBox="0 0 36 32">
<title>image</title>
<path d="M30.107 25.865h-23.79v-4.713l7.182-11.927 9.811 11.927 6.797-4.745v9.458zM22.957 10.443c0-2.052 1.571-3.527 3.527-3.527s3.527 1.603 3.527 3.527-1.603 3.527-3.527 3.527-3.527-1.699-3.527-3.527zM36.327 3.518c-0.257-1.699-1.956-3.142-3.527-3.142h-28.92c-1.924 0-3.623 1.571-3.88 3.142v25.394c0 1.699 1.828 3.527 3.88 3.527h28.92c1.699 0 3.623-1.828 3.623-3.655v-24.752l-0.096-0.513zM32.8 28.783h-29.145v-24.752h29.145v24.752z"></path>
</svg>
