<!-- Generated by IcoMoon.io -->
<svg version="1.1" xmlns="http://www.w3.org/2000/svg" width="21" height="32" viewBox="0 0 21 32">
<title>location</title>
<path d="M10.613 16.407c-3.046 0-5.515-2.469-5.515-5.515s2.469-5.483 5.515-5.483c3.046 0 5.483 2.469 5.483 5.483s-2.437 5.515-5.483 5.515zM10.613 0.376c-5.867 0-10.613 4.745-10.613 10.613 0 2.341 1.507 6.188 4.585 11.735 2.212 3.912 4.361 7.182 4.457 7.342l1.571 2.373 1.571-2.373c0.096-0.16 2.244-3.431 4.425-7.342 3.11-5.547 4.617-9.394 4.617-11.735 0-5.867-4.777-10.613-10.613-10.613z"></path>
</svg>
