<!-- Generated by IcoMoon.io -->
<svg version="1.1" xmlns="http://www.w3.org/2000/svg" width="20" height="32" viewBox="0 0 20 32">
<title>multiple-files</title>
<path d="M17.602 6.275c0.962 0 1.86 0.994 1.86 1.892v22.444c0 0.93-0.962 1.828-1.86 1.828h-12.985c-1.058 0-1.956-0.962-1.956-1.828v-19.718l4.681-4.553h10.26v-0.064zM17.602 8.167h-8.4v2.854c0 0.962-0.962 1.828-1.796 1.828h-2.854v17.763h13.049v-22.444zM17.602 6.275c0.962 0 1.86 0.994 1.86 1.892v22.444c0 0.93-0.962 1.828-1.86 1.828h-12.985c-1.058 0-1.956-0.962-1.956-1.828v-19.718l4.681-4.553h10.26v-0.064zM1.956 24.39v-17.186h2.918c0.962 0 1.956-0.866 1.956-1.892v-2.982h8.753v3.302h1.956v-3.302c0-0.994-0.994-1.956-2.020-1.956h-10.645l-4.873 4.745v19.334c0 0.834 0.898 1.828 1.956 1.892v-1.956z"></path>
</svg>
