<!-- Generated by IcoMoon.io -->
<svg version="1.1" xmlns="http://www.w3.org/2000/svg" width="32" height="32" viewBox="0 0 32 32">
<title>rss</title>
<path d="M7.342 25.128c0.77 0.737 1.347 1.86 1.347 3.014s-0.577 2.244-1.347 2.982v0c-0.737 0.77-1.86 1.315-3.014 1.315s-2.244-0.545-3.014-1.315c-0.737-0.737-1.315-1.86-1.315-2.982s0.577-2.276 1.315-3.014v0c0.769-0.77 1.892-1.315 3.014-1.315s2.084 0.385 3.014 1.315v0zM0 11.245v5.996c3.976 0 7.727 1.507 10.549 4.328 2.854 2.982 4.553 6.733 4.553 10.677v0h6.22c0-5.803-2.469-11.062-6.22-14.813-3.976-3.944-9.266-6.188-15.101-6.188v0zM0 0.376v5.996c14.332 0 25.842 11.639 25.842 25.875h6.22c0-8.817-3.591-16.673-9.426-22.508s-13.755-9.362-22.636-9.362v0z"></path>
</svg>
