<!-- Generated by IcoMoon.io -->
<svg version="1.1" xmlns="http://www.w3.org/2000/svg" width="32" height="32" viewBox="0 0 32 32">
<title>search</title>
<path d="M31.325 27.885l-6.99-6.958c-0.032-0.032-0.064-0.064-0.096-0.096 1.379-2.084 2.18-4.585 2.18-7.246 0-7.31-5.932-13.21-13.21-13.21s-13.21 5.867-13.21 13.178c0 7.31 5.932 13.21 13.21 13.21 2.661 0 5.162-0.802 7.246-2.18 0.032 0.032 0.064 0.064 0.096 0.096l6.958 6.99c1.058 1.026 2.757 1.026 3.815 0s1.058-2.725 0-3.783v0zM13.21 22.178c-4.777 0-8.625-3.848-8.625-8.625s3.848-8.625 8.625-8.625c4.745 0 8.625 3.848 8.625 8.625s-3.88 8.625-8.625 8.625v0z"></path>
</svg>
