<svg
  width="48"
  height="48"
  viewBox="0 0 48 48"
  xmlns="http://www.w3.org/2000/svg"
>
<path
    d="M25.5 3H22.5C21.66 3 21 3.66 21 4.5V43.5C21 44.34 21.66 45 22.5 45H25.5C26.34 45 27 44.34 27 43.5V4.5C27 3.66 26.34 3 25.5 3Z"
    fill-rule="evenodd"
  />
<path
    d="M7.5 9H4.5C3.66 9 3 9.66 3 10.5V37.5C3 38.34 3.66 39 4.5 39H7.5C8.34 39 9 38.34 9 37.5V10.5C9 9.66 8.34 9 7.5 9Z"
    fill-rule="evenodd"
  />
<path
    d="M16.5 15H13.5C12.66 15 12 15.66 12 16.5V31.5C12 32.34 12.66 33 13.5 33H16.5C17.34 33 18 32.34 18 31.5V16.5C18 15.66 17.34 15 16.5 15Z"
    fill-rule="evenodd"
  />
<path
    d="M31.5 9H34.5C35.34 9 36 9.66 36 10.5V37.5C36 38.34 35.34 39 34.5 39H31.5C30.66 39 30 38.34 30 37.5V10.5C30 9.66 30.66 9 31.5 9Z"
    fill-rule="evenodd"
  />
<path
    d="M43.5 15H40.5C39.66 15 39 15.66 39 16.5V31.5C39 32.34 39.66 33 40.5 33H43.5C44.34 33 45 32.34 45 31.5V16.5C45 15.66 44.34 15 43.5 15Z"
    fill-rule="evenodd"
  />
</svg>
