<?xml version="1.0" encoding="UTF-8"?>
<svg width="48px" height="48px" viewBox="0 0 48 48" version="1.1" xmlns="http://www.w3.org/2000/svg" xmlns:xlink="http://www.w3.org/1999/xlink">
    <title>EC/Icons/General/2XL_48x48px/Icon-Audio</title>
    <g id="EC/Icons/General/2XL_48x48px/Icon-Audio" stroke="none" stroke-width="1">
        <path d="M24,2 L24,46 L10,32 L2,32 L2,16 L10,16 L24,2 Z M39,7.02943725 C43.6669048,11.696342 46.0427836,17.8057446 45.9579307,24 C45.8730779,30.1942554 43.6669047,36.303658 39,40.9705627 L35.6907403,37.661303 C43.2426407,30.1094026 43.2426407,17.7208918 35.7755931,10.2538442 L39,7.02943725 Z M31,12.6862915 C34.0855569,15.7718484 35.6283353,19.8859242 35.6283353,24.0000001 C35.6283353,28.1140759 34.1712667,32.1424418 31,35.3137085 L27.7430233,31.885312 C29.8857712,29.7425642 31.0857099,26.999847 31.0857099,23.9142901 C31.0857099,20.8287333 29.8857711,18.086016 27.7430233,15.9432682 L31,12.6862915 Z" id="Combined-Shape"></path>
    </g>
</svg>
