<?xml version="1.0" encoding="UTF-8" ?>
<svg id="a" xmlns="http://www.w3.org/2000/svg" viewBox="0 0 48 48"><path
    d="M44.58,16h-8.22l-7.25-10.44c-.39-.56-1.17-.7-1.73-.31l-.83,.58c-.56,.39-.7,1.17-.31,1.73l5.87,8.45H15.89l5.87-8.45c.39-.56,.25-1.34-.31-1.73l-.83-.58c-.56-.39-1.34-.25-1.73,.31l-7.25,10.44H3.42c-.77,0-1.4,.63-1.4,1.4v1.18c0,.77,.63,1.4,1.4,1.4h1.21l3.31,19.1c.25,1.68,1.7,2.92,3.4,2.92h25.28c1.7,0,3.14-1.24,3.4-2.92l3.31-19.1h1.25c.77,0,1.4-.63,1.4-1.4v-1.18c0-.77-.63-1.4-1.4-1.4Zm-26.95,20.87l-.69,.12c-.63,.11-1.22-.31-1.33-.93l-2.05-11.52c-.11-.63,.31-1.22,.93-1.33l.69-.12c.63-.11,1.22,.31,1.33,.93l2.05,11.52c.11,.63-.31,1.22-.93,1.33Zm7.84-1.02c0,.64-.51,1.15-1.15,1.15h-.7c-.64,0-1.15-.51-1.15-1.15v-11.7c0-.64,.51-1.15,1.15-1.15h.7c.64,0,1.15,.51,1.15,1.15v11.7Zm6.92,.21c-.11,.63-.71,1.05-1.34,.93l-.68-.12c-.63-.11-1.05-.71-.93-1.34l2.05-11.51c.11-.63,.71-1.05,1.34-.93l.68,.12c.63,.11,1.05,.71,.93,1.34l-2.05,11.51Z"
  /></svg>
