<svg
  width="48"
  height="48"
  viewBox="0 0 48 48"
  fill="none"
  xmlns="http://www.w3.org/2000/svg"
>
<path
    fill-rule="evenodd"
    clip-rule="evenodd"
    d="M41.8869 2H9.95733C7.696 2 6 3.59091 6 6V42C6 44.5359 7.85173 46 10 46H38V8H12C10 8 8 8 8 6C8 4 10 4 12 4H40V38H42L41.8869 2Z"
    fill="black"
  />
<mask
    id="mask0_1_1085055"
    style="mask-type:alpha"
    maskUnits="userSpaceOnUse"
    x="6"
    y="2"
    width="36"
    height="44"
  >
<path
      fill-rule="evenodd"
      clip-rule="evenodd"
      d="M41.8869 2H9.95733C7.696 2 6 3.59091 6 6V42C6 44.5359 7.85173 46 10 46H38V8H12C10 8 8 8 8 6C8 4 10 4 12 4H40V38H42L41.8869 2Z"
      fill="white"
    />
</mask>
<g mask="url(#mask0_1_1085055)">
</g>
</svg>
