<svg
  width="48"
  height="48"
  viewBox="0 0 48 48"
  xmlns="http://www.w3.org/2000/svg"
>
<path
    d="M42.0001 7.83002C42.0001 7.83002 41.7901 7.83002 41.7001 7.83002L30.0001 10.17L18.3001 7.83002C18.3001 7.83002 18.1201 7.83002 18.0301 7.83002C17.9401 7.83002 17.8501 7.83002 17.7601 7.83002L5.76006 10.23C5.07006 10.38 4.56006 10.98 4.56006 11.7V38.64C4.56006 39.48 5.25006 40.14 6.06006 40.14C6.15006 40.14 6.27006 40.14 6.36006 40.14L18.0601 37.8L29.7601 40.14C29.7601 40.14 29.9401 40.14 30.0301 40.14C30.1201 40.14 30.2101 40.14 30.3001 40.14L42.3001 37.74C42.9901 37.59 43.5001 36.99 43.5001 36.27V9.33002C43.5001 8.49002 42.8101 7.83002 42.0001 7.83002ZM7.50006 12.96L16.5001 11.16V35.04L7.50006 36.84V12.96ZM19.5001 11.16L28.5001 12.96V36.84L19.5001 35.04V11.16ZM40.5001 35.04L31.5001 36.84V12.96L40.5001 11.16V35.04Z"
    fill-rule="evenodd"
  />
</svg>
