<?xml version="1.0" encoding="utf-8" ?>
<!-- Generator: Adobe Illustrator 27.10.0, SVG Export Plug-In . SVG Version: 6.00 Build 0)  -->
<svg
  version="1.1"
  id="Layer_1"
  xmlns="http://www.w3.org/2000/svg"
  xmlns:xlink="http://www.w3.org/1999/xlink"
  x="0px"
  y="0px"
  viewBox="0 0 48 48"
  enable-background="new 0 0 48 48"
  xml:space="preserve"
>
<path
    fill-rule="evenodd"
    clip-rule="evenodd"
    d="M39,6h-6V3h-3v3H17.99V3h-3v3H9C7.34,6,6,7.34,6,9v30
  c0,1.66,1.34,3,3,3h30c1.66,0,3-1.34,3-3V9C42,7.34,40.66,6,39,6z M39,39H9V19.5h30V39z M39,16.5H9V9h5.99v3h3V9H30v3h3V9h6V16.5z"
  />
</svg>
