<svg width="48" height="48" viewBox="0 0 48 48" fill="none" xmlns="http://www.w3.org/2000/svg">
<path fill-rule="evenodd" clip-rule="evenodd" d="M10 8V2H16V8C16 9.64924 14.8395 11 13 11C11.1588 11 10 9.76524 10 8ZM32 8V2H38V8C38 9.81167 36.6577 11 35 11C33.3423 11 32 9.81167 32 8ZM42 42H36V36H42V42ZM42 34H36V28H42V34ZM42 26H36V20H42V26ZM32 42H26V36H32V42ZM32 34H26V28H32V34ZM32 26H26V20H32V26ZM22 42H16V36H22V42ZM22 34H16V28H22V34ZM22 26H16V20H22V26ZM12 42H6V36H12V42ZM12 34H6V28H12V34ZM12 26H6V20H12V26ZM44 18H4V44H44V18ZM2 46V6H8V8C8 10.5141 10.1958 13 13 13C15.8042 13 18 10.5141 18 8V6H30V8C30 10.5141 32.1975 13 35 13C37.8025 13 40 10.5141 40 8V6H46V46H2Z" fill="black"/>
<mask id="mask0_1_1084985" style="mask-type:alpha" maskUnits="userSpaceOnUse" x="2" y="2" width="44" height="44">
<path fill-rule="evenodd" clip-rule="evenodd" d="M10 8V2H16V8C16 9.64924 14.8395 11 13 11C11.1588 11 10 9.76524 10 8ZM32 8V2H38V8C38 9.81167 36.6577 11 35 11C33.3423 11 32 9.81167 32 8ZM42 42H36V36H42V42ZM42 34H36V28H42V34ZM42 26H36V20H42V26ZM32 42H26V36H32V42ZM32 34H26V28H32V34ZM32 26H26V20H32V26ZM22 42H16V36H22V42ZM22 34H16V28H22V34ZM22 26H16V20H22V26ZM12 42H6V36H12V42ZM12 34H6V28H12V34ZM12 26H6V20H12V26ZM44 18H4V44H44V18ZM2 46V6H8V8C8 10.5141 10.1958 13 13 13C15.8042 13 18 10.5141 18 8V6H30V8C30 10.5141 32.1975 13 35 13C37.8025 13 40 10.5141 40 8V6H46V46H2Z" fill="white"/>
</mask>
<g mask="url(#mask0_1_1084985)">
</g>
</svg>
