<?xml version="1.0" encoding="UTF-8" ?>
<svg xmlns="http://www.w3.org/2000/svg" viewBox="0 0 48 48"><defs><style
    >.cls-1{fill:none;}.cls-2{fill-rule:evenodd;}</style></defs><g
    id="transparant_bg"
  ><rect class="cls-1" width="48" height="48" /></g><g id="Layer_1"><path
      class="cls-2"
      d="M26.7,24l5.3,5.32-2.69,2.68-5.3-5.32-5.32,5.29-2.69-2.68,5.32-5.29-5.32-5.29,2.69-2.68,5.46,5.26,5.16-5.29,2.69,2.68-5.3,5.32ZM31.01,7.42c2.12,.89,4.05,2.19,5.72,3.85,1.65,1.65,2.95,3.57,3.85,5.72,.94,2.22,1.42,4.58,1.42,7.01s-.48,4.79-1.42,7.01c-.89,2.12-2.19,4.05-3.85,5.71-1.65,1.65-3.58,2.95-5.72,3.85-2.22,.94-4.58,1.42-7.01,1.42s-4.8-.48-7.01-1.42c-2.12-.89-4.05-2.19-5.72-3.85-1.65-1.65-2.95-3.58-3.85-5.71-.94-2.22-1.42-4.58-1.42-7.01s.48-4.79,1.42-7.01c.89-2.13,2.19-4.05,3.85-5.72s3.58-2.95,5.72-3.85c2.22-.94,4.58-1.42,7.01-1.42s4.79,.48,7.01,1.42Zm1.56-3.68c2.6,1.09,4.95,2.68,6.99,4.71,2.02,2.02,3.61,4.36,4.71,6.98,1.15,2.71,1.74,5.59,1.74,8.57s-.59,5.86-1.74,8.57c-1.09,2.6-2.68,4.95-4.71,6.98-2.02,2.02-4.38,3.61-6.99,4.71-2.71,1.15-5.59,1.73-8.57,1.73s-5.86-.59-8.57-1.73c-2.6-1.09-4.95-2.68-6.98-4.71-2.02-2.02-3.61-4.38-4.71-6.98-1.15-2.71-1.73-5.59-1.73-8.57s.59-5.86,1.73-8.57c1.09-2.6,2.68-4.95,4.71-6.98,2.02-2.02,4.38-3.61,6.98-4.71,2.71-1.15,5.59-1.74,8.57-1.74s5.86,.59,8.57,1.74Z"
    /></g></svg>
