<svg width="48" height="48" viewBox="0 0 48 48" fill="none" xmlns="http://www.w3.org/2000/svg">
<path fill-rule="evenodd" clip-rule="evenodd" d="M42 10V46H14V16L20 10H42ZM38 14H24V18H18V42H38V14ZM12 38H8V8L16.0268 2H40V8H36V6H20V8L16 12H12V38Z" fill="black"/>
<mask id="mask0_1_1084976" style="mask-type:alpha" maskUnits="userSpaceOnUse" x="8" y="2" width="34" height="44">
<path fill-rule="evenodd" clip-rule="evenodd" d="M42 10V46H14V16L20 10H42ZM38 14H24V18H18V42H38V14ZM12 38H8V8L16.0268 2H40V8H36V6H20V8L16 12H12V38Z" fill="white"/>
</mask>
<g mask="url(#mask0_1_1084976)">
</g>
</svg>
