<?xml version="1.0" encoding="UTF-8"?>
<svg width="48px" height="48px" viewBox="0 0 48 48" version="1.1" xmlns="http://www.w3.org/2000/svg" xmlns:xlink="http://www.w3.org/1999/xlink">
    <title>EC/Icons/General/2XL_48x48px/Icon-Data</title>
    <defs>
        <path d="M24,18 C13.4442272,18 8,13.7940865 8,12 C8,10.2059135 13.4442272,6 24,6 C34.5567206,6 40,10.2059135 40,12 C40,13.7940865 34.5567206,18 24,18 L24,18 Z M40,24 C40,26.1251688 34.5567206,30 24,30 C13.4442272,30 8,26.1251688 8,24 L8,18 C11.7315325,20.2539397 17.5103371,21.70914 24,22 C30.4915585,21.70914 36.2684675,20.2539397 40,18 L40,24 Z M40,36 C40,38.1254595 34.5567206,42 24,42 C13.4442272,42 8,38.1254595 8,36 L8,30 C11.7315325,32.2537704 17.5103371,33.7088617 24,34 C30.4915585,33.7088617 36.2684675,32.2537704 40,30 L40,36 Z M24,2 C12.9713275,2 4,6.31954061 4,12 L4,36 C4,41.6804595 12.9713275,46 24,46 C35.0286724,46 44,41.6804595 44,36 L44,12 C44,6.31954061 35.0286724,2 24,2 L24,2 Z" id="path-1"></path>
    </defs>
    <g id="EC/Icons/General/2XL_48x48px/Icon-Data" stroke="none" stroke-width="1">
        <mask id="mask-2">
            <use xlink:href="#path-1"></use>
        </mask>
        <use id="Data" xlink:href="#path-1"></use>
    </g>
</svg>
