<?xml version="1.0" encoding="UTF-8" ?>
<svg xmlns="http://www.w3.org/2000/svg" viewBox="0 0 48 48"><defs><style
    >.cls-1{fill:none;}.cls-2{fill-rule:evenodd;}</style></defs><g
    id="transparant_bg"
  ><rect class="cls-1" width="48" height="48" /></g><g id="Layer_1"><path
      class="cls-2"
      d="M24,18c-10.56,0-16-4.21-16-6s5.44-6,16-6,16,4.21,16,6-5.44,6-16,6h0Zm16,6c0,2.13-5.44,6-16,6s-16-3.87-16-6v-6c3.73,2.25,9.51,3.71,16,4,6.49-.29,12.27-1.75,16-4v6Zm0,12c0,2.13-5.44,6-16,6s-16-3.87-16-6v-6c3.73,2.25,9.51,3.71,16,4,6.49-.29,12.27-1.75,16-4v6ZM24,2C12.97,2,4,6.32,4,12v24c0,5.68,8.97,10,20,10s20-4.32,20-10V12c0-5.68-8.97-10-20-10h0Z"
    /></g></svg>
