<svg
  width="48"
  height="48"
  viewBox="0 0 48 48"
  xmlns="http://www.w3.org/2000/svg"
>
<path
    fill-rule="evenodd"
    clip-rule="evenodd"
    d="M40.5 18C40.5 16.2 39.69 14.61 38.43 13.5C39.69 12.39 40.5 10.8 40.5 9C40.5 5.7 37.8 3 34.5 3H13.5C10.2 3 7.5 5.7 7.5 9C7.5 10.8 8.31 12.39 9.57 13.5C8.31 14.61 7.5 16.2 7.5 18C7.5 19.8 8.31 21.39 9.57 22.5C8.31 23.61 7.5 25.2 7.5 27C7.5 30.3 10.2 33 13.5 33H22.5V35.82C20.97 36.3 19.77 37.5 19.29 39.03H9V42.03H19.29C19.92 44.04 21.78 45.51 24 45.51C26.22 45.51 28.08 44.04 28.71 42.03H39V39.03H28.71C28.23 37.5 27.03 36.3 25.5 35.82V33H34.5C37.8 33 40.5 30.3 40.5 27C40.5 25.2 39.69 23.61 38.43 22.5C39.69 21.39 40.5 19.8 40.5 18ZM24 42.48C22.92 42.48 22.02 41.61 22.02 40.5C22.02 39.39 22.89 38.52 24 38.52C25.11 38.52 25.98 39.39 25.98 40.5C25.98 41.61 25.11 42.48 24 42.48ZM10.5 8.97C10.5 7.32 11.85 5.97 13.5 5.97H34.5C36.15 5.97 37.5 7.32 37.5 8.97C37.5 10.62 36.15 11.97 34.5 11.97H13.5C11.85 11.97 10.5 10.62 10.5 8.97ZM37.5 26.97C37.5 28.62 36.15 29.97 34.5 29.97H13.5C11.85 29.97 10.5 28.62 10.5 26.97C10.5 25.32 11.82 24 13.47 23.97C13.47 23.97 13.47 23.97 13.5 23.97H34.5C34.5 23.97 34.5 23.97 34.53 23.97C36.18 23.97 37.5 25.32 37.5 26.97ZM34.5 20.97H13.5C13.5 20.97 13.5 20.97 13.47 20.97C11.82 20.97 10.5 19.62 10.5 17.97C10.5 16.32 11.85 14.97 13.5 14.97H34.5C36.15 14.97 37.5 16.32 37.5 17.97C37.5 19.62 36.18 20.94 34.53 20.97C34.53 20.97 34.53 20.97 34.5 20.97Z"
  />
</svg>
