<svg
  width="48"
  height="48"
  viewBox="0 0 48 48"
  xmlns="http://www.w3.org/2000/svg"
>
<path
    fill-rule="evenodd"
    clip-rule="evenodd"
    d="M31.77 13.5H18.63L14.28 18H6V15H13.02L17.37 10.5H31.77C32.43 8.34 34.41 6.75 36.78 6.75C39.66 6.75 42.03 9.12 42.03 12C42.03 14.88 39.66 17.25 36.78 17.25C34.41 17.25 32.43 15.66 31.77 13.5ZM39.03 12C39.03 10.77 38.01 9.75 36.78 9.75C35.55 9.75 34.53 10.77 34.53 12C34.53 13.23 35.55 14.25 36.78 14.25C38.01 14.25 39.03 13.23 39.03 12Z"
  />
<path
    fill-rule="evenodd"
    clip-rule="evenodd"
    d="M31.77 34.4999C32.43 32.3399 34.41 30.7499 36.78 30.7499C39.66 30.7499 42.03 33.1199 42.03 35.9999C42.03 38.8799 39.66 41.2499 36.78 41.2499C34.41 41.2499 32.43 39.6599 31.77 37.4999H20.04L17.22 31.4999H6V28.4999H17.19L19.98 22.4699H25.74C26.37 20.3099 28.38 18.6899 30.75 18.6899C33.63 18.6899 36 21.0599 36 23.9399C36 26.8199 33.63 29.1899 30.75 29.1899C28.41 29.1899 26.43 27.5999 25.77 25.4699H21.93L19.83 30.0299L21.93 34.4999H31.77ZM33.06 23.9099C33.06 22.6799 32.04 21.6599 30.81 21.6599C29.58 21.6599 28.56 22.6799 28.56 23.9099C28.56 25.1399 29.58 26.1599 30.81 26.1599C32.04 26.1599 33.06 25.1399 33.06 23.9099ZM34.53 35.9999C34.53 37.2299 35.55 38.2499 36.78 38.2499C38.01 38.2499 39.03 37.2299 39.03 35.9999C39.03 34.7699 38.01 33.7499 36.78 33.7499C35.55 33.7499 34.53 34.7699 34.53 35.9999Z"
  />
</svg>
