<?xml version="1.0" encoding="UTF-8"?>
<svg width="48px" height="48px" viewBox="0 0 48 48" version="1.1" xmlns="http://www.w3.org/2000/svg" xmlns:xlink="http://www.w3.org/1999/xlink">
    <title>EC/Icons/General/2XL_48x48px/Icon-Digital</title>
    <g id="EC/Icons/General/2XL_48x48px/Icon-Digital" stroke="none" stroke-width="1">
        <path d="M40,28 L34,28 L34,20 L26,20 L26,26 L20,26 L20,34 L28,34 L28,40 L14,40 L14,26 L2,26 L2,2 L26,2 L26,14 L34,14 L34,8 L40,8 L40,14 L46,14 L46,34 L40,34 L40,28 Z M8,8 L8,14 L8,20 L14,20 L20,20 L20,14 L20,8 L14,8 L8,8 Z M40,2 L46,2 L46,8 L40,8 L40,2 Z M28,28 L34,28 L34,34 L28,34 L28,28 Z M2,34 L8,34 L8,40 L2,40 L2,34 Z M8,40 L14,40 L14,46 L8,46 L8,40 Z M40,40 L46,40 L46,46 L40,46 L40,40 Z M28,40 L34,40 L34,46 L28,46 L28,40 Z M10,10 L18,10 L18,18 L10,18 L10,10 Z" id="Shape"></path>
    </g>
</svg>
