<svg
  width="48"
  height="48"
  viewBox="0 0 48 48"
  xmlns="http://www.w3.org/2000/svg"
>
<path d="M24 13.4999H12V16.4999H24V13.4999Z" fill-rule="evenodd" />
<path d="M30 19.4999H12V22.4999H30V19.4999Z" fill-rule="evenodd" />
<path
    fill-rule="evenodd"
    clip-rule="evenodd"
    d="M37.5 4.73999V30.03H43.5V37.5C43.5 40.8 40.59 43.5 36.99 43.5H12C7.86 43.5 4.5 40.14 4.5 36V4.73999H37.5ZM12 40.5C14.58 40.5 17.16 39.12 17.16 36V30.03H34.5V7.73999H7.5V36C7.5 38.49 9.42 40.5 12 40.5ZM36.99 40.5C38.94 40.5 40.5 39.15 40.5 37.5V33.03H20.16V36C20.16 37.74 19.62 39.27 18.66 40.5H36.99Z"
  />
</svg>
