<svg
  width="48"
  height="48"
  viewBox="0 0 48 48"
  xmlns="http://www.w3.org/2000/svg"
>
<path
    fill-rule="evenodd"
    clip-rule="evenodd"
    d="M39.5396 6.81L44.0696 11.34C44.5796 11.88 44.8796 12.6 44.8796 13.32C44.8796 14.04 44.5796 14.76 44.0696 15.27L25.9796 33.36C25.6496 33.69 25.2896 33.93 24.8696 34.05L17.3996 35.85C17.2496 35.94 17.0996 35.94 16.9196 35.94C16.4396 35.94 15.9296 35.76 15.5396 35.37C15.0296 34.86 14.8496 34.08 15.0596 33.39L16.7996 26.13C16.9496 25.62 17.1896 25.2 17.5196 24.9L35.6096 6.81C36.6896 5.73 38.4596 5.73 39.5396 6.81ZM18.3596 32.58L24.0896 31.2L36.5396 18.66L32.2796 14.4L19.6496 27.03L18.3596 32.58ZM37.5596 9.09L34.3796 12.27L38.6396 16.53V16.56L41.8196 13.35L37.5596 9.09Z"
  />
<path
    d="M9 41.9399H39V26.9399H42V41.9399C42 43.5899 40.65 44.9399 39 44.9399H9C7.35 44.9399 6 43.5899 6 41.9399V11.9399C6 10.2899 7.35 8.93994 9 8.93994H24.03V11.9399H9V41.9399Z"
    fill-rule="evenodd"
  />
</svg>
