<svg
  width="48"
  height="48"
  viewBox="0 0 48 48"
  xmlns="http://www.w3.org/2000/svg"
>
<path
    fill-rule="evenodd"
    clip-rule="evenodd"
    d="M42.18 9H5.88C4.29 9 3 10.29 3 11.88V36.15C3 37.74 4.29 39.03 5.88 39.03H42.18C43.77 39.03 45.06 37.74 45.06 36.15V11.88C45.06 10.29 43.77 9 42.18 9ZM42.06 12L41.94 11.85H42.06V12ZM39.99 11.88L23.97 27.03L8.19 12L39.96 11.88H39.99ZM6.03 12L5.88 12.15V12H6.03ZM6.03 36.12L5.91 13.92L21.9 29.19C22.47 29.73 23.22 30.03 23.97 30.03C24.72 30.03 25.44 29.76 26.04 29.22L42.09 14.07V36.03L6.06 36.15L6.03 36.12Z"
  />
</svg>
