<?xml version="1.0" encoding="UTF-8" ?>
<svg xmlns="http://www.w3.org/2000/svg" viewBox="0 0 48 48"><defs><style
    >.cls-1{fill:none;}.cls-2{fill-rule:evenodd;}</style></defs><g
    id="transparant_bg"
  ><rect class="cls-1" width="48" height="48" /></g><g id="Layer_1"><path
      class="cls-2"
      d="M33.34,4.45c.03-.73-.14-2.23-1.06-2.62-.92-.39-2.14,.55-2.62,1.06-2.63,2.75-5.33,8.01-7.31,12.11,2.62-1.06,6.3,.5,7.36,3.13,.08-.22,.16-.45,.24-.68,1.56-4.41,3.25-9.2,3.39-12.99Zm-6.3,19.85c1.93-3.13-.78-6.65-3.96-6.17-1.34,.2-2.27,.91-2.81,1.78-.03,.05-.67,1.58-.58,2.62,.38,4.38,5.72,4.4,7.34,1.78Zm-7.35,21.97h8l-2-12-4-4-2,16ZM1.74,23.59c-.07-1,1.2-1.83,1.86-2.13,3.44-1.6,8.48-2.27,13.11-2.88,.24-.03,.48-.06,.71-.09-1.86,2.13-1.58,6.12,.56,7.98-4.55,.09-10.46,.07-14.11-1.02-.67-.2-2.06-.86-2.13-1.86Zm32.39,15.66c.62,.39,2,1,2.8,.39,.8-.6,.59-2.13,.39-2.8-1.07-3.65-4.27-8.62-6.83-12.38-.39,2.8-3.59,5.21-6.39,4.81,.15,.18,.31,.36,.47,.55,3.04,3.55,6.34,7.42,9.56,9.43Z"
    /></g></svg>
