<?xml version="1.0" encoding="UTF-8"?>
<svg width="48px" height="48px" viewBox="0 0 48 48" version="1.1" xmlns="http://www.w3.org/2000/svg" xmlns:xlink="http://www.w3.org/1999/xlink">
    <title>EC/Icons/General/2XL_48x48px/Icon-Energy</title>
    <defs>
        <path d="M23.3917829,17.8574686 C26.5713409,17.3818824 29.2863553,20.9011111 27.3523847,24.031356 C25.7320739,26.6543576 20.3856522,26.6383471 20.0086211,22.2552763 C19.9189785,21.212771 20.5573043,19.6803064 20.5862384,19.6335483 C21.1189457,18.7713437 22.0565532,18.0572366 23.3917829,17.8574686 Z M22,30 L26,34 L28,46 L20,46 L22,30 Z M30.8064367,24.1978809 C33.3647937,27.9637772 36.5668906,32.933157 37.634576,36.5824081 C37.8319583,37.2566377 38.0395705,38.7814941 37.240935,39.3833092 C36.4422995,39.9851242 35.0567552,39.3757019 34.4400339,38.9896682 C31.0590493,36.8737229 27.5798484,32.7079167 24.4173526,29.0124011 C27.2182537,29.4060421 30.4127957,26.998782 30.8064367,24.1978809 Z M17.7327627,18.2208401 C15.8771476,20.3554811 16.1561735,24.3457373 18.2908145,26.2013525 C13.739087,26.2959171 7.82742747,26.2749033 4.18540486,25.182815 C3.51244622,24.981142 2.12052028,24.3247639 2.05076381,23.3271999 C1.98100733,22.3296358 3.24673344,21.4995357 3.90637896,21.1925588 C7.52237617,19.5094529 12.9110239,18.8604102 17.7327627,18.2208401 Z M32.5960848,1.56292451 C33.5165897,1.95365564 33.6815866,3.4582834 33.6556323,4.18539648 C33.5136622,8.17138768 31.6455686,13.2673672 30.0264062,17.8539267 C28.9668587,15.2314547 25.2848393,13.6685302 22.6623674,14.7280777 C24.6445507,10.6295273 27.3471114,5.37174018 29.9736129,2.62247196 C30.4588217,2.11441907 31.67558,1.17219339 32.5960848,1.56292451 Z" id="path-1"></path>
    </defs>
    <g id="EC/Icons/General/2XL_48x48px/Icon-Energy" stroke="none" stroke-width="1">
        <mask id="mask-2">
            <use xlink:href="#path-1"></use>
        </mask>
        <use id="Energy" xlink:href="#path-1"></use>
    </g>
</svg>
