<svg
  width="48"
  height="48"
  viewBox="0 0 48 48"
  xmlns="http://www.w3.org/2000/svg"
>
<path
    d="M13.9875 6C13.5675 6 13.1775 6.24 12.9375 6.6L3.1575 23.4C2.9475 23.76 2.9475 24.24 3.1575 24.6L12.9675 41.4C13.1775 41.76 13.5675 42 14.0175 42H33.6375C34.0575 42 34.4475 41.76 34.6875 41.4L44.4975 24.6C44.7075 24.24 44.7075 23.76 44.4975 23.4L34.6875 6.6C34.4775 6.24 34.0875 6 33.6375 6H13.9875Z"
  />
<path
    d="M23.7055 21.8911L31.1302 14.4664L33.2515 16.5878L25.8269 24.0124L33.2515 31.437L31.1302 33.5586L23.7055 26.1338L16.281 33.5583L14.1597 31.437L21.5842 24.0124L14.1597 16.5879L16.281 14.4665L23.7055 21.8911Z"
    fill="white"
  />
</svg>
