<svg
  width="48"
  height="48"
  viewBox="0 0 48 48"
  fill="none"
  xmlns="http://www.w3.org/2000/svg"
>
<circle cx="24" cy="24" r="22" fill="black" />
<path
    fill-rule="evenodd"
    clip-rule="evenodd"
    d="M28 23H20C19.9855 23.1985 19.9819 24.6758 20 25H28L27 27H20C21 30 23.9189 30.6556 25.4664 30.6556C27.3219 30.6556 28.9019 30.0321 30 29V33C28.7461 33.5624 27.1841 34 25.5099 34C22.694 34 19.8084 32.7631 18 31C16.7606 29.8025 16.4023 28.7896 16 27H14L15 25H16C15.9855 24.7883 15.9855 23.3109 16 23H14L15 21H16C16.4023 19.2501 17.3884 17.8372 18.5952 16.6662C20.4217 14.8898 22.8027 14 25.7744 14C27.398 14 28.8077 14.4641 30 15L29.1484 18.4558C28.3293 17.7082 27.137 17.3411 25.557 17.3411C23.9805 17.3411 21 18 20 21H29L28 23Z"
    fill="white"
  />
</svg>
