<svg
  width="48"
  height="48"
  viewBox="0 0 48 48"
  xmlns="http://www.w3.org/2000/svg"
>
<path
    d="M18.0894 30.78C19.8894 32.61 22.0794 33.54 24.6294 33.54L24.5694 33.63C27.3294 33.63 29.7594 32.43 31.7394 30.12L32.5194 29.19V33.57L32.3694 33.69C30.2694 35.55 27.6294 36.51 24.5394 36.51C21.1494 36.51 18.2694 35.28 15.9594 32.91C14.6394 31.53 13.6794 29.88 13.1094 27.99H9.14941L10.3794 25.08H12.5994C12.5694 24.75 12.5394 24.39 12.5394 24.03C12.5394 23.76 12.5694 23.46 12.5994 23.19H9.17941L10.4094 20.28H13.1094C13.6494 18.33 14.6394 16.62 16.0194 15.18C18.3294 12.78 21.2094 11.58 24.5994 11.58C27.9894 11.58 30.9294 12.81 33.2994 15.27L33.5094 15.48L32.2794 18.42L31.7994 17.88C29.7294 15.6 27.3294 14.46 24.5994 14.46C22.0494 14.46 19.8294 15.39 18.0594 17.22C17.2194 18.12 16.5594 19.11 16.1094 20.25H31.4094L30.2394 23.16H15.4494C15.3894 23.43 15.3894 23.7 15.3894 24C15.3894 24.2496 15.4183 24.4992 15.446 24.7388C15.4582 24.8448 15.4702 24.9488 15.4794 25.05H29.8194L28.5894 27.96H16.1994C16.6494 29.01 17.2794 29.97 18.0894 30.78Z"
    fill-rule="evenodd"
  />
<path
    fill-rule="evenodd"
    clip-rule="evenodd"
    d="M3 24C3 12.39 12.39 3 24 3C35.61 3 45 12.39 45 24C45 35.61 35.61 45 24 45C12.39 45 3 35.61 3 24ZM42 24C42 14.07 33.93 6 24 6C14.07 6 6 14.07 6 24C6 33.93 14.07 42 24 42C33.93 42 42 33.93 42 24Z"
  />
</svg>
