<svg
  width="48"
  height="48"
  viewBox="0 0 48 48"
  fill="none"
  xmlns="http://www.w3.org/2000/svg"
>
<path
    fill-rule="evenodd"
    clip-rule="evenodd"
    d="M22.0005 40H5.00049V17H43.0005V24H45.0005V6H38.9996V7.79972C38.9996 10.06 36.5472 12 33.9996 12C31.4521 12 28.9895 10.0628 28.9895 7.79972V6H18.9996V7.79972C18.9996 10.06 16.5472 12 13.9996 12C11.4521 12 8.98952 10.0628 8.98952 7.79972V6H3.00049V42H22.0005V40Z"
    fill="black"
  />
<path
    fill-rule="evenodd"
    clip-rule="evenodd"
    d="M11 7.33395V2H17V7.33395C17 8.8 15.8396 10 14 10C12.1604 10 11 8.90326 11 7.33395Z"
    fill="black"
  />
<path
    fill-rule="evenodd"
    clip-rule="evenodd"
    d="M31 7.33395V2H37V7.33395C37 8.94419 35.6575 10 33.9969 10C32.3362 10 31 8.94419 31 7.33395Z"
    fill="black"
  />
<path
    d="M45.0005 39V45H26.0005V26H32.0005V28H28.0005V43H43.0005V39H45.0005Z"
    fill="black"
  />
<path
    d="M45.0005 26V34H42.9639L43.0005 29.5L36.5005 36L35.0005 34.5L41.5005 28H37.0005V26H45.0005Z"
    fill="black"
  />
<path d="M21.9998 32.9999H16.9998V37.9999H21.9998V32.9999Z" fill="black" />
<path d="M21.9998 25.8481H16.9998V30.8481H21.9998V25.8481Z" fill="black" />
<path d="M13.0005 33H8.00049V38H13.0005V33Z" fill="black" />
<path d="M13.0005 26H8.00049V31H13.0005V26Z" fill="black" />
<path d="M40.0005 19H35.0005V24H40.0005V19Z" fill="black" />
<path d="M31.0005 19H26.0005V24H31.0005V19Z" fill="black" />
<path d="M22.0005 19H17.0005V24H22.0005V19Z" fill="black" />
<path d="M13.0005 19H8.00049V24H13.0005V19Z" fill="black" />
</svg>
