<?xml version="1.0" encoding="UTF-8"?>
<svg width="48px" height="48px" viewBox="0 0 48 48" version="1.1" xmlns="http://www.w3.org/2000/svg" xmlns:xlink="http://www.w3.org/1999/xlink">
    <title>EC/Icons/General/2XL_48x48px/Icon-External-events</title>
    <g id="ArtEC/Icons/General/2XL_48x48px/Icon-External-eventsboard" stroke="none" stroke-width="1">
        <path d="M21.5475977,41 L4.95238281,41 L4.95238281,18 L42.0476172,18 L42.0476172,25 L44,25 L44,7 L38.1420706,7 L38.1420706,8.79972 C38.1420706,11.06 35.7480588,13 33.2611136,13 C30.7741684,13 28.370297,11.0628 28.370297,8.79972 L28.370297,7 L18.6182425,7 L18.6182425,8.79972 C18.6182425,11.06 16.2242307,13 13.7372855,13 C11.2503402,13 8.84643962,11.0628 8.84643962,8.79972 L8.84643962,7 L3,7 L3,43 L21.5475977,43 L21.5475977,41 Z" id="Path"></path>
        <path d="M11,8.33395 L11,3 L17,3 L17,8.33395 C17,9.8 15.8395,11 14,11 C12.1604,11 11,9.90326 11,8.33395 Z" id="Path"></path>
        <path d="M30,8.33395 L30,3 L36,3 L36,8.33395 C36,9.94419 34.6575,11 32.9968,11 C31.3362,11 30,9.94419 30,8.33395 Z" id="Path"></path>
        <polygon id="Path" points="44 40 44 46 25 46 25 27 31 27 31 29 27 29 27 44 42 44 42 40"></polygon>
        <polygon id="Path" points="44 27 44 35 41.9635 35 42 30.5 35.5 37 34 35.5 40.5 29 36 29 36 27"></polygon>
        <polygon id="Path" points="22 34 17 34 17 39 22 39"></polygon>
        <polygon id="Path" points="22 27 17 27 17 32 22 32"></polygon>
        <polygon id="Path" points="13 34 8 34 8 39 13 39"></polygon>
        <polygon id="Path" points="13 27 8 27 8 32 13 32"></polygon>
        <polygon id="Path" points="39 20 34 20 34 25 39 25"></polygon>
        <polygon id="Path" points="30 20 25 20 25 25 30 25"></polygon>
        <polygon id="Path" points="22 20 17 20 17 25 22 25"></polygon>
        <polygon id="Path" points="13 20 8 20 8 25 13 25"></polygon>
    </g>
</svg>
