<?xml version="1.0" encoding="UTF-8"?>
<svg width="48px" height="48px" viewBox="0 0 48 48" version="1.1" xmlns="http://www.w3.org/2000/svg" xmlns:xlink="http://www.w3.org/1999/xlink">
    <title>EC/Icons/General/2XL_48x48px/Icon-External-events</title>
    <g id="EC/Icons/General/2XL_48x48px/Icon-External-events" stroke="none" stroke-width="1" fill="none" fill-rule="evenodd">
        <g id="EC-Icon-External-events" transform="translate(1.000000, 1.000000)" fill="#000000">
            <path d="M9.95236,19.4418605 L1.04761905,19.4418605 L1.04761905,7.6744186 L20.95236,7.6744186 L20.95236,11.255814 L21.999979,11.255814 L21.999979,2.04651163 L18.8567029,2.04651163 L18.8567029,2.9672986 C18.8567029,4.12372093 17.5721124,5.11627907 16.2376552,5.11627907 C14.9031981,5.11627907 13.6133171,4.12515349 13.6133171,2.9672986 L13.6133171,2.04651163 L8.38051238,2.04651163 L8.38051238,2.9672986 C8.38051238,4.12372093 7.0959219,5.11627907 5.76146476,5.11627907 C4.42700762,5.11627907 3.13711095,4.12515349 3.13711095,2.9672986 L3.13711095,2.04651163 L0,2.04651163 L0,20.4651163 L9.95236,20.4651163 L9.95236,19.4418605 Z" id="Path"></path>
            <path d="M4.19019333,2.72899767 L4.19019333,0 L7.33305048,0 L7.33305048,2.72899767 C7.33305048,3.47906977 6.72516952,4.09302326 5.7616219,4.09302326 C4.7980219,4.09302326 4.19019333,3.53190047 4.19019333,2.72899767 Z" id="Path"></path>
            <path d="M14.6663838,2.72899767 L14.6663838,0 L17.809241,0 L17.809241,2.72899767 C17.809241,3.5528414 17.1060267,4.09302326 16.2361362,4.09302326 C15.3662981,4.09302326 14.6663838,3.5528414 14.6663838,2.72899767 Z" id="Path"></path>
            <polygon id="Path" fill-rule="nonzero" points="21.999979 18.9302326 21.999979 22 12.0475981 22 12.0475981 12.2790698 15.1904552 12.2790698 15.1904552 13.3023256 13.0952171 13.3023256 13.0952171 20.9767442 20.95236 20.9767442 20.95236 18.9302326"></polygon>
            <polygon id="Path" fill-rule="nonzero" points="21.999979 12.2790698 21.999979 16.372093 20.933241 16.372093 20.95236 14.0697674 17.5475981 17.3953488 16.7618838 16.627907 20.1666457 13.3023256 17.8095029 13.3023256 17.8095029 12.2790698"></polygon>
            <polygon id="Path" fill-rule="nonzero" points="9.95194095 15.860414 7.33289333 15.860414 7.33289333 18.4185535 9.95194095 18.4185535"></polygon>
            <polygon id="Path" fill-rule="nonzero" points="9.95194095 12.2014047 7.33289333 12.2014047 7.33289333 14.7595442 9.95194095 14.7595442"></polygon>
            <polygon id="Path" fill-rule="nonzero" points="5.23807429 15.8604651 2.61904762 15.8604651 2.61904762 18.4186047 5.23807429 18.4186047"></polygon>
            <polygon id="Path" fill-rule="nonzero" points="5.23807429 12.2790698 2.61904762 12.2790698 2.61904762 14.8372093 5.23807429 14.8372093"></polygon>
            <polygon id="Path" fill-rule="nonzero" points="19.3809314 8.69767442 16.7618838 8.69767442 16.7618838 11.255814 19.3809314 11.255814"></polygon>
            <polygon id="Path" fill-rule="nonzero" points="14.6666457 8.69767442 12.0475981 8.69767442 12.0475981 11.255814 14.6666457 11.255814"></polygon>
            <polygon id="Path" fill-rule="nonzero" points="9.95236 8.69767442 7.33331238 8.69767442 7.33331238 11.255814 9.95236 11.255814"></polygon>
            <polygon id="Path" fill-rule="nonzero" points="5.23807429 8.69767442 2.61904762 8.69767442 2.61904762 11.255814 5.23807429 11.255814"></polygon>
        </g>
    </g>
</svg>
