<svg width="48" height="48" viewBox="0 0 48 48" fill="none" xmlns="http://www.w3.org/2000/svg">
<path fill-rule="evenodd" clip-rule="evenodd" d="M19 31C19 27.5399 20.236 26.5936 20.8 25.4545C21.364 24.3155 22.7175 23.1453 24.4104 21.7538C26.1336 20.3622 27.1687 19.4135 27.4815 19.0032C28.0142 18.3079 28.1333 17.5498 28.1333 16.7273C28.1333 13.8182 25.2 12.3636 23.7333 12.3636C22.2667 12.3636 17.8667 12.3636 17.3905 17.7389L12 17.0436C12.1564 14.5455 13.2218 12.3956 15.1962 10.6559C17.1706 8.88464 19.7403 8 22.9687 8C26.3223 8 29.0171 8.88562 30.9915 10.6874C32.9972 12.4587 34 14.514 34 16.8848C34 18.1817 33.6237 19.4145 32.9033 20.5841C32.1507 21.7538 30.5839 23.3347 28.2029 25.3584C26.9498 26.4018 26.1972 27.2243 25.8834 27.8565C25.6009 28.4886 25 29.2782 25 31H19ZM19 40V34H25V40H19Z" fill="black"/>
<mask id="mask0_1_1084954" style="mask-type:alpha" maskUnits="userSpaceOnUse" x="12" y="8" width="22" height="32">
<path fill-rule="evenodd" clip-rule="evenodd" d="M19 31C19 27.5399 20.236 26.5936 20.8 25.4545C21.364 24.3155 22.7175 23.1453 24.4104 21.7538C26.1336 20.3622 27.1687 19.4135 27.4815 19.0032C28.0142 18.3079 28.1333 17.5498 28.1333 16.7273C28.1333 13.8182 25.2 12.3636 23.7333 12.3636C22.2667 12.3636 17.8667 12.3636 17.3905 17.7389L12 17.0436C12.1564 14.5455 13.2218 12.3956 15.1962 10.6559C17.1706 8.88464 19.7403 8 22.9687 8C26.3223 8 29.0171 8.88562 30.9915 10.6874C32.9972 12.4587 34 14.514 34 16.8848C34 18.1817 33.6237 19.4145 32.9033 20.5841C32.1507 21.7538 30.5839 23.3347 28.2029 25.3584C26.9498 26.4018 26.1972 27.2243 25.8834 27.8565C25.6009 28.4886 25 29.2782 25 31H19ZM19 40V34H25V40H19Z" fill="white"/>
</mask>
<g mask="url(#mask0_1_1084954)">
</g>
</svg>
