<svg width="24" height="24" xmlns="http://www.w3.org/2000/svg" xmlns:xlink="http://www.w3.org/1999/xlink"><defs><path d="M13.188 17.389H9.555v-1.003c0-1.224.193-2.226.577-3.028.385-.802 1.175-1.693 2.33-2.673 1.175-.98 1.88-1.648 2.094-1.937.363-.49.534-1.024.534-1.603 0-.824-.32-1.514-.94-2.093-.62-.58-1.453-.868-2.5-.868-1.026 0-1.88.311-2.564.913-.684.601-1.154 1.514-1.41 2.761L4 7.368c.107-1.759.833-3.273 2.18-4.498C7.524 1.623 9.276 1 11.478 1c2.286 0 4.124.624 5.47 1.892C18.316 4.14 19 5.587 19 7.257c0 .913-.257 1.781-.748 2.605-.513.823-1.581 1.937-3.205 3.362-.854.734-1.367 1.314-1.581 1.759-.193.445-.3 1.247-.278 2.405zM9.556 23v-4.186h4.017V23H9.556z" id="a"/></defs><use xlink:href="#a"/></svg>