<svg width="48" height="48" viewBox="0 0 48 48" fill="none" xmlns="http://www.w3.org/2000/svg">
<path fill-rule="evenodd" clip-rule="evenodd" d="M28 7.998L26 2H22L20 7.998L15.5147 9.85786L9.85786 7.02944L7.02944 9.85786L9.85786 15.5147L8 20L2 22V26L7.998 28L9.85786 32.4853L7.02944 38.1421L9.85786 40.9706L15.5147 38.1421L20 40L22 46H26L28 40L32.4853 38.1421L37.8656 41.2471L41.4058 37.7069L38.1421 32.4853L40 28L46 26.3911V21.3844L40 20L38.1421 15.5147L40.9706 9.85786L38.1421 7.02944L32.4853 9.85786L28 7.998ZM16 23.9984C16 19.5817 19.5888 16 24.0127 16C28.4381 16 32 19.5801 32 23.9984C32 28.4104 28.4365 32 24.0127 32C19.5888 32 16 28.412 16 23.9984Z" fill="black"/>
</svg>
