<?xml version="1.0" encoding="UTF-8"?>
<svg width="48px" height="48px" viewBox="0 0 48 48" version="1.1" xmlns="http://www.w3.org/2000/svg" xmlns:xlink="http://www.w3.org/1999/xlink">
    <title>EC/Icons/General/2XL_48x48px/Icon-Gear</title>
    <g id="EC/Icons/General/2XL_48x48px/Icon-Gear" stroke="none" stroke-width="1">
        <path d="M26,2 L28,7.998 L32.4852814,9.85786438 L38.1421356,7.02943725 L40.9705627,9.85786438 L38.1421356,15.5147186 L40,20 L46,21.3844287 L46,26.3910654 L40,28 L38.1421356,32.4852814 L41.4058374,37.706861 L37.8656106,41.2470878 L32.4852814,38.1421356 L28,40 L26,46 L22,46 L20,40 L15.5147186,38.1421356 L9.85786438,40.9705627 L7.02943725,38.1421356 L9.85786438,32.4852814 L7.998,28 L2,26 L2,22 L8,20 L9.85786438,15.5147186 L7.02943725,9.85786438 L9.85786438,7.02943725 L15.5147186,9.85786438 L20,7.998 L22,2 L26,2 Z M24.0126532,16 C19.5887703,16 16,19.581689 16,23.9984215 C16,28.4119968 19.5887703,32 24.0126532,32 C28.4365362,32 32,28.4104183 32,23.9984215 C32,19.5801105 28.4381178,16 24.0126532,16 Z" id="Combined-Shape"></path>
    </g>
</svg>
