<?xml version="1.0" encoding="UTF-8" ?>
<svg xmlns="http://www.w3.org/2000/svg" viewBox="0 0 48 48"><defs><style
    >.cls-1{fill:none;}.cls-2{fill-rule:evenodd;}</style></defs><g
    id="transparant_bg"
  ><rect class="cls-1" width="48" height="48" /></g><g id="Layer_1"><path
      class="cls-2"
      d="M33.95,24.66c.61-1.31,.98-2.71,1.07-4.2h-4.15c-.05,1.54-.28,2.94-.61,4.2h3.69Zm1.12-5.88c-.09-1.49-.47-2.89-1.07-4.2h-3.73c.33,1.26,.56,2.66,.65,4.2h4.15Zm-10.87,7.55v4.8c.75-.56,2.47-2.05,3.68-4.8h-3.68Zm5.46,0c-.75,1.86-1.73,3.36-2.61,4.38,2.42-.84,4.48-2.33,5.92-4.38h-3.31Zm3.36-13.43c-1.4-2.05-3.45-3.59-5.83-4.43,.84,1.07,1.82,2.52,2.56,4.43h3.27Zm-4.48,1.68h-4.34v4.2h5.04c-.09-1.59-.33-2.98-.7-4.2Zm-4.34,5.88v4.2h4.34c.37-1.21,.61-2.61,.65-4.2h-4.99Zm3.68-7.6c-.37-1.03-.93-1.86-1.4-2.56-.7-.93-1.4-1.59-1.91-2.01-.09-.14-.23-.19-.37-.28v4.85h3.68Zm-9.05,0h3.73v-4.8c-.79,.56-2.52,2.1-3.73,4.8Zm-1.77,0c.7-1.86,1.73-3.36,2.61-4.38-2.42,.79-4.48,2.38-5.92,4.38h3.31Zm-1.26,7.55h-4.15c.09,1.49,.47,2.94,1.07,4.2h3.68c-.33-1.26-.51-2.61-.61-4.2h0Zm.65-5.88h-3.68c-.61,1.31-.98,2.71-1.12,4.2h4.2c.09-1.54,.28-2.94,.61-4.2ZM2,32c0,2.38,1.96,4,4,4h12l16,10v-10h8c2.19,0,4-1.78,4-4V6c0-2.11-1.9-4-4-4H6.18c-2.11,0-4.18,2.07-4.18,4.18v25.82Zm7.98-12.43c0-7.42,6.02-13.43,13.43-13.38,7.42,0,13.38,6.02,13.34,13.43,0,7.42-6.02,13.43-13.43,13.38-7.42,0-13.38-6.02-13.34-13.43Zm3.73,6.72c1.45,2.05,3.5,3.59,5.88,4.43-.89-1.07-1.87-2.52-2.56-4.43h-3.31Zm4.52-1.68h4.29v-4.2h-4.99c.05,1.59,.28,2.98,.7,4.2Zm4.29-5.88v-4.2h-4.34c-.37,1.21-.56,2.61-.65,4.2h4.99Zm-2.29,10.12c.7,.89,1.4,1.59,1.91,2.01,.09,.14,.23,.23,.33,.28v-4.8h-3.68c.42,.98,.98,1.82,1.45,2.52Z"
    /></g></svg>
