<?xml version="1.0" encoding="utf-8" ?>
<!-- Generator: Adobe Illustrator 27.6.1, SVG Export Plug-In . SVG Version: 6.00 Build 0)  -->
<svg
  version="1.1"
  id="a"
  xmlns="http://www.w3.org/2000/svg"
  xmlns:xlink="http://www.w3.org/1999/xlink"
  x="0px"
  y="0px"
  viewBox="0 0 48 48"
  style="enable-background:new 0 0 48 48;"
  xml:space="preserve"
>
<style type="text/css">
.st0 {
  fill-rule: evenodd;
  clip-rule: evenodd;
  fill: #26324b;
}
  </style>
<path
    class="st0"
    d="M45,24c0-11.6-9.4-21-21-21S3,12.4,3,24c0,11,8.4,20,19.2,20.9l0,0l0,0C22.8,45,23.4,45,24,45s1.2,0,1.8-0.1
  l0,0l0,0C36.5,44,45,35,45,24L45,24z M24.6,42c-0.2,0-0.4,0-0.6,0s-0.4,0-0.6,0c-1.9-1.8-5.1-6.4-5.4-16.5h12
  C29.7,35.6,26.6,40.1,24.6,42L24.6,42z M41.9,22.5H33c-0.2-7.8-2-12.7-3.9-15.8C36.1,8.8,41.3,15,41.9,22.5z M24.7,6
  c1.9,1.8,5,6.3,5.3,16.5H18C18.3,12.4,21.4,7.9,23.3,6c0.2,0,0.5,0,0.7,0S24.4,6,24.7,6z M18.9,6.8c-1.9,3.1-3.7,8-3.9,15.7H6.1
  C6.7,15,11.9,8.8,18.9,6.8z M6.1,25.5H15c0.2,7.8,2.1,12.8,4,15.8C12,39.2,6.7,33,6.1,25.5L6.1,25.5z M29,41.3c1.9-3,3.8-8,4-15.8
  h8.9C41.3,33,36,39.2,29,41.3z"
  />
</svg>
