<svg
  width="48"
  height="48"
  viewBox="0 0 48 48"
  fill="none"
  xmlns="http://www.w3.org/2000/svg"
>
<path
    fill-rule="evenodd"
    clip-rule="evenodd"
    d="M2 24C2 36.144 11.834 46 23.978 46C36.144 46 46 36.144 46 24C46 11.856 36.144 2 23.978 2C11.834 2 2 11.856 2 24ZM40 16H33C32.296 13.25 31.018 9.81 29.698 7.368C33.746 8.754 40 16 40 16ZM24 6C25.826 8.64 28 13 28 16H20C20 13 24 6 24 6ZM6.4 24C6.4 22.482 6.62 21.008 6.972 19.6H14.408C14.232 21.052 14.1 22.504 14.1 24C14.1 25.496 14.232 26.948 14.408 28.4H6.972C6.62 26.992 6.4 25.518 6.4 24ZM8 32H15C15.704 34.75 16.982 38.19 18.302 40.632C14.254 39.246 8 32 8 32ZM15 16H8C10.112 12.348 14.254 8.754 18.302 7.368C16.982 9.81 15 16 15 16ZM24 42C22.174 39.36 20 35 20 32H28C28 35 24 42 24 42ZM18.852 28.4C18.654 26.948 18.5 25.496 18.5 24C18.5 22.504 18.654 21.03 18.852 19.6H29.148C29.346 21.03 29.5 22.504 29.5 24C29.5 25.496 29.346 26.948 29.148 28.4H18.852ZM33 32H40C37.888 35.63 33.746 39.246 29.698 40.632C31.018 38.19 32.296 34.75 33 32ZM33.9 24C33.9 22.504 33.768 21.052 33.592 19.6H41.028C41.38 21.008 41.6 22.482 41.6 24C41.6 25.518 41.38 26.992 41.028 28.4H33.592C33.768 26.948 33.9 25.496 33.9 24Z"
    fill="black"
  />
</svg>
