<?xml version="1.0" encoding="UTF-8"?>
<svg width="48px" height="48px" viewBox="0 0 48 48" version="1.1" xmlns="http://www.w3.org/2000/svg" xmlns:xlink="http://www.w3.org/1999/xlink">
    <title>EC/Icons/General/2XL_48x48px/Icon-Global</title>
    <g id="EC/Icons/General/2XL_48x48px/Icon-Global" stroke="none" stroke-width="1">
        <path d="M2,24 C2,36.144 11.834,46 23.978,46 C36.144,46 46,36.144 46,24 C46,11.856 36.144,2 23.978,2 C11.834,2 2,11.856 2,24 Z M40,16 L33,16 C32.296,13.25 31.018,9.81 29.698,7.368 C33.746,8.754 40,16 40,16 Z M24,6 C25.826,8.64 28,13 28,16 L20,16 C20,13 24,6 24,6 Z M6.4,24 C6.4,22.482 6.62,21.008 6.972,19.6 L14.408,19.6 C14.232,21.052 14.1,22.504 14.1,24 C14.1,25.496 14.232,26.948 14.408,28.4 L6.972,28.4 C6.62,26.992 6.4,25.518 6.4,24 Z M8,32 L15,32 C15.704,34.75 16.982,38.19 18.302,40.632 C14.254,39.246 8,32 8,32 Z M15,16 L8,16 C10.112,12.348 14.254,8.754 18.302,7.368 C16.982,9.81 15,16 15,16 Z M24,42 C22.174,39.36 20,35 20,32 L28,32 C28,35 24,42 24,42 Z M18.852,28.4 C18.654,26.948 18.5,25.496 18.5,24 C18.5,22.504 18.654,21.03 18.852,19.6 L29.148,19.6 C29.346,21.03 29.5,22.504 29.5,24 C29.5,25.496 29.346,26.948 29.148,28.4 L18.852,28.4 Z M33,32 L40,32 C37.888,35.63 33.746,39.246 29.698,40.632 C31.018,38.19 32.296,34.75 33,32 Z M33.9,24 C33.9,22.504 33.768,21.052 33.592,19.6 L41.028,19.6 C41.38,21.008 41.6,22.482 41.6,24 C41.6,25.518 41.38,26.992 41.028,28.4 L33.592,28.4 C33.768,26.948 33.9,25.496 33.9,24 Z" id="Shape"></path>
    </g>
</svg>
