<?xml version="1.0" encoding="UTF-8" ?>
<svg id="a" xmlns="http://www.w3.org/2000/svg" viewBox="0 0 48 48"><path
    d="m45,24c0-11.6-9.4-21-21-21S3,12.4,3,24c0,11,8.4,20,19.2,20.9h0c.6.1,1.2.1,1.8.1s1.2,0,1.8-.1h0c10.7-.9,19.2-9.9,19.2-20.9h0Zm-20.4,18h-1.2c-1.9-1.8-5.1-6.4-5.4-16.5h12c-.3,10.1-3.4,14.6-5.4,16.5h0Zm17.3-19.5h-8.9c-.2-7.8-2-12.7-3.9-15.8,7,2.1,12.2,8.3,12.8,15.8ZM24.7,6c1.9,1.8,5,6.3,5.3,16.5h-12c.3-10.1,3.4-14.6,5.3-16.5h1.4Zm-5.8.8c-1.9,3.1-3.7,8-3.9,15.7H6.1c.6-7.5,5.8-13.7,12.8-15.7ZM6.1,25.5h8.9c.2,7.8,2.1,12.8,4,15.8-7-2.1-12.3-8.3-12.9-15.8h0Zm22.9,15.8c1.9-3,3.8-8,4-15.8h8.9c-.6,7.5-5.9,13.7-12.9,15.8Z"
    fill="#26324b"
    fill-rule="evenodd"
  /></svg>
