<?xml version="1.0" encoding="UTF-8"?>
<svg width="48px" height="48px" viewBox="0 0 48 48" version="1.1" xmlns="http://www.w3.org/2000/svg" xmlns:xlink="http://www.w3.org/1999/xlink">
    <title>EC/Icons/General/2XL_48x48px/Icon-Growth</title>
    <defs>
        <path d="M2,46 L2,36 L10,36 L10,46 L2,46 Z M14,46 L14,30 L22,30 L22,46 L14,46 Z M26,46 L26.0526316,26 L34,26 L33.9473684,46 L26,46 Z M46,22 L46,46 L38,46 L38,22 L46,22 Z M46,2 L46,16 L42,16 L41.9987966,8.826 L28.836,21.99 L28.8482159,22 L28.134,22.692 L27.6152237,23.2132034 L27.606,23.204 L26,24.762548 L19.114,18.728 L4.91020042,33.0279964 L2,30 L18,14 L18.02,14.014 L18.9841265,13.0670163 L25.868,19.302 L39.1687966,6 L32,6 L32,2 L46,2 Z" id="path-1"></path>
    </defs>
    <g id="EC/Icons/General/2XL_48x48px/Icon-Growth" stroke="none" stroke-width="1">
        <mask id="mask-2">
            <use xlink:href="#path-1"></use>
        </mask>
        <use id="Growth" xlink:href="#path-1"></use>
    </g>
</svg>
