<?xml version="1.0" encoding="UTF-8" ?>
<svg xmlns="http://www.w3.org/2000/svg" viewBox="0 0 48 48"><defs><style
    >.cls-1{fill:none;}.cls-2{fill-rule:evenodd;}</style></defs><g
    id="transparant_bg"
  ><rect class="cls-1" width="48" height="48" /></g><g id="Layer_1"><path
      class="cls-2"
      d="M46,16V2h-14V6h7.17l-13.3,13.3-6.88-6.23-.96,.95h-.02S2,30,2,30l2.91,3.03,14.2-14.3,6.89,6.03,1.61-1.56h0s.52-.51,.52-.51l.71-.69h-.01s13.16-13.17,13.16-13.17v7.17h4ZM2,36v10H10v-10H2Zm12-6v16h8V30H14Zm20-4h-7.95l-.05,20h7.95l.05-20Zm4-4v24h8V22h-8Z"
    /></g></svg>
