<?xml version="1.0" encoding="UTF-8"?>
<svg width="48px" height="48px" viewBox="0 0 48 48" version="1.1" xmlns="http://www.w3.org/2000/svg" xmlns:xlink="http://www.w3.org/1999/xlink">
    <title>EC/Icons/General/2XL_48x48px/Icon-Image</title>
    <defs>
        <path d="M42,38 L6,38 L6,10 L42,10 L42,38 Z M46,6 L2,6 L2,42 L46,42 L46,6 Z M34.0006946,14 C36.2399722,14 38,15.7597222 38,18 C38,20.2402778 36.2399722,22 34.0006946,22 C31.7600278,22 30,20.0791667 30,18 C30,15.6 31.7600278,14 34.0006946,14 Z M38,34 L10,34 L10,30 L18,16 L30,30 L38,24 L38,34 Z" id="path-1"></path>
    </defs>
    <g id="EC/Icons/General/2XL_48x48px/Icon-Image" stroke="none" stroke-width="1">
        <mask id="mask-2">
            <use xlink:href="#path-1"></use>
        </mask>
        <use id="Image" xlink:href="#path-1"></use>
    </g>
</svg>
