<?xml version="1.0" encoding="UTF-8"?>
<svg width="48px" height="48px" viewBox="0 0 48 48" version="1.1" xmlns="http://www.w3.org/2000/svg" xmlns:xlink="http://www.w3.org/1999/xlink">
    <title>EC/Icons/General/2XL_48x48px/Icon-Infographic</title>
    <g id="EC/Icons/General/2XL_48x48px/Icon-Infographic" stroke="none" stroke-width="1">
        <path d="M6.24898642,27.0006621 C7.51378873,34.5379206 13.462797,40.4866972 21.0001727,41.7511536 L21.0007145,45.7972599 C11.2502692,44.4681116 3.53236673,36.7504494 2.20285385,27.0001201 L6.24898642,27.0006621 Z M34.4300732,38.671909 L37.2910346,41.532864 C34.3511745,43.764923 30.832753,45.274515 27.0002866,45.7971234 L27.0008283,41.7509857 C29.5748039,41.3190306 31.9635232,40.3407912 34.0436882,38.9395656 L34.4300732,38.671909 Z M45.7971586,27.0000286 C45.2745945,30.8325091 43.7650408,34.3509507 41.5330143,37.2908367 L38.6720676,34.4298505 C40.2165039,32.2611423 41.2921227,29.7354109 41.7510328,27.0005474 L45.7971586,27.0000286 Z M17,26 L17,33 L13,33 L13,26 L17,26 Z M26,13 L26,33 L22,33 L22,13 L26,13 Z M35,20 L35,33 L31,33 L31,20 L35,20 Z M21.0007145,2.20274007 L21.0001727,6.24884635 C13.4625982,7.51333613 7.51347501,13.4623932 6.24888638,20.9999341 L2.20285385,20.9999341 C3.53236673,11.2495506 11.2502692,3.53188841 21.0007145,2.20274007 Z M27.0002866,2.20287655 C36.7502895,3.53242079 44.4677271,11.2499326 45.7971586,21.0000488 L41.7511329,21.0000488 C40.4866413,13.4627872 34.5379667,7.51386921 27.0008283,6.2490143 L27.0002866,2.20287655 Z" id="Combined-Shape"></path>
    </g>
</svg>
