<?xml version="1.0" encoding="UTF-8" standalone="no" ?>
<svg
  width="48"
  height="48"
  viewBox="0 0 48 48"
  version="1.1"
  id="svg452"
  sodipodi:docname="information.svg"
  inkscape:version="1.1.2 (0a00cf5339, 2022-02-04)"
  xmlns:inkscape="http://www.inkscape.org/namespaces/inkscape"
  xmlns:sodipodi="http://sodipodi.sourceforge.net/DTD/sodipodi-0.dtd"
  xmlns="http://www.w3.org/2000/svg"
  xmlns:svg="http://www.w3.org/2000/svg"
>
  <defs id="defs456" />
  <sodipodi:namedview
    id="namedview454"
    pagecolor="#ffffff"
    bordercolor="#666666"
    borderopacity="1.0"
    inkscape:pageshadow="2"
    inkscape:pageopacity="0.0"
    inkscape:pagecheckerboard="0"
    showgrid="false"
    inkscape:zoom="13.416667"
    inkscape:cx="23.962733"
    inkscape:cy="23.962733"
    inkscape:window-width="1920"
    inkscape:window-height="1015"
    inkscape:window-x="17"
    inkscape:window-y="1245"
    inkscape:window-maximized="1"
    inkscape:current-layer="svg452"
  />
  <path
    id="path446"
    d="M 6 3 C 4.34314 3 3 4.34314 3 6 L 3 42 C 3 43.6569 4.34314 45 6 45 L 42 45 C 43.6569 45 45 43.6569 45 42 L 45 6 C 45 4.34314 43.6569 3 42 3 L 6 3 z M 24 12 C 24.6 12 25.169844 12.240156 25.589844 12.660156 C 26.009844 13.080156 26.25 13.65 26.25 14.25 C 26.25 14.7 26.099375 15.149766 25.859375 15.509766 C 25.589375 15.899766 25.259844 16.169609 24.839844 16.349609 C 24.449844 16.499609 24.000781 16.560703 23.550781 16.470703 C 23.130781 16.380703 22.710156 16.139844 22.410156 15.839844 C 22.080156 15.539844 21.869297 15.149219 21.779297 14.699219 C 21.689297 14.279219 21.720391 13.830156 21.900391 13.410156 C 22.080391 12.990156 22.380234 12.630625 22.740234 12.390625 C 23.130234 12.120625 23.55 12 24 12 z M 19.5 21 L 25.5 21 L 25.5 33 L 30 33 L 30 36 L 18 36 L 18 33 L 22.5 33 L 22.5 24 L 19.5 24 L 19.5 21 z "
  />
</svg>
