<svg width="48" height="48" viewBox="0 0 48 48" fill="none" xmlns="http://www.w3.org/2000/svg">
<path fill-rule="evenodd" clip-rule="evenodd" d="M21.0002 6.24887L21.0007 2.20276C11.2503 3.53191 3.53239 11.2496 2.20288 20.9999L6.24891 21C7.5135 13.4624 13.4626 7.51335 21.0002 6.24887ZM45.7972 27C45.2746 30.8325 43.7651 34.351 41.533 37.2909L38.6721 34.4299C40.2165 32.2612 41.2922 29.7354 41.7511 27.0006L45.7972 27ZM21.0002 41.7512C13.4628 40.4867 7.51382 34.5379 6.24901 27.0007L2.20288 27.0001C3.53239 36.7505 11.2503 44.4681 21.0007 45.7973L21.0002 41.7512ZM37.2911 41.5329L34.4301 38.6719L34.0437 38.9396C31.9635 40.3408 29.5748 41.319 27.0009 41.751L27.0003 45.7971C30.8328 45.2745 34.3512 43.7649 37.2911 41.5329ZM27.0003 2.2029C36.7503 3.53244 44.4678 11.25 45.7972 21L41.7512 21.0001C40.4867 13.4628 34.538 7.51389 27.0009 6.24903L27.0003 2.2029ZM17 26H13V33H17V26ZM22 13H26V33H22V13ZM35 20H31V33H35V20Z" fill="black"/>
</svg>
