<?xml version="1.0" encoding="UTF-8"?>
<svg width="48px" height="48px" viewBox="0 0 48 48" version="1.1" xmlns="http://www.w3.org/2000/svg" xmlns:xlink="http://www.w3.org/1999/xlink">
    <title>EC/Icons/General/2XL_48x48px/Icon-Information</title>
    <g id="EC/Icons/General/2XL_48x48px/Icon-Information" stroke="none" stroke-width="1">
        <path d="M24,2.01 C36.0719086,2.01 46,11.8198118 46,24.01 C46,36.2001881 36.1901881,46.01 24,46.01 C11.8098118,46.01 2,36.2001881 2,24.01 C2,11.8198118 11.8098118,2.01 24,2.01 Z M28,20 L18,20 L18,24 L22,24 L22,34 L18,34 L18,38 L32,38 L32,34 L28,34 L28,20 Z M28,10 L22,10 L22,16 L28,16 L28,10 Z" id="Combined-Shape"></path>
    </g>
</svg>
