<svg height="24" width="24" xmlns="http://www.w3.org/2000/svg" xmlns:xlink="http://www.w3.org/1999/xlink"><path d="m11.996.008c-3.258 0-3.666.013-4.946.072-1.277.058-2.149.261-2.912.557-.789.307-1.458.717-2.125 1.384-.666.667-1.077 1.336-1.383 2.125-.297.763-.5 1.635-.558 2.912-.058 1.279-.072 1.688-.072 4.946s.014 3.666.072 4.946c.058 1.277.261 2.149.558 2.912.306.789.717 1.458 1.383 2.125.667.666 1.336 1.077 2.125 1.383.763.297 1.635.5 2.912.558 1.28.058 1.688.072 4.946.072s3.667-.014 4.946-.072c1.277-.058 2.149-.261 2.912-.558.789-.306 1.458-.717 2.125-1.383.667-.667 1.077-1.336 1.384-2.125.296-.763.499-1.635.557-2.912.059-1.28.072-1.688.072-4.946s-.013-3.667-.072-4.946c-.058-1.277-.261-2.149-.557-2.912-.307-.789-.717-1.458-1.384-2.125s-1.336-1.077-2.125-1.384c-.763-.296-1.635-.499-2.912-.557-1.279-.059-1.688-.072-4.946-.072zm0 2.161c3.203 0 3.583.012 4.848.07 1.169.053 1.805.249 2.227.413.56.218.96.478 1.38.897.419.42.679.82.897 1.38.164.422.36 1.058.413 2.227.058 1.265.07 1.645.07 4.848s-.012 3.582-.07 4.847c-.053 1.17-.249 1.805-.413 2.228-.218.56-.478.959-.897 1.379-.42.42-.82.68-1.38.898-.422.164-1.058.359-2.227.413-1.265.057-1.644.07-4.848.07-3.203 0-3.582-.013-4.847-.07-1.17-.054-1.805-.249-2.228-.413-.56-.218-.959-.478-1.379-.898s-.68-.819-.898-1.379c-.164-.423-.359-1.058-.413-2.228-.057-1.265-.07-1.644-.07-4.847s.013-3.583.07-4.848c.054-1.169.249-1.805.413-2.227.218-.56.478-.96.898-1.38.42-.419.819-.679 1.379-.897.423-.164 1.058-.36 2.228-.413 1.265-.058 1.644-.07 4.847-.07z"/><path d="m11.996 16.003c-2.208 0-3.999-1.791-3.999-3.999 0-2.209 1.791-3.999 3.999-3.999 2.209 0 3.999 1.79 3.999 3.999 0 2.208-1.79 3.999-3.999 3.999zm0-10.159c-3.402 0-6.16 2.758-6.16 6.16s2.758 6.16 6.16 6.16 6.16-2.758 6.16-6.16-2.758-6.16-6.16-6.16z"/><path d="m19.839 5.6c0 .795-.644 1.44-1.439 1.44s-1.44-.645-1.44-1.44.645-1.439 1.44-1.439 1.439.644 1.439 1.439"/></svg>