<svg width="48" height="48" viewBox="0 0 48 48" fill="none" xmlns="http://www.w3.org/2000/svg">
<path fill-rule="evenodd" clip-rule="evenodd" d="M7 2C3.13209 2 2 3.04224 2 7V33C2 36.9632 3.11038 37.9487 7 38H13V46L30 38H40C44.1138 38 46 36.9424 46 33V7C46 3.01202 45.0015 2 40 2H7Z" fill="black"/>
<mask id="mask0_1_1084852" style="mask-type:alpha" maskUnits="userSpaceOnUse" x="2" y="2" width="44" height="44">
<path fill-rule="evenodd" clip-rule="evenodd" d="M7 2C3.13209 2 2 3.04224 2 7V33C2 36.9632 3.11038 37.9487 7 38H13V46L30 38H40C44.1138 38 46 36.9424 46 33V7C46 3.01202 45.0015 2 40 2H7Z" fill="white"/>
</mask>
<g mask="url(#mask0_1_1084852)">
<path d="M12.8027 26V13.1152H22.3564V15.2949H15.4043V18.1514H21.873V20.3223H15.4043V23.8291H22.6025V26H12.8027ZM24.835 26V13.1152H27.3662L32.6396 21.7197V13.1152H35.0566V26H32.4463L27.252 17.5977V26H24.835Z" fill="white"/>
</g>
</svg>
