<?xml version="1.0" encoding="UTF-8"?>
<svg xmlns="http://www.w3.org/2000/svg" xmlns:xlink="http://www.w3.org/1999/xlink" width="48pt" height="48pt" viewBox="0 0 48 48" version="1.1">
<g id="surface1">
<path d="M 3 3 L 9 3 L 9 8.011719 L 3 8.011719 Z M 15 3 L 45 3 L 45 8.011719 L 15 8.011719 Z M 3 15.371094 L 9 15.371094 L 9 20.378906 L 3 20.378906 Z M 15 15.371094 L 45 15.371094 L 45 20.378906 L 15 20.378906 Z M 3 27.738281 L 9 27.738281 L 9 32.75 L 3 32.75 Z M 15 27.738281 L 45 27.738281 L 45 32.75 L 15 32.75 Z M 3 40.109375 L 9 40.109375 L 9 45.121094 L 3 45.121094 Z M 15 40.109375 L 45 40.109375 L 45 45.121094 L 15 45.121094 Z M 15 40.109375 "/>
</g>
</svg>
