<svg
  width="48"
  height="48"
  viewBox="0 0 48 48"
  fill="none"
  xmlns="http://www.w3.org/2000/svg"
>
<path
    fill-rule="evenodd"
    clip-rule="evenodd"
    d="M2 6V16H6V10H42V38H28V42H46V6H2ZM2 36V42H8C8 38.6 5.4 36 2 36ZM2 28V32C7.6 32 12 36.4 12 42H16C16 34.2 9.8 28 2 28ZM2 20V24C12 24 20 32 20 42H24C24 29.8 14.2 20 2 20Z"
    fill="black"
  />
<mask
    id="mask0_1_1084841"
    style="mask-type:alpha"
    maskUnits="userSpaceOnUse"
    x="2"
    y="6"
    width="44"
    height="36"
  >
<path
      fill-rule="evenodd"
      clip-rule="evenodd"
      d="M2 6V16H6V10H42V38H28V42H46V6H2ZM2 36V42H8C8 38.6 5.4 36 2 36ZM2 28V32C7.6 32 12 36.4 12 42H16C16 34.2 9.8 28 2 28ZM2 20V24C12 24 20 32 20 42H24C24 29.8 14.2 20 2 20Z"
      fill="white"
    />
</mask>
<g mask="url(#mask0_1_1084841)">
</g>
</svg>
