<svg
  width="48"
  height="48"
  viewBox="0 0 48 48"
  xmlns="http://www.w3.org/2000/svg"
>
<path
    fill-rule="evenodd"
    clip-rule="evenodd"
    d="M37.2 21.99C33.66 18.45 28.95 16.5 23.94 16.5C18.93 16.5 14.22 18.45 10.68 21.99L7.5 18.81C11.88 14.43 17.73 12 23.94 12C30.15 12 36 14.43 40.38 18.81L37.2 21.99ZM30.8404 28.35C27.0304 24.54 20.8504 24.54 17.0404 28.35L13.8604 25.17C19.4104 19.62 28.4704 19.62 34.0204 25.17L30.8404 28.35ZM21.2397 31.08C22.7097 29.61 25.0797 29.61 26.5497 31.08H26.5197C27.9897 32.55 27.9897 34.92 26.5197 36.39C25.7997 37.11 24.8397 37.47 23.8797 37.47C22.9197 37.47 21.9597 37.11 21.2397 36.39C19.7697 34.92 19.7697 32.55 21.2397 31.08Z"
  />
</svg>
