<?xml version="1.0" encoding="UTF-8"?>
<svg width="48px" height="48px" viewBox="0 0 48 48" version="1.1" xmlns="http://www.w3.org/2000/svg" xmlns:xlink="http://www.w3.org/1999/xlink">
    <title>EC/Icons/General/2XL_48x48px/Icon-Livestreaming</title>
    <defs>
        <path d="M2,6 L2,16 L6,16 L6,10 L42,10 L42,38 L28,38 L28,42 L46,42 L46,6 L2,6 Z M2,35.9999999 L2,41.9999999 L8,41.9999999 C8,38.6 5.40000001,35.9999999 2,35.9999999 L2,35.9999999 Z M2,28 L2,32 C7.60000001,32 12,36.4 12,42 L16,42 C16,34.1999999 9.80000001,28 2,28 L2,28 Z M2,20 L2,24 C12,24 20,32 20,42 L24,42 C24,29.8000001 14.2,20 2,20 L2,20 Z" id="path-1"></path>
    </defs>
    <g id="EC/Icons/General/2XL_48x48px/Icon-Livestreaming" stroke="none" stroke-width="1">
        <mask id="mask-2">
            <use xlink:href="#path-1"></use>
        </mask>
        <use id="Livestreaming" xlink:href="#path-1"></use>
    </g>
</svg>
