<svg
  width="48"
  height="48"
  viewBox="0 0 48 48"
  fill="none"
  xmlns="http://www.w3.org/2000/svg"
>
<path
    fill-rule="evenodd"
    clip-rule="evenodd"
    d="M10 16C10 7.97492 16.2804 2 24.0001 2C31.7197 2 38 7.97483 38 16C38 19.2322 36.0842 24.3916 32 32C29.1115 37.3812 24.0001 46 24.0001 46C24.0001 46 18.8888 37.3812 16 32C11.916 24.3917 10 19.2322 10 16ZM24 22C27.3137 22 30 19.3137 30 16C30 12.6863 27.3137 10 24 10C20.6863 10 18 12.6863 18 16C18 19.3137 20.6863 22 24 22Z"
    fill="black"
  />
<mask
    id="mask0_1_1084820"
    style="mask-type:alpha"
    maskUnits="userSpaceOnUse"
    x="10"
    y="2"
    width="28"
    height="44"
  >
<path
      fill-rule="evenodd"
      clip-rule="evenodd"
      d="M10 16C10 7.97492 16.2804 2 24.0001 2C31.7197 2 38 7.97483 38 16C38 19.2322 36.0842 24.3916 32 32C29.1115 37.3812 24.0001 46 24.0001 46C24.0001 46 18.8888 37.3812 16 32C11.916 24.3917 10 19.2322 10 16ZM24 22C27.3137 22 30 19.3137 30 16C30 12.6863 27.3137 10 24 10C20.6863 10 18 12.6863 18 16C18 19.3137 20.6863 22 24 22Z"
      fill="white"
    />
</mask>
<g mask="url(#mask0_1_1084820)">
</g>
</svg>
