<?xml version="1.0" encoding="utf-8" ?>
<!-- Generator: Adobe Illustrator 27.10.0, SVG Export Plug-In . SVG Version: 6.00 Build 0)  -->
<svg
  version="1.1"
  id="Layer_1"
  xmlns="http://www.w3.org/2000/svg"
  xmlns:xlink="http://www.w3.org/1999/xlink"
  x="0px"
  y="0px"
  viewBox="0 0 48 48"
  enable-background="new 0 0 48 48"
  xml:space="preserve"
>
<path
    fill-rule="evenodd"
    clip-rule="evenodd"
    d="M24,6c3.6,0.01,6.99,1.41,9.54,3.96c2.55,2.55,3.96,5.94,3.96,9.54
  c0,2.9-0.96,5.77-2.71,8.08l-0.05,0.06c-0.1,0.13-0.33,0.43-0.37,0.49L24,40.36L13.67,28.18c-0.1-0.13-0.45-0.59-0.45-0.59
  c-1.75-2.31-2.72-5.18-2.71-8.08c0-3.61,1.41-6.99,3.96-9.54C17.01,7.41,20.4,6.01,24,6 M24,3c-4.37,0.01-8.57,1.75-11.66,4.84
  C9.25,10.93,7.51,15.13,7.5,19.5c-0.01,3.57,1.16,7.05,3.32,9.9c0,0,0.45,0.59,0.52,0.68L24,45l12.66-14.93
  c0.07-0.08,0.52-0.67,0.52-0.67l0,0c2.16-2.85,3.33-6.32,3.32-9.9c-0.01-4.37-1.75-8.57-4.84-11.66C32.57,4.75,28.37,3.01,24,3L24,3
  z"
  />
<path
    fill-rule="evenodd"
    clip-rule="evenodd"
    d="M24,15c2.48,0,4.5,2.02,4.5,4.5S26.48,24,24,24s-4.5-2.02-4.5-4.5
  S21.52,15,24,15 M24,12c-4.14,0-7.5,3.36-7.5,7.5S19.86,27,24,27s7.5-3.36,7.5-7.5S28.14,12,24,12L24,12z"
  />
</svg>
