<?xml version="1.0" encoding="UTF-8"?>
<svg width="48px" height="48px" viewBox="0 0 48 48" version="1.1" xmlns="http://www.w3.org/2000/svg" xmlns:xlink="http://www.w3.org/1999/xlink">
    <title>EC/Icons/General/2XL_48x48px/Icon-Log-in</title>
    <g id="EC/Icons/General/2XL_48x48px/Icon-Log-in" stroke="none" stroke-width="1">
        <path d="M23.978,2 C36.144,2 46,11.856 46,24 C46,31.7405172 41.9957873,38.551485 35.941438,42.4731304 C35.4817167,38.8234665 32.3576304,36 28.5730277,36 L28.5730277,36 L19.4269723,36 L19.1818178,36.0039587 C15.503358,36.1229224 12.5009937,38.9092999 12.0566982,42.4860864 C6.00410794,38.5665341 2,31.7490693 2,24 C2,11.856 11.834,2 23.978,2 Z M23.9997467,15 C19.0294424,15 15,19.0291626 15,24.00076 C15,28.9723575 19.0294424,33 23.9997467,33 C28.9705576,33 33,28.9723575 33,24.00076 C33,19.0291626 28.9705576,15 23.9997467,15 Z" id="Shape"></path>
    </g>
</svg>
