<?xml version="1.0" encoding="utf-8" ?>
<!-- Generator: Adobe Illustrator 27.6.1, SVG Export Plug-In . SVG Version: 6.00 Build 0)  -->
<svg
  version="1.1"
  id="a"
  xmlns="http://www.w3.org/2000/svg"
  xmlns:xlink="http://www.w3.org/1999/xlink"
  x="0px"
  y="0px"
  viewBox="0 0 48 48"
  style="enable-background:new 0 0 48 48;"
  xml:space="preserve"
>
<style type="text/css">
.st0 {
  fill-rule: evenodd;
  clip-rule: evenodd;
  fill: #26324b;
}
.st1 {
  fill-rule: evenodd;
  clip-rule: evenodd;
  fill: #30384b;
}
  </style>
<polygon
    class="st0"
    points="30.7,47.1 21.7,38.1 24.3,35.6 30.7,42 42.7,29.9 45.3,32.5 "
  />
<path
    class="st0"
    d="M24,6.6c3.8,0,6.9,3.1,6.9,6.9s-3.1,6.9-6.9,6.9s-6.9-3.1-6.9-6.9S20.2,6.6,24,6.6 M24,3
  c-5.8,0-10.5,4.7-10.5,10.5S18.2,24,24,24s10.5-4.7,10.5-10.5S29.8,3,24,3L24,3z"
  />
<path
    class="st1"
    d="M9.4,45H5.8v-5.9c0-6.8,5.2-12.4,11.5-12.4h15.8v3.6H17.3c-4.4,0-8,4-8,8.8C9.4,39.1,9.4,45,9.4,45z"
  />
</svg>
