<?xml version="1.0" encoding="UTF-8"?>
<svg width="48px" height="48px" viewBox="0 0 48 48" version="1.1" xmlns="http://www.w3.org/2000/svg" xmlns:xlink="http://www.w3.org/1999/xlink">
    <title>EC/Icons/General/2XL_48x48px/Icon-Logged-in</title>
    <g id="EC/Icons/General/2XL_48x48px/Icon-Logged-in" stroke="none" stroke-width="1">
        <path d="M45.2412437,26.0358634 C46.2607328,27.0380568 46.2517899,28.6542718 45.2208738,29.6458369 L29.2580692,45 L21.0663848,37.0346278 C20.0411822,36.0377486 20.0411822,34.4215336 21.0663848,33.4246543 C22.0915874,32.427775 23.7537223,32.427775 24.7789249,33.4246543 L29.2781907,37.799377 L41.5287036,26.0160563 C42.5593713,25.0244911 44.2217546,25.03367 45.2412437,26.0358634 Z M18.983,3 C28.384,3 36,10.616 36,20 C36,25.6623166 33.2270679,30.6809168 28.9622403,33.7710293 C28.6377322,31.1585556 26.2730605,29.1131936 23.3639663,29.0045418 L23.1203136,29 L15.8796864,29 L15.6488133,29.0040763 C12.5870868,29.1123762 10.1258238,31.3653856 10.0046743,34.1691762 L10,34.3859119 L10.0002988,34.4301803 C5.19516058,31.4264819 2,26.0849375 2,20 C2,10.616 9.599,3 18.983,3 Z M19.499817,14 C15.9101528,14 13,16.9099507 13,20.5005489 C13,24.0911471 15.9101528,27 19.499817,27 C23.0898472,27 26,24.0911471 26,20.5005489 C26,16.9099507 23.0898472,14 19.499817,14 Z" id="Combined-Shape"></path>
    </g>
</svg>
