<svg width="48" height="48" viewBox="0 0 48 48" fill="none" xmlns="http://www.w3.org/2000/svg">
<path fill-rule="evenodd" clip-rule="evenodd" d="M18.983 3C9.599 3 2 10.616 2 20C2 26.0848 5.19503 31.4263 10 34.43V34.3859C10 31.4115 12.6324 29 15.8797 29H23.1203C26.1403 29 28.629 31.0862 28.9621 33.7711C33.227 30.681 36 25.6624 36 20C36 10.616 28.384 3 18.983 3ZM13 20.5005C13 16.91 15.9102 14 19.4998 14C23.0898 14 26 16.91 26 20.5005C26 24.0911 23.0898 27 19.4998 27C15.9102 27 13 24.0911 13 20.5005ZM21.0664 37.0346L29.2581 45L45.2209 29.6458C46.2518 28.6543 46.2607 27.0381 45.2412 26.0359C44.2218 25.0337 42.5594 25.0245 41.5287 26.0161L29.2782 37.7994L24.7789 33.4247C23.7537 32.4278 22.0916 32.4278 21.0664 33.4247C20.0412 34.4215 20.0412 36.0378 21.0664 37.0346Z" fill="black"/>
</svg>
