<?xml version="1.0" encoding="UTF-8"?>
<svg width="48px" height="48px" viewBox="0 0 48 48" version="1.1" xmlns="http://www.w3.org/2000/svg" xmlns:xlink="http://www.w3.org/1999/xlink">
    <title>EC/Icons/General/2XL_48x48px/Icon-Multiple-files</title>
    <defs>
        <path d="M46,10 L46,46 L18,46 L18,16 L24,10 L46,10 Z M42,14 L28,14 L28,18 L22,18 L22,42 L42,42 L42,14 Z M14,16 L14,42 L10,42 L10,16 L14,16 Z M34,2 L34,8 L30,8 L30,6 L14,6 L14,12 L6,12 L6,38 L2,38 L2,8 L10.0267559,2 L34,2 Z" id="path-1"></path>
    </defs>
    <g id="EC/Icons/General/2XL_48x48px/Icon-Multiple-files" stroke="none" stroke-width="1">
        <mask id="mask-2">
            <use xlink:href="#path-1"></use>
        </mask>
        <use id="Multiple-files" xlink:href="#path-1"></use>
    </g>
</svg>
