<svg width="48" height="48" viewBox="0 0 48 48" fill="none" xmlns="http://www.w3.org/2000/svg">
<path fill-rule="evenodd" clip-rule="evenodd" d="M46 46V10H24L18 16V46H46ZM28 14H42V42H22V18H28V14ZM2 38H6V12H12H14V6H30V8H34V2H10.0268L2 8V38ZM10 16V20V42H14V20V16H10Z" fill="black"/>
<mask id="mask0_1_1084807" style="mask-type:alpha" maskUnits="userSpaceOnUse" x="2" y="2" width="44" height="44">
<path fill-rule="evenodd" clip-rule="evenodd" d="M46 46V10H24L18 16V46H46ZM28 14H42V42H22V18H28V14ZM2 38H6V12H12H14V6H30V8H34V2H10.0268L2 8V38ZM10 16V20V42H14V20V16H10Z" fill="white"/>
</mask>
<g mask="url(#mask0_1_1084807)">
</g>
</svg>
