<svg
  width="48"
  height="48"
  viewBox="0 0 48 48"
  xmlns="http://www.w3.org/2000/svg"
>
<path
    d="M6.01273 9.66L7.57273 32.97V33L10.5727 32.79L9.01273 9.45C8.98273 9.06 9.10273 8.67 9.37273 8.37C9.61273 8.07 9.97273 7.86 10.4227 7.86L30.2527 6L29.9827 3L10.1827 4.86C8.98273 4.95 7.87273 5.49 7.09273 6.39C6.31273 7.32 5.92273 8.46 6.01273 9.66Z"
    fill-rule="evenodd"
  />
<path
    fill-rule="evenodd"
    clip-rule="evenodd"
    d="M18.1333 10.2601H39.1333C40.7833 10.2601 42.1333 11.6701 42.1333 13.4101V30.9601C42.1333 31.8001 41.8333 32.5801 41.2633 33.1801L31.0333 43.9201C30.4633 44.5201 29.7133 44.8501 28.9033 44.8501H18.1333C16.4833 44.8501 15.1333 43.4401 15.1333 41.7001V13.4101C15.1333 11.6701 16.4833 10.2601 18.1333 10.2601ZM30.1333 32.8501V40.5301L37.4533 32.8501H30.1333ZM18.1333 41.7001C18.1333 41.8201 18.1933 41.8501 18.1933 41.8501H27.1033V32.8501C27.1033 31.2001 28.4533 29.8501 30.1033 29.8501H39.1033V13.4101C39.1033 13.3201 39.0733 13.2601 39.0733 13.2601H18.1333C18.1633 13.2901 18.1333 13.4101 18.1333 13.4101V41.7001Z"
  />
</svg>
