<svg width="48" height="48" viewBox="0 0 48 48" fill="none" xmlns="http://www.w3.org/2000/svg">
<path fill-rule="evenodd" clip-rule="evenodd" d="M2 46V35H14V46H2ZM34 46V35H46V46H34ZM11 28V31H7V24.0721L22 24V18H26V24L41 24.0721V31H37V28H26H22H11ZM14 14V2H34V14H14Z" fill="black"/>
<mask id="mask0_1_1085083" style="mask-type:alpha" maskUnits="userSpaceOnUse" x="2" y="2" width="44" height="44">
<path fill-rule="evenodd" clip-rule="evenodd" d="M2 46V35H14V46H2ZM34 46V35H46V46H34ZM11 28V31H7V24.0721L22 24V18H26V24L41 24.0721V31H37V28H26H22H11ZM14 14V2H34V14H14Z" fill="white"/>
</mask>
<g mask="url(#mask0_1_1085083)">
</g>
</svg>
