<svg
  width="48"
  height="48"
  viewBox="0 0 48 48"
  xmlns="http://www.w3.org/2000/svg"
>
<path d="M27.5102 22.5H9.99023V25.5H27.5102V22.5Z" fill-rule="evenodd" />
<path d="M24.0002 28.5H9.99023V31.5H24.0002V28.5Z" fill-rule="evenodd" />
<path
    fill-rule="evenodd"
    clip-rule="evenodd"
    d="M38.52 3.78L44.4 12.63L44.43 12.6C44.82 13.17 45.03 13.86 45.03 14.55V41.52C45.03 43.47 43.44 45.03 41.52 45.03H6.51C4.56 45.03 3 43.44 3 41.52V14.58C3 13.89 3.21 13.2 3.6 12.63L9.48 3.78C9.81 3.3 10.35 3 10.95 3H37.05C37.65 3 38.19 3.3 38.52 3.78ZM41.4 13.5L36.39 6H25.5V13.5H41.4ZM22.5 6H11.61L6.6 13.5H22.5V6ZM41.49 42C41.79 42 42 41.76 42 41.49V16.5H6V41.49C6 41.79 6.24 42 6.51 42H41.49Z"
  />
</svg>
