<svg
  width="48"
  height="48"
  viewBox="0 0 48 48"
  xmlns="http://www.w3.org/2000/svg"
>
<path d="M27 22.5H12V25.5H27V22.5Z" fill-rule="evenodd" />
<path d="M24 28.5H12V31.5H24V28.5Z" fill-rule="evenodd" />
<path
    fill-rule="evenodd"
    clip-rule="evenodd"
    d="M36.45 6.66L41.49 14.25C41.82 14.73 42 15.3 42 15.9V39C42 40.65 40.65 42 39 42H9C7.35 42 6 40.65 6 39V15.9C6 15.33 6.18 14.73 6.51 14.25L11.55 6.66C11.85 6.24 12.3 6 12.81 6H35.19C35.7 6 36.18 6.24 36.45 6.66ZM25.5 13.5H37.38L34.38 9H25.5V13.5ZM22.47 9H13.59L10.59 13.5H22.47V9ZM9 39H39V16.5H9V39Z"
  />
</svg>
