<svg
  width="48"
  height="48"
  viewBox="0 0 48 48"
  fill="none"
  xmlns="http://www.w3.org/2000/svg"
>
<path
    fill-rule="evenodd"
    clip-rule="evenodd"
    d="M31.011 7.4202C33.135 8.313 35.0628 9.609 36.726 11.274C38.3802 12.9282 39.678 14.8452 40.5798 16.989C41.5194 19.2066 42 21.5664 42 24C42 26.4354 41.5194 28.7934 40.5798 31.0128C39.687 33.1368 38.3892 35.0628 36.726 36.7278C35.0718 38.382 33.1458 39.678 31.011 40.5816C28.7934 41.5212 26.4336 42 24 42C21.5646 42 19.2048 41.5212 16.9872 40.5816C14.8632 39.6888 12.9354 38.391 11.2722 36.7278C9.618 35.0736 8.3202 33.1458 7.4184 31.0128C6.4788 28.7934 6 26.4354 6 24C6 21.5664 6.4788 19.2066 7.4184 16.989C8.3112 14.8632 9.609 12.9372 11.2722 11.274C12.9264 9.6198 14.8542 8.322 16.9872 7.4202C19.2048 6.4788 21.5646 6 24 6C26.4336 6 28.7934 6.4788 31.011 7.4202ZM32.569 3.7358C35.165 4.827 37.5212 6.411 39.554 8.446C41.5758 10.4678 43.162 12.8108 44.2642 15.431C45.4126 18.1414 46 21.0256 46 24C46 26.9766 45.4126 29.8586 44.2642 32.5712C43.173 35.1672 41.5868 37.5212 39.554 39.5562C37.5322 41.578 35.1782 43.162 32.569 44.2664C29.8586 45.4148 26.9744 46 24 46C21.0234 46 18.1392 45.4148 15.4288 44.2664C12.8328 43.1752 10.4766 41.589 8.4438 39.5562C6.422 37.5344 4.8358 35.1782 3.7336 32.5712C2.5852 29.8586 2 26.9766 2 24C2 21.0256 2.5852 18.1414 3.7336 15.431C4.8248 12.8328 6.411 10.4788 8.4438 8.446C10.4656 6.4242 12.8218 4.838 15.4288 3.7358C18.1392 2.5852 21.0234 2 24 2C26.9744 2 29.8586 2.5852 32.569 3.7358ZM18 15H22V33H18V15ZM30 15H26V33H30V15Z"
    fill="black"
  />
</svg>
