<?xml version="1.0" encoding="UTF-8"?>
<svg width="48px" height="48px" viewBox="0 0 48 48" version="1.1" xmlns="http://www.w3.org/2000/svg" xmlns:xlink="http://www.w3.org/1999/xlink">
    <title>EC/Icons/General/2XL_48x48px/Icon-Pause</title>
    <g id="EC/Icons/General/2XL_48x48px/Icon-Pause" stroke="none" stroke-width="1" fill-rule="evenodd">
        <path d="M31.0111616,7.42022239 C33.1349853,8.31303216 35.0629529,9.60901151 36.7260799,11.2740281 C38.3802089,12.9282471 39.6780178,14.8452372 40.5799156,16.9890364 C41.5196048,19.206649 42.0000971,21.5664598 42.0000971,24.000054 C42.0000971,26.4354778 41.5196048,28.793489 40.5799156,31.0129612 C39.6870158,33.1367849 38.3892069,35.0629529 36.7260799,36.7278795 C35.0719509,38.3820085 33.1457829,39.6780178 31.0111616,40.5817152 C28.793489,41.5214044 26.4336782,42.0000971 24.000054,42.0000971 C21.5646602,42.0000971 19.2048494,41.5214044 16.9872368,40.5817152 C14.8632331,39.6888154 12.9354455,38.3910065 11.2722285,36.7278795 C9.61800949,35.0737505 8.32023054,33.1457829 7.4184228,31.0129612 C6.47882352,28.793489 6.00001091,26.4354778 6.00001091,24.000054 C6.00001091,21.5664598 6.47882352,19.206649 7.4184228,16.9890364 C8.31123256,14.8632331 9.60901151,12.9372451 11.2722285,11.2740281 C12.9264175,9.61980908 14.8542351,8.32203014 16.9872368,7.42022239 C19.2048494,6.47882352 21.5646602,6.00001091 24.000054,6.00001091 C26.4336782,6.00001091 28.793489,6.47882352 31.0111616,7.42022239 Z M32.5690122,3.7358187 C35.1652299,4.82700398 37.5212016,6.41100873 39.5541456,8.44602233 C41.5759922,10.4678389 43.1620365,12.8108234 44.2642893,15.4310358 C45.4127317,18.1414379 46,21.0256511 46,24.000054 C46,26.9766764 45.4127317,29.8586701 44.2642893,32.5714117 C43.173134,35.1673295 41.5867898,37.5212016 39.5541456,39.5562452 C37.5322991,41.5780917 35.178427,43.1620365 32.5690122,44.2663888 C29.8586701,45.4148312 26.9744869,46 24.000054,46 C21.0234616,46 18.1392484,45.4148312 15.4288463,44.2663888 C12.8328385,43.1752335 10.4766269,41.5891892 8.44383282,39.5562452 C6.42201626,37.5343986 4.835822,35.178427 3.7335992,32.5714117 C2.58520176,29.8586701 2,26.9766764 2,24.000054 C2,21.0256511 2.58520176,18.1414379 3.7335992,15.4310358 C4.82481447,12.8328385 6.41100873,10.4788164 8.44383282,8.44602233 C10.4656194,6.42420577 12.821831,4.83801151 15.4288463,3.7358187 C18.1392484,2.58520176 21.0234616,2 24.000054,2 C26.9744869,2 29.8586701,2.58520176 32.5690122,3.7358187 Z M18.0001996,15.0001224 L22.0001996,15.0001224 L22.0001996,33.0003155 L18.0001996,33.0003155 L18.0001996,15.0001224 Z M30.0000883,15.0001224 L26.0001254,15.0001224 L26.0001254,33.0003155 L30.0000883,33.0003155 L30.0000883,15.0001224 Z" id="Union"></path>
    </g>
</svg>
