<svg
  width="48"
  height="48"
  viewBox="0 0 48 48"
  fill="none"
  xmlns="http://www.w3.org/2000/svg"
>
<path
    fill-rule="evenodd"
    clip-rule="evenodd"
    d="M39.554 8.446C37.5212 6.411 35.165 4.827 32.569 3.7358C29.8586 2.5852 26.9744 2 24 2C21.0234 2 18.1392 2.5852 15.4288 3.7358C12.8218 4.838 10.4656 6.4242 8.4438 8.446C6.411 10.4788 4.8248 12.8328 3.7336 15.431C2.5852 18.1414 2 21.0256 2 24C2 26.9766 2.5852 29.8586 3.7336 32.5712C4.8358 35.1782 6.422 37.5344 8.4438 39.5562C10.4766 41.589 12.8328 43.1752 15.4288 44.2664C18.1392 45.4148 21.0234 46 24 46C26.9744 46 29.8586 45.4148 32.569 44.2664C35.1782 43.162 37.5322 41.578 39.554 39.5562C41.5868 37.5212 43.173 35.1672 44.2642 32.5712C45.4126 29.8586 46 26.9766 46 24C46 21.0256 45.4126 18.1414 44.2642 15.431C43.162 12.8108 41.5758 10.4678 39.554 8.446ZM18 33V15L34 24.0002L18 33Z"
    fill="black"
  />
</svg>
