<?xml version="1.0" encoding="UTF-8"?>
<svg width="48px" height="48px" viewBox="0 0 48 48" version="1.1" xmlns="http://www.w3.org/2000/svg" xmlns:xlink="http://www.w3.org/1999/xlink">
    <title>EC/Icons/General/2XL_48x48px/Icon-Play-filled</title>
    <g id="EC/Icons/General/2XL_48x48px/Icon-Play-filled" stroke="none" stroke-width="1">
        <path d="M39.554,8.446 C37.5212,6.411 35.165,4.827 32.569,3.7358 C29.8586,2.5852 26.9744,2 24,2 C21.0234,2 18.1392,2.5852 15.4288,3.7358 C12.8218,4.838 10.4656,6.4242 8.4438,8.446 C6.411,10.4788 4.8248,12.8328 3.7336,15.431 C2.5852,18.1414 2,21.0256 2,24 C2,26.9766 2.5852,29.8586 3.7336,32.5712 C4.8358,35.1782 6.422,37.5344 8.4438,39.5562 C10.4766,41.589 12.8328,43.1752 15.4288,44.2664 C18.1392,45.4148 21.0234,46 24,46 C26.9744,46 29.8586,45.4148 32.569,44.2664 C35.1782,43.162 37.5322,41.578 39.554,39.5562 C41.5868,37.5212 43.173,35.1672 44.2642,32.5712 C45.4126,29.8586 46,26.9766 46,24 C46,21.0256 45.4126,18.1414 44.2642,15.431 C43.162,12.8108 41.5758,10.4678 39.554,8.446 Z M18,33 L18,15 L34,24.0002165 L18,33 Z" id="Combined-Shape"></path>
    </g>
</svg>
