<svg
  width="48"
  height="48"
  viewBox="0 0 48 48"
  fill="none"
  xmlns="http://www.w3.org/2000/svg"
>
<path
    fill-rule="evenodd"
    clip-rule="evenodd"
    d="M8 30H40V10H8V30ZM44 6V10H42V32H26V34L36 46H32L24 36L16 46H12L22 34V32H6V10H4V6H44ZM20 4V2H28V4H20Z"
    fill="black"
  />
<mask
    id="mask0_1_1085445"
    style="mask-type:alpha"
    maskUnits="userSpaceOnUse"
    x="4"
    y="2"
    width="40"
    height="44"
  >
<path
      fill-rule="evenodd"
      clip-rule="evenodd"
      d="M8 30H40V10H8V30ZM44 6V10H42V32H26V34L36 46H32L24 36L16 46H12L22 34V32H6V10H4V6H44ZM20 4V2H28V4H20Z"
      fill="white"
    />
</mask>
<g mask="url(#mask0_1_1085445)">
</g>
</svg>
