<svg
  width="48"
  height="48"
  viewBox="0 0 48 48"
  fill="none"
  xmlns="http://www.w3.org/2000/svg"
>
<path
    fill-rule="evenodd"
    clip-rule="evenodd"
    d="M38.9996 22C37.3417 22 36 20.6584 36 19C36 17.3451 37.3417 16 38.9996 16C40.658 16 42 17.3448 42 19C42 20.6581 40.658 22 38.9996 22ZM46 12V34H38V46H10V34H2V12H46ZM12 26V42H36V26H12ZM16 32V30H32V32H16ZM12 6V10H10V2H38V10H36V6H12ZM16 38V36H28V38H16Z"
    fill="black"
  />
<mask
    id="mask0_1_1084792"
    style="mask-type:alpha"
    maskUnits="userSpaceOnUse"
    x="2"
    y="2"
    width="44"
    height="44"
  >
<path
      fill-rule="evenodd"
      clip-rule="evenodd"
      d="M38.9996 22C37.3417 22 36 20.6584 36 19C36 17.3451 37.3417 16 38.9996 16C40.658 16 42 17.3448 42 19C42 20.6581 40.658 22 38.9996 22ZM46 12V34H38V46H10V34H2V12H46ZM12 26V42H36V26H12ZM16 32V30H32V32H16ZM12 6V10H10V2H38V10H36V6H12ZM16 38V36H28V38H16Z"
      fill="white"
    />
</mask>
<g mask="url(#mask0_1_1084792)">
</g>
</svg>
