<?xml version="1.0" encoding="UTF-8" ?>
<svg xmlns="http://www.w3.org/2000/svg" viewBox="0 0 48 48"><defs><style
    >.cls-1{fill:none;}.cls-2{fill-rule:evenodd;}</style></defs><g
    id="transparant_bg"
  ><rect class="cls-1" y="0" width="48" height="48" /></g><g id="Layer_1"><path
      class="cls-2"
      d="M39,22c-1.66,0-3-1.34-3-3s1.34-3,3-3,3,1.34,3,3-1.34,3-3,3Zm7-10v22h-8v12H10v-12H2V12H46ZM12,26v16h24V26H12Zm4,6v-2h16v2H16ZM12,6v4h-2V2h28V10h-2V6H12Zm4,32v-2h12v2h-12Z"
    /></g></svg>
