<svg
  width="48"
  height="48"
  viewBox="0 0 48 48"
  xmlns="http://www.w3.org/2000/svg"
>
<path
    d="M42 15H37.5V9C37.5 7.35 36.15 6 34.5 6H13.5C11.85 6 10.5 7.35 10.5 9V15H6C4.35 15 3 16.35 3 18V34.5C3 36.15 4.35 37.5 6 37.5H10.5V42C10.5 43.65 11.85 45 13.5 45H34.5C36.15 45 37.5 43.65 37.5 42V37.5H42C43.65 37.5 45 36.15 45 34.5V18C45 16.35 43.65 15 42 15ZM13.5 9H34.5V15H13.5V9ZM34.5 34.5V37.5V42H13.5V30H34.5V34.5ZM42 34.5H37.5V27H10.5V34.5H6V18H42V34.5Z"
    fill-rule="evenodd"
  />
</svg>
