<svg width="48" height="48" viewBox="0 0 48 48" fill="none" xmlns="http://www.w3.org/2000/svg">
<path fill-rule="evenodd" clip-rule="evenodd" d="M24 2L46 14V16H2V14C2.16923 13.5552 18.9602 4.41441 24 2ZM16 20L14 22V38H6V22L4 20H16ZM42 22L44 20H32L34 22V38H42V22ZM30 20L28 22V38H20V22L18 20H30ZM46 46V42H2V46H46Z" fill="black"/>
<mask id="mask0_1_1085307" style="mask-type:alpha" maskUnits="userSpaceOnUse" x="2" y="2" width="44" height="44">
<path fill-rule="evenodd" clip-rule="evenodd" d="M24 2L46 14V16H2V14C2.16923 13.5552 18.9602 4.41441 24 2ZM16 20L14 22V38H6V22L4 20H16ZM42 22L44 20H32L34 22V38H42V22ZM30 20L28 22V38H20V22L18 20H30ZM46 46V42H2V46H46Z" fill="white"/>
</mask>
<g mask="url(#mask0_1_1085307)">
</g>
</svg>
