<?xml version="1.0" encoding="UTF-8" ?>
<svg xmlns="http://www.w3.org/2000/svg" viewBox="0 0 48 48"><defs><style
    >.cls-1{fill:none;}.cls-2{fill-rule:evenodd;}</style></defs><g
    id="transparant_bg"
  ><rect class="cls-1" width="48" height="48" /></g><g id="Layer_1"><path
      class="cls-2"
      d="M2,10c19.26,0,36,16.52,36,36h8c0-12.04-5.03-22.99-12.92-31.08C25.2,6.82,14.04,2,2,2V10Zm14.67,21.33c-3.94-3.94-9.19-5.33-14.67-5.33v-8c7.88,0,15.32,2.39,20.58,7.64,5.25,5.25,7.42,12.26,7.42,20.36h-8c0-5.47-1.39-10.73-5.33-14.67Zm-2.67,8.67c0,3.31-2.69,6-6,6s-6-2.69-6-6,2.69-6,6-6,6,2.69,6,6Z"
    /></g></svg>
