<svg
  width="48"
  height="48"
  viewBox="0 0 48 48"
  xmlns="http://www.w3.org/2000/svg"
>
<path
    d="M12.9293 8.99997C11.6093 8.99997 10.2893 9.08997 9.0293 9.29997V14.58C10.2893 14.31 11.6093 14.19 12.9293 14.19C18.5093 14.19 23.7293 16.35 27.6893 20.31C31.6193 24.24 33.7793 29.49 33.7793 35.07C33.7793 36.39 33.6593 37.71 33.3893 38.97H38.6693C38.8793 37.71 38.9693 36.39 38.9693 35.07C38.9693 20.67 27.2993 8.96997 12.8993 8.96997L12.9293 8.99997Z"
    fill-rule="evenodd"
  />
<path
    d="M12.9293 20.25C11.5793 20.25 10.2593 20.43 9.0293 20.79V26.28C10.2293 25.74 11.5493 25.44 12.9293 25.44C15.5093 25.44 17.9093 26.46 19.7093 28.26C21.5093 30.06 22.5293 32.52 22.5293 35.07C22.5293 36.42 22.2293 37.77 21.6893 38.97H27.1793C27.5693 37.74 27.7193 36.39 27.7193 35.04C27.7193 26.85 21.0593 20.22 12.8993 20.22L12.9293 20.25Z"
    fill-rule="evenodd"
  />
<path
    d="M12.9293 31.17C15.0893 31.17 16.8293 32.91 16.8293 35.07C16.8293 37.23 15.0893 38.97 12.9293 38.97C11.8493 38.97 10.8593 38.55 10.1693 37.83C9.4793 37.11 9.0293 36.15 9.0293 35.07C9.0293 32.91 10.7693 31.17 12.9293 31.17Z"
    fill-rule="evenodd"
  />
<path
    d="M0.09 37.14H0V36.78C0 36.78 0.03 37.02 0.09 37.14Z"
    fill-rule="evenodd"
  />
<path
    d="M11.2204 47.9999C11.1004 47.9999 10.8604 47.9099 10.8604 47.9099V47.9999H11.2204Z"
    fill-rule="evenodd"
  />
</svg>
