<svg width="48" height="48" viewBox="0 0 48 48" fill="none" xmlns="http://www.w3.org/2000/svg">
<path fill-rule="evenodd" clip-rule="evenodd" d="M2 10C21.2637 10 38 26.5174 38 46H46C46 33.9602 40.9652 23.0149 33.0846 14.9154C25.204 6.81592 14.0398 2 2 2V10ZM16.6667 31.3333C12.7264 27.393 7.47264 26 2 26V18C9.8806 18 17.3234 20.3881 22.5771 25.6418C27.8308 30.8955 30 37.9005 30 46H22C22 40.5274 20.607 35.2736 16.6667 31.3333ZM14 40C14 43.3137 11.3137 46 8 46C4.68629 46 2 43.3137 2 40C2 36.6863 4.68629 34 8 34C11.3137 34 14 36.6863 14 40Z" fill="black"/>
<mask id="mask0_1_1085417" style="mask-type:alpha" maskUnits="userSpaceOnUse" x="2" y="2" width="44" height="44">
<path fill-rule="evenodd" clip-rule="evenodd" d="M2 10C21.2637 10 38 26.5174 38 46H46C46 33.9602 40.9652 23.0149 33.0846 14.9154C25.204 6.81592 14.0398 2 2 2V10ZM16.6667 31.3333C12.7264 27.393 7.47264 26 2 26V18C9.8806 18 17.3234 20.3881 22.5771 25.6418C27.8308 30.8955 30 37.9005 30 46H22C22 40.5274 20.607 35.2736 16.6667 31.3333ZM14 40C14 43.3137 11.3137 46 8 46C4.68629 46 2 43.3137 2 40C2 36.6863 4.68629 34 8 34C11.3137 34 14 36.6863 14 40Z" fill="white"/>
</mask>
<g mask="url(#mask0_1_1085417)">
</g>
</svg>
