<?xml version="1.0" encoding="UTF-8"?>
<svg width="48px" height="48px" viewBox="0 0 48 48" version="1.1" xmlns="http://www.w3.org/2000/svg" xmlns:xlink="http://www.w3.org/1999/xlink">
    <title>EC/Icons/General/2XL_48x48px/Icon-RSS</title>
    <defs>
        <path d="M8,46 C11.3137085,46 14,43.3137085 14,40 C14,36.6862915 11.3137085,34 8,34 C4.6862915,34 2,36.6862915 2,40 C2,43.3137085 4.6862915,46 8,46 Z M16.6666667,31.3333333 C12.7263682,27.3930349 7.47263682,26 2,26 L2,18 C9.88059702,18 17.3233831,20.3880597 22.5771144,25.6417911 C27.8308457,30.8955225 30,37.9004976 30,46 L22,46 C22,40.5273632 20.6069652,35.2736318 16.6666667,31.3333333 Z M38,46 C38,26.5174129 21.2636816,10 2,10 L2,2 C14.039801,2 25.2039801,6.81592041 33.084577,14.9154229 C40.9651742,23.0149254 46,33.960199 46,46 L38,46 Z" id="path-1"></path>
    </defs>
    <g id="EC/Icons/General/2XL_48x48px/Icon-RSS" stroke="none" stroke-width="1">
        <mask id="mask-2" fill="white">
            <use xlink:href="#path-1"></use>
        </mask>
        <use id="RSS" xlink:href="#path-1"></use>
    </g>
</svg>
