<svg
  width="48"
  height="48"
  viewBox="0 0 48 48"
  fill="none"
  xmlns="http://www.w3.org/2000/svg"
>
<path
    fill-rule="evenodd"
    clip-rule="evenodd"
    d="M2 20C2 10.0589 10.0589 2 20 2C29.9411 2 38 10.0589 38 20C38 23.5223 36.9883 26.8083 35.2396 29.5832L45.8284 40.1716L40.1716 45.8284L29.5824 35.2402C26.8076 36.9885 23.5219 38 20 38C10.0589 38 2 29.9411 2 20ZM19.864 7.12742C12.6843 7.12742 6.86396 12.9477 6.86396 20.1274C6.86396 27.3071 12.6843 33.1274 19.864 33.1274C27.0437 33.1274 32.864 27.3071 32.864 20.1274C32.864 12.9477 27.0437 7.12742 19.864 7.12742Z"
    fill="black"
  />
</svg>
