<?xml version="1.0" encoding="UTF-8"?>
<svg width="48px" height="48px" viewBox="0 0 48 48" version="1.1" xmlns="http://www.w3.org/2000/svg" xmlns:xlink="http://www.w3.org/1999/xlink">
    <title>EC/Icons/General/2XL_48x48px/Icon-Share</title>
    <g id="EC/Icons/General/2XL_48x48px/Icon-Share" stroke="none" stroke-width="1">
        <path d="M36,2 C40.418278,2 44,5.581722 44,10 C44,14.418278 40.418278,18 36,18 C33.8379689,18 31.8762525,17.1423508 30.4365095,15.7487112 L19.7297726,21.9306173 C19.906036,22.5906886 20,23.284371 20,24 C20,24.7253728 19.9034598,25.4281974 19.722527,26.0963261 L30.2589253,32.4286311 C31.7127897,30.9307618 33.7476993,30 36,30 C40.418278,30 44,33.581722 44,38 C44,42.418278 40.418278,46 36,46 C31.581722,46 28,42.418278 28,38 C28,37.2746272 28.0965402,36.5718026 28.277473,35.9036739 L17.7410747,29.5713689 C16.2872103,31.0692382 14.2523007,32 12,32 C7.581722,32 4,28.418278 4,24 C4,19.581722 7.581722,16 12,16 C14.261673,16 16.3041419,16.9385241 17.7591939,18.4473593 L28.3462446,12.3353689 C28.121104,11.5965762 28,10.8124308 28,10 C28,5.581722 31.581722,2 36,2 Z" id="Combined-Shape"></path>
    </g>
</svg>
