<?xml version="1.0" encoding="UTF-8"?>
<svg width="48px" height="48px" viewBox="0 0 48 48" version="1.1" xmlns="http://www.w3.org/2000/svg" xmlns:xlink="http://www.w3.org/1999/xlink">
    <title>EC/Icons/General/2XL_48x48px/Icon-Spinner</title>
    <g id="EC/Icons/General/2XL_48x48px/Icon-Spinner" stroke="none" stroke-width="1">
        <path d="M29.1333542,36.2814066 L31.6282906,44.7783797 L27.519125,45.9849396 L25.0241886,37.4879665 L29.1333542,36.2814066 Z M17.8666458,36.2814066 L21.9758114,37.4879665 L19.480875,45.9849396 L15.3717094,44.7783797 L17.8666458,36.2814066 Z M34.5023468,31.2197905 L41.1950314,37.0190346 L38.3904968,40.2556401 L31.6978122,34.4563959 L34.5023468,31.2197905 Z M12.4976532,31.2197905 L15.3021878,34.4563959 L8.60950323,40.2556401 L5.80496865,37.0190346 L12.4976532,31.2197905 Z M36.3781721,23.9101454 L45.1437247,25.1704416 L44.5342411,29.4094933 L35.7686884,28.1491971 L36.3781721,23.9101454 Z M10.6218279,23.9101454 L11.2313116,28.1491971 L2.46575894,29.4094933 L1.85627533,25.1704416 L10.6218279,23.9101454 Z M42.2206883,12.9944453 L43.9997624,16.8900741 L35.9443428,20.568861 L34.1652687,16.6732322 L42.2206883,12.9944453 Z M4.77931167,12.9944453 L12.8347313,16.6732322 L11.0556572,20.568861 L3.00023757,16.8900741 L4.77931167,12.9944453 Z M33.3539657,4.35683832 L36.9567541,6.67220981 L32.1690062,14.122091 L28.5662178,11.8067195 L33.3539657,4.35683832 Z M13.6460343,4.35683832 L18.4337822,11.8067195 L14.8309938,14.122091 L10.0432459,6.67220981 L13.6460343,4.35683832 Z M25,2 L25,11 L21,11 L21,2 L25,2 Z" id="Combined-Shape"></path>
    </g>
</svg>
