<svg
  width="48"
  height="48"
  viewBox="0 0 48 48"
  xmlns="http://www.w3.org/2000/svg"
>
<path d="M25.5 6H22.5V15H25.5V6Z" fill-rule="evenodd" />
<path d="M25.5 33H22.5V42H25.5V33Z" fill-rule="evenodd" />
<path
    d="M13.7007 9.14301L16.299 7.64346L20.7977 15.4385L18.1993 16.938L13.7007 9.14301Z"
    fill-rule="evenodd"
  />
<path
    d="M29.8181 31.0626L27.2197 32.5622L31.7184 40.3572L34.3167 38.8577L29.8181 31.0626Z"
    fill-rule="evenodd"
  />
<path
    d="M7.65234 16.312L9.15234 13.7139L16.9466 18.2139L15.4466 20.812L7.65234 16.312Z"
    fill-rule="evenodd"
  />
<path
    d="M32.543 27.1989L31.043 29.7969L38.8372 34.2969L40.3372 31.6989L32.543 27.1989Z"
    fill-rule="evenodd"
  />
<path d="M6 22.5H15V25.5H6V22.5Z" fill-rule="evenodd" />
<path d="M42 22.5H33V25.5H42V22.5Z" fill-rule="evenodd" />
<path
    d="M7.64062 31.6912L15.4349 27.1912L16.9349 29.7892L9.14062 34.2892L7.64062 31.6912Z"
    fill-rule="evenodd"
  />
<path
    d="M38.8473 13.685L31.0547 18.1877L32.5556 20.7852L40.3483 16.2825L38.8473 13.685Z"
    fill-rule="evenodd"
  />
<path
    d="M13.7036 38.842L18.2023 31.047L20.8006 32.5465L16.302 40.3415L13.7036 38.842Z"
    fill-rule="evenodd"
  />
</svg>
