<svg
  width="48"
  height="48"
  viewBox="0 0 48 48"
  fill="none"
  xmlns="http://www.w3.org/2000/svg"
>
<path
    fill-rule="evenodd"
    clip-rule="evenodd"
    d="M20.9999 2H24.9999V11H20.9999V2ZM33.3539 4.35684L36.9567 6.67221L32.1689 14.1221L28.5661 11.8067L33.3539 4.35684ZM43.9997 16.8901L42.2206 12.9944L34.1652 16.6732L35.9443 20.5689L43.9997 16.8901ZM45.1437 25.1704L44.5342 29.4095L35.7686 28.1492L36.3781 23.9101L45.1437 25.1704ZM38.3904 40.2556L41.195 37.019L34.5023 31.2198L31.6977 34.4564L38.3904 40.2556ZM31.6282 44.7784L27.5191 45.9849L25.0241 37.488L29.1333 36.2814L31.6282 44.7784ZM15.3716 44.7784L19.4808 45.9849L21.9757 37.488L17.8666 36.2814L15.3716 44.7784ZM8.60943 40.2556L5.80489 37.019L12.4976 31.2198L15.3021 34.4564L8.60943 40.2556ZM1.8562 25.1704L2.46568 29.4095L11.2312 28.1492L10.6218 23.9101L1.8562 25.1704ZM3.00016 16.8901L4.77924 12.9944L12.8347 16.6732L11.0556 20.5689L3.00016 16.8901ZM13.646 4.35684L10.0432 6.67221L14.8309 14.1221L18.4337 11.8067L13.646 4.35684Z"
    fill="black"
  />
</svg>
