<?xml version="1.0" encoding="UTF-8"?>
<svg width="48px" height="48px" viewBox="0 0 48 48" version="1.1" xmlns="http://www.w3.org/2000/svg" xmlns:xlink="http://www.w3.org/1999/xlink">
    <title>EC/Icons/General/2XL_48x48px/Icon-Spreadsheet</title>
    <defs>
        <path d="M2,2 L46,2 L46,46 L2,46 L2,2 Z M6,26 L14,26 L14,20 L6,20 L6,26 Z M6,34 L14,34 L14,28 L6,28 L6,34 Z M14,42 L14,36 L6,36 L6,42 L14,42 Z M42,36 L16,36 L16,42 L42,42 L42,36 Z M16,34 L42,34 L42,28 L16,28 L16,34 Z M16,26 L42,26 L42,20 L16,20 L16,26 Z M16,18 L42,18 L42,10 L16,10 L16,18 Z M6,18 L14,18 L14,10 L6,10 L6,18 Z" id="path-1"></path>
    </defs>
    <g id="EC/Icons/General/2XL_48x48px/Icon-Spreadsheet" stroke="none" stroke-width="1">
        <mask id="mask-2">
            <use xlink:href="#path-1"></use>
        </mask>
        <use id="Spreadsheet" xlink:href="#path-1"></use>
    </g>
</svg>
