<svg
  width="48"
  height="48"
  viewBox="0 0 48 48"
  fill="none"
  xmlns="http://www.w3.org/2000/svg"
>
<path
    fill-rule="evenodd"
    clip-rule="evenodd"
    d="M2 2H46V46H2V2ZM6 26H14V20H6V26ZM6 34H14V28H6V34ZM14 42V36H6V42H14ZM42 36H16V42H42V36ZM16 34H42V28H16V34ZM16 26H42V20H16V26ZM16 18H42V10H16V18ZM6 18H14V10H6V18Z"
    fill="black"
  />
<mask
    id="mask0_1_1084077"
    style="mask-type:alpha"
    maskUnits="userSpaceOnUse"
    x="2"
    y="2"
    width="44"
    height="44"
  >
<path
      fill-rule="evenodd"
      clip-rule="evenodd"
      d="M2 2H46V46H2V2ZM6 26H14V20H6V26ZM6 34H14V28H6V34ZM14 42V36H6V42H14ZM42 36H16V42H42V36ZM16 34H42V28H16V34ZM16 26H42V20H16V26ZM16 18H42V10H16V18ZM6 18H14V10H6V18Z"
      fill="white"
    />
</mask>
<g mask="url(#mask0_1_1084077)">
</g>
</svg>
