<svg
  width="48"
  height="48"
  viewBox="0 0 48 48"
  xmlns="http://www.w3.org/2000/svg"
>
<path
    fill-rule="evenodd"
    clip-rule="evenodd"
    d="M42 3H6C4.35 3 3 4.35 3 6V42C3 43.65 4.35 45 6 45H42C43.65 45 45 43.65 45 42V6C45 4.35 43.65 3 42 3ZM6 6H28.5V13.5H6V6ZM19.5 31.5V25.5H28.5V31.5H19.5ZM19.5 22.5V16.5H28.5V22.5H19.5ZM6 16.5H16.5V22.5H6V16.5ZM6 25.5H16.5V31.5H6V25.5ZM6 42V34.5H16.5V42H6ZM42 42H19.5V34.5H42V42ZM42 31.5H31.5V25.5H42V31.5ZM42 22.5H31.5V16.5H42V22.5ZM42 13.5H31.5V6H42V13.5Z"
  />
</svg>
