<svg width="24" height="24" xmlns="http://www.w3.org/2000/svg" xmlns:xlink="http://www.w3.org/1999/xlink"><defs><path d="M20.592 8.031C20.592 14.068 16.104 21 7.896 21 5.269 21 2.86 20.217 1 18.876h.985c2.08 0 3.94-.783 5.582-2.013a4.415 4.415 0 0 1-4.268-3.13c.437.112.656.112.875.112.438 0 .766 0 1.204-.112-2.08-.447-3.612-2.236-3.612-4.472.657.223 1.314.559 2.08.559-1.314-.783-2.08-2.236-2.08-3.801 0-.895.22-1.677.657-2.348 2.189 2.907 5.582 4.695 9.303 4.92-.11-.448-.11-.672-.11-1.007 0-2.46 2.08-4.584 4.488-4.584 1.423 0 2.627.559 3.394 1.453.985-.111 1.97-.559 2.845-1.006-.219 1.006-.985 2.013-1.97 2.46.876-.112 1.751-.447 2.627-.783-.766.783-1.532 1.565-2.408 2.236v.671z" id="a"/></defs><use xlink:href="#a"/></svg>