<?xml version="1.0" encoding="UTF-8" standalone="no" ?>
<svg
  width="48"
  height="48"
  viewBox="0 0 48 48"
  version="1.1"
  id="svg59"
  xmlns="http://www.w3.org/2000/svg"
  xmlns:svg="http://www.w3.org/2000/svg"
>
  <defs id="defs63" />
  <path
    id="path53"
    d="M 23.996094 6.3144531 C 23.789844 6.3144531 23.580938 6.4208594 23.460938 6.6308594 L 23.490234 6.6308594 L 13.410156 25.320312 L 3.2714844 44.099609 C 3.0614844 44.489609 3.3605469 44.970703 3.8105469 44.970703 L 44.191406 44.970703 C 44.671406 44.970703 44.940469 44.489609 44.730469 44.099609 L 34.589844 25.320312 L 24.509766 6.6308594 C 24.404766 6.4208594 24.202344 6.3144531 23.996094 6.3144531 z M 22.5 17.970703 L 25.5 17.970703 L 25.5 32.099609 L 22.5 32.099609 L 22.5 17.970703 z M 24 34.890625 C 25.14 34.890625 26.041016 35.790391 26.041016 36.900391 C 26.041016 38.010391 25.11 38.910156 24 38.910156 C 22.89 38.910156 21.990234 38.010391 21.990234 36.900391 C 21.990234 35.790391 22.89 34.890625 24 34.890625 z "
  />
</svg>
