<svg xmlns="http://www.w3.org/2000/svg" viewBox="0 0 40 40"><path fill="#055d00" d="M0 0h40v40H0z"/><path d="M19.3 26.4v-4.2l-2.4-1.7c-.2.1-.5.2-.7.2-.8 0-1.5-.6-1.5-1.5 0-.8.7-1.5 1.5-1.5s1.5.7 1.5 1.5v.3l1.7 1.2v-4.2L17 14.8c-.2.1-.5.2-.7.2-.8 0-1.5-.7-1.5-1.5s.7-1.5 1.5-1.5 1.5.7 1.5 1.5v.3l1.7 1.2v-3.7h1.4V18l1.7-1.2v-.3c0-.8.6-1.5 1.5-1.5.8 0 1.5.7 1.5 1.5S25 18 24.1 18c-.3 0-.5-.1-.7-.2L21 19.5v4.2l1.7-1.2v-.3c0-.8.6-1.5 1.5-1.5.8 0 1.5.7 1.5 1.5s-.6 1.5-1.5 1.5c-.3 0-.5-.1-.7-.2l-2.4 1.7v4.2l1.7-1.2v-.3c0-.8.6-1.5 1.5-1.5.8 0 1.5.6 1.5 1.5 0 .8-.6 1.5-1.5 1.5-.3 0-.5-.1-.7-.2l-2.4 1.7v1.5h4.1c2 0 3.6-1.6 3.6-3.7V11.4c0-2-1.6-3.6-3.6-3.6h-9.5c-2 0-3.6 1.6-3.6 3.6v17.2c0 2 1.6 3.7 3.6 3.7h4.1v-4.4l-2.4-1.7c-.2.1-.5.2-.7.2-.8 0-1.5-.6-1.5-1.5 0-.8.7-1.5 1.5-1.5s1.5.6 1.5 1.5v.3l1 1.2z" fill="#fff"/></svg>