<svg xmlns="http://www.w3.org/2000/svg" viewBox="0 0 50 50"><path fill="#f07355" d="M0 0h50v50H0z"/><path fill-opacity=".3" d="M0 0h50v50H0z"/><path d="M11 28.8c0 3.1 1.1 5.8 3.2 8.2s4.9 3.5 8.3 3.5c3.4 0 6.1-1.2 8.2-3.5 2.1-2.3 3.2-5 3.2-8.2 0-1.7-.3-3.2-.9-4.6-.8.5-1.8.9-2.7 1.1.5 1.1.7 2.3.7 3.6 0 1.6-.4 3.1-1.1 4.5-.8 1.4-1.8 2.5-3.2 3.2-1.3.8-2.7 1.1-4.3 1.1-1.6 0-3-.4-4.3-1.1-1.3-.8-2.4-1.9-3.1-3.2-.8-1.4-1.2-2.9-1.2-4.5 0-2.5.8-4.6 2.5-6.4 1.7-1.8 3.7-2.6 6.1-2.6 1.1 0 2.1.2 3.1.6.1-.8.4-1.7.9-2.7-1.2-.4-2.5-.7-4-.7-3.4 0-6.2 1.3-8.5 3.8-1.9 2.2-2.9 4.8-2.9 7.9zm8.9 8.1l1.8.1c1.6-1 2.9-2.2 4-3.5 1.1-1.3 1.8-2.6 2.3-3.9.5-1.3.8-2.7 1-4 .1-.9.2-1.7.2-2.5 0-.4 0-.9-.1-1.3-.1-1.2-.2-2.2-.4-3.1-.2-.9-.3-1.7-.5-2.2l-.3-.8c-.5-1.4-.9-2.7-1.4-3.8s-.8-1.8-1-2.1l-.4-.5c.8.4 1.5.9 2 1.5s.8 1.2.9 1.7c.1.4.1.8.1 1.2v.2c0 .5-.1.8-.2 1.1l-.2.4c.1 1.2.1 2.4.2 3.6 0 1.1-.1 2.2-.2 3.2-.2 2.1-.5 3.9-1 5.3s-1 2.7-1.6 3.9c-.6 1.2-1.2 2.1-1.8 2.7-.6.7-1.2 1.2-1.7 1.6-.5.4-1 .7-1.3.9l-.4.3zm8.8-20.3c.1-.8.3-1.5.7-2l.6-.8c.3-.3.7-.6 1.2-.8.6-.3 1.1-.5 1.5-.6l.7-.2c.8-.2 1.5-.5 2.1-1.1.6-.6 1.1-1.1 1.4-1.6l.4-.7c.9 1.2 1.4 2.6 1.6 4.1.1.7.1 1.3.1 1.8 0 .7-.1 1.3-.2 1.9l-.4 1.4c-.3.7-.6 1.3-1.1 1.9-.5.6-.8 1-1.2 1.2l-.5.4c-.6.3-1.3.5-2 .5l-3.5-1.7c1.2-.7 2.3-1.4 3.2-2.1.9-.7 1.6-1.3 2-1.8.4-.5.8-1 1.1-1.4.3-.4.4-.8.5-1l.1-.3c-.4.8-.9 1.6-1.5 2.3-.6.7-1.3 1.3-2 1.7-.7.4-1.3.7-1.9 1-.6.3-1.1.5-1.5.6l-.6.2c-.5-.9-.8-1.8-.8-2.5-.1-.2 0-.3 0-.4z" fill="#fff"/></svg>