<?xml version="1.0" encoding="UTF-8"?>
<svg width="460px" height="345px" viewBox="0 0 460 345" version="1.1" xmlns="http://www.w3.org/2000/svg" xmlns:xlink="http://www.w3.org/1999/xlink">
    <!-- Generator: Sketch 55 (78076) - https://sketchapp.com -->
    <title>ec_component</title>
    <desc>Created with Sketch.</desc>
    <g id="Symbols" stroke="none" stroke-width="1" fill="none" fill-rule="evenodd">
        <g id="ecl-component-library" fill="#044695">
            <g id="Contextual-navigation" transform="translate(104.000000, 168.000000)">
                <g id="Group-7-Copy">
                    <g id="Stacked-Group" fill-rule="nonzero">
                        <path d="M0,9.83957219 L0,0.0401069519 L1.90231362,0.0401069519 L1.90231362,9.83957219 L0,9.83957219 Z M6.83161954,2.74064171 L6.83161954,4.23796791 L5.59768638,4.23796791 L5.59768638,7.09893048 C5.59768638,7.67825602 5.60946861,8.01581949 5.63303342,8.11163102 C5.65659823,8.20744255 5.71015382,8.28654158 5.7937018,8.34893048 C5.87724978,8.41131939 5.9790054,8.44251337 6.09897172,8.44251337 C6.26606767,8.44251337 6.50813895,8.38235354 6.8251928,8.26203209 L6.97943445,9.71925134 C6.55955231,9.90641805 6.08397866,10 5.55269923,10 C5.22707635,10 4.93359171,9.94318239 4.6722365,9.82954545 C4.4108813,9.71590852 4.21915228,9.56885117 4.0970437,9.38836898 C3.97493512,9.2078868 3.89031729,8.96390528 3.84318766,8.65641711 C3.80462706,8.43805595 3.78534704,7.99688389 3.78534704,7.3328877 L3.78534704,4.23796791 L2.9562982,4.23796791 L2.9562982,2.74064171 L3.78534704,2.74064171 L3.78534704,1.3302139 L5.59768638,0.233957219 L5.59768638,2.74064171 L6.83161954,2.74064171 Z M12.0372751,7.5802139 L13.8367609,7.89438503 C13.6053973,8.58066297 13.2401482,9.1031622 12.7410026,9.4618984 C12.241857,9.82063459 11.6173988,10 10.8676093,10 C9.68079955,10 8.80248785,9.59670635 8.23264781,8.79010695 C7.7827741,8.14393616 7.55784062,7.3284363 7.55784062,6.34358289 C7.55784062,5.16710642 7.85346748,4.24576982 8.44473008,3.57954545 C9.03599267,2.91332109 9.78362873,2.5802139 10.6876607,2.5802139 C11.7030899,2.5802139 12.5042816,2.92891808 13.0912596,3.6263369 C13.6782377,4.32375572 13.958869,5.39214967 13.933162,6.8315508 L9.40874036,6.8315508 C9.42159389,7.38859459 9.5672651,7.82196815 9.84575835,8.13168449 C10.1242516,8.44140084 10.4712918,8.59625668 10.8868895,8.59625668 C11.1696672,8.59625668 11.407454,8.51604358 11.6002571,8.35561497 C11.7930601,8.19518636 11.9387313,7.93672193 12.0372751,7.5802139 Z M12.1401028,5.68181818 C12.1272493,5.13814345 11.9922892,4.72482316 11.7352185,4.44184492 C11.4781478,4.15886668 11.1653832,4.01737968 10.7969152,4.01737968 C10.4027401,4.01737968 10.0771221,4.16666517 9.82005141,4.46524064 C9.56298072,4.76381611 9.43658952,5.1693379 9.44087404,5.68181818 L12.1401028,5.68181818 Z M15.2699229,2.74064171 L16.9344473,2.74064171 L16.9344473,3.70989305 C17.5299944,2.95676985 18.2390704,2.5802139 19.0616967,2.5802139 C19.4987168,2.5802139 19.8778904,2.67379586 20.1992288,2.86096257 C20.5205672,3.04812928 20.7840607,3.33110328 20.9897172,3.70989305 C21.289633,3.33110328 21.6131088,3.04812928 21.9601542,2.86096257 C22.3071997,2.67379586 22.6778044,2.5802139 23.0719794,2.5802139 C23.5732673,2.5802139 23.9974276,2.68605064 24.344473,2.89772727 C24.6915184,3.10940391 24.9507275,3.42022968 25.122108,3.8302139 C25.2463588,4.13324572 25.3084833,4.6234369 25.3084833,5.30080214 L25.3084833,9.83957219 L23.5025707,9.83957219 L23.5025707,5.78208556 C23.5025707,5.07798222 23.4404462,4.62344131 23.3161954,4.4184492 C23.1490994,4.15106818 22.8920326,4.01737968 22.5449871,4.01737968 C22.292201,4.01737968 22.0544141,4.09759278 21.8316195,4.25802139 C21.6088249,4.41845 21.4481582,4.65351895 21.3496144,4.96323529 C21.2510706,5.27295164 21.2017995,5.76202874 21.2017995,6.43048128 L21.2017995,9.83957219 L19.3958869,9.83957219 L19.3958869,5.94919786 C19.3958869,5.25846357 19.3637535,4.81283523 19.2994859,4.61229947 C19.2352182,4.4117637 19.1356048,4.26247821 19.0006427,4.1644385 C18.8656806,4.0663988 18.6825204,4.01737968 18.4511568,4.01737968 C18.1726636,4.01737968 17.9220234,4.09536464 17.6992288,4.2513369 C17.4764342,4.40730916 17.3168385,4.63235147 17.220437,4.92647059 C17.1240355,5.22058971 17.0758355,5.70855274 17.0758355,6.39037433 L17.0758355,9.83957219 L15.2699229,9.83957219 L15.2699229,2.74064171 Z M35,9.83957219 L33.1940874,9.83957219 L33.1940874,2.76069519 C32.5342726,3.40240963 31.7566454,3.87700381 30.8611825,4.18449198 L30.8611825,2.47994652 C31.3324788,2.31951791 31.8444702,2.01537657 32.3971722,1.56751337 C32.9498742,1.11965017 33.3290478,0.597150936 33.5347044,0 L35,0 L35,9.83957219 Z" id="Item1"></path>
                        <path d="M212,9.40366972 L212,0.297187769 L214.838482,0.297187769 L216.542852,6.50897628 L218.228,0.297187769 L221.072889,0.297187769 L221.072889,9.40366972 L219.310852,9.40366972 L219.310852,2.23526578 L217.446297,9.40366972 L215.620185,9.40366972 L213.762037,2.23526578 L213.762037,9.40366972 L212,9.40366972 Z M222.527371,6.0120332 C222.527371,5.43226337 222.67474,4.87113742 222.969482,4.32863851 C223.264224,3.7861396 223.68177,3.37202451 224.22213,3.08628081 C224.762491,2.80053711 225.365849,2.6576674 226.032223,2.6576674 C227.061685,2.6576674 227.905319,2.98171246 228.563149,3.6298123 C229.22098,4.27791215 229.54989,5.09682474 229.54989,6.08657466 C229.54989,7.084607 229.217776,7.9118019 228.553538,8.56818417 C227.8893,9.22456644 227.053142,9.55275265 226.045038,9.55275265 C225.42138,9.55275265 224.826565,9.41609467 224.260575,9.14277461 C223.694584,8.86945455 223.264224,8.46879819 222.969482,7.94079353 C222.67474,7.41278887 222.527371,6.76987519 222.527371,6.0120332 Z M224.372704,6.10521003 C224.372704,6.75952169 224.532888,7.26060095 224.85326,7.60846285 C225.173632,7.95632474 225.568751,8.13025308 226.03863,8.13025308 C226.508509,8.13025308 226.902561,7.95632474 227.220797,7.60846285 C227.539033,7.26060095 227.698149,6.75538054 227.698149,6.09278645 C227.698149,5.44675721 227.539033,4.9498191 227.220797,4.60195721 C226.902561,4.25409531 226.508509,4.08016697 226.03863,4.08016697 C225.568751,4.08016697 225.173632,4.25409531 224.85326,4.60195721 C224.532888,4.9498191 224.372704,5.45089836 224.372704,6.10521003 Z M232.683112,9.40366972 L230.882631,9.40366972 L230.882631,2.80675033 L232.554964,2.80675033 L232.554964,3.74473039 C232.841163,3.3016206 233.098525,3.00966946 233.327057,2.86886821 C233.555589,2.72806697 233.815086,2.6576674 234.105557,2.6576674 C234.515633,2.6576674 234.910752,2.7674079 235.290927,2.98689219 L234.733483,4.50878038 C234.430197,4.31828458 234.148274,4.22303811 233.887705,4.22303811 C233.635679,4.22303811 233.422101,4.29033181 233.246964,4.42492123 C233.071827,4.55951066 232.93407,4.80280327 232.833686,5.15480638 C232.733303,5.50680949 232.683112,6.24393436 232.683112,7.36620309 L232.683112,9.40366972 Z M240.006779,7.30408521 L241.800854,7.59603927 C241.570186,8.23378608 241.206035,8.71933602 240.70839,9.05270367 C240.210746,9.38607132 239.588166,9.55275265 238.840631,9.55275265 C237.657391,9.55275265 236.78172,9.17797849 236.213594,8.42841893 C235.765073,7.82794304 235.540816,7.07011242 235.540816,6.15490433 C235.540816,5.06162409 235.835554,4.20544114 236.425038,3.58632978 C237.014523,2.96721843 237.759911,2.6576674 238.661224,2.6576674 C239.673599,2.6576674 240.472381,2.98171246 241.057594,3.6298123 C241.642807,4.27791215 241.922594,5.27075308 241.896965,6.6083649 L237.38615,6.6083649 C237.398964,7.12601653 237.544198,7.52874345 237.821853,7.81655776 C238.099509,8.10437207 238.445506,8.24827706 238.859853,8.24827706 C239.141781,8.24827706 239.378852,8.17373635 239.571076,8.02465268 C239.763299,7.87556901 239.908532,7.63538225 240.006779,7.30408521 Z M240.109298,5.53993727 C240.096483,5.03470928 239.961929,4.65061753 239.705631,4.3876505 C239.449334,4.12468347 239.13751,3.99320193 238.77015,3.99320193 C238.37716,3.99320193 238.052521,4.13193049 237.796224,4.40939176 C237.539926,4.68685304 237.413915,5.06369777 237.418187,5.53993727 L240.109298,5.53993727 Z M252.810735,5.38990826 L248.221071,9.83944954 C248.110667,9.9464833 247.976604,10 247.818884,10 C247.661163,10 247.527101,9.9464833 247.416697,9.83944954 L246.896219,9.33486239 C246.785815,9.22782863 246.72667,9.09785944 246.718784,8.94495413 C246.710898,8.79204881 246.762157,8.66207963 246.872561,8.55504587 L250.539561,5 L246.872561,1.44495413 C246.762157,1.33792037 246.710898,1.20795119 246.718784,1.05504587 C246.72667,0.902140556 246.785815,0.77217137 246.896219,0.665137615 L247.416697,0.160550459 C247.527101,0.0535167029 247.661163,0 247.818884,0 C247.976604,0 248.110667,0.0535167029 248.221071,0.160550459 L252.810735,4.61009174 C252.936912,4.7171255 253,4.84709468 253,5 C253,5.15290532 252.936912,5.2828745 252.810735,5.38990826 Z" id="Moreï”"></path>
                        <path d="M141,8.8496994 L141,0.0360721443 L142.87243,0.0360721443 L142.87243,8.8496994 L141,8.8496994 Z M147.724302,2.46492986 L147.724302,3.81162325 L146.509752,3.81162325 L146.509752,6.38476954 C146.509752,6.90581423 146.521349,7.20941841 146.544544,7.29559118 C146.567739,7.38176396 146.620453,7.45290553 146.702688,7.50901804 C146.784924,7.56513054 146.885081,7.59318637 147.003163,7.59318637 C147.167634,7.59318637 147.405902,7.5390787 147.717976,7.43086172 L147.869794,8.74148297 C147.456508,8.90982048 146.988405,8.99398798 146.465472,8.99398798 C146.144964,8.99398798 145.85609,8.94288628 145.59884,8.84068136 C145.341591,8.73847644 145.152874,8.60621324 145.032683,8.44388778 C144.912493,8.28156231 144.829204,8.06212563 144.782815,7.78557114 C144.74486,7.58917737 144.725883,7.19238776 144.725883,6.59519038 L144.725883,3.81162325 L143.909858,3.81162325 L143.909858,2.46492986 L144.725883,2.46492986 L144.725883,1.19639279 L146.509752,0.210420842 L146.509752,2.46492986 L147.724302,2.46492986 Z M152.848181,6.81763527 L154.619399,7.1002004 C154.39167,7.71743796 154.032158,8.18737314 153.540854,8.51002004 C153.049549,8.83266694 152.434901,8.99398798 151.69689,8.99398798 C150.528724,8.99398798 149.664209,8.63126615 149.103321,7.90581162 C148.660514,7.32464639 148.439114,6.59118679 148.439114,5.70541082 C148.439114,4.6472893 148.730097,3.81864027 149.312072,3.21943888 C149.894046,2.62023748 150.629938,2.32064128 151.519768,2.32064128 C152.519246,2.32064128 153.307852,2.6342654 153.885609,3.26152305 C154.463366,3.88878069 154.739589,4.84969293 154.714286,6.14428858 L150.260938,6.14428858 C150.27359,6.64529309 150.416973,7.03506875 150.691091,7.31362725 C150.96521,7.59218576 151.306798,7.73146293 151.715867,7.73146293 C151.994203,7.73146293 152.228254,7.65931936 152.418028,7.51503006 C152.607803,7.37074076 152.751186,7.13827816 152.848181,6.81763527 Z M152.949394,5.11022044 C152.936742,4.62124004 152.803902,4.24950027 152.55087,3.99498998 C152.297837,3.74047969 151.989986,3.61322645 151.627306,3.61322645 C151.239323,3.61322645 150.91882,3.74749365 150.665788,4.01603206 C150.412756,4.28457048 150.28835,4.64929629 150.292567,5.11022044 L152.949394,5.11022044 Z M156.030047,2.46492986 L157.668424,2.46492986 L157.668424,3.33667335 C158.254615,2.65931525 158.952553,2.32064128 159.762256,2.32064128 C160.192411,2.32064128 160.565628,2.40480878 160.881919,2.57314629 C161.198209,2.74148381 161.457564,2.99599028 161.659989,3.33667335 C161.955194,2.99599028 162.273588,2.74148381 162.615182,2.57314629 C162.956776,2.40480878 163.321558,2.32064128 163.709541,2.32064128 C164.202954,2.32064128 164.620452,2.41583071 164.962045,2.60621242 C165.303639,2.79659414 165.558776,3.07615046 165.727464,3.44488978 C165.849763,3.71743623 165.910912,4.15831359 165.910912,4.76753507 L165.910912,8.8496994 L164.133368,8.8496994 L164.133368,5.2004008 C164.133368,4.5671311 164.07222,4.15831756 163.949921,3.9739479 C163.78545,3.73346573 163.532421,3.61322645 163.190828,3.61322645 C162.942012,3.61322645 162.707961,3.68537002 162.488666,3.82965932 C162.269372,3.97394862 162.111229,4.18536935 162.014233,4.46392786 C161.917237,4.74248636 161.86874,5.18236172 161.86874,5.78356713 L161.86874,8.8496994 L160.091197,8.8496994 L160.091197,5.3507014 C160.091197,4.72945581 160.059568,4.32865822 159.99631,4.14829659 C159.933052,3.96793497 159.835003,3.83366778 159.702161,3.74549098 C159.569319,3.65731419 159.389036,3.61322645 159.161307,3.61322645 C158.887189,3.61322645 158.640486,3.68336603 158.421191,3.82364729 C158.201897,3.96392856 158.044808,4.16633134 157.949921,4.43086172 C157.855034,4.6953921 157.807591,5.13426547 157.807591,5.74749499 L157.807591,8.8496994 L156.030047,8.8496994 L156.030047,2.46492986 Z M170.838693,6.51102204 L172.559304,6.31262525 C172.614128,6.729461 172.761728,7.04809509 173.002109,7.26853707 C173.242489,7.48897906 173.533472,7.5991984 173.875066,7.5991984 C174.241963,7.5991984 174.550869,7.46693519 174.801792,7.20240481 C175.052716,6.93787443 175.178176,6.58116457 175.178176,6.13226453 C175.178176,5.70741271 175.057987,5.37074273 174.817607,5.12224449 C174.577226,4.87374625 174.284135,4.749499 173.938324,4.749499 C173.710595,4.749499 173.438589,4.79158275 173.122298,4.8757515 L173.318397,3.498998 C173.799159,3.5110221 174.16605,3.4118247 174.419083,3.20140281 C174.672115,2.99098091 174.798629,2.71142459 174.798629,2.36272545 C174.798629,2.06613078 174.705852,1.8296602 174.520295,1.65330661 C174.334738,1.47695303 174.088035,1.38877756 173.780179,1.38877756 C173.47654,1.38877756 173.217186,1.48897695 173.002109,1.68937876 C172.787031,1.88978056 172.6563,2.18236281 172.60991,2.56713427 L170.971534,2.30260521 C171.085399,1.76953641 171.257247,1.34368897 171.487085,1.0250501 C171.716923,0.706411232 172.037425,0.455912735 172.448603,0.273547094 C172.859781,0.0911814529 173.320504,0 173.830785,0 C174.703747,0 175.403793,0.264526413 175.930944,0.793587174 C176.365316,1.22645507 176.582499,1.71542814 176.582499,2.26052104 C176.582499,3.034072 176.13759,3.6513003 175.24776,4.11222445 C175.779128,4.22044142 176.204005,4.46292397 176.522404,4.83967936 C176.840803,5.21643475 177,5.67134002 177,6.20440882 C177,6.97795978 176.702691,7.63727182 176.108065,8.18236473 C175.513439,8.72745764 174.773331,9 173.887717,9 C173.048493,9 172.352665,8.77054338 171.800211,8.31162325 C171.247757,7.85270312 170.927254,7.25250872 170.838693,6.51102204 Z" id="Item3"></path>
                        <polygon id="|" transform="translate(194.500000, 4.500000) rotate(-360.000000) translate(-194.500000, -4.500000) " points="194 9 194 0 195 0 195 9"></polygon>
                        <path d="M70,8.85561497 L70,0.0360962567 L71.8773784,0.0360962567 L71.8773784,8.85561497 L70,8.85561497 Z M76.7420719,2.46657754 L76.7420719,3.81417112 L75.5243129,3.81417112 L75.5243129,6.38903743 C75.5243129,6.91043041 75.5359407,7.21423754 75.5591966,7.30046791 C75.5824525,7.38669829 75.6353061,7.45788742 75.717759,7.51403743 C75.8002118,7.57018745 75.9006337,7.59826203 76.0190275,7.59826203 C76.1839332,7.59826203 76.4228314,7.54411819 76.7357294,7.43582888 L76.8879493,8.7473262 C76.4735709,8.91577624 76.004231,9 75.4799154,9 C75.1585608,9 74.8689231,8.94886415 74.6109937,8.84659091 C74.3530642,8.74431767 74.1638484,8.61196605 74.0433404,8.44953209 C73.9228324,8.28709812 73.8393237,8.06751475 73.7928118,7.7907754 C73.7547567,7.59425035 73.7357294,7.1971955 73.7357294,6.59959893 L73.7357294,3.81417112 L72.9175476,3.81417112 L72.9175476,2.46657754 L73.7357294,2.46657754 L73.7357294,1.19719251 L75.5243129,0.210561497 L75.5243129,2.46657754 L76.7420719,2.46657754 Z M81.8794926,6.82219251 L83.6553911,7.10494652 C83.4270602,7.72259667 83.0665987,8.19284598 82.5739958,8.51570856 C82.0813929,8.83857113 81.46512,9 80.7251586,9 C79.5539053,9 78.6871064,8.63703572 78.1247357,7.91109626 C77.6807589,7.32954255 77.4587738,6.59559267 77.4587738,5.7092246 C77.4587738,4.65039578 77.7505256,3.82119284 78.3340381,3.22159091 C78.9175505,2.62198898 79.6553867,2.32219251 80.5475687,2.32219251 C81.5496879,2.32219251 82.3403777,2.63602627 82.9196617,3.26370321 C83.4989458,3.89138014 83.7758986,4.8529347 83.7505285,6.14839572 L79.2854123,6.14839572 C79.2980973,6.64973513 79.4418591,7.03977133 79.7167019,7.31851604 C79.9915447,7.59726075 80.334036,7.73663102 80.744186,7.73663102 C81.0232572,7.73663102 81.2579272,7.66443922 81.448203,7.52005348 C81.6384788,7.37566773 81.7822405,7.14304973 81.8794926,6.82219251 Z M81.9809725,5.11363636 C81.9682875,4.6243291 81.8350964,4.25234085 81.5813953,3.99766043 C81.3276943,3.74298001 81.0190293,3.61564171 80.6553911,3.61564171 C80.2663828,3.61564171 79.945033,3.74999866 79.6913319,4.01871658 C79.4376309,4.2874345 79.3128964,4.65240411 79.3171247,5.11363636 L81.9809725,5.11363636 Z M85.0697674,2.46657754 L86.7124736,2.46657754 L86.7124736,3.33890374 C87.3002144,2.66109287 87.9999959,2.32219251 88.8118393,2.32219251 C89.2431311,2.32219251 89.6173346,2.40641627 89.9344609,2.57486631 C90.2515872,2.74331635 90.5116269,2.99799295 90.7145877,3.33890374 C91.0105723,2.99799295 91.329808,2.74331635 91.6723044,2.57486631 C92.0148009,2.40641627 92.3805477,2.32219251 92.769556,2.32219251 C93.2642731,2.32219251 93.6828736,2.41744557 94.02537,2.60795455 C94.3678664,2.79846352 94.6236778,3.07820671 94.7928118,3.44719251 C94.915434,3.71992115 94.9767442,4.16109321 94.9767442,4.77072193 L94.9767442,8.85561497 L93.1945032,8.85561497 L93.1945032,5.20387701 C93.1945032,4.570184 93.133193,4.16109718 93.0105708,3.97660428 C92.8456651,3.73596136 92.5919679,3.61564171 92.2494715,3.61564171 C91.9999988,3.61564171 91.7653288,3.6878335 91.5454545,3.83221925 C91.3255803,3.976605 91.1670195,4.18816706 91.0697674,4.46691176 C90.9725154,4.74565647 90.9238901,5.18582587 90.9238901,5.78743316 L90.9238901,8.85561497 L89.141649,8.85561497 L89.141649,5.35427807 C89.141649,4.73261721 89.1099369,4.3315517 89.0465116,4.15106952 C88.9830864,3.97058733 88.8847787,3.83623039 88.7515856,3.74799465 C88.6183926,3.65975892 88.4376333,3.61564171 88.2093023,3.61564171 C87.9344595,3.61564171 87.6871047,3.68582818 87.4672304,3.82620321 C87.2473562,3.96657824 87.0898525,4.16911632 86.9947146,4.43382353 C86.8995767,4.69853074 86.8520085,5.13769747 86.8520085,5.7513369 L86.8520085,8.85561497 L85.0697674,8.85561497 L85.0697674,2.46657754 Z M106,7.28542781 L106,8.85561497 L99.7526427,8.85561497 C99.8202963,8.26202912 100.023254,7.69953474 100.361522,7.16811497 C100.69979,6.6366952 101.36786,5.93182257 102.365751,5.05347594 C103.169137,4.34357934 103.661733,3.86230073 103.843552,3.60962567 C104.088796,3.26069344 104.211416,2.91577711 104.211416,2.57486631 C104.211416,2.19785908 104.104652,1.90808925 103.891121,1.70554813 C103.677589,1.50300701 103.382666,1.40173797 103.006342,1.40173797 C102.634248,1.40173797 102.338267,1.50802033 102.118393,1.72058824 C101.898519,1.93315614 101.77167,2.28609379 101.737844,2.77941176 L99.961945,2.61096257 C100.067654,1.68047663 100.399574,1.01270256 100.957717,0.607620321 C101.515859,0.202538082 102.213526,0 103.05074,0 C103.968292,0 104.689215,0.234623322 105.213531,0.703877005 C105.737846,1.17313069 106,1.756681 106,2.45454545 C106,2.85160626 105.924948,3.2296105 105.774841,3.58856952 C105.624735,3.94752853 105.386894,4.32352745 105.061311,4.71657754 C104.845665,4.97727403 104.456662,5.35227028 103.894292,5.84157754 C103.331921,6.3308848 102.975688,6.65574786 102.825581,6.81617647 C102.675475,6.97660508 102.553912,7.13302063 102.460888,7.28542781 L106,7.28542781 Z" id="Item2"></path>
                        <polygon id="|" transform="translate(123.500000, 4.500000) rotate(-360.000000) translate(-123.500000, -4.500000) " points="123 9 123 0 124 0 124 9"></polygon>
                        <polygon id="|" transform="translate(52.500000, 4.500000) rotate(-360.000000) translate(-52.500000, -4.500000) " points="52 9 52 0 53 0 53 9"></polygon>
                    </g>
                </g>
            </g>
        </g>
    </g>
</svg>