<?xml version="1.0" encoding="UTF-8"?>
<svg width="460px" height="345px" viewBox="0 0 460 345" version="1.1" xmlns="http://www.w3.org/2000/svg" xmlns:xlink="http://www.w3.org/1999/xlink">
    <title>eu_comp_expandables</title>
    <g id="thumbnails---final" stroke="none" stroke-width="1" fill="none" fill-rule="evenodd">
        <g id="EU-thumbnails---final_symbols" transform="translate(-500.000000, -385.000000)">
            <g id="eu_comp_expandables" transform="translate(500.000000, 385.000000)">
                <g id="thumb-back" fill="#FFFFFF" stroke="#979797">
                    <rect id="Rectangle" x="0.5" y="0.5" width="459" height="344"></rect>
                </g>
                <g id="Group-5" transform="translate(80.000000, 128.000000)">
                    <g id="Group-7-Copy">
                        <rect id="Rectangle" stroke="#00E9FF" stroke-width="2" fill="#FFFFFF" x="1" y="1" width="118" height="28" rx="4"></rect>
                        <rect id="Rectangle" fill="#0E47CB" x="10" y="10" width="80" height="10"></rect>
                        <g id="Group-11" transform="translate(98.457037, 11.277365)" fill="#0E47CB" fill-rule="nonzero">
                            <g id="Group-13">
                                <path d="M3.22655481,-2.48827532 C3.28124218,-2.54296269 3.35415881,-2.57030637 3.44530429,-2.57030637 C3.53644976,-2.57030637 3.61848082,-2.54296269 3.69139745,-2.48827532 L9.40622757,3.25389849 C9.47914421,3.30858586 9.51560231,3.38150249 9.51560231,3.47264797 C9.51560231,3.56379345 9.47914421,3.63671008 9.40622757,3.69139745 L3.69139745,9.43357126 C3.61848082,9.48825863 3.53644976,9.51560231 3.44530429,9.51560231 C3.35415881,9.51560231 3.28124218,9.48825863 3.22655481,9.43357126 L2.67968111,8.88669756 C2.60676448,8.83201019 2.57030637,8.75909356 2.57030637,8.66794808 C2.57030637,8.57680261 2.60676448,8.49477155 2.67968111,8.42185492 L7.62888806,3.47264797 L2.67968111,-1.47655898 C2.60676448,-1.54947561 2.57030637,-1.63150667 2.57030637,-1.72265214 C2.57030637,-1.81379762 2.60676448,-1.88671425 2.67968111,-1.94140162 L3.22655481,-2.48827532 Z" id="ï”" transform="translate(6.042954, 3.472648) rotate(-90.000000) translate(-6.042954, -3.472648) "></path>
                            </g>
                        </g>
                    </g>
                    <polygon id="Fill-8" fill="#CFCFCF" points="0 50 300 50 300 40 0 40"></polygon>
                    <polygon id="Fill-8-Copy-4" fill="#CFCFCF" points="0 70 300 70 300 60 0 60"></polygon>
                    <polygon id="Fill-8-Copy-5" fill="#CFCFCF" points="0 90 240 90 240 80 0 80"></polygon>
                </g>
            </g>
        </g>
    </g>
</svg>