<svg id="Layer_1" xmlns="http://www.w3.org/2000/svg" viewBox="0 0 273.9 75.3"><style>.st0{fill:#fff}.st1{fill:#bbbdbf}.st2{fill:#034da1}.st3{fill:#fff100}.st4{fill:#626366}</style><path id="path-3" class="st0" d="M0 0h264.9v69.5H0V0z"/><title>logo copy</title><g id="Page-1"><g id="Version-2-menu" transform="translate(-131 -108)"><g id="Site-header" transform="translate(131 108)"><g id="logo-copy"><g id="Group-20"><g id="Group-18-Copy"><path id="Fill-40" class="st1" d="M0 25.6s41.6-5.4 42.8-5.6c1.8-.3 3.4-.6 4.9-1.1 3.4-.9 6.5-2.3 9.2-4.2 2.6-1.8 5.1-4.4 7.5-7.2 1.5-1.8 3.2-4.2 4.7-6.4V0c-1.8 2.7-3.6 5-5.4 7-2.4 2.7-4.9 4.9-7.5 6.6-2.7 1.7-5.6 3-8.9 3.8-1.5.4-3 .7-4.8.9-1.2.2-2.3.3-3.5.4-.4.1-39 4.2-39 4.2v2.7z"/><path id="Fill-41" class="st1" d="M55.8 18.6c-2.6 1.5-5.6 2.6-8.9 3.3-1.4.3-3 .5-4.7.7-1 .1-2.1.2-3.1.3-.6 0-1.1.1-1.7.2-12.8 1.1-25.5 2.3-37.4 3.5v2.7c12-1.5 24.7-3 37.5-4.4.6-.1 1.1-.1 1.7-.2 1-.1 2.1-.2 3.1-.4 1.8-.2 3.4-.5 4.9-.9 3.5-.8 6.6-2 9.3-3.7 2.7-1.6 5.1-3.9 7.6-6.7 1.6-1.7 3.4-4.2 5-6.5v-1c-1.9 2.7-3.8 4.9-5.6 6.8-2.5 2.7-5.1 4.8-7.7 6.3"/><path id="Fill-42" class="st1" d="M63.1 17.9c-2.5 2.3-5.2 4.2-7.9 5.5-2.6 1.3-5.6 2.2-9 2.7-1.4.2-3 .4-4.7.6L0 30.2v2.7L36.9 29l4.8-.5c1.8-.2 3.4-.4 4.8-.7 3.5-.7 6.6-1.7 9.3-3.1 2.8-1.4 5.5-3.8 8.1-6.3 1.7-1.7 3.4-3.8 5.2-6.1v-.9c-2.1 2.6-4 4.7-6 6.5"/><path id="Fill-43" class="st1" d="M53.1 32c-2.4 1.4-4.2 2.1-7.7 2.5-2.1.2-4.2.3-6.3.4-1 .1-2 .1-3 .2-6.3.4-12.4.8-18.7 1.2L0 37.5v2.7l17.5-1.6c5.7-.5 12.2-1.1 18.7-1.6l4.7-.4c1.8-.1 3.3-.3 4.7-.5 3.6-.5 6.6-1.2 9.3-2.2 2.9-1.1 5.6-2.8 8.4-4.8 2.5-1.8 5.9-5.3 5.9-5.4v-1c-2.2 2.2-3.5 3.4-6 5-3 2.1-8 3.1-10.1 4.3"/><path id="Fill-44" class="st1" d="M54 37.2c-2.6.8-5.6 1.3-9 1.6-1.4.1-2.9.2-4.6.3l-4.6.2c-11.5.5-23 1.1-35.7 1.8v2.7c12.1-.9 23.9-1.9 35.8-2.7l4.6-.3c1.8-.1 3.3-.2 4.7-.4 3.5-.4 6.6-1 9.2-1.9 3-.9 5.9-2.3 8.6-4.1 2-1.3 4-2.8 6.2-4.7-2.3 2-4.5 2.4-6.7 3.8-2.8 1.6-5.7 2.8-8.5 3.7"/><path id="Fill-45" class="st1" d="M53.5 41.7c-2.6.6-5.5 1-9 1.3-1.4.1-2.8.2-4.6.2l-4.6.2c-11.5.4-23.3.9-35.3 1.4v2.7c11.9-.8 23.6-1.6 35.4-2.4l4.6-.3c1.8-.1 3.3-.2 4.6-.3 3.6-.3 6.5-.8 9.2-1.5 3-.8 6-1.9 8.7-3.4 2.1-1.1 4.3-2.5 6.5-4.2v-1.2c-2.4 1.7-4.7 3.2-7 4.3-2.6 1.5-5.5 2.5-8.5 3.2"/><path id="Fill-46" class="st1" d="M53.1 46.1c-2.6.5-5.5.8-9 1-1.3.1-2.7.1-4.5.2L0 48.3V51l35.1-1.8 4.6-.2c1.8-.1 3.2-.2 4.6-.3 3.5-.3 6.4-.7 9.1-1.2 3.1-.6 6-1.6 8.8-2.8 2.3-1 4.5-2.1 6.9-3.6V40c-2.5 1.5-4.9 2.7-7.3 3.6-2.7 1.1-5.7 2-8.7 2.5"/><path id="Fill-47" class="st1" d="M52.8 50.5c-4.9.7-9.9.7-14.7.8-1.1 0-2.2 0-3.3.1L0 52v2.7l34.9-1.5c1.1-.1 2.2-.1 3.3-.1 4.9-.2 9.9-.4 14.8-1.2 3.1-.5 6.1-1.2 8.9-2.2 2.3-.8 4.7-1.8 7.2-3v-1c-2.6 1.2-5.1 2.2-7.5 2.9-2.8.9-5.7 1.5-8.8 1.9"/><path id="Fill-48" class="st1" d="M52.6 55c-4.6.4-9.2.4-13.7.4h-4.2c-11.5.1-23 .1-34.6.2v2.7c11.1-.4 22.9-.8 34.7-1.1 1.4 0 2.8-.1 4.2-.1 4.5-.1 9.2-.2 13.8-.7 3.2-.3 6.1-.9 8.9-1.6 2.4-.6 5-1.4 7.5-2.4v-1c-2.6.9-5.2 1.7-7.7 2.3-2.9.6-5.8 1-8.9 1.3"/><path id="Fill-49" class="st1" d="M52.4 59.4c-1.9.1-4 .1-6.3.1h-2.6l-9-.1c-6.1 0-12.2-.1-17.9-.1H0V62l16.6-.4c5.7-.1 11.8-.3 17.9-.4l9-.1c2.5 0 5.7-.1 9-.3 3.2-.2 6.1-.5 9-1 2.5-.4 5.1-1 7.7-1.6v-1c-2.7.6-5.3 1.1-7.9 1.5-2.8.3-5.7.6-8.9.7"/><path id="Fill-50" class="st1" d="M43.3 63.6l-8.9-.1c-11.4-.1-22.8-.3-34.4-.6v2.7c11.1-.1 22.8-.2 34.4-.3l8.9-.1c3-.1 6-.1 8.9-.2 6.1-.2 11.6-.6 16.8-1.3v-.9c-5.2.6-10.7.9-16.8.9-2.9 0-5.9 0-8.9-.1"/><path id="Fill-51" class="st1" d="M69.1 68.4L0 66.6v2.7h69.1v-.9z"/><path id="Fill-52" class="st1" d="M62.9 23c-2.6 2.1-4.7 3.6-7.9 4.9-2.8 1.1-5.8 1.6-9.2 2.1-2.2.3-4.5.8-6.7.9-.9.1-1.8.1-2.7.2L0 33.8v2.7l36.5-3.6 4.7-.4c1.8-.2 3.3-.4 4.8-.6 3.5-.6 6.6-1.4 9.3-2.7 2.8-1.3 5.7-3.3 8.4-5.6 1.8-1.5 3.6-3.5 5.5-5.6v-1c-2.4 2.5-4.3 4.4-6.3 6"/><path id="Fill-53" class="st1" d="M98.5 0s12.4 19.8 14.7 23.4c2.3 3.6 4.9 6.5 14.1 8.5s13.2 2.9 13.2 2.9v.7s-5.8-1.2-13.4-2.9-10.6-2.2-14-7c-2.9-4-14.6-20.8-14.6-20.8V0z"/><path id="Fill-54" class="st1" d="M98.5 22.6s11.3 11.9 14.6 15.3c3.5 3.6 7.9 4.9 14.1 6 5.9 1.1 13.3 2.3 13.3 2.3v.7s-7-1.1-13.3-2.2c-6.2-1.1-10.6-1.7-14.1-4.9-3.2-2.9-14.6-13.6-14.6-13.6v-3.6z"/><path id="Fill-55" class="st1" d="M98.5 28s10.8 10 14.6 13.4c3.5 3.1 6.4 4.1 14.1 5.5s13.3 2.2 13.3 2.2v.7s-7-1.2-13.3-2.2-10.3-1.4-14.1-4.5c-4.4-3.5-14.6-12-14.6-12V28z"/><path id="Fill-56" class="st1" d="M98.5 33.7s12.3 9.8 14.6 11.5c2.3 1.7 5.3 3.7 14.2 5 8.7 1.3 13.2 1.9 13.2 1.9v.7s-7.9-1.2-13.2-1.8c-5.3-.7-9.4-1-14.1-4.1-4.6-3.1-14.6-10.1-14.6-10.1v-3.1h-.1z"/><path id="Fill-57" class="st1" d="M98.5 39.1s12.3 8.2 14.7 9.5c2.3 1.3 5.1 3.4 14.1 4.6 9 1.2 13.2 1.7 13.2 1.7v.7s-7.5-.8-13.3-1.4c-5.8-.6-9.8-1.5-14.1-3.9-4.3-2.4-14.6-8.4-14.6-8.4v-2.8z"/><path id="Fill-58" class="st1" d="M98.5 44.6s10.9 5.9 14.6 7.8c4.1 2.1 7.7 3.1 14.1 3.8 6.3.8 13.3 1.5 13.3 1.5v.7s-6.4-.7-13.3-1.3c-6.8-.6-9.2-.9-14.1-3.1-4.4-1.9-14.6-6.7-14.6-6.7v-2.7z"/><path id="Fill-59" class="st1" d="M98.5 50.2s8.6 3.7 14.7 6.1c6 2.4 10.5 2.6 14.1 3 1.6.2 13.2 1.4 13.2 1.4v.7s-6.9-.6-13.2-1.1c-6.3-.6-9-.8-14.1-2.5-5.2-1.7-14.6-5-14.6-5v-2.6h-.1z"/><path id="Fill-60" class="st1" d="M98.5 55.8s8.7 2.7 14.6 4.3 11.4 2.2 14.1 2.4 13.2 1 13.2 1v.6s-6-.4-13.3-.9c-5.9-.4-10.7-.9-14.1-1.6-3.8-.8-14.6-3.4-14.6-3.4v-2.4h.1z"/><path id="Fill-61" class="st1" d="M98.5 61.4s7.1 1.2 14.6 2.5c5.6.9 13.3 1.5 14.1 1.6.8 0 13.3.9 13.3.9v.6s-8-.4-13.3-.7c-5.5-.3-11-.6-14.1-1-7-.7-14.6-1.7-14.6-1.7v-2.2z"/><path id="Fill-62" class="st1" d="M98.5 67.2s11.2.4 14.6.5 27.4 1 27.4 1v.7h-42v-2.2z"/><path id="Fill-63" class="st1" d="M127.2 35c-10.2-2.2-12.5-5.9-14.2-8.2S98.4 5.7 98.4 5.7v4.2c.5.7 11.5 15.1 14.6 19 3.5 4.5 8.9 5.5 14.1 6.6 5.2 1.1 13.3 2.7 13.3 2.7v-.6c.1 0-10.6-2.1-13.2-2.6"/><path id="Fill-64" class="st1" d="M127.2 37.9c-8.3-1.6-11.7-4.3-14.2-7.5-2.4-3.2-14.6-19.2-14.6-19.2v4c.5.6 11.6 13.7 14.6 17.1 3.5 4 8.3 5 14.2 6.1s13.3 2.5 13.3 2.5v-.6c0 .1-8.5-1.4-13.3-2.4"/><path id="Fill-65" class="st1" d="M127.2 41c-8.7-1.7-10.5-3.1-14.1-7.1-2.3-2.5-14.1-16.4-14.6-17v3.7s11 11.7 14.6 15.2c4.6 4.6 9 4.9 14.2 5.8 5.2.9 13.3 2.4 13.3 2.4v-.6c-.1 0-9.9-1.7-13.4-2.4"/><path id="Fill-66" class="st2" d="M89.3 28.8H28.7v40.5h60.5V28.8h.1z"/><path id="Fill-67" class="st3" d="M59.6 34.6h2.1L60 35.9l.7 2.1-1.7-1.3-1.7 1.3.7-2.1-1.7-1.3h2.1l.6-2 .6 2z"/><path id="Fill-68" class="st3" d="M59.7 61.6h2.1l-1.7 1.3.7 2-1.7-1.2-1.7 1.2.7-2-1.7-1.3h2.1l.6-2 .6 2z"/><path id="Fill-69" class="st3" d="M66.4 59.8h2.1l-1.7 1.3.7 2-1.7-1.2-1.7 1.2.7-2-1.8-1.3h2.1l.6-2 .7 2z"/><path id="Fill-70" class="st3" d="M66.4 36.4h2.1l-1.7 1.3.7 2-1.7-1.2-1.7 1.2.7-2-1.8-1.3h2.1l.6-2 .7 2z"/><path id="Fill-71" class="st3" d="M71.4 41.4h2.1l-1.7 1.3.7 2-1.7-1.2-1.8 1.2.7-2-1.7-1.3h2.1l.6-2 .7 2z"/><path id="Fill-72" class="st3" d="M71.4 54.9h2.1l-1.7 1.3.7 2-1.8-1.2-1.7 1.2.7-2-1.7-1.3h2.1l.6-2 .7 2z"/><path id="Fill-73" class="st3" d="M73.2 48h2.1l-1.7 1.3.7 2-1.7-1.2-1.7 1.2.7-2-1.7-1.3H72l.6-2 .6 2z"/><path id="Fill-74" class="st3" d="M52.8 36.4h2.1l-1.7 1.3.7 2-1.7-1.2-1.7 1.2.7-2-1.7-1.3h2.1l.6-2 .6 2z"/><path id="Fill-75" class="st3" d="M48 41.4h2.1l-1.7 1.3.7 2-1.7-1.2-1.7 1.2.7-2-1.7-1.3h2.1l.6-2 .6 2z"/><path id="Fill-76" class="st3" d="M46.2 48.1h2.1l-1.7 1.3.7 2-1.7-1.2-1.7 1.2.7-2-1.7-1.3H45l.6-2 .6 2z"/><path id="Fill-77" class="st3" d="M48 54.9h2.1l-1.7 1.3.7 2-1.7-1.2-1.7 1.2.7-2-1.7-1.3h2.1l.6-2 .6 2z"/><path id="Fill-78" class="st3" d="M52.9 59.8H55l-1.7 1.3.7 2-1.7-1.2-1.7 1.2.7-2-1.7-1.3h2.1l.6-2 .6 2z"/></g></g></g></g></g></g><path class="st4" d="M149.8 35.2c0-.3.1-.4.4-.4h7.4c.3 0 .4.1.4.4v1.2c0 .2-.1.4-.4.4h-5.5v3.5h4.9c.3 0 .4.1.4.4v1.2c0 .2-.1.4-.4.4h-4.9v4h5.6c.2 0 .4.1.4.4v1.2c0 .2-.1.4-.4.4h-7.5c-.3 0-.4-.1-.4-.4V35.2zm18.4 12.9h-1.4c-.1 0-.2 0-.3-.1s-.1-.2-.1-.3v-.6c-.2.1-.4.3-.7.4-.3.1-.5.3-.8.4l-.9.3c-.3.1-.6.1-.9.1-.7 0-1.2-.1-1.6-.3-.4-.2-.7-.4-.9-.8-.2-.3-.3-.7-.4-1.2-.1-.5-.1-.9-.1-1.5v-5.9c0-.3.1-.4.4-.4h1.5c.2 0 .4.1.4.4v5.6c0 .3 0 .6.1.8 0 .2.1.4.2.6.1.2.3.3.4.4s.4.1.7.1c.2 0 .4 0 .7-.1s.5-.2.8-.3.5-.2.7-.3.4-.2.5-.3v-6.7c0-.1 0-.2.1-.3s.2-.1.3-.1h1.4c.3 0 .4.1.4.4v9.1c-.1.5-.2.6-.5.6zm5.1-.3c0 .3-.1.4-.4.4h-1.5c-.3 0-.4-.1-.4-.4v-9.1c0-.3.1-.4.4-.4h1.4c.3 0 .4.1.4.4v.9c.1-.1.3-.3.6-.4.2-.2.5-.3.8-.4.3-.1.6-.2.8-.4.3-.1.5-.2.8-.2h.3c.1 0 .1.1.2.3l.1 1.3v.3c0 .1-.1.1-.4.2-.3.1-.6.1-.9.2s-.6.2-.9.2c-.3.1-.6.2-.8.3s-.5.2-.6.2l.1 6.6zm13.3-4.7c0 .6 0 1.2-.1 1.8s-.3 1.2-.6 1.7-.7.9-1.3 1.3c-.6.3-1.4.5-2.4.5s-1.8-.2-2.4-.5-1-.7-1.3-1.3c-.3-.5-.5-1.1-.5-1.7-.1-.6-.1-1.2-.1-1.8 0-.5 0-1 .1-1.6s.3-1.1.6-1.6.7-.9 1.3-1.3c.6-.3 1.3-.5 2.3-.5s1.8.1 2.3.4c.6.3 1 .7 1.3 1.2s.5 1 .6 1.6c.1.6.2 1.2.2 1.8zm-2.3.1c0-.5 0-1-.1-1.4s-.2-.7-.3-1c-.2-.3-.4-.5-.7-.6s-.6-.2-1.1-.2c-.4 0-.8.1-1 .2-.3.1-.5.3-.6.6-.2.3-.3.6-.3 1-.1.4-.1.9-.1 1.4s0 1 .1 1.4.2.7.3 1 .4.5.6.6.6.2 1 .2c.5 0 .8-.1 1.1-.2.3-.1.5-.3.7-.6s.3-.6.3-1 .1-.9.1-1.4zm12.9 0c0 .8-.1 1.5-.2 2.2-.1.6-.3 1.2-.6 1.6-.3.4-.7.8-1.2 1s-1.2.3-2 .3c-.3 0-.7 0-1.2-.1s-.9-.2-1.4-.3v3.5c0 .1 0 .2-.1.3s-.2.1-.3.1h-1.4c-.2 0-.3 0-.3-.1s-.1-.2-.1-.3V38.7c0-.3.1-.4.4-.4h1.4c.1 0 .2 0 .3.1s.1.2.1.3v.6h.1c.2-.1.4-.2.6-.4.2-.1.5-.3.8-.4l.9-.3c.3-.1.6-.1.9-.1.7 0 1.2.1 1.6.4.4.2.8.6 1 1s.4 1 .5 1.6c.2.6.2 1.3.2 2.1zm-2.2-.1c0-.6 0-1.2-.1-1.5-.1-.4-.2-.7-.3-.9s-.3-.4-.5-.4c-.2-.1-.4-.1-.7-.1-.2 0-.4 0-.7.1s-.5.1-.8.2c-.2.1-.5.2-.7.3l-.6.3v5c.5.1.9.2 1.2.3s.7.1 1.1.1c.4 0 .7-.1.9-.2.2-.1.4-.3.6-.5.2-.3.3-.6.3-1 .2-.5.3-1 .3-1.7zm10.2 3.9c-.5.4-1.1.7-1.7.9-.6.2-1.3.4-2 .4-.5 0-1-.1-1.3-.2-.4-.1-.6-.3-.8-.6-.2-.2-.4-.5-.4-.9-.1-.3-.1-.7-.1-1.2 0-1.2.3-2 .9-2.6.6-.5 1.6-.8 2.8-.8h2.6v-.5c0-.3 0-.5-.1-.8-.1-.2-.2-.4-.3-.5s-.4-.2-.6-.3c-.3-.1-.6-.1-1-.1h-1.3c-.2 0-.5 0-.7.1-.2 0-.5 0-.7.1h-.4c-.1 0-.1-.1-.2-.3l-.2-.7v-.3c.1-.1.2-.2.4-.3s.5-.1.8-.2c.3-.1.6-.1.9-.1.3 0 .6-.1.9-.1h.8c.9 0 1.6.1 2.1.3s.9.4 1.2.7.4.7.5 1.2.1 1 .1 1.5v4.4c0 .1.1.2.1.3s.1.1.2.1.2 0 .4.1c.1 0 .2 0 .3.1.1 0 .1.1.1.2v.8c0 .2-.2.4-.5.4-.2 0-.3 0-.5.1h-.5c-.5 0-.8-.1-1.1-.3-.3-.1-.5-.4-.7-.9zm-3.6-10c-.3 0-.5 0-.6-.1s-.3-.1-.3-.3-.1-.2-.2-.4 0-.3 0-.4c0-.3.1-.6.2-.8s.4-.3.9-.3.8.1.9.3c.1.2.2.5.2.8s-.1.6-.2.8c-.2.2-.5.4-.9.4zm3.5 6.7h-2.4c-.5 0-.9.1-1.2.4-.3.2-.4.7-.4 1.3 0 .4.1.7.3.9s.5.3 1 .3c.2 0 .4 0 .7-.1s.5-.1.8-.2c.3-.1.5-.2.7-.3s.5-.2.6-.3v-2h-.1zm.4-6.7c-.5 0-.8-.1-.9-.3-.1-.2-.2-.5-.2-.8s.1-.6.2-.8.4-.3.9-.3.8.1.9.3c.1.2.2.5.2.8s-.1.6-.2.8-.4.3-.9.3zm6.9-1.3v.5c0 .1-.1.3-.2.4-.1.1-.2.2-.4.3s-.4.1-.6.1c-.3 0-.5 0-.6-.1-.2-.1-.3-.2-.4-.3-.1-.1-.1-.2-.2-.4v-.4c0-.3.1-.6.2-.8.2-.2.5-.3 1-.3s.8.1 1 .3c.2.1.2.3.2.7zm-.1 12.1c0 .1 0 .2-.1.3s-.1.1-.3.1h-1.4c-.3 0-.4-.1-.4-.4v-9.1c0-.3.1-.4.4-.4h1.4c.1 0 .2 0 .3.1s.1.2.1.3v9.1zm9.8-2.6c0 .6-.1 1.1-.3 1.5s-.5.7-.9 1c-.4.2-.8.4-1.3.5s-1 .2-1.5.2-1.1 0-1.6-.1c-.6-.1-1.1-.2-1.5-.3-.2-.1-.3-.2-.4-.3s-.1-.2 0-.4l.1-.7c0-.2.1-.3.2-.3h.4c.2 0 .5.1.7.1.3 0 .5 0 .8.1.3 0 .5 0 .7.1h.6c.6 0 1.1-.1 1.4-.3s.4-.5.4-.9c0-.2 0-.4-.1-.6s-.1-.3-.3-.4-.3-.2-.5-.2c-.2-.1-.5-.1-.8-.2-.5-.1-1-.2-1.4-.3s-.8-.3-1.2-.5c-.3-.2-.6-.5-.8-.8s-.3-.8-.3-1.3c0-1 .3-1.7 1-2.3.7-.5 1.6-.8 2.7-.8h.7c.3 0 .5 0 .8.1s.5.1.8.1c.3.1.5.1.7.2.3.1.5.3.4.6l-.2.7c0 .1-.1.2-.2.3h-.4c-.4-.1-.9-.1-1.4-.2s-1-.1-1.3-.1c-.6 0-1.1.1-1.3.3s-.3.5-.3.9.1.6.4.8.7.2 1.3.3c.5.1.9.2 1.4.3s.8.3 1.2.5c.3.2.6.5.8.9.4.4.5.9.5 1.5zm9.4 2v.4c0 .1-.2.2-.3.3-.4.2-.9.3-1.4.4-.6.1-1.1.1-1.6.1-.9 0-1.7-.1-2.3-.4s-1-.7-1.3-1.1c-.3-.5-.5-1-.6-1.6s-.1-1.3-.1-2c0-.6 0-1.2.2-1.8.1-.6.3-1.2.6-1.6.3-.5.7-.9 1.3-1.2s1.3-.4 2.2-.4h.8c.3 0 .5 0 .8.1.3 0 .5.1.8.2s.5.1.7.2c.2.1.3.3.3.6l-.1.8c0 .1-.1.2-.2.3h-.4c-.4 0-.8-.1-1.3-.1s-.8-.1-1.2-.1c-.8 0-1.4.2-1.7.7s-.5 1.3-.5 2.4c0 .6 0 1.1.1 1.6.1.4.2.7.4 1s.4.4.7.5.6.2 1 .2c.3 0 .7 0 1.2-.1.5 0 1-.1 1.4-.1h.4c.1 0 .1.1.2.3l-.1.4zm9.6.9h-1.4c-.3 0-.4-.1-.4-.4v-5.8c0-.6-.1-1-.3-1.4-.2-.3-.6-.5-1.2-.5-.2 0-.4 0-.7.1s-.5.2-.8.3-.5.2-.7.3-.4.2-.5.2v6.8c0 .1 0 .2-.1.3s-.2.1-.3.1h-1.4c-.2 0-.4-.1-.4-.4V34.4c0-.3.1-.4.4-.4h1.4c.3 0 .4.1.4.4v4.9c.2-.1.4-.2.6-.4.3-.1.5-.2.8-.4l.9-.3c.3-.1.6-.1.9-.1.7 0 1.2.1 1.6.3.4.2.7.5.9.8s.3.8.4 1.2c.1.5.1.9.1 1.5v5.8c.3.3.1.4-.2.4zm4.6-4.3c0 .5.1.9.2 1.3.1.3.3.6.5.8s.4.3.7.4c.3.1.6.1 1.1.1.4 0 .8 0 1.3-.1s.9-.1 1.3-.1h.4c.1 0 .1.1.2.3l.1.7v.4c0 .1-.1.2-.3.3s-.4.2-.7.2c-.3.1-.5.1-.8.2-.3 0-.6.1-.9.1h-.8c-1 0-1.7-.1-2.3-.4-.6-.3-1-.7-1.3-1.1-.3-.5-.5-1-.6-1.6s-.2-1.2-.2-1.9c0-.5 0-1 .1-1.6s.3-1.2.6-1.7.7-1 1.3-1.3c.6-.4 1.3-.5 2.3-.5.9 0 1.6.1 2.2.4.6.3 1 .6 1.3 1s.5.9.6 1.4.2 1.1.2 1.6c0 .4 0 .7-.2.9-.1.2-.4.3-.8.3h-5.5v-.1zm2.1-3.9c-.4 0-.7.1-.9.2-.2.1-.4.3-.6.5-.2.2-.3.5-.3.8-.1.3-.1.6-.1 1h4c0-.3 0-.6-.1-.9s-.2-.5-.3-.8c-.1-.2-.3-.4-.6-.5s-.7-.3-1.1-.3zm-95.7 22.5l1.5-2 3.4-4.2c.1-.1.2-.2.3-.2s.2-.1.4-.1h1.8c.1 0 .2 0 .3.1 0 .1 0 .2-.1.3l-4.4 5.3 4.5 7.2c.1.1.1.2 0 .3s-.1.1-.2.1h-1.8c-.2 0-.3 0-.4-.1l-.3-.3-3.3-5.5-1.8 2.2V69c0 .1 0 .2-.1.3s-.1.1-.3.1h-1.5c-.3 0-.4-.1-.4-.4V56.4c0-.3.1-.4.4-.4h1.5c.1 0 .2 0 .3.1 0 .1.1.2.1.3l.1 6zm17.6 1.9c0 .6 0 1.2-.1 1.8s-.3 1.2-.6 1.7-.7.9-1.3 1.3c-.6.3-1.4.5-2.4.5s-1.8-.2-2.4-.5-1-.7-1.3-1.3c-.3-.5-.5-1.1-.5-1.7-.1-.6-.1-1.2-.1-1.8 0-.5 0-1 .1-1.6s.3-1.1.6-1.6.7-.9 1.3-1.3c.6-.3 1.3-.5 2.3-.5s1.8.1 2.3.4c.6.3 1 .7 1.3 1.2s.5 1 .6 1.6c.1.6.2 1.2.2 1.8zm-2.3.1c0-.5 0-1-.1-1.4s-.2-.7-.3-1c-.2-.3-.4-.5-.7-.6s-.6-.2-1.1-.2c-.4 0-.8.1-1 .2-.3.1-.5.3-.6.6-.2.3-.3.6-.3 1-.1.4-.1.9-.1 1.4s0 1 .1 1.4.2.7.3 1 .4.5.6.6.6.2 1 .2c.5 0 .8-.1 1.1-.2s.5-.3.7-.6c.2-.3.3-.6.3-1s.1-.9.1-1.4zm18.5 4.8c0 .1-.1.1-.3.1h-1.4c-.3 0-.4-.1-.4-.4v-5.7c0-.7-.1-1.3-.3-1.5-.2-.3-.6-.4-1.1-.4-.2 0-.4 0-.6.1-.2.1-.5.1-.7.2-.2.1-.5.2-.7.3l-.6.3V69c0 .1 0 .2-.1.3-.1.1-.2.1-.3.1h-1.5c-.2 0-.3-.1-.3-.4v-5.8c0-.6-.1-1.1-.3-1.4-.2-.3-.5-.4-1-.4-.2 0-.4 0-.6.1s-.4.1-.7.2c-.2.1-.5.2-.7.3l-.6.3V69c0 .3-.1.4-.4.4H172c-.2 0-.4-.1-.4-.4v-9.1c0-.3.1-.4.4-.4h1.4c.3 0 .4.1.4.4v.6c.2-.1.4-.3.6-.4s.5-.3.7-.4.5-.2.8-.3.5-.1.8-.1c.6 0 1.1.1 1.6.3s.9.6 1.2 1.1c.5-.4 1.1-.7 1.7-1 .6-.3 1.2-.4 1.9-.4s1.2.1 1.6.3c.4.2.7.5.9.8s.3.7.4 1.2c.1.5.1.9.1 1.4v6c-.1.1-.1.2-.2.2zm16.6 0c0 .1-.1.1-.3.1h-1.4c-.3 0-.4-.1-.4-.4v-5.7c0-.7-.1-1.3-.3-1.5-.2-.3-.6-.4-1.1-.4-.2 0-.4 0-.6.1-.2.1-.5.1-.7.2-.2.1-.5.2-.7.3l-.6.3V69c0 .1 0 .2-.1.3-.1.1-.2.1-.3.1h-1.5c-.2 0-.3-.1-.3-.4v-5.8c0-.6-.1-1.1-.3-1.4-.2-.3-.5-.4-1-.4-.2 0-.4 0-.6.1s-.4.1-.7.2c-.2.1-.5.2-.7.3l-.6.3V69c0 .3-.1.4-.4.4h-1.4c-.2 0-.4-.1-.4-.4v-9.1c0-.3.1-.4.4-.4h1.4c.3 0 .4.1.4.4v.6c.2-.1.4-.3.6-.4s.5-.3.7-.4.5-.2.8-.3.5-.1.8-.1c.6 0 1.1.1 1.6.3s.9.6 1.2 1.1c.5-.4 1.1-.7 1.7-1 .6-.3 1.2-.4 1.9-.4s1.2.1 1.6.3c.4.2.7.5.9.8s.3.7.4 1.2c.1.5.1.9.1 1.4v6c-.1.1-.1.2-.1.2zm4.8-12.3v.5c0 .1-.1.3-.2.4-.1.1-.2.2-.4.3s-.4.1-.6.1c-.3 0-.5 0-.6-.1-.2-.1-.3-.2-.4-.3-.1-.1-.1-.2-.2-.4V57c0-.3.1-.6.2-.8.2-.2.5-.3 1-.3s.8.1 1 .3c.1.1.2.3.2.7zm-.1 12.1c0 .1 0 .2-.1.3s-.1.1-.3.1h-1.4c-.3 0-.4-.1-.4-.4v-9.1c0-.3.1-.4.4-.4h1.4c.1 0 .2 0 .3.1s.1.2.1.3V69zm9.8-2.6c0 .6-.1 1.1-.3 1.5s-.5.7-.9 1c-.4.2-.8.4-1.3.5s-1 .2-1.5.2-1.1 0-1.6-.1c-.6-.1-1.1-.2-1.5-.3-.2-.1-.3-.2-.4-.3s-.1-.2 0-.4l.1-.7c0-.2.1-.3.2-.3h.4c.2 0 .5.1.7.1.3 0 .5 0 .8.1.3 0 .5 0 .7.1h.6c.6 0 1.1-.1 1.4-.3s.4-.5.4-.9c0-.2 0-.4-.1-.6s-.1-.3-.3-.4-.3-.2-.5-.2c-.2-.1-.5-.1-.8-.2-.5-.1-1-.2-1.4-.3-.4-.1-.8-.3-1.2-.5-.3-.2-.6-.5-.8-.8s-.3-.8-.3-1.3c0-1 .3-1.7 1-2.3.7-.5 1.6-.8 2.7-.8h.7c.3 0 .5 0 .8.1s.5.1.8.1c.3.1.5.1.7.2.3.1.5.3.4.6l-.2.7c0 .1-.1.2-.2.3h-.4c-.4-.1-.9-.1-1.4-.2s-1-.1-1.3-.1c-.6 0-1.1.1-1.3.3s-.3.5-.3.9.1.6.4.8.7.2 1.3.3c.5.1.9.2 1.4.3s.8.3 1.2.5c.3.2.6.5.8.9.4.4.5.9.5 1.5zm9.2 0c0 .6-.1 1.1-.3 1.5s-.5.7-.9 1c-.4.2-.8.4-1.3.5s-1 .2-1.5.2-1.1 0-1.6-.1c-.6-.1-1.1-.2-1.5-.3-.2-.1-.3-.2-.4-.3s-.1-.2 0-.4l.1-.7c0-.2.1-.3.2-.3h.4c.2 0 .5.1.7.1.3 0 .5 0 .8.1.3 0 .5 0 .7.1h.6c.6 0 1.1-.1 1.4-.3s.4-.5.4-.9c0-.2 0-.4-.1-.6s-.1-.3-.3-.4-.3-.2-.5-.2c-.2-.1-.5-.1-.8-.2-.5-.1-1-.2-1.4-.3-.4-.1-.8-.3-1.2-.5-.3-.2-.6-.5-.8-.8s-.3-.8-.3-1.3c0-1 .3-1.7 1-2.3.7-.5 1.6-.8 2.7-.8h.7c.3 0 .5 0 .8.1s.5.1.8.1c.3.1.5.1.7.2.3.1.5.3.4.6l-.2.7c0 .1-.1.2-.2.3h-.4c-.4-.1-.9-.1-1.4-.2s-1-.1-1.3-.1c-.6 0-1.1.1-1.3.3s-.3.5-.3.9.1.6.4.8.7.2 1.3.3c.5.1.9.2 1.4.3s.8.3 1.2.5c.3.2.6.5.8.9.4.4.5.9.5 1.5zm4.5-9.5v.5c0 .1-.1.3-.2.4-.1.1-.2.2-.4.3s-.4.1-.6.1c-.3 0-.5 0-.6-.1-.2-.1-.3-.2-.4-.3-.1-.1-.1-.2-.2-.4V57c0-.3.1-.6.2-.8.2-.2.5-.3 1-.3s.8.1 1 .3c.1.1.2.3.2.7zm-.1 12.1c0 .1 0 .2-.1.3s-.1.1-.3.1h-1.4c-.3 0-.4-.1-.4-.4v-9.1c0-.3.1-.4.4-.4h1.4c.1 0 .2 0 .3.1s.1.2.1.3V69zm11-4.7c0 .6 0 1.2-.1 1.8s-.3 1.2-.6 1.7-.7.9-1.3 1.3c-.6.3-1.4.5-2.4.5s-1.8-.2-2.4-.5-1-.7-1.3-1.3c-.3-.5-.5-1.1-.5-1.7-.1-.6-.1-1.2-.1-1.8 0-.5 0-1 .1-1.6s.3-1.1.6-1.6.7-.9 1.3-1.3c.6-.3 1.3-.5 2.3-.5s1.8.1 2.3.4c.6.3 1 .7 1.3 1.2s.5 1 .6 1.6c.1.6.2 1.2.2 1.8zm-2.3.1c0-.5 0-1-.1-1.4s-.2-.7-.3-1c-.2-.3-.4-.5-.7-.6s-.6-.2-1.1-.2c-.4 0-.8.1-1 .2-.3.1-.5.3-.6.6-.2.3-.3.6-.3 1-.1.4-.1.9-.1 1.4s0 1 .1 1.4.2.7.3 1 .4.5.6.6.6.2 1 .2c.5 0 .8-.1 1.1-.2s.5-.3.7-.6c.2-.3.3-.6.3-1s.1-.9.1-1.4zm12.7 4.8c-.1.1-.2.1-.3.1h-1.5c-.3 0-.4-.1-.4-.4v-5.6c0-.6-.1-1.1-.3-1.4s-.6-.5-1.2-.5c-.2 0-.4 0-.7.1s-.5.2-.8.3-.5.2-.7.3-.4.2-.5.3V69c0 .3-.1.4-.4.4h-1.4c-.3 0-.4-.1-.4-.4v-9.1c0-.3.1-.4.4-.4h1.4c.3 0 .4.1.4.4v.6c.2-.1.4-.3.7-.4.3-.1.5-.3.8-.4l.9-.3c.3-.1.6-.1.9-.1.7 0 1.2.1 1.6.3.4.2.7.5.9.8s.3.8.4 1.2c.1.5.1.9.1 1.5V69c.1.1.1.2.1.2z"/><path class="st2" d="M261.4 29.2h3.5v40.5h-3.5z"/></svg>