<?xml version="1.0" encoding="UTF-8"?>
<svg width="460px" height="345px" viewBox="0 0 460 345" version="1.1" xmlns="http://www.w3.org/2000/svg" xmlns:xlink="http://www.w3.org/1999/xlink">
    <title>ec_comp_social_media_share</title>
    <g id="thumbnails---final" stroke="none" stroke-width="1" fill="none" fill-rule="evenodd">
        <g id="thumbnails---final_symbols" transform="translate(-500.000000, -2940.000000)">
            <g id="ec_comp_social_media_share" transform="translate(500.000000, 2940.000000)">
                <g id="Group" transform="translate(42.000000, 152.000000)">
                    <g id="Group-6">
                        <g id="facebook" transform="translate(127.000000, 0.000000)">
                            <g id="Group-2">
                                <rect id="bg" fill="#3E73B7" x="0" y="0" width="122" height="40"></rect>
                                <rect id="Rectangle" fill="#FFFFFF" x="46" y="15" width="67" height="10"></rect>
                                <rect id="bg" fill="#1877F2" x="0" y="0" width="40.3333333" height="40"></rect>
                            </g>
                            <path d="M15,16.5671642 L17.1428571,16.5671642 L17.1428571,14.5771144 C17.1428571,13.681592 17.1428571,12.3880597 17.8571429,11.4925373 C18.4693878,10.5970149 19.3877551,10 21.122449,10 C23.7755102,10 25,10.39801 25,10.39801 L24.4897959,13.4825871 C24.4897959,13.4825871 23.6734694,13.2835821 22.8571429,13.2835821 C22.0408163,13.2835821 21.3265306,13.4825871 21.3265306,14.3781095 L21.3265306,16.7661692 L24.6938776,16.7661692 L24.4897959,19.6517413 L21.2244898,19.6517413 L21.2244898,30 L17.244898,30 L17.244898,19.4527363 L15.1020408,19.4527363 L15.1020408,16.5671642 L15,16.5671642 Z" id="icon" fill="#FFFFFF"></path>
                        </g>
                        <g id="twitter-copy">
                            <polygon id="bg" fill="#6090B5" points="0 40 122 40 122 0 0 0"></polygon>
                            <rect id="Rectangle" fill="#FFFFFF" x="47" y="15" width="67" height="10"></rect>
                            <polygon id="bg" fill="#1DA1F2" points="0 40 40.6666667 40 40.6666667 0 0 0"></polygon>
                            <path d="M28.7090481,16.5880906 C28.7090481,22.0937993 24.4619104,28.4151685 16.6927562,28.4151685 C14.2066269,28.4151685 11.927675,27.7014656 10.1666667,26.4779747 L11.0989652,26.4779747 C13.0671509,26.4779747 14.8281592,25.7642718 16.38199,24.6427385 C14.4138043,24.6427385 12.8599735,23.4192477 12.3420299,21.7879266 C12.7563847,21.8898842 12.9635622,21.8898842 13.1707396,21.8898842 C13.5850945,21.8898842 13.8958607,21.8898842 14.3102156,21.7879266 C12.3420299,21.3800963 10.8917877,19.7487752 10.8917877,17.7096238 C11.5133201,17.913539 12.1348524,18.2194117 12.8599735,18.2194117 C11.6169088,17.5057087 10.8917877,16.1802603 10.8917877,14.7528544 C10.8917877,13.9371938 11.0989652,13.2234908 11.5133201,12.6117454 C13.5850945,15.2626422 16.7963449,16.8939633 20.3183615,17.0978784 C20.2147728,16.6900482 20.2147728,16.486133 20.2147728,16.1802603 C20.2147728,13.9371938 22.1829585,12 24.4619104,12 C25.8085638,12 26.9480398,12.5097878 27.6731609,13.3254484 C28.6054594,13.2234908 29.5377579,12.8156605 30.3664677,12.4078303 C30.1592902,13.3254484 29.4341692,14.2430665 28.5018706,14.6508968 C29.3305804,14.5489392 30.1592902,14.2430665 30.988,13.9371938 C30.2628789,14.6508968 29.5377579,15.3645998 28.7090481,15.9763452 L28.7090481,16.5880906 Z" id="icon" fill="#FFFFFF"></path>
                        </g>
                    </g>
                    <g id="linkedin" transform="translate(254.000000, 0.000000)">
                        <g id="linkedin-copy" transform="translate(0.000000, -0.000000)">
                            <polygon id="bg" fill="#1681C5" points="0 40 122 40 122 0 0 0"></polygon>
                            <polygon id="bg" fill="#0A66C2" points="0 40 40.6666667 40 40.6666667 0 0 0"></polygon>
                            <path d="M14.2220511,30.6494897 L9.72636944,30.6494897 L9.72636944,16.4671479 L14.2220511,16.4671479 L14.2220511,30.6494897 L14.2220511,30.6494897 Z M11.9165733,14.7652668 L11.9165733,14.7652668 C10.3027389,14.7652668 9.15,13.7441382 9.15,12.3826334 C9.15,11.0211286 10.187465,10 11.9165733,10 C13.5304078,10 14.6831467,11.0211286 14.6831467,12.3826334 C14.6831467,13.7441382 13.6456817,14.7652668 11.9165733,14.7652668 L11.9165733,14.7652668 Z M32.2047777,30.6494897 L27.0174527,30.6494897 L27.0174527,23.2746719 C27.0174527,21.4593322 26.2105355,20.0978274 24.4814272,20.0978274 C23.0981405,20.0978274 22.4064972,21.0054972 22.0606755,21.7997084 L22.0606755,23.0477545 L22.0606755,30.6494897 L16.9886244,30.6494897 L16.9886244,16.4671479 L22.0606755,16.4671479 L22.0606755,18.7363225 C22.2912233,17.8286527 23.9050578,16.3536891 26.5563572,16.3536891 C29.7840261,16.3536891 32.2047777,18.3959463 32.2047777,22.7073782 L32.2047777,30.6494897 L32.2047777,30.6494897 Z" id="icon" fill="#FFFFFF"></path>
                        </g>
                        <rect id="Rectangle" fill="#FFFFFF" x="47" y="15" width="67" height="10"></rect>
                    </g>
                </g>
            </g>
        </g>
    </g>
</svg>