<?xml version="1.0" encoding="UTF-8"?>
<svg width="336px" height="58px" viewBox="0 0 336 58" version="1.1" xmlns="http://www.w3.org/2000/svg" xmlns:xlink="http://www.w3.org/1999/xlink">
    <!-- Generator: Sketch 60 (88103) - https://sketch.com -->
    <title>ec_comp_menu</title>
    <desc>Created with Sketch.</desc>
    <g id="thumbnails---final" stroke="none" stroke-width="1" fill="none" fill-rule="evenodd">
        <g id="thumbnails---final_symbols" transform="translate(-1042.000000, -3814.000000)">
            <g id="ec_comp_menu" transform="translate(980.000000, 3670.000000)">
                <g id="ecl-component-library" opacity="0" fill="#FFFFFF" stroke="#979797">
                    <rect id="Rectangle" x="0.5" y="0.5" width="459" height="344"></rect>
                </g>
                <g id="menu" transform="translate(62.000000, 144.000000)">
                    <rect id="Rectangle" fill="#044695" x="0" y="0" width="336" height="58"></rect>
                    <polygon id="Fill-8" fill="#FFFFFF" points="20 48 50 48 50 38 20 38"></polygon>
                    <polygon id="Fill-8" fill="#FFFFFF" points="58 48 88 48 88 38 58 38"></polygon>
                    <polygon id="Fill-8-Copy" fill="#FFFFFF" points="96 48 126 48 126 38 96 38"></polygon>
                    <polygon id="Fill-8-Copy-4" fill="#FFFFFF" points="134 48 164 48 164 38 134 38"></polygon>
                    <polygon id="Fill-8-Copy-4" fill="#FFFFFF" points="172 48 202 48 202 38 172 38"></polygon>
                    <polygon id="Fill-8-Copy" fill="#FFFFFF" points="210 48 240 48 240 38 210 38"></polygon>
                    <polygon id="Fill-8-Copy-4" fill="#FFFFFF" points="248 48 278 48 278 38 248 38"></polygon>
                    <polygon id="Fill-8-Copy-4" fill="#FFFFFF" points="286 48 316 48 316 38 286 38"></polygon>
                </g>
            </g>
        </g>
    </g>
</svg>
