<svg
  width="131"
  height="44"
  viewBox="0 0 131 44"
  fill="none"
  xmlns="http://www.w3.org/2000/svg"
>
<path
    fill-rule="evenodd"
    clip-rule="evenodd"
    d="M0 38.2342V5.15308H24.4747V10.7493H6.66574V18.0829H23.237V23.657H6.66574V32.6609H25.1063V38.2342H0Z"
    fill="#515560"
  />
<path
    fill-rule="evenodd"
    clip-rule="evenodd"
    d="M30.0059 5.15308H36.6732V23.0958C36.6732 25.9434 36.7548 27.7891 36.9208 28.6329C37.2061 29.9881 37.8856 31.0766 38.9596 31.8973C40.0335 32.719 41.5009 33.1293 43.3626 33.1293C45.2555 33.1293 46.6816 32.742 47.6427 31.9654C48.6029 31.1898 49.1816 30.2366 49.377 29.1067C49.5723 27.9768 49.6695 26.1017 49.6695 23.4803V5.15308H56.3369V22.5538C56.3369 26.5304 56.1571 29.3404 55.7967 30.9828C55.4363 32.6242 54.7714 34.0108 53.8029 35.1406C52.8354 36.2705 51.5386 37.1704 49.918 37.8411C48.2957 38.5109 46.179 38.8468 43.5653 38.8468C40.4123 38.8468 38.0204 38.4815 36.3917 37.7509C34.7629 37.0204 33.4744 36.0709 32.5288 34.9033C31.5833 33.7357 30.9596 32.512 30.6588 31.2312C30.2232 29.333 30.0059 26.5304 30.0059 22.8252V5.15308Z"
    fill="#515560"
  />
<rect x="64.3369" width="66" height="44" fill="#003399" />
<path
    fill-rule="evenodd"
    clip-rule="evenodd"
    d="M95.0819 7.15L96.4752 8.1675L95.9435 9.82667L97.3369 8.8L98.7302 9.82667L98.1985 8.1675L99.5919 7.15H97.8685L97.3369 5.5L96.8052 7.15H95.0819ZM98.7302 38.4995L98.1985 36.8495L99.5919 35.832H97.8685L97.3369 34.1729L96.8052 35.832H95.0819L96.4752 36.8495L95.9435 38.4995L97.3369 37.482L98.7302 38.4995ZM83.0919 23.1002L81.6985 24.1269L82.2302 22.4769L80.8369 21.4869H82.5602L83.0919 19.8369L83.6235 21.4869H85.356L83.9535 22.5136L84.4852 24.1636L83.0919 23.1369V23.1002ZM91.6077 11.7331L91.076 10.0831L92.4694 9.0748H90.746L90.2144 7.4248L89.6827 9.0748H87.9594L89.3527 10.0923L88.821 11.7423L90.2144 10.7248L91.6077 11.7331ZM84.5035 14.318L85.0352 12.668L85.576 14.318H87.2535L85.8602 15.3446L86.3919 16.9946L84.9894 15.968L83.5869 16.9946L84.1185 15.3446L82.7252 14.318H84.5035ZM84.5035 28.6549H82.7435H82.7252L84.1185 29.6815L83.5869 31.3316L84.9894 30.314L86.3919 31.3316L85.8602 29.6815L87.2535 28.6549H85.576L85.0352 27.0049L84.5035 28.6549ZM89.3527 34.9249L87.9594 33.9166H89.6827L90.2144 32.2666L90.746 33.9166H92.4694L91.076 34.9249L91.6077 36.5749L90.2144 35.5574L88.821 36.5749L89.3527 34.9249ZM112.975 24.1636L112.444 22.5136L113.837 21.4869H112.15L111.619 19.8369L111.087 21.4869H109.299L110.702 22.5136L110.17 24.1636L111.582 23.1369L112.975 24.1636ZM103.598 10.0831L102.204 9.0748H103.928L104.459 7.4248L104.991 9.0748H106.714L105.321 10.0831L105.853 11.7331L104.459 10.7248L103.066 11.7423L103.598 10.0923V10.0831ZM109.639 12.6592L109.098 14.3092L107.42 14.3183L108.804 15.345L108.273 16.995L109.675 15.9683L111.069 16.995L110.537 15.345L111.894 14.3092H110.17L109.639 12.6592ZM110.216 28.6549H111.894L110.537 29.6815L111.069 31.3316L109.675 30.314L108.273 31.3316L108.804 29.6815L107.42 28.6549H109.144L109.684 27.0049L110.216 28.6549ZM105.321 34.9249L106.714 33.9166H104.991L104.459 32.2666L103.928 33.9166H102.204L103.598 34.9249L103.066 36.5749L104.459 35.5574L105.853 36.5749L105.321 34.9249Z"
    fill="#FFCC00"
  />
</svg>
