<svg
  width="138"
  height="44"
  viewBox="0 0 138 44"
  fill="none"
  xmlns="http://www.w3.org/2000/svg"
>
<path
    d="M94.6735 19.74V25.0462H84.7514C85.1109 27.8791 85.9521 29.9642 87.2751 31.3015C88.6124 32.6245 90.223 33.286 92.1067 33.286C94.048 33.286 95.6514 32.7108 96.9168 31.5604C98.1823 30.3956 98.9588 28.7275 99.2464 26.5561L105.653 28.5406C104.919 31.6898 103.438 34.1703 101.209 35.9822C98.9803 37.7941 96.0828 38.7 92.5166 38.7C88.864 38.7 85.9809 37.8372 83.867 36.1116C81.7675 34.386 80.2648 32.3944 79.3589 30.1367C78.453 27.8791 78 25.341 78 22.5226C78 17.5759 79.3014 13.5854 81.9042 10.5513C84.5069 7.51708 88.0875 6 92.646 6C96.1691 6 99.0307 6.83404 101.231 8.50211C103.445 10.1702 104.891 12.4278 105.566 15.2751L99.2464 16.7203C98.7862 15.0666 97.9378 13.7867 96.7011 12.8808C95.4644 11.9749 94.0552 11.5219 92.4734 11.5219C90.2014 11.5219 88.4039 12.3056 87.0809 13.873C85.7724 15.4261 84.9958 17.3817 84.7514 19.74H94.6735Z"
    fill="#515560"
  />
<path
    d="M130.997 26.5346L137.188 28.4974C136.239 31.9486 134.657 34.5154 132.442 36.1979C130.242 37.866 127.445 38.7 124.052 38.7C119.853 38.7 116.402 37.2692 113.698 34.4076C110.995 31.5316 109.643 27.6059 109.643 22.6304C109.643 17.3673 111.002 13.2834 113.72 10.3787C116.438 7.45956 120.011 6 124.44 6C128.308 6 131.45 7.14321 133.866 9.42962C135.304 10.7813 136.383 12.7226 137.102 15.2535L130.782 16.7634C130.408 15.1241 129.624 13.8299 128.43 12.8808C127.251 11.9317 125.813 11.4572 124.116 11.4572C121.773 11.4572 119.867 12.2984 118.4 13.9809C116.948 15.6633 116.222 18.3883 116.222 22.1559C116.222 26.1535 116.941 29.0007 118.379 30.6976C119.817 32.3944 121.686 33.2428 123.987 33.2428C125.684 33.2428 127.143 32.7036 128.366 31.6251C129.588 30.5466 130.465 28.8497 130.997 26.5346Z"
    fill="#515560"
  />
<rect width="66" height="44" fill="#003399" />
<path
    fill-rule="evenodd"
    clip-rule="evenodd"
    d="M30.745 7.15L32.1383 8.1675L31.6067 9.82667L33 8.8L34.3933 9.82667L33.8617 8.1675L35.255 7.15H33.5317L33 5.5L32.4683 7.15H30.745ZM34.3933 38.5L33.8617 36.85L35.255 35.8325H33.5317L33 34.1733L32.4683 35.8325H30.745L32.1383 36.85L31.6067 38.5L33 37.4825L34.3933 38.5ZM18.755 23.1L17.3617 24.1267L17.8933 22.4767L16.5 21.4867H18.2233L18.755 19.8367L19.2867 21.4867H21.0192L19.6167 22.5133L20.1483 24.1633L18.755 23.1367V23.1ZM27.2708 11.7333L26.7392 10.0833L28.1325 9.075H26.4092L25.8775 7.425L25.3458 9.075H23.6225L25.0158 10.0925L24.4842 11.7425L25.8775 10.725L27.2708 11.7333ZM20.1667 14.3183L20.6983 12.6683L21.2392 14.3183H22.9167L21.5233 15.345L22.055 16.995L20.6525 15.9683L19.25 16.995L19.7817 15.345L18.3883 14.3183H20.1667ZM20.6983 27.005L20.1667 28.655H18.4067H18.3883L19.7817 29.6817L19.25 31.3317L20.6525 30.3142L22.055 31.3317L21.5233 29.6817L22.9167 28.655H21.2392L20.6983 27.005ZM25.0158 34.925L23.6225 33.9167H25.3458L25.8775 32.2667L26.4092 33.9167H28.1325L26.7392 34.925L27.2708 36.575L25.8775 35.5575L24.4842 36.575L25.0158 34.925ZM48.6383 24.1633L48.1067 22.5133L49.5 21.4867H47.8133L47.2817 19.8367L46.75 21.4867H44.9625L46.365 22.5133L45.8333 24.1633L47.245 23.1367L48.6383 24.1633ZM39.2608 10.0833L37.8675 9.075H39.5908L40.1225 7.425L40.6542 9.075H42.3775L40.9842 10.0833L41.5158 11.7333L40.1225 10.725L38.7292 11.7425L39.2608 10.0925V10.0833ZM45.3017 12.6592L44.7608 14.3092L43.0833 14.3183L44.4675 15.345L43.9358 16.995L45.3383 15.9683L46.7317 16.995L46.2 15.345L47.5567 14.3092H45.8333L45.3017 12.6592ZM45.8792 28.655H47.5567L46.2 29.6817L46.7317 31.3317L45.3383 30.3142L43.9358 31.3317L44.4675 29.6817L43.0833 28.655H44.8067L45.3475 27.005L45.8792 28.655ZM40.9842 34.925L42.3775 33.9167H40.6542L40.1225 32.2667L39.5908 33.9167H37.8675L39.2608 34.925L38.7292 36.575L40.1225 35.5575L41.5158 36.575L40.9842 34.925Z"
    fill="#FFCC00"
  />
</svg>
