<?xml version="1.0" encoding="UTF-8" ?>
<svg
  width="146px"
  height="56px"
  viewBox="0 0 146 56"
  version="1.1"
  xmlns="http://www.w3.org/2000/svg"
  xmlns:xlink="http://www.w3.org/1999/xlink"
>
    <!-- Generator: Sketch 64 (93537) - https://sketch.com -->
    <title>EU/EU-emblem/condensed-version/positive/SK</title>
    <desc>Created with Sketch.</desc>
    <g
    id="EU/EU-emblem/condensed-version/positive/SK"
    stroke="none"
    stroke-width="1"
    fill="none"
    fill-rule="evenodd"
  >
        <g transform="translate(83.000000, 0.000000)" fill="#515560" id="🌈-EU">
            <g transform="translate(0.807339, 0.000000)">
                <polygon
          id="🌈-E"
          points="0.23776055 46.0026 0.23776055 9.9966 26.9347606 9.9966 26.9347606 16.0876 7.50876055 16.0876 7.50876055 24.0696 25.5847606 24.0696 25.5847606 30.1366 7.50876055 30.1366 7.50876055 39.9366 27.6237606 39.9366 27.6237606 46.0026"
        />
                <path
          d="M42.6302606,7.944 L46.0202606,0.6 L53.7562606,0.6 L47.0022606,7.944 L42.6302606,7.944 Z M32.7332606,10.007 L40.0022606,10.007 L40.0022606,29.508 C40.0022606,32.603 40.0922606,34.609 40.2732606,35.526 C40.5832606,36.999 41.3242606,38.182 42.4952606,39.074 C43.6662606,39.967 45.2672606,40.413 47.2972606,40.413 C49.3602606,40.413 50.9152606,39.992 51.9642606,39.148 C53.0112606,38.305 53.6422606,37.269 53.8552606,36.041 C54.0672606,34.813 54.1742606,32.775 54.1742606,29.926 L54.1742606,10.007 L61.4432606,10.007 L61.4432606,28.919 C61.4432606,33.241 61.2472606,36.295 60.8552606,38.08 C60.4612606,39.864 59.7362606,41.371 58.6812606,42.599 C57.6252606,43.827 56.2122606,44.805 54.4442606,45.534 C52.6762606,46.262 50.3672606,46.627 47.5182606,46.627 C44.0792606,46.627 41.4722606,46.23 39.6952606,45.436 C37.9192606,44.642 36.5152606,43.61 35.4842606,42.341 C34.4522606,41.072 33.7732606,39.742 33.4442606,38.35 C32.9702606,36.287 32.7332606,33.241 32.7332606,29.214 L32.7332606,10.007 Z"
          id="🌈-Ú"
        />
            </g>
        </g>
        <g
      id="EU/EU-emblem/flag/flag-positive"
      transform="translate(0.000000, 4.000000)"
    >
            <g id="EU_flag">
                <rect
          id="🌈-flag"
          fill="#003399"
          fill-rule="nonzero"
          x="0"
          y="0"
          width="72"
          height="48"
        />
                <path
          d="M35.06,8.91 L33.54,7.8 L35.42,7.8 L36,6 L36.58,7.8 L38.46,7.8 L36.94,8.91 L37.52,10.72 L36,9.6 L34.48,10.72 L35.06,8.91 L35.06,8.91 Z M36.94,40.2 L37.52,42 L36,40.89 L34.48,42 L35.06,40.2 L33.54,39.09 L35.42,39.09 L36,37.28 L36.58,39.09 L38.46,39.09 L36.94,40.2 Z M20.46,25.2 L18.94,26.32 L19.52,24.52 L18,23.44 L19.88,23.44 L20.46,21.64 L21.04,23.44 L22.93,23.44 L21.4,24.56 L21.98,26.36 L20.46,25.24 L20.46,25.2 Z M29.17,11 L29.75,12.8 L28.23,11.7 L26.71,12.81 L27.29,11.01 L25.77,9.9 L27.65,9.9 L28.23,8.1 L28.81,9.9 L30.69,9.9 L29.17,11 Z M22,15.62 L22.58,13.82 L23.17,15.62 L25,15.62 L23.48,16.74 L24.06,18.54 L22.53,17.42 L21,18.54 L21.58,16.74 L20.06,15.62 L22,15.62 Z M20.08,31.26 L22,31.26 L22.58,29.46 L23.17,31.26 L25,31.26 L23.48,32.38 L24.06,34.18 L22.53,33.07 L21,34.18 L21.58,32.38 L20.06,31.26 L20.08,31.26 Z M27.29,38.1 L25.77,37 L27.65,37 L28.23,35.2 L28.81,37 L30.69,37 L29.17,38.1 L29.75,39.9 L28.23,38.79 L26.71,39.9 L27.29,38.1 Z M52.48,24.56 L53.06,26.36 L51.54,25.24 L50,26.36 L50.58,24.56 L49.05,23.44 L51,23.44 L51.58,21.64 L52.16,23.44 L54,23.44 L52.48,24.56 Z M42.83,11 L41.31,9.9 L43.19,9.9 L43.77,8.1 L44.35,9.9 L46.23,9.9 L44.71,11 L45.29,12.8 L43.77,11.7 L42.25,12.81 L42.83,11.01 L42.83,11 Z M48.83,15.61 L49.42,13.81 L50,15.61 L51.88,15.61 L50.4,16.74 L50.98,18.54 L49.46,17.42 L47.93,18.54 L48.51,16.74 L47,15.62 L48.83,15.61 Z M50,31.26 L51.88,31.26 L50.4,32.38 L50.98,34.18 L49.46,33.07 L47.93,34.18 L48.51,32.38 L47,31.26 L48.88,31.26 L49.47,29.46 L50.05,31.26 L50,31.26 Z M46.23,37 L44.71,38.1 L45.29,39.9 L43.77,38.79 L42.25,39.9 L42.83,38.1 L41.31,37 L43.19,37 L43.77,35.2 L44.35,37 L46.23,37 Z"
          id="🌈-stars"
          fill="#FFCC00"
          fill-rule="nonzero"
        />
            </g>
        </g>
    </g>
</svg>
