<?xml version="1.0" encoding="UTF-8" ?>
<svg
  width="145px"
  height="48px"
  viewBox="0 0 145 48"
  version="1.1"
  xmlns="http://www.w3.org/2000/svg"
  xmlns:xlink="http://www.w3.org/1999/xlink"
>
    <!-- Generator: Sketch 64 (93537) - https://sketch.com -->
    <title>EU/EU-emblem/condensed-version/positive/SL</title>
    <desc>Created with Sketch.</desc>
    <g
    id="EU/EU-emblem/condensed-version/positive/SL"
    stroke="none"
    stroke-width="1"
    fill="none"
    fill-rule="evenodd"
  >
        <g transform="translate(83.000000, 6.000000)" fill="#515560" id="🌈-EU">
            <g transform="translate(0.807339, 0.000000)">
                <polygon
          id="🌈-E"
          points="-1.49213975e-13 36 -1.49213975e-13 0 26.5845445 0 26.5845445 6.089985 7.24037243 6.089985 7.24037243 14.0706549 25.2402311 14.0706549 25.2402311 20.1366439 7.24037243 20.1366439 7.24037243 29.9350108 27.2706422 29.9350108 27.2706422 36"
        />
                <path
          d="M32.5917431,0 L39.8338688,0 L39.8338688,19.5258511 C39.8338688,22.6247952 39.9225275,24.6333515 40.1028336,25.5515201 C40.4126411,27.0263972 41.1508,28.2109048 42.3173102,29.1040415 C43.4838204,29.9981795 45.0776858,30.4447479 47.0999024,30.4447479 C49.1559887,30.4447479 50.7050266,30.0232114 51.7490084,29.1781358 C52.791994,28.3340615 53.4205747,27.2967413 53.632758,26.0671764 C53.8449413,24.8376115 53.9505349,22.7970144 53.9505349,19.9443838 L53.9505349,0 L61.1926606,0 L61.1926606,18.9361005 C61.1926606,23.2636082 60.997412,26.3215001 60.6059189,28.1087748 C60.2144257,29.8950482 59.4922055,31.4039687 58.4402543,32.6335336 C57.3892994,33.8630985 55.9807209,34.8423448 54.2204958,35.5722738 C52.4582785,36.3012015 50.1591277,36.6666667 47.3200551,36.6666667 C43.8952369,36.6666667 41.2972364,36.2691608 39.5280459,35.4741489 C37.7588553,34.6791371 36.3592423,33.645822 35.3321953,32.3752048 C34.3051484,31.1045877 33.6277556,29.7728928 33.3010132,28.3791189 C32.8278344,26.3134899 32.5917431,23.2636082 32.5917431,19.2314764 L32.5917431,0 Z"
          id="🌈-U"
        />
            </g>
        </g>
        <g id="EU/EU-emblem/flag/flag-positive">
            <g id="EU_flag">
                <rect
          id="🌈-flag"
          fill="#003399"
          fill-rule="nonzero"
          x="0"
          y="0"
          width="72"
          height="48"
        />
                <path
          d="M35.06,8.91 L33.54,7.8 L35.42,7.8 L36,6 L36.58,7.8 L38.46,7.8 L36.94,8.91 L37.52,10.72 L36,9.6 L34.48,10.72 L35.06,8.91 L35.06,8.91 Z M36.94,40.2 L37.52,42 L36,40.89 L34.48,42 L35.06,40.2 L33.54,39.09 L35.42,39.09 L36,37.28 L36.58,39.09 L38.46,39.09 L36.94,40.2 Z M20.46,25.2 L18.94,26.32 L19.52,24.52 L18,23.44 L19.88,23.44 L20.46,21.64 L21.04,23.44 L22.93,23.44 L21.4,24.56 L21.98,26.36 L20.46,25.24 L20.46,25.2 Z M29.17,11 L29.75,12.8 L28.23,11.7 L26.71,12.81 L27.29,11.01 L25.77,9.9 L27.65,9.9 L28.23,8.1 L28.81,9.9 L30.69,9.9 L29.17,11 Z M22,15.62 L22.58,13.82 L23.17,15.62 L25,15.62 L23.48,16.74 L24.06,18.54 L22.53,17.42 L21,18.54 L21.58,16.74 L20.06,15.62 L22,15.62 Z M20.08,31.26 L22,31.26 L22.58,29.46 L23.17,31.26 L25,31.26 L23.48,32.38 L24.06,34.18 L22.53,33.07 L21,34.18 L21.58,32.38 L20.06,31.26 L20.08,31.26 Z M27.29,38.1 L25.77,37 L27.65,37 L28.23,35.2 L28.81,37 L30.69,37 L29.17,38.1 L29.75,39.9 L28.23,38.79 L26.71,39.9 L27.29,38.1 Z M52.48,24.56 L53.06,26.36 L51.54,25.24 L50,26.36 L50.58,24.56 L49.05,23.44 L51,23.44 L51.58,21.64 L52.16,23.44 L54,23.44 L52.48,24.56 Z M42.83,11 L41.31,9.9 L43.19,9.9 L43.77,8.1 L44.35,9.9 L46.23,9.9 L44.71,11 L45.29,12.8 L43.77,11.7 L42.25,12.81 L42.83,11.01 L42.83,11 Z M48.83,15.61 L49.42,13.81 L50,15.61 L51.88,15.61 L50.4,16.74 L50.98,18.54 L49.46,17.42 L47.93,18.54 L48.51,16.74 L47,15.62 L48.83,15.61 Z M50,31.26 L51.88,31.26 L50.4,32.38 L50.98,34.18 L49.46,33.07 L47.93,34.18 L48.51,32.38 L47,31.26 L48.88,31.26 L49.47,29.46 L50.05,31.26 L50,31.26 Z M46.23,37 L44.71,38.1 L45.29,39.9 L43.77,38.79 L42.25,39.9 L42.83,38.1 L41.31,37 L43.19,37 L43.77,35.2 L44.35,37 L46.23,37 Z"
          id="🌈-stars"
          fill="#FFCC00"
          fill-rule="nonzero"
        />
            </g>
        </g>
    </g>
</svg>
