<svg
  width="138"
  height="44"
  viewBox="0 0 138 44"
  fill="none"
  xmlns="http://www.w3.org/2000/svg"
>
<g id="Emblem type=condensed_version, Positive/Negative=positive, Language=IC">
<g id="EU/EU-emblem/condensed-version/positive/SV">
<g id="Flag">
<g id="EU_flag">
<rect
            id="&#240;&#159;&#140;&#136; flag"
            width="66"
            height="44"
            fill="#003399"
          />
<path
            id="&#240;&#159;&#140;&#136; stars"
            fill-rule="evenodd"
            clip-rule="evenodd"
            d="M30.745 7.15L32.1383 8.1675L31.6067 9.82667L33 8.8L34.3933 9.82667L33.8617 8.1675L35.255 7.15H33.5317L33 5.5L32.4683 7.15H30.745ZM34.3933 38.5L33.8617 36.85L35.255 35.8325H33.5317L33 34.1733L32.4683 35.8325H30.745L32.1383 36.85L31.6067 38.5L33 37.4825L34.3933 38.5ZM18.755 23.1L17.3617 24.1267L17.8933 22.4767L16.5 21.4867H18.2233L18.755 19.8367L19.2867 21.4867H21.0192L19.6167 22.5133L20.1483 24.1633L18.755 23.1367V23.1ZM27.2708 11.7333L26.7392 10.0833L28.1325 9.075H26.4092L25.8775 7.425L25.3458 9.075H23.6225L25.0158 10.0925L24.4842 11.7425L25.8775 10.725L27.2708 11.7333ZM20.1667 14.3183L20.6983 12.6683L21.2392 14.3183H22.9167L21.5233 15.345L22.055 16.995L20.6525 15.9683L19.25 16.995L19.7817 15.345L18.3883 14.3183H20.1667ZM20.6983 27.005L20.1667 28.655H18.4067H18.3883L19.7817 29.6817L19.25 31.3317L20.6525 30.3142L22.055 31.3317L21.5233 29.6817L22.9167 28.655H21.2392L20.6983 27.005ZM25.0158 34.925L23.6225 33.9167H25.3458L25.8775 32.2667L26.4092 33.9167H28.1325L26.7392 34.925L27.2708 36.575L25.8775 35.5575L24.4842 36.575L25.0158 34.925ZM48.6383 24.1633L48.1067 22.5133L49.5 21.4867H47.8133L47.2817 19.8367L46.75 21.4867H44.9625L46.365 22.5133L45.8333 24.1633L47.245 23.1367L48.6383 24.1633ZM39.2608 10.0833L37.8675 9.075H39.5908L40.1225 7.425L40.6542 9.075H42.3775L40.9842 10.0833L41.5158 11.7333L40.1225 10.725L38.7292 11.7425L39.2608 10.0925V10.0833ZM45.3017 12.6592L44.7608 14.3092L43.0833 14.3183L44.4675 15.345L43.9358 16.995L45.3383 15.9683L46.7317 16.995L46.2 15.345L47.5567 14.3092H45.8333L45.3017 12.6592ZM45.8792 28.655H47.5567L46.2 29.6817L46.7317 31.3317L45.3383 30.3142L43.9358 31.3317L44.4675 29.6817L43.0833 28.655H44.8067L45.3475 27.005L45.8792 28.655ZM40.9842 34.925L42.3775 33.9167H40.6542L40.1225 32.2667L39.5908 33.9167H37.8675L39.2608 34.925L38.7292 36.575L40.1225 35.5575L41.5158 36.575L40.9842 34.925Z"
            fill="#FFCC00"
          />
</g>
</g>
</g>
<g id="ESB">
<path
        d="M75.3281 34V11.0938H92.3125V14.9688H79.9531V20.0469H91.4531V23.9062H79.9531V30.1406H92.75V34H75.3281Z"
        fill="#515560"
      />
<path
        d="M95.5 26.5469L100 26.1094C100.271 27.6198 100.818 28.7292 101.641 29.4375C102.474 30.1458 103.594 30.5 105 30.5C106.49 30.5 107.609 30.1875 108.359 29.5625C109.12 28.9271 109.5 28.1875 109.5 27.3438C109.5 26.8021 109.339 26.3438 109.016 25.9688C108.703 25.5833 108.151 25.25 107.359 24.9688C106.818 24.7812 105.583 24.4479 103.656 23.9688C101.177 23.3542 99.4375 22.599 98.4375 21.7031C97.0312 20.4427 96.3281 18.9062 96.3281 17.0938C96.3281 15.9271 96.6562 14.8385 97.3125 13.8281C97.9792 12.8073 98.9323 12.0312 100.172 11.5C101.422 10.9688 102.927 10.7031 104.688 10.7031C107.562 10.7031 109.724 11.3333 111.172 12.5938C112.63 13.8542 113.396 15.5365 113.469 17.6406L108.844 17.8438C108.646 16.6667 108.219 15.8229 107.562 15.3125C106.917 14.7917 105.943 14.5312 104.641 14.5312C103.297 14.5312 102.245 14.8073 101.484 15.3594C100.995 15.7135 100.75 16.1875 100.75 16.7812C100.75 17.3229 100.979 17.7865 101.438 18.1719C102.021 18.6615 103.438 19.1719 105.688 19.7031C107.938 20.2344 109.599 20.7865 110.672 21.3594C111.755 21.9219 112.599 22.6979 113.203 23.6875C113.818 24.6667 114.125 25.8802 114.125 27.3281C114.125 28.6406 113.76 29.8698 113.031 31.0156C112.302 32.1615 111.271 33.0156 109.938 33.5781C108.604 34.1302 106.943 34.4062 104.953 34.4062C102.057 34.4062 99.8333 33.7396 98.2812 32.4062C96.7292 31.0625 95.8021 29.1094 95.5 26.5469Z"
        fill="#515560"
      />
<path
        d="M118.031 11.0938H127.188C129 11.0938 130.349 11.1719 131.234 11.3281C132.13 11.474 132.927 11.7865 133.625 12.2656C134.333 12.7448 134.922 13.3854 135.391 14.1875C135.859 14.9792 136.094 15.8698 136.094 16.8594C136.094 17.9323 135.802 18.9167 135.219 19.8125C134.646 20.7083 133.865 21.3802 132.875 21.8281C134.271 22.2344 135.344 22.9271 136.094 23.9062C136.844 24.8854 137.219 26.0365 137.219 27.3594C137.219 28.401 136.974 29.4167 136.484 30.4062C136.005 31.3854 135.344 32.1719 134.5 32.7656C133.667 33.349 132.635 33.7083 131.406 33.8438C130.635 33.9271 128.776 33.9792 125.828 34H118.031V11.0938ZM122.656 14.9062V20.2031H125.688C127.49 20.2031 128.609 20.1771 129.047 20.125C129.839 20.0312 130.458 19.7604 130.906 19.3125C131.365 18.8542 131.594 18.2552 131.594 17.5156C131.594 16.8073 131.396 16.2344 131 15.7969C130.615 15.349 130.036 15.0781 129.266 14.9844C128.807 14.9323 127.49 14.9062 125.312 14.9062H122.656ZM122.656 24.0156V30.1406H126.938C128.604 30.1406 129.661 30.0938 130.109 30C130.797 29.875 131.354 29.5729 131.781 29.0938C132.219 28.6042 132.438 27.9531 132.438 27.1406C132.438 26.4531 132.271 25.8698 131.938 25.3906C131.604 24.9115 131.12 24.5625 130.484 24.3438C129.859 24.125 128.495 24.0156 126.391 24.0156H122.656Z"
        fill="#515560"
      />
</g>
</g>
</svg>
