<svg
  width="137"
  height="44"
  viewBox="0 0 137 44"
  fill="none"
  xmlns="http://www.w3.org/2000/svg"
>
<path
    d="M81.4198 18.5938C82.3579 19.4941 83.3263 20.4845 84.2342 21.5048C83.4474 23.2454 82.5092 24.836 81.4198 26.0965V18.5938ZM98.9119 16.5831H101.061C100.819 18.2637 100.486 19.9143 100.122 21.1747L102.725 22.6752C103.633 20.3644 104.45 17.0332 104.904 14.0322L102.453 13.1618L101.908 13.3419H95.6132C95.9764 11.7814 96.2488 10.1608 96.4909 8.51018L92.8593 8C92.3448 12.6817 91.2251 17.3333 89.2882 20.1844C90.1053 20.6945 91.5882 21.925 92.1935 22.5552C93.2224 20.9346 94.0698 18.8939 94.7659 16.5831H95.4317V19.9443C95.4317 22.4352 94.5843 27.2669 91.1343 30.8682V29.3676H81.4198V27.0268C82.1763 27.597 83.1145 28.4673 83.5079 28.8875C84.6579 27.597 85.6869 26.0064 86.5645 24.2058C87.5027 25.3762 88.2895 26.4866 88.804 27.4469L91.0435 24.776C90.3777 23.6056 89.2882 22.2251 88.0172 20.8146C88.804 18.6538 89.4093 16.373 89.8935 13.9721L86.625 13.4319C86.3224 15.0525 85.9593 16.6431 85.475 18.1736C84.5671 17.2733 83.6592 16.433 82.8119 15.6827L81.4198 17.2133V12.9818H90.9527V9.6806H78V34.7095H81.4198V32.6688H88.9856C88.804 32.7888 88.6224 32.9089 88.4408 33.0289C89.0764 33.7192 90.0751 35.2197 90.4685 36C94.6751 33.3891 96.7027 28.5273 97.1567 25.9164C97.5804 28.4373 99.3962 33.5091 103.088 36C103.633 35.0997 104.662 33.6592 105.267 32.8789C100.122 29.3676 98.9119 22.9153 98.9119 19.9443V16.5831Z"
    fill="#515560"
  />
<path
    d="M131.522 11.6313V13.3719H126.378V11.6313H131.522ZM126.226 17.6034C126.317 17.0032 126.347 16.373 126.378 15.8028H131.522V17.6034H126.226ZM131.522 20.0643V21.4448C131.522 21.8049 131.401 21.925 130.978 21.925C130.584 21.955 129.253 21.985 128.042 21.925C128.496 22.6752 129.101 23.9357 129.313 24.836C131.22 24.836 132.672 24.776 133.701 24.2658C134.791 23.7856 135.093 23.0054 135.093 21.4748V8.87031H123.109V14.9025C123.109 17.5734 122.807 20.7546 119.931 22.9753C120.628 23.3955 121.929 24.5959 122.443 25.2262C124.229 23.8457 125.197 21.985 125.742 20.0643H131.522ZM117.571 12.1115V14.2722H113.818V12.1115H117.571ZM113.818 19.0439V16.9132H117.571V19.0439H113.818ZM113.818 21.8049H120.839V9.32047H110.55V23.2755H113.818V21.8049ZM115.725 28.1672H118.297V32.1586H115.725V28.1672ZM124.229 28.1672V32.1586H121.596V28.1672H124.229ZM130.13 28.1672V32.1586H127.497V28.1672H130.13ZM133.671 32.1586V25.4062H112.396V32.1586H108.855V35.2197H137V32.1586H133.671Z"
    fill="#515560"
  />
<rect width="66" height="44" fill="#003399" />
<path
    fill-rule="evenodd"
    clip-rule="evenodd"
    d="M30.745 7.15L32.1383 8.1675L31.6067 9.82667L33 8.8L34.3933 9.82667L33.8617 8.1675L35.255 7.15H33.5317L33 5.5L32.4683 7.15H30.745ZM34.3933 38.5L33.8617 36.85L35.255 35.8325H33.5317L33 34.1733L32.4683 35.8325H30.745L32.1383 36.85L31.6067 38.5L33 37.4825L34.3933 38.5ZM18.755 23.1L17.3617 24.1267L17.8933 22.4767L16.5 21.4867H18.2233L18.755 19.8367L19.2867 21.4867H21.0192L19.6167 22.5133L20.1483 24.1633L18.755 23.1367V23.1ZM27.2708 11.7333L26.7392 10.0833L28.1325 9.075H26.4092L25.8775 7.425L25.3458 9.075H23.6225L25.0158 10.0925L24.4842 11.7425L25.8775 10.725L27.2708 11.7333ZM20.1667 14.3183L20.6983 12.6683L21.2392 14.3183H22.9167L21.5233 15.345L22.055 16.995L20.6525 15.9683L19.25 16.995L19.7817 15.345L18.3883 14.3183H20.1667ZM20.6983 27.005L20.1667 28.655H18.4067H18.3883L19.7817 29.6817L19.25 31.3317L20.6525 30.3142L22.055 31.3317L21.5233 29.6817L22.9167 28.655H21.2392L20.6983 27.005ZM25.0158 34.925L23.6225 33.9167H25.3458L25.8775 32.2667L26.4092 33.9167H28.1325L26.7392 34.925L27.2708 36.575L25.8775 35.5575L24.4842 36.575L25.0158 34.925ZM48.6383 24.1633L48.1067 22.5133L49.5 21.4867H47.8133L47.2817 19.8367L46.75 21.4867H44.9625L46.365 22.5133L45.8333 24.1633L47.245 23.1367L48.6383 24.1633ZM39.2608 10.0833L37.8675 9.075H39.5908L40.1225 7.425L40.6542 9.075H42.3775L40.9842 10.0833L41.5158 11.7333L40.1225 10.725L38.7292 11.7425L39.2608 10.0925V10.0833ZM45.3017 12.6592L44.7608 14.3092L43.0833 14.3183L44.4675 15.345L43.9358 16.995L45.3383 15.9683L46.7317 16.995L46.2 15.345L47.5567 14.3092H45.8333L45.3017 12.6592ZM45.8792 28.655H47.5567L46.2 29.6817L46.7317 31.3317L45.3383 30.3142L43.9358 31.3317L44.4675 29.6817L43.0833 28.655H44.8067L45.3475 27.005L45.8792 28.655ZM40.9842 34.925L42.3775 33.9167H40.6542L40.1225 32.2667L39.5908 33.9167H37.8675L39.2608 34.925L38.7292 36.575L40.1225 35.5575L41.5158 36.575L40.9842 34.925Z"
    fill="#FFCC00"
  />
</svg>
