<svg
  width="137"
  height="44"
  viewBox="0 0 137 44"
  fill="none"
  xmlns="http://www.w3.org/2000/svg"
>
<path
    d="M26.87 30.693L27.728 27.987C29.884 27.987 31.666 27.91 33.074 27.756C34.482 27.58 35.571 27.316 36.341 26.964C37.133 26.59 37.683 26.117 37.991 25.545C38.299 24.951 38.431 24.236 38.387 23.4L37.76 6.43799H40.433L41.093 23.103C41.137 24.225 41.313 25.105 41.621 25.743C41.951 26.381 42.391 26.832 42.941 27.096C43.491 27.338 44.096 27.459 44.756 27.459C45.218 27.459 45.548 27.591 45.746 27.855C45.966 28.097 46.076 28.394 46.076 28.746C46.076 29.098 45.922 29.428 45.614 29.736C45.306 30.022 44.91 30.165 44.426 30.165C43.392 30.165 42.556 30.011 41.918 29.703C41.28 29.373 40.785 28.966 40.433 28.482C40.103 27.998 39.883 27.492 39.773 26.964L40.466 26.997C40.026 27.679 39.432 28.262 38.684 28.746C37.936 29.208 37.012 29.582 35.912 29.868C34.812 30.154 33.514 30.363 32.018 30.495C30.544 30.627 28.828 30.693 26.87 30.693ZM26.012 23.268L25.385 21.189C26.309 20.947 27.057 20.738 27.629 20.562C28.201 20.386 28.608 20.221 28.85 20.067C29.114 19.891 29.246 19.715 29.246 19.539C29.246 19.297 29.114 19.077 28.85 18.879C28.608 18.659 28.322 18.439 27.992 18.219C27.684 17.977 27.398 17.702 27.134 17.394C26.892 17.086 26.771 16.712 26.771 16.272C26.771 15.876 26.881 15.469 27.101 15.051C27.343 14.611 27.761 14.16 28.355 13.698C28.949 13.214 29.785 12.708 30.863 12.18L31.886 14.061C30.874 14.545 30.126 14.963 29.642 15.315C29.18 15.645 28.949 15.942 28.949 16.206C28.949 16.404 29.07 16.613 29.312 16.833C29.576 17.053 29.862 17.295 30.17 17.559C30.5 17.823 30.786 18.131 31.028 18.483C31.292 18.813 31.424 19.209 31.424 19.671C31.424 19.979 31.358 20.287 31.226 20.595C31.094 20.881 30.83 21.178 30.434 21.486C30.06 21.772 29.521 22.069 28.817 22.377C28.113 22.663 27.178 22.96 26.012 23.268ZM26.87 30.693C24.912 30.693 23.185 30.561 21.689 30.297C20.215 30.055 18.983 29.67 17.993 29.142C17.003 28.614 16.255 27.932 15.749 27.096C15.243 26.238 14.99 25.204 14.99 23.994C14.99 23.444 15.034 22.883 15.122 22.311C15.21 21.717 15.32 21.123 15.452 20.529C15.606 19.935 15.76 19.363 15.914 18.813L18.389 19.44C18.301 19.77 18.202 20.166 18.092 20.628C17.982 21.068 17.883 21.519 17.795 21.981C17.729 22.443 17.696 22.861 17.696 23.235C17.696 24.379 17.982 25.303 18.554 26.007C19.148 26.689 20.171 27.195 21.623 27.525C23.075 27.833 25.11 27.987 27.728 27.987L28.388 29.637L26.87 30.693Z"
    fill="#515560"
  />
<path
    d="M44.4219 30.165L44.7519 27.459C46.0499 27.459 47.0619 27.415 47.7879 27.327C48.5139 27.217 49.0309 26.964 49.3389 26.568C49.6469 26.15 49.8009 25.501 49.8009 24.621C49.8009 24.071 49.7129 23.422 49.5369 22.674C49.3609 21.904 49.1299 21.09 48.8439 20.232C48.5579 19.374 48.2499 18.527 47.9199 17.691L50.5929 16.701C50.8789 17.405 51.1429 18.208 51.3849 19.11C51.6489 20.012 51.8689 20.903 52.0449 21.783C52.2209 22.663 52.3089 23.433 52.3089 24.093C52.3089 25.193 52.1549 26.128 51.8469 26.898C51.5609 27.668 51.0989 28.295 50.4609 28.779C49.8229 29.263 48.9979 29.615 47.9859 29.835C46.9959 30.055 45.8079 30.165 44.4219 30.165ZM50.5269 36.402C50.0649 36.402 49.6689 36.237 49.3389 35.907C49.0309 35.599 48.8769 35.225 48.8769 34.785C48.8769 34.345 49.0309 33.96 49.3389 33.63C49.6689 33.3 50.0649 33.135 50.5269 33.135C50.9669 33.135 51.3409 33.3 51.6489 33.63C51.9789 33.96 52.1439 34.345 52.1439 34.785C52.1439 35.225 51.9789 35.599 51.6489 35.907C51.3409 36.237 50.9669 36.402 50.5269 36.402ZM46.0059 36.402C45.5439 36.402 45.1479 36.237 44.8179 35.907C44.5099 35.599 44.3559 35.225 44.3559 34.785C44.3559 34.345 44.5099 33.96 44.8179 33.63C45.1479 33.3 45.5439 33.135 46.0059 33.135C46.4459 33.135 46.8199 33.3 47.1279 33.63C47.4579 33.96 47.6229 34.345 47.6229 34.785C47.6229 35.225 47.4579 35.599 47.1279 35.907C46.8199 36.237 46.4459 36.402 46.0059 36.402Z"
    fill="#515560"
  />
<path
    d="M57.3192 30L56.6592 6.43799H59.3322L59.9922 30H57.3192ZM56.4282 39.999L56.0322 38.217C56.6042 38.085 57.0662 37.975 57.4182 37.887C57.7702 37.799 58.1662 37.7 58.6062 37.59L58.4412 38.283C57.8692 38.107 57.3192 37.733 56.7912 37.161C56.2852 36.589 56.0322 35.94 56.0322 35.214C56.0322 34.554 56.1862 33.993 56.4942 33.531C56.8242 33.091 57.2422 32.761 57.7482 32.541C58.2762 32.321 58.8372 32.211 59.4312 32.211C59.6732 32.211 59.9262 32.233 60.1902 32.277C60.4762 32.321 60.7402 32.387 60.9822 32.475L60.7182 34.125C60.4982 34.081 60.2892 34.037 60.0912 33.993C59.8932 33.949 59.6732 33.927 59.4312 33.927C58.9252 33.927 58.5292 34.026 58.2432 34.224C57.9572 34.444 57.8142 34.741 57.8142 35.115C57.8142 35.577 57.9572 35.973 58.2432 36.303C58.5512 36.633 58.8922 36.886 59.2662 37.062C59.6622 37.26 59.9812 37.359 60.2232 37.359L58.8702 37.491C59.4642 37.337 60.0142 37.172 60.5202 36.996C61.0482 36.842 61.5212 36.688 61.9392 36.534L62.4672 38.217C61.9392 38.415 61.3122 38.624 60.5862 38.844C59.8822 39.064 59.1672 39.273 58.4412 39.471C57.7152 39.669 57.0442 39.845 56.4282 39.999Z"
    fill="#515560"
  />
<rect x="71" width="66" height="44" fill="#003399" />
<path
    fill-rule="evenodd"
    clip-rule="evenodd"
    d="M101.745 7.15L103.138 8.1675L102.607 9.82667L104 8.8L105.393 9.82667L104.862 8.1675L106.255 7.15H104.532L104 5.5L103.468 7.15H101.745ZM105.393 38.4995L104.862 36.8495L106.255 35.832H104.532L104 34.1729L103.468 35.832H101.745L103.138 36.8495L102.607 38.4995L104 37.482L105.393 38.4995ZM89.755 23.1002L88.3617 24.1269L88.8933 22.4769L87.5 21.4869H89.2233L89.755 19.8369L90.2867 21.4869H92.0192L90.6167 22.5136L91.1483 24.1636L89.755 23.1369V23.1002ZM98.2708 11.7331L97.7392 10.0831L99.1325 9.0748H97.4092L96.8775 7.4248L96.3458 9.0748H94.6225L96.0158 10.0923L95.4842 11.7423L96.8775 10.7248L98.2708 11.7331ZM91.1667 14.318L91.6983 12.668L92.2392 14.318H93.9167L92.5233 15.3446L93.055 16.9946L91.6525 15.968L90.25 16.9946L90.7817 15.3446L89.3883 14.318H91.1667ZM91.1667 28.6549H89.4067H89.3883L90.7817 29.6815L90.25 31.3316L91.6525 30.314L93.055 31.3316L92.5233 29.6815L93.9167 28.6549H92.2392L91.6983 27.0049L91.1667 28.6549ZM96.0158 34.9249L94.6225 33.9166H96.3458L96.8775 32.2666L97.4092 33.9166H99.1325L97.7392 34.9249L98.2708 36.5749L96.8775 35.5574L95.4842 36.5749L96.0158 34.9249ZM119.638 24.1636L119.107 22.5136L120.5 21.4869H118.813L118.282 19.8369L117.75 21.4869H115.963L117.365 22.5136L116.833 24.1636L118.245 23.1369L119.638 24.1636ZM110.261 10.0831L108.868 9.0748H110.591L111.123 7.4248L111.654 9.0748H113.378L111.984 10.0831L112.516 11.7331L111.123 10.7248L109.729 11.7423L110.261 10.0923V10.0831ZM116.302 12.6592L115.761 14.3092L114.083 14.3183L115.468 15.345L114.936 16.995L116.338 15.9683L117.732 16.995L117.2 15.345L118.557 14.3092H116.833L116.302 12.6592ZM116.879 28.6549H118.557L117.2 29.6815L117.732 31.3316L116.338 30.314L114.936 31.3316L115.468 29.6815L114.083 28.6549H115.807L116.348 27.0049L116.879 28.6549ZM111.984 34.9249L113.378 33.9166H111.654L111.123 32.2666L110.591 33.9166H108.868L110.261 34.9249L109.729 36.5749L111.123 35.5574L112.516 36.5749L111.984 34.9249Z"
    fill="#FFCC00"
  />
</svg>
