<svg
  width="137"
  height="44"
  viewBox="0 0 137 44"
  fill="none"
  xmlns="http://www.w3.org/2000/svg"
>
<path
    d="M22.992 32.693L23.85 28.073C25.94 28.095 27.623 28.04 28.899 27.908C30.197 27.754 31.176 27.479 31.836 27.083C32.518 26.665 32.958 26.082 33.156 25.334C33.376 24.564 33.453 23.585 33.387 22.397L32.661 7.84399H37.281L38.007 22.628C38.073 23.948 38.227 24.96 38.469 25.664C38.711 26.368 39.074 26.863 39.558 27.149C40.042 27.413 40.68 27.545 41.472 27.545C42.286 27.545 42.869 27.765 43.221 28.205C43.595 28.623 43.782 29.151 43.782 29.789C43.782 30.471 43.551 31.043 43.089 31.505C42.627 31.945 41.978 32.165 41.142 32.165C40.174 32.165 39.305 32.044 38.535 31.802C37.765 31.56 37.127 31.142 36.621 30.548C36.115 29.932 35.774 29.107 35.598 28.073H37.083C36.577 29.151 35.884 30.009 35.004 30.647C34.146 31.285 33.112 31.747 31.902 32.033C30.714 32.341 29.372 32.528 27.876 32.594C26.38 32.682 24.752 32.715 22.992 32.693ZM21.408 24.872L20.55 21.605C21.32 21.407 21.947 21.231 22.431 21.077C22.937 20.923 23.311 20.769 23.553 20.615C23.795 20.461 23.916 20.307 23.916 20.153C23.916 19.955 23.817 19.746 23.619 19.526C23.421 19.306 23.201 19.053 22.959 18.767C22.717 18.481 22.497 18.162 22.299 17.81C22.101 17.458 22.002 17.051 22.002 16.589C22.002 16.039 22.156 15.522 22.464 15.038C22.772 14.532 23.267 14.048 23.949 13.586C24.653 13.102 25.577 12.629 26.721 12.167L28.14 15.104C27.216 15.478 26.589 15.808 26.259 16.094C25.951 16.358 25.797 16.611 25.797 16.853C25.797 17.051 25.896 17.282 26.094 17.546C26.292 17.81 26.512 18.107 26.754 18.437C27.018 18.745 27.249 19.097 27.447 19.493C27.645 19.867 27.744 20.274 27.744 20.714C27.744 21.066 27.667 21.429 27.513 21.803C27.381 22.177 27.095 22.54 26.655 22.892C26.237 23.244 25.61 23.585 24.774 23.915C23.938 24.245 22.816 24.564 21.408 24.872ZM22.992 32.693C20.616 32.693 18.603 32.506 16.953 32.132C15.325 31.78 13.994 31.274 12.96 30.614C11.948 29.932 11.211 29.14 10.749 28.238C10.287 27.336 10.056 26.346 10.056 25.268C10.056 24.564 10.111 23.86 10.221 23.156C10.353 22.43 10.507 21.726 10.683 21.044C10.881 20.362 11.057 19.746 11.211 19.196L15.336 20.153C15.248 20.549 15.149 20.978 15.039 21.44C14.929 21.902 14.841 22.353 14.775 22.793C14.709 23.211 14.676 23.596 14.676 23.948C14.676 24.762 14.962 25.488 15.534 26.126C16.128 26.742 17.096 27.226 18.438 27.578C19.78 27.908 21.584 28.073 23.85 28.073L24.51 31.637L22.992 32.693Z"
    fill="#515560"
  />
<path
    d="M41.1299 32.165L41.4599 27.545C42.7799 27.545 43.7919 27.479 44.4959 27.347C45.1999 27.215 45.6839 26.973 45.9479 26.621C46.2339 26.247 46.3769 25.719 46.3769 25.037C46.3769 24.421 46.2889 23.684 46.1129 22.826C45.9589 21.968 45.7499 21.077 45.4859 20.153C45.2439 19.229 44.9799 18.382 44.6939 17.612L49.2479 16.358C49.5339 17.106 49.8089 17.975 50.0729 18.965C50.3369 19.955 50.5569 20.978 50.7329 22.034C50.9089 23.068 50.9969 24.069 50.9969 25.037C50.9969 26.533 50.7549 27.754 50.2709 28.7C49.7869 29.624 49.1049 30.339 48.2249 30.845C47.3669 31.351 46.3329 31.703 45.1229 31.901C43.9129 32.077 42.5819 32.165 41.1299 32.165ZM49.2809 39.821C48.6429 39.821 48.0929 39.59 47.6309 39.128C47.1909 38.688 46.9709 38.16 46.9709 37.544C46.9709 36.906 47.1909 36.356 47.6309 35.894C48.0929 35.432 48.6429 35.201 49.2809 35.201C49.8969 35.201 50.4249 35.432 50.8649 35.894C51.3049 36.356 51.5249 36.906 51.5249 37.544C51.5249 38.16 51.3049 38.688 50.8649 39.128C50.4249 39.59 49.8969 39.821 49.2809 39.821ZM43.5719 39.821C42.9339 39.821 42.3839 39.59 41.9219 39.128C41.4819 38.688 41.2619 38.16 41.2619 37.544C41.2619 36.906 41.4819 36.356 41.9219 35.894C42.3839 35.432 42.9339 35.201 43.5719 35.201C44.1879 35.201 44.7159 35.432 45.1559 35.894C45.5959 36.356 45.8159 36.906 45.8159 37.544C45.8159 38.16 45.5959 38.688 45.1559 39.128C44.7159 39.59 44.1879 39.821 43.5719 39.821Z"
    fill="#515560"
  />
<path
    d="M55.6293 32L54.9363 7.84399H59.5563L60.2493 32H55.6293ZM55.4313 42.197L54.8703 39.887C55.6403 39.755 56.2123 39.645 56.5863 39.557C56.9823 39.469 57.4003 39.37 57.8403 39.26L57.5103 40.085C56.9383 39.887 56.3883 39.491 55.8603 38.897C55.3543 38.325 55.1013 37.665 55.1013 36.917C55.1013 36.125 55.2773 35.487 55.6293 35.003C55.9813 34.519 56.4323 34.167 56.9823 33.947C57.5323 33.727 58.1043 33.617 58.6983 33.617C59.0283 33.617 59.3363 33.639 59.6223 33.683C59.9303 33.727 60.2053 33.793 60.4473 33.881L60.1833 36.257C59.9633 36.213 59.7433 36.169 59.5233 36.125C59.3033 36.081 59.0613 36.059 58.7973 36.059C58.5113 36.059 58.2473 36.147 58.0053 36.323C57.7853 36.521 57.6753 36.752 57.6753 37.016C57.6753 37.39 57.8073 37.72 58.0713 38.006C58.3353 38.292 58.6433 38.512 58.9953 38.666C59.3693 38.842 59.6773 38.941 59.9193 38.963L58.1043 39.161C58.6983 39.007 59.2593 38.842 59.7873 38.666C60.3153 38.512 60.8103 38.347 61.2723 38.171L61.9323 40.382C61.3823 40.58 60.7333 40.789 59.9853 41.009C59.2593 41.251 58.5003 41.471 57.7083 41.669C56.9383 41.867 56.1793 42.043 55.4313 42.197Z"
    fill="#515560"
  />
<rect x="71" width="66" height="44" fill="#003399" />
<path
    fill-rule="evenodd"
    clip-rule="evenodd"
    d="M101.745 7.15L103.138 8.1675L102.607 9.82667L104 8.8L105.393 9.82667L104.862 8.1675L106.255 7.15H104.532L104 5.5L103.468 7.15H101.745ZM105.393 38.4995L104.862 36.8495L106.255 35.832H104.532L104 34.1729L103.468 35.832H101.745L103.138 36.8495L102.607 38.4995L104 37.482L105.393 38.4995ZM89.755 23.1002L88.3617 24.1269L88.8933 22.4769L87.5 21.4869H89.2233L89.755 19.8369L90.2867 21.4869H92.0192L90.6167 22.5136L91.1483 24.1636L89.755 23.1369V23.1002ZM98.2708 11.7331L97.7392 10.0831L99.1325 9.0748H97.4092L96.8775 7.4248L96.3458 9.0748H94.6225L96.0158 10.0923L95.4842 11.7423L96.8775 10.7248L98.2708 11.7331ZM91.1667 14.318L91.6983 12.668L92.2392 14.318H93.9167L92.5233 15.3446L93.055 16.9946L91.6525 15.968L90.25 16.9946L90.7817 15.3446L89.3883 14.318H91.1667ZM91.1667 28.6549H89.4067H89.3883L90.7817 29.6815L90.25 31.3316L91.6525 30.314L93.055 31.3316L92.5233 29.6815L93.9167 28.6549H92.2392L91.6983 27.0049L91.1667 28.6549ZM96.0158 34.9249L94.6225 33.9166H96.3458L96.8775 32.2666L97.4092 33.9166H99.1325L97.7392 34.9249L98.2708 36.5749L96.8775 35.5574L95.4842 36.5749L96.0158 34.9249ZM119.638 24.1636L119.107 22.5136L120.5 21.4869H118.813L118.282 19.8369L117.75 21.4869H115.963L117.365 22.5136L116.833 24.1636L118.245 23.1369L119.638 24.1636ZM110.261 10.0831L108.868 9.0748H110.591L111.123 7.4248L111.654 9.0748H113.378L111.984 10.0831L112.516 11.7331L111.123 10.7248L109.729 11.7423L110.261 10.0923V10.0831ZM116.302 12.6592L115.761 14.3092L114.083 14.3183L115.468 15.345L114.936 16.995L116.338 15.9683L117.732 16.995L117.2 15.345L118.557 14.3092H116.833L116.302 12.6592ZM116.879 28.6549H118.557L117.2 29.6815L117.732 31.3316L116.338 30.314L114.936 31.3316L115.468 29.6815L114.083 28.6549H115.807L116.348 27.0049L116.879 28.6549ZM111.984 34.9249L113.378 33.9166H111.654L111.123 32.2666L110.591 33.9166H108.868L110.261 34.9249L109.729 36.5749L111.123 35.5574L112.516 36.5749L111.984 34.9249Z"
    fill="#FFCC00"
  />
</svg>
