<svg
  width="137"
  height="44"
  viewBox="0 0 137 44"
  fill="none"
  xmlns="http://www.w3.org/2000/svg"
>
<path
    d="M78 38.1067V5H102.548V10.6006H84.6846V17.9401H101.306V23.5181H84.6846V32.5287H103.18V38.1067H78Z"
    fill="#515560"
  />
<path
    d="M108.803 5H115.488V22.9309C115.488 25.7764 115.571 27.6206 115.736 28.4637C116.022 29.8187 116.7 30.9102 117.769 31.7383C118.853 32.5513 120.328 32.9578 122.195 32.9578C124.092 32.9578 125.522 32.5739 126.486 31.806C127.449 31.0232 128.029 30.0671 128.225 28.938C128.42 27.8088 128.518 25.9344 128.518 23.3148V5H135.203V22.3889C135.203 26.3635 135.022 29.1713 134.661 30.8124C134.299 32.4534 133.629 33.8385 132.651 34.9677C131.687 36.0968 130.393 37.0001 128.767 37.6776C127.141 38.34 125.018 38.6713 122.398 38.6713C119.237 38.6713 116.835 38.3099 115.194 37.5873C113.568 36.8496 112.281 35.9011 111.333 34.7418C110.384 33.5675 109.759 32.3405 109.458 31.0608C109.022 29.1638 108.803 26.3635 108.803 22.6599V5Z"
    fill="#515560"
  />
<rect width="66" height="44" fill="#003399" />
<path
    fill-rule="evenodd"
    clip-rule="evenodd"
    d="M30.745 7.15L32.1383 8.1675L31.6067 9.82667L33 8.8L34.3933 9.82667L33.8617 8.1675L35.255 7.15H33.5317L33 5.5L32.4683 7.15H30.745ZM34.3933 38.5L33.8617 36.85L35.255 35.8325H33.5317L33 34.1733L32.4683 35.8325H30.745L32.1383 36.85L31.6067 38.5L33 37.4825L34.3933 38.5ZM18.755 23.1L17.3617 24.1267L17.8933 22.4767L16.5 21.4867H18.2233L18.755 19.8367L19.2867 21.4867H21.0192L19.6167 22.5133L20.1483 24.1633L18.755 23.1367V23.1ZM27.2708 11.7333L26.7392 10.0833L28.1325 9.075H26.4092L25.8775 7.425L25.3458 9.075H23.6225L25.0158 10.0925L24.4842 11.7425L25.8775 10.725L27.2708 11.7333ZM20.1667 14.3183L20.6983 12.6683L21.2392 14.3183H22.9167L21.5233 15.345L22.055 16.995L20.6525 15.9683L19.25 16.995L19.7817 15.345L18.3883 14.3183H20.1667ZM20.6983 27.005L20.1667 28.655H18.4067H18.3883L19.7817 29.6817L19.25 31.3317L20.6525 30.3142L22.055 31.3317L21.5233 29.6817L22.9167 28.655H21.2392L20.6983 27.005ZM25.0158 34.925L23.6225 33.9167H25.3458L25.8775 32.2667L26.4092 33.9167H28.1325L26.7392 34.925L27.2708 36.575L25.8775 35.5575L24.4842 36.575L25.0158 34.925ZM48.6383 24.1633L48.1067 22.5133L49.5 21.4867H47.8133L47.2817 19.8367L46.75 21.4867H44.9625L46.365 22.5133L45.8333 24.1633L47.245 23.1367L48.6383 24.1633ZM39.2608 10.0833L37.8675 9.075H39.5908L40.1225 7.425L40.6542 9.075H42.3775L40.9842 10.0833L41.5158 11.7333L40.1225 10.725L38.7292 11.7425L39.2608 10.0925V10.0833ZM45.3017 12.6592L44.7608 14.3092L43.0833 14.3183L44.4675 15.345L43.9358 16.995L45.3383 15.9683L46.7317 16.995L46.2 15.345L47.5567 14.3092H45.8333L45.3017 12.6592ZM45.8792 28.655H47.5567L46.2 29.6817L46.7317 31.3317L45.3383 30.3142L43.9358 31.3317L44.4675 29.6817L43.0833 28.655H44.8067L45.3475 27.005L45.8792 28.655ZM40.9842 34.925L42.3775 33.9167H40.6542L40.1225 32.2667L39.5908 33.9167H37.8675L39.2608 34.925L38.7292 36.575L40.1225 35.5575L41.5158 36.575L40.9842 34.925Z"
    fill="#FFCC00"
  />
</svg>
