<svg
  width="138"
  height="44"
  viewBox="0 0 138 44"
  fill="none"
  xmlns="http://www.w3.org/2000/svg"
>
<g id="Emblem type=condensed_version, Positive/Negative=positive, Language=TU">
<g id="EU/EU-emblem/condensed-version/positive/SV">
<g id="Flag">
<g id="EU_flag">
<rect
            id="&#240;&#159;&#140;&#136; flag"
            width="66"
            height="44"
            fill="#003399"
          />
<path
            id="&#240;&#159;&#140;&#136; stars"
            fill-rule="evenodd"
            clip-rule="evenodd"
            d="M30.745 7.15L32.1383 8.1675L31.6067 9.82667L33 8.8L34.3933 9.82667L33.8617 8.1675L35.255 7.15H33.5317L33 5.5L32.4683 7.15H30.745ZM34.3933 38.5L33.8617 36.85L35.255 35.8325H33.5317L33 34.1733L32.4683 35.8325H30.745L32.1383 36.85L31.6067 38.5L33 37.4825L34.3933 38.5ZM18.755 23.1L17.3617 24.1267L17.8933 22.4767L16.5 21.4867H18.2233L18.755 19.8367L19.2867 21.4867H21.0192L19.6167 22.5133L20.1483 24.1633L18.755 23.1367V23.1ZM27.2708 11.7333L26.7392 10.0833L28.1325 9.075H26.4092L25.8775 7.425L25.3458 9.075H23.6225L25.0158 10.0925L24.4842 11.7425L25.8775 10.725L27.2708 11.7333ZM20.1667 14.3183L20.6983 12.6683L21.2392 14.3183H22.9167L21.5233 15.345L22.055 16.995L20.6525 15.9683L19.25 16.995L19.7817 15.345L18.3883 14.3183H20.1667ZM20.6983 27.005L20.1667 28.655H18.4067H18.3883L19.7817 29.6817L19.25 31.3317L20.6525 30.3142L22.055 31.3317L21.5233 29.6817L22.9167 28.655H21.2392L20.6983 27.005ZM25.0158 34.925L23.6225 33.9167H25.3458L25.8775 32.2667L26.4092 33.9167H28.1325L26.7392 34.925L27.2708 36.575L25.8775 35.5575L24.4842 36.575L25.0158 34.925ZM48.6383 24.1633L48.1067 22.5133L49.5 21.4867H47.8133L47.2817 19.8367L46.75 21.4867H44.9625L46.365 22.5133L45.8333 24.1633L47.245 23.1367L48.6383 24.1633ZM39.2608 10.0833L37.8675 9.075H39.5908L40.1225 7.425L40.6542 9.075H42.3775L40.9842 10.0833L41.5158 11.7333L40.1225 10.725L38.7292 11.7425L39.2608 10.0925V10.0833ZM45.3017 12.6592L44.7608 14.3092L43.0833 14.3183L44.4675 15.345L43.9358 16.995L45.3383 15.9683L46.7317 16.995L46.2 15.345L47.5567 14.3092H45.8333L45.3017 12.6592ZM45.8792 28.655H47.5567L46.2 29.6817L46.7317 31.3317L45.3383 30.3142L43.9358 31.3317L44.4675 29.6817L43.0833 28.655H44.8067L45.3475 27.005L45.8792 28.655ZM40.9842 34.925L42.3775 33.9167H40.6542L40.1225 32.2667L39.5908 33.9167H37.8675L39.2608 34.925L38.7292 36.575L40.1225 35.5575L41.5158 36.575L40.9842 34.925Z"
            fill="#FFCC00"
          />
</g>
</g>
</g>
<g id="AB">
<path
        d="M106.04 38H98.8076L95.9326 30.5205H82.7705L80.0527 38H73L85.8252 5.07227H92.8555L106.04 38ZM93.7988 24.9727L89.2617 12.7539L84.8145 24.9727H93.7988Z"
        fill="#515560"
      />
<path
        d="M109.611 5.07227H122.773C125.379 5.07227 127.318 5.18457 128.591 5.40918C129.879 5.61882 131.024 6.06803 132.027 6.75684C133.046 7.44564 133.892 8.36654 134.565 9.51953C135.239 10.6576 135.576 11.9378 135.576 13.3604C135.576 14.9027 135.157 16.3177 134.318 17.6055C133.495 18.8932 132.372 19.859 130.949 20.5029C132.956 21.0869 134.498 22.0827 135.576 23.4902C136.654 24.8978 137.193 26.5524 137.193 28.4541C137.193 29.9515 136.841 31.4115 136.138 32.834C135.449 34.2415 134.498 35.3721 133.285 36.2256C132.087 37.0641 130.605 37.5807 128.838 37.7754C127.73 37.8952 125.057 37.9701 120.819 38H109.611V5.07227ZM116.26 10.5527V18.167H120.617C123.208 18.167 124.817 18.1296 125.446 18.0547C126.584 17.9199 127.475 17.5306 128.119 16.8867C128.778 16.2279 129.107 15.3669 129.107 14.3037C129.107 13.2855 128.823 12.4619 128.254 11.833C127.7 11.1891 126.869 10.7998 125.761 10.665C125.102 10.5902 123.208 10.5527 120.078 10.5527H116.26ZM116.26 23.6475V32.4521H122.414C124.81 32.4521 126.33 32.3848 126.974 32.25C127.962 32.0703 128.763 31.6361 129.377 30.9473C130.006 30.2435 130.32 29.3076 130.32 28.1396C130.32 27.1514 130.081 26.3128 129.602 25.624C129.122 24.9352 128.426 24.4336 127.513 24.1191C126.614 23.8047 124.653 23.6475 121.628 23.6475H116.26Z"
        fill="#515560"
      />
</g>
</g>
</svg>
