<svg
  width="291"
  height="72"
  viewBox="0 0 291 72"
  fill="none"
  xmlns="http://www.w3.org/2000/svg"
>
<path
    d="M86.9932 27.541H86.9369H28.567V66.1905H86.9369H86.9932V27.541Z"
    fill="#003399"
  />
<path
    d="M58.3093 33.3809H60.3442L58.703 34.6449L59.3421 36.6472L57.711 35.4135L56.08 36.6472L56.7191 34.6449L55.0676 33.3809H57.0975L57.711 31.4292L58.3093 33.3809Z"
    fill="#FFED00"
  />
<path
    d="M58.3808 59.1573H60.4158L58.7796 60.3759L59.4137 62.3023L57.7826 61.1141L56.1516 62.3023L56.7958 60.3759L55.1392 59.1573H57.1691L57.7826 57.2815L58.3808 59.1573Z"
    fill="#FFED00"
  />
<path
    d="M64.8283 57.4534H66.8684L65.2271 58.6669L65.8663 60.5933L64.2301 59.4051L62.5991 60.5933L63.2433 58.6669L61.5867 57.4534H63.6165L64.2301 55.5725L64.8283 57.4534Z"
    fill="#FFED00"
  />
<path
    d="M64.8283 35.1H66.8684L65.2271 36.3185L65.8663 38.2449L64.2301 37.0567L62.5991 38.2449L63.2433 36.3185L61.5867 35.1H63.6165L64.2301 33.2241L64.8283 35.1Z"
    fill="#FFED00"
  />
<path
    d="M69.6192 39.8377H71.6491L70.0129 41.0512L70.6469 42.9776L69.0159 41.7894L67.3848 42.9776L68.0291 41.0512L66.3724 39.8377H68.4023L69.0159 37.9568L69.6192 39.8377Z"
    fill="#FFED00"
  />
<path
    d="M69.6192 52.7814H71.6491L70.0129 53.9999L70.6469 55.9263L69.0159 54.7381L67.3848 55.9263L68.0291 53.9999L66.3724 52.7814H68.4023L69.0159 50.9055L69.6192 52.7814Z"
    fill="#FFED00"
  />
<path
    d="M71.4087 46.2084H73.4488L71.8076 47.4269L72.4467 49.3533L70.8105 48.1651L69.1795 49.3533L69.8237 47.4269L68.1671 46.2084H70.197L70.8105 44.3325L71.4087 46.2084Z"
    fill="#FFED00"
  />
<path
    d="M51.7391 35.1202H53.7689L52.1328 36.3336L52.7668 38.26L51.1357 37.0718L49.5047 38.26L50.1489 36.3336L48.4974 35.1202H50.5222L51.1357 33.2393L51.7391 35.1202Z"
    fill="#FFED00"
  />
<path
    d="M47.0811 39.8528H49.1212L47.4799 41.0663L48.1139 42.9927L46.4829 41.8045L44.8518 42.9927L45.4961 41.0663L43.8395 39.8528H45.8693L46.4829 37.9719L47.0811 39.8528Z"
    fill="#FFED00"
  />
<path
    d="M45.3529 46.2286H47.3879L45.7517 47.442L46.3857 49.3685L44.7547 48.1853L43.1237 49.3685L43.7679 47.442L42.1164 46.2286H44.1411L44.7547 44.3477L45.3529 46.2286Z"
    fill="#FFED00"
  />
<path
    d="M47.0811 52.7967H49.1212L47.4799 54.0153L48.1139 55.9417L46.4829 54.7535L44.8518 55.9417L45.4961 54.0153L43.8395 52.7967H45.8693L46.4829 50.9209L47.0811 52.7967Z"
    fill="#FFED00"
  />
<path
    d="M51.8055 57.4685H53.8354L52.1992 58.682L52.8332 60.6084L51.2022 59.4202L49.5711 60.6084L50.2154 58.682L48.5639 57.4685H50.5886L51.2022 55.5876L51.8055 57.4685Z"
    fill="#FFED00"
  />
<path
    d="M95.8693 0.00505726C95.8693 0.00505726 107.869 18.9101 110.068 22.3736C112.262 25.8371 114.772 28.5826 123.653 30.4433C132.535 32.304 136.4 33.1837 136.4 33.1837V33.8562C136.4 33.8562 130.755 32.668 123.495 31.0652C116.234 29.4624 113.264 28.9214 109.956 24.3657C107.2 20.5736 95.8693 3.61517 95.8693 3.61517V0V0.00505726Z"
    fill="#6D6E70"
  />
<path
    d="M95.8693 21.5949C95.8693 21.5949 106.796 32.9157 109.956 36.1668C113.31 39.6151 117.6 40.8893 123.551 41.941C129.232 42.9421 136.395 44.1 136.395 44.1V44.7371C136.395 44.7371 129.666 43.6449 123.551 42.6135C117.553 41.5972 113.356 41.0309 109.92 37.9011C106.842 35.1 95.8693 24.9219 95.8693 24.9219V21.5898V21.5949Z"
    fill="#6D6E70"
  />
<path
    d="M95.8693 26.6967C95.8693 26.6967 106.259 36.2377 109.956 39.499C113.356 42.4973 116.112 43.4327 123.587 44.7422C131.062 46.0518 136.395 46.8658 136.395 46.8658V47.5383C136.395 47.5383 129.63 46.4411 123.551 45.4804C117.472 44.5248 113.596 44.1456 109.956 41.2282C105.758 37.8608 95.8693 29.8113 95.8693 29.8113V26.6917V26.6967Z"
    fill="#6D6E70"
  />
<path
    d="M95.8693 32.1321C95.8693 32.1321 107.737 41.4456 109.956 43.0737C112.175 44.7018 115.109 46.6029 123.623 47.8214C132.064 49.0298 136.395 49.6265 136.395 49.6265V50.3343C136.395 50.3343 128.741 49.2371 123.623 48.6001C118.505 47.963 114.583 47.69 109.991 44.6664C105.523 41.7237 95.8693 35.004 95.8693 35.004V32.1321Z"
    fill="#6D6E70"
  />
<path
    d="M95.8693 37.3601C95.8693 37.3601 107.772 45.1972 110.027 46.441C112.282 47.6798 114.931 49.7022 123.623 50.7994C132.315 51.8966 136.395 52.3921 136.395 52.3921V53.0646C136.395 53.0646 129.206 52.286 123.587 51.6843C117.973 51.0826 114.143 50.2685 109.956 47.9983C105.768 45.7331 95.8693 40.0095 95.8693 40.0095V37.3601Z"
    fill="#6D6E70"
  />
<path
    d="M95.8693 42.5883C95.8693 42.5883 106.392 48.2512 109.956 50.0158C113.928 51.9878 117.364 52.9333 123.587 53.6664C129.697 54.3844 136.395 55.0821 136.395 55.0821V55.7192C136.395 55.7192 130.203 55.0619 123.587 54.4451C117.027 53.8282 114.69 53.5451 109.956 51.467C105.722 49.6063 95.8693 45.0658 95.8693 45.0658V42.5833V42.5883Z"
    fill="#6D6E70"
  />
<path
    d="M95.8693 47.8872C95.8693 47.8872 104.183 51.4063 110.027 53.7018C115.774 55.9569 120.166 56.149 123.658 56.5383C125.197 56.7102 136.395 57.8479 136.395 57.8479V58.485C136.395 58.485 129.707 57.9541 123.623 57.4232C117.538 56.8923 114.915 56.6647 109.991 55.0518C105.006 53.4136 95.8693 50.2636 95.8693 50.2636V47.8923V47.8872Z"
    fill="#6D6E70"
  />
<path
    d="M95.8693 53.2922C95.8693 53.2922 104.265 55.8658 109.991 57.3524C115.718 58.8389 120.974 59.4456 123.623 59.6175C126.271 59.7945 136.4 60.6085 136.4 60.6085V61.2102C136.4 61.2102 130.638 60.8209 123.587 60.3254C117.886 59.9259 113.31 59.5012 109.956 58.7681C106.244 57.9591 95.8693 55.522 95.8693 55.522V53.2922Z"
    fill="#6D6E70"
  />
<path
    d="M95.8693 58.6062C95.8693 58.6062 102.736 59.7792 109.991 60.9674C115.432 61.8573 122.799 62.4186 123.587 62.454C124.374 62.4893 136.395 63.3034 136.395 63.3034V63.9405C136.395 63.9405 128.7 63.5461 123.587 63.268C118.259 62.9747 112.962 62.6562 109.956 62.3478C103.217 61.6551 95.8693 60.7349 95.8693 60.7349V58.6062Z"
    fill="#6D6E70"
  />
<path
    d="M95.8693 64.1074C95.8693 64.1074 106.699 64.5119 109.991 64.5827C113.284 64.6535 136.395 65.5737 136.395 65.5737V66.1956H95.8693V64.1074Z"
    fill="#6D6E70"
  />
<path
    d="M123.582 33.3656C113.78 31.2774 111.561 27.733 109.915 25.5386C108.268 23.3392 95.8642 5.41504 95.8642 5.41504V8.71167C96.355 9.34369 106.97 23.8347 109.95 27.6269C113.31 31.8993 118.571 32.8701 123.582 33.9319C128.587 34.9937 136.395 36.4752 136.395 36.4752V35.9089C136.395 35.9089 126.118 33.9016 123.582 33.3656Z"
    fill="#6D6E70"
  />
<path
    d="M123.582 36.2022C115.534 34.6449 112.277 32.127 109.915 29.0831C107.552 26.0343 95.8642 10.446 95.8642 10.446V14.2786C96.355 14.85 107.046 27.7534 109.915 30.9994C113.259 34.7865 117.927 35.7826 123.582 36.809C129.237 37.8354 136.39 39.1803 136.39 39.1803V38.614C136.39 38.614 128.224 37.1022 123.582 36.2073V36.2022Z"
    fill="#6D6E70"
  />
<path
    d="M123.582 39.1399C115.212 37.5321 113.494 36.2124 109.95 32.3748C107.721 29.963 96.3448 16.6804 95.8642 16.1191V19.6585C95.8642 19.6585 106.494 30.8731 109.915 34.1849C114.399 38.5332 118.607 38.8619 123.582 39.7467C128.557 40.6315 136.39 42.0473 136.39 42.0473V41.4456C136.39 41.4456 126.931 39.7871 123.582 39.145V39.1399Z"
    fill="#6D6E70"
  />
<path
    d="M0.782944 27.7788C0.782944 27.7788 28.4954 24.8563 36.2569 23.7793C48.5281 22.0805 58.57 20.2703 67.8603 6.18887C67.8603 6.18887 67.8705 5.38999 67.8603 5.03101C62.1696 13.5911 54.3211 19.431 43.5122 21.1248C32.9539 22.7833 0.777832 25.2052 0.777832 25.2052V27.7788H0.782944Z"
    fill="#6D6E70"
  />
<path
    d="M0.777832 24.2849C0.777832 24.2849 26.4604 21.1046 34.9224 19.9315C48.3082 18.081 57.7212 16.4175 67.8552 1.05681C67.8552 1.05681 67.8603 0.394453 67.8552 0.00512695C61.648 9.3439 53.9836 15.3759 42.1931 17.2265C30.6735 19.0366 0.777832 21.6759 0.777832 21.6759V24.29V24.2849Z"
    fill="#6D6E70"
  />
<path d="M26.9973 64.1326H0.793167V66.1854H26.9973V64.1326Z" fill="#6D6E70" />
<path
    d="M67.8552 22.5708C67.8552 22.5708 67.8705 21.3624 67.8654 21.1045C66.6332 22.9601 65.0124 24.6438 63.141 26.1253H64.9766C66.0094 25.0736 66.9758 23.8955 67.8501 22.5708H67.8552Z"
    fill="#6D6E70"
  />
<path
    d="M67.8552 17.11C67.8552 17.11 67.8654 16.0381 67.8603 15.7449C64.8897 20.2145 60.4669 23.7842 55.3539 26.1505L58.3706 26.1404C61.8577 24.1331 65.0993 21.2814 67.8501 17.11H67.8552Z"
    fill="#6D6E70"
  />
<path
    d="M67.8552 11.6494C67.8552 11.6494 67.8654 10.714 67.8552 10.3904C62.686 18.1718 54.6483 23.496 44.8212 25.0381C42.4948 25.4022 38.706 25.8067 34.3037 26.2162L46.3039 26.1758C54.224 24.4314 61.6378 21.0589 67.845 11.6494H67.8552Z"
    fill="#6D6E70"
  />
<path
    d="M27.0024 60.6743C13.6319 60.7451 0.793167 60.8007 0.793167 60.8007V62.9395C0.793167 62.9395 14.2403 62.8434 27.0024 62.7372V60.6743Z"
    fill="#6D6E70"
  />
<path
    d="M27.0024 57.0034C13.7239 57.15 0.788055 57.2613 0.788055 57.2613V59.4456C0.788055 59.4456 14.3733 59.2686 27.0024 59.0714V57.0034Z"
    fill="#6D6E70"
  />
<path
    d="M26.9973 53.3225C13.816 53.55 0.788055 53.722 0.788055 53.722V55.9517C0.788055 55.9517 14.5164 55.6837 26.9973 55.3905V53.3225Z"
    fill="#6D6E70"
  />
<path
    d="M27.0024 49.6213C13.9182 49.9398 0.788055 50.1774 0.788055 50.1774V52.4477C0.788055 52.4477 14.6749 52.0735 27.0024 51.6842V49.6162V49.6213Z"
    fill="#6D6E70"
  />
<path
    d="M27.0075 45.9102C14.0205 46.3197 0.788055 46.6433 0.788055 46.6433V48.959C0.788055 48.959 14.8437 48.4736 27.0075 47.9781V45.9152V45.9102Z"
    fill="#6D6E70"
  />
<path
    d="M27.0024 42.1838C14.1176 42.6995 0.788055 43.104 0.788055 43.104V45.4602C0.788055 45.4602 15.0175 44.8433 27.0024 44.2315V42.1787V42.1838Z"
    fill="#6D6E70"
  />
<path
    d="M27.0075 38.4321C14.2199 39.0591 0.782944 39.5597 0.782944 39.5597V41.9613C0.782944 41.9613 15.2016 41.1979 27.0075 40.4647V38.4321Z"
    fill="#6D6E70"
  />
<path
    d="M27.0075 34.6602C14.317 35.4085 0.782944 36.0203 0.782944 36.0203V38.4624C0.782944 38.4624 15.3959 37.5321 27.0075 36.6725V34.6602Z"
    fill="#6D6E70"
  />
<path
    d="M27.0075 30.8679C14.404 31.7477 0.782944 32.4859 0.782944 32.4859V34.9735C0.782944 34.9735 15.5902 33.8511 27.0075 32.8601V30.873V30.8679Z"
    fill="#6D6E70"
  />
<path
    d="M27.0075 27.0405C14.4807 28.0669 0.777832 28.9416 0.777832 28.9416V31.4697C0.777832 31.4697 15.7845 30.1248 27.0075 28.9922V27.0405Z"
    fill="#6D6E70"
  />
<path d="M231.521 66.1969V27.3577H228.205V66.1969H231.521Z" fill="#003399" />
<path
    d="M145.394 33.4107C145.394 33.1615 145.511 33.0242 145.781 33.0242H152.891C153.125 33.0242 153.258 33.1615 153.258 33.3904V34.5908C153.258 34.8247 153.161 34.9366 152.871 34.9366H147.596V38.2631H152.271C152.52 38.2631 152.657 38.3801 152.657 38.609V39.8093C152.657 40.0433 152.561 40.1552 152.271 40.1552H147.596V43.9598H153.008C153.242 43.9598 153.354 44.0768 153.354 44.326V45.506C153.354 45.7553 153.258 45.8519 152.988 45.8519H145.781C145.511 45.8519 145.394 45.7349 145.394 45.506V33.4107Z"
    fill="#58595B"
  />
<path
    d="M159.117 43.4763C159.138 43.3237 159.85 41.1773 159.85 41.1773L161.396 36.6911C161.472 36.4775 161.549 36.3809 161.839 36.3809H163.308C163.598 36.3809 163.639 36.5182 163.542 36.7471L160.257 45.4447C160.16 45.7346 160.023 45.8516 159.718 45.8516H158.426C158.08 45.8516 157.983 45.7346 157.886 45.4651L154.601 36.7674C154.524 36.5538 154.56 36.3809 154.814 36.3809H156.34C156.61 36.3809 156.706 36.4368 156.803 36.7267L158.349 41.2485C158.349 41.2485 159.005 43.2983 159.066 43.4712H159.117V43.4763Z"
    fill="#58595B"
  />
<path
    d="M167.388 45.4853C167.388 45.7192 167.291 45.8515 167.021 45.8515H165.628C165.358 45.8515 165.262 45.7345 165.262 45.4853V36.7673C165.262 36.5181 165.358 36.3807 165.628 36.3807H167.001C167.291 36.3807 167.388 36.5333 167.388 36.7673V37.6167L167.428 37.6574C168.008 37.1182 169.382 36.457 170.287 36.2841C170.536 36.2281 170.714 36.2841 170.75 36.6147L170.887 37.9117C170.907 38.1813 170.928 38.2983 170.521 38.3746C169.437 38.5882 168.064 38.9748 167.388 39.2647V45.4853Z"
    fill="#58595B"
  />
<path
    d="M175.892 46.0095C172.006 46.0095 171.757 43.1713 171.757 40.9639C171.757 39.148 172.164 36.1929 175.892 36.1929C179.64 36.1929 180.164 38.6852 180.164 40.9639C180.164 43.1662 179.89 46.0095 175.892 46.0095ZM175.912 38.0494C174.269 38.0494 173.903 39.0921 173.903 41.1012C173.903 43.151 174.269 44.153 175.892 44.153C177.652 44.153 177.998 43.1662 177.998 41.1012C177.998 39.0514 177.672 38.0494 175.912 38.0494Z"
    fill="#58595B"
  />
<path
    d="M186.563 46.0297C185.927 46.0297 185.037 45.9127 184.147 45.6024L184.127 45.6228V49.0255C184.127 49.2392 184.071 49.4121 183.76 49.4121H182.387C182.077 49.4121 182.021 49.2748 182.021 49.0255V36.7726C182.021 36.5233 182.117 36.386 182.387 36.386H183.76C184.03 36.386 184.106 36.5386 184.106 36.7726V37.3524L184.162 37.3931C184.859 36.9099 186.095 36.2334 187.214 36.2334C189.747 36.2334 190.403 38.1459 190.403 41.0654C190.408 44.2139 189.615 46.0297 186.563 46.0297ZM186.716 38.1611C185.922 38.1611 184.706 38.7206 184.127 39.0309V43.8629C184.996 44.1121 185.693 44.1935 186.349 44.1935C187.743 44.1935 188.226 43.4763 188.226 41.0451C188.221 38.5884 187.738 38.1611 186.716 38.1611Z"
    fill="#58595B"
  />
<path
    d="M195.296 46.0095C194.33 46.0095 193.033 45.8722 192.301 45.5822C191.914 45.4297 191.838 45.2516 191.894 44.9465L192.031 44.3107C192.087 44.0004 192.224 43.98 192.535 44.0207C193.384 44.1581 194.62 44.2547 195.281 44.2547C196.517 44.2547 197.021 43.9241 197.021 43.151C197.021 42.2609 196.69 42.0676 195.474 41.8947C193.582 41.6251 191.919 41.2182 191.919 39.1124C191.919 37.2 193.389 36.1929 195.551 36.1929C196.344 36.1929 197.677 36.3099 198.491 36.6201C198.821 36.7575 198.954 36.91 198.898 37.2L198.745 37.8968C198.689 38.1664 198.572 38.2071 198.221 38.1664C197.392 38.0697 196.309 37.9527 195.591 37.9527C194.355 37.9527 194.066 38.2986 194.066 39.0361C194.066 39.7889 194.528 39.8856 195.708 40.0788C197.545 40.3484 199.208 40.7146 199.208 43.0187C199.203 45.2771 197.29 46.0095 195.296 46.0095Z"
    fill="#58595B"
  />
<path
    d="M203.2 39.8805L204.691 38.3139L206.293 36.6914C206.486 36.4981 206.624 36.3608 206.99 36.3608H208.536C208.902 36.3608 208.963 36.5744 208.75 36.8033L205.657 39.9517L209.136 45.3992C209.273 45.6332 209.156 45.8417 208.887 45.8417H207.397C206.99 45.8417 206.857 45.7044 206.72 45.4755L204.248 41.5132L203.144 42.6322V45.4704C203.144 45.684 203.068 45.8366 202.778 45.8366H201.405C201.135 45.8366 201.039 45.7196 201.039 45.4704V32.5816C201.039 32.3324 201.135 32.1951 201.405 32.1951H202.778C203.068 32.1951 203.144 32.3477 203.144 32.5816V39.85L203.2 39.8805Z"
    fill="#58595B"
  />
<path
    d="M216.308 44.7531C215.342 45.4855 214.045 46.0094 212.753 46.0094C210.703 46.0094 210.103 44.8904 210.103 43.2679C210.082 41.0045 211.303 40.0381 213.734 40.0381H216.206V39.5345C216.206 38.3748 215.779 37.9679 214.197 37.9679C213.562 37.9679 212.341 38.0646 211.568 38.1409C211.181 38.1968 211.084 38.1815 211.029 37.9069L210.856 37.1897C210.815 36.9405 210.876 36.7828 211.298 36.6099C212.127 36.32 213.658 36.1826 214.564 36.1826C217.905 36.1826 218.312 37.5559 218.312 39.7176V43.4459C218.312 44.2394 218.409 44.2597 219.009 44.336C219.299 44.3564 219.375 44.4123 219.375 44.6259V45.4398C219.375 45.6534 219.238 45.7856 218.912 45.8467C218.602 45.9026 218.292 45.9433 218.002 45.9433C217.091 45.9433 216.532 45.6737 216.339 44.7633L216.308 44.7531ZM216.191 41.5436H213.831C212.865 41.5436 212.244 41.8895 212.244 43.1662C212.244 44.0156 212.534 44.2852 213.445 44.2852C214.274 44.2852 215.454 43.8019 216.191 43.3747V41.5436Z"
    fill="#58595B"
  />
<path
    d="M147.571 60.2255L149.062 58.6589L150.664 57.0364C150.857 56.8431 150.994 56.7057 151.361 56.7057H152.907C153.273 56.7057 153.334 56.9194 153.121 57.1483L150.028 60.2967L153.507 65.7442C153.644 65.9781 153.527 66.1867 153.258 66.1867H151.773C151.366 66.1867 151.234 66.0493 151.096 65.8205L148.624 61.8582L147.52 62.9772V65.8154C147.52 66.029 147.444 66.1816 147.154 66.1816H145.781C145.511 66.1816 145.415 66.0646 145.415 65.8154V52.9266C145.415 52.6774 145.511 52.54 145.781 52.54H147.154C147.444 52.54 147.52 52.6926 147.52 52.9266V60.195L147.571 60.2255Z"
    fill="#58595B"
  />
<path
    d="M158.456 66.355C154.57 66.355 154.321 63.5168 154.321 61.3093C154.321 59.4935 154.728 56.5383 158.456 56.5383C162.205 56.5383 162.729 59.0306 162.729 61.3093C162.723 63.5117 162.454 66.355 158.456 66.355ZM158.476 58.3948C156.834 58.3948 156.467 59.4375 156.467 61.4466C156.467 63.4964 156.834 64.4985 158.456 64.4985C160.216 64.4985 160.562 63.5117 160.562 61.4466C160.562 59.3969 160.231 58.3948 158.476 58.3948Z"
    fill="#58595B"
  />
<path
    d="M178.11 66.1969H176.716C176.446 66.1969 176.35 66.0799 176.35 65.8307V60.3425C176.35 58.9133 176.004 58.5064 175.038 58.5064C174.32 58.5064 173.161 59.0659 172.566 59.3761C172.566 59.5694 172.586 59.9153 172.586 60.3629V65.8307C172.586 66.0647 172.51 66.1969 172.22 66.1969H170.811C170.562 66.1969 170.48 66.0799 170.48 65.8307V60.2459C170.48 59.0659 170.17 58.5064 169.203 58.5064C168.527 58.5064 167.444 58.9896 166.711 59.3761V65.8307C166.711 66.0647 166.615 66.1969 166.345 66.1969H164.951C164.702 66.1969 164.605 66.0799 164.605 65.8307V57.1127C164.605 56.8635 164.702 56.7262 164.951 56.7262H166.325C166.615 56.7262 166.711 56.8788 166.711 57.1127V57.6722L166.732 57.6926C167.484 57.1687 168.547 56.5888 169.61 56.5532C170.729 56.5532 171.66 56.7872 172.26 57.9062C173.227 57.189 174.422 56.5532 175.663 56.5532C178.216 56.5532 178.466 58.2165 178.466 60.1493V65.8307C178.461 66.0647 178.379 66.1969 178.11 66.1969Z"
    fill="#58595B"
  />
<path
    d="M181.899 55.3377C180.892 55.3377 180.76 54.7782 180.76 54.2187C180.76 53.5982 180.973 53.115 181.899 53.115C182.845 53.115 183.038 53.5575 183.038 54.2187C183.038 54.8189 182.865 55.3377 181.899 55.3377ZM182.926 65.8308C182.926 66.0445 182.85 66.197 182.581 66.197H181.207C180.938 66.197 180.821 66.0801 180.821 65.8308V57.0976C180.821 56.828 180.938 56.7314 181.207 56.7314H182.581C182.85 56.7314 182.926 56.884 182.926 57.0976V65.8308Z"
    fill="#58595B"
  />
<path
    d="M188.491 66.355C187.524 66.355 186.227 66.2176 185.495 65.9277C185.108 65.7751 185.032 65.5971 185.088 65.2919L185.225 64.6561C185.281 64.3459 185.419 64.3255 185.729 64.3662C186.578 64.5035 187.814 64.6002 188.476 64.6002C189.712 64.6002 190.215 64.2696 190.215 63.4964C190.215 62.6063 189.884 62.4131 188.669 62.2401C186.777 61.9705 185.113 61.5636 185.113 59.4579C185.113 57.5454 186.583 56.5383 188.745 56.5383C189.539 56.5383 190.871 56.6553 191.685 56.9656C192.016 57.1029 192.148 57.2555 192.092 57.5454L191.939 58.2423C191.883 58.5118 191.766 58.5525 191.415 58.5118C190.586 58.4152 189.503 58.2982 188.786 58.2982C187.55 58.2982 187.26 58.6441 187.26 59.3816C187.26 60.1344 187.723 60.231 188.903 60.4243C190.739 60.6939 192.402 61.0601 192.402 63.3642C192.392 65.6225 190.48 66.355 188.491 66.355Z"
    fill="#58595B"
  />
<path
    d="M195.546 55.3377C194.538 55.3377 194.406 54.7782 194.406 54.2187C194.406 53.5982 194.62 53.115 195.546 53.115C196.492 53.115 196.685 53.5575 196.685 54.2187C196.685 54.8189 196.512 55.3377 195.546 55.3377ZM196.568 65.8308C196.568 66.0445 196.492 66.197 196.222 66.197H194.849C194.579 66.197 194.462 66.0801 194.462 65.8308V57.0976C194.462 56.828 194.579 56.7314 194.849 56.7314H196.222C196.492 56.7314 196.568 56.884 196.568 57.0976V65.8308Z"
    fill="#58595B"
  />
<path
    d="M201.634 66.4107C201.634 68.9233 200.571 70.3322 197.326 70.2152C197.188 70.2152 196.919 70.139 196.898 69.8287L196.822 68.9182C196.781 68.608 196.863 68.552 197.132 68.491C198.948 68.1248 199.508 67.9518 199.508 66.4412V57.0874C199.508 56.8178 199.625 56.7212 199.894 56.7212H201.247C201.537 56.7212 201.634 56.8738 201.634 57.0874V66.4107ZM200.571 55.3377C199.564 55.3377 199.431 54.7782 199.431 54.2187C199.431 53.5982 199.665 53.115 200.571 53.115C201.517 53.115 201.71 53.5575 201.71 54.2187C201.71 54.8189 201.537 55.3377 200.571 55.3377Z"
    fill="#58595B"
  />
<path
    d="M210.021 65.0988C209.055 65.8312 207.758 66.3551 206.466 66.3551C204.416 66.3551 203.816 65.2361 203.816 63.6136C203.796 61.3502 205.016 60.3838 207.448 60.3838H209.92V59.8802C209.92 58.7205 209.492 58.3136 207.911 58.3136C207.275 58.3136 206.054 58.4103 205.281 58.4866C204.894 58.5425 204.798 58.5273 204.742 58.2526L204.569 57.5354C204.528 57.2862 204.589 57.1285 205.011 56.9556C205.84 56.6656 207.371 56.5283 208.277 56.5283C211.619 56.5283 212.025 57.9016 212.025 60.0633V63.7916C212.025 64.5851 212.122 64.6054 212.722 64.6817C213.012 64.7021 213.088 64.758 213.088 64.9716V65.7855C213.088 65.9991 212.951 66.1313 212.626 66.1924C212.315 66.2483 212.005 66.289 211.715 66.289C210.805 66.289 210.245 66.0194 210.052 65.109L210.021 65.0988ZM209.904 61.8893H207.544C206.578 61.8893 205.957 62.2352 205.957 63.5119C205.957 64.3613 206.247 64.6308 207.158 64.6308C207.987 64.6308 209.167 64.1477 209.904 63.7204V61.8893Z"
    fill="#58595B"
  />
</svg>
