<svg
  width="291"
  height="72"
  viewBox="0 0 291 72"
  fill="none"
  xmlns="http://www.w3.org/2000/svg"
>
<path
    d="M159.412 42.2988H162.164C161.949 43.7178 161.605 45.2228 161.261 46.2548L162.444 46.8783C163.046 45.4163 163.583 43.1158 163.906 41.1378L162.852 40.7293L162.573 40.8153H156.875C157.133 39.6543 157.348 38.4503 157.542 37.2248L155.929 36.9883C155.499 40.4068 154.704 43.7608 153.306 45.8893C153.693 46.1043 154.36 46.6203 154.639 46.8998C155.392 45.6528 155.994 44.0618 156.488 42.2988H157.864V45.3303C157.886 46.7923 157.37 50.7698 154.51 53.6723V52.4898H146.942V39.8693H154.317V38.3858H145.394V55.5858H146.942V53.9733H154.209C153.693 54.4463 153.113 54.8763 152.468 55.2633C152.747 55.5643 153.22 56.2093 153.392 56.5533C157.069 54.2958 158.38 50.3613 158.638 48.5553C158.875 50.2968 160.079 54.4033 163.261 56.5318C163.476 56.1663 163.97 55.5213 164.25 55.1773C160.1 52.4898 159.391 47.0288 159.412 45.3303V42.2988ZM151.651 40.5143C151.35 42.0193 150.963 43.4598 150.49 44.8143C149.694 43.9543 148.856 43.1373 148.06 42.4063L147.114 43.3953C148.039 44.2553 149.028 45.2873 149.931 46.3193C149.178 48.0823 148.254 49.6303 147.157 50.8343C147.48 51.0708 148.103 51.5653 148.361 51.8233C149.372 50.6408 150.232 49.2003 150.963 47.5663C151.823 48.6198 152.532 49.6518 152.984 50.4903L154.037 49.3293C153.5 48.3833 152.618 47.2223 151.608 46.0398C152.21 44.4058 152.726 42.6213 153.113 40.7723L151.651 40.5143Z"
    fill="#626366"
  />
<path
    d="M170.205 37.3753V43.9973C170.205 47.9318 169.84 52.1888 166.378 55.3923C166.722 55.6718 167.281 56.2093 167.539 56.5963C171.345 53.0703 171.775 48.3833 171.775 43.9973V37.3753H170.205ZM176.29 37.8268V55.1558H177.859V37.8268H176.29ZM182.654 37.2893V56.3598H184.245V37.2893H182.654ZM167.797 42.2558C167.475 44.1478 166.765 46.4268 165.798 47.9103L167.152 48.5123C168.141 47.0073 168.765 44.5563 169.152 42.6428L167.797 42.2558ZM172.312 43.1373C173.065 44.8573 173.731 47.1363 173.925 48.5338L175.322 47.9318C175.107 46.5558 174.376 44.3413 173.624 42.6213L172.312 43.1373ZM178.354 43.0298C179.321 44.7068 180.31 46.9643 180.676 48.3618L182.03 47.6523C181.643 46.2763 180.59 44.0833 179.579 42.4278L178.354 43.0298Z"
    fill="#626366"
  />
<path
    d="M200.757 49.9958C200.133 51.1568 199.273 52.0813 198.134 52.8123C196.543 52.4253 194.866 52.0598 193.21 51.7588C193.619 51.1998 194.027 50.5978 194.436 49.9958H200.757ZM196.5 47.0073H198.048V42.8148C200.069 44.8788 203.272 46.6633 206.175 47.5448C206.368 47.1363 206.841 46.5558 207.185 46.2118C204.627 45.5668 201.81 44.2553 199.918 42.7073H206.734V41.3958H198.048V39.1168C200.499 38.8803 202.799 38.5793 204.584 38.1708L203.401 37.0313C200.241 37.7408 194.264 38.1923 189.362 38.3213C189.491 38.6438 189.684 39.2243 189.706 39.5683C191.856 39.5253 194.221 39.4178 196.5 39.2458V41.3958H187.878V42.7073H194.694C192.78 44.3413 189.964 45.7603 187.405 46.4483C187.728 46.7493 188.179 47.3083 188.373 47.6953C191.275 46.7923 194.5 44.9433 196.5 42.8148V46.7493L194.973 46.3408C194.543 47.0503 194.049 47.8243 193.511 48.6198H187.642V49.9958H192.587C191.813 51.1138 191.039 52.1888 190.415 53.0273L191.899 53.5433L192.35 52.9413C193.662 53.1993 194.952 53.4788 196.199 53.7798C194.113 54.5968 191.383 55.0268 187.943 55.2203C188.222 55.5858 188.459 56.1878 188.566 56.6393C192.823 56.2953 196.07 55.6288 198.456 54.3388C201.165 55.0698 203.595 55.8653 205.401 56.6178L206.368 55.3063C204.713 54.6398 202.498 53.9518 200.047 53.2853C201.122 52.4038 201.939 51.3288 202.541 49.9958H207.013V48.6198H195.36C195.769 48.0178 196.156 47.4373 196.5 46.8783V47.0073Z"
    fill="#626366"
  />
<path
    d="M223.955 41.3528H213.786V39.1168H223.955V41.3528ZM225.611 37.8268H212.195V42.6428H225.611V37.8268ZM212.883 50.3398H224.815V51.8878H212.883V50.3398ZM212.883 47.6953H224.815V49.2003H212.883V47.6953ZM212.883 45.0508H224.815V46.5558H212.883V45.0508ZM226.449 53.0703V43.8683H211.292V53.0703H215.312C213.979 53.9518 211.206 54.9408 208.97 55.4568C209.357 55.7793 209.873 56.3168 210.152 56.6393C212.345 56.0803 215.119 55.0483 216.839 53.9948L215.398 53.0703H226.449ZM220.558 54.1453C222.816 54.8118 225.697 55.9083 227.309 56.6608L228.685 55.4998C227.008 54.8118 224.149 53.7583 221.934 53.1133L220.558 54.1453Z"
    fill="#626366"
  />
<path
    d="M231.545 49.2003H237.199C236.619 50.7698 235.694 52.7263 234.877 54.2098C233.716 54.2528 232.641 54.2743 231.717 54.2958L231.932 55.8653C235.608 55.7363 241.177 55.4998 246.444 55.2418C246.853 55.7578 247.175 56.2523 247.433 56.6823L248.874 55.8008C247.885 54.2098 245.799 51.8878 243.821 50.1893L242.467 50.9203C243.413 51.7588 244.423 52.8123 245.305 53.8228C242.295 53.9518 239.263 54.0593 236.597 54.1453C237.457 52.6403 238.382 50.7913 239.134 49.2003H249.218V47.7168H231.545V49.2003ZM235.2 43.6318V45.0938H245.369V43.6318H235.2ZM239.328 37.0313C237.672 39.7618 234.103 42.8578 230.427 44.6208C230.771 44.9433 231.179 45.5238 231.351 45.8893C235.006 44.0833 238.489 41.1378 240.231 38.5578C242.23 41.3313 245.993 44.1908 249.304 45.8033C249.583 45.3303 249.97 44.7713 250.336 44.3843C246.96 42.9868 243.219 40.1918 240.962 37.0313H239.328Z"
    fill="#626366"
  />
<path
    fill-rule="evenodd"
    clip-rule="evenodd"
    d="M257.336 66.1854H260.636V27.4854H257.336V66.1854Z"
    fill="#004494"
  />
<path
    d="M86.9932 27.541H86.9369H28.567V66.1905H86.9369H86.9932V27.541Z"
    fill="#003399"
  />
<path
    d="M58.3093 33.3809H60.3442L58.703 34.6449L59.3421 36.6472L57.711 35.4135L56.08 36.6472L56.7191 34.6449L55.0676 33.3809H57.0975L57.711 31.4292L58.3093 33.3809Z"
    fill="#FFED00"
  />
<path
    d="M58.3808 59.1573H60.4158L58.7796 60.3759L59.4137 62.3023L57.7826 61.1141L56.1516 62.3023L56.7958 60.3759L55.1392 59.1573H57.1691L57.7826 57.2815L58.3808 59.1573Z"
    fill="#FFED00"
  />
<path
    d="M64.8283 57.4534H66.8684L65.2271 58.6669L65.8663 60.5933L64.2301 59.4051L62.5991 60.5933L63.2433 58.6669L61.5867 57.4534H63.6165L64.2301 55.5725L64.8283 57.4534Z"
    fill="#FFED00"
  />
<path
    d="M64.8283 35.1H66.8684L65.2271 36.3185L65.8663 38.2449L64.2301 37.0567L62.5991 38.2449L63.2433 36.3185L61.5867 35.1H63.6165L64.2301 33.2241L64.8283 35.1Z"
    fill="#FFED00"
  />
<path
    d="M69.6192 39.8377H71.6491L70.0129 41.0512L70.6469 42.9776L69.0159 41.7894L67.3848 42.9776L68.0291 41.0512L66.3724 39.8377H68.4023L69.0159 37.9568L69.6192 39.8377Z"
    fill="#FFED00"
  />
<path
    d="M69.6192 52.7814H71.6491L70.0129 53.9999L70.6469 55.9263L69.0159 54.7381L67.3848 55.9263L68.0291 53.9999L66.3724 52.7814H68.4023L69.0159 50.9055L69.6192 52.7814Z"
    fill="#FFED00"
  />
<path
    d="M71.4087 46.2084H73.4488L71.8076 47.4269L72.4467 49.3533L70.8105 48.1651L69.1795 49.3533L69.8237 47.4269L68.1671 46.2084H70.197L70.8105 44.3325L71.4087 46.2084Z"
    fill="#FFED00"
  />
<path
    d="M51.7391 35.1202H53.7689L52.1328 36.3336L52.7668 38.26L51.1357 37.0718L49.5047 38.26L50.1489 36.3336L48.4974 35.1202H50.5222L51.1357 33.2393L51.7391 35.1202Z"
    fill="#FFED00"
  />
<path
    d="M47.0811 39.8528H49.1212L47.4799 41.0663L48.1139 42.9927L46.4829 41.8045L44.8518 42.9927L45.4961 41.0663L43.8395 39.8528H45.8693L46.4829 37.9719L47.0811 39.8528Z"
    fill="#FFED00"
  />
<path
    d="M45.3529 46.2286H47.3879L45.7517 47.442L46.3857 49.3685L44.7547 48.1853L43.1237 49.3685L43.7679 47.442L42.1164 46.2286H44.1411L44.7547 44.3477L45.3529 46.2286Z"
    fill="#FFED00"
  />
<path
    d="M47.0811 52.7967H49.1212L47.4799 54.0153L48.1139 55.9417L46.4829 54.7535L44.8518 55.9417L45.4961 54.0153L43.8395 52.7967H45.8693L46.4829 50.9209L47.0811 52.7967Z"
    fill="#FFED00"
  />
<path
    d="M51.8055 57.4685H53.8354L52.1992 58.682L52.8332 60.6084L51.2022 59.4202L49.5711 60.6084L50.2154 58.682L48.5639 57.4685H50.5886L51.2022 55.5876L51.8055 57.4685Z"
    fill="#FFED00"
  />
<path
    d="M95.8693 0.00505726C95.8693 0.00505726 107.869 18.9101 110.068 22.3736C112.262 25.8371 114.772 28.5826 123.653 30.4433C132.535 32.304 136.4 33.1837 136.4 33.1837V33.8562C136.4 33.8562 130.755 32.668 123.495 31.0652C116.234 29.4624 113.264 28.9214 109.956 24.3657C107.2 20.5736 95.8693 3.61517 95.8693 3.61517V0V0.00505726Z"
    fill="#6D6E70"
  />
<path
    d="M95.8693 21.5949C95.8693 21.5949 106.796 32.9157 109.956 36.1668C113.31 39.6151 117.6 40.8893 123.551 41.941C129.232 42.9421 136.395 44.1 136.395 44.1V44.7371C136.395 44.7371 129.666 43.6449 123.551 42.6135C117.553 41.5972 113.356 41.0309 109.92 37.9011C106.842 35.1 95.8693 24.9219 95.8693 24.9219V21.5898V21.5949Z"
    fill="#6D6E70"
  />
<path
    d="M95.8693 26.6967C95.8693 26.6967 106.259 36.2377 109.956 39.499C113.356 42.4973 116.112 43.4327 123.587 44.7422C131.062 46.0518 136.395 46.8658 136.395 46.8658V47.5383C136.395 47.5383 129.63 46.4411 123.551 45.4804C117.472 44.5248 113.596 44.1456 109.956 41.2282C105.758 37.8608 95.8693 29.8113 95.8693 29.8113V26.6917V26.6967Z"
    fill="#6D6E70"
  />
<path
    d="M95.8693 32.1321C95.8693 32.1321 107.737 41.4456 109.956 43.0737C112.175 44.7018 115.109 46.6029 123.623 47.8214C132.064 49.0298 136.395 49.6265 136.395 49.6265V50.3343C136.395 50.3343 128.741 49.2371 123.623 48.6001C118.505 47.963 114.583 47.69 109.991 44.6664C105.523 41.7237 95.8693 35.004 95.8693 35.004V32.1321Z"
    fill="#6D6E70"
  />
<path
    d="M95.8693 37.3601C95.8693 37.3601 107.772 45.1972 110.027 46.441C112.282 47.6798 114.931 49.7022 123.623 50.7994C132.315 51.8966 136.395 52.3921 136.395 52.3921V53.0646C136.395 53.0646 129.206 52.286 123.587 51.6843C117.973 51.0826 114.143 50.2685 109.956 47.9983C105.768 45.7331 95.8693 40.0095 95.8693 40.0095V37.3601Z"
    fill="#6D6E70"
  />
<path
    d="M95.8693 42.5883C95.8693 42.5883 106.392 48.2512 109.956 50.0158C113.928 51.9878 117.364 52.9333 123.587 53.6664C129.697 54.3844 136.395 55.0821 136.395 55.0821V55.7192C136.395 55.7192 130.203 55.0619 123.587 54.4451C117.027 53.8282 114.69 53.5451 109.956 51.467C105.722 49.6063 95.8693 45.0658 95.8693 45.0658V42.5833V42.5883Z"
    fill="#6D6E70"
  />
<path
    d="M95.8693 47.8872C95.8693 47.8872 104.183 51.4063 110.027 53.7018C115.774 55.9569 120.166 56.149 123.658 56.5383C125.197 56.7102 136.395 57.8479 136.395 57.8479V58.485C136.395 58.485 129.707 57.9541 123.623 57.4232C117.538 56.8923 114.915 56.6647 109.991 55.0518C105.006 53.4136 95.8693 50.2636 95.8693 50.2636V47.8923V47.8872Z"
    fill="#6D6E70"
  />
<path
    d="M95.8693 53.2922C95.8693 53.2922 104.265 55.8658 109.991 57.3524C115.718 58.8389 120.974 59.4456 123.623 59.6175C126.271 59.7945 136.4 60.6085 136.4 60.6085V61.2102C136.4 61.2102 130.638 60.8209 123.587 60.3254C117.886 59.9259 113.31 59.5012 109.956 58.7681C106.244 57.9591 95.8693 55.522 95.8693 55.522V53.2922Z"
    fill="#6D6E70"
  />
<path
    d="M95.8693 58.6062C95.8693 58.6062 102.736 59.7792 109.991 60.9674C115.432 61.8573 122.799 62.4186 123.587 62.454C124.374 62.4893 136.395 63.3034 136.395 63.3034V63.9405C136.395 63.9405 128.7 63.5461 123.587 63.268C118.259 62.9747 112.962 62.6562 109.956 62.3478C103.217 61.6551 95.8693 60.7349 95.8693 60.7349V58.6062Z"
    fill="#6D6E70"
  />
<path
    d="M95.8693 64.1074C95.8693 64.1074 106.699 64.5119 109.991 64.5827C113.284 64.6535 136.395 65.5737 136.395 65.5737V66.1956H95.8693V64.1074Z"
    fill="#6D6E70"
  />
<path
    d="M123.582 33.3656C113.78 31.2774 111.561 27.733 109.915 25.5386C108.268 23.3392 95.8642 5.41504 95.8642 5.41504V8.71167C96.355 9.34369 106.97 23.8347 109.95 27.6269C113.31 31.8993 118.571 32.8701 123.582 33.9319C128.587 34.9937 136.395 36.4752 136.395 36.4752V35.9089C136.395 35.9089 126.118 33.9016 123.582 33.3656Z"
    fill="#6D6E70"
  />
<path
    d="M123.582 36.2022C115.534 34.6449 112.277 32.127 109.915 29.0831C107.552 26.0343 95.8642 10.446 95.8642 10.446V14.2786C96.355 14.85 107.046 27.7534 109.915 30.9994C113.259 34.7865 117.927 35.7826 123.582 36.809C129.237 37.8354 136.39 39.1803 136.39 39.1803V38.614C136.39 38.614 128.224 37.1022 123.582 36.2073V36.2022Z"
    fill="#6D6E70"
  />
<path
    d="M123.582 39.1399C115.212 37.5321 113.494 36.2124 109.95 32.3748C107.721 29.963 96.3448 16.6804 95.8642 16.1191V19.6585C95.8642 19.6585 106.494 30.8731 109.915 34.1849C114.399 38.5332 118.607 38.8619 123.582 39.7467C128.557 40.6315 136.39 42.0473 136.39 42.0473V41.4456C136.39 41.4456 126.931 39.7871 123.582 39.145V39.1399Z"
    fill="#6D6E70"
  />
<path
    d="M0.782944 27.7788C0.782944 27.7788 28.4954 24.8563 36.2569 23.7793C48.5281 22.0805 58.57 20.2703 67.8603 6.18887C67.8603 6.18887 67.8705 5.38999 67.8603 5.03101C62.1696 13.5911 54.3211 19.431 43.5122 21.1248C32.9539 22.7833 0.777832 25.2052 0.777832 25.2052V27.7788H0.782944Z"
    fill="#6D6E70"
  />
<path
    d="M0.777832 24.2849C0.777832 24.2849 26.4604 21.1046 34.9224 19.9315C48.3082 18.081 57.7212 16.4175 67.8552 1.05681C67.8552 1.05681 67.8603 0.394453 67.8552 0.00512695C61.648 9.3439 53.9836 15.3759 42.1931 17.2265C30.6735 19.0366 0.777832 21.6759 0.777832 21.6759V24.29V24.2849Z"
    fill="#6D6E70"
  />
<path d="M26.9973 64.1326H0.793167V66.1854H26.9973V64.1326Z" fill="#6D6E70" />
<path
    d="M67.8552 22.5708C67.8552 22.5708 67.8705 21.3624 67.8654 21.1045C66.6332 22.9601 65.0124 24.6438 63.141 26.1253H64.9766C66.0094 25.0736 66.9758 23.8955 67.8501 22.5708H67.8552Z"
    fill="#6D6E70"
  />
<path
    d="M67.8552 17.11C67.8552 17.11 67.8654 16.0381 67.8603 15.7449C64.8897 20.2145 60.4669 23.7842 55.3539 26.1505L58.3706 26.1404C61.8577 24.1331 65.0993 21.2814 67.8501 17.11H67.8552Z"
    fill="#6D6E70"
  />
<path
    d="M67.8552 11.6494C67.8552 11.6494 67.8654 10.714 67.8552 10.3904C62.686 18.1718 54.6483 23.496 44.8212 25.0381C42.4948 25.4022 38.706 25.8067 34.3037 26.2162L46.3039 26.1758C54.224 24.4314 61.6378 21.0589 67.845 11.6494H67.8552Z"
    fill="#6D6E70"
  />
<path
    d="M27.0024 60.6743C13.6319 60.7451 0.793167 60.8007 0.793167 60.8007V62.9395C0.793167 62.9395 14.2403 62.8434 27.0024 62.7372V60.6743Z"
    fill="#6D6E70"
  />
<path
    d="M27.0024 57.0034C13.7239 57.15 0.788055 57.2613 0.788055 57.2613V59.4456C0.788055 59.4456 14.3733 59.2686 27.0024 59.0714V57.0034Z"
    fill="#6D6E70"
  />
<path
    d="M26.9973 53.3225C13.816 53.55 0.788055 53.722 0.788055 53.722V55.9517C0.788055 55.9517 14.5164 55.6837 26.9973 55.3905V53.3225Z"
    fill="#6D6E70"
  />
<path
    d="M27.0024 49.6213C13.9182 49.9398 0.788055 50.1774 0.788055 50.1774V52.4477C0.788055 52.4477 14.6749 52.0735 27.0024 51.6842V49.6162V49.6213Z"
    fill="#6D6E70"
  />
<path
    d="M27.0075 45.9102C14.0205 46.3197 0.788055 46.6433 0.788055 46.6433V48.959C0.788055 48.959 14.8437 48.4736 27.0075 47.9781V45.9152V45.9102Z"
    fill="#6D6E70"
  />
<path
    d="M27.0024 42.1838C14.1176 42.6995 0.788055 43.104 0.788055 43.104V45.4602C0.788055 45.4602 15.0175 44.8433 27.0024 44.2315V42.1787V42.1838Z"
    fill="#6D6E70"
  />
<path
    d="M27.0075 38.4321C14.2199 39.0591 0.782944 39.5597 0.782944 39.5597V41.9613C0.782944 41.9613 15.2016 41.1979 27.0075 40.4647V38.4321Z"
    fill="#6D6E70"
  />
<path
    d="M27.0075 34.6602C14.317 35.4085 0.782944 36.0203 0.782944 36.0203V38.4624C0.782944 38.4624 15.3959 37.5321 27.0075 36.6725V34.6602Z"
    fill="#6D6E70"
  />
<path
    d="M27.0075 30.8679C14.404 31.7477 0.782944 32.4859 0.782944 32.4859V34.9735C0.782944 34.9735 15.5902 33.8511 27.0075 32.8601V30.873V30.8679Z"
    fill="#6D6E70"
  />
<path
    d="M27.0075 27.0405C14.4807 28.0669 0.777832 28.9416 0.777832 28.9416V31.4697C0.777832 31.4697 15.7845 30.1248 27.0075 28.9922V27.0405Z"
    fill="#6D6E70"
  />
</svg>
