<svg
  width="291"
  height="72"
  viewBox="0 0 291 72"
  fill="none"
  xmlns="http://www.w3.org/2000/svg"
>
<path
    d="M86.9932 27.541H86.9369H28.567V66.1905H86.9369H86.9932V27.541Z"
    fill="#003399"
  />
<path
    d="M58.3093 33.3809H60.3442L58.703 34.6449L59.3421 36.6472L57.711 35.4135L56.08 36.6472L56.7191 34.6449L55.0676 33.3809H57.0975L57.711 31.4292L58.3093 33.3809Z"
    fill="#FFED00"
  />
<path
    d="M58.3808 59.1573H60.4158L58.7796 60.3759L59.4137 62.3023L57.7826 61.1141L56.1516 62.3023L56.7958 60.3759L55.1392 59.1573H57.1691L57.7826 57.2815L58.3808 59.1573Z"
    fill="#FFED00"
  />
<path
    d="M64.8283 57.4534H66.8684L65.2271 58.6669L65.8663 60.5933L64.2301 59.4051L62.5991 60.5933L63.2433 58.6669L61.5867 57.4534H63.6165L64.2301 55.5725L64.8283 57.4534Z"
    fill="#FFED00"
  />
<path
    d="M64.8283 35.1H66.8684L65.2271 36.3185L65.8663 38.2449L64.2301 37.0567L62.5991 38.2449L63.2433 36.3185L61.5867 35.1H63.6165L64.2301 33.2241L64.8283 35.1Z"
    fill="#FFED00"
  />
<path
    d="M69.6192 39.8377H71.6491L70.0129 41.0512L70.6469 42.9776L69.0159 41.7894L67.3848 42.9776L68.0291 41.0512L66.3724 39.8377H68.4023L69.0159 37.9568L69.6192 39.8377Z"
    fill="#FFED00"
  />
<path
    d="M69.6192 52.7815H71.6491L70.0129 54L70.6469 55.9264L69.0159 54.7382L67.3848 55.9264L68.0291 54L66.3724 52.7815H68.4023L69.0159 50.9056L69.6192 52.7815Z"
    fill="#FFED00"
  />
<path
    d="M71.4087 46.2085H73.4488L71.8076 47.427L72.4467 49.3534L70.8105 48.1652L69.1795 49.3534L69.8237 47.427L68.1671 46.2085H70.197L70.8105 44.3326L71.4087 46.2085Z"
    fill="#FFED00"
  />
<path
    d="M51.7391 35.1202H53.7689L52.1328 36.3336L52.7668 38.26L51.1357 37.0718L49.5047 38.26L50.1489 36.3336L48.4974 35.1202H50.5222L51.1357 33.2393L51.7391 35.1202Z"
    fill="#FFED00"
  />
<path
    d="M47.0811 39.8528H49.1212L47.4799 41.0663L48.1139 42.9927L46.4829 41.8045L44.8518 42.9927L45.4961 41.0663L43.8395 39.8528H45.8693L46.4829 37.9719L47.0811 39.8528Z"
    fill="#FFED00"
  />
<path
    d="M45.3529 46.2287H47.3879L45.7517 47.4422L46.3857 49.3686L44.7547 48.1854L43.1237 49.3686L43.7679 47.4422L42.1164 46.2287H44.1411L44.7547 44.3478L45.3529 46.2287Z"
    fill="#FFED00"
  />
<path
    d="M47.0811 52.7966H49.1212L47.4799 54.0152L48.1139 55.9416L46.4829 54.7534L44.8518 55.9416L45.4961 54.0152L43.8395 52.7966H45.8693L46.4829 50.9208L47.0811 52.7966Z"
    fill="#FFED00"
  />
<path
    d="M51.8055 57.4685H53.8354L52.1992 58.682L52.8332 60.6084L51.2022 59.4202L49.5711 60.6084L50.2154 58.682L48.5639 57.4685H50.5886L51.2022 55.5876L51.8055 57.4685Z"
    fill="#FFED00"
  />
<path
    d="M95.8693 0.00505726C95.8693 0.00505726 107.869 18.9101 110.068 22.3736C112.262 25.8371 114.772 28.5826 123.653 30.4433C132.535 32.304 136.4 33.1837 136.4 33.1837V33.8562C136.4 33.8562 130.755 32.668 123.495 31.0652C116.234 29.4624 113.264 28.9214 109.956 24.3657C107.2 20.5736 95.8693 3.61517 95.8693 3.61517V0V0.00505726Z"
    fill="#6D6E70"
  />
<path
    d="M95.8693 21.5949C95.8693 21.5949 106.796 32.9157 109.956 36.1668C113.31 39.6151 117.6 40.8893 123.551 41.941C129.232 42.9421 136.395 44.1 136.395 44.1V44.7371C136.395 44.7371 129.666 43.6449 123.551 42.6135C117.553 41.5972 113.356 41.0309 109.92 37.9011C106.842 35.1 95.8693 24.9219 95.8693 24.9219V21.5898V21.5949Z"
    fill="#6D6E70"
  />
<path
    d="M95.8693 26.6967C95.8693 26.6967 106.259 36.2377 109.956 39.499C113.356 42.4973 116.112 43.4327 123.587 44.7422C131.062 46.0518 136.395 46.8658 136.395 46.8658V47.5383C136.395 47.5383 129.63 46.4411 123.551 45.4804C117.472 44.5248 113.596 44.1456 109.956 41.2282C105.758 37.8608 95.8693 29.8113 95.8693 29.8113V26.6917V26.6967Z"
    fill="#6D6E70"
  />
<path
    d="M95.8693 32.1321C95.8693 32.1321 107.737 41.4456 109.956 43.0737C112.175 44.7018 115.109 46.6029 123.623 47.8214C132.064 49.0298 136.395 49.6265 136.395 49.6265V50.3343C136.395 50.3343 128.741 49.2371 123.623 48.6001C118.505 47.963 114.583 47.69 109.991 44.6664C105.523 41.7237 95.8693 35.004 95.8693 35.004V32.1321Z"
    fill="#6D6E70"
  />
<path
    d="M95.8693 37.3601C95.8693 37.3601 107.772 45.1972 110.027 46.441C112.282 47.6798 114.931 49.7022 123.623 50.7994C132.315 51.8966 136.395 52.3921 136.395 52.3921V53.0646C136.395 53.0646 129.206 52.286 123.587 51.6843C117.973 51.0826 114.143 50.2685 109.956 47.9983C105.768 45.7331 95.8693 40.0095 95.8693 40.0095V37.3601Z"
    fill="#6D6E70"
  />
<path
    d="M95.8693 42.5882C95.8693 42.5882 106.392 48.2511 109.956 50.0157C113.928 51.9876 117.364 52.9331 123.587 53.6663C129.697 54.3843 136.395 55.082 136.395 55.082V55.7191C136.395 55.7191 130.203 55.0618 123.587 54.4449C117.027 53.8281 114.69 53.5449 109.956 51.4668C105.722 49.6062 95.8693 45.0657 95.8693 45.0657V42.5831V42.5882Z"
    fill="#6D6E70"
  />
<path
    d="M95.8693 47.8871C95.8693 47.8871 104.183 51.4062 110.027 53.7017C115.774 55.9568 120.166 56.1489 123.658 56.5382C125.197 56.7101 136.395 57.8478 136.395 57.8478V58.4848C136.395 58.4848 129.707 57.9539 123.623 57.423C117.538 56.8921 114.915 56.6646 109.991 55.0517C105.006 53.4135 95.8693 50.2635 95.8693 50.2635V47.8921V47.8871Z"
    fill="#6D6E70"
  />
<path
    d="M95.8693 53.2922C95.8693 53.2922 104.265 55.8658 109.991 57.3524C115.718 58.8389 120.974 59.4456 123.623 59.6175C126.271 59.7945 136.4 60.6085 136.4 60.6085V61.2102C136.4 61.2102 130.638 60.8209 123.587 60.3254C117.886 59.9259 113.31 59.5012 109.956 58.7681C106.244 57.9591 95.8693 55.522 95.8693 55.522V53.2922Z"
    fill="#6D6E70"
  />
<path
    d="M95.8693 58.6062C95.8693 58.6062 102.736 59.7792 109.991 60.9674C115.432 61.8573 122.799 62.4186 123.587 62.454C124.374 62.4893 136.395 63.3034 136.395 63.3034V63.9405C136.395 63.9405 128.7 63.5461 123.587 63.268C118.259 62.9747 112.962 62.6562 109.956 62.3478C103.217 61.6551 95.8693 60.7349 95.8693 60.7349V58.6062Z"
    fill="#6D6E70"
  />
<path
    d="M95.8693 64.1074C95.8693 64.1074 106.699 64.5119 109.991 64.5827C113.284 64.6535 136.395 65.5737 136.395 65.5737V66.1956H95.8693V64.1074Z"
    fill="#6D6E70"
  />
<path
    d="M123.582 33.3657C113.78 31.2775 111.561 27.7332 109.915 25.5388C108.268 23.3393 95.8642 5.41516 95.8642 5.41516V8.71179C96.355 9.34382 106.97 23.8348 109.95 27.627C113.31 31.8994 118.571 32.8702 123.582 33.932C128.587 34.9938 136.395 36.4753 136.395 36.4753V35.909C136.395 35.909 126.118 33.9017 123.582 33.3657Z"
    fill="#6D6E70"
  />
<path
    d="M123.582 36.2022C115.534 34.6449 112.277 32.127 109.915 29.0831C107.552 26.0343 95.8642 10.446 95.8642 10.446V14.2786C96.355 14.85 107.046 27.7534 109.915 30.9994C113.259 34.7865 117.927 35.7826 123.582 36.809C129.237 37.8354 136.39 39.1803 136.39 39.1803V38.614C136.39 38.614 128.224 37.1022 123.582 36.2073V36.2022Z"
    fill="#6D6E70"
  />
<path
    d="M123.582 39.1399C115.212 37.5321 113.494 36.2124 109.95 32.3748C107.721 29.963 96.3448 16.6804 95.8642 16.1191V19.6585C95.8642 19.6585 106.494 30.8731 109.915 34.1849C114.399 38.5332 118.607 38.8619 123.582 39.7467C128.557 40.6315 136.39 42.0473 136.39 42.0473V41.4456C136.39 41.4456 126.931 39.7871 123.582 39.145V39.1399Z"
    fill="#6D6E70"
  />
<path
    d="M0.782944 27.7787C0.782944 27.7787 28.4954 24.8562 36.2569 23.7792C48.5281 22.0803 58.57 20.2702 67.8603 6.18875C67.8603 6.18875 67.8705 5.38987 67.8603 5.03088C62.1696 13.591 54.3211 19.4309 43.5122 21.1247C32.9539 22.7831 0.777832 25.2051 0.777832 25.2051V27.7787H0.782944Z"
    fill="#6D6E70"
  />
<path
    d="M0.777832 24.2848C0.777832 24.2848 26.4604 21.1045 34.9224 19.9314C48.3082 18.0809 57.7212 16.4174 67.8552 1.05669C67.8552 1.05669 67.8603 0.394331 67.8552 0.00500488C61.648 9.34378 53.9836 15.3758 42.1931 17.2264C30.6735 19.0365 0.777832 21.6758 0.777832 21.6758V24.2899V24.2848Z"
    fill="#6D6E70"
  />
<path d="M26.9973 64.1326H0.793167V66.1854H26.9973V64.1326Z" fill="#6D6E70" />
<path
    d="M67.8552 22.5708C67.8552 22.5708 67.8705 21.3624 67.8654 21.1045C66.6332 22.9601 65.0124 24.6438 63.141 26.1253H64.9766C66.0094 25.0736 66.9758 23.8955 67.8501 22.5708H67.8552Z"
    fill="#6D6E70"
  />
<path
    d="M67.8552 17.1102C67.8552 17.1102 67.8654 16.0383 67.8603 15.745C64.8897 20.2147 60.4669 23.7843 55.3539 26.1506L58.3706 26.1405C61.8577 24.1332 65.0993 21.2815 67.8501 17.1102H67.8552Z"
    fill="#6D6E70"
  />
<path
    d="M67.8552 11.6495C67.8552 11.6495 67.8654 10.7141 67.8552 10.3905C62.686 18.172 54.6483 23.4961 44.8212 25.0383C42.4948 25.4023 38.706 25.8068 34.3037 26.2164L46.3039 26.1759C54.224 24.4315 61.6378 21.059 67.845 11.6495H67.8552Z"
    fill="#6D6E70"
  />
<path
    d="M27.0024 60.6742C13.6319 60.745 0.793167 60.8006 0.793167 60.8006V62.9394C0.793167 62.9394 14.2403 62.8433 27.0024 62.7371V60.6742Z"
    fill="#6D6E70"
  />
<path
    d="M27.0024 57.0034C13.7239 57.15 0.788055 57.2613 0.788055 57.2613V59.4456C0.788055 59.4456 14.3733 59.2686 27.0024 59.0714V57.0034Z"
    fill="#6D6E70"
  />
<path
    d="M26.9973 53.3225C13.816 53.55 0.788055 53.722 0.788055 53.722V55.9517C0.788055 55.9517 14.5164 55.6837 26.9973 55.3905V53.3225Z"
    fill="#6D6E70"
  />
<path
    d="M27.0024 49.6214C13.9182 49.9399 0.788055 50.1776 0.788055 50.1776V52.4478C0.788055 52.4478 14.6749 52.0736 27.0024 51.6843V49.6163V49.6214Z"
    fill="#6D6E70"
  />
<path
    d="M27.0075 45.9102C14.0205 46.3197 0.788055 46.6433 0.788055 46.6433V48.959C0.788055 48.959 14.8437 48.4736 27.0075 47.9781V45.9152V45.9102Z"
    fill="#6D6E70"
  />
<path
    d="M27.0024 42.1838C14.1176 42.6995 0.788055 43.104 0.788055 43.104V45.4602C0.788055 45.4602 15.0175 44.8433 27.0024 44.2315V42.1787V42.1838Z"
    fill="#6D6E70"
  />
<path
    d="M27.0075 38.432C14.2199 39.059 0.782944 39.5595 0.782944 39.5595V41.9612C0.782944 41.9612 15.2016 41.1977 27.0075 40.4646V38.432Z"
    fill="#6D6E70"
  />
<path
    d="M27.0075 34.6602C14.317 35.4085 0.782944 36.0203 0.782944 36.0203V38.4624C0.782944 38.4624 15.3959 37.5321 27.0075 36.6725V34.6602Z"
    fill="#6D6E70"
  />
<path
    d="M27.0075 30.868C14.404 31.7478 0.782944 32.486 0.782944 32.486V34.9737C0.782944 34.9737 15.5902 33.8512 27.0075 32.8602V30.8731V30.868Z"
    fill="#6D6E70"
  />
<path
    d="M27.0075 27.0404C14.4807 28.0668 0.777832 28.9415 0.777832 28.9415V31.4696C0.777832 31.4696 15.7845 30.1247 27.0075 28.9921V27.0404Z"
    fill="#6D6E70"
  />
<path d="M227.074 66.1996V27.366H223.758V66.1996H227.074Z" fill="#003399" />
<path
    d="M145.404 33.4178C145.404 33.1686 145.521 33.0312 145.791 33.0312H152.901C153.134 33.0312 153.267 33.1686 153.267 33.3974V34.5976C153.267 34.8316 153.17 34.9434 152.88 34.9434H147.606V38.2694H152.28C152.529 38.2694 152.667 38.3864 152.667 38.6152V39.8154C152.667 40.0494 152.57 40.1613 152.28 40.1613H147.606V43.9653H153.017C153.251 43.9653 153.363 44.0823 153.363 44.3315V45.5113C153.363 45.7605 153.267 45.8571 152.997 45.8571H145.791C145.521 45.8571 145.404 45.7402 145.404 45.5113V33.4127V33.4178Z"
    fill="#58595B"
  />
<path
    d="M156.634 35.0045C155.627 35.0045 155.494 34.4451 155.494 33.8857C155.494 33.2652 155.708 32.7821 156.634 32.7821C157.559 32.7821 157.773 33.2246 157.773 33.8857C157.773 34.4858 157.6 35.0045 156.634 35.0045ZM157.656 45.4961C157.656 45.7097 157.579 45.8623 157.31 45.8623H155.937C155.667 45.8623 155.55 45.7453 155.55 45.4961V36.7641C155.55 36.4946 155.667 36.398 155.937 36.398H157.31C157.579 36.398 157.656 36.5505 157.656 36.7641V45.4961Z"
    fill="#58595B"
  />
<path
    d="M162.528 45.4962C162.528 45.7301 162.431 45.8623 162.161 45.8623H160.768C160.498 45.8623 160.402 45.7453 160.402 45.4962V36.7794C160.402 36.5302 160.498 36.3929 160.768 36.3929H162.141C162.431 36.3929 162.528 36.5455 162.528 36.7794V37.6287L162.568 37.6694C163.148 37.1303 164.521 36.4692 165.426 36.2963C165.676 36.2404 165.854 36.2963 165.889 36.6269L166.026 37.9237C166.047 38.1932 166.067 38.3102 165.66 38.3865C164.577 38.6001 163.204 38.9866 162.533 39.2765V45.4962H162.528Z"
    fill="#58595B"
  />
<path
    d="M171.026 46.0148C167.14 46.0148 166.891 43.177 166.891 40.9699C166.891 39.1543 167.298 36.1996 171.026 36.1996C174.753 36.1996 175.297 38.6915 175.297 40.9699C175.297 43.2482 175.028 46.0148 171.026 46.0148ZM171.046 38.0558C169.403 38.0558 169.037 39.0984 169.037 41.1072C169.037 43.116 169.403 44.1585 171.026 44.1585C172.785 44.1585 173.131 43.1719 173.131 41.1072C173.131 39.0424 172.8 38.0558 171.046 38.0558Z"
    fill="#58595B"
  />
<path
    d="M181.695 46.0352C181.059 46.0352 180.169 45.9183 179.279 45.608L179.259 45.6284V49.0307C179.259 49.2442 179.203 49.4172 178.893 49.4172H177.52C177.21 49.4172 177.154 49.2798 177.154 49.0307V36.7794C177.154 36.5302 177.25 36.3929 177.52 36.3929H178.893C179.163 36.3929 179.239 36.5455 179.239 36.7794V37.3592L179.295 37.3999C179.991 36.9167 181.227 36.2404 182.346 36.2404C184.879 36.2404 185.535 38.1525 185.535 41.0717C185.535 44.2197 184.741 46.0352 181.69 46.0352H181.695ZM181.848 38.1729C181.054 38.1729 179.839 38.7323 179.259 39.0425V43.8738C180.129 44.123 180.826 44.2044 181.482 44.2044C182.875 44.2044 183.358 43.4873 183.358 41.0564C183.358 38.6255 182.875 38.178 181.853 38.178L181.848 38.1729Z"
    fill="#58595B"
  />
<path
    d="M193.234 44.7587C192.268 45.491 190.971 46.0148 189.679 46.0148C187.63 46.0148 187.03 44.896 187.03 43.2737C187.009 41.0106 188.23 40.0443 190.661 40.0443H193.133V39.5409C193.133 38.3814 192.705 37.9745 191.124 37.9745C190.488 37.9745 189.267 38.0711 188.494 38.1474C188.108 38.2034 188.011 38.1881 187.955 37.9135L187.782 37.1964C187.742 36.9472 187.803 36.7896 188.225 36.6166C189.054 36.3268 190.585 36.1895 191.49 36.1895C194.831 36.1895 195.238 37.5626 195.238 39.7239V43.4517C195.238 44.245 195.335 44.2654 195.935 44.3417C196.225 44.362 196.301 44.418 196.301 44.6316V45.4453C196.301 45.6588 196.164 45.7911 195.838 45.8521C195.528 45.908 195.218 45.9487 194.928 45.9487C194.017 45.9487 193.458 45.6792 193.265 44.7689L193.224 44.7485L193.234 44.7587ZM193.117 41.5497H190.758C189.791 41.5497 189.171 41.8955 189.171 43.172C189.171 44.0213 189.461 44.2908 190.371 44.2908C191.2 44.2908 192.38 43.8077 193.117 43.3805V41.5446V41.5497Z"
    fill="#58595B"
  />
<path
    d="M200.868 46.0148C199.902 46.0148 198.605 45.8775 197.873 45.5876C197.486 45.435 197.41 45.257 197.466 44.9519L197.603 44.3162C197.659 44.006 197.796 43.9856 198.107 44.0263C198.956 44.1636 200.192 44.2603 200.853 44.2603C202.089 44.2603 202.592 43.9297 202.592 43.1567C202.592 42.2667 202.262 42.0735 201.046 41.9005C199.154 41.631 197.491 41.2242 197.491 39.1187C197.491 37.2065 198.961 36.1996 201.122 36.1996C201.916 36.1996 203.248 36.3166 204.062 36.6268C204.392 36.7641 204.525 36.9167 204.469 37.2065L204.316 37.9033C204.26 38.1728 204.143 38.2135 203.792 38.1728C202.963 38.0762 201.88 37.9592 201.163 37.9592C199.927 37.9592 199.637 38.305 199.637 39.0424C199.637 39.7798 200.1 39.8917 201.28 40.085C203.116 40.3545 204.779 40.7207 204.779 43.0245C204.779 45.3282 202.867 46.0199 200.878 46.0199L200.868 46.0148Z"
    fill="#58595B"
  />
<path
    d="M147.617 59.5578L149.086 57.666L152.331 53.6687C152.504 53.4754 152.661 53.3788 152.967 53.3788H154.726C154.996 53.3788 155.072 53.572 154.899 53.7653L150.709 58.8662L155.036 65.8029C155.189 66.0521 155.057 66.2098 154.843 66.2098H153.063C152.733 66.2098 152.6 66.0725 152.443 65.8436L149.274 60.5902L147.576 62.6956V65.8436C147.576 66.0572 147.5 66.2098 147.23 66.2098H145.781C145.511 66.2098 145.394 66.0928 145.394 65.8436V53.7653C145.394 53.5161 145.511 53.3788 145.781 53.3788H147.23C147.5 53.3788 147.576 53.5314 147.576 53.7653V59.5629H147.617V59.5578Z"
    fill="#58595B"
  />
<path
    d="M160.31 66.3572C156.425 66.3572 156.176 63.5194 156.176 61.3123C156.176 59.4967 156.582 56.542 160.31 56.542C164.038 56.542 164.582 59.0339 164.582 61.3123C164.582 63.5906 164.313 66.3572 160.31 66.3572ZM160.331 58.3982C158.688 58.3982 158.322 59.4408 158.322 61.4496C158.322 63.4584 158.688 64.501 160.31 64.501C162.07 64.501 162.416 63.5144 162.416 61.4496C162.416 59.3848 162.085 58.3982 160.331 58.3982Z"
    fill="#58595B"
  />
<path
    d="M179.966 66.2048H178.572C178.303 66.2048 178.206 66.0878 178.206 65.8386V60.3513C178.206 58.9222 177.86 58.5154 176.894 58.5154C176.177 58.5154 175.018 59.0748 174.423 59.385C174.423 59.5783 174.443 59.9241 174.443 60.3716V65.8386C174.443 66.0726 174.367 66.2048 174.077 66.2048H172.668C172.419 66.2048 172.338 66.0878 172.338 65.8386V60.2546C172.338 59.0748 172.027 58.5154 171.061 58.5154C170.385 58.5154 169.301 58.9985 168.569 59.385V65.8386C168.569 66.0726 168.472 66.2048 168.203 66.2048H166.809C166.56 66.2048 166.464 66.0878 166.464 65.8386V57.1219C166.464 56.8727 166.56 56.7354 166.809 56.7354H168.183C168.472 56.7354 168.569 56.888 168.569 57.1219V57.6813L168.589 57.7017C169.342 57.1779 170.405 56.6032 171.468 56.5625C172.587 56.5625 173.517 56.7964 174.117 57.9153C175.084 57.1982 176.279 56.5625 177.52 56.5625C180.073 56.5625 180.322 58.2255 180.322 60.158V65.8386C180.322 66.0726 180.246 66.2048 179.976 66.2048H179.966Z"
    fill="#58595B"
  />
<path
    d="M183.755 55.3469C182.748 55.3469 182.615 54.7875 182.615 54.2281C182.615 53.6077 182.829 53.1245 183.755 53.1245C184.68 53.1245 184.894 53.567 184.894 54.2281C184.894 54.8282 184.721 55.3469 183.755 55.3469ZM184.777 65.8385C184.777 66.0521 184.701 66.2047 184.431 66.2047H183.058C182.788 66.2047 182.671 66.0877 182.671 65.8385V57.1065C182.671 56.837 182.788 56.7404 183.058 56.7404H184.431C184.701 56.7404 184.777 56.8929 184.777 57.1065V65.8385Z"
    fill="#58595B"
  />
<path
    d="M190.341 66.3572C189.374 66.3572 188.078 66.2199 187.345 65.93C186.959 65.7774 186.882 65.5995 186.938 65.2943L187.076 64.6586C187.132 64.3484 187.269 64.328 187.579 64.3687C188.428 64.506 189.664 64.6027 190.325 64.6027C191.561 64.6027 192.065 64.2721 192.065 63.4991C192.065 62.6091 191.734 62.4159 190.519 62.243C188.627 61.9734 186.964 61.5666 186.964 59.4611C186.964 57.5489 188.434 56.542 190.595 56.542C191.388 56.542 192.721 56.659 193.534 56.9692C193.865 57.1065 193.997 57.2591 193.941 57.5489L193.789 58.2457C193.733 58.5152 193.616 58.5559 193.265 58.5152C192.436 58.4186 191.353 58.3016 190.636 58.3016C189.4 58.3016 189.11 58.6474 189.11 59.3848C189.11 60.1223 189.573 60.2341 190.753 60.4274C192.588 60.6969 194.251 61.0631 194.251 63.3669C194.251 65.6706 192.339 66.3623 190.351 66.3623L190.341 66.3572Z"
    fill="#58595B"
  />
<path
    d="M197.394 55.3469C196.387 55.3469 196.255 54.7875 196.255 54.2281C196.255 53.6077 196.469 53.1245 197.394 53.1245C198.32 53.1245 198.533 53.567 198.533 54.2281C198.533 54.8282 198.36 55.3469 197.394 55.3469ZM198.416 65.8385C198.416 66.0521 198.34 66.2047 198.071 66.2047H196.697C196.428 66.2047 196.311 66.0877 196.311 65.8385V57.1065C196.311 56.837 196.428 56.7404 196.697 56.7404H198.071C198.34 56.7404 198.416 56.8929 198.416 57.1065V65.8385Z"
    fill="#58595B"
  />
<path
    d="M203.482 66.4183C203.482 68.9306 202.419 70.3393 199.174 70.2223C199.037 70.2223 198.767 70.146 198.747 69.8358L198.671 68.9255C198.63 68.6153 198.711 68.5593 198.981 68.4983C200.796 68.1321 201.356 67.9592 201.356 66.4488V57.0964C201.356 56.8268 201.473 56.7302 201.742 56.7302H203.095C203.385 56.7302 203.482 56.8828 203.482 57.0964V66.4081V66.4183ZM202.419 55.3469C201.412 55.3469 201.28 54.7875 201.28 54.2281C201.28 53.6077 201.513 53.1245 202.419 53.1245C203.324 53.1245 203.558 53.567 203.558 54.2281C203.558 54.8282 203.385 55.3469 202.419 55.3469Z"
    fill="#58595B"
  />
<path
    d="M211.868 65.1011C210.902 65.8334 209.605 66.3572 208.313 66.3572C206.264 66.3572 205.669 65.2384 205.669 63.6161C205.648 61.353 206.869 60.3867 209.3 60.3867H211.771V59.8833C211.771 58.7238 211.349 58.3169 209.763 58.3169C209.127 58.3169 207.906 58.4135 207.133 58.4898C206.747 58.5458 206.65 58.5305 206.594 58.2559L206.421 57.5388C206.381 57.2896 206.442 57.132 206.864 56.959C207.693 56.6692 209.223 56.5319 210.129 56.5319C213.47 56.5319 213.877 57.905 213.877 60.0664V63.7941C213.877 64.5875 213.973 64.6078 214.574 64.6841C214.863 64.7044 214.94 64.7604 214.94 64.974V65.7877C214.94 66.0012 214.802 66.1335 214.477 66.1945C214.167 66.2504 213.856 66.2911 213.567 66.2911C212.656 66.2911 212.097 66.0216 211.904 65.1113L211.863 65.0909L211.868 65.1011ZM211.751 61.8921H209.391C208.425 61.8921 207.805 62.2379 207.805 63.5144C207.805 64.3637 208.094 64.6332 209.005 64.6332C209.834 64.6332 211.014 64.1501 211.751 63.7229V61.887V61.8921Z"
    fill="#58595B"
  />
</svg>
