<svg
  width="291"
  height="72"
  viewBox="0 0 291 72"
  fill="none"
  xmlns="http://www.w3.org/2000/svg"
>
<path
    d="M86.9932 27.541H86.9369H28.567V66.1905H86.9369H86.9932V27.541Z"
    fill="#003399"
  />
<path
    d="M58.3093 33.3809H60.3442L58.703 34.6449L59.3421 36.6472L57.711 35.4135L56.08 36.6472L56.7191 34.6449L55.0676 33.3809H57.0975L57.711 31.4292L58.3093 33.3809Z"
    fill="#FFED00"
  />
<path
    d="M58.3808 59.1573H60.4158L58.7796 60.3759L59.4137 62.3023L57.7826 61.1141L56.1516 62.3023L56.7958 60.3759L55.1392 59.1573H57.1691L57.7826 57.2815L58.3808 59.1573Z"
    fill="#FFED00"
  />
<path
    d="M64.8283 57.4534H66.8684L65.2271 58.6669L65.8663 60.5933L64.2301 59.4051L62.5991 60.5933L63.2433 58.6669L61.5867 57.4534H63.6165L64.2301 55.5725L64.8283 57.4534Z"
    fill="#FFED00"
  />
<path
    d="M64.8283 35.1H66.8684L65.2271 36.3185L65.8663 38.2449L64.2301 37.0567L62.5991 38.2449L63.2433 36.3185L61.5867 35.1H63.6165L64.2301 33.2241L64.8283 35.1Z"
    fill="#FFED00"
  />
<path
    d="M69.6192 39.8377H71.6491L70.0129 41.0512L70.6469 42.9776L69.0159 41.7894L67.3848 42.9776L68.0291 41.0512L66.3724 39.8377H68.4023L69.0159 37.9568L69.6192 39.8377Z"
    fill="#FFED00"
  />
<path
    d="M69.6192 52.7815H71.6491L70.0129 54L70.6469 55.9264L69.0159 54.7382L67.3848 55.9264L68.0291 54L66.3724 52.7815H68.4023L69.0159 50.9056L69.6192 52.7815Z"
    fill="#FFED00"
  />
<path
    d="M71.4087 46.2085H73.4488L71.8076 47.427L72.4467 49.3534L70.8105 48.1652L69.1795 49.3534L69.8237 47.427L68.1671 46.2085H70.197L70.8105 44.3326L71.4087 46.2085Z"
    fill="#FFED00"
  />
<path
    d="M51.7391 35.1202H53.7689L52.1328 36.3336L52.7668 38.26L51.1357 37.0718L49.5047 38.26L50.1489 36.3336L48.4974 35.1202H50.5222L51.1357 33.2393L51.7391 35.1202Z"
    fill="#FFED00"
  />
<path
    d="M47.0811 39.8528H49.1212L47.4799 41.0663L48.1139 42.9927L46.4829 41.8045L44.8518 42.9927L45.4961 41.0663L43.8395 39.8528H45.8693L46.4829 37.9719L47.0811 39.8528Z"
    fill="#FFED00"
  />
<path
    d="M45.3529 46.2287H47.3879L45.7517 47.4422L46.3857 49.3686L44.7547 48.1854L43.1237 49.3686L43.7679 47.4422L42.1164 46.2287H44.1411L44.7547 44.3478L45.3529 46.2287Z"
    fill="#FFED00"
  />
<path
    d="M47.0811 52.7966H49.1212L47.4799 54.0152L48.1139 55.9416L46.4829 54.7534L44.8518 55.9416L45.4961 54.0152L43.8395 52.7966H45.8693L46.4829 50.9208L47.0811 52.7966Z"
    fill="#FFED00"
  />
<path
    d="M51.8055 57.4685H53.8354L52.1992 58.682L52.8332 60.6084L51.2022 59.4202L49.5711 60.6084L50.2154 58.682L48.5639 57.4685H50.5886L51.2022 55.5876L51.8055 57.4685Z"
    fill="#FFED00"
  />
<path
    d="M95.8693 0.00505726C95.8693 0.00505726 107.869 18.9101 110.068 22.3736C112.262 25.8371 114.772 28.5826 123.653 30.4433C132.535 32.304 136.4 33.1837 136.4 33.1837V33.8562C136.4 33.8562 130.755 32.668 123.495 31.0652C116.234 29.4624 113.264 28.9214 109.956 24.3657C107.2 20.5736 95.8693 3.61517 95.8693 3.61517V0V0.00505726Z"
    fill="#6D6E70"
  />
<path
    d="M95.8693 21.5949C95.8693 21.5949 106.796 32.9157 109.956 36.1668C113.31 39.6151 117.6 40.8893 123.551 41.941C129.232 42.9421 136.395 44.1 136.395 44.1V44.7371C136.395 44.7371 129.666 43.6449 123.551 42.6135C117.553 41.5972 113.356 41.0309 109.92 37.9011C106.842 35.1 95.8693 24.9219 95.8693 24.9219V21.5898V21.5949Z"
    fill="#6D6E70"
  />
<path
    d="M95.8693 26.6967C95.8693 26.6967 106.259 36.2377 109.956 39.499C113.356 42.4973 116.112 43.4327 123.587 44.7422C131.062 46.0518 136.395 46.8658 136.395 46.8658V47.5383C136.395 47.5383 129.63 46.4411 123.551 45.4804C117.472 44.5248 113.596 44.1456 109.956 41.2282C105.758 37.8608 95.8693 29.8113 95.8693 29.8113V26.6917V26.6967Z"
    fill="#6D6E70"
  />
<path
    d="M95.8693 32.1321C95.8693 32.1321 107.737 41.4456 109.956 43.0737C112.175 44.7018 115.109 46.6029 123.623 47.8214C132.064 49.0298 136.395 49.6265 136.395 49.6265V50.3343C136.395 50.3343 128.741 49.2371 123.623 48.6001C118.505 47.963 114.583 47.69 109.991 44.6664C105.523 41.7237 95.8693 35.004 95.8693 35.004V32.1321Z"
    fill="#6D6E70"
  />
<path
    d="M95.8693 37.3601C95.8693 37.3601 107.772 45.1972 110.027 46.441C112.282 47.6798 114.931 49.7022 123.623 50.7994C132.315 51.8966 136.395 52.3921 136.395 52.3921V53.0646C136.395 53.0646 129.206 52.286 123.587 51.6843C117.973 51.0826 114.143 50.2685 109.956 47.9983C105.768 45.7331 95.8693 40.0095 95.8693 40.0095V37.3601Z"
    fill="#6D6E70"
  />
<path
    d="M95.8693 42.5882C95.8693 42.5882 106.392 48.2511 109.956 50.0157C113.928 51.9876 117.364 52.9331 123.587 53.6663C129.697 54.3843 136.395 55.082 136.395 55.082V55.7191C136.395 55.7191 130.203 55.0618 123.587 54.4449C117.027 53.8281 114.69 53.5449 109.956 51.4668C105.722 49.6062 95.8693 45.0657 95.8693 45.0657V42.5831V42.5882Z"
    fill="#6D6E70"
  />
<path
    d="M95.8693 47.8871C95.8693 47.8871 104.183 51.4062 110.027 53.7017C115.774 55.9568 120.166 56.1489 123.658 56.5382C125.197 56.7101 136.395 57.8478 136.395 57.8478V58.4848C136.395 58.4848 129.707 57.9539 123.623 57.423C117.538 56.8921 114.915 56.6646 109.991 55.0517C105.006 53.4135 95.8693 50.2635 95.8693 50.2635V47.8921V47.8871Z"
    fill="#6D6E70"
  />
<path
    d="M95.8693 53.2922C95.8693 53.2922 104.265 55.8658 109.991 57.3524C115.718 58.8389 120.974 59.4456 123.623 59.6175C126.271 59.7945 136.4 60.6085 136.4 60.6085V61.2102C136.4 61.2102 130.638 60.8209 123.587 60.3254C117.886 59.9259 113.31 59.5012 109.956 58.7681C106.244 57.9591 95.8693 55.522 95.8693 55.522V53.2922Z"
    fill="#6D6E70"
  />
<path
    d="M95.8693 58.6062C95.8693 58.6062 102.736 59.7792 109.991 60.9674C115.432 61.8573 122.799 62.4186 123.587 62.454C124.374 62.4893 136.395 63.3034 136.395 63.3034V63.9405C136.395 63.9405 128.7 63.5461 123.587 63.268C118.259 62.9747 112.962 62.6562 109.956 62.3478C103.217 61.6551 95.8693 60.7349 95.8693 60.7349V58.6062Z"
    fill="#6D6E70"
  />
<path
    d="M95.8693 64.1074C95.8693 64.1074 106.699 64.5119 109.991 64.5827C113.284 64.6535 136.395 65.5737 136.395 65.5737V66.1956H95.8693V64.1074Z"
    fill="#6D6E70"
  />
<path
    d="M123.582 33.3657C113.78 31.2775 111.561 27.7332 109.915 25.5388C108.268 23.3393 95.8642 5.41516 95.8642 5.41516V8.71179C96.355 9.34382 106.97 23.8348 109.95 27.627C113.31 31.8994 118.571 32.8702 123.582 33.932C128.587 34.9938 136.395 36.4753 136.395 36.4753V35.909C136.395 35.909 126.118 33.9017 123.582 33.3657Z"
    fill="#6D6E70"
  />
<path
    d="M123.582 36.2022C115.534 34.6449 112.277 32.127 109.915 29.0831C107.552 26.0343 95.8642 10.446 95.8642 10.446V14.2786C96.355 14.85 107.046 27.7534 109.915 30.9994C113.259 34.7865 117.927 35.7826 123.582 36.809C129.237 37.8354 136.39 39.1803 136.39 39.1803V38.614C136.39 38.614 128.224 37.1022 123.582 36.2073V36.2022Z"
    fill="#6D6E70"
  />
<path
    d="M123.582 39.1399C115.212 37.5321 113.494 36.2124 109.95 32.3748C107.721 29.963 96.3448 16.6804 95.8642 16.1191V19.6585C95.8642 19.6585 106.494 30.8731 109.915 34.1849C114.399 38.5332 118.607 38.8619 123.582 39.7467C128.557 40.6315 136.39 42.0473 136.39 42.0473V41.4456C136.39 41.4456 126.931 39.7871 123.582 39.145V39.1399Z"
    fill="#6D6E70"
  />
<path
    d="M0.782944 27.7787C0.782944 27.7787 28.4954 24.8562 36.2569 23.7792C48.5281 22.0803 58.57 20.2702 67.8603 6.18875C67.8603 6.18875 67.8705 5.38987 67.8603 5.03088C62.1696 13.591 54.3211 19.4309 43.5122 21.1247C32.9539 22.7831 0.777832 25.2051 0.777832 25.2051V27.7787H0.782944Z"
    fill="#6D6E70"
  />
<path
    d="M0.777832 24.2848C0.777832 24.2848 26.4604 21.1045 34.9224 19.9314C48.3082 18.0809 57.7212 16.4174 67.8552 1.05669C67.8552 1.05669 67.8603 0.394331 67.8552 0.00500488C61.648 9.34378 53.9836 15.3758 42.1931 17.2264C30.6735 19.0365 0.777832 21.6758 0.777832 21.6758V24.2899V24.2848Z"
    fill="#6D6E70"
  />
<path d="M26.9973 64.1326H0.793167V66.1854H26.9973V64.1326Z" fill="#6D6E70" />
<path
    d="M67.8552 22.5708C67.8552 22.5708 67.8705 21.3624 67.8654 21.1045C66.6332 22.9601 65.0124 24.6438 63.141 26.1253H64.9766C66.0094 25.0736 66.9758 23.8955 67.8501 22.5708H67.8552Z"
    fill="#6D6E70"
  />
<path
    d="M67.8552 17.1102C67.8552 17.1102 67.8654 16.0383 67.8603 15.745C64.8897 20.2147 60.4669 23.7843 55.3539 26.1506L58.3706 26.1405C61.8577 24.1332 65.0993 21.2815 67.8501 17.1102H67.8552Z"
    fill="#6D6E70"
  />
<path
    d="M67.8552 11.6495C67.8552 11.6495 67.8654 10.7141 67.8552 10.3905C62.686 18.172 54.6483 23.4961 44.8212 25.0383C42.4948 25.4023 38.706 25.8068 34.3037 26.2164L46.3039 26.1759C54.224 24.4315 61.6378 21.059 67.845 11.6495H67.8552Z"
    fill="#6D6E70"
  />
<path
    d="M27.0024 60.6742C13.6319 60.745 0.793167 60.8006 0.793167 60.8006V62.9394C0.793167 62.9394 14.2403 62.8433 27.0024 62.7371V60.6742Z"
    fill="#6D6E70"
  />
<path
    d="M27.0024 57.0034C13.7239 57.15 0.788055 57.2613 0.788055 57.2613V59.4456C0.788055 59.4456 14.3733 59.2686 27.0024 59.0714V57.0034Z"
    fill="#6D6E70"
  />
<path
    d="M26.9973 53.3225C13.816 53.55 0.788055 53.722 0.788055 53.722V55.9517C0.788055 55.9517 14.5164 55.6837 26.9973 55.3905V53.3225Z"
    fill="#6D6E70"
  />
<path
    d="M27.0024 49.6214C13.9182 49.9399 0.788055 50.1776 0.788055 50.1776V52.4478C0.788055 52.4478 14.6749 52.0736 27.0024 51.6843V49.6163V49.6214Z"
    fill="#6D6E70"
  />
<path
    d="M27.0075 45.9102C14.0205 46.3197 0.788055 46.6433 0.788055 46.6433V48.959C0.788055 48.959 14.8437 48.4736 27.0075 47.9781V45.9152V45.9102Z"
    fill="#6D6E70"
  />
<path
    d="M27.0024 42.1838C14.1176 42.6995 0.788055 43.104 0.788055 43.104V45.4602C0.788055 45.4602 15.0175 44.8433 27.0024 44.2315V42.1787V42.1838Z"
    fill="#6D6E70"
  />
<path
    d="M27.0075 38.432C14.2199 39.059 0.782944 39.5595 0.782944 39.5595V41.9612C0.782944 41.9612 15.2016 41.1977 27.0075 40.4646V38.432Z"
    fill="#6D6E70"
  />
<path
    d="M27.0075 34.6602C14.317 35.4085 0.782944 36.0203 0.782944 36.0203V38.4624C0.782944 38.4624 15.3959 37.5321 27.0075 36.6725V34.6602Z"
    fill="#6D6E70"
  />
<path
    d="M27.0075 30.868C14.404 31.7478 0.782944 32.486 0.782944 32.486V34.9737C0.782944 34.9737 15.5902 33.8512 27.0075 32.8602V30.8731V30.868Z"
    fill="#6D6E70"
  />
<path
    d="M27.0075 27.0404C14.4807 28.0668 0.777832 28.9415 0.777832 28.9415V31.4696C0.777832 31.4696 15.7845 30.1247 27.0075 28.9921V27.0404Z"
    fill="#6D6E70"
  />
<path d="M235.272 66.4467V27.6853H231.963V66.4467H235.272Z" fill="#003399" />
<path
    d="M150.608 33.2083C151.552 33.2083 153.115 33.3453 154.135 33.7666C154.445 33.9037 154.562 34.056 154.501 34.3656L154.328 35.1575C154.273 35.391 154.176 35.4874 153.826 35.4468C152.882 35.3301 151.724 35.1981 150.719 35.1981C148.095 35.1981 147.709 37.3199 147.709 39.8275C147.709 42.3352 148.191 44.3402 150.719 44.3402C151.836 44.3402 152.78 44.2235 153.826 44.0915C154.191 44.0509 154.267 44.1473 154.349 44.4011L154.501 45.1321C154.577 45.4418 154.481 45.6143 154.171 45.7514C153.227 46.1575 151.547 46.3301 150.602 46.3301C146.303 46.3301 145.394 43.1473 145.394 39.8682C145.394 36.589 146.207 33.2133 150.602 33.2133L150.608 33.2083Z"
    fill="#58595B"
  />
<path
    d="M160.024 46.2996C156.145 46.2996 155.897 43.4672 155.897 41.2641C155.897 39.4519 156.303 36.5027 160.024 36.5027C163.744 36.5027 164.288 38.99 164.288 41.2641C164.288 43.5382 164.018 46.2996 160.024 46.2996ZM160.044 38.3555C158.404 38.3555 158.039 39.3961 158.039 41.4012C158.039 43.4062 158.404 44.4468 160.024 44.4468C161.78 44.4468 162.125 43.4621 162.125 41.4012C162.125 39.3402 161.795 38.3555 160.044 38.3555Z"
    fill="#58595B"
  />
<path
    d="M179.638 46.1472H178.247C177.978 46.1472 177.882 46.0304 177.882 45.7817V40.3045C177.882 38.8782 177.536 38.4721 176.572 38.4721C175.856 38.4721 174.699 39.0304 174.105 39.3401C174.105 39.533 174.125 39.8782 174.125 40.3249V45.7817C174.125 46.0152 174.049 46.1472 173.76 46.1472H172.354C172.105 46.1472 172.024 46.0304 172.024 45.7817V40.2081C172.024 39.0304 171.714 38.4721 170.75 38.4721C170.075 38.4721 168.993 38.9543 168.262 39.3401V45.7817C168.262 46.0152 168.166 46.1472 167.897 46.1472H166.506C166.257 46.1472 166.161 46.0304 166.161 45.7817V37.0812C166.161 36.8325 166.257 36.6954 166.506 36.6954H167.877C168.166 36.6954 168.262 36.8477 168.262 37.0812V37.6396L168.283 37.6599C169.034 37.137 170.095 36.5584 171.156 36.5228C172.272 36.5228 173.201 36.7563 173.795 37.8731C174.76 37.1573 175.953 36.5228 177.191 36.5228C179.734 36.5228 179.988 38.1827 179.988 40.1117V45.7817C179.988 46.0152 179.912 46.1472 179.643 46.1472H179.638Z"
    fill="#58595B"
  />
<path
    d="M183.42 35.3096C182.415 35.3096 182.283 34.7512 182.283 34.1928C182.283 33.5735 182.496 33.0913 183.42 33.0913C184.344 33.0913 184.557 33.5329 184.557 34.1928C184.557 34.7918 184.384 35.3096 183.42 35.3096ZM184.44 45.7817C184.44 45.9949 184.364 46.1471 184.095 46.1471H182.724C182.455 46.1471 182.339 46.0304 182.339 45.7817V37.0659C182.339 36.7969 182.455 36.7004 182.724 36.7004H184.095C184.364 36.7004 184.44 36.8527 184.44 37.0659V45.7817Z"
    fill="#58595B"
  />
<path
    d="M189.998 46.2996C189.034 46.2996 187.739 46.1626 187.008 45.8732C186.623 45.721 186.546 45.5433 186.602 45.2387L186.739 44.6042C186.8 44.2946 186.932 44.2743 187.242 44.3149C188.09 44.4519 189.323 44.5484 189.983 44.5484C191.217 44.5484 191.719 44.2184 191.719 43.4468C191.719 42.5585 191.394 42.3656 190.176 42.193C188.288 41.924 186.628 41.5179 186.628 39.4164C186.628 37.5078 188.095 36.5027 190.252 36.5027C191.044 36.5027 192.374 36.6194 193.186 36.9291C193.516 37.0661 193.648 37.2184 193.592 37.5078L193.44 38.2032C193.379 38.4722 193.267 38.5128 192.917 38.4722C192.09 38.3758 191.008 38.259 190.293 38.259C189.059 38.259 188.77 38.6042 188.77 39.3402C188.77 40.0763 189.232 40.188 190.409 40.3809C192.242 40.6499 193.902 41.0154 193.902 43.3149C193.902 45.6144 191.993 46.3047 190.003 46.3047L189.998 46.2996Z"
    fill="#58595B"
  />
<path
    d="M198.851 46.2996C197.886 46.2996 196.592 46.1626 195.861 45.8732C195.475 45.721 195.399 45.5433 195.455 45.2387L195.592 44.6042C195.648 44.2946 195.785 44.2743 196.095 44.3149C196.942 44.4519 198.176 44.5484 198.831 44.5484C200.064 44.5484 200.567 44.2184 200.567 43.4468C200.567 42.5585 200.237 42.3656 199.024 42.193C197.135 41.924 195.475 41.5179 195.475 39.4164C195.475 37.5078 196.942 36.5027 199.1 36.5027C199.892 36.5027 201.221 36.6194 202.034 36.9291C202.364 37.0661 202.496 37.2184 202.44 37.5078L202.287 38.2032C202.232 38.4722 202.115 38.5128 201.765 38.4722C200.937 38.3758 199.856 38.259 199.14 38.259C197.907 38.259 197.617 38.6042 197.617 39.3402C197.617 40.0763 198.079 40.188 199.257 40.3809C201.089 40.6499 202.749 41.0154 202.749 43.3149C202.749 45.6144 200.841 46.3047 198.856 46.3047L198.851 46.2996Z"
    fill="#58595B"
  />
<path
    d="M210.501 45.0457C209.536 45.7767 208.242 46.2996 206.953 46.2996C204.907 46.2996 204.308 45.1828 204.308 43.5635C204.288 41.3046 205.506 40.3402 207.932 40.3402H210.399V39.8376C210.399 38.6803 209.978 38.2742 208.394 38.2742C207.76 38.2742 206.541 38.3706 205.77 38.4468C205.384 38.5026 205.288 38.4874 205.232 38.2133L205.059 37.4975C205.019 37.2488 205.08 37.0914 205.501 36.9188C206.328 36.6295 207.856 36.4924 208.76 36.4924C212.095 36.4924 212.501 37.863 212.501 40.0204V43.7412C212.501 44.5331 212.597 44.5534 213.196 44.6295C213.486 44.6498 213.562 44.7056 213.562 44.9188V45.731C213.562 45.9442 213.425 46.0762 213.1 46.1371C212.79 46.193 212.481 46.2336 212.191 46.2336C211.283 46.2336 210.724 45.9645 210.531 45.0559L210.491 45.0356L210.501 45.0457ZM207.298 34.594C207.029 34.594 206.643 34.6701 206.237 35.3249C206.14 35.4772 206.085 35.5381 205.831 35.4011L205.293 35.1676C205.176 35.127 205.12 34.9747 205.176 34.8021C205.699 33.4315 206.582 32.9696 207.298 32.9696C208.338 32.9696 209.516 33.9341 210.267 33.9341C210.709 33.9341 211.003 33.7209 211.272 33.2183C211.369 33.0661 211.465 33.0051 211.699 33.1016L212.237 33.3503C212.43 33.4265 212.409 33.5635 212.374 33.7158C211.871 35.0457 211.161 35.5686 210.293 35.5686C209.425 35.5686 208.074 34.5838 207.303 34.5838L207.298 34.594ZM210.384 41.8478H208.034C207.069 41.8478 206.45 42.193 206.45 43.4671C206.45 44.3148 206.739 44.5838 207.648 44.5838C208.475 44.5838 209.653 44.1016 210.384 43.6752V41.8427V41.8478Z"
    fill="#58595B"
  />
<path
    d="M218.892 46.2996C215.013 46.2996 214.765 43.4672 214.765 41.2641C214.765 39.4519 215.171 36.5027 218.892 36.5027C222.612 36.5027 223.156 38.99 223.156 41.2641C223.156 43.5382 222.887 46.2996 218.892 46.2996ZM218.912 38.3555C217.272 38.3555 216.907 39.3961 216.907 41.4012C216.907 43.4062 217.272 44.4468 218.892 44.4468C220.648 44.4468 220.993 43.4621 220.993 41.4012C220.993 39.3402 220.663 38.3555 218.912 38.3555Z"
    fill="#58595B"
  />
<path
    d="M145.435 54.0302C145.435 53.7815 145.552 53.6444 145.821 53.6444H152.917C153.151 53.6444 153.283 53.7815 153.283 54.0099V55.2079C153.283 55.4414 153.186 55.553 152.897 55.553H147.633V58.8728H152.298C152.547 58.8728 152.684 58.9896 152.684 59.218V60.416C152.684 60.6495 152.587 60.7612 152.298 60.7612H147.633V64.5581H153.034C153.267 64.5581 153.379 64.6749 153.379 64.9236V66.1013C153.379 66.35 153.283 66.4464 153.014 66.4464H145.821C145.552 66.4464 145.435 66.3297 145.435 66.1013V54.0251V54.0302Z"
    fill="#58595B"
  />
<path
    d="M163.1 66.4518H161.729C161.44 66.4518 161.364 66.3147 161.364 66.0863V65.4873L161.323 65.467C160.572 65.9898 159.257 66.6244 158.085 66.6244C155.481 66.6244 155.232 65.0812 155.232 63.0558V57.3858C155.232 57.1523 155.328 57 155.597 57H157.003C157.252 57 157.349 57.1371 157.349 57.3858V62.8071C157.349 63.9645 157.582 64.6954 158.755 64.6954C159.582 64.6954 160.856 64.0761 161.359 63.8274V57.3858C161.359 57.1523 161.435 57 161.724 57H163.095C163.364 57 163.46 57.1371 163.46 57.3858V66.0863C163.46 66.335 163.364 66.4518 163.095 66.4518H163.1Z"
    fill="#58595B"
  />
<path
    d="M167.998 66.0862C167.998 66.3197 167.902 66.4517 167.633 66.4517H166.247C165.978 66.4517 165.881 66.3349 165.881 66.0862V57.3857C165.881 57.1369 165.978 56.9999 166.247 56.9999H167.617C167.907 56.9999 168.003 57.1522 168.003 57.3857V58.2334L168.044 58.274C168.623 57.7359 169.993 57.076 170.897 56.9034C171.145 56.8476 171.323 56.9034 171.359 57.2334L171.496 58.5278C171.516 58.7968 171.536 58.9136 171.13 58.9897C170.049 59.2029 168.683 59.5887 168.008 59.8781V66.0862H167.998Z"
    fill="#58595B"
  />
<path
    d="M176.486 66.6042C172.607 66.6042 172.359 63.7717 172.359 61.5687C172.359 59.7565 172.765 56.8073 176.486 56.8073C180.206 56.8073 180.75 59.2946 180.75 61.5687C180.75 63.8428 180.481 66.6042 176.486 66.6042ZM176.506 58.66C174.866 58.66 174.501 59.7007 174.501 61.7057C174.501 63.7108 174.866 64.7514 176.486 64.7514C178.242 64.7514 178.587 63.7666 178.587 61.7057C178.587 59.6448 178.257 58.66 176.506 58.66Z"
    fill="#58595B"
  />
<path
    d="M187.135 66.6244C186.501 66.6244 185.612 66.5077 184.724 66.198L184.704 66.2183V69.6143C184.704 69.8275 184.643 70.0001 184.338 70.0001H182.968C182.658 70.0001 182.602 69.863 182.602 69.6143V57.3858C182.602 57.1371 182.699 57.0001 182.968 57.0001H184.338C184.607 57.0001 184.684 57.1523 184.684 57.3858V57.9645L184.744 58.0051C185.44 57.5229 186.673 56.8478 187.79 56.8478C190.318 56.8478 190.973 58.7564 190.973 61.6701C190.973 64.8122 190.181 66.6244 187.135 66.6244ZM187.288 58.7767C186.496 58.7767 185.282 59.3351 184.704 59.6447V64.4671C185.572 64.7158 186.267 64.797 186.922 64.797C188.308 64.797 188.795 64.0813 188.795 61.6549C188.795 59.2285 188.313 58.7818 187.293 58.7818L187.288 58.7767Z"
    fill="#58595B"
  />
<path
    d="M194.679 62.3044C194.74 64.2536 195.43 64.7917 197.014 64.7917C197.709 64.7917 198.79 64.6546 199.521 64.5785C199.866 64.5379 199.983 64.5379 200.044 64.9085L200.161 65.543C200.217 65.8323 200.181 65.9846 199.831 66.142C199.08 66.4313 197.674 66.6242 196.724 66.6242C193.039 66.6242 192.501 64.2739 192.501 61.7663C192.501 59.8932 192.846 56.812 196.608 56.812C200.059 56.812 200.679 59.0506 200.734 61.1318C200.755 61.8272 200.562 62.3095 199.79 62.3095H194.679V62.3044ZM194.699 60.8577H198.516C198.516 59.68 198.207 58.543 196.608 58.543C195.181 58.543 194.795 59.411 194.699 60.8577Z"
    fill="#58595B"
  />
<path
    d="M203.841 55.6144C202.836 55.6144 202.704 55.056 202.704 54.4976C202.704 53.8784 202.917 53.3961 203.841 53.3961C204.765 53.3961 204.978 53.8377 204.978 54.4976C204.978 55.0966 204.805 55.6144 203.841 55.6144ZM204.861 66.0865C204.861 66.2997 204.785 66.452 204.516 66.452H203.145C202.876 66.452 202.759 66.3352 202.759 66.0865V57.3707C202.759 57.1017 202.876 57.0053 203.145 57.0053H204.516C204.785 57.0053 204.861 57.1575 204.861 57.3707V66.0865Z"
    fill="#58595B"
  />
<path
    d="M213.212 65.3503C212.247 66.0813 210.953 66.6041 209.663 66.6041C207.618 66.6041 207.019 65.4873 207.019 63.8681C206.998 61.6092 208.217 60.6447 210.643 60.6447H213.11V60.1422C213.11 58.9848 212.689 58.5787 211.105 58.5787C210.471 58.5787 209.252 58.6752 208.481 58.7513C208.095 58.8071 207.998 58.7919 207.943 58.5178L207.77 57.8021C207.729 57.5533 207.79 57.396 208.212 57.2234C209.039 56.9341 210.567 56.797 211.471 56.797C214.806 56.797 215.212 58.1676 215.212 60.3249V64.0457C215.212 64.8376 215.308 64.8579 215.907 64.9341C216.196 64.9544 216.273 65.0102 216.273 65.2234V66.0356C216.273 66.2488 216.135 66.3808 215.811 66.4417C215.501 66.4975 215.191 66.5381 214.902 66.5381C213.993 66.5381 213.435 66.2691 213.242 65.3604L213.201 65.3401L213.212 65.3503ZM213.095 62.1472H210.745C209.78 62.1472 209.161 62.4924 209.161 63.7665C209.161 64.6143 209.45 64.8833 210.359 64.8833C211.186 64.8833 212.364 64.4011 213.095 63.9747V62.1422V62.1472Z"
    fill="#58595B"
  />
</svg>
