<svg
  width="291"
  height="72"
  viewBox="0 0 291 72"
  fill="none"
  xmlns="http://www.w3.org/2000/svg"
>
<path
    d="M145.394 33.323C145.394 33.0564 145.528 32.923 145.794 32.923H153.154C153.408 32.923 153.534 33.0497 153.534 33.303V34.543C153.534 34.783 153.401 34.903 153.134 34.903H147.674V38.343H152.514C152.781 38.343 152.914 38.463 152.914 38.703V39.943C152.914 40.183 152.781 40.303 152.514 40.303H147.674V44.243H153.274C153.514 44.243 153.634 44.3697 153.634 44.623V45.843C153.634 46.083 153.508 46.203 153.254 46.203H145.794C145.528 46.203 145.394 46.083 145.394 45.843V33.323Z"
    fill="#626366"
  />
<path
    d="M164.101 45.823C164.101 46.0764 163.974 46.203 163.721 46.203H162.301C162.154 46.203 162.054 46.1697 162.001 46.103C161.947 46.0364 161.921 45.943 161.921 45.823V45.203L161.881 45.183C161.681 45.3164 161.447 45.4564 161.181 45.603C160.927 45.7364 160.654 45.863 160.361 45.983C160.067 46.103 159.761 46.1964 159.441 46.263C159.134 46.343 158.827 46.383 158.521 46.383C157.841 46.383 157.301 46.2897 156.901 46.103C156.514 45.9164 156.221 45.6564 156.021 45.323C155.821 44.9897 155.694 44.5964 155.641 44.143C155.587 43.6897 155.561 43.203 155.561 42.683V36.803C155.561 36.5364 155.687 36.403 155.941 36.403H157.401C157.641 36.403 157.761 36.5364 157.761 36.803V42.423C157.761 42.7297 157.781 43.003 157.821 43.243C157.861 43.483 157.934 43.6897 158.041 43.863C158.147 44.023 158.294 44.1497 158.481 44.243C158.667 44.3364 158.914 44.383 159.221 44.383C159.434 44.383 159.667 44.3497 159.921 44.283C160.187 44.2164 160.447 44.1364 160.701 44.043C160.954 43.9364 161.187 43.8364 161.401 43.743C161.614 43.6364 161.787 43.5497 161.921 43.483V36.803C161.921 36.683 161.947 36.5897 162.001 36.523C162.054 36.443 162.154 36.403 162.301 36.403H163.721C163.974 36.403 164.101 36.5364 164.101 36.803V45.823Z"
    fill="#626366"
  />
<path
    d="M168.806 45.823C168.806 46.0764 168.679 46.203 168.426 46.203H166.986C166.732 46.203 166.606 46.0764 166.606 45.823V36.803C166.606 36.5364 166.732 36.403 166.986 36.403H168.406C168.672 36.403 168.806 36.5364 168.806 36.803V37.683L168.846 37.723C168.992 37.5897 169.186 37.4497 169.426 37.303C169.666 37.143 169.919 37.003 170.186 36.883C170.466 36.7497 170.746 36.6297 171.026 36.523C171.306 36.4164 171.566 36.343 171.806 36.303C171.939 36.2764 172.046 36.283 172.126 36.323C172.206 36.363 172.259 36.4697 172.286 36.643L172.426 37.983C172.439 38.1297 172.432 38.2364 172.406 38.303C172.379 38.3697 172.259 38.423 172.046 38.463C171.766 38.5164 171.472 38.583 171.166 38.663C170.859 38.7297 170.559 38.8097 170.266 38.903C169.972 38.983 169.699 39.063 169.446 39.143C169.192 39.223 168.979 39.303 168.806 39.383V45.823Z"
    fill="#626366"
  />
<path
    d="M182.031 41.143C182.031 41.7164 181.991 42.3097 181.911 42.923C181.844 43.5364 181.664 44.103 181.371 44.623C181.077 45.1297 180.637 45.5497 180.051 45.883C179.464 46.203 178.651 46.363 177.611 46.363C176.611 46.363 175.824 46.203 175.251 45.883C174.677 45.5497 174.244 45.1297 173.951 44.623C173.671 44.103 173.497 43.5364 173.431 42.923C173.364 42.3097 173.331 41.7164 173.331 41.143C173.331 40.6764 173.371 40.1564 173.451 39.583C173.544 39.0097 173.737 38.4764 174.031 37.983C174.324 37.4764 174.751 37.0564 175.311 36.723C175.884 36.3764 176.651 36.203 177.611 36.203C178.584 36.203 179.357 36.3497 179.931 36.643C180.517 36.9364 180.964 37.323 181.271 37.803C181.577 38.2697 181.777 38.7964 181.871 39.383C181.977 39.9697 182.031 40.5564 182.031 41.143ZM179.791 41.283C179.791 40.7497 179.764 40.2897 179.711 39.903C179.657 39.503 179.551 39.1764 179.391 38.923C179.231 38.6564 179.011 38.4564 178.731 38.323C178.451 38.1897 178.084 38.123 177.631 38.123C177.204 38.123 176.857 38.1897 176.591 38.323C176.324 38.4564 176.111 38.6564 175.951 38.923C175.804 39.1897 175.697 39.523 175.631 39.923C175.577 40.3097 175.551 40.763 175.551 41.283C175.551 41.8164 175.577 42.283 175.631 42.683C175.697 43.0697 175.804 43.3964 175.951 43.663C176.097 43.9164 176.304 44.1097 176.571 44.243C176.837 44.3764 177.184 44.443 177.611 44.443C178.064 44.443 178.431 44.383 178.711 44.263C179.004 44.1297 179.231 43.9364 179.391 43.683C179.551 43.4164 179.657 43.083 179.711 42.683C179.764 42.283 179.791 41.8164 179.791 41.283Z"
    fill="#626366"
  />
<path
    d="M192.64 41.243C192.64 42.0564 192.58 42.783 192.46 43.423C192.34 44.063 192.126 44.603 191.82 45.043C191.526 45.483 191.12 45.8164 190.6 46.043C190.093 46.2697 189.446 46.383 188.66 46.383C188.326 46.383 187.94 46.3497 187.5 46.283C187.073 46.2164 186.626 46.103 186.16 45.943L186.14 45.963V49.483C186.14 49.5897 186.113 49.683 186.06 49.763C186.02 49.843 185.92 49.883 185.76 49.883H184.34C184.18 49.883 184.073 49.8497 184.02 49.783C183.98 49.7164 183.96 49.6164 183.96 49.483V36.803C183.96 36.5364 184.086 36.403 184.34 36.403H185.76C185.906 36.403 186 36.443 186.04 36.523C186.093 36.5897 186.12 36.683 186.12 36.803V37.403L186.18 37.443C186.353 37.323 186.56 37.1964 186.8 37.063C187.053 36.9164 187.32 36.783 187.6 36.663C187.88 36.543 188.166 36.443 188.46 36.363C188.753 36.283 189.046 36.243 189.34 36.243C189.993 36.243 190.533 36.363 190.96 36.603C191.386 36.843 191.72 37.183 191.96 37.623C192.213 38.0497 192.386 38.5697 192.48 39.183C192.586 39.7964 192.64 40.483 192.64 41.243ZM190.38 41.223C190.38 40.583 190.346 40.0697 190.28 39.683C190.226 39.2964 190.133 38.9964 190 38.783C189.866 38.5697 189.7 38.4297 189.5 38.363C189.313 38.283 189.086 38.243 188.82 38.243C188.62 38.243 188.393 38.2764 188.14 38.343C187.886 38.4097 187.633 38.4897 187.38 38.583C187.14 38.663 186.906 38.7564 186.68 38.863C186.466 38.9697 186.286 39.063 186.14 39.143V44.143C186.593 44.2764 187 44.3697 187.36 44.423C187.733 44.463 188.093 44.483 188.44 44.483C188.8 44.483 189.1 44.4364 189.34 44.343C189.593 44.2364 189.793 44.0564 189.94 43.803C190.1 43.5497 190.213 43.2164 190.28 42.803C190.346 42.3764 190.38 41.8497 190.38 41.223Z"
    fill="#626366"
  />
<path
    d="M200.489 41.743H198.049C197.543 41.743 197.143 41.863 196.849 42.103C196.556 42.3297 196.409 42.7697 196.409 43.423C196.409 43.863 196.496 44.1697 196.669 44.343C196.856 44.503 197.183 44.583 197.649 44.583C197.863 44.583 198.096 44.5564 198.349 44.503C198.603 44.4497 198.856 44.3764 199.109 44.283C199.363 44.1897 199.609 44.0897 199.849 43.983C200.089 43.863 200.303 43.7497 200.489 43.643V41.743ZM200.609 45.063C200.103 45.4497 199.529 45.763 198.889 46.003C198.263 46.243 197.609 46.363 196.929 46.363C196.396 46.363 195.949 46.2964 195.589 46.163C195.243 46.0164 194.963 45.823 194.749 45.583C194.549 45.3297 194.403 45.0297 194.309 44.683C194.229 44.3364 194.189 43.9497 194.189 43.523C194.176 42.3497 194.483 41.503 195.109 40.983C195.736 40.4497 196.683 40.183 197.949 40.183H200.509V39.663C200.509 39.3697 200.476 39.123 200.409 38.923C200.356 38.7097 200.249 38.5364 200.089 38.403C199.929 38.2697 199.716 38.1764 199.449 38.123C199.183 38.0697 198.843 38.043 198.429 38.043C198.269 38.043 198.069 38.0497 197.829 38.063C197.603 38.0764 197.363 38.0897 197.109 38.103C196.869 38.1164 196.623 38.1364 196.369 38.163C196.129 38.1897 195.909 38.2097 195.709 38.223C195.509 38.2497 195.369 38.2564 195.289 38.243C195.223 38.2164 195.176 38.1297 195.149 37.983L194.969 37.243C194.943 37.1097 194.956 37.003 195.009 36.923C195.063 36.8297 195.203 36.7364 195.429 36.643C195.643 36.563 195.896 36.4964 196.189 36.443C196.483 36.3897 196.783 36.3497 197.089 36.323C197.396 36.283 197.696 36.2564 197.989 36.243C198.296 36.2164 198.569 36.203 198.809 36.203C199.676 36.203 200.363 36.2897 200.869 36.463C201.389 36.6364 201.783 36.883 202.049 37.203C202.316 37.5097 202.489 37.8897 202.569 38.343C202.649 38.7964 202.689 39.303 202.689 39.863V43.723C202.689 43.923 202.696 44.083 202.709 44.203C202.736 44.3097 202.769 44.3964 202.809 44.463C202.863 44.5164 202.936 44.5564 203.029 44.583C203.123 44.6097 203.249 44.6297 203.409 44.643C203.556 44.6564 203.656 44.683 203.709 44.723C203.763 44.763 203.789 44.8364 203.789 44.943V45.783C203.789 46.0097 203.629 46.1497 203.309 46.203C203.149 46.2297 202.989 46.2497 202.829 46.263C202.669 46.2897 202.516 46.303 202.369 46.303C201.903 46.303 201.523 46.2164 201.229 46.043C200.949 45.8697 200.756 45.5497 200.649 45.083L200.609 45.063ZM196.989 35.063C196.736 35.063 196.536 35.0364 196.389 34.983C196.243 34.9164 196.129 34.8297 196.049 34.723C195.969 34.6164 195.916 34.4964 195.889 34.363C195.876 34.2297 195.869 34.0897 195.869 33.943C195.869 33.6364 195.936 33.383 196.069 33.183C196.216 32.983 196.523 32.883 196.989 32.883C197.456 32.883 197.756 32.983 197.889 33.183C198.023 33.3697 198.089 33.623 198.089 33.943C198.089 34.2497 198.023 34.5164 197.889 34.743C197.756 34.9564 197.456 35.063 196.989 35.063ZM200.869 35.063C200.389 35.063 200.083 34.9497 199.949 34.723C199.829 34.4964 199.769 34.2364 199.769 33.943C199.769 33.6364 199.843 33.383 199.989 33.183C200.136 32.983 200.429 32.883 200.869 32.883C201.336 32.883 201.636 32.983 201.769 33.183C201.916 33.3697 201.989 33.623 201.989 33.943C201.989 34.2497 201.923 34.5164 201.789 34.743C201.656 34.9564 201.349 35.063 200.869 35.063Z"
    fill="#626366"
  />
<path
    d="M207.29 41.903C207.303 42.4097 207.357 42.8297 207.45 43.163C207.557 43.4964 207.71 43.763 207.91 43.963C208.11 44.1497 208.357 44.283 208.65 44.363C208.943 44.443 209.297 44.483 209.71 44.483C210.07 44.483 210.497 44.4564 210.99 44.403C211.483 44.3497 211.923 44.303 212.31 44.263C212.497 44.2364 212.623 44.243 212.69 44.283C212.77 44.3097 212.823 44.4164 212.85 44.603L212.97 45.263C212.997 45.4097 212.99 45.5297 212.95 45.623C212.923 45.7164 212.817 45.803 212.63 45.883C212.43 45.963 212.197 46.0364 211.93 46.103C211.663 46.1564 211.383 46.203 211.09 46.243C210.797 46.283 210.503 46.3164 210.21 46.343C209.917 46.3697 209.65 46.383 209.41 46.383C208.45 46.383 207.683 46.243 207.11 45.963C206.537 45.683 206.097 45.3097 205.79 44.843C205.483 44.3764 205.277 43.843 205.17 43.243C205.077 42.6297 205.03 41.9964 205.03 41.343C205.03 40.863 205.07 40.323 205.15 39.723C205.23 39.123 205.41 38.563 205.69 38.043C205.983 37.523 206.41 37.0897 206.97 36.743C207.543 36.383 208.317 36.203 209.29 36.203C210.183 36.203 210.903 36.3364 211.45 36.603C212.01 36.8697 212.443 37.2164 212.75 37.643C213.057 38.0564 213.263 38.5364 213.37 39.083C213.49 39.6164 213.557 40.1497 213.57 40.683C213.583 41.043 213.523 41.3364 213.39 41.563C213.257 41.7897 212.99 41.903 212.59 41.903H207.29ZM209.29 38.003C208.917 38.003 208.61 38.0564 208.37 38.163C208.13 38.2697 207.93 38.4297 207.77 38.643C207.623 38.843 207.517 39.0964 207.45 39.403C207.383 39.6964 207.337 40.0297 207.31 40.403H211.27C211.27 40.0964 211.243 39.803 211.19 39.523C211.137 39.2297 211.037 38.9697 210.89 38.743C210.757 38.5164 210.557 38.3364 210.29 38.203C210.037 38.0697 209.703 38.003 209.29 38.003Z"
    fill="#626366"
  />
<path
    d="M222.706 43.263C222.706 43.8497 222.593 44.343 222.366 44.743C222.14 45.1297 221.833 45.443 221.446 45.683C221.073 45.923 220.646 46.0964 220.166 46.203C219.686 46.3097 219.186 46.363 218.666 46.363C218.16 46.363 217.613 46.323 217.026 46.243C216.44 46.1764 215.953 46.0697 215.566 45.923C215.366 45.843 215.24 45.7564 215.186 45.663C215.133 45.5564 215.12 45.423 215.146 45.263L215.286 44.603C215.313 44.443 215.366 44.3497 215.446 44.323C215.526 44.283 215.646 44.2764 215.806 44.303C216.02 44.343 216.253 44.3764 216.506 44.403C216.773 44.4297 217.033 44.4564 217.286 44.483C217.553 44.4964 217.8 44.5097 218.026 44.523C218.266 44.5364 218.473 44.543 218.646 44.543C219.286 44.543 219.746 44.4564 220.026 44.283C220.306 44.0964 220.446 43.803 220.446 43.403C220.446 43.1764 220.42 42.9897 220.366 42.843C220.326 42.6964 220.246 42.5764 220.126 42.483C220.006 42.3897 219.84 42.3164 219.626 42.263C219.426 42.1964 219.166 42.143 218.846 42.103C218.353 42.0364 217.886 41.9497 217.446 41.843C217.006 41.7364 216.613 41.583 216.266 41.383C215.933 41.1697 215.666 40.8964 215.466 40.563C215.266 40.2164 215.166 39.7697 215.166 39.223C215.166 38.2364 215.513 37.4897 216.206 36.983C216.9 36.463 217.806 36.203 218.926 36.203C219.126 36.203 219.36 36.2097 219.626 36.223C219.893 36.2364 220.16 36.263 220.426 36.303C220.706 36.343 220.98 36.3897 221.246 36.443C221.513 36.4964 221.753 36.563 221.966 36.643C222.3 36.7764 222.44 36.9764 222.386 37.243L222.226 37.963C222.2 38.1097 222.146 38.203 222.066 38.243C222 38.2697 221.873 38.2697 221.686 38.243C221.26 38.1897 220.793 38.143 220.286 38.103C219.78 38.0497 219.34 38.023 218.966 38.023C218.326 38.023 217.9 38.1164 217.686 38.303C217.486 38.4764 217.386 38.7564 217.386 39.143C217.386 39.5297 217.513 39.783 217.766 39.903C218.033 40.023 218.473 40.1297 219.086 40.223C219.566 40.2897 220.02 40.3764 220.446 40.483C220.886 40.5897 221.273 40.7497 221.606 40.963C221.94 41.1764 222.206 41.463 222.406 41.823C222.606 42.183 222.706 42.663 222.706 43.263Z"
    fill="#626366"
  />
<path
    d="M232.006 45.283C232.046 45.4297 232.046 45.5497 232.006 45.643C231.966 45.7364 231.853 45.823 231.666 45.903C231.279 46.063 230.799 46.1764 230.226 46.243C229.653 46.323 229.119 46.363 228.626 46.363C227.693 46.363 226.939 46.223 226.366 45.943C225.806 45.663 225.373 45.2897 225.066 44.823C224.773 44.3564 224.579 43.8164 224.486 43.203C224.393 42.5764 224.346 41.923 224.346 41.243C224.346 40.6297 224.393 40.023 224.486 39.423C224.593 38.8097 224.793 38.2697 225.086 37.803C225.393 37.323 225.826 36.9364 226.386 36.643C226.959 36.3497 227.706 36.203 228.626 36.203C228.853 36.203 229.099 36.2097 229.366 36.223C229.646 36.2364 229.919 36.263 230.186 36.303C230.466 36.343 230.733 36.3964 230.986 36.463C231.253 36.5164 231.493 36.5897 231.706 36.683C231.946 36.7897 232.046 36.9764 232.006 37.243L231.866 38.043C231.826 38.1897 231.759 38.2764 231.666 38.303C231.573 38.3297 231.433 38.3364 231.246 38.323C230.833 38.283 230.406 38.243 229.966 38.203C229.539 38.163 229.153 38.143 228.806 38.143C227.993 38.143 227.426 38.3764 227.106 38.843C226.786 39.3097 226.626 40.0964 226.626 41.203C226.626 41.8297 226.659 42.3497 226.726 42.763C226.806 43.1764 226.933 43.5097 227.106 43.763C227.279 44.0164 227.499 44.1964 227.766 44.303C228.046 44.3964 228.386 44.443 228.786 44.443C229.093 44.443 229.493 44.4297 229.986 44.403C230.493 44.363 230.953 44.3164 231.366 44.263C231.526 44.2364 231.646 44.2364 231.726 44.263C231.806 44.2897 231.859 44.3897 231.886 44.563L232.006 45.283Z"
    fill="#626366"
  />
<path
    d="M242.031 45.823C242.031 46.0764 241.897 46.203 241.631 46.203H240.211C239.944 46.203 239.811 46.0764 239.811 45.823C239.811 44.8497 239.811 43.8897 239.811 42.943C239.824 41.983 239.831 41.0164 239.831 40.043C239.831 39.483 239.737 39.0364 239.551 38.703C239.377 38.3564 238.991 38.183 238.391 38.183C238.191 38.183 237.957 38.223 237.691 38.303C237.437 38.3697 237.177 38.4497 236.911 38.543C236.657 38.6364 236.417 38.7364 236.191 38.843C235.964 38.9497 235.784 39.0297 235.651 39.083V45.823C235.651 45.943 235.624 46.0364 235.571 46.103C235.517 46.1697 235.417 46.203 235.271 46.203H233.851C233.611 46.203 233.491 46.0764 233.491 45.823V32.483C233.491 32.2297 233.611 32.103 233.851 32.103H235.271C235.537 32.103 235.671 32.2297 235.671 32.483V37.323C235.844 37.2164 236.057 37.103 236.311 36.983C236.564 36.8497 236.837 36.7297 237.131 36.623C237.424 36.503 237.731 36.4097 238.051 36.343C238.371 36.263 238.684 36.223 238.991 36.223C239.684 36.223 240.231 36.3297 240.631 36.543C241.031 36.743 241.331 37.0164 241.531 37.363C241.744 37.7097 241.877 38.1164 241.931 38.583C241.997 39.0364 242.031 39.5164 242.031 40.023V45.823Z"
    fill="#626366"
  />
<path
    d="M147.694 59.3231L149.214 57.3631L152.574 53.2231C152.668 53.1164 152.761 53.0431 152.854 53.0031C152.948 52.9498 153.074 52.9231 153.234 52.9231H155.054C155.201 52.9231 155.288 52.9631 155.314 53.0431C155.354 53.1231 155.328 53.2164 155.234 53.3231L150.894 58.6031L155.374 65.7831C155.454 65.9164 155.468 66.0231 155.414 66.1031C155.361 66.1698 155.281 66.2031 155.174 66.2031H153.334C153.161 66.2031 153.028 66.1698 152.934 66.1031C152.854 66.0364 152.774 65.9431 152.694 65.8231L149.414 60.3831L147.654 62.5631V65.8231C147.654 65.9298 147.628 66.0231 147.574 66.1031C147.534 66.1698 147.441 66.2031 147.294 66.2031H145.794C145.528 66.2031 145.394 66.0764 145.394 65.8231V53.3231C145.394 53.0564 145.528 52.9231 145.794 52.9231H147.294C147.441 52.9231 147.534 52.9631 147.574 53.0431C147.628 53.1098 147.654 53.2031 147.654 53.3231V59.3231H147.694Z"
    fill="#626366"
  />
<path
    d="M165.256 61.1431C165.256 61.7164 165.216 62.3098 165.136 62.9231C165.069 63.5364 164.889 64.1031 164.596 64.6231C164.302 65.1298 163.862 65.5498 163.276 65.8831C162.689 66.2031 161.876 66.3631 160.836 66.3631C159.836 66.3631 159.049 66.2031 158.476 65.8831C157.902 65.5498 157.469 65.1298 157.176 64.6231C156.896 64.1031 156.722 63.5364 156.656 62.9231C156.589 62.3098 156.556 61.7164 156.556 61.1431C156.556 60.6764 156.596 60.1564 156.676 59.5831C156.769 59.0098 156.962 58.4764 157.256 57.9831C157.549 57.4764 157.976 57.0564 158.536 56.7231C159.109 56.3764 159.876 56.2031 160.836 56.2031C161.809 56.2031 162.582 56.3498 163.156 56.6431C163.742 56.9364 164.189 57.3231 164.496 57.8031C164.802 58.2698 165.002 58.7964 165.096 59.3831C165.202 59.9698 165.256 60.5564 165.256 61.1431ZM163.016 61.2831C163.016 60.7498 162.989 60.2898 162.936 59.9031C162.882 59.5031 162.776 59.1764 162.616 58.9231C162.456 58.6564 162.236 58.4564 161.956 58.3231C161.676 58.1898 161.309 58.1231 160.856 58.1231C160.429 58.1231 160.082 58.1898 159.816 58.3231C159.549 58.4564 159.336 58.6564 159.176 58.9231C159.029 59.1898 158.922 59.5231 158.856 59.9231C158.802 60.3098 158.776 60.7631 158.776 61.2831C158.776 61.8164 158.802 62.2831 158.856 62.6831C158.922 63.0698 159.029 63.3964 159.176 63.6631C159.322 63.9164 159.529 64.1098 159.796 64.2431C160.062 64.3764 160.409 64.4431 160.836 64.4431C161.289 64.4431 161.656 64.3831 161.936 64.2631C162.229 64.1298 162.456 63.9364 162.616 63.6831C162.776 63.4164 162.882 63.0831 162.936 62.6831C162.989 62.2831 163.016 61.8164 163.016 61.2831Z"
    fill="#626366"
  />
<path
    d="M181.545 65.8231C181.545 65.9431 181.518 66.0364 181.465 66.1031C181.425 66.1698 181.331 66.2031 181.185 66.2031H179.745C179.491 66.2031 179.365 66.0764 179.365 65.8231V60.1431C179.365 59.3964 179.265 58.8964 179.065 58.6431C178.865 58.3764 178.511 58.2431 178.005 58.2431C177.818 58.2431 177.605 58.2764 177.365 58.3431C177.138 58.4098 176.905 58.4898 176.665 58.5831C176.438 58.6631 176.218 58.7564 176.005 58.8631C175.791 58.9698 175.605 59.0631 175.445 59.1431C175.445 59.2498 175.445 59.3898 175.445 59.5631C175.458 59.7364 175.465 59.9364 175.465 60.1631V65.8231C175.465 65.9431 175.438 66.0364 175.385 66.1031C175.331 66.1698 175.231 66.2031 175.085 66.2031H173.625C173.398 66.2031 173.285 66.0764 173.285 65.8231V60.0431C173.285 59.4298 173.191 58.9764 173.005 58.6831C172.818 58.3898 172.471 58.2431 171.965 58.2431C171.791 58.2431 171.591 58.2698 171.365 58.3231C171.151 58.3764 170.925 58.4498 170.685 58.5431C170.458 58.6364 170.231 58.7364 170.005 58.8431C169.778 58.9498 169.571 59.0498 169.385 59.1431V65.8231C169.385 66.0764 169.258 66.2031 169.005 66.2031H167.565C167.325 66.2031 167.205 66.0764 167.205 65.8231V56.8031C167.205 56.5364 167.325 56.4031 167.565 56.4031H168.985C169.251 56.4031 169.385 56.5364 169.385 56.8031V57.3831L169.405 57.4031C169.605 57.2698 169.818 57.1364 170.045 57.0031C170.271 56.8564 170.511 56.7298 170.765 56.6231C171.031 56.5164 171.298 56.4298 171.565 56.3631C171.831 56.2831 172.105 56.2364 172.385 56.2231C172.958 56.2231 173.478 56.3164 173.945 56.5031C174.425 56.6764 174.818 57.0498 175.125 57.6231C175.631 57.2498 176.185 56.9231 176.785 56.6431C177.385 56.3631 178.005 56.2231 178.645 56.2231C179.298 56.2231 179.818 56.3231 180.205 56.5231C180.591 56.7231 180.885 56.9964 181.085 57.3431C181.285 57.6764 181.411 58.0698 181.465 58.5231C181.518 58.9764 181.545 59.4498 181.545 59.9431V65.8231Z"
    fill="#626366"
  />
<path
    d="M198.029 65.8231C198.029 65.9431 198.002 66.0364 197.949 66.1031C197.909 66.1698 197.816 66.2031 197.669 66.2031H196.229C195.976 66.2031 195.849 66.0764 195.849 65.8231V60.1431C195.849 59.3964 195.749 58.8964 195.549 58.6431C195.349 58.3764 194.996 58.2431 194.489 58.2431C194.302 58.2431 194.089 58.2764 193.849 58.3431C193.622 58.4098 193.389 58.4898 193.149 58.5831C192.922 58.6631 192.702 58.7564 192.489 58.8631C192.276 58.9698 192.089 59.0631 191.929 59.1431C191.929 59.2498 191.929 59.3898 191.929 59.5631C191.942 59.7364 191.949 59.9364 191.949 60.1631V65.8231C191.949 65.9431 191.922 66.0364 191.869 66.1031C191.816 66.1698 191.716 66.2031 191.569 66.2031H190.109C189.882 66.2031 189.769 66.0764 189.769 65.8231V60.0431C189.769 59.4298 189.676 58.9764 189.489 58.6831C189.302 58.3898 188.956 58.2431 188.449 58.2431C188.276 58.2431 188.076 58.2698 187.849 58.3231C187.636 58.3764 187.409 58.4498 187.169 58.5431C186.942 58.6364 186.716 58.7364 186.489 58.8431C186.262 58.9498 186.056 59.0498 185.869 59.1431V65.8231C185.869 66.0764 185.742 66.2031 185.489 66.2031H184.049C183.809 66.2031 183.689 66.0764 183.689 65.8231V56.8031C183.689 56.5364 183.809 56.4031 184.049 56.4031H185.469C185.736 56.4031 185.869 56.5364 185.869 56.8031V57.3831L185.889 57.4031C186.089 57.2698 186.302 57.1364 186.529 57.0031C186.756 56.8564 186.996 56.7298 187.249 56.6231C187.516 56.5164 187.782 56.4298 188.049 56.3631C188.316 56.2831 188.589 56.2364 188.869 56.2231C189.442 56.2231 189.962 56.3164 190.429 56.5031C190.909 56.6764 191.302 57.0498 191.609 57.6231C192.116 57.2498 192.669 56.9231 193.269 56.6431C193.869 56.3631 194.489 56.2231 195.129 56.2231C195.782 56.2231 196.302 56.3231 196.689 56.5231C197.076 56.7231 197.369 56.9964 197.569 57.3431C197.769 57.6764 197.896 58.0698 197.949 58.5231C198.002 58.9764 198.029 59.4498 198.029 59.9431V65.8231Z"
    fill="#626366"
  />
<path
    d="M202.773 53.8031C202.773 53.9631 202.76 54.1164 202.733 54.2631C202.707 54.3964 202.647 54.5164 202.553 54.6231C202.473 54.7298 202.353 54.8164 202.193 54.8831C202.047 54.9364 201.847 54.9631 201.593 54.9631C201.327 54.9631 201.113 54.9298 200.953 54.8631C200.807 54.7964 200.693 54.7098 200.613 54.6031C200.533 54.4964 200.48 54.3764 200.453 54.2431C200.427 54.0964 200.413 53.9498 200.413 53.8031C200.413 53.4831 200.487 53.2164 200.633 53.0031C200.793 52.7764 201.113 52.6631 201.593 52.6631C202.087 52.6631 202.407 52.7698 202.553 52.9831C202.7 53.1831 202.773 53.4564 202.773 53.8031ZM202.653 65.8231C202.653 65.9298 202.627 66.0231 202.573 66.1031C202.533 66.1698 202.44 66.2031 202.293 66.2031H200.873C200.607 66.2031 200.473 66.0764 200.473 65.8231V56.7831C200.473 56.5298 200.607 56.4031 200.873 56.4031H202.293C202.44 56.4031 202.533 56.4431 202.573 56.5231C202.627 56.5898 202.653 56.6764 202.653 56.7831V65.8231Z"
    fill="#626366"
  />
<path
    d="M212.455 63.2631C212.455 63.8498 212.341 64.3431 212.115 64.7431C211.888 65.1298 211.581 65.4431 211.195 65.6831C210.821 65.9231 210.395 66.0964 209.915 66.2031C209.435 66.3098 208.935 66.3631 208.415 66.3631C207.908 66.3631 207.361 66.3231 206.775 66.2431C206.188 66.1764 205.701 66.0698 205.315 65.9231C205.115 65.8431 204.988 65.7564 204.935 65.6631C204.881 65.5564 204.868 65.4231 204.895 65.2631L205.035 64.6031C205.061 64.4431 205.115 64.3498 205.195 64.3231C205.275 64.2831 205.395 64.2764 205.555 64.3031C205.768 64.3431 206.001 64.3764 206.255 64.4031C206.521 64.4298 206.781 64.4564 207.035 64.4831C207.301 64.4964 207.548 64.5098 207.775 64.5231C208.015 64.5364 208.221 64.5431 208.395 64.5431C209.035 64.5431 209.495 64.4564 209.775 64.2831C210.055 64.0964 210.195 63.8031 210.195 63.4031C210.195 63.1764 210.168 62.9898 210.115 62.8431C210.075 62.6964 209.995 62.5764 209.875 62.4831C209.755 62.3898 209.588 62.3164 209.375 62.2631C209.175 62.1964 208.915 62.1431 208.595 62.1031C208.101 62.0364 207.635 61.9498 207.195 61.8431C206.755 61.7364 206.361 61.5831 206.015 61.3831C205.681 61.1698 205.415 60.8964 205.215 60.5631C205.015 60.2164 204.915 59.7698 204.915 59.2231C204.915 58.2364 205.261 57.4898 205.955 56.9831C206.648 56.4631 207.555 56.2031 208.675 56.2031C208.875 56.2031 209.108 56.2098 209.375 56.2231C209.641 56.2364 209.908 56.2631 210.175 56.3031C210.455 56.3431 210.728 56.3898 210.995 56.4431C211.261 56.4964 211.501 56.5631 211.715 56.6431C212.048 56.7764 212.188 56.9764 212.135 57.2431L211.975 57.9631C211.948 58.1098 211.895 58.2031 211.815 58.2431C211.748 58.2698 211.621 58.2698 211.435 58.2431C211.008 58.1898 210.541 58.1431 210.035 58.1031C209.528 58.0498 209.088 58.0231 208.715 58.0231C208.075 58.0231 207.648 58.1164 207.435 58.3031C207.235 58.4764 207.135 58.7564 207.135 59.1431C207.135 59.5298 207.261 59.7831 207.515 59.9031C207.781 60.0231 208.221 60.1298 208.835 60.2231C209.315 60.2898 209.768 60.3764 210.195 60.4831C210.635 60.5898 211.021 60.7498 211.355 60.9631C211.688 61.1764 211.955 61.4631 212.155 61.8231C212.355 62.1831 212.455 62.6631 212.455 63.2631Z"
    fill="#626366"
  />
<path
    d="M221.634 63.2631C221.634 63.8498 221.521 64.3431 221.294 64.7431C221.068 65.1298 220.761 65.4431 220.374 65.6831C220.001 65.9231 219.574 66.0964 219.094 66.2031C218.614 66.3098 218.114 66.3631 217.594 66.3631C217.088 66.3631 216.541 66.3231 215.954 66.2431C215.368 66.1764 214.881 66.0698 214.494 65.9231C214.294 65.8431 214.168 65.7564 214.114 65.6631C214.061 65.5564 214.048 65.4231 214.074 65.2631L214.214 64.6031C214.241 64.4431 214.294 64.3498 214.374 64.3231C214.454 64.2831 214.574 64.2764 214.734 64.3031C214.948 64.3431 215.181 64.3764 215.434 64.4031C215.701 64.4298 215.961 64.4564 216.214 64.4831C216.481 64.4964 216.728 64.5098 216.954 64.5231C217.194 64.5364 217.401 64.5431 217.574 64.5431C218.214 64.5431 218.674 64.4564 218.954 64.2831C219.234 64.0964 219.374 63.8031 219.374 63.4031C219.374 63.1764 219.348 62.9898 219.294 62.8431C219.254 62.6964 219.174 62.5764 219.054 62.4831C218.934 62.3898 218.768 62.3164 218.554 62.2631C218.354 62.1964 218.094 62.1431 217.774 62.1031C217.281 62.0364 216.814 61.9498 216.374 61.8431C215.934 61.7364 215.541 61.5831 215.194 61.3831C214.861 61.1698 214.594 60.8964 214.394 60.5631C214.194 60.2164 214.094 59.7698 214.094 59.2231C214.094 58.2364 214.441 57.4898 215.134 56.9831C215.828 56.4631 216.734 56.2031 217.854 56.2031C218.054 56.2031 218.288 56.2098 218.554 56.2231C218.821 56.2364 219.088 56.2631 219.354 56.3031C219.634 56.3431 219.908 56.3898 220.174 56.4431C220.441 56.4964 220.681 56.5631 220.894 56.6431C221.228 56.7764 221.368 56.9764 221.314 57.2431L221.154 57.9631C221.128 58.1098 221.074 58.2031 220.994 58.2431C220.928 58.2698 220.801 58.2698 220.614 58.2431C220.188 58.1898 219.721 58.1431 219.214 58.1031C218.708 58.0498 218.268 58.0231 217.894 58.0231C217.254 58.0231 216.828 58.1164 216.614 58.3031C216.414 58.4764 216.314 58.7564 216.314 59.1431C216.314 59.5298 216.441 59.7831 216.694 59.9031C216.961 60.0231 217.401 60.1298 218.014 60.2231C218.494 60.2898 218.948 60.3764 219.374 60.4831C219.814 60.5898 220.201 60.7498 220.534 60.9631C220.868 61.1764 221.134 61.4631 221.334 61.8231C221.534 62.1831 221.634 62.6631 221.634 63.2631Z"
    fill="#626366"
  />
<path
    d="M226.074 53.8031C226.074 53.9631 226.061 54.1164 226.034 54.2631C226.007 54.3964 225.947 54.5164 225.854 54.6231C225.774 54.7298 225.654 54.8164 225.494 54.8831C225.347 54.9364 225.147 54.9631 224.894 54.9631C224.627 54.9631 224.414 54.9298 224.254 54.8631C224.107 54.7964 223.994 54.7098 223.914 54.6031C223.834 54.4964 223.781 54.3764 223.754 54.2431C223.727 54.0964 223.714 53.9498 223.714 53.8031C223.714 53.4831 223.787 53.2164 223.934 53.0031C224.094 52.7764 224.414 52.6631 224.894 52.6631C225.387 52.6631 225.707 52.7698 225.854 52.9831C226.001 53.1831 226.074 53.4564 226.074 53.8031ZM225.954 65.8231C225.954 65.9298 225.927 66.0231 225.874 66.1031C225.834 66.1698 225.741 66.2031 225.594 66.2031H224.174C223.907 66.2031 223.774 66.0764 223.774 65.8231V56.7831C223.774 56.5298 223.907 56.4031 224.174 56.4031H225.594C225.741 56.4031 225.834 56.4431 225.874 56.5231C225.927 56.5898 225.954 56.6764 225.954 56.7831V65.8231Z"
    fill="#626366"
  />
<path
    d="M236.935 61.1431C236.935 61.7164 236.895 62.3098 236.815 62.9231C236.749 63.5364 236.569 64.1031 236.275 64.6231C235.982 65.1298 235.542 65.5498 234.955 65.8831C234.369 66.2031 233.555 66.3631 232.515 66.3631C231.515 66.3631 230.729 66.2031 230.155 65.8831C229.582 65.5498 229.149 65.1298 228.855 64.6231C228.575 64.1031 228.402 63.5364 228.335 62.9231C228.269 62.3098 228.235 61.7164 228.235 61.1431C228.235 60.6764 228.275 60.1564 228.355 59.5831C228.449 59.0098 228.642 58.4764 228.935 57.9831C229.229 57.4764 229.655 57.0564 230.215 56.7231C230.789 56.3764 231.555 56.2031 232.515 56.2031C233.489 56.2031 234.262 56.3498 234.835 56.6431C235.422 56.9364 235.869 57.3231 236.175 57.8031C236.482 58.2698 236.682 58.7964 236.775 59.3831C236.882 59.9698 236.935 60.5564 236.935 61.1431ZM234.695 61.2831C234.695 60.7498 234.669 60.2898 234.615 59.9031C234.562 59.5031 234.455 59.1764 234.295 58.9231C234.135 58.6564 233.915 58.4564 233.635 58.3231C233.355 58.1898 232.989 58.1231 232.535 58.1231C232.109 58.1231 231.762 58.1898 231.495 58.3231C231.229 58.4564 231.015 58.6564 230.855 58.9231C230.709 59.1898 230.602 59.5231 230.535 59.9231C230.482 60.3098 230.455 60.7631 230.455 61.2831C230.455 61.8164 230.482 62.2831 230.535 62.6831C230.602 63.0698 230.709 63.3964 230.855 63.6631C231.002 63.9164 231.209 64.1098 231.475 64.2431C231.742 64.3764 232.089 64.4431 232.515 64.4431C232.969 64.4431 233.335 64.3831 233.615 64.2631C233.909 64.1298 234.135 63.9364 234.295 63.6831C234.455 63.4164 234.562 63.0831 234.615 62.6831C234.669 62.2831 234.695 61.8164 234.695 61.2831Z"
    fill="#626366"
  />
<path
    d="M247.384 65.8231C247.384 66.0764 247.258 66.2031 247.004 66.2031H245.584C245.438 66.2031 245.338 66.1698 245.284 66.1031C245.231 66.0364 245.204 65.9431 245.204 65.8231V65.2031L245.164 65.1831C244.964 65.3164 244.731 65.4564 244.464 65.6031C244.211 65.7364 243.938 65.8631 243.644 65.9831C243.351 66.1031 243.044 66.1964 242.724 66.2631C242.418 66.3431 242.111 66.3831 241.804 66.3831C241.124 66.3831 240.584 66.2898 240.184 66.1031C239.798 65.9164 239.504 65.6564 239.304 65.3231C239.104 64.9898 238.978 64.5964 238.924 64.1431C238.871 63.6898 238.844 63.2031 238.844 62.6831V56.8031C238.844 56.5364 238.971 56.4031 239.224 56.4031H240.684C240.924 56.4031 241.044 56.5364 241.044 56.8031V62.4231C241.044 62.7298 241.064 63.0031 241.104 63.2431C241.144 63.4831 241.218 63.6898 241.324 63.8631C241.431 64.0231 241.578 64.1498 241.764 64.2431C241.951 64.3364 242.198 64.3831 242.504 64.3831C242.718 64.3831 242.951 64.3498 243.204 64.2831C243.471 64.2164 243.731 64.1364 243.984 64.0431C244.238 63.9364 244.471 63.8364 244.684 63.7431C244.898 63.6364 245.071 63.5498 245.204 63.4831V56.8031C245.204 56.6831 245.231 56.5898 245.284 56.5231C245.338 56.4431 245.438 56.4031 245.584 56.4031H247.004C247.258 56.4031 247.384 56.5364 247.384 56.8031V65.8231Z"
    fill="#626366"
  />
<path
    d="M257.989 65.8231C257.989 65.9431 257.963 66.0364 257.909 66.1031C257.856 66.1698 257.756 66.2031 257.609 66.2031H256.169C255.916 66.2031 255.789 66.0764 255.789 65.8231L255.809 60.2031C255.809 59.6164 255.709 59.1431 255.509 58.7831C255.323 58.4231 254.943 58.2431 254.369 58.2431C254.169 58.2431 253.936 58.2764 253.669 58.3431C253.416 58.4098 253.156 58.4964 252.889 58.6031C252.636 58.6964 252.396 58.7964 252.169 58.9031C251.943 58.9964 251.763 59.0764 251.629 59.1431V65.8231C251.629 66.0764 251.503 66.2031 251.249 66.2031H249.829C249.576 66.2031 249.449 66.0764 249.449 65.8231V56.8031C249.449 56.5364 249.576 56.4031 249.829 56.4031H251.249C251.503 56.4031 251.629 56.5364 251.629 56.8031V57.4031C251.643 57.4031 251.649 57.4098 251.649 57.4231C251.663 57.4231 251.676 57.4231 251.689 57.4231C251.876 57.2898 252.096 57.1564 252.349 57.0231C252.616 56.8764 252.896 56.7431 253.189 56.6231C253.483 56.5031 253.789 56.4098 254.109 56.3431C254.429 56.2631 254.743 56.2231 255.049 56.2231C255.729 56.2231 256.263 56.3298 256.649 56.5431C257.036 56.7431 257.329 57.0164 257.529 57.3631C257.729 57.7098 257.856 58.1164 257.909 58.5831C257.963 59.0364 257.989 59.5164 257.989 60.0231V65.8231Z"
    fill="#626366"
  />
<path
    fill-rule="evenodd"
    clip-rule="evenodd"
    d="M266 66.7H269.3V28H266V66.7Z"
    fill="#004494"
  />
<path
    d="M86.9932 27.541H86.9369H28.567V66.1905H86.9369H86.9932V27.541Z"
    fill="#003399"
  />
<path
    d="M58.3093 33.3809H60.3442L58.703 34.6449L59.3421 36.6472L57.711 35.4135L56.08 36.6472L56.7191 34.6449L55.0676 33.3809H57.0975L57.711 31.4292L58.3093 33.3809Z"
    fill="#FFED00"
  />
<path
    d="M58.3808 59.1573H60.4158L58.7796 60.3759L59.4137 62.3023L57.7826 61.1141L56.1516 62.3023L56.7958 60.3759L55.1392 59.1573H57.1691L57.7826 57.2815L58.3808 59.1573Z"
    fill="#FFED00"
  />
<path
    d="M64.8283 57.4534H66.8684L65.2271 58.6669L65.8663 60.5933L64.2301 59.4051L62.5991 60.5933L63.2433 58.6669L61.5867 57.4534H63.6165L64.2301 55.5725L64.8283 57.4534Z"
    fill="#FFED00"
  />
<path
    d="M64.8283 35.1H66.8684L65.2271 36.3185L65.8663 38.2449L64.2301 37.0567L62.5991 38.2449L63.2433 36.3185L61.5867 35.1H63.6165L64.2301 33.2241L64.8283 35.1Z"
    fill="#FFED00"
  />
<path
    d="M69.6192 39.8377H71.6491L70.0129 41.0512L70.6469 42.9776L69.0159 41.7894L67.3848 42.9776L68.0291 41.0512L66.3724 39.8377H68.4023L69.0159 37.9568L69.6192 39.8377Z"
    fill="#FFED00"
  />
<path
    d="M69.6192 52.7814H71.6491L70.0129 53.9999L70.6469 55.9263L69.0159 54.7381L67.3848 55.9263L68.0291 53.9999L66.3724 52.7814H68.4023L69.0159 50.9055L69.6192 52.7814Z"
    fill="#FFED00"
  />
<path
    d="M71.4087 46.2084H73.4488L71.8076 47.4269L72.4467 49.3533L70.8105 48.1651L69.1795 49.3533L69.8237 47.4269L68.1671 46.2084H70.197L70.8105 44.3325L71.4087 46.2084Z"
    fill="#FFED00"
  />
<path
    d="M51.7391 35.1202H53.7689L52.1328 36.3336L52.7668 38.26L51.1357 37.0718L49.5047 38.26L50.1489 36.3336L48.4974 35.1202H50.5222L51.1357 33.2393L51.7391 35.1202Z"
    fill="#FFED00"
  />
<path
    d="M47.0811 39.8528H49.1212L47.4799 41.0663L48.1139 42.9927L46.4829 41.8045L44.8518 42.9927L45.4961 41.0663L43.8395 39.8528H45.8693L46.4829 37.9719L47.0811 39.8528Z"
    fill="#FFED00"
  />
<path
    d="M45.3529 46.2286H47.3879L45.7517 47.442L46.3857 49.3685L44.7547 48.1853L43.1237 49.3685L43.7679 47.442L42.1164 46.2286H44.1411L44.7547 44.3477L45.3529 46.2286Z"
    fill="#FFED00"
  />
<path
    d="M47.0811 52.7967H49.1212L47.4799 54.0153L48.1139 55.9417L46.4829 54.7535L44.8518 55.9417L45.4961 54.0153L43.8395 52.7967H45.8693L46.4829 50.9209L47.0811 52.7967Z"
    fill="#FFED00"
  />
<path
    d="M51.8055 57.4685H53.8354L52.1992 58.682L52.8332 60.6084L51.2022 59.4202L49.5711 60.6084L50.2154 58.682L48.5639 57.4685H50.5886L51.2022 55.5876L51.8055 57.4685Z"
    fill="#FFED00"
  />
<path
    d="M95.8693 0.00505726C95.8693 0.00505726 107.869 18.9101 110.068 22.3736C112.262 25.8371 114.772 28.5826 123.653 30.4433C132.535 32.304 136.4 33.1837 136.4 33.1837V33.8562C136.4 33.8562 130.755 32.668 123.495 31.0652C116.234 29.4624 113.264 28.9214 109.956 24.3657C107.2 20.5736 95.8693 3.61517 95.8693 3.61517V0V0.00505726Z"
    fill="#6D6E70"
  />
<path
    d="M95.8693 21.5949C95.8693 21.5949 106.796 32.9157 109.956 36.1668C113.31 39.6151 117.6 40.8893 123.551 41.941C129.232 42.9421 136.395 44.1 136.395 44.1V44.7371C136.395 44.7371 129.666 43.6449 123.551 42.6135C117.553 41.5972 113.356 41.0309 109.92 37.9011C106.842 35.1 95.8693 24.9219 95.8693 24.9219V21.5898V21.5949Z"
    fill="#6D6E70"
  />
<path
    d="M95.8693 26.6967C95.8693 26.6967 106.259 36.2377 109.956 39.499C113.356 42.4973 116.112 43.4327 123.587 44.7422C131.062 46.0518 136.395 46.8658 136.395 46.8658V47.5383C136.395 47.5383 129.63 46.4411 123.551 45.4804C117.472 44.5248 113.596 44.1456 109.956 41.2282C105.758 37.8608 95.8693 29.8113 95.8693 29.8113V26.6917V26.6967Z"
    fill="#6D6E70"
  />
<path
    d="M95.8693 32.1321C95.8693 32.1321 107.737 41.4456 109.956 43.0737C112.175 44.7018 115.109 46.6029 123.623 47.8214C132.064 49.0298 136.395 49.6265 136.395 49.6265V50.3343C136.395 50.3343 128.741 49.2371 123.623 48.6001C118.505 47.963 114.583 47.69 109.991 44.6664C105.523 41.7237 95.8693 35.004 95.8693 35.004V32.1321Z"
    fill="#6D6E70"
  />
<path
    d="M95.8693 37.3601C95.8693 37.3601 107.772 45.1972 110.027 46.441C112.282 47.6798 114.931 49.7022 123.623 50.7994C132.315 51.8966 136.395 52.3921 136.395 52.3921V53.0646C136.395 53.0646 129.206 52.286 123.587 51.6843C117.973 51.0826 114.143 50.2685 109.956 47.9983C105.768 45.7331 95.8693 40.0095 95.8693 40.0095V37.3601Z"
    fill="#6D6E70"
  />
<path
    d="M95.8693 42.5883C95.8693 42.5883 106.392 48.2512 109.956 50.0158C113.928 51.9878 117.364 52.9333 123.587 53.6664C129.697 54.3844 136.395 55.0821 136.395 55.0821V55.7192C136.395 55.7192 130.203 55.0619 123.587 54.4451C117.027 53.8282 114.69 53.5451 109.956 51.467C105.722 49.6063 95.8693 45.0658 95.8693 45.0658V42.5833V42.5883Z"
    fill="#6D6E70"
  />
<path
    d="M95.8693 47.8872C95.8693 47.8872 104.183 51.4063 110.027 53.7018C115.774 55.9569 120.166 56.149 123.658 56.5383C125.197 56.7102 136.395 57.8479 136.395 57.8479V58.485C136.395 58.485 129.707 57.9541 123.623 57.4232C117.538 56.8923 114.915 56.6647 109.991 55.0518C105.006 53.4136 95.8693 50.2636 95.8693 50.2636V47.8923V47.8872Z"
    fill="#6D6E70"
  />
<path
    d="M95.8693 53.2922C95.8693 53.2922 104.265 55.8658 109.991 57.3524C115.718 58.8389 120.974 59.4456 123.623 59.6175C126.271 59.7945 136.4 60.6085 136.4 60.6085V61.2102C136.4 61.2102 130.638 60.8209 123.587 60.3254C117.886 59.9259 113.31 59.5012 109.956 58.7681C106.244 57.9591 95.8693 55.522 95.8693 55.522V53.2922Z"
    fill="#6D6E70"
  />
<path
    d="M95.8693 58.6062C95.8693 58.6062 102.736 59.7792 109.991 60.9674C115.432 61.8573 122.799 62.4186 123.587 62.454C124.374 62.4893 136.395 63.3034 136.395 63.3034V63.9405C136.395 63.9405 128.7 63.5461 123.587 63.268C118.259 62.9747 112.962 62.6562 109.956 62.3478C103.217 61.6551 95.8693 60.7349 95.8693 60.7349V58.6062Z"
    fill="#6D6E70"
  />
<path
    d="M95.8693 64.1074C95.8693 64.1074 106.699 64.5119 109.991 64.5827C113.284 64.6535 136.395 65.5737 136.395 65.5737V66.1956H95.8693V64.1074Z"
    fill="#6D6E70"
  />
<path
    d="M123.582 33.3656C113.78 31.2774 111.561 27.733 109.915 25.5386C108.268 23.3392 95.8642 5.41504 95.8642 5.41504V8.71167C96.355 9.34369 106.97 23.8347 109.95 27.6269C113.31 31.8993 118.571 32.8701 123.582 33.9319C128.587 34.9937 136.395 36.4752 136.395 36.4752V35.9089C136.395 35.9089 126.118 33.9016 123.582 33.3656Z"
    fill="#6D6E70"
  />
<path
    d="M123.582 36.2022C115.534 34.6449 112.277 32.127 109.915 29.0831C107.552 26.0343 95.8642 10.446 95.8642 10.446V14.2786C96.355 14.85 107.046 27.7534 109.915 30.9994C113.259 34.7865 117.927 35.7826 123.582 36.809C129.237 37.8354 136.39 39.1803 136.39 39.1803V38.614C136.39 38.614 128.224 37.1022 123.582 36.2073V36.2022Z"
    fill="#6D6E70"
  />
<path
    d="M123.582 39.1399C115.212 37.5321 113.494 36.2124 109.95 32.3748C107.721 29.963 96.3448 16.6804 95.8642 16.1191V19.6585C95.8642 19.6585 106.494 30.8731 109.915 34.1849C114.399 38.5332 118.607 38.8619 123.582 39.7467C128.557 40.6315 136.39 42.0473 136.39 42.0473V41.4456C136.39 41.4456 126.931 39.7871 123.582 39.145V39.1399Z"
    fill="#6D6E70"
  />
<path
    d="M0.782944 27.7788C0.782944 27.7788 28.4954 24.8563 36.2569 23.7793C48.5281 22.0805 58.57 20.2703 67.8603 6.18887C67.8603 6.18887 67.8705 5.38999 67.8603 5.03101C62.1696 13.5911 54.3211 19.431 43.5122 21.1248C32.9539 22.7833 0.777832 25.2052 0.777832 25.2052V27.7788H0.782944Z"
    fill="#6D6E70"
  />
<path
    d="M0.777832 24.2849C0.777832 24.2849 26.4604 21.1046 34.9224 19.9315C48.3082 18.081 57.7212 16.4175 67.8552 1.05681C67.8552 1.05681 67.8603 0.394453 67.8552 0.00512695C61.648 9.3439 53.9836 15.3759 42.1931 17.2265C30.6735 19.0366 0.777832 21.6759 0.777832 21.6759V24.29V24.2849Z"
    fill="#6D6E70"
  />
<path d="M26.9973 64.1326H0.793167V66.1854H26.9973V64.1326Z" fill="#6D6E70" />
<path
    d="M67.8552 22.5708C67.8552 22.5708 67.8705 21.3624 67.8654 21.1045C66.6332 22.9601 65.0124 24.6438 63.141 26.1253H64.9766C66.0094 25.0736 66.9758 23.8955 67.8501 22.5708H67.8552Z"
    fill="#6D6E70"
  />
<path
    d="M67.8552 17.11C67.8552 17.11 67.8654 16.0381 67.8603 15.7449C64.8897 20.2145 60.4669 23.7842 55.3539 26.1505L58.3706 26.1404C61.8577 24.1331 65.0993 21.2814 67.8501 17.11H67.8552Z"
    fill="#6D6E70"
  />
<path
    d="M67.8552 11.6494C67.8552 11.6494 67.8654 10.714 67.8552 10.3904C62.686 18.1718 54.6483 23.496 44.8212 25.0381C42.4948 25.4022 38.706 25.8067 34.3037 26.2162L46.3039 26.1758C54.224 24.4314 61.6378 21.0589 67.845 11.6494H67.8552Z"
    fill="#6D6E70"
  />
<path
    d="M27.0024 60.6743C13.6319 60.7451 0.793167 60.8007 0.793167 60.8007V62.9395C0.793167 62.9395 14.2403 62.8434 27.0024 62.7372V60.6743Z"
    fill="#6D6E70"
  />
<path
    d="M27.0024 57.0034C13.7239 57.15 0.788055 57.2613 0.788055 57.2613V59.4456C0.788055 59.4456 14.3733 59.2686 27.0024 59.0714V57.0034Z"
    fill="#6D6E70"
  />
<path
    d="M26.9973 53.3225C13.816 53.55 0.788055 53.722 0.788055 53.722V55.9517C0.788055 55.9517 14.5164 55.6837 26.9973 55.3905V53.3225Z"
    fill="#6D6E70"
  />
<path
    d="M27.0024 49.6213C13.9182 49.9398 0.788055 50.1774 0.788055 50.1774V52.4477C0.788055 52.4477 14.6749 52.0735 27.0024 51.6842V49.6162V49.6213Z"
    fill="#6D6E70"
  />
<path
    d="M27.0075 45.9102C14.0205 46.3197 0.788055 46.6433 0.788055 46.6433V48.959C0.788055 48.959 14.8437 48.4736 27.0075 47.9781V45.9152V45.9102Z"
    fill="#6D6E70"
  />
<path
    d="M27.0024 42.1838C14.1176 42.6995 0.788055 43.104 0.788055 43.104V45.4602C0.788055 45.4602 15.0175 44.8433 27.0024 44.2315V42.1787V42.1838Z"
    fill="#6D6E70"
  />
<path
    d="M27.0075 38.4321C14.2199 39.0591 0.782944 39.5597 0.782944 39.5597V41.9613C0.782944 41.9613 15.2016 41.1979 27.0075 40.4647V38.4321Z"
    fill="#6D6E70"
  />
<path
    d="M27.0075 34.6602C14.317 35.4085 0.782944 36.0203 0.782944 36.0203V38.4624C0.782944 38.4624 15.3959 37.5321 27.0075 36.6725V34.6602Z"
    fill="#6D6E70"
  />
<path
    d="M27.0075 30.8679C14.404 31.7477 0.782944 32.4859 0.782944 32.4859V34.9735C0.782944 34.9735 15.5902 33.8511 27.0075 32.8601V30.873V30.8679Z"
    fill="#6D6E70"
  />
<path
    d="M27.0075 27.0405C14.4807 28.0669 0.777832 28.9416 0.777832 28.9416V31.4697C0.777832 31.4697 15.7845 30.1248 27.0075 28.9922V27.0405Z"
    fill="#6D6E70"
  />
</svg>
