<svg
  width="291"
  height="72"
  viewBox="0 0 291 72"
  fill="none"
  xmlns="http://www.w3.org/2000/svg"
>
<path
    d="M86.9932 27.5411H86.9369H28.567V66.1905H86.9369H86.9932V27.5411Z"
    fill="#003399"
  />
<path
    d="M58.3093 33.3809H60.3442L58.703 34.645L59.3421 36.6472L57.711 35.4135L56.08 36.6472L56.7191 34.645L55.0676 33.3809H57.0975L57.711 31.4293L58.3093 33.3809Z"
    fill="#FFED00"
  />
<path
    d="M58.3808 59.1574H60.4158L58.7796 60.3759L59.4137 62.3023L57.7826 61.1141L56.1516 62.3023L56.7958 60.3759L55.1392 59.1574H57.1691L57.7826 57.2815L58.3808 59.1574Z"
    fill="#FFED00"
  />
<path
    d="M64.8283 57.4534H66.8684L65.2271 58.6669L65.8663 60.5933L64.2301 59.4051L62.5991 60.5933L63.2433 58.6669L61.5867 57.4534H63.6165L64.2301 55.5725L64.8283 57.4534Z"
    fill="#FFED00"
  />
<path
    d="M64.8283 35.1001H66.8684L65.2271 36.3186L65.8663 38.245L64.2301 37.0568L62.5991 38.245L63.2433 36.3186L61.5867 35.1001H63.6165L64.2301 33.2242L64.8283 35.1001Z"
    fill="#FFED00"
  />
<path
    d="M69.6192 39.8377H71.6491L70.0129 41.0512L70.6469 42.9776L69.0159 41.7894L67.3848 42.9776L68.0291 41.0512L66.3724 39.8377H68.4023L69.0159 37.9568L69.6192 39.8377Z"
    fill="#FFED00"
  />
<path
    d="M69.6192 52.7815H71.6491L70.0129 54.0001L70.6469 55.9265L69.0159 54.7383L67.3848 55.9265L68.0291 54.0001L66.3724 52.7815H68.4023L69.0159 50.9057L69.6192 52.7815Z"
    fill="#FFED00"
  />
<path
    d="M71.4087 46.2085H73.4488L71.8076 47.427L72.4467 49.3534L70.8105 48.1652L69.1795 49.3534L69.8237 47.427L68.1671 46.2085H70.197L70.8105 44.3326L71.4087 46.2085Z"
    fill="#FFED00"
  />
<path
    d="M51.7391 35.1203H53.7689L52.1328 36.3337L52.7668 38.2601L51.1357 37.0719L49.5047 38.2601L50.1489 36.3337L48.4974 35.1203H50.5222L51.1357 33.2393L51.7391 35.1203Z"
    fill="#FFED00"
  />
<path
    d="M47.0811 39.8528H49.1212L47.4799 41.0663L48.1139 42.9927L46.4829 41.8045L44.8518 42.9927L45.4961 41.0663L43.8395 39.8528H45.8693L46.4829 37.9719L47.0811 39.8528Z"
    fill="#FFED00"
  />
<path
    d="M45.3529 46.2287H47.3879L45.7517 47.4422L46.3857 49.3686L44.7547 48.1855L43.1237 49.3686L43.7679 47.4422L42.1164 46.2287H44.1411L44.7547 44.3478L45.3529 46.2287Z"
    fill="#FFED00"
  />
<path
    d="M47.0811 52.7967H49.1212L47.4799 54.0152L48.1139 55.9417L46.4829 54.7535L44.8518 55.9417L45.4961 54.0152L43.8395 52.7967H45.8693L46.4829 50.9209L47.0811 52.7967Z"
    fill="#FFED00"
  />
<path
    d="M51.8055 57.4686H53.8354L52.1992 58.6821L52.8332 60.6085L51.2022 59.4203L49.5711 60.6085L50.2154 58.6821L48.5639 57.4686H50.5886L51.2022 55.5877L51.8055 57.4686Z"
    fill="#FFED00"
  />
<path
    d="M95.8693 0.00505726C95.8693 0.00505726 107.869 18.9101 110.068 22.3736C112.262 25.8371 114.772 28.5826 123.653 30.4433C132.535 32.304 136.4 33.1837 136.4 33.1837V33.8562C136.4 33.8562 130.755 32.668 123.495 31.0652C116.234 29.4624 113.264 28.9214 109.956 24.3657C107.2 20.5736 95.8693 3.61517 95.8693 3.61517V0V0.00505726Z"
    fill="#6D6E70"
  />
<path
    d="M95.8693 21.5949C95.8693 21.5949 106.796 32.9157 109.956 36.1668C113.31 39.6152 117.6 40.8893 123.551 41.941C129.232 42.9421 136.395 44.1 136.395 44.1V44.7371C136.395 44.7371 129.666 43.6449 123.551 42.6135C117.553 41.5972 113.356 41.0309 109.92 37.9011C106.842 35.1 95.8693 24.9219 95.8693 24.9219V21.5899V21.5949Z"
    fill="#6D6E70"
  />
<path
    d="M95.8693 26.6967C95.8693 26.6967 106.259 36.2377 109.956 39.4989C113.356 42.4973 116.112 43.4326 123.587 44.7422C131.062 46.0517 136.395 46.8658 136.395 46.8658V47.5383C136.395 47.5383 129.63 46.4411 123.551 45.4804C117.472 44.5248 113.596 44.1456 109.956 41.2281C105.758 37.8607 95.8693 29.8113 95.8693 29.8113V26.6916V26.6967Z"
    fill="#6D6E70"
  />
<path
    d="M95.8693 32.1321C95.8693 32.1321 107.737 41.4456 109.956 43.0737C112.175 44.7018 115.109 46.6029 123.623 47.8214C132.064 49.0298 136.395 49.6265 136.395 49.6265V50.3343C136.395 50.3343 128.741 49.2371 123.623 48.6001C118.505 47.963 114.583 47.69 109.991 44.6664C105.523 41.7237 95.8693 35.004 95.8693 35.004V32.1321Z"
    fill="#6D6E70"
  />
<path
    d="M95.8693 37.3601C95.8693 37.3601 107.772 45.1972 110.027 46.441C112.282 47.6798 114.931 49.7023 123.623 50.7995C132.315 51.8967 136.395 52.3922 136.395 52.3922V53.0646C136.395 53.0646 129.206 52.286 123.587 51.6843C117.973 51.0826 114.143 50.2686 109.956 47.9983C105.768 45.7332 95.8693 40.0096 95.8693 40.0096V37.3601Z"
    fill="#6D6E70"
  />
<path
    d="M95.8693 42.5882C95.8693 42.5882 106.392 48.2511 109.956 50.0158C113.928 51.9877 117.364 52.9332 123.587 53.6663C129.697 54.3843 136.395 55.082 136.395 55.082V55.7191C136.395 55.7191 130.203 55.0618 123.587 54.445C117.027 53.8281 114.69 53.545 109.956 51.4669C105.722 49.6062 95.8693 45.0657 95.8693 45.0657V42.5832V42.5882Z"
    fill="#6D6E70"
  />
<path
    d="M95.8693 47.8871C95.8693 47.8871 104.183 51.4062 110.027 53.7017C115.774 55.9568 120.166 56.1489 123.658 56.5382C125.197 56.7101 136.395 57.8478 136.395 57.8478V58.4848C136.395 58.4848 129.707 57.9539 123.623 57.423C117.538 56.8921 114.915 56.6646 109.991 55.0517C105.006 53.4135 95.8693 50.2635 95.8693 50.2635V47.8921V47.8871Z"
    fill="#6D6E70"
  />
<path
    d="M95.8693 53.2922C95.8693 53.2922 104.265 55.8658 109.991 57.3523C115.718 58.8388 120.974 59.4455 123.623 59.6175C126.271 59.7944 136.4 60.6085 136.4 60.6085V61.2102C136.4 61.2102 130.638 60.8208 123.587 60.3253C117.886 59.9259 113.31 59.5012 109.956 58.768C106.244 57.959 95.8693 55.522 95.8693 55.522V53.2922Z"
    fill="#6D6E70"
  />
<path
    d="M95.8693 58.6062C95.8693 58.6062 102.736 59.7793 109.991 60.9675C115.432 61.8574 122.799 62.4186 123.587 62.454C124.374 62.4894 136.395 63.3034 136.395 63.3034V63.9405C136.395 63.9405 128.7 63.5461 123.587 63.268C118.259 62.9748 112.962 62.6562 109.956 62.3478C103.217 61.6551 95.8693 60.7349 95.8693 60.7349V58.6062Z"
    fill="#6D6E70"
  />
<path
    d="M95.8693 64.1074C95.8693 64.1074 106.699 64.5119 109.991 64.5826C113.284 64.6534 136.395 65.5737 136.395 65.5737V66.1956H95.8693V64.1074Z"
    fill="#6D6E70"
  />
<path
    d="M123.582 33.3657C113.78 31.2775 111.561 27.7332 109.915 25.5388C108.268 23.3393 95.8642 5.41516 95.8642 5.41516V8.71179C96.355 9.34382 106.97 23.8348 109.95 27.627C113.31 31.8994 118.571 32.8702 123.582 33.932C128.587 34.9938 136.395 36.4753 136.395 36.4753V35.909C136.395 35.909 126.118 33.9017 123.582 33.3657Z"
    fill="#6D6E70"
  />
<path
    d="M123.582 36.2023C115.534 34.645 112.277 32.127 109.915 29.0832C107.552 26.0343 95.8642 10.4461 95.8642 10.4461V14.2787C96.355 14.85 107.046 27.7534 109.915 30.9995C113.259 34.7866 117.927 35.7826 123.582 36.809C129.237 37.8355 136.39 39.1804 136.39 39.1804V38.6141C136.39 38.6141 128.224 37.1023 123.582 36.2074V36.2023Z"
    fill="#6D6E70"
  />
<path
    d="M123.582 39.1399C115.212 37.532 113.494 36.2124 109.95 32.3747C107.721 29.9629 96.3448 16.6803 95.8642 16.1191V19.6584C95.8642 19.6584 106.494 30.8731 109.915 34.1849C114.399 38.5332 118.607 38.8618 123.582 39.7467C128.557 40.6315 136.39 42.0472 136.39 42.0472V41.4455C136.39 41.4455 126.931 39.7871 123.582 39.145V39.1399Z"
    fill="#6D6E70"
  />
<path
    d="M0.782944 27.7787C0.782944 27.7787 28.4954 24.8562 36.2569 23.7792C48.5281 22.0803 58.57 20.2702 67.8603 6.18875C67.8603 6.18875 67.8705 5.38987 67.8603 5.03088C62.1696 13.591 54.3211 19.4309 43.5122 21.1247C32.9539 22.7831 0.777832 25.2051 0.777832 25.2051V27.7787H0.782944Z"
    fill="#6D6E70"
  />
<path
    d="M0.777832 24.2849C0.777832 24.2849 26.4604 21.1045 34.9224 19.9315C48.3082 18.0809 57.7212 16.4174 67.8552 1.05675C67.8552 1.05675 67.8603 0.394392 67.8552 0.00506592C61.648 9.34384 53.9836 15.3759 42.1931 17.2264C30.6735 19.0365 0.777832 21.6759 0.777832 21.6759V24.2899V24.2849Z"
    fill="#6D6E70"
  />
<path d="M26.9973 64.1326H0.793167V66.1854H26.9973V64.1326Z" fill="#6D6E70" />
<path
    d="M67.8552 22.5708C67.8552 22.5708 67.8705 21.3624 67.8654 21.1045C66.6332 22.9601 65.0124 24.6438 63.141 26.1253H64.9766C66.0094 25.0736 66.9758 23.8955 67.8501 22.5708H67.8552Z"
    fill="#6D6E70"
  />
<path
    d="M67.8552 17.1101C67.8552 17.1101 67.8654 16.0382 67.8603 15.745C64.8897 20.2146 60.4669 23.7843 55.3539 26.1506L58.3706 26.1405C61.8577 24.1332 65.0993 21.2815 67.8501 17.1101H67.8552Z"
    fill="#6D6E70"
  />
<path
    d="M67.8552 11.6495C67.8552 11.6495 67.8654 10.7141 67.8552 10.3905C62.686 18.1719 54.6483 23.4961 44.8212 25.0382C42.4948 25.4023 38.706 25.8068 34.3037 26.2163L46.3039 26.1759C54.224 24.4315 61.6378 21.059 67.845 11.6495H67.8552Z"
    fill="#6D6E70"
  />
<path
    d="M27.0024 60.6742C13.6319 60.745 0.793167 60.8006 0.793167 60.8006V62.9394C0.793167 62.9394 14.2403 62.8433 27.0024 62.7371V60.6742Z"
    fill="#6D6E70"
  />
<path
    d="M27.0024 57.0034C13.7239 57.15 0.788055 57.2613 0.788055 57.2613V59.4456C0.788055 59.4456 14.3733 59.2686 27.0024 59.0714V57.0034Z"
    fill="#6D6E70"
  />
<path
    d="M26.9973 53.3225C13.816 53.55 0.788055 53.7219 0.788055 53.7219V55.9517C0.788055 55.9517 14.5164 55.6837 26.9973 55.3905V53.3225Z"
    fill="#6D6E70"
  />
<path
    d="M27.0024 49.6214C13.9182 49.9399 0.788055 50.1776 0.788055 50.1776V52.4478C0.788055 52.4478 14.6749 52.0736 27.0024 51.6843V49.6163V49.6214Z"
    fill="#6D6E70"
  />
<path
    d="M27.0075 45.9102C14.0205 46.3197 0.788055 46.6433 0.788055 46.6433V48.959C0.788055 48.959 14.8437 48.4736 27.0075 47.9781V45.9152V45.9102Z"
    fill="#6D6E70"
  />
<path
    d="M27.0024 42.1838C14.1176 42.6995 0.788055 43.104 0.788055 43.104V45.4602C0.788055 45.4602 15.0175 44.8433 27.0024 44.2315V42.1787V42.1838Z"
    fill="#6D6E70"
  />
<path
    d="M27.0075 38.4321C14.2199 39.059 0.782944 39.5596 0.782944 39.5596V41.9613C0.782944 41.9613 15.2016 41.1978 27.0075 40.4647V38.4321Z"
    fill="#6D6E70"
  />
<path
    d="M27.0075 34.6602C14.317 35.4085 0.782944 36.0203 0.782944 36.0203V38.4624C0.782944 38.4624 15.3959 37.5321 27.0075 36.6725V34.6602Z"
    fill="#6D6E70"
  />
<path
    d="M27.0075 30.868C14.404 31.7478 0.782944 32.486 0.782944 32.486V34.9736C0.782944 34.9736 15.5902 33.8512 27.0075 32.8601V30.8731V30.868Z"
    fill="#6D6E70"
  />
<path
    d="M27.0075 27.0405C14.4807 28.0669 0.777832 28.9416 0.777832 28.9416V31.4697C0.777832 31.4697 15.7845 30.1247 27.0075 28.9922V27.0405Z"
    fill="#6D6E70"
  />
<path d="M255.999 66.2489V27.4286H252.689V66.2489H255.999Z" fill="#003399" />
<path
    d="M145.399 33.4787C145.399 33.2296 145.516 33.0923 145.786 33.0923H152.893C153.127 33.0923 153.259 33.2296 153.259 33.4584V34.6581C153.259 34.892 153.162 35.0038 152.872 35.0038H147.6V38.3287H152.273C152.522 38.3287 152.659 38.4456 152.659 38.6744V39.8742C152.659 40.108 152.562 40.2199 152.273 40.2199H147.6V44.0226H153.01C153.244 44.0226 153.355 44.1395 153.355 44.3886V45.5681C153.355 45.8172 153.259 45.9138 152.989 45.9138H145.786C145.516 45.9138 145.399 45.7969 145.399 45.5681V33.4736V33.4787Z"
    fill="#58595B"
  />
<path
    d="M163.091 45.9192H161.718C161.429 45.9192 161.352 45.7819 161.352 45.5531V44.9532L161.312 44.9329C160.559 45.4565 159.242 46.092 158.068 46.092C155.46 46.092 155.211 44.5465 155.211 42.5181V36.8394C155.211 36.6056 155.308 36.453 155.577 36.453H156.985C157.234 36.453 157.331 36.5903 157.331 36.8394V42.269C157.331 43.4281 157.56 44.1602 158.739 44.1602C159.568 44.1602 160.844 43.5399 161.347 43.2908V36.8394C161.347 36.6056 161.423 36.453 161.713 36.453H163.086C163.355 36.453 163.452 36.5903 163.452 36.8394V45.5531C163.452 45.8022 163.355 45.9192 163.086 45.9192H163.091Z"
    fill="#58595B"
  />
<path
    d="M168.002 45.5519C168.002 45.7857 167.905 45.9179 167.636 45.9179H166.243C165.974 45.9179 165.877 45.801 165.877 45.5519V36.8381C165.877 36.589 165.974 36.4518 166.243 36.4518H167.616C167.905 36.4518 168.002 36.6043 168.002 36.8381V37.6871L168.043 37.7278C168.622 37.1889 169.995 36.528 170.9 36.3552C171.149 36.2992 171.327 36.3552 171.362 36.6856L171.5 37.982C171.52 38.2514 171.54 38.3684 171.134 38.4446C170.051 38.6581 168.678 39.0445 168.002 39.3343V45.5519Z"
    fill="#58595B"
  />
<path
    d="M176.502 46.0713C172.618 46.0713 172.369 43.2345 172.369 41.0281C172.369 39.2132 172.776 36.2595 176.502 36.2595C180.229 36.2595 180.773 38.7505 180.773 41.0281C180.773 43.3057 180.503 46.0713 176.502 46.0713ZM176.517 38.1151C174.875 38.1151 174.509 39.1573 174.509 41.1654C174.509 43.1735 174.875 44.2157 176.497 44.2157C178.256 44.2157 178.602 43.2294 178.602 41.1654C178.602 39.1013 178.271 38.1151 176.517 38.1151Z"
    fill="#58595B"
  />
<path
    d="M187.163 46.0917C186.528 46.0917 185.638 45.9747 184.748 45.6646L184.728 45.685V49.0861C184.728 49.2996 184.672 49.4724 184.362 49.4724H182.989C182.679 49.4724 182.623 49.3352 182.623 49.0861V36.8391C182.623 36.59 182.72 36.4527 182.989 36.4527H184.362C184.632 36.4527 184.708 36.6052 184.708 36.8391V37.4186L184.764 37.4593C185.46 36.9763 186.696 36.3002 187.814 36.3002C190.346 36.3002 191.002 38.2117 191.002 41.1298C191.002 44.2767 190.209 46.0917 187.158 46.0917H187.163ZM187.321 38.232C186.528 38.232 185.313 38.7913 184.733 39.1014V43.931C185.603 44.1801 186.299 44.2615 186.955 44.2615C188.348 44.2615 188.831 43.5447 188.831 41.1146C188.831 38.6845 188.348 38.2371 187.326 38.2371L187.321 38.232Z"
    fill="#58595B"
  />
<path
    d="M198.699 44.8203C197.733 45.5524 196.437 46.0761 195.145 46.0761C193.096 46.0761 192.497 44.9576 192.497 43.3359C192.476 41.0735 193.696 40.1076 196.126 40.1076H198.597V39.6043C198.597 38.4452 198.17 38.0385 196.589 38.0385C195.954 38.0385 194.733 38.1351 193.961 38.2113C193.574 38.2673 193.478 38.252 193.422 37.9775L193.249 37.2607C193.208 37.0115 193.269 36.8539 193.691 36.6811C194.52 36.3913 196.05 36.254 196.955 36.254C200.295 36.254 200.702 37.6267 200.702 39.7873V43.5138C200.702 44.3069 200.798 44.3272 201.398 44.4035C201.688 44.4238 201.764 44.4797 201.764 44.6932V45.5067C201.764 45.7202 201.627 45.8524 201.302 45.9134C200.992 45.9693 200.682 46.01 200.392 46.01C199.482 46.01 198.923 45.7405 198.729 44.8305L198.689 44.8102L198.699 44.8203ZM194.118 34.0782C194.118 33.4986 194.311 33.0563 195.201 33.0563C196.091 33.0563 196.264 33.463 196.264 34.0782C196.264 34.6577 196.111 35.161 195.201 35.161C194.235 35.161 194.118 34.6374 194.118 34.0782ZM198.582 41.6124H196.223C195.257 41.6124 194.637 41.9581 194.637 43.2342C194.637 44.0832 194.927 44.3526 195.837 44.3526C196.665 44.3526 197.845 43.8697 198.582 43.4426V41.6073V41.6124ZM197.885 34.0782C197.885 33.4986 198.099 33.0563 198.948 33.0563C199.858 33.0563 200.031 33.463 200.031 34.0782C200.031 34.6577 199.878 35.161 198.948 35.161C198.018 35.161 197.885 34.6374 197.885 34.0782Z"
    fill="#58595B"
  />
<path
    d="M204.514 35.0644C203.508 35.0644 203.376 34.5051 203.376 33.9459C203.376 33.3257 203.589 32.8427 204.514 32.8427C205.44 32.8427 205.653 33.285 205.653 33.9459C205.653 34.5458 205.48 35.0644 204.514 35.0644ZM205.536 45.5523C205.536 45.7659 205.46 45.9184 205.191 45.9184H203.818C203.548 45.9184 203.431 45.8015 203.431 45.5523V36.8234C203.431 36.5539 203.548 36.4573 203.818 36.4573H205.191C205.46 36.4573 205.536 36.6099 205.536 36.8234V45.5523Z"
    fill="#58595B"
  />
<path
    d="M211.098 46.0713C210.132 46.0713 208.836 45.934 208.103 45.6443C207.717 45.4917 207.641 45.3138 207.697 45.0088L207.834 44.3733C207.89 44.0632 208.027 44.0428 208.337 44.0835C209.186 44.2208 210.422 44.3174 211.083 44.3174C212.318 44.3174 212.821 43.9869 212.821 43.2142C212.821 42.3245 212.491 42.1313 211.276 41.9585C209.385 41.689 207.722 41.2823 207.722 39.1776C207.722 37.2661 209.191 36.2595 211.352 36.2595C212.145 36.2595 213.477 36.3764 214.29 36.6865C214.621 36.8238 214.753 36.9763 214.697 37.2661L214.545 37.9626C214.489 38.232 214.372 38.2727 214.021 38.232C213.192 38.1354 212.11 38.0185 211.393 38.0185C210.157 38.0185 209.868 38.3642 209.868 39.1013C209.868 39.8385 210.33 39.9503 211.51 40.1435C213.345 40.413 215.007 40.779 215.007 43.082C215.007 45.385 213.096 46.0764 211.108 46.0764L211.098 46.0713Z"
    fill="#58595B"
  />
<path
    d="M223.985 45.0291C224.062 45.3189 224.006 45.4714 223.655 45.629C222.923 45.9391 221.667 46.0713 220.717 46.0713C217.102 46.0713 216.583 43.7531 216.583 41.1247C216.583 38.7302 217.143 36.2595 220.717 36.2595C221.606 36.2595 222.862 36.3764 223.691 36.7221C223.94 36.839 224.021 37.0119 223.98 37.261L223.843 38.0337C223.767 38.3235 223.609 38.3235 223.243 38.3032C222.45 38.2269 221.545 38.1303 220.884 38.1303C219.319 38.1303 218.78 38.9437 218.78 41.084C218.78 43.4989 219.319 44.2157 220.864 44.2157C221.444 44.2157 222.562 44.1394 223.355 44.0428C223.665 44.0022 223.797 44.0022 223.858 44.3326L223.975 45.0291H223.985Z"
    fill="#58595B"
  />
<path
    d="M233.279 45.9178H231.906C231.637 45.9178 231.52 45.8009 231.52 45.5518C231.52 43.6759 231.54 41.8457 231.54 39.9697C231.54 38.9072 231.311 38.1751 230.147 38.1751C229.374 38.1751 228.022 38.8106 227.498 39.0445V45.5518C227.498 45.7857 227.422 45.9178 227.132 45.9178H225.76C225.511 45.9178 225.414 45.8009 225.414 45.5518V32.6693C225.414 32.4202 225.511 32.3033 225.76 32.3033H227.132C227.422 32.3033 227.519 32.4405 227.519 32.6693V37.3465C228.215 36.9194 229.527 36.2839 230.727 36.2839C233.391 36.2839 233.665 38.0023 233.665 39.9545V45.5569C233.665 45.7908 233.568 45.9229 233.279 45.9229V45.9178Z"
    fill="#58595B"
  />
<path
    d="M237.722 41.765C237.778 43.7172 238.474 44.2561 240.061 44.2561C240.757 44.2561 241.84 44.1188 242.572 44.0426C242.918 44.0019 243.035 44.0019 243.096 44.373L243.213 45.0085C243.269 45.2983 243.233 45.4508 242.882 45.6084C242.13 45.8982 240.722 46.0913 239.771 46.0913C236.08 46.0913 235.541 43.7375 235.541 41.2261C235.541 39.3502 235.887 36.2643 239.654 36.2643C243.111 36.2643 243.731 38.5062 243.787 40.5906C243.807 41.2871 243.614 41.7701 242.841 41.7701H237.722V41.765ZM237.742 40.3161H241.565C241.565 39.1366 241.255 37.9978 239.654 37.9978C238.225 37.9978 237.839 38.8672 237.742 40.3161Z"
    fill="#58595B"
  />
<path
    d="M147.621 59.6101L149.09 57.7189L152.334 53.723C152.506 53.5298 152.664 53.4332 152.969 53.4332H154.728C154.997 53.4332 155.074 53.6264 154.901 53.8196L150.707 58.9187L155.033 65.8531C155.186 66.1022 155.053 66.2598 154.84 66.2598H153.061C152.73 66.2598 152.598 66.1225 152.44 65.8937L149.273 60.6421L147.575 62.7468V65.8937C147.575 66.1072 147.499 66.2598 147.229 66.2598H145.78C145.511 66.2598 145.394 66.1428 145.394 65.8937V53.8196C145.394 53.5705 145.511 53.4332 145.78 53.4332H147.229C147.499 53.4332 147.575 53.5857 147.575 53.8196V59.6152H147.616L147.621 59.6101Z"
    fill="#58595B"
  />
<path
    d="M160.315 66.4061C156.431 66.4061 156.182 63.5694 156.182 61.363C156.182 59.548 156.589 56.5943 160.315 56.5943C164.042 56.5943 164.586 59.0854 164.586 61.363C164.586 63.6405 164.316 66.4061 160.315 66.4061ZM160.336 58.4499C158.693 58.4499 158.327 59.4921 158.327 61.5002C158.327 63.5083 158.693 64.5505 160.315 64.5505C162.074 64.5505 162.42 63.5643 162.42 61.5002C162.42 59.4362 162.089 58.4499 160.336 58.4499Z"
    fill="#58595B"
  />
<path
    d="M179.959 66.254H178.566C178.297 66.254 178.2 66.1371 178.2 65.888V60.4025C178.2 58.9739 177.854 58.5672 176.888 58.5672C176.172 58.5672 175.012 59.1264 174.418 59.4366C174.418 59.6297 174.438 59.9754 174.438 60.4228V65.888C174.438 66.1218 174.362 66.254 174.072 66.254H172.664C172.415 66.254 172.333 66.1371 172.333 65.888V60.3059C172.333 59.1264 172.023 58.5672 171.057 58.5672C170.381 58.5672 169.298 59.0502 168.566 59.4366V65.888C168.566 66.1218 168.47 66.254 168.2 66.254H166.812C166.563 66.254 166.467 66.1371 166.467 65.888V57.1742C166.467 56.9251 166.563 56.7879 166.812 56.7879H168.185C168.475 56.7879 168.571 56.9404 168.571 57.1742V57.7335L168.592 57.7538C169.344 57.2302 170.407 56.6557 171.469 56.615C172.587 56.615 173.518 56.8489 174.118 57.9673C175.084 57.2505 176.283 56.615 177.519 56.615C180.071 56.615 180.32 58.2774 180.32 60.2093V65.888C180.32 66.1218 180.244 66.254 179.974 66.254H179.959Z"
    fill="#58595B"
  />
<path
    d="M195.877 66.2541H194.484C194.215 66.2541 194.118 66.1372 194.118 65.8881V60.4026C194.118 58.9741 193.772 58.5673 192.806 58.5673C192.09 58.5673 190.936 59.1266 190.336 59.4367C190.336 59.6299 190.356 59.9756 190.356 60.4229V65.8881C190.356 66.1219 190.28 66.2541 189.99 66.2541H188.582C188.333 66.2541 188.251 66.1372 188.251 65.8881V60.306C188.251 59.1266 187.941 58.5673 186.975 58.5673C186.299 58.5673 185.216 59.0503 184.484 59.4367V65.8881C184.484 66.1219 184.388 66.2541 184.118 66.2541H182.725C182.476 66.2541 182.379 66.1372 182.379 65.8881V57.1744C182.379 56.9253 182.476 56.788 182.725 56.788H184.098C184.388 56.788 184.484 56.9405 184.484 57.1744V57.7336L184.504 57.7539C185.257 57.2303 186.319 56.6558 187.382 56.6151C188.5 56.6151 189.431 56.849 190.031 57.9675C190.997 57.2506 192.191 56.6151 193.432 56.6151C195.984 56.6151 196.233 58.2776 196.233 60.2094V65.8881C196.233 66.1219 196.157 66.2541 195.887 66.2541H195.877Z"
    fill="#58595B"
  />
<path
    d="M199.665 55.3998C198.658 55.3998 198.526 54.8406 198.526 54.2814C198.526 53.6611 198.739 53.1782 199.665 53.1782C200.59 53.1782 200.803 53.6205 200.803 54.2814C200.803 54.8813 200.631 55.3998 199.665 55.3998ZM200.692 65.8878C200.692 66.1013 200.615 66.2538 200.346 66.2538H198.973C198.704 66.2538 198.587 66.1369 198.587 65.8878V57.1588C198.587 56.8894 198.704 56.7928 198.973 56.7928H200.346C200.615 56.7928 200.692 56.9453 200.692 57.1588V65.8878Z"
    fill="#58595B"
  />
<path
    d="M206.253 66.4061C205.287 66.4061 203.991 66.2689 203.259 65.9791C202.873 65.8266 202.796 65.6486 202.852 65.3436L202.99 64.7081C203.045 64.398 203.183 64.3777 203.493 64.4183C204.342 64.5556 205.577 64.6522 206.238 64.6522C207.473 64.6522 207.977 64.3218 207.977 63.549C207.977 62.6593 207.646 62.4662 206.431 62.2933C204.54 62.0239 202.878 61.6171 202.878 59.5124C202.878 57.6009 204.347 56.5943 206.508 56.5943C207.301 56.5943 208.633 56.7112 209.446 57.0213C209.776 57.1586 209.909 57.3111 209.853 57.6009L209.7 58.2974C209.644 58.5668 209.527 58.6075 209.177 58.5668C208.348 58.4702 207.265 58.3533 206.548 58.3533C205.313 58.3533 205.023 58.699 205.023 59.4362C205.023 60.1733 205.486 60.2852 206.665 60.4784C208.5 60.7478 210.163 61.1138 210.163 63.4168C210.163 65.7198 208.251 66.4112 206.264 66.4112L206.253 66.4061Z"
    fill="#58595B"
  />
<path
    d="M215.119 66.4061C214.153 66.4061 212.857 66.2689 212.125 65.9791C211.739 65.8266 211.662 65.6486 211.718 65.3436L211.855 64.7081C211.911 64.398 212.049 64.3777 212.359 64.4183C213.208 64.5556 214.443 64.6522 215.104 64.6522C216.339 64.6522 216.843 64.3218 216.843 63.549C216.843 62.6593 216.512 62.4662 215.297 62.2933C213.406 62.0239 211.744 61.6171 211.744 59.5124C211.744 57.6009 213.213 56.5943 215.373 56.5943C216.167 56.5943 217.499 56.7112 218.312 57.0213C218.642 57.1586 218.775 57.3111 218.719 57.6009L218.566 58.2974C218.51 58.5668 218.393 58.6075 218.042 58.5668C217.214 58.4702 216.131 58.3533 215.414 58.3533C214.179 58.3533 213.889 58.699 213.889 59.4362C213.889 60.1733 214.352 60.2852 215.531 60.4784C217.366 60.7478 219.029 61.1138 219.029 63.4168C219.029 65.7198 217.117 66.4112 215.129 66.4112L215.119 66.4061Z"
    fill="#58595B"
  />
<path
    d="M222.17 55.3996C221.164 55.3996 221.032 54.8403 221.032 54.2811C221.032 53.6609 221.245 53.1779 222.17 53.1779C223.096 53.1779 223.309 53.6202 223.309 54.2811C223.309 54.881 223.136 55.3996 222.17 55.3996ZM223.197 65.8876C223.197 66.1011 223.121 66.2536 222.852 66.2536H221.479C221.21 66.2536 221.093 66.1367 221.093 65.8876V57.1586C221.093 56.8891 221.21 56.7925 221.479 56.7925H222.852C223.121 56.7925 223.197 56.9451 223.197 57.1586V65.8876Z"
    fill="#58595B"
  />
<path
    d="M229.532 66.4061C225.648 66.4061 225.399 63.5694 225.399 61.363C225.399 59.548 225.805 56.5943 229.532 56.5943C233.258 56.5943 233.802 59.0854 233.802 61.363C233.802 63.6405 233.533 66.4061 229.532 66.4061ZM229.552 58.4499C227.91 58.4499 227.544 59.4921 227.544 61.5002C227.544 63.5083 227.91 64.5505 229.532 64.5505C231.291 64.5505 231.637 63.5643 231.637 61.5002C231.637 59.4362 231.306 58.4499 229.552 58.4499Z"
    fill="#58595B"
  />
<path
    d="M243.502 66.2539H242.109C241.86 66.2539 241.743 66.137 241.743 65.8878L241.764 60.4583C241.764 59.3195 241.494 58.5671 240.371 58.5671C239.598 58.5671 238.245 59.1873 237.722 59.4364V65.8878C237.722 66.1217 237.625 66.2539 237.356 66.2539H235.983C235.714 66.2539 235.617 66.137 235.617 65.8878V57.1741C235.617 56.925 235.714 56.7877 235.983 56.7877H237.356C237.625 56.7877 237.722 56.925 237.722 57.1741V57.7537C237.722 57.7537 237.763 57.774 237.778 57.774C238.495 57.2707 239.847 56.6149 241.021 56.6149C243.629 56.6149 243.858 58.3332 243.858 60.2854V65.8878C243.858 66.1217 243.782 66.2539 243.492 66.2539H243.502Z"
    fill="#58595B"
  />
</svg>
