<svg
  width="290"
  height="67"
  viewBox="0 0 290 67"
  fill="none"
  xmlns="http://www.w3.org/2000/svg"
>
<path
    fill-rule="evenodd"
    clip-rule="evenodd"
    d="M43.4549 66.4008H46.7549V27.7008H43.4549V66.4008Z"
    fill="#004494"
  />
<path
    d="M147.499 33.6386V42.0427H145.253V33.6152C145.253 32.1814 144.949 31.1684 144.342 30.5762C143.743 29.984 142.703 29.6879 141.222 29.6879H135.565V27.7008H141.259C142.748 27.7008 143.95 27.9034 144.864 28.3086C145.779 28.706 146.447 29.3411 146.868 30.2138C147.289 31.0788 147.499 32.2204 147.499 33.6386ZM138.041 32.7269V42.0427H135.807V32.7269H138.041Z"
    fill="#626366"
  />
<path
    d="M131.716 33.2529V42.0427H124.905V40.0556H129.482V33.8607C129.482 32.5983 129.417 31.7061 129.288 31.184C129.158 30.6463 128.932 30.2645 128.608 30.0385C128.292 29.8047 127.835 29.6879 127.236 29.6879H125.597V27.7008H127.163C128.458 27.7008 129.405 27.8722 130.004 28.2151C130.603 28.5658 131.036 29.1385 131.303 29.9333C131.578 30.7204 131.716 31.8269 131.716 33.2529Z"
    fill="#626366"
  />
<path
    d="M122.962 40.1959V42.0427H111.502V40.0556H120.182L110.603 27.7008H113.395L118.021 33.7555C118.644 33.4983 119.098 33.1204 119.381 32.6217C119.664 32.1152 119.854 31.3437 119.952 30.3074L120.231 27.7008H122.538L122.295 30.2606C122.189 31.336 122.024 32.1619 121.797 32.7386C121.57 33.3074 121.251 33.7789 120.838 34.1529C120.425 34.5269 119.842 34.8581 119.09 35.1464L122.962 40.1959Z"
    fill="#626366"
  />
<path d="M107.859 27.7008V35.2399H105.625V27.7008H107.859Z" fill="#626366" />
<path
    d="M103.136 40.0556V42.0427H90.1337V40.0556H99.2879V33.6152C99.2879 32.1814 98.9843 31.1684 98.3773 30.5762C97.7784 29.984 96.7383 29.6879 95.2571 29.6879H90.7043V27.7008H95.2814C97.5153 27.7008 99.1138 28.1606 100.077 29.0801C101.04 29.9996 101.522 31.5191 101.522 33.6386V40.0556H103.136Z"
    fill="#626366"
  />
<path d="M87.0256 27.7008V42.0427H84.7917V27.7008H87.0256Z" fill="#626366" />
<path
    d="M70.502 39.8219C70.2268 40.6089 69.7897 41.1777 69.1908 41.5284C68.5918 41.8712 67.6489 42.0427 66.362 42.0427H66.2284V40.0556H66.4348C66.9933 40.0556 67.4385 39.9543 67.7703 39.7517C68.0941 39.5491 68.3247 39.2413 68.4623 38.8283C68.5999 38.4075 68.6687 37.7725 68.6687 36.9231V29.6879H66.362V27.7008H74.4113C76.6452 27.7008 78.2478 28.1606 79.2191 29.0801C80.1904 29.9918 80.676 31.5113 80.676 33.6386V42.0427H78.4421V33.6152C78.4421 32.1814 78.1386 31.1684 77.5315 30.5762C76.9326 29.984 75.8844 29.6879 74.3871 29.6879H70.9026V36.4906C70.9026 37.9244 70.7691 39.0348 70.502 39.8219Z"
    fill="#626366"
  />
<path
    d="M147.499 57.9805V66.3846H145.275V57.9571C145.275 56.5233 144.975 55.5103 144.374 54.9181C143.781 54.3259 142.751 54.0298 141.285 54.0298H135.684V52.0427H141.321C142.795 52.0427 143.985 52.2453 144.891 52.6505C145.796 53.0479 146.457 53.683 146.874 54.5558C147.291 55.4207 147.499 56.5623 147.499 57.9805ZM138.136 57.0688V66.3846H135.924V57.0688H138.136Z"
    fill="#626366"
  />
<path
    d="M122.486 61.6741L121.524 66.3846H119.193L120.202 61.7209C120.491 60.3806 120.755 59.4377 120.996 58.8922C121.236 58.339 121.536 57.8909 121.897 57.548C122.266 57.2052 122.758 56.913 123.375 56.6714L119.902 52.0427H122.63L128.051 59.3013C128.652 58.7559 129.129 58.0974 129.481 57.326C129.842 56.5467 130.078 55.6545 130.191 54.6493L130.467 52.0427H132.751L132.474 54.6025C132.386 55.4597 132.226 56.2116 131.994 56.8584C131.833 57.3026 131.641 57.7273 131.417 58.1325C131.192 58.5299 130.904 58.9429 130.551 59.3715C130.207 59.8 129.758 60.2793 129.205 60.8092L133.544 66.3846H130.732L124.385 58.0039C123.744 58.3078 123.287 58.8338 123.015 59.5819C122.935 59.7767 122.851 60.0494 122.762 60.4001C122.682 60.7507 122.59 61.1754 122.486 61.6741Z"
    fill="#626366"
  />
<path d="M116.308 52.0427V59.5819H114.096V52.0427H116.308Z" fill="#626366" />
<path
    d="M110.034 57.9805V66.3846H107.81V57.9571C107.81 56.5389 107.513 55.5298 106.92 54.9298C106.336 54.3298 105.306 54.0298 103.831 54.0298H99.324V52.0427H103.855C105.33 52.0427 106.52 52.2453 107.425 52.6505C108.331 53.0479 108.992 53.683 109.409 54.5558C109.825 55.4207 110.034 56.5623 110.034 57.9805Z"
    fill="#626366"
  />
<path d="M96.7638 52.0427V66.3846H94.5522V52.0427H96.7638Z" fill="#626366" />
<path
    d="M88.8548 58.413C88.8548 56.9402 88.5223 55.8415 87.8572 55.1168C87.1921 54.3921 86.1464 54.0298 84.7201 54.0298H81.4026V58.074H84.3234V60.0611H79.1549V52.0427H84.7441C86.8916 52.0427 88.4862 52.5648 89.5279 53.609C90.5777 54.6454 91.1025 56.2623 91.1025 58.4597V59.4182C91.1025 64.0625 88.8428 66.3846 84.3234 66.3846H79.2871V64.3975H84.3835C85.906 64.3975 87.0319 63.9884 87.761 63.1702C88.4902 62.3442 88.8548 61.1014 88.8548 59.4416V58.413Z"
    fill="#626366"
  />
<path d="M74.8399 52.0427V59.5819H72.6282V52.0427H74.8399Z" fill="#626366" />
<path
    d="M58.9859 64.1638C58.7134 64.9508 58.2807 65.5196 57.6877 65.8703C57.0948 66.2132 56.1612 66.3846 54.8871 66.3846H54.7549V64.3975H54.9592C55.5122 64.3975 55.9529 64.2962 56.2814 64.0936C56.6019 63.891 56.8303 63.5832 56.9665 63.1702C57.1028 62.7495 57.1709 62.1144 57.1709 61.265V54.0298H54.8871V52.0427H62.8562C65.0678 52.0427 66.6544 52.5025 67.616 53.422C68.5776 54.3337 69.0584 55.8532 69.0584 57.9805V66.3846H66.8467V57.9571C66.8467 56.5233 66.5463 55.5103 65.9453 54.9181C65.3523 54.3259 64.3146 54.0298 62.8322 54.0298H59.3825V60.8325C59.3825 62.2663 59.2503 63.3767 58.9859 64.1638Z"
    fill="#626366"
  />
<path
    fill-rule="evenodd"
    clip-rule="evenodd"
    d="M155.499 24.5C155.499 24.5 195.299 19.3 196.499 19.1C198.199 18.8 199.799 18.5 201.199 18.1C204.399 17.2 207.399 15.9 209.999 14.1C212.499 12.4 214.899 9.9 217.199 7.2C218.699 5.5 220.199 3.2 221.699 1V0C219.999 2.6 218.299 4.8 216.599 6.7C214.299 9.3 211.899 11.4 209.399 13C206.899 14.6 203.999 15.9 200.899 16.7C199.499 17.1 197.999 17.3 196.299 17.6C195.199 17.8 194.099 17.9 192.999 18C192.499 18 155.499 21.9 155.499 21.9V24.5Z"
    fill="#BBBDBF"
  />
<path
    fill-rule="evenodd"
    clip-rule="evenodd"
    d="M208.899 17.8002C206.399 19.2002 203.499 20.3002 200.299 20.9002C198.899 21.2002 197.499 21.4002 195.799 21.6002C194.799 21.7002 193.799 21.8002 192.799 21.9002C192.299 21.9002 191.699 22.0002 191.199 22.0002C178.999 23.2002 166.899 24.3002 155.499 25.4002V28.0002C166.899 26.6002 179.199 25.1002 191.399 23.7002C191.899 23.6002 192.499 23.6002 192.999 23.5002C193.999 23.4002 194.999 23.3002 195.999 23.1002C197.699 22.9002 199.299 22.6002 200.599 22.3002C203.899 21.6002 206.899 20.4002 209.499 18.8002C212.099 17.2002 214.299 15.1002 216.799 12.4002C218.299 10.7002 219.999 8.4002 221.599 6.2002V5.2002C219.699 7.7002 217.999 9.9002 216.199 11.7002C213.799 14.4002 211.399 16.4002 208.899 17.8002Z"
    fill="#BBBDBF"
  />
<path
    fill-rule="evenodd"
    clip-rule="evenodd"
    d="M215.899 17.2004C213.499 19.4004 210.899 21.2004 208.399 22.5004C205.899 23.7004 203.099 24.6004 199.799 25.1004C198.399 25.3004 196.999 25.5004 195.299 25.7004L155.499 28.9004V31.5004L190.799 27.7004L195.399 27.2004C197.099 27.0004 198.599 26.8004 199.999 26.5004C203.399 25.9004 206.299 24.9004 208.899 23.6004C211.599 22.2004 214.199 20.0004 216.699 17.6004C218.399 16.0004 219.899 13.9004 221.599 11.8004V10.9004C219.599 13.4004 217.799 15.4004 215.899 17.2004Z"
    fill="#BBBDBF"
  />
<path
    fill-rule="evenodd"
    clip-rule="evenodd"
    d="M206.299 30.6002C203.999 31.9002 202.299 32.7002 198.999 33.0002C196.999 33.2002 194.999 33.3002 192.999 33.4002C191.999 33.4002 191.099 33.5002 190.099 33.6002C184.099 33.9002 178.199 34.3002 172.199 34.7002L155.499 35.9002V38.5002L172.299 36.9002C177.699 36.4002 183.999 35.8002 190.199 35.3002L194.699 35.0002C196.399 34.9002 197.899 34.7002 199.199 34.5002C202.599 34.1002 205.499 33.4002 208.099 32.4002C210.899 31.4002 213.499 29.7002 216.099 27.8002C218.499 26.1002 221.699 22.7002 221.699 22.6002V21.7002C219.599 23.8002 218.299 25.0002 215.999 26.5002C213.099 28.5002 208.399 29.5002 206.299 30.6002Z"
    fill="#BBBDBF"
  />
<path
    fill-rule="evenodd"
    clip-rule="evenodd"
    d="M207.099 35.6004C204.599 36.3004 201.799 36.8004 198.499 37.1004C197.199 37.2004 195.699 37.3004 194.099 37.4004L189.699 37.6004C178.699 38.1004 167.699 38.7004 155.599 39.3004V41.9004C167.199 41.0004 178.499 40.1004 189.899 39.3004L194.299 39.0004C195.999 38.9004 197.399 38.8004 198.799 38.6004C202.199 38.2004 205.099 37.6004 207.599 36.8004C210.399 35.9004 213.199 34.6004 215.799 32.9004C217.699 31.7004 219.699 30.2004 221.699 28.4004C219.499 30.3004 217.399 30.7004 215.299 32.0004C212.599 33.6004 209.899 34.8004 207.099 35.6004Z"
    fill="#BBBDBF"
  />
<path
    fill-rule="evenodd"
    clip-rule="evenodd"
    d="M206.699 39.9002C204.199 40.5002 201.399 40.9002 198.099 41.0992C196.799 41.2002 195.399 41.2992 193.699 41.2992L189.299 41.5002C178.199 41.9002 166.999 42.4002 155.499 42.9002V45.5002C166.899 44.7002 178.099 44.0002 189.399 43.2002L193.799 42.9002C195.499 42.7992 196.899 42.7002 198.199 42.5992C201.599 42.2992 204.399 41.7992 206.999 41.0992C209.899 40.2992 212.699 39.2002 215.399 37.7992C217.499 36.7002 219.499 35.4002 221.599 33.7992V32.7002C219.299 34.4002 217.099 35.7002 214.899 36.7992C212.299 38.2002 209.499 39.2002 206.699 39.9002Z"
    fill="#BBBDBF"
  />
<path
    fill-rule="evenodd"
    clip-rule="evenodd"
    d="M206.299 44.0992C203.799 44.5992 200.999 44.9002 197.699 44.9992C196.399 45.0992 195.099 45.0992 193.399 45.2002L155.499 46.2002V48.7992L189.099 46.9992L193.499 46.7992C195.199 46.7002 196.599 46.5992 197.899 46.4992C201.299 46.2002 203.999 45.9002 206.599 45.2992C209.499 44.7002 212.399 43.7992 215.099 42.5992C217.299 41.7002 219.399 40.5992 221.699 39.2002V38.2002C219.299 39.5992 216.999 40.7002 214.699 41.5992C211.999 42.7992 209.199 43.5992 206.299 44.0992Z"
    fill="#BBBDBF"
  />
<path
    fill-rule="evenodd"
    clip-rule="evenodd"
    d="M205.999 48.2998C201.299 48.9008 196.599 48.9998 191.899 49.0998C190.799 49.0998 189.799 49.0998 188.699 49.1998L155.499 49.7998V52.4008L188.799 50.9998C189.899 50.9998 190.899 50.9008 191.999 50.9008C196.699 50.6998 201.499 50.4998 206.199 49.7998C209.199 49.2998 212.099 48.5998 214.699 47.6998C216.899 46.9998 219.199 45.9998 221.499 44.7998V43.7998C219.099 44.9008 216.599 45.9008 214.299 46.5998C211.799 47.2998 208.999 47.9998 205.999 48.2998Z"
    fill="#BBBDBF"
  />
<path
    fill-rule="evenodd"
    clip-rule="evenodd"
    d="M205.799 52.5992C201.399 52.9992 196.999 52.9992 192.599 52.9992H188.599C177.599 52.9992 166.599 53.0992 155.499 53.2002V55.7992C166.099 55.4002 177.399 55.0992 188.699 54.7002C189.999 54.7002 191.399 54.5992 192.699 54.5992C196.999 54.4992 201.499 54.4002 205.899 53.9002C208.999 53.5992 211.799 53.0992 214.499 52.4002C216.799 51.7992 219.199 50.9992 221.699 50.0992V49.2002C219.199 50.0992 216.699 50.7992 214.299 51.4002C211.599 51.9992 208.799 52.4002 205.799 52.5992Z"
    fill="#BBBDBF"
  />
<path
    fill-rule="evenodd"
    clip-rule="evenodd"
    d="M205.599 56.7994C203.799 56.9004 201.799 56.9004 199.599 56.9004H197.099L188.499 56.7994C182.599 56.7994 176.799 56.6994 171.299 56.6994L155.499 56.7994V59.4004L171.399 58.9994C176.899 58.9004 182.699 58.6994 188.499 58.5994L197.099 58.4994C199.499 58.4994 202.599 58.4004 205.699 58.1994C208.799 57.9994 211.599 57.6994 214.299 57.2994C216.699 56.9004 219.199 56.4004 221.699 55.7994V54.9004C219.199 55.4994 216.599 55.9994 214.199 56.2994C211.399 56.4994 208.699 56.6994 205.599 56.7994Z"
    fill="#BBBDBF"
  />
<path
    fill-rule="evenodd"
    clip-rule="evenodd"
    d="M196.999 60.9L188.399 60.799C177.499 60.599 166.599 60.4 155.499 60.2V62.799C166.099 62.7 177.299 62.599 188.399 62.5L196.999 62.4C199.899 62.4 202.699 62.299 205.599 62.2C211.499 62 216.699 61.599 221.699 60.9V60C216.799 60.5 211.499 60.799 205.599 60.9H196.999Z"
    fill="#BBBDBF"
  />
<path
    fill-rule="evenodd"
    clip-rule="evenodd"
    d="M221.599 65.4998L155.499 63.7998V66.3998H221.599V65.4998Z"
    fill="#BBBDBF"
  />
<path
    fill-rule="evenodd"
    clip-rule="evenodd"
    d="M215.699 22.0004C213.199 24.0004 211.199 25.5004 208.199 26.7004C205.499 27.8004 202.599 28.2004 199.399 28.7004C197.299 29.0004 195.099 29.4004 192.999 29.6004C192.099 29.7004 191.299 29.7004 190.399 29.8004L155.499 32.3004V34.9004L190.399 31.5004L194.899 31.1004C196.599 30.9004 198.099 30.8004 199.499 30.5004C202.899 30.0004 205.799 29.1004 208.399 27.9004C211.099 26.7004 213.899 24.7004 216.399 22.6004C218.099 21.1004 219.799 19.3004 221.599 17.3004V16.4004C219.399 18.6004 217.599 20.5004 215.699 22.0004Z"
    fill="#BBBDBF"
  />
<path
    fill-rule="evenodd"
    clip-rule="evenodd"
    d="M249.7 0C249.7 0 261.6 18.9 263.8 22.4C266 25.9 268.5 28.6 277.3 30.5C286.1 32.4 289.9 33.2 289.9 33.2V33.9C289.9 33.9 284.3 32.7 277.1 31.1C269.9 29.5 267 29 263.7 24.4C261 20.6 249.7 4.5 249.7 4.5V0Z"
    fill="#BBBDBF"
  />
<path
    fill-rule="evenodd"
    clip-rule="evenodd"
    d="M249.7 21.6006C249.7 21.6006 260.5 32.9006 263.7 36.2006C267 39.7006 271.3 40.9006 277.2 42.0006C282.8 43.0006 289.9 44.2006 289.9 44.2006V44.8006C289.9 44.8006 283.2 43.7006 277.2 42.7006C271.3 41.7006 267.1 41.1006 263.7 38.0006C260.7 35.2006 249.8 25.0006 249.8 25.0006L249.7 21.6006Z"
    fill="#BBBDBF"
  />
<path
    fill-rule="evenodd"
    clip-rule="evenodd"
    d="M249.7 26.7998C249.7 26.7998 260 36.3998 263.7 39.5998C267.1 42.5998 269.8 43.4998 277.2 44.9008C284.6 46.1998 289.9 46.9998 289.9 46.9998V47.6998C289.9 47.6998 283.2 46.5998 277.2 45.5998C271.2 44.5998 267.3 44.2998 263.7 41.2998C259.5 37.9008 249.7 29.8998 249.7 29.8998V26.7998Z"
    fill="#BBBDBF"
  />
<path
    fill-rule="evenodd"
    clip-rule="evenodd"
    d="M249.7 32.2002C249.7 32.2002 261.5 41.5002 263.7 43.2002C265.9 44.8002 268.8 46.7002 277.2 48.0002C285.6 49.2002 289.9 49.8002 289.9 49.8002V50.5002C289.9 50.5002 282.3 49.4002 277.2 48.8002C272.1 48.2002 268.2 47.9002 263.7 44.9002C259.3 42.0002 249.7 35.2002 249.7 35.2002V32.2002Z"
    fill="#BBBDBF"
  />
<path
    fill-rule="evenodd"
    clip-rule="evenodd"
    d="M249.7 37.4004C249.7 37.4004 261.5 45.2994 263.7 46.5004C265.9 47.7004 268.6 49.7994 277.2 50.9004C285.8 52.0004 289.9 52.5004 289.9 52.5004V53.2004C289.9 53.2004 282.8 52.4004 277.2 51.7994C271.6 51.2004 267.8 50.4004 263.7 48.0994C259.6 45.7994 249.7 40.0994 249.7 40.0994V37.4004Z"
    fill="#BBBDBF"
  />
<path
    fill-rule="evenodd"
    clip-rule="evenodd"
    d="M249.7 42.7002C249.7 42.7002 260.1 48.4002 263.7 50.0992C267.6 52.0992 271 53.0002 277.2 53.8002C283.3 54.5002 289.9 55.2002 289.9 55.2002V55.8002C289.9 55.8002 283.8 55.0992 277.2 54.5002C270.7 53.9002 268.4 53.5992 263.7 51.5002C259.5 49.5992 249.7 45.0992 249.7 45.0992V42.7002Z"
    fill="#BBBDBF"
  />
<path
    fill-rule="evenodd"
    clip-rule="evenodd"
    d="M249.699 48C249.699 48 257.899 51.5 263.699 53.8C269.399 56.1 273.699 56.3 277.199 56.6C278.699 56.8 289.799 57.9 289.799 57.9V58.5C289.799 58.5 283.199 58 277.099 57.4C271.099 56.9 268.499 56.6 263.599 55C258.699 53.4 249.599 50.2 249.599 50.2L249.699 48Z"
    fill="#BBBDBF"
  />
<path
    fill-rule="evenodd"
    clip-rule="evenodd"
    d="M249.7 53.4004C249.7 53.4004 258 56.0004 263.7 57.5004C269.4 59.0004 274.6 59.5994 277.2 59.7994C279.8 60.0004 289.9 60.7994 289.9 60.7994V61.4004C289.9 61.4004 284.2 61.0004 277.2 60.5004C271.5 60.0994 267 59.7004 263.7 58.9004C260 58.0994 249.7 55.5994 249.7 55.5994V53.4004Z"
    fill="#BBBDBF"
  />
<path
    fill-rule="evenodd"
    clip-rule="evenodd"
    d="M249.7 58.7002C249.7 58.7002 256.5 59.9002 263.7 61.0992C269.1 62.0002 276.4 62.5992 277.2 62.5992C278 62.5992 289.9 63.5002 289.9 63.5002V64.0992C289.9 64.0992 282.3 63.7002 277.2 63.4002C271.9 63.0992 266.7 62.8002 263.7 62.5002C257 61.8002 249.7 60.9002 249.7 60.9002V58.7002Z"
    fill="#BBBDBF"
  />
<path
    fill-rule="evenodd"
    clip-rule="evenodd"
    d="M249.7 64.2998C249.7 64.2998 260.4 64.6998 263.7 64.7998C267 64.9008 289.9 65.7998 289.9 65.7998V66.4008H249.7V64.2998Z"
    fill="#BBBDBF"
  />
<path
    fill-rule="evenodd"
    clip-rule="evenodd"
    d="M277.2 33.3994C267.5 31.2994 265.3 27.7994 263.7 25.5994C262.1 23.3994 249.8 5.39941 249.8 5.39941V9.49941C250.3 10.0994 260.8 23.8994 263.8 27.6994C267.1 31.9994 272.3 32.9994 277.3 33.9994C282.3 35.0994 290 36.5994 290 36.5994V35.9994C289.9 35.9994 279.7 33.9994 277.2 33.3994Z"
    fill="#BBBDBF"
  />
<path
    fill-rule="evenodd"
    clip-rule="evenodd"
    d="M277.2 36.2994C269.2 34.6994 266 32.1994 263.7 29.1994C261.4 26.0994 249.8 10.8994 249.8 10.8994V14.6994C250.3 15.2994 260.9 27.7994 263.7 31.0994C267 34.8994 271.6 35.8994 277.2 36.8994C282.8 37.9004 289.9 39.2994 289.9 39.2994V38.6994C289.9 38.6994 281.8 37.1994 277.2 36.2994Z"
    fill="#BBBDBF"
  />
<path
    fill-rule="evenodd"
    clip-rule="evenodd"
    d="M277.2 39.2006C268.9 37.5996 267.2 36.3006 263.7 32.4006C261.5 30.0006 250.2 16.7006 249.7 16.1006V19.6006C249.7 19.6006 260.2 30.8006 263.6 34.2006C268 38.5996 272.2 38.9006 277.1 39.8006C282 40.7006 289.8 42.0996 289.8 42.0996V41.5006C289.9 41.5006 280.5 39.9006 277.2 39.2006Z"
    fill="#BBBDBF"
  />
<path
    fill-rule="evenodd"
    clip-rule="evenodd"
    d="M182.999 66H240.899V28H182.999V66Z"
    fill="#004494"
  />
<path
    fill-rule="evenodd"
    clip-rule="evenodd"
    d="M212.6 33.1006H214.6L213 34.4006L213.6 36.4006L212 35.2006L210.4 36.4006L211 34.4006L209.4 33.1006H211.4L212 31.1006L212.6 33.1006Z"
    fill="#FFF100"
  />
<path
    fill-rule="evenodd"
    clip-rule="evenodd"
    d="M212.6 58.9H214.6L213 60.099L213.6 62L212 60.799L210.4 62L211 60.099L209.4 58.9H211.4L212 57L212.6 58.9Z"
    fill="#FFF100"
  />
<path
    fill-rule="evenodd"
    clip-rule="evenodd"
    d="M219 57.1998H221L219.4 58.3998L220 60.2998L218.4 59.0988L216.8 60.2998L217.4 58.3998L215.8 57.1998H217.8L218.4 55.2998L219 57.1998Z"
    fill="#FFF100"
  />
<path
    fill-rule="evenodd"
    clip-rule="evenodd"
    d="M219 34.7994H221L219.4 35.9994L220 37.9004L218.4 36.6994L216.8 37.9994L217.5 35.9994L215.9 34.7994H217.9L218.5 32.8994L219 34.7994Z"
    fill="#FFF100"
  />
<path
    fill-rule="evenodd"
    clip-rule="evenodd"
    d="M223.799 39.5992H225.799L224.199 40.7992L224.799 42.7002L223.199 41.4992L221.599 42.7002L222.199 40.7992L220.599 39.5992H222.599L223.199 37.7002L223.799 39.5992Z"
    fill="#FFF100"
  />
<path
    fill-rule="evenodd"
    clip-rule="evenodd"
    d="M223.799 52.5992H225.799L224.199 53.7992L224.799 55.7002L223.199 54.4992L221.599 55.7002L222.199 53.7992L220.599 52.5992H222.599L223.199 50.7002L223.799 52.5992Z"
    fill="#FFF100"
  />
<path
    fill-rule="evenodd"
    clip-rule="evenodd"
    d="M225.6 45.9996H227.6L226 47.1996L226.6 49.0996L225 47.8996L223.4 49.0996L224 47.1996L222.3 45.9996H224.3L224.9 44.0996L225.6 45.9996Z"
    fill="#FFF100"
  />
<path
    fill-rule="evenodd"
    clip-rule="evenodd"
    d="M206 34.8H208L206.4 36L207 37.901L205.5 36.8L203.8 38L204.4 36.1L202.8 34.9H204.8L205.5 33L206 34.8Z"
    fill="#FFF100"
  />
<path
    fill-rule="evenodd"
    clip-rule="evenodd"
    d="M201.398 39.5992H203.398L201.798 40.7992L202.398 42.7002L200.798 41.4992L199.198 42.7002L199.798 40.7992L198.198 39.5992H200.198L200.798 37.7002L201.398 39.5992Z"
    fill="#FFF100"
  />
<path
    fill-rule="evenodd"
    clip-rule="evenodd"
    d="M199.699 45.9996H201.699L200.099 47.1996L200.699 49.0996L199.099 47.8996L197.499 49.0996L198.099 47.1996L196.499 45.9996H198.499L199.099 44.0996L199.699 45.9996Z"
    fill="#FFF100"
  />
<path
    fill-rule="evenodd"
    clip-rule="evenodd"
    d="M201.398 52.5992H203.398L201.798 53.7992L202.398 55.7002L200.798 54.4992L199.198 55.7002L199.798 53.7992L198.198 52.5992H200.198L200.798 50.7002L201.398 52.5992Z"
    fill="#FFF100"
  />
<path
    fill-rule="evenodd"
    clip-rule="evenodd"
    d="M206.1 57.2994H208.1L206.5 58.4994L207.1 60.4004L205.5 59.1994L203.9 60.4004L204.5 58.4994L202.9 57.2994H204.9L205.5 55.4004L206.1 57.2994Z"
    fill="#FFF100"
  />
</svg>
