<svg
  width="291"
  height="72"
  viewBox="0 0 291 72"
  fill="none"
  xmlns="http://www.w3.org/2000/svg"
>
<path
    d="M86.9932 27.5411H86.9369H28.567V66.1905H86.9369H86.9932V27.5411Z"
    fill="#003399"
  />
<path
    d="M58.3093 33.3809H60.3442L58.703 34.645L59.3421 36.6472L57.711 35.4135L56.08 36.6472L56.7191 34.645L55.0676 33.3809H57.0975L57.711 31.4293L58.3093 33.3809Z"
    fill="#FFED00"
  />
<path
    d="M58.3808 59.1574H60.4158L58.7796 60.3759L59.4137 62.3023L57.7826 61.1141L56.1516 62.3023L56.7958 60.3759L55.1392 59.1574H57.1691L57.7826 57.2816L58.3808 59.1574Z"
    fill="#FFED00"
  />
<path
    d="M64.8283 57.4535H66.8684L65.2271 58.667L65.8663 60.5934L64.2301 59.4052L62.5991 60.5934L63.2433 58.667L61.5867 57.4535H63.6165L64.2301 55.5726L64.8283 57.4535Z"
    fill="#FFED00"
  />
<path
    d="M64.8283 35.1001H66.8684L65.2271 36.3186L65.8663 38.245L64.2301 37.0568L62.5991 38.245L63.2433 36.3186L61.5867 35.1001H63.6165L64.2301 33.2242L64.8283 35.1001Z"
    fill="#FFED00"
  />
<path
    d="M69.6192 39.8377H71.6491L70.0129 41.0512L70.6469 42.9776L69.0159 41.7894L67.3848 42.9776L68.0291 41.0512L66.3724 39.8377H68.4023L69.0159 37.9568L69.6192 39.8377Z"
    fill="#FFED00"
  />
<path
    d="M69.6192 52.7815H71.6491L70.0129 54.0001L70.6469 55.9265L69.0159 54.7383L67.3848 55.9265L68.0291 54.0001L66.3724 52.7815H68.4023L69.0159 50.9057L69.6192 52.7815Z"
    fill="#FFED00"
  />
<path
    d="M71.4087 46.2085H73.4488L71.8076 47.427L72.4467 49.3534L70.8105 48.1652L69.1795 49.3534L69.8237 47.427L68.1671 46.2085H70.197L70.8105 44.3326L71.4087 46.2085Z"
    fill="#FFED00"
  />
<path
    d="M51.7391 35.1203H53.7689L52.1328 36.3338L52.7668 38.2602L51.1357 37.072L49.5047 38.2602L50.1489 36.3338L48.4974 35.1203H50.5222L51.1357 33.2394L51.7391 35.1203Z"
    fill="#FFED00"
  />
<path
    d="M47.0811 39.8528H49.1212L47.4799 41.0663L48.1139 42.9927L46.4829 41.8045L44.8518 42.9927L45.4961 41.0663L43.8395 39.8528H45.8693L46.4829 37.9719L47.0811 39.8528Z"
    fill="#FFED00"
  />
<path
    d="M45.3529 46.2287H47.3879L45.7517 47.4422L46.3857 49.3686L44.7547 48.1855L43.1237 49.3686L43.7679 47.4422L42.1164 46.2287H44.1411L44.7547 44.3478L45.3529 46.2287Z"
    fill="#FFED00"
  />
<path
    d="M47.0811 52.7967H49.1212L47.4799 54.0153L48.1139 55.9417L46.4829 54.7535L44.8518 55.9417L45.4961 54.0153L43.8395 52.7967H45.8693L46.4829 50.9209L47.0811 52.7967Z"
    fill="#FFED00"
  />
<path
    d="M51.8055 57.4686H53.8354L52.1992 58.6821L52.8332 60.6085L51.2022 59.4203L49.5711 60.6085L50.2154 58.6821L48.5639 57.4686H50.5886L51.2022 55.5877L51.8055 57.4686Z"
    fill="#FFED00"
  />
<path
    d="M95.8693 0.00505726C95.8693 0.00505726 107.869 18.9101 110.068 22.3736C112.262 25.8371 114.772 28.5826 123.653 30.4433C132.535 32.304 136.4 33.1837 136.4 33.1837V33.8562C136.4 33.8562 130.755 32.668 123.495 31.0652C116.234 29.4624 113.264 28.9214 109.956 24.3657C107.2 20.5736 95.8693 3.61517 95.8693 3.61517V0V0.00505726Z"
    fill="#6D6E70"
  />
<path
    d="M95.8693 21.595C95.8693 21.595 106.796 32.9158 109.956 36.1669C113.31 39.6152 117.6 40.8894 123.551 41.941C129.232 42.9422 136.395 44.1 136.395 44.1V44.7371C136.395 44.7371 129.666 43.645 123.551 42.6135C117.553 41.5972 113.356 41.0309 109.92 37.9011C106.842 35.1 95.8693 24.9219 95.8693 24.9219V21.5899V21.595Z"
    fill="#6D6E70"
  />
<path
    d="M95.8693 26.6966C95.8693 26.6966 106.259 36.2377 109.956 39.4989C113.356 42.4972 116.112 43.4326 123.587 44.7422C131.062 46.0517 136.395 46.8658 136.395 46.8658V47.5382C136.395 47.5382 129.63 46.441 123.551 45.4804C117.472 44.5248 113.596 44.1455 109.956 41.2281C105.758 37.8607 95.8693 29.8113 95.8693 29.8113V26.6916V26.6966Z"
    fill="#6D6E70"
  />
<path
    d="M95.8693 32.1321C95.8693 32.1321 107.737 41.4456 109.956 43.0737C112.175 44.7018 115.109 46.6029 123.623 47.8214C132.064 49.0298 136.395 49.6265 136.395 49.6265V50.3343C136.395 50.3343 128.741 49.2371 123.623 48.6001C118.505 47.963 114.583 47.69 109.991 44.6664C105.523 41.7237 95.8693 35.004 95.8693 35.004V32.1321Z"
    fill="#6D6E70"
  />
<path
    d="M95.8693 37.3602C95.8693 37.3602 107.772 45.1973 110.027 46.4411C112.282 47.6798 114.931 49.7023 123.623 50.7995C132.315 51.8967 136.395 52.3922 136.395 52.3922V53.0647C136.395 53.0647 129.206 52.286 123.587 51.6843C117.973 51.0826 114.143 50.2686 109.956 47.9984C105.768 45.7332 95.8693 40.0096 95.8693 40.0096V37.3602Z"
    fill="#6D6E70"
  />
<path
    d="M95.8693 42.5882C95.8693 42.5882 106.392 48.2511 109.956 50.0157C113.928 51.9876 117.364 52.9331 123.587 53.6663C129.697 54.3843 136.395 55.082 136.395 55.082V55.7191C136.395 55.7191 130.203 55.0618 123.587 54.4449C117.027 53.8281 114.69 53.5449 109.956 51.4668C105.722 49.6062 95.8693 45.0657 95.8693 45.0657V42.5831V42.5882Z"
    fill="#6D6E70"
  />
<path
    d="M95.8693 47.8871C95.8693 47.8871 104.183 51.4062 110.027 53.7017C115.774 55.9568 120.166 56.1489 123.658 56.5382C125.197 56.7101 136.395 57.8478 136.395 57.8478V58.4848C136.395 58.4848 129.707 57.9539 123.623 57.423C117.538 56.8921 114.915 56.6646 109.991 55.0517C105.006 53.4135 95.8693 50.2635 95.8693 50.2635V47.8921V47.8871Z"
    fill="#6D6E70"
  />
<path
    d="M95.8693 53.2922C95.8693 53.2922 104.265 55.8658 109.991 57.3523C115.718 58.8388 120.974 59.4455 123.623 59.6175C126.271 59.7944 136.4 60.6085 136.4 60.6085V61.2102C136.4 61.2102 130.638 60.8208 123.587 60.3253C117.886 59.9259 113.31 59.5012 109.956 58.768C106.244 57.959 95.8693 55.522 95.8693 55.522V53.2922Z"
    fill="#6D6E70"
  />
<path
    d="M95.8693 58.6063C95.8693 58.6063 102.736 59.7793 109.991 60.9675C115.432 61.8574 122.799 62.4186 123.587 62.454C124.374 62.4894 136.395 63.3035 136.395 63.3035V63.9405C136.395 63.9405 128.7 63.5462 123.587 63.2681C118.259 62.9748 112.962 62.6563 109.956 62.3478C103.217 61.6551 95.8693 60.7349 95.8693 60.7349V58.6063Z"
    fill="#6D6E70"
  />
<path
    d="M95.8693 64.1074C95.8693 64.1074 106.699 64.5119 109.991 64.5826C113.284 64.6534 136.395 65.5737 136.395 65.5737V66.1956H95.8693V64.1074Z"
    fill="#6D6E70"
  />
<path
    d="M123.582 33.3657C113.78 31.2775 111.561 27.7332 109.915 25.5388C108.268 23.3393 95.8642 5.41516 95.8642 5.41516V8.71179C96.355 9.34382 106.97 23.8348 109.95 27.627C113.31 31.8994 118.571 32.8702 123.582 33.932C128.587 34.9938 136.395 36.4753 136.395 36.4753V35.909C136.395 35.909 126.118 33.9017 123.582 33.3657Z"
    fill="#6D6E70"
  />
<path
    d="M123.582 36.2023C115.534 34.645 112.277 32.127 109.915 29.0832C107.552 26.0343 95.8642 10.4461 95.8642 10.4461V14.2787C96.355 14.85 107.046 27.7534 109.915 30.9995C113.259 34.7866 117.927 35.7826 123.582 36.809C129.237 37.8355 136.39 39.1804 136.39 39.1804V38.6141C136.39 38.6141 128.224 37.1023 123.582 36.2074V36.2023Z"
    fill="#6D6E70"
  />
<path
    d="M123.582 39.1399C115.212 37.5321 113.494 36.2124 109.95 32.3748C107.721 29.963 96.3448 16.6804 95.8642 16.1191V19.6585C95.8642 19.6585 106.494 30.8731 109.915 34.1849C114.399 38.5332 118.607 38.8619 123.582 39.7467C128.557 40.6315 136.39 42.0473 136.39 42.0473V41.4456C136.39 41.4456 126.931 39.7871 123.582 39.145V39.1399Z"
    fill="#6D6E70"
  />
<path
    d="M0.782944 27.7787C0.782944 27.7787 28.4954 24.8562 36.2569 23.7792C48.5281 22.0803 58.57 20.2702 67.8603 6.18875C67.8603 6.18875 67.8705 5.38987 67.8603 5.03088C62.1696 13.591 54.3211 19.4309 43.5122 21.1247C32.9539 22.7831 0.777832 25.2051 0.777832 25.2051V27.7787H0.782944Z"
    fill="#6D6E70"
  />
<path
    d="M0.777832 24.2849C0.777832 24.2849 26.4604 21.1045 34.9224 19.9315C48.3082 18.0809 57.7212 16.4174 67.8552 1.05675C67.8552 1.05675 67.8603 0.394392 67.8552 0.00506592C61.648 9.34384 53.9836 15.3759 42.1931 17.2264C30.6735 19.0365 0.777832 21.6759 0.777832 21.6759V24.2899V24.2849Z"
    fill="#6D6E70"
  />
<path d="M26.9973 64.1326H0.793167V66.1854H26.9973V64.1326Z" fill="#6D6E70" />
<path
    d="M67.8552 22.5708C67.8552 22.5708 67.8705 21.3624 67.8654 21.1045C66.6332 22.9601 65.0124 24.6438 63.141 26.1253H64.9766C66.0094 25.0736 66.9758 23.8955 67.8501 22.5708H67.8552Z"
    fill="#6D6E70"
  />
<path
    d="M67.8552 17.1101C67.8552 17.1101 67.8654 16.0382 67.8603 15.7449C64.8897 20.2146 60.4669 23.7843 55.3539 26.1506L58.3706 26.1404C61.8577 24.1331 65.0993 21.2815 67.8501 17.1101H67.8552Z"
    fill="#6D6E70"
  />
<path
    d="M67.8552 11.6495C67.8552 11.6495 67.8654 10.7141 67.8552 10.3905C62.686 18.172 54.6483 23.4961 44.8212 25.0383C42.4948 25.4023 38.706 25.8068 34.3037 26.2164L46.3039 26.1759C54.224 24.4315 61.6378 21.059 67.845 11.6495H67.8552Z"
    fill="#6D6E70"
  />
<path
    d="M27.0024 60.6742C13.6319 60.745 0.793167 60.8006 0.793167 60.8006V62.9394C0.793167 62.9394 14.2403 62.8433 27.0024 62.7371V60.6742Z"
    fill="#6D6E70"
  />
<path
    d="M27.0024 57.0034C13.7239 57.15 0.788055 57.2613 0.788055 57.2613V59.4456C0.788055 59.4456 14.3733 59.2686 27.0024 59.0714V57.0034Z"
    fill="#6D6E70"
  />
<path
    d="M26.9973 53.3225C13.816 53.55 0.788055 53.722 0.788055 53.722V55.9517C0.788055 55.9517 14.5164 55.6837 26.9973 55.3905V53.3225Z"
    fill="#6D6E70"
  />
<path
    d="M27.0024 49.6214C13.9182 49.9399 0.788055 50.1776 0.788055 50.1776V52.4478C0.788055 52.4478 14.6749 52.0736 27.0024 51.6843V49.6163V49.6214Z"
    fill="#6D6E70"
  />
<path
    d="M27.0075 45.9102C14.0205 46.3197 0.788055 46.6433 0.788055 46.6433V48.959C0.788055 48.959 14.8437 48.4736 27.0075 47.9781V45.9152V45.9102Z"
    fill="#6D6E70"
  />
<path
    d="M27.0024 42.1838C14.1176 42.6995 0.788055 43.104 0.788055 43.104V45.4602C0.788055 45.4602 15.0175 44.8433 27.0024 44.2315V42.1787V42.1838Z"
    fill="#6D6E70"
  />
<path
    d="M27.0075 38.4321C14.2199 39.059 0.782944 39.5596 0.782944 39.5596V41.9613C0.782944 41.9613 15.2016 41.1978 27.0075 40.4647V38.4321Z"
    fill="#6D6E70"
  />
<path
    d="M27.0075 34.6602C14.317 35.4085 0.782944 36.0203 0.782944 36.0203V38.4624C0.782944 38.4624 15.3959 37.5321 27.0075 36.6725V34.6602Z"
    fill="#6D6E70"
  />
<path
    d="M27.0075 30.868C14.404 31.7478 0.782944 32.486 0.782944 32.486V34.9737C0.782944 34.9737 15.5902 33.8512 27.0075 32.8602V30.8731V30.868Z"
    fill="#6D6E70"
  />
<path
    d="M27.0075 27.0405C14.4807 28.0669 0.777832 28.9416 0.777832 28.9416V31.4697C0.777832 31.4697 15.7845 30.1247 27.0075 28.9922V27.0405Z"
    fill="#6D6E70"
  />
<path
    d="M145.394 33.551C145.394 33.3017 145.511 33.1643 145.781 33.1643H152.895C153.124 33.1643 153.261 33.3017 153.261 33.5307V34.7316C153.261 34.9656 153.164 35.0776 152.874 35.0776H147.598V38.4055H152.274C152.523 38.4055 152.661 38.5225 152.661 38.7515V39.9524C152.661 40.1865 152.564 40.2984 152.274 40.2984H147.598V44.1046H153.012C153.246 44.1046 153.358 44.2217 153.358 44.471V45.6515C153.358 45.9009 153.261 45.9976 152.991 45.9976H145.781C145.511 45.9976 145.394 45.8805 145.394 45.6515V33.5459V33.551Z"
    fill="#58595B"
  />
<path
    d="M163.108 46.0034H161.734C161.444 46.0034 161.367 45.866 161.367 45.637V45.0366L161.327 45.0162C160.573 45.5403 159.256 46.1764 158.08 46.1764C155.47 46.1764 155.22 44.6295 155.22 42.5992V36.9153C155.22 36.6812 155.317 36.5286 155.587 36.5286H156.996C157.246 36.5286 157.342 36.666 157.342 36.9153V42.3498C157.342 43.51 157.576 44.2428 158.752 44.2428C159.581 44.2428 160.858 43.622 161.362 43.3726V36.9153C161.362 36.6812 161.438 36.5286 161.729 36.5286H163.102C163.372 36.5286 163.469 36.666 163.469 36.9153V45.637C163.469 45.8864 163.372 46.0034 163.102 46.0034H163.108Z"
    fill="#58595B"
  />
<path
    d="M168.018 45.6365C168.018 45.8706 167.921 46.0029 167.652 46.0029H166.262C165.993 46.0029 165.896 45.8859 165.896 45.6365V36.9148C165.896 36.6654 165.993 36.5281 166.262 36.5281H167.636C167.926 36.5281 168.023 36.6807 168.023 36.9148V37.7646L168.064 37.8053C168.644 37.2659 170.018 36.6044 170.924 36.4314C171.173 36.3754 171.351 36.4314 171.387 36.7621L171.524 38.0597C171.544 38.3294 171.565 38.4464 171.158 38.5228C170.074 38.7365 168.705 39.1232 168.028 39.4132V45.6365H168.018Z"
    fill="#58595B"
  />
<path
    d="M176.526 46.1557C172.638 46.1557 172.389 43.3164 172.389 41.1079C172.389 39.2913 172.796 36.3349 176.526 36.3349C180.256 36.3349 180.8 38.8283 180.8 41.1079C180.8 43.3876 180.53 46.1557 176.526 46.1557ZM176.546 38.1922C174.902 38.1922 174.536 39.2354 174.536 41.2453C174.536 43.2553 174.902 44.2984 176.526 44.2984C178.286 44.2984 178.632 43.3113 178.632 41.2453C178.632 39.1794 178.302 38.1922 176.546 38.1922Z"
    fill="#58595B"
  />
<path
    d="M186.637 46.1557C182.749 46.1557 182.5 43.3164 182.5 41.1079C182.5 39.2913 182.907 36.3349 186.637 36.3349C190.367 36.3349 190.911 38.8283 190.911 41.1079C190.911 43.3876 190.641 46.1557 186.637 46.1557ZM186.657 38.1922C185.013 38.1922 184.647 39.2354 184.647 41.2453C184.647 43.2553 185.013 44.2984 186.637 44.2984C188.397 44.2984 188.743 43.3113 188.743 41.2453C188.743 39.1794 188.413 38.1922 186.657 38.1922Z"
    fill="#58595B"
  />
<path
    d="M197.312 46.1758C196.676 46.1758 195.786 46.0588 194.895 45.7484L194.875 45.7687V49.1729C194.875 49.3867 194.819 49.5597 194.509 49.5597H193.135C192.824 49.5597 192.768 49.4223 192.768 49.1729V36.9147C192.768 36.6653 192.865 36.528 193.135 36.528H194.509C194.778 36.528 194.855 36.6806 194.855 36.9147V37.4948L194.911 37.5355C195.608 37.0521 196.844 36.3753 197.964 36.3753C200.498 36.3753 201.154 38.2886 201.154 41.2094C201.154 44.3592 200.36 46.1758 197.307 46.1758H197.312ZM197.465 38.3089C196.671 38.3089 195.455 38.8687 194.875 39.1791V44.0132C195.745 44.2625 196.442 44.3439 197.099 44.3439C198.493 44.3439 198.976 43.6265 198.976 41.1941C198.976 38.7618 198.493 38.314 197.47 38.314L197.465 38.3089Z"
    fill="#58595B"
  />
<path
    d="M208.858 44.8986C207.892 45.6313 206.594 46.1554 205.302 46.1554C203.251 46.1554 202.656 45.036 202.656 43.4127C202.635 41.1483 203.856 40.1815 206.289 40.1815H208.762V39.6777C208.762 38.5176 208.334 38.1105 206.752 38.1105C206.116 38.1105 204.895 38.2072 204.121 38.2835C203.734 38.3395 203.638 38.3242 203.582 38.0494L203.409 37.3319C203.373 37.0826 203.429 36.9248 203.851 36.7518C204.681 36.4618 206.207 36.3244 207.118 36.3244C210.461 36.3244 210.868 37.6983 210.868 39.8609V43.5908C210.868 44.3846 210.965 44.405 211.566 44.4813C211.856 44.5017 211.932 44.5576 211.932 44.7714V45.5855C211.932 45.7992 211.795 45.9315 211.469 45.9926C211.158 46.0486 210.853 46.0893 210.558 46.0893C209.647 46.0893 209.087 45.8196 208.894 44.9087L208.853 44.8884L208.858 44.8986ZM208.741 41.6928H206.38C205.414 41.6928 204.793 42.0388 204.793 43.316C204.793 44.1658 205.083 44.4355 205.994 44.4355C206.823 44.4355 208.004 43.9521 208.741 43.5247V41.6877V41.6928Z"
    fill="#58595B"
  />
<path
    d="M147.623 59.7064L149.094 57.8134L152.34 53.8138C152.513 53.6205 152.671 53.5238 152.976 53.5238H154.737C155.007 53.5238 155.083 53.7172 154.91 53.9105L150.717 59.0143L155.047 65.9551C155.2 66.2044 155.068 66.3621 154.854 66.3621H153.073C152.742 66.3621 152.61 66.2248 152.457 65.9958L149.287 60.7393L147.588 62.846V65.9958C147.588 66.2095 147.511 66.3621 147.242 66.3621H145.791C145.522 66.3621 145.405 66.2451 145.405 65.9958V53.9105C145.405 53.6612 145.522 53.5238 145.791 53.5238H147.242C147.511 53.5238 147.588 53.6765 147.588 53.9105V59.7114H147.628L147.623 59.7064Z"
    fill="#58595B"
  />
<path
    d="M160.324 66.5092C156.436 66.5092 156.187 63.6698 156.187 61.4614C156.187 59.6448 156.594 56.6884 160.324 56.6884C164.054 56.6884 164.598 59.1817 164.598 61.4614C164.598 63.7411 164.329 66.5092 160.324 66.5092ZM160.344 58.5457C158.701 58.5457 158.334 59.5888 158.334 61.5988C158.334 63.6088 158.701 64.6519 160.324 64.6519C162.085 64.6519 162.431 63.6647 162.431 61.5988C162.431 59.5328 162.1 58.5457 160.344 58.5457Z"
    fill="#58595B"
  />
<path
    d="M179.991 66.3569H178.597C178.327 66.3569 178.23 66.2399 178.23 65.9905V60.5C178.23 59.0701 177.884 58.663 176.918 58.663C176.2 58.663 175.04 59.2228 174.445 59.5332C174.445 59.7265 174.465 60.0726 174.465 60.5204V65.9905C174.465 66.2246 174.389 66.3569 174.098 66.3569H172.689C172.44 66.3569 172.358 66.2399 172.358 65.9905V60.4033C172.358 59.2228 172.048 58.663 171.081 58.663C170.404 58.663 169.32 59.1465 168.588 59.5332V65.9905C168.588 66.2246 168.491 66.3569 168.221 66.3569H166.827C166.578 66.3569 166.481 66.2399 166.481 65.9905V57.2688C166.481 57.0194 166.578 56.8821 166.827 56.8821H168.201C168.491 56.8821 168.588 57.0347 168.588 57.2688V57.8285L168.608 57.8489C169.361 57.3248 170.425 56.7498 171.488 56.709C172.608 56.709 173.539 56.9431 174.134 58.0626C175.101 57.3451 176.297 56.709 177.538 56.709C180.093 56.709 180.342 58.373 180.342 60.3066V65.9905C180.342 66.2246 180.266 66.3569 179.996 66.3569H179.991Z"
    fill="#58595B"
  />
<path
    d="M183.782 55.4933C182.775 55.4933 182.642 54.9335 182.642 54.3738C182.642 53.753 182.856 53.2696 183.782 53.2696C184.708 53.2696 184.922 53.7123 184.922 54.3738C184.922 54.9742 184.749 55.4933 183.782 55.4933ZM184.805 65.9909C184.805 66.2046 184.729 66.3573 184.459 66.3573H183.085C182.815 66.3573 182.698 66.2402 182.698 65.9909V57.2539C182.698 56.9842 182.815 56.8875 183.085 56.8875H184.459C184.729 56.8875 184.805 57.0402 184.805 57.2539V65.9909Z"
    fill="#58595B"
  />
<path
    d="M190.372 66.5092C189.405 66.5092 188.107 66.3718 187.374 66.0818C186.988 65.9291 186.911 65.751 186.967 65.4457L187.105 64.8096C187.166 64.4992 187.298 64.4789 187.609 64.5196C188.458 64.657 189.695 64.7537 190.356 64.7537C191.593 64.7537 192.097 64.4229 192.097 63.6495C192.097 62.759 191.771 62.5656 190.55 62.3926C188.657 62.1229 186.993 61.7158 186.993 59.6092C186.993 57.6959 188.463 56.6884 190.626 56.6884C191.42 56.6884 192.753 56.8054 193.567 57.1158C193.898 57.2532 194.03 57.4058 193.974 57.6959L193.822 58.393C193.761 58.6627 193.649 58.7034 193.298 58.6627C192.468 58.566 191.384 58.449 190.667 58.449C189.43 58.449 189.14 58.795 189.14 59.5328C189.14 60.2707 189.603 60.3826 190.784 60.576C192.621 60.8457 194.285 61.2121 194.285 63.5172C194.285 65.8223 192.371 66.5143 190.377 66.5143L190.372 66.5092Z"
    fill="#58595B"
  />
<path
    d="M198.748 66.571C198.748 69.0847 197.684 70.4942 194.438 70.3772C194.3 70.3772 194.03 70.3009 194.01 69.9905L193.934 69.0796C193.893 68.7692 193.974 68.7133 194.244 68.6522C196.061 68.2858 196.621 68.1128 196.621 66.6015V57.2437C196.621 56.974 196.738 56.8774 197.007 56.8774H198.361C198.651 56.8774 198.748 57.03 198.748 57.2437V66.5608V66.571ZM197.684 55.4933C196.676 55.4933 196.544 54.9335 196.544 54.3738C196.544 53.753 196.778 53.2696 197.684 53.2696C198.59 53.2696 198.824 53.7123 198.824 54.3738C198.824 54.9742 198.651 55.4933 197.684 55.4933Z"
    fill="#58595B"
  />
<path
    d="M205.108 66.5092C201.22 66.5092 200.971 63.6698 200.971 61.4614C200.971 59.6448 201.378 56.6884 205.108 56.6884C208.838 56.6884 209.382 59.1817 209.382 61.4614C209.382 63.7411 209.113 66.5092 205.108 66.5092ZM205.128 58.5457C203.485 58.5457 203.118 59.5888 203.118 61.5988C203.118 63.6088 203.485 64.6519 205.108 64.6519C206.869 64.6519 207.215 63.6647 207.215 61.5988C207.215 59.5328 206.884 58.5457 205.128 58.5457Z"
    fill="#58595B"
  />
<path
    d="M219.086 66.3569H217.697C217.448 66.3569 217.331 66.2399 217.331 65.9905L217.351 60.556C217.351 59.4161 217.081 58.663 215.957 58.663C215.183 58.663 213.83 59.2838 213.306 59.5332V65.9905C213.306 66.2246 213.209 66.3569 212.939 66.3569H211.566C211.296 66.3569 211.199 66.2399 211.199 65.9905V57.2688C211.199 57.0194 211.296 56.8821 211.566 56.8821H212.939C213.209 56.8821 213.306 57.0194 213.306 57.2688V57.8489C213.306 57.8489 213.347 57.8692 213.362 57.8692C214.079 57.3655 215.433 56.709 216.608 56.709C219.219 56.709 219.453 58.429 219.453 60.383V65.9905C219.453 66.2246 219.376 66.3569 219.086 66.3569Z"
    fill="#58595B"
  />
<path d="M231.574 66.3571V27.4961H228.256V66.3571H231.574Z" fill="#003399" />
</svg>
