<svg
  width="290"
  height="72"
  viewBox="0 0 290 72"
  fill="none"
  xmlns="http://www.w3.org/2000/svg"
>
<path
    fill-rule="evenodd"
    clip-rule="evenodd"
    d="M42.5559 66.1956H45.8559V27.4956H42.5559V66.1956Z"
    fill="#004494"
  />
<path
    d="M240.593 27.541H240.537H182.167V66.1905H240.537H240.593V27.541Z"
    fill="#003399"
  />
<path
    d="M211.909 33.3809H213.944L212.303 34.6449L212.942 36.6472L211.311 35.4135L209.68 36.6472L210.319 34.6449L208.668 33.3809H210.697L211.311 31.4292L211.909 33.3809Z"
    fill="#FFED00"
  />
<path
    d="M211.981 59.1573H214.016L212.38 60.3759L213.014 62.3023L211.383 61.1141L209.752 62.3023L210.396 60.3759L208.739 59.1573H210.769L211.383 57.2815L211.981 59.1573Z"
    fill="#FFED00"
  />
<path
    d="M218.428 57.4534H220.468L218.827 58.6669L219.466 60.5933L217.83 59.4051L216.199 60.5933L216.843 58.6669L215.187 57.4534H217.217L217.83 55.5725L218.428 57.4534Z"
    fill="#FFED00"
  />
<path
    d="M218.428 35.1H220.468L218.827 36.3185L219.466 38.2449L217.83 37.0567L216.199 38.2449L216.843 36.3185L215.187 35.1H217.217L217.83 33.2241L218.428 35.1Z"
    fill="#FFED00"
  />
<path
    d="M223.219 39.8377H225.249L223.613 41.0512L224.247 42.9776L222.616 41.7894L220.985 42.9776L221.629 41.0512L219.972 39.8377H222.002L222.616 37.9568L223.219 39.8377Z"
    fill="#FFED00"
  />
<path
    d="M223.219 52.7814H225.249L223.613 53.9999L224.247 55.9263L222.616 54.7381L220.985 55.9263L221.629 53.9999L219.972 52.7814H222.002L222.616 50.9055L223.219 52.7814Z"
    fill="#FFED00"
  />
<path
    d="M225.009 46.2084H227.049L225.408 47.4269L226.047 49.3533L224.411 48.1651L222.779 49.3533L223.424 47.4269L221.767 46.2084H223.797L224.411 44.3325L225.009 46.2084Z"
    fill="#FFED00"
  />
<path
    d="M205.339 35.1202H207.369L205.733 36.3336L206.367 38.26L204.736 37.0718L203.105 38.26L203.749 36.3336L202.097 35.1202H204.122L204.736 33.2393L205.339 35.1202Z"
    fill="#FFED00"
  />
<path
    d="M200.681 39.8528H202.721L201.08 41.0663L201.714 42.9927L200.083 41.8045L198.452 42.9927L199.096 41.0663L197.439 39.8528H199.469L200.083 37.9719L200.681 39.8528Z"
    fill="#FFED00"
  />
<path
    d="M198.953 46.2286H200.988L199.352 47.442L199.986 49.3685L198.355 48.1853L196.724 49.3685L197.368 47.442L195.716 46.2286H197.741L198.355 44.3477L198.953 46.2286Z"
    fill="#FFED00"
  />
<path
    d="M200.681 52.7967H202.721L201.08 54.0153L201.714 55.9417L200.083 54.7535L198.452 55.9417L199.096 54.0153L197.439 52.7967H199.469L200.083 50.9209L200.681 52.7967Z"
    fill="#FFED00"
  />
<path
    d="M205.406 57.4685H207.435L205.799 58.682L206.433 60.6084L204.802 59.4202L203.171 60.6084L203.815 58.682L202.164 57.4685H204.189L204.802 55.5876L205.406 57.4685Z"
    fill="#FFED00"
  />
<path
    d="M249.469 0.00505726C249.469 0.00505726 261.469 18.9101 263.668 22.3736C265.862 25.8371 268.372 28.5826 277.253 30.4433C286.135 32.304 290 33.1837 290 33.1837V33.8562C290 33.8562 284.355 32.668 277.095 31.0652C269.834 29.4624 266.864 28.9214 263.556 24.3657C260.8 20.5736 249.469 3.61517 249.469 3.61517V0V0.00505726Z"
    fill="#6D6E70"
  />
<path
    d="M249.469 21.5949C249.469 21.5949 260.396 32.9157 263.556 36.1668C266.91 39.6151 271.2 40.8893 277.151 41.941C282.832 42.9421 289.995 44.1 289.995 44.1V44.7371C289.995 44.7371 283.266 43.6449 277.151 42.6135C271.153 41.5972 266.956 41.0309 263.52 37.9011C260.442 35.1 249.469 24.9219 249.469 24.9219V21.5898V21.5949Z"
    fill="#6D6E70"
  />
<path
    d="M249.469 26.6967C249.469 26.6967 259.859 36.2377 263.556 39.499C266.956 42.4973 269.712 43.4327 277.187 44.7422C284.662 46.0518 289.995 46.8658 289.995 46.8658V47.5383C289.995 47.5383 283.23 46.4411 277.151 45.4804C271.072 44.5248 267.196 44.1456 263.556 41.2282C259.358 37.8608 249.469 29.8113 249.469 29.8113V26.6917V26.6967Z"
    fill="#6D6E70"
  />
<path
    d="M249.469 32.1321C249.469 32.1321 261.337 41.4456 263.556 43.0737C265.775 44.7018 268.709 46.6029 277.223 47.8214C285.664 49.0298 289.995 49.6265 289.995 49.6265V50.3343C289.995 50.3343 282.341 49.2371 277.223 48.6001C272.105 47.963 268.183 47.69 263.591 44.6664C259.123 41.7237 249.469 35.004 249.469 35.004V32.1321Z"
    fill="#6D6E70"
  />
<path
    d="M249.469 37.3601C249.469 37.3601 261.372 45.1972 263.627 46.441C265.882 47.6798 268.531 49.7022 277.223 50.7994C285.915 51.8966 289.995 52.3921 289.995 52.3921V53.0646C289.995 53.0646 282.806 52.286 277.187 51.6843C271.573 51.0826 267.743 50.2685 263.556 47.9983C259.368 45.7331 249.469 40.0095 249.469 40.0095V37.3601Z"
    fill="#6D6E70"
  />
<path
    d="M249.469 42.5883C249.469 42.5883 259.992 48.2512 263.556 50.0158C267.528 51.9878 270.964 52.9333 277.187 53.6664C283.297 54.3844 289.995 55.0821 289.995 55.0821V55.7192C289.995 55.7192 283.803 55.0619 277.187 54.4451C270.627 53.8282 268.29 53.5451 263.556 51.467C259.322 49.6063 249.469 45.0658 249.469 45.0658V42.5833V42.5883Z"
    fill="#6D6E70"
  />
<path
    d="M249.469 47.8872C249.469 47.8872 257.783 51.4063 263.627 53.7018C269.374 55.9569 273.766 56.149 277.258 56.5383C278.797 56.7102 289.995 57.8479 289.995 57.8479V58.485C289.995 58.485 283.307 57.9541 277.223 57.4232C271.138 56.8923 268.515 56.6647 263.591 55.0518C258.606 53.4136 249.469 50.2636 249.469 50.2636V47.8923V47.8872Z"
    fill="#6D6E70"
  />
<path
    d="M249.469 53.2922C249.469 53.2922 257.865 55.8658 263.591 57.3524C269.318 58.8389 274.574 59.4456 277.223 59.6175C279.871 59.7945 290 60.6085 290 60.6085V61.2102C290 61.2102 284.238 60.8209 277.187 60.3254C271.486 59.9259 266.91 59.5012 263.556 58.7681C259.844 57.9591 249.469 55.522 249.469 55.522V53.2922Z"
    fill="#6D6E70"
  />
<path
    d="M249.469 58.6062C249.469 58.6062 256.336 59.7792 263.591 60.9674C269.032 61.8573 276.399 62.4186 277.187 62.454C277.974 62.4893 289.995 63.3034 289.995 63.3034V63.9405C289.995 63.9405 282.3 63.5461 277.187 63.268C271.859 62.9747 266.562 62.6562 263.556 62.3478C256.817 61.6551 249.469 60.7349 249.469 60.7349V58.6062Z"
    fill="#6D6E70"
  />
<path
    d="M249.469 64.1074C249.469 64.1074 260.299 64.5119 263.591 64.5827C266.884 64.6535 289.995 65.5737 289.995 65.5737V66.1956H249.469V64.1074Z"
    fill="#6D6E70"
  />
<path
    d="M277.182 33.3656C267.38 31.2774 265.161 27.733 263.515 25.5386C261.868 23.3392 249.464 5.41504 249.464 5.41504V8.71167C249.955 9.34369 260.57 23.8347 263.55 27.6269C266.91 31.8993 272.171 32.8701 277.182 33.9319C282.187 34.9937 289.995 36.4752 289.995 36.4752V35.9089C289.995 35.9089 279.718 33.9016 277.182 33.3656Z"
    fill="#6D6E70"
  />
<path
    d="M277.182 36.2022C269.134 34.6449 265.877 32.127 263.515 29.0831C261.152 26.0343 249.464 10.446 249.464 10.446V14.2786C249.955 14.85 260.646 27.7534 263.515 30.9994C266.859 34.7865 271.527 35.7826 277.182 36.809C282.837 37.8354 289.99 39.1803 289.99 39.1803V38.614C289.99 38.614 281.824 37.1022 277.182 36.2073V36.2022Z"
    fill="#6D6E70"
  />
<path
    d="M277.182 39.1399C268.812 37.5321 267.094 36.2124 263.55 32.3748C261.321 29.963 249.945 16.6804 249.464 16.1191V19.6585C249.464 19.6585 260.094 30.8731 263.515 34.1849C267.999 38.5332 272.207 38.8619 277.182 39.7467C282.157 40.6315 289.99 42.0473 289.99 42.0473V41.4456C289.99 41.4456 280.531 39.7871 277.182 39.145V39.1399Z"
    fill="#6D6E70"
  />
<path
    d="M154.383 27.7788C154.383 27.7788 182.095 24.8563 189.857 23.7793C202.128 22.0805 212.17 20.2703 221.46 6.18887C221.46 6.18887 221.471 5.38999 221.46 5.03101C215.77 13.5911 207.921 19.431 197.112 21.1248C186.554 22.7833 154.378 25.2052 154.378 25.2052V27.7788H154.383Z"
    fill="#6D6E70"
  />
<path
    d="M154.378 24.2849C154.378 24.2849 180.06 21.1046 188.522 19.9315C201.908 18.081 211.321 16.4175 221.455 1.05681C221.455 1.05681 221.46 0.394453 221.455 0.00512695C215.248 9.3439 207.584 15.3759 195.793 17.2265C184.274 19.0366 154.378 21.6759 154.378 21.6759V24.29V24.2849Z"
    fill="#6D6E70"
  />
<path d="M180.597 64.1326H154.393V66.1854H180.597V64.1326Z" fill="#6D6E70" />
<path
    d="M221.455 22.5708C221.455 22.5708 221.471 21.3624 221.465 21.1045C220.233 22.9601 218.612 24.6438 216.741 26.1253H218.577C219.609 25.0736 220.576 23.8955 221.45 22.5708H221.455Z"
    fill="#6D6E70"
  />
<path
    d="M221.455 17.11C221.455 17.11 221.465 16.0381 221.46 15.7449C218.49 20.2145 214.067 23.7842 208.954 26.1505L211.971 26.1404C215.458 24.1331 218.699 21.2814 221.45 17.11H221.455Z"
    fill="#6D6E70"
  />
<path
    d="M221.455 11.6494C221.455 11.6494 221.465 10.714 221.455 10.3904C216.286 18.1718 208.248 23.496 198.421 25.0381C196.095 25.4022 192.306 25.8067 187.904 26.2162L199.904 26.1758C207.824 24.4314 215.238 21.0589 221.445 11.6494H221.455Z"
    fill="#6D6E70"
  />
<path
    d="M180.602 60.6743C167.232 60.7451 154.393 60.8007 154.393 60.8007V62.9395C154.393 62.9395 167.84 62.8434 180.602 62.7372V60.6743Z"
    fill="#6D6E70"
  />
<path
    d="M180.602 57.0034C167.324 57.15 154.388 57.2613 154.388 57.2613V59.4456C154.388 59.4456 167.973 59.2686 180.602 59.0714V57.0034Z"
    fill="#6D6E70"
  />
<path
    d="M180.597 53.3225C167.416 53.55 154.388 53.722 154.388 53.722V55.9517C154.388 55.9517 168.116 55.6837 180.597 55.3905V53.3225Z"
    fill="#6D6E70"
  />
<path
    d="M180.602 49.6213C167.518 49.9398 154.388 50.1774 154.388 50.1774V52.4477C154.388 52.4477 168.275 52.0735 180.602 51.6842V49.6162V49.6213Z"
    fill="#6D6E70"
  />
<path
    d="M180.607 45.9102C167.62 46.3197 154.388 46.6433 154.388 46.6433V48.959C154.388 48.959 168.444 48.4736 180.607 47.9781V45.9152V45.9102Z"
    fill="#6D6E70"
  />
<path
    d="M180.602 42.1838C167.718 42.6995 154.388 43.104 154.388 43.104V45.4602C154.388 45.4602 168.618 44.8433 180.602 44.2315V42.1787V42.1838Z"
    fill="#6D6E70"
  />
<path
    d="M180.607 38.4321C167.82 39.0591 154.383 39.5597 154.383 39.5597V41.9613C154.383 41.9613 168.802 41.1979 180.607 40.4647V38.4321Z"
    fill="#6D6E70"
  />
<path
    d="M180.607 34.6602C167.917 35.4085 154.383 36.0203 154.383 36.0203V38.4624C154.383 38.4624 168.996 37.5321 180.607 36.6725V34.6602Z"
    fill="#6D6E70"
  />
<path
    d="M180.607 30.8679C168.004 31.7477 154.383 32.4859 154.383 32.4859V34.9735C154.383 34.9735 169.19 33.8511 180.607 32.8601V30.873V30.8679Z"
    fill="#6D6E70"
  />
<path
    d="M180.607 27.0405C168.081 28.0669 154.378 28.9416 154.378 28.9416V31.4697C154.378 31.4697 169.384 30.1248 180.607 28.9922V27.0405Z"
    fill="#6D6E70"
  />
<path
    d="M145.494 33.4334V41.8375H143.248V33.41C143.248 31.9762 142.945 30.9632 142.338 30.371C141.739 29.7788 140.698 29.4827 139.217 29.4827H133.56V27.4956H139.254C140.743 27.4956 141.945 27.6982 142.86 28.1034C143.774 28.5008 144.442 29.1359 144.863 30.0086C145.284 30.8736 145.494 32.0152 145.494 33.4334ZM136.036 32.5217V41.8375H133.803V32.5217H136.036Z"
    fill="#626366"
  />
<path
    d="M129.711 33.0477V41.8375H122.9V39.8504H127.477V33.6555C127.477 32.3931 127.412 31.5009 127.283 30.9788C127.153 30.4411 126.927 30.0593 126.603 29.8333C126.287 29.5995 125.83 29.4827 125.231 29.4827H123.592V27.4956H125.158C126.453 27.4956 127.4 27.667 127.999 28.0099C128.598 28.3606 129.031 28.9333 129.298 29.7281C129.573 30.5152 129.711 31.6217 129.711 33.0477Z"
    fill="#626366"
  />
<path
    d="M120.958 39.9907V41.8375H109.497V39.8504H118.177L108.598 27.4956H111.391L116.016 33.5503C116.639 33.2931 117.093 32.9152 117.376 32.4165C117.659 31.91 117.849 31.1385 117.947 30.1022L118.226 27.4956H120.533L120.29 30.0554C120.185 31.1308 120.019 31.9567 119.792 32.5334C119.565 33.1022 119.246 33.5737 118.833 33.9477C118.42 34.3217 117.837 34.6529 117.085 34.9412L120.958 39.9907Z"
    fill="#626366"
  />
<path d="M105.854 27.4956V35.0347H103.62V27.4956H105.854Z" fill="#626366" />
<path
    d="M101.132 39.8504V41.8375H88.1288V39.8504H97.2829V33.41C97.2829 31.9762 96.9794 30.9632 96.3724 30.371C95.7734 29.7788 94.7334 29.4827 93.2522 29.4827H88.6994V27.4956H93.2765C95.5104 27.4956 97.1089 27.9554 98.0721 28.8749C99.0353 29.7944 99.5168 31.3139 99.5168 33.4334V39.8504H101.132Z"
    fill="#626366"
  />
<path d="M85.0207 27.4956V41.8375H82.7868V27.4956H85.0207Z" fill="#626366" />
<path
    d="M68.4971 39.6167C68.2219 40.4037 67.7848 40.9725 67.1859 41.3232C66.5869 41.666 65.644 41.8375 64.3571 41.8375H64.2235V39.8504H64.4299C64.9884 39.8504 65.4335 39.7491 65.7654 39.5465C66.0891 39.3439 66.3198 39.0361 66.4574 38.6231C66.595 38.2023 66.6638 37.5673 66.6638 36.7179V29.4827H64.3571V27.4956H72.4064C74.6403 27.4956 76.2429 27.9554 77.2142 28.8749C78.1854 29.7866 78.6711 31.3061 78.6711 33.4334V41.8375H76.4372V33.41C76.4372 31.9762 76.1336 30.9632 75.5266 30.371C74.9277 29.7788 73.8795 29.4827 72.3821 29.4827H68.8977V36.2854C68.8977 37.7192 68.7642 38.8296 68.4971 39.6167Z"
    fill="#626366"
  />
<path
    d="M145.494 57.7752V66.1793H143.27V57.7518C143.27 56.318 142.97 55.305 142.369 54.7128C141.776 54.1206 140.746 53.8245 139.28 53.8245H133.679V51.8374H139.316C140.79 51.8374 141.98 52.04 142.886 52.4452C143.791 52.8426 144.452 53.4777 144.869 54.3504C145.286 55.2154 145.494 56.357 145.494 57.7752ZM136.131 56.8635V66.1793H133.919V56.8635H136.131Z"
    fill="#626366"
  />
<path
    d="M120.481 61.4688L119.52 66.1793H117.188L118.197 61.5155C118.486 60.1752 118.75 59.2324 118.991 58.6869C119.231 58.1336 119.532 57.6856 119.892 57.3427C120.261 56.9999 120.754 56.7076 121.371 56.4661L117.897 51.8374H120.625L126.046 59.096C126.647 58.5505 127.124 57.8921 127.477 57.1206C127.837 56.3414 128.074 55.4492 128.186 54.444L128.462 51.8374H130.746L130.469 54.3972C130.381 55.2544 130.221 56.0063 129.989 56.6531C129.828 57.0973 129.636 57.5219 129.412 57.9271C129.187 58.3246 128.899 58.7376 128.546 59.1661C128.202 59.5947 127.753 60.0739 127.2 60.6038L131.539 66.1793H128.727L122.38 57.7986C121.739 58.1025 121.282 58.6285 121.01 59.3765C120.93 59.5713 120.846 59.8441 120.758 60.1947C120.677 60.5454 120.585 60.9701 120.481 61.4688Z"
    fill="#626366"
  />
<path d="M114.303 51.8374V59.3765H112.091V51.8374H114.303Z" fill="#626366" />
<path
    d="M108.029 57.7752V66.1793H105.805V57.7518C105.805 56.3336 105.509 55.3245 104.916 54.7245C104.331 54.1245 103.301 53.8245 101.826 53.8245H97.3191V51.8374H101.851C103.325 51.8374 104.515 52.04 105.42 52.4452C106.326 52.8426 106.987 53.4777 107.404 54.3504C107.82 55.2154 108.029 56.357 108.029 57.7752Z"
    fill="#626366"
  />
<path d="M94.7589 51.8374V66.1793H92.5473V51.8374H94.7589Z" fill="#626366" />
<path
    d="M86.8499 58.2077C86.8499 56.7349 86.5174 55.6362 85.8523 54.9115C85.1872 54.1868 84.1415 53.8245 82.7151 53.8245H79.3977V57.8687H82.3185V59.8558H77.15V51.8374H82.7392C84.8867 51.8374 86.4813 52.3595 87.523 53.4037C88.5728 54.4401 89.0976 56.057 89.0976 58.2544V59.2129C89.0976 63.8571 86.8379 66.1793 82.3185 66.1793H77.2822V64.1922H82.3786C83.9011 64.1922 85.0269 63.7831 85.7561 62.9649C86.4853 62.1389 86.8499 60.896 86.8499 59.2363V58.2077Z"
    fill="#626366"
  />
<path d="M72.8349 51.8374V59.3765H70.6233V51.8374H72.8349Z" fill="#626366" />
<path
    d="M56.9809 63.9584C56.7085 64.7455 56.2758 65.3143 55.6828 65.665C55.0898 66.0078 54.1563 66.1793 52.8822 66.1793H52.75V64.1922H52.9543C53.5072 64.1922 53.948 64.0909 54.2765 63.8883C54.597 63.6857 54.8254 63.3779 54.9616 62.9649C55.0979 62.5441 55.166 61.9091 55.166 61.0597V53.8245H52.8822V51.8374H60.8513C63.0629 51.8374 64.6495 52.2972 65.6111 53.2167C66.5727 54.1284 67.0535 55.6479 67.0535 57.7752V66.1793H64.8418V57.7518C64.8418 56.318 64.5413 55.305 63.9404 54.7128C63.3474 54.1206 62.3097 53.8245 60.8272 53.8245H57.3776V60.6272C57.3776 62.061 57.2454 63.1714 56.9809 63.9584Z"
    fill="#626366"
  />
</svg>
