<svg
  width="291"
  height="72"
  viewBox="0 0 291 72"
  fill="none"
  xmlns="http://www.w3.org/2000/svg"
>
<path
    d="M86.9932 27.5411H86.9369H28.567V66.1905H86.9369H86.9932V27.5411Z"
    fill="#003399"
  />
<path
    d="M58.3093 33.3809H60.3442L58.703 34.645L59.3421 36.6472L57.711 35.4135L56.08 36.6472L56.7191 34.645L55.0676 33.3809H57.0975L57.711 31.4293L58.3093 33.3809Z"
    fill="#FFED00"
  />
<path
    d="M58.3808 59.1574H60.4158L58.7796 60.3759L59.4137 62.3023L57.7826 61.1141L56.1516 62.3023L56.7958 60.3759L55.1392 59.1574H57.1691L57.7826 57.2815L58.3808 59.1574Z"
    fill="#FFED00"
  />
<path
    d="M64.8283 57.4534H66.8684L65.2271 58.6669L65.8663 60.5933L64.2301 59.4051L62.5991 60.5933L63.2433 58.6669L61.5867 57.4534H63.6165L64.2301 55.5725L64.8283 57.4534Z"
    fill="#FFED00"
  />
<path
    d="M64.8283 35.1001H66.8684L65.2271 36.3186L65.8663 38.245L64.2301 37.0568L62.5991 38.245L63.2433 36.3186L61.5867 35.1001H63.6165L64.2301 33.2242L64.8283 35.1001Z"
    fill="#FFED00"
  />
<path
    d="M69.6192 39.8377H71.6491L70.0129 41.0512L70.6469 42.9776L69.0159 41.7894L67.3848 42.9776L68.0291 41.0512L66.3724 39.8377H68.4023L69.0159 37.9568L69.6192 39.8377Z"
    fill="#FFED00"
  />
<path
    d="M69.6192 52.7815H71.6491L70.0129 54.0001L70.6469 55.9265L69.0159 54.7383L67.3848 55.9265L68.0291 54.0001L66.3724 52.7815H68.4023L69.0159 50.9057L69.6192 52.7815Z"
    fill="#FFED00"
  />
<path
    d="M71.4087 46.2085H73.4488L71.8076 47.427L72.4467 49.3534L70.8105 48.1652L69.1795 49.3534L69.8237 47.427L68.1671 46.2085H70.197L70.8105 44.3326L71.4087 46.2085Z"
    fill="#FFED00"
  />
<path
    d="M51.7391 35.1203H53.7689L52.1328 36.3337L52.7668 38.2601L51.1357 37.0719L49.5047 38.2601L50.1489 36.3337L48.4974 35.1203H50.5222L51.1357 33.2393L51.7391 35.1203Z"
    fill="#FFED00"
  />
<path
    d="M47.0811 39.8528H49.1212L47.4799 41.0663L48.1139 42.9927L46.4829 41.8045L44.8518 42.9927L45.4961 41.0663L43.8395 39.8528H45.8693L46.4829 37.9719L47.0811 39.8528Z"
    fill="#FFED00"
  />
<path
    d="M45.3529 46.2287H47.3879L45.7517 47.4422L46.3857 49.3686L44.7547 48.1855L43.1237 49.3686L43.7679 47.4422L42.1164 46.2287H44.1411L44.7547 44.3478L45.3529 46.2287Z"
    fill="#FFED00"
  />
<path
    d="M47.0811 52.7967H49.1212L47.4799 54.0152L48.1139 55.9417L46.4829 54.7535L44.8518 55.9417L45.4961 54.0152L43.8395 52.7967H45.8693L46.4829 50.9209L47.0811 52.7967Z"
    fill="#FFED00"
  />
<path
    d="M51.8055 57.4686H53.8354L52.1992 58.6821L52.8332 60.6085L51.2022 59.4203L49.5711 60.6085L50.2154 58.6821L48.5639 57.4686H50.5886L51.2022 55.5877L51.8055 57.4686Z"
    fill="#FFED00"
  />
<path
    d="M95.8693 0.00505726C95.8693 0.00505726 107.869 18.9101 110.068 22.3736C112.262 25.8371 114.772 28.5826 123.653 30.4433C132.535 32.304 136.4 33.1837 136.4 33.1837V33.8562C136.4 33.8562 130.755 32.668 123.495 31.0652C116.234 29.4624 113.264 28.9214 109.956 24.3657C107.2 20.5736 95.8693 3.61517 95.8693 3.61517V0V0.00505726Z"
    fill="#6D6E70"
  />
<path
    d="M95.8693 21.5949C95.8693 21.5949 106.796 32.9157 109.956 36.1668C113.31 39.6152 117.6 40.8893 123.551 41.941C129.232 42.9421 136.395 44.1 136.395 44.1V44.7371C136.395 44.7371 129.666 43.6449 123.551 42.6135C117.553 41.5972 113.356 41.0309 109.92 37.9011C106.842 35.1 95.8693 24.9219 95.8693 24.9219V21.5899V21.5949Z"
    fill="#6D6E70"
  />
<path
    d="M95.8693 26.6967C95.8693 26.6967 106.259 36.2377 109.956 39.4989C113.356 42.4972 116.112 43.4326 123.587 44.7422C131.062 46.0517 136.395 46.8658 136.395 46.8658V47.5383C136.395 47.5383 129.63 46.4411 123.551 45.4804C117.472 44.5248 113.596 44.1456 109.956 41.2281C105.758 37.8607 95.8693 29.8113 95.8693 29.8113V26.6916V26.6967Z"
    fill="#6D6E70"
  />
<path
    d="M95.8693 32.1321C95.8693 32.1321 107.737 41.4456 109.956 43.0736C112.175 44.7017 115.109 46.6029 123.623 47.8214C132.064 49.0298 136.395 49.6265 136.395 49.6265V50.3343C136.395 50.3343 128.741 49.2371 123.623 48.6001C118.505 47.963 114.583 47.6899 109.991 44.6663C105.523 41.7236 95.8693 35.004 95.8693 35.004V32.1321Z"
    fill="#6D6E70"
  />
<path
    d="M95.8693 37.3601C95.8693 37.3601 107.772 45.1972 110.027 46.441C112.282 47.6798 114.931 49.7023 123.623 50.7995C132.315 51.8967 136.395 52.3922 136.395 52.3922V53.0647C136.395 53.0647 129.206 52.286 123.587 51.6843C117.973 51.0826 114.143 50.2686 109.956 47.9984C105.768 45.7332 95.8693 40.0096 95.8693 40.0096V37.3601Z"
    fill="#6D6E70"
  />
<path
    d="M95.8693 42.5882C95.8693 42.5882 106.392 48.2511 109.956 50.0158C113.928 51.9877 117.364 52.9332 123.587 53.6663C129.697 54.3843 136.395 55.082 136.395 55.082V55.7191C136.395 55.7191 130.203 55.0618 123.587 54.445C117.027 53.8281 114.69 53.545 109.956 51.4669C105.722 49.6062 95.8693 45.0657 95.8693 45.0657V42.5832V42.5882Z"
    fill="#6D6E70"
  />
<path
    d="M95.8693 47.8871C95.8693 47.8871 104.183 51.4062 110.027 53.7017C115.774 55.9568 120.166 56.1489 123.658 56.5382C125.197 56.7101 136.395 57.8478 136.395 57.8478V58.4848C136.395 58.4848 129.707 57.9539 123.623 57.423C117.538 56.8921 114.915 56.6646 109.991 55.0517C105.006 53.4135 95.8693 50.2635 95.8693 50.2635V47.8921V47.8871Z"
    fill="#6D6E70"
  />
<path
    d="M95.8693 53.2922C95.8693 53.2922 104.265 55.8658 109.991 57.3523C115.718 58.8388 120.974 59.4456 123.623 59.6175C126.271 59.7944 136.4 60.6085 136.4 60.6085V61.2102C136.4 61.2102 130.638 60.8208 123.587 60.3253C117.886 59.9259 113.31 59.5012 109.956 58.768C106.244 57.959 95.8693 55.522 95.8693 55.522V53.2922Z"
    fill="#6D6E70"
  />
<path
    d="M95.8693 58.6062C95.8693 58.6062 102.736 59.7793 109.991 60.9675C115.432 61.8574 122.799 62.4186 123.587 62.454C124.374 62.4894 136.395 63.3034 136.395 63.3034V63.9405C136.395 63.9405 128.7 63.5461 123.587 63.268C118.259 62.9748 112.962 62.6562 109.956 62.3478C103.217 61.6551 95.8693 60.7349 95.8693 60.7349V58.6062Z"
    fill="#6D6E70"
  />
<path
    d="M95.8693 64.1074C95.8693 64.1074 106.699 64.5119 109.991 64.5826C113.284 64.6534 136.395 65.5737 136.395 65.5737V66.1956H95.8693V64.1074Z"
    fill="#6D6E70"
  />
<path
    d="M123.582 33.3657C113.78 31.2775 111.561 27.7331 109.915 25.5388C108.268 23.3393 95.8642 5.41515 95.8642 5.41515V8.71178C96.355 9.34381 106.97 23.8348 109.95 27.627C113.31 31.8994 118.571 32.8702 123.582 33.932C128.587 34.9938 136.395 36.4753 136.395 36.4753V35.909C136.395 35.909 126.118 33.9017 123.582 33.3657Z"
    fill="#6D6E70"
  />
<path
    d="M123.582 36.2023C115.534 34.645 112.277 32.127 109.915 29.0832C107.552 26.0343 95.8642 10.4461 95.8642 10.4461V14.2787C96.355 14.85 107.046 27.7534 109.915 30.9995C113.259 34.7866 117.927 35.7826 123.582 36.809C129.237 37.8354 136.39 39.1804 136.39 39.1804V38.6141C136.39 38.6141 128.224 37.1023 123.582 36.2073V36.2023Z"
    fill="#6D6E70"
  />
<path
    d="M123.582 39.1399C115.212 37.532 113.494 36.2124 109.95 32.3747C107.721 29.9629 96.3448 16.6803 95.8642 16.1191V19.6584C95.8642 19.6584 106.494 30.8731 109.915 34.1849C114.399 38.5332 118.607 38.8618 123.582 39.7467C128.557 40.6315 136.39 42.0472 136.39 42.0472V41.4455C136.39 41.4455 126.931 39.7871 123.582 39.145V39.1399Z"
    fill="#6D6E70"
  />
<path
    d="M0.782944 27.7787C0.782944 27.7787 28.4954 24.8562 36.2569 23.7792C48.5281 22.0803 58.57 20.2702 67.8603 6.18876C67.8603 6.18876 67.8705 5.38988 67.8603 5.03089C62.1696 13.591 54.3211 19.4309 43.5122 21.1247C32.9539 22.7832 0.777832 25.2051 0.777832 25.2051V27.7787H0.782944Z"
    fill="#6D6E70"
  />
<path
    d="M0.777832 24.2849C0.777832 24.2849 26.4604 21.1045 34.9224 19.9315C48.3082 18.0809 57.7212 16.4174 67.8552 1.05675C67.8552 1.05675 67.8603 0.394388 67.8552 0.0050621C61.648 9.34383 53.9836 15.3759 42.1931 17.2264C30.6735 19.0365 0.777832 21.6759 0.777832 21.6759V24.2899V24.2849Z"
    fill="#6D6E70"
  />
<path d="M26.9973 64.1326H0.793167V66.1854H26.9973V64.1326Z" fill="#6D6E70" />
<path
    d="M67.8552 22.5708C67.8552 22.5708 67.8705 21.3624 67.8654 21.1045C66.6332 22.9601 65.0124 24.6438 63.141 26.1253H64.9766C66.0094 25.0736 66.9758 23.8955 67.8501 22.5708H67.8552Z"
    fill="#6D6E70"
  />
<path
    d="M67.8552 17.1101C67.8552 17.1101 67.8654 16.0382 67.8603 15.745C64.8897 20.2146 60.4669 23.7843 55.3539 26.1506L58.3706 26.1405C61.8577 24.1332 65.0993 21.2815 67.8501 17.1101H67.8552Z"
    fill="#6D6E70"
  />
<path
    d="M67.8552 11.6495C67.8552 11.6495 67.8654 10.7141 67.8552 10.3905C62.686 18.1719 54.6483 23.4961 44.8212 25.0382C42.4948 25.4023 38.706 25.8068 34.3037 26.2163L46.3039 26.1759C54.224 24.4315 61.6378 21.059 67.845 11.6495H67.8552Z"
    fill="#6D6E70"
  />
<path
    d="M27.0024 60.6742C13.6319 60.745 0.793167 60.8006 0.793167 60.8006V62.9394C0.793167 62.9394 14.2403 62.8433 27.0024 62.7371V60.6742Z"
    fill="#6D6E70"
  />
<path
    d="M27.0024 57.0034C13.7239 57.15 0.788055 57.2613 0.788055 57.2613V59.4455C0.788055 59.4455 14.3733 59.2686 27.0024 59.0714V57.0034Z"
    fill="#6D6E70"
  />
<path
    d="M26.9973 53.3225C13.816 53.55 0.788055 53.7219 0.788055 53.7219V55.9517C0.788055 55.9517 14.5164 55.6837 26.9973 55.3905V53.3225Z"
    fill="#6D6E70"
  />
<path
    d="M27.0024 49.6214C13.9182 49.9399 0.788055 50.1776 0.788055 50.1776V52.4478C0.788055 52.4478 14.6749 52.0736 27.0024 51.6843V49.6163V49.6214Z"
    fill="#6D6E70"
  />
<path
    d="M27.0075 45.9102C14.0205 46.3197 0.788055 46.6433 0.788055 46.6433V48.959C0.788055 48.959 14.8437 48.4737 27.0075 47.9782V45.9152V45.9102Z"
    fill="#6D6E70"
  />
<path
    d="M27.0024 42.1838C14.1176 42.6995 0.788055 43.104 0.788055 43.104V45.4602C0.788055 45.4602 15.0175 44.8433 27.0024 44.2315V42.1787V42.1838Z"
    fill="#6D6E70"
  />
<path
    d="M27.0075 38.4321C14.2199 39.059 0.782944 39.5596 0.782944 39.5596V41.9613C0.782944 41.9613 15.2016 41.1978 27.0075 40.4646V38.4321Z"
    fill="#6D6E70"
  />
<path
    d="M27.0075 34.6602C14.317 35.4085 0.782944 36.0203 0.782944 36.0203V38.4624C0.782944 38.4624 15.3959 37.5321 27.0075 36.6725V34.6602Z"
    fill="#6D6E70"
  />
<path
    d="M27.0075 30.868C14.404 31.7478 0.782944 32.486 0.782944 32.486V34.9736C0.782944 34.9736 15.5902 33.8512 27.0075 32.8602V30.8731V30.868Z"
    fill="#6D6E70"
  />
<path
    d="M27.0075 27.0405C14.4807 28.0669 0.777832 28.9416 0.777832 28.9416V31.4697C0.777832 31.4697 15.7845 30.1247 27.0075 28.9921V27.0405Z"
    fill="#6D6E70"
  />
<path d="M254.527 66.1781V27.7683H251.252V66.1781H254.527Z" fill="#003399" />
<path
    d="M145.4 33.7339C145.4 33.4875 145.516 33.3517 145.782 33.3517H152.814C153.046 33.3517 153.177 33.4875 153.177 33.7138V34.9009C153.177 35.1323 153.081 35.243 152.794 35.243H147.578V38.5327H152.201C152.447 38.5327 152.583 38.6484 152.583 38.8747V40.0618C152.583 40.2932 152.487 40.4039 152.201 40.4039H147.578V44.1664H152.93C153.161 44.1664 153.272 44.2821 153.272 44.5285V45.6955C153.272 45.942 153.177 46.0376 152.91 46.0376H145.782C145.516 46.0376 145.4 45.9219 145.4 45.6955V33.7339Z"
    fill="#58595B"
  />
<path
    d="M155.586 46.0374C155.204 46.0374 155.108 45.8865 155.108 45.635V37.0335C155.108 36.7669 155.204 36.6714 155.531 36.6714H159.6C161.818 36.6714 162.794 37.6673 162.794 39.2116C162.794 39.7095 162.603 40.5898 161.687 41.0828C162.794 41.5606 163.066 42.5918 163.066 43.2608C163.066 44.961 161.592 46.0324 159.836 46.0324H155.596L155.586 46.0374ZM159.333 38.3766H157.175V40.4389H159.469C160.214 40.4389 160.671 39.9409 160.671 39.3675C160.671 38.8695 160.365 38.3715 159.333 38.3715V38.3766ZM159.62 41.9328H157.175V44.3221H159.414C160.616 44.3221 160.943 43.633 160.943 43.1551C160.943 42.5264 160.601 41.9328 159.625 41.9328H159.62Z"
    fill="#58595B"
  />
<path
    d="M169.308 46.2131C168.679 46.2131 167.799 46.0974 166.919 45.7906L166.899 45.8107V49.1758C166.899 49.3871 166.843 49.5581 166.536 49.5581H165.178C164.872 49.5581 164.816 49.4223 164.816 49.1758V37.0583C164.816 36.8118 164.912 36.676 165.178 36.676H166.536C166.803 36.676 166.879 36.8269 166.879 37.0583V37.6318L166.934 37.672C167.623 37.1941 168.845 36.5251 169.952 36.5251C172.457 36.5251 173.106 38.4164 173.106 41.3037C173.106 44.4173 172.321 46.2131 169.303 46.2131H169.308ZM169.464 38.4315C168.679 38.4315 167.477 38.9848 166.904 39.2917V44.0703C167.764 44.3167 168.453 44.3972 169.102 44.3972C170.48 44.3972 170.958 43.688 170.958 41.2836C170.958 38.8792 170.48 38.4366 169.469 38.4366L169.464 38.4315Z"
    fill="#58595B"
  />
<path
    d="M178.714 46.1929C174.871 46.1929 174.625 43.3861 174.625 41.2031C174.625 39.4073 175.027 36.4848 178.714 36.4848C182.401 36.4848 182.94 38.9496 182.94 41.2031C182.94 43.4566 182.673 46.1929 178.714 46.1929ZM178.734 38.3158C177.11 38.3158 176.748 39.347 176.748 41.3339C176.748 43.3207 177.11 44.3519 178.714 44.3519C180.455 44.3519 180.797 43.3761 180.797 41.3339C180.797 39.2916 180.47 38.3158 178.734 38.3158Z"
    fill="#58595B"
  />
<path
    d="M192.955 45.6744C192.955 45.8857 192.859 46.0366 192.572 46.0366H191.214C190.948 46.0366 190.852 45.9209 190.852 45.6744L190.872 38.4311H186.858V45.6744C186.858 45.8857 186.783 46.0366 186.496 46.0366H185.138C184.871 46.0366 184.776 45.9209 184.776 45.6744V37.0377C184.776 36.7711 184.891 36.6756 185.138 36.6756H192.592C192.879 36.6756 192.955 36.7711 192.955 37.0377V45.6744Z"
    fill="#58595B"
  />
<path
    d="M196.948 41.9321C197.004 43.8637 197.693 44.3968 199.262 44.3968C199.951 44.3968 201.023 44.261 201.747 44.1856C202.089 44.1453 202.205 44.1453 202.265 44.5125L202.381 45.1413C202.436 45.428 202.401 45.5789 202.054 45.7349C201.31 46.0216 199.916 46.2127 198.976 46.2127C195.324 46.2127 194.791 43.8787 194.791 41.3989C194.791 39.5428 195.133 36.4895 198.86 36.4895C202.28 36.4895 202.894 38.7078 202.949 40.7702C202.969 41.4593 202.778 41.9371 202.014 41.9371H196.948V41.9321ZM196.969 40.4985H200.751C200.751 39.3315 200.444 38.2048 198.86 38.2048C197.446 38.2048 197.064 39.0649 196.969 40.4985Z"
    fill="#58595B"
  />
<path
    d="M204.654 37.0941C204.654 36.8074 204.749 36.6716 205.056 36.6716H206.299C206.641 36.6716 206.721 36.8426 206.721 37.0941V42.6725H206.761L209.266 39.2721L210.967 37.0187C211.118 36.8275 211.233 36.6766 211.616 36.6766H212.611C212.918 36.6766 213.034 36.8677 213.034 37.079V45.6402C213.034 45.8867 212.918 46.0426 212.596 46.0426H211.394C211.107 46.0426 210.957 45.9269 210.957 45.6402V39.7902H210.936C210.056 41.0125 209.161 42.1996 208.26 43.422C207.707 44.1865 207.134 44.931 206.56 45.6956C206.409 45.9068 206.253 46.0376 205.891 46.0376H205.071C204.765 46.0376 204.669 45.9219 204.669 45.6352V37.0941H204.654ZM205.685 33.8095C205.589 33.6183 205.439 33.3517 205.645 33.1807L206.163 32.7582C206.394 32.6073 206.49 32.7028 206.661 32.8739C207.425 33.7893 207.944 34.2119 208.879 34.2119C209.739 34.2119 210.197 33.7893 211.002 32.8739C211.173 32.6827 211.289 32.6425 211.48 32.7783L211.998 33.1052C212.244 33.2561 212.073 33.5429 211.978 33.7742C211.289 35.1122 210.122 35.8014 208.864 35.8014C207.607 35.8014 206.304 35.1726 205.69 33.8145L205.685 33.8095Z"
    fill="#58595B"
  />
<path
    d="M222.159 45.1618C222.234 45.4485 222.179 45.5994 221.832 45.7553C221.107 46.0621 219.865 46.1929 218.924 46.1929C215.348 46.1929 214.835 43.8992 214.835 41.2986C214.835 38.9295 215.388 36.4848 218.924 36.4848C219.805 36.4848 221.047 36.6005 221.867 36.9426C222.113 37.0583 222.194 37.2293 222.154 37.4758L222.018 38.2403C221.942 38.5271 221.786 38.5271 221.424 38.5069C220.64 38.4315 219.744 38.3359 219.09 38.3359C217.541 38.3359 217.008 39.1407 217.008 41.2584C217.008 43.6477 217.541 44.3519 219.07 44.3519C219.644 44.3519 220.75 44.2765 221.535 44.1809C221.842 44.1406 221.972 44.1406 222.033 44.4676L222.149 45.1567L222.159 45.1618Z"
    fill="#58595B"
  />
<path
    d="M225.659 45.7146C225.659 45.9259 225.604 46.0416 225.332 46.0416H223.899C223.667 46.0416 223.572 45.946 223.572 45.7146V37.0176C223.572 36.7862 223.667 36.6756 223.899 36.6756H225.332C225.599 36.6756 225.659 36.8114 225.659 37.0176V40.3827H226.635C227.36 40.3827 227.878 40.2318 228.315 39.0447L229.08 36.9824C229.175 36.751 229.311 36.6957 229.613 36.6957H230.78C231.142 36.6957 231.162 36.8667 231.087 37.1182L230.418 39.1051C230.015 40.2922 229.598 40.9763 228.909 41.1876V41.2077C229.789 41.5145 230.151 42.0477 230.493 43.0638L231.333 45.6241C231.409 45.8555 231.409 46.0466 231.026 46.0466H229.744C229.457 46.0466 229.306 45.9913 229.226 45.7599L228.481 43.5618C228.079 42.3747 227.354 42.1483 226.645 42.1483H225.649V45.7247L225.659 45.7146Z"
    fill="#58595B"
  />
<path
    d="M238.808 44.9501C237.852 45.6744 236.57 46.1925 235.292 46.1925C233.265 46.1925 232.671 45.0859 232.671 43.4813C232.651 41.2429 233.858 40.2872 236.263 40.2872H238.707V39.7892C238.707 38.6424 238.29 38.24 236.72 38.24C236.092 38.24 234.884 38.3355 234.12 38.411C233.738 38.4663 233.642 38.4512 233.587 38.1796L233.416 37.4703C233.375 37.2239 233.436 37.0679 233.853 36.8969C234.673 36.6102 236.187 36.4744 237.083 36.4744C240.387 36.4744 240.79 37.8325 240.79 39.9703V43.6574C240.79 44.4421 240.885 44.4622 241.479 44.5376C241.766 44.5577 241.841 44.6131 241.841 44.8243V45.6292C241.841 45.8404 241.705 45.9712 241.383 46.0316C241.076 46.0869 240.77 46.1271 240.483 46.1271C239.583 46.1271 239.029 45.8605 238.838 44.9602L238.798 44.94L238.808 44.9501ZM238.692 41.7761H236.358C235.403 41.7761 234.789 42.1182 234.789 43.3807C234.789 44.2207 235.076 44.4873 235.976 44.4873C236.796 44.4873 237.963 44.0095 238.692 43.5869V41.7711V41.7761Z"
    fill="#58595B"
  />
<path
    d="M147.513 65.8552C147.513 66.0665 147.457 66.1822 147.186 66.1822H145.747C145.516 66.1822 145.42 66.0866 145.42 65.8552V57.123C145.42 56.8916 145.516 56.7759 145.747 56.7759H147.186C147.452 56.7759 147.513 56.9117 147.513 57.123V60.4982H148.493C149.223 60.4982 149.741 60.3423 150.184 59.1552L150.953 57.0828C151.049 56.8514 151.185 56.796 151.491 56.796H152.663C153.026 56.796 153.046 56.9671 152.97 57.2186L152.301 59.2155C151.899 60.4077 151.476 61.0968 150.787 61.308V61.3282C151.667 61.635 152.035 62.1732 152.382 63.1893L153.227 65.7597C153.302 65.9911 153.302 66.1822 152.92 66.1822H151.632C151.345 66.1822 151.19 66.1269 151.114 65.8955L150.365 63.6873C149.962 62.4951 149.233 62.2688 148.524 62.2688H147.528V65.8552H147.513Z"
    fill="#58595B"
  />
<path
    d="M158.7 66.3339C154.842 66.3339 154.595 63.512 154.595 61.3239C154.595 59.5181 154.997 56.5856 158.7 56.5856C162.402 56.5856 162.94 59.0604 162.94 61.3239C162.94 63.5875 162.673 66.3339 158.7 66.3339ZM158.72 58.4316C157.09 58.4316 156.723 59.4678 156.723 61.4648C156.723 63.4617 157.085 64.4979 158.7 64.4979C160.445 64.4979 160.792 63.517 160.792 61.4648C160.792 59.4125 160.465 58.4316 158.72 58.4316Z"
    fill="#58595B"
  />
<path
    d="M172.578 60.7706L171.733 62.3853C171.37 63.0744 171.079 63.6881 170.641 64.4577C170.525 64.6689 170.334 64.7846 170.083 64.7846H169.429C169.082 64.7846 168.951 64.6891 168.855 64.4778C168.508 63.8239 168.166 63.2907 167.859 62.677C167.532 62.0835 167.19 61.3541 166.863 60.7555H166.823V65.8007C166.823 66.0522 166.708 66.183 166.381 66.183H165.193C164.927 66.183 164.791 66.0673 164.791 65.8007V57.1842C164.791 56.9176 164.887 56.8019 165.173 56.8019H166.285C166.667 56.8019 166.803 56.8974 166.919 57.1288C167.321 57.8783 167.724 58.6077 168.111 59.3572C168.684 60.4135 169.187 61.4698 169.781 62.5211L171.275 59.6791L172.638 57.1439C172.774 56.9125 172.925 56.7968 173.292 56.7968H174.288C174.554 56.7968 174.67 56.9327 174.67 57.164V65.8007C174.67 66.0673 174.534 66.183 174.268 66.183H173.061C172.774 66.183 172.638 66.0472 172.638 65.8007V60.7706H172.583H172.578Z"
    fill="#58595B"
  />
<path
    d="M176.682 57.1985C176.682 56.9117 176.778 56.7759 177.084 56.7759H178.332C178.679 56.7759 178.754 56.9469 178.754 57.1985V62.802H178.795L181.31 59.3865L183.02 57.123C183.171 56.9319 183.287 56.7759 183.674 56.7759H184.67C184.977 56.7759 185.092 56.9671 185.092 57.1783V65.7748C185.092 66.0263 184.977 66.1772 184.65 66.1772H183.443C183.156 66.1772 183 66.0615 183 65.7748V59.9046H182.98C182.099 61.132 181.194 62.3241 180.294 63.5515C179.735 64.3211 179.162 65.0655 178.583 65.8351C178.433 66.0464 178.277 66.1822 177.914 66.1822H177.09C176.783 66.1822 176.687 66.0665 176.687 65.7798V57.2035L176.682 57.1985Z"
    fill="#58595B"
  />
<path
    d="M194.262 65.2977C194.338 65.5844 194.282 65.7403 193.935 65.8912C193.206 66.1981 191.959 66.3339 191.018 66.3339C187.431 66.3339 186.913 64.0301 186.913 61.4195C186.913 59.0403 187.472 56.5856 191.018 56.5856C191.898 56.5856 193.146 56.7013 193.971 57.0433C194.222 57.159 194.297 57.33 194.257 57.5815L194.121 58.3511C194.046 58.6379 193.89 58.6379 193.528 58.6177C192.743 58.5423 191.838 58.4467 191.189 58.4467C189.635 58.4467 189.096 59.2515 189.096 61.3843C189.096 63.7836 189.635 64.4929 191.169 64.4929C191.742 64.4929 192.859 64.4174 193.644 64.3219C193.95 64.2816 194.086 64.2816 194.142 64.6086L194.257 65.2977H194.262Z"
    fill="#58595B"
  />
<path
    d="M195.686 57.1985C195.686 56.9117 195.781 56.7759 196.088 56.7759H197.336C197.683 56.7759 197.758 56.9469 197.758 57.1985V62.802H197.798L200.314 59.3865L202.024 57.123C202.175 56.9319 202.29 56.7759 202.678 56.7759H203.674C203.98 56.7759 204.096 56.9671 204.096 57.1783V65.7748C204.096 66.0263 203.98 66.1772 203.653 66.1772H202.446C202.16 66.1772 202.004 66.0615 202.004 65.7748V59.9046H201.984C201.103 61.132 200.198 62.3241 199.297 63.5515C198.739 64.3211 198.166 65.0655 197.587 65.8351C197.436 66.0464 197.28 66.1822 196.918 66.1822H196.093C195.786 66.1822 195.691 66.0665 195.691 65.7798V57.2035L195.686 57.1985Z"
    fill="#58595B"
  />
<path
    d="M213.452 56.7607C213.799 56.7607 213.914 56.8763 213.914 57.1429V65.7796C213.914 66.0462 213.779 66.1619 213.452 66.1619H212.244C211.917 66.1619 211.822 66.0261 211.822 65.7796V62.5151H209.885C209.231 62.5704 208.794 62.842 208.447 63.9185L207.833 65.7796C207.737 66.0864 207.622 66.182 207.26 66.182H205.992C205.645 66.182 205.61 66.0311 205.685 65.7595L206.354 63.7072C206.621 62.9376 206.892 62.3441 207.446 62.0372C206.334 61.6348 206.062 60.5986 206.062 59.7133C206.062 57.7767 207.597 56.7607 209.458 56.7607H213.447H213.452ZM209.614 60.8853H211.822V58.486H209.709C208.789 58.486 208.135 58.9085 208.135 59.7133C208.135 60.4427 208.537 60.8853 209.614 60.8853Z"
    fill="#58595B"
  />
</svg>
