<svg
  width="291"
  height="73"
  viewBox="0 0 291 73"
  fill="none"
  xmlns="http://www.w3.org/2000/svg"
>
<path
    d="M86.9932 27.5825H86.9369H28.567V66.232H86.9369H86.9932V27.5825Z"
    fill="#003399"
  />
<path
    d="M58.3093 33.4224H60.3442L58.703 34.6864L59.3421 36.6887L57.711 35.455L56.08 36.6887L56.7191 34.6864L55.0676 33.4224H57.0975L57.711 31.4707L58.3093 33.4224Z"
    fill="#FFED00"
  />
<path
    d="M58.3808 59.1988H60.4158L58.7796 60.4174L59.4137 62.3438L57.7826 61.1556L56.1516 62.3438L56.7958 60.4174L55.1392 59.1988H57.1691L57.7826 57.323L58.3808 59.1988Z"
    fill="#FFED00"
  />
<path
    d="M64.8283 57.4949H66.8684L65.2271 58.7084L65.8663 60.6348L64.2301 59.4466L62.5991 60.6348L63.2433 58.7084L61.5867 57.4949H63.6165L64.2301 55.614L64.8283 57.4949Z"
    fill="#FFED00"
  />
<path
    d="M64.8283 35.1415H66.8684L65.2271 36.36L65.8663 38.2864L64.2301 37.0982L62.5991 38.2864L63.2433 36.36L61.5867 35.1415H63.6165L64.2301 33.2656L64.8283 35.1415Z"
    fill="#FFED00"
  />
<path
    d="M69.6192 39.8792H71.6491L70.0129 41.0927L70.6469 43.0191L69.0159 41.8309L67.3848 43.0191L68.0291 41.0927L66.3724 39.8792H68.4023L69.0159 37.9983L69.6192 39.8792Z"
    fill="#FFED00"
  />
<path
    d="M69.6192 52.823H71.6491L70.0129 54.0415L70.6469 55.9679L69.0159 54.7797L67.3848 55.9679L68.0291 54.0415L66.3724 52.823H68.4023L69.0159 50.9471L69.6192 52.823Z"
    fill="#FFED00"
  />
<path
    d="M71.4087 46.25H73.4488L71.8076 47.4685L72.4467 49.3949L70.8105 48.2067L69.1795 49.3949L69.8237 47.4685L68.1671 46.25H70.197L70.8105 44.3741L71.4087 46.25Z"
    fill="#FFED00"
  />
<path
    d="M51.7391 35.1617H53.7689L52.1328 36.3751L52.7668 38.3016L51.1357 37.1133L49.5047 38.3016L50.1489 36.3751L48.4974 35.1617H50.5222L51.1357 33.2808L51.7391 35.1617Z"
    fill="#FFED00"
  />
<path
    d="M47.0811 39.8943H49.1212L47.4799 41.1078L48.1139 43.0342L46.4829 41.846L44.8518 43.0342L45.4961 41.1078L43.8395 39.8943H45.8693L46.4829 38.0134L47.0811 39.8943Z"
    fill="#FFED00"
  />
<path
    d="M45.3529 46.2702H47.3879L45.7517 47.4837L46.3857 49.4101L44.7547 48.2269L43.1237 49.4101L43.7679 47.4837L42.1164 46.2702H44.1411L44.7547 44.3893L45.3529 46.2702Z"
    fill="#FFED00"
  />
<path
    d="M47.0811 52.8381H49.1212L47.4799 54.0567L48.1139 55.9831L46.4829 54.7949L44.8518 55.9831L45.4961 54.0567L43.8395 52.8381H45.8693L46.4829 50.9623L47.0811 52.8381Z"
    fill="#FFED00"
  />
<path
    d="M51.8055 57.5101H53.8354L52.1992 58.7235L52.8332 60.6499L51.2022 59.4617L49.5711 60.6499L50.2154 58.7235L48.5639 57.5101H50.5886L51.2022 55.6292L51.8055 57.5101Z"
    fill="#FFED00"
  />
<path
    d="M95.8693 0.0465612C95.8693 0.0465612 107.869 18.9516 110.068 22.4151C112.262 25.8786 114.772 28.6241 123.653 30.4848C132.535 32.3455 136.4 33.2252 136.4 33.2252V33.8977C136.4 33.8977 130.755 32.7095 123.495 31.1067C116.234 29.5039 113.264 28.9629 109.956 24.4072C107.2 20.6151 95.8693 3.65668 95.8693 3.65668V0.0415039V0.0465612Z"
    fill="#6D6E70"
  />
<path
    d="M95.8693 21.6364C95.8693 21.6364 106.796 32.9572 109.956 36.2083C113.31 39.6566 117.6 40.9308 123.551 41.9825C129.232 42.9836 136.395 44.1415 136.395 44.1415V44.7786C136.395 44.7786 129.666 43.6864 123.551 42.655C117.553 41.6387 113.356 41.0724 109.92 37.9426C106.842 35.1415 95.8693 24.9634 95.8693 24.9634V21.6313V21.6364Z"
    fill="#6D6E70"
  />
<path
    d="M95.8693 26.7382C95.8693 26.7382 106.259 36.2792 109.956 39.5405C113.356 42.5388 116.112 43.4742 123.587 44.7837C131.062 46.0933 136.395 46.9073 136.395 46.9073V47.5798C136.395 47.5798 129.63 46.4826 123.551 45.5219C117.472 44.5663 113.596 44.1871 109.956 41.2697C105.758 37.9023 95.8693 29.8528 95.8693 29.8528V26.7332V26.7382Z"
    fill="#6D6E70"
  />
<path
    d="M95.8693 32.1736C95.8693 32.1736 107.737 41.4871 109.956 43.1152C112.175 44.7433 115.109 46.6444 123.623 47.8629C132.064 49.0713 136.395 49.668 136.395 49.668V50.3758C136.395 50.3758 128.741 49.2787 123.623 48.6416C118.505 48.0045 114.583 47.7315 109.991 44.7079C105.523 41.7652 95.8693 35.0455 95.8693 35.0455V32.1736Z"
    fill="#6D6E70"
  />
<path
    d="M95.8693 37.4016C95.8693 37.4016 107.772 45.2387 110.027 46.4825C112.282 47.7213 114.931 49.7438 123.623 50.8409C132.315 51.9381 136.395 52.4336 136.395 52.4336V53.1061C136.395 53.1061 129.206 52.3275 123.587 51.7258C117.973 51.1241 114.143 50.31 109.956 48.0398C105.768 45.7747 95.8693 40.0511 95.8693 40.0511V37.4016Z"
    fill="#6D6E70"
  />
<path
    d="M95.8693 42.6297C95.8693 42.6297 106.392 48.2926 109.956 50.0572C113.928 52.0291 117.364 52.9746 123.587 53.7078C129.697 54.4258 136.395 55.1235 136.395 55.1235V55.7606C136.395 55.7606 130.203 55.1033 123.587 54.4864C117.027 53.8696 114.69 53.5864 109.956 51.5083C105.722 49.6477 95.8693 45.1072 95.8693 45.1072V42.6246V42.6297Z"
    fill="#6D6E70"
  />
<path
    d="M95.8693 47.9286C95.8693 47.9286 104.183 51.4477 110.027 53.7432C115.774 55.9983 120.166 56.1904 123.658 56.5797C125.197 56.7516 136.395 57.8893 136.395 57.8893V58.5264C136.395 58.5264 129.707 57.9955 123.623 57.4646C117.538 56.9337 114.915 56.7061 109.991 55.0932C105.006 53.455 95.8693 50.305 95.8693 50.305V47.9336V47.9286Z"
    fill="#6D6E70"
  />
<path
    d="M95.8693 53.3337C95.8693 53.3337 104.265 55.9073 109.991 57.3939C115.718 58.8804 120.974 59.4871 123.623 59.659C126.271 59.836 136.4 60.65 136.4 60.65V61.2517C136.4 61.2517 130.638 60.8624 123.587 60.3669C117.886 59.9675 113.31 59.5427 109.956 58.8096C106.244 58.0006 95.8693 55.5635 95.8693 55.5635V53.3337Z"
    fill="#6D6E70"
  />
<path
    d="M95.8693 58.6477C95.8693 58.6477 102.736 59.8207 109.991 61.0089C115.432 61.8988 122.799 62.4601 123.587 62.4955C124.374 62.5309 136.395 63.3449 136.395 63.3449V63.982C136.395 63.982 128.7 63.5876 123.587 63.3095C118.259 63.0162 112.962 62.6977 109.956 62.3893C103.217 61.6966 95.8693 60.7764 95.8693 60.7764V58.6477Z"
    fill="#6D6E70"
  />
<path
    d="M95.8693 64.1489C95.8693 64.1489 106.699 64.5534 109.991 64.6242C113.284 64.695 136.395 65.6152 136.395 65.6152V66.2371H95.8693V64.1489Z"
    fill="#6D6E70"
  />
<path
    d="M123.582 33.4072C113.78 31.319 111.561 27.7747 109.915 25.5803C108.268 23.3808 95.8642 5.45667 95.8642 5.45667V8.7533C96.355 9.38532 106.97 23.8763 109.95 27.6685C113.31 31.941 118.571 32.9117 123.582 33.9735C128.587 35.0353 136.395 36.5168 136.395 36.5168V35.9505C136.395 35.9505 126.118 33.9432 123.582 33.4072Z"
    fill="#6D6E70"
  />
<path
    d="M123.582 36.2437C115.534 34.6864 112.277 32.1685 109.915 29.1246C107.552 26.0758 95.8642 10.4875 95.8642 10.4875V14.3201C96.355 14.8915 107.046 27.7949 109.915 31.0409C113.259 34.828 117.927 35.8241 123.582 36.8505C129.237 37.8769 136.39 39.2218 136.39 39.2218V38.6555C136.39 38.6555 128.224 37.1437 123.582 36.2488V36.2437Z"
    fill="#6D6E70"
  />
<path
    d="M123.582 39.1815C115.212 37.5736 113.494 36.2539 109.95 32.4163C107.721 30.0045 96.3448 16.7219 95.8642 16.1606V19.7C95.8642 19.7 106.494 30.9146 109.915 34.2264C114.399 38.5747 118.607 38.9034 123.582 39.7882C128.557 40.673 136.39 42.0888 136.39 42.0888V41.4871C136.39 41.4871 126.931 39.8286 123.582 39.1865V39.1815Z"
    fill="#6D6E70"
  />
<path
    d="M0.782944 27.8202C0.782944 27.8202 28.4954 24.8977 36.2569 23.8207C48.5281 22.1218 58.57 20.3117 67.8603 6.23025C67.8603 6.23025 67.8705 5.43138 67.8603 5.07239C62.1696 13.6325 54.3211 19.4724 43.5122 21.1662C32.9539 22.8246 0.777832 25.2466 0.777832 25.2466V27.8202H0.782944Z"
    fill="#6D6E70"
  />
<path
    d="M0.777832 24.3263C0.777832 24.3263 26.4604 21.146 34.9224 19.9729C48.3082 18.1224 57.7212 16.4589 67.8552 1.09819C67.8552 1.09819 67.8603 0.435835 67.8552 0.0465088C61.648 9.38528 53.9836 15.4173 42.1931 17.2679C30.6735 19.078 0.777832 21.7173 0.777832 21.7173V24.3314V24.3263Z"
    fill="#6D6E70"
  />
<path d="M26.9973 64.1741H0.793167V66.2269H26.9973V64.1741Z" fill="#6D6E70" />
<path
    d="M67.8552 22.6123C67.8552 22.6123 67.8705 21.4039 67.8654 21.146C66.6332 23.0016 65.0124 24.6853 63.141 26.1668H64.9766C66.0094 25.1151 66.9758 23.937 67.8501 22.6123H67.8552Z"
    fill="#6D6E70"
  />
<path
    d="M67.8552 17.1517C67.8552 17.1517 67.8654 16.0798 67.8603 15.7865C64.8897 20.2562 60.4669 23.8258 55.3539 26.1921L58.3706 26.182C61.8577 24.1747 65.0993 21.323 67.8501 17.1517H67.8552Z"
    fill="#6D6E70"
  />
<path
    d="M67.8552 11.691C67.8552 11.691 67.8654 10.7556 67.8552 10.432C62.686 18.2135 54.6483 23.5376 44.8212 25.0798C42.4948 25.4438 38.706 25.8483 34.3037 26.2579L46.3039 26.2174C54.224 24.473 61.6378 21.1006 67.845 11.691H67.8552Z"
    fill="#6D6E70"
  />
<path
    d="M27.0024 60.7157C13.6319 60.7865 0.793167 60.8421 0.793167 60.8421V62.9809C0.793167 62.9809 14.2403 62.8848 27.0024 62.7786V60.7157Z"
    fill="#6D6E70"
  />
<path
    d="M27.0024 57.0449C13.7239 57.1916 0.788055 57.3028 0.788055 57.3028V59.4871C0.788055 59.4871 14.3733 59.3101 27.0024 59.1129V57.0449Z"
    fill="#6D6E70"
  />
<path
    d="M26.9973 53.364C13.816 53.5915 0.788055 53.7635 0.788055 53.7635V55.9932C0.788055 55.9932 14.5164 55.7252 26.9973 55.432V53.364Z"
    fill="#6D6E70"
  />
<path
    d="M27.0024 49.6629C13.9182 49.9814 0.788055 50.2191 0.788055 50.2191V52.4893C0.788055 52.4893 14.6749 52.1151 27.0024 51.7258V49.6578V49.6629Z"
    fill="#6D6E70"
  />
<path
    d="M27.0075 45.9517C14.0205 46.3612 0.788055 46.6848 0.788055 46.6848V49.0005C0.788055 49.0005 14.8437 48.5152 27.0075 48.0196V45.9567V45.9517Z"
    fill="#6D6E70"
  />
<path
    d="M27.0024 42.2253C14.1176 42.741 0.788055 43.1455 0.788055 43.1455V45.5017C0.788055 45.5017 15.0175 44.8848 27.0024 44.273V42.2202V42.2253Z"
    fill="#6D6E70"
  />
<path
    d="M27.0075 38.4735C14.2199 39.1005 0.782944 39.601 0.782944 39.601V42.0027C0.782944 42.0027 15.2016 41.2392 27.0075 40.5061V38.4735Z"
    fill="#6D6E70"
  />
<path
    d="M27.0075 34.7017C14.317 35.45 0.782944 36.0618 0.782944 36.0618V38.5039C0.782944 38.5039 15.3959 37.5736 27.0075 36.714V34.7017Z"
    fill="#6D6E70"
  />
<path
    d="M27.0075 30.9095C14.404 31.7893 0.782944 32.5275 0.782944 32.5275V35.0152C0.782944 35.0152 15.5902 33.8927 27.0075 32.9017V30.9146V30.9095Z"
    fill="#6D6E70"
  />
<path
    d="M27.0075 27.0819C14.4807 28.1083 0.777832 28.983 0.777832 28.983V31.5111C0.777832 31.5111 15.7845 30.1662 27.0075 29.0336V27.0819Z"
    fill="#6D6E70"
  />
<path d="M267.017 67.2475V28.0431H263.675V67.2475H267.017Z" fill="#003399" />
<path
    d="M150.677 33.6293C151.632 33.6293 153.214 33.7679 154.246 34.194C154.559 34.3327 154.677 34.4867 154.615 34.7999L154.441 35.6008C154.384 35.837 154.287 35.9345 153.932 35.8934C152.977 35.7754 151.807 35.6419 150.79 35.6419C148.136 35.6419 147.746 37.7879 147.746 40.3242C147.746 42.8605 148.233 44.8885 150.79 44.8885C151.92 44.8885 152.88 44.7704 153.932 44.6369C154.302 44.5958 154.379 44.6934 154.461 44.9501L154.615 45.6894C154.692 46.0026 154.595 46.1771 154.281 46.3158C153.327 46.7265 151.627 46.9011 150.672 46.9011C146.324 46.9011 145.405 43.682 145.405 40.3653C145.405 37.0486 146.226 33.6344 150.672 33.6344L150.677 33.6293Z"
    fill="#58595B"
  />
<path
    d="M160.201 46.8701C156.279 46.8701 156.027 44.0052 156.027 41.777C156.027 39.9441 156.438 36.9612 160.201 36.9612C163.964 36.9612 164.514 39.4769 164.514 41.777C164.514 44.0771 164.242 46.8701 160.201 46.8701ZM160.222 38.8351C158.563 38.8351 158.194 39.8876 158.194 41.9156C158.194 43.9436 158.563 44.9961 160.201 44.9961C161.977 44.9961 162.327 44.0001 162.327 41.9156C162.327 39.8312 161.993 38.8351 160.222 38.8351Z"
    fill="#58595B"
  />
<path
    d="M180.039 46.716H178.633C178.36 46.716 178.263 46.598 178.263 46.3464V40.8066C178.263 39.3639 177.914 38.9532 176.938 38.9532C176.214 38.9532 175.044 39.518 174.443 39.8311C174.443 40.0262 174.464 40.3754 174.464 40.8272V46.3464C174.464 46.5826 174.387 46.716 174.094 46.716H172.672C172.42 46.716 172.338 46.598 172.338 46.3464V40.7091C172.338 39.518 172.025 38.9532 171.049 38.9532C170.367 38.9532 169.273 39.4409 168.534 39.8311V46.3464C168.534 46.5826 168.436 46.716 168.164 46.716H166.757C166.506 46.716 166.408 46.598 166.408 46.3464V37.5464C166.408 37.2949 166.506 37.1562 166.757 37.1562H168.144C168.436 37.1562 168.534 37.3103 168.534 37.5464V38.1112L168.554 38.1317C169.314 37.6029 170.387 37.0228 171.46 36.9817C172.59 36.9817 173.529 37.2179 174.13 38.3474C175.105 37.6235 176.317 36.9817 177.565 36.9817C180.142 36.9817 180.394 38.6606 180.394 40.6115V46.3464C180.394 46.5826 180.317 46.716 180.044 46.716H180.039Z"
    fill="#58595B"
  />
<path
    d="M196.114 46.716H194.708C194.436 46.716 194.338 46.598 194.338 46.3464V40.8066C194.338 39.3639 193.989 38.9532 193.013 38.9532C192.29 38.9532 191.119 39.518 190.518 39.8311C190.518 40.0262 190.539 40.3754 190.539 40.8272V46.3464C190.539 46.5826 190.462 46.716 190.169 46.716H188.747C188.495 46.716 188.413 46.598 188.413 46.3464V40.7091C188.413 39.518 188.1 38.9532 187.125 38.9532C186.442 38.9532 185.348 39.4409 184.609 39.8311V46.3464C184.609 46.5826 184.511 46.716 184.239 46.716H182.832C182.581 46.716 182.483 46.598 182.483 46.3464V37.5464C182.483 37.2949 182.581 37.1562 182.832 37.1562H184.219C184.511 37.1562 184.609 37.3103 184.609 37.5464V38.1112L184.629 38.1317C185.389 37.6029 186.462 37.0228 187.535 36.9817C188.665 36.9817 189.604 37.2179 190.205 38.3474C191.181 37.6235 192.387 36.9817 193.64 36.9817C196.217 36.9817 196.469 38.6606 196.469 40.6115V46.3464C196.469 46.5826 196.392 46.716 196.12 46.716H196.114Z"
    fill="#58595B"
  />
<path
    d="M199.939 35.7546C198.923 35.7546 198.789 35.1899 198.789 34.6251C198.789 33.9987 199.005 33.511 199.939 33.511C200.874 33.511 201.089 33.9577 201.089 34.6251C201.089 35.2309 200.915 35.7546 199.939 35.7546ZM200.971 46.3464C200.971 46.562 200.894 46.716 200.622 46.716H199.236C198.964 46.716 198.846 46.5979 198.846 46.3464V37.531C198.846 37.2589 198.964 37.1614 199.236 37.1614H200.622C200.894 37.1614 200.971 37.3154 200.971 37.531V46.3464Z"
    fill="#58595B"
  />
<path
    d="M206.593 46.8701C205.618 46.8701 204.309 46.7315 203.569 46.4388C203.179 46.2848 203.102 46.1051 203.159 45.7971L203.297 45.1553C203.354 44.8421 203.492 44.8216 203.806 44.8626C204.663 45.0013 205.911 45.0988 206.578 45.0988C207.826 45.0988 208.334 44.7651 208.334 43.9847C208.334 43.0862 208 42.8911 206.773 42.7166C204.863 42.4445 203.184 42.0337 203.184 39.9082C203.184 37.9777 204.668 36.9612 206.85 36.9612C207.651 36.9612 208.996 37.0793 209.818 37.3924C210.151 37.5311 210.285 37.6851 210.228 37.9777L210.074 38.6811C210.018 38.9532 209.9 38.9943 209.546 38.9532C208.709 38.8557 207.615 38.7376 206.891 38.7376C205.644 38.7376 205.351 39.0867 205.351 39.8312C205.351 40.5756 205.818 40.6886 207.009 40.8837C208.863 41.1558 210.542 41.5254 210.542 43.8512C210.542 46.177 208.611 46.8752 206.604 46.8752L206.593 46.8701Z"
    fill="#58595B"
  />
<path
    d="M215.547 46.8701C214.572 46.8701 213.263 46.7315 212.523 46.4388C212.133 46.2848 212.056 46.1051 212.113 45.7971L212.251 45.1553C212.308 44.8421 212.446 44.8216 212.759 44.8626C213.617 45.0013 214.864 45.0988 215.532 45.0988C216.779 45.0988 217.288 44.7651 217.288 43.9847C217.288 43.0862 216.954 42.8911 215.727 42.7166C213.817 42.4445 212.138 42.0337 212.138 39.9082C212.138 37.9777 213.622 36.9612 215.804 36.9612C216.605 36.9612 217.95 37.0793 218.772 37.3924C219.105 37.5311 219.239 37.6851 219.182 37.9777L219.028 38.6811C218.972 38.9532 218.854 38.9943 218.499 38.9532C217.663 38.8557 216.569 38.7376 215.845 38.7376C214.597 38.7376 214.305 39.0867 214.305 39.8312C214.305 40.5756 214.772 40.6886 215.963 40.8837C217.817 41.1558 219.495 41.5254 219.495 43.8512C219.495 46.177 217.565 46.8752 215.558 46.8752L215.547 46.8701Z"
    fill="#58595B"
  />
<path
    d="M222.668 35.7546C221.652 35.7546 221.518 35.1899 221.518 34.6251C221.518 33.9987 221.734 33.511 222.668 33.511C223.603 33.511 223.818 33.9577 223.818 34.6251C223.818 35.2309 223.644 35.7546 222.668 35.7546ZM223.7 46.3464C223.7 46.562 223.623 46.716 223.351 46.716H221.965C221.693 46.716 221.575 46.5979 221.575 46.3464V37.531C221.575 37.2589 221.693 37.1614 221.965 37.1614H223.351C223.623 37.1614 223.7 37.3154 223.7 37.531V46.3464Z"
    fill="#58595B"
  />
<path
    d="M230.103 46.8701C226.18 46.8701 225.929 44.0052 225.929 41.777C225.929 39.9441 226.339 36.9612 230.103 36.9612C233.866 36.9612 234.415 39.4769 234.415 41.777C234.415 44.0771 234.143 46.8701 230.103 46.8701ZM230.123 38.8351C228.465 38.8351 228.095 39.8876 228.095 41.9156C228.095 43.9436 228.465 44.9961 230.103 44.9961C231.879 44.9961 232.228 44.0001 232.228 41.9156C232.228 39.8312 231.894 38.8351 230.123 38.8351Z"
    fill="#58595B"
  />
<path
    d="M244.206 46.716H242.799C242.548 46.716 242.43 46.598 242.43 46.3464L242.45 40.8631C242.45 39.7131 242.178 38.9532 241.044 38.9532C240.263 38.9532 238.897 39.5796 238.369 39.8311V46.3464C238.369 46.5826 238.271 46.716 237.999 46.716H236.613C236.341 46.716 236.243 46.598 236.243 46.3464V37.5464C236.243 37.2949 236.341 37.1562 236.613 37.1562H237.999C238.271 37.1562 238.369 37.2949 238.369 37.5464V38.1317C238.369 38.1317 238.41 38.1523 238.425 38.1523C239.149 37.644 240.515 36.9817 241.701 36.9817C244.335 36.9817 244.566 38.717 244.566 40.6885V46.3464C244.566 46.5826 244.489 46.716 244.196 46.716H244.206Z"
    fill="#58595B"
  />
<path
    d="M248.637 42.5213C248.693 44.4929 249.397 45.0371 250.999 45.0371C251.702 45.0371 252.796 44.8985 253.535 44.8214C253.884 44.7804 254.002 44.7804 254.064 45.1552L254.182 45.7969C254.238 46.0896 254.202 46.2436 253.848 46.4028C253.088 46.6954 251.666 46.8905 250.706 46.8905C246.979 46.8905 246.434 44.5134 246.434 41.9771C246.434 40.0826 246.783 36.9662 250.588 36.9662C254.079 36.9662 254.705 39.2304 254.762 41.3354C254.782 42.0387 254.587 42.5265 253.807 42.5265H248.637V42.5213ZM248.657 41.0581H252.518C252.518 39.867 252.205 38.7169 250.588 38.7169C249.145 38.7169 248.755 39.5949 248.657 41.0581Z"
    fill="#58595B"
  />
<path
    d="M147.597 63.058C147.653 65.0295 148.356 65.5737 149.958 65.5737C150.662 65.5737 151.755 65.4351 152.495 65.3581C152.844 65.317 152.962 65.317 153.023 65.6918L153.141 66.3336C153.198 66.6262 153.162 66.7802 152.808 66.9394C152.048 67.232 150.626 67.4271 149.666 67.4271C145.938 67.4271 145.394 65.05 145.394 62.5137C145.394 60.6192 145.743 57.5028 149.548 57.5028C153.039 57.5028 153.665 59.767 153.722 61.872C153.742 62.5754 153.547 63.0631 152.767 63.0631H147.597V63.058ZM147.617 61.5947H151.478C151.478 60.4036 151.165 59.2535 149.548 59.2535C148.105 59.2535 147.715 60.1315 147.617 61.5947Z"
    fill="#58595B"
  />
<path
    d="M163.4 67.2527H162.013C161.721 67.2527 161.644 67.114 161.644 66.883V66.2772L161.603 66.2566C160.843 66.7855 159.513 67.4272 158.327 67.4272C155.693 67.4272 155.442 65.8664 155.442 63.8179V58.0831C155.442 57.8469 155.539 57.6929 155.811 57.6929H157.234C157.485 57.6929 157.583 57.8315 157.583 58.0831V63.5663C157.583 64.7369 157.819 65.4763 159.005 65.4763C159.842 65.4763 161.13 64.8499 161.639 64.5983V58.0831C161.639 57.8469 161.716 57.6929 162.008 57.6929H163.395C163.667 57.6929 163.764 57.8315 163.764 58.0831V66.883C163.764 67.1346 163.667 67.2527 163.395 67.2527H163.4Z"
    fill="#58595B"
  />
<path
    d="M168.354 66.883C168.354 67.1192 168.257 67.2527 167.985 67.2527H166.583C166.311 67.2527 166.213 67.1346 166.213 66.883V58.083C166.213 57.8315 166.311 57.6929 166.583 57.6929H167.969C168.262 57.6929 168.359 57.8469 168.359 58.083V58.9404L168.4 58.9815C168.986 58.4373 170.372 57.7699 171.286 57.5953C171.537 57.5388 171.717 57.5953 171.753 57.929L171.892 59.2382C171.912 59.5103 171.933 59.6284 171.522 59.7054C170.428 59.9211 169.042 60.3113 168.359 60.6039V66.883H168.354Z"
    fill="#58595B"
  />
<path
    d="M176.938 67.4068C173.016 67.4068 172.764 64.542 172.764 62.3138C172.764 60.4809 173.175 57.4979 176.938 57.4979C180.702 57.4979 181.251 60.0137 181.251 62.3138C181.251 64.6139 180.979 67.4068 176.938 67.4068ZM176.959 59.3719C175.301 59.3719 174.931 60.4244 174.931 62.4524C174.931 64.4804 175.301 65.5329 176.938 65.5329C178.715 65.5329 179.064 64.5369 179.064 62.4524C179.064 60.3679 178.73 59.3719 176.959 59.3719Z"
    fill="#58595B"
  />
<path
    d="M187.71 67.4274C187.068 67.4274 186.17 67.3094 185.271 66.9962L185.251 67.0167V70.4515C185.251 70.6671 185.194 70.8417 184.881 70.8417H183.495C183.182 70.8417 183.125 70.703 183.125 70.4515V58.0833C183.125 57.8317 183.223 57.6931 183.495 57.6931H184.881C185.153 57.6931 185.23 57.8471 185.23 58.0833V58.6686L185.287 58.7096C185.99 58.2219 187.238 57.5391 188.367 57.5391C190.924 57.5391 191.586 59.4695 191.586 62.4165C191.586 65.5946 190.785 67.4274 187.705 67.4274H187.71ZM187.864 59.49C187.063 59.49 185.836 60.0548 185.251 60.368V65.2454C186.129 65.497 186.832 65.5792 187.494 65.5792C188.901 65.5792 189.389 64.8552 189.389 62.4011C189.389 59.947 188.901 59.4952 187.869 59.4952L187.864 59.49Z"
    fill="#58595B"
  />
<path
    d="M195.339 63.058C195.396 65.0295 196.099 65.5737 197.701 65.5737C198.404 65.5737 199.498 65.4351 200.237 65.3581C200.586 65.317 200.704 65.317 200.766 65.6918L200.884 66.3336C200.941 66.6262 200.905 66.7802 200.55 66.9394C199.791 67.232 198.368 67.4271 197.408 67.4271C193.681 67.4271 193.137 65.05 193.137 62.5137C193.137 60.6192 193.486 57.5028 197.29 57.5028C200.781 57.5028 201.408 59.767 201.464 61.872C201.485 62.5754 201.29 63.0631 200.509 63.0631H195.339V63.058ZM195.36 61.5947H199.221C199.221 60.4036 198.908 59.2535 197.29 59.2535C195.848 59.2535 195.457 60.1315 195.36 61.5947Z"
    fill="#58595B"
  />
<path
    d="M209.268 66.1435C208.293 66.8828 206.984 67.4116 205.68 67.4116C203.61 67.4116 203.005 66.2821 203.005 64.6443C202.984 62.3596 204.216 61.3841 206.67 61.3841H209.166V60.8758C209.166 59.7053 208.734 59.2945 207.138 59.2945C206.496 59.2945 205.264 59.3921 204.483 59.4691C204.093 59.5256 203.996 59.5102 203.939 59.2329L203.764 58.509C203.723 58.2574 203.785 58.0983 204.211 57.9237C205.048 57.6311 206.593 57.4924 207.507 57.4924C210.88 57.4924 211.291 58.8787 211.291 61.0607V64.824C211.291 65.6249 211.389 65.6455 211.995 65.7225C212.287 65.743 212.364 65.7995 212.364 66.0151V66.8366C212.364 67.0522 212.226 67.1857 211.897 67.2473C211.584 67.3038 211.271 67.3449 210.978 67.3449C210.059 67.3449 209.494 67.0728 209.299 66.1537L209.258 66.1332L209.268 66.1435ZM209.15 62.9038H206.768C205.792 62.9038 205.166 63.253 205.166 64.5416C205.166 65.399 205.459 65.6711 206.378 65.6711C207.215 65.6711 208.406 65.1834 209.15 64.7521V62.8987V62.9038Z"
    fill="#58595B"
  />
</svg>
