<svg
  width="291"
  height="72"
  viewBox="0 0 291 72"
  fill="none"
  xmlns="http://www.w3.org/2000/svg"
>
<path
    d="M86.9932 27.541H86.9369H28.567V66.1905H86.9369H86.9932V27.541Z"
    fill="#003399"
  />
<path
    d="M58.3093 33.3809H60.3442L58.703 34.6449L59.3421 36.6472L57.711 35.4135L56.08 36.6472L56.7191 34.6449L55.0676 33.3809H57.0975L57.711 31.4292L58.3093 33.3809Z"
    fill="#FFED00"
  />
<path
    d="M58.3808 59.1573H60.4158L58.7796 60.3759L59.4137 62.3023L57.7826 61.1141L56.1516 62.3023L56.7958 60.3759L55.1392 59.1573H57.1691L57.7826 57.2815L58.3808 59.1573Z"
    fill="#FFED00"
  />
<path
    d="M64.8283 57.4534H66.8684L65.2271 58.6669L65.8663 60.5933L64.2301 59.4051L62.5991 60.5933L63.2433 58.6669L61.5867 57.4534H63.6165L64.2301 55.5725L64.8283 57.4534Z"
    fill="#FFED00"
  />
<path
    d="M64.8283 35.1H66.8684L65.2271 36.3185L65.8663 38.2449L64.2301 37.0567L62.5991 38.2449L63.2433 36.3185L61.5867 35.1H63.6165L64.2301 33.2241L64.8283 35.1Z"
    fill="#FFED00"
  />
<path
    d="M69.6192 39.8377H71.6491L70.0129 41.0512L70.6469 42.9776L69.0159 41.7894L67.3848 42.9776L68.0291 41.0512L66.3724 39.8377H68.4023L69.0159 37.9568L69.6192 39.8377Z"
    fill="#FFED00"
  />
<path
    d="M69.6192 52.7815H71.6491L70.0129 54L70.6469 55.9264L69.0159 54.7382L67.3848 55.9264L68.0291 54L66.3724 52.7815H68.4023L69.0159 50.9056L69.6192 52.7815Z"
    fill="#FFED00"
  />
<path
    d="M71.4087 46.2085H73.4488L71.8076 47.427L72.4467 49.3534L70.8105 48.1652L69.1795 49.3534L69.8237 47.427L68.1671 46.2085H70.197L70.8105 44.3326L71.4087 46.2085Z"
    fill="#FFED00"
  />
<path
    d="M51.7391 35.1202H53.7689L52.1328 36.3336L52.7668 38.26L51.1357 37.0718L49.5047 38.26L50.1489 36.3336L48.4974 35.1202H50.5222L51.1357 33.2393L51.7391 35.1202Z"
    fill="#FFED00"
  />
<path
    d="M47.0811 39.8528H49.1212L47.4799 41.0663L48.1139 42.9927L46.4829 41.8045L44.8518 42.9927L45.4961 41.0663L43.8395 39.8528H45.8693L46.4829 37.9719L47.0811 39.8528Z"
    fill="#FFED00"
  />
<path
    d="M45.3529 46.2287H47.3879L45.7517 47.4422L46.3857 49.3686L44.7547 48.1854L43.1237 49.3686L43.7679 47.4422L42.1164 46.2287H44.1411L44.7547 44.3478L45.3529 46.2287Z"
    fill="#FFED00"
  />
<path
    d="M47.0811 52.7966H49.1212L47.4799 54.0152L48.1139 55.9416L46.4829 54.7534L44.8518 55.9416L45.4961 54.0152L43.8395 52.7966H45.8693L46.4829 50.9208L47.0811 52.7966Z"
    fill="#FFED00"
  />
<path
    d="M51.8055 57.4685H53.8354L52.1992 58.682L52.8332 60.6084L51.2022 59.4202L49.5711 60.6084L50.2154 58.682L48.5639 57.4685H50.5886L51.2022 55.5876L51.8055 57.4685Z"
    fill="#FFED00"
  />
<path
    d="M95.8693 0.00505726C95.8693 0.00505726 107.869 18.9101 110.068 22.3736C112.262 25.8371 114.772 28.5826 123.653 30.4433C132.535 32.304 136.4 33.1837 136.4 33.1837V33.8562C136.4 33.8562 130.755 32.668 123.495 31.0652C116.234 29.4624 113.264 28.9214 109.956 24.3657C107.2 20.5736 95.8693 3.61517 95.8693 3.61517V0V0.00505726Z"
    fill="#6D6E70"
  />
<path
    d="M95.8693 21.5949C95.8693 21.5949 106.796 32.9157 109.956 36.1668C113.31 39.6151 117.6 40.8893 123.551 41.941C129.232 42.9421 136.395 44.1 136.395 44.1V44.7371C136.395 44.7371 129.666 43.6449 123.551 42.6135C117.553 41.5972 113.356 41.0309 109.92 37.9011C106.842 35.1 95.8693 24.9219 95.8693 24.9219V21.5898V21.5949Z"
    fill="#6D6E70"
  />
<path
    d="M95.8693 26.6967C95.8693 26.6967 106.259 36.2377 109.956 39.499C113.356 42.4973 116.112 43.4327 123.587 44.7422C131.062 46.0518 136.395 46.8658 136.395 46.8658V47.5383C136.395 47.5383 129.63 46.4411 123.551 45.4804C117.472 44.5248 113.596 44.1456 109.956 41.2282C105.758 37.8608 95.8693 29.8113 95.8693 29.8113V26.6917V26.6967Z"
    fill="#6D6E70"
  />
<path
    d="M95.8693 32.1321C95.8693 32.1321 107.737 41.4456 109.956 43.0737C112.175 44.7018 115.109 46.6029 123.623 47.8214C132.064 49.0298 136.395 49.6265 136.395 49.6265V50.3343C136.395 50.3343 128.741 49.2371 123.623 48.6001C118.505 47.963 114.583 47.69 109.991 44.6664C105.523 41.7237 95.8693 35.004 95.8693 35.004V32.1321Z"
    fill="#6D6E70"
  />
<path
    d="M95.8693 37.3601C95.8693 37.3601 107.772 45.1972 110.027 46.441C112.282 47.6798 114.931 49.7022 123.623 50.7994C132.315 51.8966 136.395 52.3921 136.395 52.3921V53.0646C136.395 53.0646 129.206 52.286 123.587 51.6843C117.973 51.0826 114.143 50.2685 109.956 47.9983C105.768 45.7331 95.8693 40.0095 95.8693 40.0095V37.3601Z"
    fill="#6D6E70"
  />
<path
    d="M95.8693 42.5882C95.8693 42.5882 106.392 48.2511 109.956 50.0157C113.928 51.9876 117.364 52.9331 123.587 53.6663C129.697 54.3843 136.395 55.082 136.395 55.082V55.7191C136.395 55.7191 130.203 55.0618 123.587 54.4449C117.027 53.8281 114.69 53.5449 109.956 51.4668C105.722 49.6062 95.8693 45.0657 95.8693 45.0657V42.5831V42.5882Z"
    fill="#6D6E70"
  />
<path
    d="M95.8693 47.8871C95.8693 47.8871 104.183 51.4062 110.027 53.7017C115.774 55.9568 120.166 56.1489 123.658 56.5382C125.197 56.7101 136.395 57.8478 136.395 57.8478V58.4848C136.395 58.4848 129.707 57.9539 123.623 57.423C117.538 56.8921 114.915 56.6646 109.991 55.0517C105.006 53.4135 95.8693 50.2635 95.8693 50.2635V47.8921V47.8871Z"
    fill="#6D6E70"
  />
<path
    d="M95.8693 53.2922C95.8693 53.2922 104.265 55.8658 109.991 57.3524C115.718 58.8389 120.974 59.4456 123.623 59.6175C126.271 59.7945 136.4 60.6085 136.4 60.6085V61.2102C136.4 61.2102 130.638 60.8209 123.587 60.3254C117.886 59.9259 113.31 59.5012 109.956 58.7681C106.244 57.9591 95.8693 55.522 95.8693 55.522V53.2922Z"
    fill="#6D6E70"
  />
<path
    d="M95.8693 58.6062C95.8693 58.6062 102.736 59.7792 109.991 60.9674C115.432 61.8573 122.799 62.4186 123.587 62.454C124.374 62.4893 136.395 63.3034 136.395 63.3034V63.9405C136.395 63.9405 128.7 63.5461 123.587 63.268C118.259 62.9747 112.962 62.6562 109.956 62.3478C103.217 61.6551 95.8693 60.7349 95.8693 60.7349V58.6062Z"
    fill="#6D6E70"
  />
<path
    d="M95.8693 64.1074C95.8693 64.1074 106.699 64.5119 109.991 64.5827C113.284 64.6535 136.395 65.5737 136.395 65.5737V66.1956H95.8693V64.1074Z"
    fill="#6D6E70"
  />
<path
    d="M123.582 33.3657C113.78 31.2775 111.561 27.7332 109.915 25.5388C108.268 23.3393 95.8642 5.41516 95.8642 5.41516V8.71179C96.355 9.34382 106.97 23.8348 109.95 27.627C113.31 31.8994 118.571 32.8702 123.582 33.932C128.587 34.9938 136.395 36.4753 136.395 36.4753V35.909C136.395 35.909 126.118 33.9017 123.582 33.3657Z"
    fill="#6D6E70"
  />
<path
    d="M123.582 36.2022C115.534 34.6449 112.277 32.127 109.915 29.0831C107.552 26.0343 95.8642 10.446 95.8642 10.446V14.2786C96.355 14.85 107.046 27.7534 109.915 30.9994C113.259 34.7865 117.927 35.7826 123.582 36.809C129.237 37.8354 136.39 39.1803 136.39 39.1803V38.614C136.39 38.614 128.224 37.1022 123.582 36.2073V36.2022Z"
    fill="#6D6E70"
  />
<path
    d="M123.582 39.1399C115.212 37.5321 113.494 36.2124 109.95 32.3748C107.721 29.963 96.3448 16.6804 95.8642 16.1191V19.6585C95.8642 19.6585 106.494 30.8731 109.915 34.1849C114.399 38.5332 118.607 38.8619 123.582 39.7467C128.557 40.6315 136.39 42.0473 136.39 42.0473V41.4456C136.39 41.4456 126.931 39.7871 123.582 39.145V39.1399Z"
    fill="#6D6E70"
  />
<path
    d="M0.782944 27.7787C0.782944 27.7787 28.4954 24.8562 36.2569 23.7792C48.5281 22.0803 58.57 20.2702 67.8603 6.18875C67.8603 6.18875 67.8705 5.38987 67.8603 5.03088C62.1696 13.591 54.3211 19.4309 43.5122 21.1247C32.9539 22.7831 0.777832 25.2051 0.777832 25.2051V27.7787H0.782944Z"
    fill="#6D6E70"
  />
<path
    d="M0.777832 24.2848C0.777832 24.2848 26.4604 21.1045 34.9224 19.9314C48.3082 18.0809 57.7212 16.4174 67.8552 1.05669C67.8552 1.05669 67.8603 0.394331 67.8552 0.00500488C61.648 9.34378 53.9836 15.3758 42.1931 17.2264C30.6735 19.0365 0.777832 21.6758 0.777832 21.6758V24.2899V24.2848Z"
    fill="#6D6E70"
  />
<path d="M26.9973 64.1326H0.793167V66.1854H26.9973V64.1326Z" fill="#6D6E70" />
<path
    d="M67.8552 22.5708C67.8552 22.5708 67.8705 21.3624 67.8654 21.1045C66.6332 22.9601 65.0124 24.6438 63.141 26.1253H64.9766C66.0094 25.0736 66.9758 23.8955 67.8501 22.5708H67.8552Z"
    fill="#6D6E70"
  />
<path
    d="M67.8552 17.1102C67.8552 17.1102 67.8654 16.0383 67.8603 15.745C64.8897 20.2147 60.4669 23.7843 55.3539 26.1506L58.3706 26.1405C61.8577 24.1332 65.0993 21.2815 67.8501 17.1102H67.8552Z"
    fill="#6D6E70"
  />
<path
    d="M67.8552 11.6495C67.8552 11.6495 67.8654 10.7141 67.8552 10.3905C62.686 18.172 54.6483 23.4961 44.8212 25.0383C42.4948 25.4023 38.706 25.8068 34.3037 26.2164L46.3039 26.1759C54.224 24.4315 61.6378 21.059 67.845 11.6495H67.8552Z"
    fill="#6D6E70"
  />
<path
    d="M27.0024 60.6742C13.6319 60.745 0.793167 60.8006 0.793167 60.8006V62.9394C0.793167 62.9394 14.2403 62.8433 27.0024 62.7371V60.6742Z"
    fill="#6D6E70"
  />
<path
    d="M27.0024 57.0034C13.7239 57.15 0.788055 57.2613 0.788055 57.2613V59.4456C0.788055 59.4456 14.3733 59.2686 27.0024 59.0714V57.0034Z"
    fill="#6D6E70"
  />
<path
    d="M26.9973 53.3225C13.816 53.55 0.788055 53.722 0.788055 53.722V55.9517C0.788055 55.9517 14.5164 55.6837 26.9973 55.3905V53.3225Z"
    fill="#6D6E70"
  />
<path
    d="M27.0024 49.6214C13.9182 49.9399 0.788055 50.1776 0.788055 50.1776V52.4478C0.788055 52.4478 14.6749 52.0736 27.0024 51.6843V49.6163V49.6214Z"
    fill="#6D6E70"
  />
<path
    d="M27.0075 45.9102C14.0205 46.3197 0.788055 46.6433 0.788055 46.6433V48.959C0.788055 48.959 14.8437 48.4736 27.0075 47.9781V45.9152V45.9102Z"
    fill="#6D6E70"
  />
<path
    d="M27.0024 42.1838C14.1176 42.6995 0.788055 43.104 0.788055 43.104V45.4602C0.788055 45.4602 15.0175 44.8433 27.0024 44.2315V42.1787V42.1838Z"
    fill="#6D6E70"
  />
<path
    d="M27.0075 38.432C14.2199 39.059 0.782944 39.5595 0.782944 39.5595V41.9612C0.782944 41.9612 15.2016 41.1977 27.0075 40.4646V38.432Z"
    fill="#6D6E70"
  />
<path
    d="M27.0075 34.6602C14.317 35.4085 0.782944 36.0203 0.782944 36.0203V38.4624C0.782944 38.4624 15.3959 37.5321 27.0075 36.6725V34.6602Z"
    fill="#6D6E70"
  />
<path
    d="M27.0075 30.868C14.404 31.7478 0.782944 32.486 0.782944 32.486V34.9737C0.782944 34.9737 15.5902 33.8512 27.0075 32.8602V30.8731V30.868Z"
    fill="#6D6E70"
  />
<path
    d="M27.0075 27.0404C14.4807 28.0668 0.777832 28.9415 0.777832 28.9415V31.4696C0.777832 31.4696 15.7845 30.1247 27.0075 28.9921V27.0404Z"
    fill="#6D6E70"
  />
<path d="M233.433 66.2952V27.541H230.124V66.2952H233.433Z" fill="#003399" />
<path
    d="M145.415 33.5803C145.415 33.3316 145.531 33.1946 145.8 33.1946H152.895C153.129 33.1946 153.261 33.3316 153.261 33.56V34.7577C153.261 34.9912 153.164 35.1029 152.875 35.1029H147.612V38.422H152.276C152.525 38.422 152.662 38.5388 152.662 38.7671V39.9649C152.662 40.1983 152.565 40.31 152.276 40.31H147.612V44.1062H153.012C153.241 44.1062 153.357 44.223 153.357 44.4716V45.6491C153.357 45.8978 153.261 45.9942 152.992 45.9942H145.8C145.531 45.9942 145.415 45.8775 145.415 45.6491V33.5752V33.5803Z"
    fill="#58595B"
  />
<path
    d="M163.076 45.9944H161.706C161.417 45.9944 161.34 45.8574 161.34 45.629V45.0301L161.3 45.0098C160.549 45.5326 159.234 46.167 158.062 46.167C155.458 46.167 155.21 44.6241 155.21 42.5991V36.9301C155.21 36.6967 155.306 36.5444 155.575 36.5444H156.981C157.23 36.5444 157.326 36.6815 157.326 36.9301V42.3504C157.326 43.5076 157.559 44.2384 158.732 44.2384C159.559 44.2384 160.833 43.6192 161.335 43.3706V36.9301C161.335 36.6967 161.411 36.5444 161.701 36.5444H163.071C163.34 36.5444 163.436 36.6815 163.436 36.9301V45.629C163.436 45.8777 163.34 45.9944 163.071 45.9944H163.076Z"
    fill="#58595B"
  />
<path
    d="M167.979 45.629C167.979 45.8625 167.882 45.9944 167.613 45.9944H166.223C165.954 45.9944 165.857 45.8777 165.857 45.629V36.9301C165.857 36.6814 165.954 36.5444 166.223 36.5444H167.593C167.882 36.5444 167.979 36.6967 167.979 36.9301V37.7777L168.019 37.8183C168.598 37.2803 169.968 36.6205 170.872 36.448C171.12 36.3922 171.298 36.448 171.334 36.7779L171.471 38.072C171.491 38.341 171.511 38.4578 171.105 38.5339C170.024 38.747 168.654 39.1328 167.979 39.422V45.629Z"
    fill="#58595B"
  />
<path
    d="M176.464 46.1518C172.587 46.1518 172.338 43.3198 172.338 41.1172C172.338 39.3054 172.744 36.3567 176.464 36.3567C180.185 36.3567 180.728 38.8435 180.728 41.1172C180.728 43.3909 180.459 46.1518 176.464 46.1518ZM176.485 38.2091C174.845 38.2091 174.48 39.2495 174.48 41.2542C174.48 43.2589 174.845 44.2993 176.464 44.2993C178.22 44.2993 178.566 43.3147 178.566 41.2542C178.566 39.1937 178.236 38.2091 176.485 38.2091ZM178.972 32.327C179.185 32.4437 179.164 32.5959 179.048 32.7533L177.079 35.4533C176.982 35.5903 176.886 35.6461 176.713 35.57L175.962 35.2249C175.825 35.1488 175.769 35.0523 175.866 34.8595L177.408 31.8702C177.505 31.6773 177.657 31.6773 177.835 31.7535L178.972 32.332V32.327Z"
    fill="#58595B"
  />
<path
    d="M187.107 46.1722C186.473 46.1722 185.584 46.0554 184.696 45.7458L184.676 45.7661V49.1614C184.676 49.3746 184.62 49.5471 184.311 49.5471H182.94C182.631 49.5471 182.575 49.4101 182.575 49.1614V36.9353C182.575 36.6866 182.671 36.5496 182.94 36.5496H184.311C184.58 36.5496 184.656 36.7019 184.656 36.9353V37.5139L184.712 37.5545C185.407 37.0723 186.64 36.3973 187.757 36.3973C190.284 36.3973 190.939 38.3056 190.939 41.2188C190.939 44.3603 190.147 46.1722 187.102 46.1722H187.107ZM187.259 38.3259C186.468 38.3259 185.255 38.8842 184.676 39.1938V44.0152C185.544 44.2639 186.239 44.3451 186.894 44.3451C188.284 44.3451 188.767 43.6295 188.767 41.2035C188.767 38.7776 188.284 38.331 187.264 38.331L187.259 38.3259Z"
    fill="#58595B"
  />
<path
    d="M198.623 44.898C197.659 45.6288 196.364 46.1516 195.075 46.1516C193.03 46.1516 192.431 45.035 192.431 43.4161C192.411 41.1576 193.629 40.1933 196.055 40.1933H198.521V39.6909C198.521 38.5337 198.1 38.1277 196.517 38.1277C195.882 38.1277 194.664 38.2241 193.893 38.3003C193.507 38.3561 193.411 38.3409 193.355 38.0668L193.182 37.3512C193.142 37.1025 193.203 36.9452 193.624 36.7726C194.451 36.4833 195.979 36.3463 196.882 36.3463C200.216 36.3463 200.622 37.7166 200.622 39.8736V43.5937C200.622 44.3854 200.719 44.4057 201.318 44.4818C201.607 44.5021 201.683 44.558 201.683 44.7711V45.5832C201.683 45.7963 201.546 45.9283 201.221 45.9892C200.912 46.045 200.602 46.0856 200.313 46.0856C199.404 46.0856 198.846 45.8166 198.653 44.9082L198.613 44.8879L198.623 44.898ZM198.506 41.6956H196.151C195.187 41.6956 194.568 42.0407 194.568 43.3145C194.568 44.1621 194.857 44.4311 195.766 44.4311C196.593 44.4311 197.77 43.9489 198.506 43.5226V41.6905V41.6956Z"
    fill="#58595B"
  />
<path
    d="M204.429 35.1589C203.424 35.1589 203.292 34.6006 203.292 34.0424C203.292 33.4232 203.505 32.941 204.429 32.941C205.352 32.941 205.566 33.3826 205.566 34.0424C205.566 34.6412 205.393 35.1589 204.429 35.1589ZM205.449 45.629C205.449 45.8422 205.373 45.9944 205.104 45.9944H203.733C203.464 45.9944 203.348 45.8777 203.348 45.629V36.9149C203.348 36.6459 203.464 36.5495 203.733 36.5495H205.104C205.373 36.5495 205.449 36.7018 205.449 36.9149V45.629Z"
    fill="#58595B"
  />
<path
    d="M150.718 66.2951H145.821C145.491 66.2951 145.394 66.1581 145.394 65.9297V53.8762C145.394 53.6427 145.491 53.5107 145.78 53.5107H150.195C152.758 53.5107 154.073 54.8607 154.073 56.906C154.073 57.6369 153.784 58.9513 152.53 59.5502L152.55 59.5908C154.093 60.1136 154.438 61.6919 154.438 62.6562C154.438 64.9299 152.703 66.3002 150.718 66.3002V66.2951ZM149.871 55.3835H147.577V58.7382H150.084C151.068 58.7382 151.799 58.0226 151.799 57.0786C151.799 56.1346 151.221 55.3835 149.871 55.3835ZM150.18 60.5906H147.577V64.4072H150.18C151.743 64.4072 152.165 63.5393 152.165 62.5192C152.165 61.4991 151.566 60.5906 150.18 60.5906Z"
    fill="#58595B"
  />
<path
    d="M157.717 55.4597C156.712 55.4597 156.58 54.9014 156.58 54.3431C156.58 53.724 156.793 53.2418 157.717 53.2418C158.64 53.2418 158.853 53.6834 158.853 54.3431C158.853 54.942 158.681 55.4597 157.717 55.4597ZM158.737 65.9298C158.737 66.1429 158.661 66.2952 158.392 66.2952H157.021C156.752 66.2952 156.636 66.1785 156.636 65.9298V57.2157C156.636 56.9467 156.752 56.8503 157.021 56.8503H158.392C158.661 56.8503 158.737 57.0025 158.737 57.2157V65.9298Z"
    fill="#58595B"
  />
<path
    d="M167.725 64.5036C167.994 64.5036 168.111 64.6 168.111 64.8487V65.9297C168.111 66.1784 167.994 66.2951 167.745 66.2951H161.016C160.767 66.2951 160.686 66.1987 160.686 65.9653V65.1177C160.686 64.9045 160.706 64.7117 160.899 64.4833L165.528 58.6012H161.325C161.056 58.6012 160.96 58.5047 160.96 58.2357V57.1953C160.96 56.9466 161.056 56.8502 161.325 56.8502H167.649C167.898 56.8502 168.014 56.906 168.014 57.1801V58.1241C168.014 58.3575 167.959 58.5504 167.781 58.7585L163.269 64.5036H167.725Z"
    fill="#58595B"
  />
<path
    d="M173.744 66.4526C169.867 66.4526 169.618 63.6206 169.618 61.418C169.618 59.6062 170.024 56.6575 173.744 56.6575C177.464 56.6575 178.007 59.1443 178.007 61.418C178.007 63.6917 177.738 66.4526 173.744 66.4526ZM173.764 58.5099C172.125 58.5099 171.76 59.5503 171.76 61.555C171.76 63.5597 172.125 64.6001 173.744 64.6001C175.5 64.6001 175.845 63.6156 175.845 61.555C175.845 59.4945 175.515 58.5099 173.764 58.5099Z"
    fill="#58595B"
  />
<path
    d="M185.778 65.5644C185.818 65.813 185.722 65.9501 185.529 66.0465C184.854 66.3358 183.621 66.4525 183.022 66.4525C180.763 66.4525 180.652 65.0467 180.652 63.3871V58.5454H179.687C179.398 58.5454 179.322 58.4286 179.322 58.18V57.236C179.322 56.9873 179.398 56.8503 179.687 56.8503H180.672V54.8659C180.672 54.5969 180.824 54.5005 181.037 54.4396L182.332 54.0944C182.565 54.0386 182.717 54.0741 182.717 54.3279V56.8553H184.783C185.092 56.8553 185.148 56.9924 185.148 57.2208V58.185C185.148 58.4337 185.092 58.5505 184.783 58.5505H182.717V63.3516C182.717 64.3717 182.986 64.4123 184.011 64.4123C184.28 64.4123 184.92 64.3717 185.306 64.3362C185.519 64.3159 185.615 64.3768 185.651 64.6052L185.788 65.5694L185.778 65.5644Z"
    fill="#58595B"
  />
<path
    d="M192.74 65.5644C192.781 65.813 192.685 65.9501 192.492 66.0465C191.817 66.3358 190.583 66.4525 189.985 66.4525C187.726 66.4525 187.615 65.0467 187.615 63.3871V58.5454H186.65C186.361 58.5454 186.285 58.4286 186.285 58.18V57.236C186.285 56.9873 186.361 56.8503 186.65 56.8503H187.635V54.8659C187.635 54.5969 187.787 54.5005 188 54.4396L189.294 54.0944C189.528 54.0386 189.68 54.0741 189.68 54.3279V56.8553H191.746C192.055 56.8553 192.111 56.9924 192.111 57.2208V58.185C192.111 58.4337 192.055 58.5505 191.746 58.5505H189.68V63.3516C189.68 64.3717 189.949 64.4123 190.974 64.4123C191.243 64.4123 191.883 64.3717 192.268 64.3362C192.482 64.3159 192.578 64.3768 192.614 64.6052L192.751 65.5694L192.74 65.5644Z"
    fill="#58595B"
  />
<path
    d="M196.983 66.4526C196.019 66.4526 194.725 66.3156 193.994 66.0263C193.608 65.874 193.532 65.6964 193.588 65.3919L193.725 64.7575C193.781 64.4479 193.918 64.4276 194.228 64.4682C195.075 64.6052 196.308 64.7016 196.968 64.7016C198.201 64.7016 198.704 64.3718 198.704 63.6003C198.704 62.7122 198.374 62.5193 197.161 62.3468C195.273 62.0778 193.614 61.6718 193.614 59.5706C193.614 57.6624 195.08 56.6575 197.237 56.6575C198.029 56.6575 199.359 56.7742 200.171 57.0838C200.501 57.2208 200.633 57.3731 200.577 57.6624L200.424 58.3577C200.369 58.6266 200.252 58.6672 199.902 58.6266C199.074 58.5302 197.993 58.4135 197.278 58.4135C196.045 58.4135 195.755 58.7586 195.755 59.4945C195.755 60.2304 196.217 60.3421 197.395 60.5349C199.227 60.8039 200.886 61.1693 200.886 63.4684C200.886 65.7674 198.978 66.4577 196.994 66.4577L196.983 66.4526Z"
    fill="#58595B"
  />
<path
    d="M208.631 65.1989C207.667 65.9298 206.373 66.4525 205.083 66.4525C203.038 66.4525 202.439 65.336 202.439 63.717C202.419 61.4585 203.637 60.4942 206.063 60.4942H208.529V59.9918C208.529 58.8347 208.103 58.4286 206.525 58.4286C205.89 58.4286 204.672 58.5251 203.901 58.6012C203.515 58.657 203.419 58.6418 203.363 58.3677L203.19 57.6521C203.15 57.4034 203.211 57.2461 203.632 57.0736C204.459 56.7843 205.987 56.6472 206.89 56.6472C210.225 56.6472 210.631 58.0175 210.631 60.1745V63.8946C210.631 64.6863 210.727 64.7066 211.326 64.7828C211.615 64.8031 211.691 64.8589 211.691 65.0721V65.8841C211.691 66.0972 211.554 66.2292 211.229 66.2901C210.92 66.3459 210.61 66.3865 210.321 66.3865C209.413 66.3865 208.854 66.1175 208.661 65.2091L208.621 65.1888L208.631 65.1989ZM208.514 61.9965H206.159C205.195 61.9965 204.576 62.3416 204.576 63.6155C204.576 64.463 204.865 64.732 205.774 64.732C206.601 64.732 207.778 64.2499 208.514 63.8236V61.9914V61.9965ZM209.382 52.6226C209.595 52.7393 209.575 52.8916 209.458 53.0489L207.494 55.7489C207.398 55.886 207.301 55.9418 207.129 55.8657L206.378 55.5206C206.241 55.4444 206.185 55.348 206.281 55.1551L207.824 52.1659C207.92 51.973 208.073 51.973 208.25 52.0491L209.387 52.6277L209.382 52.6226Z"
    fill="#58595B"
  />
<path
    d="M220.801 57.1599C221.263 57.3122 221.324 57.6826 221.324 58.0278V66.1836C221.324 68.4014 220.938 70.061 217.254 70.061C216.249 70.061 214.939 69.9443 214.148 69.6195C213.742 69.4672 213.721 69.2744 213.762 69.0612L213.914 68.3456C213.97 68.036 214.107 68.0157 214.472 68.0766C215.34 68.2137 216.381 68.2695 217.132 68.2695C218.771 68.2695 219.177 67.767 219.177 66.5744V65.94C218.193 66.2851 217.421 66.4018 216.807 66.4018C213.681 66.4018 212.93 64.4732 212.93 61.621C212.93 58.5962 213.853 56.6676 217.152 56.6676C218.365 56.6676 219.852 56.8605 220.796 57.17L220.801 57.1599ZM217.005 64.5443C217.563 64.5443 218.375 64.4479 219.182 64.2144V58.718C218.583 58.6215 217.873 58.5454 217.254 58.5454C216.056 58.5454 215.132 58.8905 215.132 61.4383C215.132 63.7881 215.655 64.5443 217.005 64.5443Z"
    fill="#58595B"
  />
</svg>
