<svg
  width="291"
  height="72"
  viewBox="0 0 291 72"
  fill="none"
  xmlns="http://www.w3.org/2000/svg"
>
<path
    d="M86.9932 27.5411H86.9369H28.567V66.1905H86.9369H86.9932V27.5411Z"
    fill="#003399"
  />
<path
    d="M58.3093 33.3809H60.3442L58.703 34.645L59.3421 36.6472L57.711 35.4135L56.08 36.6472L56.7191 34.645L55.0676 33.3809H57.0975L57.711 31.4293L58.3093 33.3809Z"
    fill="#FFED00"
  />
<path
    d="M58.3808 59.1574H60.4158L58.7796 60.3759L59.4137 62.3023L57.7826 61.1141L56.1516 62.3023L56.7958 60.3759L55.1392 59.1574H57.1691L57.7826 57.2815L58.3808 59.1574Z"
    fill="#FFED00"
  />
<path
    d="M64.8283 57.4534H66.8684L65.2271 58.6669L65.8663 60.5933L64.2301 59.4051L62.5991 60.5933L63.2433 58.6669L61.5867 57.4534H63.6165L64.2301 55.5725L64.8283 57.4534Z"
    fill="#FFED00"
  />
<path
    d="M64.8283 35.1001H66.8684L65.2271 36.3186L65.8663 38.245L64.2301 37.0568L62.5991 38.245L63.2433 36.3186L61.5867 35.1001H63.6165L64.2301 33.2242L64.8283 35.1001Z"
    fill="#FFED00"
  />
<path
    d="M69.6192 39.8377H71.6491L70.0129 41.0512L70.6469 42.9776L69.0159 41.7894L67.3848 42.9776L68.0291 41.0512L66.3724 39.8377H68.4023L69.0159 37.9568L69.6192 39.8377Z"
    fill="#FFED00"
  />
<path
    d="M69.6192 52.7815H71.6491L70.0129 54.0001L70.6469 55.9265L69.0159 54.7383L67.3848 55.9265L68.0291 54.0001L66.3724 52.7815H68.4023L69.0159 50.9057L69.6192 52.7815Z"
    fill="#FFED00"
  />
<path
    d="M71.4087 46.2085H73.4488L71.8076 47.427L72.4467 49.3534L70.8105 48.1652L69.1795 49.3534L69.8237 47.427L68.1671 46.2085H70.197L70.8105 44.3326L71.4087 46.2085Z"
    fill="#FFED00"
  />
<path
    d="M51.7391 35.1203H53.7689L52.1328 36.3337L52.7668 38.2601L51.1357 37.0719L49.5047 38.2601L50.1489 36.3337L48.4974 35.1203H50.5222L51.1357 33.2393L51.7391 35.1203Z"
    fill="#FFED00"
  />
<path
    d="M47.0811 39.8528H49.1212L47.4799 41.0663L48.1139 42.9927L46.4829 41.8045L44.8518 42.9927L45.4961 41.0663L43.8395 39.8528H45.8693L46.4829 37.9719L47.0811 39.8528Z"
    fill="#FFED00"
  />
<path
    d="M45.3529 46.2287H47.3879L45.7517 47.4422L46.3857 49.3686L44.7547 48.1855L43.1237 49.3686L43.7679 47.4422L42.1164 46.2287H44.1411L44.7547 44.3478L45.3529 46.2287Z"
    fill="#FFED00"
  />
<path
    d="M47.0811 52.7967H49.1212L47.4799 54.0152L48.1139 55.9417L46.4829 54.7535L44.8518 55.9417L45.4961 54.0152L43.8395 52.7967H45.8693L46.4829 50.9209L47.0811 52.7967Z"
    fill="#FFED00"
  />
<path
    d="M51.8055 57.4686H53.8354L52.1992 58.6821L52.8332 60.6085L51.2022 59.4203L49.5711 60.6085L50.2154 58.6821L48.5639 57.4686H50.5886L51.2022 55.5877L51.8055 57.4686Z"
    fill="#FFED00"
  />
<path
    d="M95.8693 0.00505726C95.8693 0.00505726 107.869 18.9101 110.068 22.3736C112.262 25.8371 114.772 28.5826 123.653 30.4433C132.535 32.304 136.4 33.1837 136.4 33.1837V33.8562C136.4 33.8562 130.755 32.668 123.495 31.0652C116.234 29.4624 113.264 28.9214 109.956 24.3657C107.2 20.5736 95.8693 3.61517 95.8693 3.61517V0V0.00505726Z"
    fill="#6D6E70"
  />
<path
    d="M95.8693 21.5949C95.8693 21.5949 106.796 32.9157 109.956 36.1668C113.31 39.6152 117.6 40.8893 123.551 41.941C129.232 42.9421 136.395 44.1 136.395 44.1V44.7371C136.395 44.7371 129.666 43.6449 123.551 42.6135C117.553 41.5972 113.356 41.0309 109.92 37.9011C106.842 35.1 95.8693 24.9219 95.8693 24.9219V21.5899V21.5949Z"
    fill="#6D6E70"
  />
<path
    d="M95.8693 26.6967C95.8693 26.6967 106.259 36.2377 109.956 39.4989C113.356 42.4973 116.112 43.4326 123.587 44.7422C131.062 46.0517 136.395 46.8658 136.395 46.8658V47.5383C136.395 47.5383 129.63 46.4411 123.551 45.4804C117.472 44.5248 113.596 44.1456 109.956 41.2281C105.758 37.8607 95.8693 29.8113 95.8693 29.8113V26.6916V26.6967Z"
    fill="#6D6E70"
  />
<path
    d="M95.8693 32.1321C95.8693 32.1321 107.737 41.4456 109.956 43.0737C112.175 44.7018 115.109 46.6029 123.623 47.8214C132.064 49.0298 136.395 49.6265 136.395 49.6265V50.3343C136.395 50.3343 128.741 49.2371 123.623 48.6001C118.505 47.963 114.583 47.69 109.991 44.6664C105.523 41.7237 95.8693 35.004 95.8693 35.004V32.1321Z"
    fill="#6D6E70"
  />
<path
    d="M95.8693 37.3601C95.8693 37.3601 107.772 45.1972 110.027 46.441C112.282 47.6798 114.931 49.7023 123.623 50.7995C132.315 51.8967 136.395 52.3922 136.395 52.3922V53.0646C136.395 53.0646 129.206 52.286 123.587 51.6843C117.973 51.0826 114.143 50.2686 109.956 47.9983C105.768 45.7332 95.8693 40.0096 95.8693 40.0096V37.3601Z"
    fill="#6D6E70"
  />
<path
    d="M95.8693 42.5882C95.8693 42.5882 106.392 48.2511 109.956 50.0158C113.928 51.9877 117.364 52.9332 123.587 53.6663C129.697 54.3843 136.395 55.082 136.395 55.082V55.7191C136.395 55.7191 130.203 55.0618 123.587 54.445C117.027 53.8281 114.69 53.545 109.956 51.4669C105.722 49.6062 95.8693 45.0657 95.8693 45.0657V42.5832V42.5882Z"
    fill="#6D6E70"
  />
<path
    d="M95.8693 47.8871C95.8693 47.8871 104.183 51.4062 110.027 53.7017C115.774 55.9568 120.166 56.1489 123.658 56.5382C125.197 56.7101 136.395 57.8478 136.395 57.8478V58.4848C136.395 58.4848 129.707 57.9539 123.623 57.423C117.538 56.8921 114.915 56.6646 109.991 55.0517C105.006 53.4135 95.8693 50.2635 95.8693 50.2635V47.8921V47.8871Z"
    fill="#6D6E70"
  />
<path
    d="M95.8693 53.2922C95.8693 53.2922 104.265 55.8658 109.991 57.3523C115.718 58.8388 120.974 59.4455 123.623 59.6175C126.271 59.7944 136.4 60.6085 136.4 60.6085V61.2102C136.4 61.2102 130.638 60.8208 123.587 60.3253C117.886 59.9259 113.31 59.5012 109.956 58.768C106.244 57.959 95.8693 55.522 95.8693 55.522V53.2922Z"
    fill="#6D6E70"
  />
<path
    d="M95.8693 58.6062C95.8693 58.6062 102.736 59.7793 109.991 60.9675C115.432 61.8574 122.799 62.4186 123.587 62.454C124.374 62.4894 136.395 63.3034 136.395 63.3034V63.9405C136.395 63.9405 128.7 63.5461 123.587 63.268C118.259 62.9748 112.962 62.6562 109.956 62.3478C103.217 61.6551 95.8693 60.7349 95.8693 60.7349V58.6062Z"
    fill="#6D6E70"
  />
<path
    d="M95.8693 64.1074C95.8693 64.1074 106.699 64.5119 109.991 64.5826C113.284 64.6534 136.395 65.5737 136.395 65.5737V66.1956H95.8693V64.1074Z"
    fill="#6D6E70"
  />
<path
    d="M123.582 33.3657C113.78 31.2775 111.561 27.7332 109.915 25.5388C108.268 23.3393 95.8642 5.41516 95.8642 5.41516V8.71179C96.355 9.34382 106.97 23.8348 109.95 27.627C113.31 31.8994 118.571 32.8702 123.582 33.932C128.587 34.9938 136.395 36.4753 136.395 36.4753V35.909C136.395 35.909 126.118 33.9017 123.582 33.3657Z"
    fill="#6D6E70"
  />
<path
    d="M123.582 36.2023C115.534 34.645 112.277 32.127 109.915 29.0832C107.552 26.0343 95.8642 10.4461 95.8642 10.4461V14.2787C96.355 14.85 107.046 27.7534 109.915 30.9995C113.259 34.7866 117.927 35.7826 123.582 36.809C129.237 37.8355 136.39 39.1804 136.39 39.1804V38.6141C136.39 38.6141 128.224 37.1023 123.582 36.2074V36.2023Z"
    fill="#6D6E70"
  />
<path
    d="M123.582 39.1399C115.212 37.532 113.494 36.2124 109.95 32.3747C107.721 29.9629 96.3448 16.6803 95.8642 16.1191V19.6584C95.8642 19.6584 106.494 30.8731 109.915 34.1849C114.399 38.5332 118.607 38.8618 123.582 39.7467C128.557 40.6315 136.39 42.0472 136.39 42.0472V41.4455C136.39 41.4455 126.931 39.7871 123.582 39.145V39.1399Z"
    fill="#6D6E70"
  />
<path
    d="M0.782944 27.7787C0.782944 27.7787 28.4954 24.8562 36.2569 23.7792C48.5281 22.0803 58.57 20.2702 67.8603 6.18875C67.8603 6.18875 67.8705 5.38987 67.8603 5.03088C62.1696 13.591 54.3211 19.4309 43.5122 21.1247C32.9539 22.7831 0.777832 25.2051 0.777832 25.2051V27.7787H0.782944Z"
    fill="#6D6E70"
  />
<path
    d="M0.777832 24.2849C0.777832 24.2849 26.4604 21.1045 34.9224 19.9315C48.3082 18.0809 57.7212 16.4174 67.8552 1.05675C67.8552 1.05675 67.8603 0.394392 67.8552 0.00506592C61.648 9.34384 53.9836 15.3759 42.1931 17.2264C30.6735 19.0365 0.777832 21.6759 0.777832 21.6759V24.2899V24.2849Z"
    fill="#6D6E70"
  />
<path d="M26.9973 64.1326H0.793167V66.1854H26.9973V64.1326Z" fill="#6D6E70" />
<path
    d="M67.8552 22.5708C67.8552 22.5708 67.8705 21.3624 67.8654 21.1045C66.6332 22.9601 65.0124 24.6438 63.141 26.1253H64.9766C66.0094 25.0736 66.9758 23.8955 67.8501 22.5708H67.8552Z"
    fill="#6D6E70"
  />
<path
    d="M67.8552 17.1101C67.8552 17.1101 67.8654 16.0382 67.8603 15.745C64.8897 20.2146 60.4669 23.7843 55.3539 26.1506L58.3706 26.1405C61.8577 24.1332 65.0993 21.2815 67.8501 17.1101H67.8552Z"
    fill="#6D6E70"
  />
<path
    d="M67.8552 11.6495C67.8552 11.6495 67.8654 10.7141 67.8552 10.3905C62.686 18.1719 54.6483 23.4961 44.8212 25.0382C42.4948 25.4023 38.706 25.8068 34.3037 26.2163L46.3039 26.1759C54.224 24.4315 61.6378 21.059 67.845 11.6495H67.8552Z"
    fill="#6D6E70"
  />
<path
    d="M27.0024 60.6742C13.6319 60.745 0.793167 60.8006 0.793167 60.8006V62.9394C0.793167 62.9394 14.2403 62.8433 27.0024 62.7371V60.6742Z"
    fill="#6D6E70"
  />
<path
    d="M27.0024 57.0034C13.7239 57.15 0.788055 57.2613 0.788055 57.2613V59.4456C0.788055 59.4456 14.3733 59.2686 27.0024 59.0714V57.0034Z"
    fill="#6D6E70"
  />
<path
    d="M26.9973 53.3225C13.816 53.55 0.788055 53.7219 0.788055 53.7219V55.9517C0.788055 55.9517 14.5164 55.6837 26.9973 55.3905V53.3225Z"
    fill="#6D6E70"
  />
<path
    d="M27.0024 49.6214C13.9182 49.9399 0.788055 50.1776 0.788055 50.1776V52.4478C0.788055 52.4478 14.6749 52.0736 27.0024 51.6843V49.6163V49.6214Z"
    fill="#6D6E70"
  />
<path
    d="M27.0075 45.9102C14.0205 46.3197 0.788055 46.6433 0.788055 46.6433V48.959C0.788055 48.959 14.8437 48.4736 27.0075 47.9781V45.9152V45.9102Z"
    fill="#6D6E70"
  />
<path
    d="M27.0024 42.1838C14.1176 42.6995 0.788055 43.104 0.788055 43.104V45.4602C0.788055 45.4602 15.0175 44.8433 27.0024 44.2315V42.1787V42.1838Z"
    fill="#6D6E70"
  />
<path
    d="M27.0075 38.4321C14.2199 39.059 0.782944 39.5596 0.782944 39.5596V41.9613C0.782944 41.9613 15.2016 41.1978 27.0075 40.4647V38.4321Z"
    fill="#6D6E70"
  />
<path
    d="M27.0075 34.6602C14.317 35.4085 0.782944 36.0203 0.782944 36.0203V38.4624C0.782944 38.4624 15.3959 37.5321 27.0075 36.6725V34.6602Z"
    fill="#6D6E70"
  />
<path
    d="M27.0075 30.868C14.404 31.7478 0.782944 32.486 0.782944 32.486V34.9736C0.782944 34.9736 15.5902 33.8512 27.0075 32.8601V30.8731V30.868Z"
    fill="#6D6E70"
  />
<path
    d="M27.0075 27.0405C14.4807 28.0669 0.777832 28.9416 0.777832 28.9416V31.4697C0.777832 31.4697 15.7845 30.1247 27.0075 28.9922V27.0405Z"
    fill="#6D6E70"
  />
<path d="M245.677 66.1286V27.2954H242.366V66.1286H245.677Z" fill="#003399" />
<path
    d="M145.394 33.3474C145.394 33.0982 145.511 32.9609 145.781 32.9609H152.89C153.124 32.9609 153.257 33.0982 153.257 33.327V34.5272C153.257 34.7612 153.16 34.873 152.87 34.873H147.596V38.199H152.275C152.524 38.199 152.662 38.3159 152.662 38.5448V39.745C152.662 39.9789 152.565 40.0908 152.275 40.0908H147.596V43.8948H153.007C153.241 43.8948 153.353 44.0117 153.353 44.2609V45.4408C153.353 45.69 153.257 45.7866 152.987 45.7866H145.781C145.511 45.7866 145.394 45.6696 145.394 45.4408V33.3423V33.3474Z"
    fill="#58595B"
  />
<path
    d="M159.268 44.1093C160.814 44.1093 161.276 43.26 161.276 42.1564V36.6895C161.276 36.4759 161.373 36.3233 161.642 36.3233H163.036C163.305 36.3233 163.402 36.4403 163.402 36.6895V42.2531C163.402 44.3229 162.126 45.9248 159.268 45.9248C156.409 45.9248 155.25 44.4754 155.25 42.2531V36.6895C155.25 36.4759 155.326 36.3233 155.616 36.3233H156.989C157.259 36.3233 157.355 36.42 157.355 36.6895V42.1564C157.355 43.2397 157.625 44.1093 159.268 44.1093Z"
    fill="#58595B"
  />
<path
    d="M169.861 45.964C169.245 45.964 168.315 45.8267 167.445 45.5368V48.9594C167.445 49.173 167.384 49.3459 167.079 49.3459H165.706C165.396 49.3459 165.34 49.2086 165.34 48.9594V40.9802C165.34 37.7153 166.865 36.1286 169.535 36.1286C172.704 36.1286 173.746 38.0611 173.746 40.9955C173.746 44.1281 172.953 45.9589 169.861 45.9589V45.964ZM169.551 38.0204C167.562 38.0204 167.445 39.719 167.445 41.0158V43.8179C168.294 44.0519 169.011 44.1281 169.647 44.1281C170.98 44.1281 171.559 43.5077 171.559 40.9395C171.559 38.6205 170.71 38.0204 169.551 38.0204Z"
    fill="#58595B"
  />
<path
    d="M181.975 44.6119C181.512 45.3645 180.566 45.9443 179.249 45.9443C176.274 45.9443 175.48 43.7219 175.48 41.1333C175.48 39.2212 175.908 37.1921 178.323 36.2461C178.572 36.1495 178.786 36.1088 178.923 36.3631L179.366 37.1565C179.518 37.4056 179.442 37.5226 179.152 37.7159C177.855 38.5855 177.647 39.5314 177.647 41.1537C177.647 42.776 178.074 44.1287 179.345 44.1287C180.774 44.1287 181.008 43.1065 181.008 42.1403V39.628C181.008 39.3585 181.105 39.2619 181.395 39.2619H182.651C182.92 39.2619 182.997 39.3992 182.997 39.628V42.1403C182.997 43.1269 183.46 44.1287 184.68 44.1287C185.819 44.1287 186.399 43.2998 186.399 41.1537C186.399 39.3941 186.129 38.6058 184.873 37.7159C184.563 37.543 184.543 37.3853 184.68 37.1565L185.087 36.4394C185.204 36.2055 185.417 36.1292 185.707 36.2461C188.103 37.1158 188.565 39.2212 188.565 41.1333C188.565 43.7015 187.772 45.9443 184.777 45.9443C183.485 45.9443 182.498 45.3645 182.036 44.6119H181.98H181.975Z"
    fill="#58595B"
  />
<path
    d="M198.691 45.426C198.691 45.6396 198.594 45.7922 198.304 45.7922H196.931C196.662 45.7922 196.565 45.6752 196.565 45.426L196.585 38.1029H192.527V45.426C192.527 45.6396 192.451 45.7922 192.161 45.7922H190.788C190.518 45.7922 190.422 45.6752 190.422 45.426V36.6942C190.422 36.4246 190.539 36.328 190.788 36.328H198.325C198.614 36.328 198.691 36.4246 198.691 36.6942V45.426Z"
    fill="#58595B"
  />
<path
    d="M208.857 43.4533C208.857 44.2059 208.953 44.2263 209.492 44.2822C209.782 44.3026 209.838 44.3585 209.838 44.5721V45.3858C209.838 45.5994 209.721 45.7316 209.396 45.7926C209.086 45.8486 208.775 45.8892 208.486 45.8892C207.56 45.8892 207.016 45.6197 206.843 44.7094L206.802 44.6891C205.795 45.4417 204.717 45.9655 203.614 45.9655C201.122 45.9655 200.466 44.0737 200.466 41.1546C200.466 38.2355 201.645 36.1505 204.275 36.1505C204.895 36.1505 205.861 36.3234 206.767 36.8828L206.807 36.8624V36.6692C206.807 36.42 206.863 36.3234 207.173 36.3234H208.486C208.796 36.3234 208.852 36.4759 208.852 36.7099V43.4533H208.857ZM204.142 44.089C204.915 44.089 206.151 43.5296 206.751 43.2193V38.561C205.902 38.2152 205.088 38.0575 204.722 38.0575C203.349 38.0575 202.637 38.9068 202.637 41.1851C202.637 43.6414 203.1 44.0839 204.142 44.0839V44.089Z"
    fill="#58595B"
  />
<path
    d="M209.67 33.9474C209.67 33.3676 209.864 32.9252 210.754 32.9252C211.643 32.9252 211.816 33.332 211.816 33.9474C211.816 34.5271 211.664 35.0306 210.754 35.0306C209.787 35.0306 209.67 34.5068 209.67 33.9474ZM213.632 45.4254C213.632 45.639 213.556 45.7916 213.286 45.7916H211.913C211.643 45.7916 211.527 45.6746 211.527 45.4254V36.6936C211.527 36.4241 211.643 36.3274 211.913 36.3274H213.286C213.556 36.3274 213.632 36.48 213.632 36.6936V45.4254ZM213.439 33.9474C213.439 33.3676 213.652 32.9252 214.502 32.9252C215.412 32.9252 215.585 33.332 215.585 33.9474C215.585 34.5271 215.432 35.0306 214.502 35.0306C213.571 35.0306 213.439 34.5068 213.439 33.9474Z"
    fill="#58595B"
  />
<path
    d="M218.23 39.8221L219.679 38.2558L221.281 36.6335C221.474 36.4403 221.611 36.3029 221.978 36.3029H223.524C223.89 36.3029 223.946 36.5165 223.737 36.7454L220.645 39.8933L224.124 45.3399C224.261 45.5739 224.144 45.7824 223.875 45.7824H222.349C221.942 45.7824 221.81 45.6451 221.672 45.4162L219.237 41.4546L218.174 42.5734V45.4111C218.174 45.6247 218.097 45.7773 217.807 45.7773H216.434C216.165 45.7773 216.068 45.6603 216.068 45.4111V36.6945C216.068 36.4453 216.165 36.308 216.434 36.308H217.807C218.097 36.308 218.174 36.4606 218.174 36.6945V39.7865L218.23 39.8069V39.8221Z"
    fill="#58595B"
  />
<path
    d="M233.166 45.7926H231.772C231.523 45.7926 231.406 45.6756 231.406 45.4264L231.427 39.9951C231.427 38.8559 231.157 38.1033 230.033 38.1033C229.26 38.1033 227.907 38.7237 227.384 38.9729V45.4264C227.384 45.6604 227.287 45.7926 227.018 45.7926H225.644C225.375 45.7926 225.278 45.6756 225.278 45.4264V36.7098C225.278 36.4607 225.375 36.3233 225.644 36.3233H227.018C227.287 36.3233 227.384 36.4607 227.384 36.7098V37.2896C227.384 37.2896 227.424 37.3099 227.44 37.3099C228.157 36.8065 229.509 36.1504 230.684 36.1504C233.293 36.1504 233.522 37.8693 233.522 39.8222V45.4264C233.522 45.6604 233.446 45.7926 233.156 45.7926H233.166ZM231.218 32.0922C231.432 32.2091 231.411 32.3617 231.294 32.5194L229.342 35.2249C229.225 35.3622 229.148 35.4181 228.955 35.3418L228.202 34.996C228.065 34.9197 228.03 34.8231 228.106 34.6299L229.652 31.6345C229.748 31.4412 229.901 31.4412 230.079 31.5175L231.218 32.0973V32.0922Z"
    fill="#58595B"
  />
<path
    d="M145.394 53.6895C145.394 53.4403 145.511 53.303 145.781 53.303H152.89C153.124 53.303 153.257 53.4403 153.257 53.6692V54.8694C153.257 55.1033 153.16 55.2152 152.87 55.2152H147.596V58.5411H152.275C152.524 58.5411 152.662 58.6581 152.662 58.887V60.0871C152.662 60.3211 152.565 60.433 152.275 60.433H147.596V64.2369H153.007C153.241 64.2369 153.353 64.3539 153.353 64.6031V65.7829C153.353 66.0321 153.257 66.1288 152.987 66.1288H145.781C145.511 66.1288 145.394 66.0118 145.394 65.7829V53.6845V53.6895Z"
    fill="#58595B"
  />
<path
    d="M163.504 65.7684C163.504 65.982 163.407 66.1346 163.117 66.1346H161.744C161.475 66.1346 161.378 66.0176 161.378 65.7684L161.398 58.4453H157.34V65.7684C157.34 65.982 157.264 66.1346 156.974 66.1346H155.601C155.331 66.1346 155.235 66.0176 155.235 65.7684V57.0366C155.235 56.767 155.352 56.6704 155.601 56.6704H163.138C163.428 56.6704 163.504 56.767 163.504 57.0366V65.7684Z"
    fill="#58595B"
  />
<path
    d="M167.928 65.7684C167.928 65.982 167.852 66.1346 167.582 66.1346H166.209C165.94 66.1346 165.823 66.0176 165.823 65.7684V57.0366C165.823 56.767 165.94 56.6704 166.209 56.6704H167.582C167.852 56.6704 167.928 56.823 167.928 57.0366V65.7684Z"
    fill="#58595B"
  />
<path
    d="M175.735 56.6646C176.045 56.6646 176.101 56.8019 176.101 57.0308V58.053C176.101 58.3022 176.045 58.4191 175.735 58.4191H173.609V63.1131C173.609 64.4862 174.133 64.4048 175.948 64.2929C176.279 64.2726 176.375 64.2929 176.411 64.5624L176.548 65.3761C176.569 65.6253 176.472 65.7626 176.299 65.8389C175.623 66.1695 174.519 66.2661 173.924 66.2661C172.088 66.2661 171.529 65.3558 171.529 63.9115V58.4242H169.927C169.657 58.4242 169.561 58.3072 169.561 58.0581V57.0511C169.561 56.8019 169.657 56.6646 169.927 56.6646H175.745H175.735Z"
    fill="#58595B"
  />
<path
    d="M182.168 66.3077C181.548 66.3077 180.622 66.1703 179.752 65.8805V69.303C179.752 69.5166 179.696 69.6895 179.386 69.6895H178.013C177.703 69.6895 177.647 69.5522 177.647 69.303V61.3238C177.647 58.0589 179.173 56.4722 181.837 56.4722C185.006 56.4722 186.048 58.4047 186.048 61.3391C186.048 64.4718 185.255 66.3026 182.163 66.3026L182.168 66.3077ZM181.858 58.364C179.869 58.364 179.752 60.0626 179.752 61.3594V64.1616C180.602 64.3955 181.319 64.4718 181.954 64.4718C183.287 64.4718 183.867 63.8513 183.867 61.2831C183.867 58.9641 183.017 58.364 181.858 58.364Z"
    fill="#58595B"
  />
<path
    d="M191.927 66.2873C188.042 66.2873 187.792 63.4496 187.792 61.2425C187.792 59.4269 188.199 56.4722 191.927 56.4722C195.655 56.4722 196.199 58.9641 196.199 61.2425C196.199 63.5208 195.929 66.2873 191.927 66.2873ZM191.947 58.3285C190.305 58.3285 189.938 59.371 189.938 61.3798C189.938 63.3886 190.305 64.4311 191.927 64.4311C193.686 64.4311 194.032 63.4445 194.032 61.3798C194.032 59.315 193.702 58.3285 191.947 58.3285Z"
    fill="#58595B"
  />
<path
    d="M206.324 65.7684C206.324 65.982 206.227 66.1346 205.938 66.1346H204.564C204.295 66.1346 204.198 66.0176 204.198 65.7684L204.219 58.4453H200.16V65.7684C200.16 65.982 200.084 66.1346 199.794 66.1346H198.421C198.152 66.1346 198.055 66.0176 198.055 65.7684V57.0366C198.055 56.767 198.172 56.6704 198.421 56.6704H205.958C206.248 56.6704 206.324 56.767 206.324 57.0366V65.7684Z"
    fill="#58595B"
  />
<path
    d="M216.18 66.1342H214.787C214.538 66.1342 214.421 66.0172 214.421 65.768L214.441 60.3366C214.441 59.1975 214.172 58.4448 213.048 58.4448C212.275 58.4448 210.922 59.0653 210.398 59.3145V65.768C210.398 66.0019 210.301 66.1342 210.032 66.1342H208.659C208.389 66.1342 208.293 66.0172 208.293 65.768V57.0514C208.293 56.8022 208.389 56.6649 208.659 56.6649H210.032C210.301 56.6649 210.398 56.8022 210.398 57.0514V57.6311C210.398 57.6311 210.439 57.6515 210.454 57.6515C211.171 57.148 212.524 56.492 213.699 56.492C216.307 56.492 216.536 58.2109 216.536 60.1637V65.768C216.536 66.0019 216.46 66.1342 216.17 66.1342H216.18ZM214.233 52.4337C214.446 52.5507 214.426 52.7033 214.309 52.8609L212.356 55.5664C212.239 55.7037 212.163 55.7597 211.97 55.6834L211.217 55.3376C211.08 55.2613 211.044 55.1647 211.12 54.9714L212.666 51.976C212.763 51.7828 212.915 51.7828 213.093 51.8591L214.233 52.4388V52.4337Z"
    fill="#58595B"
  />
</svg>
