<svg
  width="291"
  height="72"
  viewBox="0 0 291 72"
  fill="none"
  xmlns="http://www.w3.org/2000/svg"
>
<path
    fill-rule="evenodd"
    clip-rule="evenodd"
    d="M266.4 66.7H269.7V28H266.4V66.7Z"
    fill="#004494"
  />
<path
    d="M145.394 33.3463C145.394 33.0796 145.528 32.9463 145.794 32.9463H153.154C153.408 32.9463 153.534 33.073 153.534 33.3263V34.5663C153.534 34.8063 153.401 34.9263 153.134 34.9263H147.674V38.3663H152.514C152.781 38.3663 152.914 38.4863 152.914 38.7263V39.9663C152.914 40.2063 152.781 40.3263 152.514 40.3263H147.674V44.2663H153.274C153.514 44.2663 153.634 44.393 153.634 44.6463V45.8663C153.634 46.1063 153.508 46.2263 153.254 46.2263H145.794C145.528 46.2263 145.394 46.1063 145.394 45.8663V33.3463Z"
    fill="#626366"
  />
<path
    d="M164.101 45.8463C164.101 46.0996 163.974 46.2263 163.721 46.2263H162.301C162.154 46.2263 162.054 46.193 162.001 46.1263C161.947 46.0596 161.921 45.9663 161.921 45.8463V45.2263L161.881 45.2063C161.681 45.3396 161.447 45.4796 161.181 45.6263C160.927 45.7596 160.654 45.8863 160.361 46.0063C160.067 46.1263 159.761 46.2196 159.441 46.2863C159.134 46.3663 158.827 46.4063 158.521 46.4063C157.841 46.4063 157.301 46.313 156.901 46.1263C156.514 45.9396 156.221 45.6796 156.021 45.3463C155.821 45.013 155.694 44.6196 155.641 44.1663C155.587 43.713 155.561 43.2263 155.561 42.7063V36.8263C155.561 36.5596 155.687 36.4263 155.941 36.4263H157.401C157.641 36.4263 157.761 36.5596 157.761 36.8263V42.4463C157.761 42.753 157.781 43.0263 157.821 43.2663C157.861 43.5063 157.934 43.713 158.041 43.8863C158.147 44.0463 158.294 44.173 158.481 44.2663C158.667 44.3596 158.914 44.4063 159.221 44.4063C159.434 44.4063 159.667 44.373 159.921 44.3063C160.187 44.2396 160.447 44.1596 160.701 44.0663C160.954 43.9596 161.187 43.8596 161.401 43.7663C161.614 43.6596 161.787 43.573 161.921 43.5063V36.8263C161.921 36.7063 161.947 36.613 162.001 36.5463C162.054 36.4663 162.154 36.4263 162.301 36.4263H163.721C163.974 36.4263 164.101 36.5596 164.101 36.8263V45.8463Z"
    fill="#626366"
  />
<path
    d="M168.806 45.8463C168.806 46.0996 168.679 46.2263 168.426 46.2263H166.986C166.732 46.2263 166.606 46.0996 166.606 45.8463V36.8263C166.606 36.5596 166.732 36.4263 166.986 36.4263H168.406C168.672 36.4263 168.806 36.5596 168.806 36.8263V37.7063L168.846 37.7463C168.992 37.613 169.186 37.473 169.426 37.3263C169.666 37.1663 169.919 37.0263 170.186 36.9063C170.466 36.773 170.746 36.653 171.026 36.5463C171.306 36.4396 171.566 36.3663 171.806 36.3263C171.939 36.2996 172.046 36.3063 172.126 36.3463C172.206 36.3863 172.259 36.493 172.286 36.6663L172.426 38.0063C172.439 38.153 172.432 38.2596 172.406 38.3263C172.379 38.393 172.259 38.4463 172.046 38.4863C171.766 38.5396 171.472 38.6063 171.166 38.6863C170.859 38.753 170.559 38.833 170.266 38.9263C169.972 39.0063 169.699 39.0863 169.446 39.1663C169.192 39.2463 168.979 39.3263 168.806 39.4063V45.8463Z"
    fill="#626366"
  />
<path
    d="M182.031 41.1663C182.031 41.7396 181.991 42.333 181.911 42.9463C181.844 43.5596 181.664 44.1263 181.371 44.6463C181.077 45.153 180.637 45.573 180.051 45.9063C179.464 46.2263 178.651 46.3863 177.611 46.3863C176.611 46.3863 175.824 46.2263 175.251 45.9063C174.677 45.573 174.244 45.153 173.951 44.6463C173.671 44.1263 173.497 43.5596 173.431 42.9463C173.364 42.333 173.331 41.7396 173.331 41.1663C173.331 40.6996 173.371 40.1796 173.451 39.6063C173.544 39.033 173.737 38.4996 174.031 38.0063C174.324 37.4996 174.751 37.0796 175.311 36.7463C175.884 36.3996 176.651 36.2263 177.611 36.2263C178.584 36.2263 179.357 36.373 179.931 36.6663C180.517 36.9596 180.964 37.3463 181.271 37.8263C181.577 38.293 181.777 38.8196 181.871 39.4063C181.977 39.993 182.031 40.5796 182.031 41.1663ZM179.791 41.3063C179.791 40.773 179.764 40.313 179.711 39.9263C179.657 39.5263 179.551 39.1996 179.391 38.9463C179.231 38.6796 179.011 38.4796 178.731 38.3463C178.451 38.213 178.084 38.1463 177.631 38.1463C177.204 38.1463 176.857 38.213 176.591 38.3463C176.324 38.4796 176.111 38.6796 175.951 38.9463C175.804 39.213 175.697 39.5463 175.631 39.9463C175.577 40.333 175.551 40.7863 175.551 41.3063C175.551 41.8396 175.577 42.3063 175.631 42.7063C175.697 43.093 175.804 43.4196 175.951 43.6863C176.097 43.9396 176.304 44.133 176.571 44.2663C176.837 44.3996 177.184 44.4663 177.611 44.4663C178.064 44.4663 178.431 44.4063 178.711 44.2863C179.004 44.153 179.231 43.9596 179.391 43.7063C179.551 43.4396 179.657 43.1063 179.711 42.7063C179.764 42.3063 179.791 41.8396 179.791 41.3063Z"
    fill="#626366"
  />
<path
    d="M192.64 41.2663C192.64 42.0796 192.58 42.8063 192.46 43.4463C192.34 44.0863 192.126 44.6263 191.82 45.0663C191.526 45.5063 191.12 45.8396 190.6 46.0663C190.093 46.293 189.446 46.4063 188.66 46.4063C188.326 46.4063 187.94 46.373 187.5 46.3063C187.073 46.2396 186.626 46.1263 186.16 45.9663L186.14 45.9863V49.5063C186.14 49.613 186.113 49.7063 186.06 49.7863C186.02 49.8663 185.92 49.9063 185.76 49.9063H184.34C184.18 49.9063 184.073 49.873 184.02 49.8063C183.98 49.7396 183.96 49.6396 183.96 49.5063V36.8263C183.96 36.5596 184.086 36.4263 184.34 36.4263H185.76C185.906 36.4263 186 36.4663 186.04 36.5463C186.093 36.613 186.12 36.7063 186.12 36.8263V37.4263L186.18 37.4663C186.353 37.3463 186.56 37.2196 186.8 37.0863C187.053 36.9396 187.32 36.8063 187.6 36.6863C187.88 36.5663 188.166 36.4663 188.46 36.3863C188.753 36.3063 189.046 36.2663 189.34 36.2663C189.993 36.2663 190.533 36.3863 190.96 36.6263C191.386 36.8663 191.72 37.2063 191.96 37.6463C192.213 38.073 192.386 38.593 192.48 39.2063C192.586 39.8196 192.64 40.5063 192.64 41.2663ZM190.38 41.2463C190.38 40.6063 190.346 40.093 190.28 39.7063C190.226 39.3196 190.133 39.0196 190 38.8063C189.866 38.593 189.7 38.453 189.5 38.3863C189.313 38.3063 189.086 38.2663 188.82 38.2663C188.62 38.2663 188.393 38.2996 188.14 38.3663C187.886 38.433 187.633 38.513 187.38 38.6063C187.14 38.6863 186.906 38.7796 186.68 38.8863C186.466 38.993 186.286 39.0863 186.14 39.1663V44.1663C186.593 44.2996 187 44.393 187.36 44.4463C187.733 44.4863 188.093 44.5063 188.44 44.5063C188.8 44.5063 189.1 44.4596 189.34 44.3663C189.593 44.2596 189.793 44.0796 189.94 43.8263C190.1 43.573 190.213 43.2396 190.28 42.8263C190.346 42.3996 190.38 41.873 190.38 41.2463Z"
    fill="#626366"
  />
<path
    d="M200.489 41.7663H198.049C197.543 41.7663 197.143 41.8863 196.849 42.1263C196.556 42.353 196.409 42.793 196.409 43.4463C196.409 43.8863 196.496 44.193 196.669 44.3663C196.856 44.5263 197.183 44.6063 197.649 44.6063C197.863 44.6063 198.096 44.5796 198.349 44.5263C198.603 44.473 198.856 44.3996 199.109 44.3063C199.363 44.213 199.609 44.113 199.849 44.0063C200.089 43.8863 200.303 43.773 200.489 43.6663V41.7663ZM200.609 45.0863C200.103 45.473 199.529 45.7863 198.889 46.0263C198.263 46.2663 197.609 46.3863 196.929 46.3863C196.396 46.3863 195.949 46.3196 195.589 46.1863C195.243 46.0396 194.963 45.8463 194.749 45.6063C194.549 45.353 194.403 45.053 194.309 44.7063C194.229 44.3596 194.189 43.973 194.189 43.5463C194.176 42.373 194.483 41.5263 195.109 41.0063C195.736 40.473 196.683 40.2063 197.949 40.2063H200.509V39.6863C200.509 39.393 200.476 39.1463 200.409 38.9463C200.356 38.733 200.249 38.5596 200.089 38.4263C199.929 38.293 199.716 38.1996 199.449 38.1463C199.183 38.093 198.843 38.0663 198.429 38.0663C198.269 38.0663 198.069 38.073 197.829 38.0863C197.603 38.0996 197.363 38.113 197.109 38.1263C196.869 38.1396 196.623 38.1596 196.369 38.1863C196.129 38.213 195.909 38.233 195.709 38.2463C195.509 38.273 195.369 38.2796 195.289 38.2663C195.223 38.2396 195.176 38.153 195.149 38.0063L194.969 37.2663C194.943 37.133 194.956 37.0263 195.009 36.9463C195.063 36.853 195.203 36.7596 195.429 36.6663C195.643 36.5863 195.896 36.5196 196.189 36.4663C196.483 36.413 196.783 36.373 197.089 36.3463C197.396 36.3063 197.696 36.2796 197.989 36.2663C198.296 36.2396 198.569 36.2263 198.809 36.2263C199.676 36.2263 200.363 36.313 200.869 36.4863C201.389 36.6596 201.783 36.9063 202.049 37.2263C202.316 37.533 202.489 37.913 202.569 38.3663C202.649 38.8196 202.689 39.3263 202.689 39.8863V43.7463C202.689 43.9463 202.696 44.1063 202.709 44.2263C202.736 44.333 202.769 44.4196 202.809 44.4863C202.863 44.5396 202.936 44.5796 203.029 44.6063C203.123 44.633 203.249 44.653 203.409 44.6663C203.556 44.6796 203.656 44.7063 203.709 44.7463C203.763 44.7863 203.789 44.8596 203.789 44.9663V45.8063C203.789 46.033 203.629 46.173 203.309 46.2263C203.149 46.253 202.989 46.273 202.829 46.2863C202.669 46.313 202.516 46.3263 202.369 46.3263C201.903 46.3263 201.523 46.2396 201.229 46.0663C200.949 45.893 200.756 45.573 200.649 45.1063L200.609 45.0863Z"
    fill="#626366"
  />
<path
    d="M147.634 60.0462L149.174 58.4262L150.834 56.7462C150.941 56.6395 151.041 56.5595 151.134 56.5062C151.228 56.4395 151.368 56.4062 151.554 56.4062H153.154C153.341 56.4062 153.448 56.4529 153.474 56.5462C153.514 56.6395 153.481 56.7462 153.374 56.8662L150.174 60.1262L153.774 65.7662C153.841 65.8862 153.848 65.9929 153.794 66.0862C153.754 66.1795 153.661 66.2262 153.514 66.2262H151.974C151.761 66.2262 151.608 66.1929 151.514 66.1262C151.421 66.0595 151.341 65.9662 151.274 65.8462L148.714 61.7462L147.574 62.9062V65.8462C147.574 65.9529 147.548 66.0462 147.494 66.1262C147.441 66.1929 147.341 66.2262 147.194 66.2262H145.774C145.521 66.2262 145.394 66.0995 145.394 65.8462V52.5062C145.394 52.2395 145.521 52.1062 145.774 52.1062H147.194C147.341 52.1062 147.441 52.1462 147.494 52.2262C147.548 52.2929 147.574 52.3862 147.574 52.5062V60.0262L147.634 60.0462Z"
    fill="#626366"
  />
<path
    d="M163.327 61.1662C163.327 61.7395 163.287 62.3329 163.207 62.9462C163.14 63.5595 162.96 64.1262 162.667 64.6462C162.374 65.1529 161.934 65.5729 161.347 65.9062C160.76 66.2262 159.947 66.3862 158.907 66.3862C157.907 66.3862 157.12 66.2262 156.547 65.9062C155.974 65.5729 155.54 65.1529 155.247 64.6462C154.967 64.1262 154.794 63.5595 154.727 62.9462C154.66 62.3329 154.627 61.7395 154.627 61.1662C154.627 60.6995 154.667 60.1795 154.747 59.6062C154.84 59.0329 155.034 58.4995 155.327 58.0062C155.62 57.4995 156.047 57.0795 156.607 56.7462C157.18 56.3995 157.947 56.2262 158.907 56.2262C159.88 56.2262 160.654 56.3729 161.227 56.6662C161.814 56.9595 162.26 57.3462 162.567 57.8262C162.874 58.2929 163.074 58.8195 163.167 59.4062C163.274 59.9929 163.327 60.5795 163.327 61.1662ZM161.087 61.3062C161.087 60.7729 161.06 60.3129 161.007 59.9262C160.954 59.5262 160.847 59.1995 160.687 58.9462C160.527 58.6795 160.307 58.4795 160.027 58.3462C159.747 58.2129 159.38 58.1462 158.927 58.1462C158.5 58.1462 158.154 58.2129 157.887 58.3462C157.62 58.4795 157.407 58.6795 157.247 58.9462C157.1 59.2129 156.994 59.5462 156.927 59.9462C156.874 60.3329 156.847 60.7862 156.847 61.3062C156.847 61.8395 156.874 62.3062 156.927 62.7062C156.994 63.0929 157.1 63.4195 157.247 63.6862C157.394 63.9395 157.6 64.1329 157.867 64.2662C158.134 64.3995 158.48 64.4662 158.907 64.4662C159.36 64.4662 159.727 64.4062 160.007 64.2862C160.3 64.1529 160.527 63.9595 160.687 63.7062C160.847 63.4395 160.954 63.1062 161.007 62.7062C161.06 62.3062 161.087 61.8395 161.087 61.3062Z"
    fill="#626366"
  />
<path
    d="M179.616 65.8462C179.616 65.9662 179.589 66.0595 179.536 66.1262C179.496 66.1929 179.402 66.2262 179.256 66.2262H177.816C177.562 66.2262 177.436 66.0995 177.436 65.8462V60.1662C177.436 59.4195 177.336 58.9195 177.136 58.6662C176.936 58.3995 176.582 58.2662 176.076 58.2662C175.889 58.2662 175.676 58.2995 175.436 58.3662C175.209 58.4329 174.976 58.5129 174.736 58.6062C174.509 58.6862 174.289 58.7795 174.076 58.8862C173.862 58.9929 173.676 59.0862 173.516 59.1662C173.516 59.2729 173.516 59.4129 173.516 59.5862C173.529 59.7595 173.536 59.9595 173.536 60.1862V65.8462C173.536 65.9662 173.509 66.0595 173.456 66.1262C173.402 66.1929 173.302 66.2262 173.156 66.2262H171.696C171.469 66.2262 171.356 66.0995 171.356 65.8462V60.0662C171.356 59.4529 171.262 58.9995 171.076 58.7062C170.889 58.4129 170.542 58.2662 170.036 58.2662C169.862 58.2662 169.662 58.2929 169.436 58.3462C169.222 58.3995 168.996 58.4729 168.756 58.5662C168.529 58.6595 168.302 58.7595 168.076 58.8662C167.849 58.9729 167.642 59.0729 167.456 59.1662V65.8462C167.456 66.0995 167.329 66.2262 167.076 66.2262H165.636C165.396 66.2262 165.276 66.0995 165.276 65.8462V56.8262C165.276 56.5595 165.396 56.4262 165.636 56.4262H167.056C167.322 56.4262 167.456 56.5595 167.456 56.8262V57.4062L167.476 57.4262C167.676 57.2929 167.889 57.1595 168.116 57.0262C168.342 56.8795 168.582 56.7529 168.836 56.6462C169.102 56.5395 169.369 56.4529 169.636 56.3862C169.902 56.3062 170.176 56.2595 170.456 56.2462C171.029 56.2462 171.549 56.3395 172.016 56.5262C172.496 56.6995 172.889 57.0729 173.196 57.6462C173.702 57.2729 174.256 56.9462 174.856 56.6662C175.456 56.3862 176.076 56.2462 176.716 56.2462C177.369 56.2462 177.889 56.3462 178.276 56.5462C178.662 56.7462 178.956 57.0195 179.156 57.3662C179.356 57.6995 179.482 58.0929 179.536 58.5462C179.589 58.9995 179.616 59.4729 179.616 59.9662V65.8462Z"
    fill="#626366"
  />
<path
    d="M196.1 65.8462C196.1 65.9662 196.073 66.0595 196.02 66.1262C195.98 66.1929 195.887 66.2262 195.74 66.2262H194.3C194.047 66.2262 193.92 66.0995 193.92 65.8462V60.1662C193.92 59.4195 193.82 58.9195 193.62 58.6662C193.42 58.3995 193.067 58.2662 192.56 58.2662C192.373 58.2662 192.16 58.2995 191.92 58.3662C191.693 58.4329 191.46 58.5129 191.22 58.6062C190.993 58.6862 190.773 58.7795 190.56 58.8862C190.347 58.9929 190.16 59.0862 190 59.1662C190 59.2729 190 59.4129 190 59.5862C190.013 59.7595 190.02 59.9595 190.02 60.1862V65.8462C190.02 65.9662 189.993 66.0595 189.94 66.1262C189.887 66.1929 189.787 66.2262 189.64 66.2262H188.18C187.953 66.2262 187.84 66.0995 187.84 65.8462V60.0662C187.84 59.4529 187.747 58.9995 187.56 58.7062C187.373 58.4129 187.027 58.2662 186.52 58.2662C186.347 58.2662 186.147 58.2929 185.92 58.3462C185.707 58.3995 185.48 58.4729 185.24 58.5662C185.013 58.6595 184.787 58.7595 184.56 58.8662C184.333 58.9729 184.127 59.0729 183.94 59.1662V65.8462C183.94 66.0995 183.813 66.2262 183.56 66.2262H182.12C181.88 66.2262 181.76 66.0995 181.76 65.8462V56.8262C181.76 56.5595 181.88 56.4262 182.12 56.4262H183.54C183.807 56.4262 183.94 56.5595 183.94 56.8262V57.4062L183.96 57.4262C184.16 57.2929 184.373 57.1595 184.6 57.0262C184.827 56.8795 185.067 56.7529 185.32 56.6462C185.587 56.5395 185.853 56.4529 186.12 56.3862C186.387 56.3062 186.66 56.2595 186.94 56.2462C187.513 56.2462 188.033 56.3395 188.5 56.5262C188.98 56.6995 189.373 57.0729 189.68 57.6462C190.187 57.2729 190.74 56.9462 191.34 56.6662C191.94 56.3862 192.56 56.2462 193.2 56.2462C193.853 56.2462 194.373 56.3462 194.76 56.5462C195.147 56.7462 195.44 57.0195 195.64 57.3662C195.84 57.6995 195.967 58.0929 196.02 58.5462C196.073 58.9995 196.1 59.4729 196.1 59.9662V65.8462Z"
    fill="#626366"
  />
<path
    d="M200.844 53.8262C200.844 53.9862 200.831 54.1395 200.804 54.2862C200.778 54.4195 200.718 54.5395 200.624 54.6462C200.544 54.7529 200.424 54.8395 200.264 54.9062C200.118 54.9595 199.918 54.9862 199.664 54.9862C199.398 54.9862 199.184 54.9529 199.024 54.8862C198.878 54.8195 198.764 54.7329 198.684 54.6262C198.604 54.5195 198.551 54.3995 198.524 54.2662C198.498 54.1195 198.484 53.9729 198.484 53.8262C198.484 53.5062 198.558 53.2395 198.704 53.0262C198.864 52.7995 199.184 52.6862 199.664 52.6862C200.158 52.6862 200.478 52.7929 200.624 53.0062C200.771 53.2062 200.844 53.4795 200.844 53.8262ZM200.724 65.8462C200.724 65.9529 200.698 66.0462 200.644 66.1262C200.604 66.1929 200.511 66.2262 200.364 66.2262H198.944C198.678 66.2262 198.544 66.0995 198.544 65.8462V56.8062C198.544 56.5529 198.678 56.4262 198.944 56.4262H200.364C200.511 56.4262 200.604 56.4662 200.644 56.5462C200.698 56.6129 200.724 56.6995 200.724 56.8062V65.8462Z"
    fill="#626366"
  />
<path
    d="M210.526 63.2862C210.526 63.8729 210.412 64.3662 210.186 64.7662C209.959 65.1529 209.652 65.4662 209.266 65.7062C208.892 65.9462 208.466 66.1195 207.986 66.2262C207.506 66.3329 207.006 66.3862 206.486 66.3862C205.979 66.3862 205.432 66.3462 204.846 66.2662C204.259 66.1995 203.772 66.0929 203.386 65.9462C203.186 65.8662 203.059 65.7795 203.006 65.6862C202.952 65.5795 202.939 65.4462 202.966 65.2862L203.106 64.6262C203.132 64.4662 203.186 64.3729 203.266 64.3462C203.346 64.3062 203.466 64.2995 203.626 64.3262C203.839 64.3662 204.072 64.3995 204.326 64.4262C204.592 64.4529 204.852 64.4795 205.106 64.5062C205.372 64.5195 205.619 64.5329 205.846 64.5462C206.086 64.5595 206.292 64.5662 206.466 64.5662C207.106 64.5662 207.566 64.4795 207.846 64.3062C208.126 64.1195 208.266 63.8262 208.266 63.4262C208.266 63.1995 208.239 63.0129 208.186 62.8662C208.146 62.7195 208.066 62.5995 207.946 62.5062C207.826 62.4129 207.659 62.3395 207.446 62.2862C207.246 62.2195 206.986 62.1662 206.666 62.1262C206.172 62.0595 205.706 61.9729 205.266 61.8662C204.826 61.7595 204.432 61.6062 204.086 61.4062C203.752 61.1929 203.486 60.9195 203.286 60.5862C203.086 60.2395 202.986 59.7929 202.986 59.2462C202.986 58.2595 203.332 57.5129 204.026 57.0062C204.719 56.4862 205.626 56.2262 206.746 56.2262C206.946 56.2262 207.179 56.2329 207.446 56.2462C207.712 56.2595 207.979 56.2862 208.246 56.3262C208.526 56.3662 208.799 56.4129 209.066 56.4662C209.332 56.5195 209.572 56.5862 209.786 56.6662C210.119 56.7995 210.259 56.9995 210.206 57.2662L210.046 57.9862C210.019 58.1329 209.966 58.2262 209.886 58.2662C209.819 58.2929 209.692 58.2929 209.506 58.2662C209.079 58.2129 208.612 58.1662 208.106 58.1262C207.599 58.0729 207.159 58.0462 206.786 58.0462C206.146 58.0462 205.719 58.1395 205.506 58.3262C205.306 58.4995 205.206 58.7795 205.206 59.1662C205.206 59.5529 205.332 59.8062 205.586 59.9262C205.852 60.0462 206.292 60.1529 206.906 60.2462C207.386 60.3129 207.839 60.3995 208.266 60.5062C208.706 60.6129 209.092 60.7729 209.426 60.9862C209.759 61.1995 210.026 61.4862 210.226 61.8462C210.426 62.2062 210.526 62.6862 210.526 63.2862Z"
    fill="#626366"
  />
<path
    d="M215.145 66.4462C215.145 67.0995 215.072 67.6729 214.925 68.1662C214.779 68.6729 214.525 69.0929 214.165 69.4262C213.819 69.7729 213.359 70.0262 212.785 70.1862C212.225 70.3462 211.525 70.4129 210.685 70.3862C210.619 70.3862 210.532 70.3595 210.425 70.3062C210.319 70.2529 210.259 70.1462 210.245 69.9862L210.165 69.0462C210.139 68.8862 210.152 68.7795 210.205 68.7262C210.245 68.6729 210.339 68.6329 210.485 68.6062C210.952 68.5129 211.339 68.4195 211.645 68.3262C211.965 68.2462 212.219 68.1329 212.405 67.9862C212.605 67.8395 212.745 67.6462 212.825 67.4062C212.905 67.1795 212.945 66.8729 212.945 66.4862V56.8062C212.945 56.5529 213.079 56.4262 213.345 56.4262H214.745C215.012 56.4262 215.145 56.5529 215.145 56.8062V66.4462ZM215.225 53.8262C215.225 53.9862 215.212 54.1395 215.185 54.2862C215.159 54.4195 215.099 54.5395 215.005 54.6462C214.925 54.7529 214.805 54.8395 214.645 54.9062C214.499 54.9595 214.299 54.9862 214.045 54.9862C213.779 54.9862 213.565 54.9529 213.405 54.8862C213.259 54.8195 213.145 54.7329 213.065 54.6262C212.985 54.5195 212.932 54.3995 212.905 54.2662C212.879 54.1195 212.865 53.9729 212.865 53.8262C212.865 53.5062 212.945 53.2395 213.105 53.0262C213.265 52.7995 213.579 52.6862 214.045 52.6862C214.539 52.6862 214.859 52.7929 215.005 53.0062C215.152 53.2062 215.225 53.4795 215.225 53.8262Z"
    fill="#626366"
  />
<path
    d="M226.139 61.1662C226.139 61.7395 226.099 62.3329 226.019 62.9462C225.953 63.5595 225.773 64.1262 225.479 64.6462C225.186 65.1529 224.746 65.5729 224.159 65.9062C223.573 66.2262 222.759 66.3862 221.719 66.3862C220.719 66.3862 219.933 66.2262 219.359 65.9062C218.786 65.5729 218.353 65.1529 218.059 64.6462C217.779 64.1262 217.606 63.5595 217.539 62.9462C217.473 62.3329 217.439 61.7395 217.439 61.1662C217.439 60.6995 217.479 60.1795 217.559 59.6062C217.653 59.0329 217.846 58.4995 218.139 58.0062C218.433 57.4995 218.859 57.0795 219.419 56.7462C219.993 56.3995 220.759 56.2262 221.719 56.2262C222.693 56.2262 223.466 56.3729 224.039 56.6662C224.626 56.9595 225.073 57.3462 225.379 57.8262C225.686 58.2929 225.886 58.8195 225.979 59.4062C226.086 59.9929 226.139 60.5795 226.139 61.1662ZM223.899 61.3062C223.899 60.7729 223.873 60.3129 223.819 59.9262C223.766 59.5262 223.659 59.1995 223.499 58.9462C223.339 58.6795 223.119 58.4795 222.839 58.3462C222.559 58.2129 222.193 58.1462 221.739 58.1462C221.313 58.1462 220.966 58.2129 220.699 58.3462C220.433 58.4795 220.219 58.6795 220.059 58.9462C219.913 59.2129 219.806 59.5462 219.739 59.9462C219.686 60.3329 219.659 60.7862 219.659 61.3062C219.659 61.8395 219.686 62.3062 219.739 62.7062C219.806 63.0929 219.913 63.4195 220.059 63.6862C220.206 63.9395 220.413 64.1329 220.679 64.2662C220.946 64.3995 221.293 64.4662 221.719 64.4662C222.173 64.4662 222.539 64.4062 222.819 64.2862C223.113 64.1529 223.339 63.9595 223.499 63.7062C223.659 63.4395 223.766 63.1062 223.819 62.7062C223.873 62.3062 223.899 61.8395 223.899 61.3062Z"
    fill="#626366"
  />
<path
    d="M236.568 65.8462C236.568 65.9662 236.541 66.0595 236.488 66.1262C236.435 66.1929 236.335 66.2262 236.188 66.2262H234.748C234.495 66.2262 234.368 66.0995 234.368 65.8462L234.388 60.2262C234.388 59.6395 234.288 59.1662 234.088 58.8062C233.901 58.4462 233.521 58.2662 232.948 58.2662C232.748 58.2662 232.515 58.2995 232.248 58.3662C231.995 58.4329 231.735 58.5195 231.468 58.6262C231.215 58.7195 230.975 58.8195 230.748 58.9262C230.521 59.0195 230.341 59.0995 230.208 59.1662V65.8462C230.208 66.0995 230.081 66.2262 229.828 66.2262H228.408C228.155 66.2262 228.028 66.0995 228.028 65.8462V56.8262C228.028 56.5595 228.155 56.4262 228.408 56.4262H229.828C230.081 56.4262 230.208 56.5595 230.208 56.8262V57.4262C230.221 57.4262 230.228 57.4329 230.228 57.4462C230.241 57.4462 230.255 57.4462 230.268 57.4462C230.455 57.3129 230.675 57.1795 230.928 57.0462C231.195 56.8995 231.475 56.7662 231.768 56.6462C232.061 56.5262 232.368 56.4329 232.688 56.3662C233.008 56.2862 233.321 56.2462 233.628 56.2462C234.308 56.2462 234.841 56.3529 235.228 56.5662C235.615 56.7662 235.908 57.0395 236.108 57.3862C236.308 57.7329 236.435 58.1395 236.488 58.6062C236.541 59.0595 236.568 59.5395 236.568 60.0462V65.8462Z"
    fill="#626366"
  />
<path
    d="M240.735 61.9262C240.748 62.4329 240.801 62.8529 240.895 63.1862C241.001 63.5195 241.155 63.7862 241.355 63.9862C241.555 64.1729 241.801 64.3062 242.095 64.3862C242.388 64.4662 242.741 64.5062 243.155 64.5062C243.515 64.5062 243.941 64.4795 244.435 64.4262C244.928 64.3729 245.368 64.3262 245.755 64.2862C245.941 64.2595 246.068 64.2662 246.135 64.3062C246.215 64.3329 246.268 64.4395 246.295 64.6262L246.415 65.2862C246.441 65.4329 246.435 65.5529 246.395 65.6462C246.368 65.7395 246.261 65.8262 246.075 65.9062C245.875 65.9862 245.641 66.0595 245.375 66.1262C245.108 66.1795 244.828 66.2262 244.535 66.2662C244.241 66.3062 243.948 66.3395 243.655 66.3662C243.361 66.3929 243.095 66.4062 242.855 66.4062C241.895 66.4062 241.128 66.2662 240.555 65.9862C239.981 65.7062 239.541 65.3329 239.235 64.8662C238.928 64.3995 238.721 63.8662 238.615 63.2662C238.521 62.6529 238.475 62.0195 238.475 61.3662C238.475 60.8862 238.515 60.3462 238.595 59.7462C238.675 59.1462 238.855 58.5862 239.135 58.0662C239.428 57.5462 239.855 57.1129 240.415 56.7662C240.988 56.4062 241.761 56.2262 242.735 56.2262C243.628 56.2262 244.348 56.3595 244.895 56.6262C245.455 56.8929 245.888 57.2395 246.195 57.6662C246.501 58.0795 246.708 58.5595 246.815 59.1062C246.935 59.6395 247.001 60.1729 247.015 60.7062C247.028 61.0662 246.968 61.3595 246.835 61.5862C246.701 61.8129 246.435 61.9262 246.035 61.9262H240.735ZM242.735 58.0262C242.361 58.0262 242.055 58.0795 241.815 58.1862C241.575 58.2929 241.375 58.4529 241.215 58.6662C241.068 58.8662 240.961 59.1195 240.895 59.4262C240.828 59.7195 240.781 60.0529 240.755 60.4262H244.715C244.715 60.1195 244.688 59.8262 244.635 59.5462C244.581 59.2529 244.481 58.9929 244.335 58.7662C244.201 58.5395 244.001 58.3595 243.735 58.2262C243.481 58.0929 243.148 58.0262 242.735 58.0262Z"
    fill="#626366"
  />
<path
    d="M257.291 65.8462C257.291 65.9662 257.264 66.0595 257.211 66.1262C257.157 66.1929 257.057 66.2262 256.911 66.2262H255.471C255.217 66.2262 255.091 66.0995 255.091 65.8462L255.111 60.2262C255.111 59.6395 255.011 59.1662 254.811 58.8062C254.624 58.4462 254.244 58.2662 253.671 58.2662C253.471 58.2662 253.237 58.2995 252.971 58.3662C252.717 58.4329 252.457 58.5195 252.191 58.6262C251.937 58.7195 251.697 58.8195 251.471 58.9262C251.244 59.0195 251.064 59.0995 250.931 59.1662V65.8462C250.931 66.0995 250.804 66.2262 250.551 66.2262H249.131C248.877 66.2262 248.751 66.0995 248.751 65.8462V56.8262C248.751 56.5595 248.877 56.4262 249.131 56.4262H250.551C250.804 56.4262 250.931 56.5595 250.931 56.8262V57.4262C250.944 57.4262 250.951 57.4329 250.951 57.4462C250.964 57.4462 250.977 57.4462 250.991 57.4462C251.177 57.3129 251.397 57.1795 251.651 57.0462C251.917 56.8995 252.197 56.7662 252.491 56.6462C252.784 56.5262 253.091 56.4329 253.411 56.3662C253.731 56.2862 254.044 56.2462 254.351 56.2462C255.031 56.2462 255.564 56.3529 255.951 56.5662C256.337 56.7662 256.631 57.0395 256.831 57.3862C257.031 57.7329 257.157 58.1395 257.211 58.6062C257.264 59.0595 257.291 59.5395 257.291 60.0462V65.8462Z"
    fill="#626366"
  />
<path
    d="M86.9932 27.541H86.9369H28.567V66.1905H86.9369H86.9932V27.541Z"
    fill="#003399"
  />
<path
    d="M58.3093 33.3809H60.3442L58.703 34.6449L59.3421 36.6472L57.711 35.4135L56.08 36.6472L56.7191 34.6449L55.0676 33.3809H57.0975L57.711 31.4292L58.3093 33.3809Z"
    fill="#FFED00"
  />
<path
    d="M58.3808 59.1573H60.4158L58.7796 60.3759L59.4137 62.3023L57.7826 61.1141L56.1516 62.3023L56.7958 60.3759L55.1392 59.1573H57.1691L57.7826 57.2815L58.3808 59.1573Z"
    fill="#FFED00"
  />
<path
    d="M64.8283 57.4534H66.8684L65.2271 58.6669L65.8663 60.5933L64.2301 59.4051L62.5991 60.5933L63.2433 58.6669L61.5867 57.4534H63.6165L64.2301 55.5725L64.8283 57.4534Z"
    fill="#FFED00"
  />
<path
    d="M64.8283 35.1H66.8684L65.2271 36.3185L65.8663 38.2449L64.2301 37.0567L62.5991 38.2449L63.2433 36.3185L61.5867 35.1H63.6165L64.2301 33.2241L64.8283 35.1Z"
    fill="#FFED00"
  />
<path
    d="M69.6192 39.8377H71.6491L70.0129 41.0512L70.6469 42.9776L69.0159 41.7894L67.3848 42.9776L68.0291 41.0512L66.3724 39.8377H68.4023L69.0159 37.9568L69.6192 39.8377Z"
    fill="#FFED00"
  />
<path
    d="M69.6192 52.7814H71.6491L70.0129 53.9999L70.6469 55.9263L69.0159 54.7381L67.3848 55.9263L68.0291 53.9999L66.3724 52.7814H68.4023L69.0159 50.9055L69.6192 52.7814Z"
    fill="#FFED00"
  />
<path
    d="M71.4087 46.2084H73.4488L71.8076 47.4269L72.4467 49.3533L70.8105 48.1651L69.1795 49.3533L69.8237 47.4269L68.1671 46.2084H70.197L70.8105 44.3325L71.4087 46.2084Z"
    fill="#FFED00"
  />
<path
    d="M51.7391 35.1202H53.7689L52.1328 36.3336L52.7668 38.26L51.1357 37.0718L49.5047 38.26L50.1489 36.3336L48.4974 35.1202H50.5222L51.1357 33.2393L51.7391 35.1202Z"
    fill="#FFED00"
  />
<path
    d="M47.0811 39.8528H49.1212L47.4799 41.0663L48.1139 42.9927L46.4829 41.8045L44.8518 42.9927L45.4961 41.0663L43.8395 39.8528H45.8693L46.4829 37.9719L47.0811 39.8528Z"
    fill="#FFED00"
  />
<path
    d="M45.3529 46.2286H47.3879L45.7517 47.442L46.3857 49.3685L44.7547 48.1853L43.1237 49.3685L43.7679 47.442L42.1164 46.2286H44.1411L44.7547 44.3477L45.3529 46.2286Z"
    fill="#FFED00"
  />
<path
    d="M47.0811 52.7967H49.1212L47.4799 54.0153L48.1139 55.9417L46.4829 54.7535L44.8518 55.9417L45.4961 54.0153L43.8395 52.7967H45.8693L46.4829 50.9209L47.0811 52.7967Z"
    fill="#FFED00"
  />
<path
    d="M51.8055 57.4685H53.8354L52.1992 58.682L52.8332 60.6084L51.2022 59.4202L49.5711 60.6084L50.2154 58.682L48.5639 57.4685H50.5886L51.2022 55.5876L51.8055 57.4685Z"
    fill="#FFED00"
  />
<path
    d="M95.8693 0.00505726C95.8693 0.00505726 107.869 18.9101 110.068 22.3736C112.262 25.8371 114.772 28.5826 123.653 30.4433C132.535 32.304 136.4 33.1837 136.4 33.1837V33.8562C136.4 33.8562 130.755 32.668 123.495 31.0652C116.234 29.4624 113.264 28.9214 109.956 24.3657C107.2 20.5736 95.8693 3.61517 95.8693 3.61517V0V0.00505726Z"
    fill="#6D6E70"
  />
<path
    d="M95.8693 21.5949C95.8693 21.5949 106.796 32.9157 109.956 36.1668C113.31 39.6151 117.6 40.8893 123.551 41.941C129.232 42.9421 136.395 44.1 136.395 44.1V44.7371C136.395 44.7371 129.666 43.6449 123.551 42.6135C117.553 41.5972 113.356 41.0309 109.92 37.9011C106.842 35.1 95.8693 24.9219 95.8693 24.9219V21.5898V21.5949Z"
    fill="#6D6E70"
  />
<path
    d="M95.8693 26.6967C95.8693 26.6967 106.259 36.2377 109.956 39.499C113.356 42.4973 116.112 43.4327 123.587 44.7422C131.062 46.0518 136.395 46.8658 136.395 46.8658V47.5383C136.395 47.5383 129.63 46.4411 123.551 45.4804C117.472 44.5248 113.596 44.1456 109.956 41.2282C105.758 37.8608 95.8693 29.8113 95.8693 29.8113V26.6917V26.6967Z"
    fill="#6D6E70"
  />
<path
    d="M95.8693 32.1321C95.8693 32.1321 107.737 41.4456 109.956 43.0737C112.175 44.7018 115.109 46.6029 123.623 47.8214C132.064 49.0298 136.395 49.6265 136.395 49.6265V50.3343C136.395 50.3343 128.741 49.2371 123.623 48.6001C118.505 47.963 114.583 47.69 109.991 44.6664C105.523 41.7237 95.8693 35.004 95.8693 35.004V32.1321Z"
    fill="#6D6E70"
  />
<path
    d="M95.8693 37.3601C95.8693 37.3601 107.772 45.1972 110.027 46.441C112.282 47.6798 114.931 49.7022 123.623 50.7994C132.315 51.8966 136.395 52.3921 136.395 52.3921V53.0646C136.395 53.0646 129.206 52.286 123.587 51.6843C117.973 51.0826 114.143 50.2685 109.956 47.9983C105.768 45.7331 95.8693 40.0095 95.8693 40.0095V37.3601Z"
    fill="#6D6E70"
  />
<path
    d="M95.8693 42.5883C95.8693 42.5883 106.392 48.2512 109.956 50.0158C113.928 51.9878 117.364 52.9333 123.587 53.6664C129.697 54.3844 136.395 55.0821 136.395 55.0821V55.7192C136.395 55.7192 130.203 55.0619 123.587 54.4451C117.027 53.8282 114.69 53.5451 109.956 51.467C105.722 49.6063 95.8693 45.0658 95.8693 45.0658V42.5833V42.5883Z"
    fill="#6D6E70"
  />
<path
    d="M95.8693 47.8872C95.8693 47.8872 104.183 51.4063 110.027 53.7018C115.774 55.9569 120.166 56.149 123.658 56.5383C125.197 56.7102 136.395 57.8479 136.395 57.8479V58.485C136.395 58.485 129.707 57.9541 123.623 57.4232C117.538 56.8923 114.915 56.6647 109.991 55.0518C105.006 53.4136 95.8693 50.2636 95.8693 50.2636V47.8923V47.8872Z"
    fill="#6D6E70"
  />
<path
    d="M95.8693 53.2922C95.8693 53.2922 104.265 55.8658 109.991 57.3524C115.718 58.8389 120.974 59.4456 123.623 59.6175C126.271 59.7945 136.4 60.6085 136.4 60.6085V61.2102C136.4 61.2102 130.638 60.8209 123.587 60.3254C117.886 59.9259 113.31 59.5012 109.956 58.7681C106.244 57.9591 95.8693 55.522 95.8693 55.522V53.2922Z"
    fill="#6D6E70"
  />
<path
    d="M95.8693 58.6062C95.8693 58.6062 102.736 59.7792 109.991 60.9674C115.432 61.8573 122.799 62.4186 123.587 62.454C124.374 62.4893 136.395 63.3034 136.395 63.3034V63.9405C136.395 63.9405 128.7 63.5461 123.587 63.268C118.259 62.9747 112.962 62.6562 109.956 62.3478C103.217 61.6551 95.8693 60.7349 95.8693 60.7349V58.6062Z"
    fill="#6D6E70"
  />
<path
    d="M95.8693 64.1074C95.8693 64.1074 106.699 64.5119 109.991 64.5827C113.284 64.6535 136.395 65.5737 136.395 65.5737V66.1956H95.8693V64.1074Z"
    fill="#6D6E70"
  />
<path
    d="M123.582 33.3656C113.78 31.2774 111.561 27.733 109.915 25.5386C108.268 23.3392 95.8642 5.41504 95.8642 5.41504V8.71167C96.355 9.34369 106.97 23.8347 109.95 27.6269C113.31 31.8993 118.571 32.8701 123.582 33.9319C128.587 34.9937 136.395 36.4752 136.395 36.4752V35.9089C136.395 35.9089 126.118 33.9016 123.582 33.3656Z"
    fill="#6D6E70"
  />
<path
    d="M123.582 36.2022C115.534 34.6449 112.277 32.127 109.915 29.0831C107.552 26.0343 95.8642 10.446 95.8642 10.446V14.2786C96.355 14.85 107.046 27.7534 109.915 30.9994C113.259 34.7865 117.927 35.7826 123.582 36.809C129.237 37.8354 136.39 39.1803 136.39 39.1803V38.614C136.39 38.614 128.224 37.1022 123.582 36.2073V36.2022Z"
    fill="#6D6E70"
  />
<path
    d="M123.582 39.1399C115.212 37.5321 113.494 36.2124 109.95 32.3748C107.721 29.963 96.3448 16.6804 95.8642 16.1191V19.6585C95.8642 19.6585 106.494 30.8731 109.915 34.1849C114.399 38.5332 118.607 38.8619 123.582 39.7467C128.557 40.6315 136.39 42.0473 136.39 42.0473V41.4456C136.39 41.4456 126.931 39.7871 123.582 39.145V39.1399Z"
    fill="#6D6E70"
  />
<path
    d="M0.782944 27.7788C0.782944 27.7788 28.4954 24.8563 36.2569 23.7793C48.5281 22.0805 58.57 20.2703 67.8603 6.18887C67.8603 6.18887 67.8705 5.38999 67.8603 5.03101C62.1696 13.5911 54.3211 19.431 43.5122 21.1248C32.9539 22.7833 0.777832 25.2052 0.777832 25.2052V27.7788H0.782944Z"
    fill="#6D6E70"
  />
<path
    d="M0.777832 24.2849C0.777832 24.2849 26.4604 21.1046 34.9224 19.9315C48.3082 18.081 57.7212 16.4175 67.8552 1.05681C67.8552 1.05681 67.8603 0.394453 67.8552 0.00512695C61.648 9.3439 53.9836 15.3759 42.1931 17.2265C30.6735 19.0366 0.777832 21.6759 0.777832 21.6759V24.29V24.2849Z"
    fill="#6D6E70"
  />
<path d="M26.9973 64.1326H0.793167V66.1854H26.9973V64.1326Z" fill="#6D6E70" />
<path
    d="M67.8552 22.5708C67.8552 22.5708 67.8705 21.3624 67.8654 21.1045C66.6332 22.9601 65.0124 24.6438 63.141 26.1253H64.9766C66.0094 25.0736 66.9758 23.8955 67.8501 22.5708H67.8552Z"
    fill="#6D6E70"
  />
<path
    d="M67.8552 17.11C67.8552 17.11 67.8654 16.0381 67.8603 15.7449C64.8897 20.2145 60.4669 23.7842 55.3539 26.1505L58.3706 26.1404C61.8577 24.1331 65.0993 21.2814 67.8501 17.11H67.8552Z"
    fill="#6D6E70"
  />
<path
    d="M67.8552 11.6494C67.8552 11.6494 67.8654 10.714 67.8552 10.3904C62.686 18.1718 54.6483 23.496 44.8212 25.0381C42.4948 25.4022 38.706 25.8067 34.3037 26.2162L46.3039 26.1758C54.224 24.4314 61.6378 21.0589 67.845 11.6494H67.8552Z"
    fill="#6D6E70"
  />
<path
    d="M27.0024 60.6743C13.6319 60.7451 0.793167 60.8007 0.793167 60.8007V62.9395C0.793167 62.9395 14.2403 62.8434 27.0024 62.7372V60.6743Z"
    fill="#6D6E70"
  />
<path
    d="M27.0024 57.0034C13.7239 57.15 0.788055 57.2613 0.788055 57.2613V59.4456C0.788055 59.4456 14.3733 59.2686 27.0024 59.0714V57.0034Z"
    fill="#6D6E70"
  />
<path
    d="M26.9973 53.3225C13.816 53.55 0.788055 53.722 0.788055 53.722V55.9517C0.788055 55.9517 14.5164 55.6837 26.9973 55.3905V53.3225Z"
    fill="#6D6E70"
  />
<path
    d="M27.0024 49.6213C13.9182 49.9398 0.788055 50.1774 0.788055 50.1774V52.4477C0.788055 52.4477 14.6749 52.0735 27.0024 51.6842V49.6162V49.6213Z"
    fill="#6D6E70"
  />
<path
    d="M27.0075 45.9102C14.0205 46.3197 0.788055 46.6433 0.788055 46.6433V48.959C0.788055 48.959 14.8437 48.4736 27.0075 47.9781V45.9152V45.9102Z"
    fill="#6D6E70"
  />
<path
    d="M27.0024 42.1838C14.1176 42.6995 0.788055 43.104 0.788055 43.104V45.4602C0.788055 45.4602 15.0175 44.8433 27.0024 44.2315V42.1787V42.1838Z"
    fill="#6D6E70"
  />
<path
    d="M27.0075 38.4321C14.2199 39.0591 0.782944 39.5597 0.782944 39.5597V41.9613C0.782944 41.9613 15.2016 41.1979 27.0075 40.4647V38.4321Z"
    fill="#6D6E70"
  />
<path
    d="M27.0075 34.6602C14.317 35.4085 0.782944 36.0203 0.782944 36.0203V38.4624C0.782944 38.4624 15.3959 37.5321 27.0075 36.6725V34.6602Z"
    fill="#6D6E70"
  />
<path
    d="M27.0075 30.8679C14.404 31.7477 0.782944 32.4859 0.782944 32.4859V34.9735C0.782944 34.9735 15.5902 33.8511 27.0075 32.8601V30.873V30.8679Z"
    fill="#6D6E70"
  />
<path
    d="M27.0075 27.0405C14.4807 28.0669 0.777832 28.9416 0.777832 28.9416V31.4697C0.777832 31.4697 15.7845 30.1248 27.0075 28.9922V27.0405Z"
    fill="#6D6E70"
  />
</svg>
