<svg width="290" height="72" viewBox="0 0 290 72" fill="none" xmlns="http://www.w3.org/2000/svg">
<path fill-rule="evenodd" clip-rule="evenodd" d="M0 24.5C0 24.5 39.8 19.3 41 19.1C42.7 18.8 44.3 18.5 45.7 18.1C48.9 17.2 51.9 15.9 54.5 14.1C57 12.4 59.4 9.9 61.7 7.2C63.2 5.5 64.7 3.2 66.2 1V0C64.5 2.6 62.8 4.8 61.1 6.7C58.8 9.3 56.4 11.4 53.9 13C51.4 14.6 48.5 15.9 45.4 16.7C44 17.1 42.5 17.3 40.8 17.6C39.7 17.8 38.6 17.9 37.5 18C37 18 0 21.9 0 21.9V24.5Z" fill="#BBBDBF"/>
<mask id="mask0_651_14116" style="mask-type:alpha" maskUnits="userSpaceOnUse" x="0" y="5" width="67" height="23">
<path fill-rule="evenodd" clip-rule="evenodd" d="M0 5.19971H66.0999V27.9997H0V5.19971Z" fill="white"/>
</mask>
<g mask="url(#mask0_651_14116)">
<path fill-rule="evenodd" clip-rule="evenodd" d="M53.3999 17.7997C50.8999 19.1997 47.9999 20.2997 44.7999 20.8997C43.3999 21.1997 41.9999 21.3997 40.2999 21.5997C39.2999 21.6997 38.2999 21.7997 37.2999 21.8997C36.7999 21.8997 36.1999 21.9997 35.6999 21.9997C23.4999 23.1997 11.3999 24.2997 -9.91821e-05 25.3997V27.9997C11.3999 26.5997 23.6999 25.0997 35.8999 23.6997C36.3999 23.5997 36.9999 23.5997 37.4999 23.4997C38.4999 23.3997 39.4999 23.2997 40.4999 23.0997C42.1999 22.8997 43.7999 22.5997 45.0999 22.2997C48.3999 21.5997 51.3999 20.3997 53.9999 18.7997C56.5999 17.1997 58.7999 15.0997 61.2999 12.3997C62.7999 10.6997 64.4999 8.39971 66.0999 6.19971V5.19971C64.1999 7.69971 62.4999 9.89971 60.6999 11.6997C58.2999 14.3997 55.8999 16.3997 53.3999 17.7997" fill="#BBBDBF"/>
</g>
<mask id="mask1_651_14116" style="mask-type:alpha" maskUnits="userSpaceOnUse" x="0" y="10" width="67" height="22">
<path fill-rule="evenodd" clip-rule="evenodd" d="M0 10.9001H66.0999V31.5001H0V10.9001Z" fill="white"/>
</mask>
<g mask="url(#mask1_651_14116)">
<path fill-rule="evenodd" clip-rule="evenodd" d="M60.3999 17.2001C57.9999 19.4001 55.3999 21.2001 52.8999 22.5001C50.3999 23.7001 47.5999 24.6001 44.2999 25.1001C42.8999 25.3001 41.4999 25.5001 39.7999 25.7001L-9.91821e-05 28.9001V31.5001L35.2999 27.7001L39.8999 27.2001C41.5999 27.0001 43.0999 26.8001 44.4999 26.5001C47.8999 25.9001 50.7999 24.9001 53.3999 23.6001C56.0999 22.2001 58.6999 20.0001 61.1999 17.6001C62.8999 16.0001 64.3999 13.9001 66.0999 11.8001V10.9001C64.0999 13.4001 62.2999 15.4001 60.3999 17.2001" fill="#BBBDBF"/>
</g>
<mask id="mask2_651_14116" style="mask-type:alpha" maskUnits="userSpaceOnUse" x="0" y="21" width="67" height="18">
<path fill-rule="evenodd" clip-rule="evenodd" d="M0 21.7H66.1998V38.5H0V21.7Z" fill="white"/>
</mask>
<g mask="url(#mask2_651_14116)">
<path fill-rule="evenodd" clip-rule="evenodd" d="M50.7998 30.6C48.4998 31.9 46.7998 32.7 43.4998 33C41.4998 33.2 39.4998 33.3 37.4998 33.4C36.4998 33.4 35.5998 33.5 34.5998 33.6C28.5998 33.9 22.6998 34.3 16.6998 34.7L-0.000200272 35.9V38.5L16.7998 36.9C22.1998 36.4 28.4998 35.8 34.6998 35.3L39.1998 35C40.8998 34.9 42.3998 34.7 43.6998 34.5C47.0998 34.1 49.9998 33.4 52.5998 32.4C55.3998 31.4 57.9998 29.7 60.5998 27.8C62.9998 26.1 66.1998 22.7 66.1998 22.6V21.7C64.0998 23.8 62.7998 25 60.4998 26.5C57.5998 28.5 52.8998 29.5 50.7998 30.6" fill="#BBBDBF"/>
</g>
<path fill-rule="evenodd" clip-rule="evenodd" d="M51.6001 35.6001C49.1001 36.3001 46.3001 36.8001 43.0001 37.1001C41.7001 37.2001 40.2001 37.3001 38.6001 37.4001L34.2001 37.6001C23.2001 38.1001 12.2001 38.7001 0.1001 39.3001V41.9001C11.7001 41.0001 23.0001 40.1001 34.4001 39.3001L38.8001 39.0001C40.5001 38.9001 41.9001 38.8001 43.3001 38.6001C46.7001 38.2001 49.6001 37.6001 52.1001 36.8001C54.9001 35.9001 57.7001 34.6001 60.3001 32.9001C62.2001 31.7001 64.2001 30.2001 66.2001 28.4001C64.0001 30.3001 61.9001 30.7001 59.8001 32.0001C57.1001 33.6001 54.4001 34.8001 51.6001 35.6001" fill="#BBBDBF"/>
<path fill-rule="evenodd" clip-rule="evenodd" d="M51.2002 39.9004C48.7002 40.5004 45.9002 40.9004 42.6002 41.0994C41.3002 41.2004 39.9002 41.2994 38.2002 41.2994L33.8002 41.5004C22.7002 41.9004 11.5002 42.4004 0.000200272 42.9004V45.5004C11.4002 44.7004 22.6002 44.0004 33.9002 43.2004L38.3002 42.9004C40.0002 42.7994 41.4002 42.7004 42.7002 42.5994C46.1002 42.2994 48.9002 41.7994 51.5002 41.0994C54.4002 40.2994 57.2002 39.2004 59.9002 37.7994C62.0002 36.7004 64.0002 35.4004 66.1002 33.7994V32.7004C63.8002 34.4004 61.6002 35.7004 59.4002 36.7994C56.8002 38.2004 54.0002 39.2004 51.2002 39.9004" fill="#BBBDBF"/>
<mask id="mask3_651_14116" style="mask-type:alpha" maskUnits="userSpaceOnUse" x="0" y="38" width="67" height="11">
<path fill-rule="evenodd" clip-rule="evenodd" d="M0 38.2007H66.1998V48.7997H0V38.2007Z" fill="white"/>
</mask>
<g mask="url(#mask3_651_14116)">
<path fill-rule="evenodd" clip-rule="evenodd" d="M50.7998 44.0997C48.2998 44.5997 45.4998 44.9007 42.1998 44.9997C40.8998 45.0997 39.5998 45.0997 37.8998 45.2007L-0.000200272 46.2007V48.7997L33.5998 46.9997L37.9998 46.7997C39.6998 46.7007 41.0998 46.5997 42.3998 46.4997C45.7998 46.2007 48.4998 45.9007 51.0998 45.2997C53.9998 44.7007 56.8998 43.7997 59.5998 42.5997C61.7998 41.7007 63.8998 40.5997 66.1998 39.2007V38.2007C63.7998 39.5997 61.4998 40.7007 59.1998 41.5997C56.4998 42.7997 53.6998 43.5997 50.7998 44.0997" fill="#BBBDBF"/>
</g>
<path fill-rule="evenodd" clip-rule="evenodd" d="M50.5 48.2998C45.8 48.9008 41.1 48.9998 36.4 49.0998C35.3 49.0998 34.3 49.0998 33.2 49.1998L0 49.7998V52.4008L33.3 50.9998C34.4 50.9998 35.4 50.9008 36.5 50.9008C41.2 50.6998 46 50.4998 50.7 49.7998C53.7 49.2998 56.6 48.5998 59.2 47.6998C61.4 46.9998 63.7 45.9998 66 44.7998V43.7998C63.6 44.9008 61.1 45.9008 58.8 46.5998C56.3 47.2998 53.5 47.9998 50.5 48.2998" fill="#BBBDBF"/>
<mask id="mask4_651_14116" style="mask-type:alpha" maskUnits="userSpaceOnUse" x="0" y="49" width="67" height="7">
<path fill-rule="evenodd" clip-rule="evenodd" d="M0 49.2007H66.1998V55.7997H0V49.2007Z" fill="white"/>
</mask>
<g mask="url(#mask4_651_14116)">
<path fill-rule="evenodd" clip-rule="evenodd" d="M50.2998 52.5997C45.8998 52.9997 41.4998 52.9997 37.0998 52.9997H33.0998C22.0998 52.9997 11.0998 53.0997 -0.000200272 53.2007V55.7997C10.5998 55.4007 21.8998 55.0997 33.1998 54.7007C34.4998 54.7007 35.8998 54.5997 37.1998 54.5997C41.4998 54.4997 45.9998 54.4007 50.3998 53.9007C53.4998 53.5997 56.2998 53.0997 58.9998 52.4007C61.2998 51.7997 63.6998 50.9997 66.1998 50.0997V49.2007C63.6998 50.0997 61.1998 50.7997 58.7998 51.4007C56.0998 51.9997 53.2998 52.4007 50.2998 52.5997" fill="#BBBDBF"/>
</g>
<path fill-rule="evenodd" clip-rule="evenodd" d="M50.1001 56.7999C48.3001 56.9009 46.3001 56.9009 44.1001 56.9009H41.6001L33.0001 56.7999C27.1001 56.7999 21.3001 56.6999 15.8001 56.6999L9.91821e-05 56.7999V59.4009L15.9001 58.9999C21.4001 58.9009 27.2001 58.6999 33.0001 58.5999L41.6001 58.4999C44.0001 58.4999 47.1001 58.4009 50.2001 58.1999C53.3001 57.9999 56.1001 57.6999 58.8001 57.2999C61.2001 56.9009 63.7001 56.4009 66.2001 55.7999V54.9009C63.7001 55.4999 61.1001 55.9999 58.7001 56.2999C55.9001 56.4999 53.2001 56.6999 50.1001 56.7999" fill="#BBBDBF"/>
<path fill-rule="evenodd" clip-rule="evenodd" d="M41.5 60.9005L32.9 60.7995C22 60.5995 11.1 60.4005 0 60.2005V62.7995C10.6 62.7005 21.8 62.5995 32.9 62.5005L41.5 62.4005C44.4 62.4005 47.2 62.2995 50.1 62.2005C56 62.0005 61.2 61.5995 66.2 60.9005V60.0005C61.3 60.5005 56 60.7995 50.1 60.9005H41.5" fill="#BBBDBF"/>
<path fill-rule="evenodd" clip-rule="evenodd" d="M66.1001 65.5L9.91821e-05 63.8V66.4H66.1001V65.5Z" fill="#BBBDBF"/>
<path fill-rule="evenodd" clip-rule="evenodd" d="M60.2002 21.9999C57.7002 23.9999 55.7002 25.4999 52.7002 26.6999C50.0002 27.7999 47.1002 28.1999 43.9002 28.6999C41.8002 28.9999 39.6002 29.3999 37.5002 29.5999C36.6002 29.6999 35.8002 29.6999 34.9002 29.7999L0.000200272 32.2999V34.8999L34.9002 31.4999L39.4002 31.0999C41.1002 30.8999 42.6002 30.7999 44.0002 30.4999C47.4002 29.9999 50.3002 29.0999 52.9002 27.8999C55.6002 26.6999 58.4002 24.6999 60.9002 22.5999C62.6002 21.0999 64.3002 19.2999 66.1002 17.2999V16.3999C63.9002 18.5999 62.1002 20.4999 60.2002 21.9999" fill="#BBBDBF"/>
<path fill-rule="evenodd" clip-rule="evenodd" d="M94.2002 0C94.2002 0 106.1 18.9 108.3 22.4C110.5 25.9 113 28.6 121.8 30.5C130.6 32.4 134.4 33.2 134.4 33.2V33.9C134.4 33.9 128.8 32.7 121.6 31.1C114.4 29.5 111.5 29 108.2 24.4C105.5 20.6 94.2002 4.5 94.2002 4.5V0Z" fill="#BBBDBF"/>
<path fill-rule="evenodd" clip-rule="evenodd" d="M94.2002 21.6001C94.2002 21.6001 105 32.9001 108.2 36.2001C111.5 39.7001 115.8 40.9001 121.7 42.0001C127.3 43.0001 134.4 44.2001 134.4 44.2001V44.8001C134.4 44.8001 127.7 43.7001 121.7 42.7001C115.8 41.7001 111.6 41.1001 108.2 38.0001C105.2 35.2001 94.3002 25.0001 94.3002 25.0001L94.2002 21.6001Z" fill="#BBBDBF"/>
<path fill-rule="evenodd" clip-rule="evenodd" d="M94.2002 26.7998C94.2002 26.7998 104.5 36.3998 108.2 39.5998C111.6 42.5998 114.3 43.4998 121.7 44.9008C129.1 46.1998 134.4 46.9998 134.4 46.9998V47.6998C134.4 47.6998 127.7 46.5998 121.7 45.5998C115.7 44.5998 111.8 44.2998 108.2 41.2998C104 37.9008 94.2002 29.8998 94.2002 29.8998V26.7998Z" fill="#BBBDBF"/>
<path fill-rule="evenodd" clip-rule="evenodd" d="M94.2002 32.2002C94.2002 32.2002 106 41.5002 108.2 43.2002C110.4 44.8002 113.3 46.7002 121.7 48.0002C130.1 49.2002 134.4 49.8002 134.4 49.8002V50.5002C134.4 50.5002 126.8 49.4002 121.7 48.8002C116.6 48.2002 112.7 47.9002 108.2 44.9002C103.8 42.0002 94.2002 35.2002 94.2002 35.2002V32.2002Z" fill="#BBBDBF"/>
<path fill-rule="evenodd" clip-rule="evenodd" d="M94.2002 37.4004C94.2002 37.4004 106 45.2994 108.2 46.5004C110.4 47.7004 113.1 49.7994 121.7 50.9004C130.3 52.0004 134.4 52.5004 134.4 52.5004V53.2004C134.4 53.2004 127.3 52.4004 121.7 51.7994C116.1 51.2004 112.3 50.4004 108.2 48.0994C104.1 45.7994 94.2002 40.0994 94.2002 40.0994V37.4004Z" fill="#BBBDBF"/>
<path fill-rule="evenodd" clip-rule="evenodd" d="M94.2002 42.7002C94.2002 42.7002 104.6 48.4002 108.2 50.0992C112.1 52.0992 115.5 53.0002 121.7 53.8002C127.8 54.5002 134.4 55.2002 134.4 55.2002V55.8002C134.4 55.8002 128.3 55.0992 121.7 54.5002C115.2 53.9002 112.9 53.5992 108.2 51.5002C104 49.5992 94.2002 45.0992 94.2002 45.0992V42.7002Z" fill="#BBBDBF"/>
<path fill-rule="evenodd" clip-rule="evenodd" d="M94.2002 48C94.2002 48 102.4 51.5 108.2 53.8C113.9 56.1 118.2 56.3 121.7 56.6C123.2 56.8 134.3 57.9 134.3 57.9V58.5C134.3 58.5 127.7 58 121.6 57.4C115.6 56.9 113 56.6 108.1 55C103.2 53.4 94.1002 50.2 94.1002 50.2L94.2002 48Z" fill="#BBBDBF"/>
<path fill-rule="evenodd" clip-rule="evenodd" d="M94.2002 53.4004C94.2002 53.4004 102.5 56.0004 108.2 57.5004C113.9 59.0004 119.1 59.5994 121.7 59.7994C124.3 60.0004 134.4 60.7994 134.4 60.7994V61.4004C134.4 61.4004 128.7 61.0004 121.7 60.5004C116 60.0994 111.5 59.7004 108.2 58.9004C104.5 58.0994 94.2002 55.5994 94.2002 55.5994V53.4004Z" fill="#BBBDBF"/>
<path fill-rule="evenodd" clip-rule="evenodd" d="M94.2002 58.7002C94.2002 58.7002 101 59.9002 108.2 61.0992C113.6 62.0002 120.9 62.5992 121.7 62.5992C122.5 62.5992 134.4 63.5002 134.4 63.5002V64.0992C134.4 64.0992 126.8 63.7002 121.7 63.4002C116.4 63.0992 111.2 62.8002 108.2 62.5002C101.5 61.8002 94.2002 60.9002 94.2002 60.9002V58.7002Z" fill="#BBBDBF"/>
<path fill-rule="evenodd" clip-rule="evenodd" d="M94.2002 64.2998C94.2002 64.2998 104.9 64.6998 108.2 64.7998C111.5 64.9008 134.4 65.7998 134.4 65.7998V66.4008H94.2002V64.2998Z" fill="#BBBDBF"/>
<path fill-rule="evenodd" clip-rule="evenodd" d="M121.7 33.3999C112 31.2999 109.8 27.7999 108.2 25.5999C106.6 23.3999 94.3002 5.3999 94.3002 5.3999V9.4999C94.8002 10.0999 105.3 23.8999 108.3 27.6999C111.6 31.9999 116.8 32.9999 121.8 33.9999C126.8 35.0999 134.5 36.5999 134.5 36.5999V35.9999C134.4 35.9999 124.2 33.9999 121.7 33.3999" fill="#BBBDBF"/>
<path fill-rule="evenodd" clip-rule="evenodd" d="M121.7 36.2999C113.7 34.6999 110.5 32.1999 108.2 29.1999C105.9 26.0999 94.3002 10.8999 94.3002 10.8999V14.6999C94.8002 15.2999 105.4 27.7999 108.2 31.0999C111.5 34.8999 116.1 35.8999 121.7 36.8999C127.3 37.9009 134.4 39.2999 134.4 39.2999V38.6999C134.4 38.6999 126.3 37.1999 121.7 36.2999" fill="#BBBDBF"/>
<path fill-rule="evenodd" clip-rule="evenodd" d="M121.7 39.2001C113.4 37.5991 111.7 36.3001 108.2 32.4001C106 30.0001 94.7002 16.7001 94.2002 16.1001V19.6001C94.2002 19.6001 104.7 30.8001 108.1 34.2001C112.5 38.5991 116.7 38.9001 121.6 39.8001C126.5 40.7001 134.3 42.0991 134.3 42.0991V41.5001C134.4 41.5001 125 39.9001 121.7 39.2001" fill="#BBBDBF"/>
<path fill-rule="evenodd" clip-rule="evenodd" d="M27.5 66.3001H85.4V27.6001H27.5V66.3001Z" fill="#004494"/>
<path fill-rule="evenodd" clip-rule="evenodd" d="M57.1001 33.1001H59.1001L57.5001 34.4001L58.1001 36.4001L56.5001 35.2001L54.9001 36.4001L55.5001 34.4001L53.9001 33.1001H55.9001L56.5001 31.1001L57.1001 33.1001Z" fill="#FFF100"/>
<path fill-rule="evenodd" clip-rule="evenodd" d="M57.1001 58.9005H59.1001L57.5001 60.0995L58.1001 62.0005L56.5001 60.7995L54.9001 62.0005L55.5001 60.0995L53.9001 58.9005H55.9001L56.5001 57.0005L57.1001 58.9005Z" fill="#FFF100"/>
<path fill-rule="evenodd" clip-rule="evenodd" d="M63.5 57.2003H65.5L63.9 58.4003L64.5 60.3003L62.9 59.0993L61.3 60.3003L61.9 58.4003L60.3 57.2003H62.3L62.9 55.3003L63.5 57.2003Z" fill="#FFF100"/>
<path fill-rule="evenodd" clip-rule="evenodd" d="M63.5 34.7999H65.5L63.9 35.9999L64.5 37.9009L62.9 36.6999L61.3 37.9999L62 35.9999L60.4 34.7999H62.4L63 32.8999L63.5 34.7999Z" fill="#FFF100"/>
<path fill-rule="evenodd" clip-rule="evenodd" d="M68.2998 39.5997H70.2998L68.6998 40.7997L69.2998 42.7007L67.6998 41.4997L66.0998 42.7007L66.6998 40.7997L65.0998 39.5997H67.0998L67.6998 37.7007L68.2998 39.5997Z" fill="#FFF100"/>
<path fill-rule="evenodd" clip-rule="evenodd" d="M68.2998 52.5997H70.2998L68.6998 53.7997L69.2998 55.7007L67.6998 54.4997L66.0998 55.7007L66.6998 53.7997L65.0998 52.5997H67.0998L67.6998 50.7007L68.2998 52.5997Z" fill="#FFF100"/>
<path fill-rule="evenodd" clip-rule="evenodd" d="M70.1001 46.0001H72.1001L70.5001 47.2001L71.1001 49.1001L69.5001 47.9001L67.9001 49.1001L68.5001 47.2001L66.8001 46.0001H68.8001L69.4001 44.1001L70.1001 46.0001Z" fill="#FFF100"/>
<path fill-rule="evenodd" clip-rule="evenodd" d="M50.5 34.7998H52.5L50.9 35.9998L51.5 37.9008L50 36.7998L48.3 37.9998L48.9 36.0998L47.3 34.8998H49.3L50 32.9998L50.5 34.7998Z" fill="#FFF100"/>
<path fill-rule="evenodd" clip-rule="evenodd" d="M45.8999 39.5997H47.8999L46.2999 40.7997L46.8999 42.7007L45.2999 41.4997L43.6999 42.7007L44.2999 40.7997L42.6999 39.5997H44.6999L45.2999 37.7007L45.8999 39.5997Z" fill="#FFF100"/>
<path fill-rule="evenodd" clip-rule="evenodd" d="M44.2002 46.0001H46.2002L44.6002 47.2001L45.2002 49.1001L43.6002 47.9001L42.0002 49.1001L42.6002 47.2001L41.0002 46.0001H43.0002L43.6002 44.1001L44.2002 46.0001Z" fill="#FFF100"/>
<path fill-rule="evenodd" clip-rule="evenodd" d="M45.8999 52.5997H47.8999L46.2999 53.7997L46.8999 55.7007L45.2999 54.4997L43.6999 55.7007L44.2999 53.7997L42.6999 52.5997H44.6999L45.2999 50.7007L45.8999 52.5997Z" fill="#FFF100"/>
<path fill-rule="evenodd" clip-rule="evenodd" d="M50.6001 57.2999H52.6001L51.0001 58.4999L51.6001 60.4009L50.0001 59.1999L48.4001 60.4009L49.0001 58.4999L47.4001 57.2999H49.4001L50.0001 55.4009L50.6001 57.2999Z" fill="#FFF100"/>
<path d="M151.68 34.34C151.68 34.58 151.547 34.7 151.28 34.7H148.1V45.62C148.1 45.7266 148.073 45.82 148.02 45.9C147.98 45.9666 147.887 46 147.74 46H146.24C145.987 46 145.86 45.8733 145.86 45.62V34.7H142.7C142.54 34.7 142.433 34.6733 142.38 34.62C142.327 34.5533 142.3 34.46 142.3 34.34V33.1C142.3 32.98 142.327 32.8866 142.38 32.82C142.433 32.7533 142.533 32.72 142.68 32.72H151.3C151.553 32.72 151.68 32.8466 151.68 33.1V34.34Z" fill="#626366"/>
<path d="M160.915 45.62C160.915 45.8733 160.789 46 160.535 46H159.115C158.969 46 158.869 45.9666 158.815 45.9C158.762 45.8333 158.735 45.74 158.735 45.62V45L158.695 44.98C158.495 45.1133 158.262 45.2533 157.995 45.4C157.742 45.5333 157.469 45.66 157.175 45.78C156.882 45.9 156.575 45.9933 156.255 46.06C155.949 46.14 155.642 46.18 155.335 46.18C154.655 46.18 154.115 46.0866 153.715 45.9C153.329 45.7133 153.035 45.4533 152.835 45.12C152.635 44.7866 152.509 44.3933 152.455 43.94C152.402 43.4866 152.375 43 152.375 42.48V36.6C152.375 36.3333 152.502 36.2 152.755 36.2H154.215C154.455 36.2 154.575 36.3333 154.575 36.6V42.22C154.575 42.5266 154.595 42.8 154.635 43.04C154.675 43.28 154.749 43.4866 154.855 43.66C154.962 43.82 155.109 43.9466 155.295 44.04C155.482 44.1333 155.729 44.18 156.035 44.18C156.249 44.18 156.482 44.1466 156.735 44.08C157.002 44.0133 157.262 43.9333 157.515 43.84C157.769 43.7333 158.002 43.6333 158.215 43.54C158.429 43.4333 158.602 43.3466 158.735 43.28V36.6C158.735 36.48 158.762 36.3866 158.815 36.32C158.869 36.24 158.969 36.2 159.115 36.2H160.535C160.789 36.2 160.915 36.3333 160.915 36.6V45.62Z" fill="#626366"/>
<path d="M177.38 45.62C177.38 45.74 177.354 45.8333 177.3 45.9C177.26 45.9666 177.167 46 177.02 46H175.58C175.327 46 175.2 45.8733 175.2 45.62V39.94C175.2 39.1933 175.1 38.6933 174.9 38.44C174.7 38.1733 174.347 38.04 173.84 38.04C173.654 38.04 173.44 38.0733 173.2 38.14C172.974 38.2066 172.74 38.2866 172.5 38.38C172.274 38.46 172.054 38.5533 171.84 38.66C171.627 38.7666 171.44 38.86 171.28 38.94C171.28 39.0466 171.28 39.1866 171.28 39.36C171.294 39.5333 171.3 39.7333 171.3 39.96V45.62C171.3 45.74 171.274 45.8333 171.22 45.9C171.167 45.9666 171.067 46 170.92 46H169.46C169.234 46 169.12 45.8733 169.12 45.62V39.84C169.12 39.2266 169.027 38.7733 168.84 38.48C168.654 38.1866 168.307 38.04 167.8 38.04C167.627 38.04 167.427 38.0666 167.2 38.12C166.987 38.1733 166.76 38.2466 166.52 38.34C166.294 38.4333 166.067 38.5333 165.84 38.64C165.614 38.7466 165.407 38.8466 165.22 38.94V45.62C165.22 45.8733 165.094 46 164.84 46H163.4C163.16 46 163.04 45.8733 163.04 45.62V36.6C163.04 36.3333 163.16 36.2 163.4 36.2H164.82C165.087 36.2 165.22 36.3333 165.22 36.6V37.18L165.24 37.2C165.44 37.0666 165.654 36.9333 165.88 36.8C166.107 36.6533 166.347 36.5266 166.6 36.42C166.867 36.3133 167.134 36.2266 167.4 36.16C167.667 36.08 167.94 36.0333 168.22 36.02C168.794 36.02 169.314 36.1133 169.78 36.3C170.26 36.4733 170.654 36.8466 170.96 37.42C171.467 37.0466 172.02 36.72 172.62 36.44C173.22 36.16 173.84 36.02 174.48 36.02C175.134 36.02 175.654 36.12 176.04 36.32C176.427 36.52 176.72 36.7933 176.92 37.14C177.12 37.4733 177.247 37.8666 177.3 38.32C177.354 38.7733 177.38 39.2466 177.38 39.74V45.62Z" fill="#626366"/>
<path d="M181.605 41.7C181.618 42.2066 181.672 42.6266 181.765 42.96C181.872 43.2933 182.025 43.56 182.225 43.76C182.425 43.9466 182.672 44.08 182.965 44.16C183.258 44.24 183.612 44.28 184.025 44.28C184.385 44.28 184.812 44.2533 185.305 44.2C185.798 44.1466 186.238 44.1 186.625 44.06C186.812 44.0333 186.938 44.04 187.005 44.08C187.085 44.1066 187.138 44.2133 187.165 44.4L187.285 45.06C187.312 45.2066 187.305 45.3266 187.265 45.42C187.238 45.5133 187.132 45.6 186.945 45.68C186.745 45.76 186.512 45.8333 186.245 45.9C185.978 45.9533 185.698 46 185.405 46.04C185.112 46.08 184.818 46.1133 184.525 46.14C184.232 46.1666 183.965 46.18 183.725 46.18C182.765 46.18 181.998 46.04 181.425 45.76C180.852 45.48 180.412 45.1066 180.105 44.64C179.798 44.1733 179.592 43.64 179.485 43.04C179.392 42.4266 179.345 41.7933 179.345 41.14C179.345 40.66 179.385 40.12 179.465 39.52C179.545 38.92 179.725 38.36 180.005 37.84C180.298 37.32 180.725 36.8866 181.285 36.54C181.858 36.18 182.632 36 183.605 36C184.498 36 185.218 36.1333 185.765 36.4C186.325 36.6666 186.758 37.0133 187.065 37.44C187.372 37.8533 187.578 38.3333 187.685 38.88C187.805 39.4133 187.872 39.9466 187.885 40.48C187.898 40.84 187.838 41.1333 187.705 41.36C187.572 41.5866 187.305 41.7 186.905 41.7H181.605ZM183.605 37.8C183.232 37.8 182.925 37.8533 182.685 37.96C182.445 38.0666 182.245 38.2266 182.085 38.44C181.938 38.64 181.832 38.8933 181.765 39.2C181.698 39.4933 181.652 39.8266 181.625 40.2H185.585C185.585 39.8933 185.558 39.6 185.505 39.32C185.452 39.0266 185.352 38.7666 185.205 38.54C185.072 38.3133 184.872 38.1333 184.605 38C184.352 37.8666 184.018 37.8 183.605 37.8Z" fill="#626366"/>
<path d="M199.226 43.2C199.373 42.7866 199.506 42.4 199.626 42.04C199.759 41.68 199.873 41.3666 199.966 41.1C200.073 40.78 200.173 40.4866 200.266 40.22L201.506 36.54C201.546 36.42 201.599 36.3333 201.666 36.28C201.733 36.2266 201.839 36.2 201.986 36.2H203.466C203.626 36.2 203.713 36.24 203.726 36.32C203.739 36.4 203.726 36.4933 203.686 36.6L199.026 49.32C198.973 49.4533 198.913 49.5466 198.846 49.6C198.779 49.6533 198.659 49.68 198.486 49.68H197.126C196.966 49.68 196.873 49.64 196.846 49.56C196.833 49.48 196.846 49.3866 196.886 49.28L198.146 45.9L194.646 36.6C194.606 36.4933 194.593 36.4 194.606 36.32C194.633 36.24 194.719 36.2 194.866 36.2H196.406C196.539 36.2 196.633 36.2133 196.686 36.24C196.739 36.2666 196.793 36.3533 196.846 36.5L198.146 40.22L199.146 43.2H199.226Z" fill="#626366"/>
<path d="M211.21 41.54H208.77C208.264 41.54 207.864 41.66 207.57 41.9C207.277 42.1266 207.13 42.5666 207.13 43.22C207.13 43.66 207.217 43.9666 207.39 44.14C207.577 44.3 207.904 44.38 208.37 44.38C208.584 44.38 208.817 44.3533 209.07 44.3C209.324 44.2466 209.577 44.1733 209.83 44.08C210.084 43.9866 210.33 43.8866 210.57 43.78C210.81 43.66 211.024 43.5466 211.21 43.44V41.54ZM211.33 44.86C210.824 45.2466 210.25 45.56 209.61 45.8C208.984 46.04 208.33 46.16 207.65 46.16C207.117 46.16 206.67 46.0933 206.31 45.96C205.964 45.8133 205.684 45.62 205.47 45.38C205.27 45.1266 205.124 44.8266 205.03 44.48C204.95 44.1333 204.91 43.7466 204.91 43.32C204.897 42.1466 205.204 41.3 205.83 40.78C206.457 40.2466 207.404 39.98 208.67 39.98H211.23V39.46C211.23 39.1666 211.197 38.92 211.13 38.72C211.077 38.5066 210.97 38.3333 210.81 38.2C210.65 38.0666 210.437 37.9733 210.17 37.92C209.904 37.8666 209.564 37.84 209.15 37.84C208.99 37.84 208.79 37.8466 208.55 37.86C208.324 37.8733 208.084 37.8866 207.83 37.9C207.59 37.9133 207.344 37.9333 207.09 37.96C206.85 37.9866 206.63 38.0066 206.43 38.02C206.23 38.0466 206.09 38.0533 206.01 38.04C205.944 38.0133 205.897 37.9266 205.87 37.78L205.69 37.04C205.664 36.9066 205.677 36.8 205.73 36.72C205.784 36.6266 205.924 36.5333 206.15 36.44C206.364 36.36 206.617 36.2933 206.91 36.24C207.204 36.1866 207.504 36.1466 207.81 36.12C208.117 36.08 208.417 36.0533 208.71 36.04C209.017 36.0133 209.29 36 209.53 36C210.397 36 211.084 36.0866 211.59 36.26C212.11 36.4333 212.504 36.68 212.77 37C213.037 37.3066 213.21 37.6866 213.29 38.14C213.37 38.5933 213.41 39.1 213.41 39.66V43.52C213.41 43.72 213.417 43.88 213.43 44C213.457 44.1066 213.49 44.1933 213.53 44.26C213.584 44.3133 213.657 44.3533 213.75 44.38C213.844 44.4066 213.97 44.4266 214.13 44.44C214.277 44.4533 214.377 44.48 214.43 44.52C214.484 44.56 214.51 44.6333 214.51 44.74V45.58C214.51 45.8066 214.35 45.9466 214.03 46C213.87 46.0266 213.71 46.0466 213.55 46.06C213.39 46.0866 213.237 46.1 213.09 46.1C212.624 46.1 212.244 46.0133 211.95 45.84C211.67 45.6666 211.477 45.3466 211.37 44.88L211.33 44.86Z" fill="#626366"/>
<path d="M148.28 64.16C149.16 64.16 149.827 63.92 150.28 63.44C150.747 62.9466 150.98 62.18 150.98 61.14V53.12C150.98 52.8533 151.113 52.72 151.38 52.72H152.88C153.027 52.72 153.12 52.76 153.16 52.84C153.213 52.9066 153.24 53 153.24 53.12L153.22 61.14C153.22 61.54 153.193 61.94 153.14 62.34C153.1 62.7266 153.007 63.1133 152.86 63.5C152.66 63.98 152.4 64.3866 152.08 64.72C151.773 65.0533 151.42 65.3266 151.02 65.54C150.62 65.7533 150.187 65.9066 149.72 66C149.253 66.1066 148.773 66.16 148.28 66.16C146.173 66.16 144.733 65.42 143.96 63.94C143.747 63.54 143.593 63.1066 143.5 62.64C143.407 62.16 143.36 61.66 143.36 61.14V53.12C143.36 52.8533 143.487 52.72 143.74 52.72H145.24C145.493 52.72 145.62 52.8533 145.62 53.12V61.14C145.62 62.1266 145.84 62.88 146.28 63.4C146.733 63.9066 147.4 64.16 148.28 64.16Z" fill="#626366"/>
<path d="M158.059 63.52C158.059 63.8266 158.125 64.02 158.259 64.1C158.405 64.1666 158.652 64.2 158.999 64.2C159.145 64.2133 159.239 64.2333 159.279 64.26C159.332 64.2866 159.372 64.3533 159.399 64.46L159.479 65.48C159.492 65.64 159.405 65.7666 159.219 65.86C159.032 65.9533 158.812 66.0133 158.559 66.04C158.305 66.08 158.092 66.1 157.919 66.1C157.159 66.1 156.625 65.9333 156.319 65.6C156.025 65.2533 155.879 64.74 155.879 64.06V52.28C155.879 52.0266 156.005 51.9 156.259 51.9H157.679C157.932 51.9 158.059 52.0266 158.059 52.28V63.52Z" fill="#626366"/>
<path d="M166.992 61.54H164.552C164.045 61.54 163.645 61.66 163.352 61.9C163.058 62.1266 162.912 62.5666 162.912 63.22C162.912 63.66 162.998 63.9666 163.172 64.14C163.358 64.3 163.685 64.38 164.152 64.38C164.365 64.38 164.598 64.3533 164.852 64.3C165.105 64.2466 165.358 64.1733 165.612 64.08C165.865 63.9866 166.112 63.8866 166.352 63.78C166.592 63.66 166.805 63.5466 166.992 63.44V61.54ZM167.112 64.86C166.605 65.2466 166.032 65.56 165.392 65.8C164.765 66.04 164.112 66.16 163.432 66.16C162.898 66.16 162.452 66.0933 162.092 65.96C161.745 65.8133 161.465 65.62 161.252 65.38C161.052 65.1266 160.905 64.8266 160.812 64.48C160.732 64.1333 160.692 63.7466 160.692 63.32C160.678 62.1466 160.985 61.3 161.612 60.78C162.238 60.2466 163.185 59.98 164.452 59.98H167.012V59.46C167.012 59.1666 166.978 58.92 166.912 58.72C166.858 58.5066 166.752 58.3333 166.592 58.2C166.432 58.0666 166.218 57.9733 165.952 57.92C165.685 57.8666 165.345 57.84 164.932 57.84C164.772 57.84 164.572 57.8466 164.332 57.86C164.105 57.8733 163.865 57.8866 163.612 57.9C163.372 57.9133 163.125 57.9333 162.872 57.96C162.632 57.9866 162.412 58.0066 162.212 58.02C162.012 58.0466 161.872 58.0533 161.792 58.04C161.725 58.0133 161.678 57.9266 161.652 57.78L161.472 57.04C161.445 56.9066 161.458 56.8 161.512 56.72C161.565 56.6266 161.705 56.5333 161.932 56.44C162.145 56.36 162.398 56.2933 162.692 56.24C162.985 56.1866 163.285 56.1466 163.592 56.12C163.898 56.08 164.198 56.0533 164.492 56.04C164.798 56.0133 165.072 56 165.312 56C166.178 56 166.865 56.0866 167.372 56.26C167.892 56.4333 168.285 56.68 168.552 57C168.818 57.3066 168.992 57.6866 169.072 58.14C169.152 58.5933 169.192 59.1 169.192 59.66V63.52C169.192 63.72 169.198 63.88 169.212 64C169.238 64.1066 169.272 64.1933 169.312 64.26C169.365 64.3133 169.438 64.3533 169.532 64.38C169.625 64.4066 169.752 64.4266 169.912 64.44C170.058 64.4533 170.158 64.48 170.212 64.52C170.265 64.56 170.292 64.6333 170.292 64.74V65.58C170.292 65.8066 170.132 65.9466 169.812 66C169.652 66.0266 169.492 66.0466 169.332 66.06C169.172 66.0866 169.018 66.1 168.872 66.1C168.405 66.1 168.025 66.0133 167.732 65.84C167.452 65.6666 167.258 65.3466 167.152 64.88L167.112 64.86Z" fill="#626366"/>
<path d="M175.632 63.2C175.779 62.7866 175.912 62.4 176.032 62.04C176.166 61.68 176.279 61.3666 176.372 61.1C176.479 60.78 176.579 60.4866 176.672 60.22L177.912 56.54C177.952 56.42 178.006 56.3333 178.072 56.28C178.139 56.2266 178.246 56.2 178.392 56.2H179.872C180.032 56.2 180.119 56.24 180.132 56.32C180.146 56.4 180.132 56.4933 180.092 56.6L175.432 69.32C175.379 69.4533 175.319 69.5466 175.252 69.6C175.186 69.6533 175.066 69.68 174.892 69.68H173.532C173.372 69.68 173.279 69.64 173.252 69.56C173.239 69.48 173.252 69.3866 173.292 69.28L174.552 65.9L171.052 56.6C171.012 56.4933 170.999 56.4 171.012 56.32C171.039 56.24 171.126 56.2 171.272 56.2H172.812C172.946 56.2 173.039 56.2133 173.092 56.24C173.146 56.2666 173.199 56.3533 173.252 56.5L174.552 60.22L175.552 63.2H175.632Z" fill="#626366"/>
<path d="M187.617 61.54H185.177C184.67 61.54 184.27 61.66 183.977 61.9C183.683 62.1266 183.537 62.5666 183.537 63.22C183.537 63.66 183.623 63.9666 183.797 64.14C183.983 64.3 184.31 64.38 184.777 64.38C184.99 64.38 185.223 64.3533 185.477 64.3C185.73 64.2466 185.983 64.1733 186.237 64.08C186.49 63.9866 186.737 63.8866 186.977 63.78C187.217 63.66 187.43 63.5466 187.617 63.44V61.54ZM187.737 64.86C187.23 65.2466 186.657 65.56 186.017 65.8C185.39 66.04 184.737 66.16 184.057 66.16C183.523 66.16 183.077 66.0933 182.717 65.96C182.37 65.8133 182.09 65.62 181.877 65.38C181.677 65.1266 181.53 64.8266 181.437 64.48C181.357 64.1333 181.317 63.7466 181.317 63.32C181.303 62.1466 181.61 61.3 182.237 60.78C182.863 60.2466 183.81 59.98 185.077 59.98H187.637V59.46C187.637 59.1666 187.603 58.92 187.537 58.72C187.483 58.5066 187.377 58.3333 187.217 58.2C187.057 58.0666 186.843 57.9733 186.577 57.92C186.31 57.8666 185.97 57.84 185.557 57.84C185.397 57.84 185.197 57.8466 184.957 57.86C184.73 57.8733 184.49 57.8866 184.237 57.9C183.997 57.9133 183.75 57.9333 183.497 57.96C183.257 57.9866 183.037 58.0066 182.837 58.02C182.637 58.0466 182.497 58.0533 182.417 58.04C182.35 58.0133 182.303 57.9266 182.277 57.78L182.097 57.04C182.07 56.9066 182.083 56.8 182.137 56.72C182.19 56.6266 182.33 56.5333 182.557 56.44C182.77 56.36 183.023 56.2933 183.317 56.24C183.61 56.1866 183.91 56.1466 184.217 56.12C184.523 56.08 184.823 56.0533 185.117 56.04C185.423 56.0133 185.697 56 185.937 56C186.803 56 187.49 56.0866 187.997 56.26C188.517 56.4333 188.91 56.68 189.177 57C189.443 57.3066 189.617 57.6866 189.697 58.14C189.777 58.5933 189.817 59.1 189.817 59.66V63.52C189.817 63.72 189.823 63.88 189.837 64C189.863 64.1066 189.897 64.1933 189.937 64.26C189.99 64.3133 190.063 64.3533 190.157 64.38C190.25 64.4066 190.377 64.4266 190.537 64.44C190.683 64.4533 190.783 64.48 190.837 64.52C190.89 64.56 190.917 64.6333 190.917 64.74V65.58C190.917 65.8066 190.757 65.9466 190.437 66C190.277 66.0266 190.117 66.0466 189.957 66.06C189.797 66.0866 189.643 66.1 189.497 66.1C189.03 66.1 188.65 66.0133 188.357 65.84C188.077 65.6666 187.883 65.3466 187.777 64.88L187.737 64.86Z" fill="#626366"/>
<path fill-rule="evenodd" clip-rule="evenodd" d="M223 66.7H226.3V28H223V66.7Z" fill="#004494"/>
</svg>
