<svg width="290" height="72" viewBox="0 0 290 72" fill="none" xmlns="http://www.w3.org/2000/svg">
<path fill-rule="evenodd" clip-rule="evenodd" d="M0 24.5C0 24.5 39.8 19.3 41 19.1C42.7 18.8 44.3 18.5 45.7 18.1C48.9 17.2 51.9 15.9 54.5 14.1C57 12.4 59.4 9.9 61.7 7.2C63.2 5.5 64.7 3.2 66.2 1V0C64.5 2.6 62.8 4.8 61.1 6.7C58.8 9.3 56.4 11.4 53.9 13C51.4 14.6 48.5 15.9 45.4 16.7C44 17.1 42.5 17.3 40.8 17.6C39.7 17.8 38.6 17.9 37.5 18C37 18 0 21.9 0 21.9V24.5Z" fill="#BBBDBF"/>
<mask id="mask0_4509_501357" style="mask-type:alpha" maskUnits="userSpaceOnUse" x="0" y="5" width="67" height="23">
<path fill-rule="evenodd" clip-rule="evenodd" d="M0 5.19983H66.0999V27.9998H0V5.19983Z" fill="white"/>
</mask>
<g mask="url(#mask0_4509_501357)">
<path fill-rule="evenodd" clip-rule="evenodd" d="M53.3999 17.7998C50.8999 19.1998 47.9999 20.2998 44.7999 20.8998C43.3999 21.1998 41.9999 21.3998 40.2999 21.5998C39.2999 21.6998 38.2999 21.7998 37.2999 21.8998C36.7999 21.8998 36.1999 21.9998 35.6999 21.9998C23.4999 23.1998 11.3999 24.2998 -0.00012207 25.3998V27.9998C11.3999 26.5998 23.6999 25.0998 35.8999 23.6998C36.3999 23.5998 36.9999 23.5998 37.4999 23.4998C38.4999 23.3998 39.4999 23.2998 40.4999 23.0998C42.1999 22.8998 43.7999 22.5998 45.0999 22.2998C48.3999 21.5998 51.3999 20.3998 53.9999 18.7998C56.5999 17.1998 58.7999 15.0998 61.2999 12.3998C62.7999 10.6998 64.4999 8.39983 66.0999 6.19983V5.19983C64.1999 7.69983 62.4999 9.89983 60.6999 11.6998C58.2999 14.3998 55.8999 16.3998 53.3999 17.7998" fill="#BBBDBF"/>
</g>
<mask id="mask1_4509_501357" style="mask-type:alpha" maskUnits="userSpaceOnUse" x="0" y="10" width="67" height="22">
<path fill-rule="evenodd" clip-rule="evenodd" d="M0 10.9002H66.0999V31.5002H0V10.9002Z" fill="white"/>
</mask>
<g mask="url(#mask1_4509_501357)">
<path fill-rule="evenodd" clip-rule="evenodd" d="M60.3999 17.2002C57.9999 19.4002 55.3999 21.2002 52.8999 22.5002C50.3999 23.7002 47.5999 24.6002 44.2999 25.1002C42.8999 25.3002 41.4999 25.5002 39.7999 25.7002L-0.00012207 28.9002V31.5002L35.2999 27.7002L39.8999 27.2002C41.5999 27.0002 43.0999 26.8002 44.4999 26.5002C47.8999 25.9002 50.7999 24.9002 53.3999 23.6002C56.0999 22.2002 58.6999 20.0002 61.1999 17.6002C62.8999 16.0002 64.3999 13.9002 66.0999 11.8002V10.9002C64.0999 13.4002 62.2999 15.4002 60.3999 17.2002" fill="#BBBDBF"/>
</g>
<mask id="mask2_4509_501357" style="mask-type:alpha" maskUnits="userSpaceOnUse" x="0" y="21" width="67" height="18">
<path fill-rule="evenodd" clip-rule="evenodd" d="M0 21.7H66.1998V38.5H0V21.7Z" fill="white"/>
</mask>
<g mask="url(#mask2_4509_501357)">
<path fill-rule="evenodd" clip-rule="evenodd" d="M50.7998 30.6C48.4998 31.9 46.7998 32.7 43.4998 33C41.4998 33.2 39.4998 33.3 37.4998 33.4C36.4998 33.4 35.5998 33.5 34.5998 33.6C28.5998 33.9 22.6998 34.3 16.6998 34.7L-0.000183105 35.9V38.5L16.7998 36.9C22.1998 36.4 28.4998 35.8 34.6998 35.3L39.1998 35C40.8998 34.9 42.3998 34.7 43.6998 34.5C47.0998 34.1 49.9998 33.4 52.5998 32.4C55.3998 31.4 57.9998 29.7 60.5998 27.8C62.9998 26.1 66.1998 22.7 66.1998 22.6V21.7C64.0998 23.8 62.7998 25 60.4998 26.5C57.5998 28.5 52.8998 29.5 50.7998 30.6" fill="#BBBDBF"/>
</g>
<path fill-rule="evenodd" clip-rule="evenodd" d="M51.6001 35.6001C49.1001 36.3001 46.3001 36.8001 43.0001 37.1001C41.7001 37.2001 40.2001 37.3001 38.6001 37.4001L34.2001 37.6001C23.2001 38.1001 12.2001 38.7001 0.100098 39.3001V41.9001C11.7001 41.0001 23.0001 40.1001 34.4001 39.3001L38.8001 39.0001C40.5001 38.9001 41.9001 38.8001 43.3001 38.6001C46.7001 38.2001 49.6001 37.6001 52.1001 36.8001C54.9001 35.9001 57.7001 34.6001 60.3001 32.9001C62.2001 31.7001 64.2001 30.2001 66.2001 28.4001C64.0001 30.3001 61.9001 30.7001 59.8001 32.0001C57.1001 33.6001 54.4001 34.8001 51.6001 35.6001" fill="#BBBDBF"/>
<path fill-rule="evenodd" clip-rule="evenodd" d="M51.2002 39.9004C48.7002 40.5004 45.9002 40.9004 42.6002 41.0994C41.3002 41.2004 39.9002 41.2994 38.2002 41.2994L33.8002 41.5004C22.7002 41.9004 11.5002 42.4004 0.000183105 42.9004V45.5004C11.4002 44.7004 22.6002 44.0004 33.9002 43.2004L38.3002 42.9004C40.0002 42.7994 41.4002 42.7004 42.7002 42.5994C46.1002 42.2994 48.9002 41.7994 51.5002 41.0994C54.4002 40.2994 57.2002 39.2004 59.9002 37.7994C62.0002 36.7004 64.0002 35.4004 66.1002 33.7994V32.7004C63.8002 34.4004 61.6002 35.7004 59.4002 36.7994C56.8002 38.2004 54.0002 39.2004 51.2002 39.9004" fill="#BBBDBF"/>
<mask id="mask3_4509_501357" style="mask-type:alpha" maskUnits="userSpaceOnUse" x="0" y="38" width="67" height="11">
<path fill-rule="evenodd" clip-rule="evenodd" d="M0 38.2006H66.1998V48.7996H0V38.2006Z" fill="white"/>
</mask>
<g mask="url(#mask3_4509_501357)">
<path fill-rule="evenodd" clip-rule="evenodd" d="M50.7998 44.0996C48.2998 44.5996 45.4998 44.9006 42.1998 44.9996C40.8998 45.0996 39.5998 45.0996 37.8998 45.2006L-0.000183105 46.2006V48.7996L33.5998 46.9996L37.9998 46.7996C39.6998 46.7006 41.0998 46.5996 42.3998 46.4996C45.7998 46.2006 48.4998 45.9006 51.0998 45.2996C53.9998 44.7006 56.8998 43.7996 59.5998 42.5996C61.7998 41.7006 63.8998 40.5996 66.1998 39.2006V38.2006C63.7998 39.5996 61.4998 40.7006 59.1998 41.5996C56.4998 42.7996 53.6998 43.5996 50.7998 44.0996" fill="#BBBDBF"/>
</g>
<path fill-rule="evenodd" clip-rule="evenodd" d="M50.5 48.2998C45.8 48.9008 41.1 48.9998 36.4 49.0998C35.3 49.0998 34.3 49.0998 33.2 49.1998L0 49.7998V52.4008L33.3 50.9998C34.4 50.9998 35.4 50.9008 36.5 50.9008C41.2 50.6998 46 50.4998 50.7 49.7998C53.7 49.2998 56.6 48.5998 59.2 47.6998C61.4 46.9998 63.7 45.9998 66 44.7998V43.7998C63.6 44.9008 61.1 45.9008 58.8 46.5998C56.3 47.2998 53.5 47.9998 50.5 48.2998" fill="#BBBDBF"/>
<mask id="mask4_4509_501357" style="mask-type:alpha" maskUnits="userSpaceOnUse" x="0" y="49" width="67" height="7">
<path fill-rule="evenodd" clip-rule="evenodd" d="M0 49.2006H66.1998V55.7996H0V49.2006Z" fill="white"/>
</mask>
<g mask="url(#mask4_4509_501357)">
<path fill-rule="evenodd" clip-rule="evenodd" d="M50.2998 52.5996C45.8998 52.9996 41.4998 52.9996 37.0998 52.9996H33.0998C22.0998 52.9996 11.0998 53.0996 -0.000183105 53.2006V55.7996C10.5998 55.4006 21.8998 55.0996 33.1998 54.7006C34.4998 54.7006 35.8998 54.5996 37.1998 54.5996C41.4998 54.4996 45.9998 54.4006 50.3998 53.9006C53.4998 53.5996 56.2998 53.0996 58.9998 52.4006C61.2998 51.7996 63.6998 50.9996 66.1998 50.0996V49.2006C63.6998 50.0996 61.1998 50.7996 58.7998 51.4006C56.0998 51.9996 53.2998 52.4006 50.2998 52.5996" fill="#BBBDBF"/>
</g>
<path fill-rule="evenodd" clip-rule="evenodd" d="M50.1001 56.7998C48.3001 56.9008 46.3001 56.9008 44.1001 56.9008H41.6001L33.0001 56.7998C27.1001 56.7998 21.3001 56.6998 15.8001 56.6998L0.00012207 56.7998V59.4008L15.9001 58.9998C21.4001 58.9008 27.2001 58.6998 33.0001 58.5998L41.6001 58.4998C44.0001 58.4998 47.1001 58.4008 50.2001 58.1998C53.3001 57.9998 56.1001 57.6998 58.8001 57.2998C61.2001 56.9008 63.7001 56.4008 66.2001 55.7998V54.9008C63.7001 55.4998 61.1001 55.9998 58.7001 56.2998C55.9001 56.4998 53.2001 56.6998 50.1001 56.7998" fill="#BBBDBF"/>
<path fill-rule="evenodd" clip-rule="evenodd" d="M41.5 60.9004L32.9 60.7994C22 60.5994 11.1 60.4004 0 60.2004V62.7994C10.6 62.7004 21.8 62.5994 32.9 62.5004L41.5 62.4004C44.4 62.4004 47.2 62.2994 50.1 62.2004C56 62.0004 61.2 61.5994 66.2 60.9004V60.0004C61.3 60.5004 56 60.7994 50.1 60.9004H41.5" fill="#BBBDBF"/>
<path fill-rule="evenodd" clip-rule="evenodd" d="M66.1001 65.5L0.00012207 63.8V66.4H66.1001V65.5Z" fill="#BBBDBF"/>
<path fill-rule="evenodd" clip-rule="evenodd" d="M60.2002 22C57.7002 24 55.7002 25.5 52.7002 26.7C50.0002 27.8 47.1002 28.2 43.9002 28.7C41.8002 29 39.6002 29.4 37.5002 29.6C36.6002 29.7 35.8002 29.7 34.9002 29.8L0.000183105 32.3V34.9L34.9002 31.5L39.4002 31.1C41.1002 30.9 42.6002 30.8 44.0002 30.5C47.4002 30 50.3002 29.1 52.9002 27.9C55.6002 26.7 58.4002 24.7 60.9002 22.6C62.6002 21.1 64.3002 19.3 66.1002 17.3V16.4C63.9002 18.6 62.1002 20.5 60.2002 22" fill="#BBBDBF"/>
<path fill-rule="evenodd" clip-rule="evenodd" d="M94.2002 0C94.2002 0 106.1 18.9 108.3 22.4C110.5 25.9 113 28.6 121.8 30.5C130.6 32.4 134.4 33.2 134.4 33.2V33.9C134.4 33.9 128.8 32.7 121.6 31.1C114.4 29.5 111.5 29 108.2 24.4C105.5 20.6 94.2002 4.5 94.2002 4.5V0Z" fill="#BBBDBF"/>
<path fill-rule="evenodd" clip-rule="evenodd" d="M94.2002 21.6001C94.2002 21.6001 105 32.9001 108.2 36.2001C111.5 39.7001 115.8 40.9001 121.7 42.0001C127.3 43.0001 134.4 44.2001 134.4 44.2001V44.8001C134.4 44.8001 127.7 43.7001 121.7 42.7001C115.8 41.7001 111.6 41.1001 108.2 38.0001C105.2 35.2001 94.3002 25.0001 94.3002 25.0001L94.2002 21.6001Z" fill="#BBBDBF"/>
<path fill-rule="evenodd" clip-rule="evenodd" d="M94.2002 26.7998C94.2002 26.7998 104.5 36.3998 108.2 39.5998C111.6 42.5998 114.3 43.4998 121.7 44.9008C129.1 46.1998 134.4 46.9998 134.4 46.9998V47.6998C134.4 47.6998 127.7 46.5998 121.7 45.5998C115.7 44.5998 111.8 44.2998 108.2 41.2998C104 37.9008 94.2002 29.8998 94.2002 29.8998V26.7998Z" fill="#BBBDBF"/>
<path fill-rule="evenodd" clip-rule="evenodd" d="M94.2002 32.2002C94.2002 32.2002 106 41.5002 108.2 43.2002C110.4 44.8002 113.3 46.7002 121.7 48.0002C130.1 49.2002 134.4 49.8002 134.4 49.8002V50.5002C134.4 50.5002 126.8 49.4002 121.7 48.8002C116.6 48.2002 112.7 47.9002 108.2 44.9002C103.8 42.0002 94.2002 35.2002 94.2002 35.2002V32.2002Z" fill="#BBBDBF"/>
<path fill-rule="evenodd" clip-rule="evenodd" d="M94.2002 37.4004C94.2002 37.4004 106 45.2994 108.2 46.5004C110.4 47.7004 113.1 49.7994 121.7 50.9004C130.3 52.0004 134.4 52.5004 134.4 52.5004V53.2004C134.4 53.2004 127.3 52.4004 121.7 51.7994C116.1 51.2004 112.3 50.4004 108.2 48.0994C104.1 45.7994 94.2002 40.0994 94.2002 40.0994V37.4004Z" fill="#BBBDBF"/>
<path fill-rule="evenodd" clip-rule="evenodd" d="M94.2002 42.7002C94.2002 42.7002 104.6 48.4002 108.2 50.0992C112.1 52.0992 115.5 53.0002 121.7 53.8002C127.8 54.5002 134.4 55.2002 134.4 55.2002V55.8002C134.4 55.8002 128.3 55.0992 121.7 54.5002C115.2 53.9002 112.9 53.5992 108.2 51.5002C104 49.5992 94.2002 45.0992 94.2002 45.0992V42.7002Z" fill="#BBBDBF"/>
<path fill-rule="evenodd" clip-rule="evenodd" d="M94.2002 48C94.2002 48 102.4 51.5 108.2 53.8C113.9 56.1 118.2 56.3 121.7 56.6C123.2 56.8 134.3 57.9 134.3 57.9V58.5C134.3 58.5 127.7 58 121.6 57.4C115.6 56.9 113 56.6 108.1 55C103.2 53.4 94.1002 50.2 94.1002 50.2L94.2002 48Z" fill="#BBBDBF"/>
<path fill-rule="evenodd" clip-rule="evenodd" d="M94.2002 53.4004C94.2002 53.4004 102.5 56.0004 108.2 57.5004C113.9 59.0004 119.1 59.5994 121.7 59.7994C124.3 60.0004 134.4 60.7994 134.4 60.7994V61.4004C134.4 61.4004 128.7 61.0004 121.7 60.5004C116 60.0994 111.5 59.7004 108.2 58.9004C104.5 58.0994 94.2002 55.5994 94.2002 55.5994V53.4004Z" fill="#BBBDBF"/>
<path fill-rule="evenodd" clip-rule="evenodd" d="M94.2002 58.7002C94.2002 58.7002 101 59.9002 108.2 61.0992C113.6 62.0002 120.9 62.5992 121.7 62.5992C122.5 62.5992 134.4 63.5002 134.4 63.5002V64.0992C134.4 64.0992 126.8 63.7002 121.7 63.4002C116.4 63.0992 111.2 62.8002 108.2 62.5002C101.5 61.8002 94.2002 60.9002 94.2002 60.9002V58.7002Z" fill="#BBBDBF"/>
<path fill-rule="evenodd" clip-rule="evenodd" d="M94.2002 64.2998C94.2002 64.2998 104.9 64.6998 108.2 64.7998C111.5 64.9008 134.4 65.7998 134.4 65.7998V66.4008H94.2002V64.2998Z" fill="#BBBDBF"/>
<path fill-rule="evenodd" clip-rule="evenodd" d="M121.7 33.3999C112 31.2999 109.8 27.7999 108.2 25.5999C106.6 23.3999 94.3002 5.3999 94.3002 5.3999V9.4999C94.8002 10.0999 105.3 23.8999 108.3 27.6999C111.6 31.9999 116.8 32.9999 121.8 33.9999C126.8 35.0999 134.5 36.5999 134.5 36.5999V35.9999C134.4 35.9999 124.2 33.9999 121.7 33.3999" fill="#BBBDBF"/>
<path fill-rule="evenodd" clip-rule="evenodd" d="M121.7 36.2998C113.7 34.6998 110.5 32.1998 108.2 29.1998C105.9 26.0998 94.3002 10.8998 94.3002 10.8998V14.6998C94.8002 15.2998 105.4 27.7998 108.2 31.0998C111.5 34.8998 116.1 35.8998 121.7 36.8998C127.3 37.9008 134.4 39.2998 134.4 39.2998V38.6998C134.4 38.6998 126.3 37.1998 121.7 36.2998" fill="#BBBDBF"/>
<path fill-rule="evenodd" clip-rule="evenodd" d="M121.7 39.2002C113.4 37.5992 111.7 36.3002 108.2 32.4002C106 30.0002 94.7002 16.7002 94.2002 16.1002V19.6002C94.2002 19.6002 104.7 30.8002 108.1 34.2002C112.5 38.5992 116.7 38.9002 121.6 39.8002C126.5 40.7002 134.3 42.0992 134.3 42.0992V41.5002C134.4 41.5002 125 39.9002 121.7 39.2002" fill="#BBBDBF"/>
<mask id="mask5_4509_501357" style="mask-type:alpha" maskUnits="userSpaceOnUse" x="0" y="0" width="277" height="67">
<path fill-rule="evenodd" clip-rule="evenodd" d="M0 66.7H276.7V0H0V66.7Z" fill="white"/>
</mask>
<g mask="url(#mask5_4509_501357)">
<path fill-rule="evenodd" clip-rule="evenodd" d="M27.5 66.3H85.4V27.6H27.5V66.3Z" fill="#004494"/>
<path fill-rule="evenodd" clip-rule="evenodd" d="M57.1001 33.1001H59.1001L57.5001 34.4001L58.1001 36.4001L56.5001 35.2001L54.9001 36.4001L55.5001 34.4001L53.9001 33.1001H55.9001L56.5001 31.1001L57.1001 33.1001Z" fill="#FFF100"/>
<path fill-rule="evenodd" clip-rule="evenodd" d="M57.1001 58.9004H59.1001L57.5001 60.0994L58.1001 62.0004L56.5001 60.7994L54.9001 62.0004L55.5001 60.0994L53.9001 58.9004H55.9001L56.5001 57.0004L57.1001 58.9004Z" fill="#FFF100"/>
<path fill-rule="evenodd" clip-rule="evenodd" d="M63.5 57.2002H65.5L63.9 58.4002L64.5 60.3002L62.9 59.0992L61.3 60.3002L61.9 58.4002L60.3 57.2002H62.3L62.9 55.3002L63.5 57.2002Z" fill="#FFF100"/>
<path fill-rule="evenodd" clip-rule="evenodd" d="M63.5 34.7998H65.5L63.9 35.9998L64.5 37.9008L62.9 36.6998L61.3 37.9998L62 35.9998L60.4 34.7998H62.4L63 32.8998L63.5 34.7998Z" fill="#FFF100"/>
<path fill-rule="evenodd" clip-rule="evenodd" d="M68.2998 39.5996H70.2998L68.6998 40.7996L69.2998 42.7006L67.6998 41.4996L66.0998 42.7006L66.6998 40.7996L65.0998 39.5996H67.0998L67.6998 37.7006L68.2998 39.5996Z" fill="#FFF100"/>
<path fill-rule="evenodd" clip-rule="evenodd" d="M68.2998 52.5996H70.2998L68.6998 53.7996L69.2998 55.7006L67.6998 54.4996L66.0998 55.7006L66.6998 53.7996L65.0998 52.5996H67.0998L67.6998 50.7006L68.2998 52.5996Z" fill="#FFF100"/>
<path fill-rule="evenodd" clip-rule="evenodd" d="M70.1001 46H72.1001L70.5001 47.2L71.1001 49.1L69.5001 47.9L67.9001 49.1L68.5001 47.2L66.8001 46H68.8001L69.4001 44.1L70.1001 46Z" fill="#FFF100"/>
<path fill-rule="evenodd" clip-rule="evenodd" d="M50.5 34.7998H52.5L50.9 35.9998L51.5 37.9008L50 36.7998L48.3 37.9998L48.9 36.0998L47.3 34.8998H49.3L50 32.9998L50.5 34.7998Z" fill="#FFF100"/>
<path fill-rule="evenodd" clip-rule="evenodd" d="M45.8999 39.5996H47.8999L46.2999 40.7996L46.8999 42.7006L45.2999 41.4996L43.6999 42.7006L44.2999 40.7996L42.6999 39.5996H44.6999L45.2999 37.7006L45.8999 39.5996Z" fill="#FFF100"/>
<path fill-rule="evenodd" clip-rule="evenodd" d="M44.2002 46H46.2002L44.6002 47.2L45.2002 49.1L43.6002 47.9L42.0002 49.1L42.6002 47.2L41.0002 46H43.0002L43.6002 44.1L44.2002 46Z" fill="#FFF100"/>
<path fill-rule="evenodd" clip-rule="evenodd" d="M45.8999 52.5996H47.8999L46.2999 53.7996L46.8999 55.7006L45.2999 54.4996L43.6999 55.7006L44.2999 53.7996L42.6999 52.5996H44.6999L45.2999 50.7006L45.8999 52.5996Z" fill="#FFF100"/>
<path fill-rule="evenodd" clip-rule="evenodd" d="M50.6001 57.2998H52.6001L51.0001 58.4998L51.6001 60.4008L50.0001 59.1998L48.4001 60.4008L49.0001 58.4998L47.4001 57.2998H49.4001L50.0001 55.4008L50.6001 57.2998Z" fill="#FFF100"/>
</g>
<path d="M158.018 42.8135H160.77C160.555 44.2325 160.211 45.7375 159.867 46.7695L161.05 47.393C161.652 45.931 162.189 43.6305 162.512 41.6525L161.458 41.244L161.179 41.33H155.481C155.739 40.169 155.954 38.965 156.148 37.7395L154.535 37.503C154.105 40.9215 153.31 44.2755 151.912 46.404C152.299 46.619 152.966 47.135 153.245 47.4145C153.998 46.1675 154.599 44.5765 155.094 42.8135H156.47V45.845C156.491 47.307 155.976 51.2845 153.116 54.187V53.0045H145.548V40.384H152.922V38.9005H144V56.1005H145.548V54.488H152.815C152.299 54.961 151.719 55.391 151.074 55.778C151.353 56.079 151.826 56.724 151.998 57.068C155.675 54.8105 156.986 50.876 157.244 49.07C157.48 50.8115 158.685 54.918 161.867 57.0465C162.082 56.681 162.576 56.036 162.856 55.692C158.706 53.0045 157.997 47.5435 158.018 45.845V42.8135ZM150.257 41.029C149.956 42.534 149.569 43.9745 149.096 45.329C148.3 44.469 147.462 43.652 146.666 42.921L145.72 43.91C146.645 44.77 147.634 45.802 148.537 46.834C147.784 48.597 146.86 50.145 145.763 51.349C146.086 51.5855 146.709 52.08 146.967 52.338C147.978 51.1555 148.838 49.715 149.569 48.081C150.429 49.1345 151.138 50.1665 151.59 51.005L152.643 49.844C152.105 48.898 151.224 47.737 150.214 46.5545C150.816 44.9205 151.332 43.136 151.719 41.287L150.257 41.029Z" fill="#626366"/>
<path d="M168.811 37.89V44.512C168.811 48.4465 168.446 52.7035 164.984 55.907C165.328 56.1865 165.887 56.724 166.145 57.111C169.951 53.585 170.381 48.898 170.381 44.512V37.89H168.811ZM174.896 38.3415V55.6705H176.465V38.3415H174.896ZM181.26 37.804V56.8745H182.851V37.804H181.26ZM166.403 42.7705C166.08 44.6625 165.371 46.9415 164.404 48.425L165.758 49.027C166.747 47.522 167.371 45.071 167.758 43.1575L166.403 42.7705ZM170.918 43.652C171.671 45.372 172.337 47.651 172.531 49.0485L173.928 48.4465C173.713 47.0705 172.982 44.856 172.23 43.136L170.918 43.652ZM176.96 43.5445C177.927 45.2215 178.916 47.479 179.282 48.8765L180.636 48.167C180.249 46.791 179.196 44.598 178.185 42.9425L176.96 43.5445Z" fill="#626366"/>
<path d="M199.363 50.5105C198.739 51.6715 197.879 52.596 196.74 53.327C195.149 52.94 193.472 52.5745 191.816 52.2735C192.225 51.7145 192.633 51.1125 193.042 50.5105H199.363ZM195.105 47.522H196.653V43.3295C198.674 45.3935 201.878 47.178 204.781 48.0595C204.974 47.651 205.447 47.0705 205.791 46.7265C203.233 46.0815 200.416 44.77 198.524 43.222H205.34V41.9105H196.653V39.6315C199.104 39.395 201.405 39.094 203.19 38.6855L202.007 37.546C198.846 38.2555 192.87 38.707 187.968 38.836C188.097 39.1585 188.29 39.739 188.312 40.083C190.462 40.04 192.826 39.9325 195.105 39.7605V41.9105H186.484V43.222H193.299C191.386 44.856 188.57 46.275 186.011 46.963C186.334 47.264 186.785 47.823 186.979 48.21C189.881 47.307 193.106 45.458 195.105 43.3295V47.264L193.579 46.8555C193.149 47.565 192.655 48.339 192.117 49.1345H186.248V50.5105H191.193C190.419 51.6285 189.644 52.7035 189.021 53.542L190.505 54.058L190.956 53.456C192.268 53.714 193.558 53.9935 194.805 54.2945C192.719 55.1115 189.989 55.5415 186.549 55.735C186.828 56.1005 187.065 56.7025 187.172 57.154C191.429 56.81 194.676 56.1435 197.062 54.8535C199.771 55.5845 202.201 56.38 204.007 57.1325L204.974 55.821C203.319 55.1545 201.104 54.4665 198.653 53.8C199.728 52.9185 200.545 51.8435 201.147 50.5105H205.619V49.1345H193.966C194.375 48.5325 194.761 47.952 195.105 47.393V47.522Z" fill="#626366"/>
<path d="M222.561 41.8675H212.392V39.6315H222.561V41.8675ZM224.216 38.3415H210.8V43.1575H224.216V38.3415ZM211.489 50.8545H223.421V52.4025H211.489V50.8545ZM211.489 48.21H223.421V49.715H211.489V48.21ZM211.489 45.5655H223.421V47.0705H211.489V45.5655ZM225.055 53.585V44.383H209.897V53.585H213.918C212.585 54.4665 209.812 55.4555 207.576 55.9715C207.963 56.294 208.479 56.8315 208.758 57.154C210.951 56.595 213.725 55.563 215.445 54.5095L214.004 53.585H225.055ZM219.164 54.66C221.422 55.3265 224.303 56.423 225.915 57.1755L227.291 56.0145C225.614 55.3265 222.755 54.273 220.54 53.628L219.164 54.66Z" fill="#626366"/>
<path d="M230.15 49.715H235.805C235.225 51.2845 234.3 53.241 233.483 54.7245C232.322 54.7675 231.247 54.789 230.323 54.8105L230.537 56.38C234.214 56.251 239.783 56.0145 245.05 55.7565C245.459 56.2725 245.781 56.767 246.039 57.197L247.479 56.3155C246.49 54.7245 244.405 52.4025 242.427 50.704L241.073 51.435C242.019 52.2735 243.029 53.327 243.91 54.3375C240.9 54.4665 237.869 54.574 235.203 54.66C236.063 53.155 236.987 51.306 237.74 49.715H247.824V48.2315H230.15V49.715ZM233.806 44.1465V45.6085H243.975V44.1465H233.806ZM237.934 37.546C236.278 40.2765 232.709 43.3725 229.033 45.1355C229.377 45.458 229.785 46.0385 229.957 46.404C233.612 44.598 237.095 41.6525 238.837 39.0725C240.836 41.846 244.599 44.7055 247.91 46.318C248.189 45.845 248.576 45.286 248.941 44.899C245.566 43.5015 241.825 40.7065 239.568 37.546H237.934Z" fill="#626366"/>
<path fill-rule="evenodd" clip-rule="evenodd" d="M255.941 66.7H259.241V28H255.941V66.7Z" fill="#004494"/>
</svg>
