<svg
  width="291"
  height="72"
  viewBox="0 0 291 72"
  fill="none"
  xmlns="http://www.w3.org/2000/svg"
>
<path
    fill-rule="evenodd"
    clip-rule="evenodd"
    d="M246.4 66.7H249.7V28H246.4V66.7Z"
    fill="#004494"
  />
<path
    d="M147.753 45.8012C147.7 45.9612 147.633 46.0745 147.553 46.1412C147.473 46.1945 147.36 46.2212 147.213 46.2212H145.653C145.413 46.2212 145.34 46.0878 145.433 45.8212L149.473 33.3812C149.527 33.2345 149.587 33.1278 149.653 33.0612C149.72 32.9945 149.847 32.9612 150.033 32.9612H151.773C151.96 32.9612 152.087 33.0012 152.153 33.0812C152.22 33.1478 152.273 33.2478 152.313 33.3812L156.433 45.8612C156.5 46.1012 156.433 46.2212 156.233 46.2212H154.473C154.313 46.2212 154.2 46.1878 154.133 46.1212C154.08 46.0545 154.027 45.9478 153.973 45.8012L153.133 42.9212H148.653L147.753 45.8012ZM151.753 38.2012L150.933 35.3212H150.853L150.053 38.1612L149.213 41.0412H152.593L151.753 38.2012Z"
    fill="#626366"
  />
<path
    d="M161.815 43.7612C161.815 43.7212 161.855 43.5812 161.935 43.3412C162.015 43.0878 162.102 42.8145 162.195 42.5212C162.302 42.1745 162.429 41.7945 162.575 41.3812L164.175 36.7412C164.215 36.6345 164.262 36.5545 164.315 36.5012C164.382 36.4478 164.489 36.4212 164.635 36.4212H166.155C166.422 36.4212 166.502 36.5478 166.395 36.8012L162.995 45.8012C162.942 45.9478 162.875 46.0545 162.795 46.1212C162.715 46.1878 162.595 46.2212 162.435 46.2212H161.095C160.909 46.2212 160.782 46.1945 160.715 46.1412C160.649 46.0745 160.589 45.9678 160.535 45.8212L157.135 36.8212C157.095 36.7145 157.089 36.6212 157.115 36.5412C157.142 36.4612 157.222 36.4212 157.355 36.4212H158.935C159.082 36.4212 159.182 36.4478 159.235 36.5012C159.302 36.5412 159.362 36.6345 159.415 36.7812L161.015 41.4612C161.135 41.8478 161.249 42.2078 161.355 42.5412C161.449 42.8212 161.529 43.0878 161.595 43.3412C161.675 43.5812 161.729 43.7212 161.755 43.7612H161.815Z"
    fill="#626366"
  />
<path
    d="M170.376 45.8412C170.376 46.0945 170.249 46.2212 169.996 46.2212H168.556C168.303 46.2212 168.176 46.0945 168.176 45.8412V36.8212C168.176 36.5545 168.303 36.4212 168.556 36.4212H169.976C170.243 36.4212 170.376 36.5545 170.376 36.8212V37.7012L170.416 37.7412C170.563 37.6078 170.756 37.4678 170.996 37.3212C171.236 37.1612 171.489 37.0212 171.756 36.9012C172.036 36.7678 172.316 36.6478 172.596 36.5412C172.876 36.4345 173.136 36.3612 173.376 36.3212C173.509 36.2945 173.616 36.3012 173.696 36.3412C173.776 36.3812 173.829 36.4878 173.856 36.6612L173.996 38.0012C174.009 38.1478 174.003 38.2545 173.976 38.3212C173.949 38.3878 173.829 38.4412 173.616 38.4812C173.336 38.5345 173.043 38.6012 172.736 38.6812C172.429 38.7478 172.129 38.8278 171.836 38.9212C171.543 39.0012 171.269 39.0812 171.016 39.1612C170.763 39.2412 170.549 39.3212 170.376 39.4012V45.8412Z"
    fill="#626366"
  />
<path
    d="M183.581 45.8412C183.581 46.0945 183.454 46.2212 183.201 46.2212H181.781C181.634 46.2212 181.534 46.1878 181.481 46.1212C181.428 46.0545 181.401 45.9612 181.401 45.8412V45.2212L181.361 45.2012C181.161 45.3345 180.928 45.4745 180.661 45.6212C180.408 45.7545 180.134 45.8812 179.841 46.0012C179.548 46.1212 179.241 46.2145 178.921 46.2812C178.614 46.3612 178.308 46.4012 178.001 46.4012C177.321 46.4012 176.781 46.3078 176.381 46.1212C175.994 45.9345 175.701 45.6745 175.501 45.3412C175.301 45.0079 175.174 44.6145 175.121 44.1612C175.068 43.7078 175.041 43.2212 175.041 42.7012V36.8212C175.041 36.5545 175.168 36.4212 175.421 36.4212H176.881C177.121 36.4212 177.241 36.5545 177.241 36.8212V42.4412C177.241 42.7478 177.261 43.0212 177.301 43.2612C177.341 43.5012 177.414 43.7078 177.521 43.8812C177.628 44.0412 177.774 44.1678 177.961 44.2612C178.148 44.3545 178.394 44.4012 178.701 44.4012C178.914 44.4012 179.148 44.3678 179.401 44.3012C179.668 44.2345 179.928 44.1545 180.181 44.0612C180.434 43.9545 180.668 43.8545 180.881 43.7612C181.094 43.6545 181.268 43.5678 181.401 43.5012V36.8212C181.401 36.7012 181.428 36.6078 181.481 36.5412C181.534 36.4612 181.634 36.4212 181.781 36.4212H183.201C183.454 36.4212 183.581 36.5545 183.581 36.8212V45.8412Z"
    fill="#626366"
  />
<path
    d="M194.366 41.2612C194.366 42.0745 194.306 42.8012 194.186 43.4412C194.066 44.0812 193.853 44.6212 193.546 45.0612C193.253 45.5012 192.846 45.8345 192.326 46.0612C191.819 46.2878 191.173 46.4012 190.386 46.4012C190.053 46.4012 189.666 46.3678 189.226 46.3012C188.799 46.2345 188.353 46.1212 187.886 45.9612L187.866 45.9812V49.5012C187.866 49.6078 187.839 49.7012 187.786 49.7812C187.746 49.8612 187.646 49.9012 187.486 49.9012H186.066C185.906 49.9012 185.799 49.8678 185.746 49.8012C185.706 49.7345 185.686 49.6345 185.686 49.5012V36.8212C185.686 36.5545 185.813 36.4212 186.066 36.4212H187.486C187.633 36.4212 187.726 36.4612 187.766 36.5412C187.819 36.6078 187.846 36.7012 187.846 36.8212V37.4212L187.906 37.4612C188.079 37.3412 188.286 37.2145 188.526 37.0812C188.779 36.9345 189.046 36.8012 189.326 36.6812C189.606 36.5612 189.893 36.4612 190.186 36.3812C190.479 36.3012 190.773 36.2612 191.066 36.2612C191.719 36.2612 192.259 36.3812 192.686 36.6212C193.113 36.8612 193.446 37.2012 193.686 37.6412C193.939 38.0678 194.113 38.5878 194.206 39.2012C194.313 39.8145 194.366 40.5012 194.366 41.2612ZM192.106 41.2412C192.106 40.6012 192.073 40.0878 192.006 39.7012C191.953 39.3145 191.859 39.0145 191.726 38.8012C191.593 38.5878 191.426 38.4478 191.226 38.3812C191.039 38.3012 190.813 38.2612 190.546 38.2612C190.346 38.2612 190.119 38.2945 189.866 38.3612C189.613 38.4278 189.359 38.5078 189.106 38.6012C188.866 38.6812 188.633 38.7745 188.406 38.8812C188.193 38.9878 188.013 39.0812 187.866 39.1612V44.1612C188.319 44.2945 188.726 44.3878 189.086 44.4412C189.459 44.4812 189.819 44.5012 190.166 44.5012C190.526 44.5012 190.826 44.4545 191.066 44.3612C191.319 44.2545 191.519 44.0745 191.666 43.8212C191.826 43.5679 191.939 43.2345 192.006 42.8212C192.073 42.3945 192.106 41.8678 192.106 41.2412Z"
    fill="#626366"
  />
<path
    d="M202.216 41.7612H199.776C199.269 41.7612 198.869 41.8812 198.576 42.1212C198.282 42.3478 198.136 42.7878 198.136 43.4412C198.136 43.8812 198.222 44.1878 198.396 44.3612C198.582 44.5212 198.909 44.6012 199.376 44.6012C199.589 44.6012 199.822 44.5745 200.076 44.5212C200.329 44.4678 200.582 44.3945 200.836 44.3012C201.089 44.2078 201.336 44.1078 201.576 44.0012C201.816 43.8812 202.029 43.7678 202.216 43.6612V41.7612ZM202.336 45.0812C201.829 45.4678 201.256 45.7812 200.616 46.0212C199.989 46.2612 199.336 46.3812 198.656 46.3812C198.122 46.3812 197.676 46.3145 197.316 46.1812C196.969 46.0345 196.689 45.8412 196.476 45.6012C196.276 45.3478 196.129 45.0478 196.036 44.7012C195.956 44.3545 195.916 43.9678 195.916 43.5412C195.902 42.3678 196.209 41.5212 196.836 41.0012C197.462 40.4678 198.409 40.2012 199.676 40.2012H202.236V39.6812C202.236 39.3878 202.202 39.1412 202.136 38.9412C202.082 38.7278 201.976 38.5545 201.816 38.4212C201.656 38.2878 201.442 38.1945 201.176 38.1412C200.909 38.0878 200.569 38.0612 200.156 38.0612C199.996 38.0612 199.796 38.0678 199.556 38.0812C199.329 38.0945 199.089 38.1078 198.836 38.1212C198.596 38.1345 198.349 38.1545 198.096 38.1812C197.856 38.2078 197.636 38.2278 197.436 38.2412C197.236 38.2678 197.096 38.2745 197.016 38.2612C196.949 38.2345 196.902 38.1478 196.876 38.0012L196.696 37.2612C196.669 37.1278 196.682 37.0212 196.736 36.9412C196.789 36.8478 196.929 36.7545 197.156 36.6612C197.369 36.5812 197.622 36.5145 197.916 36.4612C198.209 36.4078 198.509 36.3678 198.816 36.3412C199.122 36.3012 199.422 36.2745 199.716 36.2612C200.022 36.2345 200.296 36.2212 200.536 36.2212C201.402 36.2212 202.089 36.3078 202.596 36.4812C203.116 36.6545 203.509 36.9012 203.776 37.2212C204.042 37.5278 204.216 37.9078 204.296 38.3612C204.376 38.8145 204.416 39.3212 204.416 39.8812V43.7412C204.416 43.9412 204.422 44.1012 204.436 44.2212C204.462 44.3278 204.496 44.4145 204.536 44.4812C204.589 44.5345 204.662 44.5745 204.756 44.6012C204.849 44.6278 204.976 44.6479 205.136 44.6612C205.282 44.6745 205.382 44.7012 205.436 44.7412C205.489 44.7812 205.516 44.8545 205.516 44.9612V45.8012C205.516 46.0278 205.356 46.1678 205.036 46.2212C204.876 46.2478 204.716 46.2678 204.556 46.2812C204.396 46.3078 204.242 46.3212 204.096 46.3212C203.629 46.3212 203.249 46.2345 202.956 46.0612C202.676 45.8878 202.482 45.5678 202.376 45.1012L202.336 45.0812Z"
    fill="#626366"
  />
<path
    d="M147.694 59.3412L149.214 57.3812L152.574 53.2412C152.668 53.1345 152.761 53.0612 152.854 53.0212C152.948 52.9678 153.074 52.9412 153.234 52.9412H155.054C155.201 52.9412 155.288 52.9812 155.314 53.0612C155.354 53.1412 155.328 53.2345 155.234 53.3412L150.894 58.6212L155.374 65.8012C155.454 65.9345 155.468 66.0412 155.414 66.1212C155.361 66.1878 155.281 66.2212 155.174 66.2212H153.334C153.161 66.2212 153.028 66.1878 152.934 66.1212C152.854 66.0545 152.774 65.9612 152.694 65.8412L149.414 60.4012L147.654 62.5812V65.8412C147.654 65.9478 147.628 66.0412 147.574 66.1212C147.534 66.1878 147.441 66.2212 147.294 66.2212H145.794C145.528 66.2212 145.394 66.0945 145.394 65.8412V53.3412C145.394 53.0745 145.528 52.9412 145.794 52.9412H147.294C147.441 52.9412 147.534 52.9812 147.574 53.0612C147.628 53.1278 147.654 53.2212 147.654 53.3412V59.3412H147.694Z"
    fill="#626366"
  />
<path
    d="M165.256 61.1612C165.256 61.7345 165.216 62.3278 165.136 62.9412C165.069 63.5545 164.889 64.1212 164.596 64.6412C164.302 65.1478 163.862 65.5678 163.276 65.9012C162.689 66.2212 161.876 66.3812 160.836 66.3812C159.836 66.3812 159.049 66.2212 158.476 65.9012C157.902 65.5678 157.469 65.1478 157.176 64.6412C156.896 64.1212 156.722 63.5545 156.656 62.9412C156.589 62.3278 156.556 61.7345 156.556 61.1612C156.556 60.6945 156.596 60.1745 156.676 59.6012C156.769 59.0278 156.962 58.4945 157.256 58.0012C157.549 57.4945 157.976 57.0745 158.536 56.7412C159.109 56.3945 159.876 56.2212 160.836 56.2212C161.809 56.2212 162.582 56.3678 163.156 56.6612C163.742 56.9545 164.189 57.3412 164.496 57.8212C164.802 58.2878 165.002 58.8145 165.096 59.4012C165.202 59.9878 165.256 60.5745 165.256 61.1612ZM163.016 61.3012C163.016 60.7678 162.989 60.3078 162.936 59.9212C162.882 59.5212 162.776 59.1945 162.616 58.9412C162.456 58.6745 162.236 58.4745 161.956 58.3412C161.676 58.2078 161.309 58.1412 160.856 58.1412C160.429 58.1412 160.082 58.2078 159.816 58.3412C159.549 58.4745 159.336 58.6745 159.176 58.9412C159.029 59.2078 158.922 59.5412 158.856 59.9412C158.802 60.3278 158.776 60.7812 158.776 61.3012C158.776 61.8345 158.802 62.3012 158.856 62.7012C158.922 63.0878 159.029 63.4145 159.176 63.6812C159.322 63.9345 159.529 64.1278 159.796 64.2612C160.062 64.3945 160.409 64.4612 160.836 64.4612C161.289 64.4612 161.656 64.4012 161.936 64.2812C162.229 64.1478 162.456 63.9545 162.616 63.7012C162.776 63.4345 162.882 63.1012 162.936 62.7012C162.989 62.3012 163.016 61.8345 163.016 61.3012Z"
    fill="#626366"
  />
<path
    d="M181.545 65.8412C181.545 65.9612 181.518 66.0545 181.465 66.1212C181.425 66.1878 181.331 66.2212 181.185 66.2212H179.745C179.491 66.2212 179.365 66.0945 179.365 65.8412V60.1612C179.365 59.4145 179.265 58.9145 179.065 58.6612C178.865 58.3945 178.511 58.2612 178.005 58.2612C177.818 58.2612 177.605 58.2945 177.365 58.3612C177.138 58.4278 176.905 58.5078 176.665 58.6012C176.438 58.6812 176.218 58.7745 176.005 58.8812C175.791 58.9878 175.605 59.0812 175.445 59.1612C175.445 59.2678 175.445 59.4078 175.445 59.5812C175.458 59.7545 175.465 59.9545 175.465 60.1812V65.8412C175.465 65.9612 175.438 66.0545 175.385 66.1212C175.331 66.1878 175.231 66.2212 175.085 66.2212H173.625C173.398 66.2212 173.285 66.0945 173.285 65.8412V60.0612C173.285 59.4478 173.191 58.9945 173.005 58.7012C172.818 58.4078 172.471 58.2612 171.965 58.2612C171.791 58.2612 171.591 58.2878 171.365 58.3412C171.151 58.3945 170.925 58.4678 170.685 58.5612C170.458 58.6545 170.231 58.7545 170.005 58.8612C169.778 58.9678 169.571 59.0678 169.385 59.1612V65.8412C169.385 66.0945 169.258 66.2212 169.005 66.2212H167.565C167.325 66.2212 167.205 66.0945 167.205 65.8412V56.8212C167.205 56.5545 167.325 56.4212 167.565 56.4212H168.985C169.251 56.4212 169.385 56.5545 169.385 56.8212V57.4012L169.405 57.4212C169.605 57.2878 169.818 57.1545 170.045 57.0212C170.271 56.8745 170.511 56.7478 170.765 56.6412C171.031 56.5345 171.298 56.4478 171.565 56.3812C171.831 56.3012 172.105 56.2545 172.385 56.2412C172.958 56.2412 173.478 56.3345 173.945 56.5212C174.425 56.6945 174.818 57.0678 175.125 57.6412C175.631 57.2678 176.185 56.9412 176.785 56.6612C177.385 56.3812 178.005 56.2412 178.645 56.2412C179.298 56.2412 179.818 56.3412 180.205 56.5412C180.591 56.7412 180.885 57.0145 181.085 57.3612C181.285 57.6945 181.411 58.0878 181.465 58.5412C181.518 58.9945 181.545 59.4678 181.545 59.9612V65.8412Z"
    fill="#626366"
  />
<path
    d="M186.289 53.8212C186.289 53.9812 186.276 54.1345 186.249 54.2812C186.222 54.4145 186.162 54.5345 186.069 54.6412C185.989 54.7478 185.869 54.8345 185.709 54.9012C185.562 54.9545 185.362 54.9812 185.109 54.9812C184.842 54.9812 184.629 54.9478 184.469 54.8812C184.322 54.8145 184.209 54.7278 184.129 54.6212C184.049 54.5145 183.996 54.3945 183.969 54.2612C183.942 54.1145 183.929 53.9678 183.929 53.8212C183.929 53.5012 184.002 53.2345 184.149 53.0212C184.309 52.7945 184.629 52.6812 185.109 52.6812C185.602 52.6812 185.922 52.7878 186.069 53.0012C186.216 53.2012 186.289 53.4745 186.289 53.8212ZM186.169 65.8412C186.169 65.9478 186.142 66.0412 186.089 66.1212C186.049 66.1878 185.956 66.2212 185.809 66.2212H184.389C184.122 66.2212 183.989 66.0945 183.989 65.8412V56.8012C183.989 56.5478 184.122 56.4212 184.389 56.4212H185.809C185.956 56.4212 186.049 56.4612 186.089 56.5412C186.142 56.6078 186.169 56.6945 186.169 56.8012V65.8412Z"
    fill="#626366"
  />
<path
    d="M195.97 63.2812C195.97 63.8678 195.857 64.3612 195.63 64.7612C195.404 65.1478 195.097 65.4612 194.71 65.7012C194.337 65.9412 193.91 66.1145 193.43 66.2212C192.95 66.3278 192.45 66.3812 191.93 66.3812C191.424 66.3812 190.877 66.3412 190.29 66.2612C189.704 66.1945 189.217 66.0878 188.83 65.9412C188.63 65.8612 188.504 65.7745 188.45 65.6812C188.397 65.5745 188.384 65.4412 188.41 65.2812L188.55 64.6212C188.577 64.4612 188.63 64.3678 188.71 64.3412C188.79 64.3012 188.91 64.2945 189.07 64.3212C189.284 64.3612 189.517 64.3945 189.77 64.4212C190.037 64.4478 190.297 64.4745 190.55 64.5012C190.817 64.5145 191.064 64.5278 191.29 64.5412C191.53 64.5545 191.737 64.5612 191.91 64.5612C192.55 64.5612 193.01 64.4745 193.29 64.3012C193.57 64.1145 193.71 63.8212 193.71 63.4212C193.71 63.1945 193.684 63.0078 193.63 62.8612C193.59 62.7145 193.51 62.5945 193.39 62.5012C193.27 62.4078 193.104 62.3345 192.89 62.2812C192.69 62.2145 192.43 62.1612 192.11 62.1212C191.617 62.0545 191.15 61.9678 190.71 61.8612C190.27 61.7545 189.877 61.6012 189.53 61.4012C189.197 61.1878 188.93 60.9145 188.73 60.5812C188.53 60.2345 188.43 59.7878 188.43 59.2412C188.43 58.2545 188.777 57.5078 189.47 57.0012C190.164 56.4812 191.07 56.2212 192.19 56.2212C192.39 56.2212 192.624 56.2278 192.89 56.2412C193.157 56.2545 193.424 56.2812 193.69 56.3212C193.97 56.3612 194.244 56.4078 194.51 56.4612C194.777 56.5145 195.017 56.5812 195.23 56.6612C195.564 56.7945 195.704 56.9945 195.65 57.2612L195.49 57.9812C195.464 58.1278 195.41 58.2212 195.33 58.2612C195.264 58.2878 195.137 58.2878 194.95 58.2612C194.524 58.2078 194.057 58.1612 193.55 58.1212C193.044 58.0678 192.604 58.0412 192.23 58.0412C191.59 58.0412 191.164 58.1345 190.95 58.3212C190.75 58.4945 190.65 58.7745 190.65 59.1612C190.65 59.5478 190.777 59.8012 191.03 59.9212C191.297 60.0412 191.737 60.1478 192.35 60.2412C192.83 60.3078 193.284 60.3945 193.71 60.5012C194.15 60.6078 194.537 60.7678 194.87 60.9812C195.204 61.1945 195.47 61.4812 195.67 61.8412C195.87 62.2012 195.97 62.6812 195.97 63.2812Z"
    fill="#626366"
  />
<path
    d="M201.73 63.4212C201.877 63.0078 202.01 62.6212 202.13 62.2612C202.263 61.9012 202.377 61.5878 202.47 61.3212C202.577 61.0012 202.677 60.7078 202.77 60.4412L204.01 56.7612C204.05 56.6412 204.103 56.5545 204.17 56.5012C204.237 56.4478 204.343 56.4212 204.49 56.4212H205.97C206.13 56.4212 206.217 56.4612 206.23 56.5412C206.243 56.6212 206.23 56.7145 206.19 56.8212L201.53 69.5412C201.477 69.6745 201.417 69.7678 201.35 69.8212C201.283 69.8745 201.163 69.9012 200.99 69.9012H199.63C199.47 69.9012 199.377 69.8612 199.35 69.7812C199.337 69.7012 199.35 69.6078 199.39 69.5012L200.65 66.1212L197.15 56.8212C197.11 56.7145 197.097 56.6212 197.11 56.5412C197.137 56.4612 197.223 56.4212 197.37 56.4212H198.91C199.043 56.4212 199.137 56.4345 199.19 56.4612C199.243 56.4878 199.297 56.5745 199.35 56.7212L200.65 60.4412L201.65 63.4212H201.73Z"
    fill="#626366"
  />
<path
    d="M216.154 61.1612C216.154 61.7345 216.114 62.3278 216.034 62.9412C215.968 63.5545 215.788 64.1212 215.494 64.6412C215.201 65.1478 214.761 65.5678 214.174 65.9012C213.588 66.2212 212.774 66.3812 211.734 66.3812C210.734 66.3812 209.948 66.2212 209.374 65.9012C208.801 65.5678 208.368 65.1478 208.074 64.6412C207.794 64.1212 207.621 63.5545 207.554 62.9412C207.488 62.3278 207.454 61.7345 207.454 61.1612C207.454 60.6945 207.494 60.1745 207.574 59.6012C207.668 59.0278 207.861 58.4945 208.154 58.0012C208.448 57.4945 208.874 57.0745 209.434 56.7412C210.008 56.3945 210.774 56.2212 211.734 56.2212C212.708 56.2212 213.481 56.3678 214.054 56.6612C214.641 56.9545 215.088 57.3412 215.394 57.8212C215.701 58.2878 215.901 58.8145 215.994 59.4012C216.101 59.9878 216.154 60.5745 216.154 61.1612ZM213.914 61.3012C213.914 60.7678 213.888 60.3078 213.834 59.9212C213.781 59.5212 213.674 59.1945 213.514 58.9412C213.354 58.6745 213.134 58.4745 212.854 58.3412C212.574 58.2078 212.208 58.1412 211.754 58.1412C211.328 58.1412 210.981 58.2078 210.714 58.3412C210.448 58.4745 210.234 58.6745 210.074 58.9412C209.928 59.2078 209.821 59.5412 209.754 59.9412C209.701 60.3278 209.674 60.7812 209.674 61.3012C209.674 61.8345 209.701 62.3012 209.754 62.7012C209.821 63.0878 209.928 63.4145 210.074 63.6812C210.221 63.9345 210.428 64.1278 210.694 64.2612C210.961 64.3945 211.308 64.4612 211.734 64.4612C212.188 64.4612 212.554 64.4012 212.834 64.2812C213.128 64.1478 213.354 63.9545 213.514 63.7012C213.674 63.4345 213.781 63.1012 213.834 62.7012C213.888 62.3012 213.914 61.8345 213.914 61.3012Z"
    fill="#626366"
  />
<path
    d="M226.583 65.8412C226.583 65.9612 226.556 66.0545 226.503 66.1212C226.45 66.1878 226.35 66.2212 226.203 66.2212H224.763C224.51 66.2212 224.383 66.0945 224.383 65.8412L224.403 60.2212C224.403 59.6345 224.303 59.1612 224.103 58.8012C223.916 58.4412 223.536 58.2612 222.963 58.2612C222.763 58.2612 222.53 58.2945 222.263 58.3612C222.01 58.4278 221.75 58.5145 221.483 58.6212C221.23 58.7145 220.99 58.8145 220.763 58.9212C220.536 59.0145 220.356 59.0945 220.223 59.1612V65.8412C220.223 66.0945 220.096 66.2212 219.843 66.2212H218.423C218.17 66.2212 218.043 66.0945 218.043 65.8412V56.8212C218.043 56.5545 218.17 56.4212 218.423 56.4212H219.843C220.096 56.4212 220.223 56.5545 220.223 56.8212V57.4212C220.236 57.4212 220.243 57.4278 220.243 57.4412C220.256 57.4412 220.27 57.4412 220.283 57.4412C220.47 57.3078 220.69 57.1745 220.943 57.0412C221.21 56.8945 221.49 56.7612 221.783 56.6412C222.076 56.5212 222.383 56.4278 222.703 56.3612C223.023 56.2812 223.336 56.2412 223.643 56.2412C224.323 56.2412 224.856 56.3478 225.243 56.5612C225.63 56.7612 225.923 57.0345 226.123 57.3812C226.323 57.7278 226.45 58.1345 226.503 58.6012C226.556 59.0545 226.583 59.5345 226.583 60.0412V65.8412Z"
    fill="#626366"
  />
<path
    d="M237.169 65.8412C237.169 66.0945 237.043 66.2212 236.789 66.2212H235.369C235.223 66.2212 235.123 66.1878 235.069 66.1212C235.016 66.0545 234.989 65.9612 234.989 65.8412V65.2212L234.949 65.2012C234.749 65.3345 234.516 65.4745 234.249 65.6212C233.996 65.7545 233.723 65.8812 233.429 66.0012C233.136 66.1212 232.829 66.2145 232.509 66.2812C232.203 66.3612 231.896 66.4012 231.589 66.4012C230.909 66.4012 230.369 66.3078 229.969 66.1212C229.583 65.9345 229.289 65.6745 229.089 65.3412C228.889 65.0078 228.763 64.6145 228.709 64.1612C228.656 63.7078 228.629 63.2212 228.629 62.7012V56.8212C228.629 56.5545 228.756 56.4212 229.009 56.4212H230.469C230.709 56.4212 230.829 56.5545 230.829 56.8212V62.4412C230.829 62.7478 230.849 63.0212 230.889 63.2612C230.929 63.5012 231.003 63.7078 231.109 63.8812C231.216 64.0412 231.363 64.1678 231.549 64.2612C231.736 64.3545 231.983 64.4012 232.289 64.4012C232.503 64.4012 232.736 64.3678 232.989 64.3012C233.256 64.2345 233.516 64.1545 233.769 64.0612C234.023 63.9545 234.256 63.8545 234.469 63.7612C234.683 63.6545 234.856 63.5678 234.989 63.5012V56.8212C234.989 56.7012 235.016 56.6078 235.069 56.5412C235.123 56.4612 235.223 56.4212 235.369 56.4212H236.789C237.043 56.4212 237.169 56.5545 237.169 56.8212V65.8412Z"
    fill="#626366"
  />
<path
    d="M86.9932 27.541H86.9369H28.567V66.1905H86.9369H86.9932V27.541Z"
    fill="#003399"
  />
<path
    d="M58.3093 33.3809H60.3442L58.703 34.6449L59.3421 36.6472L57.711 35.4135L56.08 36.6472L56.7191 34.6449L55.0676 33.3809H57.0975L57.711 31.4292L58.3093 33.3809Z"
    fill="#FFED00"
  />
<path
    d="M58.3808 59.1573H60.4158L58.7796 60.3759L59.4137 62.3023L57.7826 61.1141L56.1516 62.3023L56.7958 60.3759L55.1392 59.1573H57.1691L57.7826 57.2815L58.3808 59.1573Z"
    fill="#FFED00"
  />
<path
    d="M64.8283 57.4534H66.8684L65.2271 58.6669L65.8663 60.5933L64.2301 59.4051L62.5991 60.5933L63.2433 58.6669L61.5867 57.4534H63.6165L64.2301 55.5725L64.8283 57.4534Z"
    fill="#FFED00"
  />
<path
    d="M64.8283 35.1H66.8684L65.2271 36.3185L65.8663 38.2449L64.2301 37.0567L62.5991 38.2449L63.2433 36.3185L61.5867 35.1H63.6165L64.2301 33.2241L64.8283 35.1Z"
    fill="#FFED00"
  />
<path
    d="M69.6192 39.8377H71.6491L70.0129 41.0512L70.6469 42.9776L69.0159 41.7894L67.3848 42.9776L68.0291 41.0512L66.3724 39.8377H68.4023L69.0159 37.9568L69.6192 39.8377Z"
    fill="#FFED00"
  />
<path
    d="M69.6192 52.7814H71.6491L70.0129 53.9999L70.6469 55.9263L69.0159 54.7381L67.3848 55.9263L68.0291 53.9999L66.3724 52.7814H68.4023L69.0159 50.9055L69.6192 52.7814Z"
    fill="#FFED00"
  />
<path
    d="M71.4087 46.2084H73.4488L71.8076 47.4269L72.4467 49.3533L70.8105 48.1651L69.1795 49.3533L69.8237 47.4269L68.1671 46.2084H70.197L70.8105 44.3325L71.4087 46.2084Z"
    fill="#FFED00"
  />
<path
    d="M51.7391 35.1202H53.7689L52.1328 36.3336L52.7668 38.26L51.1357 37.0718L49.5047 38.26L50.1489 36.3336L48.4974 35.1202H50.5222L51.1357 33.2393L51.7391 35.1202Z"
    fill="#FFED00"
  />
<path
    d="M47.0811 39.8528H49.1212L47.4799 41.0663L48.1139 42.9927L46.4829 41.8045L44.8518 42.9927L45.4961 41.0663L43.8395 39.8528H45.8693L46.4829 37.9719L47.0811 39.8528Z"
    fill="#FFED00"
  />
<path
    d="M45.3529 46.2286H47.3879L45.7517 47.442L46.3857 49.3685L44.7547 48.1853L43.1237 49.3685L43.7679 47.442L42.1164 46.2286H44.1411L44.7547 44.3477L45.3529 46.2286Z"
    fill="#FFED00"
  />
<path
    d="M47.0811 52.7967H49.1212L47.4799 54.0153L48.1139 55.9417L46.4829 54.7535L44.8518 55.9417L45.4961 54.0153L43.8395 52.7967H45.8693L46.4829 50.9209L47.0811 52.7967Z"
    fill="#FFED00"
  />
<path
    d="M51.8055 57.4685H53.8354L52.1992 58.682L52.8332 60.6084L51.2022 59.4202L49.5711 60.6084L50.2154 58.682L48.5639 57.4685H50.5886L51.2022 55.5876L51.8055 57.4685Z"
    fill="#FFED00"
  />
<path
    d="M95.8693 0.00505726C95.8693 0.00505726 107.869 18.9101 110.068 22.3736C112.262 25.8371 114.772 28.5826 123.653 30.4433C132.535 32.304 136.4 33.1837 136.4 33.1837V33.8562C136.4 33.8562 130.755 32.668 123.495 31.0652C116.234 29.4624 113.264 28.9214 109.956 24.3657C107.2 20.5736 95.8693 3.61517 95.8693 3.61517V0V0.00505726Z"
    fill="#6D6E70"
  />
<path
    d="M95.8693 21.5949C95.8693 21.5949 106.796 32.9157 109.956 36.1668C113.31 39.6151 117.6 40.8893 123.551 41.941C129.232 42.9421 136.395 44.1 136.395 44.1V44.7371C136.395 44.7371 129.666 43.6449 123.551 42.6135C117.553 41.5972 113.356 41.0309 109.92 37.9011C106.842 35.1 95.8693 24.9219 95.8693 24.9219V21.5898V21.5949Z"
    fill="#6D6E70"
  />
<path
    d="M95.8693 26.6967C95.8693 26.6967 106.259 36.2377 109.956 39.499C113.356 42.4973 116.112 43.4327 123.587 44.7422C131.062 46.0518 136.395 46.8658 136.395 46.8658V47.5383C136.395 47.5383 129.63 46.4411 123.551 45.4804C117.472 44.5248 113.596 44.1456 109.956 41.2282C105.758 37.8608 95.8693 29.8113 95.8693 29.8113V26.6917V26.6967Z"
    fill="#6D6E70"
  />
<path
    d="M95.8693 32.1321C95.8693 32.1321 107.737 41.4456 109.956 43.0737C112.175 44.7018 115.109 46.6029 123.623 47.8214C132.064 49.0298 136.395 49.6265 136.395 49.6265V50.3343C136.395 50.3343 128.741 49.2371 123.623 48.6001C118.505 47.963 114.583 47.69 109.991 44.6664C105.523 41.7237 95.8693 35.004 95.8693 35.004V32.1321Z"
    fill="#6D6E70"
  />
<path
    d="M95.8693 37.3601C95.8693 37.3601 107.772 45.1972 110.027 46.441C112.282 47.6798 114.931 49.7022 123.623 50.7994C132.315 51.8966 136.395 52.3921 136.395 52.3921V53.0646C136.395 53.0646 129.206 52.286 123.587 51.6843C117.973 51.0826 114.143 50.2685 109.956 47.9983C105.768 45.7331 95.8693 40.0095 95.8693 40.0095V37.3601Z"
    fill="#6D6E70"
  />
<path
    d="M95.8693 42.5883C95.8693 42.5883 106.392 48.2512 109.956 50.0158C113.928 51.9878 117.364 52.9333 123.587 53.6664C129.697 54.3844 136.395 55.0821 136.395 55.0821V55.7192C136.395 55.7192 130.203 55.0619 123.587 54.4451C117.027 53.8282 114.69 53.5451 109.956 51.467C105.722 49.6063 95.8693 45.0658 95.8693 45.0658V42.5833V42.5883Z"
    fill="#6D6E70"
  />
<path
    d="M95.8693 47.8872C95.8693 47.8872 104.183 51.4063 110.027 53.7018C115.774 55.9569 120.166 56.149 123.658 56.5383C125.197 56.7102 136.395 57.8479 136.395 57.8479V58.485C136.395 58.485 129.707 57.9541 123.623 57.4232C117.538 56.8923 114.915 56.6647 109.991 55.0518C105.006 53.4136 95.8693 50.2636 95.8693 50.2636V47.8923V47.8872Z"
    fill="#6D6E70"
  />
<path
    d="M95.8693 53.2922C95.8693 53.2922 104.265 55.8658 109.991 57.3524C115.718 58.8389 120.974 59.4456 123.623 59.6175C126.271 59.7945 136.4 60.6085 136.4 60.6085V61.2102C136.4 61.2102 130.638 60.8209 123.587 60.3254C117.886 59.9259 113.31 59.5012 109.956 58.7681C106.244 57.9591 95.8693 55.522 95.8693 55.522V53.2922Z"
    fill="#6D6E70"
  />
<path
    d="M95.8693 58.6062C95.8693 58.6062 102.736 59.7792 109.991 60.9674C115.432 61.8573 122.799 62.4186 123.587 62.454C124.374 62.4893 136.395 63.3034 136.395 63.3034V63.9405C136.395 63.9405 128.7 63.5461 123.587 63.268C118.259 62.9747 112.962 62.6562 109.956 62.3478C103.217 61.6551 95.8693 60.7349 95.8693 60.7349V58.6062Z"
    fill="#6D6E70"
  />
<path
    d="M95.8693 64.1074C95.8693 64.1074 106.699 64.5119 109.991 64.5827C113.284 64.6535 136.395 65.5737 136.395 65.5737V66.1956H95.8693V64.1074Z"
    fill="#6D6E70"
  />
<path
    d="M123.582 33.3656C113.78 31.2774 111.561 27.733 109.915 25.5386C108.268 23.3392 95.8642 5.41504 95.8642 5.41504V8.71167C96.355 9.34369 106.97 23.8347 109.95 27.6269C113.31 31.8993 118.571 32.8701 123.582 33.9319C128.587 34.9937 136.395 36.4752 136.395 36.4752V35.9089C136.395 35.9089 126.118 33.9016 123.582 33.3656Z"
    fill="#6D6E70"
  />
<path
    d="M123.582 36.2022C115.534 34.6449 112.277 32.127 109.915 29.0831C107.552 26.0343 95.8642 10.446 95.8642 10.446V14.2786C96.355 14.85 107.046 27.7534 109.915 30.9994C113.259 34.7865 117.927 35.7826 123.582 36.809C129.237 37.8354 136.39 39.1803 136.39 39.1803V38.614C136.39 38.614 128.224 37.1022 123.582 36.2073V36.2022Z"
    fill="#6D6E70"
  />
<path
    d="M123.582 39.1399C115.212 37.5321 113.494 36.2124 109.95 32.3748C107.721 29.963 96.3448 16.6804 95.8642 16.1191V19.6585C95.8642 19.6585 106.494 30.8731 109.915 34.1849C114.399 38.5332 118.607 38.8619 123.582 39.7467C128.557 40.6315 136.39 42.0473 136.39 42.0473V41.4456C136.39 41.4456 126.931 39.7871 123.582 39.145V39.1399Z"
    fill="#6D6E70"
  />
<path
    d="M0.782944 27.7788C0.782944 27.7788 28.4954 24.8563 36.2569 23.7793C48.5281 22.0805 58.57 20.2703 67.8603 6.18887C67.8603 6.18887 67.8705 5.38999 67.8603 5.03101C62.1696 13.5911 54.3211 19.431 43.5122 21.1248C32.9539 22.7833 0.777832 25.2052 0.777832 25.2052V27.7788H0.782944Z"
    fill="#6D6E70"
  />
<path
    d="M0.777832 24.2849C0.777832 24.2849 26.4604 21.1046 34.9224 19.9315C48.3082 18.081 57.7212 16.4175 67.8552 1.05681C67.8552 1.05681 67.8603 0.394453 67.8552 0.00512695C61.648 9.3439 53.9836 15.3759 42.1931 17.2265C30.6735 19.0366 0.777832 21.6759 0.777832 21.6759V24.29V24.2849Z"
    fill="#6D6E70"
  />
<path d="M26.9973 64.1326H0.793167V66.1854H26.9973V64.1326Z" fill="#6D6E70" />
<path
    d="M67.8552 22.5708C67.8552 22.5708 67.8705 21.3624 67.8654 21.1045C66.6332 22.9601 65.0124 24.6438 63.141 26.1253H64.9766C66.0094 25.0736 66.9758 23.8955 67.8501 22.5708H67.8552Z"
    fill="#6D6E70"
  />
<path
    d="M67.8552 17.11C67.8552 17.11 67.8654 16.0381 67.8603 15.7449C64.8897 20.2145 60.4669 23.7842 55.3539 26.1505L58.3706 26.1404C61.8577 24.1331 65.0993 21.2814 67.8501 17.11H67.8552Z"
    fill="#6D6E70"
  />
<path
    d="M67.8552 11.6494C67.8552 11.6494 67.8654 10.714 67.8552 10.3904C62.686 18.1718 54.6483 23.496 44.8212 25.0381C42.4948 25.4022 38.706 25.8067 34.3037 26.2162L46.3039 26.1758C54.224 24.4314 61.6378 21.0589 67.845 11.6494H67.8552Z"
    fill="#6D6E70"
  />
<path
    d="M27.0024 60.6743C13.6319 60.7451 0.793167 60.8007 0.793167 60.8007V62.9395C0.793167 62.9395 14.2403 62.8434 27.0024 62.7372V60.6743Z"
    fill="#6D6E70"
  />
<path
    d="M27.0024 57.0034C13.7239 57.15 0.788055 57.2613 0.788055 57.2613V59.4456C0.788055 59.4456 14.3733 59.2686 27.0024 59.0714V57.0034Z"
    fill="#6D6E70"
  />
<path
    d="M26.9973 53.3225C13.816 53.55 0.788055 53.722 0.788055 53.722V55.9517C0.788055 55.9517 14.5164 55.6837 26.9973 55.3905V53.3225Z"
    fill="#6D6E70"
  />
<path
    d="M27.0024 49.6213C13.9182 49.9398 0.788055 50.1774 0.788055 50.1774V52.4477C0.788055 52.4477 14.6749 52.0735 27.0024 51.6842V49.6162V49.6213Z"
    fill="#6D6E70"
  />
<path
    d="M27.0075 45.9102C14.0205 46.3197 0.788055 46.6433 0.788055 46.6433V48.959C0.788055 48.959 14.8437 48.4736 27.0075 47.9781V45.9152V45.9102Z"
    fill="#6D6E70"
  />
<path
    d="M27.0024 42.1838C14.1176 42.6995 0.788055 43.104 0.788055 43.104V45.4602C0.788055 45.4602 15.0175 44.8433 27.0024 44.2315V42.1787V42.1838Z"
    fill="#6D6E70"
  />
<path
    d="M27.0075 38.4321C14.2199 39.0591 0.782944 39.5597 0.782944 39.5597V41.9613C0.782944 41.9613 15.2016 41.1979 27.0075 40.4647V38.4321Z"
    fill="#6D6E70"
  />
<path
    d="M27.0075 34.6602C14.317 35.4085 0.782944 36.0203 0.782944 36.0203V38.4624C0.782944 38.4624 15.3959 37.5321 27.0075 36.6725V34.6602Z"
    fill="#6D6E70"
  />
<path
    d="M27.0075 30.8679C14.404 31.7477 0.782944 32.4859 0.782944 32.4859V34.9735C0.782944 34.9735 15.5902 33.8511 27.0075 32.8601V30.873V30.8679Z"
    fill="#6D6E70"
  />
<path
    d="M27.0075 27.0405C14.4807 28.0669 0.777832 28.9416 0.777832 28.9416V31.4697C0.777832 31.4697 15.7845 30.1248 27.0075 28.9922V27.0405Z"
    fill="#6D6E70"
  />
</svg>
