<svg
  width="291"
  height="72"
  viewBox="0 0 291 72"
  fill="none"
  xmlns="http://www.w3.org/2000/svg"
>
<path
    d="M87.6485 27.751H87.5918H28.777V66.695H87.5918H87.6485V27.751Z"
    fill="#003399"
  />
<path
    d="M58.746 33.6353H60.7965L59.1427 34.909L59.7867 36.9265L58.1432 35.6834L56.4997 36.9265L57.1437 34.909L55.4796 33.6353H57.525L58.1432 31.6688L58.746 33.6353Z"
    fill="#FFED00"
  />
<path
    d="M58.8181 59.6082H60.8686L59.22 60.836L59.8588 62.7771L58.2153 61.5798L56.5719 62.7771L57.221 60.836L55.5518 59.6082H57.5971L58.2153 57.718L58.8181 59.6082Z"
    fill="#FFED00"
  />
<path
    d="M65.3147 57.8913H67.3704L65.7166 59.114L66.3606 61.0551L64.7119 59.8578L63.0685 61.0551L63.7176 59.114L62.0484 57.8913H64.0937L64.7119 55.996L65.3147 57.8913Z"
    fill="#FFED00"
  />
<path
    d="M65.3147 35.3676H67.3704L65.7166 36.5954L66.3606 38.5365L64.7119 37.3392L63.0685 38.5365L63.7176 36.5954L62.0484 35.3676H64.0937L64.7119 33.4774L65.3147 35.3676Z"
    fill="#FFED00"
  />
<path
    d="M70.1421 40.1413H72.1874L70.5388 41.3641L71.1776 43.3051L69.5342 42.1079L67.8907 43.3051L68.5398 41.3641L66.8706 40.1413H68.9159L69.5342 38.2461L70.1421 40.1413Z"
    fill="#FFED00"
  />
<path
    d="M70.1421 53.1838H72.1874L70.5388 54.4116L71.1776 56.3527L69.5342 55.1554L67.8907 56.3527L68.5398 54.4116L66.8706 53.1838H68.9159L69.5342 51.2936L70.1421 53.1838Z"
    fill="#FFED00"
  />
<path
    d="M71.9453 46.5606H74.0009L72.3471 47.7884L72.9911 49.7295L71.3425 48.5323L69.699 49.7295L70.3482 47.7884L68.679 46.5606H70.7243L71.3425 44.6705L71.9453 46.5606Z"
    fill="#FFED00"
  />
<path
    d="M52.1257 35.3879H54.171L52.5224 36.6106L53.1613 38.5517L51.5178 37.3545L49.8743 38.5517L50.5235 36.6106L48.8594 35.3879H50.8995L51.5178 33.4927L52.1257 35.3879Z"
    fill="#FFED00"
  />
<path
    d="M47.4323 40.1565H49.4879L47.8341 41.3793L48.473 43.3203L46.8295 42.1231L45.186 43.3203L45.8352 41.3793L44.1659 40.1565H46.2113L46.8295 38.2613L47.4323 40.1565Z"
    fill="#FFED00"
  />
<path
    d="M45.6909 46.581H47.7414L46.0928 47.8038L46.7316 49.7448L45.0881 48.5527L43.4447 49.7448L44.0938 47.8038L42.4297 46.581H44.4699L45.0881 44.6858L45.6909 46.581Z"
    fill="#FFED00"
  />
<path
    d="M47.4323 53.199H49.4879L47.8341 54.4269L48.473 56.368L46.8295 55.1707L45.186 56.368L45.8352 54.4269L44.1659 53.199H46.2113L46.8295 51.3089L47.4323 53.199Z"
    fill="#FFED00"
  />
<path
    d="M52.1927 57.9066H54.238L52.5894 59.1293L53.2282 61.0704L51.5847 59.8731L49.9413 61.0704L50.5904 59.1293L48.9263 57.9066H50.9665L51.5847 56.0114L52.1927 57.9066Z"
    fill="#FFED00"
  />
<path
    d="M96.5922 0.0050958C96.5922 0.0050958 108.684 19.0542 110.899 22.5441C113.109 26.034 115.639 28.8004 124.588 30.6753C133.537 32.5501 137.432 33.4366 137.432 33.4366V34.1142C137.432 34.1142 131.744 32.9169 124.428 31.3019C117.112 29.6869 114.119 29.1418 110.786 24.5514C108.009 20.7304 96.5922 3.64272 96.5922 3.64272V0V0.0050958Z"
    fill="#6D6E70"
  />
<path
    d="M96.5922 21.7595C96.5922 21.7595 107.602 33.1666 110.786 36.4425C114.166 39.917 118.488 41.2009 124.485 42.2606C130.209 43.2694 137.427 44.4361 137.427 44.4361V45.078C137.427 45.078 130.647 43.9775 124.485 42.9382C118.442 41.9142 114.212 41.3436 110.75 38.1899C107.648 35.3675 96.5922 25.1118 96.5922 25.1118V21.7544V21.7595Z"
    fill="#6D6E70"
  />
<path
    d="M96.5922 26.9001C96.5922 26.9001 107.061 36.5138 110.786 39.7999C114.212 42.8211 116.989 43.7636 124.521 45.0831C132.053 46.4027 137.427 47.2229 137.427 47.2229V47.9005C137.427 47.9005 130.611 46.795 124.485 45.827C118.359 44.8641 114.454 44.482 110.786 41.5423C106.556 38.1492 96.5922 30.0385 96.5922 30.0385V26.895V26.9001Z"
    fill="#6D6E70"
  />
<path
    d="M96.5922 32.377C96.5922 32.377 108.55 41.7614 110.786 43.4019C113.022 45.0424 115.979 46.958 124.557 48.1858C133.063 49.4035 137.427 50.0047 137.427 50.0047V50.7179C137.427 50.7179 129.714 49.6124 124.557 48.9704C119.4 48.3285 115.448 48.0534 110.822 45.0067C106.319 42.0416 96.5922 35.2707 96.5922 35.2707V32.377Z"
    fill="#6D6E70"
  />
<path
    d="M96.5922 37.6448C96.5922 37.6448 108.586 45.5416 110.858 46.7949C113.13 48.0431 115.799 50.081 124.557 51.1866C133.315 52.2921 137.427 52.7914 137.427 52.7914V53.469C137.427 53.469 130.183 52.6844 124.521 52.0782C118.864 51.4719 115.005 50.6516 110.786 48.3641C106.566 46.0817 96.5922 40.3145 96.5922 40.3145V37.6448Z"
    fill="#6D6E70"
  />
<path
    d="M96.5922 42.9127C96.5922 42.9127 107.195 48.6188 110.786 50.3969C114.789 52.3838 118.251 53.3365 124.521 54.0753C130.678 54.7987 137.427 55.5018 137.427 55.5018V56.1437C137.427 56.1437 131.188 55.4814 124.521 54.8598C117.911 54.2383 115.557 53.953 110.786 51.8591C106.52 49.9842 96.5922 45.4092 96.5922 45.4092V42.9077V42.9127Z"
    fill="#6D6E70"
  />
<path
    d="M96.5922 48.252C96.5922 48.252 104.969 51.7979 110.858 54.1109C116.649 56.3832 121.074 56.5768 124.593 56.9691C126.144 57.1423 137.427 58.2886 137.427 58.2886V58.9305C137.427 58.9305 130.688 58.3956 124.557 57.8606C118.426 57.3257 115.783 57.0964 110.822 55.4712C105.799 53.8205 96.5922 50.6465 96.5922 50.6465V48.2571V48.252Z"
    fill="#6D6E70"
  />
<path
    d="M96.5922 53.6983C96.5922 53.6983 105.052 56.2915 110.822 57.7894C116.592 59.2872 121.888 59.8986 124.557 60.0718C127.226 60.2501 137.432 61.0704 137.432 61.0704V61.6766C137.432 61.6766 131.626 61.2843 124.521 60.7851C118.777 60.3826 114.166 59.9546 110.786 59.2159C107.046 58.4007 96.5922 55.9451 96.5922 55.9451V53.6983Z"
    fill="#6D6E70"
  />
<path
    d="M96.5922 59.0529C96.5922 59.0529 103.511 60.2348 110.822 61.4321C116.304 62.3288 123.728 62.8943 124.521 62.9299C125.314 62.9656 137.427 63.7858 137.427 63.7858V64.4278C137.427 64.4278 129.673 64.0304 124.521 63.7502C119.153 63.4547 113.815 63.1337 110.786 62.8229C103.996 62.125 96.5922 61.1977 96.5922 61.1977V59.0529Z"
    fill="#6D6E70"
  />
<path
    d="M96.5922 64.5959C96.5922 64.5959 107.504 65.0035 110.822 65.0748C114.14 65.1461 137.427 66.0733 137.427 66.0733V66.7H96.5922V64.5959Z"
    fill="#6D6E70"
  />
<path
    d="M124.516 33.62C114.64 31.5159 112.404 27.9445 110.745 25.7334C109.086 23.5172 96.5871 5.45642 96.5871 5.45642V8.77817C97.0817 9.41501 107.777 24.0165 110.781 27.8375C114.166 32.1425 119.467 33.1207 124.516 34.1906C129.56 35.2605 137.427 36.7532 137.427 36.7532V36.1826C137.427 36.1826 127.071 34.16 124.516 33.62Z"
    fill="#6D6E70"
  />
<path
    d="M124.516 36.4782C116.407 34.909 113.125 32.3718 110.745 29.3048C108.364 26.2327 96.5871 10.5257 96.5871 10.5257V14.3875C97.0817 14.9632 107.854 27.9649 110.745 31.2357C114.114 35.0516 118.818 36.0553 124.516 37.0895C130.214 38.1238 137.422 39.479 137.422 39.479V38.9083C137.422 38.9083 129.194 37.385 124.516 36.4833V36.4782Z"
    fill="#6D6E70"
  />
<path
    d="M124.516 39.4382C116.082 37.8181 114.351 36.4883 110.781 32.6215C108.534 30.1913 97.0714 16.8075 96.5871 16.2419V19.8082C96.5871 19.8082 107.298 31.1083 110.745 34.4454C115.263 38.8268 119.503 39.158 124.516 40.0495C129.529 40.9411 137.422 42.3676 137.422 42.3676V41.7614C137.422 41.7614 127.89 40.0903 124.516 39.4433V39.4382Z"
    fill="#6D6E70"
  />
<path
    d="M0.781289 27.9904C0.781289 27.9904 28.7049 25.0456 36.5256 23.9605C48.8903 22.2486 59.0087 20.4247 68.3698 6.23596C68.3698 6.23596 68.3801 5.431 68.3698 5.06927C62.6357 13.6946 54.7274 19.579 43.8362 21.2857C33.1974 22.9568 0.776138 25.3972 0.776138 25.3972V27.9904H0.781289Z"
    fill="#6D6E70"
  />
<path
    d="M0.776138 24.4699C0.776138 24.4699 26.6544 21.2654 35.1809 20.0834C48.6687 18.2187 58.1535 16.5426 68.3647 1.06483C68.3647 1.06483 68.3698 0.39742 68.3647 0.00512695C62.1102 9.41506 54.3874 15.4931 42.507 17.3577C30.8996 19.1816 0.776138 21.8411 0.776138 21.8411V24.475V24.4699Z"
    fill="#6D6E70"
  />
<path d="M27.1954 64.6213H0.791595V66.6898H27.1954V64.6213Z" fill="#6D6E70" />
<path
    d="M68.3647 22.7428C68.3647 22.7428 68.3801 21.5252 68.375 21.2653C67.1333 23.1351 65.5002 24.8316 63.6146 26.3244H65.4641C66.5048 25.2647 67.4785 24.0776 68.3595 22.7428H68.3647Z"
    fill="#6D6E70"
  />
<path
    d="M68.3647 17.2405C68.3647 17.2405 68.375 16.1604 68.3698 15.8649C65.3765 20.3687 60.9201 23.9655 55.7681 26.3499L58.8078 26.3397C62.3214 24.3171 65.5878 21.4436 68.3595 17.2405H68.3647Z"
    fill="#6D6E70"
  />
<path
    d="M68.3647 11.7383C68.3647 11.7383 68.375 10.7957 68.3647 10.4697C63.156 18.3104 55.0572 23.6752 45.1551 25.2291C42.811 25.5959 38.9934 26.0034 34.5575 26.4161L46.6492 26.3754C54.6296 24.6177 62.0999 21.2195 68.3544 11.7383H68.3647Z"
    fill="#6D6E70"
  />
<path
    d="M27.2005 61.1365C13.7282 61.2079 0.791595 61.2639 0.791595 61.2639V63.419C0.791595 63.419 14.3412 63.3222 27.2005 63.2152V61.1365Z"
    fill="#6D6E70"
  />
<path
    d="M27.2005 57.4378C13.8209 57.5856 0.786438 57.6976 0.786438 57.6976V59.8986C0.786438 59.8986 14.4752 59.7202 27.2005 59.5215V57.4378Z"
    fill="#6D6E70"
  />
<path
    d="M27.1954 53.7288C13.9136 53.9581 0.786438 54.1313 0.786438 54.1313V56.3781C0.786438 56.3781 14.6194 56.1081 27.1954 55.8126V53.7288Z"
    fill="#6D6E70"
  />
<path
    d="M27.2005 49.9995C14.0167 50.3205 0.786438 50.56 0.786438 50.56V52.8475C0.786438 52.8475 14.7792 52.4705 27.2005 52.0782V49.9944V49.9995Z"
    fill="#6D6E70"
  />
<path
    d="M27.2057 46.26C14.1197 46.6727 0.786438 46.9987 0.786438 46.9987V49.3321C0.786438 49.3321 14.9492 48.843 27.2057 48.3438V46.2651V46.26Z"
    fill="#6D6E70"
  />
<path
    d="M27.2005 42.5052C14.2176 43.0249 0.786438 43.4325 0.786438 43.4325V45.8066C0.786438 45.8066 15.1243 45.185 27.2005 44.5686V42.5001V42.5052Z"
    fill="#6D6E70"
  />
<path
    d="M27.2057 38.7249C14.3206 39.3567 0.781281 39.861 0.781281 39.861V42.281C0.781281 42.281 15.3098 41.5117 27.2057 40.773V38.7249Z"
    fill="#6D6E70"
  />
<path
    d="M27.2057 34.9243C14.4185 35.6783 0.781281 36.2948 0.781281 36.2948V38.7555C0.781281 38.7555 15.5056 37.8181 27.2057 36.952V34.9243Z"
    fill="#6D6E70"
  />
<path
    d="M27.2057 31.1033C14.5061 31.9898 0.781281 32.7336 0.781281 32.7336V35.2402C0.781281 35.2402 15.7013 34.1091 27.2057 33.1106V31.1084V31.1033Z"
    fill="#6D6E70"
  />
<path
    d="M27.2057 27.2465C14.5834 28.2807 0.776138 29.1621 0.776138 29.1621V31.7095C0.776138 31.7095 15.8971 30.3543 27.2057 29.2131V27.2465Z"
    fill="#6D6E70"
  />
<path
    d="M146.536 33.6795C146.536 33.4286 146.653 33.2903 146.925 33.2903H154.083C154.318 33.2903 154.452 33.4286 154.452 33.659V34.8674C154.452 35.1029 154.354 35.2156 154.062 35.2156H148.753V38.5642H153.458C153.709 38.5642 153.847 38.682 153.847 38.9124V40.1207C153.847 40.3563 153.75 40.4689 153.458 40.4689H148.753V44.2989H154.201C154.436 44.2989 154.549 44.4166 154.549 44.6675V45.8554C154.549 46.1063 154.452 46.2036 154.18 46.2036H146.925C146.653 46.2036 146.536 46.0858 146.536 45.8554V33.6744V33.6795Z"
    fill="#58595B"
  />
<path
    d="M164.354 46.2034H162.972C162.68 46.2034 162.603 46.0652 162.603 45.8348V45.2306L162.562 45.2101C161.804 45.7375 160.478 46.3775 159.295 46.3775C156.669 46.3775 156.418 44.821 156.418 42.778V37.0587C156.418 36.8232 156.515 36.6696 156.786 36.6696H158.205C158.456 36.6696 158.553 36.8078 158.553 37.0587V42.5271C158.553 43.6945 158.788 44.4318 159.971 44.4318C160.806 44.4318 162.091 43.8072 162.598 43.5563V37.0587C162.598 36.8232 162.675 36.6696 162.967 36.6696H164.349C164.62 36.6696 164.718 36.8078 164.718 37.0587V45.8348C164.718 46.0857 164.62 46.2034 164.349 46.2034H164.354Z"
    fill="#58595B"
  />
<path
    d="M169.3 45.834C169.3 46.0695 169.203 46.2026 168.932 46.2026H167.529C167.257 46.2026 167.16 46.0849 167.16 45.834V37.0579C167.16 36.807 167.257 36.6687 167.529 36.6687H168.911C169.203 36.6687 169.3 36.8223 169.3 37.0579V37.9129L169.341 37.9539C169.925 37.4112 171.307 36.7455 172.219 36.5714C172.47 36.5151 172.649 36.5714 172.685 36.9043L172.823 38.2099C172.843 38.4813 172.864 38.5991 172.454 38.6759C171.364 38.8909 169.981 39.2801 169.3 39.5719V45.834Z"
    fill="#58595B"
  />
<path
    d="M177.861 46.3618C173.949 46.3618 173.698 43.5047 173.698 41.2825C173.698 39.4546 174.108 36.4797 177.861 36.4797C181.614 36.4797 182.162 38.9887 182.162 41.2825C182.162 43.5764 181.891 46.3618 177.861 46.3618ZM177.877 38.3486C176.223 38.3486 175.854 39.3983 175.854 41.4208C175.854 43.4433 176.223 44.4929 177.856 44.4929C179.628 44.4929 179.976 43.4996 179.976 41.4208C179.976 39.3419 179.643 38.3486 177.877 38.3486Z"
    fill="#58595B"
  />
<path
    d="M188.598 46.3823C187.958 46.3823 187.062 46.2646 186.166 45.9522L186.146 45.9727V49.3982C186.146 49.6132 186.089 49.7873 185.777 49.7873H184.395C184.082 49.7873 184.026 49.6491 184.026 49.3982V37.0635C184.026 36.8126 184.123 36.6744 184.395 36.6744H185.777C186.048 36.6744 186.125 36.828 186.125 37.0635V37.6472L186.181 37.6882C186.883 37.2017 188.127 36.5208 189.254 36.5208C191.803 36.5208 192.464 38.446 192.464 41.385C192.464 44.5544 191.665 46.3823 188.593 46.3823H188.598ZM188.757 38.4613C187.958 38.4613 186.734 39.0245 186.151 39.3369V44.2011C187.026 44.452 187.728 44.5339 188.388 44.5339C189.791 44.5339 190.278 43.812 190.278 41.3645C190.278 38.917 189.791 38.4664 188.762 38.4664L188.757 38.4613Z"
    fill="#58595B"
  />
<path
    d="M196.207 42.0252C196.263 43.9914 196.965 44.5341 198.562 44.5341C199.264 44.5341 200.354 44.3959 201.092 44.3191C201.44 44.2781 201.558 44.2781 201.619 44.6519L201.737 45.2919C201.793 45.5838 201.757 45.7374 201.404 45.8961C200.646 46.188 199.228 46.3825 198.27 46.3825C194.553 46.3825 194.01 44.0119 194.01 41.4825C194.01 39.5931 194.358 36.4851 198.153 36.4851C201.634 36.4851 202.259 38.7431 202.315 40.8424C202.336 41.5439 202.141 42.0303 201.363 42.0303H196.207V42.0252ZM196.227 40.5659H200.078C200.078 39.378 199.765 38.2311 198.153 38.2311C196.714 38.2311 196.325 39.1067 196.227 40.5659Z"
    fill="#58595B"
  />
<path
    d="M210.098 45.0975C209.125 45.8348 207.82 46.3622 206.519 46.3622C204.456 46.3622 203.852 45.2358 203.852 43.6024C203.831 41.3239 205.06 40.3511 207.507 40.3511H209.996V39.8441C209.996 38.6767 209.566 38.2671 207.973 38.2671C207.333 38.2671 206.105 38.3644 205.326 38.4412C204.937 38.4975 204.84 38.4822 204.783 38.2057L204.609 37.4837C204.568 37.2328 204.63 37.0741 205.055 36.9C205.889 36.6082 207.431 36.4699 208.342 36.4699C211.706 36.4699 212.116 37.8524 212.116 40.0285V43.7816C212.116 44.5804 212.213 44.6008 212.817 44.6777C213.109 44.6981 213.186 44.7545 213.186 44.9695V45.7887C213.186 46.0038 213.048 46.1369 212.72 46.1984C212.408 46.2547 212.095 46.2956 211.803 46.2956C210.887 46.2956 210.324 46.0243 210.129 45.1078L210.088 45.0873L210.098 45.0975ZM209.981 41.8666H207.605C206.632 41.8666 206.007 42.2148 206.007 43.5C206.007 44.3551 206.299 44.6265 207.216 44.6265C208.05 44.6265 209.238 44.14 209.981 43.7099V41.8615V41.8666Z"
    fill="#58595B"
  />
<path
    d="M222.453 46.2029H221.05C220.8 46.2029 220.682 46.0851 220.682 45.8342L220.702 40.3658C220.702 39.2189 220.431 38.4611 219.299 38.4611C218.521 38.4611 217.159 39.0858 216.632 39.3367V45.8342C216.632 46.0698 216.534 46.2029 216.263 46.2029H214.881C214.609 46.2029 214.512 46.0851 214.512 45.8342V37.0582C214.512 36.8073 214.609 36.669 214.881 36.669H216.263C216.534 36.669 216.632 36.8073 216.632 37.0582V37.6419C216.632 37.6419 216.673 37.6623 216.688 37.6623C217.41 37.1554 218.772 36.4949 219.955 36.4949C222.581 36.4949 222.812 38.2256 222.812 40.1917V45.8342C222.812 46.0698 222.735 46.2029 222.443 46.2029H222.453Z"
    fill="#58595B"
  />
<path
    d="M151.753 53.6329C152.706 53.6329 154.283 53.7711 155.312 54.1961C155.624 54.3343 155.742 54.488 155.68 54.8003L155.506 55.5991C155.445 55.8346 155.353 55.9319 154.999 55.8909C154.047 55.7731 152.88 55.64 151.866 55.64C149.219 55.64 148.829 57.7803 148.829 60.3097C148.829 62.8391 149.316 64.8616 151.866 64.8616C152.992 64.8616 153.95 64.7438 154.999 64.6107C155.368 64.5697 155.445 64.667 155.527 64.923L155.68 65.6603C155.757 65.9727 155.66 66.1467 155.348 66.285C154.395 66.6946 152.7 66.8687 151.748 66.8687C147.411 66.8687 146.495 63.6583 146.495 60.3506C146.495 57.043 147.314 53.638 151.748 53.638L151.753 53.6329Z"
    fill="#58595B"
  />
<path
    d="M161.251 66.8429C157.339 66.8429 157.089 63.9859 157.089 61.7637C157.089 59.9357 157.498 56.9609 161.251 56.9609C165.004 56.9609 165.552 59.4698 165.552 61.7637C165.552 64.0575 165.281 66.8429 161.251 66.8429ZM161.272 58.8298C159.618 58.8298 159.249 59.8794 159.249 61.9019C159.249 63.9244 159.618 64.9741 161.251 64.9741C163.023 64.9741 163.371 63.9807 163.371 61.9019C163.371 59.8231 163.038 58.8298 161.272 58.8298Z"
    fill="#58595B"
  />
<path
    d="M181.036 66.6849H179.633C179.362 66.6849 179.264 66.5671 179.264 66.3162V60.7915C179.264 59.3527 178.916 58.9431 177.943 58.9431C177.221 58.9431 176.054 59.5063 175.455 59.8187C175.455 60.0132 175.475 60.3614 175.475 60.812V66.3162C175.475 66.5518 175.398 66.6849 175.107 66.6849H173.688C173.437 66.6849 173.355 66.5671 173.355 66.3162V60.6942C173.355 59.5063 173.043 58.9431 172.07 58.9431C171.389 58.9431 170.299 59.4295 169.561 59.8187V66.3162C169.561 66.5518 169.464 66.6849 169.193 66.6849H167.795C167.544 66.6849 167.447 66.5671 167.447 66.3162V57.5402C167.447 57.2893 167.544 57.151 167.795 57.151H169.177C169.469 57.151 169.566 57.3046 169.566 57.5402V58.1034L169.587 58.1239C170.345 57.5965 171.415 57.0128 172.485 56.9769C173.611 56.9769 174.548 57.2125 175.153 58.3389C176.126 57.617 177.334 56.9769 178.578 56.9769C181.143 56.9769 181.399 58.6513 181.399 60.5969V66.3162C181.399 66.5518 181.323 66.6849 181.051 66.6849H181.036Z"
    fill="#58595B"
  />
<path
    d="M197.067 66.6849H195.664C195.393 66.6849 195.296 66.5671 195.296 66.3162V60.7915C195.296 59.3527 194.947 58.9431 193.975 58.9431C193.253 58.9431 192.09 59.5063 191.486 59.8187C191.486 60.0132 191.507 60.3614 191.507 60.812V66.3162C191.507 66.5518 191.43 66.6849 191.138 66.6849H189.72C189.469 66.6849 189.387 66.5671 189.387 66.3162V60.6942C189.387 59.5063 189.075 58.9431 188.102 58.9431C187.421 58.9431 186.33 59.4295 185.593 59.8187V66.3162C185.593 66.5518 185.495 66.6849 185.224 66.6849H183.821C183.57 66.6849 183.473 66.5671 183.473 66.3162V57.5402C183.473 57.2893 183.57 57.151 183.821 57.151H185.204C185.495 57.151 185.593 57.3046 185.593 57.5402V58.1034L185.613 58.1239C186.371 57.5965 187.441 57.0128 188.511 56.9769C189.638 56.9769 190.575 57.2125 191.179 58.3389C192.152 57.617 193.355 56.9769 194.604 56.9769C197.175 56.9769 197.426 58.6513 197.426 60.5969V66.3162C197.426 66.5518 197.349 66.6849 197.077 66.6849H197.067Z"
    fill="#58595B"
  />
<path
    d="M200.882 55.7527C199.868 55.7527 199.735 55.1895 199.735 54.6262C199.735 54.0016 199.95 53.5151 200.882 53.5151C201.814 53.5151 202.029 53.9606 202.029 54.6262C202.029 55.2304 201.855 55.7527 200.882 55.7527ZM201.916 66.3157C201.916 66.5308 201.839 66.6844 201.568 66.6844H200.185C199.914 66.6844 199.796 66.5666 199.796 66.3157V57.5243C199.796 57.2529 199.914 57.1556 200.185 57.1556H201.568C201.839 57.1556 201.916 57.3092 201.916 57.5243V66.3157Z"
    fill="#58595B"
  />
<path
    d="M207.518 66.8429C206.545 66.8429 205.239 66.7047 204.502 66.4128C204.113 66.2592 204.036 66.08 204.092 65.7728L204.231 65.1328C204.287 64.8204 204.425 64.8 204.737 64.8409C205.593 64.9792 206.837 65.0765 207.502 65.0765C208.747 65.0765 209.254 64.7436 209.254 63.9654C209.254 63.0693 208.921 62.8748 207.697 62.7007C205.792 62.4293 204.118 62.0197 204.118 59.8999C204.118 57.9747 205.598 56.9609 207.774 56.9609C208.573 56.9609 209.914 57.0786 210.733 57.391C211.066 57.5292 211.199 57.6828 211.143 57.9747L210.989 58.6762C210.933 58.9475 210.815 58.9885 210.462 58.9475C209.627 58.8502 208.537 58.7325 207.815 58.7325C206.571 58.7325 206.279 59.0807 206.279 59.8231C206.279 60.5655 206.745 60.6782 207.933 60.8727C209.781 61.1441 211.455 61.5128 211.455 63.8322C211.455 66.1517 209.53 66.8481 207.528 66.8481L207.518 66.8429Z"
    fill="#58595B"
  />
<path
    d="M216.452 66.8429C215.48 66.8429 214.174 66.7047 213.437 66.4128C213.047 66.2592 212.971 66.08 213.027 65.7728L213.165 65.1328C213.222 64.8204 213.36 64.8 213.672 64.8409C214.527 64.9792 215.771 65.0765 216.437 65.0765C217.681 65.0765 218.188 64.7436 218.188 63.9654C218.188 63.0693 217.855 62.8748 216.632 62.7007C214.727 62.4293 213.053 62.0197 213.053 59.8999C213.053 57.9747 214.532 56.9609 216.708 56.9609C217.507 56.9609 218.849 57.0786 219.668 57.391C220.001 57.5292 220.134 57.6828 220.078 57.9747L219.924 58.6762C219.868 58.9475 219.75 58.9885 219.397 58.9475C218.562 58.8502 217.471 58.7325 216.749 58.7325C215.505 58.7325 215.213 59.0807 215.213 59.8231C215.213 60.5655 215.679 60.6782 216.867 60.8727C218.716 61.1441 220.39 61.5128 220.39 63.8322C220.39 66.1517 218.465 66.8481 216.463 66.8481L216.452 66.8429Z"
    fill="#58595B"
  />
<path
    d="M223.554 55.7527C222.541 55.7527 222.407 55.1895 222.407 54.6262C222.407 54.0016 222.622 53.5151 223.554 53.5151C224.486 53.5151 224.701 53.9606 224.701 54.6262C224.701 55.2304 224.527 55.7527 223.554 55.7527ZM224.584 66.3157C224.584 66.5308 224.507 66.6844 224.235 66.6844H222.853C222.582 66.6844 222.464 66.5666 222.464 66.3157V57.5243C222.464 57.2529 222.582 57.1556 222.853 57.1556H224.235C224.507 57.1556 224.584 57.3092 224.584 57.5243V66.3157Z"
    fill="#58595B"
  />
<path
    d="M230.963 66.8429C227.051 66.8429 226.801 63.9859 226.801 61.7637C226.801 59.9357 227.21 56.9609 230.963 56.9609C234.716 56.9609 235.264 59.4698 235.264 61.7637C235.264 64.0575 234.993 66.8429 230.963 66.8429ZM230.984 58.8298C229.33 58.8298 228.961 59.8794 228.961 61.9019C228.961 63.9244 229.33 64.9741 230.963 64.9741C232.735 64.9741 233.083 63.9807 233.083 61.9019C233.083 59.8231 232.75 58.8298 230.984 58.8298Z"
    fill="#58595B"
  />
<path
    d="M245.033 66.6849H243.631C243.38 66.6849 243.262 66.5671 243.262 66.3162L243.282 60.8478C243.282 59.7009 243.011 58.9431 241.879 58.9431C241.101 58.9431 239.739 59.5678 239.212 59.8187V66.3162C239.212 66.5518 239.114 66.6849 238.843 66.6849H237.461C237.189 66.6849 237.092 66.5671 237.092 66.3162V57.5402C237.092 57.2893 237.189 57.151 237.461 57.151H238.843C239.114 57.151 239.212 57.2893 239.212 57.5402V58.1239C239.212 58.1239 239.253 58.1443 239.268 58.1443C239.99 57.6374 241.352 56.9769 242.535 56.9769C245.161 56.9769 245.392 58.7076 245.392 60.6737V66.3162C245.392 66.5518 245.315 66.6849 245.023 66.6849H245.033Z"
    fill="#58595B"
  />
<path d="M257.619 66.6843V27.5862H254.286V66.6843H257.619Z" fill="#003399" />
</svg>
