<svg
  width="291"
  height="72"
  viewBox="0 0 291 72"
  fill="none"
  xmlns="http://www.w3.org/2000/svg"
>
<path
    d="M86.9932 27.541H86.9369H28.567V66.1905H86.9369H86.9932V27.541Z"
    fill="#003399"
  />
<path
    d="M58.3093 33.3809H60.3442L58.703 34.6449L59.3421 36.6472L57.711 35.4135L56.08 36.6472L56.7191 34.6449L55.0676 33.3809H57.0975L57.711 31.4292L58.3093 33.3809Z"
    fill="#FFED00"
  />
<path
    d="M58.3808 59.1573H60.4158L58.7796 60.3759L59.4137 62.3023L57.7826 61.1141L56.1516 62.3023L56.7958 60.3759L55.1392 59.1573H57.1691L57.7826 57.2815L58.3808 59.1573Z"
    fill="#FFED00"
  />
<path
    d="M64.8283 57.4534H66.8684L65.2271 58.6669L65.8663 60.5933L64.2301 59.4051L62.5991 60.5933L63.2433 58.6669L61.5867 57.4534H63.6165L64.2301 55.5725L64.8283 57.4534Z"
    fill="#FFED00"
  />
<path
    d="M64.8283 35.1H66.8684L65.2271 36.3185L65.8663 38.2449L64.2301 37.0567L62.5991 38.2449L63.2433 36.3185L61.5867 35.1H63.6165L64.2301 33.2241L64.8283 35.1Z"
    fill="#FFED00"
  />
<path
    d="M69.6192 39.8377H71.6491L70.0129 41.0512L70.6469 42.9776L69.0159 41.7894L67.3848 42.9776L68.0291 41.0512L66.3724 39.8377H68.4023L69.0159 37.9568L69.6192 39.8377Z"
    fill="#FFED00"
  />
<path
    d="M69.6192 52.7815H71.6491L70.0129 54L70.6469 55.9264L69.0159 54.7382L67.3848 55.9264L68.0291 54L66.3724 52.7815H68.4023L69.0159 50.9056L69.6192 52.7815Z"
    fill="#FFED00"
  />
<path
    d="M71.4087 46.2085H73.4488L71.8076 47.427L72.4467 49.3534L70.8105 48.1652L69.1795 49.3534L69.8237 47.427L68.1671 46.2085H70.197L70.8105 44.3326L71.4087 46.2085Z"
    fill="#FFED00"
  />
<path
    d="M51.7391 35.1202H53.7689L52.1328 36.3336L52.7668 38.26L51.1357 37.0718L49.5047 38.26L50.1489 36.3336L48.4974 35.1202H50.5222L51.1357 33.2393L51.7391 35.1202Z"
    fill="#FFED00"
  />
<path
    d="M47.0811 39.8528H49.1212L47.4799 41.0663L48.1139 42.9927L46.4829 41.8045L44.8518 42.9927L45.4961 41.0663L43.8395 39.8528H45.8693L46.4829 37.9719L47.0811 39.8528Z"
    fill="#FFED00"
  />
<path
    d="M45.3529 46.2287H47.3879L45.7517 47.4422L46.3857 49.3686L44.7547 48.1854L43.1237 49.3686L43.7679 47.4422L42.1164 46.2287H44.1411L44.7547 44.3478L45.3529 46.2287Z"
    fill="#FFED00"
  />
<path
    d="M47.0811 52.7966H49.1212L47.4799 54.0152L48.1139 55.9416L46.4829 54.7534L44.8518 55.9416L45.4961 54.0152L43.8395 52.7966H45.8693L46.4829 50.9208L47.0811 52.7966Z"
    fill="#FFED00"
  />
<path
    d="M51.8055 57.4685H53.8354L52.1992 58.682L52.8332 60.6084L51.2022 59.4202L49.5711 60.6084L50.2154 58.682L48.5639 57.4685H50.5886L51.2022 55.5876L51.8055 57.4685Z"
    fill="#FFED00"
  />
<path
    d="M95.8693 0.00505726C95.8693 0.00505726 107.869 18.9101 110.068 22.3736C112.262 25.8371 114.772 28.5826 123.653 30.4433C132.535 32.304 136.4 33.1837 136.4 33.1837V33.8562C136.4 33.8562 130.755 32.668 123.495 31.0652C116.234 29.4624 113.264 28.9214 109.956 24.3657C107.2 20.5736 95.8693 3.61517 95.8693 3.61517V0V0.00505726Z"
    fill="#6D6E70"
  />
<path
    d="M95.8693 21.5949C95.8693 21.5949 106.796 32.9157 109.956 36.1668C113.31 39.6151 117.6 40.8893 123.551 41.941C129.232 42.9421 136.395 44.1 136.395 44.1V44.7371C136.395 44.7371 129.666 43.6449 123.551 42.6135C117.553 41.5972 113.356 41.0309 109.92 37.9011C106.842 35.1 95.8693 24.9219 95.8693 24.9219V21.5898V21.5949Z"
    fill="#6D6E70"
  />
<path
    d="M95.8693 26.6967C95.8693 26.6967 106.259 36.2377 109.956 39.499C113.356 42.4973 116.112 43.4327 123.587 44.7422C131.062 46.0518 136.395 46.8658 136.395 46.8658V47.5383C136.395 47.5383 129.63 46.4411 123.551 45.4804C117.472 44.5248 113.596 44.1456 109.956 41.2282C105.758 37.8608 95.8693 29.8113 95.8693 29.8113V26.6917V26.6967Z"
    fill="#6D6E70"
  />
<path
    d="M95.8693 32.1321C95.8693 32.1321 107.737 41.4456 109.956 43.0737C112.175 44.7018 115.109 46.6029 123.623 47.8214C132.064 49.0298 136.395 49.6265 136.395 49.6265V50.3343C136.395 50.3343 128.741 49.2371 123.623 48.6001C118.505 47.963 114.583 47.69 109.991 44.6664C105.523 41.7237 95.8693 35.004 95.8693 35.004V32.1321Z"
    fill="#6D6E70"
  />
<path
    d="M95.8693 37.3601C95.8693 37.3601 107.772 45.1972 110.027 46.441C112.282 47.6798 114.931 49.7022 123.623 50.7994C132.315 51.8966 136.395 52.3921 136.395 52.3921V53.0646C136.395 53.0646 129.206 52.286 123.587 51.6843C117.973 51.0826 114.143 50.2685 109.956 47.9983C105.768 45.7331 95.8693 40.0095 95.8693 40.0095V37.3601Z"
    fill="#6D6E70"
  />
<path
    d="M95.8693 42.5882C95.8693 42.5882 106.392 48.2511 109.956 50.0157C113.928 51.9876 117.364 52.9331 123.587 53.6663C129.697 54.3843 136.395 55.082 136.395 55.082V55.7191C136.395 55.7191 130.203 55.0618 123.587 54.4449C117.027 53.8281 114.69 53.5449 109.956 51.4668C105.722 49.6062 95.8693 45.0657 95.8693 45.0657V42.5831V42.5882Z"
    fill="#6D6E70"
  />
<path
    d="M95.8693 47.8871C95.8693 47.8871 104.183 51.4062 110.027 53.7017C115.774 55.9568 120.166 56.1489 123.658 56.5382C125.197 56.7101 136.395 57.8478 136.395 57.8478V58.4848C136.395 58.4848 129.707 57.9539 123.623 57.423C117.538 56.8921 114.915 56.6646 109.991 55.0517C105.006 53.4135 95.8693 50.2635 95.8693 50.2635V47.8921V47.8871Z"
    fill="#6D6E70"
  />
<path
    d="M95.8693 53.2922C95.8693 53.2922 104.265 55.8658 109.991 57.3524C115.718 58.8389 120.974 59.4456 123.623 59.6175C126.271 59.7945 136.4 60.6085 136.4 60.6085V61.2102C136.4 61.2102 130.638 60.8209 123.587 60.3254C117.886 59.9259 113.31 59.5012 109.956 58.7681C106.244 57.9591 95.8693 55.522 95.8693 55.522V53.2922Z"
    fill="#6D6E70"
  />
<path
    d="M95.8693 58.6062C95.8693 58.6062 102.736 59.7792 109.991 60.9674C115.432 61.8573 122.799 62.4186 123.587 62.454C124.374 62.4893 136.395 63.3034 136.395 63.3034V63.9405C136.395 63.9405 128.7 63.5461 123.587 63.268C118.259 62.9747 112.962 62.6562 109.956 62.3478C103.217 61.6551 95.8693 60.7349 95.8693 60.7349V58.6062Z"
    fill="#6D6E70"
  />
<path
    d="M95.8693 64.1074C95.8693 64.1074 106.699 64.5119 109.991 64.5827C113.284 64.6535 136.395 65.5737 136.395 65.5737V66.1956H95.8693V64.1074Z"
    fill="#6D6E70"
  />
<path
    d="M123.582 33.3657C113.78 31.2775 111.561 27.7332 109.915 25.5388C108.268 23.3393 95.8642 5.41516 95.8642 5.41516V8.71179C96.355 9.34382 106.97 23.8348 109.95 27.627C113.31 31.8994 118.571 32.8702 123.582 33.932C128.587 34.9938 136.395 36.4753 136.395 36.4753V35.909C136.395 35.909 126.118 33.9017 123.582 33.3657Z"
    fill="#6D6E70"
  />
<path
    d="M123.582 36.2022C115.534 34.6449 112.277 32.127 109.915 29.0831C107.552 26.0343 95.8642 10.446 95.8642 10.446V14.2786C96.355 14.85 107.046 27.7534 109.915 30.9994C113.259 34.7865 117.927 35.7826 123.582 36.809C129.237 37.8354 136.39 39.1803 136.39 39.1803V38.614C136.39 38.614 128.224 37.1022 123.582 36.2073V36.2022Z"
    fill="#6D6E70"
  />
<path
    d="M123.582 39.1399C115.212 37.5321 113.494 36.2124 109.95 32.3748C107.721 29.963 96.3448 16.6804 95.8642 16.1191V19.6585C95.8642 19.6585 106.494 30.8731 109.915 34.1849C114.399 38.5332 118.607 38.8619 123.582 39.7467C128.557 40.6315 136.39 42.0473 136.39 42.0473V41.4456C136.39 41.4456 126.931 39.7871 123.582 39.145V39.1399Z"
    fill="#6D6E70"
  />
<path
    d="M0.782944 27.7787C0.782944 27.7787 28.4954 24.8562 36.2569 23.7792C48.5281 22.0803 58.57 20.2702 67.8603 6.18875C67.8603 6.18875 67.8705 5.38987 67.8603 5.03088C62.1696 13.591 54.3211 19.4309 43.5122 21.1247C32.9539 22.7831 0.777832 25.2051 0.777832 25.2051V27.7787H0.782944Z"
    fill="#6D6E70"
  />
<path
    d="M0.777832 24.2848C0.777832 24.2848 26.4604 21.1045 34.9224 19.9314C48.3082 18.0809 57.7212 16.4174 67.8552 1.05669C67.8552 1.05669 67.8603 0.394331 67.8552 0.00500488C61.648 9.34378 53.9836 15.3758 42.1931 17.2264C30.6735 19.0365 0.777832 21.6758 0.777832 21.6758V24.2899V24.2848Z"
    fill="#6D6E70"
  />
<path d="M26.9973 64.1326H0.793167V66.1854H26.9973V64.1326Z" fill="#6D6E70" />
<path
    d="M67.8552 22.5708C67.8552 22.5708 67.8705 21.3624 67.8654 21.1045C66.6332 22.9601 65.0124 24.6438 63.141 26.1253H64.9766C66.0094 25.0736 66.9758 23.8955 67.8501 22.5708H67.8552Z"
    fill="#6D6E70"
  />
<path
    d="M67.8552 17.1102C67.8552 17.1102 67.8654 16.0383 67.8603 15.745C64.8897 20.2147 60.4669 23.7843 55.3539 26.1506L58.3706 26.1405C61.8577 24.1332 65.0993 21.2815 67.8501 17.1102H67.8552Z"
    fill="#6D6E70"
  />
<path
    d="M67.8552 11.6495C67.8552 11.6495 67.8654 10.7141 67.8552 10.3905C62.686 18.172 54.6483 23.4961 44.8212 25.0383C42.4948 25.4023 38.706 25.8068 34.3037 26.2164L46.3039 26.1759C54.224 24.4315 61.6378 21.059 67.845 11.6495H67.8552Z"
    fill="#6D6E70"
  />
<path
    d="M27.0024 60.6742C13.6319 60.745 0.793167 60.8006 0.793167 60.8006V62.9394C0.793167 62.9394 14.2403 62.8433 27.0024 62.7371V60.6742Z"
    fill="#6D6E70"
  />
<path
    d="M27.0024 57.0034C13.7239 57.15 0.788055 57.2613 0.788055 57.2613V59.4456C0.788055 59.4456 14.3733 59.2686 27.0024 59.0714V57.0034Z"
    fill="#6D6E70"
  />
<path
    d="M26.9973 53.3225C13.816 53.55 0.788055 53.722 0.788055 53.722V55.9517C0.788055 55.9517 14.5164 55.6837 26.9973 55.3905V53.3225Z"
    fill="#6D6E70"
  />
<path
    d="M27.0024 49.6214C13.9182 49.9399 0.788055 50.1776 0.788055 50.1776V52.4478C0.788055 52.4478 14.6749 52.0736 27.0024 51.6843V49.6163V49.6214Z"
    fill="#6D6E70"
  />
<path
    d="M27.0075 45.9102C14.0205 46.3197 0.788055 46.6433 0.788055 46.6433V48.959C0.788055 48.959 14.8437 48.4736 27.0075 47.9781V45.9152V45.9102Z"
    fill="#6D6E70"
  />
<path
    d="M27.0024 42.1838C14.1176 42.6995 0.788055 43.104 0.788055 43.104V45.4602C0.788055 45.4602 15.0175 44.8433 27.0024 44.2315V42.1787V42.1838Z"
    fill="#6D6E70"
  />
<path
    d="M27.0075 38.432C14.2199 39.059 0.782944 39.5595 0.782944 39.5595V41.9612C0.782944 41.9612 15.2016 41.1977 27.0075 40.4646V38.432Z"
    fill="#6D6E70"
  />
<path
    d="M27.0075 34.6602C14.317 35.4085 0.782944 36.0203 0.782944 36.0203V38.4624C0.782944 38.4624 15.3959 37.5321 27.0075 36.6725V34.6602Z"
    fill="#6D6E70"
  />
<path
    d="M27.0075 30.868C14.404 31.7478 0.782944 32.486 0.782944 32.486V34.9737C0.782944 34.9737 15.5902 33.8512 27.0075 32.8602V30.8731V30.868Z"
    fill="#6D6E70"
  />
<path
    d="M27.0075 27.0404C14.4807 28.0668 0.777832 28.9415 0.777832 28.9415V31.4696C0.777832 31.4696 15.7845 30.1247 27.0075 28.9921V27.0404Z"
    fill="#6D6E70"
  />
<path d="M227.085 66.1956V27.3591H223.769V66.1956H227.085Z" fill="#003399" />
<path
    d="M145.411 33.4114C145.411 33.1622 145.528 33.0249 145.798 33.0249H152.908C153.142 33.0249 153.274 33.1622 153.274 33.3911V34.5914C153.274 34.8253 153.178 34.9372 152.888 34.9372H147.613V38.2635H152.287C152.537 38.2635 152.674 38.3804 152.674 38.6093V39.8096C152.674 40.0435 152.577 40.1554 152.287 40.1554H147.613V43.9597H153.025C153.259 43.9597 153.371 44.0767 153.371 44.3259V45.5059C153.371 45.7551 153.274 45.8517 153.005 45.8517H145.798C145.528 45.8517 145.411 45.7347 145.411 45.5059V33.4064V33.4114Z"
    fill="#58595B"
  />
<path
    d="M163.108 45.8517H161.735C161.445 45.8517 161.369 45.7143 161.369 45.4855V44.8853L161.328 44.865C160.576 45.3888 159.258 46.0246 158.084 46.0246C155.474 46.0246 155.225 44.4785 155.225 42.4492V36.7681C155.225 36.5342 155.322 36.3816 155.591 36.3816H157C157.249 36.3816 157.346 36.5189 157.346 36.7681V42.1999C157.346 43.3595 157.58 44.0919 158.755 44.0919C159.584 44.0919 160.86 43.4714 161.364 43.2222V36.7681C161.364 36.5342 161.44 36.3816 161.73 36.3816H163.103C163.373 36.3816 163.47 36.5189 163.47 36.7681V45.4855C163.47 45.7347 163.373 45.8517 163.103 45.8517H163.108Z"
    fill="#58595B"
  />
<path
    d="M168.022 45.4856C168.022 45.7195 167.925 45.8518 167.655 45.8518H166.267C165.997 45.8518 165.901 45.7348 165.901 45.4856V36.7682C165.901 36.519 165.997 36.3817 166.267 36.3817H167.64C167.93 36.3817 168.027 36.5343 168.027 36.7682V37.6176L168.067 37.6583C168.647 37.1192 170.02 36.458 170.926 36.2851C171.175 36.2291 171.353 36.2851 171.388 36.6156L171.526 37.9126C171.546 38.1821 171.566 38.2991 171.16 38.3754C170.076 38.589 168.708 38.9755 168.032 39.2654V45.4856H168.022Z"
    fill="#58595B"
  />
<path
    d="M176.525 46.0094C172.64 46.0094 172.391 43.1714 172.391 40.9641C172.391 39.1484 172.797 36.1935 176.525 36.1935C180.253 36.1935 180.798 38.6856 180.798 40.9641C180.798 43.2426 180.528 46.0094 176.525 46.0094ZM176.546 38.0499C174.903 38.0499 174.537 39.0925 174.537 41.1014C174.537 43.1104 174.903 44.153 176.525 44.153C178.285 44.153 178.631 43.1663 178.631 41.1014C178.631 39.0365 178.3 38.0499 176.546 38.0499Z"
    fill="#58595B"
  />
<path
    d="M187.191 46.0297C186.555 46.0297 185.665 45.9127 184.775 45.6025L184.755 45.6228V49.0253C184.755 49.239 184.694 49.4119 184.388 49.4119H183.015C182.705 49.4119 182.649 49.2746 182.649 49.0253V36.7732C182.649 36.524 182.746 36.3867 183.015 36.3867H184.388C184.658 36.3867 184.734 36.5393 184.734 36.7732V37.353L184.795 37.3937C185.492 36.9106 186.728 36.2341 187.847 36.2341C190.38 36.2341 191.036 38.1465 191.036 41.0658C191.036 44.214 190.242 46.0297 187.191 46.0297ZM187.343 38.1668C186.55 38.1668 185.334 38.7263 184.755 39.0365V43.8682C185.624 44.1174 186.321 44.1988 186.977 44.1988C188.366 44.1988 188.854 43.4816 188.854 41.0505C188.854 38.6195 188.371 38.1719 187.348 38.1719L187.343 38.1668Z"
    fill="#58595B"
  />
<path
    d="M196.702 46.0094C192.816 46.0094 192.567 43.1714 192.567 40.9641C192.567 39.1484 192.974 36.1935 196.702 36.1935C200.43 36.1935 200.974 38.6856 200.974 40.9641C200.974 43.2426 200.704 46.0094 196.702 46.0094ZM196.722 38.0499C195.079 38.0499 194.713 39.0925 194.713 41.1014C194.713 43.1104 195.079 44.153 196.702 44.153C198.461 44.153 198.807 43.1663 198.807 41.1014C198.807 39.0365 198.477 38.0499 196.722 38.0499Z"
    fill="#58595B"
  />
<path
    d="M206.034 46.0094C205.068 46.0094 203.771 45.8721 203.039 45.5822C202.652 45.4296 202.576 45.2516 202.632 44.9464L202.769 44.3107C202.825 44.0004 202.962 43.9801 203.273 44.0208C204.122 44.1581 205.358 44.2547 206.014 44.2547C207.25 44.2547 207.753 43.9242 207.753 43.1511C207.753 42.261 207.423 42.0678 206.207 41.8949C204.315 41.6253 202.652 41.2184 202.652 39.1128C202.652 37.2005 204.122 36.1935 206.284 36.1935C207.077 36.1935 208.409 36.3105 209.223 36.6207C209.554 36.758 209.686 36.9106 209.63 37.2005L209.477 37.8973C209.422 38.1668 209.305 38.2075 208.954 38.1668C208.125 38.0702 207.041 37.9532 206.324 37.9532C205.088 37.9532 204.798 38.2991 204.798 39.0365C204.798 39.774 205.261 39.8859 206.441 40.0792C208.277 40.3487 209.94 40.7149 209.94 43.0188C209.94 45.3228 208.028 46.0145 206.039 46.0145L206.034 46.0094Z"
    fill="#58595B"
  />
<path
    d="M147.622 59.5482L149.092 57.6562L152.336 53.6587C152.509 53.4654 152.667 53.3688 152.972 53.3688H154.732C155.001 53.3688 155.078 53.562 154.905 53.7553L150.709 58.8565L155.037 65.7938C155.19 66.043 155.057 66.2007 154.844 66.2007H153.064C152.733 66.2007 152.601 66.0633 152.443 65.8345L149.275 60.5807L147.576 62.6863V65.8345C147.576 66.0481 147.5 66.2007 147.23 66.2007H145.781C145.511 66.2007 145.394 66.0837 145.394 65.8345V53.7553C145.394 53.5061 145.511 53.3688 145.781 53.3688H147.23C147.5 53.3688 147.576 53.5214 147.576 53.7553V59.5533H147.617L147.622 59.5482Z"
    fill="#58595B"
  />
<path
    d="M160.316 66.3533C156.431 66.3533 156.181 63.5153 156.181 61.308C156.181 59.4923 156.588 56.5374 160.316 56.5374C164.044 56.5374 164.589 59.0295 164.589 61.308C164.589 63.5865 164.319 66.3533 160.316 66.3533ZM160.337 58.3937C158.694 58.3937 158.328 59.4364 158.328 61.4453C158.328 63.4543 158.694 64.4969 160.316 64.4969C162.076 64.4969 162.422 63.5102 162.422 61.4453C162.422 59.3804 162.091 58.3937 160.337 58.3937Z"
    fill="#58595B"
  />
<path
    d="M179.974 66.1955H178.58C178.311 66.1955 178.214 66.0785 178.214 65.8293V60.3415C178.214 58.9124 177.868 58.5055 176.902 58.5055C176.185 58.5055 175.025 59.065 174.43 59.3752C174.43 59.5685 174.45 59.9143 174.45 60.3619V65.8293C174.45 66.0633 174.374 66.1955 174.084 66.1955H172.675C172.426 66.1955 172.345 66.0785 172.345 65.8293V60.2449C172.345 59.065 172.035 58.5055 171.068 58.5055C170.392 58.5055 169.308 58.9887 168.576 59.3752V65.8293C168.576 66.0633 168.479 66.1955 168.21 66.1955H166.816C166.567 66.1955 166.471 66.0785 166.471 65.8293V57.112C166.471 56.8627 166.567 56.7254 166.816 56.7254H168.19C168.479 56.7254 168.576 56.878 168.576 57.112V57.6714L168.596 57.6918C169.349 57.1679 170.412 56.5881 171.475 56.5525C172.594 56.5525 173.525 56.7864 174.125 57.9054C175.091 57.1882 176.292 56.5525 177.527 56.5525C180.081 56.5525 180.33 58.2156 180.33 60.1483V65.8293C180.33 66.0633 180.253 66.1955 179.984 66.1955H179.974Z"
    fill="#58595B"
  />
<path
    d="M183.758 55.3371C182.756 55.3371 182.618 54.7776 182.618 54.2182C182.618 53.5977 182.832 53.1145 183.758 53.1145C184.683 53.1145 184.897 53.557 184.897 54.2182C184.897 54.8183 184.724 55.3371 183.758 55.3371ZM184.78 65.8294C184.78 66.043 184.704 66.1956 184.434 66.1956H183.061C182.791 66.1956 182.674 66.0786 182.674 65.8294V57.0968C182.674 56.8273 182.791 56.7306 183.061 56.7306H184.434C184.704 56.7306 184.78 56.8832 184.78 57.0968V65.8294Z"
    fill="#58595B"
  />
<path
    d="M190.349 66.3533C189.383 66.3533 188.086 66.216 187.354 65.9261C186.967 65.7735 186.891 65.5955 186.947 65.2903L187.084 64.6546C187.14 64.3443 187.277 64.324 187.588 64.3647C188.437 64.502 189.673 64.5986 190.329 64.5986C191.565 64.5986 192.068 64.268 192.068 63.495C192.068 62.6049 191.738 62.4117 190.522 62.2387C188.63 61.9692 186.967 61.5623 186.967 59.4567C186.967 57.5444 188.437 56.5374 190.598 56.5374C191.392 56.5374 192.724 56.6543 193.538 56.9646C193.869 57.1019 194.001 57.2545 193.945 57.5444L193.792 58.2412C193.737 58.5107 193.62 58.5514 193.269 58.5107C192.44 58.4141 191.356 58.2971 190.639 58.2971C189.403 58.2971 189.113 58.643 189.113 59.3804C189.113 60.1179 189.576 60.2298 190.756 60.423C192.592 60.6926 194.255 61.0588 194.255 63.3627C194.255 65.6667 192.343 66.3584 190.354 66.3584L190.349 66.3533Z"
    fill="#58595B"
  />
<path
    d="M197.403 55.3371C196.401 55.3371 196.264 54.7776 196.264 54.2182C196.264 53.5977 196.478 53.1145 197.403 53.1145C198.329 53.1145 198.543 53.557 198.543 54.2182C198.543 54.8183 198.37 55.3371 197.403 55.3371ZM198.426 65.8294C198.426 66.043 198.349 66.1956 198.08 66.1956H196.707C196.437 66.1956 196.32 66.0786 196.32 65.8294V57.0968C196.32 56.8273 196.437 56.7306 196.707 56.7306H198.08C198.349 56.7306 198.426 56.8832 198.426 57.0968V65.8294Z"
    fill="#58595B"
  />
<path
    d="M203.491 66.4092C203.491 68.9217 202.428 70.3305 199.184 70.2135C199.046 70.2135 198.777 70.1372 198.756 69.827L198.68 68.9166C198.639 68.6064 198.721 68.5504 198.99 68.4894C200.806 68.1232 201.365 67.9503 201.365 66.4397V57.0866C201.365 56.8171 201.482 56.7205 201.752 56.7205H203.105C203.395 56.7205 203.491 56.873 203.491 57.0866V66.399V66.4092ZM202.428 55.3371C201.421 55.3371 201.289 54.7776 201.289 54.2182C201.289 53.5977 201.523 53.1145 202.428 53.1145C203.334 53.1145 203.568 53.557 203.568 54.2182C203.568 54.8183 203.395 55.3371 202.428 55.3371Z"
    fill="#58595B"
  />
<path
    d="M211.878 65.0971C210.911 65.8295 209.615 66.3533 208.323 66.3533C206.273 66.3533 205.678 65.2344 205.678 63.612C205.658 61.3487 206.878 60.3824 209.309 60.3824H211.781V59.8789C211.781 58.7193 211.359 58.3124 209.772 58.3124C209.136 58.3124 207.916 58.409 207.143 58.4853C206.756 58.5413 206.66 58.526 206.604 58.2514L206.431 57.5342C206.39 57.285 206.451 57.1274 206.873 56.9544C207.702 56.6645 209.233 56.5272 210.138 56.5272C213.48 56.5272 213.887 57.9004 213.887 60.062V63.79C213.887 64.5834 213.983 64.6037 214.584 64.68C214.873 64.7004 214.95 64.7563 214.95 64.9699V65.7837C214.95 65.9973 214.812 66.1295 214.487 66.1906C214.177 66.2465 213.866 66.2872 213.577 66.2872C212.666 66.2872 212.107 66.0176 211.913 65.1072L211.873 65.0869L211.878 65.0971ZM211.761 61.8878H209.406C208.44 61.8878 207.819 62.2337 207.819 63.5103C207.819 64.3596 208.109 64.6292 209.019 64.6292C209.849 64.6292 211.028 64.146 211.761 63.7188V61.8827V61.8878Z"
    fill="#58595B"
  />
</svg>
