<svg width="290" height="72" viewBox="0 0 290 72" fill="none" xmlns="http://www.w3.org/2000/svg">
<path fill-rule="evenodd" clip-rule="evenodd" d="M0 24.5C0 24.5 39.8 19.3 41 19.1C42.7 18.8 44.3 18.5 45.7 18.1C48.9 17.2 51.9 15.9 54.5 14.1C57 12.4 59.4 9.9 61.7 7.2C63.2 5.5 64.7 3.2 66.2 1V0C64.5 2.6 62.8 4.8 61.1 6.7C58.8 9.3 56.4 11.4 53.9 13C51.4 14.6 48.5 15.9 45.4 16.7C44 17.1 42.5 17.3 40.8 17.6C39.7 17.8 38.6 17.9 37.5 18C37 18 0 21.9 0 21.9V24.5Z" fill="#BBBDBF"/>
<mask id="mask0_4335_523231" style="mask-type:alpha" maskUnits="userSpaceOnUse" x="0" y="5" width="67" height="23">
<path fill-rule="evenodd" clip-rule="evenodd" d="M0 5.1998H66.0999V27.9998H0V5.1998Z" fill="white"/>
</mask>
<g mask="url(#mask0_4335_523231)">
<path fill-rule="evenodd" clip-rule="evenodd" d="M53.3999 17.7998C50.8999 19.1998 47.9999 20.2998 44.7999 20.8998C43.3999 21.1998 41.9999 21.3998 40.2999 21.5998C39.2999 21.6998 38.2999 21.7998 37.2999 21.8998C36.7999 21.8998 36.1999 21.9998 35.6999 21.9998C23.4999 23.1998 11.3999 24.2998 -9.91821e-05 25.3998V27.9998C11.3999 26.5998 23.6999 25.0998 35.8999 23.6998C36.3999 23.5998 36.9999 23.5998 37.4999 23.4998C38.4999 23.3998 39.4999 23.2998 40.4999 23.0998C42.1999 22.8998 43.7999 22.5998 45.0999 22.2998C48.3999 21.5998 51.3999 20.3998 53.9999 18.7998C56.5999 17.1998 58.7999 15.0998 61.2999 12.3998C62.7999 10.6998 64.4999 8.3998 66.0999 6.1998V5.1998C64.1999 7.6998 62.4999 9.8998 60.6999 11.6998C58.2999 14.3998 55.8999 16.3998 53.3999 17.7998" fill="#BBBDBF"/>
</g>
<mask id="mask1_4335_523231" style="mask-type:alpha" maskUnits="userSpaceOnUse" x="0" y="10" width="67" height="22">
<path fill-rule="evenodd" clip-rule="evenodd" d="M0 10.9002H66.0999V31.5002H0V10.9002Z" fill="white"/>
</mask>
<g mask="url(#mask1_4335_523231)">
<path fill-rule="evenodd" clip-rule="evenodd" d="M60.3999 17.2002C57.9999 19.4002 55.3999 21.2002 52.8999 22.5002C50.3999 23.7002 47.5999 24.6002 44.2999 25.1002C42.8999 25.3002 41.4999 25.5002 39.7999 25.7002L-9.91821e-05 28.9002V31.5002L35.2999 27.7002L39.8999 27.2002C41.5999 27.0002 43.0999 26.8002 44.4999 26.5002C47.8999 25.9002 50.7999 24.9002 53.3999 23.6002C56.0999 22.2002 58.6999 20.0002 61.1999 17.6002C62.8999 16.0002 64.3999 13.9002 66.0999 11.8002V10.9002C64.0999 13.4002 62.2999 15.4002 60.3999 17.2002" fill="#BBBDBF"/>
</g>
<mask id="mask2_4335_523231" style="mask-type:alpha" maskUnits="userSpaceOnUse" x="0" y="21" width="67" height="18">
<path fill-rule="evenodd" clip-rule="evenodd" d="M0 21.7H66.1998V38.5H0V21.7Z" fill="white"/>
</mask>
<g mask="url(#mask2_4335_523231)">
<path fill-rule="evenodd" clip-rule="evenodd" d="M50.7998 30.6C48.4998 31.9 46.7998 32.7 43.4998 33C41.4998 33.2 39.4998 33.3 37.4998 33.4C36.4998 33.4 35.5998 33.5 34.5998 33.6C28.5998 33.9 22.6998 34.3 16.6998 34.7L-0.000198364 35.9V38.5L16.7998 36.9C22.1998 36.4 28.4998 35.8 34.6998 35.3L39.1998 35C40.8998 34.9 42.3998 34.7 43.6998 34.5C47.0998 34.1 49.9998 33.4 52.5998 32.4C55.3998 31.4 57.9998 29.7 60.5998 27.8C62.9998 26.1 66.1998 22.7 66.1998 22.6V21.7C64.0998 23.8 62.7998 25 60.4998 26.5C57.5998 28.5 52.8998 29.5 50.7998 30.6" fill="#BBBDBF"/>
</g>
<path fill-rule="evenodd" clip-rule="evenodd" d="M51.6001 35.6001C49.1001 36.3001 46.3001 36.8001 43.0001 37.1001C41.7001 37.2001 40.2001 37.3001 38.6001 37.4001L34.2001 37.6001C23.2001 38.1001 12.2001 38.7001 0.100101 39.3001V41.9001C11.7001 41.0001 23.0001 40.1001 34.4001 39.3001L38.8001 39.0001C40.5001 38.9001 41.9001 38.8001 43.3001 38.6001C46.7001 38.2001 49.6001 37.6001 52.1001 36.8001C54.9001 35.9001 57.7001 34.6001 60.3001 32.9001C62.2001 31.7001 64.2001 30.2001 66.2001 28.4001C64.0001 30.3001 61.9001 30.7001 59.8001 32.0001C57.1001 33.6001 54.4001 34.8001 51.6001 35.6001" fill="#BBBDBF"/>
<path fill-rule="evenodd" clip-rule="evenodd" d="M51.2002 39.9004C48.7002 40.5004 45.9002 40.9004 42.6002 41.0994C41.3002 41.2004 39.9002 41.2994 38.2002 41.2994L33.8002 41.5004C22.7002 41.9004 11.5002 42.4004 0.000198364 42.9004V45.5004C11.4002 44.7004 22.6002 44.0004 33.9002 43.2004L38.3002 42.9004C40.0002 42.7994 41.4002 42.7004 42.7002 42.5994C46.1002 42.2994 48.9002 41.7994 51.5002 41.0994C54.4002 40.2994 57.2002 39.2004 59.9002 37.7994C62.0002 36.7004 64.0002 35.4004 66.1002 33.7994V32.7004C63.8002 34.4004 61.6002 35.7004 59.4002 36.7994C56.8002 38.2004 54.0002 39.2004 51.2002 39.9004" fill="#BBBDBF"/>
<mask id="mask3_4335_523231" style="mask-type:alpha" maskUnits="userSpaceOnUse" x="0" y="38" width="67" height="11">
<path fill-rule="evenodd" clip-rule="evenodd" d="M0 38.2006H66.1998V48.7996H0V38.2006Z" fill="white"/>
</mask>
<g mask="url(#mask3_4335_523231)">
<path fill-rule="evenodd" clip-rule="evenodd" d="M50.7998 44.0996C48.2998 44.5996 45.4998 44.9006 42.1998 44.9996C40.8998 45.0996 39.5998 45.0996 37.8998 45.2006L-0.000198364 46.2006V48.7996L33.5998 46.9996L37.9998 46.7996C39.6998 46.7006 41.0998 46.5996 42.3998 46.4996C45.7998 46.2006 48.4998 45.9006 51.0998 45.2996C53.9998 44.7006 56.8998 43.7996 59.5998 42.5996C61.7998 41.7006 63.8998 40.5996 66.1998 39.2006V38.2006C63.7998 39.5996 61.4998 40.7006 59.1998 41.5996C56.4998 42.7996 53.6998 43.5996 50.7998 44.0996" fill="#BBBDBF"/>
</g>
<path fill-rule="evenodd" clip-rule="evenodd" d="M50.5 48.2998C45.8 48.9008 41.1 48.9998 36.4 49.0998C35.3 49.0998 34.3 49.0998 33.2 49.1998L0 49.7998V52.4008L33.3 50.9998C34.4 50.9998 35.4 50.9008 36.5 50.9008C41.2 50.6998 46 50.4998 50.7 49.7998C53.7 49.2998 56.6 48.5998 59.2 47.6998C61.4 46.9998 63.7 45.9998 66 44.7998V43.7998C63.6 44.9008 61.1 45.9008 58.8 46.5998C56.3 47.2998 53.5 47.9998 50.5 48.2998" fill="#BBBDBF"/>
<mask id="mask4_4335_523231" style="mask-type:alpha" maskUnits="userSpaceOnUse" x="0" y="49" width="67" height="7">
<path fill-rule="evenodd" clip-rule="evenodd" d="M0 49.2006H66.1998V55.7996H0V49.2006Z" fill="white"/>
</mask>
<g mask="url(#mask4_4335_523231)">
<path fill-rule="evenodd" clip-rule="evenodd" d="M50.2998 52.5996C45.8998 52.9996 41.4998 52.9996 37.0998 52.9996H33.0998C22.0998 52.9996 11.0998 53.0996 -0.000198364 53.2006V55.7996C10.5998 55.4006 21.8998 55.0996 33.1998 54.7006C34.4998 54.7006 35.8998 54.5996 37.1998 54.5996C41.4998 54.4996 45.9998 54.4006 50.3998 53.9006C53.4998 53.5996 56.2998 53.0996 58.9998 52.4006C61.2998 51.7996 63.6998 50.9996 66.1998 50.0996V49.2006C63.6998 50.0996 61.1998 50.7996 58.7998 51.4006C56.0998 51.9996 53.2998 52.4006 50.2998 52.5996" fill="#BBBDBF"/>
</g>
<path fill-rule="evenodd" clip-rule="evenodd" d="M50.1001 56.7998C48.3001 56.9008 46.3001 56.9008 44.1001 56.9008H41.6001L33.0001 56.7998C27.1001 56.7998 21.3001 56.6998 15.8001 56.6998L9.91821e-05 56.7998V59.4008L15.9001 58.9998C21.4001 58.9008 27.2001 58.6998 33.0001 58.5998L41.6001 58.4998C44.0001 58.4998 47.1001 58.4008 50.2001 58.1998C53.3001 57.9998 56.1001 57.6998 58.8001 57.2998C61.2001 56.9008 63.7001 56.4008 66.2001 55.7998V54.9008C63.7001 55.4998 61.1001 55.9998 58.7001 56.2998C55.9001 56.4998 53.2001 56.6998 50.1001 56.7998" fill="#BBBDBF"/>
<path fill-rule="evenodd" clip-rule="evenodd" d="M41.5 60.9004L32.9 60.7994C22 60.5994 11.1 60.4004 0 60.2004V62.7994C10.6 62.7004 21.8 62.5994 32.9 62.5004L41.5 62.4004C44.4 62.4004 47.2 62.2994 50.1 62.2004C56 62.0004 61.2 61.5994 66.2 60.9004V60.0004C61.3 60.5004 56 60.7994 50.1 60.9004H41.5" fill="#BBBDBF"/>
<path fill-rule="evenodd" clip-rule="evenodd" d="M66.1001 65.5L9.91821e-05 63.8V66.4H66.1001V65.5Z" fill="#BBBDBF"/>
<path fill-rule="evenodd" clip-rule="evenodd" d="M60.2002 22C57.7002 24 55.7002 25.5 52.7002 26.7C50.0002 27.8 47.1002 28.2 43.9002 28.7C41.8002 29 39.6002 29.4 37.5002 29.6C36.6002 29.7 35.8002 29.7 34.9002 29.8L0.000198364 32.3V34.9L34.9002 31.5L39.4002 31.1C41.1002 30.9 42.6002 30.8 44.0002 30.5C47.4002 30 50.3002 29.1 52.9002 27.9C55.6002 26.7 58.4002 24.7 60.9002 22.6C62.6002 21.1 64.3002 19.3 66.1002 17.3V16.4C63.9002 18.6 62.1002 20.5 60.2002 22" fill="#BBBDBF"/>
<path fill-rule="evenodd" clip-rule="evenodd" d="M94.2002 0C94.2002 0 106.1 18.9 108.3 22.4C110.5 25.9 113 28.6 121.8 30.5C130.6 32.4 134.4 33.2 134.4 33.2V33.9C134.4 33.9 128.8 32.7 121.6 31.1C114.4 29.5 111.5 29 108.2 24.4C105.5 20.6 94.2002 4.5 94.2002 4.5V0Z" fill="#BBBDBF"/>
<path fill-rule="evenodd" clip-rule="evenodd" d="M94.2002 21.6001C94.2002 21.6001 105 32.9001 108.2 36.2001C111.5 39.7001 115.8 40.9001 121.7 42.0001C127.3 43.0001 134.4 44.2001 134.4 44.2001V44.8001C134.4 44.8001 127.7 43.7001 121.7 42.7001C115.8 41.7001 111.6 41.1001 108.2 38.0001C105.2 35.2001 94.3002 25.0001 94.3002 25.0001L94.2002 21.6001Z" fill="#BBBDBF"/>
<path fill-rule="evenodd" clip-rule="evenodd" d="M94.2002 26.7998C94.2002 26.7998 104.5 36.3998 108.2 39.5998C111.6 42.5998 114.3 43.4998 121.7 44.9008C129.1 46.1998 134.4 46.9998 134.4 46.9998V47.6998C134.4 47.6998 127.7 46.5998 121.7 45.5998C115.7 44.5998 111.8 44.2998 108.2 41.2998C104 37.9008 94.2002 29.8998 94.2002 29.8998V26.7998Z" fill="#BBBDBF"/>
<path fill-rule="evenodd" clip-rule="evenodd" d="M94.2002 32.2002C94.2002 32.2002 106 41.5002 108.2 43.2002C110.4 44.8002 113.3 46.7002 121.7 48.0002C130.1 49.2002 134.4 49.8002 134.4 49.8002V50.5002C134.4 50.5002 126.8 49.4002 121.7 48.8002C116.6 48.2002 112.7 47.9002 108.2 44.9002C103.8 42.0002 94.2002 35.2002 94.2002 35.2002V32.2002Z" fill="#BBBDBF"/>
<path fill-rule="evenodd" clip-rule="evenodd" d="M94.2002 37.4004C94.2002 37.4004 106 45.2994 108.2 46.5004C110.4 47.7004 113.1 49.7994 121.7 50.9004C130.3 52.0004 134.4 52.5004 134.4 52.5004V53.2004C134.4 53.2004 127.3 52.4004 121.7 51.7994C116.1 51.2004 112.3 50.4004 108.2 48.0994C104.1 45.7994 94.2002 40.0994 94.2002 40.0994V37.4004Z" fill="#BBBDBF"/>
<path fill-rule="evenodd" clip-rule="evenodd" d="M94.2002 42.7002C94.2002 42.7002 104.6 48.4002 108.2 50.0992C112.1 52.0992 115.5 53.0002 121.7 53.8002C127.8 54.5002 134.4 55.2002 134.4 55.2002V55.8002C134.4 55.8002 128.3 55.0992 121.7 54.5002C115.2 53.9002 112.9 53.5992 108.2 51.5002C104 49.5992 94.2002 45.0992 94.2002 45.0992V42.7002Z" fill="#BBBDBF"/>
<path fill-rule="evenodd" clip-rule="evenodd" d="M94.2002 48C94.2002 48 102.4 51.5 108.2 53.8C113.9 56.1 118.2 56.3 121.7 56.6C123.2 56.8 134.3 57.9 134.3 57.9V58.5C134.3 58.5 127.7 58 121.6 57.4C115.6 56.9 113 56.6 108.1 55C103.2 53.4 94.1002 50.2 94.1002 50.2L94.2002 48Z" fill="#BBBDBF"/>
<path fill-rule="evenodd" clip-rule="evenodd" d="M94.2002 53.4004C94.2002 53.4004 102.5 56.0004 108.2 57.5004C113.9 59.0004 119.1 59.5994 121.7 59.7994C124.3 60.0004 134.4 60.7994 134.4 60.7994V61.4004C134.4 61.4004 128.7 61.0004 121.7 60.5004C116 60.0994 111.5 59.7004 108.2 58.9004C104.5 58.0994 94.2002 55.5994 94.2002 55.5994V53.4004Z" fill="#BBBDBF"/>
<path fill-rule="evenodd" clip-rule="evenodd" d="M94.2002 58.7002C94.2002 58.7002 101 59.9002 108.2 61.0992C113.6 62.0002 120.9 62.5992 121.7 62.5992C122.5 62.5992 134.4 63.5002 134.4 63.5002V64.0992C134.4 64.0992 126.8 63.7002 121.7 63.4002C116.4 63.0992 111.2 62.8002 108.2 62.5002C101.5 61.8002 94.2002 60.9002 94.2002 60.9002V58.7002Z" fill="#BBBDBF"/>
<path fill-rule="evenodd" clip-rule="evenodd" d="M94.2002 64.2998C94.2002 64.2998 104.9 64.6998 108.2 64.7998C111.5 64.9008 134.4 65.7998 134.4 65.7998V66.4008H94.2002V64.2998Z" fill="#BBBDBF"/>
<path fill-rule="evenodd" clip-rule="evenodd" d="M121.7 33.3999C112 31.2999 109.8 27.7999 108.2 25.5999C106.6 23.3999 94.3002 5.3999 94.3002 5.3999V9.4999C94.8002 10.0999 105.3 23.8999 108.3 27.6999C111.6 31.9999 116.8 32.9999 121.8 33.9999C126.8 35.0999 134.5 36.5999 134.5 36.5999V35.9999C134.4 35.9999 124.2 33.9999 121.7 33.3999" fill="#BBBDBF"/>
<path fill-rule="evenodd" clip-rule="evenodd" d="M121.7 36.2998C113.7 34.6998 110.5 32.1998 108.2 29.1998C105.9 26.0998 94.3002 10.8998 94.3002 10.8998V14.6998C94.8002 15.2998 105.4 27.7998 108.2 31.0998C111.5 34.8998 116.1 35.8998 121.7 36.8998C127.3 37.9008 134.4 39.2998 134.4 39.2998V38.6998C134.4 38.6998 126.3 37.1998 121.7 36.2998" fill="#BBBDBF"/>
<path fill-rule="evenodd" clip-rule="evenodd" d="M121.7 39.2002C113.4 37.5992 111.7 36.3002 108.2 32.4002C106 30.0002 94.7002 16.7002 94.2002 16.1002V19.6002C94.2002 19.6002 104.7 30.8002 108.1 34.2002C112.5 38.5992 116.7 38.9002 121.6 39.8002C126.5 40.7002 134.3 42.0992 134.3 42.0992V41.5002C134.4 41.5002 125 39.9002 121.7 39.2002" fill="#BBBDBF"/>
<mask id="mask5_4335_523231" style="mask-type:alpha" maskUnits="userSpaceOnUse" x="0" y="0" width="277" height="67">
<path fill-rule="evenodd" clip-rule="evenodd" d="M0 66.7H276.7V0H0V66.7Z" fill="white"/>
</mask>
<g mask="url(#mask5_4335_523231)">
<path fill-rule="evenodd" clip-rule="evenodd" d="M27.5 66.3H85.4V27.6H27.5V66.3Z" fill="#004494"/>
<path fill-rule="evenodd" clip-rule="evenodd" d="M57.1001 33.1001H59.1001L57.5001 34.4001L58.1001 36.4001L56.5001 35.2001L54.9001 36.4001L55.5001 34.4001L53.9001 33.1001H55.9001L56.5001 31.1001L57.1001 33.1001Z" fill="#FFF100"/>
<path fill-rule="evenodd" clip-rule="evenodd" d="M57.1001 58.9004H59.1001L57.5001 60.0994L58.1001 62.0004L56.5001 60.7994L54.9001 62.0004L55.5001 60.0994L53.9001 58.9004H55.9001L56.5001 57.0004L57.1001 58.9004Z" fill="#FFF100"/>
<path fill-rule="evenodd" clip-rule="evenodd" d="M63.5 57.2002H65.5L63.9 58.4002L64.5 60.3002L62.9 59.0992L61.3 60.3002L61.9 58.4002L60.3 57.2002H62.3L62.9 55.3002L63.5 57.2002Z" fill="#FFF100"/>
<path fill-rule="evenodd" clip-rule="evenodd" d="M63.5 34.7998H65.5L63.9 35.9998L64.5 37.9008L62.9 36.6998L61.3 37.9998L62 35.9998L60.4 34.7998H62.4L63 32.8998L63.5 34.7998Z" fill="#FFF100"/>
<path fill-rule="evenodd" clip-rule="evenodd" d="M68.2998 39.5996H70.2998L68.6998 40.7996L69.2998 42.7006L67.6998 41.4996L66.0998 42.7006L66.6998 40.7996L65.0998 39.5996H67.0998L67.6998 37.7006L68.2998 39.5996Z" fill="#FFF100"/>
<path fill-rule="evenodd" clip-rule="evenodd" d="M68.2998 52.5996H70.2998L68.6998 53.7996L69.2998 55.7006L67.6998 54.4996L66.0998 55.7006L66.6998 53.7996L65.0998 52.5996H67.0998L67.6998 50.7006L68.2998 52.5996Z" fill="#FFF100"/>
<path fill-rule="evenodd" clip-rule="evenodd" d="M70.1001 46H72.1001L70.5001 47.2L71.1001 49.1L69.5001 47.9L67.9001 49.1L68.5001 47.2L66.8001 46H68.8001L69.4001 44.1L70.1001 46Z" fill="#FFF100"/>
<path fill-rule="evenodd" clip-rule="evenodd" d="M50.5 34.7998H52.5L50.9 35.9998L51.5 37.9008L50 36.7998L48.3 37.9998L48.9 36.0998L47.3 34.8998H49.3L50 32.9998L50.5 34.7998Z" fill="#FFF100"/>
<path fill-rule="evenodd" clip-rule="evenodd" d="M45.8999 39.5996H47.8999L46.2999 40.7996L46.8999 42.7006L45.2999 41.4996L43.6999 42.7006L44.2999 40.7996L42.6999 39.5996H44.6999L45.2999 37.7006L45.8999 39.5996Z" fill="#FFF100"/>
<path fill-rule="evenodd" clip-rule="evenodd" d="M44.2002 46H46.2002L44.6002 47.2L45.2002 49.1L43.6002 47.9L42.0002 49.1L42.6002 47.2L41.0002 46H43.0002L43.6002 44.1L44.2002 46Z" fill="#FFF100"/>
<path fill-rule="evenodd" clip-rule="evenodd" d="M45.8999 52.5996H47.8999L46.2999 53.7996L46.8999 55.7006L45.2999 54.4996L43.6999 55.7006L44.2999 53.7996L42.6999 52.5996H44.6999L45.2999 50.7006L45.8999 52.5996Z" fill="#FFF100"/>
<path fill-rule="evenodd" clip-rule="evenodd" d="M50.6001 57.2998H52.6001L51.0001 58.4998L51.6001 60.4008L50.0001 59.1998L48.4001 60.4008L49.0001 58.4998L47.4001 57.2998H49.4001L50.0001 55.4008L50.6001 57.2998Z" fill="#FFF100"/>
</g>
<path d="M143.2 39.28C143.2 38.44 143.267 37.62 143.4 36.82C143.547 36.0067 143.82 35.2867 144.22 34.66C144.62 34.0333 145.167 33.5333 145.86 33.16C146.567 32.7733 147.48 32.58 148.6 32.58C148.84 32.58 149.12 32.5933 149.44 32.62C149.773 32.6333 150.107 32.6667 150.44 32.72C150.773 32.76 151.1 32.82 151.42 32.9C151.753 32.9667 152.04 33.0533 152.28 33.16C152.44 33.2267 152.547 33.3067 152.6 33.4C152.653 33.4933 152.66 33.6267 152.62 33.8L152.46 34.58C152.42 34.8467 152.247 34.9533 151.94 34.9C151.46 34.8333 150.927 34.7733 150.34 34.72C149.767 34.6667 149.213 34.64 148.68 34.64C148.12 34.64 147.653 34.7333 147.28 34.92C146.92 35.1067 146.627 35.3667 146.4 35.7C146.173 36.02 146 36.4 145.88 36.84C145.773 37.2667 145.7 37.7267 145.66 38.22H150.36C150.613 38.22 150.74 38.34 150.74 38.58V39.76C150.74 40 150.613 40.12 150.36 40.12H145.64C145.667 40.6933 145.727 41.2267 145.82 41.72C145.913 42.2 146.073 42.62 146.3 42.98C146.527 43.34 146.833 43.62 147.22 43.82C147.607 44.02 148.107 44.12 148.72 44.12C149.293 44.12 149.847 44.0933 150.38 44.04C150.913 43.9867 151.44 43.9267 151.96 43.86C152.12 43.8333 152.233 43.8467 152.3 43.9C152.38 43.9533 152.44 44.04 152.48 44.16L152.64 44.94C152.707 45.2333 152.587 45.4533 152.28 45.6C152.013 45.7067 151.72 45.8 151.4 45.88C151.08 45.9467 150.753 46 150.42 46.04C150.087 46.0933 149.76 46.1267 149.44 46.14C149.12 46.1667 148.84 46.18 148.6 46.18C147.453 46.18 146.527 45.9867 145.82 45.6C145.127 45.2 144.58 44.6733 144.18 44.02C143.793 43.3667 143.533 42.6333 143.4 41.82C143.267 40.9933 143.2 40.1467 143.2 39.28Z" fill="#626366"/>
<path d="M154.594 46C154.394 46 154.261 45.9667 154.194 45.9C154.128 45.82 154.094 45.7133 154.094 45.58V36.58C154.094 36.4333 154.121 36.3333 154.174 36.28C154.241 36.2267 154.361 36.2 154.534 36.2H158.794C159.954 36.2 160.801 36.44 161.334 36.92C161.868 37.4 162.134 38.0467 162.134 38.86C162.134 39.1267 162.061 39.4533 161.914 39.84C161.768 40.2267 161.454 40.5533 160.974 40.82C161.268 40.94 161.508 41.1 161.694 41.3C161.881 41.4867 162.028 41.6867 162.134 41.9C162.241 42.1 162.314 42.3067 162.354 42.52C162.394 42.7333 162.414 42.9267 162.414 43.1C162.414 43.54 162.321 43.94 162.134 44.3C161.961 44.66 161.721 44.9667 161.414 45.22C161.108 45.4733 160.748 45.6667 160.334 45.8C159.921 45.9333 159.488 46 159.034 46H154.594ZM160.194 42.98C160.194 42.6467 160.088 42.3533 159.874 42.1C159.674 41.8333 159.321 41.7 158.814 41.7H156.254V44.2H158.594C158.914 44.2 159.174 44.16 159.374 44.08C159.588 44 159.754 43.9 159.874 43.78C159.994 43.66 160.074 43.5267 160.114 43.38C160.168 43.2333 160.194 43.1 160.194 42.98ZM159.914 39.02C159.914 38.8867 159.888 38.76 159.834 38.64C159.794 38.52 159.721 38.4133 159.614 38.32C159.508 38.2133 159.361 38.1333 159.174 38.08C159.001 38.0133 158.781 37.98 158.514 37.98H156.254V40.14H158.654C159.041 40.14 159.348 40.0333 159.574 39.82C159.801 39.5933 159.914 39.3267 159.914 39.02Z" fill="#626366"/>
<path d="M172.931 41.04C172.931 41.8533 172.871 42.58 172.751 43.22C172.631 43.86 172.418 44.4 172.111 44.84C171.818 45.28 171.411 45.6133 170.891 45.84C170.384 46.0667 169.738 46.18 168.951 46.18C168.618 46.18 168.231 46.1467 167.791 46.08C167.364 46.0133 166.918 45.9 166.451 45.74L166.431 45.76V49.28C166.431 49.3867 166.404 49.48 166.351 49.56C166.311 49.64 166.211 49.68 166.051 49.68H164.631C164.471 49.68 164.364 49.6467 164.311 49.58C164.271 49.5133 164.251 49.4133 164.251 49.28V36.6C164.251 36.3333 164.378 36.2 164.631 36.2H166.051C166.198 36.2 166.291 36.24 166.331 36.32C166.384 36.3867 166.411 36.48 166.411 36.6V37.2L166.471 37.24C166.644 37.12 166.851 36.9933 167.091 36.86C167.344 36.7133 167.611 36.58 167.891 36.46C168.171 36.34 168.458 36.24 168.751 36.16C169.044 36.08 169.338 36.04 169.631 36.04C170.284 36.04 170.824 36.16 171.251 36.4C171.678 36.64 172.011 36.98 172.251 37.42C172.504 37.8467 172.678 38.3667 172.771 38.98C172.878 39.5933 172.931 40.28 172.931 41.04ZM170.671 41.02C170.671 40.38 170.638 39.8667 170.571 39.48C170.518 39.0933 170.424 38.7933 170.291 38.58C170.158 38.3667 169.991 38.2267 169.791 38.16C169.604 38.08 169.378 38.04 169.111 38.04C168.911 38.04 168.684 38.0733 168.431 38.14C168.178 38.2067 167.924 38.2867 167.671 38.38C167.431 38.46 167.198 38.5533 166.971 38.66C166.758 38.7667 166.578 38.86 166.431 38.94V43.94C166.884 44.0733 167.291 44.1667 167.651 44.22C168.024 44.26 168.384 44.28 168.731 44.28C169.091 44.28 169.391 44.2333 169.631 44.14C169.884 44.0333 170.084 43.8533 170.231 43.6C170.391 43.3467 170.504 43.0133 170.571 42.6C170.638 42.1733 170.671 41.6467 170.671 41.02Z" fill="#626366"/>
<path d="M183.221 40.94C183.221 41.5133 183.181 42.1067 183.101 42.72C183.034 43.3333 182.854 43.9 182.561 44.42C182.267 44.9267 181.827 45.3467 181.241 45.68C180.654 46 179.841 46.16 178.801 46.16C177.801 46.16 177.014 46 176.441 45.68C175.867 45.3467 175.434 44.9267 175.141 44.42C174.861 43.9 174.687 43.3333 174.621 42.72C174.554 42.1067 174.521 41.5133 174.521 40.94C174.521 40.4733 174.561 39.9533 174.641 39.38C174.734 38.8067 174.927 38.2733 175.221 37.78C175.514 37.2733 175.941 36.8533 176.501 36.52C177.074 36.1733 177.841 36 178.801 36C179.774 36 180.547 36.1467 181.121 36.44C181.707 36.7333 182.154 37.12 182.461 37.6C182.767 38.0667 182.967 38.5933 183.061 39.18C183.167 39.7667 183.221 40.3533 183.221 40.94ZM180.981 41.08C180.981 40.5467 180.954 40.0867 180.901 39.7C180.847 39.3 180.741 38.9733 180.581 38.72C180.421 38.4533 180.201 38.2533 179.921 38.12C179.641 37.9867 179.274 37.92 178.821 37.92C178.394 37.92 178.047 37.9867 177.781 38.12C177.514 38.2533 177.301 38.4533 177.141 38.72C176.994 38.9867 176.887 39.32 176.821 39.72C176.767 40.1067 176.741 40.56 176.741 41.08C176.741 41.6133 176.767 42.08 176.821 42.48C176.887 42.8667 176.994 43.1933 177.141 43.46C177.287 43.7133 177.494 43.9067 177.761 44.04C178.027 44.1733 178.374 44.24 178.801 44.24C179.254 44.24 179.621 44.18 179.901 44.06C180.194 43.9267 180.421 43.7333 180.581 43.48C180.741 43.2133 180.847 42.88 180.901 42.48C180.954 42.08 180.981 41.6133 180.981 41.08Z" fill="#626366"/>
<path d="M193.709 45.62C193.709 45.8733 193.576 46 193.309 46H191.889C191.636 46 191.509 45.8733 191.509 45.62L191.529 38.04H187.329V45.62C187.329 45.7267 187.303 45.82 187.249 45.9C187.196 45.9667 187.096 46 186.949 46H185.529C185.276 46 185.149 45.8733 185.149 45.62V36.58C185.149 36.3267 185.276 36.2 185.529 36.2H193.329C193.476 36.2 193.576 36.2267 193.629 36.28C193.683 36.3333 193.709 36.4333 193.709 36.58V45.62Z" fill="#626366"/>
<path d="M197.894 41.7C197.907 42.2067 197.961 42.6267 198.054 42.96C198.161 43.2933 198.314 43.56 198.514 43.76C198.714 43.9467 198.961 44.08 199.254 44.16C199.547 44.24 199.901 44.28 200.314 44.28C200.674 44.28 201.101 44.2533 201.594 44.2C202.087 44.1467 202.527 44.1 202.914 44.06C203.101 44.0333 203.227 44.04 203.294 44.08C203.374 44.1067 203.427 44.2133 203.454 44.4L203.574 45.06C203.601 45.2067 203.594 45.3267 203.554 45.42C203.527 45.5133 203.421 45.6 203.234 45.68C203.034 45.76 202.801 45.8333 202.534 45.9C202.267 45.9533 201.987 46 201.694 46.04C201.401 46.08 201.107 46.1133 200.814 46.14C200.521 46.1667 200.254 46.18 200.014 46.18C199.054 46.18 198.287 46.04 197.714 45.76C197.141 45.48 196.701 45.1067 196.394 44.64C196.087 44.1733 195.881 43.64 195.774 43.04C195.681 42.4267 195.634 41.7933 195.634 41.14C195.634 40.66 195.674 40.12 195.754 39.52C195.834 38.92 196.014 38.36 196.294 37.84C196.587 37.32 197.014 36.8867 197.574 36.54C198.147 36.18 198.921 36 199.894 36C200.787 36 201.507 36.1333 202.054 36.4C202.614 36.6667 203.047 37.0133 203.354 37.44C203.661 37.8533 203.867 38.3333 203.974 38.88C204.094 39.4133 204.161 39.9467 204.174 40.48C204.187 40.84 204.127 41.1333 203.994 41.36C203.861 41.5867 203.594 41.7 203.194 41.7H197.894ZM199.894 37.8C199.521 37.8 199.214 37.8533 198.974 37.96C198.734 38.0667 198.534 38.2267 198.374 38.44C198.227 38.64 198.121 38.8933 198.054 39.2C197.987 39.4933 197.941 39.8267 197.914 40.2H201.874C201.874 39.8933 201.847 39.6 201.794 39.32C201.741 39.0267 201.641 38.7667 201.494 38.54C201.361 38.3133 201.161 38.1333 200.894 38C200.641 37.8667 200.307 37.8 199.894 37.8Z" fill="#626366"/>
<path d="M205.95 36.64C205.95 36.4933 205.977 36.3867 206.03 36.32C206.097 36.24 206.21 36.2 206.37 36.2H207.67C207.857 36.2 207.977 36.24 208.03 36.32C208.083 36.4 208.11 36.5067 208.11 36.64V42.48H208.15L210.77 38.92L212.55 36.56C212.63 36.4533 212.71 36.3667 212.79 36.3C212.883 36.2333 213.03 36.2 213.23 36.2H214.27C214.43 36.2 214.543 36.2467 214.61 36.34C214.677 36.42 214.71 36.5133 214.71 36.62V45.58C214.71 45.86 214.557 46 214.25 46H212.99C212.683 46 212.53 45.86 212.53 45.58V39.46H212.51C212.043 40.1 211.577 40.7333 211.11 41.36C210.643 41.9867 210.177 42.62 209.71 43.26C209.417 43.66 209.123 44.06 208.83 44.46C208.537 44.8467 208.237 45.24 207.93 45.64C207.85 45.7467 207.757 45.8333 207.65 45.9C207.557 45.9667 207.417 46 207.23 46H206.37C206.21 46 206.097 45.9667 206.03 45.9C205.977 45.8333 205.95 45.7267 205.95 45.58V36.64ZM210.35 35.28C209.697 35.28 209.057 35.1133 208.43 34.78C207.817 34.4333 207.35 33.9067 207.03 33.2C206.977 33.0933 206.93 32.98 206.89 32.86C206.85 32.74 206.883 32.6333 206.99 32.54L207.53 32.1C207.65 32.02 207.743 32 207.81 32.04C207.877 32.0667 207.957 32.1267 208.05 32.22C208.45 32.7 208.81 33.0533 209.13 33.28C209.463 33.5067 209.877 33.62 210.37 33.62C210.597 33.62 210.797 33.5933 210.97 33.54C211.157 33.4867 211.33 33.4 211.49 33.28C211.663 33.16 211.837 33.0133 212.01 32.84C212.183 32.6667 212.377 32.46 212.59 32.22C212.75 32.0333 212.917 32 213.09 32.12L213.63 32.46C213.763 32.54 213.803 32.6467 213.75 32.78C213.71 32.9133 213.663 33.04 213.61 33.16C213.25 33.8667 212.783 34.4 212.21 34.76C211.637 35.1067 211.017 35.28 210.35 35.28Z" fill="#626366"/>
<path d="M224.27 45.08C224.31 45.2267 224.31 45.3467 224.27 45.44C224.23 45.5333 224.117 45.62 223.93 45.7C223.543 45.86 223.063 45.9733 222.49 46.04C221.917 46.12 221.383 46.16 220.89 46.16C219.957 46.16 219.203 46.02 218.63 45.74C218.07 45.46 217.637 45.0867 217.33 44.62C217.037 44.1533 216.843 43.6133 216.75 43C216.657 42.3733 216.61 41.72 216.61 41.04C216.61 40.4267 216.657 39.82 216.75 39.22C216.857 38.6067 217.057 38.0667 217.35 37.6C217.657 37.12 218.09 36.7333 218.65 36.44C219.223 36.1467 219.97 36 220.89 36C221.117 36 221.363 36.0067 221.63 36.02C221.91 36.0333 222.183 36.06 222.45 36.1C222.73 36.14 222.997 36.1933 223.25 36.26C223.517 36.3133 223.757 36.3867 223.97 36.48C224.21 36.5867 224.31 36.7733 224.27 37.04L224.13 37.84C224.09 37.9867 224.023 38.0733 223.93 38.1C223.837 38.1267 223.697 38.1333 223.51 38.12C223.097 38.08 222.67 38.04 222.23 38C221.803 37.96 221.417 37.94 221.07 37.94C220.257 37.94 219.69 38.1733 219.37 38.64C219.05 39.1067 218.89 39.8933 218.89 41C218.89 41.6267 218.923 42.1467 218.99 42.56C219.07 42.9733 219.197 43.3067 219.37 43.56C219.543 43.8133 219.763 43.9933 220.03 44.1C220.31 44.1933 220.65 44.24 221.05 44.24C221.357 44.24 221.757 44.2267 222.25 44.2C222.757 44.16 223.217 44.1133 223.63 44.06C223.79 44.0333 223.91 44.0333 223.99 44.06C224.07 44.0867 224.123 44.1867 224.15 44.36L224.27 45.08Z" fill="#626366"/>
<path d="M226.155 46C225.968 46 225.855 45.9667 225.815 45.9C225.775 45.8333 225.755 45.7267 225.755 45.58V36.56C225.755 36.4133 225.788 36.32 225.855 36.28C225.935 36.2267 226.062 36.2 226.235 36.2H227.515C227.675 36.2 227.782 36.2267 227.835 36.28C227.902 36.3333 227.935 36.4267 227.935 36.56V39.82H230.355C231.048 39.82 231.622 39.9133 232.075 40.1C232.542 40.2867 232.902 40.5267 233.155 40.82C233.422 41.1133 233.608 41.4467 233.715 41.82C233.822 42.1933 233.875 42.5667 233.875 42.94C233.875 43.4467 233.775 43.8933 233.575 44.28C233.388 44.6533 233.128 44.9733 232.795 45.24C232.475 45.4933 232.088 45.6867 231.635 45.82C231.195 45.94 230.715 46 230.195 46H226.155ZM231.775 42.88C231.775 42.4933 231.662 42.1867 231.435 41.96C231.208 41.72 230.808 41.6 230.235 41.6H227.935V44.16H230.135C230.628 44.16 231.022 44.0533 231.315 43.84C231.622 43.6267 231.775 43.3067 231.775 42.88Z" fill="#626366"/>
<path d="M237.661 45.66C237.661 45.7667 237.641 45.8533 237.601 45.92C237.561 45.9733 237.468 46 237.321 46H235.821C235.595 46 235.481 45.8867 235.481 45.66V36.56C235.481 36.32 235.595 36.2 235.821 36.2H237.321C237.468 36.2 237.561 36.2333 237.601 36.3C237.641 36.3667 237.661 36.4533 237.661 36.56V40.08H238.681C238.868 40.08 239.041 40.0667 239.201 40.04C239.375 40.0133 239.528 39.9533 239.661 39.86C239.808 39.7533 239.941 39.6067 240.061 39.42C240.195 39.2333 240.321 38.9867 240.441 38.68L241.241 36.52C241.295 36.4 241.361 36.32 241.441 36.28C241.521 36.24 241.641 36.22 241.801 36.22H243.021C243.208 36.22 243.315 36.26 243.341 36.34C243.381 36.42 243.381 36.5267 243.341 36.66L242.641 38.74C242.428 39.3667 242.201 39.86 241.961 40.22C241.721 40.58 241.421 40.8133 241.061 40.92V40.94C241.528 41.1 241.875 41.3333 242.101 41.64C242.328 41.9333 242.535 42.3467 242.721 42.88L243.601 45.56C243.641 45.68 243.648 45.7867 243.621 45.88C243.595 45.96 243.481 46 243.281 46H241.941C241.795 46 241.675 45.98 241.581 45.94C241.501 45.9 241.441 45.82 241.401 45.7L240.621 43.4C240.408 42.7867 240.128 42.3867 239.781 42.2C239.435 42.0133 239.075 41.92 238.701 41.92H237.661V45.66Z" fill="#626366"/>
<path d="M251.308 41.54H248.868C248.361 41.54 247.961 41.66 247.668 41.9C247.375 42.1267 247.228 42.5667 247.228 43.22C247.228 43.66 247.315 43.9667 247.488 44.14C247.675 44.3 248.001 44.38 248.468 44.38C248.681 44.38 248.915 44.3533 249.168 44.3C249.421 44.2467 249.675 44.1733 249.928 44.08C250.181 43.9867 250.428 43.8867 250.668 43.78C250.908 43.66 251.121 43.5467 251.308 43.44V41.54ZM251.428 44.86C250.921 45.2467 250.348 45.56 249.708 45.8C249.081 46.04 248.428 46.16 247.748 46.16C247.215 46.16 246.768 46.0933 246.408 45.96C246.061 45.8133 245.781 45.62 245.568 45.38C245.368 45.1267 245.221 44.8267 245.128 44.48C245.048 44.1333 245.008 43.7467 245.008 43.32C244.995 42.1467 245.301 41.3 245.928 40.78C246.555 40.2467 247.501 39.98 248.768 39.98H251.328V39.46C251.328 39.1667 251.295 38.92 251.228 38.72C251.175 38.5067 251.068 38.3333 250.908 38.2C250.748 38.0667 250.535 37.9733 250.268 37.92C250.001 37.8667 249.661 37.84 249.248 37.84C249.088 37.84 248.888 37.8467 248.648 37.86C248.421 37.8733 248.181 37.8867 247.928 37.9C247.688 37.9133 247.441 37.9333 247.188 37.96C246.948 37.9867 246.728 38.0067 246.528 38.02C246.328 38.0467 246.188 38.0533 246.108 38.04C246.041 38.0133 245.995 37.9267 245.968 37.78L245.788 37.04C245.761 36.9067 245.775 36.8 245.828 36.72C245.881 36.6267 246.021 36.5333 246.248 36.44C246.461 36.36 246.715 36.2933 247.008 36.24C247.301 36.1867 247.601 36.1467 247.908 36.12C248.215 36.08 248.515 36.0533 248.808 36.04C249.115 36.0133 249.388 36 249.628 36C250.495 36 251.181 36.0867 251.688 36.26C252.208 36.4333 252.601 36.68 252.868 37C253.135 37.3067 253.308 37.6867 253.388 38.14C253.468 38.5933 253.508 39.1 253.508 39.66V43.52C253.508 43.72 253.515 43.88 253.528 44C253.555 44.1067 253.588 44.1933 253.628 44.26C253.681 44.3133 253.755 44.3533 253.848 44.38C253.941 44.4067 254.068 44.4267 254.228 44.44C254.375 44.4533 254.475 44.48 254.528 44.52C254.581 44.56 254.608 44.6333 254.608 44.74V45.58C254.608 45.8067 254.448 45.9467 254.128 46C253.968 46.0267 253.808 46.0467 253.648 46.06C253.488 46.0867 253.335 46.1 253.188 46.1C252.721 46.1 252.341 46.0133 252.048 45.84C251.768 45.6667 251.575 45.3467 251.468 44.88L251.428 44.86Z" fill="#626366"/>
<path d="M145.22 65.66C145.22 65.7667 145.2 65.8533 145.16 65.92C145.12 65.9733 145.027 66 144.88 66H143.38C143.153 66 143.04 65.8867 143.04 65.66V56.56C143.04 56.32 143.153 56.2 143.38 56.2H144.88C145.027 56.2 145.12 56.2333 145.16 56.3C145.2 56.3667 145.22 56.4533 145.22 56.56V60.08H146.24C146.427 60.08 146.6 60.0667 146.76 60.04C146.933 60.0133 147.087 59.9533 147.22 59.86C147.367 59.7533 147.5 59.6067 147.62 59.42C147.753 59.2333 147.88 58.9867 148 58.68L148.8 56.52C148.853 56.4 148.92 56.32 149 56.28C149.08 56.24 149.2 56.22 149.36 56.22H150.58C150.767 56.22 150.873 56.26 150.9 56.34C150.94 56.42 150.94 56.5267 150.9 56.66L150.2 58.74C149.987 59.3667 149.76 59.86 149.52 60.22C149.28 60.58 148.98 60.8133 148.62 60.92V60.94C149.087 61.1 149.433 61.3333 149.66 61.64C149.887 61.9333 150.093 62.3467 150.28 62.88L151.16 65.56C151.2 65.68 151.207 65.7867 151.18 65.88C151.153 65.96 151.04 66 150.84 66H149.5C149.353 66 149.233 65.98 149.14 65.94C149.06 65.9 149 65.82 148.96 65.7L148.18 63.4C147.967 62.7867 147.687 62.3867 147.34 62.2C146.993 62.0133 146.633 61.92 146.26 61.92H145.22V65.66Z" fill="#626366"/>
<path d="M161.307 60.94C161.307 61.5133 161.267 62.1067 161.187 62.72C161.12 63.3333 160.94 63.9 160.647 64.42C160.353 64.9267 159.913 65.3467 159.327 65.68C158.74 66 157.927 66.16 156.887 66.16C155.887 66.16 155.1 66 154.527 65.68C153.953 65.3467 153.52 64.9267 153.227 64.42C152.947 63.9 152.773 63.3333 152.707 62.72C152.64 62.1067 152.607 61.5133 152.607 60.94C152.607 60.4733 152.647 59.9533 152.727 59.38C152.82 58.8067 153.013 58.2733 153.307 57.78C153.6 57.2733 154.027 56.8533 154.587 56.52C155.16 56.1733 155.927 56 156.887 56C157.86 56 158.633 56.1467 159.207 56.44C159.793 56.7333 160.24 57.12 160.547 57.6C160.853 58.0667 161.053 58.5933 161.147 59.18C161.253 59.7667 161.307 60.3533 161.307 60.94ZM159.067 61.08C159.067 60.5467 159.04 60.0867 158.987 59.7C158.933 59.3 158.827 58.9733 158.667 58.72C158.507 58.4533 158.287 58.2533 158.007 58.12C157.727 57.9867 157.36 57.92 156.907 57.92C156.48 57.92 156.133 57.9867 155.867 58.12C155.6 58.2533 155.387 58.4533 155.227 58.72C155.08 58.9867 154.973 59.32 154.907 59.72C154.853 60.1067 154.827 60.56 154.827 61.08C154.827 61.6133 154.853 62.08 154.907 62.48C154.973 62.8667 155.08 63.1933 155.227 63.46C155.373 63.7133 155.58 63.9067 155.847 64.04C156.113 64.1733 156.46 64.24 156.887 64.24C157.34 64.24 157.707 64.18 157.987 64.06C158.28 63.9267 158.507 63.7333 158.667 63.48C158.827 63.2133 158.933 62.88 158.987 62.48C159.04 62.08 159.067 61.6133 159.067 61.08Z" fill="#626366"/>
<path d="M171.355 60.36L170.475 62.04C170.289 62.4 170.109 62.7533 169.935 63.1C169.762 63.4333 169.562 63.8 169.335 64.2C169.215 64.4267 169.022 64.54 168.755 64.54H168.075C167.889 64.54 167.755 64.5133 167.675 64.46C167.595 64.4067 167.529 64.3267 167.475 64.22C167.289 63.8733 167.109 63.5533 166.935 63.26C166.762 62.9667 166.595 62.66 166.435 62.34C166.262 62.0333 166.089 61.7 165.915 61.34C165.742 60.98 165.569 60.6467 165.395 60.34H165.355V65.6C165.355 65.8667 165.202 66 164.895 66H163.655C163.375 66 163.235 65.8667 163.235 65.6V56.62C163.235 56.3533 163.369 56.22 163.635 56.22H164.795C164.995 56.22 165.135 56.2467 165.215 56.3C165.309 56.3533 165.389 56.44 165.455 56.56C165.669 56.9467 165.875 57.3333 166.075 57.72C166.289 58.1067 166.495 58.4933 166.695 58.88C167.002 59.44 167.289 59.9933 167.555 60.54C167.835 61.0733 168.129 61.62 168.435 62.18L169.995 59.22L171.415 56.58C171.482 56.46 171.562 56.3733 171.655 56.32C171.762 56.2533 171.909 56.22 172.095 56.22H173.135C173.402 56.22 173.535 56.3467 173.535 56.6V65.6C173.535 65.8667 173.395 66 173.115 66H171.855C171.562 66 171.415 65.8667 171.415 65.6V60.36H171.355Z" fill="#626366"/>
<path d="M178.258 53.6C178.258 53.76 178.244 53.9133 178.218 54.06C178.191 54.1933 178.131 54.3133 178.038 54.42C177.958 54.5267 177.838 54.6133 177.678 54.68C177.531 54.7333 177.331 54.76 177.078 54.76C176.811 54.76 176.598 54.7267 176.438 54.66C176.291 54.5933 176.178 54.5067 176.098 54.4C176.018 54.2933 175.964 54.1733 175.938 54.04C175.911 53.8933 175.898 53.7467 175.898 53.6C175.898 53.28 175.971 53.0133 176.118 52.8C176.278 52.5733 176.598 52.46 177.078 52.46C177.571 52.46 177.891 52.5667 178.038 52.78C178.184 52.98 178.258 53.2533 178.258 53.6ZM178.138 65.62C178.138 65.7267 178.111 65.82 178.058 65.9C178.018 65.9667 177.924 66 177.778 66H176.358C176.091 66 175.958 65.8733 175.958 65.62V56.58C175.958 56.3267 176.091 56.2 176.358 56.2H177.778C177.924 56.2 178.018 56.24 178.058 56.32C178.111 56.3867 178.138 56.4733 178.138 56.58V65.62Z" fill="#626366"/>
<path d="M188.059 65.08C188.099 65.2267 188.099 65.3467 188.059 65.44C188.019 65.5333 187.906 65.62 187.719 65.7C187.332 65.86 186.852 65.9733 186.279 66.04C185.706 66.12 185.172 66.16 184.679 66.16C183.746 66.16 182.992 66.02 182.419 65.74C181.859 65.46 181.426 65.0867 181.119 64.62C180.826 64.1533 180.632 63.6133 180.539 63C180.446 62.3733 180.399 61.72 180.399 61.04C180.399 60.4267 180.446 59.82 180.539 59.22C180.646 58.6067 180.846 58.0667 181.139 57.6C181.446 57.12 181.879 56.7333 182.439 56.44C183.012 56.1467 183.759 56 184.679 56C184.906 56 185.152 56.0067 185.419 56.02C185.699 56.0333 185.972 56.06 186.239 56.1C186.519 56.14 186.786 56.1933 187.039 56.26C187.306 56.3133 187.546 56.3867 187.759 56.48C187.999 56.5867 188.099 56.7733 188.059 57.04L187.919 57.84C187.879 57.9867 187.812 58.0733 187.719 58.1C187.626 58.1267 187.486 58.1333 187.299 58.12C186.886 58.08 186.459 58.04 186.019 58C185.592 57.96 185.206 57.94 184.859 57.94C184.046 57.94 183.479 58.1733 183.159 58.64C182.839 59.1067 182.679 59.8933 182.679 61C182.679 61.6267 182.712 62.1467 182.779 62.56C182.859 62.9733 182.986 63.3067 183.159 63.56C183.332 63.8133 183.552 63.9933 183.819 64.1C184.099 64.1933 184.439 64.24 184.839 64.24C185.146 64.24 185.546 64.2267 186.039 64.2C186.546 64.16 187.006 64.1133 187.419 64.06C187.579 64.0333 187.699 64.0333 187.779 64.06C187.859 64.0867 187.912 64.1867 187.939 64.36L188.059 65.08Z" fill="#626366"/>
<path d="M192.164 53.6C192.164 53.76 192.151 53.9133 192.124 54.06C192.097 54.1933 192.037 54.3133 191.944 54.42C191.864 54.5267 191.744 54.6133 191.584 54.68C191.437 54.7333 191.237 54.76 190.984 54.76C190.717 54.76 190.504 54.7267 190.344 54.66C190.197 54.5933 190.084 54.5067 190.004 54.4C189.924 54.2933 189.871 54.1733 189.844 54.04C189.817 53.8933 189.804 53.7467 189.804 53.6C189.804 53.28 189.877 53.0133 190.024 52.8C190.184 52.5733 190.504 52.46 190.984 52.46C191.477 52.46 191.797 52.5667 191.944 52.78C192.091 52.98 192.164 53.2533 192.164 53.6ZM192.044 65.62C192.044 65.7267 192.017 65.82 191.964 65.9C191.924 65.9667 191.831 66 191.684 66H190.264C189.997 66 189.864 65.8733 189.864 65.62V56.58C189.864 56.3267 189.997 56.2 190.264 56.2H191.684C191.831 56.2 191.924 56.24 191.964 56.32C192.017 56.3867 192.044 56.4733 192.044 56.58V65.62Z" fill="#626366"/>
<path d="M202.165 56.18C202.352 56.18 202.479 56.2133 202.545 56.28C202.612 56.3333 202.645 56.4333 202.645 56.58V65.58C202.645 65.8467 202.485 65.98 202.165 65.98H200.905C200.732 65.98 200.612 65.9467 200.545 65.88C200.492 65.8133 200.465 65.7133 200.465 65.58V62.18H198.445C198.099 62.2067 197.805 62.32 197.565 62.52C197.339 62.7067 197.132 63.08 196.945 63.64L196.305 65.58C196.252 65.74 196.185 65.8533 196.105 65.92C196.025 65.9733 195.892 66 195.705 66H194.385C194.199 66 194.085 65.9667 194.045 65.9C194.019 65.82 194.025 65.7067 194.065 65.56L194.765 63.42C194.912 63.02 195.065 62.6733 195.225 62.38C195.385 62.0733 195.612 61.84 195.905 61.68C195.612 61.5733 195.372 61.4333 195.185 61.26C194.999 61.0733 194.852 60.8733 194.745 60.66C194.639 60.4333 194.565 60.2 194.525 59.96C194.485 59.72 194.465 59.4867 194.465 59.26C194.465 58.7533 194.559 58.3133 194.745 57.94C194.932 57.5533 195.185 57.2333 195.505 56.98C195.825 56.7133 196.199 56.5133 196.625 56.38C197.065 56.2467 197.525 56.18 198.005 56.18H202.165ZM196.625 59.26C196.625 59.6467 196.739 59.9467 196.965 60.16C197.205 60.3733 197.605 60.48 198.165 60.48H200.465V57.98H198.265C197.785 57.98 197.392 58.0867 197.085 58.3C196.779 58.5133 196.625 58.8333 196.625 59.26Z" fill="#626366"/>
<path fill-rule="evenodd" clip-rule="evenodd" d="M263 66.6996H266.3V27.9996H263V66.6996Z" fill="#004494"/>
</svg>
