<svg
  width="291"
  height="72"
  viewBox="0 0 291 72"
  fill="none"
  xmlns="http://www.w3.org/2000/svg"
>
<path
    d="M145.394 39.4643C145.394 38.6243 145.461 37.8043 145.594 37.0043C145.741 36.191 146.014 35.471 146.414 34.8443C146.814 34.2177 147.361 33.7177 148.054 33.3443C148.761 32.9577 149.674 32.7643 150.794 32.7643C151.034 32.7643 151.314 32.7777 151.634 32.8043C151.968 32.8177 152.301 32.851 152.634 32.9043C152.968 32.9443 153.294 33.0043 153.614 33.0843C153.948 33.151 154.234 33.2377 154.474 33.3443C154.634 33.411 154.741 33.491 154.794 33.5843C154.848 33.6777 154.854 33.811 154.814 33.9843L154.654 34.7643C154.614 35.031 154.441 35.1377 154.134 35.0843C153.654 35.0177 153.121 34.9577 152.534 34.9043C151.961 34.851 151.408 34.8243 150.874 34.8243C150.314 34.8243 149.848 34.9177 149.474 35.1043C149.114 35.291 148.821 35.551 148.594 35.8843C148.368 36.2043 148.194 36.5843 148.074 37.0243C147.968 37.451 147.894 37.911 147.854 38.4043H152.554C152.808 38.4043 152.934 38.5243 152.934 38.7643V39.9443C152.934 40.1843 152.808 40.3043 152.554 40.3043H147.834C147.861 40.8777 147.921 41.411 148.014 41.9043C148.108 42.3843 148.268 42.8043 148.494 43.1643C148.721 43.5243 149.028 43.8043 149.414 44.0043C149.801 44.2043 150.301 44.3043 150.914 44.3043C151.488 44.3043 152.041 44.2777 152.574 44.2243C153.108 44.171 153.634 44.111 154.154 44.0443C154.314 44.0177 154.428 44.031 154.494 44.0843C154.574 44.1377 154.634 44.2243 154.674 44.3443L154.834 45.1243C154.901 45.4177 154.781 45.6377 154.474 45.7843C154.208 45.891 153.914 45.9843 153.594 46.0643C153.274 46.131 152.948 46.1843 152.614 46.2243C152.281 46.2777 151.954 46.311 151.634 46.3243C151.314 46.351 151.034 46.3643 150.794 46.3643C149.648 46.3643 148.721 46.171 148.014 45.7843C147.321 45.3843 146.774 44.8577 146.374 44.2043C145.988 43.551 145.728 42.8177 145.594 42.0043C145.461 41.1777 145.394 40.331 145.394 39.4643Z"
    fill="#626366"
  />
<path
    d="M156.788 46.1843C156.588 46.1843 156.455 46.151 156.388 46.0843C156.322 46.0043 156.288 45.8977 156.288 45.7643V36.7643C156.288 36.6177 156.315 36.5177 156.368 36.4643C156.435 36.411 156.555 36.3843 156.728 36.3843H160.988C162.148 36.3843 162.995 36.6243 163.528 37.1043C164.062 37.5843 164.328 38.231 164.328 39.0443C164.328 39.311 164.255 39.6377 164.108 40.0243C163.962 40.411 163.648 40.7377 163.168 41.0043C163.462 41.1243 163.702 41.2843 163.888 41.4843C164.075 41.671 164.222 41.871 164.328 42.0843C164.435 42.2843 164.508 42.491 164.548 42.7043C164.588 42.9177 164.608 43.111 164.608 43.2843C164.608 43.7243 164.515 44.1243 164.328 44.4843C164.155 44.8443 163.915 45.151 163.608 45.4043C163.302 45.6577 162.942 45.851 162.528 45.9843C162.115 46.1177 161.682 46.1843 161.228 46.1843H156.788ZM162.388 43.1643C162.388 42.831 162.282 42.5377 162.068 42.2843C161.868 42.0177 161.515 41.8843 161.008 41.8843H158.448V44.3843H160.788C161.108 44.3843 161.368 44.3443 161.568 44.2643C161.782 44.1843 161.948 44.0843 162.068 43.9643C162.188 43.8443 162.268 43.711 162.308 43.5643C162.362 43.4177 162.388 43.2843 162.388 43.1643ZM162.108 39.2043C162.108 39.071 162.082 38.9443 162.028 38.8243C161.988 38.7043 161.915 38.5977 161.808 38.5043C161.702 38.3977 161.555 38.3177 161.368 38.2643C161.195 38.1977 160.975 38.1643 160.708 38.1643H158.448V40.3243H160.848C161.235 40.3243 161.542 40.2177 161.768 40.0043C161.995 39.7777 162.108 39.511 162.108 39.2043Z"
    fill="#626366"
  />
<path
    d="M175.125 41.2243C175.125 42.0377 175.065 42.7643 174.945 43.4043C174.825 44.0443 174.612 44.5843 174.305 45.0243C174.012 45.4643 173.605 45.7977 173.085 46.0243C172.578 46.251 171.932 46.3643 171.145 46.3643C170.812 46.3643 170.425 46.331 169.985 46.2643C169.558 46.1977 169.112 46.0843 168.645 45.9243L168.625 45.9443V49.4643C168.625 49.571 168.598 49.6643 168.545 49.7443C168.505 49.8243 168.405 49.8643 168.245 49.8643H166.825C166.665 49.8643 166.558 49.831 166.505 49.7643C166.465 49.6977 166.445 49.5977 166.445 49.4643V36.7843C166.445 36.5177 166.572 36.3843 166.825 36.3843H168.245C168.392 36.3843 168.485 36.4243 168.525 36.5043C168.578 36.571 168.605 36.6643 168.605 36.7843V37.3843L168.665 37.4243C168.838 37.3043 169.045 37.1777 169.285 37.0443C169.538 36.8977 169.805 36.7643 170.085 36.6443C170.365 36.5243 170.652 36.4243 170.945 36.3443C171.238 36.2643 171.532 36.2243 171.825 36.2243C172.478 36.2243 173.018 36.3443 173.445 36.5843C173.872 36.8243 174.205 37.1643 174.445 37.6043C174.698 38.031 174.872 38.551 174.965 39.1643C175.072 39.7777 175.125 40.4643 175.125 41.2243ZM172.865 41.2043C172.865 40.5643 172.832 40.051 172.765 39.6643C172.712 39.2777 172.618 38.9777 172.485 38.7643C172.352 38.551 172.185 38.411 171.985 38.3443C171.798 38.2643 171.572 38.2243 171.305 38.2243C171.105 38.2243 170.878 38.2577 170.625 38.3243C170.372 38.391 170.118 38.471 169.865 38.5643C169.625 38.6443 169.392 38.7377 169.165 38.8443C168.952 38.951 168.772 39.0443 168.625 39.1243V44.1243C169.078 44.2577 169.485 44.351 169.845 44.4043C170.218 44.4443 170.578 44.4643 170.925 44.4643C171.285 44.4643 171.585 44.4177 171.825 44.3243C172.078 44.2177 172.278 44.0377 172.425 43.7843C172.585 43.531 172.698 43.1977 172.765 42.7843C172.832 42.3577 172.865 41.831 172.865 41.2043Z"
    fill="#626366"
  />
<path
    d="M185.415 41.1243C185.415 41.6977 185.375 42.291 185.295 42.9043C185.228 43.5177 185.048 44.0843 184.755 44.6043C184.461 45.111 184.021 45.531 183.435 45.8643C182.848 46.1843 182.035 46.3443 180.995 46.3443C179.995 46.3443 179.208 46.1843 178.635 45.8643C178.061 45.531 177.628 45.111 177.335 44.6043C177.055 44.0843 176.881 43.5177 176.815 42.9043C176.748 42.291 176.715 41.6977 176.715 41.1243C176.715 40.6577 176.755 40.1377 176.835 39.5643C176.928 38.991 177.121 38.4577 177.415 37.9643C177.708 37.4577 178.135 37.0377 178.695 36.7043C179.268 36.3577 180.035 36.1843 180.995 36.1843C181.968 36.1843 182.741 36.331 183.315 36.6243C183.901 36.9177 184.348 37.3043 184.655 37.7843C184.961 38.251 185.161 38.7777 185.255 39.3643C185.361 39.951 185.415 40.5377 185.415 41.1243ZM183.175 41.2643C183.175 40.731 183.148 40.271 183.095 39.8843C183.041 39.4843 182.935 39.1577 182.775 38.9043C182.615 38.6377 182.395 38.4377 182.115 38.3043C181.835 38.171 181.468 38.1043 181.015 38.1043C180.588 38.1043 180.241 38.171 179.975 38.3043C179.708 38.4377 179.495 38.6377 179.335 38.9043C179.188 39.171 179.081 39.5043 179.015 39.9043C178.961 40.291 178.935 40.7443 178.935 41.2643C178.935 41.7977 178.961 42.2643 179.015 42.6643C179.081 43.051 179.188 43.3777 179.335 43.6443C179.481 43.8977 179.688 44.091 179.955 44.2243C180.221 44.3577 180.568 44.4243 180.995 44.4243C181.448 44.4243 181.815 44.3643 182.095 44.2443C182.388 44.111 182.615 43.9177 182.775 43.6643C182.935 43.3977 183.041 43.0643 183.095 42.6643C183.148 42.2643 183.175 41.7977 183.175 41.2643Z"
    fill="#626366"
  />
<path
    d="M195.904 45.8043C195.904 46.0577 195.77 46.1843 195.504 46.1843H194.084C193.83 46.1843 193.704 46.0577 193.704 45.8043L193.724 38.2243H189.524V45.8043C189.524 45.911 189.497 46.0043 189.444 46.0843C189.39 46.151 189.29 46.1843 189.144 46.1843H187.724C187.47 46.1843 187.344 46.0577 187.344 45.8043V36.7643C187.344 36.511 187.47 36.3843 187.724 36.3843H195.524C195.67 36.3843 195.77 36.411 195.824 36.4643C195.877 36.5177 195.904 36.6177 195.904 36.7643V45.8043Z"
    fill="#626366"
  />
<path
    d="M200.088 41.8843C200.101 42.391 200.155 42.811 200.248 43.1443C200.355 43.4777 200.508 43.7443 200.708 43.9443C200.908 44.131 201.155 44.2643 201.448 44.3443C201.741 44.4243 202.095 44.4643 202.508 44.4643C202.868 44.4643 203.295 44.4377 203.788 44.3843C204.281 44.331 204.721 44.2843 205.108 44.2443C205.295 44.2177 205.421 44.2243 205.488 44.2643C205.568 44.291 205.621 44.3977 205.648 44.5843L205.768 45.2443C205.795 45.391 205.788 45.511 205.748 45.6043C205.721 45.6977 205.615 45.7843 205.428 45.8643C205.228 45.9443 204.995 46.0177 204.728 46.0843C204.461 46.1377 204.181 46.1843 203.888 46.2243C203.595 46.2643 203.301 46.2977 203.008 46.3243C202.715 46.351 202.448 46.3643 202.208 46.3643C201.248 46.3643 200.481 46.2243 199.908 45.9443C199.335 45.6643 198.895 45.291 198.588 44.8243C198.281 44.3577 198.075 43.8243 197.968 43.2243C197.875 42.611 197.828 41.9777 197.828 41.3243C197.828 40.8443 197.868 40.3043 197.948 39.7043C198.028 39.1043 198.208 38.5443 198.488 38.0243C198.781 37.5043 199.208 37.071 199.768 36.7243C200.341 36.3643 201.115 36.1843 202.088 36.1843C202.981 36.1843 203.701 36.3177 204.248 36.5843C204.808 36.851 205.241 37.1977 205.548 37.6243C205.855 38.0377 206.061 38.5177 206.168 39.0643C206.288 39.5977 206.355 40.131 206.368 40.6643C206.381 41.0243 206.321 41.3177 206.188 41.5443C206.055 41.771 205.788 41.8843 205.388 41.8843H200.088ZM202.088 37.9843C201.715 37.9843 201.408 38.0377 201.168 38.1443C200.928 38.251 200.728 38.411 200.568 38.6243C200.421 38.8243 200.315 39.0777 200.248 39.3843C200.181 39.6777 200.135 40.011 200.108 40.3843H204.068C204.068 40.0777 204.041 39.7843 203.988 39.5043C203.935 39.211 203.835 38.951 203.688 38.7243C203.555 38.4977 203.355 38.3177 203.088 38.1843C202.835 38.051 202.501 37.9843 202.088 37.9843Z"
    fill="#626366"
  />
<path
    d="M208.144 36.8243C208.144 36.6777 208.171 36.571 208.224 36.5043C208.291 36.4243 208.404 36.3843 208.564 36.3843H209.864C210.051 36.3843 210.171 36.4243 210.224 36.5043C210.278 36.5843 210.304 36.691 210.304 36.8243V42.6643H210.344L212.964 39.1043L214.744 36.7443C214.824 36.6377 214.904 36.551 214.984 36.4843C215.078 36.4177 215.224 36.3843 215.424 36.3843H216.464C216.624 36.3843 216.738 36.431 216.804 36.5243C216.871 36.6043 216.904 36.6977 216.904 36.8043V45.7643C216.904 46.0443 216.751 46.1843 216.444 46.1843H215.184C214.878 46.1843 214.724 46.0443 214.724 45.7643V39.6443H214.704C214.238 40.2843 213.771 40.9177 213.304 41.5443C212.838 42.171 212.371 42.8043 211.904 43.4443C211.611 43.8443 211.318 44.2443 211.024 44.6443C210.731 45.031 210.431 45.4243 210.124 45.8243C210.044 45.931 209.951 46.0177 209.844 46.0843C209.751 46.151 209.611 46.1843 209.424 46.1843H208.564C208.404 46.1843 208.291 46.151 208.224 46.0843C208.171 46.0177 208.144 45.911 208.144 45.7643V36.8243ZM212.544 35.4643C211.891 35.4643 211.251 35.2977 210.624 34.9643C210.011 34.6177 209.544 34.091 209.224 33.3843C209.171 33.2777 209.124 33.1643 209.084 33.0443C209.044 32.9243 209.078 32.8177 209.184 32.7243L209.724 32.2843C209.844 32.2043 209.938 32.1843 210.004 32.2243C210.071 32.251 210.151 32.311 210.244 32.4043C210.644 32.8843 211.004 33.2377 211.324 33.4643C211.658 33.691 212.071 33.8043 212.564 33.8043C212.791 33.8043 212.991 33.7777 213.164 33.7243C213.351 33.671 213.524 33.5843 213.684 33.4643C213.858 33.3443 214.031 33.1977 214.204 33.0243C214.378 32.851 214.571 32.6443 214.784 32.4043C214.944 32.2177 215.111 32.1843 215.284 32.3043L215.824 32.6443C215.958 32.7243 215.998 32.831 215.944 32.9643C215.904 33.0977 215.858 33.2243 215.804 33.3443C215.444 34.051 214.978 34.5843 214.404 34.9443C213.831 35.291 213.211 35.4643 212.544 35.4643Z"
    fill="#626366"
  />
<path
    d="M226.464 45.2643C226.504 45.411 226.504 45.531 226.464 45.6243C226.424 45.7177 226.311 45.8043 226.124 45.8843C225.738 46.0443 225.258 46.1577 224.684 46.2243C224.111 46.3043 223.578 46.3443 223.084 46.3443C222.151 46.3443 221.398 46.2043 220.824 45.9243C220.264 45.6443 219.831 45.271 219.524 44.8043C219.231 44.3377 219.038 43.7977 218.944 43.1843C218.851 42.5577 218.804 41.9043 218.804 41.2243C218.804 40.611 218.851 40.0043 218.944 39.4043C219.051 38.791 219.251 38.251 219.544 37.7843C219.851 37.3043 220.284 36.9177 220.844 36.6243C221.418 36.331 222.164 36.1843 223.084 36.1843C223.311 36.1843 223.558 36.191 223.824 36.2043C224.104 36.2177 224.378 36.2443 224.644 36.2843C224.924 36.3243 225.191 36.3777 225.444 36.4443C225.711 36.4977 225.951 36.571 226.164 36.6643C226.404 36.771 226.504 36.9577 226.464 37.2243L226.324 38.0243C226.284 38.171 226.218 38.2577 226.124 38.2843C226.031 38.311 225.891 38.3177 225.704 38.3043C225.291 38.2643 224.864 38.2243 224.424 38.1843C223.998 38.1443 223.611 38.1243 223.264 38.1243C222.451 38.1243 221.884 38.3577 221.564 38.8243C221.244 39.291 221.084 40.0777 221.084 41.1843C221.084 41.811 221.118 42.331 221.184 42.7443C221.264 43.1577 221.391 43.491 221.564 43.7443C221.738 43.9977 221.958 44.1777 222.224 44.2843C222.504 44.3777 222.844 44.4243 223.244 44.4243C223.551 44.4243 223.951 44.411 224.444 44.3843C224.951 44.3443 225.411 44.2977 225.824 44.2443C225.984 44.2177 226.104 44.2177 226.184 44.2443C226.264 44.271 226.318 44.371 226.344 44.5443L226.464 45.2643Z"
    fill="#626366"
  />
<path
    d="M228.349 46.1843C228.162 46.1843 228.049 46.151 228.009 46.0843C227.969 46.0177 227.949 45.911 227.949 45.7643V36.7443C227.949 36.5977 227.982 36.5043 228.049 36.4643C228.129 36.411 228.256 36.3843 228.429 36.3843H229.709C229.869 36.3843 229.976 36.411 230.029 36.4643C230.096 36.5177 230.129 36.611 230.129 36.7443V40.0043H232.549C233.242 40.0043 233.816 40.0977 234.269 40.2843C234.736 40.471 235.096 40.711 235.349 41.0043C235.616 41.2977 235.802 41.631 235.909 42.0043C236.016 42.3777 236.069 42.751 236.069 43.1243C236.069 43.631 235.969 44.0777 235.769 44.4643C235.582 44.8377 235.322 45.1577 234.989 45.4243C234.669 45.6777 234.282 45.871 233.829 46.0043C233.389 46.1243 232.909 46.1843 232.389 46.1843H228.349ZM233.969 43.0643C233.969 42.6777 233.856 42.371 233.629 42.1443C233.402 41.9043 233.002 41.7843 232.429 41.7843H230.129V44.3443H232.329C232.822 44.3443 233.216 44.2377 233.509 44.0243C233.816 43.811 233.969 43.491 233.969 43.0643Z"
    fill="#626366"
  />
<path
    d="M239.856 45.8443C239.856 45.951 239.836 46.0377 239.796 46.1043C239.756 46.1577 239.662 46.1843 239.516 46.1843H238.016C237.789 46.1843 237.676 46.071 237.676 45.8443V36.7443C237.676 36.5043 237.789 36.3843 238.016 36.3843H239.516C239.662 36.3843 239.756 36.4177 239.796 36.4843C239.836 36.551 239.856 36.6377 239.856 36.7443V40.2643H240.876C241.062 40.2643 241.236 40.251 241.396 40.2243C241.569 40.1977 241.722 40.1377 241.856 40.0443C242.002 39.9377 242.136 39.791 242.256 39.6043C242.389 39.4177 242.516 39.171 242.636 38.8643L243.436 36.7043C243.489 36.5843 243.556 36.5043 243.636 36.4643C243.716 36.4243 243.836 36.4043 243.996 36.4043H245.216C245.402 36.4043 245.509 36.4443 245.536 36.5243C245.576 36.6043 245.576 36.711 245.536 36.8443L244.836 38.9243C244.622 39.551 244.396 40.0443 244.156 40.4043C243.916 40.7643 243.616 40.9977 243.256 41.1043V41.1243C243.722 41.2843 244.069 41.5177 244.296 41.8243C244.522 42.1177 244.729 42.531 244.916 43.0643L245.796 45.7443C245.836 45.8643 245.842 45.971 245.816 46.0643C245.789 46.1443 245.676 46.1843 245.476 46.1843H244.136C243.989 46.1843 243.869 46.1643 243.776 46.1243C243.696 46.0843 243.636 46.0043 243.596 45.8843L242.816 43.5843C242.602 42.971 242.322 42.571 241.976 42.3843C241.629 42.1977 241.269 42.1043 240.896 42.1043H239.856V45.8443Z"
    fill="#626366"
  />
<path
    d="M253.502 41.7243H251.062C250.555 41.7243 250.156 41.8443 249.862 42.0843C249.569 42.311 249.422 42.751 249.422 43.4043C249.422 43.8443 249.509 44.151 249.682 44.3243C249.869 44.4843 250.196 44.5643 250.662 44.5643C250.876 44.5643 251.109 44.5377 251.362 44.4843C251.616 44.431 251.869 44.3577 252.122 44.2643C252.376 44.171 252.622 44.071 252.862 43.9643C253.102 43.8443 253.315 43.731 253.502 43.6243V41.7243ZM253.622 45.0443C253.116 45.431 252.542 45.7443 251.902 45.9843C251.276 46.2243 250.622 46.3443 249.942 46.3443C249.409 46.3443 248.962 46.2777 248.602 46.1443C248.256 45.9977 247.976 45.8043 247.762 45.5643C247.562 45.311 247.415 45.011 247.322 44.6643C247.242 44.3177 247.202 43.931 247.202 43.5043C247.189 42.331 247.496 41.4843 248.122 40.9643C248.749 40.431 249.695 40.1643 250.962 40.1643H253.522V39.6443C253.522 39.351 253.489 39.1043 253.422 38.9043C253.369 38.691 253.262 38.5177 253.102 38.3843C252.942 38.251 252.729 38.1577 252.462 38.1043C252.195 38.051 251.855 38.0243 251.442 38.0243C251.282 38.0243 251.082 38.031 250.842 38.0443C250.616 38.0577 250.376 38.071 250.122 38.0843C249.882 38.0977 249.635 38.1177 249.382 38.1443C249.142 38.171 248.922 38.191 248.722 38.2043C248.522 38.231 248.382 38.2377 248.302 38.2243C248.236 38.1977 248.189 38.111 248.162 37.9643L247.982 37.2243C247.956 37.091 247.969 36.9843 248.022 36.9043C248.076 36.811 248.215 36.7177 248.442 36.6243C248.656 36.5443 248.909 36.4777 249.202 36.4243C249.495 36.371 249.796 36.331 250.102 36.3043C250.409 36.2643 250.709 36.2377 251.002 36.2243C251.309 36.1977 251.582 36.1843 251.822 36.1843C252.689 36.1843 253.375 36.271 253.882 36.4443C254.402 36.6177 254.795 36.8643 255.062 37.1843C255.329 37.491 255.502 37.871 255.582 38.3243C255.662 38.7777 255.702 39.2843 255.702 39.8443V43.7043C255.702 43.9043 255.709 44.0643 255.722 44.1843C255.749 44.291 255.782 44.3777 255.822 44.4443C255.876 44.4977 255.949 44.5377 256.042 44.5643C256.135 44.591 256.262 44.611 256.422 44.6243C256.569 44.6377 256.669 44.6643 256.722 44.7043C256.776 44.7443 256.802 44.8177 256.802 44.9243V45.7643C256.802 45.991 256.642 46.131 256.322 46.1843C256.162 46.211 256.002 46.231 255.842 46.2443C255.682 46.271 255.529 46.2843 255.382 46.2843C254.916 46.2843 254.535 46.1977 254.242 46.0243C253.962 45.851 253.769 45.531 253.662 45.0643L253.622 45.0443Z"
    fill="#626366"
  />
<path
    d="M147.574 65.8443C147.574 65.951 147.554 66.0376 147.514 66.1043C147.474 66.1576 147.381 66.1843 147.234 66.1843H145.734C145.508 66.1843 145.394 66.071 145.394 65.8443V56.7443C145.394 56.5043 145.508 56.3843 145.734 56.3843H147.234C147.381 56.3843 147.474 56.4176 147.514 56.4843C147.554 56.551 147.574 56.6376 147.574 56.7443V60.2643H148.594C148.781 60.2643 148.954 60.251 149.114 60.2243C149.288 60.1976 149.441 60.1376 149.574 60.0443C149.721 59.9376 149.854 59.791 149.974 59.6043C150.108 59.4176 150.234 59.171 150.354 58.8643L151.154 56.7043C151.208 56.5843 151.274 56.5043 151.354 56.4643C151.434 56.4243 151.554 56.4043 151.714 56.4043H152.934C153.121 56.4043 153.228 56.4443 153.254 56.5243C153.294 56.6043 153.294 56.711 153.254 56.8443L152.554 58.9243C152.341 59.551 152.114 60.0443 151.874 60.4043C151.634 60.7643 151.334 60.9976 150.974 61.1043V61.1243C151.441 61.2843 151.788 61.5176 152.014 61.8243C152.241 62.1176 152.448 62.531 152.634 63.0643L153.514 65.7443C153.554 65.8643 153.561 65.971 153.534 66.0643C153.508 66.1443 153.394 66.1843 153.194 66.1843H151.854C151.708 66.1843 151.588 66.1643 151.494 66.1243C151.414 66.0843 151.354 66.0043 151.314 65.8843L150.534 63.5843C150.321 62.971 150.041 62.571 149.694 62.3843C149.348 62.1976 148.988 62.1043 148.614 62.1043H147.574V65.8443Z"
    fill="#626366"
  />
<path
    d="M163.661 61.1243C163.661 61.6976 163.621 62.291 163.541 62.9043C163.474 63.5176 163.294 64.0843 163.001 64.6043C162.707 65.111 162.267 65.531 161.681 65.8643C161.094 66.1843 160.281 66.3443 159.241 66.3443C158.241 66.3443 157.454 66.1843 156.881 65.8643C156.307 65.531 155.874 65.111 155.581 64.6043C155.301 64.0843 155.127 63.5176 155.061 62.9043C154.994 62.291 154.961 61.6976 154.961 61.1243C154.961 60.6576 155.001 60.1376 155.081 59.5643C155.174 58.991 155.367 58.4576 155.661 57.9643C155.954 57.4576 156.381 57.0376 156.941 56.7043C157.514 56.3576 158.281 56.1843 159.241 56.1843C160.214 56.1843 160.987 56.331 161.561 56.6243C162.147 56.9176 162.594 57.3043 162.901 57.7843C163.207 58.251 163.407 58.7776 163.501 59.3643C163.607 59.951 163.661 60.5376 163.661 61.1243ZM161.421 61.2643C161.421 60.731 161.394 60.271 161.341 59.8843C161.287 59.4843 161.181 59.1576 161.021 58.9043C160.861 58.6376 160.641 58.4376 160.361 58.3043C160.081 58.171 159.714 58.1043 159.261 58.1043C158.834 58.1043 158.487 58.171 158.221 58.3043C157.954 58.4376 157.741 58.6376 157.581 58.9043C157.434 59.171 157.327 59.5043 157.261 59.9043C157.207 60.291 157.181 60.7443 157.181 61.2643C157.181 61.7976 157.207 62.2643 157.261 62.6643C157.327 63.051 157.434 63.3776 157.581 63.6443C157.727 63.8976 157.934 64.091 158.201 64.2243C158.467 64.3576 158.814 64.4243 159.241 64.4243C159.694 64.4243 160.061 64.3643 160.341 64.2443C160.634 64.111 160.861 63.9176 161.021 63.6643C161.181 63.3976 161.287 63.0643 161.341 62.6643C161.394 62.2643 161.421 61.7976 161.421 61.2643Z"
    fill="#626366"
  />
<path
    d="M173.71 60.5443L172.83 62.2243C172.643 62.5843 172.463 62.9376 172.29 63.2843C172.116 63.6176 171.916 63.9843 171.69 64.3843C171.57 64.611 171.376 64.7243 171.11 64.7243H170.43C170.243 64.7243 170.11 64.6976 170.03 64.6443C169.95 64.591 169.883 64.511 169.83 64.4043C169.643 64.0576 169.463 63.7376 169.29 63.4443C169.116 63.151 168.95 62.8443 168.79 62.5243C168.616 62.2176 168.443 61.8843 168.27 61.5243C168.096 61.1643 167.923 60.831 167.75 60.5243H167.71V65.7843C167.71 66.051 167.556 66.1843 167.25 66.1843H166.01C165.73 66.1843 165.59 66.051 165.59 65.7843V56.8043C165.59 56.5376 165.723 56.4043 165.99 56.4043H167.15C167.35 56.4043 167.49 56.431 167.57 56.4843C167.663 56.5376 167.743 56.6243 167.81 56.7443C168.023 57.131 168.23 57.5176 168.43 57.9043C168.643 58.291 168.85 58.6776 169.05 59.0643C169.356 59.6243 169.643 60.1776 169.91 60.7243C170.19 61.2576 170.483 61.8043 170.79 62.3643L172.35 59.4043L173.77 56.7643C173.836 56.6443 173.916 56.5576 174.01 56.5043C174.116 56.4376 174.263 56.4043 174.45 56.4043H175.49C175.756 56.4043 175.89 56.531 175.89 56.7843V65.7843C175.89 66.051 175.75 66.1843 175.47 66.1843H174.21C173.916 66.1843 173.77 66.051 173.77 65.7843V60.5443H173.71Z"
    fill="#626366"
  />
<path
    d="M180.612 53.7843C180.612 53.9443 180.599 54.0976 180.572 54.2443C180.545 54.3776 180.485 54.4976 180.392 54.6043C180.312 54.711 180.192 54.7976 180.032 54.8643C179.885 54.9176 179.685 54.9443 179.432 54.9443C179.165 54.9443 178.952 54.911 178.792 54.8443C178.645 54.7776 178.532 54.691 178.452 54.5843C178.372 54.4776 178.319 54.3576 178.292 54.2243C178.265 54.0776 178.252 53.931 178.252 53.7843C178.252 53.4643 178.325 53.1976 178.472 52.9843C178.632 52.7576 178.952 52.6443 179.432 52.6443C179.925 52.6443 180.245 52.751 180.392 52.9643C180.539 53.1643 180.612 53.4376 180.612 53.7843ZM180.492 65.8043C180.492 65.911 180.465 66.0043 180.412 66.0843C180.372 66.151 180.279 66.1843 180.132 66.1843H178.712C178.445 66.1843 178.312 66.0576 178.312 65.8043V56.7643C178.312 56.511 178.445 56.3843 178.712 56.3843H180.132C180.279 56.3843 180.372 56.4243 180.412 56.5043C180.465 56.571 180.492 56.6576 180.492 56.7643V65.8043Z"
    fill="#626366"
  />
<path
    d="M190.413 65.2643C190.453 65.411 190.453 65.531 190.413 65.6243C190.373 65.7176 190.26 65.8043 190.073 65.8843C189.687 66.0443 189.207 66.1576 188.633 66.2243C188.06 66.3043 187.527 66.3443 187.033 66.3443C186.1 66.3443 185.347 66.2043 184.773 65.9243C184.213 65.6443 183.78 65.271 183.473 64.8043C183.18 64.3376 182.987 63.7976 182.893 63.1843C182.8 62.5576 182.753 61.9043 182.753 61.2243C182.753 60.611 182.8 60.0043 182.893 59.4043C183 58.791 183.2 58.251 183.493 57.7843C183.8 57.3043 184.233 56.9176 184.793 56.6243C185.367 56.331 186.113 56.1843 187.033 56.1843C187.26 56.1843 187.507 56.191 187.773 56.2043C188.053 56.2176 188.327 56.2443 188.593 56.2843C188.873 56.3243 189.14 56.3776 189.393 56.4443C189.66 56.4976 189.9 56.571 190.113 56.6643C190.353 56.771 190.453 56.9576 190.413 57.2243L190.273 58.0243C190.233 58.171 190.167 58.2576 190.073 58.2843C189.98 58.311 189.84 58.3176 189.653 58.3043C189.24 58.2643 188.813 58.2243 188.373 58.1843C187.947 58.1443 187.56 58.1243 187.213 58.1243C186.4 58.1243 185.833 58.3576 185.513 58.8243C185.193 59.291 185.033 60.0776 185.033 61.1843C185.033 61.811 185.067 62.331 185.133 62.7443C185.213 63.1576 185.34 63.491 185.513 63.7443C185.687 63.9976 185.907 64.1776 186.173 64.2843C186.453 64.3776 186.793 64.4243 187.193 64.4243C187.5 64.4243 187.9 64.411 188.393 64.3843C188.9 64.3443 189.36 64.2976 189.773 64.2443C189.933 64.2176 190.053 64.2176 190.133 64.2443C190.213 64.271 190.267 64.371 190.293 64.5443L190.413 65.2643Z"
    fill="#626366"
  />
<path
    d="M194.518 53.7843C194.518 53.9443 194.505 54.0976 194.478 54.2443C194.451 54.3776 194.391 54.4976 194.298 54.6043C194.218 54.711 194.098 54.7976 193.938 54.8643C193.791 54.9176 193.591 54.9443 193.338 54.9443C193.071 54.9443 192.858 54.911 192.698 54.8443C192.551 54.7776 192.438 54.691 192.358 54.5843C192.278 54.4776 192.225 54.3576 192.198 54.2243C192.171 54.0776 192.158 53.931 192.158 53.7843C192.158 53.4643 192.231 53.1976 192.378 52.9843C192.538 52.7576 192.858 52.6443 193.338 52.6443C193.831 52.6443 194.151 52.751 194.298 52.9643C194.445 53.1643 194.518 53.4376 194.518 53.7843ZM194.398 65.8043C194.398 65.911 194.371 66.0043 194.318 66.0843C194.278 66.151 194.185 66.1843 194.038 66.1843H192.618C192.351 66.1843 192.218 66.0576 192.218 65.8043V56.7643C192.218 56.511 192.351 56.3843 192.618 56.3843H194.038C194.185 56.3843 194.278 56.4243 194.318 56.5043C194.371 56.571 194.398 56.6576 194.398 56.7643V65.8043Z"
    fill="#626366"
  />
<path
    d="M204.52 56.3643C204.706 56.3643 204.833 56.3976 204.9 56.4643C204.966 56.5176 205 56.6176 205 56.7643V65.7643C205 66.031 204.84 66.1643 204.52 66.1643H203.26C203.086 66.1643 202.966 66.131 202.9 66.0643C202.846 65.9976 202.82 65.8976 202.82 65.7643V62.3643H200.8C200.453 62.391 200.16 62.5043 199.92 62.7043C199.693 62.891 199.486 63.2643 199.3 63.8243L198.66 65.7643C198.606 65.9243 198.54 66.0376 198.46 66.1043C198.38 66.1576 198.246 66.1843 198.06 66.1843H196.74C196.553 66.1843 196.44 66.151 196.4 66.0843C196.373 66.0043 196.38 65.891 196.42 65.7443L197.12 63.6043C197.266 63.2043 197.42 62.8576 197.58 62.5643C197.74 62.2576 197.966 62.0243 198.26 61.8643C197.966 61.7576 197.726 61.6176 197.54 61.4443C197.353 61.2576 197.206 61.0576 197.1 60.8443C196.993 60.6176 196.92 60.3843 196.88 60.1443C196.84 59.9043 196.82 59.671 196.82 59.4443C196.82 58.9376 196.913 58.4976 197.1 58.1243C197.286 57.7376 197.54 57.4176 197.86 57.1643C198.18 56.8976 198.553 56.6976 198.98 56.5643C199.42 56.431 199.88 56.3643 200.36 56.3643H204.52ZM198.98 59.4443C198.98 59.831 199.093 60.131 199.32 60.3443C199.56 60.5576 199.96 60.6643 200.52 60.6643H202.82V58.1643H200.62C200.14 58.1643 199.746 58.271 199.44 58.4843C199.133 58.6976 198.98 59.0176 198.98 59.4443Z"
    fill="#626366"
  />
<path
    fill-rule="evenodd"
    clip-rule="evenodd"
    d="M264 66.6995H267.3V27.9995H264V66.6995Z"
    fill="#004494"
  />
<path
    d="M86.9932 27.541H86.9369H28.567V66.1905H86.9369H86.9932V27.541Z"
    fill="#003399"
  />
<path
    d="M58.3093 33.3809H60.3442L58.703 34.6449L59.3421 36.6472L57.711 35.4135L56.08 36.6472L56.7191 34.6449L55.0676 33.3809H57.0975L57.711 31.4292L58.3093 33.3809Z"
    fill="#FFED00"
  />
<path
    d="M58.3808 59.1573H60.4158L58.7796 60.3759L59.4137 62.3023L57.7826 61.1141L56.1516 62.3023L56.7958 60.3759L55.1392 59.1573H57.1691L57.7826 57.2815L58.3808 59.1573Z"
    fill="#FFED00"
  />
<path
    d="M64.8283 57.4534H66.8684L65.2271 58.6669L65.8663 60.5933L64.2301 59.4051L62.5991 60.5933L63.2433 58.6669L61.5867 57.4534H63.6165L64.2301 55.5725L64.8283 57.4534Z"
    fill="#FFED00"
  />
<path
    d="M64.8283 35.1H66.8684L65.2271 36.3185L65.8663 38.2449L64.2301 37.0567L62.5991 38.2449L63.2433 36.3185L61.5867 35.1H63.6165L64.2301 33.2241L64.8283 35.1Z"
    fill="#FFED00"
  />
<path
    d="M69.6192 39.8377H71.6491L70.0129 41.0512L70.6469 42.9776L69.0159 41.7894L67.3848 42.9776L68.0291 41.0512L66.3724 39.8377H68.4023L69.0159 37.9568L69.6192 39.8377Z"
    fill="#FFED00"
  />
<path
    d="M69.6192 52.7814H71.6491L70.0129 53.9999L70.6469 55.9263L69.0159 54.7381L67.3848 55.9263L68.0291 53.9999L66.3724 52.7814H68.4023L69.0159 50.9055L69.6192 52.7814Z"
    fill="#FFED00"
  />
<path
    d="M71.4087 46.2084H73.4488L71.8076 47.4269L72.4467 49.3533L70.8105 48.1651L69.1795 49.3533L69.8237 47.4269L68.1671 46.2084H70.197L70.8105 44.3325L71.4087 46.2084Z"
    fill="#FFED00"
  />
<path
    d="M51.7391 35.1202H53.7689L52.1328 36.3336L52.7668 38.26L51.1357 37.0718L49.5047 38.26L50.1489 36.3336L48.4974 35.1202H50.5222L51.1357 33.2393L51.7391 35.1202Z"
    fill="#FFED00"
  />
<path
    d="M47.0811 39.8528H49.1212L47.4799 41.0663L48.1139 42.9927L46.4829 41.8045L44.8518 42.9927L45.4961 41.0663L43.8395 39.8528H45.8693L46.4829 37.9719L47.0811 39.8528Z"
    fill="#FFED00"
  />
<path
    d="M45.3529 46.2286H47.3879L45.7517 47.442L46.3857 49.3685L44.7547 48.1853L43.1237 49.3685L43.7679 47.442L42.1164 46.2286H44.1411L44.7547 44.3477L45.3529 46.2286Z"
    fill="#FFED00"
  />
<path
    d="M47.0811 52.7967H49.1212L47.4799 54.0153L48.1139 55.9417L46.4829 54.7535L44.8518 55.9417L45.4961 54.0153L43.8395 52.7967H45.8693L46.4829 50.9209L47.0811 52.7967Z"
    fill="#FFED00"
  />
<path
    d="M51.8055 57.4685H53.8354L52.1992 58.682L52.8332 60.6084L51.2022 59.4202L49.5711 60.6084L50.2154 58.682L48.5639 57.4685H50.5886L51.2022 55.5876L51.8055 57.4685Z"
    fill="#FFED00"
  />
<path
    d="M95.8693 0.00505726C95.8693 0.00505726 107.869 18.9101 110.068 22.3736C112.262 25.8371 114.772 28.5826 123.653 30.4433C132.535 32.304 136.4 33.1837 136.4 33.1837V33.8562C136.4 33.8562 130.755 32.668 123.495 31.0652C116.234 29.4624 113.264 28.9214 109.956 24.3657C107.2 20.5736 95.8693 3.61517 95.8693 3.61517V0V0.00505726Z"
    fill="#6D6E70"
  />
<path
    d="M95.8693 21.5949C95.8693 21.5949 106.796 32.9157 109.956 36.1668C113.31 39.6151 117.6 40.8893 123.551 41.941C129.232 42.9421 136.395 44.1 136.395 44.1V44.7371C136.395 44.7371 129.666 43.6449 123.551 42.6135C117.553 41.5972 113.356 41.0309 109.92 37.9011C106.842 35.1 95.8693 24.9219 95.8693 24.9219V21.5898V21.5949Z"
    fill="#6D6E70"
  />
<path
    d="M95.8693 26.6967C95.8693 26.6967 106.259 36.2377 109.956 39.499C113.356 42.4973 116.112 43.4327 123.587 44.7422C131.062 46.0518 136.395 46.8658 136.395 46.8658V47.5383C136.395 47.5383 129.63 46.4411 123.551 45.4804C117.472 44.5248 113.596 44.1456 109.956 41.2282C105.758 37.8608 95.8693 29.8113 95.8693 29.8113V26.6917V26.6967Z"
    fill="#6D6E70"
  />
<path
    d="M95.8693 32.1321C95.8693 32.1321 107.737 41.4456 109.956 43.0737C112.175 44.7018 115.109 46.6029 123.623 47.8214C132.064 49.0298 136.395 49.6265 136.395 49.6265V50.3343C136.395 50.3343 128.741 49.2371 123.623 48.6001C118.505 47.963 114.583 47.69 109.991 44.6664C105.523 41.7237 95.8693 35.004 95.8693 35.004V32.1321Z"
    fill="#6D6E70"
  />
<path
    d="M95.8693 37.3601C95.8693 37.3601 107.772 45.1972 110.027 46.441C112.282 47.6798 114.931 49.7022 123.623 50.7994C132.315 51.8966 136.395 52.3921 136.395 52.3921V53.0646C136.395 53.0646 129.206 52.286 123.587 51.6843C117.973 51.0826 114.143 50.2685 109.956 47.9983C105.768 45.7331 95.8693 40.0095 95.8693 40.0095V37.3601Z"
    fill="#6D6E70"
  />
<path
    d="M95.8693 42.5883C95.8693 42.5883 106.392 48.2512 109.956 50.0158C113.928 51.9878 117.364 52.9333 123.587 53.6664C129.697 54.3844 136.395 55.0821 136.395 55.0821V55.7192C136.395 55.7192 130.203 55.0619 123.587 54.4451C117.027 53.8282 114.69 53.5451 109.956 51.467C105.722 49.6063 95.8693 45.0658 95.8693 45.0658V42.5833V42.5883Z"
    fill="#6D6E70"
  />
<path
    d="M95.8693 47.8872C95.8693 47.8872 104.183 51.4063 110.027 53.7018C115.774 55.9569 120.166 56.149 123.658 56.5383C125.197 56.7102 136.395 57.8479 136.395 57.8479V58.485C136.395 58.485 129.707 57.9541 123.623 57.4232C117.538 56.8923 114.915 56.6647 109.991 55.0518C105.006 53.4136 95.8693 50.2636 95.8693 50.2636V47.8923V47.8872Z"
    fill="#6D6E70"
  />
<path
    d="M95.8693 53.2922C95.8693 53.2922 104.265 55.8658 109.991 57.3524C115.718 58.8389 120.974 59.4456 123.623 59.6175C126.271 59.7945 136.4 60.6085 136.4 60.6085V61.2102C136.4 61.2102 130.638 60.8209 123.587 60.3254C117.886 59.9259 113.31 59.5012 109.956 58.7681C106.244 57.9591 95.8693 55.522 95.8693 55.522V53.2922Z"
    fill="#6D6E70"
  />
<path
    d="M95.8693 58.6062C95.8693 58.6062 102.736 59.7792 109.991 60.9674C115.432 61.8573 122.799 62.4186 123.587 62.454C124.374 62.4893 136.395 63.3034 136.395 63.3034V63.9405C136.395 63.9405 128.7 63.5461 123.587 63.268C118.259 62.9747 112.962 62.6562 109.956 62.3478C103.217 61.6551 95.8693 60.7349 95.8693 60.7349V58.6062Z"
    fill="#6D6E70"
  />
<path
    d="M95.8693 64.1074C95.8693 64.1074 106.699 64.5119 109.991 64.5827C113.284 64.6535 136.395 65.5737 136.395 65.5737V66.1956H95.8693V64.1074Z"
    fill="#6D6E70"
  />
<path
    d="M123.582 33.3656C113.78 31.2774 111.561 27.733 109.915 25.5386C108.268 23.3392 95.8642 5.41504 95.8642 5.41504V8.71167C96.355 9.34369 106.97 23.8347 109.95 27.6269C113.31 31.8993 118.571 32.8701 123.582 33.9319C128.587 34.9937 136.395 36.4752 136.395 36.4752V35.9089C136.395 35.9089 126.118 33.9016 123.582 33.3656Z"
    fill="#6D6E70"
  />
<path
    d="M123.582 36.2022C115.534 34.6449 112.277 32.127 109.915 29.0831C107.552 26.0343 95.8642 10.446 95.8642 10.446V14.2786C96.355 14.85 107.046 27.7534 109.915 30.9994C113.259 34.7865 117.927 35.7826 123.582 36.809C129.237 37.8354 136.39 39.1803 136.39 39.1803V38.614C136.39 38.614 128.224 37.1022 123.582 36.2073V36.2022Z"
    fill="#6D6E70"
  />
<path
    d="M123.582 39.1399C115.212 37.5321 113.494 36.2124 109.95 32.3748C107.721 29.963 96.3448 16.6804 95.8642 16.1191V19.6585C95.8642 19.6585 106.494 30.8731 109.915 34.1849C114.399 38.5332 118.607 38.8619 123.582 39.7467C128.557 40.6315 136.39 42.0473 136.39 42.0473V41.4456C136.39 41.4456 126.931 39.7871 123.582 39.145V39.1399Z"
    fill="#6D6E70"
  />
<path
    d="M0.782944 27.7788C0.782944 27.7788 28.4954 24.8563 36.2569 23.7793C48.5281 22.0805 58.57 20.2703 67.8603 6.18887C67.8603 6.18887 67.8705 5.38999 67.8603 5.03101C62.1696 13.5911 54.3211 19.431 43.5122 21.1248C32.9539 22.7833 0.777832 25.2052 0.777832 25.2052V27.7788H0.782944Z"
    fill="#6D6E70"
  />
<path
    d="M0.777832 24.2849C0.777832 24.2849 26.4604 21.1046 34.9224 19.9315C48.3082 18.081 57.7212 16.4175 67.8552 1.05681C67.8552 1.05681 67.8603 0.394453 67.8552 0.00512695C61.648 9.3439 53.9836 15.3759 42.1931 17.2265C30.6735 19.0366 0.777832 21.6759 0.777832 21.6759V24.29V24.2849Z"
    fill="#6D6E70"
  />
<path d="M26.9973 64.1326H0.793167V66.1854H26.9973V64.1326Z" fill="#6D6E70" />
<path
    d="M67.8552 22.5708C67.8552 22.5708 67.8705 21.3624 67.8654 21.1045C66.6332 22.9601 65.0124 24.6438 63.141 26.1253H64.9766C66.0094 25.0736 66.9758 23.8955 67.8501 22.5708H67.8552Z"
    fill="#6D6E70"
  />
<path
    d="M67.8552 17.11C67.8552 17.11 67.8654 16.0381 67.8603 15.7449C64.8897 20.2145 60.4669 23.7842 55.3539 26.1505L58.3706 26.1404C61.8577 24.1331 65.0993 21.2814 67.8501 17.11H67.8552Z"
    fill="#6D6E70"
  />
<path
    d="M67.8552 11.6494C67.8552 11.6494 67.8654 10.714 67.8552 10.3904C62.686 18.1718 54.6483 23.496 44.8212 25.0381C42.4948 25.4022 38.706 25.8067 34.3037 26.2162L46.3039 26.1758C54.224 24.4314 61.6378 21.0589 67.845 11.6494H67.8552Z"
    fill="#6D6E70"
  />
<path
    d="M27.0024 60.6743C13.6319 60.7451 0.793167 60.8007 0.793167 60.8007V62.9395C0.793167 62.9395 14.2403 62.8434 27.0024 62.7372V60.6743Z"
    fill="#6D6E70"
  />
<path
    d="M27.0024 57.0034C13.7239 57.15 0.788055 57.2613 0.788055 57.2613V59.4456C0.788055 59.4456 14.3733 59.2686 27.0024 59.0714V57.0034Z"
    fill="#6D6E70"
  />
<path
    d="M26.9973 53.3225C13.816 53.55 0.788055 53.722 0.788055 53.722V55.9517C0.788055 55.9517 14.5164 55.6837 26.9973 55.3905V53.3225Z"
    fill="#6D6E70"
  />
<path
    d="M27.0024 49.6213C13.9182 49.9398 0.788055 50.1774 0.788055 50.1774V52.4477C0.788055 52.4477 14.6749 52.0735 27.0024 51.6842V49.6162V49.6213Z"
    fill="#6D6E70"
  />
<path
    d="M27.0075 45.9102C14.0205 46.3197 0.788055 46.6433 0.788055 46.6433V48.959C0.788055 48.959 14.8437 48.4736 27.0075 47.9781V45.9152V45.9102Z"
    fill="#6D6E70"
  />
<path
    d="M27.0024 42.1838C14.1176 42.6995 0.788055 43.104 0.788055 43.104V45.4602C0.788055 45.4602 15.0175 44.8433 27.0024 44.2315V42.1787V42.1838Z"
    fill="#6D6E70"
  />
<path
    d="M27.0075 38.4321C14.2199 39.0591 0.782944 39.5597 0.782944 39.5597V41.9613C0.782944 41.9613 15.2016 41.1979 27.0075 40.4647V38.4321Z"
    fill="#6D6E70"
  />
<path
    d="M27.0075 34.6602C14.317 35.4085 0.782944 36.0203 0.782944 36.0203V38.4624C0.782944 38.4624 15.3959 37.5321 27.0075 36.6725V34.6602Z"
    fill="#6D6E70"
  />
<path
    d="M27.0075 30.8679C14.404 31.7477 0.782944 32.4859 0.782944 32.4859V34.9735C0.782944 34.9735 15.5902 33.8511 27.0075 32.8601V30.873V30.8679Z"
    fill="#6D6E70"
  />
<path
    d="M27.0075 27.0405C14.4807 28.0669 0.777832 28.9416 0.777832 28.9416V31.4697C0.777832 31.4697 15.7845 30.1248 27.0075 28.9922V27.0405Z"
    fill="#6D6E70"
  />
</svg>
