<svg width="290" height="72" viewBox="0 0 290 72" fill="none" xmlns="http://www.w3.org/2000/svg">
<path fill-rule="evenodd" clip-rule="evenodd" d="M0 24.5C0 24.5 39.8 19.3 41 19.1C42.7 18.8 44.3 18.5 45.7 18.1C48.9 17.2 51.9 15.9 54.5 14.1C57 12.4 59.4 9.9 61.7 7.2C63.2 5.5 64.7 3.2 66.2 1V0C64.5 2.6 62.8 4.8 61.1 6.7C58.8 9.3 56.4 11.4 53.9 13C51.4 14.6 48.5 15.9 45.4 16.7C44 17.1 42.5 17.3 40.8 17.6C39.7 17.8 38.6 17.9 37.5 18C37 18 0 21.9 0 21.9V24.5Z" fill="#BBBDBF"/>
<mask id="mask0_4331_516705" style="mask-type:alpha" maskUnits="userSpaceOnUse" x="0" y="5" width="67" height="23">
<path fill-rule="evenodd" clip-rule="evenodd" d="M0 5.19983H66.0999V27.9998H0V5.19983Z" fill="white"/>
</mask>
<g mask="url(#mask0_4331_516705)">
<path fill-rule="evenodd" clip-rule="evenodd" d="M53.3999 17.7998C50.8999 19.1998 47.9999 20.2998 44.7999 20.8998C43.3999 21.1998 41.9999 21.3998 40.2999 21.5998C39.2999 21.6998 38.2999 21.7998 37.2999 21.8998C36.7999 21.8998 36.1999 21.9998 35.6999 21.9998C23.4999 23.1998 11.3999 24.2998 -0.00012207 25.3998V27.9998C11.3999 26.5998 23.6999 25.0998 35.8999 23.6998C36.3999 23.5998 36.9999 23.5998 37.4999 23.4998C38.4999 23.3998 39.4999 23.2998 40.4999 23.0998C42.1999 22.8998 43.7999 22.5998 45.0999 22.2998C48.3999 21.5998 51.3999 20.3998 53.9999 18.7998C56.5999 17.1998 58.7999 15.0998 61.2999 12.3998C62.7999 10.6998 64.4999 8.39983 66.0999 6.19983V5.19983C64.1999 7.69983 62.4999 9.89983 60.6999 11.6998C58.2999 14.3998 55.8999 16.3998 53.3999 17.7998" fill="#BBBDBF"/>
</g>
<mask id="mask1_4331_516705" style="mask-type:alpha" maskUnits="userSpaceOnUse" x="0" y="10" width="67" height="22">
<path fill-rule="evenodd" clip-rule="evenodd" d="M0 10.9002H66.0999V31.5002H0V10.9002Z" fill="white"/>
</mask>
<g mask="url(#mask1_4331_516705)">
<path fill-rule="evenodd" clip-rule="evenodd" d="M60.3999 17.2002C57.9999 19.4002 55.3999 21.2002 52.8999 22.5002C50.3999 23.7002 47.5999 24.6002 44.2999 25.1002C42.8999 25.3002 41.4999 25.5002 39.7999 25.7002L-0.00012207 28.9002V31.5002L35.2999 27.7002L39.8999 27.2002C41.5999 27.0002 43.0999 26.8002 44.4999 26.5002C47.8999 25.9002 50.7999 24.9002 53.3999 23.6002C56.0999 22.2002 58.6999 20.0002 61.1999 17.6002C62.8999 16.0002 64.3999 13.9002 66.0999 11.8002V10.9002C64.0999 13.4002 62.2999 15.4002 60.3999 17.2002" fill="#BBBDBF"/>
</g>
<mask id="mask2_4331_516705" style="mask-type:alpha" maskUnits="userSpaceOnUse" x="0" y="21" width="67" height="18">
<path fill-rule="evenodd" clip-rule="evenodd" d="M0 21.7H66.1998V38.5H0V21.7Z" fill="white"/>
</mask>
<g mask="url(#mask2_4331_516705)">
<path fill-rule="evenodd" clip-rule="evenodd" d="M50.7998 30.6C48.4998 31.9 46.7998 32.7 43.4998 33C41.4998 33.2 39.4998 33.3 37.4998 33.4C36.4998 33.4 35.5998 33.5 34.5998 33.6C28.5998 33.9 22.6998 34.3 16.6998 34.7L-0.000183105 35.9V38.5L16.7998 36.9C22.1998 36.4 28.4998 35.8 34.6998 35.3L39.1998 35C40.8998 34.9 42.3998 34.7 43.6998 34.5C47.0998 34.1 49.9998 33.4 52.5998 32.4C55.3998 31.4 57.9998 29.7 60.5998 27.8C62.9998 26.1 66.1998 22.7 66.1998 22.6V21.7C64.0998 23.8 62.7998 25 60.4998 26.5C57.5998 28.5 52.8998 29.5 50.7998 30.6" fill="#BBBDBF"/>
</g>
<path fill-rule="evenodd" clip-rule="evenodd" d="M51.6001 35.6001C49.1001 36.3001 46.3001 36.8001 43.0001 37.1001C41.7001 37.2001 40.2001 37.3001 38.6001 37.4001L34.2001 37.6001C23.2001 38.1001 12.2001 38.7001 0.100098 39.3001V41.9001C11.7001 41.0001 23.0001 40.1001 34.4001 39.3001L38.8001 39.0001C40.5001 38.9001 41.9001 38.8001 43.3001 38.6001C46.7001 38.2001 49.6001 37.6001 52.1001 36.8001C54.9001 35.9001 57.7001 34.6001 60.3001 32.9001C62.2001 31.7001 64.2001 30.2001 66.2001 28.4001C64.0001 30.3001 61.9001 30.7001 59.8001 32.0001C57.1001 33.6001 54.4001 34.8001 51.6001 35.6001" fill="#BBBDBF"/>
<path fill-rule="evenodd" clip-rule="evenodd" d="M51.2002 39.9004C48.7002 40.5004 45.9002 40.9004 42.6002 41.0994C41.3002 41.2004 39.9002 41.2994 38.2002 41.2994L33.8002 41.5004C22.7002 41.9004 11.5002 42.4004 0.000183105 42.9004V45.5004C11.4002 44.7004 22.6002 44.0004 33.9002 43.2004L38.3002 42.9004C40.0002 42.7994 41.4002 42.7004 42.7002 42.5994C46.1002 42.2994 48.9002 41.7994 51.5002 41.0994C54.4002 40.2994 57.2002 39.2004 59.9002 37.7994C62.0002 36.7004 64.0002 35.4004 66.1002 33.7994V32.7004C63.8002 34.4004 61.6002 35.7004 59.4002 36.7994C56.8002 38.2004 54.0002 39.2004 51.2002 39.9004" fill="#BBBDBF"/>
<mask id="mask3_4331_516705" style="mask-type:alpha" maskUnits="userSpaceOnUse" x="0" y="38" width="67" height="11">
<path fill-rule="evenodd" clip-rule="evenodd" d="M0 38.2006H66.1998V48.7996H0V38.2006Z" fill="white"/>
</mask>
<g mask="url(#mask3_4331_516705)">
<path fill-rule="evenodd" clip-rule="evenodd" d="M50.7998 44.0996C48.2998 44.5996 45.4998 44.9006 42.1998 44.9996C40.8998 45.0996 39.5998 45.0996 37.8998 45.2006L-0.000183105 46.2006V48.7996L33.5998 46.9996L37.9998 46.7996C39.6998 46.7006 41.0998 46.5996 42.3998 46.4996C45.7998 46.2006 48.4998 45.9006 51.0998 45.2996C53.9998 44.7006 56.8998 43.7996 59.5998 42.5996C61.7998 41.7006 63.8998 40.5996 66.1998 39.2006V38.2006C63.7998 39.5996 61.4998 40.7006 59.1998 41.5996C56.4998 42.7996 53.6998 43.5996 50.7998 44.0996" fill="#BBBDBF"/>
</g>
<path fill-rule="evenodd" clip-rule="evenodd" d="M50.5 48.2998C45.8 48.9008 41.1 48.9998 36.4 49.0998C35.3 49.0998 34.3 49.0998 33.2 49.1998L0 49.7998V52.4008L33.3 50.9998C34.4 50.9998 35.4 50.9008 36.5 50.9008C41.2 50.6998 46 50.4998 50.7 49.7998C53.7 49.2998 56.6 48.5998 59.2 47.6998C61.4 46.9998 63.7 45.9998 66 44.7998V43.7998C63.6 44.9008 61.1 45.9008 58.8 46.5998C56.3 47.2998 53.5 47.9998 50.5 48.2998" fill="#BBBDBF"/>
<mask id="mask4_4331_516705" style="mask-type:alpha" maskUnits="userSpaceOnUse" x="0" y="49" width="67" height="7">
<path fill-rule="evenodd" clip-rule="evenodd" d="M0 49.2006H66.1998V55.7996H0V49.2006Z" fill="white"/>
</mask>
<g mask="url(#mask4_4331_516705)">
<path fill-rule="evenodd" clip-rule="evenodd" d="M50.2998 52.5996C45.8998 52.9996 41.4998 52.9996 37.0998 52.9996H33.0998C22.0998 52.9996 11.0998 53.0996 -0.000183105 53.2006V55.7996C10.5998 55.4006 21.8998 55.0996 33.1998 54.7006C34.4998 54.7006 35.8998 54.5996 37.1998 54.5996C41.4998 54.4996 45.9998 54.4006 50.3998 53.9006C53.4998 53.5996 56.2998 53.0996 58.9998 52.4006C61.2998 51.7996 63.6998 50.9996 66.1998 50.0996V49.2006C63.6998 50.0996 61.1998 50.7996 58.7998 51.4006C56.0998 51.9996 53.2998 52.4006 50.2998 52.5996" fill="#BBBDBF"/>
</g>
<path fill-rule="evenodd" clip-rule="evenodd" d="M50.1001 56.7998C48.3001 56.9008 46.3001 56.9008 44.1001 56.9008H41.6001L33.0001 56.7998C27.1001 56.7998 21.3001 56.6998 15.8001 56.6998L0.00012207 56.7998V59.4008L15.9001 58.9998C21.4001 58.9008 27.2001 58.6998 33.0001 58.5998L41.6001 58.4998C44.0001 58.4998 47.1001 58.4008 50.2001 58.1998C53.3001 57.9998 56.1001 57.6998 58.8001 57.2998C61.2001 56.9008 63.7001 56.4008 66.2001 55.7998V54.9008C63.7001 55.4998 61.1001 55.9998 58.7001 56.2998C55.9001 56.4998 53.2001 56.6998 50.1001 56.7998" fill="#BBBDBF"/>
<path fill-rule="evenodd" clip-rule="evenodd" d="M41.5 60.9004L32.9 60.7994C22 60.5994 11.1 60.4004 0 60.2004V62.7994C10.6 62.7004 21.8 62.5994 32.9 62.5004L41.5 62.4004C44.4 62.4004 47.2 62.2994 50.1 62.2004C56 62.0004 61.2 61.5994 66.2 60.9004V60.0004C61.3 60.5004 56 60.7994 50.1 60.9004H41.5" fill="#BBBDBF"/>
<path fill-rule="evenodd" clip-rule="evenodd" d="M66.1001 65.5L0.00012207 63.8V66.4H66.1001V65.5Z" fill="#BBBDBF"/>
<path fill-rule="evenodd" clip-rule="evenodd" d="M60.2002 22C57.7002 24 55.7002 25.5 52.7002 26.7C50.0002 27.8 47.1002 28.2 43.9002 28.7C41.8002 29 39.6002 29.4 37.5002 29.6C36.6002 29.7 35.8002 29.7 34.9002 29.8L0.000183105 32.3V34.9L34.9002 31.5L39.4002 31.1C41.1002 30.9 42.6002 30.8 44.0002 30.5C47.4002 30 50.3002 29.1 52.9002 27.9C55.6002 26.7 58.4002 24.7 60.9002 22.6C62.6002 21.1 64.3002 19.3 66.1002 17.3V16.4C63.9002 18.6 62.1002 20.5 60.2002 22" fill="#BBBDBF"/>
<path fill-rule="evenodd" clip-rule="evenodd" d="M94.2002 0C94.2002 0 106.1 18.9 108.3 22.4C110.5 25.9 113 28.6 121.8 30.5C130.6 32.4 134.4 33.2 134.4 33.2V33.9C134.4 33.9 128.8 32.7 121.6 31.1C114.4 29.5 111.5 29 108.2 24.4C105.5 20.6 94.2002 4.5 94.2002 4.5V0Z" fill="#BBBDBF"/>
<path fill-rule="evenodd" clip-rule="evenodd" d="M94.2002 21.6001C94.2002 21.6001 105 32.9001 108.2 36.2001C111.5 39.7001 115.8 40.9001 121.7 42.0001C127.3 43.0001 134.4 44.2001 134.4 44.2001V44.8001C134.4 44.8001 127.7 43.7001 121.7 42.7001C115.8 41.7001 111.6 41.1001 108.2 38.0001C105.2 35.2001 94.3002 25.0001 94.3002 25.0001L94.2002 21.6001Z" fill="#BBBDBF"/>
<path fill-rule="evenodd" clip-rule="evenodd" d="M94.2002 26.7998C94.2002 26.7998 104.5 36.3998 108.2 39.5998C111.6 42.5998 114.3 43.4998 121.7 44.9008C129.1 46.1998 134.4 46.9998 134.4 46.9998V47.6998C134.4 47.6998 127.7 46.5998 121.7 45.5998C115.7 44.5998 111.8 44.2998 108.2 41.2998C104 37.9008 94.2002 29.8998 94.2002 29.8998V26.7998Z" fill="#BBBDBF"/>
<path fill-rule="evenodd" clip-rule="evenodd" d="M94.2002 32.2002C94.2002 32.2002 106 41.5002 108.2 43.2002C110.4 44.8002 113.3 46.7002 121.7 48.0002C130.1 49.2002 134.4 49.8002 134.4 49.8002V50.5002C134.4 50.5002 126.8 49.4002 121.7 48.8002C116.6 48.2002 112.7 47.9002 108.2 44.9002C103.8 42.0002 94.2002 35.2002 94.2002 35.2002V32.2002Z" fill="#BBBDBF"/>
<path fill-rule="evenodd" clip-rule="evenodd" d="M94.2002 37.4004C94.2002 37.4004 106 45.2994 108.2 46.5004C110.4 47.7004 113.1 49.7994 121.7 50.9004C130.3 52.0004 134.4 52.5004 134.4 52.5004V53.2004C134.4 53.2004 127.3 52.4004 121.7 51.7994C116.1 51.2004 112.3 50.4004 108.2 48.0994C104.1 45.7994 94.2002 40.0994 94.2002 40.0994V37.4004Z" fill="#BBBDBF"/>
<path fill-rule="evenodd" clip-rule="evenodd" d="M94.2002 42.7002C94.2002 42.7002 104.6 48.4002 108.2 50.0992C112.1 52.0992 115.5 53.0002 121.7 53.8002C127.8 54.5002 134.4 55.2002 134.4 55.2002V55.8002C134.4 55.8002 128.3 55.0992 121.7 54.5002C115.2 53.9002 112.9 53.5992 108.2 51.5002C104 49.5992 94.2002 45.0992 94.2002 45.0992V42.7002Z" fill="#BBBDBF"/>
<path fill-rule="evenodd" clip-rule="evenodd" d="M94.2002 48C94.2002 48 102.4 51.5 108.2 53.8C113.9 56.1 118.2 56.3 121.7 56.6C123.2 56.8 134.3 57.9 134.3 57.9V58.5C134.3 58.5 127.7 58 121.6 57.4C115.6 56.9 113 56.6 108.1 55C103.2 53.4 94.1002 50.2 94.1002 50.2L94.2002 48Z" fill="#BBBDBF"/>
<path fill-rule="evenodd" clip-rule="evenodd" d="M94.2002 53.4004C94.2002 53.4004 102.5 56.0004 108.2 57.5004C113.9 59.0004 119.1 59.5994 121.7 59.7994C124.3 60.0004 134.4 60.7994 134.4 60.7994V61.4004C134.4 61.4004 128.7 61.0004 121.7 60.5004C116 60.0994 111.5 59.7004 108.2 58.9004C104.5 58.0994 94.2002 55.5994 94.2002 55.5994V53.4004Z" fill="#BBBDBF"/>
<path fill-rule="evenodd" clip-rule="evenodd" d="M94.2002 58.7002C94.2002 58.7002 101 59.9002 108.2 61.0992C113.6 62.0002 120.9 62.5992 121.7 62.5992C122.5 62.5992 134.4 63.5002 134.4 63.5002V64.0992C134.4 64.0992 126.8 63.7002 121.7 63.4002C116.4 63.0992 111.2 62.8002 108.2 62.5002C101.5 61.8002 94.2002 60.9002 94.2002 60.9002V58.7002Z" fill="#BBBDBF"/>
<path fill-rule="evenodd" clip-rule="evenodd" d="M94.2002 64.2998C94.2002 64.2998 104.9 64.6998 108.2 64.7998C111.5 64.9008 134.4 65.7998 134.4 65.7998V66.4008H94.2002V64.2998Z" fill="#BBBDBF"/>
<path fill-rule="evenodd" clip-rule="evenodd" d="M121.7 33.3999C112 31.2999 109.8 27.7999 108.2 25.5999C106.6 23.3999 94.3002 5.3999 94.3002 5.3999V9.4999C94.8002 10.0999 105.3 23.8999 108.3 27.6999C111.6 31.9999 116.8 32.9999 121.8 33.9999C126.8 35.0999 134.5 36.5999 134.5 36.5999V35.9999C134.4 35.9999 124.2 33.9999 121.7 33.3999" fill="#BBBDBF"/>
<path fill-rule="evenodd" clip-rule="evenodd" d="M121.7 36.2998C113.7 34.6998 110.5 32.1998 108.2 29.1998C105.9 26.0998 94.3002 10.8998 94.3002 10.8998V14.6998C94.8002 15.2998 105.4 27.7998 108.2 31.0998C111.5 34.8998 116.1 35.8998 121.7 36.8998C127.3 37.9008 134.4 39.2998 134.4 39.2998V38.6998C134.4 38.6998 126.3 37.1998 121.7 36.2998" fill="#BBBDBF"/>
<path fill-rule="evenodd" clip-rule="evenodd" d="M121.7 39.2002C113.4 37.5992 111.7 36.3002 108.2 32.4002C106 30.0002 94.7002 16.7002 94.2002 16.1002V19.6002C94.2002 19.6002 104.7 30.8002 108.1 34.2002C112.5 38.5992 116.7 38.9002 121.6 39.8002C126.5 40.7002 134.3 42.0992 134.3 42.0992V41.5002C134.4 41.5002 125 39.9002 121.7 39.2002" fill="#BBBDBF"/>
<mask id="mask5_4331_516705" style="mask-type:alpha" maskUnits="userSpaceOnUse" x="0" y="0" width="277" height="67">
<path fill-rule="evenodd" clip-rule="evenodd" d="M0 66.7H276.7V0H0V66.7Z" fill="white"/>
</mask>
<g mask="url(#mask5_4331_516705)">
<path fill-rule="evenodd" clip-rule="evenodd" d="M27.5 66.3H85.4V27.6H27.5V66.3Z" fill="#004494"/>
<path fill-rule="evenodd" clip-rule="evenodd" d="M57.1001 33.1001H59.1001L57.5001 34.4001L58.1001 36.4001L56.5001 35.2001L54.9001 36.4001L55.5001 34.4001L53.9001 33.1001H55.9001L56.5001 31.1001L57.1001 33.1001Z" fill="#FFF100"/>
<path fill-rule="evenodd" clip-rule="evenodd" d="M57.1001 58.9004H59.1001L57.5001 60.0994L58.1001 62.0004L56.5001 60.7994L54.9001 62.0004L55.5001 60.0994L53.9001 58.9004H55.9001L56.5001 57.0004L57.1001 58.9004Z" fill="#FFF100"/>
<path fill-rule="evenodd" clip-rule="evenodd" d="M63.5 57.2002H65.5L63.9 58.4002L64.5 60.3002L62.9 59.0992L61.3 60.3002L61.9 58.4002L60.3 57.2002H62.3L62.9 55.3002L63.5 57.2002Z" fill="#FFF100"/>
<path fill-rule="evenodd" clip-rule="evenodd" d="M63.5 34.7998H65.5L63.9 35.9998L64.5 37.9008L62.9 36.6998L61.3 37.9998L62 35.9998L60.4 34.7998H62.4L63 32.8998L63.5 34.7998Z" fill="#FFF100"/>
<path fill-rule="evenodd" clip-rule="evenodd" d="M68.2998 39.5996H70.2998L68.6998 40.7996L69.2998 42.7006L67.6998 41.4996L66.0998 42.7006L66.6998 40.7996L65.0998 39.5996H67.0998L67.6998 37.7006L68.2998 39.5996Z" fill="#FFF100"/>
<path fill-rule="evenodd" clip-rule="evenodd" d="M68.2998 52.5996H70.2998L68.6998 53.7996L69.2998 55.7006L67.6998 54.4996L66.0998 55.7006L66.6998 53.7996L65.0998 52.5996H67.0998L67.6998 50.7006L68.2998 52.5996Z" fill="#FFF100"/>
<path fill-rule="evenodd" clip-rule="evenodd" d="M70.1001 46H72.1001L70.5001 47.2L71.1001 49.1L69.5001 47.9L67.9001 49.1L68.5001 47.2L66.8001 46H68.8001L69.4001 44.1L70.1001 46Z" fill="#FFF100"/>
<path fill-rule="evenodd" clip-rule="evenodd" d="M50.5 34.7998H52.5L50.9 35.9998L51.5 37.9008L50 36.7998L48.3 37.9998L48.9 36.0998L47.3 34.8998H49.3L50 32.9998L50.5 34.7998Z" fill="#FFF100"/>
<path fill-rule="evenodd" clip-rule="evenodd" d="M45.8999 39.5996H47.8999L46.2999 40.7996L46.8999 42.7006L45.2999 41.4996L43.6999 42.7006L44.2999 40.7996L42.6999 39.5996H44.6999L45.2999 37.7006L45.8999 39.5996Z" fill="#FFF100"/>
<path fill-rule="evenodd" clip-rule="evenodd" d="M44.2002 46H46.2002L44.6002 47.2L45.2002 49.1L43.6002 47.9L42.0002 49.1L42.6002 47.2L41.0002 46H43.0002L43.6002 44.1L44.2002 46Z" fill="#FFF100"/>
<path fill-rule="evenodd" clip-rule="evenodd" d="M45.8999 52.5996H47.8999L46.2999 53.7996L46.8999 55.7006L45.2999 54.4996L43.6999 55.7006L44.2999 53.7996L42.6999 52.5996H44.6999L45.2999 50.7006L45.8999 52.5996Z" fill="#FFF100"/>
<path fill-rule="evenodd" clip-rule="evenodd" d="M50.6001 57.2998H52.6001L51.0001 58.4998L51.6001 60.4008L50.0001 59.1998L48.4001 60.4008L49.0001 58.4998L47.4001 57.2998H49.4001L50.0001 55.4008L50.6001 57.2998Z" fill="#FFF100"/>
</g>
<path d="M143.42 33.12C143.42 32.8534 143.553 32.72 143.82 32.72H151.18C151.433 32.72 151.56 32.8467 151.56 33.1V34.34C151.56 34.58 151.427 34.7 151.16 34.7H145.7V38.14H150.54C150.807 38.14 150.94 38.26 150.94 38.5V39.74C150.94 39.98 150.807 40.1 150.54 40.1H145.7V44.04H151.3C151.54 44.04 151.66 44.1667 151.66 44.42V45.64C151.66 45.88 151.533 46 151.28 46H143.82C143.553 46 143.42 45.88 143.42 45.64V33.12Z" fill="#626366"/>
<path d="M162.126 45.62C162.126 45.8734 162 46 161.746 46H160.326C160.18 46 160.08 45.9667 160.026 45.9C159.973 45.8334 159.946 45.74 159.946 45.62V45L159.906 44.98C159.706 45.1134 159.473 45.2534 159.206 45.4C158.953 45.5334 158.68 45.66 158.386 45.78C158.093 45.9 157.786 45.9934 157.466 46.06C157.16 46.14 156.853 46.18 156.546 46.18C155.866 46.18 155.326 46.0867 154.926 45.9C154.54 45.7134 154.246 45.4534 154.046 45.12C153.846 44.7867 153.72 44.3934 153.666 43.94C153.613 43.4867 153.586 43 153.586 42.48V36.6C153.586 36.3334 153.713 36.2 153.966 36.2H155.426C155.666 36.2 155.786 36.3334 155.786 36.6V42.22C155.786 42.5267 155.806 42.8 155.846 43.04C155.886 43.28 155.96 43.4867 156.066 43.66C156.173 43.82 156.32 43.9467 156.506 44.04C156.693 44.1334 156.94 44.18 157.246 44.18C157.46 44.18 157.693 44.1467 157.946 44.08C158.213 44.0134 158.473 43.9334 158.726 43.84C158.98 43.7334 159.213 43.6334 159.426 43.54C159.64 43.4334 159.813 43.3467 159.946 43.28V36.6C159.946 36.48 159.973 36.3867 160.026 36.32C160.08 36.24 160.18 36.2 160.326 36.2H161.746C162 36.2 162.126 36.3334 162.126 36.6V45.62Z" fill="#626366"/>
<path d="M166.831 45.62C166.831 45.8734 166.705 46 166.451 46H165.011C164.758 46 164.631 45.8734 164.631 45.62V36.6C164.631 36.3334 164.758 36.2 165.011 36.2H166.431C166.698 36.2 166.831 36.3334 166.831 36.6V37.48L166.871 37.52C167.018 37.3867 167.211 37.2467 167.451 37.1C167.691 36.94 167.945 36.8 168.211 36.68C168.491 36.5467 168.771 36.4267 169.051 36.32C169.331 36.2134 169.591 36.14 169.831 36.1C169.965 36.0734 170.071 36.08 170.151 36.12C170.231 36.16 170.285 36.2667 170.311 36.44L170.451 37.78C170.465 37.9267 170.458 38.0334 170.431 38.1C170.405 38.1667 170.285 38.22 170.071 38.26C169.791 38.3134 169.498 38.38 169.191 38.46C168.885 38.5267 168.585 38.6067 168.291 38.7C167.998 38.78 167.725 38.86 167.471 38.94C167.218 39.02 167.005 39.1 166.831 39.18V45.62Z" fill="#626366"/>
<path d="M180.057 40.94C180.057 41.5134 180.017 42.1067 179.937 42.72C179.87 43.3334 179.69 43.9 179.397 44.42C179.103 44.9267 178.663 45.3467 178.077 45.68C177.49 46 176.677 46.16 175.637 46.16C174.637 46.16 173.85 46 173.277 45.68C172.703 45.3467 172.27 44.9267 171.977 44.42C171.697 43.9 171.523 43.3334 171.457 42.72C171.39 42.1067 171.357 41.5134 171.357 40.94C171.357 40.4734 171.397 39.9534 171.477 39.38C171.57 38.8067 171.763 38.2734 172.057 37.78C172.35 37.2734 172.777 36.8534 173.337 36.52C173.91 36.1734 174.677 36 175.637 36C176.61 36 177.383 36.1467 177.957 36.44C178.543 36.7334 178.99 37.12 179.297 37.6C179.603 38.0667 179.803 38.5934 179.897 39.18C180.003 39.7667 180.057 40.3534 180.057 40.94ZM177.817 41.08C177.817 40.5467 177.79 40.0867 177.737 39.7C177.683 39.3 177.577 38.9734 177.417 38.72C177.257 38.4534 177.037 38.2534 176.757 38.12C176.477 37.9867 176.11 37.92 175.657 37.92C175.23 37.92 174.883 37.9867 174.617 38.12C174.35 38.2534 174.137 38.4534 173.977 38.72C173.83 38.9867 173.723 39.32 173.657 39.72C173.603 40.1067 173.577 40.56 173.577 41.08C173.577 41.6134 173.603 42.08 173.657 42.48C173.723 42.8667 173.83 43.1934 173.977 43.46C174.123 43.7134 174.33 43.9067 174.597 44.04C174.863 44.1734 175.21 44.24 175.637 44.24C176.09 44.24 176.457 44.18 176.737 44.06C177.03 43.9267 177.257 43.7334 177.417 43.48C177.577 43.2134 177.683 42.88 177.737 42.48C177.79 42.08 177.817 41.6134 177.817 41.08Z" fill="#626366"/>
<path d="M190.665 41.04C190.665 41.8534 190.605 42.58 190.485 43.22C190.365 43.86 190.152 44.4 189.845 44.84C189.552 45.28 189.145 45.6134 188.625 45.84C188.119 46.0667 187.472 46.18 186.685 46.18C186.352 46.18 185.965 46.1467 185.525 46.08C185.099 46.0134 184.652 45.9 184.185 45.74L184.165 45.76V49.28C184.165 49.3867 184.139 49.48 184.085 49.56C184.045 49.64 183.945 49.68 183.785 49.68H182.365C182.205 49.68 182.099 49.6467 182.045 49.58C182.005 49.5134 181.985 49.4134 181.985 49.28V36.6C181.985 36.3334 182.112 36.2 182.365 36.2H183.785C183.932 36.2 184.025 36.24 184.065 36.32C184.119 36.3867 184.145 36.48 184.145 36.6V37.2L184.205 37.24C184.379 37.12 184.585 36.9934 184.825 36.86C185.079 36.7134 185.345 36.58 185.625 36.46C185.905 36.34 186.192 36.24 186.485 36.16C186.779 36.08 187.072 36.04 187.365 36.04C188.019 36.04 188.559 36.16 188.985 36.4C189.412 36.64 189.745 36.98 189.985 37.42C190.239 37.8467 190.412 38.3667 190.505 38.98C190.612 39.5934 190.665 40.28 190.665 41.04ZM188.405 41.02C188.405 40.38 188.372 39.8667 188.305 39.48C188.252 39.0934 188.159 38.7934 188.025 38.58C187.892 38.3667 187.725 38.2267 187.525 38.16C187.339 38.08 187.112 38.04 186.845 38.04C186.645 38.04 186.419 38.0734 186.165 38.14C185.912 38.2067 185.659 38.2867 185.405 38.38C185.165 38.46 184.932 38.5534 184.705 38.66C184.492 38.7667 184.312 38.86 184.165 38.94V43.94C184.619 44.0734 185.025 44.1667 185.385 44.22C185.759 44.26 186.119 44.28 186.465 44.28C186.825 44.28 187.125 44.2334 187.365 44.14C187.619 44.0334 187.819 43.8534 187.965 43.6C188.125 43.3467 188.239 43.0134 188.305 42.6C188.372 42.1734 188.405 41.6467 188.405 41.02Z" fill="#626366"/>
<path d="M198.515 41.54H196.075C195.568 41.54 195.168 41.66 194.875 41.9C194.582 42.1267 194.435 42.5667 194.435 43.22C194.435 43.66 194.522 43.9667 194.695 44.14C194.882 44.3 195.208 44.38 195.675 44.38C195.888 44.38 196.122 44.3534 196.375 44.3C196.628 44.2467 196.882 44.1734 197.135 44.08C197.388 43.9867 197.635 43.8867 197.875 43.78C198.115 43.66 198.328 43.5467 198.515 43.44V41.54ZM198.635 44.86C198.128 45.2467 197.555 45.56 196.915 45.8C196.288 46.04 195.635 46.16 194.955 46.16C194.422 46.16 193.975 46.0934 193.615 45.96C193.268 45.8134 192.988 45.62 192.775 45.38C192.575 45.1267 192.428 44.8267 192.335 44.48C192.255 44.1334 192.215 43.7467 192.215 43.32C192.202 42.1467 192.508 41.3 193.135 40.78C193.762 40.2467 194.708 39.98 195.975 39.98H198.535V39.46C198.535 39.1667 198.502 38.92 198.435 38.72C198.382 38.5067 198.275 38.3334 198.115 38.2C197.955 38.0667 197.742 37.9734 197.475 37.92C197.208 37.8667 196.868 37.84 196.455 37.84C196.295 37.84 196.095 37.8467 195.855 37.86C195.628 37.8734 195.388 37.8867 195.135 37.9C194.895 37.9134 194.648 37.9334 194.395 37.96C194.155 37.9867 193.935 38.0067 193.735 38.02C193.535 38.0467 193.395 38.0534 193.315 38.04C193.248 38.0134 193.202 37.9267 193.175 37.78L192.995 37.04C192.968 36.9067 192.982 36.8 193.035 36.72C193.088 36.6267 193.228 36.5334 193.455 36.44C193.668 36.36 193.922 36.2934 194.215 36.24C194.508 36.1867 194.808 36.1467 195.115 36.12C195.422 36.08 195.722 36.0534 196.015 36.04C196.322 36.0134 196.595 36 196.835 36C197.702 36 198.388 36.0867 198.895 36.26C199.415 36.4334 199.808 36.68 200.075 37C200.342 37.3067 200.515 37.6867 200.595 38.14C200.675 38.5934 200.715 39.1 200.715 39.66V43.52C200.715 43.72 200.722 43.88 200.735 44C200.762 44.1067 200.795 44.1934 200.835 44.26C200.888 44.3134 200.962 44.3534 201.055 44.38C201.148 44.4067 201.275 44.4267 201.435 44.44C201.582 44.4534 201.682 44.48 201.735 44.52C201.788 44.56 201.815 44.6334 201.815 44.74V45.58C201.815 45.8067 201.655 45.9467 201.335 46C201.175 46.0267 201.015 46.0467 200.855 46.06C200.695 46.0867 200.542 46.1 200.395 46.1C199.928 46.1 199.548 46.0134 199.255 45.84C198.975 45.6667 198.782 45.3467 198.675 44.88L198.635 44.86ZM195.015 34.86C194.762 34.86 194.562 34.8334 194.415 34.78C194.268 34.7134 194.155 34.6267 194.075 34.52C193.995 34.4134 193.942 34.2934 193.915 34.16C193.902 34.0267 193.895 33.8867 193.895 33.74C193.895 33.4334 193.962 33.18 194.095 32.98C194.242 32.78 194.548 32.68 195.015 32.68C195.482 32.68 195.782 32.78 195.915 32.98C196.048 33.1667 196.115 33.42 196.115 33.74C196.115 34.0467 196.048 34.3134 195.915 34.54C195.782 34.7534 195.482 34.86 195.015 34.86ZM198.895 34.86C198.415 34.86 198.108 34.7467 197.975 34.52C197.855 34.2934 197.795 34.0334 197.795 33.74C197.795 33.4334 197.868 33.18 198.015 32.98C198.162 32.78 198.455 32.68 198.895 32.68C199.362 32.68 199.662 32.78 199.795 32.98C199.942 33.1667 200.015 33.42 200.015 33.74C200.015 34.0467 199.948 34.3134 199.815 34.54C199.682 34.7534 199.375 34.86 198.895 34.86Z" fill="#626366"/>
<path d="M205.316 41.7C205.329 42.2067 205.382 42.6267 205.476 42.96C205.582 43.2934 205.736 43.56 205.936 43.76C206.136 43.9467 206.382 44.08 206.676 44.16C206.969 44.24 207.322 44.28 207.736 44.28C208.096 44.28 208.522 44.2534 209.016 44.2C209.509 44.1467 209.949 44.1 210.336 44.06C210.522 44.0334 210.649 44.04 210.716 44.08C210.796 44.1067 210.849 44.2134 210.876 44.4L210.996 45.06C211.022 45.2067 211.016 45.3267 210.976 45.42C210.949 45.5134 210.842 45.6 210.656 45.68C210.456 45.76 210.222 45.8334 209.956 45.9C209.689 45.9534 209.409 46 209.116 46.04C208.822 46.08 208.529 46.1134 208.236 46.14C207.942 46.1667 207.676 46.18 207.436 46.18C206.476 46.18 205.709 46.04 205.136 45.76C204.562 45.48 204.122 45.1067 203.816 44.64C203.509 44.1734 203.302 43.64 203.196 43.04C203.102 42.4267 203.056 41.7934 203.056 41.14C203.056 40.66 203.096 40.12 203.176 39.52C203.256 38.92 203.436 38.36 203.716 37.84C204.009 37.32 204.436 36.8867 204.996 36.54C205.569 36.18 206.342 36 207.316 36C208.209 36 208.929 36.1334 209.476 36.4C210.036 36.6667 210.469 37.0134 210.776 37.44C211.082 37.8534 211.289 38.3334 211.396 38.88C211.516 39.4134 211.582 39.9467 211.596 40.48C211.609 40.84 211.549 41.1334 211.416 41.36C211.282 41.5867 211.016 41.7 210.616 41.7H205.316ZM207.316 37.8C206.942 37.8 206.636 37.8534 206.396 37.96C206.156 38.0667 205.956 38.2267 205.796 38.44C205.649 38.64 205.542 38.8934 205.476 39.2C205.409 39.4934 205.362 39.8267 205.336 40.2H209.296C209.296 39.8934 209.269 39.6 209.216 39.32C209.162 39.0267 209.062 38.7667 208.916 38.54C208.782 38.3134 208.582 38.1334 208.316 38C208.062 37.8667 207.729 37.8 207.316 37.8Z" fill="#626366"/>
<path d="M220.732 43.06C220.732 43.6467 220.619 44.14 220.392 44.54C220.165 44.9267 219.859 45.24 219.472 45.48C219.099 45.72 218.672 45.8934 218.192 46C217.712 46.1067 217.212 46.16 216.692 46.16C216.185 46.16 215.639 46.12 215.052 46.04C214.465 45.9734 213.979 45.8667 213.592 45.72C213.392 45.64 213.265 45.5534 213.212 45.46C213.159 45.3534 213.145 45.22 213.172 45.06L213.312 44.4C213.339 44.24 213.392 44.1467 213.472 44.12C213.552 44.08 213.672 44.0734 213.832 44.1C214.045 44.14 214.279 44.1734 214.532 44.2C214.799 44.2267 215.059 44.2534 215.312 44.28C215.579 44.2934 215.825 44.3067 216.052 44.32C216.292 44.3334 216.499 44.34 216.672 44.34C217.312 44.34 217.772 44.2534 218.052 44.08C218.332 43.8934 218.472 43.6 218.472 43.2C218.472 42.9734 218.445 42.7867 218.392 42.64C218.352 42.4934 218.272 42.3734 218.152 42.28C218.032 42.1867 217.865 42.1134 217.652 42.06C217.452 41.9934 217.192 41.94 216.872 41.9C216.379 41.8334 215.912 41.7467 215.472 41.64C215.032 41.5334 214.639 41.38 214.292 41.18C213.959 40.9667 213.692 40.6934 213.492 40.36C213.292 40.0134 213.192 39.5667 213.192 39.02C213.192 38.0334 213.539 37.2867 214.232 36.78C214.925 36.26 215.832 36 216.952 36C217.152 36 217.385 36.0067 217.652 36.02C217.919 36.0334 218.185 36.06 218.452 36.1C218.732 36.14 219.005 36.1867 219.272 36.24C219.539 36.2934 219.779 36.36 219.992 36.44C220.325 36.5734 220.465 36.7734 220.412 37.04L220.252 37.76C220.225 37.9067 220.172 38 220.092 38.04C220.025 38.0667 219.899 38.0667 219.712 38.04C219.285 37.9867 218.819 37.94 218.312 37.9C217.805 37.8467 217.365 37.82 216.992 37.82C216.352 37.82 215.925 37.9134 215.712 38.1C215.512 38.2734 215.412 38.5534 215.412 38.94C215.412 39.3267 215.539 39.58 215.792 39.7C216.059 39.82 216.499 39.9267 217.112 40.02C217.592 40.0867 218.045 40.1734 218.472 40.28C218.912 40.3867 219.299 40.5467 219.632 40.76C219.965 40.9734 220.232 41.26 220.432 41.62C220.632 41.98 220.732 42.46 220.732 43.06Z" fill="#626366"/>
<path d="M230.032 45.08C230.072 45.2267 230.072 45.3467 230.032 45.44C229.992 45.5334 229.878 45.62 229.692 45.7C229.305 45.86 228.825 45.9734 228.252 46.04C227.678 46.12 227.145 46.16 226.652 46.16C225.718 46.16 224.965 46.02 224.392 45.74C223.832 45.46 223.398 45.0867 223.092 44.62C222.798 44.1534 222.605 43.6134 222.512 43C222.418 42.3734 222.372 41.72 222.372 41.04C222.372 40.4267 222.418 39.82 222.512 39.22C222.618 38.6067 222.818 38.0667 223.112 37.6C223.418 37.12 223.852 36.7334 224.412 36.44C224.985 36.1467 225.732 36 226.652 36C226.878 36 227.125 36.0067 227.392 36.02C227.672 36.0334 227.945 36.06 228.212 36.1C228.492 36.14 228.758 36.1934 229.012 36.26C229.278 36.3134 229.518 36.3867 229.732 36.48C229.972 36.5867 230.072 36.7734 230.032 37.04L229.892 37.84C229.852 37.9867 229.785 38.0734 229.692 38.1C229.598 38.1267 229.458 38.1334 229.272 38.12C228.858 38.08 228.432 38.04 227.992 38C227.565 37.96 227.178 37.94 226.832 37.94C226.018 37.94 225.452 38.1734 225.132 38.64C224.812 39.1067 224.652 39.8934 224.652 41C224.652 41.6267 224.685 42.1467 224.752 42.56C224.832 42.9734 224.958 43.3067 225.132 43.56C225.305 43.8134 225.525 43.9934 225.792 44.1C226.072 44.1934 226.412 44.24 226.812 44.24C227.118 44.24 227.518 44.2267 228.012 44.2C228.518 44.16 228.978 44.1134 229.392 44.06C229.552 44.0334 229.672 44.0334 229.752 44.06C229.832 44.0867 229.885 44.1867 229.912 44.36L230.032 45.08Z" fill="#626366"/>
<path d="M240.057 45.62C240.057 45.8734 239.923 46 239.657 46H238.237C237.97 46 237.837 45.8734 237.837 45.62C237.837 44.6467 237.837 43.6867 237.837 42.74C237.85 41.78 237.857 40.8134 237.857 39.84C237.857 39.28 237.763 38.8334 237.577 38.5C237.403 38.1534 237.017 37.98 236.417 37.98C236.217 37.98 235.983 38.02 235.717 38.1C235.463 38.1667 235.203 38.2467 234.937 38.34C234.683 38.4334 234.443 38.5334 234.217 38.64C233.99 38.7467 233.81 38.8267 233.677 38.88V45.62C233.677 45.74 233.65 45.8334 233.597 45.9C233.543 45.9667 233.443 46 233.297 46H231.877C231.637 46 231.517 45.8734 231.517 45.62V32.28C231.517 32.0267 231.637 31.9 231.877 31.9H233.297C233.563 31.9 233.697 32.0267 233.697 32.28V37.12C233.87 37.0134 234.083 36.9 234.337 36.78C234.59 36.6467 234.863 36.5267 235.157 36.42C235.45 36.3 235.757 36.2067 236.077 36.14C236.397 36.06 236.71 36.02 237.017 36.02C237.71 36.02 238.257 36.1267 238.657 36.34C239.057 36.54 239.357 36.8134 239.557 37.16C239.77 37.5067 239.903 37.9134 239.957 38.38C240.023 38.8334 240.057 39.3134 240.057 39.82V45.62Z" fill="#626366"/>
<path d="M145.62 59.12L147.14 57.16L150.5 53.02C150.593 52.9134 150.687 52.84 150.78 52.8C150.873 52.7467 151 52.72 151.16 52.72H152.98C153.127 52.72 153.213 52.76 153.24 52.84C153.28 52.92 153.253 53.0134 153.16 53.12L148.82 58.4L153.3 65.58C153.38 65.7134 153.393 65.82 153.34 65.9C153.287 65.9667 153.207 66 153.1 66H151.26C151.087 66 150.953 65.9667 150.86 65.9C150.78 65.8334 150.7 65.74 150.62 65.62L147.34 60.18L145.58 62.36V65.62C145.58 65.7267 145.553 65.82 145.5 65.9C145.46 65.9667 145.367 66 145.22 66H143.72C143.453 66 143.32 65.8734 143.32 65.62V53.12C143.32 52.8534 143.453 52.72 143.72 52.72H145.22C145.367 52.72 145.46 52.76 145.5 52.84C145.553 52.9067 145.58 53 145.58 53.12V59.12H145.62Z" fill="#626366"/>
<path d="M163.182 60.94C163.182 61.5134 163.142 62.1067 163.062 62.72C162.995 63.3334 162.815 63.9 162.522 64.42C162.228 64.9267 161.788 65.3467 161.202 65.68C160.615 66 159.802 66.16 158.762 66.16C157.762 66.16 156.975 66 156.402 65.68C155.828 65.3467 155.395 64.9267 155.102 64.42C154.822 63.9 154.648 63.3334 154.582 62.72C154.515 62.1067 154.482 61.5134 154.482 60.94C154.482 60.4734 154.522 59.9534 154.602 59.38C154.695 58.8067 154.888 58.2734 155.182 57.78C155.475 57.2734 155.902 56.8534 156.462 56.52C157.035 56.1734 157.802 56 158.762 56C159.735 56 160.508 56.1467 161.082 56.44C161.668 56.7334 162.115 57.12 162.422 57.6C162.728 58.0667 162.928 58.5934 163.022 59.18C163.128 59.7667 163.182 60.3534 163.182 60.94ZM160.942 61.08C160.942 60.5467 160.915 60.0867 160.862 59.7C160.808 59.3 160.702 58.9734 160.542 58.72C160.382 58.4534 160.162 58.2534 159.882 58.12C159.602 57.9867 159.235 57.92 158.782 57.92C158.355 57.92 158.008 57.9867 157.742 58.12C157.475 58.2534 157.262 58.4534 157.102 58.72C156.955 58.9867 156.848 59.32 156.782 59.72C156.728 60.1067 156.702 60.56 156.702 61.08C156.702 61.6134 156.728 62.08 156.782 62.48C156.848 62.8667 156.955 63.1934 157.102 63.46C157.248 63.7134 157.455 63.9067 157.722 64.04C157.988 64.1734 158.335 64.24 158.762 64.24C159.215 64.24 159.582 64.18 159.862 64.06C160.155 63.9267 160.382 63.7334 160.542 63.48C160.702 63.2134 160.808 62.88 160.862 62.48C160.915 62.08 160.942 61.6134 160.942 61.08Z" fill="#626366"/>
<path d="M179.47 65.62C179.47 65.74 179.444 65.8334 179.39 65.9C179.35 65.9667 179.257 66 179.11 66H177.67C177.417 66 177.29 65.8734 177.29 65.62V59.94C177.29 59.1934 177.19 58.6934 176.99 58.44C176.79 58.1734 176.437 58.04 175.93 58.04C175.744 58.04 175.53 58.0734 175.29 58.14C175.064 58.2067 174.83 58.2867 174.59 58.38C174.364 58.46 174.144 58.5534 173.93 58.66C173.717 58.7667 173.53 58.86 173.37 58.94C173.37 59.0467 173.37 59.1867 173.37 59.36C173.384 59.5334 173.39 59.7334 173.39 59.96V65.62C173.39 65.74 173.364 65.8334 173.31 65.9C173.257 65.9667 173.157 66 173.01 66H171.55C171.324 66 171.21 65.8734 171.21 65.62V59.84C171.21 59.2267 171.117 58.7734 170.93 58.48C170.744 58.1867 170.397 58.04 169.89 58.04C169.717 58.04 169.517 58.0667 169.29 58.12C169.077 58.1734 168.85 58.2467 168.61 58.34C168.384 58.4334 168.157 58.5334 167.93 58.64C167.704 58.7467 167.497 58.8467 167.31 58.94V65.62C167.31 65.8734 167.184 66 166.93 66H165.49C165.25 66 165.13 65.8734 165.13 65.62V56.6C165.13 56.3334 165.25 56.2 165.49 56.2H166.91C167.177 56.2 167.31 56.3334 167.31 56.6V57.18L167.33 57.2C167.53 57.0667 167.744 56.9334 167.97 56.8C168.197 56.6534 168.437 56.5267 168.69 56.42C168.957 56.3134 169.224 56.2267 169.49 56.16C169.757 56.08 170.03 56.0334 170.31 56.02C170.884 56.02 171.404 56.1134 171.87 56.3C172.35 56.4734 172.744 56.8467 173.05 57.42C173.557 57.0467 174.11 56.72 174.71 56.44C175.31 56.16 175.93 56.02 176.57 56.02C177.224 56.02 177.744 56.12 178.13 56.32C178.517 56.52 178.81 56.7934 179.01 57.14C179.21 57.4734 179.337 57.8667 179.39 58.32C179.444 58.7734 179.47 59.2467 179.47 59.74V65.62Z" fill="#626366"/>
<path d="M195.955 65.62C195.955 65.74 195.928 65.8334 195.875 65.9C195.835 65.9667 195.741 66 195.595 66H194.155C193.901 66 193.775 65.8734 193.775 65.62V59.94C193.775 59.1934 193.675 58.6934 193.475 58.44C193.275 58.1734 192.921 58.04 192.415 58.04C192.228 58.04 192.015 58.0734 191.775 58.14C191.548 58.2067 191.315 58.2867 191.075 58.38C190.848 58.46 190.628 58.5534 190.415 58.66C190.201 58.7667 190.015 58.86 189.855 58.94C189.855 59.0467 189.855 59.1867 189.855 59.36C189.868 59.5334 189.875 59.7334 189.875 59.96V65.62C189.875 65.74 189.848 65.8334 189.795 65.9C189.741 65.9667 189.641 66 189.495 66H188.035C187.808 66 187.695 65.8734 187.695 65.62V59.84C187.695 59.2267 187.601 58.7734 187.415 58.48C187.228 58.1867 186.881 58.04 186.375 58.04C186.201 58.04 186.001 58.0667 185.775 58.12C185.561 58.1734 185.335 58.2467 185.095 58.34C184.868 58.4334 184.641 58.5334 184.415 58.64C184.188 58.7467 183.981 58.8467 183.795 58.94V65.62C183.795 65.8734 183.668 66 183.415 66H181.975C181.735 66 181.615 65.8734 181.615 65.62V56.6C181.615 56.3334 181.735 56.2 181.975 56.2H183.395C183.661 56.2 183.795 56.3334 183.795 56.6V57.18L183.815 57.2C184.015 57.0667 184.228 56.9334 184.455 56.8C184.681 56.6534 184.921 56.5267 185.175 56.42C185.441 56.3134 185.708 56.2267 185.975 56.16C186.241 56.08 186.515 56.0334 186.795 56.02C187.368 56.02 187.888 56.1134 188.355 56.3C188.835 56.4734 189.228 56.8467 189.535 57.42C190.041 57.0467 190.595 56.72 191.195 56.44C191.795 56.16 192.415 56.02 193.055 56.02C193.708 56.02 194.228 56.12 194.615 56.32C195.001 56.52 195.295 56.7934 195.495 57.14C195.695 57.4734 195.821 57.8667 195.875 58.32C195.928 58.7734 195.955 59.2467 195.955 59.74V65.62Z" fill="#626366"/>
<path d="M200.699 53.6C200.699 53.76 200.686 53.9134 200.659 54.06C200.632 54.1934 200.572 54.3134 200.479 54.42C200.399 54.5267 200.279 54.6134 200.119 54.68C199.972 54.7334 199.772 54.76 199.519 54.76C199.252 54.76 199.039 54.7267 198.879 54.66C198.732 54.5934 198.619 54.5067 198.539 54.4C198.459 54.2934 198.406 54.1734 198.379 54.04C198.352 53.8934 198.339 53.7467 198.339 53.6C198.339 53.28 198.412 53.0134 198.559 52.8C198.719 52.5734 199.039 52.46 199.519 52.46C200.012 52.46 200.332 52.5667 200.479 52.78C200.626 52.98 200.699 53.2534 200.699 53.6ZM200.579 65.62C200.579 65.7267 200.552 65.82 200.499 65.9C200.459 65.9667 200.366 66 200.219 66H198.799C198.532 66 198.399 65.8734 198.399 65.62V56.58C198.399 56.3267 198.532 56.2 198.799 56.2H200.219C200.366 56.2 200.459 56.24 200.499 56.32C200.552 56.3867 200.579 56.4734 200.579 56.58V65.62Z" fill="#626366"/>
<path d="M210.38 63.06C210.38 63.6467 210.267 64.14 210.04 64.54C209.814 64.9267 209.507 65.24 209.12 65.48C208.747 65.72 208.32 65.8934 207.84 66C207.36 66.1067 206.86 66.16 206.34 66.16C205.834 66.16 205.287 66.12 204.7 66.04C204.114 65.9734 203.627 65.8667 203.24 65.72C203.04 65.64 202.914 65.5534 202.86 65.46C202.807 65.3534 202.794 65.22 202.82 65.06L202.96 64.4C202.987 64.24 203.04 64.1467 203.12 64.12C203.2 64.08 203.32 64.0734 203.48 64.1C203.694 64.14 203.927 64.1734 204.18 64.2C204.447 64.2267 204.707 64.2534 204.96 64.28C205.227 64.2934 205.474 64.3067 205.7 64.32C205.94 64.3334 206.147 64.34 206.32 64.34C206.96 64.34 207.42 64.2534 207.7 64.08C207.98 63.8934 208.12 63.6 208.12 63.2C208.12 62.9734 208.094 62.7867 208.04 62.64C208 62.4934 207.92 62.3734 207.8 62.28C207.68 62.1867 207.514 62.1134 207.3 62.06C207.1 61.9934 206.84 61.94 206.52 61.9C206.027 61.8334 205.56 61.7467 205.12 61.64C204.68 61.5334 204.287 61.38 203.94 61.18C203.607 60.9667 203.34 60.6934 203.14 60.36C202.94 60.0134 202.84 59.5667 202.84 59.02C202.84 58.0334 203.187 57.2867 203.88 56.78C204.574 56.26 205.48 56 206.6 56C206.8 56 207.034 56.0067 207.3 56.02C207.567 56.0334 207.834 56.06 208.1 56.1C208.38 56.14 208.654 56.1867 208.92 56.24C209.187 56.2934 209.427 56.36 209.64 56.44C209.974 56.5734 210.114 56.7734 210.06 57.04L209.9 57.76C209.874 57.9067 209.82 58 209.74 58.04C209.674 58.0667 209.547 58.0667 209.36 58.04C208.934 57.9867 208.467 57.94 207.96 57.9C207.454 57.8467 207.014 57.82 206.64 57.82C206 57.82 205.574 57.9134 205.36 58.1C205.16 58.2734 205.06 58.5534 205.06 58.94C205.06 59.3267 205.187 59.58 205.44 59.7C205.707 59.82 206.147 59.9267 206.76 60.02C207.24 60.0867 207.694 60.1734 208.12 60.28C208.56 60.3867 208.947 60.5467 209.28 60.76C209.614 60.9734 209.88 61.26 210.08 61.62C210.28 61.98 210.38 62.46 210.38 63.06Z" fill="#626366"/>
<path d="M219.56 63.06C219.56 63.6467 219.447 64.14 219.22 64.54C218.993 64.9267 218.687 65.24 218.3 65.48C217.927 65.72 217.5 65.8934 217.02 66C216.54 66.1067 216.04 66.16 215.52 66.16C215.013 66.16 214.467 66.12 213.88 66.04C213.293 65.9734 212.807 65.8667 212.42 65.72C212.22 65.64 212.093 65.5534 212.04 65.46C211.987 65.3534 211.973 65.22 212 65.06L212.14 64.4C212.167 64.24 212.22 64.1467 212.3 64.12C212.38 64.08 212.5 64.0734 212.66 64.1C212.873 64.14 213.107 64.1734 213.36 64.2C213.627 64.2267 213.887 64.2534 214.14 64.28C214.407 64.2934 214.653 64.3067 214.88 64.32C215.12 64.3334 215.327 64.34 215.5 64.34C216.14 64.34 216.6 64.2534 216.88 64.08C217.16 63.8934 217.3 63.6 217.3 63.2C217.3 62.9734 217.273 62.7867 217.22 62.64C217.18 62.4934 217.1 62.3734 216.98 62.28C216.86 62.1867 216.693 62.1134 216.48 62.06C216.28 61.9934 216.02 61.94 215.7 61.9C215.207 61.8334 214.74 61.7467 214.3 61.64C213.86 61.5334 213.467 61.38 213.12 61.18C212.787 60.9667 212.52 60.6934 212.32 60.36C212.12 60.0134 212.02 59.5667 212.02 59.02C212.02 58.0334 212.367 57.2867 213.06 56.78C213.753 56.26 214.66 56 215.78 56C215.98 56 216.213 56.0067 216.48 56.02C216.747 56.0334 217.013 56.06 217.28 56.1C217.56 56.14 217.833 56.1867 218.1 56.24C218.367 56.2934 218.607 56.36 218.82 56.44C219.154 56.5734 219.293 56.7734 219.24 57.04L219.08 57.76C219.053 57.9067 219 58 218.92 58.04C218.853 58.0667 218.727 58.0667 218.54 58.04C218.113 57.9867 217.647 57.94 217.14 57.9C216.634 57.8467 216.194 57.82 215.82 57.82C215.18 57.82 214.753 57.9134 214.54 58.1C214.34 58.2734 214.24 58.5534 214.24 58.94C214.24 59.3267 214.367 59.58 214.62 59.7C214.887 59.82 215.327 59.9267 215.94 60.02C216.42 60.0867 216.873 60.1734 217.3 60.28C217.74 60.3867 218.127 60.5467 218.46 60.76C218.794 60.9734 219.06 61.26 219.26 61.62C219.46 61.98 219.56 62.46 219.56 63.06Z" fill="#626366"/>
<path d="M224 53.6C224 53.76 223.987 53.9134 223.96 54.06C223.933 54.1934 223.873 54.3134 223.78 54.42C223.7 54.5267 223.58 54.6134 223.42 54.68C223.273 54.7334 223.073 54.76 222.82 54.76C222.553 54.76 222.34 54.7267 222.18 54.66C222.033 54.5934 221.92 54.5067 221.84 54.4C221.76 54.2934 221.707 54.1734 221.68 54.04C221.653 53.8934 221.64 53.7467 221.64 53.6C221.64 53.28 221.713 53.0134 221.86 52.8C222.02 52.5734 222.34 52.46 222.82 52.46C223.313 52.46 223.633 52.5667 223.78 52.78C223.927 52.98 224 53.2534 224 53.6ZM223.88 65.62C223.88 65.7267 223.853 65.82 223.8 65.9C223.76 65.9667 223.667 66 223.52 66H222.1C221.833 66 221.7 65.8734 221.7 65.62V56.58C221.7 56.3267 221.833 56.2 222.1 56.2H223.52C223.667 56.2 223.76 56.24 223.8 56.32C223.853 56.3867 223.88 56.4734 223.88 56.58V65.62Z" fill="#626366"/>
<path d="M234.861 60.94C234.861 61.5134 234.821 62.1067 234.741 62.72C234.675 63.3334 234.495 63.9 234.201 64.42C233.908 64.9267 233.468 65.3467 232.881 65.68C232.295 66 231.481 66.16 230.441 66.16C229.441 66.16 228.655 66 228.081 65.68C227.508 65.3467 227.075 64.9267 226.781 64.42C226.501 63.9 226.328 63.3334 226.261 62.72C226.195 62.1067 226.161 61.5134 226.161 60.94C226.161 60.4734 226.201 59.9534 226.281 59.38C226.375 58.8067 226.568 58.2734 226.861 57.78C227.155 57.2734 227.581 56.8534 228.141 56.52C228.715 56.1734 229.481 56 230.441 56C231.415 56 232.188 56.1467 232.761 56.44C233.348 56.7334 233.795 57.12 234.101 57.6C234.408 58.0667 234.608 58.5934 234.701 59.18C234.808 59.7667 234.861 60.3534 234.861 60.94ZM232.621 61.08C232.621 60.5467 232.595 60.0867 232.541 59.7C232.488 59.3 232.381 58.9734 232.221 58.72C232.061 58.4534 231.841 58.2534 231.561 58.12C231.281 57.9867 230.915 57.92 230.461 57.92C230.035 57.92 229.688 57.9867 229.421 58.12C229.155 58.2534 228.941 58.4534 228.781 58.72C228.635 58.9867 228.528 59.32 228.461 59.72C228.408 60.1067 228.381 60.56 228.381 61.08C228.381 61.6134 228.408 62.08 228.461 62.48C228.528 62.8667 228.635 63.1934 228.781 63.46C228.928 63.7134 229.135 63.9067 229.401 64.04C229.668 64.1734 230.015 64.24 230.441 64.24C230.895 64.24 231.261 64.18 231.541 64.06C231.835 63.9267 232.061 63.7334 232.221 63.48C232.381 63.2134 232.488 62.88 232.541 62.48C232.595 62.08 232.621 61.6134 232.621 61.08Z" fill="#626366"/>
<path d="M245.31 65.62C245.31 65.8734 245.183 66 244.93 66H243.51C243.363 66 243.263 65.9667 243.21 65.9C243.157 65.8334 243.13 65.74 243.13 65.62V65L243.09 64.98C242.89 65.1134 242.657 65.2534 242.39 65.4C242.137 65.5334 241.863 65.66 241.57 65.78C241.277 65.9 240.97 65.9934 240.65 66.06C240.343 66.14 240.037 66.18 239.73 66.18C239.05 66.18 238.51 66.0867 238.11 65.9C237.723 65.7134 237.43 65.4534 237.23 65.12C237.03 64.7867 236.903 64.3934 236.85 63.94C236.797 63.4867 236.77 63 236.77 62.48V56.6C236.77 56.3334 236.897 56.2 237.15 56.2H238.61C238.85 56.2 238.97 56.3334 238.97 56.6V62.22C238.97 62.5267 238.99 62.8 239.03 63.04C239.07 63.28 239.143 63.4867 239.25 63.66C239.357 63.82 239.503 63.9467 239.69 64.04C239.877 64.1334 240.123 64.18 240.43 64.18C240.643 64.18 240.877 64.1467 241.13 64.08C241.397 64.0134 241.657 63.9334 241.91 63.84C242.163 63.7334 242.397 63.6334 242.61 63.54C242.823 63.4334 242.997 63.3467 243.13 63.28V56.6C243.13 56.48 243.157 56.3867 243.21 56.32C243.263 56.24 243.363 56.2 243.51 56.2H244.93C245.183 56.2 245.31 56.3334 245.31 56.6V65.62Z" fill="#626366"/>
<path d="M255.915 65.62C255.915 65.74 255.888 65.8334 255.835 65.9C255.782 65.9667 255.682 66 255.535 66H254.095C253.842 66 253.715 65.8734 253.715 65.62L253.735 60C253.735 59.4134 253.635 58.94 253.435 58.58C253.248 58.22 252.868 58.04 252.295 58.04C252.095 58.04 251.862 58.0734 251.595 58.14C251.342 58.2067 251.082 58.2934 250.815 58.4C250.562 58.4934 250.322 58.5934 250.095 58.7C249.868 58.7934 249.688 58.8734 249.555 58.94V65.62C249.555 65.8734 249.428 66 249.175 66H247.755C247.502 66 247.375 65.8734 247.375 65.62V56.6C247.375 56.3334 247.502 56.2 247.755 56.2H249.175C249.428 56.2 249.555 56.3334 249.555 56.6V57.2C249.568 57.2 249.575 57.2067 249.575 57.22C249.588 57.22 249.602 57.22 249.615 57.22C249.802 57.0867 250.022 56.9534 250.275 56.82C250.542 56.6734 250.822 56.54 251.115 56.42C251.408 56.3 251.715 56.2067 252.035 56.14C252.355 56.06 252.668 56.02 252.975 56.02C253.655 56.02 254.188 56.1267 254.575 56.34C254.962 56.54 255.255 56.8134 255.455 57.16C255.655 57.5067 255.782 57.9134 255.835 58.38C255.888 58.8334 255.915 59.3134 255.915 59.82V65.62Z" fill="#626366"/>
<path fill-rule="evenodd" clip-rule="evenodd" d="M265 66.7H268.3V28H265V66.7Z" fill="#004494"/>
</svg>
