<svg
  width="291"
  height="72"
  viewBox="0 0 291 72"
  fill="none"
  xmlns="http://www.w3.org/2000/svg"
>
<path
    d="M86.9932 27.541H86.9369H28.567V66.1905H86.9369H86.9932V27.541Z"
    fill="#003399"
  />
<path
    d="M58.3093 33.3809H60.3442L58.703 34.6449L59.3421 36.6472L57.711 35.4135L56.08 36.6472L56.7191 34.6449L55.0676 33.3809H57.0975L57.711 31.4292L58.3093 33.3809Z"
    fill="#FFED00"
  />
<path
    d="M58.3808 59.1573H60.4158L58.7796 60.3759L59.4137 62.3023L57.7826 61.1141L56.1516 62.3023L56.7958 60.3759L55.1392 59.1573H57.1691L57.7826 57.2815L58.3808 59.1573Z"
    fill="#FFED00"
  />
<path
    d="M64.8283 57.4534H66.8684L65.2271 58.6669L65.8663 60.5933L64.2301 59.4051L62.5991 60.5933L63.2433 58.6669L61.5867 57.4534H63.6165L64.2301 55.5725L64.8283 57.4534Z"
    fill="#FFED00"
  />
<path
    d="M64.8283 35.1H66.8684L65.2271 36.3185L65.8663 38.2449L64.2301 37.0567L62.5991 38.2449L63.2433 36.3185L61.5867 35.1H63.6165L64.2301 33.2241L64.8283 35.1Z"
    fill="#FFED00"
  />
<path
    d="M69.6192 39.8377H71.6491L70.0129 41.0512L70.6469 42.9776L69.0159 41.7894L67.3848 42.9776L68.0291 41.0512L66.3724 39.8377H68.4023L69.0159 37.9568L69.6192 39.8377Z"
    fill="#FFED00"
  />
<path
    d="M69.6192 52.7815H71.6491L70.0129 54L70.6469 55.9264L69.0159 54.7382L67.3848 55.9264L68.0291 54L66.3724 52.7815H68.4023L69.0159 50.9056L69.6192 52.7815Z"
    fill="#FFED00"
  />
<path
    d="M71.4087 46.2085H73.4488L71.8076 47.427L72.4467 49.3534L70.8105 48.1652L69.1795 49.3534L69.8237 47.427L68.1671 46.2085H70.197L70.8105 44.3326L71.4087 46.2085Z"
    fill="#FFED00"
  />
<path
    d="M51.7391 35.1202H53.7689L52.1328 36.3336L52.7668 38.26L51.1357 37.0718L49.5047 38.26L50.1489 36.3336L48.4974 35.1202H50.5222L51.1357 33.2393L51.7391 35.1202Z"
    fill="#FFED00"
  />
<path
    d="M47.0811 39.8528H49.1212L47.4799 41.0663L48.1139 42.9927L46.4829 41.8045L44.8518 42.9927L45.4961 41.0663L43.8395 39.8528H45.8693L46.4829 37.9719L47.0811 39.8528Z"
    fill="#FFED00"
  />
<path
    d="M45.3529 46.2287H47.3879L45.7517 47.4422L46.3857 49.3686L44.7547 48.1854L43.1237 49.3686L43.7679 47.4422L42.1164 46.2287H44.1411L44.7547 44.3478L45.3529 46.2287Z"
    fill="#FFED00"
  />
<path
    d="M47.0811 52.7966H49.1212L47.4799 54.0152L48.1139 55.9416L46.4829 54.7534L44.8518 55.9416L45.4961 54.0152L43.8395 52.7966H45.8693L46.4829 50.9208L47.0811 52.7966Z"
    fill="#FFED00"
  />
<path
    d="M51.8055 57.4685H53.8354L52.1992 58.682L52.8332 60.6084L51.2022 59.4202L49.5711 60.6084L50.2154 58.682L48.5639 57.4685H50.5886L51.2022 55.5876L51.8055 57.4685Z"
    fill="#FFED00"
  />
<path
    d="M95.8693 0.00505726C95.8693 0.00505726 107.869 18.9101 110.068 22.3736C112.262 25.8371 114.772 28.5826 123.653 30.4433C132.535 32.304 136.4 33.1837 136.4 33.1837V33.8562C136.4 33.8562 130.755 32.668 123.495 31.0652C116.234 29.4624 113.264 28.9214 109.956 24.3657C107.2 20.5736 95.8693 3.61517 95.8693 3.61517V0V0.00505726Z"
    fill="#6D6E70"
  />
<path
    d="M95.8693 21.5949C95.8693 21.5949 106.796 32.9157 109.956 36.1668C113.31 39.6151 117.6 40.8893 123.551 41.941C129.232 42.9421 136.395 44.1 136.395 44.1V44.7371C136.395 44.7371 129.666 43.6449 123.551 42.6135C117.553 41.5972 113.356 41.0309 109.92 37.9011C106.842 35.1 95.8693 24.9219 95.8693 24.9219V21.5898V21.5949Z"
    fill="#6D6E70"
  />
<path
    d="M95.8693 26.6967C95.8693 26.6967 106.259 36.2377 109.956 39.499C113.356 42.4973 116.112 43.4327 123.587 44.7422C131.062 46.0518 136.395 46.8658 136.395 46.8658V47.5383C136.395 47.5383 129.63 46.4411 123.551 45.4804C117.472 44.5248 113.596 44.1456 109.956 41.2282C105.758 37.8608 95.8693 29.8113 95.8693 29.8113V26.6917V26.6967Z"
    fill="#6D6E70"
  />
<path
    d="M95.8693 32.1321C95.8693 32.1321 107.737 41.4456 109.956 43.0737C112.175 44.7018 115.109 46.6029 123.623 47.8214C132.064 49.0298 136.395 49.6265 136.395 49.6265V50.3343C136.395 50.3343 128.741 49.2371 123.623 48.6001C118.505 47.963 114.583 47.69 109.991 44.6664C105.523 41.7237 95.8693 35.004 95.8693 35.004V32.1321Z"
    fill="#6D6E70"
  />
<path
    d="M95.8693 37.3601C95.8693 37.3601 107.772 45.1972 110.027 46.441C112.282 47.6798 114.931 49.7022 123.623 50.7994C132.315 51.8966 136.395 52.3921 136.395 52.3921V53.0646C136.395 53.0646 129.206 52.286 123.587 51.6843C117.973 51.0826 114.143 50.2685 109.956 47.9983C105.768 45.7331 95.8693 40.0095 95.8693 40.0095V37.3601Z"
    fill="#6D6E70"
  />
<path
    d="M95.8693 42.5882C95.8693 42.5882 106.392 48.2511 109.956 50.0157C113.928 51.9876 117.364 52.9331 123.587 53.6663C129.697 54.3843 136.395 55.082 136.395 55.082V55.7191C136.395 55.7191 130.203 55.0618 123.587 54.4449C117.027 53.8281 114.69 53.5449 109.956 51.4668C105.722 49.6062 95.8693 45.0657 95.8693 45.0657V42.5831V42.5882Z"
    fill="#6D6E70"
  />
<path
    d="M95.8693 47.8871C95.8693 47.8871 104.183 51.4062 110.027 53.7017C115.774 55.9568 120.166 56.1489 123.658 56.5382C125.197 56.7101 136.395 57.8478 136.395 57.8478V58.4848C136.395 58.4848 129.707 57.9539 123.623 57.423C117.538 56.8921 114.915 56.6646 109.991 55.0517C105.006 53.4135 95.8693 50.2635 95.8693 50.2635V47.8921V47.8871Z"
    fill="#6D6E70"
  />
<path
    d="M95.8693 53.2922C95.8693 53.2922 104.265 55.8658 109.991 57.3524C115.718 58.8389 120.974 59.4456 123.623 59.6175C126.271 59.7945 136.4 60.6085 136.4 60.6085V61.2102C136.4 61.2102 130.638 60.8209 123.587 60.3254C117.886 59.9259 113.31 59.5012 109.956 58.7681C106.244 57.9591 95.8693 55.522 95.8693 55.522V53.2922Z"
    fill="#6D6E70"
  />
<path
    d="M95.8693 58.6062C95.8693 58.6062 102.736 59.7792 109.991 60.9674C115.432 61.8573 122.799 62.4186 123.587 62.454C124.374 62.4893 136.395 63.3034 136.395 63.3034V63.9405C136.395 63.9405 128.7 63.5461 123.587 63.268C118.259 62.9747 112.962 62.6562 109.956 62.3478C103.217 61.6551 95.8693 60.7349 95.8693 60.7349V58.6062Z"
    fill="#6D6E70"
  />
<path
    d="M95.8693 64.1074C95.8693 64.1074 106.699 64.5119 109.991 64.5827C113.284 64.6535 136.395 65.5737 136.395 65.5737V66.1956H95.8693V64.1074Z"
    fill="#6D6E70"
  />
<path
    d="M123.582 33.3657C113.78 31.2775 111.561 27.7332 109.915 25.5388C108.268 23.3393 95.8642 5.41516 95.8642 5.41516V8.71179C96.355 9.34382 106.97 23.8348 109.95 27.627C113.31 31.8994 118.571 32.8702 123.582 33.932C128.587 34.9938 136.395 36.4753 136.395 36.4753V35.909C136.395 35.909 126.118 33.9017 123.582 33.3657Z"
    fill="#6D6E70"
  />
<path
    d="M123.582 36.2022C115.534 34.6449 112.277 32.127 109.915 29.0831C107.552 26.0343 95.8642 10.446 95.8642 10.446V14.2786C96.355 14.85 107.046 27.7534 109.915 30.9994C113.259 34.7865 117.927 35.7826 123.582 36.809C129.237 37.8354 136.39 39.1803 136.39 39.1803V38.614C136.39 38.614 128.224 37.1022 123.582 36.2073V36.2022Z"
    fill="#6D6E70"
  />
<path
    d="M123.582 39.1399C115.212 37.5321 113.494 36.2124 109.95 32.3748C107.721 29.963 96.3448 16.6804 95.8642 16.1191V19.6585C95.8642 19.6585 106.494 30.8731 109.915 34.1849C114.399 38.5332 118.607 38.8619 123.582 39.7467C128.557 40.6315 136.39 42.0473 136.39 42.0473V41.4456C136.39 41.4456 126.931 39.7871 123.582 39.145V39.1399Z"
    fill="#6D6E70"
  />
<path
    d="M0.782944 27.7787C0.782944 27.7787 28.4954 24.8562 36.2569 23.7792C48.5281 22.0803 58.57 20.2702 67.8603 6.18875C67.8603 6.18875 67.8705 5.38987 67.8603 5.03088C62.1696 13.591 54.3211 19.4309 43.5122 21.1247C32.9539 22.7831 0.777832 25.2051 0.777832 25.2051V27.7787H0.782944Z"
    fill="#6D6E70"
  />
<path
    d="M0.777832 24.2848C0.777832 24.2848 26.4604 21.1045 34.9224 19.9314C48.3082 18.0809 57.7212 16.4174 67.8552 1.05669C67.8552 1.05669 67.8603 0.394331 67.8552 0.00500488C61.648 9.34378 53.9836 15.3758 42.1931 17.2264C30.6735 19.0365 0.777832 21.6758 0.777832 21.6758V24.2899V24.2848Z"
    fill="#6D6E70"
  />
<path d="M26.9973 64.1326H0.793167V66.1854H26.9973V64.1326Z" fill="#6D6E70" />
<path
    d="M67.8552 22.5708C67.8552 22.5708 67.8705 21.3624 67.8654 21.1045C66.6332 22.9601 65.0124 24.6438 63.141 26.1253H64.9766C66.0094 25.0736 66.9758 23.8955 67.8501 22.5708H67.8552Z"
    fill="#6D6E70"
  />
<path
    d="M67.8552 17.1102C67.8552 17.1102 67.8654 16.0383 67.8603 15.745C64.8897 20.2147 60.4669 23.7843 55.3539 26.1506L58.3706 26.1405C61.8577 24.1332 65.0993 21.2815 67.8501 17.1102H67.8552Z"
    fill="#6D6E70"
  />
<path
    d="M67.8552 11.6495C67.8552 11.6495 67.8654 10.7141 67.8552 10.3905C62.686 18.172 54.6483 23.4961 44.8212 25.0383C42.4948 25.4023 38.706 25.8068 34.3037 26.2164L46.3039 26.1759C54.224 24.4315 61.6378 21.059 67.845 11.6495H67.8552Z"
    fill="#6D6E70"
  />
<path
    d="M27.0024 60.6742C13.6319 60.745 0.793167 60.8006 0.793167 60.8006V62.9394C0.793167 62.9394 14.2403 62.8433 27.0024 62.7371V60.6742Z"
    fill="#6D6E70"
  />
<path
    d="M27.0024 57.0034C13.7239 57.15 0.788055 57.2613 0.788055 57.2613V59.4456C0.788055 59.4456 14.3733 59.2686 27.0024 59.0714V57.0034Z"
    fill="#6D6E70"
  />
<path
    d="M26.9973 53.3225C13.816 53.55 0.788055 53.722 0.788055 53.722V55.9517C0.788055 55.9517 14.5164 55.6837 26.9973 55.3905V53.3225Z"
    fill="#6D6E70"
  />
<path
    d="M27.0024 49.6214C13.9182 49.9399 0.788055 50.1776 0.788055 50.1776V52.4478C0.788055 52.4478 14.6749 52.0736 27.0024 51.6843V49.6163V49.6214Z"
    fill="#6D6E70"
  />
<path
    d="M27.0075 45.9102C14.0205 46.3197 0.788055 46.6433 0.788055 46.6433V48.959C0.788055 48.959 14.8437 48.4736 27.0075 47.9781V45.9152V45.9102Z"
    fill="#6D6E70"
  />
<path
    d="M27.0024 42.1838C14.1176 42.6995 0.788055 43.104 0.788055 43.104V45.4602C0.788055 45.4602 15.0175 44.8433 27.0024 44.2315V42.1787V42.1838Z"
    fill="#6D6E70"
  />
<path
    d="M27.0075 38.432C14.2199 39.059 0.782944 39.5595 0.782944 39.5595V41.9612C0.782944 41.9612 15.2016 41.1977 27.0075 40.4646V38.432Z"
    fill="#6D6E70"
  />
<path
    d="M27.0075 34.6602C14.317 35.4085 0.782944 36.0203 0.782944 36.0203V38.4624C0.782944 38.4624 15.3959 37.5321 27.0075 36.6725V34.6602Z"
    fill="#6D6E70"
  />
<path
    d="M27.0075 30.868C14.404 31.7478 0.782944 32.486 0.782944 32.486V34.9737C0.782944 34.9737 15.5902 33.8512 27.0075 32.8602V30.8731V30.868Z"
    fill="#6D6E70"
  />
<path
    d="M27.0075 27.0404C14.4807 28.0668 0.777832 28.9415 0.777832 28.9415V31.4696C0.777832 31.4696 15.7845 30.1247 27.0075 28.9921V27.0404Z"
    fill="#6D6E70"
  />
<path d="M244.414 66.2222V27.8269H241.136V66.2222H244.414Z" fill="#003399" />
<path
    d="M145.429 33.8105C145.429 33.5641 145.545 33.4283 145.811 33.4283H152.841C153.072 33.4283 153.203 33.5641 153.203 33.7904V34.977C153.203 35.2083 153.107 35.3189 152.821 35.3189H147.606V38.6074H152.232C152.479 38.6074 152.614 38.723 152.614 38.9493V40.136C152.614 40.3672 152.519 40.4779 152.232 40.4779H147.606V44.239H152.956C153.188 44.239 153.298 44.3546 153.298 44.601V45.7675C153.298 46.0139 153.203 46.1094 152.936 46.1094H145.811C145.545 46.1094 145.429 45.9938 145.429 45.7675V33.8055V33.8105Z"
    fill="#58595B"
  />
<path
    d="M162.927 46.1144H161.57C161.283 46.1144 161.208 45.9787 161.208 45.7524V45.1591L161.167 45.139C160.423 45.6569 159.121 46.2854 157.959 46.2854C155.38 46.2854 155.134 44.7568 155.134 42.7506V37.1341C155.134 36.9028 155.229 36.752 155.496 36.752H156.888C157.135 36.752 157.23 36.8877 157.23 37.1341V42.5042C157.23 43.6506 157.462 44.3747 158.623 44.3747C159.443 44.3747 160.705 43.7612 161.203 43.5149V37.1341C161.203 36.9028 161.278 36.752 161.565 36.752H162.922C163.189 36.752 163.284 36.8877 163.284 37.1341V45.7524C163.284 45.9988 163.189 46.1144 162.922 46.1144H162.927Z"
    fill="#58595B"
  />
<path
    d="M167.785 45.7474C167.785 45.9787 167.689 46.1094 167.423 46.1094H166.045C165.778 46.1094 165.683 45.9938 165.683 45.7474V37.1291C165.683 36.8827 165.778 36.747 166.045 36.747H167.402C167.689 36.747 167.785 36.8978 167.785 37.1291V37.9688L167.825 38.009C168.398 37.476 169.756 36.8224 170.651 36.6514C170.897 36.5961 171.073 36.6514 171.108 36.9783L171.244 38.2604C171.264 38.5269 171.284 38.6426 170.882 38.718C169.811 38.9292 168.453 39.3113 167.79 39.5979V45.7474H167.785Z"
    fill="#58595B"
  />
<path
    d="M176.192 46.2653C172.35 46.2653 172.104 43.4596 172.104 41.2774C172.104 39.4823 172.506 36.5609 176.192 36.5609C179.878 36.5609 180.416 39.0247 180.416 41.2774C180.416 43.53 180.149 46.2653 176.192 46.2653ZM176.212 38.3962C174.588 38.3962 174.226 39.427 174.226 41.4131C174.226 43.3992 174.588 44.43 176.192 44.43C177.932 44.43 178.274 43.4546 178.274 41.4131C178.274 39.3717 177.947 38.3962 176.212 38.3962Z"
    fill="#58595B"
  />
<path
    d="M186.736 46.2854C186.107 46.2854 185.227 46.1697 184.347 45.863L184.327 45.8831V49.247C184.327 49.4582 184.272 49.6291 183.965 49.6291H182.607C182.301 49.6291 182.245 49.4934 182.245 49.247V37.1341C182.245 36.8877 182.341 36.7519 182.607 36.7519H183.965C184.232 36.7519 184.307 36.9028 184.307 37.1341V37.7073L184.362 37.7475C185.051 37.2698 186.273 36.6011 187.379 36.6011C189.883 36.6011 190.532 38.4917 190.532 41.3779C190.532 44.4903 189.747 46.2854 186.731 46.2854H186.736ZM186.886 38.5118C186.102 38.5118 184.9 39.0649 184.327 39.3716V44.1484C185.187 44.3948 185.876 44.4752 186.524 44.4752C187.902 44.4752 188.38 43.7662 188.38 41.3628C188.38 38.9593 187.902 38.5168 186.891 38.5168L186.886 38.5118Z"
    fill="#58595B"
  />
<path
    d="M194.208 42.0064C194.263 43.9372 194.952 44.4702 196.521 44.4702C197.209 44.4702 198.28 44.3345 199.005 44.259C199.346 44.2188 199.462 44.2188 199.522 44.5859L199.638 45.2144C199.693 45.501 199.658 45.6519 199.311 45.8077C198.567 46.0943 197.174 46.2854 196.234 46.2854C192.584 46.2854 192.051 43.9574 192.051 41.4734C192.051 39.618 192.392 36.5659 196.118 36.5659C199.538 36.5659 200.151 38.7833 200.206 40.8449C200.226 41.5338 200.035 42.0114 199.271 42.0114H194.208V42.0064ZM194.228 40.5734H198.009C198.009 39.4068 197.702 38.2805 196.118 38.2805C194.705 38.2805 194.323 39.1404 194.228 40.5734Z"
    fill="#58595B"
  />
<path
    d="M205.079 46.2653C204.123 46.2653 202.841 46.1296 202.117 45.8429C201.735 45.6921 201.659 45.5161 201.715 45.2144L201.85 44.5859C201.906 44.2792 202.041 44.2591 202.348 44.2993C203.188 44.4351 204.41 44.5306 205.063 44.5306C206.285 44.5306 206.783 44.2038 206.783 43.4395C206.783 42.5595 206.456 42.3685 205.254 42.1975C203.384 41.931 201.74 41.5288 201.74 39.4471C201.74 37.5565 203.193 36.5609 205.33 36.5609C206.114 36.5609 207.432 36.6766 208.236 36.9833C208.563 37.119 208.694 37.2699 208.638 37.5565L208.488 38.2454C208.432 38.5118 208.317 38.5521 207.97 38.5118C207.15 38.4163 206.079 38.3007 205.37 38.3007C204.148 38.3007 203.862 38.6426 203.862 39.3717C203.862 40.1008 204.319 40.2114 205.486 40.4024C207.301 40.6689 208.945 41.031 208.945 43.3087C208.945 45.5865 207.055 46.2703 205.089 46.2703L205.079 46.2653Z"
    fill="#58595B"
  />
<path
    d="M212.686 42.0064C212.742 43.9372 213.43 44.4702 214.999 44.4702C215.688 44.4702 216.759 44.3345 217.483 44.259C217.825 44.2188 217.941 44.2188 218.001 44.5859L218.117 45.2144C218.172 45.501 218.137 45.6519 217.79 45.8077C217.046 46.0943 215.653 46.2854 214.713 46.2854C211.062 46.2854 210.529 43.9574 210.529 41.4734C210.529 39.618 210.871 36.5659 214.597 36.5659C218.016 36.5659 218.63 38.7833 218.685 40.8449C218.705 41.5338 218.514 42.0114 217.75 42.0114H212.686V42.0064ZM212.706 40.5734H216.488C216.488 39.4068 216.181 38.2805 214.597 38.2805C213.184 38.2805 212.802 39.1404 212.706 40.5734Z"
    fill="#58595B"
  />
<path
    d="M150.558 53.4053C151.493 53.4053 153.042 53.541 154.053 53.9584C154.359 54.0941 154.475 54.245 154.415 54.5517L154.244 55.3361C154.189 55.5674 154.093 55.6629 153.746 55.6227C152.811 55.5071 151.664 55.3763 150.669 55.3763C148.069 55.3763 147.687 57.4781 147.687 59.962C147.687 62.446 148.165 64.4321 150.669 64.4321C151.775 64.4321 152.715 64.3164 153.746 64.1857C154.108 64.1455 154.183 64.241 154.264 64.4924L154.415 65.2165C154.49 65.5232 154.395 65.6942 154.088 65.8299C153.153 66.2322 151.488 66.4031 150.553 66.4031C146.294 66.4031 145.394 63.2505 145.394 60.0023C145.394 56.7541 146.199 53.4103 150.553 53.4103L150.558 53.4053Z"
    fill="#58595B"
  />
<path
    d="M159.88 66.378C156.039 66.378 155.792 63.5723 155.792 61.39C155.792 59.595 156.195 56.6736 159.88 56.6736C163.566 56.6736 164.104 59.1374 164.104 61.39C164.104 63.6427 163.837 66.378 159.88 66.378ZM159.9 58.5089C158.276 58.5089 157.914 59.5397 157.914 61.5258C157.914 63.5119 158.276 64.5427 159.88 64.5427C161.62 64.5427 161.962 63.5672 161.962 61.5258C161.962 59.4843 161.635 58.5089 159.9 58.5089Z"
    fill="#58595B"
  />
<path
    d="M179.309 66.2272H177.931C177.665 66.2272 177.569 66.1115 177.569 65.8651V60.4397C177.569 59.0268 177.227 58.6245 176.272 58.6245C175.563 58.6245 174.417 59.1777 173.828 59.4844C173.828 59.6754 173.849 60.0174 173.849 60.4598V65.8651C173.849 66.0964 173.773 66.2272 173.487 66.2272H172.094C171.847 66.2272 171.767 66.1115 171.767 65.8651V60.3442C171.767 59.1776 171.46 58.6245 170.505 58.6245C169.836 58.6245 168.765 59.1022 168.041 59.4844V65.8651C168.041 66.0964 167.945 66.2272 167.679 66.2272H166.301C166.055 66.2272 165.959 66.1115 165.959 65.8651V57.2468C165.959 57.0004 166.055 56.8647 166.301 56.8647H167.659C167.945 56.8647 168.041 57.0155 168.041 57.2468V57.7999L168.061 57.82C168.805 57.3021 169.856 56.734 170.907 56.6937C172.013 56.6937 172.933 56.925 173.527 58.0312C174.482 57.3223 175.664 56.6937 176.891 56.6937C179.415 56.6937 179.661 58.3379 179.661 60.2486V65.8651C179.661 66.0964 179.586 66.2272 179.319 66.2272H179.309Z"
    fill="#58595B"
  />
<path
    d="M195.057 66.2272H193.68C193.413 66.2272 193.318 66.1115 193.318 65.8651V60.4397C193.318 59.0268 192.976 58.6245 192.02 58.6245C191.311 58.6245 190.17 59.1777 189.577 59.4844C189.577 59.6754 189.597 60.0174 189.597 60.4598V65.8651C189.597 66.0964 189.521 66.2272 189.235 66.2272H187.842C187.595 66.2272 187.515 66.1115 187.515 65.8651V60.3442C187.515 59.1776 187.208 58.6245 186.253 58.6245C185.584 58.6245 184.513 59.1022 183.789 59.4844V65.8651C183.789 66.0964 183.694 66.2272 183.427 66.2272H182.049C181.803 66.2272 181.707 66.1115 181.707 65.8651V57.2468C181.707 57.0004 181.803 56.8647 182.049 56.8647H183.407C183.694 56.8647 183.789 57.0155 183.789 57.2468V57.7999L183.809 57.82C184.553 57.3021 185.604 56.734 186.655 56.6937C187.761 56.6937 188.682 56.925 189.275 58.0312C190.23 57.3223 191.412 56.6937 192.639 56.6937C195.163 56.6937 195.409 58.3379 195.409 60.2486V65.8651C195.409 66.0964 195.334 66.2272 195.067 66.2272H195.057Z"
    fill="#58595B"
  />
<path
    d="M198.804 55.4871C197.808 55.4871 197.677 54.934 197.677 54.3809C197.677 53.7675 197.888 53.2898 198.804 53.2898C199.719 53.2898 199.93 53.7272 199.93 54.3809C199.93 54.9742 199.759 55.4871 198.804 55.4871ZM199.814 65.8603C199.814 66.0715 199.739 66.2223 199.472 66.2223H198.115C197.848 66.2223 197.733 66.1066 197.733 65.8603V57.2269C197.733 56.9604 197.848 56.8648 198.115 56.8648H199.472C199.739 56.8648 199.814 57.0157 199.814 57.2269V65.8603Z"
    fill="#58595B"
  />
<path
    d="M205.315 66.378C204.36 66.378 203.077 66.2422 202.353 65.9556C201.971 65.8048 201.896 65.6288 201.951 65.3271L202.087 64.6986C202.142 64.3919 202.278 64.3717 202.585 64.412C203.424 64.5477 204.646 64.6433 205.3 64.6433C206.522 64.6433 207.02 64.3164 207.02 63.5521C207.02 62.6722 206.693 62.4811 205.491 62.3102C203.62 62.0437 201.976 61.6414 201.976 59.5598C201.976 57.6692 203.429 56.6736 205.566 56.6736C206.351 56.6736 207.668 56.7892 208.473 57.096C208.799 57.2317 208.93 57.3826 208.875 57.6692L208.724 58.358C208.669 58.6245 208.553 58.6647 208.206 58.6245C207.387 58.529 206.316 58.4133 205.607 58.4133C204.385 58.4133 204.098 58.7553 204.098 59.4843C204.098 60.2134 204.556 60.324 205.722 60.5151C207.537 60.7816 209.182 61.1436 209.182 63.4214C209.182 65.6992 207.291 66.383 205.325 66.383L205.315 66.378Z"
    fill="#58595B"
  />
<path
    d="M214.089 66.378C213.134 66.378 211.852 66.2422 211.127 65.9556C210.745 65.8048 210.67 65.6288 210.725 65.3271L210.861 64.6986C210.916 64.3919 211.052 64.3717 211.359 64.412C212.198 64.5477 213.42 64.6433 214.074 64.6433C215.296 64.6433 215.794 64.3164 215.794 63.5521C215.794 62.6722 215.467 62.4811 214.265 62.3102C212.395 62.0437 210.75 61.6414 210.75 59.5598C210.75 57.6692 212.203 56.6736 214.34 56.6736C215.125 56.6736 216.442 56.7892 217.247 57.096C217.574 57.2317 217.704 57.3826 217.649 57.6692L217.498 58.358C217.443 58.6245 217.327 58.6647 216.98 58.6245C216.161 58.529 215.09 58.4133 214.381 58.4133C213.159 58.4133 212.872 58.7553 212.872 59.4843C212.872 60.2134 213.33 60.324 214.496 60.5151C216.312 60.7816 217.956 61.1436 217.956 63.4214C217.956 65.6992 216.065 66.383 214.099 66.383L214.089 66.378Z"
    fill="#58595B"
  />
<path
    d="M221.063 55.4871C220.068 55.4871 219.937 54.934 219.937 54.3809C219.937 53.7675 220.148 53.2898 221.063 53.2898C221.978 53.2898 222.19 53.7272 222.19 54.3809C222.19 54.9742 222.019 55.4871 221.063 55.4871ZM222.074 65.8603C222.074 66.0715 221.998 66.2223 221.732 66.2223H220.374C220.108 66.2223 219.992 66.1066 219.992 65.8603V57.2269C219.992 56.9604 220.108 56.8648 220.374 56.8648H221.732C221.998 56.8648 222.074 57.0157 222.074 57.2269V65.8603Z"
    fill="#58595B"
  />
<path
    d="M226.413 62.1192C226.469 64.05 227.157 64.583 228.726 64.583C229.415 64.583 230.486 64.4473 231.21 64.3718C231.552 64.3316 231.668 64.3316 231.728 64.6987L231.844 65.3272C231.899 65.6138 231.864 65.7646 231.517 65.9205C230.773 66.2071 229.38 66.3982 228.44 66.3982C224.789 66.3982 224.256 64.0701 224.256 61.5862C224.256 59.7308 224.598 56.6787 228.324 56.6787C231.743 56.6787 232.357 58.8961 232.412 60.9577C232.432 61.6466 232.241 62.1242 231.477 62.1242H226.413V62.1192ZM226.433 60.6862H230.215C230.215 59.5196 229.908 58.3933 228.324 58.3933C226.911 58.3933 226.529 59.2531 226.433 60.6862Z"
    fill="#58595B"
  />
</svg>
