<svg
  width="291"
  height="72"
  viewBox="0 0 291 72"
  fill="none"
  xmlns="http://www.w3.org/2000/svg"
>
<path
    d="M86.9932 27.541H86.9369H28.567V66.1905H86.9369H86.9932V27.541Z"
    fill="#003399"
  />
<path
    d="M58.3093 33.3809H60.3442L58.703 34.6449L59.3421 36.6472L57.711 35.4135L56.08 36.6472L56.7191 34.6449L55.0676 33.3809H57.0975L57.711 31.4292L58.3093 33.3809Z"
    fill="#FFED00"
  />
<path
    d="M58.3808 59.1573H60.4158L58.7796 60.3759L59.4137 62.3023L57.7826 61.1141L56.1516 62.3023L56.7958 60.3759L55.1392 59.1573H57.1691L57.7826 57.2815L58.3808 59.1573Z"
    fill="#FFED00"
  />
<path
    d="M64.8283 57.4534H66.8684L65.2271 58.6669L65.8663 60.5933L64.2301 59.4051L62.5991 60.5933L63.2433 58.6669L61.5867 57.4534H63.6165L64.2301 55.5725L64.8283 57.4534Z"
    fill="#FFED00"
  />
<path
    d="M64.8283 35.1H66.8684L65.2271 36.3185L65.8663 38.2449L64.2301 37.0567L62.5991 38.2449L63.2433 36.3185L61.5867 35.1H63.6165L64.2301 33.2241L64.8283 35.1Z"
    fill="#FFED00"
  />
<path
    d="M69.6192 39.8377H71.6491L70.0129 41.0512L70.6469 42.9776L69.0159 41.7894L67.3848 42.9776L68.0291 41.0512L66.3724 39.8377H68.4023L69.0159 37.9568L69.6192 39.8377Z"
    fill="#FFED00"
  />
<path
    d="M69.6192 52.7814H71.6491L70.0129 53.9999L70.6469 55.9263L69.0159 54.7381L67.3848 55.9263L68.0291 53.9999L66.3724 52.7814H68.4023L69.0159 50.9055L69.6192 52.7814Z"
    fill="#FFED00"
  />
<path
    d="M71.4087 46.2084H73.4488L71.8076 47.4269L72.4467 49.3533L70.8105 48.1651L69.1795 49.3533L69.8237 47.4269L68.1671 46.2084H70.197L70.8105 44.3325L71.4087 46.2084Z"
    fill="#FFED00"
  />
<path
    d="M51.7391 35.1202H53.7689L52.1328 36.3336L52.7668 38.26L51.1357 37.0718L49.5047 38.26L50.1489 36.3336L48.4974 35.1202H50.5222L51.1357 33.2393L51.7391 35.1202Z"
    fill="#FFED00"
  />
<path
    d="M47.0811 39.8528H49.1212L47.4799 41.0663L48.1139 42.9927L46.4829 41.8045L44.8518 42.9927L45.4961 41.0663L43.8395 39.8528H45.8693L46.4829 37.9719L47.0811 39.8528Z"
    fill="#FFED00"
  />
<path
    d="M45.3529 46.2286H47.3879L45.7517 47.442L46.3857 49.3685L44.7547 48.1853L43.1237 49.3685L43.7679 47.442L42.1164 46.2286H44.1411L44.7547 44.3477L45.3529 46.2286Z"
    fill="#FFED00"
  />
<path
    d="M47.0811 52.7967H49.1212L47.4799 54.0153L48.1139 55.9417L46.4829 54.7535L44.8518 55.9417L45.4961 54.0153L43.8395 52.7967H45.8693L46.4829 50.9209L47.0811 52.7967Z"
    fill="#FFED00"
  />
<path
    d="M51.8055 57.4685H53.8354L52.1992 58.682L52.8332 60.6084L51.2022 59.4202L49.5711 60.6084L50.2154 58.682L48.5639 57.4685H50.5886L51.2022 55.5876L51.8055 57.4685Z"
    fill="#FFED00"
  />
<path
    d="M95.8693 0.00505726C95.8693 0.00505726 107.869 18.9101 110.068 22.3736C112.262 25.8371 114.772 28.5826 123.653 30.4433C132.535 32.304 136.4 33.1837 136.4 33.1837V33.8562C136.4 33.8562 130.755 32.668 123.495 31.0652C116.234 29.4624 113.264 28.9214 109.956 24.3657C107.2 20.5736 95.8693 3.61517 95.8693 3.61517V0V0.00505726Z"
    fill="#6D6E70"
  />
<path
    d="M95.8693 21.5949C95.8693 21.5949 106.796 32.9157 109.956 36.1668C113.31 39.6151 117.6 40.8893 123.551 41.941C129.232 42.9421 136.395 44.1 136.395 44.1V44.7371C136.395 44.7371 129.666 43.6449 123.551 42.6135C117.553 41.5972 113.356 41.0309 109.92 37.9011C106.842 35.1 95.8693 24.9219 95.8693 24.9219V21.5898V21.5949Z"
    fill="#6D6E70"
  />
<path
    d="M95.8693 26.6967C95.8693 26.6967 106.259 36.2377 109.956 39.499C113.356 42.4973 116.112 43.4327 123.587 44.7422C131.062 46.0518 136.395 46.8658 136.395 46.8658V47.5383C136.395 47.5383 129.63 46.4411 123.551 45.4804C117.472 44.5248 113.596 44.1456 109.956 41.2282C105.758 37.8608 95.8693 29.8113 95.8693 29.8113V26.6917V26.6967Z"
    fill="#6D6E70"
  />
<path
    d="M95.8693 32.1321C95.8693 32.1321 107.737 41.4456 109.956 43.0737C112.175 44.7018 115.109 46.6029 123.623 47.8214C132.064 49.0298 136.395 49.6265 136.395 49.6265V50.3343C136.395 50.3343 128.741 49.2371 123.623 48.6001C118.505 47.963 114.583 47.69 109.991 44.6664C105.523 41.7237 95.8693 35.004 95.8693 35.004V32.1321Z"
    fill="#6D6E70"
  />
<path
    d="M95.8693 37.3601C95.8693 37.3601 107.772 45.1972 110.027 46.441C112.282 47.6798 114.931 49.7022 123.623 50.7994C132.315 51.8966 136.395 52.3921 136.395 52.3921V53.0646C136.395 53.0646 129.206 52.286 123.587 51.6843C117.973 51.0826 114.143 50.2685 109.956 47.9983C105.768 45.7331 95.8693 40.0095 95.8693 40.0095V37.3601Z"
    fill="#6D6E70"
  />
<path
    d="M95.8693 42.5883C95.8693 42.5883 106.392 48.2512 109.956 50.0158C113.928 51.9878 117.364 52.9333 123.587 53.6664C129.697 54.3844 136.395 55.0821 136.395 55.0821V55.7192C136.395 55.7192 130.203 55.0619 123.587 54.4451C117.027 53.8282 114.69 53.5451 109.956 51.467C105.722 49.6063 95.8693 45.0658 95.8693 45.0658V42.5833V42.5883Z"
    fill="#6D6E70"
  />
<path
    d="M95.8693 47.8872C95.8693 47.8872 104.183 51.4063 110.027 53.7018C115.774 55.9569 120.166 56.149 123.658 56.5383C125.197 56.7102 136.395 57.8479 136.395 57.8479V58.485C136.395 58.485 129.707 57.9541 123.623 57.4232C117.538 56.8923 114.915 56.6647 109.991 55.0518C105.006 53.4136 95.8693 50.2636 95.8693 50.2636V47.8923V47.8872Z"
    fill="#6D6E70"
  />
<path
    d="M95.8693 53.2922C95.8693 53.2922 104.265 55.8658 109.991 57.3524C115.718 58.8389 120.974 59.4456 123.623 59.6175C126.271 59.7945 136.4 60.6085 136.4 60.6085V61.2102C136.4 61.2102 130.638 60.8209 123.587 60.3254C117.886 59.9259 113.31 59.5012 109.956 58.7681C106.244 57.9591 95.8693 55.522 95.8693 55.522V53.2922Z"
    fill="#6D6E70"
  />
<path
    d="M95.8693 58.6062C95.8693 58.6062 102.736 59.7792 109.991 60.9674C115.432 61.8573 122.799 62.4186 123.587 62.454C124.374 62.4893 136.395 63.3034 136.395 63.3034V63.9405C136.395 63.9405 128.7 63.5461 123.587 63.268C118.259 62.9747 112.962 62.6562 109.956 62.3478C103.217 61.6551 95.8693 60.7349 95.8693 60.7349V58.6062Z"
    fill="#6D6E70"
  />
<path
    d="M95.8693 64.1074C95.8693 64.1074 106.699 64.5119 109.991 64.5827C113.284 64.6535 136.395 65.5737 136.395 65.5737V66.1956H95.8693V64.1074Z"
    fill="#6D6E70"
  />
<path
    d="M123.582 33.3656C113.78 31.2774 111.561 27.733 109.915 25.5386C108.268 23.3392 95.8642 5.41504 95.8642 5.41504V8.71167C96.355 9.34369 106.97 23.8347 109.95 27.6269C113.31 31.8993 118.571 32.8701 123.582 33.9319C128.587 34.9937 136.395 36.4752 136.395 36.4752V35.9089C136.395 35.9089 126.118 33.9016 123.582 33.3656Z"
    fill="#6D6E70"
  />
<path
    d="M123.582 36.2022C115.534 34.6449 112.277 32.127 109.915 29.0831C107.552 26.0343 95.8642 10.446 95.8642 10.446V14.2786C96.355 14.85 107.046 27.7534 109.915 30.9994C113.259 34.7865 117.927 35.7826 123.582 36.809C129.237 37.8354 136.39 39.1803 136.39 39.1803V38.614C136.39 38.614 128.224 37.1022 123.582 36.2073V36.2022Z"
    fill="#6D6E70"
  />
<path
    d="M123.582 39.1399C115.212 37.5321 113.494 36.2124 109.95 32.3748C107.721 29.963 96.3448 16.6804 95.8642 16.1191V19.6585C95.8642 19.6585 106.494 30.8731 109.915 34.1849C114.399 38.5332 118.607 38.8619 123.582 39.7467C128.557 40.6315 136.39 42.0473 136.39 42.0473V41.4456C136.39 41.4456 126.931 39.7871 123.582 39.145V39.1399Z"
    fill="#6D6E70"
  />
<path
    d="M0.782944 27.7788C0.782944 27.7788 28.4954 24.8563 36.2569 23.7793C48.5281 22.0805 58.57 20.2703 67.8603 6.18887C67.8603 6.18887 67.8705 5.38999 67.8603 5.03101C62.1696 13.5911 54.3211 19.431 43.5122 21.1248C32.9539 22.7833 0.777832 25.2052 0.777832 25.2052V27.7788H0.782944Z"
    fill="#6D6E70"
  />
<path
    d="M0.777832 24.2849C0.777832 24.2849 26.4604 21.1046 34.9224 19.9315C48.3082 18.081 57.7212 16.4175 67.8552 1.05681C67.8552 1.05681 67.8603 0.394453 67.8552 0.00512695C61.648 9.3439 53.9836 15.3759 42.1931 17.2265C30.6735 19.0366 0.777832 21.6759 0.777832 21.6759V24.29V24.2849Z"
    fill="#6D6E70"
  />
<path d="M26.9973 64.1326H0.793167V66.1854H26.9973V64.1326Z" fill="#6D6E70" />
<path
    d="M67.8552 22.5708C67.8552 22.5708 67.8705 21.3624 67.8654 21.1045C66.6332 22.9601 65.0124 24.6438 63.141 26.1253H64.9766C66.0094 25.0736 66.9758 23.8955 67.8501 22.5708H67.8552Z"
    fill="#6D6E70"
  />
<path
    d="M67.8552 17.11C67.8552 17.11 67.8654 16.0381 67.8603 15.7449C64.8897 20.2145 60.4669 23.7842 55.3539 26.1505L58.3706 26.1404C61.8577 24.1331 65.0993 21.2814 67.8501 17.11H67.8552Z"
    fill="#6D6E70"
  />
<path
    d="M67.8552 11.6494C67.8552 11.6494 67.8654 10.714 67.8552 10.3904C62.686 18.1718 54.6483 23.496 44.8212 25.0381C42.4948 25.4022 38.706 25.8067 34.3037 26.2162L46.3039 26.1758C54.224 24.4314 61.6378 21.0589 67.845 11.6494H67.8552Z"
    fill="#6D6E70"
  />
<path
    d="M27.0024 60.6743C13.6319 60.7451 0.793167 60.8007 0.793167 60.8007V62.9395C0.793167 62.9395 14.2403 62.8434 27.0024 62.7372V60.6743Z"
    fill="#6D6E70"
  />
<path
    d="M27.0024 57.0034C13.7239 57.15 0.788055 57.2613 0.788055 57.2613V59.4456C0.788055 59.4456 14.3733 59.2686 27.0024 59.0714V57.0034Z"
    fill="#6D6E70"
  />
<path
    d="M26.9973 53.3225C13.816 53.55 0.788055 53.722 0.788055 53.722V55.9517C0.788055 55.9517 14.5164 55.6837 26.9973 55.3905V53.3225Z"
    fill="#6D6E70"
  />
<path
    d="M27.0024 49.6213C13.9182 49.9398 0.788055 50.1774 0.788055 50.1774V52.4477C0.788055 52.4477 14.6749 52.0735 27.0024 51.6842V49.6162V49.6213Z"
    fill="#6D6E70"
  />
<path
    d="M27.0075 45.9102C14.0205 46.3197 0.788055 46.6433 0.788055 46.6433V48.959C0.788055 48.959 14.8437 48.4736 27.0075 47.9781V45.9152V45.9102Z"
    fill="#6D6E70"
  />
<path
    d="M27.0024 42.1838C14.1176 42.6995 0.788055 43.104 0.788055 43.104V45.4602C0.788055 45.4602 15.0175 44.8433 27.0024 44.2315V42.1787V42.1838Z"
    fill="#6D6E70"
  />
<path
    d="M27.0075 38.4321C14.2199 39.0591 0.782944 39.5597 0.782944 39.5597V41.9613C0.782944 41.9613 15.2016 41.1979 27.0075 40.4647V38.4321Z"
    fill="#6D6E70"
  />
<path
    d="M27.0075 34.6602C14.317 35.4085 0.782944 36.0203 0.782944 36.0203V38.4624C0.782944 38.4624 15.3959 37.5321 27.0075 36.6725V34.6602Z"
    fill="#6D6E70"
  />
<path
    d="M27.0075 30.8679C14.404 31.7477 0.782944 32.4859 0.782944 32.4859V34.9735C0.782944 34.9735 15.5902 33.8511 27.0075 32.8601V30.873V30.8679Z"
    fill="#6D6E70"
  />
<path
    d="M27.0075 27.0405C14.4807 28.0669 0.777832 28.9416 0.777832 28.9416V31.4697C0.777832 31.4697 15.7845 30.1248 27.0075 28.9922V27.0405Z"
    fill="#6D6E70"
  />
<path d="M232.084 66.2151V27.4038H228.771V66.2151H232.084Z" fill="#003399" />
<path
    d="M145.404 33.4524C145.404 33.2034 145.521 33.0662 145.79 33.0662H152.896C153.13 33.0662 153.262 33.2034 153.262 33.4321V34.6316C153.262 34.8654 153.165 34.9773 152.876 34.9773H147.605V38.3013H152.276C152.525 38.3013 152.662 38.4182 152.662 38.6469V39.8465C152.662 40.0803 152.566 40.1921 152.276 40.1921H147.605V43.9939H153.013C153.247 43.9939 153.359 44.1108 153.359 44.3599V45.5391C153.359 45.7881 153.262 45.8847 152.993 45.8847H145.79C145.521 45.8847 145.404 45.7678 145.404 45.5391V33.4474V33.4524Z"
    fill="#58595B"
  />
<path
    d="M163.092 45.8895H161.72C161.43 45.8895 161.354 45.7523 161.354 45.5235V44.9238L161.313 44.9034C160.561 45.427 159.245 46.0623 158.07 46.0623C155.463 46.0623 155.214 44.5172 155.214 42.4892V36.8118C155.214 36.578 155.311 36.4255 155.58 36.4255H156.988C157.237 36.4255 157.333 36.5628 157.333 36.8118V42.2401C157.333 43.399 157.562 44.1309 158.741 44.1309C159.57 44.1309 160.846 43.5108 161.349 43.2617V36.8118C161.349 36.578 161.425 36.4255 161.715 36.4255H163.087C163.356 36.4255 163.453 36.5628 163.453 36.8118V45.5235C163.453 45.7726 163.356 45.8895 163.087 45.8895H163.092Z"
    fill="#58595B"
  />
<path
    d="M167.997 45.5238C167.997 45.7576 167.9 45.8898 167.631 45.8898H166.238C165.969 45.8898 165.872 45.7729 165.872 45.5238V36.8121C165.872 36.563 165.969 36.4258 166.238 36.4258H167.611C167.9 36.4258 167.997 36.5783 167.997 36.8121V37.6609L168.037 37.7016C168.617 37.1628 169.989 36.5021 170.894 36.3292C171.143 36.2733 171.321 36.3292 171.356 36.6596L171.494 37.9557C171.514 38.2251 171.534 38.342 171.128 38.4182C170.045 38.6317 168.673 39.018 167.997 39.3077V45.5238Z"
    fill="#58595B"
  />
<path
    d="M176.5 46.0474C172.617 46.0474 172.368 43.2112 172.368 41.0054C172.368 39.1908 172.775 36.2378 176.5 36.2378C180.226 36.2378 180.77 38.7283 180.77 41.0054C180.77 43.2824 180.5 46.0474 176.5 46.0474ZM176.521 38.093C174.879 38.093 174.513 39.1349 174.513 41.1426C174.513 43.1502 174.879 44.1922 176.5 44.1922C178.259 44.1922 178.604 43.2062 178.604 41.1426C178.604 39.079 178.274 38.093 176.521 38.093ZM179.011 32.2022C179.225 32.3191 179.204 32.4715 179.087 32.6291L177.115 35.3331C177.019 35.4703 176.922 35.5262 176.749 35.45L175.997 35.1044C175.86 35.0281 175.804 34.9315 175.9 34.7384L177.446 31.7447C177.542 31.5516 177.695 31.5516 177.873 31.6278L179.011 32.2072V32.2022Z"
    fill="#58595B"
  />
<path
    d="M187.158 46.0622C186.523 46.0622 185.634 45.9453 184.744 45.6352L184.724 45.6556V49.0559C184.724 49.2694 184.668 49.4422 184.358 49.4422H182.986C182.676 49.4422 182.62 49.3049 182.62 49.0559V36.8117C182.62 36.5627 182.716 36.4254 182.986 36.4254H184.358C184.627 36.4254 184.704 36.5779 184.704 36.8117V37.3911L184.759 37.4318C185.456 36.9489 186.691 36.2729 187.809 36.2729C190.34 36.2729 190.996 38.184 190.996 41.1015C190.996 44.2477 190.203 46.0622 187.153 46.0622H187.158ZM187.311 38.2044C186.518 38.2044 185.303 38.7635 184.724 39.0735V43.9021C185.593 44.1511 186.289 44.2324 186.945 44.2324C188.338 44.2324 188.821 43.5158 188.821 41.0862C188.821 38.6567 188.338 38.2095 187.316 38.2095L187.311 38.2044Z"
    fill="#58595B"
  />
<path
    d="M195.891 46.0474C194.925 46.0474 193.629 45.9101 192.897 45.6204C192.511 45.4679 192.434 45.29 192.49 44.9851L192.628 44.3497C192.683 44.0397 192.821 44.0194 193.131 44.06C193.98 44.1973 195.215 44.2938 195.875 44.2938C197.11 44.2938 197.614 43.9635 197.614 43.1909C197.614 42.3014 197.283 42.1083 196.068 41.9355C194.178 41.6661 192.516 41.2595 192.516 39.1553C192.516 37.2442 193.985 36.2378 196.145 36.2378C196.938 36.2378 198.269 36.3547 199.083 36.6647C199.413 36.802 199.545 36.9545 199.489 37.2442L199.337 37.9405C199.281 38.2099 199.164 38.2505 198.813 38.2099C197.985 38.1133 196.902 37.9964 196.185 37.9964C194.95 37.9964 194.661 38.342 194.661 39.079C194.661 39.816 195.123 39.9278 196.302 40.121C198.137 40.3903 199.799 40.7563 199.799 43.0588C199.799 45.3612 197.888 46.0524 195.901 46.0524L195.891 46.0474Z"
    fill="#58595B"
  />
<path
    d="M203.789 39.9226L205.278 38.3571L206.879 36.7358C207.073 36.5426 207.21 36.4054 207.576 36.4054H209.121C209.487 36.4054 209.548 36.6189 209.334 36.8476L206.244 39.9938L209.721 45.4373C209.858 45.6711 209.741 45.8795 209.472 45.8795H207.982C207.576 45.8795 207.444 45.7423 207.306 45.5135L204.836 41.5541L203.738 42.6723V45.5085C203.738 45.7219 203.662 45.8744 203.372 45.8744H202C201.731 45.8744 201.634 45.7575 201.634 45.5085V32.629C201.634 32.3799 201.731 32.2427 202 32.2427H203.372C203.662 32.2427 203.738 32.3952 203.738 32.629V39.8921L203.794 39.9124L203.789 39.9226Z"
    fill="#58595B"
  />
<path
    d="M216.882 44.7921C215.916 45.524 214.62 46.0475 213.329 46.0475C211.281 46.0475 210.681 44.9293 210.681 43.308C210.661 41.0462 211.881 40.0805 214.31 40.0805H216.78V39.5773C216.78 38.4184 216.353 38.0118 214.773 38.0118C214.137 38.0118 212.918 38.1084 212.145 38.1846C211.759 38.2405 211.662 38.2253 211.606 37.9508L211.433 37.2342C211.393 36.9851 211.454 36.8275 211.876 36.6547C212.704 36.365 214.234 36.2278 215.139 36.2278C218.478 36.2278 218.885 37.6001 218.885 39.7602V43.4858C218.885 44.2787 218.981 44.2991 219.581 44.3753C219.871 44.3956 219.947 44.4516 219.947 44.665V45.4783C219.947 45.6917 219.81 45.8239 219.484 45.8849C219.174 45.9408 218.864 45.9814 218.575 45.9814C217.665 45.9814 217.106 45.7121 216.913 44.8023L216.872 44.7819L216.882 44.7921ZM216.765 41.5849H214.407C213.441 41.5849 212.821 41.9305 212.821 43.2063C212.821 44.0551 213.111 44.3245 214.02 44.3245C214.849 44.3245 216.028 43.8416 216.765 43.4147V41.5798V41.5849Z"
    fill="#58595B"
  />
<path
    d="M147.554 60.2534L149.043 58.6879L150.644 57.0666C150.838 56.8734 150.975 56.7362 151.341 56.7362H152.886C153.252 56.7362 153.313 56.9497 153.099 57.1784L150.009 60.3246L153.486 65.7681C153.623 66.0019 153.506 66.2103 153.237 66.2103H151.747C151.341 66.2103 151.209 66.0731 151.071 65.8444L148.601 61.8849L147.498 63.0031V65.8393C147.498 66.0527 147.422 66.2052 147.132 66.2052H145.76C145.491 66.2052 145.394 66.0883 145.394 65.8393V52.9598C145.394 52.7107 145.491 52.5735 145.76 52.5735H147.132C147.422 52.5735 147.498 52.726 147.498 52.9598V60.2229L147.554 60.2432V60.2534Z"
    fill="#58595B"
  />
<path
    d="M158.426 66.3779C154.543 66.3779 154.294 63.5418 154.294 61.3359C154.294 59.5214 154.701 56.5684 158.426 56.5684C162.152 56.5684 162.696 59.0589 162.696 61.3359C162.696 63.6129 162.426 66.3779 158.426 66.3779ZM158.446 58.4235C156.805 58.4235 156.439 59.4655 156.439 61.4731C156.439 63.4808 156.805 64.5227 158.426 64.5227C160.185 64.5227 160.53 63.5367 160.53 61.4731C160.53 59.4096 160.2 58.4235 158.446 58.4235Z"
    fill="#58595B"
  />
<path
    d="M178.071 66.2203H176.678C176.409 66.2203 176.312 66.1034 176.312 65.8543V60.3701C176.312 58.9419 175.966 58.5352 175.001 58.5352C174.284 58.5352 173.125 59.0943 172.531 59.4044C172.531 59.5975 172.551 59.9431 172.551 60.3904V65.8543C172.551 66.0881 172.475 66.2203 172.185 66.2203H170.777C170.528 66.2203 170.447 66.1034 170.447 65.8543V60.2735C170.447 59.0943 170.137 58.5352 169.171 58.5352C168.495 58.5352 167.412 59.0181 166.68 59.4044V65.8543C166.68 66.0881 166.584 66.2203 166.314 66.2203H164.927C164.678 66.2203 164.581 66.1034 164.581 65.8543V57.1426C164.581 56.8935 164.678 56.7563 164.927 56.7563H166.299C166.589 56.7563 166.685 56.9088 166.685 57.1426V57.7017L166.706 57.722C167.458 57.1985 168.52 56.6242 169.583 56.5835C170.701 56.5835 171.631 56.8173 172.231 57.9355C173.196 57.2188 174.396 56.5835 175.631 56.5835C178.177 56.5835 178.431 58.2455 178.431 60.1769V65.8543C178.431 66.0881 178.355 66.2203 178.086 66.2203H178.071Z"
    fill="#58595B"
  />
<path
    d="M181.857 55.3686C180.851 55.3686 180.719 54.8095 180.719 54.2504C180.719 53.6303 180.932 53.1475 181.857 53.1475C182.782 53.1475 182.996 53.5897 182.996 54.2504C182.996 54.8502 182.823 55.3686 181.857 55.3686ZM182.879 65.8542C182.879 66.0676 182.803 66.2201 182.533 66.2201H181.161C180.892 66.2201 180.775 66.1032 180.775 65.8542V57.1272C180.775 56.8578 180.892 56.7612 181.161 56.7612H182.533C182.803 56.7612 182.879 56.9137 182.879 57.1272V65.8542Z"
    fill="#58595B"
  />
<path
    d="M188.444 66.3779C187.479 66.3779 186.183 66.2407 185.451 65.951C185.064 65.7985 184.988 65.6206 185.044 65.3156L185.181 64.6803C185.237 64.3703 185.374 64.3499 185.684 64.3906C186.533 64.5278 187.768 64.6244 188.429 64.6244C189.664 64.6244 190.167 64.294 190.167 63.5215C190.167 62.632 189.837 62.4388 188.622 62.266C186.732 61.9967 185.069 61.59 185.069 59.4858C185.069 57.5747 186.538 56.5684 188.699 56.5684C189.491 56.5684 190.823 56.6853 191.636 56.9953C191.967 57.1325 192.099 57.285 192.043 57.5747L191.89 58.2711C191.835 58.5404 191.718 58.5811 191.367 58.5404C190.538 58.4439 189.456 58.327 188.739 58.327C187.504 58.327 187.214 58.6726 187.214 59.4096C187.214 60.1466 187.677 60.2584 188.856 60.4515C190.691 60.7209 192.353 61.0869 192.353 63.3893C192.353 65.6918 190.442 66.383 188.455 66.383L188.444 66.3779Z"
    fill="#58595B"
  />
<path
    d="M195.494 55.3686C194.488 55.3686 194.356 54.8095 194.356 54.2504C194.356 53.6303 194.569 53.1475 195.494 53.1475C196.419 53.1475 196.633 53.5897 196.633 54.2504C196.633 54.8502 196.46 55.3686 195.494 55.3686ZM196.516 65.8542C196.516 66.0676 196.44 66.2201 196.17 66.2201H194.798C194.528 66.2201 194.412 66.1032 194.412 65.8542V57.1272C194.412 56.8578 194.528 56.7612 194.798 56.7612H196.17C196.44 56.7612 196.516 56.9137 196.516 57.1272V65.8542Z"
    fill="#58595B"
  />
<path
    d="M204.877 65.1227C203.911 65.8546 202.615 66.3781 201.324 66.3781C199.276 66.3781 198.676 65.2599 198.676 63.6385C198.655 61.3767 199.875 60.411 202.305 60.411H204.775V59.9078C204.775 58.749 204.353 58.3424 202.767 58.3424C202.132 58.3424 200.912 58.4389 200.14 58.5152C199.753 58.5711 199.657 58.5558 199.601 58.2814L199.428 57.5647C199.387 57.3157 199.448 57.1581 199.87 56.9853C200.699 56.6956 202.229 56.5583 203.133 56.5583C206.473 56.5583 206.879 57.9307 206.879 60.0908V63.8164C206.879 64.6093 206.976 64.6296 207.576 64.7059C207.865 64.7262 207.942 64.7821 207.942 64.9956V65.8088C207.942 66.0223 207.804 66.1544 207.479 66.2154C207.169 66.2713 206.859 66.312 206.569 66.312C205.659 66.312 205.1 66.0426 204.907 65.1328L204.866 65.1125L204.877 65.1227ZM204.76 61.9155H202.401C201.436 61.9155 200.816 62.2611 200.816 63.5369C200.816 64.3857 201.105 64.6551 202.015 64.6551C202.844 64.6551 204.023 64.1722 204.76 63.7453V61.9104V61.9155Z"
    fill="#58595B"
  />
</svg>
