<svg
  width="291"
  height="72"
  viewBox="0 0 291 72"
  fill="none"
  xmlns="http://www.w3.org/2000/svg"
>
<path
    d="M86.9932 27.5411H86.9369H28.567V66.1905H86.9369H86.9932V27.5411Z"
    fill="#003399"
  />
<path
    d="M58.3093 33.3809H60.3442L58.703 34.645L59.3421 36.6472L57.711 35.4135L56.08 36.6472L56.7191 34.645L55.0676 33.3809H57.0975L57.711 31.4293L58.3093 33.3809Z"
    fill="#FFED00"
  />
<path
    d="M58.3808 59.1574H60.4158L58.7796 60.3759L59.4137 62.3023L57.7826 61.1141L56.1516 62.3023L56.7958 60.3759L55.1392 59.1574H57.1691L57.7826 57.2815L58.3808 59.1574Z"
    fill="#FFED00"
  />
<path
    d="M64.8283 57.4534H66.8684L65.2271 58.6669L65.8663 60.5933L64.2301 59.4051L62.5991 60.5933L63.2433 58.6669L61.5867 57.4534H63.6165L64.2301 55.5725L64.8283 57.4534Z"
    fill="#FFED00"
  />
<path
    d="M64.8283 35.1001H66.8684L65.2271 36.3186L65.8663 38.245L64.2301 37.0568L62.5991 38.245L63.2433 36.3186L61.5867 35.1001H63.6165L64.2301 33.2242L64.8283 35.1001Z"
    fill="#FFED00"
  />
<path
    d="M69.6192 39.8377H71.6491L70.0129 41.0512L70.6469 42.9776L69.0159 41.7894L67.3848 42.9776L68.0291 41.0512L66.3724 39.8377H68.4023L69.0159 37.9568L69.6192 39.8377Z"
    fill="#FFED00"
  />
<path
    d="M69.6192 52.7815H71.6491L70.0129 54.0001L70.6469 55.9265L69.0159 54.7383L67.3848 55.9265L68.0291 54.0001L66.3724 52.7815H68.4023L69.0159 50.9057L69.6192 52.7815Z"
    fill="#FFED00"
  />
<path
    d="M71.4087 46.2085H73.4488L71.8076 47.427L72.4467 49.3535L70.8105 48.1652L69.1795 49.3535L69.8237 47.427L68.1671 46.2085H70.197L70.8105 44.3327L71.4087 46.2085Z"
    fill="#FFED00"
  />
<path
    d="M51.7391 35.1203H53.7689L52.1328 36.3338L52.7668 38.2602L51.1357 37.072L49.5047 38.2602L50.1489 36.3338L48.4974 35.1203H50.5222L51.1357 33.2394L51.7391 35.1203Z"
    fill="#FFED00"
  />
<path
    d="M47.0811 39.8528H49.1212L47.4799 41.0663L48.1139 42.9927L46.4829 41.8045L44.8518 42.9927L45.4961 41.0663L43.8395 39.8528H45.8693L46.4829 37.9719L47.0811 39.8528Z"
    fill="#FFED00"
  />
<path
    d="M45.3529 46.2287H47.3879L45.7517 47.4422L46.3857 49.3686L44.7547 48.1855L43.1237 49.3686L43.7679 47.4422L42.1164 46.2287H44.1411L44.7547 44.3478L45.3529 46.2287Z"
    fill="#FFED00"
  />
<path
    d="M47.0811 52.7967H49.1212L47.4799 54.0153L48.1139 55.9417L46.4829 54.7535L44.8518 55.9417L45.4961 54.0153L43.8395 52.7967H45.8693L46.4829 50.9209L47.0811 52.7967Z"
    fill="#FFED00"
  />
<path
    d="M51.8055 57.4686H53.8354L52.1992 58.6821L52.8332 60.6085L51.2022 59.4203L49.5711 60.6085L50.2154 58.6821L48.5639 57.4686H50.5886L51.2022 55.5877L51.8055 57.4686Z"
    fill="#FFED00"
  />
<path
    d="M95.8693 0.00505726C95.8693 0.00505726 107.869 18.9101 110.068 22.3736C112.262 25.8371 114.772 28.5826 123.653 30.4433C132.535 32.304 136.4 33.1837 136.4 33.1837V33.8562C136.4 33.8562 130.755 32.668 123.495 31.0652C116.234 29.4624 113.264 28.9214 109.956 24.3657C107.2 20.5736 95.8693 3.61517 95.8693 3.61517V0V0.00505726Z"
    fill="#6D6E70"
  />
<path
    d="M95.8693 21.5949C95.8693 21.5949 106.796 32.9157 109.956 36.1668C113.31 39.6152 117.6 40.8893 123.551 41.941C129.232 42.9421 136.395 44.1 136.395 44.1V44.7371C136.395 44.7371 129.666 43.6449 123.551 42.6135C117.553 41.5972 113.356 41.0309 109.92 37.9011C106.842 35.1 95.8693 24.9219 95.8693 24.9219V21.5899V21.5949Z"
    fill="#6D6E70"
  />
<path
    d="M95.8693 26.6967C95.8693 26.6967 106.259 36.2377 109.956 39.4989C113.356 42.4972 116.112 43.4326 123.587 44.7422C131.062 46.0517 136.395 46.8658 136.395 46.8658V47.5382C136.395 47.5382 129.63 46.4411 123.551 45.4804C117.472 44.5248 113.596 44.1456 109.956 41.2281C105.758 37.8607 95.8693 29.8113 95.8693 29.8113V26.6916V26.6967Z"
    fill="#6D6E70"
  />
<path
    d="M95.8693 32.1321C95.8693 32.1321 107.737 41.4456 109.956 43.0736C112.175 44.7017 115.109 46.6029 123.623 47.8214C132.064 49.0298 136.395 49.6265 136.395 49.6265V50.3343C136.395 50.3343 128.741 49.2371 123.623 48.6001C118.505 47.963 114.583 47.6899 109.991 44.6663C105.523 41.7236 95.8693 35.004 95.8693 35.004V32.1321Z"
    fill="#6D6E70"
  />
<path
    d="M95.8693 37.3601C95.8693 37.3601 107.772 45.1972 110.027 46.441C112.282 47.6798 114.931 49.7023 123.623 50.7995C132.315 51.8967 136.395 52.3922 136.395 52.3922V53.0646C136.395 53.0646 129.206 52.286 123.587 51.6843C117.973 51.0826 114.143 50.2686 109.956 47.9983C105.768 45.7332 95.8693 40.0096 95.8693 40.0096V37.3601Z"
    fill="#6D6E70"
  />
<path
    d="M95.8693 42.5882C95.8693 42.5882 106.392 48.2511 109.956 50.0158C113.928 51.9877 117.364 52.9332 123.587 53.6663C129.697 54.3843 136.395 55.082 136.395 55.082V55.7191C136.395 55.7191 130.203 55.0618 123.587 54.445C117.027 53.8281 114.69 53.545 109.956 51.4669C105.722 49.6062 95.8693 45.0657 95.8693 45.0657V42.5832V42.5882Z"
    fill="#6D6E70"
  />
<path
    d="M95.8693 47.8871C95.8693 47.8871 104.183 51.4062 110.027 53.7017C115.774 55.9568 120.166 56.1489 123.658 56.5382C125.197 56.7101 136.395 57.8478 136.395 57.8478V58.4848C136.395 58.4848 129.707 57.9539 123.623 57.423C117.538 56.8921 114.915 56.6646 109.991 55.0517C105.006 53.4135 95.8693 50.2635 95.8693 50.2635V47.8921V47.8871Z"
    fill="#6D6E70"
  />
<path
    d="M95.8693 53.2922C95.8693 53.2922 104.265 55.8658 109.991 57.3523C115.718 58.8388 120.974 59.4455 123.623 59.6175C126.271 59.7944 136.4 60.6085 136.4 60.6085V61.2102C136.4 61.2102 130.638 60.8208 123.587 60.3253C117.886 59.9259 113.31 59.5012 109.956 58.768C106.244 57.959 95.8693 55.522 95.8693 55.522V53.2922Z"
    fill="#6D6E70"
  />
<path
    d="M95.8693 58.6062C95.8693 58.6062 102.736 59.7793 109.991 60.9675C115.432 61.8574 122.799 62.4186 123.587 62.454C124.374 62.4894 136.395 63.3034 136.395 63.3034V63.9405C136.395 63.9405 128.7 63.5461 123.587 63.268C118.259 62.9748 112.962 62.6562 109.956 62.3478C103.217 61.6551 95.8693 60.7349 95.8693 60.7349V58.6062Z"
    fill="#6D6E70"
  />
<path
    d="M95.8693 64.1074C95.8693 64.1074 106.699 64.5119 109.991 64.5826C113.284 64.6534 136.395 65.5737 136.395 65.5737V66.1956H95.8693V64.1074Z"
    fill="#6D6E70"
  />
<path
    d="M123.582 33.3657C113.78 31.2775 111.561 27.7331 109.915 25.5388C108.268 23.3393 95.8642 5.41515 95.8642 5.41515V8.71178C96.355 9.3438 106.97 23.8348 109.95 27.627C113.31 31.8994 118.571 32.8702 123.582 33.932C128.587 34.9938 136.395 36.4753 136.395 36.4753V35.909C136.395 35.909 126.118 33.9017 123.582 33.3657Z"
    fill="#6D6E70"
  />
<path
    d="M123.582 36.2023C115.534 34.645 112.277 32.127 109.915 29.0832C107.552 26.0343 95.8642 10.4461 95.8642 10.4461V14.2787C96.355 14.85 107.046 27.7534 109.915 30.9995C113.259 34.7866 117.927 35.7826 123.582 36.809C129.237 37.8354 136.39 39.1804 136.39 39.1804V38.6141C136.39 38.6141 128.224 37.1023 123.582 36.2073V36.2023Z"
    fill="#6D6E70"
  />
<path
    d="M123.582 39.1399C115.212 37.532 113.494 36.2124 109.95 32.3747C107.721 29.9629 96.3448 16.6803 95.8642 16.1191V19.6584C95.8642 19.6584 106.494 30.8731 109.915 34.1849C114.399 38.5332 118.607 38.8618 123.582 39.7467C128.557 40.6315 136.39 42.0472 136.39 42.0472V41.4455C136.39 41.4455 126.931 39.7871 123.582 39.145V39.1399Z"
    fill="#6D6E70"
  />
<path
    d="M0.782944 27.7787C0.782944 27.7787 28.4954 24.8562 36.2569 23.7792C48.5281 22.0803 58.57 20.2702 67.8603 6.18877C67.8603 6.18877 67.8705 5.38989 67.8603 5.0309C62.1696 13.591 54.3211 19.4309 43.5122 21.1247C32.9539 22.7832 0.777832 25.2051 0.777832 25.2051V27.7787H0.782944Z"
    fill="#6D6E70"
  />
<path
    d="M0.777832 24.2849C0.777832 24.2849 26.4604 21.1045 34.9224 19.9315C48.3082 18.0809 57.7212 16.4174 67.8552 1.05675C67.8552 1.05675 67.8603 0.394392 67.8552 0.00506592C61.648 9.34384 53.9836 15.3759 42.1931 17.2264C30.6735 19.0365 0.777832 21.6759 0.777832 21.6759V24.2899V24.2849Z"
    fill="#6D6E70"
  />
<path d="M26.9973 64.1326H0.793167V66.1854H26.9973V64.1326Z" fill="#6D6E70" />
<path
    d="M67.8552 22.5708C67.8552 22.5708 67.8705 21.3624 67.8654 21.1045C66.6332 22.9601 65.0124 24.6438 63.141 26.1253H64.9766C66.0094 25.0736 66.9758 23.8955 67.8501 22.5708H67.8552Z"
    fill="#6D6E70"
  />
<path
    d="M67.8552 17.1101C67.8552 17.1101 67.8654 16.0382 67.8603 15.745C64.8897 20.2146 60.4669 23.7843 55.3539 26.1506L58.3706 26.1405C61.8577 24.1332 65.0993 21.2815 67.8501 17.1101H67.8552Z"
    fill="#6D6E70"
  />
<path
    d="M67.8552 11.6495C67.8552 11.6495 67.8654 10.7141 67.8552 10.3905C62.686 18.172 54.6483 23.4961 44.8212 25.0383C42.4948 25.4023 38.706 25.8068 34.3037 26.2163L46.3039 26.1759C54.224 24.4315 61.6378 21.059 67.845 11.6495H67.8552Z"
    fill="#6D6E70"
  />
<path
    d="M27.0024 60.6742C13.6319 60.745 0.793167 60.8006 0.793167 60.8006V62.9394C0.793167 62.9394 14.2403 62.8433 27.0024 62.7371V60.6742Z"
    fill="#6D6E70"
  />
<path
    d="M27.0024 57.0034C13.7239 57.15 0.788055 57.2613 0.788055 57.2613V59.4455C0.788055 59.4455 14.3733 59.2686 27.0024 59.0714V57.0034Z"
    fill="#6D6E70"
  />
<path
    d="M26.9973 53.3225C13.816 53.55 0.788055 53.7219 0.788055 53.7219V55.9517C0.788055 55.9517 14.5164 55.6837 26.9973 55.3905V53.3225Z"
    fill="#6D6E70"
  />
<path
    d="M27.0024 49.6214C13.9182 49.9399 0.788055 50.1776 0.788055 50.1776V52.4478C0.788055 52.4478 14.6749 52.0736 27.0024 51.6843V49.6163V49.6214Z"
    fill="#6D6E70"
  />
<path
    d="M27.0075 45.9102C14.0205 46.3197 0.788055 46.6433 0.788055 46.6433V48.959C0.788055 48.959 14.8437 48.4737 27.0075 47.9782V45.9152V45.9102Z"
    fill="#6D6E70"
  />
<path
    d="M27.0024 42.1838C14.1176 42.6995 0.788055 43.104 0.788055 43.104V45.4602C0.788055 45.4602 15.0175 44.8433 27.0024 44.2315V42.1787V42.1838Z"
    fill="#6D6E70"
  />
<path
    d="M27.0075 38.4321C14.2199 39.059 0.782944 39.5596 0.782944 39.5596V41.9613C0.782944 41.9613 15.2016 41.1978 27.0075 40.4646V38.4321Z"
    fill="#6D6E70"
  />
<path
    d="M27.0075 34.6602C14.317 35.4085 0.782944 36.0203 0.782944 36.0203V38.4624C0.782944 38.4624 15.3959 37.5321 27.0075 36.6725V34.6602Z"
    fill="#6D6E70"
  />
<path
    d="M27.0075 30.868C14.404 31.7478 0.782944 32.486 0.782944 32.486V34.9736C0.782944 34.9736 15.5902 33.8512 27.0075 32.8602V30.8731V30.868Z"
    fill="#6D6E70"
  />
<path
    d="M27.0075 27.0405C14.4807 28.0669 0.777832 28.9416 0.777832 28.9416V31.4697C0.777832 31.4697 15.7845 30.1247 27.0075 28.9922V27.0405Z"
    fill="#6D6E70"
  />
<path d="M231.46 66.1963V27.3822H228.151V66.1963H231.46Z" fill="#003399" />
<path
    d="M145.394 33.4158C145.394 33.1667 145.511 33.0294 145.78 33.0294H152.886C153.12 33.0294 153.252 33.1667 153.252 33.3954V34.595C153.252 34.8288 153.156 34.9407 152.866 34.9407H147.595V38.265H152.266C152.515 38.265 152.653 38.3819 152.653 38.6106V39.8102C152.653 40.0441 152.556 40.1559 152.266 40.1559H147.595V43.958H153.003C153.237 43.958 153.349 44.0749 153.349 44.324V45.5032C153.349 45.7523 153.252 45.8489 152.983 45.8489H145.78C145.511 45.8489 145.394 45.732 145.394 45.5032V33.4158Z"
    fill="#58595B"
  />
<path
    d="M159.103 43.4762C159.123 43.3237 159.835 41.1786 159.835 41.1786L161.38 36.7005C161.457 36.487 161.533 36.3904 161.823 36.3904H163.292C163.581 36.3904 163.622 36.5277 163.525 36.7564L160.242 45.4484C160.145 45.7381 160.008 45.855 159.703 45.855H158.412C158.066 45.855 157.97 45.7381 157.873 45.4687L154.589 36.7767C154.513 36.5632 154.549 36.3904 154.803 36.3904H156.328C156.597 36.3904 156.694 36.4463 156.79 36.7361L158.336 41.2549C158.336 41.2549 158.991 43.3034 159.052 43.4762H159.108H159.103Z"
    fill="#58595B"
  />
<path
    d="M167.373 45.4828C167.373 45.7166 167.277 45.8488 167.007 45.8488H165.614C165.345 45.8488 165.248 45.7319 165.248 45.4828V36.7705C165.248 36.5214 165.345 36.3842 165.614 36.3842H166.987C167.277 36.3842 167.373 36.5367 167.373 36.7705V37.6193L167.414 37.66C167.993 37.1212 169.366 36.4604 170.27 36.2876C170.52 36.2317 170.697 36.2876 170.733 36.618L170.87 37.9142C170.891 38.1836 170.911 38.3005 170.504 38.3767C169.422 38.5902 168.049 38.9765 167.373 39.2663V45.4828Z"
    fill="#58595B"
  />
<path
    d="M175.872 46.0069C171.988 46.0069 171.739 43.1706 171.739 40.9645C171.739 39.1499 172.146 36.1966 175.872 36.1966C179.598 36.1966 180.142 38.6873 180.142 40.9645C180.142 43.2417 179.872 46.0069 175.872 46.0069ZM175.892 38.0519C174.25 38.0519 173.884 39.0939 173.884 41.1017C173.884 43.1096 174.25 44.1516 175.872 44.1516C177.631 44.1516 177.976 43.1655 177.976 41.1017C177.976 39.038 177.646 38.0519 175.892 38.0519Z"
    fill="#58595B"
  />
<path
    d="M186.531 46.0273C185.896 46.0273 185.006 45.9104 184.117 45.6003L184.097 45.6206V49.0212C184.097 49.2347 184.041 49.4075 183.731 49.4075H182.358C182.048 49.4075 181.992 49.2703 181.992 49.0212V36.7761C181.992 36.5271 182.089 36.3898 182.358 36.3898H183.731C184 36.3898 184.076 36.5423 184.076 36.7761V37.3556L184.132 37.3963C184.829 36.9134 186.064 36.2373 187.182 36.2373C189.713 36.2373 190.369 38.1485 190.369 41.0662C190.369 44.2126 189.576 46.0273 186.526 46.0273H186.531ZM186.689 38.1638C185.896 38.1638 184.681 38.7229 184.102 39.033V43.8619C184.971 44.111 185.667 44.1923 186.323 44.1923C187.716 44.1923 188.199 43.4756 188.199 41.0459C188.199 38.6162 187.716 38.1689 186.694 38.1689L186.689 38.1638Z"
    fill="#58595B"
  />
<path
    d="M195.264 46.0069C194.298 46.0069 193.002 45.8696 192.27 45.5799C191.884 45.4274 191.807 45.2495 191.863 44.9445L192 44.3091C192.056 43.9991 192.194 43.9787 192.504 44.0194C193.353 44.1567 194.588 44.2532 195.249 44.2532C196.484 44.2532 196.987 43.9228 196.987 43.1502C196.987 42.2607 196.657 42.0675 195.442 41.8947C193.551 41.6253 191.889 41.2187 191.889 39.1143C191.889 37.2031 193.358 36.1966 195.518 36.1966C196.311 36.1966 197.643 36.3135 198.456 36.6236C198.786 36.7608 198.918 36.9133 198.863 37.2031L198.71 37.8994C198.654 38.1688 198.537 38.2095 198.187 38.1688C197.358 38.0723 196.275 37.9553 195.559 37.9553C194.323 37.9553 194.034 38.301 194.034 39.038C194.034 39.7751 194.496 39.8869 195.675 40.0801C197.51 40.3495 199.173 40.7154 199.173 43.0181C199.173 45.3207 197.261 46.012 195.274 46.012L195.264 46.0069Z"
    fill="#58595B"
  />
<path
    d="M203.163 39.882L204.652 38.3164L206.253 36.6949C206.447 36.5018 206.584 36.3645 206.95 36.3645H208.495C208.861 36.3645 208.922 36.578 208.709 36.8068L205.618 39.9532L209.095 45.3971C209.232 45.6309 209.115 45.8393 208.846 45.8393H207.357C206.95 45.8393 206.818 45.7021 206.68 45.4733L204.21 41.5137L203.112 42.6319V45.4733C203.112 45.6868 203.036 45.8393 202.746 45.8393H201.374C201.104 45.8393 201.008 45.7224 201.008 45.4733V32.5929C201.008 32.3438 201.104 32.2066 201.374 32.2066H202.746C203.036 32.2066 203.112 32.3591 203.112 32.5929V39.8566L203.168 39.8769L203.163 39.882Z"
    fill="#58595B"
  />
<path
    d="M216.262 44.7516C215.296 45.4836 214 46.0072 212.709 46.0072C210.66 46.0072 210.06 44.8889 210.06 43.2674C210.04 41.0054 211.26 40.0397 213.69 40.0397H216.16V39.5364C216.16 38.3775 215.738 37.9709 214.152 37.9709C213.517 37.9709 212.297 38.0674 211.524 38.1437C211.138 38.1996 211.041 38.1844 210.986 37.9099L210.813 37.1932C210.772 36.9441 210.833 36.7865 211.255 36.6137C212.084 36.324 213.614 36.1867 214.518 36.1867C217.858 36.1867 218.264 37.5591 218.264 39.7194V43.4453C218.264 44.2383 218.361 44.2586 218.961 44.3348C219.251 44.3552 219.327 44.4111 219.327 44.6246V45.4379C219.327 45.6514 219.19 45.7835 218.864 45.8445C218.554 45.9004 218.244 45.9411 217.954 45.9411C217.045 45.9411 216.485 45.6717 216.292 44.7618L216.252 44.7415L216.262 44.7516ZM216.145 41.5442H213.786C212.821 41.5442 212.2 41.8899 212.2 43.1657C212.2 44.0146 212.49 44.284 213.4 44.284C214.229 44.284 215.408 43.8011 216.145 43.3741V41.5392V41.5442ZM217.014 32.161C217.228 32.2779 217.207 32.4304 217.09 32.5879L215.118 35.2921C215.022 35.4293 214.925 35.4853 214.752 35.409L214 35.0634C213.863 34.9871 213.807 34.8905 213.903 34.6974L215.448 31.7035C215.545 31.5103 215.698 31.5103 215.875 31.5866L217.014 32.166V32.161Z"
    fill="#58595B"
  />
<path
    d="M147.549 60.2134L149.039 58.6479L150.64 57.0264C150.833 56.8332 150.97 56.696 151.336 56.696H152.881C153.247 56.696 153.308 56.9095 153.095 57.1382L150.004 60.2846L153.481 65.7285C153.618 65.9624 153.501 66.1708 153.232 66.1708H151.743C151.336 66.1708 151.204 66.0335 151.067 65.8048L148.596 61.8451L147.498 62.9634V65.7997C147.498 66.0132 147.422 66.1657 147.132 66.1657H145.76C145.491 66.1657 145.394 66.0488 145.394 65.7997V52.9193C145.394 52.6702 145.491 52.533 145.76 52.533H147.132C147.422 52.533 147.498 52.6855 147.498 52.9193V60.1829L147.554 60.2033L147.549 60.2134Z"
    fill="#58595B"
  />
<path
    d="M158.427 66.338C154.544 66.338 154.295 63.5017 154.295 61.2957C154.295 59.481 154.701 56.5278 158.427 56.5278C162.153 56.5278 162.697 59.0185 162.697 61.2957C162.697 63.5729 162.428 66.338 158.427 66.338ZM158.442 58.3831C156.801 58.3831 156.435 59.4251 156.435 61.4329C156.435 63.4407 156.801 64.4827 158.422 64.4827C160.181 64.4827 160.527 63.4966 160.527 61.4329C160.527 59.3692 160.196 58.3831 158.442 58.3831Z"
    fill="#58595B"
  />
<path
    d="M178.068 66.1815H176.675C176.406 66.1815 176.309 66.0646 176.309 65.8155V60.3309C176.309 58.9026 175.963 58.4959 174.998 58.4959C174.281 58.4959 173.127 59.0551 172.527 59.3651C172.527 59.5583 172.548 59.9039 172.548 60.3513V65.8155C172.548 66.0493 172.471 66.1815 172.182 66.1815H170.774C170.525 66.1815 170.443 66.0646 170.443 65.8155V60.2343C170.443 59.0551 170.133 58.4959 169.167 58.4959C168.491 58.4959 167.409 58.9788 166.677 59.3651V65.8155C166.677 66.0493 166.58 66.1815 166.311 66.1815H164.918C164.669 66.1815 164.572 66.0646 164.572 65.8155V57.1032C164.572 56.8541 164.669 56.7169 164.918 56.7169H166.29C166.58 56.7169 166.677 56.8694 166.677 57.1032V57.6623L166.697 57.6827C167.449 57.1591 168.512 56.5847 169.574 56.5441C170.692 56.5441 171.623 56.7779 172.222 57.8961C173.188 57.1794 174.383 56.5441 175.623 56.5441C178.175 56.5441 178.424 58.2062 178.424 60.1378V65.8155C178.424 66.0493 178.347 66.1815 178.078 66.1815H178.068Z"
    fill="#58595B"
  />
<path
    d="M181.855 55.329C180.848 55.329 180.716 54.7699 180.716 54.2107C180.716 53.5906 180.93 53.1077 181.855 53.1077C182.78 53.1077 182.993 53.55 182.993 54.2107C182.993 54.8105 182.82 55.329 181.855 55.329ZM182.876 65.8153C182.876 66.0288 182.8 66.1813 182.531 66.1813H181.158C180.889 66.1813 180.772 66.0644 180.772 65.8153V57.0878C180.772 56.8183 180.889 56.7218 181.158 56.7218H182.531C182.8 56.7218 182.876 56.8743 182.876 57.0878V65.8153Z"
    fill="#58595B"
  />
<path
    d="M188.442 66.338C187.477 66.338 186.181 66.2008 185.449 65.9111C185.062 65.7586 184.986 65.5807 185.042 65.2757L185.179 64.6403C185.235 64.3302 185.372 64.3099 185.682 64.3506C186.531 64.4878 187.766 64.5844 188.427 64.5844C189.662 64.5844 190.166 64.254 190.166 63.4814C190.166 62.5918 189.835 62.3987 188.62 62.2259C186.729 61.9565 185.067 61.5498 185.067 59.4454C185.067 57.5342 186.536 56.5278 188.697 56.5278C189.49 56.5278 190.821 56.6447 191.635 56.9547C191.965 57.092 192.097 57.2445 192.041 57.5342L191.889 58.2306C191.833 58.5 191.716 58.5407 191.365 58.5C190.537 58.4034 189.454 58.2865 188.737 58.2865C187.502 58.2865 187.212 58.6321 187.212 59.3692C187.212 60.1062 187.675 60.2181 188.854 60.4112C190.689 60.6806 192.351 61.0466 192.351 63.3492C192.351 65.6518 190.44 66.3431 188.453 66.3431L188.442 66.338Z"
    fill="#58595B"
  />
<path
    d="M196.128 62.0337C196.184 63.9856 196.88 64.5244 198.466 64.5244C199.162 64.5244 200.245 64.3871 200.977 64.3109C201.323 64.2702 201.44 64.2702 201.501 64.6413L201.618 65.2766C201.673 65.5664 201.638 65.7189 201.287 65.8764C200.535 66.1662 199.127 66.3593 198.176 66.3593C194.486 66.3593 193.947 64.0059 193.947 61.4949C193.947 59.6192 194.293 56.5338 198.059 56.5338C201.516 56.5338 202.136 58.7754 202.192 60.8595C202.212 61.5559 202.019 62.0387 201.246 62.0387H196.128V62.0337ZM196.148 60.585H199.971C199.971 59.4057 199.661 58.2671 198.059 58.2671C196.631 58.2671 196.245 59.1363 196.148 60.585Z"
    fill="#58595B"
  />
</svg>
