<svg
  width="291"
  height="72"
  viewBox="0 0 291 72"
  fill="none"
  xmlns="http://www.w3.org/2000/svg"
>
<path
    d="M145.394 39.6959C145.394 39.4959 145.499 39.3958 145.708 39.3958H151.373C151.571 39.3958 151.671 39.4959 151.671 39.6959V40.6751C151.671 40.8647 151.566 40.9594 151.357 40.9594H147.167V43.676H150.823C151.022 43.676 151.122 43.7707 151.122 43.9603V44.9395C151.122 45.1395 151.017 45.2396 150.808 45.2396H147.183V49.5829C147.183 49.7829 147.084 49.883 146.885 49.883H145.708C145.499 49.883 145.394 49.7829 145.394 49.5829V39.6959Z"
    fill="#626366"
  />
<path
    d="M154.782 49.5829C154.782 49.7829 154.682 49.883 154.483 49.883H153.354C153.155 49.883 153.056 49.7829 153.056 49.5829V42.4599C153.056 42.2493 153.155 42.144 153.354 42.144H154.468C154.677 42.144 154.782 42.2493 154.782 42.4599V43.1548L154.813 43.1864C154.928 43.0811 155.08 42.9705 155.268 42.8547C155.456 42.7283 155.655 42.6178 155.864 42.523C156.084 42.4177 156.304 42.323 156.523 42.2387C156.743 42.1545 156.947 42.0966 157.135 42.065C157.24 42.0439 157.324 42.0492 157.386 42.0808C157.449 42.1124 157.491 42.1966 157.512 42.3335L157.622 43.3917C157.632 43.5075 157.627 43.5917 157.606 43.6444C157.585 43.697 157.491 43.7392 157.324 43.7707C157.104 43.8129 156.874 43.8655 156.633 43.9287C156.393 43.9813 156.157 44.0445 155.927 44.1182C155.697 44.1814 155.483 44.2446 155.284 44.3077C155.085 44.3709 154.918 44.4341 154.782 44.4973V49.5829Z"
    fill="#626366"
  />
<path
    d="M163.243 46.3609H161.329C160.931 46.3609 160.618 46.4557 160.387 46.6452C160.157 46.8242 160.042 47.1717 160.042 47.6876C160.042 48.0351 160.11 48.2773 160.246 48.4141C160.393 48.5405 160.649 48.6037 161.015 48.6037C161.182 48.6037 161.366 48.5826 161.564 48.5405C161.763 48.4984 161.962 48.4405 162.161 48.3668C162.359 48.2931 162.553 48.2141 162.741 48.1299C162.929 48.0351 163.097 47.9456 163.243 47.8614V46.3609ZM163.337 48.9827C162.94 49.2881 162.49 49.5355 161.988 49.725C161.496 49.9146 160.984 50.0093 160.45 50.0093C160.032 50.0093 159.681 49.9567 159.399 49.8514C159.127 49.7356 158.907 49.5829 158.74 49.3934C158.583 49.1933 158.468 48.9564 158.395 48.6826C158.332 48.4089 158.301 48.1035 158.301 47.7666C158.29 46.84 158.531 46.1714 159.022 45.7608C159.514 45.3396 160.257 45.129 161.25 45.129H163.259V44.7184C163.259 44.4867 163.233 44.2919 163.181 44.134C163.139 43.9655 163.055 43.8287 162.929 43.7234C162.804 43.6181 162.637 43.5444 162.427 43.5022C162.218 43.4601 161.951 43.4391 161.627 43.4391C161.502 43.4391 161.345 43.4443 161.156 43.4549C160.978 43.4654 160.79 43.4759 160.591 43.4865C160.403 43.497 160.21 43.5128 160.011 43.5338C159.823 43.5549 159.65 43.5707 159.493 43.5812C159.336 43.6023 159.226 43.6075 159.164 43.597C159.111 43.576 159.075 43.5075 159.054 43.3917L158.912 42.8073C158.892 42.702 158.902 42.6178 158.944 42.5546C158.986 42.4809 159.096 42.4072 159.273 42.3335C159.441 42.2703 159.64 42.2177 159.87 42.1756C160.1 42.1334 160.335 42.1019 160.576 42.0808C160.816 42.0492 161.052 42.0282 161.282 42.0176C161.522 41.9966 161.737 41.986 161.925 41.986C162.605 41.986 163.144 42.0545 163.541 42.1914C163.949 42.3282 164.258 42.523 164.467 42.7757C164.676 43.0179 164.812 43.318 164.875 43.676C164.938 44.034 164.969 44.4341 164.969 44.8763V47.9245C164.969 48.0825 164.975 48.2088 164.985 48.3036C165.006 48.3878 165.032 48.4563 165.063 48.5089C165.105 48.551 165.163 48.5826 165.236 48.6037C165.309 48.6247 165.409 48.6405 165.534 48.651C165.649 48.6616 165.728 48.6826 165.77 48.7142C165.811 48.7458 165.832 48.8037 165.832 48.888V49.5513C165.832 49.7303 165.707 49.8409 165.456 49.883C165.33 49.904 165.205 49.9198 165.079 49.9304C164.954 49.9514 164.833 49.9619 164.718 49.9619C164.352 49.9619 164.054 49.8935 163.824 49.7566C163.604 49.6197 163.452 49.367 163.369 48.9985L163.337 48.9827Z"
    fill="#626366"
  />
<path
    d="M178.198 49.5829C178.198 49.6777 178.177 49.7514 178.135 49.804C178.104 49.8566 178.03 49.883 177.915 49.883H176.785C176.587 49.883 176.487 49.7829 176.487 49.5829V45.0974C176.487 44.5078 176.409 44.1129 176.252 43.9129C176.095 43.7023 175.818 43.597 175.42 43.597C175.274 43.597 175.106 43.6233 174.918 43.676C174.74 43.7286 174.557 43.7918 174.369 43.8655C174.191 43.9287 174.019 44.0024 173.851 44.0866C173.684 44.1709 173.537 44.2446 173.412 44.3077C173.412 44.392 173.412 44.5025 173.412 44.6394C173.422 44.7763 173.428 44.9342 173.428 45.1132V49.5829C173.428 49.6777 173.407 49.7514 173.365 49.804C173.323 49.8566 173.244 49.883 173.129 49.883H171.984C171.806 49.883 171.717 49.7829 171.717 49.5829V45.0185C171.717 44.5341 171.644 44.1761 171.497 43.9445C171.351 43.7128 171.079 43.597 170.682 43.597C170.546 43.597 170.389 43.6181 170.211 43.6602C170.043 43.7023 169.866 43.7602 169.677 43.8339C169.499 43.9076 169.322 43.9866 169.144 44.0708C168.966 44.1551 168.804 44.234 168.657 44.3077V49.5829C168.657 49.7829 168.558 49.883 168.359 49.883H167.229C167.041 49.883 166.947 49.7829 166.947 49.5829V42.4599C166.947 42.2493 167.041 42.144 167.229 42.144H168.344C168.553 42.144 168.657 42.2493 168.657 42.4599V42.9179L168.673 42.9337C168.83 42.8284 168.997 42.7231 169.175 42.6178C169.353 42.502 169.541 42.4019 169.74 42.3177C169.949 42.2335 170.159 42.165 170.368 42.1124C170.577 42.0492 170.791 42.0124 171.011 42.0018C171.461 42.0018 171.869 42.0755 172.235 42.2229C172.612 42.3598 172.92 42.6546 173.161 43.1074C173.558 42.8126 173.992 42.5546 174.463 42.3335C174.934 42.1124 175.42 42.0018 175.922 42.0018C176.435 42.0018 176.843 42.0808 177.146 42.2387C177.45 42.3967 177.68 42.6125 177.837 42.8863C177.994 43.1495 178.093 43.4601 178.135 43.8181C178.177 44.1761 178.198 44.5499 178.198 44.9395V49.5829Z"
    fill="#626366"
  />
<path
    d="M181.685 45.0027L182.893 43.7234L184.195 42.3967C184.279 42.3124 184.357 42.2493 184.431 42.2072C184.504 42.1545 184.614 42.1282 184.76 42.1282H186.015C186.162 42.1282 186.245 42.165 186.266 42.2387C186.298 42.3124 186.272 42.3967 186.188 42.4914L183.677 45.0658L186.502 49.5197C186.554 49.6145 186.559 49.6987 186.517 49.7724C186.486 49.8461 186.413 49.883 186.298 49.883H185.09C184.922 49.883 184.802 49.8566 184.729 49.804C184.655 49.7514 184.593 49.6777 184.54 49.5829L182.532 46.3451L181.637 47.2612V49.5829C181.637 49.6671 181.617 49.7408 181.575 49.804C181.533 49.8566 181.454 49.883 181.339 49.883H180.225C180.027 49.883 179.927 49.7829 179.927 49.5829V39.0484C179.927 38.8378 180.027 38.7325 180.225 38.7325H181.339C181.454 38.7325 181.533 38.7641 181.575 38.8273C181.617 38.8799 181.637 38.9536 181.637 39.0484V44.9869L181.685 45.0027Z"
    fill="#626366"
  />
<path
    d="M190.603 47.9403C190.603 47.9087 190.635 47.7982 190.698 47.6087C190.76 47.4086 190.828 47.1927 190.902 46.9611C190.985 46.6873 191.085 46.3873 191.2 46.0609L192.455 42.3967C192.486 42.3124 192.523 42.2493 192.565 42.2072C192.617 42.165 192.701 42.144 192.816 42.144H194.008C194.218 42.144 194.28 42.244 194.197 42.4441L191.529 49.5513C191.487 49.6671 191.435 49.7514 191.372 49.804C191.31 49.8566 191.215 49.883 191.09 49.883H190.039C189.892 49.883 189.793 49.8619 189.74 49.8198C189.688 49.7671 189.641 49.6829 189.599 49.5671L186.932 42.4599C186.9 42.3756 186.895 42.3019 186.916 42.2387C186.937 42.1756 187 42.144 187.104 42.144H188.344C188.459 42.144 188.537 42.165 188.579 42.2072C188.632 42.2387 188.679 42.3124 188.721 42.4283L189.976 46.124C190.07 46.4294 190.159 46.7137 190.243 46.9769C190.316 47.198 190.379 47.4086 190.431 47.6087C190.494 47.7982 190.535 47.9087 190.556 47.9403H190.603Z"
    fill="#626366"
  />
<path
    d="M203.502 42.0018C204.203 42.0018 204.773 42.1071 205.212 42.3177C205.662 42.5283 206.007 42.8073 206.248 43.1548C206.499 43.4917 206.666 43.876 206.75 44.3077C206.844 44.7394 206.891 45.1764 206.891 45.6186C206.891 45.8819 206.839 46.0977 206.734 46.2662C206.63 46.4346 206.426 46.5189 206.122 46.5189H201.902C201.912 46.919 201.954 47.2507 202.027 47.5139C202.1 47.7666 202.205 47.9719 202.341 48.1299C202.487 48.2773 202.676 48.3826 202.906 48.4457C203.136 48.4984 203.418 48.5247 203.753 48.5247C203.9 48.5247 204.062 48.5194 204.24 48.5089C204.428 48.4984 204.621 48.4878 204.82 48.4773C205.019 48.4563 205.212 48.4352 205.401 48.4141C205.589 48.3931 205.756 48.372 205.903 48.351C206.018 48.3194 206.107 48.3141 206.17 48.3352C206.243 48.3457 206.295 48.4194 206.326 48.5563L206.452 49.1565C206.504 49.3881 206.405 49.546 206.154 49.6303C205.997 49.6934 205.809 49.7514 205.589 49.804C205.369 49.8461 205.139 49.883 204.899 49.9146C204.658 49.9461 204.417 49.9725 204.177 49.9935C203.947 50.0146 203.737 50.0251 203.549 50.0251C202.806 50.0251 202.21 49.9251 201.76 49.725C201.321 49.5144 200.981 49.2302 200.74 48.8722C200.657 48.9353 200.573 48.9985 200.489 49.0617C200.406 49.1143 200.311 49.1722 200.207 49.2354C199.82 49.4671 199.391 49.6566 198.92 49.804C198.449 49.9409 197.926 50.0093 197.351 50.0093C196.922 50.0093 196.567 49.9567 196.284 49.8514C196.002 49.7461 195.777 49.5934 195.609 49.3934C195.442 49.1933 195.322 48.9617 195.248 48.6984C195.186 48.4247 195.154 48.1193 195.154 47.7824C195.154 46.8979 195.395 46.2662 195.876 45.8871C196.357 45.4975 197.1 45.3027 198.104 45.3027H200.113V44.7184C200.113 44.4867 200.087 44.2919 200.034 44.134C199.992 43.9655 199.909 43.8339 199.783 43.7392C199.658 43.6339 199.49 43.5602 199.281 43.518C199.072 43.4759 198.805 43.4549 198.481 43.4549C198.355 43.4549 198.204 43.4601 198.026 43.4707C197.848 43.4812 197.66 43.4917 197.461 43.5022C197.262 43.5128 197.063 43.5286 196.865 43.5496C196.676 43.5707 196.499 43.5865 196.331 43.597C196.237 43.6075 196.148 43.6128 196.064 43.6128C195.991 43.6023 195.939 43.5286 195.907 43.3917L195.766 42.8073C195.745 42.6915 195.756 42.6073 195.798 42.5546C195.839 42.4914 195.949 42.423 196.127 42.3493C196.295 42.2861 196.493 42.2335 196.723 42.1914C196.954 42.1492 197.189 42.1124 197.43 42.0808C197.67 42.0492 197.905 42.0282 198.136 42.0176C198.376 42.0071 198.591 42.0018 198.779 42.0018C199.428 42.0018 199.94 42.0703 200.317 42.2072C200.704 42.344 201.002 42.5494 201.211 42.8231C201.462 42.5809 201.771 42.3861 202.137 42.2387C202.514 42.0808 202.969 42.0018 203.502 42.0018ZM197.869 48.6195C198.026 48.6195 198.209 48.5931 198.418 48.5405C198.638 48.4878 198.857 48.4247 199.077 48.351C199.297 48.2667 199.511 48.1772 199.72 48.0825C199.93 47.9772 200.113 47.8824 200.27 47.7982C200.217 47.5665 200.181 47.3612 200.16 47.1822C200.139 46.9927 200.123 46.7716 200.113 46.5189H198.23C197.78 46.5189 197.445 46.6084 197.226 46.7874C197.006 46.9558 196.896 47.2717 196.896 47.735C196.896 48.0404 196.964 48.2667 197.1 48.4141C197.246 48.551 197.503 48.6195 197.869 48.6195ZM205.055 45.3185C205.045 45.0974 205.019 44.8763 204.977 44.6552C204.935 44.4236 204.857 44.2182 204.742 44.0392C204.637 43.8497 204.485 43.7023 204.287 43.597C204.088 43.4812 203.821 43.4233 203.486 43.4233C203.183 43.4233 202.932 43.4707 202.733 43.5654C202.545 43.6497 202.393 43.776 202.278 43.9445C202.174 44.1024 202.095 44.3025 202.043 44.5446C201.99 44.7763 201.954 45.0343 201.933 45.3185H205.055Z"
    fill="#626366"
  />
<path
    d="M219.357 49.5829C219.357 49.6777 219.336 49.7514 219.294 49.804C219.262 49.8566 219.189 49.883 219.074 49.883H217.944C217.746 49.883 217.646 49.7829 217.646 49.5829V45.0974C217.646 44.5078 217.568 44.1129 217.411 43.9129C217.254 43.7023 216.977 43.597 216.579 43.597C216.433 43.597 216.265 43.6233 216.077 43.676C215.899 43.7286 215.716 43.7918 215.528 43.8655C215.35 43.9287 215.178 44.0024 215.01 44.0866C214.843 44.1709 214.696 44.2446 214.571 44.3077C214.571 44.392 214.571 44.5025 214.571 44.6394C214.581 44.7763 214.586 44.9342 214.586 45.1132V49.5829C214.586 49.6777 214.566 49.7514 214.524 49.804C214.482 49.8566 214.403 49.883 214.288 49.883H213.143C212.965 49.883 212.876 49.7829 212.876 49.5829V45.0185C212.876 44.5341 212.803 44.1761 212.656 43.9445C212.51 43.7128 212.238 43.597 211.84 43.597C211.705 43.597 211.548 43.6181 211.37 43.6602C211.202 43.7023 211.025 43.7602 210.836 43.8339C210.658 43.9076 210.481 43.9866 210.303 44.0708C210.125 44.1551 209.963 44.234 209.816 44.3077V49.5829C209.816 49.7829 209.717 49.883 209.518 49.883H208.388C208.2 49.883 208.106 49.7829 208.106 49.5829V42.4599C208.106 42.2493 208.2 42.144 208.388 42.144H209.502C209.712 42.144 209.816 42.2493 209.816 42.4599V42.9179L209.832 42.9337C209.989 42.8284 210.156 42.7231 210.334 42.6178C210.512 42.502 210.7 42.4019 210.899 42.3177C211.108 42.2335 211.317 42.165 211.527 42.1124C211.736 42.0492 211.95 42.0124 212.17 42.0018C212.62 42.0018 213.028 42.0755 213.394 42.2229C213.771 42.3598 214.079 42.6546 214.32 43.1074C214.717 42.8126 215.151 42.5546 215.622 42.3335C216.093 42.1124 216.579 42.0018 217.081 42.0018C217.594 42.0018 218.002 42.0808 218.305 42.2387C218.609 42.3967 218.839 42.6125 218.996 42.8863C219.153 43.1495 219.252 43.4601 219.294 43.8181C219.336 44.1761 219.357 44.5499 219.357 44.9395V49.5829Z"
    fill="#626366"
  />
<path
    d="M227.661 49.5829C227.661 49.6777 227.64 49.7514 227.598 49.804C227.567 49.8566 227.493 49.883 227.378 49.883H226.249C226.06 49.883 225.966 49.7882 225.966 49.5987V49.0933C225.956 49.0933 225.945 49.0933 225.935 49.0933C225.935 49.0827 225.929 49.0775 225.919 49.0775C225.783 49.1722 225.621 49.2775 225.433 49.3934C225.244 49.4987 225.04 49.5987 224.821 49.6934C224.601 49.7882 224.371 49.8619 224.13 49.9146C223.9 49.9777 223.67 50.0093 223.44 50.0093C222.927 50.0093 222.504 49.9198 222.169 49.7408C221.845 49.5513 221.583 49.2881 221.384 48.9511C221.196 48.6142 221.06 48.2088 220.976 47.735C220.903 47.2507 220.866 46.7084 220.866 46.1082C220.866 45.466 220.908 44.8921 220.992 44.3867C221.086 43.8708 221.248 43.4338 221.478 43.0758C221.709 42.7178 222.022 42.4493 222.42 42.2703C222.828 42.0808 223.351 41.986 223.989 41.986C224.638 41.986 225.286 42.1071 225.935 42.3493C225.945 42.3493 225.95 42.3493 225.95 42.3493C225.95 42.3388 225.956 42.3335 225.966 42.3335V39.0642C225.966 38.9589 225.982 38.8799 226.013 38.8273C226.055 38.7746 226.139 38.7483 226.264 38.7483H227.378C227.504 38.7483 227.582 38.7799 227.614 38.8431C227.645 38.8957 227.661 38.9694 227.661 39.0642V49.5829ZM225.95 43.7707C225.584 43.6655 225.255 43.597 224.962 43.5654C224.679 43.5233 224.407 43.5022 224.146 43.5022C223.863 43.5022 223.623 43.5444 223.424 43.6286C223.225 43.7128 223.068 43.855 222.953 44.055C222.838 44.2551 222.755 44.5236 222.702 44.8605C222.65 45.1869 222.624 45.5976 222.624 46.0924C222.624 46.5978 222.645 47.0085 222.687 47.3244C222.739 47.6297 222.817 47.8666 222.922 48.0351C223.027 48.193 223.152 48.3036 223.299 48.3668C223.445 48.4194 223.623 48.4457 223.832 48.4457C223.989 48.4457 224.167 48.4194 224.366 48.3668C224.564 48.3141 224.763 48.2509 224.962 48.1772C225.161 48.1035 225.344 48.0298 225.511 47.9561C225.689 47.8719 225.835 47.7982 225.95 47.735V43.7707Z"
    fill="#626366"
  />
<path
    d="M234.115 46.3609H232.2C231.803 46.3609 231.489 46.4557 231.259 46.6452C231.029 46.8242 230.913 47.1717 230.913 47.6876C230.913 48.0351 230.981 48.2773 231.117 48.4141C231.264 48.5405 231.52 48.6037 231.886 48.6037C232.054 48.6037 232.237 48.5826 232.436 48.5405C232.634 48.4984 232.833 48.4405 233.032 48.3668C233.231 48.2931 233.424 48.2141 233.612 48.1299C233.801 48.0351 233.968 47.9456 234.115 47.8614V46.3609ZM234.209 48.9827C233.811 49.2881 233.361 49.5355 232.859 49.725C232.368 49.9146 231.855 50.0093 231.321 50.0093C230.903 50.0093 230.553 49.9567 230.27 49.8514C229.998 49.7356 229.778 49.5829 229.611 49.3934C229.454 49.1933 229.339 48.9564 229.266 48.6826C229.203 48.4089 229.172 48.1035 229.172 47.7666C229.161 46.84 229.402 46.1714 229.894 45.7608C230.385 45.3396 231.128 45.129 232.122 45.129H234.13V44.7184C234.13 44.4867 234.104 44.2919 234.052 44.134C234.01 43.9655 233.926 43.8287 233.801 43.7234C233.675 43.6181 233.508 43.5444 233.299 43.5022C233.089 43.4601 232.823 43.4391 232.498 43.4391C232.373 43.4391 232.216 43.4443 232.028 43.4549C231.85 43.4654 231.661 43.4759 231.463 43.4865C231.274 43.497 231.081 43.5128 230.882 43.5338C230.694 43.5549 230.521 43.5707 230.364 43.5812C230.207 43.6023 230.098 43.6075 230.035 43.597C229.982 43.576 229.946 43.5075 229.925 43.3917L229.784 42.8073C229.763 42.702 229.773 42.6178 229.815 42.5546C229.857 42.4809 229.967 42.4072 230.145 42.3335C230.312 42.2703 230.511 42.2177 230.741 42.1756C230.971 42.1334 231.206 42.1019 231.447 42.0808C231.688 42.0492 231.923 42.0282 232.153 42.0176C232.394 41.9966 232.608 41.986 232.796 41.986C233.476 41.986 234.015 42.0545 234.413 42.1914C234.821 42.3282 235.129 42.523 235.338 42.7757C235.548 43.0179 235.684 43.318 235.746 43.676C235.809 44.034 235.841 44.4341 235.841 44.8763V47.9245C235.841 48.0825 235.846 48.2088 235.856 48.3036C235.877 48.3878 235.903 48.4563 235.935 48.5089C235.977 48.551 236.034 48.5826 236.107 48.6037C236.181 48.6247 236.28 48.6405 236.405 48.651C236.521 48.6616 236.599 48.6826 236.641 48.7142C236.683 48.7458 236.704 48.8037 236.704 48.888V49.5513C236.704 49.7303 236.578 49.8409 236.327 49.883C236.201 49.904 236.076 49.9198 235.95 49.9304C235.825 49.9514 235.705 49.9619 235.589 49.9619C235.223 49.9619 234.925 49.8935 234.695 49.7566C234.475 49.6197 234.324 49.367 234.24 48.9985L234.209 48.9827Z"
    fill="#626366"
  />
<path
    d="M243.577 47.5613C243.577 48.0246 243.488 48.4141 243.31 48.73C243.132 49.0354 242.892 49.2828 242.588 49.4723C242.296 49.6619 241.961 49.7987 241.584 49.883C241.208 49.9672 240.815 50.0093 240.407 50.0093C240.01 50.0093 239.581 49.9777 239.121 49.9146C238.66 49.8619 238.279 49.7777 237.975 49.6619C237.818 49.5987 237.719 49.5302 237.677 49.4565C237.635 49.3723 237.625 49.267 237.646 49.1407L237.756 48.6195C237.776 48.4931 237.818 48.4194 237.881 48.3983C237.944 48.3668 238.038 48.3615 238.163 48.3826C238.331 48.4141 238.514 48.4405 238.713 48.4615C238.922 48.4826 239.126 48.5036 239.325 48.5247C239.534 48.5352 239.727 48.5458 239.905 48.5563C240.093 48.5668 240.256 48.5721 240.392 48.5721C240.894 48.5721 241.255 48.5036 241.474 48.3668C241.694 48.2193 241.804 47.9877 241.804 47.6718C241.804 47.4928 241.783 47.3454 241.741 47.2296C241.71 47.1138 241.647 47.019 241.553 46.9453C241.459 46.8716 241.328 46.8137 241.16 46.7716C241.004 46.7189 240.8 46.6768 240.549 46.6452C240.161 46.5926 239.795 46.5241 239.45 46.4399C239.105 46.3557 238.796 46.2346 238.524 46.0766C238.263 45.9082 238.054 45.6923 237.897 45.4291C237.74 45.1553 237.661 44.8026 237.661 44.3709C237.661 43.5917 237.933 43.0021 238.477 42.602C239.021 42.1914 239.733 41.986 240.611 41.986C240.768 41.986 240.951 41.9913 241.16 42.0018C241.37 42.0124 241.579 42.0334 241.788 42.065C242.008 42.0966 242.222 42.1334 242.431 42.1756C242.641 42.2177 242.829 42.2703 242.996 42.3335C243.258 42.4388 243.368 42.5967 243.326 42.8073L243.2 43.3759C243.179 43.4917 243.138 43.5654 243.075 43.597C243.023 43.6181 242.923 43.6181 242.777 43.597C242.442 43.5549 242.076 43.518 241.678 43.4865C241.281 43.4443 240.936 43.4233 240.643 43.4233C240.141 43.4233 239.806 43.497 239.638 43.6444C239.482 43.7813 239.403 44.0024 239.403 44.3077C239.403 44.6131 239.502 44.8131 239.701 44.9079C239.91 45.0027 240.256 45.0869 240.737 45.1606C241.113 45.2133 241.469 45.2817 241.804 45.3659C242.149 45.4502 242.452 45.5765 242.714 45.745C242.975 45.9134 243.185 46.1398 243.342 46.4241C243.499 46.7084 243.577 47.0875 243.577 47.5613Z"
    fill="#626366"
  />
<path
    d="M249.822 49.2828C249.853 49.4618 249.785 49.5934 249.618 49.6777C249.482 49.7408 249.32 49.7935 249.131 49.8356C248.954 49.8777 248.765 49.9093 248.567 49.9304C248.378 49.9619 248.195 49.983 248.017 49.9935C247.85 50.0041 247.704 50.0093 247.578 50.0093C247.118 50.0093 246.757 49.9461 246.495 49.8198C246.244 49.6829 246.056 49.4987 245.93 49.267C245.805 49.0354 245.726 48.7669 245.695 48.4615C245.664 48.1562 245.648 47.835 245.648 47.4981V43.5338H244.863C244.748 43.5338 244.67 43.5128 244.628 43.4707C244.586 43.418 244.565 43.339 244.565 43.2338V42.4599C244.565 42.3546 244.586 42.2756 244.628 42.2229C244.67 42.1703 244.748 42.144 244.863 42.144H245.664V40.5172C245.664 40.4014 245.69 40.3224 245.742 40.2803C245.805 40.2277 245.878 40.1908 245.962 40.1697L247.013 39.8855C247.222 39.8328 247.327 39.896 247.327 40.075V42.144H249.006C249.131 42.144 249.21 42.1703 249.241 42.2229C249.283 42.2756 249.304 42.3493 249.304 42.4441V43.2338C249.304 43.339 249.283 43.418 249.241 43.4707C249.21 43.5128 249.131 43.5338 249.006 43.5338H247.327V47.4665C247.327 47.6771 247.343 47.8403 247.374 47.9561C247.405 48.0719 247.458 48.1614 247.531 48.2246C247.615 48.2773 247.724 48.3088 247.86 48.3194C247.996 48.3299 248.169 48.3352 248.378 48.3352C248.493 48.3352 248.655 48.3299 248.865 48.3194C249.084 48.3088 249.273 48.2931 249.43 48.272C249.513 48.2615 249.576 48.272 249.618 48.3036C249.66 48.3352 249.691 48.3983 249.712 48.4931L249.822 49.2828Z"
    fill="#626366"
  />
<path
    d="M252.871 50.0567C252.871 50.5726 252.814 51.0254 252.698 51.415C252.583 51.8151 252.385 52.1468 252.102 52.41C251.83 52.6838 251.469 52.8838 251.02 53.0102C250.58 53.1365 250.031 53.1892 249.372 53.1681C249.32 53.1681 249.252 53.147 249.168 53.1049C249.084 53.0628 249.037 52.9786 249.027 52.8522L248.964 52.1099C248.943 51.9836 248.953 51.8993 248.995 51.8572C249.027 51.8151 249.1 51.7835 249.215 51.7624C249.581 51.6887 249.885 51.615 250.125 51.5413C250.376 51.4782 250.575 51.3887 250.721 51.2728C250.878 51.157 250.988 51.0043 251.051 50.8148C251.114 50.6358 251.145 50.3936 251.145 50.0883V42.4441C251.145 42.244 251.25 42.144 251.459 42.144H252.557C252.766 42.144 252.871 42.244 252.871 42.4441V50.0567ZM252.934 40.0908C252.934 40.2171 252.923 40.3382 252.902 40.454C252.882 40.5593 252.834 40.6541 252.761 40.7383C252.698 40.8226 252.604 40.891 252.479 40.9436C252.364 40.9858 252.207 41.0068 252.008 41.0068C251.799 41.0068 251.631 40.9805 251.506 40.9278C251.391 40.8752 251.302 40.8068 251.239 40.7225C251.176 40.6383 251.135 40.5435 251.114 40.4382C251.093 40.3224 251.082 40.2066 251.082 40.0908C251.082 39.8381 251.145 39.6275 251.271 39.459C251.396 39.28 251.642 39.1905 252.008 39.1905C252.395 39.1905 252.646 39.2748 252.761 39.4432C252.876 39.6012 252.934 39.817 252.934 40.0908Z"
    fill="#626366"
  />
<path
    d="M261.497 45.8871C261.497 46.3399 261.465 46.8084 261.402 47.2928C261.35 47.7771 261.209 48.2246 260.979 48.6353C260.749 49.0354 260.403 49.367 259.943 49.6303C259.483 49.883 258.845 50.0093 258.029 50.0093C257.244 50.0093 256.627 49.883 256.177 49.6303C255.727 49.367 255.387 49.0354 255.157 48.6353C254.938 48.2246 254.802 47.7771 254.749 47.2928C254.697 46.8084 254.671 46.3399 254.671 45.8871C254.671 45.5186 254.702 45.108 254.765 44.6552C254.838 44.2024 254.99 43.7813 255.22 43.3917C255.45 42.9916 255.785 42.6599 256.224 42.3967C256.674 42.1229 257.276 41.986 258.029 41.986C258.792 41.986 259.399 42.1019 259.849 42.3335C260.309 42.5651 260.66 42.8705 260.9 43.2495C261.141 43.6181 261.298 44.034 261.371 44.4973C261.455 44.9605 261.497 45.4238 261.497 45.8871ZM259.739 45.9977C259.739 45.5765 259.718 45.2133 259.676 44.9079C259.634 44.592 259.551 44.3341 259.425 44.134C259.3 43.9234 259.127 43.7655 258.907 43.6602C258.688 43.5549 258.4 43.5022 258.044 43.5022C257.71 43.5022 257.438 43.5549 257.228 43.6602C257.019 43.7655 256.852 43.9234 256.726 44.134C256.611 44.3446 256.528 44.6078 256.475 44.9237C256.433 45.229 256.413 45.587 256.413 45.9977C256.413 46.4188 256.433 46.7874 256.475 47.1032C256.528 47.4086 256.611 47.6666 256.726 47.8771C256.841 48.0772 257.004 48.2299 257.213 48.3352C257.422 48.4405 257.694 48.4931 258.029 48.4931C258.384 48.4931 258.672 48.4457 258.892 48.351C259.122 48.2457 259.3 48.093 259.425 47.8929C259.551 47.6824 259.634 47.4191 259.676 47.1032C259.718 46.7874 259.739 46.4188 259.739 45.9977ZM260.069 38.6851C260.226 38.7694 260.246 38.8852 260.131 39.0326L258.531 41.2437C258.447 41.3595 258.348 41.3911 258.233 41.3385L257.621 41.0542C257.506 40.991 257.48 40.891 257.542 40.7541L258.798 38.3061C258.86 38.1692 258.975 38.1376 259.143 38.2113L260.069 38.6851Z"
    fill="#626366"
  />
<path
    d="M265.05 49.5829C265.05 49.7829 264.95 49.883 264.751 49.883H263.622C263.423 49.883 263.324 49.7829 263.324 49.5829V42.4599C263.324 42.2493 263.423 42.144 263.622 42.144H264.736C264.945 42.144 265.05 42.2493 265.05 42.4599V43.1548L265.081 43.1864C265.196 43.0811 265.348 42.9705 265.536 42.8547C265.724 42.7283 265.923 42.6178 266.132 42.523C266.352 42.4177 266.572 42.323 266.791 42.2387C267.011 42.1545 267.215 42.0966 267.403 42.065C267.508 42.0439 267.592 42.0492 267.654 42.0808C267.717 42.1124 267.759 42.1966 267.78 42.3335L267.89 43.3917C267.9 43.5075 267.895 43.5917 267.874 43.6444C267.853 43.697 267.759 43.7392 267.592 43.7707C267.372 43.8129 267.142 43.8655 266.901 43.9287C266.661 43.9813 266.425 44.0445 266.195 44.1182C265.965 44.1814 265.75 44.2446 265.552 44.3077C265.353 44.3709 265.186 44.4341 265.05 44.4973V49.5829Z"
    fill="#626366"
  />
<path
    d="M275.394 49.5829C275.394 49.6777 275.373 49.7514 275.331 49.804C275.29 49.8566 275.211 49.883 275.096 49.883H273.966C273.768 49.883 273.668 49.7829 273.668 49.5829L273.684 45.1448C273.684 44.6815 273.605 44.3077 273.448 44.0234C273.302 43.7392 273.004 43.597 272.554 43.597C272.397 43.597 272.214 43.6233 272.005 43.676C271.806 43.7286 271.602 43.7971 271.393 43.8813C271.194 43.955 271.006 44.034 270.828 44.1182C270.65 44.1919 270.509 44.2551 270.404 44.3077V49.5829C270.404 49.7829 270.305 49.883 270.106 49.883H268.992C268.793 49.883 268.694 49.7829 268.694 49.5829V42.4599C268.694 42.2493 268.793 42.144 268.992 42.144H270.106C270.305 42.144 270.404 42.2493 270.404 42.4599V42.9337C270.415 42.9337 270.42 42.9389 270.42 42.9495C270.431 42.9495 270.441 42.9495 270.451 42.9495C270.598 42.8442 270.771 42.7389 270.969 42.6336C271.178 42.5178 271.398 42.4125 271.628 42.3177C271.858 42.2229 272.099 42.1492 272.35 42.0966C272.601 42.0334 272.847 42.0018 273.088 42.0018C273.621 42.0018 274.04 42.0861 274.343 42.2545C274.646 42.4125 274.876 42.6283 275.033 42.9021C275.19 43.1758 275.29 43.497 275.331 43.8655C275.373 44.2235 275.394 44.6026 275.394 45.0027V49.5829Z"
    fill="#626366"
  />
<path
    d="M145.394 55.7521C145.394 55.536 145.499 55.4279 145.71 55.4279H151.511C151.711 55.4279 151.811 55.5306 151.811 55.7359V56.7408C151.811 56.9353 151.706 57.0326 151.496 57.0326H147.192V59.8204H151.007C151.217 59.8204 151.322 59.9177 151.322 60.1122V61.1171C151.322 61.3116 151.217 61.4088 151.007 61.4088H147.192V64.6019H151.606C151.795 64.6019 151.89 64.7045 151.89 64.9098V65.8985C151.89 66.093 151.79 66.1903 151.59 66.1903H145.71C145.499 66.1903 145.394 66.093 145.394 65.8985V55.7521Z"
    fill="#626366"
  />
<path
    d="M156.593 64.1966C156.593 64.1642 156.625 64.0508 156.688 63.8563C156.751 63.651 156.819 63.4295 156.893 63.1917C156.977 62.9108 157.076 62.6028 157.192 62.2679L158.453 58.5075C158.485 58.4211 158.522 58.3562 158.564 58.313C158.616 58.2698 158.7 58.2482 158.816 58.2482H160.014C160.224 58.2482 160.287 58.3508 160.203 58.5562L157.523 65.8499C157.481 65.9688 157.429 66.0552 157.366 66.1092C157.302 66.1633 157.208 66.1903 157.082 66.1903H156.025C155.878 66.1903 155.778 66.1687 155.726 66.1254C155.673 66.0714 155.626 65.985 155.584 65.8661L152.904 58.5724C152.872 58.4859 152.867 58.4103 152.888 58.3454C152.909 58.2806 152.972 58.2482 153.077 58.2482H154.323C154.438 58.2482 154.517 58.2698 154.559 58.313C154.612 58.3454 154.659 58.4211 154.701 58.5399L155.962 62.3327C156.057 62.6461 156.146 62.9378 156.23 63.2079C156.304 63.4349 156.367 63.651 156.42 63.8563C156.483 64.0508 156.525 64.1642 156.546 64.1966H156.593Z"
    fill="#626366"
  />
<path
    d="M163.341 65.8823C163.341 66.0876 163.241 66.1903 163.042 66.1903H161.906C161.707 66.1903 161.607 66.0876 161.607 65.8823V58.5724C161.607 58.3562 161.707 58.2482 161.906 58.2482H163.026C163.236 58.2482 163.341 58.3562 163.341 58.5724V59.2855L163.373 59.3179C163.488 59.2099 163.641 59.0964 163.83 58.9776C164.019 58.8479 164.219 58.7344 164.429 58.6372C164.65 58.5291 164.87 58.4319 165.091 58.3454C165.312 58.259 165.517 58.1996 165.706 58.1672C165.811 58.1455 165.895 58.1509 165.958 58.1834C166.021 58.2158 166.063 58.3022 166.084 58.4427L166.195 59.5287C166.205 59.6475 166.2 59.734 166.179 59.788C166.158 59.842 166.063 59.8852 165.895 59.9177C165.674 59.9609 165.443 60.0149 165.202 60.0797C164.96 60.1338 164.723 60.1986 164.492 60.2742C164.261 60.3391 164.045 60.4039 163.846 60.4687C163.646 60.5336 163.478 60.5984 163.341 60.6632V65.8823Z"
    fill="#626366"
  />
<path
    d="M173.766 62.0896C173.766 62.5542 173.735 63.0351 173.672 63.5321C173.619 64.0292 173.477 64.4884 173.246 64.9098C173.015 65.3204 172.668 65.6608 172.206 65.9309C171.743 66.1903 171.102 66.3199 170.282 66.3199C169.494 66.3199 168.874 66.1903 168.422 65.9309C167.97 65.6608 167.628 65.3204 167.397 64.9098C167.176 64.4884 167.04 64.0292 166.987 63.5321C166.935 63.0351 166.908 62.5542 166.908 62.0896C166.908 61.7114 166.94 61.29 167.003 60.8253C167.076 60.3607 167.229 59.9285 167.46 59.5287C167.691 59.118 168.028 58.7777 168.469 58.5075C168.921 58.2266 169.525 58.0861 170.282 58.0861C171.049 58.0861 171.659 58.205 172.111 58.4427C172.573 58.6804 172.926 58.9938 173.167 59.3828C173.409 59.761 173.567 60.1878 173.64 60.6632C173.724 61.1387 173.766 61.6141 173.766 62.0896ZM172.001 62.203C172.001 61.7708 171.98 61.398 171.938 61.0847C171.896 60.7605 171.811 60.4957 171.685 60.2904C171.559 60.0743 171.386 59.9122 171.165 59.8042C170.944 59.6961 170.655 59.6421 170.298 59.6421C169.962 59.6421 169.688 59.6961 169.478 59.8042C169.268 59.9122 169.1 60.0743 168.974 60.2904C168.858 60.5066 168.774 60.7767 168.721 61.1009C168.679 61.4142 168.658 61.7816 168.658 62.203C168.658 62.6352 168.679 63.0134 168.721 63.3376C168.774 63.651 168.858 63.9157 168.974 64.1318C169.089 64.3371 169.252 64.4938 169.462 64.6019C169.673 64.7099 169.946 64.7639 170.282 64.7639C170.64 64.7639 170.929 64.7153 171.149 64.6181C171.381 64.51 171.559 64.3533 171.685 64.148C171.811 63.9319 171.896 63.6618 171.938 63.3376C171.98 63.0134 172.001 62.6352 172.001 62.203ZM172.332 54.6986C172.489 54.785 172.51 54.9039 172.395 55.0552L170.787 57.3243C170.703 57.4432 170.603 57.4756 170.487 57.4216L169.872 57.1298C169.757 57.065 169.73 56.9623 169.793 56.8219L171.055 54.3096C171.118 54.1691 171.233 54.1367 171.402 54.2123L172.332 54.6986Z"
    fill="#626366"
  />
<path
    d="M182.129 62.1706C182.129 62.8297 182.082 63.4186 181.987 63.9373C181.893 64.456 181.725 64.8936 181.483 65.2502C181.252 65.6068 180.931 65.8769 180.521 66.0606C180.122 66.2443 179.612 66.3361 178.992 66.3361C178.729 66.3361 178.424 66.3091 178.077 66.2551C177.741 66.2011 177.389 66.1092 177.021 65.9796L177.005 65.9958V68.8484C177.005 68.9349 176.984 69.0105 176.942 69.0754C176.911 69.1402 176.832 69.1726 176.706 69.1726H175.586C175.46 69.1726 175.376 69.1456 175.334 69.0916C175.303 69.0375 175.287 68.9565 175.287 68.8484V58.5724C175.287 58.3562 175.387 58.2482 175.586 58.2482H176.706C176.821 58.2482 176.895 58.2806 176.926 58.3454C176.969 58.3995 176.99 58.4751 176.99 58.5724V59.0586L177.037 59.091C177.173 58.9938 177.336 58.8911 177.526 58.7831C177.725 58.6642 177.935 58.5562 178.156 58.4589C178.377 58.3617 178.603 58.2806 178.834 58.2158C179.065 58.1509 179.297 58.1185 179.528 58.1185C180.043 58.1185 180.469 58.2158 180.805 58.4103C181.141 58.6048 181.404 58.8803 181.593 59.2369C181.793 59.5827 181.93 60.0041 182.003 60.5012C182.087 60.9982 182.129 61.5547 182.129 62.1706ZM180.348 62.1544C180.348 61.6357 180.321 61.2197 180.269 60.9064C180.227 60.593 180.153 60.3499 180.048 60.177C179.943 60.0041 179.812 59.8906 179.654 59.8366C179.507 59.7718 179.328 59.7394 179.118 59.7394C178.96 59.7394 178.782 59.7664 178.582 59.8204C178.382 59.8744 178.182 59.9393 177.983 60.0149C177.794 60.0797 177.61 60.1554 177.431 60.2418C177.263 60.3283 177.121 60.4039 177.005 60.4687V64.5208C177.363 64.6289 177.683 64.7045 177.967 64.7477C178.261 64.7801 178.545 64.7964 178.818 64.7964C179.102 64.7964 179.339 64.7585 179.528 64.6829C179.728 64.5965 179.885 64.4506 180.001 64.2453C180.127 64.04 180.216 63.7698 180.269 63.4349C180.321 63.0891 180.348 62.6623 180.348 62.1544Z"
    fill="#626366"
  />
<path
    d="M190.225 65.8823C190.225 66.0876 190.125 66.1903 189.925 66.1903H188.806C188.69 66.1903 188.611 66.1633 188.569 66.1092C188.527 66.0552 188.506 65.9796 188.506 65.8823V65.3799L188.475 65.3636C188.317 65.4717 188.133 65.5852 187.923 65.704C187.723 65.8121 187.508 65.9147 187.277 66.012C187.045 66.1092 186.804 66.1849 186.551 66.2389C186.31 66.3037 186.068 66.3361 185.826 66.3361C185.29 66.3361 184.864 66.2605 184.549 66.1092C184.244 65.958 184.013 65.7472 183.855 65.4771C183.698 65.207 183.598 64.8882 183.556 64.5208C183.514 64.1534 183.493 63.759 183.493 63.3376V58.5724C183.493 58.3562 183.593 58.2482 183.792 58.2482H184.943C185.132 58.2482 185.227 58.3562 185.227 58.5724V63.1269C185.227 63.3754 185.243 63.5969 185.274 63.7914C185.306 63.9859 185.364 64.1534 185.448 64.2939C185.532 64.4236 185.647 64.5262 185.795 64.6019C185.942 64.6775 186.136 64.7153 186.378 64.7153C186.546 64.7153 186.73 64.6883 186.93 64.6343C187.14 64.5802 187.345 64.5154 187.545 64.4398C187.744 64.3533 187.928 64.2723 188.096 64.1966C188.265 64.1102 188.401 64.04 188.506 63.9859V58.5724C188.506 58.4751 188.527 58.3995 188.569 58.3454C188.611 58.2806 188.69 58.2482 188.806 58.2482H189.925C190.125 58.2482 190.225 58.3562 190.225 58.5724V65.8823Z"
    fill="#626366"
  />
<path
    d="M197.686 63.8077C197.686 64.2831 197.597 64.6829 197.418 65.0071C197.239 65.3204 196.997 65.5744 196.693 65.7689C196.398 65.9634 196.062 66.1038 195.684 66.1903C195.305 66.2767 194.911 66.3199 194.501 66.3199C194.102 66.3199 193.671 66.2875 193.208 66.2227C192.746 66.1687 192.362 66.0822 192.057 65.9634C191.9 65.8985 191.8 65.8283 191.758 65.7526C191.716 65.6662 191.705 65.5581 191.726 65.4285L191.837 64.8936C191.858 64.7639 191.9 64.6883 191.963 64.6667C192.026 64.6343 192.121 64.6289 192.247 64.6505C192.415 64.6829 192.599 64.7099 192.798 64.7315C193.009 64.7531 193.214 64.7747 193.413 64.7964C193.624 64.8072 193.818 64.818 193.997 64.8288C194.186 64.8396 194.349 64.845 194.485 64.845C194.99 64.845 195.353 64.7747 195.573 64.6343C195.794 64.483 195.904 64.2453 195.904 63.9211C195.904 63.7374 195.883 63.5861 195.841 63.4673C195.81 63.3484 195.747 63.2512 195.652 63.1755C195.558 63.0999 195.426 63.0405 195.258 62.9972C195.1 62.9432 194.895 62.9 194.643 62.8676C194.254 62.8135 193.886 62.7433 193.539 62.6569C193.193 62.5704 192.883 62.4461 192.609 62.2841C192.347 62.1112 192.136 61.8897 191.979 61.6195C191.821 61.3386 191.742 60.9766 191.742 60.5336C191.742 59.734 192.015 59.1288 192.562 58.7182C193.109 58.2968 193.823 58.0861 194.706 58.0861C194.864 58.0861 195.048 58.0915 195.258 58.1023C195.468 58.1131 195.678 58.1347 195.889 58.1672C196.109 58.1996 196.325 58.2374 196.535 58.2806C196.745 58.3238 196.934 58.3779 197.103 58.4427C197.365 58.5507 197.476 58.7128 197.434 58.9289L197.308 59.5124C197.287 59.6313 197.244 59.7069 197.181 59.7394C197.129 59.761 197.029 59.761 196.882 59.7394C196.546 59.6961 196.178 59.6583 195.778 59.6259C195.379 59.5827 195.032 59.5611 194.738 59.5611C194.233 59.5611 193.897 59.6367 193.729 59.788C193.571 59.9285 193.492 60.1554 193.492 60.4687C193.492 60.7821 193.592 60.9874 193.792 61.0847C194.002 61.1819 194.349 61.2683 194.832 61.344C195.211 61.398 195.568 61.4682 195.904 61.5547C196.251 61.6411 196.556 61.7708 196.819 61.9437C197.082 62.1166 197.292 62.3489 197.449 62.6406C197.607 62.9324 197.686 63.3214 197.686 63.8077Z"
    fill="#626366"
  />
<path
    d="M203.929 62.5758H202.005C201.606 62.5758 201.291 62.6731 201.06 62.8676C200.828 63.0513 200.713 63.4078 200.713 63.9373C200.713 64.2939 200.781 64.5424 200.918 64.6829C201.065 64.8126 201.322 64.8774 201.69 64.8774C201.858 64.8774 202.042 64.8558 202.242 64.8126C202.442 64.7693 202.641 64.7099 202.841 64.6343C203.041 64.5586 203.235 64.4776 203.424 64.3911C203.614 64.2939 203.782 64.2021 203.929 64.1156V62.5758ZM204.024 65.2664C203.624 65.5798 203.172 65.8337 202.668 66.0282C202.174 66.2227 201.659 66.3199 201.123 66.3199C200.702 66.3199 200.35 66.2659 200.066 66.1579C199.793 66.039 199.572 65.8823 199.404 65.6878C199.246 65.4825 199.131 65.2394 199.057 64.9584C198.994 64.6775 198.963 64.3641 198.963 64.0184C198.952 63.0675 199.194 62.3813 199.688 61.9599C200.182 61.5277 200.928 61.3116 201.927 61.3116H203.945V60.8901C203.945 60.6524 203.918 60.4525 203.866 60.2904C203.824 60.1176 203.74 59.9771 203.614 59.869C203.487 59.761 203.319 59.6853 203.109 59.6421C202.899 59.5989 202.631 59.5773 202.305 59.5773C202.179 59.5773 202.021 59.5827 201.832 59.5935C201.653 59.6043 201.464 59.6151 201.265 59.6259C201.075 59.6367 200.881 59.6529 200.681 59.6745C200.492 59.6961 200.319 59.7123 200.161 59.7232C200.003 59.7448 199.893 59.7502 199.83 59.7394C199.777 59.7177 199.74 59.6475 199.719 59.5287L199.578 58.9289C199.557 58.8209 199.567 58.7344 199.609 58.6696C199.651 58.594 199.761 58.5183 199.94 58.4427C200.108 58.3779 200.308 58.3238 200.539 58.2806C200.771 58.2374 201.007 58.205 201.249 58.1834C201.49 58.1509 201.727 58.1293 201.958 58.1185C202.2 58.0969 202.415 58.0861 202.605 58.0861C203.288 58.0861 203.829 58.1563 204.228 58.2968C204.638 58.4373 204.948 58.6372 205.159 58.8965C205.369 59.1451 205.506 59.453 205.569 59.8204C205.632 60.1878 205.663 60.5984 205.663 61.0522V64.1804C205.663 64.3425 205.668 64.4722 205.679 64.5694C205.7 64.6559 205.726 64.7261 205.758 64.7801C205.8 64.8234 205.858 64.8558 205.931 64.8774C206.005 64.899 206.105 64.9152 206.231 64.926C206.346 64.9368 206.425 64.9584 206.467 64.9909C206.509 65.0233 206.53 65.0827 206.53 65.1691V65.8499C206.53 66.0336 206.404 66.1471 206.152 66.1903C206.026 66.2119 205.9 66.2281 205.774 66.2389C205.647 66.2605 205.527 66.2713 205.411 66.2713C205.043 66.2713 204.743 66.2011 204.512 66.0606C204.292 65.9201 204.139 65.6608 204.055 65.2826L204.024 65.2664Z"
    fill="#626366"
  />
<path
    d="M218.954 65.8823C218.954 65.9796 218.933 66.0552 218.891 66.1092C218.86 66.1633 218.786 66.1903 218.671 66.1903H217.535C217.336 66.1903 217.236 66.0876 217.236 65.8823V61.2792C217.236 60.674 217.157 60.2688 216.999 60.0635C216.842 59.8474 216.563 59.7394 216.164 59.7394C216.017 59.7394 215.849 59.7664 215.659 59.8204C215.481 59.8744 215.297 59.9393 215.108 60.0149C214.929 60.0797 214.755 60.1554 214.587 60.2418C214.419 60.3283 214.272 60.4039 214.146 60.4687C214.146 60.5552 214.146 60.6686 214.146 60.8091C214.156 60.9496 214.162 61.1117 214.162 61.2954V65.8823C214.162 65.9796 214.141 66.0552 214.099 66.1092C214.056 66.1633 213.978 66.1903 213.862 66.1903H212.711C212.532 66.1903 212.443 66.0876 212.443 65.8823V61.1981C212.443 60.7011 212.37 60.3337 212.222 60.0959C212.075 59.8582 211.802 59.7394 211.403 59.7394C211.266 59.7394 211.108 59.761 210.93 59.8042C210.761 59.8474 210.583 59.9068 210.394 59.9825C210.215 60.0581 210.036 60.1392 209.857 60.2256C209.679 60.3121 209.516 60.3931 209.369 60.4687V65.8823C209.369 66.0876 209.269 66.1903 209.069 66.1903H207.934C207.745 66.1903 207.65 66.0876 207.65 65.8823V58.5724C207.65 58.3562 207.745 58.2482 207.934 58.2482H209.053C209.264 58.2482 209.369 58.3562 209.369 58.5724V59.0424L209.385 59.0586C209.542 58.9506 209.71 58.8425 209.889 58.7344C210.068 58.6156 210.257 58.5129 210.457 58.4265C210.667 58.34 210.877 58.2698 211.087 58.2158C211.297 58.1509 211.513 58.1131 211.734 58.1023C212.186 58.1023 212.596 58.178 212.963 58.3292C213.342 58.4697 213.652 58.7723 213.894 59.2369C214.293 58.9343 214.729 58.6696 215.202 58.4427C215.675 58.2158 216.164 58.1023 216.668 58.1023C217.183 58.1023 217.593 58.1834 217.898 58.3454C218.203 58.5075 218.434 58.729 218.592 59.01C218.749 59.2801 218.849 59.5989 218.891 59.9663C218.933 60.3337 218.954 60.7173 218.954 61.1171V65.8823Z"
    fill="#626366"
  />
<path
    d="M227.44 62.1544C227.44 62.8135 227.387 63.4024 227.282 63.9211C227.188 64.4398 227.014 64.8774 226.762 65.234C226.51 65.5906 226.163 65.8661 225.721 66.0606C225.28 66.2443 224.718 66.3361 224.034 66.3361C223.782 66.3361 223.514 66.3253 223.23 66.3037C222.957 66.2929 222.684 66.2659 222.411 66.2227C222.148 66.1903 221.89 66.1471 221.638 66.093C221.396 66.039 221.181 65.9796 220.992 65.9147C220.813 65.8391 220.697 65.7364 220.645 65.6068C220.592 65.4771 220.566 65.342 220.566 65.2016V55.0876C220.566 54.8823 220.671 54.7796 220.881 54.7796H222.001C222.127 54.7796 222.211 54.812 222.253 54.8769C222.295 54.9309 222.316 55.0011 222.316 55.0876V58.4913C222.715 58.34 223.078 58.2374 223.404 58.1834C223.73 58.1293 224.019 58.1023 224.271 58.1023C224.923 58.1023 225.453 58.1996 225.863 58.3941C226.273 58.5886 226.594 58.8641 226.825 59.2207C227.067 59.5773 227.23 60.0041 227.314 60.5012C227.398 60.9982 227.44 61.5493 227.44 62.1544ZM225.643 62.3003C225.643 61.8248 225.616 61.4196 225.564 61.0847C225.511 60.7497 225.427 60.4795 225.311 60.2742C225.206 60.0689 225.064 59.9177 224.886 59.8204C224.707 59.7232 224.492 59.6691 224.239 59.6583C224.071 59.6583 223.919 59.6637 223.782 59.6745C223.646 59.6745 223.504 59.6853 223.357 59.7069C223.22 59.7286 223.067 59.761 222.899 59.8042C222.731 59.8366 222.537 59.8798 222.316 59.9339V64.6181C222.568 64.6613 222.831 64.6937 223.104 64.7153C223.388 64.7369 223.656 64.7477 223.908 64.7477C224.171 64.7477 224.408 64.7207 224.618 64.6667C224.828 64.6127 225.007 64.5046 225.154 64.3425C225.311 64.1696 225.432 63.9211 225.516 63.5969C225.601 63.2728 225.643 62.8406 225.643 62.3003Z"
    fill="#626366"
  />
<path
    d="M233.752 62.5758H231.828C231.429 62.5758 231.113 62.6731 230.882 62.8676C230.651 63.0513 230.535 63.4078 230.535 63.9373C230.535 64.2939 230.604 64.5424 230.74 64.6829C230.887 64.8126 231.145 64.8774 231.513 64.8774C231.681 64.8774 231.865 64.8558 232.065 64.8126C232.264 64.7693 232.464 64.7099 232.664 64.6343C232.863 64.5586 233.058 64.4776 233.247 64.3911C233.436 64.2939 233.604 64.2021 233.752 64.1156V62.5758ZM233.846 65.2664C233.447 65.5798 232.995 65.8337 232.49 66.0282C231.996 66.2227 231.481 66.3199 230.945 66.3199C230.525 66.3199 230.173 66.2659 229.889 66.1579C229.616 66.039 229.395 65.8823 229.227 65.6878C229.069 65.4825 228.954 65.2394 228.88 64.9584C228.817 64.6775 228.785 64.3641 228.785 64.0184C228.775 63.0675 229.017 62.3813 229.511 61.9599C230.005 61.5277 230.751 61.3116 231.749 61.3116H233.767V60.8901C233.767 60.6524 233.741 60.4525 233.689 60.2904C233.646 60.1176 233.562 59.9771 233.436 59.869C233.31 59.761 233.142 59.6853 232.932 59.6421C232.722 59.5989 232.454 59.5773 232.128 59.5773C232.002 59.5773 231.844 59.5827 231.655 59.5935C231.476 59.6043 231.287 59.6151 231.087 59.6259C230.898 59.6367 230.704 59.6529 230.504 59.6745C230.315 59.6961 230.141 59.7123 229.984 59.7232C229.826 59.7448 229.716 59.7502 229.652 59.7394C229.6 59.7177 229.563 59.6475 229.542 59.5287L229.4 58.9289C229.379 58.8209 229.39 58.7344 229.432 58.6696C229.474 58.594 229.584 58.5183 229.763 58.4427C229.931 58.3779 230.131 58.3238 230.362 58.2806C230.593 58.2374 230.83 58.205 231.071 58.1834C231.313 58.1509 231.55 58.1293 231.781 58.1185C232.023 58.0969 232.238 58.0861 232.427 58.0861C233.11 58.0861 233.652 58.1563 234.051 58.2968C234.461 58.4373 234.771 58.6372 234.981 58.8965C235.192 59.1451 235.328 59.453 235.391 59.8204C235.454 60.1878 235.486 60.5984 235.486 61.0522V64.1804C235.486 64.3425 235.491 64.4722 235.502 64.5694C235.523 64.6559 235.549 64.7261 235.58 64.7801C235.622 64.8234 235.68 64.8558 235.754 64.8774C235.827 64.899 235.927 64.9152 236.053 64.926C236.169 64.9368 236.248 64.9584 236.29 64.9909C236.332 65.0233 236.353 65.0827 236.353 65.1691V65.8499C236.353 66.0336 236.227 66.1471 235.975 66.1903C235.848 66.2119 235.722 66.2281 235.596 66.2389C235.47 66.2605 235.349 66.2713 235.234 66.2713C234.866 66.2713 234.566 66.2011 234.335 66.0606C234.114 65.9201 233.962 65.6608 233.878 65.2826L233.846 65.2664Z"
    fill="#626366"
  />
<path
    d="M244.158 65.8823C244.158 65.9796 244.137 66.0552 244.095 66.1092C244.053 66.1633 243.974 66.1903 243.858 66.1903H242.723C242.523 66.1903 242.423 66.0876 242.423 65.8823L242.439 61.3278C242.439 60.8523 242.36 60.4687 242.203 60.177C242.056 59.8852 241.756 59.7394 241.304 59.7394C241.146 59.7394 240.962 59.7664 240.752 59.8204C240.553 59.8744 240.348 59.9447 240.137 60.0311C239.938 60.1067 239.748 60.1878 239.57 60.2742C239.391 60.3499 239.249 60.4147 239.144 60.4687V65.8823C239.144 66.0876 239.044 66.1903 238.845 66.1903H237.725C237.526 66.1903 237.426 66.0876 237.426 65.8823V58.5724C237.426 58.3562 237.526 58.2482 237.725 58.2482H238.845C239.044 58.2482 239.144 58.3562 239.144 58.5724V59.0586C239.155 59.0586 239.16 59.064 239.16 59.0748C239.17 59.0748 239.181 59.0748 239.191 59.0748C239.339 58.9668 239.512 58.8587 239.712 58.7507C239.922 58.6318 240.143 58.5237 240.374 58.4265C240.605 58.3292 240.847 58.2536 241.099 58.1996C241.351 58.1347 241.598 58.1023 241.84 58.1023C242.376 58.1023 242.797 58.1888 243.101 58.3617C243.406 58.5237 243.637 58.7452 243.795 59.0262C243.953 59.3071 244.053 59.6367 244.095 60.0149C244.137 60.3823 244.158 60.7713 244.158 61.1819V65.8823Z"
    fill="#626366"
  />
<path
    d="M252.456 65.8823C252.456 65.9796 252.435 66.0552 252.392 66.1092C252.361 66.1633 252.287 66.1903 252.172 66.1903H251.037C250.847 66.1903 250.753 66.093 250.753 65.8985V65.3799C250.742 65.3799 250.732 65.3799 250.721 65.3799C250.721 65.3691 250.716 65.3636 250.706 65.3636C250.569 65.4609 250.406 65.569 250.217 65.6878C250.028 65.7959 249.823 65.8985 249.602 65.9958C249.381 66.093 249.15 66.1687 248.908 66.2227C248.677 66.2875 248.446 66.3199 248.215 66.3199C247.7 66.3199 247.274 66.2281 246.938 66.0444C246.612 65.8499 246.349 65.5798 246.149 65.234C245.96 64.8882 245.823 64.4722 245.739 63.9859C245.666 63.4889 245.629 62.9324 245.629 62.3165C245.629 61.6573 245.671 61.0684 245.755 60.5498C245.85 60.0203 246.013 59.5719 246.244 59.2045C246.475 58.8371 246.79 58.5616 247.19 58.3779C247.6 58.1834 248.125 58.0861 248.766 58.0861C249.418 58.0861 250.07 58.2104 250.721 58.4589C250.732 58.4589 250.737 58.4589 250.737 58.4589C250.737 58.4481 250.742 58.4427 250.753 58.4427V55.0876C250.753 54.9795 250.769 54.8985 250.8 54.8444C250.842 54.7904 250.926 54.7634 251.052 54.7634H252.172C252.298 54.7634 252.377 54.7958 252.408 54.8607C252.44 54.9147 252.456 54.9903 252.456 55.0876V65.8823ZM250.737 59.9177C250.369 59.8096 250.038 59.7394 249.744 59.7069C249.46 59.6637 249.187 59.6421 248.924 59.6421C248.64 59.6421 248.398 59.6853 248.199 59.7718C247.999 59.8582 247.841 60.0041 247.726 60.2094C247.61 60.4147 247.526 60.6902 247.474 61.036C247.421 61.371 247.395 61.7924 247.395 62.3003C247.395 62.8189 247.416 63.2404 247.458 63.5645C247.51 63.8779 247.589 64.121 247.694 64.2939C247.799 64.456 247.926 64.5694 248.073 64.6343C248.22 64.6883 248.398 64.7153 248.609 64.7153C248.766 64.7153 248.945 64.6883 249.145 64.6343C249.344 64.5802 249.544 64.5154 249.744 64.4398C249.944 64.3641 250.127 64.2885 250.296 64.2129C250.474 64.1264 250.621 64.0508 250.737 63.9859V59.9177Z"
    fill="#626366"
  />
<path
    d="M259.933 63.8077C259.933 64.2831 259.844 64.6829 259.665 65.0071C259.487 65.3204 259.245 65.5744 258.94 65.7689C258.646 65.9634 258.309 66.1038 257.931 66.1903C257.553 66.2767 257.158 66.3199 256.749 66.3199C256.349 66.3199 255.918 66.2875 255.456 66.2227C254.993 66.1687 254.61 66.0822 254.305 65.9634C254.147 65.8985 254.047 65.8283 254.005 65.7526C253.963 65.6662 253.953 65.5581 253.974 65.4285L254.084 64.8936C254.105 64.7639 254.147 64.6883 254.21 64.6667C254.273 64.6343 254.368 64.6289 254.494 64.6505C254.662 64.6829 254.846 64.7099 255.046 64.7315C255.256 64.7531 255.461 64.7747 255.661 64.7964C255.871 64.8072 256.065 64.818 256.244 64.8288C256.433 64.8396 256.596 64.845 256.733 64.845C257.237 64.845 257.6 64.7747 257.821 64.6343C258.041 64.483 258.152 64.2453 258.152 63.9211C258.152 63.7374 258.131 63.5861 258.089 63.4673C258.057 63.3484 257.994 63.2512 257.899 63.1755C257.805 63.0999 257.673 63.0405 257.505 62.9972C257.348 62.9432 257.143 62.9 256.89 62.8676C256.502 62.8135 256.134 62.7433 255.787 62.6569C255.44 62.5704 255.13 62.4461 254.857 62.2841C254.594 62.1112 254.384 61.8897 254.226 61.6195C254.068 61.3386 253.99 60.9766 253.99 60.5336C253.99 59.734 254.263 59.1288 254.809 58.7182C255.356 58.2968 256.071 58.0861 256.953 58.0861C257.111 58.0861 257.295 58.0915 257.505 58.1023C257.716 58.1131 257.926 58.1347 258.136 58.1672C258.357 58.1996 258.572 58.2374 258.782 58.2806C258.993 58.3238 259.182 58.3779 259.35 58.4427C259.613 58.5507 259.723 58.7128 259.681 58.9289L259.555 59.5124C259.534 59.6313 259.492 59.7069 259.429 59.7394C259.376 59.761 259.276 59.761 259.129 59.7394C258.793 59.6961 258.425 59.6583 258.026 59.6259C257.626 59.5827 257.279 59.5611 256.985 59.5611C256.481 59.5611 256.144 59.6367 255.976 59.788C255.818 59.9285 255.74 60.1554 255.74 60.4687C255.74 60.7821 255.839 60.9874 256.039 61.0847C256.249 61.1819 256.596 61.2683 257.08 61.344C257.458 61.398 257.815 61.4682 258.152 61.5547C258.499 61.6411 258.803 61.7708 259.066 61.9437C259.329 62.1166 259.539 62.3489 259.697 62.6406C259.854 62.9324 259.933 63.3214 259.933 63.8077Z"
    fill="#626366"
  />
<path
    d="M263.433 56.1411C263.433 56.2708 263.423 56.395 263.401 56.5139C263.38 56.622 263.333 56.7192 263.26 56.8057C263.197 56.8921 263.102 56.9623 262.976 57.0164C262.86 57.0596 262.703 57.0812 262.503 57.0812C262.293 57.0812 262.124 57.0542 261.998 57.0002C261.883 56.9461 261.793 56.8759 261.73 56.7894C261.667 56.703 261.625 56.6057 261.604 56.4977C261.583 56.3788 261.573 56.26 261.573 56.1411C261.573 55.8818 261.63 55.6657 261.746 55.4928C261.872 55.3091 262.124 55.2172 262.503 55.2172C262.892 55.2172 263.144 55.3037 263.26 55.4766C263.375 55.6387 263.433 55.8602 263.433 56.1411ZM263.338 65.8823C263.338 65.9688 263.317 66.0444 263.275 66.1092C263.244 66.1633 263.17 66.1903 263.055 66.1903H261.935C261.725 66.1903 261.62 66.0876 261.62 65.8823V58.5562C261.62 58.3508 261.725 58.2482 261.935 58.2482H263.055C263.17 58.2482 263.244 58.2806 263.275 58.3454C263.317 58.3995 263.338 58.4697 263.338 58.5562V65.8823Z"
    fill="#626366"
  />
<path
    d="M271.963 65.8823C271.963 65.9796 271.942 66.0552 271.9 66.1092C271.858 66.1633 271.78 66.1903 271.664 66.1903H270.529C270.329 66.1903 270.229 66.0876 270.229 65.8823L270.245 61.3278C270.245 60.8523 270.166 60.4687 270.008 60.177C269.861 59.8852 269.562 59.7394 269.11 59.7394C268.952 59.7394 268.768 59.7664 268.558 59.8204C268.358 59.8744 268.153 59.9447 267.943 60.0311C267.743 60.1067 267.554 60.1878 267.376 60.2742C267.197 60.3499 267.055 60.4147 266.95 60.4687V65.8823C266.95 66.0876 266.85 66.1903 266.65 66.1903H265.531C265.331 66.1903 265.231 66.0876 265.231 65.8823V58.5724C265.231 58.3562 265.331 58.2482 265.531 58.2482H266.65C266.85 58.2482 266.95 58.3562 266.95 58.5724V59.0586C266.96 59.0586 266.966 59.064 266.966 59.0748C266.976 59.0748 266.987 59.0748 266.997 59.0748C267.144 58.9668 267.318 58.8587 267.517 58.7507C267.728 58.6318 267.948 58.5237 268.18 58.4265C268.411 58.3292 268.653 58.2536 268.905 58.1996C269.157 58.1347 269.404 58.1023 269.646 58.1023C270.182 58.1023 270.602 58.1888 270.907 58.3617C271.212 58.5237 271.443 58.7452 271.601 59.0262C271.758 59.3071 271.858 59.6367 271.9 60.0149C271.942 60.3823 271.963 60.7713 271.963 61.1819V65.8823Z"
    fill="#626366"
  />
<path
    d="M279.394 63.8077C279.394 64.2831 279.305 64.6829 279.126 65.0071C278.947 65.3204 278.706 65.5744 278.401 65.7689C278.107 65.9634 277.77 66.1038 277.392 66.1903C277.014 66.2767 276.619 66.3199 276.21 66.3199C275.81 66.3199 275.379 66.2875 274.917 66.2227C274.454 66.1687 274.071 66.0822 273.766 65.9634C273.608 65.8985 273.508 65.8283 273.466 65.7526C273.424 65.6662 273.414 65.5581 273.435 65.4285L273.545 64.8936C273.566 64.7639 273.608 64.6883 273.671 64.6667C273.734 64.6343 273.829 64.6289 273.955 64.6505C274.123 64.6829 274.307 64.7099 274.507 64.7315C274.717 64.7531 274.922 64.7747 275.122 64.7964C275.332 64.8072 275.526 64.818 275.705 64.8288C275.894 64.8396 276.057 64.845 276.194 64.845C276.698 64.845 277.061 64.7747 277.282 64.6343C277.502 64.483 277.613 64.2453 277.613 63.9211C277.613 63.7374 277.592 63.5861 277.55 63.4673C277.518 63.3484 277.455 63.2512 277.36 63.1755C277.266 63.0999 277.134 63.0405 276.966 62.9972C276.809 62.9432 276.604 62.9 276.351 62.8676C275.962 62.8135 275.595 62.7433 275.248 62.6569C274.901 62.5704 274.591 62.4461 274.318 62.2841C274.055 62.1112 273.845 61.8897 273.687 61.6195C273.529 61.3386 273.45 60.9766 273.45 60.5336C273.45 59.734 273.724 59.1288 274.27 58.7182C274.817 58.2968 275.532 58.0861 276.414 58.0861C276.572 58.0861 276.756 58.0915 276.966 58.1023C277.176 58.1131 277.387 58.1347 277.597 58.1672C277.818 58.1996 278.033 58.2374 278.243 58.2806C278.454 58.3238 278.643 58.3779 278.811 58.4427C279.074 58.5507 279.184 58.7128 279.142 58.9289L279.016 59.5124C278.995 59.6313 278.953 59.7069 278.89 59.7394C278.837 59.761 278.737 59.761 278.59 59.7394C278.254 59.6961 277.886 59.6583 277.487 59.6259C277.087 59.5827 276.74 59.5611 276.446 59.5611C275.941 59.5611 275.605 59.6367 275.437 59.788C275.279 59.9285 275.2 60.1554 275.2 60.4687C275.2 60.7821 275.3 60.9874 275.5 61.0847C275.71 61.1819 276.057 61.2683 276.541 61.344C276.919 61.398 277.276 61.4682 277.613 61.5547C277.96 61.6411 278.264 61.7708 278.527 61.9437C278.79 62.1166 279 62.3489 279.158 62.6406C279.315 62.9324 279.394 63.3214 279.394 63.8077Z"
    fill="#626366"
  />
<path
    fill-rule="evenodd"
    clip-rule="evenodd"
    d="M287.7 66.241H291V27.541H287.7V66.241Z"
    fill="#004494"
  />
<path
    d="M86.9932 27.541H86.9369H28.567V66.1905H86.9369H86.9932V27.541Z"
    fill="#003399"
  />
<path
    d="M58.3093 33.3809H60.3442L58.703 34.6449L59.3421 36.6472L57.711 35.4135L56.08 36.6472L56.7191 34.6449L55.0676 33.3809H57.0975L57.711 31.4292L58.3093 33.3809Z"
    fill="#FFED00"
  />
<path
    d="M58.3808 59.1573H60.4158L58.7796 60.3759L59.4137 62.3023L57.7826 61.1141L56.1516 62.3023L56.7958 60.3759L55.1392 59.1573H57.1691L57.7826 57.2815L58.3808 59.1573Z"
    fill="#FFED00"
  />
<path
    d="M64.8283 57.4534H66.8684L65.2271 58.6669L65.8663 60.5933L64.2301 59.4051L62.5991 60.5933L63.2433 58.6669L61.5867 57.4534H63.6165L64.2301 55.5725L64.8283 57.4534Z"
    fill="#FFED00"
  />
<path
    d="M64.8283 35.1H66.8684L65.2271 36.3185L65.8663 38.2449L64.2301 37.0567L62.5991 38.2449L63.2433 36.3185L61.5867 35.1H63.6165L64.2301 33.2241L64.8283 35.1Z"
    fill="#FFED00"
  />
<path
    d="M69.6192 39.8377H71.6491L70.0129 41.0512L70.6469 42.9776L69.0159 41.7894L67.3848 42.9776L68.0291 41.0512L66.3724 39.8377H68.4023L69.0159 37.9568L69.6192 39.8377Z"
    fill="#FFED00"
  />
<path
    d="M69.6192 52.7814H71.6491L70.0129 53.9999L70.6469 55.9263L69.0159 54.7381L67.3848 55.9263L68.0291 53.9999L66.3724 52.7814H68.4023L69.0159 50.9055L69.6192 52.7814Z"
    fill="#FFED00"
  />
<path
    d="M71.4087 46.2084H73.4488L71.8076 47.4269L72.4467 49.3533L70.8105 48.1651L69.1795 49.3533L69.8237 47.4269L68.1671 46.2084H70.197L70.8105 44.3325L71.4087 46.2084Z"
    fill="#FFED00"
  />
<path
    d="M51.7391 35.1202H53.7689L52.1328 36.3336L52.7668 38.26L51.1357 37.0718L49.5047 38.26L50.1489 36.3336L48.4974 35.1202H50.5222L51.1357 33.2393L51.7391 35.1202Z"
    fill="#FFED00"
  />
<path
    d="M47.0811 39.8528H49.1212L47.4799 41.0663L48.1139 42.9927L46.4829 41.8045L44.8518 42.9927L45.4961 41.0663L43.8395 39.8528H45.8693L46.4829 37.9719L47.0811 39.8528Z"
    fill="#FFED00"
  />
<path
    d="M45.3529 46.2286H47.3879L45.7517 47.442L46.3857 49.3685L44.7547 48.1853L43.1237 49.3685L43.7679 47.442L42.1164 46.2286H44.1411L44.7547 44.3477L45.3529 46.2286Z"
    fill="#FFED00"
  />
<path
    d="M47.0811 52.7967H49.1212L47.4799 54.0153L48.1139 55.9417L46.4829 54.7535L44.8518 55.9417L45.4961 54.0153L43.8395 52.7967H45.8693L46.4829 50.9209L47.0811 52.7967Z"
    fill="#FFED00"
  />
<path
    d="M51.8055 57.4685H53.8354L52.1992 58.682L52.8332 60.6084L51.2022 59.4202L49.5711 60.6084L50.2154 58.682L48.5639 57.4685H50.5886L51.2022 55.5876L51.8055 57.4685Z"
    fill="#FFED00"
  />
<path
    d="M95.8693 0.00505726C95.8693 0.00505726 107.869 18.9101 110.068 22.3736C112.262 25.8371 114.772 28.5826 123.653 30.4433C132.535 32.304 136.4 33.1837 136.4 33.1837V33.8562C136.4 33.8562 130.755 32.668 123.495 31.0652C116.234 29.4624 113.264 28.9214 109.956 24.3657C107.2 20.5736 95.8693 3.61517 95.8693 3.61517V0V0.00505726Z"
    fill="#6D6E70"
  />
<path
    d="M95.8693 21.5949C95.8693 21.5949 106.796 32.9157 109.956 36.1668C113.31 39.6151 117.6 40.8893 123.551 41.941C129.232 42.9421 136.395 44.1 136.395 44.1V44.7371C136.395 44.7371 129.666 43.6449 123.551 42.6135C117.553 41.5972 113.356 41.0309 109.92 37.9011C106.842 35.1 95.8693 24.9219 95.8693 24.9219V21.5898V21.5949Z"
    fill="#6D6E70"
  />
<path
    d="M95.8693 26.6967C95.8693 26.6967 106.259 36.2377 109.956 39.499C113.356 42.4973 116.112 43.4327 123.587 44.7422C131.062 46.0518 136.395 46.8658 136.395 46.8658V47.5383C136.395 47.5383 129.63 46.4411 123.551 45.4804C117.472 44.5248 113.596 44.1456 109.956 41.2282C105.758 37.8608 95.8693 29.8113 95.8693 29.8113V26.6917V26.6967Z"
    fill="#6D6E70"
  />
<path
    d="M95.8693 32.1321C95.8693 32.1321 107.737 41.4456 109.956 43.0737C112.175 44.7018 115.109 46.6029 123.623 47.8214C132.064 49.0298 136.395 49.6265 136.395 49.6265V50.3343C136.395 50.3343 128.741 49.2371 123.623 48.6001C118.505 47.963 114.583 47.69 109.991 44.6664C105.523 41.7237 95.8693 35.004 95.8693 35.004V32.1321Z"
    fill="#6D6E70"
  />
<path
    d="M95.8693 37.3601C95.8693 37.3601 107.772 45.1972 110.027 46.441C112.282 47.6798 114.931 49.7022 123.623 50.7994C132.315 51.8966 136.395 52.3921 136.395 52.3921V53.0646C136.395 53.0646 129.206 52.286 123.587 51.6843C117.973 51.0826 114.143 50.2685 109.956 47.9983C105.768 45.7331 95.8693 40.0095 95.8693 40.0095V37.3601Z"
    fill="#6D6E70"
  />
<path
    d="M95.8693 42.5883C95.8693 42.5883 106.392 48.2512 109.956 50.0158C113.928 51.9878 117.364 52.9333 123.587 53.6664C129.697 54.3844 136.395 55.0821 136.395 55.0821V55.7192C136.395 55.7192 130.203 55.0619 123.587 54.4451C117.027 53.8282 114.69 53.5451 109.956 51.467C105.722 49.6063 95.8693 45.0658 95.8693 45.0658V42.5833V42.5883Z"
    fill="#6D6E70"
  />
<path
    d="M95.8693 47.8872C95.8693 47.8872 104.183 51.4063 110.027 53.7018C115.774 55.9569 120.166 56.149 123.658 56.5383C125.197 56.7102 136.395 57.8479 136.395 57.8479V58.485C136.395 58.485 129.707 57.9541 123.623 57.4232C117.538 56.8923 114.915 56.6647 109.991 55.0518C105.006 53.4136 95.8693 50.2636 95.8693 50.2636V47.8923V47.8872Z"
    fill="#6D6E70"
  />
<path
    d="M95.8693 53.2922C95.8693 53.2922 104.265 55.8658 109.991 57.3524C115.718 58.8389 120.974 59.4456 123.623 59.6175C126.271 59.7945 136.4 60.6085 136.4 60.6085V61.2102C136.4 61.2102 130.638 60.8209 123.587 60.3254C117.886 59.9259 113.31 59.5012 109.956 58.7681C106.244 57.9591 95.8693 55.522 95.8693 55.522V53.2922Z"
    fill="#6D6E70"
  />
<path
    d="M95.8693 58.6062C95.8693 58.6062 102.736 59.7792 109.991 60.9674C115.432 61.8573 122.799 62.4186 123.587 62.454C124.374 62.4893 136.395 63.3034 136.395 63.3034V63.9405C136.395 63.9405 128.7 63.5461 123.587 63.268C118.259 62.9747 112.962 62.6562 109.956 62.3478C103.217 61.6551 95.8693 60.7349 95.8693 60.7349V58.6062Z"
    fill="#6D6E70"
  />
<path
    d="M95.8693 64.1074C95.8693 64.1074 106.699 64.5119 109.991 64.5827C113.284 64.6535 136.395 65.5737 136.395 65.5737V66.1956H95.8693V64.1074Z"
    fill="#6D6E70"
  />
<path
    d="M123.582 33.3656C113.78 31.2774 111.561 27.733 109.915 25.5386C108.268 23.3392 95.8642 5.41504 95.8642 5.41504V8.71167C96.355 9.34369 106.97 23.8347 109.95 27.6269C113.31 31.8993 118.571 32.8701 123.582 33.9319C128.587 34.9937 136.395 36.4752 136.395 36.4752V35.9089C136.395 35.9089 126.118 33.9016 123.582 33.3656Z"
    fill="#6D6E70"
  />
<path
    d="M123.582 36.2022C115.534 34.6449 112.277 32.127 109.915 29.0831C107.552 26.0343 95.8642 10.446 95.8642 10.446V14.2786C96.355 14.85 107.046 27.7534 109.915 30.9994C113.259 34.7865 117.927 35.7826 123.582 36.809C129.237 37.8354 136.39 39.1803 136.39 39.1803V38.614C136.39 38.614 128.224 37.1022 123.582 36.2073V36.2022Z"
    fill="#6D6E70"
  />
<path
    d="M123.582 39.1399C115.212 37.5321 113.494 36.2124 109.95 32.3748C107.721 29.963 96.3448 16.6804 95.8642 16.1191V19.6585C95.8642 19.6585 106.494 30.8731 109.915 34.1849C114.399 38.5332 118.607 38.8619 123.582 39.7467C128.557 40.6315 136.39 42.0473 136.39 42.0473V41.4456C136.39 41.4456 126.931 39.7871 123.582 39.145V39.1399Z"
    fill="#6D6E70"
  />
<path
    d="M0.782944 27.7788C0.782944 27.7788 28.4954 24.8563 36.2569 23.7793C48.5281 22.0805 58.57 20.2703 67.8603 6.18887C67.8603 6.18887 67.8705 5.38999 67.8603 5.03101C62.1696 13.5911 54.3211 19.431 43.5122 21.1248C32.9539 22.7833 0.777832 25.2052 0.777832 25.2052V27.7788H0.782944Z"
    fill="#6D6E70"
  />
<path
    d="M0.777832 24.2849C0.777832 24.2849 26.4604 21.1046 34.9224 19.9315C48.3082 18.081 57.7212 16.4175 67.8552 1.05681C67.8552 1.05681 67.8603 0.394453 67.8552 0.00512695C61.648 9.3439 53.9836 15.3759 42.1931 17.2265C30.6735 19.0366 0.777832 21.6759 0.777832 21.6759V24.29V24.2849Z"
    fill="#6D6E70"
  />
<path d="M26.9973 64.1326H0.793167V66.1854H26.9973V64.1326Z" fill="#6D6E70" />
<path
    d="M67.8552 22.5708C67.8552 22.5708 67.8705 21.3624 67.8654 21.1045C66.6332 22.9601 65.0124 24.6438 63.141 26.1253H64.9766C66.0094 25.0736 66.9758 23.8955 67.8501 22.5708H67.8552Z"
    fill="#6D6E70"
  />
<path
    d="M67.8552 17.11C67.8552 17.11 67.8654 16.0381 67.8603 15.7449C64.8897 20.2145 60.4669 23.7842 55.3539 26.1505L58.3706 26.1404C61.8577 24.1331 65.0993 21.2814 67.8501 17.11H67.8552Z"
    fill="#6D6E70"
  />
<path
    d="M67.8552 11.6494C67.8552 11.6494 67.8654 10.714 67.8552 10.3904C62.686 18.1718 54.6483 23.496 44.8212 25.0381C42.4948 25.4022 38.706 25.8067 34.3037 26.2162L46.3039 26.1758C54.224 24.4314 61.6378 21.0589 67.845 11.6494H67.8552Z"
    fill="#6D6E70"
  />
<path
    d="M27.0024 60.6743C13.6319 60.7451 0.793167 60.8007 0.793167 60.8007V62.9395C0.793167 62.9395 14.2403 62.8434 27.0024 62.7372V60.6743Z"
    fill="#6D6E70"
  />
<path
    d="M27.0024 57.0034C13.7239 57.15 0.788055 57.2613 0.788055 57.2613V59.4456C0.788055 59.4456 14.3733 59.2686 27.0024 59.0714V57.0034Z"
    fill="#6D6E70"
  />
<path
    d="M26.9973 53.3225C13.816 53.55 0.788055 53.722 0.788055 53.722V55.9517C0.788055 55.9517 14.5164 55.6837 26.9973 55.3905V53.3225Z"
    fill="#6D6E70"
  />
<path
    d="M27.0024 49.6213C13.9182 49.9398 0.788055 50.1774 0.788055 50.1774V52.4477C0.788055 52.4477 14.6749 52.0735 27.0024 51.6842V49.6162V49.6213Z"
    fill="#6D6E70"
  />
<path
    d="M27.0075 45.9102C14.0205 46.3197 0.788055 46.6433 0.788055 46.6433V48.959C0.788055 48.959 14.8437 48.4736 27.0075 47.9781V45.9152V45.9102Z"
    fill="#6D6E70"
  />
<path
    d="M27.0024 42.1838C14.1176 42.6995 0.788055 43.104 0.788055 43.104V45.4602C0.788055 45.4602 15.0175 44.8433 27.0024 44.2315V42.1787V42.1838Z"
    fill="#6D6E70"
  />
<path
    d="M27.0075 38.4321C14.2199 39.0591 0.782944 39.5597 0.782944 39.5597V41.9613C0.782944 41.9613 15.2016 41.1979 27.0075 40.4647V38.4321Z"
    fill="#6D6E70"
  />
<path
    d="M27.0075 34.6602C14.317 35.4085 0.782944 36.0203 0.782944 36.0203V38.4624C0.782944 38.4624 15.3959 37.5321 27.0075 36.6725V34.6602Z"
    fill="#6D6E70"
  />
<path
    d="M27.0075 30.8679C14.404 31.7477 0.782944 32.4859 0.782944 32.4859V34.9735C0.782944 34.9735 15.5902 33.8511 27.0075 32.8601V30.873V30.8679Z"
    fill="#6D6E70"
  />
<path
    d="M27.0075 27.0405C14.4807 28.0669 0.777832 28.9416 0.777832 28.9416V31.4697C0.777832 31.4697 15.7845 30.1248 27.0075 28.9922V27.0405Z"
    fill="#6D6E70"
  />
</svg>
