<svg id="Layer_1" xmlns="http://www.w3.org/2000/svg" width="36" height="36" viewBox="0 0 36 36"><style>.st0{fill:#da2131}</style><path class="st0" d="M25 1H10.9L1 11v14.1L11 35h14.1L35 25V11L25 1zm-4.8 17.3l3.5 3.5c.2.2.2.5 0 .7l-1.3 1.3c-.2.2-.5.2-.7 0l-3.5-3.5c-.2-.2-.5-.2-.7 0L14 23.8c-.2.2-.5.2-.7 0L12 22.5c-.2-.2-.2-.5 0-.7l3.5-3.5c.2-.2.2-.5 0-.7L12 14.1c-.2-.2-.2-.5 0-.7l1.3-1.3c.2-.2.5-.2.7 0l3.5 3.5c.2.2.5.2.7 0l3.5-3.5c.2-.2.5-.2.7 0l1.3 1.3c.2.2.2.5 0 .7l-3.5 3.5c-.2.3-.2.5 0 .7z"/></svg>