<?xml version="1.0" encoding="UTF-8" ?>
<svg
  width="66px"
  height="44px"
  viewBox="0 0 66 44"
  version="1.1"
  xmlns="http://www.w3.org/2000/svg"
  xmlns:xlink="http://www.w3.org/1999/xlink"
>
    <title>EU/EU_emblem/flag/flag-positive</title>
    <g
    id="EU/EU_emblem/flag/flag-positive"
    stroke="none"
    stroke-width="1"
    fill="none"
    fill-rule="evenodd"
  >
        <g id="EU_flag" fill-rule="nonzero">
            <rect
        id="🌈-flag"
        fill="#003399"
        x="0"
        y="0"
        width="66"
        height="44"
      />
            <path
        d="M32.1383333,8.1675 L30.745,7.15 L32.4683333,7.15 L33,5.5 L33.5316667,7.15 L35.255,7.15 L33.8616667,8.1675 L34.3933333,9.82666667 L33,8.8 L31.6066667,9.82666667 L32.1383333,8.1675 L32.1383333,8.1675 Z M33.8616667,36.85 L34.3933333,38.5 L33,37.4825 L31.6066667,38.5 L32.1383333,36.85 L30.745,35.8325 L32.4683333,35.8325 L33,34.1733333 L33.5316667,35.8325 L35.255,35.8325 L33.8616667,36.85 Z M18.755,23.1 L17.3616667,24.1266667 L17.8933333,22.4766667 L16.5,21.4866667 L18.2233333,21.4866667 L18.755,19.8366667 L19.2866667,21.4866667 L21.0191667,21.4866667 L19.6166667,22.5133333 L20.1483333,24.1633333 L18.755,23.1366667 L18.755,23.1 Z M26.7391667,10.0833333 L27.2708333,11.7333333 L25.8775,10.725 L24.4841667,11.7425 L25.0158333,10.0925 L23.6225,9.075 L25.3458333,9.075 L25.8775,7.425 L26.4091667,9.075 L28.1325,9.075 L26.7391667,10.0833333 Z M20.1666667,14.3183333 L20.6983333,12.6683333 L21.2391667,14.3183333 L22.9166667,14.3183333 L21.5233333,15.345 L22.055,16.995 L20.6525,15.9683333 L19.25,16.995 L19.7816667,15.345 L18.3883333,14.3183333 L20.1666667,14.3183333 Z M18.4066667,28.655 L20.1666667,28.655 L20.6983333,27.005 L21.2391667,28.655 L22.9166667,28.655 L21.5233333,29.6816667 L22.055,31.3316667 L20.6525,30.3141667 L19.25,31.3316667 L19.7816667,29.6816667 L18.3883333,28.655 L18.4066667,28.655 Z M25.0158333,34.925 L23.6225,33.9166667 L25.3458333,33.9166667 L25.8775,32.2666667 L26.4091667,33.9166667 L28.1325,33.9166667 L26.7391667,34.925 L27.2708333,36.575 L25.8775,35.5575 L24.4841667,36.575 L25.0158333,34.925 Z M48.1066667,22.5133333 L48.6383333,24.1633333 L47.245,23.1366667 L45.8333333,24.1633333 L46.365,22.5133333 L44.9625,21.4866667 L46.75,21.4866667 L47.2816667,19.8366667 L47.8133333,21.4866667 L49.5,21.4866667 L48.1066667,22.5133333 Z M39.2608333,10.0833333 L37.8675,9.075 L39.5908333,9.075 L40.1225,7.425 L40.6541667,9.075 L42.3775,9.075 L40.9841667,10.0833333 L41.5158333,11.7333333 L40.1225,10.725 L38.7291667,11.7425 L39.2608333,10.0925 L39.2608333,10.0833333 Z M44.7608333,14.3091667 L45.3016667,12.6591667 L45.8333333,14.3091667 L47.5566667,14.3091667 L46.2,15.345 L46.7316667,16.995 L45.3383333,15.9683333 L43.9358333,16.995 L44.4675,15.345 L43.0833333,14.3183333 L44.7608333,14.3091667 Z M45.8333333,28.655 L47.5566667,28.655 L46.2,29.6816667 L46.7316667,31.3316667 L45.3383333,30.3141667 L43.9358333,31.3316667 L44.4675,29.6816667 L43.0833333,28.655 L44.8066667,28.655 L45.3475,27.005 L45.8791667,28.655 L45.8333333,28.655 Z M42.3775,33.9166667 L40.9841667,34.925 L41.5158333,36.575 L40.1225,35.5575 L38.7291667,36.575 L39.2608333,34.925 L37.8675,33.9166667 L39.5908333,33.9166667 L40.1225,32.2666667 L40.6541667,33.9166667 L42.3775,33.9166667 Z"
        id="🌈-stars"
        fill="#FFCC00"
      />
        </g>
    </g>
</svg>
