<svg width="460" height="345" viewBox="0 0 460 345" fill="none" xmlns="http://www.w3.org/2000/svg">
<rect x="0.5" y="0.5" width="459" height="344" fill="white" stroke="white"/>
<rect width="161.151" height="26.8585" transform="translate(150 61)" fill="white"/>
<rect x="150" y="87.8584" width="161.151" height="142.887" fill="#F5F5F5"/>
<path fill-rule="evenodd" clip-rule="evenodd" d="M160.55 125.662L165.385 123.144L160.55 120.626L160.55 125.662Z" fill="#004494"/>
<path fill-rule="evenodd" clip-rule="evenodd" d="M172.024 125.461H282.144V120.626H172.024V125.461Z" fill="#CFCFCF"/>
<path fill-rule="evenodd" clip-rule="evenodd" d="M172.024 147.484H282.144V142.65H172.024V147.484Z" fill="#CFCFCF"/>
<path fill-rule="evenodd" clip-rule="evenodd" d="M182.767 213.556H278.384V208.722H182.767V213.556Z" fill="#404040"/>
<path fill-rule="evenodd" clip-rule="evenodd" d="M160.378 164.867L163.064 169.508L165.75 164.867L160.378 164.867Z" fill="#004494"/>
<path fill-rule="evenodd" clip-rule="evenodd" d="M171.487 169.508H281.607V164.674H171.487V169.508Z" fill="#CFCFCF"/>
<path fill-rule="evenodd" clip-rule="evenodd" d="M182.767 191.532H278.598V186.698H182.767V191.532Z" fill="#CFCFCF"/>
<rect x="150" y="87.3213" width="161.151" height="1" fill="#E7E7E7"/>
<path fill-rule="evenodd" clip-rule="evenodd" d="M156.446 77.1151H252.6V71.7434H156.446V77.1151Z" fill="#CFCFCF"/>
<rect x="150" y="88.9329" width="4.29736" height="141.813" fill="#004494"/>
<path fill-rule="evenodd" clip-rule="evenodd" d="M160.743 103.436H281.069V98.6018H160.743V103.436Z" fill="#CFCFCF"/>
<path d="M298.257 101.98C298.228 101.951 298.213 101.912 298.213 101.863C298.213 101.814 298.228 101.77 298.257 101.731L301.341 98.6607C301.371 98.6215 301.41 98.602 301.459 98.602C301.508 98.602 301.547 98.6215 301.576 98.6607L304.661 101.731C304.69 101.77 304.705 101.814 304.705 101.863C304.705 101.912 304.69 101.951 304.661 101.98L304.367 102.274C304.338 102.313 304.299 102.333 304.25 102.333C304.201 102.333 304.157 102.313 304.118 102.274L301.459 99.6154L298.8 102.274C298.761 102.313 298.717 102.333 298.668 102.333C298.619 102.333 298.58 102.313 298.551 102.274L298.257 101.98Z" fill="#004494"/>
<rect width="161.151" height="26.8585" transform="translate(150 231.283)" fill="white"/>
<rect x="150" y="257.604" width="161.151" height="0.53717" fill="#E7E7E7"/>
<path fill-rule="evenodd" clip-rule="evenodd" d="M156.446 247.398H252.6V242.026H156.446V247.398Z" fill="#CFCFCF"/>
<rect width="161.151" height="26.8585" transform="translate(150 258.142)" fill="white"/>
<rect x="150" y="258.142" width="161.151" height="1" fill="#E7E7E7"/>
<path fill-rule="evenodd" clip-rule="evenodd" d="M156.446 274.257H252.6V268.885H156.446V274.257Z" fill="#CFCFCF"/>
<path d="M304.661 269.238C304.69 269.267 304.705 269.306 304.705 269.355C304.705 269.404 304.69 269.448 304.661 269.487L301.576 272.557C301.547 272.596 301.508 272.616 301.459 272.616C301.41 272.616 301.371 272.596 301.341 272.557L298.257 269.487C298.228 269.448 298.213 269.404 298.213 269.355C298.213 269.306 298.228 269.267 298.257 269.238L298.551 268.944C298.58 268.905 298.619 268.885 298.668 268.885C298.717 268.885 298.761 268.905 298.8 268.944L301.459 271.602L304.118 268.944C304.157 268.905 304.201 268.885 304.25 268.885C304.299 268.885 304.338 268.905 304.367 268.944L304.661 269.238Z" fill="#404040"/>
<rect x="150" y="230.746" width="161.151" height="1" fill="#CFCFCF"/>
</svg>
