<?xml version="1.0" encoding="utf-8"?>
<!-- Generator: Adobe Illustrator 19.2.0, SVG Export Plug-In . SVG Version: 6.00 Build 0)  -->
<svg version="1.1" id="Layer_1" xmlns:sketch="http://www.bohemiancoding.com/sketch/ns"
	 xmlns="http://www.w3.org/2000/svg" xmlns:xlink="http://www.w3.org/1999/xlink" x="0px" y="0px" viewBox="0 0 40 40"
	 style="enable-background:new 0 0 40 40;" xml:space="preserve">
<style type="text/css">
	.st0{fill:#1E8CBE;}
	.st1{fill-opacity:0.3;}
	.st2{fill:#FFFFFF;}
</style>
<title>wordpress_hover</title>
<desc>Created with Sketch.</desc>
<g id="Page-1" sketch:type="MSPage">
	<g id="wordpress_hover" transform="translate(-1.000000, 0.000000)" sketch:type="MSLayerGroup">
		<g id="bg">
			<g sketch:type="MSShapeGroup">
				<rect id="path-1" x="1" class="st0" width="40" height="40"/>
			</g>
			<g>
				<rect id="path-1_1_" x="1" class="st1" width="40" height="40"/>
			</g>
		</g>
		<g id="icon" transform="translate(101.000000, 99.500000)" sketch:type="MSShapeGroup">
			<path id="Shape" class="st2" d="M-69.8-79.5c0-1.1-0.2-2.1-0.5-3l-4.6,11.8C-71.8-72.5-69.8-75.7-69.8-79.5L-69.8-79.5z"/>
			<path id="Shape_1_" class="st2" d="M-83.2-69.8c1,0.3,2.1,0.5,3.2,0.5c1.2,0,2.3-0.2,3.4-0.6l-3.1-8.1L-83.2-69.8L-83.2-69.8z"/>
			<path id="Shape_2_" class="st2" d="M-89.7-82.4c-0.3,0.9-0.4,1.9-0.4,2.9c0,3.8,2.1,7.1,5.2,8.9L-89.7-82.4L-89.7-82.4
				L-89.7-82.4z"/>
			<path id="Shape_3_" class="st2" d="M-84.5-83l-0.4,0c-1,0-0.8,1-0.8,1l3.4,8.5l2.3-5.4l-1.3-3.2c-0.5-0.9-1.8-0.8-1.8-0.8v-0.5
				h7.1l0,0.5l-0.7,0c-0.9,0-0.7,0.9-0.7,0.9l3.1,8.3l0.9-2.3c1.6-3.6,0.6-6.2,0.6-6.2c-1.6-3.2,0.4-3.7,0.4-3.7c0.1,0,0.2,0,0.4,0
				c-1.9-2.2-4.7-3.6-7.8-3.6c-4.2,0-7.8,2.5-9.4,6.2l4.8,0L-84.5-83L-84.5-83z"/>
			<path id="Shape_4_" class="st2" d="M-68.5-79.5c0,6.3-5.1,11.4-11.4,11.4c-6.3,0-11.5-5.1-11.5-11.4c0-6.3,5.1-11.4,11.5-11.4
				C-73.7-91-68.5-85.8-68.5-79.5L-68.5-79.5z M-80-91.5c-6.6,0-12,5.4-12,12c0,6.6,5.4,12,12,12c6.6,0,12-5.4,12-12
				C-68-86.1-73.4-91.5-80-91.5L-80-91.5z"/>
		</g>
	</g>
</g>
</svg>
