<?xml version="1.0" encoding="utf-8"?>
<!-- Generator: Adobe Illustrator 19.2.0, SVG Export Plug-In . SVG Version: 6.00 Build 0)  -->
<svg version="1.1" id="Layer_1" xmlns:sketch="http://www.bohemiancoding.com/sketch/ns"
	 xmlns="http://www.w3.org/2000/svg" xmlns:xlink="http://www.w3.org/1999/xlink" x="0px" y="0px" viewBox="0 0 40 40"
	 style="enable-background:new 0 0 40 40;" xml:space="preserve">
<style type="text/css">
	.st0{fill:#0093BE;}
	.st1{fill:#FFFFFF;}
</style>
<title>yammer</title>
<desc>Created with Sketch.</desc>
<g id="Page-1" sketch:type="MSPage">
	<g id="yammer" sketch:type="MSLayerGroup">
		<path id="bg" sketch:type="MSShapeGroup" class="st0" d="M0,40h40V0H0V40z"/>
		<g id="icon" transform="translate(97.881202, 120.000000)" sketch:type="MSShapeGroup">
			<path id="path24860" class="st1" d="M-72.9-99.4C-71-99-69-98.8-67-98.7c0.7,0.1,1.3-0.6,1.3-1.2c0-0.7-0.6-1.3-1.3-1.2
				c-2,0.1-4,0.3-5.9,0.7c-0.3,0.1-1.2,0.2-1.2,0.5C-74.1-99.5-73.2-99.5-72.9-99.4L-72.9-99.4z"/>
			<path id="path24805" class="st1" d="M-88.9-110.4c-0.4,0-0.7,0.2-0.9,0.5c-0.2,0.3-0.3,0.7-0.1,1.1c0,0,1.6,4,3.1,8.1
				c0.8,2,1.6,4,2.2,5.6c-0.2,0.5-0.4,0.9-0.5,1.3c-0.1,0.3-0.2,0.4-0.3,0.6c-0.3,0.6-0.9,1-1.4,1.1c-0.9,0.1-1.9,0.1-1.9,0.1
				c-0.3,0-0.6,0.2-0.8,0.4c-0.2,0.2-0.3,0.5-0.3,0.8c0,0.3,0.2,0.6,0.4,0.8s0.5,0.3,0.8,0.3c0.9,0,1.2,0,2.4-0.2
				c1.8-0.5,2.7-1.6,3.3-3.1c0.2-0.5,0.5-1.2,0.8-2c0.6-1.6,1.4-3.7,2.2-5.7c1.6-4.1,3.1-8.1,3.1-8.1c0.1-0.4,0.1-0.8-0.1-1.1
				c-0.2-0.3-0.6-0.5-1-0.5c-0.2,0-0.4,0.1-0.6,0.2c-0.2,0.1-0.3,0.3-0.4,0.5c0,0-1.6,4-3.1,8.1c-0.4,1.1-0.9,2.2-1.3,3.3
				c-0.4-1.1-0.8-2.1-1.3-3.3c-1.6-4.1-3.1-8.1-3.1-8.1c-0.1-0.2-0.2-0.4-0.4-0.5C-88.4-110.3-88.6-110.4-88.9-110.4L-88.9-110.4
				L-88.9-110.4L-88.9-110.4z"/>
			<path id="path24858" class="st1" d="M-75.1-95.6c1.4,1.4,3.1,2.5,4.7,3.7c0.6,0.4,1.4,0.2,1.7-0.4c0.4-0.6,0.1-1.4-0.5-1.7
				c-1.8-0.9-3.5-1.8-5.4-2.5c-0.3-0.1-1.1-0.5-1.3-0.2C-76.1-96.3-75.4-95.8-75.1-95.6L-75.1-95.6z"/>
			<path id="path24862" class="st1" d="M-75.1-104.2c1.4-1.4,3.1-2.5,4.7-3.7c0.6-0.4,1.4-0.2,1.7,0.4c0.4,0.6,0.1,1.4-0.5,1.7
				c-1.8,0.9-3.5,1.8-5.4,2.5c-0.3,0.1-1.1,0.5-1.3,0.2C-76.1-103.5-75.4-104-75.1-104.2L-75.1-104.2z"/>
		</g>
	</g>
</g>
</svg>
