<svg xmlns="http://www.w3.org/2000/svg" viewBox="0 0 40 40"><path fill="#c8a051" d="M0 0h40v40H0z"/><path d="M30.1 18.2V18l-.4-.2c-.4-.2-2.3 0-2.8-.5-.4-.4-.4-.9-.5-1.8-.2-1.5-.4-1.6-.6-2.2-.8-2-3.4-3.4-4.9-3.5h-4.6c-3.6 0-6.5 2.9-6.5 6.5v7.6c0 3.5 2.9 6.5 6.5 6.5h7.5c3.6 0 6.5-2.9 6.5-6.5v-5.2l-.2-.5zm-13.7-3.1H20c.7 0 1.2.6 1.2 1.2 0 .7-.6 1.2-1.2 1.2h-3.6c-.7 0-1.2-.6-1.2-1.2-.1-.6.5-1.2 1.2-1.2zm7.3 9.8h-7.3c-.7 0-1.2-.6-1.2-1.2 0-.7.6-1.2 1.2-1.2h7.3c.7 0 1.2.6 1.2 1.2s-.5 1.2-1.2 1.2z" fill="#fff"/></svg>