<svg xmlns="http://www.w3.org/2000/svg" viewBox="0 0 40 40"><path fill="#0094e4" d="M0 0h40v40H0z"/><path d="M33 12c-1.1 0-2.1.8-2.3 1.8L20 10.3c0-.8-.6-1.4-1.4-1.4-.8 0-1.4.6-1.4 1.4 0 .4.1.7.4.9L6.3 24.1c-.1 0-.3-.1-.4-.1-.7 0-1.3.6-1.3 1.3 0 .7.6 1.3 1.3 1.3.5 0 .9-.3 1.1-.7l10.3 2.5v.5c0 1.3 1 2.3 2.3 2.3 1.2 0 2.3-1 2.3-2.3 0-.2 0-.5-.1-.7l7.9-3.2c.2.2.5.4.9.4.7 0 1.2-.6 1.2-1.2 0-.4-.2-.8-.5-1l1.3-6.3c.2.1.4.1.6.1 1.3 0 2.4-1.1 2.4-2.4-.2-1.5-1.3-2.6-2.6-2.6zm-13.6-.6l4.8 5.9-4.9 2-.3-7.7c.2-.1.3-.1.4-.2zm-.8.3l.3 7.8-2.2.9c-.1-.2-.2-.3-.4-.5l1.9-8.3c.1 0 .2.1.4.1zM16.8 21v-.3l2.1-.9.3 6.7c-.2 0-.4.1-.5.1L16.4 22c.3-.3.4-.6.4-1zm4.1 6c-.4-.3-.8-.4-1.3-.5l-.3-6.8 5.2-2.1 2.3 2.9-5.9 6.5zm3.9-9.5l5.9-2.4c.1.3.2.5.4.7l-4 4.4-2.3-2.7zm5.8-2.8l-6.1 2.5-4.9-6 .3-.6 10.7 3.5v.6zm-12.8-3.3L16 19.7c-.2-.1-.3-.1-.5-.1-.8 0-1.4.6-1.4 1.4 0 .1 0 .3.1.4l-7.4 3-.1-.1 11.1-12.9zM7.1 25.6v-.3c0-.2-.1-.4-.2-.6l7.3-3c.2.4.7.6 1.1.6.2 0 .5-.1.7-.2l2.2 4.7c-.4.3-.8.7-1 1.2L7.1 25.6zm14.4 2.3c-.1-.2-.3-.4-.4-.6l5.9-6.5 2.3 2.8c-.1.2-.1.4-.1.6 0 .2.1.4.2.6l-7.9 3.1zm9.3-5c-.1-.1-.3-.1-.4-.1-.4 0-.7.1-.9.4l-2.2-2.7 4-4.4c.2.2.5.4.8.6l-1.3 6.2z" fill="#fff"/></svg>