<?xml version="1.0" encoding="utf-8"?>
<!-- Generator: Adobe Illustrator 19.2.0, SVG Export Plug-In . SVG Version: 6.00 Build 0)  -->
<svg version="1.1" id="Layer_1" xmlns:sketch="http://www.bohemiancoding.com/sketch/ns"
	 xmlns="http://www.w3.org/2000/svg" xmlns:xlink="http://www.w3.org/1999/xlink" x="0px" y="0px" viewBox="0 0 40 40"
	 style="enable-background:new 0 0 40 40;" xml:space="preserve">
<style type="text/css">
	.st0{fill:#FFFFFF;}
	.st1{fill:#15A0B7;}
</style>
<title>share</title>
<desc>Created with Sketch.</desc>
<g id="Page-1" sketch:type="MSPage">
	<g id="share" sketch:type="MSLayerGroup">
		<path id="bg" sketch:type="MSShapeGroup" class="st0" d="M0,0v40h40V0H0L0,0z"/>
		<path id="icon" sketch:type="MSShapeGroup" class="st1" d="M22.4,24.5l-4.6-2.6c0.3-0.6,0.5-1.2,0.5-1.9c0-0.4-0.1-0.8-0.2-1.2
			l4.8-2.7c0.8,0.9,1.9,1.4,3.1,1.4c2.4,0,4.3-1.9,4.3-4.3S28.3,8.9,26,8.9c-2.4,0-4.3,1.9-4.3,4.3c0,0.4,0.1,0.8,0.2,1.2l-4.8,2.7
			c-0.8-0.8-1.9-1.4-3.1-1.4c-2.4,0-4.3,1.9-4.3,4.3c0,2.4,1.9,4.3,4.3,4.3c1,0,1.9-0.3,2.6-0.9l5.2,3c0,0.1,0,0.3,0,0.5
			c0,2.4,1.9,4.3,4.3,4.3c2.4,0,4.3-1.9,4.3-4.3s-1.9-4.3-4.3-4.3C24.5,22.6,23.1,23.3,22.4,24.5z"/>
	</g>
</g>
</svg>
