<svg xmlns="http://www.w3.org/2000/svg" viewBox="0 0 40 40"><path fill="#386cc7" d="M0 0h40v40H0z"/><path d="M17.3 19.9c.6-.2 1.2-.4 1.8-.7.1 0 .2 0 .2.1l1.5 4.2v.1c0 .1 0 .1-.1.1-.7.2-1.3.5-2 .7-.2.1-.2-.1-.2-.1-.2-.6-.5-1.2-.7-1.8-.3-.7-.5-1.5-.8-2.2 0-.3 0-.3.3-.4zm-3.2 1.2c.6-.2 1.3-.5 1.9-.7h.1c.1 0 .1 0 .1.1.5 1.3.9 2.5 1.4 3.8.1.1.1.3.2.4 0 .1 0 .2-.1.2-.6.2-1.2.5-1.9.7-.2.1-.2 0-.3-.1-.3-.9-.7-1.9-1-2.8-.2-.4-.3-.9-.5-1.3 0-.2 0-.3.1-.3zm6.3 10.7c-1.2.3-2.3.4-3.5.1-2-.4-3.6-1.6-4.6-3.4-.5-.8-.8-1.7-1.1-2.6-.1-.3-.2-.6-.4-1-.1-.1 0-.2.1-.3.9-.3 1.7-.6 2.6-.9.2-.1.2 0 .3.1.4 1 .7 2 1.3 3 .7 1.2 1.7 1.8 3 1.8 1.4.1 2.6-.4 3.4-1.6.7-1 .8-2.1.5-3.3-.2-.9-.5-1.7-.9-2.6-.1-.1-.1-.2.1-.3.9-.3 1.8-.6 2.6-1 .1 0 .2 0 .2.1.4 1.3 1 2.5 1.3 3.8.1.4.1.8.1 1 .2 3.3-1.9 6.3-5 7.1zm8.8-23.3c-.4.9-.8 1.8-1.1 2.7-.1.2-.1.2-.3.1-1.4-.5-2.7-.2-3.8.8-1.2 1-1.5 2.4-1.1 3.9.2.9.6 1.9.9 2.8.1.2 0 .2-.1.3-.9.3-1.8.6-2.6 1-.1 0-.2.1-.2-.1-.4-1.1-.8-2.2-1.1-3.3-.4-1.5-.3-3 .3-4.4 2.5-5.6 8.2-4.3 9.2-3.9-.1-.1-.1 0-.1.1z" fill="#fff"/></svg>