<?xml version="1.0" encoding="utf-8"?>
<!-- Generator: Adobe Illustrator 19.2.0, SVG Export Plug-In . SVG Version: 6.00 Build 0)  -->
<svg version="1.1" id="Layer_1" xmlns:sketch="http://www.bohemiancoding.com/sketch/ns"
	 xmlns="http://www.w3.org/2000/svg" xmlns:xlink="http://www.w3.org/1999/xlink" x="0px" y="0px" viewBox="0 0 40 40"
	 style="enable-background:new 0 0 40 40;" xml:space="preserve">
<style type="text/css">
	.st0{fill:#668E13;}
	.st1{fill:#FEFEFE;}
	.st2{fill:#FDFEFD;}
</style>
<title>spotify_hover</title>
<desc>Created with Sketch.</desc>
<g id="Page-1" sketch:type="MSPage">
	<g id="spotify_hover" sketch:type="MSLayerGroup">
		<rect id="bg" sketch:type="MSShapeGroup" class="st0" width="40" height="40">
		</rect>
		<g id="icon" transform="translate(120.000000, 120.000000)" sketch:type="MSShapeGroup">
			<path id="Shape" class="st1" d="M-100.6-110.4c5,0,9,2.8,10.4,6.9c1.4,4.1,0.1,8.8-3.2,11.4c-0.5,0.4-0.8,0.4-1.2-0.1
				c-3-3.8-8.8-4.6-12.7-1.6c-0.6,0.5-0.8,0.3-1.2-0.2c-2.3-3.5-2.6-7.1-0.7-10.8C-107.3-108.4-104.1-110.2-100.6-110.4
				L-100.6-110.4z"/>
			<path id="Shape_1_" class="st2" d="M-104.9-90.9c1.9-2,5.5-1.8,7,0.4c0.2,0.3,0.6,0.6-0.1,0.7C-100.5-89.4-102.8-89.7-104.9-90.9
				L-104.9-90.9z"/>
			<path id="Shape_2_" class="st0" d="M-93.2-102.1c-0.1-0.1-0.4-0.1-0.6-0.2c-3.7-1.8-7.5-2-11.4-1.2c-0.1,0-0.3,0.1-0.4,0.1
				c-0.6,0.1-1.1,0-1.3-0.7c-0.2-0.7,0.3-1,0.8-1.2c1.3-0.4,2.6-0.5,3.9-0.6c3.1-0.1,6.2,0.3,9,1.7c0.3,0.1,0.6,0.3,0.8,0.5
				c0.3,0.3,0.4,0.7,0.2,1.1C-92.3-102.2-92.7-102-93.2-102.1L-93.2-102.1z"/>
			<path id="Shape_3_" class="st0" d="M-101.4-102.4c2.5,0,4.9,0.5,7.1,1.8c0.5,0.3,1,0.6,0.7,1.3c-0.4,0.7-0.9,0.5-1.4,0.2
				c-3.1-1.6-6.3-1.9-9.7-1.2c-0.1,0-0.2,0-0.3,0.1c-0.5,0.1-1,0.1-1.2-0.5c-0.1-0.6,0.2-0.9,0.8-1
				C-104.1-102.2-102.8-102.4-101.4-102.4L-101.4-102.4z"/>
			<path id="Shape_4_" class="st0" d="M-101.1-98.9c1.8,0,3.8,0.4,5.6,1.4c0.4,0.2,0.9,0.5,0.6,1c-0.3,0.5-0.8,0.3-1.2,0.1
				c-2.6-1.4-5.3-1.5-8.2-1c-0.2,0-0.4,0.1-0.6,0.1c-0.4,0.1-0.8,0-0.9-0.5c-0.1-0.5,0.3-0.7,0.7-0.8
				C-103.8-98.7-102.6-98.9-101.1-98.9L-101.1-98.9z"/>
		</g>
	</g>
</g>
</svg>
