<svg width="460" height="345" viewBox="0 0 460 345" fill="none" xmlns="http://www.w3.org/2000/svg">
<path fill-rule="evenodd" clip-rule="evenodd" d="M251.857 111.722C244.084 107.316 235.301 105 226.366 105L226.366 117.574C247.971 117.574 265.486 135.089 265.486 156.694C265.486 178.299 247.971 195.814 226.366 195.814C212.775 195.814 200.803 188.884 193.791 178.365L183.326 185.327C188.275 192.766 195.068 198.796 203.042 202.827C211.016 206.859 219.899 208.755 228.824 208.33C237.749 207.905 246.412 205.174 253.967 200.403C261.522 195.632 267.711 188.985 271.931 181.109C276.151 173.233 278.258 164.397 278.045 155.465C277.833 146.532 275.308 137.807 270.719 130.14C266.129 122.474 259.63 116.128 251.857 111.722Z" fill="#004494"/>
<path fill-rule="evenodd" clip-rule="evenodd" d="M154 240.048H305V224.048H154V240.048Z" fill="#CFCFCF"/>
</svg>