<?xml version="1.0" encoding="UTF-8"?>
<svg width="460px" height="345px" viewBox="0 0 460 345" version="1.1" xmlns="http://www.w3.org/2000/svg" xmlns:xlink="http://www.w3.org/1999/xlink">
    <!-- Generator: Sketch 55 (78076) - https://sketchapp.com -->
    <title>ec_component</title>
    <desc>Created with Sketch.</desc>
    <g id="Symbols" stroke="none" stroke-width="1" fill="none" fill-rule="evenodd">
        <g id="ecl-component-library">
            <g id="button" transform="translate(160.000000, 148.000000)">
                <g id="Group-7-Copy">
                    <rect id="Rectangle" fill="#004494" x="0" y="0" width="140" height="50"></rect>
                    <g id="Group-11" transform="translate(45.000000, 16.000000)" fill="#FFFFFF" fill-rule="nonzero">
                        <g id="Group-13">
                            <path d="M1.93554688,2.97851562 L5.94140625,2.97851562 C6.73437896,2.97851562 7.32568165,3.01155566 7.71533203,3.07763672 C8.10498242,3.14371778 8.45361174,3.28157447 8.76123047,3.49121094 C9.06884919,3.7008474 9.32519429,3.97997873 9.53027344,4.32861328 C9.73535259,4.67724784 9.83789062,5.06803169 9.83789062,5.50097656 C9.83789062,5.97037995 9.71142705,6.40103971 9.45849609,6.79296875 C9.20556514,7.18489779 8.86263237,7.47884017 8.4296875,7.67480469 C9.04036764,7.85253995 9.50976398,8.15559682 9.83789062,8.58398438 C10.1660173,9.01237193 10.3300781,9.51594763 10.3300781,10.0947266 C10.3300781,10.550458 10.2241222,10.9936502 10.012207,11.4243164 C9.80029191,11.8549826 9.51090678,12.1990547 9.14404297,12.456543 C8.77717916,12.7140312 8.32487248,12.8723955 7.78710938,12.9316406 C7.44986811,12.9680991 6.63639968,12.9908854 5.34667969,13 L1.93554688,13 L1.93554688,2.97851562 Z M3.95898438,4.64648438 L3.95898438,6.96386719 L5.28515625,6.96386719 C6.07357165,6.96386719 6.56347561,6.95247407 6.75488281,6.9296875 C7.10123871,6.88867167 7.37353417,6.76904396 7.57177734,6.57080078 C7.77002052,6.3725576 7.86914062,6.11165526 7.86914062,5.78808594 C7.86914062,5.47818855 7.78369226,5.22640071 7.61279297,5.03271484 C7.44189368,4.83902898 7.18782721,4.72167989 6.85058594,4.68066406 C6.6500641,4.65787749 6.07357247,4.64648438 5.12109375,4.64648438 L3.95898438,4.64648438 Z M3.95898438,8.63183594 L3.95898438,11.3115234 L5.83203125,11.3115234 C6.56120156,11.3115234 7.02376204,11.2910158 7.21972656,11.25 C7.52050932,11.1953122 7.76546129,11.0620128 7.95458984,10.8500977 C8.14371839,10.6381825 8.23828125,10.354494 8.23828125,9.99902344 C8.23828125,9.69824068 8.16536531,9.4430349 8.01953125,9.23339844 C7.87369719,9.02376197 7.66292456,8.87109423 7.38720703,8.77539062 C7.11148951,8.67968702 6.51335096,8.63183594 5.59277344,8.63183594 L3.95898438,8.63183594 Z M16.8037109,13 L16.8037109,11.9130859 C16.5393867,12.3004577 16.1918967,12.6057932 15.7612305,12.8291016 C15.3305643,13.05241 14.875979,13.1640625 14.3974609,13.1640625 C13.9098283,13.1640625 13.4723327,13.0569672 13.0849609,12.8427734 C12.6975892,12.6285797 12.4173186,12.3278014 12.2441406,11.9404297 C12.0709627,11.553058 11.984375,11.0175815 11.984375,10.3339844 L11.984375,5.74023438 L13.9052734,5.74023438 L13.9052734,9.07617188 C13.9052734,10.0970103 13.9405921,10.7224923 14.0112305,10.9526367 C14.0818688,11.1827811 14.210611,11.3650709 14.3974609,11.4995117 C14.5843108,11.6339525 14.8212876,11.7011719 15.1083984,11.7011719 C15.4365251,11.7011719 15.7304675,11.6111663 15.9902344,11.4311523 C16.2500013,11.2511384 16.4277339,11.0278334 16.5234375,10.7612305 C16.6191411,10.4946276 16.6669922,9.84180207 16.6669922,8.80273438 L16.6669922,5.74023438 L18.5878906,5.74023438 L18.5878906,13 L16.8037109,13 Z M23.90625,5.74023438 L23.90625,7.27148438 L22.59375,7.27148438 L22.59375,10.1972656 C22.59375,10.7897165 22.6062824,11.1349279 22.6313477,11.2329102 C22.6564129,11.3308924 22.7133785,11.4117835 22.8022461,11.4755859 C22.8911137,11.5393883 22.9993483,11.5712891 23.1269531,11.5712891 C23.3046884,11.5712891 23.5621728,11.5097662 23.8994141,11.3867188 L24.0634766,12.8769531 C23.6168597,13.0683603 23.1110054,13.1640625 22.5458984,13.1640625 C22.1995425,13.1640625 21.8873712,13.1059576 21.609375,12.9897461 C21.3313788,12.8735346 21.1274421,12.7231455 20.9975586,12.5385742 C20.8676751,12.354003 20.7776695,12.1044938 20.7275391,11.7900391 C20.6865232,11.5667307 20.6660156,11.1155633 20.6660156,10.4365234 L20.6660156,7.27148438 L19.7841797,7.27148438 L19.7841797,5.74023438 L20.6660156,5.74023438 L20.6660156,4.29785156 L22.59375,3.17675781 L22.59375,5.74023438 L23.90625,5.74023438 Z M28.5683594,5.74023438 L28.5683594,7.27148438 L27.2558594,7.27148438 L27.2558594,10.1972656 C27.2558594,10.7897165 27.2683918,11.1349279 27.293457,11.2329102 C27.3185223,11.3308924 27.3754878,11.4117835 27.4643555,11.4755859 C27.5532231,11.5393883 27.6614577,11.5712891 27.7890625,11.5712891 C27.9667978,11.5712891 28.2242822,11.5097662 28.5615234,11.3867188 L28.7255859,12.8769531 C28.2789691,13.0683603 27.7731148,13.1640625 27.2080078,13.1640625 C26.8616519,13.1640625 26.5494806,13.1059576 26.2714844,12.9897461 C25.9934882,12.8735346 25.7895514,12.7231455 25.659668,12.5385742 C25.5297845,12.354003 25.4397789,12.1044938 25.3896484,11.7900391 C25.3486326,11.5667307 25.328125,11.1155633 25.328125,10.4365234 L25.328125,7.27148438 L24.4462891,7.27148438 L24.4462891,5.74023438 L25.328125,5.74023438 L25.328125,4.29785156 L27.2558594,3.17675781 L27.2558594,5.74023438 L28.5683594,5.74023438 Z M29.4570312,9.26757812 C29.4570312,8.6295541 29.6142562,8.01204726 29.9287109,7.41503906 C30.2431656,6.81803087 30.6886364,6.36230626 31.2651367,6.04785156 C31.841637,5.73339687 32.485348,5.57617188 33.1962891,5.57617188 C34.2946018,5.57617188 35.1946579,5.93277638 35.8964844,6.64599609 C36.5983108,7.35921581 36.9492188,8.26041122 36.9492188,9.34960938 C36.9492188,10.4479222 36.5948929,11.3582321 35.8862305,12.0805664 C35.1775681,12.8029007 34.2854871,13.1640625 33.2099609,13.1640625 C32.544593,13.1640625 31.9099965,13.0136734 31.3061523,12.7128906 C30.7023082,12.4121079 30.2431656,11.9711943 29.9287109,11.3901367 C29.6142562,10.8090791 29.4570312,10.1015667 29.4570312,9.26757812 Z M31.4257812,9.37011719 C31.4257812,10.0901729 31.596678,10.6415996 31.9384766,11.0244141 C32.2802751,11.4072285 32.7018204,11.5986328 33.203125,11.5986328 C33.7044296,11.5986328 34.1248355,11.4072285 34.4643555,11.0244141 C34.8038754,10.6415996 34.9736328,10.0856156 34.9736328,9.35644531 C34.9736328,8.64550426 34.8038754,8.09863473 34.4643555,7.71582031 C34.1248355,7.3330059 33.7044296,7.14160156 33.203125,7.14160156 C32.7018204,7.14160156 32.2802751,7.3330059 31.9384766,7.71582031 C31.596678,8.09863473 31.4257812,8.6500615 31.4257812,9.37011719 Z M45.0566406,13 L43.1357422,13 L43.1357422,9.29492188 C43.1357422,8.51106379 43.094727,8.00407016 43.0126953,7.77392578 C42.9306637,7.5437814 42.7973642,7.36490949 42.612793,7.23730469 C42.4282217,7.10969988 42.206056,7.04589844 41.9462891,7.04589844 C41.6136051,7.04589844 41.3151055,7.13704336 41.0507812,7.31933594 C40.786457,7.50162852 40.6053065,7.74316256 40.5073242,8.04394531 C40.409342,8.34472807 40.3603516,8.90071209 40.3603516,9.71191406 L40.3603516,13 L38.4394531,13 L38.4394531,5.74023438 L40.2236328,5.74023438 L40.2236328,6.80664062 C40.8570995,5.98632402 41.6546176,5.57617188 42.6162109,5.57617188 C43.0400412,5.57617188 43.4274071,5.65250575 43.7783203,5.80517578 C44.1292335,5.95784582 44.3946931,6.15266809 44.574707,6.38964844 C44.754721,6.62662879 44.8800452,6.89550631 44.9506836,7.19628906 C45.021322,7.49707182 45.0566406,7.92773157 45.0566406,8.48828125 L45.0566406,13 Z" id="Button"></path>
                        </g>
                    </g>
                </g>
            </g>
        </g>
    </g>
</svg>
