<?xml version="1.0" encoding="UTF-8"?>
<svg width="140px" height="50px" viewBox="0 0 140 50" version="1.1" xmlns="http://www.w3.org/2000/svg" xmlns:xlink="http://www.w3.org/1999/xlink">
    <!-- Generator: Sketch 55.1 (78136) - https://sketchapp.com -->
    <title>button</title>
    <desc>Created with Sketch.</desc>
    <g id="thumbnails---final" stroke="none" stroke-width="1" fill="none" fill-rule="evenodd">
        <g id="thumbnails---final_symbols" transform="translate(-1140.000000, -168.000000)">
            <g id="Group-2" transform="translate(20.000000, 20.000000)">
                <g id="Group">
                    <g id="ec_comp_buttons" transform="translate(960.000000, 0.000000)">
                        <g id="button" transform="translate(160.000000, 148.000000)">
                            <g id="Group-7-Copy" stroke-width="1">
                                <rect id="Rectangle" fill="#FFD617" x="0" y="0" width="140" height="50"></rect>
                                <g id="Group-11" transform="translate(97.000000, 18.000000)" fill="#000000" fill-rule="nonzero">
                                    <g id="Group-13">
                                        <path d="M0.68359212,0.789089229 C0.73827949,0.734401859 0.811196122,0.707058175 0.902341599,0.707058175 C0.993487076,0.707058175 1.07551813,0.734401859 1.14843476,0.789089229 L6.86326489,6.53126304 C6.93618152,6.58595041 6.97263963,6.65886704 6.97263963,6.75001252 C6.97263963,6.84115799 6.93618152,6.91407463 6.86326489,6.968762 L1.14843476,12.7109358 C1.07551813,12.7656232 0.993487076,12.7929669 0.902341599,12.7929669 C0.811196122,12.7929669 0.73827949,12.7656232 0.68359212,12.7109358 L0.136718424,12.1640621 C0.0638017921,12.1093747 0.0273436848,12.0364581 0.0273436848,11.9453126 C0.0273436848,11.8541672 0.0638017921,11.7721361 0.136718424,11.6992195 L5.08592537,6.75001252 L0.136718424,1.80080557 C0.0638017921,1.72788893 0.0273436848,1.64585788 0.0273436848,1.5547124 C0.0273436848,1.46356693 0.0638017921,1.39065029 0.136718424,1.33596293 L0.68359212,0.789089229 Z" id="ï”" transform="translate(3.499992, 6.750013) rotate(-360.000000) translate(-3.499992, -6.750013) "></path>
                                    </g>
                                </g>
                            </g>
                            <polygon id="Fill-10" fill="#000000" points="35 30 92 30 92 20 35 20"></polygon>
                        </g>
                    </g>
                </g>
            </g>
        </g>
    </g>
</svg>