<svg xmlns="http://www.w3.org/2000/svg" viewBox="0 0 20 20"><path d="M14.1 12.9L11.2 10l2.9-2.9-1.2-1.2L10 8.8 7.1 5.9 5.9 7.1 8.8 10l-2.9 2.9 1.2 1.2 2.9-2.9 2.9 2.9z"/><path d="M19.2 6.1c-.5-1.2-1.2-2.3-2.1-3.2-.9-.9-2-1.6-3.2-2.1C12.7.3 11.4 0 10 0S7.3.3 6.1.8C4.9 1.3 3.8 2 2.9 2.9c-.9 1-1.6 2-2.1 3.2C.3 7.3 0 8.6 0 10s.3 2.7.8 3.9c.5 1.2 1.2 2.3 2.1 3.2.9.9 2 1.6 3.2 2.1 1.2.5 2.5.8 3.9.8s2.7-.3 3.9-.8c1.2-.5 2.3-1.2 3.2-2.1.9-.9 1.6-2 2.1-3.2.5-1.2.8-2.5.8-3.9s-.3-2.7-.8-3.9zm-.4 3.9c0 2.4-.9 4.6-2.6 6.2-1.7 1.7-3.9 2.6-6.2 2.6-2.4 0-4.6-.9-6.2-2.6-1.7-1.7-2.6-3.9-2.6-6.2s.9-4.6 2.6-6.2C5.4 2.1 7.6 1.2 10 1.2s4.6.9 6.2 2.6c1.7 1.6 2.6 3.8 2.6 6.2z"/></svg>