<svg id="Layer_1" xmlns="http://www.w3.org/2000/svg" width="36" height="36" viewBox="0 0 36 36"><style>.st0{fill:#ffc412}</style><title>Artboard Copy 4</title><g id="Page-1"><g id="Artboard-Copy-4"><g id="live_streaming" transform="translate(1 4)"><g id="cast-copy-2_1_"><g id="Event-detail-page"><g id="Event_during"><g id="Group-9"><g id="cast-copy-2"><path id="Shape" class="st0" d="M30.9 0H3.1C1.4 0 0 1.4 0 3.1v4.6h3.1V3.1h27.8v21.6H20.1v3.1h10.8c1.7 0 3.1-1.4 3.1-3.1V3.1C34 1.4 32.6 0 30.9 0zM0 23.2v4.6h4.6c0-2.6-2-4.6-4.6-4.6zM0 17v3.1c4.3 0 7.7 3.4 7.7 7.7h3.1C10.8 21.8 6 17 0 17zm0-6.2v3.1c7.7 0 13.9 6.2 13.9 13.9H17c0-9.4-7.6-17-17-17z"/></g></g></g></g></g></g></g></g></svg>