<?xml version="1.0" encoding="utf-8"?>
<!-- Generator: Adobe Illustrator 19.2.0, SVG Export Plug-In . SVG Version: 6.00 Build 0)  -->
<svg version="1.1" id="Layer_1" xmlns:sketch="http://www.bohemiancoding.com/sketch/ns"
	 xmlns="http://www.w3.org/2000/svg" xmlns:xlink="http://www.w3.org/1999/xlink" x="0px" y="0px" viewBox="0 0 40 40"
	 style="enable-background:new 0 0 40 40;" xml:space="preserve">
<style type="text/css">
	.st0{fill:#EB4924;}
	.st1{fill:#FFFFFF;}
</style>
<title>stumbleupon</title>
<desc>Created with Sketch.</desc>
<g id="Page-1" sketch:type="MSPage">
	<g id="stumbleupon" sketch:type="MSLayerGroup">
		<path id="bg" sketch:type="MSShapeGroup" class="st0" d="M0,0v40h40V0H0L0,0z"/>
		<path id="icon" sketch:type="MSShapeGroup" class="st1" d="M18.6,24.5v-8.6c0-2.1,2.8-2.1,2.8,0v1.5l1.8,0.8l2.7-0.8v-2
			c-0.3-7.6-11.8-7.8-12,0.2v8.5c-0.2,1.6-2.6,1.8-2.8,0l-0.1-3.8H6.6l0,4C7.2,32.4,18.2,31.9,18.6,24.5L18.6,24.5L18.6,24.5z
			 M33.4,24.3v-3.8h-4.6v3.9c-0.1,1.7-2.7,1.8-2.8,0v-3.8l-2.7,0.8l-1.9-0.9v4C21.7,31.7,32.8,32.6,33.4,24.3L33.4,24.3L33.4,24.3z"
			/>
	</g>
</g>
</svg>
