<?xml version="1.0" encoding="UTF-8" standalone="no"?>
<svg width="40px" height="40px" viewBox="0 0 40 40" version="1.1" xmlns="http://www.w3.org/2000/svg" xmlns:xlink="http://www.w3.org/1999/xlink" xmlns:sketch="http://www.bohemiancoding.com/sketch/ns">
    <!-- Generator: Sketch 3.5.2 (25235) - http://www.bohemiancoding.com/sketch -->
    <title>Linkedin_hover</title>
    <desc>Created with Sketch.</desc>
    <defs></defs>
    <g id="Icon" stroke="none" stroke-width="1" fill="none" fill-rule="evenodd" sketch:type="MSPage">
        <g id="Social-media-Icons" sketch:type="MSArtboardGroup" transform="translate(-77.000000, -297.000000)">
            <g id="Linkedin_hover" sketch:type="MSLayerGroup" transform="translate(77.000000, 297.000000)">
                <path d="M0,40 L40,40 L40,0 L0,0 L0,40 Z" id="bg" fill="#196BA0" sketch:type="MSShapeGroup"></path>
                <path d="M13.802749,30.4902621 L9.38076702,30.4902621 L9.38076702,16.3079203 L13.802749,16.3079203 L13.802749,30.4902621 L13.802749,30.4902621 Z M11.5350659,14.6060393 L11.5350659,14.6060393 C9.94768778,14.6060393 8.81384625,13.5849106 8.81384625,12.2234058 C8.81384625,10.861901 9.83430363,9.84077241 11.5350659,9.84077241 C13.1224441,9.84077241 14.2562856,10.861901 14.2562856,12.2234058 C14.2562856,13.5849106 13.2358282,14.6060393 11.5350659,14.6060393 L11.5350659,14.6060393 Z M31.4906768,30.4902621 L26.3883899,30.4902621 L26.3883899,23.1154443 C26.3883899,21.3001046 25.5947009,19.9385998 23.8939386,19.9385998 C22.5333287,19.9385998 21.8530238,20.8462696 21.5128714,21.6404808 L21.5128714,22.8885269 L21.5128714,30.4902621 L16.5239686,30.4902621 L16.5239686,16.3079203 L21.5128714,16.3079203 L21.5128714,18.577095 C21.7396397,17.6694251 23.3270178,16.1944615 25.9348533,16.1944615 C29.1096096,16.1944615 31.4906768,18.2367188 31.4906768,22.5481507 L31.4906768,30.4902621 L31.4906768,30.4902621 Z" id="icon" fill="#FFFFFF" sketch:type="MSShapeGroup"></path>
            </g>
        </g>
    </g>
</svg>