<?xml version="1.0" encoding="utf-8"?>
<!-- Generator: Adobe Illustrator 19.2.0, SVG Export Plug-In . SVG Version: 6.00 Build 0)  -->
<svg version="1.1" id="Layer_1" xmlns:sketch="http://www.bohemiancoding.com/sketch/ns"
	 xmlns="http://www.w3.org/2000/svg" xmlns:xlink="http://www.w3.org/1999/xlink" x="0px" y="0px" viewBox="0 0 40 40"
	 style="enable-background:new 0 0 40 40;" xml:space="preserve">
<style type="text/css">
	.st0{fill:#0A50B4;}
	.st1{fill-opacity:0.3;}
	.st2{fill:#EE0000;}
	.st3{fill:#FFFFFF;}
</style>
<title>studivz_hover</title>
<desc>Created with Sketch.</desc>
<g id="Page-1" sketch:type="MSPage">
	<g id="studivz_hover" sketch:type="MSLayerGroup">
		<g id="bg">
			<g sketch:type="MSShapeGroup">
				<rect id="path-1" class="st0" width="40" height="40"/>
			</g>
			<g>
				<rect id="path-1_1_" class="st1" width="40" height="40"/>
			</g>
		</g>
		<g id="icon" transform="translate(115.500000, 130.000000)" sketch:type="MSShapeGroup">
			<path id="Shape" class="st2" d="M-93.4-111.9c0.6-0.8,1.1-1.8,1.1-1.9c-0.1-0.1-1.3,0.1-2.4,0.4c-0.2-0.8-0.6-1.6-0.7-1.6
				c-0.1,0-1,0.8-1.6,1.6c-0.8-0.3-1.8-0.6-1.9-0.5c-0.1,0.1-0.2,1-0.1,1.8c-1,0.3-2.1,0.8-2.2,0.9c0,0.1,0.7,0.7,1.5,1.1
				c-0.6,0.8-1.2,1.9-1.2,1.9c0.1,0.1,1.3-0.1,2.3-0.3c0.1,0.9,0.5,2,0.6,2c0.1,0,1.1-0.9,1.8-1.8c0.9,0.4,2.1,0.8,2.2,0.7
				c0.1-0.1,0.1-1.2,0-2.2c1.1-0.3,2.4-0.9,2.4-1C-91.5-110.8-92.5-111.5-93.4-111.9L-93.4-111.9z"/>
			<path id="Shape_1_" class="st3" d="M-84.8-110.3c0-0.2-2.4-1.8-4.6-2.7c1.3-1.8,2.4-4.1,2.2-4.2c-0.2-0.1-3.1,0.3-5.4,1
				c-0.4-1.6-1.3-3.3-1.6-3.3c-0.2,0-2.1,1.7-3.4,3.3c-1.7-0.7-3.8-1.1-4-0.9c-0.2,0.1-0.5,2.1-0.3,3.8c-2.1,0.6-4.4,1.7-4.5,1.9
				c-0.1,0.2,1.4,1.5,2.9,2.4c-1.5,1.8-2.9,4.2-2.8,4.4c0.1,0.2,2.8,0,5.1-0.6c0.2,2.2,1,4.8,1.3,4.9c0.3,0,2.6-2.2,4.2-4.3
				c2.1,1.2,5.2,2.2,5.4,2c0.3-0.2,0.2-3.1-0.4-5.4C-87.8-108.8-84.8-110.1-84.8-110.3L-84.8-110.3z M-91.4-110.7
				c-0.2,0.7,0.8,2.5,0.8,2.5s-2.5,0.2-3.2,0.7c-0.7,0.4-1.7,2.6-1.7,2.6s-1.6-1.4-2.4-1.5c-0.7-0.1-2.9,0.9-2.9,0.9
				s0.2-2.1-0.1-2.6c-0.3-0.5-2.2-1-2.2-1s1.7-1.5,1.9-2.1c0.2-0.6-0.4-2.1-0.4-2.1s2.1-0.3,2.6-0.7c0.6-0.4,1.5-2.1,1.5-2.1
				s1.4,1,2.1,1c0.7,0,2.8-0.9,2.8-0.9s0,1.8,0.4,2.2c0.4,0.4,2.7,0.9,2.7,0.9S-91.2-111.4-91.4-110.7L-91.4-110.7z"/>
		</g>
	</g>
</g>
</svg>
