<svg width="24" height="24" xmlns="http://www.w3.org/2000/svg" xmlns:xlink="http://www.w3.org/1999/xlink"><defs><path d="M17.662 5.049c.692 0 1.338.682 1.338 1.298v15.399c0 .638-.692 1.254-1.338 1.254H8.32c-.761 0-1.407-.66-1.407-1.254V8.217l3.367-3.124h7.38V5.05zm0 1.298h-6.043v1.958c0 .66-.692 1.254-1.292 1.254H8.274v12.187h9.387V6.347zm0-1.298c.692 0 1.338.682 1.338 1.298v15.399c0 .638-.692 1.254-1.338 1.254H8.32c-.761 0-1.407-.66-1.407-1.254V8.217l3.367-3.124h7.38V5.05zM6.406 17.478V5.686h2.1c.692 0 1.407-.594 1.407-1.298V2.342h6.296v2.266h1.408V2.342c0-.682-.715-1.342-1.454-1.342H8.506L5 4.256V17.52c0 .572.646 1.254 1.407 1.298v-1.342z" id="a"/></defs><use xlink:href="#a"/></svg>