<svg width="24" height="24" xmlns="http://www.w3.org/2000/svg" xmlns:xlink="http://www.w3.org/1999/xlink"><defs><path d="M22.457 20.018L17.67 15.46l-.065-.063a8.322 8.322 0 0 0 1.493-4.746C19.097 5.864 15.034 2 10.048 2 5.063 2 1 5.843 1 10.63c0 4.789 4.063 8.653 9.048 8.653a9.284 9.284 0 0 0 4.964-1.428l.065.063 4.766 4.578a1.946 1.946 0 0 0 2.613 0c.725-.672.725-1.785 0-2.478h.001zM10.05 16.28c-3.272 0-5.908-2.52-5.908-5.65 0-3.128 2.636-5.648 5.908-5.648 3.25 0 5.908 2.52 5.908 5.649S13.3 16.28 10.05 16.28z" id="a"/></defs><use xlink:href="#a"/></svg>