<svg width="24" height="24" xmlns="http://www.w3.org/2000/svg" xmlns:xlink="http://www.w3.org/1999/xlink"><defs><path d="M1 3.75C1 2.228 2.18 1 3.64 1h16.72C21.82 1 23 2.227 23 3.75v16.5c0 1.522-1.18 2.75-2.64 2.75H3.64C2.18 23 1 21.772 1 20.25V3.75zm1.76 10.083h4.4v-2.75h-4.4v2.75zm0 3.668h4.4V14.75h-4.4v2.75zm4.4 3.664v-2.748h-4.4v.916c0 1.523.298 1.832 1.76 1.832h2.64zm14.08-2.748H8.04v2.748h11.44c1.46 0 1.76-.31 1.76-1.832v-.916zM8.04 17.5h13.2v-2.75H8.04v2.75zm0-3.667h13.2v-2.75H8.04v2.75zm0-3.665h13.2V6.5H8.04v3.668zm-5.28 0h4.4V6.5h-4.4v3.668z" id="a"/></defs><use xlink:href="#a"/></svg>