<?xml version="1.0" encoding="UTF-8"?>
<svg width="460px" height="345px" viewBox="0 0 460 345" version="1.1" xmlns="http://www.w3.org/2000/svg" xmlns:xlink="http://www.w3.org/1999/xlink">
    <title>eu_comp_facts_and_figures</title>
    <g id="thumbnails---final" stroke="none" stroke-width="1" fill="none" fill-rule="evenodd">
        <g id="EU-thumbnails---final_symbols" transform="translate(-500.000000, -3305.000000)">
            <g id="eu_comp_facts_and_figures" transform="translate(500.000000, 3305.000000)">
                <g id="Group" transform="translate(30.000000, 111.000000)">
                    <rect id="Rectangle" fill="#F3F6FC" x="0" y="0" width="400" height="124" rx="8"></rect>
                    <polygon id="Fill-8" fill="#CFCFCF" points="23 57 108 57 108 47 23 47"></polygon>
                    <polygon id="Fill-8" fill="#CFCFCF" points="23 77 108 77 108 67 23 67"></polygon>
                    <polygon id="Fill-8" fill="#CFCFCF" points="23 97 108 97 108 87 23 87"></polygon>
                    <polygon id="Fill-8-Copy-3" fill="#444444" points="23 39 63 39 63 29 23 29"></polygon>
                    <polygon id="Fill-8" fill="#CFCFCF" points="158 57 243 57 243 47 158 47"></polygon>
                    <polygon id="Fill-8" fill="#CFCFCF" points="158 77 243 77 243 67 158 67"></polygon>
                    <polygon id="Fill-8" fill="#CFCFCF" points="158 97 243 97 243 87 158 87"></polygon>
                    <polygon id="Fill-8-Copy-3" fill="#444444" points="158 39 198 39 198 29 158 29"></polygon>
                    <polygon id="Fill-8" fill="#CFCFCF" points="293 57 378 57 378 47 293 47"></polygon>
                    <polygon id="Fill-8" fill="#CFCFCF" points="293 77 378 77 378 67 293 67"></polygon>
                    <polygon id="Fill-8" fill="#CFCFCF" points="293 97 378 97 378 87 293 87"></polygon>
                    <polygon id="Fill-8-Copy-3" fill="#444444" points="293 39 333 39 333 29 293 29"></polygon>
                    <polygon id="Fill-8-Copy-6" fill="#0E47CB" points="23 23 33 23 33 13 23 13"></polygon>
                    <polygon id="Fill-8-Copy-5" fill="#0E47CB" points="158 23 168 23 168 13 158 13"></polygon>
                    <polygon id="Fill-8-Copy-4" fill="#0E47CB" points="293 23 303 23 303 13 293 13"></polygon>
                </g>
            </g>
        </g>
    </g>
</svg>