<?xml version="1.0" encoding="UTF-8"?>
<svg width="460px" height="345px" viewBox="0 0 460 345" version="1.1" xmlns="http://www.w3.org/2000/svg" xmlns:xlink="http://www.w3.org/1999/xlink">
    <title>ec_comp_breadcrumb</title>
    <g id="thumbnails---final" stroke="none" stroke-width="1" fill="none" fill-rule="evenodd">
        <g id="thumbnails---final_symbols" transform="translate(-20.000000, -2210.000000)">
            <g id="ec_comp_breadcrumb" transform="translate(20.000000, 2210.000000)">
                <g id="Group-7-Copy" transform="translate(40.000000, 138.000000)">
                    <rect id="Rectangle" fill="#044695" x="0" y="0" width="380" height="70"></rect>
                    <g id="Stacked-Group" transform="translate(67.000000, 30.000000)">
                        <polygon id="Fill-10" fill="#BFD0E4" points="190 10 247 10 247 0 190 0"></polygon>
                        <polygon id="Fill-10" fill="#FFFFFF" points="0 10 57 10 57 0 0 0"></polygon>
                        <polygon id="Fill-10-Copy" fill="#FFFFFF" points="95 10 152 10 152 0 95 0"></polygon>
                        <path d="M168.566929,0.0678733032 C168.614173,0.0226244344 168.677165,0 168.755906,0 C168.834646,0 168.905512,0.0226244344 168.968504,0.0678733032 L173.905512,4.81900452 C173.968504,4.86425339 174,4.92458533 174,5 C174,5.07541467 173.968504,5.13574661 173.905512,5.18099548 L168.968504,9.9321267 C168.905512,9.97737557 168.834646,10 168.755906,10 C168.677165,10 168.614173,9.97737557 168.566929,9.9321267 L168.094488,9.47963801 C168.031496,9.43438914 168,9.3740572 168,9.29864253 C168,9.22322787 168.031496,9.15535456 168.094488,9.09502262 L172.370079,5 L168.094488,0.904977376 C168.031496,0.844645435 168,0.776772132 168,0.701357466 C168,0.6259428 168.031496,0.56561086 168.094488,0.520361991 L168.566929,0.0678733032 Z" id="" fill="#FFFFFF" fill-rule="nonzero" transform="translate(171.000000, 5.000000) rotate(-360.000000) translate(-171.000000, -5.000000) "></path>
                        <path d="M73.5669291,0.0678733032 C73.6141732,0.0226244344 73.6771655,0 73.7559055,0 C73.8346455,0 73.9055117,0.0226244344 73.9685039,0.0678733032 L78.9055118,4.81900452 C78.9685041,4.86425339 79,4.92458533 79,5 C79,5.07541467 78.9685041,5.13574661 78.9055118,5.18099548 L73.9685039,9.9321267 C73.9055117,9.97737557 73.8346455,10 73.7559055,10 C73.6771655,10 73.6141732,9.97737557 73.5669291,9.9321267 L73.0944882,9.47963801 C73.0314959,9.43438914 73,9.3740572 73,9.29864253 C73,9.22322787 73.0314959,9.15535456 73.0944882,9.09502262 L77.3700787,5 L73.0944882,0.904977376 C73.0314959,0.844645435 73,0.776772132 73,0.701357466 C73,0.6259428 73.0314959,0.56561086 73.0944882,0.520361991 L73.5669291,0.0678733032 Z" id="" fill="#FFFFFF" fill-rule="nonzero" transform="translate(76.000000, 5.000000) rotate(-360.000000) translate(-76.000000, -5.000000) "></path>
                    </g>
                </g>
            </g>
        </g>
    </g>
</svg>