<svg width="460" height="345" viewBox="0 0 460 345" fill="none" xmlns="http://www.w3.org/2000/svg">
<rect width="161.151" height="26.8585" transform="translate(149 61)" fill="white"/>
<rect x="149" y="87.8584" width="161.151" height="142.887" fill="#F3F6FC"/>
<path fill-rule="evenodd" clip-rule="evenodd" d="M159.55 125.662L164.385 123.144L159.55 120.626L159.55 125.662Z" fill="#0E47CB"/>
<path fill-rule="evenodd" clip-rule="evenodd" d="M171.024 125.461H281.144V120.626H171.024V125.461Z" fill="#CFCFCF"/>
<path fill-rule="evenodd" clip-rule="evenodd" d="M171.024 147.484H281.144V142.65H171.024V147.484Z" fill="#CFCFCF"/>
<path fill-rule="evenodd" clip-rule="evenodd" d="M181.767 213.556H277.384V208.722H181.767V213.556Z" fill="#404040"/>
<path fill-rule="evenodd" clip-rule="evenodd" d="M159.378 164.867L162.064 169.508L164.75 164.867L159.378 164.867Z" fill="#0E47CB"/>
<path fill-rule="evenodd" clip-rule="evenodd" d="M170.487 169.508H280.607V164.674H170.487V169.508Z" fill="#CFCFCF"/>
<path fill-rule="evenodd" clip-rule="evenodd" d="M181.767 191.532H277.598V186.698H181.767V191.532Z" fill="#CFCFCF"/>
<rect x="149" y="87.3213" width="161.151" height="1" fill="#CFCFCF"/>
<path fill-rule="evenodd" clip-rule="evenodd" d="M155.446 77.1151H251.6V71.7434H155.446V77.1151Z" fill="#CFCFCF"/>
<rect x="149" y="88.9329" width="4.29736" height="141.813" fill="#0E47CB"/>
<path fill-rule="evenodd" clip-rule="evenodd" d="M159.743 103.436H280.069V98.6018H159.743V103.436Z" fill="#CFCFCF"/>
<path d="M297.257 101.98C297.228 101.951 297.213 101.912 297.213 101.863C297.213 101.814 297.228 101.77 297.257 101.731L300.341 98.6607C300.371 98.6215 300.41 98.602 300.459 98.602C300.508 98.602 300.547 98.6215 300.576 98.6607L303.661 101.731C303.69 101.77 303.705 101.814 303.705 101.863C303.705 101.912 303.69 101.951 303.661 101.98L303.367 102.274C303.338 102.313 303.299 102.333 303.25 102.333C303.201 102.333 303.157 102.313 303.118 102.274L300.459 99.6154L297.8 102.274C297.761 102.313 297.717 102.333 297.668 102.333C297.619 102.333 297.58 102.313 297.551 102.274L297.257 101.98Z" fill="#0E47CB"/>
<rect width="161.151" height="26.8585" transform="translate(149 231.283)" fill="white"/>
<rect x="149" y="257.604" width="161.151" height="0.53717" fill="#CFCFCF"/>
<path fill-rule="evenodd" clip-rule="evenodd" d="M155.446 247.398H251.6V242.026H155.446V247.398Z" fill="#CFCFCF"/>
<rect width="161.151" height="26.8585" transform="translate(149 258.142)" fill="white"/>
<rect x="149" y="258.142" width="161.151" height="1" fill="#CFCFCF"/>
<path fill-rule="evenodd" clip-rule="evenodd" d="M155.446 274.257H251.6V268.885H155.446V274.257Z" fill="#CFCFCF"/>
<path d="M303.661 269.238C303.69 269.267 303.705 269.306 303.705 269.355C303.705 269.404 303.69 269.448 303.661 269.487L300.576 272.557C300.547 272.596 300.508 272.616 300.459 272.616C300.41 272.616 300.371 272.596 300.341 272.557L297.257 269.487C297.228 269.448 297.213 269.404 297.213 269.355C297.213 269.306 297.228 269.267 297.257 269.238L297.551 268.944C297.58 268.905 297.619 268.885 297.668 268.885C297.717 268.885 297.761 268.905 297.8 268.944L300.459 271.602L303.118 268.944C303.157 268.905 303.201 268.885 303.25 268.885C303.299 268.885 303.338 268.905 303.367 268.944L303.661 269.238Z" fill="#0E47CB"/>
<rect x="149" y="230.746" width="161.151" height="1" fill="#CFCFCF"/>
</svg>
