<svg
  width="48"
  height="48"
  viewBox="0 0 48 48"
  xmlns="http://www.w3.org/2000/svg"
>
<path d="M33 18H15V21H33V18Z" fill-rule="evenodd" />
<path d="M15 12H33V15H15V12Z" fill-rule="evenodd" />
<path
    fill-rule="evenodd"
    clip-rule="evenodd"
    d="M42 45H12.45C8.88 45 6 42.3 6 39V9C6 5.7 8.88 3 12.45 3H38.85C40.59 3 42 4.35 42 6V36H12.45C10.56 36 9 37.35 9 39C9 40.65 10.56 42 12.45 42H42V45ZM12.45 6C10.56 6 9 7.35 9 9V33.93C9.99 33.33 11.19 33 12.45 33H39V6H12.45Z"
    fill-rule="evenodd"
  />
</svg>
