<svg
  width="48"
  height="48"
  viewBox="0 0 48 48"
  xmlns="http://www.w3.org/2000/svg"
>
<path d="M24 13.5H12V16.5H24V13.5Z" fill-rule="evenodd" />
<path d="M30 19.5H12V22.5H30V19.5Z" fill-rule="evenodd" />
<path
    fill-rule="evenodd"
    clip-rule="evenodd"
    d="M37.5 4.74005V30.0301H43.5V37.5001C43.5 40.8001 40.59 43.5001 36.99 43.5001H12C7.86 43.5001 4.5 40.1401 4.5 36.0001V4.74005H37.5ZM12 40.5001C14.58 40.5001 17.16 39.1201 17.16 36.0001V30.0301H34.5V7.74005H7.5V36.0001C7.5 38.4901 9.42 40.5001 12 40.5001ZM36.99 40.5001C38.94 40.5001 40.5 39.1501 40.5 37.5001V33.0301H20.16V36.0001C20.16 37.7401 19.62 39.2701 18.66 40.5001H36.99Z"
  />
</svg>
