<svg
  width="48"
  height="48"
  viewBox="0 0 48 48"
  xmlns="http://www.w3.org/2000/svg"
>
<path
    fill-rule="evenodd"
    clip-rule="evenodd"
    d="M38.8494 31.29L27.5994 24.81C26.9994 25.35 26.2794 25.77 25.4994 26.01V41.97H32.9994V44.97H14.9994V41.97H22.4994V26.01C21.6894 25.77 20.9994 25.35 20.3994 24.81L9.14941 31.29L7.64941 28.68L18.8994 22.2C18.8094 21.81 18.7494 21.42 18.7494 21C18.7494 18.63 20.3394 16.65 22.4994 15.99V3H25.4994V15.99C27.6594 16.65 29.2494 18.63 29.2494 21C29.2494 21.42 29.1894 21.81 29.0994 22.2L40.3494 28.68L38.8494 31.29ZM23.9994 18.75C22.7694 18.75 21.7494 19.77 21.7494 21C21.7494 22.23 22.7694 23.25 23.9994 23.25C25.2294 23.25 26.2494 22.23 26.2494 21C26.2494 19.77 25.2294 18.75 23.9994 18.75Z"
  />
<path
    d="M17.6697 10.23C12.5997 11.52 9.50973 16.68 10.7997 21.75L7.88973 22.47C6.20973 15.81 10.2897 9.00001 16.9497 7.32001L17.6697 10.23Z"
    fill-rule="evenodd"
  />
</svg>
