<?xml version="1.0" encoding="UTF-8" standalone="no" ?>
<svg
  width="48"
  height="48"
  viewBox="0 0 48 48"
  version="1.1"
  id="svg356"
  xmlns="http://www.w3.org/2000/svg"
  xmlns:svg="http://www.w3.org/2000/svg"
>
  <defs id="defs360" />
  <path
    id="path352"
    d="M 13.988281 6 C 13.568281 6 13.1775 6.2396094 12.9375 6.5996094 L 3.1582031 23.400391 C 2.9482031 23.760391 2.9482031 24.239609 3.1582031 24.599609 L 12.966797 41.400391 C 13.176797 41.760391 13.567578 42 14.017578 42 L 33.636719 42 C 34.056719 42 34.4475 41.760391 34.6875 41.400391 L 44.498047 24.599609 C 44.708047 24.239609 44.708047 23.760391 44.498047 23.400391 L 34.6875 6.5996094 C 34.4775 6.2396094 34.086719 6 33.636719 6 L 13.988281 6 z M 16.28125 14.466797 L 23.705078 21.890625 L 31.130859 14.466797 L 33.251953 16.587891 L 25.826172 24.011719 L 33.251953 31.4375 L 31.130859 33.558594 L 23.705078 26.134766 L 16.28125 33.558594 L 14.160156 31.4375 L 21.583984 24.011719 L 14.160156 16.587891 L 16.28125 14.466797 z "
  />
</svg>
