<svg
  width="48"
  height="48"
  viewBox="0 0 48 48"
  xmlns="http://www.w3.org/2000/svg"
>
<path
    d="M44.67 23.4L34.86 6.6C34.65 6.24 34.26 6 33.81 6H14.19C13.77 6 13.38 6.24 13.14 6.6L3.39004 23.4C3.18004 23.76 3.18004 24.24 3.39004 24.6L13.2 41.4C13.41 41.76 13.8 42 14.25 42H33.87C34.29 42 34.68 41.76 34.92 41.4L44.73 24.6C44.94 24.24 44.94 23.76 44.73 23.4H44.67ZM33.51 31.44L31.38 33.57L23.97 26.16L16.56 33.57L14.43 31.44L21.84 24.03L14.43 16.62L16.56 14.49L23.97 21.9L31.38 14.49L33.51 16.62L26.1 24.03L33.51 31.44Z"
    fill-rule="evenodd"
    clip-rule="evenodd"
  />
</svg>
