<svg
  width="48"
  height="48"
  viewBox="0 0 48 48"
  xmlns="http://www.w3.org/2000/svg"
>
<path
    d="M31.3626 14.4665L23.938 21.8911L16.5134 14.4666L14.3921 16.5879L21.8166 24.0125L14.3921 31.437L16.5134 33.5583L23.938 26.1338L31.3627 33.5585L33.484 31.4371L26.0593 24.0125L33.484 16.5878L31.3626 14.4665Z"
    fill-rule="evenodd"
  />
<path
    fill-rule="evenodd"
    clip-rule="evenodd"
    d="M14.1296 6H33.7796C34.2296 6 34.6196 6.24 34.8296 6.6L44.6396 23.4C44.8496 23.76 44.8496 24.24 44.6396 24.6L34.8296 41.4C34.5896 41.76 34.1996 42 33.7796 42H14.1596C13.7096 42 13.3196 41.76 13.1096 41.4L3.29959 24.6C3.08959 24.24 3.08959 23.76 3.29959 23.4L13.0796 6.6C13.3196 6.24 13.7096 6 14.1296 6ZM41.4896 24L32.7296 9H15.1796L6.41959 24L15.1796 39H32.7296L41.4896 24Z"
  />
</svg>
