<svg
  width="48"
  height="48"
  viewBox="0 0 48 48"
  xmlns="http://www.w3.org/2000/svg"
>
<path
    d="M18.7199 30.2401C20.3699 31.9501 22.3499 32.7901 24.7199 32.7901L24.7499 32.8501C27.3299 32.8501 29.4899 31.8001 31.3499 29.6401L32.1299 28.7101V32.8501L31.9799 32.9701C30.0299 34.7101 27.5699 35.5801 24.7199 35.5801C21.5699 35.5801 18.8999 34.4701 16.7699 32.2501C15.5399 30.9901 14.6699 29.4601 14.1299 27.7201H10.4399L11.6099 24.9601H13.6199C13.5599 24.6601 13.5599 24.3601 13.5599 24.0301C13.5599 23.8911 13.5758 23.7601 13.5913 23.6329C13.6058 23.513 13.6199 23.3966 13.6199 23.2801H10.4399L11.6099 20.5201H14.0999C14.6399 18.6901 15.5399 17.1301 16.7999 15.8101C18.9299 13.5901 21.5999 12.4801 24.7499 12.4801C27.8999 12.4801 30.5999 13.6201 32.7899 15.9001L32.9999 16.1101L31.8299 18.9001L31.3499 18.3601C29.4599 16.2301 27.2999 15.2101 24.7499 15.2101C22.3799 15.2101 20.3999 16.0501 18.7499 17.7601C17.9699 18.5701 17.3999 19.4701 16.9799 20.4901H31.0799L29.9699 23.2501H16.3199C16.2599 23.4901 16.2599 23.7301 16.2599 24.0001C16.2599 24.3001 16.2899 24.6301 16.3199 24.9301H29.5799L28.4099 27.6901H17.0099C17.4299 28.6501 17.9999 29.4901 18.7199 30.2401Z"
    fill-rule="evenodd"
  />
<path
    fill-rule="evenodd"
    clip-rule="evenodd"
    d="M3.06006 24C3.06006 12.39 12.4501 3 24.0601 3C35.6701 3 45.0601 12.39 45.0601 24C45.0601 35.61 35.6701 45 24.0601 45C12.4501 45 3.06006 35.61 3.06006 24ZM42.0601 24C42.0601 14.07 33.9901 6 24.0601 6C14.1301 6 6.06006 14.07 6.06006 24C6.06006 33.93 14.1301 42 24.0601 42C33.9901 42 42.0601 33.93 42.0601 24Z"
  />
</svg>
