<svg
  width="48"
  height="48"
  viewBox="0 0 48 48"
  xmlns="http://www.w3.org/2000/svg"
>
<path
    fill-rule="evenodd"
    clip-rule="evenodd"
    d="M44.7315 23.1051C38.3778 13.8877 31.2187 9.02551 24 9.02551C16.7812 9.02551 9.62216 13.8877 3.26847 23.1051C2.91051 23.642 2.91051 24.3579 3.26847 24.9247C9.62216 34.1122 16.7812 38.9744 24 38.9744C31.2187 38.9744 38.3778 34.1122 44.7315 24.8948C45.0895 24.3579 45.0895 23.642 44.7315 23.1051ZM41.7486 23.9999C39.75 26.7741 32.3821 35.9914 24 35.9914C15.6179 35.9914 8.25 26.7741 6.25142 23.9999C8.25 21.2258 15.6179 12.0085 24 12.0085C32.3821 12.0085 39.7202 21.2258 41.7486 23.9999Z"
  />
<path
    fill-rule="evenodd"
    clip-rule="evenodd"
    d="M24 18.7201C26.8935 18.7201 29.25 21.0767 29.25 23.9701C29.25 26.8636 26.8935 29.2201 24 29.2201C21.1065 29.2201 18.75 26.8636 18.75 23.9701C18.75 21.0767 21.1065 18.7201 24 18.7201ZM24 15.767C19.4659 15.767 15.7969 19.436 15.7969 23.9701C15.7969 28.5042 19.4659 32.1732 24 32.1732C28.5341 32.1732 32.2031 28.5042 32.2031 23.9701C32.2031 19.436 28.5341 15.767 24 15.767Z"
  />
</svg>
