<svg
  width="48"
  height="48"
  viewBox="0 0 48 48"
  xmlns="http://www.w3.org/2000/svg"
>
<path
    d="M24 3C12.39 3 3 12.39 3 24C3 35.61 12.39 45 24 45C35.61 45 45 35.61 45 24C45 12.39 35.61 3 24 3ZM42.24 22.65H32.85C32.64 14.31 30.57 9.24 28.59 6.3C36.06 8.22 41.67 14.73 42.24 22.65ZM24.6 5.73C26.49 7.44 29.88 12 30.15 22.65H17.85C18.12 12 21.51 7.44 23.4 5.73C23.61 5.73 23.79 5.7 24 5.7C24.21 5.7 24.39 5.7 24.6 5.7V5.73ZM19.41 6.3C17.43 9.24 15.36 14.28 15.15 22.65H5.76C6.33 14.76 11.94 8.25 19.38 6.3H19.41ZM5.76 25.35H15.12C15.33 33.69 17.43 38.76 19.44 41.7C11.97 39.78 6.33 33.27 5.73 25.35H5.76ZM23.46 42.27C21.54 40.56 18.09 35.97 17.82 25.35H30.12C29.85 36 26.4 40.56 24.48 42.27C24.3 42.27 24.15 42.27 23.97 42.27C23.79 42.27 23.61 42.27 23.46 42.27ZM28.5 41.7C30.51 38.76 32.61 33.69 32.82 25.35H42.21C41.64 33.27 35.97 39.81 28.5 41.7Z"
  />
</svg>
