<svg
  width="48"
  height="48"
  viewBox="0 0 48 48"
  xmlns="http://www.w3.org/2000/svg"
>
<path
    d="M45 24C45 12.39 35.61 3 24 3C12.39 3 3 12.39 3 24C3 34.98 11.43 43.98 22.17 44.91C22.77 44.97 23.37 45 23.97 45C24.57 45 25.17 44.97 25.77 44.91C36.54 44.01 44.97 34.98 44.97 24H45ZM24.6 41.97C24.39 41.97 24.21 42 24 42C23.79 42 23.58 42 23.37 41.97C21.45 40.14 18.3 35.61 18 25.5H30C29.7 35.61 26.55 40.14 24.63 41.97H24.6ZM41.91 22.5H32.97C32.76 14.73 30.99 9.81 29.07 6.75C36.06 8.82 41.28 15 41.91 22.5ZM24.69 6.03C26.58 7.83 29.7 12.36 30 22.5H18C18.27 12.39 21.42 7.86 23.28 6.03C23.52 6.03 23.76 6 24 6C24.24 6 24.45 6 24.69 6.03ZM18.9 6.75C16.98 9.81 15.21 14.73 15 22.5H6.09C6.72 15 11.94 8.82 18.9 6.75ZM6.09 25.5H15C15.21 33.33 17.1 38.28 18.99 41.28C11.97 39.24 6.69 33.03 6.06 25.5H6.09ZM28.98 41.28C30.9 38.28 32.76 33.33 33 25.5H41.94C41.31 33.03 36.03 39.24 28.98 41.28Z"
    fill-rule="evenodd"
  />
</svg>
