<svg
  width="40"
  height="40"
  viewBox="0 0 40 40"
  xmlns="http://www.w3.org/2000/svg"
>
<path
    d="M19.9963 2.5C10.3213 2.5 2.49634 10.325 2.49634 20C2.49634 29.675 10.3213 37.5 19.9963 37.5C29.6713 37.5 37.4963 29.675 37.4963 20C37.4963 10.325 29.6713 2.5 19.9963 2.5ZM35.1963 18.875H27.3713C27.1963 11.925 25.4713 7.7 23.8213 5.25C30.0463 6.85 34.7213 12.275 35.1963 18.875ZM20.4963 4.775C22.0713 6.2 24.8963 10 25.1213 18.875H14.8713C15.0963 10 17.9213 6.2 19.4963 4.775C19.6713 4.775 19.8213 4.75 19.9963 4.75C20.1713 4.75 20.3213 4.75 20.4963 4.75V4.775ZM16.1713 5.25C14.5213 7.7 12.7963 11.9 12.6213 18.875H4.79634C5.27134 12.3 9.94634 6.875 16.1463 5.25H16.1713ZM4.79634 21.125H12.5963C12.7713 28.075 14.5213 32.3 16.1963 34.75C9.97134 33.15 5.27134 27.725 4.77134 21.125H4.79634ZM19.5463 35.225C17.9463 33.8 15.0713 29.975 14.8463 21.125H25.0963C24.8713 30 21.9963 33.8 20.3963 35.225C20.2463 35.225 20.1213 35.225 19.9713 35.225C19.8213 35.225 19.6713 35.225 19.5463 35.225ZM23.7463 34.75C25.4213 32.3 27.1713 28.075 27.3463 21.125H35.1713C34.6963 27.725 29.9713 33.175 23.7463 34.75Z"
  />
</svg>
