<svg
  width="48"
  height="48"
  viewBox="0 0 48 48"
  xmlns="http://www.w3.org/2000/svg"
>
<path
    d="M42 3H6C4.35 3 3 4.35 3 6V42C3 43.65 4.35 45 6 45H42C43.65 45 45 43.65 45 42V6C45 4.35 43.65 3 42 3ZM21.93 13.38C22.11 12.96 22.38 12.63 22.77 12.36C23.13 12.12 23.58 11.97 24.03 11.97C24.63 11.97 25.2 12.21 25.62 12.63C26.04 13.05 26.28 13.62 26.28 14.22C26.28 14.67 26.16 15.09 25.89 15.48C25.65 15.84 25.29 16.14 24.87 16.32C24.45 16.5 24 16.53 23.58 16.44C23.13 16.35 22.74 16.14 22.44 15.81C22.14 15.51 21.9 15.09 21.81 14.67C21.72 14.25 21.78 13.77 21.93 13.38ZM30 36H18V33H22.5V24H19.5V21H25.5V33H30V36Z"
    fill-rule="evenodd"
    clip-rule="evenodd"
  />
</svg>
