<svg
  width="48"
  height="48"
  viewBox="0 0 48 48"
  xmlns="http://www.w3.org/2000/svg"
>
<path
    d="M21.0381 25.5C21.0381 27.1569 19.6949 28.5 18.0381 28.5C16.3812 28.5 15.0381 27.1569 15.0381 25.5C15.0381 23.8431 16.3812 22.5 18.0381 22.5C19.6949 22.5 21.0381 23.8431 21.0381 25.5Z"
    fill-rule="evenodd"
  />
<path
    d="M27.0381 28.5C28.6949 28.5 30.0381 27.1569 30.0381 25.5C30.0381 23.8431 28.6949 22.5 27.0381 22.5C25.3812 22.5 24.0381 23.8431 24.0381 25.5C24.0381 27.1569 25.3812 28.5 27.0381 28.5Z"
    fill-rule="evenodd"
  />
<path
    d="M39.0381 25.5C39.0381 27.1569 37.6949 28.5 36.0381 28.5C34.3812 28.5 33.0381 27.1569 33.0381 25.5C33.0381 23.8431 34.3812 22.5 36.0381 22.5C37.6949 22.5 39.0381 23.8431 39.0381 25.5Z"
    fill-rule="evenodd"
  />
<path
    fill-rule="evenodd"
    clip-rule="evenodd"
    d="M11.9177 12H42.1577C43.7777 12 45.0677 13.35 45.0677 15V36C45.0677 37.65 43.7477 39 42.1577 39H11.9477C10.3277 39 9.03774 37.65 9.03774 36V32.13L3.54774 26.79C2.82774 26.04 2.82774 24.96 3.48774 24.27L9.06774 18.87L9.00774 15C9.00774 13.35 10.3277 12 11.9177 12ZM12.0377 36H42.0377L42.0677 36.06V15.06H11.9477L12.0377 18.93C12.0377 19.71 11.7377 20.43 11.2277 21L6.54774 25.53L11.1677 30C11.7377 30.6 12.0377 31.35 12.0377 32.13V36Z"
    fill-rule="evenodd"
  />
</svg>
