<svg
  width="48"
  height="48"
  viewBox="0 0 48 48"
  xmlns="http://www.w3.org/2000/svg"
>
<path
    fill-rule="evenodd"
    clip-rule="evenodd"
    d="M42.1577 12H11.9177C10.3277 12 9.00774 13.35 9.00774 15L9.06774 18.87L3.48774 24.27C2.82774 24.96 2.82774 26.04 3.54774 26.79L9.03774 32.13V36C9.03774 37.65 10.3277 39 11.9477 39H42.1577C43.7477 39 45.0677 37.65 45.0677 36V15C45.0677 13.35 43.7777 12 42.1577 12ZM18.0377 28.5C16.3877 28.5 15.0377 27.15 15.0377 25.5C15.0377 23.85 16.3877 22.5 18.0377 22.5C19.6877 22.5 21.0377 23.85 21.0377 25.5C21.0377 27.15 19.6877 28.5 18.0377 28.5ZM27.0377 28.5C25.3877 28.5 24.0377 27.15 24.0377 25.5C24.0377 23.85 25.3877 22.5 27.0377 22.5C28.6877 22.5 30.0377 23.85 30.0377 25.5C30.0377 27.15 28.6877 28.5 27.0377 28.5ZM36.0377 28.5C34.3877 28.5 33.0377 27.15 33.0377 25.5C33.0377 23.85 34.3877 22.5 36.0377 22.5C37.6877 22.5 39.0377 23.85 39.0377 25.5C39.0377 27.15 37.6877 28.5 36.0377 28.5Z"
  />
</svg>
