<svg
  width="48"
  height="48"
  viewBox="0 0 48 48"
  xmlns="http://www.w3.org/2000/svg"
>
<path
    d="M10.4399 13.5C10.4399 14.7426 9.43258 15.75 8.18994 15.75C6.9473 15.75 5.93994 14.7426 5.93994 13.5C5.93994 12.2574 6.9473 11.25 8.18994 11.25C9.43258 11.25 10.4399 12.2574 10.4399 13.5Z"
    fill-rule="evenodd"
  />
<path d="M13.4707 12H42.0007V15H13.4707V12Z" fill-rule="evenodd" />
<path d="M13.4707 33H42.0007V36H13.4707V33Z" fill-rule="evenodd" />
<path d="M42.0007 22.5H13.4707V25.5H42.0007V22.5Z" fill-rule="evenodd" />
<path
    d="M8.18994 26.25C9.43258 26.25 10.4399 25.2426 10.4399 24C10.4399 22.7574 9.43258 21.75 8.18994 21.75C6.9473 21.75 5.93994 22.7574 5.93994 24C5.93994 25.2426 6.9473 26.25 8.18994 26.25Z"
    fill-rule="evenodd"
  />
<path
    d="M10.4399 34.5C10.4399 35.7426 9.43258 36.75 8.18994 36.75C6.9473 36.75 5.93994 35.7426 5.93994 34.5C5.93994 33.2574 6.9473 32.25 8.18994 32.25C9.43258 32.25 10.4399 33.2574 10.4399 34.5Z"
    fill-rule="evenodd"
  />
</svg>
