<svg
  width="48"
  height="48"
  viewBox="0 0 48 48"
  xmlns="http://www.w3.org/2000/svg"
>
<path
    d="M11.415 10.875L11.43 10.89V10.86C11.425 10.865 11.42 10.87 11.415 10.875Z"
    fill-rule="evenodd"
  />
<path
    d="M11.415 10.875L9.3 8.76001C0.9 17.16 0.9 30.84 9.3 39.24L11.43 37.11C4.205 29.885 4.2 18.1063 11.415 10.875Z"
    fill-rule="evenodd"
  />
<path
    d="M36.5698 10.89L38.6998 8.76001V8.79001C47.0998 17.19 47.0998 30.87 38.6998 39.27L36.5698 37.14C43.7998 29.91 43.7998 18.12 36.5698 10.89Z"
    fill-rule="evenodd"
  />
<path
    d="M33.7501 14.8501L31.6201 16.9801C35.4901 20.8501 35.4901 27.1801 31.6201 31.0801L33.7501 33.2101C38.7901 28.1701 38.7901 19.9501 33.7501 14.8801V14.8501Z"
    fill-rule="evenodd"
  />
<path
    d="M21.0305 21.03C19.3805 22.68 19.3805 25.32 21.0305 26.97C21.8105 27.75 22.8905 28.2 24.0005 28.2C25.1105 28.2 26.1905 27.75 26.9705 26.97C28.6205 25.32 28.6205 22.68 26.9705 21.03C25.3805 19.44 22.6205 19.44 21.0305 21.03Z"
    fill-rule="evenodd"
  />
<path
    d="M14.2199 14.8501C9.17994 19.8901 9.17994 28.1101 14.2199 33.1801L16.3499 31.0501C12.4799 27.1801 12.4799 20.8501 16.3499 16.9501L14.2199 14.8201V14.8501Z"
    fill-rule="evenodd"
  />
</svg>
