<svg
  width="48"
  height="48"
  viewBox="0 0 48 48"
  xmlns="http://www.w3.org/2000/svg"
>
<path
    d="M11.415 10.875L11.43 10.8899V10.8599C11.425 10.8649 11.42 10.87 11.415 10.875Z"
    fill-rule="evenodd"
  />
<path
    d="M11.415 10.875L9.3 8.75995C0.9 17.1599 0.9 30.8399 9.3 39.24L11.43 37.11C4.205 29.885 4.2 18.1063 11.415 10.875Z"
    fill-rule="evenodd"
  />
<path
    d="M36.5698 10.8899L38.6998 8.75995V8.78995C47.0998 17.1899 47.0998 30.87 38.6998 39.27L36.5698 37.14C43.7998 29.91 43.7998 18.1199 36.5698 10.8899Z"
    fill-rule="evenodd"
  />
<path
    d="M33.7501 14.85L31.6201 16.98C35.4901 20.85 35.4901 27.18 31.6201 31.08L33.7501 33.21C38.7901 28.17 38.7901 19.95 33.7501 14.88V14.85Z"
    fill-rule="evenodd"
  />
<path
    d="M21.0305 21.03C19.3805 22.68 19.3805 25.32 21.0305 26.97C21.8105 27.75 22.8905 28.2 24.0005 28.2C25.1105 28.2 26.1905 27.75 26.9705 26.97C28.6205 25.32 28.6205 22.68 26.9705 21.03C25.3805 19.44 22.6205 19.44 21.0305 21.03Z"
    fill-rule="evenodd"
  />
<path
    d="M14.2199 14.85C9.17994 19.89 9.17994 28.11 14.2199 33.18L16.3499 31.05C12.4799 27.18 12.4799 20.85 16.3499 16.95L14.2199 14.82V14.85Z"
    fill-rule="evenodd"
  />
</svg>
