<svg
  width="48"
  height="48"
  viewBox="0 0 48 48"
  xmlns="http://www.w3.org/2000/svg"
>
<path
    d="M34.17 7.83C31.08 4.74 26.88 3 22.5 3C18.12 3 13.92 4.74 10.83 7.83C7.74 10.92 6 15.12 6 19.5C6 23.07 7.17 26.55 9.33 29.4C9.33 29.4 9.78 30 9.84 30.09L22.5 45L35.16 30.06L35.67 29.4C37.83 26.55 39 23.07 39 19.5C39 15.12 37.26 10.92 34.17 7.83ZM22.5 24C19.2 24 16.5 21.3 16.5 18C16.5 14.7 19.2 12 22.5 12C25.8 12 28.5 14.7 28.5 18C28.5 21.3 25.8 24 22.5 24Z"
    fill-rule="evenodd"
  />
</svg>
