<svg
  width="48"
  height="48"
  viewBox="0 0 48 48"
  xmlns="http://www.w3.org/2000/svg"
>
<path
    fill-rule="evenodd"
    clip-rule="evenodd"
    d="M31.425 13.5C31.425 9.36 28.065 6 23.925 6C19.785 6 16.425 9.36 16.425 13.5C16.425 17.64 19.785 21 23.925 21C28.065 21 31.425 17.64 31.425 13.5ZM13.425 13.5C13.425 7.71 18.135 3 23.925 3C29.715 3 34.425 7.71 34.425 13.5C34.425 19.29 29.715 24 23.925 24C18.135 24 13.425 19.29 13.425 13.5ZM39.0151 45H42.0151V39.09C42.0151 32.43 36.9451 27 30.7651 27H17.2351C11.0251 27 5.98511 32.43 5.98511 39.09V45H8.98511V39.09C8.98511 34.08 12.7051 30 17.2351 30H30.7651C35.3251 30 39.0151 34.08 39.0151 39.09V45Z"
  />
</svg>
