<svg
  width="40"
  height="40"
  viewBox="0 0 40 40"
  xmlns="http://www.w3.org/2000/svg"
>
<path
    fill-rule="evenodd"
    clip-rule="evenodd"
    d="M26.1838 11.25C26.1838 7.8 23.3838 5 19.9338 5C16.4838 5 13.6838 7.8 13.6838 11.25C13.6838 14.7 16.4838 17.5 19.9338 17.5C23.3838 17.5 26.1838 14.7 26.1838 11.25ZM11.1838 11.25C11.1838 6.425 15.1088 2.5 19.9338 2.5C24.7588 2.5 28.6838 6.425 28.6838 11.25C28.6838 16.075 24.7588 20 19.9338 20C15.1088 20 11.1838 16.075 11.1838 11.25ZM32.5089 37.5H35.0089V32.575C35.0089 27.025 30.7839 22.5 25.6339 22.5H14.3589C9.18389 22.5 4.98389 27.025 4.98389 32.575V37.5H7.48389V32.575C7.48389 28.4 10.5839 25 14.3589 25H25.6339C29.4339 25 32.5089 28.4 32.5089 32.575V37.5Z"
  />
</svg>
