<svg
  width="48"
  height="48"
  viewBox="0 0 48 48"
  xmlns="http://www.w3.org/2000/svg"
>
<path
    fill-rule="evenodd"
    clip-rule="evenodd"
    d="M13.4707 13.5C13.4707 7.71 18.1807 3 23.9707 3C29.7607 3 34.4707 7.71 34.4707 13.5C34.4707 19.29 29.7607 24 23.9707 24C18.1807 24 13.4707 19.29 13.4707 13.5ZM31.4707 13.5C31.4707 9.36 28.1107 6 23.9707 6C19.8307 6 16.4707 9.36 16.4707 13.5C16.4707 17.64 19.8307 21 23.9707 21C28.1107 21 31.4707 17.64 31.4707 13.5Z"
  />
<path
    fill-rule="evenodd"
    clip-rule="evenodd"
    d="M6 45H42.03V39.09C42.03 32.43 36.96 27 30.78 27H17.25C11.04 27 6 32.43 6 39.09V45ZM39 42H8.97V39.09C8.97 34.08 12.69 30 17.22 30H30.75C35.31 30 39 34.08 39 39.09V42Z"
  />
</svg>
