<svg
  width="48"
  height="48"
  viewBox="0 0 48 48"
  xmlns="http://www.w3.org/2000/svg"
>
<path
    fill-rule="evenodd"
    clip-rule="evenodd"
    d="M22.4099 24C28.1999 24 32.9099 19.29 32.9099 13.5C32.9099 7.71 28.1999 3 22.4099 3C16.6199 3 11.9099 7.71 11.9099 13.5C11.9099 19.29 16.6199 24 22.4099 24ZM22.4099 6C26.5499 6 29.9099 9.36 29.9099 13.5C29.9099 17.64 26.5499 21 22.4099 21C18.2699 21 14.9099 17.64 14.9099 13.5C14.9099 9.36 18.2699 6 22.4099 6ZM41.3701 30.1802L29.1301 42.3902L22.5001 35.7602L20.3701 37.8902L29.1301 46.6202L43.5001 32.2802L41.3701 30.1802ZM15.75 26.97H32.31V29.97H15.75C11.19 29.97 7.5 34.05 7.5 39.06V44.97H4.5V39.06C4.5 32.4 9.57 26.97 15.75 26.97Z"
  />
</svg>
