<svg
  width="48"
  height="48"
  viewBox="0 0 48 48"
  xmlns="http://www.w3.org/2000/svg"
>
<path
    fill-rule="evenodd"
    clip-rule="evenodd"
    d="M23.9707 3C18.1807 3 13.4707 7.71 13.4707 13.5C13.4707 19.29 18.1807 24 23.9707 24C29.7607 24 34.4707 19.29 34.4707 13.5C34.4707 7.71 29.7607 3 23.9707 3ZM23.9707 6.6C27.7807 6.6 30.8707 9.69 30.8707 13.5C30.8707 17.31 27.7807 20.4 23.9707 20.4C20.1607 20.4 17.0707 17.31 17.0707 13.5C17.0707 9.69 20.1607 6.6 23.9707 6.6Z"
  />
<path
    d="M30.6907 47.0699L21.7207 38.0999L24.2707 35.5499L30.6907 41.9699L42.7207 29.9399L45.2707 32.4899L30.6907 47.0699Z"
    fill-rule="evenodd"
  />
<path
    d="M5.75977 45.0001H9.35977V39.0901C9.35977 34.2601 12.9298 30.3001 17.3098 30.3001H33.1198V26.7001H17.3098C10.9498 26.7001 5.75977 32.2501 5.75977 39.0901V45.0001Z"
    fill-rule="evenodd"
  />
</svg>
