<svg
  width="48"
  height="48"
  viewBox="0 0 48 48"
  xmlns="http://www.w3.org/2000/svg"
>
<path
    d="M39 36V21C39 13.71 33.81 7.65 26.94 6.3C26.94 6.21 27 6.12 27 6C27 4.35 25.65 3 24 3C22.35 3 21 4.35 21 6C21 6.12 21.06 6.18 21.06 6.3C14.19 7.68 9 13.74 9 21V36H6V39H16.65C17.34 42.42 20.37 45 24 45C27.63 45 30.66 42.42 31.35 39H42V36H39ZM24 42C22.05 42 20.4 40.74 19.77 39H28.23C27.6 40.74 25.95 42 24 42ZM36 36H12V21C12 14.37 17.37 9 24 9C30.63 9 36 14.37 36 21V36Z"
  />
<path
    d="M37.5 24C41.6421 24 45 20.6421 45 16.5C45 12.3579 41.6421 9 37.5 9C33.3579 9 30 12.3579 30 16.5C30 20.6421 33.3579 24 37.5 24Z"
    fill="#DA1E28"
  />
</svg>
