<svg
  width="40"
  height="40"
  viewBox="0 0 40 40"
  xmlns="http://www.w3.org/2000/svg"
>
<path
    d="M32.4963 30V17.5C32.4963 11.45 28.1963 6.4 22.4713 5.25C22.4963 5.175 22.4963 5.075 22.4963 5C22.4963 3.625 21.3713 2.5 19.9963 2.5C18.6213 2.5 17.4963 3.625 17.4963 5C17.4963 5.075 17.4963 5.175 17.5213 5.25C11.7963 6.4 7.49634 11.45 7.49634 17.5V30H4.99634V32.5H13.8713C14.4463 35.35 16.9713 37.5 19.9963 37.5C23.0213 37.5 25.5463 35.35 26.1213 32.5H34.9963V30H32.4963ZM19.9963 35C18.3713 35 16.9963 33.95 16.4713 32.5H23.5213C22.9963 33.95 21.6213 35 19.9963 35ZM29.9963 30H9.99634V17.5C9.99634 11.975 14.4713 7.5 19.9963 7.5C25.5213 7.5 29.9963 11.975 29.9963 17.5V30Z"
  />
</svg>
