<svg
  width="48"
  height="48"
  viewBox="0 0 48 48"
  xmlns="http://www.w3.org/2000/svg"
>
<path
    d="M40.5 28.5H35.61L27.45 19.5H30C30.81 19.5 31.5 18.84 31.5 18V9C31.5 8.16 30.81 7.5 30 7.5H18C17.16 7.5 16.5 8.16 16.5 9V18C16.5 18.84 17.16 19.5 18 19.5H20.55L12.39 28.5H7.5C6.66 28.5 6 29.16 6 30V39C6 39.81 6.66 40.5 7.5 40.5H19.5C20.34 40.5 21 39.81 21 39V30C21 29.16 20.34 28.5 19.5 28.5H16.47L24 20.16L31.53 28.5H28.5C27.66 28.5 27 29.16 27 30V39C27 39.84 27.66 40.5 28.5 40.5H40.5C41.34 40.5 42 39.84 42 39V30C42 29.16 41.34 28.5 40.5 28.5ZM19.5 16.5V10.5H28.5V16.5H19.5ZM18 31.5V37.5H9V31.5H18ZM39 37.5H30V31.5H39V37.5Z"
    fill-rule="evenodd"
  />
</svg>
