<svg
  width="48"
  height="48"
  viewBox="0 0 48 48"
  xmlns="http://www.w3.org/2000/svg"
>
<path
    d="M25.4707 22.5V12H22.4707V22.5H11.9707V25.5H22.4707V36H25.4707V25.5H35.9707V22.5H25.4707Z"
    fill-rule="#26324B"
  />
<path
    fill-rule="evenodd"
    clip-rule="evenodd"
    d="M23.9707 3C12.3907 3 2.9707 12.42 2.9707 24C2.9707 35.58 12.3607 45 23.9707 45C35.5807 45 44.9707 35.61 44.9707 24C44.9707 12.39 35.5807 3 23.9707 3ZM23.9707 6C33.9007 6 41.9707 14.07 41.9707 24C41.9707 33.93 33.9007 42 23.9707 42C14.0407 42 5.9707 33.93 5.9707 24C5.9707 14.07 14.0407 6 23.9707 6Z"
  />
</svg>
