<svg
  width="40"
  height="40"
  viewBox="0 0 40 40"
  xmlns="http://www.w3.org/2000/svg"
>
<path
    fill-rule="evenodd"
    clip-rule="evenodd"
    d="M36.7968 15.9154C36.2971 15.3408 35.5726 14.9911 34.8232 14.9911H32.4998L24.6304 2.5L22.507 3.82405L29.5519 14.9911H10.5155L17.5355 3.82405L15.412 2.5L7.54265 15.0161H5.2443C4.49483 15.0161 3.77035 15.3408 3.24572 15.9404C2.67114 16.5899 2.42131 17.4643 2.52124 18.3387L4.79462 34.9768C4.96949 36.4258 6.14365 37.5 7.49269 37.5H32.4499C33.8239 37.5 34.998 36.4008 35.1979 34.9518L37.4713 18.3137C37.5712 17.4393 37.3214 16.565 36.7468 15.9154H36.7968ZM32.7496 34.6021C32.7247 34.8519 32.5748 34.9768 32.4748 34.9768H7.54265C7.54265 34.9768 7.3428 34.8519 7.31782 34.6271L5.04444 17.9889C5.04444 17.7891 5.0944 17.6392 5.26928 17.4893L34.9231 17.5642C34.9231 17.5642 35.073 17.7391 35.023 17.9889L32.7496 34.6021Z"
  />
</svg>
