<svg
  width="48"
  height="48"
  viewBox="0 0 48 48"
  xmlns="http://www.w3.org/2000/svg"
>
<path
    fill-rule="evenodd"
    clip-rule="evenodd"
    d="M24 45C35.598 45 45 35.598 45 24C45 12.402 35.598 3 24 3C12.402 3 3 12.402 3 24C3 35.598 12.402 45 24 45Z"
  />
<path d="M22.5 12.33H25.5V28.05H22.5V12.33Z" fill-rule="evenodd" />
<path
    d="M26.0395 33.6301C26.0395 34.7567 25.1261 35.6701 23.9995 35.6701C22.8728 35.6701 21.9595 34.7567 21.9595 33.6301C21.9595 32.5034 22.8728 31.5901 23.9995 31.5901C25.1261 31.5901 26.0395 32.5034 26.0395 33.6301Z"
    fill-rule="evenodd"
  />
</svg>
