<svg
  width="48"
  height="48"
  viewBox="0 0 48 48"
  xmlns="http://www.w3.org/2000/svg"
>
<path
    d="M24.0005 12L40.1705 42H7.83049L24.0005 12ZM24.0005 6.32996C23.7905 6.32996 23.5805 6.44996 23.4605 6.65996L3.24049 44.13C3.03049 44.52 3.30049 45 3.78049 45H44.1905C44.6405 45 44.9405 44.52 44.7305 44.13L24.5105 6.65996C24.3905 6.44996 24.1805 6.32996 23.9705 6.32996H24.0005Z"
    fill-rule="evenodd"
  />
<path d="M25.5005 19.44H22.5005V32.07H25.5005V19.44Z" fill-rule="evenodd" />
<path
    d="M24.0005 34.89C22.8905 34.89 21.9905 35.79 21.9905 36.9C21.9905 38.01 22.8905 38.91 24.0005 38.91C25.1105 38.91 26.0405 38.01 26.0405 36.9C26.0405 35.79 25.1405 34.89 24.0005 34.89Z"
    fill-rule="evenodd"
  />
</svg>
