<svg
  width="48"
  height="48"
  viewBox="0 0 48 48"
  xmlns="http://www.w3.org/2000/svg"
>
<path
    d="M44.7298 44.13L34.5898 25.35L24.5098 6.65997C24.2698 6.23997 23.6698 6.23997 23.4598 6.65997L13.3798 25.35L3.23976 44.13C3.02976 44.52 3.29976 45 3.77976 45H44.1898C44.6398 45 44.9398 44.52 44.7298 44.13ZM22.4998 17.97H25.4998V32.1H22.4998V17.97ZM23.9998 38.94C22.8898 38.94 21.9898 38.04 21.9898 36.93C21.9898 35.82 22.8898 34.92 23.9998 34.92C25.1098 34.92 26.0398 35.82 26.0398 36.93C26.0398 38.04 25.1398 38.94 23.9998 38.94Z"
    fill-rule="evenodd"
    clip-rule="evenodd"
  />
</svg>
