<?xml version="1.0" encoding="UTF-8"?>
<svg width="290px" height="272px" viewBox="0 0 290 272" version="1.1" xmlns="http://www.w3.org/2000/svg" xmlns:xlink="http://www.w3.org/1999/xlink">
    <!-- Generator: Sketch 60 (88103) - https://sketch.com -->
    <title>ec_comp_laguage_list</title>
    <desc>Created with Sketch.</desc>
    <g id="thumbnails---final" stroke="none" stroke-width="1" fill="none" fill-rule="evenodd">
        <g id="thumbnails---final_symbols" transform="translate(-1065.000000, -3342.000000)">
            <g id="ec_comp_laguage_list" transform="translate(980.000000, 3305.000000)">
                <g id="ecl-component-library" opacity="0" fill="#FFFFFF" stroke="#979797">
                    <rect id="Rectangle" x="0.5" y="0.5" width="459" height="344"></rect>
                </g>
                <g id="language_list" transform="translate(85.000000, 37.000000)">
                    <rect id="Rectangle" fill="#044695" x="0" y="0" width="290" height="272"></rect>
                    <polygon id="Fill-8" fill="#FFFFFF" points="24 48 133 48 133 32 24 32"></polygon>
                    <polygon id="Fill-8" fill="#FFFFFF" points="157 48 266 48 266 32 157 32"></polygon>
                    <polygon id="Fill-8" fill="#FFFFFF" points="24 72 133 72 133 56 24 56"></polygon>
                    <polygon id="Fill-8" fill="#FFFFFF" points="157 72 266 72 266 56 157 56"></polygon>
                    <polygon id="Fill-8" fill="#FFFFFF" points="24 96 133 96 133 80 24 80"></polygon>
                    <polygon id="Fill-8" fill="#FFFFFF" points="157 96 266 96 266 80 157 80"></polygon>
                    <polygon id="Fill-8" fill="#FFFFFF" points="24 120 133 120 133 104 24 104"></polygon>
                    <polygon id="Fill-8" fill="#FFFFFF" points="157 120 266 120 266 104 157 104"></polygon>
                    <polygon id="Fill-8" fill="#FFDD39" points="24 144 133 144 133 128 24 128"></polygon>
                    <polygon id="Fill-8" fill="#FFFFFF" points="157 144 266 144 266 128 157 128"></polygon>
                    <polygon id="Fill-8" fill="#FFFFFF" points="24 168 133 168 133 152 24 152"></polygon>
                    <polygon id="Fill-8" fill="#FFFFFF" points="157 168 266 168 266 152 157 152"></polygon>
                    <polygon id="Fill-8" fill="#FFFFFF" points="24 192 133 192 133 176 24 176"></polygon>
                    <polygon id="Fill-8" fill="#FFFFFF" points="157 192 266 192 266 176 157 176"></polygon>
                    <polygon id="Fill-8" fill="#FFFFFF" points="24 216 133 216 133 200 24 200"></polygon>
                    <polygon id="Fill-8" fill="#FFFFFF" points="157 216 266 216 266 200 157 200"></polygon>
                    <polygon id="Fill-8" fill="#FFFFFF" points="24 240 133 240 133 224 24 224"></polygon>
                    <polygon id="Fill-8" fill="#FFFFFF" points="157 240 266 240 266 224 157 224"></polygon>
                </g>
            </g>
        </g>
    </g>
</svg>