<?xml version="1.0" standalone="no"?>
<!DOCTYPE svg PUBLIC "-//W3C//DTD SVG 1.1//EN" "http://www.w3.org/Graphics/SVG/1.1/DTD/svg11.dtd" >
<svg xmlns="http://www.w3.org/2000/svg">
<metadata>
<json>
<![CDATA[
{
	"fontFamily": "europa-icons",
	"majorVersion": 1,
	"minorVersion": 1,
	"description": "Font generated by IcoMoon.",
	"version": "Version 1.1",
	"fontId": "europa-icons",
	"psName": "europa-icons",
	"subFamily": "Regular",
	"fullName": "europa-icons"
}
]]>
</json>
</metadata>
<defs>
<font id="europa-icons" horiz-adv-x="1024">
<font-face units-per-em="1024" ascent="870.850439882698" descent="-153.14956011730206" />
<missing-glyph horiz-adv-x="1024" />
<glyph unicode="&#x20;" horiz-adv-x="0" d="" />
<glyph unicode="&#xe800;" glyph-name="video" data-tags="video" d="M0 738.069v-785.151h1025.001v785.151h-1025.001zM384.375 151.768v387.45l320.825-193.725-320.825-193.725z" />
<glyph unicode="&#xe801;" glyph-name="audio" data-tags="audio" d="M521.725 856.969l-305.45-309.55h-168.1v-403.85h168.1l305.45-306.475v1019.876zM772.851 662.219c-21.525-21.525-21.525-51.25 0-71.75 139.4-135.3 139.4-361.825 0-499.175-21.525-21.525-21.525-50.225 0-71.75 9.225-10.25 23.575-13.325 36.9-13.325s26.65 5.125 32.8 13.325c87.125 85.075 136.325 198.85 136.325 320.825s-51.25 235.75-136.325 321.85c-19.475 20.5-48.175 20.5-69.7 0zM664.201 570.994c-21.525 21.525-51.25 21.525-72.775 0s-20.5-50.225 0-71.75c86.1-85.075 86.1-226.525 0-309.55-20.5-21.525-20.5-50.225 0-71.75 10.25-9.225 23.575-13.325 36.9-13.325 10.25 0 23.575 4.1 33.825 13.325 128.125 126.075 128.125 329.025 2.050 453.050z" />
<glyph unicode="&#xe802;" glyph-name="brochure" data-tags="brochure" d="M693.926 732.944l-321.85 111.725-372.075-148.625v-863.051l372.075 138.375 321.85-114.8 331.075 132.225v869.201l-331.075-125.050zM317.75 51.318l-221.4-79.95v664.201l221.4 89.175v-673.426zM644.726-22.482l-217.3 71.75v681.626l217.3-79.95v-673.426zM932.751 49.268l-185.525-73.8v671.376l185.525 72.775v-670.351z" />
<glyph unicode="&#xe803;" glyph-name="euro" data-tags="euro" d="M513.525 713.469c-266.5 0-481.75-160.925-481.75-357.725 0-88.15 66.625-188.6 137.35-251.125l-68.675-215.25 209.1 141.45c61.5-21.525 130.175-33.825 202.95-33.825 266.5 0 481.75 159.9 481.75 357.725s-215.25 358.75-480.725 358.75v0zM616.026 421.344l-9.225-45.1h-158.875c0-5.125 0-10.25 0-17.425s0-14.35 0-21.525h150.675l-10.25-46.125h-134.275c5.125-20.5 12.3-36.9 22.55-49.2 19.475-22.55 45.1-34.85 76.875-34.85 37.925 0 67.65 12.3 90.2 34.85v-90.2c-25.625-12.3-55.35-19.475-89.175-19.475-57.4 0-104.55 19.475-141.45 59.45-25.625 26.65-42.025 59.45-50.225 99.425h-43.050l9.225 46.125h28.7c0 5.125 0 9.225 0 15.375 0 9.225 0 16.4 1.025 23.575h-38.95l9.225 46.125h34.85c8.2 38.95 24.6 71.75 49.2 97.375 37.925 39.975 86.1 60.475 146.575 60.475 33.825 0 62.525-6.15 86.1-18.45l-17.425-82c-16.4 17.425-41 25.625-72.775 25.625s-58.425-11.275-77.9-34.85c-11.275-12.3-19.475-28.7-24.6-48.175h162.975v-1.025z" />
<glyph unicode="&#xe804;" glyph-name="warning" data-tags="warning" d="M513.525 830.319l-513.525-969.651h1025.001l-511.475 969.651zM513.525-38.882c-32.8 0-59.45 27.675-59.45 60.475s26.65 60.475 59.45 60.475c33.825 0 60.475-26.65 60.475-60.475s-26.65-60.475-60.475-60.475v0zM513.525 142.543c-32.8 0-59.45 27.675-59.45 60.475v181.425c0 33.825 26.65 60.475 59.45 60.475s60.475-26.65 60.475-60.475v-181.425c0-32.8-26.65-60.475-60.475-60.475v0z" />
<glyph unicode="&#xe805;" glyph-name="spinner" data-tags="spinner" d="M1025.001 473.619h-384.375l143.5 143.5c-72.775 72.775-169.125 112.75-271.625 112.75s-198.85-39.975-271.625-112.75c-72.775-72.775-112.75-169.125-112.75-271.625s39.975-198.85 112.75-271.625c72.775-72.775 169.125-112.75 271.625-112.75s198.85 39.975 271.625 112.75c6.15 6.15 12.3 12.3 17.425 18.45l96.35-84.050c-93.275-107.625-231.65-175.275-385.4-175.275-282.9 0-512.5 229.6-512.5 512.5s229.6 512.5 512.5 512.5c141.45 0 269.575-57.4 362.85-149.65l149.65 149.65v-384.375z" />
<glyph unicode="&#xe806;" glyph-name="download" data-tags="download" d="M767.726 410.069h-191.675v444.85h-128.125v-444.85h-191.675l255.225-255.225 256.25 255.225zM895.851 410.069v-445.875h-767.726v445.875h-128.125v-572.976h1022.951v572.976h-127.1z" />
<glyph unicode="&#xe807;" glyph-name="edit" data-tags="edit" d="M48.175-167.007v838.451l193.725 186.55h536.076v-231.65l32.8 32.8 166.050-162.975-392.575-393.6-246-80.975 79.95 247.025 268.55 267.525v231.65h-379.25v-159.9h-168.1v-684.701h547.351v146.575l91.225 91.225v-325.95l-729.801-2.050zM419.225 102.568l121.975 41-83.025 84.050-38.95-125.050z" />
<glyph unicode="&#xe808;" glyph-name="digital-big" data-tags="digital-big" d="M511.475 857.994c-283.925-1.025-513.525-231.65-511.475-514.55 0-283.925 230.625-512.5 514.55-510.45s512.5 231.65 510.45 513.525c0 282.9-230.625 511.475-513.525 511.475v0zM367.975 768.819c-33.825-41-71.75-95.325-98.4-169.125h-125.050c53.3 77.9 131.2 137.35 223.45 169.125v0zM106.6 536.144h141.45c-13.325-47.15-20.5-100.45-22.55-159.9h-159.9c3.075 56.375 17.425 110.7 41 159.9v0zM65.6 311.669h159.9c3.075-59.45 11.275-112.75 23.575-158.875h-140.425c-23.575 48.175-37.925 101.475-43.050 158.875v0zM145.55 88.218h126.075c27.675-71.75 65.6-128.125 99.425-168.1-92.25 29.725-170.15 90.2-225.5 168.1v0zM482.775-96.282c-29.725 21.525-95.325 79.95-142.475 184.5h142.475v-184.5zM480.725 152.793h-166.050c-13.325 45.1-23.575 98.4-26.65 158.875h191.675l1.025-158.875zM479.7 377.269h-191.675c3.075 61.5 11.275 114.8 25.625 159.9h164l2.050-159.9zM479.7 601.744h-142.475c17.425 38.95 35.875 69.7 54.325 96.35 26.65 35.875 52.275 61.5 72.775 76.875 6.15 5.125 10.25 8.2 13.325 11.275l2.050-184.5zM959.401 379.319h-159.9c-3.075 59.45-11.275 112.75-23.575 159.9h141.45c22.55-49.2 38.95-103.525 42.025-159.9v0zM879.451 602.769h-125.050c-28.7 73.8-66.625 128.125-100.45 168.1 92.25-31.775 170.15-91.225 225.5-168.1v0zM544.276 601.744v184.5c29.725-22.55 95.325-79.95 142.475-184.5h-142.475zM544.276 537.169h166.050c13.325-45.1 23.575-98.4 26.65-159.9h-191.675l-1.025 159.9zM545.301 313.719h191.675c-3.075-61.5-11.275-114.8-25.625-159.9h-164l-2.050 159.9zM560.676-83.982c-6.15-5.125-10.25-8.2-13.325-11.275v184.5h142.475c-17.425-38.95-35.875-69.7-55.35-96.35-27.675-35.875-54.325-61.5-73.8-76.875v0zM657.026-77.832c33.825 41 70.725 95.325 98.4 169.125h125.050c-53.3-77.9-131.2-137.35-223.45-169.125v0zM918.401 153.818h-141.45c13.325 47.15 20.5 100.45 22.55 159.9h159.9c-3.075-56.375-17.425-109.675-41-159.9v0z" />
<glyph unicode="&#xe809;" glyph-name="facebook" data-tags="facebook" d="M260.35 520.769h109.675v102.5c0 48.175 0 113.775 35.875 156.825 30.75 48.175 78.925 77.9 164 77.9 134.275 0 194.75-18.45 194.75-18.45l-30.75-156.825c0 0-42.025 12.3-85.075 12.3s-78.925-17.425-78.925-54.325v-119.925h170.15l-11.275-156.825h-158.875v-530.951h-199.875v530.951h-109.675v156.825z" />
<glyph unicode="&#xe80a;" glyph-name="file" data-tags="file" d="M341.325 857.994l-192.7-186.55v-838.451h728.776v1025.001h-536.076zM786.176 535.119v-612.951h-548.376v684.701h168.1v159.9h380.275v-231.65z" />
<glyph unicode="&#xe80b;" glyph-name="digital" data-tags="digital" d="M477.65 818.019h69.7c256.25-36.9 402.825-183.475 439.725-439.725v-69.7c-36.9-256.25-183.475-402.825-439.725-439.725h-69.7c-256.25 36.9-402.825 183.475-439.725 439.725v69.7c36.9 256.25 183.475 402.825 439.725 439.725v0zM350.55 581.244h132.225c-1.025 56.375 2.050 116.85-2.050 170.15-56.375-44.075-98.4-101.475-130.175-170.15v0zM562.726 737.044c-6.15 4.1-13.325 13.325-20.5 10.25v-166.050c43.050 1.025 91.225-3.075 131.2 1.025-26.65 57.4-65.6 115.825-110.7 154.775v0zM173.225 581.244h114.8c18.45 61.5 58.425 111.725 89.175 155.8-87.125-33.825-156.825-84.050-203.975-155.8v0zM736.976 581.244h114.8c-47.15 70.725-119.925 127.1-206.025 153.75 38.95-43.050 69.7-93.275 91.225-153.75v0zM139.4 521.794c-23.575-39.975-35.875-90.2-41-148.625h146.575c3.075 54.325 10.25 103.525 22.55 148.625-43.050 0-85.075 0-128.125 0v0zM304.425 373.169h178.35v148.625h-151.7c-16.4-42.025-21.525-95.325-26.65-148.625v0zM544.276 521.794c-5.125-46.125-1.025-99.425-2.050-148.625 58.425 1.025 121.975-2.050 178.35 2.050-5.125 52.275-12.3 102.5-24.6 146.575-50.225 0-101.475 0-151.7 0v0zM779.001 373.169h146.575c-3.075 58.425-18.45 106.6-38.95 148.625h-129.15c12.3-45.1 19.475-94.3 21.525-148.625v0zM98.4 313.719c4.1-58.425 18.45-106.6 38.95-148.625h130.175c-12.3 45.1-19.475 94.3-22.55 148.625h-146.575zM306.475 313.719c-1.025-50.225 11.275-104.55 22.55-148.625h153.75v148.625h-176.3zM544.276 313.719c-5.125-46.125-1.025-99.425-2.050-148.625h153.75c13.325 45.1 20.5 95.325 24.6 148.625h-176.3zM781.051 313.719c-7.175-50.225-10.25-104.55-23.575-148.625h129.15c20.5 42.025 35.875 90.2 38.95 148.625h-144.525zM379.25-48.107c-38.95 43.050-70.725 93.275-91.225 153.75h-114.8c47.15-70.725 119.925-127.1 206.025-153.75v0zM462.275-50.157c5.125-4.1 12.3-13.325 20.5-10.25v166.050c-43.050-1.025-91.225 3.075-132.225-1.025 27.675-57.4 66.625-115.825 111.725-154.775v0zM542.226-62.457c56.375 35.875 100.45 101.475 131.2 168.1h-131.2v-168.1zM647.801-50.157c87.125 33.825 155.8 84.050 203.975 155.8h-114.8c-19.475-60.475-58.425-111.725-89.175-155.8v0z" />
<glyph unicode="&#xe80c;" glyph-name="googleplus" data-tags="googleplus" d="M343.375-118.832c-120.95 0-212.175 77.9-212.175 169.125s108.65 169.125 229.6 162.975c30.75 0 55.35-6.15 78.925-12.3 66.625-48.175 114.8-72.775 127.1-127.1 0-11.275 6.15-23.575 6.15-29.725 0-90.2-60.475-162.975-229.6-162.975v0zM373.1 424.419c-78.925 5.125-156.825 96.35-175.275 198.85-12.3 108.65 42.025 186.55 120.95 186.55 85.075 0 157.85-90.2 175.275-198.85 18.45-102.5-35.875-186.55-120.95-186.55v0zM543.251 267.594c-24.6 17.425-85.075 71.75-85.075 96.35 0 35.875 12.3 48.175 60.475 90.2 54.325 42.025 91.225 102.5 91.225 169.125 0 77.9-36.9 156.825-103.525 180.4h103.525l71.75 54.325h-320.825c-138.375 0-277.775-108.65-277.775-234.725s96.35-229.6 241.9-229.6h29.725c-5.125-18.45-11.275-35.875-11.275-60.475 0-35.875 17.425-65.6 42.025-90.2h-54.325c-175.275 6.15-314.675-108.65-314.675-223.45s150.675-186.55 326.975-186.55c199.875 0 314.675 114.8 314.675 229.6 0 90.2-30.75 144.525-114.8 205v0zM1008.601 418.269h-127.1v119.925h-102.5v-126.075h-127.1v-96.35h127.1v-120.95h102.5v120.95h127.1v102.5z" />
<glyph unicode="&#xe80d;" glyph-name="image" data-tags="image" d="M896.876 666.319h-768.751v-640.626h768.751v640.626zM1025.001 794.444v0-897.901h-1025.001v897.901h1025.001zM833.326 89.243h-640.626v128.125l191.675 320.825 262.4-320.825 186.55 128.125v-256.25zM640.626 505.394c0 55.35 43.050 96.35 96.35 96.35s96.35-43.050 96.35-96.35c0-53.3-43.050-95.325-96.35-95.325s-96.35 44.075-96.35 95.325v0z" />
<glyph unicode="&#xe80e;" glyph-name="package" data-tags="package" horiz-adv-x="1110" d="M1066.001 473.619h44.075v170.15l-129.15 214.225h-851.776l-129.15-214.225v-170.15h1066.001zM44.075 432.619v-510.45c0-48.175 36.9-85.075 85.075-85.075h854.851c48.175 0 85.075 36.9 85.075 85.075v510.45h-1025.001zM385.4 347.544h340.3v-129.15h-340.3v129.15z" />
<glyph unicode="&#xe80f;" glyph-name="infographic" data-tags="infographic" horiz-adv-x="996" d="M508.4 449.019v86.1c-0.147 0-0.32 0.001-0.493 0.001-106.991 0-193.725-86.734-193.725-193.725s86.734-193.725 193.725-193.725c79.197 0 147.295 47.524 177.331 115.61l-87.663 19.689c-19.469-29.786-52.659-49.193-90.382-49.193-59.44 0-107.625 48.185-107.625 107.625s48.185 107.625 107.625 107.625c0.424 0 0.848-0.002 1.271-0.007zM912.251 215.319c-55.368-173.094-214.826-296.224-403.042-296.224-233.23 0-422.3 189.071-422.3 422.3 0 232.945 188.61 421.839 421.448 422.299l0.044 86.1c-0.167 0-0.366 0-0.565 0-280.782 0-508.4-227.618-508.4-508.4 0-140.531 57.019-267.745 149.183-359.769 92.037-92.18 219.253-149.201 359.787-149.201 229.841 0 424.059 152.52 486.967 361.869zM162.975 341.394c0.962-190.044 155.244-343.732 345.421-343.732 150.904 0 279.208 96.766 326.244 231.633l-83.314 20.873c-37.985-99.056-132.304-168.1-242.75-168.1-143.222 0-259.325 116.103-259.325 259.325 0 143.16 116.004 259.225 259.14 259.325l0.009 86.1c-190.773 0-345.425-154.652-345.425-345.425z" />
<glyph unicode="&#xe810;" glyph-name="linkedin" data-tags="linkedin" d="M223.45-127.032h-198.85v636.526h198.85v-636.526zM120.95 587.394v0c-72.775 0-120.95 48.175-120.95 108.65 0 65.6 48.175 113.775 120.95 113.775s119.925-48.175 119.925-107.625c0-66.625-48.175-114.8-119.925-114.8v0zM1025.001-127.032h-228.575v330.050c0 84.050-36.9 144.525-114.8 144.525-60.475 0-90.2-42.025-108.65-77.9 0-12.3 0-35.875 0-54.325v-342.35h-223.45v636.526h223.45v-101.475c12.3 42.025 84.050 107.625 198.85 107.625 144.525 0 253.175-90.2 253.175-288.025v-354.65z" />
<glyph unicode="&#xe811;" glyph-name="organigram" data-tags="organigram" d="M185.525 276.819h285.975v-106.6h82v106.6h285.975v-106.6h83.025v188.6h-369v49.2h-82v-49.2h-369v-188.6h83.025v106.6zM297.25 786.244h430.5v-314.675h-430.5v314.675zM736.976 116.918h288.025v-212.175h-288.025v212.175zM366.95 116.918h289.050v-212.175h-289.050v212.175zM0 116.918h288.025v-212.175h-288.025v212.175z" />
<glyph unicode="&#xe812;" glyph-name="slides" data-tags="slides" d="M970.676 780.094h-918.401v-106.6h24.6v-517.625h379.25v-49.2l-191.675-224.475c-11.275-11.275-9.225-30.75 4.1-42.025 11.275-11.275 30.75-9.225 42.025 4.1l207.050 238.825 194.75-236.775c10.25-13.325 28.7-15.375 42.025-4.1 13.325 9.225 15.375 28.7 4.1 42.025l-191.675 233.7v37.925h379.25v517.625h26.65l-2.050 106.6zM888.676 209.169h-756.451v464.325h756.451v-464.325zM456.125 857.994h107.625v-53.3h-107.625v53.3z" />
<glyph unicode="&#xe813;" glyph-name="rss" data-tags="rss" d="M234.725 66.693c24.6-23.575 43.050-59.45 43.050-96.35s-18.45-71.75-43.050-95.325v0c-23.575-24.6-59.45-42.025-96.35-42.025s-71.75 17.425-96.35 42.025c-23.575 23.575-42.025 59.45-42.025 95.325s18.45 72.775 42.025 96.35v0c24.6 24.6 60.475 42.025 96.35 42.025s66.625-12.3 96.35-42.025v0zM0 510.519v-191.675c127.1 0 247.025-48.175 337.225-138.375 91.225-95.325 145.55-215.25 145.55-341.325v0h198.85c0 185.525-78.925 353.625-198.85 473.55-127.1 126.075-296.225 197.825-482.775 197.825v0zM0 857.994v-191.675c458.175 0 826.151-372.075 826.151-827.176h198.85c0 281.875-114.8 533.001-301.35 719.551s-439.725 299.3-723.651 299.3v0z" />
<glyph unicode="&#xe814;" glyph-name="success" data-tags="success" d="M512.5 857.994c-283.925 0-512.5-228.575-512.5-512.5s228.575-512.5 512.5-512.5c283.925 0 512.5 228.575 512.5 512.5s-228.575 512.5-512.5 512.5v0zM744.151 451.069l-283.925-272.65c-6.15-6.15-15.375-6.15-20.5 0l-41 41c-6.15 6.15-15.375 14.35-20.5 20.5l-97.375 99.425c-2.050 3.075-2.050 6.15-2.050 12.3 0 2.050 2.050 5.125 2.050 8.2l44.075 37.925c3.075 3.075 6.15 3.075 12.3 3.075 3.075 0 8.2 0 11.275-3.075l91.225-96.35c5.125-6.15 14.35-6.15 20.5 0l219.35 211.15c6.15 6.15 14.35 6.15 20.5 0l41-41c9.225-6.15 9.225-14.35 3.075-20.5v0z" />
<glyph unicode="&#xe815;" glyph-name="info" data-tags="info" d="M512.5 857.994c-283.925 0-512.5-228.575-512.5-512.5s228.575-512.5 512.5-512.5c283.925 0 512.5 228.575 512.5 512.5s-231.65 512.5-512.5 512.5v0zM444.85 559.719c0 25.625 23.575 49.2 50.225 49.2h31.775c26.65 0 50.225-23.575 50.225-49.2v-32.8c0-26.65-23.575-49.2-50.225-49.2h-31.775c-26.65 0-50.225 22.55-50.225 49.2v32.8zM644.726 82.068h-263.425v64.575h63.55v198.85h-63.55v64.575h198.85v-263.425h67.65v-64.575h-3.075z" />
<glyph unicode="&#xe816;" glyph-name="check" data-tags="check" horiz-adv-x="1449" d="M1375.551 693.994l-117.875 116.85c-16.4 16.4-41 16.4-57.4 0l-627.301-601.676c-16.4-16.4-41-16.4-57.4 0l-259.325 275.725c-9.225 9.225-25.625 9.225-33.825 9.225-16.4 0-25.625 0-34.85-9.225l-124.025-108.65c0-8.2-9.225-16.4-9.225-24.6 0-16.4 0-25.625 9.225-33.825l275.725-283.925c16.4-16.4 41-41 57.4-57.4l117.875-117.875c16.4-15.375 41-15.375 57.4 0l810.776 776.951c17.425 16.4 17.425 42.025-7.175 58.425z" />
<glyph unicode="&#xe817;" glyph-name="twitter" data-tags="twitter" d="M1025.001 672.469c-35.875-18.45-78.925-30.75-120.95-36.9 42.025 24.6 78.925 67.65 90.2 115.825-42.025-24.6-84.050-42.025-133.25-48.175-35.875 42.025-90.2 66.625-151.7 66.625-114.8 0-212.175-97.375-212.175-213.2 0-18.45 0-30.75 6.15-49.2-175.275 12.3-333.125 91.225-436.65 225.5-18.45-35.875-29.725-72.775-29.725-109.675 0-72.775 35.875-140.425 96.35-177.325-35.875 0-66.625 12.3-96.35 24.6v0c0-103.525 72.775-189.625 169.125-207.050-18.45-6.15-35.875-12.3-54.325-12.3-12.3 0-24.6 0-42.025 6.15 23.575-86.1 102.5-146.575 199.875-146.575-72.775-55.35-164-92.25-261.375-92.25h-48.175c91.225-60.475 206.025-97.375 328-97.375 387.45 0 599.626 323.9 599.626 604.751v30.75c36.9 29.725 72.775 72.775 97.375 115.825z" />
<glyph unicode="&#xe818;" glyph-name="energy" data-tags="energy" d="M508.4 842.619h7.175c16.4-9.225 24.6-24.6 29.725-42.025 31.775-92.25 23.575-234.725 29.725-354.65-30.75 22.55-97.375 16.4-126.075 2.050 4.1 112.75-1.025 262.4 29.725 350.55 5.125 16.4 18.45 38.95 29.725 44.075v0zM498.15 428.519c76.875 11.275 141.45-71.75 95.325-144.525-38.95-61.5-168.1-61.5-176.3 41-2.050 24.6 13.325 60.475 13.325 61.5 13.325 20.5 35.875 36.9 67.65 42.025v0zM480.725 339.344c-5.125-53.3 69.7-44.075 62.525 2.050-2.050 15.375-13.325 28.7-38.95 23.575-17.425-4.1-22.55-14.35-23.575-25.625v0zM385.4 356.769c1.025 0 2.050-1.025 2.050-2.050-7.175-35.875 4.1-67.65 19.475-91.225 9.225-14.35 24.6-22.55 29.725-35.875-73.8-38.95-155.8-85.075-246-120.95-27.675-10.25-113.775-50.225-123-1.025-6.15 31.775 41 64.575 59.45 80.975 76.875 64.575 178.35 123 258.3 170.15v0zM636.526 356.769c84.050-46.125 179.375-104.55 258.3-170.15 18.45-15.375 65.6-46.125 61.5-79.95-7.175-50.225-93.275-12.3-125.050 0-86.1 34.85-170.15 82-243.95 120.95 5.125 14.35 23.575 23.575 33.825 39.975 13.325 21.525 20.5 50.225 15.375 83.025v6.15zM575.026-150.607h-126.075v360.8c33.825-17.425 95.325-12.3 126.075-2.050v-358.75z" />
<glyph unicode="&#xe81a;" glyph-name="budget" data-tags="budget" d="M536.076 772.919c-51.25-13.325-92.25-35.875-116.85-74.825-95.325-18.45-222.425-14.35-310.575 14.35-21.525 7.175-68.675 24.6-68.675 45.1 0 25.625 65.6 45.1 93.275 52.275 124.025 32.8 319.8 25.625 402.825-36.9v0zM477.65 669.394c43.050 51.25 127.1 58.425 215.25 68.675 82 10.25 180.4-6.15 242.925-31.775 18.45-7.175 52.275-21.525 52.275-38.95 0-25.625-82-50.225-107.625-55.35-90.2-20.5-207.050-19.475-295.2 2.050-44.075 10.25-89.175 20.5-107.625 55.35v0zM39.975 673.494c89.175-48.175 244.975-59.45 375.15-39.975v-89.175c-133.25-17.425-300.325-11.275-375.15 56.375 0 24.6 0 49.2 0 72.775v0zM477.65 583.294c129.15-63.55 382.325-66.625 510.45 0-5.125-18.45 6.15-47.15 0-68.675-8.2-28.7-73.8-45.1-109.675-54.325-132.225-29.725-336.2-17.425-400.775 54.325v68.675zM39.975 522.819c91.225-48.175 246-61.5 375.15-41v-88.15c-133.25-17.425-301.35-12.3-375.15 56.375 0 24.6 0 49.2 0 72.775v0zM477.65 432.619c126.075-64.575 383.35-67.65 508.4 0-1.025-17.425 8.2-46.125 2.050-68.675-8.2-28.7-71.75-46.125-107.625-54.325-132.225-28.7-336.2-17.425-402.825 52.275 0 23.575 0 47.15 0 70.725v0zM477.65 281.944c124.025-65.6 385.4-67.65 508.4 0 5.125-20.5 0-49.2 2.050-72.775-27.675-30.75-72.775-42.025-123-52.275-44.075-9.225-105.575-24.6-158.875-12.3-14.35 3.075-29.725 19.475-48.175 27.675-49.2 23.575-115.825 33.825-180.4 41 0 22.55 0 46.125 0 68.675v0zM367.975 150.743c85.075 5.125 178.35-2.050 249.075-29.725 24.6-10.25 54.325-23.575 54.325-38.95-1.025-26.65-84.050-51.25-107.625-56.375-94.3-21.525-203.975-20.5-295.2 0-31.775 7.175-107.625 29.725-107.625 56.375-1.025 25.625 61.5 42.025 86.1 49.2 45.1 13.325 76.875 16.4 120.95 19.475v0zM160.925-1.982c128.125-66.625 382.325-65.6 510.45 0v-71.75c-105.575-89.175-405.9-90.2-510.45 0 0 23.575 0 48.175 0 71.75v0z" />
<glyph unicode="&#xe81b;" glyph-name="location" data-tags="location" horiz-adv-x="684" d="M339.275 345.494c-97.375 0-176.3 78.925-176.3 176.3s78.925 175.275 176.3 175.275c97.375 0 175.275-78.925 175.275-175.275s-77.9-176.3-175.275-176.3zM339.275 857.994c-187.575 0-339.275-151.7-339.275-339.275 0-74.825 48.175-197.825 146.575-375.15 70.725-125.050 139.4-229.6 142.475-234.725l50.225-75.85 50.225 75.85c3.075 5.125 71.75 109.675 141.45 234.725 99.425 177.325 147.6 300.325 147.6 375.15 0 187.575-152.725 339.275-339.275 339.275z" />
<glyph unicode="&#xe81c;" glyph-name="livestreaming" data-tags="livestreaming" horiz-adv-x="1252" d="M1138.776 857.994h-1025.001c-62.525 0-113.775-51.25-113.775-113.775v-171.175h113.775v171.175h1025.001v-797.451h-398.725v-113.775h398.725c62.525 0 113.775 51.25 113.775 113.775v797.451c0 62.525-51.25 113.775-113.775 113.775v0zM0 4.168v-171.175h171.175c0 96.35-74.825 171.175-171.175 171.175v0zM0 231.719v-113.775c159.9 0 284.95-125.050 284.95-284.95h113.775c0 222.425-176.3 398.725-398.725 398.725v0zM0 459.269v-113.775c284.95 0 512.5-227.55 512.5-512.5h113.775c0 347.475-278.8 626.276-626.276 626.276v0z" />
<glyph unicode="&#xe81d;" glyph-name="icon-calendar" data-tags="icon-calendar" horiz-adv-x="919" d="M246 645.819c-37.925 0-69.7 31.775-69.7 69.7v72.775c0 38.95 31.775 69.7 69.7 69.7s69.7-30.75 69.7-69.7v-72.775c0-37.925-30.75-69.7-69.7-69.7v0zM670.351 645.819c-37.925 0-69.7 31.775-69.7 69.7v72.775c0 38.95 31.775 69.7 69.7 69.7s69.7-30.75 69.7-69.7v-72.775c0-37.925-30.75-69.7-69.7-69.7v0zM777.976-25.557h-106.6v105.575h106.6v-105.575zM777.976 150.743h-106.6v106.6h106.6v-106.6zM777.976 328.069h-106.6v105.575h106.6v-105.575zM600.651-25.557h-105.575v105.575h105.575v-105.575zM600.651 150.743h-105.575v106.6h105.575v-106.6zM600.651 328.069h-105.575v105.575h105.575v-105.575zM424.35-25.557h-106.6v105.575h106.6v-105.575zM424.35 150.743h-106.6v106.6h106.6v-106.6zM424.35 328.069h-106.6v105.575h106.6v-105.575zM247.025-25.557h-105.575v105.575h105.575v-105.575zM247.025 150.743h-105.575v106.6h105.575v-106.6zM247.025 328.069h-105.575v105.575h105.575v-105.575zM848.701 504.369h-777.976v-600.651h777.976v600.651zM848.701-167.007h-777.976c-38.95 0-70.725 31.775-70.725 70.725v777.976c0 38.95 31.775 70.725 70.725 70.725h70.725v-35.875c0-58.425 47.15-105.575 105.575-105.575s106.6 47.15 106.6 105.575v35.875h212.175v-35.875c0-58.425 47.15-105.575 105.575-105.575s106.6 47.15 106.6 105.575v35.875h70.725c38.95 0 70.725-31.775 70.725-70.725v-777.976c0-38.95-31.775-70.725-70.725-70.725v0z" />
<glyph unicode="&#xe81e;" glyph-name="languages" data-tags="languages" horiz-adv-x="1027" d="M665.226 328.069h80.975c13.325 28.7 21.525 59.45 23.575 92.25h-91.225c-1.025-33.825-6.15-64.575-13.325-92.25zM679.576 457.219h91.225c-2.050 32.8-10.25 63.55-23.575 92.25h-82c7.175-27.675 12.3-58.425 14.35-92.25zM531.976 291.169v-105.575c16.4 12.3 54.325 45.1 80.975 105.575h-80.975zM651.901 291.169c-16.4-41-37.925-73.8-57.4-96.35 53.3 18.45 98.4 51.25 130.175 96.35h-72.775zM653.951 586.369h71.75c-30.75 45.1-75.85 78.925-128.125 97.375 18.45-23.575 39.975-55.35 56.375-97.375zM627.301 549.469h-95.325v-92.25h110.7c-2.050 34.85-7.175 65.6-15.375 92.25zM641.651 420.319h-109.675v-92.25h95.325c8.2 26.65 13.325 57.4 14.35 92.25zM612.951 587.394c-8.2 22.55-20.5 41-30.75 56.375-15.375 20.5-30.75 34.85-42.025 44.075-2.050 3.075-5.125 4.1-8.2 6.15v-106.6h80.975zM414.1 587.394h82v105.575c-17.425-12.3-55.35-46.125-82-105.575zM302.375 587.394h72.775c15.375 41 37.925 73.8 57.4 96.35-53.3-17.425-98.4-52.275-130.175-96.35zM347.475 421.344h-91.225c2.050-32.8 10.25-64.575 23.575-92.25h80.975c-7.175 27.675-11.275 57.4-13.325 92.25zM361.825 550.494h-80.975c-13.325-28.7-21.525-59.45-24.6-92.25h92.25c2.050 33.825 6.15 64.575 13.325 92.25zM0 633.519v-388.475c0-124.025 100.45-224.475 224.475-224.475h150.675l392.575-187.575v187.575h34.85c123 0 224.475 100.45 224.475 224.475v388.475c0 124.025-101.475 224.475-224.475 224.475h-578.101c-124.025 0-224.475-100.45-224.475-224.475zM219.35 439.794c0 162.975 132.225 295.2 295.2 294.175 162.975 0 294.175-132.225 293.15-295.2 0-162.975-132.225-295.2-295.2-294.175-162.975 0-294.175 132.225-293.15 295.2zM374.125 292.194h-72.775c31.775-45.1 76.875-78.925 129.15-97.375-19.475 23.575-41 55.35-56.375 97.375zM400.775 329.094h94.3v92.25h-109.675c1.025-34.85 6.15-65.6 15.375-92.25zM385.4 458.244h109.675v92.25h-95.325c-8.2-26.65-12.3-57.4-14.35-92.25zM413.075 291.169c9.225-21.525 21.525-39.975 31.775-55.35 15.375-19.475 30.75-34.85 42.025-44.075 2.050-3.075 5.125-5.125 7.175-6.15v105.575h-80.975z" />
<glyph unicode="&#xe81f;" glyph-name="down" data-tags="down" d="M512.5 121.018c-17.425 0-33.825 7.175-46.125 19.475l-318.775 317.75c-25.625 25.625-25.625 66.625 0 92.25s67.65 25.625 93.275 0l271.625-270.6 271.625 270.6c25.625 25.625 67.65 25.625 93.275 0s25.625-66.625 0-92.25l-318.775-317.75c-12.3-12.3-28.7-19.475-46.125-19.475v0z" />
<glyph unicode="&#xe820;" glyph-name="copy" data-tags="copy" horiz-adv-x="779" d="M630.376 721.669v136.325h-463.3l-167.075-161.95v-726.726h149.65v-136.325h630.376v888.676h-149.65zM77.9 46.193v593.476h145.55v139.4h328v-57.4h-234.725l-167.075-160.925v-514.55h-71.75zM701.101 442.869v-531.976h-474.575v593.476h146.575v139.4h328v-200.9z" />
<glyph unicode="&#xe821;" glyph-name="arrow-up" data-tags="arrow-up" horiz-adv-x="1245" d="M1246.401-167.007l-636.526 1025.001-609.876-1025.001z" />
<glyph unicode="&#xe822;" glyph-name="arrow-down" data-tags="arrow-down" horiz-adv-x="1245" d="M0 857.994l637.551-1025.001 608.851 1025.001z" />
<glyph unicode="&#xe823;" glyph-name="search" data-tags="search" horiz-adv-x="1026" d="M1001.426-21.457l-223.45 222.425c-1.025 1.025-2.050 2.050-3.075 3.075 44.075 66.625 69.7 146.575 69.7 231.65 0 233.7-189.625 422.3-422.3 422.3s-422.3-187.575-422.3-421.275c0-233.7 189.625-422.3 422.3-422.3 85.075 0 165.025 25.625 231.65 69.7 1.025-1.025 2.050-2.050 3.075-3.075l222.425-223.45c33.825-32.8 88.15-32.8 121.975 0s33.825 87.125 0 120.95v0zM422.3 160.993c-152.725 0-275.725 123-275.725 275.725s123 275.725 275.725 275.725c151.7 0 275.725-123 275.725-275.725s-124.025-275.725-275.725-275.725v0z" />
<glyph unicode="&#xe824;" glyph-name="language" data-tags="language" horiz-adv-x="1027" d="M802.576 857.994h-578.101c-124.025 0-224.475-100.45-224.475-224.475v-388.475c0-124.025 100.45-224.475 224.475-224.475h34.85v-187.575l392.575 187.575h150.675c123 0 224.475 100.45 224.475 224.475v388.475c0 124.025-101.475 224.475-224.475 224.475z" />
<glyph unicode="&#xe825;" glyph-name="external" data-tags="external" horiz-adv-x="1196" d="M0 857.994v-1025.001h1025.001v381.3h-128.125v-255.225h-766.701v770.801h254.2v126.075l-384.375 2.050zM537.101 857.994l182.45-186.55-270.6-269.575 119.925-119.925 273.675 271.625 182.45-182.45v486.875h-487.9z" />
<glyph unicode="&#xe826;" glyph-name="left" data-tags="left" d="M288.025 345.494c0 17.425 7.175 33.825 19.475 46.125l317.75 318.775c25.625 25.625 66.625 25.625 92.25 0s25.625-67.65 0-93.275l-270.6-271.625 270.6-271.625c25.625-25.625 25.625-66.625 0-93.275-25.625-25.625-66.625-25.625-92.25 0l-317.75 318.775c-12.3 12.3-19.475 28.7-19.475 46.125v0z" />
<glyph unicode="&#xe827;" glyph-name="up" data-tags="up" d="M512.5 569.969c17.425 0 33.825-7.175 46.125-19.475l318.775-317.75c25.625-25.625 25.625-66.625 0-92.25s-67.65-25.625-93.275 0l-271.625 270.6-271.625-270.6c-25.625-25.625-66.625-25.625-93.275 0-25.625 25.625-25.625 66.625 0 93.275l318.775 316.725c12.3 12.3 28.7 19.475 46.125 19.475v0z" />
<glyph unicode="&#xe828;" glyph-name="right" data-tags="right" d="M736.976 345.494c0-17.425-7.175-33.825-19.475-46.125l-317.75-318.775c-25.625-25.625-66.625-25.625-92.25 0s-25.625 67.65 0 93.275l270.6 271.625-270.6 271.625c-25.625 25.625-25.625 67.65 0 93.275s66.625 25.625 93.275 0l316.725-318.775c12.3-12.3 19.475-28.7 19.475-46.125v0z" />
<glyph unicode="&#xe829;" glyph-name="global" data-tags="global" d="M93.275 462.344v34.85c12.3 159.9 74.825 267.525 169.125 345.425 13.325-13.325 29.725-25.625 39.975-43.050-89.175-76.875-157.85-197.825-147.6-356.7 15.375-215.25 206.025-398.725 446.9-382.325 100.45 6.15 169.125 45.1 234.725 93.275-12.3 16.4-27.675 31.775-45.1 44.075-91.225-84.050-267.525-96.35-385.4-34.85-107.625 55.35-199.875 176.3-188.6 341.325 11.275 173.225 137.35 298.275 291.1 326.975 183.475 33.825 338.25-78.925 393.6-214.225 49.2-120.95 22.55-283.925-50.225-360.8 27.675-30.75 58.425-57.4 83.025-91.225-91.225-96.35-211.15-179.375-400.775-165.025-129.15 9.225-232.675 68.675-305.45 143.5-75.85 78.925-127.1 181.425-133.25 316.725 0 1.025 0 2.050-2.050 2.050v0zM467.4 727.819c48.175-11.275 29.725-60.475 6.15-85.075-34.85-35.875-148.625-58.425-65.6-102.5 6.15-33.825 28.7-26.65 61.5-29.725 38.95-3.075 91.225-16.4 104.55-52.275 13.325-34.85-11.275-73.8-26.65-104.55-15.375-29.725-22.55-64.575-38.95-84.050-9.225-10.25-25.625-18.45-36.9-15.375-36.9 9.225-13.325 93.275-25.625 141.45-6.15 27.675-28.7 42.025-26.65 71.75 1.025 12.3 11.275 21.525 7.175 31.775-24.6 16.4-58.425 18.45-78.925 38.95-12.3 11.275-14.35 27.675-29.725 36.9-42.025-112.75 5.125-231.65 64.575-290.075 47.15-47.15 121.975-83.025 207.050-76.875 157.85 10.25 278.8 146.575 249.075 328-10.25-3.075-23.575-1.025-32.8-4.1 2.050-22.55 4.1-39.975 1.025-64.575-41-25.625-23.575-111.725-80.975-121.975-29.725 35.875 0 124.025-30.75 151.7-26.65 22.55-88.15-3.075-86.1 43.050 2.050 41 79.95 49.2 91.225 80.975-5.125 6.15-25.625-2.050-28.7 6.15 4.1 39.975 34.85 54.325 75.85 58.425-50.225 58.425-192.7 88.15-279.825 42.025v0zM805.651-149.582h-466.375c13.325 60.475 101.475 46.125 173.225 48.175 1.025 16.4-3.075 37.925 2.050 51.25h119.925v-51.25c70.725-2.050 159.9 13.325 171.175-48.175v0z" />
<glyph unicode="&#xe82a;" glyph-name="growth" data-tags="growth" d="M112.75 127.168h167.075v-222.425h-167.075v222.425zM331.075 235.819h168.1v-330.050h-168.1v330.050zM553.501 291.169h167.075v-385.4h-167.075v385.4zM771.826 458.244h168.1v-554.526h-168.1v554.526zM927.626 782.144l-227.55-5.125 83.025-83.025-216.275-229.6-178.35 154.775-308.525-300.325 60.475-61.5 251.125 244.975 181.425-156.825 271.625 287 77.9-77.9 5.125 227.55z" />
<glyph unicode="&#xe82b;" glyph-name="regulation" data-tags="regulation" d="M505.325 819.044h12.3c137.35-71.75 282.9-159.9 424.35-238.825 19.475-10.25 51.25-22.55 57.4-35.875 8.2-17.425 2.050-60.475-6.15-66.625-12.3-12.3-79.95-6.15-115.825-6.15h-733.901c-45.1 0-114.8-10.25-121.975 17.425v49.2c3.075 11.275 11.275 15.375 17.425 20.5 33.825 22.55 75.85 43.050 114.8 64.575 111.725 63.55 238.825 135.3 351.575 195.775v0zM497.125 560.744c86.1-17.425 89.175 124.025 0 104.55-59.45-14.35-41-97.375 0-104.55v0zM335.175 437.744c8.2-31.775-3.075-59.45-29.725-63.55-1.025-82 3.075-170.15-2.050-249.075-46.125-3.075-106.6-3.075-153.75 0-4.1 78.925-1.025 166.050-2.050 247.025-23.575 7.175-38.95 31.775-29.725 65.6 67.65 3.075 149.65 3.075 217.3 0v0zM620.126 437.744c8.2-31.775-3.075-59.45-29.725-63.55-1.025-82 3.075-170.15-2.050-249.075-47.15-3.075-107.625-3.075-153.75 0-5.125 78.925-1.025 166.050-2.050 247.025-23.575 7.175-39.975 31.775-29.725 65.6 67.65 3.075 149.65 3.075 217.3 0v0zM905.076 437.744c8.2-31.775-4.1-59.45-29.725-63.55-2.050-82 2.050-170.15-2.050-249.075-47.15-3.075-107.625-3.075-154.775 0-4.1 78.925 0 166.050-2.050 247.025-23.575 7.175-38.95 31.775-29.725 65.6 68.675 3.075 149.65 3.075 218.325 0v0zM102.5 90.268c19.475 6.15 73.8 2.050 106.6 2.050h624.226c29.725 0 86.1 3.075 97.375-6.15 13.325-12.3 10.25-73.8 0-83.025-12.3-11.275-69.7-6.15-101.475-6.15h-637.551c-28.7 0-86.1-6.15-99.425 6.15-16.4 14.35-12.3 78.925 10.25 87.125v0zM21.525-109.607v55.35c5.125 12.3 10.25 16.4 21.525 19.475 30.75 7.175 76.875 0 118.9 0h717.501c35.875 0 101.475 5.125 113.775-6.15 13.325-11.275 10.25-73.8 0-83.025-12.3-10.25-77.9-6.15-112.75-6.15h-718.526c-57.4 0-127.1-11.275-140.425 20.5v0z" />
<glyph unicode="&#xe82c;" glyph-name="close" data-tags="close" d="M963.501 345.494c0-123-46.125-235.75-133.25-317.75-87.125-87.125-199.875-133.25-317.75-133.25-123 0-235.75 46.125-317.75 133.25-87.125 87.125-133.25 199.875-133.25 317.75s46.125 235.75 133.25 317.75c82 87.125 194.75 133.25 317.75 133.25s235.75-46.125 317.75-133.25c87.125-82 133.25-194.75 133.25-317.75v0zM984.001 545.369c-25.625 61.5-61.5 117.875-107.625 164s-102.5 82-164 107.625c-61.5 25.625-128.125 41-199.875 41s-138.375-15.375-199.875-41c-61.5-25.625-117.875-61.5-164-107.625-46.125-51.25-82-102.5-107.625-164s-41-128.125-41-199.875 15.375-138.375 41-199.875c25.625-61.5 61.5-117.875 107.625-164s102.5-82 164-107.625c61.5-25.625 128.125-41 199.875-41s138.375 15.375 199.875 41c61.5 25.625 117.875 61.5 164 107.625s82 102.5 107.625 164c25.625 61.5 41 128.125 41 199.875s-15.375 138.375-41 199.875v0zM722.626 196.869l-148.625 148.625 148.625 148.625-61.5 61.5-148.625-148.625-148.625 148.625-61.5-61.5 148.625-148.625-148.625-148.625 61.5-61.5 148.625 148.625 148.625-148.625 61.5 61.5z" />
<glyph unicode="&#xe82d;" glyph-name="close-dark" data-tags="close-dark" d="M663.176 132.293l-150.675 150.675-150.675-150.675-62.525 63.55 149.65 150.675-149.65 148.625 63.55 63.55 149.65-149.65 149.65 150.675 63.55-63.55-150.675-149.65 151.7-151.7-63.55-62.525zM512.5 857.994c-282.9 0-512.5-229.6-512.5-512.5s229.6-512.5 512.5-512.5c282.9 0 512.5 229.6 512.5 512.5s-229.6 512.5-512.5 512.5v0z" />
<glyph unicode="&#xe82e;" glyph-name="conversation-speech-bubbles-" data-tags="conversation-speech-bubbles-" horiz-adv-x="1196" d="M1196.176 414.169c0-116.85-60.475-222.425-158.875-301.35 4.1-76.875 20.5-181.425 80.975-234.725-114.8 0-231.65 71.75-300.325 123-68.675-20.5-142.475-31.775-220.375-31.775-330.050 0-597.576 199.875-597.576 444.85s267.525 443.825 597.576 443.825c330.050 0 598.601-198.85 598.601-443.825z" />
<glyph unicode="&#xe82f;" glyph-name="error" data-tags="error" d="M723.651 857.994h-424.35l-298.275-301.35v-424.35l301.35-298.275h424.35l298.275 301.35v421.275l-301.35 301.35zM580.151 337.294l105.575-105.575c6.15-5.125 6.15-14.35 0-19.475l-37.925-38.95c-6.15-5.125-14.35-5.125-20.5 0l-105.575 105.575c-5.125 6.15-14.35 6.15-20.5 0l-104.55-105.575c-6.15-5.125-15.375-5.125-20.5 0l-37.925 38.95c-6.15 5.125-6.15 14.35 0 19.475l104.55 105.575c6.15 6.15 6.15 14.35 0 20.5l-104.55 105.575c-6.15 6.15-6.15 14.35 0 20.5l37.925 37.925c5.125 6.15 14.35 6.15 20.5 0l104.55-105.575c6.15-6.15 15.375-6.15 20.5 0l105.575 105.575c6.15 6.15 14.35 6.15 20.5 0l37.925-37.925c6.15-6.15 6.15-14.35 0-20.5l-105.575-105.575c-5.125-8.2-5.125-14.35 0-20.5v0z" />
<glyph unicode="&#xe900;" glyph-name="spreadsheet" data-tags="spreadsheet" horiz-adv-x="1068" d="M0 729.869v-768.751c0-70.725 57.4-128.125 128.125-128.125h811.801c70.725 0 128.125 57.4 128.125 128.125v768.751c0 70.725-57.4 128.125-128.125 128.125h-811.801c-70.725 0-128.125-57.4-128.125-128.125zM85.075 601.744h214.225v-171.175h-214.225v171.175zM341.325 601.744h640.626v-171.175h-640.626v171.175zM981.951 388.544v-128.125h-640.626v128.125h640.626zM981.951 217.369v-128.125h-640.626v128.125h640.626zM981.951 46.193v-42.025c0-71.75-14.35-86.1-85.075-86.1h-555.551v128.125h640.626zM299.3-81.932h-128.125c-71.75 0-86.1 14.35-86.1 86.1v42.025h214.225v-128.125zM85.075 89.243v128.125h214.225v-128.125h-214.225zM85.075 260.419v128.125h214.225v-128.125h-214.225z" />
<glyph unicode="&#xe901;" glyph-name="share" data-tags="share" horiz-adv-x="820" d="M666.251 191.743q63.55 0 108.65-44.075t45.1-109.675q0-63.55-45.1-108.65t-108.65-45.1-108.65 45.1-45.1 108.65q0 6.15 1.025 14.35t1.025 12.3l-266.5 159.9q-43.050-32.8-94.3-32.8-63.55 0-108.65 45.1t-45.1 108.65 45.1 108.65 108.65 45.1q55.35 0 94.3-30.75l266.5 159.9q0 4.1-1.025 12.3t-1.025 12.3q0 63.55 45.1 108.65t108.65 45.1 108.65-44.075 45.1-109.675q0-63.55-45.1-108.65t-108.65-45.1q-53.3 0-92.25 32.8l-268.55-159.9q2.050-8.2 2.050-26.65 0-16.4-2.050-24.6l268.55-159.9q36.9 30.75 92.25 30.75z" />
<glyph unicode="&#xe902;" glyph-name="presentation" data-tags="presentation" horiz-adv-x="913" d="M403.85 843.644h102.5v-50.225h-102.5zM895.851 766.769h-881.501v-103.525h23.575v-500.2h362.85v-47.15l-182.45-218.325c-12.3-11.275-9.225-29.725 3.075-41s28.7-9.225 41 3.075l196.8 232.675 188.6-229.6c9.225-12.3 26.65-15.375 41-3.075 12.3 8.2 15.375 26.65 3.075 41l-182.45 226.525v35.875h362.85v500.2h25.625l-2.050 103.525zM818.976 216.344h-727.751v449.975h724.676l3.075-449.975z" />
<glyph unicode="&#xe903;" glyph-name="multiple-files" data-tags="multiple-files" horiz-adv-x="623" d="M562.726 669.394c30.75 0 59.45-31.775 59.45-60.475v-717.501c0-29.725-30.75-58.425-59.45-58.425h-415.125c-33.825 0-62.525 30.75-62.525 58.425v630.376l149.65 145.55h328v2.050zM562.726 608.919h-268.55v-91.225c0-30.75-30.75-58.425-57.4-58.425h-91.225v-567.851h417.175v717.501zM562.726 669.394c30.75 0 59.45-31.775 59.45-60.475v-717.501c0-29.725-30.75-58.425-59.45-58.425h-415.125c-33.825 0-62.525 30.75-62.525 58.425v630.376l149.65 145.55h328v2.050zM62.525 90.268v549.401h93.275c30.75 0 62.525 27.675 62.525 60.475v95.325h279.825v-105.575h62.525v105.575c0 31.775-31.775 62.525-64.575 62.525h-340.3l-155.8-151.7v-618.076c0-26.65 28.7-58.425 62.525-60.475v62.525z" />
<glyph unicode="&#xe904;" glyph-name="faq" data-tags="faq" d="M593.476 97.443h-174.25c0 25.625 0 41 0 46.125 0 56.375 9.225 102.5 27.675 139.4s56.375 77.9 111.725 123c56.375 45.1 90.2 75.85 100.45 89.175 17.425 22.55 25.625 47.15 25.625 73.8 0 37.925-15.375 69.7-45.1 96.35s-69.7 39.975-119.925 39.975c-49.2 0-90.2-14.35-123-42.025s-55.35-69.7-67.65-127.1l-176.3 22.55c5.125 80.975 39.975 150.675 104.55 207.050 64.575 57.4 148.625 86.1 254.2 86.1 109.675 0 197.825-28.7 262.4-87.125 65.6-57.4 98.4-124.025 98.4-200.9 0-42.025-12.3-82-35.875-119.925-24.6-37.925-75.85-89.175-153.75-154.775-41-33.825-65.6-60.475-75.85-80.975-9.225-20.5-14.35-57.4-13.325-110.7zM419.225-160.857v192.7h192.7v-192.7h-192.7z" />
<glyph unicode="&#xe905;" glyph-name="data" data-tags="data" horiz-adv-x="899" d="M449.975 857.994c-249.075 0-449.975-98.4-449.975-224.475v-579.126c0-123 200.9-224.475 449.975-224.475s448.95 99.425 448.95 222.425v581.176c0 126.075-203.975 224.475-448.95 224.475zM803.601 54.393c0-38.95-119.925-128.125-353.625-128.125-230.625 0-353.625 89.175-353.625 128.125v150.675c80.975-51.25 209.1-87.125 353.625-87.125 140.425 0 269.575 32.8 353.625 87.125v-150.675zM803.601 342.419c0-38.95-119.925-129.15-353.625-129.15-230.625 0-353.625 90.2-353.625 129.15v149.65c80.975-50.225 209.1-86.1 353.625-86.1 140.425 0 269.575 32.8 353.625 86.1v-149.65zM449.975 504.369c-230.625 0-353.625 90.2-353.625 129.15s119.925 128.125 353.625 128.125c230.625 0 353.625-89.175 353.625-128.125s-123-129.15-353.625-129.15z" />
<glyph unicode="&#xe906;" glyph-name="book" data-tags="book" horiz-adv-x="836" d="M835.376 8.268v849.726h-731.851c-58.425 0-103.525-47.15-103.525-102.5v-820.001c0-58.425 47.15-102.5 103.525-102.5h603.726v849.726h-582.201c-32.8 0-58.425 27.675-58.425 58.425-2.050 33.825 25.625 61.5 58.425 61.5h666.251v-794.376h44.075z" />
<glyph unicode="&#xe907;" glyph-name="camera" data-tags="camera" horiz-adv-x="1671" d="M1251.221-139.858h-1251.229v970.702h1251.229v-339.321l424.458 341.832v-975.722l-424.458 341.832z" />
<glyph unicode="&#xe908;" glyph-name="user" data-tags="user" horiz-adv-x="1103" d="M863.037 99.879c-143.839 50.424-191.786 93.091-191.786 186.182 0 54.303 43.951 38.788 63.929 139.636 7.991 42.667 47.946 0 55.938 96.97 0 38.788-19.978 46.545-19.978 46.545s11.987 58.182 15.982 100.848c3.996 54.303-31.964 193.939-231.741 193.939s-239.732-139.636-231.741-193.939c3.996-42.667 15.982-100.848 15.982-100.848s-27.969-7.758-27.969-46.545c7.991-96.97 47.946-54.303 55.938-96.97 19.978-100.848 63.929-81.455 63.929-139.636 0-93.091-47.946-135.758-191.786-186.182s-239.732-104.727-239.732-139.636v-120.242h1102.769v120.242c-3.996 34.909-95.893 89.212-239.732 139.636z" />
<glyph unicode="&#xe909;" glyph-name="logout" data-tags="logout" horiz-adv-x="1293" d="M1002.442 432.842c-127.731 0-255.461 0-383.192 0-38.154-0.021-71.099-26.715-79.032-64.035s11.308-75.106 46.156-90.643c17.472-5.178 35.694-7.364 53.895-6.467h372.952c-34.493-35.032-62.518-62.518-88.926-91.621-25.446-26.457-29.872-66.737-10.779-98.088 17.861-30.675 54.257-45.322 88.387-35.571 16.781 5.16 32.107 14.208 44.733 26.408 71.86 71.86 143.719 143.719 215.579 215.579 18.516 15.254 29.242 37.988 29.242 61.979s-10.726 46.725-29.242 61.979c-71.86 74.015-145.156 147.312-219.891 219.891-14.623 17.076-35.659 27.342-58.117 28.363s-44.339-7.294-60.451-22.973c-16.397-16.206-25.261-38.537-24.442-61.577s11.246-44.685 28.753-59.686c25.331-25.869 53.895-50.122 78.147-75.453l-3.773-8.084zM730.813-5.322h-569.128c0 114.796 0 319.057 0 411.756 0 14.552 0 26.408 0 43.116s0 28.025 0 42.577c0 79.225 0 156.295 0 210.189h549.726c18.201-0.897 36.423 1.29 53.895 6.467 35.578 13.93 55.866 51.544 47.966 88.926-6.312 40.036-42.002 68.728-82.459 66.291h-646.737c-41.056 3.314-77.721-25.594-84.076-66.291-1.238-8.579-1.238-17.291 0-25.869 0-5.928 0-11.857 0-15.629 0-34.493 0-127.731 0-233.903v0c0-24.253 0-48.505 0-72.758s0-49.044 0-70.602v0c0-107.789 0-409.061 0-441.937 0-6.467 0-12.935 0-19.402-0.19-10.666 1.639-21.272 5.389-31.259v0 0c2.499-5.964 5.76-11.58 9.701-16.707 1.955-2.849 4.117-5.551 6.467-8.084l8.084-6.467c5.436-6.011 11.806-11.106 18.863-15.091v0c9.987-3.751 20.593-5.58 31.259-5.389h631.646c18.201-0.897 36.423 1.29 53.895 6.467 33.794 16.363 51.873 53.84 43.646 90.474s-40.594 62.783-78.139 63.126z" />
</font>
</defs>
</svg>
