<svg width="460" height="345" viewBox="0 0 460 345" fill="none" xmlns="http://www.w3.org/2000/svg">
<rect x="140" y="37" width="180" height="272" fill="white"/>
<rect x="150" y="47" width="160" height="125" fill="#BED0E4"/>
<path fill-rule="evenodd" clip-rule="evenodd" d="M268 93.5V135.929C268 137.893 267.316 139.562 265.949 140.937C264.582 142.312 262.922 143 260.969 143H200.031C198.078 143 196.418 142.312 195.051 140.937C193.684 139.562 193 137.893 193 135.929V93.5C193 91.5357 193.684 89.8661 195.051 88.4911C196.418 87.1161 198.078 86.4286 200.031 86.4286H212.922L214.68 81.567C215.266 80.192 216.145 79.0871 217.316 78.2522C218.488 77.4174 219.807 77 221.271 77H239.729C241.193 77 242.512 77.4174 243.684 78.2522C244.855 79.0871 245.734 80.192 246.32 81.567L248.078 86.4286H260.969C262.922 86.4286 264.582 87.1161 265.949 88.4911C267.316 89.8661 268 91.5357 268 93.5ZM248 114.5C248 111.292 247.222 108.351 245.667 105.677C244.111 103.003 241.997 100.889 239.323 99.3333C236.649 97.7778 233.708 97 230.5 97C227.292 97 224.351 97.7778 221.677 99.3333C219.003 100.889 216.889 103.003 215.333 105.677C213.778 108.351 213 111.292 213 114.5C213 117.708 213.778 120.649 215.333 123.323C216.889 125.997 219.003 128.111 221.677 129.667C224.351 131.222 227.292 132 230.5 132C233.708 132 236.649 131.222 239.323 129.667C241.997 128.111 244.111 125.997 245.667 123.323C247.222 120.649 248 117.708 248 114.5ZM240.159 124.159C242.72 121.598 244 118.545 244 115C244 111.455 242.72 108.402 240.159 105.841C237.598 103.28 234.545 102 231 102C227.455 102 224.402 103.28 221.841 105.841C219.28 108.402 218 111.455 218 115C218 118.545 219.28 121.598 221.841 124.159C224.402 126.72 227.455 128 231 128C234.545 128 237.598 126.72 240.159 124.159Z" fill="#C6D9EE"/>
<path fill-rule="evenodd" clip-rule="evenodd" d="M140 261H320V260H140V261Z" fill="#0E47CB" fill-opacity="0.2"/>
<path fill-rule="evenodd" clip-rule="evenodd" d="M150 192H228V182H150V192Z" fill="#0E47CB"/>
<path fill-rule="evenodd" clip-rule="evenodd" d="M164 214H283V204H164V214Z" fill="#9FB5EA"/>
<path fill-rule="evenodd" clip-rule="evenodd" d="M150 209C150 211.761 152.239 214 155 214V214C157.761 214 160 211.761 160 209V209C160 206.239 157.761 204 155 204V204C152.239 204 150 206.239 150 209V209Z" fill="#444444"/>
<path fill-rule="evenodd" clip-rule="evenodd" d="M164 232H310V222H164V232Z" fill="#9FB5EA"/>
<path fill-rule="evenodd" clip-rule="evenodd" d="M150 227C150 229.761 152.239 232 155 232V232C157.761 232 160 229.761 160 227V227C160 224.239 157.761 222 155 222V222C152.239 222 150 224.239 150 227V227Z" fill="#444444"/>
<path fill-rule="evenodd" clip-rule="evenodd" d="M164 250H268V240H164V250Z" fill="#9FB5EA"/>
<path fill-rule="evenodd" clip-rule="evenodd" d="M150 245C150 247.761 152.239 250 155 250V250C157.761 250 160 247.761 160 245V245C160 242.239 157.761 240 155 240V240C152.239 240 150 242.239 150 245V245Z" fill="#444444"/>
<path fill-rule="evenodd" clip-rule="evenodd" d="M164 281H268V271H164V281Z" fill="#9FB5EA"/>
<path fill-rule="evenodd" clip-rule="evenodd" d="M150 276C150 278.761 152.239 281 155 281V281C157.761 281 160 278.761 160 276V276C160 273.239 157.761 271 155 271V271C152.239 271 150 273.239 150 276V276Z" fill="#444444"/>
<path fill-rule="evenodd" clip-rule="evenodd" d="M164 299H268V289H164V299Z" fill="#9FB5EA"/>
<path fill-rule="evenodd" clip-rule="evenodd" d="M150 294C150 296.761 152.239 299 155 299V299C157.761 299 160 296.761 160 294V294C160 291.239 157.761 289 155 289V289C152.239 289 150 291.239 150 294V294Z" fill="#444444"/>
<path d="M148 38H312V36H148V38ZM319 45V301H321V45H319ZM312 308H148V310H312V308ZM141 301V45H139V301H141ZM148 308C144.134 308 141 304.866 141 301H139C139 305.971 143.029 310 148 310V308ZM319 301C319 304.866 315.866 308 312 308V310C316.971 310 321 305.971 321 301H319ZM312 38C315.866 38 319 41.134 319 45H321C321 40.0294 316.971 36 312 36V38ZM148 36C143.029 36 139 40.0294 139 45H141C141 41.134 144.134 38 148 38V36Z" fill="#0E47CB" fill-opacity="0.25"/>
</svg>
