<svg width="460" height="345" viewBox="0 0 460 345" fill="none" xmlns="http://www.w3.org/2000/svg">
<rect x="40" y="102" width="380" height="141" fill="#004494"/>
<path fill-rule="evenodd" clip-rule="evenodd" d="M125 186H309V178H125V186Z" fill="#CFCFCF"/>
<path fill-rule="evenodd" clip-rule="evenodd" d="M125 202H309V194H125V202Z" fill="#CFCFCF"/>
<path fill-rule="evenodd" clip-rule="evenodd" d="M125 218H273.615V210H125V218Z" fill="#CFCFCF"/>
<path fill-rule="evenodd" clip-rule="evenodd" d="M57 166H142V156H57V166Z" fill="white"/>
<rect x="57" y="178" width="56" height="44" fill="#BED0E4"/>
<path fill-rule="evenodd" clip-rule="evenodd" d="M98.3 194.368V209.303C98.3 209.994 98.0607 210.582 97.5822 211.066C97.1037 211.55 96.5227 211.792 95.8391 211.792H74.5109C73.8273 211.792 73.2463 211.55 72.7678 211.066C72.2893 210.582 72.05 209.994 72.05 209.303V194.368C72.05 193.677 72.2893 193.089 72.7678 192.605C73.2463 192.121 73.8273 191.879 74.5109 191.879H79.0227L79.6379 190.168C79.843 189.684 80.1506 189.295 80.5607 189.001C80.9709 188.707 81.4323 188.56 81.945 188.56H88.405C88.9177 188.56 89.3791 188.707 89.7893 189.001C90.1994 189.295 90.507 189.684 90.7121 190.168L91.3273 191.879H95.8391C96.5227 191.879 97.1037 192.121 97.5822 192.605C98.0607 193.089 98.3 193.677 98.3 194.368ZM91.3 201.76C91.3 200.631 91.0278 199.596 90.4833 198.654C89.9389 197.713 89.1988 196.969 88.263 196.421C87.3273 195.874 86.2979 195.6 85.175 195.6C84.0521 195.6 83.0227 195.874 82.087 196.421C81.1512 196.969 80.4111 197.713 79.8667 198.654C79.3222 199.596 79.05 200.631 79.05 201.76C79.05 202.889 79.3222 203.925 79.8667 204.866C80.4111 205.807 81.1512 206.551 82.087 207.099C83.0227 207.646 84.0521 207.92 85.175 207.92C86.2979 207.92 87.3273 207.646 88.263 207.099C89.1988 206.551 89.9389 205.807 90.4833 204.866C91.0278 203.925 91.3 202.889 91.3 201.76ZM88.5557 205.16C89.4519 204.259 89.9 203.184 89.9 201.936C89.9 200.688 89.4519 199.613 88.5557 198.712C87.6595 197.811 86.5909 197.36 85.35 197.36C84.1091 197.36 83.0405 197.811 82.1443 198.712C81.2481 199.613 80.8 200.688 80.8 201.936C80.8 203.184 81.2481 204.259 82.1443 205.16C83.0405 206.061 84.1091 206.512 85.35 206.512C86.5909 206.512 87.6595 206.061 88.5557 205.16Z" fill="#C6D9EE"/>
<path fill-rule="evenodd" clip-rule="evenodd" d="M59 128H116V118H59V128Z" fill="#CFCFCF"/>
<path d="M132.567 118.068C132.614 118.023 132.677 118 132.756 118C132.835 118 132.906 118.023 132.969 118.068L137.906 122.819C137.969 122.864 138 122.925 138 123C138 123.075 137.969 123.136 137.906 123.181L132.969 127.932C132.906 127.977 132.835 128 132.756 128C132.677 128 132.614 127.977 132.567 127.932L132.094 127.48C132.031 127.434 132 127.374 132 127.299C132 127.223 132.031 127.155 132.094 127.095L136.37 123L132.094 118.905C132.031 118.845 132 118.777 132 118.701C132 118.626 132.031 118.566 132.094 118.52L132.567 118.068Z" fill="white"/>
<path fill-rule="evenodd" clip-rule="evenodd" d="M154 128H211V118H154V128Z" fill="#CFCFCF"/>
<path d="M227.567 118.068C227.614 118.023 227.677 118 227.756 118C227.835 118 227.906 118.023 227.969 118.068L232.906 122.819C232.969 122.864 233 122.925 233 123C233 123.075 232.969 123.136 232.906 123.181L227.969 127.932C227.906 127.977 227.835 128 227.756 128C227.677 128 227.614 127.977 227.567 127.932L227.094 127.48C227.031 127.434 227 127.374 227 127.299C227 127.223 227.031 127.155 227.094 127.095L231.37 123L227.094 118.905C227.031 118.845 227 118.777 227 118.701C227 118.626 227.031 118.566 227.094 118.52L227.567 118.068Z" fill="white"/>
<path fill-rule="evenodd" clip-rule="evenodd" d="M249 128H306V118H249V128Z" fill="#CFCFCF"/>
<path d="M322.567 118.068C322.614 118.023 322.677 118 322.756 118C322.835 118 322.906 118.023 322.969 118.068L327.906 122.819C327.969 122.864 328 122.925 328 123C328 123.075 327.969 123.136 327.906 123.181L322.969 127.932C322.906 127.977 322.835 128 322.756 128C322.677 128 322.614 127.977 322.567 127.932L322.094 127.48C322.031 127.434 322 127.374 322 127.299C322 127.223 322.031 127.155 322.094 127.095L326.37 123L322.094 118.905C322.031 118.845 322 118.777 322 118.701C322 118.626 322.031 118.566 322.094 118.52L322.567 118.068Z" fill="white"/>
<path fill-rule="evenodd" clip-rule="evenodd" d="M344 128H401V118H344V128Z" fill="#BFD0E4"/>
</svg>
