<svg id="Layer_1" data-name="Layer 1" xmlns="http://www.w3.org/2000/svg" viewBox="0 0 328 56"><defs><style>.cls-1{isolation:isolate;}.cls-2{fill:#404040;}.cls-3{fill:#004494;}.cls-4{fill:#fc0;}</style></defs><title>logo--el</title><g id="Logos_EU-logo-horizontal-" data-name="Logos/EU-logo-horizontal-"><g id="European-Union" class="cls-1"><g class="cls-1"><path class="cls-2" d="M93.46,35V20.68h10.62v2.42H96.35v3.17h7.19v2.41H96.35v3.9h8V35H93.46Z"/><path class="cls-2" d="M106.49,24.63h2.74v5.31a3.89,3.89,0,0,0,.54,2.48,1.81,1.81,0,0,0,1.39.58,1.65,1.65,0,0,0,1.46-.67,4.39,4.39,0,0,0,.47-2.39V24.63h2.74V29.5a9.1,9.1,0,0,1-.46,3.25,3.65,3.65,0,0,1-1.56,1.82,5,5,0,0,1-2.61.66,5.05,5.05,0,0,1-2.73-.69,3.66,3.66,0,0,1-1.54-1.85,9.36,9.36,0,0,1-.43-3.19V24.63Z"/><path class="cls-2" d="M120.88,34.37v4.58h-2.74V30.78a10.89,10.89,0,0,1,.45-3.5,4.1,4.1,0,0,1,1.65-2.09,5.07,5.07,0,0,1,2.88-.8,5.15,5.15,0,0,1,4,1.62,5.57,5.57,0,0,1,1.48,3.9,5.36,5.36,0,0,1-1.43,3.77,4.59,4.59,0,0,1-3.51,1.55A5.22,5.22,0,0,1,120.88,34.37Zm0-4.24a3.16,3.16,0,0,0,.65,2.08,2.18,2.18,0,0,0,1.78.79,2.15,2.15,0,0,0,1.79-.88,3.69,3.69,0,0,0,.68-2.32,3.81,3.81,0,0,0-.63-2.31,2.12,2.12,0,0,0-1.81-.85,2.3,2.3,0,0,0-1.74.77A4,4,0,0,0,120.88,30.13Z"/><path class="cls-2" d="M131.59,24.63h2.62a12.51,12.51,0,0,0-1.28,5.47,3.58,3.58,0,0,0,.57,2.29,1.71,1.71,0,0,0,1.35.68,1.44,1.44,0,0,0,.94-0.33,1.49,1.49,0,0,0,.52-0.82,7,7,0,0,0,.12-1.49V27.28h2.74v3.14a7.31,7.31,0,0,0,.11,1.47,1.45,1.45,0,0,0,.53.84,1.47,1.47,0,0,0,.94.33,1.67,1.67,0,0,0,1.37-.71,3.92,3.92,0,0,0,.55-2.36,13.56,13.56,0,0,0-1.28-5.36H144a10.83,10.83,0,0,1,1,2.49,10.34,10.34,0,0,1,.46,2.9,5.71,5.71,0,0,1-1.21,3.75,3.92,3.92,0,0,1-3.18,1.47,3.31,3.31,0,0,1-3.29-2.18,3.33,3.33,0,0,1-3.3,2.18,3.91,3.91,0,0,1-3.19-1.47A5.73,5.73,0,0,1,130.12,30a10.34,10.34,0,0,1,.46-2.9A10.83,10.83,0,0,1,131.59,24.63Z"/><path class="cls-2" d="M146.72,24.63h14.37V26.9h-2.75V35h-2.74V26.9h-3.37V35h-2.74V26.9h-2.75V24.63Z"/><path class="cls-2" d="M170.85,24.63h2.35a12.63,12.63,0,0,0-.93,2.9,14,14,0,0,0-.38,2.47,10.92,10.92,0,0,0,.34,2.37,14.92,14.92,0,0,0,.86,2.64h-2.3q0-.19-0.18-0.55-0.21-.59-0.35-1.17a4,4,0,0,1-6.73.25,6.71,6.71,0,0,1-1.21-4,5.67,5.67,0,0,1,1.2-3.65,4,4,0,0,1,3.34-1.5,3.91,3.91,0,0,1,3.41,2A16.74,16.74,0,0,1,170.85,24.63Zm-5.71,5.21a4,4,0,0,0,.61,2.33,1.87,1.87,0,0,0,3.12.1,4,4,0,0,0,.6-2.43,4,4,0,0,0-.63-2.44,1.88,1.88,0,0,0-1.53-.83,1.83,1.83,0,0,0-1.55.86A4.11,4.11,0,0,0,165.13,29.84Z"/><path class="cls-2" d="M173.39,22.79V20.44h2.35v2.35h-2.35ZM175.29,35V24.63H178V35h-2.74Zm2.29-12.21V20.44h2.36v2.35h-2.36Z"/><path class="cls-2" d="M180.8,24.63h2.74v3.59l3.2-3.59h3.35L185.93,29l4.49,6h-3.21l-3-4.14-0.62.66V35H180.8V24.63Z"/><path class="cls-2" d="M201.4,38.95h-2.74V29.71a11.39,11.39,0,0,0-.11-1.95,1.56,1.56,0,0,0-.53-0.91,1.58,1.58,0,0,0-1.06-.35,2.16,2.16,0,0,0-1.35.44,2,2,0,0,0-.75,1.13,10.33,10.33,0,0,0-.17,2.24V35H192V24.63h2.55v1.52a4.16,4.16,0,0,1,3.43-1.76,3.77,3.77,0,0,1,2,.52,2.68,2.68,0,0,1,1.14,1.32,6.79,6.79,0,0,1,.31,2.32V38.95Zm-6.23-15.59,1.35-2.92h3.08l-2.69,2.92h-1.74Z"/><path class="cls-2" d="M207.66,23.22l1.56-2.54h3.64l-3.21,2.54h-2ZM213.51,35V20.68h10.62v2.42h-7.73v3.17h7.2v2.41h-7.2v3.9h8V35H213.51Z"/><path class="cls-2" d="M229.69,35l-4.18-10.37h2.88l2,5.29,0.57,1.77q0.23-.67.28-0.89,0.14-.44.29-0.88l2-5.29h2.82L232.16,35h-2.47Z"/><path class="cls-2" d="M238.76,24.63h2.62a12.5,12.5,0,0,0-1.28,5.47,3.58,3.58,0,0,0,.57,2.29,1.71,1.71,0,0,0,1.35.68,1.44,1.44,0,0,0,.94-0.33,1.49,1.49,0,0,0,.52-0.82,7,7,0,0,0,.12-1.49V27.28h2.74v3.14a7.27,7.27,0,0,0,.11,1.47,1.51,1.51,0,0,0,1.47,1.17,1.67,1.67,0,0,0,1.37-.71,3.92,3.92,0,0,0,.55-2.36,13.56,13.56,0,0,0-1.28-5.36h2.62a10.83,10.83,0,0,1,1,2.49,10.32,10.32,0,0,1,.46,2.9,5.71,5.71,0,0,1-1.21,3.75,3.92,3.92,0,0,1-3.18,1.47A3.31,3.31,0,0,1,245,33.06a3.33,3.33,0,0,1-3.3,2.18,3.91,3.91,0,0,1-3.19-1.47A5.73,5.73,0,0,1,237.28,30a10.32,10.32,0,0,1,.46-2.9A10.83,10.83,0,0,1,238.76,24.63Z"/><path class="cls-2" d="M266.63,24.63V26.9h-2.51a5.57,5.57,0,0,1,.76,2.87,5.48,5.48,0,0,1-1.48,3.86,5.08,5.08,0,0,1-3.91,1.6,5.17,5.17,0,0,1-3.84-1.48,5.29,5.29,0,0,1-1.47-3.89,5.53,5.53,0,0,1,1.44-3.93,5.14,5.14,0,0,1,4-1.54,7.22,7.22,0,0,1,1.69.23h5.37ZM257,29.81a3.52,3.52,0,0,0,.71,2.33,2.28,2.28,0,0,0,1.83.85,2.31,2.31,0,0,0,1.8-.82,3.53,3.53,0,0,0,.73-2.41,3.52,3.52,0,0,0-.69-2.27,2.24,2.24,0,0,0-1.84-.86,2.27,2.27,0,0,0-1.83.85A3.54,3.54,0,0,0,257,29.81Z"/><path class="cls-2" d="M277.94,38.95h-2.74V29.71a11.39,11.39,0,0,0-.11-1.95,1.56,1.56,0,0,0-.53-0.91,1.58,1.58,0,0,0-1.06-.35,2.16,2.16,0,0,0-1.35.44,2,2,0,0,0-.75,1.13,10.33,10.33,0,0,0-.17,2.24V35h-2.74V24.63H271v1.52a4.16,4.16,0,0,1,3.43-1.76,3.77,3.77,0,0,1,2,.52,2.68,2.68,0,0,1,1.14,1.32,6.79,6.79,0,0,1,.31,2.32V38.95Z"/></g></g><g id="flag"><rect id="Rectangle-path" class="cls-3" width="84" height="56"/><g id="Group"><g id="s-link"><g id="s"><g id="c"><polygon id="t" class="cls-4" points="41.99 6.17 41.03 9.14 42.5 9.62 41.99 6.17"/><g id="t-link"><polygon id="t-2" data-name="t" class="cls-4" points="41.99 6.17 42.95 9.14 41.48 9.62 41.99 6.17"/></g></g><g id="a"><g id="c-link"><g id="c-2" data-name="c"><polygon id="t-3" data-name="t" class="cls-4" points="44.95 8.33 41.83 8.33 41.83 9.88 44.95 8.33"/><g id="t-link-2" data-name="t-link"><polygon id="t-4" data-name="t" class="cls-4" points="44.95 8.32 42.42 10.15 41.51 8.9 44.95 8.32"/></g></g></g><g id="c-link-2" data-name="c-link"><g id="c-3" data-name="c"><polygon id="t-5" data-name="t" class="cls-4" points="43.81 11.81 42.85 8.85 41.38 9.32 43.81 11.81"/><g id="t-link-3" data-name="t-link"><polygon id="t-6" data-name="t" class="cls-4" points="43.82 11.81 41.3 9.97 42.21 8.72 43.82 11.81"/></g></g></g></g><g id="a-link"><g id="a-2" data-name="a"><g id="c-link-3" data-name="c-link"><g id="c-4" data-name="c"><polygon id="t-7" data-name="t" class="cls-4" points="39.03 8.33 42.15 8.33 42.15 9.88 39.03 8.33"/><g id="t-link-4" data-name="t-link"><polygon id="t-8" data-name="t" class="cls-4" points="39.03 8.32 41.55 10.15 42.47 8.9 39.03 8.32"/></g></g></g><g id="c-link-4" data-name="c-link"><g id="c-5" data-name="c"><polygon id="t-9" data-name="t" class="cls-4" points="40.16 11.81 41.13 8.85 42.6 9.32 40.16 11.81"/><g id="t-link-5" data-name="t-link"><polygon id="t-10" data-name="t" class="cls-4" points="40.16 11.81 42.68 9.97 41.77 8.72 40.16 11.81"/></g></g></g></g></g></g></g><g id="s-link-2" data-name="s-link"><g id="s-2" data-name="s"><g id="c-6" data-name="c"><polygon id="t-11" data-name="t" class="cls-4" points="41.99 43.57 41.03 46.54 42.5 47.02 41.99 43.57"/><g id="t-link-6" data-name="t-link"><polygon id="t-12" data-name="t" class="cls-4" points="41.99 43.57 42.95 46.54 41.48 47.02 41.99 43.57"/></g></g><g id="a-3" data-name="a"><g id="c-link-5" data-name="c-link"><g id="c-7" data-name="c"><polygon id="t-13" data-name="t" class="cls-4" points="44.95 45.73 41.83 45.73 41.83 47.28 44.95 45.73"/><g id="t-link-7" data-name="t-link"><polygon id="t-14" data-name="t" class="cls-4" points="44.95 45.72 42.42 47.55 41.51 46.3 44.95 45.72"/></g></g></g><g id="c-link-6" data-name="c-link"><g id="c-8" data-name="c"><polygon id="t-15" data-name="t" class="cls-4" points="43.81 49.21 42.85 46.25 41.38 46.73 43.81 49.21"/><g id="t-link-8" data-name="t-link"><polygon id="t-16" data-name="t" class="cls-4" points="43.82 49.21 41.3 47.38 42.21 46.12 43.82 49.21"/></g></g></g></g><g id="a-link-2" data-name="a-link"><g id="a-4" data-name="a"><g id="c-link-7" data-name="c-link"><g id="c-9" data-name="c"><polygon id="t-17" data-name="t" class="cls-4" points="39.03 45.73 42.15 45.73 42.15 47.28 39.03 45.73"/><g id="t-link-9" data-name="t-link"><polygon id="t-18" data-name="t" class="cls-4" points="39.03 45.72 41.55 47.55 42.47 46.3 39.03 45.72"/></g></g></g><g id="c-link-8" data-name="c-link"><g id="c-10" data-name="c"><polygon id="t-19" data-name="t" class="cls-4" points="40.16 49.21 41.13 46.25 42.6 46.73 40.16 49.21"/><g id="t-link-10" data-name="t-link"><polygon id="t-20" data-name="t" class="cls-4" points="40.16 49.21 42.68 47.38 41.77 46.12 40.16 49.21"/></g></g></g></g></g></g></g><g id="l"><g id="s-link-3" data-name="s-link"><g id="s-3" data-name="s"><g id="c-11" data-name="c"><polygon id="t-21" data-name="t" class="cls-4" points="23.4 24.87 22.44 27.84 23.91 28.32 23.4 24.87"/><g id="t-link-11" data-name="t-link"><polygon id="t-22" data-name="t" class="cls-4" points="23.4 24.87 24.36 27.84 22.89 28.32 23.4 24.87"/></g></g><g id="a-5" data-name="a"><g id="c-link-9" data-name="c-link"><g id="c-12" data-name="c"><polygon id="t-23" data-name="t" class="cls-4" points="26.36 27.03 23.24 27.03 23.24 28.58 26.36 27.03"/><g id="t-link-12" data-name="t-link"><polygon id="t-24" data-name="t" class="cls-4" points="26.36 27.02 23.84 28.86 22.93 27.6 26.36 27.02"/></g></g></g><g id="c-link-10" data-name="c-link"><g id="c-13" data-name="c"><polygon id="t-25" data-name="t" class="cls-4" points="25.23 30.51 24.26 27.55 22.79 28.02 25.23 30.51"/><g id="t-link-13" data-name="t-link"><polygon id="t-26" data-name="t" class="cls-4" points="25.23 30.51 22.71 28.68 23.62 27.42 25.23 30.51"/></g></g></g></g><g id="a-link-3" data-name="a-link"><g id="a-6" data-name="a"><g id="c-link-11" data-name="c-link"><g id="c-14" data-name="c"><polygon id="t-27" data-name="t" class="cls-4" points="20.44 27.03 23.56 27.03 23.56 28.58 20.44 27.03"/><g id="t-link-14" data-name="t-link"><polygon id="t-28" data-name="t" class="cls-4" points="20.45 27.02 22.97 28.86 23.88 27.6 20.45 27.02"/></g></g></g><g id="c-link-12" data-name="c-link"><g id="c-15" data-name="c"><polygon id="t-29" data-name="t" class="cls-4" points="21.58 30.51 22.54 27.55 24.01 28.02 21.58 30.51"/><g id="t-link-15" data-name="t-link"><polygon id="t-30" data-name="t" class="cls-4" points="21.57 30.51 24.09 28.68 23.18 27.42 21.57 30.51"/></g></g></g></g></g></g></g><g id="s-link-4" data-name="s-link"><g id="s-4" data-name="s"><g id="c-16" data-name="c"><polygon id="t-31" data-name="t" class="cls-4" points="30.86 14.31 33.38 12.48 32.47 11.23 30.86 14.31"/><g id="t-link-16" data-name="t-link"><polygon id="t-32" data-name="t" class="cls-4" points="30.86 14.32 31.83 11.35 33.3 11.83 30.86 14.32"/></g></g><g id="a-7" data-name="a"><g id="c-link-13" data-name="c-link"><g id="c-17" data-name="c"><polygon id="t-33" data-name="t" class="cls-4" points="29.74 10.83 32.26 12.66 33.17 11.41 29.74 10.83"/><g id="t-link-17" data-name="t-link"><polygon id="t-34" data-name="t" class="cls-4" points="29.73 10.84 32.85 10.84 32.85 12.39 29.73 10.84"/></g></g></g><g id="c-link-14" data-name="c-link"><g id="c-18" data-name="c"><polygon id="t-35" data-name="t" class="cls-4" points="32.7 8.68 31.74 11.64 33.21 12.12 32.7 8.68"/><g id="t-link-18" data-name="t-link"><polygon id="t-36" data-name="t" class="cls-4" points="32.69 8.68 33.66 11.64 32.18 12.12 32.69 8.68"/></g></g></g></g><g id="a-link-4" data-name="a-link"><g id="a-8" data-name="a"><g id="c-link-15" data-name="c-link"><g id="c-19" data-name="c"><polygon id="t-37" data-name="t" class="cls-4" points="34.52 14.31 32 12.48 32.91 11.22 34.52 14.31"/><g id="t-link-19" data-name="t-link"><polygon id="t-38" data-name="t" class="cls-4" points="34.52 14.31 33.55 11.35 32.08 11.83 34.52 14.31"/></g></g></g><g id="c-link-16" data-name="c-link"><g id="c-20" data-name="c"><polygon id="t-39" data-name="t" class="cls-4" points="35.65 10.83 33.13 12.66 32.22 11.4 35.65 10.83"/><g id="t-link-20" data-name="t-link"><polygon id="t-40" data-name="t" class="cls-4" points="35.65 10.83 32.54 10.83 32.54 12.38 35.65 10.83"/></g></g></g></g></g></g></g><g id="s-link-5" data-name="s-link"><g id="s-5" data-name="s"><g id="c-21" data-name="c"><polygon id="t-41" data-name="t" class="cls-4" points="27.72 21.16 26.76 18.2 25.29 18.67 27.72 21.16"/><g id="t-link-21" data-name="t-link"><polygon id="t-42" data-name="t" class="cls-4" points="27.73 21.16 25.2 19.32 26.11 18.07 27.73 21.16"/></g></g><g id="a-9" data-name="a"><g id="c-link-17" data-name="c-link"><g id="c-22" data-name="c"><polygon id="t-43" data-name="t" class="cls-4" points="24.06 21.15 26.59 19.32 25.68 18.07 24.06 21.15"/><g id="t-link-22" data-name="t-link"><polygon id="t-44" data-name="t" class="cls-4" points="24.07 21.16 25.03 18.19 26.5 18.67 24.07 21.16"/></g></g></g><g id="c-link-18" data-name="c-link"><g id="c-23" data-name="c"><polygon id="t-45" data-name="t" class="cls-4" points="22.93 17.67 25.45 19.5 26.37 18.25 22.93 17.67"/><g id="t-link-23" data-name="t-link"><polygon id="t-46" data-name="t" class="cls-4" points="22.93 17.68 26.05 17.68 26.05 19.23 22.93 17.68"/></g></g></g></g><g id="a-link-5" data-name="a-link"><g id="a-10" data-name="a"><g id="c-link-19" data-name="c-link"><g id="c-24" data-name="c"><polygon id="t-47" data-name="t" class="cls-4" points="28.85 17.68 26.33 19.51 25.42 18.25 28.85 17.68"/><g id="t-link-24" data-name="t-link"><polygon id="t-48" data-name="t" class="cls-4" points="28.85 17.68 25.73 17.68 25.73 19.23 28.85 17.68"/></g></g></g><g id="c-link-20" data-name="c-link"><g id="c-25" data-name="c"><polygon id="t-49" data-name="t" class="cls-4" points="25.89 15.53 26.85 18.49 25.38 18.97 25.89 15.53"/><g id="t-link-25" data-name="t-link"><polygon id="t-50" data-name="t" class="cls-4" points="25.89 15.53 24.93 18.49 26.4 18.97 25.89 15.53"/></g></g></g></g></g></g></g><g id="s-link-6" data-name="s-link"><g id="s-6" data-name="s"><g id="c-26" data-name="c"><polygon id="t-51" data-name="t" class="cls-4" points="28.86 36.38 25.74 36.38 25.74 37.93 28.86 36.38"/><g id="t-link-26" data-name="t-link"><polygon id="t-52" data-name="t" class="cls-4" points="28.86 36.37 26.33 38.2 25.42 36.95 28.86 36.37"/></g></g><g id="a-11" data-name="a"><g id="c-link-21" data-name="c-link"><g id="c-27" data-name="c"><polygon id="t-53" data-name="t" class="cls-4" points="27.72 39.85 26.76 36.89 25.28 37.37 27.72 39.85"/><g id="t-link-27" data-name="t-link"><polygon id="t-54" data-name="t" class="cls-4" points="27.73 39.85 25.2 38.02 26.11 36.77 27.73 39.85"/></g></g></g><g id="c-link-22" data-name="c-link"><g id="c-28" data-name="c"><polygon id="t-55" data-name="t" class="cls-4" points="24.06 39.85 26.58 38.02 25.67 36.77 24.06 39.85"/><g id="t-link-28" data-name="t-link"><polygon id="t-56" data-name="t" class="cls-4" points="24.06 39.86 25.03 36.89 26.5 37.37 24.06 39.86"/></g></g></g></g><g id="a-link-6" data-name="a-link"><g id="a-12" data-name="a"><g id="c-link-23" data-name="c-link"><g id="c-29" data-name="c"><polygon id="t-57" data-name="t" class="cls-4" points="25.89 34.23 26.86 37.19 25.38 37.67 25.89 34.23"/><g id="t-link-29" data-name="t-link"><polygon id="t-58" data-name="t" class="cls-4" points="25.9 34.23 24.93 37.19 26.41 37.67 25.9 34.23"/></g></g></g><g id="c-link-24" data-name="c-link"><g id="c-30" data-name="c"><polygon id="t-59" data-name="t" class="cls-4" points="22.93 36.38 26.05 36.38 26.05 37.93 22.93 36.38"/><g id="t-link-30" data-name="t-link"><polygon id="t-60" data-name="t" class="cls-4" points="22.93 36.38 25.45 38.21 26.36 36.95 22.93 36.38"/></g></g></g></g></g></g></g><g id="s-link-7" data-name="s-link"><g id="s-7" data-name="s"><g id="c-31" data-name="c"><polygon id="t-61" data-name="t" class="cls-4" points="35.66 43.22 32.54 43.22 32.54 44.77 35.66 43.22"/><g id="t-link-31" data-name="t-link"><polygon id="t-62" data-name="t" class="cls-4" points="35.66 43.22 33.14 45.05 32.23 43.8 35.66 43.22"/></g></g><g id="a-13" data-name="a"><g id="c-link-25" data-name="c-link"><g id="c-32" data-name="c"><polygon id="t-63" data-name="t" class="cls-4" points="34.52 46.7 33.56 43.73 32.09 44.21 34.52 46.7"/><g id="t-link-32" data-name="t-link"><polygon id="t-64" data-name="t" class="cls-4" points="34.53 46.7 32.01 44.86 32.92 43.61 34.53 46.7"/></g></g></g><g id="c-link-26" data-name="c-link"><g id="c-33" data-name="c"><polygon id="t-65" data-name="t" class="cls-4" points="30.86 46.7 33.38 44.87 32.47 43.61 30.86 46.7"/><g id="t-link-33" data-name="t-link"><polygon id="t-66" data-name="t" class="cls-4" points="30.87 46.7 31.83 43.74 33.3 44.22 30.87 46.7"/></g></g></g></g><g id="a-link-7" data-name="a-link"><g id="a-14" data-name="a"><g id="c-link-27" data-name="c-link"><g id="c-34" data-name="c"><polygon id="t-67" data-name="t" class="cls-4" points="32.7 41.07 33.66 44.04 32.19 44.52 32.7 41.07"/><g id="t-link-34" data-name="t-link"><polygon id="t-68" data-name="t" class="cls-4" points="32.7 41.07 31.74 44.04 33.21 44.52 32.7 41.07"/></g></g></g><g id="c-link-28" data-name="c-link"><g id="c-35" data-name="c"><polygon id="t-69" data-name="t" class="cls-4" points="29.73 43.23 32.85 43.23 32.85 44.78 29.73 43.23"/><g id="t-link-35" data-name="t-link"><polygon id="t-70" data-name="t" class="cls-4" points="29.74 43.22 32.26 45.05 33.17 43.8 29.74 43.22"/></g></g></g></g></g></g></g></g><g id="l-link"><g id="l-2" data-name="l"><g id="s-link-8" data-name="s-link"><g id="s-8" data-name="s"><g id="c-36" data-name="c"><polygon id="t-71" data-name="t" class="cls-4" points="60.57 24.87 61.54 27.84 60.06 28.32 60.57 24.87"/><g id="t-link-36" data-name="t-link"><polygon id="t-72" data-name="t" class="cls-4" points="60.58 24.87 59.62 27.84 61.09 28.32 60.58 24.87"/></g></g><g id="a-15" data-name="a"><g id="c-link-29" data-name="c-link"><g id="c-37" data-name="c"><polygon id="t-73" data-name="t" class="cls-4" points="57.62 27.03 60.74 27.03 60.74 28.58 57.62 27.03"/><g id="t-link-37" data-name="t-link"><polygon id="t-74" data-name="t" class="cls-4" points="57.62 27.02 60.14 28.86 61.05 27.6 57.62 27.02"/></g></g></g><g id="c-link-30" data-name="c-link"><g id="c-38" data-name="c"><polygon id="t-75" data-name="t" class="cls-4" points="58.75 30.51 59.72 27.55 61.19 28.02 58.75 30.51"/><g id="t-link-38" data-name="t-link"><polygon id="t-76" data-name="t" class="cls-4" points="58.75 30.51 61.27 28.68 60.36 27.42 58.75 30.51"/></g></g></g></g><g id="a-link-8" data-name="a-link"><g id="a-16" data-name="a"><g id="c-link-31" data-name="c-link"><g id="c-39" data-name="c"><polygon id="t-77" data-name="t" class="cls-4" points="63.53 27.03 60.42 27.03 60.42 28.58 63.53 27.03"/><g id="t-link-39" data-name="t-link"><polygon id="t-78" data-name="t" class="cls-4" points="63.53 27.02 61.01 28.86 60.1 27.6 63.53 27.02"/></g></g></g><g id="c-link-32" data-name="c-link"><g id="c-40" data-name="c"><polygon id="t-79" data-name="t" class="cls-4" points="62.4 30.51 61.44 27.55 59.97 28.02 62.4 30.51"/><g id="t-link-40" data-name="t-link"><polygon id="t-80" data-name="t" class="cls-4" points="62.41 30.51 59.88 28.68 60.8 27.42 62.41 30.51"/></g></g></g></g></g></g></g><g id="s-link-9" data-name="s-link"><g id="s-9" data-name="s"><g id="c-41" data-name="c"><polygon id="t-81" data-name="t" class="cls-4" points="53.12 14.31 50.6 12.48 51.51 11.23 53.12 14.31"/><g id="t-link-41" data-name="t-link"><polygon id="t-82" data-name="t" class="cls-4" points="53.11 14.32 52.15 11.35 50.68 11.83 53.11 14.32"/></g></g><g id="a-17" data-name="a"><g id="c-link-33" data-name="c-link"><g id="c-42" data-name="c"><polygon id="t-83" data-name="t" class="cls-4" points="54.24 10.83 51.72 12.66 50.81 11.41 54.24 10.83"/><g id="t-link-42" data-name="t-link"><polygon id="t-84" data-name="t" class="cls-4" points="54.24 10.84 51.13 10.84 51.13 12.39 54.24 10.84"/></g></g></g><g id="c-link-34" data-name="c-link"><g id="c-43" data-name="c"><polygon id="t-85" data-name="t" class="cls-4" points="51.28 8.68 52.24 11.64 50.77 12.12 51.28 8.68"/><g id="t-link-43" data-name="t-link"><polygon id="t-86" data-name="t" class="cls-4" points="51.28 8.68 50.32 11.64 51.79 12.12 51.28 8.68"/></g></g></g></g><g id="a-link-9" data-name="a-link"><g id="a-18" data-name="a"><g id="c-link-35" data-name="c-link"><g id="c-44" data-name="c"><polygon id="t-87" data-name="t" class="cls-4" points="49.46 14.31 51.98 12.48 51.07 11.22 49.46 14.31"/><g id="t-link-44" data-name="t-link"><polygon id="t-88" data-name="t" class="cls-4" points="49.46 14.31 50.42 11.35 51.9 11.83 49.46 14.31"/></g></g></g><g id="c-link-36" data-name="c-link"><g id="c-45" data-name="c"><polygon id="t-89" data-name="t" class="cls-4" points="48.33 10.83 50.85 12.66 51.76 11.4 48.33 10.83"/><g id="t-link-45" data-name="t-link"><polygon id="t-90" data-name="t" class="cls-4" points="48.32 10.83 51.44 10.83 51.44 12.38 48.32 10.83"/></g></g></g></g></g></g></g><g id="s-link-10" data-name="s-link"><g id="s-10" data-name="s"><g id="c-46" data-name="c"><polygon id="t-91" data-name="t" class="cls-4" points="56.26 21.16 57.22 18.2 58.69 18.67 56.26 21.16"/><g id="t-link-46" data-name="t-link"><polygon id="t-92" data-name="t" class="cls-4" points="56.25 21.16 58.77 19.32 57.86 18.07 56.25 21.16"/></g></g><g id="a-19" data-name="a"><g id="c-link-37" data-name="c-link"><g id="c-47" data-name="c"><polygon id="t-93" data-name="t" class="cls-4" points="59.91 21.15 57.39 19.32 58.3 18.07 59.91 21.15"/><g id="t-link-47" data-name="t-link"><polygon id="t-94" data-name="t" class="cls-4" points="59.91 21.16 58.95 18.19 57.47 18.67 59.91 21.16"/></g></g></g><g id="c-link-38" data-name="c-link"><g id="c-48" data-name="c"><polygon id="t-95" data-name="t" class="cls-4" points="61.04 17.67 58.52 19.5 57.61 18.25 61.04 17.67"/><g id="t-link-48" data-name="t-link"><polygon id="t-96" data-name="t" class="cls-4" points="61.05 17.68 57.93 17.68 57.93 19.23 61.05 17.68"/></g></g></g></g><g id="a-link-10" data-name="a-link"><g id="a-20" data-name="a"><g id="c-link-39" data-name="c-link"><g id="c-49" data-name="c"><polygon id="t-97" data-name="t" class="cls-4" points="55.13 17.68 57.65 19.51 58.56 18.25 55.13 17.68"/><g id="t-link-49" data-name="t-link"><polygon id="t-98" data-name="t" class="cls-4" points="55.13 17.68 58.24 17.68 58.24 19.23 55.13 17.68"/></g></g></g><g id="c-link-40" data-name="c-link"><g id="c-50" data-name="c"><polygon id="t-99" data-name="t" class="cls-4" points="58.09 15.53 57.13 18.49 58.6 18.97 58.09 15.53"/><g id="t-link-50" data-name="t-link"><polygon id="t-100" data-name="t" class="cls-4" points="58.09 15.53 59.05 18.49 57.58 18.97 58.09 15.53"/></g></g></g></g></g></g></g><g id="s-link-11" data-name="s-link"><g id="s-11" data-name="s"><g id="c-51" data-name="c"><polygon id="t-101" data-name="t" class="cls-4" points="55.12 36.38 58.24 36.38 58.24 37.93 55.12 36.38"/><g id="t-link-51" data-name="t-link"><polygon id="t-102" data-name="t" class="cls-4" points="55.12 36.37 57.64 38.2 58.55 36.95 55.12 36.37"/></g></g><g id="a-21" data-name="a"><g id="c-link-41" data-name="c-link"><g id="c-52" data-name="c"><polygon id="t-103" data-name="t" class="cls-4" points="56.26 39.85 57.22 36.89 58.69 37.37 56.26 39.85"/><g id="t-link-52" data-name="t-link"><polygon id="t-104" data-name="t" class="cls-4" points="56.25 39.85 58.77 38.02 57.86 36.77 56.25 39.85"/></g></g></g><g id="c-link-42" data-name="c-link"><g id="c-53" data-name="c"><polygon id="t-105" data-name="t" class="cls-4" points="59.92 39.85 57.4 38.02 58.31 36.77 59.92 39.85"/><g id="t-link-53" data-name="t-link"><polygon id="t-106" data-name="t" class="cls-4" points="59.91 39.86 58.95 36.89 57.48 37.37 59.91 39.86"/></g></g></g></g><g id="a-link-11" data-name="a-link"><g id="a-22" data-name="a"><g id="c-link-43" data-name="c-link"><g id="c-54" data-name="c"><polygon id="t-107" data-name="t" class="cls-4" points="58.09 34.23 57.12 37.19 58.59 37.67 58.09 34.23"/><g id="t-link-54" data-name="t-link"><polygon id="t-108" data-name="t" class="cls-4" points="58.08 34.23 59.04 37.19 57.57 37.67 58.08 34.23"/></g></g></g><g id="c-link-44" data-name="c-link"><g id="c-55" data-name="c"><polygon id="t-109" data-name="t" class="cls-4" points="61.05 36.38 57.93 36.38 57.93 37.93 61.05 36.38"/><g id="t-link-55" data-name="t-link"><polygon id="t-110" data-name="t" class="cls-4" points="61.05 36.38 58.52 38.21 57.61 36.95 61.05 36.38"/></g></g></g></g></g></g></g><g id="s-link-12" data-name="s-link"><g id="s-12" data-name="s"><g id="c-56" data-name="c"><polygon id="t-111" data-name="t" class="cls-4" points="48.32 43.22 51.43 43.22 51.43 44.77 48.32 43.22"/><g id="t-link-56" data-name="t-link"><polygon id="t-112" data-name="t" class="cls-4" points="48.32 43.22 50.84 45.05 51.75 43.8 48.32 43.22"/></g></g><g id="a-23" data-name="a"><g id="c-link-45" data-name="c-link"><g id="c-57" data-name="c"><polygon id="t-113" data-name="t" class="cls-4" points="49.45 46.7 50.42 43.73 51.89 44.21 49.45 46.7"/><g id="t-link-57" data-name="t-link"><polygon id="t-114" data-name="t" class="cls-4" points="49.45 46.7 51.97 44.86 51.06 43.61 49.45 46.7"/></g></g></g><g id="c-link-46" data-name="c-link"><g id="c-58" data-name="c"><polygon id="t-115" data-name="t" class="cls-4" points="53.12 46.7 50.59 44.87 51.5 43.61 53.12 46.7"/><g id="t-link-58" data-name="t-link"><polygon id="t-116" data-name="t" class="cls-4" points="53.11 46.7 52.15 43.74 50.67 44.22 53.11 46.7"/></g></g></g></g><g id="a-link-12" data-name="a-link"><g id="a-24" data-name="a"><g id="c-link-47" data-name="c-link"><g id="c-59" data-name="c"><polygon id="t-117" data-name="t" class="cls-4" points="51.28 41.07 50.32 44.04 51.79 44.52 51.28 41.07"/><g id="t-link-59" data-name="t-link"><polygon id="t-118" data-name="t" class="cls-4" points="51.27 41.07 52.24 44.04 50.77 44.52 51.27 41.07"/></g></g></g><g id="c-link-48" data-name="c-link"><g id="c-60" data-name="c"><polygon id="t-119" data-name="t" class="cls-4" points="54.24 43.23 51.13 43.23 51.13 44.78 54.24 43.23"/><g id="t-link-60" data-name="t-link"><polygon id="t-120" data-name="t" class="cls-4" points="54.24 43.22 51.72 45.05 50.81 43.8 54.24 43.22"/></g></g></g></g></g></g></g></g></g></g></g></g></svg>