<svg id="Layer_1" data-name="Layer 1" xmlns="http://www.w3.org/2000/svg" viewBox="0 0 132 88"><defs><style>.cls-1{fill:#004494;}.cls-2{fill:#fc0;}</style></defs><title>Mute_logo</title><g id="flag"><rect id="Rectangle-path" class="cls-1" width="132" height="88"/><g id="Group"><g id="s-link"><g id="s"><g id="c"><polygon id="t" class="cls-2" points="65.98 9.7 64.48 14.36 66.79 15.12 65.98 9.7"/><g id="t-link"><polygon id="t-2" class="cls-2" points="65.98 9.7 67.49 14.36 65.18 15.12 65.98 9.7"/></g></g><g id="a"><g id="c-link"><g id="c-2"><polygon id="t-3" class="cls-2" points="70.64 13.09 65.73 13.09 65.73 15.53 70.64 13.09"/><g id="t-link-2"><polygon id="t-4" class="cls-2" points="70.64 13.07 66.66 15.95 65.23 13.99 70.64 13.07"/></g></g></g><g id="c-link-2"><g id="c-3"><polygon id="t-5" class="cls-2" points="68.84 18.56 67.34 13.91 65.03 14.65 68.84 18.56"/><g id="t-link-3"><polygon id="t-6" class="cls-2" points="68.86 18.56 64.9 15.67 66.33 13.7 68.86 18.56"/></g></g></g></g><g id="a-link"><g id="a-2"><g id="c-link-3"><g id="c-4"><polygon id="t-7" class="cls-2" points="61.33 13.09 66.24 13.09 66.24 15.53 61.33 13.09"/><g id="t-link-4"><polygon id="t-8" class="cls-2" points="61.33 13.07 65.29 15.95 66.74 13.99 61.33 13.07"/></g></g></g><g id="c-link-4"><g id="c-5"><polygon id="t-9" class="cls-2" points="63.11 18.56 64.63 13.91 66.94 14.65 63.11 18.56"/><g id="t-link-5"><polygon id="t-10" class="cls-2" points="63.11 18.56 67.07 15.67 65.64 13.7 63.11 18.56"/></g></g></g></g></g></g></g><g id="s-link-2"><g id="s-2"><g id="c-6"><polygon id="t-11" class="cls-2" points="65.98 68.47 64.48 73.13 66.79 73.89 65.98 68.47"/><g id="t-link-6"><polygon id="t-12" class="cls-2" points="65.98 68.47 67.49 73.13 65.18 73.89 65.98 68.47"/></g></g><g id="a-3"><g id="c-link-5"><g id="c-7"><polygon id="t-13" class="cls-2" points="70.64 71.86 65.73 71.86 65.73 74.3 70.64 71.86"/><g id="t-link-7"><polygon id="t-14" class="cls-2" points="70.64 71.85 66.66 74.72 65.23 72.76 70.64 71.85"/></g></g></g><g id="c-link-6"><g id="c-8"><polygon id="t-15" class="cls-2" points="68.84 77.33 67.34 72.68 65.03 73.43 68.84 77.33"/><g id="t-link-8"><polygon id="t-16" class="cls-2" points="68.86 77.33 64.9 74.45 66.33 72.47 68.86 77.33"/></g></g></g></g><g id="a-link-2"><g id="a-4"><g id="c-link-7"><g id="c-9"><polygon id="t-17" class="cls-2" points="61.33 71.86 66.24 71.86 66.24 74.3 61.33 71.86"/><g id="t-link-9"><polygon id="t-18" class="cls-2" points="61.33 71.85 65.29 74.72 66.74 72.76 61.33 71.85"/></g></g></g><g id="c-link-8"><g id="c-10"><polygon id="t-19" class="cls-2" points="63.11 77.33 64.63 72.68 66.94 73.43 63.11 77.33"/><g id="t-link-10"><polygon id="t-20" class="cls-2" points="63.11 77.33 67.07 74.45 65.64 72.47 63.11 77.33"/></g></g></g></g></g></g></g><g id="l"><g id="s-link-3"><g id="s-3"><g id="c-11"><polygon id="t-21" class="cls-2" points="36.77 39.08 35.26 43.75 37.57 44.5 36.77 39.08"/><g id="t-link-11"><polygon id="t-22" class="cls-2" points="36.77 39.08 38.28 43.75 35.97 44.5 36.77 39.08"/></g></g><g id="a-5"><g id="c-link-9"><g id="c-12"><polygon id="t-23" class="cls-2" points="41.42 42.48 36.52 42.48 36.52 44.91 41.42 42.48"/><g id="t-link-12"><polygon id="t-24" class="cls-2" points="41.42 42.46 37.46 45.35 36.03 43.37 41.42 42.46"/></g></g></g><g id="c-link-10"><g id="c-13"><polygon id="t-25" class="cls-2" points="39.65 47.94 38.12 43.29 35.81 44.03 39.65 47.94"/><g id="t-link-13"><polygon id="t-26" class="cls-2" points="39.65 47.94 35.69 45.07 37.12 43.09 39.65 47.94"/></g></g></g></g><g id="a-link-3"><g id="a-6"><g id="c-link-11"><g id="c-14"><polygon id="t-27" class="cls-2" points="32.12 42.48 37.02 42.48 37.02 44.91 32.12 42.48"/><g id="t-link-14"><polygon id="t-28" class="cls-2" points="32.14 42.46 36.1 45.35 37.53 43.37 32.14 42.46"/></g></g></g><g id="c-link-12"><g id="c-15"><polygon id="t-29" class="cls-2" points="33.91 47.94 35.42 43.29 37.73 44.03 33.91 47.94"/><g id="t-link-15"><polygon id="t-30" class="cls-2" points="33.9 47.94 37.86 45.07 36.43 43.09 33.9 47.94"/></g></g></g></g></g></g></g><g id="s-link-4"><g id="s-4"><g id="c-16"><polygon id="t-31" class="cls-2" points="48.49 22.49 52.45 19.61 51.02 17.65 48.49 22.49"/><g id="t-link-16"><polygon id="t-32" class="cls-2" points="48.49 22.5 50.02 17.84 52.33 18.59 48.49 22.5"/></g></g><g id="a-7"><g id="c-link-13"><g id="c-17"><polygon id="t-33" class="cls-2" points="46.73 17.02 50.69 19.89 52.12 17.93 46.73 17.02"/><g id="t-link-17"><polygon id="t-34" class="cls-2" points="46.72 17.03 51.62 17.03 51.62 19.47 46.72 17.03"/></g></g></g><g id="c-link-14"><g id="c-18"><polygon id="t-35" class="cls-2" points="51.39 13.64 49.88 18.29 52.19 19.05 51.39 13.64"/><g id="t-link-18"><polygon id="t-36" class="cls-2" points="51.37 13.64 52.89 18.29 50.57 19.05 51.37 13.64"/></g></g></g></g><g id="a-link-4"><g id="a-8"><g id="c-link-15"><g id="c-19"><polygon id="t-37" class="cls-2" points="54.25 22.49 50.29 19.61 51.72 17.63 54.25 22.49"/><g id="t-link-19"><polygon id="t-38" class="cls-2" points="54.25 22.49 52.72 17.84 50.41 18.59 54.25 22.49"/></g></g></g><g id="c-link-16"><g id="c-20"><polygon id="t-39" class="cls-2" points="56.02 17.02 52.06 19.89 50.63 17.91 56.02 17.02"/><g id="t-link-20"><polygon id="t-40" class="cls-2" points="56.02 17.02 51.13 17.02 51.13 19.45 56.02 17.02"/></g></g></g></g></g></g></g><g id="s-link-5"><g id="s-5"><g id="c-21"><polygon id="t-41" class="cls-2" points="43.56 33.25 42.05 28.6 39.74 29.34 43.56 33.25"/><g id="t-link-21"><polygon id="t-42" class="cls-2" points="43.58 33.25 39.6 30.36 41.03 28.4 43.58 33.25"/></g></g><g id="a-9"><g id="c-link-17"><g id="c-22"><polygon id="t-43" class="cls-2" points="37.81 33.24 41.78 30.36 40.35 28.4 37.81 33.24"/><g id="t-link-22"><polygon id="t-44" class="cls-2" points="37.82 33.25 39.33 28.58 41.64 29.34 37.82 33.25"/></g></g></g><g id="c-link-18"><g id="c-23"><polygon id="t-45" class="cls-2" points="36.03 27.77 39.99 30.64 41.44 28.68 36.03 27.77"/><g id="t-link-23"><polygon id="t-46" class="cls-2" points="36.03 27.78 40.94 27.78 40.94 30.22 36.03 27.78"/></g></g></g></g><g id="a-link-5"><g id="a-10"><g id="c-link-19"><g id="c-24"><polygon id="t-47" class="cls-2" points="45.34 27.78 41.38 30.66 39.95 28.68 45.34 27.78"/><g id="t-link-24"><polygon id="t-48" class="cls-2" points="45.34 27.78 40.43 27.78 40.43 30.22 45.34 27.78"/></g></g></g><g id="c-link-20"><g id="c-25"><polygon id="t-49" class="cls-2" points="40.68 24.4 42.19 29.06 39.88 29.81 40.68 24.4"/><g id="t-link-25"><polygon id="t-50" class="cls-2" points="40.68 24.4 39.18 29.06 41.49 29.81 40.68 24.4"/></g></g></g></g></g></g></g><g id="s-link-6"><g id="s-6"><g id="c-26"><polygon id="t-51" class="cls-2" points="45.35 57.17 40.45 57.17 40.45 59.6 45.35 57.17"/><g id="t-link-26"><polygon id="t-52" class="cls-2" points="45.35 57.15 41.38 60.03 39.95 58.06 45.35 57.15"/></g></g><g id="a-11"><g id="c-link-21"><g id="c-27"><polygon id="t-53" class="cls-2" points="43.56 62.62 42.05 57.97 39.73 58.72 43.56 62.62"/><g id="t-link-27"><polygon id="t-54" class="cls-2" points="43.58 62.62 39.6 59.75 41.03 57.78 43.58 62.62"/></g></g></g><g id="c-link-22"><g id="c-28"><polygon id="t-55" class="cls-2" points="37.81 62.62 41.77 59.75 40.34 57.78 37.81 62.62"/><g id="t-link-28"><polygon id="t-56" class="cls-2" points="37.81 62.64 39.33 57.97 41.64 58.72 37.81 62.64"/></g></g></g></g><g id="a-link-6"><g id="a-12"><g id="c-link-23"><g id="c-29"><polygon id="t-57" class="cls-2" points="40.68 53.79 42.21 58.44 39.88 59.2 40.68 53.79"/><g id="t-link-29"><polygon id="t-58" class="cls-2" points="40.7 53.79 39.18 58.44 41.5 59.2 40.7 53.79"/></g></g></g><g id="c-link-24"><g id="c-30"><polygon id="t-59" class="cls-2" points="36.03 57.17 40.94 57.17 40.94 59.6 36.03 57.17"/><g id="t-link-30"><polygon id="t-60" class="cls-2" points="36.03 57.17 39.99 60.04 41.42 58.06 36.03 57.17"/></g></g></g></g></g></g></g><g id="s-link-7"><g id="s-7"><g id="c-31"><polygon id="t-61" class="cls-2" points="56.04 67.92 51.13 67.92 51.13 70.35 56.04 67.92"/><g id="t-link-31"><polygon id="t-62" class="cls-2" points="56.04 67.92 52.08 70.79 50.65 68.83 56.04 67.92"/></g></g><g id="a-13"><g id="c-link-25"><g id="c-32"><polygon id="t-63" class="cls-2" points="54.25 73.39 52.74 68.72 50.43 69.47 54.25 73.39"/><g id="t-link-32"><polygon id="t-64" class="cls-2" points="54.26 73.39 50.3 70.49 51.73 68.53 54.26 73.39"/></g></g></g><g id="c-link-26"><g id="c-33"><polygon id="t-65" class="cls-2" points="48.49 73.39 52.45 70.51 51.02 68.53 48.49 73.39"/><g id="t-link-33"><polygon id="t-66" class="cls-2" points="48.51 73.39 50.02 68.73 52.33 69.49 48.51 73.39"/></g></g></g></g><g id="a-link-7"><g id="a-14"><g id="c-link-27"><g id="c-34"><polygon id="t-67" class="cls-2" points="51.39 64.54 52.89 69.21 50.58 69.96 51.39 64.54"/><g id="t-link-34"><polygon id="t-68" class="cls-2" points="51.39 64.54 49.88 69.21 52.19 69.96 51.39 64.54"/></g></g></g><g id="c-link-28"><g id="c-35"><polygon id="t-69" class="cls-2" points="46.72 67.93 51.62 67.93 51.62 70.37 46.72 67.93"/><g id="t-link-35"><polygon id="t-70" class="cls-2" points="46.73 67.92 50.69 70.79 52.12 68.83 46.73 67.92"/></g></g></g></g></g></g></g></g><g id="l-link"><g id="l-2"><g id="s-link-8"><g id="s-8"><g id="c-36"><polygon id="t-71" class="cls-2" points="95.18 39.08 96.71 43.75 94.38 44.5 95.18 39.08"/><g id="t-link-36"><polygon id="t-72" class="cls-2" points="95.2 39.08 93.69 43.75 96 44.5 95.2 39.08"/></g></g><g id="a-15"><g id="c-link-29"><g id="c-37"><polygon id="t-73" class="cls-2" points="90.55 42.48 95.45 42.48 95.45 44.91 90.55 42.48"/><g id="t-link-37"><polygon id="t-74" class="cls-2" points="90.55 42.46 94.51 45.35 95.94 43.37 90.55 42.46"/></g></g></g><g id="c-link-30"><g id="c-38"><polygon id="t-75" class="cls-2" points="92.32 47.94 93.85 43.29 96.16 44.03 92.32 47.94"/><g id="t-link-38"><polygon id="t-76" class="cls-2" points="92.32 47.94 96.28 45.07 94.85 43.09 92.32 47.94"/></g></g></g></g><g id="a-link-8"><g id="a-16"><g id="c-link-31"><g id="c-39"><polygon id="t-77" class="cls-2" points="99.83 42.48 94.95 42.48 94.95 44.91 99.83 42.48"/><g id="t-link-39"><polygon id="t-78" class="cls-2" points="99.83 42.46 95.87 45.35 94.44 43.37 99.83 42.46"/></g></g></g><g id="c-link-32"><g id="c-40"><polygon id="t-79" class="cls-2" points="98.06 47.94 96.55 43.29 94.24 44.03 98.06 47.94"/><g id="t-link-40"><polygon id="t-80" class="cls-2" points="98.07 47.94 94.1 45.07 95.54 43.09 98.07 47.94"/></g></g></g></g></g></g></g><g id="s-link-9"><g id="s-9"><g id="c-41"><polygon id="t-81" class="cls-2" points="83.47 22.49 79.51 19.61 80.94 17.65 83.47 22.49"/><g id="t-link-41"><polygon id="t-82" class="cls-2" points="83.46 22.5 81.95 17.84 79.64 18.59 83.46 22.5"/></g></g><g id="a-17"><g id="c-link-33"><g id="c-42"><polygon id="t-83" class="cls-2" points="85.23 17.02 81.27 19.89 79.84 17.93 85.23 17.02"/><g id="t-link-42"><polygon id="t-84" class="cls-2" points="85.23 17.03 80.35 17.03 80.35 19.47 85.23 17.03"/></g></g></g><g id="c-link-34"><g id="c-43"><polygon id="t-85" class="cls-2" points="80.58 13.64 82.09 18.29 79.78 19.05 80.58 13.64"/><g id="t-link-43"><polygon id="t-86" class="cls-2" points="80.58 13.64 79.07 18.29 81.38 19.05 80.58 13.64"/></g></g></g></g><g id="a-link-9"><g id="a-18"><g id="c-link-35"><g id="c-44"><polygon id="t-87" class="cls-2" points="77.72 22.49 81.68 19.61 80.25 17.63 77.72 22.49"/><g id="t-link-44"><polygon id="t-88" class="cls-2" points="77.72 22.49 79.23 17.84 81.56 18.59 77.72 22.49"/></g></g></g><g id="c-link-36"><g id="c-45"><polygon id="t-89" class="cls-2" points="75.95 17.02 79.91 19.89 81.34 17.91 75.95 17.02"/><g id="t-link-45"><polygon id="t-90" class="cls-2" points="75.93 17.02 80.83 17.02 80.83 19.45 75.93 17.02"/></g></g></g></g></g></g></g><g id="s-link-10"><g id="s-10"><g id="c-46"><polygon id="t-91" class="cls-2" points="88.41 33.25 89.92 28.6 92.23 29.34 88.41 33.25"/><g id="t-link-46"><polygon id="t-92" class="cls-2" points="88.39 33.25 92.35 30.36 90.92 28.4 88.39 33.25"/></g></g><g id="a-19"><g id="c-link-37"><g id="c-47"><polygon id="t-93" class="cls-2" points="94.14 33.24 90.18 30.36 91.61 28.4 94.14 33.24"/><g id="t-link-47"><polygon id="t-94" class="cls-2" points="94.14 33.25 92.64 28.58 90.31 29.34 94.14 33.25"/></g></g></g><g id="c-link-38"><g id="c-48"><polygon id="t-95" class="cls-2" points="95.92 27.77 91.96 30.64 90.53 28.68 95.92 27.77"/><g id="t-link-48"><polygon id="t-96" class="cls-2" points="95.94 27.78 91.03 27.78 91.03 30.22 95.94 27.78"/></g></g></g></g><g id="a-link-10"><g id="a-20"><g id="c-link-39"><g id="c-49"><polygon id="t-97" class="cls-2" points="86.63 27.78 90.59 30.66 92.02 28.68 86.63 27.78"/><g id="t-link-49"><polygon id="t-98" class="cls-2" points="86.63 27.78 91.52 27.78 91.52 30.22 86.63 27.78"/></g></g></g><g id="c-link-40"><g id="c-50"><polygon id="t-99" class="cls-2" points="91.28 24.4 89.78 29.06 92.09 29.81 91.28 24.4"/><g id="t-link-50"><polygon id="t-100" class="cls-2" points="91.28 24.4 92.79 29.06 90.48 29.81 91.28 24.4"/></g></g></g></g></g></g></g><g id="s-link-11"><g id="s-11"><g id="c-51"><polygon id="t-101" class="cls-2" points="86.62 57.17 91.52 57.17 91.52 59.6 86.62 57.17"/><g id="t-link-51"><polygon id="t-102" class="cls-2" points="86.62 57.15 90.58 60.03 92.01 58.06 86.62 57.15"/></g></g><g id="a-21"><g id="c-link-41"><g id="c-52"><polygon id="t-103" class="cls-2" points="88.41 62.62 89.92 57.97 92.23 58.72 88.41 62.62"/><g id="t-link-52"><polygon id="t-104" class="cls-2" points="88.39 62.62 92.35 59.75 90.92 57.78 88.39 62.62"/></g></g></g><g id="c-link-42"><g id="c-53"><polygon id="t-105" class="cls-2" points="94.16 62.62 90.2 59.75 91.63 57.78 94.16 62.62"/><g id="t-link-53"><polygon id="t-106" class="cls-2" points="94.14 62.64 92.64 57.97 90.33 58.72 94.14 62.64"/></g></g></g></g><g id="a-link-11"><g id="a-22"><g id="c-link-43"><g id="c-54"><polygon id="t-107" class="cls-2" points="91.28 53.79 89.76 58.44 92.07 59.2 91.28 53.79"/><g id="t-link-54"><polygon id="t-108" class="cls-2" points="91.27 53.79 92.78 58.44 90.47 59.2 91.27 53.79"/></g></g></g><g id="c-link-44"><g id="c-55"><polygon id="t-109" class="cls-2" points="95.94 57.17 91.03 57.17 91.03 59.6 95.94 57.17"/><g id="t-link-55"><polygon id="t-110" class="cls-2" points="95.94 57.17 91.96 60.04 90.53 58.06 95.94 57.17"/></g></g></g></g></g></g></g><g id="s-link-12"><g id="s-12"><g id="c-56"><polygon id="t-111" class="cls-2" points="75.93 67.92 80.82 67.92 80.82 70.35 75.93 67.92"/><g id="t-link-56"><polygon id="t-112" class="cls-2" points="75.93 67.92 79.89 70.79 81.32 68.83 75.93 67.92"/></g></g><g id="a-23"><g id="c-link-45"><g id="c-57"><polygon id="t-113" class="cls-2" points="77.71 73.39 79.23 68.72 81.54 69.47 77.71 73.39"/><g id="t-link-57"><polygon id="t-114" class="cls-2" points="77.71 73.39 81.67 70.49 80.24 68.53 77.71 73.39"/></g></g></g><g id="c-link-46"><g id="c-58"><polygon id="t-115" class="cls-2" points="83.47 73.39 79.5 70.51 80.93 68.53 83.47 73.39"/><g id="t-link-58"><polygon id="t-116" class="cls-2" points="83.46 73.39 81.95 68.73 79.62 69.49 83.46 73.39"/></g></g></g></g><g id="a-link-12"><g id="a-24"><g id="c-link-47"><g id="c-59"><polygon id="t-117" class="cls-2" points="80.58 64.54 79.07 69.21 81.38 69.96 80.58 64.54"/><g id="t-link-59"><polygon id="t-118" class="cls-2" points="80.57 64.54 82.09 69.21 79.78 69.96 80.57 64.54"/></g></g></g><g id="c-link-48"><g id="c-60"><polygon id="t-119" class="cls-2" points="85.23 67.93 80.35 67.93 80.35 70.37 85.23 67.93"/><g id="t-link-60"><polygon id="t-120" class="cls-2" points="85.23 67.92 81.27 70.79 79.84 68.83 85.23 67.92"/></g></g></g></g></g></g></g></g></g></g></g></svg>