<?xml version="1.0" encoding="utf-8"?>
<!-- Generator: Adobe Illustrator 25.1.0, SVG Export Plug-In . SVG Version: 6.00 Build 0)  -->
<svg version="1.1" id="Livello_1" xmlns="http://www.w3.org/2000/svg" xmlns:xlink="http://www.w3.org/1999/xlink" x="0px" y="0px"
	 viewBox="0 0 24 24" style="enable-background:new 0 0 24 24;" xml:space="preserve">
<g id="EU_x2F_icons_x2F_M_x5F_24x24px_x2F_audio">
	<path id="_xD83C__xDF08_-Icon-colour" d="M11.3,4.4C12.2,3.6,13,4,13,5.2l0,0v13.6c0,1.2-0.8,1.6-1.7,0.8l0,0l-2-1.6
		c-0.6-0.5-1.5-1.3-2.3-1.9l0,0H4c-1.1,0-2-0.9-2-2l0,0v-4c0-1.1,0.9-2,2-2l0,0h3.1c0.8-0.7,1.7-1.4,2.3-1.9l0,0L11.3,4.4z
		 M19.3,5.4c0.5-0.3,1.1,0,1.4,0.5C21.5,7.9,22,10,22,12s-0.5,4.1-1.3,6.1c-0.2,0.5-0.9,0.8-1.4,0.5c-0.5-0.2-0.7-0.8-0.5-1.3
		c0.8-1.8,1.2-3.7,1.2-5.4s-0.4-3.5-1.2-5.3C18.6,6.2,18.8,5.6,19.3,5.4z M15.8,7.2c0.5-0.3,1.2,0,1.4,0.5c0.6,1.4,0.8,2.9,0.8,4.4
		s-0.3,2.9-0.8,4.2c-0.2,0.5-0.9,0.8-1.4,0.5c-0.4-0.3-0.6-0.8-0.4-1.3c0.4-1,0.7-2.2,0.7-3.4c0-1.3-0.2-2.5-0.7-3.7
		C15.1,8,15.3,7.4,15.8,7.2z"/>
</g>
</svg>
