<?xml version="1.0" encoding="UTF-8"?>
<svg xmlns="http://www.w3.org/2000/svg" xmlns:xlink="http://www.w3.org/1999/xlink" width="24pt" height="24pt" viewBox="0 0 24 24" version="1.1">
<g id="surface1">
<path d="M 17.957031 4.667969 L 17.957031 2.417969 C 17.957031 2.140625 17.734375 1.917969 17.457031 1.917969 L 4.707031 1.917969 C 4.433594 1.917969 4.207031 2.140625 4.207031 2.417969 L 4.207031 18.832031 C 4.207031 19.105469 4.433594 19.332031 4.707031 19.332031 C 4.710938 19.332031 4.710938 19.332031 4.710938 19.332031 C 5.679688 19.328125 6.273438 19.328125 6.5 19.332031 L 6.5 21.582031 C 6.5 21.859375 6.722656 22.082031 7 22.082031 L 18.832031 22.082031 C 19.109375 22.082031 19.332031 21.859375 19.332031 21.582031 L 19.332031 5.167969 C 19.332031 4.890625 19.109375 4.667969 18.832031 4.667969 C 18.542969 4.667969 18.25 4.667969 17.957031 4.667969 Z M 6.5 18.417969 L 5.121094 18.417969 L 5.125 3.332031 C 5.125 3.058594 5.347656 2.832031 5.625 2.832031 L 13.832031 2.832031 L 6.90625 4.132812 C 6.671875 4.175781 6.5 4.382812 6.5 4.625 Z M 17.042969 3.4375 L 17.042969 4.667969 L 7.417969 4.667969 L 16.449219 2.945312 C 16.71875 2.894531 16.980469 3.074219 17.03125 3.34375 C 17.039062 3.375 17.042969 3.40625 17.042969 3.4375 Z M 17.917969 21.167969 L 7.917969 21.167969 C 7.640625 21.167969 7.417969 20.941406 7.417969 20.667969 L 7.417969 6.082031 C 7.417969 5.808594 7.640625 5.582031 7.917969 5.582031 L 17.917969 5.582031 C 18.191406 5.582031 18.417969 5.808594 18.417969 6.082031 L 18.417969 20.667969 C 18.417969 20.941406 18.191406 21.167969 17.917969 21.167969 Z M 17.917969 21.167969 "/>
<path d="M 16.582031 8.332031 L 9.25 8.332031 C 8.996094 8.332031 8.792969 8.539062 8.792969 8.792969 C 8.792969 9.042969 8.996094 9.25 9.25 9.25 L 16.582031 9.25 C 16.835938 9.25 17.042969 9.042969 17.042969 8.792969 C 17.042969 8.539062 16.835938 8.332031 16.582031 8.332031 Z M 16.582031 8.332031 "/>
<path d="M 16.582031 10.625 L 9.25 10.625 C 8.996094 10.625 8.792969 10.832031 8.792969 11.082031 C 8.792969 11.335938 8.996094 11.542969 9.25 11.542969 L 16.582031 11.542969 C 16.835938 11.542969 17.042969 11.335938 17.042969 11.082031 C 17.042969 10.832031 16.835938 10.625 16.582031 10.625 Z M 16.582031 10.625 "/>
<path d="M 16.582031 12.917969 L 9.25 12.917969 C 8.996094 12.917969 8.792969 13.121094 8.792969 13.375 C 8.792969 13.628906 8.996094 13.832031 9.25 13.832031 L 16.582031 13.832031 C 16.835938 13.832031 17.042969 13.628906 17.042969 13.375 C 17.042969 13.121094 16.835938 12.917969 16.582031 12.917969 Z M 16.582031 12.917969 "/>
<path d="M 14.292969 15.207031 L 9.25 15.207031 C 8.996094 15.207031 8.792969 15.414062 8.792969 15.667969 C 8.792969 15.917969 8.996094 16.125 9.25 16.125 L 14.292969 16.125 C 14.542969 16.125 14.75 15.917969 14.75 15.667969 C 14.75 15.414062 14.542969 15.207031 14.292969 15.207031 Z M 14.292969 15.207031 "/>
</g>
</svg>
