<?xml version="1.0" encoding="UTF-8"?>
<svg xmlns="http://www.w3.org/2000/svg" xmlns:xlink="http://www.w3.org/1999/xlink" width="24pt" height="24pt" viewBox="0 0 24 24" version="1.1">
<g id="surface1">
<path d="M 14.75 7.417969 C 18.796875 7.417969 22.082031 6.183594 22.082031 4.667969 C 22.082031 3.148438 18.796875 1.917969 14.75 1.917969 C 10.703125 1.917969 7.417969 3.148438 7.417969 4.667969 C 7.417969 6.183594 10.703125 7.417969 14.75 7.417969 Z M 18.417969 11.082031 C 20.46875 10.65625 22.082031 10.207031 22.082031 9.25 L 22.082031 7.417969 C 20.867188 8.40625 18.78125 8.9375 16.582031 9.0625 C 17.59375 9.625 18.117188 10.148438 18.417969 11.082031 Z M 9.25 14.75 C 12.457031 14.75 16.582031 13.609375 16.582031 11.542969 C 16.582031 9.472656 12.917969 8.332031 9.25 8.332031 C 5.582031 8.332031 1.917969 9.472656 1.917969 11.542969 C 1.917969 13.609375 6.042969 14.75 9.25 14.75 Z M 18.417969 14.75 C 20.605469 14.335938 22.082031 13.800781 22.082031 12.917969 L 22.082031 11.082031 C 21.625 12 19.332031 12.917969 18.417969 12.917969 Z M 9.25 18.417969 C 13.296875 18.417969 16.582031 17.066406 16.582031 15.667969 L 16.582031 13.832031 C 15.007812 15.179688 12.117188 15.878906 9.25 15.878906 C 6.382812 15.878906 3.492188 15.179688 1.917969 13.832031 L 1.917969 15.667969 C 1.917969 17.066406 5.203125 18.417969 9.25 18.417969 Z M 9.25 22.082031 C 13.296875 22.082031 16.582031 20.851562 16.582031 19.335938 L 16.582031 17.5 C 15.007812 18.75 12.121094 19.335938 9.25 19.335938 C 6.378906 19.335938 3.492188 18.75 1.917969 17.5 L 1.917969 19.335938 C 1.917969 20.851562 5.203125 22.082031 9.25 22.082031 Z M 9.25 22.082031 "/>
</g>
</svg>
