<?xml version="1.0" encoding="utf-8"?>
<!-- Generator: Adobe Illustrator 25.1.0, SVG Export Plug-In . SVG Version: 6.00 Build 0)  -->
<svg version="1.1" id="Livello_1" xmlns="http://www.w3.org/2000/svg" xmlns:xlink="http://www.w3.org/1999/xlink" x="0px" y="0px"
	 viewBox="0 0 24 24" style="enable-background:new 0 0 24 24;" xml:space="preserve">
<g id="EU_x2F_icons_x2F_M_x5F_24x24px_x2F_calendar">
	<path id="_xD83C__xDF08_-Icon-colour" d="M17,2c0.6,0,1,0.5,1,1l0,0v1h1c1.1,0,2,0.9,2,2l0,0v14c0,1.1-0.9,2-2,2l0,0H5
		c-1.1,0-2-0.9-2-2l0,0V6c0-1.1,0.9-2,2-2l0,0h1V3c0-0.5,0.4-1,1-1s1,0.5,1,1l0,0v1h8V3C16,2.5,16.4,2,17,2z M19,8H5v11.1
		C5,19.6,5.4,20,5.9,20l0,0H18c0.5,0,0.9-0.4,0.9-0.9l0,0V8H19z M11,11c0.6,0,1,0.4,1,1l0,0v3c0,0.6-0.4,1-1,1l0,0H8
		c-0.6,0-1-0.4-1-1l0,0v-3c0-0.6,0.4-1,1-1l0,0H11z"/>
</g>
</svg>
