<svg
  width="24"
  height="24"
  viewBox="0 0 24 24"
  xmlns="http://www.w3.org/2000/svg"
>
<path
    fill-rule="evenodd"
    clip-rule="evenodd"
    d="M9 8.25C6.51 8.25 4.5 10.26 4.5 12.75C4.5 15.24 6.51 17.25 9 17.25C11.49 17.25 13.5 15.24 13.5 12.75C13.5 10.26 11.49 8.25 9 8.25ZM9 9.75C10.65 9.75 12 11.1 12 12.75C12 14.4 10.65 15.75 9 15.75C7.35 15.75 6 14.4 6 12.75C6 11.1 7.35 9.75 9 9.75Z"
  />
<path d="M15 6.75H19.5V8.25H15V6.75Z" fill-rule="evenodd" />
<path
    fill-rule="evenodd"
    clip-rule="evenodd"
    d="M19.125 3.75H4.875C3.015 3.75 1.5 5.265 1.5 7.125V16.875C1.5 18.735 3.015 20.25 4.875 20.25H19.125C20.985 20.25 22.5 18.735 22.5 16.875V7.125C22.5 5.265 20.985 3.75 19.125 3.75ZM19.125 5.25C20.16 5.25 21 6.09 21 7.125V16.875C21 17.91 20.16 18.75 19.125 18.75H4.875C3.84 18.75 3 17.91 3 16.875V7.125C3 6.09 3.84 5.25 4.875 5.25H19.125Z"
  />
</svg>
