<svg
  width="25"
  height="25"
  viewBox="0 0 25 25"
  xmlns="http://www.w3.org/2000/svg"
>
<path
    d="M21.2235 7.59128H18.0861C17.9435 7.59128 17.8009 7.44867 17.8009 7.44867L16.5175 5.45217C16.2322 5.02435 15.8044 4.73914 15.234 4.73914H9.95753C9.52971 4.73914 8.95928 5.02435 8.81668 5.45217L7.67582 7.44867C7.53321 7.44867 7.39061 7.59128 7.248 7.59128H4.11064C3.255 7.59128 2.68457 8.30431 2.68457 9.01735V18.9999C2.68457 19.8555 3.39761 20.4259 4.11064 20.4259H21.2235C22.0791 20.4259 22.6496 19.7129 22.6496 18.9999V9.01735C22.6496 8.16171 21.9365 7.59128 21.2235 7.59128ZM13.5227 17.4312C10.8132 18.1442 8.53146 15.7199 9.2445 13.0104C9.52971 11.7269 10.528 10.7286 11.8114 10.4434C14.521 9.87299 16.8027 12.1547 16.0896 14.7216C15.8044 16.1477 14.8062 17.146 13.5227 17.4312Z"
    fill-rule="evenodd"
  />
</svg>
