<svg
  width="24"
  height="24"
  viewBox="0 0 24 24"
  xmlns="http://www.w3.org/2000/svg"
>
<path
    d="M12.5073 16.487H12.6621C13.6423 16.487 14.5537 16.1086 15.2416 15.4208L20.9338 9.7458C21.6217 9.05793 22 8.19808 22 7.16627C22 6.13446 21.5701 5.11984 20.8306 4.38037L19.6268 3.17659C18.0963 1.64607 15.6887 1.61168 14.2442 3.05621L12.2666 5.03386L14.0894 6.85673L16.0499 4.87908C16.497 4.43196 17.2709 4.50075 17.7696 4.99946L18.9733 6.20324C19.2313 6.4612 19.3861 6.82233 19.3861 7.16627C19.3861 7.45862 19.2657 7.73377 19.0765 7.92293L13.3844 13.6151C13.1952 13.8043 12.92 13.9418 12.5933 13.9074C12.2494 13.9074 11.9226 13.7527 11.6647 13.4947L11.0456 12.8756L9.22271 14.6985L9.8418 15.3176C10.5641 16.0399 11.5099 16.4526 12.5073 16.487Z"
  />
<path
    d="M4.37317 20.7862C5.14703 21.5601 6.16165 21.9556 7.15907 21.9556V21.9728C8.10489 21.9728 9.03353 21.6289 9.7386 20.9238L11.699 18.9634L9.87617 17.1405L7.91573 19.101C7.48581 19.5481 6.71195 19.4793 6.19604 18.9806L4.99226 17.7768C4.73431 17.5188 4.57953 17.1577 4.57953 16.8138C4.57953 16.5214 4.69991 16.2463 4.88908 16.0571L10.5812 10.3649C10.7704 10.1758 11.0284 10.0382 11.3723 10.0726C11.7162 10.0726 12.043 10.2274 12.3009 10.4853L12.9888 11.1732L14.8117 9.35032L14.1238 8.66244C13.4015 7.94017 12.4557 7.52745 11.4583 7.49305C10.4437 7.49305 9.48065 7.81979 8.75838 8.54206L3.06621 14.217C2.37833 14.9049 2 15.7648 2 16.7966C2 17.8284 2.42992 18.843 3.16939 19.5825L4.37317 20.7862Z"
  />
</svg>
