<?xml version="1.0" encoding="utf-8"?>
<!-- Generator: Adobe Illustrator 25.1.0, SVG Export Plug-In . SVG Version: 6.00 Build 0)  -->
<svg version="1.1" id="Livello_1" xmlns="http://www.w3.org/2000/svg" xmlns:xlink="http://www.w3.org/1999/xlink" x="0px" y="0px"
	 viewBox="0 0 24 24" style="enable-background:new 0 0 24 24;" xml:space="preserve">
<g id="EU_x2F_icons_x2F_M_x5F_24x24px_x2F_check">
	<path id="_xD83C__xDF08_-Icon-colour" d="M19.2,6.4l-9.9,9.9l-3.5-3.6c-0.4-0.4-1-0.4-1.4,0l0,0c-0.4,0.4-0.4,1,0,1.4l0,0l4.2,4.2
		c0.4,0.4,1,0.4,1.4,0l0,0L20.6,7.8c0.4-0.4,0.4-1,0-1.4l0,0c-0.2-0.2-0.5-0.3-0.7-0.3l0,0C19.6,6.1,19.4,6.2,19.2,6.4L19.2,6.4z"/>
</g>
</svg>
