<?xml version="1.0" encoding="utf-8"?>
<!-- Generator: Adobe Illustrator 25.1.0, SVG Export Plug-In . SVG Version: 6.00 Build 0)  -->
<svg version="1.1" id="Livello_1" xmlns="http://www.w3.org/2000/svg" xmlns:xlink="http://www.w3.org/1999/xlink" x="0px" y="0px"
	 viewBox="0 0 24 24" style="enable-background:new 0 0 24 24;" xml:space="preserve">
<g id="EU_x2F_icons_x2F_M_x5F_24x24px_x2F_check-filled">
	<path id="_xD83C__xDF08_-Icon-colour" d="M18.4,10.2l-7.1,7.1c-0.4,0.4-1,0.4-1.4,0L5.6,13c-0.4-0.4-0.4-1,0-1.4
		c0.4-0.4,1-0.4,1.4,0l3.5,3.6L17,8.7c0.4-0.4,1-0.4,1.4,0C18.8,9.1,18.8,9.8,18.4,10.2 M12,2C6.5,2,2,6.5,2,12c0,5.5,4.5,10,10,10
		c5.5,0,10-4.5,10-10C22,6.5,17.5,2,12,2"/>
</g>
</svg>
