<svg
  width="24"
  height="24"
  viewBox="0 0 24 24"
  xmlns="http://www.w3.org/2000/svg"
>
<path
    fill-rule="evenodd"
    clip-rule="evenodd"
    d="M22.5 12C22.5 17.799 17.799 22.5 12 22.5C6.20101 22.5 1.5 17.799 1.5 12C1.5 6.20101 6.20101 1.5 12 1.5C17.799 1.5 22.5 6.20101 22.5 12ZM15.8776 16.71L15.8849 16.71H15.8699L15.8776 16.71ZM15.2549 16.455C15.4329 16.6183 15.655 16.7081 15.8776 16.71C16.1147 16.7081 16.3368 16.6181 16.5149 16.44C16.8749 16.08 16.8749 15.51 16.5149 15.165L12.8999 11.625V6.00004C12.8999 5.50504 12.4949 5.10004 11.9999 5.10004C11.5049 5.10004 11.0999 5.50504 11.0999 6.00004V12C11.0999 12.24 11.2049 12.48 11.3699 12.645L15.2549 16.455Z"
  />
</svg>
