<svg
  width="24"
  height="24"
  viewBox="0 0 24 24"
  xmlns="http://www.w3.org/2000/svg"
>
<path
    d="M10.9339 12.0106L7.22168 15.7229L8.28233 16.7836L11.9946 13.0713L15.7069 16.7836L16.7676 15.723L13.0553 12.0106L16.7676 8.29831L15.7069 7.23761L11.9946 10.95L8.28233 7.23771L7.22168 8.29836L10.9339 12.0106Z"
  />
<path
    fill-rule="evenodd"
    clip-rule="evenodd"
    d="M12 1.5C6.21 1.5 1.5 6.21 1.5 12C1.5 17.79 6.195 22.5 12 22.5C17.805 22.5 22.5 17.805 22.5 12C22.5 6.195 17.805 1.5 12 1.5ZM12 3C16.965 3 21 7.035 21 12C21 16.965 16.965 21 12 21C7.035 21 3 16.965 3 12C3 7.035 7.035 3 12 3Z"
  />
</svg>
