<?xml version="1.0" encoding="utf-8"?>
<!-- Generator: Adobe Illustrator 25.1.0, SVG Export Plug-In . SVG Version: 6.00 Build 0)  -->
<svg version="1.1" id="Livello_1" xmlns="http://www.w3.org/2000/svg" xmlns:xlink="http://www.w3.org/1999/xlink" x="0px" y="0px"
	 viewBox="0 0 24 24" style="enable-background:new 0 0 24 24;" xml:space="preserve">
<g id="EU_x2F_icons_x2F_M_x5F_24x24px_x2F_close-filled">
	<path id="_xD83C__xDF08_-Icon-colour" d="M17,15.5c0.4,0.4,0.4,1,0,1.4c-0.4,0.4-1,0.4-1.4,0L12,13.4l-3.5,3.5
		c-0.4,0.4-1,0.4-1.4,0c-0.4-0.4-0.4-1,0-1.4l3.5-3.5L7.1,8.5c-0.4-0.4-0.4-1,0-1.4s1-0.4,1.4,0l3.5,3.5l3.5-3.5
		c0.4-0.4,1-0.4,1.4,0c0.4,0.4,0.4,1,0,1.4L13.4,12L17,15.5z M12,2C6.5,2,2,6.5,2,12c0,5.5,4.5,10,10,10c5.5,0,10-4.5,10-10
		C22,6.5,17.5,2,12,2L12,2z"/>
</g>
</svg>
