<?xml version="1.0" encoding="utf-8"?>
<!-- Generator: Adobe Illustrator 25.1.0, SVG Export Plug-In . SVG Version: 6.00 Build 0)  -->
<svg version="1.1" id="Livello_1" xmlns="http://www.w3.org/2000/svg" xmlns:xlink="http://www.w3.org/1999/xlink" x="0px" y="0px"
	 viewBox="0 0 24 24" style="enable-background:new 0 0 24 24;" xml:space="preserve">
<g>
	<g transform="matrix(1 0 0 -1 0 25.047)">
		<path id="rounded-arrow-up-e" d="M18.2,7.9c0.2-0.2,0.4-0.3,0.7-0.3l0,0c0.3,0,0.5,0.1,0.7,0.3l0,0c0.4,0.4,0.4,1,0,1.4l-7.1,7.1
			l0,0c-0.4,0.4-1,0.4-1.4,0l-7-7l0,0C3.8,9,3.8,8.4,4.2,8l0,0c0.4-0.4,1-0.4,1.4,0l6.2,6.2L18.2,7.9L18.2,7.9z"/>
	</g>
</g>
</svg>
