<?xml version="1.0" encoding="utf-8"?>
<!-- Generator: Adobe Illustrator 25.1.0, SVG Export Plug-In . SVG Version: 6.00 Build 0)  -->
<svg version="1.1" id="Livello_1" xmlns="http://www.w3.org/2000/svg" xmlns:xlink="http://www.w3.org/1999/xlink" x="0px" y="0px"
	 viewBox="0 0 24 24" style="enable-background:new 0 0 24 24;" xml:space="preserve">
<g id="EU_x2F_icons_x2F_M_x5F_24x24px_x2F_digital">
	<path id="_xD83C__xDF08_-Icon-colour" d="M15,8c1.7,0,3,1.3,3,3s-1.3,3-3,3c-1.3,0-2.4-0.8-2.8-2l0,0h-0.7l-1.3,3l1.3,3H16
		c0.1,0,0.1,0,0.2,0c0.4-1.2,1.5-2,2.8-2c1.7,0,3,1.3,3,3s-1.3,3-3,3c-1.3,0-2.4-0.9-2.8-2c-0.1,0-0.1,0-0.2,0l0,0h-5c0,0,0,0-0.1,0
		s-0.2,0-0.3-0.1l0,0c-0.3-0.2-0.7-0.5-0.8-0.8l0,0L8.4,16H3c-0.5,0-1-0.4-1-1s0.5-1,1-1l0,0h5.4l1.3-3.1c0.1-0.3,0.5-0.7,0.9-0.8
		h0.1c0.1,0,0.1,0,0.2,0H11l0,0h1.2C12.6,8.8,13.7,8,15,8z M19,2c1.7,0,3,1.3,3,3s-1.3,3-3,3c-1.3,0-2.4-0.8-2.8-2l0,0H8.4L7,9.3
		C6.9,9.5,6.9,9.6,6.7,9.7C6.6,9.9,6.3,10,6,10l0,0H3c-0.5,0-1-0.5-1-1s0.5-1,1-1l0,0h2.4l1.3-3.1c0.1-0.3,0.5-0.7,0.9-0.8h0.1
		c0.1,0,0.1,0,0.2,0C7.9,4,8,4,8,4l0,0h8.2C16.6,2.8,17.7,2,19,2z"/>
</g>
</svg>
