<svg
  width="24"
  height="24"
  viewBox="0 0 24 24"
  xmlns="http://www.w3.org/2000/svg"
>
<path d="M12 6.75H6V8.25H12V6.75Z" fill-rule="evenodd" />
<path d="M15 9.75H6V11.25H15V9.75Z" fill-rule="evenodd" />
<path
    d="M20.25 15.0151H10.08C9.255 15.0151 8.58 15.6901 8.58 16.5151V18.0001C8.58 19.5601 7.29 20.2501 6 20.2501C4.71 20.2501 3.75 19.2451 3.75 18.0001V4.62012C3.75 4.20012 4.08 3.87012 4.5 3.87012H16.5C16.92 3.87012 17.25 4.20012 17.25 4.62012V15.0001H18.75V4.62012C18.75 3.37512 17.745 2.37012 16.5 2.37012H4.5C3.255 2.37012 2.25 3.37512 2.25 4.62012V18.0001C2.25 20.0701 3.93 21.7501 6 21.7501H18.495C20.28 21.7501 21.75 20.4001 21.75 18.7501V16.5151C21.75 15.6901 21.075 15.0151 20.25 15.0151ZM20.25 18.7501C20.25 19.5751 19.47 20.2501 18.495 20.2501H9.33C9.81 19.6351 10.08 18.8701 10.08 18.0001V16.5151H20.25V18.7501Z"
    fill-rule="evenodd"
  />
</svg>
