<svg
  width="25"
  height="25"
  viewBox="0 0 25 25"
  xmlns="http://www.w3.org/2000/svg"
>
<path
    d="M18.1024 13.3588H15.6622V7.03653C15.6622 6.37103 15.2185 5.92737 14.553 5.92737H6.78885C6.12335 5.92737 5.67969 6.48195 5.67969 7.14745V7.03653V18.1282C5.67969 18.7937 6.12335 19.2374 6.78885 19.2374H16.6604C17.8805 19.2374 18.9897 18.1282 18.9897 16.9081V14.2461C18.9897 13.8025 18.6569 13.3588 18.1024 13.3588ZM11.2255 17.019H7.89802V15.9099H11.2255V17.019ZM13.4439 14.468H7.89802V13.3588H13.4439V14.468ZM13.4439 11.806H7.89802V10.6968H13.4439V11.806ZM13.4439 9.25487H7.89802V8.1457H13.4439V9.25487ZM17.8805 17.019C17.8805 17.7955 17.5478 18.1282 16.7714 18.1282C15.9949 18.1282 15.6622 17.7955 15.6622 17.019V14.357H17.8805V17.019Z"
    fill-rule="evenodd"
  />
</svg>
