<?xml version="1.0" encoding="utf-8"?>
<!-- Generator: Adobe Illustrator 25.1.0, SVG Export Plug-In . SVG Version: 6.00 Build 0)  -->
<svg version="1.1" id="Livello_1" xmlns="http://www.w3.org/2000/svg" xmlns:xlink="http://www.w3.org/1999/xlink" x="0px" y="0px"
	 viewBox="0 0 24 24" style="enable-background:new 0 0 24 24;" xml:space="preserve">
<g id="EU_x2F_icons_x2F_M_x5F_24x24px_x2F_download">
	<path id="_xD83C__xDF08_-Icon-colour" d="M18.9,20c0.6,0,1.1,0.5,1.1,1c0,0.6-0.5,1-1.1,1l0,0H5.1C4.5,22,4,21.6,4,21
		c0-0.5,0.5-1,1.1-1l0,0H18.9z M14,2c0.6,0,1,0.4,1,1l0,0v7.7h1.6c0.9,0,1.3,1.1,0.7,1.7l0,0L12.7,17c-0.4,0.4-1,0.4-1.4,0l0,0
		l-4.6-4.6c-0.6-0.6-0.2-1.7,0.7-1.7l0,0H9V3c0-0.5,0.4-1,1-1l0,0H14z"/>
</g>
</svg>
