<?xml version="1.0" encoding="UTF-8" ?>
<svg xmlns="http://www.w3.org/2000/svg" viewBox="0 0 24 24"><defs><style
    >.cls-1{fill:none;}.cls-2{fill-rule:evenodd;}</style></defs><g
    id="Layer_2"
  ><rect class="cls-1" width="24" height="24" /></g><g id="Layer_1"><g
      id="Type_General_Size_M_24x24px_Subject_Email_Color_Default"
    ><path
        id="Shape"
        class="cls-2"
        d="M3,6c-.55,0-1,.45-1,1v11c0,.55,.45,1,1,1H21c.55,0,1-.45,1-1V7c0-.55-.45-1-1-1H3Zm17,1.5l-8,4.5L4,7.5H20Zm-8,5.85L3.5,8.5v8c0,.55,.45,1,1,1h15c.55,0,1-.45,1-1v-8l-8.5,4.85Z"
      /></g></g></svg>
