<?xml version="1.0" encoding="utf-8"?>
<!-- Generator: Adobe Illustrator 25.1.0, SVG Export Plug-In . SVG Version: 6.00 Build 0)  -->
<svg version="1.1" id="Livello_1" xmlns="http://www.w3.org/2000/svg" xmlns:xlink="http://www.w3.org/1999/xlink" x="0px" y="0px"
	 viewBox="0 0 24 24" style="enable-background:new 0 0 24 24;" xml:space="preserve">
<g id="EU_x2F_icons_x2F_M_x5F_24x24px_x2F_error">
	<path id="_xD83C__xDF08_-Icon-colour" d="M20,2c1,0,1.9,0.8,2,1.9L22,4v16c0,1-0.8,1.9-1.9,2L20,22H4c-1,0-1.9-0.8-2-1.9L2,20V4
		c0-1,0.8-1.9,1.9-2L4,2H20z M12,15c-0.6,0-1,0.4-1,1c0,0.6,0.4,1,1,1s1-0.4,1-1C13,15.4,12.6,15,12,15z M12,7c-0.6,0-1,0.4-1,1l0,0
		v5c0,0.6,0.4,1,1,1s1-0.4,1-1l0,0V8C13,7.4,12.6,7,12,7z"/>
</g>
</svg>
