<?xml version="1.0" encoding="utf-8"?>
<!-- Generator: Adobe Illustrator 25.1.0, SVG Export Plug-In . SVG Version: 6.00 Build 0)  -->
<svg version="1.1" id="Livello_1" xmlns="http://www.w3.org/2000/svg" xmlns:xlink="http://www.w3.org/1999/xlink" x="0px" y="0px"
	 viewBox="0 0 24 24" style="enable-background:new 0 0 24 24;" xml:space="preserve">
<g id="EU_x2F_icons_x2F_M_x5F_24x24px_x2F_fullscreen">
	<path id="_xD83C__xDF08_-Icon-colour" d="M15,3c0,0.5,0.4,1,1,1h4v4c0,0.6,0.5,1,1,1s1-0.4,1-1V3c0-0.5-0.5-1-1-1h-5
		C15.4,2,15,2.5,15,3L15,3z M20,20h-4c-0.6,0-1,0.5-1,1s0.4,1,1,1h5c0.5,0,1-0.5,1-1v-5c0-0.6-0.5-1-1-1s-1,0.4-1,1V20z M3,9
		c0.5,0,1-0.4,1-1V4h4c0.6,0,1-0.5,1-1S8.6,2,8,2H3C2.5,2,2,2.5,2,3v5C2,8.6,2.5,9,3,9L3,9z M3,15c-0.5,0-1,0.4-1,1v5
		c0,0.5,0.5,1,1,1h5c0.6,0,1-0.5,1-1s-0.4-1-1-1H4v-4C4,15.4,3.5,15,3,15L3,15z"/>
</g>
</svg>
