<?xml version="1.0" encoding="utf-8"?>
<!-- Generator: Adobe Illustrator 25.1.0, SVG Export Plug-In . SVG Version: 6.00 Build 0)  -->
<svg version="1.1" id="Livello_1" xmlns="http://www.w3.org/2000/svg" xmlns:xlink="http://www.w3.org/1999/xlink" x="0px" y="0px"
	 viewBox="0 0 24 24" style="enable-background:new 0 0 24 24;" xml:space="preserve">
<g id="EU_x2F_icons_x2F_M_x5F_24x24px_x2F_generic-lang">
	<path id="_xD83C__xDF08_-Icon-colour" d="M18.2,13.5L18.2,13.5l-2.8,0l0-0.1c0.1-0.4,0.1-1,0.1-1.6c0-0.6-0.1-1.2-0.1-1.6l0-0.1
		h2.8l0,0c0.1,0.6,0.2,1.1,0.2,1.6C18.4,12.4,18.4,13,18.2,13.5L18.2,13.5z M17.6,15.1c-0.8,1.3-2,2.4-3.5,2.9L14,18l0.1-0.1
		c0.5-0.9,0.8-1.8,1.1-2.8l0,0L17.6,15.1L17.6,15.1z M13.9,13.6h-3.8l0,0C10,13,10,12.5,10,11.9c0-0.5,0-1,0.1-1.6l0,0h3.8l0,0
		c0.1,0.6,0.1,1.1,0.1,1.6C14,12.5,14,13,13.9,13.6L13.9,13.6z M13.6,15.1c-0.3,1.1-0.9,2.2-1.5,3.2l0,0.1l0-0.1
		c-0.7-1-1.2-2-1.5-3.2l0-0.1L13.6,15.1L13.6,15.1z M9.9,18c-1.5-0.5-2.7-1.5-3.5-2.9l0-0.1h2.5l0,0C9.1,16.1,9.5,17.1,9.9,18l0.1,0
		L9.9,18z M5.8,13.5c-0.1-0.6-0.2-1.1-0.2-1.6c0-0.5,0.1-1,0.2-1.6l0,0h2.8l0,0.1c-0.1,0.4-0.1,1-0.1,1.6c0,0.6,0.1,1.2,0.1,1.6
		l0,0.1L5.8,13.5L5.8,13.5z M6.4,8.7c0.8-1.3,2-2.4,3.5-2.9l0.1,0L10,5.9C9.5,6.8,9.1,7.7,8.9,8.7l0,0L6.4,8.7L6.4,8.7z M10.4,8.7
		c0.3-1.1,0.9-2.2,1.5-3.2l0-0.1l0,0.1c0.7,1,1.2,2,1.5,3.2l0,0.1L10.4,8.7L10.4,8.7z M14.1,5.8c1.5,0.5,2.7,1.5,3.5,2.9l0,0.1h-2.5
		l0,0C14.9,7.7,14.5,6.8,14.1,5.8l-0.1,0L14.1,5.8z M20,2H4C2.9,2,2,2.9,2,4v16c0,1.1,0.9,2,2,2h5h6h5c1.1,0,2-0.9,2-2V4
		C22,2.9,21.1,2,20,2L20,2z"/>
</g>
</svg>
