<?xml version="1.0" encoding="utf-8"?>
<!-- Generator: Adobe Illustrator 25.1.0, SVG Export Plug-In . SVG Version: 6.00 Build 0)  -->
<svg version="1.1" id="Livello_1" xmlns="http://www.w3.org/2000/svg" xmlns:xlink="http://www.w3.org/1999/xlink" x="0px" y="0px"
	 viewBox="0 0 24 24" style="enable-background:new 0 0 24 24;" xml:space="preserve">
<g id="EU_x2F_icons_x2F_M_x5F_24x24px_x2F_information">
	<path id="_xD83C__xDF08_-Icon-colour" d="M11,11c0-0.6,0.4-1,1-1s1,0.4,1,1v5c0,0.5-0.4,1-1,1s-1-0.5-1-1V11z M12,7
		c0.6,0,1,0.4,1,1c0,0.6-0.4,1-1,1s-1-0.4-1-1C11,7.4,11.4,7,12,7L12,7z M12,2C6.5,2,2,6.5,2,12c0,5.5,4.5,10,10,10s10-4.5,10-10
		C22,6.5,17.5,2,12,2L12,2z"/>
</g>
</svg>
