<?xml version="1.0" encoding="UTF-8" ?>
<svg id="a" xmlns="http://www.w3.org/2000/svg" viewBox="0 0 24 24"><path
    d="M20.79,5.49H5.7c-.67,0-1.21,.54-1.21,1.21v1.8c0,.32-.13,.63-.35,.85l-1.8,1.79c-.47,.47-.47,1.23,0,1.71l1.8,1.8c.23,.23,.35,.53,.35,.85v1.79c0,.67,.54,1.21,1.21,1.21h15.09c.67,0,1.21-.54,1.21-1.21V6.7c0-.67-.54-1.21-1.21-1.21ZM8.25,13.74c-.97,0-1.75-.78-1.75-1.75s.78-1.75,1.75-1.75,1.75,.78,1.75,1.75-.78,1.75-1.75,1.75Zm4.75,0c-.97,0-1.75-.78-1.75-1.75s.78-1.75,1.75-1.75,1.75,.78,1.75,1.75-.78,1.75-1.75,1.75Zm4.75,0c-.97,0-1.75-.78-1.75-1.75s.78-1.75,1.75-1.75,1.75,.78,1.75,1.75-.78,1.75-1.75,1.75Z"
  /></svg>
