<?xml version="1.0" encoding="UTF-8" ?>
<svg id="a" xmlns="http://www.w3.org/2000/svg" viewBox="0 0 24 24"><path
    d="M20.79,6.5c.11,0,.21,.09,.21,.21v10.59c0,.11-.09,.21-.21,.21H5.7c-.11,0-.21-.09-.21-.21v-1.79c0-.59-.23-1.14-.65-1.56l-1.8-1.8s-.06-.11-.06-.15c0-.04,.01-.1,.06-.15l1.8-1.79c.42-.42,.65-.97,.65-1.56v-1.8c0-.11,.09-.21,.21-.21h15.09m0-1H5.7c-.67,0-1.21,.54-1.21,1.21v1.8c0,.32-.13,.63-.35,.85l-1.8,1.79c-.47,.47-.47,1.23,0,1.71l1.8,1.8c.23,.23,.35,.53,.35,.85v1.79c0,.67,.54,1.21,1.21,1.21h15.09c.67,0,1.21-.54,1.21-1.21V6.71c0-.67-.54-1.21-1.21-1.21h0Z"
  /><circle cx="17.75" cy="12" r="1.75" /><circle
    cx="8.25"
    cy="12"
    r="1.75"
  /><circle cx="13" cy="12" r="1.75" /></svg>
