<?xml version="1.0" encoding="utf-8"?>
<!-- Generator: Adobe Illustrator 25.1.0, SVG Export Plug-In . SVG Version: 6.00 Build 0)  -->
<svg version="1.1" id="Livello_1" xmlns="http://www.w3.org/2000/svg" xmlns:xlink="http://www.w3.org/1999/xlink" x="0px" y="0px"
	 viewBox="0 0 24 24" style="enable-background:new 0 0 24 24;" xml:space="preserve">
<g id="EU_x2F_icons_x2F_M_x5F_24x24px_x2F_logged-in">
	<path id="_xD83C__xDF08_-Icon-colour" d="M21,15.1c0.3,0,0.5,0.1,0.7,0.3c0.4,0.4,0.4,1,0,1.4l-4.9,4.9c-0.2,0.2-0.5,0.3-0.7,0.3
		c-0.3,0-0.5-0.1-0.7-0.3l-2.8-2.8c-0.4-0.4-0.4-1,0-1.4c0.2-0.2,0.5-0.3,0.7-0.3c0.3,0,0.5,0.1,0.7,0.3l2.1,2.1l4.2-4.2
		C20.5,15.2,20.8,15.1,21,15.1z M10,11c2.6,0,7.8,1.3,8,3.9l0,0l-1.9,1.9l-0.7-0.7c-0.6-0.6-1.3-0.9-2.1-0.9c-0.8,0-1.6,0.3-2.1,0.9
		c-0.5,0.5-0.8,1.2-0.9,1.9l0,0H2v-3C2,12.3,7.3,11,10,11z M10,2c2.2,0,4,1.8,4,4s-1.8,4-4,4S6,8.2,6,6S7.8,2,10,2z"/>
</g>
</svg>
