<?xml version="1.0" encoding="utf-8"?>
<!-- Generator: Adobe Illustrator 25.1.0, SVG Export Plug-In . SVG Version: 6.00 Build 0)  -->
<svg version="1.1" id="Livello_1" xmlns="http://www.w3.org/2000/svg" xmlns:xlink="http://www.w3.org/1999/xlink" x="0px" y="0px"
	 viewBox="0 0 24 24" style="enable-background:new 0 0 24 24;" xml:space="preserve">
<g id="EU_x2F_icons_x2F_M_x5F_24x24px_x2F_organigram">
	<path id="_xD83C__xDF08_-Icon-colour" d="M21,16h-2v-3c0-1.1-0.9-2-2-2h-4V8h3c0.5,0,1-0.4,1-1V3c0-0.5-0.5-1-1-1H8
		C7.4,2,7,2.5,7,3v4c0,0.6,0.4,1,1,1h3v3H7c-1.1,0-2,0.9-2,2v3H3c-0.5,0-1,0.5-1,1v4c0,0.5,0.5,1,1,1h6c0.6,0,1-0.5,1-1v-4
		c0-0.5-0.4-1-1-1H7v-3h10v3h-2c-0.6,0-1,0.5-1,1v4c0,0.5,0.4,1,1,1h6c0.5,0,1-0.5,1-1v-4C22,16.5,21.5,16,21,16"/>
</g>
</svg>
