<?xml version="1.0" encoding="UTF-8"?>
<svg xmlns="http://www.w3.org/2000/svg" xmlns:xlink="http://www.w3.org/1999/xlink" width="24pt" height="24pt" viewBox="0 0 24 24" version="1.1">
<g id="surface1">
<path d="M 3.25 9.75 L 19.75 9.75 C 20.027344 9.75 20.25 9.972656 20.25 10.25 L 20.25 20.625 C 20.25 20.902344 20.027344 21.125 19.75 21.125 L 3.25 21.125 C 2.972656 21.125 2.75 20.902344 2.75 20.625 L 2.75 10.25 C 2.75 9.972656 2.972656 9.75 3.25 9.75 Z M 8.5 14.125 L 14.5 14.125 C 14.777344 14.125 15 13.902344 15 13.625 L 15 12 C 15 11.722656 14.777344 11.5 14.5 11.5 L 8.5 11.5 C 8.222656 11.5 8 11.722656 8 12 L 8 13.625 C 8 13.902344 8.222656 14.125 8.5 14.125 Z M 21.125 8.375 L 21.125 6.386719 C 21.125 6.296875 21.101562 6.207031 21.054688 6.132812 L 18.644531 2.117188 C 18.554688 1.96875 18.390625 1.875 18.21875 1.875 L 4.78125 1.875 C 4.609375 1.875 4.445312 1.96875 4.355469 2.117188 L 1.945312 6.132812 C 1.898438 6.207031 1.875 6.296875 1.875 6.386719 L 1.875 8.375 C 1.875 8.652344 2.097656 8.875 2.375 8.875 L 20.625 8.875 C 20.902344 8.875 21.125 8.652344 21.125 8.375 Z M 21.125 8.375 "/>
</g>
</svg>
