<?xml version="1.0" encoding="UTF-8"?>
<svg width="24px" height="24px" viewBox="0 0 24 24" version="1.1" xmlns="http://www.w3.org/2000/svg" xmlns:xlink="http://www.w3.org/1999/xlink">
    <title>EU_x2F_icons_x2F_M_x5F_24x24px_x2F_pause</title>
    <g id="EU_x2F_icons_x2F_M_x5F_24x24px_x2F_pause" stroke="none" stroke-width="1" fill-rule="evenodd">
        <path d="M1.52367857,12.0002514 C1.52367857,6.21739429 6.21701714,1.52407143 11.9998743,1.52407143 C17.7827,1.52407143 22.4760857,6.21739429 22.4760857,12.0002514 C22.4760857,17.7831714 17.7827,22.4764 11.9998743,22.4764 C6.21701714,22.4764 1.52367857,17.7831714 1.52367857,12.0002514 Z M3.61892714,12.0002514 C3.61892714,7.37396571 7.37358857,3.61930429 11.9998743,3.61930429 C16.6261286,3.61930429 20.3809,7.37396571 20.3809,12.0002514 C20.3809,16.6266 16.6261286,20.3812143 11.9998743,20.3812143 C7.37358857,20.3812143 3.61892714,16.6266 3.61892714,12.0002514 Z M14.0951071,7.80978571 C14.0951071,7.23120143 14.5641471,6.76216143 15.1427314,6.76216143 C15.7213,6.76216143 16.1903714,7.23120143 16.1903714,7.80978571 L16.1903714,16.1906857 C16.1903714,16.7692857 15.7213,17.2383571 15.1427314,17.2383571 C14.5641471,17.2383571 14.0951071,16.7692857 14.0951071,16.1906857 L14.0951071,7.80978571 Z M8.85701714,6.76216143 C8.27843286,6.76216143 7.80939286,7.23120143 7.80939286,7.80977 L7.80939286,16.1906857 C7.80939286,16.7692857 8.27843286,17.2383571 8.85701714,17.2383571 C9.43560143,17.2383571 9.90462571,16.7692857 9.90462571,16.1906857 L9.90462571,7.80978571 C9.90462571,7.23120143 9.43560143,6.76216143 8.85701714,6.76216143 Z" id="Shape"></path>
    </g>
</svg>
