<?xml version="1.0" encoding="UTF-8"?>
<svg width="24px" height="24px" viewBox="0 0 24 24" version="1.1" xmlns="http://www.w3.org/2000/svg" xmlns:xlink="http://www.w3.org/1999/xlink">
    <title>EU_x2F_icons_x2F_M_x5F_24x24px_x2F_pause-filled</title>
    <g id="EU_x2F_icons_x2F_M_x5F_24x24px_x2F_pause-filled" stroke="none" stroke-width="1" fill-rule="evenodd">
        <path d="M11.9998743,1.52407143 C6.21701714,1.52407143 1.52367857,6.21739429 1.52367857,12.0002514 C1.52367857,17.7831714 6.21701714,22.4764 11.9998743,22.4764 C17.7827,22.4764 22.4760857,17.7831714 22.4760857,12.0002514 C22.4760857,6.21739429 17.7827,1.52407143 11.9998743,1.52407143 Z M14.0951071,7.80978571 C14.0951071,7.23120143 14.5641471,6.76216143 15.1427314,6.76216143 C15.7213,6.76216143 16.1903714,7.23120143 16.1903714,7.80978571 L16.1903714,16.1906857 C16.1903714,16.7692857 15.7213,17.2383571 15.1427314,17.2383571 C14.5641471,17.2383571 14.0951071,16.7692857 14.0951071,16.1906857 L14.0951071,7.80978571 Z M8.85701714,6.76216143 C8.27843286,6.76216143 7.80939286,7.23120143 7.80939286,7.80977 L7.80939286,16.1906857 C7.80939286,16.7692857 8.27843286,17.2383571 8.85701714,17.2383571 C9.43560143,17.2383571 9.90462571,16.7692857 9.90462571,16.1906857 L9.90462571,7.80978571 C9.90462571,7.23120143 9.43560143,6.76216143 8.85701714,6.76216143 Z" id="Shape"></path>
    </g>
</svg>
