<?xml version="1.0" encoding="utf-8"?>
<!-- Generator: Adobe Illustrator 25.1.0, SVG Export Plug-In . SVG Version: 6.00 Build 0)  -->
<svg version="1.1" id="Livello_1" xmlns="http://www.w3.org/2000/svg" xmlns:xlink="http://www.w3.org/1999/xlink" x="0px" y="0px"
	 viewBox="0 0 24 24" style="enable-background:new 0 0 24 24;" xml:space="preserve">
<g id="EU_x2F_icons_x2F_M_x5F_24x24px_x2F_plus">
	<path id="_xD83C__xDF08_-Icon-colour" d="M19.1,11H13V4.9C13,4.4,12.6,4,12.1,4h-0.2C11.4,4,11,4.4,11,4.9V11H4.9
		C4.4,11,4,11.4,4,11.9v0.2C4,12.6,4.4,13,4.9,13H11v6.1c0,0.5,0.4,0.9,0.9,0.9h0.2c0.5,0,0.9-0.4,0.9-0.9V13h6.1
		c0.5,0,0.9-0.4,0.9-0.9v-0.2C20,11.4,19.6,11,19.1,11"/>
</g>
</svg>
