<?xml version="1.0" encoding="UTF-8"?>
<svg xmlns="http://www.w3.org/2000/svg" xmlns:xlink="http://www.w3.org/1999/xlink" width="24pt" height="24pt" viewBox="0 0 24 24" version="1.1">
<g id="surface1">
<path d="M 5.167969 14.75 L 18.832031 14.75 C 19.109375 14.75 19.332031 14.527344 19.332031 14.25 L 19.332031 6.082031 C 19.332031 5.808594 19.109375 5.582031 18.832031 5.582031 L 5.167969 5.582031 C 4.890625 5.582031 4.667969 5.808594 4.667969 6.082031 L 4.667969 14.25 C 4.667969 14.527344 4.890625 14.75 5.167969 14.75 Z M 21.167969 4.25 L 21.167969 5.082031 C 21.167969 5.359375 20.941406 5.582031 20.667969 5.582031 L 20.25 5.582031 L 20.25 15.167969 C 20.25 15.441406 20.027344 15.667969 19.75 15.667969 L 12.917969 15.667969 L 12.917969 16.582031 L 17.5 22.082031 L 15.667969 22.082031 L 12 17.5 L 8.332031 22.082031 L 6.5 22.082031 L 11.082031 16.582031 L 11.082031 15.667969 L 4.25 15.667969 C 3.972656 15.667969 3.75 15.441406 3.75 15.167969 L 3.75 5.582031 L 3.332031 5.582031 C 3.058594 5.582031 2.832031 5.359375 2.832031 5.082031 L 2.832031 4.25 C 2.832031 3.972656 3.058594 3.75 3.332031 3.75 L 20.667969 3.75 C 20.941406 3.75 21.167969 3.972656 21.167969 4.25 Z M 10.167969 2.375 C 10.167969 2.121094 10.371094 1.917969 10.625 1.917969 L 13.375 1.917969 C 13.628906 1.917969 13.832031 2.121094 13.832031 2.375 C 13.832031 2.628906 13.628906 2.832031 13.375 2.832031 L 10.625 2.832031 C 10.371094 2.832031 10.167969 2.628906 10.167969 2.375 Z M 10.167969 2.375 "/>
</g>
</svg>
