<?xml version="1.0" encoding="utf-8"?>
<!-- Generator: Adobe Illustrator 25.1.0, SVG Export Plug-In . SVG Version: 6.00 Build 0)  -->
<svg version="1.1" id="Livello_1" xmlns="http://www.w3.org/2000/svg" xmlns:xlink="http://www.w3.org/1999/xlink" x="0px" y="0px"
	 viewBox="0 0 24 24" style="enable-background:new 0 0 24 24;" xml:space="preserve">
<g id="EU_x2F_icons_x2F_M_x5F_24x24px_x2F_print">
	<path id="_xD83C__xDF08_-Icon-colour" d="M18,2c0.5,0,0.9,0.4,1,0.9L19,3v8h1c1,0,1.9,0.8,2,1.9l0,0.1v6h-3v1.9c0,0.6-0.4,1-1,1.1
		l-0.1,0H6.1c-0.6,0-1-0.4-1.1-1l0-0.1V19H2v-6c0-1.1,0.8-1.9,1.9-2L4,11h1l0-5l0,0l0,0V3c0-0.5,0.4-0.9,0.9-1L6,2H18z M17,17.1H7
		V20h10V17.1z M19,13c-0.6,0-1,0.4-1,1s0.4,1,1,1s1-0.4,1-1S19.6,13,19,13z M17,4H7v7h10V4z"/>
</g>
</svg>
