<?xml version="1.0" encoding="utf-8"?>
<!-- Generator: Adobe Illustrator 25.1.0, SVG Export Plug-In . SVG Version: 6.00 Build 0)  -->
<svg version="1.1" id="Livello_1" xmlns="http://www.w3.org/2000/svg" xmlns:xlink="http://www.w3.org/1999/xlink" x="0px" y="0px"
	 viewBox="0 0 24 24" style="enable-background:new 0 0 24 24;" xml:space="preserve">
<g id="EU_x2F_icons_x2F_M_x5F_24x24px_x2F_regulation">
	<path id="_xD83C__xDF08_-Icon-colour" d="M21,20c0.5,0,1,0.5,1,1s-0.5,1-1,1H3c-0.5,0-1-0.5-1-1s0.5-1,1-1H21z M6,10
		c0.6,0,1,0.5,1,1.2v5.7C7,17.5,6.6,18,6,18s-1-0.5-1-1.2v-5.7C5,10.5,5.4,10,6,10z M10,10c0.6,0,1,0.5,1,1.2v5.7
		c0,0.6-0.4,1.2-1,1.2s-1-0.5-1-1.2v-5.7C9,10.5,9.4,10,10,10z M14,10c0.6,0,1,0.5,1,1.2v5.7c0,0.6-0.4,1.2-1,1.2s-1-0.5-1-1.2v-5.7
		C13,10.5,13.4,10,14,10z M18,10c0.5,0,1,0.5,1,1.2v5.7c0,0.6-0.5,1.2-1,1.2s-1-0.5-1-1.2v-5.7C17,10.5,17.5,10,18,10z M11,2.2
		c0.6-0.3,1.3-0.3,2,0l0,0l8.3,3.7c0.4,0.2,0.7,0.6,0.7,1C22,7.5,21.4,8,20.7,8l0,0H3.3C2.6,8,2,7.5,2,6.9c0-0.4,0.3-0.8,0.7-1l0,0
		L11,2.2z"/>
</g>
</svg>
