<?xml version="1.0" encoding="utf-8"?>
<!-- Generator: Adobe Illustrator 25.1.0, SVG Export Plug-In . SVG Version: 6.00 Build 0)  -->
<svg version="1.1" id="Livello_1" xmlns="http://www.w3.org/2000/svg" xmlns:xlink="http://www.w3.org/1999/xlink" x="0px" y="0px"
	 viewBox="0 0 24 24" style="enable-background:new 0 0 24 24;" xml:space="preserve">
<g id="EU_x2F_icons_x2F_M_x5F_24x24px_x2F_rounded-arrow-up">
	<g id="_xD83C__xDF08_-Icon-colour" transform="translate(12.001875, 12.523750) scale(1, -1) translate(-12.001875, -12.523750) ">
		<path id="path-7_1_" d="M18.3,16.8l-6.4-6.3l-6.2,6.2c-0.4,0.4-1,0.4-1.4,0l0,0c-0.4-0.4-0.4-1,0-1.4l0,0l7-7c0.4-0.4,1-0.4,1.4,0
			l0,0l7.1,7.1c0.4,0.4,0.4,1,0,1.4l0,0C19.5,17,19.3,17,19,17l0,0C18.8,17,18.5,17,18.3,16.8L18.3,16.8z"/>
	</g>
</g>
</svg>
