<?xml version="1.0" encoding="UTF-8"?>
<svg xmlns="http://www.w3.org/2000/svg" xmlns:xlink="http://www.w3.org/1999/xlink" width="24pt" height="24pt" viewBox="0 0 24 24" version="1.1">
<g id="surface1">
<path style="fill-opacity:1;fill-rule:nonzero;stroke:none;" d="M 4 23 C 5.65625 23 7 21.65625 7 20 C 7 18.34375 5.65625 17 4 17 C 2.34375 17 1 18.34375 1 20 C 1 21.65625 2.34375 23 4 23 Z M 8.332031 15.667969 C 6.363281 13.695312 3.734375 13 1 13 L 1 9 C 4.941406 9 8.660156 10.195312 11.289062 12.820312 C 13.914062 15.449219 15 18.949219 15 23 L 11 23 C 11 20.265625 10.304688 17.636719 8.332031 15.667969 Z M 19 23 C 19 13.257812 10.632812 5 1 5 L 1 1 C 7.019531 1 12.601562 3.40625 16.542969 7.457031 C 20.484375 11.507812 23 16.980469 23 23 Z M 19 23 "/>
</g>
</svg>
