<?xml version="1.0" encoding="utf-8"?>
<!-- Generator: Adobe Illustrator 25.1.0, SVG Export Plug-In . SVG Version: 6.00 Build 0)  -->
<svg version="1.1" id="Livello_1" xmlns="http://www.w3.org/2000/svg" xmlns:xlink="http://www.w3.org/1999/xlink" x="0px" y="0px"
	 viewBox="0 0 24 24" style="enable-background:new 0 0 24 24;" xml:space="preserve">
<g id="EU_x2F_icons_x2F_M_x5F_24x24px_x2F_share">
	<path id="_xD83C__xDF08_-Icon-colour" d="M18,16c-0.7,0-1.3,0.2-1.8,0.6L9,12.4c0-0.1,0-0.2,0-0.4s0-0.3,0-0.4l7.3-4.2
		C16.7,7.8,17.3,8,18,8c1.7,0,3-1.3,3-3s-1.3-3-3-3c-1.7,0-3,1.3-3,3c0,0.3,0,0.5,0.1,0.8l-7,4.1C7.5,9.3,6.8,9,6,9
		c-1.7,0-3,1.3-3,3s1.3,3,3,3c0.8,0,1.5-0.3,2.1-0.8l7,4.1C15,18.5,15,18.7,15,19c0,1.7,1.3,3,3,3c1.7,0,3-1.3,3-3S19.7,16,18,16"/>
</g>
</svg>
