<?xml version="1.0" encoding="utf-8"?>
<!-- Generator: Adobe Illustrator 25.1.0, SVG Export Plug-In . SVG Version: 6.00 Build 0)  -->
<svg version="1.1" id="Livello_1" xmlns="http://www.w3.org/2000/svg" xmlns:xlink="http://www.w3.org/1999/xlink" x="0px" y="0px"
	 viewBox="0 0 24 24" style="enable-background:new 0 0 24 24;" xml:space="preserve">
<g id="EU_x2F_icons_x2F_M_x5F_24x24px_x2F_spreadsheet">
	<path id="_xD83C__xDF08_-Icon-colour" d="M17,9h-7C9.4,9,9,8.6,9,8s0.4-1,1-1h7c0.6,0,1,0.4,1,1S17.6,9,17,9 M17,13h-7
		c-0.6,0-1-0.4-1-1s0.4-1,1-1h7c0.6,0,1,0.4,1,1S17.6,13,17,13 M17,17h-7c-0.6,0-1-0.4-1-1c0-0.6,0.4-1,1-1h7c0.6,0,1,0.4,1,1
		C18,16.6,17.6,17,17,17 M6,9C5.4,9,5,8.6,5,8s0.4-1,1-1s1,0.4,1,1S6.6,9,6,9 M6,13c-0.6,0-1-0.4-1-1s0.4-1,1-1s1,0.4,1,1
		S6.6,13,6,13 M6,17c-0.6,0-1-0.4-1-1c0-0.6,0.4-1,1-1s1,0.4,1,1C7,16.6,6.6,17,6,17 M20,2H4C2.9,2,2,2.9,2,4v16c0,1.1,0.9,2,2,2h16
		c1.1,0,2-0.9,2-2V4C22,2.9,21.1,2,20,2"/>
</g>
</svg>
