<?xml version="1.0" encoding="UTF-8"?>
<svg width="24" height="24" viewBox="0 0 24 24" version="1.1" xmlns="http://www.w3.org/2000/svg" xmlns:xlink="http://www.w3.org/1999/xlink">
  <g id="EU/Icons/General/2XL_24x24px/Icon-star-filled">
    <path fill-rule="evenodd" clip-rule="evenodd" d="M12 2C12.3408 2 12.6529 2.19058 12.8086 2.49369L15.6605 8.04522L21.1945 8.68025C21.532 8.71897 21.8197 8.94258 21.9405 9.26001C22.0613 9.57745 21.9951 9.93577 21.7689 10.1891L17.7905 14.6424L19.1091 20.9035C19.1824 21.2518 19.0458 21.6109 18.7594 21.8223C18.473 22.0337 18.0895 22.0585 17.7783 21.8857L12 18.6784L6.22169 21.8857C5.91047 22.0585 5.52705 22.0337 5.24065 21.8223C4.95425 21.6109 4.81757 21.2518 4.89092 20.9035L6.2095 14.6424L2.23115 10.1891C2.00486 9.93577 1.93866 9.57745 2.05949 9.26001C2.18032 8.94258 2.46803 8.71897 2.80547 8.68025L8.3395 8.04522L11.1914 2.49369C11.3471 2.19058 11.6592 2 12 2Z"/>
  </g>
</svg>
