<?xml version="1.0" encoding="UTF-8" ?>
<svg id="a" xmlns="http://www.w3.org/2000/svg" viewBox="0 0 24 24"><rect
    x="0"
    width="24"
    height="24"
    fill="none"
  /><path
    d="m19.5,19.99H4.5c-1.38,0-2.5-1.12-2.5-2.5V6.5c0-1.38,1.12-2.5,2.5-2.5h15c1.38,0,2.5,1.12,2.5,2.5v10.99c0,1.38-1.12,2.5-2.5,2.5ZM4.5,6c-.28,0-.5.22-.5.5v10.99c0,.28.22.5.5.5h15c.28,0,.5-.22.5-.5V6.5c0-.28-.22-.5-.5-.5H4.5Z"
  /><path
    d="m10.3,15.89l4.67-3.5c.27-.2.27-.6,0-.8l-4.67-3.5c-.33-.25-.8-.01-.8.4v6.99c0,.41.47.65.8.4Z"
  /></svg>
