<?xml version="1.0" encoding="utf-8"?>
<!-- Generator: Adobe Illustrator 25.1.0, SVG Export Plug-In . SVG Version: 6.00 Build 0)  -->
<svg version="1.1" id="Livello_1" xmlns="http://www.w3.org/2000/svg" xmlns:xlink="http://www.w3.org/1999/xlink" x="0px" y="0px"
	 viewBox="0 0 24 24" style="enable-background:new 0 0 24 24;" xml:space="preserve">
<g id="EU_x2F_icons_x2F_M_x5F_24x24px_x2F_warning">
	<path id="_xD83C__xDF08_-Icon-colour" d="M13,13.3c0,0.5-0.4,1-1,1s-1-0.5-1-1v-2c0-0.6,0.4-1,1-1s1,0.4,1,1V13.3z M12,17.3
		c-0.6,0-1-0.4-1-1c0-0.6,0.4-1,1-1s1,0.4,1,1C13,16.9,12.6,17.3,12,17.3L12,17.3z M21.7,18.8l-3.2-5.6c-0.6-1-1.6-2.7-2.2-3.8
		l-3.2-5.6c-0.6-1-1.6-1-2.2,0L7.7,9.4c-0.6,1-1.6,2.7-2.2,3.8l-3.2,5.6c-0.6,1-0.1,1.9,1.1,1.9h6.5h4.3h6.5
		C21.9,20.7,22.3,19.8,21.7,18.8L21.7,18.8z"/>
</g>
</svg>
