<?xml version="1.0" encoding="UTF-8"?>
<svg width="300px" height="186px" viewBox="0 0 300 186" version="1.1" xmlns="http://www.w3.org/2000/svg" xmlns:xlink="http://www.w3.org/1999/xlink">
    <!-- Generator: Sketch 55.1 (78136) - https://sketchapp.com -->
    <title>gallery</title>
    <desc>Created with Sketch.</desc>
    <g id="thumbnails---final" stroke="none" stroke-width="1" fill="none" fill-rule="evenodd">
        <g id="thumbnails---final_symbols" transform="translate(-1060.000000, -3020.000000)">
            <g id="Group-2" transform="translate(20.000000, 20.000000)">
                <g id="Group-21-Copy" transform="translate(0.000000, 2920.000000)">
                    <g id="ec_comp_social_media_share" transform="translate(960.000000, 0.000000)">
                        <g id="gallery_v2" transform="translate(80.000000, 80.000000)">
                            <g id="Group">
                                <g id="Group-3-Copy">
                                    <rect id="Rectangle-Copy-2" fill="#BED0E4" x="0" y="0" width="87.3015873" height="91.0212766"></rect>
                                    <path d="M71.547619,33.1731915 L71.547619,64.2874772 C71.547619,65.7279528 71.0463164,66.9523587 70.0437128,67.9606915 C69.0411092,68.9690243 67.8236602,69.4731915 66.391369,69.4731915 L21.703869,69.4731915 C20.2715779,69.4731915 19.0541289,68.9690243 18.0515253,67.9606915 C17.0489217,66.9523587 16.547619,65.7279528 16.547619,64.2874772 L16.547619,33.1731915 C16.547619,31.7327158 17.0489217,30.50831 18.0515253,29.4999772 C19.0541289,28.4916444 20.2715779,27.9874772 21.703869,27.9874772 L31.156994,27.9874772 L32.4460565,24.4222986 C32.875744,23.4139658 33.5202753,22.603698 34.3796503,21.9914951 C35.2390253,21.3792921 36.2058222,21.0731915 37.2800409,21.0731915 L50.8151972,21.0731915 C51.8894159,21.0731915 52.8562128,21.3792921 53.7155878,21.9914951 C54.5749628,22.603698 55.219494,23.4139658 55.6491815,24.4222986 L56.938244,27.9874772 L66.391369,27.9874772 C67.8236602,27.9874772 69.0411092,28.4916444 70.0437128,29.4999772 C71.0463164,30.50831 71.547619,31.7327158 71.547619,33.1731915 Z M56.422619,48.7303343 C56.422619,46.3218582 55.8573418,44.1140878 54.7267857,42.1070248 C53.5962296,40.0999619 52.0593807,38.5125571 50.1162388,37.3448105 C48.173097,36.1770639 46.0356399,35.5931915 43.703869,35.5931915 C41.3720982,35.5931915 39.2346411,36.1770639 37.2914993,37.3448105 C35.3483574,38.5125571 33.8115085,40.0999619 32.6809524,42.1070248 C31.5503963,44.1140878 30.985119,46.3218582 30.985119,48.7303343 C30.985119,51.1388105 31.5503963,53.3465809 32.6809524,55.3536439 C33.8115085,57.3607068 35.3483574,58.9481116 37.2914993,60.1158582 C39.2346411,61.2836047 41.3720982,61.8674772 43.703869,61.8674772 C46.0356399,61.8674772 48.173097,61.2836047 50.1162388,60.1158582 C52.0593807,58.9481116 53.5962296,57.3607068 54.7267857,55.3536439 C55.8573418,53.3465809 56.422619,51.1388105 56.422619,48.7303343 Z M53.672619,48.7303343 C53.672619,51.3703343 52.7247018,53.6436682 50.828869,55.5503343 C48.9330363,57.4570005 46.672619,58.4103343 44.047619,58.4103343 C41.422619,58.4103343 39.1622018,57.4570005 37.266369,55.5503343 C35.3705363,53.6436682 34.422619,51.3703343 34.422619,48.7303343 C34.422619,46.0903343 35.3705363,43.8170005 37.266369,41.9103343 C39.1622018,40.0036682 41.422619,39.0503343 44.047619,39.0503343 C46.672619,39.0503343 48.9330363,40.0036682 50.828869,41.9103343 C52.7247018,43.8170005 53.672619,46.0903343 53.672619,48.7303343 Z" id="" fill="#C6D9EE" fill-rule="nonzero"></path>
                                </g>
                                <g id="Group-3-Copy-4" transform="translate(0.000000, 94.978723)">
                                    <rect id="Rectangle-Copy-2" fill="#BED0E4" x="0" y="0" width="148.412698" height="91.0212766"></rect>
                                    <path d="M101.706349,33.1731915 L101.706349,64.2874772 C101.706349,65.7279528 101.205047,66.9523587 100.202443,67.9606915 C99.1998393,68.9690243 97.9823903,69.4731915 96.5500992,69.4731915 L51.8625992,69.4731915 C50.4303081,69.4731915 49.2128591,68.9690243 48.2102555,67.9606915 C47.2076518,66.9523587 46.7063492,65.7279528 46.7063492,64.2874772 L46.7063492,33.1731915 C46.7063492,31.7327158 47.2076518,30.50831 48.2102555,29.4999772 C49.2128591,28.4916444 50.4303081,27.9874772 51.8625992,27.9874772 L61.3157242,27.9874772 L62.6047867,24.4222986 C63.0344742,23.4139658 63.6790055,22.603698 64.5383805,21.9914951 C65.3977555,21.3792921 66.3645523,21.0731915 67.4387711,21.0731915 L80.9739273,21.0731915 C82.0481461,21.0731915 83.014943,21.3792921 83.874318,21.9914951 C84.733693,22.603698 85.3782242,23.4139658 85.8079117,24.4222986 L87.0969742,27.9874772 L96.5500992,27.9874772 C97.9823903,27.9874772 99.1998393,28.4916444 100.202443,29.4999772 C101.205047,30.50831 101.706349,31.7327158 101.706349,33.1731915 Z M86.5813492,48.7303343 C86.5813492,46.3218582 86.016072,44.1140878 84.8855159,42.1070248 C83.7549598,40.0999619 82.2181108,38.5125571 80.274969,37.3448105 C78.3318272,36.1770639 76.19437,35.5931915 73.8625992,35.5931915 C71.5308284,35.5931915 69.3933712,36.1770639 67.4502294,37.3448105 C65.5070876,38.5125571 63.9702386,40.0999619 62.8396825,42.1070248 C61.7091264,44.1140878 61.1438492,46.3218582 61.1438492,48.7303343 C61.1438492,51.1388105 61.7091264,53.3465809 62.8396825,55.3536439 C63.9702386,57.3607068 65.5070876,58.9481116 67.4502294,60.1158582 C69.3933712,61.2836047 71.5308284,61.8674772 73.8625992,61.8674772 C76.19437,61.8674772 78.3318272,61.2836047 80.274969,60.1158582 C82.2181108,58.9481116 83.7549598,57.3607068 84.8855159,55.3536439 C86.016072,53.3465809 86.5813492,51.1388105 86.5813492,48.7303343 Z M83.8313492,48.7303343 C83.8313492,51.3703343 82.883432,53.6436682 80.9875992,55.5503343 C79.0917664,57.4570005 76.8313492,58.4103343 74.2063492,58.4103343 C71.5813492,58.4103343 69.320932,57.4570005 67.4250992,55.5503343 C65.5292664,53.6436682 64.5813492,51.3703343 64.5813492,48.7303343 C64.5813492,46.0903343 65.5292664,43.8170005 67.4250992,41.9103343 C69.320932,40.0036682 71.5813492,39.0503343 74.2063492,39.0503343 C76.8313492,39.0503343 79.0917664,40.0036682 80.9875992,41.9103343 C82.883432,43.8170005 83.8313492,46.0903343 83.8313492,48.7303343 Z" id="" fill="#C6D9EE" fill-rule="nonzero"></path>
                                </g>
                                <g id="Group-3-Copy-5" transform="translate(152.380952, 94.978723)">
                                    <rect id="Rectangle-Copy-2" fill="#BED0E4" x="0" y="0" width="147.619048" height="91.0212766"></rect>
                                    <path d="M101.706349,33.1731915 L101.706349,64.2874772 C101.706349,65.7279528 101.205047,66.9523587 100.202443,67.9606915 C99.1998393,68.9690243 97.9823903,69.4731915 96.5500992,69.4731915 L51.8625992,69.4731915 C50.4303081,69.4731915 49.2128591,68.9690243 48.2102555,67.9606915 C47.2076518,66.9523587 46.7063492,65.7279528 46.7063492,64.2874772 L46.7063492,33.1731915 C46.7063492,31.7327158 47.2076518,30.50831 48.2102555,29.4999772 C49.2128591,28.4916444 50.4303081,27.9874772 51.8625992,27.9874772 L61.3157242,27.9874772 L62.6047867,24.4222986 C63.0344742,23.4139658 63.6790055,22.603698 64.5383805,21.9914951 C65.3977555,21.3792921 66.3645523,21.0731915 67.4387711,21.0731915 L80.9739273,21.0731915 C82.0481461,21.0731915 83.014943,21.3792921 83.874318,21.9914951 C84.733693,22.603698 85.3782242,23.4139658 85.8079117,24.4222986 L87.0969742,27.9874772 L96.5500992,27.9874772 C97.9823903,27.9874772 99.1998393,28.4916444 100.202443,29.4999772 C101.205047,30.50831 101.706349,31.7327158 101.706349,33.1731915 Z M86.5813492,48.7303343 C86.5813492,46.3218582 86.016072,44.1140878 84.8855159,42.1070248 C83.7549598,40.0999619 82.2181108,38.5125571 80.274969,37.3448105 C78.3318272,36.1770639 76.19437,35.5931915 73.8625992,35.5931915 C71.5308284,35.5931915 69.3933712,36.1770639 67.4502294,37.3448105 C65.5070876,38.5125571 63.9702386,40.0999619 62.8396825,42.1070248 C61.7091264,44.1140878 61.1438492,46.3218582 61.1438492,48.7303343 C61.1438492,51.1388105 61.7091264,53.3465809 62.8396825,55.3536439 C63.9702386,57.3607068 65.5070876,58.9481116 67.4502294,60.1158582 C69.3933712,61.2836047 71.5308284,61.8674772 73.8625992,61.8674772 C76.19437,61.8674772 78.3318272,61.2836047 80.274969,60.1158582 C82.2181108,58.9481116 83.7549598,57.3607068 84.8855159,55.3536439 C86.016072,53.3465809 86.5813492,51.1388105 86.5813492,48.7303343 Z M83.8313492,48.7303343 C83.8313492,51.3703343 82.883432,53.6436682 80.9875992,55.5503343 C79.0917664,57.4570005 76.8313492,58.4103343 74.2063492,58.4103343 C71.5813492,58.4103343 69.320932,57.4570005 67.4250992,55.5503343 C65.5292664,53.6436682 64.5813492,51.3703343 64.5813492,48.7303343 C64.5813492,46.0903343 65.5292664,43.8170005 67.4250992,41.9103343 C69.320932,40.0036682 71.5813492,39.0503343 74.2063492,39.0503343 C76.8313492,39.0503343 79.0917664,40.0036682 80.9875992,41.9103343 C82.883432,43.8170005 83.8313492,46.0903343 83.8313492,48.7303343 Z" id="" fill="#C6D9EE" fill-rule="nonzero"></path>
                                </g>
                                <g id="Group-3-Copy-2" transform="translate(91.269841, 0.000000)">
                                    <rect id="Rectangle-Copy-2" fill="#BED0E4" x="0" y="0" width="208.730159" height="91.0212766"></rect>
                                    <path d="M131.865079,33.1731915 L131.865079,64.2874772 C131.865079,65.7279528 131.363777,66.9523587 130.361173,67.9606915 C129.358569,68.9690243 128.14112,69.4731915 126.708829,69.4731915 L82.0213294,69.4731915 C80.5890382,69.4731915 79.3715892,68.9690243 78.3689856,67.9606915 C77.366382,66.9523587 76.8650794,65.7279528 76.8650794,64.2874772 L76.8650794,33.1731915 C76.8650794,31.7327158 77.366382,30.50831 78.3689856,29.4999772 C79.3715892,28.4916444 80.5890382,27.9874772 82.0213294,27.9874772 L91.4744544,27.9874772 L92.7635169,24.4222986 C93.1932044,23.4139658 93.8377356,22.603698 94.6971106,21.9914951 C95.5564856,21.3792921 96.5232825,21.0731915 97.5975012,21.0731915 L111.132657,21.0731915 C112.206876,21.0731915 113.173673,21.3792921 114.033048,21.9914951 C114.892423,22.603698 115.536954,23.4139658 115.966642,24.4222986 L117.255704,27.9874772 L126.708829,27.9874772 C128.14112,27.9874772 129.358569,28.4916444 130.361173,29.4999772 C131.363777,30.50831 131.865079,31.7327158 131.865079,33.1731915 Z M116.740079,48.7303343 C116.740079,46.3218582 116.174802,44.1140878 115.044246,42.1070248 C113.91369,40.0999619 112.376841,38.5125571 110.433699,37.3448105 C108.490557,36.1770639 106.3531,35.5931915 104.021329,35.5931915 C101.689559,35.5931915 99.5521014,36.1770639 97.6089596,37.3448105 C95.6658178,38.5125571 94.1289688,40.0999619 92.9984127,42.1070248 C91.8678566,44.1140878 91.3025794,46.3218582 91.3025794,48.7303343 C91.3025794,51.1388105 91.8678566,53.3465809 92.9984127,55.3536439 C94.1289688,57.3607068 95.6658178,58.9481116 97.6089596,60.1158582 C99.5521014,61.2836047 101.689559,61.8674772 104.021329,61.8674772 C106.3531,61.8674772 108.490557,61.2836047 110.433699,60.1158582 C112.376841,58.9481116 113.91369,57.3607068 115.044246,55.3536439 C116.174802,53.3465809 116.740079,51.1388105 116.740079,48.7303343 Z M113.990079,48.7303343 C113.990079,51.3703343 113.042162,53.6436682 111.146329,55.5503343 C109.250497,57.4570005 106.990079,58.4103343 104.365079,58.4103343 C101.740079,58.4103343 99.4796621,57.4570005 97.5838294,55.5503343 C95.6879966,53.6436682 94.7400794,51.3703343 94.7400794,48.7303343 C94.7400794,46.0903343 95.6879966,43.8170005 97.5838294,41.9103343 C99.4796621,40.0036682 101.740079,39.0503343 104.365079,39.0503343 C106.990079,39.0503343 109.250497,40.0036682 111.146329,41.9103343 C113.042162,43.8170005 113.990079,46.0903343 113.990079,48.7303343 Z" id="" fill="#C6D9EE" fill-rule="nonzero"></path>
                                </g>
                            </g>
                        </g>
                    </g>
                </g>
            </g>
        </g>
    </g>
</svg>