<svg width="24" height="24" xmlns="http://www.w3.org/2000/svg" xmlns:xlink="http://www.w3.org/1999/xlink"><path d="m18.45 20.66c-.198-1.809-1.758-3.217-3.653-3.217h-4.524c-2.028 0-3.673 1.615-3.673 3.606v.309c-3.229-1.867-5.4-5.36-5.4-9.358 0-5.962 4.828-10.8 10.789-10.8 5.973 0 10.811 4.838 10.811 10.8 0 3.544-1.709 6.69-4.35 8.66zm-6.423 2.14c-.013 0-.025 0-.038 0-.012 0-.025 0-.038 0zm-.027-15.12c-2.386 0-4.32 1.934-4.32 4.32 0 2.387 1.934 4.32 4.32 4.32s4.32-1.933 4.32-4.32c0-2.386-1.934-4.32-4.32-4.32z"/></svg>