<svg width="24" height="24" xmlns="http://www.w3.org/2000/svg" xmlns:xlink="http://www.w3.org/1999/xlink"><defs><path d="M19.875 10.167a1.31 1.31 0 1 1 0-2.62 1.31 1.31 0 0 1 0 2.62zm1.313-3.929a1.31 1.31 0 0 1 1.312 1.31v7.857a1.31 1.31 0 0 1-1.312 1.31h-2.625v5.238h-1.235v-.002a1.338 1.338 0 0 1-.078.002H6.75a1.35 1.35 0 0 1-.078-.002v.002H5.438v-5.238H2.813a1.31 1.31 0 0 1-1.313-1.31V7.548c0-.723.588-1.31 1.313-1.31h18.375zM6.75 12.786v7.858h10.5v-7.858H6.75zm1.313 2.62v-1.31h7.874v1.31H8.063zM6.75 2.31v2.619H5.438V1h1.234v.003L6.75 1h10.5l.078.003V1h1.234v3.929H17.25v-2.62H6.75zm1.41 15.81v-1.277h6.659v1.277h-6.66z" id="a"/></defs><use xlink:href="#a"/></svg>