<svg aria-hidden="true" style="position: absolute; width: 0; height: 0; overflow: hidden;" version="1.1" xmlns="http://www.w3.org/2000/svg" xmlns:xlink="http://www.w3.org/1999/xlink">
<defs>
<symbol id="ecl-icon--faq" viewBox="0 0 32 32">
<title>faq</title>
<path d="M18.564 24.166h-5.451c0-0.802 0-1.282 0-1.443 0-1.763 0.289-3.206 0.866-4.361s1.763-2.437 3.495-3.848c1.763-1.411 2.822-2.373 3.142-2.789 0.545-0.705 0.802-1.475 0.802-2.309 0-1.186-0.481-2.18-1.411-3.014s-2.18-1.25-3.751-1.25c-1.539 0-2.822 0.449-3.848 1.315s-1.731 2.18-2.116 3.976l-5.515-0.705c0.16-2.533 1.25-4.713 3.27-6.477 2.020-1.796 4.649-2.693 7.952-2.693 3.431 0 6.188 0.898 8.208 2.725 2.052 1.796 3.078 3.88 3.078 6.284 0 1.315-0.385 2.565-1.122 3.751-0.77 1.186-2.373 2.789-4.809 4.841-1.282 1.058-2.052 1.892-2.373 2.533-0.289 0.641-0.449 1.796-0.417 3.463zM13.114 32.246v-6.028h6.028v6.028h-6.028z"></path>
</symbol>
<symbol id="ecl-icon--book" viewBox="0 0 26 32">
<title>book</title>
<path d="M26.131 26.955v-26.58h-22.893c-1.828 0-3.238 1.475-3.238 3.206v25.65c0 1.828 1.475 3.206 3.238 3.206h18.885v-26.58h-18.212c-1.026 0-1.828-0.866-1.828-1.828-0.064-1.058 0.802-1.924 1.828-1.924h20.841v24.849h1.379z"></path>
</symbol>
<symbol id="ecl-icon--data" viewBox="0 0 28 32">
<title>data</title>
<path d="M14.075 0.376c-7.791 0-14.075 3.078-14.075 7.022v18.115c0 3.848 6.284 7.022 14.075 7.022s14.043-3.11 14.043-6.958v-18.18c0-3.944-6.38-7.022-14.043-7.022zM25.137 25.513c0 1.218-3.751 4.008-11.062 4.008-7.214 0-11.062-2.789-11.062-4.008v-4.713c2.533 1.603 6.541 2.725 11.062 2.725 4.393 0 8.432-1.026 11.062-2.725v4.713zM25.137 16.503c0 1.218-3.751 4.040-11.062 4.040-7.214 0-11.062-2.822-11.062-4.040v-4.681c2.533 1.571 6.541 2.693 11.062 2.693 4.393 0 8.432-1.026 11.062-2.693v4.681zM14.075 11.437c-7.214 0-11.062-2.822-11.062-4.040s3.751-4.008 11.062-4.008c7.214 0 11.062 2.789 11.062 4.008s-3.848 4.040-11.062 4.040z"></path>
</symbol>
<symbol id="ecl-icon--file" viewBox="0 0 23 32">
<title>file</title>
<path d="M18.244 0.376h-12.504l-5.739 5.579v24.271c0.147 1.235 1.177 2.188 2.434 2.212l15.873 0c1.208-0.13 2.161-1.072 2.307-2.264l0.001-27.522c-0.1-1.248-1.114-2.23-2.368-2.276zM18.308 9.61v20.552h-16.031v-21.77h3.463c1.222-0.033 2.208-0.997 2.276-2.206l0-3.533h10.292v6.958z"></path>
</symbol>
<symbol id="ecl-icon--copy" viewBox="0 0 24 32">
<title>copy</title>
<path d="M19.718 4.64v-4.264h-14.492l-5.226 5.066v22.732h4.681v4.264h19.718v-27.798h-4.681zM2.437 25.769v-18.564h4.553v-4.361h10.26v1.796h-7.342l-5.226 5.034v16.095h-2.244zM21.931 13.361v16.64h-14.845v-18.564h4.585v-4.361h10.26v6.284z"></path>
</symbol>
<symbol id="ecl-icon--spreadsheet" viewBox="0 0 33 32">
<title>spreadsheet</title>
<path d="M0 4.383v24.047c0 2.212 1.796 4.008 4.008 4.008h25.394c2.212 0 4.008-1.796 4.008-4.008v-24.047c0-2.212-1.796-4.008-4.008-4.008h-25.394c-2.212 0-4.008 1.796-4.008 4.008zM2.661 8.391h6.701v5.354h-6.701v-5.354zM10.677 8.391h20.039v5.354h-20.039v-5.354zM30.716 15.060v4.008h-20.039v-4.008h20.039zM30.716 20.415v4.008h-20.039v-4.008h20.039zM30.716 25.769v1.315c0 2.244-0.449 2.693-2.661 2.693h-17.378v-4.008h20.039zM9.362 29.777h-4.008c-2.244 0-2.693-0.449-2.693-2.693v-1.315h6.701v4.008zM2.661 24.422v-4.008h6.701v4.008h-6.701zM2.661 19.068v-4.008h6.701v4.008h-6.701z"></path>
</symbol>
<symbol id="ecl-icon--video" viewBox="0 0 36 32">
<title>video</title>
<path d="M36.327 3.518c-0.257-1.699-1.956-3.142-3.527-3.142h-28.92c-1.924 0-3.623 1.571-3.88 3.142v25.394c0 1.699 1.828 3.527 3.88 3.527h28.92c1.699 0 3.623-1.828 3.623-3.655v-24.752l-0.096-0.513zM12.504 23.204v-13.595l11.414 6.797-11.414 6.797z"></path>
</symbol>
<symbol id="ecl-icon--audio" viewBox="0 0 29 32">
<title>audio</title>
<path d="M19.334 9.417c-0.673-0.673-1.539-0.673-2.244 0-0.673 0.673-0.673 1.539 0 2.212 2.725 2.725 2.725 7.118 0 9.715-0.673 0.705-0.673 1.571 0 2.244 0.289 0.289 0.802 0.385 1.186 0.385 0.289 0 0.77-0.096 1.058-0.385 3.88-3.88 3.88-10.292 0-14.172zM22.732 6.5c-0.673 0.673-0.673 1.539 0 2.244 4.393 4.264 4.393 11.35 0 15.711-0.673 0.705-0.673 1.571 0 2.244 0.289 0.289 0.77 0.385 1.186 0.385s0.866-0.192 1.058-0.385c2.725-2.725 4.264-6.316 4.264-10.1s-1.539-7.374-4.264-10.1c-0.673-0.673-1.571-0.673-2.244 0zM14.877 0.376l-9.619 9.715h-5.258v12.729h5.258l9.619 9.619"></path>
</symbol>
<symbol id="ecl-icon--brochure" viewBox="0 0 32 32">
<title>brochure</title>
<path d="M21.931 4.255l-10.164-3.463-11.767 4.649v26.997l11.767-4.328 10.164 3.559 10.452-4.104v-27.189l-10.452 3.88zM10.036 25.641l-7.022 2.469v-20.841l7.022-2.789v21.161zM20.392 27.917l-6.893-2.276v-21.258l6.893 2.469v21.065zM29.466 25.641l-5.835 2.276v-20.969l5.835-2.244v20.937z"></path>
</symbol>
<symbol id="ecl-icon--euro" viewBox="0 0 32 32">
<title>euro</title>
<path d="M16.063 4.896c-8.336 0-15.069 5.034-15.069 11.19 0 2.757 2.084 5.899 4.296 7.855l-2.148 6.733 6.541-4.425c1.924 0.673 4.072 1.058 6.348 1.058 8.336 0 15.069-5.002 15.069-11.19s-6.733-11.222-15.037-11.222v0zM19.27 14.034l-0.289 1.411h-4.97c0 0.16 0 0.321 0 0.545s0 0.449 0 0.673h4.713l-0.321 1.443h-4.2c0.16 0.641 0.385 1.154 0.705 1.539 0.609 0.705 1.411 1.090 2.405 1.090 1.186 0 2.116-0.385 2.822-1.090v2.822c-0.802 0.385-1.731 0.609-2.789 0.609-1.796 0-3.27-0.609-4.425-1.86-0.802-0.834-1.315-1.86-1.571-3.11h-1.347l0.289-1.443h0.898c0-0.16 0-0.289 0-0.481 0-0.289 0-0.513 0.032-0.737h-1.218l0.289-1.443h1.090c0.257-1.218 0.77-2.244 1.539-3.046 1.186-1.25 2.693-1.892 4.585-1.892 1.058 0 1.956 0.192 2.693 0.577l-0.545 2.565c-0.513-0.545-1.282-0.802-2.276-0.802s-1.828 0.353-2.437 1.090c-0.353 0.385-0.609 0.898-0.77 1.507h5.098v0.032z"></path>
</symbol>
<symbol id="ecl-icon--warning" viewBox="0 0 32 32">
<title>warning</title>
<path d="M16.063 1.241l-16.063 30.331h32.063l-15.999-30.331zM16.063 28.43c-1.026 0-1.86-0.866-1.86-1.892s0.834-1.892 1.86-1.892c1.058 0 1.892 0.834 1.892 1.892s-0.834 1.892-1.892 1.892v0zM16.063 22.755c-1.026 0-1.86-0.866-1.86-1.892v-5.675c0-1.058 0.834-1.892 1.86-1.892s1.892 0.834 1.892 1.892v5.675c0 1.026-0.834 1.892-1.892 1.892v0z"></path>
</symbol>
<symbol id="ecl-icon--spinner" viewBox="0 0 32 32">
<title>spinner</title>
<path d="M32.063 12.399h-12.023l4.489-4.489c-2.276-2.276-5.29-3.527-8.497-3.527s-6.22 1.25-8.497 3.527c-2.276 2.276-3.527 5.29-3.527 8.497s1.25 6.22 3.527 8.497c2.276 2.276 5.29 3.527 8.497 3.527s6.22-1.25 8.497-3.527c0.192-0.192 0.385-0.385 0.545-0.577l3.014 2.629c-2.918 3.367-7.246 5.483-12.056 5.483-8.849 0-16.031-7.182-16.031-16.031s7.182-16.031 16.031-16.031c4.425 0 8.432 1.796 11.35 4.681l4.681-4.681v12.023z"></path>
</symbol>
<symbol id="ecl-icon--download" viewBox="0 0 32 32">
<title>download</title>
<path d="M28.087 14.483v13.979h-23.951v-13.979h-4.008v17.955h31.934v-17.955M24.079 14.483h-5.996v-13.979h-3.976v13.979h-5.996l7.984 7.984"></path>
</symbol>
<symbol id="ecl-icon--edit" viewBox="0 0 23 32">
<title>edit</title>
<path d="M18.308 19.773v10.388h-16.031v-21.77h3.463c1.222-0.033 2.208-0.997 2.276-2.206l0-3.533h10.292v6.958l0.16-0.16c0.065-0.079 0.163-0.129 0.273-0.129s0.207 0.050 0.272 0.128l1.604 1.604v-8.4c-0.1-1.248-1.114-2.23-2.368-2.276l-12.509-0-5.739 5.579v24.271c0.147 1.235 1.177 2.188 2.434 2.212l15.873 0c1.208-0.13 2.161-1.072 2.307-2.264l0.001-12.709zM17.859 9.385l0.609-0.609c0.065-0.079 0.163-0.129 0.273-0.129s0.207 0.050 0.272 0.128l3.816 3.752c0.068 0.064 0.111 0.156 0.111 0.257s-0.042 0.192-0.11 0.256l-9.843 9.843c-0.025 0.057-0.082 0.097-0.147 0.097-0.005 0-0.009-0-0.014-0.001l-5.642 1.828c-0.034 0.012-0.074 0.020-0.116 0.020-0.195 0-0.353-0.158-0.353-0.353 0-0.041 0.007-0.081 0.020-0.118l1.827-5.673c0-0.064 0.064-0.064 0.064-0.128l6.797-6.797M9.33 22.755l1.956-0.705c0.148-0.056 0.251-0.196 0.251-0.361 0-0.095-0.034-0.182-0.091-0.249l-1.378-1.378c-0.067-0.057-0.153-0.091-0.248-0.091-0.165 0-0.305 0.103-0.36 0.249l-0.61 2.055c-0.029 0.050-0.046 0.11-0.046 0.174 0 0.195 0.158 0.353 0.353 0.353 0.064 0 0.124-0.017 0.176-0.047z"></path>
</symbol>
<symbol id="ecl-icon--share" viewBox="0 0 26 32">
<title>share</title>
<path d="M20.841 21.216q1.988 0 3.399 1.379t1.411 3.431q0 1.988-1.411 3.399t-3.399 1.411-3.399-1.411-1.411-3.399q0-0.192 0.032-0.449t0.032-0.385l-8.336-5.002q-1.347 1.026-2.95 1.026-1.988 0-3.399-1.411t-1.411-3.399 1.411-3.399 3.399-1.411q1.731 0 2.95 0.962l8.336-5.002q0-0.128-0.032-0.385t-0.032-0.385q0-1.988 1.411-3.399t3.399-1.411 3.399 1.379 1.411 3.431q0 1.988-1.411 3.399t-3.399 1.411q-1.667 0-2.886-1.026l-8.4 5.002q0.064 0.257 0.064 0.834 0 0.513-0.064 0.77l8.4 5.002q1.154-0.962 2.886-0.962z"></path>
</symbol>
<symbol id="ecl-icon--facebook" viewBox="0 0 32 32">
<title>facebook</title>
<path d="M8.144 10.924h3.431v-3.206c0-1.507 0-3.559 1.122-4.906 0.962-1.507 2.469-2.437 5.13-2.437 4.2 0 6.092 0.577 6.092 0.577l-0.962 4.906c0 0-1.315-0.385-2.661-0.385s-2.469 0.545-2.469 1.699v3.751h5.322l-0.353 4.906h-4.97v16.608h-6.252v-16.608h-3.431v-4.906z"></path>
</symbol>
<symbol id="ecl-icon--digital" viewBox="0 0 32 32">
<title>digital</title>
<path d="M14.941 1.626h2.18c8.016 1.154 12.601 5.739 13.755 13.755v2.18c-1.154 8.016-5.739 12.601-13.755 13.755h-2.18c-8.016-1.154-12.601-5.739-13.755-13.755v-2.18c1.154-8.016 5.739-12.601 13.755-13.755v0zM10.965 9.032h4.136c-0.032-1.763 0.064-3.655-0.064-5.322-1.763 1.379-3.078 3.174-4.072 5.322v0zM17.602 4.159c-0.192-0.128-0.417-0.417-0.641-0.321v5.194c1.347-0.032 2.854 0.096 4.104-0.032-0.834-1.796-2.052-3.623-3.463-4.841v0zM5.419 9.032h3.591c0.577-1.924 1.828-3.495 2.789-4.873-2.725 1.058-4.906 2.629-6.38 4.873v0zM23.053 9.032h3.591c-1.475-2.212-3.751-3.976-6.445-4.809 1.218 1.347 2.18 2.918 2.854 4.809v0zM4.361 10.892c-0.737 1.25-1.122 2.822-1.282 4.649h4.585c0.096-1.699 0.321-3.238 0.705-4.649-1.347 0-2.661 0-4.008 0v0zM9.523 15.541h5.579v-4.649h-4.745c-0.513 1.315-0.673 2.982-0.834 4.649v0zM17.025 10.892c-0.16 1.443-0.032 3.11-0.064 4.649 1.828-0.032 3.815 0.064 5.579-0.064-0.16-1.635-0.385-3.206-0.77-4.585-1.571 0-3.174 0-4.745 0v0zM24.368 15.541h4.585c-0.096-1.828-0.577-3.335-1.218-4.649h-4.040c0.385 1.411 0.609 2.95 0.673 4.649v0zM3.078 17.401c0.128 1.828 0.577 3.334 1.218 4.649h4.072c-0.385-1.411-0.609-2.95-0.705-4.649h-4.585zM9.587 17.401c-0.032 1.571 0.353 3.27 0.705 4.649h4.809v-4.649h-5.515zM17.025 17.401c-0.16 1.443-0.032 3.11-0.064 4.649h4.809c0.417-1.411 0.641-2.982 0.77-4.649h-5.515zM24.432 17.401c-0.224 1.571-0.321 3.27-0.737 4.649h4.040c0.641-1.315 1.122-2.822 1.218-4.649h-4.521zM11.863 28.719c-1.218-1.347-2.212-2.918-2.854-4.809h-3.591c1.475 2.212 3.751 3.976 6.445 4.809v0zM14.46 28.783c0.16 0.128 0.385 0.417 0.641 0.321v-5.194c-1.347 0.032-2.854-0.096-4.136 0.032 0.866 1.796 2.084 3.623 3.495 4.841v0zM16.961 29.168c1.763-1.122 3.142-3.174 4.104-5.258h-4.104v5.258zM20.264 28.783c2.725-1.058 4.873-2.629 6.38-4.873h-3.591c-0.609 1.892-1.828 3.495-2.789 4.873v0z"></path>
</symbol>
<symbol id="ecl-icon--googleplus" viewBox="0 0 32 32">
<title>googleplus</title>
<path d="M10.741 30.931c-3.783 0-6.637-2.437-6.637-5.29s3.399-5.29 7.182-5.098c0.962 0 1.731 0.192 2.469 0.385 2.084 1.507 3.591 2.276 3.976 3.976 0 0.353 0.192 0.737 0.192 0.93 0 2.822-1.892 5.098-7.182 5.098v0zM11.671 13.938c-2.469-0.16-4.906-3.014-5.483-6.22-0.385-3.399 1.315-5.835 3.783-5.835 2.661 0 4.938 2.822 5.483 6.22 0.577 3.206-1.122 5.835-3.783 5.835v0zM16.993 18.844c-0.77-0.545-2.661-2.244-2.661-3.014 0-1.122 0.385-1.507 1.892-2.822 1.699-1.315 2.854-3.206 2.854-5.29 0-2.437-1.154-4.906-3.238-5.643h3.238l2.244-1.699h-10.036c-4.328 0-8.689 3.399-8.689 7.342s3.014 7.182 7.567 7.182h0.93c-0.16 0.577-0.353 1.122-0.353 1.892 0 1.122 0.545 2.052 1.315 2.822h-1.699c-5.483-0.192-9.843 3.399-9.843 6.99s4.713 5.835 10.228 5.835c6.252 0 9.843-3.591 9.843-7.182 0-2.822-0.962-4.521-3.591-6.413v0zM31.55 14.13h-3.976v-3.751h-3.206v3.944h-3.976v3.014h3.976v3.783h3.206v-3.783h3.976v-3.206z"></path>
</symbol>
<symbol id="ecl-icon--image" viewBox="0 0 36 32">
<title>image</title>
<path d="M30.107 25.865h-23.79v-4.713l7.182-11.927 9.811 11.927 6.797-4.745v9.458zM22.957 10.443c0-2.052 1.571-3.527 3.527-3.527s3.527 1.603 3.527 3.527-1.603 3.527-3.527 3.527-3.527-1.699-3.527-3.527zM36.327 3.518c-0.257-1.699-1.956-3.142-3.527-3.142h-28.92c-1.924 0-3.623 1.571-3.88 3.142v25.394c0 1.699 1.828 3.527 3.88 3.527h28.92c1.699 0 3.623-1.828 3.623-3.655v-24.752l-0.096-0.513zM32.8 28.783h-29.145v-24.752h29.145v24.752z"></path>
</symbol>
<symbol id="ecl-icon--presentation" viewBox="0 0 29 32">
<title>presentation</title>
<path d="M12.633 0.824h3.206v1.571h-3.206zM28.023 3.229h-27.574v3.238h0.737v15.647h11.35v1.475l-5.707 6.829c-0.385 0.353-0.289 0.93 0.096 1.282s0.898 0.289 1.282-0.096l6.156-7.278 5.899 7.182c0.289 0.385 0.834 0.481 1.282 0.096 0.385-0.256 0.481-0.834 0.096-1.282l-5.707-7.086v-1.122h11.35v-15.647h0.802l-0.064-3.238zM25.618 20.447h-22.764v-14.075h22.668l0.096 14.075z"></path>
</symbol>
<symbol id="ecl-icon--infographic" viewBox="0 0 31 32">
<title>infographic</title>
<path d="M15.903 13.169v-2.693c-0.005 0-0.010-0-0.015-0-3.347 0-6.060 2.713-6.060 6.060s2.713 6.060 6.060 6.060c2.477 0 4.607-1.487 5.547-3.616l-2.742-0.616c-0.609 0.932-1.647 1.539-2.827 1.539-1.859 0-3.367-1.507-3.367-3.367s1.507-3.367 3.367-3.367c0.013 0 0.027 0 0.040 0zM28.536 20.479c-1.732 5.414-6.72 9.266-12.607 9.266-7.296 0-13.21-5.914-13.21-13.21 0-7.287 5.9-13.195 13.183-13.21l0.001-2.693c-0.005 0-0.011 0-0.018 0-8.783 0-15.903 7.12-15.903 15.903 0 4.396 1.784 8.375 4.667 11.254 2.879 2.883 6.858 4.667 11.254 4.667 7.19 0 13.265-4.771 15.233-11.319zM5.098 16.535c0.030 5.945 4.856 10.752 10.805 10.752 4.72 0 8.734-3.027 10.205-7.246l-2.606-0.653c-1.188 3.099-4.139 5.258-7.593 5.258-4.48 0-8.112-3.632-8.112-8.112 0-4.478 3.629-8.109 8.106-8.112l0-2.693c-5.967 0-10.805 4.838-10.805 10.805z"></path>
</symbol>
<symbol id="ecl-icon--linkedin" viewBox="0 0 32 32">
<title>linkedin</title>
<path d="M6.99 31.188h-6.22v-19.911h6.22v19.911zM3.783 8.84v0c-2.276 0-3.783-1.507-3.783-3.399 0-2.052 1.507-3.559 3.783-3.559s3.751 1.507 3.751 3.367c0 2.084-1.507 3.591-3.751 3.591v0zM32.063 31.188h-7.15v-10.324c0-2.629-1.154-4.521-3.591-4.521-1.892 0-2.822 1.315-3.399 2.437 0 0.385 0 1.122 0 1.699v10.709h-6.99v-19.911h6.99v3.174c0.385-1.315 2.629-3.367 6.22-3.367 4.521 0 7.919 2.822 7.919 9.010v11.094z"></path>
</symbol>
<symbol id="ecl-icon--organigram" viewBox="0 0 37 32">
<title>organigram</title>
<path d="M0 24.743h10.452v7.695h-10.452zM13.434 24.743h10.42v7.695h-10.42zM26.836 24.743h10.452v7.695h-10.452zM6.701 18.876h10.452v3.88h2.982v-3.88h10.452v3.88h2.982v-6.861h-13.434v-1.731h-2.982v1.731h-13.434v6.861h2.982zM10.805 0.376h15.679v11.446h-15.679z"></path>
</symbol>
<symbol id="ecl-icon--package" viewBox="0 0 35 32">
<title>package</title>
<path d="M33.345 12.399h1.379v-5.322l-4.040-6.701h-26.644l-4.040 6.701v5.322h33.345zM1.379 13.682v15.967c0 1.507 1.154 2.661 2.661 2.661h26.74c1.507 0 2.661-1.154 2.661-2.661v-15.967h-32.063zM12.056 16.343h10.645v4.040h-10.645v-4.040z"></path>
</symbol>
<symbol id="ecl-icon--rss" viewBox="0 0 32 32">
<title>rss</title>
<path d="M7.342 25.128c0.77 0.737 1.347 1.86 1.347 3.014s-0.577 2.244-1.347 2.982v0c-0.737 0.77-1.86 1.315-3.014 1.315s-2.244-0.545-3.014-1.315c-0.737-0.737-1.315-1.86-1.315-2.982s0.577-2.276 1.315-3.014v0c0.769-0.77 1.892-1.315 3.014-1.315s2.084 0.385 3.014 1.315v0zM0 11.245v5.996c3.976 0 7.727 1.507 10.549 4.328 2.854 2.982 4.553 6.733 4.553 10.677v0h6.22c0-5.803-2.469-11.062-6.22-14.813-3.976-3.944-9.266-6.188-15.101-6.188v0zM0 0.376v5.996c14.332 0 25.842 11.639 25.842 25.875h6.22c0-8.817-3.591-16.673-9.426-22.508s-13.755-9.362-22.636-9.362v0z"></path>
</symbol>
<symbol id="ecl-icon--success" viewBox="0 0 32 32">
<title>success</title>
<path d="M16.031 0.376c-8.881 0-16.031 7.15-16.031 16.031s7.15 16.031 16.031 16.031c8.881 0 16.031-7.15 16.031-16.031s-7.15-16.031-16.031-16.031v0zM23.277 13.104l-8.881 8.529c-0.192 0.192-0.481 0.192-0.641 0l-1.283-1.282c-0.192-0.192-0.481-0.449-0.641-0.641l-3.046-3.11c-0.064-0.096-0.064-0.192-0.064-0.385 0-0.064 0.064-0.16 0.064-0.257l1.379-1.186c0.096-0.096 0.192-0.096 0.385-0.096 0.096 0 0.257 0 0.353 0.096l2.854 3.014c0.16 0.192 0.449 0.192 0.641 0l6.861-6.605c0.192-0.192 0.449-0.192 0.641 0l1.282 1.283c0.289 0.192 0.289 0.449 0.096 0.641v0z"></path>
</symbol>
<symbol id="ecl-icon--info" viewBox="0 0 32 32">
<title>info</title>
<path d="M16.031 0.376c-8.881 0-16.031 7.15-16.031 16.031s7.15 16.031 16.031 16.031c8.881 0 16.031-7.15 16.031-16.031s-7.246-16.031-16.031-16.031v0zM13.915 9.706c0-0.802 0.737-1.539 1.571-1.539h0.994c0.834 0 1.571 0.737 1.571 1.539v1.026c0 0.834-0.737 1.539-1.571 1.539h-0.994c-0.834 0-1.571-0.705-1.571-1.539v-1.026zM20.167 24.647h-8.24v-2.020h1.988v-6.22h-1.988v-2.020h6.22v8.24h2.116v2.020h-0.096z"></path>
</symbol>
<symbol id="ecl-icon--check" viewBox="0 0 45 32">
<title>check</title>
<path d="M43.028 5.506l-3.687-3.655c-0.513-0.513-1.282-0.513-1.795 0l-19.622 18.821c-0.513 0.513-1.282 0.513-1.796 0l-8.112-8.625c-0.289-0.289-0.802-0.289-1.058-0.289-0.513 0-0.802 0-1.090 0.289l-3.88 3.399c0 0.257-0.289 0.513-0.289 0.77 0 0.513 0 0.802 0.289 1.058l8.625 8.881c0.513 0.513 1.283 1.282 1.796 1.796l3.687 3.687c0.513 0.481 1.282 0.481 1.796 0l25.362-24.303c0.545-0.513 0.545-1.315-0.224-1.828z"></path>
</symbol>
<symbol id="ecl-icon--twitter" viewBox="0 0 32 32">
<title>twitter</title>
<path d="M32.063 6.179c-1.122 0.577-2.469 0.962-3.783 1.154 1.315-0.769 2.469-2.116 2.822-3.623-1.315 0.77-2.629 1.315-4.168 1.507-1.122-1.315-2.822-2.084-4.745-2.084-3.591 0-6.637 3.046-6.637 6.669 0 0.577 0 0.962 0.192 1.539-5.483-0.385-10.42-2.854-13.659-7.054-0.577 1.122-0.93 2.276-0.93 3.431 0 2.276 1.122 4.393 3.014 5.547-1.122 0-2.084-0.385-3.014-0.77v0c0 3.238 2.276 5.932 5.29 6.477-0.577 0.192-1.122 0.385-1.699 0.385-0.385 0-0.769 0-1.315-0.192 0.737 2.693 3.206 4.585 6.252 4.585-2.276 1.731-5.13 2.886-8.176 2.886h-1.507c2.854 1.892 6.445 3.046 10.26 3.046 12.12 0 18.757-10.132 18.757-18.917v-0.962c1.154-0.93 2.276-2.276 3.046-3.623z"></path>
</symbol>
<symbol id="ecl-icon--energy" viewBox="0 0 32 32">
<title>energy</title>
<path d="M15.903 0.857h0.224c0.513 0.289 0.77 0.769 0.93 1.315 0.994 2.886 0.737 7.342 0.93 11.094-0.962-0.705-3.046-0.513-3.944-0.064 0.128-3.527-0.032-8.208 0.93-10.965 0.16-0.513 0.577-1.218 0.93-1.379v0zM15.582 13.81c2.405-0.353 4.425 2.244 2.982 4.521-1.218 1.924-5.258 1.924-5.515-1.282-0.064-0.77 0.417-1.892 0.417-1.924 0.417-0.641 1.122-1.154 2.116-1.315v0zM15.037 16.599c-0.16 1.667 2.18 1.379 1.956-0.064-0.064-0.481-0.417-0.898-1.218-0.737-0.545 0.128-0.705 0.449-0.737 0.802v0zM12.056 16.054c0.032 0 0.064 0.032 0.064 0.064-0.224 1.122 0.128 2.116 0.609 2.854 0.289 0.449 0.77 0.705 0.93 1.122-2.309 1.218-4.873 2.661-7.695 3.783-0.866 0.321-3.559 1.571-3.848 0.032-0.192-0.994 1.282-2.020 1.86-2.533 2.405-2.020 5.579-3.848 8.080-5.322v0zM19.911 16.054c2.629 1.443 5.611 3.27 8.080 5.322 0.577 0.481 2.052 1.443 1.924 2.501-0.224 1.571-2.918 0.385-3.912 0-2.693-1.090-5.322-2.565-7.631-3.783 0.16-0.449 0.737-0.737 1.058-1.25 0.417-0.673 0.641-1.571 0.481-2.597v-0.192zM17.987 31.925h-3.944v-11.286c1.058 0.545 2.982 0.385 3.944 0.064v11.222z"></path>
</symbol>
<symbol id="ecl-icon--budget" viewBox="0 0 32 32">
<title>budget</title>
<path d="M16.769 3.037c-1.603 0.417-2.886 1.122-3.655 2.341-2.982 0.577-6.958 0.449-9.715-0.449-0.673-0.224-2.148-0.769-2.148-1.411 0-0.802 2.052-1.411 2.918-1.635 3.88-1.026 10.004-0.802 12.601 1.154v0zM14.941 6.275c1.347-1.603 3.976-1.828 6.733-2.148 2.565-0.321 5.643 0.192 7.599 0.994 0.577 0.224 1.635 0.673 1.635 1.218 0 0.802-2.565 1.571-3.367 1.731-2.822 0.641-6.477 0.609-9.234-0.064-1.379-0.321-2.789-0.641-3.367-1.731v0zM1.25 6.147c2.789 1.507 7.663 1.86 11.735 1.25v2.789c-4.168 0.545-9.394 0.353-11.735-1.763 0-0.769 0-1.539 0-2.276v0zM14.941 8.968c4.040 1.988 11.959 2.084 15.967 0-0.16 0.577 0.192 1.475 0 2.148-0.256 0.898-2.308 1.411-3.431 1.699-4.136 0.93-10.517 0.545-12.536-1.699v-2.148zM1.25 10.86c2.854 1.507 7.695 1.924 11.735 1.283v2.757c-4.168 0.545-9.426 0.385-11.735-1.763 0-0.77 0-1.539 0-2.276v0zM14.941 13.682c3.944 2.020 11.991 2.116 15.903 0-0.032 0.545 0.256 1.443 0.064 2.148-0.256 0.898-2.244 1.443-3.367 1.699-4.136 0.898-10.517 0.545-12.601-1.635 0-0.737 0-1.475 0-2.212v0zM14.941 18.395c3.88 2.052 12.056 2.116 15.903 0 0.16 0.641 0 1.539 0.064 2.276-0.866 0.962-2.276 1.315-3.848 1.635-1.379 0.289-3.302 0.77-4.97 0.385-0.449-0.096-0.93-0.609-1.507-0.866-1.539-0.737-3.623-1.058-5.643-1.282 0-0.705 0-1.443 0-2.148v0zM11.51 22.499c2.661-0.16 5.579 0.064 7.791 0.93 0.77 0.321 1.699 0.737 1.699 1.218-0.032 0.834-2.629 1.603-3.367 1.763-2.95 0.673-6.38 0.641-9.234 0-0.994-0.224-3.367-0.93-3.367-1.763-0.032-0.802 1.924-1.315 2.693-1.539 1.411-0.417 2.405-0.513 3.783-0.609v0zM5.034 27.276c4.008 2.084 11.959 2.052 15.967 0v2.244c-3.302 2.789-12.697 2.822-15.967 0 0-0.737 0-1.507 0-2.244v0z"></path>
</symbol>
<symbol id="ecl-icon--location" viewBox="0 0 21 32">
<title>location</title>
<path d="M10.613 16.407c-3.046 0-5.515-2.469-5.515-5.515s2.469-5.483 5.515-5.483c3.046 0 5.483 2.469 5.483 5.483s-2.437 5.515-5.483 5.515zM10.613 0.376c-5.867 0-10.613 4.745-10.613 10.613 0 2.341 1.507 6.188 4.585 11.735 2.212 3.912 4.361 7.182 4.457 7.342l1.571 2.373 1.571-2.373c0.096-0.16 2.244-3.431 4.425-7.342 3.11-5.547 4.617-9.394 4.617-11.735 0-5.867-4.777-10.613-10.613-10.613z"></path>
</symbol>
<symbol id="ecl-icon--livestreaming" viewBox="0 0 39 32">
<title>livestreaming</title>
<path d="M35.622 0.376h-32.063c-1.956 0-3.559 1.603-3.559 3.559v5.354h3.559v-5.354h32.063v24.945h-12.472v3.559h12.472c1.956 0 3.559-1.603 3.559-3.559v-24.945c0-1.956-1.603-3.559-3.559-3.559v0zM0 27.084v5.354h5.354c0-3.014-2.341-5.354-5.354-5.354v0zM0 19.966v3.559c5.002 0 8.913 3.912 8.913 8.913h3.559c0-6.958-5.515-12.472-12.472-12.472v0zM0 12.848v3.559c8.913 0 16.031 7.118 16.031 16.031h3.559c0-10.869-8.721-19.59-19.59-19.59v0z"></path>
</symbol>
<symbol id="ecl-icon--icon-calendar" viewBox="0 0 29 32">
<title>icon-calendar</title>
<path d="M7.695 7.013c-1.186 0-2.18-0.994-2.18-2.18v-2.276c0-1.218 0.994-2.18 2.18-2.18s2.18 0.962 2.18 2.18v2.276c0 1.186-0.962 2.18-2.18 2.18v0zM20.969 7.013c-1.186 0-2.18-0.994-2.18-2.18v-2.276c0-1.218 0.994-2.18 2.18-2.18s2.18 0.962 2.18 2.18v2.276c0 1.186-0.962 2.18-2.18 2.18v0zM24.335 28.014h-3.334v-3.302h3.334v3.302zM24.335 22.499h-3.334v-3.334h3.334v3.334zM24.335 16.952h-3.334v-3.302h3.334v3.302zM18.789 28.014h-3.302v-3.302h3.302v3.302zM18.789 22.499h-3.302v-3.334h3.302v3.334zM18.789 16.952h-3.302v-3.302h3.302v3.302zM13.274 28.014h-3.335v-3.302h3.335v3.302zM13.274 22.499h-3.335v-3.334h3.335v3.334zM13.274 16.952h-3.335v-3.302h3.335v3.302zM7.727 28.014h-3.302v-3.302h3.302v3.302zM7.727 22.499h-3.302v-3.334h3.302v3.334zM7.727 16.952h-3.302v-3.302h3.302v3.302zM26.548 11.437h-24.335v18.789h24.335v-18.789zM26.548 32.438h-24.335c-1.218 0-2.212-0.994-2.212-2.212v-24.335c0-1.218 0.994-2.212 2.212-2.212h2.212v1.122c0 1.828 1.475 3.302 3.302 3.302s3.335-1.475 3.335-3.302v-1.122h6.637v1.122c0 1.828 1.475 3.302 3.302 3.302s3.334-1.475 3.334-3.302v-1.122h2.212c1.218 0 2.212 0.994 2.212 2.212v24.335c0 1.218-0.994 2.212-2.212 2.212v0z"></path>
</symbol>
<symbol id="ecl-icon--generic-lang" viewBox="0 0 32 32">
<title>generic-lang</title>
<path d="M20.809 16.952h2.533c0.417-0.898 0.673-1.86 0.737-2.886h-2.854c-0.032 1.058-0.192 2.020-0.417 2.886zM21.258 12.912h2.854c-0.064-1.026-0.321-1.988-0.737-2.886h-2.565c0.224 0.866 0.385 1.828 0.449 2.886zM16.64 18.106v3.302c0.513-0.385 1.699-1.411 2.533-3.302h-2.533zM20.392 18.106c-0.513 1.282-1.186 2.308-1.796 3.014 1.667-0.577 3.078-1.603 4.072-3.014h-2.276zM20.456 8.872h2.244c-0.962-1.411-2.373-2.469-4.008-3.046 0.577 0.737 1.25 1.731 1.763 3.046zM19.622 10.026h-2.982v2.886h3.463c-0.064-1.090-0.224-2.052-0.481-2.886zM20.071 14.066h-3.431v2.886h2.982c0.256-0.834 0.417-1.796 0.449-2.886zM19.173 8.84c-0.256-0.705-0.641-1.282-0.962-1.763-0.481-0.641-0.962-1.090-1.315-1.379-0.064-0.096-0.16-0.128-0.256-0.192v3.335h2.533zM12.953 8.84h2.565v-3.302c-0.545 0.385-1.731 1.443-2.565 3.302zM9.458 8.84h2.276c0.481-1.282 1.186-2.309 1.796-3.014-1.667 0.545-3.078 1.635-4.072 3.014zM10.869 14.034h-2.854c0.064 1.026 0.321 2.020 0.737 2.886h2.533c-0.224-0.866-0.353-1.796-0.417-2.886zM11.318 9.994h-2.533c-0.417 0.898-0.673 1.86-0.77 2.886h2.886c0.064-1.058 0.192-2.020 0.417-2.886zM0 7.397v12.152c0 3.88 3.142 7.022 7.022 7.022h4.713l12.28 5.867v-5.867h1.090c3.848 0 7.022-3.142 7.022-7.022v-12.152c0-3.88-3.174-7.022-7.022-7.022h-18.083c-3.88 0-7.022 3.142-7.022 7.022zM6.861 13.457c0-5.098 4.136-9.234 9.234-9.202 5.098 0 9.202 4.136 9.17 9.234 0 5.098-4.136 9.234-9.234 9.202-5.098 0-9.202-4.136-9.17-9.234zM11.703 18.074h-2.276c0.994 1.411 2.405 2.469 4.040 3.046-0.609-0.737-1.283-1.731-1.763-3.046zM12.536 16.92h2.95v-2.886h-3.431c0.032 1.090 0.192 2.052 0.481 2.886zM12.056 12.88h3.431v-2.886h-2.982c-0.257 0.834-0.385 1.796-0.449 2.886zM12.921 18.106c0.289 0.673 0.673 1.25 0.994 1.731 0.481 0.609 0.962 1.090 1.315 1.379 0.064 0.096 0.16 0.16 0.224 0.192v-3.302h-2.533z"></path>
</symbol>
<symbol id="ecl-icon--down" viewBox="0 0 32 32">
<title>down</title>
<path d="M16.031 23.429c-0.545 0-1.058-0.224-1.443-0.609l-9.971-9.939c-0.802-0.802-0.802-2.084 0-2.886s2.116-0.802 2.918 0l8.497 8.465 8.497-8.465c0.802-0.802 2.116-0.802 2.918 0s0.802 2.084 0 2.886l-9.971 9.939c-0.385 0.385-0.898 0.609-1.443 0.609v0z"></path>
</symbol>
<symbol id="ecl-icon--multiple-files" viewBox="0 0 20 32">
<title>multiple-files</title>
<path d="M17.602 6.275c0.962 0 1.86 0.994 1.86 1.892v22.444c0 0.93-0.962 1.828-1.86 1.828h-12.985c-1.058 0-1.956-0.962-1.956-1.828v-19.718l4.681-4.553h10.26v-0.064zM17.602 8.167h-8.4v2.854c0 0.962-0.962 1.828-1.796 1.828h-2.854v17.763h13.049v-22.444zM17.602 6.275c0.962 0 1.86 0.994 1.86 1.892v22.444c0 0.93-0.962 1.828-1.86 1.828h-12.985c-1.058 0-1.956-0.962-1.956-1.828v-19.718l4.681-4.553h10.26v-0.064zM1.956 24.39v-17.186h2.918c0.962 0 1.956-0.866 1.956-1.892v-2.982h8.753v3.302h1.956v-3.302c0-0.994-0.994-1.956-2.020-1.956h-10.645l-4.873 4.745v19.334c0 0.834 0.898 1.828 1.956 1.892v-1.956z"></path>
</symbol>
<symbol id="ecl-icon--arrow-up" viewBox="0 0 39 32">
<title>arrow-up</title>
<path d="M38.988 32.438l-19.911-32.063-19.077 32.063z"></path>
</symbol>
<symbol id="ecl-icon--arrow-down" viewBox="0 0 39 32">
<title>arrow-down</title>
<path d="M0 0.376l19.943 32.063 19.045-32.063z"></path>
</symbol>
<symbol id="ecl-icon--search" viewBox="0 0 32 32">
<title>search</title>
<path d="M31.325 27.885l-6.99-6.958c-0.032-0.032-0.064-0.064-0.096-0.096 1.379-2.084 2.18-4.585 2.18-7.246 0-7.31-5.932-13.21-13.21-13.21s-13.21 5.867-13.21 13.178c0 7.31 5.932 13.21 13.21 13.21 2.661 0 5.162-0.802 7.246-2.18 0.032 0.032 0.064 0.064 0.096 0.096l6.958 6.99c1.058 1.026 2.757 1.026 3.815 0s1.058-2.725 0-3.783v0zM13.21 22.178c-4.777 0-8.625-3.848-8.625-8.625s3.848-8.625 8.625-8.625c4.745 0 8.625 3.848 8.625 8.625s-3.88 8.625-8.625 8.625v0z"></path>
</symbol>
<symbol id="ecl-icon--language" viewBox="0 0 32 32">
<title>language</title>
<path d="M25.105 0.376h-18.083c-3.88 0-7.022 3.142-7.022 7.022v12.152c0 3.88 3.142 7.022 7.022 7.022h1.090v5.867l12.28-5.867h4.713c3.848 0 7.022-3.142 7.022-7.022v-12.152c0-3.88-3.174-7.022-7.022-7.022z"></path>
</symbol>
<symbol id="ecl-icon--external" viewBox="0 0 37 32">
<title>external</title>
<path d="M0 0.376v32.063h32.063v-11.927h-4.008v7.984h-23.983v-24.111h7.951v-3.944l-12.023-0.064zM16.801 0.376l5.707 5.835-8.465 8.432 3.751 3.751 8.561-8.497 5.707 5.707v-15.23h-15.262z"></path>
</symbol>
<symbol id="ecl-icon--left" viewBox="0 0 32 32">
<title>left</title>
<path d="M9.010 16.407c0-0.545 0.224-1.058 0.609-1.443l9.939-9.971c0.802-0.802 2.084-0.802 2.886 0s0.802 2.116 0 2.918l-8.465 8.497 8.465 8.497c0.802 0.802 0.802 2.084 0 2.918-0.802 0.802-2.084 0.802-2.886 0l-9.939-9.971c-0.385-0.385-0.609-0.898-0.609-1.443v0z"></path>
</symbol>
<symbol id="ecl-icon--up" viewBox="0 0 32 32">
<title>up</title>
<path d="M16.031 9.385c0.545 0 1.058 0.224 1.443 0.609l9.971 9.939c0.802 0.802 0.802 2.084 0 2.886s-2.116 0.802-2.918 0l-8.497-8.465-8.497 8.465c-0.802 0.802-2.084 0.802-2.918 0-0.802-0.802-0.802-2.084 0-2.918l9.971-9.907c0.385-0.385 0.898-0.609 1.443-0.609v0z"></path>
</symbol>
<symbol id="ecl-icon--right" viewBox="0 0 32 32">
<title>right</title>
<path d="M23.053 16.407c0 0.545-0.224 1.058-0.609 1.443l-9.939 9.971c-0.802 0.802-2.084 0.802-2.886 0s-0.802-2.116 0-2.918l8.465-8.497-8.465-8.497c-0.802-0.802-0.802-2.116 0-2.918s2.084-0.802 2.918 0l9.907 9.971c0.385 0.385 0.609 0.898 0.609 1.443v0z"></path>
</symbol>
<symbol id="ecl-icon--global" viewBox="0 0 32 32">
<title>global</title>
<path d="M2.918 12.752v-1.090c0.385-5.002 2.341-8.368 5.29-10.805 0.417 0.417 0.93 0.802 1.25 1.347-2.789 2.405-4.938 6.188-4.617 11.158 0.481 6.733 6.445 12.472 13.979 11.959 3.142-0.192 5.29-1.411 7.342-2.918-0.385-0.513-0.866-0.994-1.411-1.379-2.854 2.629-8.368 3.014-12.056 1.090-3.367-1.731-6.252-5.515-5.899-10.677 0.353-5.419 4.296-9.33 9.106-10.228 5.739-1.058 10.581 2.469 12.312 6.701 1.539 3.783 0.705 8.881-1.571 11.286 0.866 0.962 1.828 1.796 2.597 2.854-2.854 3.014-6.605 5.611-12.536 5.162-4.040-0.289-7.278-2.148-9.555-4.489-2.373-2.469-3.976-5.675-4.168-9.907 0-0.032 0-0.064-0.064-0.064v0zM14.621 4.447c1.507 0.353 0.93 1.892 0.192 2.661-1.090 1.122-4.649 1.828-2.052 3.206 0.192 1.058 0.898 0.834 1.924 0.93 1.218 0.096 2.854 0.513 3.27 1.635 0.417 1.090-0.353 2.309-0.834 3.27-0.481 0.93-0.705 2.020-1.218 2.629-0.289 0.321-0.802 0.577-1.154 0.481-1.154-0.289-0.417-2.918-0.802-4.425-0.192-0.866-0.898-1.315-0.834-2.244 0.032-0.385 0.353-0.673 0.224-0.994-0.77-0.513-1.828-0.577-2.469-1.218-0.385-0.353-0.449-0.866-0.93-1.154-1.315 3.527 0.16 7.246 2.020 9.074 1.475 1.475 3.815 2.597 6.477 2.405 4.938-0.321 8.721-4.585 7.791-10.26-0.321 0.096-0.737 0.032-1.026 0.128 0.064 0.705 0.128 1.25 0.032 2.020-1.282 0.802-0.737 3.495-2.533 3.815-0.93-1.122 0-3.88-0.962-4.745-0.834-0.705-2.757 0.096-2.693-1.347 0.064-1.283 2.501-1.539 2.854-2.533-0.16-0.192-0.802 0.064-0.898-0.192 0.128-1.25 1.090-1.699 2.373-1.828-1.571-1.828-6.028-2.757-8.753-1.315v0zM25.201 31.893h-14.588c0.417-1.892 3.174-1.443 5.419-1.507 0.032-0.513-0.096-1.186 0.064-1.603h3.751v1.603c2.212 0.064 5.002-0.417 5.354 1.507v0z"></path>
</symbol>
<symbol id="ecl-icon--growth" viewBox="0 0 32 32">
<title>growth</title>
<path d="M3.527 23.236h5.226v6.958h-5.226v-6.958zM10.356 19.838h5.258v10.324h-5.258v-10.324zM17.314 18.106h5.226v12.056h-5.226v-12.056zM24.143 12.88h5.258v17.346h-5.258v-17.346zM29.017 2.748l-7.118 0.16 2.597 2.597-6.765 7.182-5.579-4.841-9.651 9.394 1.892 1.924 7.855-7.663 5.675 4.906 8.497-8.978 2.437 2.437 0.16-7.118z"></path>
</symbol>
<symbol id="ecl-icon--regulation" viewBox="0 0 32 32">
<title>regulation</title>
<path d="M15.807 1.594h0.385c4.296 2.244 8.849 5.002 13.274 7.471 0.609 0.321 1.603 0.705 1.796 1.122 0.256 0.545 0.064 1.892-0.192 2.084-0.385 0.385-2.501 0.192-3.623 0.192h-22.957c-1.411 0-3.591 0.321-3.815-0.545v-1.539c0.096-0.353 0.353-0.481 0.545-0.641 1.058-0.705 2.373-1.347 3.591-2.020 3.495-1.988 7.471-4.232 10.997-6.124v0zM15.55 9.674c2.693 0.545 2.789-3.88 0-3.27-1.86 0.449-1.283 3.046 0 3.27v0zM10.484 13.521c0.257 0.994-0.096 1.86-0.93 1.988-0.032 2.565 0.096 5.322-0.064 7.791-1.443 0.096-3.335 0.096-4.809 0-0.128-2.469-0.032-5.194-0.064-7.727-0.737-0.224-1.218-0.994-0.93-2.052 2.116-0.096 4.681-0.096 6.797 0v0zM19.398 13.521c0.256 0.994-0.096 1.86-0.93 1.988-0.032 2.565 0.096 5.322-0.064 7.791-1.475 0.096-3.367 0.096-4.809 0-0.16-2.469-0.032-5.194-0.064-7.727-0.737-0.224-1.25-0.994-0.93-2.052 2.116-0.096 4.681-0.096 6.797 0v0zM28.311 13.521c0.256 0.994-0.128 1.86-0.93 1.988-0.064 2.565 0.064 5.322-0.064 7.791-1.475 0.096-3.367 0.096-4.841 0-0.128-2.469 0-5.194-0.064-7.727-0.737-0.224-1.218-0.994-0.93-2.052 2.148-0.096 4.681-0.096 6.829 0v0zM3.206 24.39c0.609-0.192 2.308-0.064 3.334-0.064h19.526c0.93 0 2.693-0.096 3.046 0.192 0.417 0.385 0.321 2.308 0 2.597-0.385 0.353-2.18 0.192-3.174 0.192h-19.943c-0.898 0-2.693 0.192-3.11-0.192-0.513-0.449-0.385-2.469 0.321-2.725v0zM0.673 30.643v-1.731c0.16-0.385 0.321-0.513 0.673-0.609 0.962-0.224 2.405 0 3.719 0h22.444c1.122 0 3.174-0.16 3.559 0.192 0.417 0.353 0.321 2.308 0 2.597-0.385 0.321-2.437 0.192-3.527 0.192h-22.476c-1.796 0-3.976 0.353-4.393-0.641v0z"></path>
</symbol>
<symbol id="ecl-icon--close" viewBox="0 0 32 32">
<title>close</title>
<path d="M30.139 16.407c0 3.848-1.443 7.374-4.168 9.939-2.725 2.725-6.252 4.168-9.939 4.168-3.848 0-7.374-1.443-9.939-4.168-2.725-2.725-4.168-6.252-4.168-9.939s1.443-7.374 4.168-9.939c2.565-2.725 6.092-4.168 9.939-4.168s7.374 1.443 9.939 4.168c2.725 2.565 4.168 6.092 4.168 9.939v0zM30.78 10.155c-0.802-1.924-1.924-3.687-3.367-5.13s-3.206-2.565-5.13-3.367c-1.924-0.802-4.008-1.282-6.252-1.282s-4.328 0.481-6.252 1.282c-1.924 0.802-3.687 1.924-5.13 3.367-1.443 1.603-2.565 3.206-3.367 5.13s-1.282 4.008-1.282 6.252 0.481 4.328 1.282 6.252c0.802 1.924 1.924 3.687 3.367 5.13s3.206 2.565 5.13 3.367c1.924 0.802 4.008 1.283 6.252 1.283s4.328-0.481 6.252-1.282c1.924-0.802 3.687-1.924 5.13-3.367s2.565-3.206 3.367-5.13c0.802-1.924 1.283-4.008 1.283-6.252s-0.481-4.328-1.282-6.252v0zM22.604 21.056l-4.649-4.649 4.649-4.649-1.924-1.924-4.649 4.649-4.649-4.649-1.924 1.924 4.649 4.649-4.649 4.649 1.924 1.924 4.649-4.649 4.649 4.649 1.924-1.924z"></path>
</symbol>
<symbol id="ecl-icon--close-dark" viewBox="0 0 32 32">
<title>close-dark</title>
<path d="M20.744 23.076l-4.713-4.713-4.713 4.713-1.956-1.988 4.681-4.713-4.681-4.649 1.988-1.988 4.681 4.681 4.681-4.713 1.988 1.988-4.713 4.681 4.745 4.745-1.988 1.956zM16.031 0.376c-8.849 0-16.031 7.182-16.031 16.031s7.182 16.031 16.031 16.031c8.849 0 16.031-7.182 16.031-16.031s-7.182-16.031-16.031-16.031v0z"></path>
</symbol>
<symbol id="ecl-icon--feedback" viewBox="0 0 37 32">
<title>feedback</title>
<path d="M37.417 14.259c0 3.655-1.892 6.958-4.97 9.426 0.128 2.405 0.641 5.675 2.533 7.342-3.591 0-7.246-2.244-9.394-3.848-2.148 0.641-4.457 0.994-6.893 0.994-10.324 0-18.692-6.252-18.692-13.915s8.368-13.883 18.692-13.883c10.324 0 18.725 6.22 18.725 13.883z"></path>
</symbol>
<symbol id="ecl-icon--error" viewBox="0 0 32 32">
<title>error</title>
<path d="M22.251 1.273h-12.536l-8.817 8.913v12.536l8.913 8.817h12.536l8.817-8.913v-12.44zM17.987 16.663l3.11 3.142c0.082 0.076 0.132 0.185 0.132 0.305s-0.051 0.228-0.132 0.304l-1.154 1.154c-0.076 0.082-0.185 0.132-0.305 0.132s-0.228-0.051-0.304-0.132l-3.11-3.11c-0.077-0.092-0.192-0.151-0.321-0.151s-0.244 0.058-0.32 0.15l-3.111 3.111c-0.077 0.092-0.192 0.151-0.321 0.151s-0.244-0.058-0.32-0.15l-1.155-1.155c-0.082-0.076-0.132-0.185-0.132-0.305s0.051-0.228 0.132-0.304l3.142-3.142c0.082-0.076 0.132-0.185 0.132-0.305s-0.051-0.228-0.132-0.304l-3.142-3.11c-0.092-0.077-0.15-0.192-0.15-0.321s0.058-0.244 0.15-0.32l1.155-1.155c0.077-0.092 0.192-0.15 0.321-0.15s0.244 0.058 0.32 0.15l3.111 3.111c0.077 0.092 0.192 0.15 0.321 0.15s0.244-0.058 0.32-0.15l3.111-3.111c0.076-0.082 0.185-0.132 0.305-0.132s0.228 0.051 0.304 0.132l1.154 1.154c0.092 0.077 0.151 0.192 0.151 0.321s-0.058 0.244-0.15 0.32l-3.111 3.111c-0.082 0.076-0.132 0.185-0.132 0.305s0.051 0.228 0.132 0.304z"></path>
</symbol>
<symbol id="ecl-icon--if_gear_298781" viewBox="0 0 28 32">
<title>if_gear_298781</title>
<path d="M14.012 11.136c-2.797 0-5.066 2.269-5.066 5.067 0 2.796 2.269 5.069 5.066 5.069s5.050-2.274 5.050-5.069c-0-2.799-2.252-5.067-5.050-5.067zM24.168 19.114l-0.913 2.199 1.844 3.621-2.258 2.258-3.705-1.75-2.199 0.903-1.116 3.417-0.143 0.454h-3.192l-1.381-3.857-2.199-0.907-3.626 1.836-2.257-2.256 1.748-3.707-0.906-2.197-3.864-1.261v-3.19l3.86-1.383 0.906-2.196-1.624-3.205-0.214-0.42 2.254-2.254 3.71 1.747 2.197-0.908 1.115-3.415 0.144-0.453h3.191l1.382 3.862 2.194 0.908 3.63-1.84 2.256 2.254-1.748 3.704 0.903 2.2 3.871 1.259v3.189l-3.859 1.388z"></path>
</symbol>
</defs>
</svg>
