<svg width="290" height="72" viewBox="0 0 290 72" fill="none" xmlns="http://www.w3.org/2000/svg">
<path fill-rule="evenodd" clip-rule="evenodd" d="M0 24.5029C0 24.5029 39.8171 19.3344 40.9657 19.1429C42.6886 18.8558 44.22 18.5687 45.6557 18.0901C48.91 17.2287 51.8771 15.8887 54.4614 14.0701C56.95 12.3472 59.3429 9.85866 61.64 7.17866C63.0757 5.45581 64.7029 3.15866 66.1386 1.05295V9.15527e-05C64.4157 2.58438 62.6929 4.78581 60.97 6.70009C58.6729 9.28438 56.28 11.3901 53.7914 13.0172C51.2071 14.6444 48.4314 15.8887 45.2729 16.6544C43.8371 17.0372 42.4014 17.3244 40.6786 17.5158C39.53 17.7072 38.4771 17.8029 37.3286 17.8987C36.9457 17.9944 0 21.9187 0 21.9187V24.5029Z" fill="white"/>
<mask id="mask0" style="mask-type:alpha" maskUnits="userSpaceOnUse" x="0" y="5" width="67" height="24">
<path fill-rule="evenodd" clip-rule="evenodd" d="M0 5.26437H66.1384V28.0444H0V5.26437Z" fill="white"/>
</mask>
<g mask="url(#mask0)">
<path fill-rule="evenodd" clip-rule="evenodd" d="M53.4086 17.8029C50.92 19.2387 48.0486 20.2915 44.89 20.9615C43.55 21.2487 42.0186 21.4401 40.3914 21.6315C39.4343 21.7272 38.3814 21.8229 37.4243 21.9187C36.85 21.9187 36.3714 22.0144 35.7971 22.1101C23.5457 23.1629 11.39 24.3115 0 25.4601V28.0444C11.4857 26.6087 23.6414 25.1729 35.8929 23.8329C36.4671 23.7372 36.9457 23.7372 37.52 23.6415C38.4771 23.5458 39.53 23.4501 40.4871 23.2587C42.21 23.0672 43.7414 22.7801 45.1771 22.3972C48.5271 21.6315 51.4943 20.4829 54.0786 18.8558C56.6629 17.3244 58.96 15.1229 61.3529 12.4429C62.8843 10.8158 64.6071 8.42295 66.1386 6.22152V5.26437C64.32 7.84866 62.5014 9.95437 60.7786 11.7729C58.3857 14.3572 55.8971 16.3672 53.4086 17.8029" fill="white"/>
</g>
<path fill-rule="evenodd" clip-rule="evenodd" d="M60.3957 17.1328C58.0029 19.3342 55.4186 21.1528 52.8343 22.397C50.3457 23.6413 47.4743 24.5028 44.22 24.9813C42.88 25.1728 41.3486 25.3642 39.7214 25.5556L0 28.9056V31.4899L35.3186 27.757L39.9129 27.2785C41.6357 27.087 43.1671 26.8956 44.5071 26.6085C47.8571 25.9385 50.8243 24.9813 53.4086 23.6413C56.0886 22.3013 58.6729 20.0042 61.1614 17.6113C62.7886 15.9842 64.4157 13.9742 66.1386 11.7728V10.9113C64.1286 13.3999 62.31 15.4099 60.3957 17.1328" fill="white"/>
<path fill-rule="evenodd" clip-rule="evenodd" d="M50.8243 30.6286C48.5271 31.9686 46.8043 32.6386 43.4543 33.0214C41.4443 33.2129 39.4343 33.3086 37.4243 33.4043C36.4671 33.5 35.51 33.5 34.5529 33.5957C28.5229 33.9786 22.6843 34.3614 16.6543 34.7443L0 35.8929V38.4771L16.75 36.9457C22.2057 36.4671 28.4271 35.8929 34.6486 35.4143L39.1471 35.0314C40.87 34.9357 42.3057 34.7443 43.6457 34.5529C47.0914 34.0743 49.9629 33.4043 52.5471 32.4471C55.3229 31.3943 57.9071 29.7671 60.5871 27.8529C62.98 26.13 66.2343 22.78 66.2343 22.6843V21.7271C64.1286 23.8329 62.8843 24.9814 60.4914 26.5129C57.62 28.5229 52.8343 29.48 50.8243 30.6286" fill="white"/>
<path fill-rule="evenodd" clip-rule="evenodd" d="M51.6857 35.6059C49.1971 36.3716 46.3257 36.8502 43.0714 37.1373C41.7314 37.2331 40.2957 37.3288 38.6686 37.4235L34.2657 37.6159C23.2586 38.0945 12.2514 38.6688 0.0957031 39.3378V41.9231C11.6771 41.0616 22.9714 40.1045 34.3614 39.3378L38.7643 39.0516C40.4871 38.9559 41.9228 38.8592 43.2628 38.6688C46.6128 38.2859 49.58 37.7116 52.0686 36.8502C54.94 35.9888 57.7157 34.6488 60.3 32.9259C62.2143 31.6816 64.1286 30.2459 66.2343 28.4273C64.0328 30.3416 61.9271 30.7245 59.8214 32.0645C57.1414 33.5959 54.3657 34.7445 51.6857 35.6059" fill="white"/>
<path fill-rule="evenodd" clip-rule="evenodd" d="M51.2071 39.9131C48.7186 40.4873 45.9429 40.8702 42.5929 41.1573C41.2529 41.2521 39.9129 41.3488 38.19 41.3488L33.7871 41.5402C22.78 41.9231 11.4857 42.4016 0 42.8802V45.4645C11.39 44.6988 22.5886 43.9331 33.8829 43.1664L38.2857 42.8802C40.0086 42.7845 41.4443 42.6878 42.6886 42.5931C46.1343 42.3059 48.91 41.8273 51.4943 41.1573C54.3657 40.3916 57.2371 39.3378 59.8214 37.9021C61.8314 36.8502 63.9371 35.5102 66.0429 33.8831V32.7345C63.7457 34.3616 61.5443 35.7973 59.3429 36.8502C56.8543 38.2859 54.0786 39.2431 51.2071 39.9131" fill="white"/>
<path fill-rule="evenodd" clip-rule="evenodd" d="M50.8243 44.1239C48.3357 44.6025 45.56 44.8906 42.21 45.0811C40.9657 45.1777 39.6257 45.1777 37.9029 45.2725L0 46.2296V48.8139L33.5957 47.092L37.9986 46.8996C39.7214 46.8049 41.0614 46.7082 42.4014 46.6134C45.7514 46.3263 48.5271 45.9425 51.1114 45.4639C54.0786 44.8906 56.8543 43.9334 59.5343 42.7849C61.7357 41.8277 63.8414 40.7739 66.1386 39.3382V38.2853C63.7457 39.7211 61.4486 40.8706 59.1514 41.7311C56.5671 42.7849 53.6957 43.6453 50.8243 44.1239" fill="white"/>
<mask id="mask1" style="mask-type:alpha" maskUnits="userSpaceOnUse" x="0" y="43" width="67" height="10">
<path fill-rule="evenodd" clip-rule="evenodd" d="M0 43.7414H66.1384V52.3557H0V43.7414Z" fill="white"/>
</mask>
<g mask="url(#mask1)">
<path fill-rule="evenodd" clip-rule="evenodd" d="M50.5371 48.3357C45.8471 49.0057 41.0614 49.0057 36.4671 49.1014C35.4143 49.1014 34.3614 49.1014 33.3086 49.1971L0 49.7714V52.3557L33.4043 50.92C34.4571 50.8243 35.51 50.8243 36.5629 50.8243C41.2529 50.6329 46.0386 50.4414 50.7286 49.6757C53.6957 49.1971 56.5671 48.5271 59.2471 47.57C61.4486 46.8043 63.7457 45.8471 66.1386 44.6986V43.7414C63.65 44.89 61.2571 45.8471 58.96 46.5171C56.28 47.3786 53.5043 47.9529 50.5371 48.3357" fill="white"/>
</g>
<path fill-rule="evenodd" clip-rule="evenodd" d="M50.3457 52.6429C45.9428 53.0257 41.54 53.0257 37.2328 53.0257H33.2128C22.2057 53.1214 11.1986 53.1214 0.0957031 53.2171V55.8014C10.72 55.4186 22.0143 55.0357 33.3086 54.7486C34.6486 54.7486 35.9886 54.6529 37.3286 54.6529C41.6357 54.5571 46.1343 54.4614 50.5371 53.9829C53.6 53.6957 56.3757 53.1214 59.0557 52.4514C61.3528 51.8771 63.8414 51.1114 66.2343 50.1543V49.1971C63.7457 50.0586 61.2571 50.8243 58.8643 51.3986C56.0886 51.9729 53.3128 52.3557 50.3457 52.6429" fill="white"/>
<mask id="mask2" style="mask-type:alpha" maskUnits="userSpaceOnUse" x="0" y="54" width="67" height="6">
<path fill-rule="evenodd" clip-rule="evenodd" d="M0 54.749H66.2342V59.3432H0V54.749Z" fill="white"/>
</mask>
<g mask="url(#mask2)">
<path fill-rule="evenodd" clip-rule="evenodd" d="M50.1543 56.8547C48.3357 56.9504 46.3257 56.9504 44.1243 56.9504H41.6357L33.0214 56.8547C27.1829 56.8547 21.3443 56.758 15.8886 56.758H0V59.3432L15.8886 58.9594C21.3443 58.8647 27.1829 58.6723 33.0214 58.5775L41.6357 58.4809C44.0286 58.4809 47.0914 58.3861 50.25 58.1937C53.3129 58.0023 56.0886 57.7151 58.8643 57.2366C61.2571 56.8547 63.7457 56.2794 66.2343 55.7061V54.749C63.65 55.3223 61.1614 55.8009 58.6729 56.1847C55.9929 56.4718 53.2171 56.758 50.1543 56.8547" fill="white"/>
</g>
<mask id="mask3" style="mask-type:alpha" maskUnits="userSpaceOnUse" x="0" y="60" width="67" height="3">
<path fill-rule="evenodd" clip-rule="evenodd" d="M0 60.1082H66.0427V62.7882H0V60.1082Z" fill="white"/>
</mask>
<g mask="url(#mask3)">
<path fill-rule="evenodd" clip-rule="evenodd" d="M41.4443 60.8739L32.9257 60.7782C22.0143 60.6834 11.1029 60.492 0 60.2049V62.7882C10.6243 62.6925 21.8229 62.5977 32.9257 62.501L41.4443 62.4063C44.3157 62.3096 47.1871 62.3096 49.9629 62.2139C55.8014 62.0225 61.0657 61.6406 66.0429 60.9706V60.1082C61.0657 60.6834 55.8014 60.9706 49.9629 60.9706C47.1871 60.9706 44.3157 60.9706 41.4443 60.8739" fill="white"/>
</g>
<path fill-rule="evenodd" clip-rule="evenodd" d="M66.1386 65.469L0 63.7451V66.3294H66.1386V65.469Z" fill="white"/>
<mask id="mask4" style="mask-type:alpha" maskUnits="userSpaceOnUse" x="0" y="16" width="67" height="19">
<path fill-rule="evenodd" clip-rule="evenodd" d="M0 16.2714H66.2342V34.9357H0V16.2714Z" fill="white"/>
</mask>
<g mask="url(#mask4)">
<path fill-rule="evenodd" clip-rule="evenodd" d="M60.2043 22.0143C57.7157 24.0243 55.7057 25.46 52.6429 26.7043C49.9629 27.7571 47.0914 28.2357 43.8371 28.7143C41.7314 29.0014 39.53 29.48 37.4243 29.5757C36.5629 29.6714 35.7014 29.6714 34.84 29.7671L0 32.3514V34.9357L34.9357 31.49L39.4343 31.1071C41.1571 30.9157 42.5929 30.7243 44.0286 30.5329C47.3786 29.9586 50.3457 29.1929 52.93 27.9486C55.61 26.7043 58.3857 24.79 60.97 22.5886C62.6929 21.1529 64.4157 19.2386 66.2343 17.2286V16.2714C63.9371 18.6643 62.1186 20.4829 60.2043 22.0143" fill="white"/>
</g>
<path fill-rule="evenodd" clip-rule="evenodd" d="M94.2783 0C94.2783 0 106.147 18.9514 108.348 22.3971C110.55 25.8429 113.038 28.6186 121.844 30.5329C130.65 32.4471 134.478 33.3086 134.478 33.3086V33.9786C134.478 33.9786 128.927 32.83 121.653 31.2029C114.378 29.5757 111.507 29.0971 108.253 24.5029C105.477 20.6743 94.2783 4.59429 94.2783 4.59429V0Z" fill="white"/>
<path fill-rule="evenodd" clip-rule="evenodd" d="M94.2783 21.6315C94.2783 21.6315 105.094 33.0215 108.253 36.2758C111.603 39.7215 115.814 40.9658 121.748 42.0187C127.395 43.0715 134.478 44.2201 134.478 44.2201V44.8901C134.478 44.8901 127.778 43.8372 121.748 42.7844C115.814 41.7315 111.603 41.1572 108.253 38.0944C105.19 35.3187 94.2783 25.0772 94.2783 25.0772V21.6315Z" fill="white"/>
<path fill-rule="evenodd" clip-rule="evenodd" d="M94.2783 26.8C94.2783 26.8 104.615 36.3714 108.253 39.6257C111.603 42.5929 114.378 43.55 121.748 44.89C129.118 46.23 134.478 46.9957 134.478 46.9957V47.6657C134.478 47.6657 127.778 46.5171 121.748 45.56C115.718 44.6029 111.89 44.22 108.253 41.2529C104.041 37.9029 94.2783 29.7671 94.2783 29.7671V26.8Z" fill="white"/>
<path fill-rule="evenodd" clip-rule="evenodd" d="M94.2783 32.2559C94.2783 32.2559 106.051 41.6359 108.253 43.263C110.454 44.8902 113.325 46.8045 121.844 48.0488C130.171 49.293 134.478 49.8664 134.478 49.8664V50.5373C134.478 50.5373 126.917 49.3878 121.844 48.8145C116.771 48.1445 112.847 47.8573 108.348 44.8902C103.945 41.923 94.374 35.223 94.374 35.223V32.2559H94.2783Z" fill="white"/>
<path fill-rule="evenodd" clip-rule="evenodd" d="M94.2783 37.4239C94.2783 37.4239 106.051 45.2725 108.348 46.5168C110.55 47.762 113.23 49.771 121.844 50.9206C130.458 52.0691 134.478 52.5477 134.478 52.5477V53.2168C134.478 53.2168 127.3 52.451 121.748 51.8777C116.197 51.3025 112.368 50.442 108.253 48.1439C104.137 45.8477 94.2783 40.1049 94.2783 40.1049V37.4239Z" fill="white"/>
<path fill-rule="evenodd" clip-rule="evenodd" d="M94.2783 42.6882C94.2783 42.6882 104.711 48.3353 108.253 50.1549C112.177 52.1639 115.623 53.121 121.748 53.792C127.778 54.5568 134.478 55.2277 134.478 55.2277V55.8977C134.478 55.8977 128.353 55.2277 121.748 54.6525C115.24 54.0782 112.943 53.792 108.253 51.6853C104.041 49.8668 94.2783 45.2725 94.2783 45.2725V42.6882Z" fill="white"/>
<path fill-rule="evenodd" clip-rule="evenodd" d="M94.2783 48.0488C94.2783 48.0488 102.51 51.5902 108.348 53.8873C114.091 56.1845 118.398 56.3759 121.844 56.7588C123.375 56.9502 134.478 58.0988 134.478 58.0988V58.7688C134.478 58.7688 127.874 58.1945 121.844 57.7159C115.814 57.1416 113.23 56.9502 108.348 55.3231C103.371 53.695 94.374 50.5373 94.374 50.5373V48.0488H94.2783Z" fill="white"/>
<path fill-rule="evenodd" clip-rule="evenodd" d="M94.2783 53.4084C94.2783 53.4084 102.605 55.9927 108.253 57.5241C113.9 59.0555 119.164 59.6298 121.748 59.8212C124.333 60.0127 134.383 60.7784 134.383 60.7784V61.3527C134.383 61.3527 128.64 60.9698 121.653 60.4912C116.005 60.1084 111.411 59.6298 108.157 58.9598C104.52 58.1941 94.1826 55.7055 94.1826 55.7055V53.4084H94.2783Z" fill="white"/>
<path fill-rule="evenodd" clip-rule="evenodd" d="M94.2783 58.769C94.2783 58.769 101.074 59.9166 108.253 61.1618C113.613 62.0223 120.983 62.5975 121.748 62.6932C122.514 62.6932 134.478 63.5547 134.478 63.5547V64.129C134.478 64.129 126.821 63.7451 121.748 63.458C116.484 63.1718 111.22 62.8847 108.253 62.5009C101.553 61.8309 94.2783 60.8737 94.2783 60.8737V58.769Z" fill="white"/>
<path fill-rule="evenodd" clip-rule="evenodd" d="M94.2783 64.3202C94.2783 64.3202 104.998 64.7021 108.253 64.7988C111.507 64.8945 134.478 65.7559 134.478 65.7559V66.4259H94.2783V64.3202Z" fill="white"/>
<path fill-rule="evenodd" clip-rule="evenodd" d="M121.748 33.5C111.985 31.3943 109.784 27.8529 108.157 25.6514C106.53 23.45 94.1826 5.45572 94.1826 5.45572V9.47572C94.6612 10.1457 105.19 23.9286 108.157 27.6614C111.507 31.9686 116.675 32.9257 121.653 33.9786C126.63 35.0314 134.383 36.5629 134.383 36.5629V35.9886C134.478 35.9886 124.237 33.9786 121.748 33.5" fill="white"/>
<path fill-rule="evenodd" clip-rule="evenodd" d="M121.748 36.2756C113.804 34.7442 110.55 32.1599 108.157 29.0971C105.86 26.0342 94.1826 10.7199 94.1826 10.7199V14.5485C94.6612 15.1228 105.285 27.6613 108.157 30.9156C111.507 34.7442 116.101 35.7013 121.748 36.7542C127.395 37.8071 134.478 39.1471 134.478 39.1471V38.5728C134.478 38.6685 126.343 37.2328 121.748 36.2756" fill="white"/>
<path fill-rule="evenodd" clip-rule="evenodd" d="M121.748 39.2429C113.421 37.6157 111.698 36.2757 108.253 32.4471C106.051 30.0543 94.7569 16.75 94.2783 16.1757V19.7171C94.2783 19.7171 104.807 30.9157 108.253 34.2657C112.655 38.6686 116.867 38.9557 121.844 39.8171C126.821 40.6786 134.573 42.1143 134.573 42.1143V41.54C134.478 41.54 125.098 39.9129 121.748 39.2429" fill="white"/>
<path fill-rule="evenodd" clip-rule="evenodd" d="M85.3358 27.5655H27.4697V66.3298H85.3769V27.5655H85.3358Z" fill="#004494" stroke="white" stroke-width="2"/>
<path fill-rule="evenodd" clip-rule="evenodd" d="M57.0463 33.1172H59.0563L57.4291 34.3615L58.0991 36.3715L56.472 35.1272L54.8448 36.3715L55.5148 34.3615L53.8877 33.1172H55.8977L56.472 31.203L57.0463 33.1172Z" fill="#FFF100"/>
<path fill-rule="evenodd" clip-rule="evenodd" d="M57.142 58.9596H59.152L57.5248 60.2049L58.1948 62.1191L56.5677 60.9706L54.9405 62.1191L55.6105 60.2049L53.9834 58.9596H55.9934L56.5677 57.0453L57.142 58.9596Z" fill="#FFF100"/>
<path fill-rule="evenodd" clip-rule="evenodd" d="M63.5541 57.2369H65.5641L63.9369 58.4812L64.6069 60.3955L62.9798 59.2479L61.3527 60.3955L62.0227 58.4812L60.2998 57.2369H62.3098L62.8841 55.3227L63.5541 57.2369Z" fill="#FFF100"/>
<path fill-rule="evenodd" clip-rule="evenodd" d="M63.5541 34.8399H65.5641L63.9369 36.0842L64.6069 37.9985L62.9798 36.8499L61.3527 37.9985L62.0227 36.0842L60.2998 34.8399H62.3098L62.8841 32.9256L63.5541 34.8399Z" fill="#FFF100"/>
<path fill-rule="evenodd" clip-rule="evenodd" d="M68.3402 39.6261H70.3502L68.7231 40.8704L69.3931 42.7847L67.7659 41.6361L66.0431 42.7847L66.7131 40.8704L65.0859 39.6261H67.0959L67.6702 37.7118L68.3402 39.6261Z" fill="#FFF100"/>
<path fill-rule="evenodd" clip-rule="evenodd" d="M68.3402 52.5475H70.3502L68.7231 53.7918L69.3931 55.7061L67.6702 54.5575L66.0431 55.7061L66.7131 53.7918L65.0859 52.5475H67.0959L67.6702 50.6332L68.3402 52.5475Z" fill="#FFF100"/>
<path fill-rule="evenodd" clip-rule="evenodd" d="M70.0629 45.9429H72.0729L70.4457 47.1871L71.1157 49.1014L69.4886 47.9529L67.8614 49.1014L68.5314 47.1871L66.9043 45.9429H68.9143L69.4886 44.0286L70.0629 45.9429Z" fill="#FFF100"/>
<path fill-rule="evenodd" clip-rule="evenodd" d="M50.5365 34.8399H52.5465L50.9194 36.0842L51.5894 37.9985L49.9622 36.8499L48.3351 37.9985L49.0051 36.0842L47.3779 34.8399H49.3879L49.9622 32.9256L50.5365 34.8399Z" fill="#FFF100"/>
<path fill-rule="evenodd" clip-rule="evenodd" d="M45.9428 39.6261H47.9528L46.3256 40.8704L46.9956 42.7847L45.3685 41.6361L43.7413 42.7847L44.4113 40.8704L42.7842 39.6261H44.7942L45.3685 37.7118L45.9428 39.6261Z" fill="#FFF100"/>
<path fill-rule="evenodd" clip-rule="evenodd" d="M44.2201 46.0382H46.2301L44.603 47.2834L45.273 49.1977L43.6458 48.0491L42.0187 49.1977L42.6887 47.2834L41.0615 46.0382H43.0715L43.6458 44.1239L44.2201 46.0382Z" fill="#FFF100"/>
<path fill-rule="evenodd" clip-rule="evenodd" d="M45.9428 52.5475H47.9528L46.3256 53.7918L46.9956 55.7061L45.3685 54.5575L43.7413 55.7061L44.4113 53.7918L42.7842 52.5475H44.7942L45.3685 50.6332L45.9428 52.5475Z" fill="#FFF100"/>
<path fill-rule="evenodd" clip-rule="evenodd" d="M50.6332 57.2369H52.6432L51.016 58.4812L51.686 60.3955L50.0589 59.2479L48.4318 60.3955L49.1018 58.4812L47.4746 57.2369H49.4846L50.0589 55.3227L50.6332 57.2369Z" fill="#FFF100"/>
<path fill-rule="evenodd" clip-rule="evenodd" d="M143.38 33.6916C143.38 33.4045 143.477 33.3088 143.763 33.3088H150.846C151.134 33.3088 151.228 33.4045 151.228 33.6916V34.8402C151.228 35.0316 151.134 35.223 150.846 35.223H145.581V38.573H150.271C150.558 38.573 150.655 38.6688 150.655 38.9559V40.1045C150.655 40.2949 150.558 40.4873 150.271 40.4873H145.581V44.3159H150.941C151.134 44.3159 151.324 44.4116 151.324 44.6988V45.8473C151.324 46.0378 151.228 46.2302 150.941 46.2302H143.763C143.477 46.2302 143.38 46.1345 143.38 45.8473V33.6916Z" fill="white"/>
<path fill-rule="evenodd" clip-rule="evenodd" d="M160.992 46.0382H159.652C159.556 46.0382 159.46 46.0382 159.365 45.9425C159.269 45.8477 159.269 45.751 159.269 45.6563V45.081C159.078 45.1777 158.886 45.3691 158.599 45.4639C158.312 45.5596 158.121 45.751 157.834 45.8477C157.545 45.9425 157.259 46.0382 156.972 46.1349C156.685 46.2296 156.398 46.2296 156.11 46.2296C155.441 46.2296 154.962 46.1349 154.579 45.9425C154.195 45.751 153.909 45.5596 153.717 45.1777C153.526 44.8906 153.431 44.5068 153.335 44.0282C153.238 43.5496 153.238 43.1668 153.238 42.5925V36.9453C153.238 36.6582 153.335 36.5634 153.622 36.5634H155.058C155.249 36.5634 155.441 36.6582 155.441 36.9453V42.3063C155.441 42.5925 155.441 42.8796 155.536 43.071C155.536 43.2634 155.631 43.4549 155.728 43.6453C155.824 43.8368 156.015 43.9334 156.11 44.0282C156.206 44.1239 156.494 44.1239 156.781 44.1239C156.972 44.1239 157.164 44.1239 157.451 44.0282C157.738 43.9334 157.929 43.8368 158.216 43.742C158.503 43.6453 158.695 43.5496 158.886 43.4549C159.078 43.3582 159.269 43.2634 159.365 43.1668V36.7539C159.365 36.6582 159.365 36.5634 159.46 36.4668C159.556 36.371 159.652 36.371 159.748 36.371H161.088C161.374 36.371 161.471 36.4668 161.471 36.7539V45.4639C161.374 45.9425 161.279 46.0382 160.992 46.0382" fill="white"/>
<path fill-rule="evenodd" clip-rule="evenodd" d="M165.872 45.7512C165.872 46.0384 165.777 46.1341 165.49 46.1341H164.055C163.767 46.1341 163.671 46.0384 163.671 45.7512V37.0412C163.671 36.7541 163.767 36.6584 164.055 36.6584H165.394C165.681 36.6584 165.777 36.7541 165.777 37.0412V37.9027C165.872 37.807 166.064 37.6155 166.351 37.5198C166.542 37.3284 166.829 37.2327 167.117 37.137C167.405 37.0412 167.691 36.9455 167.883 36.7541C168.169 36.6584 168.362 36.5627 168.648 36.5627H168.935C169.031 36.5627 169.031 36.6584 169.127 36.8498L169.222 38.0941V38.3812C169.222 38.477 169.127 38.477 168.84 38.5727C168.552 38.6693 168.265 38.6693 167.978 38.7641C167.691 38.8598 167.405 38.9555 167.117 38.9555C166.829 39.0512 166.542 39.1479 166.351 39.2427C166.159 39.3384 165.872 39.4341 165.777 39.4341L165.872 45.7512Z" fill="white"/>
<path fill-rule="evenodd" clip-rule="evenodd" d="M176.401 41.3488C176.401 40.8702 176.401 40.3916 176.305 40.0088C176.21 39.6259 176.114 39.3378 176.019 39.0516C175.827 38.7645 175.635 38.573 175.348 38.4773C175.062 38.3807 174.774 38.2859 174.295 38.2859C173.913 38.2859 173.53 38.3807 173.338 38.4773C173.051 38.573 172.86 38.7645 172.764 39.0516C172.573 39.3378 172.477 39.6259 172.477 40.0088C172.381 40.3916 172.381 40.8702 172.381 41.3488C172.381 41.8273 172.381 42.3059 172.477 42.6878C172.573 43.0716 172.669 43.3588 172.764 43.6449C172.86 43.933 173.148 44.1235 173.338 44.2202C173.53 44.3159 173.913 44.4116 174.295 44.4116C174.774 44.4116 175.062 44.3159 175.348 44.2202C175.635 44.1235 175.827 43.933 176.019 43.6449C176.21 43.3588 176.305 43.0716 176.305 42.6878C176.305 42.3059 176.401 41.8273 176.401 41.3488M178.603 41.2521C178.603 41.8273 178.603 42.4016 178.507 42.9759C178.412 43.5502 178.22 44.1235 177.934 44.6021C177.645 45.0807 177.263 45.4645 176.688 45.8473C176.114 46.1345 175.348 46.3259 174.391 46.3259C173.434 46.3259 172.669 46.1345 172.094 45.8473C171.52 45.5592 171.137 45.1773 170.85 44.6021C170.563 44.1235 170.371 43.5502 170.371 42.9759C170.276 42.4016 170.276 41.8273 170.276 41.2521C170.276 40.7735 170.276 40.2949 170.371 39.7216C170.467 39.1473 170.658 38.6688 170.945 38.1902C171.234 37.7116 171.615 37.3288 172.191 36.9459C172.764 36.6588 173.434 36.4673 174.391 36.4673C175.348 36.4673 176.114 36.563 176.593 36.8502C177.167 37.1373 177.55 37.5202 177.837 37.9988C178.124 38.4773 178.315 38.9559 178.412 39.5302C178.507 40.1045 178.603 40.6788 178.603 41.2521" fill="white"/>
<path fill-rule="evenodd" clip-rule="evenodd" d="M186.643 41.2525C186.643 40.6782 186.643 40.1049 186.548 39.8168C186.452 39.4349 186.356 39.1477 186.26 38.9563C186.165 38.7639 185.973 38.5725 185.782 38.5725C185.59 38.4777 185.399 38.4777 185.112 38.4777C184.92 38.4777 184.729 38.4777 184.442 38.5725C184.155 38.6692 183.963 38.6692 183.676 38.7639C183.485 38.8596 183.198 38.9563 183.006 39.0511C182.815 39.1477 182.623 39.2425 182.432 39.3382V44.1239C182.91 44.2206 183.293 44.3153 183.58 44.412C183.868 44.5068 184.25 44.5068 184.633 44.5068C185.016 44.5068 185.303 44.412 185.495 44.3153C185.686 44.2206 185.878 44.0282 186.069 43.8368C186.26 43.5496 186.356 43.2634 186.356 42.8796C186.548 42.4011 186.643 41.9225 186.643 41.2525M188.749 41.3492C188.749 42.1139 188.653 42.7849 188.558 43.4549C188.462 44.0282 188.27 44.6025 187.983 44.9853C187.696 45.3692 187.313 45.7511 186.835 45.9425C186.356 46.1349 185.686 46.2296 184.92 46.2296C184.633 46.2296 184.25 46.2296 183.772 46.1349C183.293 46.0382 182.91 45.9425 182.432 45.8477V49.1977C182.432 49.2925 182.432 49.3882 182.336 49.4849C182.24 49.5796 182.145 49.5796 182.049 49.5796H180.709C180.518 49.5796 180.422 49.5796 180.422 49.4849C180.422 49.3882 180.326 49.2925 180.326 49.1977V37.042C180.326 36.7539 180.422 36.6582 180.709 36.6582H182.049C182.145 36.6582 182.24 36.6582 182.336 36.7539C182.432 36.8496 182.432 36.9453 182.432 37.042V37.6153H182.528C182.719 37.5206 182.91 37.4239 183.102 37.2325C183.293 37.1368 183.58 36.9453 183.868 36.8496C184.155 36.7539 184.442 36.6582 184.729 36.5634C185.016 36.4668 185.303 36.4668 185.59 36.4668C186.26 36.4668 186.739 36.5634 187.122 36.8496C187.505 37.042 187.888 37.4239 188.079 37.8068C188.27 38.1906 188.462 38.7639 188.558 39.3382C188.749 39.9134 188.749 40.5834 188.749 41.3492" fill="white"/>
<path fill-rule="evenodd" clip-rule="evenodd" d="M196.693 35.4143C196.215 35.4143 195.927 35.3186 195.832 35.1271C195.736 34.9357 195.64 34.6486 195.64 34.3614C195.64 34.0743 195.736 33.7871 195.832 33.5957C195.927 33.4043 196.215 33.3086 196.693 33.3086C197.172 33.3086 197.459 33.4043 197.555 33.5957C197.65 33.7871 197.746 34.0743 197.746 34.3614C197.746 34.6486 197.65 34.9357 197.555 35.1271C197.459 35.3186 197.172 35.4143 196.693 35.4143V35.4143ZM196.31 41.8271H194.013C193.535 41.8271 193.152 41.9229 192.865 42.21C192.577 42.4014 192.482 42.88 192.482 43.4543C192.482 43.8371 192.577 44.1243 192.769 44.3157C192.96 44.5071 193.247 44.6029 193.726 44.6029C193.917 44.6029 194.109 44.6029 194.396 44.5071C194.683 44.4114 194.875 44.4114 195.162 44.3157C195.449 44.22 195.64 44.1243 195.832 44.0286C196.023 43.9329 196.31 43.8371 196.406 43.7414V41.8271H196.31ZM192.96 35.4143C192.673 35.4143 192.482 35.4143 192.386 35.3186C192.29 35.2229 192.099 35.2229 192.099 35.0314C192.099 34.84 192.003 34.84 191.907 34.6486C191.812 34.4571 191.907 34.3614 191.907 34.2657C191.907 33.9786 192.003 33.6914 192.099 33.5C192.195 33.3086 192.482 33.2129 192.96 33.2129C193.439 33.2129 193.726 33.3086 193.822 33.5C193.917 33.6914 194.013 33.9786 194.013 34.2657C194.013 34.5529 193.917 34.84 193.822 35.0314C193.63 35.2229 193.343 35.4143 192.96 35.4143V35.4143ZM196.406 44.9857C195.927 45.3686 195.353 45.6557 194.779 45.8471C194.205 46.0386 193.535 46.23 192.865 46.23C192.386 46.23 191.907 46.1343 191.62 46.0386C191.237 45.9429 191.046 45.7514 190.855 45.4643C190.663 45.2729 190.472 44.9857 190.472 44.6029C190.376 44.3157 190.376 43.9329 190.376 43.4543C190.376 42.3057 190.663 41.54 191.237 40.9657C191.812 40.4871 192.769 40.2 193.917 40.2H196.406V39.7214C196.406 39.4343 196.406 39.2429 196.31 38.9557C196.215 38.7643 196.119 38.5729 196.023 38.4771C195.927 38.3814 195.64 38.2857 195.449 38.19C195.162 38.0943 194.875 38.0943 194.492 38.0943H193.917H193.247C193.056 38.0943 192.769 38.0943 192.577 38.19C192.386 38.19 192.099 38.19 191.907 38.2857H191.525C191.429 38.2857 191.429 38.19 191.333 37.9986L191.142 37.3286V37.0414C191.237 36.9457 191.333 36.85 191.525 36.7543C191.716 36.6586 192.003 36.6586 192.29 36.5629C192.577 36.4671 192.865 36.4671 193.152 36.4671C193.439 36.4671 193.726 36.3714 194.013 36.3714H194.779C195.64 36.3714 196.31 36.4671 196.789 36.6586C197.267 36.85 197.65 37.0414 197.937 37.3286C198.225 37.6157 198.32 37.9986 198.416 38.4771C198.512 38.9557 198.512 39.4343 198.512 39.9129V43.6457V44.1243C198.512 44.22 198.607 44.3157 198.607 44.4114C198.607 44.5071 198.703 44.5071 198.799 44.5071C198.895 44.5071 198.99 44.5071 199.182 44.6029C199.277 44.6029 199.373 44.6029 199.469 44.6986C199.565 44.6986 199.565 44.7943 199.565 44.89V45.6557C199.565 45.8471 199.373 46.0386 199.086 46.0386C198.895 46.0386 198.799 46.0386 198.607 46.1343H198.129C197.65 46.1343 197.363 46.0386 197.076 45.8471C196.789 45.7514 196.597 45.4643 196.406 44.9857V44.9857Z" fill="white"/>
<path fill-rule="evenodd" clip-rule="evenodd" d="M203.201 45.7512C203.201 45.8479 203.201 45.9427 203.106 46.0384C203.01 46.1341 203.01 46.1341 202.82 46.1341H201.479C201.191 46.1341 201.096 46.0384 201.096 45.7512V37.0412C201.096 36.7541 201.191 36.6584 201.479 36.6584H202.82C202.914 36.6584 203.01 36.6584 203.106 36.7541C203.201 36.8498 203.201 36.9455 203.201 37.0412V45.7512ZM203.298 34.1698V34.6484C203.298 34.7441 203.201 34.9355 203.106 35.0312C203.01 35.1269 202.914 35.2227 202.723 35.3184C202.531 35.4141 202.341 35.4141 202.149 35.4141C201.862 35.4141 201.67 35.4141 201.574 35.3184C201.384 35.2227 201.287 35.1269 201.191 35.0312C201.096 34.9355 201.096 34.8398 201 34.6484V34.2655C201 33.9784 201.096 33.6912 201.191 33.4998C201.384 33.3084 201.67 33.2127 202.149 33.2127C202.627 33.2127 202.914 33.3084 203.106 33.4998C203.298 33.5955 203.298 33.7869 203.298 34.1698V34.1698Z" fill="white"/>
<path fill-rule="evenodd" clip-rule="evenodd" d="M212.581 43.263C212.581 43.8373 212.485 44.3159 212.294 44.6988C212.102 45.0807 211.815 45.3688 211.433 45.6559C211.049 45.8473 210.667 46.0378 210.188 46.1345C209.709 46.2302 209.231 46.3259 208.752 46.3259C208.274 46.3259 207.699 46.3259 207.221 46.2302C206.648 46.1345 206.169 46.0378 205.785 45.943C205.594 45.8473 205.499 45.7516 205.402 45.6559C205.307 45.5592 205.307 45.4645 205.402 45.273L205.499 44.6021C205.499 44.4116 205.594 44.3159 205.69 44.3159H206.072C206.264 44.3159 206.551 44.4116 206.742 44.4116C207.029 44.4116 207.221 44.4116 207.508 44.5073C207.795 44.5073 207.987 44.5073 208.178 44.6021H208.752C209.328 44.6021 209.806 44.5073 210.092 44.3159C210.379 44.1235 210.476 43.8373 210.476 43.4545C210.476 43.263 210.476 43.0716 210.379 42.8802C210.285 42.6878 210.285 42.593 210.092 42.4973C209.901 42.4016 209.806 42.3059 209.614 42.3059C209.422 42.2092 209.135 42.2092 208.849 42.1145C208.37 42.0188 207.892 41.923 207.508 41.8273C207.126 41.7307 206.742 41.5402 206.359 41.3488C206.072 41.1573 205.785 40.8702 205.594 40.583C205.402 40.2949 205.307 39.8164 205.307 39.3378C205.307 38.3807 205.594 37.7116 206.264 37.1373C206.935 36.6588 207.795 36.3716 208.849 36.3716H209.519C209.806 36.3716 209.998 36.3716 210.285 36.4673C210.571 36.563 210.763 36.563 211.049 36.563C211.337 36.6588 211.528 36.6588 211.72 36.7545C212.007 36.8502 212.199 37.0416 212.102 37.3288L211.912 37.9988C211.912 38.0945 211.815 38.1902 211.72 38.2859H211.337C210.955 38.1902 210.476 38.1902 209.998 38.0945C209.519 37.9988 209.04 37.9988 208.752 37.9988C208.178 37.9988 207.699 38.0945 207.508 38.2859C207.317 38.4773 207.221 38.7645 207.221 39.1473C207.221 39.5302 207.317 39.7216 207.605 39.913C207.892 40.1045 208.274 40.1045 208.849 40.2002C209.328 40.2949 209.709 40.3916 210.188 40.4873C210.667 40.583 210.955 40.7735 211.337 40.9659C211.624 41.1573 211.912 41.4445 212.102 41.8273C212.485 42.2092 212.581 42.6878 212.581 43.263" fill="white"/>
<path fill-rule="evenodd" clip-rule="evenodd" d="M221.579 45.1773V45.5592C221.579 45.6559 221.388 45.7516 221.292 45.8473C220.909 46.0378 220.43 46.1345 219.952 46.2302C219.378 46.3259 218.899 46.3259 218.42 46.3259C217.559 46.3259 216.793 46.2302 216.219 45.9431C215.645 45.6559 215.262 45.2731 214.975 44.8902C214.688 44.4116 214.496 43.9331 214.4 43.3588C214.305 42.7845 214.305 42.1145 214.305 41.4445C214.305 40.8702 214.305 40.295 214.496 39.7216C214.592 39.1473 214.783 38.5731 215.07 38.1902C215.358 37.7116 215.74 37.3288 216.315 37.0416C216.889 36.7545 217.559 36.6588 218.42 36.6588H219.186C219.473 36.6588 219.665 36.6588 219.952 36.7545C220.239 36.7545 220.43 36.8502 220.718 36.9459C221.005 37.0416 221.196 37.0416 221.388 37.1373C221.579 37.2331 221.675 37.4235 221.675 37.7116L221.579 38.4773C221.579 38.5731 221.483 38.6688 221.388 38.7645H221.005C220.622 38.7645 220.239 38.6688 219.76 38.6688C219.282 38.6688 218.995 38.5731 218.612 38.5731C217.846 38.5731 217.272 38.7645 216.985 39.2431C216.698 39.7216 216.506 40.4873 216.506 41.5402C216.506 42.1145 216.506 42.5931 216.602 43.0716C216.698 43.4545 216.793 43.7416 216.985 44.0288C217.176 44.3159 217.368 44.4116 217.655 44.5073C217.942 44.6021 218.229 44.6988 218.612 44.6988C218.899 44.6988 219.282 44.6988 219.76 44.6021C220.239 44.6021 220.718 44.5073 221.1 44.5073H221.483C221.579 44.5073 221.579 44.6021 221.675 44.7945L221.579 45.1773Z" fill="white"/>
<path fill-rule="evenodd" clip-rule="evenodd" d="M230.767 46.0382H229.428C229.14 46.0382 229.044 45.9425 229.044 45.6563V42.8796V40.1049C229.044 39.5296 228.949 39.1477 228.757 38.7639C228.565 38.4777 228.183 38.2853 227.608 38.2853C227.417 38.2853 227.226 38.2853 226.938 38.3811C226.651 38.4777 226.459 38.5725 226.172 38.6692C225.885 38.7639 225.694 38.8596 225.502 38.9563C225.312 39.0511 225.12 39.1477 225.024 39.1477V45.6563C225.024 45.7511 225.024 45.8477 224.928 45.9425C224.833 46.0382 224.737 46.0382 224.642 46.0382H223.301C223.109 46.0382 222.919 45.9425 222.919 45.6563V32.9253C222.919 32.6382 223.014 32.5425 223.301 32.5425H224.642C224.928 32.5425 225.024 32.6382 225.024 32.9253V37.6153C225.215 37.5206 225.407 37.4239 225.599 37.2325C225.885 37.1368 226.078 37.042 226.364 36.8496C226.651 36.7539 226.938 36.6582 227.226 36.5634C227.513 36.4668 227.799 36.4668 228.087 36.4668C228.757 36.4668 229.235 36.5634 229.619 36.7539C230.001 36.9453 230.288 37.2325 230.479 37.5206C230.671 37.8068 230.767 38.2853 230.863 38.6692C230.958 39.1477 230.958 39.5296 230.958 40.1049V45.6563C231.245 45.9425 231.055 46.0382 230.767 46.0382" fill="white"/>
<path fill-rule="evenodd" clip-rule="evenodd" d="M237.18 38.1904C236.798 38.1904 236.51 38.2861 236.32 38.3808C236.127 38.4775 235.936 38.6689 235.744 38.8594C235.553 39.0508 235.457 39.338 235.457 39.6261C235.363 39.9132 235.363 40.2004 235.363 40.5832H239.191C239.191 40.2951 239.191 40.008 239.094 39.7218C238.999 39.4347 238.903 39.2432 238.807 38.9561C238.713 38.7647 238.52 38.5723 238.234 38.4775C237.946 38.3808 237.563 38.1904 237.18 38.1904V38.1904ZM235.17 41.9223C235.17 42.4008 235.266 42.7847 235.363 43.1666C235.457 43.4547 235.649 43.7418 235.841 43.9332C236.032 44.1237 236.223 44.2204 236.51 44.3151C236.798 44.4118 237.084 44.4118 237.563 44.4118C237.946 44.4118 238.329 44.4118 238.807 44.3151C239.286 44.2204 239.67 44.2204 240.052 44.2204H240.434C240.53 44.2204 240.53 44.3151 240.627 44.5075L240.722 45.1775V45.5594C240.722 45.6561 240.627 45.7508 240.434 45.8475C240.243 45.9432 240.052 46.038 239.764 46.038C239.477 46.1347 239.286 46.1347 238.999 46.2294C238.713 46.2294 238.424 46.3261 238.137 46.3261H237.372C236.414 46.3261 235.744 46.2294 235.17 45.9432C234.596 45.6561 234.213 45.2723 233.927 44.8904C233.639 44.4118 233.448 43.9332 233.352 43.358C233.256 42.7847 233.16 42.2094 233.16 41.5404C233.16 41.0618 233.16 40.5832 233.256 40.008C233.352 39.4347 233.543 38.8594 233.83 38.3808C234.117 37.9023 234.5 37.4237 235.074 37.1366C235.649 36.7547 236.32 36.658 237.277 36.658C238.137 36.658 238.807 36.7547 239.382 37.0418C239.956 37.3289 240.339 37.6151 240.627 37.9989C240.913 38.3808 241.105 38.8594 241.2 39.338C241.296 39.8166 241.392 40.3918 241.392 40.8704C241.392 41.2523 241.392 41.5404 241.2 41.7308C241.105 41.9223 240.817 42.0189 240.434 42.0189H235.17V41.9223Z" fill="white"/>
<path fill-rule="evenodd" clip-rule="evenodd" d="M145.581 59.7261L147.017 57.8118L150.271 53.7918C150.367 53.6951 150.464 53.6004 150.558 53.6004C150.655 53.6004 150.75 53.5047 150.942 53.5047H152.664C152.76 53.5047 152.857 53.5047 152.951 53.6004C152.951 53.6951 152.951 53.7918 152.857 53.8866L148.644 58.9594L152.951 65.8509C153.048 65.9475 153.048 66.0432 152.951 66.138C152.857 66.2347 152.857 66.2347 152.76 66.2347H151.037C150.846 66.2347 150.75 66.2347 150.655 66.138C150.558 66.0432 150.464 65.9475 150.367 65.8509L147.208 60.5866L145.486 62.6932V66.0432C145.486 66.138 145.486 66.2347 145.391 66.3294C145.294 66.4261 145.294 66.4261 145.103 66.4261H143.667C143.38 66.4261 143.285 66.3294 143.285 66.0432V53.9832C143.285 53.6951 143.38 53.6004 143.667 53.6004H145.103C145.199 53.6004 145.294 53.6004 145.391 53.6951C145.391 53.7918 145.486 53.8866 145.486 53.9832L145.581 59.7261Z" fill="white"/>
<path fill-rule="evenodd" clip-rule="evenodd" d="M160.226 61.6404C160.226 61.1618 160.226 60.6832 160.13 60.3004C160.035 59.9166 159.938 59.6294 159.843 59.3432C159.651 59.0561 159.46 58.8647 159.172 58.769C158.886 58.6723 158.599 58.5775 158.121 58.5775C157.737 58.5775 157.355 58.6723 157.163 58.769C156.876 58.8647 156.685 59.0561 156.588 59.3432C156.398 59.6294 156.301 59.9166 156.301 60.3004C156.206 60.6832 156.206 61.1618 156.206 61.6404C156.206 62.119 156.206 62.5975 156.301 62.9794C156.398 63.3632 156.493 63.6504 156.588 63.9366C156.685 64.2237 156.972 64.4151 157.163 64.5118C157.355 64.6075 157.737 64.7023 158.121 64.7023C158.599 64.7023 158.886 64.6075 159.172 64.5118C159.46 64.4151 159.651 64.2237 159.843 63.9366C160.035 63.6504 160.13 63.3632 160.13 62.9794C160.13 62.5975 160.226 62.119 160.226 61.6404M162.428 61.5437C162.428 62.119 162.428 62.6932 162.331 63.2666C162.236 63.8418 162.044 64.4151 161.758 64.8937C161.471 65.3723 161.087 65.7561 160.513 66.138C159.938 66.4261 159.172 66.6166 158.215 66.6166C157.258 66.6166 156.493 66.4261 155.919 66.138C155.344 65.8509 154.962 65.469 154.674 64.8937C154.387 64.4151 154.195 63.8418 154.195 63.2666C154.101 62.6932 154.101 62.119 154.101 61.5437C154.101 61.0651 154.101 60.5866 154.195 60.0132C154.292 59.438 154.483 58.9594 154.771 58.4809C155.058 58.0023 155.441 57.6204 156.015 57.2366C156.588 56.9504 157.258 56.758 158.215 56.758C159.172 56.758 159.938 56.8547 160.417 57.1418C160.992 57.429 161.374 57.8118 161.662 58.2904C161.949 58.769 162.141 59.2475 162.236 59.8218C162.331 60.3951 162.428 60.9704 162.428 61.5437" fill="white"/>
<path fill-rule="evenodd" clip-rule="evenodd" d="M177.933 66.2345C177.933 66.3302 177.837 66.3302 177.645 66.3302H176.306C176.019 66.3302 175.922 66.2345 175.922 65.9473V60.4916C175.922 59.8216 175.828 59.2473 175.636 59.0559C175.444 58.7688 175.062 58.673 174.583 58.673C174.392 58.673 174.2 58.673 174.008 58.7688C173.817 58.8645 173.529 58.8645 173.338 58.9592C173.148 59.0559 172.859 59.1516 172.669 59.2473C172.478 59.343 172.286 59.4378 172.094 59.5345V59.9164V60.4916V66.043C172.094 66.1378 172.094 66.2345 171.999 66.3302C171.902 66.4259 171.808 66.4259 171.712 66.4259H170.276C170.085 66.4259 169.988 66.3302 169.988 66.043V60.4916C169.988 59.9164 169.893 59.4378 169.701 59.1516C169.509 58.8645 169.222 58.7688 168.744 58.7688C168.552 58.7688 168.362 58.7688 168.17 58.8645C167.979 58.9592 167.787 58.9592 167.5 59.0559C167.308 59.1516 167.022 59.2473 166.829 59.343C166.638 59.4378 166.448 59.5345 166.256 59.6302V66.043C166.256 66.3302 166.159 66.4259 165.872 66.4259H164.629C164.437 66.4259 164.245 66.3302 164.245 66.043V57.333C164.245 57.0449 164.342 56.9502 164.629 56.9502H165.969C166.256 56.9502 166.351 57.0449 166.351 57.333V57.9073C166.543 57.8116 166.735 57.6202 166.926 57.5235C167.117 57.4288 167.405 57.2373 167.595 57.1416C167.787 57.0449 168.074 56.9502 168.362 56.8545C168.649 56.7588 168.84 56.7588 169.128 56.7588C169.701 56.7588 170.179 56.8545 170.658 57.0449C171.137 57.2373 171.52 57.6202 171.808 58.0988C172.286 57.7159 172.859 57.4288 173.435 57.1416C174.008 56.8545 174.583 56.7588 175.252 56.7588C175.922 56.7588 176.401 56.8545 176.785 57.0449C177.167 57.2373 177.455 57.5235 177.645 57.8116C177.837 58.0988 177.933 58.4807 178.029 58.9592C178.124 59.4378 178.124 59.8216 178.124 60.3002V66.043C178.029 66.1378 178.029 66.2345 177.933 66.2345" fill="white"/>
<path fill-rule="evenodd" clip-rule="evenodd" d="M193.822 66.2345C193.822 66.3302 193.726 66.3302 193.535 66.3302H192.195C191.908 66.3302 191.812 66.2345 191.812 65.9473V60.4916C191.812 59.8216 191.716 59.2473 191.525 59.0559C191.333 58.7688 190.95 58.673 190.472 58.673C190.28 58.673 190.089 58.673 189.898 58.7688C189.706 58.8645 189.419 58.8645 189.228 58.9592C189.036 59.0559 188.749 59.1516 188.558 59.2473C188.366 59.343 188.175 59.4378 187.983 59.5345V59.9164V60.4916V66.043C187.983 66.1378 187.983 66.2345 187.888 66.3302C187.792 66.4259 187.696 66.4259 187.6 66.4259H186.165C185.973 66.4259 185.878 66.3302 185.878 66.043V60.4916C185.878 59.9164 185.782 59.4378 185.59 59.1516C185.399 58.8645 185.112 58.7688 184.633 58.7688C184.442 58.7688 184.25 58.7688 184.059 58.8645C183.868 58.9592 183.676 58.9592 183.389 59.0559C183.198 59.1516 182.91 59.2473 182.719 59.343C182.528 59.4378 182.336 59.5345 182.145 59.6302V66.043C182.145 66.3302 182.049 66.4259 181.762 66.4259H180.422C180.23 66.4259 180.039 66.3302 180.039 66.043V57.333C180.039 57.0449 180.135 56.9502 180.422 56.9502H181.762C182.049 56.9502 182.145 57.0449 182.145 57.333V57.9073C182.336 57.8116 182.528 57.6202 182.719 57.5235C182.91 57.4288 183.198 57.2373 183.389 57.1416C183.58 57.0449 183.868 56.9502 184.155 56.8545C184.442 56.7588 184.633 56.7588 184.92 56.7588C185.495 56.7588 185.973 56.8545 186.452 57.0449C186.93 57.2373 187.313 57.6202 187.6 58.0988C188.079 57.7159 188.653 57.4288 189.228 57.1416C189.802 56.8545 190.376 56.7588 191.046 56.7588C191.716 56.7588 192.195 56.8545 192.578 57.0449C192.96 57.2373 193.248 57.5235 193.439 57.8116C193.63 58.0988 193.726 58.4807 193.822 58.9592C193.918 59.4378 193.918 59.8216 193.918 60.3002V66.043C193.822 66.1378 193.822 66.2345 193.822 66.2345" fill="white"/>
<path fill-rule="evenodd" clip-rule="evenodd" d="M198.321 66.0429C198.321 66.1386 198.321 66.2343 198.224 66.33C198.129 66.4257 198.129 66.4257 197.938 66.4257H196.598C196.31 66.4257 196.215 66.33 196.215 66.0429V57.3329C196.215 57.0457 196.31 56.95 196.598 56.95H197.938C198.033 56.95 198.129 56.95 198.224 57.0457C198.321 57.1414 198.321 57.2371 198.321 57.3329V66.0429ZM198.416 54.4614V54.94C198.416 55.0357 198.321 55.2271 198.224 55.3229C198.129 55.4186 198.033 55.5143 197.842 55.61C197.651 55.7057 197.459 55.7057 197.267 55.7057C196.981 55.7057 196.788 55.7057 196.693 55.61C196.502 55.5143 196.406 55.4186 196.31 55.3229C196.215 55.2271 196.215 55.1314 196.119 54.94V54.5571C196.119 54.27 196.215 53.9829 196.31 53.7914C196.502 53.6 196.788 53.5043 197.267 53.5043C197.745 53.5043 198.033 53.6 198.224 53.7914C198.321 53.8871 198.416 54.0786 198.416 54.4614V54.4614Z" fill="white"/>
<path fill-rule="evenodd" clip-rule="evenodd" d="M207.7 63.5547C207.7 64.129 207.604 64.6075 207.413 64.9904C207.221 65.3723 206.934 65.6594 206.551 65.9475C206.169 66.138 205.786 66.3294 205.307 66.4261C204.829 66.5218 204.35 66.6166 203.871 66.6166C203.393 66.6166 202.819 66.6166 202.34 66.5218C201.766 66.4261 201.287 66.3294 200.904 66.2347C200.713 66.138 200.617 66.0432 200.521 65.9475C200.426 65.8509 200.426 65.7561 200.521 65.5647L200.617 64.8937C200.617 64.7023 200.713 64.6075 200.809 64.6075H201.191C201.383 64.6075 201.67 64.7023 201.861 64.7023C202.149 64.7023 202.34 64.7023 202.627 64.799C202.914 64.799 203.106 64.799 203.297 64.8937H203.871C204.446 64.8937 204.924 64.799 205.211 64.6075C205.499 64.4151 205.594 64.129 205.594 63.7451C205.594 63.5547 205.594 63.3632 205.499 63.1718C205.403 62.9794 205.403 62.8847 205.211 62.788C205.02 62.6932 204.924 62.5975 204.733 62.5975C204.541 62.5009 204.254 62.5009 203.967 62.4061C203.489 62.3094 203.01 62.2147 202.627 62.119C202.244 62.0223 201.861 61.8309 201.479 61.6404C201.191 61.449 200.904 61.1618 200.713 60.8737C200.521 60.5866 200.426 60.108 200.426 59.6294C200.426 58.6723 200.713 58.0023 201.383 57.429C202.053 56.9504 202.914 56.6632 203.967 56.6632H204.637C204.924 56.6632 205.116 56.6632 205.403 56.758C205.69 56.8547 205.881 56.8547 206.169 56.8547C206.456 56.9504 206.647 56.9504 206.839 57.0451C207.126 57.1418 207.317 57.3332 207.221 57.6204L207.03 58.2904C207.03 58.3861 206.934 58.4809 206.839 58.5775H206.456C206.073 58.4809 205.594 58.4809 205.116 58.3861C204.637 58.2904 204.159 58.2904 203.871 58.2904C203.297 58.2904 202.819 58.3861 202.627 58.5775C202.436 58.769 202.34 59.0561 202.34 59.438C202.34 59.8218 202.436 60.0132 202.723 60.2047C203.01 60.3951 203.393 60.3951 203.967 60.4918C204.446 60.5866 204.829 60.6832 205.307 60.779C205.786 60.8737 206.073 61.0651 206.456 61.2575C206.743 61.449 207.03 61.7361 207.221 62.119C207.604 62.5009 207.7 62.9794 207.7 63.5547" fill="white"/>
<path fill-rule="evenodd" clip-rule="evenodd" d="M216.506 63.5547C216.506 64.129 216.409 64.6075 216.219 64.9904C216.027 65.3723 215.74 65.6594 215.357 65.9475C214.973 66.138 214.591 66.3294 214.113 66.4261C213.634 66.5218 213.156 66.6166 212.677 66.6166C212.199 66.6166 211.623 66.6166 211.145 66.5218C210.571 66.4261 210.093 66.3294 209.709 66.2347C209.519 66.138 209.423 66.0432 209.327 65.9475C209.23 65.8509 209.23 65.7561 209.327 65.5647L209.423 64.8937C209.423 64.7023 209.519 64.6075 209.614 64.6075H209.997C210.188 64.6075 210.476 64.7023 210.666 64.7023C210.954 64.7023 211.145 64.7023 211.433 64.799C211.72 64.799 211.911 64.799 212.102 64.8937H212.677C213.251 64.8937 213.73 64.799 214.016 64.6075C214.304 64.4151 214.4 64.129 214.4 63.7451C214.4 63.5547 214.4 63.3632 214.304 63.1718C214.209 62.9794 214.209 62.8847 214.016 62.788C213.826 62.6932 213.73 62.5975 213.538 62.5975C213.347 62.5009 213.059 62.5009 212.773 62.4061C212.294 62.3094 211.816 62.2147 211.433 62.119C211.05 62.0223 210.666 61.8309 210.284 61.6404C209.997 61.449 209.709 61.1618 209.519 60.8737C209.327 60.5866 209.23 60.108 209.23 59.6294C209.23 58.6723 209.519 58.0023 210.188 57.429C210.859 56.9504 211.72 56.6632 212.773 56.6632H213.443C213.73 56.6632 213.921 56.6632 214.209 56.758C214.495 56.8547 214.687 56.8547 214.973 56.8547C215.261 56.9504 215.452 56.9504 215.644 57.0451C215.93 57.1418 216.123 57.3332 216.027 57.6204L215.836 58.2904C215.836 58.3861 215.74 58.4809 215.644 58.5775H215.261C214.879 58.4809 214.4 58.4809 213.921 58.3861C213.443 58.2904 212.964 58.2904 212.677 58.2904C212.102 58.2904 211.623 58.3861 211.433 58.5775C211.241 58.769 211.145 59.0561 211.145 59.438C211.145 59.8218 211.241 60.0132 211.529 60.2047C211.816 60.3951 212.199 60.3951 212.773 60.4918C213.251 60.5866 213.634 60.6832 214.113 60.779C214.591 60.8737 214.879 61.0651 215.261 61.2575C215.549 61.449 215.836 61.7361 216.027 62.119C216.409 62.5009 216.506 62.9794 216.506 63.5547" fill="white"/>
<path fill-rule="evenodd" clip-rule="evenodd" d="M220.717 66.0429C220.717 66.1386 220.717 66.2343 220.621 66.33C220.527 66.4257 220.527 66.4257 220.335 66.4257H218.994C218.707 66.4257 218.612 66.33 218.612 66.0429V57.3329C218.612 57.0457 218.707 56.95 218.994 56.95H220.335C220.43 56.95 220.527 56.95 220.621 57.0457C220.717 57.1414 220.717 57.2371 220.717 57.3329V66.0429ZM220.814 54.4614V54.94C220.814 55.0357 220.717 55.2271 220.621 55.3229C220.527 55.4186 220.43 55.5143 220.238 55.61C220.048 55.7057 219.857 55.7057 219.664 55.7057C219.378 55.7057 219.186 55.7057 219.091 55.61C218.899 55.5143 218.803 55.4186 218.707 55.3229C218.612 55.2271 218.612 55.1314 218.516 54.94V54.5571C218.516 54.27 218.612 53.9829 218.707 53.7914C218.899 53.6 219.186 53.5043 219.664 53.5043C220.143 53.5043 220.43 53.6 220.621 53.7914C220.717 53.8871 220.814 54.0786 220.814 54.4614V54.4614Z" fill="white"/>
<path fill-rule="evenodd" clip-rule="evenodd" d="M229.044 61.6404C229.044 61.1618 229.044 60.6832 228.948 60.3004C228.852 59.9166 228.757 59.6294 228.662 59.3432C228.469 59.0561 228.278 58.8647 227.991 58.769C227.705 58.6723 227.417 58.5775 226.938 58.5775C226.555 58.5775 226.172 58.6723 225.981 58.769C225.694 58.8647 225.502 59.0561 225.407 59.3432C225.215 59.6294 225.119 59.9166 225.119 60.3004C225.024 60.6832 225.024 61.1618 225.024 61.6404C225.024 62.119 225.024 62.5975 225.119 62.9794C225.215 63.3632 225.312 63.6504 225.407 63.9366C225.502 64.2237 225.79 64.4151 225.981 64.5118C226.172 64.6075 226.555 64.7023 226.938 64.7023C227.417 64.7023 227.705 64.6075 227.991 64.5118C228.278 64.4151 228.469 64.2237 228.662 63.9366C228.852 63.6504 228.948 63.3632 228.948 62.9794C228.948 62.5975 229.044 62.119 229.044 61.6404M231.245 61.5437C231.245 62.119 231.245 62.6932 231.149 63.2666C231.055 63.8418 230.862 64.4151 230.576 64.8937C230.288 65.3723 229.905 65.7561 229.331 66.138C228.757 66.4261 227.991 66.6166 227.034 66.6166C226.077 66.6166 225.312 66.4261 224.737 66.138C224.162 65.8509 223.779 65.469 223.492 64.8937C223.205 64.4151 223.014 63.8418 223.014 63.2666C222.919 62.6932 222.919 62.119 222.919 61.5437C222.919 61.0651 222.919 60.5866 223.014 60.0132C223.109 59.438 223.301 58.9594 223.588 58.4809C223.876 58.0023 224.258 57.6204 224.833 57.2366C225.407 56.9504 226.077 56.758 227.034 56.758C227.991 56.758 228.757 56.8547 229.235 57.1418C229.809 57.429 230.192 57.8118 230.479 58.2904C230.767 58.769 230.958 59.2475 231.055 59.8218C231.149 60.3951 231.245 60.9704 231.245 61.5437" fill="white"/>
<path fill-rule="evenodd" clip-rule="evenodd" d="M241.2 66.2345C241.104 66.3302 241.009 66.3302 240.913 66.3302H239.477C239.19 66.3302 239.094 66.2345 239.094 65.9473V60.5873C239.094 60.013 238.999 59.5345 238.807 59.2473C238.616 58.9592 238.233 58.7688 237.659 58.7688C237.467 58.7688 237.276 58.7688 236.989 58.8645C236.702 58.9592 236.51 59.0559 236.223 59.1516C235.936 59.2473 235.744 59.343 235.553 59.4378C235.362 59.5345 235.17 59.6302 235.074 59.7259V66.043C235.074 66.3302 234.979 66.4259 234.692 66.4259H233.352C233.064 66.4259 232.969 66.3302 232.969 66.043V57.333C232.969 57.0449 233.064 56.9502 233.352 56.9502H234.692C234.979 56.9502 235.074 57.0449 235.074 57.333V57.9073C235.266 57.8116 235.457 57.6202 235.744 57.5235C236.032 57.4288 236.223 57.2373 236.51 57.1416C236.797 57.0449 237.084 56.9502 237.372 56.8545C237.659 56.7588 237.946 56.7588 238.233 56.7588C238.903 56.7588 239.382 56.8545 239.764 57.0449C240.147 57.2373 240.434 57.5235 240.626 57.8116C240.817 58.0988 240.913 58.5773 241.009 58.9592C241.104 59.4378 241.104 59.8216 241.104 60.3949V66.043C241.2 66.1378 241.2 66.2345 241.2 66.2345" fill="white"/>
<mask id="mask5" style="mask-type:alpha" maskUnits="userSpaceOnUse" x="0" y="0" width="254" height="67">
<path fill-rule="evenodd" clip-rule="evenodd" d="M0 66.7129H253.547V0H0V66.7129Z" fill="white"/>
</mask>
<g mask="url(#mask5)">
<path fill-rule="evenodd" clip-rule="evenodd" d="M250.197 66.7129H253.547V27.9486H250.197V66.7129Z" fill="white"/>
</g>
</svg>
