<svg width="290" height="72" viewBox="0 0 290 72" fill="none" xmlns="http://www.w3.org/2000/svg">
<mask id="mask0" style="mask-type:alpha" maskUnits="userSpaceOnUse" x="0" y="1" width="67" height="25">
<path fill-rule="evenodd" clip-rule="evenodd" d="M0 1H66.2V25.5H0V1Z" fill="white"/>
</mask>
<g mask="url(#mask0)">
<path fill-rule="evenodd" clip-rule="evenodd" d="M0 25.5C0 25.5 39.8 20.3 41 20.1C42.7 19.8 44.3 19.5 45.7 19.1C48.9 18.2 51.9 16.9 54.5 15.1C57 13.4 59.4 10.9 61.7 8.2C63.2 6.5 64.7 4.2 66.2 2V1C64.5 3.6 62.8 5.8 61.1 7.7C58.8 10.3 56.4 12.4 53.9 14C51.4 15.6 48.5 16.9 45.4 17.7C44 18.1 42.5 18.3 40.8 18.6C39.7 18.8 38.6 18.9 37.5 19C37 19 0 22.9 0 22.9V25.5Z" fill="white"/>
</g>
<mask id="mask1" style="mask-type:alpha" maskUnits="userSpaceOnUse" x="0" y="6" width="67" height="23">
<path fill-rule="evenodd" clip-rule="evenodd" d="M0 6.19971H66.0999V28.9997H0V6.19971Z" fill="white"/>
</mask>
<g mask="url(#mask1)">
<path fill-rule="evenodd" clip-rule="evenodd" d="M53.4 18.7997C50.9 20.1997 48 21.2997 44.8 21.8997C43.4 22.1997 42 22.3997 40.3 22.5997C39.3 22.6997 38.3 22.7997 37.3 22.8997C36.8 22.8997 36.2 22.9997 35.7 22.9997C23.5 24.1997 11.4 25.2997 0 26.3997V28.9997C11.4 27.5997 23.7 26.0997 35.9 24.6997C36.4 24.5997 37 24.5997 37.5 24.4997C38.5 24.3997 39.5 24.2997 40.5 24.0997C42.2 23.8997 43.8 23.5997 45.1 23.2997C48.4 22.5997 51.4 21.3997 54 19.7997C56.6 18.1997 58.8 16.0997 61.3 13.3997C62.8 11.6997 64.5 9.39971 66.1 7.19971V6.19971C64.2 8.69971 62.5 10.8997 60.7 12.6997C58.3 15.3997 55.9 17.3997 53.4 18.7997" fill="white"/>
</g>
<mask id="mask2" style="mask-type:alpha" maskUnits="userSpaceOnUse" x="0" y="11" width="67" height="22">
<path fill-rule="evenodd" clip-rule="evenodd" d="M0 11.9001H66.0999V32.5001H0V11.9001Z" fill="white"/>
</mask>
<g mask="url(#mask2)">
<path fill-rule="evenodd" clip-rule="evenodd" d="M60.4 18.2001C58 20.4001 55.4 22.2001 52.9 23.5001C50.4 24.7001 47.6 25.6001 44.3 26.1001C42.9 26.3001 41.5 26.5001 39.8 26.7001L0 29.9001V32.5001L35.3 28.7001L39.9 28.2001C41.6 28.0001 43.1 27.8001 44.5 27.5001C47.9 26.9001 50.8 25.9001 53.4 24.6001C56.1 23.2001 58.7 21.0001 61.2 18.6001C62.9 17.0001 64.4 14.9001 66.1 12.8001V11.9001C64.1 14.4001 62.3 16.4001 60.4 18.2001" fill="white"/>
</g>
<mask id="mask3" style="mask-type:alpha" maskUnits="userSpaceOnUse" x="0" y="22" width="67" height="18">
<path fill-rule="evenodd" clip-rule="evenodd" d="M0 22.7002H66.1998V39.5002H0V22.7002Z" fill="white"/>
</mask>
<g mask="url(#mask3)">
<path fill-rule="evenodd" clip-rule="evenodd" d="M50.8 31.6002C48.5 32.9002 46.8 33.7002 43.5 34.0002C41.5 34.2002 39.5 34.3002 37.5 34.4002C36.5 34.4002 35.6 34.5002 34.6 34.6002C28.6 34.9002 22.7 35.3002 16.7 35.7002L0 36.9002V39.5002L16.8 37.9002C22.2 37.4002 28.5 36.8002 34.7 36.3002L39.2 36.0002C40.9 35.9002 42.4 35.7002 43.7 35.5002C47.1 35.1002 50 34.4002 52.6 33.4002C55.4 32.4002 58 30.7002 60.6 28.8002C63 27.1002 66.2 23.7002 66.2 23.6002V22.7002C64.1 24.8002 62.8 26.0002 60.5 27.5002C57.6 29.5002 52.9 30.5002 50.8 31.6002" fill="white"/>
</g>
<path fill-rule="evenodd" clip-rule="evenodd" d="M51.6006 36.6001C49.1006 37.3001 46.3006 37.8001 43.0006 38.1001C41.7006 38.2001 40.2006 38.3001 38.6006 38.4001L34.2006 38.6001C23.2006 39.1001 12.2006 39.7001 0.100586 40.3001V42.9001C11.7006 42.0001 23.0006 41.1001 34.4006 40.3001L38.8006 40.0001C40.5006 39.9001 41.9006 39.8001 43.3006 39.6001C46.7006 39.2001 49.6006 38.6001 52.1006 37.8001C54.9006 36.9001 57.7006 35.6001 60.3006 33.9001C62.2006 32.7001 64.2006 31.2001 66.2006 29.4001C64.0006 31.3001 61.9006 31.7001 59.8006 33.0001C57.1006 34.6001 54.4006 35.8001 51.6006 36.6001" fill="white"/>
<path fill-rule="evenodd" clip-rule="evenodd" d="M51.2 40.9004C48.7 41.5004 45.9 41.9004 42.6 42.0994C41.3 42.2004 39.9 42.2994 38.2 42.2994L33.8 42.5004C22.7 42.9004 11.5 43.4004 0 43.9004V46.5004C11.4 45.7004 22.6 45.0004 33.9 44.2004L38.3 43.9004C40 43.7994 41.4 43.7004 42.7 43.5994C46.1 43.2994 48.9 42.7994 51.5 42.0994C54.4 41.2994 57.2 40.2004 59.9 38.7994C62 37.7004 64 36.4004 66.1 34.7994V33.7004C63.8 35.4004 61.6 36.7004 59.4 37.7994C56.8 39.2004 54 40.2004 51.2 40.9004" fill="white"/>
<mask id="mask4" style="mask-type:alpha" maskUnits="userSpaceOnUse" x="0" y="39" width="67" height="11">
<path fill-rule="evenodd" clip-rule="evenodd" d="M0 39.2007H66.1998V49.7997H0V39.2007Z" fill="white"/>
</mask>
<g mask="url(#mask4)">
<path fill-rule="evenodd" clip-rule="evenodd" d="M50.8 45.0997C48.3 45.5997 45.5 45.9007 42.2 45.9997C40.9 46.0997 39.6 46.0997 37.9 46.2007L0 47.2007V49.7997L33.6 47.9997L38 47.7997C39.7 47.7007 41.1 47.5997 42.4 47.4997C45.8 47.2007 48.5 46.9007 51.1 46.2997C54 45.7007 56.9 44.7997 59.6 43.5997C61.8 42.7007 63.9 41.5997 66.2 40.2007V39.2007C63.8 40.5997 61.5 41.7007 59.2 42.5997C56.5 43.7997 53.7 44.5997 50.8 45.0997" fill="white"/>
</g>
<path fill-rule="evenodd" clip-rule="evenodd" d="M50.5 49.2998C45.8 49.9008 41.1 49.9998 36.4 50.0998C35.3 50.0998 34.3 50.0998 33.2 50.1998L0 50.7998V53.4008L33.3 51.9998C34.4 51.9998 35.4 51.9008 36.5 51.9008C41.2 51.6998 46 51.4998 50.7 50.7998C53.7 50.2998 56.6 49.5998 59.2 48.6998C61.4 47.9998 63.7 46.9998 66 45.7998V44.7998C63.6 45.9008 61.1 46.9008 58.8 47.5998C56.3 48.2998 53.5 48.9998 50.5 49.2998" fill="white"/>
<mask id="mask5" style="mask-type:alpha" maskUnits="userSpaceOnUse" x="0" y="50" width="67" height="7">
<path fill-rule="evenodd" clip-rule="evenodd" d="M0 50.2007H66.1998V56.7997H0V50.2007Z" fill="white"/>
</mask>
<g mask="url(#mask5)">
<path fill-rule="evenodd" clip-rule="evenodd" d="M50.3 53.5997C45.9 53.9997 41.5 53.9997 37.1 53.9997H33.1C22.1 53.9997 11.1 54.0997 0 54.2007V56.7997C10.6 56.4007 21.9 56.0997 33.2 55.7007C34.5 55.7007 35.9 55.5997 37.2 55.5997C41.5 55.4997 46 55.4007 50.4 54.9007C53.5 54.5997 56.3 54.0997 59 53.4007C61.3 52.7997 63.7 51.9997 66.2 51.0997V50.2007C63.7 51.0997 61.2 51.7997 58.8 52.4007C56.1 52.9997 53.3 53.4007 50.3 53.5997" fill="white"/>
</g>
<path fill-rule="evenodd" clip-rule="evenodd" d="M50.1 57.7999C48.3 57.9009 46.3 57.9009 44.1 57.9009H41.6L33 57.7999C27.1 57.7999 21.3 57.6999 15.8 57.6999L0 57.7999V60.4009L15.9 59.9999C21.4 59.9009 27.2 59.6999 33 59.5999L41.6 59.4999C44 59.4999 47.1 59.4009 50.2 59.1999C53.3 58.9999 56.1 58.6999 58.8 58.2999C61.2 57.9009 63.7 57.4009 66.2 56.7999V55.9009C63.7 56.4999 61.1 56.9999 58.7 57.2999C55.9 57.4999 53.2 57.6999 50.1 57.7999" fill="white"/>
<path fill-rule="evenodd" clip-rule="evenodd" d="M41.5 61.9005L32.9 61.7995C22 61.5995 11.1 61.4005 0 61.2005V63.7995C10.6 63.7005 21.8 63.5995 32.9 63.5005L41.5 63.4005C44.4 63.4005 47.2 63.2995 50.1 63.2005C56 63.0005 61.2 62.5995 66.2 61.9005V61.0005C61.3 61.5005 56 61.7995 50.1 61.9005H41.5" fill="white"/>
<path fill-rule="evenodd" clip-rule="evenodd" d="M66.1 66.5L0 64.8V67.4H66.1V66.5Z" fill="white"/>
<path fill-rule="evenodd" clip-rule="evenodd" d="M60.2 22.9999C57.7 24.9999 55.7 26.4999 52.7 27.6999C50 28.7999 47.1 29.1999 43.9 29.6999C41.8 29.9999 39.6 30.3999 37.5 30.5999C36.6 30.6999 35.8 30.6999 34.9 30.7999L0 33.2999V35.8999L34.9 32.4999L39.4 32.0999C41.1 31.8999 42.6 31.7999 44 31.4999C47.4 30.9999 50.3 30.0999 52.9 28.8999C55.6 27.6999 58.4 25.6999 60.9 23.5999C62.6 22.0999 64.3 20.2999 66.1 18.2999V17.3999C63.9 19.5999 62.1 21.4999 60.2 22.9999" fill="white"/>
<path fill-rule="evenodd" clip-rule="evenodd" d="M94.2002 1C94.2002 1 106.1 19.9 108.3 23.4C110.5 26.9 113 29.6 121.8 31.5C130.6 33.4 134.4 34.2 134.4 34.2V34.9C134.4 34.9 128.8 33.7 121.6 32.1C114.4 30.5 111.5 30 108.2 25.4C105.5 21.6 94.2002 5.5 94.2002 5.5V1Z" fill="white"/>
<path fill-rule="evenodd" clip-rule="evenodd" d="M94.2002 22.6001C94.2002 22.6001 105 33.9001 108.2 37.2001C111.5 40.7001 115.8 41.9001 121.7 43.0001C127.3 44.0001 134.4 45.2001 134.4 45.2001V45.8001C134.4 45.8001 127.7 44.7001 121.7 43.7001C115.8 42.7001 111.6 42.1001 108.2 39.0001C105.2 36.2001 94.3002 26.0001 94.3002 26.0001L94.2002 22.6001Z" fill="white"/>
<path fill-rule="evenodd" clip-rule="evenodd" d="M94.2002 27.7998C94.2002 27.7998 104.5 37.3998 108.2 40.5998C111.6 43.5998 114.3 44.4998 121.7 45.9008C129.1 47.1998 134.4 47.9998 134.4 47.9998V48.6998C134.4 48.6998 127.7 47.5998 121.7 46.5998C115.7 45.5998 111.8 45.2998 108.2 42.2998C104 38.9008 94.2002 30.8998 94.2002 30.8998V27.7998Z" fill="white"/>
<path fill-rule="evenodd" clip-rule="evenodd" d="M94.2002 33.2002C94.2002 33.2002 106 42.5002 108.2 44.2002C110.4 45.8002 113.3 47.7002 121.7 49.0002C130.1 50.2002 134.4 50.8002 134.4 50.8002V51.5002C134.4 51.5002 126.8 50.4002 121.7 49.8002C116.6 49.2002 112.7 48.9002 108.2 45.9002C103.8 43.0002 94.2002 36.2002 94.2002 36.2002V33.2002Z" fill="white"/>
<path fill-rule="evenodd" clip-rule="evenodd" d="M94.2002 38.4004C94.2002 38.4004 106 46.2994 108.2 47.5004C110.4 48.7004 113.1 50.7994 121.7 51.9004C130.3 53.0004 134.4 53.5004 134.4 53.5004V54.2004C134.4 54.2004 127.3 53.4004 121.7 52.7994C116.1 52.2004 112.3 51.4004 108.2 49.0994C104.1 46.7994 94.2002 41.0994 94.2002 41.0994V38.4004Z" fill="white"/>
<path fill-rule="evenodd" clip-rule="evenodd" d="M94.2002 43.7002C94.2002 43.7002 104.6 49.4002 108.2 51.0992C112.1 53.0992 115.5 54.0002 121.7 54.8002C127.8 55.5002 134.4 56.2002 134.4 56.2002V56.8002C134.4 56.8002 128.3 56.0992 121.7 55.5002C115.2 54.9002 112.9 54.5992 108.2 52.5002C104 50.5992 94.2002 46.0992 94.2002 46.0992V43.7002Z" fill="white"/>
<path fill-rule="evenodd" clip-rule="evenodd" d="M94.2006 49C94.2006 49 102.401 52.5 108.201 54.8C113.901 57.1 118.201 57.3 121.701 57.6C123.201 57.8 134.301 58.9 134.301 58.9V59.5C134.301 59.5 127.701 59 121.601 58.4C115.601 57.9 113.001 57.6 108.101 56C103.201 54.4 94.1006 51.2 94.1006 51.2L94.2006 49Z" fill="white"/>
<path fill-rule="evenodd" clip-rule="evenodd" d="M94.2002 54.4004C94.2002 54.4004 102.5 57.0004 108.2 58.5004C113.9 60.0004 119.1 60.5994 121.7 60.7994C124.3 61.0004 134.4 61.7994 134.4 61.7994V62.4004C134.4 62.4004 128.7 62.0004 121.7 61.5004C116 61.0994 111.5 60.7004 108.2 59.9004C104.5 59.0994 94.2002 56.5994 94.2002 56.5994V54.4004Z" fill="white"/>
<path fill-rule="evenodd" clip-rule="evenodd" d="M94.2002 59.7002C94.2002 59.7002 101 60.9002 108.2 62.0992C113.6 63.0002 120.9 63.5992 121.7 63.5992C122.5 63.5992 134.4 64.5002 134.4 64.5002V65.0992C134.4 65.0992 126.8 64.7002 121.7 64.4002C116.4 64.0992 111.2 63.8002 108.2 63.5002C101.5 62.8002 94.2002 61.9002 94.2002 61.9002V59.7002Z" fill="white"/>
<path fill-rule="evenodd" clip-rule="evenodd" d="M94.2002 65.2998C94.2002 65.2998 104.9 65.6998 108.2 65.7998C111.5 65.9008 134.4 66.7998 134.4 66.7998V67.4008H94.2002V65.2998Z" fill="white"/>
<path fill-rule="evenodd" clip-rule="evenodd" d="M121.7 34.3999C112 32.2999 109.8 28.7999 108.2 26.5999C106.6 24.3999 94.2998 6.3999 94.2998 6.3999V10.4999C94.7998 11.0999 105.3 24.8999 108.3 28.6999C111.6 32.9999 116.8 33.9999 121.8 34.9999C126.8 36.0999 134.5 37.5999 134.5 37.5999V36.9999C134.4 36.9999 124.2 34.9999 121.7 34.3999" fill="white"/>
<path fill-rule="evenodd" clip-rule="evenodd" d="M121.7 37.2999C113.7 35.6999 110.5 33.1999 108.2 30.1999C105.9 27.0999 94.2998 11.8999 94.2998 11.8999V15.6999C94.7998 16.2999 105.4 28.7999 108.2 32.0999C111.5 35.8999 116.1 36.8999 121.7 37.8999C127.3 38.9009 134.4 40.2999 134.4 40.2999V39.6999C134.4 39.6999 126.3 38.1999 121.7 37.2999" fill="white"/>
<path fill-rule="evenodd" clip-rule="evenodd" d="M121.7 40.2001C113.4 38.5991 111.7 37.3001 108.2 33.4001C106 31.0001 94.7002 17.7001 94.2002 17.1001V20.6001C94.2002 20.6001 104.7 31.8001 108.1 35.2001C112.5 39.5991 116.7 39.9001 121.6 40.8001C126.5 41.7001 134.3 43.0991 134.3 43.0991V42.5001C134.4 42.5001 125 40.9001 121.7 40.2001" fill="white"/>
<mask id="mask6" style="mask-type:alpha" maskUnits="userSpaceOnUse" x="0" y="1" width="246" height="70">
<path fill-rule="evenodd" clip-rule="evenodd" d="M0 70.8H245.7V1H0V70.8Z" fill="white"/>
</mask>
<g mask="url(#mask6)">
<path fill-rule="evenodd" clip-rule="evenodd" d="M27.5 67.3001H85.4V28.6001H27.5V67.3001Z" fill="#004494" stroke="white" stroke-width="2"/>
<path fill-rule="evenodd" clip-rule="evenodd" d="M57.1004 34.1001H59.1004L57.5004 35.4001L58.1004 37.4001L56.5004 36.2001L54.9004 37.4001L55.5004 35.4001L53.9004 34.1001H55.9004L56.5004 32.1001L57.1004 34.1001Z" fill="#FFF100"/>
<path fill-rule="evenodd" clip-rule="evenodd" d="M57.1004 59.9005H59.1004L57.5004 61.0995L58.1004 63.0005L56.5004 61.7995L54.9004 63.0005L55.5004 61.0995L53.9004 59.9005H55.9004L56.5004 58.0005L57.1004 59.9005Z" fill="#FFF100"/>
<path fill-rule="evenodd" clip-rule="evenodd" d="M63.4998 58.2003H65.4998L63.8998 59.4003L64.4998 61.3003L62.8998 60.0993L61.2998 61.3003L61.8998 59.4003L60.2998 58.2003H62.2998L62.8998 56.3003L63.4998 58.2003Z" fill="#FFF100"/>
<path fill-rule="evenodd" clip-rule="evenodd" d="M63.5004 35.7999H65.5004L63.9004 36.9999L64.5004 38.9009L62.9004 37.6999L61.3004 38.9999L62.0004 36.9999L60.4004 35.7999H62.4004L63.0004 33.8999L63.5004 35.7999Z" fill="#FFF100"/>
<path fill-rule="evenodd" clip-rule="evenodd" d="M68.2996 40.5997H70.2996L68.6996 41.7997L69.2996 43.7007L67.6996 42.4997L66.0996 43.7007L66.6996 41.7997L65.0996 40.5997H67.0996L67.6996 38.7007L68.2996 40.5997Z" fill="#FFF100"/>
<path fill-rule="evenodd" clip-rule="evenodd" d="M68.2996 53.5997H70.2996L68.6996 54.7997L69.2996 56.7007L67.6996 55.4997L66.0996 56.7007L66.6996 54.7997L65.0996 53.5997H67.0996L67.6996 51.7007L68.2996 53.5997Z" fill="#FFF100"/>
<path fill-rule="evenodd" clip-rule="evenodd" d="M70.0998 47.0001H72.0998L70.4998 48.2001L71.0998 50.1001L69.4998 48.9001L67.8998 50.1001L68.4998 48.2001L66.7998 47.0001H68.7998L69.3998 45.1001L70.0998 47.0001Z" fill="#FFF100"/>
<path fill-rule="evenodd" clip-rule="evenodd" d="M50.4998 35.7998H52.4998L50.8998 36.9998L51.4998 38.9008L49.9998 37.7998L48.2998 38.9998L48.8998 37.0998L47.2998 35.8998H49.2998L49.9998 33.9998L50.4998 35.7998Z" fill="#FFF100"/>
<path fill-rule="evenodd" clip-rule="evenodd" d="M45.9002 40.5997H47.9002L46.3002 41.7997L46.9002 43.7007L45.3002 42.4997L43.7002 43.7007L44.3002 41.7997L42.7002 40.5997H44.7002L45.3002 38.7007L45.9002 40.5997Z" fill="#FFF100"/>
<path fill-rule="evenodd" clip-rule="evenodd" d="M44.2 47.0001H46.2L44.6 48.2001L45.2 50.1001L43.6 48.9001L42 50.1001L42.6 48.2001L41 47.0001H43L43.6 45.1001L44.2 47.0001Z" fill="#FFF100"/>
<path fill-rule="evenodd" clip-rule="evenodd" d="M45.9002 53.5997H47.9002L46.3002 54.7997L46.9002 56.7007L45.3002 55.4997L43.7002 56.7007L44.3002 54.7997L42.7002 53.5997H44.7002L45.3002 51.7007L45.9002 53.5997Z" fill="#FFF100"/>
<path fill-rule="evenodd" clip-rule="evenodd" d="M50.6004 58.2999H52.6004L51.0004 59.4999L51.6004 61.4009L50.0004 60.1999L48.4004 61.4009L49.0004 59.4999L47.4004 58.2999H49.4004L50.0004 56.4009L50.6004 58.2999Z" fill="#FFF100"/>
<path fill-rule="evenodd" clip-rule="evenodd" d="M233.3 65.7998C233.401 65.7998 233.5 65.7998 233.6 65.9008C233.7 65.9998 233.7 65.9998 233.7 66.0998V66.9008" fill="white"/>
<path fill-rule="evenodd" clip-rule="evenodd" d="M242.4 67.7H245.7V29H242.4V67.7Z" fill="white"/>
<path fill-rule="evenodd" clip-rule="evenodd" d="M143.3 40.7003C143.3 39.8003 143.4 39.0003 143.5 38.2003C143.6 37.4003 143.9 36.6003 144.3 36.0003C144.7 35.4003 145.2 34.8003 145.9 34.4003C146.6 34.0003 147.5 33.8003 148.7 33.8003H149.5C149.8 33.8003 150.1 33.9003 150.5 33.9003C150.8 33.9003 151.2 34.0003 151.5 34.1003C151.8 34.2003 152.1 34.3003 152.401 34.4003C152.6 34.5003 152.7 34.5003 152.7 34.6003C152.8 34.7003 152.8 34.8003 152.7 35.0003L152.5 35.8003C152.5 35.9003 152.401 36.0003 152.401 36.1003C152.3 36.2003 152.2 36.2003 152 36.1003C151.5 36.0003 151 36.0003 150.401 35.9003C149.8 35.8003 149.3 35.8003 148.8 35.8003C148.1 35.8003 147.6 35.9003 147.2 36.2003C146.8 36.5003 146.5 36.8003 146.2 37.2003C145.9 37.6003 145.8 38.2003 145.8 38.7003C145.7 39.3003 145.7 39.9003 145.7 40.5993C145.7 41.3003 145.7 41.9003 145.8 42.4003C145.9 43.0003 146 43.5003 146.3 43.9003C146.5 44.3003 146.8 44.7003 147.3 44.9003C147.7 45.0993 148.2 45.3003 148.901 45.3003C149.5 45.3003 150 45.3003 150.5 45.2003C151 45.0993 151.5 45.0993 152.1 45.0003H152.5C152.6 45.0993 152.6 45.0993 152.7 45.3003L152.901 46.0993C153 46.4003 152.901 46.5993 152.6 46.7003C152.401 46.8003 152.1 46.9003 151.7 47.0003C151.401 47.0993 151 47.0993 150.7 47.2003C150.401 47.3003 150 47.3003 149.7 47.3003H148.8C147.7 47.3003 146.8 47.0993 146.1 46.7003C145.4 46.3003 144.8 45.8003 144.5 45.2003C144.1 44.5993 143.8 43.9003 143.7 43.0993C143.4 42.4003 143.3 41.5003 143.3 40.7003" fill="white"/>
<path fill-rule="evenodd" clip-rule="evenodd" d="M160.7 42.2997C160.7 41.7997 160.7 41.2997 160.599 40.9007C160.5 40.4997 160.4 40.1997 160.3 39.9007C160.099 39.5997 159.9 39.4007 159.599 39.2997C159.3 39.1997 159 39.0997 158.5 39.0997C158.099 39.0997 157.7 39.1997 157.5 39.2997C157.3 39.4007 157 39.5997 156.9 39.9007C156.7 40.1997 156.599 40.4997 156.599 40.9007C156.5 41.2997 156.5 41.7997 156.5 42.2997C156.5 42.7997 156.5 43.2997 156.599 43.6997C156.7 44.0997 156.8 44.4007 156.9 44.6997C157 44.9997 157.3 45.1997 157.5 45.2997C157.7 45.4007 158.099 45.4997 158.5 45.4997C159 45.4997 159.3 45.4007 159.599 45.2997C159.9 45.1997 160.099 44.9997 160.3 44.6997C160.5 44.4007 160.599 44.0997 160.599 43.6997C160.7 43.2997 160.7 42.7997 160.7 42.2997M163 42.1997C163 42.7997 163 43.4007 162.9 43.9997C162.8 44.5997 162.599 45.1997 162.3 45.6997C162 46.1997 161.599 46.5997 161 46.9997C160.4 47.2997 159.599 47.4997 158.599 47.4997C157.599 47.4997 156.8 47.2997 156.2 46.9997C155.599 46.6997 155.2 46.2997 154.9 45.6997C154.599 45.1997 154.4 44.5997 154.4 43.9997C154.3 43.4007 154.3 42.7997 154.3 42.1997C154.3 41.6997 154.3 41.1997 154.4 40.5997C154.5 39.9997 154.7 39.4997 155 38.9997C155.3 38.4997 155.7 38.0997 156.3 37.6997C156.9 37.3997 157.599 37.1997 158.599 37.1997C159.599 37.1997 160.4 37.2997 160.9 37.5997C161.5 37.8997 161.9 38.2997 162.2 38.7997C162.5 39.2997 162.7 39.7997 162.8 40.4007C162.9 40.9997 163 41.5997 163 42.1997" fill="white"/>
<path fill-rule="evenodd" clip-rule="evenodd" d="M179.2 47.0997C179.2 47.2007 179.099 47.2007 178.9 47.2007H177.5C177.2 47.2007 177.099 47.0997 177.099 46.7997V41.0997C177.099 40.4007 177 39.7997 176.8 39.5997C176.599 39.2997 176.2 39.2007 175.7 39.2007C175.5 39.2007 175.3 39.2007 175.099 39.2997C174.9 39.4007 174.599 39.4007 174.4 39.4997C174.2 39.5997 173.9 39.7007 173.7 39.7997C173.5 39.9007 173.3 39.9997 173.099 40.0997V40.4997V41.0997V46.7997C173.099 46.9007 173.099 46.9997 173 47.0997C172.9 47.2007 172.8 47.2007 172.7 47.2007H171.2C171 47.2007 170.9 47.0997 170.9 46.7997V40.9997C170.9 40.4007 170.8 39.9007 170.599 39.5997C170.4 39.2997 170.099 39.2007 169.599 39.2007C169.4 39.2007 169.2 39.2007 169 39.2997C168.8 39.4007 168.599 39.4007 168.3 39.4997C168.099 39.5997 167.8 39.7007 167.599 39.7997C167.4 39.9007 167.2 39.9997 167 40.0997V46.7997C167 47.0997 166.9 47.2007 166.599 47.2007H165.2C165 47.2007 164.8 47.0997 164.8 46.7997V37.7997C164.8 37.4997 164.9 37.3997 165.2 37.3997H166.599C166.9 37.3997 167 37.4997 167 37.7997V38.4007C167.2 38.2997 167.4 38.0997 167.599 37.9997C167.8 37.8997 168.099 37.7007 168.3 37.5997C168.5 37.4997 168.8 37.3997 169.099 37.2997C169.4 37.2007 169.599 37.2007 169.9 37.2007C170.5 37.2007 171 37.2997 171.5 37.4997C172 37.7007 172.4 38.0997 172.7 38.5997C173.2 38.2007 173.8 37.8997 174.4 37.5997C175 37.2997 175.599 37.2007 176.3 37.2007C177 37.2007 177.5 37.2997 177.9 37.4997C178.3 37.7007 178.599 37.9997 178.8 38.2997C179 38.5997 179.099 38.9997 179.2 39.4997C179.3 39.9997 179.3 40.4007 179.3 40.9007V46.7997C179.3 46.9997 179.3 47.0997 179.2 47.0997" fill="white"/>
<path fill-rule="evenodd" clip-rule="evenodd" d="M183.9 46.7998C183.9 46.9008 183.9 46.9998 183.799 47.0998C183.7 47.1998 183.7 47.1998 183.5 47.1998H182.099C181.799 47.1998 181.7 47.0998 181.7 46.7998V37.6998C181.7 37.3998 181.799 37.2998 182.099 37.2998H183.5C183.599 37.2998 183.7 37.2998 183.799 37.3998C183.799 37.4998 183.9 37.5998 183.9 37.6998V46.7998ZM184.099 34.7998V35.2998C184.099 35.3998 184 35.5998 183.9 35.6998C183.799 35.7998 183.7 35.8998 183.5 35.9998C183.299 36.0998 183.099 36.0998 182.9 36.0998C182.599 36.0998 182.4 36.0998 182.299 35.9998C182.099 35.8998 182 35.7998 181.9 35.6998C181.799 35.5998 181.799 35.4998 181.7 35.2998V34.8998C181.7 34.5998 181.799 34.2998 181.9 34.0998C182.099 33.8998 182.4 33.7998 182.9 33.7998C183.4 33.7998 183.7 33.8998 183.9 34.0998C184 34.1998 184.099 34.3998 184.099 34.7998V34.7998Z" fill="white"/>
<path fill-rule="evenodd" clip-rule="evenodd" d="M193.8 44.2998C193.8 44.9008 193.7 45.4008 193.5 45.7998C193.3 46.1998 193 46.4998 192.6 46.7998C192.2 46.9998 191.8 47.1998 191.3 47.2998C190.8 47.4008 190.3 47.4998 189.8 47.4998C189.3 47.4998 188.7 47.4998 188.2 47.4008C187.6 47.2998 187.1 47.1998 186.7 47.0998C186.5 46.9998 186.401 46.9008 186.3 46.7998C186.2 46.6998 186.2 46.5998 186.3 46.4008L186.401 45.6998C186.401 45.4998 186.5 45.4008 186.6 45.4008H187C187.2 45.4008 187.5 45.4998 187.7 45.4998C188 45.4998 188.2 45.4998 188.5 45.5998C188.8 45.6998 189 45.5998 189.2 45.5998H189.8C190.401 45.5998 190.901 45.4998 191.2 45.2998C191.5 45.0998 191.6 44.7998 191.6 44.4008C191.6 44.1998 191.6 43.9998 191.5 43.7998C191.401 43.5998 191.401 43.4998 191.2 43.4008C191 43.2998 190.901 43.1998 190.7 43.1998C190.5 43.0998 190.2 43.0998 189.901 42.9998C189.401 42.9008 188.901 42.7998 188.5 42.6998C188.1 42.5998 187.7 42.4008 187.3 42.1998C187 41.9998 186.7 41.6998 186.5 41.4008C186.3 41.0998 186.2 40.5998 186.2 40.0998C186.2 39.0998 186.5 38.4008 187.2 37.7998C187.901 37.2998 188.8 36.9998 189.901 36.9998H190.6C190.901 36.9998 191.1 36.9998 191.401 37.0998C191.7 37.0998 191.901 37.1998 192.2 37.1998C192.5 37.2998 192.7 37.2998 192.901 37.3998C193.2 37.4998 193.401 37.6998 193.3 37.9998L193.1 38.6998C193.1 38.7998 193 38.9008 192.901 38.9998C192.8 39.0998 192.7 38.9998 192.5 38.9998C192.1 38.9008 191.6 38.9008 191.1 38.7998C190.6 38.7998 190.2 38.6998 189.8 38.6998C189.2 38.6998 188.7 38.7998 188.5 38.9998C188.3 39.1998 188.2 39.4998 188.2 39.9008C188.2 40.2998 188.3 40.4998 188.6 40.6998C188.901 40.9008 189.3 40.9008 189.901 40.9998C190.401 41.0998 190.8 41.1998 191.3 41.2998C191.7 41.4008 192.1 41.5998 192.5 41.7998C192.901 41.9998 193.1 42.2998 193.3 42.6998C193.7 43.1998 193.8 43.6998 193.8 44.2998" fill="white"/>
<path fill-rule="evenodd" clip-rule="evenodd" d="M198.1 46.7998C198.1 46.9008 198.1 46.9998 198 47.0998C197.901 47.1998 197.901 47.1998 197.701 47.1998H196.3C196 47.1998 195.901 47.0998 195.901 46.7998V37.6998C195.901 37.3998 196 37.2998 196.3 37.2998H197.701C197.8 37.2998 197.901 37.2998 198 37.3998C198 37.4998 198.1 37.5998 198.1 37.6998V46.7998ZM198.201 34.7998V35.2998C198.201 35.3998 198.1 35.5998 198 35.6998C197.901 35.7998 197.8 35.8998 197.6 35.9998C197.401 36.0998 197.201 36.0998 197 36.0998C196.701 36.0998 196.5 36.0998 196.401 35.9998C196.201 35.8998 196.1 35.7998 196 35.6998C195.901 35.5998 195.901 35.4998 195.8 35.2998V34.8998C195.8 34.5998 195.901 34.2998 196 34.0998C196.201 33.8998 196.5 33.7998 197 33.7998C197.5 33.7998 197.8 33.8998 198 34.0998C198.1 34.1998 198.201 34.3998 198.201 34.7998V34.7998Z" fill="white"/>
<path fill-rule="evenodd" clip-rule="evenodd" d="M206.7 42.7997H204.3C203.8 42.7997 203.4 42.9007 203.099 43.1997C202.8 43.4007 202.7 43.9007 202.7 44.4997C202.7 44.9007 202.8 45.1997 203 45.4007C203.2 45.5997 203.5 45.6997 204 45.6997C204.2 45.6997 204.4 45.6997 204.7 45.5997C205 45.4997 205.2 45.4997 205.5 45.4007C205.8 45.2997 206 45.1997 206.2 45.0997C206.4 44.9997 206.7 44.9007 206.8 44.7997V42.7997H206.7ZM206.8 46.0997C206.3 46.4997 205.7 46.7997 205.099 46.9997C204.5 47.1997 203.8 47.4007 203.099 47.4007C202.599 47.4007 202.099 47.2997 201.8 47.1997C201.4 47.0997 201.2 46.9007 201 46.5997C200.8 46.2997 200.599 46.0997 200.599 45.6997C200.599 45.2997 200.5 44.9997 200.5 44.4997C200.5 43.2997 200.8 42.4997 201.4 41.9007C202 41.4007 203 41.0997 204.2 41.0997H206.8V40.5997C206.8 40.2997 206.8 40.0997 206.7 39.7997C206.599 39.4997 206.5 39.4007 206.4 39.2997C206.2 39.1997 206 39.0997 205.8 38.9997C205.5 38.9007 205.2 38.9007 204.8 38.9007H204.2H203.5C203.3 38.9007 203 38.9007 202.8 38.9997C202.599 38.9997 202.3 38.9997 202.099 39.0997H201.7C201.599 39.0997 201.599 38.9997 201.5 38.9007L201.3 38.1997V37.8997C201.3 37.7997 201.5 37.6997 201.7 37.5997C201.9 37.4997 202.2 37.4997 202.5 37.3997C202.8 37.2997 203.099 37.2997 203.4 37.2997C203.7 37.2997 204 37.1997 204.3 37.1997H205.099C206 37.1997 206.7 37.2997 207.2 37.4997C207.7 37.6997 208.099 37.8997 208.4 38.1997C208.7 38.4997 208.8 38.9007 208.9 39.4007C209 39.9007 209 40.4007 209 40.9007V44.7997V45.2997C209 45.4007 209.099 45.4997 209.099 45.5997C209.099 45.6997 209.2 45.6997 209.3 45.6997C209.4 45.6997 209.5 45.6997 209.7 45.7997C209.8 45.7997 209.9 45.7997 210 45.9007C210.099 45.9997 210.099 45.9997 210.099 46.0997V46.9007C210.099 47.0997 209.9 47.2997 209.599 47.2997C209.4 47.2997 209.3 47.2997 209.099 47.4007H208.599C208.099 47.4007 207.8 47.2997 207.5 47.0997C207.099 46.9007 206.9 46.5997 206.8 46.0997V46.0997Z" fill="white"/>
<path fill-rule="evenodd" clip-rule="evenodd" d="M143.5 54.2999C143.5 53.9999 143.6 53.9009 143.9 53.9009H151.3C151.6 53.9009 151.7 53.9999 151.7 54.2999V55.4999C151.7 55.6999 151.6 55.9009 151.3 55.9009H145.8V59.4009H150.7C151 59.4009 151.1 59.4999 151.1 59.7999V60.9999C151.1 61.1999 151 61.4009 150.7 61.4009H145.8V65.4009H151.4C151.6 65.4009 151.8 65.4999 151.8 65.7999V66.9999C151.8 67.1999 151.7 67.4009 151.4 67.4009H143.9C143.6 67.4009 143.5 67.2999 143.5 66.9999V54.2999Z" fill="white"/>
<path fill-rule="evenodd" clip-rule="evenodd" d="M161.901 67.2001H160.501C160.401 67.2001 160.3 67.2001 160.201 67.0991C160.1 67.0001 160.1 66.9001 160.1 66.8001V66.2001C159.901 66.3001 159.701 66.5001 159.401 66.5991C159.1 66.7001 158.901 66.9001 158.6 67.0001C158.3 67.0991 158.001 67.2001 157.701 67.3001C157.401 67.4001 157.1 67.4001 156.8 67.4001C156.1 67.4001 155.6 67.3001 155.201 67.0991C154.8 66.9001 154.501 66.7001 154.3 66.3001C154.1 66.0001 154.001 65.5991 153.901 65.0991C153.8 64.5991 153.8 64.2001 153.8 63.5991V57.7001C153.8 57.4001 153.901 57.3001 154.201 57.3001H155.701C155.901 57.3001 156.1 57.4001 156.1 57.7001V63.3001C156.1 63.5991 156.1 63.9001 156.201 64.0991C156.201 64.3001 156.3 64.5001 156.401 64.7001C156.501 64.9001 156.701 65.0001 156.8 65.0991C156.901 65.2001 157.201 65.2001 157.501 65.2001C157.701 65.2001 157.901 65.2001 158.201 65.0991C158.501 65.0001 158.701 64.9001 159.001 64.8001C159.3 64.7001 159.501 64.5991 159.701 64.5001C159.901 64.4001 160.1 64.3001 160.201 64.2001V57.5001C160.201 57.4001 160.201 57.3001 160.3 57.2001C160.401 57.0991 160.501 57.0991 160.6 57.0991H162.001C162.3 57.0991 162.401 57.2001 162.401 57.5001V66.5001C162.3 67.0991 162.1 67.2001 161.901 67.2001" fill="white"/>
<path fill-rule="evenodd" clip-rule="evenodd" d="M167 66.7998C167 67.0998 166.9 67.1998 166.6 67.1998H165.1C164.8 67.1998 164.7 67.0998 164.7 66.7998V57.7998C164.7 57.4998 164.8 57.4008 165.1 57.4008H166.5C166.8 57.4008 166.9 57.4998 166.9 57.7998V58.6998C167 58.5998 167.2 58.4008 167.5 58.2998C167.7 58.0998 168 57.9998 168.3 57.9008C168.6 57.7998 168.9 57.6998 169.1 57.4998C169.4 57.4008 169.6 57.2998 169.9 57.2998H170.2C170.3 57.2998 170.3 57.4008 170.4 57.5998L170.5 58.9008V59.1998C170.5 59.2998 170.4 59.2998 170.1 59.4008C169.8 59.4998 169.5 59.4998 169.2 59.5998C168.9 59.6998 168.6 59.7998 168.3 59.7998C168 59.7998 167.7 59.9998 167.5 59.9998C167.2 60.0998 167 60.1998 166.9 60.1998L167 66.7998Z" fill="white"/>
<path fill-rule="evenodd" clip-rule="evenodd" d="M178 62.2997C178 61.7997 178 61.2997 177.9 60.9007C177.8 60.4997 177.7 60.1997 177.6 59.9007C177.4 59.5997 177.2 59.4007 176.9 59.2997C176.6 59.1997 176.3 59.0997 175.8 59.0997C175.4 59.0997 175 59.1997 174.8 59.2997C174.6 59.4007 174.3 59.5997 174.2 59.9007C174 60.1997 173.9 60.4997 173.9 60.9007C173.8 61.2997 173.8 61.7997 173.8 62.2997C173.8 62.7997 173.8 63.2997 173.9 63.6997C174 64.0997 174.1 64.4007 174.2 64.6997C174.3 64.9997 174.6 65.1997 174.8 65.2997C175 65.4007 175.4 65.4997 175.8 65.4997C176.3 65.4997 176.6 65.4007 176.9 65.2997C177.2 65.1997 177.4 64.9997 177.6 64.6997C177.8 64.4007 177.9 64.0997 177.9 63.6997C178 63.2997 178 62.7997 178 62.2997M180.2 62.1997C180.2 62.7997 180.2 63.4007 180.1 63.9997C180 64.5997 179.8 65.1997 179.5 65.6997C179.2 66.1997 178.8 66.5997 178.2 66.9997C177.6 67.2997 176.8 67.4997 175.8 67.4997C174.8 67.4997 174 67.2997 173.4 66.9997C172.8 66.6997 172.4 66.2997 172.1 65.6997C171.8 65.1997 171.6 64.5997 171.6 63.9997C171.5 63.4007 171.5 62.7997 171.5 62.1997C171.5 61.6997 171.5 61.1997 171.6 60.5997C171.7 59.9997 171.9 59.4997 172.2 58.9997C172.5 58.4997 172.9 58.0997 173.5 57.6997C174.1 57.4007 174.8 57.1997 175.8 57.1997C176.8 57.1997 177.6 57.2997 178.1 57.5997C178.7 57.9007 179.1 58.2997 179.4 58.7997C179.7 59.2997 179.9 59.7997 180 60.4007C180.2 60.9997 180.2 61.5997 180.2 62.1997" fill="white"/>
<path fill-rule="evenodd" clip-rule="evenodd" d="M188.6 62.2002C188.6 61.5992 188.6 61.0002 188.5 60.7002C188.401 60.4002 188.3 60.0002 188.201 59.8002C188.1 59.5992 187.901 59.4002 187.701 59.4002C187.5 59.3002 187.3 59.3002 187 59.3002C186.8 59.3002 186.6 59.3002 186.3 59.4002C186 59.5002 185.8 59.5002 185.5 59.5992C185.3 59.7002 185 59.8002 184.8 59.9002C184.6 60.0002 184.401 60.0992 184.201 60.2002V65.2002C184.701 65.3002 185.1 65.4002 185.401 65.5002C185.8 65.5002 186.1 65.5992 186.5 65.5992C186.901 65.5992 187.201 65.5992 187.401 65.4002C187.6 65.3002 187.8 65.0992 188 64.9002C188.201 64.5992 188.3 64.3002 188.3 63.9002C188.6 63.4002 188.6 62.9002 188.6 62.2002M190.901 62.2002C190.901 63.0002 190.8 63.7002 190.701 64.4002C190.6 65.0002 190.401 65.5992 190.1 66.0002C189.8 66.4002 189.401 66.8002 188.901 67.0002C188.401 67.2002 187.701 67.3002 186.901 67.3002C186.6 67.3002 186.201 67.3002 185.701 67.2002C185.3 67.0992 184.8 67.0002 184.3 66.9002V70.4002C184.3 70.5002 184.3 70.5992 184.201 70.7002C184.201 70.8002 184 70.8002 183.901 70.8002H182.5C182.3 70.8002 182.201 70.8002 182.201 70.7002C182.201 70.5992 182.1 70.5002 182.1 70.4002V57.8002C182.1 57.5002 182.201 57.4002 182.5 57.4002H183.901C184 57.4002 184.1 57.4002 184.201 57.5002C184.3 57.5992 184.3 57.7002 184.3 57.8002V58.4002H184.401C184.6 58.3002 184.8 58.0992 185 58.0002C185.201 57.9002 185.5 57.7002 185.8 57.5992C186.1 57.5002 186.401 57.4002 186.701 57.3002C187 57.2002 187.3 57.2002 187.6 57.2002C188.3 57.2002 188.8 57.3002 189.201 57.5992C189.6 57.8002 190 58.2002 190.201 58.5992C190.401 59.0002 190.6 59.5992 190.701 60.2002C190.8 60.8002 190.901 61.5002 190.901 62.2002" fill="white"/>
<path fill-rule="evenodd" clip-rule="evenodd" d="M196.701 58.9999C196.301 58.9999 196.001 59.0999 195.801 59.1999C195.6 59.2999 195.401 59.4999 195.201 59.6999C195.001 59.8999 194.901 60.1999 194.901 60.4999C194.801 60.7999 194.801 61.0999 194.801 61.4999H198.801C198.801 61.1999 198.801 60.8999 198.701 60.5999C198.6 60.2999 198.501 60.0999 198.401 59.7999C198.301 59.4999 198.1 59.3999 197.801 59.2999C197.501 59.1999 197.201 58.9999 196.701 58.9999V58.9999ZM194.701 62.8999C194.701 63.3999 194.801 63.7999 194.901 64.1999C195.001 64.4999 195.201 64.7999 195.401 64.9999C195.6 65.1999 195.801 65.2999 196.1 65.3999C196.401 65.4999 196.701 65.4999 197.201 65.4999C197.6 65.4999 198.001 65.4999 198.501 65.3999C199.001 65.2999 199.401 65.2999 199.801 65.2999H200.201C200.301 65.2999 200.301 65.3999 200.401 65.5999L200.501 66.2999V66.6999C200.501 66.7999 200.401 66.8999 200.201 66.9999C200.001 67.0999 199.801 67.1999 199.501 67.1999C199.201 67.1999 199.001 67.2999 198.701 67.3999C198.401 67.3999 198.1 67.4999 197.801 67.4999H197.001C196.001 67.4999 195.301 67.3999 194.701 67.0999C194.1 66.7999 193.701 66.3999 193.401 65.9999C193.1 65.4999 192.901 64.9999 192.801 64.3999C192.701 63.7999 192.6 63.1999 192.6 62.4999C192.6 61.9999 192.6 61.4999 192.701 60.8999C192.801 60.2999 193.001 59.6999 193.301 59.1999C193.6 58.6999 194.001 58.1999 194.6 57.8999C195.201 57.5999 195.901 57.3999 196.901 57.3999C197.801 57.3999 198.501 57.4999 199.1 57.7999C199.701 58.0999 200.1 58.3999 200.401 58.7999C200.701 59.1999 200.901 59.6999 201.001 60.1999C201.1 60.6999 201.201 61.2999 201.201 61.7999C201.201 62.1999 201.201 62.4999 201.001 62.6999C200.801 62.8999 200.6 62.9999 200.201 62.9999H194.701V62.8999Z" fill="white"/>
<path fill-rule="evenodd" clip-rule="evenodd" d="M208.901 62.7997H206.501C206.001 62.7997 205.6 62.9007 205.3 63.1997C205.001 63.4007 204.901 63.9007 204.901 64.4997C204.901 64.9007 205.001 65.1997 205.201 65.4007C205.401 65.5997 205.701 65.6997 206.201 65.6997C206.401 65.6997 206.6 65.6997 206.901 65.5997C207.201 65.4997 207.401 65.4997 207.701 65.4007C208.001 65.2997 208.201 65.1997 208.401 65.0997C208.6 64.9997 208.901 64.9007 209.001 64.7997V62.7997H208.901ZM209.1 66.0997C208.6 66.4997 208.001 66.7997 207.401 66.9997C206.8 67.1997 206.1 67.4007 205.401 67.4007C204.901 67.4007 204.401 67.2997 204.1 67.1997C203.701 67.0997 203.501 66.9007 203.3 66.5997C203.1 66.2997 202.901 66.0997 202.901 65.6997C202.901 65.2997 202.8 64.9997 202.8 64.4997C202.8 63.2997 203.1 62.4997 203.701 61.9007C204.3 61.4007 205.3 61.0997 206.501 61.0997H209.1V60.5997C209.1 60.2997 209.1 60.0997 209.001 59.7997C208.901 59.4997 208.8 59.4007 208.701 59.2997C208.501 59.1997 208.3 59.0997 208.1 58.9997C207.8 58.9007 207.501 58.9007 207.1 58.9007H206.501H205.8C205.6 58.9007 205.3 58.9007 205.1 58.9997C204.901 58.9997 204.6 58.9997 204.401 59.0997H204.001C203.901 59.0997 203.901 58.9997 203.8 58.9007L203.6 58.1997V57.9007C203.6 57.7997 203.8 57.6997 204.001 57.5997C204.201 57.4997 204.501 57.4997 204.8 57.4007C205.1 57.2997 205.401 57.2997 205.701 57.2997C206.001 57.2997 206.3 57.1997 206.6 57.1997H207.401C208.3 57.1997 209.001 57.2997 209.501 57.4997C210.001 57.6997 210.401 57.9007 210.701 58.1997C211.001 58.4997 211.1 58.9007 211.201 59.4007C211.3 59.9007 211.3 60.4007 211.3 60.9007V64.7997V65.2997C211.3 65.4007 211.401 65.4997 211.401 65.5997C211.401 65.6997 211.501 65.6997 211.6 65.6997C211.701 65.6997 211.8 65.6997 212.001 65.7997C212.1 65.7997 212.201 65.7997 212.3 65.9007C212.401 65.9997 212.401 65.9997 212.401 66.0997V66.9007C212.401 67.0997 212.201 67.2997 211.901 67.2997C211.701 67.2997 211.6 67.2997 211.401 67.4007H210.901C210.401 67.4007 210.1 67.2997 209.8 67.0997C209.401 66.9007 209.201 66.5997 209.1 66.0997V66.0997Z" fill="white"/>
<path fill-rule="evenodd" clip-rule="evenodd" d="M222.1 67.0997C222 67.2007 221.901 67.2007 221.8 67.2007H220.3C220 67.2007 219.901 67.0997 219.901 66.7997V61.2007C219.901 60.5997 219.8 60.0997 219.6 59.7997C219.401 59.4007 219 59.2997 218.401 59.2997C218.201 59.2997 218 59.2997 217.701 59.4007C217.401 59.4997 217.201 59.5997 216.901 59.5997C216.6 59.7007 216.401 59.7997 216.201 59.9007C216 59.9997 215.8 60.0997 215.701 60.0997V66.7997C215.701 67.0997 215.6 67.2007 215.3 67.2007H214C213.701 67.2007 213.6 67.0997 213.6 66.7997V57.7997C213.6 57.4997 213.701 57.4007 214 57.4007H215.401C215.701 57.4007 215.8 57.4997 215.8 57.7997V58.4007C216 58.2997 216.201 58.0997 216.5 57.9997C216.8 57.9007 217 57.7007 217.3 57.5997C217.6 57.4997 217.901 57.4007 218.201 57.2997C218.5 57.2007 218.8 57.2007 219.1 57.2007C219.8 57.2007 220.3 57.2997 220.701 57.4997C221.1 57.7007 221.401 57.9997 221.6 58.2997C221.8 58.5997 221.901 59.0997 222 59.4997C222.1 59.9997 222.1 60.4007 222.1 60.9997V66.7997C222.201 66.9997 222.201 67.0997 222.1 67.0997" fill="white"/>
<path fill-rule="evenodd" clip-rule="evenodd" d="M230.4 62.7998H228C227.5 62.7998 227.099 62.9008 226.799 63.1998C226.5 63.4008 226.4 63.9008 226.4 64.4998C226.4 64.9008 226.5 65.1998 226.7 65.4008C226.9 65.5998 227.2 65.6998 227.7 65.6998C227.9 65.6998 228.099 65.6998 228.4 65.5998C228.7 65.4998 228.9 65.4998 229.2 65.4008C229.5 65.2998 229.7 65.1998 229.9 65.0998C230.099 64.9998 230.4 64.9008 230.5 64.7998V62.7998H230.4ZM228.7 56.4998C228 56.4998 227.4 56.2998 226.799 55.9998C226.2 55.6998 225.7 55.0998 225.4 54.4008C225.299 54.2998 225.299 54.1998 225.299 54.0998C225.299 53.9998 225.299 53.9008 225.4 53.7998L225.9 53.4008C226 53.2998 226.099 53.2998 226.2 53.2998C226.299 53.2998 226.299 53.4008 226.4 53.4998C226.799 53.9998 227.2 54.2998 227.5 54.5998C227.799 54.7998 228.2 54.9008 228.7 54.9008C228.9 54.9008 229.099 54.9008 229.299 54.7998C229.5 54.6998 229.7 54.6998 229.799 54.4998C230 54.4008 230.099 54.1998 230.299 54.0998C230.5 53.9998 230.7 53.6998 230.9 53.4998C231.099 53.2998 231.2 53.2998 231.4 53.4008L231.9 53.6998C232 53.7998 232.099 53.9008 232 53.9998C231.9 54.0998 231.9 54.2998 231.799 54.4008C231.4 55.0998 231 55.5998 230.4 55.9998C229.799 56.4008 229.4 56.4998 228.7 56.4998V56.4998ZM230.5 66.0998C230 66.4998 229.4 66.7998 228.799 66.9998C228.2 67.1998 227.5 67.4008 226.799 67.4008C226.299 67.4008 225.799 67.2998 225.5 67.1998C225.099 67.0998 224.9 66.9008 224.7 66.5998C224.5 66.2998 224.299 66.0998 224.299 65.6998C224.299 65.2998 224 64.9998 224 64.4998C224 63.2998 224.299 62.4998 224.9 61.9008C225.5 61.4008 226.5 61.0998 227.7 61.0998H230.299V60.5998C230.299 60.2998 230.299 60.0998 230.2 59.7998C230.099 59.4998 230 59.4008 229.9 59.2998C229.7 59.1998 229.5 59.0998 229.299 58.9998C229 58.9008 228.7 58.9008 228.299 58.9008H227.7H227C226.799 58.9008 226.5 58.9008 226.299 58.9998C226.099 58.9998 225.799 58.9998 225.599 59.0998H225.2C225.099 59.0998 225.099 58.9998 225 58.9008L224.799 58.1998V57.9008C224.799 57.7998 225 57.6998 225.2 57.5998C225.4 57.4998 225.7 57.4998 226 57.4008C226.299 57.2998 226.599 57.2998 226.9 57.2998C227.2 57.2998 227.5 57.1998 227.799 57.1998H228.599C229.5 57.1998 230.2 57.2998 230.7 57.4998C231.2 57.6998 231.599 57.9008 231.9 58.1998C232.2 58.4998 232.299 58.9008 232.4 59.4008C232.5 59.9008 232.5 60.4008 232.5 60.9008V64.7998V65.2998C232.5 65.4008 232.599 65.4998 232.599 65.5998C232.599 65.6998 232.7 65.6998 232.799 65.6998C232.9 65.6998 233 65.6998 233.2 65.7998C233.299 65.7998 233.4 65.7998 233.5 65.9008C233.599 65.9998 233.599 65.9998 233.599 66.0998V66.9008C233.599 67.0998 233.4 67.2998 233.099 67.2998C232.9 67.2998 232.799 67.2998 232.599 67.4008H232.099C231.599 67.4008 231.299 67.2998 231 67.0998C230.799 66.9008 230.599 66.5998 230.5 66.0998V66.0998Z" fill="white"/>
</g>
</svg>
