<svg width="290" height="72" viewBox="0 0 290 72" fill="none" xmlns="http://www.w3.org/2000/svg">
<path fill-rule="evenodd" clip-rule="evenodd" d="M0 24.5C0 24.5 39.8 19.3 41 19.1C42.7 18.8 44.3 18.5 45.7 18.1C48.9 17.2 51.9 15.9 54.5 14.1C57 12.4 59.4 9.9 61.7 7.2C63.2 5.5 64.7 3.2 66.2 1V0C64.5 2.6 62.8 4.8 61.1 6.7C58.8 9.3 56.4 11.4 53.9 13C51.4 14.6 48.5 15.9 45.4 16.7C44 17.1 42.5 17.3 40.8 17.6C39.7 17.8 38.6 17.9 37.5 18C37 18 0 21.9 0 21.9V24.5Z" fill="white"/>
<mask id="mask0" style="mask-type:alpha" maskUnits="userSpaceOnUse" x="0" y="5" width="67" height="23">
<path fill-rule="evenodd" clip-rule="evenodd" d="M0 5.19971H66.0999V27.9997H0V5.19971Z" fill="white"/>
</mask>
<g mask="url(#mask0)">
<path fill-rule="evenodd" clip-rule="evenodd" d="M53.4 17.7997C50.9 19.1997 48 20.2997 44.8 20.8997C43.4 21.1997 42 21.3997 40.3 21.5997C39.3 21.6997 38.3 21.7997 37.3 21.8997C36.8 21.8997 36.2 21.9997 35.7 21.9997C23.5 23.1997 11.4 24.2997 0 25.3997V27.9997C11.4 26.5997 23.7 25.0997 35.9 23.6997C36.4 23.5997 37 23.5997 37.5 23.4997C38.5 23.3997 39.5 23.2997 40.5 23.0997C42.2 22.8997 43.8 22.5997 45.1 22.2997C48.4 21.5997 51.4 20.3997 54 18.7997C56.6 17.1997 58.8 15.0997 61.3 12.3997C62.8 10.6997 64.5 8.39971 66.1 6.19971V5.19971C64.2 7.69971 62.5 9.89971 60.7 11.6997C58.3 14.3997 55.9 16.3997 53.4 17.7997" fill="white"/>
</g>
<mask id="mask1" style="mask-type:alpha" maskUnits="userSpaceOnUse" x="0" y="10" width="67" height="22">
<path fill-rule="evenodd" clip-rule="evenodd" d="M0 10.9001H66.0999V31.5001H0V10.9001Z" fill="white"/>
</mask>
<g mask="url(#mask1)">
<path fill-rule="evenodd" clip-rule="evenodd" d="M60.4 17.2001C58 19.4001 55.4 21.2001 52.9 22.5001C50.4 23.7001 47.6 24.6001 44.3 25.1001C42.9 25.3001 41.5 25.5001 39.8 25.7001L0 28.9001V31.5001L35.3 27.7001L39.9 27.2001C41.6 27.0001 43.1 26.8001 44.5 26.5001C47.9 25.9001 50.8 24.9001 53.4 23.6001C56.1 22.2001 58.7 20.0001 61.2 17.6001C62.9 16.0001 64.4 13.9001 66.1 11.8001V10.9001C64.1 13.4001 62.3 15.4001 60.4 17.2001" fill="white"/>
</g>
<mask id="mask2" style="mask-type:alpha" maskUnits="userSpaceOnUse" x="0" y="21" width="67" height="18">
<path fill-rule="evenodd" clip-rule="evenodd" d="M0 21.7H66.1998V38.5H0V21.7Z" fill="white"/>
</mask>
<g mask="url(#mask2)">
<path fill-rule="evenodd" clip-rule="evenodd" d="M50.8 30.6C48.5 31.9 46.8 32.7 43.5 33C41.5 33.2 39.5 33.3 37.5 33.4C36.5 33.4 35.6 33.5 34.6 33.6C28.6 33.9 22.7 34.3 16.7 34.7L0 35.9V38.5L16.8 36.9C22.2 36.4 28.5 35.8 34.7 35.3L39.2 35C40.9 34.9 42.4 34.7 43.7 34.5C47.1 34.1 50 33.4 52.6 32.4C55.4 31.4 58 29.7 60.6 27.8C63 26.1 66.2 22.7 66.2 22.6V21.7C64.1 23.8 62.8 25 60.5 26.5C57.6 28.5 52.9 29.5 50.8 30.6" fill="white"/>
</g>
<path fill-rule="evenodd" clip-rule="evenodd" d="M51.6006 35.6001C49.1006 36.3001 46.3006 36.8001 43.0006 37.1001C41.7006 37.2001 40.2006 37.3001 38.6006 37.4001L34.2006 37.6001C23.2006 38.1001 12.2006 38.7001 0.100586 39.3001V41.9001C11.7006 41.0001 23.0006 40.1001 34.4006 39.3001L38.8006 39.0001C40.5006 38.9001 41.9006 38.8001 43.3006 38.6001C46.7006 38.2001 49.6006 37.6001 52.1006 36.8001C54.9006 35.9001 57.7006 34.6001 60.3006 32.9001C62.2006 31.7001 64.2006 30.2001 66.2006 28.4001C64.0006 30.3001 61.9006 30.7001 59.8006 32.0001C57.1006 33.6001 54.4006 34.8001 51.6006 35.6001" fill="white"/>
<path fill-rule="evenodd" clip-rule="evenodd" d="M51.2 39.9004C48.7 40.5004 45.9 40.9004 42.6 41.0994C41.3 41.2004 39.9 41.2994 38.2 41.2994L33.8 41.5004C22.7 41.9004 11.5 42.4004 0 42.9004V45.5004C11.4 44.7004 22.6 44.0004 33.9 43.2004L38.3 42.9004C40 42.7994 41.4 42.7004 42.7 42.5994C46.1 42.2994 48.9 41.7994 51.5 41.0994C54.4 40.2994 57.2 39.2004 59.9 37.7994C62 36.7004 64 35.4004 66.1 33.7994V32.7004C63.8 34.4004 61.6 35.7004 59.4 36.7994C56.8 38.2004 54 39.2004 51.2 39.9004" fill="white"/>
<mask id="mask3" style="mask-type:alpha" maskUnits="userSpaceOnUse" x="0" y="38" width="67" height="11">
<path fill-rule="evenodd" clip-rule="evenodd" d="M0 38.2007H66.1998V48.7997H0V38.2007Z" fill="white"/>
</mask>
<g mask="url(#mask3)">
<path fill-rule="evenodd" clip-rule="evenodd" d="M50.8 44.0997C48.3 44.5997 45.5 44.9007 42.2 44.9997C40.9 45.0997 39.6 45.0997 37.9 45.2007L0 46.2007V48.7997L33.6 46.9997L38 46.7997C39.7 46.7007 41.1 46.5997 42.4 46.4997C45.8 46.2007 48.5 45.9007 51.1 45.2997C54 44.7007 56.9 43.7997 59.6 42.5997C61.8 41.7007 63.9 40.5997 66.2 39.2007V38.2007C63.8 39.5997 61.5 40.7007 59.2 41.5997C56.5 42.7997 53.7 43.5997 50.8 44.0997" fill="white"/>
</g>
<path fill-rule="evenodd" clip-rule="evenodd" d="M50.5 48.2998C45.8 48.9008 41.1 48.9998 36.4 49.0998C35.3 49.0998 34.3 49.0998 33.2 49.1998L0 49.7998V52.4008L33.3 50.9998C34.4 50.9998 35.4 50.9008 36.5 50.9008C41.2 50.6998 46 50.4998 50.7 49.7998C53.7 49.2998 56.6 48.5998 59.2 47.6998C61.4 46.9998 63.7 45.9998 66 44.7998V43.7998C63.6 44.9008 61.1 45.9008 58.8 46.5998C56.3 47.2998 53.5 47.9998 50.5 48.2998" fill="white"/>
<mask id="mask4" style="mask-type:alpha" maskUnits="userSpaceOnUse" x="0" y="49" width="67" height="7">
<path fill-rule="evenodd" clip-rule="evenodd" d="M0 49.2007H66.1998V55.7997H0V49.2007Z" fill="white"/>
</mask>
<g mask="url(#mask4)">
<path fill-rule="evenodd" clip-rule="evenodd" d="M50.3 52.5997C45.9 52.9997 41.5 52.9997 37.1 52.9997H33.1C22.1 52.9997 11.1 53.0997 0 53.2007V55.7997C10.6 55.4007 21.9 55.0997 33.2 54.7007C34.5 54.7007 35.9 54.5997 37.2 54.5997C41.5 54.4997 46 54.4007 50.4 53.9007C53.5 53.5997 56.3 53.0997 59 52.4007C61.3 51.7997 63.7 50.9997 66.2 50.0997V49.2007C63.7 50.0997 61.2 50.7997 58.8 51.4007C56.1 51.9997 53.3 52.4007 50.3 52.5997" fill="white"/>
</g>
<path fill-rule="evenodd" clip-rule="evenodd" d="M50.1 56.7999C48.3 56.9009 46.3 56.9009 44.1 56.9009H41.6L33 56.7999C27.1 56.7999 21.3 56.6999 15.8 56.6999L0 56.7999V59.4009L15.9 58.9999C21.4 58.9009 27.2 58.6999 33 58.5999L41.6 58.4999C44 58.4999 47.1 58.4009 50.2 58.1999C53.3 57.9999 56.1 57.6999 58.8 57.2999C61.2 56.9009 63.7 56.4009 66.2 55.7999V54.9009C63.7 55.4999 61.1 55.9999 58.7 56.2999C55.9 56.4999 53.2 56.6999 50.1 56.7999" fill="white"/>
<path fill-rule="evenodd" clip-rule="evenodd" d="M41.5 60.9005L32.9 60.7995C22 60.5995 11.1 60.4005 0 60.2005V62.7995C10.6 62.7005 21.8 62.5995 32.9 62.5005L41.5 62.4005C44.4 62.4005 47.2 62.2995 50.1 62.2005C56 62.0005 61.2 61.5995 66.2 60.9005V60.0005C61.3 60.5005 56 60.7995 50.1 60.9005H41.5" fill="white"/>
<path fill-rule="evenodd" clip-rule="evenodd" d="M66.1 65.5L0 63.8V66.4H66.1V65.5Z" fill="white"/>
<path fill-rule="evenodd" clip-rule="evenodd" d="M60.2 21.9999C57.7 23.9999 55.7 25.4999 52.7 26.6999C50 27.7999 47.1 28.1999 43.9 28.6999C41.8 28.9999 39.6 29.3999 37.5 29.5999C36.6 29.6999 35.8 29.6999 34.9 29.7999L0 32.2999V34.8999L34.9 31.4999L39.4 31.0999C41.1 30.8999 42.6 30.7999 44 30.4999C47.4 29.9999 50.3 29.0999 52.9 27.8999C55.6 26.6999 58.4 24.6999 60.9 22.5999C62.6 21.0999 64.3 19.2999 66.1 17.2999V16.3999C63.9 18.5999 62.1 20.4999 60.2 21.9999" fill="white"/>
<path fill-rule="evenodd" clip-rule="evenodd" d="M94.2002 0C94.2002 0 106.1 18.9 108.3 22.4C110.5 25.9 113 28.6 121.8 30.5C130.6 32.4 134.4 33.2 134.4 33.2V33.9C134.4 33.9 128.8 32.7 121.6 31.1C114.4 29.5 111.5 29 108.2 24.4C105.5 20.6 94.2002 4.5 94.2002 4.5V0Z" fill="white"/>
<path fill-rule="evenodd" clip-rule="evenodd" d="M94.2002 21.6001C94.2002 21.6001 105 32.9001 108.2 36.2001C111.5 39.7001 115.8 40.9001 121.7 42.0001C127.3 43.0001 134.4 44.2001 134.4 44.2001V44.8001C134.4 44.8001 127.7 43.7001 121.7 42.7001C115.8 41.7001 111.6 41.1001 108.2 38.0001C105.2 35.2001 94.3002 25.0001 94.3002 25.0001L94.2002 21.6001Z" fill="white"/>
<path fill-rule="evenodd" clip-rule="evenodd" d="M94.2002 26.7998C94.2002 26.7998 104.5 36.3998 108.2 39.5998C111.6 42.5998 114.3 43.4998 121.7 44.9008C129.1 46.1998 134.4 46.9998 134.4 46.9998V47.6998C134.4 47.6998 127.7 46.5998 121.7 45.5998C115.7 44.5998 111.8 44.2998 108.2 41.2998C104 37.9008 94.2002 29.8998 94.2002 29.8998V26.7998Z" fill="white"/>
<path fill-rule="evenodd" clip-rule="evenodd" d="M94.2002 32.2002C94.2002 32.2002 106 41.5002 108.2 43.2002C110.4 44.8002 113.3 46.7002 121.7 48.0002C130.1 49.2002 134.4 49.8002 134.4 49.8002V50.5002C134.4 50.5002 126.8 49.4002 121.7 48.8002C116.6 48.2002 112.7 47.9002 108.2 44.9002C103.8 42.0002 94.2002 35.2002 94.2002 35.2002V32.2002Z" fill="white"/>
<path fill-rule="evenodd" clip-rule="evenodd" d="M94.2002 37.4004C94.2002 37.4004 106 45.2994 108.2 46.5004C110.4 47.7004 113.1 49.7994 121.7 50.9004C130.3 52.0004 134.4 52.5004 134.4 52.5004V53.2004C134.4 53.2004 127.3 52.4004 121.7 51.7994C116.1 51.2004 112.3 50.4004 108.2 48.0994C104.1 45.7994 94.2002 40.0994 94.2002 40.0994V37.4004Z" fill="white"/>
<path fill-rule="evenodd" clip-rule="evenodd" d="M94.2002 42.7002C94.2002 42.7002 104.6 48.4002 108.2 50.0992C112.1 52.0992 115.5 53.0002 121.7 53.8002C127.8 54.5002 134.4 55.2002 134.4 55.2002V55.8002C134.4 55.8002 128.3 55.0992 121.7 54.5002C115.2 53.9002 112.9 53.5992 108.2 51.5002C104 49.5992 94.2002 45.0992 94.2002 45.0992V42.7002Z" fill="white"/>
<path fill-rule="evenodd" clip-rule="evenodd" d="M94.2006 48C94.2006 48 102.401 51.5 108.201 53.8C113.901 56.1 118.201 56.3 121.701 56.6C123.201 56.8 134.301 57.9 134.301 57.9V58.5C134.301 58.5 127.701 58 121.601 57.4C115.601 56.9 113.001 56.6 108.101 55C103.201 53.4 94.1006 50.2 94.1006 50.2L94.2006 48Z" fill="white"/>
<path fill-rule="evenodd" clip-rule="evenodd" d="M94.2002 53.4004C94.2002 53.4004 102.5 56.0004 108.2 57.5004C113.9 59.0004 119.1 59.5994 121.7 59.7994C124.3 60.0004 134.4 60.7994 134.4 60.7994V61.4004C134.4 61.4004 128.7 61.0004 121.7 60.5004C116 60.0994 111.5 59.7004 108.2 58.9004C104.5 58.0994 94.2002 55.5994 94.2002 55.5994V53.4004Z" fill="white"/>
<path fill-rule="evenodd" clip-rule="evenodd" d="M94.2002 58.7002C94.2002 58.7002 101 59.9002 108.2 61.0992C113.6 62.0002 120.9 62.5992 121.7 62.5992C122.5 62.5992 134.4 63.5002 134.4 63.5002V64.0992C134.4 64.0992 126.8 63.7002 121.7 63.4002C116.4 63.0992 111.2 62.8002 108.2 62.5002C101.5 61.8002 94.2002 60.9002 94.2002 60.9002V58.7002Z" fill="white"/>
<path fill-rule="evenodd" clip-rule="evenodd" d="M94.2002 64.2998C94.2002 64.2998 104.9 64.6998 108.2 64.7998C111.5 64.9008 134.4 65.7998 134.4 65.7998V66.4008H94.2002V64.2998Z" fill="white"/>
<path fill-rule="evenodd" clip-rule="evenodd" d="M121.7 33.3999C112 31.2999 109.8 27.7999 108.2 25.5999C106.6 23.3999 94.2998 5.3999 94.2998 5.3999V9.4999C94.7998 10.0999 105.3 23.8999 108.3 27.6999C111.6 31.9999 116.8 32.9999 121.8 33.9999C126.8 35.0999 134.5 36.5999 134.5 36.5999V35.9999C134.4 35.9999 124.2 33.9999 121.7 33.3999" fill="white"/>
<path fill-rule="evenodd" clip-rule="evenodd" d="M121.7 36.2999C113.7 34.6999 110.5 32.1999 108.2 29.1999C105.9 26.0999 94.2998 10.8999 94.2998 10.8999V14.6999C94.7998 15.2999 105.4 27.7999 108.2 31.0999C111.5 34.8999 116.1 35.8999 121.7 36.8999C127.3 37.9009 134.4 39.2999 134.4 39.2999V38.6999C134.4 38.6999 126.3 37.1999 121.7 36.2999" fill="white"/>
<path fill-rule="evenodd" clip-rule="evenodd" d="M121.7 39.2001C113.4 37.5991 111.7 36.3001 108.2 32.4001C106 30.0001 94.7002 16.7001 94.2002 16.1001V19.6001C94.2002 19.6001 104.7 30.8001 108.1 34.2001C112.5 38.5991 116.7 38.9001 121.6 39.8001C126.5 40.7001 134.3 42.0991 134.3 42.0991V41.5001C134.4 41.5001 125 39.9001 121.7 39.2001" fill="white"/>
<mask id="mask5" style="mask-type:alpha" maskUnits="userSpaceOnUse" x="0" y="0" width="277" height="67">
<path fill-rule="evenodd" clip-rule="evenodd" d="M0 66.7H276.7V0H0V66.7Z" fill="white"/>
</mask>
<g mask="url(#mask5)">
<path fill-rule="evenodd" clip-rule="evenodd" d="M27.5 66.3001H85.4V27.6001H27.5V66.3001Z" fill="#004494" stroke="white" stroke-width="2"/>
<path fill-rule="evenodd" clip-rule="evenodd" d="M57.1004 33.1001H59.1004L57.5004 34.4001L58.1004 36.4001L56.5004 35.2001L54.9004 36.4001L55.5004 34.4001L53.9004 33.1001H55.9004L56.5004 31.1001L57.1004 33.1001Z" fill="#FFF100"/>
<path fill-rule="evenodd" clip-rule="evenodd" d="M57.1004 58.9005H59.1004L57.5004 60.0995L58.1004 62.0005L56.5004 60.7995L54.9004 62.0005L55.5004 60.0995L53.9004 58.9005H55.9004L56.5004 57.0005L57.1004 58.9005Z" fill="#FFF100"/>
<path fill-rule="evenodd" clip-rule="evenodd" d="M63.4998 57.2003H65.4998L63.8998 58.4003L64.4998 60.3003L62.8998 59.0993L61.2998 60.3003L61.8998 58.4003L60.2998 57.2003H62.2998L62.8998 55.3003L63.4998 57.2003Z" fill="#FFF100"/>
<path fill-rule="evenodd" clip-rule="evenodd" d="M63.5004 34.7999H65.5004L63.9004 35.9999L64.5004 37.9009L62.9004 36.6999L61.3004 37.9999L62.0004 35.9999L60.4004 34.7999H62.4004L63.0004 32.8999L63.5004 34.7999Z" fill="#FFF100"/>
<path fill-rule="evenodd" clip-rule="evenodd" d="M68.2996 39.5997H70.2996L68.6996 40.7997L69.2996 42.7007L67.6996 41.4997L66.0996 42.7007L66.6996 40.7997L65.0996 39.5997H67.0996L67.6996 37.7007L68.2996 39.5997Z" fill="#FFF100"/>
<path fill-rule="evenodd" clip-rule="evenodd" d="M68.2996 52.5997H70.2996L68.6996 53.7997L69.2996 55.7007L67.6996 54.4997L66.0996 55.7007L66.6996 53.7997L65.0996 52.5997H67.0996L67.6996 50.7007L68.2996 52.5997Z" fill="#FFF100"/>
<path fill-rule="evenodd" clip-rule="evenodd" d="M70.0998 46.0001H72.0998L70.4998 47.2001L71.0998 49.1001L69.4998 47.9001L67.8998 49.1001L68.4998 47.2001L66.7998 46.0001H68.7998L69.3998 44.1001L70.0998 46.0001Z" fill="#FFF100"/>
<path fill-rule="evenodd" clip-rule="evenodd" d="M50.4998 34.7998H52.4998L50.8998 35.9998L51.4998 37.9008L49.9998 36.7998L48.2998 37.9998L48.8998 36.0998L47.2998 34.8998H49.2998L49.9998 32.9998L50.4998 34.7998Z" fill="#FFF100"/>
<path fill-rule="evenodd" clip-rule="evenodd" d="M45.9002 39.5997H47.9002L46.3002 40.7997L46.9002 42.7007L45.3002 41.4997L43.7002 42.7007L44.3002 40.7997L42.7002 39.5997H44.7002L45.3002 37.7007L45.9002 39.5997Z" fill="#FFF100"/>
<path fill-rule="evenodd" clip-rule="evenodd" d="M44.2 46.0001H46.2L44.6 47.2001L45.2 49.1001L43.6 47.9001L42 49.1001L42.6 47.2001L41 46.0001H43L43.6 44.1001L44.2 46.0001Z" fill="#FFF100"/>
<path fill-rule="evenodd" clip-rule="evenodd" d="M45.9002 52.5997H47.9002L46.3002 53.7997L46.9002 55.7007L45.3002 54.4997L43.7002 55.7007L44.3002 53.7997L42.7002 52.5997H44.7002L45.3002 50.7007L45.9002 52.5997Z" fill="#FFF100"/>
<path fill-rule="evenodd" clip-rule="evenodd" d="M50.6004 57.2999H52.6004L51.0004 58.4999L51.6004 60.4009L50.0004 59.1999L48.4004 60.4009L49.0004 58.4999L47.4004 57.2999H49.4004L50.0004 55.4009L50.6004 57.2999Z" fill="#FFF100"/>
<path fill-rule="evenodd" clip-rule="evenodd" d="M143.4 33.1002C143.4 32.8002 143.5 32.7002 143.8 32.7002H151.2C151.5 32.7002 151.6 32.8002 151.6 33.1002V34.3002C151.6 34.5002 151.5 34.7002 151.2 34.7002H145.7V38.2002H150.6C150.9 38.2002 151 38.3002 151 38.6002V39.8002C151 40.0002 150.9 40.2002 150.6 40.2002H145.7V44.2002H151.3C151.5 44.2002 151.7 44.3002 151.7 44.6002V45.8002C151.7 46.0002 151.6 46.2002 151.3 46.2002H143.8C143.5 46.2002 143.4 46.1002 143.4 45.8002V33.1002Z" fill="white"/>
<path fill-rule="evenodd" clip-rule="evenodd" d="M161.8 46.0997H160.401C160.3 46.0997 160.2 46.0997 160.1 45.9997C160 45.9007 160 45.7997 160 45.7007V44.9997C159.8 45.0997 159.6 45.2997 159.3 45.4007C159 45.4997 158.8 45.7007 158.5 45.7997C158.2 45.9007 157.901 45.9997 157.6 46.0997C157.3 46.2007 157 46.2007 156.7 46.2007C156 46.2007 155.5 46.0997 155.1 45.9007C154.7 45.7007 154.401 45.4997 154.2 45.0997C154 44.7997 153.901 44.4007 153.8 43.9007C153.7 43.4007 153.7 42.9997 153.7 42.4007V36.4997C153.7 36.2007 153.8 36.0997 154.1 36.0997H155.6C155.8 36.0997 156 36.2007 156 36.4997V42.0997C156 42.4007 156 42.7007 156.1 42.9007C156.1 43.0997 156.2 43.2997 156.3 43.4997C156.401 43.7007 156.6 43.7997 156.7 43.9007C156.8 43.9997 157.1 43.9997 157.401 43.9997C157.6 43.9997 157.8 43.9997 158.1 43.9007C158.401 43.7997 158.6 43.7007 158.901 43.5997C159.2 43.4997 159.401 43.4007 159.6 43.2997C159.8 43.2007 160 43.0997 160.1 42.9997V36.2997C160.1 36.2007 160.1 36.0997 160.2 35.9997C160.3 35.8997 160.401 35.8997 160.5 35.8997H161.901C162.2 35.8997 162.3 35.9997 162.3 36.2997V45.4007C162.2 45.9007 162.1 46.0997 161.8 46.0997" fill="white"/>
<path fill-rule="evenodd" clip-rule="evenodd" d="M166.901 45.7001C166.901 46.0001 166.8 46.0991 166.501 46.0991H165.001C164.701 46.0991 164.6 46.0001 164.6 45.7001V36.6001C164.6 36.3001 164.701 36.2001 165.001 36.2001H166.401C166.701 36.2001 166.8 36.3001 166.8 36.6001V37.5001C166.901 37.4001 167.1 37.2001 167.401 37.0991C167.6 36.9001 167.901 36.8001 168.201 36.7001C168.501 36.6001 168.8 36.5001 169.001 36.3001C169.3 36.2001 169.501 36.1001 169.8 36.1001H170.1C170.201 36.1001 170.201 36.2001 170.3 36.4001L170.401 37.7001V38.0001C170.401 38.0991 170.3 38.0991 170.001 38.2001C169.701 38.3001 169.401 38.3001 169.1 38.4001C168.8 38.5001 168.501 38.5991 168.201 38.5991C167.901 38.7001 167.6 38.8001 167.401 38.9001C167.1 39.0001 166.901 39.0991 166.8 39.0991L166.901 45.7001Z" fill="white"/>
<path fill-rule="evenodd" clip-rule="evenodd" d="M177.9 41.0995C177.9 40.5995 177.9 40.0995 177.799 39.7005C177.7 39.2995 177.599 38.9995 177.5 38.7005C177.299 38.4005 177.099 38.2005 176.799 38.0995C176.5 37.9995 176.2 37.9005 175.7 37.9005C175.299 37.9005 174.9 37.9995 174.7 38.0995C174.5 38.2005 174.2 38.4005 174.099 38.7005C173.9 38.9995 173.799 39.2995 173.799 39.7005C173.7 40.0995 173.7 40.5995 173.7 41.0995C173.7 41.5995 173.7 42.0995 173.799 42.4995C173.9 42.9005 174 43.2005 174.099 43.4995C174.2 43.7995 174.5 43.9995 174.7 44.0995C174.9 44.2005 175.299 44.2995 175.7 44.2995C176.2 44.2995 176.5 44.2005 176.799 44.0995C177.099 43.9995 177.299 43.7995 177.5 43.4995C177.7 43.2005 177.799 42.9005 177.799 42.4995C177.9 42.0995 177.9 41.7005 177.9 41.0995M180.2 40.9995C180.2 41.5995 180.2 42.2005 180.099 42.7995C180 43.4005 179.799 43.9995 179.5 44.4995C179.2 44.9995 178.799 45.4005 178.2 45.7995C177.599 46.0995 176.799 46.2995 175.799 46.2995C174.799 46.2995 174 46.0995 173.4 45.7995C172.799 45.4995 172.4 45.0995 172.099 44.4995C171.799 43.9995 171.599 43.4005 171.599 42.7995C171.5 42.2005 171.5 41.5995 171.5 40.9995C171.5 40.4995 171.5 39.9995 171.599 39.4005C171.7 38.7995 171.9 38.2995 172.2 37.7995C172.5 37.2995 172.9 36.8995 173.5 36.4995C174.099 36.2005 174.799 35.9995 175.799 35.9995C176.799 35.9995 177.599 36.0995 178.099 36.3995C178.7 36.7005 179.099 37.0995 179.4 37.5995C179.7 38.0995 179.9 38.5995 180 39.2005C180.099 39.7995 180.2 40.4005 180.2 40.9995" fill="white"/>
<path fill-rule="evenodd" clip-rule="evenodd" d="M188.5 41.0995C188.5 40.4995 188.5 39.9005 188.4 39.5995C188.3 39.2995 188.2 38.9005 188.1 38.7005C188 38.4995 187.8 38.2995 187.6 38.2995C187.4 38.2005 187.2 38.2005 186.9 38.2005C186.7 38.2005 186.5 38.2005 186.2 38.2995C185.9 38.4005 185.7 38.4005 185.4 38.4995C185.2 38.5995 184.9 38.7005 184.7 38.7995C184.5 38.9005 184.3 38.9995 184.1 39.0995V44.0995C184.6 44.2005 185 44.2995 185.3 44.4005C185.6 44.4995 186 44.4995 186.4 44.4995C186.8 44.4995 187.1 44.4005 187.3 44.2995C187.5 44.2005 187.7 43.9995 187.9 43.7995C188.1 43.4995 188.2 43.2005 188.2 42.7995C188.5 42.2005 188.5 41.7005 188.5 41.0995M190.8 41.0995C190.8 41.9005 190.7 42.5995 190.6 43.2995C190.5 43.9005 190.3 44.4995 190 44.9005C189.7 45.2995 189.3 45.7005 188.8 45.9005C188.3 46.0995 187.6 46.2005 186.8 46.2005C186.5 46.2005 186.1 46.2005 185.6 46.0995C185.2 45.9995 184.7 45.9005 184.2 45.7995V49.2995C184.2 49.4005 184.2 49.4995 184.1 49.5995C184 49.7005 183.9 49.7005 183.8 49.7005H182.4C182.2 49.7005 182.1 49.7005 182.1 49.5995C182.1 49.4995 182 49.4005 182 49.2995V36.5995C182 36.2995 182.1 36.2005 182.4 36.2005H183.8C183.9 36.2005 184 36.2005 184.1 36.2995C184.2 36.3995 184.2 36.4995 184.2 36.5995V37.2005H184.3C184.5 37.0995 184.7 36.9995 184.9 36.7995C185.1 36.7005 185.4 36.4995 185.7 36.3995C186 36.2995 186.3 36.2005 186.6 36.0995C186.9 35.9995 187.2 35.9995 187.5 35.9995C188.2 35.9995 188.7 36.0995 189.1 36.3995C189.5 36.5995 189.9 36.9995 190.1 37.4005C190.3 37.7995 190.5 38.4005 190.6 38.9995C190.8 39.5995 190.8 40.2995 190.8 41.0995" fill="white"/>
<path fill-rule="evenodd" clip-rule="evenodd" d="M196.701 37.7997C196.301 37.7997 196.001 37.9007 195.801 37.9997C195.6 38.0997 195.401 38.2997 195.201 38.4997C195.001 38.6997 194.901 38.9997 194.901 39.2997C194.801 39.5997 194.801 39.9007 194.801 40.2997H198.801C198.801 39.9997 198.801 39.6997 198.701 39.4007C198.6 39.0997 198.501 38.9007 198.401 38.5997C198.301 38.2997 198.1 38.1997 197.801 38.0997C197.401 37.9007 197.1 37.7997 196.701 37.7997V37.7997ZM194.701 41.6997C194.701 42.1997 194.801 42.5997 194.901 42.9997C195.001 43.2997 195.201 43.5997 195.401 43.7997C195.6 43.9997 195.801 44.0997 196.1 44.1997C196.401 44.2997 196.701 44.2997 197.201 44.2997C197.6 44.2997 198.001 44.2997 198.501 44.1997C199.001 44.0997 199.401 44.0997 199.801 44.0997H200.201C200.301 44.0997 200.301 44.1997 200.401 44.4007L200.501 45.0997V45.4997C200.501 45.5997 200.401 45.6997 200.201 45.7997C200.001 45.9007 199.801 45.9997 199.501 45.9997C199.201 45.9997 199.001 46.0997 198.701 46.1997C198.401 46.2997 198.1 46.2997 197.801 46.2997H197.001C196.001 46.2997 195.301 46.1997 194.701 45.9007C194.1 45.5997 193.701 45.1997 193.401 44.7997C193.1 44.2997 192.901 43.7997 192.801 43.1997C192.701 42.5997 192.6 41.9997 192.6 41.2997C192.6 40.7997 192.6 40.2997 192.701 39.6997C192.801 39.0997 193.001 38.4997 193.301 37.9997C193.6 37.4997 194.001 36.9997 194.6 36.6997C195.201 36.2997 195.901 36.1997 196.901 36.1997C197.801 36.1997 198.501 36.2997 199.1 36.5997C199.701 36.8997 200.1 37.1997 200.401 37.5997C200.701 37.9997 200.901 38.4997 201.001 38.9997C201.1 39.4997 201.201 40.0997 201.201 40.5997C201.201 40.9997 201.201 41.2997 201.001 41.4997C200.801 41.6997 200.6 41.7997 200.201 41.7997H194.701V41.6997Z" fill="white"/>
<path fill-rule="evenodd" clip-rule="evenodd" d="M205.3 45.7001C205.3 45.8001 205.3 45.9001 205.2 46.0001C205.2 46.0991 205.1 46.0991 204.901 46.0991H203.5C203.2 46.0991 203.1 46.0001 203.1 45.7001V36.6001C203.1 36.3001 203.2 36.2001 203.5 36.2001H204.901C205 36.2001 205.1 36.2001 205.2 36.3001C205.2 36.4001 205.3 36.5001 205.3 36.6001V45.7001ZM205.401 33.6001V34.1001C205.401 34.2001 205.3 34.4001 205.2 34.5001C205.1 34.6001 205 34.7001 204.8 34.8001C204.6 34.9001 204.401 34.9001 204.2 34.9001C203.901 34.9001 203.7 34.9001 203.6 34.8001C203.401 34.7001 203.3 34.6001 203.2 34.5001C203.1 34.4001 203.1 34.3001 203 34.1001V33.7001C203 33.4001 203.1 33.1001 203.2 32.9001C203.401 32.7001 203.7 32.6001 204.2 32.6001C204.7 32.6001 205 32.7001 205.2 32.9001C205.3 33.0001 205.401 33.3001 205.401 33.6001V33.6001Z" fill="white"/>
<path fill-rule="evenodd" clip-rule="evenodd" d="M215.1 43.0997C215.1 43.7007 215 44.2007 214.8 44.5997C214.6 44.9997 214.3 45.2997 213.901 45.5997C213.5 45.7997 213.1 45.9997 212.6 46.0997C212.1 46.2007 211.6 46.2997 211.1 46.2997C210.6 46.2997 210 46.2997 209.5 46.2007C208.901 46.0997 208.401 45.9997 208 45.9007C207.8 45.7997 207.701 45.7007 207.6 45.5997C207.5 45.4997 207.5 45.4007 207.6 45.2007L207.701 44.4997C207.701 44.2997 207.8 44.2007 207.901 44.2007H208.3C208.5 44.2007 208.8 44.2997 209 44.2997C209.3 44.2997 209.5 44.2997 209.8 44.4007C210.1 44.4007 210.3 44.4007 210.5 44.4997H211.1C211.701 44.4997 212.201 44.4007 212.5 44.2007C212.8 43.9997 212.901 43.7007 212.901 43.2997C212.901 43.0997 212.901 42.9007 212.8 42.7007C212.701 42.4997 212.701 42.4007 212.5 42.2997C212.3 42.2007 212.201 42.0997 212 42.0997C211.8 41.9997 211.5 41.9997 211.201 41.9007C210.701 41.7997 210.201 41.7007 209.8 41.5997C209.401 41.4997 209 41.2997 208.6 41.0997C208.3 40.9007 208 40.5997 207.8 40.2997C207.6 39.9997 207.5 39.4997 207.5 38.9997C207.5 37.9997 207.8 37.2997 208.5 36.7007C209.201 36.2007 210.1 35.8997 211.201 35.8997H211.901C212.201 35.8997 212.401 35.8997 212.701 35.9997C213 35.9997 213.201 36.0997 213.5 36.0997C213.8 36.0997 214 36.2007 214.201 36.2997C214.5 36.3997 214.701 36.5997 214.6 36.8997L214.401 37.5997C214.401 37.7007 214.3 37.7997 214.201 37.9007H213.8C213.401 37.7997 212.901 37.7997 212.401 37.7007C211.901 37.7007 211.5 37.5997 211.1 37.5997C210.5 37.5997 210 37.7007 209.8 37.9007C209.6 38.0997 209.5 38.4007 209.5 38.7997C209.5 39.2007 209.6 39.4007 209.901 39.5997C210.201 39.7007 210.6 39.7997 211.201 39.9007C211.701 39.9997 212.1 40.0997 212.6 40.2007C213.1 40.2997 213.401 40.4997 213.8 40.7007C214.1 40.9007 214.401 41.2007 214.6 41.5997C215 41.9997 215.1 42.4997 215.1 43.0997" fill="white"/>
<path fill-rule="evenodd" clip-rule="evenodd" d="M219.2 39.9004L220.7 38.2994L222.4 36.6004C222.5 36.5004 222.599 36.4004 222.7 36.2994C222.8 36.2004 222.9 36.2004 223.099 36.2004H224.7C224.9 36.2004 225 36.2004 225 36.2994C225 36.4004 225 36.5004 224.9 36.6004L221.7 39.9004L225.3 45.5994C225.4 45.7004 225.4 45.7994 225.3 45.9004C225.2 46.0004 225.2 46.0004 225 46.0004H223.5C223.3 46.0004 223.099 46.0004 223 45.9004C222.9 45.7994 222.8 45.7004 222.8 45.5994L220.2 41.5004L219.099 42.7004V45.7004C219.099 45.7994 219.099 45.9004 219 46.0004C218.9 46.0994 218.8 46.0994 218.7 46.0994H217.3C217 46.0994 216.9 46.0004 216.9 45.7004V32.2994C216.9 32.0004 217 31.9004 217.3 31.9004H218.7C218.8 31.9004 218.9 31.9004 219 32.0004C219.099 32.1004 219.099 32.2004 219.099 32.2994L219.2 39.9004Z" fill="white"/>
<path fill-rule="evenodd" clip-rule="evenodd" d="M232.701 41.5997H230.301C229.801 41.5997 229.401 41.7007 229.1 41.9997C228.801 42.2007 228.701 42.7007 228.701 43.2997C228.701 43.7007 228.801 43.9997 229.001 44.2007C229.201 44.4007 229.501 44.4997 230.001 44.4997C230.201 44.4997 230.401 44.4997 230.701 44.4007C231.001 44.2997 231.201 44.2997 231.501 44.2007C231.801 44.0997 232.001 43.9997 232.201 43.9007C232.401 43.7997 232.701 43.7007 232.801 43.5997V41.5997H232.701ZM232.901 44.9007C232.401 45.2997 231.801 45.5997 231.201 45.7997C230.6 45.9997 229.901 46.2007 229.201 46.2007C228.701 46.2007 228.201 46.0997 227.901 45.9997C227.501 45.9007 227.301 45.7007 227.1 45.4007C226.901 45.2007 226.701 44.9007 226.701 44.4997C226.6 44.2007 226.6 43.7997 226.6 43.2997C226.6 42.0997 226.901 41.2997 227.501 40.7007C228.1 40.2007 229.1 39.9007 230.301 39.9007H232.901V39.4007C232.901 39.0997 232.901 38.9007 232.801 38.5997C232.701 38.4007 232.6 38.2007 232.501 38.0997C232.301 37.9997 232.1 37.9007 231.901 37.7997C231.6 37.7007 231.301 37.7007 230.901 37.7007H230.301H229.6C229.401 37.7007 229.1 37.7007 228.901 37.7997C228.701 37.7997 228.401 37.7997 228.201 37.9007H227.801C227.701 37.9007 227.701 37.7997 227.6 37.5997L227.401 36.8997V36.5997C227.501 36.4997 227.6 36.3997 227.801 36.2997C228.001 36.2007 228.301 36.2007 228.6 36.0997C228.901 35.9997 229.201 35.9997 229.501 35.9997C229.801 35.9997 230.1 35.8997 230.401 35.8997H231.201C232.1 35.8997 232.801 35.9997 233.301 36.2007C233.801 36.3997 234.201 36.5997 234.501 36.8997C234.801 37.2007 234.901 37.5997 235.001 38.0997C235.1 38.5997 235.1 39.0997 235.1 39.5997V43.4997V43.9997C235.1 44.0997 235.201 44.2007 235.201 44.2997C235.201 44.4007 235.301 44.4007 235.401 44.4007C235.501 44.4007 235.6 44.4007 235.801 44.4997C235.901 44.4997 236.001 44.4997 236.1 44.5997C236.201 44.5997 236.201 44.7007 236.201 44.7997V45.5997C236.201 45.7997 236.001 45.9997 235.701 45.9997C235.501 45.9997 235.401 45.9997 235.201 46.0997H234.701C234.201 46.0997 233.901 45.9997 233.6 45.7997C233.201 45.7007 233.001 45.4007 232.901 44.9007V44.9007Z" fill="white"/>
<path fill-rule="evenodd" clip-rule="evenodd" d="M145.4 60.2002L146.9 58.5992L148.6 56.9002L148.9 56.5992C149 56.5002 149.1 56.5002 149.3 56.5002H150.9C151.1 56.5002 151.2 56.5002 151.2 56.5992C151.2 56.7002 151.2 56.8002 151.1 56.9002L147.9 60.2002L151.5 65.9002C151.6 66.0002 151.6 66.0992 151.5 66.2002C151.4 66.3002 151.4 66.3002 151.2 66.3002H149.7C149.5 66.3002 149.3 66.3002 149.2 66.2002C149.1 66.0992 149 66.0002 149 65.9002L146.4 61.8002L145.3 63.0002V66.0002C145.3 66.0992 145.3 66.2002 145.2 66.3002C145.1 66.4002 145 66.4002 144.9 66.4002H143.5C143.2 66.4002 143.1 66.3002 143.1 66.0002V52.5992C143.1 52.3002 143.2 52.2002 143.5 52.2002H144.9C145 52.2002 145.1 52.2002 145.2 52.3002C145.3 52.4002 145.3 52.5002 145.3 52.5992L145.4 60.2002Z" fill="white"/>
<path fill-rule="evenodd" clip-rule="evenodd" d="M158.9 61.4003C158.9 60.9003 158.9 60.4003 158.799 60.0003C158.7 59.5993 158.599 59.2993 158.5 59.0003C158.299 58.7003 158.099 58.5003 157.799 58.4003C157.5 58.2993 157.2 58.2003 156.7 58.2003C156.299 58.2003 155.9 58.2993 155.7 58.4003C155.5 58.5003 155.2 58.7003 155.099 59.0003C154.9 59.2993 154.799 59.5993 154.799 60.0003C154.7 60.4003 154.7 60.9003 154.7 61.4003C154.7 61.9003 154.7 62.4003 154.799 62.7993C154.9 63.2003 155 63.5003 155.099 63.7993C155.2 64.0993 155.5 64.2993 155.7 64.4003C155.9 64.5003 156.299 64.5993 156.7 64.5993C157.2 64.5993 157.5 64.5003 157.799 64.4003C158.099 64.2993 158.299 64.0993 158.5 63.7993C158.7 63.5003 158.799 63.2003 158.799 62.7993C158.799 62.4003 158.9 62.0003 158.9 61.4003M161.099 61.2993C161.099 61.9003 161.099 62.5003 161 63.0993C160.9 63.7003 160.7 64.2993 160.4 64.7993C160.099 65.2993 159.7 65.7003 159.099 66.0993C158.5 66.4003 157.7 66.5993 156.7 66.5993C155.7 66.5993 154.9 66.4003 154.299 66.0993C153.7 65.7993 153.299 65.4003 153 64.7993C152.7 64.2993 152.5 63.7003 152.5 63.0993C152.4 62.5003 152.4 61.9003 152.4 61.2993C152.4 60.7993 152.4 60.2993 152.5 59.7003C152.599 59.0993 152.799 58.5993 153.099 58.0993C153.4 57.5993 153.799 57.2003 154.4 56.7993C155 56.5003 155.7 56.2993 156.7 56.2993C157.7 56.2993 158.5 56.4003 159 56.7003C159.599 57.0003 160 57.4003 160.299 57.9003C160.599 58.4003 160.799 58.9003 160.9 59.5003C161 60.0993 161.099 60.7003 161.099 61.2993" fill="white"/>
<path fill-rule="evenodd" clip-rule="evenodd" d="M177.4 66.2998C177.4 66.4008 177.299 66.4008 177.099 66.4008H175.7C175.4 66.4008 175.299 66.2998 175.299 65.9998V60.2998C175.299 59.5998 175.2 58.9998 175 58.7998C174.799 58.4998 174.4 58.4008 173.9 58.4008C173.7 58.4008 173.5 58.4008 173.299 58.4998C173.099 58.5998 172.799 58.5998 172.599 58.6998C172.4 58.7998 172.099 58.9008 171.9 58.9998C171.7 59.0998 171.5 59.1998 171.299 59.2998V59.6998V60.2998V65.9998C171.299 66.0998 171.299 66.1998 171.2 66.2998C171.099 66.4008 171 66.4008 170.9 66.4008H169.4C169.2 66.4008 169.099 66.2998 169.099 65.9998V60.1998C169.099 59.5998 169 59.0998 168.799 58.7998C168.599 58.4998 168.299 58.4008 167.799 58.4008C167.599 58.4008 167.4 58.4008 167.2 58.4998C167 58.5998 166.799 58.5998 166.5 58.6998C166.299 58.7998 166 58.9008 165.799 58.9998C165.599 59.0998 165.4 59.1998 165.2 59.2998V65.9998C165.2 66.2998 165.099 66.4008 164.799 66.4008H163.4C163.2 66.4008 163 66.2998 163 65.9998V56.9008C163 56.5998 163.099 56.4998 163.4 56.4998H164.799C165.099 56.4998 165.2 56.5998 165.2 56.9008V57.4998C165.4 57.4008 165.599 57.1998 165.799 57.0998C166 56.9998 166.299 56.7998 166.5 56.6998C166.7 56.5998 167 56.4998 167.299 56.4008C167.599 56.2998 167.799 56.2998 168.099 56.2998C168.7 56.2998 169.2 56.4008 169.7 56.5998C170.2 56.7998 170.599 57.1998 170.9 57.6998C171.4 57.2998 172 56.9998 172.599 56.6998C173.2 56.4008 173.799 56.2998 174.5 56.2998C175.2 56.2998 175.7 56.4008 176.099 56.5998C176.5 56.7998 176.799 57.0998 177 57.4008C177.2 57.6998 177.299 58.0998 177.4 58.5998C177.5 59.0998 177.5 59.4998 177.5 59.9998V65.9998C177.4 66.0998 177.4 66.1998 177.4 66.2998" fill="white"/>
<path fill-rule="evenodd" clip-rule="evenodd" d="M193.901 66.2998C193.901 66.4008 193.8 66.4008 193.6 66.4008H192.201C191.901 66.4008 191.8 66.2998 191.8 65.9998V60.2998C191.8 59.5998 191.701 58.9998 191.501 58.7998C191.3 58.4998 190.901 58.4008 190.401 58.4008C190.201 58.4008 190.001 58.4008 189.8 58.4998C189.6 58.5998 189.3 58.5998 189.1 58.6998C188.901 58.7998 188.6 58.9008 188.401 58.9998C188.201 59.0998 188.001 59.1998 187.8 59.2998V59.6998V60.2998V65.9998C187.8 66.0998 187.8 66.1998 187.701 66.2998C187.6 66.4008 187.501 66.4008 187.401 66.4008H186.001C185.8 66.4008 185.701 66.2998 185.701 65.9998V60.1998C185.701 59.5998 185.6 59.0998 185.401 58.7998C185.201 58.4998 184.901 58.4008 184.401 58.4008C184.201 58.4008 184.001 58.4008 183.8 58.4998C183.6 58.5998 183.401 58.5998 183.1 58.6998C182.8 58.7998 182.6 58.9008 182.401 58.9998C182.201 59.0998 182.001 59.1998 181.8 59.2998V65.9998C181.8 66.2998 181.701 66.4008 181.401 66.4008H180.001C179.8 66.4008 179.6 66.2998 179.6 65.9998V56.9008C179.6 56.5998 179.701 56.4998 180.001 56.4998H181.401C181.701 56.4998 181.8 56.5998 181.8 56.9008V57.4998C182.001 57.4008 182.201 57.1998 182.401 57.0998C182.6 56.9998 182.901 56.7998 183.1 56.6998C183.401 56.5998 183.6 56.4998 183.901 56.4008C184.201 56.2998 184.401 56.2998 184.701 56.2998C185.3 56.2998 185.8 56.4008 186.3 56.5998C186.8 56.7998 187.201 57.1998 187.501 57.6998C188.001 57.2998 188.6 56.9998 189.201 56.6998C189.8 56.4008 190.401 56.2998 191.1 56.2998C191.8 56.2998 192.3 56.4008 192.701 56.5998C193.1 56.7998 193.401 57.0998 193.6 57.4008C193.8 57.6998 193.901 58.0998 194.001 58.5998C194.1 59.0998 194.1 59.4998 194.1 59.9998V65.9998C194.001 66.0998 194.001 66.1998 193.901 66.2998" fill="white"/>
<path fill-rule="evenodd" clip-rule="evenodd" d="M198.6 65.9999C198.6 66.0999 198.6 66.1999 198.5 66.2999C198.401 66.3999 198.401 66.3999 198.201 66.3999H196.8C196.5 66.3999 196.401 66.2999 196.401 65.9999V56.8999C196.401 56.5999 196.5 56.4999 196.8 56.4999H198.201C198.3 56.4999 198.401 56.4999 198.5 56.5999C198.6 56.6999 198.6 56.7999 198.6 56.8999V65.9999ZM198.701 53.8999V54.3999C198.701 54.5999 198.6 54.6999 198.5 54.7999C198.401 54.8999 198.3 54.9999 198.1 55.0999C197.901 55.1999 197.701 55.1999 197.5 55.1999C197.201 55.1999 197 55.1999 196.901 55.0999C196.701 54.9999 196.6 54.8999 196.5 54.7999C196.401 54.6999 196.401 54.5999 196.3 54.3999V53.9999C196.3 53.6999 196.401 53.3999 196.5 53.1999C196.701 52.9999 197 52.8999 197.5 52.8999C198 52.8999 198.3 52.9999 198.5 53.1999C198.701 53.2999 198.701 53.5999 198.701 53.8999V53.8999Z" fill="white"/>
<path fill-rule="evenodd" clip-rule="evenodd" d="M208.401 63.4004C208.401 64.0004 208.3 64.5004 208.1 64.9004C207.901 65.2994 207.6 65.5994 207.201 65.9004C206.8 66.0994 206.401 66.2994 205.901 66.4004C205.401 66.5004 204.901 66.5994 204.401 66.5994C203.901 66.5994 203.3 66.5994 202.8 66.5004C202.201 66.4004 201.701 66.2994 201.3 66.2004C201.1 66.0994 201.001 66.0004 200.901 65.9004C200.8 65.7994 200.8 65.7004 200.901 65.5004L201.001 64.7994C201.001 64.5994 201.1 64.5004 201.201 64.5004H201.6C201.8 64.5004 202.1 64.5994 202.3 64.5994C202.6 64.5994 202.8 64.5994 203.1 64.7004C203.401 64.7004 203.6 64.7004 203.8 64.7994H204.401C205.001 64.7994 205.501 64.7004 205.8 64.5004C206.1 64.2994 206.201 64.0004 206.201 63.5994C206.201 63.4004 206.201 63.2004 206.1 63.0004C206.001 62.7994 206.001 62.7004 205.8 62.5994C205.6 62.5004 205.501 62.4004 205.3 62.4004C205.1 62.2994 204.8 62.2994 204.501 62.2004C204.001 62.0994 203.501 62.0004 203.1 61.9004C202.701 61.7994 202.3 61.5994 201.901 61.4004C201.6 61.2004 201.3 60.9004 201.1 60.5994C200.901 60.2994 200.8 59.7994 200.8 59.2994C200.8 58.2994 201.1 57.5994 201.8 57.0004C202.501 56.5004 203.401 56.2004 204.501 56.2004H205.201C205.501 56.2004 205.701 56.2004 206.001 56.2994C206.3 56.2994 206.501 56.4004 206.8 56.4004C207.1 56.4004 207.3 56.5004 207.501 56.5994C207.8 56.7004 208.001 56.9004 207.901 57.2004L207.701 57.9004C207.701 58.0004 207.6 58.0994 207.501 58.2004H207.1C206.701 58.0994 206.201 58.0994 205.701 58.0004C205.201 58.0004 204.8 57.9004 204.401 57.9004C203.8 57.9004 203.3 58.0004 203.1 58.2004C202.901 58.4004 202.8 58.7004 202.8 59.0994C202.8 59.5004 202.901 59.7004 203.201 59.9004C203.501 60.0004 203.901 60.0994 204.501 60.2004C205.001 60.2994 205.401 60.4004 205.901 60.5004C206.401 60.5994 206.701 60.7994 207.1 61.0004C207.401 61.2004 207.701 61.5004 207.901 61.9004C208.3 62.2994 208.401 62.7994 208.401 63.4004" fill="white"/>
<path fill-rule="evenodd" clip-rule="evenodd" d="M217.701 63.4004C217.701 64.0004 217.6 64.5004 217.401 64.9004C217.201 65.2994 216.901 65.5994 216.501 65.9004C216.1 66.0994 215.701 66.2994 215.201 66.4004C214.701 66.5004 214.201 66.5994 213.701 66.5994C213.201 66.5994 212.6 66.5994 212.1 66.5004C211.501 66.4004 211.001 66.2994 210.6 66.2004C210.401 66.0994 210.301 66.0004 210.201 65.9004C210.1 65.7994 210.1 65.7004 210.201 65.5004L210.301 64.7994C210.301 64.5994 210.401 64.5004 210.501 64.5004H210.901C211.1 64.5004 211.401 64.5994 211.6 64.5994C211.901 64.5994 212.1 64.5994 212.401 64.7004C212.701 64.7004 212.901 64.7004 213.1 64.7994H213.701C214.301 64.7994 214.801 64.7004 215.1 64.5004C215.401 64.2994 215.501 64.0004 215.501 63.5994C215.501 63.4004 215.501 63.2004 215.401 63.0004C215.301 62.7994 215.301 62.7004 215.1 62.5994C214.901 62.5004 214.801 62.4004 214.6 62.4004C214.401 62.2994 214.1 62.2994 213.801 62.2004C213.301 62.0994 212.801 62.0004 212.401 61.9004C212.001 61.7994 211.6 61.5994 211.201 61.4004C210.901 61.2004 210.6 60.9004 210.401 60.5994C210.201 60.2994 210.1 59.7994 210.1 59.2994C210.1 58.2994 210.401 57.5994 211.1 57.0004C211.801 56.5004 212.701 56.2004 213.801 56.2004H214.501C214.801 56.2004 215.001 56.2004 215.301 56.2994C215.6 56.2994 215.801 56.4004 216.1 56.4004C216.401 56.4004 216.6 56.5004 216.801 56.5994C217.1 56.7004 217.301 56.9004 217.201 57.2004L217.001 57.9004C217.001 58.0004 216.901 58.0994 216.801 58.2004H216.401C216.001 58.0994 215.501 58.0994 215.001 58.0004C214.501 58.0004 214.1 57.9004 213.701 57.9004C213.1 57.9004 212.6 58.0004 212.401 58.2004C212.201 58.4004 212.1 58.7004 212.1 59.0994C212.1 59.5004 212.201 59.7004 212.501 59.9004C212.801 60.0004 213.201 60.0994 213.801 60.2004C214.301 60.2994 214.701 60.4004 215.201 60.5004C215.701 60.5994 216.001 60.7994 216.401 61.0004C216.701 61.2004 217.001 61.5004 217.201 61.9004C217.6 62.2994 217.701 62.7994 217.701 63.4004" fill="white"/>
<path fill-rule="evenodd" clip-rule="evenodd" d="M222 65.9999C222 66.0999 222 66.1999 221.9 66.2999C221.9 66.3999 221.8 66.3999 221.6 66.3999H220.2C219.9 66.3999 219.8 66.2999 219.8 65.9999V56.8999C219.8 56.5999 219.9 56.4999 220.2 56.4999H221.6C221.7 56.4999 221.8 56.4999 221.9 56.5999C221.9 56.6999 222 56.7999 222 56.8999V65.9999ZM222.1 53.8999V54.3999C222.1 54.4999 222 54.6999 221.9 54.7999C221.8 54.8999 221.7 54.9999 221.5 55.0999C221.3 55.1999 221.1 55.1999 220.9 55.1999C220.6 55.1999 220.4 55.1999 220.3 55.0999C220.1 54.9999 220 54.8999 219.9 54.7999C219.8 54.6999 219.8 54.5999 219.7 54.3999V53.9999C219.7 53.6999 219.8 53.3999 219.9 53.1999C220.1 52.9999 220.4 52.8999 220.9 52.8999C221.4 52.8999 221.7 52.9999 221.9 53.1999C222 53.2999 222.1 53.5999 222.1 53.8999V53.8999Z" fill="white"/>
<path fill-rule="evenodd" clip-rule="evenodd" d="M230.8 61.4003C230.8 60.9003 230.8 60.4003 230.7 60.0003C230.6 59.5993 230.5 59.2993 230.401 59.0003C230.2 58.7003 230 58.5003 229.7 58.4003C229.401 58.2993 229.1 58.2003 228.6 58.2003C228.2 58.2003 227.8 58.2993 227.6 58.4003C227.401 58.5003 227.1 58.7003 227 59.0003C226.8 59.2993 226.7 59.5993 226.7 60.0003C226.6 60.4003 226.6 60.9003 226.6 61.4003C226.6 61.9003 226.6 62.4003 226.7 62.7993C226.8 63.2003 226.901 63.5003 227 63.7993C227.1 64.0993 227.401 64.2993 227.6 64.4003C227.8 64.5003 228.2 64.5993 228.6 64.5993C229.1 64.5993 229.401 64.5003 229.7 64.4003C230 64.2993 230.2 64.0993 230.401 63.7993C230.6 63.5003 230.7 63.2003 230.7 62.7993C230.7 62.4003 230.8 62.0003 230.8 61.4003M233 61.2993C233 61.9003 233 62.5003 232.901 63.0993C232.8 63.7003 232.6 64.2993 232.3 64.7993C232 65.2993 231.6 65.7003 231 66.0993C230.401 66.4003 229.6 66.5993 228.6 66.5993C227.6 66.5993 226.8 66.4003 226.2 66.0993C225.6 65.7993 225.2 65.4003 224.901 64.7993C224.6 64.2993 224.401 63.7003 224.401 63.0993C224.3 62.5003 224.3 61.9003 224.3 61.2993C224.3 60.7993 224.3 60.2993 224.401 59.7003C224.5 59.0993 224.7 58.5993 225 58.0993C225.3 57.5993 225.7 57.2003 226.3 56.7993C226.901 56.5003 227.6 56.2993 228.6 56.2993C229.6 56.2993 230.401 56.4003 230.901 56.7003C231.5 57.0003 231.901 57.4003 232.2 57.9003C232.5 58.4003 232.7 58.9003 232.8 59.5003C232.901 60.0993 233 60.7003 233 61.2993" fill="white"/>
<path fill-rule="evenodd" clip-rule="evenodd" d="M243.401 66.2998C243.3 66.4008 243.201 66.4008 243.1 66.4008H241.6C241.3 66.4008 241.201 66.2998 241.201 65.9998V60.4008C241.201 59.7998 241.1 59.2998 240.901 58.9998C240.701 58.5998 240.3 58.4998 239.701 58.4998C239.501 58.4998 239.3 58.4998 239.001 58.5998C238.701 58.6998 238.501 58.7998 238.201 58.9008C237.901 58.9998 237.701 59.0998 237.501 59.1998C237.3 59.2998 237.1 59.4008 237.001 59.4998V65.9998C237.001 66.2998 236.901 66.4008 236.6 66.4008H235.201C234.901 66.4008 234.8 66.2998 234.8 65.9998V56.9008C234.8 56.5998 234.901 56.4998 235.201 56.4998H236.6C236.901 56.4998 237.001 56.5998 237.001 56.9008V57.4998C237.201 57.4008 237.401 57.1998 237.701 57.0998C238.001 56.9998 238.201 56.7998 238.501 56.6998C238.8 56.5998 239.1 56.4998 239.401 56.4008C239.701 56.2998 240.001 56.2998 240.3 56.2998C241.001 56.2998 241.501 56.4008 241.901 56.5998C242.3 56.7998 242.6 57.0998 242.8 57.4008C243.001 57.6998 243.1 58.1998 243.201 58.5998C243.3 59.0998 243.3 59.4998 243.3 60.0998V65.9998C243.501 66.0998 243.501 66.1998 243.401 66.2998" fill="white"/>
<path fill-rule="evenodd" clip-rule="evenodd" d="M249.6 58.0995C249.201 58.0995 248.901 58.2005 248.701 58.2995C248.5 58.4005 248.3 58.5995 248.1 58.7995C247.901 58.9995 247.8 59.2995 247.8 59.5995C247.701 59.9005 247.701 60.2005 247.701 60.5995H251.701C251.701 60.2995 251.701 59.9995 251.6 59.7005C251.5 59.4005 251.401 59.2005 251.3 58.9005C251.201 58.5995 251 58.4995 250.701 58.4005C250.401 58.2005 250.1 58.0995 249.6 58.0995V58.0995ZM247.6 61.9995C247.6 62.4995 247.701 62.9005 247.8 63.2995C247.901 63.5995 248.1 63.9005 248.3 64.0995C248.5 64.2995 248.701 64.4005 249 64.4995C249.3 64.5995 249.6 64.5995 250.1 64.5995C250.5 64.5995 250.901 64.5995 251.401 64.4995C251.901 64.4005 252.3 64.4005 252.701 64.4005H253.1C253.201 64.4005 253.201 64.4995 253.3 64.7005L253.401 65.4005V65.7995C253.401 65.9005 253.3 65.9995 253.1 66.0995C252.901 66.2005 252.701 66.2995 252.401 66.2995C252.1 66.2995 251.901 66.4005 251.6 66.4995C251.3 66.5995 251 66.5995 250.701 66.5995H249.901C248.901 66.5995 248.201 66.4995 247.6 66.2005C247 65.9005 246.6 65.4995 246.3 65.0995C246 64.5995 245.8 64.0995 245.701 63.4995C245.6 62.9005 245.5 62.2995 245.5 61.5995C245.5 61.0995 245.5 60.5995 245.6 59.9995C245.701 59.4005 245.901 58.7995 246.201 58.2995C246.5 57.7995 246.901 57.2995 247.5 56.9995C248.1 56.5995 248.8 56.4995 249.8 56.4995C250.701 56.4995 251.401 56.5995 252 56.9005C252.6 57.2005 253 57.4995 253.3 57.9005C253.6 58.2995 253.8 58.7995 253.901 59.2995C254 59.7995 254.1 60.4005 254.1 60.9005C254.1 61.2995 254.1 61.5995 253.901 61.7995C253.701 61.9995 253.401 61.9995 253 61.9995H247.6Z" fill="white"/>
<path fill-rule="evenodd" clip-rule="evenodd" d="M264.201 66.2998C264.1 66.4008 264.001 66.4008 263.901 66.4008H262.401C262.1 66.4008 262.001 66.2998 262.001 65.9998V60.4008C262.001 59.7998 261.901 59.2998 261.701 58.9998C261.501 58.5998 261.1 58.4998 260.501 58.4998C260.301 58.4998 260.1 58.4998 259.801 58.5998C259.501 58.6998 259.301 58.7998 259.001 58.9008C258.701 58.9998 258.501 59.0998 258.301 59.1998C258.1 59.2998 257.901 59.4008 257.801 59.4998V65.9998C257.801 66.2998 257.701 66.4008 257.401 66.4008H256.001C255.701 66.4008 255.6 66.2998 255.6 65.9998V56.9008C255.6 56.5998 255.701 56.4998 256.001 56.4998H257.401C257.701 56.4998 257.801 56.5998 257.801 56.9008V57.4998C258.001 57.4008 258.201 57.1998 258.501 57.0998C258.801 56.9998 259.001 56.7998 259.301 56.6998C259.6 56.5998 259.901 56.4998 260.201 56.4008C260.501 56.2998 260.801 56.2998 261.1 56.2998C261.801 56.2998 262.301 56.4008 262.701 56.5998C263.1 56.7998 263.401 57.0998 263.6 57.4008C263.801 57.6998 263.901 58.1998 264.001 58.5998C264.1 59.0998 264.1 59.4998 264.1 60.0998V65.9998C264.301 66.0998 264.201 66.1998 264.201 66.2998" fill="white"/>
<path fill-rule="evenodd" clip-rule="evenodd" d="M273.4 66.7H276.7V28H273.4V66.7Z" fill="white"/>
</g>
</svg>
