<svg width="290" height="72" viewBox="0 0 290 72" fill="none" xmlns="http://www.w3.org/2000/svg">
<path fill-rule="evenodd" clip-rule="evenodd" d="M0 24.5C0 24.5 39.8 19.3 41 19.1C42.7 18.8 44.3 18.5 45.7 18.1C48.9 17.2 51.9 15.9 54.5 14.1C57 12.4 59.4 9.9 61.7 7.2C63.2 5.5 64.7 3.2 66.2 1V0C64.5 2.6 62.8 4.8 61.1 6.7C58.8 9.3 56.4 11.4 53.9 13C51.4 14.6 48.5 15.9 45.4 16.7C44 17.1 42.5 17.3 40.8 17.6C39.7 17.8 38.6 17.9 37.5 18C37 18 0 21.9 0 21.9V24.5Z" fill="white"/>
<mask id="mask0" style="mask-type:alpha" maskUnits="userSpaceOnUse" x="0" y="5" width="67" height="23">
<path fill-rule="evenodd" clip-rule="evenodd" d="M0 5.19971H66.0999V27.9997H0V5.19971Z" fill="white"/>
</mask>
<g mask="url(#mask0)">
<path fill-rule="evenodd" clip-rule="evenodd" d="M53.4 17.7997C50.9 19.1997 48 20.2997 44.8 20.8997C43.4 21.1997 42 21.3997 40.3 21.5997C39.3 21.6997 38.3 21.7997 37.3 21.8997C36.8 21.8997 36.2 21.9997 35.7 21.9997C23.5 23.1997 11.4 24.2997 0 25.3997V27.9997C11.4 26.5997 23.7 25.0997 35.9 23.6997C36.4 23.5997 37 23.5997 37.5 23.4997C38.5 23.3997 39.5 23.2997 40.5 23.0997C42.2 22.8997 43.8 22.5997 45.1 22.2997C48.4 21.5997 51.4 20.3997 54 18.7997C56.6 17.1997 58.8 15.0997 61.3 12.3997C62.8 10.6997 64.5 8.39971 66.1 6.19971V5.19971C64.2 7.69971 62.5 9.89971 60.7 11.6997C58.3 14.3997 55.9 16.3997 53.4 17.7997" fill="white"/>
</g>
<mask id="mask1" style="mask-type:alpha" maskUnits="userSpaceOnUse" x="0" y="10" width="67" height="22">
<path fill-rule="evenodd" clip-rule="evenodd" d="M0 10.9001H66.0999V31.5001H0V10.9001Z" fill="white"/>
</mask>
<g mask="url(#mask1)">
<path fill-rule="evenodd" clip-rule="evenodd" d="M60.4 17.2001C58 19.4001 55.4 21.2001 52.9 22.5001C50.4 23.7001 47.6 24.6001 44.3 25.1001C42.9 25.3001 41.5 25.5001 39.8 25.7001L0 28.9001V31.5001L35.3 27.7001L39.9 27.2001C41.6 27.0001 43.1 26.8001 44.5 26.5001C47.9 25.9001 50.8 24.9001 53.4 23.6001C56.1 22.2001 58.7 20.0001 61.2 17.6001C62.9 16.0001 64.4 13.9001 66.1 11.8001V10.9001C64.1 13.4001 62.3 15.4001 60.4 17.2001" fill="white"/>
</g>
<mask id="mask2" style="mask-type:alpha" maskUnits="userSpaceOnUse" x="0" y="21" width="67" height="18">
<path fill-rule="evenodd" clip-rule="evenodd" d="M0 21.7H66.1998V38.5H0V21.7Z" fill="white"/>
</mask>
<g mask="url(#mask2)">
<path fill-rule="evenodd" clip-rule="evenodd" d="M50.8 30.6C48.5 31.9 46.8 32.7 43.5 33C41.5 33.2 39.5 33.3 37.5 33.4C36.5 33.4 35.6 33.5 34.6 33.6C28.6 33.9 22.7 34.3 16.7 34.7L0 35.9V38.5L16.8 36.9C22.2 36.4 28.5 35.8 34.7 35.3L39.2 35C40.9 34.9 42.4 34.7 43.7 34.5C47.1 34.1 50 33.4 52.6 32.4C55.4 31.4 58 29.7 60.6 27.8C63 26.1 66.2 22.7 66.2 22.6V21.7C64.1 23.8 62.8 25 60.5 26.5C57.6 28.5 52.9 29.5 50.8 30.6" fill="white"/>
</g>
<path fill-rule="evenodd" clip-rule="evenodd" d="M51.6006 35.6001C49.1006 36.3001 46.3006 36.8001 43.0006 37.1001C41.7006 37.2001 40.2006 37.3001 38.6006 37.4001L34.2006 37.6001C23.2006 38.1001 12.2006 38.7001 0.100586 39.3001V41.9001C11.7006 41.0001 23.0006 40.1001 34.4006 39.3001L38.8006 39.0001C40.5006 38.9001 41.9006 38.8001 43.3006 38.6001C46.7006 38.2001 49.6006 37.6001 52.1006 36.8001C54.9006 35.9001 57.7006 34.6001 60.3006 32.9001C62.2006 31.7001 64.2006 30.2001 66.2006 28.4001C64.0006 30.3001 61.9006 30.7001 59.8006 32.0001C57.1006 33.6001 54.4006 34.8001 51.6006 35.6001" fill="white"/>
<path fill-rule="evenodd" clip-rule="evenodd" d="M51.2 39.9004C48.7 40.5004 45.9 40.9004 42.6 41.0994C41.3 41.2004 39.9 41.2994 38.2 41.2994L33.8 41.5004C22.7 41.9004 11.5 42.4004 0 42.9004V45.5004C11.4 44.7004 22.6 44.0004 33.9 43.2004L38.3 42.9004C40 42.7994 41.4 42.7004 42.7 42.5994C46.1 42.2994 48.9 41.7994 51.5 41.0994C54.4 40.2994 57.2 39.2004 59.9 37.7994C62 36.7004 64 35.4004 66.1 33.7994V32.7004C63.8 34.4004 61.6 35.7004 59.4 36.7994C56.8 38.2004 54 39.2004 51.2 39.9004" fill="white"/>
<mask id="mask3" style="mask-type:alpha" maskUnits="userSpaceOnUse" x="0" y="38" width="67" height="11">
<path fill-rule="evenodd" clip-rule="evenodd" d="M0 38.2007H66.1998V48.7997H0V38.2007Z" fill="white"/>
</mask>
<g mask="url(#mask3)">
<path fill-rule="evenodd" clip-rule="evenodd" d="M50.8 44.0997C48.3 44.5997 45.5 44.9007 42.2 44.9997C40.9 45.0997 39.6 45.0997 37.9 45.2007L0 46.2007V48.7997L33.6 46.9997L38 46.7997C39.7 46.7007 41.1 46.5997 42.4 46.4997C45.8 46.2007 48.5 45.9007 51.1 45.2997C54 44.7007 56.9 43.7997 59.6 42.5997C61.8 41.7007 63.9 40.5997 66.2 39.2007V38.2007C63.8 39.5997 61.5 40.7007 59.2 41.5997C56.5 42.7997 53.7 43.5997 50.8 44.0997" fill="white"/>
</g>
<path fill-rule="evenodd" clip-rule="evenodd" d="M50.5 48.2998C45.8 48.9008 41.1 48.9998 36.4 49.0998C35.3 49.0998 34.3 49.0998 33.2 49.1998L0 49.7998V52.4008L33.3 50.9998C34.4 50.9998 35.4 50.9008 36.5 50.9008C41.2 50.6998 46 50.4998 50.7 49.7998C53.7 49.2998 56.6 48.5998 59.2 47.6998C61.4 46.9998 63.7 45.9998 66 44.7998V43.7998C63.6 44.9008 61.1 45.9008 58.8 46.5998C56.3 47.2998 53.5 47.9998 50.5 48.2998" fill="white"/>
<mask id="mask4" style="mask-type:alpha" maskUnits="userSpaceOnUse" x="0" y="49" width="67" height="7">
<path fill-rule="evenodd" clip-rule="evenodd" d="M0 49.2007H66.1998V55.7997H0V49.2007Z" fill="white"/>
</mask>
<g mask="url(#mask4)">
<path fill-rule="evenodd" clip-rule="evenodd" d="M50.3 52.5997C45.9 52.9997 41.5 52.9997 37.1 52.9997H33.1C22.1 52.9997 11.1 53.0997 0 53.2007V55.7997C10.6 55.4007 21.9 55.0997 33.2 54.7007C34.5 54.7007 35.9 54.5997 37.2 54.5997C41.5 54.4997 46 54.4007 50.4 53.9007C53.5 53.5997 56.3 53.0997 59 52.4007C61.3 51.7997 63.7 50.9997 66.2 50.0997V49.2007C63.7 50.0997 61.2 50.7997 58.8 51.4007C56.1 51.9997 53.3 52.4007 50.3 52.5997" fill="white"/>
</g>
<path fill-rule="evenodd" clip-rule="evenodd" d="M50.1 56.7999C48.3 56.9009 46.3 56.9009 44.1 56.9009H41.6L33 56.7999C27.1 56.7999 21.3 56.6999 15.8 56.6999L0 56.7999V59.4009L15.9 58.9999C21.4 58.9009 27.2 58.6999 33 58.5999L41.6 58.4999C44 58.4999 47.1 58.4009 50.2 58.1999C53.3 57.9999 56.1 57.6999 58.8 57.2999C61.2 56.9009 63.7 56.4009 66.2 55.7999V54.9009C63.7 55.4999 61.1 55.9999 58.7 56.2999C55.9 56.4999 53.2 56.6999 50.1 56.7999" fill="white"/>
<path fill-rule="evenodd" clip-rule="evenodd" d="M41.5 60.9005L32.9 60.7995C22 60.5995 11.1 60.4005 0 60.2005V62.7995C10.6 62.7005 21.8 62.5995 32.9 62.5005L41.5 62.4005C44.4 62.4005 47.2 62.2995 50.1 62.2005C56 62.0005 61.2 61.5995 66.2 60.9005V60.0005C61.3 60.5005 56 60.7995 50.1 60.9005H41.5" fill="white"/>
<path fill-rule="evenodd" clip-rule="evenodd" d="M66.1 65.5L0 63.8V66.4H66.1V65.5Z" fill="white"/>
<path fill-rule="evenodd" clip-rule="evenodd" d="M60.2 21.9999C57.7 23.9999 55.7 25.4999 52.7 26.6999C50 27.7999 47.1 28.1999 43.9 28.6999C41.8 28.9999 39.6 29.3999 37.5 29.5999C36.6 29.6999 35.8 29.6999 34.9 29.7999L0 32.2999V34.8999L34.9 31.4999L39.4 31.0999C41.1 30.8999 42.6 30.7999 44 30.4999C47.4 29.9999 50.3 29.0999 52.9 27.8999C55.6 26.6999 58.4 24.6999 60.9 22.5999C62.6 21.0999 64.3 19.2999 66.1 17.2999V16.3999C63.9 18.5999 62.1 20.4999 60.2 21.9999" fill="white"/>
<path fill-rule="evenodd" clip-rule="evenodd" d="M94.2002 0C94.2002 0 106.1 18.9 108.3 22.4C110.5 25.9 113 28.6 121.8 30.5C130.6 32.4 134.4 33.2 134.4 33.2V33.9C134.4 33.9 128.8 32.7 121.6 31.1C114.4 29.5 111.5 29 108.2 24.4C105.5 20.6 94.2002 4.5 94.2002 4.5V0Z" fill="white"/>
<path fill-rule="evenodd" clip-rule="evenodd" d="M94.2002 21.6001C94.2002 21.6001 105 32.9001 108.2 36.2001C111.5 39.7001 115.8 40.9001 121.7 42.0001C127.3 43.0001 134.4 44.2001 134.4 44.2001V44.8001C134.4 44.8001 127.7 43.7001 121.7 42.7001C115.8 41.7001 111.6 41.1001 108.2 38.0001C105.2 35.2001 94.3002 25.0001 94.3002 25.0001L94.2002 21.6001Z" fill="white"/>
<path fill-rule="evenodd" clip-rule="evenodd" d="M94.2002 26.7998C94.2002 26.7998 104.5 36.3998 108.2 39.5998C111.6 42.5998 114.3 43.4998 121.7 44.9008C129.1 46.1998 134.4 46.9998 134.4 46.9998V47.6998C134.4 47.6998 127.7 46.5998 121.7 45.5998C115.7 44.5998 111.8 44.2998 108.2 41.2998C104 37.9008 94.2002 29.8998 94.2002 29.8998V26.7998Z" fill="white"/>
<path fill-rule="evenodd" clip-rule="evenodd" d="M94.2002 32.2002C94.2002 32.2002 106 41.5002 108.2 43.2002C110.4 44.8002 113.3 46.7002 121.7 48.0002C130.1 49.2002 134.4 49.8002 134.4 49.8002V50.5002C134.4 50.5002 126.8 49.4002 121.7 48.8002C116.6 48.2002 112.7 47.9002 108.2 44.9002C103.8 42.0002 94.2002 35.2002 94.2002 35.2002V32.2002Z" fill="white"/>
<path fill-rule="evenodd" clip-rule="evenodd" d="M94.2002 37.4004C94.2002 37.4004 106 45.2994 108.2 46.5004C110.4 47.7004 113.1 49.7994 121.7 50.9004C130.3 52.0004 134.4 52.5004 134.4 52.5004V53.2004C134.4 53.2004 127.3 52.4004 121.7 51.7994C116.1 51.2004 112.3 50.4004 108.2 48.0994C104.1 45.7994 94.2002 40.0994 94.2002 40.0994V37.4004Z" fill="white"/>
<path fill-rule="evenodd" clip-rule="evenodd" d="M94.2002 42.7002C94.2002 42.7002 104.6 48.4002 108.2 50.0992C112.1 52.0992 115.5 53.0002 121.7 53.8002C127.8 54.5002 134.4 55.2002 134.4 55.2002V55.8002C134.4 55.8002 128.3 55.0992 121.7 54.5002C115.2 53.9002 112.9 53.5992 108.2 51.5002C104 49.5992 94.2002 45.0992 94.2002 45.0992V42.7002Z" fill="white"/>
<path fill-rule="evenodd" clip-rule="evenodd" d="M94.2006 48C94.2006 48 102.401 51.5 108.201 53.8C113.901 56.1 118.201 56.3 121.701 56.6C123.201 56.8 134.301 57.9 134.301 57.9V58.5C134.301 58.5 127.701 58 121.601 57.4C115.601 56.9 113.001 56.6 108.101 55C103.201 53.4 94.1006 50.2 94.1006 50.2L94.2006 48Z" fill="white"/>
<path fill-rule="evenodd" clip-rule="evenodd" d="M94.2002 53.4004C94.2002 53.4004 102.5 56.0004 108.2 57.5004C113.9 59.0004 119.1 59.5994 121.7 59.7994C124.3 60.0004 134.4 60.7994 134.4 60.7994V61.4004C134.4 61.4004 128.7 61.0004 121.7 60.5004C116 60.0994 111.5 59.7004 108.2 58.9004C104.5 58.0994 94.2002 55.5994 94.2002 55.5994V53.4004Z" fill="white"/>
<path fill-rule="evenodd" clip-rule="evenodd" d="M94.2002 58.7002C94.2002 58.7002 101 59.9002 108.2 61.0992C113.6 62.0002 120.9 62.5992 121.7 62.5992C122.5 62.5992 134.4 63.5002 134.4 63.5002V64.0992C134.4 64.0992 126.8 63.7002 121.7 63.4002C116.4 63.0992 111.2 62.8002 108.2 62.5002C101.5 61.8002 94.2002 60.9002 94.2002 60.9002V58.7002Z" fill="white"/>
<path fill-rule="evenodd" clip-rule="evenodd" d="M94.2002 64.2998C94.2002 64.2998 104.9 64.6998 108.2 64.7998C111.5 64.9008 134.4 65.7998 134.4 65.7998V66.4008H94.2002V64.2998Z" fill="white"/>
<path fill-rule="evenodd" clip-rule="evenodd" d="M121.7 33.3999C112 31.2999 109.8 27.7999 108.2 25.5999C106.6 23.3999 94.2998 5.3999 94.2998 5.3999V9.4999C94.7998 10.0999 105.3 23.8999 108.3 27.6999C111.6 31.9999 116.8 32.9999 121.8 33.9999C126.8 35.0999 134.5 36.5999 134.5 36.5999V35.9999C134.4 35.9999 124.2 33.9999 121.7 33.3999" fill="white"/>
<path fill-rule="evenodd" clip-rule="evenodd" d="M121.7 36.2999C113.7 34.6999 110.5 32.1999 108.2 29.1999C105.9 26.0999 94.2998 10.8999 94.2998 10.8999V14.6999C94.7998 15.2999 105.4 27.7999 108.2 31.0999C111.5 34.8999 116.1 35.8999 121.7 36.8999C127.3 37.9009 134.4 39.2999 134.4 39.2999V38.6999C134.4 38.6999 126.3 37.1999 121.7 36.2999" fill="white"/>
<path fill-rule="evenodd" clip-rule="evenodd" d="M121.7 39.2001C113.4 37.5991 111.7 36.3001 108.2 32.4001C106 30.0001 94.7002 16.7001 94.2002 16.1001V19.6001C94.2002 19.6001 104.7 30.8001 108.1 34.2001C112.5 38.5991 116.7 38.9001 121.6 39.8001C126.5 40.7001 134.3 42.0991 134.3 42.0991V41.5001C134.4 41.5001 125 39.9001 121.7 39.2001" fill="white"/>
<mask id="mask5" style="mask-type:alpha" maskUnits="userSpaceOnUse" x="0" y="0" width="248" height="67">
<path fill-rule="evenodd" clip-rule="evenodd" d="M0 66.7H247.7V0H0V66.7Z" fill="white"/>
</mask>
<g mask="url(#mask5)">
<path fill-rule="evenodd" clip-rule="evenodd" d="M27.5 66.3001H85.4V27.6001H27.5V66.3001Z" fill="#004494" stroke="white" stroke-width="2"/>
<path fill-rule="evenodd" clip-rule="evenodd" d="M57.1004 33.1001H59.1004L57.5004 34.4001L58.1004 36.4001L56.5004 35.2001L54.9004 36.4001L55.5004 34.4001L53.9004 33.1001H55.9004L56.5004 31.1001L57.1004 33.1001Z" fill="#FFF100"/>
<path fill-rule="evenodd" clip-rule="evenodd" d="M57.1004 58.9005H59.1004L57.5004 60.0995L58.1004 62.0005L56.5004 60.7995L54.9004 62.0005L55.5004 60.0995L53.9004 58.9005H55.9004L56.5004 57.0005L57.1004 58.9005Z" fill="#FFF100"/>
<path fill-rule="evenodd" clip-rule="evenodd" d="M63.4998 57.2003H65.4998L63.8998 58.4003L64.4998 60.3003L62.8998 59.0993L61.2998 60.3003L61.8998 58.4003L60.2998 57.2003H62.2998L62.8998 55.3003L63.4998 57.2003Z" fill="#FFF100"/>
<path fill-rule="evenodd" clip-rule="evenodd" d="M63.5004 34.7999H65.5004L63.9004 35.9999L64.5004 37.9009L62.9004 36.6999L61.3004 37.9999L62.0004 35.9999L60.4004 34.7999H62.4004L63.0004 32.8999L63.5004 34.7999Z" fill="#FFF100"/>
<path fill-rule="evenodd" clip-rule="evenodd" d="M68.2996 39.5997H70.2996L68.6996 40.7997L69.2996 42.7007L67.6996 41.4997L66.0996 42.7007L66.6996 40.7997L65.0996 39.5997H67.0996L67.6996 37.7007L68.2996 39.5997Z" fill="#FFF100"/>
<path fill-rule="evenodd" clip-rule="evenodd" d="M68.2996 52.5997H70.2996L68.6996 53.7997L69.2996 55.7007L67.6996 54.4997L66.0996 55.7007L66.6996 53.7997L65.0996 52.5997H67.0996L67.6996 50.7007L68.2996 52.5997Z" fill="#FFF100"/>
<path fill-rule="evenodd" clip-rule="evenodd" d="M70.0998 46.0001H72.0998L70.4998 47.2001L71.0998 49.1001L69.4998 47.9001L67.8998 49.1001L68.4998 47.2001L66.7998 46.0001H68.7998L69.3998 44.1001L70.0998 46.0001Z" fill="#FFF100"/>
<path fill-rule="evenodd" clip-rule="evenodd" d="M50.4998 34.7998H52.4998L50.8998 35.9998L51.4998 37.9008L49.9998 36.7998L48.2998 37.9998L48.8998 36.0998L47.2998 34.8998H49.2998L49.9998 32.9998L50.4998 34.7998Z" fill="#FFF100"/>
<path fill-rule="evenodd" clip-rule="evenodd" d="M45.9002 39.5997H47.9002L46.3002 40.7997L46.9002 42.7007L45.3002 41.4997L43.7002 42.7007L44.3002 40.7997L42.7002 39.5997H44.7002L45.3002 37.7007L45.9002 39.5997Z" fill="#FFF100"/>
<path fill-rule="evenodd" clip-rule="evenodd" d="M44.2 46.0001H46.2L44.6 47.2001L45.2 49.1001L43.6 47.9001L42 49.1001L42.6 47.2001L41 46.0001H43L43.6 44.1001L44.2 46.0001Z" fill="#FFF100"/>
<path fill-rule="evenodd" clip-rule="evenodd" d="M45.9002 52.5997H47.9002L46.3002 53.7997L46.9002 55.7007L45.3002 54.4997L43.7002 55.7007L44.3002 53.7997L42.7002 52.5997H44.7002L45.3002 50.7007L45.9002 52.5997Z" fill="#FFF100"/>
<path fill-rule="evenodd" clip-rule="evenodd" d="M50.6004 57.2999H52.6004L51.0004 58.4999L51.6004 60.4009L50.0004 59.1999L48.4004 60.4009L49.0004 58.4999L47.4004 57.2999H49.4004L50.0004 55.4009L50.6004 57.2999Z" fill="#FFF100"/>
<path fill-rule="evenodd" clip-rule="evenodd" d="M143.4 33.1002C143.4 32.8002 143.5 32.7002 143.8 32.7002H151.2C151.5 32.7002 151.6 32.8002 151.6 33.1002V34.3002C151.6 34.5002 151.5 34.7002 151.2 34.7002H145.7V38.2002H150.6C150.9 38.2002 151 38.3002 151 38.6002V39.8002C151 40.0002 150.9 40.2002 150.6 40.2002H145.7V44.2002H151.3C151.5 44.2002 151.7 44.3002 151.7 44.6002V45.8002C151.7 46.0002 151.6 46.2002 151.3 46.2002H143.8C143.5 46.2002 143.4 46.1002 143.4 45.8002V33.1002Z" fill="white"/>
<path fill-rule="evenodd" clip-rule="evenodd" d="M161.8 46.0997H160.401C160.3 46.0997 160.2 46.0997 160.1 45.9997C160 45.9007 160 45.7997 160 45.7007V44.9997C159.8 45.0997 159.6 45.2997 159.3 45.4007C159 45.4997 158.8 45.7007 158.5 45.7997C158.2 45.9007 157.901 45.9997 157.6 46.0997C157.3 46.2007 157 46.2007 156.7 46.2007C156 46.2007 155.5 46.0997 155.1 45.9007C154.7 45.7007 154.401 45.4997 154.2 45.0997C154 44.7997 153.901 44.4007 153.8 43.9007C153.7 43.4007 153.7 42.9997 153.7 42.4007V36.4997C153.7 36.2007 153.8 36.0997 154.1 36.0997H155.6C155.8 36.0997 156 36.2007 156 36.4997V42.0997C156 42.4007 156 42.7007 156.1 42.9007C156.1 43.0997 156.2 43.2997 156.3 43.4997C156.401 43.7007 156.6 43.7997 156.7 43.9007C156.8 43.9997 157.1 43.9997 157.401 43.9997C157.6 43.9997 157.8 43.9997 158.1 43.9007C158.401 43.7997 158.6 43.7007 158.901 43.5997C159.2 43.4997 159.401 43.4007 159.6 43.2997C159.8 43.2007 160 43.0997 160.1 42.9997V36.2997C160.1 36.2007 160.1 36.0997 160.2 35.9997C160.3 35.8997 160.401 35.8997 160.5 35.8997H161.901C162.2 35.8997 162.3 35.9997 162.3 36.2997V45.4007C162.2 45.9007 162.1 46.0997 161.8 46.0997" fill="white"/>
<path fill-rule="evenodd" clip-rule="evenodd" d="M166.901 45.7001C166.901 46.0001 166.8 46.0991 166.501 46.0991H165.001C164.701 46.0991 164.6 46.0001 164.6 45.7001V36.6001C164.6 36.3001 164.701 36.2001 165.001 36.2001H166.401C166.701 36.2001 166.8 36.3001 166.8 36.6001V37.5001C166.901 37.4001 167.1 37.2001 167.401 37.0991C167.6 36.9001 167.901 36.8001 168.201 36.7001C168.501 36.6001 168.8 36.5001 169.001 36.3001C169.3 36.2001 169.501 36.1001 169.8 36.1001H170.1C170.201 36.1001 170.201 36.2001 170.3 36.4001L170.401 37.7001V38.0001C170.401 38.0991 170.3 38.0991 170.001 38.2001C169.701 38.3001 169.401 38.3001 169.1 38.4001C168.8 38.5001 168.501 38.5991 168.201 38.5991C167.901 38.7001 167.6 38.8001 167.401 38.9001C167.1 39.0001 166.901 39.0991 166.8 39.0991L166.901 45.7001Z" fill="white"/>
<path fill-rule="evenodd" clip-rule="evenodd" d="M177.9 41.0995C177.9 40.5995 177.9 40.0995 177.799 39.7005C177.7 39.2995 177.599 38.9995 177.5 38.7005C177.299 38.4005 177.099 38.2005 176.799 38.0995C176.5 37.9995 176.2 37.9005 175.7 37.9005C175.299 37.9005 174.9 37.9995 174.7 38.0995C174.5 38.2005 174.2 38.4005 174.099 38.7005C173.9 38.9995 173.799 39.2995 173.799 39.7005C173.7 40.0995 173.7 40.5995 173.7 41.0995C173.7 41.5995 173.7 42.0995 173.799 42.4995C173.9 42.9005 174 43.2005 174.099 43.4995C174.2 43.7995 174.5 43.9995 174.7 44.0995C174.9 44.2005 175.299 44.2995 175.7 44.2995C176.2 44.2995 176.5 44.2005 176.799 44.0995C177.099 43.9995 177.299 43.7995 177.5 43.4995C177.7 43.2005 177.799 42.9005 177.799 42.4995C177.9 42.0995 177.9 41.7005 177.9 41.0995M180.2 40.9995C180.2 41.5995 180.2 42.2005 180.099 42.7995C180 43.4005 179.799 43.9995 179.5 44.4995C179.2 44.9995 178.799 45.4005 178.2 45.7995C177.599 46.0995 176.799 46.2995 175.799 46.2995C174.799 46.2995 174 46.0995 173.4 45.7995C172.799 45.4995 172.4 45.0995 172.099 44.4995C171.799 43.9995 171.599 43.4005 171.599 42.7995C171.5 42.2005 171.5 41.5995 171.5 40.9995C171.5 40.4995 171.5 39.9995 171.599 39.4005C171.7 38.7995 171.9 38.2995 172.2 37.7995C172.5 37.2995 172.9 36.8995 173.5 36.4995C174.099 36.2005 174.799 35.9995 175.799 35.9995C176.799 35.9995 177.599 36.0995 178.099 36.3995C178.7 36.7005 179.099 37.0995 179.4 37.5995C179.7 38.0995 179.9 38.5995 180 39.2005C180.099 39.7995 180.2 40.4005 180.2 40.9995" fill="white"/>
<path fill-rule="evenodd" clip-rule="evenodd" d="M188.5 41.0995C188.5 40.4995 188.5 39.9005 188.4 39.5995C188.3 39.2995 188.2 38.9005 188.1 38.7005C188 38.4995 187.8 38.2995 187.6 38.2995C187.4 38.2005 187.2 38.2005 186.9 38.2005C186.7 38.2005 186.5 38.2005 186.2 38.2995C185.9 38.4005 185.7 38.4005 185.4 38.4995C185.2 38.5995 184.9 38.7005 184.7 38.7995C184.5 38.9005 184.3 38.9995 184.1 39.0995V44.0995C184.6 44.2005 185 44.2995 185.3 44.4005C185.6 44.4995 186 44.4995 186.4 44.4995C186.8 44.4995 187.1 44.4005 187.3 44.2995C187.5 44.2005 187.7 43.9995 187.9 43.7995C188.1 43.4995 188.2 43.2005 188.2 42.7995C188.5 42.2005 188.5 41.7005 188.5 41.0995M190.8 41.0995C190.8 41.9005 190.7 42.5995 190.6 43.2995C190.5 43.9005 190.3 44.4995 190 44.9005C189.7 45.2995 189.3 45.7005 188.8 45.9005C188.3 46.0995 187.6 46.2005 186.8 46.2005C186.5 46.2005 186.1 46.2005 185.6 46.0995C185.2 45.9995 184.7 45.9005 184.2 45.7995V49.2995C184.2 49.4005 184.2 49.4995 184.1 49.5995C184 49.7005 183.9 49.7005 183.8 49.7005H182.4C182.2 49.7005 182.1 49.7005 182.1 49.5995C182.1 49.4995 182 49.4005 182 49.2995V36.5995C182 36.2995 182.1 36.2005 182.4 36.2005H183.8C183.9 36.2005 184 36.2005 184.1 36.2995C184.2 36.3995 184.2 36.4995 184.2 36.5995V37.2005H184.3C184.5 37.0995 184.7 36.9995 184.9 36.7995C185.1 36.7005 185.4 36.4995 185.7 36.3995C186 36.2995 186.3 36.2005 186.6 36.0995C186.9 35.9995 187.2 35.9995 187.5 35.9995C188.2 35.9995 188.7 36.0995 189.1 36.3995C189.5 36.5995 189.9 36.9995 190.1 37.4005C190.3 37.7995 190.5 38.4005 190.6 38.9995C190.8 39.5995 190.8 40.2995 190.8 41.0995" fill="white"/>
<path fill-rule="evenodd" clip-rule="evenodd" d="M196.701 37.7997C196.301 37.7997 196.001 37.9007 195.801 37.9997C195.6 38.0997 195.401 38.2997 195.201 38.4997C195.001 38.6997 194.901 38.9997 194.901 39.2997C194.801 39.5997 194.801 39.9007 194.801 40.2997H198.801C198.801 39.9997 198.801 39.6997 198.701 39.4007C198.6 39.0997 198.501 38.9007 198.401 38.5997C198.301 38.2997 198.1 38.1997 197.801 38.0997C197.401 37.9007 197.1 37.7997 196.701 37.7997V37.7997ZM194.701 41.6997C194.701 42.1997 194.801 42.5997 194.901 42.9997C195.001 43.2997 195.201 43.5997 195.401 43.7997C195.6 43.9997 195.801 44.0997 196.1 44.1997C196.401 44.2997 196.701 44.2997 197.201 44.2997C197.6 44.2997 198.001 44.2997 198.501 44.1997C199.001 44.0997 199.401 44.0997 199.801 44.0997H200.201C200.301 44.0997 200.301 44.1997 200.401 44.4007L200.501 45.0997V45.4997C200.501 45.5997 200.401 45.6997 200.201 45.7997C200.001 45.9007 199.801 45.9997 199.501 45.9997C199.201 45.9997 199.001 46.0997 198.701 46.1997C198.401 46.2997 198.1 46.2997 197.801 46.2997H197.001C196.001 46.2997 195.301 46.1997 194.701 45.9007C194.1 45.5997 193.701 45.1997 193.401 44.7997C193.1 44.2997 192.901 43.7997 192.801 43.1997C192.701 42.5997 192.6 41.9997 192.6 41.2997C192.6 40.7997 192.6 40.2997 192.701 39.6997C192.801 39.0997 193.001 38.4997 193.301 37.9997C193.6 37.4997 194.001 36.9997 194.6 36.6997C195.201 36.2997 195.901 36.1997 196.901 36.1997C197.801 36.1997 198.501 36.2997 199.1 36.5997C199.701 36.8997 200.1 37.1997 200.401 37.5997C200.701 37.9997 200.901 38.4997 201.001 38.9997C201.1 39.4997 201.201 40.0997 201.201 40.5997C201.201 40.9997 201.201 41.2997 201.001 41.4997C200.801 41.6997 200.6 41.7997 200.201 41.7997H194.701V41.6997Z" fill="white"/>
<path fill-rule="evenodd" clip-rule="evenodd" d="M210.1 43.0997C210.1 43.7007 210 44.2007 209.8 44.5997C209.6 44.9997 209.3 45.2997 208.901 45.5997C208.5 45.7997 208.1 45.9997 207.6 46.0997C207.1 46.2007 206.6 46.2997 206.1 46.2997C205.6 46.2997 205 46.2997 204.5 46.2007C203.901 46.0997 203.401 45.9997 203 45.9007C202.8 45.7997 202.701 45.7007 202.6 45.5997C202.5 45.4997 202.5 45.4007 202.6 45.2007L202.701 44.4997C202.701 44.2997 202.8 44.2007 202.901 44.2007H203.3C203.5 44.2007 203.8 44.2997 204 44.2997C204.3 44.2997 204.5 44.2997 204.8 44.4007C205.1 44.4007 205.3 44.4007 205.5 44.4997H206.1C206.701 44.4997 207.201 44.4007 207.5 44.2007C207.8 43.9997 207.901 43.7007 207.901 43.2997C207.901 43.0997 207.901 42.9007 207.8 42.7007C207.701 42.4997 207.701 42.4007 207.5 42.2997C207.3 42.2007 207.201 42.0997 207 42.0997C206.8 41.9997 206.5 41.9997 206.201 41.9007C205.701 41.7997 205.201 41.7007 204.8 41.5997C204.401 41.4997 204 41.2997 203.6 41.0997C203.3 40.9007 203 40.5997 202.8 40.2997C202.6 39.9997 202.5 39.4997 202.5 38.9997C202.5 37.9997 202.8 37.2997 203.5 36.7007C204.201 36.2007 205.1 35.8997 206.201 35.8997H206.901C207.201 35.8997 207.401 35.8997 207.701 35.9997C208 35.9997 208.201 36.0997 208.5 36.0997C208.8 36.0997 209 36.2007 209.201 36.2997C209.5 36.3997 209.701 36.5997 209.6 36.8997L209.401 37.5997C209.401 37.7007 209.3 37.7997 209.201 37.9007H208.8C208.401 37.7997 207.901 37.7997 207.401 37.7007C206.901 37.7007 206.5 37.5997 206.1 37.5997C205.5 37.5997 205 37.7007 204.8 37.9007C204.6 38.0997 204.5 38.4007 204.5 38.7997C204.5 39.2007 204.6 39.4007 204.901 39.5997C205.201 39.7007 205.6 39.7997 206.201 39.9007C206.701 39.9997 207.1 40.0997 207.6 40.2007C208.1 40.2997 208.401 40.4997 208.8 40.7007C209.1 40.9007 209.401 41.2007 209.6 41.5997C210 41.9997 210.1 42.4997 210.1 43.0997" fill="white"/>
<path fill-rule="evenodd" clip-rule="evenodd" d="M216.1 37.7997C215.701 37.7997 215.401 37.9007 215.201 37.9997C215 38.0997 214.8 38.2997 214.6 38.4997C214.401 38.6997 214.3 38.9997 214.3 39.2997C214.201 39.5997 214.201 39.9007 214.201 40.2997H218.201C218.201 39.9997 218.201 39.6997 218.1 39.4007C218 39.0997 217.901 38.9007 217.8 38.5997C217.701 38.2997 217.5 38.1997 217.201 38.0997C216.8 37.9007 216.5 37.7997 216.1 37.7997V37.7997ZM214.1 41.6997C214.1 42.1997 214.201 42.5997 214.3 42.9997C214.401 43.2997 214.6 43.5997 214.8 43.7997C215 43.9997 215.201 44.0997 215.5 44.1997C215.8 44.2997 216.1 44.2997 216.6 44.2997C217 44.2997 217.401 44.2997 217.901 44.1997C218.401 44.0997 218.8 44.0997 219.201 44.0997H219.6C219.701 44.0997 219.701 44.1997 219.8 44.4007L219.901 45.0997V45.4997C219.901 45.5997 219.8 45.6997 219.6 45.7997C219.401 45.9007 219.201 45.9997 218.901 45.9997C218.6 45.9997 218.401 46.0997 218.1 46.1997C217.8 46.2997 217.5 46.2997 217.201 46.2997H216.401C215.401 46.2997 214.701 46.1997 214.1 45.9007C213.5 45.5997 213.1 45.1997 212.8 44.7997C212.5 44.2997 212.3 43.7997 212.201 43.1997C212.1 42.5997 212 41.9997 212 41.2997C212 40.7997 212 40.2997 212.1 39.6997C212.201 39.0997 212.401 38.4997 212.701 37.9997C213 37.4997 213.401 36.9997 214 36.6997C214.6 36.2997 215.3 36.1997 216.3 36.1997C217.201 36.1997 217.901 36.2997 218.5 36.5997C219.1 36.8997 219.5 37.1997 219.8 37.5997C220.1 37.9997 220.3 38.4997 220.401 38.9997C220.5 39.4997 220.6 40.0997 220.6 40.5997C220.6 40.9997 220.6 41.2997 220.401 41.4997C220.201 41.6997 220 41.7997 219.6 41.7997H214.1V41.6997Z" fill="white"/>
<path fill-rule="evenodd" clip-rule="evenodd" d="M143.2 59.7999C143.2 58.9009 143.3 58.0999 143.4 57.2999C143.5 56.4999 143.8 55.6999 144.2 55.0999C144.6 54.4999 145.1 53.9009 145.8 53.4999C146.5 53.0999 147.4 52.9009 148.599 52.9009H149.4C149.7 52.9009 150 52.9999 150.4 52.9999C150.7 52.9999 151.099 53.0999 151.4 53.1999C151.7 53.2999 152 53.4009 152.3 53.4999C152.5 53.5999 152.599 53.5999 152.599 53.6999C152.599 53.7999 152.7 53.9009 152.7 54.0999L152.5 54.9009C152.5 54.9999 152.4 55.0999 152.4 55.1999C152.3 55.2999 152.2 55.2999 152 55.1999C151.5 55.0999 151 55.0999 150.4 54.9999C149.8 54.9009 149.3 54.9009 148.8 54.9009C148.099 54.9009 147.599 54.9999 147.2 55.2999C146.8 55.5999 146.5 55.9009 146.2 56.2999C146 56.6999 145.8 57.2999 145.8 57.7999C145.8 58.2999 145.7 58.9999 145.7 59.6999C145.7 60.4009 145.7 60.9999 145.8 61.4999C145.9 62.0999 146 62.5999 146.3 62.9999C146.5 63.4009 146.8 63.7999 147.3 63.9999C147.7 64.1999 148.2 64.4009 148.9 64.4009C149.5 64.4009 150 64.4009 150.5 64.2999C151 64.1999 151.5 64.1999 152.099 64.0999H152.5C152.599 64.1999 152.599 64.1999 152.7 64.4009L152.9 65.1999C153 65.4999 152.9 65.6999 152.599 65.7999C152.4 65.9009 152.099 65.9999 151.7 66.0999C151.4 66.1999 151 66.1999 150.7 66.2999C150.4 66.4009 150 66.4009 149.7 66.4009H148.8C147.7 66.4009 146.8 66.1999 146.099 65.7999C145.4 65.4009 144.8 64.9009 144.5 64.2999C144.1 63.6999 143.8 62.9999 143.7 62.1999C143.3 61.4999 143.2 60.6999 143.2 59.7999" fill="white"/>
<path fill-rule="evenodd" clip-rule="evenodd" d="M160.599 61.4003C160.599 60.9003 160.599 60.4003 160.499 60.0003C160.4 59.5993 160.299 59.2993 160.2 59.0003C159.999 58.7003 159.799 58.5003 159.499 58.4003C159.2 58.2993 158.9 58.2003 158.4 58.2003C157.999 58.2003 157.599 58.2993 157.4 58.4003C157.2 58.5003 156.9 58.7003 156.799 59.0003C156.599 59.2993 156.499 59.5993 156.499 60.0003C156.4 60.4003 156.4 60.9003 156.4 61.4003C156.4 61.9003 156.4 62.4003 156.499 62.7993C156.599 63.2003 156.7 63.5003 156.799 63.7993C156.9 64.0993 157.2 64.2993 157.4 64.4003C157.599 64.5003 157.999 64.5993 158.4 64.5993C158.9 64.5993 159.2 64.5003 159.499 64.4003C159.799 64.2993 159.999 64.0993 160.2 63.7993C160.4 63.5003 160.499 63.2003 160.499 62.7993C160.499 62.4003 160.599 62.0003 160.599 61.4003M162.9 61.2993C162.9 61.9003 162.9 62.5003 162.799 63.0993C162.7 63.7003 162.499 64.2993 162.2 64.7993C161.9 65.2993 161.499 65.7003 160.9 66.0993C160.299 66.4003 159.499 66.5993 158.499 66.5993C157.499 66.5993 156.7 66.4003 156.099 66.0993C155.499 65.7993 155.099 65.4003 154.799 64.7993C154.499 64.2993 154.299 63.7003 154.299 63.0993C154.2 62.5003 154.2 61.9003 154.2 61.2993C154.2 60.7993 154.2 60.2993 154.299 59.7003C154.4 59.0993 154.599 58.5993 154.9 58.0993C155.2 57.5993 155.599 57.2003 156.2 56.7993C156.799 56.5003 157.499 56.2993 158.499 56.2993C159.499 56.2993 160.299 56.4003 160.799 56.7003C161.4 57.0003 161.799 57.4003 162.099 57.9003C162.4 58.4003 162.599 58.9003 162.7 59.5003C162.799 60.0993 162.9 60.7003 162.9 61.2993" fill="white"/>
<path fill-rule="evenodd" clip-rule="evenodd" d="M179.2 66.2998C179.2 66.4008 179.099 66.4008 178.9 66.4008H177.5C177.2 66.4008 177.099 66.2998 177.099 65.9998V60.2998C177.099 59.5998 177 58.9998 176.8 58.7998C176.599 58.4998 176.2 58.4008 175.7 58.4008C175.5 58.4008 175.3 58.4008 175.099 58.4998C174.9 58.5998 174.599 58.5998 174.4 58.6998C174.2 58.7998 173.9 58.9008 173.7 58.9998C173.5 59.0998 173.3 59.1998 173.099 59.2998V59.6998V60.2998V65.9998C173.099 66.0998 173.099 66.1998 173 66.2998C172.9 66.4008 172.8 66.4008 172.7 66.4008H171.2C171 66.4008 170.9 66.2998 170.9 65.9998V60.1998C170.9 59.5998 170.8 59.0998 170.599 58.7998C170.4 58.4998 170.099 58.4008 169.599 58.4008C169.4 58.4008 169.2 58.4008 169 58.4998C168.8 58.5998 168.599 58.5998 168.3 58.6998C168.099 58.7998 167.8 58.9008 167.599 58.9998C167.4 59.0998 167.2 59.1998 167 59.2998V65.9998C167 66.2998 166.9 66.4008 166.599 66.4008H165.2C165 66.4008 164.8 66.2998 164.8 65.9998V56.9008C164.8 56.5998 164.9 56.4998 165.2 56.4998H166.599C166.9 56.4998 167 56.5998 167 56.9008V57.4998C167.2 57.4008 167.4 57.1998 167.599 57.0998C167.8 56.9998 168.099 56.7998 168.3 56.6998C168.5 56.5998 168.8 56.4998 169.099 56.4008C169.4 56.2998 169.599 56.2998 169.9 56.2998C170.5 56.2998 171 56.4008 171.5 56.5998C172 56.7998 172.4 57.1998 172.7 57.6998C173.2 57.2998 173.8 56.9998 174.4 56.6998C175 56.4008 175.599 56.2998 176.3 56.2998C177 56.2998 177.5 56.4008 177.9 56.5998C178.3 56.7998 178.599 57.0998 178.8 57.4008C179 57.6998 179.099 58.0998 179.2 58.5998C179.3 59.0998 179.3 59.4998 179.3 59.9998V65.9998C179.2 66.0998 179.2 66.1998 179.2 66.2998" fill="white"/>
<path fill-rule="evenodd" clip-rule="evenodd" d="M195.7 66.2998C195.7 66.4008 195.599 66.4008 195.4 66.4008H194C193.7 66.4008 193.599 66.2998 193.599 65.9998V60.2998C193.599 59.5998 193.5 58.9998 193.3 58.7998C193.099 58.4998 192.7 58.4008 192.2 58.4008C192 58.4008 191.8 58.4008 191.599 58.4998C191.4 58.5998 191.099 58.5998 190.9 58.6998C190.7 58.7998 190.4 58.9008 190.2 58.9998C190 59.0998 189.8 59.1998 189.599 59.2998V59.6998V60.2998V65.9998C189.599 66.0998 189.599 66.1998 189.5 66.2998C189.4 66.4008 189.3 66.4008 189.2 66.4008H187.7C187.5 66.4008 187.4 66.2998 187.4 65.9998V60.1998C187.4 59.5998 187.3 59.0998 187.099 58.7998C186.9 58.4998 186.599 58.4008 186.099 58.4008C185.9 58.4008 185.7 58.4008 185.5 58.4998C185.3 58.5998 185.099 58.5998 184.8 58.6998C184.5 58.7998 184.3 58.9008 184.099 58.9998C183.9 59.0998 183.7 59.1998 183.5 59.2998V65.9998C183.5 66.2998 183.4 66.4008 183.099 66.4008H181.7C181.5 66.4008 181.3 66.2998 181.3 65.9998V56.9008C181.3 56.5998 181.4 56.4998 181.7 56.4998H183.099C183.4 56.4998 183.5 56.5998 183.5 56.9008V57.4998C183.7 57.4008 183.9 57.1998 184.099 57.0998C184.3 56.9998 184.599 56.7998 184.8 56.6998C185.099 56.5998 185.3 56.4998 185.599 56.4008C185.9 56.2998 186.099 56.2998 186.4 56.2998C187 56.2998 187.5 56.4008 188 56.5998C188.5 56.7998 188.9 57.1998 189.2 57.6998C189.7 57.2998 190.3 56.9998 190.9 56.6998C191.5 56.4008 192.099 56.2998 192.8 56.2998C193.5 56.2998 194 56.4008 194.4 56.5998C194.8 56.7998 195.099 57.0998 195.3 57.4008C195.5 57.6998 195.599 58.0998 195.7 58.5998C195.8 59.0998 195.8 59.4998 195.8 59.9998V65.9998C195.8 66.0998 195.7 66.1998 195.7 66.2998" fill="white"/>
<path fill-rule="evenodd" clip-rule="evenodd" d="M200.401 65.9999C200.401 66.0999 200.401 66.1999 200.3 66.2999C200.3 66.3999 200.201 66.3999 200.001 66.3999H198.6C198.3 66.3999 198.201 66.2999 198.201 65.9999V56.8999C198.201 56.5999 198.3 56.4999 198.6 56.4999H200.001C200.1 56.4999 200.201 56.4999 200.3 56.5999C200.3 56.6999 200.401 56.7999 200.401 56.8999V65.9999ZM200.501 53.8999V54.3999C200.501 54.4999 200.401 54.6999 200.3 54.7999C200.201 54.8999 200.1 54.9999 199.901 55.0999C199.701 55.1999 199.501 55.1999 199.3 55.1999C199.001 55.1999 198.8 55.1999 198.701 55.0999C198.501 54.9999 198.401 54.8999 198.3 54.7999C198.201 54.6999 198.201 54.5999 198.1 54.3999V53.9999C198.1 53.6999 198.201 53.3999 198.3 53.1999C198.501 52.9999 198.8 52.8999 199.3 52.8999C199.8 52.8999 200.1 52.9999 200.3 53.1999C200.401 53.2999 200.501 53.5999 200.501 53.8999V53.8999Z" fill="white"/>
<path fill-rule="evenodd" clip-rule="evenodd" d="M210.201 63.4004C210.201 64.0004 210.1 64.5004 209.901 64.9004C209.701 65.2994 209.401 65.5994 209.001 65.9004C208.6 66.0994 208.201 66.2994 207.701 66.4004C207.201 66.5004 206.701 66.5994 206.201 66.5994C205.701 66.5994 205.1 66.5994 204.6 66.5004C204.001 66.4004 203.501 66.2994 203.1 66.2004C202.901 66.0994 202.801 66.0004 202.701 65.9004C202.6 65.7994 202.6 65.7004 202.701 65.5004L202.801 64.7994C202.801 64.5994 202.901 64.5004 203.001 64.5004H203.401C203.6 64.5004 203.901 64.5994 204.1 64.5994C204.401 64.5994 204.6 64.5994 204.901 64.7004C205.201 64.7004 205.401 64.7004 205.6 64.7994H206.201C206.801 64.7994 207.301 64.7004 207.6 64.5004C207.901 64.2994 208.001 64.0004 208.001 63.5994C208.001 63.4004 208.001 63.2004 207.901 63.0004C207.801 62.7994 207.801 62.7004 207.6 62.5994C207.401 62.5004 207.301 62.4004 207.1 62.4004C206.901 62.2994 206.6 62.2994 206.301 62.2004C205.801 62.0994 205.301 62.0004 204.901 61.9004C204.501 61.7994 204.1 61.5994 203.701 61.4004C203.401 61.2004 203.1 60.9004 202.901 60.5994C202.701 60.2994 202.6 59.7994 202.6 59.2994C202.6 58.2994 202.901 57.5994 203.6 57.0004C204.301 56.5004 205.201 56.2004 206.301 56.2004H207.001C207.301 56.2004 207.501 56.2004 207.801 56.2994C208.1 56.2994 208.301 56.4004 208.6 56.4004C208.901 56.4004 209.1 56.5004 209.301 56.5994C209.6 56.7004 209.801 56.9004 209.701 57.2004L209.501 57.9004C209.501 58.0004 209.401 58.0994 209.301 58.2004H208.901C208.501 58.0994 208.001 58.0994 207.501 58.0004C207.001 58.0004 206.6 57.9004 206.201 57.9004C205.6 57.9004 205.1 58.0004 204.901 58.2004C204.701 58.4004 204.6 58.7004 204.6 59.0994C204.6 59.5004 204.701 59.7004 205.001 59.9004C205.301 60.0004 205.701 60.0994 206.301 60.2004C206.801 60.2994 207.201 60.4004 207.701 60.5004C208.201 60.5994 208.501 60.7994 208.901 61.0004C209.201 61.2004 209.501 61.5004 209.701 61.9004C210.1 62.2994 210.201 62.7994 210.201 63.4004" fill="white"/>
<path fill-rule="evenodd" clip-rule="evenodd" d="M219.401 63.4004C219.401 64.0004 219.3 64.5004 219.1 64.9004C218.901 65.2994 218.6 65.5994 218.201 65.9004C217.8 66.0994 217.401 66.2994 216.901 66.4004C216.401 66.5004 215.901 66.5994 215.401 66.5994C214.901 66.5994 214.3 66.5994 213.8 66.5004C213.201 66.4004 212.701 66.2994 212.3 66.2004C212.1 66.0994 212.001 66.0004 211.901 65.9004C211.8 65.7994 211.8 65.7004 211.901 65.5004L212.001 64.7994C212.001 64.5994 212.1 64.5004 212.201 64.5004H212.6C212.8 64.5004 213.1 64.5994 213.3 64.5994C213.6 64.5994 213.8 64.5994 214.1 64.7004C214.401 64.7004 214.6 64.7004 214.8 64.7994H215.401C216.001 64.7994 216.501 64.7004 216.8 64.5004C217.1 64.2994 217.201 64.0004 217.201 63.5994C217.201 63.4004 217.201 63.2004 217.1 63.0004C217.001 62.7994 217.001 62.7004 216.8 62.5994C216.6 62.5004 216.501 62.4004 216.3 62.4004C216.1 62.2994 215.8 62.2994 215.501 62.2004C215.001 62.0994 214.501 62.0004 214.1 61.9004C213.701 61.7994 213.3 61.5994 212.901 61.4004C212.6 61.2004 212.3 60.9004 212.1 60.5994C211.901 60.2994 211.8 59.7994 211.8 59.2994C211.8 58.2994 212.1 57.5994 212.8 57.0004C213.501 56.5004 214.401 56.2004 215.501 56.2004H216.201C216.501 56.2004 216.701 56.2004 217.001 56.2994C217.3 56.2994 217.501 56.4004 217.8 56.4004C218.1 56.4004 218.3 56.5004 218.501 56.5994C218.8 56.7004 219.001 56.9004 218.901 57.2004L218.701 57.9004C218.701 58.0004 218.6 58.0994 218.501 58.2004H218.1C217.701 58.0994 217.201 58.0994 216.701 58.0004C216.201 58.0004 215.8 57.9004 215.401 57.9004C214.8 57.9004 214.3 58.0004 214.1 58.2004C213.901 58.4004 213.8 58.7004 213.8 59.0994C213.8 59.5004 213.901 59.7004 214.201 59.9004C214.501 60.0004 214.901 60.0994 215.501 60.2004C216.001 60.2994 216.401 60.4004 216.901 60.5004C217.401 60.5994 217.701 60.7994 218.1 61.0004C218.401 61.2004 218.701 61.5004 218.901 61.9004C219.3 62.2994 219.401 62.7994 219.401 63.4004" fill="white"/>
<path fill-rule="evenodd" clip-rule="evenodd" d="M223.8 65.9999C223.8 66.0999 223.8 66.1999 223.7 66.2999C223.7 66.3999 223.6 66.3999 223.401 66.3999H222C221.7 66.3999 221.6 66.2999 221.6 65.9999V56.8999C221.6 56.5999 221.7 56.4999 222 56.4999H223.401C223.5 56.4999 223.6 56.4999 223.7 56.5999C223.7 56.6999 223.8 56.7999 223.8 56.8999V65.9999ZM223.901 53.8999V54.3999C223.901 54.4999 223.8 54.6999 223.7 54.7999C223.6 54.8999 223.5 54.9999 223.3 55.0999C223.1 55.1999 222.901 55.1999 222.7 55.1999C222.401 55.1999 222.2 55.1999 222.1 55.0999C221.901 54.9999 221.8 54.8999 221.7 54.7999C221.6 54.6999 221.6 54.5999 221.5 54.3999V53.9999C221.5 53.6999 221.6 53.3999 221.7 53.1999C221.901 52.9999 222.2 52.8999 222.7 52.8999C223.2 52.8999 223.5 52.9999 223.7 53.1999C223.8 53.2999 223.901 53.5999 223.901 53.8999V53.8999Z" fill="white"/>
<path fill-rule="evenodd" clip-rule="evenodd" d="M230.3 58.0995C229.901 58.0995 229.6 58.2005 229.401 58.2995C229.2 58.4005 229 58.5995 228.8 58.7995C228.6 58.9995 228.5 59.2995 228.5 59.5995C228.401 59.9005 228.401 60.2005 228.401 60.5995H232.401C232.401 60.2995 232.401 59.9995 232.3 59.7005C232.2 59.4005 232.1 59.2005 232 58.9005C231.901 58.5995 231.7 58.4995 231.401 58.4005C231.1 58.2005 230.8 58.0995 230.3 58.0995V58.0995ZM228.3 61.9995C228.3 62.4995 228.401 62.9005 228.5 63.2995C228.6 63.5995 228.8 63.9005 229 64.0995C229.2 64.2995 229.401 64.4005 229.7 64.4995C230 64.5995 230.3 64.5995 230.8 64.5995C231.2 64.5995 231.6 64.5995 232.1 64.4995C232.6 64.4005 233 64.4005 233.401 64.4005H233.8C233.901 64.4005 233.901 64.4995 234 64.7005L234.1 65.4005V65.7995C234.1 65.9005 234 65.9995 233.8 66.0995C233.6 66.2005 233.401 66.2995 233.1 66.2995C232.8 66.2995 232.6 66.4005 232.3 66.4995C232 66.5995 231.7 66.5995 231.401 66.5995H230.6C229.6 66.5995 228.901 66.4995 228.3 66.2005C227.7 65.9005 227.3 65.4995 227 65.0995C226.7 64.5995 226.5 64.0995 226.401 63.4995C226.3 62.9005 226.2 62.2995 226.2 61.5995C226.2 61.0995 226.2 60.5995 226.3 59.9995C226.401 59.4005 226.6 58.7995 226.901 58.2995C227.2 57.7995 227.6 57.2995 228.2 56.9995C228.8 56.5995 229.5 56.4995 230.5 56.4995C231.401 56.4995 232.1 56.5995 232.7 56.9005C233.3 57.2005 233.7 57.4995 234 57.9005C234.3 58.2995 234.5 58.7995 234.6 59.2995C234.7 59.7995 234.8 60.4005 234.8 60.9005C234.8 61.2995 234.8 61.5995 234.6 61.7995C234.401 61.9995 234.2 62.0995 233.8 62.0995H228.3V61.9995Z" fill="white"/>
<path fill-rule="evenodd" clip-rule="evenodd" d="M244.4 66.7H247.7V28H244.4V66.7Z" fill="white"/>
</g>
</svg>
