<svg width="290" height="72" viewBox="0 0 290 72" fill="none" xmlns="http://www.w3.org/2000/svg">
<path fill-rule="evenodd" clip-rule="evenodd" d="M0 24.5C0 24.5 39.8 19.3 41 19.1C42.7 18.8 44.3 18.5 45.7 18.1C48.9 17.2 51.9 15.9 54.5 14.1C57 12.4 59.4 9.9 61.7 7.2C63.2 5.5 64.7 3.2 66.2 1V0C64.5 2.6 62.8 4.8 61.1 6.7C58.8 9.3 56.4 11.4 53.9 13C51.4 14.6 48.5 15.9 45.4 16.7C44 17.1 42.5 17.3 40.8 17.6C39.7 17.8 38.6 17.9 37.5 18C37 18 0 21.9 0 21.9V24.5Z" fill="white"/>
<mask id="mask0" style="mask-type:alpha" maskUnits="userSpaceOnUse" x="0" y="5" width="67" height="23">
<path fill-rule="evenodd" clip-rule="evenodd" d="M0 5.1998H66.0999V27.9998H0V5.1998Z" fill="white"/>
</mask>
<g mask="url(#mask0)">
<path fill-rule="evenodd" clip-rule="evenodd" d="M53.4 17.7998C50.9 19.1998 48 20.2998 44.8 20.8998C43.4 21.1998 42 21.3998 40.3 21.5998C39.3 21.6998 38.3 21.7998 37.3 21.8998C36.8 21.8998 36.2 21.9998 35.7 21.9998C23.5 23.1998 11.4 24.2998 0 25.3998V27.9998C11.4 26.5998 23.7 25.0998 35.9 23.6998C36.4 23.5998 37 23.5998 37.5 23.4998C38.5 23.3998 39.5 23.2998 40.5 23.0998C42.2 22.8998 43.8 22.5998 45.1 22.2998C48.4 21.5998 51.4 20.3998 54 18.7998C56.6 17.1998 58.8 15.0998 61.3 12.3998C62.8 10.6998 64.5 8.3998 66.1 6.1998V5.1998C64.2 7.6998 62.5 9.8998 60.7 11.6998C58.3 14.3998 55.9 16.3998 53.4 17.7998" fill="white"/>
</g>
<mask id="mask1" style="mask-type:alpha" maskUnits="userSpaceOnUse" x="0" y="10" width="67" height="22">
<path fill-rule="evenodd" clip-rule="evenodd" d="M0 10.9002H66.0999V31.5002H0V10.9002Z" fill="white"/>
</mask>
<g mask="url(#mask1)">
<path fill-rule="evenodd" clip-rule="evenodd" d="M60.4 17.2002C58 19.4002 55.4 21.2002 52.9 22.5002C50.4 23.7002 47.6 24.6002 44.3 25.1002C42.9 25.3002 41.5 25.5002 39.8 25.7002L0 28.9002V31.5002L35.3 27.7002L39.9 27.2002C41.6 27.0002 43.1 26.8002 44.5 26.5002C47.9 25.9002 50.8 24.9002 53.4 23.6002C56.1 22.2002 58.7 20.0002 61.2 17.6002C62.9 16.0002 64.4 13.9002 66.1 11.8002V10.9002C64.1 13.4002 62.3 15.4002 60.4 17.2002" fill="white"/>
</g>
<mask id="mask2" style="mask-type:alpha" maskUnits="userSpaceOnUse" x="0" y="21" width="67" height="18">
<path fill-rule="evenodd" clip-rule="evenodd" d="M0 21.7001H66.1998V38.5001H0V21.7001Z" fill="white"/>
</mask>
<g mask="url(#mask2)">
<path fill-rule="evenodd" clip-rule="evenodd" d="M50.8 30.6001C48.5 31.9001 46.8 32.7001 43.5 33.0001C41.5 33.2001 39.5 33.3001 37.5 33.4001C36.5 33.4001 35.6 33.5001 34.6 33.6001C28.6 33.9001 22.7 34.3001 16.7 34.7001L0 35.9001V38.5001L16.8 36.9001C22.2 36.4001 28.5 35.8001 34.7 35.3001L39.2 35.0001C40.9 34.9001 42.4 34.7001 43.7 34.5001C47.1 34.1001 50 33.4001 52.6 32.4001C55.4 31.4001 58 29.7001 60.6 27.8001C63 26.1001 66.2 22.7001 66.2 22.6001V21.7001C64.1 23.8001 62.8 25.0001 60.5 26.5001C57.6 28.5001 52.9 29.5001 50.8 30.6001" fill="white"/>
</g>
<path fill-rule="evenodd" clip-rule="evenodd" d="M51.6006 35.6001C49.1006 36.3001 46.3006 36.8001 43.0006 37.1001C41.7006 37.2001 40.2006 37.3001 38.6006 37.4001L34.2006 37.6001C23.2006 38.1001 12.2006 38.7001 0.100586 39.3001V41.9001C11.7006 41.0001 23.0006 40.1001 34.4006 39.3001L38.8006 39.0001C40.5006 38.9001 41.9006 38.8001 43.3006 38.6001C46.7006 38.2001 49.6006 37.6001 52.1006 36.8001C54.9006 35.9001 57.7006 34.6001 60.3006 32.9001C62.2006 31.7001 64.2006 30.2001 66.2006 28.4001C64.0006 30.3001 61.9006 30.7001 59.8006 32.0001C57.1006 33.6001 54.4006 34.8001 51.6006 35.6001" fill="white"/>
<path fill-rule="evenodd" clip-rule="evenodd" d="M51.2 39.9004C48.7 40.5004 45.9 40.9004 42.6 41.0994C41.3 41.2004 39.9 41.2994 38.2 41.2994L33.8 41.5004C22.7 41.9004 11.5 42.4004 0 42.9004V45.5004C11.4 44.7004 22.6 44.0004 33.9 43.2004L38.3 42.9004C40 42.7994 41.4 42.7004 42.7 42.5994C46.1 42.2994 48.9 41.7994 51.5 41.0994C54.4 40.2994 57.2 39.2004 59.9 37.7994C62 36.7004 64 35.4004 66.1 33.7994V32.7004C63.8 34.4004 61.6 35.7004 59.4 36.7994C56.8 38.2004 54 39.2004 51.2 39.9004" fill="white"/>
<mask id="mask3" style="mask-type:alpha" maskUnits="userSpaceOnUse" x="0" y="38" width="67" height="11">
<path fill-rule="evenodd" clip-rule="evenodd" d="M0 38.2006H66.1998V48.7996H0V38.2006Z" fill="white"/>
</mask>
<g mask="url(#mask3)">
<path fill-rule="evenodd" clip-rule="evenodd" d="M50.8 44.0996C48.3 44.5996 45.5 44.9006 42.2 44.9996C40.9 45.0996 39.6 45.0996 37.9 45.2006L0 46.2006V48.7996L33.6 46.9996L38 46.7996C39.7 46.7006 41.1 46.5996 42.4 46.4996C45.8 46.2006 48.5 45.9006 51.1 45.2996C54 44.7006 56.9 43.7996 59.6 42.5996C61.8 41.7006 63.9 40.5996 66.2 39.2006V38.2006C63.8 39.5996 61.5 40.7006 59.2 41.5996C56.5 42.7996 53.7 43.5996 50.8 44.0996" fill="white"/>
</g>
<path fill-rule="evenodd" clip-rule="evenodd" d="M50.5 48.2998C45.8 48.9008 41.1 48.9998 36.4 49.0998C35.3 49.0998 34.3 49.0998 33.2 49.1998L0 49.7998V52.4008L33.3 50.9998C34.4 50.9998 35.4 50.9008 36.5 50.9008C41.2 50.6998 46 50.4998 50.7 49.7998C53.7 49.2998 56.6 48.5998 59.2 47.6998C61.4 46.9998 63.7 45.9998 66 44.7998V43.7998C63.6 44.9008 61.1 45.9008 58.8 46.5998C56.3 47.2998 53.5 47.9998 50.5 48.2998" fill="white"/>
<mask id="mask4" style="mask-type:alpha" maskUnits="userSpaceOnUse" x="0" y="49" width="67" height="7">
<path fill-rule="evenodd" clip-rule="evenodd" d="M0 49.2006H66.1998V55.7996H0V49.2006Z" fill="white"/>
</mask>
<g mask="url(#mask4)">
<path fill-rule="evenodd" clip-rule="evenodd" d="M50.3 52.5996C45.9 52.9996 41.5 52.9996 37.1 52.9996H33.1C22.1 52.9996 11.1 53.0996 0 53.2006V55.7996C10.6 55.4006 21.9 55.0996 33.2 54.7006C34.5 54.7006 35.9 54.5996 37.2 54.5996C41.5 54.4996 46 54.4006 50.4 53.9006C53.5 53.5996 56.3 53.0996 59 52.4006C61.3 51.7996 63.7 50.9996 66.2 50.0996V49.2006C63.7 50.0996 61.2 50.7996 58.8 51.4006C56.1 51.9996 53.3 52.4006 50.3 52.5996" fill="white"/>
</g>
<path fill-rule="evenodd" clip-rule="evenodd" d="M50.1 56.7998C48.3 56.9008 46.3 56.9008 44.1 56.9008H41.6L33 56.7998C27.1 56.7998 21.3 56.6998 15.8 56.6998L0 56.7998V59.4008L15.9 58.9998C21.4 58.9008 27.2 58.6998 33 58.5998L41.6 58.4998C44 58.4998 47.1 58.4008 50.2 58.1998C53.3 57.9998 56.1 57.6998 58.8 57.2998C61.2 56.9008 63.7 56.4008 66.2 55.7998V54.9008C63.7 55.4998 61.1 55.9998 58.7 56.2998C55.9 56.4998 53.2 56.6998 50.1 56.7998" fill="white"/>
<path fill-rule="evenodd" clip-rule="evenodd" d="M41.5 60.9004L32.9 60.7994C22 60.5994 11.1 60.4004 0 60.2004V62.7994C10.6 62.7004 21.8 62.5994 32.9 62.5004L41.5 62.4004C44.4 62.4004 47.2 62.2994 50.1 62.2004C56 62.0004 61.2 61.5994 66.2 60.9004V60.0004C61.3 60.5004 56 60.7994 50.1 60.9004H41.5" fill="white"/>
<path fill-rule="evenodd" clip-rule="evenodd" d="M66.1 65.5L0 63.8V66.4H66.1V65.5Z" fill="white"/>
<path fill-rule="evenodd" clip-rule="evenodd" d="M60.2 22C57.7 24 55.7 25.5 52.7 26.7C50 27.8 47.1 28.2 43.9 28.7C41.8 29 39.6 29.4 37.5 29.6C36.6 29.7 35.8 29.7 34.9 29.8L0 32.3V34.9L34.9 31.5L39.4 31.1C41.1 30.9 42.6 30.8 44 30.5C47.4 30 50.3 29.1 52.9 27.9C55.6 26.7 58.4 24.7 60.9 22.6C62.6 21.1 64.3 19.3 66.1 17.3V16.4C63.9 18.6 62.1 20.5 60.2 22" fill="white"/>
<path fill-rule="evenodd" clip-rule="evenodd" d="M94.2002 0C94.2002 0 106.1 18.9 108.3 22.4C110.5 25.9 113 28.6 121.8 30.5C130.6 32.4 134.4 33.2 134.4 33.2V33.9C134.4 33.9 128.8 32.7 121.6 31.1C114.4 29.5 111.5 29 108.2 24.4C105.5 20.6 94.2002 4.5 94.2002 4.5V0Z" fill="white"/>
<path fill-rule="evenodd" clip-rule="evenodd" d="M94.2002 21.6001C94.2002 21.6001 105 32.9001 108.2 36.2001C111.5 39.7001 115.8 40.9001 121.7 42.0001C127.3 43.0001 134.4 44.2001 134.4 44.2001V44.8001C134.4 44.8001 127.7 43.7001 121.7 42.7001C115.8 41.7001 111.6 41.1001 108.2 38.0001C105.2 35.2001 94.3002 25.0001 94.3002 25.0001L94.2002 21.6001Z" fill="white"/>
<path fill-rule="evenodd" clip-rule="evenodd" d="M94.2002 26.7998C94.2002 26.7998 104.5 36.3998 108.2 39.5998C111.6 42.5998 114.3 43.4998 121.7 44.9008C129.1 46.1998 134.4 46.9998 134.4 46.9998V47.6998C134.4 47.6998 127.7 46.5998 121.7 45.5998C115.7 44.5998 111.8 44.2998 108.2 41.2998C104 37.9008 94.2002 29.8998 94.2002 29.8998V26.7998Z" fill="white"/>
<path fill-rule="evenodd" clip-rule="evenodd" d="M94.2002 32.2002C94.2002 32.2002 106 41.5002 108.2 43.2002C110.4 44.8002 113.3 46.7002 121.7 48.0002C130.1 49.2002 134.4 49.8002 134.4 49.8002V50.5002C134.4 50.5002 126.8 49.4002 121.7 48.8002C116.6 48.2002 112.7 47.9002 108.2 44.9002C103.8 42.0002 94.2002 35.2002 94.2002 35.2002V32.2002Z" fill="white"/>
<path fill-rule="evenodd" clip-rule="evenodd" d="M94.2002 37.4004C94.2002 37.4004 106 45.2994 108.2 46.5004C110.4 47.7004 113.1 49.7994 121.7 50.9004C130.3 52.0004 134.4 52.5004 134.4 52.5004V53.2004C134.4 53.2004 127.3 52.4004 121.7 51.7994C116.1 51.2004 112.3 50.4004 108.2 48.0994C104.1 45.7994 94.2002 40.0994 94.2002 40.0994V37.4004Z" fill="white"/>
<path fill-rule="evenodd" clip-rule="evenodd" d="M94.2002 42.7002C94.2002 42.7002 104.6 48.4002 108.2 50.0992C112.1 52.0992 115.5 53.0002 121.7 53.8002C127.8 54.5002 134.4 55.2002 134.4 55.2002V55.8002C134.4 55.8002 128.3 55.0992 121.7 54.5002C115.2 53.9002 112.9 53.5992 108.2 51.5002C104 49.5992 94.2002 45.0992 94.2002 45.0992V42.7002Z" fill="white"/>
<path fill-rule="evenodd" clip-rule="evenodd" d="M94.2006 48C94.2006 48 102.401 51.5 108.201 53.8C113.901 56.1 118.201 56.3 121.701 56.6C123.201 56.8 134.301 57.9 134.301 57.9V58.5C134.301 58.5 127.701 58 121.601 57.4C115.601 56.9 113.001 56.6 108.101 55C103.201 53.4 94.1006 50.2 94.1006 50.2L94.2006 48Z" fill="white"/>
<path fill-rule="evenodd" clip-rule="evenodd" d="M94.2002 53.4004C94.2002 53.4004 102.5 56.0004 108.2 57.5004C113.9 59.0004 119.1 59.5994 121.7 59.7994C124.3 60.0004 134.4 60.7994 134.4 60.7994V61.4004C134.4 61.4004 128.7 61.0004 121.7 60.5004C116 60.0994 111.5 59.7004 108.2 58.9004C104.5 58.0994 94.2002 55.5994 94.2002 55.5994V53.4004Z" fill="white"/>
<path fill-rule="evenodd" clip-rule="evenodd" d="M94.2002 58.7002C94.2002 58.7002 101 59.9002 108.2 61.0992C113.6 62.0002 120.9 62.5992 121.7 62.5992C122.5 62.5992 134.4 63.5002 134.4 63.5002V64.0992C134.4 64.0992 126.8 63.7002 121.7 63.4002C116.4 63.0992 111.2 62.8002 108.2 62.5002C101.5 61.8002 94.2002 60.9002 94.2002 60.9002V58.7002Z" fill="white"/>
<path fill-rule="evenodd" clip-rule="evenodd" d="M94.2002 64.2998C94.2002 64.2998 104.9 64.6998 108.2 64.7998C111.5 64.9008 134.4 65.7998 134.4 65.7998V66.4008H94.2002V64.2998Z" fill="white"/>
<path fill-rule="evenodd" clip-rule="evenodd" d="M121.7 33.3999C112 31.2999 109.8 27.7999 108.2 25.5999C106.6 23.3999 94.2998 5.3999 94.2998 5.3999V9.4999C94.7998 10.0999 105.3 23.8999 108.3 27.6999C111.6 31.9999 116.8 32.9999 121.8 33.9999C126.8 35.0999 134.5 36.5999 134.5 36.5999V35.9999C134.4 35.9999 124.2 33.9999 121.7 33.3999" fill="white"/>
<path fill-rule="evenodd" clip-rule="evenodd" d="M121.7 36.2998C113.7 34.6998 110.5 32.1998 108.2 29.1998C105.9 26.0998 94.2998 10.8998 94.2998 10.8998V14.6998C94.7998 15.2998 105.4 27.7998 108.2 31.0998C111.5 34.8998 116.1 35.8998 121.7 36.8998C127.3 37.9008 134.4 39.2998 134.4 39.2998V38.6998C134.4 38.6998 126.3 37.1998 121.7 36.2998" fill="white"/>
<path fill-rule="evenodd" clip-rule="evenodd" d="M121.7 39.2002C113.4 37.5992 111.7 36.3002 108.2 32.4002C106 30.0002 94.7002 16.7002 94.2002 16.1002V19.6002C94.2002 19.6002 104.7 30.8002 108.1 34.2002C112.5 38.5992 116.7 38.9002 121.6 39.8002C126.5 40.7002 134.3 42.0992 134.3 42.0992V41.5002C134.4 41.5002 125 39.9002 121.7 39.2002" fill="white"/>
<mask id="mask5" style="mask-type:alpha" maskUnits="userSpaceOnUse" x="0" y="0" width="248" height="71">
<path fill-rule="evenodd" clip-rule="evenodd" d="M0 70.128H247.5V0H0V70.128Z" fill="white"/>
</mask>
<g mask="url(#mask5)">
<path fill-rule="evenodd" clip-rule="evenodd" d="M27.5 66.3H85.4V27.6H27.5V66.3Z" fill="#004494" stroke="white" stroke-width="2"/>
<path fill-rule="evenodd" clip-rule="evenodd" d="M57.1004 33.1001H59.1004L57.5004 34.4001L58.1004 36.4001L56.5004 35.2001L54.9004 36.4001L55.5004 34.4001L53.9004 33.1001H55.9004L56.5004 31.1001L57.1004 33.1001Z" fill="#FFF100"/>
<path fill-rule="evenodd" clip-rule="evenodd" d="M57.1004 58.9004H59.1004L57.5004 60.0994L58.1004 62.0004L56.5004 60.7994L54.9004 62.0004L55.5004 60.0994L53.9004 58.9004H55.9004L56.5004 57.0004L57.1004 58.9004Z" fill="#FFF100"/>
<path fill-rule="evenodd" clip-rule="evenodd" d="M63.4998 57.2002H65.4998L63.8998 58.4002L64.4998 60.3002L62.8998 59.0992L61.2998 60.3002L61.8998 58.4002L60.2998 57.2002H62.2998L62.8998 55.3002L63.4998 57.2002Z" fill="#FFF100"/>
<path fill-rule="evenodd" clip-rule="evenodd" d="M63.5004 34.7998H65.5004L63.9004 35.9998L64.5004 37.9008L62.9004 36.6998L61.3004 37.9998L62.0004 35.9998L60.4004 34.7998H62.4004L63.0004 32.8998L63.5004 34.7998Z" fill="#FFF100"/>
<path fill-rule="evenodd" clip-rule="evenodd" d="M68.2996 39.5996H70.2996L68.6996 40.7996L69.2996 42.7006L67.6996 41.4996L66.0996 42.7006L66.6996 40.7996L65.0996 39.5996H67.0996L67.6996 37.7006L68.2996 39.5996Z" fill="#FFF100"/>
<path fill-rule="evenodd" clip-rule="evenodd" d="M68.2996 52.5996H70.2996L68.6996 53.7996L69.2996 55.7006L67.6996 54.4996L66.0996 55.7006L66.6996 53.7996L65.0996 52.5996H67.0996L67.6996 50.7006L68.2996 52.5996Z" fill="#FFF100"/>
<path fill-rule="evenodd" clip-rule="evenodd" d="M70.0998 46H72.0998L70.4998 47.2L71.0998 49.1L69.4998 47.9L67.8998 49.1L68.4998 47.2L66.7998 46H68.7998L69.3998 44.1L70.0998 46Z" fill="#FFF100"/>
<path fill-rule="evenodd" clip-rule="evenodd" d="M50.4998 34.7998H52.4998L50.8998 35.9998L51.4998 37.9008L49.9998 36.7998L48.2998 37.9998L48.8998 36.0998L47.2998 34.8998H49.2998L49.9998 32.9998L50.4998 34.7998Z" fill="#FFF100"/>
<path fill-rule="evenodd" clip-rule="evenodd" d="M45.9002 39.5996H47.9002L46.3002 40.7996L46.9002 42.7006L45.3002 41.4996L43.7002 42.7006L44.3002 40.7996L42.7002 39.5996H44.7002L45.3002 37.7006L45.9002 39.5996Z" fill="#FFF100"/>
<path fill-rule="evenodd" clip-rule="evenodd" d="M44.2 46H46.2L44.6 47.2L45.2 49.1L43.6 47.9L42 49.1L42.6 47.2L41 46H43L43.6 44.1L44.2 46Z" fill="#FFF100"/>
<path fill-rule="evenodd" clip-rule="evenodd" d="M45.9002 52.5996H47.9002L46.3002 53.7996L46.9002 55.7006L45.3002 54.4996L43.7002 55.7006L44.3002 53.7996L42.7002 52.5996H44.7002L45.3002 50.7006L45.9002 52.5996Z" fill="#FFF100"/>
<path fill-rule="evenodd" clip-rule="evenodd" d="M50.6004 57.2998H52.6004L51.0004 58.4998L51.6004 60.4008L50.0004 59.1998L48.4004 60.4008L49.0004 58.4998L47.4004 57.2998H49.4004L50.0004 55.4008L50.6004 57.2998Z" fill="#FFF100"/>
<path fill-rule="evenodd" clip-rule="evenodd" d="M143.4 33.1001C143.4 32.8001 143.5 32.7001 143.8 32.7001H151.2C151.5 32.7001 151.6 32.8001 151.6 33.1001V34.3001C151.6 34.5001 151.5 34.7001 151.2 34.7001H145.7V38.2001H150.6C150.9 38.2001 151 38.3001 151 38.6001V39.8001C151 40.0001 150.9 40.2001 150.6 40.2001H145.7V44.2001H151.3C151.5 44.2001 151.7 44.3001 151.7 44.6001V45.8001C151.7 46.0001 151.6 46.2001 151.3 46.2001H143.8C143.5 46.2001 143.4 46.1001 143.4 45.8001V33.1001Z" fill="white"/>
<path fill-rule="evenodd" clip-rule="evenodd" d="M155.9 43.0996C155.9 43.2996 156 43.5996 156.2 43.7006C156.4 43.7996 156.5 43.9996 156.799 44.0996C157.099 44.2006 157.4 44.2996 157.799 44.2996C158.2 44.2996 158.5 44.2006 158.799 44.0996C159.099 43.9996 159.299 43.7996 159.4 43.7006C159.599 43.4996 159.7 43.2996 159.7 43.0996C159.799 42.9006 159.799 42.5996 159.799 42.2996V36.5996C159.799 36.2996 159.9 36.2006 160.2 36.2006H161.7C162 36.2006 162.099 36.2996 162.099 36.5996V42.4006C162.099 42.9006 162 43.4006 161.799 43.9006C161.599 44.4006 161.4 44.7996 161 45.0996C160.599 45.4006 160.2 45.7006 159.7 45.9006C159.2 46.0996 158.5 46.2006 157.799 46.2006C157 46.2006 156.4 46.0996 155.9 45.9006C155.4 45.7006 154.9 45.4996 154.599 45.0996C154.299 44.7996 154 44.4006 153.9 43.9006C153.7 43.4006 153.7 42.9006 153.7 42.2996V36.4996C153.7 36.3996 153.7 36.2996 153.799 36.2006C153.9 36.0996 154 36.0996 154.099 36.0996H155.5C155.799 36.0996 155.9 36.2006 155.9 36.4996V42.2006V43.0996Z" fill="white"/>
<path fill-rule="evenodd" clip-rule="evenodd" d="M170.6 41C170.6 40.4 170.5 39.9 170.401 39.5C170.3 39.1 170.1 38.8 170 38.6C169.901 38.4 169.6 38.2 169.3 38.1C169 38 168.8 38 168.5 38C168 38 167.6 38.1 167.3 38.3C167 38.5 166.8 38.8 166.6 39.1C166.5 39.4 166.401 39.7 166.3 40.1V41.2V44C166.701 44.1 167.1 44.2 167.5 44.3C167.901 44.3 168.201 44.4 168.6 44.4C168.901 44.4 169.201 44.4 169.5 44.3C169.701 44.2 170 44 170.1 43.8C170.3 43.6 170.401 43.2 170.5 42.8C170.6 42.2 170.6 41.7 170.6 41M172.901 41.1C172.901 41.9 172.8 42.6 172.701 43.3C172.6 43.9 172.401 44.5 172.1 44.9C171.8 45.3 171.401 45.7 170.901 45.9C170.401 46.1 169.701 46.3 168.901 46.3C168.6 46.3 168.201 46.3 167.701 46.2C167.201 46.1 166.8 46 166.3 45.9V49.5C166.3 49.6 166.3 49.7 166.201 49.8C166.1 49.9 166 49.9 165.901 49.9H164.5C164.3 49.9 164.201 49.9 164.201 49.8C164.201 49.7 164.1 49.6 164.1 49.5V41.2C164.1 39.5 164.5 38.2 165.201 37.4C166 36.6 167 36.2 168.401 36.2C169.201 36.2 169.901 36.3 170.5 36.6C171.1 36.8 171.5 37.2 171.901 37.6C172.3 38 172.5 38.6 172.6 39.2C172.8 39.6 172.901 40.3 172.901 41.1" fill="white"/>
<path fill-rule="evenodd" clip-rule="evenodd" d="M181.4 44.7998C181.2 45.1998 180.799 45.4998 180.299 45.7998C179.799 46.0998 179.2 46.1998 178.599 46.1998C177.799 46.1998 177.2 46.0998 176.7 45.7998C176.2 45.4998 175.799 45.1998 175.5 44.6998C175.2 44.1998 175 43.6998 174.9 43.0998C174.799 42.4998 174.7 41.9008 174.7 41.1998C174.7 40.6998 174.7 40.1998 174.799 39.6998C174.9 39.1998 175 38.6998 175.2 38.2998C175.4 37.9008 175.7 37.4008 176.099 37.0998C176.5 36.6998 177 36.3998 177.599 36.1998C177.7 36.0998 177.9 36.0998 178 36.0998C178.099 36.0998 178.2 36.1998 178.299 36.2998L178.799 37.0998C178.9 37.1998 178.9 37.2998 178.9 37.4008C178.9 37.4998 178.799 37.5998 178.599 37.6998C178.299 37.9008 178 38.1998 177.799 38.4008C177.599 38.5998 177.4 38.9008 177.299 39.1998C177.2 39.4998 177.099 39.7998 177.099 40.0998C177.099 40.4008 177 40.7998 177 41.1998C177 41.5998 177 41.9998 177.099 42.4008C177.2 42.7998 177.299 43.0998 177.4 43.4008C177.5 43.6998 177.7 43.9008 177.9 44.0998C178.099 44.2998 178.4 44.2998 178.7 44.2998C179.099 44.2998 179.4 44.1998 179.599 44.0998C179.799 43.9998 180 43.7998 180.099 43.5998C180.2 43.4008 180.299 43.1998 180.299 42.9008C180.299 42.6998 180.4 42.4008 180.4 42.0998V39.4998C180.4 39.1998 180.5 39.0998 180.799 39.0998H182.099C182.2 39.0998 182.299 39.0998 182.4 39.1998C182.4 39.2998 182.5 39.4008 182.5 39.4998V42.0998C182.5 42.4008 182.5 42.5998 182.599 42.9008C182.7 43.0998 182.799 43.4008 182.9 43.5998C183 43.7998 183.2 43.9998 183.4 44.0998C183.599 44.1998 183.9 44.2998 184.2 44.2998C184.799 44.2998 185.2 44.0998 185.5 43.5998C185.799 43.0998 185.9 42.2998 185.9 41.1998C185.9 40.6998 185.9 40.2998 185.799 39.9998C185.799 39.6998 185.7 39.4008 185.599 39.0998C185.5 38.7998 185.299 38.5998 185.099 38.2998C184.9 38.0998 184.599 37.7998 184.299 37.5998C184.099 37.4998 184 37.4008 184 37.2998C184 37.1998 184 37.0998 184.099 36.9998L184.5 36.2998C184.599 35.9998 184.799 35.9998 185.099 36.0998C185.7 36.2998 186.2 36.5998 186.599 36.9998C187 37.4008 187.299 37.7998 187.5 38.1998C187.7 38.5998 187.9 39.0998 187.9 39.5998C188 40.0998 188 40.5998 188 41.0998C188 41.7998 187.9 42.4008 187.799 42.9998C187.7 43.5998 187.5 44.0998 187.2 44.5998C186.9 45.0998 186.5 45.4008 186 45.6998C185.5 45.9998 184.9 46.0998 184.099 46.0998C183.4 46.0998 182.799 45.9998 182.299 45.6998C182.099 45.4998 181.7 45.1998 181.4 44.7998" fill="white"/>
<path fill-rule="evenodd" clip-rule="evenodd" d="M198.8 45.7002C198.8 46.0002 198.7 46.0992 198.401 46.0992H197C196.7 46.0992 196.6 46.0002 196.6 45.7002V38.0992H192.401V45.7002C192.401 45.8002 192.401 45.9002 192.3 46.0002C192.2 46.0992 192.1 46.0992 192 46.0992H190.6C190.3 46.0992 190.2 46.0002 190.2 45.7002V36.6002C190.2 36.3002 190.3 36.2002 190.6 36.2002H198.401C198.5 36.2002 198.6 36.2002 198.7 36.3002C198.8 36.4002 198.8 36.5002 198.8 36.6002V45.7002Z" fill="white"/>
<path fill-rule="evenodd" clip-rule="evenodd" d="M202.9 41.2998C202.9 41.9008 202.9 42.4998 203 42.7998C203.099 43.1998 203.2 43.4998 203.299 43.6998C203.4 43.9008 203.599 44.0998 203.799 44.0998C204 44.1998 204.2 44.1998 204.5 44.1998C204.7 44.1998 204.9 44.1998 205.2 44.0998C205.4 43.9998 205.7 43.9998 206 43.9008C206.299 43.7998 206.5 43.6998 206.7 43.5998C206.9 43.4998 207.099 43.4008 207.299 43.2998V38.4998C206.9 38.2998 206.4 38.1998 206.099 38.0998C205.7 37.9998 205.4 37.9998 205.2 37.9998C204.5 37.9998 203.9 38.1998 203.599 38.6998C203 39.1998 202.9 40.0998 202.9 41.2998V41.2998ZM209.299 43.5998C209.299 43.9998 209.299 44.1998 209.4 44.2998C209.5 44.4008 209.7 44.4008 209.9 44.4998C210 44.4998 210.099 44.4998 210.2 44.5998C210.2 44.5998 210.299 44.6998 210.299 44.7998V45.5998C210.299 45.7998 210.099 45.9998 209.799 45.9998C209.599 45.9998 209.5 45.9998 209.299 46.0998H208.799C208.299 46.0998 207.9 45.9998 207.7 45.7998C207.5 45.5998 207.2 45.2998 207.099 44.7998C206.599 45.1998 206 45.4998 205.5 45.7998C205 46.0998 204.4 46.1998 203.799 46.1998C203.2 46.1998 202.599 46.0998 202.2 45.7998C201.799 45.5998 201.4 45.1998 201.2 44.7998C201 44.4008 200.799 43.7998 200.7 43.1998C200.599 42.5998 200.5 41.9008 200.5 41.0998C200.5 40.2998 200.599 39.5998 200.7 38.9998C200.9 38.4008 201.099 37.7998 201.4 37.4008C201.7 36.8998 202.099 36.5998 202.599 36.2998C203.099 35.9998 203.7 35.8998 204.4 35.8998C204.7 35.8998 205.099 35.9998 205.599 36.0998C206.099 36.1998 206.5 36.3998 207 36.6998V36.4998C207 36.3998 207 36.2998 207.099 36.1998C207.099 36.0998 207.299 36.0998 207.4 36.0998H208.799C209 36.0998 209.099 36.0998 209.099 36.1998C209.099 36.2998 209.2 36.3998 209.2 36.4998V43.5998H209.299Z" fill="white"/>
<path fill-rule="evenodd" clip-rule="evenodd" d="M215.2 34.8999C214.7 34.8999 214.4 34.7999 214.3 34.5999C214.2 34.3999 214.099 34.0999 214.099 33.7999C214.099 33.4999 214.2 33.1999 214.3 32.9999C214.4 32.7999 214.7 32.6999 215.2 32.6999C215.7 32.6999 216 32.7999 216.099 32.9999C216.2 33.1999 216.3 33.4999 216.3 33.7999C216.3 34.0999 216.2 34.3999 216.099 34.5999C216 34.7999 215.7 34.8999 215.2 34.8999V34.8999ZM214.3 45.6999C214.3 45.7999 214.3 45.8999 214.2 45.9999C214.099 46.0999 214.099 46.0999 213.9 46.0999H212.5C212.2 46.0999 212.099 45.9999 212.099 45.6999V36.5999C212.099 36.2999 212.2 36.1999 212.5 36.1999H213.9C214 36.1999 214.099 36.1999 214.2 36.2999C214.3 36.3999 214.3 36.4999 214.3 36.5999V45.6999ZM211.3 34.8999C211 34.8999 210.8 34.8999 210.7 34.7999C210.599 34.6999 210.4 34.6999 210.4 34.4999C210.3 34.3999 210.3 34.2999 210.2 34.0999V33.6999C210.2 33.3999 210.3 33.0999 210.4 32.8999C210.5 32.6999 210.8 32.5999 211.3 32.5999C211.8 32.5999 212.099 32.6999 212.2 32.8999C212.3 33.0999 212.4 33.3999 212.4 33.6999C212.4 33.9999 212.3 34.2999 212.2 34.4999C212.099 34.6999 211.8 34.8999 211.3 34.8999V34.8999Z" fill="white"/>
<path fill-rule="evenodd" clip-rule="evenodd" d="M219.1 39.9004L220.6 38.2994L222.3 36.6004C222.401 36.5004 222.5 36.4004 222.6 36.2994C222.701 36.2004 222.8 36.2004 223 36.2004H224.6C224.8 36.2004 224.901 36.2004 224.901 36.2994C224.901 36.4004 224.901 36.5004 224.8 36.6004L221.6 39.9004L225.201 45.5994C225.3 45.7004 225.3 45.7994 225.201 45.9004C225.1 46.0004 225.1 46.0004 224.901 46.0004H223.3C223.1 46.0004 222.901 46.0004 222.8 45.9004C222.701 45.7994 222.6 45.7004 222.6 45.5994L220.1 41.5004L219 42.7004V45.7004C219 45.7994 219 45.9004 218.901 46.0004C218.8 46.0994 218.701 46.0994 218.6 46.0994H217.201C216.901 46.0994 216.8 46.0004 216.8 45.7004V36.6004C216.8 36.2994 216.901 36.2004 217.201 36.2004H218.6C218.701 36.2004 218.8 36.2004 218.901 36.2994C219 36.4004 219 36.5004 219 36.6004L219.1 39.9004Z" fill="white"/>
<path fill-rule="evenodd" clip-rule="evenodd" d="M232.5 31.7998C232.7 31.8998 232.7 32.0998 232.6 32.1998L230.6 34.9998C230.5 35.0998 230.5 35.0998 230.4 35.0998H230.2L229.4 34.6998C229.3 34.5998 229.2 34.4998 229.3 34.2998L230.9 31.1998C231 30.9998 231.1 30.9998 231.3 31.0998L232.5 31.7998ZM235 45.6998C235 45.7998 235 45.9008 234.9 45.9998C234.8 46.0998 234.7 46.0998 234.6 46.0998H233.1C232.8 46.0998 232.7 45.9998 232.7 45.6998V40.0998C232.7 39.4998 232.6 38.9998 232.4 38.6998C232.2 38.2998 231.8 38.1998 231.2 38.1998C231 38.1998 230.8 38.1998 230.5 38.2998C230.2 38.4008 230 38.4998 229.7 38.5998C229.4 38.6998 229.2 38.7998 229 38.9008C228.8 38.9998 228.6 39.0998 228.5 39.1998V45.9008C228.5 46.1998 228.4 46.2998 228.1 46.2998H226.7C226.4 46.2998 226.3 46.1998 226.3 45.9008V36.7998C226.3 36.4998 226.4 36.3998 226.7 36.3998H228.1C228.4 36.3998 228.5 36.4998 228.5 36.7998V37.4008C228.7 37.2998 228.9 37.0998 229.2 36.9998C229.5 36.8998 229.7 36.6998 230 36.5998C230.3 36.4998 230.6 36.3998 230.9 36.2998C231.2 36.1998 231.5 36.1998 231.8 36.1998C232.5 36.1998 233 36.2998 233.4 36.4998C233.8 36.6998 234.1 36.9998 234.3 37.2998C234.5 37.5998 234.6 38.0998 234.7 38.4998C234.8 38.9998 234.8 39.4008 234.8 39.9998V45.6998H235Z" fill="white"/>
<path fill-rule="evenodd" clip-rule="evenodd" d="M143.4 53.4004C143.4 53.0994 143.5 53.0004 143.8 53.0004H151.2C151.5 53.0004 151.6 53.0994 151.6 53.4004V54.5994C151.6 54.7994 151.5 55.0004 151.2 55.0004H145.7V58.5004H150.6C150.9 58.5004 151 58.5994 151 58.9004V60.0994C151 60.2994 150.9 60.5004 150.6 60.5004H145.7V64.5004H151.3C151.5 64.5004 151.7 64.5994 151.7 64.9004V66.0004C151.7 66.2004 151.6 66.4004 151.3 66.4004H143.8C143.5 66.4004 143.4 66.2994 143.4 66.0004V53.4004Z" fill="white"/>
<path fill-rule="evenodd" clip-rule="evenodd" d="M162.3 66C162.3 66.3 162.2 66.4 161.901 66.4H160.5C160.2 66.4 160.1 66.3 160.1 66V58.4H155.901V66C155.901 66.1 155.901 66.2 155.8 66.3C155.7 66.4 155.6 66.4 155.5 66.4H154C153.7 66.4 153.6 66.3 153.6 66V56.9C153.6 56.6 153.7 56.5 154 56.5H161.8C161.901 56.5 162 56.5 162.1 56.6C162.2 56.7 162.2 56.8 162.2 56.9L162.3 66Z" fill="white"/>
<path fill-rule="evenodd" clip-rule="evenodd" d="M166.8 66C166.8 66.1 166.8 66.2 166.7 66.3C166.7 66.4 166.6 66.4 166.401 66.4H165C164.7 66.4 164.6 66.3 164.6 66V56.9C164.6 56.6 164.7 56.5 165 56.5H166.401C166.5 56.5 166.6 56.5 166.7 56.6C166.7 56.7 166.8 56.8 166.8 56.9V66Z" fill="white"/>
<path fill-rule="evenodd" clip-rule="evenodd" d="M175.401 56.5C175.6 56.5 175.701 56.5 175.701 56.6C175.701 56.7 175.8 56.8 175.8 56.9V58C175.8 58.1 175.8 58.2 175.701 58.3C175.701 58.4 175.501 58.4 175.401 58.4H173.001V63.3C173.001 63.7 173.001 63.9 173.1 64.1C173.201 64.3 173.3 64.4 173.501 64.5C173.701 64.6 173.901 64.6 174.3 64.6C174.6 64.6 175.001 64.6 175.501 64.5H175.901C176.001 64.5 176.001 64.6 176.001 64.8L176.1 65.6C176.1 65.8 176.001 66 175.8 66.1C175.6 66.2 175.401 66.3 175.201 66.3C175.001 66.4 174.8 66.4 174.501 66.4C174.201 66.4 174.1 66.5 173.8 66.5H173.201C172.701 66.5 172.3 66.4 172.001 66.3C171.701 66.2 171.401 66 171.201 65.8C171.001 65.6 170.901 65.3 170.8 65C170.701 64.7 170.701 64.4 170.701 64V58.3H168.701C168.401 58.3 168.3 58.2 168.3 57.9V56.9C168.3 56.6 168.401 56.5 168.701 56.5H175.401Z" fill="white"/>
<path fill-rule="evenodd" clip-rule="evenodd" d="M183.599 61.2998C183.599 60.6998 183.499 60.1998 183.4 59.7998C183.299 59.4008 183.099 59.0998 182.999 58.9008C182.9 58.6998 182.599 58.4998 182.299 58.4008C181.999 58.2998 181.799 58.2998 181.499 58.2998C180.999 58.2998 180.599 58.4008 180.299 58.5998C179.999 58.7998 179.799 59.0998 179.599 59.4008C179.499 59.6998 179.4 59.9998 179.299 60.4008V61.4998V64.4008C179.7 64.4998 180.099 64.5998 180.499 64.6998C180.9 64.6998 181.2 64.7998 181.599 64.7998C181.9 64.7998 182.2 64.7998 182.499 64.6998C182.7 64.5998 182.999 64.4008 183.099 64.1998C183.299 63.9998 183.4 63.5998 183.499 63.1998C183.599 62.4998 183.599 61.9998 183.599 61.2998M185.9 61.4008C185.9 62.1998 185.799 62.9008 185.7 63.5998C185.599 64.1998 185.4 64.7998 185.099 65.1998C184.799 65.5998 184.4 65.9998 183.9 66.1998C183.4 66.4008 182.7 66.5998 181.9 66.5998C181.599 66.5998 181.2 66.5998 180.7 66.4998C180.2 66.4008 179.799 66.2998 179.299 66.1998V69.7998C179.299 69.9008 179.299 69.9998 179.2 70.0998C179.099 70.1998 179.099 69.9998 178.999 69.9998H177.599C177.4 69.9998 177.299 69.9998 177.299 69.9008C177.299 69.7998 177.2 69.6998 177.2 69.5998V61.2998C177.2 59.5998 177.599 58.2998 178.299 57.4998C179.099 56.6998 180.099 56.2998 181.499 56.2998C182.299 56.2998 182.999 56.4008 183.599 56.6998C184.2 56.9008 184.599 57.2998 184.999 57.6998C185.4 58.0998 185.599 58.6998 185.7 59.2998C185.799 59.9008 185.9 60.5998 185.9 61.4008" fill="white"/>
<path fill-rule="evenodd" clip-rule="evenodd" d="M194.2 61.4004C194.2 60.9004 194.2 60.4004 194.099 60.0004C194 59.5994 193.9 59.2994 193.8 59.0004C193.599 58.7004 193.4 58.5004 193.099 58.4004C192.8 58.2994 192.5 58.2004 192 58.2004C191.599 58.2004 191.2 58.2994 191 58.4004C190.8 58.5004 190.5 58.7004 190.4 59.0004C190.2 59.2994 190.099 59.5994 190.099 60.0004C190 60.4004 190 60.9004 190 61.4004C190 61.9004 190 62.4004 190.099 62.7994C190.2 63.2004 190.3 63.5004 190.4 63.7994C190.5 64.0994 190.8 64.2994 191 64.4004C191.2 64.5004 191.599 64.5994 192 64.5994C192.5 64.5994 192.8 64.5004 193.099 64.4004C193.4 64.2994 193.599 64.0994 193.8 63.7994C194 63.5004 194.099 63.2004 194.099 62.7994C194.2 62.4004 194.2 62.0004 194.2 61.4004M196.4 61.2994C196.4 61.9004 196.4 62.5004 196.3 63.0994C196.2 63.7004 196 64.2994 195.7 64.7994C195.4 65.2994 195 65.7004 194.4 66.0994C193.8 66.4004 193 66.5994 192 66.5994C191 66.5994 190.2 66.4004 189.599 66.0994C189 65.7994 188.599 65.4004 188.3 64.7994C188 64.2994 187.8 63.7004 187.8 63.0994C187.7 62.5004 187.7 61.9004 187.7 61.2994C187.7 60.7994 187.7 60.2994 187.8 59.7004C187.9 59.0994 188.099 58.5994 188.4 58.0994C188.7 57.5994 189.099 57.2004 189.7 56.7994C190.3 56.5004 191 56.2994 192 56.2994C193 56.2994 193.8 56.4004 194.3 56.7004C194.9 57.0004 195.3 57.4004 195.599 57.9004C195.9 58.4004 196.099 58.9004 196.2 59.5004C196.4 60.0994 196.4 60.7004 196.4 61.2994" fill="white"/>
<path fill-rule="evenodd" clip-rule="evenodd" d="M207 66C207 66.3 206.9 66.4 206.6 66.4H205.2C204.9 66.4 204.8 66.3 204.8 66V58.4H200.6V66C200.6 66.1 200.6 66.2 200.5 66.3C200.4 66.4 200.3 66.4 200.2 66.4H198.8C198.5 66.4 198.4 66.3 198.4 66V56.9C198.4 56.6 198.5 56.5 198.8 56.5H206.6C206.7 56.5 206.8 56.5 206.9 56.6C207 56.7 207 56.8 207 56.9V66Z" fill="white"/>
<path fill-rule="evenodd" clip-rule="evenodd" d="M215.2 52.0996C215.4 52.2006 215.4 52.4006 215.3 52.4996L213.3 55.2996C213.2 55.4006 213.2 55.4006 213.099 55.4006H212.9L212.099 54.9996C212 54.9006 211.9 54.7996 212 54.5996L213.599 51.4996C213.7 51.2996 213.8 51.2996 214 51.4006L215.2 52.0996ZM217.599 65.9996C217.599 66.0996 217.599 66.2006 217.5 66.2996C217.4 66.4006 217.3 66.4006 217.2 66.4006H215.7C215.4 66.4006 215.3 66.2996 215.3 65.9996V60.4006C215.3 59.7996 215.2 59.2996 215 58.9996C214.8 58.5996 214.4 58.4996 213.8 58.4996C213.599 58.4996 213.4 58.4996 213.099 58.5996C212.8 58.7006 212.599 58.7996 212.3 58.9006C212 58.9996 211.8 59.0996 211.599 59.2006C211.4 59.2996 211.2 59.4006 211.099 59.4996V65.9996C211.099 66.2996 211 66.4006 210.7 66.4006H209.3C209 66.4006 208.9 66.2996 208.9 65.9996V56.9006C208.9 56.5996 209 56.4996 209.3 56.4996H210.7C211 56.4996 211.099 56.5996 211.099 56.9006V57.4996C211.3 57.4006 211.5 57.2006 211.8 57.0996C212.099 56.9996 212.3 56.7996 212.599 56.7006C212.9 56.5996 213.2 56.4996 213.5 56.4006C213.8 56.2996 214.099 56.2996 214.4 56.2996C215.099 56.2996 215.599 56.4006 216 56.5996C216.4 56.7996 216.7 57.0996 216.9 57.4006C217.099 57.7006 217.2 58.2006 217.3 58.5996C217.4 59.0996 217.4 59.4996 217.4 60.0996V65.9996H217.599Z" fill="white"/>
<path fill-rule="evenodd" clip-rule="evenodd" d="M244.2 66.7H247.5V28H244.2V66.7Z" fill="white"/>
</g>
</svg>
