<svg width="290" height="72" viewBox="0 0 290 72" fill="none" xmlns="http://www.w3.org/2000/svg">
<path fill-rule="evenodd" clip-rule="evenodd" d="M0 24.5C0 24.5 39.8 19.3 41 19.1C42.7 18.8 44.3 18.5 45.7 18.1C48.9 17.2 51.9 15.9 54.5 14.1C57 12.4 59.4 9.9 61.7 7.2C63.2 5.5 64.7 3.2 66.2 1V0C64.5 2.6 62.8 4.8 61.1 6.7C58.8 9.3 56.4 11.4 53.9 13C51.4 14.6 48.5 15.9 45.4 16.7C44 17.1 42.5 17.3 40.8 17.6C39.7 17.8 38.6 17.9 37.5 18C37 18 0 21.9 0 21.9V24.5Z" fill="white"/>
<mask id="mask0" style="mask-type:alpha" maskUnits="userSpaceOnUse" x="0" y="5" width="67" height="23">
<path fill-rule="evenodd" clip-rule="evenodd" d="M0 5.1998H66.0999V27.9998H0V5.1998Z" fill="white"/>
</mask>
<g mask="url(#mask0)">
<path fill-rule="evenodd" clip-rule="evenodd" d="M53.4 17.7998C50.9 19.1998 48 20.2998 44.8 20.8998C43.4 21.1998 42 21.3998 40.3 21.5998C39.3 21.6998 38.3 21.7998 37.3 21.8998C36.8 21.8998 36.2 21.9998 35.7 21.9998C23.5 23.1998 11.4 24.2998 0 25.3998V27.9998C11.4 26.5998 23.7 25.0998 35.9 23.6998C36.4 23.5998 37 23.5998 37.5 23.4998C38.5 23.3998 39.5 23.2998 40.5 23.0998C42.2 22.8998 43.8 22.5998 45.1 22.2998C48.4 21.5998 51.4 20.3998 54 18.7998C56.6 17.1998 58.8 15.0998 61.3 12.3998C62.8 10.6998 64.5 8.3998 66.1 6.1998V5.1998C64.2 7.6998 62.5 9.8998 60.7 11.6998C58.3 14.3998 55.9 16.3998 53.4 17.7998" fill="white"/>
</g>
<mask id="mask1" style="mask-type:alpha" maskUnits="userSpaceOnUse" x="0" y="10" width="67" height="22">
<path fill-rule="evenodd" clip-rule="evenodd" d="M0 10.9002H66.0999V31.5002H0V10.9002Z" fill="white"/>
</mask>
<g mask="url(#mask1)">
<path fill-rule="evenodd" clip-rule="evenodd" d="M60.4 17.2002C58 19.4002 55.4 21.2002 52.9 22.5002C50.4 23.7002 47.6 24.6002 44.3 25.1002C42.9 25.3002 41.5 25.5002 39.8 25.7002L0 28.9002V31.5002L35.3 27.7002L39.9 27.2002C41.6 27.0002 43.1 26.8002 44.5 26.5002C47.9 25.9002 50.8 24.9002 53.4 23.6002C56.1 22.2002 58.7 20.0002 61.2 17.6002C62.9 16.0002 64.4 13.9002 66.1 11.8002V10.9002C64.1 13.4002 62.3 15.4002 60.4 17.2002" fill="white"/>
</g>
<mask id="mask2" style="mask-type:alpha" maskUnits="userSpaceOnUse" x="0" y="21" width="67" height="18">
<path fill-rule="evenodd" clip-rule="evenodd" d="M0 21.7H66.1998V38.5H0V21.7Z" fill="white"/>
</mask>
<g mask="url(#mask2)">
<path fill-rule="evenodd" clip-rule="evenodd" d="M50.8 30.6C48.5 31.9 46.8 32.7 43.5 33C41.5 33.2 39.5 33.3 37.5 33.4C36.5 33.4 35.6 33.5 34.6 33.6C28.6 33.9 22.7 34.3 16.7 34.7L0 35.9V38.5L16.8 36.9C22.2 36.4 28.5 35.8 34.7 35.3L39.2 35C40.9 34.9 42.4 34.7 43.7 34.5C47.1 34.1 50 33.4 52.6 32.4C55.4 31.4 58 29.7 60.6 27.8C63 26.1 66.2 22.7 66.2 22.6V21.7C64.1 23.8 62.8 25 60.5 26.5C57.6 28.5 52.9 29.5 50.8 30.6" fill="white"/>
</g>
<path fill-rule="evenodd" clip-rule="evenodd" d="M51.6006 35.6001C49.1006 36.3001 46.3006 36.8001 43.0006 37.1001C41.7006 37.2001 40.2006 37.3001 38.6006 37.4001L34.2006 37.6001C23.2006 38.1001 12.2006 38.7001 0.100586 39.3001V41.9001C11.7006 41.0001 23.0006 40.1001 34.4006 39.3001L38.8006 39.0001C40.5006 38.9001 41.9006 38.8001 43.3006 38.6001C46.7006 38.2001 49.6006 37.6001 52.1006 36.8001C54.9006 35.9001 57.7006 34.6001 60.3006 32.9001C62.2006 31.7001 64.2006 30.2001 66.2006 28.4001C64.0006 30.3001 61.9006 30.7001 59.8006 32.0001C57.1006 33.6001 54.4006 34.8001 51.6006 35.6001" fill="white"/>
<path fill-rule="evenodd" clip-rule="evenodd" d="M51.2 39.9004C48.7 40.5004 45.9 40.9004 42.6 41.0994C41.3 41.2004 39.9 41.2994 38.2 41.2994L33.8 41.5004C22.7 41.9004 11.5 42.4004 0 42.9004V45.5004C11.4 44.7004 22.6 44.0004 33.9 43.2004L38.3 42.9004C40 42.7994 41.4 42.7004 42.7 42.5994C46.1 42.2994 48.9 41.7994 51.5 41.0994C54.4 40.2994 57.2 39.2004 59.9 37.7994C62 36.7004 64 35.4004 66.1 33.7994V32.7004C63.8 34.4004 61.6 35.7004 59.4 36.7994C56.8 38.2004 54 39.2004 51.2 39.9004" fill="white"/>
<mask id="mask3" style="mask-type:alpha" maskUnits="userSpaceOnUse" x="0" y="38" width="67" height="11">
<path fill-rule="evenodd" clip-rule="evenodd" d="M0 38.2006H66.1998V48.7996H0V38.2006Z" fill="white"/>
</mask>
<g mask="url(#mask3)">
<path fill-rule="evenodd" clip-rule="evenodd" d="M50.8 44.0996C48.3 44.5996 45.5 44.9006 42.2 44.9996C40.9 45.0996 39.6 45.0996 37.9 45.2006L0 46.2006V48.7996L33.6 46.9996L38 46.7996C39.7 46.7006 41.1 46.5996 42.4 46.4996C45.8 46.2006 48.5 45.9006 51.1 45.2996C54 44.7006 56.9 43.7996 59.6 42.5996C61.8 41.7006 63.9 40.5996 66.2 39.2006V38.2006C63.8 39.5996 61.5 40.7006 59.2 41.5996C56.5 42.7996 53.7 43.5996 50.8 44.0996" fill="white"/>
</g>
<path fill-rule="evenodd" clip-rule="evenodd" d="M50.5 48.2998C45.8 48.9008 41.1 48.9998 36.4 49.0998C35.3 49.0998 34.3 49.0998 33.2 49.1998L0 49.7998V52.4008L33.3 50.9998C34.4 50.9998 35.4 50.9008 36.5 50.9008C41.2 50.6998 46 50.4998 50.7 49.7998C53.7 49.2998 56.6 48.5998 59.2 47.6998C61.4 46.9998 63.7 45.9998 66 44.7998V43.7998C63.6 44.9008 61.1 45.9008 58.8 46.5998C56.3 47.2998 53.5 47.9998 50.5 48.2998" fill="white"/>
<mask id="mask4" style="mask-type:alpha" maskUnits="userSpaceOnUse" x="0" y="49" width="67" height="7">
<path fill-rule="evenodd" clip-rule="evenodd" d="M0 49.2006H66.1998V55.7996H0V49.2006Z" fill="white"/>
</mask>
<g mask="url(#mask4)">
<path fill-rule="evenodd" clip-rule="evenodd" d="M50.3 52.5996C45.9 52.9996 41.5 52.9996 37.1 52.9996H33.1C22.1 52.9996 11.1 53.0996 0 53.2006V55.7996C10.6 55.4006 21.9 55.0996 33.2 54.7006C34.5 54.7006 35.9 54.5996 37.2 54.5996C41.5 54.4996 46 54.4006 50.4 53.9006C53.5 53.5996 56.3 53.0996 59 52.4006C61.3 51.7996 63.7 50.9996 66.2 50.0996V49.2006C63.7 50.0996 61.2 50.7996 58.8 51.4006C56.1 51.9996 53.3 52.4006 50.3 52.5996" fill="white"/>
</g>
<path fill-rule="evenodd" clip-rule="evenodd" d="M50.1 56.7998C48.3 56.9008 46.3 56.9008 44.1 56.9008H41.6L33 56.7998C27.1 56.7998 21.3 56.6998 15.8 56.6998L0 56.7998V59.4008L15.9 58.9998C21.4 58.9008 27.2 58.6998 33 58.5998L41.6 58.4998C44 58.4998 47.1 58.4008 50.2 58.1998C53.3 57.9998 56.1 57.6998 58.8 57.2998C61.2 56.9008 63.7 56.4008 66.2 55.7998V54.9008C63.7 55.4998 61.1 55.9998 58.7 56.2998C55.9 56.4998 53.2 56.6998 50.1 56.7998" fill="white"/>
<path fill-rule="evenodd" clip-rule="evenodd" d="M41.5 60.9004L32.9 60.7994C22 60.5994 11.1 60.4004 0 60.2004V62.7994C10.6 62.7004 21.8 62.5994 32.9 62.5004L41.5 62.4004C44.4 62.4004 47.2 62.2994 50.1 62.2004C56 62.0004 61.2 61.5994 66.2 60.9004V60.0004C61.3 60.5004 56 60.7994 50.1 60.9004H41.5" fill="white"/>
<path fill-rule="evenodd" clip-rule="evenodd" d="M66.1 65.5L0 63.8V66.4H66.1V65.5Z" fill="white"/>
<path fill-rule="evenodd" clip-rule="evenodd" d="M60.2 22C57.7 24 55.7 25.5 52.7 26.7C50 27.8 47.1 28.2 43.9 28.7C41.8 29 39.6 29.4 37.5 29.6C36.6 29.7 35.8 29.7 34.9 29.8L0 32.3V34.9L34.9 31.5L39.4 31.1C41.1 30.9 42.6 30.8 44 30.5C47.4 30 50.3 29.1 52.9 27.9C55.6 26.7 58.4 24.7 60.9 22.6C62.6 21.1 64.3 19.3 66.1 17.3V16.4C63.9 18.6 62.1 20.5 60.2 22" fill="white"/>
<path fill-rule="evenodd" clip-rule="evenodd" d="M94.2002 0C94.2002 0 106.1 18.9 108.3 22.4C110.5 25.9 113 28.6 121.8 30.5C130.6 32.4 134.4 33.2 134.4 33.2V33.9C134.4 33.9 128.8 32.7 121.6 31.1C114.4 29.5 111.5 29 108.2 24.4C105.5 20.6 94.2002 4.5 94.2002 4.5V0Z" fill="white"/>
<path fill-rule="evenodd" clip-rule="evenodd" d="M94.2002 21.6001C94.2002 21.6001 105 32.9001 108.2 36.2001C111.5 39.7001 115.8 40.9001 121.7 42.0001C127.3 43.0001 134.4 44.2001 134.4 44.2001V44.8001C134.4 44.8001 127.7 43.7001 121.7 42.7001C115.8 41.7001 111.6 41.1001 108.2 38.0001C105.2 35.2001 94.3002 25.0001 94.3002 25.0001L94.2002 21.6001Z" fill="white"/>
<path fill-rule="evenodd" clip-rule="evenodd" d="M94.2002 26.7998C94.2002 26.7998 104.5 36.3998 108.2 39.5998C111.6 42.5998 114.3 43.4998 121.7 44.9008C129.1 46.1998 134.4 46.9998 134.4 46.9998V47.6998C134.4 47.6998 127.7 46.5998 121.7 45.5998C115.7 44.5998 111.8 44.2998 108.2 41.2998C104 37.9008 94.2002 29.8998 94.2002 29.8998V26.7998Z" fill="white"/>
<path fill-rule="evenodd" clip-rule="evenodd" d="M94.2002 32.2002C94.2002 32.2002 106 41.5002 108.2 43.2002C110.4 44.8002 113.3 46.7002 121.7 48.0002C130.1 49.2002 134.4 49.8002 134.4 49.8002V50.5002C134.4 50.5002 126.8 49.4002 121.7 48.8002C116.6 48.2002 112.7 47.9002 108.2 44.9002C103.8 42.0002 94.2002 35.2002 94.2002 35.2002V32.2002Z" fill="white"/>
<path fill-rule="evenodd" clip-rule="evenodd" d="M94.2002 37.4004C94.2002 37.4004 106 45.2994 108.2 46.5004C110.4 47.7004 113.1 49.7994 121.7 50.9004C130.3 52.0004 134.4 52.5004 134.4 52.5004V53.2004C134.4 53.2004 127.3 52.4004 121.7 51.7994C116.1 51.2004 112.3 50.4004 108.2 48.0994C104.1 45.7994 94.2002 40.0994 94.2002 40.0994V37.4004Z" fill="white"/>
<path fill-rule="evenodd" clip-rule="evenodd" d="M94.2002 42.7002C94.2002 42.7002 104.6 48.4002 108.2 50.0992C112.1 52.0992 115.5 53.0002 121.7 53.8002C127.8 54.5002 134.4 55.2002 134.4 55.2002V55.8002C134.4 55.8002 128.3 55.0992 121.7 54.5002C115.2 53.9002 112.9 53.5992 108.2 51.5002C104 49.5992 94.2002 45.0992 94.2002 45.0992V42.7002Z" fill="white"/>
<path fill-rule="evenodd" clip-rule="evenodd" d="M94.2006 48C94.2006 48 102.401 51.5 108.201 53.8C113.901 56.1 118.201 56.3 121.701 56.6C123.201 56.8 134.301 57.9 134.301 57.9V58.5C134.301 58.5 127.701 58 121.601 57.4C115.601 56.9 113.001 56.6 108.101 55C103.201 53.4 94.1006 50.2 94.1006 50.2L94.2006 48Z" fill="white"/>
<path fill-rule="evenodd" clip-rule="evenodd" d="M94.2002 53.4004C94.2002 53.4004 102.5 56.0004 108.2 57.5004C113.9 59.0004 119.1 59.5994 121.7 59.7994C124.3 60.0004 134.4 60.7994 134.4 60.7994V61.4004C134.4 61.4004 128.7 61.0004 121.7 60.5004C116 60.0994 111.5 59.7004 108.2 58.9004C104.5 58.0994 94.2002 55.5994 94.2002 55.5994V53.4004Z" fill="white"/>
<path fill-rule="evenodd" clip-rule="evenodd" d="M94.2002 58.7002C94.2002 58.7002 101 59.9002 108.2 61.0992C113.6 62.0002 120.9 62.5992 121.7 62.5992C122.5 62.5992 134.4 63.5002 134.4 63.5002V64.0992C134.4 64.0992 126.8 63.7002 121.7 63.4002C116.4 63.0992 111.2 62.8002 108.2 62.5002C101.5 61.8002 94.2002 60.9002 94.2002 60.9002V58.7002Z" fill="white"/>
<path fill-rule="evenodd" clip-rule="evenodd" d="M94.2002 64.2998C94.2002 64.2998 104.9 64.6998 108.2 64.7998C111.5 64.9008 134.4 65.7998 134.4 65.7998V66.4008H94.2002V64.2998Z" fill="white"/>
<path fill-rule="evenodd" clip-rule="evenodd" d="M121.7 33.3999C112 31.2999 109.8 27.7999 108.2 25.5999C106.6 23.3999 94.2998 5.3999 94.2998 5.3999V9.4999C94.7998 10.0999 105.3 23.8999 108.3 27.6999C111.6 31.9999 116.8 32.9999 121.8 33.9999C126.8 35.0999 134.5 36.5999 134.5 36.5999V35.9999C134.4 35.9999 124.2 33.9999 121.7 33.3999" fill="white"/>
<path fill-rule="evenodd" clip-rule="evenodd" d="M121.7 36.2998C113.7 34.6998 110.5 32.1998 108.2 29.1998C105.9 26.0998 94.2998 10.8998 94.2998 10.8998V14.6998C94.7998 15.2998 105.4 27.7998 108.2 31.0998C111.5 34.8998 116.1 35.8998 121.7 36.8998C127.3 37.9008 134.4 39.2998 134.4 39.2998V38.6998C134.4 38.6998 126.3 37.1998 121.7 36.2998" fill="white"/>
<path fill-rule="evenodd" clip-rule="evenodd" d="M121.7 39.2002C113.4 37.5992 111.7 36.3002 108.2 32.4002C106 30.0002 94.7002 16.7002 94.2002 16.1002V19.6002C94.2002 19.6002 104.7 30.8002 108.1 34.2002C112.5 38.5992 116.7 38.9002 121.6 39.8002C126.5 40.7002 134.3 42.0992 134.3 42.0992V41.5002C134.4 41.5002 125 39.9002 121.7 39.2002" fill="white"/>
<mask id="mask5" style="mask-type:alpha" maskUnits="userSpaceOnUse" x="0" y="0" width="279" height="67">
<path fill-rule="evenodd" clip-rule="evenodd" d="M0 66.7H278.5V0H0V66.7Z" fill="white"/>
</mask>
<g mask="url(#mask5)">
<path fill-rule="evenodd" clip-rule="evenodd" d="M27.5 66.3H85.4V27.6H27.5V66.3Z" fill="#004494" stroke="white" stroke-width="2"/>
<path fill-rule="evenodd" clip-rule="evenodd" d="M57.1004 33.1001H59.1004L57.5004 34.4001L58.1004 36.4001L56.5004 35.2001L54.9004 36.4001L55.5004 34.4001L53.9004 33.1001H55.9004L56.5004 31.1001L57.1004 33.1001Z" fill="#FFF100"/>
<path fill-rule="evenodd" clip-rule="evenodd" d="M57.1004 58.9004H59.1004L57.5004 60.0994L58.1004 62.0004L56.5004 60.7994L54.9004 62.0004L55.5004 60.0994L53.9004 58.9004H55.9004L56.5004 57.0004L57.1004 58.9004Z" fill="#FFF100"/>
<path fill-rule="evenodd" clip-rule="evenodd" d="M63.4998 57.2002H65.4998L63.8998 58.4002L64.4998 60.3002L62.8998 59.0992L61.2998 60.3002L61.8998 58.4002L60.2998 57.2002H62.2998L62.8998 55.3002L63.4998 57.2002Z" fill="#FFF100"/>
<path fill-rule="evenodd" clip-rule="evenodd" d="M63.5004 34.7998H65.5004L63.9004 35.9998L64.5004 37.9008L62.9004 36.6998L61.3004 37.9998L62.0004 35.9998L60.4004 34.7998H62.4004L63.0004 32.8998L63.5004 34.7998Z" fill="#FFF100"/>
<path fill-rule="evenodd" clip-rule="evenodd" d="M68.2996 39.5996H70.2996L68.6996 40.7996L69.2996 42.7006L67.6996 41.4996L66.0996 42.7006L66.6996 40.7996L65.0996 39.5996H67.0996L67.6996 37.7006L68.2996 39.5996Z" fill="#FFF100"/>
<path fill-rule="evenodd" clip-rule="evenodd" d="M68.2996 52.5996H70.2996L68.6996 53.7996L69.2996 55.7006L67.6996 54.4996L66.0996 55.7006L66.6996 53.7996L65.0996 52.5996H67.0996L67.6996 50.7006L68.2996 52.5996Z" fill="#FFF100"/>
<path fill-rule="evenodd" clip-rule="evenodd" d="M70.0998 46H72.0998L70.4998 47.2L71.0998 49.1L69.4998 47.9L67.8998 49.1L68.4998 47.2L66.7998 46H68.7998L69.3998 44.1L70.0998 46Z" fill="#FFF100"/>
<path fill-rule="evenodd" clip-rule="evenodd" d="M50.4998 34.7998H52.4998L50.8998 35.9998L51.4998 37.9008L49.9998 36.7998L48.2998 37.9998L48.8998 36.0998L47.2998 34.8998H49.2998L49.9998 32.9998L50.4998 34.7998Z" fill="#FFF100"/>
<path fill-rule="evenodd" clip-rule="evenodd" d="M45.9002 39.5996H47.9002L46.3002 40.7996L46.9002 42.7006L45.3002 41.4996L43.7002 42.7006L44.3002 40.7996L42.7002 39.5996H44.7002L45.3002 37.7006L45.9002 39.5996Z" fill="#FFF100"/>
<path fill-rule="evenodd" clip-rule="evenodd" d="M44.2 46H46.2L44.6 47.2L45.2 49.1L43.6 47.9L42 49.1L42.6 47.2L41 46H43L43.6 44.1L44.2 46Z" fill="#FFF100"/>
<path fill-rule="evenodd" clip-rule="evenodd" d="M45.9002 52.5996H47.9002L46.3002 53.7996L46.9002 55.7006L45.3002 54.4996L43.7002 55.7006L44.3002 53.7996L42.7002 52.5996H44.7002L45.3002 50.7006L45.9002 52.5996Z" fill="#FFF100"/>
<path fill-rule="evenodd" clip-rule="evenodd" d="M50.6004 57.2998H52.6004L51.0004 58.4998L51.6004 60.4008L50.0004 59.1998L48.4004 60.4008L49.0004 58.4998L47.4004 57.2998H49.4004L50.0004 55.4008L50.6004 57.2998Z" fill="#FFF100"/>
<path fill-rule="evenodd" clip-rule="evenodd" d="M143.4 33.1001C143.4 32.8001 143.5 32.7001 143.8 32.7001H151.2C151.5 32.7001 151.6 32.8001 151.6 33.1001V34.3001C151.6 34.5001 151.5 34.7001 151.2 34.7001H145.7V38.2001H150.6C150.9 38.2001 151 38.3001 151 38.6001V39.8001C151 40.0001 150.9 40.2001 150.6 40.2001H145.7V44.2001H151.3C151.5 44.2001 151.7 44.3001 151.7 44.6001V45.8001C151.7 46.0001 151.6 46.2001 151.3 46.2001H143.8C143.5 46.2001 143.4 46.1001 143.4 45.8001V33.1001Z" fill="white"/>
<path fill-rule="evenodd" clip-rule="evenodd" d="M161.8 46.0996H160.401C160.3 46.0996 160.2 46.0996 160.1 45.9996C160 45.9006 160 45.7996 160 45.7006V44.9996C159.8 45.0996 159.6 45.2996 159.3 45.4006C159 45.4996 158.8 45.7006 158.5 45.7996C158.2 45.9006 157.901 45.9996 157.6 46.0996C157.3 46.2006 157 46.2006 156.7 46.2006C156 46.2006 155.5 46.0996 155.1 45.9006C154.7 45.7006 154.401 45.4996 154.2 45.0996C154 44.7996 153.901 44.4006 153.8 43.9006C153.7 43.4006 153.7 42.9996 153.7 42.4006V36.4996C153.7 36.2006 153.8 36.0996 154.1 36.0996H155.6C155.8 36.0996 156 36.2006 156 36.4996V42.0996C156 42.4006 156 42.7006 156.1 42.9006C156.1 43.0996 156.2 43.2996 156.3 43.4996C156.401 43.7006 156.6 43.7996 156.7 43.9006C156.8 43.9996 157.1 43.9996 157.401 43.9996C157.6 43.9996 157.8 43.9996 158.1 43.9006C158.401 43.7996 158.6 43.7006 158.901 43.5996C159.2 43.4996 159.401 43.4006 159.6 43.2996C159.8 43.2006 160 43.0996 160.1 42.9996V36.2996C160.1 36.2006 160.1 36.0996 160.2 35.9996C160.3 35.8996 160.401 35.8996 160.5 35.8996H161.901C162.2 35.8996 162.3 35.9996 162.3 36.2996V45.4006C162.2 45.9006 162.1 46.0996 161.8 46.0996" fill="white"/>
<path fill-rule="evenodd" clip-rule="evenodd" d="M166.901 45.7002C166.901 46.0002 166.8 46.0992 166.501 46.0992H165.001C164.701 46.0992 164.6 46.0002 164.6 45.7002V36.6002C164.6 36.3002 164.701 36.2002 165.001 36.2002H166.401C166.701 36.2002 166.8 36.3002 166.8 36.6002V37.5002C166.901 37.4002 167.1 37.2002 167.401 37.0992C167.6 36.9002 167.901 36.8002 168.201 36.7002C168.501 36.6002 168.8 36.5002 169.001 36.3002C169.3 36.2002 169.501 36.1002 169.8 36.1002H170.1C170.201 36.1002 170.201 36.2002 170.3 36.4002L170.401 37.7002V38.0002C170.401 38.0992 170.3 38.0992 170.001 38.2002C169.701 38.3002 169.401 38.3002 169.1 38.4002C168.8 38.5002 168.501 38.5992 168.201 38.5992C167.901 38.7002 167.6 38.8002 167.401 38.9002C167.1 39.0002 166.901 39.0992 166.8 39.0992L166.901 45.7002Z" fill="white"/>
<path fill-rule="evenodd" clip-rule="evenodd" d="M177.9 41.0996C177.9 40.5996 177.9 40.0996 177.799 39.7006C177.7 39.2996 177.599 38.9996 177.5 38.7006C177.299 38.4006 177.099 38.2006 176.799 38.0996C176.5 37.9996 176.2 37.9006 175.7 37.9006C175.299 37.9006 174.9 37.9996 174.7 38.0996C174.5 38.2006 174.2 38.4006 174.099 38.7006C173.9 38.9996 173.799 39.2996 173.799 39.7006C173.7 40.0996 173.7 40.5996 173.7 41.0996C173.7 41.5996 173.7 42.0996 173.799 42.4996C173.9 42.9006 174 43.2006 174.099 43.4996C174.2 43.7996 174.5 43.9996 174.7 44.0996C174.9 44.2006 175.299 44.2996 175.7 44.2996C176.2 44.2996 176.5 44.2006 176.799 44.0996C177.099 43.9996 177.299 43.7996 177.5 43.4996C177.7 43.2006 177.799 42.9006 177.799 42.4996C177.9 42.0996 177.9 41.7006 177.9 41.0996M180.2 40.9996C180.2 41.5996 180.2 42.2006 180.099 42.7996C180 43.4006 179.799 43.9996 179.5 44.4996C179.2 44.9996 178.799 45.4006 178.2 45.7996C177.599 46.0996 176.799 46.2996 175.799 46.2996C174.799 46.2996 174 46.0996 173.4 45.7996C172.799 45.4996 172.4 45.0996 172.099 44.4996C171.799 43.9996 171.599 43.4006 171.599 42.7996C171.5 42.2006 171.5 41.5996 171.5 40.9996C171.5 40.4996 171.5 39.9996 171.599 39.4006C171.7 38.7996 171.9 38.2996 172.2 37.7996C172.5 37.2996 172.9 36.8996 173.5 36.4996C174.099 36.2006 174.799 35.9996 175.799 35.9996C176.799 35.9996 177.599 36.0996 178.099 36.3996C178.7 36.7006 179.099 37.0996 179.4 37.5996C179.7 38.0996 179.9 38.5996 180 39.2006C180.099 39.7996 180.2 40.4006 180.2 40.9996" fill="white"/>
<path fill-rule="evenodd" clip-rule="evenodd" d="M188.5 41.0996C188.5 40.4996 188.5 39.9006 188.4 39.5996C188.3 39.2996 188.2 38.9006 188.1 38.7006C188 38.4996 187.8 38.2996 187.6 38.2996C187.4 38.2006 187.2 38.2006 186.9 38.2006C186.7 38.2006 186.5 38.2006 186.2 38.2996C185.9 38.4006 185.7 38.4006 185.4 38.4996C185.2 38.5996 184.9 38.7006 184.7 38.7996C184.5 38.9006 184.3 38.9996 184.1 39.0996V44.0996C184.6 44.2006 185 44.2996 185.3 44.4006C185.6 44.4996 186 44.4996 186.4 44.4996C186.8 44.4996 187.1 44.4006 187.3 44.2996C187.5 44.2006 187.7 43.9996 187.9 43.7996C188.1 43.4996 188.2 43.2006 188.2 42.7996C188.5 42.2006 188.5 41.7006 188.5 41.0996M190.8 41.0996C190.8 41.9006 190.7 42.5996 190.6 43.2996C190.5 43.9006 190.3 44.4996 190 44.9006C189.7 45.2996 189.3 45.7006 188.8 45.9006C188.3 46.0996 187.6 46.2006 186.8 46.2006C186.5 46.2006 186.1 46.2006 185.6 46.0996C185.2 45.9996 184.7 45.9006 184.2 45.7996V49.2996C184.2 49.4006 184.2 49.4996 184.1 49.5996C184 49.7006 183.9 49.7006 183.8 49.7006H182.4C182.2 49.7006 182.1 49.7006 182.1 49.5996C182.1 49.4996 182 49.4006 182 49.2996V36.5996C182 36.2996 182.1 36.2006 182.4 36.2006H183.8C183.9 36.2006 184 36.2006 184.1 36.2996C184.2 36.3996 184.2 36.4996 184.2 36.5996V37.2006H184.3C184.5 37.0996 184.7 36.9996 184.9 36.7996C185.1 36.7006 185.4 36.4996 185.7 36.3996C186 36.2996 186.3 36.2006 186.6 36.0996C186.9 35.9996 187.2 35.9996 187.5 35.9996C188.2 35.9996 188.7 36.0996 189.1 36.3996C189.5 36.5996 189.9 36.9996 190.1 37.4006C190.3 37.7996 190.5 38.4006 190.6 38.9996C190.8 39.5996 190.8 40.2996 190.8 41.0996" fill="white"/>
<path fill-rule="evenodd" clip-rule="evenodd" d="M198.7 41.5996H196.3C195.8 41.5996 195.4 41.7006 195.099 41.9996C194.8 42.2006 194.7 42.7006 194.7 43.2996C194.7 43.7006 194.8 43.9996 195 44.2006C195.2 44.4006 195.5 44.4996 196 44.4996C196.2 44.4996 196.4 44.4996 196.7 44.4006C197 44.2996 197.2 44.2996 197.5 44.2006C197.8 44.0996 198 43.9996 198.2 43.9006C198.4 43.7996 198.7 43.7006 198.8 43.5996V41.5996H198.7ZM198.8 44.9006C198.3 45.2996 197.7 45.5996 197.099 45.7996C196.5 45.9996 195.8 46.2006 195.099 46.2006C194.599 46.2006 194.099 46.0996 193.8 45.9996C193.4 45.9006 193.2 45.7006 193 45.4006C192.8 45.2006 192.599 44.9006 192.599 44.4996C192.5 44.2006 192.5 43.7996 192.5 43.2996C192.5 42.0996 192.8 41.2996 193.4 40.7006C194 40.2006 195 39.9006 196.2 39.9006H198.8V39.4006C198.8 39.0996 198.8 38.9006 198.7 38.5996C198.599 38.4006 198.5 38.2006 198.4 38.0996C198.2 37.9996 198 37.9006 197.8 37.7996C197.5 37.7006 197.2 37.7006 196.8 37.7006H196.2H195.5C195.3 37.7006 195 37.7006 194.8 37.7996C194.599 37.7996 194.3 37.7996 194.099 37.9006H193.7C193.599 37.9006 193.599 37.7996 193.5 37.5996L193.3 36.8996V36.5996C193.3 36.4996 193.5 36.3996 193.7 36.2996C193.9 36.2006 194.2 36.2006 194.5 36.0996C194.8 35.9996 195.099 35.9996 195.4 35.9996C195.7 35.9996 196 35.8996 196.3 35.8996H197.099C198 35.8996 198.7 35.9996 199.2 36.2006C199.7 36.3996 200.099 36.5996 200.4 36.8996C200.7 37.2006 200.8 37.5996 200.9 38.0996C201 38.5996 201 39.0996 201 39.5996V43.4996V43.9996C201 44.0996 201.099 44.2006 201.099 44.2996C201.099 44.4006 201.2 44.4006 201.3 44.4006C201.4 44.4006 201.5 44.4006 201.7 44.4996C201.8 44.4996 201.9 44.4996 202 44.5996C202.099 44.7006 202.099 44.7006 202.099 44.7996V45.5996C202.099 45.7996 201.9 45.9996 201.599 45.9996C201.4 45.9996 201.3 45.9996 201.099 46.0996H200.599C200.099 46.0996 199.8 45.9996 199.5 45.7996C199.099 45.7006 198.9 45.4006 198.8 44.9006V44.9006Z" fill="white"/>
<path fill-rule="evenodd" clip-rule="evenodd" d="M209.201 38.7998C209.401 38.7998 209.501 38.9008 209.501 39.0998V40.0998C209.501 40.2998 209.401 40.4008 209.201 40.4008H203.401C203.201 40.4008 203.1 40.2998 203.1 40.0998V39.0998C203.1 38.9008 203.201 38.7998 203.401 38.7998H209.201Z" fill="white"/>
<path fill-rule="evenodd" clip-rule="evenodd" d="M145.6 59.4004L147.1 57.4004L150.5 53.2004C150.6 53.0994 150.7 53.0004 150.8 53.0004C150.9 53.0004 151 52.9004 151.2 52.9004H153C153.1 52.9004 153.2 52.9004 153.3 53.0004C153.3 53.0994 153.3 53.2004 153.2 53.2994L148.8 58.5994L153.3 65.7994C153.4 65.9004 153.4 66.0004 153.3 66.0994C153.2 66.2004 153.2 66.2004 153.1 66.2004H151.3C151.1 66.2004 151 66.2004 150.9 66.0994C150.8 66.0004 150.7 65.9004 150.6 65.7994L147.3 60.2994L145.5 62.5004V66.0004C145.5 66.0994 145.5 66.2004 145.4 66.2994C145.4 66.4004 145.3 66.4004 145.1 66.4004H143.6C143.3 66.4004 143.2 66.2994 143.2 66.0004V53.4004C143.2 53.0994 143.3 53.0004 143.6 53.0004H145.1C145.2 53.0004 145.3 53.0004 145.4 53.0994C145.4 53.2004 145.5 53.2994 145.5 53.4004L145.6 59.4004Z" fill="white"/>
<path fill-rule="evenodd" clip-rule="evenodd" d="M161 61.4004C161 60.9004 161 60.4004 160.9 60.0004C160.8 59.5994 160.7 59.2994 160.6 59.0004C160.4 58.7004 160.2 58.5004 159.9 58.4004C159.6 58.2994 159.3 58.2004 158.8 58.2004C158.4 58.2004 158 58.2994 157.8 58.4004C157.6 58.5004 157.3 58.7004 157.2 59.0004C157 59.2994 156.9 59.5994 156.9 60.0004C156.8 60.4004 156.8 60.9004 156.8 61.4004C156.8 61.9004 156.8 62.4004 156.9 62.7994C157 63.2004 157.1 63.5004 157.2 63.7994C157.3 64.0994 157.6 64.2994 157.8 64.4004C158 64.5004 158.4 64.5994 158.8 64.5994C159.3 64.5994 159.6 64.5004 159.9 64.4004C160.2 64.2994 160.4 64.0994 160.6 63.7994C160.8 63.5004 160.9 63.2004 160.9 62.7994C161 62.4004 161 62.0004 161 61.4004M163.2 61.2994C163.2 61.9004 163.2 62.5004 163.1 63.0994C163 63.7004 162.8 64.2994 162.5 64.7994C162.2 65.2994 161.8 65.7004 161.2 66.0994C160.6 66.4004 159.8 66.5994 158.8 66.5994C157.8 66.5994 157 66.4004 156.4 66.0994C155.8 65.7994 155.4 65.4004 155.1 64.7994C154.8 64.2994 154.6 63.7004 154.6 63.0994C154.5 62.5004 154.5 61.9004 154.5 61.2994C154.5 60.7994 154.5 60.2994 154.6 59.7004C154.7 59.0994 154.9 58.5994 155.2 58.0994C155.5 57.5994 155.9 57.2004 156.5 56.7994C157.1 56.5004 157.8 56.2994 158.8 56.2994C159.8 56.2994 160.6 56.4004 161.1 56.7004C161.7 57.0004 162.1 57.4004 162.4 57.9004C162.7 58.4004 162.9 58.9004 163 59.5004C163.2 60.0994 163.2 60.7004 163.2 61.2994" fill="white"/>
<path fill-rule="evenodd" clip-rule="evenodd" d="M179.5 66.2998C179.5 66.4008 179.4 66.4008 179.2 66.4008H177.8C177.5 66.4008 177.4 66.2998 177.4 65.9998V60.2998C177.4 59.5998 177.3 58.9998 177.1 58.7998C176.9 58.4998 176.5 58.4008 176 58.4008C175.8 58.4008 175.6 58.4008 175.4 58.4998C175.2 58.5998 174.9 58.5998 174.7 58.6998C174.5 58.7998 174.2 58.9008 174 58.9998C173.8 59.0998 173.6 59.1998 173.4 59.2998V59.6998V60.2998V65.9998C173.4 66.0998 173.4 66.1998 173.3 66.2998C173.2 66.4008 173.1 66.4008 173 66.4008H171.5C171.3 66.4008 171.2 66.2998 171.2 65.9998V60.1998C171.2 59.5998 171.1 59.0998 170.9 58.7998C170.7 58.4998 170.4 58.4008 169.9 58.4008C169.7 58.4008 169.5 58.4008 169.3 58.4998C169.1 58.5998 168.9 58.5998 168.6 58.6998C168.4 58.7998 168.1 58.9008 167.9 58.9998C167.7 59.0998 167.5 59.1998 167.3 59.2998V65.9998C167.3 66.2998 167.2 66.4008 166.9 66.4008H165.5C165.3 66.4008 165.1 66.2998 165.1 65.9998V56.9008C165.1 56.5998 165.2 56.4998 165.5 56.4998H166.9C167.2 56.4998 167.3 56.5998 167.3 56.9008V57.4998C167.5 57.4008 167.7 57.1998 167.9 57.0998C168.1 56.9998 168.4 56.7998 168.6 56.6998C168.8 56.5998 169.1 56.4998 169.4 56.4008C169.7 56.2998 169.9 56.2998 170.2 56.2998C170.8 56.2998 171.3 56.4008 171.8 56.5998C172.3 56.7998 172.7 57.1998 173 57.6998C173.5 57.2998 174.1 56.9998 174.7 56.6998C175.3 56.4008 175.9 56.2998 176.6 56.2998C177.3 56.2998 177.8 56.4008 178.2 56.5998C178.6 56.7998 178.9 57.0998 179.1 57.4008C179.3 57.6998 179.4 58.0998 179.5 58.5998C179.6 59.0998 179.6 59.4998 179.6 59.9998V65.9998C179.6 66.0998 179.6 66.1998 179.5 66.2998" fill="white"/>
<path fill-rule="evenodd" clip-rule="evenodd" d="M196.099 66.2998C196.099 66.4008 195.999 66.4008 195.799 66.4008H194.4C194.099 66.4008 193.999 66.2998 193.999 65.9998V60.2998C193.999 59.5998 193.9 58.9998 193.7 58.7998C193.499 58.4998 193.099 58.4008 192.599 58.4008C192.4 58.4008 192.2 58.4008 191.999 58.4998C191.799 58.5998 191.499 58.5998 191.299 58.6998C191.099 58.7998 190.799 58.9008 190.599 58.9998C190.4 59.0998 190.2 59.1998 189.999 59.2998V59.6998V60.2998V65.9998C189.999 66.0998 189.999 66.1998 189.9 66.2998C189.799 66.4008 189.7 66.4008 189.599 66.4008H188.099C187.9 66.4008 187.799 66.2998 187.799 65.9998V60.1998C187.799 59.5998 187.7 59.0998 187.499 58.7998C187.299 58.4998 186.999 58.4008 186.499 58.4008C186.299 58.4008 186.099 58.4008 185.9 58.4998C185.7 58.5998 185.499 58.5998 185.2 58.6998C184.999 58.7998 184.7 58.9008 184.499 58.9998C184.299 59.0998 184.099 59.1998 183.9 59.2998V65.9998C183.9 66.2998 183.799 66.4008 183.499 66.4008H182.099C181.9 66.4008 181.7 66.2998 181.7 65.9998V56.9008C181.7 56.5998 181.799 56.4998 182.099 56.4998H183.499C183.799 56.4998 183.9 56.5998 183.9 56.9008V57.4998C184.099 57.4008 184.299 57.1998 184.499 57.0998C184.7 56.9998 184.999 56.7998 185.2 56.6998C185.4 56.5998 185.7 56.4998 185.999 56.4008C186.299 56.2998 186.499 56.2998 186.799 56.2998C187.4 56.2998 187.9 56.4008 188.4 56.5998C188.9 56.7998 189.299 57.1998 189.599 57.6998C190.099 57.2998 190.7 56.9998 191.299 56.6998C191.9 56.4008 192.499 56.2998 193.2 56.2998C193.9 56.2998 194.4 56.4008 194.799 56.5998C195.2 56.7998 195.499 57.0998 195.7 57.4008C195.9 57.6998 195.999 58.0998 196.099 58.5998C196.2 59.0998 196.2 59.4998 196.2 59.9998V65.9998C196.099 66.0998 196.099 66.1998 196.099 66.2998" fill="white"/>
<path fill-rule="evenodd" clip-rule="evenodd" d="M200.8 66C200.8 66.1 200.8 66.2 200.7 66.3C200.7 66.4 200.6 66.4 200.401 66.4H199C198.7 66.4 198.6 66.3 198.6 66V56.9C198.6 56.6 198.7 56.5 199 56.5H200.401C200.5 56.5 200.6 56.5 200.7 56.6C200.7 56.7 200.8 56.8 200.8 56.9V66ZM200.901 53.9V54.4C200.901 54.5 200.8 54.7 200.7 54.8C200.6 54.9 200.5 55 200.3 55.1C200.1 55.2 199.901 55.2 199.7 55.2C199.401 55.2 199.2 55.2 199.1 55.1C198.901 55 198.8 54.9 198.7 54.8C198.6 54.7 198.6 54.6 198.5 54.4V54C198.5 53.7 198.6 53.4 198.7 53.2C198.901 53 199.2 52.9 199.7 52.9C200.2 52.9 200.5 53 200.7 53.2C200.8 53.3 200.901 53.6 200.901 53.9V53.9Z" fill="white"/>
<path fill-rule="evenodd" clip-rule="evenodd" d="M210.599 63.4004C210.599 64.0004 210.499 64.5004 210.299 64.9004C210.099 65.2994 209.799 65.5994 209.4 65.9004C208.999 66.0994 208.599 66.2994 208.099 66.4004C207.599 66.5004 207.099 66.5994 206.599 66.5994C206.099 66.5994 205.499 66.5994 204.999 66.5004C204.4 66.4004 203.9 66.2994 203.499 66.2004C203.299 66.0994 203.2 66.0004 203.099 65.9004C202.999 65.7994 202.999 65.7004 203.099 65.5004L203.2 64.7994C203.2 64.5994 203.299 64.5004 203.4 64.5004H203.799C203.999 64.5004 204.299 64.5994 204.499 64.5994C204.799 64.5994 204.999 64.5994 205.299 64.7004C205.599 64.7004 205.799 64.7004 205.999 64.7994C206.2 64.9004 206.4 64.7994 206.599 64.7994C207.2 64.7994 207.7 64.7004 207.999 64.5004C208.299 64.2994 208.4 64.0004 208.4 63.5994C208.4 63.4004 208.4 63.2004 208.299 63.0004C208.2 62.7994 208.2 62.7004 208.099 62.5994C207.999 62.5004 207.799 62.4004 207.599 62.4004C207.4 62.2994 207.099 62.2994 206.799 62.2004C206.299 62.0994 205.799 62.0004 205.4 61.9004C204.999 61.7994 204.599 61.5994 204.2 61.4004C203.9 61.2004 203.599 60.9004 203.4 60.5994C203.2 60.2994 203.099 59.7994 203.099 59.2994C203.099 58.2994 203.4 57.5994 204.099 57.0004C204.799 56.5004 205.7 56.2004 206.799 56.2004H207.499C207.799 56.2004 207.999 56.2004 208.299 56.2994C208.599 56.4004 208.799 56.4004 209.099 56.4004C209.4 56.4004 209.599 56.5004 209.799 56.5994C210.099 56.7004 210.299 56.9004 210.2 57.2004L209.999 57.9004C209.999 58.0004 209.9 58.0994 209.799 58.2004H209.4C208.999 58.0994 208.499 58.0994 207.999 58.0004C207.499 58.0004 206.999 57.9004 206.7 57.9004C206.099 57.9004 205.599 58.0004 205.4 58.2004C205.2 58.4004 205.099 58.7004 205.099 59.0994C205.099 59.5004 205.2 59.7004 205.499 59.9004C205.799 60.0994 206.2 60.0994 206.799 60.2004C207.299 60.2994 207.7 60.4004 208.2 60.5004C208.599 60.5994 208.999 60.7994 209.4 61.0004C209.799 61.2004 209.999 61.5004 210.2 61.9004C210.499 62.2994 210.599 62.7994 210.599 63.4004" fill="white"/>
<path fill-rule="evenodd" clip-rule="evenodd" d="M219.8 63.4004C219.8 64.0004 219.7 64.5004 219.5 64.9004C219.3 65.2994 219 65.5994 218.6 65.9004C218.2 66.0994 217.8 66.2994 217.3 66.4004C216.8 66.5004 216.3 66.5994 215.8 66.5994C215.3 66.5994 214.7 66.5994 214.2 66.5004C213.6 66.4004 213.1 66.2994 212.7 66.2004C212.5 66.0994 212.401 66.0004 212.3 65.9004C212.2 65.7994 212.2 65.7004 212.3 65.5004L212.401 64.7994C212.401 64.5994 212.5 64.5004 212.6 64.5004H213C213.2 64.5004 213.5 64.5994 213.7 64.5994C214 64.5994 214.2 64.5994 214.5 64.7004C214.8 64.7004 215 64.7004 215.2 64.7994C215.401 64.9004 215.6 64.7994 215.8 64.7994C216.401 64.7994 216.901 64.7004 217.2 64.5004C217.5 64.2994 217.6 64.0004 217.6 63.5994C217.6 63.4004 217.6 63.2004 217.5 63.0004C217.401 62.7994 217.401 62.7004 217.3 62.5994C217.2 62.5004 217 62.4004 216.8 62.4004C216.6 62.2994 216.3 62.2994 216 62.2004C215.5 62.0994 215 62.0004 214.6 61.9004C214.2 61.7994 213.8 61.5994 213.401 61.4004C213.1 61.2004 212.8 60.9004 212.6 60.5994C212.401 60.2994 212.3 59.7994 212.3 59.2994C212.3 58.2994 212.6 57.5994 213.3 57.0004C214 56.5004 214.901 56.2004 216 56.2004H216.7C217 56.2004 217.2 56.2004 217.5 56.2994C217.8 56.4004 218 56.4004 218.3 56.4004C218.6 56.4004 218.8 56.5004 219 56.5994C219.3 56.7004 219.5 56.9004 219.401 57.2004L219.2 57.9004C219.2 58.0004 219.1 58.0994 219 58.2004H218.6C218.2 58.0994 217.7 58.0994 217.2 58.0004C216.7 58.0004 216.2 57.9004 215.901 57.9004C215.3 57.9004 214.8 58.0004 214.6 58.2004C214.401 58.4004 214.3 58.7004 214.3 59.0994C214.3 59.5004 214.401 59.7004 214.7 59.9004C215 60.0994 215.401 60.0994 216 60.2004C216.5 60.2994 216.901 60.4004 217.401 60.5004C217.8 60.5994 218.2 60.7994 218.6 61.0004C219 61.2004 219.2 61.5004 219.401 61.9004C219.7 62.2994 219.8 62.7994 219.8 63.4004" fill="white"/>
<path fill-rule="evenodd" clip-rule="evenodd" d="M224.099 66C224.099 66.1 224.099 66.2 223.999 66.3C223.9 66.4 223.9 66.4 223.7 66.4H222.299C221.999 66.4 221.9 66.3 221.9 66V56.9C221.9 56.6 221.999 56.5 222.299 56.5H223.7C223.799 56.5 223.9 56.5 223.999 56.6C224.099 56.7 224.099 56.8 224.099 56.9V66ZM224.299 53.9V54.4C224.299 54.6 224.2 54.7 224.099 54.8C223.999 54.9 223.9 55 223.7 55.1C223.499 55.2 223.299 55.2 223.099 55.2C222.799 55.2 222.599 55.2 222.499 55.1C222.299 55 222.2 54.9 222.099 54.8C221.999 54.7 221.999 54.6 221.9 54.4V54C221.9 53.7 221.999 53.4 222.099 53.2C222.299 53 222.599 52.9 223.099 52.9C223.599 52.9 223.9 53 224.099 53.2C224.2 53.3 224.299 53.6 224.299 53.9V53.9Z" fill="white"/>
<path fill-rule="evenodd" clip-rule="evenodd" d="M232.9 61.4004C232.9 60.9004 232.9 60.4004 232.799 60.0004C232.7 59.5994 232.599 59.2994 232.5 59.0004C232.299 58.7004 232.099 58.5004 231.799 58.4004C231.5 58.2994 231.2 58.2004 230.7 58.2004C230.299 58.2004 229.9 58.2994 229.7 58.4004C229.5 58.5004 229.2 58.7004 229.099 59.0004C228.9 59.2994 228.799 59.5994 228.799 60.0004C228.7 60.4004 228.7 60.9004 228.7 61.4004C228.7 61.9004 228.7 62.4004 228.799 62.7994C228.9 63.2004 229 63.5004 229.099 63.7994C229.2 64.0994 229.5 64.2994 229.7 64.4004C229.9 64.5004 230.299 64.5994 230.7 64.5994C231.2 64.5994 231.5 64.5004 231.799 64.4004C232.099 64.2994 232.299 64.0994 232.5 63.7994C232.7 63.5004 232.799 63.2004 232.799 62.7994C232.9 62.4004 232.9 62.0004 232.9 61.4004M235.099 61.2994C235.099 61.9004 235.099 62.5004 235 63.0994C234.9 63.7004 234.7 64.2994 234.4 64.7994C234.099 65.2994 233.7 65.7004 233.099 66.0994C232.5 66.4004 231.7 66.5994 230.7 66.5994C229.7 66.5994 228.9 66.4004 228.299 66.0994C227.7 65.7994 227.299 65.4004 227 64.7994C226.7 64.2994 226.5 63.7004 226.5 63.0994C226.4 62.5004 226.4 61.9004 226.4 61.2994C226.4 60.7994 226.4 60.2994 226.5 59.7004C226.599 59.0994 226.799 58.5994 227.099 58.0994C227.4 57.5994 227.799 57.2004 228.4 56.7994C229 56.5004 229.7 56.2994 230.7 56.2994C231.7 56.2994 232.5 56.4004 233 56.7004C233.599 57.0004 234 57.4004 234.299 57.9004C234.599 58.4004 234.799 58.9004 234.9 59.5004C235.099 60.0994 235.099 60.7004 235.099 61.2994" fill="white"/>
<path fill-rule="evenodd" clip-rule="evenodd" d="M245.6 66.2998C245.5 66.4008 245.401 66.4008 245.3 66.4008H243.8C243.5 66.4008 243.401 66.2998 243.401 65.9998V60.4008C243.401 59.7998 243.3 59.2998 243.1 58.9998C242.901 58.5998 242.5 58.4998 241.901 58.4998C241.701 58.4998 241.5 58.4998 241.201 58.5998C240.901 58.6998 240.701 58.7998 240.401 58.9008C240.1 58.9998 239.901 59.0998 239.701 59.1998C239.5 59.2998 239.3 59.4008 239.201 59.4998V65.9998C239.201 66.2998 239.1 66.4008 238.8 66.4008H237.401C237.1 66.4008 237 66.2998 237 65.9998V56.9008C237 56.5998 237.1 56.4998 237.401 56.4998H238.8C239.1 56.4998 239.201 56.5998 239.201 56.9008V57.4998C239.401 57.4008 239.6 57.1998 239.901 57.0998C240.201 56.9998 240.401 56.7998 240.701 56.6998C241 56.5998 241.3 56.4998 241.6 56.4008C241.901 56.2998 242.201 56.2998 242.5 56.2998C243.201 56.2998 243.701 56.4008 244.1 56.5998C244.5 56.7998 244.8 57.0998 245 57.4008C245.201 57.6998 245.3 58.1998 245.401 58.5998C245.5 59.0998 245.5 59.4998 245.5 60.0998V65.9998C245.6 66.0998 245.6 66.1998 245.6 66.2998" fill="white"/>
<path fill-rule="evenodd" clip-rule="evenodd" d="M251.8 58.0996C251.401 58.0996 251.1 58.2006 250.901 58.2996C250.7 58.4006 250.5 58.5996 250.3 58.7996C250.1 58.9996 250 59.2996 250 59.5996C249.901 59.9006 249.901 60.2006 249.901 60.5996H253.901C253.901 60.2996 253.901 59.9996 253.8 59.7006C253.7 59.4006 253.6 59.2006 253.5 58.9006C253.401 58.7006 253.2 58.4996 252.901 58.4006C252.6 58.2996 252.2 58.0996 251.8 58.0996V58.0996ZM249.8 61.9996C249.8 62.4996 249.901 62.9006 250 63.2996C250.1 63.5996 250.3 63.9006 250.5 64.0996C250.7 64.2996 250.901 64.4006 251.2 64.4996C251.5 64.5996 251.8 64.5996 252.3 64.5996C252.7 64.5996 253.1 64.5996 253.6 64.4996C254.1 64.4006 254.5 64.4006 254.901 64.4006H255.3C255.401 64.4006 255.401 64.4996 255.5 64.7006L255.6 65.4006V65.7996C255.6 65.9006 255.5 65.9996 255.3 66.0996C255.1 66.2006 254.901 66.2996 254.6 66.2996C254.3 66.2996 254.1 66.4006 253.8 66.4996C253.5 66.4996 253.2 66.5996 252.901 66.5996H252.1C251.1 66.5996 250.401 66.4996 249.8 66.2006C249.2 65.9006 248.8 65.4996 248.5 65.0996C248.2 64.5996 248 64.0996 247.901 63.4996C247.8 62.9006 247.7 62.2996 247.7 61.5996C247.7 61.0996 247.7 60.5996 247.8 59.9996C247.901 59.4006 248.1 58.7996 248.401 58.2996C248.7 57.7996 249.1 57.2996 249.7 56.9996C250.3 56.7006 251 56.4996 252 56.4996C252.901 56.4996 253.6 56.5996 254.2 56.9006C254.8 57.2006 255.2 57.4996 255.5 57.9006C255.8 58.2996 256 58.7996 256.1 59.2996C256.2 59.7996 256.3 60.4006 256.3 60.9006C256.3 61.2996 256.3 61.5996 256.1 61.7996C255.901 61.9996 255.7 62.0996 255.3 62.0996H249.8V61.9996Z" fill="white"/>
<path fill-rule="evenodd" clip-rule="evenodd" d="M266.3 66.2998C266.2 66.4008 266.1 66.4008 266 66.4008H264.5C264.2 66.4008 264.1 66.2998 264.1 65.9998V60.4008C264.1 59.7998 264 59.2998 263.8 58.9998C263.6 58.5998 263.2 58.4998 262.6 58.4998C262.401 58.4998 262.2 58.4998 261.901 58.5998C261.6 58.6998 261.401 58.7998 261.1 58.9008C260.8 58.9998 260.6 59.0998 260.401 59.1998C260.2 59.2998 260 59.4008 259.901 59.4998V65.9998C259.901 66.2998 259.8 66.4008 259.5 66.4008H258.1C257.8 66.4008 257.7 66.2998 257.7 65.9998V56.9008C257.7 56.5998 257.8 56.4998 258.1 56.4998H259.5C259.8 56.4998 259.901 56.5998 259.901 56.9008V57.4998C260.1 57.4008 260.3 57.1998 260.6 57.0998C260.901 56.9998 261.1 56.7998 261.401 56.6998C261.7 56.5998 262 56.4998 262.3 56.4008C262.6 56.2998 262.901 56.2998 263.2 56.2998C263.901 56.2998 264.401 56.4008 264.8 56.5998C265.2 56.7998 265.5 57.0998 265.7 57.4008C265.901 57.6998 266 58.1998 266.1 58.5998C266.2 59.0998 266.2 59.4998 266.2 60.0998V65.9998C266.401 66.0998 266.401 66.1998 266.3 66.2998" fill="white"/>
<path fill-rule="evenodd" clip-rule="evenodd" d="M275.2 66.7H278.5V28H275.2V66.7Z" fill="white"/>
</g>
</svg>
