<svg width="290" height="72" viewBox="0 0 290 72" fill="none" xmlns="http://www.w3.org/2000/svg">
<path fill-rule="evenodd" clip-rule="evenodd" d="M0 24.5C0 24.5 39.8 19.3 41 19.1C42.7 18.8 44.3 18.5 45.7 18.1C48.9 17.2 51.9 15.9 54.5 14.1C57 12.4 59.4 9.9 61.7 7.2C63.2 5.5 64.7 3.2 66.2 1V0C64.5 2.6 62.8 4.8 61.1 6.7C58.8 9.3 56.4 11.4 53.9 13C51.4 14.6 48.5 15.9 45.4 16.7C44 17.1 42.5 17.3 40.8 17.6C39.7 17.8 38.6 17.9 37.5 18C37 18 0 21.9 0 21.9V24.5Z" fill="white"/>
<mask id="mask0" style="mask-type:alpha" maskUnits="userSpaceOnUse" x="0" y="5" width="67" height="23">
<path fill-rule="evenodd" clip-rule="evenodd" d="M0 5.1998H66.0999V27.9998H0V5.1998Z" fill="white"/>
</mask>
<g mask="url(#mask0)">
<path fill-rule="evenodd" clip-rule="evenodd" d="M53.4 17.7998C50.9 19.1998 48 20.2998 44.8 20.8998C43.4 21.1998 42 21.3998 40.3 21.5998C39.3 21.6998 38.3 21.7998 37.3 21.8998C36.8 21.8998 36.2 21.9998 35.7 21.9998C23.5 23.1998 11.4 24.2998 0 25.3998V27.9998C11.4 26.5998 23.7 25.0998 35.9 23.6998C36.4 23.5998 37 23.5998 37.5 23.4998C38.5 23.3998 39.5 23.2998 40.5 23.0998C42.2 22.8998 43.8 22.5998 45.1 22.2998C48.4 21.5998 51.4 20.3998 54 18.7998C56.6 17.1998 58.8 15.0998 61.3 12.3998C62.8 10.6998 64.5 8.3998 66.1 6.1998V5.1998C64.2 7.6998 62.5 9.8998 60.7 11.6998C58.3 14.3998 55.9 16.3998 53.4 17.7998" fill="white"/>
</g>
<mask id="mask1" style="mask-type:alpha" maskUnits="userSpaceOnUse" x="0" y="10" width="67" height="22">
<path fill-rule="evenodd" clip-rule="evenodd" d="M0 10.9002H66.0999V31.5002H0V10.9002Z" fill="white"/>
</mask>
<g mask="url(#mask1)">
<path fill-rule="evenodd" clip-rule="evenodd" d="M60.4 17.2002C58 19.4002 55.4 21.2002 52.9 22.5002C50.4 23.7002 47.6 24.6002 44.3 25.1002C42.9 25.3002 41.5 25.5002 39.8 25.7002L0 28.9002V31.5002L35.3 27.7002L39.9 27.2002C41.6 27.0002 43.1 26.8002 44.5 26.5002C47.9 25.9002 50.8 24.9002 53.4 23.6002C56.1 22.2002 58.7 20.0002 61.2 17.6002C62.9 16.0002 64.4 13.9002 66.1 11.8002V10.9002C64.1 13.4002 62.3 15.4002 60.4 17.2002" fill="white"/>
</g>
<mask id="mask2" style="mask-type:alpha" maskUnits="userSpaceOnUse" x="0" y="21" width="67" height="18">
<path fill-rule="evenodd" clip-rule="evenodd" d="M0 21.7001H66.1998V38.5001H0V21.7001Z" fill="white"/>
</mask>
<g mask="url(#mask2)">
<path fill-rule="evenodd" clip-rule="evenodd" d="M50.8 30.6001C48.5 31.9001 46.8 32.7001 43.5 33.0001C41.5 33.2001 39.5 33.3001 37.5 33.4001C36.5 33.4001 35.6 33.5001 34.6 33.6001C28.6 33.9001 22.7 34.3001 16.7 34.7001L0 35.9001V38.5001L16.8 36.9001C22.2 36.4001 28.5 35.8001 34.7 35.3001L39.2 35.0001C40.9 34.9001 42.4 34.7001 43.7 34.5001C47.1 34.1001 50 33.4001 52.6 32.4001C55.4 31.4001 58 29.7001 60.6 27.8001C63 26.1001 66.2 22.7001 66.2 22.6001V21.7001C64.1 23.8001 62.8 25.0001 60.5 26.5001C57.6 28.5001 52.9 29.5001 50.8 30.6001" fill="white"/>
</g>
<path fill-rule="evenodd" clip-rule="evenodd" d="M51.6006 35.6001C49.1006 36.3001 46.3006 36.8001 43.0006 37.1001C41.7006 37.2001 40.2006 37.3001 38.6006 37.4001L34.2006 37.6001C23.2006 38.1001 12.2006 38.7001 0.100586 39.3001V41.9001C11.7006 41.0001 23.0006 40.1001 34.4006 39.3001L38.8006 39.0001C40.5006 38.9001 41.9006 38.8001 43.3006 38.6001C46.7006 38.2001 49.6006 37.6001 52.1006 36.8001C54.9006 35.9001 57.7006 34.6001 60.3006 32.9001C62.2006 31.7001 64.2006 30.2001 66.2006 28.4001C64.0006 30.3001 61.9006 30.7001 59.8006 32.0001C57.1006 33.6001 54.4006 34.8001 51.6006 35.6001" fill="white"/>
<path fill-rule="evenodd" clip-rule="evenodd" d="M51.2 39.9004C48.7 40.5004 45.9 40.9004 42.6 41.0994C41.3 41.2004 39.9 41.2994 38.2 41.2994L33.8 41.5004C22.7 41.9004 11.5 42.4004 0 42.9004V45.5004C11.4 44.7004 22.6 44.0004 33.9 43.2004L38.3 42.9004C40 42.7994 41.4 42.7004 42.7 42.5994C46.1 42.2994 48.9 41.7994 51.5 41.0994C54.4 40.2994 57.2 39.2004 59.9 37.7994C62 36.7004 64 35.4004 66.1 33.7994V32.7004C63.8 34.4004 61.6 35.7004 59.4 36.7994C56.8 38.2004 54 39.2004 51.2 39.9004" fill="white"/>
<mask id="mask3" style="mask-type:alpha" maskUnits="userSpaceOnUse" x="0" y="38" width="67" height="11">
<path fill-rule="evenodd" clip-rule="evenodd" d="M0 38.2006H66.1998V48.7996H0V38.2006Z" fill="white"/>
</mask>
<g mask="url(#mask3)">
<path fill-rule="evenodd" clip-rule="evenodd" d="M50.8 44.0996C48.3 44.5996 45.5 44.9006 42.2 44.9996C40.9 45.0996 39.6 45.0996 37.9 45.2006L0 46.2006V48.7996L33.6 46.9996L38 46.7996C39.7 46.7006 41.1 46.5996 42.4 46.4996C45.8 46.2006 48.5 45.9006 51.1 45.2996C54 44.7006 56.9 43.7996 59.6 42.5996C61.8 41.7006 63.9 40.5996 66.2 39.2006V38.2006C63.8 39.5996 61.5 40.7006 59.2 41.5996C56.5 42.7996 53.7 43.5996 50.8 44.0996" fill="white"/>
</g>
<path fill-rule="evenodd" clip-rule="evenodd" d="M50.5 48.2998C45.8 48.9008 41.1 48.9998 36.4 49.0998C35.3 49.0998 34.3 49.0998 33.2 49.1998L0 49.7998V52.4008L33.3 50.9998C34.4 50.9998 35.4 50.9008 36.5 50.9008C41.2 50.6998 46 50.4998 50.7 49.7998C53.7 49.2998 56.6 48.5998 59.2 47.6998C61.4 46.9998 63.7 45.9998 66 44.7998V43.7998C63.6 44.9008 61.1 45.9008 58.8 46.5998C56.3 47.2998 53.5 47.9998 50.5 48.2998" fill="white"/>
<mask id="mask4" style="mask-type:alpha" maskUnits="userSpaceOnUse" x="0" y="49" width="67" height="7">
<path fill-rule="evenodd" clip-rule="evenodd" d="M0 49.2006H66.1998V55.7996H0V49.2006Z" fill="white"/>
</mask>
<g mask="url(#mask4)">
<path fill-rule="evenodd" clip-rule="evenodd" d="M50.3 52.5996C45.9 52.9996 41.5 52.9996 37.1 52.9996H33.1C22.1 52.9996 11.1 53.0996 0 53.2006V55.7996C10.6 55.4006 21.9 55.0996 33.2 54.7006C34.5 54.7006 35.9 54.5996 37.2 54.5996C41.5 54.4996 46 54.4006 50.4 53.9006C53.5 53.5996 56.3 53.0996 59 52.4006C61.3 51.7996 63.7 50.9996 66.2 50.0996V49.2006C63.7 50.0996 61.2 50.7996 58.8 51.4006C56.1 51.9996 53.3 52.4006 50.3 52.5996" fill="white"/>
</g>
<path fill-rule="evenodd" clip-rule="evenodd" d="M50.1 56.7998C48.3 56.9008 46.3 56.9008 44.1 56.9008H41.6L33 56.7998C27.1 56.7998 21.3 56.6998 15.8 56.6998L0 56.7998V59.4008L15.9 58.9998C21.4 58.9008 27.2 58.6998 33 58.5998L41.6 58.4998C44 58.4998 47.1 58.4008 50.2 58.1998C53.3 57.9998 56.1 57.6998 58.8 57.2998C61.2 56.9008 63.7 56.4008 66.2 55.7998V54.9008C63.7 55.4998 61.1 55.9998 58.7 56.2998C55.9 56.4998 53.2 56.6998 50.1 56.7998" fill="white"/>
<path fill-rule="evenodd" clip-rule="evenodd" d="M41.5 60.9004L32.9 60.7994C22 60.5994 11.1 60.4004 0 60.2004V62.7994C10.6 62.7004 21.8 62.5994 32.9 62.5004L41.5 62.4004C44.4 62.4004 47.2 62.2994 50.1 62.2004C56 62.0004 61.2 61.5994 66.2 60.9004V60.0004C61.3 60.5004 56 60.7994 50.1 60.9004H41.5" fill="white"/>
<path fill-rule="evenodd" clip-rule="evenodd" d="M66.1 65.5L0 63.8V66.4H66.1V65.5Z" fill="white"/>
<path fill-rule="evenodd" clip-rule="evenodd" d="M60.2 22C57.7 24 55.7 25.5 52.7 26.7C50 27.8 47.1 28.2 43.9 28.7C41.8 29 39.6 29.4 37.5 29.6C36.6 29.7 35.8 29.7 34.9 29.8L0 32.3V34.9L34.9 31.5L39.4 31.1C41.1 30.9 42.6 30.8 44 30.5C47.4 30 50.3 29.1 52.9 27.9C55.6 26.7 58.4 24.7 60.9 22.6C62.6 21.1 64.3 19.3 66.1 17.3V16.4C63.9 18.6 62.1 20.5 60.2 22" fill="white"/>
<path fill-rule="evenodd" clip-rule="evenodd" d="M94.2002 0C94.2002 0 106.1 18.9 108.3 22.4C110.5 25.9 113 28.6 121.8 30.5C130.6 32.4 134.4 33.2 134.4 33.2V33.9C134.4 33.9 128.8 32.7 121.6 31.1C114.4 29.5 111.5 29 108.2 24.4C105.5 20.6 94.2002 4.5 94.2002 4.5V0Z" fill="white"/>
<path fill-rule="evenodd" clip-rule="evenodd" d="M94.2002 21.6001C94.2002 21.6001 105 32.9001 108.2 36.2001C111.5 39.7001 115.8 40.9001 121.7 42.0001C127.3 43.0001 134.4 44.2001 134.4 44.2001V44.8001C134.4 44.8001 127.7 43.7001 121.7 42.7001C115.8 41.7001 111.6 41.1001 108.2 38.0001C105.2 35.2001 94.3002 25.0001 94.3002 25.0001L94.2002 21.6001Z" fill="white"/>
<path fill-rule="evenodd" clip-rule="evenodd" d="M94.2002 26.7998C94.2002 26.7998 104.5 36.3998 108.2 39.5998C111.6 42.5998 114.3 43.4998 121.7 44.9008C129.1 46.1998 134.4 46.9998 134.4 46.9998V47.6998C134.4 47.6998 127.7 46.5998 121.7 45.5998C115.7 44.5998 111.8 44.2998 108.2 41.2998C104 37.9008 94.2002 29.8998 94.2002 29.8998V26.7998Z" fill="white"/>
<path fill-rule="evenodd" clip-rule="evenodd" d="M94.2002 32.2002C94.2002 32.2002 106 41.5002 108.2 43.2002C110.4 44.8002 113.3 46.7002 121.7 48.0002C130.1 49.2002 134.4 49.8002 134.4 49.8002V50.5002C134.4 50.5002 126.8 49.4002 121.7 48.8002C116.6 48.2002 112.7 47.9002 108.2 44.9002C103.8 42.0002 94.2002 35.2002 94.2002 35.2002V32.2002Z" fill="white"/>
<path fill-rule="evenodd" clip-rule="evenodd" d="M94.2002 37.4004C94.2002 37.4004 106 45.2994 108.2 46.5004C110.4 47.7004 113.1 49.7994 121.7 50.9004C130.3 52.0004 134.4 52.5004 134.4 52.5004V53.2004C134.4 53.2004 127.3 52.4004 121.7 51.7994C116.1 51.2004 112.3 50.4004 108.2 48.0994C104.1 45.7994 94.2002 40.0994 94.2002 40.0994V37.4004Z" fill="white"/>
<path fill-rule="evenodd" clip-rule="evenodd" d="M94.2002 42.7002C94.2002 42.7002 104.6 48.4002 108.2 50.0992C112.1 52.0992 115.5 53.0002 121.7 53.8002C127.8 54.5002 134.4 55.2002 134.4 55.2002V55.8002C134.4 55.8002 128.3 55.0992 121.7 54.5002C115.2 53.9002 112.9 53.5992 108.2 51.5002C104 49.5992 94.2002 45.0992 94.2002 45.0992V42.7002Z" fill="white"/>
<path fill-rule="evenodd" clip-rule="evenodd" d="M94.2006 48C94.2006 48 102.401 51.5 108.201 53.8C113.901 56.1 118.201 56.3 121.701 56.6C123.201 56.8 134.301 57.9 134.301 57.9V58.5C134.301 58.5 127.701 58 121.601 57.4C115.601 56.9 113.001 56.6 108.101 55C103.201 53.4 94.1006 50.2 94.1006 50.2L94.2006 48Z" fill="white"/>
<path fill-rule="evenodd" clip-rule="evenodd" d="M94.2002 53.4004C94.2002 53.4004 102.5 56.0004 108.2 57.5004C113.9 59.0004 119.1 59.5994 121.7 59.7994C124.3 60.0004 134.4 60.7994 134.4 60.7994V61.4004C134.4 61.4004 128.7 61.0004 121.7 60.5004C116 60.0994 111.5 59.7004 108.2 58.9004C104.5 58.0994 94.2002 55.5994 94.2002 55.5994V53.4004Z" fill="white"/>
<path fill-rule="evenodd" clip-rule="evenodd" d="M94.2002 58.7002C94.2002 58.7002 101 59.9002 108.2 61.0992C113.6 62.0002 120.9 62.5992 121.7 62.5992C122.5 62.5992 134.4 63.5002 134.4 63.5002V64.0992C134.4 64.0992 126.8 63.7002 121.7 63.4002C116.4 63.0992 111.2 62.8002 108.2 62.5002C101.5 61.8002 94.2002 60.9002 94.2002 60.9002V58.7002Z" fill="white"/>
<path fill-rule="evenodd" clip-rule="evenodd" d="M94.2002 64.2998C94.2002 64.2998 104.9 64.6998 108.2 64.7998C111.5 64.9008 134.4 65.7998 134.4 65.7998V66.4008H94.2002V64.2998Z" fill="white"/>
<path fill-rule="evenodd" clip-rule="evenodd" d="M121.7 33.3999C112 31.2999 109.8 27.7999 108.2 25.5999C106.6 23.3999 94.2998 5.3999 94.2998 5.3999V9.4999C94.7998 10.0999 105.3 23.8999 108.3 27.6999C111.6 31.9999 116.8 32.9999 121.8 33.9999C126.8 35.0999 134.5 36.5999 134.5 36.5999V35.9999C134.4 35.9999 124.2 33.9999 121.7 33.3999" fill="white"/>
<path fill-rule="evenodd" clip-rule="evenodd" d="M121.7 36.2998C113.7 34.6998 110.5 32.1998 108.2 29.1998C105.9 26.0998 94.2998 10.8998 94.2998 10.8998V14.6998C94.7998 15.2998 105.4 27.7998 108.2 31.0998C111.5 34.8998 116.1 35.8998 121.7 36.8998C127.3 37.9008 134.4 39.2998 134.4 39.2998V38.6998C134.4 38.6998 126.3 37.1998 121.7 36.2998" fill="white"/>
<path fill-rule="evenodd" clip-rule="evenodd" d="M121.7 39.2002C113.4 37.5992 111.7 36.3002 108.2 32.4002C106 30.0002 94.7002 16.7002 94.2002 16.1002V19.6002C94.2002 19.6002 104.7 30.8002 108.1 34.2002C112.5 38.5992 116.7 38.9002 121.6 39.8002C126.5 40.7002 134.3 42.0992 134.3 42.0992V41.5002C134.4 41.5002 125 39.9002 121.7 39.2002" fill="white"/>
<mask id="mask5" style="mask-type:alpha" maskUnits="userSpaceOnUse" x="0" y="0" width="233" height="70">
<path fill-rule="evenodd" clip-rule="evenodd" d="M0 70H232.5V0H0V70Z" fill="white"/>
</mask>
<g mask="url(#mask5)">
<path fill-rule="evenodd" clip-rule="evenodd" d="M27.5 66.3H85.4V27.6H27.5V66.3Z" fill="#004494" stroke="white" stroke-width="2"/>
<path fill-rule="evenodd" clip-rule="evenodd" d="M57.1004 33.1001H59.1004L57.5004 34.4001L58.1004 36.4001L56.5004 35.2001L54.9004 36.4001L55.5004 34.4001L53.9004 33.1001H55.9004L56.5004 31.1001L57.1004 33.1001Z" fill="#FFF100"/>
<path fill-rule="evenodd" clip-rule="evenodd" d="M57.1004 58.9004H59.1004L57.5004 60.0994L58.1004 62.0004L56.5004 60.7994L54.9004 62.0004L55.5004 60.0994L53.9004 58.9004H55.9004L56.5004 57.0004L57.1004 58.9004Z" fill="#FFF100"/>
<path fill-rule="evenodd" clip-rule="evenodd" d="M63.4998 57.2002H65.4998L63.8998 58.4002L64.4998 60.3002L62.8998 59.0992L61.2998 60.3002L61.8998 58.4002L60.2998 57.2002H62.2998L62.8998 55.3002L63.4998 57.2002Z" fill="#FFF100"/>
<path fill-rule="evenodd" clip-rule="evenodd" d="M63.5004 34.7998H65.5004L63.9004 35.9998L64.5004 37.9008L62.9004 36.6998L61.3004 37.9998L62.0004 35.9998L60.4004 34.7998H62.4004L63.0004 32.8998L63.5004 34.7998Z" fill="#FFF100"/>
<path fill-rule="evenodd" clip-rule="evenodd" d="M68.2996 39.5996H70.2996L68.6996 40.7996L69.2996 42.7006L67.6996 41.4996L66.0996 42.7006L66.6996 40.7996L65.0996 39.5996H67.0996L67.6996 37.7006L68.2996 39.5996Z" fill="#FFF100"/>
<path fill-rule="evenodd" clip-rule="evenodd" d="M68.2996 52.5996H70.2996L68.6996 53.7996L69.2996 55.7006L67.6996 54.4996L66.0996 55.7006L66.6996 53.7996L65.0996 52.5996H67.0996L67.6996 50.7006L68.2996 52.5996Z" fill="#FFF100"/>
<path fill-rule="evenodd" clip-rule="evenodd" d="M70.0998 46H72.0998L70.4998 47.2L71.0998 49.1L69.4998 47.9L67.8998 49.1L68.4998 47.2L66.7998 46H68.7998L69.3998 44.1L70.0998 46Z" fill="#FFF100"/>
<path fill-rule="evenodd" clip-rule="evenodd" d="M50.4998 34.7998H52.4998L50.8998 35.9998L51.4998 37.9008L49.9998 36.7998L48.2998 37.9998L48.8998 36.0998L47.2998 34.8998H49.2998L49.9998 32.9998L50.4998 34.7998Z" fill="#FFF100"/>
<path fill-rule="evenodd" clip-rule="evenodd" d="M45.9002 39.5996H47.9002L46.3002 40.7996L46.9002 42.7006L45.3002 41.4996L43.7002 42.7006L44.3002 40.7996L42.7002 39.5996H44.7002L45.3002 37.7006L45.9002 39.5996Z" fill="#FFF100"/>
<path fill-rule="evenodd" clip-rule="evenodd" d="M44.2 46H46.2L44.6 47.2L45.2 49.1L43.6 47.9L42 49.1L42.6 47.2L41 46H43L43.6 44.1L44.2 46Z" fill="#FFF100"/>
<path fill-rule="evenodd" clip-rule="evenodd" d="M45.9002 52.5996H47.9002L46.3002 53.7996L46.9002 55.7006L45.3002 54.4996L43.7002 55.7006L44.3002 53.7996L42.7002 52.5996H44.7002L45.3002 50.7006L45.9002 52.5996Z" fill="#FFF100"/>
<path fill-rule="evenodd" clip-rule="evenodd" d="M50.6004 57.2998H52.6004L51.0004 58.4998L51.6004 60.4008L50.0004 59.1998L48.4004 60.4008L49.0004 58.4998L47.4004 57.2998H49.4004L50.0004 55.4008L50.6004 57.2998Z" fill="#FFF100"/>
<path fill-rule="evenodd" clip-rule="evenodd" d="M143.2 39.5C143.2 38.6 143.3 37.8 143.4 37C143.5 36.2 143.8 35.4 144.2 34.8C144.6 34.2 145.1 33.6 145.8 33.2C146.5 32.8 147.4 32.6 148.599 32.6H149.4C149.7 32.6 150 32.7 150.4 32.7C150.7 32.7 151.099 32.8 151.4 32.9L152.3 33.2C152.5 33.3 152.599 33.3 152.599 33.4C152.599 33.5 152.7 33.6 152.7 33.8L152.5 34.6C152.5 34.7 152.4 34.8 152.4 34.9C152.3 35 152.2 35 152 34.9C151.5 34.8 151 34.8 150.4 34.7C149.8 34.6 149.3 34.6 148.8 34.6C148.099 34.6 147.599 34.7 147.2 35C146.8 35.3 146.5 35.6 146.2 36C146 36.4 145.8 37 145.8 37.5C145.8 38 145.7 38.7 145.7 39.4C145.7 40.1 145.7 40.7 145.8 41.2C145.9 41.8 146 42.3 146.3 42.7C146.5 43.1 146.8 43.5 147.3 43.7C147.7 43.9 148.2 44.1 148.9 44.1C149.5 44.1 150 44.1 150.5 44C151 43.9 151.5 43.9 152.099 43.8H152.5C152.599 43.9 152.599 43.9 152.7 44.1L152.9 44.9C153 45.2 152.9 45.4 152.599 45.5C152.4 45.6 152.099 45.7 151.7 45.8C151.4 45.9 151 45.9 150.7 46C150.4 46.1 150 46.1 149.7 46.1H148.8C147.7 46.1 146.8 45.9 146.099 45.5C145.4 45.1 144.8 44.6 144.5 44C144.1 43.4 143.8 42.7 143.7 41.9C143.3 41.2 143.2 40.4 143.2 39.5" fill="white"/>
<path fill-rule="evenodd" clip-rule="evenodd" d="M160.599 41.0996C160.599 40.5996 160.599 40.0996 160.499 39.7006C160.4 39.2996 160.299 38.9996 160.2 38.7006C159.999 38.4006 159.799 38.2006 159.499 38.0996C159.2 37.9996 158.9 37.9006 158.4 37.9006C157.999 37.9006 157.599 37.9996 157.4 38.0996C157.2 38.2006 156.9 38.4006 156.799 38.7006C156.599 38.9996 156.499 39.2996 156.499 39.7006C156.4 40.0996 156.4 40.5996 156.4 41.0996C156.4 41.5996 156.4 42.0996 156.499 42.4996C156.599 42.9006 156.7 43.2006 156.799 43.4996C156.9 43.7996 157.2 43.9996 157.4 44.0996C157.599 44.2006 157.999 44.2996 158.4 44.2996C158.9 44.2996 159.2 44.2006 159.499 44.0996C159.799 43.9996 159.999 43.7996 160.2 43.4996C160.4 43.2006 160.499 42.9006 160.499 42.4996C160.499 42.0996 160.599 41.7006 160.599 41.0996M162.9 40.9996C162.9 41.5996 162.9 42.2006 162.799 42.7996C162.7 43.4006 162.499 43.9996 162.2 44.4996C161.9 44.9996 161.499 45.4006 160.9 45.7996C160.299 46.0996 159.499 46.2996 158.499 46.2996C157.499 46.2996 156.7 46.0996 156.099 45.7996C155.499 45.4996 155.099 45.0996 154.799 44.4996C154.499 43.9996 154.299 43.4006 154.299 42.7996C154.2 42.2006 154.2 41.5996 154.2 40.9996C154.2 40.4996 154.2 39.9996 154.299 39.4006C154.4 38.7996 154.599 38.2996 154.9 37.7996C155.2 37.2996 155.599 36.8996 156.2 36.4996C156.799 36.2006 157.499 35.9996 158.499 35.9996C159.499 35.9996 160.299 36.0996 160.799 36.3996C161.4 36.7006 161.799 37.0996 162.099 37.5996C162.4 38.0996 162.599 38.5996 162.7 39.2006C162.799 39.7996 162.9 40.4006 162.9 40.9996" fill="white"/>
<path fill-rule="evenodd" clip-rule="evenodd" d="M179.2 46C179.2 46.1 179.099 46.1 178.9 46.1H177.5C177.2 46.1 177.099 46 177.099 45.7V40C177.099 39.3 177 38.7 176.8 38.5C176.599 38.2 176.2 38.1 175.7 38.1C175.5 38.1 175.3 38.1 175.099 38.2C174.9 38.3 174.599 38.3 174.4 38.4C174.2 38.5 173.9 38.6 173.7 38.7C173.5 38.8 173.3 38.9 173.099 39V39.4V40V45.7C173.099 45.8 173.099 45.9 173 46C172.9 46.1 172.8 46.1 172.7 46.1H171.2C171 46.1 170.9 46 170.9 45.7V39.9C170.9 39.3 170.8 38.8 170.599 38.5C170.4 38.2 170.099 38.1 169.599 38.1C169.4 38.1 169.2 38.1 169 38.2C168.8 38.3 168.599 38.3 168.3 38.4C168.099 38.5 167.8 38.6 167.599 38.7C167.4 38.8 167.2 38.9 167 39V45.7C167 46 166.9 46.1 166.599 46.1H165.2C165 46.1 164.8 46 164.8 45.7V36.6C164.8 36.3 164.9 36.2 165.2 36.2H166.599C166.9 36.2 167 36.3 167 36.6V37.2C167.2 37.1 167.4 36.9 167.599 36.8C167.8 36.7 168.099 36.5 168.3 36.4C168.5 36.3 168.8 36.2 169.099 36.1C169.4 36 169.599 36 169.9 36C170.5 36 171 36.1 171.5 36.3C172 36.5 172.4 36.9 172.7 37.4C173.2 37 173.8 36.7 174.4 36.4C175 36.1 175.599 36 176.3 36C177 36 177.5 36.1 177.9 36.3C178.3 36.5 178.599 36.8 178.8 37.1C179 37.4 179.099 37.8 179.2 38.3C179.3 38.8 179.3 39.2 179.3 39.7V45.6C179.2 45.8 179.2 45.9 179.2 46" fill="white"/>
<path fill-rule="evenodd" clip-rule="evenodd" d="M183.901 45.7002C183.901 45.8002 183.901 45.9002 183.8 46.0002C183.8 46.0992 183.701 46.0992 183.501 46.0992H182.1C181.8 46.0992 181.701 46.0002 181.701 45.7002V36.6002C181.701 36.3002 181.8 36.2002 182.1 36.2002H183.501C183.6 36.2002 183.701 36.2002 183.8 36.3002C183.8 36.4002 183.901 36.5002 183.901 36.6002V45.7002ZM184.001 33.6002V34.1002C184.001 34.2002 183.901 34.4002 183.8 34.5002C183.701 34.6002 183.6 34.7002 183.401 34.8002C183.201 34.9002 183.001 34.9002 182.8 34.9002C182.501 34.9002 182.3 34.9002 182.201 34.8002C182.001 34.7002 181.901 34.6002 181.8 34.5002C181.701 34.4002 181.701 34.3002 181.6 34.1002V33.7002C181.6 33.4002 181.701 33.1002 181.8 32.9002C182.001 32.7002 182.3 32.6002 182.8 32.6002C183.3 32.6002 183.6 32.7002 183.8 32.9002C183.901 33.0002 184.001 33.3002 184.001 33.6002V33.6002Z" fill="white"/>
<path fill-rule="evenodd" clip-rule="evenodd" d="M193.7 43.0996C193.7 43.7006 193.599 44.2006 193.4 44.5996C193.2 44.9996 192.9 45.2996 192.5 45.5996C192.099 45.7996 191.7 45.9996 191.2 46.0996C190.7 46.2006 190.2 46.2996 189.7 46.2996C189.2 46.2996 188.599 46.2996 188.099 46.2006C187.5 46.0996 187 45.9996 186.599 45.9006C186.4 45.7996 186.3 45.7006 186.2 45.5996C186.099 45.4996 186.099 45.4006 186.2 45.2006L186.3 44.4996C186.3 44.2996 186.4 44.2006 186.5 44.2006H186.9C187.099 44.2006 187.4 44.2996 187.599 44.2996C187.9 44.2996 188.099 44.2996 188.4 44.4006C188.7 44.4006 188.9 44.4006 189.099 44.4996C189.3 44.5996 189.5 44.4996 189.7 44.4996C190.3 44.4996 190.8 44.4006 191.099 44.2006C191.4 43.9996 191.5 43.7006 191.5 43.2996C191.5 43.0996 191.5 42.9006 191.4 42.7006C191.3 42.4996 191.3 42.4006 191.2 42.2996C191.099 42.2006 190.9 42.0996 190.7 42.0996C190.5 41.9996 190.2 41.9996 189.9 41.9006C189.4 41.7996 188.9 41.7006 188.5 41.5996C188.099 41.4996 187.7 41.2996 187.3 41.0996C187 40.9006 186.7 40.5996 186.5 40.2996C186.3 39.9996 186.2 39.4996 186.2 38.9996C186.2 37.9996 186.5 37.2996 187.2 36.7006C187.9 36.2006 188.8 35.8996 189.9 35.8996H190.599C190.9 35.8996 191.099 35.8996 191.4 35.9996C191.7 36.0996 191.9 36.0996 192.2 36.0996C192.5 36.0996 192.7 36.2006 192.9 36.2996C193.2 36.3996 193.4 36.5996 193.3 36.8996L193.099 37.5996C193.099 37.7006 193 37.7996 192.9 37.9006H192.5C192.099 37.7996 191.599 37.7996 191.099 37.7006C190.599 37.7006 190.099 37.5996 189.8 37.5996C189.2 37.5996 188.7 37.7006 188.5 37.9006C188.3 38.0996 188.2 38.4006 188.2 38.7996C188.2 39.2006 188.3 39.4006 188.599 39.5996C188.9 39.7996 189.3 39.7996 189.9 39.9006C190.4 39.9996 190.8 40.0996 191.3 40.2006C191.7 40.2996 192.099 40.4996 192.5 40.7006C192.9 40.9006 193.099 41.2006 193.3 41.5996C193.599 41.9996 193.7 42.4996 193.7 43.0996" fill="white"/>
<path fill-rule="evenodd" clip-rule="evenodd" d="M198 45.7002C198 45.8002 198 45.9002 197.9 46.0002C197.8 46.0992 197.8 46.0992 197.6 46.0992H196.2C195.9 46.0992 195.8 46.0002 195.8 45.7002V36.6002C195.8 36.3002 195.9 36.2002 196.2 36.2002H197.6C197.7 36.2002 197.8 36.2002 197.9 36.3002C198 36.4002 198 36.5002 198 36.6002V45.7002ZM198.2 33.6002V34.1002C198.2 34.3002 198.1 34.4002 198 34.5002C197.9 34.6002 197.8 34.7002 197.6 34.8002C197.4 34.9002 197.2 34.9002 197 34.9002C196.7 34.9002 196.5 34.9002 196.4 34.8002C196.2 34.7002 196.1 34.6002 196 34.5002C195.9 34.4002 195.9 34.3002 195.8 34.1002V33.7002C195.8 33.4002 195.9 33.1002 196 32.9002C196.2 32.7002 196.5 32.6002 197 32.6002C197.5 32.6002 197.8 32.7002 198 32.9002C198.1 33.0002 198.2 33.3002 198.2 33.6002V33.6002Z" fill="white"/>
<path fill-rule="evenodd" clip-rule="evenodd" d="M207.2 31.7998C207.4 31.8998 207.4 32.0998 207.3 32.1998L205.3 34.9998C205.2 35.0998 205.099 35.1998 204.9 35.0998L204.099 34.6998C204 34.5998 203.9 34.4998 204 34.2998L205.599 31.1998C205.7 30.9998 205.8 30.9998 206 31.0998L207.2 31.7998ZM206.8 41.0998C206.8 40.5998 206.8 40.0998 206.7 39.6998C206.599 39.2998 206.5 38.9998 206.4 38.6998C206.2 38.4008 206 38.1998 205.7 38.0998C205.4 37.9998 205.099 37.9008 204.599 37.9008C204.2 37.9008 203.8 37.9998 203.599 38.0998C203.4 38.1998 203.099 38.4008 203 38.6998C202.8 38.9998 202.7 39.2998 202.7 39.6998C202.599 40.0998 202.599 40.5998 202.599 41.0998C202.599 41.5998 202.599 42.0998 202.7 42.4998C202.8 42.9008 202.9 43.1998 203 43.4998C203.099 43.7998 203.4 43.9998 203.599 44.0998C203.8 44.1998 204.2 44.2998 204.599 44.2998C205.099 44.2998 205.4 44.1998 205.7 44.0998C206 43.9998 206.2 43.7998 206.4 43.4998C206.599 43.1998 206.7 42.9008 206.7 42.4998C206.8 42.0998 206.8 41.6998 206.8 41.0998V41.0998ZM209 40.9998C209 41.5998 209 42.1998 208.9 42.7998C208.8 43.4008 208.599 43.9998 208.3 44.4998C208 44.9998 207.599 45.4008 207 45.7998C206.4 46.0998 205.599 46.2998 204.599 46.2998C203.599 46.2998 202.8 46.0998 202.2 45.7998C201.599 45.4998 201.2 45.0998 200.9 44.4998C200.599 43.9998 200.4 43.4008 200.4 42.7998C200.3 42.1998 200.3 41.5998 200.3 40.9998C200.3 40.4998 200.3 39.9998 200.4 39.4008C200.5 38.7998 200.7 38.2998 201 37.7998C201.3 37.2998 201.7 36.8998 202.3 36.4998C202.9 36.1998 203.599 35.9998 204.599 35.9998C205.599 35.9998 206.4 36.0998 206.9 36.3998C207.5 36.6998 207.9 37.0998 208.2 37.5998C208.5 38.0998 208.7 38.5998 208.8 39.1998C209 39.7998 209 40.4008 209 40.9998V40.9998Z" fill="white"/>
<path fill-rule="evenodd" clip-rule="evenodd" d="M219.401 46C219.3 46.1 219.201 46.1 219.1 46.1H217.6C217.3 46.1 217.201 46 217.201 45.7V40.1C217.201 39.5 217.1 39 216.901 38.7C216.701 38.3 216.3 38.2 215.701 38.2C215.501 38.2 215.3 38.2 215.001 38.3C214.701 38.4 214.501 38.5 214.201 38.6C213.901 38.7 213.701 38.8 213.501 38.9C213.3 39 213.1 39.1 213.001 39.2V45.9C213.001 46.2 212.901 46.3 212.6 46.3H211.201C210.901 46.3 210.8 46.2 210.8 45.9V36.8C210.8 36.5 210.901 36.4 211.201 36.4H212.6C212.901 36.4 213.001 36.5 213.001 36.8V37.4C213.201 37.3 213.401 37.1 213.701 37C214.001 36.9 214.201 36.7 214.501 36.6C214.8 36.5 215.1 36.4 215.401 36.3C215.701 36.2 216.001 36.2 216.3 36.2C217.001 36.2 217.501 36.3 217.901 36.5C218.3 36.7 218.6 37 218.8 37.3C219.001 37.6 219.1 38.1 219.201 38.5C219.3 39 219.3 39.4 219.3 40V45.8C219.501 45.8 219.501 45.9 219.401 46" fill="white"/>
<path fill-rule="evenodd" clip-rule="evenodd" d="M143.4 53.4004C143.4 53.0994 143.5 53.0004 143.8 53.0004H151.2C151.5 53.0004 151.6 53.0994 151.6 53.4004V54.5994C151.6 54.7994 151.5 55.0004 151.2 55.0004H145.7V58.5004H150.6C150.9 58.5004 151 58.5994 151 58.9004V60.0994C151 60.2994 150.9 60.5004 150.6 60.5004H145.7V64.5004H151.3C151.5 64.5004 151.7 64.5994 151.7 64.9004V66.0004C151.7 66.2004 151.6 66.4004 151.3 66.4004H143.8C143.5 66.4004 143.4 66.2994 143.4 66.0004V53.4004Z" fill="white"/>
<path fill-rule="evenodd" clip-rule="evenodd" d="M161.8 66.4004H160.401C160.3 66.4004 160.2 66.4004 160.1 66.2994C160 66.2004 160 66.0994 160 66.0004V65.4004C159.8 65.5004 159.6 65.7004 159.3 65.7994C159 65.9004 158.8 66.0994 158.5 66.2004C158.2 66.2994 157.901 66.4004 157.6 66.5004C157.3 66.5994 157 66.5994 156.7 66.5994C156 66.5994 155.5 66.5004 155.1 66.2994C154.7 66.0994 154.401 65.9004 154.2 65.5004C154 65.2004 153.901 64.7994 153.8 64.2994C153.7 63.7994 153.7 63.4004 153.7 62.7994V56.9004C153.7 56.5994 153.8 56.5004 154.1 56.5004H155.6C155.8 56.5004 156 56.5994 156 56.9004V62.5004C156 62.7994 156 63.0994 156.1 63.2994C156.1 63.5004 156.2 63.7004 156.3 63.9004C156.401 64.0994 156.6 64.2004 156.7 64.2994C156.8 64.4004 157.1 64.4004 157.401 64.4004C157.6 64.4004 157.8 64.4004 158.1 64.2994C158.401 64.2004 158.6 64.0994 158.901 64.0004C159.2 63.9004 159.401 63.7994 159.6 63.7004C159.8 63.5994 160 63.5004 160.1 63.4004V56.7004C160.1 56.5994 160.1 56.5004 160.2 56.4004C160.3 56.2994 160.401 56.2994 160.5 56.2994H161.901C162.2 56.2994 162.3 56.4004 162.3 56.7004V66.0004C162.2 66.2004 162.1 66.4004 161.8 66.4004" fill="white"/>
<path fill-rule="evenodd" clip-rule="evenodd" d="M166.901 66C166.901 66.3 166.8 66.4 166.501 66.4H165.001C164.701 66.4 164.6 66.3 164.6 66V56.9C164.6 56.6 164.701 56.5 165.001 56.5H166.401C166.701 56.5 166.8 56.6 166.8 56.9V57.8C166.901 57.7 167.1 57.5 167.401 57.4C167.6 57.2 167.901 57.1 168.201 57C168.501 56.9 168.8 56.8 169.001 56.6C169.3 56.5 169.501 56.4 169.8 56.4H170.1C170.201 56.4 170.201 56.5 170.3 56.7L170.401 58V58.3C170.401 58.4 170.3 58.4 170.001 58.5C169.701 58.6 169.401 58.6 169.1 58.7C168.8 58.8 168.501 58.9 168.201 58.9C167.901 59 167.6 59.1 167.401 59.2C167.1 59.3 166.901 59.4 166.8 59.4L166.901 66Z" fill="white"/>
<path fill-rule="evenodd" clip-rule="evenodd" d="M177.9 61.4004C177.9 60.9004 177.9 60.4004 177.799 60.0004C177.7 59.5994 177.599 59.2994 177.5 59.0004C177.299 58.7004 177.099 58.5004 176.799 58.4004C176.5 58.2994 176.2 58.2004 175.7 58.2004C175.299 58.2004 174.9 58.2994 174.7 58.4004C174.5 58.5004 174.2 58.7004 174.099 59.0004C173.9 59.2994 173.799 59.5994 173.799 60.0004C173.7 60.4004 173.7 60.9004 173.7 61.4004C173.7 61.9004 173.7 62.4004 173.799 62.7994C173.9 63.2004 174 63.5004 174.099 63.7994C174.2 64.0994 174.5 64.2994 174.7 64.4004C174.9 64.5004 175.299 64.5994 175.7 64.5994C176.2 64.5994 176.5 64.5004 176.799 64.4004C177.099 64.2994 177.299 64.0994 177.5 63.7994C177.7 63.5004 177.799 63.2004 177.799 62.7994C177.9 62.4004 177.9 62.0004 177.9 61.4004M180.2 61.2994C180.2 61.9004 180.2 62.5004 180.099 63.0994C180 63.7004 179.799 64.2994 179.5 64.7994C179.2 65.2994 178.799 65.7004 178.2 66.0994C177.599 66.4004 176.799 66.5994 175.799 66.5994C174.799 66.5994 174 66.4004 173.4 66.0994C172.799 65.7994 172.4 65.4004 172.099 64.7994C171.799 64.2994 171.599 63.7004 171.599 63.0994C171.5 62.5004 171.5 61.9004 171.5 61.2994C171.5 60.7994 171.5 60.2994 171.599 59.7004C171.7 59.0994 171.9 58.5994 172.2 58.0994C172.5 57.5994 172.9 57.2004 173.5 56.7994C174.099 56.5004 174.799 56.2994 175.799 56.2994C176.799 56.2994 177.599 56.4004 178.099 56.7004C178.7 57.0004 179.099 57.4004 179.4 57.9004C179.7 58.4004 179.9 58.9004 180 59.5004C180.099 60.0994 180.2 60.7004 180.2 61.2994" fill="white"/>
<path fill-rule="evenodd" clip-rule="evenodd" d="M188.5 61.4004C188.5 60.7994 188.5 60.2004 188.4 59.9004C188.3 59.5994 188.2 59.2004 188.1 59.0004C188 58.7994 187.8 58.5994 187.6 58.5994C187.4 58.5004 187.2 58.5004 186.9 58.5004C186.7 58.5004 186.5 58.5004 186.2 58.5994C185.9 58.7004 185.7 58.7004 185.4 58.7994C185.2 58.9004 184.9 59.0004 184.7 59.0994C184.5 59.2004 184.3 59.2994 184.1 59.4004V64.4004C184.6 64.5004 185 64.5994 185.3 64.7004C185.6 64.7994 186 64.7994 186.4 64.7994C186.8 64.7994 187.1 64.7004 187.3 64.5994C187.5 64.5004 187.7 64.2994 187.9 64.0994C188.1 63.7994 188.2 63.5004 188.2 63.0994C188.5 62.5004 188.5 62.0004 188.5 61.4004M190.8 61.4004C190.8 62.2004 190.7 62.9004 190.6 63.5994C190.5 64.2004 190.3 64.7994 190 65.2004C189.7 65.5994 189.3 66.0004 188.8 66.2004C188.3 66.4004 187.6 66.5004 186.8 66.5004C186.5 66.5004 186.1 66.5004 185.6 66.4004C185.2 66.2994 184.7 66.2004 184.2 66.0994V69.5994C184.2 69.7004 184.2 69.7994 184.1 69.9004C184 70.0004 183.9 70.0004 183.8 70.0004H182.4C182.2 70.0004 182.1 70.0004 182.1 69.9004C182.1 69.7994 182 69.7004 182 69.5994V56.9004C182 56.5994 182.1 56.5004 182.4 56.5004H183.8C183.9 56.5004 184 56.5004 184.1 56.5994C184.2 56.7004 184.2 56.7994 184.2 56.9004V57.5004H184.3C184.5 57.4004 184.7 57.2994 184.9 57.0994C185.1 57.0004 185.4 56.7994 185.7 56.7004C186 56.5994 186.3 56.5004 186.6 56.4004C186.9 56.2994 187.2 56.2994 187.5 56.2994C188.2 56.2994 188.7 56.4004 189.1 56.7004C189.5 56.9004 189.9 57.2994 190.1 57.7004C190.3 58.0994 190.5 58.7004 190.6 59.2994C190.8 59.9004 190.8 60.5994 190.8 61.4004" fill="white"/>
<path fill-rule="evenodd" clip-rule="evenodd" d="M196.701 58.0996C196.301 58.0996 196.001 58.2006 195.801 58.2996C195.6 58.4006 195.401 58.5996 195.201 58.7996C195.001 58.9996 194.901 59.2996 194.901 59.5996C194.801 59.9006 194.801 60.2006 194.801 60.5996H198.801C198.801 60.2996 198.801 59.9996 198.701 59.7006C198.6 59.4006 198.501 59.2006 198.401 58.9006C198.301 58.5996 198.1 58.4996 197.801 58.4006C197.401 58.2006 197.1 58.0996 196.701 58.0996V58.0996ZM194.701 61.9996C194.701 62.4996 194.801 62.9006 194.901 63.2996C195.001 63.5996 195.201 63.9006 195.401 64.0996C195.6 64.2996 195.801 64.4006 196.1 64.4996C196.401 64.5996 196.701 64.5996 197.201 64.5996C197.6 64.5996 198.001 64.5996 198.501 64.4996C199.001 64.4006 199.401 64.4006 199.801 64.4006H200.201C200.301 64.4006 200.301 64.4996 200.401 64.7006L200.501 65.4006V65.7996C200.501 65.9006 200.401 65.9996 200.201 66.0996C200.001 66.2006 199.801 66.2996 199.501 66.2996C199.201 66.2996 199.001 66.4006 198.701 66.4996C198.401 66.5996 198.1 66.5996 197.801 66.5996H197.001C196.001 66.5996 195.301 66.4996 194.701 66.2006C194.1 65.9006 193.701 65.4996 193.401 65.0996C193.1 64.5996 192.901 64.0996 192.801 63.4996C192.701 62.9006 192.6 62.2996 192.6 61.5996C192.6 61.0996 192.6 60.5996 192.701 59.9996C192.801 59.4006 193.001 58.7996 193.301 58.2996C193.6 57.7996 194.001 57.2996 194.6 56.9996C195.201 56.5996 195.901 56.4996 196.901 56.4996C197.801 56.4996 198.501 56.5996 199.1 56.9006C199.701 57.2006 200.1 57.4996 200.401 57.9006C200.701 58.2996 200.901 58.7996 201.001 59.2996C201.1 59.7996 201.201 60.4006 201.201 60.9006C201.201 61.2996 201.201 61.5996 201.001 61.7996C200.801 61.9996 200.401 61.9996 200.001 61.9996H194.701Z" fill="white"/>
<path fill-rule="evenodd" clip-rule="evenodd" d="M208.9 61.9004H206.5C206 61.9004 205.599 62.0004 205.299 62.2994C205 62.5004 204.9 63.0004 204.9 63.5994C204.9 64.0004 205 64.2994 205.2 64.5004C205.4 64.7004 205.7 64.7994 206.2 64.7994C206.4 64.7994 206.599 64.7994 206.9 64.7004C207.2 64.5994 207.4 64.5994 207.7 64.5004C208 64.4004 208.2 64.2994 208.4 64.2004C208.599 64.0994 208.9 64.0004 209 63.9004V61.9004H208.9ZM209 65.2004C208.5 65.5994 207.9 65.9004 207.299 66.0994C206.7 66.2994 206 66.5004 205.299 66.5004C204.799 66.5004 204.299 66.4004 204 66.2994C203.599 66.2004 203.4 66.0004 203.2 65.7004C203 65.5004 202.799 65.2004 202.799 64.7994C202.7 64.5004 202.7 64.0994 202.7 63.5994C202.7 62.4004 203 61.5994 203.599 61.0004C204.2 60.5004 205.2 60.2004 206.4 60.2004H209V59.7004C209 59.4004 209 59.2004 208.9 58.9004C208.799 58.7004 208.7 58.5004 208.599 58.4004C208.4 58.2994 208.2 58.2004 208 58.0994C207.7 58.0004 207.4 58.0004 207 58.0004H206.4H205.7C205.5 58.0004 205.2 58.0004 205 58.0994C204.799 58.0994 204.5 58.0994 204.299 58.2004H203.9C203.799 58.2004 203.799 58.0994 203.7 57.9004L203.5 57.2004V56.9004C203.599 56.7994 203.7 56.7004 203.9 56.5994C204.099 56.5004 204.4 56.5004 204.7 56.4004C205 56.2994 205.299 56.2994 205.599 56.2994C205.9 56.2994 206.2 56.2004 206.5 56.2004H207.299C208.2 56.2004 208.9 56.2994 209.4 56.5004C209.9 56.7004 210.299 56.9004 210.599 57.2004C210.9 57.5004 211 57.9004 211.099 58.4004C211.2 58.9004 211.2 59.4004 211.2 59.9004V63.7994V64.2994C211.2 64.4004 211.299 64.5004 211.299 64.5994C211.299 64.7004 211.4 64.7004 211.5 64.7004C211.599 64.7004 211.7 64.7004 211.9 64.7994C212 64.7994 212.099 64.7994 212.2 64.9004C212.299 64.9004 212.299 65.0004 212.299 65.0994V65.9004C212.299 66.0994 212.099 66.2994 211.799 66.2994C211.599 66.2994 211.5 66.2994 211.299 66.4004H210.799C210.299 66.4004 210 66.2994 209.7 66.0994C209.299 66.0004 209.099 65.7004 209 65.2004V65.2004Z" fill="white"/>
<path fill-rule="evenodd" clip-rule="evenodd" d="M229.2 66.7H232.5V28H229.2V66.7Z" fill="white"/>
</g>
</svg>
