<svg width="290" height="76" viewBox="0 0 290 76" fill="none" xmlns="http://www.w3.org/2000/svg">
<path fill-rule="evenodd" clip-rule="evenodd" d="M0 24.5C0 24.5 39.8 19.3 41 19.1C42.7 18.8 44.3 18.5 45.7 18.1C48.9 17.2 51.9 15.9 54.5 14.1C57 12.4 59.4 9.9 61.7 7.2C63.2 5.5 64.7 3.2 66.2 1V0C64.5 2.6 62.8 4.8 61.1 6.7C58.8 9.3 56.4 11.4 53.9 13C51.4 14.6 48.5 15.9 45.4 16.7C44 17.1 42.5 17.3 40.8 17.6C39.7 17.8 38.6 17.9 37.5 18C37 18 0 21.9 0 21.9V24.5Z" fill="white"/>
<mask id="mask0" style="mask-type:alpha" maskUnits="userSpaceOnUse" x="0" y="5" width="67" height="23">
<path fill-rule="evenodd" clip-rule="evenodd" d="M0 5.19971H66.0999V27.9997H0V5.19971Z" fill="white"/>
</mask>
<g mask="url(#mask0)">
<path fill-rule="evenodd" clip-rule="evenodd" d="M53.4 17.7997C50.9 19.1997 48 20.2997 44.8 20.8997C43.4 21.1997 42 21.3997 40.3 21.5997C39.3 21.6997 38.3 21.7997 37.3 21.8997C36.8 21.8997 36.2 21.9997 35.7 21.9997C23.5 23.1997 11.4 24.2997 0 25.3997V27.9997C11.4 26.5997 23.7 25.0997 35.9 23.6997C36.4 23.5997 37 23.5997 37.5 23.4997C38.5 23.3997 39.5 23.2997 40.5 23.0997C42.2 22.8997 43.8 22.5997 45.1 22.2997C48.4 21.5997 51.4 20.3997 54 18.7997C56.6 17.1997 58.8 15.0997 61.3 12.3997C62.8 10.6997 64.5 8.39971 66.1 6.19971V5.19971C64.2 7.69971 62.5 9.89971 60.7 11.6997C58.3 14.3997 55.9 16.3997 53.4 17.7997" fill="white"/>
</g>
<mask id="mask1" style="mask-type:alpha" maskUnits="userSpaceOnUse" x="0" y="10" width="67" height="22">
<path fill-rule="evenodd" clip-rule="evenodd" d="M0 10.9001H66.0999V31.5001H0V10.9001Z" fill="white"/>
</mask>
<g mask="url(#mask1)">
<path fill-rule="evenodd" clip-rule="evenodd" d="M60.4 17.2001C58 19.4001 55.4 21.2001 52.9 22.5001C50.4 23.7001 47.6 24.6001 44.3 25.1001C42.9 25.3001 41.5 25.5001 39.8 25.7001L0 28.9001V31.5001L35.3 27.7001L39.9 27.2001C41.6 27.0001 43.1 26.8001 44.5 26.5001C47.9 25.9001 50.8 24.9001 53.4 23.6001C56.1 22.2001 58.7 20.0001 61.2 17.6001C62.9 16.0001 64.4 13.9001 66.1 11.8001V10.9001C64.1 13.4001 62.3 15.4001 60.4 17.2001" fill="white"/>
</g>
<mask id="mask2" style="mask-type:alpha" maskUnits="userSpaceOnUse" x="0" y="21" width="67" height="18">
<path fill-rule="evenodd" clip-rule="evenodd" d="M0 21.7002H66.1998V38.5002H0V21.7002Z" fill="white"/>
</mask>
<g mask="url(#mask2)">
<path fill-rule="evenodd" clip-rule="evenodd" d="M50.8 30.6002C48.5 31.9002 46.8 32.7002 43.5 33.0002C41.5 33.2002 39.5 33.3002 37.5 33.4002C36.5 33.4002 35.6 33.5002 34.6 33.6002C28.6 33.9002 22.7 34.3002 16.7 34.7002L0 35.9002V38.5002L16.8 36.9002C22.2 36.4002 28.5 35.8002 34.7 35.3002L39.2 35.0002C40.9 34.9002 42.4 34.7002 43.7 34.5002C47.1 34.1002 50 33.4002 52.6 32.4002C55.4 31.4002 58 29.7002 60.6 27.8002C63 26.1002 66.2 22.7002 66.2 22.6002V21.7002C64.1 23.8002 62.8 25.0002 60.5 26.5002C57.6 28.5002 52.9 29.5002 50.8 30.6002" fill="white"/>
</g>
<path fill-rule="evenodd" clip-rule="evenodd" d="M51.6006 35.6001C49.1006 36.3001 46.3006 36.8001 43.0006 37.1001C41.7006 37.2001 40.2006 37.3001 38.6006 37.4001L34.2006 37.6001C23.2006 38.1001 12.2006 38.7001 0.100586 39.3001V41.9001C11.7006 41.0001 23.0006 40.1001 34.4006 39.3001L38.8006 39.0001C40.5006 38.9001 41.9006 38.8001 43.3006 38.6001C46.7006 38.2001 49.6006 37.6001 52.1006 36.8001C54.9006 35.9001 57.7006 34.6001 60.3006 32.9001C62.2006 31.7001 64.2006 30.2001 66.2006 28.4001C64.0006 30.3001 61.9006 30.7001 59.8006 32.0001C57.1006 33.6001 54.4006 34.8001 51.6006 35.6001" fill="white"/>
<path fill-rule="evenodd" clip-rule="evenodd" d="M51.2 39.9004C48.7 40.5004 45.9 40.9004 42.6 41.0994C41.3 41.2004 39.9 41.2994 38.2 41.2994L33.8 41.5004C22.7 41.9004 11.5 42.4004 0 42.9004V45.5004C11.4 44.7004 22.6 44.0004 33.9 43.2004L38.3 42.9004C40 42.7994 41.4 42.7004 42.7 42.5994C46.1 42.2994 48.9 41.7994 51.5 41.0994C54.4 40.2994 57.2 39.2004 59.9 37.7994C62 36.7004 64 35.4004 66.1 33.7994V32.7004C63.8 34.4004 61.6 35.7004 59.4 36.7994C56.8 38.2004 54 39.2004 51.2 39.9004" fill="white"/>
<mask id="mask3" style="mask-type:alpha" maskUnits="userSpaceOnUse" x="0" y="38" width="67" height="11">
<path fill-rule="evenodd" clip-rule="evenodd" d="M0 38.2007H66.1998V48.7997H0V38.2007Z" fill="white"/>
</mask>
<g mask="url(#mask3)">
<path fill-rule="evenodd" clip-rule="evenodd" d="M50.8 44.0997C48.3 44.5997 45.5 44.9007 42.2 44.9997C40.9 45.0997 39.6 45.0997 37.9 45.2007L0 46.2007V48.7997L33.6 46.9997L38 46.7997C39.7 46.7007 41.1 46.5997 42.4 46.4997C45.8 46.2007 48.5 45.9007 51.1 45.2997C54 44.7007 56.9 43.7997 59.6 42.5997C61.8 41.7007 63.9 40.5997 66.2 39.2007V38.2007C63.8 39.5997 61.5 40.7007 59.2 41.5997C56.5 42.7997 53.7 43.5997 50.8 44.0997" fill="white"/>
</g>
<path fill-rule="evenodd" clip-rule="evenodd" d="M50.5 48.2998C45.8 48.9008 41.1 48.9998 36.4 49.0998C35.3 49.0998 34.3 49.0998 33.2 49.1998L0 49.7998V52.4008L33.3 50.9998C34.4 50.9998 35.4 50.9008 36.5 50.9008C41.2 50.6998 46 50.4998 50.7 49.7998C53.7 49.2998 56.6 48.5998 59.2 47.6998C61.4 46.9998 63.7 45.9998 66 44.7998V43.7998C63.6 44.9008 61.1 45.9008 58.8 46.5998C56.3 47.2998 53.5 47.9998 50.5 48.2998" fill="white"/>
<mask id="mask4" style="mask-type:alpha" maskUnits="userSpaceOnUse" x="0" y="49" width="67" height="7">
<path fill-rule="evenodd" clip-rule="evenodd" d="M0 49.2007H66.1998V55.7997H0V49.2007Z" fill="white"/>
</mask>
<g mask="url(#mask4)">
<path fill-rule="evenodd" clip-rule="evenodd" d="M50.3 52.5997C45.9 52.9997 41.5 52.9997 37.1 52.9997H33.1C22.1 52.9997 11.1 53.0997 0 53.2007V55.7997C10.6 55.4007 21.9 55.0997 33.2 54.7007C34.5 54.7007 35.9 54.5997 37.2 54.5997C41.5 54.4997 46 54.4007 50.4 53.9007C53.5 53.5997 56.3 53.0997 59 52.4007C61.3 51.7997 63.7 50.9997 66.2 50.0997V49.2007C63.7 50.0997 61.2 50.7997 58.8 51.4007C56.1 51.9997 53.3 52.4007 50.3 52.5997" fill="white"/>
</g>
<path fill-rule="evenodd" clip-rule="evenodd" d="M50.1 56.7999C48.3 56.9009 46.3 56.9009 44.1 56.9009H41.6L33 56.7999C27.1 56.7999 21.3 56.6999 15.8 56.6999L0 56.7999V59.4009L15.9 58.9999C21.4 58.9009 27.2 58.6999 33 58.5999L41.6 58.4999C44 58.4999 47.1 58.4009 50.2 58.1999C53.3 57.9999 56.1 57.6999 58.8 57.2999C61.2 56.9009 63.7 56.4009 66.2 55.7999V54.9009C63.7 55.4999 61.1 55.9999 58.7 56.2999C55.9 56.4999 53.2 56.6999 50.1 56.7999" fill="white"/>
<path fill-rule="evenodd" clip-rule="evenodd" d="M41.5 60.9005L32.9 60.7995C22 60.5995 11.1 60.4005 0 60.2005V62.7995C10.6 62.7005 21.8 62.5995 32.9 62.5005L41.5 62.4005C44.4 62.4005 47.2 62.2995 50.1 62.2005C56 62.0005 61.2 61.5995 66.2 60.9005V60.0005C61.3 60.5005 56 60.7995 50.1 60.9005H41.5" fill="white"/>
<path fill-rule="evenodd" clip-rule="evenodd" d="M66.1 65.5L0 63.8V66.4H66.1V65.5Z" fill="white"/>
<path fill-rule="evenodd" clip-rule="evenodd" d="M60.2 21.9999C57.7 23.9999 55.7 25.4999 52.7 26.6999C50 27.7999 47.1 28.1999 43.9 28.6999C41.8 28.9999 39.6 29.3999 37.5 29.5999C36.6 29.6999 35.8 29.6999 34.9 29.7999L0 32.2999V34.8999L34.9 31.4999L39.4 31.0999C41.1 30.8999 42.6 30.7999 44 30.4999C47.4 29.9999 50.3 29.0999 52.9 27.8999C55.6 26.6999 58.4 24.6999 60.9 22.5999C62.6 21.0999 64.3 19.2999 66.1 17.2999V16.3999C63.9 18.5999 62.1 20.4999 60.2 21.9999" fill="white"/>
<path fill-rule="evenodd" clip-rule="evenodd" d="M94.2002 0C94.2002 0 106.1 18.9 108.3 22.4C110.5 25.9 113 28.6 121.8 30.5C130.6 32.4 134.4 33.2 134.4 33.2V33.9C134.4 33.9 128.8 32.7 121.6 31.1C114.4 29.5 111.5 29 108.2 24.4C105.5 20.6 94.2002 4.5 94.2002 4.5V0Z" fill="white"/>
<path fill-rule="evenodd" clip-rule="evenodd" d="M94.2002 21.6001C94.2002 21.6001 105 32.9001 108.2 36.2001C111.5 39.7001 115.8 40.9001 121.7 42.0001C127.3 43.0001 134.4 44.2001 134.4 44.2001V44.8001C134.4 44.8001 127.7 43.7001 121.7 42.7001C115.8 41.7001 111.6 41.1001 108.2 38.0001C105.2 35.2001 94.3002 25.0001 94.3002 25.0001L94.2002 21.6001Z" fill="white"/>
<path fill-rule="evenodd" clip-rule="evenodd" d="M94.2002 26.7998C94.2002 26.7998 104.5 36.3998 108.2 39.5998C111.6 42.5998 114.3 43.4998 121.7 44.9008C129.1 46.1998 134.4 46.9998 134.4 46.9998V47.6998C134.4 47.6998 127.7 46.5998 121.7 45.5998C115.7 44.5998 111.8 44.2998 108.2 41.2998C104 37.9008 94.2002 29.8998 94.2002 29.8998V26.7998Z" fill="white"/>
<path fill-rule="evenodd" clip-rule="evenodd" d="M94.2002 32.2002C94.2002 32.2002 106 41.5002 108.2 43.2002C110.4 44.8002 113.3 46.7002 121.7 48.0002C130.1 49.2002 134.4 49.8002 134.4 49.8002V50.5002C134.4 50.5002 126.8 49.4002 121.7 48.8002C116.6 48.2002 112.7 47.9002 108.2 44.9002C103.8 42.0002 94.2002 35.2002 94.2002 35.2002V32.2002Z" fill="white"/>
<path fill-rule="evenodd" clip-rule="evenodd" d="M94.2002 37.4004C94.2002 37.4004 106 45.2994 108.2 46.5004C110.4 47.7004 113.1 49.7994 121.7 50.9004C130.3 52.0004 134.4 52.5004 134.4 52.5004V53.2004C134.4 53.2004 127.3 52.4004 121.7 51.7994C116.1 51.2004 112.3 50.4004 108.2 48.0994C104.1 45.7994 94.2002 40.0994 94.2002 40.0994V37.4004Z" fill="white"/>
<path fill-rule="evenodd" clip-rule="evenodd" d="M94.2002 42.7002C94.2002 42.7002 104.6 48.4002 108.2 50.0992C112.1 52.0992 115.5 53.0002 121.7 53.8002C127.8 54.5002 134.4 55.2002 134.4 55.2002V55.8002C134.4 55.8002 128.3 55.0992 121.7 54.5002C115.2 53.9002 112.9 53.5992 108.2 51.5002C104 49.5992 94.2002 45.0992 94.2002 45.0992V42.7002Z" fill="white"/>
<path fill-rule="evenodd" clip-rule="evenodd" d="M94.2006 48C94.2006 48 102.401 51.5 108.201 53.8C113.901 56.1 118.201 56.3 121.701 56.6C123.201 56.8 134.301 57.9 134.301 57.9V58.5C134.301 58.5 127.701 58 121.601 57.4C115.601 56.9 113.001 56.6 108.101 55C103.201 53.4 94.1006 50.2 94.1006 50.2L94.2006 48Z" fill="white"/>
<path fill-rule="evenodd" clip-rule="evenodd" d="M94.2002 53.4004C94.2002 53.4004 102.5 56.0004 108.2 57.5004C113.9 59.0004 119.1 59.5994 121.7 59.7994C124.3 60.0004 134.4 60.7994 134.4 60.7994V61.4004C134.4 61.4004 128.7 61.0004 121.7 60.5004C116 60.0994 111.5 59.7004 108.2 58.9004C104.5 58.0994 94.2002 55.5994 94.2002 55.5994V53.4004Z" fill="white"/>
<path fill-rule="evenodd" clip-rule="evenodd" d="M94.2002 58.7002C94.2002 58.7002 101 59.9002 108.2 61.0992C113.6 62.0002 120.9 62.5992 121.7 62.5992C122.5 62.5992 134.4 63.5002 134.4 63.5002V64.0992C134.4 64.0992 126.8 63.7002 121.7 63.4002C116.4 63.0992 111.2 62.8002 108.2 62.5002C101.5 61.8002 94.2002 60.9002 94.2002 60.9002V58.7002Z" fill="white"/>
<path fill-rule="evenodd" clip-rule="evenodd" d="M94.2002 64.2998C94.2002 64.2998 104.9 64.6998 108.2 64.7998C111.5 64.9008 134.4 65.7998 134.4 65.7998V66.4008H94.2002V64.2998Z" fill="white"/>
<path fill-rule="evenodd" clip-rule="evenodd" d="M121.7 33.3999C112 31.2999 109.8 27.7999 108.2 25.5999C106.6 23.3999 94.2998 5.3999 94.2998 5.3999V9.4999C94.7998 10.0999 105.3 23.8999 108.3 27.6999C111.6 31.9999 116.8 32.9999 121.8 33.9999C126.8 35.0999 134.5 36.5999 134.5 36.5999V35.9999C134.4 35.9999 124.2 33.9999 121.7 33.3999" fill="white"/>
<path fill-rule="evenodd" clip-rule="evenodd" d="M121.7 36.2999C113.7 34.6999 110.5 32.1999 108.2 29.1999C105.9 26.0999 94.2998 10.8999 94.2998 10.8999V14.6999C94.7998 15.2999 105.4 27.7999 108.2 31.0999C111.5 34.8999 116.1 35.8999 121.7 36.8999C127.3 37.9009 134.4 39.2999 134.4 39.2999V38.6999C134.4 38.6999 126.3 37.1999 121.7 36.2999" fill="white"/>
<path fill-rule="evenodd" clip-rule="evenodd" d="M121.7 39.2001C113.4 37.5991 111.7 36.3001 108.2 32.4001C106 30.0001 94.7002 16.7001 94.2002 16.1001V19.6001C94.2002 19.6001 104.7 30.8001 108.1 34.2001C112.5 38.5991 116.7 38.9001 121.6 39.8001C126.5 40.7001 134.3 42.0991 134.3 42.0991V41.5001C134.4 41.5001 125 39.9001 121.7 39.2001" fill="white"/>
<mask id="mask5" style="mask-type:alpha" maskUnits="userSpaceOnUse" x="0" y="0" width="234" height="71">
<path fill-rule="evenodd" clip-rule="evenodd" d="M0 70.6H233.7V0H0V70.6Z" fill="white"/>
</mask>
<g mask="url(#mask5)">
<path fill-rule="evenodd" clip-rule="evenodd" d="M27.5 66.3001H85.4V27.6001H27.5V66.3001Z" fill="#004494" stroke="white" stroke-width="2"/>
<path fill-rule="evenodd" clip-rule="evenodd" d="M57.1004 33.1001H59.1004L57.5004 34.4001L58.1004 36.4001L56.5004 35.2001L54.9004 36.4001L55.5004 34.4001L53.9004 33.1001H55.9004L56.5004 31.1001L57.1004 33.1001Z" fill="#FFF100"/>
<path fill-rule="evenodd" clip-rule="evenodd" d="M57.1004 58.9005H59.1004L57.5004 60.0995L58.1004 62.0005L56.5004 60.7995L54.9004 62.0005L55.5004 60.0995L53.9004 58.9005H55.9004L56.5004 57.0005L57.1004 58.9005Z" fill="#FFF100"/>
<path fill-rule="evenodd" clip-rule="evenodd" d="M63.4998 57.2003H65.4998L63.8998 58.4003L64.4998 60.3003L62.8998 59.0993L61.2998 60.3003L61.8998 58.4003L60.2998 57.2003H62.2998L62.8998 55.3003L63.4998 57.2003Z" fill="#FFF100"/>
<path fill-rule="evenodd" clip-rule="evenodd" d="M63.5004 34.7999H65.5004L63.9004 35.9999L64.5004 37.9009L62.9004 36.6999L61.3004 37.9999L62.0004 35.9999L60.4004 34.7999H62.4004L63.0004 32.8999L63.5004 34.7999Z" fill="#FFF100"/>
<path fill-rule="evenodd" clip-rule="evenodd" d="M68.2996 39.5997H70.2996L68.6996 40.7997L69.2996 42.7007L67.6996 41.4997L66.0996 42.7007L66.6996 40.7997L65.0996 39.5997H67.0996L67.6996 37.7007L68.2996 39.5997Z" fill="#FFF100"/>
<path fill-rule="evenodd" clip-rule="evenodd" d="M68.2996 52.5997H70.2996L68.6996 53.7997L69.2996 55.7007L67.6996 54.4997L66.0996 55.7007L66.6996 53.7997L65.0996 52.5997H67.0996L67.6996 50.7007L68.2996 52.5997Z" fill="#FFF100"/>
<path fill-rule="evenodd" clip-rule="evenodd" d="M70.0998 46.0001H72.0998L70.4998 47.2001L71.0998 49.1001L69.4998 47.9001L67.8998 49.1001L68.4998 47.2001L66.7998 46.0001H68.7998L69.3998 44.1001L70.0998 46.0001Z" fill="#FFF100"/>
<path fill-rule="evenodd" clip-rule="evenodd" d="M50.4998 34.7998H52.4998L50.8998 35.9998L51.4998 37.9008L49.9998 36.7998L48.2998 37.9998L48.8998 36.0998L47.2998 34.8998H49.2998L49.9998 32.9998L50.4998 34.7998Z" fill="#FFF100"/>
<path fill-rule="evenodd" clip-rule="evenodd" d="M45.9002 39.5997H47.9002L46.3002 40.7997L46.9002 42.7007L45.3002 41.4997L43.7002 42.7007L44.3002 40.7997L42.7002 39.5997H44.7002L45.3002 37.7007L45.9002 39.5997Z" fill="#FFF100"/>
<path fill-rule="evenodd" clip-rule="evenodd" d="M44.2 46.0001H46.2L44.6 47.2001L45.2 49.1001L43.6 47.9001L42 49.1001L42.6 47.2001L41 46.0001H43L43.6 44.1001L44.2 46.0001Z" fill="#FFF100"/>
<path fill-rule="evenodd" clip-rule="evenodd" d="M45.9002 52.5997H47.9002L46.3002 53.7997L46.9002 55.7007L45.3002 54.4997L43.7002 55.7007L44.3002 53.7997L42.7002 52.5997H44.7002L45.3002 50.7007L45.9002 52.5997Z" fill="#FFF100"/>
<path fill-rule="evenodd" clip-rule="evenodd" d="M50.6004 57.2999H52.6004L51.0004 58.4999L51.6004 60.4009L50.0004 59.1999L48.4004 60.4009L49.0004 58.4999L47.4004 57.2999H49.4004L50.0004 55.4009L50.6004 57.2999Z" fill="#FFF100"/>
<path fill-rule="evenodd" clip-rule="evenodd" d="M143.4 33.1002C143.4 32.8002 143.5 32.7002 143.8 32.7002H151.2C151.5 32.7002 151.6 32.8002 151.6 33.1002V34.3002C151.6 34.5002 151.5 34.7002 151.2 34.7002H145.7V38.2002H150.6C150.9 38.2002 151 38.3002 151 38.6002V39.8002C151 40.0002 150.9 40.2002 150.6 40.2002H145.7V44.2002H151.3C151.5 44.2002 151.7 44.3002 151.7 44.6002V45.8002C151.7 46.0002 151.6 46.2002 151.3 46.2002H143.8C143.5 46.2002 143.4 46.1002 143.4 45.8002V33.1002Z" fill="white"/>
<path fill-rule="evenodd" clip-rule="evenodd" d="M157.7 43.5996C157.7 43.5996 157.7 43.4006 157.8 43.2006C157.9 42.9996 158 42.7006 158.099 42.4006C158.2 42.0996 158.3 41.7006 158.5 41.2996L160.099 36.5996C160.099 36.4996 160.2 36.3996 160.3 36.3996C160.4 36.2996 160.5 36.2996 160.599 36.2996H162.099C162.4 36.2996 162.4 36.3996 162.3 36.7006L158.9 45.7006C158.8 45.7996 158.8 45.9996 158.7 45.9996C158.599 46.0996 158.5 46.0996 158.3 46.0996H157C156.8 46.0996 156.7 46.0996 156.599 45.9996C156.5 45.9006 156.5 45.7996 156.4 45.7006L153 36.7006V36.3996C153 36.2996 153.099 36.2996 153.2 36.2996H154.8C154.9 36.2996 155.099 36.2996 155.099 36.3996C155.2 36.3996 155.2 36.4996 155.3 36.7006L156.9 41.4006C157 41.7996 157.099 42.2006 157.2 42.4996C157.3 42.7996 157.4 42.9996 157.4 43.2996C157.5 43.4006 157.599 43.4996 157.7 43.5996" fill="white"/>
<path fill-rule="evenodd" clip-rule="evenodd" d="M166.3 45.7001C166.3 46.0001 166.2 46.0991 165.901 46.0991H164.401C164.1 46.0991 164 46.0001 164 45.7001V36.6001C164 36.3001 164.1 36.2001 164.401 36.2001H165.8C166.1 36.2001 166.2 36.3001 166.2 36.6001V37.5001C166.3 37.4001 166.5 37.2001 166.8 37.0991C167 36.9001 167.3 36.8001 167.6 36.7001C167.901 36.6001 168.2 36.5001 168.401 36.3001C168.7 36.2001 168.901 36.1001 169.2 36.1001H169.5C169.6 36.1001 169.6 36.2001 169.7 36.4001L169.8 37.7001V38.0001C169.8 38.0991 169.7 38.0991 169.401 38.2001C169.1 38.3001 168.8 38.3001 168.5 38.4001C168.2 38.5001 167.901 38.5991 167.6 38.5991C167.3 38.7001 167 38.8001 166.8 38.9001C166.6 39.0001 166.3 39.0991 166.2 39.0991L166.3 45.7001Z" fill="white"/>
<path fill-rule="evenodd" clip-rule="evenodd" d="M177.3 41.0995C177.3 40.5995 177.3 40.0995 177.2 39.7005C177.1 39.2995 177 38.9995 176.901 38.7005C176.7 38.4005 176.5 38.2005 176.2 38.0995C175.901 37.9995 175.6 37.9005 175.1 37.9005C174.7 37.9005 174.3 37.9995 174.1 38.0995C173.901 38.2005 173.6 38.4005 173.5 38.7005C173.3 38.9995 173.2 39.2995 173.2 39.7005C173.1 40.0995 173.1 40.5995 173.1 41.0995C173.1 41.5995 173.1 42.0995 173.2 42.4995C173.3 42.9005 173.401 43.2005 173.5 43.4995C173.6 43.7995 173.901 43.9995 174.1 44.0995C174.3 44.2005 174.7 44.2995 175.1 44.2995C175.6 44.2995 175.901 44.2005 176.2 44.0995C176.5 43.9995 176.7 43.7995 176.901 43.4995C177.1 43.2005 177.2 42.9005 177.2 42.4995C177.2 42.0995 177.3 41.7005 177.3 41.0995M179.5 40.9995C179.5 41.5995 179.5 42.2005 179.401 42.7995C179.3 43.4005 179.1 43.9995 178.8 44.4995C178.5 44.9995 178.1 45.4005 177.5 45.7995C176.901 46.0995 176.1 46.2995 175.1 46.2995C174.1 46.2995 173.3 46.0995 172.7 45.7995C172.1 45.4995 171.7 45.0995 171.401 44.4995C171.1 43.9995 170.901 43.4005 170.901 42.7995C170.8 42.2005 170.8 41.5995 170.8 40.9995C170.8 40.4995 170.8 39.9995 170.901 39.4005C171 38.7995 171.2 38.2995 171.5 37.7995C171.8 37.2995 172.2 36.8995 172.8 36.4995C173.401 36.2005 174.1 35.9995 175.1 35.9995C176.1 35.9995 176.901 36.0995 177.401 36.3995C178 36.7005 178.401 37.0995 178.7 37.5995C179 38.0995 179.2 38.5995 179.3 39.2005C179.5 39.7995 179.5 40.4005 179.5 40.9995" fill="white"/>
<path fill-rule="evenodd" clip-rule="evenodd" d="M187.9 41.0995C187.9 40.4995 187.9 39.9005 187.799 39.5995C187.7 39.2005 187.599 38.9005 187.5 38.7005C187.4 38.4995 187.2 38.2995 187 38.2995C186.799 38.2005 186.599 38.2005 186.299 38.2005C186.099 38.2005 185.9 38.2005 185.599 38.2995C185.299 38.4005 185.099 38.4005 184.799 38.4995C184.599 38.5995 184.299 38.7005 184.099 38.7995C183.9 38.9005 183.7 38.9995 183.5 39.0995V44.0995C184 44.2005 184.4 44.2995 184.7 44.4005C185 44.4995 185.4 44.4995 185.799 44.4995C186.2 44.4995 186.5 44.4005 186.7 44.2995C186.9 44.2005 187.099 43.9995 187.299 43.7995C187.5 43.4995 187.599 43.2005 187.599 42.7995C187.9 42.2005 187.9 41.7005 187.9 41.0995M190.2 41.0995C190.2 41.9005 190.099 42.5995 190 43.2995C189.9 43.9005 189.7 44.4995 189.4 44.9005C189.099 45.2995 188.7 45.7005 188.2 45.9005C187.7 46.0995 187 46.2005 186.2 46.2005C185.9 46.2005 185.5 46.2005 185 46.0995C184.5 45.9995 184.099 45.9005 183.599 45.7995V49.2995C183.599 49.4005 183.599 49.4995 183.5 49.5995C183.4 49.7005 183.299 49.7005 183.2 49.7005H181.799C181.599 49.7005 181.5 49.7005 181.5 49.5995C181.5 49.4995 181.4 49.4005 181.4 49.2995V36.5995C181.4 36.2995 181.5 36.2005 181.799 36.2005H183.2C183.299 36.2005 183.4 36.2005 183.5 36.2995C183.599 36.3995 183.599 36.4995 183.599 36.5995V37.2005H183.7C183.9 37.0995 184.099 36.9995 184.299 36.7995C184.5 36.7005 184.799 36.4995 185.099 36.3995C185.4 36.2995 185.7 36.2005 186 36.0995C186.299 35.9995 186.599 35.9995 186.9 35.9995C187.599 35.9995 188.099 36.0995 188.5 36.3995C188.9 36.5995 189.299 36.9995 189.5 37.4005C189.7 37.7995 189.9 38.4005 190 38.9995C190.099 39.5995 190.2 40.2995 190.2 41.0995" fill="white"/>
<path fill-rule="evenodd" clip-rule="evenodd" d="M199.3 43.0997C199.3 43.7007 199.2 44.2007 199 44.5997C198.8 44.9997 198.5 45.2997 198.1 45.5997C197.7 45.7997 197.3 45.9997 196.8 46.0997C196.3 46.2007 195.8 46.2997 195.3 46.2997C194.8 46.2997 194.2 46.2997 193.7 46.2007C193.1 46.0997 192.6 45.9997 192.2 45.9007C192 45.7997 191.901 45.7007 191.8 45.5997C191.7 45.4997 191.7 45.4007 191.8 45.2007L191.901 44.4997C191.901 44.2997 192 44.2007 192.1 44.2007H192.5C192.7 44.2007 193 44.2997 193.2 44.2997C193.5 44.2997 193.7 44.2997 194 44.4007C194.3 44.4007 194.5 44.4007 194.7 44.4997H195.3C195.901 44.4997 196.401 44.4007 196.7 44.2007C197 43.9997 197.1 43.7007 197.1 43.2997C197.1 43.0997 197.1 42.9007 197 42.7007C196.901 42.4997 196.901 42.4007 196.7 42.2997C196.5 42.2007 196.401 42.0997 196.2 42.0997C196 41.9997 195.7 41.9997 195.401 41.9007C194.901 41.7997 194.401 41.7007 194 41.5997C193.6 41.4997 193.2 41.2997 192.8 41.0997C192.5 40.9007 192.2 40.5997 192 40.2997C191.8 39.9997 191.7 39.4997 191.7 38.9997C191.7 37.9997 192 37.2997 192.7 36.7007C193.401 36.2007 194.3 35.8997 195.401 35.8997H196.1C196.401 35.8997 196.6 35.8997 196.901 35.9997C197.2 35.9997 197.401 36.0997 197.7 36.0997C198 36.0997 198.2 36.2007 198.401 36.2997C198.7 36.3997 198.901 36.5997 198.8 36.8997L198.6 37.5997C198.6 37.7007 198.5 37.7997 198.401 37.9007H198C197.6 37.7997 197.1 37.7997 196.6 37.7007C196.1 37.7007 195.7 37.5997 195.3 37.5997C194.7 37.5997 194.2 37.7007 194 37.9007C193.8 38.0997 193.7 38.4007 193.7 38.7997C193.7 39.2007 193.8 39.4007 194.1 39.5997C194.401 39.7007 194.8 39.7997 195.401 39.9007C195.901 39.9997 196.3 40.0997 196.8 40.2007C197.3 40.2997 197.6 40.4997 198 40.7007C198.3 40.9007 198.6 41.2007 198.8 41.5997C199.2 41.9997 199.3 42.4997 199.3 43.0997" fill="white"/>
<path fill-rule="evenodd" clip-rule="evenodd" d="M203.5 39.9004L205 38.2994L206.7 36.6004C206.8 36.5004 206.9 36.4004 207 36.2994C207.1 36.2004 207.2 36.2004 207.4 36.2004H209C209.2 36.2004 209.3 36.2004 209.3 36.2994C209.3 36.4004 209.3 36.5004 209.2 36.6004L206 39.9004L209.6 45.5994C209.7 45.7004 209.7 45.7994 209.6 45.9004C209.5 46.0004 209.5 46.0004 209.3 46.0004H207.8C207.6 46.0004 207.4 46.0004 207.3 45.9004C207.2 45.7994 207.1 45.7004 207.1 45.5994L204.5 41.5004L203.4 42.7004V45.7004C203.4 45.7994 203.4 45.9004 203.3 46.0004C203.2 46.0994 203.1 46.0994 203 46.0994H201.6C201.3 46.0994 201.2 46.0004 201.2 45.7004V32.2994C201.2 32.0004 201.3 31.9004 201.6 31.9004H203C203.1 31.9004 203.2 31.9004 203.3 32.0004C203.4 32.1004 203.4 32.2004 203.4 32.2994L203.5 39.9004Z" fill="white"/>
<path fill-rule="evenodd" clip-rule="evenodd" d="M216.901 41.5997H214.501C214.001 41.5997 213.6 41.7007 213.3 41.9997C213.001 42.2007 212.901 42.7007 212.901 43.2997C212.901 43.7007 213.001 43.9997 213.201 44.2007C213.401 44.4007 213.701 44.4997 214.201 44.4997C214.401 44.4997 214.6 44.4997 214.901 44.4007C215.201 44.2997 215.401 44.2997 215.701 44.2007C216.001 44.0997 216.201 43.9997 216.401 43.9007C216.6 43.7997 216.901 43.7007 217.001 43.5997V41.5997H216.901ZM217.1 44.9007C216.6 45.2997 216.001 45.5997 215.401 45.7997C214.8 45.9997 214.1 46.2007 213.401 46.2007C212.901 46.2007 212.401 46.0997 212.1 45.9997C211.701 45.9007 211.501 45.7007 211.3 45.4007C211.1 45.2007 210.901 44.9007 210.901 44.4997C210.8 44.2007 210.8 43.7997 210.8 43.2997C210.8 42.0997 211.1 41.2997 211.701 40.7007C212.3 40.2007 213.3 39.9007 214.501 39.9007H217.1V39.4007C217.1 39.0997 217.1 38.9007 217.001 38.5997C216.901 38.4007 216.8 38.2007 216.701 38.0997C216.501 37.9997 216.3 37.9007 216.1 37.7997C215.8 37.7007 215.501 37.7007 215.1 37.7007H214.501H213.8C213.6 37.7007 213.3 37.7007 213.1 37.7997C212.901 37.7997 212.6 37.7997 212.401 37.9007H212.001C211.901 37.9007 211.901 37.7997 211.8 37.5997L211.6 36.8997V36.5997C211.701 36.4997 211.8 36.3997 212.001 36.2997C212.201 36.2007 212.501 36.2007 212.8 36.0997C213.1 35.9997 213.401 35.9997 213.701 35.9997C214.001 35.9997 214.3 35.8997 214.6 35.8997H215.401C216.3 35.8997 217.001 35.9997 217.501 36.2007C218.001 36.3997 218.401 36.5997 218.701 36.8997C219.001 37.2007 219.1 37.5997 219.201 38.0997C219.3 38.5997 219.3 39.0997 219.3 39.5997V43.4997V43.9997C219.3 44.0997 219.401 44.2007 219.401 44.2997C219.401 44.4007 219.501 44.4007 219.6 44.4007C219.701 44.4007 219.8 44.4007 220.001 44.4997C220.1 44.4997 220.201 44.4997 220.3 44.5997C220.401 44.5997 220.401 44.7007 220.401 44.7997V45.5997C220.401 45.7997 220.201 45.9997 219.901 45.9997C219.701 45.9997 219.6 45.9997 219.401 46.0997H218.901C218.401 46.0997 218.1 45.9997 217.8 45.7997C217.401 45.7007 217.201 45.4007 217.1 44.9007V44.9007Z" fill="white"/>
<path fill-rule="evenodd" clip-rule="evenodd" d="M145.4 60.2002L146.9 58.5992L148.6 56.9002L148.9 56.5992C149 56.5002 149.1 56.5002 149.3 56.5002H150.9C151.1 56.5002 151.2 56.5002 151.2 56.5992C151.2 56.7002 151.2 56.8002 151.1 56.9002L147.9 60.2002L151.5 65.9002C151.6 66.0002 151.6 66.0992 151.5 66.2002C151.4 66.3002 151.4 66.3002 151.2 66.3002H149.7C149.5 66.3002 149.3 66.3002 149.2 66.2002C149.1 66.0992 149 66.0002 149 65.9002L146.4 61.8002L145.3 63.0002V66.0002C145.3 66.0992 145.3 66.2002 145.2 66.3002C145.1 66.4002 145 66.4002 144.9 66.4002H143.5C143.2 66.4002 143.1 66.3002 143.1 66.0002V52.5992C143.1 52.3002 143.2 52.2002 143.5 52.2002H144.9C145 52.2002 145.1 52.2002 145.2 52.3002C145.3 52.4002 145.3 52.5002 145.3 52.5992L145.4 60.2002Z" fill="white"/>
<path fill-rule="evenodd" clip-rule="evenodd" d="M158.9 61.4003C158.9 60.9003 158.9 60.4003 158.799 60.0003C158.7 59.5993 158.599 59.2993 158.5 59.0003C158.299 58.7003 158.099 58.5003 157.799 58.4003C157.5 58.2993 157.2 58.2003 156.7 58.2003C156.299 58.2003 155.9 58.2993 155.7 58.4003C155.5 58.5003 155.2 58.7003 155.099 59.0003C154.9 59.2993 154.799 59.5993 154.799 60.0003C154.7 60.4003 154.7 60.9003 154.7 61.4003C154.7 61.9003 154.7 62.4003 154.799 62.7993C154.9 63.2003 155 63.5003 155.099 63.7993C155.2 64.0993 155.5 64.2993 155.7 64.4003C155.9 64.5003 156.299 64.5993 156.7 64.5993C157.2 64.5993 157.5 64.5003 157.799 64.4003C158.099 64.2993 158.299 64.0993 158.5 63.7993C158.7 63.5003 158.799 63.2003 158.799 62.7993C158.799 62.4003 158.9 62.0003 158.9 61.4003M161.099 61.2993C161.099 61.9003 161.099 62.5003 161 63.0993C160.9 63.7003 160.7 64.2993 160.4 64.7993C160.099 65.2993 159.7 65.7003 159.099 66.0993C158.5 66.4003 157.7 66.5993 156.7 66.5993C155.7 66.5993 154.9 66.4003 154.299 66.0993C153.7 65.7993 153.299 65.4003 153 64.7993C152.7 64.2993 152.5 63.7003 152.5 63.0993C152.4 62.5003 152.4 61.9003 152.4 61.2993C152.4 60.7993 152.4 60.2993 152.5 59.7003C152.599 59.0993 152.799 58.5993 153.099 58.0993C153.4 57.5993 153.799 57.2003 154.4 56.7993C155 56.5003 155.7 56.2993 156.7 56.2993C157.7 56.2993 158.5 56.4003 159 56.7003C159.599 57.0003 160 57.4003 160.299 57.9003C160.599 58.4003 160.799 58.9003 160.9 59.5003C161 60.0993 161.099 60.7003 161.099 61.2993" fill="white"/>
<path fill-rule="evenodd" clip-rule="evenodd" d="M177.4 66.2998C177.4 66.4008 177.299 66.4008 177.099 66.4008H175.7C175.4 66.4008 175.299 66.2998 175.299 65.9998V60.2998C175.299 59.5998 175.2 58.9998 175 58.7998C174.799 58.4998 174.4 58.4008 173.9 58.4008C173.7 58.4008 173.5 58.4008 173.299 58.4998C173.099 58.5998 172.799 58.5998 172.599 58.6998C172.4 58.7998 172.099 58.9008 171.9 58.9998C171.7 59.0998 171.5 59.1998 171.299 59.2998V59.6998V60.2998V65.9998C171.299 66.0998 171.299 66.1998 171.2 66.2998C171.099 66.4008 171 66.4008 170.9 66.4008H169.4C169.2 66.4008 169.099 66.2998 169.099 65.9998V60.1998C169.099 59.5998 169 59.0998 168.799 58.7998C168.599 58.4998 168.299 58.4008 167.799 58.4008C167.599 58.4008 167.4 58.4008 167.2 58.4998C167 58.5998 166.799 58.5998 166.5 58.6998C166.299 58.7998 166 58.9008 165.799 58.9998C165.599 59.0998 165.4 59.1998 165.2 59.2998V65.9998C165.2 66.2998 165.099 66.4008 164.799 66.4008H163.4C163.2 66.4008 163 66.2998 163 65.9998V56.9008C163 56.5998 163.099 56.4998 163.4 56.4998H164.799C165.099 56.4998 165.2 56.5998 165.2 56.9008V57.4998C165.4 57.4008 165.599 57.1998 165.799 57.0998C166 56.9998 166.299 56.7998 166.5 56.6998C166.7 56.5998 167 56.4998 167.299 56.4008C167.599 56.2998 167.799 56.2998 168.099 56.2998C168.7 56.2998 169.2 56.4008 169.7 56.5998C170.2 56.7998 170.599 57.1998 170.9 57.6998C171.4 57.2998 172 56.9998 172.599 56.6998C173.2 56.4008 173.799 56.2998 174.5 56.2998C175.2 56.2998 175.7 56.4008 176.099 56.5998C176.5 56.7998 176.799 57.0998 177 57.4008C177.2 57.6998 177.299 58.0998 177.4 58.5998C177.5 59.0998 177.5 59.4998 177.5 59.9998V65.9998C177.4 66.0998 177.4 66.1998 177.4 66.2998" fill="white"/>
<path fill-rule="evenodd" clip-rule="evenodd" d="M182.1 65.9999C182.1 66.0999 182.1 66.1999 182 66.2999C182 66.3999 181.901 66.3999 181.701 66.3999H180.3C180 66.3999 179.901 66.2999 179.901 65.9999V56.8999C179.901 56.5999 180 56.4999 180.3 56.4999H181.701C181.8 56.4999 181.901 56.4999 182 56.5999C182 56.6999 182.1 56.7999 182.1 56.8999V65.9999ZM182.201 53.8999V54.3999C182.201 54.4999 182.1 54.6999 182 54.7999C181.901 54.8999 181.8 54.9999 181.6 55.0999C181.401 55.1999 181.201 55.1999 181 55.1999C180.701 55.1999 180.5 55.1999 180.401 55.0999C180.201 54.9999 180.1 54.8999 180 54.7999C179.901 54.6999 179.901 54.5999 179.8 54.3999V53.9999C179.8 53.6999 179.901 53.3999 180 53.1999C180.201 52.9999 180.5 52.8999 181 52.8999C181.5 52.8999 181.8 52.9999 182 53.1999C182.1 53.2999 182.201 53.5999 182.201 53.8999V53.8999Z" fill="white"/>
<path fill-rule="evenodd" clip-rule="evenodd" d="M191.9 63.4004C191.9 64.0004 191.799 64.5004 191.599 64.9004C191.4 65.2994 191.099 65.5994 190.7 65.9004C190.299 66.0994 189.9 66.2994 189.4 66.4004C188.9 66.5004 188.4 66.5994 187.9 66.5994C187.4 66.5994 186.799 66.5994 186.299 66.5004C185.7 66.4004 185.2 66.2994 184.799 66.2004C184.599 66.0994 184.5 66.0004 184.4 65.9004C184.299 65.7994 184.299 65.7004 184.4 65.5004L184.5 64.7994C184.5 64.5994 184.599 64.5004 184.7 64.5004H185.099C185.299 64.5004 185.599 64.5994 185.799 64.5994C186.099 64.5994 186.299 64.5994 186.599 64.7004C186.9 64.7004 187.099 64.7004 187.299 64.7994C187.5 64.9004 187.7 64.7994 187.9 64.7994C188.5 64.7994 189 64.7004 189.299 64.5004C189.599 64.2994 189.7 64.0004 189.7 63.5994C189.7 63.4004 189.7 63.2004 189.599 63.0004C189.5 62.7994 189.5 62.7004 189.4 62.5994C189.299 62.5004 189.099 62.4004 188.9 62.4004C188.7 62.2994 188.4 62.2994 188.099 62.2004C187.599 62.0994 187.099 62.0004 186.7 61.9004C186.299 61.7994 185.9 61.5994 185.5 61.4004C185.2 61.2004 184.9 60.9004 184.7 60.5994C184.5 60.2994 184.4 59.7994 184.4 59.2994C184.4 58.2994 184.7 57.5994 185.4 57.0004C186.099 56.5004 187 56.2004 188.099 56.2004H188.799C189.099 56.2004 189.299 56.2004 189.599 56.2994C189.9 56.4004 190.099 56.4004 190.4 56.4004C190.7 56.4004 190.9 56.5004 191.099 56.5994C191.4 56.7004 191.599 56.9004 191.5 57.2004L191.299 57.9004C191.299 58.0004 191.2 58.0994 191.099 58.2004H190.7C190.299 58.0994 189.799 58.0994 189.299 58.0004C188.799 58.0004 188.299 57.9004 188 57.9004C187.4 57.9004 186.9 58.0004 186.7 58.2004C186.5 58.4004 186.4 58.7004 186.4 59.0994C186.4 59.5004 186.5 59.7004 186.799 59.9004C187.099 60.0994 187.5 60.0994 188.099 60.2004C188.599 60.2994 189 60.4004 189.5 60.5004C189.9 60.5994 190.299 60.7994 190.7 61.0004C191.099 61.2004 191.299 61.5004 191.5 61.9004C191.799 62.2994 191.9 62.7994 191.9 63.4004" fill="white"/>
<path fill-rule="evenodd" clip-rule="evenodd" d="M196.2 65.9999C196.2 66.0999 196.2 66.1999 196.099 66.2999C196 66.3999 196 66.3999 195.8 66.3999H194.4C194.099 66.3999 194 66.2999 194 65.9999V56.8999C194 56.5999 194.099 56.4999 194.4 56.4999H195.8C195.9 56.4999 196 56.4999 196.099 56.5999C196.2 56.6999 196.2 56.7999 196.2 56.8999V65.9999ZM196.4 53.8999V54.3999C196.4 54.5999 196.3 54.6999 196.2 54.7999C196.099 54.8999 196 54.9999 195.8 55.0999C195.599 55.1999 195.4 55.1999 195.2 55.1999C194.9 55.1999 194.7 55.1999 194.599 55.0999C194.4 54.9999 194.3 54.8999 194.2 54.7999C194.099 54.6999 194.099 54.5999 194 54.3999V53.9999C194 53.6999 194.099 53.3999 194.2 53.1999C194.4 52.9999 194.7 52.8999 195.2 52.8999C195.7 52.8999 196 52.9999 196.2 53.1999C196.3 53.2999 196.4 53.5999 196.4 53.8999V53.8999Z" fill="white"/>
<path fill-rule="evenodd" clip-rule="evenodd" d="M201.599 53.9004V54.4004C201.599 54.5994 201.499 54.7004 201.4 54.7994C201.299 54.9004 201.2 55.0004 200.999 55.0994C200.799 55.2004 200.599 55.2004 200.4 55.2004C200.099 55.2004 199.9 55.2004 199.799 55.0994C199.599 55.0004 199.499 54.9004 199.4 54.7994C199.299 54.7004 199.299 54.5994 199.2 54.4004V54.0004C199.2 53.7004 199.299 53.4004 199.4 53.2004C199.599 53.0004 199.9 52.9004 200.4 52.9004C200.9 52.9004 201.2 53.0004 201.4 53.2004C201.499 53.2994 201.599 53.5994 201.599 53.9004V53.9004ZM201.499 66.5994C201.499 67.2994 201.4 67.7994 201.299 68.2994C201.2 68.7994 200.9 69.2004 200.499 69.5994C200.099 69.9004 199.7 70.2004 199.099 70.4004C198.499 70.5994 197.799 70.5994 196.999 70.5994C196.9 70.5994 196.799 70.5994 196.7 70.5004C196.599 70.4004 196.499 70.2994 196.499 70.2004L196.4 69.2994V69.0004C196.4 68.9004 196.499 68.9004 196.7 68.9004C197.2 68.7994 197.599 68.7004 197.9 68.5994C198.2 68.5004 198.499 68.4004 198.7 68.2004C198.9 68.0994 198.999 67.9004 199.099 67.5994C199.2 67.4004 199.2 67.0994 199.2 66.7004V57.0004C199.2 56.7004 199.299 56.5994 199.599 56.5994H200.999C201.299 56.5994 201.4 56.7004 201.4 57.0004V66.5994H201.499Z" fill="white"/>
<path fill-rule="evenodd" clip-rule="evenodd" d="M210.099 61.9004H207.7C207.2 61.9004 206.799 62.0004 206.499 62.2994C206.2 62.5004 206.099 63.0004 206.099 63.5994C206.099 64.0004 206.2 64.2994 206.4 64.5004C206.599 64.7004 206.9 64.7994 207.4 64.7994C207.599 64.7994 207.799 64.7994 208.099 64.7004C208.4 64.5994 208.599 64.5994 208.9 64.5004C209.2 64.4004 209.4 64.2994 209.599 64.2004C209.799 64.0994 210.099 64.0004 210.2 63.9004V61.9004H210.099ZM210.2 65.2004C209.7 65.5994 209.099 65.9004 208.499 66.0994C207.9 66.2994 207.2 66.5004 206.499 66.5004C205.999 66.5004 205.499 66.4004 205.2 66.2994C204.799 66.2004 204.599 66.0004 204.4 65.7004C204.2 65.5004 203.999 65.2004 203.999 64.7994C203.9 64.5004 203.9 64.0994 203.9 63.5994C203.9 62.4004 204.2 61.5994 204.799 61.0004C205.4 60.5004 206.4 60.2004 207.599 60.2004H210.2V59.7004C210.2 59.4004 210.2 59.2004 210.099 58.9004C209.999 58.7004 209.9 58.5004 209.799 58.4004C209.599 58.2994 209.4 58.2004 209.2 58.0994C208.9 58.0004 208.599 58.0004 208.2 58.0004H207.599H206.9C206.7 58.0004 206.4 58.0004 206.2 58.0994C205.999 58.0994 205.7 58.0994 205.499 58.2004H205.099C204.999 58.2004 204.999 58.0994 204.9 57.9004L204.7 57.2004V56.9004C204.799 56.7994 204.9 56.7004 205.099 56.5994C205.299 56.5004 205.599 56.5004 205.9 56.4004C206.2 56.2994 206.499 56.2994 206.799 56.2994C207.099 56.2994 207.4 56.2004 207.7 56.2004H208.499C209.4 56.2004 210.099 56.2994 210.599 56.5004C211.099 56.7004 211.499 56.9004 211.799 57.2004C212.099 57.5004 212.2 57.9004 212.299 58.4004C212.4 58.9004 212.4 59.4004 212.4 59.9004V63.7994V64.2994C212.4 64.4004 212.499 64.5004 212.499 64.5994C212.499 64.7004 212.599 64.7004 212.7 64.7004C212.799 64.7004 212.9 64.7004 213.099 64.7994C213.2 64.7994 213.299 64.7994 213.4 64.9004C213.499 64.9004 213.499 65.0004 213.499 65.0994V65.9004C213.499 66.0994 213.299 66.2994 212.999 66.2994C212.799 66.2994 212.7 66.2994 212.499 66.4004H211.999C211.499 66.4004 211.2 66.2994 210.9 66.0994C210.599 66.0004 210.4 65.7004 210.2 65.2004V65.2004Z" fill="white"/>
<path fill-rule="evenodd" clip-rule="evenodd" d="M230.4 66.7H233.7V28H230.4V66.7Z" fill="white"/>
</g>
</svg>
