<svg xmlns="http://www.w3.org/2000/svg" viewBox="0 0 40 40"><path fill="#f43f06" d="M0 0h40v40H0z"/><path d="M31.6 18.1c-.9-1.2-2.6-1.5-3.9-.6-.2.1-.3.1-.4 0-1.1-.7-2.3-1.2-3.6-1.5-1-.2-2-.3-3-.4.5-1.5 1-2.9 1.5-4.3.1-.2.2-.1.3-.1 1.1.3 2.2.5 3.3.8.3.1.4.2.4.4.2 1.1 1.1 1.9 2.2 1.9s2.1-.8 2.3-1.8c.2-1.1-.4-2.2-1.4-2.6-1-.4-2.2 0-2.8 1-.2.3-.3.3-.6.2-1.3-.3-2.6-.6-3.9-1-.3-.1-.4 0-.5.3-.6 1.6-1.1 3.2-1.7 4.9-.1.2-.2.3-.4.3-2.4.1-4.6.6-6.6 1.9-.2.1-.3.1-.4 0-.7-.5-1.4-.6-2.2-.4-1.1.3-1.8 1-2.1 2.1-.3 1.1.1 2.1 1 2.8-.1 0 .1.1 0 .3-.2 1.5.2 2.8 1.1 3.9.9 1.1 2 2 3.2 2.6 3.6 1.7 7.2 1.9 11 .8 2-.6 3.8-1.5 5.1-3.2 1-1.2 1.5-2.5 1.3-4 0-.2 0-.3.2-.4 1.2-1 1.5-2.7.6-3.9zm-3.2-7.5c.8 0 1.4.6 1.4 1.4 0 .8-.6 1.4-1.4 1.4-.8 0-1.4-.7-1.4-1.4 0-.8.7-1.4 1.4-1.4zm-19.3 8c.6-.8 1.7-1 2.6-.4-1 .8-1.8 1.8-2.3 3-.8-.7-.9-1.9-.3-2.6zm20 6.9c-1.1 1.5-2.6 2.4-4.3 3-1.6.6-3.2.8-4.8.8-2.3 0-4.5-.4-6.6-1.6-1.1-.6-2-1.3-2.7-2.3-1.1-1.6-1.1-3.5 0-5.1.9-1.3 2.2-2.2 3.7-2.8 4.1-1.6 8.1-1.5 12 .5 1.1.5 2 1.3 2.7 2.3 1.2 1.6 1.2 3.6 0 5.2zm1.4-4.3c-.5-1.2-1.3-2.2-2.3-3 .7-.6 1.9-.4 2.5.3.8.8.7 2-.2 2.7zm-7.1 4.5c-.3.3-.6.5-1 .6-2 .6-4 .7-5.8-.6-.2-.2-.4-.1-.6 0-.2.2-.2.4 0 .6.2.3.5.5.9.6 1 .5 2 .7 3.3.7.2 0 .6 0 1-.1 1-.2 2-.5 2.8-1.1.2-.2.3-.4.1-.7-.3-.3-.5-.2-.7 0zm.3-5.8c-.9 0-1.7.8-1.7 1.7 0 1 .8 1.7 1.7 1.7.9 0 1.7-.8 1.7-1.7 0-.9-.8-1.7-1.7-1.7zm-5.5 1.7c0-.9-.8-1.7-1.7-1.7-.9 0-1.7.8-1.7 1.7 0 .9.7 1.7 1.7 1.7s1.7-.7 1.7-1.7z" fill="#fff"/></svg>