<svg
  width="290"
  height="72"
  viewBox="0 0 290 72"
  fill="none"
  xmlns="http://www.w3.org/2000/svg"
>
<path
    d="M29.0595 64.8961H84.7641L84.759 28.8354L29.0544 28.8405L29.0595 64.8961Z"
    fill="#003399"
  />
<path
    d="M57.4401 33.3809H59.4717L57.8331 34.6449L58.4712 36.6472L56.8429 35.4135L55.2146 36.6472L55.8526 34.6449L54.2039 33.3809H56.2303L56.8429 31.4292L57.4401 33.3809Z"
    fill="#FFED00"
  />
<path
    d="M57.5115 59.1573H59.5431L57.9097 60.3759L58.5426 62.3023L56.9143 61.1141L55.286 62.3023L55.9292 60.3759L54.2753 59.1573H56.3018L56.9143 57.2815L57.5115 59.1573Z"
    fill="#FFED00"
  />
<path
    d="M63.9482 57.4534H65.9849L64.3464 58.6669L64.9844 60.5933L63.351 59.4051L61.7227 60.5933L62.3659 58.6669L60.712 57.4534H62.7385L63.351 55.5725L63.9482 57.4534Z"
    fill="#FFED00"
  />
<path
    d="M63.9482 35.1H65.9849L64.3464 36.3185L64.9844 38.2449L63.351 37.0567L61.7227 38.2449L62.3659 36.3185L60.712 35.1H62.7385L63.351 33.2241L63.9482 35.1Z"
    fill="#FFED00"
  />
<path
    d="M68.7311 39.8377H70.7575L69.1241 41.0512L69.7571 42.9776L68.1288 41.7894L66.5005 42.9776L67.1436 41.0512L65.4898 39.8377H67.5162L68.1288 37.9568L68.7311 39.8377Z"
    fill="#FFED00"
  />
<path
    d="M68.7311 52.7815H70.7575L69.1241 54L69.7571 55.9264L68.1288 54.7382L66.5005 55.9264L67.1436 54L65.4898 52.7815H67.5162L68.1288 50.9056L68.7311 52.7815Z"
    fill="#FFED00"
  />
<path
    d="M70.5176 46.2085H72.5543L70.9158 47.427L71.5487 49.3534L69.9204 48.1652L68.2921 49.3534L68.9353 47.427L67.2814 46.2085H69.3079L69.9204 44.3326L70.5176 46.2085Z"
    fill="#FFED00"
  />
<path
    d="M50.8809 35.1203H52.9074L51.274 36.3338L51.9069 38.2602L50.2786 37.072L48.6503 38.2602L49.2934 36.3338L47.6447 35.1203H49.6661L50.2786 33.2394L50.8809 35.1203Z"
    fill="#FFED00"
  />
<path
    d="M46.2308 39.8527H48.2674L46.6289 41.0662L47.2619 42.9926L45.6336 41.8044L44.0052 42.9926L44.6484 41.0662L42.9946 39.8527H45.021L45.6336 37.9718L46.2308 39.8527Z"
    fill="#FFED00"
  />
<path
    d="M44.5055 46.2287H46.537L44.9036 47.4422L45.5366 49.3686L43.9083 48.1854L42.28 49.3686L42.9231 47.4422L41.2744 46.2287H43.2957L43.9083 44.3478L44.5055 46.2287Z"
    fill="#FFED00"
  />
<path
    d="M46.2308 52.7966H48.2674L46.6289 54.0152L47.2619 55.9416L45.6336 54.7534L44.0052 55.9416L44.6484 54.0152L42.9946 52.7966H45.021L45.6336 50.9208L46.2308 52.7966Z"
    fill="#FFED00"
  />
<path
    d="M50.9473 57.4685H52.9737L51.3403 58.682L51.9733 60.6084L50.3449 59.4202L48.7166 60.6084L49.3598 58.682L47.7111 57.4685H49.7324L50.3449 55.5876L50.9473 57.4685Z"
    fill="#FFED00"
  />
<path
    d="M94.9372 0.00505726C94.9372 0.00505726 106.917 18.9101 109.112 22.3736C111.302 25.8371 113.808 28.5826 122.675 30.4433C131.541 32.304 135.4 33.1837 135.4 33.1837V33.8562C135.4 33.8562 129.765 32.668 122.516 31.0652C115.268 29.4624 112.302 28.9214 109 24.3657C106.249 20.5736 94.9372 3.61517 94.9372 3.61517V0V0.00505726Z"
    fill="white"
  />
<path
    d="M94.9372 21.5949C94.9372 21.5949 105.845 32.9157 109 36.1668C112.348 39.6151 116.631 40.8893 122.573 41.941C128.244 42.9421 135.395 44.1 135.395 44.1V44.7371C135.395 44.7371 128.677 43.6449 122.573 42.6135C116.585 41.5972 112.394 41.0309 108.964 37.9011C105.891 35.1 94.9372 24.9219 94.9372 24.9219V21.5898V21.5949Z"
    fill="white"
  />
<path
    d="M94.9372 26.6966C94.9372 26.6966 105.309 36.2376 109 39.4988C112.394 42.4972 115.146 43.4325 122.608 44.7421C130.071 46.0517 135.395 46.8657 135.395 46.8657V47.5382C135.395 47.5382 128.642 46.441 122.573 45.4803C116.503 44.5247 112.634 44.1455 109 41.2281C104.809 37.8606 94.9372 29.8112 94.9372 29.8112V26.6915V26.6966Z"
    fill="white"
  />
<path
    d="M94.9372 32.1321C94.9372 32.1321 106.785 41.4456 109 43.0737C111.215 44.7018 114.145 46.6029 122.644 47.8214C131.071 49.0298 135.395 49.6265 135.395 49.6265V50.3343C135.395 50.3343 127.754 49.2371 122.644 48.6001C117.535 47.963 113.619 47.69 109.036 44.6664C104.574 41.7237 94.9372 35.004 94.9372 35.004V32.1321Z"
    fill="white"
  />
<path
    d="M94.9372 37.3601C94.9372 37.3601 106.82 45.1972 109.071 46.441C111.322 47.6798 113.967 49.7022 122.644 50.7994C131.322 51.8966 135.395 52.3921 135.395 52.3921V53.0646C135.395 53.0646 128.218 52.286 122.608 51.6843C117.004 51.0826 113.18 50.2685 109 47.9983C104.819 45.7331 94.9372 40.0095 94.9372 40.0095V37.3601Z"
    fill="white"
  />
<path
    d="M94.9372 42.5883C94.9372 42.5883 105.442 48.2512 109 50.0158C112.966 51.9878 116.396 52.9333 122.608 53.6664C128.708 54.3844 135.395 55.0821 135.395 55.0821V55.7192C135.395 55.7192 129.213 55.0619 122.608 54.4451C116.059 53.8282 113.727 53.5451 109 51.467C104.773 49.6063 94.9372 45.0658 94.9372 45.0658V42.5833V42.5883Z"
    fill="white"
  />
<path
    d="M94.9372 47.8871C94.9372 47.8871 103.237 51.4062 109.071 53.7017C114.809 55.9568 119.193 56.1489 122.68 56.5382C124.216 56.7101 135.395 57.8478 135.395 57.8478V58.4848C135.395 58.4848 128.718 57.9539 122.644 57.423C116.57 56.8921 113.951 56.6646 109.036 55.0517C104.059 53.4135 94.9372 50.2635 94.9372 50.2635V47.8921V47.8871Z"
    fill="white"
  />
<path
    d="M94.9372 53.2921C94.9372 53.2921 103.319 55.8657 109.036 57.3522C114.753 58.8387 120 59.4455 122.644 59.6174C125.288 59.7944 135.4 60.6084 135.4 60.6084V61.2101C135.4 61.2101 129.647 60.8208 122.608 60.3253C116.917 59.9258 112.348 59.5011 109 58.768C105.294 57.959 94.9372 55.5219 94.9372 55.5219V53.2921Z"
    fill="white"
  />
<path
    d="M94.9372 58.6062C94.9372 58.6062 101.792 59.7792 109.036 60.9674C114.467 61.8573 121.822 62.4186 122.608 62.454C123.394 62.4893 135.395 63.3034 135.395 63.3034V63.9405C135.395 63.9405 127.713 63.5461 122.608 63.268C117.29 62.9747 112.001 62.6562 109 62.3478C102.272 61.6551 94.9372 60.7349 94.9372 60.7349V58.6062Z"
    fill="white"
  />
<path
    d="M94.9372 64.1074C94.9372 64.1074 105.748 64.5119 109.036 64.5827C112.323 64.6535 135.395 65.5737 135.395 65.5737V66.1956H94.9372V64.1074Z"
    fill="white"
  />
<path
    d="M122.603 33.3657C112.818 31.2775 110.603 27.7332 108.959 25.5388C107.315 23.3393 94.9321 5.41516 94.9321 5.41516V8.71179C95.4222 9.34382 106.019 23.8348 108.995 27.627C112.348 31.8994 117.601 32.8702 122.603 33.932C127.6 34.9938 135.395 36.4753 135.395 36.4753V35.909C135.395 35.909 125.135 33.9017 122.603 33.3657Z"
    fill="white"
  />
<path
    d="M122.603 36.2022C114.569 34.6449 111.317 32.127 108.959 29.0831C106.601 26.0343 94.9321 10.446 94.9321 10.446V14.2786C95.4222 14.85 106.096 27.7534 108.959 30.9994C112.297 34.7865 116.958 35.7826 122.603 36.809C128.249 37.8354 135.39 39.1803 135.39 39.1803V38.614C135.39 38.614 127.238 37.1022 122.603 36.2073V36.2022Z"
    fill="white"
  />
<path
    d="M122.603 39.1399C114.247 37.5321 112.532 36.2124 108.995 32.3748C106.769 29.963 95.4119 16.6804 94.9321 16.1191V19.6585C94.9321 19.6585 105.544 30.8731 108.959 34.1849C113.436 38.5332 117.637 38.8619 122.603 39.7467C127.57 40.6315 135.39 42.0473 135.39 42.0473V41.4456C135.39 41.4456 125.947 39.7871 122.603 39.145V39.1399Z"
    fill="white"
  />
<path
    d="M0.00510552 27.7787C0.00510552 27.7787 27.6711 24.8562 35.4196 23.7792C47.6702 22.0803 57.6953 20.2702 66.9701 6.18875C66.9701 6.18875 66.9803 5.38987 66.9701 5.03088C61.2889 13.591 53.4536 19.4309 42.6628 21.1247C32.1222 22.7831 0 25.2051 0 25.2051V27.7787H0.00510552Z"
    fill="white"
  />
<path
    d="M0.00511169 24.2848C0.00511169 24.2848 25.6446 21.1045 34.0925 19.9314C47.4559 18.0809 56.8531 16.4174 66.9701 1.05669C66.9701 1.05669 66.9752 0.394331 66.9701 0.00500488C60.7733 9.34378 53.1218 15.3758 41.351 17.2264C29.8507 19.0365 0.00511169 21.6758 0.00511169 21.6758V24.2899V24.2848Z"
    fill="white"
  />
<path d="M26.1806 64.1326H0.020462V66.1854H26.1806V64.1326Z" fill="white" />
<path
    d="M66.9701 22.5708C66.9701 22.5708 66.9854 21.3624 66.9803 21.1045C65.7501 22.9601 64.132 24.6438 62.2638 26.1253H64.0963C65.1274 25.0736 66.0921 23.8955 66.965 22.5708H66.9701Z"
    fill="white"
  />
<path
    d="M66.9701 17.1102C66.9701 17.1102 66.9803 16.0383 66.9752 15.745C64.0095 20.2147 59.5942 23.7843 54.4897 26.1506L57.5014 26.1405C60.9826 24.1332 64.2188 21.2815 66.965 17.1102H66.9701Z"
    fill="white"
  />
<path
    d="M66.9701 11.6494C66.9701 11.6494 66.9803 10.714 66.9701 10.3904C61.8095 18.1718 53.7853 23.496 43.9746 25.0381C41.6521 25.4022 37.8697 25.8067 33.4748 26.2162L45.4549 26.1758C53.3617 24.4314 60.7631 21.0589 66.9599 11.6494H66.9701Z"
    fill="white"
  />
<path
    d="M26.1857 60.6742C12.8377 60.745 0.020462 60.8006 0.020462 60.8006V62.9394C0.020462 62.9394 13.4451 62.8433 26.1857 62.7371V60.6742Z"
    fill="white"
  />
<path
    d="M26.1857 57.0034C12.9295 57.15 0.0153351 57.2613 0.0153351 57.2613V59.4456C0.0153351 59.4456 13.5778 59.2686 26.1857 59.0714V57.0034Z"
    fill="white"
  />
<path
    d="M26.1806 53.3225C13.0214 53.55 0.0153351 53.722 0.0153351 53.722V55.9517C0.0153351 55.9517 13.7207 55.6837 26.1806 55.3905V53.3225Z"
    fill="white"
  />
<path
    d="M26.1857 49.6214C13.1235 49.9399 0.0153351 50.1776 0.0153351 50.1776V52.4478C0.0153351 52.4478 13.879 52.0736 26.1857 51.6843V49.6163V49.6214Z"
    fill="white"
  />
<path
    d="M26.1908 45.9102C13.2256 46.3197 0.0153351 46.6433 0.0153351 46.6433V48.959C0.0153351 48.959 14.0474 48.4736 26.1908 47.9781V45.9152V45.9102Z"
    fill="white"
  />
<path
    d="M26.1857 42.1838C13.3226 42.6995 0.0153351 43.104 0.0153351 43.104V45.4602C0.0153351 45.4602 14.2209 44.8433 26.1857 44.2315V42.1787V42.1838Z"
    fill="white"
  />
<path
    d="M26.1908 38.432C13.4247 39.059 0.0102234 39.5595 0.0102234 39.5595V41.9612C0.0102234 41.9612 14.4047 41.1977 26.1908 40.4646V38.432Z"
    fill="white"
  />
<path
    d="M26.1908 34.6602C13.5216 35.4085 0.0102234 36.0203 0.0102234 36.0203V38.4624C0.0102234 38.4624 14.5987 37.5321 26.1908 36.6725V34.6602Z"
    fill="white"
  />
<path
    d="M26.1908 30.868C13.6084 31.7478 0.0102234 32.486 0.0102234 32.486V34.9737C0.0102234 34.9737 14.7926 33.8512 26.1908 32.8602V30.8731V30.868Z"
    fill="white"
  />
<path
    d="M26.1908 27.0404C13.685 28.0668 0.00511169 28.9415 0.00511169 28.9415V31.4696C0.00511169 31.4696 14.9866 30.1247 26.1908 28.9921V27.0404Z"
    fill="white"
  />
<path
    d="M86.0759 66.1906V27.5461H27.7528V66.1906H86.0759ZM84.759 28.8355V64.8962H29.0544V28.8405H84.759V28.8355Z"
    fill="white"
  />
<path d="M244.296 66.1801V26.9813H240.949V66.1801H244.296Z" fill="white" />
<path
    d="M149.666 32.5717C150.621 32.5717 152.202 32.7103 153.234 33.1363C153.547 33.2749 153.665 33.4289 153.604 33.7421L153.429 34.5429C153.367 34.779 153.275 34.8766 152.921 34.8355C151.966 34.7174 150.796 34.584 149.779 34.584C147.125 34.584 146.735 36.7297 146.735 39.2656C146.735 41.8015 147.223 43.8292 149.779 43.8292C150.909 43.8292 151.868 43.7112 152.921 43.5777C153.29 43.5366 153.367 43.6342 153.45 43.8908L153.604 44.63C153.681 44.9432 153.583 45.1177 153.27 45.2563C152.315 45.667 150.616 45.8415 149.661 45.8415C145.313 45.8415 144.394 42.6229 144.394 39.3067C144.394 35.9905 145.216 32.5768 149.661 32.5768L149.666 32.5717Z"
    fill="white"
  />
<path
    d="M159.183 45.8158C155.262 45.8158 155.01 42.9514 155.01 40.7235C155.01 38.8908 155.421 35.9083 159.183 35.9083C162.946 35.9083 163.496 38.4237 163.496 40.7235C163.496 43.0232 163.223 45.8158 159.183 45.8158ZM159.204 37.782C157.546 37.782 157.176 38.8344 157.176 40.8621C157.176 42.8898 157.546 43.9421 159.183 43.9421C160.96 43.9421 161.309 42.9462 161.309 40.8621C161.309 38.7779 160.975 37.782 159.204 37.782Z"
    fill="white"
  />
<path
    d="M179.024 45.6619H177.618C177.346 45.6619 177.248 45.5438 177.248 45.2923V39.7533C177.248 38.3109 176.899 37.9002 175.924 37.9002C175.2 37.9002 174.03 38.4649 173.429 38.778C173.429 38.9731 173.449 39.3221 173.449 39.7739V45.2923C173.449 45.5284 173.372 45.6619 173.08 45.6619H171.658C171.406 45.6619 171.324 45.5438 171.324 45.2923V39.6558C171.324 38.4649 171.011 37.9002 170.036 37.9002C169.353 37.9002 168.26 38.3879 167.52 38.778V45.2923C167.52 45.5284 167.423 45.6619 167.151 45.6619H165.749C165.498 45.6619 165.4 45.5438 165.4 45.2923V36.4936C165.4 36.2421 165.498 36.1035 165.749 36.1035H167.135C167.428 36.1035 167.526 36.2575 167.526 36.4936V37.0583L167.546 37.0788C168.306 36.5501 169.379 35.9649 170.452 35.929C171.581 35.929 172.52 36.1651 173.126 37.2944C174.101 36.5706 175.313 35.929 176.56 35.929C179.132 35.929 179.389 37.6076 179.389 39.5583V45.2923C179.389 45.5284 179.312 45.6619 179.04 45.6619H179.024Z"
    fill="white"
  />
<path
    d="M182.849 34.7022C181.832 34.7022 181.699 34.1375 181.699 33.5728C181.699 32.9465 181.914 32.4589 182.849 32.4589C183.783 32.4589 183.999 32.9055 183.999 33.5728C183.999 34.1786 183.824 34.7022 182.849 34.7022ZM183.88 45.2924C183.88 45.508 183.803 45.662 183.531 45.662H182.145C181.873 45.662 181.755 45.5439 181.755 45.2924V36.4783C181.755 36.2063 181.873 36.1087 182.145 36.1087H183.531C183.803 36.1087 183.88 36.2627 183.88 36.4783V45.2924Z"
    fill="white"
  />
<path
    d="M189.502 45.8158C188.526 45.8158 187.217 45.6772 186.478 45.3846C186.088 45.2306 186.011 45.0509 186.067 44.7429L186.206 44.1012C186.262 43.7881 186.401 43.7676 186.714 43.8086C187.571 43.9472 188.819 44.0448 189.486 44.0448C190.734 44.0448 191.242 43.7111 191.242 42.9308C191.242 42.0325 190.908 41.8374 189.681 41.6629C187.772 41.3908 186.093 40.9801 186.093 38.8549C186.093 36.9247 187.576 35.9083 189.758 35.9083C190.559 35.9083 191.904 36.0264 192.725 36.3395C193.059 36.4781 193.192 36.6321 193.136 36.9247L192.982 37.628C192.925 37.9001 192.807 37.9412 192.453 37.9001C191.616 37.8026 190.523 37.6845 189.799 37.6845C188.552 37.6845 188.259 38.0336 188.259 38.7779C188.259 39.5222 188.726 39.6352 189.917 39.8302C191.77 40.1023 193.449 40.4719 193.449 42.7974C193.449 45.1228 191.519 45.8209 189.512 45.8209L189.502 45.8158Z"
    fill="white"
  />
<path
    d="M196.622 34.7022C195.605 34.7022 195.472 34.1375 195.472 33.5728C195.472 32.9465 195.687 32.4589 196.622 32.4589C197.556 32.4589 197.772 32.9055 197.772 33.5728C197.772 34.1786 197.597 34.7022 196.622 34.7022ZM197.654 45.2924C197.654 45.508 197.577 45.662 197.304 45.662H195.918C195.646 45.662 195.528 45.5439 195.528 45.2924V36.4783C195.528 36.2063 195.646 36.1087 195.918 36.1087H197.304C197.577 36.1087 197.654 36.2627 197.654 36.4783V45.2924Z"
    fill="white"
  />
<path
    d="M206.098 44.5479C205.123 45.2871 203.814 45.8158 202.51 45.8158C200.441 45.8158 199.835 44.6865 199.835 43.0489C199.815 40.7645 201.047 39.7892 203.501 39.7892H205.996V39.281C205.996 38.1106 205.569 37.6999 203.968 37.6999C203.326 37.6999 202.094 37.7974 201.314 37.8744C200.924 37.9309 200.826 37.9155 200.77 37.6383L200.595 36.9145C200.554 36.6629 200.616 36.5038 201.042 36.3293C201.879 36.0367 203.424 35.8981 204.337 35.8981C207.71 35.8981 208.121 37.2841 208.121 39.4658V43.2286C208.121 44.0294 208.218 44.0499 208.824 44.1269C209.117 44.1475 209.194 44.2039 209.194 44.4195V45.2409C209.194 45.4565 209.055 45.5899 208.727 45.6515C208.413 45.708 208.1 45.7491 207.808 45.7491C206.889 45.7491 206.324 45.477 206.129 44.5581L206.088 44.5376L206.098 44.5479ZM205.98 41.3087H203.598C202.623 41.3087 201.997 41.6578 201.997 42.9462C201.997 43.8035 202.289 44.0756 203.208 44.0756C204.045 44.0756 205.236 43.5879 205.98 43.1567V41.3036V41.3087Z"
    fill="white"
  />
<path
    d="M144.43 53.6339C144.43 53.3824 144.548 53.2438 144.82 53.2438H151.997C152.233 53.2438 152.366 53.3824 152.366 53.6134V54.8249C152.366 55.061 152.269 55.1739 151.976 55.1739H146.653V58.5312H151.37C151.622 58.5312 151.761 58.6493 151.761 58.8803V60.0917C151.761 60.3279 151.663 60.4408 151.37 60.4408H146.653V64.2806H152.115C152.351 64.2806 152.464 64.3987 152.464 64.6502V65.8412C152.464 66.0927 152.366 66.1902 152.094 66.1902H144.82C144.548 66.1902 144.43 66.0722 144.43 65.8412V53.6288V53.6339Z"
    fill="white"
  />
<path
    d="M162.3 66.1959H160.914C160.621 66.1959 160.544 66.0573 160.544 65.8262V65.2205L160.503 65.2C159.743 65.7287 158.414 66.3704 157.228 66.3704C154.594 66.3704 154.343 64.8098 154.343 62.7616V57.0276C154.343 56.7915 154.44 56.6375 154.712 56.6375H156.134C156.386 56.6375 156.483 56.7761 156.483 57.0276V62.5101C156.483 63.6805 156.72 64.4197 157.905 64.4197C158.742 64.4197 160.031 63.7934 160.539 63.5419V57.0276C160.539 56.7915 160.616 56.6375 160.908 56.6375H162.294C162.566 56.6375 162.664 56.7761 162.664 57.0276V65.8262C162.664 66.0778 162.566 66.1959 162.294 66.1959H162.3Z"
    fill="white"
  />
<path
    d="M167.253 65.8262C167.253 66.0624 167.156 66.1958 166.884 66.1958H165.477C165.205 66.1958 165.107 66.0778 165.107 65.8262V57.0276C165.107 56.776 165.205 56.6374 165.477 56.6374H166.863C167.156 56.6374 167.253 56.7914 167.253 57.0276V57.8848L167.294 57.9259C167.879 57.3818 169.265 56.7144 170.179 56.5399C170.431 56.4834 170.61 56.5399 170.646 56.8735L170.785 58.1826C170.805 58.4546 170.826 58.5727 170.415 58.6497C169.322 58.8653 167.936 59.2555 167.253 59.5481V65.8262Z"
    fill="white"
  />
<path
    d="M175.836 66.3495C171.914 66.3495 171.663 63.4851 171.663 61.2572C171.663 59.4245 172.073 56.442 175.836 56.442C179.599 56.442 180.148 58.9574 180.148 61.2572C180.148 63.5569 179.876 66.3495 175.836 66.3495ZM175.857 58.3157C174.199 58.3157 173.829 59.3681 173.829 61.3958C173.829 63.4234 174.199 64.4758 175.836 64.4758C177.612 64.4758 177.961 63.4799 177.961 61.3958C177.961 59.3116 177.628 58.3157 175.857 58.3157Z"
    fill="white"
  />
<path
    d="M186.606 66.3701C185.965 66.3701 185.066 66.252 184.168 65.9389L184.147 65.9594V69.3937C184.147 69.6093 184.091 69.7838 183.778 69.7838H182.392C182.079 69.7838 182.022 69.6452 182.022 69.3937V57.0273C182.022 56.7758 182.12 56.6372 182.392 56.6372H183.778C184.05 56.6372 184.127 56.7912 184.127 57.0273V57.6125L184.183 57.6536C184.887 57.1659 186.134 56.4832 187.263 56.4832C189.82 56.4832 190.482 58.4133 190.482 61.3599C190.482 64.5375 189.681 66.3701 186.601 66.3701H186.606ZM186.76 58.4339C185.96 58.4339 184.733 58.9985 184.147 59.3117V64.1884C185.025 64.4399 185.729 64.5221 186.391 64.5221C187.797 64.5221 188.285 63.7983 188.285 61.3445C188.285 58.8907 187.797 58.439 186.765 58.439L186.76 58.4339Z"
    fill="white"
  />
<path
    d="M194.23 62.0016C194.286 63.9728 194.989 64.517 196.591 64.517C197.294 64.517 198.388 64.3784 199.127 64.3014C199.476 64.2603 199.594 64.2603 199.656 64.6351L199.774 65.2767C199.83 65.5693 199.794 65.7233 199.44 65.8825C198.68 66.1751 197.258 66.3701 196.298 66.3701C192.571 66.3701 192.027 63.9934 192.027 61.4575C192.027 59.5632 192.376 56.4473 196.18 56.4473C199.671 56.4473 200.297 58.7111 200.354 60.8158C200.374 61.5191 200.179 62.0067 199.399 62.0067H194.23V62.0016ZM194.25 60.5386H198.11C198.11 59.3476 197.797 58.1978 196.18 58.1978C194.738 58.1978 194.348 59.0756 194.25 60.5386Z"
    fill="white"
  />
<path
    d="M208.161 65.0817C207.186 65.8209 205.877 66.3496 204.573 66.3496C202.504 66.3496 201.899 65.2203 201.899 63.5827C201.878 61.2984 203.11 60.323 205.564 60.323H208.059V59.8148C208.059 58.6444 207.628 58.2337 206.031 58.2337C205.389 58.2337 204.157 58.3312 203.377 58.4083C202.987 58.4647 202.889 58.4493 202.833 58.1721L202.658 57.4483C202.617 57.1968 202.679 57.0376 203.105 56.8631C203.942 56.5705 205.487 56.4319 206.401 56.4319C209.773 56.4319 210.184 57.8179 210.184 59.9996V63.7624C210.184 64.5632 210.282 64.5837 210.887 64.6607C211.18 64.6813 211.257 64.7377 211.257 64.9533V65.7747C211.257 65.9903 211.118 66.1238 210.79 66.1854C210.477 66.2418 210.163 66.2829 209.871 66.2829C208.952 66.2829 208.387 66.0108 208.192 65.092L208.151 65.0714L208.161 65.0817ZM208.043 61.8425H205.661C204.686 61.8425 204.06 62.1916 204.06 63.4801C204.06 64.3373 204.352 64.6094 205.271 64.6094C206.108 64.6094 207.299 64.1217 208.043 63.6905V61.8374V61.8425Z"
    fill="white"
  />
<path
    d="M220.543 66.1952H219.137C218.885 66.1952 218.767 66.0772 218.767 65.8256L218.788 60.3431C218.788 59.1933 218.516 58.4335 217.381 58.4335C216.601 58.4335 215.235 59.0598 214.707 59.3113V65.8256C214.707 66.0618 214.609 66.1952 214.337 66.1952H212.951C212.679 66.1952 212.581 66.0772 212.581 65.8256V57.027C212.581 56.7754 212.679 56.6368 212.951 56.6368H214.337C214.609 56.6368 214.707 56.7754 214.707 57.027V57.6122C214.707 57.6122 214.748 57.6327 214.763 57.6327C215.487 57.1245 216.852 56.4623 218.038 56.4623C220.672 56.4623 220.903 58.1974 220.903 60.1686V65.8256C220.903 66.0618 220.826 66.1952 220.533 66.1952H220.543Z"
    fill="white"
  />
<path
    d="M228.993 65.0817C228.017 65.8209 226.708 66.3496 225.405 66.3496C223.336 66.3496 222.73 65.2203 222.73 63.5827C222.71 61.2983 223.942 60.323 226.395 60.323H228.89V59.8148C228.89 58.6444 228.459 58.2337 226.862 58.2337C226.221 58.2337 224.989 58.3312 224.208 58.4082C223.818 58.4647 223.721 58.4493 223.664 58.1721L223.49 57.4483C223.449 57.1967 223.51 57.0376 223.936 56.8631C224.773 56.5705 226.318 56.4319 227.232 56.4319C230.605 56.4319 231.015 57.8179 231.015 59.9996V63.7624C231.015 64.5632 231.113 64.5837 231.719 64.6607C232.011 64.6813 232.088 64.7377 232.088 64.9533V65.7747C232.088 65.9903 231.95 66.1237 231.621 66.1853C231.308 66.2418 230.995 66.2829 230.702 66.2829C229.783 66.2829 229.219 66.0108 229.024 65.0919L228.983 65.0714L228.993 65.0817ZM224.06 53.7112C223.962 53.5161 223.808 53.244 224.019 53.0695L224.547 52.6383C224.783 52.4843 224.881 52.5818 225.055 52.7563C225.836 53.6906 226.365 54.1218 227.319 54.1218C228.197 54.1218 228.664 53.6906 229.486 52.7563C229.66 52.5613 229.778 52.5202 229.973 52.6588L230.502 52.9925C230.754 53.1465 230.579 53.4391 230.482 53.6752C229.778 55.0407 228.587 55.744 227.304 55.744C226.021 55.744 224.691 55.1023 224.065 53.7163L224.06 53.7112ZM228.875 61.8425H226.493C225.518 61.8425 224.891 62.1916 224.891 63.48C224.891 64.3373 225.184 64.6094 226.103 64.6094C226.939 64.6094 228.13 64.1217 228.875 63.6905V61.8373V61.8425Z"
    fill="white"
  />
</svg>
