<svg
  width="290"
  height="72"
  viewBox="0 0 290 72"
  fill="none"
  xmlns="http://www.w3.org/2000/svg"
>
<path
    d="M29.0595 64.8961H84.7641L84.759 28.8354L29.0544 28.8404L29.0595 64.8961Z"
    fill="#003399"
  />
<path
    d="M57.4401 33.3809H59.4717L57.8331 34.645L58.4712 36.6472L56.8429 35.4135L55.2146 36.6472L55.8526 34.645L54.2039 33.3809H56.2303L56.8429 31.4293L57.4401 33.3809Z"
    fill="#FFED00"
  />
<path
    d="M57.5115 59.1574H59.5431L57.9097 60.3759L58.5426 62.3023L56.9143 61.1141L55.286 62.3023L55.9292 60.3759L54.2753 59.1574H56.3018L56.9143 57.2816L57.5115 59.1574Z"
    fill="#FFED00"
  />
<path
    d="M63.9482 57.4535H65.9849L64.3464 58.667L64.9844 60.5934L63.351 59.4052L61.7227 60.5934L62.3659 58.667L60.712 57.4535H62.7385L63.351 55.5726L63.9482 57.4535Z"
    fill="#FFED00"
  />
<path
    d="M63.9482 35.1001H65.9849L64.3464 36.3186L64.9844 38.245L63.351 37.0568L61.7227 38.245L62.3659 36.3186L60.712 35.1001H62.7385L63.351 33.2242L63.9482 35.1001Z"
    fill="#FFED00"
  />
<path
    d="M68.7311 39.8377H70.7575L69.1241 41.0512L69.7571 42.9776L68.1288 41.7894L66.5005 42.9776L67.1436 41.0512L65.4898 39.8377H67.5162L68.1288 37.9568L68.7311 39.8377Z"
    fill="#FFED00"
  />
<path
    d="M68.7311 52.7815H70.7575L69.1241 54.0001L69.7571 55.9265L68.1288 54.7383L66.5005 55.9265L67.1436 54.0001L65.4898 52.7815H67.5162L68.1288 50.9057L68.7311 52.7815Z"
    fill="#FFED00"
  />
<path
    d="M70.5176 46.2085H72.5543L70.9158 47.427L71.5487 49.3534L69.9204 48.1652L68.2921 49.3534L68.9353 47.427L67.2814 46.2085H69.3079L69.9204 44.3326L70.5176 46.2085Z"
    fill="#FFED00"
  />
<path
    d="M50.8809 35.1203H52.9074L51.274 36.3338L51.9069 38.2602L50.2786 37.072L48.6503 38.2602L49.2934 36.3338L47.6447 35.1203H49.6661L50.2786 33.2394L50.8809 35.1203Z"
    fill="#FFED00"
  />
<path
    d="M46.2308 39.8528H48.2674L46.6289 41.0663L47.2619 42.9927L45.6336 41.8045L44.0052 42.9927L44.6484 41.0663L42.9946 39.8528H45.021L45.6336 37.9719L46.2308 39.8528Z"
    fill="#FFED00"
  />
<path
    d="M44.5055 46.2287H46.537L44.9036 47.4422L45.5366 49.3686L43.9083 48.1855L42.28 49.3686L42.9231 47.4422L41.2744 46.2287H43.2957L43.9083 44.3478L44.5055 46.2287Z"
    fill="#FFED00"
  />
<path
    d="M46.2308 52.7967H48.2674L46.6289 54.0152L47.2619 55.9416L45.6336 54.7534L44.0052 55.9416L44.6484 54.0152L42.9946 52.7967H45.021L45.6336 50.9208L46.2308 52.7967Z"
    fill="#FFED00"
  />
<path
    d="M50.9473 57.4686H52.9737L51.3403 58.6821L51.9733 60.6085L50.3449 59.4203L48.7166 60.6085L49.3598 58.6821L47.7111 57.4686H49.7324L50.3449 55.5877L50.9473 57.4686Z"
    fill="#FFED00"
  />
<path
    d="M94.9372 0.00505726C94.9372 0.00505726 106.917 18.9101 109.112 22.3736C111.302 25.8371 113.808 28.5826 122.675 30.4433C131.541 32.304 135.4 33.1837 135.4 33.1837V33.8562C135.4 33.8562 129.765 32.668 122.516 31.0652C115.268 29.4624 112.302 28.9214 109 24.3657C106.249 20.5736 94.9372 3.61517 94.9372 3.61517V0V0.00505726Z"
    fill="white"
  />
<path
    d="M94.9372 21.5949C94.9372 21.5949 105.845 32.9157 109 36.1668C112.348 39.6151 116.631 40.8893 122.573 41.941C128.244 42.9421 135.395 44.1 135.395 44.1V44.7371C135.395 44.7371 128.677 43.6449 122.573 42.6135C116.585 41.5972 112.394 41.0309 108.964 37.9011C105.891 35.1 94.9372 24.9219 94.9372 24.9219V21.5898V21.5949Z"
    fill="white"
  />
<path
    d="M94.9372 26.6966C94.9372 26.6966 105.309 36.2377 109 39.4989C112.394 42.4972 115.146 43.4326 122.608 44.7422C130.071 46.0517 135.395 46.8658 135.395 46.8658V47.5382C135.395 47.5382 128.642 46.441 122.573 45.4804C116.503 44.5247 112.634 44.1455 109 41.2281C104.809 37.8607 94.9372 29.8113 94.9372 29.8113V26.6916V26.6966Z"
    fill="white"
  />
<path
    d="M94.9372 32.1321C94.9372 32.1321 106.785 41.4456 109 43.0737C111.215 44.7018 114.145 46.6029 122.644 47.8214C131.071 49.0298 135.395 49.6265 135.395 49.6265V50.3343C135.395 50.3343 127.754 49.2371 122.644 48.6001C117.535 47.963 113.619 47.69 109.036 44.6664C104.574 41.7237 94.9372 35.004 94.9372 35.004V32.1321Z"
    fill="white"
  />
<path
    d="M94.9372 37.3602C94.9372 37.3602 106.82 45.1973 109.071 46.4411C111.322 47.6798 113.967 49.7023 122.644 50.7995C131.322 51.8967 135.395 52.3922 135.395 52.3922V53.0647C135.395 53.0647 128.218 52.286 122.608 51.6843C117.004 51.0826 113.18 50.2686 109 47.9984C104.819 45.7332 94.9372 40.0096 94.9372 40.0096V37.3602Z"
    fill="white"
  />
<path
    d="M94.9372 42.5882C94.9372 42.5882 105.442 48.2512 109 50.0158C112.966 51.9877 116.396 52.9332 122.608 53.6663C128.708 54.3843 135.395 55.0821 135.395 55.0821V55.7192C135.395 55.7192 129.213 55.0618 122.608 54.445C116.059 53.8281 113.727 53.545 109 51.4669C104.773 49.6062 94.9372 45.0658 94.9372 45.0658V42.5832V42.5882Z"
    fill="white"
  />
<path
    d="M94.9372 47.8871C94.9372 47.8871 103.237 51.4062 109.071 53.7018C114.809 55.9568 119.193 56.1489 122.68 56.5383C124.216 56.7102 135.395 57.8478 135.395 57.8478V58.4849C135.395 58.4849 128.718 57.954 122.644 57.4231C116.57 56.8922 113.951 56.6647 109.036 55.0518C104.059 53.4136 94.9372 50.2636 94.9372 50.2636V47.8922V47.8871Z"
    fill="white"
  />
<path
    d="M94.9372 53.2922C94.9372 53.2922 103.319 55.8658 109.036 57.3523C114.753 58.8388 120 59.4455 122.644 59.6175C125.288 59.7944 135.4 60.6085 135.4 60.6085V61.2102C135.4 61.2102 129.647 60.8208 122.608 60.3253C116.917 59.9259 112.348 59.5012 109 58.768C105.294 57.959 94.9372 55.522 94.9372 55.522V53.2922Z"
    fill="white"
  />
<path
    d="M94.9372 58.6062C94.9372 58.6062 101.792 59.7792 109.036 60.9674C114.467 61.8573 121.822 62.4186 122.608 62.454C123.394 62.4893 135.395 63.3034 135.395 63.3034V63.9405C135.395 63.9405 127.713 63.5461 122.608 63.268C117.29 62.9747 112.001 62.6562 109 62.3478C102.272 61.6551 94.9372 60.7349 94.9372 60.7349V58.6062Z"
    fill="white"
  />
<path
    d="M94.9372 64.1074C94.9372 64.1074 105.748 64.5119 109.036 64.5826C112.323 64.6534 135.395 65.5737 135.395 65.5737V66.1956H94.9372V64.1074Z"
    fill="white"
  />
<path
    d="M122.603 33.3657C112.818 31.2775 110.603 27.7332 108.959 25.5388C107.315 23.3393 94.9321 5.41516 94.9321 5.41516V8.71179C95.4222 9.34382 106.019 23.8348 108.995 27.627C112.348 31.8994 117.601 32.8702 122.603 33.932C127.6 34.9938 135.395 36.4753 135.395 36.4753V35.909C135.395 35.909 125.135 33.9017 122.603 33.3657Z"
    fill="white"
  />
<path
    d="M122.603 36.2023C114.569 34.645 111.317 32.127 108.959 29.0832C106.601 26.0343 94.9321 10.4461 94.9321 10.4461V14.2787C95.4222 14.85 106.096 27.7534 108.959 30.9995C112.297 34.7866 116.958 35.7826 122.603 36.809C128.249 37.8355 135.39 39.1804 135.39 39.1804V38.6141C135.39 38.6141 127.238 37.1023 122.603 36.2074V36.2023Z"
    fill="white"
  />
<path
    d="M122.603 39.1399C114.247 37.5321 112.532 36.2124 108.995 32.3748C106.769 29.963 95.4119 16.6804 94.9321 16.1191V19.6585C94.9321 19.6585 105.544 30.8731 108.959 34.1849C113.436 38.5332 117.637 38.8619 122.603 39.7467C127.57 40.6315 135.39 42.0473 135.39 42.0473V41.4456C135.39 41.4456 125.947 39.7871 122.603 39.145V39.1399Z"
    fill="white"
  />
<path
    d="M0.00510552 27.7787C0.00510552 27.7787 27.6711 24.8562 35.4196 23.7792C47.6702 22.0803 57.6953 20.2702 66.9701 6.18875C66.9701 6.18875 66.9803 5.38987 66.9701 5.03088C61.2889 13.591 53.4536 19.4309 42.6628 21.1247C32.1222 22.7831 0 25.2051 0 25.2051V27.7787H0.00510552Z"
    fill="white"
  />
<path
    d="M0.00511169 24.2849C0.00511169 24.2849 25.6446 21.1045 34.0925 19.9315C47.4559 18.0809 56.8531 16.4174 66.9701 1.05675C66.9701 1.05675 66.9752 0.394392 66.9701 0.00506592C60.7733 9.34384 53.1218 15.3759 41.351 17.2264C29.8507 19.0365 0.00511169 21.6759 0.00511169 21.6759V24.2899V24.2849Z"
    fill="white"
  />
<path d="M26.1806 64.1326H0.020462V66.1854H26.1806V64.1326Z" fill="white" />
<path
    d="M66.9701 22.5708C66.9701 22.5708 66.9854 21.3624 66.9803 21.1045C65.7501 22.9601 64.132 24.6438 62.2638 26.1253H64.0963C65.1274 25.0736 66.0921 23.8955 66.965 22.5708H66.9701Z"
    fill="white"
  />
<path
    d="M66.9701 17.1102C66.9701 17.1102 66.9803 16.0383 66.9752 15.745C64.0095 20.2147 59.5942 23.7843 54.4897 26.1506L57.5014 26.1405C60.9826 24.1332 64.2188 21.2815 66.965 17.1102H66.9701Z"
    fill="white"
  />
<path
    d="M66.9701 11.6494C66.9701 11.6494 66.9803 10.714 66.9701 10.3904C61.8095 18.1719 53.7853 23.4961 43.9746 25.0382C41.6521 25.4023 37.8697 25.8067 33.4748 26.2163L45.4549 26.1758C53.3617 24.4315 60.7631 21.059 66.9599 11.6494H66.9701Z"
    fill="white"
  />
<path
    d="M26.1857 60.6742C12.8377 60.745 0.020462 60.8006 0.020462 60.8006V62.9394C0.020462 62.9394 13.4451 62.8433 26.1857 62.7371V60.6742Z"
    fill="white"
  />
<path
    d="M26.1857 57.0034C12.9295 57.15 0.0153351 57.2613 0.0153351 57.2613V59.4456C0.0153351 59.4456 13.5778 59.2686 26.1857 59.0714V57.0034Z"
    fill="white"
  />
<path
    d="M26.1806 53.3225C13.0214 53.55 0.0153351 53.722 0.0153351 53.722V55.9517C0.0153351 55.9517 13.7207 55.6837 26.1806 55.3905V53.3225Z"
    fill="white"
  />
<path
    d="M26.1857 49.6214C13.1235 49.9399 0.0153351 50.1776 0.0153351 50.1776V52.4478C0.0153351 52.4478 13.879 52.0736 26.1857 51.6843V49.6163V49.6214Z"
    fill="white"
  />
<path
    d="M26.1908 45.9102C13.2256 46.3197 0.0153351 46.6433 0.0153351 46.6433V48.959C0.0153351 48.959 14.0474 48.4736 26.1908 47.9781V45.9152V45.9102Z"
    fill="white"
  />
<path
    d="M26.1857 42.1838C13.3226 42.6995 0.0153351 43.104 0.0153351 43.104V45.4602C0.0153351 45.4602 14.2209 44.8433 26.1857 44.2315V42.1787V42.1838Z"
    fill="white"
  />
<path
    d="M26.1908 38.4321C13.4247 39.059 0.0102234 39.5596 0.0102234 39.5596V41.9613C0.0102234 41.9613 14.4047 41.1978 26.1908 40.4647V38.4321Z"
    fill="white"
  />
<path
    d="M26.1908 34.6602C13.5216 35.4085 0.0102234 36.0203 0.0102234 36.0203V38.4624C0.0102234 38.4624 14.5987 37.5321 26.1908 36.6725V34.6602Z"
    fill="white"
  />
<path
    d="M26.1908 30.868C13.6084 31.7478 0.0102234 32.486 0.0102234 32.486V34.9737C0.0102234 34.9737 14.7926 33.8512 26.1908 32.8602V30.8731V30.868Z"
    fill="white"
  />
<path
    d="M26.1908 27.0405C13.685 28.0669 0.00511169 28.9416 0.00511169 28.9416V31.4697C0.00511169 31.4697 14.9866 30.1247 26.1908 28.9922V27.0405Z"
    fill="white"
  />
<path
    d="M86.0759 66.1905V27.5461H27.7528V66.1905H86.0759ZM84.759 28.8354V64.8961H29.0544V28.8405H84.759V28.8354Z"
    fill="white"
  />
<path d="M254.484 65.9716V27.241H251.182V65.9716H254.484Z" fill="white" />
<path
    d="M149.603 32.8105C150.547 32.8105 152.109 32.9475 153.128 33.3685C153.438 33.5054 153.554 33.6576 153.493 33.967L153.321 34.7582C153.265 34.9915 153.169 35.0879 152.819 35.0473C151.875 34.9307 150.719 34.7988 149.715 34.7988C147.092 34.7988 146.707 36.9189 146.707 39.4246C146.707 41.9302 147.189 43.9337 149.715 43.9337C150.831 43.9337 151.779 43.817 152.819 43.6851C153.184 43.6445 153.265 43.7409 153.341 43.9945L153.493 44.7249C153.57 45.0343 153.473 45.2067 153.164 45.3437C152.22 45.7495 150.541 45.9219 149.598 45.9219C145.302 45.9219 144.394 42.7417 144.394 39.4651C144.394 36.1886 145.206 32.8156 149.598 32.8156L149.603 32.8105Z"
    fill="white"
  />
<path
    d="M159.007 45.8963C155.131 45.8963 154.883 43.066 154.883 40.8647C154.883 39.054 155.289 36.1071 159.007 36.1071C162.724 36.1071 163.267 38.5924 163.267 40.8647C163.267 43.137 162.998 45.8963 159.007 45.8963ZM159.027 37.9584C157.389 37.9584 157.023 38.9982 157.023 41.0017C157.023 43.0052 157.389 44.0449 159.007 44.0449C160.761 44.0449 161.106 43.061 161.106 41.0017C161.106 38.9424 160.777 37.9584 159.027 37.9584Z"
    fill="white"
  />
<path
    d="M178.61 45.7443H177.22C176.952 45.7443 176.855 45.6276 176.855 45.3791V39.9063C176.855 38.481 176.505 38.0753 175.547 38.0753C174.832 38.0753 173.675 38.6332 173.082 38.9426C173.082 39.1353 173.102 39.4802 173.102 39.9266V45.3791C173.102 45.6124 173.026 45.7443 172.737 45.7443H171.332C171.083 45.7443 171.002 45.6276 171.002 45.3791V39.8099C171.002 38.6332 170.693 38.0753 169.729 38.0753C169.054 38.0753 167.974 38.5571 167.244 38.9426V45.3791C167.244 45.6124 167.147 45.7443 166.878 45.7443H165.489C165.24 45.7443 165.144 45.6276 165.144 45.3791V36.6855C165.144 36.437 165.24 36.3 165.489 36.3H166.858C167.147 36.3 167.244 36.4522 167.244 36.6855V37.2434L167.264 37.2637C168.015 36.7413 169.075 36.1631 170.135 36.1276C171.256 36.1276 172.179 36.3609 172.777 37.4767C173.741 36.7616 174.933 36.1276 176.171 36.1276C178.717 36.1276 178.965 37.7861 178.965 39.7135V45.3791C178.965 45.6124 178.889 45.7443 178.62 45.7443H178.61Z"
    fill="white"
  />
<path
    d="M194.491 45.7443H193.106C192.838 45.7443 192.741 45.6276 192.741 45.3791V39.9063C192.741 38.481 192.396 38.0753 191.433 38.0753C190.723 38.0753 189.561 38.6332 188.968 38.9426C188.968 39.1353 188.988 39.4802 188.988 39.9266V45.3791C188.988 45.6124 188.912 45.7443 188.623 45.7443H187.218C186.969 45.7443 186.893 45.6276 186.893 45.3791V39.8099C186.893 38.6332 186.584 38.0753 185.62 38.0753C184.945 38.0753 183.865 38.5571 183.135 38.9426V45.3791C183.135 45.6124 183.038 45.7443 182.77 45.7443H181.38C181.131 45.7443 181.035 45.6276 181.035 45.3791V36.6855C181.035 36.437 181.131 36.3 181.38 36.3H182.749C183.038 36.3 183.135 36.4522 183.135 36.6855V37.2434L183.155 37.2637C183.906 36.7413 184.966 36.1631 186.026 36.1276C187.142 36.1276 188.07 36.3609 188.668 37.4767C189.632 36.7616 190.829 36.1276 192.062 36.1276C194.608 36.1276 194.856 37.7861 194.856 39.7135V45.3791C194.856 45.6124 194.78 45.7443 194.506 45.7443H194.491Z"
    fill="white"
  />
<path
    d="M198.27 34.9099C197.27 34.9099 197.133 34.352 197.133 33.7941C197.133 33.1753 197.346 32.6934 198.27 32.6934C199.193 32.6934 199.406 33.1347 199.406 33.7941C199.406 34.3926 199.233 34.9099 198.27 34.9099ZM199.289 45.3737C199.289 45.5867 199.213 45.7389 198.944 45.7389H197.575C197.306 45.7389 197.189 45.6222 197.189 45.3737V36.6649C197.189 36.3961 197.306 36.2997 197.575 36.2997H198.944C199.213 36.2997 199.289 36.4518 199.289 36.6649V45.3737Z"
    fill="white"
  />
<path
    d="M204.843 45.8963C203.879 45.8963 202.586 45.7593 201.856 45.4702C201.47 45.318 201.394 45.1405 201.45 44.8362L201.587 44.2022C201.643 43.8928 201.78 43.8725 202.089 43.9131C202.936 44.05 204.169 44.1464 204.823 44.1464C206.055 44.1464 206.558 43.8167 206.558 43.0457C206.558 42.1581 206.228 41.9654 205.016 41.7929C203.129 41.5241 201.47 41.1183 201.47 39.0185C201.47 37.1114 202.936 36.1071 205.092 36.1071C205.883 36.1071 207.212 36.2238 208.023 36.5332C208.353 36.6701 208.485 36.8223 208.429 37.1114L208.277 37.8063C208.221 38.0751 208.104 38.1157 207.755 38.0751C206.928 37.9787 205.847 37.8621 205.132 37.8621C203.9 37.8621 203.611 38.207 203.611 38.9424C203.611 39.6779 204.072 39.7895 205.249 39.9822C207.08 40.251 208.738 40.6162 208.738 42.9139C208.738 45.2115 206.831 45.9013 204.848 45.9013L204.843 45.8963Z"
    fill="white"
  />
<path
    d="M213.689 45.8963C212.725 45.8963 211.432 45.7593 210.702 45.4702C210.316 45.318 210.24 45.1405 210.296 44.8362L210.433 44.2022C210.494 43.8928 210.626 43.8725 210.935 43.9131C211.782 44.05 213.014 44.1464 213.674 44.1464C214.906 44.1464 215.408 43.8167 215.408 43.0457C215.408 42.1581 215.084 41.9654 213.867 41.7929C211.98 41.5241 210.321 41.1183 210.321 39.0185C210.321 37.1114 211.787 36.1071 213.943 36.1071C214.734 36.1071 216.063 36.2238 216.874 36.5332C217.199 36.6701 217.336 36.8223 217.28 37.1114L217.128 37.8063C217.067 38.0751 216.955 38.1157 216.606 38.0751C215.779 37.9787 214.698 37.8621 213.983 37.8621C212.751 37.8621 212.462 38.207 212.462 38.9424C212.462 39.6779 212.923 39.7895 214.1 39.9822C215.931 40.251 217.589 40.6162 217.589 42.9139C217.589 45.2115 215.682 45.9013 213.694 45.9013L213.689 45.8963Z"
    fill="white"
  />
<path
    d="M220.724 34.9099C219.72 34.9099 219.588 34.352 219.588 33.7941C219.588 33.1753 219.801 32.6934 220.724 32.6934C221.647 32.6934 221.86 33.1347 221.86 33.7941C221.86 34.3926 221.688 34.9099 220.724 34.9099ZM221.743 45.3737C221.743 45.5867 221.667 45.7389 221.398 45.7389H220.029C219.76 45.7389 219.643 45.6222 219.643 45.3737V36.6649C219.643 36.3961 219.76 36.2997 220.029 36.2997H221.398C221.667 36.2997 221.743 36.4518 221.743 36.6649V45.3737Z"
    fill="white"
  />
<path
    d="M228.063 45.8963C224.188 45.8963 223.94 43.066 223.94 40.8647C223.94 39.054 224.346 36.1071 228.063 36.1071C231.781 36.1071 232.324 38.5924 232.324 40.8647C232.324 43.137 232.055 45.8963 228.063 45.8963ZM228.084 37.9584C226.445 37.9584 226.08 38.9982 226.08 41.0017C226.08 43.0052 226.445 44.0449 228.063 44.0449C229.818 44.0449 230.163 43.061 230.163 41.0017C230.163 38.9424 229.834 37.9584 228.084 37.9584Z"
    fill="white"
  />
<path
    d="M242.002 45.7443H240.617C240.368 45.7443 240.252 45.6276 240.252 45.3791L240.272 39.9621C240.272 38.8259 240.003 38.0753 238.887 38.0753C238.116 38.0753 236.767 38.694 236.245 38.9426V45.3791C236.245 45.6124 236.148 45.7443 235.88 45.7443H234.51C234.241 45.7443 234.145 45.6276 234.145 45.3791V36.6855C234.145 36.437 234.241 36.3 234.51 36.3H235.88C236.148 36.3 236.245 36.437 236.245 36.6855V37.2637C236.245 37.2637 236.285 37.284 236.301 37.284C237.016 36.7819 238.365 36.1276 239.536 36.1276C242.138 36.1276 242.372 37.8419 242.372 39.7896V45.3791C242.372 45.6124 242.296 45.7443 242.007 45.7443H242.002Z"
    fill="white"
  />
<path
    d="M146.57 61.8885C146.626 63.8362 147.321 64.3738 148.903 64.3738C149.598 64.3738 150.678 64.2369 151.409 64.1608C151.754 64.1202 151.87 64.1202 151.931 64.4905L152.048 65.1245C152.109 65.4136 152.068 65.5658 151.723 65.723C150.972 66.0121 149.562 66.2049 148.619 66.2049C144.937 66.2049 144.399 63.8565 144.399 61.3509C144.399 59.4793 144.744 56.4005 148.502 56.4005C151.951 56.4005 152.57 58.6373 152.626 60.7169C152.646 61.4117 152.454 61.8936 151.683 61.8936H146.575L146.57 61.8885ZM146.59 60.443H150.404C150.404 59.2662 150.095 58.1301 148.497 58.1301C147.072 58.1301 146.687 58.9974 146.59 60.443Z"
    fill="white"
  />
<path
    d="M162.182 66.0326H160.812C160.523 66.0326 160.447 65.8957 160.447 65.6674V65.0689L160.407 65.0486C159.656 65.5711 158.347 66.2051 157.171 66.2051C154.569 66.2051 154.32 64.6631 154.32 62.6394V56.9739C154.32 56.7405 154.416 56.5884 154.685 56.5884H156.09C156.339 56.5884 156.435 56.7253 156.435 56.9739V62.3909C156.435 63.5473 156.668 64.2777 157.84 64.2777C158.667 64.2777 159.94 63.6589 160.442 63.4103V56.9739C160.442 56.7405 160.518 56.5884 160.807 56.5884H162.177C162.446 56.5884 162.542 56.7253 162.542 56.9739V65.6674C162.542 65.916 162.446 66.0326 162.177 66.0326H162.182Z"
    fill="white"
  />
<path
    d="M167.076 65.6621C167.076 65.8954 166.98 66.0273 166.711 66.0273H165.321C165.052 66.0273 164.956 65.9106 164.956 65.6621V56.9685C164.956 56.72 165.052 56.583 165.321 56.583H166.691C166.98 56.583 167.076 56.7352 167.076 56.9685V57.8156L167.117 57.8561C167.695 57.3185 169.065 56.6591 169.967 56.4867C170.216 56.4309 170.393 56.4867 170.429 56.8164L170.566 58.1097C170.586 58.3786 170.606 58.4952 170.201 58.5713C169.12 58.7843 167.751 59.1698 167.076 59.4589V65.6621Z"
    fill="white"
  />
<path
    d="M175.557 66.1847C171.682 66.1847 171.433 63.3544 171.433 61.1531C171.433 59.3424 171.839 56.3955 175.557 56.3955C179.275 56.3955 179.817 58.8808 179.817 61.1531C179.817 63.4254 179.549 66.1847 175.557 66.1847ZM175.577 58.2468C173.939 58.2468 173.574 59.2866 173.574 61.2901C173.574 63.2936 173.939 64.3333 175.557 64.3333C177.312 64.3333 177.657 63.3494 177.657 61.2901C177.657 59.2308 177.332 58.2468 175.577 58.2468Z"
    fill="white"
  />
<path
    d="M186.198 66.2052C185.564 66.2052 184.677 66.0885 183.789 65.7791L183.769 65.7994V69.1927C183.769 69.4057 183.713 69.5781 183.403 69.5781H182.034C181.725 69.5781 181.669 69.4412 181.669 69.1927V56.974C181.669 56.7254 181.765 56.5885 182.034 56.5885H183.403C183.672 56.5885 183.748 56.7407 183.748 56.974V57.5522L183.804 57.5928C184.499 57.1109 185.732 56.4363 186.847 56.4363C189.373 56.4363 190.028 58.3434 190.028 61.2548C190.028 64.3945 189.236 66.2052 186.193 66.2052H186.198ZM186.35 58.3587C185.559 58.3587 184.347 58.9166 183.769 59.226V64.0445C184.636 64.293 185.331 64.3742 185.985 64.3742C187.375 64.3742 187.857 63.659 187.857 61.2345C187.857 58.8101 187.375 58.3637 186.355 58.3637L186.35 58.3587Z"
    fill="white"
  />
<path
    d="M193.735 61.8885C193.791 63.8362 194.486 64.3739 196.069 64.3739C196.763 64.3739 197.839 64.2369 198.574 64.1608C198.919 64.1203 199.036 64.1203 199.097 64.4905L199.213 65.1245C199.269 65.4136 199.234 65.5658 198.884 65.723C198.133 66.0121 196.723 66.2049 195.779 66.2049C192.097 66.2049 191.559 63.8565 191.559 61.3509C191.559 59.4793 191.904 56.4005 195.663 56.4005C199.112 56.4005 199.731 58.6373 199.786 60.7169C199.807 61.4118 199.614 61.8936 198.843 61.8936H193.735V61.8885ZM193.751 60.443H197.565C197.565 59.2663 197.255 58.1301 195.658 58.1301C194.232 58.1301 193.847 58.9974 193.751 60.443ZM198.224 52.3682C198.437 52.4849 198.417 52.637 198.3 52.7943L196.337 55.4926C196.241 55.6296 196.145 55.6854 195.972 55.6093L195.222 55.2644C195.085 55.1883 195.029 55.0919 195.125 54.8992L196.667 51.9117C196.763 51.719 196.916 51.719 197.093 51.7951L198.229 52.3733L198.224 52.3682Z"
    fill="white"
  />
<path
    d="M203.524 61.8885C203.585 63.8362 204.275 64.3738 205.857 64.3738C206.552 64.3738 207.633 64.2369 208.363 64.1608C208.708 64.1202 208.825 64.1202 208.885 64.4905L209.002 65.1245C209.058 65.4136 209.022 65.5658 208.672 65.723C207.922 66.0121 206.517 66.2049 205.568 66.2049C201.886 66.2049 201.348 63.8565 201.348 61.3509C201.348 59.4793 201.693 56.4005 205.452 56.4005C208.901 56.4005 209.519 58.6373 209.575 60.7169C209.596 61.4117 209.403 61.8936 208.632 61.8936H203.524V61.8885ZM203.545 60.443H207.359C207.359 59.2662 207.049 58.1301 205.452 58.1301C204.026 58.1301 203.641 58.9974 203.545 60.443Z"
    fill="white"
  />
<path
    d="M219.116 66.0326H217.731C217.483 66.0326 217.366 65.9159 217.366 65.6674L217.387 60.2504C217.387 59.1142 217.118 58.3636 216.002 58.3636C215.231 58.3636 213.882 58.9824 213.359 59.2309V65.6674C213.359 65.9007 213.263 66.0326 212.994 66.0326H211.625C211.356 66.0326 211.259 65.9159 211.259 65.6674V56.9738C211.259 56.7253 211.356 56.5883 211.625 56.5883H212.994C213.263 56.5883 213.359 56.7253 213.359 56.9738V57.552C213.359 57.552 213.4 57.5723 213.415 57.5723C214.13 57.0702 215.479 56.4159 216.651 56.4159C219.253 56.4159 219.486 58.1303 219.486 60.0779V65.6674C219.486 65.9007 219.41 66.0326 219.121 66.0326H219.116Z"
    fill="white"
  />
<path
    d="M229.291 66.0326H227.906C227.658 66.0326 227.541 65.9159 227.541 65.6674L227.561 60.2504C227.561 59.1142 227.292 58.3636 226.177 58.3636C225.406 58.3636 224.056 58.9824 223.539 59.2309V65.6674C223.539 65.9007 223.443 66.0326 223.174 66.0326H221.804C221.536 66.0326 221.439 65.9159 221.439 65.6674V56.9738C221.439 56.7253 221.536 56.5883 221.804 56.5883H223.174C223.443 56.5883 223.539 56.7253 223.539 56.9738V57.552C223.539 57.552 223.58 57.5723 223.595 57.5723C224.31 57.0702 225.659 56.4159 226.831 56.4159C229.433 56.4159 229.666 58.1303 229.666 60.0779V65.6674C229.666 65.9007 229.59 66.0326 229.301 66.0326H229.291Z"
    fill="white"
  />
<path
    d="M233.668 61.8885C233.724 63.8362 234.419 64.3738 236.001 64.3738C236.696 64.3738 237.771 64.2369 238.507 64.1608C238.852 64.1202 238.968 64.1202 239.029 64.4905L239.146 65.1245C239.202 65.4136 239.166 65.5658 238.816 65.723C238.066 66.0121 236.655 66.2049 235.712 66.2049C232.03 66.2049 231.492 63.8565 231.492 61.3509C231.492 59.4793 231.837 56.4005 235.595 56.4005C239.044 56.4005 239.663 58.6373 239.719 60.7169C239.739 61.4117 239.547 61.8936 238.776 61.8936H233.668V61.8885ZM233.688 60.443H237.503C237.503 59.2662 237.193 58.1301 235.595 58.1301C234.17 58.1301 233.785 58.9974 233.688 60.443Z"
    fill="white"
  />
</svg>
