<svg
  width="290"
  height="72"
  viewBox="0 0 290 72"
  fill="none"
  xmlns="http://www.w3.org/2000/svg"
>
<path
    d="M29.0595 64.8961H84.7641L84.759 28.8354L29.0544 28.8405L29.0595 64.8961Z"
    fill="#003399"
  />
<path
    d="M57.4401 33.3809H59.4717L57.8331 34.6449L58.4712 36.6472L56.8429 35.4135L55.2146 36.6472L55.8526 34.6449L54.2039 33.3809H56.2303L56.8429 31.4292L57.4401 33.3809Z"
    fill="#FFED00"
  />
<path
    d="M57.5115 59.1573H59.5431L57.9097 60.3759L58.5426 62.3023L56.9143 61.1141L55.286 62.3023L55.9292 60.3759L54.2753 59.1573H56.3018L56.9143 57.2815L57.5115 59.1573Z"
    fill="#FFED00"
  />
<path
    d="M63.9482 57.4534H65.9849L64.3464 58.6669L64.9844 60.5933L63.351 59.4051L61.7227 60.5933L62.3659 58.6669L60.712 57.4534H62.7385L63.351 55.5725L63.9482 57.4534Z"
    fill="#FFED00"
  />
<path
    d="M63.9482 35.1H65.9849L64.3464 36.3185L64.9844 38.2449L63.351 37.0567L61.7227 38.2449L62.3659 36.3185L60.712 35.1H62.7385L63.351 33.2241L63.9482 35.1Z"
    fill="#FFED00"
  />
<path
    d="M68.7311 39.8377H70.7575L69.1241 41.0512L69.7571 42.9776L68.1288 41.7894L66.5005 42.9776L67.1436 41.0512L65.4898 39.8377H67.5162L68.1288 37.9568L68.7311 39.8377Z"
    fill="#FFED00"
  />
<path
    d="M68.7311 52.7815H70.7575L69.1241 54L69.7571 55.9264L68.1288 54.7382L66.5005 55.9264L67.1436 54L65.4898 52.7815H67.5162L68.1288 50.9056L68.7311 52.7815Z"
    fill="#FFED00"
  />
<path
    d="M70.5176 46.2085H72.5543L70.9158 47.427L71.5487 49.3534L69.9204 48.1652L68.2921 49.3534L68.9353 47.427L67.2814 46.2085H69.3079L69.9204 44.3326L70.5176 46.2085Z"
    fill="#FFED00"
  />
<path
    d="M50.8809 35.1203H52.9074L51.274 36.3338L51.9069 38.2602L50.2786 37.072L48.6503 38.2602L49.2934 36.3338L47.6447 35.1203H49.6661L50.2786 33.2394L50.8809 35.1203Z"
    fill="#FFED00"
  />
<path
    d="M46.2308 39.8527H48.2674L46.6289 41.0662L47.2619 42.9926L45.6336 41.8044L44.0052 42.9926L44.6484 41.0662L42.9946 39.8527H45.021L45.6336 37.9718L46.2308 39.8527Z"
    fill="#FFED00"
  />
<path
    d="M44.5055 46.2287H46.537L44.9036 47.4422L45.5366 49.3686L43.9083 48.1854L42.28 49.3686L42.9231 47.4422L41.2744 46.2287H43.2957L43.9083 44.3478L44.5055 46.2287Z"
    fill="#FFED00"
  />
<path
    d="M46.2308 52.7966H48.2674L46.6289 54.0152L47.2619 55.9416L45.6336 54.7534L44.0052 55.9416L44.6484 54.0152L42.9946 52.7966H45.021L45.6336 50.9208L46.2308 52.7966Z"
    fill="#FFED00"
  />
<path
    d="M50.9473 57.4685H52.9737L51.3403 58.682L51.9733 60.6084L50.3449 59.4202L48.7166 60.6084L49.3598 58.682L47.7111 57.4685H49.7324L50.3449 55.5876L50.9473 57.4685Z"
    fill="#FFED00"
  />
<path
    d="M94.9372 0.00505726C94.9372 0.00505726 106.917 18.9101 109.112 22.3736C111.302 25.8371 113.808 28.5826 122.675 30.4433C131.541 32.304 135.4 33.1837 135.4 33.1837V33.8562C135.4 33.8562 129.765 32.668 122.516 31.0652C115.268 29.4624 112.302 28.9214 109 24.3657C106.249 20.5736 94.9372 3.61517 94.9372 3.61517V0V0.00505726Z"
    fill="white"
  />
<path
    d="M94.9372 21.5949C94.9372 21.5949 105.845 32.9157 109 36.1668C112.348 39.6151 116.631 40.8893 122.573 41.941C128.244 42.9421 135.395 44.1 135.395 44.1V44.7371C135.395 44.7371 128.677 43.6449 122.573 42.6135C116.585 41.5972 112.394 41.0309 108.964 37.9011C105.891 35.1 94.9372 24.9219 94.9372 24.9219V21.5898V21.5949Z"
    fill="white"
  />
<path
    d="M94.9372 26.6966C94.9372 26.6966 105.309 36.2376 109 39.4988C112.394 42.4972 115.146 43.4325 122.608 44.7421C130.071 46.0517 135.395 46.8657 135.395 46.8657V47.5382C135.395 47.5382 128.642 46.441 122.573 45.4803C116.503 44.5247 112.634 44.1455 109 41.2281C104.809 37.8606 94.9372 29.8112 94.9372 29.8112V26.6915V26.6966Z"
    fill="white"
  />
<path
    d="M94.9372 32.1321C94.9372 32.1321 106.785 41.4456 109 43.0737C111.215 44.7018 114.145 46.6029 122.644 47.8214C131.071 49.0298 135.395 49.6265 135.395 49.6265V50.3343C135.395 50.3343 127.754 49.2371 122.644 48.6001C117.535 47.963 113.619 47.69 109.036 44.6664C104.574 41.7237 94.9372 35.004 94.9372 35.004V32.1321Z"
    fill="white"
  />
<path
    d="M94.9372 37.3601C94.9372 37.3601 106.82 45.1972 109.071 46.441C111.322 47.6798 113.967 49.7022 122.644 50.7994C131.322 51.8966 135.395 52.3921 135.395 52.3921V53.0646C135.395 53.0646 128.218 52.286 122.608 51.6843C117.004 51.0826 113.18 50.2685 109 47.9983C104.819 45.7331 94.9372 40.0095 94.9372 40.0095V37.3601Z"
    fill="white"
  />
<path
    d="M94.9372 42.5883C94.9372 42.5883 105.442 48.2512 109 50.0158C112.966 51.9878 116.396 52.9333 122.608 53.6664C128.708 54.3844 135.395 55.0821 135.395 55.0821V55.7192C135.395 55.7192 129.213 55.0619 122.608 54.4451C116.059 53.8282 113.727 53.5451 109 51.467C104.773 49.6063 94.9372 45.0658 94.9372 45.0658V42.5833V42.5883Z"
    fill="white"
  />
<path
    d="M94.9372 47.8871C94.9372 47.8871 103.237 51.4062 109.071 53.7017C114.809 55.9568 119.193 56.1489 122.68 56.5382C124.216 56.7101 135.395 57.8478 135.395 57.8478V58.4848C135.395 58.4848 128.718 57.9539 122.644 57.423C116.57 56.8921 113.951 56.6646 109.036 55.0517C104.059 53.4135 94.9372 50.2635 94.9372 50.2635V47.8921V47.8871Z"
    fill="white"
  />
<path
    d="M94.9372 53.2921C94.9372 53.2921 103.319 55.8657 109.036 57.3522C114.753 58.8387 120 59.4455 122.644 59.6174C125.288 59.7944 135.4 60.6084 135.4 60.6084V61.2101C135.4 61.2101 129.647 60.8208 122.608 60.3253C116.917 59.9258 112.348 59.5011 109 58.768C105.294 57.959 94.9372 55.5219 94.9372 55.5219V53.2921Z"
    fill="white"
  />
<path
    d="M94.9372 58.6062C94.9372 58.6062 101.792 59.7792 109.036 60.9674C114.467 61.8573 121.822 62.4186 122.608 62.454C123.394 62.4893 135.395 63.3034 135.395 63.3034V63.9405C135.395 63.9405 127.713 63.5461 122.608 63.268C117.29 62.9747 112.001 62.6562 109 62.3478C102.272 61.6551 94.9372 60.7349 94.9372 60.7349V58.6062Z"
    fill="white"
  />
<path
    d="M94.9372 64.1074C94.9372 64.1074 105.748 64.5119 109.036 64.5827C112.323 64.6535 135.395 65.5737 135.395 65.5737V66.1956H94.9372V64.1074Z"
    fill="white"
  />
<path
    d="M122.603 33.3657C112.818 31.2775 110.603 27.7332 108.959 25.5388C107.315 23.3393 94.9321 5.41516 94.9321 5.41516V8.71179C95.4222 9.34382 106.019 23.8348 108.995 27.627C112.348 31.8994 117.601 32.8702 122.603 33.932C127.6 34.9938 135.395 36.4753 135.395 36.4753V35.909C135.395 35.909 125.135 33.9017 122.603 33.3657Z"
    fill="white"
  />
<path
    d="M122.603 36.2022C114.569 34.6449 111.317 32.127 108.959 29.0831C106.601 26.0343 94.9321 10.446 94.9321 10.446V14.2786C95.4222 14.85 106.096 27.7534 108.959 30.9994C112.297 34.7865 116.958 35.7826 122.603 36.809C128.249 37.8354 135.39 39.1803 135.39 39.1803V38.614C135.39 38.614 127.238 37.1022 122.603 36.2073V36.2022Z"
    fill="white"
  />
<path
    d="M122.603 39.1399C114.247 37.5321 112.532 36.2124 108.995 32.3748C106.769 29.963 95.4119 16.6804 94.9321 16.1191V19.6585C94.9321 19.6585 105.544 30.8731 108.959 34.1849C113.436 38.5332 117.637 38.8619 122.603 39.7467C127.57 40.6315 135.39 42.0473 135.39 42.0473V41.4456C135.39 41.4456 125.947 39.7871 122.603 39.145V39.1399Z"
    fill="white"
  />
<path
    d="M0.00510552 27.7787C0.00510552 27.7787 27.6711 24.8562 35.4196 23.7792C47.6702 22.0803 57.6953 20.2702 66.9701 6.18875C66.9701 6.18875 66.9803 5.38987 66.9701 5.03088C61.2889 13.591 53.4536 19.4309 42.6628 21.1247C32.1222 22.7831 0 25.2051 0 25.2051V27.7787H0.00510552Z"
    fill="white"
  />
<path
    d="M0.00511169 24.2848C0.00511169 24.2848 25.6446 21.1045 34.0925 19.9314C47.4559 18.0809 56.8531 16.4174 66.9701 1.05669C66.9701 1.05669 66.9752 0.394331 66.9701 0.00500488C60.7733 9.34378 53.1218 15.3758 41.351 17.2264C29.8507 19.0365 0.00511169 21.6758 0.00511169 21.6758V24.2899V24.2848Z"
    fill="white"
  />
<path d="M26.1806 64.1326H0.020462V66.1854H26.1806V64.1326Z" fill="white" />
<path
    d="M66.9701 22.5708C66.9701 22.5708 66.9854 21.3624 66.9803 21.1045C65.7501 22.9601 64.132 24.6438 62.2638 26.1253H64.0963C65.1274 25.0736 66.0921 23.8955 66.965 22.5708H66.9701Z"
    fill="white"
  />
<path
    d="M66.9701 17.1102C66.9701 17.1102 66.9803 16.0383 66.9752 15.745C64.0095 20.2147 59.5942 23.7843 54.4897 26.1506L57.5014 26.1405C60.9826 24.1332 64.2188 21.2815 66.965 17.1102H66.9701Z"
    fill="white"
  />
<path
    d="M66.9701 11.6494C66.9701 11.6494 66.9803 10.714 66.9701 10.3904C61.8095 18.1718 53.7853 23.496 43.9746 25.0381C41.6521 25.4022 37.8697 25.8067 33.4748 26.2162L45.4549 26.1758C53.3617 24.4314 60.7631 21.0589 66.9599 11.6494H66.9701Z"
    fill="white"
  />
<path
    d="M26.1857 60.6742C12.8377 60.745 0.020462 60.8006 0.020462 60.8006V62.9394C0.020462 62.9394 13.4451 62.8433 26.1857 62.7371V60.6742Z"
    fill="white"
  />
<path
    d="M26.1857 57.0034C12.9295 57.15 0.0153351 57.2613 0.0153351 57.2613V59.4456C0.0153351 59.4456 13.5778 59.2686 26.1857 59.0714V57.0034Z"
    fill="white"
  />
<path
    d="M26.1806 53.3225C13.0214 53.55 0.0153351 53.722 0.0153351 53.722V55.9517C0.0153351 55.9517 13.7207 55.6837 26.1806 55.3905V53.3225Z"
    fill="white"
  />
<path
    d="M26.1857 49.6214C13.1235 49.9399 0.0153351 50.1776 0.0153351 50.1776V52.4478C0.0153351 52.4478 13.879 52.0736 26.1857 51.6843V49.6163V49.6214Z"
    fill="white"
  />
<path
    d="M26.1908 45.9102C13.2256 46.3197 0.0153351 46.6433 0.0153351 46.6433V48.959C0.0153351 48.959 14.0474 48.4736 26.1908 47.9781V45.9152V45.9102Z"
    fill="white"
  />
<path
    d="M26.1857 42.1838C13.3226 42.6995 0.0153351 43.104 0.0153351 43.104V45.4602C0.0153351 45.4602 14.2209 44.8433 26.1857 44.2315V42.1787V42.1838Z"
    fill="white"
  />
<path
    d="M26.1908 38.432C13.4247 39.059 0.0102234 39.5595 0.0102234 39.5595V41.9612C0.0102234 41.9612 14.4047 41.1977 26.1908 40.4646V38.432Z"
    fill="white"
  />
<path
    d="M26.1908 34.6602C13.5216 35.4085 0.0102234 36.0203 0.0102234 36.0203V38.4624C0.0102234 38.4624 14.5987 37.5321 26.1908 36.6725V34.6602Z"
    fill="white"
  />
<path
    d="M26.1908 30.868C13.6084 31.7478 0.0102234 32.486 0.0102234 32.486V34.9737C0.0102234 34.9737 14.7926 33.8512 26.1908 32.8602V30.8731V30.868Z"
    fill="white"
  />
<path
    d="M26.1908 27.0404C13.685 28.0668 0.00511169 28.9415 0.00511169 28.9415V31.4696C0.00511169 31.4696 14.9866 30.1247 26.1908 28.9921V27.0404Z"
    fill="white"
  />
<path
    d="M86.0759 66.1906V27.5461H27.7528V66.1906H86.0759ZM84.759 28.8355V64.8962H29.0544V28.8405H84.759V28.8355Z"
    fill="white"
  />
<path d="M234.272 66.4467V27.6853H230.963V66.4467H234.272Z" fill="white" />
<path
    d="M149.608 33.2083C150.552 33.2083 152.115 33.3453 153.135 33.7666C153.445 33.9037 153.562 34.056 153.501 34.3656L153.328 35.1575C153.272 35.391 153.176 35.4874 152.826 35.4468C151.882 35.3301 150.724 35.1981 149.719 35.1981C147.095 35.1981 146.709 37.3199 146.709 39.8275C146.709 42.3352 147.191 44.3402 149.719 44.3402C150.836 44.3402 151.78 44.2235 152.826 44.0915C153.191 44.0509 153.267 44.1473 153.349 44.4011L153.501 45.1321C153.577 45.4418 153.481 45.6143 153.171 45.7514C152.227 46.1575 150.547 46.3301 149.602 46.3301C145.303 46.3301 144.394 43.1473 144.394 39.8682C144.394 36.589 145.207 33.2133 149.602 33.2133L149.608 33.2083Z"
    fill="white"
  />
<path
    d="M159.024 46.2996C155.145 46.2996 154.897 43.4672 154.897 41.2641C154.897 39.4519 155.303 36.5027 159.024 36.5027C162.744 36.5027 163.288 38.99 163.288 41.2641C163.288 43.5382 163.018 46.2996 159.024 46.2996ZM159.044 38.3555C157.404 38.3555 157.039 39.3961 157.039 41.4012C157.039 43.4062 157.404 44.4468 159.024 44.4468C160.78 44.4468 161.125 43.4621 161.125 41.4012C161.125 39.3402 160.795 38.3555 159.044 38.3555Z"
    fill="white"
  />
<path
    d="M178.638 46.1472H177.247C176.978 46.1472 176.882 46.0304 176.882 45.7817V40.3045C176.882 38.8782 176.536 38.4721 175.572 38.4721C174.856 38.4721 173.699 39.0304 173.105 39.3401C173.105 39.533 173.125 39.8782 173.125 40.3249V45.7817C173.125 46.0152 173.049 46.1472 172.76 46.1472H171.354C171.105 46.1472 171.024 46.0304 171.024 45.7817V40.2081C171.024 39.0304 170.714 38.4721 169.75 38.4721C169.075 38.4721 167.993 38.9543 167.262 39.3401V45.7817C167.262 46.0152 167.166 46.1472 166.897 46.1472H165.506C165.257 46.1472 165.161 46.0304 165.161 45.7817V37.0812C165.161 36.8325 165.257 36.6954 165.506 36.6954H166.877C167.166 36.6954 167.262 36.8477 167.262 37.0812V37.6396L167.283 37.6599C168.034 37.137 169.095 36.5584 170.156 36.5228C171.273 36.5228 172.201 36.7563 172.795 37.8731C173.76 37.1573 174.953 36.5228 176.191 36.5228C178.734 36.5228 178.988 38.1827 178.988 40.1117V45.7817C178.988 46.0152 178.912 46.1472 178.643 46.1472H178.638Z"
    fill="white"
  />
<path
    d="M182.42 35.3096C181.415 35.3096 181.283 34.7512 181.283 34.1928C181.283 33.5735 181.496 33.0913 182.42 33.0913C183.344 33.0913 183.557 33.5329 183.557 34.1928C183.557 34.7918 183.384 35.3096 182.42 35.3096ZM183.44 45.7817C183.44 45.9949 183.364 46.1471 183.095 46.1471H181.724C181.455 46.1471 181.339 46.0304 181.339 45.7817V37.0659C181.339 36.7969 181.455 36.7004 181.724 36.7004H183.095C183.364 36.7004 183.44 36.8527 183.44 37.0659V45.7817Z"
    fill="white"
  />
<path
    d="M188.998 46.2996C188.034 46.2996 186.739 46.1626 186.008 45.8732C185.623 45.721 185.546 45.5433 185.602 45.2387L185.739 44.6042C185.8 44.2946 185.932 44.2743 186.242 44.3149C187.09 44.4519 188.323 44.5484 188.983 44.5484C190.217 44.5484 190.719 44.2184 190.719 43.4468C190.719 42.5585 190.394 42.3656 189.176 42.193C187.288 41.924 185.628 41.5179 185.628 39.4164C185.628 37.5078 187.095 36.5027 189.252 36.5027C190.044 36.5027 191.374 36.6194 192.186 36.9291C192.516 37.0661 192.648 37.2184 192.592 37.5078L192.44 38.2032C192.379 38.4722 192.267 38.5128 191.917 38.4722C191.09 38.3758 190.008 38.259 189.293 38.259C188.059 38.259 187.77 38.6042 187.77 39.3402C187.77 40.0763 188.232 40.188 189.409 40.3809C191.242 40.6499 192.902 41.0154 192.902 43.3149C192.902 45.6144 190.993 46.3047 189.003 46.3047L188.998 46.2996Z"
    fill="white"
  />
<path
    d="M197.851 46.2996C196.886 46.2996 195.592 46.1626 194.861 45.8732C194.475 45.721 194.399 45.5433 194.455 45.2387L194.592 44.6042C194.648 44.2946 194.785 44.2743 195.095 44.3149C195.942 44.4519 197.176 44.5484 197.831 44.5484C199.064 44.5484 199.567 44.2184 199.567 43.4468C199.567 42.5585 199.237 42.3656 198.024 42.193C196.135 41.924 194.475 41.5179 194.475 39.4164C194.475 37.5078 195.942 36.5027 198.1 36.5027C198.892 36.5027 200.221 36.6194 201.034 36.9291C201.364 37.0661 201.496 37.2184 201.44 37.5078L201.287 38.2032C201.232 38.4722 201.115 38.5128 200.765 38.4722C199.937 38.3758 198.856 38.259 198.14 38.259C196.907 38.259 196.617 38.6042 196.617 39.3402C196.617 40.0763 197.079 40.188 198.257 40.3809C200.089 40.6499 201.749 41.0154 201.749 43.3149C201.749 45.6144 199.841 46.3047 197.856 46.3047L197.851 46.2996Z"
    fill="white"
  />
<path
    d="M209.501 45.0457C208.536 45.7767 207.242 46.2996 205.953 46.2996C203.907 46.2996 203.308 45.1828 203.308 43.5635C203.288 41.3046 204.506 40.3402 206.932 40.3402H209.399V39.8376C209.399 38.6803 208.978 38.2742 207.394 38.2742C206.76 38.2742 205.541 38.3706 204.77 38.4468C204.384 38.5026 204.288 38.4874 204.232 38.2133L204.059 37.4975C204.019 37.2488 204.08 37.0914 204.501 36.9188C205.328 36.6295 206.856 36.4924 207.76 36.4924C211.095 36.4924 211.501 37.863 211.501 40.0204V43.7412C211.501 44.5331 211.597 44.5534 212.196 44.6295C212.486 44.6498 212.562 44.7056 212.562 44.9188V45.731C212.562 45.9442 212.425 46.0762 212.1 46.1371C211.79 46.193 211.481 46.2336 211.191 46.2336C210.283 46.2336 209.724 45.9645 209.531 45.0559L209.491 45.0356L209.501 45.0457ZM206.298 34.594C206.029 34.594 205.643 34.6701 205.237 35.3249C205.14 35.4772 205.085 35.5381 204.831 35.4011L204.293 35.1676C204.176 35.127 204.12 34.9747 204.176 34.8021C204.699 33.4315 205.582 32.9696 206.298 32.9696C207.338 32.9696 208.516 33.9341 209.267 33.9341C209.709 33.9341 210.003 33.7209 210.272 33.2183C210.369 33.0661 210.465 33.0051 210.699 33.1016L211.237 33.3503C211.43 33.4265 211.409 33.5635 211.374 33.7158C210.871 35.0457 210.161 35.5686 209.293 35.5686C208.425 35.5686 207.074 34.5838 206.303 34.5838L206.298 34.594ZM209.384 41.8478H207.034C206.069 41.8478 205.45 42.193 205.45 43.4671C205.45 44.3148 205.739 44.5838 206.648 44.5838C207.475 44.5838 208.653 44.1016 209.384 43.6752V41.8427V41.8478Z"
    fill="white"
  />
<path
    d="M217.892 46.2996C214.014 46.2996 213.765 43.4672 213.765 41.2641C213.765 39.4519 214.171 36.5027 217.892 36.5027C221.612 36.5027 222.156 38.99 222.156 41.2641C222.156 43.5382 221.887 46.2996 217.892 46.2996ZM217.912 38.3555C216.272 38.3555 215.907 39.3961 215.907 41.4012C215.907 43.4062 216.272 44.4468 217.892 44.4468C219.648 44.4468 219.993 43.4621 219.993 41.4012C219.993 39.3402 219.663 38.3555 217.912 38.3555Z"
    fill="white"
  />
<path
    d="M144.435 54.0302C144.435 53.7815 144.552 53.6444 144.821 53.6444H151.917C152.151 53.6444 152.283 53.7815 152.283 54.0099V55.2079C152.283 55.4414 152.186 55.553 151.897 55.553H146.633V58.8728H151.298C151.547 58.8728 151.684 58.9896 151.684 59.218V60.416C151.684 60.6495 151.587 60.7612 151.298 60.7612H146.633V64.5581H152.034C152.267 64.5581 152.379 64.6749 152.379 64.9236V66.1013C152.379 66.35 152.283 66.4464 152.014 66.4464H144.821C144.552 66.4464 144.435 66.3297 144.435 66.1013V54.0251V54.0302Z"
    fill="white"
  />
<path
    d="M162.1 66.4518H160.729C160.44 66.4518 160.364 66.3147 160.364 66.0863V65.4873L160.323 65.467C159.572 65.9898 158.257 66.6244 157.085 66.6244C154.481 66.6244 154.232 65.0812 154.232 63.0558V57.3858C154.232 57.1523 154.328 57 154.597 57H156.003C156.252 57 156.349 57.1371 156.349 57.3858V62.8071C156.349 63.9645 156.582 64.6954 157.755 64.6954C158.582 64.6954 159.856 64.0761 160.359 63.8274V57.3858C160.359 57.1523 160.435 57 160.724 57H162.095C162.364 57 162.46 57.1371 162.46 57.3858V66.0863C162.46 66.335 162.364 66.4518 162.095 66.4518H162.1Z"
    fill="white"
  />
<path
    d="M166.998 66.0862C166.998 66.3197 166.902 66.4517 166.633 66.4517H165.247C164.978 66.4517 164.881 66.3349 164.881 66.0862V57.3857C164.881 57.1369 164.978 56.9999 165.247 56.9999H166.617C166.907 56.9999 167.003 57.1522 167.003 57.3857V58.2334L167.044 58.274C167.623 57.7359 168.993 57.076 169.897 56.9034C170.145 56.8476 170.323 56.9034 170.359 57.2334L170.496 58.5278C170.516 58.7968 170.536 58.9136 170.13 58.9897C169.049 59.2029 167.683 59.5887 167.008 59.8781V66.0862H166.998Z"
    fill="white"
  />
<path
    d="M175.486 66.6042C171.607 66.6042 171.359 63.7717 171.359 61.5687C171.359 59.7565 171.765 56.8073 175.486 56.8073C179.206 56.8073 179.75 59.2946 179.75 61.5687C179.75 63.8428 179.481 66.6042 175.486 66.6042ZM175.506 58.66C173.866 58.66 173.501 59.7007 173.501 61.7057C173.501 63.7108 173.866 64.7514 175.486 64.7514C177.242 64.7514 177.587 63.7666 177.587 61.7057C177.587 59.6448 177.257 58.66 175.506 58.66Z"
    fill="white"
  />
<path
    d="M186.135 66.6244C185.501 66.6244 184.612 66.5077 183.724 66.198L183.704 66.2183V69.6143C183.704 69.8275 183.643 70.0001 183.338 70.0001H181.968C181.658 70.0001 181.602 69.863 181.602 69.6143V57.3858C181.602 57.1371 181.699 57.0001 181.968 57.0001H183.338C183.607 57.0001 183.684 57.1523 183.684 57.3858V57.9645L183.744 58.0051C184.44 57.5229 185.673 56.8478 186.79 56.8478C189.318 56.8478 189.973 58.7564 189.973 61.6701C189.973 64.8122 189.181 66.6244 186.135 66.6244ZM186.288 58.7767C185.496 58.7767 184.282 59.3351 183.704 59.6447V64.4671C184.572 64.7158 185.267 64.797 185.922 64.797C187.308 64.797 187.795 64.0813 187.795 61.6549C187.795 59.2285 187.313 58.7818 186.293 58.7818L186.288 58.7767Z"
    fill="white"
  />
<path
    d="M193.679 62.3044C193.74 64.2536 194.43 64.7917 196.014 64.7917C196.709 64.7917 197.79 64.6546 198.521 64.5785C198.866 64.5379 198.983 64.5379 199.044 64.9085L199.161 65.543C199.217 65.8323 199.181 65.9846 198.831 66.142C198.08 66.4313 196.674 66.6242 195.724 66.6242C192.039 66.6242 191.501 64.2739 191.501 61.7663C191.501 59.8932 191.846 56.812 195.608 56.812C199.059 56.812 199.679 59.0506 199.734 61.1318C199.755 61.8272 199.562 62.3095 198.79 62.3095H193.679V62.3044ZM193.699 60.8577H197.516C197.516 59.68 197.207 58.543 195.608 58.543C194.181 58.543 193.795 59.411 193.699 60.8577Z"
    fill="white"
  />
<path
    d="M202.841 55.6144C201.836 55.6144 201.704 55.056 201.704 54.4976C201.704 53.8784 201.917 53.3961 202.841 53.3961C203.765 53.3961 203.978 53.8377 203.978 54.4976C203.978 55.0966 203.805 55.6144 202.841 55.6144ZM203.861 66.0865C203.861 66.2997 203.785 66.452 203.516 66.452H202.145C201.876 66.452 201.759 66.3352 201.759 66.0865V57.3707C201.759 57.1017 201.876 57.0053 202.145 57.0053H203.516C203.785 57.0053 203.861 57.1575 203.861 57.3707V66.0865Z"
    fill="white"
  />
<path
    d="M212.212 65.3503C211.247 66.0813 209.953 66.6041 208.663 66.6041C206.618 66.6041 206.019 65.4873 206.019 63.8681C205.998 61.6092 207.217 60.6447 209.643 60.6447H212.11V60.1422C212.11 58.9848 211.689 58.5787 210.105 58.5787C209.471 58.5787 208.252 58.6752 207.481 58.7513C207.095 58.8071 206.998 58.7919 206.943 58.5178L206.77 57.8021C206.729 57.5533 206.79 57.396 207.212 57.2234C208.039 56.9341 209.567 56.797 210.471 56.797C213.806 56.797 214.212 58.1676 214.212 60.3249V64.0457C214.212 64.8376 214.308 64.8579 214.907 64.9341C215.196 64.9544 215.273 65.0102 215.273 65.2234V66.0356C215.273 66.2488 215.135 66.3808 214.811 66.4417C214.501 66.4975 214.191 66.5381 213.902 66.5381C212.993 66.5381 212.435 66.2691 212.242 65.3604L212.201 65.3401L212.212 65.3503ZM212.095 62.1472H209.745C208.78 62.1472 208.161 62.4924 208.161 63.7665C208.161 64.6143 208.45 64.8833 209.359 64.8833C210.186 64.8833 211.364 64.4011 212.095 63.9747V62.1422V62.1472Z"
    fill="white"
  />
</svg>
