<svg width="290" height="72" viewBox="0 0 290 72" fill="none" xmlns="http://www.w3.org/2000/svg">
<path fill-rule="evenodd" clip-rule="evenodd" d="M0 24.5C0 24.5 39.8 19.3 41 19.1C42.7 18.8 44.3 18.5 45.7 18.1C48.9 17.2 51.9 15.9 54.5 14.1C57 12.4 59.4 9.9 61.7 7.2C63.2 5.5 64.7 3.2 66.2 1V0C64.5 2.6 62.8 4.8 61.1 6.7C58.8 9.3 56.4 11.4 53.9 13C51.4 14.6 48.5 15.9 45.4 16.7C44 17.1 42.5 17.3 40.8 17.6C39.7 17.8 38.6 17.9 37.5 18C37 18 0 21.9 0 21.9V24.5Z" fill="white"/>
<mask id="mask0_1702_42782" style="mask-type:alpha" maskUnits="userSpaceOnUse" x="0" y="5" width="67" height="23">
<path fill-rule="evenodd" clip-rule="evenodd" d="M0 5.2002H66.0999V28.0002H0V5.2002Z" fill="white"/>
</mask>
<g mask="url(#mask0_1702_42782)">
<path fill-rule="evenodd" clip-rule="evenodd" d="M53.4 17.8002C50.9 19.2002 48 20.3002 44.8 20.9002C43.4 21.2002 42 21.4002 40.3 21.6002C39.3 21.7002 38.3 21.8002 37.3 21.9002C36.8 21.9002 36.2 22.0002 35.7 22.0002C23.5 23.2002 11.4 24.3002 0 25.4002V28.0002C11.4 26.6002 23.7 25.1002 35.9 23.7002C36.4 23.6002 37 23.6002 37.5 23.5002C38.5 23.4002 39.5 23.3002 40.5 23.1002C42.2 22.9002 43.8 22.6002 45.1 22.3002C48.4 21.6002 51.4 20.4002 54 18.8002C56.6 17.2002 58.8 15.1002 61.3 12.4002C62.8 10.7002 64.5 8.4002 66.1 6.2002V5.2002C64.2 7.7002 62.5 9.9002 60.7 11.7002C58.3 14.4002 55.9 16.4002 53.4 17.8002" fill="white"/>
</g>
<mask id="mask1_1702_42782" style="mask-type:alpha" maskUnits="userSpaceOnUse" x="0" y="10" width="67" height="22">
<path fill-rule="evenodd" clip-rule="evenodd" d="M0 10.9004H66.0999V31.5004H0V10.9004Z" fill="white"/>
</mask>
<g mask="url(#mask1_1702_42782)">
<path fill-rule="evenodd" clip-rule="evenodd" d="M60.4 17.2004C58 19.4004 55.4 21.2004 52.9 22.5004C50.4 23.7004 47.6 24.6004 44.3 25.1004C42.9 25.3004 41.5 25.5004 39.8 25.7004L0 28.9004V31.5004L35.3 27.7004L39.9 27.2004C41.6 27.0004 43.1 26.8004 44.5 26.5004C47.9 25.9004 50.8 24.9004 53.4 23.6004C56.1 22.2004 58.7 20.0004 61.2 17.6004C62.9 16.0004 64.4 13.9004 66.1 11.8004V10.9004C64.1 13.4004 62.3 15.4004 60.4 17.2004" fill="white"/>
</g>
<mask id="mask2_1702_42782" style="mask-type:alpha" maskUnits="userSpaceOnUse" x="0" y="21" width="67" height="18">
<path fill-rule="evenodd" clip-rule="evenodd" d="M0 21.7002H66.1998V38.5002H0V21.7002Z" fill="white"/>
</mask>
<g mask="url(#mask2_1702_42782)">
<path fill-rule="evenodd" clip-rule="evenodd" d="M50.8 30.6002C48.5 31.9002 46.8 32.7002 43.5 33.0002C41.5 33.2002 39.5 33.3002 37.5 33.4002C36.5 33.4002 35.6 33.5002 34.6 33.6002C28.6 33.9002 22.7 34.3002 16.7 34.7002L0 35.9002V38.5002L16.8 36.9002C22.2 36.4002 28.5 35.8002 34.7 35.3002L39.2 35.0002C40.9 34.9002 42.4 34.7002 43.7 34.5002C47.1 34.1002 50 33.4002 52.6 32.4002C55.4 31.4002 58 29.7002 60.6 27.8002C63 26.1002 66.2 22.7002 66.2 22.6002V21.7002C64.1 23.8002 62.8 25.0002 60.5 26.5002C57.6 28.5002 52.9 29.5002 50.8 30.6002" fill="white"/>
</g>
<path fill-rule="evenodd" clip-rule="evenodd" d="M51.5996 35.6004C49.0996 36.3004 46.2996 36.8004 42.9996 37.1004C41.6996 37.2004 40.1996 37.3004 38.5996 37.4004L34.1996 37.6004C23.1996 38.1004 12.1996 38.7004 0.0996094 39.3004V41.9004C11.6996 41.0004 22.9996 40.1004 34.3996 39.3004L38.7996 39.0004C40.4996 38.9004 41.8996 38.8004 43.2996 38.6004C46.6996 38.2004 49.5996 37.6004 52.0996 36.8004C54.8996 35.9004 57.6996 34.6004 60.2996 32.9004C62.1996 31.7004 64.1996 30.2004 66.1996 28.4004C63.9996 30.3004 61.8996 30.7004 59.7996 32.0004C57.0996 33.6004 54.3996 34.8004 51.5996 35.6004" fill="white"/>
<path fill-rule="evenodd" clip-rule="evenodd" d="M51.2 39.9002C48.7 40.5002 45.9 40.9002 42.6 41.0992C41.3 41.2002 39.9 41.2992 38.2 41.2992L33.8 41.5002C22.7 41.9002 11.5 42.4002 0 42.9002V45.5002C11.4 44.7002 22.6 44.0002 33.9 43.2002L38.3 42.9002C40 42.7992 41.4 42.7002 42.7 42.5992C46.1 42.2992 48.9 41.7992 51.5 41.0992C54.4 40.2992 57.2 39.2002 59.9 37.7992C62 36.7002 64 35.4002 66.1 33.7992V32.7002C63.8 34.4002 61.6 35.7002 59.4 36.7992C56.8 38.2002 54 39.2002 51.2 39.9002" fill="white"/>
<mask id="mask3_1702_42782" style="mask-type:alpha" maskUnits="userSpaceOnUse" x="0" y="38" width="67" height="11">
<path fill-rule="evenodd" clip-rule="evenodd" d="M0 38.2002H66.1998V48.7992H0V38.2002Z" fill="white"/>
</mask>
<g mask="url(#mask3_1702_42782)">
<path fill-rule="evenodd" clip-rule="evenodd" d="M50.8 44.0992C48.3 44.5992 45.5 44.9002 42.2 44.9992C40.9 45.0992 39.6 45.0992 37.9 45.2002L0 46.2002V48.7992L33.6 46.9992L38 46.7992C39.7 46.7002 41.1 46.5992 42.4 46.4992C45.8 46.2002 48.5 45.9002 51.1 45.2992C54 44.7002 56.9 43.7992 59.6 42.5992C61.8 41.7002 63.9 40.5992 66.2 39.2002V38.2002C63.8 39.5992 61.5 40.7002 59.2 41.5992C56.5 42.7992 53.7 43.5992 50.8 44.0992" fill="white"/>
</g>
<path fill-rule="evenodd" clip-rule="evenodd" d="M50.5 48.2998C45.8 48.9008 41.1 48.9998 36.4 49.0998C35.3 49.0998 34.3 49.0998 33.2 49.1998L0 49.7998V52.4008L33.3 50.9998C34.4 50.9998 35.4 50.9008 36.5 50.9008C41.2 50.6998 46 50.4998 50.7 49.7998C53.7 49.2998 56.6 48.5998 59.2 47.6998C61.4 46.9998 63.7 45.9998 66 44.7998V43.7998C63.6 44.9008 61.1 45.9008 58.8 46.5998C56.3 47.2998 53.5 47.9998 50.5 48.2998" fill="white"/>
<mask id="mask4_1702_42782" style="mask-type:alpha" maskUnits="userSpaceOnUse" x="0" y="49" width="67" height="7">
<path fill-rule="evenodd" clip-rule="evenodd" d="M0 49.2002H66.1998V55.7992H0V49.2002Z" fill="white"/>
</mask>
<g mask="url(#mask4_1702_42782)">
<path fill-rule="evenodd" clip-rule="evenodd" d="M50.3 52.5992C45.9 52.9992 41.5 52.9992 37.1 52.9992H33.1C22.1 52.9992 11.1 53.0992 0 53.2002V55.7992C10.6 55.4002 21.9 55.0992 33.2 54.7002C34.5 54.7002 35.9 54.5992 37.2 54.5992C41.5 54.4992 46 54.4002 50.4 53.9002C53.5 53.5992 56.3 53.0992 59 52.4002C61.3 51.7992 63.7 50.9992 66.2 50.0992V49.2002C63.7 50.0992 61.2 50.7992 58.8 51.4002C56.1 51.9992 53.3 52.4002 50.3 52.5992" fill="white"/>
</g>
<path fill-rule="evenodd" clip-rule="evenodd" d="M50.1 56.7994C48.3 56.9004 46.3 56.9004 44.1 56.9004H41.6L33 56.7994C27.1 56.7994 21.3 56.6994 15.8 56.6994L0 56.7994V59.4004L15.9 58.9994C21.4 58.9004 27.2 58.6994 33 58.5994L41.6 58.4994C44 58.4994 47.1 58.4004 50.2 58.1994C53.3 57.9994 56.1 57.6994 58.8 57.2994C61.2 56.9004 63.7 56.4004 66.2 55.7994V54.9004C63.7 55.4994 61.1 55.9994 58.7 56.2994C55.9 56.4994 53.2 56.6994 50.1 56.7994" fill="white"/>
<path fill-rule="evenodd" clip-rule="evenodd" d="M41.5 60.9L32.9 60.799C22 60.599 11.1 60.4 0 60.2V62.799C10.6 62.7 21.8 62.599 32.9 62.5L41.5 62.4C44.4 62.4 47.2 62.299 50.1 62.2C56 62 61.2 61.599 66.2 60.9V60C61.3 60.5 56 60.799 50.1 60.9H41.5" fill="white"/>
<path fill-rule="evenodd" clip-rule="evenodd" d="M66.1 65.4998L0 63.7998V66.3998H66.1V65.4998Z" fill="white"/>
<path fill-rule="evenodd" clip-rule="evenodd" d="M60.2 22.0004C57.7 24.0004 55.7 25.5004 52.7 26.7004C50 27.8004 47.1 28.2004 43.9 28.7004C41.8 29.0004 39.6 29.4004 37.5 29.6004C36.6 29.7004 35.8 29.7004 34.9 29.8004L0 32.3004V34.9004L34.9 31.5004L39.4 31.1004C41.1 30.9004 42.6 30.8004 44 30.5004C47.4 30.0004 50.3 29.1004 52.9 27.9004C55.6 26.7004 58.4 24.7004 60.9 22.6004C62.6 21.1004 64.3 19.3004 66.1 17.3004V16.4004C63.9 18.6004 62.1 20.5004 60.2 22.0004" fill="white"/>
<path fill-rule="evenodd" clip-rule="evenodd" d="M94.2012 0C94.2012 0 106.101 18.9 108.301 22.4C110.501 25.9 113.001 28.6 121.801 30.5C130.601 32.4 134.401 33.2 134.401 33.2V33.9C134.401 33.9 128.801 32.7 121.601 31.1C114.401 29.5 111.501 29 108.201 24.4C105.501 20.6 94.2012 4.5 94.2012 4.5V0Z" fill="white"/>
<path fill-rule="evenodd" clip-rule="evenodd" d="M94.2012 21.6006C94.2012 21.6006 105.001 32.9006 108.201 36.2006C111.501 39.7006 115.801 40.9006 121.701 42.0006C127.301 43.0006 134.401 44.2006 134.401 44.2006V44.8006C134.401 44.8006 127.701 43.7006 121.701 42.7006C115.801 41.7006 111.601 41.1006 108.201 38.0006C105.201 35.2006 94.3012 25.0006 94.3012 25.0006L94.2012 21.6006Z" fill="white"/>
<path fill-rule="evenodd" clip-rule="evenodd" d="M94.2012 26.7998C94.2012 26.7998 104.501 36.3998 108.201 39.5998C111.601 42.5998 114.301 43.4998 121.701 44.9008C129.101 46.1998 134.401 46.9998 134.401 46.9998V47.6998C134.401 47.6998 127.701 46.5998 121.701 45.5998C115.701 44.5998 111.801 44.2998 108.201 41.2998C104.001 37.9008 94.2012 29.8998 94.2012 29.8998V26.7998Z" fill="white"/>
<path fill-rule="evenodd" clip-rule="evenodd" d="M94.2012 32.2002C94.2012 32.2002 106.001 41.5002 108.201 43.2002C110.401 44.8002 113.301 46.7002 121.701 48.0002C130.101 49.2002 134.401 49.8002 134.401 49.8002V50.5002C134.401 50.5002 126.801 49.4002 121.701 48.8002C116.601 48.2002 112.701 47.9002 108.201 44.9002C103.801 42.0002 94.2012 35.2002 94.2012 35.2002V32.2002Z" fill="white"/>
<path fill-rule="evenodd" clip-rule="evenodd" d="M94.2012 37.4004C94.2012 37.4004 106.001 45.2994 108.201 46.5004C110.401 47.7004 113.101 49.7994 121.701 50.9004C130.301 52.0004 134.401 52.5004 134.401 52.5004V53.2004C134.401 53.2004 127.301 52.4004 121.701 51.7994C116.101 51.2004 112.301 50.4004 108.201 48.0994C104.101 45.7994 94.2012 40.0994 94.2012 40.0994V37.4004Z" fill="white"/>
<path fill-rule="evenodd" clip-rule="evenodd" d="M94.2012 42.7002C94.2012 42.7002 104.601 48.4002 108.201 50.0992C112.101 52.0992 115.501 53.0002 121.701 53.8002C127.801 54.5002 134.401 55.2002 134.401 55.2002V55.8002C134.401 55.8002 128.301 55.0992 121.701 54.5002C115.201 53.9002 112.901 53.5992 108.201 51.5002C104.001 49.5992 94.2012 45.0992 94.2012 45.0992V42.7002Z" fill="white"/>
<path fill-rule="evenodd" clip-rule="evenodd" d="M94.1996 48C94.1996 48 102.4 51.5 108.2 53.8C113.9 56.1 118.2 56.3 121.7 56.6C123.2 56.8 134.3 57.9 134.3 57.9V58.5C134.3 58.5 127.7 58 121.6 57.4C115.6 56.9 113 56.6 108.1 55C103.2 53.4 94.0996 50.2 94.0996 50.2L94.1996 48Z" fill="white"/>
<path fill-rule="evenodd" clip-rule="evenodd" d="M94.2012 53.4004C94.2012 53.4004 102.501 56.0004 108.201 57.5004C113.901 59.0004 119.101 59.5994 121.701 59.7994C124.301 60.0004 134.401 60.7994 134.401 60.7994V61.4004C134.401 61.4004 128.701 61.0004 121.701 60.5004C116.001 60.0994 111.501 59.7004 108.201 58.9004C104.501 58.0994 94.2012 55.5994 94.2012 55.5994V53.4004Z" fill="white"/>
<path fill-rule="evenodd" clip-rule="evenodd" d="M94.2012 58.7002C94.2012 58.7002 101.001 59.9002 108.201 61.0992C113.601 62.0002 120.901 62.5992 121.701 62.5992C122.501 62.5992 134.401 63.5002 134.401 63.5002V64.0992C134.401 64.0992 126.801 63.7002 121.701 63.4002C116.401 63.0992 111.201 62.8002 108.201 62.5002C101.501 61.8002 94.2012 60.9002 94.2012 60.9002V58.7002Z" fill="white"/>
<path fill-rule="evenodd" clip-rule="evenodd" d="M94.2012 64.2998C94.2012 64.2998 104.901 64.6998 108.201 64.7998C111.501 64.9008 134.401 65.7998 134.401 65.7998V66.4008H94.2012V64.2998Z" fill="white"/>
<path fill-rule="evenodd" clip-rule="evenodd" d="M121.701 33.3994C112.001 31.2994 109.801 27.7994 108.201 25.5994C106.601 23.3994 94.3008 5.39941 94.3008 5.39941V9.49941C94.8008 10.0994 105.301 23.8994 108.301 27.6994C111.601 31.9994 116.801 32.9994 121.801 33.9994C126.801 35.0994 134.501 36.5994 134.501 36.5994V35.9994C134.401 35.9994 124.201 33.9994 121.701 33.3994" fill="white"/>
<path fill-rule="evenodd" clip-rule="evenodd" d="M121.701 36.2994C113.701 34.6994 110.501 32.1994 108.201 29.1994C105.901 26.0994 94.3008 10.8994 94.3008 10.8994V14.6994C94.8008 15.2994 105.401 27.7994 108.201 31.0994C111.501 34.8994 116.101 35.8994 121.701 36.8994C127.301 37.9004 134.401 39.2994 134.401 39.2994V38.6994C134.401 38.6994 126.301 37.1994 121.701 36.2994" fill="white"/>
<path fill-rule="evenodd" clip-rule="evenodd" d="M121.701 39.2006C113.401 37.5996 111.701 36.3006 108.201 32.4006C106.001 30.0006 94.7012 16.7006 94.2012 16.1006V19.6006C94.2012 19.6006 104.701 30.8006 108.101 34.2006C112.501 38.5996 116.701 38.9006 121.601 39.8006C126.501 40.7006 134.301 42.0996 134.301 42.0996V41.5006C134.401 41.5006 125.001 39.9006 121.701 39.2006" fill="white"/>
<mask id="mask5_1702_42782" style="mask-type:alpha" maskUnits="userSpaceOnUse" x="0" y="0" width="277" height="67">
<path fill-rule="evenodd" clip-rule="evenodd" d="M0 66.7H276.7V0H0V66.7Z" fill="white"/>
</mask>
<g mask="url(#mask5_1702_42782)">
<path fill-rule="evenodd" clip-rule="evenodd" d="M27.5 66.2996H85.4V27.5996H27.5V66.2996Z" fill="#004494"/>
<path fill-rule="evenodd" clip-rule="evenodd" d="M57.1004 33.1006H59.1004L57.5004 34.4006L58.1004 36.4006L56.5004 35.2006L54.9004 36.4006L55.5004 34.4006L53.9004 33.1006H55.9004L56.5004 31.1006L57.1004 33.1006Z" fill="#FFF100"/>
<path fill-rule="evenodd" clip-rule="evenodd" d="M57.1004 58.9H59.1004L57.5004 60.099L58.1004 62L56.5004 60.799L54.9004 62L55.5004 60.099L53.9004 58.9H55.9004L56.5004 57L57.1004 58.9Z" fill="#FFF100"/>
<path fill-rule="evenodd" clip-rule="evenodd" d="M63.5008 57.1998H65.5008L63.9008 58.3998L64.5008 60.2998L62.9008 59.0988L61.3008 60.2998L61.9008 58.3998L60.3008 57.1998H62.3008L62.9008 55.2998L63.5008 57.1998Z" fill="#FFF100"/>
<path fill-rule="evenodd" clip-rule="evenodd" d="M63.5004 34.7994H65.5004L63.9004 35.9994L64.5004 37.9004L62.9004 36.6994L61.3004 37.9994L62.0004 35.9994L60.4004 34.7994H62.4004L63.0004 32.8994L63.5004 34.7994Z" fill="#FFF100"/>
<path fill-rule="evenodd" clip-rule="evenodd" d="M68.2996 39.5992H70.2996L68.6996 40.7992L69.2996 42.7002L67.6996 41.4992L66.0996 42.7002L66.6996 40.7992L65.0996 39.5992H67.0996L67.6996 37.7002L68.2996 39.5992Z" fill="#FFF100"/>
<path fill-rule="evenodd" clip-rule="evenodd" d="M68.2996 52.5992H70.2996L68.6996 53.7992L69.2996 55.7002L67.6996 54.4992L66.0996 55.7002L66.6996 53.7992L65.0996 52.5992H67.0996L67.6996 50.7002L68.2996 52.5992Z" fill="#FFF100"/>
<path fill-rule="evenodd" clip-rule="evenodd" d="M70.1008 45.9996H72.1008L70.5008 47.1996L71.1008 49.0996L69.5008 47.8996L67.9008 49.0996L68.5008 47.1996L66.8008 45.9996H68.8008L69.4008 44.0996L70.1008 45.9996Z" fill="#FFF100"/>
<path fill-rule="evenodd" clip-rule="evenodd" d="M50.5008 34.8H52.5008L50.9008 36L51.5008 37.901L50.0008 36.8L48.3008 38L48.9008 36.1L47.3008 34.9H49.3008L50.0008 33L50.5008 34.8Z" fill="#FFF100"/>
<path fill-rule="evenodd" clip-rule="evenodd" d="M45.8992 39.5992H47.8992L46.2992 40.7992L46.8992 42.7002L45.2992 41.4992L43.6992 42.7002L44.2992 40.7992L42.6992 39.5992H44.6992L45.2992 37.7002L45.8992 39.5992Z" fill="#FFF100"/>
<path fill-rule="evenodd" clip-rule="evenodd" d="M44.2 45.9996H46.2L44.6 47.1996L45.2 49.0996L43.6 47.8996L42 49.0996L42.6 47.1996L41 45.9996H43L43.6 44.0996L44.2 45.9996Z" fill="#FFF100"/>
<path fill-rule="evenodd" clip-rule="evenodd" d="M45.8992 52.5992H47.8992L46.2992 53.7992L46.8992 55.7002L45.2992 54.4992L43.6992 55.7002L44.2992 53.7992L42.6992 52.5992H44.6992L45.2992 50.7002L45.8992 52.5992Z" fill="#FFF100"/>
<path fill-rule="evenodd" clip-rule="evenodd" d="M50.6004 57.2994H52.6004L51.0004 58.4994L51.6004 60.4004L50.0004 59.1994L48.4004 60.4004L49.0004 58.4994L47.4004 57.2994H49.4004L50.0004 55.4004L50.6004 57.2994Z" fill="#FFF100"/>
</g>
<path fill-rule="evenodd" clip-rule="evenodd" d="M245.4 66.7H248.7V28H245.4V66.7Z" fill="white"/>
<path d="M144.58 45.5802C144.527 45.7402 144.46 45.8536 144.38 45.9202C144.3 45.9736 144.187 46.0002 144.04 46.0002H142.48C142.24 46.0002 142.167 45.8669 142.26 45.6002L146.3 33.1602C146.353 33.0136 146.413 32.9069 146.48 32.8402C146.547 32.7736 146.673 32.7402 146.86 32.7402H148.6C148.787 32.7402 148.913 32.7802 148.98 32.8602C149.047 32.9269 149.1 33.0269 149.14 33.1602L153.26 45.6402C153.327 45.8802 153.26 46.0002 153.06 46.0002H151.3C151.14 46.0002 151.027 45.9669 150.96 45.9002C150.907 45.8336 150.853 45.7269 150.8 45.5802L149.96 42.7002H145.48L144.58 45.5802ZM148.58 37.9802L147.76 35.1002H147.68L146.88 37.9402L146.04 40.8202H149.42L148.58 37.9802Z" fill="white"/>
<path d="M158.642 43.5402C158.642 43.5002 158.682 43.3602 158.762 43.1202C158.842 42.8669 158.929 42.5936 159.022 42.3002C159.129 41.9536 159.255 41.5736 159.402 41.1602L161.002 36.5202C161.042 36.4136 161.089 36.3336 161.142 36.2802C161.209 36.2269 161.315 36.2002 161.462 36.2002H162.982C163.249 36.2002 163.329 36.3269 163.222 36.5802L159.822 45.5802C159.769 45.7269 159.702 45.8336 159.622 45.9002C159.542 45.9669 159.422 46.0002 159.262 46.0002H157.922C157.735 46.0002 157.609 45.9736 157.542 45.9202C157.475 45.8536 157.415 45.7469 157.362 45.6002L153.962 36.6002C153.922 36.4936 153.915 36.4002 153.942 36.3202C153.969 36.2402 154.049 36.2002 154.182 36.2002H155.762C155.909 36.2002 156.009 36.2269 156.062 36.2802C156.129 36.3202 156.189 36.4136 156.242 36.5602L157.842 41.2402C157.962 41.6269 158.075 41.9869 158.182 42.3202C158.275 42.6002 158.355 42.8669 158.422 43.1202C158.502 43.3602 158.555 43.5002 158.582 43.5402H158.642Z" fill="white"/>
<path d="M167.202 45.6202C167.202 45.8736 167.076 46.0002 166.822 46.0002H165.382C165.129 46.0002 165.002 45.8736 165.002 45.6202V36.6002C165.002 36.3336 165.129 36.2002 165.382 36.2002H166.802C167.069 36.2002 167.202 36.3336 167.202 36.6002V37.4802L167.242 37.5202C167.389 37.3869 167.582 37.2469 167.822 37.1002C168.062 36.9402 168.316 36.8002 168.582 36.6802C168.862 36.5469 169.142 36.4269 169.422 36.3202C169.702 36.2136 169.962 36.1402 170.202 36.1002C170.336 36.0736 170.442 36.0802 170.522 36.1202C170.602 36.1602 170.656 36.2669 170.682 36.4402L170.822 37.7802C170.836 37.9269 170.829 38.0336 170.802 38.1002C170.776 38.1669 170.656 38.2202 170.442 38.2602C170.162 38.3136 169.869 38.3802 169.562 38.4602C169.256 38.5269 168.956 38.6069 168.662 38.7002C168.369 38.7802 168.096 38.8602 167.842 38.9402C167.589 39.0202 167.376 39.1002 167.202 39.1802V45.6202Z" fill="white"/>
<path d="M180.408 45.6202C180.408 45.8736 180.281 46.0002 180.028 46.0002H178.608C178.461 46.0002 178.361 45.9669 178.308 45.9002C178.254 45.8336 178.228 45.7402 178.228 45.6202V45.0002L178.188 44.9802C177.988 45.1136 177.754 45.2536 177.488 45.4002C177.234 45.5336 176.961 45.6602 176.668 45.7802C176.374 45.9002 176.068 45.9936 175.748 46.0602C175.441 46.1402 175.134 46.1802 174.828 46.1802C174.148 46.1802 173.608 46.0869 173.208 45.9002C172.821 45.7136 172.528 45.4536 172.328 45.1202C172.128 44.7869 172.001 44.3936 171.948 43.9402C171.894 43.4869 171.868 43.0002 171.868 42.4802V36.6002C171.868 36.3336 171.994 36.2002 172.248 36.2002H173.708C173.948 36.2002 174.068 36.3336 174.068 36.6002V42.2202C174.068 42.5269 174.088 42.8002 174.128 43.0402C174.168 43.2802 174.241 43.4869 174.348 43.6602C174.454 43.8202 174.601 43.9469 174.788 44.0402C174.974 44.1336 175.221 44.1802 175.528 44.1802C175.741 44.1802 175.974 44.1469 176.228 44.0802C176.494 44.0136 176.754 43.9336 177.008 43.8402C177.261 43.7336 177.494 43.6336 177.708 43.5402C177.921 43.4336 178.094 43.3469 178.228 43.2802V36.6002C178.228 36.4802 178.254 36.3869 178.308 36.3202C178.361 36.2402 178.461 36.2002 178.608 36.2002H180.028C180.281 36.2002 180.408 36.3336 180.408 36.6002V45.6202Z" fill="white"/>
<path d="M191.193 41.0402C191.193 41.8536 191.133 42.5802 191.013 43.2202C190.893 43.8602 190.679 44.4002 190.373 44.8402C190.079 45.2802 189.673 45.6136 189.153 45.8402C188.646 46.0669 187.999 46.1802 187.213 46.1802C186.879 46.1802 186.493 46.1469 186.053 46.0802C185.626 46.0136 185.179 45.9002 184.713 45.7402L184.693 45.7602V49.2802C184.693 49.3869 184.666 49.4802 184.613 49.5602C184.573 49.6402 184.473 49.6802 184.313 49.6802H182.893C182.733 49.6802 182.626 49.6469 182.573 49.5802C182.533 49.5136 182.513 49.4136 182.513 49.2802V36.6002C182.513 36.3336 182.639 36.2002 182.893 36.2002H184.313C184.459 36.2002 184.553 36.2402 184.593 36.3202C184.646 36.3869 184.673 36.4802 184.673 36.6002V37.2002L184.733 37.2402C184.906 37.1202 185.113 36.9936 185.353 36.8602C185.606 36.7136 185.873 36.5802 186.153 36.4602C186.433 36.3402 186.719 36.2402 187.013 36.1602C187.306 36.0802 187.599 36.0402 187.893 36.0402C188.546 36.0402 189.086 36.1602 189.513 36.4002C189.939 36.6402 190.273 36.9802 190.513 37.4202C190.766 37.8469 190.939 38.3669 191.033 38.9802C191.139 39.5936 191.193 40.2802 191.193 41.0402ZM188.933 41.0202C188.933 40.3802 188.899 39.8669 188.833 39.4802C188.779 39.0936 188.686 38.7936 188.553 38.5802C188.419 38.3669 188.253 38.2269 188.053 38.1602C187.866 38.0802 187.639 38.0402 187.373 38.0402C187.173 38.0402 186.946 38.0736 186.693 38.1402C186.439 38.2069 186.186 38.2869 185.933 38.3802C185.693 38.4602 185.459 38.5536 185.233 38.6602C185.019 38.7669 184.839 38.8602 184.693 38.9402V43.9402C185.146 44.0736 185.553 44.1669 185.913 44.2202C186.286 44.2602 186.646 44.2802 186.993 44.2802C187.353 44.2802 187.653 44.2336 187.893 44.1402C188.146 44.0336 188.346 43.8536 188.493 43.6002C188.653 43.3469 188.766 43.0136 188.833 42.6002C188.899 42.1736 188.933 41.6469 188.933 41.0202Z" fill="white"/>
<path d="M199.042 41.5402H196.602C196.096 41.5402 195.696 41.6602 195.402 41.9002C195.109 42.1269 194.962 42.5669 194.962 43.2202C194.962 43.6602 195.049 43.9669 195.222 44.1402C195.409 44.3002 195.736 44.3802 196.202 44.3802C196.416 44.3802 196.649 44.3536 196.902 44.3002C197.156 44.2469 197.409 44.1736 197.662 44.0802C197.916 43.9869 198.162 43.8869 198.402 43.7802C198.642 43.6602 198.856 43.5469 199.042 43.4402V41.5402ZM199.162 44.8602C198.656 45.2469 198.082 45.5602 197.442 45.8002C196.816 46.0402 196.162 46.1602 195.482 46.1602C194.949 46.1602 194.502 46.0936 194.142 45.9602C193.796 45.8136 193.516 45.6202 193.302 45.3802C193.102 45.1269 192.956 44.8269 192.862 44.4802C192.782 44.1336 192.742 43.7469 192.742 43.3202C192.729 42.1469 193.036 41.3002 193.662 40.7802C194.289 40.2469 195.236 39.9802 196.502 39.9802H199.062V39.4602C199.062 39.1669 199.029 38.9202 198.962 38.7202C198.909 38.5069 198.802 38.3336 198.642 38.2002C198.482 38.0669 198.269 37.9736 198.002 37.9202C197.736 37.8669 197.396 37.8402 196.982 37.8402C196.822 37.8402 196.622 37.8469 196.382 37.8602C196.156 37.8736 195.916 37.8869 195.662 37.9002C195.422 37.9136 195.176 37.9336 194.922 37.9602C194.682 37.9869 194.462 38.0069 194.262 38.0202C194.062 38.0469 193.922 38.0536 193.842 38.0402C193.776 38.0136 193.729 37.9269 193.702 37.7802L193.522 37.0402C193.496 36.9069 193.509 36.8002 193.562 36.7202C193.616 36.6269 193.756 36.5336 193.982 36.4402C194.196 36.3602 194.449 36.2936 194.742 36.2402C195.036 36.1869 195.336 36.1469 195.642 36.1202C195.949 36.0802 196.249 36.0536 196.542 36.0402C196.849 36.0136 197.122 36.0002 197.362 36.0002C198.229 36.0002 198.916 36.0869 199.422 36.2602C199.942 36.4336 200.336 36.6802 200.602 37.0002C200.869 37.3069 201.042 37.6869 201.122 38.1402C201.202 38.5936 201.242 39.1002 201.242 39.6602V43.5202C201.242 43.7202 201.249 43.8802 201.262 44.0002C201.289 44.1069 201.322 44.1936 201.362 44.2602C201.416 44.3136 201.489 44.3536 201.582 44.3802C201.676 44.4069 201.802 44.4269 201.962 44.4402C202.109 44.4536 202.209 44.4802 202.262 44.5202C202.316 44.5602 202.342 44.6336 202.342 44.7402V45.5802C202.342 45.8069 202.182 45.9469 201.862 46.0002C201.702 46.0269 201.542 46.0469 201.382 46.0602C201.222 46.0869 201.069 46.1002 200.922 46.1002C200.456 46.1002 200.076 46.0136 199.782 45.8402C199.502 45.6669 199.309 45.3469 199.202 44.8802L199.162 44.8602Z" fill="white"/>
<path d="M145.62 59.12L147.14 57.16L150.5 53.02C150.594 52.9133 150.687 52.84 150.78 52.8C150.874 52.7466 151 52.72 151.16 52.72H152.98C153.127 52.72 153.214 52.76 153.24 52.84C153.28 52.92 153.254 53.0133 153.16 53.12L148.82 58.4L153.3 65.58C153.38 65.7133 153.394 65.82 153.34 65.9C153.287 65.9666 153.207 66 153.1 66H151.26C151.087 66 150.954 65.9666 150.86 65.9C150.78 65.8333 150.7 65.74 150.62 65.62L147.34 60.18L145.58 62.36V65.62C145.58 65.7266 145.554 65.82 145.5 65.9C145.46 65.9666 145.367 66 145.22 66H143.72C143.454 66 143.32 65.8733 143.32 65.62V53.12C143.32 52.8533 143.454 52.72 143.72 52.72H145.22C145.367 52.72 145.46 52.76 145.5 52.84C145.554 52.9066 145.58 53 145.58 53.12V59.12H145.62Z" fill="white"/>
<path d="M163.182 60.94C163.182 61.5133 163.142 62.1066 163.062 62.72C162.995 63.3333 162.815 63.9 162.522 64.42C162.229 64.9266 161.789 65.3466 161.202 65.68C160.615 66 159.802 66.16 158.762 66.16C157.762 66.16 156.975 66 156.402 65.68C155.829 65.3466 155.395 64.9266 155.102 64.42C154.822 63.9 154.649 63.3333 154.582 62.72C154.515 62.1066 154.482 61.5133 154.482 60.94C154.482 60.4733 154.522 59.9533 154.602 59.38C154.695 58.8066 154.889 58.2733 155.182 57.78C155.475 57.2733 155.902 56.8533 156.462 56.52C157.035 56.1733 157.802 56 158.762 56C159.735 56 160.509 56.1466 161.082 56.44C161.669 56.7333 162.115 57.12 162.422 57.6C162.729 58.0666 162.929 58.5933 163.022 59.18C163.129 59.7666 163.182 60.3533 163.182 60.94ZM160.942 61.08C160.942 60.5466 160.915 60.0866 160.862 59.7C160.809 59.3 160.702 58.9733 160.542 58.72C160.382 58.4533 160.162 58.2533 159.882 58.12C159.602 57.9866 159.235 57.92 158.782 57.92C158.355 57.92 158.009 57.9866 157.742 58.12C157.475 58.2533 157.262 58.4533 157.102 58.72C156.955 58.9866 156.849 59.32 156.782 59.72C156.729 60.1066 156.702 60.56 156.702 61.08C156.702 61.6133 156.729 62.08 156.782 62.48C156.849 62.8666 156.955 63.1933 157.102 63.46C157.249 63.7133 157.455 63.9066 157.722 64.04C157.989 64.1733 158.335 64.24 158.762 64.24C159.215 64.24 159.582 64.18 159.862 64.06C160.155 63.9266 160.382 63.7333 160.542 63.48C160.702 63.2133 160.809 62.88 160.862 62.48C160.915 62.08 160.942 61.6133 160.942 61.08Z" fill="white"/>
<path d="M179.471 65.62C179.471 65.74 179.444 65.8333 179.391 65.9C179.351 65.9666 179.257 66 179.111 66H177.671C177.417 66 177.291 65.8733 177.291 65.62V59.94C177.291 59.1933 177.191 58.6933 176.991 58.44C176.791 58.1733 176.437 58.04 175.931 58.04C175.744 58.04 175.531 58.0733 175.291 58.14C175.064 58.2066 174.831 58.2866 174.591 58.38C174.364 58.46 174.144 58.5533 173.931 58.66C173.717 58.7666 173.531 58.86 173.371 58.94C173.371 59.0466 173.371 59.1866 173.371 59.36C173.384 59.5333 173.391 59.7333 173.391 59.96V65.62C173.391 65.74 173.364 65.8333 173.311 65.9C173.257 65.9666 173.157 66 173.011 66H171.551C171.324 66 171.211 65.8733 171.211 65.62V59.84C171.211 59.2266 171.117 58.7733 170.931 58.48C170.744 58.1866 170.397 58.04 169.891 58.04C169.717 58.04 169.517 58.0666 169.291 58.12C169.077 58.1733 168.851 58.2466 168.611 58.34C168.384 58.4333 168.157 58.5333 167.931 58.64C167.704 58.7466 167.497 58.8466 167.311 58.94V65.62C167.311 65.8733 167.184 66 166.931 66H165.491C165.251 66 165.131 65.8733 165.131 65.62V56.6C165.131 56.3333 165.251 56.2 165.491 56.2H166.911C167.177 56.2 167.311 56.3333 167.311 56.6V57.18L167.331 57.2C167.531 57.0666 167.744 56.9333 167.971 56.8C168.197 56.6533 168.437 56.5266 168.691 56.42C168.957 56.3133 169.224 56.2266 169.491 56.16C169.757 56.08 170.031 56.0333 170.311 56.02C170.884 56.02 171.404 56.1133 171.871 56.3C172.351 56.4733 172.744 56.8466 173.051 57.42C173.557 57.0466 174.111 56.72 174.711 56.44C175.311 56.16 175.931 56.02 176.571 56.02C177.224 56.02 177.744 56.12 178.131 56.32C178.517 56.52 178.811 56.7933 179.011 57.14C179.211 57.4733 179.337 57.8666 179.391 58.32C179.444 58.7733 179.471 59.2466 179.471 59.74V65.62Z" fill="white"/>
<path d="M184.215 53.6C184.215 53.76 184.202 53.9133 184.175 54.06C184.148 54.1933 184.088 54.3133 183.995 54.42C183.915 54.5266 183.795 54.6133 183.635 54.68C183.488 54.7333 183.288 54.76 183.035 54.76C182.768 54.76 182.555 54.7266 182.395 54.66C182.248 54.5933 182.135 54.5066 182.055 54.4C181.975 54.2933 181.922 54.1733 181.895 54.04C181.868 53.8933 181.855 53.7466 181.855 53.6C181.855 53.28 181.928 53.0133 182.075 52.8C182.235 52.5733 182.555 52.46 183.035 52.46C183.528 52.46 183.848 52.5666 183.995 52.78C184.142 52.98 184.215 53.2533 184.215 53.6ZM184.095 65.62C184.095 65.7266 184.068 65.82 184.015 65.9C183.975 65.9666 183.882 66 183.735 66H182.315C182.048 66 181.915 65.8733 181.915 65.62V56.58C181.915 56.3266 182.048 56.2 182.315 56.2H183.735C183.882 56.2 183.975 56.24 184.015 56.32C184.068 56.3866 184.095 56.4733 184.095 56.58V65.62Z" fill="white"/>
<path d="M193.896 63.06C193.896 63.6466 193.783 64.14 193.556 64.54C193.33 64.9266 193.023 65.24 192.636 65.48C192.263 65.72 191.836 65.8933 191.356 66C190.876 66.1066 190.376 66.16 189.856 66.16C189.35 66.16 188.803 66.12 188.216 66.04C187.63 65.9733 187.143 65.8666 186.756 65.72C186.556 65.64 186.43 65.5533 186.376 65.46C186.323 65.3533 186.31 65.22 186.336 65.06L186.476 64.4C186.503 64.24 186.556 64.1466 186.636 64.12C186.716 64.08 186.836 64.0733 186.996 64.1C187.21 64.14 187.443 64.1733 187.696 64.2C187.963 64.2266 188.223 64.2533 188.476 64.28C188.743 64.2933 188.99 64.3066 189.216 64.32C189.456 64.3333 189.663 64.34 189.836 64.34C190.476 64.34 190.936 64.2533 191.216 64.08C191.496 63.8933 191.636 63.6 191.636 63.2C191.636 62.9733 191.61 62.7866 191.556 62.64C191.516 62.4933 191.436 62.3733 191.316 62.28C191.196 62.1866 191.03 62.1133 190.816 62.06C190.616 61.9933 190.356 61.94 190.036 61.9C189.543 61.8333 189.076 61.7466 188.636 61.64C188.196 61.5333 187.803 61.38 187.456 61.18C187.123 60.9666 186.856 60.6933 186.656 60.36C186.456 60.0133 186.356 59.5666 186.356 59.02C186.356 58.0333 186.703 57.2866 187.396 56.78C188.09 56.26 188.996 56 190.116 56C190.316 56 190.55 56.0066 190.816 56.02C191.083 56.0333 191.35 56.06 191.616 56.1C191.896 56.14 192.17 56.1866 192.436 56.24C192.703 56.2933 192.943 56.36 193.156 56.44C193.49 56.5733 193.63 56.7733 193.576 57.04L193.416 57.76C193.39 57.9066 193.336 58 193.256 58.04C193.19 58.0666 193.063 58.0666 192.876 58.04C192.45 57.9866 191.983 57.94 191.476 57.9C190.97 57.8466 190.53 57.82 190.156 57.82C189.516 57.82 189.09 57.9133 188.876 58.1C188.676 58.2733 188.576 58.5533 188.576 58.94C188.576 59.3266 188.703 59.58 188.956 59.7C189.223 59.82 189.663 59.9266 190.276 60.02C190.756 60.0866 191.21 60.1733 191.636 60.28C192.076 60.3866 192.463 60.5466 192.796 60.76C193.13 60.9733 193.396 61.26 193.596 61.62C193.796 61.98 193.896 62.46 193.896 63.06Z" fill="white"/>
<path d="M199.656 63.2C199.803 62.7866 199.936 62.4 200.056 62.04C200.189 61.68 200.303 61.3666 200.396 61.1C200.503 60.78 200.603 60.4866 200.696 60.22L201.936 56.54C201.976 56.42 202.029 56.3333 202.096 56.28C202.163 56.2266 202.269 56.2 202.416 56.2H203.896C204.056 56.2 204.143 56.24 204.156 56.32C204.169 56.4 204.156 56.4933 204.116 56.6L199.456 69.32C199.403 69.4533 199.343 69.5466 199.276 69.6C199.209 69.6533 199.089 69.68 198.916 69.68H197.556C197.396 69.68 197.303 69.64 197.276 69.56C197.263 69.48 197.276 69.3866 197.316 69.28L198.576 65.9L195.076 56.6C195.036 56.4933 195.023 56.4 195.036 56.32C195.063 56.24 195.149 56.2 195.296 56.2H196.836C196.969 56.2 197.063 56.2133 197.116 56.24C197.169 56.2666 197.223 56.3533 197.276 56.5L198.576 60.22L199.576 63.2H199.656Z" fill="white"/>
<path d="M214.08 60.94C214.08 61.5133 214.04 62.1066 213.96 62.72C213.894 63.3333 213.714 63.9 213.42 64.42C213.127 64.9266 212.687 65.3466 212.1 65.68C211.514 66 210.7 66.16 209.66 66.16C208.66 66.16 207.874 66 207.3 65.68C206.727 65.3466 206.294 64.9266 206 64.42C205.72 63.9 205.547 63.3333 205.48 62.72C205.414 62.1066 205.38 61.5133 205.38 60.94C205.38 60.4733 205.42 59.9533 205.5 59.38C205.594 58.8066 205.787 58.2733 206.08 57.78C206.374 57.2733 206.8 56.8533 207.36 56.52C207.934 56.1733 208.7 56 209.66 56C210.634 56 211.407 56.1466 211.98 56.44C212.567 56.7333 213.014 57.12 213.32 57.6C213.627 58.0666 213.827 58.5933 213.92 59.18C214.027 59.7666 214.08 60.3533 214.08 60.94ZM211.84 61.08C211.84 60.5466 211.814 60.0866 211.76 59.7C211.707 59.3 211.6 58.9733 211.44 58.72C211.28 58.4533 211.06 58.2533 210.78 58.12C210.5 57.9866 210.134 57.92 209.68 57.92C209.254 57.92 208.907 57.9866 208.64 58.12C208.374 58.2533 208.16 58.4533 208 58.72C207.854 58.9866 207.747 59.32 207.68 59.72C207.627 60.1066 207.6 60.56 207.6 61.08C207.6 61.6133 207.627 62.08 207.68 62.48C207.747 62.8666 207.854 63.1933 208 63.46C208.147 63.7133 208.354 63.9066 208.62 64.04C208.887 64.1733 209.234 64.24 209.66 64.24C210.114 64.24 210.48 64.18 210.76 64.06C211.054 63.9266 211.28 63.7333 211.44 63.48C211.6 63.2133 211.707 62.88 211.76 62.48C211.814 62.08 211.84 61.6133 211.84 61.08Z" fill="white"/>
<path d="M224.509 65.62C224.509 65.74 224.482 65.8333 224.429 65.9C224.376 65.9666 224.276 66 224.129 66H222.689C222.436 66 222.309 65.8733 222.309 65.62L222.329 60C222.329 59.4133 222.229 58.94 222.029 58.58C221.842 58.22 221.462 58.04 220.889 58.04C220.689 58.04 220.456 58.0733 220.189 58.14C219.936 58.2066 219.676 58.2933 219.409 58.4C219.156 58.4933 218.916 58.5933 218.689 58.7C218.462 58.7933 218.282 58.8733 218.149 58.94V65.62C218.149 65.8733 218.022 66 217.769 66H216.349C216.096 66 215.969 65.8733 215.969 65.62V56.6C215.969 56.3333 216.096 56.2 216.349 56.2H217.769C218.022 56.2 218.149 56.3333 218.149 56.6V57.2C218.162 57.2 218.169 57.2066 218.169 57.22C218.182 57.22 218.196 57.22 218.209 57.22C218.396 57.0866 218.616 56.9533 218.869 56.82C219.136 56.6733 219.416 56.54 219.709 56.42C220.002 56.3 220.309 56.2066 220.629 56.14C220.949 56.06 221.262 56.02 221.569 56.02C222.249 56.02 222.782 56.1266 223.169 56.34C223.556 56.54 223.849 56.8133 224.049 57.16C224.249 57.5066 224.376 57.9133 224.429 58.38C224.482 58.8333 224.509 59.3133 224.509 59.82V65.62Z" fill="white"/>
<path d="M235.095 65.62C235.095 65.8733 234.969 66 234.715 66H233.295C233.149 66 233.049 65.9666 232.995 65.9C232.942 65.8333 232.915 65.74 232.915 65.62V65L232.875 64.98C232.675 65.1133 232.442 65.2533 232.175 65.4C231.922 65.5333 231.649 65.66 231.355 65.78C231.062 65.9 230.755 65.9933 230.435 66.06C230.129 66.14 229.822 66.18 229.515 66.18C228.835 66.18 228.295 66.0866 227.895 65.9C227.509 65.7133 227.215 65.4533 227.015 65.12C226.815 64.7866 226.689 64.3933 226.635 63.94C226.582 63.4866 226.555 63 226.555 62.48V56.6C226.555 56.3333 226.682 56.2 226.935 56.2H228.395C228.635 56.2 228.755 56.3333 228.755 56.6V62.22C228.755 62.5266 228.775 62.8 228.815 63.04C228.855 63.28 228.929 63.4866 229.035 63.66C229.142 63.82 229.289 63.9466 229.475 64.04C229.662 64.1333 229.909 64.18 230.215 64.18C230.429 64.18 230.662 64.1466 230.915 64.08C231.182 64.0133 231.442 63.9333 231.695 63.84C231.949 63.7333 232.182 63.6333 232.395 63.54C232.609 63.4333 232.782 63.3466 232.915 63.28V56.6C232.915 56.48 232.942 56.3866 232.995 56.32C233.049 56.24 233.149 56.2 233.295 56.2H234.715C234.969 56.2 235.095 56.3333 235.095 56.6V65.62Z" fill="white"/>
</svg>
