<svg
  width="290"
  height="72"
  viewBox="0 0 290 72"
  fill="none"
  xmlns="http://www.w3.org/2000/svg"
>
<path
    d="M29.0595 64.8961H84.7641L84.759 28.8354L29.0544 28.8405L29.0595 64.8961Z"
    fill="#003399"
  />
<path
    d="M57.4401 33.3809H59.4717L57.8331 34.6449L58.4712 36.6472L56.8429 35.4135L55.2146 36.6472L55.8526 34.6449L54.2039 33.3809H56.2303L56.8429 31.4292L57.4401 33.3809Z"
    fill="#FFED00"
  />
<path
    d="M57.5115 59.1573H59.5431L57.9097 60.3759L58.5426 62.3023L56.9143 61.1141L55.286 62.3023L55.9292 60.3759L54.2753 59.1573H56.3018L56.9143 57.2815L57.5115 59.1573Z"
    fill="#FFED00"
  />
<path
    d="M63.9482 57.4534H65.9849L64.3464 58.6669L64.9844 60.5933L63.351 59.4051L61.7227 60.5933L62.3659 58.6669L60.712 57.4534H62.7385L63.351 55.5725L63.9482 57.4534Z"
    fill="#FFED00"
  />
<path
    d="M63.9482 35.1H65.9849L64.3464 36.3185L64.9844 38.2449L63.351 37.0567L61.7227 38.2449L62.3659 36.3185L60.712 35.1H62.7385L63.351 33.2241L63.9482 35.1Z"
    fill="#FFED00"
  />
<path
    d="M68.7311 39.8377H70.7575L69.1241 41.0512L69.7571 42.9776L68.1288 41.7894L66.5005 42.9776L67.1436 41.0512L65.4898 39.8377H67.5162L68.1288 37.9568L68.7311 39.8377Z"
    fill="#FFED00"
  />
<path
    d="M68.7311 52.7815H70.7575L69.1241 54L69.7571 55.9264L68.1288 54.7382L66.5005 55.9264L67.1436 54L65.4898 52.7815H67.5162L68.1288 50.9056L68.7311 52.7815Z"
    fill="#FFED00"
  />
<path
    d="M70.5176 46.2085H72.5543L70.9158 47.427L71.5487 49.3534L69.9204 48.1652L68.2921 49.3534L68.9353 47.427L67.2814 46.2085H69.3079L69.9204 44.3326L70.5176 46.2085Z"
    fill="#FFED00"
  />
<path
    d="M50.8809 35.1203H52.9074L51.274 36.3338L51.9069 38.2602L50.2786 37.072L48.6503 38.2602L49.2934 36.3338L47.6447 35.1203H49.6661L50.2786 33.2394L50.8809 35.1203Z"
    fill="#FFED00"
  />
<path
    d="M46.2308 39.8527H48.2674L46.6289 41.0662L47.2619 42.9926L45.6336 41.8044L44.0052 42.9926L44.6484 41.0662L42.9946 39.8527H45.021L45.6336 37.9718L46.2308 39.8527Z"
    fill="#FFED00"
  />
<path
    d="M44.5055 46.2287H46.537L44.9036 47.4422L45.5366 49.3686L43.9083 48.1854L42.28 49.3686L42.9231 47.4422L41.2744 46.2287H43.2957L43.9083 44.3478L44.5055 46.2287Z"
    fill="#FFED00"
  />
<path
    d="M46.2308 52.7966H48.2674L46.6289 54.0152L47.2619 55.9416L45.6336 54.7534L44.0052 55.9416L44.6484 54.0152L42.9946 52.7966H45.021L45.6336 50.9208L46.2308 52.7966Z"
    fill="#FFED00"
  />
<path
    d="M50.9473 57.4685H52.9737L51.3403 58.682L51.9733 60.6084L50.3449 59.4202L48.7166 60.6084L49.3598 58.682L47.7111 57.4685H49.7324L50.3449 55.5876L50.9473 57.4685Z"
    fill="#FFED00"
  />
<path
    d="M94.9372 0.00505726C94.9372 0.00505726 106.917 18.9101 109.112 22.3736C111.302 25.8371 113.808 28.5826 122.675 30.4433C131.541 32.304 135.4 33.1837 135.4 33.1837V33.8562C135.4 33.8562 129.765 32.668 122.516 31.0652C115.268 29.4624 112.302 28.9214 109 24.3657C106.249 20.5736 94.9372 3.61517 94.9372 3.61517V0V0.00505726Z"
    fill="white"
  />
<path
    d="M94.9372 21.5949C94.9372 21.5949 105.845 32.9157 109 36.1668C112.348 39.6151 116.631 40.8893 122.573 41.941C128.244 42.9421 135.395 44.1 135.395 44.1V44.7371C135.395 44.7371 128.677 43.6449 122.573 42.6135C116.585 41.5972 112.394 41.0309 108.964 37.9011C105.891 35.1 94.9372 24.9219 94.9372 24.9219V21.5898V21.5949Z"
    fill="white"
  />
<path
    d="M94.9372 26.6966C94.9372 26.6966 105.309 36.2376 109 39.4988C112.394 42.4972 115.146 43.4325 122.608 44.7421C130.071 46.0517 135.395 46.8657 135.395 46.8657V47.5382C135.395 47.5382 128.642 46.441 122.573 45.4803C116.503 44.5247 112.634 44.1455 109 41.2281C104.809 37.8606 94.9372 29.8112 94.9372 29.8112V26.6915V26.6966Z"
    fill="white"
  />
<path
    d="M94.9372 32.1321C94.9372 32.1321 106.785 41.4456 109 43.0737C111.215 44.7018 114.145 46.6029 122.644 47.8214C131.071 49.0298 135.395 49.6265 135.395 49.6265V50.3343C135.395 50.3343 127.754 49.2371 122.644 48.6001C117.535 47.963 113.619 47.69 109.036 44.6664C104.574 41.7237 94.9372 35.004 94.9372 35.004V32.1321Z"
    fill="white"
  />
<path
    d="M94.9372 37.3601C94.9372 37.3601 106.82 45.1972 109.071 46.441C111.322 47.6798 113.967 49.7022 122.644 50.7994C131.322 51.8966 135.395 52.3921 135.395 52.3921V53.0646C135.395 53.0646 128.218 52.286 122.608 51.6843C117.004 51.0826 113.18 50.2685 109 47.9983C104.819 45.7331 94.9372 40.0095 94.9372 40.0095V37.3601Z"
    fill="white"
  />
<path
    d="M94.9372 42.5883C94.9372 42.5883 105.442 48.2512 109 50.0158C112.966 51.9878 116.396 52.9333 122.608 53.6664C128.708 54.3844 135.395 55.0821 135.395 55.0821V55.7192C135.395 55.7192 129.213 55.0619 122.608 54.4451C116.059 53.8282 113.727 53.5451 109 51.467C104.773 49.6063 94.9372 45.0658 94.9372 45.0658V42.5833V42.5883Z"
    fill="white"
  />
<path
    d="M94.9372 47.8871C94.9372 47.8871 103.237 51.4062 109.071 53.7017C114.809 55.9568 119.193 56.1489 122.68 56.5382C124.216 56.7101 135.395 57.8478 135.395 57.8478V58.4848C135.395 58.4848 128.718 57.9539 122.644 57.423C116.57 56.8921 113.951 56.6646 109.036 55.0517C104.059 53.4135 94.9372 50.2635 94.9372 50.2635V47.8921V47.8871Z"
    fill="white"
  />
<path
    d="M94.9372 53.2921C94.9372 53.2921 103.319 55.8657 109.036 57.3522C114.753 58.8387 120 59.4455 122.644 59.6174C125.288 59.7944 135.4 60.6084 135.4 60.6084V61.2101C135.4 61.2101 129.647 60.8208 122.608 60.3253C116.917 59.9258 112.348 59.5011 109 58.768C105.294 57.959 94.9372 55.5219 94.9372 55.5219V53.2921Z"
    fill="white"
  />
<path
    d="M94.9372 58.6062C94.9372 58.6062 101.792 59.7792 109.036 60.9674C114.467 61.8573 121.822 62.4186 122.608 62.454C123.394 62.4893 135.395 63.3034 135.395 63.3034V63.9405C135.395 63.9405 127.713 63.5461 122.608 63.268C117.29 62.9747 112.001 62.6562 109 62.3478C102.272 61.6551 94.9372 60.7349 94.9372 60.7349V58.6062Z"
    fill="white"
  />
<path
    d="M94.9372 64.1074C94.9372 64.1074 105.748 64.5119 109.036 64.5827C112.323 64.6535 135.395 65.5737 135.395 65.5737V66.1956H94.9372V64.1074Z"
    fill="white"
  />
<path
    d="M122.603 33.3657C112.818 31.2775 110.603 27.7332 108.959 25.5388C107.315 23.3393 94.9321 5.41516 94.9321 5.41516V8.71179C95.4222 9.34382 106.019 23.8348 108.995 27.627C112.348 31.8994 117.601 32.8702 122.603 33.932C127.6 34.9938 135.395 36.4753 135.395 36.4753V35.909C135.395 35.909 125.135 33.9017 122.603 33.3657Z"
    fill="white"
  />
<path
    d="M122.603 36.2022C114.569 34.6449 111.317 32.127 108.959 29.0831C106.601 26.0343 94.9321 10.446 94.9321 10.446V14.2786C95.4222 14.85 106.096 27.7534 108.959 30.9994C112.297 34.7865 116.958 35.7826 122.603 36.809C128.249 37.8354 135.39 39.1803 135.39 39.1803V38.614C135.39 38.614 127.238 37.1022 122.603 36.2073V36.2022Z"
    fill="white"
  />
<path
    d="M122.603 39.1399C114.247 37.5321 112.532 36.2124 108.995 32.3748C106.769 29.963 95.4119 16.6804 94.9321 16.1191V19.6585C94.9321 19.6585 105.544 30.8731 108.959 34.1849C113.436 38.5332 117.637 38.8619 122.603 39.7467C127.57 40.6315 135.39 42.0473 135.39 42.0473V41.4456C135.39 41.4456 125.947 39.7871 122.603 39.145V39.1399Z"
    fill="white"
  />
<path
    d="M0.00510552 27.7787C0.00510552 27.7787 27.6711 24.8562 35.4196 23.7792C47.6702 22.0803 57.6953 20.2702 66.9701 6.18875C66.9701 6.18875 66.9803 5.38987 66.9701 5.03088C61.2889 13.591 53.4536 19.4309 42.6628 21.1247C32.1222 22.7831 0 25.2051 0 25.2051V27.7787H0.00510552Z"
    fill="white"
  />
<path
    d="M0.00511169 24.2848C0.00511169 24.2848 25.6446 21.1045 34.0925 19.9314C47.4559 18.0809 56.8531 16.4174 66.9701 1.05669C66.9701 1.05669 66.9752 0.394331 66.9701 0.00500488C60.7733 9.34378 53.1218 15.3758 41.351 17.2264C29.8507 19.0365 0.00511169 21.6758 0.00511169 21.6758V24.2899V24.2848Z"
    fill="white"
  />
<path d="M26.1806 64.1326H0.020462V66.1854H26.1806V64.1326Z" fill="white" />
<path
    d="M66.9701 22.5708C66.9701 22.5708 66.9854 21.3624 66.9803 21.1045C65.7501 22.9601 64.132 24.6438 62.2638 26.1253H64.0963C65.1274 25.0736 66.0921 23.8955 66.965 22.5708H66.9701Z"
    fill="white"
  />
<path
    d="M66.9701 17.1102C66.9701 17.1102 66.9803 16.0383 66.9752 15.745C64.0095 20.2147 59.5942 23.7843 54.4897 26.1506L57.5014 26.1405C60.9826 24.1332 64.2188 21.2815 66.965 17.1102H66.9701Z"
    fill="white"
  />
<path
    d="M66.9701 11.6494C66.9701 11.6494 66.9803 10.714 66.9701 10.3904C61.8095 18.1718 53.7853 23.496 43.9746 25.0381C41.6521 25.4022 37.8697 25.8067 33.4748 26.2162L45.4549 26.1758C53.3617 24.4314 60.7631 21.0589 66.9599 11.6494H66.9701Z"
    fill="white"
  />
<path
    d="M26.1857 60.6742C12.8377 60.745 0.020462 60.8006 0.020462 60.8006V62.9394C0.020462 62.9394 13.4451 62.8433 26.1857 62.7371V60.6742Z"
    fill="white"
  />
<path
    d="M26.1857 57.0034C12.9295 57.15 0.0153351 57.2613 0.0153351 57.2613V59.4456C0.0153351 59.4456 13.5778 59.2686 26.1857 59.0714V57.0034Z"
    fill="white"
  />
<path
    d="M26.1806 53.3225C13.0214 53.55 0.0153351 53.722 0.0153351 53.722V55.9517C0.0153351 55.9517 13.7207 55.6837 26.1806 55.3905V53.3225Z"
    fill="white"
  />
<path
    d="M26.1857 49.6214C13.1235 49.9399 0.0153351 50.1776 0.0153351 50.1776V52.4478C0.0153351 52.4478 13.879 52.0736 26.1857 51.6843V49.6163V49.6214Z"
    fill="white"
  />
<path
    d="M26.1908 45.9102C13.2256 46.3197 0.0153351 46.6433 0.0153351 46.6433V48.959C0.0153351 48.959 14.0474 48.4736 26.1908 47.9781V45.9152V45.9102Z"
    fill="white"
  />
<path
    d="M26.1857 42.1838C13.3226 42.6995 0.0153351 43.104 0.0153351 43.104V45.4602C0.0153351 45.4602 14.2209 44.8433 26.1857 44.2315V42.1787V42.1838Z"
    fill="white"
  />
<path
    d="M26.1908 38.432C13.4247 39.059 0.0102234 39.5595 0.0102234 39.5595V41.9612C0.0102234 41.9612 14.4047 41.1977 26.1908 40.4646V38.432Z"
    fill="white"
  />
<path
    d="M26.1908 34.6602C13.5216 35.4085 0.0102234 36.0203 0.0102234 36.0203V38.4624C0.0102234 38.4624 14.5987 37.5321 26.1908 36.6725V34.6602Z"
    fill="white"
  />
<path
    d="M26.1908 30.868C13.6084 31.7478 0.0102234 32.486 0.0102234 32.486V34.9737C0.0102234 34.9737 14.7926 33.8512 26.1908 32.8602V30.8731V30.868Z"
    fill="white"
  />
<path
    d="M26.1908 27.0404C13.685 28.0668 0.00511169 28.9415 0.00511169 28.9415V31.4696C0.00511169 31.4696 14.9866 30.1247 26.1908 28.9921V27.0404Z"
    fill="white"
  />
<path
    d="M86.0759 66.1906V27.5461H27.7528V66.1906H86.0759ZM84.759 28.8355V64.8962H29.0544V28.8405H84.759V28.8355Z"
    fill="white"
  />
<path d="M269.103 66.1878V26.9834H265.756V66.1878H269.103Z" fill="white" />
<path
    d="M144.394 33.0931C144.394 32.8415 144.492 32.7029 144.764 32.7029H146.248C146.52 32.7029 146.617 32.8569 146.617 33.0931V45.2867C146.617 45.5023 146.52 45.6564 146.248 45.6564H144.764C144.492 45.6564 144.394 45.5383 144.394 45.2867V33.0931Z"
    fill="white"
  />
<path
    d="M150.463 43.2382C150.463 43.844 150.714 43.9005 151.382 43.9005C151.675 43.921 151.731 43.9416 151.772 44.1521L151.849 45.1481C151.87 45.3227 151.808 45.4202 151.598 45.5178C151.228 45.6923 150.663 45.7539 150.329 45.7539C148.866 45.7539 148.342 45.0711 148.342 43.7619V32.2716C148.342 32.0201 148.461 31.902 148.712 31.902H150.098C150.37 31.902 150.468 32.0406 150.468 32.2716V43.2331L150.463 43.2382Z"
    fill="white"
  />
<path
    d="M158.072 38.5764C158.308 38.5764 158.405 38.6534 158.405 38.8896V39.8856C158.405 40.1218 158.308 40.1988 158.072 40.1988H152.414C152.198 40.1988 152.08 40.1218 152.08 39.8856V38.8896C152.08 38.6534 152.198 38.5764 152.414 38.5764H158.072Z"
    fill="white"
  />
<path
    d="M162.148 38.946L163.632 37.0361L166.908 33.0007C167.082 32.8056 167.241 32.708 167.549 32.708H169.326C169.598 32.708 169.675 32.9031 169.5 33.0982L165.265 38.2478L169.634 45.2508C169.788 45.5023 169.654 45.6615 169.439 45.6615H167.642C167.308 45.6615 167.175 45.5229 167.015 45.2918L163.817 39.9882L162.102 42.1138V45.2918C162.102 45.5075 162.025 45.6615 161.753 45.6615H160.29C160.018 45.6615 159.9 45.5434 159.9 45.2918V33.0982C159.9 32.8466 160.018 32.708 160.29 32.708H161.753C162.025 32.708 162.102 32.862 162.102 33.0982V38.9511H162.143L162.148 38.946Z"
    fill="white"
  />
<path
    d="M178.105 45.6563H176.719C176.426 45.6563 176.349 45.5177 176.349 45.2867V44.6809L176.308 44.6603C175.548 45.1891 174.219 45.8309 173.033 45.8309C170.399 45.8309 170.147 44.2701 170.147 42.2216V36.4868C170.147 36.2506 170.245 36.0966 170.517 36.0966H171.939C172.191 36.0966 172.288 36.2352 172.288 36.4868V41.97C172.288 43.1406 172.524 43.8799 173.71 43.8799C174.547 43.8799 175.836 43.2536 176.344 43.002V36.4868C176.344 36.2506 176.421 36.0966 176.714 36.0966H178.1C178.372 36.0966 178.47 36.2352 178.47 36.4868V45.2867C178.47 45.5383 178.372 45.6563 178.1 45.6563H178.105Z"
    fill="white"
  />
<path
    d="M193.4 45.6563H191.993C191.721 45.6563 191.623 45.5383 191.623 45.2867V39.7469C191.623 38.3042 191.274 37.8935 190.299 37.8935C189.575 37.8935 188.404 38.4583 187.804 38.7714C187.804 38.9665 187.824 39.3157 187.824 39.7675V45.2867C187.824 45.5229 187.747 45.6563 187.455 45.6563H186.032C185.781 45.6563 185.699 45.5383 185.699 45.2867V39.6494C185.699 38.4583 185.385 37.8935 184.41 37.8935C183.727 37.8935 182.634 38.3813 181.894 38.7714V45.2867C181.894 45.5229 181.797 45.6563 181.525 45.6563H180.118C179.866 45.6563 179.769 45.5383 179.769 45.2867V36.4868C179.769 36.2352 179.866 36.0966 180.118 36.0966H181.504C181.797 36.0966 181.894 36.2506 181.894 36.4868V37.0515L181.915 37.072C182.675 36.5432 183.748 35.9579 184.821 35.922C185.95 35.922 186.89 36.1582 187.496 37.2877C188.471 36.5638 189.678 35.922 190.93 35.922C193.508 35.922 193.759 37.6009 193.759 39.5518V45.2867C193.759 45.5229 193.682 45.6563 193.41 45.6563H193.4Z"
    fill="white"
  />
<path
    d="M209.085 45.6563H207.678C207.406 45.6563 207.308 45.5383 207.308 45.2867V39.7469C207.308 38.3042 206.959 37.8935 205.984 37.8935C205.26 37.8935 204.089 38.4583 203.488 38.7714C203.488 38.9665 203.509 39.3157 203.509 39.7675V45.2867C203.509 45.5229 203.432 45.6563 203.139 45.6563H201.717C201.466 45.6563 201.383 45.5383 201.383 45.2867V39.6494C201.383 38.4583 201.07 37.8935 200.095 37.8935C199.412 37.8935 198.318 38.3813 197.579 38.7714V45.2867C197.579 45.5229 197.482 45.6563 197.209 45.6563H195.803C195.551 45.6563 195.454 45.5383 195.454 45.2867V36.4868C195.454 36.2352 195.551 36.0966 195.803 36.0966H197.189C197.482 36.0966 197.579 36.2506 197.579 36.4868V37.0515L197.6 37.072C198.359 36.5432 199.432 35.9579 200.506 35.922C201.635 35.922 202.575 36.1582 203.18 37.2877C204.156 36.5638 205.362 35.922 206.615 35.922C209.193 35.922 209.444 37.6009 209.444 39.5518V45.2867C209.444 45.5229 209.367 45.6563 209.095 45.6563H209.085Z"
    fill="white"
  />
<path
    d="M212.134 34.6949C211.118 34.6949 210.984 34.1302 210.984 33.5654C210.984 32.939 211.2 32.4513 212.134 32.4513C213.069 32.4513 213.284 32.898 213.284 33.5654C213.284 34.1712 213.11 34.6949 212.134 34.6949ZM213.166 45.2867C213.166 45.5023 213.089 45.6563 212.817 45.6563H211.431C211.159 45.6563 211.041 45.5383 211.041 45.2867V36.4713C211.041 36.1992 211.159 36.1017 211.431 36.1017H212.817C213.089 36.1017 213.166 36.2557 213.166 36.4713V45.2867Z"
    fill="white"
  />
<path
    d="M218.003 45.8155C217.027 45.8155 215.718 45.6769 214.979 45.3843C214.589 45.2302 214.512 45.0505 214.568 44.7425L214.707 44.1007C214.763 43.7875 214.902 43.767 215.215 43.8081C216.072 43.9467 217.32 44.0443 217.987 44.0443C219.235 44.0443 219.743 43.7105 219.743 42.9301C219.743 42.0317 219.41 41.8366 218.182 41.662C216.273 41.3899 214.594 40.9792 214.594 38.8536C214.594 36.9232 216.077 35.9066 218.259 35.9066C219.06 35.9066 220.406 36.0247 221.227 36.3379C221.561 36.4765 221.694 36.6305 221.638 36.9232L221.484 37.6266C221.427 37.8987 221.309 37.9397 220.955 37.8987C220.118 37.8011 219.024 37.683 218.301 37.683C217.053 37.683 216.76 38.0322 216.76 38.7766C216.76 39.5211 217.228 39.634 218.419 39.8291C220.272 40.1012 221.951 40.4709 221.951 42.7967C221.951 45.1224 220.021 45.8207 218.013 45.8207L218.003 45.8155Z"
    fill="white"
  />
<path
    d="M226.181 45.8155C225.206 45.8155 223.897 45.6769 223.157 45.3843C222.767 45.2302 222.69 45.0505 222.747 44.7425L222.885 44.1007C222.942 43.7875 223.08 43.767 223.394 43.8081C224.251 43.9467 225.499 44.0443 226.166 44.0443C227.414 44.0443 227.922 43.7105 227.922 42.9301C227.922 42.0317 227.588 41.8366 226.361 41.662C224.451 41.3899 222.772 40.9792 222.772 38.8536C222.772 36.9232 224.256 35.9066 226.438 35.9066C227.239 35.9066 228.584 36.0247 229.406 36.3379C229.739 36.4765 229.873 36.6305 229.816 36.9232L229.662 37.6266C229.606 37.8987 229.488 37.9397 229.134 37.8987C228.297 37.8011 227.203 37.683 226.479 37.683C225.232 37.683 224.939 38.0322 224.939 38.7766C224.939 39.5211 225.406 39.634 226.597 39.8291C228.451 40.1012 230.13 40.4709 230.13 42.7967C230.13 45.1224 228.199 45.8207 226.192 45.8207L226.181 45.8155Z"
    fill="white"
  />
<path
    d="M233.847 45.872C233.847 48.4082 232.774 49.8304 229.498 49.7123C229.359 49.7123 229.087 49.6353 229.067 49.3221L228.99 48.4031C228.949 48.0899 229.031 48.0335 229.303 47.9718C231.136 47.6022 231.701 47.4276 231.701 45.9028V36.4611C231.701 36.189 231.819 36.0914 232.091 36.0914H233.456C233.749 36.0914 233.847 36.2454 233.847 36.4611V45.8617V45.872ZM232.774 34.6949C231.757 34.6949 231.624 34.1302 231.624 33.5654C231.624 32.939 231.86 32.4513 232.774 32.4513C233.688 32.4513 233.924 32.898 233.924 33.5654C233.924 34.1712 233.749 34.6949 232.774 34.6949Z"
    fill="white"
  />
<path
    d="M239.484 45.8155C235.562 45.8155 235.31 42.9507 235.31 40.7225C235.31 38.8896 235.721 35.9066 239.484 35.9066C243.247 35.9066 243.797 38.4224 243.797 40.7225C243.797 43.0226 243.525 45.8155 239.484 45.8155ZM239.505 37.7806C237.846 37.7806 237.477 38.8331 237.477 40.8611C237.477 42.8891 237.846 43.9416 239.484 43.9416C241.26 43.9416 241.61 42.9455 241.61 40.8611C241.61 38.7766 241.276 37.7806 239.505 37.7806Z"
    fill="white"
  />
<path
    d="M252.807 45.6563H251.401C251.149 45.6563 251.031 45.5383 251.031 45.2867L251.051 39.8034C251.051 38.6534 250.779 37.8935 249.645 37.8935C248.864 37.8935 247.499 38.5199 246.97 38.7714V45.2867C246.97 45.5229 246.872 45.6563 246.6 45.6563H245.214C244.942 45.6563 244.844 45.5383 244.844 45.2867V36.4868C244.844 36.2352 244.942 36.0966 245.214 36.0966H246.6C246.872 36.0966 246.97 36.2352 246.97 36.4868V37.072C246.97 37.072 247.011 37.0926 247.026 37.0926C247.75 36.5843 249.116 35.922 250.302 35.922C252.936 35.922 253.167 37.6573 253.167 39.6289V45.2867C253.167 45.5229 253.09 45.6563 252.797 45.6563H252.807Z"
    fill="white"
  />
<path
    d="M255.816 34.6949C254.799 34.6949 254.666 34.1302 254.666 33.5654C254.666 32.939 254.881 32.4513 255.816 32.4513C256.75 32.4513 256.966 32.898 256.966 33.5654C256.966 34.1712 256.791 34.6949 255.816 34.6949ZM256.848 45.2867C256.848 45.5023 256.771 45.6563 256.499 45.6563H255.112C254.84 45.6563 254.722 45.5383 254.722 45.2867V36.4713C254.722 36.1992 254.84 36.1017 255.112 36.1017H256.499C256.771 36.1017 256.848 36.2557 256.848 36.4713V45.2867Z"
    fill="white"
  />
<path
    d="M144.41 53.6297C144.41 53.3781 144.528 53.2395 144.8 53.2395H151.978C152.214 53.2395 152.347 53.3781 152.347 53.6092V54.8208C152.347 55.057 152.25 55.1699 151.957 55.1699H146.633V58.5277H151.351C151.603 58.5277 151.741 58.6458 151.741 58.8768V60.0885C151.741 60.3246 151.644 60.4376 151.351 60.4376H146.633V64.2779H152.096C152.332 64.2779 152.445 64.396 152.445 64.6476V65.8387C152.445 66.0903 152.347 66.1878 152.075 66.1878H144.8C144.528 66.1878 144.41 66.0698 144.41 65.8387V53.6246V53.6297Z"
    fill="white"
  />
<path
    d="M161.245 60.5968L162.143 63.6002L162.164 63.5797L162.205 63.6002L163.124 60.3606L164.099 56.9874C164.156 56.7153 164.238 56.6383 164.469 56.6383H166.03C166.302 56.6383 166.281 56.8129 166.225 56.9874L163.36 65.7874C163.221 66.2186 162.97 66.1981 162.795 66.1981H161.681C161.43 66.1981 161.234 66.08 161.152 65.8079L160.469 63.7594L159.648 61.2796H159.607L158.785 63.7748L158.123 65.7463C158.026 66.0595 157.81 66.193 157.497 66.193H156.48C156.013 66.193 155.936 66.039 155.818 65.6642L152.891 57.0028C152.835 56.8283 152.871 56.6332 153.107 56.6332H154.668C154.919 56.6332 155.017 56.7307 155.099 56.9823L156.095 60.2784L157.071 63.6516H157.127L158.062 60.7046L158.667 58.9076L158.062 56.9977C158.005 56.8232 158.062 56.6281 158.277 56.6281H159.72C160.013 56.6281 160.069 56.7051 160.151 56.9977L161.245 60.5865V60.5968Z"
    fill="white"
  />
<path
    d="M169.341 65.8233C169.341 66.0595 169.244 66.193 168.972 66.193H167.565C167.293 66.193 167.195 66.0749 167.195 65.8233V57.0234C167.195 56.7718 167.293 56.6332 167.565 56.6332H168.951C169.244 56.6332 169.341 56.7872 169.341 57.0234V57.8808L169.382 57.9218C169.968 57.3776 171.354 56.7102 172.268 56.5356C172.519 56.4791 172.699 56.5356 172.735 56.8693L172.874 58.1785C172.894 58.4506 172.915 58.5687 172.504 58.6457C171.41 58.8614 170.024 59.2516 169.341 59.5442V65.8233Z"
    fill="white"
  />
<path
    d="M177.535 66.3522C173.613 66.3522 173.361 63.4873 173.361 61.2591C173.361 59.4262 173.772 56.4432 177.535 56.4432C181.299 56.4432 181.848 58.959 181.848 61.2591C181.848 63.5592 181.576 66.3522 177.535 66.3522ZM177.556 58.3172C175.898 58.3172 175.528 59.3697 175.528 61.3977C175.528 63.4257 175.898 64.4782 177.535 64.4782C179.312 64.4782 179.661 63.4822 179.661 61.3977C179.661 59.3132 179.327 58.3172 177.556 58.3172Z"
    fill="white"
  />
<path
    d="M187.526 66.3675C186.885 66.3675 185.986 66.2494 185.088 65.9362L185.067 65.9568V69.3915C185.067 69.6072 185.011 69.7817 184.698 69.7817H183.311C182.998 69.7817 182.942 69.6431 182.942 69.3915V57.0233C182.942 56.7718 183.039 56.6332 183.311 56.6332H184.698C184.97 56.6332 185.047 56.7872 185.047 57.0233V57.6086L185.103 57.6497C185.807 57.162 187.054 56.4791 188.184 56.4791C190.74 56.4791 191.403 58.4096 191.403 61.3566C191.403 64.5346 190.602 66.3675 187.521 66.3675H187.526ZM187.68 58.4301C186.88 58.4301 185.653 58.9949 185.067 59.3081V64.1855C185.945 64.4371 186.649 64.5192 187.311 64.5192C188.718 64.5192 189.205 63.7953 189.205 61.3412C189.205 58.887 188.718 58.4352 187.686 58.4352L187.68 58.4301Z"
    fill="white"
  />
<path
    d="M195.151 61.9984C195.207 63.9699 195.911 64.5141 197.512 64.5141C198.216 64.5141 199.309 64.3755 200.049 64.2985C200.398 64.2574 200.516 64.2574 200.577 64.6322L200.696 65.274C200.752 65.5666 200.716 65.7207 200.362 65.8798C199.602 66.1725 198.18 66.3676 197.22 66.3676C193.492 66.3676 192.948 63.9904 192.948 61.4542C192.948 59.5597 193.297 56.4432 197.102 56.4432C200.593 56.4432 201.219 58.7074 201.276 60.8124C201.296 61.5158 201.101 62.0035 200.321 62.0035H195.151V61.9984ZM195.171 60.5352H199.032C199.032 59.344 198.719 58.194 197.102 58.194C195.659 58.194 195.269 59.0719 195.171 60.5352Z"
    fill="white"
  />
<path
    d="M208.695 65.084C207.719 65.8234 206.41 66.3522 205.106 66.3522C203.037 66.3522 202.431 65.2227 202.431 63.5849C202.41 61.3002 203.643 60.3247 206.097 60.3247H208.592V59.8164C208.592 58.6458 208.166 58.2351 206.564 58.2351C205.922 58.2351 204.69 58.3326 203.91 58.4096C203.519 58.4661 203.422 58.4507 203.365 58.1735L203.191 57.4495C203.15 57.198 203.211 57.0388 203.637 56.8643C204.474 56.5716 206.02 56.433 206.934 56.433C210.307 56.433 210.717 57.8192 210.717 60.0012V63.7646C210.717 64.5655 210.815 64.586 211.421 64.663C211.713 64.6836 211.79 64.7401 211.79 64.9557V65.7771C211.79 65.9928 211.652 66.1263 211.323 66.1879C211.01 66.2444 210.697 66.2854 210.404 66.2854C209.485 66.2854 208.921 66.0133 208.725 65.0943L208.684 65.0738L208.695 65.084ZM208.577 61.8444H206.194C205.219 61.8444 204.592 62.1935 204.592 63.4822C204.592 64.3396 204.885 64.6117 205.804 64.6117C206.641 64.6117 207.832 64.1239 208.577 63.6927V61.8392V61.8444Z"
    fill="white"
  />
</svg>
