<svg
  width="290"
  height="66"
  viewBox="0 0 290 66"
  fill="none"
  xmlns="http://www.w3.org/2000/svg"
>
<path
    fill-rule="evenodd"
    clip-rule="evenodd"
    d="M43.4551 66H46.7551V27.3H43.4551V66Z"
    fill="white"
  />
<path
    d="M147.499 33.2378V41.6419H145.253V33.2145C145.253 31.7807 144.95 30.7677 144.343 30.1754C143.744 29.5832 142.704 29.2871 141.222 29.2871H135.565V27.3H141.259C142.748 27.3 143.95 27.5027 144.865 27.9079C145.779 28.3053 146.447 28.9403 146.868 29.8131C147.289 30.678 147.499 31.8196 147.499 33.2378ZM138.042 32.3261V41.6419H135.808V32.3261H138.042Z"
    fill="white"
  />
<path
    d="M131.716 32.8521V41.6419H124.905V39.6549H129.482V33.4599C129.482 32.1976 129.418 31.3053 129.288 30.7832C129.159 30.2456 128.932 29.8637 128.608 29.6378C128.292 29.404 127.835 29.2871 127.236 29.2871H125.597V27.3H127.163C128.458 27.3 129.405 27.4715 130.004 27.8143C130.603 28.165 131.036 28.7377 131.303 29.5326C131.579 30.3196 131.716 31.4261 131.716 32.8521Z"
    fill="white"
  />
<path
    d="M122.963 39.7951V41.6419H111.502V39.6549H120.182L110.603 27.3H113.396L118.021 33.3547C118.645 33.0976 119.098 32.7196 119.381 32.2209C119.664 31.7144 119.855 30.943 119.952 29.9066L120.231 27.3H122.538L122.295 29.8598C122.19 30.9352 122.024 31.7612 121.797 32.3378C121.571 32.9067 121.251 33.3781 120.838 33.7521C120.425 34.1262 119.842 34.4573 119.09 34.7457L122.963 39.7951Z"
    fill="white"
  />
<path d="M107.859 27.3V34.8392H105.626V27.3H107.859Z" fill="white" />
<path
    d="M103.137 39.6549V41.6419H90.1339V39.6549H99.2881V33.2145C99.2881 31.7807 98.9846 30.7677 98.3775 30.1754C97.7786 29.5832 96.7385 29.2871 95.2573 29.2871H90.7045V27.3H95.2816C97.5155 27.3 99.1141 27.7598 100.077 28.6793C101.04 29.5988 101.522 31.1183 101.522 33.2378V39.6549H103.137Z"
    fill="white"
  />
<path d="M87.0259 27.3V41.6419H84.7919V27.3H87.0259Z" fill="white" />
<path
    d="M70.5022 39.4211C70.227 40.2081 69.7899 40.777 69.191 41.1276C68.592 41.4705 67.6491 41.6419 66.3622 41.6419H66.2286V39.6549H66.435C66.9935 39.6549 67.4387 39.5536 67.7705 39.351C68.0943 39.1484 68.325 38.8406 68.4625 38.4276C68.6001 38.0068 68.6689 37.3717 68.6689 36.5223V29.2871H66.3622V27.3H74.4115C76.6455 27.3 78.248 27.7598 79.2193 28.6793C80.1906 29.591 80.6762 31.1105 80.6762 33.2378V41.6419H78.4423V33.2145C78.4423 31.7807 78.1388 30.7677 77.5317 30.1754C76.9328 29.5832 75.8846 29.2871 74.3873 29.2871H70.9029V36.0899C70.9029 37.5237 70.7693 38.6341 70.5022 39.4211Z"
    fill="white"
  />
<path
    d="M147.499 57.5798V65.9838H145.276V57.5564C145.276 56.1226 144.975 55.1096 144.374 54.5174C143.781 53.9251 142.751 53.629 141.285 53.629H135.684V51.642H141.321C142.796 51.642 143.985 51.8446 144.891 52.2498C145.796 52.6472 146.458 53.2823 146.874 54.155C147.291 55.02 147.499 56.1615 147.499 57.5798ZM138.136 56.6681V65.9838H135.924V56.6681H138.136Z"
    fill="white"
  />
<path
    d="M122.486 61.2733L121.525 65.9838H119.193L120.202 61.3201C120.491 59.9798 120.755 59.0369 120.996 58.4915C121.236 57.9382 121.537 57.4901 121.897 57.1473C122.266 56.8044 122.759 56.5122 123.376 56.2706L119.902 51.642H122.63L128.051 58.9006C128.652 58.3551 129.129 57.6966 129.482 56.9252C129.842 56.146 130.079 55.2537 130.191 54.2485L130.467 51.642H132.751L132.475 54.2018C132.386 55.0589 132.226 55.8109 131.994 56.4577C131.834 56.9018 131.641 57.3265 131.417 57.7317C131.192 58.1291 130.904 58.5421 130.551 58.9707C130.207 59.3993 129.758 59.8785 129.205 60.4084L133.544 65.9838H130.732L124.385 57.6031C123.744 57.907 123.288 58.433 123.015 59.1811C122.935 59.3759 122.851 59.6486 122.763 59.9993C122.683 60.35 122.59 60.7746 122.486 61.2733Z"
    fill="white"
  />
<path d="M116.308 51.642V59.1811H114.096V51.642H116.308Z" fill="white" />
<path
    d="M110.034 57.5798V65.9838H107.81V57.5564C107.81 56.1382 107.514 55.1291 106.921 54.529C106.336 53.929 105.306 53.629 103.832 53.629H99.3242V51.642H103.856C105.33 51.642 106.52 51.8446 107.426 52.2498C108.331 52.6472 108.992 53.2823 109.409 54.155C109.825 55.02 110.034 56.1615 110.034 57.5798Z"
    fill="white"
  />
<path d="M96.764 51.642V65.9838H94.5524V51.642H96.764Z" fill="white" />
<path
    d="M88.8551 58.0122C88.8551 56.5395 88.5225 55.4408 87.8574 54.7161C87.1923 53.9914 86.1466 53.629 84.7203 53.629H81.4028V57.6733H84.3236V59.6603H79.1551V51.642H84.7443C86.8918 51.642 88.4864 52.1641 89.5282 53.2082C90.5779 54.2446 91.1027 55.8615 91.1027 58.059V59.0175C91.1027 63.6617 88.843 65.9838 84.3236 65.9838H79.2874V63.9968H84.3837C85.9062 63.9968 87.0321 63.5877 87.7613 62.7695C88.4905 61.9435 88.8551 60.7006 88.8551 59.0408V58.0122Z"
    fill="white"
  />
<path d="M74.8401 51.642V59.1811H72.6284V51.642H74.8401Z" fill="white" />
<path
    d="M58.9861 63.763C58.7136 64.55 58.2809 65.1189 57.6879 65.4695C57.095 65.8124 56.1614 65.9838 54.8873 65.9838H54.7551V63.9968H54.9595C55.5124 63.9968 55.9531 63.8955 56.2816 63.6929C56.6022 63.4903 56.8305 63.1825 56.9668 62.7695C57.103 62.3487 57.1711 61.7136 57.1711 60.8642V53.629H54.8873V51.642H62.8564C65.068 51.642 66.6546 52.1017 67.6162 53.0212C68.5778 53.9329 69.0586 55.4524 69.0586 57.5798V65.9838H66.847V57.5564C66.847 56.1226 66.5465 55.1096 65.9455 54.5174C65.3525 53.9251 64.3148 53.629 62.8324 53.629H59.3827V60.4318C59.3827 61.8656 59.2505 62.976 58.9861 63.763Z"
    fill="white"
  />
<path
    d="M155.499 24.3524C155.499 24.3524 195.299 19.1837 196.499 18.9849C198.199 18.6867 199.799 18.3885 201.199 17.991C204.399 17.0964 207.399 15.8042 209.999 14.0151C212.499 12.3253 214.899 9.84035 217.199 7.15662C218.699 5.46686 220.199 3.18072 221.699 0.993975V0C219.999 2.58434 218.299 4.77108 216.599 6.65963C214.299 9.24397 211.899 11.3313 209.399 12.9217C206.899 14.512 203.999 15.8042 200.899 16.5994C199.499 16.997 197.999 17.1958 196.299 17.494C195.199 17.6928 194.099 17.7922 192.999 17.8916C192.499 17.8916 155.499 21.7681 155.499 21.7681V24.3524Z"
    fill="white"
  />
<path
    d="M208.899 17.6927C206.399 19.0843 203.499 20.1776 200.299 20.774C198.899 21.0722 197.499 21.271 195.799 21.4698C194.799 21.5692 193.799 21.6686 192.799 21.768C192.299 21.768 191.699 21.8674 191.199 21.8674C178.999 23.0602 166.899 24.1536 155.499 25.2469V27.8313C166.899 26.4397 179.199 24.9487 191.399 23.5572C191.899 23.4578 192.499 23.4578 192.999 23.3584C193.999 23.259 194.999 23.1596 195.999 22.9608C197.699 22.762 199.299 22.4638 200.599 22.1656C203.899 21.4698 206.899 20.277 209.499 18.6867C212.099 17.0963 214.299 15.009 216.799 12.3252C218.299 10.6355 219.999 8.34934 221.599 6.1626V5.16862C219.699 7.65356 217.999 9.84031 216.199 11.6295C213.799 14.3132 211.399 16.3011 208.899 17.6927Z"
    fill="white"
  />
<path
    d="M215.899 17.0964C213.499 19.2831 210.899 21.0723 208.399 22.3645C205.899 23.5572 203.099 24.4518 199.799 24.9488C198.399 25.1476 196.999 25.3464 195.299 25.5452L155.499 28.7259V31.3102L190.799 27.5331L195.399 27.0361C197.099 26.8374 198.599 26.6386 199.999 26.3404C203.399 25.744 206.299 24.75 208.899 23.4578C211.599 22.0663 214.199 19.8795 216.699 17.494C218.399 15.9036 219.899 13.8163 221.599 11.7289V10.8344C219.599 13.3193 217.799 15.3072 215.899 17.0964Z"
    fill="white"
  />
<path
    d="M206.299 30.4156C203.999 31.7078 202.299 32.5029 198.999 32.8011C196.999 32.9999 194.999 33.0993 192.999 33.1987C191.999 33.1987 191.099 33.2981 190.099 33.3975C184.099 33.6957 178.199 34.0933 172.199 34.4909L155.499 35.6837V38.268L172.299 36.6776C177.699 36.1807 183.999 35.5843 190.199 35.0873L194.699 34.7891C196.399 34.6897 197.899 34.4909 199.199 34.2921C202.599 33.8945 205.499 33.1987 208.099 32.2048C210.899 31.2108 213.499 29.521 216.099 27.6325C218.499 25.9427 221.699 22.5632 221.699 22.4638V21.5692C219.599 23.6566 218.299 24.8493 215.999 26.3403C213.099 28.3282 208.399 29.3222 206.299 30.4156Z"
    fill="white"
  />
<path
    d="M207.099 35.3855C204.599 36.0813 201.799 36.5783 198.499 36.8765C197.199 36.9759 195.699 37.0753 194.099 37.1747L189.699 37.3735C178.699 37.8705 167.699 38.4669 155.599 39.0633V41.6476C167.199 40.753 178.499 39.8584 189.899 39.0633L194.299 38.7651C195.999 38.6657 197.399 38.5663 198.799 38.3675C202.199 37.9699 205.099 37.3735 207.599 36.5783C210.399 35.6837 213.199 34.3916 215.799 32.7018C217.699 31.509 219.699 30.0181 221.699 28.2289C219.499 30.1175 217.399 30.5151 215.299 31.8072C212.599 33.3976 209.899 34.5904 207.099 35.3855Z"
    fill="white"
  />
<path
    d="M206.699 39.6596C204.199 40.256 201.399 40.6535 198.099 40.8523C196.799 40.9517 195.399 41.0511 193.699 41.0511L189.299 41.2499C178.199 41.6475 166.999 42.1445 155.499 42.6415V45.2258C166.899 44.4306 178.099 43.7349 189.399 42.9397L193.799 42.6415C195.499 42.5421 196.899 42.4427 198.199 42.3433C201.599 42.0451 204.399 41.5481 206.999 40.8523C209.899 40.0572 212.699 38.9638 215.399 37.5722C217.499 36.4788 219.499 35.1867 221.599 33.5963V32.5029C219.299 34.1927 217.099 35.4849 214.899 36.5782C212.299 37.9698 209.499 38.9638 206.699 39.6596Z"
    fill="white"
  />
<path
    d="M206.299 43.8343C203.799 44.3312 200.999 44.6294 197.699 44.7288C196.399 44.8282 195.099 44.8282 193.399 44.9276L155.499 45.9216V48.5059L189.099 46.7168L193.499 46.518C195.199 46.4186 196.599 46.3192 197.899 46.2198C201.299 45.9216 203.999 45.6234 206.599 45.027C209.499 44.4306 212.399 43.5361 215.099 42.3433C217.299 41.4487 219.399 40.3553 221.699 38.9638V37.9698C219.299 39.3614 216.999 40.4547 214.699 41.3493C211.999 42.5421 209.199 43.3373 206.299 43.8343Z"
    fill="white"
  />
<path
    d="M205.999 48.0091C201.299 48.6054 196.599 48.7048 191.899 48.8042C190.799 48.8042 189.799 48.8042 188.699 48.9036L155.499 49.5V52.0843L188.799 50.6928C189.899 50.6928 190.899 50.5934 191.999 50.5934C196.699 50.3946 201.499 50.1958 206.199 49.5C209.199 49.003 212.099 48.3072 214.699 47.4127C216.899 46.7169 219.199 45.7229 221.499 44.5301V43.5362C219.099 44.6295 216.599 45.6235 214.299 46.3193C211.799 47.0151 208.999 47.7109 205.999 48.0091Z"
    fill="white"
  />
<path
    d="M205.799 52.2831C201.399 52.6806 196.999 52.6806 192.599 52.6806C191.299 52.6806 189.899 52.6806 188.599 52.6806C177.599 52.6806 166.599 52.78 155.499 52.8794V55.4638C166.099 55.0662 177.399 54.768 188.699 54.3704C189.999 54.3704 191.399 54.271 192.699 54.271C196.999 54.1716 201.499 54.0722 205.899 53.5752C208.999 53.277 211.799 52.78 214.499 52.0843C216.799 51.4879 219.199 50.6927 221.699 49.7981V48.9035C219.199 49.7981 216.699 50.4939 214.299 51.0903C211.599 51.6867 208.799 52.0843 205.799 52.2831Z"
    fill="white"
  />
<path
    d="M205.599 56.4578C203.799 56.5572 201.799 56.5572 199.599 56.5572C198.799 56.5572 197.899 56.5572 197.099 56.5572L188.499 56.4578C182.599 56.4578 176.799 56.3584 171.299 56.3584L155.499 56.4578V59.0422L171.399 58.6446C176.899 58.5452 182.699 58.3464 188.499 58.247L197.099 58.1476C199.499 58.1476 202.599 58.0482 205.699 57.8494C208.799 57.6506 211.599 57.3524 214.299 56.9548C216.699 56.5572 219.199 56.0602 221.699 55.4638V54.5693C219.199 55.1656 216.599 55.6626 214.199 55.9608C211.399 56.1596 208.699 56.3584 205.599 56.4578Z"
    fill="white"
  />
<path
    d="M196.999 60.5331L188.399 60.4337C177.499 60.2349 166.599 60.0361 155.499 59.8373V62.4216C166.099 62.3222 177.299 62.2228 188.399 62.1235L196.999 62.0241C199.899 62.0241 202.699 61.9247 205.599 61.8253C211.499 61.6265 216.699 61.2289 221.699 60.5331V59.6385C216.799 60.1355 211.499 60.4337 205.599 60.5331C202.699 60.5331 199.799 60.5331 196.999 60.5331Z"
    fill="white"
  />
<path d="M221.599 65.1054L155.499 63.4157V66H221.599V65.1054Z" fill="white" />
<path
    d="M215.699 21.8675C213.199 23.8554 211.199 25.3464 208.199 26.5392C205.499 27.6325 202.599 28.0301 199.399 28.5271C197.299 28.8253 195.099 29.2229 192.999 29.4217C192.099 29.5211 191.299 29.5211 190.399 29.6205L155.499 32.1054V34.6898L190.399 31.3102L194.899 30.9127C196.599 30.7139 198.099 30.6145 199.499 30.3163C202.899 29.8193 205.799 28.9247 208.399 27.7319C211.099 26.5392 213.899 24.5512 216.399 22.4639C218.099 20.9729 219.799 19.1837 221.599 17.1958V16.3012C219.399 18.488 217.599 20.3765 215.699 21.8675Z"
    fill="white"
  />
<path
    d="M249.698 0C249.698 0 261.598 18.7861 263.798 22.265C265.998 25.744 268.498 28.4277 277.298 30.3162C286.098 32.2048 289.898 33 289.898 33V33.6958C289.898 33.6958 284.298 32.503 277.098 30.9126C269.898 29.3223 266.998 28.8253 263.698 24.253C260.998 20.4759 249.698 4.47289 249.698 4.47289V0Z"
    fill="white"
  />
<path
    d="M249.698 21.4698C249.698 21.4698 260.498 32.7018 263.698 35.9819C266.998 39.4608 271.298 40.6536 277.198 41.7469C282.798 42.7409 289.898 43.9337 289.898 43.9337V44.5301C289.898 44.5301 283.198 43.4367 277.198 42.4427C271.298 41.4487 267.098 40.8524 263.698 37.771C260.698 34.9879 249.798 24.8494 249.798 24.8494V21.4698H249.698Z"
    fill="white"
  />
<path
    d="M249.698 26.6386C249.698 26.6386 259.998 36.1807 263.698 39.3615C267.098 42.3434 269.798 43.238 277.198 44.6295C284.598 45.9217 289.898 46.7169 289.898 46.7169V47.4127C289.898 47.4127 283.198 46.3193 277.198 45.3253C271.198 44.3313 267.298 44.0331 263.698 41.0512C259.498 37.6717 249.698 29.7199 249.698 29.7199V26.6386Z"
    fill="white"
  />
<path
    d="M249.698 32.006C249.698 32.006 261.498 41.2499 263.698 42.9397C265.898 44.53 268.798 46.4186 277.198 47.7108C285.598 48.9035 289.898 49.4999 289.898 49.4999V50.1957C289.898 50.1957 282.298 49.1023 277.198 48.5059C272.098 47.9096 268.198 47.6114 263.698 44.6294C259.298 41.7469 249.698 34.9879 249.698 34.9879V32.006Z"
    fill="white"
  />
<path
    d="M249.698 37.1747C249.698 37.1747 261.498 45.0271 263.698 46.2199C265.898 47.4126 268.598 49.5 277.198 50.5934C285.798 51.6867 289.898 52.1837 289.898 52.1837V52.8795C289.898 52.8795 282.798 52.0843 277.198 51.4879C271.598 50.8916 267.798 50.0964 263.698 47.8102C259.598 45.5241 249.698 39.8584 249.698 39.8584V37.1747Z"
    fill="white"
  />
<path
    d="M249.698 42.4427C249.698 42.4427 260.098 48.1084 263.698 49.7981C267.598 51.7861 270.998 52.6806 277.198 53.4758C283.298 54.1716 289.898 54.8674 289.898 54.8674V55.4638C289.898 55.4638 283.798 54.768 277.198 54.1716C270.698 53.5752 268.398 53.277 263.698 51.1897C259.498 49.3011 249.698 44.8282 249.698 44.8282V42.4427Z"
    fill="white"
  />
<path
    d="M249.699 47.7108C249.699 47.7108 257.899 51.1897 263.699 53.4759C269.399 55.762 273.699 55.9608 277.199 56.259C278.699 56.4578 289.799 57.5512 289.799 57.5512V58.1475C289.799 58.1475 283.199 57.6506 277.099 57.0542C271.099 56.5572 268.499 56.259 263.599 54.6686C258.699 53.0783 249.599 49.8976 249.599 49.8976V47.7108H249.699Z"
    fill="white"
  />
<path
    d="M249.698 53.0783C249.698 53.0783 257.998 55.6626 263.698 57.1536C269.398 58.6446 274.598 59.2409 277.198 59.4397C279.798 59.6385 289.898 60.4337 289.898 60.4337V61.0301C289.898 61.0301 284.198 60.6325 277.198 60.1355C271.498 59.7379 266.998 59.3403 263.698 58.5452C259.998 57.75 249.698 55.265 249.698 55.265V53.0783Z"
    fill="white"
  />
<path
    d="M249.698 58.3463C249.698 58.3463 256.498 59.5391 263.698 60.7318C269.098 61.6264 276.398 62.2228 277.198 62.2228C277.998 62.2228 289.898 63.1174 289.898 63.1174V63.7138C289.898 63.7138 282.298 63.3162 277.198 63.018C271.898 62.7198 266.698 62.4216 263.698 62.1234C256.998 61.4276 249.698 60.533 249.698 60.533V58.3463Z"
    fill="white"
  />
<path
    d="M249.698 63.9127C249.698 63.9127 260.398 64.3102 263.698 64.4096C266.998 64.509 289.898 65.4036 289.898 65.4036V66H249.698V63.9127Z"
    fill="white"
  />
<path
    d="M277.2 33.1988C267.5 31.1114 265.3 27.6325 263.7 25.4458C262.1 23.259 249.8 5.36749 249.8 5.36749V9.44279C250.3 10.0392 260.8 23.756 263.8 27.5331C267.1 31.8072 272.3 32.8012 277.3 33.7952C282.3 34.8886 290 36.3795 290 36.3795V35.7831C289.9 35.7831 279.7 33.7952 277.2 33.1988Z"
    fill="white"
  />
<path
    d="M277.2 36.0813C269.2 34.491 266 32.006 263.7 29.0241C261.4 25.9428 249.8 10.8344 249.8 10.8344V14.6115C250.3 15.2078 260.9 27.6325 263.7 30.9127C267 34.6898 271.6 35.6837 277.2 36.6777C282.8 37.6717 289.9 39.0633 289.9 39.0633V38.4669C289.9 38.4669 281.8 36.9759 277.2 36.0813Z"
    fill="white"
  />
<path
    d="M277.198 38.9638C268.898 37.3734 267.198 36.0813 263.698 32.2048C261.498 29.8192 250.198 16.5994 249.698 16.003V19.4819C249.698 19.4819 260.198 30.6144 263.598 33.9939C267.998 38.3674 272.198 38.6656 277.098 39.5602C281.998 40.4548 289.798 41.8463 289.798 41.8463V41.25C289.898 41.25 280.498 39.6596 277.198 38.9638Z"
    fill="white"
  />
<path d="M240.899 27.4337H182.999V65.9005H240.899V27.4337Z" fill="#004494" />
<path
    d="M212.6 32.9006H214.6L213 34.1927L213.6 36.1807L212 34.9879L210.4 36.1807L211 34.1927L209.4 32.9006H211.4L212 30.9126L212.6 32.9006Z"
    fill="#FFEC00"
  />
<path
    d="M212.6 58.5451H214.6L213 59.7379L213.6 61.6265L212 60.4337L210.4 61.6265L211 59.7379L209.4 58.5451H211.4L212 56.6566L212.6 58.5451Z"
    fill="#FFEC00"
  />
<path
    d="M219 56.8554H221L219.4 58.0482L220 59.9368L218.4 58.744L216.8 59.9368L217.4 58.0482L215.8 56.8554H217.8L218.4 54.9669L219 56.8554Z"
    fill="#FFEC00"
  />
<path
    d="M219 34.5904H221L219.4 35.7831L220 37.6717L218.4 36.4789L216.8 37.7711L217.5 35.7831L215.9 34.5904H217.9L218.5 32.7018L219 34.5904Z"
    fill="#FFEC00"
  />
<path
    d="M223.799 39.3614H225.799L224.199 40.5541L224.799 42.4427L223.199 41.2499L221.599 42.4427L222.199 40.5541L220.599 39.3614H222.599L223.199 37.4728L223.799 39.3614Z"
    fill="#FFEC00"
  />
<path
    d="M223.799 52.2831H225.799L224.199 53.4758L224.799 55.3644L223.199 54.1716L221.599 55.3644L222.199 53.4758L220.599 52.2831H222.599L223.199 50.3945L223.799 52.2831Z"
    fill="#FFEC00"
  />
<path
    d="M225.6 45.7228H227.6L226 46.9156L226.6 48.8042L225 47.6114L223.4 48.8042L224 46.9156L222.3 45.7228H224.3L224.9 43.8343L225.6 45.7228Z"
    fill="#FFEC00"
  />
<path
    d="M206 34.5903H208L206.4 35.7831L207 37.6717L205.5 36.5783L203.8 37.7711L204.4 35.8825L202.8 34.6897H204.8L205.5 32.8012L206 34.5903Z"
    fill="#FFEC00"
  />
<path
    d="M201.398 39.3614H203.398L201.798 40.5541L202.398 42.4427L200.798 41.2499L199.198 42.4427L199.798 40.5541L198.198 39.3614H200.198L200.798 37.4728L201.398 39.3614Z"
    fill="#FFEC00"
  />
<path
    d="M199.699 45.7228H201.699L200.099 46.9156L200.699 48.8042L199.099 47.6114L197.499 48.8042L198.099 46.9156L196.499 45.7228H198.499L199.099 43.8343L199.699 45.7228Z"
    fill="#FFEC00"
  />
<path
    d="M201.398 52.2831H203.398L201.798 53.4758L202.398 55.3644L200.798 54.1716L199.198 55.3644L199.798 53.4758L198.198 52.2831H200.198L200.798 50.3945L201.398 52.2831Z"
    fill="#FFEC00"
  />
<path
    d="M206.1 56.9548H208.1L206.5 58.1476L207.1 60.0361L205.5 58.8434L203.9 60.0361L204.5 58.1476L202.9 56.9548H204.9L205.5 55.0662L206.1 56.9548Z"
    fill="#FFEC00"
  />
</svg>
