<svg
  width="290"
  height="72"
  viewBox="0 0 290 72"
  fill="none"
  xmlns="http://www.w3.org/2000/svg"
>
<path
    d="M29.0595 64.8961H84.7641L84.759 28.8354L29.0544 28.8405L29.0595 64.8961Z"
    fill="#003399"
  />
<path
    d="M57.4401 33.3809H59.4717L57.8331 34.6449L58.4712 36.6472L56.8429 35.4135L55.2146 36.6472L55.8526 34.6449L54.2039 33.3809H56.2303L56.8429 31.4292L57.4401 33.3809Z"
    fill="#FFED00"
  />
<path
    d="M57.5115 59.1573H59.5431L57.9097 60.3759L58.5426 62.3023L56.9143 61.1141L55.286 62.3023L55.9292 60.3759L54.2753 59.1573H56.3018L56.9143 57.2815L57.5115 59.1573Z"
    fill="#FFED00"
  />
<path
    d="M63.9482 57.4534H65.9849L64.3464 58.6669L64.9844 60.5933L63.351 59.4051L61.7227 60.5933L62.3659 58.6669L60.712 57.4534H62.7385L63.351 55.5725L63.9482 57.4534Z"
    fill="#FFED00"
  />
<path
    d="M63.9482 35.1H65.9849L64.3464 36.3185L64.9844 38.2449L63.351 37.0567L61.7227 38.2449L62.3659 36.3185L60.712 35.1H62.7385L63.351 33.2241L63.9482 35.1Z"
    fill="#FFED00"
  />
<path
    d="M68.7311 39.8377H70.7575L69.1241 41.0512L69.7571 42.9776L68.1288 41.7894L66.5005 42.9776L67.1436 41.0512L65.4898 39.8377H67.5162L68.1288 37.9568L68.7311 39.8377Z"
    fill="#FFED00"
  />
<path
    d="M68.7311 52.7815H70.7575L69.1241 54L69.7571 55.9264L68.1288 54.7382L66.5005 55.9264L67.1436 54L65.4898 52.7815H67.5162L68.1288 50.9056L68.7311 52.7815Z"
    fill="#FFED00"
  />
<path
    d="M70.5176 46.2085H72.5543L70.9158 47.427L71.5487 49.3534L69.9204 48.1652L68.2921 49.3534L68.9353 47.427L67.2814 46.2085H69.3079L69.9204 44.3326L70.5176 46.2085Z"
    fill="#FFED00"
  />
<path
    d="M50.8809 35.1203H52.9074L51.274 36.3338L51.9069 38.2602L50.2786 37.072L48.6503 38.2602L49.2934 36.3338L47.6447 35.1203H49.6661L50.2786 33.2394L50.8809 35.1203Z"
    fill="#FFED00"
  />
<path
    d="M46.2308 39.8527H48.2674L46.6289 41.0662L47.2619 42.9926L45.6336 41.8044L44.0052 42.9926L44.6484 41.0662L42.9946 39.8527H45.021L45.6336 37.9718L46.2308 39.8527Z"
    fill="#FFED00"
  />
<path
    d="M44.5055 46.2287H46.537L44.9036 47.4422L45.5366 49.3686L43.9083 48.1854L42.28 49.3686L42.9231 47.4422L41.2744 46.2287H43.2957L43.9083 44.3478L44.5055 46.2287Z"
    fill="#FFED00"
  />
<path
    d="M46.2308 52.7966H48.2674L46.6289 54.0152L47.2619 55.9416L45.6336 54.7534L44.0052 55.9416L44.6484 54.0152L42.9946 52.7966H45.021L45.6336 50.9208L46.2308 52.7966Z"
    fill="#FFED00"
  />
<path
    d="M50.9473 57.4685H52.9737L51.3403 58.682L51.9733 60.6084L50.3449 59.4202L48.7166 60.6084L49.3598 58.682L47.7111 57.4685H49.7324L50.3449 55.5876L50.9473 57.4685Z"
    fill="#FFED00"
  />
<path
    d="M94.9372 0.00505726C94.9372 0.00505726 106.917 18.9101 109.112 22.3736C111.302 25.8371 113.808 28.5826 122.675 30.4433C131.541 32.304 135.4 33.1837 135.4 33.1837V33.8562C135.4 33.8562 129.765 32.668 122.516 31.0652C115.268 29.4624 112.302 28.9214 109 24.3657C106.249 20.5736 94.9372 3.61517 94.9372 3.61517V0V0.00505726Z"
    fill="white"
  />
<path
    d="M94.9372 21.5949C94.9372 21.5949 105.845 32.9157 109 36.1668C112.348 39.6151 116.631 40.8893 122.573 41.941C128.244 42.9421 135.395 44.1 135.395 44.1V44.7371C135.395 44.7371 128.677 43.6449 122.573 42.6135C116.585 41.5972 112.394 41.0309 108.964 37.9011C105.891 35.1 94.9372 24.9219 94.9372 24.9219V21.5898V21.5949Z"
    fill="white"
  />
<path
    d="M94.9372 26.6966C94.9372 26.6966 105.309 36.2376 109 39.4988C112.394 42.4972 115.146 43.4325 122.608 44.7421C130.071 46.0517 135.395 46.8657 135.395 46.8657V47.5382C135.395 47.5382 128.642 46.441 122.573 45.4803C116.503 44.5247 112.634 44.1455 109 41.2281C104.809 37.8606 94.9372 29.8112 94.9372 29.8112V26.6915V26.6966Z"
    fill="white"
  />
<path
    d="M94.9372 32.1321C94.9372 32.1321 106.785 41.4456 109 43.0737C111.215 44.7018 114.145 46.6029 122.644 47.8214C131.071 49.0298 135.395 49.6265 135.395 49.6265V50.3343C135.395 50.3343 127.754 49.2371 122.644 48.6001C117.535 47.963 113.619 47.69 109.036 44.6664C104.574 41.7237 94.9372 35.004 94.9372 35.004V32.1321Z"
    fill="white"
  />
<path
    d="M94.9372 37.3601C94.9372 37.3601 106.82 45.1972 109.071 46.441C111.322 47.6798 113.967 49.7022 122.644 50.7994C131.322 51.8966 135.395 52.3921 135.395 52.3921V53.0646C135.395 53.0646 128.218 52.286 122.608 51.6843C117.004 51.0826 113.18 50.2685 109 47.9983C104.819 45.7331 94.9372 40.0095 94.9372 40.0095V37.3601Z"
    fill="white"
  />
<path
    d="M94.9372 42.5883C94.9372 42.5883 105.442 48.2512 109 50.0158C112.966 51.9878 116.396 52.9333 122.608 53.6664C128.708 54.3844 135.395 55.0821 135.395 55.0821V55.7192C135.395 55.7192 129.213 55.0619 122.608 54.4451C116.059 53.8282 113.727 53.5451 109 51.467C104.773 49.6063 94.9372 45.0658 94.9372 45.0658V42.5833V42.5883Z"
    fill="white"
  />
<path
    d="M94.9372 47.8871C94.9372 47.8871 103.237 51.4062 109.071 53.7017C114.809 55.9568 119.193 56.1489 122.68 56.5382C124.216 56.7101 135.395 57.8478 135.395 57.8478V58.4848C135.395 58.4848 128.718 57.9539 122.644 57.423C116.57 56.8921 113.951 56.6646 109.036 55.0517C104.059 53.4135 94.9372 50.2635 94.9372 50.2635V47.8921V47.8871Z"
    fill="white"
  />
<path
    d="M94.9372 53.2921C94.9372 53.2921 103.319 55.8657 109.036 57.3522C114.753 58.8387 120 59.4455 122.644 59.6174C125.288 59.7944 135.4 60.6084 135.4 60.6084V61.2101C135.4 61.2101 129.647 60.8208 122.608 60.3253C116.917 59.9258 112.348 59.5011 109 58.768C105.294 57.959 94.9372 55.5219 94.9372 55.5219V53.2921Z"
    fill="white"
  />
<path
    d="M94.9372 58.6062C94.9372 58.6062 101.792 59.7792 109.036 60.9674C114.467 61.8573 121.822 62.4186 122.608 62.454C123.394 62.4893 135.395 63.3034 135.395 63.3034V63.9405C135.395 63.9405 127.713 63.5461 122.608 63.268C117.29 62.9747 112.001 62.6562 109 62.3478C102.272 61.6551 94.9372 60.7349 94.9372 60.7349V58.6062Z"
    fill="white"
  />
<path
    d="M94.9372 64.1074C94.9372 64.1074 105.748 64.5119 109.036 64.5827C112.323 64.6535 135.395 65.5737 135.395 65.5737V66.1956H94.9372V64.1074Z"
    fill="white"
  />
<path
    d="M122.603 33.3657C112.818 31.2775 110.603 27.7332 108.959 25.5388C107.315 23.3393 94.9321 5.41516 94.9321 5.41516V8.71179C95.4222 9.34382 106.019 23.8348 108.995 27.627C112.348 31.8994 117.601 32.8702 122.603 33.932C127.6 34.9938 135.395 36.4753 135.395 36.4753V35.909C135.395 35.909 125.135 33.9017 122.603 33.3657Z"
    fill="white"
  />
<path
    d="M122.603 36.2022C114.569 34.6449 111.317 32.127 108.959 29.0831C106.601 26.0343 94.9321 10.446 94.9321 10.446V14.2786C95.4222 14.85 106.096 27.7534 108.959 30.9994C112.297 34.7865 116.958 35.7826 122.603 36.809C128.249 37.8354 135.39 39.1803 135.39 39.1803V38.614C135.39 38.614 127.238 37.1022 122.603 36.2073V36.2022Z"
    fill="white"
  />
<path
    d="M122.603 39.1399C114.247 37.5321 112.532 36.2124 108.995 32.3748C106.769 29.963 95.4119 16.6804 94.9321 16.1191V19.6585C94.9321 19.6585 105.544 30.8731 108.959 34.1849C113.436 38.5332 117.637 38.8619 122.603 39.7467C127.57 40.6315 135.39 42.0473 135.39 42.0473V41.4456C135.39 41.4456 125.947 39.7871 122.603 39.145V39.1399Z"
    fill="white"
  />
<path
    d="M0.00510552 27.7787C0.00510552 27.7787 27.6711 24.8562 35.4196 23.7792C47.6702 22.0803 57.6953 20.2702 66.9701 6.18875C66.9701 6.18875 66.9803 5.38987 66.9701 5.03088C61.2889 13.591 53.4536 19.4309 42.6628 21.1247C32.1222 22.7831 0 25.2051 0 25.2051V27.7787H0.00510552Z"
    fill="white"
  />
<path
    d="M0.00511169 24.2848C0.00511169 24.2848 25.6446 21.1045 34.0925 19.9314C47.4559 18.0809 56.8531 16.4174 66.9701 1.05669C66.9701 1.05669 66.9752 0.394331 66.9701 0.00500488C60.7733 9.34378 53.1218 15.3758 41.351 17.2264C29.8507 19.0365 0.00511169 21.6758 0.00511169 21.6758V24.2899V24.2848Z"
    fill="white"
  />
<path d="M26.1806 64.1326H0.020462V66.1854H26.1806V64.1326Z" fill="white" />
<path
    d="M66.9701 22.5708C66.9701 22.5708 66.9854 21.3624 66.9803 21.1045C65.7501 22.9601 64.132 24.6438 62.2638 26.1253H64.0963C65.1274 25.0736 66.0921 23.8955 66.965 22.5708H66.9701Z"
    fill="white"
  />
<path
    d="M66.9701 17.1102C66.9701 17.1102 66.9803 16.0383 66.9752 15.745C64.0095 20.2147 59.5942 23.7843 54.4897 26.1506L57.5014 26.1405C60.9826 24.1332 64.2188 21.2815 66.965 17.1102H66.9701Z"
    fill="white"
  />
<path
    d="M66.9701 11.6494C66.9701 11.6494 66.9803 10.714 66.9701 10.3904C61.8095 18.1718 53.7853 23.496 43.9746 25.0381C41.6521 25.4022 37.8697 25.8067 33.4748 26.2162L45.4549 26.1758C53.3617 24.4314 60.7631 21.0589 66.9599 11.6494H66.9701Z"
    fill="white"
  />
<path
    d="M26.1857 60.6742C12.8377 60.745 0.020462 60.8006 0.020462 60.8006V62.9394C0.020462 62.9394 13.4451 62.8433 26.1857 62.7371V60.6742Z"
    fill="white"
  />
<path
    d="M26.1857 57.0034C12.9295 57.15 0.0153351 57.2613 0.0153351 57.2613V59.4456C0.0153351 59.4456 13.5778 59.2686 26.1857 59.0714V57.0034Z"
    fill="white"
  />
<path
    d="M26.1806 53.3225C13.0214 53.55 0.0153351 53.722 0.0153351 53.722V55.9517C0.0153351 55.9517 13.7207 55.6837 26.1806 55.3905V53.3225Z"
    fill="white"
  />
<path
    d="M26.1857 49.6214C13.1235 49.9399 0.0153351 50.1776 0.0153351 50.1776V52.4478C0.0153351 52.4478 13.879 52.0736 26.1857 51.6843V49.6163V49.6214Z"
    fill="white"
  />
<path
    d="M26.1908 45.9102C13.2256 46.3197 0.0153351 46.6433 0.0153351 46.6433V48.959C0.0153351 48.959 14.0474 48.4736 26.1908 47.9781V45.9152V45.9102Z"
    fill="white"
  />
<path
    d="M26.1857 42.1838C13.3226 42.6995 0.0153351 43.104 0.0153351 43.104V45.4602C0.0153351 45.4602 14.2209 44.8433 26.1857 44.2315V42.1787V42.1838Z"
    fill="white"
  />
<path
    d="M26.1908 38.432C13.4247 39.059 0.0102234 39.5595 0.0102234 39.5595V41.9612C0.0102234 41.9612 14.4047 41.1977 26.1908 40.4646V38.432Z"
    fill="white"
  />
<path
    d="M26.1908 34.6602C13.5216 35.4085 0.0102234 36.0203 0.0102234 36.0203V38.4624C0.0102234 38.4624 14.5987 37.5321 26.1908 36.6725V34.6602Z"
    fill="white"
  />
<path
    d="M26.1908 30.868C13.6084 31.7478 0.0102234 32.486 0.0102234 32.486V34.9737C0.0102234 34.9737 14.7926 33.8512 26.1908 32.8602V30.8731V30.868Z"
    fill="white"
  />
<path
    d="M26.1908 27.0404C13.685 28.0668 0.00511169 28.9415 0.00511169 28.9415V31.4696C0.00511169 31.4696 14.9866 30.1247 26.1908 28.9921V27.0404Z"
    fill="white"
  />
<path
    d="M86.0759 66.1906V27.5461H27.7528V66.1906H86.0759ZM84.759 28.8355V64.8962H29.0544V28.8405H84.759V28.8355Z"
    fill="white"
  />
<path d="M226.085 66.1956V27.3591H222.769V66.1956H226.085Z" fill="white" />
<path
    d="M144.411 33.4114C144.411 33.1622 144.528 33.0249 144.798 33.0249H151.908C152.142 33.0249 152.274 33.1622 152.274 33.3911V34.5914C152.274 34.8253 152.178 34.9372 151.888 34.9372H146.613V38.2635H151.287C151.537 38.2635 151.674 38.3804 151.674 38.6093V39.8096C151.674 40.0435 151.577 40.1554 151.287 40.1554H146.613V43.9597H152.025C152.259 43.9597 152.371 44.0767 152.371 44.3259V45.5059C152.371 45.7551 152.274 45.8517 152.005 45.8517H144.798C144.528 45.8517 144.411 45.7347 144.411 45.5059V33.4064V33.4114Z"
    fill="white"
  />
<path
    d="M162.108 45.8517H160.735C160.445 45.8517 160.369 45.7143 160.369 45.4855V44.8853L160.328 44.865C159.576 45.3888 158.258 46.0246 157.084 46.0246C154.474 46.0246 154.225 44.4785 154.225 42.4492V36.7681C154.225 36.5342 154.322 36.3816 154.591 36.3816H156C156.249 36.3816 156.346 36.5189 156.346 36.7681V42.1999C156.346 43.3595 156.58 44.0919 157.755 44.0919C158.584 44.0919 159.86 43.4714 160.364 43.2222V36.7681C160.364 36.5342 160.44 36.3816 160.73 36.3816H162.103C162.373 36.3816 162.47 36.5189 162.47 36.7681V45.4855C162.47 45.7347 162.373 45.8517 162.103 45.8517H162.108Z"
    fill="white"
  />
<path
    d="M167.021 45.4856C167.021 45.7195 166.925 45.8518 166.655 45.8518H165.267C164.997 45.8518 164.901 45.7348 164.901 45.4856V36.7682C164.901 36.519 164.997 36.3817 165.267 36.3817H166.64C166.93 36.3817 167.027 36.5343 167.027 36.7682V37.6176L167.067 37.6583C167.647 37.1192 169.02 36.458 169.926 36.2851C170.175 36.2291 170.353 36.2851 170.388 36.6156L170.526 37.9126C170.546 38.1821 170.566 38.2991 170.16 38.3754C169.076 38.589 167.708 38.9755 167.032 39.2654V45.4856H167.021Z"
    fill="white"
  />
<path
    d="M175.525 46.0094C171.64 46.0094 171.391 43.1714 171.391 40.9641C171.391 39.1484 171.797 36.1935 175.525 36.1935C179.253 36.1935 179.798 38.6856 179.798 40.9641C179.798 43.2426 179.528 46.0094 175.525 46.0094ZM175.546 38.0499C173.903 38.0499 173.537 39.0925 173.537 41.1014C173.537 43.1104 173.903 44.153 175.525 44.153C177.285 44.153 177.631 43.1663 177.631 41.1014C177.631 39.0365 177.3 38.0499 175.546 38.0499Z"
    fill="white"
  />
<path
    d="M186.191 46.0297C185.555 46.0297 184.665 45.9127 183.775 45.6025L183.755 45.6228V49.0253C183.755 49.239 183.694 49.4119 183.388 49.4119H182.015C181.705 49.4119 181.649 49.2746 181.649 49.0253V36.7732C181.649 36.524 181.746 36.3867 182.015 36.3867H183.388C183.658 36.3867 183.734 36.5393 183.734 36.7732V37.353L183.795 37.3937C184.492 36.9106 185.728 36.2341 186.847 36.2341C189.38 36.2341 190.036 38.1465 190.036 41.0658C190.036 44.214 189.242 46.0297 186.191 46.0297ZM186.343 38.1668C185.55 38.1668 184.334 38.7263 183.755 39.0365V43.8682C184.624 44.1174 185.321 44.1988 185.977 44.1988C187.366 44.1988 187.854 43.4816 187.854 41.0505C187.854 38.6194 187.371 38.1719 186.348 38.1719L186.343 38.1668Z"
    fill="white"
  />
<path
    d="M195.702 46.0094C191.816 46.0094 191.567 43.1714 191.567 40.9641C191.567 39.1484 191.974 36.1935 195.702 36.1935C199.43 36.1935 199.974 38.6856 199.974 40.9641C199.974 43.2426 199.704 46.0094 195.702 46.0094ZM195.722 38.0499C194.079 38.0499 193.713 39.0925 193.713 41.1014C193.713 43.1104 194.079 44.153 195.702 44.153C197.461 44.153 197.807 43.1663 197.807 41.1014C197.807 39.0365 197.477 38.0499 195.722 38.0499Z"
    fill="white"
  />
<path
    d="M205.034 46.0094C204.068 46.0094 202.771 45.8721 202.039 45.5822C201.652 45.4296 201.576 45.2516 201.632 44.9464L201.769 44.3107C201.825 44.0004 201.962 43.9801 202.273 44.0208C203.122 44.1581 204.358 44.2547 205.014 44.2547C206.25 44.2547 206.753 43.9242 206.753 43.1511C206.753 42.261 206.423 42.0678 205.207 41.8949C203.315 41.6253 201.652 41.2184 201.652 39.1128C201.652 37.2005 203.122 36.1935 205.284 36.1935C206.077 36.1935 207.409 36.3105 208.223 36.6207C208.554 36.758 208.686 36.9106 208.63 37.2005L208.477 37.8973C208.422 38.1668 208.305 38.2075 207.954 38.1668C207.125 38.0702 206.041 37.9532 205.324 37.9532C204.088 37.9532 203.798 38.2991 203.798 39.0365C203.798 39.774 204.261 39.8859 205.441 40.0792C207.277 40.3487 208.94 40.7149 208.94 43.0188C208.94 45.3228 207.028 46.0145 205.039 46.0145L205.034 46.0094Z"
    fill="white"
  />
<path
    d="M146.622 59.5482L148.092 57.6562L151.336 53.6587C151.509 53.4654 151.667 53.3688 151.972 53.3688H153.732C154.001 53.3688 154.078 53.562 153.905 53.7553L149.709 58.8565L154.037 65.7938C154.19 66.043 154.057 66.2007 153.844 66.2007H152.064C151.733 66.2007 151.601 66.0633 151.443 65.8345L148.275 60.5807L146.576 62.6863V65.8345C146.576 66.0481 146.5 66.2007 146.23 66.2007H144.781C144.511 66.2007 144.394 66.0837 144.394 65.8345V53.7553C144.394 53.5061 144.511 53.3688 144.781 53.3688H146.23C146.5 53.3688 146.576 53.5214 146.576 53.7553V59.5533H146.617L146.622 59.5482Z"
    fill="white"
  />
<path
    d="M159.316 66.3533C155.431 66.3533 155.181 63.5153 155.181 61.308C155.181 59.4923 155.588 56.5374 159.316 56.5374C163.044 56.5374 163.589 59.0295 163.589 61.308C163.589 63.5865 163.319 66.3533 159.316 66.3533ZM159.337 58.3937C157.694 58.3937 157.328 59.4364 157.328 61.4453C157.328 63.4543 157.694 64.4969 159.316 64.4969C161.076 64.4969 161.422 63.5102 161.422 61.4453C161.422 59.3804 161.091 58.3937 159.337 58.3937Z"
    fill="white"
  />
<path
    d="M178.974 66.1955H177.58C177.311 66.1955 177.214 66.0785 177.214 65.8293V60.3415C177.214 58.9124 176.868 58.5055 175.902 58.5055C175.185 58.5055 174.025 59.065 173.43 59.3752C173.43 59.5685 173.45 59.9143 173.45 60.3619V65.8293C173.45 66.0633 173.374 66.1955 173.084 66.1955H171.675C171.426 66.1955 171.345 66.0785 171.345 65.8293V60.2449C171.345 59.065 171.035 58.5055 170.068 58.5055C169.392 58.5055 168.308 58.9887 167.576 59.3752V65.8293C167.576 66.0633 167.479 66.1955 167.21 66.1955H165.816C165.567 66.1955 165.471 66.0785 165.471 65.8293V57.112C165.471 56.8627 165.567 56.7254 165.816 56.7254H167.19C167.479 56.7254 167.576 56.878 167.576 57.112V57.6714L167.596 57.6918C168.349 57.1679 169.412 56.5881 170.475 56.5525C171.594 56.5525 172.525 56.7864 173.125 57.9054C174.091 57.1882 175.292 56.5525 176.527 56.5525C179.081 56.5525 179.33 58.2156 179.33 60.1483V65.8293C179.33 66.0633 179.253 66.1955 178.984 66.1955H178.974Z"
    fill="white"
  />
<path
    d="M182.758 55.3371C181.756 55.3371 181.618 54.7776 181.618 54.2182C181.618 53.5977 181.832 53.1145 182.758 53.1145C183.683 53.1145 183.897 53.557 183.897 54.2182C183.897 54.8183 183.724 55.3371 182.758 55.3371ZM183.78 65.8294C183.78 66.043 183.704 66.1956 183.434 66.1956H182.061C181.791 66.1956 181.674 66.0786 181.674 65.8294V57.0968C181.674 56.8273 181.791 56.7306 182.061 56.7306H183.434C183.704 56.7306 183.78 56.8832 183.78 57.0968V65.8294Z"
    fill="white"
  />
<path
    d="M189.349 66.3533C188.383 66.3533 187.086 66.216 186.354 65.9261C185.967 65.7735 185.891 65.5955 185.947 65.2903L186.084 64.6546C186.14 64.3443 186.277 64.324 186.588 64.3647C187.437 64.502 188.673 64.5986 189.329 64.5986C190.565 64.5986 191.068 64.268 191.068 63.495C191.068 62.6049 190.738 62.4117 189.522 62.2387C187.63 61.9692 185.967 61.5623 185.967 59.4567C185.967 57.5444 187.437 56.5374 189.598 56.5374C190.392 56.5374 191.724 56.6543 192.538 56.9646C192.869 57.1019 193.001 57.2545 192.945 57.5444L192.792 58.2412C192.737 58.5107 192.62 58.5514 192.269 58.5107C191.44 58.4141 190.356 58.2971 189.639 58.2971C188.403 58.2971 188.113 58.643 188.113 59.3804C188.113 60.1179 188.576 60.2298 189.756 60.423C191.592 60.6926 193.255 61.0588 193.255 63.3627C193.255 65.6667 191.343 66.3584 189.354 66.3584L189.349 66.3533Z"
    fill="white"
  />
<path
    d="M196.403 55.3371C195.401 55.3371 195.264 54.7776 195.264 54.2182C195.264 53.5977 195.478 53.1145 196.403 53.1145C197.329 53.1145 197.543 53.557 197.543 54.2182C197.543 54.8183 197.37 55.3371 196.403 55.3371ZM197.426 65.8294C197.426 66.043 197.349 66.1956 197.08 66.1956H195.707C195.437 66.1956 195.32 66.0786 195.32 65.8294V57.0968C195.32 56.8273 195.437 56.7306 195.707 56.7306H197.08C197.349 56.7306 197.426 56.8832 197.426 57.0968V65.8294Z"
    fill="white"
  />
<path
    d="M202.491 66.4092C202.491 68.9217 201.428 70.3305 198.184 70.2135C198.046 70.2135 197.777 70.1372 197.756 69.827L197.68 68.9166C197.639 68.6064 197.721 68.5504 197.99 68.4894C199.806 68.1232 200.365 67.9503 200.365 66.4397V57.0866C200.365 56.8171 200.482 56.7205 200.752 56.7205H202.105C202.395 56.7205 202.491 56.873 202.491 57.0866V66.399V66.4092ZM201.428 55.3371C200.421 55.3371 200.289 54.7776 200.289 54.2182C200.289 53.5977 200.523 53.1145 201.428 53.1145C202.334 53.1145 202.568 53.557 202.568 54.2182C202.568 54.8183 202.395 55.3371 201.428 55.3371Z"
    fill="white"
  />
<path
    d="M210.878 65.0971C209.911 65.8295 208.615 66.3533 207.323 66.3533C205.273 66.3533 204.678 65.2344 204.678 63.612C204.658 61.3487 205.878 60.3824 208.309 60.3824H210.781V59.8789C210.781 58.7193 210.359 58.3124 208.772 58.3124C208.136 58.3124 206.916 58.409 206.143 58.4853C205.756 58.5413 205.66 58.526 205.604 58.2514L205.431 57.5342C205.39 57.285 205.451 57.1274 205.873 56.9544C206.702 56.6645 208.233 56.5272 209.138 56.5272C212.48 56.5272 212.887 57.9004 212.887 60.062V63.79C212.887 64.5834 212.983 64.6037 213.584 64.68C213.873 64.7004 213.95 64.7563 213.95 64.9699V65.7837C213.95 65.9973 213.812 66.1295 213.487 66.1906C213.177 66.2465 212.866 66.2872 212.576 66.2872C211.666 66.2872 211.107 66.0176 210.913 65.1072L210.873 65.0869L210.878 65.0971ZM210.761 61.8878H208.406C207.44 61.8878 206.819 62.2337 206.819 63.5103C206.819 64.3596 207.109 64.6292 208.019 64.6292C208.848 64.6292 210.028 64.146 210.761 63.7188V61.8827V61.8878Z"
    fill="white"
  />
</svg>
