<svg width="290" height="72" viewBox="0 0 290 72" fill="none" xmlns="http://www.w3.org/2000/svg">
<path d="M158.018 42.8135H160.77C160.555 44.2325 160.211 45.7375 159.867 46.7695L161.05 47.393C161.652 45.931 162.189 43.6305 162.512 41.6525L161.458 41.244L161.179 41.33H155.481C155.739 40.169 155.954 38.965 156.148 37.7395L154.535 37.503C154.105 40.9215 153.31 44.2755 151.912 46.404C152.299 46.619 152.966 47.135 153.245 47.4145C153.998 46.1675 154.599 44.5765 155.094 42.8135H156.47V45.845C156.491 47.307 155.976 51.2845 153.116 54.187V53.0045H145.548V40.384H152.922V38.9005H144V56.1005H145.548V54.488H152.815C152.299 54.961 151.719 55.391 151.074 55.778C151.353 56.079 151.826 56.724 151.998 57.068C155.675 54.8105 156.986 50.876 157.244 49.07C157.48 50.8115 158.685 54.918 161.867 57.0465C162.082 56.681 162.576 56.036 162.856 55.692C158.706 53.0045 157.997 47.5435 158.018 45.845V42.8135ZM150.257 41.029C149.956 42.534 149.569 43.9745 149.096 45.329C148.3 44.469 147.462 43.652 146.666 42.921L145.72 43.91C146.645 44.77 147.634 45.802 148.537 46.834C147.784 48.597 146.86 50.145 145.763 51.349C146.086 51.5855 146.709 52.08 146.967 52.338C147.978 51.1555 148.838 49.715 149.569 48.081C150.429 49.1345 151.138 50.1665 151.59 51.005L152.643 49.844C152.105 48.898 151.224 47.737 150.214 46.5545C150.816 44.9205 151.332 43.136 151.719 41.287L150.257 41.029Z" fill="white"/>
<path d="M168.811 37.89V44.512C168.811 48.4465 168.446 52.7035 164.984 55.907C165.328 56.1865 165.887 56.724 166.145 57.111C169.951 53.585 170.381 48.898 170.381 44.512V37.89H168.811ZM174.896 38.3415V55.6705H176.465V38.3415H174.896ZM181.26 37.804V56.8745H182.851V37.804H181.26ZM166.403 42.7705C166.08 44.6625 165.371 46.9415 164.404 48.425L165.758 49.027C166.747 47.522 167.371 45.071 167.758 43.1575L166.403 42.7705ZM170.918 43.652C171.671 45.372 172.337 47.651 172.531 49.0485L173.928 48.4465C173.713 47.0705 172.982 44.856 172.23 43.136L170.918 43.652ZM176.96 43.5445C177.927 45.2215 178.916 47.479 179.282 48.8765L180.636 48.167C180.249 46.791 179.196 44.598 178.185 42.9425L176.96 43.5445Z" fill="white"/>
<path d="M199.363 50.5105C198.739 51.6715 197.879 52.596 196.74 53.327C195.149 52.94 193.472 52.5745 191.816 52.2735C192.225 51.7145 192.633 51.1125 193.042 50.5105H199.363ZM195.105 47.522H196.653V43.3295C198.674 45.3935 201.878 47.178 204.781 48.0595C204.974 47.651 205.447 47.0705 205.791 46.7265C203.233 46.0815 200.416 44.77 198.524 43.222H205.34V41.9105H196.653V39.6315C199.104 39.395 201.405 39.094 203.19 38.6855L202.007 37.546C198.846 38.2555 192.87 38.707 187.968 38.836C188.097 39.1585 188.29 39.739 188.312 40.083C190.462 40.04 192.826 39.9325 195.105 39.7605V41.9105H186.484V43.222H193.299C191.386 44.856 188.57 46.275 186.011 46.963C186.334 47.264 186.785 47.823 186.979 48.21C189.881 47.307 193.106 45.458 195.105 43.3295V47.264L193.579 46.8555C193.149 47.565 192.655 48.339 192.117 49.1345H186.248V50.5105H191.193C190.419 51.6285 189.644 52.7035 189.021 53.542L190.505 54.058L190.956 53.456C192.268 53.714 193.558 53.9935 194.805 54.2945C192.719 55.1115 189.989 55.5415 186.549 55.735C186.828 56.1005 187.065 56.7025 187.172 57.154C191.429 56.81 194.676 56.1435 197.062 54.8535C199.771 55.5845 202.201 56.38 204.007 57.1325L204.974 55.821C203.319 55.1545 201.104 54.4665 198.653 53.8C199.728 52.9185 200.545 51.8435 201.147 50.5105H205.619V49.1345H193.966C194.375 48.5325 194.761 47.952 195.105 47.393V47.522Z" fill="white"/>
<path d="M222.561 41.8675H212.392V39.6315H222.561V41.8675ZM224.216 38.3415H210.8V43.1575H224.216V38.3415ZM211.489 50.8545H223.421V52.4025H211.489V50.8545ZM211.489 48.21H223.421V49.715H211.489V48.21ZM211.489 45.5655H223.421V47.0705H211.489V45.5655ZM225.055 53.585V44.383H209.897V53.585H213.918C212.585 54.4665 209.812 55.4555 207.576 55.9715C207.963 56.294 208.479 56.8315 208.758 57.154C210.951 56.595 213.725 55.563 215.445 54.5095L214.004 53.585H225.055ZM219.164 54.66C221.422 55.3265 224.303 56.423 225.915 57.1755L227.291 56.0145C225.614 55.3265 222.755 54.273 220.54 53.628L219.164 54.66Z" fill="white"/>
<path d="M230.15 49.715H235.805C235.225 51.2845 234.3 53.241 233.483 54.7245C232.322 54.7675 231.247 54.789 230.323 54.8105L230.537 56.38C234.214 56.251 239.783 56.0145 245.05 55.7565C245.459 56.2725 245.781 56.767 246.039 57.197L247.479 56.3155C246.49 54.7245 244.405 52.4025 242.427 50.704L241.073 51.435C242.019 52.2735 243.029 53.327 243.91 54.3375C240.9 54.4665 237.869 54.574 235.203 54.66C236.063 53.155 236.987 51.306 237.74 49.715H247.824V48.2315H230.15V49.715ZM233.806 44.1465V45.6085H243.975V44.1465H233.806ZM237.934 37.546C236.278 40.2765 232.709 43.3725 229.033 45.1355C229.377 45.458 229.785 46.0385 229.957 46.404C233.612 44.598 237.095 41.6525 238.837 39.0725C240.836 41.846 244.599 44.7055 247.91 46.318C248.189 45.845 248.576 45.286 248.941 44.899C245.566 43.5015 241.825 40.7065 239.568 37.546H237.934Z" fill="white"/>
<path fill-rule="evenodd" clip-rule="evenodd" d="M255.942 66.7H259.242V28H255.942V66.7Z" fill="white"/>
<path fill-rule="evenodd" clip-rule="evenodd" d="M0 24.5C0 24.5 39.8 19.3 41 19.1C42.7 18.8 44.3 18.5 45.7 18.1C48.9 17.2 51.9 15.9 54.5 14.1C57 12.4 59.4 9.9 61.7 7.2C63.2 5.5 64.7 3.2 66.2 1V0C64.5 2.6 62.8 4.8 61.1 6.7C58.8 9.3 56.4 11.4 53.9 13C51.4 14.6 48.5 15.9 45.4 16.7C44 17.1 42.5 17.3 40.8 17.6C39.7 17.8 38.6 17.9 37.5 18C37 18 0 21.9 0 21.9V24.5Z" fill="white"/>
<mask id="mask0_4509_501358" style="mask-type:alpha" maskUnits="userSpaceOnUse" x="0" y="5" width="67" height="24">
<path fill-rule="evenodd" clip-rule="evenodd" d="M0 5.2002H66.0999V28.0002H0V5.2002Z" fill="white"/>
</mask>
<g mask="url(#mask0_4509_501358)">
<path fill-rule="evenodd" clip-rule="evenodd" d="M53.3999 17.8002C50.8999 19.2002 47.9999 20.3002 44.7999 20.9002C43.3999 21.2002 41.9999 21.4002 40.2999 21.6002C39.2999 21.7002 38.2999 21.8002 37.2999 21.9002C36.7999 21.9002 36.1999 22.0002 35.6999 22.0002C23.4999 23.2002 11.3999 24.3002 -0.00012207 25.4002V28.0002C11.3999 26.6002 23.6999 25.1002 35.8999 23.7002C36.3999 23.6002 36.9999 23.6002 37.4999 23.5002C38.4999 23.4002 39.4999 23.3002 40.4999 23.1002C42.1999 22.9002 43.7999 22.6002 45.0999 22.3002C48.3999 21.6002 51.3999 20.4002 53.9999 18.8002C56.5999 17.2002 58.7999 15.1002 61.2999 12.4002C62.7999 10.7002 64.4999 8.4002 66.0999 6.2002V5.2002C64.1999 7.7002 62.4999 9.9002 60.6999 11.7002C58.2999 14.4002 55.8999 16.4002 53.3999 17.8002" fill="white"/>
</g>
<mask id="mask1_4509_501358" style="mask-type:alpha" maskUnits="userSpaceOnUse" x="0" y="10" width="67" height="22">
<path fill-rule="evenodd" clip-rule="evenodd" d="M0 10.9004H66.0999V31.5004H0V10.9004Z" fill="white"/>
</mask>
<g mask="url(#mask1_4509_501358)">
<path fill-rule="evenodd" clip-rule="evenodd" d="M60.3999 17.2004C57.9999 19.4004 55.3999 21.2004 52.8999 22.5004C50.3999 23.7004 47.5999 24.6004 44.2999 25.1004C42.8999 25.3004 41.4999 25.5004 39.7999 25.7004L-0.00012207 28.9004V31.5004L35.2999 27.7004L39.8999 27.2004C41.5999 27.0004 43.0999 26.8004 44.4999 26.5004C47.8999 25.9004 50.7999 24.9004 53.3999 23.6004C56.0999 22.2004 58.6999 20.0004 61.1999 17.6004C62.8999 16.0004 64.3999 13.9004 66.0999 11.8004V10.9004C64.0999 13.4004 62.2999 15.4004 60.3999 17.2004" fill="white"/>
</g>
<mask id="mask2_4509_501358" style="mask-type:alpha" maskUnits="userSpaceOnUse" x="0" y="21" width="67" height="18">
<path fill-rule="evenodd" clip-rule="evenodd" d="M0 21.7002H66.1998V38.5002H0V21.7002Z" fill="white"/>
</mask>
<g mask="url(#mask2_4509_501358)">
<path fill-rule="evenodd" clip-rule="evenodd" d="M50.7998 30.6002C48.4998 31.9002 46.7998 32.7002 43.4998 33.0002C41.4998 33.2002 39.4998 33.3002 37.4998 33.4002C36.4998 33.4002 35.5998 33.5002 34.5998 33.6002C28.5998 33.9002 22.6998 34.3002 16.6998 34.7002L-0.000183105 35.9002V38.5002L16.7998 36.9002C22.1998 36.4002 28.4998 35.8002 34.6998 35.3002L39.1998 35.0002C40.8998 34.9002 42.3998 34.7002 43.6998 34.5002C47.0998 34.1002 49.9998 33.4002 52.5998 32.4002C55.3998 31.4002 57.9998 29.7002 60.5998 27.8002C62.9998 26.1002 66.1998 22.7002 66.1998 22.6002V21.7002C64.0998 23.8002 62.7998 25.0002 60.4998 26.5002C57.5998 28.5002 52.8998 29.5002 50.7998 30.6002" fill="white"/>
</g>
<path fill-rule="evenodd" clip-rule="evenodd" d="M51.6016 35.6004C49.1016 36.3004 46.3016 36.8004 43.0016 37.1004C41.7016 37.2004 40.2016 37.3004 38.6016 37.4004L34.2016 37.6004C23.2016 38.1004 12.2016 38.7004 0.101562 39.3004V41.9004C11.7016 41.0004 23.0016 40.1004 34.4016 39.3004L38.8016 39.0004C40.5016 38.9004 41.9016 38.8004 43.3016 38.6004C46.7016 38.2004 49.6016 37.6004 52.1016 36.8004C54.9016 35.9004 57.7016 34.6004 60.3016 32.9004C62.2016 31.7004 64.2016 30.2004 66.2016 28.4004C64.0016 30.3004 61.9016 30.7004 59.8016 32.0004C57.1016 33.6004 54.4016 34.8004 51.6016 35.6004" fill="white"/>
<path fill-rule="evenodd" clip-rule="evenodd" d="M51.2 39.9002C48.7 40.5002 45.9 40.9002 42.6 41.0992C41.3 41.2002 39.9 41.2992 38.2 41.2992L33.8 41.5002C22.7 41.9002 11.5 42.4002 0 42.9002V45.5002C11.4 44.7002 22.6 44.0002 33.9 43.2002L38.3 42.9002C40 42.7992 41.4 42.7002 42.7 42.5992C46.1 42.2992 48.9 41.7992 51.5 41.0992C54.4 40.2992 57.2 39.2002 59.9 37.7992C62 36.7002 64 35.4002 66.1 33.7992V32.7002C63.8 34.4002 61.6 35.7002 59.4 36.7992C56.8 38.2002 54 39.2002 51.2 39.9002" fill="white"/>
<mask id="mask3_4509_501358" style="mask-type:alpha" maskUnits="userSpaceOnUse" x="0" y="38" width="67" height="11">
<path fill-rule="evenodd" clip-rule="evenodd" d="M0 38.2002H66.1998V48.7992H0V38.2002Z" fill="white"/>
</mask>
<g mask="url(#mask3_4509_501358)">
<path fill-rule="evenodd" clip-rule="evenodd" d="M50.7998 44.0992C48.2998 44.5992 45.4998 44.9002 42.1998 44.9992C40.8998 45.0992 39.5998 45.0992 37.8998 45.2002L-0.000183105 46.2002V48.7992L33.5998 46.9992L37.9998 46.7992C39.6998 46.7002 41.0998 46.5992 42.3998 46.4992C45.7998 46.2002 48.4998 45.9002 51.0998 45.2992C53.9998 44.7002 56.8998 43.7992 59.5998 42.5992C61.7998 41.7002 63.8998 40.5992 66.1998 39.2002V38.2002C63.7998 39.5992 61.4998 40.7002 59.1998 41.5992C56.4998 42.7992 53.6998 43.5992 50.7998 44.0992" fill="white"/>
</g>
<path fill-rule="evenodd" clip-rule="evenodd" d="M50.5 48.2998C45.8 48.9008 41.1 48.9998 36.4 49.0998C35.3 49.0998 34.3 49.0998 33.2 49.1998L0 49.7998V52.4008L33.3 50.9998C34.4 50.9998 35.4 50.9008 36.5 50.9008C41.2 50.6998 46 50.4998 50.7 49.7998C53.7 49.2998 56.6 48.5998 59.2 47.6998C61.4 46.9998 63.7 45.9998 66 44.7998V43.7998C63.6 44.9008 61.1 45.9008 58.8 46.5998C56.3 47.2998 53.5 47.9998 50.5 48.2998" fill="white"/>
<mask id="mask4_4509_501358" style="mask-type:alpha" maskUnits="userSpaceOnUse" x="0" y="49" width="67" height="7">
<path fill-rule="evenodd" clip-rule="evenodd" d="M0 49.2002H66.1998V55.7992H0V49.2002Z" fill="white"/>
</mask>
<g mask="url(#mask4_4509_501358)">
<path fill-rule="evenodd" clip-rule="evenodd" d="M50.2998 52.5992C45.8998 52.9992 41.4998 52.9992 37.0998 52.9992H33.0998C22.0998 52.9992 11.0998 53.0992 -0.000183105 53.2002V55.7992C10.5998 55.4002 21.8998 55.0992 33.1998 54.7002C34.4998 54.7002 35.8998 54.5992 37.1998 54.5992C41.4998 54.4992 45.9998 54.4002 50.3998 53.9002C53.4998 53.5992 56.2998 53.0992 58.9998 52.4002C61.2998 51.7992 63.6998 50.9992 66.1998 50.0992V49.2002C63.6998 50.0992 61.1998 50.7992 58.7998 51.4002C56.0998 51.9992 53.2998 52.4002 50.2998 52.5992" fill="white"/>
</g>
<path fill-rule="evenodd" clip-rule="evenodd" d="M50.1 56.7994C48.3 56.9004 46.3 56.9004 44.1 56.9004H41.6L33 56.7994C27.1 56.7994 21.3 56.6994 15.8 56.6994L0 56.7994V59.4004L15.9 58.9994C21.4 58.9004 27.2 58.6994 33 58.5994L41.6 58.4994C44 58.4994 47.1 58.4004 50.2 58.1994C53.3 57.9994 56.1 57.6994 58.8 57.2994C61.2 56.9004 63.7 56.4004 66.2 55.7994V54.9004C63.7 55.4994 61.1 55.9994 58.7 56.2994C55.9 56.4994 53.2 56.6994 50.1 56.7994" fill="white"/>
<path fill-rule="evenodd" clip-rule="evenodd" d="M41.5 60.9L32.9 60.799C22 60.599 11.1 60.4 0 60.2V62.799C10.6 62.7 21.8 62.599 32.9 62.5L41.5 62.4C44.4 62.4 47.2 62.299 50.1 62.2C56 62 61.2 61.599 66.2 60.9V60C61.3 60.5 56 60.799 50.1 60.9H41.5" fill="white"/>
<path fill-rule="evenodd" clip-rule="evenodd" d="M66.1 65.4998L0 63.7998V66.3998H66.1V65.4998Z" fill="white"/>
<path fill-rule="evenodd" clip-rule="evenodd" d="M60.2 22.0004C57.7 24.0004 55.7 25.5004 52.7 26.7004C50 27.8004 47.1 28.2004 43.9 28.7004C41.8 29.0004 39.6 29.4004 37.5 29.6004C36.6 29.7004 35.8 29.7004 34.9 29.8004L0 32.3004V34.9004L34.9 31.5004L39.4 31.1004C41.1 30.9004 42.6 30.8004 44 30.5004C47.4 30.0004 50.3 29.1004 52.9 27.9004C55.6 26.7004 58.4 24.7004 60.9 22.6004C62.6 21.1004 64.3 19.3004 66.1 17.3004V16.4004C63.9 18.6004 62.1 20.5004 60.2 22.0004" fill="white"/>
<path fill-rule="evenodd" clip-rule="evenodd" d="M94.1992 0C94.1992 0 106.099 18.9 108.299 22.4C110.499 25.9 112.999 28.6 121.799 30.5C130.599 32.4 134.399 33.2 134.399 33.2V33.9C134.399 33.9 128.799 32.7 121.599 31.1C114.399 29.5 111.499 29 108.199 24.4C105.499 20.6 94.1992 4.5 94.1992 4.5V0Z" fill="white"/>
<path fill-rule="evenodd" clip-rule="evenodd" d="M94.1992 21.6006C94.1992 21.6006 104.999 32.9006 108.199 36.2006C111.499 39.7006 115.799 40.9006 121.699 42.0006C127.299 43.0006 134.399 44.2006 134.399 44.2006V44.8006C134.399 44.8006 127.699 43.7006 121.699 42.7006C115.799 41.7006 111.599 41.1006 108.199 38.0006C105.199 35.2006 94.2992 25.0006 94.2992 25.0006L94.1992 21.6006Z" fill="white"/>
<path fill-rule="evenodd" clip-rule="evenodd" d="M94.1992 26.7998C94.1992 26.7998 104.499 36.3998 108.199 39.5998C111.599 42.5998 114.299 43.4998 121.699 44.9008C129.099 46.1998 134.399 46.9998 134.399 46.9998V47.6998C134.399 47.6998 127.699 46.5998 121.699 45.5998C115.699 44.5998 111.799 44.2998 108.199 41.2998C103.999 37.9008 94.1992 29.8998 94.1992 29.8998V26.7998Z" fill="white"/>
<path fill-rule="evenodd" clip-rule="evenodd" d="M94.1992 32.2002C94.1992 32.2002 105.999 41.5002 108.199 43.2002C110.399 44.8002 113.299 46.7002 121.699 48.0002C130.099 49.2002 134.399 49.8002 134.399 49.8002V50.5002C134.399 50.5002 126.799 49.4002 121.699 48.8002C116.599 48.2002 112.699 47.9002 108.199 44.9002C103.799 42.0002 94.1992 35.2002 94.1992 35.2002V32.2002Z" fill="white"/>
<path fill-rule="evenodd" clip-rule="evenodd" d="M94.1992 37.4004C94.1992 37.4004 105.999 45.2994 108.199 46.5004C110.399 47.7004 113.099 49.7994 121.699 50.9004C130.299 52.0004 134.399 52.5004 134.399 52.5004V53.2004C134.399 53.2004 127.299 52.4004 121.699 51.7994C116.099 51.2004 112.299 50.4004 108.199 48.0994C104.099 45.7994 94.1992 40.0994 94.1992 40.0994V37.4004Z" fill="white"/>
<path fill-rule="evenodd" clip-rule="evenodd" d="M94.1992 42.7002C94.1992 42.7002 104.599 48.4002 108.199 50.0992C112.099 52.0992 115.499 53.0002 121.699 53.8002C127.799 54.5002 134.399 55.2002 134.399 55.2002V55.8002C134.399 55.8002 128.299 55.0992 121.699 54.5002C115.199 53.9002 112.899 53.5992 108.199 51.5002C103.999 49.5992 94.1992 45.0992 94.1992 45.0992V42.7002Z" fill="white"/>
<path fill-rule="evenodd" clip-rule="evenodd" d="M94.2016 48C94.2016 48 102.402 51.5 108.202 53.8C113.902 56.1 118.202 56.3 121.702 56.6C123.202 56.8 134.302 57.9 134.302 57.9V58.5C134.302 58.5 127.702 58 121.602 57.4C115.602 56.9 113.002 56.6 108.102 55C103.202 53.4 94.1016 50.2 94.1016 50.2L94.2016 48Z" fill="white"/>
<path fill-rule="evenodd" clip-rule="evenodd" d="M94.1992 53.4004C94.1992 53.4004 102.499 56.0004 108.199 57.5004C113.899 59.0004 119.099 59.5994 121.699 59.7994C124.299 60.0004 134.399 60.7994 134.399 60.7994V61.4004C134.399 61.4004 128.699 61.0004 121.699 60.5004C115.999 60.0994 111.499 59.7004 108.199 58.9004C104.499 58.0994 94.1992 55.5994 94.1992 55.5994V53.4004Z" fill="white"/>
<path fill-rule="evenodd" clip-rule="evenodd" d="M94.1992 58.7002C94.1992 58.7002 100.999 59.9002 108.199 61.0992C113.599 62.0002 120.899 62.5992 121.699 62.5992C122.499 62.5992 134.399 63.5002 134.399 63.5002V64.0992C134.399 64.0992 126.799 63.7002 121.699 63.4002C116.399 63.0992 111.199 62.8002 108.199 62.5002C101.499 61.8002 94.1992 60.9002 94.1992 60.9002V58.7002Z" fill="white"/>
<path fill-rule="evenodd" clip-rule="evenodd" d="M94.1992 64.2998C94.1992 64.2998 104.899 64.6998 108.199 64.7998C111.499 64.9008 134.399 65.7998 134.399 65.7998V66.4008H94.1992V64.2998Z" fill="white"/>
<path fill-rule="evenodd" clip-rule="evenodd" d="M121.701 33.3994C112.001 31.2994 109.801 27.7994 108.201 25.5994C106.601 23.3994 94.3008 5.39941 94.3008 5.39941V9.49941C94.8008 10.0994 105.301 23.8994 108.301 27.6994C111.601 31.9994 116.801 32.9994 121.801 33.9994C126.801 35.0994 134.501 36.5994 134.501 36.5994V35.9994C134.401 35.9994 124.201 33.9994 121.701 33.3994" fill="white"/>
<path fill-rule="evenodd" clip-rule="evenodd" d="M121.701 36.2994C113.701 34.6994 110.501 32.1994 108.201 29.1994C105.901 26.0994 94.3008 10.8994 94.3008 10.8994V14.6994C94.8008 15.2994 105.401 27.7994 108.201 31.0994C111.501 34.8994 116.101 35.8994 121.701 36.8994C127.301 37.9004 134.401 39.2994 134.401 39.2994V38.6994C134.401 38.6994 126.301 37.1994 121.701 36.2994" fill="white"/>
<path fill-rule="evenodd" clip-rule="evenodd" d="M121.699 39.2006C113.399 37.5996 111.699 36.3006 108.199 32.4006C105.999 30.0006 94.6992 16.7006 94.1992 16.1006V19.6006C94.1992 19.6006 104.699 30.8006 108.099 34.2006C112.499 38.5996 116.699 38.9006 121.599 39.8006C126.499 40.7006 134.299 42.0996 134.299 42.0996V41.5006C134.399 41.5006 124.999 39.9006 121.699 39.2006" fill="white"/>
<path fill-rule="evenodd" clip-rule="evenodd" d="M27.5 66.2996H85.4V27.5996H27.5V66.2996Z" fill="#004494"/>
<path fill-rule="evenodd" clip-rule="evenodd" d="M57.0984 33.1006H59.0984L57.4984 34.4006L58.0984 36.4006L56.4984 35.2006L54.8984 36.4006L55.4984 34.4006L53.8984 33.1006H55.8984L56.4984 31.1006L57.0984 33.1006Z" fill="#FFF100"/>
<path fill-rule="evenodd" clip-rule="evenodd" d="M57.0984 58.9H59.0984L57.4984 60.099L58.0984 62L56.4984 60.799L54.8984 62L55.4984 60.099L53.8984 58.9H55.8984L56.4984 57L57.0984 58.9Z" fill="#FFF100"/>
<path fill-rule="evenodd" clip-rule="evenodd" d="M63.5008 57.1998H65.5008L63.9008 58.3998L64.5008 60.2998L62.9008 59.0988L61.3008 60.2998L61.9008 58.3998L60.3008 57.1998H62.3008L62.9008 55.2998L63.5008 57.1998Z" fill="#FFF100"/>
<path fill-rule="evenodd" clip-rule="evenodd" d="M63.4984 34.7994H65.4984L63.8984 35.9994L64.4984 37.9004L62.8984 36.6994L61.2984 37.9994L61.9984 35.9994L60.3984 34.7994H62.3984L62.9984 32.8994L63.4984 34.7994Z" fill="#FFF100"/>
<path fill-rule="evenodd" clip-rule="evenodd" d="M68.3016 39.5992H70.3016L68.7016 40.7992L69.3016 42.7002L67.7016 41.4992L66.1016 42.7002L66.7016 40.7992L65.1016 39.5992H67.1016L67.7016 37.7002L68.3016 39.5992Z" fill="#FFF100"/>
<path fill-rule="evenodd" clip-rule="evenodd" d="M68.3016 52.5992H70.3016L68.7016 53.7992L69.3016 55.7002L67.7016 54.4992L66.1016 55.7002L66.7016 53.7992L65.1016 52.5992H67.1016L67.7016 50.7002L68.3016 52.5992Z" fill="#FFF100"/>
<path fill-rule="evenodd" clip-rule="evenodd" d="M70.1008 45.9996H72.1008L70.5008 47.1996L71.1008 49.0996L69.5008 47.8996L67.9008 49.0996L68.5008 47.1996L66.8008 45.9996H68.8008L69.4008 44.0996L70.1008 45.9996Z" fill="#FFF100"/>
<path fill-rule="evenodd" clip-rule="evenodd" d="M50.5008 34.8H52.5008L50.9008 36L51.5008 37.901L50.0008 36.8L48.3008 38L48.9008 36.1L47.3008 34.9H49.3008L50.0008 33L50.5008 34.8Z" fill="#FFF100"/>
<path fill-rule="evenodd" clip-rule="evenodd" d="M45.8992 39.5992H47.8992L46.2992 40.7992L46.8992 42.7002L45.2992 41.4992L43.6992 42.7002L44.2992 40.7992L42.6992 39.5992H44.6992L45.2992 37.7002L45.8992 39.5992Z" fill="#FFF100"/>
<path fill-rule="evenodd" clip-rule="evenodd" d="M44.2 45.9996H46.2L44.6 47.1996L45.2 49.0996L43.6 47.8996L42 49.0996L42.6 47.1996L41 45.9996H43L43.6 44.0996L44.2 45.9996Z" fill="#FFF100"/>
<path fill-rule="evenodd" clip-rule="evenodd" d="M45.8992 52.5992H47.8992L46.2992 53.7992L46.8992 55.7002L45.2992 54.4992L43.6992 55.7002L44.2992 53.7992L42.6992 52.5992H44.6992L45.2992 50.7002L45.8992 52.5992Z" fill="#FFF100"/>
<path fill-rule="evenodd" clip-rule="evenodd" d="M50.5984 57.2994H52.5984L50.9984 58.4994L51.5984 60.4004L49.9984 59.1994L48.3984 60.4004L48.9984 58.4994L47.3984 57.2994H49.3984L49.9984 55.4004L50.5984 57.2994Z" fill="#FFF100"/>
</svg>
