<svg width="290" height="72" viewBox="0 0 290 72" fill="none" xmlns="http://www.w3.org/2000/svg">
<path fill-rule="evenodd" clip-rule="evenodd" d="M0 24.5C0 24.5 39.8 19.3 41 19.1C42.7 18.8 44.3 18.5 45.7 18.1C48.9 17.2 51.9 15.9 54.5 14.1C57 12.4 59.4 9.9 61.7 7.2C63.2 5.5 64.7 3.2 66.2 1V0C64.5 2.6 62.8 4.8 61.1 6.7C58.8 9.3 56.4 11.4 53.9 13C51.4 14.6 48.5 15.9 45.4 16.7C44 17.1 42.5 17.3 40.8 17.6C39.7 17.8 38.6 17.9 37.5 18C37 18 0 21.9 0 21.9V24.5Z" fill="white"/>
<mask id="mask0" style="mask-type:alpha" maskUnits="userSpaceOnUse" x="0" y="5" width="67" height="23">
<path fill-rule="evenodd" clip-rule="evenodd" d="M0 5.19971H66.0999V27.9997H0V5.19971Z" fill="white"/>
</mask>
<g mask="url(#mask0)">
<path fill-rule="evenodd" clip-rule="evenodd" d="M53.4 17.7997C50.9 19.1997 48 20.2997 44.8 20.8997C43.4 21.1997 42 21.3997 40.3 21.5997C39.3 21.6997 38.3 21.7997 37.3 21.8997C36.8 21.8997 36.2 21.9997 35.7 21.9997C23.5 23.1997 11.4 24.2997 0 25.3997V27.9997C11.4 26.5997 23.7 25.0997 35.9 23.6997C36.4 23.5997 37 23.5997 37.5 23.4997C38.5 23.3997 39.5 23.2997 40.5 23.0997C42.2 22.8997 43.8 22.5997 45.1 22.2997C48.4 21.5997 51.4 20.3997 54 18.7997C56.6 17.1997 58.8 15.0997 61.3 12.3997C62.8 10.6997 64.5 8.39971 66.1 6.19971V5.19971C64.2 7.69971 62.5 9.89971 60.7 11.6997C58.3 14.3997 55.9 16.3997 53.4 17.7997" fill="white"/>
</g>
<mask id="mask1" style="mask-type:alpha" maskUnits="userSpaceOnUse" x="0" y="10" width="67" height="22">
<path fill-rule="evenodd" clip-rule="evenodd" d="M0 10.9001H66.0999V31.5001H0V10.9001Z" fill="white"/>
</mask>
<g mask="url(#mask1)">
<path fill-rule="evenodd" clip-rule="evenodd" d="M60.4 17.2001C58 19.4001 55.4 21.2001 52.9 22.5001C50.4 23.7001 47.6 24.6001 44.3 25.1001C42.9 25.3001 41.5 25.5001 39.8 25.7001L0 28.9001V31.5001L35.3 27.7001L39.9 27.2001C41.6 27.0001 43.1 26.8001 44.5 26.5001C47.9 25.9001 50.8 24.9001 53.4 23.6001C56.1 22.2001 58.7 20.0001 61.2 17.6001C62.9 16.0001 64.4 13.9001 66.1 11.8001V10.9001C64.1 13.4001 62.3 15.4001 60.4 17.2001" fill="white"/>
</g>
<mask id="mask2" style="mask-type:alpha" maskUnits="userSpaceOnUse" x="0" y="21" width="67" height="18">
<path fill-rule="evenodd" clip-rule="evenodd" d="M0 21.7002H66.1998V38.5002H0V21.7002Z" fill="white"/>
</mask>
<g mask="url(#mask2)">
<path fill-rule="evenodd" clip-rule="evenodd" d="M50.8 30.6002C48.5 31.9002 46.8 32.7002 43.5 33.0002C41.5 33.2002 39.5 33.3002 37.5 33.4002C36.5 33.4002 35.6 33.5002 34.6 33.6002C28.6 33.9002 22.7 34.3002 16.7 34.7002L0 35.9002V38.5002L16.8 36.9002C22.2 36.4002 28.5 35.8002 34.7 35.3002L39.2 35.0002C40.9 34.9002 42.4 34.7002 43.7 34.5002C47.1 34.1002 50 33.4002 52.6 32.4002C55.4 31.4002 58 29.7002 60.6 27.8002C63 26.1002 66.2 22.7002 66.2 22.6002V21.7002C64.1 23.8002 62.8 25.0002 60.5 26.5002C57.6 28.5002 52.9 29.5002 50.8 30.6002" fill="white"/>
</g>
<path fill-rule="evenodd" clip-rule="evenodd" d="M51.6006 35.6001C49.1006 36.3001 46.3006 36.8001 43.0006 37.1001C41.7006 37.2001 40.2006 37.3001 38.6006 37.4001L34.2006 37.6001C23.2006 38.1001 12.2006 38.7001 0.100586 39.3001V41.9001C11.7006 41.0001 23.0006 40.1001 34.4006 39.3001L38.8006 39.0001C40.5006 38.9001 41.9006 38.8001 43.3006 38.6001C46.7006 38.2001 49.6006 37.6001 52.1006 36.8001C54.9006 35.9001 57.7006 34.6001 60.3006 32.9001C62.2006 31.7001 64.2006 30.2001 66.2006 28.4001C64.0006 30.3001 61.9006 30.7001 59.8006 32.0001C57.1006 33.6001 54.4006 34.8001 51.6006 35.6001" fill="white"/>
<path fill-rule="evenodd" clip-rule="evenodd" d="M51.2 39.9004C48.7 40.5004 45.9 40.9004 42.6 41.0994C41.3 41.2004 39.9 41.2994 38.2 41.2994L33.8 41.5004C22.7 41.9004 11.5 42.4004 0 42.9004V45.5004C11.4 44.7004 22.6 44.0004 33.9 43.2004L38.3 42.9004C40 42.7994 41.4 42.7004 42.7 42.5994C46.1 42.2994 48.9 41.7994 51.5 41.0994C54.4 40.2994 57.2 39.2004 59.9 37.7994C62 36.7004 64 35.4004 66.1 33.7994V32.7004C63.8 34.4004 61.6 35.7004 59.4 36.7994C56.8 38.2004 54 39.2004 51.2 39.9004" fill="white"/>
<mask id="mask3" style="mask-type:alpha" maskUnits="userSpaceOnUse" x="0" y="38" width="67" height="11">
<path fill-rule="evenodd" clip-rule="evenodd" d="M0 38.2007H66.1998V48.7997H0V38.2007Z" fill="white"/>
</mask>
<g mask="url(#mask3)">
<path fill-rule="evenodd" clip-rule="evenodd" d="M50.8 44.0997C48.3 44.5997 45.5 44.9007 42.2 44.9997C40.9 45.0997 39.6 45.0997 37.9 45.2007L0 46.2007V48.7997L33.6 46.9997L38 46.7997C39.7 46.7007 41.1 46.5997 42.4 46.4997C45.8 46.2007 48.5 45.9007 51.1 45.2997C54 44.7007 56.9 43.7997 59.6 42.5997C61.8 41.7007 63.9 40.5997 66.2 39.2007V38.2007C63.8 39.5997 61.5 40.7007 59.2 41.5997C56.5 42.7997 53.7 43.5997 50.8 44.0997" fill="white"/>
</g>
<path fill-rule="evenodd" clip-rule="evenodd" d="M50.5 48.2998C45.8 48.9008 41.1 48.9998 36.4 49.0998C35.3 49.0998 34.3 49.0998 33.2 49.1998L0 49.7998V52.4008L33.3 50.9998C34.4 50.9998 35.4 50.9008 36.5 50.9008C41.2 50.6998 46 50.4998 50.7 49.7998C53.7 49.2998 56.6 48.5998 59.2 47.6998C61.4 46.9998 63.7 45.9998 66 44.7998V43.7998C63.6 44.9008 61.1 45.9008 58.8 46.5998C56.3 47.2998 53.5 47.9998 50.5 48.2998" fill="white"/>
<mask id="mask4" style="mask-type:alpha" maskUnits="userSpaceOnUse" x="0" y="49" width="67" height="7">
<path fill-rule="evenodd" clip-rule="evenodd" d="M0 49.2007H66.1998V55.7997H0V49.2007Z" fill="white"/>
</mask>
<g mask="url(#mask4)">
<path fill-rule="evenodd" clip-rule="evenodd" d="M50.3 52.5997C45.9 52.9997 41.5 52.9997 37.1 52.9997H33.1C22.1 52.9997 11.1 53.0997 0 53.2007V55.7997C10.6 55.4007 21.9 55.0997 33.2 54.7007C34.5 54.7007 35.9 54.5997 37.2 54.5997C41.5 54.4997 46 54.4007 50.4 53.9007C53.5 53.5997 56.3 53.0997 59 52.4007C61.3 51.7997 63.7 50.9997 66.2 50.0997V49.2007C63.7 50.0997 61.2 50.7997 58.8 51.4007C56.1 51.9997 53.3 52.4007 50.3 52.5997" fill="white"/>
</g>
<path fill-rule="evenodd" clip-rule="evenodd" d="M50.1 56.7999C48.3 56.9009 46.3 56.9009 44.1 56.9009H41.6L33 56.7999C27.1 56.7999 21.3 56.6999 15.8 56.6999L0 56.7999V59.4009L15.9 58.9999C21.4 58.9009 27.2 58.6999 33 58.5999L41.6 58.4999C44 58.4999 47.1 58.4009 50.2 58.1999C53.3 57.9999 56.1 57.6999 58.8 57.2999C61.2 56.9009 63.7 56.4009 66.2 55.7999V54.9009C63.7 55.4999 61.1 55.9999 58.7 56.2999C55.9 56.4999 53.2 56.6999 50.1 56.7999" fill="white"/>
<path fill-rule="evenodd" clip-rule="evenodd" d="M41.5 60.9005L32.9 60.7995C22 60.5995 11.1 60.4005 0 60.2005V62.7995C10.6 62.7005 21.8 62.5995 32.9 62.5005L41.5 62.4005C44.4 62.4005 47.2 62.2995 50.1 62.2005C56 62.0005 61.2 61.5995 66.2 60.9005V60.0005C61.3 60.5005 56 60.7995 50.1 60.9005H41.5" fill="white"/>
<path fill-rule="evenodd" clip-rule="evenodd" d="M66.1 65.5L0 63.8V66.4H66.1V65.5Z" fill="white"/>
<path fill-rule="evenodd" clip-rule="evenodd" d="M60.2 21.9999C57.7 23.9999 55.7 25.4999 52.7 26.6999C50 27.7999 47.1 28.1999 43.9 28.6999C41.8 28.9999 39.6 29.3999 37.5 29.5999C36.6 29.6999 35.8 29.6999 34.9 29.7999L0 32.2999V34.8999L34.9 31.4999L39.4 31.0999C41.1 30.8999 42.6 30.7999 44 30.4999C47.4 29.9999 50.3 29.0999 52.9 27.8999C55.6 26.6999 58.4 24.6999 60.9 22.5999C62.6 21.0999 64.3 19.2999 66.1 17.2999V16.3999C63.9 18.5999 62.1 20.4999 60.2 21.9999" fill="white"/>
<path fill-rule="evenodd" clip-rule="evenodd" d="M94.2002 0C94.2002 0 106.1 18.9 108.3 22.4C110.5 25.9 113 28.6 121.8 30.5C130.6 32.4 134.4 33.2 134.4 33.2V33.9C134.4 33.9 128.8 32.7 121.6 31.1C114.4 29.5 111.5 29 108.2 24.4C105.5 20.6 94.2002 4.5 94.2002 4.5V0Z" fill="white"/>
<path fill-rule="evenodd" clip-rule="evenodd" d="M94.2002 21.6001C94.2002 21.6001 105 32.9001 108.2 36.2001C111.5 39.7001 115.8 40.9001 121.7 42.0001C127.3 43.0001 134.4 44.2001 134.4 44.2001V44.8001C134.4 44.8001 127.7 43.7001 121.7 42.7001C115.8 41.7001 111.6 41.1001 108.2 38.0001C105.2 35.2001 94.3002 25.0001 94.3002 25.0001L94.2002 21.6001Z" fill="white"/>
<path fill-rule="evenodd" clip-rule="evenodd" d="M94.2002 26.7998C94.2002 26.7998 104.5 36.3998 108.2 39.5998C111.6 42.5998 114.3 43.4998 121.7 44.9008C129.1 46.1998 134.4 46.9998 134.4 46.9998V47.6998C134.4 47.6998 127.7 46.5998 121.7 45.5998C115.7 44.5998 111.8 44.2998 108.2 41.2998C104 37.9008 94.2002 29.8998 94.2002 29.8998V26.7998Z" fill="white"/>
<path fill-rule="evenodd" clip-rule="evenodd" d="M94.2002 32.2002C94.2002 32.2002 106 41.5002 108.2 43.2002C110.4 44.8002 113.3 46.7002 121.7 48.0002C130.1 49.2002 134.4 49.8002 134.4 49.8002V50.5002C134.4 50.5002 126.8 49.4002 121.7 48.8002C116.6 48.2002 112.7 47.9002 108.2 44.9002C103.8 42.0002 94.2002 35.2002 94.2002 35.2002V32.2002Z" fill="white"/>
<path fill-rule="evenodd" clip-rule="evenodd" d="M94.2002 37.4004C94.2002 37.4004 106 45.2994 108.2 46.5004C110.4 47.7004 113.1 49.7994 121.7 50.9004C130.3 52.0004 134.4 52.5004 134.4 52.5004V53.2004C134.4 53.2004 127.3 52.4004 121.7 51.7994C116.1 51.2004 112.3 50.4004 108.2 48.0994C104.1 45.7994 94.2002 40.0994 94.2002 40.0994V37.4004Z" fill="white"/>
<path fill-rule="evenodd" clip-rule="evenodd" d="M94.2002 42.7002C94.2002 42.7002 104.6 48.4002 108.2 50.0992C112.1 52.0992 115.5 53.0002 121.7 53.8002C127.8 54.5002 134.4 55.2002 134.4 55.2002V55.8002C134.4 55.8002 128.3 55.0992 121.7 54.5002C115.2 53.9002 112.9 53.5992 108.2 51.5002C104 49.5992 94.2002 45.0992 94.2002 45.0992V42.7002Z" fill="white"/>
<path fill-rule="evenodd" clip-rule="evenodd" d="M94.2006 48C94.2006 48 102.401 51.5 108.201 53.8C113.901 56.1 118.201 56.3 121.701 56.6C123.201 56.8 134.301 57.9 134.301 57.9V58.5C134.301 58.5 127.701 58 121.601 57.4C115.601 56.9 113.001 56.6 108.101 55C103.201 53.4 94.1006 50.2 94.1006 50.2L94.2006 48Z" fill="white"/>
<path fill-rule="evenodd" clip-rule="evenodd" d="M94.2002 53.4004C94.2002 53.4004 102.5 56.0004 108.2 57.5004C113.9 59.0004 119.1 59.5994 121.7 59.7994C124.3 60.0004 134.4 60.7994 134.4 60.7994V61.4004C134.4 61.4004 128.7 61.0004 121.7 60.5004C116 60.0994 111.5 59.7004 108.2 58.9004C104.5 58.0994 94.2002 55.5994 94.2002 55.5994V53.4004Z" fill="white"/>
<path fill-rule="evenodd" clip-rule="evenodd" d="M94.2002 58.7002C94.2002 58.7002 101 59.9002 108.2 61.0992C113.6 62.0002 120.9 62.5992 121.7 62.5992C122.5 62.5992 134.4 63.5002 134.4 63.5002V64.0992C134.4 64.0992 126.8 63.7002 121.7 63.4002C116.4 63.0992 111.2 62.8002 108.2 62.5002C101.5 61.8002 94.2002 60.9002 94.2002 60.9002V58.7002Z" fill="white"/>
<path fill-rule="evenodd" clip-rule="evenodd" d="M94.2002 64.2998C94.2002 64.2998 104.9 64.6998 108.2 64.7998C111.5 64.9008 134.4 65.7998 134.4 65.7998V66.4008H94.2002V64.2998Z" fill="white"/>
<path fill-rule="evenodd" clip-rule="evenodd" d="M121.7 33.3999C112 31.2999 109.8 27.7999 108.2 25.5999C106.6 23.3999 94.2998 5.3999 94.2998 5.3999V9.4999C94.7998 10.0999 105.3 23.8999 108.3 27.6999C111.6 31.9999 116.8 32.9999 121.8 33.9999C126.8 35.0999 134.5 36.5999 134.5 36.5999V35.9999C134.4 35.9999 124.2 33.9999 121.7 33.3999" fill="white"/>
<path fill-rule="evenodd" clip-rule="evenodd" d="M121.7 36.2999C113.7 34.6999 110.5 32.1999 108.2 29.1999C105.9 26.0999 94.2998 10.8999 94.2998 10.8999V14.6999C94.7998 15.2999 105.4 27.7999 108.2 31.0999C111.5 34.8999 116.1 35.8999 121.7 36.8999C127.3 37.9009 134.4 39.2999 134.4 39.2999V38.6999C134.4 38.6999 126.3 37.1999 121.7 36.2999" fill="white"/>
<path fill-rule="evenodd" clip-rule="evenodd" d="M121.7 39.2001C113.4 37.5991 111.7 36.3001 108.2 32.4001C106 30.0001 94.7002 16.7001 94.2002 16.1001V19.6001C94.2002 19.6001 104.7 30.8001 108.1 34.2001C112.5 38.5991 116.7 38.9001 121.6 39.8001C126.5 40.7001 134.3 42.0991 134.3 42.0991V41.5001C134.4 41.5001 125 39.9001 121.7 39.2001" fill="white"/>
<mask id="mask5" style="mask-type:alpha" maskUnits="userSpaceOnUse" x="0" y="0" width="250" height="71">
<path fill-rule="evenodd" clip-rule="evenodd" d="M0 70.6H249.7V0H0V70.6Z" fill="white"/>
</mask>
<g mask="url(#mask5)">
<path fill-rule="evenodd" clip-rule="evenodd" d="M27.5 66.3001H85.4V27.6001H27.5V66.3001Z" fill="#004494" stroke="white" stroke-width="2"/>
<path fill-rule="evenodd" clip-rule="evenodd" d="M57.1004 33.1001H59.1004L57.5004 34.4001L58.1004 36.4001L56.5004 35.2001L54.9004 36.4001L55.5004 34.4001L53.9004 33.1001H55.9004L56.5004 31.1001L57.1004 33.1001Z" fill="#FFF100"/>
<path fill-rule="evenodd" clip-rule="evenodd" d="M57.1004 58.9005H59.1004L57.5004 60.0995L58.1004 62.0005L56.5004 60.7995L54.9004 62.0005L55.5004 60.0995L53.9004 58.9005H55.9004L56.5004 57.0005L57.1004 58.9005Z" fill="#FFF100"/>
<path fill-rule="evenodd" clip-rule="evenodd" d="M63.4998 57.2003H65.4998L63.8998 58.4003L64.4998 60.3003L62.8998 59.0993L61.2998 60.3003L61.8998 58.4003L60.2998 57.2003H62.2998L62.8998 55.3003L63.4998 57.2003Z" fill="#FFF100"/>
<path fill-rule="evenodd" clip-rule="evenodd" d="M63.5004 34.7999H65.5004L63.9004 35.9999L64.5004 37.9009L62.9004 36.6999L61.3004 37.9999L62.0004 35.9999L60.4004 34.7999H62.4004L63.0004 32.8999L63.5004 34.7999Z" fill="#FFF100"/>
<path fill-rule="evenodd" clip-rule="evenodd" d="M68.2996 39.5997H70.2996L68.6996 40.7997L69.2996 42.7007L67.6996 41.4997L66.0996 42.7007L66.6996 40.7997L65.0996 39.5997H67.0996L67.6996 37.7007L68.2996 39.5997Z" fill="#FFF100"/>
<path fill-rule="evenodd" clip-rule="evenodd" d="M68.2996 52.5997H70.2996L68.6996 53.7997L69.2996 55.7007L67.6996 54.4997L66.0996 55.7007L66.6996 53.7997L65.0996 52.5997H67.0996L67.6996 50.7007L68.2996 52.5997Z" fill="#FFF100"/>
<path fill-rule="evenodd" clip-rule="evenodd" d="M70.0998 46.0001H72.0998L70.4998 47.2001L71.0998 49.1001L69.4998 47.9001L67.8998 49.1001L68.4998 47.2001L66.7998 46.0001H68.7998L69.3998 44.1001L70.0998 46.0001Z" fill="#FFF100"/>
<path fill-rule="evenodd" clip-rule="evenodd" d="M50.4998 34.7998H52.4998L50.8998 35.9998L51.4998 37.9008L49.9998 36.7998L48.2998 37.9998L48.8998 36.0998L47.2998 34.8998H49.2998L49.9998 32.9998L50.4998 34.7998Z" fill="#FFF100"/>
<path fill-rule="evenodd" clip-rule="evenodd" d="M45.9002 39.5997H47.9002L46.3002 40.7997L46.9002 42.7007L45.3002 41.4997L43.7002 42.7007L44.3002 40.7997L42.7002 39.5997H44.7002L45.3002 37.7007L45.9002 39.5997Z" fill="#FFF100"/>
<path fill-rule="evenodd" clip-rule="evenodd" d="M44.2 46.0001H46.2L44.6 47.2001L45.2 49.1001L43.6 47.9001L42 49.1001L42.6 47.2001L41 46.0001H43L43.6 44.1001L44.2 46.0001Z" fill="#FFF100"/>
<path fill-rule="evenodd" clip-rule="evenodd" d="M45.9002 52.5997H47.9002L46.3002 53.7997L46.9002 55.7007L45.3002 54.4997L43.7002 55.7007L44.3002 53.7997L42.7002 52.5997H44.7002L45.3002 50.7007L45.9002 52.5997Z" fill="#FFF100"/>
<path fill-rule="evenodd" clip-rule="evenodd" d="M50.6004 57.2999H52.6004L51.0004 58.4999L51.6004 60.4009L50.0004 59.1999L48.4004 60.4009L49.0004 58.4999L47.4004 57.2999H49.4004L50.0004 55.4009L50.6004 57.2999Z" fill="#FFF100"/>
<path fill-rule="evenodd" clip-rule="evenodd" d="M145.6 39.0996L147.1 37.0996L150.5 32.8996C150.6 32.7996 150.7 32.7006 150.8 32.7006C150.9 32.7006 151 32.5996 151.2 32.5996H153C153.1 32.5996 153.2 32.5996 153.3 32.7006C153.3 32.7996 153.3 32.8996 153.2 32.9996L148.8 38.2996L153.3 45.4996C153.4 45.5996 153.4 45.7006 153.3 45.7996C153.2 45.9006 153.2 45.9006 153.1 45.9006H151.3C151.1 45.9006 151 45.9006 150.9 45.7996C150.8 45.7006 150.7 45.5996 150.6 45.4996L147.3 39.9996L145.5 42.2006V45.4996C145.5 45.5996 145.5 45.7006 145.4 45.7996C145.4 45.9006 145.3 45.9006 145.1 45.9006H143.6C143.3 45.9006 143.2 45.7996 143.2 45.4996V33.0996C143.2 32.7996 143.3 32.7006 143.6 32.7006H145.1C145.2 32.7006 145.3 32.7006 145.4 32.7996C145.4 32.8996 145.5 32.9996 145.5 33.0996L145.6 39.0996Z" fill="white"/>
<path fill-rule="evenodd" clip-rule="evenodd" d="M161 41.0995C161 40.5995 161 40.0995 160.9 39.7005C160.8 39.2995 160.7 38.9995 160.6 38.7005C160.4 38.4005 160.2 38.2005 159.9 38.0995C159.6 37.9995 159.3 37.9005 158.8 37.9005C158.4 37.9005 158 37.9995 157.8 38.0995C157.6 38.2005 157.3 38.4005 157.2 38.7005C157 38.9995 156.9 39.2995 156.9 39.7005C156.8 40.0995 156.8 40.5995 156.8 41.0995C156.8 41.5995 156.8 42.0995 156.9 42.4995C157 42.9005 157.1 43.2005 157.2 43.4995C157.3 43.7995 157.6 43.9995 157.8 44.0995C158 44.2005 158.4 44.2995 158.8 44.2995C159.3 44.2995 159.6 44.2005 159.9 44.0995C160.2 43.9995 160.4 43.7995 160.6 43.4995C160.8 43.2005 160.9 42.9005 160.9 42.4995C161 42.0995 161 41.7005 161 41.0995M163.2 40.9995C163.2 41.5995 163.2 42.2005 163.1 42.7995C163 43.4005 162.8 43.9995 162.5 44.4995C162.2 44.9995 161.8 45.4005 161.2 45.7995C160.6 46.0995 159.8 46.2995 158.8 46.2995C157.8 46.2995 157 46.0995 156.4 45.7995C155.8 45.4995 155.4 45.0995 155.1 44.4995C154.8 43.9995 154.6 43.4005 154.6 42.7995C154.5 42.2005 154.5 41.5995 154.5 40.9995C154.5 40.4995 154.5 39.9995 154.6 39.4005C154.7 38.7995 154.9 38.2995 155.2 37.7995C155.5 37.2995 155.9 36.8995 156.5 36.4995C157.1 36.2005 157.8 35.9995 158.8 35.9995C159.8 35.9995 160.6 36.0995 161.1 36.3995C161.7 36.7005 162.1 37.0995 162.4 37.5995C162.7 38.0995 162.9 38.5995 163 39.2005C163.2 39.7995 163.2 40.4005 163.2 40.9995" fill="white"/>
<path fill-rule="evenodd" clip-rule="evenodd" d="M179.5 46C179.5 46.1 179.4 46.1 179.2 46.1H177.8C177.5 46.1 177.4 46 177.4 45.7V40C177.4 39.3 177.3 38.7 177.1 38.5C176.9 38.2 176.5 38.1 176 38.1C175.8 38.1 175.6 38.1 175.4 38.2C175.2 38.3 174.9 38.3 174.7 38.4C174.5 38.5 174.2 38.6 174 38.7C173.8 38.8 173.6 38.9 173.4 39V39.4V40V45.7C173.4 45.8 173.4 45.9 173.3 46C173.2 46.1 173.1 46.1 173 46.1H171.5C171.3 46.1 171.2 46 171.2 45.7V39.9C171.2 39.3 171.1 38.8 170.9 38.5C170.7 38.2 170.4 38.1 169.9 38.1C169.7 38.1 169.5 38.1 169.3 38.2C169.1 38.3 168.9 38.3 168.6 38.4C168.4 38.5 168.1 38.6 167.9 38.7C167.7 38.8 167.5 38.9 167.3 39V45.7C167.3 46 167.2 46.1 166.9 46.1H165.5C165.3 46.1 165.1 46 165.1 45.7V36.6C165.1 36.3 165.2 36.2 165.5 36.2H166.9C167.2 36.2 167.3 36.3 167.3 36.6V37.2C167.5 37.1 167.7 36.9 167.9 36.8C168.1 36.7 168.4 36.5 168.6 36.4C168.8 36.3 169.1 36.2 169.4 36.1C169.7 36 169.9 36 170.2 36C170.8 36 171.3 36.1 171.8 36.3C172.3 36.5 172.7 36.9 173 37.4C173.5 37 174.1 36.7 174.7 36.4C175.3 36.1 175.9 36 176.6 36C177.3 36 177.8 36.1 178.2 36.3C178.6 36.5 178.9 36.8 179.1 37.1C179.3 37.4 179.4 37.8 179.5 38.3C179.6 38.8 179.6 39.2 179.6 39.7V45.6C179.6 45.8 179.6 45.9 179.5 46" fill="white"/>
<path fill-rule="evenodd" clip-rule="evenodd" d="M184.2 45.7001C184.2 45.8001 184.2 45.9001 184.099 46.0001C184 46.0991 184 46.0991 183.8 46.0991H182.4C182.099 46.0991 182 46.0001 182 45.7001V36.6001C182 36.3001 182.099 36.2001 182.4 36.2001H183.8C183.9 36.2001 184 36.2001 184.099 36.3001C184.2 36.4001 184.2 36.5001 184.2 36.6001V45.7001ZM184.3 33.6001V34.1001C184.3 34.3001 184.2 34.4001 184.099 34.5001C184 34.6001 183.9 34.7001 183.7 34.8001C183.5 34.9001 183.3 34.9001 183.099 34.9001C182.8 34.9001 182.599 34.9001 182.5 34.8001C182.3 34.7001 182.2 34.6001 182.099 34.5001C182 34.4001 182 34.3001 181.9 34.1001V33.7001C181.9 33.4001 182 33.1001 182.099 32.9001C182.3 32.7001 182.599 32.6001 183.099 32.6001C183.599 32.6001 183.9 32.7001 184.099 32.9001C184.3 33.0001 184.3 33.3001 184.3 33.6001V33.6001Z" fill="white"/>
<path fill-rule="evenodd" clip-rule="evenodd" d="M194.1 43.0997C194.1 43.7007 194 44.2007 193.8 44.5997C193.6 44.9997 193.3 45.2997 192.901 45.5997C192.5 45.7997 192.1 45.9997 191.6 46.0997C191.1 46.2007 190.6 46.2997 190.1 46.2997C189.6 46.2997 189 46.2997 188.5 46.2007C187.901 46.0997 187.401 45.9997 187 45.9007C186.8 45.7997 186.701 45.7007 186.6 45.5997C186.5 45.4997 186.5 45.4007 186.6 45.2007L186.701 44.4997C186.701 44.2997 186.8 44.2007 186.901 44.2007H187.3C187.5 44.2007 187.8 44.2997 188 44.2997C188.3 44.2997 188.5 44.2997 188.8 44.4007C189.1 44.4007 189.3 44.4007 189.5 44.4997H190.1C190.701 44.4997 191.201 44.4007 191.5 44.2007C191.8 43.9997 191.901 43.7007 191.901 43.2997C191.901 43.0997 191.901 42.9007 191.8 42.7007C191.701 42.4997 191.701 42.4007 191.5 42.2997C191.3 42.2007 191.201 42.0997 191 42.0997C190.8 41.9997 190.5 41.9997 190.201 41.9007C189.701 41.7997 189.201 41.7007 188.8 41.5997C188.401 41.4997 188 41.2997 187.6 41.0997C187.3 40.9007 187 40.5997 186.8 40.2997C186.6 39.9997 186.5 39.4997 186.5 38.9997C186.5 37.9997 186.8 37.2997 187.5 36.7007C188.201 36.2007 189.1 35.8997 190.201 35.8997H190.901C191.201 35.8997 191.401 35.8997 191.701 35.9997C192 35.9997 192.201 36.0997 192.5 36.0997C192.8 36.0997 193 36.2007 193.201 36.2997C193.5 36.3997 193.701 36.5997 193.6 36.8997L193.401 37.5997C193.401 37.7007 193.3 37.7997 193.201 37.9007H192.8C192.401 37.7997 191.901 37.7997 191.401 37.7007C190.901 37.7007 190.5 37.5997 190.1 37.5997C189.5 37.5997 189 37.7007 188.8 37.9007C188.6 38.0997 188.5 38.4007 188.5 38.7997C188.5 39.2007 188.6 39.4007 188.901 39.5997C189.201 39.7007 189.6 39.7997 190.201 39.9007C190.701 39.9997 191.1 40.0997 191.6 40.2007C192.1 40.2997 192.401 40.4997 192.8 40.7007C193.1 40.9007 193.401 41.2007 193.6 41.5997C194 41.9997 194.1 42.4997 194.1 43.0997" fill="white"/>
<path fill-rule="evenodd" clip-rule="evenodd" d="M198.8 33.6001V34.1001C198.8 34.3001 198.7 34.4001 198.6 34.5001C198.5 34.6001 198.401 34.7001 198.2 34.8001C198 34.9001 197.8 34.9001 197.6 34.9001C197.3 34.9001 197.1 34.9001 197 34.8001C196.8 34.7001 196.7 34.6001 196.6 34.5001C196.5 34.4001 196.5 34.3001 196.401 34.1001V33.7001C196.401 33.4001 196.5 33.1001 196.6 32.9001C196.8 32.7001 197.1 32.6001 197.6 32.6001C198.1 32.6001 198.401 32.7001 198.6 32.9001C198.7 33.0001 198.8 33.3001 198.8 33.6001V33.6001ZM198.7 46.3001C198.7 47.0001 198.6 47.5001 198.5 48.0001C198.401 48.5001 198.1 48.9001 197.7 49.3001C197.3 49.6001 196.901 49.9001 196.3 50.1001C195.7 50.3001 195 50.3001 194.2 50.3001C194.1 50.3001 194 50.3001 193.901 50.2001C193.8 50.1001 193.7 50.0001 193.7 49.9001L193.6 49.0001V48.7001C193.6 48.6001 193.7 48.6001 193.901 48.6001C194.401 48.5001 194.8 48.4001 195.1 48.3001C195.401 48.2001 195.7 48.1001 195.901 47.9001C196.1 47.8001 196.2 47.6001 196.3 47.3001C196.401 47.1001 196.401 46.8001 196.401 46.4001V36.7001C196.401 36.4001 196.5 36.3001 196.8 36.3001H198.2C198.5 36.3001 198.6 36.4001 198.6 36.7001V46.3001H198.7Z" fill="white"/>
<path fill-rule="evenodd" clip-rule="evenodd" d="M207.3 41.5997H204.901C204.401 41.5997 204 41.7007 203.7 41.9997C203.401 42.2007 203.3 42.7007 203.3 43.2997C203.3 43.7007 203.401 43.9997 203.6 44.2007C203.8 44.4007 204.1 44.4997 204.6 44.4997C204.8 44.4997 205 44.4997 205.3 44.4007C205.6 44.2997 205.8 44.2997 206.1 44.2007C206.401 44.0997 206.6 43.9997 206.8 43.9007C207 43.7997 207.3 43.7007 207.401 43.5997V41.5997H207.3ZM207.401 44.9007C206.901 45.2997 206.3 45.5997 205.7 45.7997C205.1 45.9997 204.401 46.2007 203.7 46.2007C203.2 46.2007 202.7 46.0997 202.401 45.9997C202 45.9007 201.8 45.7007 201.6 45.4007C201.401 45.2007 201.2 44.9007 201.2 44.4997C201.1 44.2007 201.1 43.7997 201.1 43.2997C201.1 42.0997 201.401 41.2997 202 40.7007C202.6 40.2007 203.6 39.9007 204.8 39.9007H207.401V39.4007C207.401 39.0997 207.401 38.9007 207.3 38.5997C207.2 38.4007 207.1 38.2007 207 38.0997C206.8 37.9997 206.6 37.9007 206.401 37.7997C206.1 37.7007 205.8 37.7007 205.401 37.7007H204.8H204.1C203.901 37.7007 203.6 37.7007 203.401 37.7997C203.2 37.7997 202.901 37.7997 202.7 37.9007H202.3C202.2 37.9007 202.2 37.7997 202.1 37.5997L201.901 36.8997V36.5997C201.901 36.4997 202.1 36.3997 202.3 36.2997C202.5 36.2007 202.8 36.2007 203.1 36.0997C203.401 35.9997 203.7 35.9997 204 35.9997C204.3 35.9997 204.6 35.8997 204.901 35.8997H205.7C206.6 35.8997 207.3 35.9997 207.8 36.2007C208.3 36.3997 208.7 36.5997 209 36.8997C209.3 37.2007 209.401 37.5997 209.5 38.0997C209.6 38.5997 209.6 39.0997 209.6 39.5997V43.4997V43.9997C209.6 44.0997 209.7 44.2007 209.7 44.2997C209.7 44.4007 209.8 44.4007 209.901 44.4007C210 44.4007 210.1 44.4007 210.3 44.4997C210.401 44.4997 210.5 44.4997 210.6 44.5997C210.7 44.7007 210.7 44.7007 210.7 44.7997V45.5997C210.7 45.7997 210.5 45.9997 210.2 45.9997C210 45.9997 209.901 45.9997 209.7 46.0997H209.2C208.7 46.0997 208.401 45.9997 208.1 45.7997C207.8 45.7007 207.6 45.4007 207.401 44.9007V44.9007Z" fill="white"/>
<path fill-rule="evenodd" clip-rule="evenodd" d="M143.4 53.4005C143.4 53.0995 143.5 53.0005 143.8 53.0005H151.2C151.5 53.0005 151.6 53.0995 151.6 53.4005V54.5995C151.6 54.7995 151.5 55.0005 151.2 55.0005H145.7V58.5005H150.6C150.9 58.5005 151 58.5995 151 58.9005V60.0995C151 60.2995 150.9 60.5005 150.6 60.5005H145.7V64.5005H151.3C151.5 64.5005 151.7 64.5995 151.7 64.9005V66.0005C151.7 66.2005 151.6 66.4005 151.3 66.4005H143.8C143.5 66.4005 143.4 66.2995 143.4 66.0005V53.4005Z" fill="white"/>
<path fill-rule="evenodd" clip-rule="evenodd" d="M161.8 66.4003H160.401C160.3 66.4003 160.2 66.4003 160.1 66.2993C160 66.2003 160 66.0993 160 66.0003V65.4003C159.8 65.5003 159.6 65.7003 159.3 65.7993C159 65.9003 158.8 66.0993 158.5 66.2003C158.2 66.2993 157.901 66.4003 157.6 66.5003C157.3 66.5993 157 66.5993 156.7 66.5993C156 66.5993 155.5 66.5003 155.1 66.2993C154.7 66.0993 154.401 65.9003 154.2 65.5003C154 65.2003 153.901 64.7993 153.8 64.2993C153.7 63.7993 153.7 63.4003 153.7 62.7993V56.9003C153.7 56.5993 153.8 56.5003 154.1 56.5003H155.6C155.8 56.5003 156 56.5993 156 56.9003V62.5003C156 62.7993 156 63.0993 156.1 63.2993C156.1 63.5003 156.2 63.7003 156.3 63.9003C156.401 64.0993 156.6 64.2003 156.7 64.2993C156.8 64.4003 157.1 64.4003 157.401 64.4003C157.6 64.4003 157.8 64.4003 158.1 64.2993C158.401 64.2003 158.6 64.0993 158.901 64.0003C159.2 63.9003 159.401 63.7993 159.6 63.7003C159.8 63.5993 160 63.5003 160.1 63.4003V56.7003C160.1 56.5993 160.1 56.5003 160.2 56.4003C160.3 56.2993 160.401 56.2993 160.5 56.2993H161.901C162.2 56.2993 162.3 56.4003 162.3 56.7003V66.0003C162.2 66.2003 162.1 66.4003 161.8 66.4003" fill="white"/>
<path fill-rule="evenodd" clip-rule="evenodd" d="M166.901 65.9999C166.901 66.2999 166.8 66.3999 166.501 66.3999H165.001C164.701 66.3999 164.6 66.2999 164.6 65.9999V56.8999C164.6 56.5999 164.701 56.4999 165.001 56.4999H166.401C166.701 56.4999 166.8 56.5999 166.8 56.8999V57.7999C166.901 57.6999 167.1 57.4999 167.401 57.3999C167.6 57.1999 167.901 57.0999 168.201 56.9999C168.501 56.8999 168.8 56.7999 169.001 56.5999C169.3 56.4999 169.501 56.3999 169.8 56.3999H170.1C170.201 56.3999 170.201 56.4999 170.3 56.6999L170.401 57.9999V58.2999C170.401 58.3999 170.3 58.3999 170.001 58.4999C169.701 58.5999 169.401 58.5999 169.1 58.6999C168.8 58.7999 168.501 58.8999 168.201 58.8999C167.901 58.9999 167.6 59.0999 167.401 59.1999C167.1 59.2999 166.901 59.3999 166.8 59.3999L166.901 65.9999Z" fill="white"/>
<path fill-rule="evenodd" clip-rule="evenodd" d="M177.9 61.4003C177.9 60.9003 177.9 60.4003 177.799 60.0003C177.7 59.5993 177.599 59.2993 177.5 59.0003C177.299 58.7003 177.099 58.5003 176.799 58.4003C176.5 58.2993 176.2 58.2003 175.7 58.2003C175.299 58.2003 174.9 58.2993 174.7 58.4003C174.5 58.5003 174.2 58.7003 174.099 59.0003C173.9 59.2993 173.799 59.5993 173.799 60.0003C173.7 60.4003 173.7 60.9003 173.7 61.4003C173.7 61.9003 173.7 62.4003 173.799 62.7993C173.9 63.2003 174 63.5003 174.099 63.7993C174.2 64.0993 174.5 64.2993 174.7 64.4003C174.9 64.5003 175.299 64.5993 175.7 64.5993C176.2 64.5993 176.5 64.5003 176.799 64.4003C177.099 64.2993 177.299 64.0993 177.5 63.7993C177.7 63.5003 177.799 63.2003 177.799 62.7993C177.9 62.4003 177.9 62.0003 177.9 61.4003M180.2 61.2993C180.2 61.9003 180.2 62.5003 180.099 63.0993C180 63.7003 179.799 64.2993 179.5 64.7993C179.2 65.2993 178.799 65.7003 178.2 66.0993C177.599 66.4003 176.799 66.5993 175.799 66.5993C174.799 66.5993 174 66.4003 173.4 66.0993C172.799 65.7993 172.4 65.4003 172.099 64.7993C171.799 64.2993 171.599 63.7003 171.599 63.0993C171.5 62.5003 171.5 61.9003 171.5 61.2993C171.5 60.7993 171.5 60.2993 171.599 59.7003C171.7 59.0993 171.9 58.5993 172.2 58.0993C172.5 57.5993 172.9 57.2003 173.5 56.7993C174.099 56.5003 174.799 56.2993 175.799 56.2993C176.799 56.2993 177.599 56.4003 178.099 56.7003C178.7 57.0003 179.099 57.4003 179.4 57.9003C179.7 58.4003 179.9 58.9003 180 59.5003C180.099 60.0993 180.2 60.7003 180.2 61.2993" fill="white"/>
<path fill-rule="evenodd" clip-rule="evenodd" d="M188.5 61.4003C188.5 60.7993 188.5 60.2003 188.4 59.9003C188.3 59.5993 188.2 59.2003 188.1 59.0003C188 58.7993 187.8 58.5993 187.6 58.5993C187.4 58.5003 187.2 58.5003 186.9 58.5003C186.7 58.5003 186.5 58.5003 186.2 58.5993C185.9 58.7003 185.7 58.7003 185.4 58.7993C185.2 58.9003 184.9 59.0003 184.7 59.0993C184.5 59.2003 184.3 59.2993 184.1 59.4003V64.4003C184.6 64.5003 185 64.5993 185.3 64.7003C185.6 64.7993 186 64.7993 186.4 64.7993C186.8 64.7993 187.1 64.7003 187.3 64.5993C187.5 64.5003 187.7 64.2993 187.9 64.0993C188.1 63.7993 188.2 63.5003 188.2 63.0993C188.5 62.5003 188.5 62.0003 188.5 61.4003M190.8 61.4003C190.8 62.2003 190.7 62.9003 190.6 63.5993C190.5 64.2003 190.3 64.7993 190 65.2003C189.7 65.5993 189.3 66.0003 188.8 66.2003C188.3 66.4003 187.6 66.5003 186.8 66.5003C186.5 66.5003 186.1 66.5003 185.6 66.4003C185.2 66.2993 184.7 66.2003 184.2 66.0993V69.5993C184.2 69.7003 184.2 69.7993 184.1 69.9003C184 70.0003 183.9 70.0003 183.8 70.0003H182.4C182.2 70.0003 182.1 70.0003 182.1 69.9003C182.1 69.7993 182 69.7003 182 69.5993V56.9003C182 56.5993 182.1 56.5003 182.4 56.5003H183.8C183.9 56.5003 184 56.5003 184.1 56.5993C184.2 56.7003 184.2 56.7993 184.2 56.9003V57.5003H184.3C184.5 57.4003 184.7 57.2993 184.9 57.0993C185.1 57.0003 185.4 56.7993 185.7 56.7003C186 56.5993 186.3 56.5003 186.6 56.4003C186.9 56.2993 187.2 56.2993 187.5 56.2993C188.2 56.2993 188.7 56.4003 189.1 56.7003C189.5 56.9003 189.9 57.2993 190.1 57.7003C190.3 58.0993 190.5 58.7003 190.6 59.2993C190.8 59.9003 190.8 60.5993 190.8 61.4003" fill="white"/>
<path fill-rule="evenodd" clip-rule="evenodd" d="M196.701 58.0995C196.301 58.0995 196.001 58.2005 195.801 58.2995C195.6 58.4005 195.401 58.5995 195.201 58.7995C195.001 58.9995 194.901 59.2995 194.901 59.5995C194.801 59.9005 194.801 60.2005 194.801 60.5995H198.801C198.801 60.2995 198.801 59.9995 198.701 59.7005C198.6 59.4005 198.501 59.2005 198.401 58.9005C198.301 58.5995 198.1 58.4995 197.801 58.4005C197.401 58.2005 197.1 58.0995 196.701 58.0995V58.0995ZM194.701 61.9995C194.701 62.4995 194.801 62.9005 194.901 63.2995C195.001 63.5995 195.201 63.9005 195.401 64.0995C195.6 64.2995 195.801 64.4005 196.1 64.4995C196.401 64.5995 196.701 64.5995 197.201 64.5995C197.6 64.5995 198.001 64.5995 198.501 64.4995C199.001 64.4005 199.401 64.4005 199.801 64.4005H200.201C200.301 64.4005 200.301 64.4995 200.401 64.7005L200.501 65.4005V65.7995C200.501 65.9005 200.401 65.9995 200.201 66.0995C200.001 66.2005 199.801 66.2995 199.501 66.2995C199.201 66.2995 199.001 66.4005 198.701 66.4995C198.401 66.5995 198.1 66.5995 197.801 66.5995H197.001C196.001 66.5995 195.301 66.4995 194.701 66.2005C194.1 65.9005 193.701 65.4995 193.401 65.0995C193.1 64.5995 192.901 64.0995 192.801 63.4995C192.701 62.9005 192.6 62.2995 192.6 61.5995C192.6 61.0995 192.6 60.5995 192.701 59.9995C192.801 59.4005 193.001 58.7995 193.301 58.2995C193.6 57.7995 194.001 57.2995 194.6 56.9995C195.201 56.5995 195.901 56.4995 196.901 56.4995C197.801 56.4995 198.501 56.5995 199.1 56.9005C199.701 57.2005 200.1 57.4995 200.401 57.9005C200.701 58.2995 200.901 58.7995 201.001 59.2995C201.1 59.7995 201.201 60.4005 201.201 60.9005C201.201 61.2995 201.201 61.5995 201.001 61.7995C200.801 61.9995 200.401 61.9995 200.001 61.9995H194.701Z" fill="white"/>
<path fill-rule="evenodd" clip-rule="evenodd" d="M205.7 53.9004V54.4004C205.7 54.5994 205.599 54.7004 205.5 54.7994C205.4 54.9004 205.3 55.0004 205.099 55.0994C204.9 55.2004 204.7 55.2004 204.5 55.2004C204.2 55.2004 204 55.2004 203.9 55.0994C203.7 55.0004 203.599 54.9004 203.5 54.7994C203.4 54.7004 203.4 54.5994 203.3 54.4004V54.0004C203.3 53.7004 203.4 53.4004 203.5 53.2004C203.7 53.0004 204 52.9004 204.5 52.9004C205 52.9004 205.3 53.0004 205.5 53.2004C205.599 53.2994 205.7 53.5994 205.7 53.9004V53.9004ZM205.599 66.5994C205.599 67.2994 205.5 67.7994 205.4 68.2994C205.3 68.7994 205 69.2004 204.599 69.5994C204.2 69.9004 203.8 70.2004 203.2 70.4004C202.599 70.5994 201.9 70.5994 201.099 70.5994C201 70.5994 200.9 70.5994 200.8 70.5004C200.7 70.4004 200.599 70.2994 200.599 70.2004L200.5 69.2994V69.0004C200.5 68.9004 200.599 68.9004 200.8 68.9004C201.3 68.7994 201.7 68.7004 202 68.5994C202.3 68.5004 202.599 68.4004 202.8 68.2004C203 68.0994 203.099 67.9004 203.2 67.5994C203.3 67.4004 203.3 67.0994 203.3 66.7004V57.0004C203.3 56.7004 203.4 56.5994 203.7 56.5994H205.099C205.4 56.5994 205.5 56.7004 205.5 57.0004V66.5994H205.599Z" fill="white"/>
<path fill-rule="evenodd" clip-rule="evenodd" d="M215.4 63.4004C215.4 64.0004 215.299 64.5004 215.099 64.9004C214.9 65.2994 214.599 65.5994 214.2 65.9004C213.799 66.0994 213.4 66.2994 212.9 66.4004C212.4 66.5004 211.9 66.5994 211.4 66.5994C210.9 66.5994 210.299 66.5994 209.799 66.5004C209.2 66.4004 208.7 66.2994 208.299 66.2004C208.099 66.0994 208 66.0004 207.9 65.9004C207.799 65.7994 207.799 65.7004 207.9 65.5004L208 64.7994C208 64.5994 208.099 64.5004 208.2 64.5004H208.599C208.799 64.5004 209.099 64.5994 209.299 64.5994C209.599 64.5994 209.799 64.5994 210.099 64.7004C210.4 64.7004 210.599 64.7004 210.799 64.7994C211 64.9004 211.2 64.7994 211.4 64.7994C212 64.7994 212.5 64.7004 212.799 64.5004C213.099 64.2994 213.2 64.0004 213.2 63.5994C213.2 63.4004 213.2 63.2004 213.099 63.0004C213 62.7994 213 62.7004 212.9 62.5994C212.799 62.5004 212.599 62.4004 212.4 62.4004C212.2 62.2994 211.9 62.2994 211.599 62.2004C211.099 62.0994 210.599 62.0004 210.2 61.9004C209.799 61.7994 209.4 61.5994 209 61.4004C208.7 61.2004 208.4 60.9004 208.2 60.5994C208 60.2994 207.9 59.7994 207.9 59.2994C207.9 58.2994 208.2 57.5994 208.9 57.0004C209.599 56.5004 210.5 56.2004 211.599 56.2004H212.299C212.599 56.2004 212.799 56.2004 213.099 56.2994C213.4 56.4004 213.599 56.4004 213.9 56.4004C214.2 56.4004 214.4 56.5004 214.599 56.5994C214.9 56.7004 215.099 56.9004 215 57.2004L214.799 57.9004C214.799 58.0004 214.7 58.0994 214.599 58.2004H214.2C213.799 58.0994 213.299 58.0994 212.799 58.0004C212.299 58.0004 211.799 57.9004 211.5 57.9004C210.9 57.9004 210.4 58.0004 210.2 58.2004C210 58.4004 209.9 58.7004 209.9 59.0994C209.9 59.5004 210 59.7004 210.299 59.9004C210.599 60.0994 211 60.0994 211.599 60.2004C212.099 60.2994 212.5 60.4004 213 60.5004C213.4 60.5994 213.799 60.7994 214.2 61.0004C214.599 61.2004 214.799 61.5004 215 61.9004C215.299 62.2994 215.4 62.7994 215.4 63.4004" fill="white"/>
<path fill-rule="evenodd" clip-rule="evenodd" d="M219.6 60.2002L221.1 58.5992L222.8 56.9002C222.901 56.8002 223 56.7002 223.1 56.5992C223.201 56.5002 223.3 56.5002 223.5 56.5002H225.1C225.3 56.5002 225.401 56.5002 225.401 56.5992C225.401 56.7002 225.401 56.8002 225.3 56.9002L222.1 60.2002L225.701 65.9002C225.8 66.0002 225.8 66.0992 225.701 66.2002C225.6 66.3002 225.6 66.3002 225.401 66.3002H223.901C223.701 66.3002 223.5 66.3002 223.401 66.2002C223.3 66.0992 223.201 66.0002 223.201 65.9002L220.6 61.8002L219.5 63.0002V66.0002C219.5 66.0992 219.5 66.2002 219.401 66.3002C219.3 66.4002 219.201 66.4002 219.1 66.4002H217.701C217.401 66.4002 217.3 66.3002 217.3 66.0002V52.5992C217.3 52.3002 217.401 52.2002 217.701 52.2002H219.1C219.201 52.2002 219.3 52.2002 219.401 52.3002C219.5 52.4002 219.5 52.5002 219.5 52.5992L219.6 60.2002Z" fill="white"/>
<path fill-rule="evenodd" clip-rule="evenodd" d="M233.099 61.9004H230.7C230.2 61.9004 229.799 62.0004 229.499 62.2994C229.2 62.5004 229.099 63.0004 229.099 63.5994C229.099 64.0004 229.2 64.2994 229.4 64.5004C229.599 64.7004 229.9 64.7994 230.4 64.7994C230.599 64.7994 230.799 64.7994 231.099 64.7004C231.4 64.5994 231.599 64.5994 231.9 64.5004C232.2 64.4004 232.4 64.2994 232.599 64.2004C232.799 64.0994 233.099 64.0004 233.2 63.9004V61.9004H233.099ZM233.2 65.2004C232.7 65.5994 232.099 65.9004 231.499 66.0994C230.9 66.2994 230.2 66.5004 229.499 66.5004C228.999 66.5004 228.499 66.4004 228.2 66.2994C227.799 66.2004 227.599 66.0004 227.4 65.7004C227.2 65.5004 226.999 65.2004 226.999 64.7994C226.9 64.5004 226.9 64.0994 226.9 63.5994C226.9 62.4004 227.2 61.5994 227.799 61.0004C228.4 60.5004 229.4 60.2004 230.599 60.2004H233.2V59.7004C233.2 59.4004 233.2 59.2004 233.099 58.9004C232.999 58.7004 232.9 58.5004 232.799 58.4004C232.599 58.2994 232.4 58.2004 232.2 58.0994C231.9 58.0004 231.599 58.0004 231.2 58.0004H230.599H229.9C229.7 58.0004 229.4 58.0004 229.2 58.0994C228.999 58.0994 228.7 58.0994 228.499 58.2004H228.099C227.999 58.2004 227.999 58.0994 227.9 57.9004L227.7 57.2004V56.9004C227.7 56.7994 227.9 56.7004 228.099 56.5994C228.299 56.5004 228.599 56.5004 228.9 56.4004C229.2 56.2994 229.499 56.2994 229.799 56.2994C230.099 56.2994 230.4 56.2004 230.7 56.2004H231.499C232.4 56.2004 233.099 56.2994 233.599 56.5004C234.099 56.7004 234.499 56.9004 234.799 57.2004C235.099 57.5004 235.2 57.9004 235.299 58.4004C235.4 58.9004 235.4 59.4004 235.4 59.9004V63.7994V64.2994C235.4 64.4004 235.499 64.5004 235.499 64.5994C235.499 64.7004 235.599 64.7004 235.7 64.7004C235.799 64.7004 235.9 64.7004 236.099 64.7994C236.2 64.7994 236.299 64.7994 236.4 64.9004C236.499 65.0004 236.499 65.0004 236.499 65.0994V65.9004C236.499 66.0994 236.299 66.2994 235.999 66.2994C235.799 66.2994 235.7 66.2994 235.499 66.4004H234.999C234.499 66.4004 234.2 66.2994 233.9 66.0994C233.499 66.0004 233.299 65.7004 233.2 65.2004V65.2004Z" fill="white"/>
<path fill-rule="evenodd" clip-rule="evenodd" d="M246.4 66.7H249.7V28H246.4V66.7Z" fill="white"/>
</g>
</svg>
