<svg width="290" height="72" viewBox="0 0 290 72" fill="none" xmlns="http://www.w3.org/2000/svg">
<path fill-rule="evenodd" clip-rule="evenodd" d="M0 24.5C0 24.5 39.8 19.3 41 19.1C42.6 18.8 44.2 18.5 45.7 18.1C48.8 17.3 51.8 15.9 54.5 14.1C57.2 12.1 59.6 9.8 61.7 7.2C63.3 5.2 64.8 3.2 66.2 1V0C64.7 2.4 63 4.6 61.1 6.7C59 9.1 56.6 11.2 53.9 13C51.3 14.7 48.4 15.9 45.4 16.7C44 17.1 42.5 17.3 40.8 17.6C39.7 17.8 38.6 17.9 37.5 18C37 18 0 21.9 0 21.9V24.5Z" fill="white"/>
<mask id="mask0" style="mask-type:alpha" maskUnits="userSpaceOnUse" x="0" y="5" width="67" height="23">
<path fill-rule="evenodd" clip-rule="evenodd" d="M0 5.19983H66.0999V27.9998H0V5.19983Z" fill="white"/>
</mask>
<g mask="url(#mask0)">
<path fill-rule="evenodd" clip-rule="evenodd" d="M53.4 17.7998C50.7 19.2998 47.8 20.2998 44.8 20.8998C43.4 21.1998 42 21.3998 40.3 21.5998L37.3 21.8998C36.8 21.8998 36.2 21.9998 35.7 21.9998C23.5 23.1998 11.4 24.2998 0 25.3998V27.9998C11.4 26.5998 23.7 25.0998 35.9 23.6998C36.4 23.5998 37 23.5998 37.5 23.4998C38.5 23.3998 39.5 23.2998 40.5 23.0998C42 22.8998 43.6 22.5998 45.1 22.2998C48.2 21.6998 51.3 20.4998 54 18.7998C56.7 16.9998 59.2 14.8998 61.3 12.3998C62.8 10.6998 64.5 8.39983 66.1 6.19983V5.19983C64.4 7.49983 62.6 9.69983 60.7 11.6998C58.6 14.0998 56.2 16.1998 53.4 17.7998" fill="white"/>
</g>
<mask id="mask1" style="mask-type:alpha" maskUnits="userSpaceOnUse" x="0" y="10" width="67" height="22">
<path fill-rule="evenodd" clip-rule="evenodd" d="M0 10.9002H66.0999V31.5002H0V10.9002Z" fill="white"/>
</mask>
<g mask="url(#mask1)">
<path fill-rule="evenodd" clip-rule="evenodd" d="M60.4 17.2002C58.1 19.3002 55.6 21.1002 52.9 22.5002C50.2 23.8002 47.3 24.7002 44.3 25.1002C42.9 25.3002 41.5 25.5002 39.8 25.7002L0 28.9002V31.5002L35.3 27.7002L39.9 27.2002C41.6 27.0002 43.1 26.8002 44.5 26.5002C47.6 26.0002 50.6 25.0002 53.4 23.6002C56.3 22.0002 58.9 20.0002 61.2 17.6002C63 15.8002 64.6 13.8002 66.1 11.8002V10.9002C64.3 13.1002 62.4 15.2002 60.4 17.2002" fill="white"/>
</g>
<mask id="mask2" style="mask-type:alpha" maskUnits="userSpaceOnUse" x="0" y="21" width="67" height="18">
<path fill-rule="evenodd" clip-rule="evenodd" d="M0 21.7001H66.1998V38.5001H0V21.7001Z" fill="white"/>
</mask>
<g mask="url(#mask2)">
<path fill-rule="evenodd" clip-rule="evenodd" d="M50.8 30.6001C48.6 32.0001 46.1 32.8001 43.5 33.0001C41.5 33.2001 39.5 33.3001 37.5 33.4001C36.5 33.4001 35.6 33.5001 34.6 33.6001C28.6 33.9001 22.7 34.3001 16.7 34.7001L0 35.9001V38.5001L16.8 36.9001C22.2 36.4001 28.5 35.8001 34.7 35.3001L39.2 35.0001C40.9 34.9001 42.4 34.7001 43.7 34.5001C46.7 34.2001 49.7 33.5001 52.6 32.4001C55.5 31.3001 58.2 29.7001 60.6 27.8001C62.6 26.3001 64.5 24.5001 66.2 22.6001V21.7001C64.5 23.5001 62.6 25.1001 60.5 26.5001C57.6 28.5001 52.9 29.5001 50.8 30.6001" fill="white"/>
</g>
<path fill-rule="evenodd" clip-rule="evenodd" d="M51.6006 35.6001C48.8006 36.4001 45.9006 36.9001 43.0006 37.1001C41.7006 37.2001 40.2006 37.3001 38.6006 37.4001L34.2006 37.6001C23.2006 38.1001 12.2006 38.7001 0.100586 39.3001V41.9001C11.7006 41.0001 23.0006 40.1001 34.4006 39.3001L38.8006 39.0001C40.5006 38.9001 41.9006 38.8001 43.3006 38.6001C46.3006 38.3001 49.2006 37.7001 52.1006 36.8001C55.0006 35.9001 57.8006 34.6001 60.3006 32.9001C62.4006 31.6001 64.4006 30.1001 66.2006 28.4001C64.0006 30.3001 61.9006 30.7001 59.8006 32.0001C57.2006 33.5001 54.5006 34.8001 51.6006 35.6001" fill="white"/>
<path fill-rule="evenodd" clip-rule="evenodd" d="M51.2 39.9004C48.4 40.5994 45.5 41.0004 42.6 41.0994C41.3 41.2004 39.9 41.2994 38.2 41.2994L33.8 41.5004C22.7 41.9004 11.5 42.4004 0 42.9004V45.5004C11.4 44.7004 22.6 44.0004 33.9 43.2004L38.3 42.9004C40 42.7994 41.4 42.7004 42.7 42.5994C45.7 42.4004 48.6 41.9004 51.5 41.0994C54.4 40.2994 57.2 39.2004 59.9 37.7994C62.1 36.6004 64.2 35.2994 66.1 33.7994V32.7004C64 34.2994 61.7 35.6004 59.4 36.7994C56.8 38.2004 54.1 39.2004 51.2 39.9004" fill="white"/>
<mask id="mask3" style="mask-type:alpha" maskUnits="userSpaceOnUse" x="0" y="38" width="67" height="11">
<path fill-rule="evenodd" clip-rule="evenodd" d="M0 38.2006H66.1998V48.7996H0V38.2006Z" fill="white"/>
</mask>
<g mask="url(#mask3)">
<path fill-rule="evenodd" clip-rule="evenodd" d="M50.8 44.0996C48 44.5996 45.1 44.9006 42.2 44.9996C40.9 45.0996 39.6 45.0996 37.9 45.2006L0 46.2006V48.7996L33.6 46.9996L38 46.7996C39.7 46.7006 41.1 46.5996 42.4 46.4996C45.3 46.2996 48.2 45.9006 51.1 45.2996C54 44.7006 56.9 43.7996 59.6 42.5996C61.9 41.5996 64.1 40.4996 66.2 39.2006V38.2006C64 39.4996 61.6 40.7006 59.2 41.5996C56.5 42.7996 53.7 43.5996 50.8 44.0996" fill="white"/>
</g>
<path fill-rule="evenodd" clip-rule="evenodd" d="M50.5 48.2998C45.8 48.7998 41.1 49.0998 36.4 49.0998C35.3 49.0998 34.3 49.0998 33.2 49.1998L0 49.7998V52.4008L33.3 50.9998C34.4 50.9998 35.4 50.9008 36.5 50.9008C41.2 50.7998 46 50.4008 50.7 49.7998C53.6 49.2998 56.4 48.5998 59.2 47.6998C61.5 46.9008 63.8 45.9998 66 44.7998V43.7998C63.7 44.9008 61.3 45.7998 58.8 46.5998C56.1 47.4008 53.3 47.9998 50.5 48.2998" fill="white"/>
<mask id="mask4" style="mask-type:alpha" maskUnits="userSpaceOnUse" x="0" y="49" width="67" height="7">
<path fill-rule="evenodd" clip-rule="evenodd" d="M0 49.2006H66.1998V55.7996H0V49.2006Z" fill="white"/>
</mask>
<g mask="url(#mask4)">
<path fill-rule="evenodd" clip-rule="evenodd" d="M50.3 52.5996C45.9 52.9996 41.5 52.9996 37.1 52.9996H33.1C22.1 52.9996 11.1 53.0996 0 53.2006V55.7996C10.6 55.4006 21.9 55.0996 33.2 54.7006C34.5 54.7006 35.9 54.5996 37.2 54.5996C41.5 54.4996 46 54.4006 50.4 53.9006C53.3 53.5996 56.2 53.0996 59 52.4006C61.3 51.7996 63.7 50.9996 66.2 50.0996V49.2006C63.8 50.0996 61.3 50.7996 58.8 51.4006C56 51.9996 53.2 52.4006 50.3 52.5996" fill="white"/>
</g>
<path fill-rule="evenodd" clip-rule="evenodd" d="M50.1 56.7998C48.3 56.9008 46.3 56.9008 44.1 56.9008H41.6L33 56.7998C27.1 56.7998 21.3 56.6998 15.8 56.6998L0 56.7998V59.4008L15.9 58.9998C21.4 58.9008 27.2 58.6998 33 58.5998L41.6 58.4998C44 58.4998 47.1 58.4008 50.2 58.1998C53.3 57.9998 56.1 57.6998 58.8 57.2998C61.2 56.9008 63.7 56.4008 66.2 55.7998V54.9008C63.7 55.4998 61.2 55.9998 58.7 56.2998C55.9 56.4998 53.2 56.6998 50.1 56.7998" fill="white"/>
<path fill-rule="evenodd" clip-rule="evenodd" d="M41.5 60.9004L32.9 60.7994L0 60.2004V62.7994L32.9 62.5004L41.5 62.4004C44.4 62.4004 47.2 62.2994 50.1 62.2004C55.5 62.0994 60.9 61.5994 66.2 60.9004V60.0004C61.3 60.5004 56 60.7994 50.1 60.9004H41.5" fill="white"/>
<path fill-rule="evenodd" clip-rule="evenodd" d="M66.1 65.5L0 63.8V66.4H66.1V65.5Z" fill="white"/>
<path fill-rule="evenodd" clip-rule="evenodd" d="M60.2 22C58 24 55.4 25.5 52.7 26.7C49.9 27.7 46.9 28.4 43.9 28.7C41.8 29 39.6 29.4 37.5 29.6C36.6 29.7 35.8 29.7 34.9 29.8L0 32.3V34.9L34.9 31.5L39.4 31.1C41.1 30.9 42.6 30.8 44 30.5C47.1 30.1 50.1 29.2 52.9 27.9C55.8 26.5 58.5 24.7 60.9 22.6C62.7 20.9 64.5 19.2 66.1 17.3V16.4C64.2 18.4 62.3 20.2 60.2 22" fill="white"/>
<path fill-rule="evenodd" clip-rule="evenodd" d="M94.2002 0L108.3 22.4C110.5 25.9 113 28.6 121.8 30.5C130.6 32.4 134.4 33.2 134.4 33.2V33.9C134.4 33.9 128.8 32.7 121.6 31.1C114.4 29.5 111.5 29 108.2 24.4C105.5 20.6 94.2002 4.5 94.2002 4.5V0Z" fill="white"/>
<path fill-rule="evenodd" clip-rule="evenodd" d="M94.2002 21.6001C94.2002 21.6001 105 32.9001 108.2 36.2001C111.5 39.7001 115.8 40.9001 121.7 42.0001C127.3 43.0001 134.4 44.2001 134.4 44.2001V44.8001L121.7 42.7001C115.8 41.7001 111.6 41.1001 108.2 38.0001L94.3002 25.0001L94.2002 21.6001Z" fill="white"/>
<path fill-rule="evenodd" clip-rule="evenodd" d="M94.2002 26.7998C94.2002 26.7998 104.5 36.3998 108.2 39.5998C111.6 42.5998 114.3 43.4998 121.7 44.9008C129.1 46.2998 134.4 46.9998 134.4 46.9998V47.6998L121.7 45.5998C115.7 44.5998 111.8 44.2998 108.2 41.2998C104 37.9008 94.2002 29.8998 94.2002 29.8998V26.7998Z" fill="white"/>
<path fill-rule="evenodd" clip-rule="evenodd" d="M94.2002 32.2002C94.2002 32.2002 106 41.5002 108.2 43.2002C110.4 44.9002 113.3 46.7002 121.7 48.0002L134.4 49.8002V50.5002C134.4 50.5002 126.8 49.4002 121.7 48.8002C116.6 48.2002 112.7 47.9002 108.2 44.9002C103.7 41.9002 94.2002 35.2002 94.2002 35.2002V32.2002Z" fill="white"/>
<path fill-rule="evenodd" clip-rule="evenodd" d="M94.2002 37.4004C94.2002 37.4004 106 45.2994 108.2 46.5004C110.4 47.7004 113.1 49.7994 121.7 50.9004C130.3 52.0004 134.4 52.5004 134.4 52.5004V53.2004C134.4 53.2004 127.3 52.4004 121.7 51.7994C116.1 51.2004 112.3 50.4004 108.2 48.0994C104.1 45.7994 94.2002 40.0994 94.2002 40.0994V37.4004Z" fill="white"/>
<path fill-rule="evenodd" clip-rule="evenodd" d="M94.2002 42.7002C94.2002 42.7002 104.6 48.4002 108.2 50.0992C112.1 52.0992 115.5 53.0002 121.7 53.8002C127.9 54.5992 134.4 55.2002 134.4 55.2002V55.8002C134.4 55.8002 128.3 55.0992 121.7 54.5002C115.1 53.9002 112.9 53.5992 108.2 51.5002C104 49.5992 94.2002 45.0992 94.2002 45.0992V42.7002Z" fill="white"/>
<path fill-rule="evenodd" clip-rule="evenodd" d="M94.2006 48C94.2006 48 102.401 51.5 108.201 53.8C112.501 55.5 117.101 56.4 121.701 56.6C123.201 56.8 134.301 57.9 134.301 57.9V58.5C134.301 58.5 127.701 58 121.601 57.4C115.501 56.8 113.001 56.6 108.101 55C103.201 53.4 94.1006 50.2 94.1006 50.2L94.2006 48Z" fill="white"/>
<path fill-rule="evenodd" clip-rule="evenodd" d="M94.2002 53.4004C94.2002 53.4004 102.5 56.0004 108.2 57.5004C112.6 58.7004 117.1 59.4004 121.7 59.7994L134.4 60.7994V61.4004L121.7 60.5004C117.2 60.2994 112.7 59.7994 108.2 58.9004C104.5 58.0994 94.2002 55.5994 94.2002 55.5994V53.4004Z" fill="white"/>
<path fill-rule="evenodd" clip-rule="evenodd" d="M94.2002 58.7002C94.2002 58.7002 101 59.9002 108.2 61.0992C113.6 62.0002 120.9 62.5992 121.7 62.5992C122.5 62.5992 134.4 63.5002 134.4 63.5002V64.0992C134.4 64.0992 126.8 63.7002 121.7 63.4002C116.4 63.0992 111.2 62.8002 108.2 62.5002C101.5 61.8002 94.2002 60.9002 94.2002 60.9002V58.7002Z" fill="white"/>
<path fill-rule="evenodd" clip-rule="evenodd" d="M94.2002 64.2998C94.2002 64.2998 104.9 64.6998 108.2 64.7998C111.5 64.9008 134.4 65.7998 134.4 65.7998V66.4008H94.2002V64.2998Z" fill="white"/>
<path fill-rule="evenodd" clip-rule="evenodd" d="M121.7 33.3999C112 31.2999 109.8 27.7999 108.2 25.5999C106.6 23.3999 94.2998 5.3999 94.2998 5.3999V9.4999C94.7998 10.0999 105.3 23.8999 108.3 27.6999C111.6 31.9999 116.8 32.9999 121.8 33.9999C126.8 34.9999 134.5 36.5999 134.5 36.5999V35.9999C134.4 35.9999 124.2 33.9999 121.7 33.3999" fill="white"/>
<path fill-rule="evenodd" clip-rule="evenodd" d="M121.7 36.2998C113.7 34.6998 110.5 32.1998 108.2 29.1998C105.9 26.1998 94.2998 10.8998 94.2998 10.8998V14.6998C94.7998 15.2998 105.4 27.7998 108.2 31.0998C111.5 34.8998 116.1 35.8998 121.7 36.8998C127.3 37.9008 134.4 39.2998 134.4 39.2998V38.6998C134.4 38.6998 126.3 37.1998 121.7 36.2998" fill="white"/>
<path fill-rule="evenodd" clip-rule="evenodd" d="M121.7 39.2002C113.4 37.5992 111.7 36.3002 108.2 32.4002C106 30.0002 94.7002 16.7002 94.2002 16.1002V19.6002C94.2002 19.6002 104.7 30.8002 108.1 34.2002C112.5 38.5992 116.7 38.9002 121.6 39.8002C126.5 40.7002 134.3 42.0992 134.3 42.0992V41.5002C134.4 41.5002 125 39.9002 121.7 39.2002" fill="white"/>
<mask id="mask5" style="mask-type:alpha" maskUnits="userSpaceOnUse" x="0" y="0" width="258" height="70">
<path fill-rule="evenodd" clip-rule="evenodd" d="M0 70H257.5V0H0V70Z" fill="white"/>
</mask>
<g mask="url(#mask5)">
<path fill-rule="evenodd" clip-rule="evenodd" d="M27.5 66.3H85.4V27.6H27.5V66.3Z" fill="#004494" stroke="white" stroke-width="2"/>
<path fill-rule="evenodd" clip-rule="evenodd" d="M57.1004 33.1001H59.1004L57.5004 34.4001L58.1004 36.4001L56.5004 35.2001L54.9004 36.4001L55.5004 34.4001L53.9004 33.1001H55.9004L56.5004 31.1001L57.1004 33.1001Z" fill="#FFF100"/>
<path fill-rule="evenodd" clip-rule="evenodd" d="M57.1004 58.9004H59.1004L57.5004 60.0994L58.1004 62.0004L56.5004 60.7994L54.9004 62.0004L55.5004 60.0994L53.9004 58.9004H55.9004L56.5004 57.0004L57.1004 58.9004Z" fill="#FFF100"/>
<path fill-rule="evenodd" clip-rule="evenodd" d="M63.4998 57.2002H65.4998L63.8998 58.4002L64.4998 60.3002L62.8998 59.0992L61.2998 60.3002L61.8998 58.4002L60.2998 57.2002H62.2998L62.8998 55.3002L63.4998 57.2002Z" fill="#FFF100"/>
<path fill-rule="evenodd" clip-rule="evenodd" d="M63.5004 34.7998H65.5004L63.9004 35.9998L64.5004 37.9008L62.9004 36.6998L61.3004 37.9998L62.0004 35.9998L60.4004 34.7998H62.4004L63.0004 32.8998L63.5004 34.7998Z" fill="#FFF100"/>
<path fill-rule="evenodd" clip-rule="evenodd" d="M68.2996 39.5996H70.2996L68.6996 40.7996L69.2996 42.7006L67.6996 41.4996L66.0996 42.7006L66.6996 40.7996L65.0996 39.5996H67.0996L67.6996 37.7006L68.2996 39.5996Z" fill="#FFF100"/>
<path fill-rule="evenodd" clip-rule="evenodd" d="M68.2996 52.5996H70.2996L68.6996 53.7996L69.2996 55.7006L67.6996 54.4996L66.0996 55.7006L66.6996 53.7996L65.0996 52.5996H67.0996L67.6996 50.7006L68.2996 52.5996Z" fill="#FFF100"/>
<path fill-rule="evenodd" clip-rule="evenodd" d="M70.0998 46H72.0998L70.4998 47.2L71.0998 49.1L69.4998 47.9L67.8998 49.1L68.4998 47.2L66.7998 46H68.7998L69.3998 44.1L70.0998 46Z" fill="#FFF100"/>
<path fill-rule="evenodd" clip-rule="evenodd" d="M50.4998 34.7998H52.4998L50.8998 35.9998L51.4998 37.9008L49.9998 36.7998L48.2998 37.9998L48.8998 36.0998L47.2998 34.8998H49.2998L49.9998 32.9998L50.4998 34.7998Z" fill="#FFF100"/>
<path fill-rule="evenodd" clip-rule="evenodd" d="M45.9002 39.5996H47.9002L46.3002 40.7996L46.9002 42.7006L45.3002 41.4996L43.7002 42.7006L44.3002 40.7996L42.7002 39.5996H44.7002L45.3002 37.7006L45.9002 39.5996Z" fill="#FFF100"/>
<path fill-rule="evenodd" clip-rule="evenodd" d="M44.2 46H46.2L44.6 47.2L45.2 49.1L43.6 47.9L42 49.1L42.6 47.2L41 46H43L43.6 44.1L44.2 46Z" fill="#FFF100"/>
<path fill-rule="evenodd" clip-rule="evenodd" d="M45.9002 52.5996H47.9002L46.3002 53.7996L46.9002 55.7006L45.3002 54.4996L43.7002 55.7006L44.3002 53.7996L42.7002 52.5996H44.7002L45.3002 50.7006L45.9002 52.5996Z" fill="#FFF100"/>
<path fill-rule="evenodd" clip-rule="evenodd" d="M50.6004 57.2998H52.6004L51.0004 58.4998L51.6004 60.4008L50.0004 59.1998L48.4004 60.4008L49.0004 58.4998L47.4004 57.2998H49.4004L50.0004 55.4008L50.6004 57.2998Z" fill="#FFF100"/>
<path fill-rule="evenodd" clip-rule="evenodd" d="M254.2 66.7H257.5V28H254.2V66.7Z" fill="white"/>
<path fill-rule="evenodd" clip-rule="evenodd" d="M143.2 39.5C143.2 38.7 143.3 37.8 143.4 37C143.5 36.2 143.8 35.5 144.2 34.8C144.6 34.1 145.2 33.6 145.8 33.2C146.7 32.8 147.599 32.6 148.599 32.6H149.4C149.7 32.6 150 32.6 150.4 32.7C150.7 32.7 151.099 32.8 151.4 32.9L152.3 33.2C152.4 33.2 152.5 33.3 152.599 33.4C152.7 33.5 152.7 33.7 152.7 33.8L152.5 34.6C152.5 34.7 152.4 34.8 152.4 34.9C152.3 35 152.2 35 152 34.9L150.4 34.7C149.8 34.7 149.3 34.6 148.8 34.6C148.2 34.6 147.7 34.7 147.2 35C146.8 35.2 146.5 35.6 146.3 36C146.099 36.5 145.9 37 145.9 37.5C145.8 38.1 145.8 38.7 145.8 39.4C145.8 40 145.8 40.6 145.9 41.2C146 41.7 146.099 42.2 146.4 42.7C146.599 43.1 146.9 43.5 147.3 43.7C147.8 44 148.3 44.1 148.9 44.1C149.4 44.1 150 44.1 150.5 44L152 43.9H152.4C152.5 44 152.5 44.1 152.599 44.2L152.8 45C152.9 45.3 152.7 45.5 152.5 45.6C152.2 45.7 151.9 45.8 151.599 45.9C151.3 46 150.9 46 150.599 46.1C150.3 46.2 149.9 46.2 149.599 46.2H148.7C147.8 46.2 146.8 46 146 45.6C145.3 45.2 144.8 44.7 144.4 44.1C144 43.4 143.7 42.7 143.6 41.9C143.3 41.1 143.2 40.3 143.2 39.5" fill="white"/>
<path fill-rule="evenodd" clip-rule="evenodd" d="M160.7 41.0996C160.7 40.5996 160.7 40.2006 160.599 39.7006C160.599 39.2996 160.5 38.9996 160.3 38.7006C160.099 38.4006 159.9 38.2006 159.599 38.0996C159.3 37.9006 158.9 37.9006 158.5 37.9006C158.2 37.9006 157.8 37.9996 157.5 38.0996C157.2 38.2006 157 38.4006 156.9 38.7006C156.7 38.9996 156.599 39.2996 156.599 39.7006C156.5 40.2006 156.5 40.5996 156.5 41.0996C156.5 41.5996 156.5 41.9996 156.599 42.4996C156.599 42.9006 156.8 43.2006 156.9 43.4996C157 43.7996 157.3 43.9996 157.5 44.0996C157.8 44.2006 158.2 44.2996 158.5 44.2996C158.9 44.2996 159.3 44.2006 159.599 44.0996C159.9 43.9996 160.099 43.7996 160.3 43.4996C160.5 43.2006 160.599 42.9006 160.599 42.4996C160.599 42.0996 160.7 41.5996 160.7 41.0996M162.9 40.9996C162.9 41.5996 162.9 42.2006 162.8 42.7996C162.7 43.4006 162.5 43.9996 162.2 44.4996C161.9 44.9996 161.4 45.4996 160.9 45.7996C160.099 46.2006 159.3 46.2996 158.5 46.2996C157.7 46.2996 156.9 46.2006 156.099 45.7996C155.599 45.4996 155.099 45.0996 154.8 44.4996C154.5 43.9996 154.3 43.4006 154.3 42.7996C154.2 42.2006 154.2 41.5996 154.2 40.9996C154.2 40.4996 154.2 39.9996 154.3 39.4006C154.4 38.7996 154.599 38.2996 154.9 37.7996C155.2 37.2996 155.7 36.7996 156.2 36.4996C156.9 36.0996 157.7 35.9996 158.5 35.9996C159.3 35.9996 160.099 36.0996 160.8 36.3996C161.3 36.7006 161.8 37.0996 162.099 37.5996C162.4 38.0996 162.599 38.5996 162.7 39.2006C162.8 39.7996 162.9 40.4006 162.9 40.9996" fill="white"/>
<path fill-rule="evenodd" clip-rule="evenodd" d="M179.2 46C179.2 46.1 179.099 46.1 178.9 46.1H177.5C177.3 46.1 177.099 46 177.099 45.8V45.7V40C177.2 39.5 177 39 176.8 38.5C176.5 38.2 176.099 38.1 175.7 38.1C175.5 38.1 175.3 38.1 175.099 38.2C174.9 38.3 174.599 38.4 174.4 38.4C174.2 38.5 173.9 38.6 173.7 38.7L173.099 39V39.4V40V45.7C173.099 45.8 173.099 45.9 173 46C172.9 46.1 172.8 46.1 172.7 46.1H171.2C171 46.1 170.9 46 170.9 45.7V39.9C170.9 39.4 170.8 39 170.599 38.5C170.4 38.2 170 38 169.599 38C169.4 38 169.2 38 169 38.1C168.8 38.2 168.5 38.2 168.3 38.3C168.099 38.4 167.8 38.5 167.599 38.6C167.4 38.7 167.2 38.8 167 38.9V45.6C167 45.8 166.9 46 166.7 46H166.599H165.099C164.9 46 164.7 45.9 164.7 45.6V36.5C164.7 36.2 164.8 36.1 165.099 36.1H166.5C166.7 36.1 166.9 36.2 166.9 36.4V36.5V37.1L167.5 36.7C167.7 36.6 168 36.4 168.2 36.3C168.5 36.2 168.7 36.1 169 36C169.3 35.9 169.5 35.9 169.8 35.8C170.3 35.8 170.9 35.9 171.4 36.1C171.9 36.3 172.3 36.7 172.599 37.2C173.099 36.8 173.7 36.5 174.3 36.2C174.9 35.9 175.5 35.8 176.2 35.8C176.7 35.8 177.3 35.9 177.8 36.1C178.2 36.3 178.5 36.6 178.7 36.9C178.9 37.3 179 37.7 179.099 38.1C179.2 38.6 179.2 39 179.2 39.5V45.4V46Z" fill="white"/>
<path fill-rule="evenodd" clip-rule="evenodd" d="M195.7 46C195.599 46.1 195.5 46.1 195.4 46.1H194C193.8 46.1 193.599 46 193.599 45.8V45.7V40C193.7 39.5 193.5 39 193.3 38.5C193 38.2 192.599 38.1 192.2 38.1C192 38.1 191.8 38.1 191.599 38.2C191.4 38.3 191.099 38.4 190.9 38.4C190.7 38.5 190.4 38.6 190.2 38.7L189.599 39V39.4V40V45.7C189.599 45.8 189.599 45.9 189.5 46C189.4 46.1 189.3 46.1 189.2 46.1H187.7C187.5 46.1 187.4 46 187.4 45.7V39.9C187.4 39.4 187.3 39 187.099 38.5C186.9 38.2 186.5 38 186.099 38C185.9 38 185.7 38 185.5 38.1C185.3 38.2 185 38.2 184.8 38.3C184.599 38.4 184.3 38.5 184.099 38.6C183.9 38.7 183.7 38.8 183.5 38.9V45.6C183.5 45.8 183.4 46 183.2 46H183.099H181.7C181.5 46 181.3 45.9 181.3 45.6V36.5C181.3 36.2 181.4 36.1 181.7 36.1H183.099C183.3 36.1 183.5 36.2 183.5 36.4V36.5V37.1L184.099 36.7C184.3 36.6 184.599 36.4 184.8 36.3C185.099 36.2 185.3 36.1 185.599 36C185.9 35.9 186.099 35.9 186.4 35.9C186.9 35.9 187.5 36 188 36.2C188.5 36.4 188.9 36.8 189.2 37.3C189.7 36.9 190.3 36.6 190.9 36.3C191.5 36 192.099 35.9 192.8 35.9C193.3 35.9 193.9 36 194.4 36.2C194.8 36.4 195.099 36.7 195.3 37C195.5 37.4 195.599 37.8 195.7 38.2C195.8 38.7 195.8 39.1 195.8 39.6V45.5C195.8 45.8 195.8 45.9 195.7 46" fill="white"/>
<path fill-rule="evenodd" clip-rule="evenodd" d="M200.401 45.7002C200.401 45.8002 200.401 45.9002 200.3 46.0002C200.201 46.0992 200.1 46.0992 200.001 46.0992H198.6C198.3 46.0992 198.201 46.0002 198.201 45.7002V36.6002C198.201 36.4002 198.3 36.2002 198.6 36.2002H200.001C200.1 36.2002 200.201 36.2002 200.3 36.3002C200.401 36.4002 200.401 36.5002 200.401 36.6002V45.7002ZM200.501 33.6002V34.1002C200.501 34.2002 200.401 34.4002 200.3 34.5002C200.201 34.6002 200.1 34.7002 199.901 34.7002C199.701 34.8002 199.501 34.8002 199.3 34.8002C199.1 34.8002 198.901 34.8002 198.701 34.7002C198.6 34.6002 198.401 34.6002 198.3 34.4002C198.201 34.3002 198.201 34.2002 198.1 34.0002V33.6002C198.1 33.3002 198.201 33.0002 198.3 32.8002C198.6 32.5002 198.901 32.4002 199.3 32.5002C199.8 32.5002 200.1 32.6002 200.3 32.8002C200.6 33.0002 200.6 33.3002 200.501 33.6002V33.6002Z" fill="white"/>
<path fill-rule="evenodd" clip-rule="evenodd" d="M210.2 43.0996C210.2 43.5996 210.099 44.0996 209.8 44.5996C209.599 44.9996 209.3 45.4006 208.9 45.5996C208.5 45.7996 208.099 45.9996 207.599 46.0996C207.099 46.2006 206.599 46.2996 206.099 46.2996C205.599 46.2996 205 46.2996 204.5 46.2006C204 46.2006 203.5 45.9996 203 45.9006C202.8 45.9006 202.7 45.7996 202.599 45.5996V45.2006L202.7 44.4996C202.7 44.2996 202.8 44.2006 202.9 44.2006H203.3L204 44.2996L204.8 44.4006H205.5H206.099C206.599 44.4006 207.099 44.2996 207.5 44.0996C207.8 43.9006 207.9 43.5996 207.9 43.2006C207.9 42.9996 207.9 42.7996 207.8 42.5996C207.8 42.4996 207.7 42.2996 207.599 42.2006C207.5 42.0996 207.3 41.9996 207.099 41.9996C206.8 41.9006 206.599 41.9006 206.3 41.7996C205.8 41.7006 205.3 41.5996 204.9 41.4996C204.5 41.4006 204.099 41.2006 203.7 40.9996C203.4 40.7996 203.099 40.4996 202.9 40.2006C202.7 39.7996 202.599 39.2996 202.599 38.9006C202.5 37.9996 202.9 37.2006 203.599 36.5996C204.4 36.0996 205.4 35.7996 206.3 35.7996H207C207.3 35.7996 207.5 35.7996 207.8 35.8996C208.099 35.8996 208.3 35.9996 208.599 35.9996C208.8 35.9996 209.099 36.0996 209.3 36.2006C209.599 36.2996 209.8 36.4996 209.7 36.7996L209.5 37.4996C209.5 37.5996 209.4 37.7006 209.4 37.7996H209L207.599 37.5996C207.099 37.5996 206.7 37.4996 206.3 37.4996C205.9 37.4996 205.4 37.4996 205 37.7996C204.8 37.9996 204.7 38.2996 204.7 38.7006C204.7 38.9996 204.8 39.2996 205.099 39.4996C205.5 39.7006 206 39.7996 206.4 39.7996C206.9 39.9006 207.3 39.9996 207.8 40.0996C208.2 40.2006 208.599 40.4006 208.9 40.5996C209.2 40.7996 209.5 41.0996 209.7 41.4996C210.2 42.0996 210.3 42.5996 210.2 43.0996" fill="white"/>
<path fill-rule="evenodd" clip-rule="evenodd" d="M219.4 43.0996C219.4 43.5996 219.299 44.0996 219.099 44.5996C218.9 44.9996 218.599 45.2996 218.2 45.5996C217.799 45.7996 217.4 45.9996 216.9 46.0996C216.4 46.2006 215.9 46.2996 215.4 46.2996C214.9 46.2996 214.299 46.2996 213.799 46.2006C213.299 46.2006 212.799 45.9996 212.299 45.9006C212.099 45.9006 212 45.7996 211.9 45.5996V45.2006L212 44.4996C212 44.2996 212.099 44.2006 212.2 44.2006H212.599L213.299 44.2996L214.099 44.4006H214.799H215.4C215.9 44.4006 216.4 44.2996 216.799 44.0996C217.099 43.9006 217.2 43.5996 217.2 43.2006C217.2 42.9996 217.2 42.7996 217.099 42.5996C217.099 42.4996 217 42.2996 216.9 42.2006C216.799 42.0996 216.599 41.9996 216.4 41.9996C216.099 41.9006 215.9 41.9006 215.599 41.7996C215.099 41.7006 214.599 41.5996 214.2 41.4996C213.799 41.4006 213.4 41.2996 213 40.9996C212.7 40.7996 212.4 40.4996 212.2 40.2006C212 39.7996 211.9 39.2996 211.9 38.9006C211.799 37.9996 212.2 37.2006 212.9 36.5996C213.7 36.0996 214.7 35.7996 215.599 35.7996H216.299C216.599 35.7996 216.799 35.7996 217.099 35.8996C217.4 35.8996 217.599 35.9996 217.9 35.9996C218.099 35.9996 218.4 36.0996 218.599 36.2006C218.9 36.2996 219.099 36.4996 219 36.7996L218.799 37.4996C218.799 37.5996 218.799 37.7006 218.7 37.7996H218.299L216.9 37.5996C216.4 37.5996 215.9 37.4996 215.599 37.4996C215.2 37.4996 214.7 37.4996 214.299 37.7996C214.099 37.9996 214 38.2996 214 38.7006C214 38.9996 214.099 39.2996 214.4 39.4996C214.799 39.7006 215.299 39.7996 215.7 39.7996C216.2 39.9006 216.599 39.9006 217.099 40.0996C217.5 40.2006 217.9 40.4006 218.2 40.5996C218.5 40.7996 218.799 41.0996 219 41.4996C219.4 42.0996 219.5 42.5996 219.4 43.0996" fill="white"/>
<path fill-rule="evenodd" clip-rule="evenodd" d="M223.8 45.7002C223.8 45.8002 223.8 45.9002 223.7 46.0002C223.6 46.0992 223.5 46.0992 223.401 46.0992H222C221.7 46.0992 221.6 46.0002 221.6 45.7002V36.6002C221.6 36.4002 221.7 36.2002 222 36.2002H223.401C223.5 36.2002 223.6 36.2002 223.7 36.3002C223.8 36.4002 223.8 36.5002 223.8 36.6002V45.7002ZM223.901 33.6002V34.1002C223.901 34.2002 223.8 34.4002 223.7 34.5002C223.6 34.6002 223.5 34.7002 223.3 34.7002C223.1 34.8002 222.901 34.8002 222.7 34.8002C222.5 34.8002 222.3 34.8002 222.1 34.7002C222 34.6002 221.8 34.6002 221.7 34.4002C221.6 34.3002 221.6 34.2002 221.5 34.0002V33.6002C221.5 33.3002 221.6 33.0002 221.7 32.8002C222 32.5002 222.3 32.4002 222.7 32.5002C223.2 32.5002 223.5 32.6002 223.7 32.8002C223.901 33.0002 224 33.3002 223.901 33.6002V33.6002Z" fill="white"/>
<path fill-rule="evenodd" clip-rule="evenodd" d="M232.6 41.0996C232.6 40.5996 232.6 40.2006 232.5 39.7006C232.5 39.2996 232.401 38.9996 232.201 38.7006C232 38.4006 231.8 38.2006 231.5 38.0996C231.201 37.9006 230.8 37.9006 230.401 37.9006C230.1 37.9006 229.701 37.9996 229.401 38.0996C229.1 38.2006 228.901 38.4006 228.8 38.7006C228.6 38.9996 228.5 39.2996 228.5 39.7006C228.401 40.2006 228.401 40.5996 228.401 41.0996C228.401 41.5996 228.401 41.9996 228.5 42.4996C228.5 42.7996 228.6 43.2006 228.8 43.4996C228.901 43.7996 229.201 43.9996 229.401 44.0996C229.701 44.2006 230.1 44.2996 230.401 44.2996C230.8 44.2996 231.201 44.2006 231.5 44.0996C231.8 43.9996 232 43.7996 232.201 43.4996C232.401 43.2006 232.5 42.9006 232.5 42.4996C232.5 42.0996 232.6 41.5996 232.6 41.0996M234.8 40.9996C234.8 41.5996 234.8 42.2006 234.701 42.7996C234.6 43.4006 234.401 43.9996 234.1 44.4996C233.8 44.9996 233.3 45.4996 232.8 45.7996C232 46.2006 231.201 46.2996 230.401 46.2996C229.6 46.2996 228.8 46.2006 228 45.7996C227.5 45.4996 227 45.0996 226.701 44.4996C226.401 43.9996 226.201 43.4006 226.201 42.7996C226.1 42.2006 226.1 41.5996 226.1 40.9996C226.1 40.4996 226.1 39.9996 226.201 39.4006C226.3 38.7996 226.5 38.2996 226.8 37.7996C227.1 37.2996 227.6 36.7996 228.1 36.4996C228.8 36.0996 229.6 35.9996 230.401 35.9996C231.201 35.9996 232 36.0996 232.701 36.3996C233.201 36.7006 233.701 36.9996 234 37.4996C234.3 37.9996 234.5 38.4996 234.6 39.0996C234.701 39.7996 234.8 40.4006 234.8 40.9996" fill="white"/>
<path fill-rule="evenodd" clip-rule="evenodd" d="M245.201 46C245.1 46.1 245.001 46.1 244.901 46.1H243.401C243.201 46.1 243.001 46 243.001 45.8V45.7V40.1C243.001 39.6 242.901 39.1 242.701 38.7C242.501 38.3 242.001 38.1 241.6 38.2C241.401 38.2 241.1 38.2 240.901 38.3C240.6 38.4 240.401 38.5 240.1 38.6L239.401 38.9L238.901 39.1V45.8C238.901 46 238.801 46.2 238.6 46.2H238.501H237.001C236.801 46.2 236.6 46.1 236.6 45.9V45.8V36.7C236.6 36.5 236.701 36.3 236.901 36.3H237.001H238.401C238.6 36.3 238.801 36.4 238.801 36.7V37.3H238.901C239.1 37.1 239.301 37 239.6 36.9C239.901 36.8 240.1 36.6 240.401 36.5C240.701 36.4 241.001 36.3 241.301 36.2C241.6 36.1 241.901 36.1 242.201 36.1C242.801 36.1 243.301 36.2 243.801 36.4C244.201 36.6 244.501 36.9 244.701 37.2C244.901 37.6 245.001 38 245.1 38.4C245.201 38.9 245.201 39.4 245.201 39.9V45.7C245.301 45.8 245.301 45.9 245.201 46" fill="white"/>
<path fill-rule="evenodd" clip-rule="evenodd" d="M147.2 58.0996C146.9 58.0996 146.599 58.0996 146.3 58.2996C146.099 58.4006 145.9 58.5996 145.7 58.7996C145.5 58.9996 145.4 59.2996 145.4 59.5996C145.3 59.9006 145.3 60.2996 145.3 60.5996H149.3C149.3 60.2996 149.3 59.9996 149.2 59.7006C149.2 59.4006 149.099 59.2006 148.9 58.9006C148.8 58.7006 148.5 58.4996 148.3 58.4006C147.9 58.2006 147.5 58.0996 147.2 58.0996V58.0996ZM145.2 61.9996C145.2 62.4006 145.3 62.7996 145.4 63.2996C145.5 63.5996 145.6 63.9006 145.8 64.0996C146 64.2996 146.3 64.4006 146.5 64.4996C146.8 64.5996 147.2 64.5996 147.599 64.5996C148 64.5996 148.4 64.5996 148.9 64.4996L150.2 64.2996H150.599C150.7 64.2996 150.7 64.4996 150.8 64.5996L150.9 65.2996V65.7006C150.8 65.7996 150.7 65.9006 150.599 65.9996C150.4 66.0996 150.099 66.2006 149.9 66.2006C149.599 66.2996 149.3 66.2996 149.099 66.4006L148.2 66.4996H147.4C146.599 66.4996 145.8 66.4006 145.1 66.0996C144.6 65.9006 144.1 65.4996 143.8 65.0996C143.5 64.5996 143.3 64.0996 143.2 63.4996C143.1 62.9006 143 62.2006 143.1 61.5996C143.1 61.0996 143.1 60.4996 143.2 59.9996C143.3 59.4006 143.5 58.7996 143.8 58.2996C144.1 57.7996 144.6 57.2996 145.1 56.9996C145.8 56.5996 146.599 56.4006 147.4 56.4996C148.099 56.4996 148.9 56.5996 149.599 56.9006C150.099 57.0996 150.599 57.4996 150.9 57.9006C151.2 58.2996 151.4 58.7996 151.5 59.4006C151.599 59.9006 151.7 60.4996 151.7 60.9996C151.7 61.2996 151.7 61.5996 151.5 61.9006C151.3 62.0996 151 62.2996 150.7 62.2006L145.2 61.9996Z" fill="white"/>
<path fill-rule="evenodd" clip-rule="evenodd" d="M161.401 66.2998H160.001C159.901 66.2998 159.8 66.2998 159.701 66.1998C159.6 66.0998 159.6 65.9998 159.6 65.9008V65.2998C159.401 65.4008 159.201 65.5998 158.901 65.6998C158.6 65.7998 158.401 65.9998 158.1 66.0998C157.8 66.1998 157.501 66.2998 157.201 66.4008C156.901 66.4998 156.6 66.4998 156.3 66.4998C155.701 66.4998 155.201 66.4008 154.701 66.1998C154.3 65.9998 154.001 65.7998 153.8 65.4008C153.6 64.9998 153.501 64.5998 153.401 64.1998C153.3 63.6998 153.3 63.1998 153.3 62.6998V56.7998C153.3 56.5998 153.401 56.4008 153.6 56.4008H153.701H155.201C155.401 56.4008 155.6 56.4998 155.6 56.7998V62.4008C155.6 62.6998 155.6 62.9008 155.701 63.1998C155.701 63.4008 155.8 63.5998 155.901 63.7998C156.001 63.9998 156.201 64.0998 156.3 64.1998C156.501 64.2998 156.8 64.4008 157.001 64.4008C157.201 64.4008 157.501 64.4008 157.701 64.2998C158.001 64.1998 158.201 64.1998 158.501 64.0998L159.201 63.7998L159.701 63.5998V56.9008C159.701 56.7998 159.701 56.6998 159.8 56.5998C159.901 56.4998 160.001 56.4998 160.1 56.4998H161.501C161.8 56.4998 161.901 56.5998 161.901 56.9008V65.9008C162.001 66.0998 161.901 66.2998 161.701 66.2998C161.6 66.4008 161.501 66.4008 161.401 66.2998" fill="white"/>
<path fill-rule="evenodd" clip-rule="evenodd" d="M166.5 66C166.5 66.2 166.4 66.4 166.2 66.4H166.1H164.7C164.5 66.4 164.3 66.3 164.3 66.1V66V57C164.3 56.8 164.4 56.6 164.6 56.6H164.7H166.1C166.3 56.6 166.5 56.7 166.5 56.9V57V57.9C166.7 57.7 166.9 57.6 167.1 57.5C167.3 57.3 167.6 57.2 167.9 57.1C168.2 57 168.5 56.9 168.7 56.8C169 56.7 169.2 56.6 169.5 56.6H169.8C169.9 56.6 169.9 56.8 170 56.9L170.1 58.2V58.5C170.1 58.6 170 58.6 169.7 58.7C169.4 58.8 169.1 58.8 168.8 58.9C168.5 59 168.3 59 168 59L167.2 59.2C167 59.3 166.8 59.3 166.6 59.4L166.5 66Z" fill="white"/>
<path fill-rule="evenodd" clip-rule="evenodd" d="M177.5 61.4004C177.5 60.9004 177.5 60.5004 177.4 60.0004C177.4 59.5994 177.2 59.2994 177.1 59.0004C176.9 58.7004 176.7 58.5004 176.4 58.4004C176.1 58.2004 175.7 58.2004 175.3 58.2004C174.9 58.2004 174.6 58.2994 174.2 58.4004C173.9 58.5004 173.7 58.7004 173.6 59.0004C173.4 59.2994 173.3 59.5994 173.3 60.0004C173.2 60.5004 173.2 60.9004 173.2 61.4004C173.2 61.9004 173.2 62.2994 173.3 62.7994C173.3 63.0994 173.4 63.5004 173.6 63.7994C173.7 64.0994 174 64.2994 174.2 64.4004C174.5 64.5994 174.9 64.5994 175.3 64.5994C175.7 64.5994 176.1 64.5004 176.4 64.4004C176.7 64.2994 176.9 64.0994 177.1 63.7994C177.3 63.5004 177.4 63.2004 177.4 62.7994C177.5 62.4004 177.5 61.9004 177.5 61.4004M179.8 61.2994C179.8 61.9004 179.8 62.5004 179.7 63.0994C179.6 63.7004 179.5 64.2994 179.1 64.7994C178.8 65.2994 178.3 65.7994 177.8 66.0004C177 66.4004 176.2 66.5004 175.4 66.5004C174.6 66.5004 173.8 66.4004 173.1 66.0004C172.6 65.7004 172.1 65.2994 171.8 64.7004C171.5 64.2004 171.3 63.5994 171.3 63.0004C171.2 62.4004 171.2 61.7994 171.2 61.2004C171.2 60.7004 171.3 60.2004 171.3 59.5994C171.4 59.0004 171.6 58.5004 171.9 58.0004C172.2 57.5004 172.7 57.0004 173.2 56.7004C173.9 56.2994 174.7 56.2004 175.5 56.2004C176.3 56.2004 177.1 56.2994 177.8 56.5994C178.3 56.9004 178.8 57.2994 179.1 57.7994C179.4 58.2994 179.6 58.7994 179.7 59.4004C179.7 60.0994 179.8 60.7004 179.8 61.2994" fill="white"/>
<path fill-rule="evenodd" clip-rule="evenodd" d="M188.1 61.4004C188.1 60.9004 188.1 60.4004 188 59.9004C188 59.5994 187.901 59.2994 187.701 59.0004C187.6 58.7994 187.401 58.5994 187.201 58.5994C187 58.5004 186.701 58.5004 186.5 58.5004C186.3 58.5004 186 58.5004 185.8 58.5994C185.6 58.7004 185.3 58.7004 185 58.7994C184.8 58.9004 184.5 59.0004 184.3 59.0994C184.1 59.2004 183.901 59.2994 183.701 59.4004V64.4004C184.1 64.5004 184.5 64.5994 184.901 64.7004C185.3 64.7004 185.6 64.7994 186 64.7994C186.3 64.7994 186.6 64.7994 186.901 64.5994C187.201 64.5004 187.401 64.2994 187.5 64.0994C187.701 63.7994 187.8 63.5004 187.8 63.0994C188.1 62.4004 188.1 61.9004 188.1 61.4004M190.401 61.4004C190.401 62.0994 190.3 62.9004 190.201 63.5994C190.1 64.2004 189.901 64.7004 189.6 65.2004C189.3 65.5994 188.901 66.0004 188.401 66.2004C187.8 66.5004 187.1 66.5994 186.401 66.5004C186 66.5004 185.6 66.5004 185.201 66.4004C184.701 66.2994 184.3 66.2004 183.8 66.0994V69.5994C183.8 69.7004 183.8 69.7994 183.701 69.9004C183.701 70.0004 183.6 70.0004 183.401 70.0004H182C181.8 70.0004 181.701 70.0004 181.701 69.9004C181.6 69.7994 181.6 69.7004 181.6 69.5994V56.9004C181.6 56.5994 181.701 56.5004 182 56.5004H183.401C183.5 56.5004 183.6 56.5004 183.701 56.5994C183.701 56.7004 183.8 56.7994 183.8 56.9004V57.5004H183.901C184.1 57.4004 184.3 57.2004 184.5 57.0994C184.8 57.0004 185 56.7994 185.3 56.7004C185.6 56.5994 185.901 56.5004 186.201 56.4004C186.5 56.2994 186.8 56.2994 187.1 56.2994C187.701 56.2994 188.201 56.4004 188.701 56.7004C189.1 56.9004 189.5 57.2994 189.701 57.7004C190 58.2004 190.1 58.7004 190.201 59.2994C190.3 60.0004 190.401 60.7004 190.401 61.4004" fill="white"/>
<path fill-rule="evenodd" clip-rule="evenodd" d="M198.901 52.0996C199.1 52.2006 199.1 52.4006 199.001 52.5996L197.001 55.4006C196.901 55.4996 196.8 55.5996 196.6 55.4996L195.8 55.0996C195.701 54.9996 195.6 54.9006 195.701 54.7006L197.3 51.5996C197.401 51.4006 197.501 51.4006 197.701 51.4996L198.901 52.0996ZM196.3 58.0996C196.001 58.0996 195.701 58.0996 195.401 58.2996C195.201 58.4006 195.001 58.5996 194.8 58.7996C194.6 58.9996 194.501 59.2996 194.501 59.5996C194.401 59.9006 194.401 60.2996 194.401 60.5996H198.401C198.401 60.2996 198.401 59.9996 198.3 59.7006C198.3 59.4006 198.201 59.2006 198.001 58.9006C197.901 58.7006 197.6 58.4996 197.401 58.4006C197.001 58.2006 196.6 58.0996 196.3 58.0996V58.0996ZM194.3 61.9996C194.3 62.4006 194.401 62.7996 194.501 63.2996C194.6 63.5996 194.701 63.9006 194.901 64.0996C195.1 64.2996 195.401 64.4006 195.701 64.4996C196.001 64.5996 196.401 64.5996 196.8 64.5996C197.201 64.5996 197.6 64.5996 198.1 64.4996L199.401 64.2996H199.8C199.901 64.2996 199.901 64.4996 199.901 64.5996L200.001 65.2996V65.7006C200.001 65.7996 199.901 65.9006 199.701 65.9996C199.501 66.0996 199.201 66.2006 199.001 66.2006C198.701 66.2996 198.401 66.2996 198.1 66.4006L197.201 66.4996H196.401C195.6 66.4996 194.8 66.4006 194.1 66.0996C193.6 65.9006 193.1 65.4996 192.8 65.0996C192.501 64.5996 192.3 64.0996 192.201 63.4996C192.1 62.9006 192.001 62.2006 192.1 61.5996C192.1 61.0996 192.1 60.4996 192.201 59.9996C192.3 59.4006 192.501 58.7996 192.8 58.2996C193.1 57.7006 193.6 57.2996 194.1 56.9996C194.8 56.5996 195.6 56.4006 196.401 56.4996C197.1 56.4996 197.901 56.5996 198.6 56.9006C199.1 57.0996 199.501 57.4996 199.901 57.9006C200.201 58.2996 200.401 58.7996 200.501 59.4006C200.6 59.9006 200.701 60.4996 200.701 60.9996C200.701 61.2996 200.701 61.5996 200.501 61.9006C200.3 62.0996 200.001 62.2996 199.701 62.2006L194.3 61.9996Z" fill="white"/>
<path fill-rule="evenodd" clip-rule="evenodd" d="M206.5 58.0996C206.2 58.0996 205.9 58.0996 205.6 58.2996C205.4 58.4006 205.2 58.5996 205 58.7996C204.8 58.9996 204.7 59.2996 204.7 59.5996C204.6 59.9006 204.6 60.2996 204.6 60.5996H208.6C208.6 60.2996 208.6 59.9996 208.5 59.7006C208.5 59.4006 208.4 59.2006 208.2 58.9006C208.1 58.7006 207.8 58.4996 207.6 58.4006C207.2 58.2006 206.8 58.0996 206.5 58.0996V58.0996ZM204.5 61.9996C204.5 62.4006 204.6 62.7996 204.7 63.2996C204.8 63.5996 204.9 63.9006 205.1 64.0996C205.3 64.2996 205.6 64.4006 205.8 64.4996C206.1 64.5996 206.5 64.5996 206.9 64.5996C207.3 64.5996 207.7 64.5996 208.2 64.4996L209.5 64.2996H209.9C210 64.2996 210 64.4996 210 64.5996L210.1 65.2996V65.7006C210.1 65.7996 210 65.9006 209.8 65.9996C209.6 66.0996 209.3 66.2006 209.1 66.2006C208.8 66.2996 208.5 66.2996 208.3 66.4006L207.4 66.4996H206.6C205.8 66.4996 205 66.4006 204.3 66.0996C203.8 65.9006 203.3 65.4996 203 65.0996C202.7 64.5996 202.5 64.0996 202.4 63.4996C202.3 62.9006 202.2 62.2006 202.3 61.5996C202.3 61.0996 202.3 60.4996 202.4 59.9996C202.5 59.4006 202.7 58.7996 203 58.2996C203.3 57.7996 203.7 57.2996 204.3 56.9996C205 56.5996 205.8 56.4006 206.6 56.4996C207.3 56.4996 208.1 56.5996 208.8 56.9006C209.3 57.0996 209.7 57.4996 210.1 57.9006C210.4 58.2996 210.6 58.7996 210.7 59.4006C210.8 59.9006 210.9 60.4996 210.9 60.9996C210.9 61.2996 210.9 61.5996 210.7 61.9006C210.5 62.0996 210.2 62.2996 209.9 62.2006L204.5 61.9996Z" fill="white"/>
<path fill-rule="evenodd" clip-rule="evenodd" d="M221 66.2002C220.9 66.3002 220.8 66.3002 220.7 66.3002H219.2C219 66.3002 218.8 66.2002 218.8 66.0002V65.9002V60.3002C218.8 59.8002 218.7 59.3002 218.5 58.9002C218.3 58.5002 217.8 58.3002 217.4 58.4002C217.2 58.4002 216.9 58.4002 216.7 58.5002C216.4 58.5992 216.2 58.7002 215.9 58.8002L215.2 59.0992L214.7 59.3002V66.0002C214.7 66.2002 214.6 66.4002 214.4 66.4002H214.3H212.9C212.7 66.4002 212.5 66.3002 212.5 66.0992V66.0002V57.0002C212.5 56.7002 212.6 56.5992 212.9 56.5992H214.3C214.5 56.5992 214.7 56.7002 214.7 57.0002V57.5992H214.8C215 57.5002 215.2 57.3002 215.5 57.2002C215.8 57.0992 216 56.9002 216.3 56.8002C216.6 56.7002 216.9 56.5992 217.2 56.5002C217.5 56.4002 217.8 56.4002 218.1 56.4002C218.7 56.4002 219.2 56.5002 219.7 56.7002C220.1 56.9002 220.4 57.2002 220.6 57.5002C220.8 57.9002 220.9 58.3002 221 58.7002C221.1 59.2002 221.1 59.7002 221.1 60.2002V66.0002C221.1 66.0992 221 66.2002 221 66.2002" fill="white"/>
<path fill-rule="evenodd" clip-rule="evenodd" d="M231.6 66.2002C231.5 66.3002 231.401 66.3002 231.3 66.3002H229.8C229.6 66.3002 229.401 66.2002 229.401 66.0002V65.9002V60.3002C229.401 59.8002 229.3 59.3002 229.1 58.9002C228.901 58.5002 228.401 58.3002 228 58.4002C227.8 58.4002 227.5 58.4002 227.3 58.5002C227 58.5992 226.8 58.7002 226.5 58.8002L225.8 59.0992L225.3 59.3002V66.0002C225.3 66.2002 225.201 66.4002 225 66.4002H224.901H223.5C223.3 66.4002 223.1 66.3002 223.1 66.0992V66.0002V57.0002C223.1 56.7002 223.201 56.5992 223.5 56.5992H224.901C225.1 56.5992 225.3 56.7002 225.3 56.9002V57.0002V57.5992H225.401C225.6 57.4002 225.8 57.3002 226.1 57.2002C226.401 57.0992 226.701 56.9002 226.901 56.8002C227.201 56.7002 227.5 56.5992 227.8 56.5002C228.1 56.4002 228.401 56.4002 228.701 56.4002C229.3 56.4002 229.8 56.5002 230.3 56.7002C230.701 56.9002 231 57.2002 231.201 57.5002C231.401 57.9002 231.5 58.3002 231.6 58.7002C231.701 59.2002 231.701 59.7002 231.701 60.2002V66.0002C231.701 66.0992 231.701 66.2002 231.6 66.2002" fill="white"/>
<path fill-rule="evenodd" clip-rule="evenodd" d="M237.8 58.0996C237.5 58.0996 237.2 58.0996 236.901 58.2996C236.7 58.4006 236.5 58.5996 236.3 58.7996C236.1 58.9996 236 59.2996 236 59.5996C235.901 59.9006 235.901 60.2996 235.901 60.5996H239.901C239.901 60.2996 239.901 59.9996 239.8 59.7006C239.8 59.4006 239.7 59.2006 239.5 58.9006C239.401 58.7006 239.1 58.4996 238.901 58.4006C238.6 58.2006 238.2 58.0996 237.8 58.0996V58.0996ZM235.8 61.9996C235.8 62.4006 235.8 62.9006 236 63.2996C236.1 63.5996 236.2 63.9006 236.401 64.0996C236.6 64.2996 236.901 64.4006 237.2 64.4996C237.5 64.5996 237.901 64.5996 238.3 64.5996C238.7 64.5996 239.1 64.5996 239.6 64.4996L240.901 64.2996H241.3C241.401 64.2996 241.401 64.4996 241.401 64.5996L241.5 65.2996V65.7006C241.5 65.7996 241.401 65.9006 241.2 65.9996C241 66.0996 240.7 66.2006 240.5 66.2006C240.2 66.2996 239.901 66.2996 239.6 66.4006L238.7 66.4996H237.901C237.1 66.4996 236.3 66.4006 235.6 66.0996C235.1 65.9006 234.6 65.4996 234.3 64.9996C234 64.4996 233.8 63.9996 233.7 63.4006C233.6 62.7996 233.5 62.0996 233.6 61.4996C233.6 60.9996 233.6 60.4006 233.7 59.9006C233.8 59.2996 234 58.7006 234.3 58.2006C234.6 57.7006 235 57.2006 235.6 56.9006C236.3 56.4996 237.1 56.2996 237.901 56.4006C238.6 56.4006 239.401 56.4996 240.1 56.7996C240.6 56.9996 241 57.4006 241.401 57.7996C241.7 58.2006 242 58.7006 242.1 59.2996C242.2 59.7996 242.3 60.4006 242.3 60.9006C242.3 61.2006 242.3 61.4996 242.1 61.7996C241.901 61.9996 241.6 62.2006 241.3 62.0996L235.8 61.9996Z" fill="white"/>
</g>
</svg>
