<svg
  width="290"
  height="72"
  viewBox="0 0 290 72"
  fill="none"
  xmlns="http://www.w3.org/2000/svg"
>
<path
    d="M29.0595 64.8961H84.7641L84.759 28.8354L29.0544 28.8404L29.0595 64.8961Z"
    fill="#003399"
  />
<path
    d="M57.4401 33.3809H59.4717L57.8331 34.645L58.4712 36.6472L56.8429 35.4135L55.2146 36.6472L55.8526 34.645L54.2039 33.3809H56.2303L56.8429 31.4293L57.4401 33.3809Z"
    fill="#FFED00"
  />
<path
    d="M57.5115 59.1574H59.5431L57.9097 60.3759L58.5426 62.3023L56.9143 61.1141L55.286 62.3023L55.9292 60.3759L54.2753 59.1574H56.3018L56.9143 57.2816L57.5115 59.1574Z"
    fill="#FFED00"
  />
<path
    d="M63.9482 57.4535H65.9849L64.3464 58.667L64.9844 60.5934L63.351 59.4052L61.7227 60.5934L62.3659 58.667L60.712 57.4535H62.7385L63.351 55.5726L63.9482 57.4535Z"
    fill="#FFED00"
  />
<path
    d="M63.9482 35.1001H65.9849L64.3464 36.3186L64.9844 38.245L63.351 37.0568L61.7227 38.245L62.3659 36.3186L60.712 35.1001H62.7385L63.351 33.2242L63.9482 35.1001Z"
    fill="#FFED00"
  />
<path
    d="M68.7311 39.8377H70.7575L69.1241 41.0512L69.7571 42.9776L68.1288 41.7894L66.5005 42.9776L67.1436 41.0512L65.4898 39.8377H67.5162L68.1288 37.9568L68.7311 39.8377Z"
    fill="#FFED00"
  />
<path
    d="M68.7311 52.7815H70.7575L69.1241 54.0001L69.7571 55.9265L68.1288 54.7383L66.5005 55.9265L67.1436 54.0001L65.4898 52.7815H67.5162L68.1288 50.9057L68.7311 52.7815Z"
    fill="#FFED00"
  />
<path
    d="M70.5176 46.2085H72.5543L70.9158 47.427L71.5487 49.3534L69.9204 48.1652L68.2921 49.3534L68.9353 47.427L67.2814 46.2085H69.3079L69.9204 44.3326L70.5176 46.2085Z"
    fill="#FFED00"
  />
<path
    d="M50.8809 35.1203H52.9074L51.274 36.3338L51.9069 38.2602L50.2786 37.072L48.6503 38.2602L49.2934 36.3338L47.6447 35.1203H49.6661L50.2786 33.2394L50.8809 35.1203Z"
    fill="#FFED00"
  />
<path
    d="M46.2308 39.8528H48.2674L46.6289 41.0663L47.2619 42.9927L45.6336 41.8045L44.0052 42.9927L44.6484 41.0663L42.9946 39.8528H45.021L45.6336 37.9719L46.2308 39.8528Z"
    fill="#FFED00"
  />
<path
    d="M44.5055 46.2287H46.537L44.9036 47.4422L45.5366 49.3686L43.9083 48.1855L42.28 49.3686L42.9231 47.4422L41.2744 46.2287H43.2957L43.9083 44.3478L44.5055 46.2287Z"
    fill="#FFED00"
  />
<path
    d="M46.2308 52.7967H48.2674L46.6289 54.0152L47.2619 55.9416L45.6336 54.7534L44.0052 55.9416L44.6484 54.0152L42.9946 52.7967H45.021L45.6336 50.9208L46.2308 52.7967Z"
    fill="#FFED00"
  />
<path
    d="M50.9473 57.4686H52.9737L51.3403 58.6821L51.9733 60.6085L50.3449 59.4203L48.7166 60.6085L49.3598 58.6821L47.7111 57.4686H49.7324L50.3449 55.5877L50.9473 57.4686Z"
    fill="#FFED00"
  />
<path
    d="M94.9372 0.00505726C94.9372 0.00505726 106.917 18.9101 109.112 22.3736C111.302 25.8371 113.808 28.5826 122.675 30.4433C131.541 32.304 135.4 33.1837 135.4 33.1837V33.8562C135.4 33.8562 129.765 32.668 122.516 31.0652C115.268 29.4624 112.302 28.9214 109 24.3657C106.249 20.5736 94.9372 3.61517 94.9372 3.61517V0V0.00505726Z"
    fill="white"
  />
<path
    d="M94.9372 21.5949C94.9372 21.5949 105.845 32.9157 109 36.1668C112.348 39.6151 116.631 40.8893 122.573 41.941C128.244 42.9421 135.395 44.1 135.395 44.1V44.7371C135.395 44.7371 128.677 43.6449 122.573 42.6135C116.585 41.5972 112.394 41.0309 108.964 37.9011C105.891 35.1 94.9372 24.9219 94.9372 24.9219V21.5898V21.5949Z"
    fill="white"
  />
<path
    d="M94.9372 26.6966C94.9372 26.6966 105.309 36.2377 109 39.4989C112.394 42.4972 115.146 43.4326 122.608 44.7422C130.071 46.0517 135.395 46.8658 135.395 46.8658V47.5382C135.395 47.5382 128.642 46.441 122.573 45.4804C116.503 44.5247 112.634 44.1455 109 41.2281C104.809 37.8607 94.9372 29.8113 94.9372 29.8113V26.6916V26.6966Z"
    fill="white"
  />
<path
    d="M94.9372 32.1321C94.9372 32.1321 106.785 41.4456 109 43.0737C111.215 44.7018 114.145 46.6029 122.644 47.8214C131.071 49.0298 135.395 49.6265 135.395 49.6265V50.3343C135.395 50.3343 127.754 49.2371 122.644 48.6001C117.535 47.963 113.619 47.69 109.036 44.6664C104.574 41.7237 94.9372 35.004 94.9372 35.004V32.1321Z"
    fill="white"
  />
<path
    d="M94.9372 37.3602C94.9372 37.3602 106.82 45.1973 109.071 46.4411C111.322 47.6798 113.967 49.7023 122.644 50.7995C131.322 51.8967 135.395 52.3922 135.395 52.3922V53.0647C135.395 53.0647 128.218 52.286 122.608 51.6843C117.004 51.0826 113.18 50.2686 109 47.9984C104.819 45.7332 94.9372 40.0096 94.9372 40.0096V37.3602Z"
    fill="white"
  />
<path
    d="M94.9372 42.5882C94.9372 42.5882 105.442 48.2512 109 50.0158C112.966 51.9877 116.396 52.9332 122.608 53.6663C128.708 54.3843 135.395 55.0821 135.395 55.0821V55.7192C135.395 55.7192 129.213 55.0618 122.608 54.445C116.059 53.8281 113.727 53.545 109 51.4669C104.773 49.6062 94.9372 45.0658 94.9372 45.0658V42.5832V42.5882Z"
    fill="white"
  />
<path
    d="M94.9372 47.8871C94.9372 47.8871 103.237 51.4062 109.071 53.7018C114.809 55.9568 119.193 56.1489 122.68 56.5383C124.216 56.7102 135.395 57.8478 135.395 57.8478V58.4849C135.395 58.4849 128.718 57.954 122.644 57.4231C116.57 56.8922 113.951 56.6647 109.036 55.0518C104.059 53.4136 94.9372 50.2636 94.9372 50.2636V47.8922V47.8871Z"
    fill="white"
  />
<path
    d="M94.9372 53.2922C94.9372 53.2922 103.319 55.8658 109.036 57.3523C114.753 58.8388 120 59.4455 122.644 59.6175C125.288 59.7944 135.4 60.6085 135.4 60.6085V61.2102C135.4 61.2102 129.647 60.8208 122.608 60.3253C116.917 59.9259 112.348 59.5012 109 58.768C105.294 57.959 94.9372 55.522 94.9372 55.522V53.2922Z"
    fill="white"
  />
<path
    d="M94.9372 58.6062C94.9372 58.6062 101.792 59.7792 109.036 60.9674C114.467 61.8573 121.822 62.4186 122.608 62.454C123.394 62.4893 135.395 63.3034 135.395 63.3034V63.9405C135.395 63.9405 127.713 63.5461 122.608 63.268C117.29 62.9747 112.001 62.6562 109 62.3478C102.272 61.6551 94.9372 60.7349 94.9372 60.7349V58.6062Z"
    fill="white"
  />
<path
    d="M94.9372 64.1074C94.9372 64.1074 105.748 64.5119 109.036 64.5826C112.323 64.6534 135.395 65.5737 135.395 65.5737V66.1956H94.9372V64.1074Z"
    fill="white"
  />
<path
    d="M122.603 33.3657C112.818 31.2775 110.603 27.7332 108.959 25.5388C107.315 23.3393 94.9321 5.41516 94.9321 5.41516V8.71179C95.4222 9.34382 106.019 23.8348 108.995 27.627C112.348 31.8994 117.601 32.8702 122.603 33.932C127.6 34.9938 135.395 36.4753 135.395 36.4753V35.909C135.395 35.909 125.135 33.9017 122.603 33.3657Z"
    fill="white"
  />
<path
    d="M122.603 36.2023C114.569 34.645 111.317 32.127 108.959 29.0832C106.601 26.0343 94.9321 10.4461 94.9321 10.4461V14.2787C95.4222 14.85 106.096 27.7534 108.959 30.9995C112.297 34.7866 116.958 35.7826 122.603 36.809C128.249 37.8355 135.39 39.1804 135.39 39.1804V38.6141C135.39 38.6141 127.238 37.1023 122.603 36.2074V36.2023Z"
    fill="white"
  />
<path
    d="M122.603 39.1399C114.247 37.5321 112.532 36.2124 108.995 32.3748C106.769 29.963 95.4119 16.6804 94.9321 16.1191V19.6585C94.9321 19.6585 105.544 30.8731 108.959 34.1849C113.436 38.5332 117.637 38.8619 122.603 39.7467C127.57 40.6315 135.39 42.0473 135.39 42.0473V41.4456C135.39 41.4456 125.947 39.7871 122.603 39.145V39.1399Z"
    fill="white"
  />
<path
    d="M0.00510552 27.7787C0.00510552 27.7787 27.6711 24.8562 35.4196 23.7792C47.6702 22.0803 57.6953 20.2702 66.9701 6.18875C66.9701 6.18875 66.9803 5.38987 66.9701 5.03088C61.2889 13.591 53.4536 19.4309 42.6628 21.1247C32.1222 22.7831 0 25.2051 0 25.2051V27.7787H0.00510552Z"
    fill="white"
  />
<path
    d="M0.00511169 24.2849C0.00511169 24.2849 25.6446 21.1045 34.0925 19.9315C47.4559 18.0809 56.8531 16.4174 66.9701 1.05675C66.9701 1.05675 66.9752 0.394392 66.9701 0.00506592C60.7733 9.34384 53.1218 15.3759 41.351 17.2264C29.8507 19.0365 0.00511169 21.6759 0.00511169 21.6759V24.2899V24.2849Z"
    fill="white"
  />
<path d="M26.1806 64.1326H0.020462V66.1854H26.1806V64.1326Z" fill="white" />
<path
    d="M66.9701 22.5708C66.9701 22.5708 66.9854 21.3624 66.9803 21.1045C65.7501 22.9601 64.132 24.6438 62.2638 26.1253H64.0963C65.1274 25.0736 66.0921 23.8955 66.965 22.5708H66.9701Z"
    fill="white"
  />
<path
    d="M66.9701 17.1102C66.9701 17.1102 66.9803 16.0383 66.9752 15.745C64.0095 20.2147 59.5942 23.7843 54.4897 26.1506L57.5014 26.1405C60.9826 24.1332 64.2188 21.2815 66.965 17.1102H66.9701Z"
    fill="white"
  />
<path
    d="M66.9701 11.6494C66.9701 11.6494 66.9803 10.714 66.9701 10.3904C61.8095 18.1719 53.7853 23.4961 43.9746 25.0382C41.6521 25.4023 37.8697 25.8067 33.4748 26.2163L45.4549 26.1758C53.3617 24.4315 60.7631 21.059 66.9599 11.6494H66.9701Z"
    fill="white"
  />
<path
    d="M26.1857 60.6742C12.8377 60.745 0.020462 60.8006 0.020462 60.8006V62.9394C0.020462 62.9394 13.4451 62.8433 26.1857 62.7371V60.6742Z"
    fill="white"
  />
<path
    d="M26.1857 57.0034C12.9295 57.15 0.0153351 57.2613 0.0153351 57.2613V59.4456C0.0153351 59.4456 13.5778 59.2686 26.1857 59.0714V57.0034Z"
    fill="white"
  />
<path
    d="M26.1806 53.3225C13.0214 53.55 0.0153351 53.722 0.0153351 53.722V55.9517C0.0153351 55.9517 13.7207 55.6837 26.1806 55.3905V53.3225Z"
    fill="white"
  />
<path
    d="M26.1857 49.6214C13.1235 49.9399 0.0153351 50.1776 0.0153351 50.1776V52.4478C0.0153351 52.4478 13.879 52.0736 26.1857 51.6843V49.6163V49.6214Z"
    fill="white"
  />
<path
    d="M26.1908 45.9102C13.2256 46.3197 0.0153351 46.6433 0.0153351 46.6433V48.959C0.0153351 48.959 14.0474 48.4736 26.1908 47.9781V45.9152V45.9102Z"
    fill="white"
  />
<path
    d="M26.1857 42.1838C13.3226 42.6995 0.0153351 43.104 0.0153351 43.104V45.4602C0.0153351 45.4602 14.2209 44.8433 26.1857 44.2315V42.1787V42.1838Z"
    fill="white"
  />
<path
    d="M26.1908 38.4321C13.4247 39.059 0.0102234 39.5596 0.0102234 39.5596V41.9613C0.0102234 41.9613 14.4047 41.1978 26.1908 40.4647V38.4321Z"
    fill="white"
  />
<path
    d="M26.1908 34.6602C13.5216 35.4085 0.0102234 36.0203 0.0102234 36.0203V38.4624C0.0102234 38.4624 14.5987 37.5321 26.1908 36.6725V34.6602Z"
    fill="white"
  />
<path
    d="M26.1908 30.868C13.6084 31.7478 0.0102234 32.486 0.0102234 32.486V34.9737C0.0102234 34.9737 14.7926 33.8512 26.1908 32.8602V30.8731V30.868Z"
    fill="white"
  />
<path
    d="M26.1908 27.0405C13.685 28.0669 0.00511169 28.9416 0.00511169 28.9416V31.4697C0.00511169 31.4697 14.9866 30.1247 26.1908 28.9922V27.0405Z"
    fill="white"
  />
<path
    d="M86.0759 66.1905V27.5461H27.7528V66.1905H86.0759ZM84.759 28.8354V64.8961H29.0544V28.8405H84.759V28.8354Z"
    fill="white"
  />
<path
    d="M144.42 33.4333C144.42 33.1844 144.537 33.0472 144.806 33.0472H151.912C152.145 33.0472 152.278 33.1844 152.278 33.413V34.6119C152.278 34.8456 152.181 34.9573 151.891 34.9573H146.621V38.2797H151.297C151.546 38.2797 151.683 38.3966 151.683 38.6252V39.8241C151.683 40.0577 151.586 40.1695 151.297 40.1695H146.621V43.9694H152.029C152.262 43.9694 152.374 44.0862 152.374 44.3351V45.5137C152.374 45.7626 152.278 45.8592 152.008 45.8592H144.806C144.537 45.8592 144.42 45.7423 144.42 45.5137V33.4282V33.4333Z"
    fill="white"
  />
<path
    d="M162.107 45.8646H160.735C160.445 45.8646 160.369 45.7274 160.369 45.4988V44.8994L160.329 44.8791C159.576 45.4023 158.265 46.0373 157.086 46.0373C154.478 46.0373 154.229 44.493 154.229 42.466V36.7916C154.229 36.5579 154.326 36.4055 154.595 36.4055H156.003C156.252 36.4055 156.349 36.5427 156.349 36.7916V42.2171C156.349 43.3754 156.583 44.1069 157.757 44.1069C158.585 44.1069 159.861 43.4871 160.364 43.2382V36.7916C160.364 36.5579 160.44 36.4055 160.73 36.4055H162.102C162.372 36.4055 162.468 36.5427 162.468 36.7916V45.4988C162.468 45.7477 162.372 45.8646 162.102 45.8646H162.107Z"
    fill="white"
  />
<path
    d="M167.017 45.4985C167.017 45.7322 166.921 45.8643 166.651 45.8643H165.259C164.989 45.8643 164.893 45.7474 164.893 45.4985V36.7913C164.893 36.5423 164.989 36.4052 165.259 36.4052H166.631C166.921 36.4052 167.017 36.5576 167.017 36.7913V37.6396L167.058 37.6803C167.638 37.1418 169.01 36.4814 169.915 36.3087C170.164 36.2528 170.341 36.3087 170.377 36.6389L170.514 37.9343C170.535 38.2035 170.555 38.3204 170.148 38.3966C169.066 38.6099 167.693 38.996 167.017 39.2856V45.4985Z"
    fill="white"
  />
<path
    d="M175.515 46.0221C171.632 46.0221 171.383 43.1874 171.383 40.9826C171.383 39.1691 171.79 36.2175 175.515 36.2175C179.241 36.2175 179.785 38.7068 179.785 40.9826C179.785 43.2585 179.515 46.0221 175.515 46.0221ZM175.531 38.0667C173.889 38.0667 173.523 39.1081 173.523 41.1147C173.523 43.1213 173.889 44.1628 175.51 44.1628C177.269 44.1628 177.615 43.1772 177.615 41.1147C177.615 39.0522 177.284 38.0667 175.531 38.0667Z"
    fill="white"
  />
<path
    d="M185.615 46.0221C181.732 46.0221 181.483 43.1874 181.483 40.9826C181.483 39.1691 181.889 36.2175 185.615 36.2175C189.34 36.2175 189.884 38.7068 189.884 40.9826C189.884 43.2585 189.615 46.0221 185.615 46.0221ZM185.635 38.0667C183.993 38.0667 183.628 39.1081 183.628 41.1147C183.628 43.1213 183.993 44.1628 185.615 44.1628C187.373 44.1628 187.719 43.1772 187.719 41.1147C187.719 39.0522 187.389 38.0667 185.635 38.0667Z"
    fill="white"
  />
<path
    d="M196.278 46.0368C195.643 46.0368 194.754 45.92 193.864 45.6101L193.844 45.6304V49.029C193.844 49.2423 193.788 49.4151 193.478 49.4151H192.105C191.795 49.4151 191.74 49.2779 191.74 49.029V36.7911C191.74 36.5422 191.836 36.405 192.105 36.405H193.478C193.747 36.405 193.823 36.5574 193.823 36.7911V37.3702L193.879 37.4109C194.576 36.9283 195.811 36.2526 196.929 36.2526C199.46 36.2526 200.116 38.1627 200.116 41.0787C200.116 44.2232 199.323 46.0368 196.273 46.0368H196.278ZM196.431 38.183C195.638 38.183 194.423 38.7419 193.844 39.0517V43.8778C194.713 44.1267 195.409 44.208 196.065 44.208C197.458 44.208 197.94 43.4917 197.94 41.0634C197.94 38.6352 197.458 38.1881 196.436 38.1881L196.431 38.183Z"
    fill="white"
  />
<path
    d="M207.806 44.7669C206.84 45.4985 205.544 46.0217 204.253 46.0217C202.204 46.0217 201.605 44.9041 201.605 43.2836C201.584 41.0229 202.804 40.0577 205.234 40.0577H207.704V39.5548C207.704 38.3965 207.282 37.9901 205.696 37.9901C205.061 37.9901 203.841 38.0867 203.068 38.1629C202.682 38.2187 202.586 38.2035 202.53 37.9292L202.357 37.2129C202.316 36.964 202.377 36.8065 202.799 36.6338C203.628 36.3442 205.157 36.207 206.062 36.207C209.401 36.207 209.808 37.5786 209.808 39.7377V43.4614C209.808 44.2539 209.905 44.2742 210.504 44.3504C210.794 44.3707 210.87 44.4266 210.87 44.6399V45.4527C210.87 45.6661 210.733 45.7982 210.408 45.8592C210.098 45.915 209.788 45.9557 209.498 45.9557C208.588 45.9557 208.029 45.6864 207.836 44.7771L207.795 44.7568L207.806 44.7669ZM207.689 41.5614H205.33C204.365 41.5614 203.744 41.9069 203.744 43.182C203.744 44.0303 204.034 44.2996 204.944 44.2996C205.772 44.2996 206.952 43.817 207.689 43.3902V41.5563V41.5614Z"
    fill="white"
  />
<path
    d="M220.07 45.8641H218.677C218.428 45.8641 218.312 45.7473 218.312 45.4983L218.332 40.0728C218.332 38.9349 218.062 38.183 216.939 38.183C216.167 38.183 214.815 38.8028 214.291 39.0517V45.4983C214.291 45.732 214.195 45.8641 213.925 45.8641H212.553C212.283 45.8641 212.187 45.7473 212.187 45.4983V36.7911C212.187 36.5422 212.283 36.405 212.553 36.405H213.925C214.195 36.405 214.291 36.5422 214.291 36.7911V37.3702C214.291 37.3702 214.332 37.3906 214.347 37.3906C215.064 36.8876 216.416 36.2323 217.59 36.2323C220.197 36.2323 220.426 37.9494 220.426 39.9001V45.4983C220.426 45.732 220.35 45.8641 220.06 45.8641H220.07Z"
    fill="white"
  />
<path
    d="M146.554 60.22L148.038 58.6554L149.639 57.0348C149.833 56.8418 149.97 56.7046 150.336 56.7046H151.881C152.247 56.7046 152.308 56.918 152.094 57.1466L149.004 60.2912L152.481 65.7319C152.618 65.9656 152.501 66.1739 152.232 66.1739H150.747C150.341 66.1739 150.209 66.0367 150.071 65.8081L147.601 61.8507L146.498 62.9684V65.803C146.498 66.0164 146.422 66.1688 146.132 66.1688H144.76C144.491 66.1688 144.394 66.052 144.394 65.803V52.9301C144.394 52.6812 144.491 52.5441 144.76 52.5441H146.132C146.422 52.5441 146.498 52.6965 146.498 52.9301V60.1896L146.554 60.2099V60.22Z"
    fill="white"
  />
<path
    d="M157.426 66.3424C153.543 66.3424 153.294 63.5077 153.294 61.303C153.294 59.4894 153.701 56.5379 157.426 56.5379C161.152 56.5379 161.696 59.0271 161.696 61.303C161.696 63.5789 161.426 66.3424 157.426 66.3424ZM157.447 58.387C155.805 58.387 155.439 59.4285 155.439 61.4351C155.439 63.4417 155.805 64.4831 157.426 64.4831C159.185 64.4831 159.531 63.4976 159.531 61.4351C159.531 59.3726 159.2 58.387 157.447 58.387Z"
    fill="white"
  />
<path
    d="M177.071 66.1843H175.678C175.409 66.1843 175.312 66.0675 175.312 65.8186V60.3372C175.312 58.9097 174.967 58.5033 174.001 58.5033C173.284 58.5033 172.125 59.0621 171.531 59.372C171.531 59.565 171.551 59.9105 171.551 60.3575V65.8186C171.551 66.0523 171.475 66.1843 171.185 66.1843H169.777C169.528 66.1843 169.447 66.0675 169.447 65.8186V60.2407C169.447 59.0621 169.137 58.5033 168.171 58.5033C167.495 58.5033 166.413 58.9859 165.681 59.372V65.8186C165.681 66.0523 165.584 66.1843 165.315 66.1843H163.922C163.673 66.1843 163.576 66.0675 163.576 65.8186V57.1114C163.576 56.8624 163.673 56.7253 163.922 56.7253H165.294C165.584 56.7253 165.681 56.8777 165.681 57.1114V57.6702L165.701 57.6905C166.453 57.1672 167.515 56.5932 168.578 56.5526C169.696 56.5526 170.626 56.7862 171.226 57.9038C172.191 57.1876 173.386 56.5526 174.626 56.5526C177.178 56.5526 177.427 58.2137 177.427 60.1442V65.8186C177.427 66.0523 177.35 66.1843 177.081 66.1843H177.071Z"
    fill="white"
  />
<path
    d="M180.857 55.3383C179.851 55.3383 179.719 54.7795 179.719 54.2207C179.719 53.601 179.932 53.1183 180.857 53.1183C181.782 53.1183 181.996 53.5603 181.996 54.2207C181.996 54.8202 181.823 55.3383 180.857 55.3383ZM181.879 65.8185C181.879 66.0319 181.803 66.1843 181.533 66.1843H180.161C179.892 66.1843 179.775 66.0674 179.775 65.8185V57.096C179.775 56.8268 179.892 56.7303 180.161 56.7303H181.533C181.803 56.7303 181.879 56.8827 181.879 57.096V65.8185Z"
    fill="white"
  />
<path
    d="M187.444 66.3424C186.479 66.3424 185.183 66.2053 184.451 65.9157C184.064 65.7633 183.988 65.5855 184.044 65.2807L184.181 64.6457C184.237 64.3358 184.374 64.3155 184.685 64.3561C185.533 64.4933 186.768 64.5898 187.429 64.5898C188.664 64.5898 189.167 64.2596 189.167 63.4874C189.167 62.5984 188.837 62.4054 187.622 62.2327C185.732 61.9634 184.07 61.557 184.07 59.4539C184.07 57.5438 185.538 56.5379 187.699 56.5379C188.491 56.5379 189.823 56.6547 190.636 56.9646C190.967 57.1018 191.099 57.2542 191.043 57.5438L190.89 58.2397C190.835 58.509 190.718 58.5496 190.367 58.509C189.538 58.4124 188.456 58.2956 187.739 58.2956C186.504 58.2956 186.214 58.641 186.214 59.3777C186.214 60.1143 186.677 60.226 187.856 60.4191C189.691 60.6883 191.353 61.0541 191.353 63.3554C191.353 65.6566 189.442 66.3475 187.455 66.3475L187.444 66.3424Z"
    fill="white"
  />
<path
    d="M196.309 66.3424C195.343 66.3424 194.047 66.2053 193.315 65.9157C192.929 65.7633 192.852 65.5855 192.908 65.2807L193.045 64.6457C193.101 64.3358 193.239 64.3155 193.549 64.3561C194.397 64.4933 195.633 64.5898 196.293 64.5898C197.528 64.5898 198.032 64.2596 198.032 63.4874C198.032 62.5984 197.701 62.4054 196.486 62.2327C194.596 61.9634 192.934 61.557 192.934 59.4539C192.934 57.5438 194.403 56.5379 196.563 56.5379C197.356 56.5379 198.687 56.6547 199.5 56.9646C199.831 57.1018 199.963 57.2542 199.907 57.5438L199.755 58.2397C199.699 58.509 199.582 58.5496 199.231 58.509C198.403 58.4124 197.32 58.2956 196.603 58.2956C195.368 58.2956 195.079 58.641 195.079 59.3777C195.079 60.1143 195.541 60.226 196.72 60.4191C198.555 60.6883 200.217 61.0541 200.217 63.3554C200.217 65.6566 198.306 66.3475 196.319 66.3475L196.309 66.3424Z"
    fill="white"
  />
<path
    d="M203.358 55.3383C202.352 55.3383 202.22 54.7795 202.22 54.2207C202.22 53.601 202.433 53.1183 203.358 53.1183C204.283 53.1183 204.497 53.5603 204.497 54.2207C204.497 54.8202 204.324 55.3383 203.358 55.3383ZM204.38 65.8185C204.38 66.0319 204.304 66.1843 204.034 66.1843H202.662C202.393 66.1843 202.276 66.0674 202.276 65.8185V57.096C202.276 56.8268 202.393 56.7303 202.662 56.7303H204.034C204.304 56.7303 204.38 56.8827 204.38 57.096V65.8185Z"
    fill="white"
  />
<path
    d="M210.718 66.3424C206.835 66.3424 206.586 63.5077 206.586 61.303C206.586 59.4894 206.992 56.5379 210.718 56.5379C214.444 56.5379 214.987 59.0271 214.987 61.303C214.987 63.5789 214.718 66.3424 210.718 66.3424ZM210.733 58.387C209.091 58.387 208.726 59.4285 208.726 61.4351C208.726 63.4417 209.091 64.4831 210.713 64.4831C212.471 64.4831 212.817 63.4976 212.817 61.4351C212.817 59.3726 212.487 58.387 210.733 58.387Z"
    fill="white"
  />
<path d="M232.74 66.1956V27.3991H229.426V66.1956H232.74Z" fill="white" />
</svg>
