<svg
  width="290"
  height="72"
  viewBox="0 0 290 72"
  fill="none"
  xmlns="http://www.w3.org/2000/svg"
>
<path
    fill-rule="evenodd"
    clip-rule="evenodd"
    d="M73.4488 66.1854H76.7488V27.4854H73.4488V66.1854Z"
    fill="white"
  />
<path
    d="M92.7057 40.9993C92.7057 41.1295 92.6991 41.2402 92.6861 41.3313C92.6731 41.4224 92.6406 41.5364 92.5885 41.6731C92.2239 40.8593 91.6835 40.0194 90.9674 39.1536C90.1731 38.1965 89.5481 37.718 89.0924 37.718C88.9947 37.718 88.8971 37.8027 88.7994 37.9719C88.7018 38.1412 88.5878 38.2258 88.4576 38.2258C88.2818 38.2258 88.0051 38.1119 87.6275 37.884C87.1523 37.5976 86.7714 37.2655 86.485 36.8879C86.1008 36.3801 85.9088 35.8398 85.9088 35.2668C85.9088 34.8567 86.0422 34.6516 86.3092 34.6516C86.7779 34.6516 87.5103 34.9478 88.5064 35.5403C89.6197 36.1978 90.554 36.9661 91.3092 37.845C92.2402 38.9192 92.7057 39.9706 92.7057 40.9993ZM96.7486 46.1067H96.1529C95.606 46.1067 95.1666 45.8105 94.8346 45.218C94.4374 44.5019 94.2389 43.4179 94.2389 41.9661C94.2389 41.8619 94.2258 41.7219 94.1998 41.5461C94.1803 41.3704 94.1705 41.2597 94.1705 41.2141C93.5455 42.9524 92.9889 44.1438 92.5006 44.7883C91.9212 45.5435 91.1041 46.0448 90.0494 46.2922C89.151 46.5006 87.621 46.6047 85.4596 46.6047V46.3313C87.2109 45.804 88.5162 45.3482 89.3756 44.9641C90.7623 44.3521 91.8137 43.6458 92.5299 42.845C93.3958 41.8814 93.8287 40.7389 93.8287 39.4172C93.8287 38.7792 93.7864 38.1835 93.7018 37.6301C93.6236 37.0767 93.5129 36.5103 93.3697 35.9309L93.692 35.1106C93.8222 34.7916 93.9426 34.5214 94.0533 34.3C94.2226 35.2375 94.3821 36.2499 94.5318 37.3372C94.636 38.0859 94.7369 38.8899 94.8346 39.7493C94.9583 40.804 95.0657 41.6536 95.1568 42.2981C95.274 43.1184 95.4498 43.7043 95.6842 44.0559C95.8404 44.2903 95.9967 44.4075 96.1529 44.4075H96.7486V46.1067Z"
    fill="white"
  />
<path
    d="M104.629 46.1067H103.614C103.178 46.1067 102.686 46.009 102.139 45.8137C101.508 45.5859 100.951 45.2734 100.469 44.8762C100.092 45.3385 99.7044 45.6607 99.3072 45.843C98.9166 46.0188 98.3437 46.1067 97.5885 46.1067H96.065V44.4075H97.5592C98.1516 44.4075 98.679 44.2577 99.1412 43.9583C99.4993 43.7239 99.8248 43.3951 100.118 42.9719C100.515 42.399 101.003 41.901 101.583 41.4778C102.103 41.1002 102.582 40.8593 103.018 40.7551C103.467 41.4387 103.825 42.054 104.092 42.6008C104.45 43.343 104.629 43.9452 104.629 44.4075V46.1067ZM103.506 44.1829C103.422 43.8053 103.292 43.4342 103.116 43.0696C102.966 42.7636 102.768 42.4478 102.52 42.1223C102.208 42.2004 101.944 42.3469 101.729 42.5618C101.586 42.6985 101.417 42.9296 101.221 43.2551C101.456 43.509 101.784 43.7369 102.208 43.9387C102.637 44.1405 103.041 44.2642 103.419 44.3098L103.506 44.1829Z"
    fill="white"
  />
<path
    d="M108.692 35.2864L107.94 36.7122L106.368 35.8723L107.09 34.4465L108.692 35.2864ZM109.991 46.1067H103.956V44.4075H109.161C109.161 43.828 109.092 43.2844 108.956 42.7766C108.617 42.8873 108.357 42.9654 108.174 43.011C107.875 43.0891 107.611 43.1282 107.383 43.1282C106.908 43.1282 106.521 43.0077 106.221 42.7668C105.876 42.4934 105.704 42.0995 105.704 41.5852C105.704 40.6803 105.866 39.8892 106.192 39.2122C106.557 38.4569 107.032 38.0793 107.618 38.0793C108.412 38.0793 109.024 38.7011 109.454 39.9446C109.812 40.9732 109.991 42.1809 109.991 43.5676V46.1067ZM108.399 41.0286C108.308 40.7942 108.161 40.5566 107.96 40.3157C107.686 39.9902 107.426 39.8274 107.178 39.8274C107.003 39.8274 106.856 39.9023 106.739 40.052C106.628 40.1952 106.573 40.3678 106.573 40.5696C106.573 41.0904 106.859 41.3508 107.432 41.3508C107.582 41.3508 107.741 41.3215 107.911 41.2629C108.08 41.2043 108.243 41.1262 108.399 41.0286Z"
    fill="white"
  />
<path
    d="M118.633 45.5208C118.633 46.595 118.236 47.6627 117.442 48.7239C116.557 49.9088 115.534 50.5012 114.376 50.5012C113.946 50.5012 113.503 50.4524 113.047 50.3547C112.715 50.2831 112.282 50.1594 111.749 49.9836C111.325 49.8339 110.902 49.6874 110.479 49.5442L110.645 49.2024C111.01 49.287 111.391 49.3749 111.788 49.4661C112.191 49.5637 112.553 49.6125 112.872 49.6125C113.666 49.6125 114.418 49.4107 115.128 49.0071C115.681 48.6881 116.234 48.2258 116.788 47.6204C117.068 47.3144 117.465 46.8163 117.979 46.1262C117.1 46.1262 116.443 45.9862 116.006 45.7063C115.512 45.3873 115.264 44.8632 115.264 44.134C115.264 43.4635 115.421 42.8417 115.733 42.2688C116.098 41.6047 116.56 41.2727 117.12 41.2727C117.686 41.2727 118.093 41.6015 118.34 42.259C118.536 42.7734 118.633 43.4895 118.633 44.4075V45.5208ZM118.018 44.4563C117.875 43.8313 117.702 43.3984 117.501 43.1575C117.325 42.9491 117.11 42.845 116.856 42.845C116.674 42.845 116.514 42.9068 116.378 43.0305C116.247 43.1477 116.182 43.2974 116.182 43.4797C116.182 43.7987 116.325 44.0429 116.612 44.2122C116.898 44.3749 117.367 44.4563 118.018 44.4563Z"
    fill="white"
  />
<path
    d="M129.356 37.9915L128.614 39.4075L127.032 38.5872L127.754 37.1614L129.356 37.9915ZM135.567 46.1067H123.829C123.477 46.1067 123.142 46.0481 122.823 45.9309C122.582 45.8398 122.299 45.6933 121.973 45.4915C121.7 45.7258 121.426 45.8886 121.153 45.9797C120.879 46.0644 120.443 46.1067 119.844 46.1067H117.96V44.4075H119.844C120.372 44.4075 120.749 44.3619 120.977 44.2708C121.355 44.121 121.544 43.8215 121.544 43.3723C121.544 43.1835 121.531 42.9947 121.504 42.8059C121.485 42.6106 121.452 42.399 121.407 42.1711L121.807 41.5852C122.035 42.4706 122.348 43.1542 122.745 43.636C123.168 44.1503 123.666 44.4075 124.239 44.4075C124.786 44.4075 125.427 44.2838 126.163 44.0364C126.957 43.7694 127.641 43.4309 128.213 43.0208C129.144 42.3567 129.714 41.9596 129.922 41.8293C130.45 41.4908 130.928 41.2499 131.358 41.1067C131.84 40.9439 132.367 40.8625 132.94 40.8625C133.825 40.8625 134.493 41.1197 134.942 41.634C135.359 42.1093 135.567 42.7766 135.567 43.636V46.1067ZM133.975 43.6555C133.975 43.3365 133.777 43.0891 133.379 42.9133C132.982 42.731 132.52 42.6399 131.993 42.6399C131.342 42.6399 130.554 42.858 129.629 43.2942C128.894 43.6653 128.161 44.0364 127.432 44.4075H131.934C132.644 44.4075 133.161 44.3456 133.487 44.2219C133.812 44.0982 133.975 43.9094 133.975 43.6555Z"
    fill="white"
  />
<path
    d="M140.46 46.1067H134.893V44.4075H139.747C139.747 43.6392 139.656 43.0533 139.473 42.6497C139.35 42.3697 139.044 41.9661 138.555 41.4387L139.317 39.8469C139.786 40.4394 140.079 40.9016 140.196 41.2336C140.372 41.7349 140.46 42.565 140.46 43.7239V46.1067ZM140.411 48.0598L139.649 49.4661L138.067 48.6262L138.799 47.2297L140.411 48.0598ZM138.165 48.9387L137.422 50.3547L135.84 49.5344L136.563 48.1184L138.165 48.9387Z"
    fill="white"
  />
<path
    d="M145.03 36.9856L144.268 38.3918L142.686 37.552L143.419 36.1555L145.03 36.9856ZM142.784 37.8645L142.042 39.2805L140.46 38.4602L141.182 37.0442L142.784 37.8645ZM145.889 43.2258C145.889 44.1438 145.74 44.8339 145.44 45.2961C144.978 46.0123 144.131 46.3704 142.901 46.3704C142.426 46.3704 142.032 46.276 141.719 46.0872C141.361 45.8723 141.182 45.5663 141.182 45.1692C141.182 44.7135 141.296 44.1861 141.524 43.5872C141.732 43.0793 141.944 42.5683 142.159 42.054L142.012 42.0149L142.608 40.3645C143.786 40.983 144.49 41.3736 144.717 41.5364C145.499 42.0833 145.889 42.6464 145.889 43.2258ZM145.04 43.9875C145.04 43.7402 144.682 43.4114 143.965 43.0012C143.659 42.8254 143.331 42.6529 142.979 42.4836C142.686 42.8027 142.51 43.0012 142.452 43.0793C142.269 43.3333 142.178 43.5741 142.178 43.802C142.178 44.134 142.269 44.3944 142.452 44.5833C142.641 44.7655 142.891 44.8567 143.204 44.8567C143.568 44.8567 143.965 44.7558 144.395 44.554C144.825 44.3456 145.04 44.1568 145.04 43.9875Z"
    fill="white"
  />
<path
    d="M98.7213 55.7844L98.2525 57.5422L97.6764 57.259L97.6959 58.1477C97.6959 59.0201 97.5852 59.8665 97.3639 60.6868C97.123 61.5852 96.7421 62.4739 96.2213 63.3528C96.4687 63.8085 96.6412 64.1666 96.7389 64.427C96.8886 64.8372 96.9635 65.2538 96.9635 65.677C96.9635 65.9179 96.957 66.123 96.9439 66.2922C96.9309 66.4615 96.9016 66.6601 96.856 66.8879C96.1659 67.0442 95.427 67.1679 94.6393 67.259C93.858 67.3437 93.0963 67.386 92.3541 67.386C92.3606 67.2623 92.3639 67.1581 92.3639 67.0735C92.3964 66.5787 92.4745 66.1197 92.5982 65.6965C93.705 65.1041 94.6393 64.3359 95.401 63.3918C94.9452 62.5325 94.6132 61.9237 94.4049 61.5657C94.177 61.175 93.7896 60.5663 93.2428 59.7395C93.0409 59.4596 92.8619 59.2349 92.7057 59.0657C92.4908 58.8378 92.3215 58.7239 92.1978 58.7239C92.1132 58.7239 91.9732 58.7727 91.7779 58.8704C91.6738 58.9224 91.5859 58.9485 91.5143 58.9485C91.371 58.9485 91.1464 58.8053 90.8404 58.5188C90.5735 58.2649 90.2935 57.9524 90.0006 57.5813C89.7662 57.2818 89.6067 57.0344 89.5221 56.8391C89.4374 56.6373 89.3951 56.3964 89.3951 56.1165C89.3951 55.7128 89.4212 55.3971 89.4732 55.1692C89.5514 54.8241 89.6848 54.6516 89.8736 54.6516C90.1406 54.6516 90.5279 54.9055 91.0357 55.4133C91.485 55.8691 91.9863 56.468 92.5396 57.2102C93.0279 57.8678 93.5097 58.5774 93.985 59.3391L94.981 60.9407C95.274 61.4224 95.5735 61.9693 95.8795 62.5813C96.3157 61.7024 96.6152 60.8137 96.7779 59.9153C96.9212 59.134 96.9928 58.1379 96.9928 56.927L96.4361 56.6047C96.4361 56.175 96.4719 55.7877 96.5435 55.4426C96.6217 55.0911 96.7291 54.7721 96.8658 54.4856L97.0904 54.5442C97.1165 54.8241 97.2727 55.0487 97.5592 55.218C97.7154 55.3092 97.914 55.4133 98.1549 55.5305C98.4023 55.6477 98.5911 55.7323 98.7213 55.7844ZM96.1822 65.2864C96.1822 65.1431 96.1529 64.9967 96.0943 64.8469C96.0422 64.6907 95.9218 64.4368 95.733 64.0852C95.5377 64.3391 95.2447 64.6321 94.8541 64.9641C94.47 65.2961 94.0891 65.5793 93.7115 65.8137C94.4797 65.8137 95.0266 65.7909 95.3521 65.7454C95.9055 65.6672 96.1822 65.5142 96.1822 65.2864Z"
    fill="white"
  />
<path
    d="M103.038 52.9719C103.038 53.1347 102.937 53.2812 102.735 53.4114C102.598 53.496 102.393 53.5872 102.12 53.6848L100.303 54.3098C100.303 54.0103 100.629 53.7467 101.28 53.5188C101.078 53.4146 100.925 53.3137 100.821 53.2161C100.684 53.0924 100.616 52.9622 100.616 52.8254C100.616 52.6236 100.788 52.3404 101.133 51.9758C101.518 51.5722 101.856 51.3704 102.149 51.3704C102.279 51.3704 102.39 51.4159 102.481 51.5071C102.579 51.5917 102.628 51.7056 102.628 51.8489C102.628 51.94 102.608 52.0344 102.569 52.1321C102.53 52.2232 102.475 52.3274 102.403 52.4446C102.201 52.2623 101.983 52.1711 101.749 52.1711C101.605 52.1711 101.462 52.2004 101.319 52.259C101.182 52.3176 101.114 52.386 101.114 52.4641C101.114 52.5618 101.264 52.6952 101.563 52.8645C101.869 53.0338 102.129 53.1184 102.344 53.1184C102.488 53.1184 102.588 53.1152 102.647 53.1086C102.712 53.0956 102.842 53.05 103.038 52.9719ZM102.764 63.6165C102.764 64.1373 102.67 64.6418 102.481 65.1301C102.383 65.3905 102.172 65.804 101.846 66.3704L101.671 66.2727C101.69 66.0839 101.706 65.8658 101.719 65.6184C101.739 65.371 101.749 65.205 101.749 65.1204C101.749 64.4433 101.693 63.4993 101.583 62.2883C101.478 61.0709 101.351 59.8014 101.202 58.4797C101.111 57.679 101.01 56.8619 100.899 56.0286C101.029 55.7421 101.176 55.4329 101.338 55.1008C101.508 54.7688 101.667 54.4563 101.817 54.1633C101.921 54.9055 102.051 55.9211 102.208 57.2102C102.37 58.4993 102.497 59.6614 102.588 60.6965C102.706 61.9856 102.764 62.9589 102.764 63.6165Z"
    fill="white"
  />
<path
    d="M112.247 65.5208C112.247 66.595 111.85 67.6627 111.055 68.7239C110.17 69.9088 109.148 70.5012 107.989 70.5012C107.559 70.5012 107.116 70.4524 106.661 70.3547C106.329 70.2831 105.896 70.1594 105.362 69.9836C104.939 69.8339 104.516 69.6874 104.092 69.5442L104.258 69.2024C104.623 69.287 105.004 69.3749 105.401 69.4661C105.805 69.5637 106.166 69.6125 106.485 69.6125C107.279 69.6125 108.031 69.4107 108.741 69.0071C109.294 68.6881 109.848 68.2258 110.401 67.6204C110.681 67.3144 111.078 66.8163 111.592 66.1262C110.713 66.1262 110.056 65.9862 109.62 65.7063C109.125 65.3873 108.878 64.8632 108.878 64.134C108.878 63.4635 109.034 62.8417 109.346 62.2688C109.711 61.6047 110.173 61.2727 110.733 61.2727C111.299 61.2727 111.706 61.6015 111.954 62.259C112.149 62.7734 112.247 63.4895 112.247 64.4075V65.5208ZM111.631 64.4563C111.488 63.8313 111.316 63.3984 111.114 63.1575C110.938 62.9491 110.723 62.845 110.469 62.845C110.287 62.845 110.128 62.9068 109.991 63.0305C109.861 63.1477 109.796 63.2974 109.796 63.4797C109.796 63.7987 109.939 64.0429 110.225 64.2122C110.512 64.3749 110.98 64.4563 111.631 64.4563Z"
    fill="white"
  />
<path
    d="M122.032 66.1067C122.032 66.8228 121.726 67.565 121.114 68.3333C120.58 69.0103 119.916 69.593 119.122 70.0813C118.366 70.55 117.745 70.7844 117.256 70.7844C116.807 70.7844 116.322 70.7193 115.801 70.5891C115.404 70.4915 114.929 70.3385 114.376 70.1301C113.907 69.9543 113.441 69.7786 112.979 69.6028L113.145 69.2122C113.575 69.2968 114.021 69.3814 114.483 69.4661C114.952 69.5572 115.375 69.6028 115.753 69.6028C116.586 69.6028 117.455 69.3359 118.36 68.802C119.18 68.3137 119.88 67.6985 120.46 66.9563C121.039 66.2076 121.329 65.5338 121.329 64.9348C121.329 64.4205 121.179 63.8801 120.879 63.3137C120.639 62.858 120.3 62.3892 119.864 61.9075L120.421 60.3743C120.954 60.8691 121.348 61.3639 121.602 61.8586C121.889 62.4185 122.032 63.0435 122.032 63.7336V66.1067Z"
    fill="white"
  />
<path
    d="M130.684 65.5208C130.684 66.595 130.287 67.6627 129.493 68.7239C128.607 69.9088 127.585 70.5012 126.426 70.5012C125.997 70.5012 125.554 70.4524 125.098 70.3547C124.766 70.2831 124.333 70.1594 123.799 69.9836C123.376 69.8339 122.953 69.6874 122.53 69.5442L122.696 69.2024C123.06 69.287 123.441 69.3749 123.838 69.4661C124.242 69.5637 124.603 69.6125 124.922 69.6125C125.717 69.6125 126.469 69.4107 127.178 69.0071C127.732 68.6881 128.285 68.2258 128.838 67.6204C129.118 67.3144 129.516 66.8163 130.03 66.1262C129.151 66.1262 128.493 65.9862 128.057 65.7063C127.562 65.3873 127.315 64.8632 127.315 64.134C127.315 63.4635 127.471 62.8417 127.784 62.2688C128.148 61.6047 128.611 61.2727 129.171 61.2727C129.737 61.2727 130.144 61.6015 130.391 62.259C130.587 62.7734 130.684 63.4895 130.684 64.4075V65.5208ZM130.069 64.4563C129.926 63.8313 129.753 63.3984 129.551 63.1575C129.376 62.9491 129.161 62.845 128.907 62.845C128.725 62.845 128.565 62.9068 128.428 63.0305C128.298 63.1477 128.233 63.2974 128.233 63.4797C128.233 63.7987 128.376 64.0429 128.663 64.2122C128.949 64.3749 129.418 64.4563 130.069 64.4563Z"
    fill="white"
  />
<path
    d="M135.577 66.1067H130.01V64.4075H134.864C134.864 63.6392 134.773 63.0533 134.59 62.6497C134.467 62.3697 134.161 61.9661 133.672 61.4387L134.434 59.8469C134.903 60.4394 135.196 60.9016 135.313 61.2336C135.489 61.7349 135.577 62.565 135.577 63.7239V66.1067ZM134.581 68.4797L133.819 69.8958L132.237 69.0754L132.96 67.6497L134.581 68.4797Z"
    fill="white"
  />
<path
    d="M140.46 66.1067H134.893V64.4075H139.747C139.747 63.6392 139.656 63.0533 139.473 62.6497C139.35 62.3697 139.044 61.9661 138.555 61.4387L139.317 59.8469C139.786 60.4394 140.079 60.9016 140.196 61.2336C140.372 61.7349 140.46 62.565 140.46 63.7239V66.1067ZM140.411 68.0598L139.649 69.4661L138.067 68.6262L138.799 67.2297L140.411 68.0598ZM138.165 68.9387L137.422 70.3547L135.84 69.5344L136.563 68.1184L138.165 68.9387Z"
    fill="white"
  />
<path
    d="M145.03 56.9856L144.268 58.3918L142.686 57.552L143.419 56.1555L145.03 56.9856ZM142.784 57.8645L142.042 59.2805L140.46 58.4602L141.182 57.0442L142.784 57.8645ZM145.889 63.2258C145.889 64.1438 145.74 64.8339 145.44 65.2961C144.978 66.0123 144.131 66.3704 142.901 66.3704C142.426 66.3704 142.032 66.276 141.719 66.0872C141.361 65.8723 141.182 65.5663 141.182 65.1692C141.182 64.7135 141.296 64.1861 141.524 63.5872C141.732 63.0793 141.944 62.5683 142.159 62.054L142.012 62.0149L142.608 60.3645C143.786 60.983 144.49 61.3736 144.717 61.5364C145.499 62.0833 145.889 62.6464 145.889 63.2258ZM145.04 63.9875C145.04 63.7402 144.682 63.4114 143.965 63.0012C143.659 62.8254 143.331 62.6529 142.979 62.4836C142.686 62.8027 142.51 63.0012 142.452 63.0793C142.269 63.3333 142.178 63.5741 142.178 63.802C142.178 64.134 142.269 64.3944 142.452 64.5833C142.641 64.7655 142.891 64.8567 143.204 64.8567C143.568 64.8567 143.965 64.7558 144.395 64.554C144.825 64.3456 145.04 64.1568 145.04 63.9875Z"
    fill="white"
  />
<path
    d="M183.659 64.8961H239.364L239.359 28.8354L183.654 28.8405L183.659 64.8961Z"
    fill="#003399"
  />
<path
    d="M212.04 33.3809H214.072L212.433 34.6449L213.071 36.6472L211.443 35.4135L209.815 36.6472L210.453 34.6449L208.804 33.3809H210.83L211.443 31.4292L212.04 33.3809Z"
    fill="#FFED00"
  />
<path
    d="M212.112 59.1573H214.143L212.51 60.3759L213.143 62.3023L211.514 61.1141L209.886 62.3023L210.529 60.3759L208.875 59.1573H210.902L211.514 57.2815L212.112 59.1573Z"
    fill="#FFED00"
  />
<path
    d="M218.548 57.4534H220.585L218.946 58.6669L219.584 60.5933L217.951 59.4051L216.323 60.5933L216.966 58.6669L215.312 57.4534H217.339L217.951 55.5725L218.548 57.4534Z"
    fill="#FFED00"
  />
<path
    d="M218.548 35.1H220.585L218.946 36.3185L219.584 38.2449L217.951 37.0567L216.323 38.2449L216.966 36.3185L215.312 35.1H217.339L217.951 33.2241L218.548 35.1Z"
    fill="#FFED00"
  />
<path
    d="M223.331 39.8377H225.358L223.724 41.0512L224.357 42.9776L222.729 41.7894L221.1 42.9776L221.744 41.0512L220.09 39.8377H222.116L222.729 37.9568L223.331 39.8377Z"
    fill="#FFED00"
  />
<path
    d="M223.331 52.7814H225.358L223.724 53.9999L224.357 55.9263L222.729 54.7381L221.1 55.9263L221.744 53.9999L220.09 52.7814H222.116L222.729 50.9055L223.331 52.7814Z"
    fill="#FFED00"
  />
<path
    d="M225.118 46.2084H227.154L225.516 47.4269L226.149 49.3533L224.52 48.1651L222.892 49.3533L223.535 47.4269L221.881 46.2084H223.908L224.52 44.3325L225.118 46.2084Z"
    fill="#FFED00"
  />
<path
    d="M205.481 35.1202H207.507L205.874 36.3336L206.507 38.26L204.879 37.0718L203.25 38.26L203.893 36.3336L202.245 35.1202H204.266L204.879 33.2393L205.481 35.1202Z"
    fill="#FFED00"
  />
<path
    d="M200.831 39.8528H202.867L201.229 41.0663L201.862 42.9927L200.234 41.8045L198.605 42.9927L199.248 41.0663L197.595 39.8528H199.621L200.234 37.9719L200.831 39.8528Z"
    fill="#FFED00"
  />
<path
    d="M199.105 46.2286H201.137L199.504 47.442L200.137 49.3685L198.508 48.1853L196.88 49.3685L197.523 47.442L195.874 46.2286H197.896L198.508 44.3477L199.105 46.2286Z"
    fill="#FFED00"
  />
<path
    d="M200.831 52.7965H202.867L201.229 54.015L201.862 55.9414L200.234 54.7532L198.605 55.9414L199.248 54.015L197.595 52.7965H199.621L200.234 50.9207L200.831 52.7965Z"
    fill="#FFED00"
  />
<path
    d="M205.547 57.4685H207.574L205.94 58.682L206.573 60.6084L204.945 59.4202L203.317 60.6084L203.96 58.682L202.311 57.4685H204.332L204.945 55.5876L205.547 57.4685Z"
    fill="#FFED00"
  />
<path
    d="M249.537 0.00505726C249.537 0.00505726 261.517 18.9101 263.712 22.3736C265.902 25.8371 268.408 28.5826 277.275 30.4433C286.141 32.304 290 33.1837 290 33.1837V33.8562C290 33.8562 284.365 32.668 277.116 31.0652C269.868 29.4624 266.902 28.9214 263.6 24.3657C260.849 20.5736 249.537 3.61517 249.537 3.61517V0V0.00505726Z"
    fill="white"
  />
<path
    d="M249.537 21.5949C249.537 21.5949 260.445 32.9157 263.6 36.1668C266.948 39.6151 271.231 40.8893 277.173 41.941C282.844 42.9421 289.995 44.1 289.995 44.1V44.7371C289.995 44.7371 283.277 43.6449 277.173 42.6135C271.185 41.5972 266.994 41.0309 263.564 37.9011C260.491 35.1 249.537 24.9219 249.537 24.9219V21.5898V21.5949Z"
    fill="white"
  />
<path
    d="M249.537 26.6967C249.537 26.6967 259.909 36.2377 263.6 39.499C266.994 42.4973 269.746 43.4327 277.208 44.7422C284.671 46.0518 289.995 46.8658 289.995 46.8658V47.5383C289.995 47.5383 283.242 46.4411 277.173 45.4804C271.103 44.5248 267.234 44.1456 263.6 41.2282C259.409 37.8608 249.537 29.8113 249.537 29.8113V26.6917V26.6967Z"
    fill="white"
  />
<path
    d="M249.537 32.1321C249.537 32.1321 261.385 41.4456 263.6 43.0737C265.815 44.7018 268.745 46.6029 277.244 47.8214C285.671 49.0298 289.995 49.6265 289.995 49.6265V50.3343C289.995 50.3343 282.354 49.2371 277.244 48.6001C272.135 47.963 268.219 47.69 263.636 44.6664C259.174 41.7237 249.537 35.004 249.537 35.004V32.1321Z"
    fill="white"
  />
<path
    d="M249.537 37.3601C249.537 37.3601 261.42 45.1972 263.671 46.441C265.922 47.6798 268.567 49.7022 277.244 50.7994C285.922 51.8966 289.995 52.3921 289.995 52.3921V53.0646C289.995 53.0646 282.818 52.286 277.208 51.6843C271.604 51.0826 267.78 50.2685 263.6 47.9983C259.419 45.7331 249.537 40.0095 249.537 40.0095V37.3601Z"
    fill="white"
  />
<path
    d="M249.537 42.5883C249.537 42.5883 260.042 48.2512 263.6 50.0158C267.566 51.9878 270.996 52.9333 277.208 53.6664C283.308 54.3844 289.995 55.0821 289.995 55.0821V55.7192C289.995 55.7192 283.813 55.0619 277.208 54.4451C270.659 53.8282 268.327 53.5451 263.6 51.467C259.373 49.6063 249.537 45.0658 249.537 45.0658V42.5833V42.5883Z"
    fill="white"
  />
<path
    d="M249.537 47.8872C249.537 47.8872 257.837 51.4063 263.671 53.7018C269.409 55.9569 273.793 56.149 277.28 56.5383C278.816 56.7102 289.995 57.8479 289.995 57.8479V58.485C289.995 58.485 283.318 57.9541 277.244 57.4232C271.17 56.8923 268.551 56.6647 263.636 55.0518C258.659 53.4136 249.537 50.2636 249.537 50.2636V47.8923V47.8872Z"
    fill="white"
  />
<path
    d="M249.537 53.2922C249.537 53.2922 257.919 55.8658 263.636 57.3524C269.353 58.8389 274.6 59.4456 277.244 59.6175C279.888 59.7945 290 60.6085 290 60.6085V61.2102C290 61.2102 284.247 60.8209 277.208 60.3254C271.517 59.9259 266.948 59.5012 263.6 58.7681C259.894 57.9591 249.537 55.522 249.537 55.522V53.2922Z"
    fill="white"
  />
<path
    d="M249.537 58.6062C249.537 58.6062 256.392 59.7792 263.636 60.9674C269.067 61.8573 276.422 62.4186 277.208 62.454C277.994 62.4893 289.995 63.3034 289.995 63.3034V63.9405C289.995 63.9405 282.313 63.5461 277.208 63.268C271.89 62.9747 266.601 62.6562 263.6 62.3478C256.872 61.6551 249.537 60.7349 249.537 60.7349V58.6062Z"
    fill="white"
  />
<path
    d="M249.537 64.1074C249.537 64.1074 260.348 64.5119 263.636 64.5827C266.923 64.6535 289.995 65.5737 289.995 65.5737V66.1956H249.537V64.1074Z"
    fill="white"
  />
<path
    d="M277.203 33.3656C267.418 31.2774 265.203 27.733 263.559 25.5387C261.915 23.3392 249.532 5.41504 249.532 5.41504V8.71167C250.022 9.34369 260.619 23.8347 263.595 27.6269C266.948 31.8993 272.201 32.8701 277.203 33.9319C282.2 34.9937 289.995 36.4752 289.995 36.4752V35.9089C289.995 35.9089 279.735 33.9016 277.203 33.3656Z"
    fill="white"
  />
<path
    d="M277.203 36.2022C269.169 34.6449 265.917 32.127 263.559 29.0831C261.201 26.0343 249.532 10.446 249.532 10.446V14.2786C250.022 14.85 260.696 27.7534 263.559 30.9994C266.897 34.7865 271.558 35.7826 277.203 36.809C282.849 37.8354 289.99 39.1803 289.99 39.1803V38.614C289.99 38.614 281.838 37.1022 277.203 36.2073V36.2022Z"
    fill="white"
  />
<path
    d="M277.203 39.1399C268.847 37.5321 267.132 36.2124 263.595 32.3748C261.369 29.963 250.012 16.6804 249.532 16.1191V19.6585C249.532 19.6585 260.144 30.8731 263.559 34.1849C268.036 38.5332 272.237 38.8619 277.203 39.7467C282.17 40.6315 289.99 42.0473 289.99 42.0473V41.4456C289.99 41.4456 280.547 39.7871 277.203 39.145V39.1399Z"
    fill="white"
  />
<path
    d="M154.605 27.7788C154.605 27.7788 182.271 24.8563 190.02 23.7793C202.27 22.0805 212.295 20.2703 221.57 6.18887C221.57 6.18887 221.58 5.38999 221.57 5.03101C215.889 13.5911 208.054 19.431 197.263 21.1248C186.722 22.7833 154.6 25.2052 154.6 25.2052V27.7788H154.605Z"
    fill="white"
  />
<path
    d="M154.605 24.2849C154.605 24.2849 180.245 21.1046 188.692 19.9315C202.056 18.081 211.453 16.4175 221.57 1.05681C221.57 1.05681 221.575 0.394453 221.57 0.00512695C215.373 9.3439 207.722 15.3759 195.951 17.2265C184.451 19.0366 154.605 21.6759 154.605 21.6759V24.29V24.2849Z"
    fill="white"
  />
<path d="M180.781 64.1326H154.62V66.1854H180.781V64.1326Z" fill="white" />
<path
    d="M221.57 22.5708C221.57 22.5708 221.585 21.3624 221.58 21.1045C220.35 22.9601 218.732 24.6438 216.864 26.1253H218.696C219.727 25.0736 220.692 23.8955 221.565 22.5708H221.57Z"
    fill="white"
  />
<path
    d="M221.57 17.11C221.57 17.11 221.58 16.0381 221.575 15.7449C218.61 20.2145 214.194 23.7842 209.09 26.1505L212.101 26.1404C215.583 24.1331 218.819 21.2814 221.565 17.11H221.57Z"
    fill="white"
  />
<path
    d="M221.57 11.6494C221.57 11.6494 221.58 10.714 221.57 10.3904C216.41 18.1718 208.385 23.496 198.575 25.0381C196.252 25.4022 192.47 25.8067 188.075 26.2162L200.055 26.1758C207.962 24.4314 215.363 21.0589 221.56 11.6494H221.57Z"
    fill="white"
  />
<path
    d="M180.786 60.6743C167.438 60.7451 154.62 60.8007 154.62 60.8007V62.9395C154.62 62.9395 168.045 62.8434 180.786 62.7372V60.6743Z"
    fill="white"
  />
<path
    d="M180.786 57.0034C167.53 57.15 154.615 57.2613 154.615 57.2613V59.4456C154.615 59.4456 168.178 59.2686 180.786 59.0714V57.0034Z"
    fill="white"
  />
<path
    d="M180.781 53.3225C167.621 53.55 154.615 53.722 154.615 53.722V55.9517C154.615 55.9517 168.321 55.6837 180.781 55.3905V53.3225Z"
    fill="white"
  />
<path
    d="M180.786 49.6213C167.724 49.9398 154.615 50.1774 154.615 50.1774V52.4477C154.615 52.4477 168.479 52.0735 180.786 51.6842V49.6162V49.6213Z"
    fill="white"
  />
<path
    d="M180.791 45.9102C167.826 46.3197 154.615 46.6433 154.615 46.6433V48.959C154.615 48.959 168.647 48.4736 180.791 47.9781V45.9152V45.9102Z"
    fill="white"
  />
<path
    d="M180.786 42.1838C167.923 42.6995 154.615 43.104 154.615 43.104V45.4602C154.615 45.4602 168.821 44.8433 180.786 44.2315V42.1787V42.1838Z"
    fill="white"
  />
<path
    d="M180.791 38.4321C168.025 39.0591 154.61 39.5597 154.61 39.5597V41.9613C154.61 41.9613 169.005 41.1979 180.791 40.4647V38.4321Z"
    fill="white"
  />
<path
    d="M180.791 34.6602C168.122 35.4085 154.61 36.0203 154.61 36.0203V38.4624C154.61 38.4624 169.199 37.5321 180.791 36.6725V34.6602Z"
    fill="white"
  />
<path
    d="M180.791 30.8679C168.208 31.7477 154.61 32.4859 154.61 32.4859V34.9735C154.61 34.9735 169.393 33.8511 180.791 32.8601V30.873V30.8679Z"
    fill="white"
  />
<path
    d="M180.791 27.0405C168.285 28.0669 154.605 28.9416 154.605 28.9416V31.4697C154.605 31.4697 169.587 30.1248 180.791 28.9922V27.0405Z"
    fill="white"
  />
<path
    d="M240.676 66.1906V27.5461H182.353V66.1906H240.676ZM239.359 28.8355V64.8962H183.654V28.8405H239.359V28.8355Z"
    fill="white"
  />
</svg>
