<svg
  width="290"
  height="72"
  viewBox="0 0 290 72"
  fill="none"
  xmlns="http://www.w3.org/2000/svg"
>
<path
    fill-rule="evenodd"
    clip-rule="evenodd"
    d="M42.5559 66.1956H45.8559V27.4956H42.5559V66.1956Z"
    fill="white"
  />
<path
    d="M183.659 64.8961H239.364L239.359 28.8354L183.654 28.8405L183.659 64.8961Z"
    fill="#003399"
  />
<path
    d="M212.04 33.3809H214.072L212.433 34.6449L213.071 36.6472L211.443 35.4135L209.815 36.6472L210.453 34.6449L208.804 33.3809H210.83L211.443 31.4292L212.04 33.3809Z"
    fill="#FFED00"
  />
<path
    d="M212.112 59.1573H214.143L212.51 60.3759L213.143 62.3023L211.514 61.1141L209.886 62.3023L210.529 60.3759L208.875 59.1573H210.902L211.514 57.2815L212.112 59.1573Z"
    fill="#FFED00"
  />
<path
    d="M218.548 57.4534H220.585L218.946 58.6669L219.584 60.5933L217.951 59.4051L216.323 60.5933L216.966 58.6669L215.312 57.4534H217.339L217.951 55.5725L218.548 57.4534Z"
    fill="#FFED00"
  />
<path
    d="M218.548 35.1H220.585L218.946 36.3185L219.584 38.2449L217.951 37.0567L216.323 38.2449L216.966 36.3185L215.312 35.1H217.339L217.951 33.2241L218.548 35.1Z"
    fill="#FFED00"
  />
<path
    d="M223.331 39.8377H225.358L223.724 41.0512L224.357 42.9776L222.729 41.7894L221.1 42.9776L221.744 41.0512L220.09 39.8377H222.116L222.729 37.9568L223.331 39.8377Z"
    fill="#FFED00"
  />
<path
    d="M223.331 52.7814H225.358L223.724 53.9999L224.357 55.9263L222.729 54.7381L221.1 55.9263L221.744 53.9999L220.09 52.7814H222.116L222.729 50.9055L223.331 52.7814Z"
    fill="#FFED00"
  />
<path
    d="M225.118 46.2084H227.154L225.516 47.4269L226.149 49.3533L224.52 48.1651L222.892 49.3533L223.535 47.4269L221.881 46.2084H223.908L224.52 44.3325L225.118 46.2084Z"
    fill="#FFED00"
  />
<path
    d="M205.481 35.1202H207.507L205.874 36.3336L206.507 38.26L204.879 37.0718L203.25 38.26L203.893 36.3336L202.245 35.1202H204.266L204.879 33.2393L205.481 35.1202Z"
    fill="#FFED00"
  />
<path
    d="M200.831 39.8528H202.867L201.229 41.0663L201.862 42.9927L200.234 41.8045L198.605 42.9927L199.248 41.0663L197.595 39.8528H199.621L200.234 37.9719L200.831 39.8528Z"
    fill="#FFED00"
  />
<path
    d="M199.105 46.2286H201.137L199.504 47.442L200.137 49.3685L198.508 48.1853L196.88 49.3685L197.523 47.442L195.874 46.2286H197.896L198.508 44.3477L199.105 46.2286Z"
    fill="#FFED00"
  />
<path
    d="M200.831 52.7965H202.867L201.229 54.015L201.862 55.9414L200.234 54.7532L198.605 55.9414L199.248 54.015L197.595 52.7965H199.621L200.234 50.9207L200.831 52.7965Z"
    fill="#FFED00"
  />
<path
    d="M205.547 57.4685H207.574L205.94 58.682L206.573 60.6084L204.945 59.4202L203.317 60.6084L203.96 58.682L202.311 57.4685H204.332L204.945 55.5876L205.547 57.4685Z"
    fill="#FFED00"
  />
<path
    d="M249.537 0.00505726C249.537 0.00505726 261.517 18.9101 263.712 22.3736C265.902 25.8371 268.408 28.5826 277.275 30.4433C286.141 32.304 290 33.1837 290 33.1837V33.8562C290 33.8562 284.365 32.668 277.116 31.0652C269.868 29.4624 266.902 28.9214 263.6 24.3657C260.849 20.5736 249.537 3.61517 249.537 3.61517V0V0.00505726Z"
    fill="white"
  />
<path
    d="M249.537 21.5949C249.537 21.5949 260.445 32.9157 263.6 36.1668C266.948 39.6151 271.231 40.8893 277.173 41.941C282.844 42.9421 289.995 44.1 289.995 44.1V44.7371C289.995 44.7371 283.277 43.6449 277.173 42.6135C271.185 41.5972 266.994 41.0309 263.564 37.9011C260.491 35.1 249.537 24.9219 249.537 24.9219V21.5898V21.5949Z"
    fill="white"
  />
<path
    d="M249.537 26.6967C249.537 26.6967 259.909 36.2377 263.6 39.499C266.994 42.4973 269.746 43.4327 277.208 44.7422C284.671 46.0518 289.995 46.8658 289.995 46.8658V47.5383C289.995 47.5383 283.242 46.4411 277.173 45.4804C271.103 44.5248 267.234 44.1456 263.6 41.2282C259.409 37.8608 249.537 29.8113 249.537 29.8113V26.6917V26.6967Z"
    fill="white"
  />
<path
    d="M249.537 32.1321C249.537 32.1321 261.385 41.4456 263.6 43.0737C265.815 44.7018 268.745 46.6029 277.244 47.8214C285.671 49.0298 289.995 49.6265 289.995 49.6265V50.3343C289.995 50.3343 282.354 49.2371 277.244 48.6001C272.135 47.963 268.219 47.69 263.636 44.6664C259.174 41.7237 249.537 35.004 249.537 35.004V32.1321Z"
    fill="white"
  />
<path
    d="M249.537 37.3601C249.537 37.3601 261.42 45.1972 263.671 46.441C265.922 47.6798 268.567 49.7022 277.244 50.7994C285.922 51.8966 289.995 52.3921 289.995 52.3921V53.0646C289.995 53.0646 282.818 52.286 277.208 51.6843C271.604 51.0826 267.78 50.2685 263.6 47.9983C259.419 45.7331 249.537 40.0095 249.537 40.0095V37.3601Z"
    fill="white"
  />
<path
    d="M249.537 42.5883C249.537 42.5883 260.042 48.2512 263.6 50.0158C267.566 51.9878 270.996 52.9333 277.208 53.6664C283.308 54.3844 289.995 55.0821 289.995 55.0821V55.7192C289.995 55.7192 283.813 55.0619 277.208 54.4451C270.659 53.8282 268.327 53.5451 263.6 51.467C259.373 49.6063 249.537 45.0658 249.537 45.0658V42.5833V42.5883Z"
    fill="white"
  />
<path
    d="M249.537 47.8872C249.537 47.8872 257.837 51.4063 263.671 53.7018C269.409 55.9569 273.793 56.149 277.28 56.5383C278.816 56.7102 289.995 57.8479 289.995 57.8479V58.485C289.995 58.485 283.318 57.9541 277.244 57.4232C271.17 56.8923 268.551 56.6647 263.636 55.0518C258.659 53.4136 249.537 50.2636 249.537 50.2636V47.8923V47.8872Z"
    fill="white"
  />
<path
    d="M249.537 53.2922C249.537 53.2922 257.919 55.8658 263.636 57.3524C269.353 58.8389 274.6 59.4456 277.244 59.6175C279.888 59.7945 290 60.6085 290 60.6085V61.2102C290 61.2102 284.247 60.8209 277.208 60.3254C271.517 59.9259 266.948 59.5012 263.6 58.7681C259.894 57.9591 249.537 55.522 249.537 55.522V53.2922Z"
    fill="white"
  />
<path
    d="M249.537 58.6062C249.537 58.6062 256.392 59.7792 263.636 60.9674C269.067 61.8573 276.422 62.4186 277.208 62.454C277.994 62.4893 289.995 63.3034 289.995 63.3034V63.9405C289.995 63.9405 282.313 63.5461 277.208 63.268C271.89 62.9747 266.601 62.6562 263.6 62.3478C256.872 61.6551 249.537 60.7349 249.537 60.7349V58.6062Z"
    fill="white"
  />
<path
    d="M249.537 64.1074C249.537 64.1074 260.348 64.5119 263.636 64.5827C266.923 64.6535 289.995 65.5737 289.995 65.5737V66.1956H249.537V64.1074Z"
    fill="white"
  />
<path
    d="M277.203 33.3656C267.418 31.2774 265.203 27.733 263.559 25.5387C261.915 23.3392 249.532 5.41504 249.532 5.41504V8.71167C250.022 9.34369 260.619 23.8347 263.595 27.6269C266.948 31.8993 272.201 32.8701 277.203 33.9319C282.2 34.9937 289.995 36.4752 289.995 36.4752V35.9089C289.995 35.9089 279.735 33.9016 277.203 33.3656Z"
    fill="white"
  />
<path
    d="M277.203 36.2022C269.169 34.6449 265.917 32.127 263.559 29.0831C261.201 26.0343 249.532 10.446 249.532 10.446V14.2786C250.022 14.85 260.696 27.7534 263.559 30.9994C266.897 34.7865 271.558 35.7826 277.203 36.809C282.849 37.8354 289.99 39.1803 289.99 39.1803V38.614C289.99 38.614 281.838 37.1022 277.203 36.2073V36.2022Z"
    fill="white"
  />
<path
    d="M277.203 39.1399C268.847 37.5321 267.132 36.2124 263.595 32.3748C261.369 29.963 250.012 16.6804 249.532 16.1191V19.6585C249.532 19.6585 260.144 30.8731 263.559 34.1849C268.036 38.5332 272.237 38.8619 277.203 39.7467C282.17 40.6315 289.99 42.0473 289.99 42.0473V41.4456C289.99 41.4456 280.547 39.7871 277.203 39.145V39.1399Z"
    fill="white"
  />
<path
    d="M154.605 27.7788C154.605 27.7788 182.271 24.8563 190.02 23.7793C202.27 22.0805 212.295 20.2703 221.57 6.18887C221.57 6.18887 221.58 5.38999 221.57 5.03101C215.889 13.5911 208.054 19.431 197.263 21.1248C186.722 22.7833 154.6 25.2052 154.6 25.2052V27.7788H154.605Z"
    fill="white"
  />
<path
    d="M154.605 24.2849C154.605 24.2849 180.245 21.1046 188.692 19.9315C202.056 18.081 211.453 16.4175 221.57 1.05681C221.57 1.05681 221.575 0.394453 221.57 0.00512695C215.373 9.3439 207.722 15.3759 195.951 17.2265C184.451 19.0366 154.605 21.6759 154.605 21.6759V24.29V24.2849Z"
    fill="white"
  />
<path d="M180.781 64.1326H154.62V66.1854H180.781V64.1326Z" fill="white" />
<path
    d="M221.57 22.5708C221.57 22.5708 221.585 21.3624 221.58 21.1045C220.35 22.9601 218.732 24.6438 216.864 26.1253H218.696C219.727 25.0736 220.692 23.8955 221.565 22.5708H221.57Z"
    fill="white"
  />
<path
    d="M221.57 17.11C221.57 17.11 221.58 16.0381 221.575 15.7449C218.61 20.2145 214.194 23.7842 209.09 26.1505L212.101 26.1404C215.583 24.1331 218.819 21.2814 221.565 17.11H221.57Z"
    fill="white"
  />
<path
    d="M221.57 11.6494C221.57 11.6494 221.58 10.714 221.57 10.3904C216.41 18.1718 208.385 23.496 198.575 25.0381C196.252 25.4022 192.47 25.8067 188.075 26.2162L200.055 26.1758C207.962 24.4314 215.363 21.0589 221.56 11.6494H221.57Z"
    fill="white"
  />
<path
    d="M180.786 60.6743C167.438 60.7451 154.62 60.8007 154.62 60.8007V62.9395C154.62 62.9395 168.045 62.8434 180.786 62.7372V60.6743Z"
    fill="white"
  />
<path
    d="M180.786 57.0034C167.53 57.15 154.615 57.2613 154.615 57.2613V59.4456C154.615 59.4456 168.178 59.2686 180.786 59.0714V57.0034Z"
    fill="white"
  />
<path
    d="M180.781 53.3225C167.621 53.55 154.615 53.722 154.615 53.722V55.9517C154.615 55.9517 168.321 55.6837 180.781 55.3905V53.3225Z"
    fill="white"
  />
<path
    d="M180.786 49.6213C167.724 49.9398 154.615 50.1774 154.615 50.1774V52.4477C154.615 52.4477 168.479 52.0735 180.786 51.6842V49.6162V49.6213Z"
    fill="white"
  />
<path
    d="M180.791 45.9102C167.826 46.3197 154.615 46.6433 154.615 46.6433V48.959C154.615 48.959 168.647 48.4736 180.791 47.9781V45.9152V45.9102Z"
    fill="white"
  />
<path
    d="M180.786 42.1838C167.923 42.6995 154.615 43.104 154.615 43.104V45.4602C154.615 45.4602 168.821 44.8433 180.786 44.2315V42.1787V42.1838Z"
    fill="white"
  />
<path
    d="M180.791 38.4321C168.025 39.0591 154.61 39.5597 154.61 39.5597V41.9613C154.61 41.9613 169.005 41.1979 180.791 40.4647V38.4321Z"
    fill="white"
  />
<path
    d="M180.791 34.6602C168.122 35.4085 154.61 36.0203 154.61 36.0203V38.4624C154.61 38.4624 169.199 37.5321 180.791 36.6725V34.6602Z"
    fill="white"
  />
<path
    d="M180.791 30.8679C168.208 31.7477 154.61 32.4859 154.61 32.4859V34.9735C154.61 34.9735 169.393 33.8511 180.791 32.8601V30.873V30.8679Z"
    fill="white"
  />
<path
    d="M180.791 27.0405C168.285 28.0669 154.605 28.9416 154.605 28.9416V31.4697C154.605 31.4697 169.587 30.1248 180.791 28.9922V27.0405Z"
    fill="white"
  />
<path
    d="M240.676 66.1906V27.5461H182.353V66.1906H240.676ZM239.359 28.8355V64.8962H183.654V28.8405H239.359V28.8355Z"
    fill="white"
  />
<path
    d="M145.494 33.4334V41.8375H143.248V33.41C143.248 31.9762 142.945 30.9632 142.338 30.371C141.739 29.7788 140.698 29.4827 139.217 29.4827H133.56V27.4956H139.254C140.743 27.4956 141.945 27.6982 142.86 28.1034C143.774 28.5008 144.442 29.1359 144.863 30.0086C145.284 30.8736 145.494 32.0152 145.494 33.4334ZM136.036 32.5217V41.8375H133.803V32.5217H136.036Z"
    fill="white"
  />
<path
    d="M129.711 33.0477V41.8375H122.9V39.8504H127.477V33.6555C127.477 32.3931 127.412 31.5009 127.283 30.9788C127.153 30.4411 126.927 30.0593 126.603 29.8333C126.287 29.5995 125.83 29.4827 125.231 29.4827H123.592V27.4956H125.158C126.453 27.4956 127.4 27.667 127.999 28.0099C128.598 28.3606 129.031 28.9333 129.298 29.7281C129.573 30.5152 129.711 31.6217 129.711 33.0477Z"
    fill="white"
  />
<path
    d="M120.958 39.9907V41.8375H109.497V39.8504H118.177L108.598 27.4956H111.391L116.016 33.5503C116.639 33.2931 117.093 32.9152 117.376 32.4165C117.659 31.91 117.849 31.1385 117.947 30.1022L118.226 27.4956H120.533L120.29 30.0554C120.185 31.1308 120.019 31.9567 119.792 32.5334C119.565 33.1022 119.246 33.5737 118.833 33.9477C118.42 34.3217 117.837 34.6529 117.085 34.9412L120.958 39.9907Z"
    fill="white"
  />
<path d="M105.854 27.4956V35.0347H103.62V27.4956H105.854Z" fill="white" />
<path
    d="M101.132 39.8504V41.8375H88.1288V39.8504H97.2829V33.41C97.2829 31.9762 96.9794 30.9632 96.3724 30.371C95.7734 29.7788 94.7334 29.4827 93.2522 29.4827H88.6994V27.4956H93.2765C95.5104 27.4956 97.1089 27.9554 98.0721 28.8749C99.0353 29.7944 99.5169 31.3139 99.5169 33.4334V39.8504H101.132Z"
    fill="white"
  />
<path d="M85.0207 27.4956V41.8375H82.7868V27.4956H85.0207Z" fill="white" />
<path
    d="M68.4971 39.6167C68.2219 40.4037 67.7848 40.9725 67.1859 41.3232C66.5869 41.666 65.644 41.8375 64.3571 41.8375H64.2235V39.8504H64.4299C64.9884 39.8504 65.4335 39.7491 65.7654 39.5465C66.0891 39.3439 66.3198 39.0361 66.4574 38.6231C66.595 38.2023 66.6638 37.5673 66.6638 36.7179V29.4827H64.3571V27.4956H72.4064C74.6403 27.4956 76.2429 27.9554 77.2142 28.8749C78.1854 29.7866 78.6711 31.3061 78.6711 33.4334V41.8375H76.4372V33.41C76.4372 31.9762 76.1336 30.9632 75.5266 30.371C74.9277 29.7788 73.8795 29.4827 72.3821 29.4827H68.8977V36.2854C68.8977 37.7192 68.7642 38.8296 68.4971 39.6167Z"
    fill="white"
  />
<path
    d="M145.494 57.7752V66.1793H143.27V57.7518C143.27 56.318 142.97 55.305 142.369 54.7128C141.776 54.1206 140.746 53.8245 139.28 53.8245H133.679V51.8374H139.316C140.79 51.8374 141.98 52.04 142.886 52.4452C143.791 52.8426 144.452 53.4777 144.869 54.3504C145.286 55.2154 145.494 56.357 145.494 57.7752ZM136.131 56.8635V66.1793H133.919V56.8635H136.131Z"
    fill="white"
  />
<path
    d="M120.481 61.4688L119.52 66.1793H117.188L118.197 61.5155C118.486 60.1752 118.75 59.2324 118.991 58.6869C119.231 58.1336 119.532 57.6856 119.892 57.3427C120.261 56.9999 120.754 56.7076 121.371 56.4661L117.897 51.8374H120.625L126.046 59.096C126.647 58.5505 127.124 57.8921 127.477 57.1206C127.837 56.3414 128.074 55.4492 128.186 54.444L128.462 51.8374H130.746L130.469 54.3972C130.381 55.2544 130.221 56.0063 129.989 56.6531C129.828 57.0973 129.636 57.5219 129.412 57.9271C129.187 58.3246 128.899 58.7376 128.546 59.1661C128.202 59.5947 127.753 60.0739 127.2 60.6038L131.539 66.1793H128.727L122.38 57.7986C121.739 58.1025 121.282 58.6285 121.01 59.3765C120.93 59.5713 120.846 59.8441 120.758 60.1947C120.677 60.5454 120.585 60.9701 120.481 61.4688Z"
    fill="white"
  />
<path d="M114.303 51.8374V59.3765H112.091V51.8374H114.303Z" fill="white" />
<path
    d="M108.029 57.7752V66.1793H105.805V57.7518C105.805 56.3336 105.509 55.3245 104.916 54.7245C104.331 54.1245 103.301 53.8245 101.826 53.8245H97.3191V51.8374H101.851C103.325 51.8374 104.515 52.04 105.42 52.4452C106.326 52.8426 106.987 53.4777 107.404 54.3504C107.82 55.2154 108.029 56.357 108.029 57.7752Z"
    fill="white"
  />
<path d="M94.7589 51.8374V66.1793H92.5473V51.8374H94.7589Z" fill="white" />
<path
    d="M86.8499 58.2077C86.8499 56.7349 86.5174 55.6362 85.8523 54.9115C85.1872 54.1868 84.1415 53.8245 82.7151 53.8245H79.3977V57.8687H82.3185V59.8558H77.15V51.8374H82.7392C84.8867 51.8374 86.4813 52.3595 87.523 53.4037C88.5728 54.4401 89.0976 56.057 89.0976 58.2544V59.2129C89.0976 63.8571 86.8379 66.1793 82.3185 66.1793H77.2822V64.1922H82.3786C83.9011 64.1922 85.0269 63.7831 85.7561 62.9649C86.4853 62.1389 86.8499 60.896 86.8499 59.2363V58.2077Z"
    fill="white"
  />
<path d="M72.8349 51.8374V59.3765H70.6233V51.8374H72.8349Z" fill="white" />
<path
    d="M56.9809 63.9584C56.7085 64.7455 56.2758 65.3143 55.6828 65.665C55.0898 66.0078 54.1563 66.1793 52.8822 66.1793H52.75V64.1922H52.9543C53.5072 64.1922 53.948 64.0909 54.2765 63.8883C54.597 63.6857 54.8254 63.3779 54.9616 62.9649C55.0979 62.5441 55.166 61.9091 55.166 61.0597V53.8245H52.8822V51.8374H60.8513C63.0629 51.8374 64.6495 52.2972 65.6111 53.2167C66.5727 54.1284 67.0535 55.6479 67.0535 57.7752V66.1793H64.8418V57.7518C64.8418 56.318 64.5413 55.305 63.9404 54.7128C63.3474 54.1206 62.3097 53.8245 60.8272 53.8245H57.3776V60.6272C57.3776 62.061 57.2454 63.1714 56.9809 63.9584Z"
    fill="white"
  />
</svg>
