<svg
  width="290"
  height="72"
  viewBox="0 0 290 72"
  fill="none"
  xmlns="http://www.w3.org/2000/svg"
>
<path
    d="M29.0595 64.9376H84.7641L84.759 28.877L29.0544 28.882L29.0595 64.9376Z"
    fill="#003399"
  />
<path
    d="M57.4401 33.4224H59.4717L57.8331 34.6864L58.4712 36.6887L56.8429 35.455L55.2146 36.6887L55.8526 34.6864L54.2039 33.4224H56.2303L56.8429 31.4707L57.4401 33.4224Z"
    fill="#FFED00"
  />
<path
    d="M57.5115 59.1988H59.5431L57.9097 60.4174L58.5426 62.3438L56.9143 61.1556L55.286 62.3438L55.9292 60.4174L54.2753 59.1988H56.3018L56.9143 57.323L57.5115 59.1988Z"
    fill="#FFED00"
  />
<path
    d="M63.9482 57.4949H65.9849L64.3464 58.7084L64.9844 60.6348L63.351 59.4466L61.7227 60.6348L62.3659 58.7084L60.712 57.4949H62.7385L63.351 55.614L63.9482 57.4949Z"
    fill="#FFED00"
  />
<path
    d="M63.9482 35.1415H65.9849L64.3464 36.36L64.9844 38.2864L63.351 37.0982L61.7227 38.2864L62.3659 36.36L60.712 35.1415H62.7385L63.351 33.2656L63.9482 35.1415Z"
    fill="#FFED00"
  />
<path
    d="M68.7311 39.8792H70.7575L69.1241 41.0927L69.7571 43.0191L68.1288 41.8309L66.5005 43.0191L67.1436 41.0927L65.4898 39.8792H67.5162L68.1288 37.9983L68.7311 39.8792Z"
    fill="#FFED00"
  />
<path
    d="M68.7311 52.823H70.7575L69.1241 54.0415L69.7571 55.9679L68.1288 54.7797L66.5005 55.9679L67.1436 54.0415L65.4898 52.823H67.5162L68.1288 50.9471L68.7311 52.823Z"
    fill="#FFED00"
  />
<path
    d="M70.5176 46.25H72.5543L70.9158 47.4685L71.5487 49.3949L69.9204 48.2067L68.2921 49.3949L68.9353 47.4685L67.2814 46.25H69.3079L69.9204 44.3741L70.5176 46.25Z"
    fill="#FFED00"
  />
<path
    d="M50.8809 35.1618H52.9074L51.274 36.3753L51.9069 38.3017L50.2786 37.1135L48.6503 38.3017L49.2934 36.3753L47.6447 35.1618H49.6661L50.2786 33.2809L50.8809 35.1618Z"
    fill="#FFED00"
  />
<path
    d="M46.2308 39.8942H48.2674L46.6289 41.1077L47.2619 43.0341L45.6336 41.8459L44.0052 43.0341L44.6484 41.1077L42.9946 39.8942H45.021L45.6336 38.0133L46.2308 39.8942Z"
    fill="#FFED00"
  />
<path
    d="M44.5055 46.2702H46.537L44.9036 47.4837L45.5366 49.4101L43.9083 48.2269L42.28 49.4101L42.9231 47.4837L41.2744 46.2702H43.2957L43.9083 44.3893L44.5055 46.2702Z"
    fill="#FFED00"
  />
<path
    d="M46.2308 52.8381H48.2674L46.6289 54.0567L47.2619 55.9831L45.6336 54.7949L44.0052 55.9831L44.6484 54.0567L42.9946 52.8381H45.021L45.6336 50.9623L46.2308 52.8381Z"
    fill="#FFED00"
  />
<path
    d="M50.9473 57.5101H52.9737L51.3403 58.7235L51.9733 60.6499L50.3449 59.4617L48.7166 60.6499L49.3598 58.7235L47.7111 57.5101H49.7324L50.3449 55.6292L50.9473 57.5101Z"
    fill="#FFED00"
  />
<path
    d="M94.9372 0.0465612C94.9372 0.0465612 106.917 18.9516 109.112 22.4151C111.302 25.8786 113.808 28.6241 122.675 30.4848C131.541 32.3455 135.4 33.2252 135.4 33.2252V33.8977C135.4 33.8977 129.765 32.7095 122.516 31.1067C115.268 29.5039 112.302 28.9629 109 24.4072C106.249 20.6151 94.9372 3.65668 94.9372 3.65668V0.0415039V0.0465612Z"
    fill="white"
  />
<path
    d="M94.9372 21.6364C94.9372 21.6364 105.845 32.9572 109 36.2083C112.348 39.6566 116.631 40.9308 122.573 41.9825C128.244 42.9836 135.395 44.1415 135.395 44.1415V44.7786C135.395 44.7786 128.677 43.6864 122.573 42.655C116.585 41.6387 112.394 41.0724 108.964 37.9426C105.891 35.1415 94.9372 24.9634 94.9372 24.9634V21.6313V21.6364Z"
    fill="white"
  />
<path
    d="M94.9372 26.7381C94.9372 26.7381 105.309 36.2791 109 39.5403C112.394 42.5387 115.146 43.4741 122.608 44.7836C130.071 46.0932 135.395 46.9072 135.395 46.9072V47.5797C135.395 47.5797 128.642 46.4825 122.573 45.5218C116.503 44.5662 112.634 44.187 109 41.2696C104.809 37.9021 94.9372 29.8527 94.9372 29.8527V26.733V26.7381Z"
    fill="white"
  />
<path
    d="M94.9372 32.1736C94.9372 32.1736 106.785 41.4871 109 43.1152C111.215 44.7433 114.145 46.6444 122.644 47.8629C131.071 49.0713 135.395 49.668 135.395 49.668V50.3758C135.395 50.3758 127.754 49.2787 122.644 48.6416C117.535 48.0045 113.619 47.7315 109.036 44.7079C104.574 41.7652 94.9372 35.0455 94.9372 35.0455V32.1736Z"
    fill="white"
  />
<path
    d="M94.9372 37.4016C94.9372 37.4016 106.82 45.2387 109.071 46.4825C111.322 47.7213 113.967 49.7438 122.644 50.8409C131.322 51.9381 135.395 52.4336 135.395 52.4336V53.1061C135.395 53.1061 128.218 52.3275 122.608 51.7258C117.004 51.1241 113.18 50.31 109 48.0398C104.819 45.7747 94.9372 40.0511 94.9372 40.0511V37.4016Z"
    fill="white"
  />
<path
    d="M94.9372 42.6298C94.9372 42.6298 105.442 48.2927 109 50.0573C112.966 52.0293 116.396 52.9748 122.608 53.7079C128.708 54.4259 135.395 55.1236 135.395 55.1236V55.7607C135.395 55.7607 129.213 55.1034 122.608 54.4866C116.059 53.8697 113.727 53.5866 109 51.5085C104.773 49.6478 94.9372 45.1073 94.9372 45.1073V42.6248V42.6298Z"
    fill="white"
  />
<path
    d="M94.9372 47.9286C94.9372 47.9286 103.237 51.4477 109.071 53.7432C114.809 55.9983 119.193 56.1904 122.68 56.5797C124.216 56.7516 135.395 57.8893 135.395 57.8893V58.5264C135.395 58.5264 128.718 57.9955 122.644 57.4646C116.57 56.9337 113.951 56.7061 109.036 55.0932C104.059 53.455 94.9372 50.305 94.9372 50.305V47.9336V47.9286Z"
    fill="white"
  />
<path
    d="M94.9372 53.3336C94.9372 53.3336 103.319 55.9072 109.036 57.3937C114.753 58.8803 120 59.487 122.644 59.6589C125.288 59.8359 135.4 60.6499 135.4 60.6499V61.2516C135.4 61.2516 129.647 60.8623 122.608 60.3668C116.917 59.9673 112.348 59.5426 109 58.8095C105.294 58.0005 94.9372 55.5634 94.9372 55.5634V53.3336Z"
    fill="white"
  />
<path
    d="M94.9372 58.6477C94.9372 58.6477 101.792 59.8207 109.036 61.0089C114.467 61.8988 121.822 62.4601 122.608 62.4955C123.394 62.5309 135.395 63.3449 135.395 63.3449V63.982C135.395 63.982 127.713 63.5876 122.608 63.3095C117.29 63.0162 112.001 62.6977 109 62.3893C102.272 61.6966 94.9372 60.7764 94.9372 60.7764V58.6477Z"
    fill="white"
  />
<path
    d="M94.9372 64.1489C94.9372 64.1489 105.748 64.5534 109.036 64.6242C112.323 64.695 135.395 65.6152 135.395 65.6152V66.2371H94.9372V64.1489Z"
    fill="white"
  />
<path
    d="M122.603 33.4072C112.818 31.319 110.603 27.7747 108.959 25.5803C107.315 23.3808 94.9321 5.45667 94.9321 5.45667V8.7533C95.4222 9.38532 106.019 23.8763 108.995 27.6685C112.348 31.941 117.601 32.9117 122.603 33.9735C127.6 35.0353 135.395 36.5168 135.395 36.5168V35.9505C135.395 35.9505 125.135 33.9432 122.603 33.4072Z"
    fill="white"
  />
<path
    d="M122.603 36.2437C114.569 34.6864 111.317 32.1685 108.959 29.1246C106.601 26.0758 94.9321 10.4875 94.9321 10.4875V14.3201C95.4222 14.8915 106.096 27.7949 108.959 31.0409C112.297 34.828 116.958 35.8241 122.603 36.8505C128.249 37.8769 135.39 39.2218 135.39 39.2218V38.6555C135.39 38.6555 127.238 37.1437 122.603 36.2488V36.2437Z"
    fill="white"
  />
<path
    d="M122.603 39.1815C114.247 37.5736 112.532 36.2539 108.995 32.4163C106.769 30.0045 95.4119 16.7219 94.9321 16.1606V19.7C94.9321 19.7 105.544 30.9146 108.959 34.2264C113.436 38.5747 117.637 38.9034 122.603 39.7882C127.57 40.673 135.39 42.0888 135.39 42.0888V41.4871C135.39 41.4871 125.947 39.8286 122.603 39.1865V39.1815Z"
    fill="white"
  />
<path
    d="M0.00510552 27.8202C0.00510552 27.8202 27.6711 24.8977 35.4196 23.8207C47.6702 22.1218 57.6953 20.3117 66.9701 6.23025C66.9701 6.23025 66.9803 5.43138 66.9701 5.07239C61.2889 13.6325 53.4536 19.4724 42.6628 21.1662C32.1222 22.8246 0 25.2466 0 25.2466V27.8202H0.00510552Z"
    fill="white"
  />
<path
    d="M0.00511169 24.3263C0.00511169 24.3263 25.6446 21.146 34.0925 19.9729C47.4559 18.1224 56.8531 16.4589 66.9701 1.09819C66.9701 1.09819 66.9752 0.435835 66.9701 0.0465088C60.7733 9.38528 53.1218 15.4173 41.351 17.2679C29.8507 19.078 0.00511169 21.7173 0.00511169 21.7173V24.3314V24.3263Z"
    fill="white"
  />
<path d="M26.1806 64.1741H0.020462V66.2269H26.1806V64.1741Z" fill="white" />
<path
    d="M66.9701 22.6123C66.9701 22.6123 66.9854 21.4039 66.9803 21.146C65.7501 23.0016 64.132 24.6853 62.2638 26.1668H64.0963C65.1274 25.1151 66.0921 23.937 66.965 22.6123H66.9701Z"
    fill="white"
  />
<path
    d="M66.9701 17.1517C66.9701 17.1517 66.9803 16.0798 66.9752 15.7865C64.0095 20.2562 59.5942 23.8258 54.4897 26.1921L57.5014 26.182C60.9826 24.1747 64.2188 21.323 66.965 17.1517H66.9701Z"
    fill="white"
  />
<path
    d="M66.9701 11.6909C66.9701 11.6909 66.9803 10.7555 66.9701 10.4319C61.8095 18.2134 53.7853 23.5375 43.9746 25.0796C41.6521 25.4437 37.8697 25.8482 33.4748 26.2577L45.4549 26.2173C53.3617 24.4729 60.7631 21.1004 66.9599 11.6909H66.9701Z"
    fill="white"
  />
<path
    d="M26.1857 60.7157C12.8377 60.7865 0.020462 60.8421 0.020462 60.8421V62.9809C0.020462 62.9809 13.4451 62.8848 26.1857 62.7786V60.7157Z"
    fill="white"
  />
<path
    d="M26.1857 57.0449C12.9295 57.1916 0.0153351 57.3028 0.0153351 57.3028V59.4871C0.0153351 59.4871 13.5778 59.3101 26.1857 59.1129V57.0449Z"
    fill="white"
  />
<path
    d="M26.1806 53.364C13.0214 53.5915 0.0153351 53.7635 0.0153351 53.7635V55.9932C0.0153351 55.9932 13.7207 55.7252 26.1806 55.432V53.364Z"
    fill="white"
  />
<path
    d="M26.1857 49.6629C13.1235 49.9814 0.0153351 50.2191 0.0153351 50.2191V52.4893C0.0153351 52.4893 13.879 52.1151 26.1857 51.7258V49.6578V49.6629Z"
    fill="white"
  />
<path
    d="M26.1908 45.9517C13.2256 46.3612 0.0153351 46.6848 0.0153351 46.6848V49.0005C0.0153351 49.0005 14.0474 48.5152 26.1908 48.0196V45.9567V45.9517Z"
    fill="white"
  />
<path
    d="M26.1857 42.2253C13.3226 42.741 0.0153351 43.1455 0.0153351 43.1455V45.5017C0.0153351 45.5017 14.2209 44.8848 26.1857 44.273V42.2202V42.2253Z"
    fill="white"
  />
<path
    d="M26.1908 38.4735C13.4247 39.1005 0.0102234 39.601 0.0102234 39.601V42.0027C0.0102234 42.0027 14.4047 41.2392 26.1908 40.5061V38.4735Z"
    fill="white"
  />
<path
    d="M26.1908 34.7017C13.5216 35.45 0.0102234 36.0618 0.0102234 36.0618V38.5039C0.0102234 38.5039 14.5987 37.5736 26.1908 36.714V34.7017Z"
    fill="white"
  />
<path
    d="M26.1908 30.9095C13.6084 31.7893 0.0102234 32.5275 0.0102234 32.5275V35.0152C0.0102234 35.0152 14.7926 33.8927 26.1908 32.9017V30.9146V30.9095Z"
    fill="white"
  />
<path
    d="M26.1908 27.0819C13.685 28.1083 0.00511169 28.983 0.00511169 28.983V31.5111C0.00511169 31.5111 14.9866 30.1662 26.1908 29.0336V27.0819Z"
    fill="white"
  />
<path
    d="M86.0759 66.2321V27.5876H27.7528V66.2321H86.0759ZM84.759 28.877V64.9377H29.0544V28.882H84.759V28.877Z"
    fill="white"
  />
<path d="M266.017 67.2475V28.0431H262.675V67.2475H266.017Z" fill="white" />
<path
    d="M149.677 33.6293C150.632 33.6293 152.214 33.7679 153.246 34.194C153.559 34.3327 153.677 34.4867 153.615 34.7999L153.441 35.6008C153.384 35.837 153.287 35.9345 152.932 35.8934C151.977 35.7754 150.807 35.6419 149.79 35.6419C147.136 35.6419 146.746 37.7879 146.746 40.3242C146.746 42.8605 147.233 44.8885 149.79 44.8885C150.92 44.8885 151.88 44.7704 152.932 44.6369C153.302 44.5958 153.379 44.6934 153.461 44.9501L153.615 45.6894C153.692 46.0026 153.595 46.1771 153.282 46.3158C152.327 46.7265 150.627 46.9011 149.672 46.9011C145.324 46.9011 144.405 43.682 144.405 40.3653C144.405 37.0486 145.226 33.6344 149.672 33.6344L149.677 33.6293Z"
    fill="white"
  />
<path
    d="M159.201 46.8701C155.279 46.8701 155.027 44.0052 155.027 41.777C155.027 39.9441 155.438 36.9612 159.201 36.9612C162.964 36.9612 163.514 39.4769 163.514 41.777C163.514 44.0771 163.242 46.8701 159.201 46.8701ZM159.222 38.8351C157.563 38.8351 157.194 39.8876 157.194 41.9156C157.194 43.9436 157.563 44.9961 159.201 44.9961C160.977 44.9961 161.327 44.0001 161.327 41.9156C161.327 39.8312 160.993 38.8351 159.222 38.8351Z"
    fill="white"
  />
<path
    d="M179.039 46.716H177.633C177.36 46.716 177.263 46.598 177.263 46.3464V40.8066C177.263 39.3639 176.914 38.9532 175.938 38.9532C175.214 38.9532 174.044 39.518 173.443 39.8311C173.443 40.0262 173.464 40.3754 173.464 40.8272V46.3464C173.464 46.5826 173.387 46.716 173.094 46.716H171.672C171.42 46.716 171.338 46.598 171.338 46.3464V40.7091C171.338 39.518 171.025 38.9532 170.049 38.9532C169.367 38.9532 168.273 39.4409 167.534 39.8311V46.3464C167.534 46.5826 167.436 46.716 167.164 46.716H165.757C165.506 46.716 165.408 46.598 165.408 46.3464V37.5464C165.408 37.2949 165.506 37.1562 165.757 37.1562H167.143C167.436 37.1562 167.534 37.3103 167.534 37.5464V38.1112L167.554 38.1317C168.314 37.6029 169.387 37.0228 170.46 36.9817C171.59 36.9817 172.529 37.2179 173.13 38.3474C174.105 37.6235 175.317 36.9817 176.565 36.9817C179.142 36.9817 179.394 38.6606 179.394 40.6115V46.3464C179.394 46.5826 179.317 46.716 179.044 46.716H179.039Z"
    fill="white"
  />
<path
    d="M195.114 46.716H193.708C193.436 46.716 193.338 46.598 193.338 46.3464V40.8066C193.338 39.3639 192.989 38.9532 192.013 38.9532C191.29 38.9532 190.119 39.518 189.518 39.8311C189.518 40.0262 189.539 40.3754 189.539 40.8272V46.3464C189.539 46.5826 189.462 46.716 189.169 46.716H187.747C187.495 46.716 187.413 46.598 187.413 46.3464V40.7091C187.413 39.518 187.1 38.9532 186.125 38.9532C185.442 38.9532 184.348 39.4409 183.609 39.8311V46.3464C183.609 46.5826 183.511 46.716 183.239 46.716H181.832C181.581 46.716 181.483 46.598 181.483 46.3464V37.5464C181.483 37.2949 181.581 37.1562 181.832 37.1562H183.219C183.511 37.1562 183.609 37.3103 183.609 37.5464V38.1112L183.629 38.1317C184.389 37.6029 185.462 37.0228 186.535 36.9817C187.665 36.9817 188.604 37.2179 189.205 38.3474C190.181 37.6235 191.387 36.9817 192.64 36.9817C195.217 36.9817 195.469 38.6606 195.469 40.6115V46.3464C195.469 46.5826 195.392 46.716 195.12 46.716H195.114Z"
    fill="white"
  />
<path
    d="M198.939 35.7546C197.923 35.7546 197.789 35.1899 197.789 34.6251C197.789 33.9987 198.005 33.511 198.939 33.511C199.874 33.511 200.089 33.9577 200.089 34.6251C200.089 35.2309 199.915 35.7546 198.939 35.7546ZM199.971 46.3464C199.971 46.562 199.894 46.716 199.622 46.716H198.236C197.964 46.716 197.846 46.5979 197.846 46.3464V37.531C197.846 37.2589 197.964 37.1614 198.236 37.1614H199.622C199.894 37.1614 199.971 37.3154 199.971 37.531V46.3464Z"
    fill="white"
  />
<path
    d="M205.593 46.8701C204.618 46.8701 203.309 46.7315 202.569 46.4388C202.179 46.2848 202.102 46.1051 202.159 45.7971L202.297 45.1553C202.354 44.8421 202.492 44.8216 202.806 44.8626C203.663 45.0013 204.911 45.0988 205.578 45.0988C206.826 45.0988 207.334 44.7651 207.334 43.9847C207.334 43.0862 207 42.8911 205.773 42.7166C203.863 42.4445 202.184 42.0337 202.184 39.9082C202.184 37.9777 203.668 36.9612 205.85 36.9612C206.651 36.9612 207.996 37.0793 208.818 37.3924C209.151 37.5311 209.285 37.6851 209.228 37.9777L209.074 38.6811C209.018 38.9532 208.9 38.9943 208.546 38.9532C207.709 38.8557 206.615 38.7376 205.891 38.7376C204.644 38.7376 204.351 39.0867 204.351 39.8312C204.351 40.5756 204.818 40.6886 206.009 40.8837C207.863 41.1558 209.542 41.5254 209.542 43.8512C209.542 46.177 207.611 46.8752 205.604 46.8752L205.593 46.8701Z"
    fill="white"
  />
<path
    d="M214.547 46.8701C213.572 46.8701 212.263 46.7315 211.523 46.4388C211.133 46.2848 211.056 46.1051 211.113 45.7971L211.251 45.1553C211.308 44.8421 211.446 44.8216 211.759 44.8626C212.617 45.0013 213.864 45.0988 214.532 45.0988C215.779 45.0988 216.288 44.7651 216.288 43.9847C216.288 43.0862 215.954 42.8911 214.727 42.7166C212.817 42.4445 211.138 42.0337 211.138 39.9082C211.138 37.9777 212.622 36.9612 214.804 36.9612C215.605 36.9612 216.95 37.0793 217.772 37.3924C218.105 37.5311 218.239 37.6851 218.182 37.9777L218.028 38.6811C217.972 38.9532 217.854 38.9943 217.499 38.9532C216.663 38.8557 215.569 38.7376 214.845 38.7376C213.597 38.7376 213.305 39.0867 213.305 39.8312C213.305 40.5756 213.772 40.6886 214.963 40.8837C216.817 41.1558 218.495 41.5254 218.495 43.8512C218.495 46.177 216.565 46.8752 214.558 46.8752L214.547 46.8701Z"
    fill="white"
  />
<path
    d="M221.668 35.7546C220.652 35.7546 220.518 35.1899 220.518 34.6251C220.518 33.9987 220.734 33.511 221.668 33.511C222.603 33.511 222.818 33.9577 222.818 34.6251C222.818 35.2309 222.644 35.7546 221.668 35.7546ZM222.7 46.3464C222.7 46.562 222.623 46.716 222.351 46.716H220.965C220.693 46.716 220.575 46.5979 220.575 46.3464V37.531C220.575 37.2589 220.693 37.1614 220.965 37.1614H222.351C222.623 37.1614 222.7 37.3154 222.7 37.531V46.3464Z"
    fill="white"
  />
<path
    d="M229.103 46.8701C225.18 46.8701 224.929 44.0052 224.929 41.777C224.929 39.9441 225.339 36.9612 229.103 36.9612C232.866 36.9612 233.415 39.4769 233.415 41.777C233.415 44.0771 233.143 46.8701 229.103 46.8701ZM229.123 38.8351C227.465 38.8351 227.095 39.8876 227.095 41.9156C227.095 43.9436 227.465 44.9961 229.103 44.9961C230.879 44.9961 231.228 44.0001 231.228 41.9156C231.228 39.8312 230.894 38.8351 229.123 38.8351Z"
    fill="white"
  />
<path
    d="M243.206 46.716H241.799C241.548 46.716 241.43 46.598 241.43 46.3464L241.45 40.8631C241.45 39.7131 241.178 38.9532 240.044 38.9532C239.263 38.9532 237.897 39.5796 237.369 39.8311V46.3464C237.369 46.5826 237.271 46.716 236.999 46.716H235.613C235.341 46.716 235.243 46.598 235.243 46.3464V37.5464C235.243 37.2949 235.341 37.1562 235.613 37.1562H236.999C237.271 37.1562 237.369 37.2949 237.369 37.5464V38.1317C237.369 38.1317 237.41 38.1523 237.425 38.1523C238.149 37.644 239.515 36.9817 240.701 36.9817C243.335 36.9817 243.566 38.717 243.566 40.6885V46.3464C243.566 46.5826 243.489 46.716 243.196 46.716H243.206Z"
    fill="white"
  />
<path
    d="M247.637 42.5213C247.693 44.4929 248.397 45.0371 249.999 45.0371C250.702 45.0371 251.796 44.8985 252.535 44.8214C252.884 44.7804 253.002 44.7804 253.064 45.1552L253.182 45.7969C253.238 46.0896 253.202 46.2436 252.848 46.4028C252.088 46.6954 250.666 46.8905 249.706 46.8905C245.979 46.8905 245.434 44.5134 245.434 41.9771C245.434 40.0826 245.783 36.9662 249.588 36.9662C253.079 36.9662 253.705 39.2304 253.762 41.3354C253.782 42.0387 253.587 42.5265 252.807 42.5265H247.637V42.5213ZM247.657 41.0581H251.518C251.518 39.867 251.205 38.7169 249.588 38.7169C248.145 38.7169 247.755 39.5949 247.657 41.0581Z"
    fill="white"
  />
<path
    d="M146.597 63.058C146.653 65.0295 147.356 65.5737 148.958 65.5737C149.662 65.5737 150.755 65.4351 151.495 65.3581C151.844 65.317 151.962 65.317 152.023 65.6918L152.141 66.3336C152.198 66.6262 152.162 66.7802 151.808 66.9394C151.048 67.232 149.626 67.4271 148.666 67.4271C144.938 67.4271 144.394 65.05 144.394 62.5137C144.394 60.6192 144.743 57.5028 148.548 57.5028C152.039 57.5028 152.665 59.767 152.722 61.872C152.742 62.5754 152.547 63.0631 151.767 63.0631H146.597V63.058ZM146.617 61.5947H150.478C150.478 60.4036 150.165 59.2535 148.548 59.2535C147.105 59.2535 146.715 60.1315 146.617 61.5947Z"
    fill="white"
  />
<path
    d="M162.4 67.2527H161.013C160.721 67.2527 160.644 67.114 160.644 66.883V66.2772L160.603 66.2566C159.843 66.7855 158.513 67.4272 157.327 67.4272C154.693 67.4272 154.442 65.8664 154.442 63.8179V58.0831C154.442 57.8469 154.539 57.6929 154.811 57.6929H156.234C156.485 57.6929 156.583 57.8315 156.583 58.0831V63.5663C156.583 64.7369 156.819 65.4763 158.005 65.4763C158.842 65.4763 160.13 64.8499 160.639 64.5983V58.0831C160.639 57.8469 160.716 57.6929 161.008 57.6929H162.395C162.667 57.6929 162.764 57.8315 162.764 58.0831V66.883C162.764 67.1346 162.667 67.2527 162.395 67.2527H162.4Z"
    fill="white"
  />
<path
    d="M167.354 66.883C167.354 67.1192 167.257 67.2527 166.985 67.2527H165.583C165.311 67.2527 165.213 67.1346 165.213 66.883V58.083C165.213 57.8315 165.311 57.6929 165.583 57.6929H166.969C167.262 57.6929 167.359 57.8469 167.359 58.083V58.9404L167.401 58.9815C167.986 58.4373 169.372 57.7699 170.286 57.5953C170.537 57.5388 170.717 57.5953 170.753 57.929L170.892 59.2382C170.912 59.5103 170.933 59.6284 170.522 59.7054C169.428 59.9211 168.042 60.3113 167.359 60.6039V66.883H167.354Z"
    fill="white"
  />
<path
    d="M175.938 67.4068C172.016 67.4068 171.764 64.542 171.764 62.3138C171.764 60.4809 172.175 57.4979 175.938 57.4979C179.702 57.4979 180.251 60.0137 180.251 62.3138C180.251 64.6139 179.979 67.4068 175.938 67.4068ZM175.959 59.3719C174.301 59.3719 173.931 60.4244 173.931 62.4524C173.931 64.4804 174.301 65.5329 175.938 65.5329C177.715 65.5329 178.064 64.5369 178.064 62.4524C178.064 60.3679 177.73 59.3719 175.959 59.3719Z"
    fill="white"
  />
<path
    d="M186.71 67.4274C186.068 67.4274 185.17 67.3094 184.271 66.9962L184.251 67.0167V70.4515C184.251 70.6671 184.194 70.8417 183.881 70.8417H182.495C182.182 70.8417 182.125 70.703 182.125 70.4515V58.0833C182.125 57.8317 182.223 57.6931 182.495 57.6931H183.881C184.153 57.6931 184.23 57.8471 184.23 58.0833V58.6686L184.287 58.7096C184.99 58.2219 186.238 57.5391 187.367 57.5391C189.924 57.5391 190.586 59.4695 190.586 62.4165C190.586 65.5946 189.785 67.4274 186.705 67.4274H186.71ZM186.864 59.49C186.063 59.49 184.836 60.0548 184.251 60.368V65.2454C185.129 65.497 185.832 65.5792 186.494 65.5792C187.901 65.5792 188.389 64.8552 188.389 62.4011C188.389 59.947 187.901 59.4952 186.869 59.4952L186.864 59.49Z"
    fill="white"
  />
<path
    d="M194.339 63.058C194.396 65.0295 195.099 65.5737 196.701 65.5737C197.404 65.5737 198.498 65.4351 199.237 65.3581C199.586 65.317 199.704 65.317 199.766 65.6918L199.884 66.3336C199.941 66.6262 199.905 66.7802 199.55 66.9394C198.791 67.232 197.368 67.4271 196.408 67.4271C192.681 67.4271 192.137 65.05 192.137 62.5137C192.137 60.6192 192.486 57.5028 196.29 57.5028C199.781 57.5028 200.408 59.767 200.464 61.872C200.485 62.5754 200.29 63.0631 199.509 63.0631H194.339V63.058ZM194.36 61.5947H198.221C198.221 60.4036 197.908 59.2535 196.29 59.2535C194.848 59.2535 194.457 60.1315 194.36 61.5947Z"
    fill="white"
  />
<path
    d="M208.268 66.1435C207.293 66.8828 205.984 67.4116 204.68 67.4116C202.61 67.4116 202.005 66.2821 202.005 64.6443C201.984 62.3596 203.216 61.3841 205.67 61.3841H208.166V60.8758C208.166 59.7053 207.734 59.2945 206.138 59.2945C205.496 59.2945 204.264 59.3921 203.483 59.4691C203.093 59.5256 202.996 59.5102 202.939 59.2329L202.764 58.509C202.723 58.2574 202.785 58.0983 203.211 57.9237C204.048 57.6311 205.593 57.4924 206.507 57.4924C209.88 57.4924 210.291 58.8787 210.291 61.0607V64.824C210.291 65.6249 210.389 65.6455 210.995 65.7225C211.287 65.743 211.364 65.7995 211.364 66.0151V66.8366C211.364 67.0522 211.226 67.1857 210.897 67.2473C210.584 67.3038 210.271 67.3449 209.978 67.3449C209.059 67.3449 208.494 67.0728 208.299 66.1537L208.258 66.1332L208.268 66.1435ZM208.15 62.9038H205.768C204.792 62.9038 204.166 63.253 204.166 64.5416C204.166 65.399 204.459 65.6711 205.378 65.6711C206.215 65.6711 207.406 65.1834 208.15 64.7521V62.8987V62.9038Z"
    fill="white"
  />
</svg>
