<svg
  width="291"
  height="72"
  viewBox="0 0 291 72"
  fill="none"
  xmlns="http://www.w3.org/2000/svg"
>
<path
    d="M144.894 33.323C144.894 33.0564 145.027 32.923 145.294 32.923H152.654C152.907 32.923 153.034 33.0497 153.034 33.303V34.543C153.034 34.783 152.901 34.903 152.634 34.903H147.174V38.343H152.014C152.281 38.343 152.414 38.463 152.414 38.703V39.943C152.414 40.183 152.281 40.303 152.014 40.303H147.174V44.243H152.774C153.014 44.243 153.134 44.3697 153.134 44.623V45.843C153.134 46.083 153.007 46.203 152.754 46.203H145.294C145.027 46.203 144.894 46.083 144.894 45.843V33.323Z"
    fill="white"
  />
<path
    d="M163.601 45.823C163.601 46.0764 163.474 46.203 163.221 46.203H161.801C161.654 46.203 161.554 46.1697 161.501 46.103C161.447 46.0364 161.421 45.943 161.421 45.823V45.203L161.381 45.183C161.181 45.3164 160.947 45.4564 160.681 45.603C160.427 45.7364 160.154 45.863 159.861 45.983C159.567 46.103 159.261 46.1964 158.941 46.263C158.634 46.343 158.327 46.383 158.021 46.383C157.341 46.383 156.801 46.2897 156.401 46.103C156.014 45.9164 155.721 45.6564 155.521 45.323C155.321 44.9897 155.194 44.5964 155.141 44.143C155.087 43.6897 155.061 43.203 155.061 42.683V36.803C155.061 36.5364 155.187 36.403 155.441 36.403H156.901C157.141 36.403 157.261 36.5364 157.261 36.803V42.423C157.261 42.7297 157.281 43.003 157.321 43.243C157.361 43.483 157.434 43.6897 157.541 43.863C157.647 44.023 157.794 44.1497 157.981 44.243C158.167 44.3364 158.414 44.383 158.721 44.383C158.934 44.383 159.167 44.3497 159.421 44.283C159.687 44.2164 159.947 44.1364 160.201 44.043C160.454 43.9364 160.687 43.8364 160.901 43.743C161.114 43.6364 161.287 43.5497 161.421 43.483V36.803C161.421 36.683 161.447 36.5897 161.501 36.523C161.554 36.443 161.654 36.403 161.801 36.403H163.221C163.474 36.403 163.601 36.5364 163.601 36.803V45.823Z"
    fill="white"
  />
<path
    d="M168.306 45.823C168.306 46.0764 168.179 46.203 167.926 46.203H166.486C166.232 46.203 166.106 46.0764 166.106 45.823V36.803C166.106 36.5364 166.232 36.403 166.486 36.403H167.906C168.172 36.403 168.306 36.5364 168.306 36.803V37.683L168.346 37.723C168.492 37.5897 168.686 37.4497 168.926 37.303C169.166 37.143 169.419 37.003 169.686 36.883C169.966 36.7497 170.246 36.6297 170.526 36.523C170.806 36.4164 171.066 36.343 171.306 36.303C171.439 36.2764 171.546 36.283 171.626 36.323C171.706 36.363 171.759 36.4697 171.786 36.643L171.926 37.983C171.939 38.1297 171.932 38.2364 171.906 38.303C171.879 38.3697 171.759 38.423 171.546 38.463C171.266 38.5164 170.972 38.583 170.666 38.663C170.359 38.7297 170.059 38.8097 169.766 38.903C169.472 38.983 169.199 39.063 168.946 39.143C168.692 39.223 168.479 39.303 168.306 39.383V45.823Z"
    fill="white"
  />
<path
    d="M181.531 41.143C181.531 41.7164 181.491 42.3097 181.411 42.923C181.344 43.5364 181.164 44.103 180.871 44.623C180.577 45.1297 180.137 45.5497 179.551 45.883C178.964 46.203 178.151 46.363 177.111 46.363C176.111 46.363 175.324 46.203 174.751 45.883C174.177 45.5497 173.744 45.1297 173.451 44.623C173.171 44.103 172.997 43.5364 172.931 42.923C172.864 42.3097 172.831 41.7164 172.831 41.143C172.831 40.6764 172.871 40.1564 172.951 39.583C173.044 39.0097 173.237 38.4764 173.531 37.983C173.824 37.4764 174.251 37.0564 174.811 36.723C175.384 36.3764 176.151 36.203 177.111 36.203C178.084 36.203 178.857 36.3497 179.431 36.643C180.017 36.9364 180.464 37.323 180.771 37.803C181.077 38.2697 181.277 38.7964 181.371 39.383C181.477 39.9697 181.531 40.5564 181.531 41.143ZM179.291 41.283C179.291 40.7497 179.264 40.2897 179.211 39.903C179.157 39.503 179.051 39.1764 178.891 38.923C178.731 38.6564 178.511 38.4564 178.231 38.323C177.951 38.1897 177.584 38.123 177.131 38.123C176.704 38.123 176.357 38.1897 176.091 38.323C175.824 38.4564 175.611 38.6564 175.451 38.923C175.304 39.1897 175.197 39.523 175.131 39.923C175.077 40.3097 175.051 40.763 175.051 41.283C175.051 41.8164 175.077 42.283 175.131 42.683C175.197 43.0697 175.304 43.3964 175.451 43.663C175.597 43.9164 175.804 44.1097 176.071 44.243C176.337 44.3764 176.684 44.443 177.111 44.443C177.564 44.443 177.931 44.383 178.211 44.263C178.504 44.1297 178.731 43.9364 178.891 43.683C179.051 43.4164 179.157 43.083 179.211 42.683C179.264 42.283 179.291 41.8164 179.291 41.283Z"
    fill="white"
  />
<path
    d="M192.139 41.243C192.139 42.0564 192.079 42.783 191.959 43.423C191.839 44.063 191.626 44.603 191.319 45.043C191.026 45.483 190.619 45.8164 190.099 46.043C189.593 46.2697 188.946 46.383 188.159 46.383C187.826 46.383 187.439 46.3497 186.999 46.283C186.573 46.2164 186.126 46.103 185.659 45.943L185.639 45.963V49.483C185.639 49.5897 185.613 49.683 185.559 49.763C185.519 49.843 185.419 49.883 185.259 49.883H183.839C183.679 49.883 183.573 49.8497 183.519 49.783C183.479 49.7164 183.459 49.6164 183.459 49.483V36.803C183.459 36.5364 183.586 36.403 183.839 36.403H185.259C185.406 36.403 185.499 36.443 185.539 36.523C185.593 36.5897 185.619 36.683 185.619 36.803V37.403L185.679 37.443C185.853 37.323 186.059 37.1964 186.299 37.063C186.553 36.9164 186.819 36.783 187.099 36.663C187.379 36.543 187.666 36.443 187.959 36.363C188.253 36.283 188.546 36.243 188.839 36.243C189.493 36.243 190.033 36.363 190.459 36.603C190.886 36.843 191.219 37.183 191.459 37.623C191.713 38.0497 191.886 38.5697 191.979 39.183C192.086 39.7964 192.139 40.483 192.139 41.243ZM189.879 41.223C189.879 40.583 189.846 40.0697 189.779 39.683C189.726 39.2964 189.633 38.9964 189.499 38.783C189.366 38.5697 189.199 38.4297 188.999 38.363C188.813 38.283 188.586 38.243 188.319 38.243C188.119 38.243 187.893 38.2764 187.639 38.343C187.386 38.4097 187.133 38.4897 186.879 38.583C186.639 38.663 186.406 38.7564 186.179 38.863C185.966 38.9697 185.786 39.063 185.639 39.143V44.143C186.093 44.2764 186.499 44.3697 186.859 44.423C187.233 44.463 187.593 44.483 187.939 44.483C188.299 44.483 188.599 44.4364 188.839 44.343C189.093 44.2364 189.293 44.0564 189.439 43.803C189.599 43.5497 189.713 43.2164 189.779 42.803C189.846 42.3764 189.879 41.8497 189.879 41.223Z"
    fill="white"
  />
<path
    d="M199.989 41.743H197.549C197.042 41.743 196.643 41.863 196.349 42.103C196.056 42.3297 195.909 42.7697 195.909 43.423C195.909 43.863 195.996 44.1697 196.169 44.343C196.356 44.503 196.682 44.583 197.149 44.583C197.362 44.583 197.596 44.5564 197.849 44.503C198.103 44.4497 198.356 44.3764 198.609 44.283C198.863 44.1897 199.109 44.0897 199.349 43.983C199.589 43.863 199.802 43.7497 199.989 43.643V41.743ZM200.109 45.063C199.602 45.4497 199.029 45.763 198.389 46.003C197.763 46.243 197.109 46.363 196.429 46.363C195.896 46.363 195.449 46.2964 195.089 46.163C194.742 46.0164 194.463 45.823 194.249 45.583C194.049 45.3297 193.903 45.0297 193.809 44.683C193.729 44.3364 193.689 43.9497 193.689 43.523C193.676 42.3497 193.982 41.503 194.609 40.983C195.236 40.4497 196.182 40.183 197.449 40.183H200.009V39.663C200.009 39.3697 199.976 39.123 199.909 38.923C199.856 38.7097 199.749 38.5364 199.589 38.403C199.429 38.2697 199.216 38.1764 198.949 38.123C198.682 38.0697 198.343 38.043 197.929 38.043C197.769 38.043 197.569 38.0497 197.329 38.063C197.102 38.0764 196.862 38.0897 196.609 38.103C196.369 38.1164 196.122 38.1364 195.869 38.163C195.629 38.1897 195.409 38.2097 195.209 38.223C195.009 38.2497 194.869 38.2564 194.789 38.243C194.722 38.2164 194.676 38.1297 194.649 37.983L194.469 37.243C194.442 37.1097 194.456 37.003 194.509 36.923C194.562 36.8297 194.703 36.7364 194.929 36.643C195.143 36.563 195.396 36.4964 195.689 36.443C195.982 36.3897 196.282 36.3497 196.589 36.323C196.896 36.283 197.196 36.2564 197.489 36.243C197.796 36.2164 198.069 36.203 198.309 36.203C199.176 36.203 199.862 36.2897 200.369 36.463C200.889 36.6364 201.282 36.883 201.549 37.203C201.816 37.5097 201.989 37.8897 202.069 38.343C202.149 38.7964 202.189 39.303 202.189 39.863V43.723C202.189 43.923 202.196 44.083 202.209 44.203C202.236 44.3097 202.269 44.3964 202.309 44.463C202.362 44.5164 202.436 44.5564 202.529 44.583C202.623 44.6097 202.749 44.6297 202.909 44.643C203.056 44.6564 203.156 44.683 203.209 44.723C203.263 44.763 203.289 44.8364 203.289 44.943V45.783C203.289 46.0097 203.129 46.1497 202.809 46.203C202.649 46.2297 202.489 46.2497 202.329 46.263C202.169 46.2897 202.016 46.303 201.869 46.303C201.402 46.303 201.022 46.2164 200.729 46.043C200.449 45.8697 200.256 45.5497 200.149 45.083L200.109 45.063ZM196.489 35.063C196.236 35.063 196.036 35.0364 195.889 34.983C195.743 34.9164 195.629 34.8297 195.549 34.723C195.469 34.6164 195.416 34.4964 195.389 34.363C195.376 34.2297 195.369 34.0897 195.369 33.943C195.369 33.6364 195.436 33.383 195.569 33.183C195.716 32.983 196.022 32.883 196.489 32.883C196.956 32.883 197.256 32.983 197.389 33.183C197.523 33.3697 197.589 33.623 197.589 33.943C197.589 34.2497 197.523 34.5164 197.389 34.743C197.256 34.9564 196.956 35.063 196.489 35.063ZM200.369 35.063C199.889 35.063 199.582 34.9497 199.449 34.723C199.329 34.4964 199.269 34.2364 199.269 33.943C199.269 33.6364 199.342 33.383 199.489 33.183C199.636 32.983 199.929 32.883 200.369 32.883C200.836 32.883 201.136 32.983 201.269 33.183C201.416 33.3697 201.489 33.623 201.489 33.943C201.489 34.2497 201.422 34.5164 201.289 34.743C201.156 34.9564 200.849 35.063 200.369 35.063Z"
    fill="white"
  />
<path
    d="M206.79 41.903C206.803 42.4097 206.857 42.8297 206.95 43.163C207.057 43.4964 207.21 43.763 207.41 43.963C207.61 44.1497 207.857 44.283 208.15 44.363C208.443 44.443 208.797 44.483 209.21 44.483C209.57 44.483 209.997 44.4564 210.49 44.403C210.983 44.3497 211.423 44.303 211.81 44.263C211.997 44.2364 212.123 44.243 212.19 44.283C212.27 44.3097 212.323 44.4164 212.35 44.603L212.47 45.263C212.497 45.4097 212.49 45.5297 212.45 45.623C212.423 45.7164 212.317 45.803 212.13 45.883C211.93 45.963 211.697 46.0364 211.43 46.103C211.163 46.1564 210.883 46.203 210.59 46.243C210.297 46.283 210.003 46.3164 209.71 46.343C209.417 46.3697 209.15 46.383 208.91 46.383C207.95 46.383 207.183 46.243 206.61 45.963C206.037 45.683 205.597 45.3097 205.29 44.843C204.983 44.3764 204.777 43.843 204.67 43.243C204.577 42.6297 204.53 41.9964 204.53 41.343C204.53 40.863 204.57 40.323 204.65 39.723C204.73 39.123 204.91 38.563 205.19 38.043C205.483 37.523 205.91 37.0897 206.47 36.743C207.043 36.383 207.817 36.203 208.79 36.203C209.683 36.203 210.403 36.3364 210.95 36.603C211.51 36.8697 211.943 37.2164 212.25 37.643C212.557 38.0564 212.763 38.5364 212.87 39.083C212.99 39.6164 213.057 40.1497 213.07 40.683C213.083 41.043 213.023 41.3364 212.89 41.563C212.757 41.7897 212.49 41.903 212.09 41.903H206.79ZM208.79 38.003C208.417 38.003 208.11 38.0564 207.87 38.163C207.63 38.2697 207.43 38.4297 207.27 38.643C207.123 38.843 207.017 39.0964 206.95 39.403C206.883 39.6964 206.837 40.0297 206.81 40.403H210.77C210.77 40.0964 210.743 39.803 210.69 39.523C210.637 39.2297 210.537 38.9697 210.39 38.743C210.257 38.5164 210.057 38.3364 209.79 38.203C209.537 38.0697 209.203 38.003 208.79 38.003Z"
    fill="white"
  />
<path
    d="M222.206 43.263C222.206 43.8497 222.093 44.343 221.866 44.743C221.64 45.1297 221.333 45.443 220.946 45.683C220.573 45.923 220.146 46.0964 219.666 46.203C219.186 46.3097 218.686 46.363 218.166 46.363C217.66 46.363 217.113 46.323 216.526 46.243C215.94 46.1764 215.453 46.0697 215.066 45.923C214.866 45.843 214.74 45.7564 214.686 45.663C214.633 45.5564 214.62 45.423 214.646 45.263L214.786 44.603C214.813 44.443 214.866 44.3497 214.946 44.323C215.026 44.283 215.146 44.2764 215.306 44.303C215.52 44.343 215.753 44.3764 216.006 44.403C216.273 44.4297 216.533 44.4564 216.786 44.483C217.053 44.4964 217.3 44.5097 217.526 44.523C217.766 44.5364 217.973 44.543 218.146 44.543C218.786 44.543 219.246 44.4564 219.526 44.283C219.806 44.0964 219.946 43.803 219.946 43.403C219.946 43.1764 219.92 42.9897 219.866 42.843C219.826 42.6964 219.746 42.5764 219.626 42.483C219.506 42.3897 219.34 42.3164 219.126 42.263C218.926 42.1964 218.666 42.143 218.346 42.103C217.853 42.0364 217.386 41.9497 216.946 41.843C216.506 41.7364 216.113 41.583 215.766 41.383C215.433 41.1697 215.166 40.8964 214.966 40.563C214.766 40.2164 214.666 39.7697 214.666 39.223C214.666 38.2364 215.013 37.4897 215.706 36.983C216.4 36.463 217.306 36.203 218.426 36.203C218.626 36.203 218.86 36.2097 219.126 36.223C219.393 36.2364 219.66 36.263 219.926 36.303C220.206 36.343 220.48 36.3897 220.746 36.443C221.013 36.4964 221.253 36.563 221.466 36.643C221.8 36.7764 221.94 36.9764 221.886 37.243L221.726 37.963C221.7 38.1097 221.646 38.203 221.566 38.243C221.5 38.2697 221.373 38.2697 221.186 38.243C220.76 38.1897 220.293 38.143 219.786 38.103C219.28 38.0497 218.84 38.023 218.466 38.023C217.826 38.023 217.4 38.1164 217.186 38.303C216.986 38.4764 216.886 38.7564 216.886 39.143C216.886 39.5297 217.013 39.783 217.266 39.903C217.533 40.023 217.973 40.1297 218.586 40.223C219.066 40.2897 219.52 40.3764 219.946 40.483C220.386 40.5897 220.773 40.7497 221.106 40.963C221.44 41.1764 221.706 41.463 221.906 41.823C222.106 42.183 222.206 42.663 222.206 43.263Z"
    fill="white"
  />
<path
    d="M231.506 45.283C231.546 45.4297 231.546 45.5497 231.506 45.643C231.466 45.7364 231.353 45.823 231.166 45.903C230.779 46.063 230.299 46.1764 229.726 46.243C229.153 46.323 228.619 46.363 228.126 46.363C227.193 46.363 226.439 46.223 225.866 45.943C225.306 45.663 224.873 45.2897 224.566 44.823C224.273 44.3564 224.079 43.8164 223.986 43.203C223.893 42.5764 223.846 41.923 223.846 41.243C223.846 40.6297 223.893 40.023 223.986 39.423C224.093 38.8097 224.293 38.2697 224.586 37.803C224.893 37.323 225.326 36.9364 225.886 36.643C226.459 36.3497 227.206 36.203 228.126 36.203C228.353 36.203 228.599 36.2097 228.866 36.223C229.146 36.2364 229.419 36.263 229.686 36.303C229.966 36.343 230.233 36.3964 230.486 36.463C230.753 36.5164 230.993 36.5897 231.206 36.683C231.446 36.7897 231.546 36.9764 231.506 37.243L231.366 38.043C231.326 38.1897 231.259 38.2764 231.166 38.303C231.073 38.3297 230.933 38.3364 230.746 38.323C230.333 38.283 229.906 38.243 229.466 38.203C229.039 38.163 228.653 38.143 228.306 38.143C227.493 38.143 226.926 38.3764 226.606 38.843C226.286 39.3097 226.126 40.0964 226.126 41.203C226.126 41.8297 226.159 42.3497 226.226 42.763C226.306 43.1764 226.433 43.5097 226.606 43.763C226.779 44.0164 226.999 44.1964 227.266 44.303C227.546 44.3964 227.886 44.443 228.286 44.443C228.593 44.443 228.993 44.4297 229.486 44.403C229.993 44.363 230.453 44.3164 230.866 44.263C231.026 44.2364 231.146 44.2364 231.226 44.263C231.306 44.2897 231.359 44.3897 231.386 44.563L231.506 45.283Z"
    fill="white"
  />
<path
    d="M241.531 45.823C241.531 46.0764 241.397 46.203 241.131 46.203H239.711C239.444 46.203 239.311 46.0764 239.311 45.823C239.311 44.8497 239.311 43.8897 239.311 42.943C239.324 41.983 239.331 41.0164 239.331 40.043C239.331 39.483 239.237 39.0364 239.051 38.703C238.877 38.3564 238.491 38.183 237.891 38.183C237.691 38.183 237.457 38.223 237.191 38.303C236.937 38.3697 236.677 38.4497 236.411 38.543C236.157 38.6364 235.917 38.7364 235.691 38.843C235.464 38.9497 235.284 39.0297 235.151 39.083V45.823C235.151 45.943 235.124 46.0364 235.071 46.103C235.017 46.1697 234.917 46.203 234.771 46.203H233.351C233.111 46.203 232.991 46.0764 232.991 45.823V32.483C232.991 32.2297 233.111 32.103 233.351 32.103H234.771C235.037 32.103 235.171 32.2297 235.171 32.483V37.323C235.344 37.2164 235.557 37.103 235.811 36.983C236.064 36.8497 236.337 36.7297 236.631 36.623C236.924 36.503 237.231 36.4097 237.551 36.343C237.871 36.263 238.184 36.223 238.491 36.223C239.184 36.223 239.731 36.3297 240.131 36.543C240.531 36.743 240.831 37.0164 241.031 37.363C241.244 37.7097 241.377 38.1164 241.431 38.583C241.497 39.0364 241.531 39.5164 241.531 40.023V45.823Z"
    fill="white"
  />
<path
    d="M147.194 59.3231L148.714 57.3631L152.074 53.2231C152.167 53.1164 152.261 53.0431 152.354 53.0031C152.447 52.9498 152.574 52.9231 152.734 52.9231H154.554C154.701 52.9231 154.787 52.9631 154.814 53.0431C154.854 53.1231 154.827 53.2164 154.734 53.3231L150.394 58.6031L154.874 65.7831C154.954 65.9164 154.967 66.0231 154.914 66.1031C154.861 66.1698 154.781 66.2031 154.674 66.2031H152.834C152.661 66.2031 152.527 66.1698 152.434 66.1031C152.354 66.0364 152.274 65.9431 152.194 65.8231L148.914 60.3831L147.154 62.5631V65.8231C147.154 65.9298 147.127 66.0231 147.074 66.1031C147.034 66.1698 146.941 66.2031 146.794 66.2031H145.294C145.027 66.2031 144.894 66.0764 144.894 65.8231V53.3231C144.894 53.0564 145.027 52.9231 145.294 52.9231H146.794C146.941 52.9231 147.034 52.9631 147.074 53.0431C147.127 53.1098 147.154 53.2031 147.154 53.3231V59.3231H147.194Z"
    fill="white"
  />
<path
    d="M164.756 61.1431C164.756 61.7164 164.716 62.3098 164.636 62.9231C164.569 63.5364 164.389 64.1031 164.096 64.6231C163.802 65.1298 163.362 65.5498 162.776 65.8831C162.189 66.2031 161.376 66.3631 160.336 66.3631C159.336 66.3631 158.549 66.2031 157.976 65.8831C157.402 65.5498 156.969 65.1298 156.676 64.6231C156.396 64.1031 156.222 63.5364 156.156 62.9231C156.089 62.3098 156.056 61.7164 156.056 61.1431C156.056 60.6764 156.096 60.1564 156.176 59.5831C156.269 59.0098 156.462 58.4764 156.756 57.9831C157.049 57.4764 157.476 57.0564 158.036 56.7231C158.609 56.3764 159.376 56.2031 160.336 56.2031C161.309 56.2031 162.082 56.3498 162.656 56.6431C163.242 56.9364 163.689 57.3231 163.996 57.8031C164.302 58.2698 164.502 58.7964 164.596 59.3831C164.702 59.9698 164.756 60.5564 164.756 61.1431ZM162.516 61.2831C162.516 60.7498 162.489 60.2898 162.436 59.9031C162.382 59.5031 162.276 59.1764 162.116 58.9231C161.956 58.6564 161.736 58.4564 161.456 58.3231C161.176 58.1898 160.809 58.1231 160.356 58.1231C159.929 58.1231 159.582 58.1898 159.316 58.3231C159.049 58.4564 158.836 58.6564 158.676 58.9231C158.529 59.1898 158.422 59.5231 158.356 59.9231C158.302 60.3098 158.276 60.7631 158.276 61.2831C158.276 61.8164 158.302 62.2831 158.356 62.6831C158.422 63.0698 158.529 63.3964 158.676 63.6631C158.822 63.9164 159.029 64.1098 159.296 64.2431C159.562 64.3764 159.909 64.4431 160.336 64.4431C160.789 64.4431 161.156 64.3831 161.436 64.2631C161.729 64.1298 161.956 63.9364 162.116 63.6831C162.276 63.4164 162.382 63.0831 162.436 62.6831C162.489 62.2831 162.516 61.8164 162.516 61.2831Z"
    fill="white"
  />
<path
    d="M181.044 65.8231C181.044 65.9431 181.018 66.0364 180.964 66.1031C180.924 66.1698 180.831 66.2031 180.684 66.2031H179.244C178.991 66.2031 178.864 66.0764 178.864 65.8231V60.1431C178.864 59.3964 178.764 58.8964 178.564 58.6431C178.364 58.3764 178.011 58.2431 177.504 58.2431C177.318 58.2431 177.104 58.2764 176.864 58.3431C176.638 58.4098 176.404 58.4898 176.164 58.5831C175.938 58.6631 175.718 58.7564 175.504 58.8631C175.291 58.9698 175.104 59.0631 174.944 59.1431C174.944 59.2498 174.944 59.3898 174.944 59.5631C174.958 59.7364 174.964 59.9364 174.964 60.1631V65.8231C174.964 65.9431 174.938 66.0364 174.884 66.1031C174.831 66.1698 174.731 66.2031 174.584 66.2031H173.124C172.898 66.2031 172.784 66.0764 172.784 65.8231V60.0431C172.784 59.4298 172.691 58.9764 172.504 58.6831C172.318 58.3898 171.971 58.2431 171.464 58.2431C171.291 58.2431 171.091 58.2698 170.864 58.3231C170.651 58.3764 170.424 58.4498 170.184 58.5431C169.958 58.6364 169.731 58.7364 169.504 58.8431C169.278 58.9498 169.071 59.0498 168.884 59.1431V65.8231C168.884 66.0764 168.758 66.2031 168.504 66.2031H167.064C166.824 66.2031 166.704 66.0764 166.704 65.8231V56.8031C166.704 56.5364 166.824 56.4031 167.064 56.4031H168.484C168.751 56.4031 168.884 56.5364 168.884 56.8031V57.3831L168.904 57.4031C169.104 57.2698 169.318 57.1364 169.544 57.0031C169.771 56.8564 170.011 56.7298 170.264 56.6231C170.531 56.5164 170.798 56.4298 171.064 56.3631C171.331 56.2831 171.604 56.2364 171.884 56.2231C172.458 56.2231 172.978 56.3164 173.444 56.5031C173.924 56.6764 174.318 57.0498 174.624 57.6231C175.131 57.2498 175.684 56.9231 176.284 56.6431C176.884 56.3631 177.504 56.2231 178.144 56.2231C178.798 56.2231 179.318 56.3231 179.704 56.5231C180.091 56.7231 180.384 56.9964 180.584 57.3431C180.784 57.6764 180.911 58.0698 180.964 58.5231C181.018 58.9764 181.044 59.4498 181.044 59.9431V65.8231Z"
    fill="white"
  />
<path
    d="M197.529 65.8231C197.529 65.9431 197.502 66.0364 197.449 66.1031C197.409 66.1698 197.316 66.2031 197.169 66.2031H195.729C195.476 66.2031 195.349 66.0764 195.349 65.8231V60.1431C195.349 59.3964 195.249 58.8964 195.049 58.6431C194.849 58.3764 194.496 58.2431 193.989 58.2431C193.802 58.2431 193.589 58.2764 193.349 58.3431C193.122 58.4098 192.889 58.4898 192.649 58.5831C192.422 58.6631 192.202 58.7564 191.989 58.8631C191.776 58.9698 191.589 59.0631 191.429 59.1431C191.429 59.2498 191.429 59.3898 191.429 59.5631C191.442 59.7364 191.449 59.9364 191.449 60.1631V65.8231C191.449 65.9431 191.422 66.0364 191.369 66.1031C191.316 66.1698 191.216 66.2031 191.069 66.2031H189.609C189.382 66.2031 189.269 66.0764 189.269 65.8231V60.0431C189.269 59.4298 189.176 58.9764 188.989 58.6831C188.802 58.3898 188.456 58.2431 187.949 58.2431C187.776 58.2431 187.576 58.2698 187.349 58.3231C187.136 58.3764 186.909 58.4498 186.669 58.5431C186.442 58.6364 186.216 58.7364 185.989 58.8431C185.762 58.9498 185.556 59.0498 185.369 59.1431V65.8231C185.369 66.0764 185.242 66.2031 184.989 66.2031H183.549C183.309 66.2031 183.189 66.0764 183.189 65.8231V56.8031C183.189 56.5364 183.309 56.4031 183.549 56.4031H184.969C185.236 56.4031 185.369 56.5364 185.369 56.8031V57.3831L185.389 57.4031C185.589 57.2698 185.802 57.1364 186.029 57.0031C186.256 56.8564 186.496 56.7298 186.749 56.6231C187.016 56.5164 187.282 56.4298 187.549 56.3631C187.816 56.2831 188.089 56.2364 188.369 56.2231C188.942 56.2231 189.462 56.3164 189.929 56.5031C190.409 56.6764 190.802 57.0498 191.109 57.6231C191.616 57.2498 192.169 56.9231 192.769 56.6431C193.369 56.3631 193.989 56.2231 194.629 56.2231C195.282 56.2231 195.802 56.3231 196.189 56.5231C196.576 56.7231 196.869 56.9964 197.069 57.3431C197.269 57.6764 197.396 58.0698 197.449 58.5231C197.502 58.9764 197.529 59.4498 197.529 59.9431V65.8231Z"
    fill="white"
  />
<path
    d="M202.273 53.8031C202.273 53.9631 202.26 54.1164 202.233 54.2631C202.207 54.3964 202.147 54.5164 202.053 54.6231C201.973 54.7298 201.853 54.8164 201.693 54.8831C201.547 54.9364 201.347 54.9631 201.093 54.9631C200.827 54.9631 200.613 54.9298 200.453 54.8631C200.307 54.7964 200.193 54.7098 200.113 54.6031C200.033 54.4964 199.98 54.3764 199.953 54.2431C199.927 54.0964 199.913 53.9498 199.913 53.8031C199.913 53.4831 199.987 53.2164 200.133 53.0031C200.293 52.7764 200.613 52.6631 201.093 52.6631C201.587 52.6631 201.907 52.7698 202.053 52.9831C202.2 53.1831 202.273 53.4564 202.273 53.8031ZM202.153 65.8231C202.153 65.9298 202.127 66.0231 202.073 66.1031C202.033 66.1698 201.94 66.2031 201.793 66.2031H200.373C200.107 66.2031 199.973 66.0764 199.973 65.8231V56.7831C199.973 56.5298 200.107 56.4031 200.373 56.4031H201.793C201.94 56.4031 202.033 56.4431 202.073 56.5231C202.127 56.5898 202.153 56.6764 202.153 56.7831V65.8231Z"
    fill="white"
  />
<path
    d="M211.955 63.2631C211.955 63.8498 211.841 64.3431 211.615 64.7431C211.388 65.1298 211.081 65.4431 210.695 65.6831C210.321 65.9231 209.895 66.0964 209.415 66.2031C208.935 66.3098 208.435 66.3631 207.915 66.3631C207.408 66.3631 206.861 66.3231 206.275 66.2431C205.688 66.1764 205.201 66.0698 204.815 65.9231C204.615 65.8431 204.488 65.7564 204.435 65.6631C204.381 65.5564 204.368 65.4231 204.395 65.2631L204.535 64.6031C204.561 64.4431 204.615 64.3498 204.695 64.3231C204.775 64.2831 204.895 64.2764 205.055 64.3031C205.268 64.3431 205.501 64.3764 205.755 64.4031C206.021 64.4298 206.281 64.4564 206.535 64.4831C206.801 64.4964 207.048 64.5098 207.275 64.5231C207.515 64.5364 207.721 64.5431 207.895 64.5431C208.535 64.5431 208.995 64.4564 209.275 64.2831C209.555 64.0964 209.695 63.8031 209.695 63.4031C209.695 63.1764 209.668 62.9898 209.615 62.8431C209.575 62.6964 209.495 62.5764 209.375 62.4831C209.255 62.3898 209.088 62.3164 208.875 62.2631C208.675 62.1964 208.415 62.1431 208.095 62.1031C207.601 62.0364 207.135 61.9498 206.695 61.8431C206.255 61.7364 205.861 61.5831 205.515 61.3831C205.181 61.1698 204.915 60.8964 204.715 60.5631C204.515 60.2164 204.415 59.7698 204.415 59.2231C204.415 58.2364 204.761 57.4898 205.455 56.9831C206.148 56.4631 207.055 56.2031 208.175 56.2031C208.375 56.2031 208.608 56.2098 208.875 56.2231C209.141 56.2364 209.408 56.2631 209.675 56.3031C209.955 56.3431 210.228 56.3898 210.495 56.4431C210.761 56.4964 211.001 56.5631 211.215 56.6431C211.548 56.7764 211.688 56.9764 211.635 57.2431L211.475 57.9631C211.448 58.1098 211.395 58.2031 211.315 58.2431C211.248 58.2698 211.121 58.2698 210.935 58.2431C210.508 58.1898 210.041 58.1431 209.535 58.1031C209.028 58.0498 208.588 58.0231 208.215 58.0231C207.575 58.0231 207.148 58.1164 206.935 58.3031C206.735 58.4764 206.635 58.7564 206.635 59.1431C206.635 59.5298 206.761 59.7831 207.015 59.9031C207.281 60.0231 207.721 60.1298 208.335 60.2231C208.815 60.2898 209.268 60.3764 209.695 60.4831C210.135 60.5898 210.521 60.7498 210.855 60.9631C211.188 61.1764 211.455 61.4631 211.655 61.8231C211.855 62.1831 211.955 62.6631 211.955 63.2631Z"
    fill="white"
  />
<path
    d="M221.134 63.2631C221.134 63.8498 221.021 64.3431 220.794 64.7431C220.568 65.1298 220.261 65.4431 219.874 65.6831C219.501 65.9231 219.074 66.0964 218.594 66.2031C218.114 66.3098 217.614 66.3631 217.094 66.3631C216.588 66.3631 216.041 66.3231 215.454 66.2431C214.868 66.1764 214.381 66.0698 213.994 65.9231C213.794 65.8431 213.668 65.7564 213.614 65.6631C213.561 65.5564 213.548 65.4231 213.574 65.2631L213.714 64.6031C213.741 64.4431 213.794 64.3498 213.874 64.3231C213.954 64.2831 214.074 64.2764 214.234 64.3031C214.448 64.3431 214.681 64.3764 214.934 64.4031C215.201 64.4298 215.461 64.4564 215.714 64.4831C215.981 64.4964 216.228 64.5098 216.454 64.5231C216.694 64.5364 216.901 64.5431 217.074 64.5431C217.714 64.5431 218.174 64.4564 218.454 64.2831C218.734 64.0964 218.874 63.8031 218.874 63.4031C218.874 63.1764 218.848 62.9898 218.794 62.8431C218.754 62.6964 218.674 62.5764 218.554 62.4831C218.434 62.3898 218.268 62.3164 218.054 62.2631C217.854 62.1964 217.594 62.1431 217.274 62.1031C216.781 62.0364 216.314 61.9498 215.874 61.8431C215.434 61.7364 215.041 61.5831 214.694 61.3831C214.361 61.1698 214.094 60.8964 213.894 60.5631C213.694 60.2164 213.594 59.7698 213.594 59.2231C213.594 58.2364 213.941 57.4898 214.634 56.9831C215.328 56.4631 216.234 56.2031 217.354 56.2031C217.554 56.2031 217.788 56.2098 218.054 56.2231C218.321 56.2364 218.588 56.2631 218.854 56.3031C219.134 56.3431 219.408 56.3898 219.674 56.4431C219.941 56.4964 220.181 56.5631 220.394 56.6431C220.728 56.7764 220.868 56.9764 220.814 57.2431L220.654 57.9631C220.628 58.1098 220.574 58.2031 220.494 58.2431C220.428 58.2698 220.301 58.2698 220.114 58.2431C219.688 58.1898 219.221 58.1431 218.714 58.1031C218.208 58.0498 217.768 58.0231 217.394 58.0231C216.754 58.0231 216.328 58.1164 216.114 58.3031C215.914 58.4764 215.814 58.7564 215.814 59.1431C215.814 59.5298 215.941 59.7831 216.194 59.9031C216.461 60.0231 216.901 60.1298 217.514 60.2231C217.994 60.2898 218.448 60.3764 218.874 60.4831C219.314 60.5898 219.701 60.7498 220.034 60.9631C220.368 61.1764 220.634 61.4631 220.834 61.8231C221.034 62.1831 221.134 62.6631 221.134 63.2631Z"
    fill="white"
  />
<path
    d="M225.574 53.8031C225.574 53.9631 225.561 54.1164 225.534 54.2631C225.507 54.3964 225.447 54.5164 225.354 54.6231C225.274 54.7298 225.154 54.8164 224.994 54.8831C224.847 54.9364 224.647 54.9631 224.394 54.9631C224.127 54.9631 223.914 54.9298 223.754 54.8631C223.607 54.7964 223.494 54.7098 223.414 54.6031C223.334 54.4964 223.281 54.3764 223.254 54.2431C223.227 54.0964 223.214 53.9498 223.214 53.8031C223.214 53.4831 223.287 53.2164 223.434 53.0031C223.594 52.7764 223.914 52.6631 224.394 52.6631C224.887 52.6631 225.207 52.7698 225.354 52.9831C225.501 53.1831 225.574 53.4564 225.574 53.8031ZM225.454 65.8231C225.454 65.9298 225.427 66.0231 225.374 66.1031C225.334 66.1698 225.241 66.2031 225.094 66.2031H223.674C223.407 66.2031 223.274 66.0764 223.274 65.8231V56.7831C223.274 56.5298 223.407 56.4031 223.674 56.4031H225.094C225.241 56.4031 225.334 56.4431 225.374 56.5231C225.427 56.5898 225.454 56.6764 225.454 56.7831V65.8231Z"
    fill="white"
  />
<path
    d="M236.435 61.1431C236.435 61.7164 236.395 62.3098 236.315 62.9231C236.249 63.5364 236.069 64.1031 235.775 64.6231C235.482 65.1298 235.042 65.5498 234.455 65.8831C233.869 66.2031 233.055 66.3631 232.015 66.3631C231.015 66.3631 230.229 66.2031 229.655 65.8831C229.082 65.5498 228.649 65.1298 228.355 64.6231C228.075 64.1031 227.902 63.5364 227.835 62.9231C227.769 62.3098 227.735 61.7164 227.735 61.1431C227.735 60.6764 227.775 60.1564 227.855 59.5831C227.949 59.0098 228.142 58.4764 228.435 57.9831C228.729 57.4764 229.155 57.0564 229.715 56.7231C230.289 56.3764 231.055 56.2031 232.015 56.2031C232.989 56.2031 233.762 56.3498 234.335 56.6431C234.922 56.9364 235.369 57.3231 235.675 57.8031C235.982 58.2698 236.182 58.7964 236.275 59.3831C236.382 59.9698 236.435 60.5564 236.435 61.1431ZM234.195 61.2831C234.195 60.7498 234.169 60.2898 234.115 59.9031C234.062 59.5031 233.955 59.1764 233.795 58.9231C233.635 58.6564 233.415 58.4564 233.135 58.3231C232.855 58.1898 232.489 58.1231 232.035 58.1231C231.609 58.1231 231.262 58.1898 230.995 58.3231C230.729 58.4564 230.515 58.6564 230.355 58.9231C230.209 59.1898 230.102 59.5231 230.035 59.9231C229.982 60.3098 229.955 60.7631 229.955 61.2831C229.955 61.8164 229.982 62.2831 230.035 62.6831C230.102 63.0698 230.209 63.3964 230.355 63.6631C230.502 63.9164 230.709 64.1098 230.975 64.2431C231.242 64.3764 231.589 64.4431 232.015 64.4431C232.469 64.4431 232.835 64.3831 233.115 64.2631C233.409 64.1298 233.635 63.9364 233.795 63.6831C233.955 63.4164 234.062 63.0831 234.115 62.6831C234.169 62.2831 234.195 61.8164 234.195 61.2831Z"
    fill="white"
  />
<path
    d="M246.884 65.8231C246.884 66.0764 246.757 66.2031 246.504 66.2031H245.084C244.938 66.2031 244.837 66.1698 244.784 66.1031C244.731 66.0364 244.704 65.9431 244.704 65.8231V65.2031L244.664 65.1831C244.464 65.3164 244.231 65.4564 243.964 65.6031C243.711 65.7364 243.438 65.8631 243.144 65.9831C242.851 66.1031 242.544 66.1964 242.224 66.2631C241.918 66.3431 241.611 66.3831 241.304 66.3831C240.624 66.3831 240.084 66.2898 239.684 66.1031C239.298 65.9164 239.004 65.6564 238.804 65.3231C238.604 64.9898 238.478 64.5964 238.424 64.1431C238.371 63.6898 238.344 63.2031 238.344 62.6831V56.8031C238.344 56.5364 238.471 56.4031 238.724 56.4031H240.184C240.424 56.4031 240.544 56.5364 240.544 56.8031V62.4231C240.544 62.7298 240.564 63.0031 240.604 63.2431C240.644 63.4831 240.717 63.6898 240.824 63.8631C240.931 64.0231 241.077 64.1498 241.264 64.2431C241.451 64.3364 241.698 64.3831 242.004 64.3831C242.217 64.3831 242.451 64.3498 242.704 64.2831C242.971 64.2164 243.231 64.1364 243.484 64.0431C243.738 63.9364 243.971 63.8364 244.184 63.7431C244.397 63.6364 244.571 63.5498 244.704 63.4831V56.8031C244.704 56.6831 244.731 56.5898 244.784 56.5231C244.837 56.4431 244.938 56.4031 245.084 56.4031H246.504C246.757 56.4031 246.884 56.5364 246.884 56.8031V65.8231Z"
    fill="white"
  />
<path
    d="M257.489 65.8231C257.489 65.9431 257.463 66.0364 257.409 66.1031C257.356 66.1698 257.256 66.2031 257.109 66.2031H255.669C255.416 66.2031 255.289 66.0764 255.289 65.8231L255.309 60.2031C255.309 59.6164 255.209 59.1431 255.009 58.7831C254.822 58.4231 254.442 58.2431 253.869 58.2431C253.669 58.2431 253.436 58.2764 253.169 58.3431C252.916 58.4098 252.656 58.4964 252.389 58.6031C252.136 58.6964 251.896 58.7964 251.669 58.9031C251.442 58.9964 251.262 59.0764 251.129 59.1431V65.8231C251.129 66.0764 251.003 66.2031 250.749 66.2031H249.329C249.076 66.2031 248.949 66.0764 248.949 65.8231V56.8031C248.949 56.5364 249.076 56.4031 249.329 56.4031H250.749C251.003 56.4031 251.129 56.5364 251.129 56.8031V57.4031C251.143 57.4031 251.149 57.4098 251.149 57.4231C251.162 57.4231 251.176 57.4231 251.189 57.4231C251.376 57.2898 251.596 57.1564 251.849 57.0231C252.116 56.8764 252.396 56.7431 252.689 56.6231C252.982 56.5031 253.289 56.4098 253.609 56.3431C253.929 56.2631 254.243 56.2231 254.549 56.2231C255.229 56.2231 255.762 56.3298 256.149 56.5431C256.536 56.7431 256.829 57.0164 257.029 57.3631C257.229 57.7098 257.356 58.1164 257.409 58.5831C257.463 59.0364 257.489 59.5164 257.489 60.0231V65.8231Z"
    fill="white"
  />
<path
    fill-rule="evenodd"
    clip-rule="evenodd"
    d="M265.5 66.7H268.8V28H265.5V66.7Z"
    fill="white"
  />
<path
    d="M29.5595 64.8961H85.2641L85.259 28.8354L29.5544 28.8405L29.5595 64.8961Z"
    fill="#003399"
  />
<path
    d="M57.9401 33.3809H59.9717L58.3332 34.6449L58.9712 36.6472L57.3429 35.4135L55.7146 36.6472L56.3526 34.6449L54.7039 33.3809H56.7304L57.3429 31.4292L57.9401 33.3809Z"
    fill="#FFED00"
  />
<path
    d="M58.0116 59.1573H60.0432L58.4097 60.3759L59.0427 62.3023L57.4144 61.1141L55.7861 62.3023L56.4292 60.3759L54.7754 59.1573H56.8018L57.4144 57.2815L58.0116 59.1573Z"
    fill="#FFED00"
  />
<path
    d="M64.4482 57.4534H66.4849L64.8464 58.6669L65.4844 60.5933L63.851 59.4051L62.2227 60.5933L62.8659 58.6669L61.212 57.4534H63.2385L63.851 55.5725L64.4482 57.4534Z"
    fill="#FFED00"
  />
<path
    d="M64.4482 35.1H66.4849L64.8464 36.3185L65.4844 38.2449L63.851 37.0567L62.2227 38.2449L62.8659 36.3185L61.212 35.1H63.2385L63.851 33.2241L64.4482 35.1Z"
    fill="#FFED00"
  />
<path
    d="M69.2311 39.8377H71.2576L69.6242 41.0512L70.2571 42.9776L68.6288 41.7894L67.0005 42.9776L67.6436 41.0512L65.9898 39.8377H68.0163L68.6288 37.9568L69.2311 39.8377Z"
    fill="#FFED00"
  />
<path
    d="M69.2311 52.7814H71.2576L69.6242 53.9999L70.2571 55.9263L68.6288 54.7381L67.0005 55.9263L67.6436 53.9999L65.9898 52.7814H68.0163L68.6288 50.9055L69.2311 52.7814Z"
    fill="#FFED00"
  />
<path
    d="M71.0177 46.2084H73.0544L71.4158 47.4269L72.0488 49.3533L70.4205 48.1651L68.7922 49.3533L69.4353 47.4269L67.7815 46.2084H69.8079L70.4205 44.3325L71.0177 46.2084Z"
    fill="#FFED00"
  />
<path
    d="M51.3809 35.1202H53.4074L51.774 36.3336L52.4069 38.26L50.7786 37.0718L49.1503 38.26L49.7934 36.3336L48.1447 35.1202H50.1661L50.7786 33.2393L51.3809 35.1202Z"
    fill="#FFED00"
  />
<path
    d="M46.7308 39.8528H48.7675L47.129 41.0663L47.7619 42.9927L46.1336 41.8045L44.5053 42.9927L45.1485 41.0663L43.4946 39.8528H45.5211L46.1336 37.9719L46.7308 39.8528Z"
    fill="#FFED00"
  />
<path
    d="M45.0055 46.2286H47.0371L45.4037 47.442L46.0366 49.3685L44.4083 48.1853L42.78 49.3685L43.4231 47.442L41.7744 46.2286H43.7958L44.4083 44.3477L45.0055 46.2286Z"
    fill="#FFED00"
  />
<path
    d="M46.7308 52.7965H48.7675L47.129 54.015L47.7619 55.9414L46.1336 54.7532L44.5053 55.9414L45.1485 54.015L43.4946 52.7965H45.5211L46.1336 50.9207L46.7308 52.7965Z"
    fill="#FFED00"
  />
<path
    d="M51.4473 57.4685H53.4737L51.8403 58.682L52.4733 60.6084L50.8449 59.4202L49.2166 60.6084L49.8598 58.682L48.2111 57.4685H50.2324L50.8449 55.5876L51.4473 57.4685Z"
    fill="#FFED00"
  />
<path
    d="M95.4373 0.00505726C95.4373 0.00505726 107.417 18.9101 109.612 22.3736C111.802 25.8371 114.308 28.5826 123.175 30.4433C132.041 32.304 135.9 33.1837 135.9 33.1837V33.8562C135.9 33.8562 130.265 32.668 123.016 31.0652C115.768 29.4624 112.803 28.9214 109.5 24.3657C106.749 20.5736 95.4373 3.61517 95.4373 3.61517V0V0.00505726Z"
    fill="white"
  />
<path
    d="M95.4373 21.5949C95.4373 21.5949 106.345 32.9157 109.5 36.1668C112.848 39.6151 117.131 40.8893 123.073 41.941C128.744 42.9421 135.895 44.1 135.895 44.1V44.7371C135.895 44.7371 129.178 43.6449 123.073 42.6135C117.085 41.5972 112.894 41.0309 109.464 37.9011C106.391 35.1 95.4373 24.9219 95.4373 24.9219V21.5898V21.5949Z"
    fill="white"
  />
<path
    d="M95.4373 26.6967C95.4373 26.6967 105.809 36.2377 109.5 39.499C112.894 42.4973 115.646 43.4327 123.108 44.7422C130.571 46.0518 135.895 46.8658 135.895 46.8658V47.5383C135.895 47.5383 129.142 46.4411 123.073 45.4804C117.003 44.5248 113.134 44.1456 109.5 41.2282C105.309 37.8608 95.4373 29.8113 95.4373 29.8113V26.6917V26.6967Z"
    fill="white"
  />
<path
    d="M95.4373 32.1321C95.4373 32.1321 107.285 41.4456 109.5 43.0737C111.715 44.7018 114.645 46.6029 123.144 47.8214C131.571 49.0298 135.895 49.6265 135.895 49.6265V50.3343C135.895 50.3343 128.254 49.2371 123.144 48.6001C118.035 47.963 114.119 47.69 109.536 44.6664C105.074 41.7237 95.4373 35.004 95.4373 35.004V32.1321Z"
    fill="white"
  />
<path
    d="M95.4373 37.3601C95.4373 37.3601 107.32 45.1972 109.571 46.441C111.822 47.6798 114.467 49.7022 123.144 50.7994C131.822 51.8966 135.895 52.3921 135.895 52.3921V53.0646C135.895 53.0646 128.718 52.286 123.108 51.6843C117.504 51.0826 113.68 50.2685 109.5 47.9983C105.319 45.7331 95.4373 40.0095 95.4373 40.0095V37.3601Z"
    fill="white"
  />
<path
    d="M95.4373 42.5883C95.4373 42.5883 105.942 48.2512 109.5 50.0158C113.466 51.9878 116.896 52.9333 123.108 53.6664C129.208 54.3844 135.895 55.0821 135.895 55.0821V55.7192C135.895 55.7192 129.713 55.0619 123.108 54.4451C116.559 53.8282 114.227 53.5451 109.5 51.467C105.273 49.6063 95.4373 45.0658 95.4373 45.0658V42.5833V42.5883Z"
    fill="white"
  />
<path
    d="M95.4373 47.8872C95.4373 47.8872 103.737 51.4063 109.571 53.7018C115.309 55.9569 119.693 56.149 123.18 56.5383C124.716 56.7102 135.895 57.8479 135.895 57.8479V58.485C135.895 58.485 129.218 57.9541 123.144 57.4232C117.07 56.8923 114.451 56.6647 109.536 55.0518C104.559 53.4136 95.4373 50.2636 95.4373 50.2636V47.8923V47.8872Z"
    fill="white"
  />
<path
    d="M95.4373 53.2922C95.4373 53.2922 103.819 55.8658 109.536 57.3524C115.253 58.8389 120.5 59.4456 123.144 59.6175C125.788 59.7945 135.9 60.6085 135.9 60.6085V61.2102C135.9 61.2102 130.147 60.8209 123.108 60.3254C117.417 59.9259 112.848 59.5012 109.5 58.7681C105.794 57.9591 95.4373 55.522 95.4373 55.522V53.2922Z"
    fill="white"
  />
<path
    d="M95.4373 58.6062C95.4373 58.6062 102.292 59.7792 109.536 60.9674C114.967 61.8573 122.322 62.4186 123.108 62.454C123.894 62.4893 135.895 63.3034 135.895 63.3034V63.9405C135.895 63.9405 128.213 63.5461 123.108 63.268C117.79 62.9747 112.501 62.6562 109.5 62.3478C102.772 61.6551 95.4373 60.7349 95.4373 60.7349V58.6062Z"
    fill="white"
  />
<path
    d="M95.4373 64.1074C95.4373 64.1074 106.248 64.5119 109.536 64.5827C112.823 64.6535 135.895 65.5737 135.895 65.5737V66.1956H95.4373V64.1074Z"
    fill="white"
  />
<path
    d="M123.103 33.3656C113.318 31.2774 111.103 27.733 109.459 25.5387C107.815 23.3392 95.4321 5.41504 95.4321 5.41504V8.71167C95.9222 9.34369 106.519 23.8347 109.495 27.6269C112.848 31.8993 118.101 32.8701 123.103 33.9319C128.1 34.9937 135.895 36.4752 135.895 36.4752V35.9089C135.895 35.9089 125.635 33.9016 123.103 33.3656Z"
    fill="white"
  />
<path
    d="M123.103 36.2022C115.069 34.6449 111.817 32.127 109.459 29.0831C107.101 26.0343 95.4321 10.446 95.4321 10.446V14.2786C95.9222 14.85 106.596 27.7534 109.459 30.9994C112.797 34.7865 117.458 35.7826 123.103 36.809C128.749 37.8354 135.89 39.1803 135.89 39.1803V38.614C135.89 38.614 127.738 37.1022 123.103 36.2073V36.2022Z"
    fill="white"
  />
<path
    d="M123.103 39.1399C114.747 37.5321 113.032 36.2124 109.495 32.3748C107.269 29.963 95.9119 16.6804 95.4321 16.1191V19.6585C95.4321 19.6585 106.044 30.8731 109.459 34.1849C113.936 38.5332 118.137 38.8619 123.103 39.7467C128.07 40.6315 135.89 42.0473 135.89 42.0473V41.4456C135.89 41.4456 126.447 39.7871 123.103 39.145V39.1399Z"
    fill="white"
  />
<path
    d="M0.505106 27.7788C0.505106 27.7788 28.1711 24.8563 35.9196 23.7793C48.1702 22.0805 58.1953 20.2703 67.4701 6.18887C67.4701 6.18887 67.4803 5.38999 67.4701 5.03101C61.7889 13.5911 53.9536 19.431 43.1628 21.1248C32.6222 22.7833 0.5 25.2052 0.5 25.2052V27.7788H0.505106Z"
    fill="white"
  />
<path
    d="M0.505127 24.2849C0.505127 24.2849 26.1447 21.1046 34.5925 19.9315C47.9559 18.081 57.3531 16.4175 67.4701 1.05681C67.4701 1.05681 67.4752 0.394453 67.4701 0.00512695C61.2733 9.3439 53.6218 15.3759 41.851 17.2265C30.3507 19.0366 0.505127 21.6759 0.505127 21.6759V24.29V24.2849Z"
    fill="white"
  />
<path d="M26.6806 64.1326H0.520447V66.1854H26.6806V64.1326Z" fill="white" />
<path
    d="M67.4701 22.5708C67.4701 22.5708 67.4854 21.3624 67.4803 21.1045C66.2501 22.9601 64.632 24.6438 62.7638 26.1253H64.5963C65.6274 25.0736 66.5921 23.8955 67.465 22.5708H67.4701Z"
    fill="white"
  />
<path
    d="M67.4701 17.11C67.4701 17.11 67.4803 16.0381 67.4752 15.7449C64.5095 20.2145 60.0942 23.7842 54.9897 26.1505L58.0014 26.1404C61.4826 24.1331 64.7188 21.2814 67.465 17.11H67.4701Z"
    fill="white"
  />
<path
    d="M67.4701 11.6494C67.4701 11.6494 67.4803 10.714 67.4701 10.3904C62.3095 18.1718 54.2854 23.496 44.4747 25.0381C42.1521 25.4022 38.3698 25.8067 33.9749 26.2162L45.9549 26.1758C53.8617 24.4314 61.2631 21.0589 67.4599 11.6494H67.4701Z"
    fill="white"
  />
<path
    d="M26.6857 60.6743C13.3377 60.7451 0.520447 60.8007 0.520447 60.8007V62.9395C0.520447 62.9395 13.9451 62.8434 26.6857 62.7372V60.6743Z"
    fill="white"
  />
<path
    d="M26.6857 57.0034C13.4295 57.15 0.51532 57.2613 0.51532 57.2613V59.4456C0.51532 59.4456 14.0778 59.2686 26.6857 59.0714V57.0034Z"
    fill="white"
  />
<path
    d="M26.6806 53.3225C13.5214 53.55 0.51532 53.722 0.51532 53.722V55.9517C0.51532 55.9517 14.2207 55.6837 26.6806 55.3905V53.3225Z"
    fill="white"
  />
<path
    d="M26.6857 49.6213C13.6235 49.9398 0.51532 50.1774 0.51532 50.1774V52.4477C0.51532 52.4477 14.3789 52.0735 26.6857 51.6842V49.6162V49.6213Z"
    fill="white"
  />
<path
    d="M26.6908 45.9102C13.7256 46.3197 0.51532 46.6433 0.51532 46.6433V48.959C0.51532 48.959 14.5474 48.4736 26.6908 47.9781V45.9152V45.9102Z"
    fill="white"
  />
<path
    d="M26.6857 42.1838C13.8226 42.6995 0.51532 43.104 0.51532 43.104V45.4602C0.51532 45.4602 14.7209 44.8433 26.6857 44.2315V42.1787V42.1838Z"
    fill="white"
  />
<path
    d="M26.6909 38.4321C13.9247 39.0591 0.510254 39.5597 0.510254 39.5597V41.9613C0.510254 41.9613 14.9047 41.1979 26.6909 40.4647V38.4321Z"
    fill="white"
  />
<path
    d="M26.6909 34.6602C14.0217 35.4085 0.510254 36.0203 0.510254 36.0203V38.4624C0.510254 38.4624 15.0987 37.5321 26.6909 36.6725V34.6602Z"
    fill="white"
  />
<path
    d="M26.6909 30.8679C14.1084 31.7477 0.510254 32.4859 0.510254 32.4859V34.9735C0.510254 34.9735 15.2927 33.8511 26.6909 32.8601V30.873V30.8679Z"
    fill="white"
  />
<path
    d="M26.6908 27.0405C14.185 28.0669 0.505127 28.9416 0.505127 28.9416V31.4697C0.505127 31.4697 15.4866 30.1248 26.6908 28.9922V27.0405Z"
    fill="white"
  />
<path
    d="M86.5759 66.1906V27.5461H28.2527V66.1906H86.5759ZM85.259 28.8355V64.8962H29.5544V28.8405H85.259V28.8355Z"
    fill="white"
  />
</svg>
