<svg
  width="290"
  height="72"
  viewBox="0 0 290 72"
  fill="none"
  xmlns="http://www.w3.org/2000/svg"
>
<path
    d="M29.0595 64.8961H84.7641L84.759 28.8354L29.0544 28.8404L29.0595 64.8961Z"
    fill="#003399"
  />
<path
    d="M57.4401 33.3809H59.4717L57.8331 34.645L58.4712 36.6472L56.8429 35.4135L55.2146 36.6472L55.8526 34.645L54.2039 33.3809H56.2303L56.8429 31.4293L57.4401 33.3809Z"
    fill="#FFED00"
  />
<path
    d="M57.5115 59.1574H59.5431L57.9097 60.376L58.5426 62.3024L56.9143 61.1142L55.286 62.3024L55.9292 60.376L54.2753 59.1574H56.3018L56.9143 57.2816L57.5115 59.1574Z"
    fill="#FFED00"
  />
<path
    d="M63.9482 57.4534H65.9849L64.3464 58.6669L64.9844 60.5933L63.351 59.4051L61.7227 60.5933L62.3659 58.6669L60.712 57.4534H62.7385L63.351 55.5725L63.9482 57.4534Z"
    fill="#FFED00"
  />
<path
    d="M63.9482 35.1001H65.9849L64.3464 36.3186L64.9844 38.245L63.351 37.0568L61.7227 38.245L62.3659 36.3186L60.712 35.1001H62.7385L63.351 33.2242L63.9482 35.1001Z"
    fill="#FFED00"
  />
<path
    d="M68.7311 39.8377H70.7575L69.1241 41.0512L69.7571 42.9776L68.1288 41.7894L66.5005 42.9776L67.1436 41.0512L65.4898 39.8377H67.5162L68.1288 37.9568L68.7311 39.8377Z"
    fill="#FFED00"
  />
<path
    d="M68.7311 52.7815H70.7575L69.1241 54.0001L69.7571 55.9265L68.1288 54.7383L66.5005 55.9265L67.1436 54.0001L65.4898 52.7815H67.5162L68.1288 50.9057L68.7311 52.7815Z"
    fill="#FFED00"
  />
<path
    d="M70.5176 46.2085H72.5543L70.9158 47.427L71.5487 49.3534L69.9204 48.1652L68.2921 49.3534L68.9353 47.427L67.2814 46.2085H69.3079L69.9204 44.3326L70.5176 46.2085Z"
    fill="#FFED00"
  />
<path
    d="M50.8809 35.1203H52.9074L51.274 36.3338L51.9069 38.2602L50.2786 37.072L48.6503 38.2602L49.2934 36.3338L47.6447 35.1203H49.6661L50.2786 33.2394L50.8809 35.1203Z"
    fill="#FFED00"
  />
<path
    d="M46.2308 39.8528H48.2674L46.6289 41.0663L47.2619 42.9927L45.6336 41.8045L44.0052 42.9927L44.6484 41.0663L42.9946 39.8528H45.021L45.6336 37.9719L46.2308 39.8528Z"
    fill="#FFED00"
  />
<path
    d="M44.5055 46.2287H46.537L44.9036 47.4422L45.5366 49.3686L43.9083 48.1855L42.28 49.3686L42.9231 47.4422L41.2744 46.2287H43.2957L43.9083 44.3478L44.5055 46.2287Z"
    fill="#FFED00"
  />
<path
    d="M46.2308 52.7967H48.2674L46.6289 54.0152L47.2619 55.9416L45.6336 54.7534L44.0052 55.9416L44.6484 54.0152L42.9946 52.7967H45.021L45.6336 50.9208L46.2308 52.7967Z"
    fill="#FFED00"
  />
<path
    d="M50.9473 57.4686H52.9737L51.3403 58.6821L51.9733 60.6085L50.3449 59.4203L48.7166 60.6085L49.3598 58.6821L47.7111 57.4686H49.7324L50.3449 55.5877L50.9473 57.4686Z"
    fill="#FFED00"
  />
<path
    d="M94.9372 0.00505726C94.9372 0.00505726 106.917 18.9101 109.112 22.3736C111.302 25.8371 113.808 28.5826 122.675 30.4433C131.541 32.304 135.4 33.1837 135.4 33.1837V33.8562C135.4 33.8562 129.765 32.668 122.516 31.0652C115.268 29.4624 112.302 28.9214 109 24.3657C106.249 20.5736 94.9372 3.61517 94.9372 3.61517V0V0.00505726Z"
    fill="white"
  />
<path
    d="M94.9372 21.5949C94.9372 21.5949 105.845 32.9157 109 36.1668C112.348 39.6151 116.631 40.8893 122.573 41.941C128.244 42.9421 135.395 44.1 135.395 44.1V44.7371C135.395 44.7371 128.677 43.6449 122.573 42.6135C116.585 41.5972 112.394 41.0309 108.964 37.9011C105.891 35.1 94.9372 24.9219 94.9372 24.9219V21.5898V21.5949Z"
    fill="white"
  />
<path
    d="M94.9372 26.6966C94.9372 26.6966 105.309 36.2377 109 39.4989C112.394 42.4972 115.146 43.4326 122.608 44.7422C130.071 46.0517 135.395 46.8658 135.395 46.8658V47.5382C135.395 47.5382 128.642 46.441 122.573 45.4804C116.503 44.5247 112.634 44.1455 109 41.2281C104.809 37.8607 94.9372 29.8113 94.9372 29.8113V26.6916V26.6966Z"
    fill="white"
  />
<path
    d="M94.9372 32.1321C94.9372 32.1321 106.785 41.4456 109 43.0737C111.215 44.7018 114.145 46.6029 122.644 47.8214C131.071 49.0298 135.395 49.6265 135.395 49.6265V50.3343C135.395 50.3343 127.754 49.2371 122.644 48.6001C117.535 47.963 113.619 47.69 109.036 44.6664C104.574 41.7237 94.9372 35.004 94.9372 35.004V32.1321Z"
    fill="white"
  />
<path
    d="M94.9372 37.3602C94.9372 37.3602 106.82 45.1973 109.071 46.4411C111.322 47.6798 113.967 49.7023 122.644 50.7995C131.322 51.8967 135.395 52.3922 135.395 52.3922V53.0647C135.395 53.0647 128.218 52.286 122.608 51.6843C117.004 51.0826 113.18 50.2686 109 47.9984C104.819 45.7332 94.9372 40.0096 94.9372 40.0096V37.3602Z"
    fill="white"
  />
<path
    d="M94.9372 42.5882C94.9372 42.5882 105.442 48.2512 109 50.0158C112.966 51.9877 116.396 52.9332 122.608 53.6663C128.708 54.3843 135.395 55.0821 135.395 55.0821V55.7192C135.395 55.7192 129.213 55.0618 122.608 54.445C116.059 53.8281 113.727 53.545 109 51.4669C104.773 49.6062 94.9372 45.0658 94.9372 45.0658V42.5832V42.5882Z"
    fill="white"
  />
<path
    d="M94.9372 47.8871C94.9372 47.8871 103.237 51.4062 109.071 53.7018C114.809 55.9568 119.193 56.1489 122.68 56.5383C124.216 56.7102 135.395 57.8478 135.395 57.8478V58.4849C135.395 58.4849 128.718 57.954 122.644 57.4231C116.57 56.8922 113.951 56.6647 109.036 55.0518C104.059 53.4136 94.9372 50.2636 94.9372 50.2636V47.8922V47.8871Z"
    fill="white"
  />
<path
    d="M94.9372 53.2922C94.9372 53.2922 103.319 55.8658 109.036 57.3523C114.753 58.8388 120 59.4455 122.644 59.6175C125.288 59.7944 135.4 60.6085 135.4 60.6085V61.2102C135.4 61.2102 129.647 60.8208 122.608 60.3253C116.917 59.9259 112.348 59.5012 109 58.768C105.294 57.959 94.9372 55.522 94.9372 55.522V53.2922Z"
    fill="white"
  />
<path
    d="M94.9372 58.6062C94.9372 58.6062 101.792 59.7792 109.036 60.9674C114.467 61.8573 121.822 62.4186 122.608 62.454C123.394 62.4893 135.395 63.3034 135.395 63.3034V63.9405C135.395 63.9405 127.713 63.5461 122.608 63.268C117.29 62.9747 112.001 62.6562 109 62.3478C102.272 61.6551 94.9372 60.7349 94.9372 60.7349V58.6062Z"
    fill="white"
  />
<path
    d="M94.9372 64.1074C94.9372 64.1074 105.748 64.5119 109.036 64.5827C112.323 64.6535 135.395 65.5737 135.395 65.5737V66.1956H94.9372V64.1074Z"
    fill="white"
  />
<path
    d="M122.603 33.3657C112.818 31.2775 110.603 27.7331 108.959 25.5387C107.315 23.3393 94.9321 5.41513 94.9321 5.41513V8.71176C95.4222 9.34379 106.019 23.8348 108.995 27.6269C112.348 31.8994 117.601 32.8702 122.603 33.932C127.6 34.9938 135.395 36.4753 135.395 36.4753V35.909C135.395 35.909 125.135 33.9017 122.603 33.3657Z"
    fill="white"
  />
<path
    d="M122.603 36.2023C114.569 34.645 111.317 32.127 108.959 29.0832C106.601 26.0343 94.9321 10.4461 94.9321 10.4461V14.2787C95.4222 14.85 106.096 27.7534 108.959 30.9995C112.297 34.7865 116.958 35.7826 122.603 36.809C128.249 37.8354 135.39 39.1804 135.39 39.1804V38.6141C135.39 38.6141 127.238 37.1023 122.603 36.2073V36.2023Z"
    fill="white"
  />
<path
    d="M122.603 39.1399C114.247 37.5321 112.532 36.2124 108.995 32.3748C106.769 29.963 95.4119 16.6804 94.9321 16.1191V19.6585C94.9321 19.6585 105.544 30.8731 108.959 34.1849C113.436 38.5332 117.637 38.8619 122.603 39.7467C127.57 40.6315 135.39 42.0473 135.39 42.0473V41.4456C135.39 41.4456 125.947 39.7871 122.603 39.145V39.1399Z"
    fill="white"
  />
<path
    d="M0.00510552 27.7787C0.00510552 27.7787 27.6711 24.8562 35.4196 23.7792C47.6702 22.0803 57.6953 20.2702 66.9701 6.18877C66.9701 6.18877 66.9803 5.38989 66.9701 5.0309C61.2889 13.591 53.4536 19.4309 42.6628 21.1247C32.1222 22.7832 0 25.2051 0 25.2051V27.7787H0.00510552Z"
    fill="white"
  />
<path
    d="M0.00511169 24.2849C0.00511169 24.2849 25.6446 21.1045 34.0925 19.9315C47.4559 18.0809 56.8531 16.4175 66.9701 1.05677C66.9701 1.05677 66.9752 0.394407 66.9701 0.00508118C60.7733 9.34385 53.1218 15.3759 41.351 17.2264C29.8507 19.0366 0.00511169 21.6759 0.00511169 21.6759V24.2899V24.2849Z"
    fill="white"
  />
<path d="M26.1806 64.1326H0.020462V66.1854H26.1806V64.1326Z" fill="white" />
<path
    d="M66.9701 22.5708C66.9701 22.5708 66.9854 21.3623 66.9803 21.1045C65.7501 22.9601 64.132 24.6438 62.2638 26.1253H64.0963C65.1274 25.0736 66.0921 23.8955 66.965 22.5708H66.9701Z"
    fill="white"
  />
<path
    d="M66.9701 17.1101C66.9701 17.1101 66.9803 16.0382 66.9752 15.745C64.0095 20.2146 59.5942 23.7843 54.4897 26.1506L57.5014 26.1405C60.9826 24.1332 64.2188 21.2815 66.965 17.1101H66.9701Z"
    fill="white"
  />
<path
    d="M66.9701 11.6494C66.9701 11.6494 66.9803 10.714 66.9701 10.3904C61.8095 18.1719 53.7853 23.4961 43.9746 25.0382C41.6521 25.4023 37.8697 25.8067 33.4748 26.2163L45.4549 26.1758C53.3617 24.4315 60.7631 21.059 66.9599 11.6494H66.9701Z"
    fill="white"
  />
<path
    d="M26.1857 60.6742C12.8377 60.745 0.020462 60.8006 0.020462 60.8006V62.9394C0.020462 62.9394 13.4451 62.8433 26.1857 62.7371V60.6742Z"
    fill="white"
  />
<path
    d="M26.1857 57.0034C12.9295 57.15 0.0153351 57.2613 0.0153351 57.2613V59.4456C0.0153351 59.4456 13.5778 59.2686 26.1857 59.0714V57.0034Z"
    fill="white"
  />
<path
    d="M26.1806 53.3225C13.0214 53.55 0.0153351 53.7219 0.0153351 53.7219V55.9517C0.0153351 55.9517 13.7207 55.6837 26.1806 55.3905V53.3225Z"
    fill="white"
  />
<path
    d="M26.1857 49.6214C13.1235 49.9399 0.0153351 50.1776 0.0153351 50.1776V52.4478C0.0153351 52.4478 13.879 52.0736 26.1857 51.6843V49.6163V49.6214Z"
    fill="white"
  />
<path
    d="M26.1908 45.9102C13.2256 46.3197 0.0153351 46.6433 0.0153351 46.6433V48.959C0.0153351 48.959 14.0474 48.4736 26.1908 47.9781V45.9152V45.9102Z"
    fill="white"
  />
<path
    d="M26.1857 42.1838C13.3226 42.6995 0.0153351 43.104 0.0153351 43.104V45.4602C0.0153351 45.4602 14.2209 44.8433 26.1857 44.2315V42.1787V42.1838Z"
    fill="white"
  />
<path
    d="M26.1908 38.4321C13.4247 39.059 0.0102234 39.5596 0.0102234 39.5596V41.9613C0.0102234 41.9613 14.4047 41.1978 26.1908 40.4647V38.4321Z"
    fill="white"
  />
<path
    d="M26.1908 34.6602C13.5216 35.4085 0.0102234 36.0203 0.0102234 36.0203V38.4624C0.0102234 38.4624 14.5987 37.5321 26.1908 36.6725V34.6602Z"
    fill="white"
  />
<path
    d="M26.1908 30.868C13.6084 31.7478 0.0102234 32.486 0.0102234 32.486V34.9736C0.0102234 34.9736 14.7926 33.8512 26.1908 32.8601V30.8731V30.868Z"
    fill="white"
  />
<path
    d="M26.1908 27.0405C13.685 28.0669 0.00511169 28.9416 0.00511169 28.9416V31.4697C0.00511169 31.4697 14.9866 30.1247 26.1908 28.9922V27.0405Z"
    fill="white"
  />
<path
    d="M86.0759 66.1905V27.5461H27.7528V66.1905H86.0759ZM84.759 28.8354V64.8961H29.0544V28.8405H84.759V28.8354Z"
    fill="white"
  />
<path d="M266.075 66.2022V27.3967H262.767V66.2022H266.075Z" fill="white" />
<path
    d="M144.411 33.4443C144.411 33.1953 144.528 33.0581 144.798 33.0581H151.902C152.136 33.0581 152.268 33.1953 152.268 33.424V34.6233C152.268 34.8571 152.172 34.9689 151.882 34.9689H146.612V38.2925H151.287C151.536 38.2925 151.674 38.4094 151.674 38.6381V39.8374C151.674 40.0712 151.577 40.183 151.287 40.183H146.612V43.9842H152.019C152.253 43.9842 152.365 44.1011 152.365 44.3501V45.5291C152.365 45.7781 152.268 45.8747 151.999 45.8747H144.798C144.528 45.8747 144.411 45.7578 144.411 45.5291V33.4392V33.4443Z"
    fill="white"
  />
<path
    d="M161.322 45.8749H159.95C159.66 45.8749 159.584 45.7377 159.584 45.509V44.9094L159.544 44.8891C158.791 45.4125 157.48 46.0477 156.301 46.0477C153.694 46.0477 153.445 44.5028 153.445 42.4751V36.7986C153.445 36.5649 153.542 36.4124 153.811 36.4124H155.219C155.468 36.4124 155.564 36.5496 155.564 36.7986V42.2261C155.564 43.3848 155.798 44.1166 156.972 44.1166C157.8 44.1166 159.076 43.4966 159.579 43.2476V36.7986C159.579 36.5649 159.655 36.4124 159.945 36.4124H161.317C161.586 36.4124 161.683 36.5496 161.683 36.7986V45.509C161.683 45.7581 161.586 45.8749 161.317 45.8749H161.322Z"
    fill="white"
  />
<path
    d="M165.459 45.5092C165.459 45.7429 165.362 45.8751 165.093 45.8751H163.7C163.431 45.8751 163.334 45.7582 163.334 45.5092V36.7988C163.334 36.5498 163.431 36.4125 163.7 36.4125H165.072C165.362 36.4125 165.459 36.565 165.459 36.7988V37.6475L165.499 37.6881C166.079 37.1494 167.451 36.4888 168.355 36.316C168.604 36.2601 168.782 36.316 168.818 36.6463L168.955 37.9422C168.975 38.2115 168.996 38.3284 168.589 38.4047C167.507 38.6181 166.135 39.0043 165.459 39.294V45.5092Z"
    fill="white"
  />
<path
    d="M173.57 46.0322C169.687 46.0322 169.438 43.1965 169.438 40.991C169.438 39.1767 169.845 36.2242 173.57 36.2242C177.295 36.2242 177.838 38.7143 177.838 40.991C177.838 43.2677 177.569 46.0322 173.57 46.0322ZM173.585 38.079C171.943 38.079 171.577 39.1208 171.577 41.1282C171.577 43.1355 171.943 44.1773 173.564 44.1773C175.323 44.1773 175.668 43.1914 175.668 41.1282C175.668 39.0649 175.338 38.079 173.585 38.079Z"
    fill="white"
  />
<path
    d="M183.454 46.0526C182.819 46.0526 181.929 45.9357 181.04 45.6257L181.02 45.6461V49.0459C181.02 49.2593 180.964 49.4321 180.654 49.4321H179.282C178.972 49.4321 178.916 49.2949 178.916 49.0459V36.8035C178.916 36.5545 179.012 36.4173 179.282 36.4173H180.654C180.923 36.4173 180.999 36.5698 180.999 36.8035V37.3829L181.055 37.4235C181.752 36.9408 182.986 36.2649 184.104 36.2649C186.635 36.2649 187.291 38.1757 187.291 41.0927C187.291 44.2384 186.498 46.0526 183.449 46.0526H183.454ZM183.611 38.1909C182.819 38.1909 181.604 38.7499 181.025 39.0599V43.8877C181.894 44.1367 182.59 44.2181 183.246 44.2181C184.638 44.2181 185.121 43.5015 185.121 41.0724C185.121 38.6432 184.638 38.196 183.617 38.196L183.611 38.1909Z"
    fill="white"
  />
<path
    d="M194.212 44.7772C193.247 45.509 191.951 46.0324 190.66 46.0324C188.612 46.0324 188.017 44.9144 188.017 43.2933C187.997 41.0318 189.217 40.0663 191.646 40.0663H194.116V39.5632C194.116 38.4045 193.694 37.9979 192.108 37.9979C191.473 37.9979 190.253 38.0945 189.481 38.1707C189.095 38.2266 188.998 38.2114 188.942 37.9369L188.77 37.2204C188.729 36.9714 188.79 36.8138 189.212 36.6411C190.04 36.3514 191.57 36.2142 192.474 36.2142C195.813 36.2142 196.22 37.5863 196.22 39.7461V43.4711C196.22 44.2639 196.316 44.2843 196.916 44.3605C197.206 44.3808 197.282 44.4367 197.282 44.6502V45.4633C197.282 45.6767 197.145 45.8088 196.819 45.8698C196.509 45.9257 196.199 45.9664 195.91 45.9664C195 45.9664 194.441 45.697 194.248 44.7874L194.207 44.767L194.212 44.7772ZM194.095 41.5705H191.737C190.772 41.5705 190.152 41.9161 190.152 43.1916C190.152 44.0403 190.441 44.3097 191.351 44.3097C192.179 44.3097 193.358 43.8269 194.095 43.4V41.5654V41.5705Z"
    fill="white"
  />
<path
    d="M204.193 38.8654C204.427 38.8654 204.524 38.9416 204.524 39.1754V40.1613C204.524 40.3951 204.427 40.4713 204.193 40.4713H198.593C198.379 40.4713 198.263 40.3951 198.263 40.1613V39.1754C198.263 38.9416 198.379 38.8654 198.593 38.8654H204.193Z"
    fill="white"
  />
<path
    d="M146.62 59.5605L148.089 57.67L151.331 53.6756C151.504 53.4825 151.661 53.386 151.966 53.386H153.725C153.994 53.386 154.07 53.5791 153.898 53.7722L149.705 58.8693L154.03 65.8011C154.182 66.0501 154.05 66.2076 153.837 66.2076H152.058C151.728 66.2076 151.595 66.0704 151.438 65.8417L148.272 60.5921L146.574 62.696V65.8417C146.574 66.0552 146.498 66.2076 146.229 66.2076H144.781C144.511 66.2076 144.394 66.0907 144.394 65.8417V53.7722C144.394 53.5232 144.511 53.386 144.781 53.386H146.229C146.498 53.386 146.574 53.5384 146.574 53.7722V59.5656H146.615L146.62 59.5605Z"
    fill="white"
  />
<path
    d="M158.146 66.3595C154.263 66.3595 154.014 63.5238 154.014 61.3182C154.014 59.504 154.421 56.5514 158.146 56.5514C161.871 56.5514 162.415 59.0415 162.415 61.3182C162.415 63.5949 162.145 66.3595 158.146 66.3595ZM158.166 58.4063C156.525 58.4063 156.159 59.4481 156.159 61.4554C156.159 63.4628 156.525 64.5046 158.146 64.5046C159.904 64.5046 160.25 63.5187 160.25 61.4554C160.25 59.3922 159.92 58.4063 158.166 58.4063Z"
    fill="white"
  />
<path
    d="M177.01 66.2015H175.617C175.348 66.2015 175.251 66.0846 175.251 65.8356V60.3522C175.251 58.9242 174.906 58.5177 173.94 58.5177C173.224 58.5177 172.065 59.0767 171.47 59.3867C171.47 59.5798 171.491 59.9253 171.491 60.3726V65.8356C171.491 66.0694 171.415 66.2015 171.125 66.2015H169.717C169.468 66.2015 169.387 66.0846 169.387 65.8356V60.2557C169.387 59.0767 169.077 58.5177 168.111 58.5177C167.435 58.5177 166.353 59.0004 165.621 59.3867V65.8356C165.621 66.0694 165.525 66.2015 165.255 66.2015H163.863C163.614 66.2015 163.517 66.0846 163.517 65.8356V57.1252C163.517 56.8762 163.614 56.739 163.863 56.739H165.235C165.525 56.739 165.621 56.8914 165.621 57.1252V57.6842L165.642 57.7045C166.394 57.1811 167.456 56.6068 168.518 56.5662C169.636 56.5662 170.566 56.8 171.166 57.918C172.131 57.2014 173.325 56.5662 174.565 56.5662C177.117 56.5662 177.366 58.228 177.366 60.1591V65.8356C177.366 66.0694 177.289 66.2015 177.02 66.2015H177.01Z"
    fill="white"
  />
<path
    d="M192.154 66.2015H190.761C190.492 66.2015 190.396 66.0846 190.396 65.8356V60.3522C190.396 58.9242 190.05 58.5177 189.084 58.5177C188.368 58.5177 187.209 59.0767 186.615 59.3867C186.615 59.5798 186.635 59.9253 186.635 60.3726V65.8356C186.635 66.0694 186.559 66.2015 186.269 66.2015H184.861C184.612 66.2015 184.531 66.0846 184.531 65.8356V60.2557C184.531 59.0767 184.221 58.5177 183.255 58.5177C182.58 58.5177 181.497 59.0004 180.765 59.3867V65.8356C180.765 66.0694 180.669 66.2015 180.399 66.2015H179.007C178.758 66.2015 178.661 66.0846 178.661 65.8356V57.1252C178.661 56.8762 178.758 56.739 179.007 56.739H180.379C180.669 56.739 180.765 56.8914 180.765 57.1252V57.6842L180.786 57.7045C181.538 57.1811 182.6 56.6068 183.662 56.5662C184.78 56.5662 185.71 56.8 186.31 57.918C187.275 57.2014 188.469 56.5662 189.709 56.5662C192.261 56.5662 192.51 58.228 192.51 60.1591V65.8356C192.51 66.0694 192.433 66.2015 192.164 66.2015H192.154Z"
    fill="white"
  />
<path
    d="M195.168 55.3511C194.161 55.3511 194.029 54.7921 194.029 54.2331C194.029 53.6131 194.243 53.1303 195.168 53.1303C196.093 53.1303 196.306 53.5725 196.306 54.2331C196.306 54.8328 196.133 55.3511 195.168 55.3511ZM196.189 65.8351C196.189 66.0486 196.113 66.201 195.844 66.201H194.471C194.202 66.201 194.085 66.0841 194.085 65.8351V57.1095C194.085 56.8401 194.202 56.7436 194.471 56.7436H195.844C196.113 56.7436 196.189 56.896 196.189 57.1095V65.8351Z"
    fill="white"
  />
<path
    d="M200.976 66.3595C200.011 66.3595 198.715 66.2223 197.983 65.9326C197.597 65.7802 197.521 65.6023 197.576 65.2974L197.714 64.6621C197.77 64.3521 197.907 64.3318 198.217 64.3725C199.065 64.5097 200.3 64.6062 200.961 64.6062C202.196 64.6062 202.699 64.2759 202.699 63.5035C202.699 62.6141 202.369 62.421 201.154 62.2482C199.264 61.9789 197.602 61.5723 197.602 59.4684C197.602 57.5576 199.071 56.5514 201.23 56.5514C202.023 56.5514 203.355 56.6683 204.168 56.9783C204.498 57.1155 204.63 57.2679 204.574 57.5576L204.422 58.2538C204.366 58.5232 204.249 58.5638 203.898 58.5232C203.07 58.4266 201.988 58.3097 201.271 58.3097C200.036 58.3097 199.746 58.6553 199.746 59.3922C199.746 60.1291 200.209 60.2409 201.388 60.434C203.222 60.7033 204.884 61.0692 204.884 63.3713C204.884 65.6734 202.973 66.3646 200.986 66.3646L200.976 66.3595Z"
    fill="white"
  />
<path
    d="M209.072 66.3595C208.106 66.3595 206.81 66.2223 206.079 65.9326C205.692 65.7802 205.616 65.6023 205.672 65.2974L205.809 64.6621C205.865 64.3521 206.002 64.3318 206.312 64.3725C207.161 64.5097 208.396 64.6062 209.057 64.6062C210.292 64.6062 210.795 64.2759 210.795 63.5035C210.795 62.6141 210.464 62.421 209.25 62.2482C207.359 61.9789 205.698 61.5723 205.698 59.4684C205.698 57.5576 207.166 56.5514 209.326 56.5514C210.119 56.5514 211.45 56.6683 212.263 56.9783C212.594 57.1155 212.726 57.2679 212.67 57.5576L212.517 58.2538C212.462 58.5232 212.345 58.5638 211.994 58.5232C211.166 58.4266 210.083 58.3097 209.367 58.3097C208.132 58.3097 207.842 58.6553 207.842 59.3922C207.842 60.1291 208.305 60.2409 209.484 60.434C211.318 60.7033 212.98 61.0692 212.98 63.3713C212.98 65.6734 211.069 66.3646 209.082 66.3646L209.072 66.3595Z"
    fill="white"
  />
<path
    d="M215.348 55.3511C214.342 55.3511 214.21 54.7921 214.21 54.2331C214.21 53.6131 214.423 53.1303 215.348 53.1303C216.273 53.1303 216.486 53.5725 216.486 54.2331C216.486 54.8328 216.314 55.3511 215.348 55.3511ZM216.369 65.8351C216.369 66.0486 216.293 66.201 216.024 66.201H214.652C214.382 66.201 214.266 66.0841 214.266 65.8351V57.1095C214.266 56.8401 214.382 56.7436 214.652 56.7436H216.024C216.293 56.7436 216.369 56.896 216.369 57.1095V65.8351Z"
    fill="white"
  />
<path
    d="M221.929 66.3595C218.046 66.3595 217.797 63.5238 217.797 61.3182C217.797 59.504 218.204 56.5514 221.929 56.5514C225.654 56.5514 226.198 59.0415 226.198 61.3182C226.198 63.5949 225.928 66.3595 221.929 66.3595ZM221.949 58.4063C220.308 58.4063 219.942 59.4481 219.942 61.4554C219.942 63.4628 220.308 64.5046 221.929 64.5046C223.687 64.5046 224.033 63.5187 224.033 61.4554C224.033 59.3922 223.702 58.4063 221.949 58.4063Z"
    fill="white"
  />
<path
    d="M235.122 66.2015H233.729C233.48 66.2015 233.363 66.0846 233.363 65.8356L233.384 60.4081C233.384 59.2698 233.114 58.5177 231.991 58.5177C231.219 58.5177 229.867 59.1376 229.344 59.3867V65.8356C229.344 66.0694 229.247 66.2015 228.978 66.2015H227.606C227.336 66.2015 227.24 66.0846 227.24 65.8356V57.1252C227.24 56.8762 227.336 56.739 227.606 56.739H228.978C229.247 56.739 229.344 56.8762 229.344 57.1252V57.7045C229.344 57.7045 229.384 57.7249 229.4 57.7249C230.116 57.2218 231.468 56.5662 232.642 56.5662C235.249 56.5662 235.478 58.2839 235.478 60.2353V65.8356C235.478 66.0694 235.401 66.2015 235.112 66.2015H235.122Z"
    fill="white"
  />
<path
    d="M238.735 62.0549C238.791 64.0064 239.487 64.5451 241.073 64.5451C241.769 64.5451 242.851 64.4079 243.583 64.3316C243.929 64.291 244.046 64.291 244.107 64.662L244.223 65.2972C244.279 65.5869 244.244 65.7393 243.893 65.8969C243.141 66.1865 241.733 66.3796 240.783 66.3796C237.093 66.3796 236.555 64.0267 236.555 61.5163C236.555 59.641 236.9 56.5563 240.666 56.5563C244.122 56.5563 244.742 58.7974 244.798 60.881C244.818 61.5772 244.625 62.06 243.852 62.06H238.735V62.0549ZM238.75 60.6066H242.572C242.572 59.4276 242.262 58.2892 240.661 58.2892C239.233 58.2892 238.847 59.1582 238.75 60.6066Z"
    fill="white"
  />
<path
    d="M253.584 66.2015H252.192C251.943 66.2015 251.826 66.0846 251.826 65.8356L251.846 60.4081C251.846 59.2698 251.577 58.5177 250.454 58.5177C249.681 58.5177 248.33 59.1376 247.811 59.3867V65.8356C247.811 66.0694 247.715 66.2015 247.445 66.2015H246.073C245.804 66.2015 245.707 66.0846 245.707 65.8356V57.1252C245.707 56.8762 245.804 56.739 246.073 56.739H247.445C247.715 56.739 247.811 56.8762 247.811 57.1252V57.7045C247.811 57.7045 247.852 57.7249 247.867 57.7249C248.584 57.2218 249.935 56.5662 251.109 56.5662C253.716 56.5662 253.945 58.2839 253.945 60.2353V65.8356C253.945 66.0694 253.869 66.2015 253.579 66.2015H253.584Z"
    fill="white"
  />
</svg>
