<svg
  width="290"
  height="72"
  viewBox="0 0 290 72"
  fill="none"
  xmlns="http://www.w3.org/2000/svg"
>
<path
    d="M29.0595 64.8961H84.7641L84.759 28.8354L29.0544 28.8405L29.0595 64.8961Z"
    fill="#003399"
  />
<path
    d="M57.4401 33.3809H59.4717L57.8331 34.6449L58.4712 36.6472L56.8429 35.4135L55.2146 36.6472L55.8526 34.6449L54.2039 33.3809H56.2303L56.8429 31.4292L57.4401 33.3809Z"
    fill="#FFED00"
  />
<path
    d="M57.5115 59.1573H59.5431L57.9097 60.3759L58.5426 62.3023L56.9143 61.1141L55.286 62.3023L55.9292 60.3759L54.2753 59.1573H56.3018L56.9143 57.2815L57.5115 59.1573Z"
    fill="#FFED00"
  />
<path
    d="M63.9482 57.4534H65.9849L64.3464 58.6669L64.9844 60.5933L63.351 59.4051L61.7227 60.5933L62.3659 58.6669L60.712 57.4534H62.7385L63.351 55.5725L63.9482 57.4534Z"
    fill="#FFED00"
  />
<path
    d="M63.9482 35.1H65.9849L64.3464 36.3185L64.9844 38.2449L63.351 37.0567L61.7227 38.2449L62.3659 36.3185L60.712 35.1H62.7385L63.351 33.2241L63.9482 35.1Z"
    fill="#FFED00"
  />
<path
    d="M68.7311 39.8377H70.7575L69.1241 41.0512L69.7571 42.9776L68.1288 41.7894L66.5005 42.9776L67.1436 41.0512L65.4898 39.8377H67.5162L68.1288 37.9568L68.7311 39.8377Z"
    fill="#FFED00"
  />
<path
    d="M68.7311 52.7814H70.7575L69.1241 53.9999L69.7571 55.9263L68.1288 54.7381L66.5005 55.9263L67.1436 53.9999L65.4898 52.7814H67.5162L68.1288 50.9055L68.7311 52.7814Z"
    fill="#FFED00"
  />
<path
    d="M70.5176 46.2084H72.5543L70.9158 47.4269L71.5487 49.3533L69.9204 48.1651L68.2921 49.3533L68.9353 47.4269L67.2814 46.2084H69.3079L69.9204 44.3325L70.5176 46.2084Z"
    fill="#FFED00"
  />
<path
    d="M50.8809 35.1202H52.9074L51.274 36.3336L51.9069 38.26L50.2786 37.0718L48.6503 38.26L49.2934 36.3336L47.6447 35.1202H49.6661L50.2786 33.2393L50.8809 35.1202Z"
    fill="#FFED00"
  />
<path
    d="M46.2308 39.8528H48.2674L46.6289 41.0663L47.2619 42.9927L45.6336 41.8045L44.0052 42.9927L44.6484 41.0663L42.9946 39.8528H45.021L45.6336 37.9719L46.2308 39.8528Z"
    fill="#FFED00"
  />
<path
    d="M44.5055 46.2286H46.537L44.9036 47.442L45.5366 49.3685L43.9083 48.1853L42.28 49.3685L42.9231 47.442L41.2744 46.2286H43.2957L43.9083 44.3477L44.5055 46.2286Z"
    fill="#FFED00"
  />
<path
    d="M46.2308 52.7965H48.2674L46.6289 54.015L47.2619 55.9414L45.6336 54.7532L44.0052 55.9414L44.6484 54.015L42.9946 52.7965H45.021L45.6336 50.9207L46.2308 52.7965Z"
    fill="#FFED00"
  />
<path
    d="M50.9473 57.4685H52.9737L51.3403 58.682L51.9733 60.6084L50.3449 59.4202L48.7166 60.6084L49.3598 58.682L47.7111 57.4685H49.7324L50.3449 55.5876L50.9473 57.4685Z"
    fill="#FFED00"
  />
<path
    d="M94.9372 0.00505726C94.9372 0.00505726 106.917 18.9101 109.112 22.3736C111.302 25.8371 113.808 28.5826 122.675 30.4433C131.541 32.304 135.4 33.1837 135.4 33.1837V33.8562C135.4 33.8562 129.765 32.668 122.516 31.0652C115.268 29.4624 112.302 28.9214 109 24.3657C106.249 20.5736 94.9372 3.61517 94.9372 3.61517V0V0.00505726Z"
    fill="white"
  />
<path
    d="M94.9372 21.5949C94.9372 21.5949 105.845 32.9157 109 36.1668C112.348 39.6151 116.631 40.8893 122.573 41.941C128.244 42.9421 135.395 44.1 135.395 44.1V44.7371C135.395 44.7371 128.677 43.6449 122.573 42.6135C116.585 41.5972 112.394 41.0309 108.964 37.9011C105.891 35.1 94.9372 24.9219 94.9372 24.9219V21.5898V21.5949Z"
    fill="white"
  />
<path
    d="M94.9372 26.6967C94.9372 26.6967 105.309 36.2377 109 39.499C112.394 42.4973 115.146 43.4327 122.608 44.7422C130.071 46.0518 135.395 46.8658 135.395 46.8658V47.5383C135.395 47.5383 128.642 46.4411 122.573 45.4804C116.503 44.5248 112.634 44.1456 109 41.2282C104.809 37.8608 94.9372 29.8113 94.9372 29.8113V26.6917V26.6967Z"
    fill="white"
  />
<path
    d="M94.9372 32.1321C94.9372 32.1321 106.785 41.4456 109 43.0737C111.215 44.7018 114.145 46.6029 122.644 47.8214C131.071 49.0298 135.395 49.6265 135.395 49.6265V50.3343C135.395 50.3343 127.754 49.2371 122.644 48.6001C117.535 47.963 113.619 47.69 109.036 44.6664C104.574 41.7237 94.9372 35.004 94.9372 35.004V32.1321Z"
    fill="white"
  />
<path
    d="M94.9372 37.3601C94.9372 37.3601 106.82 45.1972 109.071 46.441C111.322 47.6798 113.967 49.7022 122.644 50.7994C131.322 51.8966 135.395 52.3921 135.395 52.3921V53.0646C135.395 53.0646 128.218 52.286 122.608 51.6843C117.004 51.0826 113.18 50.2685 109 47.9983C104.819 45.7331 94.9372 40.0095 94.9372 40.0095V37.3601Z"
    fill="white"
  />
<path
    d="M94.9372 42.5883C94.9372 42.5883 105.442 48.2512 109 50.0158C112.966 51.9878 116.396 52.9333 122.608 53.6664C128.708 54.3844 135.395 55.0821 135.395 55.0821V55.7192C135.395 55.7192 129.213 55.0619 122.608 54.4451C116.059 53.8282 113.727 53.5451 109 51.467C104.773 49.6063 94.9372 45.0658 94.9372 45.0658V42.5833V42.5883Z"
    fill="white"
  />
<path
    d="M94.9372 47.8872C94.9372 47.8872 103.237 51.4063 109.071 53.7018C114.809 55.9569 119.193 56.149 122.68 56.5383C124.216 56.7102 135.395 57.8479 135.395 57.8479V58.485C135.395 58.485 128.718 57.9541 122.644 57.4232C116.57 56.8923 113.951 56.6647 109.036 55.0518C104.059 53.4136 94.9372 50.2636 94.9372 50.2636V47.8923V47.8872Z"
    fill="white"
  />
<path
    d="M94.9372 53.2922C94.9372 53.2922 103.319 55.8658 109.036 57.3524C114.753 58.8389 120 59.4456 122.644 59.6175C125.288 59.7945 135.4 60.6085 135.4 60.6085V61.2102C135.4 61.2102 129.647 60.8209 122.608 60.3254C116.917 59.9259 112.348 59.5012 109 58.7681C105.294 57.9591 94.9372 55.522 94.9372 55.522V53.2922Z"
    fill="white"
  />
<path
    d="M94.9372 58.6062C94.9372 58.6062 101.792 59.7792 109.036 60.9674C114.467 61.8573 121.822 62.4186 122.608 62.454C123.394 62.4893 135.395 63.3034 135.395 63.3034V63.9405C135.395 63.9405 127.713 63.5461 122.608 63.268C117.29 62.9747 112.001 62.6562 109 62.3478C102.272 61.6551 94.9372 60.7349 94.9372 60.7349V58.6062Z"
    fill="white"
  />
<path
    d="M94.9372 64.1074C94.9372 64.1074 105.748 64.5119 109.036 64.5827C112.323 64.6535 135.395 65.5737 135.395 65.5737V66.1956H94.9372V64.1074Z"
    fill="white"
  />
<path
    d="M122.603 33.3656C112.818 31.2774 110.603 27.733 108.959 25.5387C107.315 23.3392 94.9321 5.41504 94.9321 5.41504V8.71167C95.4222 9.34369 106.019 23.8347 108.995 27.6269C112.348 31.8993 117.601 32.8701 122.603 33.9319C127.6 34.9937 135.395 36.4752 135.395 36.4752V35.9089C135.395 35.9089 125.135 33.9016 122.603 33.3656Z"
    fill="white"
  />
<path
    d="M122.603 36.2022C114.569 34.6449 111.317 32.127 108.959 29.0831C106.601 26.0343 94.9321 10.446 94.9321 10.446V14.2786C95.4222 14.85 106.096 27.7534 108.959 30.9994C112.297 34.7865 116.958 35.7826 122.603 36.809C128.249 37.8354 135.39 39.1803 135.39 39.1803V38.614C135.39 38.614 127.238 37.1022 122.603 36.2073V36.2022Z"
    fill="white"
  />
<path
    d="M122.603 39.1399C114.247 37.5321 112.532 36.2124 108.995 32.3748C106.769 29.963 95.4119 16.6804 94.9321 16.1191V19.6585C94.9321 19.6585 105.544 30.8731 108.959 34.1849C113.436 38.5332 117.637 38.8619 122.603 39.7467C127.57 40.6315 135.39 42.0473 135.39 42.0473V41.4456C135.39 41.4456 125.947 39.7871 122.603 39.145V39.1399Z"
    fill="white"
  />
<path
    d="M0.00510552 27.7788C0.00510552 27.7788 27.6711 24.8563 35.4196 23.7793C47.6702 22.0805 57.6953 20.2703 66.9701 6.18887C66.9701 6.18887 66.9803 5.38999 66.9701 5.03101C61.2889 13.5911 53.4536 19.431 42.6628 21.1248C32.1222 22.7833 0 25.2052 0 25.2052V27.7788H0.00510552Z"
    fill="white"
  />
<path
    d="M0.00511169 24.2849C0.00511169 24.2849 25.6446 21.1046 34.0925 19.9315C47.4559 18.081 56.8531 16.4175 66.9701 1.05681C66.9701 1.05681 66.9752 0.394453 66.9701 0.00512695C60.7733 9.3439 53.1218 15.3759 41.351 17.2265C29.8507 19.0366 0.00511169 21.6759 0.00511169 21.6759V24.29V24.2849Z"
    fill="white"
  />
<path d="M26.1806 64.1326H0.020462V66.1854H26.1806V64.1326Z" fill="white" />
<path
    d="M66.9701 22.5708C66.9701 22.5708 66.9854 21.3624 66.9803 21.1045C65.7501 22.9601 64.132 24.6438 62.2638 26.1253H64.0963C65.1274 25.0736 66.0921 23.8955 66.965 22.5708H66.9701Z"
    fill="white"
  />
<path
    d="M66.9701 17.11C66.9701 17.11 66.9803 16.0381 66.9752 15.7449C64.0095 20.2145 59.5942 23.7842 54.4897 26.1505L57.5014 26.1404C60.9826 24.1331 64.2188 21.2814 66.965 17.11H66.9701Z"
    fill="white"
  />
<path
    d="M66.9701 11.6494C66.9701 11.6494 66.9803 10.714 66.9701 10.3904C61.8095 18.1718 53.7853 23.496 43.9746 25.0381C41.6521 25.4022 37.8697 25.8067 33.4748 26.2162L45.4549 26.1758C53.3617 24.4314 60.7631 21.0589 66.9599 11.6494H66.9701Z"
    fill="white"
  />
<path
    d="M26.1857 60.6743C12.8377 60.7451 0.020462 60.8007 0.020462 60.8007V62.9395C0.020462 62.9395 13.4451 62.8434 26.1857 62.7372V60.6743Z"
    fill="white"
  />
<path
    d="M26.1857 57.0034C12.9295 57.15 0.0153351 57.2613 0.0153351 57.2613V59.4456C0.0153351 59.4456 13.5778 59.2686 26.1857 59.0714V57.0034Z"
    fill="white"
  />
<path
    d="M26.1806 53.3225C13.0214 53.55 0.0153351 53.722 0.0153351 53.722V55.9517C0.0153351 55.9517 13.7207 55.6837 26.1806 55.3905V53.3225Z"
    fill="white"
  />
<path
    d="M26.1857 49.6213C13.1235 49.9398 0.0153351 50.1774 0.0153351 50.1774V52.4477C0.0153351 52.4477 13.879 52.0735 26.1857 51.6842V49.6162V49.6213Z"
    fill="white"
  />
<path
    d="M26.1908 45.9102C13.2256 46.3197 0.0153351 46.6433 0.0153351 46.6433V48.959C0.0153351 48.959 14.0474 48.4736 26.1908 47.9781V45.9152V45.9102Z"
    fill="white"
  />
<path
    d="M26.1857 42.1838C13.3226 42.6995 0.0153351 43.104 0.0153351 43.104V45.4602C0.0153351 45.4602 14.2209 44.8433 26.1857 44.2315V42.1787V42.1838Z"
    fill="white"
  />
<path
    d="M26.1908 38.4321C13.4247 39.0591 0.0102234 39.5597 0.0102234 39.5597V41.9613C0.0102234 41.9613 14.4047 41.1979 26.1908 40.4647V38.4321Z"
    fill="white"
  />
<path
    d="M26.1908 34.6602C13.5216 35.4085 0.0102234 36.0203 0.0102234 36.0203V38.4624C0.0102234 38.4624 14.5987 37.5321 26.1908 36.6725V34.6602Z"
    fill="white"
  />
<path
    d="M26.1908 30.8679C13.6084 31.7477 0.0102234 32.4859 0.0102234 32.4859V34.9735C0.0102234 34.9735 14.7926 33.8511 26.1908 32.8601V30.873V30.8679Z"
    fill="white"
  />
<path
    d="M26.1908 27.0405C13.685 28.0669 0.00511169 28.9416 0.00511169 28.9416V31.4697C0.00511169 31.4697 14.9866 30.1248 26.1908 28.9922V27.0405Z"
    fill="white"
  />
<path
    d="M86.0759 66.1906V27.5461H27.7528V66.1906H86.0759ZM84.759 28.8355V64.8962H29.0544V28.8405H84.759V28.8355Z"
    fill="white"
  />
<path d="M230.521 66.1969V27.3577H227.205V66.1969H230.521Z" fill="white" />
<path
    d="M144.394 33.4107C144.394 33.1615 144.511 33.0242 144.781 33.0242H151.891C152.125 33.0242 152.258 33.1615 152.258 33.3904V34.5908C152.258 34.8247 152.161 34.9366 151.871 34.9366H146.596V38.2631H151.271C151.52 38.2631 151.657 38.3801 151.657 38.609V39.8093C151.657 40.0433 151.561 40.1552 151.271 40.1552H146.596V43.9598H152.008C152.242 43.9598 152.354 44.0768 152.354 44.326V45.506C152.354 45.7553 152.258 45.8519 151.988 45.8519H144.781C144.511 45.8519 144.394 45.7349 144.394 45.506V33.4107Z"
    fill="white"
  />
<path
    d="M158.117 43.4763C158.138 43.3237 158.85 41.1773 158.85 41.1773L160.396 36.6911C160.472 36.4775 160.549 36.3809 160.839 36.3809H162.308C162.598 36.3809 162.639 36.5182 162.542 36.7471L159.257 45.4447C159.16 45.7346 159.023 45.8516 158.718 45.8516H157.426C157.08 45.8516 156.983 45.7346 156.886 45.4651L153.601 36.7674C153.524 36.5538 153.56 36.3809 153.814 36.3809H155.34C155.61 36.3809 155.706 36.4368 155.803 36.7267L157.349 41.2485C157.349 41.2485 158.005 43.2983 158.066 43.4712H158.117V43.4763Z"
    fill="white"
  />
<path
    d="M166.388 45.4853C166.388 45.7192 166.291 45.8515 166.021 45.8515H164.628C164.358 45.8515 164.262 45.7345 164.262 45.4853V36.7673C164.262 36.5181 164.358 36.3807 164.628 36.3807H166.001C166.291 36.3807 166.388 36.5333 166.388 36.7673V37.6167L166.428 37.6574C167.008 37.1182 168.382 36.457 169.287 36.2841C169.536 36.2281 169.714 36.2841 169.75 36.6147L169.887 37.9117C169.907 38.1813 169.928 38.2983 169.521 38.3746C168.437 38.5882 167.064 38.9748 166.388 39.2647V45.4853Z"
    fill="white"
  />
<path
    d="M174.892 46.0095C171.006 46.0095 170.757 43.1713 170.757 40.9639C170.757 39.148 171.164 36.1929 174.892 36.1929C178.641 36.1929 179.164 38.6852 179.164 40.9639C179.164 43.1662 178.89 46.0095 174.892 46.0095ZM174.912 38.0494C173.269 38.0494 172.903 39.0921 172.903 41.1012C172.903 43.151 173.269 44.153 174.892 44.153C176.652 44.153 176.998 43.1662 176.998 41.1012C176.998 39.0514 176.672 38.0494 174.912 38.0494Z"
    fill="white"
  />
<path
    d="M185.563 46.0297C184.927 46.0297 184.037 45.9127 183.147 45.6024L183.127 45.6228V49.0255C183.127 49.2392 183.071 49.4121 182.76 49.4121H181.387C181.077 49.4121 181.021 49.2748 181.021 49.0255V36.7726C181.021 36.5233 181.117 36.386 181.387 36.386H182.76C183.03 36.386 183.106 36.5386 183.106 36.7726V37.3524L183.162 37.3931C183.859 36.9099 185.095 36.2334 186.214 36.2334C188.747 36.2334 189.403 38.1459 189.403 41.0654C189.408 44.2139 188.615 46.0297 185.563 46.0297ZM185.716 38.1611C184.922 38.1611 183.706 38.7206 183.127 39.0309V43.8629C183.996 44.1121 184.693 44.1935 185.349 44.1935C186.743 44.1935 187.226 43.4763 187.226 41.0451C187.221 38.5884 186.738 38.1611 185.716 38.1611Z"
    fill="white"
  />
<path
    d="M194.296 46.0095C193.33 46.0095 192.033 45.8722 191.301 45.5822C190.914 45.4297 190.838 45.2516 190.894 44.9465L191.031 44.3107C191.087 44.0004 191.224 43.98 191.535 44.0207C192.384 44.1581 193.62 44.2547 194.281 44.2547C195.517 44.2547 196.021 43.9241 196.021 43.151C196.021 42.2609 195.69 42.0676 194.474 41.8947C192.582 41.6251 190.919 41.2182 190.919 39.1124C190.919 37.2 192.389 36.1929 194.551 36.1929C195.344 36.1929 196.677 36.3099 197.491 36.6201C197.821 36.7575 197.954 36.91 197.898 37.2L197.745 37.8968C197.689 38.1664 197.572 38.2071 197.221 38.1664C196.392 38.0697 195.309 37.9527 194.591 37.9527C193.355 37.9527 193.066 38.2986 193.066 39.0361C193.066 39.7889 193.528 39.8855 194.708 40.0788C196.545 40.3484 198.208 40.7146 198.208 43.0187C198.203 45.2771 196.29 46.0095 194.296 46.0095Z"
    fill="white"
  />
<path
    d="M202.2 39.8805L203.691 38.3139L205.293 36.6914C205.486 36.4981 205.623 36.3608 205.99 36.3608H207.536C207.902 36.3608 207.963 36.5744 207.75 36.8033L204.657 39.9517L208.136 45.3992C208.273 45.6332 208.156 45.8417 207.887 45.8417H206.397C205.99 45.8417 205.857 45.7044 205.72 45.4755L203.248 41.5132L202.144 42.6322V45.4704C202.144 45.684 202.068 45.8366 201.778 45.8366H200.405C200.135 45.8366 200.039 45.7196 200.039 45.4704V32.5816C200.039 32.3324 200.135 32.1951 200.405 32.1951H201.778C202.068 32.1951 202.144 32.3477 202.144 32.5816V39.85L202.2 39.8805Z"
    fill="white"
  />
<path
    d="M215.308 44.7531C214.342 45.4855 213.045 46.0094 211.753 46.0094C209.703 46.0094 209.103 44.8904 209.103 43.2679C209.082 41.0045 210.303 40.0381 212.734 40.0381H215.206V39.5345C215.206 38.3748 214.779 37.9679 213.197 37.9679C212.562 37.9679 211.341 38.0646 210.568 38.1409C210.181 38.1968 210.084 38.1815 210.029 37.9069L209.856 37.1897C209.815 36.9405 209.876 36.7828 210.298 36.6099C211.127 36.32 212.658 36.1826 213.564 36.1826C216.905 36.1826 217.312 37.5559 217.312 39.7176V43.4459C217.312 44.2394 217.409 44.2597 218.009 44.336C218.299 44.3564 218.375 44.4123 218.375 44.6259V45.4398C218.375 45.6534 218.238 45.7856 217.912 45.8467C217.602 45.9026 217.292 45.9433 217.002 45.9433C216.091 45.9433 215.532 45.6737 215.339 44.7633L215.308 44.7531ZM215.191 41.5436H212.831C211.865 41.5436 211.244 41.8895 211.244 43.1662C211.244 44.0156 211.534 44.2852 212.445 44.2852C213.274 44.2852 214.454 43.8019 215.191 43.3747V41.5436Z"
    fill="white"
  />
<path
    d="M146.571 60.2255L148.062 58.6589L149.664 57.0364C149.857 56.8431 149.994 56.7057 150.361 56.7057H151.907C152.273 56.7057 152.334 56.9194 152.121 57.1483L149.028 60.2967L152.507 65.7442C152.644 65.9781 152.527 66.1867 152.258 66.1867H150.773C150.366 66.1867 150.234 66.0493 150.096 65.8205L147.624 61.8582L146.52 62.9772V65.8154C146.52 66.029 146.444 66.1816 146.154 66.1816H144.781C144.511 66.1816 144.415 66.0646 144.415 65.8154V52.9266C144.415 52.6774 144.511 52.54 144.781 52.54H146.154C146.444 52.54 146.52 52.6926 146.52 52.9266V60.195L146.571 60.2255Z"
    fill="white"
  />
<path
    d="M157.456 66.355C153.57 66.355 153.321 63.5168 153.321 61.3093C153.321 59.4935 153.728 56.5383 157.456 56.5383C161.205 56.5383 161.729 59.0306 161.729 61.3093C161.723 63.5117 161.454 66.355 157.456 66.355ZM157.476 58.3948C155.834 58.3948 155.467 59.4375 155.467 61.4466C155.467 63.4964 155.834 64.4985 157.456 64.4985C159.216 64.4985 159.562 63.5117 159.562 61.4466C159.562 59.3969 159.231 58.3948 157.476 58.3948Z"
    fill="white"
  />
<path
    d="M177.11 66.1969H175.716C175.446 66.1969 175.35 66.0799 175.35 65.8307V60.3425C175.35 58.9133 175.004 58.5064 174.038 58.5064C173.32 58.5064 172.161 59.0659 171.566 59.3761C171.566 59.5694 171.586 59.9153 171.586 60.3629V65.8307C171.586 66.0647 171.51 66.1969 171.22 66.1969H169.811C169.562 66.1969 169.48 66.0799 169.48 65.8307V60.2459C169.48 59.0659 169.17 58.5064 168.203 58.5064C167.527 58.5064 166.444 58.9896 165.711 59.3761V65.8307C165.711 66.0647 165.615 66.1969 165.345 66.1969H163.951C163.702 66.1969 163.605 66.0799 163.605 65.8307V57.1127C163.605 56.8635 163.702 56.7262 163.951 56.7262H165.325C165.615 56.7262 165.711 56.8788 165.711 57.1127V57.6722L165.732 57.6926C166.484 57.1687 167.547 56.5888 168.61 56.5532C169.729 56.5532 170.66 56.7872 171.26 57.9062C172.227 57.189 173.422 56.5532 174.663 56.5532C177.216 56.5532 177.466 58.2165 177.466 60.1493V65.8307C177.461 66.0647 177.379 66.1969 177.11 66.1969Z"
    fill="white"
  />
<path
    d="M180.899 55.3377C179.892 55.3377 179.76 54.7782 179.76 54.2187C179.76 53.5982 179.973 53.115 180.899 53.115C181.845 53.115 182.038 53.5575 182.038 54.2187C182.038 54.8189 181.865 55.3377 180.899 55.3377ZM181.926 65.8308C181.926 66.0445 181.85 66.197 181.581 66.197H180.207C179.938 66.197 179.821 66.0801 179.821 65.8308V57.0976C179.821 56.828 179.938 56.7314 180.207 56.7314H181.581C181.85 56.7314 181.926 56.884 181.926 57.0976V65.8308Z"
    fill="white"
  />
<path
    d="M187.491 66.355C186.524 66.355 185.227 66.2176 184.495 65.9277C184.108 65.7751 184.032 65.5971 184.088 65.2919L184.225 64.6561C184.281 64.3459 184.419 64.3255 184.729 64.3662C185.578 64.5035 186.814 64.6002 187.476 64.6002C188.711 64.6002 189.215 64.2696 189.215 63.4964C189.215 62.6063 188.884 62.4131 187.669 62.2401C185.777 61.9705 184.113 61.5636 184.113 59.4579C184.113 57.5454 185.583 56.5383 187.745 56.5383C188.539 56.5383 189.871 56.6553 190.685 56.9656C191.016 57.1029 191.148 57.2555 191.092 57.5454L190.939 58.2423C190.883 58.5118 190.766 58.5525 190.415 58.5118C189.586 58.4152 188.503 58.2982 187.786 58.2982C186.55 58.2982 186.26 58.6441 186.26 59.3816C186.26 60.1344 186.723 60.231 187.903 60.4243C189.739 60.6939 191.402 61.0601 191.402 63.3642C191.392 65.6225 189.48 66.355 187.491 66.355Z"
    fill="white"
  />
<path
    d="M194.546 55.3377C193.538 55.3377 193.406 54.7782 193.406 54.2187C193.406 53.5982 193.62 53.115 194.546 53.115C195.492 53.115 195.685 53.5575 195.685 54.2187C195.685 54.8189 195.512 55.3377 194.546 55.3377ZM195.568 65.8308C195.568 66.0445 195.492 66.197 195.222 66.197H193.849C193.579 66.197 193.462 66.0801 193.462 65.8308V57.0976C193.462 56.828 193.579 56.7314 193.849 56.7314H195.222C195.492 56.7314 195.568 56.884 195.568 57.0976V65.8308Z"
    fill="white"
  />
<path
    d="M200.634 66.4107C200.634 68.9233 199.571 70.3322 196.326 70.2152C196.188 70.2152 195.919 70.139 195.898 69.8287L195.822 68.9182C195.781 68.608 195.863 68.552 196.132 68.491C197.948 68.1248 198.508 67.9518 198.508 66.4412V57.0874C198.508 56.8178 198.625 56.7212 198.894 56.7212H200.247C200.537 56.7212 200.634 56.8738 200.634 57.0874V66.4107ZM199.571 55.3377C198.564 55.3377 198.431 54.7782 198.431 54.2187C198.431 53.5982 198.665 53.115 199.571 53.115C200.517 53.115 200.71 53.5575 200.71 54.2187C200.71 54.8189 200.537 55.3377 199.571 55.3377Z"
    fill="white"
  />
<path
    d="M209.021 65.0988C208.055 65.8312 206.758 66.3551 205.466 66.3551C203.416 66.3551 202.816 65.2361 202.816 63.6136C202.796 61.3502 204.016 60.3838 206.448 60.3838H208.92V59.8802C208.92 58.7205 208.492 58.3136 206.911 58.3136C206.275 58.3136 205.054 58.4103 204.281 58.4866C203.894 58.5425 203.798 58.5273 203.742 58.2526L203.569 57.5354C203.528 57.2862 203.589 57.1285 204.011 56.9556C204.84 56.6656 206.371 56.5283 207.277 56.5283C210.619 56.5283 211.025 57.9016 211.025 60.0633V63.7916C211.025 64.5851 211.122 64.6054 211.722 64.6817C212.012 64.7021 212.088 64.758 212.088 64.9716V65.7855C212.088 65.9991 211.951 66.1313 211.626 66.1924C211.315 66.2483 211.005 66.289 210.715 66.289C209.805 66.289 209.245 66.0194 209.052 65.109L209.021 65.0988ZM208.904 61.8893H206.544C205.578 61.8893 204.957 62.2352 204.957 63.5119C204.957 64.3613 205.247 64.6309 206.158 64.6309C206.987 64.6309 208.167 64.1477 208.904 63.7204V61.8893Z"
    fill="white"
  />
</svg>
