<svg
  width="290"
  height="72"
  viewBox="0 0 290 72"
  fill="none"
  xmlns="http://www.w3.org/2000/svg"
>
<path
    d="M29.2809 65.3906H85.41L85.4049 29.0551L29.2758 29.0602L29.2809 65.3906Z"
    fill="#003399"
  />
<path
    d="M57.8778 33.6353H59.9249L58.2738 34.909L58.9168 36.9265L57.276 35.6834L55.6353 36.9265L56.2782 34.909L54.6169 33.6353H56.6588L57.276 31.6688L57.8778 33.6353Z"
    fill="#FFED00"
  />
<path
    d="M57.9498 59.6082H59.9969L58.351 60.836L58.9888 62.7771L57.348 61.5799L55.7073 62.7771L56.3554 60.836L54.6889 59.6082H56.7309L57.348 57.7181L57.9498 59.6082Z"
    fill="#FFED00"
  />
<path
    d="M64.4355 57.8913H66.4877L64.8367 59.114L65.4797 61.0551L63.8338 59.8578L62.1931 61.0551L62.8411 59.114L61.1747 57.8913H63.2166L63.8338 55.996L64.4355 57.8913Z"
    fill="#FFED00"
  />
<path
    d="M64.4355 35.3676H66.4877L64.8367 36.5954L65.4797 38.5365L63.8338 37.3392L62.1931 38.5365L62.8411 36.5954L61.1747 35.3676H63.2166L63.8338 33.4774L64.4355 35.3676Z"
    fill="#FFED00"
  />
<path
    d="M69.2548 40.1413H71.2967L69.6509 41.3641L70.2887 43.3051L68.6479 42.1079L67.0072 43.3051L67.6553 41.3641L65.9888 40.1413H68.0307L68.6479 38.2461L69.2548 40.1413Z"
    fill="#FFED00"
  />
<path
    d="M69.2548 53.1837H71.2967L69.6509 54.4115L70.2887 56.3526L68.6479 55.1554L67.0072 56.3526L67.6553 54.4115L65.9888 53.1837H68.0307L68.6479 51.2936L69.2548 53.1837Z"
    fill="#FFED00"
  />
<path
    d="M71.055 46.5606H73.1072L71.4562 47.7884L72.094 49.7295L70.4533 48.5323L68.8125 49.7295L69.4606 47.7884L67.7942 46.5606H69.836L70.4533 44.6705L71.055 46.5606Z"
    fill="#FFED00"
  />
<path
    d="M51.2686 35.3879H53.3106L51.6647 36.6106L52.3025 38.5517L50.6617 37.3545L49.021 38.5517L49.6691 36.6106L48.0078 35.3879H50.0445L50.6617 33.4927L51.2686 35.3879Z"
    fill="#FFED00"
  />
<path
    d="M46.5831 40.1565H48.6353L46.9843 41.3793L47.622 43.3203L45.9813 42.1231L44.3406 43.3203L44.9886 41.3793L43.3222 40.1565H45.3641L45.9813 38.2613L46.5831 40.1565Z"
    fill="#FFED00"
  />
<path
    d="M44.8446 46.581H46.8917L45.2458 47.8038L45.8836 49.7448L44.2429 48.5527L42.6021 49.7448L43.2502 47.8038L41.5889 46.581H43.6257L44.2429 44.6858L44.8446 46.581Z"
    fill="#FFED00"
  />
<path
    d="M46.5831 53.199H48.6353L46.9843 54.4269L47.622 56.368L45.9813 55.1707L44.3406 56.368L44.9886 54.4269L43.3222 53.199H45.3641L45.9813 51.3089L46.5831 53.199Z"
    fill="#FFED00"
  />
<path
    d="M51.3355 57.9065H53.3774L51.7316 59.1293L52.3693 61.0703L50.7286 59.8731L49.0879 61.0703L49.7359 59.1293L48.0746 57.9065H50.1114L50.7286 56.0113L51.3355 57.9065Z"
    fill="#FFED00"
  />
<path
    d="M95.6607 0.0050958C95.6607 0.0050958 107.732 19.0542 109.944 22.5441C112.15 26.034 114.676 28.8004 123.61 30.6753C132.543 32.5501 136.432 33.4366 136.432 33.4366V34.1142C136.432 34.1142 130.754 32.9169 123.45 31.3019C116.147 29.6869 113.158 29.1418 109.831 24.5514C107.058 20.7304 95.6607 3.64272 95.6607 3.64272V0V0.0050958Z"
    fill="white"
  />
<path
    d="M95.6607 21.7595C95.6607 21.7595 106.652 33.1666 109.831 36.4425C113.205 39.917 117.52 41.2009 123.507 42.2606C129.221 43.2694 136.427 44.4361 136.427 44.4361V45.078C136.427 45.078 129.658 43.9775 123.507 42.9382C117.474 41.9142 113.251 41.3436 109.795 38.1899C106.698 35.3675 95.6607 25.1118 95.6607 25.1118V21.7544V21.7595Z"
    fill="white"
  />
<path
    d="M95.6607 26.9001C95.6607 26.9001 106.112 36.5138 109.831 39.7999C113.251 42.821 116.023 43.7636 123.543 45.0831C131.062 46.4026 136.427 47.2229 136.427 47.2229V47.9005C136.427 47.9005 129.622 46.7949 123.507 45.8269C117.391 44.864 113.493 44.4819 109.831 41.5423C105.608 38.1492 95.6607 30.0384 95.6607 30.0384V26.895V26.9001Z"
    fill="white"
  />
<path
    d="M95.6607 32.377C95.6607 32.377 107.598 41.7614 109.831 43.4019C112.063 45.0424 115.015 46.958 123.579 48.1858C132.07 49.4035 136.427 50.0047 136.427 50.0047V50.7179C136.427 50.7179 128.727 49.6124 123.579 48.9704C118.43 48.3285 114.485 48.0534 109.867 45.0067C105.371 42.0416 95.6607 35.2708 95.6607 35.2708V32.377Z"
    fill="white"
  />
<path
    d="M95.6607 37.6448C95.6607 37.6448 107.634 45.5416 109.903 46.7949C112.171 48.0431 114.835 50.081 123.579 51.1866C132.322 52.2921 136.427 52.7914 136.427 52.7914V53.469C136.427 53.469 129.195 52.6844 123.543 52.0782C117.895 51.4719 114.043 50.6516 109.831 48.3641C105.618 46.0817 95.6607 40.3145 95.6607 40.3145V37.6448Z"
    fill="white"
  />
<path
    d="M95.6607 42.9128C95.6607 42.9128 106.246 48.6189 109.831 50.3969C113.827 52.3839 117.283 53.3366 123.543 54.0753C129.689 54.7988 136.427 55.5018 136.427 55.5018V56.1438C136.427 56.1438 130.198 55.4815 123.543 54.8599C116.944 54.2384 114.593 53.9531 109.831 51.8591C105.572 49.9843 95.6607 45.4092 95.6607 45.4092V42.9077V42.9128Z"
    fill="white"
  />
<path
    d="M95.6607 48.2521C95.6607 48.2521 104.024 51.798 109.903 54.111C115.684 56.3832 120.102 56.5768 123.615 56.9691C125.163 57.1424 136.427 58.2887 136.427 58.2887V58.9306C136.427 58.9306 129.699 58.3957 123.579 57.8607C117.458 57.3258 114.82 57.0965 109.867 55.4713C104.852 53.8206 95.6607 50.6466 95.6607 50.6466V48.2572V48.2521Z"
    fill="white"
  />
<path
    d="M95.6607 53.6983C95.6607 53.6983 104.106 56.2915 109.867 57.7894C115.627 59.2872 120.914 59.8986 123.579 60.0718C126.243 60.2501 136.432 61.0704 136.432 61.0704V61.6766C136.432 61.6766 130.635 61.2843 123.543 60.7851C117.808 60.3826 113.205 59.9546 109.831 59.2159C106.097 58.4007 95.6607 55.9451 95.6607 55.9451V53.6983Z"
    fill="white"
  />
<path
    d="M95.6607 59.0528C95.6607 59.0528 102.568 60.2348 109.867 61.432C115.339 62.3287 122.751 62.8942 123.543 62.9299C124.335 62.9655 136.427 63.7858 136.427 63.7858V64.4277C136.427 64.4277 128.686 64.0303 123.543 63.7501C118.183 63.4546 112.855 63.1337 109.831 62.8229C103.052 62.1249 95.6607 61.1977 95.6607 61.1977V59.0528Z"
    fill="white"
  />
<path
    d="M95.6607 64.5959C95.6607 64.5959 106.554 65.0035 109.867 65.0749C113.179 65.1462 136.427 66.0734 136.427 66.0734V66.7001H95.6607V64.5959Z"
    fill="white"
  />
<path
    d="M123.538 33.62C113.678 31.5159 111.446 27.9445 109.789 25.7334C108.133 23.5172 95.6555 5.45642 95.6555 5.45642V8.77817C96.1493 9.41501 106.827 24.0165 109.825 27.8375C113.205 32.1425 118.497 33.1207 123.538 34.1906C128.573 35.2605 136.427 36.7532 136.427 36.7532V36.1826C136.427 36.1826 126.089 34.16 123.538 33.62Z"
    fill="white"
  />
<path
    d="M123.538 36.4782C115.442 34.909 112.166 32.3718 109.789 29.3048C107.413 26.2327 95.6555 10.5257 95.6555 10.5257V14.3875C96.1493 14.9632 106.904 27.9649 109.789 31.2357C113.153 35.0516 117.849 36.0553 123.538 37.0895C129.226 38.1238 136.422 39.479 136.422 39.479V38.9083C136.422 38.9083 128.208 37.385 123.538 36.4833V36.4782Z"
    fill="white"
  />
<path
    d="M123.538 39.4382C115.118 37.8181 113.39 36.4884 109.825 32.6215C107.583 30.1913 96.139 16.8075 95.6555 16.242V19.8083C95.6555 19.8083 106.349 31.1084 109.789 34.4454C114.3 38.8269 118.533 39.158 123.538 40.0496C128.542 40.9412 136.422 42.3677 136.422 42.3677V41.7614C136.422 41.7614 126.906 40.0904 123.538 39.4433V39.4382Z"
    fill="white"
  />
<path
    d="M0.00514442 27.9904C0.00514442 27.9904 27.882 25.0456 35.6895 23.9605C48.0335 22.2486 58.135 20.4247 67.4804 6.23596C67.4804 6.23596 67.4907 5.431 67.4804 5.06927C61.7559 13.6946 53.8609 19.579 42.9879 21.2857C32.3669 22.9568 0 25.3972 0 25.3972V27.9904H0.00514442Z"
    fill="white"
  />
<path
    d="M0.00515747 24.4699C0.00515747 24.4699 25.8401 21.2654 34.3523 20.0834C47.8175 18.2187 57.2864 16.5426 67.4804 1.06483C67.4804 1.06483 67.4856 0.39742 67.4804 0.00512695C61.2364 9.41506 53.5266 15.4931 41.6661 17.3577C30.0782 19.1816 0.00515747 21.8411 0.00515747 21.8411V24.475V24.4699Z"
    fill="white"
  />
<path d="M26.3802 64.6213H0.0206146V66.6898H26.3802V64.6213Z" fill="white" />
<path
    d="M67.4804 22.7427C67.4804 22.7427 67.4959 21.5251 67.4907 21.2653C66.2512 23.135 64.6207 24.8316 62.7383 26.3243H64.5847C65.6237 25.2646 66.5958 24.0775 67.4753 22.7427H67.4804Z"
    fill="white"
  />
<path
    d="M67.4804 17.2405C67.4804 17.2405 67.4907 16.1604 67.4856 15.8649C64.4973 20.3687 60.0483 23.9655 54.905 26.3498L57.9396 26.3397C61.4473 24.3171 64.7082 21.4436 67.4753 17.2405H67.4804Z"
    fill="white"
  />
<path
    d="M67.4804 11.7382C67.4804 11.7382 67.4907 10.7957 67.4804 10.4696C62.2805 18.3104 54.1952 23.6751 44.3097 25.229C41.9695 25.5958 38.1583 26.0034 33.7299 26.4161L45.8013 26.3753C53.7683 24.6176 61.2261 21.2195 67.4701 11.7382H67.4804Z"
    fill="white"
  />
<path
    d="M26.3853 61.1365C12.9355 61.2079 0.0206146 61.2639 0.0206146 61.2639V63.419C0.0206146 63.419 13.5476 63.3222 26.3853 63.2152V61.1365Z"
    fill="white"
  />
<path
    d="M26.3853 57.4378C13.0281 57.5856 0.0154572 57.6976 0.0154572 57.6976V59.8986C0.0154572 59.8986 13.6813 59.7202 26.3853 59.5215V57.4378Z"
    fill="white"
  />
<path
    d="M26.3801 53.7288C13.1206 53.9581 0.0154572 54.1313 0.0154572 54.1313V56.3781C0.0154572 56.3781 13.8253 56.1081 26.3801 55.8126V53.7288Z"
    fill="white"
  />
<path
    d="M26.3853 49.9995C13.2235 50.3205 0.0154572 50.56 0.0154572 50.56V52.8475C0.0154572 52.8475 13.9847 52.4705 26.3853 52.0782V49.9944V49.9995Z"
    fill="white"
  />
<path
    d="M26.3904 46.26C13.3264 46.6727 0.0154572 46.9987 0.0154572 46.9987V49.3321C0.0154572 49.3321 14.1545 48.843 26.3904 48.3438V46.2651V46.26Z"
    fill="white"
  />
<path
    d="M26.3853 42.5052C13.4241 43.0249 0.0154572 43.4325 0.0154572 43.4325V45.8066C0.0154572 45.8066 14.3293 45.185 26.3853 44.5686V42.5001V42.5052Z"
    fill="white"
  />
<path
    d="M26.3904 38.7249C13.527 39.3567 0.0102997 39.861 0.0102997 39.861V42.281C0.0102997 42.281 14.5145 41.5117 26.3904 40.773V38.7249Z"
    fill="white"
  />
<path
    d="M26.3904 34.9243C13.6247 35.6783 0.0102997 36.2948 0.0102997 36.2948V38.7555C0.0102997 38.7555 14.7099 37.8181 26.3904 36.952V34.9243Z"
    fill="white"
  />
<path
    d="M26.3904 31.1033C13.7121 31.9898 0.0102997 32.7336 0.0102997 32.7336V35.2402C0.0102997 35.2402 14.9054 34.1091 26.3904 33.1106V31.1084V31.1033Z"
    fill="white"
  />
<path
    d="M26.3904 27.2465C13.7893 28.2807 0.00515747 29.1621 0.00515747 29.1621V31.7095C0.00515747 31.7095 15.1008 30.3543 26.3904 29.2131V27.2465Z"
    fill="white"
  />
<path
    d="M86.7319 66.6949V27.756H27.9642V66.6949H86.7319ZM85.4049 29.0551V65.3906H29.2758V29.0602H85.4049V29.0551Z"
    fill="white"
  />
<path
    d="M145.536 33.6795C145.536 33.4286 145.653 33.2903 145.925 33.2903H153.083C153.318 33.2903 153.452 33.4286 153.452 33.659V34.8674C153.452 35.1029 153.354 35.2156 153.062 35.2156H147.753V38.5642H152.458C152.709 38.5642 152.847 38.682 152.847 38.9124V40.1207C152.847 40.3563 152.75 40.4689 152.458 40.4689H147.753V44.2989H153.201C153.436 44.2989 153.549 44.4166 153.549 44.6675V45.8554C153.549 46.1063 153.452 46.2036 153.18 46.2036H145.925C145.653 46.2036 145.536 46.0858 145.536 45.8554V33.6744V33.6795Z"
    fill="white"
  />
<path
    d="M163.354 46.2034H161.972C161.68 46.2034 161.603 46.0652 161.603 45.8348V45.2306L161.562 45.2101C160.804 45.7375 159.478 46.3775 158.295 46.3775C155.669 46.3775 155.418 44.821 155.418 42.778V37.0587C155.418 36.8232 155.515 36.6696 155.787 36.6696H157.205C157.456 36.6696 157.553 36.8078 157.553 37.0587V42.5271C157.553 43.6945 157.789 44.4318 158.971 44.4318C159.806 44.4318 161.091 43.8072 161.598 43.5563V37.0587C161.598 36.8232 161.675 36.6696 161.967 36.6696H163.349C163.62 36.6696 163.718 36.8078 163.718 37.0587V45.8348C163.718 46.0857 163.62 46.2034 163.349 46.2034H163.354Z"
    fill="white"
  />
<path
    d="M168.3 45.834C168.3 46.0695 168.203 46.2026 167.932 46.2026H166.529C166.257 46.2026 166.16 46.0848 166.16 45.834V37.0579C166.16 36.807 166.257 36.6687 166.529 36.6687H167.911C168.203 36.6687 168.3 36.8223 168.3 37.0579V37.9129L168.341 37.9539C168.925 37.4112 170.307 36.7455 171.219 36.5714C171.47 36.5151 171.649 36.5714 171.685 36.9043L171.823 38.2099C171.844 38.4813 171.864 38.5991 171.454 38.6759C170.364 38.8909 168.981 39.2801 168.3 39.5719V45.834Z"
    fill="white"
  />
<path
    d="M176.861 46.3618C172.949 46.3618 172.698 43.5047 172.698 41.2825C172.698 39.4546 173.108 36.4797 176.861 36.4797C180.614 36.4797 181.162 38.9887 181.162 41.2825C181.162 43.5764 180.891 46.3618 176.861 46.3618ZM176.877 38.3486C175.223 38.3486 174.854 39.3983 174.854 41.4208C174.854 43.4433 175.223 44.4929 176.856 44.4929C178.628 44.4929 178.976 43.4996 178.976 41.4208C178.976 39.3419 178.643 38.3486 176.877 38.3486Z"
    fill="white"
  />
<path
    d="M187.598 46.3823C186.958 46.3823 186.062 46.2646 185.166 45.9522L185.146 45.9727V49.3982C185.146 49.6132 185.089 49.7873 184.777 49.7873H183.395C183.082 49.7873 183.026 49.6491 183.026 49.3982V37.0635C183.026 36.8126 183.123 36.6744 183.395 36.6744H184.777C185.048 36.6744 185.125 36.828 185.125 37.0635V37.6472L185.182 37.6882C185.883 37.2017 187.127 36.5208 188.254 36.5208C190.804 36.5208 191.464 38.446 191.464 41.385C191.464 44.5544 190.665 46.3823 187.593 46.3823H187.598ZM187.757 38.4613C186.958 38.4613 185.735 39.0245 185.151 39.3369V44.2011C186.026 44.452 186.728 44.5339 187.388 44.5339C188.791 44.5339 189.278 43.812 189.278 41.3645C189.278 38.917 188.791 38.4664 187.762 38.4664L187.757 38.4613Z"
    fill="white"
  />
<path
    d="M195.207 42.0252C195.263 43.9914 195.965 44.5341 197.562 44.5341C198.264 44.5341 199.354 44.3959 200.092 44.3191C200.44 44.2781 200.558 44.2781 200.619 44.6519L200.737 45.2919C200.793 45.5838 200.757 45.7374 200.404 45.8961C199.646 46.188 198.228 46.3825 197.27 46.3825C193.553 46.3825 193.01 44.0119 193.01 41.4825C193.01 39.5931 193.359 36.4851 197.153 36.4851C200.634 36.4851 201.259 38.7431 201.315 40.8424C201.336 41.5439 201.141 42.0303 200.363 42.0303H195.207V42.0252ZM195.227 40.5659H199.078C199.078 39.378 198.766 38.2311 197.153 38.2311C195.714 38.2311 195.325 39.1067 195.227 40.5659Z"
    fill="white"
  />
<path
    d="M209.098 45.0975C208.125 45.8348 206.82 46.3622 205.519 46.3622C203.456 46.3622 202.852 45.2358 202.852 43.6024C202.831 41.3239 204.06 40.3511 206.508 40.3511H208.996V39.8441C208.996 38.6767 208.566 38.2671 206.973 38.2671C206.333 38.2671 205.105 38.3644 204.326 38.4412C203.937 38.4975 203.84 38.4822 203.784 38.2057L203.609 37.4837C203.568 37.2328 203.63 37.0741 204.055 36.9C204.89 36.6082 206.431 36.4699 207.342 36.4699C210.706 36.4699 211.116 37.8524 211.116 40.0285V43.7816C211.116 44.5804 211.213 44.6008 211.817 44.6777C212.109 44.6981 212.186 44.7545 212.186 44.9695V45.7887C212.186 46.0038 212.048 46.1369 211.72 46.1984C211.408 46.2547 211.095 46.2956 210.803 46.2956C209.887 46.2956 209.324 46.0243 209.129 45.1078L209.088 45.0873L209.098 45.0975ZM208.981 41.8666H206.605C205.632 41.8666 205.007 42.2148 205.007 43.5C205.007 44.3551 205.299 44.6265 206.216 44.6265C207.05 44.6265 208.238 44.14 208.981 43.7099V41.8615V41.8666Z"
    fill="white"
  />
<path
    d="M221.453 46.2029H220.051C219.8 46.2029 219.682 46.0851 219.682 45.8342L219.702 40.3658C219.702 39.2189 219.431 38.4611 218.299 38.4611C217.521 38.4611 216.159 39.0858 215.632 39.3367V45.8342C215.632 46.0698 215.534 46.2029 215.263 46.2029H213.881C213.609 46.2029 213.512 46.0851 213.512 45.8342V37.0582C213.512 36.8073 213.609 36.669 213.881 36.669H215.263C215.534 36.669 215.632 36.8073 215.632 37.0582V37.6419C215.632 37.6419 215.673 37.6623 215.688 37.6623C216.41 37.1554 217.772 36.4949 218.955 36.4949C221.581 36.4949 221.812 38.2256 221.812 40.1917V45.8342C221.812 46.0698 221.735 46.2029 221.443 46.2029H221.453Z"
    fill="white"
  />
<path
    d="M150.753 53.6329C151.706 53.6329 153.283 53.7711 154.312 54.1961C154.624 54.3343 154.742 54.488 154.68 54.8003L154.506 55.5991C154.445 55.8346 154.353 55.9319 153.999 55.8909C153.047 55.7731 151.88 55.64 150.866 55.64C148.219 55.64 147.83 57.7803 147.83 60.3097C147.83 62.8391 148.316 64.8616 150.866 64.8616C151.992 64.8616 152.95 64.7438 153.999 64.6107C154.368 64.5697 154.445 64.667 154.527 64.923L154.68 65.6603C154.757 65.9727 154.66 66.1467 154.348 66.285C153.395 66.6946 151.7 66.8687 150.748 66.8687C146.411 66.8687 145.495 63.6583 145.495 60.3506C145.495 57.043 146.314 53.638 150.748 53.638L150.753 53.6329Z"
    fill="white"
  />
<path
    d="M160.251 66.8429C156.34 66.8429 156.089 63.9859 156.089 61.7637C156.089 59.9357 156.498 56.9609 160.251 56.9609C164.005 56.9609 164.552 59.4698 164.552 61.7637C164.552 64.0575 164.281 66.8429 160.251 66.8429ZM160.272 58.8298C158.618 58.8298 158.249 59.8794 158.249 61.9019C158.249 63.9244 158.618 64.9741 160.251 64.9741C162.023 64.9741 162.371 63.9807 162.371 61.9019C162.371 59.8231 162.038 58.8298 160.272 58.8298Z"
    fill="white"
  />
<path
    d="M180.036 66.6849H178.633C178.362 66.6849 178.264 66.5671 178.264 66.3162V60.7915C178.264 59.3527 177.916 58.9431 176.943 58.9431C176.221 58.9431 175.054 59.5063 174.455 59.8187C174.455 60.0132 174.475 60.3614 174.475 60.812V66.3162C174.475 66.5518 174.399 66.6849 174.107 66.6849H172.688C172.437 66.6849 172.356 66.5671 172.356 66.3162V60.6942C172.356 59.5063 172.043 58.9431 171.07 58.9431C170.389 58.9431 169.299 59.4295 168.561 59.8187V66.3162C168.561 66.5518 168.464 66.6849 168.193 66.6849H166.795C166.544 66.6849 166.447 66.5671 166.447 66.3162V57.5402C166.447 57.2893 166.544 57.151 166.795 57.151H168.177C168.469 57.151 168.567 57.3046 168.567 57.5402V58.1034L168.587 58.1239C169.345 57.5965 170.415 57.0128 171.485 56.9769C172.612 56.9769 173.549 57.2125 174.153 58.3389C175.126 57.617 176.334 56.9769 177.578 56.9769C180.143 56.9769 180.399 58.6513 180.399 60.5969V66.3162C180.399 66.5518 180.323 66.6849 180.051 66.6849H180.036Z"
    fill="white"
  />
<path
    d="M196.067 66.6849H194.664C194.393 66.6849 194.296 66.5671 194.296 66.3162V60.7915C194.296 59.3527 193.947 58.9431 192.975 58.9431C192.253 58.9431 191.09 59.5063 190.486 59.8187C190.486 60.0132 190.507 60.3614 190.507 60.812V66.3162C190.507 66.5518 190.43 66.6849 190.138 66.6849H188.72C188.469 66.6849 188.387 66.5671 188.387 66.3162V60.6942C188.387 59.5063 188.075 58.9431 187.102 58.9431C186.421 58.9431 185.33 59.4295 184.593 59.8187V66.3162C184.593 66.5518 184.496 66.6849 184.224 66.6849H182.821C182.57 66.6849 182.473 66.5671 182.473 66.3162V57.5402C182.473 57.2893 182.57 57.151 182.821 57.151H184.204C184.496 57.151 184.593 57.3046 184.593 57.5402V58.1034L184.613 58.1239C185.371 57.5965 186.441 57.0128 187.511 56.9769C188.638 56.9769 189.575 57.2125 190.179 58.3389C191.152 57.617 192.355 56.9769 193.604 56.9769C196.175 56.9769 196.426 58.6513 196.426 60.5969V66.3162C196.426 66.5518 196.349 66.6849 196.077 66.6849H196.067Z"
    fill="white"
  />
<path
    d="M199.882 55.7527C198.868 55.7527 198.735 55.1895 198.735 54.6262C198.735 54.0016 198.95 53.5151 199.882 53.5151C200.814 53.5151 201.029 53.9606 201.029 54.6262C201.029 55.2304 200.855 55.7527 199.882 55.7527ZM200.916 66.3157C200.916 66.5308 200.839 66.6844 200.568 66.6844H199.185C198.914 66.6844 198.796 66.5666 198.796 66.3157V57.5243C198.796 57.2529 198.914 57.1556 199.185 57.1556H200.568C200.839 57.1556 200.916 57.3092 200.916 57.5243V66.3157Z"
    fill="white"
  />
<path
    d="M206.518 66.8429C205.545 66.8429 204.239 66.7047 203.502 66.4128C203.113 66.2592 203.036 66.08 203.092 65.7728L203.231 65.1328C203.287 64.8204 203.425 64.8 203.738 64.8409C204.593 64.9792 205.837 65.0765 206.502 65.0765C207.747 65.0765 208.254 64.7436 208.254 63.9654C208.254 63.0693 207.921 62.8748 206.697 62.7007C204.792 62.4293 203.118 62.0197 203.118 59.8999C203.118 57.9747 204.598 56.9609 206.774 56.9609C207.573 56.9609 208.914 57.0786 209.733 57.391C210.066 57.5292 210.199 57.6828 210.143 57.9747L209.989 58.6762C209.933 58.9475 209.815 58.9885 209.462 58.9475C208.627 58.8502 207.537 58.7325 206.815 58.7325C205.571 58.7325 205.279 59.0807 205.279 59.8231C205.279 60.5655 205.745 60.6782 206.933 60.8727C208.781 61.1441 210.455 61.5128 210.455 63.8322C210.455 66.1517 208.53 66.8481 206.528 66.8481L206.518 66.8429Z"
    fill="white"
  />
<path
    d="M215.452 66.8429C214.48 66.8429 213.174 66.7047 212.437 66.4128C212.048 66.2592 211.971 66.08 212.027 65.7728L212.165 65.1328C212.222 64.8204 212.36 64.8 212.672 64.8409C213.527 64.9792 214.771 65.0765 215.437 65.0765C216.681 65.0765 217.188 64.7436 217.188 63.9654C217.188 63.0693 216.855 62.8748 215.632 62.7007C213.727 62.4293 212.053 62.0197 212.053 59.8999C212.053 57.9747 213.532 56.9609 215.708 56.9609C216.507 56.9609 217.849 57.0786 218.668 57.391C219.001 57.5292 219.134 57.6828 219.078 57.9747L218.924 58.6762C218.868 58.9475 218.75 58.9885 218.397 58.9475C217.562 58.8502 216.471 58.7325 215.749 58.7325C214.505 58.7325 214.213 59.0807 214.213 59.8231C214.213 60.5655 214.679 60.6782 215.867 60.8727C217.716 61.1441 219.39 61.5128 219.39 63.8322C219.39 66.1517 217.465 66.8481 215.463 66.8481L215.452 66.8429Z"
    fill="white"
  />
<path
    d="M222.554 55.7527C221.541 55.7527 221.408 55.1895 221.408 54.6262C221.408 54.0016 221.623 53.5151 222.554 53.5151C223.486 53.5151 223.701 53.9606 223.701 54.6262C223.701 55.2304 223.527 55.7527 222.554 55.7527ZM223.584 66.3157C223.584 66.5308 223.507 66.6844 223.235 66.6844H221.853C221.582 66.6844 221.464 66.5666 221.464 66.3157V57.5243C221.464 57.2529 221.582 57.1556 221.853 57.1556H223.235C223.507 57.1556 223.584 57.3092 223.584 57.5243V66.3157Z"
    fill="white"
  />
<path
    d="M229.963 66.8429C226.052 66.8429 225.801 63.9859 225.801 61.7637C225.801 59.9357 226.21 56.9609 229.963 56.9609C233.717 56.9609 234.264 59.4698 234.264 61.7637C234.264 64.0575 233.993 66.8429 229.963 66.8429ZM229.984 58.8298C228.33 58.8298 227.961 59.8794 227.961 61.9019C227.961 63.9244 228.33 64.9741 229.963 64.9741C231.735 64.9741 232.083 63.9807 232.083 61.9019C232.083 59.8231 231.75 58.8298 229.984 58.8298Z"
    fill="white"
  />
<path
    d="M244.034 66.6849H242.631C242.38 66.6849 242.262 66.5671 242.262 66.3162L242.282 60.8478C242.282 59.7009 242.011 58.9431 240.879 58.9431C240.101 58.9431 238.739 59.5678 238.212 59.8187V66.3162C238.212 66.5518 238.115 66.6849 237.843 66.6849H236.461C236.189 66.6849 236.092 66.5671 236.092 66.3162V57.5402C236.092 57.2893 236.189 57.151 236.461 57.151H237.843C238.115 57.151 238.212 57.2893 238.212 57.5402V58.1239C238.212 58.1239 238.253 58.1443 238.268 58.1443C238.99 57.6374 240.352 56.9769 241.535 56.9769C244.162 56.9769 244.392 58.7076 244.392 60.6737V66.3162C244.392 66.5518 244.315 66.6849 244.023 66.6849H244.034Z"
    fill="white"
  />
<path d="M256.619 66.6843V27.5862H253.286V66.6843H256.619Z" fill="white" />
</svg>
