<svg
  width="291"
  height="72"
  viewBox="0 0 291 72"
  fill="none"
  xmlns="http://www.w3.org/2000/svg"
>
<path
    d="M154.18 34.4301C154.18 34.6701 154.047 34.7901 153.78 34.7901H150.6V45.7101C150.6 45.8167 150.573 45.9101 150.52 45.9901C150.48 46.0567 150.387 46.0901 150.24 46.0901H148.74C148.487 46.0901 148.36 45.9634 148.36 45.7101V34.7901H145.2C145.04 34.7901 144.933 34.7634 144.88 34.7101C144.827 34.6434 144.8 34.5501 144.8 34.4301V33.1901C144.8 33.0701 144.827 32.9767 144.88 32.9101C144.933 32.8434 145.033 32.8101 145.18 32.8101H153.8C154.053 32.8101 154.18 32.9367 154.18 33.1901V34.4301Z"
    fill="white"
  />
<path
    d="M163.415 45.7101C163.415 45.9634 163.289 46.0901 163.035 46.0901H161.615C161.469 46.0901 161.369 46.0567 161.315 45.9901C161.262 45.9234 161.235 45.8301 161.235 45.7101V45.0901L161.195 45.0701C160.995 45.2034 160.762 45.3434 160.495 45.4901C160.242 45.6234 159.969 45.7501 159.675 45.8701C159.382 45.9901 159.075 46.0834 158.755 46.1501C158.449 46.2301 158.142 46.2701 157.835 46.2701C157.155 46.2701 156.615 46.1767 156.215 45.9901C155.829 45.8034 155.535 45.5434 155.335 45.2101C155.135 44.8767 155.009 44.4834 154.955 44.0301C154.902 43.5767 154.875 43.0901 154.875 42.5701V36.6901C154.875 36.4234 155.002 36.2901 155.255 36.2901H156.715C156.955 36.2901 157.075 36.4234 157.075 36.6901V42.3101C157.075 42.6167 157.095 42.8901 157.135 43.1301C157.175 43.3701 157.249 43.5767 157.355 43.7501C157.462 43.9101 157.609 44.0367 157.795 44.1301C157.982 44.2234 158.229 44.2701 158.535 44.2701C158.749 44.2701 158.982 44.2367 159.235 44.1701C159.502 44.1034 159.762 44.0234 160.015 43.9301C160.269 43.8234 160.502 43.7234 160.715 43.6301C160.929 43.5234 161.102 43.4367 161.235 43.3701V36.6901C161.235 36.5701 161.262 36.4767 161.315 36.4101C161.369 36.3301 161.469 36.2901 161.615 36.2901H163.035C163.289 36.2901 163.415 36.4234 163.415 36.6901V45.7101Z"
    fill="white"
  />
<path
    d="M179.88 45.7101C179.88 45.8301 179.854 45.9234 179.8 45.9901C179.76 46.0567 179.667 46.0901 179.52 46.0901H178.08C177.827 46.0901 177.7 45.9634 177.7 45.7101V40.0301C177.7 39.2834 177.6 38.7834 177.4 38.5301C177.2 38.2634 176.847 38.1301 176.34 38.1301C176.154 38.1301 175.94 38.1634 175.7 38.2301C175.474 38.2967 175.24 38.3767 175 38.4701C174.774 38.5501 174.554 38.6434 174.34 38.7501C174.127 38.8567 173.94 38.9501 173.78 39.0301C173.78 39.1367 173.78 39.2767 173.78 39.4501C173.794 39.6234 173.8 39.8234 173.8 40.0501V45.7101C173.8 45.8301 173.774 45.9234 173.72 45.9901C173.667 46.0567 173.567 46.0901 173.42 46.0901H171.96C171.734 46.0901 171.62 45.9634 171.62 45.7101V39.9301C171.62 39.3167 171.527 38.8634 171.34 38.5701C171.154 38.2767 170.807 38.1301 170.3 38.1301C170.127 38.1301 169.927 38.1567 169.7 38.2101C169.487 38.2634 169.26 38.3367 169.02 38.4301C168.794 38.5234 168.567 38.6234 168.34 38.7301C168.114 38.8367 167.907 38.9367 167.72 39.0301V45.7101C167.72 45.9634 167.594 46.0901 167.34 46.0901H165.9C165.66 46.0901 165.54 45.9634 165.54 45.7101V36.6901C165.54 36.4234 165.66 36.2901 165.9 36.2901H167.32C167.587 36.2901 167.72 36.4234 167.72 36.6901V37.2701L167.74 37.2901C167.94 37.1567 168.154 37.0234 168.38 36.8901C168.607 36.7434 168.847 36.6167 169.1 36.5101C169.367 36.4034 169.634 36.3167 169.9 36.2501C170.167 36.1701 170.44 36.1234 170.72 36.1101C171.294 36.1101 171.814 36.2034 172.28 36.3901C172.76 36.5634 173.154 36.9367 173.46 37.5101C173.967 37.1367 174.52 36.8101 175.12 36.5301C175.72 36.2501 176.34 36.1101 176.98 36.1101C177.634 36.1101 178.154 36.2101 178.54 36.4101C178.927 36.6101 179.22 36.8834 179.42 37.2301C179.62 37.5634 179.747 37.9567 179.8 38.4101C179.854 38.8634 179.88 39.3367 179.88 39.8301V45.7101Z"
    fill="white"
  />
<path
    d="M184.105 41.7901C184.118 42.2967 184.171 42.7167 184.265 43.0501C184.371 43.3834 184.525 43.6501 184.725 43.8501C184.925 44.0367 185.171 44.1701 185.465 44.2501C185.758 44.3301 186.111 44.3701 186.525 44.3701C186.885 44.3701 187.312 44.3434 187.805 44.2901C188.298 44.2367 188.738 44.1901 189.125 44.1501C189.312 44.1234 189.438 44.1301 189.505 44.1701C189.585 44.1967 189.638 44.3034 189.665 44.4901L189.785 45.1501C189.812 45.2967 189.805 45.4167 189.765 45.5101C189.738 45.6034 189.632 45.6901 189.445 45.7701C189.245 45.8501 189.011 45.9234 188.745 45.9901C188.478 46.0434 188.198 46.0901 187.905 46.1301C187.611 46.1701 187.318 46.2034 187.025 46.2301C186.731 46.2567 186.465 46.2701 186.225 46.2701C185.265 46.2701 184.498 46.1301 183.925 45.8501C183.351 45.5701 182.911 45.1967 182.605 44.7301C182.298 44.2634 182.091 43.7301 181.985 43.1301C181.891 42.5167 181.845 41.8834 181.845 41.2301C181.845 40.7501 181.885 40.2101 181.965 39.6101C182.045 39.0101 182.225 38.4501 182.505 37.9301C182.798 37.4101 183.225 36.9767 183.785 36.6301C184.358 36.2701 185.132 36.0901 186.105 36.0901C186.998 36.0901 187.718 36.2234 188.265 36.4901C188.825 36.7567 189.258 37.1034 189.565 37.5301C189.871 37.9434 190.078 38.4234 190.185 38.9701C190.305 39.5034 190.372 40.0367 190.385 40.5701C190.398 40.9301 190.338 41.2234 190.205 41.4501C190.072 41.6767 189.805 41.7901 189.405 41.7901H184.105ZM186.105 37.8901C185.731 37.8901 185.425 37.9434 185.185 38.0501C184.945 38.1567 184.745 38.3167 184.585 38.5301C184.438 38.7301 184.331 38.9834 184.265 39.2901C184.198 39.5834 184.152 39.9167 184.125 40.2901H188.085C188.085 39.9834 188.058 39.6901 188.005 39.4101C187.951 39.1167 187.852 38.8567 187.705 38.6301C187.572 38.4034 187.371 38.2234 187.105 38.0901C186.851 37.9567 186.518 37.8901 186.105 37.8901Z"
    fill="white"
  />
<path
    d="M201.726 43.2901C201.873 42.8767 202.006 42.4901 202.126 42.1301C202.259 41.7701 202.373 41.4567 202.466 41.1901C202.573 40.8701 202.673 40.5767 202.766 40.3101L204.006 36.6301C204.046 36.5101 204.099 36.4234 204.166 36.3701C204.233 36.3167 204.339 36.2901 204.486 36.2901H205.966C206.126 36.2901 206.213 36.3301 206.226 36.4101C206.239 36.4901 206.226 36.5834 206.186 36.6901L201.526 49.4101C201.473 49.5434 201.413 49.6367 201.346 49.6901C201.279 49.7434 201.159 49.7701 200.986 49.7701H199.626C199.466 49.7701 199.373 49.7301 199.346 49.6501C199.333 49.5701 199.346 49.4767 199.386 49.3701L200.646 45.9901L197.146 36.6901C197.106 36.5834 197.093 36.4901 197.106 36.4101C197.133 36.3301 197.219 36.2901 197.366 36.2901H198.906C199.039 36.2901 199.133 36.3034 199.186 36.3301C199.239 36.3567 199.293 36.4434 199.346 36.5901L200.646 40.3101L201.646 43.2901H201.726Z"
    fill="white"
  />
<path
    d="M213.71 41.6301H211.27C210.764 41.6301 210.364 41.7501 210.07 41.9901C209.777 42.2167 209.63 42.6567 209.63 43.3101C209.63 43.7501 209.717 44.0567 209.89 44.2301C210.077 44.3901 210.404 44.4701 210.87 44.4701C211.084 44.4701 211.317 44.4434 211.57 44.3901C211.824 44.3367 212.077 44.2634 212.33 44.1701C212.584 44.0767 212.83 43.9767 213.07 43.8701C213.31 43.7501 213.524 43.6367 213.71 43.5301V41.6301ZM213.83 44.9501C213.324 45.3367 212.75 45.6501 212.11 45.8901C211.484 46.1301 210.83 46.2501 210.15 46.2501C209.617 46.2501 209.17 46.1834 208.81 46.0501C208.464 45.9034 208.184 45.7101 207.97 45.4701C207.77 45.2167 207.624 44.9167 207.53 44.5701C207.45 44.2234 207.41 43.8367 207.41 43.4101C207.397 42.2367 207.704 41.3901 208.33 40.8701C208.957 40.3367 209.904 40.0701 211.17 40.0701H213.73V39.5501C213.73 39.2567 213.697 39.0101 213.63 38.8101C213.577 38.5967 213.47 38.4234 213.31 38.2901C213.15 38.1567 212.937 38.0634 212.67 38.0101C212.404 37.9567 212.064 37.9301 211.65 37.9301C211.49 37.9301 211.29 37.9367 211.05 37.9501C210.824 37.9634 210.584 37.9767 210.33 37.9901C210.09 38.0034 209.844 38.0234 209.59 38.0501C209.35 38.0767 209.13 38.0967 208.93 38.1101C208.73 38.1367 208.59 38.1434 208.51 38.1301C208.444 38.1034 208.397 38.0167 208.37 37.8701L208.19 37.1301C208.164 36.9967 208.177 36.8901 208.23 36.8101C208.284 36.7167 208.424 36.6234 208.65 36.5301C208.864 36.4501 209.117 36.3834 209.41 36.3301C209.704 36.2767 210.004 36.2367 210.31 36.2101C210.617 36.1701 210.917 36.1434 211.21 36.1301C211.517 36.1034 211.79 36.0901 212.03 36.0901C212.897 36.0901 213.584 36.1767 214.09 36.3501C214.61 36.5234 215.004 36.7701 215.27 37.0901C215.537 37.3967 215.71 37.7767 215.79 38.2301C215.87 38.6834 215.91 39.1901 215.91 39.7501V43.6101C215.91 43.8101 215.917 43.9701 215.93 44.0901C215.957 44.1967 215.99 44.2834 216.03 44.3501C216.084 44.4034 216.157 44.4434 216.25 44.4701C216.344 44.4967 216.47 44.5167 216.63 44.5301C216.777 44.5434 216.877 44.5701 216.93 44.6101C216.984 44.6501 217.01 44.7234 217.01 44.8301V45.6701C217.01 45.8967 216.85 46.0367 216.53 46.0901C216.37 46.1167 216.21 46.1367 216.05 46.1501C215.89 46.1767 215.737 46.1901 215.59 46.1901C215.124 46.1901 214.744 46.1034 214.45 45.9301C214.17 45.7567 213.977 45.4367 213.87 44.9701L213.83 44.9501Z"
    fill="white"
  />
<path
    d="M150.78 64.2501C151.66 64.2501 152.327 64.0101 152.78 63.5301C153.247 63.0367 153.48 62.2701 153.48 61.2301V53.2101C153.48 52.9434 153.613 52.8101 153.88 52.8101H155.38C155.527 52.8101 155.62 52.8501 155.66 52.9301C155.713 52.9967 155.74 53.0901 155.74 53.2101L155.72 61.2301C155.72 61.6301 155.693 62.0301 155.64 62.4301C155.6 62.8167 155.507 63.2034 155.36 63.5901C155.16 64.0701 154.9 64.4767 154.58 64.8101C154.273 65.1434 153.92 65.4167 153.52 65.6301C153.12 65.8434 152.687 65.9967 152.22 66.0901C151.753 66.1967 151.273 66.2501 150.78 66.2501C148.673 66.2501 147.233 65.5101 146.46 64.0301C146.247 63.6301 146.093 63.1967 146 62.7301C145.907 62.2501 145.86 61.7501 145.86 61.2301V53.2101C145.86 52.9434 145.987 52.8101 146.24 52.8101H147.74C147.993 52.8101 148.12 52.9434 148.12 53.2101V61.2301C148.12 62.2167 148.34 62.9701 148.78 63.4901C149.233 63.9967 149.9 64.2501 150.78 64.2501Z"
    fill="white"
  />
<path
    d="M160.559 63.6101C160.559 63.9167 160.625 64.1101 160.759 64.1901C160.905 64.2567 161.152 64.2901 161.499 64.2901C161.645 64.3034 161.739 64.3234 161.779 64.3501C161.832 64.3767 161.872 64.4434 161.899 64.5501L161.979 65.5701C161.992 65.7301 161.905 65.8567 161.719 65.9501C161.532 66.0434 161.312 66.1034 161.059 66.1301C160.805 66.1701 160.592 66.1901 160.419 66.1901C159.659 66.1901 159.125 66.0234 158.819 65.6901C158.525 65.3434 158.379 64.8301 158.379 64.1501V52.3701C158.379 52.1167 158.505 51.9901 158.759 51.9901H160.179C160.432 51.9901 160.559 52.1167 160.559 52.3701V63.6101Z"
    fill="white"
  />
<path
    d="M169.492 61.6301H167.052C166.545 61.6301 166.145 61.7501 165.852 61.9901C165.558 62.2167 165.412 62.6567 165.412 63.3101C165.412 63.7501 165.498 64.0567 165.672 64.2301C165.858 64.3901 166.185 64.4701 166.652 64.4701C166.865 64.4701 167.098 64.4434 167.352 64.3901C167.605 64.3367 167.858 64.2634 168.112 64.1701C168.365 64.0767 168.612 63.9767 168.852 63.8701C169.092 63.7501 169.305 63.6367 169.492 63.5301V61.6301ZM169.612 64.9501C169.105 65.3367 168.532 65.6501 167.892 65.8901C167.265 66.1301 166.612 66.2501 165.932 66.2501C165.398 66.2501 164.952 66.1834 164.592 66.0501C164.245 65.9034 163.965 65.7101 163.752 65.4701C163.552 65.2167 163.405 64.9167 163.312 64.5701C163.232 64.2234 163.192 63.8367 163.192 63.4101C163.178 62.2367 163.485 61.3901 164.112 60.8701C164.738 60.3367 165.685 60.0701 166.952 60.0701H169.512V59.5501C169.512 59.2567 169.478 59.0101 169.412 58.8101C169.358 58.5967 169.252 58.4234 169.092 58.2901C168.932 58.1567 168.718 58.0634 168.452 58.0101C168.185 57.9567 167.845 57.9301 167.432 57.9301C167.272 57.9301 167.072 57.9367 166.832 57.9501C166.605 57.9634 166.365 57.9767 166.112 57.9901C165.872 58.0034 165.625 58.0234 165.372 58.0501C165.132 58.0767 164.912 58.0967 164.712 58.1101C164.512 58.1367 164.372 58.1434 164.292 58.1301C164.225 58.1034 164.178 58.0167 164.152 57.8701L163.972 57.1301C163.945 56.9967 163.958 56.8901 164.012 56.8101C164.065 56.7167 164.205 56.6234 164.432 56.5301C164.645 56.4501 164.898 56.3834 165.192 56.3301C165.485 56.2767 165.785 56.2367 166.092 56.2101C166.398 56.1701 166.698 56.1434 166.992 56.1301C167.298 56.1034 167.572 56.0901 167.812 56.0901C168.678 56.0901 169.365 56.1767 169.872 56.3501C170.392 56.5234 170.785 56.7701 171.052 57.0901C171.318 57.3967 171.492 57.7767 171.572 58.2301C171.652 58.6834 171.692 59.1901 171.692 59.7501V63.6101C171.692 63.8101 171.698 63.9701 171.712 64.0901C171.738 64.1967 171.772 64.2834 171.812 64.3501C171.865 64.4034 171.938 64.4434 172.032 64.4701C172.125 64.4967 172.252 64.5167 172.412 64.5301C172.558 64.5434 172.658 64.5701 172.712 64.6101C172.765 64.6501 172.792 64.7234 172.792 64.8301V65.6701C172.792 65.8967 172.632 66.0367 172.312 66.0901C172.152 66.1167 171.992 66.1367 171.832 66.1501C171.672 66.1767 171.518 66.1901 171.372 66.1901C170.905 66.1901 170.525 66.1034 170.232 65.9301C169.952 65.7567 169.758 65.4367 169.652 64.9701L169.612 64.9501Z"
    fill="white"
  />
<path
    d="M178.132 63.2901C178.279 62.8767 178.412 62.4901 178.532 62.1301C178.666 61.7701 178.779 61.4567 178.872 61.1901C178.979 60.8701 179.079 60.5767 179.172 60.3101L180.412 56.6301C180.452 56.5101 180.506 56.4234 180.572 56.3701C180.639 56.3167 180.746 56.2901 180.892 56.2901H182.372C182.532 56.2901 182.619 56.3301 182.632 56.4101C182.646 56.4901 182.632 56.5834 182.592 56.6901L177.932 69.4101C177.879 69.5434 177.819 69.6367 177.752 69.6901C177.686 69.7434 177.566 69.7701 177.392 69.7701H176.032C175.872 69.7701 175.779 69.7301 175.752 69.6501C175.739 69.5701 175.752 69.4767 175.792 69.3701L177.052 65.9901L173.552 56.6901C173.512 56.5834 173.499 56.4901 173.512 56.4101C173.539 56.3301 173.626 56.2901 173.772 56.2901H175.312C175.446 56.2901 175.539 56.3034 175.592 56.3301C175.646 56.3567 175.699 56.4434 175.752 56.5901L177.052 60.3101L178.052 63.2901H178.132Z"
    fill="white"
  />
<path
    d="M190.117 61.6301H187.677C187.17 61.6301 186.77 61.7501 186.477 61.9901C186.183 62.2167 186.037 62.6567 186.037 63.3101C186.037 63.7501 186.123 64.0567 186.297 64.2301C186.483 64.3901 186.81 64.4701 187.277 64.4701C187.49 64.4701 187.723 64.4434 187.977 64.3901C188.23 64.3367 188.483 64.2634 188.737 64.1701C188.99 64.0767 189.237 63.9767 189.477 63.8701C189.717 63.7501 189.93 63.6367 190.117 63.5301V61.6301ZM190.237 64.9501C189.73 65.3367 189.157 65.6501 188.517 65.8901C187.89 66.1301 187.237 66.2501 186.557 66.2501C186.023 66.2501 185.577 66.1834 185.217 66.0501C184.87 65.9034 184.59 65.7101 184.377 65.4701C184.177 65.2167 184.03 64.9167 183.937 64.5701C183.857 64.2234 183.817 63.8367 183.817 63.4101C183.803 62.2367 184.11 61.3901 184.737 60.8701C185.363 60.3367 186.31 60.0701 187.577 60.0701H190.137V59.5501C190.137 59.2567 190.103 59.0101 190.037 58.8101C189.983 58.5967 189.877 58.4234 189.717 58.2901C189.557 58.1567 189.343 58.0634 189.077 58.0101C188.81 57.9567 188.47 57.9301 188.057 57.9301C187.897 57.9301 187.697 57.9367 187.457 57.9501C187.23 57.9634 186.99 57.9767 186.737 57.9901C186.497 58.0034 186.25 58.0234 185.997 58.0501C185.757 58.0767 185.537 58.0967 185.337 58.1101C185.137 58.1367 184.997 58.1434 184.917 58.1301C184.85 58.1034 184.803 58.0167 184.777 57.8701L184.597 57.1301C184.57 56.9967 184.583 56.8901 184.637 56.8101C184.69 56.7167 184.83 56.6234 185.057 56.5301C185.27 56.4501 185.523 56.3834 185.817 56.3301C186.11 56.2767 186.41 56.2367 186.717 56.2101C187.023 56.1701 187.323 56.1434 187.617 56.1301C187.923 56.1034 188.197 56.0901 188.437 56.0901C189.303 56.0901 189.99 56.1767 190.497 56.3501C191.017 56.5234 191.41 56.7701 191.677 57.0901C191.943 57.3967 192.117 57.7767 192.197 58.2301C192.277 58.6834 192.317 59.1901 192.317 59.7501V63.6101C192.317 63.8101 192.323 63.9701 192.337 64.0901C192.363 64.1967 192.397 64.2834 192.437 64.3501C192.49 64.4034 192.563 64.4434 192.657 64.4701C192.75 64.4967 192.877 64.5167 193.037 64.5301C193.183 64.5434 193.283 64.5701 193.337 64.6101C193.39 64.6501 193.417 64.7234 193.417 64.8301V65.6701C193.417 65.8967 193.257 66.0367 192.937 66.0901C192.777 66.1167 192.617 66.1367 192.457 66.1501C192.297 66.1767 192.143 66.1901 191.997 66.1901C191.53 66.1901 191.15 66.1034 190.857 65.9301C190.577 65.7567 190.383 65.4367 190.277 64.9701L190.237 64.9501Z"
    fill="white"
  />
<path
    fill-rule="evenodd"
    clip-rule="evenodd"
    d="M225.5 66.7H228.8V28H225.5V66.7Z"
    fill="white"
  />
<path
    d="M29.5595 64.8961H85.2641L85.259 28.8354L29.5544 28.8405L29.5595 64.8961Z"
    fill="#003399"
  />
<path
    d="M57.9401 33.3809H59.9717L58.3332 34.6449L58.9712 36.6472L57.3429 35.4135L55.7146 36.6472L56.3526 34.6449L54.7039 33.3809H56.7304L57.3429 31.4292L57.9401 33.3809Z"
    fill="#FFED00"
  />
<path
    d="M58.0116 59.1573H60.0432L58.4097 60.3759L59.0427 62.3023L57.4144 61.1141L55.7861 62.3023L56.4292 60.3759L54.7754 59.1573H56.8018L57.4144 57.2815L58.0116 59.1573Z"
    fill="#FFED00"
  />
<path
    d="M64.4482 57.4534H66.4849L64.8464 58.6669L65.4844 60.5933L63.851 59.4051L62.2227 60.5933L62.8659 58.6669L61.212 57.4534H63.2385L63.851 55.5725L64.4482 57.4534Z"
    fill="#FFED00"
  />
<path
    d="M64.4482 35.1H66.4849L64.8464 36.3185L65.4844 38.2449L63.851 37.0567L62.2227 38.2449L62.8659 36.3185L61.212 35.1H63.2385L63.851 33.2241L64.4482 35.1Z"
    fill="#FFED00"
  />
<path
    d="M69.2311 39.8377H71.2576L69.6242 41.0512L70.2571 42.9776L68.6288 41.7894L67.0005 42.9776L67.6436 41.0512L65.9898 39.8377H68.0163L68.6288 37.9568L69.2311 39.8377Z"
    fill="#FFED00"
  />
<path
    d="M69.2311 52.7814H71.2576L69.6242 53.9999L70.2571 55.9263L68.6288 54.7381L67.0005 55.9263L67.6436 53.9999L65.9898 52.7814H68.0163L68.6288 50.9055L69.2311 52.7814Z"
    fill="#FFED00"
  />
<path
    d="M71.0177 46.2084H73.0544L71.4158 47.4269L72.0488 49.3533L70.4205 48.1651L68.7922 49.3533L69.4353 47.4269L67.7815 46.2084H69.8079L70.4205 44.3325L71.0177 46.2084Z"
    fill="#FFED00"
  />
<path
    d="M51.3809 35.1202H53.4074L51.774 36.3336L52.4069 38.26L50.7786 37.0718L49.1503 38.26L49.7934 36.3336L48.1447 35.1202H50.1661L50.7786 33.2393L51.3809 35.1202Z"
    fill="#FFED00"
  />
<path
    d="M46.7308 39.8528H48.7675L47.129 41.0663L47.7619 42.9927L46.1336 41.8045L44.5053 42.9927L45.1485 41.0663L43.4946 39.8528H45.5211L46.1336 37.9719L46.7308 39.8528Z"
    fill="#FFED00"
  />
<path
    d="M45.0055 46.2286H47.0371L45.4037 47.442L46.0366 49.3685L44.4083 48.1853L42.78 49.3685L43.4231 47.442L41.7744 46.2286H43.7958L44.4083 44.3477L45.0055 46.2286Z"
    fill="#FFED00"
  />
<path
    d="M46.7308 52.7965H48.7675L47.129 54.015L47.7619 55.9414L46.1336 54.7532L44.5053 55.9414L45.1485 54.015L43.4946 52.7965H45.5211L46.1336 50.9207L46.7308 52.7965Z"
    fill="#FFED00"
  />
<path
    d="M51.4473 57.4685H53.4737L51.8403 58.682L52.4733 60.6084L50.8449 59.4202L49.2166 60.6084L49.8598 58.682L48.2111 57.4685H50.2324L50.8449 55.5876L51.4473 57.4685Z"
    fill="#FFED00"
  />
<path
    d="M95.4373 0.00505726C95.4373 0.00505726 107.417 18.9101 109.612 22.3736C111.802 25.8371 114.308 28.5826 123.175 30.4433C132.041 32.304 135.9 33.1837 135.9 33.1837V33.8562C135.9 33.8562 130.265 32.668 123.016 31.0652C115.768 29.4624 112.803 28.9214 109.5 24.3657C106.749 20.5736 95.4373 3.61517 95.4373 3.61517V0V0.00505726Z"
    fill="white"
  />
<path
    d="M95.4373 21.5949C95.4373 21.5949 106.345 32.9157 109.5 36.1668C112.848 39.6151 117.131 40.8893 123.073 41.941C128.744 42.9421 135.895 44.1 135.895 44.1V44.7371C135.895 44.7371 129.178 43.6449 123.073 42.6135C117.085 41.5972 112.894 41.0309 109.464 37.9011C106.391 35.1 95.4373 24.9219 95.4373 24.9219V21.5898V21.5949Z"
    fill="white"
  />
<path
    d="M95.4373 26.6967C95.4373 26.6967 105.809 36.2377 109.5 39.499C112.894 42.4973 115.646 43.4327 123.108 44.7422C130.571 46.0518 135.895 46.8658 135.895 46.8658V47.5383C135.895 47.5383 129.142 46.4411 123.073 45.4804C117.003 44.5248 113.134 44.1456 109.5 41.2282C105.309 37.8608 95.4373 29.8113 95.4373 29.8113V26.6917V26.6967Z"
    fill="white"
  />
<path
    d="M95.4373 32.1321C95.4373 32.1321 107.285 41.4456 109.5 43.0737C111.715 44.7018 114.645 46.6029 123.144 47.8214C131.571 49.0298 135.895 49.6265 135.895 49.6265V50.3343C135.895 50.3343 128.254 49.2371 123.144 48.6001C118.035 47.963 114.119 47.69 109.536 44.6664C105.074 41.7237 95.4373 35.004 95.4373 35.004V32.1321Z"
    fill="white"
  />
<path
    d="M95.4373 37.3601C95.4373 37.3601 107.32 45.1972 109.571 46.441C111.822 47.6798 114.467 49.7022 123.144 50.7994C131.822 51.8966 135.895 52.3921 135.895 52.3921V53.0646C135.895 53.0646 128.718 52.286 123.108 51.6843C117.504 51.0826 113.68 50.2685 109.5 47.9983C105.319 45.7331 95.4373 40.0095 95.4373 40.0095V37.3601Z"
    fill="white"
  />
<path
    d="M95.4373 42.5883C95.4373 42.5883 105.942 48.2512 109.5 50.0158C113.466 51.9878 116.896 52.9333 123.108 53.6664C129.208 54.3844 135.895 55.0821 135.895 55.0821V55.7192C135.895 55.7192 129.713 55.0619 123.108 54.4451C116.559 53.8282 114.227 53.5451 109.5 51.467C105.273 49.6063 95.4373 45.0658 95.4373 45.0658V42.5833V42.5883Z"
    fill="white"
  />
<path
    d="M95.4373 47.8872C95.4373 47.8872 103.737 51.4063 109.571 53.7018C115.309 55.9569 119.693 56.149 123.18 56.5383C124.716 56.7102 135.895 57.8479 135.895 57.8479V58.485C135.895 58.485 129.218 57.9541 123.144 57.4232C117.07 56.8923 114.451 56.6647 109.536 55.0518C104.559 53.4136 95.4373 50.2636 95.4373 50.2636V47.8923V47.8872Z"
    fill="white"
  />
<path
    d="M95.4373 53.2922C95.4373 53.2922 103.819 55.8658 109.536 57.3524C115.253 58.8389 120.5 59.4456 123.144 59.6175C125.788 59.7945 135.9 60.6085 135.9 60.6085V61.2102C135.9 61.2102 130.147 60.8209 123.108 60.3254C117.417 59.9259 112.848 59.5012 109.5 58.7681C105.794 57.9591 95.4373 55.522 95.4373 55.522V53.2922Z"
    fill="white"
  />
<path
    d="M95.4373 58.6062C95.4373 58.6062 102.292 59.7792 109.536 60.9674C114.967 61.8573 122.322 62.4186 123.108 62.454C123.894 62.4893 135.895 63.3034 135.895 63.3034V63.9405C135.895 63.9405 128.213 63.5461 123.108 63.268C117.79 62.9747 112.501 62.6562 109.5 62.3478C102.772 61.6551 95.4373 60.7349 95.4373 60.7349V58.6062Z"
    fill="white"
  />
<path
    d="M95.4373 64.1074C95.4373 64.1074 106.248 64.5119 109.536 64.5827C112.823 64.6535 135.895 65.5737 135.895 65.5737V66.1956H95.4373V64.1074Z"
    fill="white"
  />
<path
    d="M123.103 33.3656C113.318 31.2774 111.103 27.733 109.459 25.5387C107.815 23.3392 95.4321 5.41504 95.4321 5.41504V8.71167C95.9222 9.34369 106.519 23.8347 109.495 27.6269C112.848 31.8993 118.101 32.8701 123.103 33.9319C128.1 34.9937 135.895 36.4752 135.895 36.4752V35.9089C135.895 35.9089 125.635 33.9016 123.103 33.3656Z"
    fill="white"
  />
<path
    d="M123.103 36.2022C115.069 34.6449 111.817 32.127 109.459 29.0831C107.101 26.0343 95.4321 10.446 95.4321 10.446V14.2786C95.9222 14.85 106.596 27.7534 109.459 30.9994C112.797 34.7865 117.458 35.7826 123.103 36.809C128.749 37.8354 135.89 39.1803 135.89 39.1803V38.614C135.89 38.614 127.738 37.1022 123.103 36.2073V36.2022Z"
    fill="white"
  />
<path
    d="M123.103 39.1399C114.747 37.5321 113.032 36.2124 109.495 32.3748C107.269 29.963 95.9119 16.6804 95.4321 16.1191V19.6585C95.4321 19.6585 106.044 30.8731 109.459 34.1849C113.936 38.5332 118.137 38.8619 123.103 39.7467C128.07 40.6315 135.89 42.0473 135.89 42.0473V41.4456C135.89 41.4456 126.447 39.7871 123.103 39.145V39.1399Z"
    fill="white"
  />
<path
    d="M0.505106 27.7788C0.505106 27.7788 28.1711 24.8563 35.9196 23.7793C48.1702 22.0805 58.1953 20.2703 67.4701 6.18887C67.4701 6.18887 67.4803 5.38999 67.4701 5.03101C61.7889 13.5911 53.9536 19.431 43.1628 21.1248C32.6222 22.7833 0.5 25.2052 0.5 25.2052V27.7788H0.505106Z"
    fill="white"
  />
<path
    d="M0.505127 24.2849C0.505127 24.2849 26.1447 21.1046 34.5925 19.9315C47.9559 18.081 57.3531 16.4175 67.4701 1.05681C67.4701 1.05681 67.4752 0.394453 67.4701 0.00512695C61.2733 9.3439 53.6218 15.3759 41.851 17.2265C30.3507 19.0366 0.505127 21.6759 0.505127 21.6759V24.29V24.2849Z"
    fill="white"
  />
<path d="M26.6806 64.1326H0.520447V66.1854H26.6806V64.1326Z" fill="white" />
<path
    d="M67.4701 22.5708C67.4701 22.5708 67.4854 21.3624 67.4803 21.1045C66.2501 22.9601 64.632 24.6438 62.7638 26.1253H64.5963C65.6274 25.0736 66.5921 23.8955 67.465 22.5708H67.4701Z"
    fill="white"
  />
<path
    d="M67.4701 17.11C67.4701 17.11 67.4803 16.0381 67.4752 15.7449C64.5095 20.2145 60.0942 23.7842 54.9897 26.1505L58.0014 26.1404C61.4826 24.1331 64.7188 21.2814 67.465 17.11H67.4701Z"
    fill="white"
  />
<path
    d="M67.4701 11.6494C67.4701 11.6494 67.4803 10.714 67.4701 10.3904C62.3095 18.1718 54.2854 23.496 44.4747 25.0381C42.1521 25.4022 38.3698 25.8067 33.9749 26.2162L45.9549 26.1758C53.8617 24.4314 61.2631 21.0589 67.4599 11.6494H67.4701Z"
    fill="white"
  />
<path
    d="M26.6857 60.6743C13.3377 60.7451 0.520447 60.8007 0.520447 60.8007V62.9395C0.520447 62.9395 13.9451 62.8434 26.6857 62.7372V60.6743Z"
    fill="white"
  />
<path
    d="M26.6857 57.0034C13.4295 57.15 0.51532 57.2613 0.51532 57.2613V59.4456C0.51532 59.4456 14.0778 59.2686 26.6857 59.0714V57.0034Z"
    fill="white"
  />
<path
    d="M26.6806 53.3225C13.5214 53.55 0.51532 53.722 0.51532 53.722V55.9517C0.51532 55.9517 14.2207 55.6837 26.6806 55.3905V53.3225Z"
    fill="white"
  />
<path
    d="M26.6857 49.6213C13.6235 49.9398 0.51532 50.1774 0.51532 50.1774V52.4477C0.51532 52.4477 14.3789 52.0735 26.6857 51.6842V49.6162V49.6213Z"
    fill="white"
  />
<path
    d="M26.6908 45.9102C13.7256 46.3197 0.51532 46.6433 0.51532 46.6433V48.959C0.51532 48.959 14.5474 48.4736 26.6908 47.9781V45.9152V45.9102Z"
    fill="white"
  />
<path
    d="M26.6857 42.1838C13.8226 42.6995 0.51532 43.104 0.51532 43.104V45.4602C0.51532 45.4602 14.7209 44.8433 26.6857 44.2315V42.1787V42.1838Z"
    fill="white"
  />
<path
    d="M26.6909 38.4321C13.9247 39.0591 0.510254 39.5597 0.510254 39.5597V41.9613C0.510254 41.9613 14.9047 41.1979 26.6909 40.4647V38.4321Z"
    fill="white"
  />
<path
    d="M26.6909 34.6602C14.0217 35.4085 0.510254 36.0203 0.510254 36.0203V38.4624C0.510254 38.4624 15.0987 37.5321 26.6909 36.6725V34.6602Z"
    fill="white"
  />
<path
    d="M26.6909 30.8679C14.1084 31.7477 0.510254 32.4859 0.510254 32.4859V34.9735C0.510254 34.9735 15.2927 33.8511 26.6909 32.8601V30.873V30.8679Z"
    fill="white"
  />
<path
    d="M26.6908 27.0405C14.185 28.0669 0.505127 28.9416 0.505127 28.9416V31.4697C0.505127 31.4697 15.4866 30.1248 26.6908 28.9922V27.0405Z"
    fill="white"
  />
<path
    d="M86.5759 66.1906V27.5461H28.2527V66.1906H86.5759ZM85.259 28.8355V64.8962H29.5544V28.8405H85.259V28.8355Z"
    fill="white"
  />
</svg>
