<svg
  width="290"
  height="72"
  viewBox="0 0 290 72"
  fill="none"
  xmlns="http://www.w3.org/2000/svg"
>
<path
    d="M29.0595 64.8961H84.7641L84.759 28.8354L29.0544 28.8405L29.0595 64.8961Z"
    fill="#003399"
  />
<path
    d="M57.4401 33.3809H59.4717L57.8331 34.6449L58.4712 36.6472L56.8429 35.4135L55.2146 36.6472L55.8526 34.6449L54.2039 33.3809H56.2303L56.8429 31.4292L57.4401 33.3809Z"
    fill="#FFED00"
  />
<path
    d="M57.5115 59.1573H59.5431L57.9097 60.3759L58.5426 62.3023L56.9143 61.1141L55.286 62.3023L55.9292 60.3759L54.2753 59.1573H56.3018L56.9143 57.2815L57.5115 59.1573Z"
    fill="#FFED00"
  />
<path
    d="M63.9482 57.4534H65.9849L64.3464 58.6669L64.9844 60.5933L63.351 59.4051L61.7227 60.5933L62.3659 58.6669L60.712 57.4534H62.7385L63.351 55.5725L63.9482 57.4534Z"
    fill="#FFED00"
  />
<path
    d="M63.9482 35.1H65.9849L64.3464 36.3185L64.9844 38.2449L63.351 37.0567L61.7227 38.2449L62.3659 36.3185L60.712 35.1H62.7385L63.351 33.2241L63.9482 35.1Z"
    fill="#FFED00"
  />
<path
    d="M68.7311 39.8377H70.7575L69.1241 41.0512L69.7571 42.9776L68.1288 41.7894L66.5005 42.9776L67.1436 41.0512L65.4898 39.8377H67.5162L68.1288 37.9568L68.7311 39.8377Z"
    fill="#FFED00"
  />
<path
    d="M68.7311 52.7814H70.7575L69.1241 53.9999L69.7571 55.9263L68.1288 54.7381L66.5005 55.9263L67.1436 53.9999L65.4898 52.7814H67.5162L68.1288 50.9055L68.7311 52.7814Z"
    fill="#FFED00"
  />
<path
    d="M70.5176 46.2084H72.5543L70.9158 47.4269L71.5487 49.3533L69.9204 48.1651L68.2921 49.3533L68.9353 47.4269L67.2814 46.2084H69.3079L69.9204 44.3325L70.5176 46.2084Z"
    fill="#FFED00"
  />
<path
    d="M50.8809 35.1202H52.9074L51.274 36.3336L51.9069 38.26L50.2786 37.0718L48.6503 38.26L49.2934 36.3336L47.6447 35.1202H49.6661L50.2786 33.2393L50.8809 35.1202Z"
    fill="#FFED00"
  />
<path
    d="M46.2308 39.8528H48.2674L46.6289 41.0663L47.2619 42.9927L45.6336 41.8045L44.0052 42.9927L44.6484 41.0663L42.9946 39.8528H45.021L45.6336 37.9719L46.2308 39.8528Z"
    fill="#FFED00"
  />
<path
    d="M44.5055 46.2286H46.537L44.9036 47.442L45.5366 49.3685L43.9083 48.1853L42.28 49.3685L42.9231 47.442L41.2744 46.2286H43.2957L43.9083 44.3477L44.5055 46.2286Z"
    fill="#FFED00"
  />
<path
    d="M46.2308 52.7965H48.2674L46.6289 54.015L47.2619 55.9414L45.6336 54.7532L44.0052 55.9414L44.6484 54.015L42.9946 52.7965H45.021L45.6336 50.9207L46.2308 52.7965Z"
    fill="#FFED00"
  />
<path
    d="M50.9473 57.4685H52.9737L51.3403 58.682L51.9733 60.6084L50.3449 59.4202L48.7166 60.6084L49.3598 58.682L47.7111 57.4685H49.7324L50.3449 55.5876L50.9473 57.4685Z"
    fill="#FFED00"
  />
<path
    d="M94.9372 0.00505726C94.9372 0.00505726 106.917 18.9101 109.112 22.3736C111.302 25.8371 113.808 28.5826 122.675 30.4433C131.541 32.304 135.4 33.1837 135.4 33.1837V33.8562C135.4 33.8562 129.765 32.668 122.516 31.0652C115.268 29.4624 112.302 28.9214 109 24.3657C106.249 20.5736 94.9372 3.61517 94.9372 3.61517V0V0.00505726Z"
    fill="white"
  />
<path
    d="M94.9372 21.5949C94.9372 21.5949 105.845 32.9157 109 36.1668C112.348 39.6151 116.631 40.8893 122.573 41.941C128.244 42.9421 135.395 44.1 135.395 44.1V44.7371C135.395 44.7371 128.677 43.6449 122.573 42.6135C116.585 41.5972 112.394 41.0309 108.964 37.9011C105.891 35.1 94.9372 24.9219 94.9372 24.9219V21.5898V21.5949Z"
    fill="white"
  />
<path
    d="M94.9372 26.6967C94.9372 26.6967 105.309 36.2377 109 39.499C112.394 42.4973 115.146 43.4327 122.608 44.7422C130.071 46.0518 135.395 46.8658 135.395 46.8658V47.5383C135.395 47.5383 128.642 46.4411 122.573 45.4804C116.503 44.5248 112.634 44.1456 109 41.2282C104.809 37.8608 94.9372 29.8113 94.9372 29.8113V26.6917V26.6967Z"
    fill="white"
  />
<path
    d="M94.9372 32.1321C94.9372 32.1321 106.785 41.4456 109 43.0737C111.215 44.7018 114.145 46.6029 122.644 47.8214C131.071 49.0298 135.395 49.6265 135.395 49.6265V50.3343C135.395 50.3343 127.754 49.2371 122.644 48.6001C117.535 47.963 113.619 47.69 109.036 44.6664C104.574 41.7237 94.9372 35.004 94.9372 35.004V32.1321Z"
    fill="white"
  />
<path
    d="M94.9372 37.3601C94.9372 37.3601 106.82 45.1972 109.071 46.441C111.322 47.6798 113.967 49.7022 122.644 50.7994C131.322 51.8966 135.395 52.3921 135.395 52.3921V53.0646C135.395 53.0646 128.218 52.286 122.608 51.6843C117.004 51.0826 113.18 50.2685 109 47.9983C104.819 45.7331 94.9372 40.0095 94.9372 40.0095V37.3601Z"
    fill="white"
  />
<path
    d="M94.9372 42.5883C94.9372 42.5883 105.442 48.2512 109 50.0158C112.966 51.9878 116.396 52.9333 122.608 53.6664C128.708 54.3844 135.395 55.0821 135.395 55.0821V55.7192C135.395 55.7192 129.213 55.0619 122.608 54.4451C116.059 53.8282 113.727 53.5451 109 51.467C104.773 49.6063 94.9372 45.0658 94.9372 45.0658V42.5833V42.5883Z"
    fill="white"
  />
<path
    d="M94.9372 47.8872C94.9372 47.8872 103.237 51.4063 109.071 53.7018C114.809 55.9569 119.193 56.149 122.68 56.5383C124.216 56.7102 135.395 57.8479 135.395 57.8479V58.485C135.395 58.485 128.718 57.9541 122.644 57.4232C116.57 56.8923 113.951 56.6647 109.036 55.0518C104.059 53.4136 94.9372 50.2636 94.9372 50.2636V47.8923V47.8872Z"
    fill="white"
  />
<path
    d="M94.9372 53.2922C94.9372 53.2922 103.319 55.8658 109.036 57.3524C114.753 58.8389 120 59.4456 122.644 59.6175C125.288 59.7945 135.4 60.6085 135.4 60.6085V61.2102C135.4 61.2102 129.647 60.8209 122.608 60.3254C116.917 59.9259 112.348 59.5012 109 58.7681C105.294 57.9591 94.9372 55.522 94.9372 55.522V53.2922Z"
    fill="white"
  />
<path
    d="M94.9372 58.6062C94.9372 58.6062 101.792 59.7792 109.036 60.9674C114.467 61.8573 121.822 62.4186 122.608 62.454C123.394 62.4893 135.395 63.3034 135.395 63.3034V63.9405C135.395 63.9405 127.713 63.5461 122.608 63.268C117.29 62.9747 112.001 62.6562 109 62.3478C102.272 61.6551 94.9372 60.7349 94.9372 60.7349V58.6062Z"
    fill="white"
  />
<path
    d="M94.9372 64.1074C94.9372 64.1074 105.748 64.5119 109.036 64.5827C112.323 64.6535 135.395 65.5737 135.395 65.5737V66.1956H94.9372V64.1074Z"
    fill="white"
  />
<path
    d="M122.603 33.3656C112.818 31.2774 110.603 27.733 108.959 25.5387C107.315 23.3392 94.9321 5.41504 94.9321 5.41504V8.71167C95.4222 9.34369 106.019 23.8347 108.995 27.6269C112.348 31.8993 117.601 32.8701 122.603 33.9319C127.6 34.9937 135.395 36.4752 135.395 36.4752V35.9089C135.395 35.9089 125.135 33.9016 122.603 33.3656Z"
    fill="white"
  />
<path
    d="M122.603 36.2022C114.569 34.6449 111.317 32.127 108.959 29.0831C106.601 26.0343 94.9321 10.446 94.9321 10.446V14.2786C95.4222 14.85 106.096 27.7534 108.959 30.9994C112.297 34.7865 116.958 35.7826 122.603 36.809C128.249 37.8354 135.39 39.1803 135.39 39.1803V38.614C135.39 38.614 127.238 37.1022 122.603 36.2073V36.2022Z"
    fill="white"
  />
<path
    d="M122.603 39.1399C114.247 37.5321 112.532 36.2124 108.995 32.3748C106.769 29.963 95.4119 16.6804 94.9321 16.1191V19.6585C94.9321 19.6585 105.544 30.8731 108.959 34.1849C113.436 38.5332 117.637 38.8619 122.603 39.7467C127.57 40.6315 135.39 42.0473 135.39 42.0473V41.4456C135.39 41.4456 125.947 39.7871 122.603 39.145V39.1399Z"
    fill="white"
  />
<path
    d="M0.00510552 27.7788C0.00510552 27.7788 27.6711 24.8563 35.4196 23.7793C47.6702 22.0805 57.6953 20.2703 66.9701 6.18887C66.9701 6.18887 66.9803 5.38999 66.9701 5.03101C61.2889 13.5911 53.4536 19.431 42.6628 21.1248C32.1222 22.7833 0 25.2052 0 25.2052V27.7788H0.00510552Z"
    fill="white"
  />
<path
    d="M0.00511169 24.2849C0.00511169 24.2849 25.6446 21.1046 34.0925 19.9315C47.4559 18.081 56.8531 16.4175 66.9701 1.05681C66.9701 1.05681 66.9752 0.394453 66.9701 0.00512695C60.7733 9.3439 53.1218 15.3759 41.351 17.2265C29.8507 19.0366 0.00511169 21.6759 0.00511169 21.6759V24.29V24.2849Z"
    fill="white"
  />
<path d="M26.1806 64.1326H0.020462V66.1854H26.1806V64.1326Z" fill="white" />
<path
    d="M66.9701 22.5708C66.9701 22.5708 66.9854 21.3624 66.9803 21.1045C65.7501 22.9601 64.132 24.6438 62.2638 26.1253H64.0963C65.1274 25.0736 66.0921 23.8955 66.965 22.5708H66.9701Z"
    fill="white"
  />
<path
    d="M66.9701 17.11C66.9701 17.11 66.9803 16.0381 66.9752 15.7449C64.0095 20.2145 59.5942 23.7842 54.4897 26.1505L57.5014 26.1404C60.9826 24.1331 64.2188 21.2814 66.965 17.11H66.9701Z"
    fill="white"
  />
<path
    d="M66.9701 11.6494C66.9701 11.6494 66.9803 10.714 66.9701 10.3904C61.8095 18.1718 53.7853 23.496 43.9746 25.0381C41.6521 25.4022 37.8697 25.8067 33.4748 26.2162L45.4549 26.1758C53.3617 24.4314 60.7631 21.0589 66.9599 11.6494H66.9701Z"
    fill="white"
  />
<path
    d="M26.1857 60.6743C12.8377 60.7451 0.020462 60.8007 0.020462 60.8007V62.9395C0.020462 62.9395 13.4451 62.8434 26.1857 62.7372V60.6743Z"
    fill="white"
  />
<path
    d="M26.1857 57.0034C12.9295 57.15 0.0153351 57.2613 0.0153351 57.2613V59.4456C0.0153351 59.4456 13.5778 59.2686 26.1857 59.0714V57.0034Z"
    fill="white"
  />
<path
    d="M26.1806 53.3225C13.0214 53.55 0.0153351 53.722 0.0153351 53.722V55.9517C0.0153351 55.9517 13.7207 55.6837 26.1806 55.3905V53.3225Z"
    fill="white"
  />
<path
    d="M26.1857 49.6213C13.1235 49.9398 0.0153351 50.1774 0.0153351 50.1774V52.4477C0.0153351 52.4477 13.879 52.0735 26.1857 51.6842V49.6162V49.6213Z"
    fill="white"
  />
<path
    d="M26.1908 45.9102C13.2256 46.3197 0.0153351 46.6433 0.0153351 46.6433V48.959C0.0153351 48.959 14.0474 48.4736 26.1908 47.9781V45.9152V45.9102Z"
    fill="white"
  />
<path
    d="M26.1857 42.1838C13.3226 42.6995 0.0153351 43.104 0.0153351 43.104V45.4602C0.0153351 45.4602 14.2209 44.8433 26.1857 44.2315V42.1787V42.1838Z"
    fill="white"
  />
<path
    d="M26.1908 38.4321C13.4247 39.0591 0.0102234 39.5597 0.0102234 39.5597V41.9613C0.0102234 41.9613 14.4047 41.1979 26.1908 40.4647V38.4321Z"
    fill="white"
  />
<path
    d="M26.1908 34.6602C13.5216 35.4085 0.0102234 36.0203 0.0102234 36.0203V38.4624C0.0102234 38.4624 14.5987 37.5321 26.1908 36.6725V34.6602Z"
    fill="white"
  />
<path
    d="M26.1908 30.8679C13.6084 31.7477 0.0102234 32.4859 0.0102234 32.4859V34.9735C0.0102234 34.9735 14.7926 33.8511 26.1908 32.8601V30.873V30.8679Z"
    fill="white"
  />
<path
    d="M26.1908 27.0405C13.685 28.0669 0.00511169 28.9416 0.00511169 28.9416V31.4697C0.00511169 31.4697 14.9866 30.1248 26.1908 28.9922V27.0405Z"
    fill="white"
  />
<path
    d="M86.0759 66.1906V27.5461H27.7528V66.1906H86.0759ZM84.759 28.8355V64.8962H29.0544V28.8405H84.759V28.8355Z"
    fill="white"
  />
<path d="M231.084 66.2151V27.4038H227.771V66.2151H231.084Z" fill="white" />
<path
    d="M144.404 33.4524C144.404 33.2034 144.521 33.0662 144.79 33.0662H151.896C152.13 33.0662 152.262 33.2034 152.262 33.4321V34.6316C152.262 34.8654 152.165 34.9773 151.876 34.9773H146.605V38.3013H151.276C151.525 38.3013 151.662 38.4182 151.662 38.6469V39.8465C151.662 40.0803 151.566 40.1921 151.276 40.1921H146.605V43.9939H152.013C152.247 43.9939 152.359 44.1108 152.359 44.3599V45.5391C152.359 45.7881 152.262 45.8847 151.993 45.8847H144.79C144.521 45.8847 144.404 45.7678 144.404 45.5391V33.4474V33.4524Z"
    fill="white"
  />
<path
    d="M162.092 45.8895H160.72C160.43 45.8895 160.354 45.7523 160.354 45.5235V44.9238L160.313 44.9034C159.561 45.427 158.245 46.0623 157.07 46.0623C154.463 46.0623 154.214 44.5172 154.214 42.4892V36.8118C154.214 36.578 154.311 36.4255 154.58 36.4255H155.988C156.237 36.4255 156.333 36.5628 156.333 36.8118V42.2401C156.333 43.399 156.562 44.1309 157.741 44.1309C158.57 44.1309 159.846 43.5108 160.349 43.2617V36.8118C160.349 36.578 160.425 36.4255 160.715 36.4255H162.087C162.356 36.4255 162.453 36.5628 162.453 36.8118V45.5235C162.453 45.7726 162.356 45.8895 162.087 45.8895H162.092Z"
    fill="white"
  />
<path
    d="M166.997 45.5238C166.997 45.7576 166.9 45.8898 166.631 45.8898H165.238C164.969 45.8898 164.872 45.7729 164.872 45.5238V36.8121C164.872 36.563 164.969 36.4258 165.238 36.4258H166.611C166.9 36.4258 166.997 36.5783 166.997 36.8121V37.6609L167.037 37.7016C167.617 37.1628 168.989 36.5021 169.894 36.3292C170.143 36.2733 170.321 36.3292 170.356 36.6596L170.494 37.9557C170.514 38.2251 170.534 38.342 170.128 38.4182C169.045 38.6317 167.673 39.018 166.997 39.3077V45.5238Z"
    fill="white"
  />
<path
    d="M175.5 46.0474C171.617 46.0474 171.368 43.2112 171.368 41.0054C171.368 39.1908 171.775 36.2378 175.5 36.2378C179.226 36.2378 179.77 38.7283 179.77 41.0054C179.77 43.2824 179.5 46.0474 175.5 46.0474ZM175.521 38.093C173.879 38.093 173.513 39.1349 173.513 41.1426C173.513 43.1502 173.879 44.1922 175.5 44.1922C177.259 44.1922 177.604 43.2061 177.604 41.1426C177.604 39.079 177.274 38.093 175.521 38.093ZM178.011 32.2022C178.225 32.3191 178.204 32.4715 178.087 32.6291L176.115 35.3331C176.019 35.4703 175.922 35.5262 175.749 35.45L174.997 35.1044C174.86 35.0281 174.804 34.9315 174.9 34.7384L176.446 31.7447C176.542 31.5516 176.695 31.5516 176.873 31.6278L178.011 32.2072V32.2022Z"
    fill="white"
  />
<path
    d="M186.158 46.0622C185.523 46.0622 184.634 45.9453 183.744 45.6352L183.724 45.6556V49.0559C183.724 49.2694 183.668 49.4422 183.358 49.4422H181.986C181.676 49.4422 181.62 49.3049 181.62 49.0559V36.8117C181.62 36.5627 181.716 36.4254 181.986 36.4254H183.358C183.627 36.4254 183.704 36.5779 183.704 36.8117V37.3911L183.759 37.4318C184.456 36.9489 185.691 36.2729 186.809 36.2729C189.34 36.2729 189.996 38.184 189.996 41.1015C189.996 44.2477 189.203 46.0622 186.153 46.0622H186.158ZM186.311 38.2044C185.518 38.2044 184.303 38.7635 183.724 39.0735V43.9021C184.593 44.1511 185.289 44.2324 185.945 44.2324C187.338 44.2324 187.82 43.5158 187.82 41.0862C187.82 38.6567 187.338 38.2095 186.316 38.2095L186.311 38.2044Z"
    fill="white"
  />
<path
    d="M194.891 46.0474C193.925 46.0474 192.629 45.9101 191.897 45.6204C191.511 45.4679 191.434 45.29 191.49 44.9851L191.628 44.3497C191.683 44.0397 191.821 44.0194 192.131 44.06C192.98 44.1973 194.215 44.2938 194.875 44.2938C196.11 44.2938 196.614 43.9635 196.614 43.1909C196.614 42.3014 196.283 42.1083 195.068 41.9355C193.178 41.6661 191.516 41.2595 191.516 39.1553C191.516 37.2442 192.985 36.2378 195.145 36.2378C195.938 36.2378 197.269 36.3547 198.083 36.6647C198.413 36.802 198.545 36.9545 198.489 37.2442L198.337 37.9405C198.281 38.2099 198.164 38.2505 197.813 38.2099C196.985 38.1133 195.902 37.9964 195.185 37.9964C193.95 37.9964 193.661 38.342 193.661 39.079C193.661 39.816 194.123 39.9278 195.302 40.121C197.137 40.3903 198.799 40.7563 198.799 43.0588C198.799 45.3612 196.888 46.0524 194.901 46.0524L194.891 46.0474Z"
    fill="white"
  />
<path
    d="M202.789 39.9226L204.278 38.3571L205.879 36.7358C206.073 36.5426 206.21 36.4054 206.576 36.4054H208.121C208.487 36.4054 208.548 36.6189 208.334 36.8476L205.244 39.9938L208.721 45.4373C208.858 45.6711 208.741 45.8795 208.472 45.8795H206.982C206.576 45.8795 206.444 45.7423 206.306 45.5135L203.836 41.5541L202.738 42.6723V45.5085C202.738 45.7219 202.662 45.8744 202.372 45.8744H201C200.731 45.8744 200.634 45.7575 200.634 45.5085V32.629C200.634 32.3799 200.731 32.2427 201 32.2427H202.372C202.662 32.2427 202.738 32.3952 202.738 32.629V39.8921L202.794 39.9124L202.789 39.9226Z"
    fill="white"
  />
<path
    d="M215.882 44.7921C214.916 45.524 213.62 46.0475 212.329 46.0475C210.281 46.0475 209.681 44.9293 209.681 43.308C209.661 41.0462 210.881 40.0805 213.31 40.0805H215.78V39.5773C215.78 38.4184 215.353 38.0118 213.773 38.0118C213.137 38.0118 211.918 38.1084 211.145 38.1846C210.759 38.2405 210.662 38.2253 210.606 37.9508L210.433 37.2342C210.393 36.9851 210.454 36.8275 210.876 36.6547C211.704 36.365 213.234 36.2278 214.139 36.2278C217.478 36.2278 217.885 37.6001 217.885 39.7602V43.4858C217.885 44.2787 217.981 44.2991 218.581 44.3753C218.871 44.3956 218.947 44.4516 218.947 44.665V45.4783C218.947 45.6917 218.81 45.8239 218.484 45.8849C218.174 45.9408 217.864 45.9814 217.575 45.9814C216.665 45.9814 216.106 45.7121 215.913 44.8023L215.872 44.7819L215.882 44.7921ZM215.765 41.5849H213.407C212.441 41.5849 211.821 41.9305 211.821 43.2063C211.821 44.0551 212.111 44.3245 213.02 44.3245C213.849 44.3245 215.028 43.8416 215.765 43.4147V41.5798V41.5849Z"
    fill="white"
  />
<path
    d="M146.554 60.2534L148.043 58.6879L149.644 57.0666C149.838 56.8734 149.975 56.7362 150.341 56.7362H151.886C152.252 56.7362 152.313 56.9497 152.099 57.1784L149.009 60.3246L152.486 65.7681C152.623 66.0019 152.506 66.2103 152.237 66.2103H150.747C150.341 66.2103 150.209 66.0731 150.071 65.8444L147.601 61.8849L146.498 63.0031V65.8393C146.498 66.0527 146.422 66.2052 146.132 66.2052H144.76C144.491 66.2052 144.394 66.0883 144.394 65.8393V52.9598C144.394 52.7107 144.491 52.5735 144.76 52.5735H146.132C146.422 52.5735 146.498 52.726 146.498 52.9598V60.2229L146.554 60.2432V60.2534Z"
    fill="white"
  />
<path
    d="M157.426 66.3779C153.543 66.3779 153.294 63.5418 153.294 61.3359C153.294 59.5214 153.701 56.5684 157.426 56.5684C161.152 56.5684 161.696 59.0589 161.696 61.3359C161.696 63.6129 161.426 66.3779 157.426 66.3779ZM157.446 58.4235C155.805 58.4235 155.439 59.4655 155.439 61.4731C155.439 63.4808 155.805 64.5227 157.426 64.5227C159.185 64.5227 159.53 63.5367 159.53 61.4731C159.53 59.4096 159.2 58.4235 157.446 58.4235Z"
    fill="white"
  />
<path
    d="M177.071 66.2203H175.678C175.409 66.2203 175.312 66.1034 175.312 65.8543V60.3701C175.312 58.9419 174.966 58.5352 174.001 58.5352C173.284 58.5352 172.125 59.0943 171.53 59.4044C171.53 59.5975 171.551 59.9431 171.551 60.3904V65.8543C171.551 66.0881 171.475 66.2203 171.185 66.2203H169.777C169.528 66.2203 169.447 66.1034 169.447 65.8543V60.2735C169.447 59.0943 169.137 58.5352 168.171 58.5352C167.495 58.5352 166.412 59.0181 165.68 59.4044V65.8543C165.68 66.0881 165.584 66.2203 165.314 66.2203H163.927C163.678 66.2203 163.581 66.1034 163.581 65.8543V57.1426C163.581 56.8935 163.678 56.7563 163.927 56.7563H165.299C165.589 56.7563 165.685 56.9088 165.685 57.1426V57.7017L165.706 57.722C166.458 57.1985 167.52 56.6242 168.583 56.5835C169.701 56.5835 170.631 56.8173 171.231 57.9355C172.196 57.2188 173.396 56.5835 174.631 56.5835C177.177 56.5835 177.431 58.2455 177.431 60.1769V65.8543C177.431 66.0881 177.355 66.2203 177.086 66.2203H177.071Z"
    fill="white"
  />
<path
    d="M180.857 55.3686C179.851 55.3686 179.719 54.8095 179.719 54.2504C179.719 53.6303 179.932 53.1475 180.857 53.1475C181.782 53.1475 181.996 53.5897 181.996 54.2504C181.996 54.8502 181.823 55.3686 180.857 55.3686ZM181.879 65.8542C181.879 66.0676 181.803 66.2201 181.533 66.2201H180.161C179.892 66.2201 179.775 66.1032 179.775 65.8542V57.1272C179.775 56.8578 179.892 56.7612 180.161 56.7612H181.533C181.803 56.7612 181.879 56.9137 181.879 57.1272V65.8542Z"
    fill="white"
  />
<path
    d="M187.444 66.3779C186.479 66.3779 185.183 66.2407 184.451 65.951C184.064 65.7985 183.988 65.6206 184.044 65.3156L184.181 64.6803C184.237 64.3703 184.374 64.3499 184.685 64.3906C185.533 64.5278 186.768 64.6244 187.429 64.6244C188.664 64.6244 189.167 64.294 189.167 63.5215C189.167 62.632 188.837 62.4388 187.622 62.266C185.732 61.9967 184.069 61.59 184.069 59.4858C184.069 57.5747 185.538 56.5684 187.699 56.5684C188.491 56.5684 189.823 56.6853 190.636 56.9953C190.967 57.1325 191.099 57.285 191.043 57.5747L190.89 58.2711C190.835 58.5404 190.718 58.5811 190.367 58.5404C189.538 58.4439 188.456 58.327 187.739 58.327C186.504 58.327 186.214 58.6726 186.214 59.4096C186.214 60.1466 186.677 60.2584 187.856 60.4515C189.691 60.7209 191.353 61.0869 191.353 63.3893C191.353 65.6918 189.442 66.383 187.455 66.383L187.444 66.3779Z"
    fill="white"
  />
<path
    d="M194.494 55.3686C193.488 55.3686 193.356 54.8095 193.356 54.2504C193.356 53.6303 193.569 53.1475 194.494 53.1475C195.419 53.1475 195.633 53.5897 195.633 54.2504C195.633 54.8502 195.46 55.3686 194.494 55.3686ZM195.516 65.8542C195.516 66.0676 195.44 66.2201 195.17 66.2201H193.798C193.528 66.2201 193.412 66.1032 193.412 65.8542V57.1272C193.412 56.8578 193.528 56.7612 193.798 56.7612H195.17C195.44 56.7612 195.516 56.9137 195.516 57.1272V65.8542Z"
    fill="white"
  />
<path
    d="M203.877 65.1227C202.911 65.8546 201.615 66.3781 200.324 66.3781C198.276 66.3781 197.676 65.2599 197.676 63.6385C197.655 61.3767 198.875 60.411 201.305 60.411H203.775V59.9078C203.775 58.749 203.353 58.3424 201.767 58.3424C201.132 58.3424 199.912 58.4389 199.14 58.5152C198.753 58.5711 198.657 58.5558 198.601 58.2814L198.428 57.5647C198.387 57.3157 198.448 57.1581 198.87 56.9853C199.699 56.6956 201.229 56.5583 202.133 56.5583C205.473 56.5583 205.879 57.9307 205.879 60.0908V63.8164C205.879 64.6093 205.976 64.6296 206.576 64.7059C206.865 64.7262 206.942 64.7821 206.942 64.9956V65.8088C206.942 66.0223 206.804 66.1544 206.479 66.2154C206.169 66.2713 205.859 66.312 205.569 66.312C204.659 66.312 204.1 66.0426 203.907 65.1328L203.866 65.1125L203.877 65.1227ZM203.76 61.9155H201.401C200.436 61.9155 199.816 62.2611 199.816 63.5369C199.816 64.3857 200.105 64.6551 201.015 64.6551C201.844 64.6551 203.023 64.1722 203.76 63.7453V61.9104V61.9155Z"
    fill="white"
  />
</svg>
