<svg
  width="290"
  height="72"
  viewBox="0 0 290 72"
  fill="none"
  xmlns="http://www.w3.org/2000/svg"
>
<path
    d="M29.0595 64.8961H84.7641L84.759 28.8354L29.0544 28.8405L29.0595 64.8961Z"
    fill="#003399"
  />
<path
    d="M57.4401 33.3809H59.4717L57.8331 34.6449L58.4712 36.6472L56.8429 35.4135L55.2146 36.6472L55.8526 34.6449L54.2039 33.3809H56.2303L56.8429 31.4292L57.4401 33.3809Z"
    fill="#FFED00"
  />
<path
    d="M57.5115 59.1573H59.5431L57.9097 60.3759L58.5426 62.3023L56.9143 61.1141L55.286 62.3023L55.9292 60.3759L54.2753 59.1573H56.3018L56.9143 57.2815L57.5115 59.1573Z"
    fill="#FFED00"
  />
<path
    d="M63.9482 57.4534H65.9849L64.3464 58.6669L64.9844 60.5933L63.351 59.4051L61.7227 60.5933L62.3659 58.6669L60.712 57.4534H62.7385L63.351 55.5725L63.9482 57.4534Z"
    fill="#FFED00"
  />
<path
    d="M63.9482 35.1H65.9849L64.3464 36.3185L64.9844 38.2449L63.351 37.0567L61.7227 38.2449L62.3659 36.3185L60.712 35.1H62.7385L63.351 33.2241L63.9482 35.1Z"
    fill="#FFED00"
  />
<path
    d="M68.7311 39.8377H70.7575L69.1241 41.0512L69.7571 42.9776L68.1288 41.7894L66.5005 42.9776L67.1436 41.0512L65.4898 39.8377H67.5162L68.1288 37.9568L68.7311 39.8377Z"
    fill="#FFED00"
  />
<path
    d="M68.7311 52.7815H70.7575L69.1241 54L69.7571 55.9264L68.1288 54.7382L66.5005 55.9264L67.1436 54L65.4898 52.7815H67.5162L68.1288 50.9056L68.7311 52.7815Z"
    fill="#FFED00"
  />
<path
    d="M70.5176 46.2085H72.5543L70.9158 47.427L71.5487 49.3534L69.9204 48.1652L68.2921 49.3534L68.9353 47.427L67.2814 46.2085H69.3079L69.9204 44.3326L70.5176 46.2085Z"
    fill="#FFED00"
  />
<path
    d="M50.8809 35.1203H52.9074L51.274 36.3338L51.9069 38.2602L50.2786 37.072L48.6503 38.2602L49.2934 36.3338L47.6447 35.1203H49.6661L50.2786 33.2394L50.8809 35.1203Z"
    fill="#FFED00"
  />
<path
    d="M46.2308 39.8527H48.2674L46.6289 41.0662L47.2619 42.9926L45.6336 41.8044L44.0052 42.9926L44.6484 41.0662L42.9946 39.8527H45.021L45.6336 37.9718L46.2308 39.8527Z"
    fill="#FFED00"
  />
<path
    d="M44.5055 46.2287H46.537L44.9036 47.4422L45.5366 49.3686L43.9083 48.1854L42.28 49.3686L42.9231 47.4422L41.2744 46.2287H43.2957L43.9083 44.3478L44.5055 46.2287Z"
    fill="#FFED00"
  />
<path
    d="M46.2308 52.7966H48.2674L46.6289 54.0152L47.2619 55.9416L45.6336 54.7534L44.0052 55.9416L44.6484 54.0152L42.9946 52.7966H45.021L45.6336 50.9208L46.2308 52.7966Z"
    fill="#FFED00"
  />
<path
    d="M50.9473 57.4685H52.9737L51.3403 58.682L51.9733 60.6084L50.3449 59.4202L48.7166 60.6084L49.3598 58.682L47.7111 57.4685H49.7324L50.3449 55.5876L50.9473 57.4685Z"
    fill="#FFED00"
  />
<path
    d="M94.9372 0.00505726C94.9372 0.00505726 106.917 18.9101 109.112 22.3736C111.302 25.8371 113.808 28.5826 122.675 30.4433C131.541 32.304 135.4 33.1837 135.4 33.1837V33.8562C135.4 33.8562 129.765 32.668 122.516 31.0652C115.268 29.4624 112.302 28.9214 109 24.3657C106.249 20.5736 94.9372 3.61517 94.9372 3.61517V0V0.00505726Z"
    fill="white"
  />
<path
    d="M94.9372 21.5949C94.9372 21.5949 105.845 32.9157 109 36.1668C112.348 39.6151 116.631 40.8893 122.573 41.941C128.244 42.9421 135.395 44.1 135.395 44.1V44.7371C135.395 44.7371 128.677 43.6449 122.573 42.6135C116.585 41.5972 112.394 41.0309 108.964 37.9011C105.891 35.1 94.9372 24.9219 94.9372 24.9219V21.5898V21.5949Z"
    fill="white"
  />
<path
    d="M94.9372 26.6966C94.9372 26.6966 105.309 36.2376 109 39.4988C112.394 42.4972 115.146 43.4325 122.608 44.7421C130.071 46.0517 135.395 46.8657 135.395 46.8657V47.5382C135.395 47.5382 128.642 46.441 122.573 45.4803C116.503 44.5247 112.634 44.1455 109 41.2281C104.809 37.8606 94.9372 29.8112 94.9372 29.8112V26.6915V26.6966Z"
    fill="white"
  />
<path
    d="M94.9372 32.1321C94.9372 32.1321 106.785 41.4456 109 43.0737C111.215 44.7018 114.145 46.6029 122.644 47.8214C131.071 49.0298 135.395 49.6265 135.395 49.6265V50.3343C135.395 50.3343 127.754 49.2371 122.644 48.6001C117.535 47.963 113.619 47.69 109.036 44.6664C104.574 41.7237 94.9372 35.004 94.9372 35.004V32.1321Z"
    fill="white"
  />
<path
    d="M94.9372 37.3601C94.9372 37.3601 106.82 45.1972 109.071 46.441C111.322 47.6798 113.967 49.7022 122.644 50.7994C131.322 51.8966 135.395 52.3921 135.395 52.3921V53.0646C135.395 53.0646 128.218 52.286 122.608 51.6843C117.004 51.0826 113.18 50.2685 109 47.9983C104.819 45.7331 94.9372 40.0095 94.9372 40.0095V37.3601Z"
    fill="white"
  />
<path
    d="M94.9372 42.5883C94.9372 42.5883 105.442 48.2512 109 50.0158C112.966 51.9878 116.396 52.9333 122.608 53.6664C128.708 54.3844 135.395 55.0821 135.395 55.0821V55.7192C135.395 55.7192 129.213 55.0619 122.608 54.4451C116.059 53.8282 113.727 53.5451 109 51.467C104.773 49.6063 94.9372 45.0658 94.9372 45.0658V42.5833V42.5883Z"
    fill="white"
  />
<path
    d="M94.9372 47.8871C94.9372 47.8871 103.237 51.4062 109.071 53.7017C114.809 55.9568 119.193 56.1489 122.68 56.5382C124.216 56.7101 135.395 57.8478 135.395 57.8478V58.4848C135.395 58.4848 128.718 57.9539 122.644 57.423C116.57 56.8921 113.951 56.6646 109.036 55.0517C104.059 53.4135 94.9372 50.2635 94.9372 50.2635V47.8921V47.8871Z"
    fill="white"
  />
<path
    d="M94.9372 53.2921C94.9372 53.2921 103.319 55.8657 109.036 57.3522C114.753 58.8387 120 59.4455 122.644 59.6174C125.288 59.7944 135.4 60.6084 135.4 60.6084V61.2101C135.4 61.2101 129.647 60.8208 122.608 60.3253C116.917 59.9258 112.348 59.5011 109 58.768C105.294 57.959 94.9372 55.5219 94.9372 55.5219V53.2921Z"
    fill="white"
  />
<path
    d="M94.9372 58.6062C94.9372 58.6062 101.792 59.7792 109.036 60.9674C114.467 61.8573 121.822 62.4186 122.608 62.454C123.394 62.4893 135.395 63.3034 135.395 63.3034V63.9405C135.395 63.9405 127.713 63.5461 122.608 63.268C117.29 62.9747 112.001 62.6562 109 62.3478C102.272 61.6551 94.9372 60.7349 94.9372 60.7349V58.6062Z"
    fill="white"
  />
<path
    d="M94.9372 64.1074C94.9372 64.1074 105.748 64.5119 109.036 64.5827C112.323 64.6535 135.395 65.5737 135.395 65.5737V66.1956H94.9372V64.1074Z"
    fill="white"
  />
<path
    d="M122.603 33.3657C112.818 31.2775 110.603 27.7332 108.959 25.5388C107.315 23.3393 94.9321 5.41516 94.9321 5.41516V8.71179C95.4222 9.34382 106.019 23.8348 108.995 27.627C112.348 31.8994 117.601 32.8702 122.603 33.932C127.6 34.9938 135.395 36.4753 135.395 36.4753V35.909C135.395 35.909 125.135 33.9017 122.603 33.3657Z"
    fill="white"
  />
<path
    d="M122.603 36.2022C114.569 34.6449 111.317 32.127 108.959 29.0831C106.601 26.0343 94.9321 10.446 94.9321 10.446V14.2786C95.4222 14.85 106.096 27.7534 108.959 30.9994C112.297 34.7865 116.958 35.7826 122.603 36.809C128.249 37.8354 135.39 39.1803 135.39 39.1803V38.614C135.39 38.614 127.238 37.1022 122.603 36.2073V36.2022Z"
    fill="white"
  />
<path
    d="M122.603 39.1399C114.247 37.5321 112.532 36.2124 108.995 32.3748C106.769 29.963 95.4119 16.6804 94.9321 16.1191V19.6585C94.9321 19.6585 105.544 30.8731 108.959 34.1849C113.436 38.5332 117.637 38.8619 122.603 39.7467C127.57 40.6315 135.39 42.0473 135.39 42.0473V41.4456C135.39 41.4456 125.947 39.7871 122.603 39.145V39.1399Z"
    fill="white"
  />
<path
    d="M0.00510552 27.7787C0.00510552 27.7787 27.6711 24.8562 35.4196 23.7792C47.6702 22.0803 57.6953 20.2702 66.9701 6.18875C66.9701 6.18875 66.9803 5.38987 66.9701 5.03088C61.2889 13.591 53.4536 19.4309 42.6628 21.1247C32.1222 22.7831 0 25.2051 0 25.2051V27.7787H0.00510552Z"
    fill="white"
  />
<path
    d="M0.00511169 24.2848C0.00511169 24.2848 25.6446 21.1045 34.0925 19.9314C47.4559 18.0809 56.8531 16.4174 66.9701 1.05669C66.9701 1.05669 66.9752 0.394331 66.9701 0.00500488C60.7733 9.34378 53.1218 15.3758 41.351 17.2264C29.8507 19.0365 0.00511169 21.6758 0.00511169 21.6758V24.2899V24.2848Z"
    fill="white"
  />
<path d="M26.1806 64.1326H0.020462V66.1854H26.1806V64.1326Z" fill="white" />
<path
    d="M66.9701 22.5708C66.9701 22.5708 66.9854 21.3624 66.9803 21.1045C65.7501 22.9601 64.132 24.6438 62.2638 26.1253H64.0963C65.1274 25.0736 66.0921 23.8955 66.965 22.5708H66.9701Z"
    fill="white"
  />
<path
    d="M66.9701 17.1102C66.9701 17.1102 66.9803 16.0383 66.9752 15.745C64.0095 20.2147 59.5942 23.7843 54.4897 26.1506L57.5014 26.1405C60.9826 24.1332 64.2188 21.2815 66.965 17.1102H66.9701Z"
    fill="white"
  />
<path
    d="M66.9701 11.6494C66.9701 11.6494 66.9803 10.714 66.9701 10.3904C61.8095 18.1718 53.7853 23.496 43.9746 25.0381C41.6521 25.4022 37.8697 25.8067 33.4748 26.2162L45.4549 26.1758C53.3617 24.4314 60.7631 21.0589 66.9599 11.6494H66.9701Z"
    fill="white"
  />
<path
    d="M26.1857 60.6742C12.8377 60.745 0.020462 60.8006 0.020462 60.8006V62.9394C0.020462 62.9394 13.4451 62.8433 26.1857 62.7371V60.6742Z"
    fill="white"
  />
<path
    d="M26.1857 57.0034C12.9295 57.15 0.0153351 57.2613 0.0153351 57.2613V59.4456C0.0153351 59.4456 13.5778 59.2686 26.1857 59.0714V57.0034Z"
    fill="white"
  />
<path
    d="M26.1806 53.3225C13.0214 53.55 0.0153351 53.722 0.0153351 53.722V55.9517C0.0153351 55.9517 13.7207 55.6837 26.1806 55.3905V53.3225Z"
    fill="white"
  />
<path
    d="M26.1857 49.6214C13.1235 49.9399 0.0153351 50.1776 0.0153351 50.1776V52.4478C0.0153351 52.4478 13.879 52.0736 26.1857 51.6843V49.6163V49.6214Z"
    fill="white"
  />
<path
    d="M26.1908 45.9102C13.2256 46.3197 0.0153351 46.6433 0.0153351 46.6433V48.959C0.0153351 48.959 14.0474 48.4736 26.1908 47.9781V45.9152V45.9102Z"
    fill="white"
  />
<path
    d="M26.1857 42.1838C13.3226 42.6995 0.0153351 43.104 0.0153351 43.104V45.4602C0.0153351 45.4602 14.2209 44.8433 26.1857 44.2315V42.1787V42.1838Z"
    fill="white"
  />
<path
    d="M26.1908 38.432C13.4247 39.059 0.0102234 39.5595 0.0102234 39.5595V41.9612C0.0102234 41.9612 14.4047 41.1977 26.1908 40.4646V38.432Z"
    fill="white"
  />
<path
    d="M26.1908 34.6602C13.5216 35.4085 0.0102234 36.0203 0.0102234 36.0203V38.4624C0.0102234 38.4624 14.5987 37.5321 26.1908 36.6725V34.6602Z"
    fill="white"
  />
<path
    d="M26.1908 30.868C13.6084 31.7478 0.0102234 32.486 0.0102234 32.486V34.9737C0.0102234 34.9737 14.7926 33.8512 26.1908 32.8602V30.8731V30.868Z"
    fill="white"
  />
<path
    d="M26.1908 27.0404C13.685 28.0668 0.00511169 28.9415 0.00511169 28.9415V31.4696C0.00511169 31.4696 14.9866 30.1247 26.1908 28.9921V27.0404Z"
    fill="white"
  />
<path
    d="M86.0759 66.1906V27.5461H27.7528V66.1906H86.0759ZM84.759 28.8355V64.8962H29.0544V28.8405H84.759V28.8355Z"
    fill="white"
  />
<path d="M243.414 66.2222V27.8269H240.136V66.2222H243.414Z" fill="white" />
<path
    d="M144.429 33.8105C144.429 33.5641 144.545 33.4283 144.811 33.4283H151.841C152.072 33.4283 152.203 33.5641 152.203 33.7904V34.977C152.203 35.2083 152.107 35.3189 151.821 35.3189H146.606V38.6074H151.232C151.479 38.6074 151.614 38.723 151.614 38.9493V40.136C151.614 40.3672 151.519 40.4779 151.232 40.4779H146.606V44.239H151.956C152.188 44.239 152.298 44.3546 152.298 44.601V45.7675C152.298 46.0139 152.203 46.1094 151.936 46.1094H144.811C144.545 46.1094 144.429 45.9938 144.429 45.7675V33.8055V33.8105Z"
    fill="white"
  />
<path
    d="M161.927 46.1144H160.57C160.283 46.1144 160.208 45.9787 160.208 45.7524V45.1591L160.167 45.139C159.423 45.6569 158.121 46.2854 156.959 46.2854C154.38 46.2854 154.134 44.7568 154.134 42.7506V37.1341C154.134 36.9028 154.229 36.752 154.496 36.752H155.888C156.135 36.752 156.23 36.8877 156.23 37.1341V42.5042C156.23 43.6506 156.462 44.3747 157.623 44.3747C158.443 44.3747 159.705 43.7612 160.203 43.5149V37.1341C160.203 36.9028 160.278 36.752 160.565 36.752H161.922C162.189 36.752 162.284 36.8877 162.284 37.1341V45.7524C162.284 45.9988 162.189 46.1144 161.922 46.1144H161.927Z"
    fill="white"
  />
<path
    d="M166.785 45.7474C166.785 45.9787 166.689 46.1094 166.423 46.1094H165.045C164.778 46.1094 164.683 45.9938 164.683 45.7474V37.1291C164.683 36.8827 164.778 36.747 165.045 36.747H166.402C166.689 36.747 166.785 36.8978 166.785 37.1291V37.9688L166.825 38.009C167.398 37.476 168.756 36.8224 169.651 36.6514C169.897 36.5961 170.073 36.6514 170.108 36.9783L170.244 38.2604C170.264 38.5269 170.284 38.6426 169.882 38.718C168.811 38.9292 167.453 39.3113 166.79 39.5979V45.7474H166.785Z"
    fill="white"
  />
<path
    d="M175.192 46.2653C171.35 46.2653 171.104 43.4596 171.104 41.2774C171.104 39.4823 171.506 36.5609 175.192 36.5609C178.878 36.5609 179.416 39.0247 179.416 41.2774C179.416 43.53 179.149 46.2653 175.192 46.2653ZM175.212 38.3962C173.588 38.3962 173.226 39.427 173.226 41.4131C173.226 43.3992 173.588 44.43 175.192 44.43C176.932 44.43 177.274 43.4546 177.274 41.4131C177.274 39.3717 176.947 38.3962 175.212 38.3962Z"
    fill="white"
  />
<path
    d="M185.736 46.2854C185.107 46.2854 184.227 46.1697 183.347 45.863L183.327 45.8831V49.247C183.327 49.4582 183.272 49.6291 182.965 49.6291H181.607C181.301 49.6291 181.245 49.4934 181.245 49.247V37.1341C181.245 36.8877 181.341 36.7519 181.607 36.7519H182.965C183.232 36.7519 183.307 36.9028 183.307 37.1341V37.7073L183.362 37.7475C184.051 37.2698 185.273 36.6011 186.379 36.6011C188.883 36.6011 189.532 38.4917 189.532 41.3779C189.532 44.4903 188.747 46.2854 185.731 46.2854H185.736ZM185.886 38.5118C185.102 38.5118 183.9 39.0649 183.327 39.3716V44.1484C184.187 44.3948 184.876 44.4752 185.524 44.4752C186.902 44.4752 187.38 43.7662 187.38 41.3628C187.38 38.9593 186.902 38.5168 185.891 38.5168L185.886 38.5118Z"
    fill="white"
  />
<path
    d="M193.208 42.0064C193.263 43.9372 193.952 44.4702 195.521 44.4702C196.209 44.4702 197.28 44.3345 198.005 44.259C198.346 44.2188 198.462 44.2188 198.522 44.5859L198.638 45.2144C198.693 45.501 198.658 45.6519 198.311 45.8077C197.567 46.0943 196.174 46.2854 195.234 46.2854C191.584 46.2854 191.051 43.9574 191.051 41.4734C191.051 39.618 191.392 36.5659 195.118 36.5659C198.538 36.5659 199.151 38.7833 199.206 40.8449C199.226 41.5338 199.035 42.0114 198.271 42.0114H193.208V42.0064ZM193.228 40.5734H197.009C197.009 39.4068 196.702 38.2805 195.118 38.2805C193.705 38.2805 193.323 39.1404 193.228 40.5734Z"
    fill="white"
  />
<path
    d="M204.079 46.2653C203.123 46.2653 201.841 46.1296 201.117 45.8429C200.735 45.6921 200.659 45.5161 200.715 45.2144L200.85 44.5859C200.906 44.2792 201.041 44.2591 201.348 44.2993C202.188 44.4351 203.41 44.5306 204.063 44.5306C205.285 44.5306 205.783 44.2038 205.783 43.4395C205.783 42.5595 205.456 42.3685 204.254 42.1975C202.384 41.931 200.74 41.5288 200.74 39.4471C200.74 37.5565 202.193 36.5609 204.33 36.5609C205.114 36.5609 206.432 36.6766 207.236 36.9833C207.563 37.119 207.694 37.2699 207.638 37.5565L207.488 38.2454C207.432 38.5118 207.317 38.5521 206.97 38.5118C206.15 38.4163 205.079 38.3007 204.37 38.3007C203.148 38.3007 202.862 38.6426 202.862 39.3717C202.862 40.1008 203.319 40.2114 204.486 40.4024C206.301 40.6689 207.945 41.031 207.945 43.3087C207.945 45.5865 206.055 46.2703 204.089 46.2703L204.079 46.2653Z"
    fill="white"
  />
<path
    d="M211.686 42.0064C211.742 43.9372 212.43 44.4702 213.999 44.4702C214.688 44.4702 215.759 44.3345 216.483 44.259C216.825 44.2188 216.941 44.2188 217.001 44.5859L217.117 45.2144C217.172 45.501 217.137 45.6519 216.79 45.8077C216.046 46.0943 214.653 46.2854 213.713 46.2854C210.062 46.2854 209.529 43.9574 209.529 41.4734C209.529 39.618 209.871 36.5659 213.597 36.5659C217.016 36.5659 217.63 38.7833 217.685 40.8449C217.705 41.5338 217.514 42.0114 216.75 42.0114H211.686V42.0064ZM211.706 40.5734H215.488C215.488 39.4068 215.181 38.2805 213.597 38.2805C212.184 38.2805 211.802 39.1404 211.706 40.5734Z"
    fill="white"
  />
<path
    d="M149.558 53.4053C150.493 53.4053 152.042 53.541 153.053 53.9584C153.359 54.0941 153.475 54.245 153.415 54.5517L153.244 55.3361C153.188 55.5674 153.093 55.6629 152.746 55.6227C151.811 55.5071 150.664 55.3763 149.669 55.3763C147.069 55.3763 146.687 57.4781 146.687 59.962C146.687 62.446 147.165 64.4321 149.669 64.4321C150.775 64.4321 151.715 64.3164 152.746 64.1857C153.108 64.1455 153.183 64.241 153.264 64.4924L153.415 65.2165C153.49 65.5232 153.395 65.6942 153.088 65.8299C152.153 66.2322 150.488 66.4031 149.553 66.4031C145.294 66.4031 144.394 63.2505 144.394 60.0023C144.394 56.7541 145.199 53.4103 149.553 53.4103L149.558 53.4053Z"
    fill="white"
  />
<path
    d="M158.88 66.378C155.039 66.378 154.792 63.5723 154.792 61.39C154.792 59.595 155.195 56.6736 158.88 56.6736C162.566 56.6736 163.104 59.1374 163.104 61.39C163.104 63.6427 162.837 66.378 158.88 66.378ZM158.9 58.5089C157.276 58.5089 156.914 59.5397 156.914 61.5258C156.914 63.5119 157.276 64.5427 158.88 64.5427C160.62 64.5427 160.962 63.5672 160.962 61.5258C160.962 59.4843 160.635 58.5089 158.9 58.5089Z"
    fill="white"
  />
<path
    d="M178.309 66.2272H176.931C176.665 66.2272 176.569 66.1115 176.569 65.8651V60.4397C176.569 59.0268 176.227 58.6245 175.272 58.6245C174.563 58.6245 173.417 59.1777 172.828 59.4844C172.828 59.6754 172.849 60.0174 172.849 60.4598V65.8651C172.849 66.0964 172.773 66.2272 172.487 66.2272H171.094C170.847 66.2272 170.767 66.1115 170.767 65.8651V60.3442C170.767 59.1776 170.46 58.6245 169.505 58.6245C168.836 58.6245 167.765 59.1022 167.041 59.4844V65.8651C167.041 66.0964 166.945 66.2272 166.679 66.2272H165.301C165.055 66.2272 164.959 66.1115 164.959 65.8651V57.2468C164.959 57.0004 165.055 56.8647 165.301 56.8647H166.659C166.945 56.8647 167.041 57.0155 167.041 57.2468V57.7999L167.061 57.82C167.805 57.3021 168.856 56.734 169.907 56.6937C171.013 56.6937 171.933 56.925 172.527 58.0312C173.482 57.3223 174.664 56.6937 175.891 56.6937C178.415 56.6937 178.661 58.3379 178.661 60.2486V65.8651C178.661 66.0964 178.586 66.2272 178.319 66.2272H178.309Z"
    fill="white"
  />
<path
    d="M194.057 66.2272H192.68C192.413 66.2272 192.318 66.1115 192.318 65.8651V60.4397C192.318 59.0268 191.976 58.6245 191.02 58.6245C190.311 58.6245 189.17 59.1777 188.577 59.4844C188.577 59.6754 188.597 60.0174 188.597 60.4598V65.8651C188.597 66.0964 188.521 66.2272 188.235 66.2272H186.842C186.595 66.2272 186.515 66.1115 186.515 65.8651V60.3442C186.515 59.1776 186.208 58.6245 185.253 58.6245C184.584 58.6245 183.513 59.1022 182.789 59.4844V65.8651C182.789 66.0964 182.694 66.2272 182.427 66.2272H181.049C180.803 66.2272 180.707 66.1115 180.707 65.8651V57.2468C180.707 57.0004 180.803 56.8647 181.049 56.8647H182.407C182.694 56.8647 182.789 57.0155 182.789 57.2468V57.7999L182.809 57.82C183.553 57.3021 184.604 56.734 185.655 56.6937C186.761 56.6937 187.682 56.925 188.275 58.0312C189.23 57.3223 190.412 56.6937 191.639 56.6937C194.163 56.6937 194.409 58.3379 194.409 60.2486V65.8651C194.409 66.0964 194.334 66.2272 194.067 66.2272H194.057Z"
    fill="white"
  />
<path
    d="M197.804 55.4871C196.808 55.4871 196.677 54.934 196.677 54.3809C196.677 53.7675 196.888 53.2898 197.804 53.2898C198.719 53.2898 198.93 53.7272 198.93 54.3809C198.93 54.9742 198.759 55.4871 197.804 55.4871ZM198.814 65.8603C198.814 66.0715 198.739 66.2223 198.472 66.2223H197.115C196.848 66.2223 196.733 66.1066 196.733 65.8603V57.2269C196.733 56.9604 196.848 56.8648 197.115 56.8648H198.472C198.739 56.8648 198.814 57.0157 198.814 57.2269V65.8603Z"
    fill="white"
  />
<path
    d="M204.315 66.378C203.36 66.378 202.077 66.2422 201.353 65.9556C200.971 65.8048 200.896 65.6288 200.951 65.3271L201.087 64.6986C201.142 64.3919 201.278 64.3717 201.585 64.412C202.424 64.5477 203.646 64.6433 204.3 64.6433C205.522 64.6433 206.02 64.3164 206.02 63.5521C206.02 62.6722 205.693 62.4811 204.491 62.3102C202.62 62.0437 200.976 61.6414 200.976 59.5598C200.976 57.6692 202.429 56.6736 204.566 56.6736C205.351 56.6736 206.668 56.7892 207.473 57.096C207.799 57.2317 207.93 57.3826 207.875 57.6692L207.724 58.358C207.669 58.6245 207.553 58.6647 207.206 58.6245C206.387 58.529 205.316 58.4133 204.607 58.4133C203.385 58.4133 203.098 58.7553 203.098 59.4843C203.098 60.2134 203.556 60.324 204.722 60.5151C206.537 60.7816 208.182 61.1436 208.182 63.4214C208.182 65.6992 206.291 66.383 204.325 66.383L204.315 66.378Z"
    fill="white"
  />
<path
    d="M213.089 66.378C212.134 66.378 210.852 66.2422 210.127 65.9556C209.745 65.8048 209.67 65.6288 209.725 65.3271L209.861 64.6986C209.916 64.3919 210.052 64.3717 210.359 64.412C211.198 64.5477 212.42 64.6433 213.074 64.6433C214.296 64.6433 214.794 64.3164 214.794 63.5521C214.794 62.6722 214.467 62.4811 213.265 62.3102C211.395 62.0437 209.75 61.6414 209.75 59.5598C209.75 57.6692 211.203 56.6736 213.34 56.6736C214.125 56.6736 215.442 56.7892 216.247 57.096C216.574 57.2317 216.704 57.3826 216.649 57.6692L216.498 58.358C216.443 58.6245 216.327 58.6647 215.98 58.6245C215.161 58.529 214.09 58.4133 213.381 58.4133C212.159 58.4133 211.872 58.7553 211.872 59.4843C211.872 60.2134 212.33 60.324 213.496 60.5151C215.312 60.7816 216.956 61.1436 216.956 63.4214C216.956 65.6992 215.065 66.383 213.099 66.383L213.089 66.378Z"
    fill="white"
  />
<path
    d="M220.063 55.4871C219.068 55.4871 218.937 54.934 218.937 54.3809C218.937 53.7675 219.148 53.2898 220.063 53.2898C220.978 53.2898 221.19 53.7272 221.19 54.3809C221.19 54.9742 221.019 55.4871 220.063 55.4871ZM221.074 65.8603C221.074 66.0715 220.998 66.2223 220.732 66.2223H219.374C219.108 66.2223 218.992 66.1066 218.992 65.8603V57.2269C218.992 56.9604 219.108 56.8648 219.374 56.8648H220.732C220.998 56.8648 221.074 57.0157 221.074 57.2269V65.8603Z"
    fill="white"
  />
<path
    d="M225.413 62.1192C225.469 64.05 226.157 64.583 227.726 64.583C228.415 64.583 229.486 64.4473 230.21 64.3718C230.552 64.3316 230.668 64.3316 230.728 64.6987L230.844 65.3272C230.899 65.6138 230.864 65.7646 230.517 65.9205C229.773 66.2071 228.38 66.3982 227.44 66.3982C223.789 66.3982 223.256 64.0701 223.256 61.5862C223.256 59.7308 223.598 56.6787 227.324 56.6787C230.743 56.6787 231.357 58.8961 231.412 60.9577C231.432 61.6466 231.241 62.1242 230.477 62.1242H225.413V62.1192ZM225.433 60.6862H229.215C229.215 59.5196 228.908 58.3933 227.324 58.3933C225.911 58.3933 225.529 59.2531 225.433 60.6862Z"
    fill="white"
  />
</svg>
