<svg
  width="290"
  height="72"
  viewBox="0 0 290 72"
  fill="none"
  xmlns="http://www.w3.org/2000/svg"
>
<path
    d="M29.0595 64.8961H84.7641L84.759 28.8354L29.0544 28.8404L29.0595 64.8961Z"
    fill="#003399"
  />
<path
    d="M57.4401 33.3809H59.4717L57.8331 34.645L58.4712 36.6472L56.8429 35.4135L55.2146 36.6472L55.8526 34.645L54.2039 33.3809H56.2303L56.8429 31.4293L57.4401 33.3809Z"
    fill="#FFED00"
  />
<path
    d="M57.5115 59.1574H59.5431L57.9097 60.3759L58.5426 62.3023L56.9143 61.1141L55.286 62.3023L55.9292 60.3759L54.2753 59.1574H56.3018L56.9143 57.2816L57.5115 59.1574Z"
    fill="#FFED00"
  />
<path
    d="M63.9482 57.4535H65.9849L64.3464 58.667L64.9844 60.5934L63.351 59.4052L61.7227 60.5934L62.3659 58.667L60.712 57.4535H62.7385L63.351 55.5726L63.9482 57.4535Z"
    fill="#FFED00"
  />
<path
    d="M63.9482 35.1001H65.9849L64.3464 36.3186L64.9844 38.245L63.351 37.0568L61.7227 38.245L62.3659 36.3186L60.712 35.1001H62.7385L63.351 33.2242L63.9482 35.1001Z"
    fill="#FFED00"
  />
<path
    d="M68.7311 39.8377H70.7575L69.1241 41.0512L69.7571 42.9776L68.1288 41.7894L66.5005 42.9776L67.1436 41.0512L65.4898 39.8377H67.5162L68.1288 37.9568L68.7311 39.8377Z"
    fill="#FFED00"
  />
<path
    d="M68.7311 52.7815H70.7575L69.1241 54.0001L69.7571 55.9265L68.1288 54.7383L66.5005 55.9265L67.1436 54.0001L65.4898 52.7815H67.5162L68.1288 50.9057L68.7311 52.7815Z"
    fill="#FFED00"
  />
<path
    d="M70.5176 46.2085H72.5543L70.9158 47.427L71.5487 49.3534L69.9204 48.1652L68.2921 49.3534L68.9353 47.427L67.2814 46.2085H69.3079L69.9204 44.3326L70.5176 46.2085Z"
    fill="#FFED00"
  />
<path
    d="M50.8809 35.1203H52.9074L51.274 36.3338L51.9069 38.2602L50.2786 37.072L48.6503 38.2602L49.2934 36.3338L47.6447 35.1203H49.6661L50.2786 33.2394L50.8809 35.1203Z"
    fill="#FFED00"
  />
<path
    d="M46.2308 39.8528H48.2674L46.6289 41.0663L47.2619 42.9927L45.6336 41.8045L44.0052 42.9927L44.6484 41.0663L42.9946 39.8528H45.021L45.6336 37.9719L46.2308 39.8528Z"
    fill="#FFED00"
  />
<path
    d="M44.5055 46.2287H46.537L44.9036 47.4422L45.5366 49.3686L43.9083 48.1855L42.28 49.3686L42.9231 47.4422L41.2744 46.2287H43.2957L43.9083 44.3478L44.5055 46.2287Z"
    fill="#FFED00"
  />
<path
    d="M46.2308 52.7967H48.2674L46.6289 54.0152L47.2619 55.9416L45.6336 54.7534L44.0052 55.9416L44.6484 54.0152L42.9946 52.7967H45.021L45.6336 50.9208L46.2308 52.7967Z"
    fill="#FFED00"
  />
<path
    d="M50.9473 57.4686H52.9737L51.3403 58.6821L51.9733 60.6085L50.3449 59.4203L48.7166 60.6085L49.3598 58.6821L47.7111 57.4686H49.7324L50.3449 55.5877L50.9473 57.4686Z"
    fill="#FFED00"
  />
<path
    d="M94.9372 0.00505726C94.9372 0.00505726 106.917 18.9101 109.112 22.3736C111.302 25.8371 113.808 28.5826 122.675 30.4433C131.541 32.304 135.4 33.1837 135.4 33.1837V33.8562C135.4 33.8562 129.765 32.668 122.516 31.0652C115.268 29.4624 112.302 28.9214 109 24.3657C106.249 20.5736 94.9372 3.61517 94.9372 3.61517V0V0.00505726Z"
    fill="white"
  />
<path
    d="M94.9372 21.5949C94.9372 21.5949 105.845 32.9157 109 36.1668C112.348 39.6151 116.631 40.8893 122.573 41.941C128.244 42.9421 135.395 44.1 135.395 44.1V44.7371C135.395 44.7371 128.677 43.6449 122.573 42.6135C116.585 41.5972 112.394 41.0309 108.964 37.9011C105.891 35.1 94.9372 24.9219 94.9372 24.9219V21.5898V21.5949Z"
    fill="white"
  />
<path
    d="M94.9372 26.6966C94.9372 26.6966 105.309 36.2377 109 39.4989C112.394 42.4972 115.146 43.4326 122.608 44.7422C130.071 46.0517 135.395 46.8658 135.395 46.8658V47.5382C135.395 47.5382 128.642 46.441 122.573 45.4804C116.503 44.5247 112.634 44.1455 109 41.2281C104.809 37.8607 94.9372 29.8113 94.9372 29.8113V26.6916V26.6966Z"
    fill="white"
  />
<path
    d="M94.9372 32.1321C94.9372 32.1321 106.785 41.4456 109 43.0737C111.215 44.7018 114.145 46.6029 122.644 47.8214C131.071 49.0298 135.395 49.6265 135.395 49.6265V50.3343C135.395 50.3343 127.754 49.2371 122.644 48.6001C117.535 47.963 113.619 47.69 109.036 44.6664C104.574 41.7237 94.9372 35.004 94.9372 35.004V32.1321Z"
    fill="white"
  />
<path
    d="M94.9372 37.3602C94.9372 37.3602 106.82 45.1973 109.071 46.4411C111.322 47.6798 113.967 49.7023 122.644 50.7995C131.322 51.8967 135.395 52.3922 135.395 52.3922V53.0647C135.395 53.0647 128.218 52.286 122.608 51.6843C117.004 51.0826 113.18 50.2686 109 47.9984C104.819 45.7332 94.9372 40.0096 94.9372 40.0096V37.3602Z"
    fill="white"
  />
<path
    d="M94.9372 42.5882C94.9372 42.5882 105.442 48.2512 109 50.0158C112.966 51.9877 116.396 52.9332 122.608 53.6663C128.708 54.3843 135.395 55.0821 135.395 55.0821V55.7192C135.395 55.7192 129.213 55.0618 122.608 54.445C116.059 53.8281 113.727 53.545 109 51.4669C104.773 49.6062 94.9372 45.0658 94.9372 45.0658V42.5832V42.5882Z"
    fill="white"
  />
<path
    d="M94.9372 47.8871C94.9372 47.8871 103.237 51.4062 109.071 53.7018C114.809 55.9568 119.193 56.1489 122.68 56.5383C124.216 56.7102 135.395 57.8478 135.395 57.8478V58.4849C135.395 58.4849 128.718 57.954 122.644 57.4231C116.57 56.8922 113.951 56.6647 109.036 55.0518C104.059 53.4136 94.9372 50.2636 94.9372 50.2636V47.8922V47.8871Z"
    fill="white"
  />
<path
    d="M94.9372 53.2922C94.9372 53.2922 103.319 55.8658 109.036 57.3523C114.753 58.8388 120 59.4455 122.644 59.6175C125.288 59.7944 135.4 60.6085 135.4 60.6085V61.2102C135.4 61.2102 129.647 60.8208 122.608 60.3253C116.917 59.9259 112.348 59.5012 109 58.768C105.294 57.959 94.9372 55.522 94.9372 55.522V53.2922Z"
    fill="white"
  />
<path
    d="M94.9372 58.6062C94.9372 58.6062 101.792 59.7792 109.036 60.9674C114.467 61.8573 121.822 62.4186 122.608 62.454C123.394 62.4893 135.395 63.3034 135.395 63.3034V63.9405C135.395 63.9405 127.713 63.5461 122.608 63.268C117.29 62.9747 112.001 62.6562 109 62.3478C102.272 61.6551 94.9372 60.7349 94.9372 60.7349V58.6062Z"
    fill="white"
  />
<path
    d="M94.9372 64.1074C94.9372 64.1074 105.748 64.5119 109.036 64.5826C112.323 64.6534 135.395 65.5737 135.395 65.5737V66.1956H94.9372V64.1074Z"
    fill="white"
  />
<path
    d="M122.603 33.3657C112.818 31.2775 110.603 27.7332 108.959 25.5388C107.315 23.3393 94.9321 5.41516 94.9321 5.41516V8.71179C95.4222 9.34382 106.019 23.8348 108.995 27.627C112.348 31.8994 117.601 32.8702 122.603 33.932C127.6 34.9938 135.395 36.4753 135.395 36.4753V35.909C135.395 35.909 125.135 33.9017 122.603 33.3657Z"
    fill="white"
  />
<path
    d="M122.603 36.2023C114.569 34.645 111.317 32.127 108.959 29.0832C106.601 26.0343 94.9321 10.4461 94.9321 10.4461V14.2787C95.4222 14.85 106.096 27.7534 108.959 30.9995C112.297 34.7866 116.958 35.7826 122.603 36.809C128.249 37.8355 135.39 39.1804 135.39 39.1804V38.6141C135.39 38.6141 127.238 37.1023 122.603 36.2074V36.2023Z"
    fill="white"
  />
<path
    d="M122.603 39.1399C114.247 37.5321 112.532 36.2124 108.995 32.3748C106.769 29.963 95.4119 16.6804 94.9321 16.1191V19.6585C94.9321 19.6585 105.544 30.8731 108.959 34.1849C113.436 38.5332 117.637 38.8619 122.603 39.7467C127.57 40.6315 135.39 42.0473 135.39 42.0473V41.4456C135.39 41.4456 125.947 39.7871 122.603 39.145V39.1399Z"
    fill="white"
  />
<path
    d="M0.00510552 27.7787C0.00510552 27.7787 27.6711 24.8562 35.4196 23.7792C47.6702 22.0803 57.6953 20.2702 66.9701 6.18875C66.9701 6.18875 66.9803 5.38987 66.9701 5.03088C61.2889 13.591 53.4536 19.4309 42.6628 21.1247C32.1222 22.7831 0 25.2051 0 25.2051V27.7787H0.00510552Z"
    fill="white"
  />
<path
    d="M0.00511169 24.2849C0.00511169 24.2849 25.6446 21.1045 34.0925 19.9315C47.4559 18.0809 56.8531 16.4174 66.9701 1.05675C66.9701 1.05675 66.9752 0.394392 66.9701 0.00506592C60.7733 9.34384 53.1218 15.3759 41.351 17.2264C29.8507 19.0365 0.00511169 21.6759 0.00511169 21.6759V24.2899V24.2849Z"
    fill="white"
  />
<path d="M26.1806 64.1326H0.020462V66.1854H26.1806V64.1326Z" fill="white" />
<path
    d="M66.9701 22.5708C66.9701 22.5708 66.9854 21.3624 66.9803 21.1045C65.7501 22.9601 64.132 24.6438 62.2638 26.1253H64.0963C65.1274 25.0736 66.0921 23.8955 66.965 22.5708H66.9701Z"
    fill="white"
  />
<path
    d="M66.9701 17.1102C66.9701 17.1102 66.9803 16.0383 66.9752 15.745C64.0095 20.2147 59.5942 23.7843 54.4897 26.1506L57.5014 26.1405C60.9826 24.1332 64.2188 21.2815 66.965 17.1102H66.9701Z"
    fill="white"
  />
<path
    d="M66.9701 11.6494C66.9701 11.6494 66.9803 10.714 66.9701 10.3904C61.8095 18.1719 53.7853 23.4961 43.9746 25.0382C41.6521 25.4023 37.8697 25.8067 33.4748 26.2163L45.4549 26.1758C53.3617 24.4315 60.7631 21.059 66.9599 11.6494H66.9701Z"
    fill="white"
  />
<path
    d="M26.1857 60.6742C12.8377 60.745 0.020462 60.8006 0.020462 60.8006V62.9394C0.020462 62.9394 13.4451 62.8433 26.1857 62.7371V60.6742Z"
    fill="white"
  />
<path
    d="M26.1857 57.0034C12.9295 57.15 0.0153351 57.2613 0.0153351 57.2613V59.4456C0.0153351 59.4456 13.5778 59.2686 26.1857 59.0714V57.0034Z"
    fill="white"
  />
<path
    d="M26.1806 53.3225C13.0214 53.55 0.0153351 53.722 0.0153351 53.722V55.9517C0.0153351 55.9517 13.7207 55.6837 26.1806 55.3905V53.3225Z"
    fill="white"
  />
<path
    d="M26.1857 49.6214C13.1235 49.9399 0.0153351 50.1776 0.0153351 50.1776V52.4478C0.0153351 52.4478 13.879 52.0736 26.1857 51.6843V49.6163V49.6214Z"
    fill="white"
  />
<path
    d="M26.1908 45.9102C13.2256 46.3197 0.0153351 46.6433 0.0153351 46.6433V48.959C0.0153351 48.959 14.0474 48.4736 26.1908 47.9781V45.9152V45.9102Z"
    fill="white"
  />
<path
    d="M26.1857 42.1838C13.3226 42.6995 0.0153351 43.104 0.0153351 43.104V45.4602C0.0153351 45.4602 14.2209 44.8433 26.1857 44.2315V42.1787V42.1838Z"
    fill="white"
  />
<path
    d="M26.1908 38.4321C13.4247 39.059 0.0102234 39.5596 0.0102234 39.5596V41.9613C0.0102234 41.9613 14.4047 41.1978 26.1908 40.4647V38.4321Z"
    fill="white"
  />
<path
    d="M26.1908 34.6602C13.5216 35.4085 0.0102234 36.0203 0.0102234 36.0203V38.4624C0.0102234 38.4624 14.5987 37.5321 26.1908 36.6725V34.6602Z"
    fill="white"
  />
<path
    d="M26.1908 30.868C13.6084 31.7478 0.0102234 32.486 0.0102234 32.486V34.9737C0.0102234 34.9737 14.7926 33.8512 26.1908 32.8602V30.8731V30.868Z"
    fill="white"
  />
<path
    d="M26.1908 27.0405C13.685 28.0669 0.00511169 28.9416 0.00511169 28.9416V31.4697C0.00511169 31.4697 14.9866 30.1247 26.1908 28.9922V27.0405Z"
    fill="white"
  />
<path
    d="M86.0759 66.1905V27.5461H27.7528V66.1905H86.0759ZM84.759 28.8354V64.8961H29.0544V28.8405H84.759V28.8354Z"
    fill="white"
  />
<path
    d="M144.394 33.551C144.394 33.3017 144.511 33.1643 144.781 33.1643H151.895C152.124 33.1643 152.261 33.3017 152.261 33.5307V34.7316C152.261 34.9656 152.164 35.0776 151.874 35.0776H146.598V38.4055H151.274C151.523 38.4055 151.661 38.5225 151.661 38.7515V39.9524C151.661 40.1865 151.564 40.2984 151.274 40.2984H146.598V44.1046H152.012C152.246 44.1046 152.358 44.2217 152.358 44.471V45.6515C152.358 45.9009 152.261 45.9976 151.991 45.9976H144.781C144.511 45.9976 144.394 45.8805 144.394 45.6515V33.5459V33.551Z"
    fill="white"
  />
<path
    d="M162.108 46.0034H160.734C160.444 46.0034 160.367 45.866 160.367 45.637V45.0366L160.327 45.0162C159.573 45.5403 158.256 46.1764 157.08 46.1764C154.47 46.1764 154.22 44.6295 154.22 42.5992V36.9153C154.22 36.6812 154.317 36.5286 154.587 36.5286H155.996C156.246 36.5286 156.342 36.666 156.342 36.9153V42.3498C156.342 43.51 156.576 44.2428 157.752 44.2428C158.581 44.2428 159.858 43.622 160.362 43.3726V36.9153C160.362 36.6812 160.438 36.5286 160.729 36.5286H162.102C162.372 36.5286 162.469 36.666 162.469 36.9153V45.637C162.469 45.8864 162.372 46.0034 162.102 46.0034H162.108Z"
    fill="white"
  />
<path
    d="M167.018 45.6365C167.018 45.8706 166.921 46.0029 166.652 46.0029H165.262C164.993 46.0029 164.896 45.8859 164.896 45.6365V36.9148C164.896 36.6654 164.993 36.5281 165.262 36.5281H166.636C166.926 36.5281 167.023 36.6807 167.023 36.9148V37.7646L167.064 37.8053C167.644 37.2659 169.018 36.6044 169.924 36.4314C170.173 36.3754 170.351 36.4314 170.387 36.7621L170.524 38.0597C170.544 38.3294 170.565 38.4464 170.158 38.5228C169.074 38.7365 167.705 39.1232 167.028 39.4132V45.6365H167.018Z"
    fill="white"
  />
<path
    d="M175.526 46.1557C171.638 46.1557 171.389 43.3164 171.389 41.1079C171.389 39.2913 171.796 36.3349 175.526 36.3349C179.256 36.3349 179.8 38.8283 179.8 41.1079C179.8 43.3876 179.53 46.1557 175.526 46.1557ZM175.546 38.1922C173.902 38.1922 173.536 39.2354 173.536 41.2453C173.536 43.2553 173.902 44.2984 175.526 44.2984C177.286 44.2984 177.632 43.3113 177.632 41.2453C177.632 39.1794 177.302 38.1922 175.546 38.1922Z"
    fill="white"
  />
<path
    d="M185.637 46.1557C181.749 46.1557 181.5 43.3164 181.5 41.1079C181.5 39.2913 181.907 36.3349 185.637 36.3349C189.367 36.3349 189.911 38.8283 189.911 41.1079C189.911 43.3876 189.641 46.1557 185.637 46.1557ZM185.657 38.1922C184.013 38.1922 183.647 39.2354 183.647 41.2453C183.647 43.2553 184.013 44.2984 185.637 44.2984C187.397 44.2984 187.743 43.3113 187.743 41.2453C187.743 39.1794 187.413 38.1922 185.657 38.1922Z"
    fill="white"
  />
<path
    d="M196.312 46.1758C195.676 46.1758 194.786 46.0588 193.895 45.7484L193.875 45.7687V49.1729C193.875 49.3867 193.819 49.5597 193.509 49.5597H192.135C191.824 49.5597 191.768 49.4223 191.768 49.1729V36.9147C191.768 36.6653 191.865 36.528 192.135 36.528H193.509C193.778 36.528 193.855 36.6806 193.855 36.9147V37.4948L193.911 37.5355C194.608 37.0521 195.844 36.3753 196.964 36.3753C199.498 36.3753 200.154 38.2886 200.154 41.2094C200.154 44.3592 199.36 46.1758 196.307 46.1758H196.312ZM196.465 38.3089C195.671 38.3089 194.455 38.8687 193.875 39.1791V44.0132C194.745 44.2625 195.442 44.3439 196.099 44.3439C197.493 44.3439 197.976 43.6264 197.976 41.1941C197.976 38.7618 197.493 38.314 196.47 38.314L196.465 38.3089Z"
    fill="white"
  />
<path
    d="M207.858 44.8986C206.892 45.6313 205.594 46.1554 204.302 46.1554C202.251 46.1554 201.656 45.036 201.656 43.4127C201.635 41.1483 202.856 40.1815 205.289 40.1815H207.762V39.6777C207.762 38.5176 207.334 38.1105 205.752 38.1105C205.116 38.1105 203.895 38.2072 203.121 38.2835C202.734 38.3395 202.638 38.3242 202.582 38.0494L202.409 37.3319C202.373 37.0826 202.429 36.9248 202.851 36.7518C203.681 36.4618 205.207 36.3244 206.118 36.3244C209.461 36.3244 209.868 37.6983 209.868 39.8609V43.5908C209.868 44.3846 209.965 44.405 210.566 44.4813C210.856 44.5017 210.932 44.5576 210.932 44.7714V45.5855C210.932 45.7992 210.795 45.9315 210.469 45.9926C210.158 46.0486 209.853 46.0893 209.558 46.0893C208.647 46.0893 208.087 45.8196 207.894 44.9087L207.853 44.8884L207.858 44.8986ZM207.741 41.6928H205.38C204.414 41.6928 203.793 42.0388 203.793 43.316C203.793 44.1658 204.083 44.4355 204.994 44.4355C205.823 44.4355 207.004 43.9521 207.741 43.5247V41.6877V41.6928Z"
    fill="white"
  />
<path
    d="M146.623 59.7064L148.094 57.8134L151.34 53.8138C151.513 53.6205 151.671 53.5238 151.976 53.5238H153.737C154.007 53.5238 154.083 53.7172 153.91 53.9105L149.717 59.0143L154.047 65.9551C154.2 66.2044 154.068 66.3621 153.854 66.3621H152.073C151.742 66.3621 151.61 66.2248 151.457 65.9958L148.287 60.7393L146.588 62.846V65.9958C146.588 66.2095 146.511 66.3621 146.242 66.3621H144.791C144.522 66.3621 144.405 66.2451 144.405 65.9958V53.9105C144.405 53.6612 144.522 53.5238 144.791 53.5238H146.242C146.511 53.5238 146.588 53.6765 146.588 53.9105V59.7114H146.628L146.623 59.7064Z"
    fill="white"
  />
<path
    d="M159.324 66.5092C155.436 66.5092 155.187 63.6698 155.187 61.4614C155.187 59.6448 155.594 56.6884 159.324 56.6884C163.054 56.6884 163.598 59.1817 163.598 61.4614C163.598 63.7411 163.329 66.5092 159.324 66.5092ZM159.344 58.5457C157.701 58.5457 157.334 59.5888 157.334 61.5988C157.334 63.6088 157.701 64.6519 159.324 64.6519C161.085 64.6519 161.431 63.6647 161.431 61.5988C161.431 59.5328 161.1 58.5457 159.344 58.5457Z"
    fill="white"
  />
<path
    d="M178.991 66.3569H177.597C177.327 66.3569 177.23 66.2399 177.23 65.9905V60.5C177.23 59.0701 176.884 58.663 175.918 58.663C175.2 58.663 174.04 59.2228 173.444 59.5332C173.444 59.7265 173.465 60.0726 173.465 60.5204V65.9905C173.465 66.2246 173.389 66.3569 173.098 66.3569H171.689C171.44 66.3569 171.358 66.2399 171.358 65.9905V60.4033C171.358 59.2228 171.048 58.663 170.081 58.663C169.404 58.663 168.32 59.1465 167.588 59.5332V65.9905C167.588 66.2246 167.491 66.3569 167.221 66.3569H165.827C165.578 66.3569 165.481 66.2399 165.481 65.9905V57.2688C165.481 57.0194 165.578 56.8821 165.827 56.8821H167.201C167.491 56.8821 167.588 57.0347 167.588 57.2688V57.8285L167.608 57.8489C168.361 57.3248 169.425 56.7498 170.488 56.709C171.608 56.709 172.539 56.9431 173.134 58.0626C174.101 57.3451 175.297 56.709 176.538 56.709C179.093 56.709 179.342 58.373 179.342 60.3066V65.9905C179.342 66.2246 179.266 66.3569 178.996 66.3569H178.991Z"
    fill="white"
  />
<path
    d="M182.782 55.4933C181.775 55.4933 181.642 54.9335 181.642 54.3738C181.642 53.753 181.856 53.2696 182.782 53.2696C183.708 53.2696 183.922 53.7123 183.922 54.3738C183.922 54.9742 183.749 55.4933 182.782 55.4933ZM183.805 65.9909C183.805 66.2046 183.729 66.3573 183.459 66.3573H182.085C181.815 66.3573 181.698 66.2402 181.698 65.9909V57.2539C181.698 56.9842 181.815 56.8875 182.085 56.8875H183.459C183.729 56.8875 183.805 57.0402 183.805 57.2539V65.9909Z"
    fill="white"
  />
<path
    d="M189.372 66.5092C188.405 66.5092 187.107 66.3718 186.374 66.0818C185.988 65.9291 185.911 65.751 185.967 65.4457L186.105 64.8096C186.166 64.4992 186.298 64.4789 186.609 64.5196C187.458 64.657 188.695 64.7537 189.356 64.7537C190.593 64.7537 191.097 64.4229 191.097 63.6495C191.097 62.759 190.771 62.5656 189.55 62.3926C187.657 62.1229 185.993 61.7158 185.993 59.6092C185.993 57.6959 187.463 56.6884 189.626 56.6884C190.42 56.6884 191.753 56.8054 192.567 57.1158C192.898 57.2532 193.03 57.4058 192.974 57.6959L192.822 58.393C192.761 58.6627 192.649 58.7034 192.298 58.6627C191.468 58.566 190.384 58.449 189.667 58.449C188.43 58.449 188.14 58.795 188.14 59.5328C188.14 60.2707 188.603 60.3826 189.784 60.576C191.621 60.8457 193.285 61.2121 193.285 63.5172C193.285 65.8223 191.371 66.5143 189.377 66.5143L189.372 66.5092Z"
    fill="white"
  />
<path
    d="M197.748 66.571C197.748 69.0847 196.684 70.4942 193.438 70.3772C193.3 70.3772 193.03 70.3009 193.01 69.9905L192.934 69.0796C192.893 68.7692 192.974 68.7133 193.244 68.6522C195.061 68.2858 195.621 68.1128 195.621 66.6015V57.2437C195.621 56.974 195.738 56.8774 196.007 56.8774H197.361C197.651 56.8774 197.748 57.03 197.748 57.2437V66.5608V66.571ZM196.684 55.4933C195.676 55.4933 195.544 54.9335 195.544 54.3738C195.544 53.753 195.778 53.2696 196.684 53.2696C197.59 53.2696 197.824 53.7123 197.824 54.3738C197.824 54.9742 197.651 55.4933 196.684 55.4933Z"
    fill="white"
  />
<path
    d="M204.108 66.5092C200.22 66.5092 199.971 63.6698 199.971 61.4614C199.971 59.6448 200.378 56.6884 204.108 56.6884C207.838 56.6884 208.382 59.1817 208.382 61.4614C208.382 63.7411 208.113 66.5092 204.108 66.5092ZM204.128 58.5457C202.485 58.5457 202.118 59.5888 202.118 61.5988C202.118 63.6088 202.485 64.6519 204.108 64.6519C205.869 64.6519 206.215 63.6647 206.215 61.5988C206.215 59.5328 205.884 58.5457 204.128 58.5457Z"
    fill="white"
  />
<path
    d="M218.086 66.3569H216.697C216.448 66.3569 216.331 66.2399 216.331 65.9905L216.351 60.556C216.351 59.4161 216.081 58.663 214.957 58.663C214.183 58.663 212.83 59.2838 212.306 59.5332V65.9905C212.306 66.2246 212.209 66.3569 211.939 66.3569H210.566C210.296 66.3569 210.199 66.2399 210.199 65.9905V57.2688C210.199 57.0194 210.296 56.8821 210.566 56.8821H211.939C212.209 56.8821 212.306 57.0194 212.306 57.2688V57.8489C212.306 57.8489 212.347 57.8692 212.362 57.8692C213.079 57.3655 214.433 56.709 215.608 56.709C218.219 56.709 218.453 58.429 218.453 60.383V65.9905C218.453 66.2246 218.376 66.3569 218.086 66.3569Z"
    fill="white"
  />
<path d="M230.574 66.3571V27.4961H227.256V66.3571H230.574Z" fill="white" />
</svg>
