<svg
  width="290"
  height="72"
  viewBox="0 0 290 72"
  fill="none"
  xmlns="http://www.w3.org/2000/svg"
>
<path
    fill-rule="evenodd"
    clip-rule="evenodd"
    d="M245.4 66.7H248.7V28H245.4V66.7Z"
    fill="white"
  />
<path
    d="M146.753 45.8012C146.7 45.9612 146.633 46.0745 146.553 46.1412C146.473 46.1945 146.36 46.2212 146.213 46.2212H144.653C144.413 46.2212 144.34 46.0878 144.433 45.8212L148.473 33.3812C148.527 33.2345 148.587 33.1278 148.653 33.0612C148.72 32.9945 148.847 32.9612 149.033 32.9612H150.773C150.96 32.9612 151.087 33.0012 151.153 33.0812C151.22 33.1478 151.273 33.2478 151.313 33.3812L155.433 45.8612C155.5 46.1012 155.433 46.2212 155.233 46.2212H153.473C153.313 46.2212 153.2 46.1878 153.133 46.1212C153.08 46.0545 153.027 45.9478 152.973 45.8012L152.133 42.9212H147.653L146.753 45.8012ZM150.753 38.2012L149.933 35.3212H149.853L149.053 38.1612L148.213 41.0412H151.593L150.753 38.2012Z"
    fill="white"
  />
<path
    d="M160.815 43.7612C160.815 43.7212 160.855 43.5812 160.935 43.3412C161.015 43.0878 161.102 42.8145 161.195 42.5212C161.302 42.1745 161.429 41.7945 161.575 41.3812L163.175 36.7412C163.215 36.6345 163.262 36.5545 163.315 36.5012C163.382 36.4478 163.489 36.4212 163.635 36.4212H165.155C165.422 36.4212 165.502 36.5478 165.395 36.8012L161.995 45.8012C161.942 45.9478 161.875 46.0545 161.795 46.1212C161.715 46.1878 161.595 46.2212 161.435 46.2212H160.095C159.909 46.2212 159.782 46.1945 159.715 46.1412C159.649 46.0745 159.589 45.9678 159.535 45.8212L156.135 36.8212C156.095 36.7145 156.089 36.6212 156.115 36.5412C156.142 36.4612 156.222 36.4212 156.355 36.4212H157.935C158.082 36.4212 158.182 36.4478 158.235 36.5012C158.302 36.5412 158.362 36.6345 158.415 36.7812L160.015 41.4612C160.135 41.8478 160.249 42.2078 160.355 42.5412C160.449 42.8212 160.529 43.0878 160.595 43.3412C160.675 43.5812 160.729 43.7212 160.755 43.7612H160.815Z"
    fill="white"
  />
<path
    d="M169.376 45.8412C169.376 46.0945 169.249 46.2212 168.996 46.2212H167.556C167.303 46.2212 167.176 46.0945 167.176 45.8412V36.8212C167.176 36.5545 167.303 36.4212 167.556 36.4212H168.976C169.243 36.4212 169.376 36.5545 169.376 36.8212V37.7012L169.416 37.7412C169.563 37.6078 169.756 37.4678 169.996 37.3212C170.236 37.1612 170.489 37.0212 170.756 36.9012C171.036 36.7678 171.316 36.6478 171.596 36.5412C171.876 36.4345 172.136 36.3612 172.376 36.3212C172.509 36.2945 172.616 36.3012 172.696 36.3412C172.776 36.3812 172.829 36.4878 172.856 36.6612L172.996 38.0012C173.009 38.1478 173.003 38.2545 172.976 38.3212C172.949 38.3878 172.829 38.4412 172.616 38.4812C172.336 38.5345 172.043 38.6012 171.736 38.6812C171.429 38.7478 171.129 38.8278 170.836 38.9212C170.543 39.0012 170.269 39.0812 170.016 39.1612C169.763 39.2412 169.549 39.3212 169.376 39.4012V45.8412Z"
    fill="white"
  />
<path
    d="M182.581 45.8412C182.581 46.0945 182.454 46.2212 182.201 46.2212H180.781C180.634 46.2212 180.534 46.1878 180.481 46.1212C180.428 46.0545 180.401 45.9612 180.401 45.8412V45.2212L180.361 45.2012C180.161 45.3345 179.928 45.4745 179.661 45.6212C179.408 45.7545 179.134 45.8812 178.841 46.0012C178.548 46.1212 178.241 46.2145 177.921 46.2812C177.614 46.3612 177.308 46.4012 177.001 46.4012C176.321 46.4012 175.781 46.3078 175.381 46.1212C174.994 45.9345 174.701 45.6745 174.501 45.3412C174.301 45.0079 174.174 44.6145 174.121 44.1612C174.068 43.7078 174.041 43.2212 174.041 42.7012V36.8212C174.041 36.5545 174.168 36.4212 174.421 36.4212H175.881C176.121 36.4212 176.241 36.5545 176.241 36.8212V42.4412C176.241 42.7478 176.261 43.0212 176.301 43.2612C176.341 43.5012 176.414 43.7078 176.521 43.8812C176.628 44.0412 176.774 44.1678 176.961 44.2612C177.148 44.3545 177.394 44.4012 177.701 44.4012C177.914 44.4012 178.148 44.3678 178.401 44.3012C178.668 44.2345 178.928 44.1545 179.181 44.0612C179.434 43.9545 179.668 43.8545 179.881 43.7612C180.094 43.6545 180.268 43.5678 180.401 43.5012V36.8212C180.401 36.7012 180.428 36.6078 180.481 36.5412C180.534 36.4612 180.634 36.4212 180.781 36.4212H182.201C182.454 36.4212 182.581 36.5545 182.581 36.8212V45.8412Z"
    fill="white"
  />
<path
    d="M193.366 41.2612C193.366 42.0745 193.306 42.8012 193.186 43.4412C193.066 44.0812 192.853 44.6212 192.546 45.0612C192.253 45.5012 191.846 45.8345 191.326 46.0612C190.819 46.2878 190.173 46.4012 189.386 46.4012C189.053 46.4012 188.666 46.3678 188.226 46.3012C187.799 46.2345 187.353 46.1212 186.886 45.9612L186.866 45.9812V49.5012C186.866 49.6078 186.839 49.7012 186.786 49.7812C186.746 49.8612 186.646 49.9012 186.486 49.9012H185.066C184.906 49.9012 184.799 49.8678 184.746 49.8012C184.706 49.7345 184.686 49.6345 184.686 49.5012V36.8212C184.686 36.5545 184.813 36.4212 185.066 36.4212H186.486C186.633 36.4212 186.726 36.4612 186.766 36.5412C186.819 36.6078 186.846 36.7012 186.846 36.8212V37.4212L186.906 37.4612C187.079 37.3412 187.286 37.2145 187.526 37.0812C187.779 36.9345 188.046 36.8012 188.326 36.6812C188.606 36.5612 188.893 36.4612 189.186 36.3812C189.479 36.3012 189.773 36.2612 190.066 36.2612C190.719 36.2612 191.259 36.3812 191.686 36.6212C192.113 36.8612 192.446 37.2012 192.686 37.6412C192.939 38.0678 193.113 38.5878 193.206 39.2012C193.313 39.8145 193.366 40.5012 193.366 41.2612ZM191.106 41.2412C191.106 40.6012 191.073 40.0878 191.006 39.7012C190.953 39.3145 190.859 39.0145 190.726 38.8012C190.593 38.5878 190.426 38.4478 190.226 38.3812C190.039 38.3012 189.813 38.2612 189.546 38.2612C189.346 38.2612 189.119 38.2945 188.866 38.3612C188.613 38.4278 188.359 38.5078 188.106 38.6012C187.866 38.6812 187.633 38.7745 187.406 38.8812C187.193 38.9878 187.013 39.0812 186.866 39.1612V44.1612C187.319 44.2945 187.726 44.3878 188.086 44.4412C188.459 44.4812 188.819 44.5012 189.166 44.5012C189.526 44.5012 189.826 44.4545 190.066 44.3612C190.319 44.2545 190.519 44.0745 190.666 43.8212C190.826 43.5678 190.939 43.2345 191.006 42.8212C191.073 42.3945 191.106 41.8678 191.106 41.2412Z"
    fill="white"
  />
<path
    d="M201.216 41.7612H198.776C198.269 41.7612 197.869 41.8812 197.576 42.1212C197.282 42.3478 197.136 42.7878 197.136 43.4412C197.136 43.8812 197.222 44.1878 197.396 44.3612C197.582 44.5212 197.909 44.6012 198.376 44.6012C198.589 44.6012 198.822 44.5745 199.076 44.5212C199.329 44.4678 199.582 44.3945 199.836 44.3012C200.089 44.2078 200.336 44.1078 200.576 44.0012C200.816 43.8812 201.029 43.7678 201.216 43.6612V41.7612ZM201.336 45.0812C200.829 45.4679 200.256 45.7812 199.616 46.0212C198.989 46.2612 198.336 46.3812 197.656 46.3812C197.122 46.3812 196.676 46.3145 196.316 46.1812C195.969 46.0345 195.689 45.8412 195.476 45.6012C195.276 45.3478 195.129 45.0478 195.036 44.7012C194.956 44.3545 194.916 43.9678 194.916 43.5412C194.902 42.3678 195.209 41.5212 195.836 41.0012C196.462 40.4678 197.409 40.2012 198.676 40.2012H201.236V39.6812C201.236 39.3878 201.202 39.1412 201.136 38.9412C201.082 38.7278 200.976 38.5545 200.816 38.4212C200.656 38.2878 200.442 38.1945 200.176 38.1412C199.909 38.0878 199.569 38.0612 199.156 38.0612C198.996 38.0612 198.796 38.0678 198.556 38.0812C198.329 38.0945 198.089 38.1078 197.836 38.1212C197.596 38.1345 197.349 38.1545 197.096 38.1812C196.856 38.2078 196.636 38.2278 196.436 38.2412C196.236 38.2678 196.096 38.2745 196.016 38.2612C195.949 38.2345 195.902 38.1478 195.876 38.0012L195.696 37.2612C195.669 37.1278 195.682 37.0212 195.736 36.9412C195.789 36.8478 195.929 36.7545 196.156 36.6612C196.369 36.5812 196.622 36.5145 196.916 36.4612C197.209 36.4078 197.509 36.3678 197.816 36.3412C198.122 36.3012 198.422 36.2745 198.716 36.2612C199.022 36.2345 199.296 36.2212 199.536 36.2212C200.402 36.2212 201.089 36.3078 201.596 36.4812C202.116 36.6545 202.509 36.9012 202.776 37.2212C203.042 37.5278 203.216 37.9078 203.296 38.3612C203.376 38.8145 203.416 39.3212 203.416 39.8812V43.7412C203.416 43.9412 203.422 44.1012 203.436 44.2212C203.462 44.3278 203.496 44.4145 203.536 44.4812C203.589 44.5345 203.662 44.5745 203.756 44.6012C203.849 44.6278 203.976 44.6478 204.136 44.6612C204.282 44.6745 204.382 44.7012 204.436 44.7412C204.489 44.7812 204.516 44.8545 204.516 44.9612V45.8012C204.516 46.0278 204.356 46.1678 204.036 46.2212C203.876 46.2478 203.716 46.2678 203.556 46.2812C203.396 46.3078 203.242 46.3212 203.096 46.3212C202.629 46.3212 202.249 46.2345 201.956 46.0612C201.676 45.8878 201.482 45.5678 201.376 45.1012L201.336 45.0812Z"
    fill="white"
  />
<path
    d="M146.694 59.3412L148.214 57.3812L151.574 53.2412C151.668 53.1345 151.761 53.0612 151.854 53.0212C151.948 52.9678 152.074 52.9412 152.234 52.9412H154.054C154.201 52.9412 154.288 52.9812 154.314 53.0612C154.354 53.1412 154.328 53.2345 154.234 53.3412L149.894 58.6212L154.374 65.8012C154.454 65.9345 154.468 66.0412 154.414 66.1212C154.361 66.1878 154.281 66.2212 154.174 66.2212H152.334C152.161 66.2212 152.028 66.1878 151.934 66.1212C151.854 66.0545 151.774 65.9612 151.694 65.8412L148.414 60.4012L146.654 62.5812V65.8412C146.654 65.9478 146.628 66.0412 146.574 66.1212C146.534 66.1878 146.441 66.2212 146.294 66.2212H144.794C144.528 66.2212 144.394 66.0945 144.394 65.8412V53.3412C144.394 53.0745 144.528 52.9412 144.794 52.9412H146.294C146.441 52.9412 146.534 52.9812 146.574 53.0612C146.628 53.1278 146.654 53.2212 146.654 53.3412V59.3412H146.694Z"
    fill="white"
  />
<path
    d="M164.256 61.1612C164.256 61.7345 164.216 62.3278 164.136 62.9412C164.069 63.5545 163.889 64.1212 163.596 64.6412C163.302 65.1478 162.862 65.5678 162.276 65.9012C161.689 66.2212 160.876 66.3812 159.836 66.3812C158.836 66.3812 158.049 66.2212 157.476 65.9012C156.902 65.5678 156.469 65.1478 156.176 64.6412C155.896 64.1212 155.722 63.5545 155.656 62.9412C155.589 62.3278 155.556 61.7345 155.556 61.1612C155.556 60.6945 155.596 60.1745 155.676 59.6012C155.769 59.0278 155.962 58.4945 156.256 58.0012C156.549 57.4945 156.976 57.0745 157.536 56.7412C158.109 56.3945 158.876 56.2212 159.836 56.2212C160.809 56.2212 161.582 56.3678 162.156 56.6612C162.742 56.9545 163.189 57.3412 163.496 57.8212C163.802 58.2878 164.002 58.8145 164.096 59.4012C164.202 59.9878 164.256 60.5745 164.256 61.1612ZM162.016 61.3012C162.016 60.7678 161.989 60.3078 161.936 59.9212C161.882 59.5212 161.776 59.1945 161.616 58.9412C161.456 58.6745 161.236 58.4745 160.956 58.3412C160.676 58.2078 160.309 58.1412 159.856 58.1412C159.429 58.1412 159.082 58.2078 158.816 58.3412C158.549 58.4745 158.336 58.6745 158.176 58.9412C158.029 59.2078 157.922 59.5412 157.856 59.9412C157.802 60.3278 157.776 60.7812 157.776 61.3012C157.776 61.8345 157.802 62.3012 157.856 62.7012C157.922 63.0878 158.029 63.4145 158.176 63.6812C158.322 63.9345 158.529 64.1278 158.796 64.2612C159.062 64.3945 159.409 64.4612 159.836 64.4612C160.289 64.4612 160.656 64.4012 160.936 64.2812C161.229 64.1478 161.456 63.9545 161.616 63.7012C161.776 63.4345 161.882 63.1012 161.936 62.7012C161.989 62.3012 162.016 61.8345 162.016 61.3012Z"
    fill="white"
  />
<path
    d="M180.545 65.8412C180.545 65.9612 180.518 66.0545 180.465 66.1212C180.425 66.1878 180.331 66.2212 180.185 66.2212H178.745C178.491 66.2212 178.365 66.0945 178.365 65.8412V60.1612C178.365 59.4145 178.265 58.9145 178.065 58.6612C177.865 58.3945 177.511 58.2612 177.005 58.2612C176.818 58.2612 176.605 58.2945 176.365 58.3612C176.138 58.4278 175.905 58.5078 175.665 58.6012C175.438 58.6812 175.218 58.7745 175.005 58.8812C174.791 58.9878 174.605 59.0812 174.445 59.1612C174.445 59.2678 174.445 59.4078 174.445 59.5812C174.458 59.7545 174.465 59.9545 174.465 60.1812V65.8412C174.465 65.9612 174.438 66.0545 174.385 66.1212C174.331 66.1878 174.231 66.2212 174.085 66.2212H172.625C172.398 66.2212 172.285 66.0945 172.285 65.8412V60.0612C172.285 59.4478 172.191 58.9945 172.005 58.7012C171.818 58.4078 171.471 58.2612 170.965 58.2612C170.791 58.2612 170.591 58.2878 170.365 58.3412C170.151 58.3945 169.925 58.4678 169.685 58.5612C169.458 58.6545 169.231 58.7545 169.005 58.8612C168.778 58.9678 168.571 59.0678 168.385 59.1612V65.8412C168.385 66.0945 168.258 66.2212 168.005 66.2212H166.565C166.325 66.2212 166.205 66.0945 166.205 65.8412V56.8212C166.205 56.5545 166.325 56.4212 166.565 56.4212H167.985C168.251 56.4212 168.385 56.5545 168.385 56.8212V57.4012L168.405 57.4212C168.605 57.2878 168.818 57.1545 169.045 57.0212C169.271 56.8745 169.511 56.7478 169.765 56.6412C170.031 56.5345 170.298 56.4478 170.565 56.3812C170.831 56.3012 171.105 56.2545 171.385 56.2412C171.958 56.2412 172.478 56.3345 172.945 56.5212C173.425 56.6945 173.818 57.0678 174.125 57.6412C174.631 57.2678 175.185 56.9412 175.785 56.6612C176.385 56.3812 177.005 56.2412 177.645 56.2412C178.298 56.2412 178.818 56.3412 179.205 56.5412C179.591 56.7412 179.885 57.0145 180.085 57.3612C180.285 57.6945 180.411 58.0878 180.465 58.5412C180.518 58.9945 180.545 59.4678 180.545 59.9612V65.8412Z"
    fill="white"
  />
<path
    d="M185.289 53.8212C185.289 53.9812 185.276 54.1345 185.249 54.2812C185.222 54.4145 185.162 54.5345 185.069 54.6412C184.989 54.7478 184.869 54.8345 184.709 54.9012C184.562 54.9545 184.362 54.9812 184.109 54.9812C183.842 54.9812 183.629 54.9478 183.469 54.8812C183.322 54.8145 183.209 54.7278 183.129 54.6212C183.049 54.5145 182.996 54.3945 182.969 54.2612C182.942 54.1145 182.929 53.9678 182.929 53.8212C182.929 53.5012 183.002 53.2345 183.149 53.0212C183.309 52.7945 183.629 52.6812 184.109 52.6812C184.602 52.6812 184.922 52.7878 185.069 53.0012C185.216 53.2012 185.289 53.4745 185.289 53.8212ZM185.169 65.8412C185.169 65.9478 185.142 66.0412 185.089 66.1212C185.049 66.1878 184.956 66.2212 184.809 66.2212H183.389C183.122 66.2212 182.989 66.0945 182.989 65.8412V56.8012C182.989 56.5478 183.122 56.4212 183.389 56.4212H184.809C184.956 56.4212 185.049 56.4612 185.089 56.5412C185.142 56.6078 185.169 56.6945 185.169 56.8012V65.8412Z"
    fill="white"
  />
<path
    d="M194.97 63.2812C194.97 63.8678 194.857 64.3612 194.63 64.7612C194.404 65.1478 194.097 65.4612 193.71 65.7012C193.337 65.9412 192.91 66.1145 192.43 66.2212C191.95 66.3278 191.45 66.3812 190.93 66.3812C190.424 66.3812 189.877 66.3412 189.29 66.2612C188.704 66.1945 188.217 66.0878 187.83 65.9412C187.63 65.8612 187.504 65.7745 187.45 65.6812C187.397 65.5745 187.384 65.4412 187.41 65.2812L187.55 64.6212C187.577 64.4612 187.63 64.3678 187.71 64.3412C187.79 64.3012 187.91 64.2945 188.07 64.3212C188.284 64.3612 188.517 64.3945 188.77 64.4212C189.037 64.4478 189.297 64.4745 189.55 64.5012C189.817 64.5145 190.064 64.5278 190.29 64.5412C190.53 64.5545 190.737 64.5612 190.91 64.5612C191.55 64.5612 192.01 64.4745 192.29 64.3012C192.57 64.1145 192.71 63.8212 192.71 63.4212C192.71 63.1945 192.684 63.0078 192.63 62.8612C192.59 62.7145 192.51 62.5945 192.39 62.5012C192.27 62.4078 192.104 62.3345 191.89 62.2812C191.69 62.2145 191.43 62.1612 191.11 62.1212C190.617 62.0545 190.15 61.9678 189.71 61.8612C189.27 61.7545 188.877 61.6012 188.53 61.4012C188.197 61.1878 187.93 60.9145 187.73 60.5812C187.53 60.2345 187.43 59.7878 187.43 59.2412C187.43 58.2545 187.777 57.5078 188.47 57.0012C189.164 56.4812 190.07 56.2212 191.19 56.2212C191.39 56.2212 191.624 56.2278 191.89 56.2412C192.157 56.2545 192.424 56.2812 192.69 56.3212C192.97 56.3612 193.244 56.4078 193.51 56.4612C193.777 56.5145 194.017 56.5812 194.23 56.6612C194.564 56.7945 194.704 56.9945 194.65 57.2612L194.49 57.9812C194.464 58.1278 194.41 58.2212 194.33 58.2612C194.264 58.2878 194.137 58.2878 193.95 58.2612C193.524 58.2078 193.057 58.1612 192.55 58.1212C192.044 58.0678 191.604 58.0412 191.23 58.0412C190.59 58.0412 190.164 58.1345 189.95 58.3212C189.75 58.4945 189.65 58.7745 189.65 59.1612C189.65 59.5478 189.777 59.8012 190.03 59.9212C190.297 60.0412 190.737 60.1478 191.35 60.2412C191.83 60.3078 192.284 60.3945 192.71 60.5012C193.15 60.6078 193.537 60.7678 193.87 60.9812C194.204 61.1945 194.47 61.4812 194.67 61.8412C194.87 62.2012 194.97 62.6812 194.97 63.2812Z"
    fill="white"
  />
<path
    d="M200.73 63.4212C200.877 63.0078 201.01 62.6212 201.13 62.2612C201.263 61.9012 201.377 61.5878 201.47 61.3212C201.577 61.0012 201.677 60.7078 201.77 60.4412L203.01 56.7612C203.05 56.6412 203.103 56.5545 203.17 56.5012C203.237 56.4478 203.343 56.4212 203.49 56.4212H204.97C205.13 56.4212 205.217 56.4612 205.23 56.5412C205.243 56.6212 205.23 56.7145 205.19 56.8212L200.53 69.5412C200.477 69.6745 200.417 69.7678 200.35 69.8212C200.283 69.8745 200.163 69.9012 199.99 69.9012H198.63C198.47 69.9012 198.377 69.8612 198.35 69.7812C198.337 69.7012 198.35 69.6078 198.39 69.5012L199.65 66.1212L196.15 56.8212C196.11 56.7145 196.097 56.6212 196.11 56.5412C196.137 56.4612 196.223 56.4212 196.37 56.4212H197.91C198.043 56.4212 198.137 56.4345 198.19 56.4612C198.243 56.4878 198.297 56.5745 198.35 56.7212L199.65 60.4412L200.65 63.4212H200.73Z"
    fill="white"
  />
<path
    d="M215.154 61.1612C215.154 61.7345 215.114 62.3278 215.034 62.9412C214.968 63.5545 214.788 64.1212 214.494 64.6412C214.201 65.1478 213.761 65.5678 213.174 65.9012C212.588 66.2212 211.774 66.3812 210.734 66.3812C209.734 66.3812 208.948 66.2212 208.374 65.9012C207.801 65.5678 207.368 65.1478 207.074 64.6412C206.794 64.1212 206.621 63.5545 206.554 62.9412C206.488 62.3278 206.454 61.7345 206.454 61.1612C206.454 60.6945 206.494 60.1745 206.574 59.6012C206.668 59.0278 206.861 58.4945 207.154 58.0012C207.448 57.4945 207.874 57.0745 208.434 56.7412C209.008 56.3945 209.774 56.2212 210.734 56.2212C211.708 56.2212 212.481 56.3678 213.054 56.6612C213.641 56.9545 214.088 57.3412 214.394 57.8212C214.701 58.2878 214.901 58.8145 214.994 59.4012C215.101 59.9878 215.154 60.5745 215.154 61.1612ZM212.914 61.3012C212.914 60.7678 212.888 60.3078 212.834 59.9212C212.781 59.5212 212.674 59.1945 212.514 58.9412C212.354 58.6745 212.134 58.4745 211.854 58.3412C211.574 58.2078 211.208 58.1412 210.754 58.1412C210.328 58.1412 209.981 58.2078 209.714 58.3412C209.448 58.4745 209.234 58.6745 209.074 58.9412C208.928 59.2078 208.821 59.5412 208.754 59.9412C208.701 60.3278 208.674 60.7812 208.674 61.3012C208.674 61.8345 208.701 62.3012 208.754 62.7012C208.821 63.0878 208.928 63.4145 209.074 63.6812C209.221 63.9345 209.428 64.1278 209.694 64.2612C209.961 64.3945 210.308 64.4612 210.734 64.4612C211.188 64.4612 211.554 64.4012 211.834 64.2812C212.128 64.1478 212.354 63.9545 212.514 63.7012C212.674 63.4345 212.781 63.1012 212.834 62.7012C212.888 62.3012 212.914 61.8345 212.914 61.3012Z"
    fill="white"
  />
<path
    d="M225.583 65.8412C225.583 65.9612 225.556 66.0545 225.503 66.1212C225.45 66.1878 225.35 66.2212 225.203 66.2212H223.763C223.51 66.2212 223.383 66.0945 223.383 65.8412L223.403 60.2212C223.403 59.6345 223.303 59.1612 223.103 58.8012C222.916 58.4412 222.536 58.2612 221.963 58.2612C221.763 58.2612 221.53 58.2945 221.263 58.3612C221.01 58.4278 220.75 58.5145 220.483 58.6212C220.23 58.7145 219.99 58.8145 219.763 58.9212C219.536 59.0145 219.356 59.0945 219.223 59.1612V65.8412C219.223 66.0945 219.096 66.2212 218.843 66.2212H217.423C217.17 66.2212 217.043 66.0945 217.043 65.8412V56.8212C217.043 56.5545 217.17 56.4212 217.423 56.4212H218.843C219.096 56.4212 219.223 56.5545 219.223 56.8212V57.4212C219.236 57.4212 219.243 57.4278 219.243 57.4412C219.256 57.4412 219.27 57.4412 219.283 57.4412C219.47 57.3078 219.69 57.1745 219.943 57.0412C220.21 56.8945 220.49 56.7612 220.783 56.6412C221.076 56.5212 221.383 56.4278 221.703 56.3612C222.023 56.2812 222.336 56.2412 222.643 56.2412C223.323 56.2412 223.856 56.3478 224.243 56.5612C224.63 56.7612 224.923 57.0345 225.123 57.3812C225.323 57.7278 225.45 58.1345 225.503 58.6012C225.556 59.0545 225.583 59.5345 225.583 60.0412V65.8412Z"
    fill="white"
  />
<path
    d="M236.169 65.8412C236.169 66.0945 236.043 66.2212 235.789 66.2212H234.369C234.223 66.2212 234.123 66.1878 234.069 66.1212C234.016 66.0545 233.989 65.9612 233.989 65.8412V65.2212L233.949 65.2012C233.749 65.3345 233.516 65.4745 233.249 65.6212C232.996 65.7545 232.723 65.8812 232.429 66.0012C232.136 66.1212 231.829 66.2145 231.509 66.2812C231.203 66.3612 230.896 66.4012 230.589 66.4012C229.909 66.4012 229.369 66.3078 228.969 66.1212C228.583 65.9345 228.289 65.6745 228.089 65.3412C227.889 65.0078 227.763 64.6145 227.709 64.1612C227.656 63.7078 227.629 63.2212 227.629 62.7012V56.8212C227.629 56.5545 227.756 56.4212 228.009 56.4212H229.469C229.709 56.4212 229.829 56.5545 229.829 56.8212V62.4412C229.829 62.7478 229.849 63.0212 229.889 63.2612C229.929 63.5012 230.003 63.7078 230.109 63.8812C230.216 64.0412 230.363 64.1678 230.549 64.2612C230.736 64.3545 230.983 64.4012 231.289 64.4012C231.503 64.4012 231.736 64.3678 231.989 64.3012C232.256 64.2345 232.516 64.1545 232.769 64.0612C233.023 63.9545 233.256 63.8545 233.469 63.7612C233.683 63.6545 233.856 63.5678 233.989 63.5012V56.8212C233.989 56.7012 234.016 56.6078 234.069 56.5412C234.123 56.4612 234.223 56.4212 234.369 56.4212H235.789C236.043 56.4212 236.169 56.5545 236.169 56.8212V65.8412Z"
    fill="white"
  />
<path
    d="M29.0595 64.8961H84.7641L84.759 28.8354L29.0544 28.8405L29.0595 64.8961Z"
    fill="#003399"
  />
<path
    d="M57.4401 33.3809H59.4717L57.8331 34.6449L58.4712 36.6472L56.8429 35.4135L55.2146 36.6472L55.8526 34.6449L54.2039 33.3809H56.2303L56.8429 31.4292L57.4401 33.3809Z"
    fill="#FFED00"
  />
<path
    d="M57.5115 59.1573H59.5431L57.9097 60.3759L58.5426 62.3023L56.9143 61.1141L55.286 62.3023L55.9292 60.3759L54.2753 59.1573H56.3018L56.9143 57.2815L57.5115 59.1573Z"
    fill="#FFED00"
  />
<path
    d="M63.9482 57.4534H65.9849L64.3464 58.6669L64.9844 60.5933L63.351 59.4051L61.7227 60.5933L62.3659 58.6669L60.712 57.4534H62.7385L63.351 55.5725L63.9482 57.4534Z"
    fill="#FFED00"
  />
<path
    d="M63.9482 35.1H65.9849L64.3464 36.3185L64.9844 38.2449L63.351 37.0567L61.7227 38.2449L62.3659 36.3185L60.712 35.1H62.7385L63.351 33.2241L63.9482 35.1Z"
    fill="#FFED00"
  />
<path
    d="M68.7311 39.8377H70.7575L69.1241 41.0512L69.7571 42.9776L68.1288 41.7894L66.5005 42.9776L67.1436 41.0512L65.4898 39.8377H67.5162L68.1288 37.9568L68.7311 39.8377Z"
    fill="#FFED00"
  />
<path
    d="M68.7311 52.7814H70.7575L69.1241 53.9999L69.7571 55.9263L68.1288 54.7381L66.5005 55.9263L67.1436 53.9999L65.4898 52.7814H67.5162L68.1288 50.9055L68.7311 52.7814Z"
    fill="#FFED00"
  />
<path
    d="M70.5176 46.2084H72.5543L70.9158 47.4269L71.5487 49.3533L69.9204 48.1651L68.2921 49.3533L68.9353 47.4269L67.2814 46.2084H69.3079L69.9204 44.3325L70.5176 46.2084Z"
    fill="#FFED00"
  />
<path
    d="M50.8809 35.1202H52.9074L51.274 36.3336L51.9069 38.26L50.2786 37.0718L48.6503 38.26L49.2934 36.3336L47.6447 35.1202H49.6661L50.2786 33.2393L50.8809 35.1202Z"
    fill="#FFED00"
  />
<path
    d="M46.2308 39.8528H48.2674L46.6289 41.0663L47.2619 42.9927L45.6336 41.8045L44.0052 42.9927L44.6484 41.0663L42.9946 39.8528H45.021L45.6336 37.9719L46.2308 39.8528Z"
    fill="#FFED00"
  />
<path
    d="M44.5055 46.2286H46.537L44.9036 47.442L45.5366 49.3685L43.9083 48.1853L42.28 49.3685L42.9231 47.442L41.2744 46.2286H43.2957L43.9083 44.3477L44.5055 46.2286Z"
    fill="#FFED00"
  />
<path
    d="M46.2308 52.7965H48.2674L46.6289 54.015L47.2619 55.9414L45.6336 54.7532L44.0052 55.9414L44.6484 54.015L42.9946 52.7965H45.021L45.6336 50.9207L46.2308 52.7965Z"
    fill="#FFED00"
  />
<path
    d="M50.9473 57.4685H52.9737L51.3403 58.682L51.9733 60.6084L50.3449 59.4202L48.7166 60.6084L49.3598 58.682L47.7111 57.4685H49.7324L50.3449 55.5876L50.9473 57.4685Z"
    fill="#FFED00"
  />
<path
    d="M94.9372 0.00505726C94.9372 0.00505726 106.917 18.9101 109.112 22.3736C111.302 25.8371 113.808 28.5826 122.675 30.4433C131.541 32.304 135.4 33.1837 135.4 33.1837V33.8562C135.4 33.8562 129.765 32.668 122.516 31.0652C115.268 29.4624 112.302 28.9214 109 24.3657C106.249 20.5736 94.9372 3.61517 94.9372 3.61517V0V0.00505726Z"
    fill="white"
  />
<path
    d="M94.9372 21.5949C94.9372 21.5949 105.845 32.9157 109 36.1668C112.348 39.6151 116.631 40.8893 122.573 41.941C128.244 42.9421 135.395 44.1 135.395 44.1V44.7371C135.395 44.7371 128.677 43.6449 122.573 42.6135C116.585 41.5972 112.394 41.0309 108.964 37.9011C105.891 35.1 94.9372 24.9219 94.9372 24.9219V21.5898V21.5949Z"
    fill="white"
  />
<path
    d="M94.9372 26.6967C94.9372 26.6967 105.309 36.2377 109 39.499C112.394 42.4973 115.146 43.4327 122.608 44.7422C130.071 46.0518 135.395 46.8658 135.395 46.8658V47.5383C135.395 47.5383 128.642 46.4411 122.573 45.4804C116.503 44.5248 112.634 44.1456 109 41.2282C104.809 37.8608 94.9372 29.8113 94.9372 29.8113V26.6917V26.6967Z"
    fill="white"
  />
<path
    d="M94.9372 32.1321C94.9372 32.1321 106.785 41.4456 109 43.0737C111.215 44.7018 114.145 46.6029 122.644 47.8214C131.071 49.0298 135.395 49.6265 135.395 49.6265V50.3343C135.395 50.3343 127.754 49.2371 122.644 48.6001C117.535 47.963 113.619 47.69 109.036 44.6664C104.574 41.7237 94.9372 35.004 94.9372 35.004V32.1321Z"
    fill="white"
  />
<path
    d="M94.9372 37.3601C94.9372 37.3601 106.82 45.1972 109.071 46.441C111.322 47.6798 113.967 49.7022 122.644 50.7994C131.322 51.8966 135.395 52.3921 135.395 52.3921V53.0646C135.395 53.0646 128.218 52.286 122.608 51.6843C117.004 51.0826 113.18 50.2685 109 47.9983C104.819 45.7331 94.9372 40.0095 94.9372 40.0095V37.3601Z"
    fill="white"
  />
<path
    d="M94.9372 42.5883C94.9372 42.5883 105.442 48.2512 109 50.0158C112.966 51.9878 116.396 52.9333 122.608 53.6664C128.708 54.3844 135.395 55.0821 135.395 55.0821V55.7192C135.395 55.7192 129.213 55.0619 122.608 54.4451C116.059 53.8282 113.727 53.5451 109 51.467C104.773 49.6063 94.9372 45.0658 94.9372 45.0658V42.5833V42.5883Z"
    fill="white"
  />
<path
    d="M94.9372 47.8872C94.9372 47.8872 103.237 51.4063 109.071 53.7018C114.809 55.9569 119.193 56.149 122.68 56.5383C124.216 56.7102 135.395 57.8479 135.395 57.8479V58.485C135.395 58.485 128.718 57.9541 122.644 57.4232C116.57 56.8923 113.951 56.6647 109.036 55.0518C104.059 53.4136 94.9372 50.2636 94.9372 50.2636V47.8923V47.8872Z"
    fill="white"
  />
<path
    d="M94.9372 53.2922C94.9372 53.2922 103.319 55.8658 109.036 57.3524C114.753 58.8389 120 59.4456 122.644 59.6175C125.288 59.7945 135.4 60.6085 135.4 60.6085V61.2102C135.4 61.2102 129.647 60.8209 122.608 60.3254C116.917 59.9259 112.348 59.5012 109 58.7681C105.294 57.9591 94.9372 55.522 94.9372 55.522V53.2922Z"
    fill="white"
  />
<path
    d="M94.9372 58.6062C94.9372 58.6062 101.792 59.7792 109.036 60.9674C114.467 61.8573 121.822 62.4186 122.608 62.454C123.394 62.4893 135.395 63.3034 135.395 63.3034V63.9405C135.395 63.9405 127.713 63.5461 122.608 63.268C117.29 62.9747 112.001 62.6562 109 62.3478C102.272 61.6551 94.9372 60.7349 94.9372 60.7349V58.6062Z"
    fill="white"
  />
<path
    d="M94.9372 64.1074C94.9372 64.1074 105.748 64.5119 109.036 64.5827C112.323 64.6535 135.395 65.5737 135.395 65.5737V66.1956H94.9372V64.1074Z"
    fill="white"
  />
<path
    d="M122.603 33.3656C112.818 31.2774 110.603 27.733 108.959 25.5387C107.315 23.3392 94.9321 5.41504 94.9321 5.41504V8.71167C95.4222 9.34369 106.019 23.8347 108.995 27.6269C112.348 31.8993 117.601 32.8701 122.603 33.9319C127.6 34.9937 135.395 36.4752 135.395 36.4752V35.9089C135.395 35.9089 125.135 33.9016 122.603 33.3656Z"
    fill="white"
  />
<path
    d="M122.603 36.2022C114.569 34.6449 111.317 32.127 108.959 29.0831C106.601 26.0343 94.9321 10.446 94.9321 10.446V14.2786C95.4222 14.85 106.096 27.7534 108.959 30.9994C112.297 34.7865 116.958 35.7826 122.603 36.809C128.249 37.8354 135.39 39.1803 135.39 39.1803V38.614C135.39 38.614 127.238 37.1022 122.603 36.2073V36.2022Z"
    fill="white"
  />
<path
    d="M122.603 39.1399C114.247 37.5321 112.532 36.2124 108.995 32.3748C106.769 29.963 95.4119 16.6804 94.9321 16.1191V19.6585C94.9321 19.6585 105.544 30.8731 108.959 34.1849C113.436 38.5332 117.637 38.8619 122.603 39.7467C127.57 40.6315 135.39 42.0473 135.39 42.0473V41.4456C135.39 41.4456 125.947 39.7871 122.603 39.145V39.1399Z"
    fill="white"
  />
<path
    d="M0.00510552 27.7788C0.00510552 27.7788 27.6711 24.8563 35.4196 23.7793C47.6702 22.0805 57.6953 20.2703 66.9701 6.18887C66.9701 6.18887 66.9803 5.38999 66.9701 5.03101C61.2889 13.5911 53.4536 19.431 42.6628 21.1248C32.1222 22.7833 0 25.2052 0 25.2052V27.7788H0.00510552Z"
    fill="white"
  />
<path
    d="M0.00511169 24.2849C0.00511169 24.2849 25.6446 21.1046 34.0925 19.9315C47.4559 18.081 56.8531 16.4175 66.9701 1.05681C66.9701 1.05681 66.9752 0.394453 66.9701 0.00512695C60.7733 9.3439 53.1218 15.3759 41.351 17.2265C29.8507 19.0366 0.00511169 21.6759 0.00511169 21.6759V24.29V24.2849Z"
    fill="white"
  />
<path d="M26.1806 64.1326H0.020462V66.1854H26.1806V64.1326Z" fill="white" />
<path
    d="M66.9701 22.5708C66.9701 22.5708 66.9854 21.3624 66.9803 21.1045C65.7501 22.9601 64.132 24.6438 62.2638 26.1253H64.0963C65.1274 25.0736 66.0921 23.8955 66.965 22.5708H66.9701Z"
    fill="white"
  />
<path
    d="M66.9701 17.11C66.9701 17.11 66.9803 16.0381 66.9752 15.7449C64.0095 20.2145 59.5942 23.7842 54.4897 26.1505L57.5014 26.1404C60.9826 24.1331 64.2188 21.2814 66.965 17.11H66.9701Z"
    fill="white"
  />
<path
    d="M66.9701 11.6494C66.9701 11.6494 66.9803 10.714 66.9701 10.3904C61.8095 18.1718 53.7853 23.496 43.9746 25.0381C41.6521 25.4022 37.8697 25.8067 33.4748 26.2162L45.4549 26.1758C53.3617 24.4314 60.7631 21.0589 66.9599 11.6494H66.9701Z"
    fill="white"
  />
<path
    d="M26.1857 60.6743C12.8377 60.7451 0.020462 60.8007 0.020462 60.8007V62.9395C0.020462 62.9395 13.4451 62.8434 26.1857 62.7372V60.6743Z"
    fill="white"
  />
<path
    d="M26.1857 57.0034C12.9295 57.15 0.0153351 57.2613 0.0153351 57.2613V59.4456C0.0153351 59.4456 13.5778 59.2686 26.1857 59.0714V57.0034Z"
    fill="white"
  />
<path
    d="M26.1806 53.3225C13.0214 53.55 0.0153351 53.722 0.0153351 53.722V55.9517C0.0153351 55.9517 13.7207 55.6837 26.1806 55.3905V53.3225Z"
    fill="white"
  />
<path
    d="M26.1857 49.6213C13.1235 49.9398 0.0153351 50.1774 0.0153351 50.1774V52.4477C0.0153351 52.4477 13.879 52.0735 26.1857 51.6842V49.6162V49.6213Z"
    fill="white"
  />
<path
    d="M26.1908 45.9102C13.2256 46.3197 0.0153351 46.6433 0.0153351 46.6433V48.959C0.0153351 48.959 14.0474 48.4736 26.1908 47.9781V45.9152V45.9102Z"
    fill="white"
  />
<path
    d="M26.1857 42.1838C13.3226 42.6995 0.0153351 43.104 0.0153351 43.104V45.4602C0.0153351 45.4602 14.2209 44.8433 26.1857 44.2315V42.1787V42.1838Z"
    fill="white"
  />
<path
    d="M26.1908 38.4321C13.4247 39.0591 0.0102234 39.5597 0.0102234 39.5597V41.9613C0.0102234 41.9613 14.4047 41.1979 26.1908 40.4647V38.4321Z"
    fill="white"
  />
<path
    d="M26.1908 34.6602C13.5216 35.4085 0.0102234 36.0203 0.0102234 36.0203V38.4624C0.0102234 38.4624 14.5987 37.5321 26.1908 36.6725V34.6602Z"
    fill="white"
  />
<path
    d="M26.1908 30.8679C13.6084 31.7477 0.0102234 32.4859 0.0102234 32.4859V34.9735C0.0102234 34.9735 14.7926 33.8511 26.1908 32.8601V30.873V30.8679Z"
    fill="white"
  />
<path
    d="M26.1908 27.0405C13.685 28.0669 0.00511169 28.9416 0.00511169 28.9416V31.4697C0.00511169 31.4697 14.9866 30.1248 26.1908 28.9922V27.0405Z"
    fill="white"
  />
<path
    d="M86.0759 66.1906V27.5461H27.7528V66.1906H86.0759ZM84.759 28.8355V64.8962H29.0544V28.8405H84.759V28.8355Z"
    fill="white"
  />
</svg>
