<svg
  width="290"
  height="72"
  viewBox="0 0 290 72"
  fill="none"
  xmlns="http://www.w3.org/2000/svg"
>
<path
    d="M29.0595 64.8961H84.7641L84.759 28.8354L29.0544 28.8405L29.0595 64.8961Z"
    fill="#003399"
  />
<path
    d="M57.4401 33.3809H59.4717L57.8331 34.645L58.4712 36.6472L56.8429 35.4135L55.2146 36.6472L55.8526 34.645L54.2039 33.3809H56.2303L56.8429 31.4292L57.4401 33.3809Z"
    fill="#FFED00"
  />
<path
    d="M57.5115 59.1574H59.5431L57.9097 60.3759L58.5426 62.3023L56.9143 61.1141L55.286 62.3023L55.9292 60.3759L54.2753 59.1574H56.3018L56.9143 57.2816L57.5115 59.1574Z"
    fill="#FFED00"
  />
<path
    d="M63.9482 57.4534H65.9849L64.3464 58.6669L64.9844 60.5933L63.351 59.4051L61.7227 60.5933L62.3659 58.6669L60.712 57.4534H62.7385L63.351 55.5725L63.9482 57.4534Z"
    fill="#FFED00"
  />
<path
    d="M63.9482 35.1001H65.9849L64.3464 36.3186L64.9844 38.245L63.351 37.0568L61.7227 38.245L62.3659 36.3186L60.712 35.1001H62.7385L63.351 33.2242L63.9482 35.1001Z"
    fill="#FFED00"
  />
<path
    d="M68.7311 39.8377H70.7575L69.1241 41.0512L69.7571 42.9776L68.1288 41.7894L66.5005 42.9776L67.1436 41.0512L65.4898 39.8377H67.5162L68.1288 37.9568L68.7311 39.8377Z"
    fill="#FFED00"
  />
<path
    d="M68.7311 52.7815H70.7575L69.1241 54.0001L69.7571 55.9265L68.1288 54.7383L66.5005 55.9265L67.1436 54.0001L65.4898 52.7815H67.5162L68.1288 50.9057L68.7311 52.7815Z"
    fill="#FFED00"
  />
<path
    d="M70.5176 46.2085H72.5543L70.9158 47.427L71.5487 49.3534L69.9204 48.1652L68.2921 49.3534L68.9353 47.427L67.2814 46.2085H69.3079L69.9204 44.3326L70.5176 46.2085Z"
    fill="#FFED00"
  />
<path
    d="M50.8809 35.1203H52.9074L51.274 36.3338L51.9069 38.2602L50.2786 37.072L48.6503 38.2602L49.2934 36.3338L47.6447 35.1203H49.6661L50.2786 33.2394L50.8809 35.1203Z"
    fill="#FFED00"
  />
<path
    d="M46.2308 39.8528H48.2674L46.6289 41.0663L47.2619 42.9927L45.6336 41.8045L44.0052 42.9927L44.6484 41.0663L42.9946 39.8528H45.021L45.6336 37.9719L46.2308 39.8528Z"
    fill="#FFED00"
  />
<path
    d="M44.5055 46.2287H46.537L44.9036 47.4422L45.5366 49.3686L43.9083 48.1855L42.28 49.3686L42.9231 47.4422L41.2744 46.2287H43.2957L43.9083 44.3478L44.5055 46.2287Z"
    fill="#FFED00"
  />
<path
    d="M46.2308 52.7967H48.2674L46.6289 54.0152L47.2619 55.9416L45.6336 54.7534L44.0052 55.9416L44.6484 54.0152L42.9946 52.7967H45.021L45.6336 50.9208L46.2308 52.7967Z"
    fill="#FFED00"
  />
<path
    d="M50.9473 57.4686H52.9737L51.3403 58.6821L51.9733 60.6085L50.3449 59.4203L48.7166 60.6085L49.3598 58.6821L47.7111 57.4686H49.7324L50.3449 55.5877L50.9473 57.4686Z"
    fill="#FFED00"
  />
<path
    d="M94.9372 0.00505726C94.9372 0.00505726 106.917 18.9101 109.112 22.3736C111.302 25.8371 113.808 28.5826 122.675 30.4433C131.541 32.304 135.4 33.1837 135.4 33.1837V33.8562C135.4 33.8562 129.765 32.668 122.516 31.0652C115.268 29.4624 112.302 28.9214 109 24.3657C106.249 20.5736 94.9372 3.61517 94.9372 3.61517V0V0.00505726Z"
    fill="white"
  />
<path
    d="M94.9372 21.5949C94.9372 21.5949 105.845 32.9157 109 36.1668C112.348 39.6151 116.631 40.8893 122.573 41.941C128.244 42.9421 135.395 44.1 135.395 44.1V44.7371C135.395 44.7371 128.677 43.6449 122.573 42.6135C116.585 41.5972 112.394 41.0309 108.964 37.9011C105.891 35.1 94.9372 24.9219 94.9372 24.9219V21.5898V21.5949Z"
    fill="white"
  />
<path
    d="M94.9372 26.6966C94.9372 26.6966 105.309 36.2377 109 39.4989C112.394 42.4972 115.146 43.4326 122.608 44.7422C130.071 46.0517 135.395 46.8658 135.395 46.8658V47.5382C135.395 47.5382 128.642 46.441 122.573 45.4804C116.503 44.5247 112.634 44.1455 109 41.2281C104.809 37.8607 94.9372 29.8113 94.9372 29.8113V26.6916V26.6966Z"
    fill="white"
  />
<path
    d="M94.9372 32.1321C94.9372 32.1321 106.785 41.4456 109 43.0736C111.215 44.7017 114.145 46.6029 122.644 47.8214C131.071 49.0298 135.395 49.6265 135.395 49.6265V50.3343C135.395 50.3343 127.754 49.2371 122.644 48.6001C117.535 47.963 113.619 47.6899 109.036 44.6663C104.574 41.7236 94.9372 35.004 94.9372 35.004V32.1321Z"
    fill="white"
  />
<path
    d="M94.9372 37.3602C94.9372 37.3602 106.82 45.1972 109.071 46.4411C111.322 47.6798 113.967 49.7023 122.644 50.7995C131.322 51.8967 135.395 52.3922 135.395 52.3922V53.0647C135.395 53.0647 128.218 52.286 122.608 51.6843C117.004 51.0826 113.18 50.2686 109 47.9984C104.819 45.7332 94.9372 40.0096 94.9372 40.0096V37.3602Z"
    fill="white"
  />
<path
    d="M94.9372 42.5883C94.9372 42.5883 105.442 48.2512 109 50.0158C112.966 51.9877 116.396 52.9332 122.608 53.6664C128.708 54.3843 135.395 55.0821 135.395 55.0821V55.7192C135.395 55.7192 129.213 55.0619 122.608 54.445C116.059 53.8281 113.727 53.545 109 51.4669C104.773 49.6062 94.9372 45.0658 94.9372 45.0658V42.5832V42.5883Z"
    fill="white"
  />
<path
    d="M94.9372 47.8871C94.9372 47.8871 103.237 51.4062 109.071 53.7017C114.809 55.9568 119.193 56.1489 122.68 56.5383C124.216 56.7102 135.395 57.8478 135.395 57.8478V58.4849C135.395 58.4849 128.718 57.954 122.644 57.4231C116.57 56.8922 113.951 56.6647 109.036 55.0517C104.059 53.4135 94.9372 50.2635 94.9372 50.2635V47.8922V47.8871Z"
    fill="white"
  />
<path
    d="M94.9372 53.2922C94.9372 53.2922 103.319 55.8658 109.036 57.3523C114.753 58.8388 120 59.4455 122.644 59.6175C125.288 59.7944 135.4 60.6085 135.4 60.6085V61.2102C135.4 61.2102 129.647 60.8208 122.608 60.3253C116.917 59.9259 112.348 59.5012 109 58.768C105.294 57.959 94.9372 55.522 94.9372 55.522V53.2922Z"
    fill="white"
  />
<path
    d="M94.9372 58.6062C94.9372 58.6062 101.792 59.7792 109.036 60.9675C114.467 61.8573 121.822 62.4186 122.608 62.454C123.394 62.4894 135.395 63.3034 135.395 63.3034V63.9405C135.395 63.9405 127.713 63.5461 122.608 63.268C117.29 62.9748 112.001 62.6562 109 62.3478C102.272 61.6551 94.9372 60.7349 94.9372 60.7349V58.6062Z"
    fill="white"
  />
<path
    d="M94.9372 64.1074C94.9372 64.1074 105.748 64.5119 109.036 64.5827C112.323 64.6535 135.395 65.5737 135.395 65.5737V66.1956H94.9372V64.1074Z"
    fill="white"
  />
<path
    d="M122.603 33.3657C112.818 31.2775 110.603 27.7331 108.959 25.5387C107.315 23.3393 94.9321 5.41514 94.9321 5.41514V8.71177C95.4222 9.34379 106.019 23.8348 108.995 27.627C112.348 31.8994 117.601 32.8702 122.603 33.932C127.6 34.9938 135.395 36.4753 135.395 36.4753V35.909C135.395 35.909 125.135 33.9017 122.603 33.3657Z"
    fill="white"
  />
<path
    d="M122.603 36.2023C114.569 34.645 111.317 32.127 108.959 29.0832C106.601 26.0343 94.9321 10.4461 94.9321 10.4461V14.2787C95.4222 14.85 106.096 27.7534 108.959 30.9995C112.297 34.7865 116.958 35.7826 122.603 36.809C128.249 37.8354 135.39 39.1804 135.39 39.1804V38.6141C135.39 38.6141 127.238 37.1023 122.603 36.2073V36.2023Z"
    fill="white"
  />
<path
    d="M122.603 39.14C114.247 37.5321 112.532 36.2124 108.995 32.3748C106.769 29.963 95.4119 16.6804 94.9321 16.1192V19.6585C94.9321 19.6585 105.544 30.8731 108.959 34.1849C113.436 38.5332 117.637 38.8619 122.603 39.7467C127.57 40.6315 135.39 42.0473 135.39 42.0473V41.4456C135.39 41.4456 125.947 39.7872 122.603 39.145V39.14Z"
    fill="white"
  />
<path
    d="M0.00510552 27.7787C0.00510552 27.7787 27.6711 24.8562 35.4196 23.7792C47.6702 22.0803 57.6953 20.2702 66.9701 6.18876C66.9701 6.18876 66.9803 5.38988 66.9701 5.03089C61.2889 13.591 53.4536 19.4309 42.6628 21.1247C32.1222 22.7832 0 25.2051 0 25.2051V27.7787H0.00510552Z"
    fill="white"
  />
<path
    d="M0.00511169 24.2849C0.00511169 24.2849 25.6446 21.1045 34.0925 19.9315C47.4559 18.0809 56.8531 16.4174 66.9701 1.05676C66.9701 1.05676 66.9752 0.3944 66.9701 0.00507355C60.7733 9.34384 53.1218 15.3759 41.351 17.2264C29.8507 19.0365 0.00511169 21.6759 0.00511169 21.6759V24.2899V24.2849Z"
    fill="white"
  />
<path d="M26.1806 64.1326H0.020462V66.1854H26.1806V64.1326Z" fill="white" />
<path
    d="M66.9701 22.5708C66.9701 22.5708 66.9854 21.3623 66.9803 21.1045C65.7501 22.9601 64.132 24.6438 62.2638 26.1253H64.0963C65.1274 25.0736 66.0921 23.8955 66.965 22.5708H66.9701Z"
    fill="white"
  />
<path
    d="M66.9701 17.1101C66.9701 17.1101 66.9803 16.0382 66.9752 15.745C64.0095 20.2146 59.5942 23.7843 54.4897 26.1506L57.5014 26.1405C60.9826 24.1332 64.2188 21.2815 66.965 17.1101H66.9701Z"
    fill="white"
  />
<path
    d="M66.9701 11.6494C66.9701 11.6494 66.9803 10.714 66.9701 10.3904C61.8095 18.1719 53.7853 23.4961 43.9746 25.0382C41.6521 25.4022 37.8697 25.8067 33.4748 26.2163L45.4549 26.1758C53.3617 24.4315 60.7631 21.059 66.9599 11.6494H66.9701Z"
    fill="white"
  />
<path
    d="M26.1857 60.6742C12.8377 60.745 0.020462 60.8006 0.020462 60.8006V62.9394C0.020462 62.9394 13.4451 62.8433 26.1857 62.7371V60.6742Z"
    fill="white"
  />
<path
    d="M26.1857 57.0034C12.9295 57.15 0.0153351 57.2613 0.0153351 57.2613V59.4455C0.0153351 59.4455 13.5778 59.2686 26.1857 59.0714V57.0034Z"
    fill="white"
  />
<path
    d="M26.1806 53.3225C13.0214 53.55 0.0153351 53.7219 0.0153351 53.7219V55.9517C0.0153351 55.9517 13.7207 55.6837 26.1806 55.3905V53.3225Z"
    fill="white"
  />
<path
    d="M26.1857 49.6214C13.1235 49.9399 0.0153351 50.1776 0.0153351 50.1776V52.4478C0.0153351 52.4478 13.879 52.0736 26.1857 51.6843V49.6163V49.6214Z"
    fill="white"
  />
<path
    d="M26.1908 45.9102C13.2256 46.3197 0.0153351 46.6433 0.0153351 46.6433V48.959C0.0153351 48.959 14.0474 48.4737 26.1908 47.9782V45.9152V45.9102Z"
    fill="white"
  />
<path
    d="M26.1857 42.1838C13.3226 42.6995 0.0153351 43.104 0.0153351 43.104V45.4602C0.0153351 45.4602 14.2209 44.8433 26.1857 44.2315V42.1787V42.1838Z"
    fill="white"
  />
<path
    d="M26.1908 38.4321C13.4247 39.059 0.0102234 39.5596 0.0102234 39.5596V41.9613C0.0102234 41.9613 14.4047 41.1978 26.1908 40.4646V38.4321Z"
    fill="white"
  />
<path
    d="M26.1908 34.6602C13.5216 35.4085 0.0102234 36.0203 0.0102234 36.0203V38.4624C0.0102234 38.4624 14.5987 37.5321 26.1908 36.6725V34.6602Z"
    fill="white"
  />
<path
    d="M26.1908 30.868C13.6084 31.7478 0.0102234 32.486 0.0102234 32.486V34.9736C0.0102234 34.9736 14.7926 33.8512 26.1908 32.8602V30.8731V30.868Z"
    fill="white"
  />
<path
    d="M26.1908 27.0405C13.685 28.0669 0.00511169 28.9416 0.00511169 28.9416V31.4697C0.00511169 31.4697 14.9866 30.1247 26.1908 28.9921V27.0405Z"
    fill="white"
  />
<path
    d="M86.0759 66.1905V27.5461H27.7528V66.1905H86.0759ZM84.759 28.8354V64.8961H29.0544V28.8405H84.759V28.8354Z"
    fill="white"
  />
<path d="M253.527 66.1781V27.7683H250.252V66.1781H253.527Z" fill="white" />
<path
    d="M144.4 33.7339C144.4 33.4875 144.516 33.3517 144.782 33.3517H151.814C152.046 33.3517 152.177 33.4875 152.177 33.7138V34.9009C152.177 35.1323 152.081 35.243 151.794 35.243H146.578V38.5327H151.201C151.447 38.5327 151.583 38.6484 151.583 38.8747V40.0618C151.583 40.2932 151.487 40.4039 151.201 40.4039H146.578V44.1664H151.93C152.161 44.1664 152.272 44.2821 152.272 44.5285V45.6955C152.272 45.942 152.177 46.0376 151.91 46.0376H144.782C144.516 46.0376 144.4 45.9219 144.4 45.6955V33.7339Z"
    fill="white"
  />
<path
    d="M154.586 46.0374C154.204 46.0374 154.108 45.8865 154.108 45.635V37.0335C154.108 36.7669 154.204 36.6714 154.531 36.6714H158.6C160.818 36.6714 161.794 37.6673 161.794 39.2116C161.794 39.7095 161.603 40.5898 160.687 41.0828C161.794 41.5606 162.066 42.5918 162.066 43.2608C162.066 44.961 160.592 46.0324 158.836 46.0324H154.596L154.586 46.0374ZM158.333 38.3766H156.175V40.4389H158.469C159.214 40.4389 159.671 39.9409 159.671 39.3675C159.671 38.8695 159.365 38.3715 158.333 38.3715V38.3766ZM158.62 41.9328H156.175V44.3221H158.414C159.616 44.3221 159.943 43.633 159.943 43.1551C159.943 42.5264 159.601 41.9328 158.625 41.9328H158.62Z"
    fill="white"
  />
<path
    d="M168.308 46.2131C167.679 46.2131 166.799 46.0974 165.919 45.7906L165.899 45.8107V49.1758C165.899 49.3871 165.843 49.5581 165.536 49.5581H164.178C163.872 49.5581 163.816 49.4223 163.816 49.1758V37.0583C163.816 36.8118 163.912 36.676 164.178 36.676H165.536C165.803 36.676 165.879 36.8269 165.879 37.0583V37.6318L165.934 37.672C166.623 37.1941 167.845 36.5251 168.952 36.5251C171.457 36.5251 172.106 38.4164 172.106 41.3037C172.106 44.4173 171.321 46.2131 168.303 46.2131H168.308ZM168.464 38.4315C167.679 38.4315 166.477 38.9848 165.904 39.2917V44.0703C166.764 44.3167 167.453 44.3972 168.102 44.3972C169.48 44.3972 169.958 43.688 169.958 41.2836C169.958 38.8792 169.48 38.4366 168.469 38.4366L168.464 38.4315Z"
    fill="white"
  />
<path
    d="M177.714 46.1929C173.871 46.1929 173.625 43.3861 173.625 41.2031C173.625 39.4073 174.027 36.4848 177.714 36.4848C181.401 36.4848 181.94 38.9496 181.94 41.2031C181.94 43.4566 181.673 46.1929 177.714 46.1929ZM177.734 38.3158C176.11 38.3158 175.748 39.347 175.748 41.3339C175.748 43.3207 176.11 44.3519 177.714 44.3519C179.455 44.3519 179.797 43.3761 179.797 41.3339C179.797 39.2916 179.47 38.3158 177.734 38.3158Z"
    fill="white"
  />
<path
    d="M191.955 45.6744C191.955 45.8857 191.859 46.0366 191.572 46.0366H190.214C189.948 46.0366 189.852 45.9209 189.852 45.6744L189.872 38.4311H185.858V45.6744C185.858 45.8857 185.783 46.0366 185.496 46.0366H184.138C183.871 46.0366 183.776 45.9209 183.776 45.6744V37.0377C183.776 36.7711 183.891 36.6756 184.138 36.6756H191.592C191.879 36.6756 191.955 36.7711 191.955 37.0377V45.6744Z"
    fill="white"
  />
<path
    d="M195.948 41.9321C196.004 43.8637 196.693 44.3968 198.262 44.3968C198.951 44.3968 200.023 44.261 200.747 44.1856C201.089 44.1453 201.205 44.1453 201.265 44.5125L201.381 45.1413C201.436 45.428 201.401 45.5789 201.054 45.7349C200.31 46.0216 198.916 46.2127 197.976 46.2127C194.324 46.2127 193.791 43.8787 193.791 41.3989C193.791 39.5428 194.133 36.4895 197.86 36.4895C201.28 36.4895 201.894 38.7078 201.949 40.7702C201.969 41.4593 201.778 41.9371 201.014 41.9371H195.948V41.9321ZM195.969 40.4985H199.751C199.751 39.3315 199.444 38.2048 197.86 38.2048C196.446 38.2048 196.064 39.0649 195.969 40.4985Z"
    fill="white"
  />
<path
    d="M203.654 37.0941C203.654 36.8074 203.749 36.6716 204.056 36.6716H205.299C205.641 36.6716 205.721 36.8426 205.721 37.0941V42.6725H205.761L208.266 39.2721L209.967 37.0187C210.118 36.8275 210.233 36.6766 210.616 36.6766H211.611C211.918 36.6766 212.034 36.8677 212.034 37.079V45.6402C212.034 45.8867 211.918 46.0426 211.596 46.0426H210.394C210.107 46.0426 209.957 45.9269 209.957 45.6402V39.7902H209.936C209.056 41.0125 208.161 42.1996 207.26 43.422C206.707 44.1865 206.134 44.931 205.56 45.6956C205.409 45.9068 205.253 46.0376 204.891 46.0376H204.071C203.765 46.0376 203.669 45.9219 203.669 45.6352V37.0941H203.654ZM204.685 33.8095C204.589 33.6183 204.439 33.3517 204.645 33.1807L205.163 32.7582C205.394 32.6073 205.49 32.7028 205.661 32.8739C206.425 33.7893 206.944 34.2119 207.879 34.2119C208.739 34.2119 209.197 33.7893 210.002 32.8739C210.173 32.6827 210.289 32.6425 210.48 32.7783L210.998 33.1052C211.244 33.2561 211.073 33.5429 210.978 33.7742C210.289 35.1122 209.122 35.8014 207.864 35.8014C206.607 35.8014 205.304 35.1726 204.69 33.8145L204.685 33.8095Z"
    fill="white"
  />
<path
    d="M221.159 45.1618C221.234 45.4485 221.179 45.5994 220.832 45.7553C220.107 46.0621 218.865 46.1929 217.924 46.1929C214.348 46.1929 213.835 43.8992 213.835 41.2986C213.835 38.9295 214.388 36.4848 217.924 36.4848C218.805 36.4848 220.047 36.6005 220.867 36.9426C221.113 37.0583 221.194 37.2293 221.154 37.4758L221.018 38.2403C220.942 38.5271 220.786 38.5271 220.424 38.5069C219.64 38.4315 218.744 38.3359 218.09 38.3359C216.541 38.3359 216.008 39.1407 216.008 41.2584C216.008 43.6477 216.541 44.3519 218.07 44.3519C218.644 44.3519 219.75 44.2765 220.535 44.1809C220.842 44.1406 220.972 44.1406 221.033 44.4676L221.149 45.1567L221.159 45.1618Z"
    fill="white"
  />
<path
    d="M224.659 45.7146C224.659 45.9259 224.604 46.0416 224.332 46.0416H222.899C222.667 46.0416 222.572 45.946 222.572 45.7146V37.0176C222.572 36.7862 222.667 36.6756 222.899 36.6756H224.332C224.599 36.6756 224.659 36.8114 224.659 37.0176V40.3827H225.635C226.359 40.3827 226.878 40.2318 227.315 39.0447L228.08 36.9824C228.175 36.751 228.311 36.6957 228.613 36.6957H229.78C230.142 36.6957 230.162 36.8667 230.087 37.1182L229.418 39.1051C229.015 40.2922 228.598 40.9763 227.909 41.1876V41.2077C228.789 41.5145 229.151 42.0477 229.493 43.0638L230.333 45.6241C230.409 45.8555 230.409 46.0466 230.026 46.0466H228.744C228.457 46.0466 228.306 45.9913 228.226 45.7599L227.481 43.5618C227.079 42.3747 226.354 42.1483 225.645 42.1483H224.649V45.7247L224.659 45.7146Z"
    fill="white"
  />
<path
    d="M237.808 44.9501C236.852 45.6744 235.57 46.1925 234.292 46.1925C232.265 46.1925 231.671 45.0859 231.671 43.4813C231.651 41.2429 232.858 40.2872 235.263 40.2872H237.707V39.7892C237.707 38.6424 237.29 38.24 235.72 38.24C235.092 38.24 233.884 38.3355 233.12 38.411C232.738 38.4663 232.642 38.4512 232.587 38.1796L232.416 37.4703C232.375 37.2239 232.436 37.0679 232.853 36.8969C233.673 36.6102 235.187 36.4744 236.083 36.4744C239.387 36.4744 239.79 37.8325 239.79 39.9703V43.6574C239.79 44.4421 239.885 44.4622 240.479 44.5376C240.766 44.5577 240.841 44.6131 240.841 44.8243V45.6292C240.841 45.8404 240.705 45.9712 240.383 46.0316C240.076 46.0869 239.77 46.1271 239.483 46.1271C238.583 46.1271 238.029 45.8605 237.838 44.9602L237.798 44.94L237.808 44.9501ZM237.692 41.7761H235.358C234.403 41.7761 233.789 42.1182 233.789 43.3807C233.789 44.2207 234.076 44.4873 234.976 44.4873C235.796 44.4873 236.963 44.0095 237.692 43.5869V41.7711V41.7761Z"
    fill="white"
  />
<path
    d="M146.513 65.8552C146.513 66.0665 146.457 66.1822 146.186 66.1822H144.747C144.516 66.1822 144.42 66.0866 144.42 65.8552V57.123C144.42 56.8916 144.516 56.7759 144.747 56.7759H146.186C146.452 56.7759 146.513 56.9117 146.513 57.123V60.4982H147.493C148.223 60.4982 148.741 60.3423 149.184 59.1552L149.953 57.0828C150.049 56.8514 150.185 56.796 150.491 56.796H151.663C152.026 56.796 152.046 56.9671 151.97 57.2186L151.301 59.2155C150.899 60.4077 150.476 61.0968 149.787 61.308V61.3282C150.667 61.635 151.035 62.1732 151.382 63.1893L152.227 65.7597C152.302 65.9911 152.302 66.1822 151.92 66.1822H150.632C150.345 66.1822 150.19 66.1269 150.114 65.8955L149.365 63.6873C148.962 62.4951 148.233 62.2688 147.524 62.2688H146.528V65.8552H146.513Z"
    fill="white"
  />
<path
    d="M157.7 66.3339C153.842 66.3339 153.595 63.512 153.595 61.3239C153.595 59.5181 153.997 56.5856 157.7 56.5856C161.402 56.5856 161.94 59.0604 161.94 61.3239C161.94 63.5875 161.673 66.3339 157.7 66.3339ZM157.72 58.4316C156.09 58.4316 155.723 59.4678 155.723 61.4648C155.723 63.4617 156.085 64.4979 157.7 64.4979C159.445 64.4979 159.792 63.517 159.792 61.4648C159.792 59.4125 159.465 58.4316 157.72 58.4316Z"
    fill="white"
  />
<path
    d="M171.578 60.7706L170.733 62.3853C170.37 63.0744 170.079 63.6881 169.641 64.4577C169.525 64.6689 169.334 64.7846 169.083 64.7846H168.429C168.082 64.7846 167.951 64.6891 167.855 64.4778C167.508 63.8239 167.166 63.2907 166.859 62.677C166.532 62.0835 166.19 61.3541 165.863 60.7555H165.823V65.8007C165.823 66.0522 165.708 66.183 165.381 66.183H164.193C163.927 66.183 163.791 66.0673 163.791 65.8007V57.1842C163.791 56.9176 163.887 56.8019 164.173 56.8019H165.285C165.667 56.8019 165.803 56.8974 165.919 57.1288C166.321 57.8783 166.724 58.6077 167.111 59.3572C167.684 60.4135 168.187 61.4698 168.781 62.5211L170.275 59.6791L171.638 57.1439C171.774 56.9125 171.925 56.7968 172.292 56.7968H173.288C173.554 56.7968 173.67 56.9327 173.67 57.164V65.8007C173.67 66.0673 173.534 66.183 173.268 66.183H172.061C171.774 66.183 171.638 66.0472 171.638 65.8007V60.7706H171.583H171.578Z"
    fill="white"
  />
<path
    d="M175.682 57.1985C175.682 56.9117 175.778 56.7759 176.084 56.7759H177.332C177.679 56.7759 177.754 56.9469 177.754 57.1985V62.802H177.795L180.31 59.3865L182.02 57.123C182.171 56.9319 182.287 56.7759 182.674 56.7759H183.67C183.977 56.7759 184.092 56.9671 184.092 57.1783V65.7748C184.092 66.0263 183.977 66.1772 183.65 66.1772H182.443C182.156 66.1772 182 66.0615 182 65.7748V59.9046H181.98C181.099 61.132 180.194 62.3241 179.294 63.5515C178.735 64.3211 178.162 65.0655 177.583 65.8351C177.433 66.0464 177.277 66.1822 176.914 66.1822H176.09C175.783 66.1822 175.687 66.0665 175.687 65.7798V57.2035L175.682 57.1985Z"
    fill="white"
  />
<path
    d="M193.262 65.2977C193.338 65.5844 193.282 65.7403 192.935 65.8912C192.206 66.1981 190.959 66.3339 190.018 66.3339C186.431 66.3339 185.913 64.0301 185.913 61.4195C185.913 59.0403 186.472 56.5856 190.018 56.5856C190.898 56.5856 192.146 56.7013 192.971 57.0433C193.222 57.159 193.298 57.33 193.257 57.5815L193.121 58.3511C193.046 58.6379 192.89 58.6379 192.528 58.6177C191.743 58.5423 190.838 58.4467 190.189 58.4467C188.635 58.4467 188.096 59.2515 188.096 61.3843C188.096 63.7836 188.635 64.4929 190.169 64.4929C190.742 64.4929 191.859 64.4174 192.644 64.3219C192.95 64.2816 193.086 64.2816 193.142 64.6086L193.257 65.2977H193.262Z"
    fill="white"
  />
<path
    d="M194.686 57.1985C194.686 56.9117 194.781 56.7759 195.088 56.7759H196.336C196.683 56.7759 196.758 56.9469 196.758 57.1985V62.802H196.798L199.314 59.3865L201.024 57.123C201.175 56.9319 201.29 56.7759 201.678 56.7759H202.674C202.98 56.7759 203.096 56.9671 203.096 57.1783V65.7748C203.096 66.0263 202.98 66.1772 202.653 66.1772H201.446C201.16 66.1772 201.004 66.0615 201.004 65.7748V59.9046H200.983C200.103 61.132 199.198 62.3241 198.297 63.5515C197.739 64.3211 197.166 65.0655 196.587 65.8351C196.436 66.0464 196.28 66.1822 195.918 66.1822H195.093C194.786 66.1822 194.691 66.0665 194.691 65.7798V57.2035L194.686 57.1985Z"
    fill="white"
  />
<path
    d="M212.452 56.7607C212.799 56.7607 212.914 56.8763 212.914 57.1429V65.7796C212.914 66.0462 212.779 66.1619 212.452 66.1619H211.244C210.917 66.1619 210.822 66.0261 210.822 65.7796V62.5151H208.885C208.231 62.5704 207.794 62.842 207.447 63.9185L206.833 65.7796C206.737 66.0864 206.622 66.182 206.26 66.182H204.992C204.645 66.182 204.61 66.0311 204.685 65.7595L205.354 63.7072C205.621 62.9376 205.892 62.3441 206.446 62.0372C205.334 61.6348 205.062 60.5986 205.062 59.7133C205.062 57.7767 206.597 56.7607 208.458 56.7607H212.447H212.452ZM208.614 60.8853H210.822V58.486H208.709C207.789 58.486 207.135 58.9085 207.135 59.7133C207.135 60.4427 207.537 60.8853 208.614 60.8853Z"
    fill="white"
  />
</svg>
