<svg
  width="290"
  height="72"
  viewBox="0 0 290 72"
  fill="none"
  xmlns="http://www.w3.org/2000/svg"
>
<path
    d="M29.0595 64.8961H84.7641L84.759 28.8354L29.0544 28.8405L29.0595 64.8961Z"
    fill="#003399"
  />
<path
    d="M57.4401 33.3809H59.4717L57.8331 34.6449L58.4712 36.6472L56.8429 35.4135L55.2146 36.6472L55.8526 34.6449L54.2039 33.3809H56.2303L56.8429 31.4292L57.4401 33.3809Z"
    fill="#FFED00"
  />
<path
    d="M57.5115 59.1573H59.5431L57.9097 60.3759L58.5426 62.3023L56.9143 61.1141L55.286 62.3023L55.9292 60.3759L54.2753 59.1573H56.3018L56.9143 57.2815L57.5115 59.1573Z"
    fill="#FFED00"
  />
<path
    d="M63.9482 57.4534H65.9849L64.3464 58.6669L64.9844 60.5933L63.351 59.4051L61.7227 60.5933L62.3659 58.6669L60.712 57.4534H62.7385L63.351 55.5725L63.9482 57.4534Z"
    fill="#FFED00"
  />
<path
    d="M63.9482 35.1H65.9849L64.3464 36.3185L64.9844 38.2449L63.351 37.0567L61.7227 38.2449L62.3659 36.3185L60.712 35.1H62.7385L63.351 33.2241L63.9482 35.1Z"
    fill="#FFED00"
  />
<path
    d="M68.7311 39.8377H70.7575L69.1241 41.0512L69.7571 42.9776L68.1288 41.7894L66.5005 42.9776L67.1436 41.0512L65.4898 39.8377H67.5162L68.1288 37.9568L68.7311 39.8377Z"
    fill="#FFED00"
  />
<path
    d="M68.7311 52.7815H70.7575L69.1241 54L69.7571 55.9264L68.1288 54.7382L66.5005 55.9264L67.1436 54L65.4898 52.7815H67.5162L68.1288 50.9056L68.7311 52.7815Z"
    fill="#FFED00"
  />
<path
    d="M70.5176 46.2085H72.5543L70.9158 47.427L71.5487 49.3534L69.9204 48.1652L68.2921 49.3534L68.9353 47.427L67.2814 46.2085H69.3079L69.9204 44.3326L70.5176 46.2085Z"
    fill="#FFED00"
  />
<path
    d="M50.8809 35.1203H52.9074L51.274 36.3338L51.9069 38.2602L50.2786 37.072L48.6503 38.2602L49.2934 36.3338L47.6447 35.1203H49.6661L50.2786 33.2394L50.8809 35.1203Z"
    fill="#FFED00"
  />
<path
    d="M46.2308 39.8527H48.2674L46.6289 41.0662L47.2619 42.9926L45.6336 41.8044L44.0052 42.9926L44.6484 41.0662L42.9946 39.8527H45.021L45.6336 37.9718L46.2308 39.8527Z"
    fill="#FFED00"
  />
<path
    d="M44.5055 46.2287H46.537L44.9036 47.4422L45.5366 49.3686L43.9083 48.1854L42.28 49.3686L42.9231 47.4422L41.2744 46.2287H43.2957L43.9083 44.3478L44.5055 46.2287Z"
    fill="#FFED00"
  />
<path
    d="M46.2308 52.7966H48.2674L46.6289 54.0152L47.2619 55.9416L45.6336 54.7534L44.0052 55.9416L44.6484 54.0152L42.9946 52.7966H45.021L45.6336 50.9208L46.2308 52.7966Z"
    fill="#FFED00"
  />
<path
    d="M50.9473 57.4685H52.9737L51.3403 58.682L51.9733 60.6084L50.3449 59.4202L48.7166 60.6084L49.3598 58.682L47.7111 57.4685H49.7324L50.3449 55.5876L50.9473 57.4685Z"
    fill="#FFED00"
  />
<path
    d="M94.9372 0.00505726C94.9372 0.00505726 106.917 18.9101 109.112 22.3736C111.302 25.8371 113.808 28.5826 122.675 30.4433C131.541 32.304 135.4 33.1837 135.4 33.1837V33.8562C135.4 33.8562 129.765 32.668 122.516 31.0652C115.268 29.4624 112.302 28.9214 109 24.3657C106.249 20.5736 94.9372 3.61517 94.9372 3.61517V0V0.00505726Z"
    fill="white"
  />
<path
    d="M94.9372 21.5949C94.9372 21.5949 105.845 32.9157 109 36.1668C112.348 39.6151 116.631 40.8893 122.573 41.941C128.244 42.9421 135.395 44.1 135.395 44.1V44.7371C135.395 44.7371 128.677 43.6449 122.573 42.6135C116.585 41.5972 112.394 41.0309 108.964 37.9011C105.891 35.1 94.9372 24.9219 94.9372 24.9219V21.5898V21.5949Z"
    fill="white"
  />
<path
    d="M94.9372 26.6966C94.9372 26.6966 105.309 36.2376 109 39.4988C112.394 42.4972 115.146 43.4325 122.608 44.7421C130.071 46.0517 135.395 46.8657 135.395 46.8657V47.5382C135.395 47.5382 128.642 46.441 122.573 45.4803C116.503 44.5247 112.634 44.1455 109 41.2281C104.809 37.8606 94.9372 29.8112 94.9372 29.8112V26.6915V26.6966Z"
    fill="white"
  />
<path
    d="M94.9372 32.1321C94.9372 32.1321 106.785 41.4456 109 43.0737C111.215 44.7018 114.145 46.6029 122.644 47.8214C131.071 49.0298 135.395 49.6265 135.395 49.6265V50.3343C135.395 50.3343 127.754 49.2371 122.644 48.6001C117.535 47.963 113.619 47.69 109.036 44.6664C104.574 41.7237 94.9372 35.004 94.9372 35.004V32.1321Z"
    fill="white"
  />
<path
    d="M94.9372 37.3601C94.9372 37.3601 106.82 45.1972 109.071 46.441C111.322 47.6798 113.967 49.7022 122.644 50.7994C131.322 51.8966 135.395 52.3921 135.395 52.3921V53.0646C135.395 53.0646 128.218 52.286 122.608 51.6843C117.004 51.0826 113.18 50.2685 109 47.9983C104.819 45.7331 94.9372 40.0095 94.9372 40.0095V37.3601Z"
    fill="white"
  />
<path
    d="M94.9372 42.5883C94.9372 42.5883 105.442 48.2512 109 50.0158C112.966 51.9878 116.396 52.9333 122.608 53.6664C128.708 54.3844 135.395 55.0821 135.395 55.0821V55.7192C135.395 55.7192 129.213 55.0619 122.608 54.4451C116.059 53.8282 113.727 53.5451 109 51.467C104.773 49.6063 94.9372 45.0658 94.9372 45.0658V42.5833V42.5883Z"
    fill="white"
  />
<path
    d="M94.9372 47.8871C94.9372 47.8871 103.237 51.4062 109.071 53.7017C114.809 55.9568 119.193 56.1489 122.68 56.5382C124.216 56.7101 135.395 57.8478 135.395 57.8478V58.4848C135.395 58.4848 128.718 57.9539 122.644 57.423C116.57 56.8921 113.951 56.6646 109.036 55.0517C104.059 53.4135 94.9372 50.2635 94.9372 50.2635V47.8921V47.8871Z"
    fill="white"
  />
<path
    d="M94.9372 53.2921C94.9372 53.2921 103.319 55.8657 109.036 57.3522C114.753 58.8387 120 59.4455 122.644 59.6174C125.288 59.7944 135.4 60.6084 135.4 60.6084V61.2101C135.4 61.2101 129.647 60.8208 122.608 60.3253C116.917 59.9258 112.348 59.5011 109 58.768C105.294 57.959 94.9372 55.5219 94.9372 55.5219V53.2921Z"
    fill="white"
  />
<path
    d="M94.9372 58.6062C94.9372 58.6062 101.792 59.7792 109.036 60.9674C114.467 61.8573 121.822 62.4186 122.608 62.454C123.394 62.4893 135.395 63.3034 135.395 63.3034V63.9405C135.395 63.9405 127.713 63.5461 122.608 63.268C117.29 62.9747 112.001 62.6562 109 62.3478C102.272 61.6551 94.9372 60.7349 94.9372 60.7349V58.6062Z"
    fill="white"
  />
<path
    d="M94.9372 64.1074C94.9372 64.1074 105.748 64.5119 109.036 64.5827C112.323 64.6535 135.395 65.5737 135.395 65.5737V66.1956H94.9372V64.1074Z"
    fill="white"
  />
<path
    d="M122.603 33.3657C112.818 31.2775 110.603 27.7332 108.959 25.5388C107.315 23.3393 94.9321 5.41516 94.9321 5.41516V8.71179C95.4222 9.34382 106.019 23.8348 108.995 27.627C112.348 31.8994 117.601 32.8702 122.603 33.932C127.6 34.9938 135.395 36.4753 135.395 36.4753V35.909C135.395 35.909 125.135 33.9017 122.603 33.3657Z"
    fill="white"
  />
<path
    d="M122.603 36.2022C114.569 34.6449 111.317 32.127 108.959 29.0831C106.601 26.0343 94.9321 10.446 94.9321 10.446V14.2786C95.4222 14.85 106.096 27.7534 108.959 30.9994C112.297 34.7865 116.958 35.7826 122.603 36.809C128.249 37.8354 135.39 39.1803 135.39 39.1803V38.614C135.39 38.614 127.238 37.1022 122.603 36.2073V36.2022Z"
    fill="white"
  />
<path
    d="M122.603 39.1399C114.247 37.5321 112.532 36.2124 108.995 32.3748C106.769 29.963 95.4119 16.6804 94.9321 16.1191V19.6585C94.9321 19.6585 105.544 30.8731 108.959 34.1849C113.436 38.5332 117.637 38.8619 122.603 39.7467C127.57 40.6315 135.39 42.0473 135.39 42.0473V41.4456C135.39 41.4456 125.947 39.7871 122.603 39.145V39.1399Z"
    fill="white"
  />
<path
    d="M0.00510552 27.7787C0.00510552 27.7787 27.6711 24.8562 35.4196 23.7792C47.6702 22.0803 57.6953 20.2702 66.9701 6.18875C66.9701 6.18875 66.9803 5.38987 66.9701 5.03088C61.2889 13.591 53.4536 19.4309 42.6628 21.1247C32.1222 22.7831 0 25.2051 0 25.2051V27.7787H0.00510552Z"
    fill="white"
  />
<path
    d="M0.00511169 24.2848C0.00511169 24.2848 25.6446 21.1045 34.0925 19.9314C47.4559 18.0809 56.8531 16.4174 66.9701 1.05669C66.9701 1.05669 66.9752 0.394331 66.9701 0.00500488C60.7733 9.34378 53.1218 15.3758 41.351 17.2264C29.8507 19.0365 0.00511169 21.6758 0.00511169 21.6758V24.2899V24.2848Z"
    fill="white"
  />
<path d="M26.1806 64.1326H0.020462V66.1854H26.1806V64.1326Z" fill="white" />
<path
    d="M66.9701 22.5708C66.9701 22.5708 66.9854 21.3624 66.9803 21.1045C65.7501 22.9601 64.132 24.6438 62.2638 26.1253H64.0963C65.1274 25.0736 66.0921 23.8955 66.965 22.5708H66.9701Z"
    fill="white"
  />
<path
    d="M66.9701 17.1102C66.9701 17.1102 66.9803 16.0383 66.9752 15.745C64.0095 20.2147 59.5942 23.7843 54.4897 26.1506L57.5014 26.1405C60.9826 24.1332 64.2188 21.2815 66.965 17.1102H66.9701Z"
    fill="white"
  />
<path
    d="M66.9701 11.6494C66.9701 11.6494 66.9803 10.714 66.9701 10.3904C61.8095 18.1718 53.7853 23.496 43.9746 25.0381C41.6521 25.4022 37.8697 25.8067 33.4748 26.2162L45.4549 26.1758C53.3617 24.4314 60.7631 21.0589 66.9599 11.6494H66.9701Z"
    fill="white"
  />
<path
    d="M26.1857 60.6742C12.8377 60.745 0.020462 60.8006 0.020462 60.8006V62.9394C0.020462 62.9394 13.4451 62.8433 26.1857 62.7371V60.6742Z"
    fill="white"
  />
<path
    d="M26.1857 57.0034C12.9295 57.15 0.0153351 57.2613 0.0153351 57.2613V59.4456C0.0153351 59.4456 13.5778 59.2686 26.1857 59.0714V57.0034Z"
    fill="white"
  />
<path
    d="M26.1806 53.3225C13.0214 53.55 0.0153351 53.722 0.0153351 53.722V55.9517C0.0153351 55.9517 13.7207 55.6837 26.1806 55.3905V53.3225Z"
    fill="white"
  />
<path
    d="M26.1857 49.6214C13.1235 49.9399 0.0153351 50.1776 0.0153351 50.1776V52.4478C0.0153351 52.4478 13.879 52.0736 26.1857 51.6843V49.6163V49.6214Z"
    fill="white"
  />
<path
    d="M26.1908 45.9102C13.2256 46.3197 0.0153351 46.6433 0.0153351 46.6433V48.959C0.0153351 48.959 14.0474 48.4736 26.1908 47.9781V45.9152V45.9102Z"
    fill="white"
  />
<path
    d="M26.1857 42.1838C13.3226 42.6995 0.0153351 43.104 0.0153351 43.104V45.4602C0.0153351 45.4602 14.2209 44.8433 26.1857 44.2315V42.1787V42.1838Z"
    fill="white"
  />
<path
    d="M26.1908 38.432C13.4247 39.059 0.0102234 39.5595 0.0102234 39.5595V41.9612C0.0102234 41.9612 14.4047 41.1977 26.1908 40.4646V38.432Z"
    fill="white"
  />
<path
    d="M26.1908 34.6602C13.5216 35.4085 0.0102234 36.0203 0.0102234 36.0203V38.4624C0.0102234 38.4624 14.5987 37.5321 26.1908 36.6725V34.6602Z"
    fill="white"
  />
<path
    d="M26.1908 30.868C13.6084 31.7478 0.0102234 32.486 0.0102234 32.486V34.9737C0.0102234 34.9737 14.7926 33.8512 26.1908 32.8602V30.8731V30.868Z"
    fill="white"
  />
<path
    d="M26.1908 27.0404C13.685 28.0668 0.00511169 28.9415 0.00511169 28.9415V31.4696C0.00511169 31.4696 14.9866 30.1247 26.1908 28.9921V27.0404Z"
    fill="white"
  />
<path
    d="M86.0759 66.1906V27.5461H27.7528V66.1906H86.0759ZM84.759 28.8355V64.8962H29.0544V28.8405H84.759V28.8355Z"
    fill="white"
  />
<path d="M246.013 66.1978V27.3726H242.703V66.1978H246.013Z" fill="white" />
<path
    d="M146.616 39.2348L148.085 37.3434L151.329 33.3469C151.502 33.1537 151.66 33.0571 151.965 33.0571H153.724C153.994 33.0571 154.07 33.2503 153.897 33.4436L149.707 38.5433L154.034 45.4786C154.187 45.7277 154.055 45.8853 153.841 45.8853H152.061C151.731 45.8853 151.599 45.7481 151.441 45.5192L148.273 40.267L146.575 42.3719V45.5192C146.575 45.7328 146.499 45.8853 146.229 45.8853H144.78C144.511 45.8853 144.394 45.7684 144.394 45.5192V33.4436C144.394 33.1944 144.511 33.0571 144.78 33.0571H146.229C146.499 33.0571 146.575 33.2097 146.575 33.4436V39.2399H146.616V39.2348Z"
    fill="white"
  />
<path
    d="M159.307 46.0328C155.422 46.0328 155.173 43.1957 155.173 40.989C155.173 39.1738 155.58 36.2197 159.307 36.2197C163.034 36.2197 163.578 38.7111 163.578 40.989C163.578 43.2668 163.308 46.0328 159.307 46.0328ZM159.327 38.0756C157.685 38.0756 157.319 39.1179 157.319 41.1263C157.319 43.1347 157.685 44.177 159.307 44.177C161.066 44.177 161.412 43.1906 161.412 41.1263C161.412 39.062 161.081 38.0756 159.327 38.0756Z"
    fill="white"
  />
<path
    d="M178.959 45.8803H177.565C177.296 45.8803 177.199 45.7634 177.199 45.5142V40.0281C177.199 38.5993 176.854 38.1926 175.888 38.1926C175.171 38.1926 174.011 38.7519 173.416 39.062C173.416 39.2552 173.437 39.601 173.437 40.0484V45.5142C173.437 45.7481 173.361 45.8803 173.071 45.8803H171.662C171.413 45.8803 171.332 45.7634 171.332 45.5142V39.9315C171.332 38.7519 171.022 38.1926 170.056 38.1926C169.379 38.1926 168.296 38.6756 167.564 39.062V45.5142C167.564 45.7481 167.468 45.8803 167.198 45.8803H165.805C165.556 45.8803 165.459 45.7634 165.459 45.5142V36.7994C165.459 36.5503 165.556 36.413 165.805 36.413H167.178C167.468 36.413 167.564 36.5655 167.564 36.7994V37.3587L167.585 37.379C168.337 36.8553 169.4 36.2757 170.462 36.2401C171.581 36.2401 172.511 36.474 173.106 37.5926C174.072 36.8757 175.267 36.2401 176.508 36.2401C179.06 36.2401 179.309 37.9027 179.309 39.8349V45.5142C179.309 45.7481 179.233 45.8803 178.964 45.8803H178.959Z"
    fill="white"
  />
<path
    d="M182.746 35.0248C181.74 35.0248 181.608 34.4655 181.608 33.9062C181.608 33.2859 181.821 32.8029 182.746 32.8029C183.672 32.8029 183.885 33.2452 183.885 33.9062C183.885 34.5062 183.713 35.0248 182.746 35.0248ZM183.768 45.5141C183.768 45.7277 183.692 45.8802 183.423 45.8802H182.05C181.78 45.8802 181.663 45.7633 181.663 45.5141V36.784C181.663 36.5145 181.78 36.4179 182.05 36.4179H183.423C183.692 36.4179 183.768 36.5705 183.768 36.784V45.5141Z"
    fill="white"
  />
<path
    d="M189.336 46.0328C188.37 46.0328 187.073 45.8955 186.341 45.6057C185.955 45.4532 185.878 45.2752 185.934 44.9702L186.072 44.3346C186.128 44.0244 186.265 44.0041 186.575 44.0448C187.424 44.1821 188.66 44.2787 189.321 44.2787C190.556 44.2787 191.06 43.9482 191.06 43.1753C191.06 42.2855 190.729 42.0923 189.514 41.9195C187.622 41.65 185.96 41.2432 185.96 39.1382C185.96 37.2265 187.429 36.2197 189.59 36.2197C190.383 36.2197 191.715 36.3367 192.529 36.6468C192.859 36.7841 192.992 36.9366 192.936 37.2265L192.783 37.923C192.727 38.1925 192.61 38.2332 192.26 38.1925C191.431 38.0959 190.348 37.979 189.631 37.979C188.395 37.979 188.105 38.3247 188.105 39.062C188.105 39.7992 188.568 39.9111 189.748 40.1043C191.583 40.3738 193.246 40.7399 193.246 43.0431C193.246 45.3464 191.334 46.0379 189.346 46.0379L189.336 46.0328Z"
    fill="white"
  />
<path
    d="M197.7 46.0938C197.7 48.6055 196.637 50.0139 193.393 49.897C193.256 49.897 192.987 49.8207 192.966 49.5105L192.89 48.6004C192.849 48.2903 192.931 48.2343 193.2 48.1733C195.015 47.8072 195.575 47.6344 195.575 46.1243V36.7739C195.575 36.5044 195.692 36.4078 195.961 36.4078H197.313C197.603 36.4078 197.7 36.5603 197.7 36.7739V46.0836V46.0938ZM196.637 35.0248C195.631 35.0248 195.498 34.4655 195.498 33.9062C195.498 33.2859 195.732 32.8029 196.637 32.8029C197.542 32.8029 197.776 33.2452 197.776 33.9062C197.776 34.5062 197.603 35.0248 196.637 35.0248Z"
    fill="white"
  />
<path
    d="M206.084 44.7767C205.118 45.5089 203.822 46.0326 202.53 46.0326C200.481 46.0326 199.881 44.914 199.881 43.2921C199.861 41.0295 201.081 40.0634 203.512 40.0634H205.983V39.56C205.983 38.4008 205.556 37.994 203.974 37.994C203.339 37.994 202.119 38.0906 201.346 38.1669C200.959 38.2228 200.863 38.2076 200.807 37.933L200.634 37.2161C200.593 36.9669 200.654 36.8093 201.076 36.6365C201.905 36.3466 203.435 36.2094 204.34 36.2094C207.681 36.2094 208.088 37.5822 208.088 39.7431V43.47C208.088 44.2632 208.184 44.2835 208.784 44.3598C209.074 44.3801 209.15 44.4361 209.15 44.6496V45.4631C209.15 45.6767 209.013 45.8089 208.688 45.8699C208.378 45.9258 208.067 45.9665 207.778 45.9665C206.867 45.9665 206.308 45.697 206.115 44.7869L206.074 44.7666L206.084 44.7767ZM205.968 41.5684H203.608C202.642 41.5684 202.022 41.9142 202.022 43.1904C202.022 44.0395 202.312 44.309 203.222 44.309C204.051 44.309 205.23 43.8259 205.968 43.3988V41.5633V41.5684Z"
    fill="white"
  />
<path
    d="M144.404 53.7766C144.404 53.5274 144.521 53.3901 144.791 53.3901H151.899C152.133 53.3901 152.265 53.5274 152.265 53.7562V54.9562C152.265 55.1901 152.168 55.3019 151.879 55.3019H146.606V58.6272H151.279C151.528 58.6272 151.665 58.7441 151.665 58.9729V60.1729C151.665 60.4068 151.568 60.5186 151.279 60.5186H146.606V64.3218H152.016C152.25 64.3218 152.362 64.4388 152.362 64.6879V65.8675C152.362 66.1167 152.265 66.2133 151.995 66.2133H144.791C144.521 66.2133 144.404 66.0963 144.404 65.8675V53.7715V53.7766Z"
    fill="white"
  />
<path
    d="M162.103 66.2182H160.731C160.441 66.2182 160.364 66.0809 160.364 65.8521V65.2521L160.324 65.2318C159.571 65.7555 158.254 66.3911 157.08 66.3911C154.471 66.3911 154.222 64.8454 154.222 62.8167V57.1373C154.222 56.9034 154.319 56.7509 154.588 56.7509H155.997C156.246 56.7509 156.343 56.8881 156.343 57.1373V62.5675C156.343 63.7268 156.576 64.459 157.751 64.459C158.58 64.459 159.856 63.8387 160.359 63.5895V57.1373C160.359 56.9034 160.436 56.7509 160.725 56.7509H162.098C162.368 56.7509 162.464 56.8881 162.464 57.1373V65.8521C162.464 66.1013 162.368 66.2182 162.098 66.2182H162.103Z"
    fill="white"
  />
<path
    d="M167.01 65.8522C167.01 66.0861 166.914 66.2183 166.644 66.2183H165.251C164.981 66.2183 164.885 66.1013 164.885 65.8522V57.1373C164.885 56.8882 164.981 56.7509 165.251 56.7509H166.624C166.914 56.7509 167.01 56.9035 167.01 57.1373V57.9865L167.051 58.0271C167.63 57.4882 169.003 56.8272 169.908 56.6543C170.157 56.5984 170.335 56.6543 170.371 56.9848L170.508 58.2814C170.529 58.5508 170.549 58.6678 170.142 58.7441C169.059 58.9576 167.686 59.344 167.01 59.6338V65.8522Z"
    fill="white"
  />
<path
    d="M175.511 66.3708C171.627 66.3708 171.377 63.5337 171.377 61.327C171.377 59.5118 171.784 56.5577 175.511 56.5577C179.238 56.5577 179.782 59.0491 179.782 61.327C179.782 63.6049 179.513 66.3708 175.511 66.3708ZM175.531 58.4136C173.889 58.4136 173.523 59.4559 173.523 61.4643C173.523 63.4727 173.889 64.515 175.511 64.515C177.27 64.515 177.616 63.5286 177.616 61.4643C177.616 59.4 177.286 58.4136 175.531 58.4136Z"
    fill="white"
  />
<path
    d="M186.179 66.3912C185.543 66.3912 184.653 66.2742 183.764 65.964L183.743 65.9844V69.3859C183.743 69.5995 183.687 69.7723 183.377 69.7723H182.004C181.694 69.7723 181.638 69.6351 181.638 69.3859V57.1373C181.638 56.8882 181.735 56.7509 182.004 56.7509H183.377C183.647 56.7509 183.723 56.9035 183.723 57.1373V57.717L183.779 57.7577C184.475 57.2746 185.711 56.5984 186.829 56.5984C189.362 56.5984 190.017 58.5102 190.017 61.4287C190.017 64.576 189.224 66.3912 186.174 66.3912H186.179ZM186.331 58.5305C185.538 58.5305 184.323 59.0898 183.743 59.4V64.2302C184.613 64.4794 185.309 64.5607 185.965 64.5607C187.358 64.5607 187.841 63.8438 187.841 61.4134C187.841 58.983 187.358 58.5356 186.336 58.5356L186.331 58.5305Z"
    fill="white"
  />
<path
    d="M193.729 62.0643C193.785 64.0167 194.482 64.5557 196.068 64.5557C196.765 64.5557 197.848 64.4184 198.58 64.3422C198.925 64.3015 199.042 64.3015 199.103 64.6726L199.22 65.3082C199.276 65.598 199.241 65.7506 198.89 65.9082C198.137 66.198 196.729 66.3912 195.778 66.3912C192.087 66.3912 191.548 64.0371 191.548 61.5253C191.548 59.6492 191.894 56.5629 195.661 56.5629C199.119 56.5629 199.739 58.8051 199.795 60.8898C199.815 61.5864 199.622 62.0694 198.849 62.0694H193.729V62.0643ZM193.749 60.6152H197.573C197.573 59.4356 197.263 58.2967 195.661 58.2967C194.232 58.2967 193.846 59.1661 193.749 60.6152Z"
    fill="white"
  />
<path
    d="M204.223 66.4318C204.223 68.9435 203.161 70.3519 199.917 70.235C199.78 70.235 199.51 70.1587 199.49 69.8485L199.414 68.9384C199.373 68.6283 199.454 68.5723 199.724 68.5113C201.539 68.1452 202.098 67.9724 202.098 66.4623V57.1119C202.098 56.8424 202.215 56.7458 202.485 56.7458H203.837C204.127 56.7458 204.223 56.8983 204.223 57.1119V66.4216V66.4318ZM203.161 55.3628C202.154 55.3628 202.022 54.8035 202.022 54.2442C202.022 53.6239 202.256 53.1409 203.161 53.1409C204.066 53.1409 204.3 53.5832 204.3 54.2442C204.3 54.8442 204.127 55.3628 203.161 55.3628Z"
    fill="white"
  />
<path
    d="M209.806 66.3708C208.84 66.3708 207.544 66.2336 206.811 65.9437C206.425 65.7912 206.349 65.6132 206.405 65.3082L206.542 64.6726C206.598 64.3625 206.735 64.3421 207.045 64.3828C207.894 64.5201 209.13 64.6167 209.791 64.6167C211.026 64.6167 211.53 64.2862 211.53 63.5133C211.53 62.6236 211.199 62.4303 209.984 62.2575C208.093 61.988 206.43 61.5812 206.43 59.4762C206.43 57.5645 207.9 56.5577 210.06 56.5577C210.854 56.5577 212.186 56.6747 212.999 56.9848C213.33 57.1221 213.462 57.2747 213.406 57.5645L213.254 58.2611C213.198 58.5305 213.081 58.5712 212.73 58.5305C211.901 58.4339 210.818 58.317 210.101 58.317C208.866 58.317 208.576 58.6627 208.576 59.4C208.576 60.1372 209.038 60.2491 210.218 60.4423C212.054 60.7118 213.716 61.0779 213.716 63.3812C213.716 65.6844 211.804 66.3759 209.816 66.3759L209.806 66.3708Z"
    fill="white"
  />
<path
    d="M217.708 60.2491L219.197 58.6831L220.799 57.0611C220.992 56.8679 221.129 56.7306 221.496 56.7306H223.041C223.407 56.7306 223.468 56.9442 223.255 57.173L220.163 60.3203L223.641 65.7658C223.778 65.9997 223.662 66.2081 223.392 66.2081H221.902C221.496 66.2081 221.363 66.0708 221.226 65.842L218.755 61.8812L217.652 62.9998V65.837C217.652 66.0505 217.575 66.203 217.286 66.203H215.913C215.643 66.203 215.547 66.0861 215.547 65.837V52.9528C215.547 52.7037 215.643 52.5664 215.913 52.5664H217.286C217.575 52.5664 217.652 52.7189 217.652 52.9528V60.2186L217.708 60.2389V60.2491Z"
    fill="white"
  />
<path
    d="M230.805 65.115C229.839 65.8472 228.543 66.3709 227.251 66.3709C225.202 66.3709 224.602 65.2523 224.602 63.6303C224.582 61.3677 225.802 60.4017 228.233 60.4017H230.704V59.8983C230.704 58.739 230.277 58.3323 228.695 58.3323C228.06 58.3323 226.839 58.4289 226.067 58.5051C225.68 58.5611 225.584 58.5458 225.528 58.2713L225.355 57.5543C225.314 57.3052 225.375 57.1476 225.797 56.9747C226.626 56.6849 228.156 56.5476 229.061 56.5476C232.402 56.5476 232.809 57.9204 232.809 60.0813V63.8083C232.809 64.6015 232.905 64.6218 233.505 64.6981C233.795 64.7184 233.871 64.7743 233.871 64.9879V65.8014C233.871 66.015 233.734 66.1472 233.409 66.2082C233.098 66.2641 232.788 66.3048 232.498 66.3048C231.588 66.3048 231.029 66.0353 230.836 65.1252L230.795 65.1048L230.805 65.115ZM230.688 61.9067H228.329C227.363 61.9067 226.743 62.2524 226.743 63.5286C226.743 64.3777 227.033 64.6472 227.943 64.6472C228.772 64.6472 229.951 64.1642 230.688 63.7371V61.9016V61.9067Z"
    fill="white"
  />
</svg>
