<svg
  width="291"
  height="72"
  viewBox="0 0 291 72"
  fill="none"
  xmlns="http://www.w3.org/2000/svg"
>
<path
    d="M158.912 42.2553H161.664C161.449 43.6743 161.105 45.1793 160.761 46.2113L161.944 46.8348C162.546 45.3728 163.083 43.0723 163.406 41.0943L162.352 40.6858L162.073 40.7718H156.375C156.633 39.6108 156.848 38.4068 157.042 37.1813L155.429 36.9448C154.999 40.3633 154.204 43.7173 152.806 45.8458C153.193 46.0608 153.86 46.5768 154.139 46.8563C154.892 45.6093 155.494 44.0183 155.988 42.2553H157.364V45.2868C157.386 46.7488 156.87 50.7263 154.01 53.6288V52.4463H146.442V39.8258H153.817V38.3423H144.894V55.5423H146.442V53.9298H153.709C153.193 54.4028 152.613 54.8328 151.968 55.2198C152.247 55.5208 152.72 56.1658 152.892 56.5098C156.569 54.2523 157.88 50.3178 158.138 48.5118C158.375 50.2533 159.579 54.3598 162.761 56.4883C162.976 56.1228 163.47 55.4778 163.75 55.1338C159.6 52.4463 158.891 46.9853 158.912 45.2868V42.2553ZM151.151 40.4708C150.85 41.9758 150.463 43.4163 149.99 44.7708C149.194 43.9108 148.356 43.0938 147.56 42.3628L146.614 43.3518C147.539 44.2118 148.528 45.2438 149.431 46.2758C148.678 48.0388 147.754 49.5868 146.657 50.7908C146.98 51.0273 147.603 51.5218 147.861 51.7798C148.872 50.5973 149.732 49.1568 150.463 47.5228C151.323 48.5763 152.032 49.6083 152.484 50.4468L153.537 49.2858C153 48.3398 152.118 47.1788 151.108 45.9963C151.71 44.3623 152.226 42.5778 152.613 40.7288L151.151 40.4708Z"
    fill="white"
  />
<path
    d="M182.175 38.9228V40.8148H177.123V38.9228H182.175ZM177.015 43.9538C177.101 43.3088 177.123 42.6638 177.123 42.0833V42.0188H182.175V43.9538H177.015ZM182.175 45.1363V46.9638C182.175 47.2218 182.089 47.3078 181.788 47.3293C181.487 47.3293 180.455 47.3508 179.337 47.3078C179.552 47.6948 179.832 48.2538 179.939 48.6838C181.38 48.6838 182.369 48.6623 182.971 48.4258C183.551 48.1893 183.745 47.7808 183.745 46.9638V37.6328H175.661V42.0618C175.661 43.9753 175.381 46.2543 173.231 47.9098C173.554 48.1033 174.134 48.6408 174.349 48.9633C175.704 47.9098 176.413 46.5338 176.779 45.1363H182.175ZM172.135 39.2453V41.5458H168.243V39.2453H172.135ZM168.243 45.0718V42.7928H172.135V45.0718H168.243ZM168.243 46.3618H173.597V37.9338H166.781V47.5228H168.243V46.3618ZM169.555 50.6403H172.393V54.5533H169.555V50.6403ZM176.714 50.6403V54.5533H173.876V50.6403H176.714ZM181.1 50.6403V54.5533H178.198V50.6403H181.1ZM182.648 54.5533V49.3288H168.05V54.5533H165.556V55.9723H185.035V54.5533H182.648Z"
    fill="white"
  />
<path
    d="M200.902 49.9738C200.149 51.1993 199.139 52.1668 197.849 52.8978C196.236 52.5108 194.538 52.1238 192.882 51.7798C193.355 51.2638 193.85 50.6188 194.344 49.9738H200.902ZM202.127 47.0498C201.977 47.5873 201.805 48.1033 201.59 48.5763H195.355C195.699 48.0388 196.043 47.5013 196.344 46.9853H197.569V42.7283H206.255V41.3523H197.569V39.0733C200.02 38.8583 202.299 38.5358 204.105 38.1273L202.923 36.9878C199.762 37.7188 193.764 38.1488 188.862 38.2778C189.012 38.6218 189.184 39.1808 189.206 39.5463C191.356 39.4818 193.721 39.3743 196 39.2023V41.3523H187.378V42.7283H194.129C192.237 44.3193 189.442 45.7168 186.927 46.4048C187.228 46.7058 187.679 47.2863 187.916 47.6518C190.775 46.7488 194 44.9213 196 42.7928V46.6198L194.86 46.3188C194.473 47.0498 194 47.8238 193.463 48.5763H187.142V49.9738H192.431C191.7 50.9413 190.926 51.8443 190.216 52.5538C192.173 52.9408 194.043 53.3708 195.806 53.8008C193.742 54.5318 191.141 54.9188 187.83 55.1123C188.088 55.4993 188.324 56.0798 188.453 56.5528C192.624 56.2518 195.806 55.6283 198.193 54.4243C200.837 55.1123 203.138 55.8433 204.836 56.5098L206.298 55.3488C204.578 54.7253 202.321 54.0588 199.848 53.4138C201.074 52.5108 202.02 51.3928 202.729 49.9738H206.513V48.5763H203.331C203.439 48.2108 203.568 47.8453 203.675 47.4583L202.127 47.0498ZM198.236 43.7818C200.88 44.8568 204.363 46.4693 206.105 47.4798L206.879 46.3188C205.051 45.2868 201.568 43.7818 199.01 42.7713L198.236 43.7818Z"
    fill="white"
  />
<path
    d="M213.307 39.2668H223.348V41.6963H213.307V39.2668ZM211.63 37.8478V43.1153H225.111V37.8478H211.63ZM217.349 47.9098V49.8878C217.349 51.6078 216.726 53.9083 208.964 55.4133C209.351 55.7573 209.824 56.4023 210.018 56.7463C218.08 54.9618 219.069 52.1883 219.069 49.9308V47.9098H217.349ZM218.94 53.5643C221.563 54.4458 225.089 55.8433 226.874 56.7463L227.691 55.3918C225.82 54.4888 222.294 53.1988 219.736 52.3818L218.94 53.5643ZM210.878 45.0503V52.9623H212.533V46.5553H224.229V52.8118H225.949V45.0503H210.878Z"
    fill="white"
  />
<path
    d="M231.066 49.2428H237.172C235.775 51.1563 234.162 52.8548 233.56 53.3493C232.915 53.9728 232.421 54.3813 231.969 54.4673C232.141 54.9403 232.399 55.7788 232.507 56.1228C233.302 55.8218 234.506 55.7358 245.837 54.7898C246.31 55.4348 246.74 56.0583 247.041 56.5743L248.46 55.6928C247.514 54.0803 245.493 51.8013 243.579 50.0813L242.225 50.8123C243.042 51.5648 243.945 52.4893 244.719 53.3923L234.958 54.1233C236.506 52.7258 238.011 51.0058 239.344 49.2428H248.718V47.6948H231.066V49.2428ZM239.903 36.9663C237.989 39.8473 234.227 42.5348 230.056 44.2978C230.421 44.6203 230.98 45.2653 231.217 45.6738C232.464 45.1148 233.646 44.4698 234.764 43.7603V45.0718H244.977V43.5883H235.044C236.893 42.4058 238.548 41.0298 239.881 39.5678C241.902 41.6533 245.256 44.1043 248.589 45.4588C248.847 45.0073 249.341 44.3623 249.707 44.0398C246.245 42.8573 242.762 40.4923 240.806 38.4928C240.999 38.2133 241.214 37.9123 241.429 37.6328L239.903 36.9663Z"
    fill="white"
  />
<path
    fill-rule="evenodd"
    clip-rule="evenodd"
    d="M256.312 66.1956H259.612V27.4956H256.312V66.1956Z"
    fill="white"
  />
<path
    d="M29.5595 64.8961H85.2641L85.259 28.8354L29.5544 28.8405L29.5595 64.8961Z"
    fill="#003399"
  />
<path
    d="M57.9401 33.3809H59.9717L58.3332 34.6449L58.9712 36.6472L57.3429 35.4135L55.7146 36.6472L56.3526 34.6449L54.7039 33.3809H56.7304L57.3429 31.4292L57.9401 33.3809Z"
    fill="#FFED00"
  />
<path
    d="M58.0116 59.1573H60.0432L58.4097 60.3759L59.0427 62.3023L57.4144 61.1141L55.7861 62.3023L56.4292 60.3759L54.7754 59.1573H56.8018L57.4144 57.2815L58.0116 59.1573Z"
    fill="#FFED00"
  />
<path
    d="M64.4482 57.4534H66.4849L64.8464 58.6669L65.4844 60.5933L63.851 59.4051L62.2227 60.5933L62.8659 58.6669L61.212 57.4534H63.2385L63.851 55.5725L64.4482 57.4534Z"
    fill="#FFED00"
  />
<path
    d="M64.4482 35.1H66.4849L64.8464 36.3185L65.4844 38.2449L63.851 37.0567L62.2227 38.2449L62.8659 36.3185L61.212 35.1H63.2385L63.851 33.2241L64.4482 35.1Z"
    fill="#FFED00"
  />
<path
    d="M69.2311 39.8377H71.2576L69.6242 41.0512L70.2571 42.9776L68.6288 41.7894L67.0005 42.9776L67.6436 41.0512L65.9898 39.8377H68.0163L68.6288 37.9568L69.2311 39.8377Z"
    fill="#FFED00"
  />
<path
    d="M69.2311 52.7814H71.2576L69.6242 53.9999L70.2571 55.9263L68.6288 54.7381L67.0005 55.9263L67.6436 53.9999L65.9898 52.7814H68.0163L68.6288 50.9055L69.2311 52.7814Z"
    fill="#FFED00"
  />
<path
    d="M71.0177 46.2084H73.0544L71.4158 47.4269L72.0488 49.3533L70.4205 48.1651L68.7922 49.3533L69.4353 47.4269L67.7815 46.2084H69.8079L70.4205 44.3325L71.0177 46.2084Z"
    fill="#FFED00"
  />
<path
    d="M51.3809 35.1202H53.4074L51.774 36.3336L52.4069 38.26L50.7786 37.0718L49.1503 38.26L49.7934 36.3336L48.1447 35.1202H50.1661L50.7786 33.2393L51.3809 35.1202Z"
    fill="#FFED00"
  />
<path
    d="M46.7308 39.8528H48.7675L47.129 41.0663L47.7619 42.9927L46.1336 41.8045L44.5053 42.9927L45.1485 41.0663L43.4946 39.8528H45.5211L46.1336 37.9719L46.7308 39.8528Z"
    fill="#FFED00"
  />
<path
    d="M45.0055 46.2286H47.0371L45.4037 47.442L46.0366 49.3685L44.4083 48.1853L42.78 49.3685L43.4231 47.442L41.7744 46.2286H43.7958L44.4083 44.3477L45.0055 46.2286Z"
    fill="#FFED00"
  />
<path
    d="M46.7308 52.7965H48.7675L47.129 54.015L47.7619 55.9414L46.1336 54.7532L44.5053 55.9414L45.1485 54.015L43.4946 52.7965H45.5211L46.1336 50.9207L46.7308 52.7965Z"
    fill="#FFED00"
  />
<path
    d="M51.4473 57.4685H53.4737L51.8403 58.682L52.4733 60.6084L50.8449 59.4202L49.2166 60.6084L49.8598 58.682L48.2111 57.4685H50.2324L50.8449 55.5876L51.4473 57.4685Z"
    fill="#FFED00"
  />
<path
    d="M95.4373 0.00505726C95.4373 0.00505726 107.417 18.9101 109.612 22.3736C111.802 25.8371 114.308 28.5826 123.175 30.4433C132.041 32.304 135.9 33.1837 135.9 33.1837V33.8562C135.9 33.8562 130.265 32.668 123.016 31.0652C115.768 29.4624 112.803 28.9214 109.5 24.3657C106.749 20.5736 95.4373 3.61517 95.4373 3.61517V0V0.00505726Z"
    fill="white"
  />
<path
    d="M95.4373 21.5949C95.4373 21.5949 106.345 32.9157 109.5 36.1668C112.848 39.6151 117.131 40.8893 123.073 41.941C128.744 42.9421 135.895 44.1 135.895 44.1V44.7371C135.895 44.7371 129.178 43.6449 123.073 42.6135C117.085 41.5972 112.894 41.0309 109.464 37.9011C106.391 35.1 95.4373 24.9219 95.4373 24.9219V21.5898V21.5949Z"
    fill="white"
  />
<path
    d="M95.4373 26.6967C95.4373 26.6967 105.809 36.2377 109.5 39.499C112.894 42.4973 115.646 43.4327 123.108 44.7422C130.571 46.0518 135.895 46.8658 135.895 46.8658V47.5383C135.895 47.5383 129.142 46.4411 123.073 45.4804C117.003 44.5248 113.134 44.1456 109.5 41.2282C105.309 37.8608 95.4373 29.8113 95.4373 29.8113V26.6917V26.6967Z"
    fill="white"
  />
<path
    d="M95.4373 32.1321C95.4373 32.1321 107.285 41.4456 109.5 43.0737C111.715 44.7018 114.645 46.6029 123.144 47.8214C131.571 49.0298 135.895 49.6265 135.895 49.6265V50.3343C135.895 50.3343 128.254 49.2371 123.144 48.6001C118.035 47.963 114.119 47.69 109.536 44.6664C105.074 41.7237 95.4373 35.004 95.4373 35.004V32.1321Z"
    fill="white"
  />
<path
    d="M95.4373 37.3601C95.4373 37.3601 107.32 45.1972 109.571 46.441C111.822 47.6798 114.467 49.7022 123.144 50.7994C131.822 51.8966 135.895 52.3921 135.895 52.3921V53.0646C135.895 53.0646 128.718 52.286 123.108 51.6843C117.504 51.0826 113.68 50.2685 109.5 47.9983C105.319 45.7331 95.4373 40.0095 95.4373 40.0095V37.3601Z"
    fill="white"
  />
<path
    d="M95.4373 42.5883C95.4373 42.5883 105.942 48.2512 109.5 50.0158C113.466 51.9878 116.896 52.9333 123.108 53.6664C129.208 54.3844 135.895 55.0821 135.895 55.0821V55.7192C135.895 55.7192 129.713 55.0619 123.108 54.4451C116.559 53.8282 114.227 53.5451 109.5 51.467C105.273 49.6063 95.4373 45.0658 95.4373 45.0658V42.5833V42.5883Z"
    fill="white"
  />
<path
    d="M95.4373 47.8872C95.4373 47.8872 103.737 51.4063 109.571 53.7018C115.309 55.9569 119.693 56.149 123.18 56.5383C124.716 56.7102 135.895 57.8479 135.895 57.8479V58.485C135.895 58.485 129.218 57.9541 123.144 57.4232C117.07 56.8923 114.451 56.6647 109.536 55.0518C104.559 53.4136 95.4373 50.2636 95.4373 50.2636V47.8923V47.8872Z"
    fill="white"
  />
<path
    d="M95.4373 53.2922C95.4373 53.2922 103.819 55.8658 109.536 57.3524C115.253 58.8389 120.5 59.4456 123.144 59.6175C125.788 59.7945 135.9 60.6085 135.9 60.6085V61.2102C135.9 61.2102 130.147 60.8209 123.108 60.3254C117.417 59.9259 112.848 59.5012 109.5 58.7681C105.794 57.9591 95.4373 55.522 95.4373 55.522V53.2922Z"
    fill="white"
  />
<path
    d="M95.4373 58.6062C95.4373 58.6062 102.292 59.7792 109.536 60.9674C114.967 61.8573 122.322 62.4186 123.108 62.454C123.894 62.4893 135.895 63.3034 135.895 63.3034V63.9405C135.895 63.9405 128.213 63.5461 123.108 63.268C117.79 62.9747 112.501 62.6562 109.5 62.3478C102.772 61.6551 95.4373 60.7349 95.4373 60.7349V58.6062Z"
    fill="white"
  />
<path
    d="M95.4373 64.1074C95.4373 64.1074 106.248 64.5119 109.536 64.5827C112.823 64.6535 135.895 65.5737 135.895 65.5737V66.1956H95.4373V64.1074Z"
    fill="white"
  />
<path
    d="M123.103 33.3656C113.318 31.2774 111.103 27.733 109.459 25.5387C107.815 23.3392 95.4321 5.41504 95.4321 5.41504V8.71167C95.9222 9.34369 106.519 23.8347 109.495 27.6269C112.848 31.8993 118.101 32.8701 123.103 33.9319C128.1 34.9937 135.895 36.4752 135.895 36.4752V35.9089C135.895 35.9089 125.635 33.9016 123.103 33.3656Z"
    fill="white"
  />
<path
    d="M123.103 36.2022C115.069 34.6449 111.817 32.127 109.459 29.0831C107.101 26.0343 95.4321 10.446 95.4321 10.446V14.2786C95.9222 14.85 106.596 27.7534 109.459 30.9994C112.797 34.7865 117.458 35.7826 123.103 36.809C128.749 37.8354 135.89 39.1803 135.89 39.1803V38.614C135.89 38.614 127.738 37.1022 123.103 36.2073V36.2022Z"
    fill="white"
  />
<path
    d="M123.103 39.1399C114.747 37.5321 113.032 36.2124 109.495 32.3748C107.269 29.963 95.9119 16.6804 95.4321 16.1191V19.6585C95.4321 19.6585 106.044 30.8731 109.459 34.1849C113.936 38.5332 118.137 38.8619 123.103 39.7467C128.07 40.6315 135.89 42.0473 135.89 42.0473V41.4456C135.89 41.4456 126.447 39.7871 123.103 39.145V39.1399Z"
    fill="white"
  />
<path
    d="M0.505106 27.7788C0.505106 27.7788 28.1711 24.8563 35.9196 23.7793C48.1702 22.0805 58.1953 20.2703 67.4701 6.18887C67.4701 6.18887 67.4803 5.38999 67.4701 5.03101C61.7889 13.5911 53.9536 19.431 43.1628 21.1248C32.6222 22.7833 0.5 25.2052 0.5 25.2052V27.7788H0.505106Z"
    fill="white"
  />
<path
    d="M0.505127 24.2849C0.505127 24.2849 26.1447 21.1046 34.5925 19.9315C47.9559 18.081 57.3531 16.4175 67.4701 1.05681C67.4701 1.05681 67.4752 0.394453 67.4701 0.00512695C61.2733 9.3439 53.6218 15.3759 41.851 17.2265C30.3507 19.0366 0.505127 21.6759 0.505127 21.6759V24.29V24.2849Z"
    fill="white"
  />
<path d="M26.6806 64.1326H0.520447V66.1854H26.6806V64.1326Z" fill="white" />
<path
    d="M67.4701 22.5708C67.4701 22.5708 67.4854 21.3624 67.4803 21.1045C66.2501 22.9601 64.632 24.6438 62.7638 26.1253H64.5963C65.6274 25.0736 66.5921 23.8955 67.465 22.5708H67.4701Z"
    fill="white"
  />
<path
    d="M67.4701 17.11C67.4701 17.11 67.4803 16.0381 67.4752 15.7449C64.5095 20.2145 60.0942 23.7842 54.9897 26.1505L58.0014 26.1404C61.4826 24.1331 64.7188 21.2814 67.465 17.11H67.4701Z"
    fill="white"
  />
<path
    d="M67.4701 11.6494C67.4701 11.6494 67.4803 10.714 67.4701 10.3904C62.3095 18.1718 54.2854 23.496 44.4747 25.0381C42.1521 25.4022 38.3698 25.8067 33.9749 26.2162L45.9549 26.1758C53.8617 24.4314 61.2631 21.0589 67.4599 11.6494H67.4701Z"
    fill="white"
  />
<path
    d="M26.6857 60.6743C13.3377 60.7451 0.520447 60.8007 0.520447 60.8007V62.9395C0.520447 62.9395 13.9451 62.8434 26.6857 62.7372V60.6743Z"
    fill="white"
  />
<path
    d="M26.6857 57.0034C13.4295 57.15 0.51532 57.2613 0.51532 57.2613V59.4456C0.51532 59.4456 14.0778 59.2686 26.6857 59.0714V57.0034Z"
    fill="white"
  />
<path
    d="M26.6806 53.3225C13.5214 53.55 0.51532 53.722 0.51532 53.722V55.9517C0.51532 55.9517 14.2207 55.6837 26.6806 55.3905V53.3225Z"
    fill="white"
  />
<path
    d="M26.6857 49.6213C13.6235 49.9398 0.51532 50.1774 0.51532 50.1774V52.4477C0.51532 52.4477 14.3789 52.0735 26.6857 51.6842V49.6162V49.6213Z"
    fill="white"
  />
<path
    d="M26.6908 45.9102C13.7256 46.3197 0.51532 46.6433 0.51532 46.6433V48.959C0.51532 48.959 14.5474 48.4736 26.6908 47.9781V45.9152V45.9102Z"
    fill="white"
  />
<path
    d="M26.6857 42.1838C13.8226 42.6995 0.51532 43.104 0.51532 43.104V45.4602C0.51532 45.4602 14.7209 44.8433 26.6857 44.2315V42.1787V42.1838Z"
    fill="white"
  />
<path
    d="M26.6909 38.4321C13.9247 39.0591 0.510254 39.5597 0.510254 39.5597V41.9613C0.510254 41.9613 14.9047 41.1979 26.6909 40.4647V38.4321Z"
    fill="white"
  />
<path
    d="M26.6909 34.6602C14.0217 35.4085 0.510254 36.0203 0.510254 36.0203V38.4624C0.510254 38.4624 15.0987 37.5321 26.6909 36.6725V34.6602Z"
    fill="white"
  />
<path
    d="M26.6909 30.8679C14.1084 31.7477 0.510254 32.4859 0.510254 32.4859V34.9735C0.510254 34.9735 15.2927 33.8511 26.6909 32.8601V30.873V30.8679Z"
    fill="white"
  />
<path
    d="M26.6908 27.0405C14.185 28.0669 0.505127 28.9416 0.505127 28.9416V31.4697C0.505127 31.4697 15.4866 30.1248 26.6908 28.9922V27.0405Z"
    fill="white"
  />
<path
    d="M86.5759 66.1906V27.5461H28.2527V66.1906H86.5759ZM85.259 28.8355V64.8962H29.5544V28.8405H85.259V28.8355Z"
    fill="white"
  />
</svg>
