<svg width="290" height="72" viewBox="0 0 290 72" fill="none" xmlns="http://www.w3.org/2000/svg">
<path fill-rule="evenodd" clip-rule="evenodd" d="M0 24.5C0 24.5 39.8 19.3 41 19.1C42.7 18.8 44.3 18.5 45.7 18.1C48.9 17.2 51.9 15.9 54.5 14.1C57 12.4 59.4 9.9 61.7 7.2C63.2 5.5 64.7 3.2 66.2 1V0C64.5 2.6 62.8 4.8 61.1 6.7C58.8 9.3 56.4 11.4 53.9 13C51.4 14.6 48.5 15.9 45.4 16.7C44 17.1 42.5 17.3 40.8 17.6C39.7 17.8 38.6 17.9 37.5 18C37 18 0 21.9 0 21.9V24.5Z" fill="white"/>
<mask id="mask0_601_8007" style="mask-type:alpha" maskUnits="userSpaceOnUse" x="0" y="5" width="67" height="23">
<path fill-rule="evenodd" clip-rule="evenodd" d="M0 5.19971H66.0999V27.9997H0V5.19971Z" fill="white"/>
</mask>
<g mask="url(#mask0_601_8007)">
<path fill-rule="evenodd" clip-rule="evenodd" d="M53.3999 17.7997C50.8999 19.1997 47.9999 20.2997 44.7999 20.8997C43.3999 21.1997 41.9999 21.3997 40.2999 21.5997C39.2999 21.6997 38.2999 21.7997 37.2999 21.8997C36.7999 21.8997 36.1999 21.9997 35.6999 21.9997C23.4999 23.1997 11.3999 24.2997 -0.00012207 25.3997V27.9997C11.3999 26.5997 23.6999 25.0997 35.8999 23.6997C36.3999 23.5997 36.9999 23.5997 37.4999 23.4997C38.4999 23.3997 39.4999 23.2997 40.4999 23.0997C42.1999 22.8997 43.7999 22.5997 45.0999 22.2997C48.3999 21.5997 51.3999 20.3997 53.9999 18.7997C56.5999 17.1997 58.7999 15.0997 61.2999 12.3997C62.7999 10.6997 64.4999 8.39971 66.0999 6.19971V5.19971C64.1999 7.69971 62.4999 9.89971 60.6999 11.6997C58.2999 14.3997 55.8999 16.3997 53.3999 17.7997Z" fill="white"/>
</g>
<mask id="mask1_601_8007" style="mask-type:alpha" maskUnits="userSpaceOnUse" x="0" y="10" width="67" height="22">
<path fill-rule="evenodd" clip-rule="evenodd" d="M0 10.9001H66.0999V31.5001H0V10.9001Z" fill="white"/>
</mask>
<g mask="url(#mask1_601_8007)">
<path fill-rule="evenodd" clip-rule="evenodd" d="M60.3999 17.2001C57.9999 19.4001 55.3999 21.2001 52.8999 22.5001C50.3999 23.7001 47.5999 24.6001 44.2999 25.1001C42.8999 25.3001 41.4999 25.5001 39.7999 25.7001L-0.00012207 28.9001V31.5001L35.2999 27.7001L39.8999 27.2001C41.5999 27.0001 43.0999 26.8001 44.4999 26.5001C47.8999 25.9001 50.7999 24.9001 53.3999 23.6001C56.0999 22.2001 58.6999 20.0001 61.1999 17.6001C62.8999 16.0001 64.3999 13.9001 66.0999 11.8001V10.9001C64.0999 13.4001 62.2999 15.4001 60.3999 17.2001Z" fill="white"/>
</g>
<mask id="mask2_601_8007" style="mask-type:alpha" maskUnits="userSpaceOnUse" x="0" y="21" width="67" height="18">
<path fill-rule="evenodd" clip-rule="evenodd" d="M0 21.7H66.1998V38.5H0V21.7Z" fill="white"/>
</mask>
<g mask="url(#mask2_601_8007)">
<path fill-rule="evenodd" clip-rule="evenodd" d="M50.7998 30.6C48.4998 31.9 46.7998 32.7 43.4998 33C41.4998 33.2 39.4998 33.3 37.4998 33.4C36.4998 33.4 35.5998 33.5 34.5998 33.6C28.5998 33.9 22.6998 34.3 16.6998 34.7L-0.000244141 35.9V38.5L16.7998 36.9C22.1998 36.4 28.4998 35.8 34.6998 35.3L39.1998 35C40.8998 34.9 42.3998 34.7 43.6998 34.5C47.0998 34.1 49.9998 33.4 52.5998 32.4C55.3998 31.4 57.9998 29.7 60.5998 27.8C62.9998 26.1 66.1998 22.7 66.1998 22.6V21.7C64.0998 23.8 62.7998 25 60.4998 26.5C57.5998 28.5 52.8998 29.5 50.7998 30.6Z" fill="white"/>
</g>
<path fill-rule="evenodd" clip-rule="evenodd" d="M51.6001 35.6001C49.1001 36.3001 46.3001 36.8001 43.0001 37.1001C41.7001 37.2001 40.2001 37.3001 38.6001 37.4001L34.2001 37.6001C23.2001 38.1001 12.2001 38.7001 0.100098 39.3001V41.9001C11.7001 41.0001 23.0001 40.1001 34.4001 39.3001L38.8001 39.0001C40.5001 38.9001 41.9001 38.8001 43.3001 38.6001C46.7001 38.2001 49.6001 37.6001 52.1001 36.8001C54.9001 35.9001 57.7001 34.6001 60.3001 32.9001C62.2001 31.7001 64.2001 30.2001 66.2001 28.4001C64.0001 30.3001 61.9001 30.7001 59.8001 32.0001C57.1001 33.6001 54.4001 34.8001 51.6001 35.6001Z" fill="white"/>
<path fill-rule="evenodd" clip-rule="evenodd" d="M51.2002 39.9004C48.7002 40.5004 45.9002 40.9004 42.6002 41.0994C41.3002 41.2004 39.9002 41.2994 38.2002 41.2994L33.8002 41.5004C22.7002 41.9004 11.5002 42.4004 0.000244141 42.9004V45.5004C11.4002 44.7004 22.6002 44.0004 33.9002 43.2004L38.3002 42.9004C40.0002 42.7994 41.4002 42.7004 42.7002 42.5994C46.1002 42.2994 48.9002 41.7994 51.5002 41.0994C54.4002 40.2994 57.2002 39.2004 59.9002 37.7994C62.0002 36.7004 64.0002 35.4004 66.1002 33.7994V32.7004C63.8002 34.4004 61.6002 35.7004 59.4002 36.7994C56.8002 38.2004 54.0002 39.2004 51.2002 39.9004Z" fill="white"/>
<mask id="mask3_601_8007" style="mask-type:alpha" maskUnits="userSpaceOnUse" x="0" y="38" width="67" height="11">
<path fill-rule="evenodd" clip-rule="evenodd" d="M0 38.2007H66.1998V48.7997H0V38.2007Z" fill="white"/>
</mask>
<g mask="url(#mask3_601_8007)">
<path fill-rule="evenodd" clip-rule="evenodd" d="M50.7998 44.0997C48.2998 44.5997 45.4998 44.9007 42.1998 44.9997C40.8998 45.0997 39.5998 45.0997 37.8998 45.2007L-0.000244141 46.2007V48.7997L33.5998 46.9997L37.9998 46.7997C39.6998 46.7007 41.0998 46.5997 42.3998 46.4997C45.7998 46.2007 48.4998 45.9007 51.0998 45.2997C53.9998 44.7007 56.8998 43.7997 59.5998 42.5997C61.7998 41.7007 63.8998 40.5997 66.1998 39.2007V38.2007C63.7998 39.5997 61.4998 40.7007 59.1998 41.5997C56.4998 42.7997 53.6998 43.5997 50.7998 44.0997Z" fill="white"/>
</g>
<path fill-rule="evenodd" clip-rule="evenodd" d="M50.5 48.2998C45.8 48.9008 41.1 48.9998 36.4 49.0998C35.3 49.0998 34.3 49.0998 33.2 49.1998L0 49.7998V52.4008L33.3 50.9998C34.4 50.9998 35.4 50.9008 36.5 50.9008C41.2 50.6998 46 50.4998 50.7 49.7998C53.7 49.2998 56.6 48.5998 59.2 47.6998C61.4 46.9998 63.7 45.9998 66 44.7998V43.7998C63.6 44.9008 61.1 45.9008 58.8 46.5998C56.3 47.2998 53.5 47.9998 50.5 48.2998Z" fill="white"/>
<mask id="mask4_601_8007" style="mask-type:alpha" maskUnits="userSpaceOnUse" x="0" y="49" width="67" height="7">
<path fill-rule="evenodd" clip-rule="evenodd" d="M0 49.2007H66.1998V55.7997H0V49.2007Z" fill="white"/>
</mask>
<g mask="url(#mask4_601_8007)">
<path fill-rule="evenodd" clip-rule="evenodd" d="M50.2998 52.5997C45.8998 52.9997 41.4998 52.9997 37.0998 52.9997H33.0998C22.0998 52.9997 11.0998 53.0997 -0.000244141 53.2007V55.7997C10.5998 55.4007 21.8998 55.0997 33.1998 54.7007C34.4998 54.7007 35.8998 54.5997 37.1998 54.5997C41.4998 54.4997 45.9998 54.4007 50.3998 53.9007C53.4998 53.5997 56.2998 53.0997 58.9998 52.4007C61.2998 51.7997 63.6998 50.9997 66.1998 50.0997V49.2007C63.6998 50.0997 61.1998 50.7997 58.7998 51.4007C56.0998 51.9997 53.2998 52.4007 50.2998 52.5997Z" fill="white"/>
</g>
<path fill-rule="evenodd" clip-rule="evenodd" d="M50.1001 56.7999C48.3001 56.9009 46.3001 56.9009 44.1001 56.9009H41.6001L33.0001 56.7999C27.1001 56.7999 21.3001 56.6999 15.8001 56.6999L0.00012207 56.7999V59.4009L15.9001 58.9999C21.4001 58.9009 27.2001 58.6999 33.0001 58.5999L41.6001 58.4999C44.0001 58.4999 47.1001 58.4009 50.2001 58.1999C53.3001 57.9999 56.1001 57.6999 58.8001 57.2999C61.2001 56.9009 63.7001 56.4009 66.2001 55.7999V54.9009C63.7001 55.4999 61.1001 55.9999 58.7001 56.2999C55.9001 56.4999 53.2001 56.6999 50.1001 56.7999Z" fill="white"/>
<path fill-rule="evenodd" clip-rule="evenodd" d="M41.5 60.9005L32.9 60.7995C22 60.5995 11.1 60.4005 0 60.2005V62.7995C10.6 62.7005 21.8 62.5995 32.9 62.5005L41.5 62.4005C44.4 62.4005 47.2 62.2995 50.1 62.2005C56 62.0005 61.2 61.5995 66.2 60.9005V60.0005C61.3 60.5005 56 60.7995 50.1 60.9005H41.5Z" fill="white"/>
<path fill-rule="evenodd" clip-rule="evenodd" d="M66.1001 65.5L0.00012207 63.8V66.4H66.1001V65.5Z" fill="white"/>
<path fill-rule="evenodd" clip-rule="evenodd" d="M60.2002 21.9999C57.7002 23.9999 55.7002 25.4999 52.7002 26.6999C50.0002 27.7999 47.1002 28.1999 43.9002 28.6999C41.8002 28.9999 39.6002 29.3999 37.5002 29.5999C36.6002 29.6999 35.8002 29.6999 34.9002 29.7999L0.000244141 32.2999V34.8999L34.9002 31.4999L39.4002 31.0999C41.1002 30.8999 42.6002 30.7999 44.0002 30.4999C47.4002 29.9999 50.3002 29.0999 52.9002 27.8999C55.6002 26.6999 58.4002 24.6999 60.9002 22.5999C62.6002 21.0999 64.3002 19.2999 66.1002 17.2999V16.3999C63.9002 18.5999 62.1002 20.4999 60.2002 21.9999Z" fill="white"/>
<path fill-rule="evenodd" clip-rule="evenodd" d="M94.2002 0C94.2002 0 106.1 18.9 108.3 22.4C110.5 25.9 113 28.6 121.8 30.5C130.6 32.4 134.4 33.2 134.4 33.2V33.9C134.4 33.9 128.8 32.7 121.6 31.1C114.4 29.5 111.5 29 108.2 24.4C105.5 20.6 94.2002 4.5 94.2002 4.5V0Z" fill="white"/>
<path fill-rule="evenodd" clip-rule="evenodd" d="M94.2002 21.6001C94.2002 21.6001 105 32.9001 108.2 36.2001C111.5 39.7001 115.8 40.9001 121.7 42.0001C127.3 43.0001 134.4 44.2001 134.4 44.2001V44.8001C134.4 44.8001 127.7 43.7001 121.7 42.7001C115.8 41.7001 111.6 41.1001 108.2 38.0001C105.2 35.2001 94.3002 25.0001 94.3002 25.0001L94.2002 21.6001Z" fill="white"/>
<path fill-rule="evenodd" clip-rule="evenodd" d="M94.2002 26.7998C94.2002 26.7998 104.5 36.3998 108.2 39.5998C111.6 42.5998 114.3 43.4998 121.7 44.9008C129.1 46.1998 134.4 46.9998 134.4 46.9998V47.6998C134.4 47.6998 127.7 46.5998 121.7 45.5998C115.7 44.5998 111.8 44.2998 108.2 41.2998C104 37.9008 94.2002 29.8998 94.2002 29.8998V26.7998Z" fill="white"/>
<path fill-rule="evenodd" clip-rule="evenodd" d="M94.2002 32.2002C94.2002 32.2002 106 41.5002 108.2 43.2002C110.4 44.8002 113.3 46.7002 121.7 48.0002C130.1 49.2002 134.4 49.8002 134.4 49.8002V50.5002C134.4 50.5002 126.8 49.4002 121.7 48.8002C116.6 48.2002 112.7 47.9002 108.2 44.9002C103.8 42.0002 94.2002 35.2002 94.2002 35.2002V32.2002Z" fill="white"/>
<path fill-rule="evenodd" clip-rule="evenodd" d="M94.2002 37.4004C94.2002 37.4004 106 45.2994 108.2 46.5004C110.4 47.7004 113.1 49.7994 121.7 50.9004C130.3 52.0004 134.4 52.5004 134.4 52.5004V53.2004C134.4 53.2004 127.3 52.4004 121.7 51.7994C116.1 51.2004 112.3 50.4004 108.2 48.0994C104.1 45.7994 94.2002 40.0994 94.2002 40.0994V37.4004Z" fill="white"/>
<path fill-rule="evenodd" clip-rule="evenodd" d="M94.2002 42.7002C94.2002 42.7002 104.6 48.4002 108.2 50.0992C112.1 52.0992 115.5 53.0002 121.7 53.8002C127.8 54.5002 134.4 55.2002 134.4 55.2002V55.8002C134.4 55.8002 128.3 55.0992 121.7 54.5002C115.2 53.9002 112.9 53.5992 108.2 51.5002C104 49.5992 94.2002 45.0992 94.2002 45.0992V42.7002Z" fill="white"/>
<path fill-rule="evenodd" clip-rule="evenodd" d="M94.2002 48C94.2002 48 102.4 51.5 108.2 53.8C113.9 56.1 118.2 56.3 121.7 56.6C123.2 56.8 134.3 57.9 134.3 57.9V58.5C134.3 58.5 127.7 58 121.6 57.4C115.6 56.9 113 56.6 108.1 55C103.2 53.4 94.1002 50.2 94.1002 50.2L94.2002 48Z" fill="white"/>
<path fill-rule="evenodd" clip-rule="evenodd" d="M94.2002 53.4004C94.2002 53.4004 102.5 56.0004 108.2 57.5004C113.9 59.0004 119.1 59.5994 121.7 59.7994C124.3 60.0004 134.4 60.7994 134.4 60.7994V61.4004C134.4 61.4004 128.7 61.0004 121.7 60.5004C116 60.0994 111.5 59.7004 108.2 58.9004C104.5 58.0994 94.2002 55.5994 94.2002 55.5994V53.4004Z" fill="white"/>
<path fill-rule="evenodd" clip-rule="evenodd" d="M94.2002 58.7002C94.2002 58.7002 101 59.9002 108.2 61.0992C113.6 62.0002 120.9 62.5992 121.7 62.5992C122.5 62.5992 134.4 63.5002 134.4 63.5002V64.0992C134.4 64.0992 126.8 63.7002 121.7 63.4002C116.4 63.0992 111.2 62.8002 108.2 62.5002C101.5 61.8002 94.2002 60.9002 94.2002 60.9002V58.7002Z" fill="white"/>
<path fill-rule="evenodd" clip-rule="evenodd" d="M94.2002 64.2998C94.2002 64.2998 104.9 64.6998 108.2 64.7998C111.5 64.9008 134.4 65.7998 134.4 65.7998V66.4008H94.2002V64.2998Z" fill="white"/>
<path fill-rule="evenodd" clip-rule="evenodd" d="M121.7 33.3999C112 31.2999 109.8 27.7999 108.2 25.5999C106.6 23.3999 94.3002 5.3999 94.3002 5.3999V9.4999C94.8002 10.0999 105.3 23.8999 108.3 27.6999C111.6 31.9999 116.8 32.9999 121.8 33.9999C126.8 35.0999 134.5 36.5999 134.5 36.5999V35.9999C134.4 35.9999 124.2 33.9999 121.7 33.3999Z" fill="white"/>
<path fill-rule="evenodd" clip-rule="evenodd" d="M121.7 36.2999C113.7 34.6999 110.5 32.1999 108.2 29.1999C105.9 26.0999 94.3002 10.8999 94.3002 10.8999V14.6999C94.8002 15.2999 105.4 27.7999 108.2 31.0999C111.5 34.8999 116.1 35.8999 121.7 36.8999C127.3 37.9009 134.4 39.2999 134.4 39.2999V38.6999C134.4 38.6999 126.3 37.1999 121.7 36.2999Z" fill="white"/>
<path fill-rule="evenodd" clip-rule="evenodd" d="M121.7 39.2001C113.4 37.5991 111.7 36.3001 108.2 32.4001C106 30.0001 94.7002 16.7001 94.2002 16.1001V19.6001C94.2002 19.6001 104.7 30.8001 108.1 34.2001C112.5 38.5991 116.7 38.9001 121.6 39.8001C126.5 40.7001 134.3 42.0991 134.3 42.0991V41.5001C134.4 41.5001 125 39.9001 121.7 39.2001Z" fill="white"/>
<mask id="mask5_601_8007" style="mask-type:alpha" maskUnits="userSpaceOnUse" x="0" y="0" width="277" height="67">
<path fill-rule="evenodd" clip-rule="evenodd" d="M0 66.7H276.7V0H0V66.7Z" fill="white"/>
</mask>
<g mask="url(#mask5_601_8007)">
<path fill-rule="evenodd" clip-rule="evenodd" d="M27.5 66.3001H85.4V27.6001H27.5V66.3001Z" fill="#004494"/>
<path fill-rule="evenodd" clip-rule="evenodd" d="M57.1001 33.1001H59.1001L57.5001 34.4001L58.1001 36.4001L56.5001 35.2001L54.9001 36.4001L55.5001 34.4001L53.9001 33.1001H55.9001L56.5001 31.1001L57.1001 33.1001Z" fill="#FFF100"/>
<path fill-rule="evenodd" clip-rule="evenodd" d="M57.1001 58.9005H59.1001L57.5001 60.0995L58.1001 62.0005L56.5001 60.7995L54.9001 62.0005L55.5001 60.0995L53.9001 58.9005H55.9001L56.5001 57.0005L57.1001 58.9005Z" fill="#FFF100"/>
<path fill-rule="evenodd" clip-rule="evenodd" d="M63.5 57.2003H65.5L63.9 58.4003L64.5 60.3003L62.9 59.0993L61.3 60.3003L61.9 58.4003L60.3 57.2003H62.3L62.9 55.3003L63.5 57.2003Z" fill="#FFF100"/>
<path fill-rule="evenodd" clip-rule="evenodd" d="M63.5 34.7999H65.5L63.9 35.9999L64.5 37.9009L62.9 36.6999L61.3 37.9999L62 35.9999L60.4 34.7999H62.4L63 32.8999L63.5 34.7999Z" fill="#FFF100"/>
<path fill-rule="evenodd" clip-rule="evenodd" d="M68.2999 39.5997H70.2999L68.6999 40.7997L69.2999 42.7007L67.6999 41.4997L66.0999 42.7007L66.6999 40.7997L65.0999 39.5997H67.0999L67.6999 37.7007L68.2999 39.5997Z" fill="#FFF100"/>
<path fill-rule="evenodd" clip-rule="evenodd" d="M68.2999 52.5997H70.2999L68.6999 53.7997L69.2999 55.7007L67.6999 54.4997L66.0999 55.7007L66.6999 53.7997L65.0999 52.5997H67.0999L67.6999 50.7007L68.2999 52.5997Z" fill="#FFF100"/>
<path fill-rule="evenodd" clip-rule="evenodd" d="M70.1 46.0001H72.1L70.5 47.2001L71.1 49.1001L69.5 47.9001L67.9 49.1001L68.5 47.2001L66.8 46.0001H68.8L69.4 44.1001L70.1 46.0001Z" fill="#FFF100"/>
<path fill-rule="evenodd" clip-rule="evenodd" d="M50.5 34.7998H52.5L50.9 35.9998L51.5 37.9008L50 36.7998L48.3 37.9998L48.9 36.0998L47.3 34.8998H49.3L50 32.9998L50.5 34.7998Z" fill="#FFF100"/>
<path fill-rule="evenodd" clip-rule="evenodd" d="M45.9 39.5997H47.9L46.3 40.7997L46.9 42.7007L45.3 41.4997L43.7 42.7007L44.3 40.7997L42.7 39.5997H44.7L45.3 37.7007L45.9 39.5997Z" fill="#FFF100"/>
<path fill-rule="evenodd" clip-rule="evenodd" d="M44.2002 46.0001H46.2002L44.6002 47.2001L45.2002 49.1001L43.6002 47.9001L42.0002 49.1001L42.6002 47.2001L41.0002 46.0001H43.0002L43.6002 44.1001L44.2002 46.0001Z" fill="#FFF100"/>
<path fill-rule="evenodd" clip-rule="evenodd" d="M45.9 52.5997H47.9L46.3 53.7997L46.9 55.7007L45.3 54.4997L43.7 55.7007L44.3 53.7997L42.7 52.5997H44.7L45.3 50.7007L45.9 52.5997Z" fill="#FFF100"/>
<path fill-rule="evenodd" clip-rule="evenodd" d="M50.6001 57.2999H52.6001L51.0001 58.4999L51.6001 60.4009L50.0001 59.1999L48.4001 60.4009L49.0001 58.4999L47.4001 57.2999H49.4001L50.0001 55.4009L50.6001 57.2999Z" fill="#FFF100"/>
<path fill-rule="evenodd" clip-rule="evenodd" d="M26.5 26.6001H86.4V67.3001H26.5V26.6001ZM28.5 28.6001V65.3001H84.4V28.6001H28.5Z" fill="white"/>
</g>
<path d="M143.42 33.12C143.42 32.8534 143.553 32.72 143.82 32.72H151.18C151.433 32.72 151.56 32.8467 151.56 33.1V34.34C151.56 34.58 151.427 34.7 151.16 34.7H145.7V38.14H150.54C150.807 38.14 150.94 38.26 150.94 38.5V39.74C150.94 39.98 150.807 40.1 150.54 40.1H145.7V44.04H151.3C151.54 44.04 151.66 44.1667 151.66 44.42V45.64C151.66 45.88 151.533 46 151.28 46H143.82C143.553 46 143.42 45.88 143.42 45.64V33.12Z" fill="white"/>
<path d="M154.086 46C153.886 46 153.753 45.9667 153.686 45.9C153.62 45.82 153.586 45.7134 153.586 45.58V36.58C153.586 36.4334 153.613 36.3334 153.666 36.28C153.733 36.2267 153.853 36.2 154.026 36.2H158.286C159.446 36.2 160.293 36.44 160.826 36.92C161.36 37.4 161.626 38.0467 161.626 38.86C161.626 39.1267 161.553 39.4534 161.406 39.84C161.26 40.2267 160.946 40.5534 160.466 40.82C160.76 40.94 161 41.1 161.186 41.3C161.373 41.4867 161.52 41.6867 161.626 41.9C161.733 42.1 161.806 42.3067 161.846 42.52C161.886 42.7334 161.906 42.9267 161.906 43.1C161.906 43.54 161.813 43.94 161.626 44.3C161.453 44.66 161.213 44.9667 160.906 45.22C160.6 45.4734 160.24 45.6667 159.826 45.8C159.413 45.9334 158.98 46 158.526 46H154.086ZM159.686 42.98C159.686 42.6467 159.58 42.3534 159.366 42.1C159.166 41.8334 158.813 41.7 158.306 41.7H155.746V44.2H158.086C158.406 44.2 158.666 44.16 158.866 44.08C159.08 44 159.246 43.9 159.366 43.78C159.486 43.66 159.566 43.5267 159.606 43.38C159.66 43.2334 159.686 43.1 159.686 42.98ZM159.406 39.02C159.406 38.8867 159.38 38.76 159.326 38.64C159.286 38.52 159.213 38.4134 159.106 38.32C159 38.2134 158.853 38.1334 158.666 38.08C158.493 38.0134 158.273 37.98 158.006 37.98H155.746V40.14H158.146C158.533 40.14 158.84 40.0334 159.066 39.82C159.293 39.5934 159.406 39.3267 159.406 39.02Z" fill="white"/>
<path d="M172.423 41.04C172.423 41.8534 172.363 42.58 172.243 43.22C172.123 43.86 171.91 44.4 171.603 44.84C171.31 45.28 170.903 45.6134 170.383 45.84C169.877 46.0667 169.23 46.18 168.443 46.18C168.11 46.18 167.723 46.1467 167.283 46.08C166.857 46.0134 166.41 45.9 165.943 45.74L165.923 45.76V49.28C165.923 49.3867 165.897 49.48 165.843 49.56C165.803 49.64 165.703 49.68 165.543 49.68H164.123C163.963 49.68 163.857 49.6467 163.803 49.58C163.763 49.5134 163.743 49.4134 163.743 49.28V36.6C163.743 36.3334 163.87 36.2 164.123 36.2H165.543C165.69 36.2 165.783 36.24 165.823 36.32C165.877 36.3867 165.903 36.48 165.903 36.6V37.2L165.963 37.24C166.137 37.12 166.343 36.9934 166.583 36.86C166.837 36.7134 167.103 36.58 167.383 36.46C167.663 36.34 167.95 36.24 168.243 36.16C168.537 36.08 168.83 36.04 169.123 36.04C169.777 36.04 170.317 36.16 170.743 36.4C171.17 36.64 171.503 36.98 171.743 37.42C171.997 37.8467 172.17 38.3667 172.263 38.98C172.37 39.5934 172.423 40.28 172.423 41.04ZM170.163 41.02C170.163 40.38 170.13 39.8667 170.063 39.48C170.01 39.0934 169.917 38.7934 169.783 38.58C169.65 38.3667 169.483 38.2267 169.283 38.16C169.097 38.08 168.87 38.04 168.603 38.04C168.403 38.04 168.177 38.0734 167.923 38.14C167.67 38.2067 167.417 38.2867 167.163 38.38C166.923 38.46 166.69 38.5534 166.463 38.66C166.25 38.7667 166.07 38.86 165.923 38.94V43.94C166.377 44.0734 166.783 44.1667 167.143 44.22C167.517 44.26 167.877 44.28 168.223 44.28C168.583 44.28 168.883 44.2334 169.123 44.14C169.377 44.0334 169.577 43.8534 169.723 43.6C169.883 43.3467 169.997 43.0134 170.063 42.6C170.13 42.1734 170.163 41.6467 170.163 41.02Z" fill="white"/>
<path d="M182.713 40.94C182.713 41.5134 182.673 42.1067 182.593 42.72C182.526 43.3334 182.346 43.9 182.053 44.42C181.76 44.9267 181.32 45.3467 180.733 45.68C180.146 46 179.333 46.16 178.293 46.16C177.293 46.16 176.506 46 175.933 45.68C175.36 45.3467 174.926 44.9267 174.633 44.42C174.353 43.9 174.18 43.3334 174.113 42.72C174.046 42.1067 174.013 41.5134 174.013 40.94C174.013 40.4734 174.053 39.9534 174.133 39.38C174.226 38.8067 174.42 38.2734 174.713 37.78C175.006 37.2734 175.433 36.8534 175.993 36.52C176.566 36.1734 177.333 36 178.293 36C179.266 36 180.04 36.1467 180.613 36.44C181.2 36.7334 181.646 37.12 181.953 37.6C182.26 38.0667 182.46 38.5934 182.553 39.18C182.66 39.7667 182.713 40.3534 182.713 40.94ZM180.473 41.08C180.473 40.5467 180.446 40.0867 180.393 39.7C180.34 39.3 180.233 38.9734 180.073 38.72C179.913 38.4534 179.693 38.2534 179.413 38.12C179.133 37.9867 178.766 37.92 178.313 37.92C177.886 37.92 177.54 37.9867 177.273 38.12C177.006 38.2534 176.793 38.4534 176.633 38.72C176.486 38.9867 176.38 39.32 176.313 39.72C176.26 40.1067 176.233 40.56 176.233 41.08C176.233 41.6134 176.26 42.08 176.313 42.48C176.38 42.8667 176.486 43.1934 176.633 43.46C176.78 43.7134 176.986 43.9067 177.253 44.04C177.52 44.1734 177.866 44.24 178.293 44.24C178.746 44.24 179.113 44.18 179.393 44.06C179.686 43.9267 179.913 43.7334 180.073 43.48C180.233 43.2134 180.34 42.88 180.393 42.48C180.446 42.08 180.473 41.6134 180.473 41.08Z" fill="white"/>
<path d="M193.202 45.62C193.202 45.8734 193.068 46 192.802 46H191.382C191.128 46 191.002 45.8734 191.002 45.62L191.022 38.04H186.822V45.62C186.822 45.7267 186.795 45.82 186.742 45.9C186.688 45.9667 186.588 46 186.442 46H185.022C184.768 46 184.642 45.8734 184.642 45.62V36.58C184.642 36.3267 184.768 36.2 185.022 36.2H192.822C192.968 36.2 193.068 36.2267 193.122 36.28C193.175 36.3334 193.202 36.4334 193.202 36.58V45.62Z" fill="white"/>
<path d="M197.386 41.7C197.399 42.2067 197.453 42.6267 197.546 42.96C197.653 43.2934 197.806 43.56 198.006 43.76C198.206 43.9467 198.453 44.08 198.746 44.16C199.039 44.24 199.393 44.28 199.806 44.28C200.166 44.28 200.593 44.2534 201.086 44.2C201.579 44.1467 202.019 44.1 202.406 44.06C202.593 44.0334 202.719 44.04 202.786 44.08C202.866 44.1067 202.919 44.2134 202.946 44.4L203.066 45.06C203.093 45.2067 203.086 45.3267 203.046 45.42C203.019 45.5134 202.913 45.6 202.726 45.68C202.526 45.76 202.293 45.8334 202.026 45.9C201.759 45.9534 201.479 46 201.186 46.04C200.893 46.08 200.599 46.1134 200.306 46.14C200.013 46.1667 199.746 46.18 199.506 46.18C198.546 46.18 197.779 46.04 197.206 45.76C196.633 45.48 196.193 45.1067 195.886 44.64C195.579 44.1734 195.373 43.64 195.266 43.04C195.173 42.4267 195.126 41.7934 195.126 41.14C195.126 40.66 195.166 40.12 195.246 39.52C195.326 38.92 195.506 38.36 195.786 37.84C196.079 37.32 196.506 36.8867 197.066 36.54C197.639 36.18 198.413 36 199.386 36C200.279 36 200.999 36.1334 201.546 36.4C202.106 36.6667 202.539 37.0134 202.846 37.44C203.153 37.8534 203.359 38.3334 203.466 38.88C203.586 39.4134 203.653 39.9467 203.666 40.48C203.679 40.84 203.619 41.1334 203.486 41.36C203.353 41.5867 203.086 41.7 202.686 41.7H197.386ZM199.386 37.8C199.013 37.8 198.706 37.8534 198.466 37.96C198.226 38.0667 198.026 38.2267 197.866 38.44C197.719 38.64 197.613 38.8934 197.546 39.2C197.479 39.4934 197.433 39.8267 197.406 40.2H201.366C201.366 39.8934 201.339 39.6 201.286 39.32C201.233 39.0267 201.133 38.7667 200.986 38.54C200.853 38.3134 200.653 38.1334 200.386 38C200.133 37.8667 199.799 37.8 199.386 37.8Z" fill="white"/>
<path d="M205.442 36.64C205.442 36.4934 205.469 36.3867 205.522 36.32C205.589 36.24 205.702 36.2 205.862 36.2H207.162C207.349 36.2 207.469 36.24 207.522 36.32C207.576 36.4 207.602 36.5067 207.602 36.64V42.48H207.642L210.262 38.92L212.042 36.56C212.122 36.4534 212.202 36.3667 212.282 36.3C212.376 36.2334 212.522 36.2 212.722 36.2H213.762C213.922 36.2 214.036 36.2467 214.102 36.34C214.169 36.42 214.202 36.5134 214.202 36.62V45.58C214.202 45.86 214.049 46 213.742 46H212.482C212.176 46 212.022 45.86 212.022 45.58V39.46H212.002C211.536 40.1 211.069 40.7334 210.602 41.36C210.136 41.9867 209.669 42.62 209.202 43.26C208.909 43.66 208.616 44.06 208.322 44.46C208.029 44.8467 207.729 45.24 207.422 45.64C207.342 45.7467 207.249 45.8334 207.142 45.9C207.049 45.9667 206.909 46 206.722 46H205.862C205.702 46 205.589 45.9667 205.522 45.9C205.469 45.8334 205.442 45.7267 205.442 45.58V36.64ZM209.842 35.28C209.189 35.28 208.549 35.1134 207.922 34.78C207.309 34.4334 206.842 33.9067 206.522 33.2C206.469 33.0934 206.422 32.98 206.382 32.86C206.342 32.74 206.376 32.6334 206.482 32.54L207.022 32.1C207.142 32.02 207.236 32 207.302 32.04C207.369 32.0667 207.449 32.1267 207.542 32.22C207.942 32.7 208.302 33.0534 208.622 33.28C208.956 33.5067 209.369 33.62 209.862 33.62C210.089 33.62 210.289 33.5934 210.462 33.54C210.649 33.4867 210.822 33.4 210.982 33.28C211.156 33.16 211.329 33.0134 211.502 32.84C211.676 32.6667 211.869 32.46 212.082 32.22C212.242 32.0334 212.409 32 212.582 32.12L213.122 32.46C213.256 32.54 213.296 32.6467 213.242 32.78C213.202 32.9134 213.156 33.04 213.102 33.16C212.742 33.8667 212.276 34.4 211.702 34.76C211.129 35.1067 210.509 35.28 209.842 35.28Z" fill="white"/>
<path d="M223.762 45.08C223.802 45.2267 223.802 45.3467 223.762 45.44C223.722 45.5334 223.609 45.62 223.422 45.7C223.036 45.86 222.556 45.9734 221.982 46.04C221.409 46.12 220.876 46.16 220.382 46.16C219.449 46.16 218.696 46.02 218.122 45.74C217.562 45.46 217.129 45.0867 216.822 44.62C216.529 44.1534 216.336 43.6134 216.242 43C216.149 42.3734 216.102 41.72 216.102 41.04C216.102 40.4267 216.149 39.82 216.242 39.22C216.349 38.6067 216.549 38.0667 216.842 37.6C217.149 37.12 217.582 36.7334 218.142 36.44C218.716 36.1467 219.462 36 220.382 36C220.609 36 220.856 36.0067 221.122 36.02C221.402 36.0334 221.676 36.06 221.942 36.1C222.222 36.14 222.489 36.1934 222.742 36.26C223.009 36.3134 223.249 36.3867 223.462 36.48C223.702 36.5867 223.802 36.7734 223.762 37.04L223.622 37.84C223.582 37.9867 223.516 38.0734 223.422 38.1C223.329 38.1267 223.189 38.1334 223.002 38.12C222.589 38.08 222.162 38.04 221.722 38C221.296 37.96 220.909 37.94 220.562 37.94C219.749 37.94 219.182 38.1734 218.862 38.64C218.542 39.1067 218.382 39.8934 218.382 41C218.382 41.6267 218.416 42.1467 218.482 42.56C218.562 42.9734 218.689 43.3067 218.862 43.56C219.036 43.8134 219.256 43.9934 219.522 44.1C219.802 44.1934 220.142 44.24 220.542 44.24C220.849 44.24 221.249 44.2267 221.742 44.2C222.249 44.16 222.709 44.1134 223.122 44.06C223.282 44.0334 223.402 44.0334 223.482 44.06C223.562 44.0867 223.616 44.1867 223.642 44.36L223.762 45.08Z" fill="white"/>
<path d="M227.427 45.66C227.427 45.7667 227.407 45.8534 227.367 45.92C227.327 45.9734 227.234 46 227.087 46H225.587C225.36 46 225.247 45.8867 225.247 45.66V36.56C225.247 36.32 225.36 36.2 225.587 36.2H227.087C227.234 36.2 227.327 36.2334 227.367 36.3C227.407 36.3667 227.427 36.4534 227.427 36.56V40.08H228.447C228.634 40.08 228.807 40.0667 228.967 40.04C229.14 40.0134 229.294 39.9534 229.427 39.86C229.574 39.7534 229.707 39.6067 229.827 39.42C229.96 39.2334 230.087 38.9867 230.207 38.68L231.007 36.52C231.06 36.4 231.127 36.32 231.207 36.28C231.287 36.24 231.407 36.22 231.567 36.22H232.787C232.974 36.22 233.08 36.26 233.107 36.34C233.147 36.42 233.147 36.5267 233.107 36.66L232.407 38.74C232.194 39.3667 231.967 39.86 231.727 40.22C231.487 40.58 231.187 40.8134 230.827 40.92V40.94C231.294 41.1 231.64 41.3334 231.867 41.64C232.094 41.9334 232.3 42.3467 232.487 42.88L233.367 45.56C233.407 45.68 233.414 45.7867 233.387 45.88C233.36 45.96 233.247 46 233.047 46H231.707C231.56 46 231.44 45.98 231.347 45.94C231.267 45.9 231.207 45.82 231.167 45.7L230.387 43.4C230.174 42.7867 229.894 42.3867 229.547 42.2C229.2 42.0134 228.84 41.92 228.467 41.92H227.427V45.66Z" fill="white"/>
<path d="M241.074 41.54H238.634C238.127 41.54 237.727 41.66 237.434 41.9C237.14 42.1267 236.994 42.5667 236.994 43.22C236.994 43.66 237.08 43.9667 237.254 44.14C237.44 44.3 237.767 44.38 238.234 44.38C238.447 44.38 238.68 44.3534 238.934 44.3C239.187 44.2467 239.44 44.1734 239.694 44.08C239.947 43.9867 240.194 43.8867 240.434 43.78C240.674 43.66 240.887 43.5467 241.074 43.44V41.54ZM241.194 44.86C240.687 45.2467 240.114 45.56 239.474 45.8C238.847 46.04 238.194 46.16 237.514 46.16C236.98 46.16 236.534 46.0934 236.174 45.96C235.827 45.8134 235.547 45.62 235.334 45.38C235.134 45.1267 234.987 44.8267 234.894 44.48C234.814 44.1334 234.774 43.7467 234.774 43.32C234.76 42.1467 235.067 41.3 235.694 40.78C236.32 40.2467 237.267 39.98 238.534 39.98H241.094V39.46C241.094 39.1667 241.06 38.92 240.994 38.72C240.94 38.5067 240.834 38.3334 240.674 38.2C240.514 38.0667 240.3 37.9734 240.034 37.92C239.767 37.8667 239.427 37.84 239.014 37.84C238.854 37.84 238.654 37.8467 238.414 37.86C238.187 37.8734 237.947 37.8867 237.694 37.9C237.454 37.9134 237.207 37.9334 236.954 37.96C236.714 37.9867 236.494 38.0067 236.294 38.02C236.094 38.0467 235.954 38.0534 235.874 38.04C235.807 38.0134 235.76 37.9267 235.734 37.78L235.554 37.04C235.527 36.9067 235.54 36.8 235.594 36.72C235.647 36.6267 235.787 36.5334 236.014 36.44C236.227 36.36 236.48 36.2934 236.774 36.24C237.067 36.1867 237.367 36.1467 237.674 36.12C237.98 36.08 238.28 36.0534 238.574 36.04C238.88 36.0134 239.154 36 239.394 36C240.26 36 240.947 36.0867 241.454 36.26C241.974 36.4334 242.367 36.68 242.634 37C242.9 37.3067 243.074 37.6867 243.154 38.14C243.234 38.5934 243.274 39.1 243.274 39.66V43.52C243.274 43.72 243.28 43.88 243.294 44C243.32 44.1067 243.354 44.1934 243.394 44.26C243.447 44.3134 243.52 44.3534 243.614 44.38C243.707 44.4067 243.834 44.4267 243.994 44.44C244.14 44.4534 244.24 44.48 244.294 44.52C244.347 44.56 244.374 44.6334 244.374 44.74V45.58C244.374 45.8067 244.214 45.9467 243.894 46C243.734 46.0267 243.574 46.0467 243.414 46.06C243.254 46.0867 243.1 46.1 242.954 46.1C242.487 46.1 242.107 46.0134 241.814 45.84C241.534 45.6667 241.34 45.3467 241.234 44.88L241.194 44.86Z" fill="white"/>
<path d="M253.454 36.18C253.641 36.18 253.768 36.2134 253.834 36.28C253.901 36.3334 253.934 36.4334 253.934 36.58V45.58C253.934 45.8467 253.774 45.98 253.454 45.98H252.194C252.021 45.98 251.901 45.9467 251.834 45.88C251.781 45.8134 251.754 45.7134 251.754 45.58V42.18H249.734C249.388 42.2067 249.094 42.32 248.854 42.52C248.628 42.7067 248.421 43.08 248.234 43.64L247.594 45.58C247.541 45.74 247.474 45.8534 247.394 45.92C247.314 45.9734 247.181 46 246.994 46H245.674C245.488 46 245.374 45.9667 245.334 45.9C245.308 45.82 245.314 45.7067 245.354 45.56L246.054 43.42C246.201 43.02 246.354 42.6734 246.514 42.38C246.674 42.0734 246.901 41.84 247.194 41.68C246.901 41.5734 246.661 41.4334 246.474 41.26C246.288 41.0734 246.141 40.8734 246.034 40.66C245.928 40.4334 245.854 40.2 245.814 39.96C245.774 39.72 245.754 39.4867 245.754 39.26C245.754 38.7534 245.848 38.3134 246.034 37.94C246.221 37.5534 246.474 37.2334 246.794 36.98C247.114 36.7134 247.488 36.5134 247.914 36.38C248.354 36.2467 248.814 36.18 249.294 36.18H253.454ZM247.914 39.26C247.914 39.6467 248.028 39.9467 248.254 40.16C248.494 40.3734 248.894 40.48 249.454 40.48H251.754V37.98H249.554C249.074 37.98 248.681 38.0867 248.374 38.3C248.068 38.5134 247.914 38.8334 247.914 39.26Z" fill="white"/>
<path d="M145.22 65.66C145.22 65.7667 145.2 65.8533 145.16 65.92C145.12 65.9733 145.027 66 144.88 66H143.38C143.153 66 143.04 65.8867 143.04 65.66V56.56C143.04 56.32 143.153 56.2 143.38 56.2H144.88C145.027 56.2 145.12 56.2333 145.16 56.3C145.2 56.3667 145.22 56.4533 145.22 56.56V60.08H146.24C146.427 60.08 146.6 60.0667 146.76 60.04C146.933 60.0133 147.087 59.9533 147.22 59.86C147.367 59.7533 147.5 59.6067 147.62 59.42C147.753 59.2333 147.88 58.9867 148 58.68L148.8 56.52C148.853 56.4 148.92 56.32 149 56.28C149.08 56.24 149.2 56.22 149.36 56.22H150.58C150.767 56.22 150.873 56.26 150.9 56.34C150.94 56.42 150.94 56.5267 150.9 56.66L150.2 58.74C149.987 59.3667 149.76 59.86 149.52 60.22C149.28 60.58 148.98 60.8133 148.62 60.92V60.94C149.087 61.1 149.433 61.3333 149.66 61.64C149.887 61.9333 150.093 62.3467 150.28 62.88L151.16 65.56C151.2 65.68 151.207 65.7867 151.18 65.88C151.153 65.96 151.04 66 150.84 66H149.5C149.353 66 149.233 65.98 149.14 65.94C149.06 65.9 149 65.82 148.96 65.7L148.18 63.4C147.967 62.7867 147.687 62.3867 147.34 62.2C146.993 62.0133 146.633 61.92 146.26 61.92H145.22V65.66Z" fill="white"/>
<path d="M161.307 60.94C161.307 61.5133 161.267 62.1067 161.187 62.72C161.12 63.3333 160.94 63.9 160.647 64.42C160.353 64.9267 159.913 65.3467 159.327 65.68C158.74 66 157.927 66.16 156.887 66.16C155.887 66.16 155.1 66 154.527 65.68C153.953 65.3467 153.52 64.9267 153.227 64.42C152.947 63.9 152.773 63.3333 152.707 62.72C152.64 62.1067 152.607 61.5133 152.607 60.94C152.607 60.4733 152.647 59.9533 152.727 59.38C152.82 58.8067 153.013 58.2733 153.307 57.78C153.6 57.2733 154.027 56.8533 154.587 56.52C155.16 56.1733 155.927 56 156.887 56C157.86 56 158.633 56.1467 159.207 56.44C159.793 56.7333 160.24 57.12 160.547 57.6C160.853 58.0667 161.053 58.5933 161.147 59.18C161.253 59.7667 161.307 60.3533 161.307 60.94ZM159.067 61.08C159.067 60.5467 159.04 60.0867 158.987 59.7C158.933 59.3 158.827 58.9733 158.667 58.72C158.507 58.4533 158.287 58.2533 158.007 58.12C157.727 57.9867 157.36 57.92 156.907 57.92C156.48 57.92 156.133 57.9867 155.867 58.12C155.6 58.2533 155.387 58.4533 155.227 58.72C155.08 58.9867 154.973 59.32 154.907 59.72C154.853 60.1067 154.827 60.56 154.827 61.08C154.827 61.6133 154.853 62.08 154.907 62.48C154.973 62.8667 155.08 63.1933 155.227 63.46C155.373 63.7133 155.58 63.9067 155.847 64.04C156.113 64.1733 156.46 64.24 156.887 64.24C157.34 64.24 157.707 64.18 157.987 64.06C158.28 63.9267 158.507 63.7333 158.667 63.48C158.827 63.2133 158.933 62.88 158.987 62.48C159.04 62.08 159.067 61.6133 159.067 61.08Z" fill="white"/>
<path d="M171.355 60.36L170.475 62.04C170.289 62.4 170.109 62.7533 169.935 63.1C169.762 63.4333 169.562 63.8 169.335 64.2C169.215 64.4267 169.022 64.54 168.755 64.54H168.075C167.889 64.54 167.755 64.5133 167.675 64.46C167.595 64.4067 167.529 64.3267 167.475 64.22C167.289 63.8733 167.109 63.5533 166.935 63.26C166.762 62.9667 166.595 62.66 166.435 62.34C166.262 62.0333 166.089 61.7 165.915 61.34C165.742 60.98 165.569 60.6467 165.395 60.34H165.355V65.6C165.355 65.8667 165.202 66 164.895 66H163.655C163.375 66 163.235 65.8667 163.235 65.6V56.62C163.235 56.3533 163.369 56.22 163.635 56.22H164.795C164.995 56.22 165.135 56.2467 165.215 56.3C165.309 56.3533 165.389 56.44 165.455 56.56C165.669 56.9467 165.875 57.3333 166.075 57.72C166.289 58.1067 166.495 58.4933 166.695 58.88C167.002 59.44 167.289 59.9933 167.555 60.54C167.835 61.0733 168.129 61.62 168.435 62.18L169.995 59.22L171.415 56.58C171.482 56.46 171.562 56.3733 171.655 56.32C171.762 56.2533 171.909 56.22 172.095 56.22H173.135C173.402 56.22 173.535 56.3467 173.535 56.6V65.6C173.535 65.8667 173.395 66 173.115 66H171.855C171.562 66 171.415 65.8667 171.415 65.6V60.36H171.355Z" fill="white"/>
<path d="M175.638 56.64C175.638 56.4933 175.664 56.3867 175.718 56.32C175.784 56.24 175.898 56.2 176.058 56.2H177.358C177.544 56.2 177.664 56.24 177.718 56.32C177.771 56.4 177.798 56.5067 177.798 56.64V62.48H177.838L180.458 58.92L182.238 56.56C182.318 56.4533 182.398 56.3667 182.478 56.3C182.571 56.2333 182.718 56.2 182.918 56.2H183.958C184.118 56.2 184.231 56.2467 184.298 56.34C184.364 56.42 184.398 56.5133 184.398 56.62V65.58C184.398 65.86 184.244 66 183.938 66H182.678C182.371 66 182.218 65.86 182.218 65.58V59.46H182.198C181.731 60.1 181.264 60.7333 180.798 61.36C180.331 61.9867 179.864 62.62 179.398 63.26C179.104 63.66 178.811 64.06 178.518 64.46C178.224 64.8467 177.924 65.24 177.618 65.64C177.538 65.7467 177.444 65.8333 177.338 65.9C177.244 65.9667 177.104 66 176.918 66H176.058C175.898 66 175.784 65.9667 175.718 65.9C175.664 65.8333 175.638 65.7267 175.638 65.58V56.64Z" fill="white"/>
<path d="M193.958 65.08C193.998 65.2267 193.998 65.3467 193.958 65.44C193.918 65.5333 193.804 65.62 193.618 65.7C193.231 65.86 192.751 65.9733 192.178 66.04C191.604 66.12 191.071 66.16 190.578 66.16C189.644 66.16 188.891 66.02 188.318 65.74C187.758 65.46 187.324 65.0867 187.018 64.62C186.724 64.1533 186.531 63.6133 186.438 63C186.344 62.3733 186.298 61.72 186.298 61.04C186.298 60.4267 186.344 59.82 186.438 59.22C186.544 58.6067 186.744 58.0667 187.038 57.6C187.344 57.12 187.778 56.7333 188.338 56.44C188.911 56.1467 189.658 56 190.578 56C190.804 56 191.051 56.0067 191.318 56.02C191.598 56.0333 191.871 56.06 192.138 56.1C192.418 56.14 192.684 56.1933 192.938 56.26C193.204 56.3133 193.444 56.3867 193.658 56.48C193.898 56.5867 193.998 56.7733 193.958 57.04L193.818 57.84C193.778 57.9867 193.711 58.0733 193.618 58.1C193.524 58.1267 193.384 58.1333 193.198 58.12C192.784 58.08 192.358 58.04 191.918 58C191.491 57.96 191.104 57.94 190.758 57.94C189.944 57.94 189.378 58.1733 189.058 58.64C188.738 59.1067 188.578 59.8933 188.578 61C188.578 61.6267 188.611 62.1467 188.678 62.56C188.758 62.9733 188.884 63.3067 189.058 63.56C189.231 63.8133 189.451 63.9933 189.718 64.1C189.998 64.1933 190.338 64.24 190.738 64.24C191.044 64.24 191.444 64.2267 191.938 64.2C192.444 64.16 192.904 64.1133 193.318 64.06C193.478 64.0333 193.598 64.0333 193.678 64.06C193.758 64.0867 193.811 64.1867 193.838 64.36L193.958 65.08Z" fill="white"/>
<path d="M202.922 65.08C202.962 65.2267 202.962 65.3467 202.922 65.44C202.882 65.5333 202.769 65.62 202.582 65.7C202.196 65.86 201.716 65.9733 201.142 66.04C200.569 66.12 200.036 66.16 199.542 66.16C198.609 66.16 197.856 66.02 197.282 65.74C196.722 65.46 196.289 65.0867 195.982 64.62C195.689 64.1533 195.496 63.6133 195.402 63C195.309 62.3733 195.262 61.72 195.262 61.04C195.262 60.4267 195.309 59.82 195.402 59.22C195.509 58.6067 195.709 58.0667 196.002 57.6C196.309 57.12 196.742 56.7333 197.302 56.44C197.876 56.1467 198.622 56 199.542 56C199.769 56 200.016 56.0067 200.282 56.02C200.562 56.0333 200.836 56.06 201.102 56.1C201.382 56.14 201.649 56.1933 201.902 56.26C202.169 56.3133 202.409 56.3867 202.622 56.48C202.862 56.5867 202.962 56.7733 202.922 57.04L202.782 57.84C202.742 57.9867 202.676 58.0733 202.582 58.1C202.489 58.1267 202.349 58.1333 202.162 58.12C201.749 58.08 201.322 58.04 200.882 58C200.456 57.96 200.069 57.94 199.722 57.94C198.909 57.94 198.342 58.1733 198.022 58.64C197.702 59.1067 197.542 59.8933 197.542 61C197.542 61.6267 197.576 62.1467 197.642 62.56C197.722 62.9733 197.849 63.3067 198.022 63.56C198.196 63.8133 198.416 63.9933 198.682 64.1C198.962 64.1933 199.302 64.24 199.702 64.24C200.009 64.24 200.409 64.2267 200.902 64.2C201.409 64.16 201.869 64.1133 202.282 64.06C202.442 64.0333 202.562 64.0333 202.642 64.06C202.722 64.0867 202.776 64.1867 202.802 64.36L202.922 65.08Z" fill="white"/>
<path d="M204.407 56.64C204.407 56.4933 204.434 56.3867 204.487 56.32C204.554 56.24 204.667 56.2 204.827 56.2H206.127C206.314 56.2 206.434 56.24 206.487 56.32C206.541 56.4 206.567 56.5067 206.567 56.64V62.48H206.607L209.227 58.92L211.007 56.56C211.087 56.4533 211.167 56.3667 211.247 56.3C211.341 56.2333 211.487 56.2 211.687 56.2H212.727C212.887 56.2 213.001 56.2467 213.067 56.34C213.134 56.42 213.167 56.5133 213.167 56.62V65.58C213.167 65.86 213.014 66 212.707 66H211.447C211.141 66 210.987 65.86 210.987 65.58V59.46H210.967C210.501 60.1 210.034 60.7333 209.567 61.36C209.101 61.9867 208.634 62.62 208.167 63.26C207.874 63.66 207.581 64.06 207.287 64.46C206.994 64.8467 206.694 65.24 206.387 65.64C206.307 65.7467 206.214 65.8333 206.107 65.9C206.014 65.9667 205.874 66 205.687 66H204.827C204.667 66 204.554 65.9667 204.487 65.9C204.434 65.8333 204.407 65.7267 204.407 65.58V56.64Z" fill="white"/>
<path d="M222.927 56.18C223.114 56.18 223.24 56.2133 223.307 56.28C223.374 56.3333 223.407 56.4333 223.407 56.58V65.58C223.407 65.8467 223.247 65.98 222.927 65.98H221.667C221.494 65.98 221.374 65.9467 221.307 65.88C221.254 65.8133 221.227 65.7133 221.227 65.58V62.18H219.207C218.86 62.2067 218.567 62.32 218.327 62.52C218.1 62.7067 217.894 63.08 217.707 63.64L217.067 65.58C217.014 65.74 216.947 65.8533 216.867 65.92C216.787 65.9733 216.654 66 216.467 66H215.147C214.96 66 214.847 65.9667 214.807 65.9C214.78 65.82 214.787 65.7067 214.827 65.56L215.527 63.42C215.674 63.02 215.827 62.6733 215.987 62.38C216.147 62.0733 216.374 61.84 216.667 61.68C216.374 61.5733 216.134 61.4333 215.947 61.26C215.76 61.0733 215.614 60.8733 215.507 60.66C215.4 60.4333 215.327 60.2 215.287 59.96C215.247 59.72 215.227 59.4867 215.227 59.26C215.227 58.7533 215.32 58.3133 215.507 57.94C215.694 57.5533 215.947 57.2333 216.267 56.98C216.587 56.7133 216.96 56.5133 217.387 56.38C217.827 56.2467 218.287 56.18 218.767 56.18H222.927ZM217.387 59.26C217.387 59.6467 217.5 59.9467 217.727 60.16C217.967 60.3733 218.367 60.48 218.927 60.48H221.227V57.98H219.027C218.547 57.98 218.154 58.0867 217.847 58.3C217.54 58.5133 217.387 58.8333 217.387 59.26Z" fill="white"/>
<path fill-rule="evenodd" clip-rule="evenodd" d="M263 66.6995H266.3V27.9995H263V66.6995Z" fill="white"/>
</svg>
