<svg width="290" height="72" viewBox="0 0 290 72" fill="none" xmlns="http://www.w3.org/2000/svg">
<path fill-rule="evenodd" clip-rule="evenodd" d="M0 24.5C0 24.5 39.8 19.3 41 19.1C42.7 18.8 44.3 18.5 45.7 18.1C48.9 17.2 51.9 15.9 54.5 14.1C57 12.4 59.4 9.9 61.7 7.2C63.2 5.5 64.7 3.2 66.2 1V0C64.5 2.6 62.8 4.8 61.1 6.7C58.8 9.3 56.4 11.4 53.9 13C51.4 14.6 48.5 15.9 45.4 16.7C44 17.1 42.5 17.3 40.8 17.6C39.7 17.8 38.6 17.9 37.5 18C37 18 0 21.9 0 21.9V24.5Z" fill="white"/>
<mask id="mask0_601_7973" style="mask-type:alpha" maskUnits="userSpaceOnUse" x="0" y="5" width="67" height="24">
<path fill-rule="evenodd" clip-rule="evenodd" d="M0 5.2002H66.0999V28.0002H0V5.2002Z" fill="white"/>
</mask>
<g mask="url(#mask0_601_7973)">
<path fill-rule="evenodd" clip-rule="evenodd" d="M53.4 17.8002C50.9 19.2002 48 20.3002 44.8 20.9002C43.4 21.2002 42 21.4002 40.3 21.6002C39.3 21.7002 38.3 21.8002 37.3 21.9002C36.8 21.9002 36.2 22.0002 35.7 22.0002C23.5 23.2002 11.4 24.3002 0 25.4002V28.0002C11.4 26.6002 23.7 25.1002 35.9 23.7002C36.4 23.6002 37 23.6002 37.5 23.5002C38.5 23.4002 39.5 23.3002 40.5 23.1002C42.2 22.9002 43.8 22.6002 45.1 22.3002C48.4 21.6002 51.4 20.4002 54 18.8002C56.6 17.2002 58.8 15.1002 61.3 12.4002C62.8 10.7002 64.5 8.4002 66.1 6.2002V5.2002C64.2 7.7002 62.5 9.9002 60.7 11.7002C58.3 14.4002 55.9 16.4002 53.4 17.8002" fill="white"/>
</g>
<mask id="mask1_601_7973" style="mask-type:alpha" maskUnits="userSpaceOnUse" x="0" y="10" width="67" height="22">
<path fill-rule="evenodd" clip-rule="evenodd" d="M0 10.9004H66.0999V31.5004H0V10.9004Z" fill="white"/>
</mask>
<g mask="url(#mask1_601_7973)">
<path fill-rule="evenodd" clip-rule="evenodd" d="M60.4 17.2004C58 19.4004 55.4 21.2004 52.9 22.5004C50.4 23.7004 47.6 24.6004 44.3 25.1004C42.9 25.3004 41.5 25.5004 39.8 25.7004L0 28.9004V31.5004L35.3 27.7004L39.9 27.2004C41.6 27.0004 43.1 26.8004 44.5 26.5004C47.9 25.9004 50.8 24.9004 53.4 23.6004C56.1 22.2004 58.7 20.0004 61.2 17.6004C62.9 16.0004 64.4 13.9004 66.1 11.8004V10.9004C64.1 13.4004 62.3 15.4004 60.4 17.2004" fill="white"/>
</g>
<mask id="mask2_601_7973" style="mask-type:alpha" maskUnits="userSpaceOnUse" x="0" y="21" width="67" height="18">
<path fill-rule="evenodd" clip-rule="evenodd" d="M0 21.7002H66.1998V38.5002H0V21.7002Z" fill="white"/>
</mask>
<g mask="url(#mask2_601_7973)">
<path fill-rule="evenodd" clip-rule="evenodd" d="M50.8 30.6002C48.5 31.9002 46.8 32.7002 43.5 33.0002C41.5 33.2002 39.5 33.3002 37.5 33.4002C36.5 33.4002 35.6 33.5002 34.6 33.6002C28.6 33.9002 22.7 34.3002 16.7 34.7002L0 35.9002V38.5002L16.8 36.9002C22.2 36.4002 28.5 35.8002 34.7 35.3002L39.2 35.0002C40.9 34.9002 42.4 34.7002 43.7 34.5002C47.1 34.1002 50 33.4002 52.6 32.4002C55.4 31.4002 58 29.7002 60.6 27.8002C63 26.1002 66.2 22.7002 66.2 22.6002V21.7002C64.1 23.8002 62.8 25.0002 60.5 26.5002C57.6 28.5002 52.9 29.5002 50.8 30.6002" fill="white"/>
</g>
<path fill-rule="evenodd" clip-rule="evenodd" d="M51.5996 35.6004C49.0996 36.3004 46.2996 36.8004 42.9996 37.1004C41.6996 37.2004 40.1996 37.3004 38.5996 37.4004L34.1996 37.6004C23.1996 38.1004 12.1996 38.7004 0.0996094 39.3004V41.9004C11.6996 41.0004 22.9996 40.1004 34.3996 39.3004L38.7996 39.0004C40.4996 38.9004 41.8996 38.8004 43.2996 38.6004C46.6996 38.2004 49.5996 37.6004 52.0996 36.8004C54.8996 35.9004 57.6996 34.6004 60.2996 32.9004C62.1996 31.7004 64.1996 30.2004 66.1996 28.4004C63.9996 30.3004 61.8996 30.7004 59.7996 32.0004C57.0996 33.6004 54.3996 34.8004 51.5996 35.6004" fill="white"/>
<path fill-rule="evenodd" clip-rule="evenodd" d="M51.2 39.9002C48.7 40.5002 45.9 40.9002 42.6 41.0992C41.3 41.2002 39.9 41.2992 38.2 41.2992L33.8 41.5002C22.7 41.9002 11.5 42.4002 0 42.9002V45.5002C11.4 44.7002 22.6 44.0002 33.9 43.2002L38.3 42.9002C40 42.7992 41.4 42.7002 42.7 42.5992C46.1 42.2992 48.9 41.7992 51.5 41.0992C54.4 40.2992 57.2 39.2002 59.9 37.7992C62 36.7002 64 35.4002 66.1 33.7992V32.7002C63.8 34.4002 61.6 35.7002 59.4 36.7992C56.8 38.2002 54 39.2002 51.2 39.9002" fill="white"/>
<mask id="mask3_601_7973" style="mask-type:alpha" maskUnits="userSpaceOnUse" x="0" y="38" width="67" height="11">
<path fill-rule="evenodd" clip-rule="evenodd" d="M0 38.2002H66.1998V48.7992H0V38.2002Z" fill="white"/>
</mask>
<g mask="url(#mask3_601_7973)">
<path fill-rule="evenodd" clip-rule="evenodd" d="M50.8 44.0992C48.3 44.5992 45.5 44.9002 42.2 44.9992C40.9 45.0992 39.6 45.0992 37.9 45.2002L0 46.2002V48.7992L33.6 46.9992L38 46.7992C39.7 46.7002 41.1 46.5992 42.4 46.4992C45.8 46.2002 48.5 45.9002 51.1 45.2992C54 44.7002 56.9 43.7992 59.6 42.5992C61.8 41.7002 63.9 40.5992 66.2 39.2002V38.2002C63.8 39.5992 61.5 40.7002 59.2 41.5992C56.5 42.7992 53.7 43.5992 50.8 44.0992" fill="white"/>
</g>
<path fill-rule="evenodd" clip-rule="evenodd" d="M50.5 48.2998C45.8 48.9008 41.1 48.9998 36.4 49.0998C35.3 49.0998 34.3 49.0998 33.2 49.1998L0 49.7998V52.4008L33.3 50.9998C34.4 50.9998 35.4 50.9008 36.5 50.9008C41.2 50.6998 46 50.4998 50.7 49.7998C53.7 49.2998 56.6 48.5998 59.2 47.6998C61.4 46.9998 63.7 45.9998 66 44.7998V43.7998C63.6 44.9008 61.1 45.9008 58.8 46.5998C56.3 47.2998 53.5 47.9998 50.5 48.2998" fill="white"/>
<mask id="mask4_601_7973" style="mask-type:alpha" maskUnits="userSpaceOnUse" x="0" y="49" width="67" height="7">
<path fill-rule="evenodd" clip-rule="evenodd" d="M0 49.2002H66.1998V55.7992H0V49.2002Z" fill="white"/>
</mask>
<g mask="url(#mask4_601_7973)">
<path fill-rule="evenodd" clip-rule="evenodd" d="M50.3 52.5992C45.9 52.9992 41.5 52.9992 37.1 52.9992H33.1C22.1 52.9992 11.1 53.0992 0 53.2002V55.7992C10.6 55.4002 21.9 55.0992 33.2 54.7002C34.5 54.7002 35.9 54.5992 37.2 54.5992C41.5 54.4992 46 54.4002 50.4 53.9002C53.5 53.5992 56.3 53.0992 59 52.4002C61.3 51.7992 63.7 50.9992 66.2 50.0992V49.2002C63.7 50.0992 61.2 50.7992 58.8 51.4002C56.1 51.9992 53.3 52.4002 50.3 52.5992" fill="white"/>
</g>
<path fill-rule="evenodd" clip-rule="evenodd" d="M50.1 56.7994C48.3 56.9004 46.3 56.9004 44.1 56.9004H41.6L33 56.7994C27.1 56.7994 21.3 56.6994 15.8 56.6994L0 56.7994V59.4004L15.9 58.9994C21.4 58.9004 27.2 58.6994 33 58.5994L41.6 58.4994C44 58.4994 47.1 58.4004 50.2 58.1994C53.3 57.9994 56.1 57.6994 58.8 57.2994C61.2 56.9004 63.7 56.4004 66.2 55.7994V54.9004C63.7 55.4994 61.1 55.9994 58.7 56.2994C55.9 56.4994 53.2 56.6994 50.1 56.7994" fill="white"/>
<path fill-rule="evenodd" clip-rule="evenodd" d="M41.5 60.9L32.9 60.799C22 60.599 11.1 60.4 0 60.2V62.799C10.6 62.7 21.8 62.599 32.9 62.5L41.5 62.4C44.4 62.4 47.2 62.299 50.1 62.2C56 62 61.2 61.599 66.2 60.9V60C61.3 60.5 56 60.799 50.1 60.9H41.5" fill="white"/>
<path fill-rule="evenodd" clip-rule="evenodd" d="M66.1 65.4998L0 63.7998V66.3998H66.1V65.4998Z" fill="white"/>
<path fill-rule="evenodd" clip-rule="evenodd" d="M60.2 22.0004C57.7 24.0004 55.7 25.5004 52.7 26.7004C50 27.8004 47.1 28.2004 43.9 28.7004C41.8 29.0004 39.6 29.4004 37.5 29.6004C36.6 29.7004 35.8 29.7004 34.9 29.8004L0 32.3004V34.9004L34.9 31.5004L39.4 31.1004C41.1 30.9004 42.6 30.8004 44 30.5004C47.4 30.0004 50.3 29.1004 52.9 27.9004C55.6 26.7004 58.4 24.7004 60.9 22.6004C62.6 21.1004 64.3 19.3004 66.1 17.3004V16.4004C63.9 18.6004 62.1 20.5004 60.2 22.0004" fill="white"/>
<path fill-rule="evenodd" clip-rule="evenodd" d="M94.2012 0C94.2012 0 106.101 18.9 108.301 22.4C110.501 25.9 113.001 28.6 121.801 30.5C130.601 32.4 134.401 33.2 134.401 33.2V33.9C134.401 33.9 128.801 32.7 121.601 31.1C114.401 29.5 111.501 29 108.201 24.4C105.501 20.6 94.2012 4.5 94.2012 4.5V0Z" fill="white"/>
<path fill-rule="evenodd" clip-rule="evenodd" d="M94.2012 21.6006C94.2012 21.6006 105.001 32.9006 108.201 36.2006C111.501 39.7006 115.801 40.9006 121.701 42.0006C127.301 43.0006 134.401 44.2006 134.401 44.2006V44.8006C134.401 44.8006 127.701 43.7006 121.701 42.7006C115.801 41.7006 111.601 41.1006 108.201 38.0006C105.201 35.2006 94.3012 25.0006 94.3012 25.0006L94.2012 21.6006Z" fill="white"/>
<path fill-rule="evenodd" clip-rule="evenodd" d="M94.2012 26.7998C94.2012 26.7998 104.501 36.3998 108.201 39.5998C111.601 42.5998 114.301 43.4998 121.701 44.9008C129.101 46.1998 134.401 46.9998 134.401 46.9998V47.6998C134.401 47.6998 127.701 46.5998 121.701 45.5998C115.701 44.5998 111.801 44.2998 108.201 41.2998C104.001 37.9008 94.2012 29.8998 94.2012 29.8998V26.7998Z" fill="white"/>
<path fill-rule="evenodd" clip-rule="evenodd" d="M94.2012 32.2002C94.2012 32.2002 106.001 41.5002 108.201 43.2002C110.401 44.8002 113.301 46.7002 121.701 48.0002C130.101 49.2002 134.401 49.8002 134.401 49.8002V50.5002C134.401 50.5002 126.801 49.4002 121.701 48.8002C116.601 48.2002 112.701 47.9002 108.201 44.9002C103.801 42.0002 94.2012 35.2002 94.2012 35.2002V32.2002Z" fill="white"/>
<path fill-rule="evenodd" clip-rule="evenodd" d="M94.2012 37.4004C94.2012 37.4004 106.001 45.2994 108.201 46.5004C110.401 47.7004 113.101 49.7994 121.701 50.9004C130.301 52.0004 134.401 52.5004 134.401 52.5004V53.2004C134.401 53.2004 127.301 52.4004 121.701 51.7994C116.101 51.2004 112.301 50.4004 108.201 48.0994C104.101 45.7994 94.2012 40.0994 94.2012 40.0994V37.4004Z" fill="white"/>
<path fill-rule="evenodd" clip-rule="evenodd" d="M94.2012 42.7002C94.2012 42.7002 104.601 48.4002 108.201 50.0992C112.101 52.0992 115.501 53.0002 121.701 53.8002C127.801 54.5002 134.401 55.2002 134.401 55.2002V55.8002C134.401 55.8002 128.301 55.0992 121.701 54.5002C115.201 53.9002 112.901 53.5992 108.201 51.5002C104.001 49.5992 94.2012 45.0992 94.2012 45.0992V42.7002Z" fill="white"/>
<path fill-rule="evenodd" clip-rule="evenodd" d="M94.1996 48C94.1996 48 102.4 51.5 108.2 53.8C113.9 56.1 118.2 56.3 121.7 56.6C123.2 56.8 134.3 57.9 134.3 57.9V58.5C134.3 58.5 127.7 58 121.6 57.4C115.6 56.9 113 56.6 108.1 55C103.2 53.4 94.0996 50.2 94.0996 50.2L94.1996 48Z" fill="white"/>
<path fill-rule="evenodd" clip-rule="evenodd" d="M94.2012 53.4004C94.2012 53.4004 102.501 56.0004 108.201 57.5004C113.901 59.0004 119.101 59.5994 121.701 59.7994C124.301 60.0004 134.401 60.7994 134.401 60.7994V61.4004C134.401 61.4004 128.701 61.0004 121.701 60.5004C116.001 60.0994 111.501 59.7004 108.201 58.9004C104.501 58.0994 94.2012 55.5994 94.2012 55.5994V53.4004Z" fill="white"/>
<path fill-rule="evenodd" clip-rule="evenodd" d="M94.2012 58.7002C94.2012 58.7002 101.001 59.9002 108.201 61.0992C113.601 62.0002 120.901 62.5992 121.701 62.5992C122.501 62.5992 134.401 63.5002 134.401 63.5002V64.0992C134.401 64.0992 126.801 63.7002 121.701 63.4002C116.401 63.0992 111.201 62.8002 108.201 62.5002C101.501 61.8002 94.2012 60.9002 94.2012 60.9002V58.7002Z" fill="white"/>
<path fill-rule="evenodd" clip-rule="evenodd" d="M94.2012 64.2998C94.2012 64.2998 104.901 64.6998 108.201 64.7998C111.501 64.9008 134.401 65.7998 134.401 65.7998V66.4008H94.2012V64.2998Z" fill="white"/>
<path fill-rule="evenodd" clip-rule="evenodd" d="M121.701 33.3994C112.001 31.2994 109.801 27.7994 108.201 25.5994C106.601 23.3994 94.3008 5.39941 94.3008 5.39941V9.49941C94.8008 10.0994 105.301 23.8994 108.301 27.6994C111.601 31.9994 116.801 32.9994 121.801 33.9994C126.801 35.0994 134.501 36.5994 134.501 36.5994V35.9994C134.401 35.9994 124.201 33.9994 121.701 33.3994" fill="white"/>
<path fill-rule="evenodd" clip-rule="evenodd" d="M121.701 36.2994C113.701 34.6994 110.501 32.1994 108.201 29.1994C105.901 26.0994 94.3008 10.8994 94.3008 10.8994V14.6994C94.8008 15.2994 105.401 27.7994 108.201 31.0994C111.501 34.8994 116.101 35.8994 121.701 36.8994C127.301 37.9004 134.401 39.2994 134.401 39.2994V38.6994C134.401 38.6994 126.301 37.1994 121.701 36.2994" fill="white"/>
<path fill-rule="evenodd" clip-rule="evenodd" d="M121.701 39.2006C113.401 37.5996 111.701 36.3006 108.201 32.4006C106.001 30.0006 94.7012 16.7006 94.2012 16.1006V19.6006C94.2012 19.6006 104.701 30.8006 108.101 34.2006C112.501 38.5996 116.701 38.9006 121.601 39.8006C126.501 40.7006 134.301 42.0996 134.301 42.0996V41.5006C134.401 41.5006 125.001 39.9006 121.701 39.2006" fill="white"/>
<mask id="mask5_601_7973" style="mask-type:alpha" maskUnits="userSpaceOnUse" x="0" y="0" width="277" height="67">
<path fill-rule="evenodd" clip-rule="evenodd" d="M0 66.7H276.7V0H0V66.7Z" fill="white"/>
</mask>
<g mask="url(#mask5_601_7973)">
<path fill-rule="evenodd" clip-rule="evenodd" d="M27.5 66.2996H85.4V27.5996H27.5V66.2996Z" fill="#004494"/>
<path fill-rule="evenodd" clip-rule="evenodd" d="M26.5 26.6H86.4V67.3H26.5V26.6ZM28.5 28.6V65.3H84.4V28.6H28.5Z" fill="white"/>
<path fill-rule="evenodd" clip-rule="evenodd" d="M57.1004 33.1006H59.1004L57.5004 34.4006L58.1004 36.4006L56.5004 35.2006L54.9004 36.4006L55.5004 34.4006L53.9004 33.1006H55.9004L56.5004 31.1006L57.1004 33.1006Z" fill="#FFF100"/>
<path fill-rule="evenodd" clip-rule="evenodd" d="M57.1004 58.9H59.1004L57.5004 60.099L58.1004 62L56.5004 60.799L54.9004 62L55.5004 60.099L53.9004 58.9H55.9004L56.5004 57L57.1004 58.9Z" fill="#FFF100"/>
<path fill-rule="evenodd" clip-rule="evenodd" d="M63.5008 57.1998H65.5008L63.9008 58.3998L64.5008 60.2998L62.9008 59.0988L61.3008 60.2998L61.9008 58.3998L60.3008 57.1998H62.3008L62.9008 55.2998L63.5008 57.1998Z" fill="#FFF100"/>
<path fill-rule="evenodd" clip-rule="evenodd" d="M63.5004 34.7994H65.5004L63.9004 35.9994L64.5004 37.9004L62.9004 36.6994L61.3004 37.9994L62.0004 35.9994L60.4004 34.7994H62.4004L63.0004 32.8994L63.5004 34.7994Z" fill="#FFF100"/>
<path fill-rule="evenodd" clip-rule="evenodd" d="M68.2996 39.5992H70.2996L68.6996 40.7992L69.2996 42.7002L67.6996 41.4992L66.0996 42.7002L66.6996 40.7992L65.0996 39.5992H67.0996L67.6996 37.7002L68.2996 39.5992Z" fill="#FFF100"/>
<path fill-rule="evenodd" clip-rule="evenodd" d="M68.2996 52.5992H70.2996L68.6996 53.7992L69.2996 55.7002L67.6996 54.4992L66.0996 55.7002L66.6996 53.7992L65.0996 52.5992H67.0996L67.6996 50.7002L68.2996 52.5992Z" fill="#FFF100"/>
<path fill-rule="evenodd" clip-rule="evenodd" d="M70.1008 45.9996H72.1008L70.5008 47.1996L71.1008 49.0996L69.5008 47.8996L67.9008 49.0996L68.5008 47.1996L66.8008 45.9996H68.8008L69.4008 44.0996L70.1008 45.9996Z" fill="#FFF100"/>
<path fill-rule="evenodd" clip-rule="evenodd" d="M50.5008 34.8H52.5008L50.9008 36L51.5008 37.901L50.0008 36.8L48.3008 38L48.9008 36.1L47.3008 34.9H49.3008L50.0008 33L50.5008 34.8Z" fill="#FFF100"/>
<path fill-rule="evenodd" clip-rule="evenodd" d="M45.8992 39.5992H47.8992L46.2992 40.7992L46.8992 42.7002L45.2992 41.4992L43.6992 42.7002L44.2992 40.7992L42.6992 39.5992H44.6992L45.2992 37.7002L45.8992 39.5992Z" fill="#FFF100"/>
<path fill-rule="evenodd" clip-rule="evenodd" d="M44.2 45.9996H46.2L44.6 47.1996L45.2 49.0996L43.6 47.8996L42 49.0996L42.6 47.1996L41 45.9996H43L43.6 44.0996L44.2 45.9996Z" fill="#FFF100"/>
<path fill-rule="evenodd" clip-rule="evenodd" d="M45.8992 52.5992H47.8992L46.2992 53.7992L46.8992 55.7002L45.2992 54.4992L43.6992 55.7002L44.2992 53.7992L42.6992 52.5992H44.6992L45.2992 50.7002L45.8992 52.5992Z" fill="#FFF100"/>
<path fill-rule="evenodd" clip-rule="evenodd" d="M50.6004 57.2994H52.6004L51.0004 58.4994L51.6004 60.4004L50.0004 59.1994L48.4004 60.4004L49.0004 58.4994L47.4004 57.2994H49.4004L50.0004 55.4004L50.6004 57.2994Z" fill="#FFF100"/>
</g>
<path d="M143 36.5233C143 36.3233 143.105 36.2232 143.314 36.2232H148.978C149.177 36.2232 149.277 36.3233 149.277 36.5233V37.5025C149.277 37.6921 149.172 37.7868 148.963 37.7868H144.773V40.5034H148.429C148.628 40.5034 148.727 40.5981 148.727 40.7877V41.7669C148.727 41.9669 148.623 42.067 148.413 42.067H144.789V46.4103C144.789 46.6103 144.689 46.7104 144.491 46.7104H143.314C143.105 46.7104 143 46.6103 143 46.4103V36.5233Z" fill="white"/>
<path d="M152.387 46.4103C152.387 46.6103 152.288 46.7104 152.089 46.7104H150.96C150.761 46.7104 150.661 46.6103 150.661 46.4103V39.2872C150.661 39.0767 150.761 38.9714 150.96 38.9714H152.074C152.283 38.9714 152.387 39.0767 152.387 39.2872V39.9822L152.419 40.0138C152.534 39.9085 152.686 39.7979 152.874 39.6821C153.062 39.5557 153.261 39.4452 153.47 39.3504C153.69 39.2451 153.909 39.1504 154.129 39.0661C154.349 38.9819 154.553 38.924 154.741 38.8924C154.846 38.8713 154.929 38.8766 154.992 38.9082C155.055 38.9398 155.097 39.024 155.118 39.1609L155.228 40.2191C155.238 40.3349 155.233 40.4191 155.212 40.4718C155.191 40.5244 155.097 40.5665 154.929 40.5981C154.71 40.6403 154.48 40.6929 154.239 40.7561C153.998 40.8087 153.763 40.8719 153.533 40.9456C153.303 41.0088 153.088 41.072 152.89 41.1351C152.691 41.1983 152.523 41.2615 152.387 41.3247V46.4103Z" fill="white"/>
<path d="M160.849 43.1883H158.935C158.537 43.1883 158.223 43.2831 157.993 43.4726C157.763 43.6516 157.648 43.9991 157.648 44.515C157.648 44.8625 157.716 45.1047 157.852 45.2415C157.998 45.3679 158.255 45.4311 158.621 45.4311C158.788 45.4311 158.971 45.41 159.17 45.3679C159.369 45.3258 159.568 45.2679 159.766 45.1942C159.965 45.1204 160.159 45.0415 160.347 44.9572C160.535 44.8625 160.703 44.773 160.849 44.6887V43.1883ZM160.943 45.8101C160.546 46.1155 160.096 46.3629 159.594 46.5524C159.102 46.742 158.59 46.8367 158.056 46.8367C157.638 46.8367 157.287 46.7841 157.005 46.6788C156.733 46.563 156.513 46.4103 156.346 46.2208C156.189 46.0207 156.074 45.7838 156 45.51C155.938 45.2363 155.906 44.9309 155.906 44.594C155.896 43.6674 156.136 42.9988 156.628 42.5882C157.12 42.167 157.862 41.9564 158.856 41.9564H160.865V41.5458C160.865 41.3141 160.839 41.1193 160.786 40.9614C160.744 40.7929 160.661 40.656 160.535 40.5508C160.41 40.4455 160.242 40.3718 160.033 40.3296C159.824 40.2875 159.557 40.2665 159.233 40.2665C159.107 40.2665 158.95 40.2717 158.762 40.2823C158.584 40.2928 158.396 40.3033 158.197 40.3138C158.009 40.3244 157.815 40.3402 157.617 40.3612C157.428 40.3823 157.256 40.3981 157.099 40.4086C156.942 40.4297 156.832 40.4349 156.769 40.4244C156.717 40.4033 156.68 40.3349 156.659 40.2191L156.518 39.6347C156.497 39.5294 156.508 39.4452 156.55 39.382C156.592 39.3083 156.701 39.2346 156.879 39.1609C157.047 39.0977 157.245 39.0451 157.475 39.003C157.706 38.9608 157.941 38.9293 158.182 38.9082C158.422 38.8766 158.658 38.8555 158.888 38.845C159.128 38.824 159.343 38.8134 159.531 38.8134C160.211 38.8134 160.75 38.8819 161.147 39.0187C161.555 39.1556 161.864 39.3504 162.073 39.6031C162.282 39.8453 162.418 40.1454 162.481 40.5034C162.544 40.8614 162.575 41.2615 162.575 41.7037V44.7519C162.575 44.9099 162.58 45.0362 162.591 45.131C162.612 45.2152 162.638 45.2837 162.669 45.3363C162.711 45.3784 162.769 45.41 162.842 45.4311C162.915 45.4521 163.014 45.4679 163.14 45.4784C163.255 45.489 163.334 45.51 163.375 45.5416C163.417 45.5732 163.438 45.6311 163.438 45.7153V46.3787C163.438 46.5577 163.313 46.6682 163.062 46.7104C162.936 46.7314 162.81 46.7472 162.685 46.7577C162.559 46.7788 162.439 46.7893 162.324 46.7893C161.958 46.7893 161.66 46.7209 161.43 46.584C161.21 46.4471 161.058 46.1944 160.975 45.8259L160.943 45.8101Z" fill="white"/>
<path d="M175.803 46.4103C175.803 46.505 175.783 46.5787 175.741 46.6314C175.709 46.684 175.636 46.7104 175.521 46.7104H174.391C174.192 46.7104 174.093 46.6103 174.093 46.4103V41.9248C174.093 41.3352 174.015 40.9403 173.858 40.7403C173.701 40.5297 173.424 40.4244 173.026 40.4244C172.88 40.4244 172.712 40.4507 172.524 40.5034C172.346 40.556 172.163 40.6192 171.975 40.6929C171.797 40.7561 171.624 40.8298 171.457 40.914C171.29 40.9982 171.143 41.072 171.018 41.1351C171.018 41.2194 171.018 41.3299 171.018 41.4668C171.028 41.6037 171.033 41.7616 171.033 41.9406V46.4103C171.033 46.505 171.012 46.5787 170.971 46.6314C170.929 46.684 170.85 46.7104 170.735 46.7104H169.59C169.412 46.7104 169.323 46.6103 169.323 46.4103V41.8459C169.323 41.3615 169.25 41.0035 169.103 40.7719C168.957 40.5402 168.685 40.4244 168.287 40.4244C168.151 40.4244 167.994 40.4455 167.817 40.4876C167.649 40.5297 167.471 40.5876 167.283 40.6613C167.105 40.735 166.927 40.814 166.75 40.8982C166.572 40.9825 166.41 41.0614 166.263 41.1351V46.4103C166.263 46.6103 166.164 46.7104 165.965 46.7104H164.835C164.647 46.7104 164.553 46.6103 164.553 46.4103V39.2872C164.553 39.0767 164.647 38.9714 164.835 38.9714H165.949C166.159 38.9714 166.263 39.0767 166.263 39.2872V39.7453L166.279 39.7611C166.436 39.6558 166.603 39.5505 166.781 39.4452C166.959 39.3294 167.147 39.2293 167.346 39.1451C167.555 39.0609 167.764 38.9924 167.974 38.9398C168.183 38.8766 168.397 38.8398 168.617 38.8292C169.067 38.8292 169.475 38.9029 169.841 39.0503C170.217 39.1872 170.526 39.482 170.767 39.9348C171.164 39.64 171.598 39.382 172.069 39.1609C172.54 38.9398 173.026 38.8292 173.528 38.8292C174.041 38.8292 174.449 38.9082 174.752 39.0661C175.056 39.2241 175.286 39.4399 175.443 39.7137C175.599 39.9769 175.699 40.2875 175.741 40.6455C175.783 41.0035 175.803 41.3773 175.803 41.7669V46.4103Z" fill="white"/>
<path d="M179.29 41.8301L180.499 40.5508L181.801 39.2241C181.885 39.1398 181.963 39.0767 182.036 39.0345C182.11 38.9819 182.219 38.9556 182.366 38.9556H183.621C183.768 38.9556 183.851 38.9924 183.872 39.0661C183.904 39.1398 183.877 39.2241 183.794 39.3188L181.283 41.8932L184.108 46.3471C184.16 46.4419 184.165 46.5261 184.123 46.5998C184.092 46.6735 184.019 46.7104 183.904 46.7104H182.695C182.528 46.7104 182.408 46.684 182.334 46.6314C182.261 46.5787 182.198 46.505 182.146 46.4103L180.138 43.1725L179.243 44.0886V46.4103C179.243 46.4945 179.222 46.5682 179.181 46.6314C179.139 46.684 179.06 46.7104 178.945 46.7104H177.831C177.632 46.7104 177.533 46.6103 177.533 46.4103V35.8758C177.533 35.6652 177.632 35.5599 177.831 35.5599H178.945C179.06 35.5599 179.139 35.5915 179.181 35.6547C179.222 35.7073 179.243 35.781 179.243 35.8758V41.8143L179.29 41.8301Z" fill="white"/>
<path d="M188.209 44.7677C188.209 44.7361 188.241 44.6256 188.303 44.436C188.366 44.236 188.434 44.0201 188.507 43.7885C188.591 43.5147 188.69 43.2147 188.806 42.8882L190.061 39.2241C190.092 39.1398 190.129 39.0767 190.171 39.0345C190.223 38.9924 190.307 38.9714 190.422 38.9714H191.614C191.823 38.9714 191.886 39.0714 191.803 39.2715L189.135 46.3787C189.093 46.4945 189.041 46.5787 188.978 46.6314C188.915 46.684 188.821 46.7104 188.696 46.7104H187.644C187.498 46.7104 187.399 46.6893 187.346 46.6472C187.294 46.5945 187.247 46.5103 187.205 46.3945L184.538 39.2872C184.506 39.203 184.501 39.1293 184.522 39.0661C184.543 39.003 184.605 38.9714 184.71 38.9714H185.95C186.065 38.9714 186.143 38.9924 186.185 39.0345C186.237 39.0661 186.284 39.1398 186.326 39.2557L187.582 42.9514C187.676 43.2568 187.765 43.5411 187.848 43.8043C187.922 44.0254 187.984 44.236 188.037 44.436C188.099 44.6256 188.141 44.7361 188.162 44.7677H188.209Z" fill="white"/>
<path d="M201.108 38.8292C201.809 38.8292 202.379 38.9345 202.818 39.1451C203.268 39.3557 203.613 39.6347 203.854 39.9822C204.105 40.3191 204.272 40.7034 204.356 41.1351C204.45 41.5668 204.497 42.0038 204.497 42.446C204.497 42.7092 204.445 42.9251 204.34 43.0936C204.236 43.262 204.032 43.3463 203.728 43.3463H199.507C199.518 43.7464 199.56 44.0781 199.633 44.3413C199.706 44.594 199.811 44.7993 199.947 44.9572C200.093 45.1047 200.281 45.2099 200.512 45.2731C200.742 45.3258 201.024 45.3521 201.359 45.3521C201.505 45.3521 201.668 45.3468 201.845 45.3363C202.034 45.3258 202.227 45.3152 202.426 45.3047C202.625 45.2836 202.818 45.2626 203.007 45.2415C203.195 45.2205 203.362 45.1994 203.509 45.1784C203.624 45.1468 203.713 45.1415 203.775 45.1626C203.849 45.1731 203.901 45.2468 203.932 45.3837L204.058 45.9838C204.11 46.2155 204.011 46.3734 203.76 46.4577C203.603 46.5208 203.414 46.5787 203.195 46.6314C202.975 46.6735 202.745 46.7104 202.504 46.742C202.264 46.7735 202.023 46.7999 201.783 46.8209C201.552 46.842 201.343 46.8525 201.155 46.8525C200.412 46.8525 199.816 46.7525 199.366 46.5524C198.927 46.3418 198.587 46.0575 198.346 45.6996C198.263 45.7627 198.179 45.8259 198.095 45.8891C198.011 45.9417 197.917 45.9996 197.813 46.0628C197.426 46.2945 196.997 46.484 196.526 46.6314C196.055 46.7683 195.532 46.8367 194.957 46.8367C194.528 46.8367 194.172 46.7841 193.89 46.6788C193.607 46.5735 193.383 46.4208 193.215 46.2208C193.048 46.0207 192.927 45.7891 192.854 45.5258C192.791 45.2521 192.76 44.9467 192.76 44.6098C192.76 43.7253 193.001 43.0936 193.482 42.7145C193.963 42.3249 194.706 42.1301 195.71 42.1301H197.719V41.5458C197.719 41.3141 197.692 41.1193 197.64 40.9614C197.598 40.7929 197.515 40.6613 197.389 40.5665C197.263 40.4613 197.096 40.3876 196.887 40.3454C196.678 40.3033 196.411 40.2823 196.087 40.2823C195.961 40.2823 195.809 40.2875 195.632 40.2981C195.454 40.3086 195.265 40.3191 195.067 40.3296C194.868 40.3402 194.669 40.356 194.47 40.377C194.282 40.3981 194.104 40.4139 193.937 40.4244C193.843 40.4349 193.754 40.4402 193.67 40.4402C193.597 40.4297 193.545 40.356 193.513 40.2191L193.372 39.6347C193.351 39.5189 193.362 39.4347 193.403 39.382C193.445 39.3188 193.555 39.2504 193.733 39.1767C193.9 39.1135 194.099 39.0609 194.329 39.0187C194.559 38.9766 194.795 38.9398 195.035 38.9082C195.276 38.8766 195.511 38.8555 195.741 38.845C195.982 38.8345 196.196 38.8292 196.385 38.8292C197.033 38.8292 197.546 38.8977 197.923 39.0345C198.31 39.1714 198.608 39.3767 198.817 39.6505C199.068 39.4083 199.377 39.2135 199.743 39.0661C200.119 38.9082 200.574 38.8292 201.108 38.8292ZM195.475 45.4469C195.632 45.4469 195.815 45.4205 196.024 45.3679C196.244 45.3152 196.463 45.2521 196.683 45.1784C196.903 45.0941 197.117 45.0046 197.326 44.9099C197.535 44.8046 197.719 44.7098 197.875 44.6256C197.823 44.3939 197.787 44.1886 197.766 44.0096C197.745 43.8201 197.729 43.599 197.719 43.3463H195.836C195.386 43.3463 195.051 43.4358 194.831 43.6148C194.612 43.7832 194.502 44.0991 194.502 44.5624C194.502 44.8677 194.57 45.0941 194.706 45.2415C194.852 45.3784 195.109 45.4469 195.475 45.4469ZM202.661 42.1459C202.651 41.9248 202.625 41.7037 202.583 41.4826C202.541 41.2509 202.463 41.0456 202.347 40.8666C202.243 40.6771 202.091 40.5297 201.892 40.4244C201.694 40.3086 201.427 40.2507 201.092 40.2507C200.789 40.2507 200.538 40.2981 200.339 40.3928C200.151 40.4771 199.999 40.6034 199.884 40.7719C199.779 40.9298 199.701 41.1299 199.649 41.372C199.596 41.6037 199.56 41.8616 199.539 42.1459H202.661Z" fill="white"/>
<path d="M216.962 46.4103C216.962 46.505 216.942 46.5787 216.9 46.6314C216.868 46.684 216.795 46.7104 216.68 46.7104H215.55C215.351 46.7104 215.252 46.6103 215.252 46.4103V41.9248C215.252 41.3352 215.174 40.9403 215.017 40.7403C214.86 40.5297 214.583 40.4244 214.185 40.4244C214.039 40.4244 213.871 40.4507 213.683 40.5034C213.505 40.556 213.322 40.6192 213.134 40.6929C212.956 40.7561 212.783 40.8298 212.616 40.914C212.449 40.9982 212.302 41.072 212.177 41.1351C212.177 41.2194 212.177 41.3299 212.177 41.4668C212.187 41.6037 212.192 41.7616 212.192 41.9406V46.4103C212.192 46.505 212.171 46.5787 212.13 46.6314C212.088 46.684 212.009 46.7104 211.894 46.7104H210.749C210.571 46.7104 210.482 46.6103 210.482 46.4103V41.8459C210.482 41.3615 210.409 41.0035 210.262 40.7719C210.116 40.5402 209.844 40.4244 209.446 40.4244C209.31 40.4244 209.153 40.4455 208.976 40.4876C208.808 40.5297 208.63 40.5876 208.442 40.6613C208.264 40.735 208.086 40.814 207.909 40.8982C207.731 40.9825 207.569 41.0614 207.422 41.1351V46.4103C207.422 46.6103 207.323 46.7104 207.124 46.7104H205.994C205.806 46.7104 205.712 46.6103 205.712 46.4103V39.2872C205.712 39.0767 205.806 38.9714 205.994 38.9714H207.108C207.318 38.9714 207.422 39.0767 207.422 39.2872V39.7453L207.438 39.7611C207.595 39.6558 207.762 39.5505 207.94 39.4452C208.118 39.3294 208.306 39.2293 208.505 39.1451C208.714 39.0609 208.923 38.9924 209.132 38.9398C209.342 38.8766 209.556 38.8398 209.776 38.8292C210.226 38.8292 210.634 38.9029 211 39.0503C211.376 39.1872 211.685 39.482 211.926 39.9348C212.323 39.64 212.757 39.382 213.228 39.1609C213.699 38.9398 214.185 38.8292 214.687 38.8292C215.2 38.8292 215.608 38.9082 215.911 39.0661C216.214 39.2241 216.445 39.4399 216.602 39.7137C216.758 39.9769 216.858 40.2875 216.9 40.6455C216.942 41.0035 216.962 41.3773 216.962 41.7669V46.4103Z" fill="white"/>
<path d="M225.267 46.4103C225.267 46.505 225.246 46.5787 225.204 46.6314C225.172 46.684 225.099 46.7104 224.984 46.7104H223.854C223.666 46.7104 223.572 46.6156 223.572 46.4261V45.9207C223.561 45.9207 223.551 45.9207 223.541 45.9207C223.541 45.9101 223.535 45.9049 223.525 45.9049C223.389 45.9996 223.227 46.1049 223.038 46.2208C222.85 46.326 222.646 46.4261 222.426 46.5208C222.207 46.6156 221.977 46.6893 221.736 46.742C221.506 46.8051 221.276 46.8367 221.046 46.8367C220.533 46.8367 220.109 46.7472 219.775 46.5682C219.45 46.3787 219.189 46.1155 218.99 45.7785C218.802 45.4416 218.666 45.0362 218.582 44.5624C218.509 44.0781 218.472 43.5358 218.472 42.9356C218.472 42.2933 218.514 41.7195 218.598 41.2141C218.692 40.6982 218.854 40.2612 219.084 39.9032C219.314 39.5452 219.628 39.2767 220.026 39.0977C220.434 38.9082 220.957 38.8134 221.595 38.8134C222.243 38.8134 222.892 38.9345 223.541 39.1767C223.551 39.1767 223.556 39.1767 223.556 39.1767C223.556 39.1662 223.561 39.1609 223.572 39.1609V35.8916C223.572 35.7863 223.588 35.7073 223.619 35.6547C223.661 35.602 223.744 35.5757 223.87 35.5757H224.984C225.11 35.5757 225.188 35.6073 225.219 35.6704C225.251 35.7231 225.267 35.7968 225.267 35.8916V46.4103ZM223.556 40.5981C223.19 40.4928 222.861 40.4244 222.568 40.3928C222.285 40.3507 222.013 40.3296 221.752 40.3296C221.469 40.3296 221.229 40.3718 221.03 40.456C220.831 40.5402 220.674 40.6824 220.559 40.8824C220.444 41.0825 220.36 41.351 220.308 41.6879C220.256 42.0143 220.23 42.425 220.23 42.9198C220.23 43.4252 220.251 43.8359 220.292 44.1518C220.345 44.4571 220.423 44.694 220.528 44.8625C220.632 45.0204 220.758 45.131 220.904 45.1942C221.051 45.2468 221.229 45.2731 221.438 45.2731C221.595 45.2731 221.773 45.2468 221.971 45.1942C222.17 45.1415 222.369 45.0783 222.568 45.0046C222.766 44.9309 222.949 44.8572 223.117 44.7835C223.295 44.6993 223.441 44.6256 223.556 44.5624V40.5981Z" fill="white"/>
<path d="M231.72 43.1883H229.806C229.408 43.1883 229.095 43.2831 228.864 43.4726C228.634 43.6516 228.519 43.9991 228.519 44.515C228.519 44.8625 228.587 45.1047 228.723 45.2415C228.87 45.3679 229.126 45.4311 229.492 45.4311C229.66 45.4311 229.843 45.41 230.041 45.3679C230.24 45.3258 230.439 45.2679 230.638 45.1942C230.836 45.1204 231.03 45.0415 231.218 44.9572C231.406 44.8625 231.574 44.773 231.72 44.6887V43.1883ZM231.814 45.8101C231.417 46.1155 230.967 46.3629 230.465 46.5524C229.973 46.742 229.461 46.8367 228.927 46.8367C228.509 46.8367 228.158 46.7841 227.876 46.6788C227.604 46.563 227.384 46.4103 227.217 46.2208C227.06 46.0207 226.945 45.7838 226.872 45.51C226.809 45.2363 226.778 44.9309 226.778 44.594C226.767 43.6674 227.008 42.9988 227.499 42.5882C227.991 42.167 228.734 41.9564 229.728 41.9564H231.736V41.5458C231.736 41.3141 231.71 41.1193 231.658 40.9614C231.616 40.7929 231.532 40.656 231.406 40.5508C231.281 40.4455 231.114 40.3718 230.904 40.3296C230.695 40.2875 230.428 40.2665 230.104 40.2665C229.979 40.2665 229.822 40.2717 229.633 40.2823C229.456 40.2928 229.267 40.3033 229.068 40.3138C228.88 40.3244 228.687 40.3402 228.488 40.3612C228.3 40.3823 228.127 40.3981 227.97 40.4086C227.813 40.4297 227.703 40.4349 227.641 40.4244C227.588 40.4033 227.552 40.3349 227.531 40.2191L227.39 39.6347C227.369 39.5294 227.379 39.4452 227.421 39.382C227.463 39.3083 227.573 39.2346 227.75 39.1609C227.918 39.0977 228.117 39.0451 228.347 39.003C228.577 38.9608 228.812 38.9293 229.053 38.9082C229.293 38.8766 229.529 38.8555 229.759 38.845C230 38.824 230.214 38.8134 230.402 38.8134C231.082 38.8134 231.621 38.8819 232.018 39.0187C232.426 39.1556 232.735 39.3504 232.944 39.6031C233.153 39.8453 233.289 40.1454 233.352 40.5034C233.415 40.8614 233.446 41.2615 233.446 41.7037V44.7519C233.446 44.9099 233.452 45.0362 233.462 45.131C233.483 45.2152 233.509 45.2837 233.54 45.3363C233.582 45.3784 233.64 45.41 233.713 45.4311C233.786 45.4521 233.886 45.4679 234.011 45.4784C234.126 45.489 234.205 45.51 234.247 45.5416C234.288 45.5732 234.309 45.6311 234.309 45.7153V46.3787C234.309 46.5577 234.184 46.6682 233.933 46.7104C233.807 46.7314 233.682 46.7472 233.556 46.7577C233.431 46.7788 233.31 46.7893 233.195 46.7893C232.829 46.7893 232.531 46.7209 232.301 46.584C232.081 46.4471 231.93 46.1944 231.846 45.8259L231.814 45.8101Z" fill="white"/>
<path d="M241.183 44.3887C241.183 44.852 241.094 45.2415 240.916 45.5574C240.738 45.8628 240.498 46.1102 240.194 46.2997C239.901 46.4892 239.567 46.6261 239.19 46.7104C238.813 46.7946 238.421 46.8367 238.013 46.8367C237.616 46.8367 237.187 46.8051 236.726 46.742C236.266 46.6893 235.884 46.6051 235.581 46.4892C235.424 46.4261 235.325 46.3576 235.283 46.2839C235.241 46.1997 235.231 46.0944 235.251 45.9681L235.361 45.4469C235.382 45.3205 235.424 45.2468 235.487 45.2257C235.55 45.1942 235.644 45.1889 235.769 45.2099C235.937 45.2415 236.12 45.2679 236.318 45.2889C236.528 45.31 236.732 45.331 236.93 45.3521C237.14 45.3626 237.333 45.3731 237.511 45.3837C237.699 45.3942 237.861 45.3995 237.997 45.3995C238.5 45.3995 238.86 45.331 239.08 45.1942C239.3 45.0467 239.41 44.8151 239.41 44.4992C239.41 44.3202 239.389 44.1728 239.347 44.057C239.316 43.9412 239.253 43.8464 239.159 43.7727C239.064 43.699 238.934 43.6411 238.766 43.599C238.609 43.5463 238.405 43.5042 238.154 43.4726C237.767 43.42 237.401 43.3515 237.056 43.2673C236.711 43.1831 236.402 43.062 236.13 42.904C235.869 42.7356 235.659 42.5197 235.503 42.2565C235.346 41.9827 235.267 41.63 235.267 41.1983C235.267 40.4191 235.539 39.8295 236.083 39.4294C236.627 39.0188 237.338 38.8134 238.217 38.8134C238.374 38.8134 238.557 38.8187 238.766 38.8292C238.976 38.8398 239.185 38.8608 239.394 38.8924C239.614 38.924 239.828 38.9608 240.037 39.003C240.247 39.0451 240.435 39.0977 240.602 39.1609C240.864 39.2662 240.974 39.4241 240.932 39.6347L240.806 40.2033C240.785 40.3191 240.743 40.3928 240.681 40.4244C240.628 40.4455 240.529 40.4455 240.383 40.4244C240.048 40.3823 239.682 40.3454 239.284 40.3138C238.887 40.2717 238.541 40.2507 238.248 40.2507C237.746 40.2507 237.412 40.3244 237.244 40.4718C237.087 40.6087 237.009 40.8298 237.009 41.1351C237.009 41.4405 237.108 41.6405 237.307 41.7353C237.516 41.8301 237.861 41.9143 238.343 41.988C238.719 42.0406 239.075 42.1091 239.41 42.1933C239.755 42.2776 240.058 42.4039 240.32 42.5724C240.581 42.7408 240.79 42.9672 240.947 43.2515C241.104 43.5358 241.183 43.9148 241.183 44.3887Z" fill="white"/>
<path d="M247.428 46.1102C247.459 46.2892 247.391 46.4208 247.224 46.505C247.088 46.5682 246.926 46.6209 246.737 46.663C246.559 46.7051 246.371 46.7367 246.172 46.7577C245.984 46.7893 245.801 46.8104 245.623 46.8209C245.456 46.8314 245.309 46.8367 245.184 46.8367C244.724 46.8367 244.363 46.7735 244.101 46.6472C243.85 46.5103 243.662 46.326 243.536 46.0944C243.411 45.8628 243.332 45.5943 243.301 45.2889C243.269 44.9836 243.254 44.6624 243.254 44.3255V40.3612H242.469C242.354 40.3612 242.276 40.3402 242.234 40.2981C242.192 40.2454 242.171 40.1664 242.171 40.0611V39.2872C242.171 39.182 242.192 39.103 242.234 39.0503C242.276 38.9977 242.354 38.9714 242.469 38.9714H243.269V37.3446C243.269 37.2288 243.296 37.1498 243.348 37.1077C243.411 37.055 243.484 37.0182 243.568 36.9971L244.619 36.7128C244.828 36.6602 244.933 36.7234 244.933 36.9024V38.9714H246.612C246.737 38.9714 246.816 38.9977 246.847 39.0503C246.889 39.103 246.91 39.1767 246.91 39.2715V40.0611C246.91 40.1664 246.889 40.2454 246.847 40.2981C246.816 40.3402 246.737 40.3612 246.612 40.3612H244.933V44.2939C244.933 44.5045 244.948 44.6677 244.98 44.7835C245.011 44.8993 245.063 44.9888 245.137 45.052C245.22 45.1047 245.33 45.1362 245.466 45.1468C245.602 45.1573 245.775 45.1626 245.984 45.1626C246.099 45.1626 246.261 45.1573 246.47 45.1468C246.69 45.1362 246.878 45.1204 247.035 45.0994C247.119 45.0889 247.182 45.0994 247.224 45.131C247.265 45.1626 247.297 45.2257 247.318 45.3205L247.428 46.1102Z" fill="white"/>
<path d="M250.477 46.8841C250.477 47.4 250.419 47.8528 250.304 48.2424C250.189 48.6425 249.99 48.9742 249.708 49.2374C249.436 49.5111 249.075 49.7112 248.625 49.8375C248.186 49.9639 247.637 50.0165 246.978 49.9955C246.925 49.9955 246.857 49.9744 246.774 49.9323C246.69 49.8902 246.643 49.806 246.633 49.6796L246.57 48.9373C246.549 48.8109 246.559 48.7267 246.601 48.6846C246.633 48.6425 246.706 48.6109 246.821 48.5898C247.187 48.5161 247.49 48.4424 247.731 48.3687C247.982 48.3055 248.181 48.216 248.327 48.1002C248.484 47.9844 248.594 47.8317 248.657 47.6422C248.719 47.4632 248.751 47.221 248.751 46.9157V39.2715C248.751 39.0714 248.855 38.9714 249.065 38.9714H250.163C250.372 38.9714 250.477 39.0714 250.477 39.2715V46.8841ZM250.54 36.9182C250.54 37.0445 250.529 37.1656 250.508 37.2814C250.487 37.3867 250.44 37.4815 250.367 37.5657C250.304 37.6499 250.21 37.7184 250.085 37.771C249.97 37.8132 249.813 37.8342 249.614 37.8342C249.405 37.8342 249.237 37.8079 249.112 37.7552C248.997 37.7026 248.908 37.6342 248.845 37.5499C248.782 37.4657 248.74 37.3709 248.719 37.2656C248.699 37.1498 248.688 37.034 248.688 36.9182C248.688 36.6655 248.751 36.4549 248.876 36.2864C249.002 36.1074 249.248 36.0179 249.614 36.0179C250.001 36.0179 250.252 36.1021 250.367 36.2706C250.482 36.4286 250.54 36.6444 250.54 36.9182Z" fill="white"/>
<path d="M259.102 42.7145C259.102 43.1673 259.071 43.6358 259.008 44.1202C258.956 44.6045 258.815 45.052 258.585 45.4626C258.354 45.8628 258.009 46.1944 257.549 46.4577C257.089 46.7104 256.45 46.8367 255.635 46.8367C254.85 46.8367 254.233 46.7104 253.783 46.4577C253.333 46.1944 252.993 45.8628 252.763 45.4626C252.543 45.052 252.407 44.6045 252.355 44.1202C252.303 43.6358 252.277 43.1673 252.277 42.7145C252.277 42.346 252.308 41.9354 252.371 41.4826C252.444 41.0298 252.596 40.6087 252.826 40.2191C253.056 39.819 253.391 39.4873 253.83 39.2241C254.28 38.9503 254.881 38.8134 255.635 38.8134C256.398 38.8134 257.005 38.9293 257.455 39.1609C257.915 39.3925 258.265 39.6979 258.506 40.0769C258.747 40.4455 258.904 40.8614 258.977 41.3247C259.06 41.7879 259.102 42.2512 259.102 42.7145ZM257.345 42.8251C257.345 42.4039 257.324 42.0406 257.282 41.7353C257.24 41.4194 257.157 41.1615 257.031 40.9614C256.906 40.7508 256.733 40.5929 256.513 40.4876C256.294 40.3823 256.006 40.3296 255.65 40.3296C255.315 40.3296 255.044 40.3823 254.834 40.4876C254.625 40.5929 254.458 40.7508 254.332 40.9614C254.217 41.172 254.133 41.4352 254.081 41.7511C254.039 42.0564 254.018 42.4144 254.018 42.8251C254.018 43.2462 254.039 43.6148 254.081 43.9306C254.133 44.236 254.217 44.494 254.332 44.7045C254.447 44.9046 254.609 45.0573 254.819 45.1626C255.028 45.2679 255.3 45.3205 255.635 45.3205C255.99 45.3205 256.278 45.2731 256.498 45.1784C256.728 45.0731 256.906 44.9204 257.031 44.7203C257.157 44.5098 257.24 44.2465 257.282 43.9306C257.324 43.6148 257.345 43.2462 257.345 42.8251ZM257.674 35.5125C257.831 35.5967 257.852 35.7126 257.737 35.86L256.137 38.0711C256.053 38.1869 255.954 38.2185 255.839 38.1659L255.227 37.8816C255.112 37.8184 255.085 37.7184 255.148 37.5815L256.403 35.1335C256.466 34.9966 256.581 34.965 256.749 35.0387L257.674 35.5125Z" fill="white"/>
<path d="M262.655 46.4103C262.655 46.6103 262.556 46.7104 262.357 46.7104H261.228C261.029 46.7104 260.929 46.6103 260.929 46.4103V39.2872C260.929 39.0767 261.029 38.9714 261.228 38.9714H262.342C262.551 38.9714 262.655 39.0767 262.655 39.2872V39.9822L262.687 40.0138C262.802 39.9085 262.954 39.7979 263.142 39.6821C263.33 39.5557 263.529 39.4452 263.738 39.3504C263.958 39.2451 264.177 39.1504 264.397 39.0661C264.617 38.9819 264.821 38.924 265.009 38.8924C265.114 38.8713 265.197 38.8766 265.26 38.9082C265.323 38.9398 265.365 39.024 265.386 39.1609L265.496 40.2191C265.506 40.3349 265.501 40.4191 265.48 40.4718C265.459 40.5244 265.365 40.5665 265.197 40.5981C264.978 40.6403 264.748 40.6929 264.507 40.7561C264.266 40.8087 264.031 40.8719 263.801 40.9456C263.571 41.0088 263.356 41.072 263.158 41.1351C262.959 41.1983 262.791 41.2615 262.655 41.3247V46.4103Z" fill="white"/>
<path d="M273 46.4103C273 46.505 272.979 46.5787 272.937 46.6314C272.895 46.684 272.817 46.7104 272.702 46.7104H271.572C271.373 46.7104 271.274 46.6103 271.274 46.4103L271.29 41.9722C271.29 41.5089 271.211 41.1351 271.054 40.8508C270.908 40.5665 270.61 40.4244 270.16 40.4244C270.003 40.4244 269.82 40.4507 269.611 40.5034C269.412 40.556 269.208 40.6245 268.999 40.7087C268.8 40.7824 268.612 40.8614 268.434 40.9456C268.256 41.0193 268.115 41.0825 268.01 41.1351V46.4103C268.01 46.6103 267.911 46.7104 267.712 46.7104H266.598C266.399 46.7104 266.3 46.6103 266.3 46.4103V39.2872C266.3 39.0767 266.399 38.9714 266.598 38.9714H267.712C267.911 38.9714 268.01 39.0767 268.01 39.2872V39.7611C268.021 39.7611 268.026 39.7663 268.026 39.7769C268.036 39.7769 268.047 39.7769 268.057 39.7769C268.204 39.6716 268.376 39.5663 268.575 39.461C268.784 39.3452 269.004 39.2399 269.234 39.1451C269.464 39.0503 269.705 38.9766 269.956 38.924C270.207 38.8608 270.453 38.8292 270.693 38.8292C271.227 38.8292 271.645 38.9135 271.949 39.0819C272.252 39.2399 272.482 39.4557 272.639 39.7295C272.796 40.0032 272.895 40.3244 272.937 40.6929C272.979 41.0509 273 41.4299 273 41.8301V46.4103Z" fill="white"/>
<path d="M143 52.5795C143 52.3634 143.105 52.2553 143.315 52.2553H149.117C149.317 52.2553 149.417 52.358 149.417 52.5633V53.5682C149.417 53.7627 149.312 53.86 149.101 53.86H144.797V56.6478H148.613C148.823 56.6478 148.928 56.745 148.928 56.9395V57.9445C148.928 58.139 148.823 58.2362 148.613 58.2362H144.797V61.4292H149.212C149.401 61.4292 149.496 61.5319 149.496 61.7372V62.7259C149.496 62.9204 149.396 63.0177 149.196 63.0177H143.315C143.105 63.0177 143 62.9204 143 62.7259V52.5795Z" fill="white"/>
<path d="M154.199 61.024C154.199 60.9916 154.23 60.8782 154.293 60.6837C154.356 60.4784 154.425 60.2568 154.498 60.0191C154.582 59.7382 154.682 59.4302 154.798 59.0953L156.059 55.3349C156.091 55.2485 156.127 55.1836 156.17 55.1404C156.222 55.0972 156.306 55.0756 156.422 55.0756H157.62C157.83 55.0756 157.893 55.1782 157.809 55.3835L155.129 62.6773C155.087 62.7962 155.034 62.8826 154.971 62.9366C154.908 62.9907 154.814 63.0177 154.688 63.0177H153.631C153.484 63.0177 153.384 62.9961 153.332 62.9528C153.279 62.8988 153.232 62.8124 153.19 62.6935L150.51 55.3998C150.478 55.3133 150.473 55.2377 150.494 55.1728C150.515 55.108 150.578 55.0756 150.683 55.0756H151.929C152.044 55.0756 152.123 55.0972 152.165 55.1404C152.218 55.1728 152.265 55.2485 152.307 55.3673L153.568 59.1601C153.663 59.4734 153.752 59.7652 153.836 60.0353C153.91 60.2623 153.973 60.4784 154.025 60.6837C154.088 60.8782 154.13 60.9916 154.151 61.024H154.199Z" fill="white"/>
<path d="M160.947 62.7097C160.947 62.915 160.847 63.0177 160.647 63.0177H159.512C159.313 63.0177 159.213 62.915 159.213 62.7097V55.3998C159.213 55.1836 159.313 55.0756 159.512 55.0756H160.632C160.842 55.0756 160.947 55.1836 160.947 55.3998V56.1129L160.978 56.1453C161.094 56.0373 161.246 55.9238 161.436 55.805C161.625 55.6753 161.825 55.5618 162.035 55.4646C162.256 55.3565 162.476 55.2593 162.697 55.1728C162.918 55.0864 163.123 55.027 163.312 54.9945C163.417 54.9729 163.501 54.9783 163.564 55.0108C163.627 55.0432 163.669 55.1296 163.69 55.2701L163.801 56.356C163.811 56.4749 163.806 56.5613 163.785 56.6154C163.764 56.6694 163.669 56.7126 163.501 56.745C163.28 56.7883 163.049 56.8423 162.807 56.9071C162.566 56.9612 162.329 57.026 162.098 57.1016C161.867 57.1665 161.651 57.2313 161.451 57.2961C161.252 57.361 161.084 57.4258 160.947 57.4906V62.7097Z" fill="white"/>
<path d="M171.372 58.917C171.372 59.3816 171.341 59.8624 171.278 60.3595C171.225 60.8566 171.083 61.3158 170.852 61.7372C170.621 62.1478 170.274 62.4882 169.811 62.7583C169.349 63.0177 168.708 63.1473 167.888 63.1473C167.1 63.1473 166.48 63.0177 166.028 62.7583C165.576 62.4882 165.234 62.1478 165.003 61.7372C164.782 61.3158 164.645 60.8566 164.593 60.3595C164.54 59.8624 164.514 59.3816 164.514 58.917C164.514 58.5388 164.546 58.1173 164.609 57.6527C164.682 57.1881 164.835 56.7558 165.066 56.356C165.297 55.9454 165.633 55.6051 166.075 55.3349C166.527 55.054 167.131 54.9135 167.888 54.9135C168.655 54.9135 169.265 55.0324 169.717 55.2701C170.179 55.5078 170.531 55.8212 170.773 56.2102C171.015 56.5884 171.173 57.0152 171.246 57.4906C171.33 57.9661 171.372 58.4415 171.372 58.917ZM169.606 59.0304C169.606 58.5982 169.585 58.2254 169.543 57.912C169.501 57.5879 169.417 57.3231 169.291 57.1178C169.165 56.9017 168.992 56.7396 168.771 56.6316C168.55 56.5235 168.261 56.4695 167.904 56.4695C167.567 56.4695 167.294 56.5235 167.084 56.6316C166.874 56.7396 166.706 56.9017 166.579 57.1178C166.464 57.3339 166.38 57.6041 166.327 57.9283C166.285 58.2416 166.264 58.609 166.264 59.0304C166.264 59.4626 166.285 59.8408 166.327 60.165C166.38 60.4784 166.464 60.7431 166.579 60.9592C166.695 61.1645 166.858 61.3212 167.068 61.4292C167.278 61.5373 167.552 61.5913 167.888 61.5913C168.245 61.5913 168.534 61.5427 168.755 61.4455C168.986 61.3374 169.165 61.1807 169.291 60.9754C169.417 60.7593 169.501 60.4892 169.543 60.165C169.585 59.8408 169.606 59.4626 169.606 59.0304ZM169.938 51.526C170.095 51.6124 170.116 51.7313 170.001 51.8825L168.392 54.1517C168.308 54.2706 168.209 54.303 168.093 54.249L167.478 53.9572C167.362 53.8924 167.336 53.7897 167.399 53.6493L168.661 51.137C168.724 50.9965 168.839 50.9641 169.007 51.0397L169.938 51.526Z" fill="white"/>
<path d="M179.735 58.998C179.735 59.6571 179.688 60.246 179.593 60.7647C179.499 61.2834 179.33 61.721 179.089 62.0776C178.857 62.4342 178.537 62.7043 178.127 62.888C177.727 63.0717 177.218 63.1635 176.598 63.1635C176.335 63.1635 176.03 63.1365 175.683 63.0825C175.347 63.0285 174.995 62.9366 174.627 62.807L174.611 62.8232V65.6758C174.611 65.7623 174.59 65.8379 174.548 65.9027C174.517 65.9676 174.438 66 174.312 66H173.192C173.066 66 172.982 65.973 172.94 65.919C172.908 65.8649 172.893 65.7839 172.893 65.6758V55.3998C172.893 55.1836 172.992 55.0756 173.192 55.0756H174.312C174.427 55.0756 174.501 55.108 174.532 55.1728C174.574 55.2269 174.595 55.3025 174.595 55.3998V55.886L174.643 55.9184C174.779 55.8212 174.942 55.7185 175.131 55.6105C175.331 55.4916 175.541 55.3835 175.762 55.2863C175.983 55.189 176.209 55.108 176.44 55.0432C176.671 54.9783 176.902 54.9459 177.134 54.9459C177.649 54.9459 178.074 55.0432 178.411 55.2377C178.747 55.4322 179.01 55.7077 179.199 56.0643C179.399 56.4101 179.535 56.8315 179.609 57.3285C179.693 57.8256 179.735 58.3821 179.735 58.998ZM177.953 58.9818C177.953 58.4631 177.927 58.0471 177.875 57.7338C177.833 57.4204 177.759 57.1773 177.654 57.0044C177.549 56.8315 177.417 56.718 177.26 56.664C177.113 56.5992 176.934 56.5668 176.724 56.5668C176.566 56.5668 176.387 56.5938 176.188 56.6478C175.988 56.7018 175.788 56.7667 175.589 56.8423C175.399 56.9071 175.215 56.9828 175.037 57.0692C174.869 57.1557 174.727 57.2313 174.611 57.2961V61.3482C174.968 61.4563 175.289 61.5319 175.573 61.5751C175.867 61.6075 176.151 61.6238 176.424 61.6238C176.708 61.6238 176.944 61.5859 177.134 61.5103C177.333 61.4238 177.491 61.278 177.607 61.0727C177.733 60.8674 177.822 60.5972 177.875 60.2623C177.927 59.9165 177.953 59.4897 177.953 58.9818Z" fill="white"/>
<path d="M187.831 62.7097C187.831 62.915 187.731 63.0177 187.531 63.0177H186.412C186.296 63.0177 186.217 62.9907 186.175 62.9366C186.133 62.8826 186.112 62.807 186.112 62.7097V62.2073L186.081 62.191C185.923 62.2991 185.739 62.4126 185.529 62.5314C185.329 62.6395 185.114 62.7421 184.882 62.8394C184.651 62.9366 184.409 63.0123 184.157 63.0663C183.915 63.1311 183.674 63.1635 183.432 63.1635C182.896 63.1635 182.47 63.0879 182.155 62.9366C181.85 62.7853 181.619 62.5746 181.461 62.3045C181.303 62.0344 181.204 61.7156 181.162 61.3482C181.12 60.9808 181.099 60.5864 181.099 60.165V55.3998C181.099 55.1836 181.198 55.0756 181.398 55.0756H182.549C182.738 55.0756 182.833 55.1836 182.833 55.3998V59.9543C182.833 60.2028 182.849 60.4243 182.88 60.6188C182.912 60.8133 182.969 60.9808 183.053 61.1213C183.138 61.251 183.253 61.3536 183.4 61.4292C183.547 61.5049 183.742 61.5427 183.984 61.5427C184.152 61.5427 184.336 61.5157 184.535 61.4617C184.746 61.4076 184.951 61.3428 185.15 61.2672C185.35 61.1807 185.534 61.0997 185.702 61.024C185.87 60.9376 186.007 60.8674 186.112 60.8133V55.3998C186.112 55.3025 186.133 55.2269 186.175 55.1728C186.217 55.108 186.296 55.0756 186.412 55.0756H187.531C187.731 55.0756 187.831 55.1836 187.831 55.3998V62.7097Z" fill="white"/>
<path d="M195.292 60.635C195.292 61.1105 195.202 61.5103 195.024 61.8345C194.845 62.1478 194.603 62.4017 194.298 62.5962C194.004 62.7907 193.668 62.9312 193.289 63.0177C192.911 63.1041 192.517 63.1473 192.107 63.1473C191.708 63.1473 191.277 63.1149 190.814 63.0501C190.352 62.9961 189.968 62.9096 189.663 62.7907C189.506 62.7259 189.406 62.6557 189.364 62.58C189.322 62.4936 189.311 62.3855 189.332 62.2559L189.443 61.721C189.464 61.5913 189.506 61.5157 189.569 61.4941C189.632 61.4617 189.726 61.4563 189.852 61.4779C190.021 61.5103 190.205 61.5373 190.404 61.5589C190.615 61.5805 190.819 61.6021 191.019 61.6238C191.229 61.6346 191.424 61.6454 191.603 61.6562C191.792 61.667 191.955 61.6724 192.091 61.6724C192.596 61.6724 192.958 61.6021 193.179 61.4617C193.4 61.3104 193.51 61.0727 193.51 60.7485C193.51 60.5648 193.489 60.4135 193.447 60.2947C193.416 60.1758 193.353 60.0786 193.258 60.0029C193.163 59.9273 193.032 59.8678 192.864 59.8246C192.706 59.7706 192.501 59.7274 192.249 59.695C191.86 59.6409 191.492 59.5707 191.145 59.4843C190.798 59.3978 190.488 59.2735 190.215 59.1115C189.952 58.9386 189.742 58.7171 189.584 58.4469C189.427 58.166 189.348 57.804 189.348 57.361C189.348 56.5613 189.621 55.9562 190.168 55.5456C190.714 55.1242 191.429 54.9135 192.312 54.9135C192.47 54.9135 192.654 54.9189 192.864 54.9297C193.074 54.9405 193.284 54.9621 193.494 54.9945C193.715 55.027 193.931 55.0648 194.141 55.108C194.351 55.1512 194.54 55.2053 194.708 55.2701C194.971 55.3781 195.081 55.5402 195.039 55.7563L194.913 56.3398C194.892 56.4587 194.85 56.5343 194.787 56.5668C194.735 56.5884 194.635 56.5884 194.488 56.5668C194.151 56.5235 193.783 56.4857 193.384 56.4533C192.985 56.4101 192.638 56.3885 192.343 56.3885C191.839 56.3885 191.503 56.4641 191.334 56.6154C191.177 56.7558 191.098 56.9828 191.098 57.2961C191.098 57.6095 191.198 57.8148 191.398 57.912C191.608 58.0093 191.955 58.0957 192.438 58.1714C192.816 58.2254 193.174 58.2956 193.51 58.3821C193.857 58.4685 194.162 58.5982 194.425 58.7711C194.687 58.944 194.898 59.1763 195.055 59.468C195.213 59.7598 195.292 60.1488 195.292 60.635Z" fill="white"/>
<path d="M201.535 59.4032H199.611C199.212 59.4032 198.897 59.5005 198.665 59.695C198.434 59.8787 198.319 60.2352 198.319 60.7647C198.319 61.1213 198.387 61.3698 198.523 61.5103C198.671 61.64 198.928 61.7048 199.296 61.7048C199.464 61.7048 199.648 61.6832 199.848 61.64C200.047 61.5967 200.247 61.5373 200.447 61.4617C200.647 61.386 200.841 61.305 201.03 61.2185C201.219 61.1213 201.388 61.0294 201.535 60.943V59.4032ZM201.629 62.0938C201.23 62.4072 200.778 62.6611 200.273 62.8556C199.779 63.0501 199.264 63.1473 198.728 63.1473C198.308 63.1473 197.956 63.0933 197.672 62.9852C197.399 62.8664 197.178 62.7097 197.01 62.5152C196.852 62.3099 196.737 62.0668 196.663 61.7858C196.6 61.5049 196.568 61.1915 196.568 60.8458C196.558 59.8949 196.8 59.2087 197.294 58.7873C197.788 58.3551 198.534 58.139 199.532 58.139H201.551V57.7175C201.551 57.4798 201.524 57.2799 201.472 57.1178C201.43 56.9449 201.346 56.8045 201.219 56.6964C201.093 56.5884 200.925 56.5127 200.715 56.4695C200.505 56.4263 200.237 56.4047 199.911 56.4047C199.785 56.4047 199.627 56.4101 199.438 56.4209C199.259 56.4317 199.07 56.4425 198.87 56.4533C198.681 56.4641 198.487 56.4803 198.287 56.5019C198.098 56.5235 197.924 56.5397 197.767 56.5505C197.609 56.5722 197.499 56.5776 197.436 56.5668C197.383 56.5451 197.346 56.4749 197.325 56.356L197.183 55.7563C197.162 55.6483 197.173 55.5618 197.215 55.497C197.257 55.4214 197.367 55.3457 197.546 55.2701C197.714 55.2053 197.914 55.1512 198.145 55.108C198.376 55.0648 198.613 55.0324 198.855 55.0108C199.096 54.9783 199.333 54.9567 199.564 54.9459C199.806 54.9243 200.021 54.9135 200.21 54.9135C200.894 54.9135 201.435 54.9837 201.834 55.1242C202.244 55.2647 202.554 55.4646 202.764 55.7239C202.975 55.9724 203.111 56.2804 203.174 56.6478C203.237 57.0152 203.269 57.4258 203.269 57.8796V61.0078C203.269 61.1699 203.274 61.2996 203.285 61.3968C203.306 61.4833 203.332 61.5535 203.364 61.6075C203.406 61.6508 203.463 61.6832 203.537 61.7048C203.611 61.7264 203.71 61.7426 203.837 61.7534C203.952 61.7642 204.031 61.7858 204.073 61.8183C204.115 61.8507 204.136 61.9101 204.136 61.9965V62.6773C204.136 62.861 204.01 62.9744 203.758 63.0177C203.632 63.0393 203.505 63.0555 203.379 63.0663C203.253 63.0879 203.132 63.0987 203.017 63.0987C202.649 63.0987 202.349 63.0285 202.118 62.888C201.897 62.7475 201.745 62.4882 201.661 62.11L201.629 62.0938Z" fill="white"/>
<path d="M216.56 62.7097C216.56 62.807 216.539 62.8826 216.497 62.9366C216.466 62.9907 216.392 63.0177 216.276 63.0177H215.141C214.942 63.0177 214.842 62.915 214.842 62.7097V58.1065C214.842 57.5014 214.763 57.0962 214.605 56.8909C214.448 56.6748 214.169 56.5668 213.77 56.5668C213.622 56.5668 213.454 56.5938 213.265 56.6478C213.086 56.7018 212.903 56.7667 212.713 56.8423C212.535 56.9071 212.361 56.9828 212.193 57.0692C212.025 57.1557 211.878 57.2313 211.752 57.2961C211.752 57.3826 211.752 57.496 211.752 57.6365C211.762 57.777 211.767 57.9391 211.767 58.1228V62.7097C211.767 62.807 211.746 62.8826 211.704 62.9366C211.662 62.9907 211.583 63.0177 211.468 63.0177H210.317C210.138 63.0177 210.049 62.915 210.049 62.7097V58.0255C210.049 57.5284 209.975 57.1611 209.828 56.9233C209.681 56.6856 209.408 56.5668 209.008 56.5668C208.872 56.5668 208.714 56.5884 208.535 56.6316C208.367 56.6748 208.189 56.7342 207.999 56.8099C207.821 56.8855 207.642 56.9666 207.463 57.053C207.285 57.1394 207.122 57.2205 206.975 57.2961V62.7097C206.975 62.915 206.875 63.0177 206.675 63.0177H205.54C205.351 63.0177 205.256 62.915 205.256 62.7097V55.3998C205.256 55.1836 205.351 55.0756 205.54 55.0756H206.659C206.869 55.0756 206.975 55.1836 206.975 55.3998V55.8698L206.99 55.886C207.148 55.7779 207.316 55.6699 207.495 55.5618C207.674 55.443 207.863 55.3403 208.062 55.2539C208.273 55.1674 208.483 55.0972 208.693 55.0432C208.903 54.9783 209.119 54.9405 209.339 54.9297C209.791 54.9297 210.201 55.0053 210.569 55.1566C210.948 55.2971 211.258 55.5997 211.499 56.0643C211.899 55.7617 212.335 55.497 212.808 55.2701C213.281 55.0432 213.77 54.9297 214.274 54.9297C214.789 54.9297 215.199 55.0108 215.504 55.1728C215.809 55.3349 216.04 55.5564 216.198 55.8374C216.355 56.1075 216.455 56.4263 216.497 56.7937C216.539 57.1611 216.56 57.5447 216.56 57.9445V62.7097Z" fill="white"/>
<path d="M225.046 58.9818C225.046 59.6409 224.993 60.2298 224.888 60.7485C224.793 61.2672 224.62 61.7048 224.368 62.0614C224.115 62.418 223.769 62.6935 223.327 62.888C222.886 63.0717 222.323 63.1635 221.64 63.1635C221.388 63.1635 221.12 63.1527 220.836 63.1311C220.563 63.1203 220.29 63.0933 220.016 63.0501C219.754 63.0177 219.496 62.9744 219.244 62.9204C219.002 62.8664 218.787 62.807 218.597 62.7421C218.419 62.6665 218.303 62.5638 218.251 62.4342C218.198 62.3045 218.172 62.1694 218.172 62.029V51.915C218.172 51.7097 218.277 51.607 218.487 51.607H219.606C219.733 51.607 219.817 51.6394 219.859 51.7043C219.901 51.7583 219.922 51.8285 219.922 51.915V55.3187C220.321 55.1674 220.684 55.0648 221.01 55.0108C221.335 54.9567 221.624 54.9297 221.877 54.9297C222.528 54.9297 223.059 55.027 223.469 55.2215C223.879 55.416 224.2 55.6915 224.431 56.0481C224.673 56.4047 224.835 56.8315 224.92 57.3285C225.004 57.8256 225.046 58.3767 225.046 58.9818ZM223.248 59.1277C223.248 58.6522 223.222 58.247 223.17 57.912C223.117 57.5771 223.033 57.3069 222.917 57.1016C222.812 56.8963 222.67 56.745 222.492 56.6478C222.313 56.5505 222.097 56.4965 221.845 56.4857C221.677 56.4857 221.525 56.4911 221.388 56.5019C221.251 56.5019 221.109 56.5127 220.962 56.5343C220.826 56.5559 220.673 56.5884 220.505 56.6316C220.337 56.664 220.142 56.7072 219.922 56.7613V61.4455C220.174 61.4887 220.437 61.5211 220.71 61.5427C220.994 61.5643 221.262 61.5751 221.514 61.5751C221.777 61.5751 222.013 61.5481 222.224 61.4941C222.434 61.4401 222.612 61.332 222.76 61.1699C222.917 60.997 223.038 60.7485 223.122 60.4243C223.206 60.1002 223.248 59.6679 223.248 59.1277Z" fill="white"/>
<path d="M231.357 59.4032H229.434C229.035 59.4032 228.719 59.5005 228.488 59.695C228.257 59.8787 228.141 60.2352 228.141 60.7647C228.141 61.1213 228.21 61.3698 228.346 61.5103C228.493 61.64 228.751 61.7048 229.119 61.7048C229.287 61.7048 229.471 61.6832 229.67 61.64C229.87 61.5967 230.07 61.5373 230.27 61.4617C230.469 61.386 230.664 61.305 230.853 61.2185C231.042 61.1213 231.21 61.0294 231.357 60.943V59.4032ZM231.452 62.0938C231.053 62.4072 230.601 62.6611 230.096 62.8556C229.602 63.0501 229.087 63.1473 228.551 63.1473C228.131 63.1473 227.779 63.0933 227.495 62.9852C227.222 62.8664 227.001 62.7097 226.833 62.5152C226.675 62.3099 226.559 62.0668 226.486 61.7858C226.423 61.5049 226.391 61.1915 226.391 60.8458C226.381 59.8949 226.622 59.2087 227.116 58.7873C227.61 58.3551 228.357 58.139 229.355 58.139H231.373V57.7175C231.373 57.4798 231.347 57.2799 231.294 57.1178C231.252 56.9449 231.168 56.8045 231.042 56.6964C230.916 56.5884 230.748 56.5127 230.538 56.4695C230.327 56.4263 230.059 56.4047 229.734 56.4047C229.607 56.4047 229.45 56.4101 229.261 56.4209C229.082 56.4317 228.893 56.4425 228.693 56.4533C228.504 56.4641 228.309 56.4803 228.11 56.5019C227.92 56.5235 227.747 56.5397 227.589 56.5505C227.432 56.5722 227.321 56.5776 227.258 56.5668C227.206 56.5451 227.169 56.4749 227.148 56.356L227.006 55.7563C226.985 55.6483 226.996 55.5618 227.038 55.497C227.08 55.4214 227.19 55.3457 227.369 55.2701C227.537 55.2053 227.737 55.1512 227.968 55.108C228.199 55.0648 228.435 55.0324 228.677 55.0108C228.919 54.9783 229.155 54.9567 229.387 54.9459C229.628 54.9243 229.844 54.9135 230.033 54.9135C230.716 54.9135 231.258 54.9837 231.657 55.1242C232.067 55.2647 232.377 55.4646 232.587 55.7239C232.797 55.9724 232.934 56.2804 232.997 56.6478C233.06 57.0152 233.092 57.4258 233.092 57.8796V61.0078C233.092 61.1699 233.097 61.2996 233.107 61.3968C233.128 61.4833 233.155 61.5535 233.186 61.6075C233.228 61.6508 233.286 61.6832 233.36 61.7048C233.433 61.7264 233.533 61.7426 233.659 61.7534C233.775 61.7642 233.854 61.7858 233.896 61.8183C233.938 61.8507 233.959 61.9101 233.959 61.9965V62.6773C233.959 62.861 233.833 62.9744 233.58 63.0177C233.454 63.0393 233.328 63.0555 233.202 63.0663C233.076 63.0879 232.955 63.0987 232.839 63.0987C232.472 63.0987 232.172 63.0285 231.941 62.888C231.72 62.7475 231.568 62.4882 231.484 62.11L231.452 62.0938Z" fill="white"/>
<path d="M241.763 62.7097C241.763 62.807 241.742 62.8826 241.7 62.9366C241.658 62.9907 241.58 63.0177 241.464 63.0177H240.329C240.129 63.0177 240.029 62.915 240.029 62.7097L240.045 58.1552C240.045 57.6797 239.966 57.2961 239.809 57.0044C239.661 56.7126 239.362 56.5668 238.91 56.5668C238.752 56.5668 238.568 56.5938 238.358 56.6478C238.158 56.7018 237.953 56.7721 237.743 56.8585C237.543 56.9341 237.354 57.0152 237.176 57.1016C236.997 57.1773 236.855 57.2421 236.75 57.2961V62.7097C236.75 62.915 236.65 63.0177 236.45 63.0177H235.331C235.131 63.0177 235.031 62.915 235.031 62.7097V55.3998C235.031 55.1836 235.131 55.0756 235.331 55.0756H236.45C236.65 55.0756 236.75 55.1836 236.75 55.3998V55.886C236.76 55.886 236.766 55.8914 236.766 55.9022C236.776 55.9022 236.787 55.9022 236.797 55.9022C236.944 55.7942 237.118 55.6861 237.318 55.578C237.528 55.4592 237.748 55.3511 237.98 55.2539C238.211 55.1566 238.453 55.081 238.705 55.027C238.957 54.9621 239.204 54.9297 239.446 54.9297C239.982 54.9297 240.402 55.0162 240.707 55.189C241.012 55.3511 241.243 55.5726 241.401 55.8536C241.559 56.1345 241.658 56.4641 241.7 56.8423C241.742 57.2097 241.763 57.5987 241.763 58.0093V62.7097Z" fill="white"/>
<path d="M250.061 62.7097C250.061 62.807 250.04 62.8826 249.998 62.9366C249.967 62.9907 249.893 63.0177 249.778 63.0177H248.642C248.453 63.0177 248.359 62.9204 248.359 62.7259V62.2073C248.348 62.2073 248.338 62.2073 248.327 62.2073C248.327 62.1964 248.322 62.191 248.311 62.191C248.175 62.2883 248.012 62.3963 247.823 62.5152C247.633 62.6233 247.428 62.7259 247.208 62.8232C246.987 62.9204 246.756 62.9961 246.514 63.0501C246.283 63.1149 246.052 63.1473 245.82 63.1473C245.305 63.1473 244.88 63.0555 244.543 62.8718C244.217 62.6773 243.955 62.4072 243.755 62.0614C243.566 61.7156 243.429 61.2996 243.345 60.8133C243.272 60.3163 243.235 59.7598 243.235 59.1439C243.235 58.4847 243.277 57.8958 243.361 57.3772C243.455 56.8477 243.618 56.3993 243.85 56.0319C244.081 55.6645 244.396 55.3889 244.796 55.2053C245.205 55.0108 245.731 54.9135 246.372 54.9135C247.024 54.9135 247.675 55.0378 248.327 55.2863C248.338 55.2863 248.343 55.2863 248.343 55.2863C248.343 55.2755 248.348 55.2701 248.359 55.2701V51.915C248.359 51.8069 248.374 51.7259 248.406 51.6718C248.448 51.6178 248.532 51.5908 248.658 51.5908H249.778C249.904 51.5908 249.983 51.6232 250.014 51.688C250.046 51.7421 250.061 51.8177 250.061 51.915V62.7097ZM248.343 56.745C247.975 56.637 247.644 56.5668 247.35 56.5343C247.066 56.4911 246.793 56.4695 246.53 56.4695C246.246 56.4695 246.004 56.5127 245.805 56.5992C245.605 56.6856 245.447 56.8315 245.332 57.0368C245.216 57.2421 245.132 57.5176 245.079 57.8634C245.027 58.1984 245.001 58.6198 245.001 59.1277C245.001 59.6463 245.022 60.0678 245.064 60.3919C245.116 60.7053 245.195 60.9484 245.3 61.1213C245.405 61.2834 245.531 61.3968 245.678 61.4617C245.826 61.5157 246.004 61.5427 246.214 61.5427C246.372 61.5427 246.551 61.5157 246.751 61.4617C246.95 61.4076 247.15 61.3428 247.35 61.2672C247.549 61.1915 247.733 61.1159 247.901 61.0403C248.08 60.9538 248.227 60.8782 248.343 60.8133V56.745Z" fill="white"/>
<path d="M257.539 60.635C257.539 61.1105 257.45 61.5103 257.271 61.8345C257.092 62.1478 256.851 62.4017 256.546 62.5962C256.252 62.7907 255.915 62.9312 255.537 63.0177C255.158 63.1041 254.764 63.1473 254.354 63.1473C253.955 63.1473 253.524 63.1149 253.062 63.0501C252.599 62.9961 252.215 62.9096 251.911 62.7907C251.753 62.7259 251.653 62.6557 251.611 62.58C251.569 62.4936 251.559 62.3855 251.58 62.2559L251.69 61.721C251.711 61.5913 251.753 61.5157 251.816 61.4941C251.879 61.4617 251.974 61.4563 252.1 61.4779C252.268 61.5103 252.452 61.5373 252.652 61.5589C252.862 61.5805 253.067 61.6021 253.267 61.6238C253.477 61.6346 253.671 61.6454 253.85 61.6562C254.039 61.667 254.202 61.6724 254.339 61.6724C254.843 61.6724 255.206 61.6021 255.426 61.4617C255.647 61.3104 255.758 61.0727 255.758 60.7485C255.758 60.5648 255.736 60.4135 255.694 60.2947C255.663 60.1758 255.6 60.0786 255.505 60.0029C255.411 59.9273 255.279 59.8678 255.111 59.8246C254.953 59.7706 254.748 59.7274 254.496 59.695C254.107 59.6409 253.739 59.5707 253.393 59.4843C253.046 59.3978 252.736 59.2735 252.462 59.1115C252.2 58.9386 251.989 58.7171 251.832 58.4469C251.674 58.166 251.595 57.804 251.595 57.361C251.595 56.5613 251.869 55.9562 252.415 55.5456C252.962 55.1242 253.676 54.9135 254.559 54.9135C254.717 54.9135 254.901 54.9189 255.111 54.9297C255.321 54.9405 255.532 54.9621 255.742 54.9945C255.962 55.027 256.178 55.0648 256.388 55.108C256.598 55.1512 256.788 55.2053 256.956 55.2701C257.218 55.3781 257.329 55.5402 257.287 55.7563L257.161 56.3398C257.14 56.4587 257.098 56.5343 257.035 56.5668C256.982 56.5884 256.882 56.5884 256.735 56.5668C256.399 56.5235 256.031 56.4857 255.631 56.4533C255.232 56.4101 254.885 56.3885 254.591 56.3885C254.086 56.3885 253.75 56.4641 253.582 56.6154C253.424 56.7558 253.345 56.9828 253.345 57.2961C253.345 57.6095 253.445 57.8148 253.645 57.912C253.855 58.0093 254.202 58.0957 254.685 58.1714C255.064 58.2254 255.421 58.2956 255.758 58.3821C256.104 58.4685 256.409 58.5982 256.672 58.7711C256.935 58.944 257.145 59.1763 257.303 59.468C257.46 59.7598 257.539 60.1488 257.539 60.635Z" fill="white"/>
<path d="M261.039 52.9685C261.039 53.0982 261.028 53.2224 261.007 53.3413C260.986 53.4493 260.939 53.5466 260.865 53.633C260.802 53.7195 260.708 53.7897 260.582 53.8438C260.466 53.887 260.308 53.9086 260.109 53.9086C259.898 53.9086 259.73 53.8816 259.604 53.8275C259.489 53.7735 259.399 53.7033 259.336 53.6168C259.273 53.5304 259.231 53.4331 259.21 53.3251C259.189 53.2062 259.178 53.0874 259.178 52.9685C259.178 52.7092 259.236 52.4931 259.352 52.3202C259.478 52.1365 259.73 52.0446 260.109 52.0446C260.498 52.0446 260.75 52.1311 260.865 52.304C260.981 52.466 261.039 52.6876 261.039 52.9685ZM260.944 62.7097C260.944 62.7962 260.923 62.8718 260.881 62.9366C260.85 62.9907 260.776 63.0177 260.66 63.0177H259.541C259.331 63.0177 259.226 62.915 259.226 62.7097V55.3835C259.226 55.1782 259.331 55.0756 259.541 55.0756H260.66C260.776 55.0756 260.85 55.108 260.881 55.1728C260.923 55.2269 260.944 55.2971 260.944 55.3835V62.7097Z" fill="white"/>
<path d="M269.569 62.7097C269.569 62.807 269.548 62.8826 269.506 62.9366C269.464 62.9907 269.385 63.0177 269.27 63.0177H268.135C267.935 63.0177 267.835 62.915 267.835 62.7097L267.851 58.1552C267.851 57.6797 267.772 57.2961 267.614 57.0044C267.467 56.7126 267.168 56.5668 266.716 56.5668C266.558 56.5668 266.374 56.5938 266.164 56.6478C265.964 56.7018 265.759 56.7721 265.549 56.8585C265.349 56.9341 265.16 57.0152 264.981 57.1016C264.803 57.1773 264.661 57.2421 264.556 57.2961V62.7097C264.556 62.915 264.456 63.0177 264.256 63.0177H263.137C262.937 63.0177 262.837 62.915 262.837 62.7097V55.3998C262.837 55.1836 262.937 55.0756 263.137 55.0756H264.256C264.456 55.0756 264.556 55.1836 264.556 55.3998V55.886C264.566 55.886 264.571 55.8914 264.571 55.9022C264.582 55.9022 264.592 55.9022 264.603 55.9022C264.75 55.7942 264.924 55.6861 265.123 55.578C265.333 55.4592 265.554 55.3511 265.785 55.2539C266.017 55.1566 266.258 55.081 266.511 55.027C266.763 54.9621 267.01 54.9297 267.252 54.9297C267.788 54.9297 268.208 55.0162 268.513 55.189C268.818 55.3511 269.049 55.5726 269.207 55.8536C269.364 56.1345 269.464 56.4641 269.506 56.8423C269.548 57.2097 269.569 57.5987 269.569 58.0093V62.7097Z" fill="white"/>
<path d="M277 60.635C277 61.1105 276.911 61.5103 276.732 61.8345C276.553 62.1478 276.312 62.4017 276.007 62.5962C275.712 62.7907 275.376 62.9312 274.998 63.0177C274.619 63.1041 274.225 63.1473 273.815 63.1473C273.416 63.1473 272.985 63.1149 272.523 63.0501C272.06 62.9961 271.676 62.9096 271.372 62.7907C271.214 62.7259 271.114 62.6557 271.072 62.58C271.03 62.4936 271.019 62.3855 271.041 62.2559L271.151 61.721C271.172 61.5913 271.214 61.5157 271.277 61.4941C271.34 61.4617 271.435 61.4563 271.561 61.4779C271.729 61.5103 271.913 61.5373 272.113 61.5589C272.323 61.5805 272.528 61.6021 272.727 61.6238C272.938 61.6346 273.132 61.6454 273.311 61.6562C273.5 61.667 273.663 61.6724 273.8 61.6724C274.304 61.6724 274.667 61.6021 274.887 61.4617C275.108 61.3104 275.218 61.0727 275.218 60.7485C275.218 60.5648 275.197 60.4135 275.155 60.2947C275.124 60.1758 275.061 60.0786 274.966 60.0029C274.872 59.9273 274.74 59.8678 274.572 59.8246C274.414 59.7706 274.209 59.7274 273.957 59.695C273.568 59.6409 273.2 59.5707 272.854 59.4843C272.507 59.3978 272.197 59.2735 271.923 59.1115C271.661 58.9386 271.45 58.7171 271.293 58.4469C271.135 58.166 271.056 57.804 271.056 57.361C271.056 56.5613 271.33 55.9562 271.876 55.5456C272.423 55.1242 273.137 54.9135 274.02 54.9135C274.178 54.9135 274.362 54.9189 274.572 54.9297C274.782 54.9405 274.992 54.9621 275.203 54.9945C275.423 55.027 275.639 55.0648 275.849 55.108C276.059 55.1512 276.249 55.2053 276.417 55.2701C276.679 55.3781 276.79 55.5402 276.748 55.7563L276.622 56.3398C276.601 56.4587 276.559 56.5343 276.495 56.5668C276.443 56.5884 276.343 56.5884 276.196 56.5668C275.86 56.5235 275.492 56.4857 275.092 56.4533C274.693 56.4101 274.346 56.3885 274.052 56.3885C273.547 56.3885 273.211 56.4641 273.043 56.6154C272.885 56.7558 272.806 56.9828 272.806 57.2961C272.806 57.6095 272.906 57.8148 273.106 57.912C273.316 58.0093 273.663 58.0957 274.146 58.1714C274.525 58.2254 274.882 58.2956 275.218 58.3821C275.565 58.4685 275.87 58.5982 276.133 58.7711C276.396 58.944 276.606 59.1763 276.764 59.468C276.921 59.7598 277 60.1488 277 60.635Z" fill="white"/>
<path fill-rule="evenodd" clip-rule="evenodd" d="M286 66.7H289.3V28H286V66.7Z" fill="white"/>
</svg>
