<svg width="290" height="72" viewBox="0 0 290 72" fill="none" xmlns="http://www.w3.org/2000/svg">
<path d="M0 24.5C0 24.5 39.8 19.3 41 19.1C42.7 18.8 44.3 18.5 45.7 18.1C48.9 17.2 51.9 15.9 54.5 14.1C57 12.4 59.4 9.9 61.7 7.2C63.2 5.5 64.7 3.2 66.2 1V0C64.5 2.6 62.8 4.8 61.1 6.7C58.8 9.3 56.4 11.4 53.9 13C51.4 14.6 48.5 15.9 45.4 16.7C44 17.1 42.5 17.3 40.8 17.6C39.7 17.8 38.6 17.9 37.5 18C37 18 0 21.9 0 21.9V24.5Z" fill="white"/>
<path d="M53.4 17.8C50.9 19.2 48 20.3 44.8 20.9C43.4 21.2 42 21.4 40.3 21.6C39.3 21.7 38.3 21.8 37.3 21.9C36.8 21.9 36.2 22 35.7 22C23.5 23.2 11.4 24.3 0 25.4V28C11.4 26.6 23.7 25.1 35.9 23.7C36.4 23.6 37 23.6 37.5 23.5C38.5 23.4 39.5 23.3 40.5 23.1C42.2 22.9 43.8 22.6 45.1 22.3C48.4 21.6 51.4 20.4 54 18.8C56.6 17.2 58.8 15.1 61.3 12.4C62.8 10.7 64.5 8.39995 66.1 6.19995V5.19995C64.2 7.69995 62.5 9.89995 60.7 11.7C58.3 14.4 55.9 16.4 53.4 17.8" fill="white"/>
<path d="M60.4 17.2C58 19.4 55.4 21.2 52.9 22.5C50.4 23.7 47.6 24.6 44.3 25.1C42.9 25.3 41.5 25.5 39.8 25.7L0 28.9V31.5L35.3 27.7L39.9 27.2C41.6 27 43.1 26.8 44.5 26.5C47.9 25.9 50.8 24.9 53.4 23.6C56.1 22.2 58.7 20 61.2 17.6C62.9 16 64.4 13.9 66.1 11.8V10.9C64.1 13.4 62.3 15.4 60.4 17.2" fill="white"/>
<path d="M50.8 30.6C48.5 31.9 46.8 32.7 43.5 33C41.5 33.2 39.5 33.3 37.5 33.4C36.5 33.4 35.6 33.5 34.6 33.6C28.6 33.9 22.7 34.3 16.7 34.7L0 35.9V38.5L16.8 36.9C22.2 36.4 28.5 35.8 34.7 35.3L39.2 35C40.9 34.9 42.4 34.7 43.7 34.5C47.1 34.1 50 33.4 52.6 32.4C55.4 31.4 58 29.7 60.6 27.8C63 26.1 66.2 22.7 66.2 22.6V21.7C64.1 23.8 62.8 25 60.5 26.5C57.6 28.5 52.9 29.5 50.8 30.6" fill="white"/>
<path d="M51.5996 35.6C49.0996 36.3 46.2996 36.8 42.9996 37.1C41.6996 37.2 40.1996 37.3 38.5996 37.4L34.1996 37.6C23.1996 38.1 12.1996 38.7 0.0996094 39.3V41.9C11.6996 41 22.9996 40.1 34.3996 39.3L38.7996 39C40.4996 38.9 41.8996 38.8 43.2996 38.6C46.6996 38.2 49.5996 37.6 52.0996 36.8C54.8996 35.9 57.6996 34.6 60.2996 32.9C62.1996 31.7 64.1996 30.2 66.1996 28.4V28.4C63.9996 30.3 61.8996 30.7 59.7996 32C57.0996 33.6 54.3996 34.8 51.5996 35.6" fill="white"/>
<path d="M51.2 39.9C48.7 40.5 45.9 40.9 42.6 41.1C41.3 41.2 39.9 41.3 38.2 41.3L33.8 41.5C22.7 41.9 11.5 42.4 0 42.9V45.5C11.4 44.7 22.6 44 33.9 43.2L38.3 42.9C40 42.8 41.4 42.7 42.7 42.6C46.1 42.3 48.9 41.8 51.5 41.1C54.4 40.3 57.2 39.2 59.9 37.8C62 36.7 64 35.4 66.1 33.8V32.7C63.8 34.4 61.6 35.7 59.4 36.8C56.8 38.2 54 39.2 51.2 39.9" fill="white"/>
<path d="M50.8 44.1C48.3 44.6 45.5 44.9 42.2 45C40.9 45.1 39.6 45.1 37.9 45.2L0 46.2V48.8L33.6 47L38 46.8C39.7 46.7 41.1 46.6 42.4 46.5C45.8 46.2 48.5 45.9 51.1 45.3C54 44.7 56.9 43.8 59.6 42.6C61.8 41.7 63.9 40.6 66.2 39.2V38.2C63.8 39.6 61.5 40.7 59.2 41.6C56.5 42.8 53.7 43.6 50.8 44.1" fill="white"/>
<path d="M50.5 48.3C45.8 48.9 41.1 49 36.4 49.1C35.3 49.1 34.3 49.1 33.2 49.2L0 49.8V52.4L33.3 51C34.4 51 35.4 50.9 36.5 50.9C41.2 50.7 46 50.5 50.7 49.8C53.7 49.3 56.6 48.6 59.2 47.7C61.4 47 63.7 46 66 44.8V43.8C63.6 44.9 61.1 45.9 58.8 46.6C56.3 47.3 53.5 48 50.5 48.3" fill="white"/>
<path d="M50.3 52.6C45.9 53 41.5 53 37.1 53C35.8 53 34.4 53 33.1 53C22.1 53 11.1 53.1 0 53.2V55.8C10.6 55.4 21.9 55.1 33.2 54.7C34.5 54.7 35.9 54.6 37.2 54.6C41.5 54.5 46 54.4 50.4 53.9C53.5 53.6 56.3 53.1 59 52.4C61.3 51.8 63.7 51 66.2 50.1V49.2C63.7 50.1 61.2 50.8 58.8 51.4C56.1 52 53.3 52.4 50.3 52.6" fill="white"/>
<path d="M50.1 56.8C48.3 56.9 46.3 56.9 44.1 56.9C43.3 56.9 42.4 56.9 41.6 56.9L33 56.8C27.1 56.8 21.3 56.7 15.8 56.7L0 56.8V59.4L15.9 59C21.4 58.9 27.2 58.7 33 58.6L41.6 58.5C44 58.5 47.1 58.4 50.2 58.2C53.3 58 56.1 57.7 58.8 57.3C61.2 56.9 63.7 56.4 66.2 55.8V54.9C63.7 55.5 61.1 56 58.7 56.3C55.9 56.5 53.2 56.7 50.1 56.8" fill="white"/>
<path d="M41.5 60.9L32.9 60.8C22 60.6 11.1 60.4 0 60.2V62.8C10.6 62.7 21.8 62.6 32.9 62.5L41.5 62.4C44.4 62.4 47.2 62.3 50.1 62.2C56 62 61.2 61.6 66.2 60.9V60C61.3 60.5 56 60.8 50.1 60.9C47.2 60.9 44.3 60.9 41.5 60.9" fill="white"/>
<path d="M66.1 65.5L0 63.8V66.4H66.1V65.5Z" fill="white"/>
<path d="M60.2 22C57.7 24 55.7 25.5 52.7 26.7C50 27.8 47.1 28.2 43.9 28.7C41.8 29 39.6 29.4 37.5 29.6C36.6 29.7 35.8 29.7 34.9 29.8L0 32.3V34.9L34.9 31.5L39.4 31.1C41.1 30.9 42.6 30.8 44 30.5C47.4 30 50.3 29.1 52.9 27.9C55.6 26.7 58.4 24.7 60.9 22.6C62.6 21.1 64.3 19.3 66.1 17.3V16.4C63.9 18.6 62.1 20.5 60.2 22" fill="white"/>
<path d="M94.2002 0C94.2002 0 106.1 18.9 108.3 22.4C110.5 25.9 113 28.6 121.8 30.5C130.6 32.4 134.4 33.2 134.4 33.2V33.9C134.4 33.9 128.8 32.7 121.6 31.1C114.4 29.5 111.5 29 108.2 24.4C105.5 20.6 94.2002 4.5 94.2002 4.5V0Z" fill="white"/>
<path d="M94.2002 21.6C94.2002 21.6 105 32.9 108.2 36.2C111.5 39.7 115.8 40.9 121.7 42C127.3 43 134.4 44.2 134.4 44.2V44.8C134.4 44.8 127.7 43.7 121.7 42.7C115.8 41.7 111.6 41.1 108.2 38C105.2 35.2 94.3002 25 94.3002 25L94.2002 21.6V21.6Z" fill="white"/>
<path d="M94.2002 26.8C94.2002 26.8 104.5 36.4 108.2 39.6C111.6 42.6 114.3 43.5 121.7 44.9C129.1 46.2 134.4 47 134.4 47V47.7C134.4 47.7 127.7 46.6 121.7 45.6C115.7 44.6 111.8 44.3 108.2 41.3C104 37.9 94.2002 29.9 94.2002 29.9V26.8Z" fill="white"/>
<path d="M94.2002 32.2C94.2002 32.2 106 41.5 108.2 43.2C110.4 44.8 113.3 46.7 121.7 48C130.1 49.2 134.4 49.8 134.4 49.8V50.5C134.4 50.5 126.8 49.4 121.7 48.8C116.6 48.2 112.7 47.9 108.2 44.9C103.8 42 94.2002 35.2 94.2002 35.2V32.2Z" fill="white"/>
<path d="M94.2002 37.4C94.2002 37.4 106 45.3 108.2 46.5C110.4 47.7 113.1 49.8 121.7 50.9C130.3 52 134.4 52.5 134.4 52.5V53.2C134.4 53.2 127.3 52.4 121.7 51.8C116.1 51.2 112.3 50.4 108.2 48.1C104.1 45.8 94.2002 40.1 94.2002 40.1V37.4Z" fill="white"/>
<path d="M94.2002 42.7C94.2002 42.7 104.6 48.4 108.2 50.1C112.1 52.1 115.5 53 121.7 53.8C127.8 54.5 134.4 55.2 134.4 55.2V55.8C134.4 55.8 128.3 55.1 121.7 54.5C115.2 53.9 112.9 53.6 108.2 51.5C104 49.6 94.2002 45.1 94.2002 45.1V42.7Z" fill="white"/>
<path d="M94.1996 48C94.1996 48 102.4 51.5 108.2 53.8C113.9 56.1 118.2 56.3 121.7 56.6C123.2 56.8 134.3 57.9 134.3 57.9V58.5C134.3 58.5 127.7 58 121.6 57.4C115.6 56.9 113 56.6 108.1 55C103.2 53.4 94.0996 50.2 94.0996 50.2L94.1996 48V48Z" fill="white"/>
<path d="M94.2002 53.4C94.2002 53.4 102.5 56 108.2 57.5C113.9 59 119.1 59.6 121.7 59.8C124.3 60 134.4 60.8 134.4 60.8V61.4C134.4 61.4 128.7 61 121.7 60.5C116 60.1 111.5 59.7 108.2 58.9C104.5 58.1 94.2002 55.6 94.2002 55.6V53.4Z" fill="white"/>
<path d="M94.2002 58.7C94.2002 58.7 101 59.9 108.2 61.1C113.6 62 120.9 62.6 121.7 62.6C122.5 62.6 134.4 63.5 134.4 63.5V64.1C134.4 64.1 126.8 63.7 121.7 63.4C116.4 63.1 111.2 62.8 108.2 62.5C101.5 61.8 94.2002 60.9 94.2002 60.9V58.7Z" fill="white"/>
<path d="M94.2002 64.3C94.2002 64.3 104.9 64.7 108.2 64.8C111.5 64.9 134.4 65.8 134.4 65.8V66.4H94.2002V64.3Z" fill="white"/>
<path d="M121.7 33.4C112 31.3 109.8 27.8 108.2 25.6C106.6 23.4 94.2998 5.40002 94.2998 5.40002V9.50002C94.7998 10.1 105.3 23.9 108.3 27.7C111.6 32 116.8 33 121.8 34C126.8 35.1 134.5 36.6 134.5 36.6V36C134.4 36 124.2 34 121.7 33.4" fill="white"/>
<path d="M121.7 36.3C113.7 34.7 110.5 32.2 108.2 29.2C105.9 26.1 94.2998 10.9 94.2998 10.9V14.7C94.7998 15.3 105.4 27.8 108.2 31.1C111.5 34.9 116.1 35.9 121.7 36.9C127.3 37.9 134.4 39.3 134.4 39.3V38.7C134.4 38.7 126.3 37.2 121.7 36.3" fill="white"/>
<path d="M121.7 39.2C113.4 37.6 111.7 36.3 108.2 32.4C106 30 94.7002 16.7 94.2002 16.1V19.6C94.2002 19.6 104.7 30.8 108.1 34.2C112.5 38.6 116.7 38.9 121.6 39.8C126.5 40.7 134.3 42.1 134.3 42.1V41.5C134.4 41.5 125 39.9 121.7 39.2" fill="white"/>
<path d="M85.4 27.6H27.5V66.3H85.4V27.6Z" fill="#004494" stroke="white" stroke-width="2"/>
<path d="M57.1004 33.1H59.1004L57.5004 34.4L58.1004 36.4L56.5004 35.2L54.9004 36.4L55.5004 34.4L53.9004 33.1H55.9004L56.5004 31.1L57.1004 33.1Z" fill="#FFF100"/>
<path d="M57.1004 58.9H59.1004L57.5004 60.1L58.1004 62L56.5004 60.8L54.9004 62L55.5004 60.1L53.9004 58.9H55.9004L56.5004 57L57.1004 58.9Z" fill="#FFF100"/>
<path d="M63.4998 57.2H65.4998L63.8998 58.4L64.4998 60.3L62.8998 59.1L61.2998 60.3L61.8998 58.4L60.2998 57.2H62.2998L62.8998 55.3L63.4998 57.2Z" fill="#FFF100"/>
<path d="M63.5004 34.8H65.5004L63.9004 36L64.5004 37.9L62.9004 36.7L61.3004 38L62.0004 36L60.4004 34.8H62.4004L63.0004 32.9L63.5004 34.8Z" fill="#FFF100"/>
<path d="M68.2996 39.6H70.2996L68.6996 40.8L69.2996 42.7L67.6996 41.5L66.0996 42.7L66.6996 40.8L65.0996 39.6H67.0996L67.6996 37.7L68.2996 39.6Z" fill="#FFF100"/>
<path d="M68.2996 52.6H70.2996L68.6996 53.8L69.2996 55.7L67.6996 54.5L66.0996 55.7L66.6996 53.8L65.0996 52.6H67.0996L67.6996 50.7L68.2996 52.6Z" fill="#FFF100"/>
<path d="M70.0998 46H72.0998L70.4998 47.2L71.0998 49.1L69.4998 47.9L67.8998 49.1L68.4998 47.2L66.7998 46H68.7998L69.3998 44.1L70.0998 46Z" fill="#FFF100"/>
<path d="M50.4998 34.8H52.4998L50.8998 36L51.4998 37.9L49.9998 36.8L48.2998 38L48.8998 36.1L47.2998 34.9H49.2998L49.9998 33L50.4998 34.8Z" fill="#FFF100"/>
<path d="M45.9002 39.6H47.9002L46.3002 40.8L46.9002 42.7L45.3002 41.5L43.7002 42.7L44.3002 40.8L42.7002 39.6H44.7002L45.3002 37.7L45.9002 39.6Z" fill="#FFF100"/>
<path d="M44.2 46H46.2L44.6 47.2L45.2 49.1L43.6 47.9L42 49.1L42.6 47.2L41 46H43L43.6 44.1L44.2 46Z" fill="#FFF100"/>
<path d="M45.9002 52.6H47.9002L46.3002 53.8L46.9002 55.7L45.3002 54.5L43.7002 55.7L44.3002 53.8L42.7002 52.6H44.7002L45.3002 50.7L45.9002 52.6Z" fill="#FFF100"/>
<path d="M50.6004 57.3H52.6004L51.0004 58.5L51.6004 60.4L50.0004 59.2L48.4004 60.4L49.0004 58.5L47.4004 57.3H49.4004L50.0004 55.4L50.6004 57.3Z" fill="#FFF100"/>
<path d="M143.4 33.1C143.4 32.8 143.5 32.7 143.8 32.7H151.2C151.5 32.7 151.6 32.8 151.6 33.1V34.3C151.6 34.5 151.5 34.7 151.2 34.7H145.7V38.2H150.6C150.9 38.2 151 38.3 151 38.6V39.8C151 40 150.9 40.2 150.6 40.2H145.7V44.2H151.3C151.5 44.2 151.7 44.3 151.7 44.6V45.8C151.7 46 151.6 46.2 151.3 46.2H143.8C143.5 46.2 143.4 46.1 143.4 45.8V33.1Z" fill="white"/>
<path d="M161.8 46.1H160.4C160.3 46.1 160.2 46.1 160.1 46C160 45.9 160 45.8 160 45.7V45V45C159.8 45.1 159.6 45.3 159.3 45.4C159 45.5 158.8 45.7 158.5 45.8C158.2 45.9 157.9 46 157.6 46.1C157.3 46.2 157 46.2 156.7 46.2C156 46.2 155.5 46.1 155.1 45.9C154.7 45.7 154.4 45.5 154.2 45.1C154 44.8 153.9 44.4 153.8 43.9C153.7 43.4 153.7 43 153.7 42.4V36.5C153.7 36.2 153.8 36.1 154.1 36.1H155.6C155.8 36.1 156 36.2 156 36.5V42.1C156 42.4 156 42.7 156.1 42.9C156.1 43.1 156.2 43.3 156.3 43.5C156.4 43.7 156.6 43.8 156.7 43.9C156.8 44 157.1 44 157.4 44C157.6 44 157.8 44 158.1 43.9C158.4 43.8 158.6 43.7 158.9 43.6C159.2 43.5 159.4 43.4 159.6 43.3C159.8 43.2 160 43.1 160.1 43V36.3C160.1 36.2 160.1 36.1 160.2 36C160.3 35.9 160.4 35.9 160.5 35.9H161.9C162.2 35.9 162.3 36 162.3 36.3V45.4C162.2 45.9 162.1 46.1 161.8 46.1Z" fill="white"/>
<path d="M166.901 45.7C166.901 46 166.801 46.1 166.501 46.1H165.001C164.701 46.1 164.601 46 164.601 45.7V36.6C164.601 36.3 164.701 36.2 165.001 36.2H166.401C166.701 36.2 166.801 36.3 166.801 36.6V37.5V37.5C166.901 37.4 167.101 37.2 167.401 37.1C167.601 36.9 167.901 36.8 168.201 36.7C168.501 36.6 168.801 36.5 169.001 36.3C169.301 36.2 169.501 36.1 169.801 36.1C169.901 36.1 170.001 36.1 170.101 36.1C170.201 36.1 170.201 36.2 170.301 36.4L170.401 37.7C170.401 37.8 170.401 38 170.401 38C170.401 38.1 170.301 38.1 170.001 38.2C169.701 38.3 169.401 38.3 169.101 38.4C168.801 38.5 168.501 38.6 168.201 38.6C167.901 38.7 167.601 38.8 167.401 38.9C167.101 39 166.901 39.1 166.801 39.1L166.901 45.7V45.7Z" fill="white"/>
<path fill-rule="evenodd" clip-rule="evenodd" d="M178.4 32.2C178.5 32.1 178.5 31.9 178.3 31.8L177.1 31.1C176.9 31 176.8 31 176.7 31.2L175.1 34.3C175 34.5 175.1 34.6 175.2 34.7L176 35.1C176.2 35.2 176.3 35.1 176.4 35L178.4 32.2ZM180.2 41V41C180.2 41.6 180.2 42.2 180.1 42.8C180 43.4 179.8 44 179.5 44.5C179.2 45 178.8 45.4 178.2 45.8C177.6 46.1 176.8 46.3 175.8 46.3C174.8 46.3 174 46.1 173.4 45.8C172.8 45.5 172.4 45.1 172.1 44.5C171.8 44 171.6 43.4 171.6 42.8C171.5 42.2 171.5 41.6 171.5 41C171.5 40.5 171.5 40 171.6 39.4C171.7 38.8 171.9 38.3 172.2 37.8C172.5 37.3 172.9 36.9 173.5 36.5C174.1 36.2 174.8 36 175.8 36C176.8 36 177.6 36.1 178.1 36.4C178.7 36.7 179.1 37.1 179.4 37.6C179.7 38.1 179.9 38.6 180 39.2C180.1 39.8 180.2 40.4 180.2 41ZM177.9 41.1C177.9 40.6 177.9 40.1 177.8 39.7C177.7 39.3 177.6 39 177.5 38.7C177.3 38.4 177.1 38.2 176.8 38.1C176.5 38 176.2 37.9 175.7 37.9C175.3 37.9 174.9 38 174.7 38.1C174.5 38.2 174.2 38.4 174.1 38.7C173.9 39 173.8 39.3 173.8 39.7C173.7 40.1 173.7 40.6 173.7 41.1C173.7 41.6 173.7 42.1 173.8 42.5C173.9 42.9 174 43.2 174.1 43.5C174.2 43.8 174.5 44 174.7 44.1C174.9 44.2 175.3 44.3 175.7 44.3C176.2 44.3 176.5 44.2 176.8 44.1C177.1 44 177.3 43.8 177.5 43.5C177.7 43.2 177.8 42.9 177.8 42.5C177.9 42.1 177.9 41.7 177.9 41.1V41.1Z" fill="white"/>
<path fill-rule="evenodd" clip-rule="evenodd" d="M190.6 43.3C190.7 42.6 190.8 41.9 190.8 41.1C190.8 40.3 190.8 39.6 190.6 39C190.5 38.4 190.3 37.8 190.1 37.4C189.9 37 189.5 36.6 189.1 36.4C188.7 36.1 188.2 36 187.5 36C187.2 36 186.9 36 186.6 36.1L185.7 36.4C185.491 36.4697 185.282 36.5881 185.106 36.6872C185.03 36.7303 184.961 36.7697 184.9 36.8C184.7 37 184.5 37.1 184.3 37.2H184.2V36.6C184.2 36.5 184.2 36.4 184.1 36.3C184 36.2 183.9 36.2 183.8 36.2H182.4C182.1 36.2 182 36.3 182 36.6V49.3C182 49.35 182.025 49.4 182.05 49.45C182.075 49.5 182.1 49.55 182.1 49.6C182.1 49.7 182.2 49.7 182.4 49.7H183.8C183.9 49.7 184 49.7 184.1 49.6C184.2 49.5 184.2 49.4 184.2 49.3V45.8L184.2 45.8C184.7 45.9 185.2 46 185.6 46.1C186.1 46.2 186.5 46.2 186.8 46.2H186.8C187.6 46.2 188.3 46.1 188.8 45.9C189.3 45.7 189.7 45.3 190 44.9C190.3 44.5 190.5 43.9 190.6 43.3ZM188.4 39.6C188.5 39.9 188.5 40.5 188.5 41.1C188.5 41.7 188.5 42.2 188.2 42.8C188.2 43.2 188.1 43.5 187.9 43.8C187.7 44 187.5 44.2 187.3 44.3C187.1 44.4 186.8 44.5 186.4 44.5C186 44.5 185.6 44.5 185.3 44.4C185 44.3 184.6 44.2 184.1 44.1V39.1L184.7 38.8C184.8 38.75 184.925 38.7 185.05 38.65C185.175 38.6 185.3 38.55 185.4 38.5C185.55 38.45 185.675 38.425 185.8 38.4C185.925 38.375 186.05 38.35 186.2 38.3C186.5 38.2 186.7 38.2 186.9 38.2C187.2 38.2 187.4 38.2 187.6 38.3C187.8 38.3 188 38.5 188.1 38.7C188.167 38.8333 188.233 39.0556 188.3 39.2778C188.333 39.3889 188.367 39.5 188.4 39.6Z" fill="white"/>
<path fill-rule="evenodd" clip-rule="evenodd" d="M197.1 45.8C197.7 45.6 198.3 45.3 198.8 44.9C198.9 45.4 199.1 45.7 199.5 45.8C199.8 46 200.1 46.1 200.6 46.1H201.1C201.3 46 201.4 46 201.6 46C201.9 46 202.1 45.8 202.1 45.6V44.8C202.1 44.7575 202.1 44.7331 202.092 44.7114C202.082 44.682 202.058 44.6575 202 44.6C201.9 44.5 201.8 44.5 201.7 44.5C201.5 44.4 201.4 44.4 201.3 44.4C201.2 44.4 201.1 44.4 201.1 44.3C201.1 44.25 201.075 44.2 201.05 44.15C201.025 44.1 201 44.05 201 44V43.5V39.6C201 39.1 201 38.6 200.9 38.1C200.8 37.6 200.7 37.2 200.4 36.9C200.1 36.6 199.7 36.4 199.2 36.2C198.7 36 198 35.9 197.1 35.9H196.3C196.15 35.9 196 35.925 195.85 35.95C195.7 35.975 195.55 36 195.4 36C195.1 36 194.8 36 194.5 36.1C194.362 36.1459 194.225 36.1707 194.097 36.1938C193.946 36.2211 193.808 36.2459 193.7 36.3C193.5 36.4 193.3 36.5 193.3 36.6V36.9L193.5 37.6C193.529 37.6586 193.55 37.7086 193.567 37.75C193.609 37.85 193.629 37.9 193.7 37.9H194.1C194.3 37.8 194.6 37.8 194.8 37.8C195 37.7 195.3 37.7 195.5 37.7H196.2H196.8C197.2 37.7 197.5 37.7 197.8 37.8L198.4 38.1C198.5 38.2 198.6 38.4 198.7 38.6C198.8 38.9 198.8 39.1 198.8 39.4V39.9H196.2C195 39.9 194 40.2 193.4 40.7C192.8 41.3 192.5 42.1 192.5 43.3C192.5 43.8 192.5 44.2 192.6 44.5C192.6 44.9 192.8 45.2 193 45.4C193.2 45.7 193.4 45.9 193.8 46C194.1 46.1 194.6 46.2 195.1 46.2C195.8 46.2 196.5 46 197.1 45.8ZM196.3 41.6H198.7H198.8V43.6C198.733 43.6667 198.578 43.7334 198.422 43.8C198.344 43.8334 198.267 43.8667 198.2 43.9L198.2 43.9C198 44 197.8 44.1 197.5 44.2C197.35 44.25 197.225 44.275 197.1 44.3C196.975 44.325 196.85 44.35 196.7 44.4C196.4 44.5 196.2 44.5 196 44.5C195.5 44.5 195.2 44.4 195 44.2C194.8 44 194.7 43.7 194.7 43.3C194.7 42.7 194.8 42.2 195.1 42C195.4 41.7 195.8 41.6 196.3 41.6Z" fill="white"/>
<path fill-rule="evenodd" clip-rule="evenodd" d="M206.001 34.1V33.6C206.001 33.3 205.901 33 205.801 32.9C205.601 32.7 205.301 32.6 204.801 32.6C204.301 32.6 204.001 32.7 203.801 32.9C203.701 33.1 203.601 33.4 203.601 33.7V34.1C203.639 34.1764 203.662 34.2382 203.683 34.291C203.715 34.3764 203.739 34.4382 203.801 34.5C203.901 34.6 204.001 34.7 204.201 34.8C204.301 34.9 204.501 34.9 204.801 34.9C205.001 34.9 205.201 34.9 205.401 34.8C205.601 34.7 205.701 34.6 205.801 34.5C205.901 34.4 206.001 34.2 206.001 34.1ZM205.801 46C205.901 45.9 205.901 45.8 205.901 45.7V36.6C205.901 36.55 205.876 36.5 205.851 36.45C205.826 36.4 205.801 36.35 205.801 36.3C205.701 36.2 205.601 36.2 205.501 36.2H204.101C203.801 36.2 203.701 36.3 203.701 36.6V45.7C203.701 46 203.801 46.1 204.101 46.1H205.501C205.701 46.1 205.801 46.1 205.801 46Z" fill="white"/>
<path fill-rule="evenodd" clip-rule="evenodd" d="M152.8 62.6C152.8 63.2 152.7 63.7 152.5 64.2C152.3 64.7 152 65.1 151.7 65.4C151.3 65.7 150.9 66 150.5 66.2C150 66.4 149.5 66.5 149 66.5H143.9C143.7 66.5 143.6 66.5 143.5 66.4C143.4 66.3 143.4 66.2 143.4 66.1V53.4C143.4 53.1 143.5 53 143.8 53H148.4C149.7 53 150.7 53.3 151.4 54C152.1 54.6 152.4 55.5 152.4 56.6C152.4 56.8 152.4 57 152.3 57.3C152.271 57.3895 152.25 57.4701 152.23 57.5472L152.23 57.5472C152.183 57.7283 152.141 57.8895 152 58.1C151.9 58.4 151.7 58.6 151.5 58.8C151.3 59 151 59.2 150.7 59.4C151.1 59.5 151.4 59.7 151.7 60C152 60.3 152.2 60.5 152.3 60.8L152.6 61.7C152.7 62 152.8 62.3 152.8 62.6ZM150.1 56.8C150.1 56.3 149.9 55.9 149.6 55.5C149.3 55.2 148.8 55 148.1 55H145.7V58.5H148.3C148.8 58.5 149.2 58.3 149.6 58C149.9 57.7 150.1 57.3 150.1 56.8ZM150 61C150.3 61.4 150.5 61.9 150.5 62.4C150.5 62.5652 150.44 62.7303 150.385 62.8788C150.341 63 150.3 63.1101 150.3 63.2C150.3 63.4 150.1 63.7 150 63.8C149.9 63.9 149.7 64.1 149.4 64.2C149.1 64.3 148.8 64.4 148.4 64.4H145.7V60.4H148.4C149.1 60.4 149.7 60.6 150 61Z" fill="white"/>
<path fill-rule="evenodd" clip-rule="evenodd" d="M157.4 54.4V53.9C157.4 53.6 157.3 53.3 157.2 53.2C157 53 156.7 52.9 156.2 52.9C155.7 52.9 155.4 53 155.2 53.2C155.1 53.4 155 53.7 155 54V54.4C155.038 54.4764 155.062 54.5382 155.082 54.591C155.115 54.6764 155.138 54.7382 155.2 54.8C155.3 54.9 155.4 55 155.6 55.1C155.7 55.2 155.9 55.2 156.2 55.2C156.4 55.2 156.6 55.2 156.8 55.1C157 55 157.1 54.9 157.2 54.8C157.3 54.7 157.4 54.5 157.4 54.4ZM157.2 66.3C157.3 66.2 157.3 66.1 157.3 66V56.9C157.3 56.85 157.275 56.8 157.25 56.75C157.225 56.7 157.2 56.65 157.2 56.6C157.1 56.5 157 56.5 156.9 56.5H155.5C155.2 56.5 155.1 56.6 155.1 56.9V66C155.1 66.3 155.2 66.4 155.5 66.4H156.9C157.1 66.4 157.2 66.4 157.2 66.3Z" fill="white"/>
<path d="M166.601 64.5C166.901 64.5 167.001 64.6 167.001 64.9V66C167.001 66.3 166.901 66.4 166.601 66.4H159.601C159.401 66.4 159.301 66.3 159.301 66.1V65.2C159.301 65.1 159.301 65 159.301 64.9C159.301 64.8 159.401 64.7 159.501 64.6L164.301 58.5H160.001C159.701 58.5 159.601 58.4 159.601 58.1V57C159.601 56.8 159.701 56.6 160.001 56.6H166.601C166.701 56.6 166.801 56.6 166.901 56.7C167.001 56.7 167.001 56.8 167.001 57V58C167.001 58.2 166.901 58.5 166.801 58.7L162.101 64.7H166.601V64.5V64.5Z" fill="white"/>
<path fill-rule="evenodd" clip-rule="evenodd" d="M177.301 61.3001V61.3C177.301 60.7 177.301 60.1 177.101 59.5C177.001 58.9 176.801 58.4 176.501 57.9C176.201 57.4 175.801 57 175.201 56.7C174.701 56.4 173.901 56.3 172.901 56.3C171.901 56.3 171.201 56.5 170.601 56.8C170.001 57.2 169.601 57.6 169.301 58.1C169.001 58.6 168.801 59.1 168.701 59.7C168.601 60.3 168.601 60.8 168.601 61.3C168.601 61.9 168.601 62.5 168.701 63.1C168.701 63.7 168.901 64.3 169.201 64.8C169.501 65.4 169.901 65.8 170.501 66.1C171.101 66.4 171.901 66.6 172.901 66.6C173.901 66.6 174.701 66.4 175.301 66.1C175.901 65.7 176.301 65.3 176.601 64.8C176.901 64.3 177.101 63.7 177.201 63.1C177.301 62.5001 177.301 61.9001 177.301 61.3001ZM175.001 60C175.101 60.4 175.101 60.9 175.101 61.4C175.101 61.7304 175.07 62 175.043 62.2425C175.021 62.4405 175.001 62.6203 175.001 62.8C175.001 63.2 174.901 63.5 174.701 63.8C174.501 64.1 174.301 64.3 174.001 64.4C173.701 64.5 173.401 64.6 172.901 64.6C172.501 64.6 172.101 64.5 171.901 64.4C171.701 64.3 171.401 64.1 171.301 63.8C171.201 63.5 171.101 63.2 171.001 62.8C170.901 62.4 170.901 61.9 170.901 61.4C170.901 60.9 170.901 60.4 171.001 60C171.001 59.6 171.101 59.3 171.301 59C171.401 58.7 171.701 58.5 171.901 58.4C172.101 58.3 172.501 58.2 172.901 58.2C173.401 58.2 173.701 58.3 174.001 58.4C174.301 58.5 174.501 58.7 174.701 59C174.801 59.3 174.901 59.6 175.001 60Z" fill="white"/>
<path d="M185.401 65.6C185.401 65.8 185.401 66 185.101 66.1C184.901 66.2 184.701 66.2 184.501 66.3C184.301 66.4 184.001 66.4 183.801 66.4C183.601 66.4 183.301 66.5 183.101 66.5C182.901 66.5 182.701 66.5 182.501 66.5C181.901 66.5 181.501 66.4 181.101 66.3C180.801 66.1 180.501 65.9 180.401 65.6C180.201 65.3 180.101 65 180.101 64.6C180.101 64.2 180.001 63.8 180.001 63.4V58.4H179.001C178.901 58.4 178.801 58.4 178.701 58.3C178.601 58.2 178.601 58.1 178.601 58V57C178.601 56.9 178.601 56.8 178.701 56.7C178.801 56.6 178.901 56.6 179.001 56.6H180.001V54.5C180.001 54.4 180.001 54.2 180.101 54.2C180.201 54.1 180.301 54.1 180.401 54.1L181.701 53.7C182.001 53.6 182.101 53.7 182.101 53.9V56.5H184.201C184.401 56.5 184.501 56.5 184.501 56.6C184.501 56.7 184.601 56.8 184.601 56.9V57.9C184.601 58 184.601 58.1 184.501 58.2C184.501 58.3 184.301 58.3 184.201 58.3H182.101V63.3C182.101 63.6 182.101 63.8 182.201 63.9C182.301 64 182.301 64.2 182.401 64.2C182.501 64.3 182.601 64.3 182.801 64.3C183.001 64.3 183.201 64.3 183.501 64.3C183.601 64.3 183.901 64.3 184.101 64.3C184.401 64.3 184.601 64.3 184.801 64.2C184.901 64.2 185.001 64.2 185.001 64.2C185.001 64.2 185.101 64.3 185.101 64.4L185.401 65.6Z" fill="white"/>
<path d="M192.7 65.6C192.7 65.8 192.7 66 192.4 66.1C192.2 66.2 192 66.2 191.8 66.3C191.6 66.4 191.3 66.4 191.1 66.4C190.9 66.4 190.6 66.5 190.4 66.5C190.2 66.5 190 66.5 189.8 66.5C189.2 66.5 188.8 66.4 188.4 66.3C188.1 66.1 187.8 65.9 187.7 65.6C187.5 65.3 187.4 65 187.4 64.6C187.4 64.2 187.3 63.8 187.3 63.4V58.4H186.3C186.2 58.4 186.1 58.4 186 58.3C185.9 58.2 185.9 58.1 185.9 58V57C185.9 56.9 185.9 56.8 186 56.7C186.1 56.6 186.2 56.6 186.3 56.6H187.3V54.5C187.3 54.4 187.3 54.2 187.4 54.2C187.5 54.1 187.6 54.1 187.7 54.1L189 53.7C189.3 53.6 189.4 53.7 189.4 53.9V56.5H191.5C191.7 56.5 191.8 56.5 191.8 56.6C191.8 56.7 191.9 56.8 191.9 56.9V57.9C191.9 58 191.9 58.1 191.8 58.2C191.8 58.3 191.6 58.3 191.5 58.3H189.4V63.3C189.4 63.6 189.4 63.8 189.5 63.9C189.6 64 189.6 64.2 189.7 64.2C189.8 64.3 189.9 64.3 190.1 64.3C190.3 64.3 190.5 64.3 190.8 64.3C190.9 64.3 191.2 64.3 191.4 64.3C191.7 64.3 191.9 64.3 192.1 64.2C192.2 64.2 192.3 64.2 192.3 64.2C192.3 64.2 192.4 64.3 192.4 64.4L192.7 65.6Z" fill="white"/>
<path d="M201.1 63.4001C201.1 64.0001 201 64.5001 200.8 64.9001C200.6 65.3001 200.3 65.6001 199.9 65.9001C199.5 66.1001 199.1 66.3001 198.6 66.4001C198.1 66.5001 197.6 66.6001 197.1 66.6001C196.6 66.6001 196 66.6001 195.5 66.5001C194.9 66.4001 194.4 66.3001 194 66.2001C193.8 66.1001 193.7 66.0001 193.6 65.9001C193.5 65.8001 193.5 65.7001 193.6 65.5001L193.7 64.8001C193.7 64.6001 193.8 64.5001 193.9 64.5001C194 64.5001 194.1 64.5001 194.3 64.5001C194.5 64.5001 194.8 64.6001 195 64.6001C195.3 64.6001 195.5 64.6001 195.8 64.7001C196.1 64.7001 196.3 64.7001 196.5 64.8001C196.7 64.8001 196.9 64.8001 197.1 64.8001C197.7 64.8001 198.2 64.7001 198.5 64.5001C198.8 64.3001 198.9 64.0001 198.9 63.6001C198.9 63.4001 198.9 63.2001 198.8 63.0001C198.7 62.8001 198.7 62.7001 198.5 62.6001C198.3 62.5001 198.2 62.4001 198 62.4001C197.8 62.3001 197.5 62.3001 197.2 62.2001C196.7 62.1001 196.2 62.0001 195.8 61.9001C195.4 61.8001 195 61.6001 194.6 61.4001C194.3 61.2001 194 60.9001 193.8 60.6001C193.6 60.3001 193.5 59.8001 193.5 59.3001C193.5 58.3001 193.8 57.6001 194.5 57.0001C195.2 56.5001 196.1 56.2001 197.2 56.2001C197.4 56.2001 197.6 56.2001 197.9 56.2001C198.2 56.2001 198.4 56.2001 198.7 56.3001C199 56.3001 199.2 56.4001 199.5 56.4001C199.8 56.4001 200 56.5001 200.2 56.6001C200.5 56.7001 200.7 56.9001 200.6 57.2001L200.4 57.9001C200.4 58.0001 200.3 58.1001 200.2 58.2001C200.1 58.2001 200 58.2001 199.8 58.2001C199.4 58.1001 198.9 58.1001 198.4 58.0001C197.9 58.0001 197.5 57.9001 197.1 57.9001C196.5 57.9001 196 58.0001 195.8 58.2001C195.6 58.4001 195.5 58.7001 195.5 59.1001C195.5 59.5001 195.6 59.7001 195.9 59.9001C196.2 60.0001 196.6 60.1001 197.2 60.2001C197.7 60.3001 198.1 60.4001 198.6 60.5001C199.1 60.6001 199.4 60.8001 199.8 61.0001C200.1 61.2001 200.4 61.5001 200.6 61.9001C201 62.3001 201.1 62.8001 201.1 63.4001Z" fill="white"/>
<path fill-rule="evenodd" clip-rule="evenodd" d="M210.1 52.5C210.2 52.4 210.2 52.2 210 52.1L208.8 51.4C208.6 51.3 208.5 51.3 208.4 51.5L206.8 54.6C206.7 54.8 206.8 54.9 206.9 55L207.7 55.4C207.9 55.5 208 55.4 208.1 55.3L210.1 52.5ZM209.2 65.2C208.7 65.6 208.1 65.9 207.5 66.1C206.9 66.3 206.2 66.5 205.5 66.5C205 66.5 204.5 66.4 204.2 66.3C203.8 66.2 203.6 66 203.4 65.7C203.2 65.5 203 65.2 203 64.8C202.9 64.5 202.9 64.1 202.9 63.6C202.9 62.4 203.2 61.6 203.8 61C204.4 60.5 205.4 60.2 206.6 60.2H209.2V59.7C209.2 59.4 209.2 59.2 209.1 58.9C209 58.7 208.9 58.5 208.8 58.4L208.2 58.1C207.9 58 207.6 58 207.2 58H206.6H205.9C205.7 58 205.4 58 205.2 58.1C205 58.1 204.7 58.1 204.5 58.2H204.1C204.03 58.2 204.009 58.15 203.968 58.05C203.95 58.0086 203.93 57.9586 203.9 57.9L203.7 57.2V56.9C203.8 56.8 203.9 56.7 204.1 56.6C204.209 56.5459 204.346 56.5211 204.497 56.4938L204.497 56.4938C204.625 56.4707 204.763 56.4459 204.9 56.4C205.2 56.3 205.5 56.3 205.8 56.3C205.95 56.3 206.1 56.275 206.25 56.25L206.25 56.25C206.4 56.225 206.55 56.2 206.7 56.2H207.5C208.4 56.2 209.1 56.3 209.6 56.5C210.1 56.7 210.5 56.9 210.8 57.2C211.1 57.5 211.2 57.9 211.3 58.4C211.4 58.9 211.4 59.4 211.4 59.9V63.8V64.3C211.4 64.35 211.425 64.4 211.45 64.45C211.475 64.5 211.5 64.55 211.5 64.6C211.5 64.7 211.6 64.7 211.7 64.7C211.8 64.7 211.9 64.7 212.1 64.8C212.2 64.8 212.3 64.8 212.4 64.9C212.5 64.9 212.5 65 212.5 65.1V65.9C212.5 66.1 212.3 66.3 212 66.3C211.8 66.3 211.7 66.3 211.5 66.4H211C210.5 66.4 210.2 66.3 209.9 66.1C209.6 66 209.4 65.7 209.2 65.2ZM209.1 61.9H206.7C206.2 61.9 205.8 62 205.5 62.3C205.2 62.5 205.1 63 205.1 63.6C205.1 64 205.2 64.3 205.4 64.5C205.6 64.7 205.9 64.8 206.4 64.8C206.6 64.8 206.8 64.8 207.1 64.7C207.25 64.65 207.375 64.625 207.5 64.6C207.625 64.575 207.75 64.55 207.9 64.5C208.2 64.4 208.4 64.3 208.6 64.2L208.6 64.2C208.667 64.1667 208.745 64.1334 208.823 64.1L208.823 64.1C208.978 64.0334 209.134 63.9667 209.2 63.9V61.9H209.1Z" fill="white"/>
<path fill-rule="evenodd" clip-rule="evenodd" d="M220.101 56.4C219.401 56.3 218.701 56.3 218.101 56.3C217.201 56.3 216.501 56.4 216.101 56.8C215.501 57 215.001 57.4 214.701 57.8C214.401 58.2 214.101 58.8 214.001 59.4C213.901 60 213.801 60.7 213.801 61.5C213.801 62.2 213.901 62.9 214.001 63.5C214.101 64.1 214.301 64.7 214.601 65.1C214.901 65.5 215.301 65.9 215.801 66.1C216.301 66.4 217.001 66.5 217.801 66.5H217.801C218.101 66.5 218.501 66.5 218.901 66.4C218.978 66.3808 219.059 66.3615 219.142 66.3416C219.493 66.2578 219.897 66.1615 220.301 66V66.5C220.301 66.8 220.301 67.1 220.201 67.3C220.201 67.6 220.101 67.8 219.901 67.9C219.701 68 219.501 68.1 219.201 68.2C218.901 68.3 218.501 68.3 218.101 68.3H216.801C216.551 68.25 216.326 68.225 216.101 68.2C215.876 68.175 215.651 68.15 215.401 68.1H215.001C214.901 68.1 214.801 68.2 214.801 68.4L214.601 69.1C214.601 69.1334 214.59 69.1667 214.579 69.2C214.556 69.2667 214.534 69.3334 214.601 69.4C214.701 69.5 214.801 69.6 215.001 69.7C215.401 69.9 215.901 70 216.501 70.1C217.101 70.2 217.701 70.2 218.201 70.2H218.201C219.201 70.2 219.901 70.1 220.501 69.9C221.101 69.7 221.501 69.5 221.801 69.1C222.101 68.7 222.301 68.3 222.401 67.8C222.501 67.3001 222.501 66.8001 222.501 66.2001V66.2V57.7C222.501 57.5 222.501 57.4 222.401 57.2C222.301 57 222.101 56.9 221.901 56.8C221.401 56.6 220.801 56.5 220.101 56.4ZM216.101 62.8C216.001 62.4 216.001 61.9 216.001 61.3V59.6C216.101 59.2 216.301 58.9 216.501 58.7C216.701 58.5 216.901 58.4 217.201 58.3C217.501 58.2 217.801 58.2 218.101 58.2C218.24 58.2 218.379 58.2216 218.528 58.2447C218.701 58.2713 218.886 58.3 219.101 58.3C219.501 58.3 219.801 58.3 220.101 58.4V64.1C219.834 64.2334 219.567 64.2778 219.301 64.3223C219.167 64.3445 219.034 64.3667 218.901 64.4C218.501 64.5 218.201 64.5 217.901 64.5C217.501 64.5 217.201 64.4 217.001 64.3C216.801 64.2 216.601 64 216.401 63.8C216.301 63.5 216.201 63.2 216.101 62.8Z" fill="white"/>
<rect x="232.2" y="28" width="3.3" height="38.7" fill="white"/>
</svg>
