<svg
  width="290"
  height="72"
  viewBox="0 0 290 72"
  fill="none"
  xmlns="http://www.w3.org/2000/svg"
>
<path
    d="M29.0595 64.8961H84.7641L84.759 28.8354L29.0544 28.8405L29.0595 64.8961Z"
    fill="#003399"
  />
<path
    d="M57.4401 33.3809H59.4717L57.8331 34.6449L58.4712 36.6472L56.8429 35.4135L55.2146 36.6472L55.8526 34.6449L54.2039 33.3809H56.2303L56.8429 31.4292L57.4401 33.3809Z"
    fill="#FFED00"
  />
<path
    d="M57.5115 59.1573H59.5431L57.9097 60.3759L58.5426 62.3023L56.9143 61.1141L55.286 62.3023L55.9292 60.3759L54.2753 59.1573H56.3018L56.9143 57.2815L57.5115 59.1573Z"
    fill="#FFED00"
  />
<path
    d="M63.9482 57.4534H65.9849L64.3464 58.6669L64.9844 60.5933L63.351 59.4051L61.7227 60.5933L62.3659 58.6669L60.712 57.4534H62.7385L63.351 55.5725L63.9482 57.4534Z"
    fill="#FFED00"
  />
<path
    d="M63.9482 35.1H65.9849L64.3464 36.3185L64.9844 38.2449L63.351 37.0567L61.7227 38.2449L62.3659 36.3185L60.712 35.1H62.7385L63.351 33.2241L63.9482 35.1Z"
    fill="#FFED00"
  />
<path
    d="M68.7311 39.8377H70.7575L69.1241 41.0512L69.7571 42.9776L68.1288 41.7894L66.5005 42.9776L67.1436 41.0512L65.4898 39.8377H67.5162L68.1288 37.9568L68.7311 39.8377Z"
    fill="#FFED00"
  />
<path
    d="M68.7311 52.7815H70.7575L69.1241 54L69.7571 55.9264L68.1288 54.7382L66.5005 55.9264L67.1436 54L65.4898 52.7815H67.5162L68.1288 50.9056L68.7311 52.7815Z"
    fill="#FFED00"
  />
<path
    d="M70.5176 46.2085H72.5543L70.9158 47.427L71.5487 49.3534L69.9204 48.1652L68.2921 49.3534L68.9353 47.427L67.2814 46.2085H69.3079L69.9204 44.3326L70.5176 46.2085Z"
    fill="#FFED00"
  />
<path
    d="M50.8809 35.1203H52.9074L51.274 36.3338L51.9069 38.2602L50.2786 37.072L48.6503 38.2602L49.2934 36.3338L47.6447 35.1203H49.6661L50.2786 33.2394L50.8809 35.1203Z"
    fill="#FFED00"
  />
<path
    d="M46.2308 39.8527H48.2674L46.6289 41.0662L47.2619 42.9926L45.6336 41.8044L44.0052 42.9926L44.6484 41.0662L42.9946 39.8527H45.021L45.6336 37.9718L46.2308 39.8527Z"
    fill="#FFED00"
  />
<path
    d="M44.5055 46.2287H46.537L44.9036 47.4422L45.5366 49.3686L43.9083 48.1854L42.28 49.3686L42.9231 47.4422L41.2744 46.2287H43.2957L43.9083 44.3478L44.5055 46.2287Z"
    fill="#FFED00"
  />
<path
    d="M46.2308 52.7966H48.2674L46.6289 54.0152L47.2619 55.9416L45.6336 54.7534L44.0052 55.9416L44.6484 54.0152L42.9946 52.7966H45.021L45.6336 50.9208L46.2308 52.7966Z"
    fill="#FFED00"
  />
<path
    d="M50.9473 57.4685H52.9737L51.3403 58.682L51.9733 60.6084L50.3449 59.4202L48.7166 60.6084L49.3598 58.682L47.7111 57.4685H49.7324L50.3449 55.5876L50.9473 57.4685Z"
    fill="#FFED00"
  />
<path
    d="M94.9372 0.00505726C94.9372 0.00505726 106.917 18.9101 109.112 22.3736C111.302 25.8371 113.808 28.5826 122.675 30.4433C131.541 32.304 135.4 33.1837 135.4 33.1837V33.8562C135.4 33.8562 129.765 32.668 122.516 31.0652C115.268 29.4624 112.302 28.9214 109 24.3657C106.249 20.5736 94.9372 3.61517 94.9372 3.61517V0V0.00505726Z"
    fill="white"
  />
<path
    d="M94.9372 21.5949C94.9372 21.5949 105.845 32.9157 109 36.1668C112.348 39.6151 116.631 40.8893 122.573 41.941C128.244 42.9421 135.395 44.1 135.395 44.1V44.7371C135.395 44.7371 128.677 43.6449 122.573 42.6135C116.585 41.5972 112.394 41.0309 108.964 37.9011C105.891 35.1 94.9372 24.9219 94.9372 24.9219V21.5898V21.5949Z"
    fill="white"
  />
<path
    d="M94.9372 26.6966C94.9372 26.6966 105.309 36.2376 109 39.4988C112.394 42.4972 115.146 43.4325 122.608 44.7421C130.071 46.0517 135.395 46.8657 135.395 46.8657V47.5382C135.395 47.5382 128.642 46.441 122.573 45.4803C116.503 44.5247 112.634 44.1455 109 41.2281C104.809 37.8606 94.9372 29.8112 94.9372 29.8112V26.6915V26.6966Z"
    fill="white"
  />
<path
    d="M94.9372 32.1321C94.9372 32.1321 106.785 41.4456 109 43.0737C111.215 44.7018 114.145 46.6029 122.644 47.8214C131.071 49.0298 135.395 49.6265 135.395 49.6265V50.3343C135.395 50.3343 127.754 49.2371 122.644 48.6001C117.535 47.963 113.619 47.69 109.036 44.6664C104.574 41.7237 94.9372 35.004 94.9372 35.004V32.1321Z"
    fill="white"
  />
<path
    d="M94.9372 37.3601C94.9372 37.3601 106.82 45.1972 109.071 46.441C111.322 47.6798 113.967 49.7022 122.644 50.7994C131.322 51.8966 135.395 52.3921 135.395 52.3921V53.0646C135.395 53.0646 128.218 52.286 122.608 51.6843C117.004 51.0826 113.18 50.2685 109 47.9983C104.819 45.7331 94.9372 40.0095 94.9372 40.0095V37.3601Z"
    fill="white"
  />
<path
    d="M94.9372 42.5883C94.9372 42.5883 105.442 48.2512 109 50.0158C112.966 51.9878 116.396 52.9333 122.608 53.6664C128.708 54.3844 135.395 55.0821 135.395 55.0821V55.7192C135.395 55.7192 129.213 55.0619 122.608 54.4451C116.059 53.8282 113.727 53.5451 109 51.467C104.773 49.6063 94.9372 45.0658 94.9372 45.0658V42.5833V42.5883Z"
    fill="white"
  />
<path
    d="M94.9372 47.8871C94.9372 47.8871 103.237 51.4062 109.071 53.7017C114.809 55.9568 119.193 56.1489 122.68 56.5382C124.216 56.7101 135.395 57.8478 135.395 57.8478V58.4848C135.395 58.4848 128.718 57.9539 122.644 57.423C116.57 56.8921 113.951 56.6646 109.036 55.0517C104.059 53.4135 94.9372 50.2635 94.9372 50.2635V47.8921V47.8871Z"
    fill="white"
  />
<path
    d="M94.9372 53.2921C94.9372 53.2921 103.319 55.8657 109.036 57.3522C114.753 58.8387 120 59.4455 122.644 59.6174C125.288 59.7944 135.4 60.6084 135.4 60.6084V61.2101C135.4 61.2101 129.647 60.8208 122.608 60.3253C116.917 59.9258 112.348 59.5011 109 58.768C105.294 57.959 94.9372 55.5219 94.9372 55.5219V53.2921Z"
    fill="white"
  />
<path
    d="M94.9372 58.6062C94.9372 58.6062 101.792 59.7792 109.036 60.9674C114.467 61.8573 121.822 62.4186 122.608 62.454C123.394 62.4893 135.395 63.3034 135.395 63.3034V63.9405C135.395 63.9405 127.713 63.5461 122.608 63.268C117.29 62.9747 112.001 62.6562 109 62.3478C102.272 61.6551 94.9372 60.7349 94.9372 60.7349V58.6062Z"
    fill="white"
  />
<path
    d="M94.9372 64.1074C94.9372 64.1074 105.748 64.5119 109.036 64.5827C112.323 64.6535 135.395 65.5737 135.395 65.5737V66.1956H94.9372V64.1074Z"
    fill="white"
  />
<path
    d="M122.603 33.3657C112.818 31.2775 110.603 27.7332 108.959 25.5388C107.315 23.3393 94.9321 5.41516 94.9321 5.41516V8.71179C95.4222 9.34382 106.019 23.8348 108.995 27.627C112.348 31.8994 117.601 32.8702 122.603 33.932C127.6 34.9938 135.395 36.4753 135.395 36.4753V35.909C135.395 35.909 125.135 33.9017 122.603 33.3657Z"
    fill="white"
  />
<path
    d="M122.603 36.2022C114.569 34.6449 111.317 32.127 108.959 29.0831C106.601 26.0343 94.9321 10.446 94.9321 10.446V14.2786C95.4222 14.85 106.096 27.7534 108.959 30.9994C112.297 34.7865 116.958 35.7826 122.603 36.809C128.249 37.8354 135.39 39.1803 135.39 39.1803V38.614C135.39 38.614 127.238 37.1022 122.603 36.2073V36.2022Z"
    fill="white"
  />
<path
    d="M122.603 39.1399C114.247 37.5321 112.532 36.2124 108.995 32.3748C106.769 29.963 95.4119 16.6804 94.9321 16.1191V19.6585C94.9321 19.6585 105.544 30.8731 108.959 34.1849C113.436 38.5332 117.637 38.8619 122.603 39.7467C127.57 40.6315 135.39 42.0473 135.39 42.0473V41.4456C135.39 41.4456 125.947 39.7871 122.603 39.145V39.1399Z"
    fill="white"
  />
<path
    d="M0.00510552 27.7787C0.00510552 27.7787 27.6711 24.8562 35.4196 23.7792C47.6702 22.0803 57.6953 20.2702 66.9701 6.18875C66.9701 6.18875 66.9803 5.38987 66.9701 5.03088C61.2889 13.591 53.4536 19.4309 42.6628 21.1247C32.1222 22.7831 0 25.2051 0 25.2051V27.7787H0.00510552Z"
    fill="white"
  />
<path
    d="M0.00511169 24.2848C0.00511169 24.2848 25.6446 21.1045 34.0925 19.9314C47.4559 18.0809 56.8531 16.4174 66.9701 1.05669C66.9701 1.05669 66.9752 0.394331 66.9701 0.00500488C60.7733 9.34378 53.1218 15.3758 41.351 17.2264C29.8507 19.0365 0.00511169 21.6758 0.00511169 21.6758V24.2899V24.2848Z"
    fill="white"
  />
<path d="M26.1806 64.1326H0.020462V66.1854H26.1806V64.1326Z" fill="white" />
<path
    d="M66.9701 22.5708C66.9701 22.5708 66.9854 21.3624 66.9803 21.1045C65.7501 22.9601 64.132 24.6438 62.2638 26.1253H64.0963C65.1274 25.0736 66.0921 23.8955 66.965 22.5708H66.9701Z"
    fill="white"
  />
<path
    d="M66.9701 17.1102C66.9701 17.1102 66.9803 16.0383 66.9752 15.745C64.0095 20.2147 59.5942 23.7843 54.4897 26.1506L57.5014 26.1405C60.9826 24.1332 64.2188 21.2815 66.965 17.1102H66.9701Z"
    fill="white"
  />
<path
    d="M66.9701 11.6494C66.9701 11.6494 66.9803 10.714 66.9701 10.3904C61.8095 18.1718 53.7853 23.496 43.9746 25.0381C41.6521 25.4022 37.8697 25.8067 33.4748 26.2162L45.4549 26.1758C53.3617 24.4314 60.7631 21.0589 66.9599 11.6494H66.9701Z"
    fill="white"
  />
<path
    d="M26.1857 60.6742C12.8377 60.745 0.020462 60.8006 0.020462 60.8006V62.9394C0.020462 62.9394 13.4451 62.8433 26.1857 62.7371V60.6742Z"
    fill="white"
  />
<path
    d="M26.1857 57.0034C12.9295 57.15 0.0153351 57.2613 0.0153351 57.2613V59.4456C0.0153351 59.4456 13.5778 59.2686 26.1857 59.0714V57.0034Z"
    fill="white"
  />
<path
    d="M26.1806 53.3225C13.0214 53.55 0.0153351 53.722 0.0153351 53.722V55.9517C0.0153351 55.9517 13.7207 55.6837 26.1806 55.3905V53.3225Z"
    fill="white"
  />
<path
    d="M26.1857 49.6214C13.1235 49.9399 0.0153351 50.1776 0.0153351 50.1776V52.4478C0.0153351 52.4478 13.879 52.0736 26.1857 51.6843V49.6163V49.6214Z"
    fill="white"
  />
<path
    d="M26.1908 45.9102C13.2256 46.3197 0.0153351 46.6433 0.0153351 46.6433V48.959C0.0153351 48.959 14.0474 48.4736 26.1908 47.9781V45.9152V45.9102Z"
    fill="white"
  />
<path
    d="M26.1857 42.1838C13.3226 42.6995 0.0153351 43.104 0.0153351 43.104V45.4602C0.0153351 45.4602 14.2209 44.8433 26.1857 44.2315V42.1787V42.1838Z"
    fill="white"
  />
<path
    d="M26.1908 38.432C13.4247 39.059 0.0102234 39.5595 0.0102234 39.5595V41.9612C0.0102234 41.9612 14.4047 41.1977 26.1908 40.4646V38.432Z"
    fill="white"
  />
<path
    d="M26.1908 34.6602C13.5216 35.4085 0.0102234 36.0203 0.0102234 36.0203V38.4624C0.0102234 38.4624 14.5987 37.5321 26.1908 36.6725V34.6602Z"
    fill="white"
  />
<path
    d="M26.1908 30.868C13.6084 31.7478 0.0102234 32.486 0.0102234 32.486V34.9737C0.0102234 34.9737 14.7926 33.8512 26.1908 32.8602V30.8731V30.868Z"
    fill="white"
  />
<path
    d="M26.1908 27.0404C13.685 28.0668 0.00511169 28.9415 0.00511169 28.9415V31.4696C0.00511169 31.4696 14.9866 30.1247 26.1908 28.9921V27.0404Z"
    fill="white"
  />
<path
    d="M86.0759 66.1906V27.5461H27.7528V66.1906H86.0759ZM84.759 28.8355V64.8962H29.0544V28.8405H84.759V28.8355Z"
    fill="white"
  />
<path d="M226.074 66.1996V27.366H222.758V66.1996H226.074Z" fill="white" />
<path
    d="M144.404 33.4178C144.404 33.1686 144.521 33.0312 144.791 33.0312H151.901C152.134 33.0312 152.267 33.1686 152.267 33.3974V34.5976C152.267 34.8316 152.17 34.9434 151.88 34.9434H146.606V38.2694H151.28C151.529 38.2694 151.667 38.3864 151.667 38.6152V39.8154C151.667 40.0494 151.57 40.1613 151.28 40.1613H146.606V43.9653H152.017C152.251 43.9653 152.363 44.0823 152.363 44.3315V45.5113C152.363 45.7605 152.267 45.8571 151.997 45.8571H144.791C144.521 45.8571 144.404 45.7402 144.404 45.5113V33.4127V33.4178Z"
    fill="white"
  />
<path
    d="M155.634 35.0045C154.627 35.0045 154.494 34.4451 154.494 33.8857C154.494 33.2652 154.708 32.7821 155.634 32.7821C156.559 32.7821 156.773 33.2246 156.773 33.8857C156.773 34.4858 156.6 35.0045 155.634 35.0045ZM156.656 45.4961C156.656 45.7097 156.579 45.8623 156.31 45.8623H154.937C154.667 45.8623 154.55 45.7453 154.55 45.4961V36.7641C154.55 36.4946 154.667 36.398 154.937 36.398H156.31C156.579 36.398 156.656 36.5505 156.656 36.7641V45.4961Z"
    fill="white"
  />
<path
    d="M161.528 45.4961C161.528 45.7301 161.431 45.8623 161.161 45.8623H159.768C159.498 45.8623 159.402 45.7453 159.402 45.4961V36.7794C159.402 36.5302 159.498 36.3929 159.768 36.3929H161.141C161.431 36.3929 161.528 36.5455 161.528 36.7794V37.6287L161.568 37.6694C162.148 37.1303 163.521 36.4692 164.426 36.2963C164.676 36.2404 164.854 36.2963 164.889 36.6269L165.026 37.9237C165.047 38.1932 165.067 38.3102 164.66 38.3865C163.577 38.6001 162.204 38.9866 161.533 39.2765V45.4961H161.528Z"
    fill="white"
  />
<path
    d="M170.026 46.0148C166.14 46.0148 165.891 43.177 165.891 40.9699C165.891 39.1543 166.298 36.1996 170.026 36.1996C173.753 36.1996 174.297 38.6915 174.297 40.9699C174.297 43.2482 174.028 46.0148 170.026 46.0148ZM170.046 38.0558C168.403 38.0558 168.037 39.0984 168.037 41.1072C168.037 43.116 168.403 44.1585 170.026 44.1585C171.785 44.1585 172.131 43.1719 172.131 41.1072C172.131 39.0424 171.8 38.0558 170.046 38.0558Z"
    fill="white"
  />
<path
    d="M180.695 46.0352C180.059 46.0352 179.169 45.9183 178.279 45.608L178.259 45.6284V49.0307C178.259 49.2442 178.203 49.4172 177.893 49.4172H176.52C176.21 49.4172 176.154 49.2798 176.154 49.0307V36.7794C176.154 36.5302 176.25 36.3929 176.52 36.3929H177.893C178.163 36.3929 178.239 36.5455 178.239 36.7794V37.3592L178.295 37.3999C178.991 36.9167 180.227 36.2404 181.346 36.2404C183.879 36.2404 184.535 38.1525 184.535 41.0717C184.535 44.2197 183.741 46.0352 180.69 46.0352H180.695ZM180.848 38.1729C180.054 38.1729 178.839 38.7323 178.259 39.0425V43.8738C179.129 44.123 179.826 44.2044 180.482 44.2044C181.875 44.2044 182.358 43.4873 182.358 41.0564C182.358 38.6255 181.875 38.178 180.853 38.178L180.848 38.1729Z"
    fill="white"
  />
<path
    d="M192.234 44.7587C191.268 45.491 189.971 46.0148 188.679 46.0148C186.63 46.0148 186.03 44.896 186.03 43.2737C186.009 41.0106 187.23 40.0443 189.661 40.0443H192.133V39.5409C192.133 38.3814 191.705 37.9745 190.124 37.9745C189.488 37.9745 188.267 38.0711 187.494 38.1474C187.108 38.2034 187.011 38.1881 186.955 37.9135L186.782 37.1964C186.742 36.9472 186.803 36.7896 187.225 36.6166C188.054 36.3268 189.585 36.1895 190.49 36.1895C193.831 36.1895 194.238 37.5626 194.238 39.7239V43.4517C194.238 44.245 194.335 44.2654 194.935 44.3417C195.225 44.362 195.301 44.418 195.301 44.6316V45.4453C195.301 45.6588 195.164 45.7911 194.838 45.8521C194.528 45.908 194.218 45.9487 193.928 45.9487C193.017 45.9487 192.458 45.6792 192.265 44.7689L192.224 44.7485L192.234 44.7587ZM192.117 41.5497H189.758C188.791 41.5497 188.171 41.8955 188.171 43.172C188.171 44.0213 188.461 44.2908 189.371 44.2908C190.2 44.2908 191.38 43.8077 192.117 43.3805V41.5446V41.5497Z"
    fill="white"
  />
<path
    d="M199.868 46.0148C198.902 46.0148 197.605 45.8775 196.873 45.5876C196.486 45.435 196.41 45.257 196.466 44.9519L196.603 44.3162C196.659 44.006 196.796 43.9856 197.107 44.0263C197.956 44.1636 199.192 44.2603 199.853 44.2603C201.089 44.2603 201.592 43.9297 201.592 43.1567C201.592 42.2667 201.262 42.0735 200.046 41.9005C198.154 41.631 196.491 41.2242 196.491 39.1187C196.491 37.2065 197.961 36.1996 200.122 36.1996C200.916 36.1996 202.248 36.3166 203.062 36.6268C203.392 36.7641 203.525 36.9167 203.469 37.2065L203.316 37.9033C203.26 38.1728 203.143 38.2135 202.792 38.1728C201.963 38.0762 200.88 37.9592 200.163 37.9592C198.927 37.9592 198.637 38.305 198.637 39.0424C198.637 39.7798 199.1 39.8917 200.28 40.085C202.116 40.3545 203.779 40.7207 203.779 43.0245C203.779 45.3282 201.867 46.0199 199.878 46.0199L199.868 46.0148Z"
    fill="white"
  />
<path
    d="M146.617 59.5578L148.086 57.666L151.331 53.6687C151.504 53.4754 151.661 53.3788 151.967 53.3788H153.726C153.996 53.3788 154.072 53.572 153.899 53.7653L149.709 58.8662L154.036 65.8029C154.189 66.0521 154.057 66.2098 153.843 66.2098H152.063C151.733 66.2098 151.6 66.0725 151.443 65.8436L148.274 60.5902L146.576 62.6956V65.8436C146.576 66.0572 146.5 66.2098 146.23 66.2098H144.781C144.511 66.2098 144.394 66.0928 144.394 65.8436V53.7653C144.394 53.5161 144.511 53.3788 144.781 53.3788H146.23C146.5 53.3788 146.576 53.5314 146.576 53.7653V59.5629H146.617V59.5578Z"
    fill="white"
  />
<path
    d="M159.31 66.3572C155.425 66.3572 155.176 63.5194 155.176 61.3123C155.176 59.4967 155.582 56.542 159.31 56.542C163.038 56.542 163.582 59.0339 163.582 61.3123C163.582 63.5906 163.313 66.3572 159.31 66.3572ZM159.331 58.3982C157.688 58.3982 157.322 59.4408 157.322 61.4496C157.322 63.4584 157.688 64.501 159.31 64.501C161.07 64.501 161.416 63.5144 161.416 61.4496C161.416 59.3848 161.085 58.3982 159.331 58.3982Z"
    fill="white"
  />
<path
    d="M178.966 66.2048H177.573C177.303 66.2048 177.206 66.0878 177.206 65.8386V60.3513C177.206 58.9222 176.861 58.5154 175.894 58.5154C175.177 58.5154 174.018 59.0748 173.423 59.385C173.423 59.5783 173.443 59.9241 173.443 60.3716V65.8386C173.443 66.0726 173.367 66.2048 173.077 66.2048H171.668C171.419 66.2048 171.338 66.0878 171.338 65.8386V60.2546C171.338 59.0748 171.027 58.5154 170.061 58.5154C169.385 58.5154 168.301 58.9985 167.569 59.385V65.8386C167.569 66.0726 167.472 66.2048 167.203 66.2048H165.81C165.56 66.2048 165.464 66.0878 165.464 65.8386V57.1219C165.464 56.8727 165.56 56.7354 165.81 56.7354H167.183C167.472 56.7354 167.569 56.888 167.569 57.1219V57.6813L167.589 57.7017C168.342 57.1779 169.405 56.6032 170.468 56.5625C171.587 56.5625 172.517 56.7964 173.118 57.9153C174.084 57.1982 175.279 56.5625 176.52 56.5625C179.073 56.5625 179.322 58.2255 179.322 60.158V65.8386C179.322 66.0726 179.246 66.2048 178.976 66.2048H178.966Z"
    fill="white"
  />
<path
    d="M182.755 55.3469C181.748 55.3469 181.615 54.7875 181.615 54.2281C181.615 53.6077 181.829 53.1245 182.755 53.1245C183.68 53.1245 183.894 53.567 183.894 54.2281C183.894 54.8282 183.721 55.3469 182.755 55.3469ZM183.777 65.8385C183.777 66.0521 183.701 66.2047 183.431 66.2047H182.058C181.788 66.2047 181.671 66.0877 181.671 65.8385V57.1065C181.671 56.837 181.788 56.7404 182.058 56.7404H183.431C183.701 56.7404 183.777 56.8929 183.777 57.1065V65.8385Z"
    fill="white"
  />
<path
    d="M189.341 66.3572C188.374 66.3572 187.078 66.2199 186.345 65.93C185.959 65.7774 185.882 65.5995 185.938 65.2943L186.076 64.6586C186.132 64.3484 186.269 64.328 186.579 64.3687C187.428 64.506 188.664 64.6027 189.325 64.6027C190.561 64.6027 191.065 64.2721 191.065 63.4991C191.065 62.6091 190.734 62.4159 189.519 62.243C187.627 61.9734 185.964 61.5666 185.964 59.4611C185.964 57.5489 187.434 56.542 189.595 56.542C190.388 56.542 191.721 56.659 192.534 56.9692C192.865 57.1065 192.997 57.2591 192.941 57.5489L192.789 58.2457C192.733 58.5152 192.616 58.5559 192.265 58.5152C191.436 58.4186 190.353 58.3016 189.636 58.3016C188.4 58.3016 188.11 58.6474 188.11 59.3848C188.11 60.1223 188.573 60.2341 189.753 60.4274C191.589 60.6969 193.252 61.0631 193.252 63.3669C193.252 65.6706 191.339 66.3623 189.351 66.3623L189.341 66.3572Z"
    fill="white"
  />
<path
    d="M196.394 55.3469C195.387 55.3469 195.255 54.7875 195.255 54.2281C195.255 53.6077 195.469 53.1245 196.394 53.1245C197.32 53.1245 197.533 53.567 197.533 54.2281C197.533 54.8282 197.36 55.3469 196.394 55.3469ZM197.416 65.8385C197.416 66.0521 197.34 66.2047 197.071 66.2047H195.697C195.428 66.2047 195.311 66.0877 195.311 65.8385V57.1065C195.311 56.837 195.428 56.7404 195.697 56.7404H197.071C197.34 56.7404 197.416 56.8929 197.416 57.1065V65.8385Z"
    fill="white"
  />
<path
    d="M202.482 66.4183C202.482 68.9306 201.419 70.3393 198.174 70.2223C198.037 70.2223 197.767 70.146 197.747 69.8358L197.671 68.9255C197.63 68.6153 197.711 68.5593 197.981 68.4983C199.796 68.1321 200.356 67.9592 200.356 66.4488V57.0964C200.356 56.8268 200.473 56.7302 200.742 56.7302H202.095C202.385 56.7302 202.482 56.8828 202.482 57.0964V66.4081V66.4183ZM201.419 55.3469C200.412 55.3469 200.28 54.7875 200.28 54.2281C200.28 53.6077 200.513 53.1245 201.419 53.1245C202.324 53.1245 202.558 53.567 202.558 54.2281C202.558 54.8282 202.385 55.3469 201.419 55.3469Z"
    fill="white"
  />
<path
    d="M210.868 65.1011C209.902 65.8334 208.605 66.3572 207.313 66.3572C205.264 66.3572 204.669 65.2384 204.669 63.6161C204.648 61.353 205.869 60.3867 208.3 60.3867H210.771V59.8833C210.771 58.7238 210.349 58.3169 208.763 58.3169C208.127 58.3169 206.906 58.4135 206.133 58.4898C205.747 58.5458 205.65 58.5305 205.594 58.2559L205.421 57.5388C205.381 57.2896 205.442 57.132 205.864 56.959C206.693 56.6692 208.223 56.5319 209.129 56.5319C212.47 56.5319 212.877 57.905 212.877 60.0664V63.7941C212.877 64.5875 212.973 64.6078 213.574 64.6841C213.863 64.7044 213.94 64.7604 213.94 64.974V65.7877C213.94 66.0012 213.802 66.1335 213.477 66.1945C213.167 66.2504 212.856 66.2911 212.567 66.2911C211.656 66.2911 211.097 66.0216 210.904 65.1113L210.863 65.0909L210.868 65.1011ZM210.751 61.8921H208.391C207.425 61.8921 206.805 62.2379 206.805 63.5144C206.805 64.3637 207.094 64.6332 208.005 64.6332C208.834 64.6332 210.014 64.1501 210.751 63.7229V61.887V61.8921Z"
    fill="white"
  />
</svg>
