<svg
  width="291"
  height="72"
  viewBox="0 0 291 72"
  fill="none"
  xmlns="http://www.w3.org/2000/svg"
>
<path
    d="M158.912 42.2988H161.664C161.449 43.7178 161.105 45.2228 160.761 46.2548L161.944 46.8783C162.546 45.4163 163.083 43.1158 163.406 41.1378L162.352 40.7293L162.073 40.8153H156.375C156.633 39.6543 156.848 38.4503 157.042 37.2248L155.429 36.9883C154.999 40.4068 154.204 43.7608 152.806 45.8893C153.193 46.1043 153.86 46.6203 154.139 46.8998C154.892 45.6528 155.494 44.0618 155.988 42.2988H157.364V45.3303C157.386 46.7923 156.87 50.7698 154.01 53.6723V52.4898H146.442V39.8693H153.817V38.3858H144.894V55.5858H146.442V53.9733H153.709C153.193 54.4463 152.613 54.8763 151.968 55.2633C152.247 55.5643 152.72 56.2093 152.892 56.5533C156.569 54.2958 157.88 50.3613 158.138 48.5553C158.375 50.2968 159.579 54.4033 162.761 56.5318C162.976 56.1663 163.47 55.5213 163.75 55.1773C159.6 52.4898 158.891 47.0288 158.912 45.3303V42.2988ZM151.151 40.5143C150.85 42.0193 150.463 43.4598 149.99 44.8143C149.194 43.9543 148.356 43.1373 147.56 42.4063L146.614 43.3953C147.539 44.2553 148.528 45.2873 149.431 46.3193C148.678 48.0823 147.754 49.6303 146.657 50.8343C146.98 51.0708 147.603 51.5653 147.861 51.8233C148.872 50.6408 149.732 49.2003 150.463 47.5663C151.323 48.6198 152.032 49.6518 152.484 50.4903L153.537 49.3293C153 48.3833 152.118 47.2223 151.108 46.0398C151.71 44.4058 152.226 42.6213 152.613 40.7723L151.151 40.5143Z"
    fill="white"
  />
<path
    d="M169.705 37.3753V43.9973C169.705 47.9318 169.34 52.1888 165.878 55.3923C166.222 55.6718 166.781 56.2093 167.039 56.5963C170.845 53.0703 171.275 48.3833 171.275 43.9973V37.3753H169.705ZM175.79 37.8268V55.1558H177.359V37.8268H175.79ZM182.154 37.2893V56.3598H183.745V37.2893H182.154ZM167.297 42.2558C166.975 44.1478 166.265 46.4268 165.298 47.9103L166.652 48.5123C167.641 47.0073 168.265 44.5563 168.652 42.6428L167.297 42.2558ZM171.812 43.1373C172.565 44.8573 173.231 47.1363 173.425 48.5338L174.822 47.9318C174.607 46.5558 173.876 44.3413 173.124 42.6213L171.812 43.1373ZM177.854 43.0298C178.821 44.7068 179.81 46.9643 180.176 48.3618L181.53 47.6523C181.143 46.2763 180.09 44.0833 179.079 42.4278L177.854 43.0298Z"
    fill="white"
  />
<path
    d="M200.257 49.9958C199.633 51.1568 198.773 52.0813 197.634 52.8123C196.043 52.4253 194.366 52.0598 192.71 51.7588C193.119 51.1998 193.527 50.5978 193.936 49.9958H200.257ZM196 47.0073H197.548V42.8148C199.569 44.8788 202.772 46.6633 205.675 47.5448C205.868 47.1363 206.341 46.5558 206.685 46.2118C204.127 45.5668 201.31 44.2553 199.418 42.7073H206.234V41.3958H197.548V39.1168C199.999 38.8803 202.299 38.5793 204.084 38.1708L202.901 37.0313C199.741 37.7408 193.764 38.1923 188.862 38.3213C188.991 38.6438 189.184 39.2243 189.206 39.5683C191.356 39.5253 193.721 39.4178 196 39.2458V41.3958H187.378V42.7073H194.194C192.28 44.3413 189.464 45.7603 186.905 46.4483C187.228 46.7493 187.679 47.3083 187.873 47.6953C190.775 46.7923 194 44.9433 196 42.8148V46.7493L194.473 46.3408C194.043 47.0503 193.549 47.8243 193.011 48.6198H187.142V49.9958H192.087C191.313 51.1138 190.539 52.1888 189.915 53.0273L191.399 53.5433L191.85 52.9413C193.162 53.1993 194.452 53.4788 195.699 53.7798C193.613 54.5968 190.883 55.0268 187.443 55.2203C187.722 55.5858 187.959 56.1878 188.066 56.6393C192.323 56.2953 195.57 55.6288 197.956 54.3388C200.665 55.0698 203.095 55.8653 204.901 56.6178L205.868 55.3063C204.213 54.6398 201.998 53.9518 199.547 53.2853C200.622 52.4038 201.439 51.3288 202.041 49.9958H206.513V48.6198H194.86C195.269 48.0178 195.656 47.4373 196 46.8783V47.0073Z"
    fill="white"
  />
<path
    d="M223.455 41.3528H213.286V39.1168H223.455V41.3528ZM225.111 37.8268H211.695V42.6428H225.111V37.8268ZM212.383 50.3398H224.315V51.8878H212.383V50.3398ZM212.383 47.6953H224.315V49.2003H212.383V47.6953ZM212.383 45.0508H224.315V46.5558H212.383V45.0508ZM225.949 53.0703V43.8683H210.792V53.0703H214.812C213.479 53.9518 210.706 54.9408 208.47 55.4568C208.857 55.7793 209.373 56.3168 209.652 56.6393C211.845 56.0803 214.619 55.0483 216.339 53.9948L214.898 53.0703H225.949ZM220.058 54.1453C222.316 54.8118 225.197 55.9083 226.809 56.6608L228.185 55.4998C226.508 54.8118 223.649 53.7583 221.434 53.1133L220.058 54.1453Z"
    fill="white"
  />
<path
    d="M231.045 49.2003H236.699C236.119 50.7698 235.194 52.7263 234.377 54.2098C233.216 54.2528 232.141 54.2743 231.217 54.2958L231.432 55.8653C235.108 55.7363 240.677 55.4998 245.944 55.2418C246.353 55.7578 246.675 56.2523 246.933 56.6823L248.374 55.8008C247.385 54.2098 245.299 51.8878 243.321 50.1893L241.967 50.9203C242.913 51.7588 243.923 52.8123 244.805 53.8228C241.795 53.9518 238.763 54.0593 236.097 54.1453C236.957 52.6403 237.882 50.7913 238.634 49.2003H248.718V47.7168H231.045V49.2003ZM234.7 43.6318V45.0938H244.869V43.6318H234.7ZM238.828 37.0313C237.172 39.7618 233.603 42.8578 229.927 44.6208C230.271 44.9433 230.679 45.5238 230.851 45.8893C234.506 44.0833 237.989 41.1378 239.731 38.5578C241.73 41.3313 245.493 44.1908 248.804 45.8033C249.083 45.3303 249.47 44.7713 249.836 44.3843C246.46 42.9868 242.719 40.1918 240.462 37.0313H238.828Z"
    fill="white"
  />
<path
    fill-rule="evenodd"
    clip-rule="evenodd"
    d="M256.836 66.1854H260.136V27.4854H256.836V66.1854Z"
    fill="white"
  />
<path
    d="M29.5595 64.8961H85.2641L85.259 28.8354L29.5544 28.8405L29.5595 64.8961Z"
    fill="#003399"
  />
<path
    d="M57.9401 33.3809H59.9717L58.3332 34.6449L58.9712 36.6472L57.3429 35.4135L55.7146 36.6472L56.3526 34.6449L54.7039 33.3809H56.7304L57.3429 31.4292L57.9401 33.3809Z"
    fill="#FFED00"
  />
<path
    d="M58.0116 59.1573H60.0432L58.4097 60.3759L59.0427 62.3023L57.4144 61.1141L55.7861 62.3023L56.4292 60.3759L54.7754 59.1573H56.8018L57.4144 57.2815L58.0116 59.1573Z"
    fill="#FFED00"
  />
<path
    d="M64.4482 57.4534H66.4849L64.8464 58.6669L65.4844 60.5933L63.851 59.4051L62.2227 60.5933L62.8659 58.6669L61.212 57.4534H63.2385L63.851 55.5725L64.4482 57.4534Z"
    fill="#FFED00"
  />
<path
    d="M64.4482 35.1H66.4849L64.8464 36.3185L65.4844 38.2449L63.851 37.0567L62.2227 38.2449L62.8659 36.3185L61.212 35.1H63.2385L63.851 33.2241L64.4482 35.1Z"
    fill="#FFED00"
  />
<path
    d="M69.2311 39.8377H71.2576L69.6242 41.0512L70.2571 42.9776L68.6288 41.7894L67.0005 42.9776L67.6436 41.0512L65.9898 39.8377H68.0163L68.6288 37.9568L69.2311 39.8377Z"
    fill="#FFED00"
  />
<path
    d="M69.2311 52.7814H71.2576L69.6242 53.9999L70.2571 55.9263L68.6288 54.7381L67.0005 55.9263L67.6436 53.9999L65.9898 52.7814H68.0163L68.6288 50.9055L69.2311 52.7814Z"
    fill="#FFED00"
  />
<path
    d="M71.0177 46.2084H73.0544L71.4158 47.4269L72.0488 49.3533L70.4205 48.1651L68.7922 49.3533L69.4353 47.4269L67.7815 46.2084H69.8079L70.4205 44.3325L71.0177 46.2084Z"
    fill="#FFED00"
  />
<path
    d="M51.3809 35.1202H53.4074L51.774 36.3336L52.4069 38.26L50.7786 37.0718L49.1503 38.26L49.7934 36.3336L48.1447 35.1202H50.1661L50.7786 33.2393L51.3809 35.1202Z"
    fill="#FFED00"
  />
<path
    d="M46.7308 39.8528H48.7675L47.129 41.0663L47.7619 42.9927L46.1336 41.8045L44.5053 42.9927L45.1485 41.0663L43.4946 39.8528H45.5211L46.1336 37.9719L46.7308 39.8528Z"
    fill="#FFED00"
  />
<path
    d="M45.0055 46.2286H47.0371L45.4037 47.442L46.0366 49.3685L44.4083 48.1853L42.78 49.3685L43.4231 47.442L41.7744 46.2286H43.7958L44.4083 44.3477L45.0055 46.2286Z"
    fill="#FFED00"
  />
<path
    d="M46.7308 52.7965H48.7675L47.129 54.015L47.7619 55.9414L46.1336 54.7532L44.5053 55.9414L45.1485 54.015L43.4946 52.7965H45.5211L46.1336 50.9207L46.7308 52.7965Z"
    fill="#FFED00"
  />
<path
    d="M51.4473 57.4685H53.4737L51.8403 58.682L52.4733 60.6084L50.8449 59.4202L49.2166 60.6084L49.8598 58.682L48.2111 57.4685H50.2324L50.8449 55.5876L51.4473 57.4685Z"
    fill="#FFED00"
  />
<path
    d="M95.4373 0.00505726C95.4373 0.00505726 107.417 18.9101 109.612 22.3736C111.802 25.8371 114.308 28.5826 123.175 30.4433C132.041 32.304 135.9 33.1837 135.9 33.1837V33.8562C135.9 33.8562 130.265 32.668 123.016 31.0652C115.768 29.4624 112.803 28.9214 109.5 24.3657C106.749 20.5736 95.4373 3.61517 95.4373 3.61517V0V0.00505726Z"
    fill="white"
  />
<path
    d="M95.4373 21.5949C95.4373 21.5949 106.345 32.9157 109.5 36.1668C112.848 39.6151 117.131 40.8893 123.073 41.941C128.744 42.9421 135.895 44.1 135.895 44.1V44.7371C135.895 44.7371 129.178 43.6449 123.073 42.6135C117.085 41.5972 112.894 41.0309 109.464 37.9011C106.391 35.1 95.4373 24.9219 95.4373 24.9219V21.5898V21.5949Z"
    fill="white"
  />
<path
    d="M95.4373 26.6967C95.4373 26.6967 105.809 36.2377 109.5 39.499C112.894 42.4973 115.646 43.4327 123.108 44.7422C130.571 46.0518 135.895 46.8658 135.895 46.8658V47.5383C135.895 47.5383 129.142 46.4411 123.073 45.4804C117.003 44.5248 113.134 44.1456 109.5 41.2282C105.309 37.8608 95.4373 29.8113 95.4373 29.8113V26.6917V26.6967Z"
    fill="white"
  />
<path
    d="M95.4373 32.1321C95.4373 32.1321 107.285 41.4456 109.5 43.0737C111.715 44.7018 114.645 46.6029 123.144 47.8214C131.571 49.0298 135.895 49.6265 135.895 49.6265V50.3343C135.895 50.3343 128.254 49.2371 123.144 48.6001C118.035 47.963 114.119 47.69 109.536 44.6664C105.074 41.7237 95.4373 35.004 95.4373 35.004V32.1321Z"
    fill="white"
  />
<path
    d="M95.4373 37.3601C95.4373 37.3601 107.32 45.1972 109.571 46.441C111.822 47.6798 114.467 49.7022 123.144 50.7994C131.822 51.8966 135.895 52.3921 135.895 52.3921V53.0646C135.895 53.0646 128.718 52.286 123.108 51.6843C117.504 51.0826 113.68 50.2685 109.5 47.9983C105.319 45.7331 95.4373 40.0095 95.4373 40.0095V37.3601Z"
    fill="white"
  />
<path
    d="M95.4373 42.5883C95.4373 42.5883 105.942 48.2512 109.5 50.0158C113.466 51.9878 116.896 52.9333 123.108 53.6664C129.208 54.3844 135.895 55.0821 135.895 55.0821V55.7192C135.895 55.7192 129.713 55.0619 123.108 54.4451C116.559 53.8282 114.227 53.5451 109.5 51.467C105.273 49.6063 95.4373 45.0658 95.4373 45.0658V42.5833V42.5883Z"
    fill="white"
  />
<path
    d="M95.4373 47.8872C95.4373 47.8872 103.737 51.4063 109.571 53.7018C115.309 55.9569 119.693 56.149 123.18 56.5383C124.716 56.7102 135.895 57.8479 135.895 57.8479V58.485C135.895 58.485 129.218 57.9541 123.144 57.4232C117.07 56.8923 114.451 56.6647 109.536 55.0518C104.559 53.4136 95.4373 50.2636 95.4373 50.2636V47.8923V47.8872Z"
    fill="white"
  />
<path
    d="M95.4373 53.2922C95.4373 53.2922 103.819 55.8658 109.536 57.3524C115.253 58.8389 120.5 59.4456 123.144 59.6175C125.788 59.7945 135.9 60.6085 135.9 60.6085V61.2102C135.9 61.2102 130.147 60.8209 123.108 60.3254C117.417 59.9259 112.848 59.5012 109.5 58.7681C105.794 57.9591 95.4373 55.522 95.4373 55.522V53.2922Z"
    fill="white"
  />
<path
    d="M95.4373 58.6062C95.4373 58.6062 102.292 59.7792 109.536 60.9674C114.967 61.8573 122.322 62.4186 123.108 62.454C123.894 62.4893 135.895 63.3034 135.895 63.3034V63.9405C135.895 63.9405 128.213 63.5461 123.108 63.268C117.79 62.9747 112.501 62.6562 109.5 62.3478C102.772 61.6551 95.4373 60.7349 95.4373 60.7349V58.6062Z"
    fill="white"
  />
<path
    d="M95.4373 64.1074C95.4373 64.1074 106.248 64.5119 109.536 64.5827C112.823 64.6535 135.895 65.5737 135.895 65.5737V66.1956H95.4373V64.1074Z"
    fill="white"
  />
<path
    d="M123.103 33.3656C113.318 31.2774 111.103 27.733 109.459 25.5387C107.815 23.3392 95.4321 5.41504 95.4321 5.41504V8.71167C95.9222 9.34369 106.519 23.8347 109.495 27.6269C112.848 31.8993 118.101 32.8701 123.103 33.9319C128.1 34.9937 135.895 36.4752 135.895 36.4752V35.9089C135.895 35.9089 125.635 33.9016 123.103 33.3656Z"
    fill="white"
  />
<path
    d="M123.103 36.2022C115.069 34.6449 111.817 32.127 109.459 29.0831C107.101 26.0343 95.4321 10.446 95.4321 10.446V14.2786C95.9222 14.85 106.596 27.7534 109.459 30.9994C112.797 34.7865 117.458 35.7826 123.103 36.809C128.749 37.8354 135.89 39.1803 135.89 39.1803V38.614C135.89 38.614 127.738 37.1022 123.103 36.2073V36.2022Z"
    fill="white"
  />
<path
    d="M123.103 39.1399C114.747 37.5321 113.032 36.2124 109.495 32.3748C107.269 29.963 95.9119 16.6804 95.4321 16.1191V19.6585C95.4321 19.6585 106.044 30.8731 109.459 34.1849C113.936 38.5332 118.137 38.8619 123.103 39.7467C128.07 40.6315 135.89 42.0473 135.89 42.0473V41.4456C135.89 41.4456 126.447 39.7871 123.103 39.145V39.1399Z"
    fill="white"
  />
<path
    d="M0.505106 27.7788C0.505106 27.7788 28.1711 24.8563 35.9196 23.7793C48.1702 22.0805 58.1953 20.2703 67.4701 6.18887C67.4701 6.18887 67.4803 5.38999 67.4701 5.03101C61.7889 13.5911 53.9536 19.431 43.1628 21.1248C32.6222 22.7833 0.5 25.2052 0.5 25.2052V27.7788H0.505106Z"
    fill="white"
  />
<path
    d="M0.505127 24.2849C0.505127 24.2849 26.1447 21.1046 34.5925 19.9315C47.9559 18.081 57.3531 16.4175 67.4701 1.05681C67.4701 1.05681 67.4752 0.394453 67.4701 0.00512695C61.2733 9.3439 53.6218 15.3759 41.851 17.2265C30.3507 19.0366 0.505127 21.6759 0.505127 21.6759V24.29V24.2849Z"
    fill="white"
  />
<path d="M26.6806 64.1326H0.520447V66.1854H26.6806V64.1326Z" fill="white" />
<path
    d="M67.4701 22.5708C67.4701 22.5708 67.4854 21.3624 67.4803 21.1045C66.2501 22.9601 64.632 24.6438 62.7638 26.1253H64.5963C65.6274 25.0736 66.5921 23.8955 67.465 22.5708H67.4701Z"
    fill="white"
  />
<path
    d="M67.4701 17.11C67.4701 17.11 67.4803 16.0381 67.4752 15.7449C64.5095 20.2145 60.0942 23.7842 54.9897 26.1505L58.0014 26.1404C61.4826 24.1331 64.7188 21.2814 67.465 17.11H67.4701Z"
    fill="white"
  />
<path
    d="M67.4701 11.6494C67.4701 11.6494 67.4803 10.714 67.4701 10.3904C62.3095 18.1718 54.2854 23.496 44.4747 25.0381C42.1521 25.4022 38.3698 25.8067 33.9749 26.2162L45.9549 26.1758C53.8617 24.4314 61.2631 21.0589 67.4599 11.6494H67.4701Z"
    fill="white"
  />
<path
    d="M26.6857 60.6743C13.3377 60.7451 0.520447 60.8007 0.520447 60.8007V62.9395C0.520447 62.9395 13.9451 62.8434 26.6857 62.7372V60.6743Z"
    fill="white"
  />
<path
    d="M26.6857 57.0034C13.4295 57.15 0.51532 57.2613 0.51532 57.2613V59.4456C0.51532 59.4456 14.0778 59.2686 26.6857 59.0714V57.0034Z"
    fill="white"
  />
<path
    d="M26.6806 53.3225C13.5214 53.55 0.51532 53.722 0.51532 53.722V55.9517C0.51532 55.9517 14.2207 55.6837 26.6806 55.3905V53.3225Z"
    fill="white"
  />
<path
    d="M26.6857 49.6213C13.6235 49.9398 0.51532 50.1774 0.51532 50.1774V52.4477C0.51532 52.4477 14.3789 52.0735 26.6857 51.6842V49.6162V49.6213Z"
    fill="white"
  />
<path
    d="M26.6908 45.9102C13.7256 46.3197 0.51532 46.6433 0.51532 46.6433V48.959C0.51532 48.959 14.5474 48.4736 26.6908 47.9781V45.9152V45.9102Z"
    fill="white"
  />
<path
    d="M26.6857 42.1838C13.8226 42.6995 0.51532 43.104 0.51532 43.104V45.4602C0.51532 45.4602 14.7209 44.8433 26.6857 44.2315V42.1787V42.1838Z"
    fill="white"
  />
<path
    d="M26.6909 38.4321C13.9247 39.0591 0.510254 39.5597 0.510254 39.5597V41.9613C0.510254 41.9613 14.9047 41.1979 26.6909 40.4647V38.4321Z"
    fill="white"
  />
<path
    d="M26.6909 34.6602C14.0217 35.4085 0.510254 36.0203 0.510254 36.0203V38.4624C0.510254 38.4624 15.0987 37.5321 26.6909 36.6725V34.6602Z"
    fill="white"
  />
<path
    d="M26.6909 30.8679C14.1084 31.7477 0.510254 32.4859 0.510254 32.4859V34.9735C0.510254 34.9735 15.2927 33.8511 26.6909 32.8601V30.873V30.8679Z"
    fill="white"
  />
<path
    d="M26.6908 27.0405C14.185 28.0669 0.505127 28.9416 0.505127 28.9416V31.4697C0.505127 31.4697 15.4866 30.1248 26.6908 28.9922V27.0405Z"
    fill="white"
  />
<path
    d="M86.5759 66.1906V27.5461H28.2527V66.1906H86.5759ZM85.259 28.8355V64.8962H29.5544V28.8405H85.259V28.8355Z"
    fill="white"
  />
</svg>
