<svg
  width="290"
  height="72"
  viewBox="0 0 290 72"
  fill="none"
  xmlns="http://www.w3.org/2000/svg"
>
<path
    d="M144.394 39.6959C144.394 39.4959 144.499 39.3958 144.708 39.3958H150.373C150.571 39.3958 150.671 39.4959 150.671 39.6959V40.6751C150.671 40.8647 150.566 40.9594 150.357 40.9594H146.167V43.676H149.823C150.022 43.676 150.122 43.7707 150.122 43.9603V44.9395C150.122 45.1395 150.017 45.2396 149.808 45.2396H146.183V49.5829C146.183 49.7829 146.084 49.883 145.885 49.883H144.708C144.499 49.883 144.394 49.7829 144.394 49.5829V39.6959Z"
    fill="white"
  />
<path
    d="M153.782 49.5829C153.782 49.7829 153.682 49.883 153.483 49.883H152.354C152.155 49.883 152.056 49.7829 152.056 49.5829V42.4599C152.056 42.2493 152.155 42.144 152.354 42.144H153.468C153.677 42.144 153.782 42.2493 153.782 42.4599V43.1548L153.813 43.1864C153.928 43.0811 154.08 42.9705 154.268 42.8547C154.456 42.7283 154.655 42.6178 154.864 42.523C155.084 42.4177 155.304 42.323 155.523 42.2387C155.743 42.1545 155.947 42.0966 156.135 42.065C156.24 42.0439 156.324 42.0492 156.386 42.0808C156.449 42.1124 156.491 42.1966 156.512 42.3335L156.622 43.3917C156.632 43.5075 156.627 43.5917 156.606 43.6444C156.585 43.697 156.491 43.7392 156.324 43.7707C156.104 43.8129 155.874 43.8655 155.633 43.9287C155.393 43.9813 155.157 44.0445 154.927 44.1182C154.697 44.1814 154.483 44.2446 154.284 44.3077C154.085 44.3709 153.918 44.4341 153.782 44.4973V49.5829Z"
    fill="white"
  />
<path
    d="M162.243 46.3609H160.329C159.931 46.3609 159.618 46.4557 159.387 46.6452C159.157 46.8242 159.042 47.1717 159.042 47.6876C159.042 48.0351 159.11 48.2773 159.246 48.4141C159.393 48.5405 159.649 48.6037 160.015 48.6037C160.182 48.6037 160.366 48.5826 160.564 48.5405C160.763 48.4984 160.962 48.4405 161.161 48.3668C161.359 48.2931 161.553 48.2141 161.741 48.1299C161.929 48.0351 162.097 47.9456 162.243 47.8614V46.3609ZM162.337 48.9827C161.94 49.2881 161.49 49.5355 160.988 49.725C160.496 49.9146 159.984 50.0093 159.45 50.0093C159.032 50.0093 158.681 49.9567 158.399 49.8514C158.127 49.7356 157.907 49.5829 157.74 49.3934C157.583 49.1933 157.468 48.9564 157.395 48.6826C157.332 48.4089 157.301 48.1035 157.301 47.7666C157.29 46.84 157.531 46.1714 158.022 45.7608C158.514 45.3396 159.257 45.129 160.25 45.129H162.259V44.7184C162.259 44.4867 162.233 44.2919 162.181 44.134C162.139 43.9655 162.055 43.8287 161.929 43.7234C161.804 43.6181 161.637 43.5444 161.427 43.5022C161.218 43.4601 160.951 43.4391 160.627 43.4391C160.502 43.4391 160.345 43.4443 160.156 43.4549C159.978 43.4654 159.79 43.4759 159.591 43.4865C159.403 43.497 159.21 43.5128 159.011 43.5338C158.823 43.5549 158.65 43.5707 158.493 43.5812C158.336 43.6023 158.226 43.6075 158.164 43.597C158.111 43.576 158.075 43.5075 158.054 43.3917L157.912 42.8073C157.892 42.702 157.902 42.6178 157.944 42.5546C157.986 42.4809 158.096 42.4072 158.273 42.3335C158.441 42.2703 158.64 42.2177 158.87 42.1756C159.1 42.1334 159.335 42.1019 159.576 42.0808C159.816 42.0492 160.052 42.0282 160.282 42.0176C160.522 41.9966 160.737 41.986 160.925 41.986C161.605 41.986 162.144 42.0545 162.541 42.1914C162.949 42.3282 163.258 42.523 163.467 42.7757C163.676 43.0179 163.812 43.318 163.875 43.676C163.938 44.034 163.969 44.4341 163.969 44.8763V47.9245C163.969 48.0825 163.975 48.2088 163.985 48.3036C164.006 48.3878 164.032 48.4563 164.063 48.5089C164.105 48.551 164.163 48.5826 164.236 48.6037C164.309 48.6247 164.409 48.6405 164.534 48.651C164.649 48.6616 164.728 48.6826 164.77 48.7142C164.811 48.7458 164.832 48.8037 164.832 48.888V49.5513C164.832 49.7303 164.707 49.8409 164.456 49.883C164.33 49.904 164.205 49.9198 164.079 49.9304C163.954 49.9514 163.833 49.9619 163.718 49.9619C163.352 49.9619 163.054 49.8935 162.824 49.7566C162.604 49.6197 162.452 49.367 162.369 48.9985L162.337 48.9827Z"
    fill="white"
  />
<path
    d="M177.198 49.5829C177.198 49.6777 177.177 49.7514 177.135 49.804C177.104 49.8566 177.03 49.883 176.915 49.883H175.785C175.587 49.883 175.487 49.7829 175.487 49.5829V45.0974C175.487 44.5078 175.409 44.1129 175.252 43.9129C175.095 43.7023 174.818 43.597 174.42 43.597C174.274 43.597 174.106 43.6233 173.918 43.676C173.74 43.7286 173.557 43.7918 173.369 43.8655C173.191 43.9287 173.019 44.0024 172.851 44.0866C172.684 44.1709 172.537 44.2446 172.412 44.3077C172.412 44.392 172.412 44.5025 172.412 44.6394C172.422 44.7763 172.428 44.9342 172.428 45.1132V49.5829C172.428 49.6777 172.407 49.7514 172.365 49.804C172.323 49.8566 172.244 49.883 172.129 49.883H170.984C170.806 49.883 170.717 49.7829 170.717 49.5829V45.0185C170.717 44.5341 170.644 44.1761 170.497 43.9445C170.351 43.7128 170.079 43.597 169.682 43.597C169.546 43.597 169.389 43.6181 169.211 43.6602C169.043 43.7023 168.866 43.7602 168.677 43.8339C168.499 43.9076 168.322 43.9866 168.144 44.0708C167.966 44.1551 167.804 44.234 167.657 44.3077V49.5829C167.657 49.7829 167.558 49.883 167.359 49.883H166.229C166.041 49.883 165.947 49.7829 165.947 49.5829V42.4599C165.947 42.2493 166.041 42.144 166.229 42.144H167.344C167.553 42.144 167.657 42.2493 167.657 42.4599V42.9179L167.673 42.9337C167.83 42.8284 167.997 42.7231 168.175 42.6178C168.353 42.502 168.541 42.4019 168.74 42.3177C168.949 42.2335 169.159 42.165 169.368 42.1124C169.577 42.0492 169.791 42.0124 170.011 42.0018C170.461 42.0018 170.869 42.0755 171.235 42.2229C171.612 42.3598 171.92 42.6546 172.161 43.1074C172.558 42.8126 172.992 42.5546 173.463 42.3335C173.934 42.1124 174.42 42.0018 174.922 42.0018C175.435 42.0018 175.843 42.0808 176.146 42.2387C176.45 42.3967 176.68 42.6125 176.837 42.8863C176.994 43.1495 177.093 43.4601 177.135 43.8181C177.177 44.1761 177.198 44.5499 177.198 44.9395V49.5829Z"
    fill="white"
  />
<path
    d="M180.685 45.0027L181.893 43.7234L183.195 42.3967C183.279 42.3124 183.357 42.2493 183.431 42.2072C183.504 42.1545 183.614 42.1282 183.76 42.1282H185.015C185.162 42.1282 185.245 42.165 185.266 42.2387C185.298 42.3124 185.272 42.3967 185.188 42.4914L182.677 45.0658L185.502 49.5197C185.554 49.6145 185.559 49.6987 185.517 49.7724C185.486 49.8461 185.413 49.883 185.298 49.883H184.09C183.922 49.883 183.802 49.8566 183.729 49.804C183.655 49.7514 183.593 49.6777 183.54 49.5829L181.532 46.3451L180.637 47.2612V49.5829C180.637 49.6671 180.617 49.7408 180.575 49.804C180.533 49.8566 180.454 49.883 180.339 49.883H179.225C179.027 49.883 178.927 49.7829 178.927 49.5829V39.0484C178.927 38.8378 179.027 38.7325 179.225 38.7325H180.339C180.454 38.7325 180.533 38.7641 180.575 38.8273C180.617 38.8799 180.637 38.9536 180.637 39.0484V44.9869L180.685 45.0027Z"
    fill="white"
  />
<path
    d="M189.603 47.9403C189.603 47.9087 189.635 47.7982 189.698 47.6087C189.76 47.4086 189.828 47.1927 189.902 46.9611C189.985 46.6873 190.085 46.3873 190.2 46.0609L191.455 42.3967C191.486 42.3124 191.523 42.2493 191.565 42.2072C191.617 42.165 191.701 42.144 191.816 42.144H193.008C193.218 42.144 193.28 42.244 193.197 42.4441L190.529 49.5513C190.487 49.6671 190.435 49.7514 190.372 49.804C190.31 49.8566 190.215 49.883 190.09 49.883H189.039C188.892 49.883 188.793 49.8619 188.74 49.8198C188.688 49.7671 188.641 49.6829 188.599 49.5671L185.932 42.4599C185.9 42.3756 185.895 42.3019 185.916 42.2387C185.937 42.1756 186 42.144 186.104 42.144H187.344C187.459 42.144 187.537 42.165 187.579 42.2072C187.632 42.2387 187.679 42.3124 187.721 42.4283L188.976 46.124C189.07 46.4294 189.159 46.7137 189.243 46.9769C189.316 47.198 189.379 47.4086 189.431 47.6087C189.494 47.7982 189.535 47.9087 189.556 47.9403H189.603Z"
    fill="white"
  />
<path
    d="M202.502 42.0018C203.203 42.0018 203.773 42.1071 204.212 42.3177C204.662 42.5283 205.007 42.8073 205.248 43.1548C205.499 43.4917 205.666 43.876 205.75 44.3077C205.844 44.7394 205.891 45.1764 205.891 45.6186C205.891 45.8819 205.839 46.0977 205.734 46.2662C205.63 46.4346 205.426 46.5189 205.122 46.5189H200.902C200.912 46.919 200.954 47.2507 201.027 47.5139C201.1 47.7666 201.205 47.9719 201.341 48.1299C201.487 48.2773 201.676 48.3826 201.906 48.4457C202.136 48.4984 202.418 48.5247 202.753 48.5247C202.9 48.5247 203.062 48.5194 203.24 48.5089C203.428 48.4984 203.621 48.4878 203.82 48.4773C204.019 48.4563 204.212 48.4352 204.401 48.4141C204.589 48.3931 204.756 48.372 204.903 48.351C205.018 48.3194 205.107 48.3141 205.17 48.3352C205.243 48.3457 205.295 48.4194 205.326 48.5563L205.452 49.1565C205.504 49.3881 205.405 49.546 205.154 49.6303C204.997 49.6934 204.809 49.7514 204.589 49.804C204.369 49.8461 204.139 49.883 203.899 49.9146C203.658 49.9461 203.417 49.9725 203.177 49.9935C202.947 50.0146 202.737 50.0251 202.549 50.0251C201.806 50.0251 201.21 49.9251 200.76 49.725C200.321 49.5144 199.981 49.2302 199.74 48.8722C199.657 48.9353 199.573 48.9985 199.489 49.0617C199.406 49.1143 199.311 49.1722 199.207 49.2354C198.82 49.4671 198.391 49.6566 197.92 49.804C197.449 49.9409 196.926 50.0093 196.351 50.0093C195.922 50.0093 195.567 49.9567 195.284 49.8514C195.002 49.7461 194.777 49.5934 194.609 49.3934C194.442 49.1933 194.322 48.9617 194.248 48.6984C194.186 48.4247 194.154 48.1193 194.154 47.7824C194.154 46.8979 194.395 46.2662 194.876 45.8871C195.357 45.4975 196.1 45.3027 197.104 45.3027H199.113V44.7184C199.113 44.4867 199.087 44.2919 199.034 44.134C198.992 43.9655 198.909 43.8339 198.783 43.7392C198.658 43.6339 198.49 43.5602 198.281 43.518C198.072 43.4759 197.805 43.4549 197.481 43.4549C197.355 43.4549 197.204 43.4601 197.026 43.4707C196.848 43.4812 196.66 43.4917 196.461 43.5022C196.262 43.5128 196.063 43.5286 195.865 43.5496C195.676 43.5707 195.499 43.5865 195.331 43.597C195.237 43.6075 195.148 43.6128 195.064 43.6128C194.991 43.6023 194.939 43.5286 194.907 43.3917L194.766 42.8073C194.745 42.6915 194.756 42.6073 194.798 42.5546C194.839 42.4914 194.949 42.423 195.127 42.3493C195.295 42.2861 195.493 42.2335 195.723 42.1914C195.954 42.1492 196.189 42.1124 196.43 42.0808C196.67 42.0492 196.905 42.0282 197.136 42.0176C197.376 42.0071 197.591 42.0018 197.779 42.0018C198.428 42.0018 198.94 42.0703 199.317 42.2072C199.704 42.344 200.002 42.5494 200.211 42.8231C200.462 42.5809 200.771 42.3861 201.137 42.2387C201.514 42.0808 201.969 42.0018 202.502 42.0018ZM196.869 48.6195C197.026 48.6195 197.209 48.5931 197.418 48.5405C197.638 48.4878 197.857 48.4247 198.077 48.351C198.297 48.2667 198.511 48.1772 198.72 48.0825C198.93 47.9772 199.113 47.8824 199.27 47.7982C199.217 47.5665 199.181 47.3612 199.16 47.1822C199.139 46.9927 199.123 46.7716 199.113 46.5189H197.23C196.78 46.5189 196.445 46.6084 196.226 46.7874C196.006 46.9558 195.896 47.2717 195.896 47.735C195.896 48.0404 195.964 48.2667 196.1 48.4141C196.246 48.551 196.503 48.6195 196.869 48.6195ZM204.055 45.3185C204.045 45.0974 204.019 44.8763 203.977 44.6552C203.935 44.4236 203.857 44.2182 203.742 44.0392C203.637 43.8497 203.485 43.7023 203.287 43.597C203.088 43.4812 202.821 43.4233 202.486 43.4233C202.183 43.4233 201.932 43.4707 201.733 43.5654C201.545 43.6497 201.393 43.776 201.278 43.9445C201.174 44.1024 201.095 44.3025 201.043 44.5446C200.99 44.7763 200.954 45.0343 200.933 45.3185H204.055Z"
    fill="white"
  />
<path
    d="M218.357 49.5829C218.357 49.6777 218.336 49.7514 218.294 49.804C218.262 49.8566 218.189 49.883 218.074 49.883H216.944C216.746 49.883 216.646 49.7829 216.646 49.5829V45.0974C216.646 44.5078 216.568 44.1129 216.411 43.9129C216.254 43.7023 215.977 43.597 215.579 43.597C215.433 43.597 215.265 43.6233 215.077 43.676C214.899 43.7286 214.716 43.7918 214.528 43.8655C214.35 43.9287 214.178 44.0024 214.01 44.0866C213.843 44.1709 213.696 44.2446 213.571 44.3077C213.571 44.392 213.571 44.5025 213.571 44.6394C213.581 44.7763 213.586 44.9342 213.586 45.1132V49.5829C213.586 49.6777 213.566 49.7514 213.524 49.804C213.482 49.8566 213.403 49.883 213.288 49.883H212.143C211.965 49.883 211.876 49.7829 211.876 49.5829V45.0185C211.876 44.5341 211.803 44.1761 211.656 43.9445C211.51 43.7128 211.238 43.597 210.84 43.597C210.705 43.597 210.548 43.6181 210.37 43.6602C210.202 43.7023 210.025 43.7602 209.836 43.8339C209.658 43.9076 209.481 43.9866 209.303 44.0708C209.125 44.1551 208.963 44.234 208.816 44.3077V49.5829C208.816 49.7829 208.717 49.883 208.518 49.883H207.388C207.2 49.883 207.106 49.7829 207.106 49.5829V42.4599C207.106 42.2493 207.2 42.144 207.388 42.144H208.502C208.712 42.144 208.816 42.2493 208.816 42.4599V42.9179L208.832 42.9337C208.989 42.8284 209.156 42.7231 209.334 42.6178C209.512 42.502 209.7 42.4019 209.899 42.3177C210.108 42.2335 210.317 42.165 210.527 42.1124C210.736 42.0492 210.95 42.0124 211.17 42.0018C211.62 42.0018 212.028 42.0755 212.394 42.2229C212.771 42.3598 213.079 42.6546 213.32 43.1074C213.717 42.8126 214.151 42.5546 214.622 42.3335C215.093 42.1124 215.579 42.0018 216.081 42.0018C216.594 42.0018 217.002 42.0808 217.305 42.2387C217.609 42.3967 217.839 42.6125 217.996 42.8863C218.153 43.1495 218.252 43.4601 218.294 43.8181C218.336 44.1761 218.357 44.5499 218.357 44.9395V49.5829Z"
    fill="white"
  />
<path
    d="M226.661 49.5829C226.661 49.6777 226.64 49.7514 226.598 49.804C226.567 49.8566 226.493 49.883 226.378 49.883H225.249C225.06 49.883 224.966 49.7882 224.966 49.5987V49.0933C224.956 49.0933 224.945 49.0933 224.935 49.0933C224.935 49.0827 224.929 49.0775 224.919 49.0775C224.783 49.1722 224.621 49.2775 224.433 49.3934C224.244 49.4987 224.04 49.5987 223.821 49.6934C223.601 49.7882 223.371 49.8619 223.13 49.9146C222.9 49.9777 222.67 50.0093 222.44 50.0093C221.927 50.0093 221.504 49.9198 221.169 49.7408C220.845 49.5513 220.583 49.2881 220.384 48.9511C220.196 48.6142 220.06 48.2088 219.976 47.735C219.903 47.2507 219.866 46.7084 219.866 46.1082C219.866 45.466 219.908 44.8921 219.992 44.3867C220.086 43.8708 220.248 43.4338 220.478 43.0758C220.709 42.7178 221.022 42.4493 221.42 42.2703C221.828 42.0808 222.351 41.986 222.989 41.986C223.638 41.986 224.286 42.1071 224.935 42.3493C224.945 42.3493 224.95 42.3493 224.95 42.3493C224.95 42.3388 224.956 42.3335 224.966 42.3335V39.0642C224.966 38.9589 224.982 38.8799 225.013 38.8273C225.055 38.7746 225.139 38.7483 225.264 38.7483H226.378C226.504 38.7483 226.582 38.7799 226.614 38.8431C226.645 38.8957 226.661 38.9694 226.661 39.0642V49.5829ZM224.95 43.7707C224.584 43.6655 224.255 43.597 223.962 43.5654C223.679 43.5233 223.407 43.5022 223.146 43.5022C222.863 43.5022 222.623 43.5444 222.424 43.6286C222.225 43.7128 222.068 43.855 221.953 44.055C221.838 44.2551 221.755 44.5236 221.702 44.8605C221.65 45.1869 221.624 45.5976 221.624 46.0924C221.624 46.5978 221.645 47.0085 221.687 47.3244C221.739 47.6297 221.817 47.8666 221.922 48.0351C222.027 48.193 222.152 48.3036 222.299 48.3668C222.445 48.4194 222.623 48.4457 222.832 48.4457C222.989 48.4457 223.167 48.4194 223.366 48.3668C223.564 48.3141 223.763 48.2509 223.962 48.1772C224.161 48.1035 224.344 48.0298 224.511 47.9561C224.689 47.8719 224.835 47.7982 224.95 47.735V43.7707Z"
    fill="white"
  />
<path
    d="M233.115 46.3609H231.2C230.803 46.3609 230.489 46.4557 230.259 46.6452C230.029 46.8242 229.913 47.1717 229.913 47.6876C229.913 48.0351 229.981 48.2773 230.117 48.4141C230.264 48.5405 230.52 48.6037 230.886 48.6037C231.054 48.6037 231.237 48.5826 231.436 48.5405C231.634 48.4984 231.833 48.4405 232.032 48.3668C232.231 48.2931 232.424 48.2141 232.612 48.1299C232.801 48.0351 232.968 47.9456 233.115 47.8614V46.3609ZM233.209 48.9827C232.811 49.2881 232.361 49.5355 231.859 49.725C231.368 49.9146 230.855 50.0093 230.321 50.0093C229.903 50.0093 229.553 49.9567 229.27 49.8514C228.998 49.7356 228.778 49.5829 228.611 49.3934C228.454 49.1933 228.339 48.9564 228.266 48.6826C228.203 48.4089 228.172 48.1035 228.172 47.7666C228.161 46.84 228.402 46.1714 228.894 45.7608C229.385 45.3396 230.128 45.129 231.122 45.129H233.13V44.7184C233.13 44.4867 233.104 44.2919 233.052 44.134C233.01 43.9655 232.926 43.8287 232.801 43.7234C232.675 43.6181 232.508 43.5444 232.299 43.5022C232.089 43.4601 231.823 43.4391 231.498 43.4391C231.373 43.4391 231.216 43.4443 231.028 43.4549C230.85 43.4654 230.661 43.4759 230.463 43.4865C230.274 43.497 230.081 43.5128 229.882 43.5338C229.694 43.5549 229.521 43.5707 229.364 43.5812C229.207 43.6023 229.098 43.6075 229.035 43.597C228.982 43.576 228.946 43.5075 228.925 43.3917L228.784 42.8073C228.763 42.702 228.773 42.6178 228.815 42.5546C228.857 42.4809 228.967 42.4072 229.145 42.3335C229.312 42.2703 229.511 42.2177 229.741 42.1756C229.971 42.1334 230.206 42.1019 230.447 42.0808C230.688 42.0492 230.923 42.0282 231.153 42.0176C231.394 41.9966 231.608 41.986 231.796 41.986C232.476 41.986 233.015 42.0545 233.413 42.1914C233.821 42.3282 234.129 42.523 234.338 42.7757C234.548 43.0179 234.684 43.318 234.746 43.676C234.809 44.034 234.841 44.4341 234.841 44.8763V47.9245C234.841 48.0825 234.846 48.2088 234.856 48.3036C234.877 48.3878 234.903 48.4563 234.935 48.5089C234.977 48.551 235.034 48.5826 235.107 48.6037C235.181 48.6247 235.28 48.6405 235.405 48.651C235.521 48.6616 235.599 48.6826 235.641 48.7142C235.683 48.7458 235.704 48.8037 235.704 48.888V49.5513C235.704 49.7303 235.578 49.8409 235.327 49.883C235.201 49.904 235.076 49.9198 234.95 49.9304C234.825 49.9514 234.705 49.9619 234.589 49.9619C234.223 49.9619 233.925 49.8935 233.695 49.7566C233.475 49.6197 233.324 49.367 233.24 48.9985L233.209 48.9827Z"
    fill="white"
  />
<path
    d="M242.577 47.5613C242.577 48.0246 242.488 48.4141 242.31 48.73C242.132 49.0354 241.892 49.2828 241.588 49.4723C241.296 49.6619 240.961 49.7987 240.584 49.883C240.208 49.9672 239.815 50.0093 239.407 50.0093C239.01 50.0093 238.581 49.9777 238.121 49.9146C237.66 49.8619 237.279 49.7777 236.975 49.6619C236.818 49.5987 236.719 49.5302 236.677 49.4565C236.635 49.3723 236.625 49.267 236.646 49.1407L236.755 48.6195C236.776 48.4931 236.818 48.4194 236.881 48.3983C236.944 48.3668 237.038 48.3615 237.163 48.3826C237.331 48.4141 237.514 48.4405 237.713 48.4615C237.922 48.4826 238.126 48.5036 238.325 48.5247C238.534 48.5352 238.727 48.5458 238.905 48.5563C239.093 48.5668 239.256 48.5721 239.392 48.5721C239.894 48.5721 240.255 48.5036 240.474 48.3668C240.694 48.2193 240.804 47.9877 240.804 47.6718C240.804 47.4928 240.783 47.3454 240.741 47.2296C240.71 47.1138 240.647 47.019 240.553 46.9453C240.459 46.8716 240.328 46.8137 240.161 46.7716C240.004 46.7189 239.8 46.6768 239.549 46.6452C239.161 46.5926 238.795 46.5241 238.45 46.4399C238.105 46.3557 237.796 46.2346 237.524 46.0766C237.263 45.9082 237.054 45.6923 236.897 45.4291C236.74 45.1553 236.661 44.8026 236.661 44.3709C236.661 43.5917 236.933 43.0021 237.477 42.602C238.021 42.1914 238.733 41.986 239.611 41.986C239.768 41.986 239.951 41.9913 240.161 42.0018C240.37 42.0124 240.579 42.0334 240.788 42.065C241.008 42.0966 241.222 42.1334 241.431 42.1756C241.641 42.2177 241.829 42.2703 241.996 42.3335C242.258 42.4388 242.368 42.5967 242.326 42.8073L242.2 43.3759C242.179 43.4917 242.138 43.5654 242.075 43.597C242.023 43.6181 241.923 43.6181 241.777 43.597C241.442 43.5549 241.076 43.518 240.678 43.4865C240.281 43.4443 239.936 43.4233 239.643 43.4233C239.141 43.4233 238.806 43.497 238.638 43.6444C238.482 43.7813 238.403 44.0024 238.403 44.3077C238.403 44.6131 238.502 44.8131 238.701 44.9079C238.91 45.0027 239.256 45.0869 239.737 45.1606C240.113 45.2133 240.469 45.2817 240.804 45.3659C241.149 45.4502 241.452 45.5765 241.714 45.745C241.975 45.9134 242.185 46.1398 242.342 46.4241C242.499 46.7084 242.577 47.0875 242.577 47.5613Z"
    fill="white"
  />
<path
    d="M248.822 49.2828C248.853 49.4618 248.785 49.5934 248.618 49.6777C248.482 49.7408 248.32 49.7935 248.131 49.8356C247.954 49.8777 247.765 49.9093 247.567 49.9304C247.378 49.9619 247.195 49.983 247.017 49.9935C246.85 50.0041 246.704 50.0093 246.578 50.0093C246.118 50.0093 245.757 49.9461 245.495 49.8198C245.244 49.6829 245.056 49.4987 244.93 49.267C244.805 49.0354 244.726 48.7669 244.695 48.4615C244.664 48.1562 244.648 47.835 244.648 47.4981V43.5338H243.863C243.748 43.5338 243.67 43.5128 243.628 43.4707C243.586 43.418 243.565 43.339 243.565 43.2338V42.4599C243.565 42.3546 243.586 42.2756 243.628 42.2229C243.67 42.1703 243.748 42.144 243.863 42.144H244.664V40.5172C244.664 40.4014 244.69 40.3224 244.742 40.2803C244.805 40.2277 244.878 40.1908 244.962 40.1697L246.013 39.8855C246.222 39.8328 246.327 39.896 246.327 40.075V42.144H248.006C248.131 42.144 248.21 42.1703 248.241 42.2229C248.283 42.2756 248.304 42.3493 248.304 42.4441V43.2338C248.304 43.339 248.283 43.418 248.241 43.4707C248.21 43.5128 248.131 43.5338 248.006 43.5338H246.327V47.4665C246.327 47.6771 246.343 47.8403 246.374 47.9561C246.405 48.0719 246.458 48.1614 246.531 48.2246C246.615 48.2773 246.724 48.3088 246.86 48.3194C246.996 48.3299 247.169 48.3352 247.378 48.3352C247.493 48.3352 247.655 48.3299 247.865 48.3194C248.084 48.3088 248.273 48.2931 248.43 48.272C248.513 48.2615 248.576 48.272 248.618 48.3036C248.66 48.3352 248.691 48.3983 248.712 48.4931L248.822 49.2828Z"
    fill="white"
  />
<path
    d="M251.871 50.0567C251.871 50.5726 251.814 51.0254 251.698 51.415C251.583 51.8151 251.385 52.1468 251.102 52.41C250.83 52.6838 250.469 52.8838 250.02 53.0102C249.58 53.1365 249.031 53.1892 248.372 53.1681C248.32 53.1681 248.252 53.147 248.168 53.1049C248.084 53.0628 248.037 52.9786 248.027 52.8522L247.964 52.1099C247.943 51.9836 247.953 51.8993 247.995 51.8572C248.027 51.8151 248.1 51.7835 248.215 51.7624C248.581 51.6887 248.885 51.615 249.125 51.5413C249.376 51.4782 249.575 51.3887 249.721 51.2728C249.878 51.157 249.988 51.0043 250.051 50.8148C250.114 50.6358 250.145 50.3936 250.145 50.0883V42.4441C250.145 42.244 250.25 42.144 250.459 42.144H251.557C251.766 42.144 251.871 42.244 251.871 42.4441V50.0567ZM251.934 40.0908C251.934 40.2171 251.923 40.3382 251.902 40.454C251.882 40.5593 251.834 40.6541 251.761 40.7383C251.698 40.8226 251.604 40.891 251.479 40.9436C251.364 40.9858 251.207 41.0068 251.008 41.0068C250.799 41.0068 250.631 40.9805 250.506 40.9278C250.391 40.8752 250.302 40.8068 250.239 40.7225C250.176 40.6383 250.135 40.5435 250.114 40.4382C250.093 40.3224 250.082 40.2066 250.082 40.0908C250.082 39.8381 250.145 39.6275 250.271 39.459C250.396 39.28 250.642 39.1905 251.008 39.1905C251.395 39.1905 251.646 39.2748 251.761 39.4432C251.876 39.6012 251.934 39.817 251.934 40.0908Z"
    fill="white"
  />
<path
    d="M260.497 45.8871C260.497 46.3399 260.465 46.8084 260.402 47.2928C260.35 47.7771 260.209 48.2246 259.979 48.6353C259.749 49.0354 259.403 49.367 258.943 49.6303C258.483 49.883 257.845 50.0093 257.029 50.0093C256.244 50.0093 255.627 49.883 255.177 49.6303C254.727 49.367 254.387 49.0354 254.157 48.6353C253.938 48.2246 253.802 47.7771 253.749 47.2928C253.697 46.8084 253.671 46.3399 253.671 45.8871C253.671 45.5186 253.702 45.108 253.765 44.6552C253.838 44.2024 253.99 43.7813 254.22 43.3917C254.45 42.9916 254.785 42.6599 255.224 42.3967C255.674 42.1229 256.276 41.986 257.029 41.986C257.792 41.986 258.399 42.1019 258.849 42.3335C259.309 42.5651 259.66 42.8705 259.9 43.2495C260.141 43.6181 260.298 44.034 260.371 44.4973C260.455 44.9605 260.497 45.4238 260.497 45.8871ZM258.739 45.9977C258.739 45.5765 258.718 45.2133 258.676 44.9079C258.634 44.592 258.551 44.3341 258.425 44.134C258.3 43.9234 258.127 43.7655 257.907 43.6602C257.688 43.5549 257.4 43.5022 257.044 43.5022C256.71 43.5022 256.438 43.5549 256.228 43.6602C256.019 43.7655 255.852 43.9234 255.726 44.134C255.611 44.3446 255.528 44.6078 255.475 44.9237C255.433 45.229 255.413 45.587 255.413 45.9977C255.413 46.4188 255.433 46.7874 255.475 47.1032C255.528 47.4086 255.611 47.6666 255.726 47.8771C255.841 48.0772 256.004 48.2299 256.213 48.3352C256.422 48.4405 256.694 48.4931 257.029 48.4931C257.384 48.4931 257.672 48.4457 257.892 48.351C258.122 48.2457 258.3 48.093 258.425 47.8929C258.551 47.6824 258.634 47.4191 258.676 47.1032C258.718 46.7874 258.739 46.4188 258.739 45.9977ZM259.069 38.6851C259.226 38.7694 259.246 38.8852 259.131 39.0326L257.531 41.2437C257.447 41.3595 257.348 41.3911 257.233 41.3385L256.621 41.0542C256.506 40.991 256.48 40.891 256.542 40.7541L257.798 38.3061C257.86 38.1692 257.975 38.1376 258.143 38.2113L259.069 38.6851Z"
    fill="white"
  />
<path
    d="M264.05 49.5829C264.05 49.7829 263.95 49.883 263.751 49.883H262.622C262.423 49.883 262.324 49.7829 262.324 49.5829V42.4599C262.324 42.2493 262.423 42.144 262.622 42.144H263.736C263.945 42.144 264.05 42.2493 264.05 42.4599V43.1548L264.081 43.1864C264.196 43.0811 264.348 42.9705 264.536 42.8547C264.724 42.7283 264.923 42.6178 265.132 42.523C265.352 42.4177 265.572 42.323 265.791 42.2387C266.011 42.1545 266.215 42.0966 266.403 42.065C266.508 42.0439 266.592 42.0492 266.654 42.0808C266.717 42.1124 266.759 42.1966 266.78 42.3335L266.89 43.3917C266.9 43.5075 266.895 43.5917 266.874 43.6444C266.853 43.697 266.759 43.7392 266.592 43.7707C266.372 43.8129 266.142 43.8655 265.901 43.9287C265.661 43.9813 265.425 44.0445 265.195 44.1182C264.965 44.1814 264.75 44.2446 264.552 44.3077C264.353 44.3709 264.186 44.4341 264.05 44.4973V49.5829Z"
    fill="white"
  />
<path
    d="M274.394 49.5829C274.394 49.6777 274.373 49.7514 274.331 49.804C274.29 49.8566 274.211 49.883 274.096 49.883H272.966C272.768 49.883 272.668 49.7829 272.668 49.5829L272.684 45.1448C272.684 44.6815 272.605 44.3077 272.448 44.0234C272.302 43.7392 272.004 43.597 271.554 43.597C271.397 43.597 271.214 43.6233 271.005 43.676C270.806 43.7286 270.602 43.7971 270.393 43.8813C270.194 43.955 270.006 44.034 269.828 44.1182C269.65 44.1919 269.509 44.2551 269.404 44.3077V49.5829C269.404 49.7829 269.305 49.883 269.106 49.883H267.992C267.793 49.883 267.694 49.7829 267.694 49.5829V42.4599C267.694 42.2493 267.793 42.144 267.992 42.144H269.106C269.305 42.144 269.404 42.2493 269.404 42.4599V42.9337C269.415 42.9337 269.42 42.9389 269.42 42.9495C269.431 42.9495 269.441 42.9495 269.451 42.9495C269.598 42.8442 269.771 42.7389 269.969 42.6336C270.178 42.5178 270.398 42.4125 270.628 42.3177C270.858 42.2229 271.099 42.1492 271.35 42.0966C271.601 42.0334 271.847 42.0018 272.088 42.0018C272.621 42.0018 273.04 42.0861 273.343 42.2545C273.646 42.4125 273.876 42.6283 274.033 42.9021C274.19 43.1758 274.29 43.497 274.331 43.8655C274.373 44.2235 274.394 44.6026 274.394 45.0027V49.5829Z"
    fill="white"
  />
<path
    d="M144.394 55.7521C144.394 55.536 144.499 55.4279 144.71 55.4279H150.511C150.711 55.4279 150.811 55.5306 150.811 55.7359V56.7408C150.811 56.9353 150.706 57.0326 150.496 57.0326H146.192V59.8204H150.007C150.217 59.8204 150.322 59.9177 150.322 60.1122V61.1171C150.322 61.3116 150.217 61.4088 150.007 61.4088H146.192V64.6019H150.606C150.795 64.6019 150.89 64.7045 150.89 64.9098V65.8985C150.89 66.093 150.79 66.1903 150.59 66.1903H144.71C144.499 66.1903 144.394 66.093 144.394 65.8985V55.7521Z"
    fill="white"
  />
<path
    d="M155.593 64.1966C155.593 64.1642 155.625 64.0508 155.688 63.8563C155.751 63.651 155.819 63.4295 155.893 63.1917C155.977 62.9108 156.076 62.6028 156.192 62.2679L157.453 58.5075C157.485 58.4211 157.522 58.3562 157.564 58.313C157.616 58.2698 157.7 58.2482 157.816 58.2482H159.014C159.224 58.2482 159.287 58.3508 159.203 58.5562L156.523 65.8499C156.481 65.9688 156.429 66.0552 156.366 66.1092C156.302 66.1633 156.208 66.1903 156.082 66.1903H155.025C154.878 66.1903 154.778 66.1687 154.726 66.1254C154.673 66.0714 154.626 65.985 154.584 65.8661L151.904 58.5724C151.872 58.4859 151.867 58.4103 151.888 58.3454C151.909 58.2806 151.972 58.2482 152.077 58.2482H153.323C153.438 58.2482 153.517 58.2698 153.559 58.313C153.612 58.3454 153.659 58.4211 153.701 58.5399L154.962 62.3327C155.057 62.6461 155.146 62.9378 155.23 63.2079C155.304 63.4349 155.367 63.651 155.42 63.8563C155.483 64.0508 155.525 64.1642 155.546 64.1966H155.593Z"
    fill="white"
  />
<path
    d="M162.341 65.8823C162.341 66.0876 162.241 66.1903 162.042 66.1903H160.906C160.707 66.1903 160.607 66.0876 160.607 65.8823V58.5724C160.607 58.3562 160.707 58.2482 160.906 58.2482H162.026C162.236 58.2482 162.341 58.3562 162.341 58.5724V59.2855L162.373 59.3179C162.488 59.2099 162.641 59.0964 162.83 58.9776C163.019 58.8479 163.219 58.7344 163.429 58.6372C163.65 58.5291 163.87 58.4319 164.091 58.3454C164.312 58.259 164.517 58.1996 164.706 58.1672C164.811 58.1455 164.895 58.1509 164.958 58.1834C165.021 58.2158 165.063 58.3022 165.084 58.4427L165.195 59.5287C165.205 59.6475 165.2 59.734 165.179 59.788C165.158 59.842 165.063 59.8852 164.895 59.9177C164.674 59.9609 164.443 60.0149 164.202 60.0797C163.96 60.1338 163.723 60.1986 163.492 60.2742C163.261 60.3391 163.045 60.4039 162.846 60.4687C162.646 60.5336 162.478 60.5984 162.341 60.6632V65.8823Z"
    fill="white"
  />
<path
    d="M172.766 62.0896C172.766 62.5542 172.735 63.0351 172.672 63.5321C172.619 64.0292 172.477 64.4884 172.246 64.9098C172.015 65.3204 171.668 65.6608 171.206 65.9309C170.743 66.1903 170.102 66.3199 169.282 66.3199C168.494 66.3199 167.874 66.1903 167.422 65.9309C166.97 65.6608 166.628 65.3204 166.397 64.9098C166.176 64.4884 166.04 64.0292 165.987 63.5321C165.935 63.0351 165.908 62.5542 165.908 62.0896C165.908 61.7114 165.94 61.29 166.003 60.8253C166.076 60.3607 166.229 59.9285 166.46 59.5287C166.691 59.118 167.028 58.7777 167.469 58.5075C167.921 58.2266 168.525 58.0861 169.282 58.0861C170.049 58.0861 170.659 58.205 171.111 58.4427C171.573 58.6804 171.926 58.9938 172.167 59.3828C172.409 59.761 172.567 60.1878 172.64 60.6632C172.724 61.1387 172.766 61.6141 172.766 62.0896ZM171.001 62.203C171.001 61.7708 170.98 61.398 170.938 61.0847C170.896 60.7605 170.811 60.4957 170.685 60.2904C170.559 60.0743 170.386 59.9122 170.165 59.8042C169.944 59.6961 169.655 59.6421 169.298 59.6421C168.962 59.6421 168.688 59.6961 168.478 59.8042C168.268 59.9122 168.1 60.0743 167.974 60.2904C167.858 60.5066 167.774 60.7767 167.721 61.1009C167.679 61.4142 167.658 61.7816 167.658 62.203C167.658 62.6352 167.679 63.0134 167.721 63.3376C167.774 63.651 167.858 63.9157 167.974 64.1318C168.089 64.3371 168.252 64.4938 168.462 64.6019C168.673 64.7099 168.946 64.7639 169.282 64.7639C169.64 64.7639 169.929 64.7153 170.149 64.6181C170.381 64.51 170.559 64.3533 170.685 64.148C170.811 63.9319 170.896 63.6618 170.938 63.3376C170.98 63.0134 171.001 62.6352 171.001 62.203ZM171.332 54.6986C171.489 54.785 171.51 54.9039 171.395 55.0552L169.787 57.3243C169.703 57.4432 169.603 57.4756 169.487 57.4216L168.872 57.1298C168.757 57.065 168.73 56.9623 168.793 56.8219L170.055 54.3096C170.118 54.1691 170.233 54.1367 170.402 54.2123L171.332 54.6986Z"
    fill="white"
  />
<path
    d="M181.129 62.1706C181.129 62.8297 181.082 63.4186 180.987 63.9373C180.893 64.456 180.725 64.8936 180.483 65.2502C180.252 65.6068 179.931 65.8769 179.521 66.0606C179.122 66.2443 178.612 66.3361 177.992 66.3361C177.729 66.3361 177.424 66.3091 177.077 66.2551C176.741 66.2011 176.389 66.1092 176.021 65.9796L176.005 65.9958V68.8484C176.005 68.9349 175.984 69.0105 175.942 69.0754C175.911 69.1402 175.832 69.1726 175.706 69.1726H174.586C174.46 69.1726 174.376 69.1456 174.334 69.0916C174.303 69.0375 174.287 68.9565 174.287 68.8484V58.5724C174.287 58.3562 174.387 58.2482 174.586 58.2482H175.706C175.821 58.2482 175.895 58.2806 175.926 58.3454C175.969 58.3995 175.99 58.4751 175.99 58.5724V59.0586L176.037 59.091C176.173 58.9938 176.336 58.8911 176.526 58.7831C176.725 58.6642 176.935 58.5562 177.156 58.4589C177.377 58.3617 177.603 58.2806 177.834 58.2158C178.065 58.1509 178.297 58.1185 178.528 58.1185C179.043 58.1185 179.469 58.2158 179.805 58.4103C180.141 58.6048 180.404 58.8803 180.593 59.2369C180.793 59.5827 180.93 60.0041 181.003 60.5012C181.087 60.9982 181.129 61.5547 181.129 62.1706ZM179.348 62.1544C179.348 61.6357 179.321 61.2197 179.269 60.9064C179.227 60.593 179.153 60.3499 179.048 60.177C178.943 60.0041 178.812 59.8906 178.654 59.8366C178.507 59.7718 178.328 59.7394 178.118 59.7394C177.96 59.7394 177.782 59.7664 177.582 59.8204C177.382 59.8744 177.182 59.9393 176.983 60.0149C176.794 60.0797 176.61 60.1554 176.431 60.2418C176.263 60.3283 176.121 60.4039 176.005 60.4687V64.5208C176.363 64.6289 176.683 64.7045 176.967 64.7477C177.261 64.7801 177.545 64.7964 177.818 64.7964C178.102 64.7964 178.339 64.7585 178.528 64.6829C178.728 64.5965 178.885 64.4506 179.001 64.2453C179.127 64.04 179.216 63.7698 179.269 63.4349C179.321 63.0891 179.348 62.6623 179.348 62.1544Z"
    fill="white"
  />
<path
    d="M189.225 65.8823C189.225 66.0876 189.125 66.1903 188.925 66.1903H187.806C187.69 66.1903 187.611 66.1633 187.569 66.1092C187.527 66.0552 187.506 65.9796 187.506 65.8823V65.3799L187.475 65.3636C187.317 65.4717 187.133 65.5852 186.923 65.704C186.723 65.8121 186.508 65.9147 186.277 66.012C186.045 66.1092 185.804 66.1849 185.551 66.2389C185.31 66.3037 185.068 66.3361 184.826 66.3361C184.29 66.3361 183.864 66.2605 183.549 66.1092C183.244 65.958 183.013 65.7472 182.855 65.4771C182.698 65.207 182.598 64.8882 182.556 64.5208C182.514 64.1534 182.493 63.759 182.493 63.3376V58.5724C182.493 58.3562 182.593 58.2482 182.792 58.2482H183.943C184.132 58.2482 184.227 58.3562 184.227 58.5724V63.1269C184.227 63.3754 184.243 63.5969 184.274 63.7914C184.306 63.9859 184.364 64.1534 184.448 64.2939C184.532 64.4236 184.647 64.5262 184.795 64.6019C184.942 64.6775 185.136 64.7153 185.378 64.7153C185.546 64.7153 185.73 64.6883 185.93 64.6343C186.14 64.5802 186.345 64.5154 186.545 64.4398C186.744 64.3533 186.928 64.2723 187.096 64.1966C187.265 64.1102 187.401 64.04 187.506 63.9859V58.5724C187.506 58.4751 187.527 58.3995 187.569 58.3454C187.611 58.2806 187.69 58.2482 187.806 58.2482H188.925C189.125 58.2482 189.225 58.3562 189.225 58.5724V65.8823Z"
    fill="white"
  />
<path
    d="M196.686 63.8077C196.686 64.2831 196.597 64.6829 196.418 65.0071C196.239 65.3204 195.997 65.5744 195.693 65.7689C195.398 65.9634 195.062 66.1038 194.684 66.1903C194.305 66.2767 193.911 66.3199 193.501 66.3199C193.102 66.3199 192.671 66.2875 192.208 66.2227C191.746 66.1687 191.362 66.0822 191.057 65.9634C190.9 65.8985 190.8 65.8283 190.758 65.7526C190.716 65.6662 190.705 65.5581 190.726 65.4285L190.837 64.8936C190.858 64.7639 190.9 64.6883 190.963 64.6667C191.026 64.6343 191.121 64.6289 191.247 64.6505C191.415 64.6829 191.599 64.7099 191.798 64.7315C192.009 64.7531 192.214 64.7747 192.413 64.7964C192.624 64.8072 192.818 64.818 192.997 64.8288C193.186 64.8396 193.349 64.845 193.485 64.845C193.99 64.845 194.353 64.7747 194.573 64.6343C194.794 64.483 194.904 64.2453 194.904 63.9211C194.904 63.7374 194.883 63.5861 194.841 63.4673C194.81 63.3484 194.747 63.2512 194.652 63.1755C194.558 63.0999 194.426 63.0405 194.258 62.9972C194.1 62.9432 193.895 62.9 193.643 62.8676C193.254 62.8135 192.886 62.7433 192.539 62.6569C192.193 62.5704 191.883 62.4461 191.609 62.2841C191.347 62.1112 191.136 61.8897 190.979 61.6195C190.821 61.3386 190.742 60.9766 190.742 60.5336C190.742 59.734 191.015 59.1288 191.562 58.7182C192.109 58.2968 192.823 58.0861 193.706 58.0861C193.864 58.0861 194.048 58.0915 194.258 58.1023C194.468 58.1131 194.678 58.1347 194.889 58.1672C195.109 58.1996 195.325 58.2374 195.535 58.2806C195.745 58.3238 195.934 58.3779 196.103 58.4427C196.365 58.5507 196.476 58.7128 196.434 58.9289L196.308 59.5124C196.287 59.6313 196.244 59.7069 196.181 59.7394C196.129 59.761 196.029 59.761 195.882 59.7394C195.546 59.6961 195.178 59.6583 194.778 59.6259C194.379 59.5827 194.032 59.5611 193.738 59.5611C193.233 59.5611 192.897 59.6367 192.729 59.788C192.571 59.9285 192.492 60.1554 192.492 60.4687C192.492 60.7821 192.592 60.9874 192.792 61.0847C193.002 61.1819 193.349 61.2683 193.832 61.344C194.211 61.398 194.568 61.4682 194.904 61.5547C195.251 61.6411 195.556 61.7708 195.819 61.9437C196.082 62.1166 196.292 62.3489 196.449 62.6406C196.607 62.9324 196.686 63.3214 196.686 63.8077Z"
    fill="white"
  />
<path
    d="M202.929 62.5758H201.005C200.606 62.5758 200.291 62.6731 200.06 62.8676C199.828 63.0513 199.713 63.4078 199.713 63.9373C199.713 64.2939 199.781 64.5424 199.918 64.6829C200.065 64.8126 200.322 64.8774 200.69 64.8774C200.858 64.8774 201.042 64.8558 201.242 64.8126C201.442 64.7693 201.641 64.7099 201.841 64.6343C202.041 64.5586 202.235 64.4776 202.424 64.3911C202.614 64.2939 202.782 64.2021 202.929 64.1156V62.5758ZM203.024 65.2664C202.624 65.5798 202.172 65.8337 201.668 66.0282C201.174 66.2227 200.659 66.3199 200.123 66.3199C199.702 66.3199 199.35 66.2659 199.066 66.1579C198.793 66.039 198.572 65.8823 198.404 65.6878C198.246 65.4825 198.131 65.2394 198.057 64.9584C197.994 64.6775 197.963 64.3641 197.963 64.0184C197.952 63.0675 198.194 62.3813 198.688 61.9599C199.182 61.5277 199.928 61.3116 200.927 61.3116H202.945V60.8901C202.945 60.6524 202.918 60.4525 202.866 60.2904C202.824 60.1176 202.74 59.9771 202.614 59.869C202.487 59.761 202.319 59.6853 202.109 59.6421C201.899 59.5989 201.631 59.5773 201.305 59.5773C201.179 59.5773 201.021 59.5827 200.832 59.5935C200.653 59.6043 200.464 59.6151 200.265 59.6259C200.075 59.6367 199.881 59.6529 199.681 59.6745C199.492 59.6961 199.319 59.7123 199.161 59.7232C199.003 59.7448 198.893 59.7502 198.83 59.7394C198.777 59.7177 198.74 59.6475 198.719 59.5287L198.578 58.9289C198.557 58.8209 198.567 58.7344 198.609 58.6696C198.651 58.594 198.761 58.5183 198.94 58.4427C199.108 58.3779 199.308 58.3238 199.539 58.2806C199.771 58.2374 200.007 58.205 200.249 58.1834C200.49 58.1509 200.727 58.1293 200.958 58.1185C201.2 58.0969 201.415 58.0861 201.605 58.0861C202.288 58.0861 202.829 58.1563 203.228 58.2968C203.638 58.4373 203.948 58.6372 204.159 58.8965C204.369 59.1451 204.506 59.453 204.569 59.8204C204.632 60.1878 204.663 60.5984 204.663 61.0522V64.1804C204.663 64.3425 204.668 64.4722 204.679 64.5694C204.7 64.6559 204.726 64.7261 204.758 64.7801C204.8 64.8234 204.858 64.8558 204.931 64.8774C205.005 64.899 205.105 64.9152 205.231 64.926C205.346 64.9368 205.425 64.9584 205.467 64.9909C205.509 65.0233 205.53 65.0827 205.53 65.1691V65.8499C205.53 66.0336 205.404 66.1471 205.152 66.1903C205.026 66.2119 204.9 66.2281 204.774 66.2389C204.647 66.2605 204.527 66.2713 204.411 66.2713C204.043 66.2713 203.743 66.2011 203.512 66.0606C203.292 65.9201 203.139 65.6608 203.055 65.2826L203.024 65.2664Z"
    fill="white"
  />
<path
    d="M217.954 65.8823C217.954 65.9796 217.933 66.0552 217.891 66.1092C217.86 66.1633 217.786 66.1903 217.671 66.1903H216.535C216.336 66.1903 216.236 66.0876 216.236 65.8823V61.2791C216.236 60.674 216.157 60.2688 215.999 60.0635C215.842 59.8474 215.563 59.7394 215.164 59.7394C215.017 59.7394 214.849 59.7664 214.659 59.8204C214.481 59.8744 214.297 59.9393 214.108 60.0149C213.929 60.0797 213.755 60.1554 213.587 60.2418C213.419 60.3283 213.272 60.4039 213.146 60.4687C213.146 60.5552 213.146 60.6686 213.146 60.8091C213.156 60.9496 213.162 61.1117 213.162 61.2954V65.8823C213.162 65.9796 213.141 66.0552 213.099 66.1092C213.056 66.1633 212.978 66.1903 212.862 66.1903H211.711C211.532 66.1903 211.443 66.0876 211.443 65.8823V61.1981C211.443 60.7011 211.37 60.3337 211.222 60.0959C211.075 59.8582 210.802 59.7394 210.403 59.7394C210.266 59.7394 210.108 59.761 209.93 59.8042C209.761 59.8474 209.583 59.9068 209.394 59.9825C209.215 60.0581 209.036 60.1392 208.857 60.2256C208.679 60.3121 208.516 60.3931 208.369 60.4687V65.8823C208.369 66.0876 208.269 66.1903 208.069 66.1903H206.934C206.745 66.1903 206.65 66.0876 206.65 65.8823V58.5724C206.65 58.3562 206.745 58.2482 206.934 58.2482H208.053C208.264 58.2482 208.369 58.3562 208.369 58.5724V59.0424L208.385 59.0586C208.542 58.9506 208.71 58.8425 208.889 58.7344C209.068 58.6156 209.257 58.5129 209.457 58.4265C209.667 58.34 209.877 58.2698 210.087 58.2158C210.297 58.1509 210.513 58.1131 210.734 58.1023C211.186 58.1023 211.596 58.178 211.963 58.3292C212.342 58.4697 212.652 58.7723 212.894 59.2369C213.293 58.9343 213.729 58.6696 214.202 58.4427C214.675 58.2158 215.164 58.1023 215.668 58.1023C216.183 58.1023 216.593 58.1834 216.898 58.3454C217.203 58.5075 217.434 58.729 217.592 59.01C217.749 59.2801 217.849 59.5989 217.891 59.9663C217.933 60.3337 217.954 60.7173 217.954 61.1171V65.8823Z"
    fill="white"
  />
<path
    d="M226.44 62.1544C226.44 62.8135 226.387 63.4024 226.282 63.9211C226.188 64.4398 226.014 64.8774 225.762 65.234C225.51 65.5906 225.163 65.8661 224.721 66.0606C224.28 66.2443 223.718 66.3361 223.034 66.3361C222.782 66.3361 222.514 66.3253 222.23 66.3037C221.957 66.2929 221.684 66.2659 221.411 66.2227C221.148 66.1903 220.89 66.1471 220.638 66.093C220.396 66.039 220.181 65.9796 219.992 65.9147C219.813 65.8391 219.697 65.7364 219.645 65.6068C219.592 65.4771 219.566 65.342 219.566 65.2016V55.0876C219.566 54.8823 219.671 54.7796 219.881 54.7796H221.001C221.127 54.7796 221.211 54.812 221.253 54.8769C221.295 54.9309 221.316 55.0011 221.316 55.0876V58.4913C221.715 58.34 222.078 58.2374 222.404 58.1834C222.73 58.1293 223.019 58.1023 223.271 58.1023C223.923 58.1023 224.453 58.1996 224.863 58.3941C225.273 58.5886 225.594 58.8641 225.825 59.2207C226.067 59.5773 226.23 60.0041 226.314 60.5012C226.398 60.9982 226.44 61.5493 226.44 62.1544ZM224.643 62.3003C224.643 61.8248 224.616 61.4196 224.564 61.0847C224.511 60.7497 224.427 60.4795 224.311 60.2742C224.206 60.0689 224.064 59.9177 223.886 59.8204C223.707 59.7232 223.492 59.6691 223.239 59.6583C223.071 59.6583 222.919 59.6637 222.782 59.6745C222.646 59.6745 222.504 59.6853 222.357 59.7069C222.22 59.7286 222.067 59.761 221.899 59.8042C221.731 59.8366 221.537 59.8798 221.316 59.9339V64.6181C221.568 64.6613 221.831 64.6937 222.104 64.7153C222.388 64.7369 222.656 64.7477 222.908 64.7477C223.171 64.7477 223.408 64.7207 223.618 64.6667C223.828 64.6127 224.007 64.5046 224.154 64.3425C224.311 64.1696 224.432 63.9211 224.516 63.5969C224.601 63.2728 224.643 62.8406 224.643 62.3003Z"
    fill="white"
  />
<path
    d="M232.752 62.5758H230.828C230.429 62.5758 230.113 62.6731 229.882 62.8676C229.651 63.0513 229.535 63.4078 229.535 63.9373C229.535 64.2939 229.604 64.5424 229.74 64.6829C229.887 64.8126 230.145 64.8774 230.513 64.8774C230.681 64.8774 230.865 64.8558 231.065 64.8126C231.264 64.7693 231.464 64.7099 231.664 64.6343C231.863 64.5586 232.058 64.4776 232.247 64.3911C232.436 64.2939 232.604 64.2021 232.752 64.1156V62.5758ZM232.846 65.2664C232.447 65.5798 231.995 65.8337 231.49 66.0282C230.996 66.2227 230.481 66.3199 229.945 66.3199C229.525 66.3199 229.173 66.2659 228.889 66.1579C228.616 66.039 228.395 65.8823 228.227 65.6878C228.069 65.4825 227.954 65.2394 227.88 64.9584C227.817 64.6775 227.785 64.3641 227.785 64.0184C227.775 63.0675 228.017 62.3813 228.511 61.9599C229.005 61.5277 229.751 61.3116 230.749 61.3116H232.767V60.8901C232.767 60.6524 232.741 60.4525 232.689 60.2904C232.647 60.1176 232.562 59.9771 232.436 59.869C232.31 59.761 232.142 59.6853 231.932 59.6421C231.722 59.5989 231.454 59.5773 231.128 59.5773C231.002 59.5773 230.844 59.5827 230.655 59.5935C230.476 59.6043 230.287 59.6151 230.087 59.6259C229.898 59.6367 229.704 59.6529 229.504 59.6745C229.315 59.6961 229.141 59.7123 228.984 59.7232C228.826 59.7448 228.716 59.7502 228.652 59.7394C228.6 59.7177 228.563 59.6475 228.542 59.5287L228.4 58.9289C228.379 58.8209 228.39 58.7344 228.432 58.6696C228.474 58.594 228.584 58.5183 228.763 58.4427C228.931 58.3779 229.131 58.3238 229.362 58.2806C229.593 58.2374 229.83 58.205 230.071 58.1834C230.313 58.1509 230.55 58.1293 230.781 58.1185C231.023 58.0969 231.238 58.0861 231.427 58.0861C232.11 58.0861 232.652 58.1563 233.051 58.2968C233.461 58.4373 233.771 58.6372 233.981 58.8965C234.192 59.1451 234.328 59.453 234.391 59.8204C234.454 60.1878 234.486 60.5984 234.486 61.0522V64.1804C234.486 64.3425 234.491 64.4722 234.502 64.5694C234.523 64.6559 234.549 64.7261 234.58 64.7801C234.622 64.8234 234.68 64.8558 234.754 64.8774C234.827 64.899 234.927 64.9152 235.053 64.926C235.169 64.9368 235.248 64.9584 235.29 64.9909C235.332 65.0233 235.353 65.0827 235.353 65.1691V65.8499C235.353 66.0336 235.227 66.1471 234.975 66.1903C234.848 66.2119 234.722 66.2281 234.596 66.2389C234.47 66.2605 234.349 66.2713 234.234 66.2713C233.866 66.2713 233.566 66.2011 233.335 66.0606C233.114 65.9201 232.962 65.6608 232.878 65.2826L232.846 65.2664Z"
    fill="white"
  />
<path
    d="M243.158 65.8823C243.158 65.9796 243.137 66.0552 243.095 66.1092C243.053 66.1633 242.974 66.1903 242.858 66.1903H241.723C241.523 66.1903 241.423 66.0876 241.423 65.8823L241.439 61.3278C241.439 60.8523 241.36 60.4687 241.203 60.177C241.056 59.8852 240.756 59.7394 240.304 59.7394C240.146 59.7394 239.962 59.7664 239.752 59.8204C239.553 59.8744 239.348 59.9447 239.137 60.0311C238.938 60.1067 238.748 60.1878 238.57 60.2742C238.391 60.3499 238.249 60.4147 238.144 60.4687V65.8823C238.144 66.0876 238.044 66.1903 237.845 66.1903H236.725C236.526 66.1903 236.426 66.0876 236.426 65.8823V58.5724C236.426 58.3562 236.526 58.2482 236.725 58.2482H237.845C238.044 58.2482 238.144 58.3562 238.144 58.5724V59.0586C238.155 59.0586 238.16 59.064 238.16 59.0748C238.17 59.0748 238.181 59.0748 238.191 59.0748C238.339 58.9668 238.512 58.8587 238.712 58.7507C238.922 58.6318 239.143 58.5237 239.374 58.4265C239.605 58.3292 239.847 58.2536 240.099 58.1996C240.351 58.1347 240.598 58.1023 240.84 58.1023C241.376 58.1023 241.797 58.1888 242.101 58.3617C242.406 58.5237 242.637 58.7452 242.795 59.0262C242.953 59.3071 243.053 59.6367 243.095 60.0149C243.137 60.3823 243.158 60.7713 243.158 61.1819V65.8823Z"
    fill="white"
  />
<path
    d="M251.456 65.8823C251.456 65.9796 251.435 66.0552 251.392 66.1092C251.361 66.1633 251.287 66.1903 251.172 66.1903H250.037C249.847 66.1903 249.753 66.093 249.753 65.8985V65.3799C249.742 65.3799 249.732 65.3799 249.721 65.3799C249.721 65.3691 249.716 65.3636 249.706 65.3636C249.569 65.4609 249.406 65.569 249.217 65.6878C249.028 65.7959 248.823 65.8985 248.602 65.9958C248.381 66.093 248.15 66.1687 247.908 66.2227C247.677 66.2875 247.446 66.3199 247.215 66.3199C246.7 66.3199 246.274 66.2281 245.938 66.0444C245.612 65.8499 245.349 65.5798 245.149 65.234C244.96 64.8882 244.823 64.4722 244.739 63.9859C244.666 63.4889 244.629 62.9324 244.629 62.3165C244.629 61.6573 244.671 61.0684 244.755 60.5498C244.85 60.0203 245.013 59.5719 245.244 59.2045C245.475 58.8371 245.79 58.5616 246.19 58.3779C246.6 58.1834 247.125 58.0861 247.766 58.0861C248.418 58.0861 249.07 58.2104 249.721 58.4589C249.732 58.4589 249.737 58.4589 249.737 58.4589C249.737 58.4481 249.742 58.4427 249.753 58.4427V55.0876C249.753 54.9795 249.769 54.8985 249.8 54.8444C249.842 54.7904 249.926 54.7634 250.052 54.7634H251.172C251.298 54.7634 251.377 54.7958 251.408 54.8607C251.44 54.9147 251.456 54.9903 251.456 55.0876V65.8823ZM249.737 59.9177C249.369 59.8096 249.038 59.7394 248.744 59.7069C248.46 59.6637 248.187 59.6421 247.924 59.6421C247.64 59.6421 247.398 59.6853 247.199 59.7718C246.999 59.8582 246.841 60.0041 246.726 60.2094C246.61 60.4147 246.526 60.6902 246.474 61.036C246.421 61.371 246.395 61.7924 246.395 62.3003C246.395 62.8189 246.416 63.2404 246.458 63.5645C246.51 63.8779 246.589 64.121 246.694 64.2939C246.799 64.456 246.926 64.5694 247.073 64.6343C247.22 64.6883 247.398 64.7153 247.609 64.7153C247.766 64.7153 247.945 64.6883 248.145 64.6343C248.344 64.5802 248.544 64.5154 248.744 64.4398C248.944 64.3641 249.127 64.2885 249.296 64.2129C249.474 64.1264 249.621 64.0508 249.737 63.9859V59.9177Z"
    fill="white"
  />
<path
    d="M258.933 63.8077C258.933 64.2831 258.844 64.6829 258.665 65.0071C258.487 65.3204 258.245 65.5744 257.94 65.7689C257.646 65.9634 257.309 66.1038 256.931 66.1903C256.553 66.2767 256.158 66.3199 255.749 66.3199C255.349 66.3199 254.918 66.2875 254.456 66.2227C253.993 66.1687 253.61 66.0822 253.305 65.9634C253.147 65.8985 253.047 65.8283 253.005 65.7526C252.963 65.6662 252.953 65.5581 252.974 65.4285L253.084 64.8936C253.105 64.7639 253.147 64.6883 253.21 64.6667C253.273 64.6343 253.368 64.6289 253.494 64.6505C253.662 64.6829 253.846 64.7099 254.046 64.7315C254.256 64.7531 254.461 64.7747 254.661 64.7964C254.871 64.8072 255.065 64.818 255.244 64.8288C255.433 64.8396 255.596 64.845 255.733 64.845C256.237 64.845 256.6 64.7747 256.821 64.6343C257.041 64.483 257.152 64.2453 257.152 63.9211C257.152 63.7374 257.131 63.5861 257.089 63.4673C257.057 63.3484 256.994 63.2512 256.899 63.1755C256.805 63.0999 256.673 63.0405 256.505 62.9972C256.348 62.9432 256.143 62.9 255.89 62.8676C255.502 62.8135 255.134 62.7433 254.787 62.6569C254.44 62.5704 254.13 62.4461 253.857 62.2841C253.594 62.1112 253.384 61.8897 253.226 61.6195C253.068 61.3386 252.99 60.9766 252.99 60.5336C252.99 59.734 253.263 59.1288 253.809 58.7182C254.356 58.2968 255.071 58.0861 255.953 58.0861C256.111 58.0861 256.295 58.0915 256.505 58.1023C256.716 58.1131 256.926 58.1347 257.136 58.1672C257.357 58.1996 257.572 58.2374 257.782 58.2806C257.993 58.3238 258.182 58.3779 258.35 58.4427C258.613 58.5507 258.723 58.7128 258.681 58.9289L258.555 59.5124C258.534 59.6313 258.492 59.7069 258.429 59.7394C258.376 59.761 258.276 59.761 258.129 59.7394C257.793 59.6961 257.425 59.6583 257.026 59.6259C256.626 59.5827 256.279 59.5611 255.985 59.5611C255.481 59.5611 255.144 59.6367 254.976 59.788C254.818 59.9285 254.74 60.1554 254.74 60.4687C254.74 60.7821 254.839 60.9874 255.039 61.0847C255.249 61.1819 255.596 61.2683 256.08 61.344C256.458 61.398 256.815 61.4682 257.152 61.5547C257.499 61.6411 257.803 61.7708 258.066 61.9437C258.329 62.1166 258.539 62.3489 258.697 62.6406C258.854 62.9324 258.933 63.3214 258.933 63.8077Z"
    fill="white"
  />
<path
    d="M262.433 56.1411C262.433 56.2708 262.422 56.395 262.401 56.5139C262.38 56.622 262.333 56.7192 262.26 56.8057C262.197 56.8921 262.102 56.9623 261.976 57.0164C261.86 57.0596 261.703 57.0812 261.503 57.0812C261.293 57.0812 261.124 57.0542 260.998 57.0002C260.883 56.9461 260.793 56.8759 260.73 56.7894C260.667 56.703 260.625 56.6057 260.604 56.4977C260.583 56.3788 260.573 56.26 260.573 56.1411C260.573 55.8818 260.63 55.6657 260.746 55.4928C260.872 55.3091 261.124 55.2172 261.503 55.2172C261.892 55.2172 262.144 55.3037 262.26 55.4766C262.375 55.6387 262.433 55.8602 262.433 56.1411ZM262.338 65.8823C262.338 65.9688 262.317 66.0444 262.275 66.1092C262.244 66.1633 262.17 66.1903 262.055 66.1903H260.935C260.725 66.1903 260.62 66.0876 260.62 65.8823V58.5562C260.62 58.3508 260.725 58.2482 260.935 58.2482H262.055C262.17 58.2482 262.244 58.2806 262.275 58.3454C262.317 58.3995 262.338 58.4697 262.338 58.5562V65.8823Z"
    fill="white"
  />
<path
    d="M270.963 65.8823C270.963 65.9796 270.942 66.0552 270.9 66.1092C270.858 66.1633 270.78 66.1903 270.664 66.1903H269.529C269.329 66.1903 269.229 66.0876 269.229 65.8823L269.245 61.3278C269.245 60.8523 269.166 60.4687 269.008 60.177C268.861 59.8852 268.562 59.7394 268.11 59.7394C267.952 59.7394 267.768 59.7664 267.558 59.8204C267.358 59.8744 267.153 59.9447 266.943 60.0311C266.743 60.1067 266.554 60.1878 266.376 60.2742C266.197 60.3499 266.055 60.4147 265.95 60.4687V65.8823C265.95 66.0876 265.85 66.1903 265.65 66.1903H264.531C264.331 66.1903 264.231 66.0876 264.231 65.8823V58.5724C264.231 58.3562 264.331 58.2482 264.531 58.2482H265.65C265.85 58.2482 265.95 58.3562 265.95 58.5724V59.0586C265.96 59.0586 265.966 59.064 265.966 59.0748C265.976 59.0748 265.987 59.0748 265.997 59.0748C266.144 58.9668 266.318 58.8587 266.517 58.7507C266.728 58.6318 266.948 58.5237 267.18 58.4265C267.411 58.3292 267.653 58.2536 267.905 58.1996C268.157 58.1347 268.404 58.1023 268.646 58.1023C269.182 58.1023 269.602 58.1888 269.907 58.3617C270.212 58.5237 270.443 58.7452 270.601 59.0262C270.758 59.3071 270.858 59.6367 270.9 60.0149C270.942 60.3823 270.963 60.7713 270.963 61.1819V65.8823Z"
    fill="white"
  />
<path
    d="M278.394 63.8077C278.394 64.2831 278.305 64.6829 278.126 65.0071C277.947 65.3204 277.706 65.5744 277.401 65.7689C277.107 65.9634 276.77 66.1038 276.392 66.1903C276.014 66.2767 275.619 66.3199 275.209 66.3199C274.81 66.3199 274.379 66.2875 273.917 66.2227C273.454 66.1687 273.071 66.0822 272.766 65.9634C272.608 65.8985 272.508 65.8283 272.466 65.7526C272.424 65.6662 272.414 65.5581 272.435 65.4285L272.545 64.8936C272.566 64.7639 272.608 64.6883 272.671 64.6667C272.734 64.6343 272.829 64.6289 272.955 64.6505C273.123 64.6829 273.307 64.7099 273.507 64.7315C273.717 64.7531 273.922 64.7747 274.122 64.7964C274.332 64.8072 274.526 64.818 274.705 64.8288C274.894 64.8396 275.057 64.845 275.194 64.845C275.698 64.845 276.061 64.7747 276.282 64.6343C276.502 64.483 276.613 64.2453 276.613 63.9211C276.613 63.7374 276.592 63.5861 276.55 63.4673C276.518 63.3484 276.455 63.2512 276.36 63.1755C276.266 63.0999 276.134 63.0405 275.966 62.9972C275.809 62.9432 275.604 62.9 275.351 62.8676C274.962 62.8135 274.595 62.7433 274.248 62.6569C273.901 62.5704 273.591 62.4461 273.318 62.2841C273.055 62.1112 272.845 61.8897 272.687 61.6195C272.529 61.3386 272.45 60.9766 272.45 60.5336C272.45 59.734 272.724 59.1288 273.27 58.7182C273.817 58.2968 274.532 58.0861 275.414 58.0861C275.572 58.0861 275.756 58.0915 275.966 58.1023C276.176 58.1131 276.387 58.1347 276.597 58.1672C276.818 58.1996 277.033 58.2374 277.243 58.2806C277.454 58.3238 277.643 58.3779 277.811 58.4427C278.074 58.5507 278.184 58.7128 278.142 58.9289L278.016 59.5124C277.995 59.6313 277.953 59.7069 277.89 59.7394C277.837 59.761 277.737 59.761 277.59 59.7394C277.254 59.6961 276.886 59.6583 276.487 59.6259C276.087 59.5827 275.74 59.5611 275.446 59.5611C274.941 59.5611 274.605 59.6367 274.437 59.788C274.279 59.9285 274.2 60.1554 274.2 60.4687C274.2 60.7821 274.3 60.9874 274.5 61.0847C274.71 61.1819 275.057 61.2683 275.541 61.344C275.919 61.398 276.276 61.4682 276.613 61.5547C276.96 61.6411 277.264 61.7708 277.527 61.9437C277.79 62.1166 278 62.3489 278.158 62.6406C278.315 62.9324 278.394 63.3214 278.394 63.8077Z"
    fill="white"
  />
<path
    fill-rule="evenodd"
    clip-rule="evenodd"
    d="M286.7 66.241H290V27.541H286.7V66.241Z"
    fill="white"
  />
<path
    d="M29.0595 64.8961H84.7641L84.759 28.8354L29.0544 28.8405L29.0595 64.8961Z"
    fill="#003399"
  />
<path
    d="M57.4401 33.3809H59.4717L57.8331 34.6449L58.4712 36.6472L56.8429 35.4135L55.2146 36.6472L55.8526 34.6449L54.2039 33.3809H56.2303L56.8429 31.4292L57.4401 33.3809Z"
    fill="#FFED00"
  />
<path
    d="M57.5115 59.1573H59.5431L57.9097 60.3759L58.5426 62.3023L56.9143 61.1141L55.286 62.3023L55.9292 60.3759L54.2753 59.1573H56.3018L56.9143 57.2815L57.5115 59.1573Z"
    fill="#FFED00"
  />
<path
    d="M63.9482 57.4534H65.9849L64.3464 58.6669L64.9844 60.5933L63.351 59.4051L61.7227 60.5933L62.3659 58.6669L60.712 57.4534H62.7385L63.351 55.5725L63.9482 57.4534Z"
    fill="#FFED00"
  />
<path
    d="M63.9482 35.1H65.9849L64.3464 36.3185L64.9844 38.2449L63.351 37.0567L61.7227 38.2449L62.3659 36.3185L60.712 35.1H62.7385L63.351 33.2241L63.9482 35.1Z"
    fill="#FFED00"
  />
<path
    d="M68.7311 39.8377H70.7575L69.1241 41.0512L69.7571 42.9776L68.1288 41.7894L66.5005 42.9776L67.1436 41.0512L65.4898 39.8377H67.5162L68.1288 37.9568L68.7311 39.8377Z"
    fill="#FFED00"
  />
<path
    d="M68.7311 52.7814H70.7575L69.1241 53.9999L69.7571 55.9263L68.1288 54.7381L66.5005 55.9263L67.1436 53.9999L65.4898 52.7814H67.5162L68.1288 50.9055L68.7311 52.7814Z"
    fill="#FFED00"
  />
<path
    d="M70.5176 46.2084H72.5543L70.9158 47.4269L71.5487 49.3533L69.9204 48.1651L68.2921 49.3533L68.9353 47.4269L67.2814 46.2084H69.3079L69.9204 44.3325L70.5176 46.2084Z"
    fill="#FFED00"
  />
<path
    d="M50.8809 35.1202H52.9074L51.274 36.3336L51.9069 38.26L50.2786 37.0718L48.6503 38.26L49.2934 36.3336L47.6447 35.1202H49.6661L50.2786 33.2393L50.8809 35.1202Z"
    fill="#FFED00"
  />
<path
    d="M46.2308 39.8528H48.2674L46.6289 41.0663L47.2619 42.9927L45.6336 41.8045L44.0052 42.9927L44.6484 41.0663L42.9946 39.8528H45.021L45.6336 37.9719L46.2308 39.8528Z"
    fill="#FFED00"
  />
<path
    d="M44.5055 46.2286H46.537L44.9036 47.442L45.5366 49.3685L43.9083 48.1853L42.28 49.3685L42.9231 47.442L41.2744 46.2286H43.2957L43.9083 44.3477L44.5055 46.2286Z"
    fill="#FFED00"
  />
<path
    d="M46.2308 52.7965H48.2674L46.6289 54.015L47.2619 55.9414L45.6336 54.7532L44.0052 55.9414L44.6484 54.015L42.9946 52.7965H45.021L45.6336 50.9207L46.2308 52.7965Z"
    fill="#FFED00"
  />
<path
    d="M50.9473 57.4685H52.9737L51.3403 58.682L51.9733 60.6084L50.3449 59.4202L48.7166 60.6084L49.3598 58.682L47.7111 57.4685H49.7324L50.3449 55.5876L50.9473 57.4685Z"
    fill="#FFED00"
  />
<path
    d="M94.9372 0.00505726C94.9372 0.00505726 106.917 18.9101 109.112 22.3736C111.302 25.8371 113.808 28.5826 122.675 30.4433C131.541 32.304 135.4 33.1837 135.4 33.1837V33.8562C135.4 33.8562 129.765 32.668 122.516 31.0652C115.268 29.4624 112.302 28.9214 109 24.3657C106.249 20.5736 94.9372 3.61517 94.9372 3.61517V0V0.00505726Z"
    fill="white"
  />
<path
    d="M94.9372 21.5949C94.9372 21.5949 105.845 32.9157 109 36.1668C112.348 39.6151 116.631 40.8893 122.573 41.941C128.244 42.9421 135.395 44.1 135.395 44.1V44.7371C135.395 44.7371 128.677 43.6449 122.573 42.6135C116.585 41.5972 112.394 41.0309 108.964 37.9011C105.891 35.1 94.9372 24.9219 94.9372 24.9219V21.5898V21.5949Z"
    fill="white"
  />
<path
    d="M94.9372 26.6967C94.9372 26.6967 105.309 36.2377 109 39.499C112.394 42.4973 115.146 43.4327 122.608 44.7422C130.071 46.0518 135.395 46.8658 135.395 46.8658V47.5383C135.395 47.5383 128.642 46.4411 122.573 45.4804C116.503 44.5248 112.634 44.1456 109 41.2282C104.809 37.8608 94.9372 29.8113 94.9372 29.8113V26.6917V26.6967Z"
    fill="white"
  />
<path
    d="M94.9372 32.1321C94.9372 32.1321 106.785 41.4456 109 43.0737C111.215 44.7018 114.145 46.6029 122.644 47.8214C131.071 49.0298 135.395 49.6265 135.395 49.6265V50.3343C135.395 50.3343 127.754 49.2371 122.644 48.6001C117.535 47.963 113.619 47.69 109.036 44.6664C104.574 41.7237 94.9372 35.004 94.9372 35.004V32.1321Z"
    fill="white"
  />
<path
    d="M94.9372 37.3601C94.9372 37.3601 106.82 45.1972 109.071 46.441C111.322 47.6798 113.967 49.7022 122.644 50.7994C131.322 51.8966 135.395 52.3921 135.395 52.3921V53.0646C135.395 53.0646 128.218 52.286 122.608 51.6843C117.004 51.0826 113.18 50.2685 109 47.9983C104.819 45.7331 94.9372 40.0095 94.9372 40.0095V37.3601Z"
    fill="white"
  />
<path
    d="M94.9372 42.5883C94.9372 42.5883 105.442 48.2512 109 50.0158C112.966 51.9878 116.396 52.9333 122.608 53.6664C128.708 54.3844 135.395 55.0821 135.395 55.0821V55.7192C135.395 55.7192 129.213 55.0619 122.608 54.4451C116.059 53.8282 113.727 53.5451 109 51.467C104.773 49.6063 94.9372 45.0658 94.9372 45.0658V42.5833V42.5883Z"
    fill="white"
  />
<path
    d="M94.9372 47.8872C94.9372 47.8872 103.237 51.4063 109.071 53.7018C114.809 55.9569 119.193 56.149 122.68 56.5383C124.216 56.7102 135.395 57.8479 135.395 57.8479V58.485C135.395 58.485 128.718 57.9541 122.644 57.4232C116.57 56.8923 113.951 56.6647 109.036 55.0518C104.059 53.4136 94.9372 50.2636 94.9372 50.2636V47.8923V47.8872Z"
    fill="white"
  />
<path
    d="M94.9372 53.2922C94.9372 53.2922 103.319 55.8658 109.036 57.3524C114.753 58.8389 120 59.4456 122.644 59.6175C125.288 59.7945 135.4 60.6085 135.4 60.6085V61.2102C135.4 61.2102 129.647 60.8209 122.608 60.3254C116.917 59.9259 112.348 59.5012 109 58.7681C105.294 57.9591 94.9372 55.522 94.9372 55.522V53.2922Z"
    fill="white"
  />
<path
    d="M94.9372 58.6062C94.9372 58.6062 101.792 59.7792 109.036 60.9674C114.467 61.8573 121.822 62.4186 122.608 62.454C123.394 62.4893 135.395 63.3034 135.395 63.3034V63.9405C135.395 63.9405 127.713 63.5461 122.608 63.268C117.29 62.9747 112.001 62.6562 109 62.3478C102.272 61.6551 94.9372 60.7349 94.9372 60.7349V58.6062Z"
    fill="white"
  />
<path
    d="M94.9372 64.1074C94.9372 64.1074 105.748 64.5119 109.036 64.5827C112.323 64.6535 135.395 65.5737 135.395 65.5737V66.1956H94.9372V64.1074Z"
    fill="white"
  />
<path
    d="M122.603 33.3656C112.818 31.2774 110.603 27.733 108.959 25.5387C107.315 23.3392 94.9321 5.41504 94.9321 5.41504V8.71167C95.4222 9.34369 106.019 23.8347 108.995 27.6269C112.348 31.8993 117.601 32.8701 122.603 33.9319C127.6 34.9937 135.395 36.4752 135.395 36.4752V35.9089C135.395 35.9089 125.135 33.9016 122.603 33.3656Z"
    fill="white"
  />
<path
    d="M122.603 36.2022C114.569 34.6449 111.317 32.127 108.959 29.0831C106.601 26.0343 94.9321 10.446 94.9321 10.446V14.2786C95.4222 14.85 106.096 27.7534 108.959 30.9994C112.297 34.7865 116.958 35.7826 122.603 36.809C128.249 37.8354 135.39 39.1803 135.39 39.1803V38.614C135.39 38.614 127.238 37.1022 122.603 36.2073V36.2022Z"
    fill="white"
  />
<path
    d="M122.603 39.1399C114.247 37.5321 112.532 36.2124 108.995 32.3748C106.769 29.963 95.4119 16.6804 94.9321 16.1191V19.6585C94.9321 19.6585 105.544 30.8731 108.959 34.1849C113.436 38.5332 117.637 38.8619 122.603 39.7467C127.57 40.6315 135.39 42.0473 135.39 42.0473V41.4456C135.39 41.4456 125.947 39.7871 122.603 39.145V39.1399Z"
    fill="white"
  />
<path
    d="M0.00510552 27.7788C0.00510552 27.7788 27.6711 24.8563 35.4196 23.7793C47.6702 22.0805 57.6953 20.2703 66.9701 6.18887C66.9701 6.18887 66.9803 5.38999 66.9701 5.03101C61.2889 13.5911 53.4536 19.431 42.6628 21.1248C32.1222 22.7833 0 25.2052 0 25.2052V27.7788H0.00510552Z"
    fill="white"
  />
<path
    d="M0.00511169 24.2849C0.00511169 24.2849 25.6446 21.1046 34.0925 19.9315C47.4559 18.081 56.8531 16.4175 66.9701 1.05681C66.9701 1.05681 66.9752 0.394453 66.9701 0.00512695C60.7733 9.3439 53.1218 15.3759 41.351 17.2265C29.8507 19.0366 0.00511169 21.6759 0.00511169 21.6759V24.29V24.2849Z"
    fill="white"
  />
<path d="M26.1806 64.1326H0.020462V66.1854H26.1806V64.1326Z" fill="white" />
<path
    d="M66.9701 22.5708C66.9701 22.5708 66.9854 21.3624 66.9803 21.1045C65.7501 22.9601 64.132 24.6438 62.2638 26.1253H64.0963C65.1274 25.0736 66.0921 23.8955 66.965 22.5708H66.9701Z"
    fill="white"
  />
<path
    d="M66.9701 17.11C66.9701 17.11 66.9803 16.0381 66.9752 15.7449C64.0095 20.2145 59.5942 23.7842 54.4897 26.1505L57.5014 26.1404C60.9826 24.1331 64.2188 21.2814 66.965 17.11H66.9701Z"
    fill="white"
  />
<path
    d="M66.9701 11.6494C66.9701 11.6494 66.9803 10.714 66.9701 10.3904C61.8095 18.1718 53.7853 23.496 43.9746 25.0381C41.6521 25.4022 37.8697 25.8067 33.4748 26.2162L45.4549 26.1758C53.3617 24.4314 60.7631 21.0589 66.9599 11.6494H66.9701Z"
    fill="white"
  />
<path
    d="M26.1857 60.6743C12.8377 60.7451 0.020462 60.8007 0.020462 60.8007V62.9395C0.020462 62.9395 13.4451 62.8434 26.1857 62.7372V60.6743Z"
    fill="white"
  />
<path
    d="M26.1857 57.0034C12.9295 57.15 0.0153351 57.2613 0.0153351 57.2613V59.4456C0.0153351 59.4456 13.5778 59.2686 26.1857 59.0714V57.0034Z"
    fill="white"
  />
<path
    d="M26.1806 53.3225C13.0214 53.55 0.0153351 53.722 0.0153351 53.722V55.9517C0.0153351 55.9517 13.7207 55.6837 26.1806 55.3905V53.3225Z"
    fill="white"
  />
<path
    d="M26.1857 49.6213C13.1235 49.9398 0.0153351 50.1774 0.0153351 50.1774V52.4477C0.0153351 52.4477 13.879 52.0735 26.1857 51.6842V49.6162V49.6213Z"
    fill="white"
  />
<path
    d="M26.1908 45.9102C13.2256 46.3197 0.0153351 46.6433 0.0153351 46.6433V48.959C0.0153351 48.959 14.0474 48.4736 26.1908 47.9781V45.9152V45.9102Z"
    fill="white"
  />
<path
    d="M26.1857 42.1838C13.3226 42.6995 0.0153351 43.104 0.0153351 43.104V45.4602C0.0153351 45.4602 14.2209 44.8433 26.1857 44.2315V42.1787V42.1838Z"
    fill="white"
  />
<path
    d="M26.1908 38.4321C13.4247 39.0591 0.0102234 39.5597 0.0102234 39.5597V41.9613C0.0102234 41.9613 14.4047 41.1979 26.1908 40.4647V38.4321Z"
    fill="white"
  />
<path
    d="M26.1908 34.6602C13.5216 35.4085 0.0102234 36.0203 0.0102234 36.0203V38.4624C0.0102234 38.4624 14.5987 37.5321 26.1908 36.6725V34.6602Z"
    fill="white"
  />
<path
    d="M26.1908 30.8679C13.6084 31.7477 0.0102234 32.4859 0.0102234 32.4859V34.9735C0.0102234 34.9735 14.7926 33.8511 26.1908 32.8601V30.873V30.8679Z"
    fill="white"
  />
<path
    d="M26.1908 27.0405C13.685 28.0669 0.00511169 28.9416 0.00511169 28.9416V31.4697C0.00511169 31.4697 14.9866 30.1248 26.1908 28.9922V27.0405Z"
    fill="white"
  />
<path
    d="M86.0759 66.1906V27.5461H27.7528V66.1906H86.0759ZM84.759 28.8355V64.8962H29.0544V28.8405H84.759V28.8355Z"
    fill="white"
  />
</svg>
