<svg width="290" height="72" viewBox="0 0 290 72" fill="none" xmlns="http://www.w3.org/2000/svg">
<path fill-rule="evenodd" clip-rule="evenodd" d="M0 24.5C0 24.5 39.8 19.3 41 19.1C42.7 18.8 44.3 18.5 45.7 18.1C48.9 17.2 51.9 15.9 54.5 14.1C57 12.4 59.4 9.9 61.7 7.2C63.2 5.5 64.7 3.2 66.2 1V0C64.5 2.6 62.8 4.8 61.1 6.7C58.8 9.3 56.4 11.4 53.9 13C51.4 14.6 48.5 15.9 45.4 16.7C44 17.1 42.5 17.3 40.8 17.6C39.7 17.8 38.6 17.9 37.5 18C37 18 0 21.9 0 21.9V24.5Z" fill="white"/>
<mask id="mask0_601_8008" style="mask-type:alpha" maskUnits="userSpaceOnUse" x="0" y="5" width="67" height="23">
<path fill-rule="evenodd" clip-rule="evenodd" d="M0 5.19971H66.0999V27.9997H0V5.19971Z" fill="white"/>
</mask>
<g mask="url(#mask0_601_8008)">
<path fill-rule="evenodd" clip-rule="evenodd" d="M53.3999 17.7997C50.8999 19.1997 47.9999 20.2997 44.7999 20.8997C43.3999 21.1997 41.9999 21.3997 40.2999 21.5997C39.2999 21.6997 38.2999 21.7997 37.2999 21.8997C36.7999 21.8997 36.1999 21.9997 35.6999 21.9997C23.4999 23.1997 11.3999 24.2997 -0.00012207 25.3997V27.9997C11.3999 26.5997 23.6999 25.0997 35.8999 23.6997C36.3999 23.5997 36.9999 23.5997 37.4999 23.4997C38.4999 23.3997 39.4999 23.2997 40.4999 23.0997C42.1999 22.8997 43.7999 22.5997 45.0999 22.2997C48.3999 21.5997 51.3999 20.3997 53.9999 18.7997C56.5999 17.1997 58.7999 15.0997 61.2999 12.3997C62.7999 10.6997 64.4999 8.39971 66.0999 6.19971V5.19971C64.1999 7.69971 62.4999 9.89971 60.6999 11.6997C58.2999 14.3997 55.8999 16.3997 53.3999 17.7997" fill="white"/>
</g>
<mask id="mask1_601_8008" style="mask-type:alpha" maskUnits="userSpaceOnUse" x="0" y="10" width="67" height="22">
<path fill-rule="evenodd" clip-rule="evenodd" d="M0 10.9001H66.0999V31.5001H0V10.9001Z" fill="white"/>
</mask>
<g mask="url(#mask1_601_8008)">
<path fill-rule="evenodd" clip-rule="evenodd" d="M60.3999 17.2001C57.9999 19.4001 55.3999 21.2001 52.8999 22.5001C50.3999 23.7001 47.5999 24.6001 44.2999 25.1001C42.8999 25.3001 41.4999 25.5001 39.7999 25.7001L-0.00012207 28.9001V31.5001L35.2999 27.7001L39.8999 27.2001C41.5999 27.0001 43.0999 26.8001 44.4999 26.5001C47.8999 25.9001 50.7999 24.9001 53.3999 23.6001C56.0999 22.2001 58.6999 20.0001 61.1999 17.6001C62.8999 16.0001 64.3999 13.9001 66.0999 11.8001V10.9001C64.0999 13.4001 62.2999 15.4001 60.3999 17.2001" fill="white"/>
</g>
<mask id="mask2_601_8008" style="mask-type:alpha" maskUnits="userSpaceOnUse" x="0" y="21" width="67" height="18">
<path fill-rule="evenodd" clip-rule="evenodd" d="M0 21.7H66.1998V38.5H0V21.7Z" fill="white"/>
</mask>
<g mask="url(#mask2_601_8008)">
<path fill-rule="evenodd" clip-rule="evenodd" d="M50.7998 30.6C48.4998 31.9 46.7998 32.7 43.4998 33C41.4998 33.2 39.4998 33.3 37.4998 33.4C36.4998 33.4 35.5998 33.5 34.5998 33.6C28.5998 33.9 22.6998 34.3 16.6998 34.7L-0.000244141 35.9V38.5L16.7998 36.9C22.1998 36.4 28.4998 35.8 34.6998 35.3L39.1998 35C40.8998 34.9 42.3998 34.7 43.6998 34.5C47.0998 34.1 49.9998 33.4 52.5998 32.4C55.3998 31.4 57.9998 29.7 60.5998 27.8C62.9998 26.1 66.1998 22.7 66.1998 22.6V21.7C64.0998 23.8 62.7998 25 60.4998 26.5C57.5998 28.5 52.8998 29.5 50.7998 30.6" fill="white"/>
</g>
<path fill-rule="evenodd" clip-rule="evenodd" d="M51.6001 35.6001C49.1001 36.3001 46.3001 36.8001 43.0001 37.1001C41.7001 37.2001 40.2001 37.3001 38.6001 37.4001L34.2001 37.6001C23.2001 38.1001 12.2001 38.7001 0.100098 39.3001V41.9001C11.7001 41.0001 23.0001 40.1001 34.4001 39.3001L38.8001 39.0001C40.5001 38.9001 41.9001 38.8001 43.3001 38.6001C46.7001 38.2001 49.6001 37.6001 52.1001 36.8001C54.9001 35.9001 57.7001 34.6001 60.3001 32.9001C62.2001 31.7001 64.2001 30.2001 66.2001 28.4001C64.0001 30.3001 61.9001 30.7001 59.8001 32.0001C57.1001 33.6001 54.4001 34.8001 51.6001 35.6001" fill="white"/>
<path fill-rule="evenodd" clip-rule="evenodd" d="M51.2002 39.9004C48.7002 40.5004 45.9002 40.9004 42.6002 41.0994C41.3002 41.2004 39.9002 41.2994 38.2002 41.2994L33.8002 41.5004C22.7002 41.9004 11.5002 42.4004 0.000244141 42.9004V45.5004C11.4002 44.7004 22.6002 44.0004 33.9002 43.2004L38.3002 42.9004C40.0002 42.7994 41.4002 42.7004 42.7002 42.5994C46.1002 42.2994 48.9002 41.7994 51.5002 41.0994C54.4002 40.2994 57.2002 39.2004 59.9002 37.7994C62.0002 36.7004 64.0002 35.4004 66.1002 33.7994V32.7004C63.8002 34.4004 61.6002 35.7004 59.4002 36.7994C56.8002 38.2004 54.0002 39.2004 51.2002 39.9004" fill="white"/>
<mask id="mask3_601_8008" style="mask-type:alpha" maskUnits="userSpaceOnUse" x="0" y="38" width="67" height="11">
<path fill-rule="evenodd" clip-rule="evenodd" d="M0 38.2007H66.1998V48.7997H0V38.2007Z" fill="white"/>
</mask>
<g mask="url(#mask3_601_8008)">
<path fill-rule="evenodd" clip-rule="evenodd" d="M50.7998 44.0997C48.2998 44.5997 45.4998 44.9007 42.1998 44.9997C40.8998 45.0997 39.5998 45.0997 37.8998 45.2007L-0.000244141 46.2007V48.7997L33.5998 46.9997L37.9998 46.7997C39.6998 46.7007 41.0998 46.5997 42.3998 46.4997C45.7998 46.2007 48.4998 45.9007 51.0998 45.2997C53.9998 44.7007 56.8998 43.7997 59.5998 42.5997C61.7998 41.7007 63.8998 40.5997 66.1998 39.2007V38.2007C63.7998 39.5997 61.4998 40.7007 59.1998 41.5997C56.4998 42.7997 53.6998 43.5997 50.7998 44.0997" fill="white"/>
</g>
<path fill-rule="evenodd" clip-rule="evenodd" d="M50.5 48.2998C45.8 48.9008 41.1 48.9998 36.4 49.0998C35.3 49.0998 34.3 49.0998 33.2 49.1998L0 49.7998V52.4008L33.3 50.9998C34.4 50.9998 35.4 50.9008 36.5 50.9008C41.2 50.6998 46 50.4998 50.7 49.7998C53.7 49.2998 56.6 48.5998 59.2 47.6998C61.4 46.9998 63.7 45.9998 66 44.7998V43.7998C63.6 44.9008 61.1 45.9008 58.8 46.5998C56.3 47.2998 53.5 47.9998 50.5 48.2998" fill="white"/>
<mask id="mask4_601_8008" style="mask-type:alpha" maskUnits="userSpaceOnUse" x="0" y="49" width="67" height="7">
<path fill-rule="evenodd" clip-rule="evenodd" d="M0 49.2007H66.1998V55.7997H0V49.2007Z" fill="white"/>
</mask>
<g mask="url(#mask4_601_8008)">
<path fill-rule="evenodd" clip-rule="evenodd" d="M50.2998 52.5997C45.8998 52.9997 41.4998 52.9997 37.0998 52.9997H33.0998C22.0998 52.9997 11.0998 53.0997 -0.000244141 53.2007V55.7997C10.5998 55.4007 21.8998 55.0997 33.1998 54.7007C34.4998 54.7007 35.8998 54.5997 37.1998 54.5997C41.4998 54.4997 45.9998 54.4007 50.3998 53.9007C53.4998 53.5997 56.2998 53.0997 58.9998 52.4007C61.2998 51.7997 63.6998 50.9997 66.1998 50.0997V49.2007C63.6998 50.0997 61.1998 50.7997 58.7998 51.4007C56.0998 51.9997 53.2998 52.4007 50.2998 52.5997" fill="white"/>
</g>
<path fill-rule="evenodd" clip-rule="evenodd" d="M50.1001 56.7999C48.3001 56.9009 46.3001 56.9009 44.1001 56.9009H41.6001L33.0001 56.7999C27.1001 56.7999 21.3001 56.6999 15.8001 56.6999L0.00012207 56.7999V59.4009L15.9001 58.9999C21.4001 58.9009 27.2001 58.6999 33.0001 58.5999L41.6001 58.4999C44.0001 58.4999 47.1001 58.4009 50.2001 58.1999C53.3001 57.9999 56.1001 57.6999 58.8001 57.2999C61.2001 56.9009 63.7001 56.4009 66.2001 55.7999V54.9009C63.7001 55.4999 61.1001 55.9999 58.7001 56.2999C55.9001 56.4999 53.2001 56.6999 50.1001 56.7999" fill="white"/>
<path fill-rule="evenodd" clip-rule="evenodd" d="M41.5 60.9005L32.9 60.7995C22 60.5995 11.1 60.4005 0 60.2005V62.7995C10.6 62.7005 21.8 62.5995 32.9 62.5005L41.5 62.4005C44.4 62.4005 47.2 62.2995 50.1 62.2005C56 62.0005 61.2 61.5995 66.2 60.9005V60.0005C61.3 60.5005 56 60.7995 50.1 60.9005H41.5" fill="white"/>
<path fill-rule="evenodd" clip-rule="evenodd" d="M66.1001 65.5L0.00012207 63.8V66.4H66.1001V65.5Z" fill="white"/>
<path fill-rule="evenodd" clip-rule="evenodd" d="M60.2002 21.9999C57.7002 23.9999 55.7002 25.4999 52.7002 26.6999C50.0002 27.7999 47.1002 28.1999 43.9002 28.6999C41.8002 28.9999 39.6002 29.3999 37.5002 29.5999C36.6002 29.6999 35.8002 29.6999 34.9002 29.7999L0.000244141 32.2999V34.8999L34.9002 31.4999L39.4002 31.0999C41.1002 30.8999 42.6002 30.7999 44.0002 30.4999C47.4002 29.9999 50.3002 29.0999 52.9002 27.8999C55.6002 26.6999 58.4002 24.6999 60.9002 22.5999C62.6002 21.0999 64.3002 19.2999 66.1002 17.2999V16.3999C63.9002 18.5999 62.1002 20.4999 60.2002 21.9999" fill="white"/>
<path fill-rule="evenodd" clip-rule="evenodd" d="M94.2002 0C94.2002 0 106.1 18.9 108.3 22.4C110.5 25.9 113 28.6 121.8 30.5C130.6 32.4 134.4 33.2 134.4 33.2V33.9C134.4 33.9 128.8 32.7 121.6 31.1C114.4 29.5 111.5 29 108.2 24.4C105.5 20.6 94.2002 4.5 94.2002 4.5V0Z" fill="white"/>
<path fill-rule="evenodd" clip-rule="evenodd" d="M94.2002 21.6001C94.2002 21.6001 105 32.9001 108.2 36.2001C111.5 39.7001 115.8 40.9001 121.7 42.0001C127.3 43.0001 134.4 44.2001 134.4 44.2001V44.8001C134.4 44.8001 127.7 43.7001 121.7 42.7001C115.8 41.7001 111.6 41.1001 108.2 38.0001C105.2 35.2001 94.3002 25.0001 94.3002 25.0001L94.2002 21.6001Z" fill="white"/>
<path fill-rule="evenodd" clip-rule="evenodd" d="M94.2002 26.7998C94.2002 26.7998 104.5 36.3998 108.2 39.5998C111.6 42.5998 114.3 43.4998 121.7 44.9008C129.1 46.1998 134.4 46.9998 134.4 46.9998V47.6998C134.4 47.6998 127.7 46.5998 121.7 45.5998C115.7 44.5998 111.8 44.2998 108.2 41.2998C104 37.9008 94.2002 29.8998 94.2002 29.8998V26.7998Z" fill="white"/>
<path fill-rule="evenodd" clip-rule="evenodd" d="M94.2002 32.2002C94.2002 32.2002 106 41.5002 108.2 43.2002C110.4 44.8002 113.3 46.7002 121.7 48.0002C130.1 49.2002 134.4 49.8002 134.4 49.8002V50.5002C134.4 50.5002 126.8 49.4002 121.7 48.8002C116.6 48.2002 112.7 47.9002 108.2 44.9002C103.8 42.0002 94.2002 35.2002 94.2002 35.2002V32.2002Z" fill="white"/>
<path fill-rule="evenodd" clip-rule="evenodd" d="M94.2002 37.4004C94.2002 37.4004 106 45.2994 108.2 46.5004C110.4 47.7004 113.1 49.7994 121.7 50.9004C130.3 52.0004 134.4 52.5004 134.4 52.5004V53.2004C134.4 53.2004 127.3 52.4004 121.7 51.7994C116.1 51.2004 112.3 50.4004 108.2 48.0994C104.1 45.7994 94.2002 40.0994 94.2002 40.0994V37.4004Z" fill="white"/>
<path fill-rule="evenodd" clip-rule="evenodd" d="M94.2002 42.7002C94.2002 42.7002 104.6 48.4002 108.2 50.0992C112.1 52.0992 115.5 53.0002 121.7 53.8002C127.8 54.5002 134.4 55.2002 134.4 55.2002V55.8002C134.4 55.8002 128.3 55.0992 121.7 54.5002C115.2 53.9002 112.9 53.5992 108.2 51.5002C104 49.5992 94.2002 45.0992 94.2002 45.0992V42.7002Z" fill="white"/>
<path fill-rule="evenodd" clip-rule="evenodd" d="M94.2002 48C94.2002 48 102.4 51.5 108.2 53.8C113.9 56.1 118.2 56.3 121.7 56.6C123.2 56.8 134.3 57.9 134.3 57.9V58.5C134.3 58.5 127.7 58 121.6 57.4C115.6 56.9 113 56.6 108.1 55C103.2 53.4 94.1002 50.2 94.1002 50.2L94.2002 48Z" fill="white"/>
<path fill-rule="evenodd" clip-rule="evenodd" d="M94.2002 53.4004C94.2002 53.4004 102.5 56.0004 108.2 57.5004C113.9 59.0004 119.1 59.5994 121.7 59.7994C124.3 60.0004 134.4 60.7994 134.4 60.7994V61.4004C134.4 61.4004 128.7 61.0004 121.7 60.5004C116 60.0994 111.5 59.7004 108.2 58.9004C104.5 58.0994 94.2002 55.5994 94.2002 55.5994V53.4004Z" fill="white"/>
<path fill-rule="evenodd" clip-rule="evenodd" d="M94.2002 58.7002C94.2002 58.7002 101 59.9002 108.2 61.0992C113.6 62.0002 120.9 62.5992 121.7 62.5992C122.5 62.5992 134.4 63.5002 134.4 63.5002V64.0992C134.4 64.0992 126.8 63.7002 121.7 63.4002C116.4 63.0992 111.2 62.8002 108.2 62.5002C101.5 61.8002 94.2002 60.9002 94.2002 60.9002V58.7002Z" fill="white"/>
<path fill-rule="evenodd" clip-rule="evenodd" d="M94.2002 64.2998C94.2002 64.2998 104.9 64.6998 108.2 64.7998C111.5 64.9008 134.4 65.7998 134.4 65.7998V66.4008H94.2002V64.2998Z" fill="white"/>
<path fill-rule="evenodd" clip-rule="evenodd" d="M121.7 33.3999C112 31.2999 109.8 27.7999 108.2 25.5999C106.6 23.3999 94.3002 5.3999 94.3002 5.3999V9.4999C94.8002 10.0999 105.3 23.8999 108.3 27.6999C111.6 31.9999 116.8 32.9999 121.8 33.9999C126.8 35.0999 134.5 36.5999 134.5 36.5999V35.9999C134.4 35.9999 124.2 33.9999 121.7 33.3999" fill="white"/>
<path fill-rule="evenodd" clip-rule="evenodd" d="M121.7 36.2999C113.7 34.6999 110.5 32.1999 108.2 29.1999C105.9 26.0999 94.3002 10.8999 94.3002 10.8999V14.6999C94.8002 15.2999 105.4 27.7999 108.2 31.0999C111.5 34.8999 116.1 35.8999 121.7 36.8999C127.3 37.9009 134.4 39.2999 134.4 39.2999V38.6999C134.4 38.6999 126.3 37.1999 121.7 36.2999" fill="white"/>
<path fill-rule="evenodd" clip-rule="evenodd" d="M121.7 39.2001C113.4 37.5991 111.7 36.3001 108.2 32.4001C106 30.0001 94.7002 16.7001 94.2002 16.1001V19.6001C94.2002 19.6001 104.7 30.8001 108.1 34.2001C112.5 38.5991 116.7 38.9001 121.6 39.8001C126.5 40.7001 134.3 42.0991 134.3 42.0991V41.5001C134.4 41.5001 125 39.9001 121.7 39.2001" fill="white"/>
<mask id="mask5_601_8008" style="mask-type:alpha" maskUnits="userSpaceOnUse" x="0" y="0" width="277" height="67">
<path fill-rule="evenodd" clip-rule="evenodd" d="M0 66.7H276.7V0H0V66.7Z" fill="white"/>
</mask>
<g mask="url(#mask5_601_8008)">
<path fill-rule="evenodd" clip-rule="evenodd" d="M27.5 66.3001H85.4V27.6001H27.5V66.3001Z" fill="#004494"/>
<path fill-rule="evenodd" clip-rule="evenodd" d="M57.1001 33.1001H59.1001L57.5001 34.4001L58.1001 36.4001L56.5001 35.2001L54.9001 36.4001L55.5001 34.4001L53.9001 33.1001H55.9001L56.5001 31.1001L57.1001 33.1001Z" fill="#FFF100"/>
<path fill-rule="evenodd" clip-rule="evenodd" d="M57.1001 58.9005H59.1001L57.5001 60.0995L58.1001 62.0005L56.5001 60.7995L54.9001 62.0005L55.5001 60.0995L53.9001 58.9005H55.9001L56.5001 57.0005L57.1001 58.9005Z" fill="#FFF100"/>
<path fill-rule="evenodd" clip-rule="evenodd" d="M63.5 57.2003H65.5L63.9 58.4003L64.5 60.3003L62.9 59.0993L61.3 60.3003L61.9 58.4003L60.3 57.2003H62.3L62.9 55.3003L63.5 57.2003Z" fill="#FFF100"/>
<path fill-rule="evenodd" clip-rule="evenodd" d="M63.5 34.7999H65.5L63.9 35.9999L64.5 37.9009L62.9 36.6999L61.3 37.9999L62 35.9999L60.4 34.7999H62.4L63 32.8999L63.5 34.7999Z" fill="#FFF100"/>
<path fill-rule="evenodd" clip-rule="evenodd" d="M68.2999 39.5997H70.2999L68.6999 40.7997L69.2999 42.7007L67.6999 41.4997L66.0999 42.7007L66.6999 40.7997L65.0999 39.5997H67.0999L67.6999 37.7007L68.2999 39.5997Z" fill="#FFF100"/>
<path fill-rule="evenodd" clip-rule="evenodd" d="M68.2999 52.5997H70.2999L68.6999 53.7997L69.2999 55.7007L67.6999 54.4997L66.0999 55.7007L66.6999 53.7997L65.0999 52.5997H67.0999L67.6999 50.7007L68.2999 52.5997Z" fill="#FFF100"/>
<path fill-rule="evenodd" clip-rule="evenodd" d="M70.1 46.0001H72.1L70.5 47.2001L71.1 49.1001L69.5 47.9001L67.9 49.1001L68.5 47.2001L66.8 46.0001H68.8L69.4 44.1001L70.1 46.0001Z" fill="#FFF100"/>
<path fill-rule="evenodd" clip-rule="evenodd" d="M50.5 34.7998H52.5L50.9 35.9998L51.5 37.9008L50 36.7998L48.3 37.9998L48.9 36.0998L47.3 34.8998H49.3L50 32.9998L50.5 34.7998Z" fill="#FFF100"/>
<path fill-rule="evenodd" clip-rule="evenodd" d="M45.9 39.5997H47.9L46.3 40.7997L46.9 42.7007L45.3 41.4997L43.7 42.7007L44.3 40.7997L42.7 39.5997H44.7L45.3 37.7007L45.9 39.5997Z" fill="#FFF100"/>
<path fill-rule="evenodd" clip-rule="evenodd" d="M44.2002 46.0001H46.2002L44.6002 47.2001L45.2002 49.1001L43.6002 47.9001L42.0002 49.1001L42.6002 47.2001L41.0002 46.0001H43.0002L43.6002 44.1001L44.2002 46.0001Z" fill="#FFF100"/>
<path fill-rule="evenodd" clip-rule="evenodd" d="M45.9 52.5997H47.9L46.3 53.7997L46.9 55.7007L45.3 54.4997L43.7 55.7007L44.3 53.7997L42.7 52.5997H44.7L45.3 50.7007L45.9 52.5997Z" fill="#FFF100"/>
<path fill-rule="evenodd" clip-rule="evenodd" d="M50.6001 57.2999H52.6001L51.0001 58.4999L51.6001 60.4009L50.0001 59.1999L48.4001 60.4009L49.0001 58.4999L47.4001 57.2999H49.4001L50.0001 55.4009L50.6001 57.2999Z" fill="#FFF100"/>
<path fill-rule="evenodd" clip-rule="evenodd" d="M26.5 26.6001H86.4V67.3001H26.5V26.6001ZM28.5 28.6001V65.3001H84.4V28.6001H28.5Z" fill="white"/>
</g>
<path d="M143.42 33.1199C143.42 32.8532 143.553 32.7199 143.82 32.7199H151.18C151.433 32.7199 151.56 32.8466 151.56 33.0999V34.3399C151.56 34.5799 151.427 34.6999 151.16 34.6999H145.7V38.1399H150.54C150.807 38.1399 150.94 38.2599 150.94 38.4999V39.7399C150.94 39.9799 150.807 40.0999 150.54 40.0999H145.7V44.0399H151.3C151.54 44.0399 151.66 44.1666 151.66 44.4199V45.6399C151.66 45.8799 151.533 45.9999 151.28 45.9999H143.82C143.553 45.9999 143.42 45.8799 143.42 45.6399V33.1199Z" fill="white"/>
<path d="M162.126 45.6199C162.126 45.8732 162 45.9999 161.746 45.9999H160.326C160.18 45.9999 160.08 45.9666 160.026 45.8999C159.973 45.8332 159.946 45.7399 159.946 45.6199V44.9999L159.906 44.9799C159.706 45.1132 159.473 45.2532 159.206 45.3999C158.953 45.5332 158.68 45.6599 158.386 45.7799C158.093 45.8999 157.786 45.9932 157.466 46.0599C157.16 46.1399 156.853 46.1799 156.546 46.1799C155.866 46.1799 155.326 46.0866 154.926 45.8999C154.54 45.7132 154.246 45.4532 154.046 45.1199C153.846 44.7866 153.72 44.3932 153.666 43.9399C153.613 43.4866 153.586 42.9999 153.586 42.4799V36.5999C153.586 36.3332 153.713 36.1999 153.966 36.1999H155.426C155.666 36.1999 155.786 36.3332 155.786 36.5999V42.2199C155.786 42.5266 155.806 42.7999 155.846 43.0399C155.886 43.2799 155.96 43.4866 156.066 43.6599C156.173 43.8199 156.32 43.9466 156.506 44.0399C156.693 44.1332 156.94 44.1799 157.246 44.1799C157.46 44.1799 157.693 44.1466 157.946 44.0799C158.213 44.0132 158.473 43.9332 158.726 43.8399C158.98 43.7332 159.213 43.6332 159.426 43.5399C159.64 43.4332 159.813 43.3466 159.946 43.2799V36.5999C159.946 36.4799 159.973 36.3866 160.026 36.3199C160.08 36.2399 160.18 36.1999 160.326 36.1999H161.746C162 36.1999 162.126 36.3332 162.126 36.5999V45.6199Z" fill="white"/>
<path d="M166.831 45.6199C166.831 45.8732 166.705 45.9999 166.451 45.9999H165.011C164.758 45.9999 164.631 45.8732 164.631 45.6199V36.5999C164.631 36.3332 164.758 36.1999 165.011 36.1999H166.431C166.698 36.1999 166.831 36.3332 166.831 36.5999V37.4799L166.871 37.5199C167.018 37.3866 167.211 37.2466 167.451 37.0999C167.691 36.9399 167.945 36.7999 168.211 36.6799C168.491 36.5466 168.771 36.4266 169.051 36.3199C169.331 36.2132 169.591 36.1399 169.831 36.0999C169.965 36.0732 170.071 36.0799 170.151 36.1199C170.231 36.1599 170.285 36.2666 170.311 36.4399L170.451 37.7799C170.465 37.9266 170.458 38.0332 170.431 38.0999C170.405 38.1666 170.285 38.2199 170.071 38.2599C169.791 38.3132 169.498 38.3799 169.191 38.4599C168.885 38.5266 168.585 38.6066 168.291 38.6999C167.998 38.7799 167.725 38.8599 167.471 38.9399C167.218 39.0199 167.005 39.0999 166.831 39.1799V45.6199Z" fill="white"/>
<path d="M180.057 40.9399C180.057 41.5132 180.017 42.1066 179.937 42.7199C179.87 43.3332 179.69 43.8999 179.397 44.4199C179.103 44.9266 178.663 45.3466 178.077 45.6799C177.49 45.9999 176.677 46.1599 175.637 46.1599C174.637 46.1599 173.85 45.9999 173.277 45.6799C172.703 45.3466 172.27 44.9266 171.977 44.4199C171.697 43.8999 171.523 43.3332 171.457 42.7199C171.39 42.1066 171.357 41.5132 171.357 40.9399C171.357 40.4732 171.397 39.9532 171.477 39.3799C171.57 38.8066 171.763 38.2732 172.057 37.7799C172.35 37.2732 172.777 36.8532 173.337 36.5199C173.91 36.1732 174.677 35.9999 175.637 35.9999C176.61 35.9999 177.383 36.1466 177.957 36.4399C178.543 36.7332 178.99 37.1199 179.297 37.5999C179.603 38.0666 179.803 38.5932 179.897 39.1799C180.003 39.7666 180.057 40.3532 180.057 40.9399ZM177.817 41.0799C177.817 40.5466 177.79 40.0866 177.737 39.6999C177.683 39.2999 177.577 38.9732 177.417 38.7199C177.257 38.4532 177.037 38.2532 176.757 38.1199C176.477 37.9866 176.11 37.9199 175.657 37.9199C175.23 37.9199 174.883 37.9866 174.617 38.1199C174.35 38.2532 174.137 38.4532 173.977 38.7199C173.83 38.9866 173.723 39.3199 173.657 39.7199C173.603 40.1066 173.577 40.5599 173.577 41.0799C173.577 41.6132 173.603 42.0799 173.657 42.4799C173.723 42.8666 173.83 43.1932 173.977 43.4599C174.123 43.7132 174.33 43.9066 174.597 44.0399C174.863 44.1732 175.21 44.2399 175.637 44.2399C176.09 44.2399 176.457 44.1799 176.737 44.0599C177.03 43.9266 177.257 43.7332 177.417 43.4799C177.577 43.2132 177.683 42.8799 177.737 42.4799C177.79 42.0799 177.817 41.6132 177.817 41.0799Z" fill="white"/>
<path d="M190.665 41.0399C190.665 41.8532 190.605 42.5799 190.485 43.2199C190.365 43.8599 190.152 44.3999 189.845 44.8399C189.552 45.2799 189.145 45.6132 188.625 45.8399C188.119 46.0666 187.472 46.1799 186.685 46.1799C186.352 46.1799 185.965 46.1466 185.525 46.0799C185.099 46.0132 184.652 45.8999 184.185 45.7399L184.165 45.7599V49.2799C184.165 49.3866 184.139 49.4799 184.085 49.5599C184.045 49.6399 183.945 49.6799 183.785 49.6799H182.365C182.205 49.6799 182.099 49.6466 182.045 49.5799C182.005 49.5132 181.985 49.4132 181.985 49.2799V36.5999C181.985 36.3332 182.112 36.1999 182.365 36.1999H183.785C183.932 36.1999 184.025 36.2399 184.065 36.3199C184.119 36.3866 184.145 36.4799 184.145 36.5999V37.1999L184.205 37.2399C184.379 37.1199 184.585 36.9932 184.825 36.8599C185.079 36.7132 185.345 36.5799 185.625 36.4599C185.905 36.3399 186.192 36.2399 186.485 36.1599C186.779 36.0799 187.072 36.0399 187.365 36.0399C188.019 36.0399 188.559 36.1599 188.985 36.3999C189.412 36.6399 189.745 36.9799 189.985 37.4199C190.239 37.8466 190.412 38.3666 190.505 38.9799C190.612 39.5932 190.665 40.2799 190.665 41.0399ZM188.405 41.0199C188.405 40.3799 188.372 39.8666 188.305 39.4799C188.252 39.0932 188.159 38.7932 188.025 38.5799C187.892 38.3666 187.725 38.2266 187.525 38.1599C187.339 38.0799 187.112 38.0399 186.845 38.0399C186.645 38.0399 186.419 38.0732 186.165 38.1399C185.912 38.2066 185.659 38.2866 185.405 38.3799C185.165 38.4599 184.932 38.5532 184.705 38.6599C184.492 38.7666 184.312 38.8599 184.165 38.9399V43.9399C184.619 44.0732 185.025 44.1666 185.385 44.2199C185.759 44.2599 186.119 44.2799 186.465 44.2799C186.825 44.2799 187.125 44.2332 187.365 44.1399C187.619 44.0332 187.819 43.8532 187.965 43.5999C188.125 43.3466 188.239 43.0132 188.305 42.5999C188.372 42.1732 188.405 41.6466 188.405 41.0199Z" fill="white"/>
<path d="M198.515 41.5399H196.075C195.568 41.5399 195.168 41.6599 194.875 41.8999C194.582 42.1266 194.435 42.5666 194.435 43.2199C194.435 43.6599 194.522 43.9666 194.695 44.1399C194.882 44.2999 195.208 44.3799 195.675 44.3799C195.888 44.3799 196.122 44.3532 196.375 44.2999C196.628 44.2466 196.882 44.1732 197.135 44.0799C197.388 43.9866 197.635 43.8866 197.875 43.7799C198.115 43.6599 198.328 43.5466 198.515 43.4399V41.5399ZM198.635 44.8599C198.128 45.2466 197.555 45.5599 196.915 45.7999C196.288 46.0399 195.635 46.1599 194.955 46.1599C194.422 46.1599 193.975 46.0932 193.615 45.9599C193.268 45.8132 192.988 45.6199 192.775 45.3799C192.575 45.1266 192.428 44.8266 192.335 44.4799C192.255 44.1332 192.215 43.7466 192.215 43.3199C192.202 42.1466 192.508 41.2999 193.135 40.7799C193.762 40.2466 194.708 39.9799 195.975 39.9799H198.535V39.4599C198.535 39.1666 198.502 38.9199 198.435 38.7199C198.382 38.5066 198.275 38.3332 198.115 38.1999C197.955 38.0666 197.742 37.9732 197.475 37.9199C197.208 37.8666 196.868 37.8399 196.455 37.8399C196.295 37.8399 196.095 37.8466 195.855 37.8599C195.628 37.8732 195.388 37.8866 195.135 37.8999C194.895 37.9132 194.648 37.9332 194.395 37.9599C194.155 37.9866 193.935 38.0066 193.735 38.0199C193.535 38.0466 193.395 38.0532 193.315 38.0399C193.248 38.0132 193.202 37.9266 193.175 37.7799L192.995 37.0399C192.968 36.9066 192.982 36.7999 193.035 36.7199C193.088 36.6266 193.228 36.5332 193.455 36.4399C193.668 36.3599 193.922 36.2932 194.215 36.2399C194.508 36.1866 194.808 36.1466 195.115 36.1199C195.422 36.0799 195.722 36.0532 196.015 36.0399C196.322 36.0132 196.595 35.9999 196.835 35.9999C197.702 35.9999 198.388 36.0866 198.895 36.2599C199.415 36.4332 199.808 36.6799 200.075 36.9999C200.342 37.3066 200.515 37.6866 200.595 38.1399C200.675 38.5932 200.715 39.0999 200.715 39.6599V43.5199C200.715 43.7199 200.722 43.8799 200.735 43.9999C200.762 44.1066 200.795 44.1932 200.835 44.2599C200.888 44.3132 200.962 44.3532 201.055 44.3799C201.148 44.4066 201.275 44.4266 201.435 44.4399C201.582 44.4532 201.682 44.4799 201.735 44.5199C201.788 44.5599 201.815 44.6332 201.815 44.7399V45.5799C201.815 45.8066 201.655 45.9466 201.335 45.9999C201.175 46.0266 201.015 46.0466 200.855 46.0599C200.695 46.0866 200.542 46.0999 200.395 46.0999C199.928 46.0999 199.548 46.0132 199.255 45.8399C198.975 45.6666 198.782 45.3466 198.675 44.8799L198.635 44.8599ZM195.015 34.8599C194.762 34.8599 194.562 34.8332 194.415 34.7799C194.268 34.7132 194.155 34.6266 194.075 34.5199C193.995 34.4132 193.942 34.2932 193.915 34.1599C193.902 34.0266 193.895 33.8866 193.895 33.7399C193.895 33.4332 193.962 33.1799 194.095 32.9799C194.242 32.7799 194.548 32.6799 195.015 32.6799C195.482 32.6799 195.782 32.7799 195.915 32.9799C196.048 33.1666 196.115 33.4199 196.115 33.7399C196.115 34.0466 196.048 34.3132 195.915 34.5399C195.782 34.7532 195.482 34.8599 195.015 34.8599ZM198.895 34.8599C198.415 34.8599 198.108 34.7466 197.975 34.5199C197.855 34.2932 197.795 34.0332 197.795 33.7399C197.795 33.4332 197.868 33.1799 198.015 32.9799C198.162 32.7799 198.455 32.6799 198.895 32.6799C199.362 32.6799 199.662 32.7799 199.795 32.9799C199.942 33.1666 200.015 33.4199 200.015 33.7399C200.015 34.0466 199.948 34.3132 199.815 34.5399C199.682 34.7532 199.375 34.8599 198.895 34.8599Z" fill="white"/>
<path d="M205.316 41.6999C205.329 42.2066 205.382 42.6266 205.476 42.9599C205.582 43.2932 205.736 43.5599 205.936 43.7599C206.136 43.9466 206.382 44.0799 206.676 44.1599C206.969 44.2399 207.322 44.2799 207.736 44.2799C208.096 44.2799 208.522 44.2532 209.016 44.1999C209.509 44.1466 209.949 44.0999 210.336 44.0599C210.522 44.0332 210.649 44.0399 210.716 44.0799C210.796 44.1066 210.849 44.2132 210.876 44.3999L210.996 45.0599C211.022 45.2066 211.016 45.3266 210.976 45.4199C210.949 45.5132 210.842 45.5999 210.656 45.6799C210.456 45.7599 210.222 45.8332 209.956 45.8999C209.689 45.9532 209.409 45.9999 209.116 46.0399C208.822 46.0799 208.529 46.1132 208.236 46.1399C207.942 46.1666 207.676 46.1799 207.436 46.1799C206.476 46.1799 205.709 46.0399 205.136 45.7599C204.562 45.4799 204.122 45.1066 203.816 44.6399C203.509 44.1732 203.302 43.6399 203.196 43.0399C203.102 42.4266 203.056 41.7932 203.056 41.1399C203.056 40.6599 203.096 40.1199 203.176 39.5199C203.256 38.9199 203.436 38.3599 203.716 37.8399C204.009 37.3199 204.436 36.8866 204.996 36.5399C205.569 36.1799 206.342 35.9999 207.316 35.9999C208.209 35.9999 208.929 36.1332 209.476 36.3999C210.036 36.6666 210.469 37.0132 210.776 37.4399C211.082 37.8532 211.289 38.3332 211.396 38.8799C211.516 39.4132 211.582 39.9466 211.596 40.4799C211.609 40.8399 211.549 41.1332 211.416 41.3599C211.282 41.5866 211.016 41.6999 210.616 41.6999H205.316ZM207.316 37.7999C206.942 37.7999 206.636 37.8532 206.396 37.9599C206.156 38.0666 205.956 38.2266 205.796 38.4399C205.649 38.6399 205.542 38.8932 205.476 39.1999C205.409 39.4932 205.362 39.8266 205.336 40.1999H209.296C209.296 39.8932 209.269 39.5999 209.216 39.3199C209.162 39.0266 209.062 38.7666 208.916 38.5399C208.782 38.3132 208.582 38.1332 208.316 37.9999C208.062 37.8666 207.729 37.7999 207.316 37.7999Z" fill="white"/>
<path d="M220.732 43.0599C220.732 43.6466 220.619 44.1399 220.392 44.5399C220.165 44.9266 219.859 45.2399 219.472 45.4799C219.099 45.7199 218.672 45.8932 218.192 45.9999C217.712 46.1066 217.212 46.1599 216.692 46.1599C216.185 46.1599 215.639 46.1199 215.052 46.0399C214.465 45.9732 213.979 45.8666 213.592 45.7199C213.392 45.6399 213.265 45.5532 213.212 45.4599C213.159 45.3532 213.145 45.2199 213.172 45.0599L213.312 44.3999C213.339 44.2399 213.392 44.1466 213.472 44.1199C213.552 44.0799 213.672 44.0732 213.832 44.0999C214.045 44.1399 214.279 44.1732 214.532 44.1999C214.799 44.2266 215.059 44.2532 215.312 44.2799C215.579 44.2932 215.825 44.3066 216.052 44.3199C216.292 44.3332 216.499 44.3399 216.672 44.3399C217.312 44.3399 217.772 44.2532 218.052 44.0799C218.332 43.8932 218.472 43.5999 218.472 43.1999C218.472 42.9732 218.445 42.7866 218.392 42.6399C218.352 42.4932 218.272 42.3732 218.152 42.2799C218.032 42.1866 217.865 42.1132 217.652 42.0599C217.452 41.9932 217.192 41.9399 216.872 41.8999C216.379 41.8332 215.912 41.7466 215.472 41.6399C215.032 41.5332 214.639 41.3799 214.292 41.1799C213.959 40.9666 213.692 40.6932 213.492 40.3599C213.292 40.0132 213.192 39.5666 213.192 39.0199C213.192 38.0332 213.539 37.2866 214.232 36.7799C214.925 36.2599 215.832 35.9999 216.952 35.9999C217.152 35.9999 217.385 36.0066 217.652 36.0199C217.919 36.0332 218.185 36.0599 218.452 36.0999C218.732 36.1399 219.005 36.1866 219.272 36.2399C219.539 36.2932 219.779 36.3599 219.992 36.4399C220.325 36.5732 220.465 36.7732 220.412 37.0399L220.252 37.7599C220.225 37.9066 220.172 37.9999 220.092 38.0399C220.025 38.0666 219.899 38.0666 219.712 38.0399C219.285 37.9866 218.819 37.9399 218.312 37.8999C217.805 37.8466 217.365 37.8199 216.992 37.8199C216.352 37.8199 215.925 37.9132 215.712 38.0999C215.512 38.2732 215.412 38.5532 215.412 38.9399C215.412 39.3266 215.539 39.5799 215.792 39.6999C216.059 39.8199 216.499 39.9266 217.112 40.0199C217.592 40.0866 218.045 40.1732 218.472 40.2799C218.912 40.3866 219.299 40.5466 219.632 40.7599C219.965 40.9732 220.232 41.2599 220.432 41.6199C220.632 41.9799 220.732 42.4599 220.732 43.0599Z" fill="white"/>
<path d="M230.032 45.0799C230.072 45.2266 230.072 45.3466 230.032 45.4399C229.992 45.5332 229.878 45.6199 229.692 45.6999C229.305 45.8599 228.825 45.9732 228.252 46.0399C227.678 46.1199 227.145 46.1599 226.652 46.1599C225.718 46.1599 224.965 46.0199 224.392 45.7399C223.832 45.4599 223.398 45.0866 223.092 44.6199C222.798 44.1532 222.605 43.6132 222.512 42.9999C222.418 42.3732 222.372 41.7199 222.372 41.0399C222.372 40.4266 222.418 39.8199 222.512 39.2199C222.618 38.6066 222.818 38.0666 223.112 37.5999C223.418 37.1199 223.852 36.7332 224.412 36.4399C224.985 36.1466 225.732 35.9999 226.652 35.9999C226.878 35.9999 227.125 36.0066 227.392 36.0199C227.672 36.0332 227.945 36.0599 228.212 36.0999C228.492 36.1399 228.758 36.1932 229.012 36.2599C229.278 36.3132 229.518 36.3866 229.732 36.4799C229.972 36.5866 230.072 36.7732 230.032 37.0399L229.892 37.8399C229.852 37.9866 229.785 38.0732 229.692 38.0999C229.598 38.1266 229.458 38.1332 229.272 38.1199C228.858 38.0799 228.432 38.0399 227.992 37.9999C227.565 37.9599 227.178 37.9399 226.832 37.9399C226.018 37.9399 225.452 38.1732 225.132 38.6399C224.812 39.1066 224.652 39.8932 224.652 40.9999C224.652 41.6266 224.685 42.1466 224.752 42.5599C224.832 42.9732 224.958 43.3066 225.132 43.5599C225.305 43.8132 225.525 43.9932 225.792 44.0999C226.072 44.1932 226.412 44.2399 226.812 44.2399C227.118 44.2399 227.518 44.2266 228.012 44.1999C228.518 44.1599 228.978 44.1132 229.392 44.0599C229.552 44.0332 229.672 44.0332 229.752 44.0599C229.832 44.0866 229.885 44.1866 229.912 44.3599L230.032 45.0799Z" fill="white"/>
<path d="M240.057 45.6199C240.057 45.8732 239.923 45.9999 239.657 45.9999H238.237C237.97 45.9999 237.837 45.8732 237.837 45.6199C237.837 44.6466 237.837 43.6866 237.837 42.7399C237.85 41.7799 237.857 40.8132 237.857 39.8399C237.857 39.2799 237.763 38.8332 237.577 38.4999C237.403 38.1532 237.017 37.9799 236.417 37.9799C236.217 37.9799 235.983 38.0199 235.717 38.0999C235.463 38.1666 235.203 38.2466 234.937 38.3399C234.683 38.4332 234.443 38.5332 234.217 38.6399C233.99 38.7466 233.81 38.8266 233.677 38.8799V45.6199C233.677 45.7399 233.65 45.8332 233.597 45.8999C233.543 45.9666 233.443 45.9999 233.297 45.9999H231.877C231.637 45.9999 231.517 45.8732 231.517 45.6199V32.2799C231.517 32.0266 231.637 31.8999 231.877 31.8999H233.297C233.563 31.8999 233.697 32.0266 233.697 32.2799V37.1199C233.87 37.0132 234.083 36.8999 234.337 36.7799C234.59 36.6466 234.863 36.5266 235.157 36.4199C235.45 36.2999 235.757 36.2066 236.077 36.1399C236.397 36.0599 236.71 36.0199 237.017 36.0199C237.71 36.0199 238.257 36.1266 238.657 36.3399C239.057 36.5399 239.357 36.8132 239.557 37.1599C239.77 37.5066 239.903 37.9132 239.957 38.3799C240.023 38.8332 240.057 39.3132 240.057 39.8199V45.6199Z" fill="white"/>
<path d="M145.62 59.12L147.14 57.16L150.5 53.02C150.593 52.9133 150.687 52.84 150.78 52.8C150.873 52.7466 151 52.72 151.16 52.72H152.98C153.127 52.72 153.213 52.76 153.24 52.84C153.28 52.92 153.253 53.0133 153.16 53.12L148.82 58.4L153.3 65.58C153.38 65.7133 153.393 65.82 153.34 65.9C153.287 65.9666 153.207 66 153.1 66H151.26C151.087 66 150.953 65.9666 150.86 65.9C150.78 65.8333 150.7 65.74 150.62 65.62L147.34 60.18L145.58 62.36V65.62C145.58 65.7266 145.553 65.82 145.5 65.9C145.46 65.9666 145.367 66 145.22 66H143.72C143.453 66 143.32 65.8733 143.32 65.62V53.12C143.32 52.8533 143.453 52.72 143.72 52.72H145.22C145.367 52.72 145.46 52.76 145.5 52.84C145.553 52.9066 145.58 53 145.58 53.12V59.12H145.62Z" fill="white"/>
<path d="M163.182 60.94C163.182 61.5133 163.142 62.1066 163.062 62.72C162.995 63.3333 162.815 63.9 162.522 64.42C162.228 64.9266 161.788 65.3466 161.202 65.68C160.615 66 159.802 66.16 158.762 66.16C157.762 66.16 156.975 66 156.402 65.68C155.828 65.3466 155.395 64.9266 155.102 64.42C154.822 63.9 154.648 63.3333 154.582 62.72C154.515 62.1066 154.482 61.5133 154.482 60.94C154.482 60.4733 154.522 59.9533 154.602 59.38C154.695 58.8066 154.888 58.2733 155.182 57.78C155.475 57.2733 155.902 56.8533 156.462 56.52C157.035 56.1733 157.802 56 158.762 56C159.735 56 160.508 56.1466 161.082 56.44C161.668 56.7333 162.115 57.12 162.422 57.6C162.728 58.0666 162.928 58.5933 163.022 59.18C163.128 59.7666 163.182 60.3533 163.182 60.94ZM160.942 61.08C160.942 60.5466 160.915 60.0866 160.862 59.7C160.808 59.3 160.702 58.9733 160.542 58.72C160.382 58.4533 160.162 58.2533 159.882 58.12C159.602 57.9866 159.235 57.92 158.782 57.92C158.355 57.92 158.008 57.9866 157.742 58.12C157.475 58.2533 157.262 58.4533 157.102 58.72C156.955 58.9866 156.848 59.32 156.782 59.72C156.728 60.1066 156.702 60.56 156.702 61.08C156.702 61.6133 156.728 62.08 156.782 62.48C156.848 62.8666 156.955 63.1933 157.102 63.46C157.248 63.7133 157.455 63.9066 157.722 64.04C157.988 64.1733 158.335 64.24 158.762 64.24C159.215 64.24 159.582 64.18 159.862 64.06C160.155 63.9266 160.382 63.7333 160.542 63.48C160.702 63.2133 160.808 62.88 160.862 62.48C160.915 62.08 160.942 61.6133 160.942 61.08Z" fill="white"/>
<path d="M179.47 65.62C179.47 65.74 179.444 65.8333 179.39 65.9C179.35 65.9666 179.257 66 179.11 66H177.67C177.417 66 177.29 65.8733 177.29 65.62V59.94C177.29 59.1933 177.19 58.6933 176.99 58.44C176.79 58.1733 176.437 58.04 175.93 58.04C175.744 58.04 175.53 58.0733 175.29 58.14C175.064 58.2066 174.83 58.2866 174.59 58.38C174.364 58.46 174.144 58.5533 173.93 58.66C173.717 58.7666 173.53 58.86 173.37 58.94C173.37 59.0466 173.37 59.1866 173.37 59.36C173.384 59.5333 173.39 59.7333 173.39 59.96V65.62C173.39 65.74 173.364 65.8333 173.31 65.9C173.257 65.9666 173.157 66 173.01 66H171.55C171.324 66 171.21 65.8733 171.21 65.62V59.84C171.21 59.2266 171.117 58.7733 170.93 58.48C170.744 58.1866 170.397 58.04 169.89 58.04C169.717 58.04 169.517 58.0666 169.29 58.12C169.077 58.1733 168.85 58.2466 168.61 58.34C168.384 58.4333 168.157 58.5333 167.93 58.64C167.704 58.7466 167.497 58.8466 167.31 58.94V65.62C167.31 65.8733 167.184 66 166.93 66H165.49C165.25 66 165.13 65.8733 165.13 65.62V56.6C165.13 56.3333 165.25 56.2 165.49 56.2H166.91C167.177 56.2 167.31 56.3333 167.31 56.6V57.18L167.33 57.2C167.53 57.0666 167.744 56.9333 167.97 56.8C168.197 56.6533 168.437 56.5266 168.69 56.42C168.957 56.3133 169.224 56.2266 169.49 56.16C169.757 56.08 170.03 56.0333 170.31 56.02C170.884 56.02 171.404 56.1133 171.87 56.3C172.35 56.4733 172.744 56.8466 173.05 57.42C173.557 57.0466 174.11 56.72 174.71 56.44C175.31 56.16 175.93 56.02 176.57 56.02C177.224 56.02 177.744 56.12 178.13 56.32C178.517 56.52 178.81 56.7933 179.01 57.14C179.21 57.4733 179.337 57.8666 179.39 58.32C179.444 58.7733 179.47 59.2466 179.47 59.74V65.62Z" fill="white"/>
<path d="M195.955 65.62C195.955 65.74 195.928 65.8333 195.875 65.9C195.835 65.9666 195.741 66 195.595 66H194.155C193.901 66 193.775 65.8733 193.775 65.62V59.94C193.775 59.1933 193.675 58.6933 193.475 58.44C193.275 58.1733 192.921 58.04 192.415 58.04C192.228 58.04 192.015 58.0733 191.775 58.14C191.548 58.2066 191.315 58.2866 191.075 58.38C190.848 58.46 190.628 58.5533 190.415 58.66C190.201 58.7666 190.015 58.86 189.855 58.94C189.855 59.0466 189.855 59.1866 189.855 59.36C189.868 59.5333 189.875 59.7333 189.875 59.96V65.62C189.875 65.74 189.848 65.8333 189.795 65.9C189.741 65.9666 189.641 66 189.495 66H188.035C187.808 66 187.695 65.8733 187.695 65.62V59.84C187.695 59.2266 187.601 58.7733 187.415 58.48C187.228 58.1866 186.881 58.04 186.375 58.04C186.201 58.04 186.001 58.0666 185.775 58.12C185.561 58.1733 185.335 58.2466 185.095 58.34C184.868 58.4333 184.641 58.5333 184.415 58.64C184.188 58.7466 183.981 58.8466 183.795 58.94V65.62C183.795 65.8733 183.668 66 183.415 66H181.975C181.735 66 181.615 65.8733 181.615 65.62V56.6C181.615 56.3333 181.735 56.2 181.975 56.2H183.395C183.661 56.2 183.795 56.3333 183.795 56.6V57.18L183.815 57.2C184.015 57.0666 184.228 56.9333 184.455 56.8C184.681 56.6533 184.921 56.5266 185.175 56.42C185.441 56.3133 185.708 56.2266 185.975 56.16C186.241 56.08 186.515 56.0333 186.795 56.02C187.368 56.02 187.888 56.1133 188.355 56.3C188.835 56.4733 189.228 56.8466 189.535 57.42C190.041 57.0466 190.595 56.72 191.195 56.44C191.795 56.16 192.415 56.02 193.055 56.02C193.708 56.02 194.228 56.12 194.615 56.32C195.001 56.52 195.295 56.7933 195.495 57.14C195.695 57.4733 195.821 57.8666 195.875 58.32C195.928 58.7733 195.955 59.2466 195.955 59.74V65.62Z" fill="white"/>
<path d="M200.699 53.6C200.699 53.76 200.686 53.9133 200.659 54.06C200.632 54.1933 200.572 54.3133 200.479 54.42C200.399 54.5266 200.279 54.6133 200.119 54.68C199.972 54.7333 199.772 54.76 199.519 54.76C199.252 54.76 199.039 54.7266 198.879 54.66C198.732 54.5933 198.619 54.5066 198.539 54.4C198.459 54.2933 198.406 54.1733 198.379 54.04C198.352 53.8933 198.339 53.7466 198.339 53.6C198.339 53.28 198.412 53.0133 198.559 52.8C198.719 52.5733 199.039 52.46 199.519 52.46C200.012 52.46 200.332 52.5666 200.479 52.78C200.626 52.98 200.699 53.2533 200.699 53.6ZM200.579 65.62C200.579 65.7266 200.552 65.82 200.499 65.9C200.459 65.9666 200.366 66 200.219 66H198.799C198.532 66 198.399 65.8733 198.399 65.62V56.58C198.399 56.3266 198.532 56.2 198.799 56.2H200.219C200.366 56.2 200.459 56.24 200.499 56.32C200.552 56.3866 200.579 56.4733 200.579 56.58V65.62Z" fill="white"/>
<path d="M210.381 63.06C210.381 63.6466 210.267 64.14 210.041 64.54C209.814 64.9266 209.507 65.24 209.121 65.48C208.747 65.72 208.321 65.8933 207.841 66C207.361 66.1066 206.861 66.16 206.341 66.16C205.834 66.16 205.287 66.12 204.701 66.04C204.114 65.9733 203.627 65.8666 203.241 65.72C203.041 65.64 202.914 65.5533 202.861 65.46C202.807 65.3533 202.794 65.22 202.821 65.06L202.961 64.4C202.987 64.24 203.041 64.1466 203.121 64.12C203.201 64.08 203.321 64.0733 203.481 64.1C203.694 64.14 203.927 64.1733 204.181 64.2C204.447 64.2266 204.707 64.2533 204.961 64.28C205.227 64.2933 205.474 64.3066 205.701 64.32C205.941 64.3333 206.147 64.34 206.321 64.34C206.961 64.34 207.421 64.2533 207.701 64.08C207.981 63.8933 208.121 63.6 208.121 63.2C208.121 62.9733 208.094 62.7866 208.041 62.64C208.001 62.4933 207.921 62.3733 207.801 62.28C207.681 62.1866 207.514 62.1133 207.301 62.06C207.101 61.9933 206.841 61.94 206.521 61.9C206.027 61.8333 205.561 61.7466 205.121 61.64C204.681 61.5333 204.287 61.38 203.941 61.18C203.607 60.9666 203.341 60.6933 203.141 60.36C202.941 60.0133 202.841 59.5666 202.841 59.02C202.841 58.0333 203.187 57.2866 203.881 56.78C204.574 56.26 205.481 56 206.601 56C206.801 56 207.034 56.0066 207.301 56.02C207.567 56.0333 207.834 56.06 208.101 56.1C208.381 56.14 208.654 56.1866 208.921 56.24C209.187 56.2933 209.427 56.36 209.641 56.44C209.974 56.5733 210.114 56.7733 210.061 57.04L209.901 57.76C209.874 57.9066 209.821 58 209.741 58.04C209.674 58.0666 209.547 58.0666 209.361 58.04C208.934 57.9866 208.467 57.94 207.961 57.9C207.454 57.8466 207.014 57.82 206.641 57.82C206.001 57.82 205.574 57.9133 205.361 58.1C205.161 58.2733 205.061 58.5533 205.061 58.94C205.061 59.3266 205.187 59.58 205.441 59.7C205.707 59.82 206.147 59.9266 206.761 60.02C207.241 60.0866 207.694 60.1733 208.121 60.28C208.561 60.3866 208.947 60.5466 209.281 60.76C209.614 60.9733 209.881 61.26 210.081 61.62C210.281 61.98 210.381 62.46 210.381 63.06Z" fill="white"/>
<path d="M219.56 63.06C219.56 63.6466 219.447 64.14 219.22 64.54C218.994 64.9266 218.687 65.24 218.3 65.48C217.927 65.72 217.5 65.8933 217.02 66C216.54 66.1066 216.04 66.16 215.52 66.16C215.014 66.16 214.467 66.12 213.88 66.04C213.294 65.9733 212.807 65.8666 212.42 65.72C212.22 65.64 212.094 65.5533 212.04 65.46C211.987 65.3533 211.974 65.22 212 65.06L212.14 64.4C212.167 64.24 212.22 64.1466 212.3 64.12C212.38 64.08 212.5 64.0733 212.66 64.1C212.874 64.14 213.107 64.1733 213.36 64.2C213.627 64.2266 213.887 64.2533 214.14 64.28C214.407 64.2933 214.654 64.3066 214.88 64.32C215.12 64.3333 215.327 64.34 215.5 64.34C216.14 64.34 216.6 64.2533 216.88 64.08C217.16 63.8933 217.3 63.6 217.3 63.2C217.3 62.9733 217.274 62.7866 217.22 62.64C217.18 62.4933 217.1 62.3733 216.98 62.28C216.86 62.1866 216.694 62.1133 216.48 62.06C216.28 61.9933 216.02 61.94 215.7 61.9C215.207 61.8333 214.74 61.7466 214.3 61.64C213.86 61.5333 213.467 61.38 213.12 61.18C212.787 60.9666 212.52 60.6933 212.32 60.36C212.12 60.0133 212.02 59.5666 212.02 59.02C212.02 58.0333 212.367 57.2866 213.06 56.78C213.754 56.26 214.66 56 215.78 56C215.98 56 216.214 56.0066 216.48 56.02C216.747 56.0333 217.014 56.06 217.28 56.1C217.56 56.14 217.834 56.1866 218.1 56.24C218.367 56.2933 218.607 56.36 218.82 56.44C219.154 56.5733 219.294 56.7733 219.24 57.04L219.08 57.76C219.054 57.9066 219 58 218.92 58.04C218.854 58.0666 218.727 58.0666 218.54 58.04C218.114 57.9866 217.647 57.94 217.14 57.9C216.634 57.8466 216.194 57.82 215.82 57.82C215.18 57.82 214.754 57.9133 214.54 58.1C214.34 58.2733 214.24 58.5533 214.24 58.94C214.24 59.3266 214.367 59.58 214.62 59.7C214.887 59.82 215.327 59.9266 215.94 60.02C216.42 60.0866 216.874 60.1733 217.3 60.28C217.74 60.3866 218.127 60.5466 218.46 60.76C218.794 60.9733 219.06 61.26 219.26 61.62C219.46 61.98 219.56 62.46 219.56 63.06Z" fill="white"/>
<path d="M224 53.6C224 53.76 223.987 53.9133 223.96 54.06C223.933 54.1933 223.873 54.3133 223.78 54.42C223.7 54.5266 223.58 54.6133 223.42 54.68C223.273 54.7333 223.073 54.76 222.82 54.76C222.553 54.76 222.34 54.7266 222.18 54.66C222.033 54.5933 221.92 54.5066 221.84 54.4C221.76 54.2933 221.707 54.1733 221.68 54.04C221.653 53.8933 221.64 53.7466 221.64 53.6C221.64 53.28 221.713 53.0133 221.86 52.8C222.02 52.5733 222.34 52.46 222.82 52.46C223.313 52.46 223.633 52.5666 223.78 52.78C223.927 52.98 224 53.2533 224 53.6ZM223.88 65.62C223.88 65.7266 223.853 65.82 223.8 65.9C223.76 65.9666 223.667 66 223.52 66H222.1C221.833 66 221.7 65.8733 221.7 65.62V56.58C221.7 56.3266 221.833 56.2 222.1 56.2H223.52C223.667 56.2 223.76 56.24 223.8 56.32C223.853 56.3866 223.88 56.4733 223.88 56.58V65.62Z" fill="white"/>
<path d="M234.861 60.94C234.861 61.5133 234.821 62.1066 234.741 62.72C234.675 63.3333 234.495 63.9 234.201 64.42C233.908 64.9266 233.468 65.3466 232.881 65.68C232.295 66 231.481 66.16 230.441 66.16C229.441 66.16 228.655 66 228.081 65.68C227.508 65.3466 227.075 64.9266 226.781 64.42C226.501 63.9 226.328 63.3333 226.261 62.72C226.195 62.1066 226.161 61.5133 226.161 60.94C226.161 60.4733 226.201 59.9533 226.281 59.38C226.375 58.8066 226.568 58.2733 226.861 57.78C227.155 57.2733 227.581 56.8533 228.141 56.52C228.715 56.1733 229.481 56 230.441 56C231.415 56 232.188 56.1466 232.761 56.44C233.348 56.7333 233.795 57.12 234.101 57.6C234.408 58.0666 234.608 58.5933 234.701 59.18C234.808 59.7666 234.861 60.3533 234.861 60.94ZM232.621 61.08C232.621 60.5466 232.595 60.0866 232.541 59.7C232.488 59.3 232.381 58.9733 232.221 58.72C232.061 58.4533 231.841 58.2533 231.561 58.12C231.281 57.9866 230.915 57.92 230.461 57.92C230.035 57.92 229.688 57.9866 229.421 58.12C229.155 58.2533 228.941 58.4533 228.781 58.72C228.635 58.9866 228.528 59.32 228.461 59.72C228.408 60.1066 228.381 60.56 228.381 61.08C228.381 61.6133 228.408 62.08 228.461 62.48C228.528 62.8666 228.635 63.1933 228.781 63.46C228.928 63.7133 229.135 63.9066 229.401 64.04C229.668 64.1733 230.015 64.24 230.441 64.24C230.895 64.24 231.261 64.18 231.541 64.06C231.835 63.9266 232.061 63.7333 232.221 63.48C232.381 63.2133 232.488 62.88 232.541 62.48C232.595 62.08 232.621 61.6133 232.621 61.08Z" fill="white"/>
<path d="M245.31 65.62C245.31 65.8733 245.183 66 244.93 66H243.51C243.363 66 243.263 65.9666 243.21 65.9C243.157 65.8333 243.13 65.74 243.13 65.62V65L243.09 64.98C242.89 65.1133 242.657 65.2533 242.39 65.4C242.137 65.5333 241.863 65.66 241.57 65.78C241.277 65.9 240.97 65.9933 240.65 66.06C240.343 66.14 240.037 66.18 239.73 66.18C239.05 66.18 238.51 66.0866 238.11 65.9C237.723 65.7133 237.43 65.4533 237.23 65.12C237.03 64.7866 236.903 64.3933 236.85 63.94C236.797 63.4866 236.77 63 236.77 62.48V56.6C236.77 56.3333 236.897 56.2 237.15 56.2H238.61C238.85 56.2 238.97 56.3333 238.97 56.6V62.22C238.97 62.5266 238.99 62.8 239.03 63.04C239.07 63.28 239.143 63.4866 239.25 63.66C239.357 63.82 239.503 63.9466 239.69 64.04C239.877 64.1333 240.123 64.18 240.43 64.18C240.643 64.18 240.877 64.1466 241.13 64.08C241.397 64.0133 241.657 63.9333 241.91 63.84C242.163 63.7333 242.397 63.6333 242.61 63.54C242.823 63.4333 242.997 63.3466 243.13 63.28V56.6C243.13 56.48 243.157 56.3866 243.21 56.32C243.263 56.24 243.363 56.2 243.51 56.2H244.93C245.183 56.2 245.31 56.3333 245.31 56.6V65.62Z" fill="white"/>
<path d="M255.915 65.62C255.915 65.74 255.888 65.8333 255.835 65.9C255.782 65.9666 255.682 66 255.535 66H254.095C253.842 66 253.715 65.8733 253.715 65.62L253.735 60C253.735 59.4133 253.635 58.94 253.435 58.58C253.248 58.22 252.868 58.04 252.295 58.04C252.095 58.04 251.862 58.0733 251.595 58.14C251.342 58.2066 251.082 58.2933 250.815 58.4C250.562 58.4933 250.322 58.5933 250.095 58.7C249.868 58.7933 249.688 58.8733 249.555 58.94V65.62C249.555 65.8733 249.428 66 249.175 66H247.755C247.502 66 247.375 65.8733 247.375 65.62V56.6C247.375 56.3333 247.502 56.2 247.755 56.2H249.175C249.428 56.2 249.555 56.3333 249.555 56.6V57.2C249.568 57.2 249.575 57.2066 249.575 57.22C249.588 57.22 249.602 57.22 249.615 57.22C249.802 57.0866 250.022 56.9533 250.275 56.82C250.542 56.6733 250.822 56.54 251.115 56.42C251.408 56.3 251.715 56.2066 252.035 56.14C252.355 56.06 252.668 56.02 252.975 56.02C253.655 56.02 254.188 56.1266 254.575 56.34C254.962 56.54 255.255 56.8133 255.455 57.16C255.655 57.5066 255.782 57.9133 255.835 58.38C255.888 58.8333 255.915 59.3133 255.915 59.82V65.62Z" fill="white"/>
<path fill-rule="evenodd" clip-rule="evenodd" d="M265 66.7H268.3V28H265V66.7Z" fill="white"/>
</svg>
