<svg
  width="290"
  height="72"
  viewBox="0 0 290 72"
  fill="none"
  xmlns="http://www.w3.org/2000/svg"
>
<path
    d="M29.0595 64.8961H84.7641L84.759 28.8354L29.0544 28.8405L29.0595 64.8961Z"
    fill="#003399"
  />
<path
    d="M57.4401 33.3809H59.4717L57.8331 34.6449L58.4712 36.6472L56.8429 35.4135L55.2146 36.6472L55.8526 34.6449L54.2039 33.3809H56.2303L56.8429 31.4292L57.4401 33.3809Z"
    fill="#FFED00"
  />
<path
    d="M57.5115 59.1573H59.5431L57.9097 60.3759L58.5426 62.3023L56.9143 61.1141L55.286 62.3023L55.9292 60.3759L54.2753 59.1573H56.3018L56.9143 57.2815L57.5115 59.1573Z"
    fill="#FFED00"
  />
<path
    d="M63.9482 57.4534H65.9849L64.3464 58.6669L64.9844 60.5933L63.351 59.4051L61.7227 60.5933L62.3659 58.6669L60.712 57.4534H62.7385L63.351 55.5725L63.9482 57.4534Z"
    fill="#FFED00"
  />
<path
    d="M63.9482 35.1H65.9849L64.3464 36.3185L64.9844 38.2449L63.351 37.0567L61.7227 38.2449L62.3659 36.3185L60.712 35.1H62.7385L63.351 33.2241L63.9482 35.1Z"
    fill="#FFED00"
  />
<path
    d="M68.7311 39.8377H70.7575L69.1241 41.0512L69.7571 42.9776L68.1288 41.7894L66.5005 42.9776L67.1436 41.0512L65.4898 39.8377H67.5162L68.1288 37.9568L68.7311 39.8377Z"
    fill="#FFED00"
  />
<path
    d="M68.7311 52.7815H70.7575L69.1241 54L69.7571 55.9264L68.1288 54.7382L66.5005 55.9264L67.1436 54L65.4898 52.7815H67.5162L68.1288 50.9056L68.7311 52.7815Z"
    fill="#FFED00"
  />
<path
    d="M70.5176 46.2085H72.5543L70.9158 47.427L71.5487 49.3534L69.9204 48.1652L68.2921 49.3534L68.9353 47.427L67.2814 46.2085H69.3079L69.9204 44.3326L70.5176 46.2085Z"
    fill="#FFED00"
  />
<path
    d="M50.8809 35.1203H52.9074L51.274 36.3338L51.9069 38.2602L50.2786 37.072L48.6503 38.2602L49.2934 36.3338L47.6447 35.1203H49.6661L50.2786 33.2394L50.8809 35.1203Z"
    fill="#FFED00"
  />
<path
    d="M46.2308 39.8527H48.2674L46.6289 41.0662L47.2619 42.9926L45.6336 41.8044L44.0052 42.9926L44.6484 41.0662L42.9946 39.8527H45.021L45.6336 37.9718L46.2308 39.8527Z"
    fill="#FFED00"
  />
<path
    d="M44.5055 46.2287H46.537L44.9036 47.4422L45.5366 49.3686L43.9083 48.1854L42.28 49.3686L42.9231 47.4422L41.2744 46.2287H43.2957L43.9083 44.3478L44.5055 46.2287Z"
    fill="#FFED00"
  />
<path
    d="M46.2308 52.7966H48.2674L46.6289 54.0152L47.2619 55.9416L45.6336 54.7534L44.0052 55.9416L44.6484 54.0152L42.9946 52.7966H45.021L45.6336 50.9208L46.2308 52.7966Z"
    fill="#FFED00"
  />
<path
    d="M50.9473 57.4685H52.9737L51.3403 58.682L51.9733 60.6084L50.3449 59.4202L48.7166 60.6084L49.3598 58.682L47.7111 57.4685H49.7324L50.3449 55.5876L50.9473 57.4685Z"
    fill="#FFED00"
  />
<path
    d="M94.9372 0.00505726C94.9372 0.00505726 106.917 18.9101 109.112 22.3736C111.302 25.8371 113.808 28.5826 122.675 30.4433C131.541 32.304 135.4 33.1837 135.4 33.1837V33.8562C135.4 33.8562 129.765 32.668 122.516 31.0652C115.268 29.4624 112.302 28.9214 109 24.3657C106.249 20.5736 94.9372 3.61517 94.9372 3.61517V0V0.00505726Z"
    fill="white"
  />
<path
    d="M94.9372 21.5949C94.9372 21.5949 105.845 32.9157 109 36.1668C112.348 39.6151 116.631 40.8893 122.573 41.941C128.244 42.9421 135.395 44.1 135.395 44.1V44.7371C135.395 44.7371 128.677 43.6449 122.573 42.6135C116.585 41.5972 112.394 41.0309 108.964 37.9011C105.891 35.1 94.9372 24.9219 94.9372 24.9219V21.5898V21.5949Z"
    fill="white"
  />
<path
    d="M94.9372 26.6966C94.9372 26.6966 105.309 36.2376 109 39.4988C112.394 42.4972 115.146 43.4325 122.608 44.7421C130.071 46.0517 135.395 46.8657 135.395 46.8657V47.5382C135.395 47.5382 128.642 46.441 122.573 45.4803C116.503 44.5247 112.634 44.1455 109 41.2281C104.809 37.8606 94.9372 29.8112 94.9372 29.8112V26.6915V26.6966Z"
    fill="white"
  />
<path
    d="M94.9372 32.1321C94.9372 32.1321 106.785 41.4456 109 43.0737C111.215 44.7018 114.145 46.6029 122.644 47.8214C131.071 49.0298 135.395 49.6265 135.395 49.6265V50.3343C135.395 50.3343 127.754 49.2371 122.644 48.6001C117.535 47.963 113.619 47.69 109.036 44.6664C104.574 41.7237 94.9372 35.004 94.9372 35.004V32.1321Z"
    fill="white"
  />
<path
    d="M94.9372 37.3601C94.9372 37.3601 106.82 45.1972 109.071 46.441C111.322 47.6798 113.967 49.7022 122.644 50.7994C131.322 51.8966 135.395 52.3921 135.395 52.3921V53.0646C135.395 53.0646 128.218 52.286 122.608 51.6843C117.004 51.0826 113.18 50.2685 109 47.9983C104.819 45.7331 94.9372 40.0095 94.9372 40.0095V37.3601Z"
    fill="white"
  />
<path
    d="M94.9372 42.5883C94.9372 42.5883 105.442 48.2512 109 50.0158C112.966 51.9878 116.396 52.9333 122.608 53.6664C128.708 54.3844 135.395 55.0821 135.395 55.0821V55.7192C135.395 55.7192 129.213 55.0619 122.608 54.4451C116.059 53.8282 113.727 53.5451 109 51.467C104.773 49.6063 94.9372 45.0658 94.9372 45.0658V42.5833V42.5883Z"
    fill="white"
  />
<path
    d="M94.9372 47.8871C94.9372 47.8871 103.237 51.4062 109.071 53.7017C114.809 55.9568 119.193 56.1489 122.68 56.5382C124.216 56.7101 135.395 57.8478 135.395 57.8478V58.4848C135.395 58.4848 128.718 57.9539 122.644 57.423C116.57 56.8921 113.951 56.6646 109.036 55.0517C104.059 53.4135 94.9372 50.2635 94.9372 50.2635V47.8921V47.8871Z"
    fill="white"
  />
<path
    d="M94.9372 53.2921C94.9372 53.2921 103.319 55.8657 109.036 57.3522C114.753 58.8387 120 59.4455 122.644 59.6174C125.288 59.7944 135.4 60.6084 135.4 60.6084V61.2101C135.4 61.2101 129.647 60.8208 122.608 60.3253C116.917 59.9258 112.348 59.5011 109 58.768C105.294 57.959 94.9372 55.5219 94.9372 55.5219V53.2921Z"
    fill="white"
  />
<path
    d="M94.9372 58.6062C94.9372 58.6062 101.792 59.7792 109.036 60.9674C114.467 61.8573 121.822 62.4186 122.608 62.454C123.394 62.4893 135.395 63.3034 135.395 63.3034V63.9405C135.395 63.9405 127.713 63.5461 122.608 63.268C117.29 62.9747 112.001 62.6562 109 62.3478C102.272 61.6551 94.9372 60.7349 94.9372 60.7349V58.6062Z"
    fill="white"
  />
<path
    d="M94.9372 64.1074C94.9372 64.1074 105.748 64.5119 109.036 64.5827C112.323 64.6535 135.395 65.5737 135.395 65.5737V66.1956H94.9372V64.1074Z"
    fill="white"
  />
<path
    d="M122.603 33.3657C112.818 31.2775 110.603 27.7332 108.959 25.5388C107.315 23.3393 94.9321 5.41516 94.9321 5.41516V8.71179C95.4222 9.34382 106.019 23.8348 108.995 27.627C112.348 31.8994 117.601 32.8702 122.603 33.932C127.6 34.9938 135.395 36.4753 135.395 36.4753V35.909C135.395 35.909 125.135 33.9017 122.603 33.3657Z"
    fill="white"
  />
<path
    d="M122.603 36.2022C114.569 34.6449 111.317 32.127 108.959 29.0831C106.601 26.0343 94.9321 10.446 94.9321 10.446V14.2786C95.4222 14.85 106.096 27.7534 108.959 30.9994C112.297 34.7865 116.958 35.7826 122.603 36.809C128.249 37.8354 135.39 39.1803 135.39 39.1803V38.614C135.39 38.614 127.238 37.1022 122.603 36.2073V36.2022Z"
    fill="white"
  />
<path
    d="M122.603 39.1399C114.247 37.5321 112.532 36.2124 108.995 32.3748C106.769 29.963 95.4119 16.6804 94.9321 16.1191V19.6585C94.9321 19.6585 105.544 30.8731 108.959 34.1849C113.436 38.5332 117.637 38.8619 122.603 39.7467C127.57 40.6315 135.39 42.0473 135.39 42.0473V41.4456C135.39 41.4456 125.947 39.7871 122.603 39.145V39.1399Z"
    fill="white"
  />
<path
    d="M0.00510552 27.7787C0.00510552 27.7787 27.6711 24.8562 35.4196 23.7792C47.6702 22.0803 57.6953 20.2702 66.9701 6.18875C66.9701 6.18875 66.9803 5.38987 66.9701 5.03088C61.2889 13.591 53.4536 19.4309 42.6628 21.1247C32.1222 22.7831 0 25.2051 0 25.2051V27.7787H0.00510552Z"
    fill="white"
  />
<path
    d="M0.00511169 24.2848C0.00511169 24.2848 25.6446 21.1045 34.0925 19.9314C47.4559 18.0809 56.8531 16.4174 66.9701 1.05669C66.9701 1.05669 66.9752 0.394331 66.9701 0.00500488C60.7733 9.34378 53.1218 15.3758 41.351 17.2264C29.8507 19.0365 0.00511169 21.6758 0.00511169 21.6758V24.2899V24.2848Z"
    fill="white"
  />
<path d="M26.1806 64.1326H0.020462V66.1854H26.1806V64.1326Z" fill="white" />
<path
    d="M66.9701 22.5708C66.9701 22.5708 66.9854 21.3624 66.9803 21.1045C65.7501 22.9601 64.132 24.6438 62.2638 26.1253H64.0963C65.1274 25.0736 66.0921 23.8955 66.965 22.5708H66.9701Z"
    fill="white"
  />
<path
    d="M66.9701 17.1102C66.9701 17.1102 66.9803 16.0383 66.9752 15.745C64.0095 20.2147 59.5942 23.7843 54.4897 26.1506L57.5014 26.1405C60.9826 24.1332 64.2188 21.2815 66.965 17.1102H66.9701Z"
    fill="white"
  />
<path
    d="M66.9701 11.6494C66.9701 11.6494 66.9803 10.714 66.9701 10.3904C61.8095 18.1718 53.7853 23.496 43.9746 25.0381C41.6521 25.4022 37.8697 25.8067 33.4748 26.2162L45.4549 26.1758C53.3617 24.4314 60.7631 21.0589 66.9599 11.6494H66.9701Z"
    fill="white"
  />
<path
    d="M26.1857 60.6742C12.8377 60.745 0.020462 60.8006 0.020462 60.8006V62.9394C0.020462 62.9394 13.4451 62.8433 26.1857 62.7371V60.6742Z"
    fill="white"
  />
<path
    d="M26.1857 57.0034C12.9295 57.15 0.0153351 57.2613 0.0153351 57.2613V59.4456C0.0153351 59.4456 13.5778 59.2686 26.1857 59.0714V57.0034Z"
    fill="white"
  />
<path
    d="M26.1806 53.3225C13.0214 53.55 0.0153351 53.722 0.0153351 53.722V55.9517C0.0153351 55.9517 13.7207 55.6837 26.1806 55.3905V53.3225Z"
    fill="white"
  />
<path
    d="M26.1857 49.6214C13.1235 49.9399 0.0153351 50.1776 0.0153351 50.1776V52.4478C0.0153351 52.4478 13.879 52.0736 26.1857 51.6843V49.6163V49.6214Z"
    fill="white"
  />
<path
    d="M26.1908 45.9102C13.2256 46.3197 0.0153351 46.6433 0.0153351 46.6433V48.959C0.0153351 48.959 14.0474 48.4736 26.1908 47.9781V45.9152V45.9102Z"
    fill="white"
  />
<path
    d="M26.1857 42.1838C13.3226 42.6995 0.0153351 43.104 0.0153351 43.104V45.4602C0.0153351 45.4602 14.2209 44.8433 26.1857 44.2315V42.1787V42.1838Z"
    fill="white"
  />
<path
    d="M26.1908 38.432C13.4247 39.059 0.0102234 39.5595 0.0102234 39.5595V41.9612C0.0102234 41.9612 14.4047 41.1977 26.1908 40.4646V38.432Z"
    fill="white"
  />
<path
    d="M26.1908 34.6602C13.5216 35.4085 0.0102234 36.0203 0.0102234 36.0203V38.4624C0.0102234 38.4624 14.5987 37.5321 26.1908 36.6725V34.6602Z"
    fill="white"
  />
<path
    d="M26.1908 30.868C13.6084 31.7478 0.0102234 32.486 0.0102234 32.486V34.9737C0.0102234 34.9737 14.7926 33.8512 26.1908 32.8602V30.8731V30.868Z"
    fill="white"
  />
<path
    d="M26.1908 27.0404C13.685 28.0668 0.00511169 28.9415 0.00511169 28.9415V31.4696C0.00511169 31.4696 14.9866 30.1247 26.1908 28.9921V27.0404Z"
    fill="white"
  />
<path
    d="M86.0759 66.1906V27.5461H27.7528V66.1906H86.0759ZM84.759 28.8355V64.8962H29.0544V28.8405H84.759V28.8355Z"
    fill="white"
  />
<path d="M232.433 66.2952V27.541H229.124V66.2952H232.433Z" fill="white" />
<path
    d="M144.415 33.5803C144.415 33.3316 144.531 33.1946 144.8 33.1946H151.895C152.129 33.1946 152.261 33.3316 152.261 33.56V34.7577C152.261 34.9912 152.164 35.1029 151.875 35.1029H146.612V38.422H151.276C151.525 38.422 151.662 38.5388 151.662 38.7671V39.9649C151.662 40.1983 151.565 40.31 151.276 40.31H146.612V44.1062H152.012C152.24 44.1062 152.357 44.223 152.357 44.4716V45.6491C152.357 45.8978 152.261 45.9942 151.992 45.9942H144.8C144.531 45.9942 144.415 45.8775 144.415 45.6491V33.5752V33.5803Z"
    fill="white"
  />
<path
    d="M162.076 45.9944H160.706C160.417 45.9944 160.34 45.8574 160.34 45.629V45.0301L160.3 45.0098C159.549 45.5326 158.234 46.167 157.062 46.167C154.458 46.167 154.21 44.6241 154.21 42.5991V36.9301C154.21 36.6967 154.306 36.5444 154.575 36.5444H155.981C156.23 36.5444 156.326 36.6815 156.326 36.9301V42.3504C156.326 43.5076 156.559 44.2384 157.732 44.2384C158.559 44.2384 159.833 43.6192 160.335 43.3706V36.9301C160.335 36.6967 160.411 36.5444 160.701 36.5444H162.071C162.34 36.5444 162.436 36.6815 162.436 36.9301V45.629C162.436 45.8777 162.34 45.9944 162.071 45.9944H162.076Z"
    fill="white"
  />
<path
    d="M166.979 45.629C166.979 45.8625 166.882 45.9944 166.613 45.9944H165.223C164.954 45.9944 164.857 45.8777 164.857 45.629V36.9301C164.857 36.6814 164.954 36.5444 165.223 36.5444H166.593C166.882 36.5444 166.979 36.6967 166.979 36.9301V37.7777L167.019 37.8183C167.598 37.2803 168.968 36.6205 169.872 36.448C170.12 36.3922 170.298 36.448 170.334 36.7779L170.471 38.072C170.491 38.341 170.511 38.4578 170.105 38.5339C169.024 38.747 167.654 39.1328 166.979 39.422V45.629Z"
    fill="white"
  />
<path
    d="M175.464 46.1518C171.587 46.1518 171.338 43.3198 171.338 41.1172C171.338 39.3054 171.744 36.3567 175.464 36.3567C179.185 36.3567 179.728 38.8435 179.728 41.1172C179.728 43.3909 179.459 46.1518 175.464 46.1518ZM175.485 38.2091C173.845 38.2091 173.48 39.2495 173.48 41.2542C173.48 43.2589 173.845 44.2993 175.464 44.2993C177.22 44.2993 177.566 43.3147 177.566 41.2542C177.566 39.1937 177.236 38.2091 175.485 38.2091ZM177.972 32.327C178.185 32.4437 178.164 32.5959 178.048 32.7533L176.079 35.4533C175.982 35.5903 175.886 35.6461 175.713 35.57L174.962 35.2249C174.825 35.1488 174.769 35.0523 174.866 34.8595L176.408 31.8702C176.505 31.6773 176.657 31.6773 176.835 31.7535L177.972 32.332V32.327Z"
    fill="white"
  />
<path
    d="M186.107 46.1722C185.473 46.1722 184.584 46.0554 183.696 45.7458L183.676 45.7661V49.1614C183.676 49.3746 183.62 49.5471 183.311 49.5471H181.94C181.631 49.5471 181.575 49.4101 181.575 49.1614V36.9353C181.575 36.6866 181.671 36.5496 181.94 36.5496H183.311C183.58 36.5496 183.656 36.7019 183.656 36.9353V37.5139L183.712 37.5545C184.407 37.0723 185.64 36.3973 186.757 36.3973C189.284 36.3973 189.939 38.3056 189.939 41.2188C189.939 44.3603 189.147 46.1722 186.102 46.1722H186.107ZM186.259 38.3259C185.468 38.3259 184.255 38.8842 183.676 39.1938V44.0152C184.544 44.2639 185.239 44.3451 185.894 44.3451C187.284 44.3451 187.767 43.6295 187.767 41.2035C187.767 38.7776 187.284 38.331 186.264 38.331L186.259 38.3259Z"
    fill="white"
  />
<path
    d="M197.623 44.898C196.659 45.6288 195.364 46.1516 194.075 46.1516C192.03 46.1516 191.431 45.035 191.431 43.4161C191.411 41.1576 192.629 40.1933 195.055 40.1933H197.521V39.6909C197.521 38.5337 197.1 38.1277 195.517 38.1277C194.882 38.1277 193.664 38.2241 192.893 38.3003C192.507 38.3561 192.411 38.3409 192.355 38.0668L192.182 37.3512C192.142 37.1025 192.203 36.9452 192.624 36.7726C193.451 36.4833 194.979 36.3463 195.882 36.3463C199.216 36.3463 199.622 37.7166 199.622 39.8736V43.5937C199.622 44.3854 199.719 44.4057 200.318 44.4818C200.607 44.5021 200.683 44.558 200.683 44.7711V45.5832C200.683 45.7963 200.546 45.9283 200.221 45.9892C199.912 46.045 199.602 46.0856 199.313 46.0856C198.404 46.0856 197.846 45.8166 197.653 44.9082L197.613 44.8879L197.623 44.898ZM197.506 41.6956H195.151C194.187 41.6956 193.568 42.0407 193.568 43.3145C193.568 44.1621 193.857 44.4311 194.766 44.4311C195.593 44.4311 196.77 43.9489 197.506 43.5226V41.6905V41.6956Z"
    fill="white"
  />
<path
    d="M203.429 35.1589C202.424 35.1589 202.292 34.6006 202.292 34.0424C202.292 33.4232 202.505 32.941 203.429 32.941C204.352 32.941 204.566 33.3826 204.566 34.0424C204.566 34.6412 204.393 35.1589 203.429 35.1589ZM204.449 45.629C204.449 45.8422 204.373 45.9944 204.104 45.9944H202.733C202.465 45.9944 202.348 45.8777 202.348 45.629V36.9149C202.348 36.6459 202.465 36.5495 202.733 36.5495H204.104C204.373 36.5495 204.449 36.7018 204.449 36.9149V45.629Z"
    fill="white"
  />
<path
    d="M149.718 66.2951H144.821C144.491 66.2951 144.394 66.1581 144.394 65.9297V53.8762C144.394 53.6427 144.491 53.5107 144.78 53.5107H149.195C151.758 53.5107 153.073 54.8607 153.073 56.906C153.073 57.6369 152.784 58.9513 151.53 59.5502L151.55 59.5908C153.093 60.1136 153.438 61.6919 153.438 62.6562C153.438 64.9299 151.703 66.3002 149.718 66.3002V66.2951ZM148.871 55.3835H146.577V58.7382H149.084C150.068 58.7382 150.799 58.0226 150.799 57.0786C150.799 56.1346 150.221 55.3835 148.871 55.3835ZM149.18 60.5906H146.577V64.4072H149.18C150.743 64.4072 151.165 63.5393 151.165 62.5192C151.165 61.4991 150.566 60.5906 149.18 60.5906Z"
    fill="white"
  />
<path
    d="M156.717 55.4597C155.712 55.4597 155.58 54.9014 155.58 54.3431C155.58 53.724 155.793 53.2418 156.717 53.2418C157.64 53.2418 157.853 53.6834 157.853 54.3431C157.853 54.942 157.681 55.4597 156.717 55.4597ZM157.737 65.9298C157.737 66.1429 157.661 66.2952 157.392 66.2952H156.021C155.752 66.2952 155.636 66.1785 155.636 65.9298V57.2157C155.636 56.9467 155.752 56.8503 156.021 56.8503H157.392C157.661 56.8503 157.737 57.0025 157.737 57.2157V65.9298Z"
    fill="white"
  />
<path
    d="M166.725 64.5036C166.994 64.5036 167.111 64.6 167.111 64.8487V65.9297C167.111 66.1784 166.994 66.2951 166.745 66.2951H160.016C159.767 66.2951 159.686 66.1987 159.686 65.9653V65.1177C159.686 64.9045 159.706 64.7117 159.899 64.4833L164.528 58.6012H160.325C160.056 58.6012 159.96 58.5047 159.96 58.2357V57.1953C159.96 56.9466 160.056 56.8502 160.325 56.8502H166.649C166.898 56.8502 167.014 56.906 167.014 57.1801V58.1241C167.014 58.3575 166.959 58.5504 166.781 58.7585L162.269 64.5036H166.725Z"
    fill="white"
  />
<path
    d="M172.744 66.4526C168.867 66.4526 168.618 63.6206 168.618 61.418C168.618 59.6062 169.024 56.6575 172.744 56.6575C176.464 56.6575 177.007 59.1443 177.007 61.418C177.007 63.6917 176.738 66.4526 172.744 66.4526ZM172.764 58.5099C171.125 58.5099 170.76 59.5503 170.76 61.555C170.76 63.5597 171.125 64.6001 172.744 64.6001C174.5 64.6001 174.845 63.6156 174.845 61.555C174.845 59.4945 174.515 58.5099 172.764 58.5099Z"
    fill="white"
  />
<path
    d="M184.778 65.5644C184.818 65.813 184.722 65.9501 184.529 66.0465C183.854 66.3358 182.621 66.4525 182.022 66.4525C179.763 66.4525 179.652 65.0467 179.652 63.3871V58.5454H178.687C178.398 58.5454 178.322 58.4286 178.322 58.18V57.236C178.322 56.9873 178.398 56.8503 178.687 56.8503H179.672V54.8659C179.672 54.5969 179.824 54.5005 180.037 54.4396L181.332 54.0944C181.565 54.0386 181.717 54.0741 181.717 54.3279V56.8553H183.783C184.092 56.8553 184.148 56.9924 184.148 57.2208V58.185C184.148 58.4337 184.092 58.5505 183.783 58.5505H181.717V63.3516C181.717 64.3717 181.986 64.4123 183.011 64.4123C183.28 64.4123 183.92 64.3717 184.306 64.3362C184.519 64.3159 184.615 64.3768 184.651 64.6052L184.788 65.5694L184.778 65.5644Z"
    fill="white"
  />
<path
    d="M191.74 65.5644C191.781 65.813 191.685 65.9501 191.492 66.0465C190.817 66.3358 189.584 66.4525 188.985 66.4525C186.726 66.4525 186.615 65.0467 186.615 63.3871V58.5454H185.65C185.361 58.5454 185.285 58.4286 185.285 58.18V57.236C185.285 56.9873 185.361 56.8503 185.65 56.8503H186.635V54.8659C186.635 54.5969 186.787 54.5005 187 54.4396L188.294 54.0944C188.528 54.0386 188.68 54.0741 188.68 54.3279V56.8553H190.746C191.055 56.8553 191.111 56.9924 191.111 57.2208V58.185C191.111 58.4337 191.055 58.5505 190.746 58.5505H188.68V63.3516C188.68 64.3717 188.949 64.4123 189.974 64.4123C190.243 64.4123 190.883 64.3717 191.268 64.3362C191.482 64.3159 191.578 64.3768 191.614 64.6052L191.751 65.5694L191.74 65.5644Z"
    fill="white"
  />
<path
    d="M195.983 66.4526C195.019 66.4526 193.725 66.3156 192.994 66.0263C192.608 65.874 192.532 65.6964 192.588 65.3919L192.725 64.7575C192.781 64.4479 192.918 64.4276 193.228 64.4682C194.075 64.6052 195.308 64.7016 195.968 64.7016C197.202 64.7016 197.704 64.3718 197.704 63.6003C197.704 62.7122 197.374 62.5193 196.161 62.3468C194.273 62.0778 192.614 61.6718 192.614 59.5706C192.614 57.6624 194.08 56.6575 196.237 56.6575C197.029 56.6575 198.359 56.7742 199.171 57.0838C199.501 57.2208 199.633 57.3731 199.577 57.6624L199.424 58.3577C199.369 58.6266 199.252 58.6672 198.902 58.6266C198.074 58.5302 196.993 58.4135 196.278 58.4135C195.045 58.4135 194.755 58.7586 194.755 59.4945C194.755 60.2304 195.217 60.3421 196.395 60.5349C198.227 60.8039 199.886 61.1693 199.886 63.4684C199.886 65.7674 197.978 66.4577 195.994 66.4577L195.983 66.4526Z"
    fill="white"
  />
<path
    d="M207.631 65.1989C206.667 65.9298 205.373 66.4525 204.083 66.4525C202.038 66.4525 201.439 65.336 201.439 63.717C201.419 61.4585 202.637 60.4942 205.063 60.4942H207.529V59.9918C207.529 58.8347 207.103 58.4286 205.525 58.4286C204.89 58.4286 203.672 58.5251 202.901 58.6012C202.515 58.657 202.419 58.6418 202.363 58.3677L202.19 57.6521C202.15 57.4034 202.211 57.2461 202.632 57.0736C203.459 56.7843 204.987 56.6472 205.89 56.6472C209.225 56.6472 209.631 58.0175 209.631 60.1745V63.8946C209.631 64.6863 209.727 64.7066 210.326 64.7828C210.615 64.8031 210.691 64.8589 210.691 65.0721V65.8841C210.691 66.0972 210.554 66.2292 210.23 66.2901C209.92 66.3459 209.61 66.3865 209.321 66.3865C208.413 66.3865 207.854 66.1175 207.661 65.2091L207.621 65.1888L207.631 65.1989ZM207.514 61.9965H205.159C204.195 61.9965 203.576 62.3416 203.576 63.6155C203.576 64.463 203.865 64.732 204.774 64.732C205.601 64.732 206.778 64.2499 207.514 63.8236V61.9914V61.9965ZM208.382 52.6226C208.595 52.7393 208.575 52.8916 208.458 53.0489L206.494 55.7489C206.398 55.886 206.301 55.9418 206.129 55.8657L205.378 55.5206C205.241 55.4444 205.185 55.348 205.281 55.1551L206.824 52.1659C206.92 51.973 207.073 51.973 207.25 52.0491L208.387 52.6277L208.382 52.6226Z"
    fill="white"
  />
<path
    d="M219.801 57.1599C220.263 57.3122 220.324 57.6826 220.324 58.0278V66.1836C220.324 68.4014 219.938 70.061 216.254 70.061C215.249 70.061 213.939 69.9443 213.148 69.6195C212.742 69.4672 212.721 69.2744 212.762 69.0612L212.914 68.3456C212.97 68.036 213.107 68.0157 213.472 68.0766C214.34 68.2137 215.381 68.2695 216.132 68.2695C217.771 68.2695 218.177 67.767 218.177 66.5744V65.94C217.193 66.2851 216.421 66.4018 215.807 66.4018C212.681 66.4018 211.93 64.4732 211.93 61.621C211.93 58.5962 212.853 56.6676 216.152 56.6676C217.365 56.6676 218.852 56.8605 219.796 57.17L219.801 57.1599ZM216.005 64.5443C216.563 64.5443 217.375 64.4479 218.182 64.2144V58.718C217.583 58.6215 216.873 58.5454 216.254 58.5454C215.056 58.5454 214.132 58.8905 214.132 61.4383C214.132 63.7881 214.655 64.5443 216.005 64.5443Z"
    fill="white"
  />
</svg>
