<svg
  width="290"
  height="72"
  viewBox="0 0 290 72"
  fill="none"
  xmlns="http://www.w3.org/2000/svg"
>
<path
    fill-rule="evenodd"
    clip-rule="evenodd"
    d="M226.4 66.7H229.7V28H226.4V66.7Z"
    fill="white"
  />
<path
    d="M144.394 39.7787C144.394 38.9254 144.461 38.0854 144.594 37.2587C144.728 36.4321 144.988 35.6987 145.374 35.0587C145.774 34.4054 146.321 33.8787 147.014 33.4787C147.721 33.0787 148.648 32.8787 149.794 32.8787C150.034 32.8787 150.308 32.8921 150.614 32.9187C150.934 32.9321 151.261 32.9654 151.594 33.0187C151.928 33.0587 152.254 33.1187 152.574 33.1987C152.894 33.2654 153.188 33.3521 153.454 33.4587C153.614 33.5254 153.721 33.6054 153.774 33.6987C153.841 33.7921 153.861 33.9187 153.834 34.0787L153.654 34.8987C153.628 35.0187 153.581 35.1054 153.514 35.1587C153.448 35.2121 153.321 35.2254 153.134 35.1987C152.641 35.1321 152.108 35.0721 151.534 35.0187C150.974 34.9654 150.434 34.9387 149.914 34.9387C149.234 34.9387 148.688 35.0654 148.274 35.3187C147.861 35.5721 147.541 35.9187 147.314 36.3587C147.101 36.7987 146.961 37.3121 146.894 37.8987C146.828 38.4721 146.794 39.0854 146.794 39.7387C146.794 40.3921 146.834 41.0054 146.914 41.5787C146.994 42.1521 147.148 42.6521 147.374 43.0787C147.601 43.4921 147.914 43.8187 148.314 44.0587C148.728 44.2987 149.261 44.4187 149.914 44.4187C150.501 44.4187 151.048 44.3921 151.554 44.3387C152.061 44.2854 152.588 44.2254 153.134 44.1587C153.321 44.1321 153.448 44.1454 153.514 44.1987C153.581 44.2521 153.634 44.3454 153.674 44.4787L153.834 45.2387C153.914 45.5321 153.801 45.7454 153.494 45.8787C153.254 45.9854 152.968 46.0787 152.634 46.1587C152.314 46.2254 151.981 46.2854 151.634 46.3387C151.301 46.3921 150.968 46.4254 150.634 46.4387C150.314 46.4654 150.034 46.4787 149.794 46.4787C148.674 46.4787 147.761 46.2921 147.054 45.9187C146.361 45.5321 145.814 45.0254 145.414 44.3987C145.028 43.7721 144.761 43.0587 144.614 42.2587C144.468 41.4587 144.394 40.6321 144.394 39.7787Z"
    fill="white"
  />
<path
    d="M163.965 41.2387C163.965 41.8121 163.925 42.4054 163.845 43.0187C163.778 43.6321 163.598 44.1987 163.305 44.7187C163.011 45.2254 162.571 45.6454 161.985 45.9787C161.398 46.2987 160.585 46.4587 159.545 46.4587C158.545 46.4587 157.758 46.2987 157.185 45.9787C156.611 45.6454 156.178 45.2254 155.885 44.7187C155.605 44.1987 155.431 43.6321 155.365 43.0187C155.298 42.4054 155.265 41.8121 155.265 41.2387C155.265 40.7721 155.305 40.2521 155.385 39.6787C155.478 39.1054 155.671 38.5721 155.965 38.0787C156.258 37.5721 156.685 37.1521 157.245 36.8187C157.818 36.4721 158.585 36.2987 159.545 36.2987C160.518 36.2987 161.291 36.4454 161.865 36.7387C162.451 37.0321 162.898 37.4187 163.205 37.8987C163.511 38.3654 163.711 38.8921 163.805 39.4787C163.911 40.0654 163.965 40.6521 163.965 41.2387ZM161.725 41.3787C161.725 40.8454 161.698 40.3854 161.645 39.9987C161.591 39.5987 161.485 39.2721 161.325 39.0187C161.165 38.7521 160.945 38.5521 160.665 38.4187C160.385 38.2854 160.018 38.2187 159.565 38.2187C159.138 38.2187 158.791 38.2854 158.525 38.4187C158.258 38.5521 158.045 38.7521 157.885 39.0187C157.738 39.2854 157.631 39.6187 157.565 40.0187C157.511 40.4054 157.485 40.8587 157.485 41.3787C157.485 41.9121 157.511 42.3787 157.565 42.7787C157.631 43.1654 157.738 43.4921 157.885 43.7587C158.031 44.0121 158.238 44.2054 158.505 44.3387C158.771 44.4721 159.118 44.5387 159.545 44.5387C159.998 44.5387 160.365 44.4787 160.645 44.3587C160.938 44.2254 161.165 44.0321 161.325 43.7787C161.485 43.5121 161.591 43.1787 161.645 42.7787C161.698 42.3787 161.725 41.9121 161.725 41.3787Z"
    fill="white"
  />
<path
    d="M180.253 45.9187C180.253 46.0387 180.227 46.1321 180.173 46.1987C180.133 46.2654 180.04 46.2987 179.893 46.2987H178.453C178.2 46.2987 178.073 46.1721 178.073 45.9187V40.2387C178.073 39.4921 177.973 38.9921 177.773 38.7387C177.573 38.4721 177.22 38.3387 176.713 38.3387C176.527 38.3387 176.313 38.3721 176.073 38.4387C175.847 38.5054 175.613 38.5854 175.373 38.6787C175.147 38.7587 174.927 38.8521 174.713 38.9587C174.5 39.0654 174.313 39.1587 174.153 39.2387C174.153 39.3454 174.153 39.4854 174.153 39.6587C174.167 39.8321 174.173 40.0321 174.173 40.2587V45.9187C174.173 46.0387 174.147 46.1321 174.093 46.1987C174.04 46.2654 173.94 46.2987 173.793 46.2987H172.333C172.107 46.2987 171.993 46.1721 171.993 45.9187V40.1387C171.993 39.5254 171.9 39.0721 171.713 38.7787C171.527 38.4854 171.18 38.3387 170.673 38.3387C170.5 38.3387 170.3 38.3654 170.073 38.4187C169.86 38.4721 169.633 38.5454 169.393 38.6387C169.167 38.7321 168.94 38.8321 168.713 38.9387C168.487 39.0454 168.28 39.1454 168.093 39.2387V45.9187C168.093 46.1721 167.967 46.2987 167.713 46.2987H166.273C166.033 46.2987 165.913 46.1721 165.913 45.9187V36.8987C165.913 36.6321 166.033 36.4987 166.273 36.4987H167.693C167.96 36.4987 168.093 36.6321 168.093 36.8987V37.4787L168.113 37.4987C168.313 37.3654 168.527 37.2321 168.753 37.0987C168.98 36.9521 169.22 36.8254 169.473 36.7187C169.74 36.6121 170.007 36.5254 170.273 36.4587C170.54 36.3787 170.813 36.3321 171.093 36.3187C171.667 36.3187 172.187 36.4121 172.653 36.5987C173.133 36.7721 173.527 37.1454 173.833 37.7187C174.34 37.3454 174.893 37.0187 175.493 36.7387C176.093 36.4587 176.713 36.3187 177.353 36.3187C178.007 36.3187 178.527 36.4187 178.913 36.6187C179.3 36.8187 179.593 37.0921 179.793 37.4387C179.993 37.7721 180.12 38.1654 180.173 38.6187C180.227 39.0721 180.253 39.5454 180.253 40.0387V45.9187Z"
    fill="white"
  />
<path
    d="M184.998 33.8987C184.998 34.0587 184.984 34.2121 184.958 34.3587C184.931 34.4921 184.871 34.6121 184.778 34.7187C184.698 34.8254 184.578 34.9121 184.418 34.9787C184.271 35.0321 184.071 35.0587 183.818 35.0587C183.551 35.0587 183.338 35.0254 183.178 34.9587C183.031 34.8921 182.918 34.8054 182.838 34.6987C182.758 34.5921 182.704 34.4721 182.678 34.3387C182.651 34.1921 182.638 34.0454 182.638 33.8987C182.638 33.5787 182.711 33.3121 182.858 33.0987C183.018 32.8721 183.338 32.7587 183.818 32.7587C184.311 32.7587 184.631 32.8654 184.778 33.0787C184.924 33.2787 184.998 33.5521 184.998 33.8987ZM184.878 45.9187C184.878 46.0254 184.851 46.1187 184.798 46.1987C184.758 46.2654 184.664 46.2987 184.518 46.2987H183.098C182.831 46.2987 182.698 46.1721 182.698 45.9187V36.8787C182.698 36.6254 182.831 36.4987 183.098 36.4987H184.518C184.664 36.4987 184.758 36.5387 184.798 36.6187C184.851 36.6854 184.878 36.7721 184.878 36.8787V45.9187Z"
    fill="white"
  />
<path
    d="M194.679 43.3587C194.679 43.9454 194.566 44.4387 194.339 44.8387C194.113 45.2254 193.806 45.5387 193.419 45.7787C193.046 46.0187 192.619 46.1921 192.139 46.2987C191.659 46.4054 191.159 46.4587 190.639 46.4587C190.133 46.4587 189.586 46.4187 188.999 46.3387C188.413 46.2721 187.926 46.1654 187.539 46.0187C187.339 45.9387 187.213 45.8521 187.159 45.7587C187.106 45.6521 187.093 45.5187 187.119 45.3587L187.259 44.6987C187.286 44.5387 187.339 44.4454 187.419 44.4187C187.499 44.3787 187.619 44.3721 187.779 44.3987C187.993 44.4387 188.226 44.4721 188.479 44.4987C188.746 44.5254 189.006 44.5521 189.259 44.5787C189.526 44.5921 189.773 44.6054 189.999 44.6187C190.239 44.6321 190.446 44.6387 190.619 44.6387C191.259 44.6387 191.719 44.5521 191.999 44.3787C192.279 44.1921 192.419 43.8987 192.419 43.4987C192.419 43.2721 192.393 43.0854 192.339 42.9387C192.299 42.7921 192.219 42.6721 192.099 42.5787C191.979 42.4854 191.813 42.4121 191.599 42.3587C191.399 42.2921 191.139 42.2387 190.819 42.1987C190.326 42.1321 189.859 42.0454 189.419 41.9387C188.979 41.8321 188.586 41.6787 188.239 41.4787C187.906 41.2654 187.639 40.9921 187.439 40.6587C187.239 40.3121 187.139 39.8654 187.139 39.3187C187.139 38.3321 187.486 37.5854 188.179 37.0787C188.873 36.5587 189.779 36.2987 190.899 36.2987C191.099 36.2987 191.333 36.3054 191.599 36.3187C191.866 36.3321 192.133 36.3587 192.399 36.3987C192.679 36.4387 192.953 36.4854 193.219 36.5387C193.486 36.5921 193.726 36.6587 193.939 36.7387C194.273 36.8721 194.413 37.0721 194.359 37.3387L194.199 38.0587C194.173 38.2054 194.119 38.2987 194.039 38.3387C193.973 38.3654 193.846 38.3654 193.659 38.3387C193.233 38.2854 192.766 38.2387 192.259 38.1987C191.753 38.1454 191.313 38.1187 190.939 38.1187C190.299 38.1187 189.873 38.2121 189.659 38.3987C189.459 38.5721 189.359 38.8521 189.359 39.2387C189.359 39.6254 189.486 39.8787 189.739 39.9987C190.006 40.1187 190.446 40.2254 191.059 40.3187C191.539 40.3854 191.993 40.4721 192.419 40.5787C192.859 40.6854 193.246 40.8454 193.579 41.0587C193.913 41.2721 194.179 41.5587 194.379 41.9187C194.579 42.2787 194.679 42.7587 194.679 43.3587Z"
    fill="white"
  />
<path
    d="M203.859 43.3587C203.859 43.9454 203.746 44.4387 203.519 44.8387C203.292 45.2254 202.986 45.5387 202.599 45.7787C202.226 46.0187 201.799 46.1921 201.319 46.2987C200.839 46.4054 200.339 46.4587 199.819 46.4587C199.312 46.4587 198.766 46.4187 198.179 46.3387C197.592 46.2721 197.106 46.1654 196.719 46.0187C196.519 45.9387 196.392 45.8521 196.339 45.7587C196.286 45.6521 196.272 45.5187 196.299 45.3587L196.439 44.6987C196.466 44.5387 196.519 44.4454 196.599 44.4187C196.679 44.3787 196.799 44.3721 196.959 44.3987C197.172 44.4387 197.406 44.4721 197.659 44.4987C197.926 44.5254 198.186 44.5521 198.439 44.5787C198.706 44.5921 198.952 44.6054 199.179 44.6187C199.419 44.6321 199.626 44.6387 199.799 44.6387C200.439 44.6387 200.899 44.5521 201.179 44.3787C201.459 44.1921 201.599 43.8987 201.599 43.4987C201.599 43.2721 201.572 43.0854 201.519 42.9387C201.479 42.7921 201.399 42.6721 201.279 42.5787C201.159 42.4854 200.992 42.4121 200.779 42.3587C200.579 42.2921 200.319 42.2387 199.999 42.1987C199.506 42.1321 199.039 42.0454 198.599 41.9387C198.159 41.8321 197.766 41.6787 197.419 41.4787C197.086 41.2654 196.819 40.9921 196.619 40.6587C196.419 40.3121 196.319 39.8654 196.319 39.3187C196.319 38.3321 196.666 37.5854 197.359 37.0787C198.052 36.5587 198.959 36.2987 200.079 36.2987C200.279 36.2987 200.512 36.3054 200.779 36.3187C201.046 36.3321 201.312 36.3587 201.579 36.3987C201.859 36.4387 202.132 36.4854 202.399 36.5387C202.666 36.5921 202.906 36.6587 203.119 36.7387C203.452 36.8721 203.592 37.0721 203.539 37.3387L203.379 38.0587C203.352 38.2054 203.299 38.2987 203.219 38.3387C203.152 38.3654 203.026 38.3654 202.839 38.3387C202.412 38.2854 201.946 38.2387 201.439 38.1987C200.932 38.1454 200.492 38.1187 200.119 38.1187C199.479 38.1187 199.052 38.2121 198.839 38.3987C198.639 38.5721 198.539 38.8521 198.539 39.2387C198.539 39.6254 198.666 39.8787 198.919 39.9987C199.186 40.1187 199.626 40.2254 200.239 40.3187C200.719 40.3854 201.172 40.4721 201.599 40.5787C202.039 40.6854 202.426 40.8454 202.759 41.0587C203.092 41.2721 203.359 41.5587 203.559 41.9187C203.759 42.2787 203.859 42.7587 203.859 43.3587Z"
    fill="white"
  />
<path
    d="M208.299 33.8987C208.299 34.0587 208.285 34.2121 208.259 34.3587C208.232 34.4921 208.172 34.6121 208.079 34.7187C207.999 34.8254 207.879 34.9121 207.719 34.9787C207.572 35.0321 207.372 35.0587 207.119 35.0587C206.852 35.0587 206.639 35.0254 206.479 34.9587C206.332 34.8921 206.219 34.8054 206.139 34.6987C206.059 34.5921 206.005 34.4721 205.979 34.3387C205.952 34.1921 205.939 34.0454 205.939 33.8987C205.939 33.5787 206.012 33.3121 206.159 33.0987C206.319 32.8721 206.639 32.7587 207.119 32.7587C207.612 32.7587 207.932 32.8654 208.079 33.0787C208.225 33.2787 208.299 33.5521 208.299 33.8987ZM208.179 45.9187C208.179 46.0254 208.152 46.1187 208.099 46.1987C208.059 46.2654 207.965 46.2987 207.819 46.2987H206.399C206.132 46.2987 205.999 46.1721 205.999 45.9187V36.8787C205.999 36.6254 206.132 36.4987 206.399 36.4987H207.819C207.965 36.4987 208.059 36.5387 208.099 36.6187C208.152 36.6854 208.179 36.7721 208.179 36.8787V45.9187Z"
    fill="white"
  />
<path
    d="M219.16 41.2387C219.16 41.8121 219.12 42.4054 219.04 43.0187C218.973 43.6321 218.793 44.1987 218.5 44.7187C218.207 45.2254 217.767 45.6454 217.18 45.9787C216.593 46.2987 215.78 46.4587 214.74 46.4587C213.74 46.4587 212.953 46.2987 212.38 45.9787C211.807 45.6454 211.373 45.2254 211.08 44.7187C210.8 44.1987 210.627 43.6321 210.56 43.0187C210.493 42.4054 210.46 41.8121 210.46 41.2387C210.46 40.7721 210.5 40.2521 210.58 39.6787C210.673 39.1054 210.867 38.5721 211.16 38.0787C211.453 37.5721 211.88 37.1521 212.44 36.8187C213.013 36.4721 213.78 36.2987 214.74 36.2987C215.713 36.2987 216.487 36.4454 217.06 36.7387C217.647 37.0321 218.093 37.4187 218.4 37.8987C218.707 38.3654 218.907 38.8921 219 39.4787C219.107 40.0654 219.16 40.6521 219.16 41.2387ZM216.92 41.3787C216.92 40.8454 216.893 40.3854 216.84 39.9987C216.787 39.5987 216.68 39.2721 216.52 39.0187C216.36 38.7521 216.14 38.5521 215.86 38.4187C215.58 38.2854 215.213 38.2187 214.76 38.2187C214.333 38.2187 213.987 38.2854 213.72 38.4187C213.453 38.5521 213.24 38.7521 213.08 39.0187C212.933 39.2854 212.827 39.6187 212.76 40.0187C212.707 40.4054 212.68 40.8587 212.68 41.3787C212.68 41.9121 212.707 42.3787 212.76 42.7787C212.827 43.1654 212.933 43.4921 213.08 43.7587C213.227 44.0121 213.433 44.2054 213.7 44.3387C213.967 44.4721 214.313 44.5387 214.74 44.5387C215.193 44.5387 215.56 44.4787 215.84 44.3587C216.133 44.2254 216.36 44.0321 216.52 43.7787C216.68 43.5121 216.787 43.1787 216.84 42.7787C216.893 42.3787 216.92 41.9121 216.92 41.3787ZM217.34 32.1187C217.54 32.2254 217.567 32.3721 217.42 32.5587L215.38 35.3587C215.273 35.5054 215.147 35.5454 215 35.4787L214.22 35.1187C214.073 35.0387 214.04 34.9121 214.12 34.7387L215.72 31.6387C215.8 31.4654 215.947 31.4254 216.16 31.5187L217.34 32.1187Z"
    fill="white"
  />
<path
    d="M144.574 53.4188C144.574 53.1521 144.708 53.0188 144.974 53.0188H152.334C152.588 53.0188 152.714 53.1455 152.714 53.3988V54.6388C152.714 54.8788 152.581 54.9988 152.314 54.9988H146.854V58.4388H151.694C151.961 58.4388 152.094 58.5588 152.094 58.7988V60.0388C152.094 60.2788 151.961 60.3988 151.694 60.3988H146.854V64.3388H152.454C152.694 64.3388 152.814 64.4655 152.814 64.7188V65.9388C152.814 66.1788 152.688 66.2988 152.434 66.2988H144.974C144.708 66.2988 144.574 66.1788 144.574 65.9388V53.4188Z"
    fill="white"
  />
<path
    d="M163.281 65.9188C163.281 66.1721 163.154 66.2988 162.901 66.2988H161.481C161.334 66.2988 161.234 66.2655 161.181 66.1988C161.127 66.1321 161.101 66.0388 161.101 65.9188V65.2988L161.061 65.2788C160.861 65.4121 160.627 65.5521 160.361 65.6988C160.107 65.8321 159.834 65.9588 159.541 66.0788C159.247 66.1988 158.941 66.2921 158.621 66.3588C158.314 66.4388 158.007 66.4788 157.701 66.4788C157.021 66.4788 156.481 66.3855 156.081 66.1988C155.694 66.0121 155.401 65.7521 155.201 65.4188C155.001 65.0855 154.874 64.6921 154.821 64.2388C154.767 63.7855 154.741 63.2988 154.741 62.7788V56.8988C154.741 56.6321 154.867 56.4988 155.121 56.4988H156.581C156.821 56.4988 156.941 56.6321 156.941 56.8988V62.5188C156.941 62.8255 156.961 63.0988 157.001 63.3388C157.041 63.5788 157.114 63.7855 157.221 63.9588C157.327 64.1188 157.474 64.2455 157.661 64.3388C157.847 64.4321 158.094 64.4788 158.401 64.4788C158.614 64.4788 158.847 64.4455 159.101 64.3788C159.367 64.3121 159.627 64.2321 159.881 64.1388C160.134 64.0321 160.367 63.9321 160.581 63.8388C160.794 63.7321 160.967 63.6455 161.101 63.5788V56.8988C161.101 56.7788 161.127 56.6855 161.181 56.6188C161.234 56.5388 161.334 56.4988 161.481 56.4988H162.901C163.154 56.4988 163.281 56.6321 163.281 56.8988V65.9188Z"
    fill="white"
  />
<path
    d="M167.986 65.9188C167.986 66.1721 167.859 66.2988 167.606 66.2988H166.166C165.912 66.2988 165.786 66.1721 165.786 65.9188V56.8988C165.786 56.6321 165.912 56.4988 166.166 56.4988H167.586C167.852 56.4988 167.986 56.6321 167.986 56.8988V57.7788L168.026 57.8188C168.172 57.6855 168.366 57.5455 168.606 57.3988C168.846 57.2388 169.099 57.0988 169.366 56.9788C169.646 56.8455 169.926 56.7255 170.206 56.6188C170.486 56.5121 170.746 56.4388 170.986 56.3988C171.119 56.3721 171.226 56.3788 171.306 56.4188C171.386 56.4588 171.439 56.5655 171.466 56.7388L171.606 58.0788C171.619 58.2255 171.612 58.3321 171.586 58.3988C171.559 58.4655 171.439 58.5188 171.226 58.5588C170.946 58.6121 170.652 58.6788 170.346 58.7588C170.039 58.8255 169.739 58.9055 169.446 58.9988C169.152 59.0788 168.879 59.1588 168.626 59.2388C168.372 59.3188 168.159 59.3988 167.986 59.4788V65.9188Z"
    fill="white"
  />
<path
    d="M181.211 61.2388C181.211 61.8121 181.171 62.4055 181.091 63.0188C181.024 63.6321 180.844 64.1988 180.551 64.7188C180.257 65.2255 179.817 65.6455 179.231 65.9788C178.644 66.2988 177.831 66.4588 176.791 66.4588C175.791 66.4588 175.004 66.2988 174.431 65.9788C173.857 65.6455 173.424 65.2255 173.131 64.7188C172.851 64.1988 172.677 63.6321 172.611 63.0188C172.544 62.4055 172.511 61.8121 172.511 61.2388C172.511 60.7721 172.551 60.2521 172.631 59.6788C172.724 59.1055 172.917 58.5721 173.211 58.0788C173.504 57.5721 173.931 57.1521 174.491 56.8188C175.064 56.4721 175.831 56.2988 176.791 56.2988C177.764 56.2988 178.537 56.4455 179.111 56.7388C179.697 57.0321 180.144 57.4188 180.451 57.8988C180.757 58.3655 180.957 58.8921 181.051 59.4788C181.157 60.0655 181.211 60.6521 181.211 61.2388ZM178.971 61.3788C178.971 60.8455 178.944 60.3855 178.891 59.9988C178.837 59.5988 178.731 59.2721 178.571 59.0188C178.411 58.7521 178.191 58.5521 177.911 58.4188C177.631 58.2855 177.264 58.2188 176.811 58.2188C176.384 58.2188 176.037 58.2855 175.771 58.4188C175.504 58.5521 175.291 58.7521 175.131 59.0188C174.984 59.2855 174.877 59.6188 174.811 60.0188C174.757 60.4055 174.731 60.8588 174.731 61.3788C174.731 61.9121 174.757 62.3788 174.811 62.7788C174.877 63.1655 174.984 63.4921 175.131 63.7588C175.277 64.0121 175.484 64.2055 175.751 64.3388C176.017 64.4721 176.364 64.5388 176.791 64.5388C177.244 64.5388 177.611 64.4788 177.891 64.3588C178.184 64.2255 178.411 64.0321 178.571 63.7788C178.731 63.5121 178.837 63.1788 178.891 62.7788C178.944 62.3788 178.971 61.9121 178.971 61.3788Z"
    fill="white"
  />
<path
    d="M191.82 61.3388C191.82 62.1521 191.76 62.8788 191.64 63.5188C191.52 64.1588 191.306 64.6988 191 65.1388C190.706 65.5788 190.3 65.9121 189.78 66.1388C189.273 66.3655 188.626 66.4788 187.84 66.4788C187.506 66.4788 187.12 66.4455 186.68 66.3788C186.253 66.3121 185.806 66.1988 185.34 66.0388L185.32 66.0588V69.5788C185.32 69.6855 185.293 69.7788 185.24 69.8588C185.2 69.9388 185.099 69.9788 184.939 69.9788H183.52C183.36 69.9788 183.253 69.9455 183.2 69.8788C183.16 69.8121 183.14 69.7121 183.14 69.5788V56.8988C183.14 56.6321 183.266 56.4988 183.52 56.4988H184.939C185.086 56.4988 185.179 56.5388 185.219 56.6188C185.273 56.6855 185.299 56.7788 185.299 56.8988V57.4988L185.359 57.5388C185.533 57.4188 185.739 57.2921 185.979 57.1588C186.233 57.0121 186.5 56.8788 186.78 56.7588C187.06 56.6388 187.346 56.5388 187.64 56.4588C187.933 56.3788 188.226 56.3388 188.52 56.3388C189.173 56.3388 189.713 56.4588 190.14 56.6988C190.566 56.9388 190.9 57.2788 191.14 57.7188C191.393 58.1455 191.566 58.6655 191.66 59.2788C191.766 59.8921 191.82 60.5788 191.82 61.3388ZM189.56 61.3188C189.56 60.6788 189.526 60.1655 189.46 59.7788C189.406 59.3921 189.313 59.0921 189.18 58.8788C189.046 58.6655 188.88 58.5255 188.68 58.4588C188.493 58.3788 188.266 58.3388 188 58.3388C187.8 58.3388 187.573 58.3721 187.32 58.4388C187.066 58.5055 186.813 58.5855 186.56 58.6788C186.32 58.7588 186.086 58.8521 185.859 58.9588C185.646 59.0655 185.466 59.1588 185.32 59.2388V64.2388C185.773 64.3721 186.179 64.4655 186.539 64.5188C186.913 64.5588 187.273 64.5788 187.619 64.5788C187.979 64.5788 188.28 64.5321 188.52 64.4388C188.773 64.3321 188.973 64.1521 189.119 63.8988C189.279 63.6455 189.393 63.3121 189.46 62.8988C189.526 62.4721 189.56 61.9455 189.56 61.3188Z"
    fill="white"
  />
<path
    d="M195.669 61.9988C195.683 62.5055 195.736 62.9255 195.829 63.2588C195.936 63.5921 196.089 63.8588 196.289 64.0588C196.489 64.2455 196.736 64.3788 197.029 64.4588C197.323 64.5388 197.676 64.5788 198.089 64.5788C198.449 64.5788 198.876 64.5521 199.369 64.4988C199.863 64.4455 200.303 64.3988 200.689 64.3588C200.876 64.3321 201.003 64.3388 201.069 64.3788C201.149 64.4055 201.203 64.5121 201.229 64.6988L201.349 65.3588C201.376 65.5055 201.369 65.6255 201.329 65.7188C201.303 65.8121 201.196 65.8988 201.009 65.9788C200.809 66.0588 200.576 66.1321 200.309 66.1988C200.043 66.2521 199.763 66.2988 199.469 66.3388C199.176 66.3788 198.883 66.4121 198.589 66.4388C198.296 66.4655 198.029 66.4788 197.789 66.4788C196.829 66.4788 196.063 66.3388 195.489 66.0588C194.916 65.7788 194.476 65.4055 194.169 64.9388C193.863 64.4721 193.656 63.9388 193.549 63.3388C193.456 62.7255 193.409 62.0921 193.409 61.4388C193.409 60.9588 193.449 60.4188 193.529 59.8188C193.609 59.2188 193.789 58.6588 194.069 58.1388C194.363 57.6188 194.789 57.1855 195.349 56.8388C195.923 56.4788 196.696 56.2988 197.669 56.2988C198.563 56.2988 199.283 56.4321 199.829 56.6988C200.389 56.9655 200.823 57.3121 201.129 57.7388C201.436 58.1521 201.643 58.6321 201.749 59.1788C201.869 59.7121 201.936 60.2455 201.949 60.7788C201.963 61.1388 201.903 61.4321 201.769 61.6588C201.636 61.8855 201.369 61.9988 200.969 61.9988H195.669ZM197.669 58.0988C197.296 58.0988 196.989 58.1521 196.749 58.2588C196.509 58.3655 196.309 58.5255 196.149 58.7388C196.003 58.9388 195.896 59.1921 195.829 59.4988C195.763 59.7921 195.716 60.1255 195.689 60.4988H199.649C199.649 60.1921 199.623 59.8988 199.569 59.6188C199.516 59.3255 199.416 59.0655 199.269 58.8388C199.136 58.6121 198.936 58.4321 198.669 58.2988C198.416 58.1655 198.083 58.0988 197.669 58.0988Z"
    fill="white"
  />
<path
    d="M209.825 61.8388H207.385C206.879 61.8388 206.479 61.9588 206.185 62.1988C205.892 62.4255 205.745 62.8655 205.745 63.5188C205.745 63.9588 205.832 64.2655 206.005 64.4388C206.192 64.5988 206.519 64.6788 206.985 64.6788C207.199 64.6788 207.432 64.6521 207.685 64.5988C207.939 64.5455 208.192 64.4721 208.445 64.3788C208.699 64.2855 208.945 64.1855 209.185 64.0788C209.425 63.9588 209.639 63.8455 209.825 63.7388V61.8388ZM209.945 65.1588C209.439 65.5455 208.865 65.8588 208.225 66.0988C207.599 66.3388 206.945 66.4588 206.265 66.4588C205.732 66.4588 205.285 66.3921 204.925 66.2588C204.579 66.1121 204.299 65.9188 204.085 65.6788C203.885 65.4255 203.739 65.1255 203.645 64.7788C203.565 64.4321 203.525 64.0455 203.525 63.6188C203.512 62.4455 203.819 61.5988 204.445 61.0788C205.072 60.5455 206.019 60.2788 207.285 60.2788H209.845V59.7588C209.845 59.4655 209.812 59.2188 209.745 59.0188C209.692 58.8055 209.585 58.6321 209.425 58.4988C209.265 58.3655 209.052 58.2721 208.785 58.2188C208.519 58.1655 208.179 58.1388 207.765 58.1388C207.605 58.1388 207.405 58.1455 207.165 58.1588C206.939 58.1721 206.699 58.1855 206.445 58.1988C206.205 58.2121 205.959 58.2321 205.705 58.2588C205.465 58.2855 205.245 58.3055 205.045 58.3188C204.845 58.3455 204.705 58.3521 204.625 58.3388C204.559 58.3121 204.512 58.2255 204.485 58.0788L204.305 57.3388C204.279 57.2055 204.292 57.0988 204.345 57.0188C204.399 56.9255 204.539 56.8321 204.765 56.7388C204.979 56.6588 205.232 56.5921 205.525 56.5388C205.819 56.4855 206.119 56.4455 206.425 56.4188C206.732 56.3788 207.032 56.3521 207.325 56.3388C207.632 56.3121 207.905 56.2988 208.145 56.2988C209.012 56.2988 209.699 56.3855 210.205 56.5588C210.725 56.7321 211.119 56.9788 211.385 57.2988C211.652 57.6055 211.825 57.9855 211.905 58.4388C211.985 58.8921 212.025 59.3988 212.025 59.9588V63.8188C212.025 64.0188 212.032 64.1788 212.045 64.2988C212.072 64.4055 212.105 64.4921 212.145 64.5588C212.199 64.6121 212.272 64.6521 212.365 64.6788C212.459 64.7055 212.585 64.7255 212.745 64.7388C212.892 64.7521 212.992 64.7788 213.045 64.8188C213.099 64.8588 213.125 64.9321 213.125 65.0388V65.8788C213.125 66.1055 212.965 66.2455 212.645 66.2988C212.485 66.3255 212.325 66.3455 212.165 66.3588C212.005 66.3855 211.852 66.3988 211.705 66.3988C211.239 66.3988 210.859 66.3121 210.565 66.1388C210.285 65.9655 210.092 65.6455 209.985 65.1788L209.945 65.1588Z"
    fill="white"
  />
<path
    d="M29.0595 64.8961H84.7641L84.759 28.8354L29.0544 28.8405L29.0595 64.8961Z"
    fill="#003399"
  />
<path
    d="M57.4401 33.3809H59.4717L57.8331 34.6449L58.4712 36.6472L56.8429 35.4135L55.2146 36.6472L55.8526 34.6449L54.2039 33.3809H56.2303L56.8429 31.4292L57.4401 33.3809Z"
    fill="#FFED00"
  />
<path
    d="M57.5115 59.1573H59.5431L57.9097 60.3759L58.5426 62.3023L56.9143 61.1141L55.286 62.3023L55.9292 60.3759L54.2753 59.1573H56.3018L56.9143 57.2815L57.5115 59.1573Z"
    fill="#FFED00"
  />
<path
    d="M63.9482 57.4534H65.9849L64.3464 58.6669L64.9844 60.5933L63.351 59.4051L61.7227 60.5933L62.3659 58.6669L60.712 57.4534H62.7385L63.351 55.5725L63.9482 57.4534Z"
    fill="#FFED00"
  />
<path
    d="M63.9482 35.1H65.9849L64.3464 36.3185L64.9844 38.2449L63.351 37.0567L61.7227 38.2449L62.3659 36.3185L60.712 35.1H62.7385L63.351 33.2241L63.9482 35.1Z"
    fill="#FFED00"
  />
<path
    d="M68.7311 39.8377H70.7575L69.1241 41.0512L69.7571 42.9776L68.1288 41.7894L66.5005 42.9776L67.1436 41.0512L65.4898 39.8377H67.5162L68.1288 37.9568L68.7311 39.8377Z"
    fill="#FFED00"
  />
<path
    d="M68.7311 52.7814H70.7575L69.1241 53.9999L69.7571 55.9263L68.1288 54.7381L66.5005 55.9263L67.1436 53.9999L65.4898 52.7814H67.5162L68.1288 50.9055L68.7311 52.7814Z"
    fill="#FFED00"
  />
<path
    d="M70.5176 46.2084H72.5543L70.9158 47.4269L71.5487 49.3533L69.9204 48.1651L68.2921 49.3533L68.9353 47.4269L67.2814 46.2084H69.3079L69.9204 44.3325L70.5176 46.2084Z"
    fill="#FFED00"
  />
<path
    d="M50.8809 35.1202H52.9074L51.274 36.3336L51.9069 38.26L50.2786 37.0718L48.6503 38.26L49.2934 36.3336L47.6447 35.1202H49.6661L50.2786 33.2393L50.8809 35.1202Z"
    fill="#FFED00"
  />
<path
    d="M46.2308 39.8528H48.2674L46.6289 41.0663L47.2619 42.9927L45.6336 41.8045L44.0052 42.9927L44.6484 41.0663L42.9946 39.8528H45.021L45.6336 37.9719L46.2308 39.8528Z"
    fill="#FFED00"
  />
<path
    d="M44.5055 46.2286H46.537L44.9036 47.442L45.5366 49.3685L43.9083 48.1853L42.28 49.3685L42.9231 47.442L41.2744 46.2286H43.2957L43.9083 44.3477L44.5055 46.2286Z"
    fill="#FFED00"
  />
<path
    d="M46.2308 52.7965H48.2674L46.6289 54.015L47.2619 55.9414L45.6336 54.7532L44.0052 55.9414L44.6484 54.015L42.9946 52.7965H45.021L45.6336 50.9207L46.2308 52.7965Z"
    fill="#FFED00"
  />
<path
    d="M50.9473 57.4685H52.9737L51.3403 58.682L51.9733 60.6084L50.3449 59.4202L48.7166 60.6084L49.3598 58.682L47.7111 57.4685H49.7324L50.3449 55.5876L50.9473 57.4685Z"
    fill="#FFED00"
  />
<path
    d="M94.9372 0.00505726C94.9372 0.00505726 106.917 18.9101 109.112 22.3736C111.302 25.8371 113.808 28.5826 122.675 30.4433C131.541 32.304 135.4 33.1837 135.4 33.1837V33.8562C135.4 33.8562 129.765 32.668 122.516 31.0652C115.268 29.4624 112.302 28.9214 109 24.3657C106.249 20.5736 94.9372 3.61517 94.9372 3.61517V0V0.00505726Z"
    fill="white"
  />
<path
    d="M94.9372 21.5949C94.9372 21.5949 105.845 32.9157 109 36.1668C112.348 39.6151 116.631 40.8893 122.573 41.941C128.244 42.9421 135.395 44.1 135.395 44.1V44.7371C135.395 44.7371 128.677 43.6449 122.573 42.6135C116.585 41.5972 112.394 41.0309 108.964 37.9011C105.891 35.1 94.9372 24.9219 94.9372 24.9219V21.5898V21.5949Z"
    fill="white"
  />
<path
    d="M94.9372 26.6967C94.9372 26.6967 105.309 36.2377 109 39.499C112.394 42.4973 115.146 43.4327 122.608 44.7422C130.071 46.0518 135.395 46.8658 135.395 46.8658V47.5383C135.395 47.5383 128.642 46.4411 122.573 45.4804C116.503 44.5248 112.634 44.1456 109 41.2282C104.809 37.8608 94.9372 29.8113 94.9372 29.8113V26.6917V26.6967Z"
    fill="white"
  />
<path
    d="M94.9372 32.1321C94.9372 32.1321 106.785 41.4456 109 43.0737C111.215 44.7018 114.145 46.6029 122.644 47.8214C131.071 49.0298 135.395 49.6265 135.395 49.6265V50.3343C135.395 50.3343 127.754 49.2371 122.644 48.6001C117.535 47.963 113.619 47.69 109.036 44.6664C104.574 41.7237 94.9372 35.004 94.9372 35.004V32.1321Z"
    fill="white"
  />
<path
    d="M94.9372 37.3601C94.9372 37.3601 106.82 45.1972 109.071 46.441C111.322 47.6798 113.967 49.7022 122.644 50.7994C131.322 51.8966 135.395 52.3921 135.395 52.3921V53.0646C135.395 53.0646 128.218 52.286 122.608 51.6843C117.004 51.0826 113.18 50.2685 109 47.9983C104.819 45.7331 94.9372 40.0095 94.9372 40.0095V37.3601Z"
    fill="white"
  />
<path
    d="M94.9372 42.5883C94.9372 42.5883 105.442 48.2512 109 50.0158C112.966 51.9878 116.396 52.9333 122.608 53.6664C128.708 54.3844 135.395 55.0821 135.395 55.0821V55.7192C135.395 55.7192 129.213 55.0619 122.608 54.4451C116.059 53.8282 113.727 53.5451 109 51.467C104.773 49.6063 94.9372 45.0658 94.9372 45.0658V42.5833V42.5883Z"
    fill="white"
  />
<path
    d="M94.9372 47.8872C94.9372 47.8872 103.237 51.4063 109.071 53.7018C114.809 55.9569 119.193 56.149 122.68 56.5383C124.216 56.7102 135.395 57.8479 135.395 57.8479V58.485C135.395 58.485 128.718 57.9541 122.644 57.4232C116.57 56.8923 113.951 56.6647 109.036 55.0518C104.059 53.4136 94.9372 50.2636 94.9372 50.2636V47.8923V47.8872Z"
    fill="white"
  />
<path
    d="M94.9372 53.2922C94.9372 53.2922 103.319 55.8658 109.036 57.3524C114.753 58.8389 120 59.4456 122.644 59.6175C125.288 59.7945 135.4 60.6085 135.4 60.6085V61.2102C135.4 61.2102 129.647 60.8209 122.608 60.3254C116.917 59.9259 112.348 59.5012 109 58.7681C105.294 57.9591 94.9372 55.522 94.9372 55.522V53.2922Z"
    fill="white"
  />
<path
    d="M94.9372 58.6062C94.9372 58.6062 101.792 59.7792 109.036 60.9674C114.467 61.8573 121.822 62.4186 122.608 62.454C123.394 62.4893 135.395 63.3034 135.395 63.3034V63.9405C135.395 63.9405 127.713 63.5461 122.608 63.268C117.29 62.9747 112.001 62.6562 109 62.3478C102.272 61.6551 94.9372 60.7349 94.9372 60.7349V58.6062Z"
    fill="white"
  />
<path
    d="M94.9372 64.1074C94.9372 64.1074 105.748 64.5119 109.036 64.5827C112.323 64.6535 135.395 65.5737 135.395 65.5737V66.1956H94.9372V64.1074Z"
    fill="white"
  />
<path
    d="M122.603 33.3656C112.818 31.2774 110.603 27.733 108.959 25.5387C107.315 23.3392 94.9321 5.41504 94.9321 5.41504V8.71167C95.4222 9.34369 106.019 23.8347 108.995 27.6269C112.348 31.8993 117.601 32.8701 122.603 33.9319C127.6 34.9937 135.395 36.4752 135.395 36.4752V35.9089C135.395 35.9089 125.135 33.9016 122.603 33.3656Z"
    fill="white"
  />
<path
    d="M122.603 36.2022C114.569 34.6449 111.317 32.127 108.959 29.0831C106.601 26.0343 94.9321 10.446 94.9321 10.446V14.2786C95.4222 14.85 106.096 27.7534 108.959 30.9994C112.297 34.7865 116.958 35.7826 122.603 36.809C128.249 37.8354 135.39 39.1803 135.39 39.1803V38.614C135.39 38.614 127.238 37.1022 122.603 36.2073V36.2022Z"
    fill="white"
  />
<path
    d="M122.603 39.1399C114.247 37.5321 112.532 36.2124 108.995 32.3748C106.769 29.963 95.4119 16.6804 94.9321 16.1191V19.6585C94.9321 19.6585 105.544 30.8731 108.959 34.1849C113.436 38.5332 117.637 38.8619 122.603 39.7467C127.57 40.6315 135.39 42.0473 135.39 42.0473V41.4456C135.39 41.4456 125.947 39.7871 122.603 39.145V39.1399Z"
    fill="white"
  />
<path
    d="M0.00510552 27.7788C0.00510552 27.7788 27.6711 24.8563 35.4196 23.7793C47.6702 22.0805 57.6953 20.2703 66.9701 6.18887C66.9701 6.18887 66.9803 5.38999 66.9701 5.03101C61.2889 13.5911 53.4536 19.431 42.6628 21.1248C32.1222 22.7833 0 25.2052 0 25.2052V27.7788H0.00510552Z"
    fill="white"
  />
<path
    d="M0.00511169 24.2849C0.00511169 24.2849 25.6446 21.1046 34.0925 19.9315C47.4559 18.081 56.8531 16.4175 66.9701 1.05681C66.9701 1.05681 66.9752 0.394453 66.9701 0.00512695C60.7733 9.3439 53.1218 15.3759 41.351 17.2265C29.8507 19.0366 0.00511169 21.6759 0.00511169 21.6759V24.29V24.2849Z"
    fill="white"
  />
<path d="M26.1806 64.1326H0.020462V66.1854H26.1806V64.1326Z" fill="white" />
<path
    d="M66.9701 22.5708C66.9701 22.5708 66.9854 21.3624 66.9803 21.1045C65.7501 22.9601 64.132 24.6438 62.2638 26.1253H64.0963C65.1274 25.0736 66.0921 23.8955 66.965 22.5708H66.9701Z"
    fill="white"
  />
<path
    d="M66.9701 17.11C66.9701 17.11 66.9803 16.0381 66.9752 15.7449C64.0095 20.2145 59.5942 23.7842 54.4897 26.1505L57.5014 26.1404C60.9826 24.1331 64.2188 21.2814 66.965 17.11H66.9701Z"
    fill="white"
  />
<path
    d="M66.9701 11.6494C66.9701 11.6494 66.9803 10.714 66.9701 10.3904C61.8095 18.1718 53.7853 23.496 43.9746 25.0381C41.6521 25.4022 37.8697 25.8067 33.4748 26.2162L45.4549 26.1758C53.3617 24.4314 60.7631 21.0589 66.9599 11.6494H66.9701Z"
    fill="white"
  />
<path
    d="M26.1857 60.6743C12.8377 60.7451 0.020462 60.8007 0.020462 60.8007V62.9395C0.020462 62.9395 13.4451 62.8434 26.1857 62.7372V60.6743Z"
    fill="white"
  />
<path
    d="M26.1857 57.0034C12.9295 57.15 0.0153351 57.2613 0.0153351 57.2613V59.4456C0.0153351 59.4456 13.5778 59.2686 26.1857 59.0714V57.0034Z"
    fill="white"
  />
<path
    d="M26.1806 53.3225C13.0214 53.55 0.0153351 53.722 0.0153351 53.722V55.9517C0.0153351 55.9517 13.7207 55.6837 26.1806 55.3905V53.3225Z"
    fill="white"
  />
<path
    d="M26.1857 49.6213C13.1235 49.9398 0.0153351 50.1774 0.0153351 50.1774V52.4477C0.0153351 52.4477 13.879 52.0735 26.1857 51.6842V49.6162V49.6213Z"
    fill="white"
  />
<path
    d="M26.1908 45.9102C13.2256 46.3197 0.0153351 46.6433 0.0153351 46.6433V48.959C0.0153351 48.959 14.0474 48.4736 26.1908 47.9781V45.9152V45.9102Z"
    fill="white"
  />
<path
    d="M26.1857 42.1838C13.3226 42.6995 0.0153351 43.104 0.0153351 43.104V45.4602C0.0153351 45.4602 14.2209 44.8433 26.1857 44.2315V42.1787V42.1838Z"
    fill="white"
  />
<path
    d="M26.1908 38.4321C13.4247 39.0591 0.0102234 39.5597 0.0102234 39.5597V41.9613C0.0102234 41.9613 14.4047 41.1979 26.1908 40.4647V38.4321Z"
    fill="white"
  />
<path
    d="M26.1908 34.6602C13.5216 35.4085 0.0102234 36.0203 0.0102234 36.0203V38.4624C0.0102234 38.4624 14.5987 37.5321 26.1908 36.6725V34.6602Z"
    fill="white"
  />
<path
    d="M26.1908 30.8679C13.6084 31.7477 0.0102234 32.4859 0.0102234 32.4859V34.9735C0.0102234 34.9735 14.7926 33.8511 26.1908 32.8601V30.873V30.8679Z"
    fill="white"
  />
<path
    d="M26.1908 27.0405C13.685 28.0669 0.00511169 28.9416 0.00511169 28.9416V31.4697C0.00511169 31.4697 14.9866 30.1248 26.1908 28.9922V27.0405Z"
    fill="white"
  />
<path
    d="M86.0759 66.1906V27.5461H27.7528V66.1906H86.0759ZM84.759 28.8355V64.8962H29.0544V28.8405H84.759V28.8355Z"
    fill="white"
  />
</svg>
