<svg width="290" height="72" viewBox="0 0 290 72" fill="none" xmlns="http://www.w3.org/2000/svg">
<path fill-rule="evenodd" clip-rule="evenodd" d="M0 24.5C0 24.5 39.8 19.3 41 19.1C42.7 18.8 44.3 18.5 45.7 18.1C48.9 17.2 51.9 15.9 54.5 14.1C57 12.4 59.4 9.9 61.7 7.2C63.2 5.5 64.7 3.2 66.2 1V0C64.5 2.6 62.8 4.8 61.1 6.7C58.8 9.3 56.4 11.4 53.9 13C51.4 14.6 48.5 15.9 45.4 16.7C44 17.1 42.5 17.3 40.8 17.6C39.7 17.8 38.6 17.9 37.5 18C37 18 0 21.9 0 21.9V24.5Z" fill="white"/>
<mask id="mask0" style="mask-type:alpha" maskUnits="userSpaceOnUse" x="0" y="5" width="67" height="23">
<path fill-rule="evenodd" clip-rule="evenodd" d="M0 5.1998H66.0999V27.9998H0V5.1998Z" fill="white"/>
</mask>
<g mask="url(#mask0)">
<path fill-rule="evenodd" clip-rule="evenodd" d="M53.4 17.7998C50.9 19.1998 48 20.2998 44.8 20.8998C43.4 21.1998 42 21.3998 40.3 21.5998C39.3 21.6998 38.3 21.7998 37.3 21.8998C36.8 21.8998 36.2 21.9998 35.7 21.9998C23.5 23.1998 11.4 24.2998 0 25.3998V27.9998C11.4 26.5998 23.7 25.0998 35.9 23.6998C36.4 23.5998 37 23.5998 37.5 23.4998C38.5 23.3998 39.5 23.2998 40.5 23.0998C42.2 22.8998 43.8 22.5998 45.1 22.2998C48.4 21.5998 51.4 20.3998 54 18.7998C56.6 17.1998 58.8 15.0998 61.3 12.3998C62.8 10.6998 64.5 8.3998 66.1 6.1998V5.1998C64.2 7.6998 62.5 9.8998 60.7 11.6998C58.3 14.3998 55.9 16.3998 53.4 17.7998" fill="white"/>
</g>
<mask id="mask1" style="mask-type:alpha" maskUnits="userSpaceOnUse" x="0" y="10" width="67" height="22">
<path fill-rule="evenodd" clip-rule="evenodd" d="M0 10.9002H66.0999V31.5002H0V10.9002Z" fill="white"/>
</mask>
<g mask="url(#mask1)">
<path fill-rule="evenodd" clip-rule="evenodd" d="M60.4 17.2002C58 19.4002 55.4 21.2002 52.9 22.5002C50.4 23.7002 47.6 24.6002 44.3 25.1002C42.9 25.3002 41.5 25.5002 39.8 25.7002L0 28.9002V31.5002L35.3 27.7002L39.9 27.2002C41.6 27.0002 43.1 26.8002 44.5 26.5002C47.9 25.9002 50.8 24.9002 53.4 23.6002C56.1 22.2002 58.7 20.0002 61.2 17.6002C62.9 16.0002 64.4 13.9002 66.1 11.8002V10.9002C64.1 13.4002 62.3 15.4002 60.4 17.2002" fill="white"/>
</g>
<mask id="mask2" style="mask-type:alpha" maskUnits="userSpaceOnUse" x="0" y="21" width="67" height="18">
<path fill-rule="evenodd" clip-rule="evenodd" d="M0 21.7H66.1998V38.5H0V21.7Z" fill="white"/>
</mask>
<g mask="url(#mask2)">
<path fill-rule="evenodd" clip-rule="evenodd" d="M50.8 30.6C48.5 31.9 46.8 32.7 43.5 33C41.5 33.2 39.5 33.3 37.5 33.4C36.5 33.4 35.6 33.5 34.6 33.6C28.6 33.9 22.7 34.3 16.7 34.7L0 35.9V38.5L16.8 36.9C22.2 36.4 28.5 35.8 34.7 35.3L39.2 35C40.9 34.9 42.4 34.7 43.7 34.5C47.1 34.1 50 33.4 52.6 32.4C55.4 31.4 58 29.7 60.6 27.8C63 26.1 66.2 22.7 66.2 22.6V21.7C64.1 23.8 62.8 25 60.5 26.5C57.6 28.5 52.9 29.5 50.8 30.6" fill="white"/>
</g>
<path fill-rule="evenodd" clip-rule="evenodd" d="M51.6006 35.6001C49.1006 36.3001 46.3006 36.8001 43.0006 37.1001C41.7006 37.2001 40.2006 37.3001 38.6006 37.4001L34.2006 37.6001C23.2006 38.1001 12.2006 38.7001 0.100586 39.3001V41.9001C11.7006 41.0001 23.0006 40.1001 34.4006 39.3001L38.8006 39.0001C40.5006 38.9001 41.9006 38.8001 43.3006 38.6001C46.7006 38.2001 49.6006 37.6001 52.1006 36.8001C54.9006 35.9001 57.7006 34.6001 60.3006 32.9001C62.2006 31.7001 64.2006 30.2001 66.2006 28.4001C64.0006 30.3001 61.9006 30.7001 59.8006 32.0001C57.1006 33.6001 54.4006 34.8001 51.6006 35.6001" fill="white"/>
<path fill-rule="evenodd" clip-rule="evenodd" d="M51.2 39.9004C48.7 40.5004 45.9 40.9004 42.6 41.0994C41.3 41.2004 39.9 41.2994 38.2 41.2994L33.8 41.5004C22.7 41.9004 11.5 42.4004 0 42.9004V45.5004C11.4 44.7004 22.6 44.0004 33.9 43.2004L38.3 42.9004C40 42.7994 41.4 42.7004 42.7 42.5994C46.1 42.2994 48.9 41.7994 51.5 41.0994C54.4 40.2994 57.2 39.2004 59.9 37.7994C62 36.7004 64 35.4004 66.1 33.7994V32.7004C63.8 34.4004 61.6 35.7004 59.4 36.7994C56.8 38.2004 54 39.2004 51.2 39.9004" fill="white"/>
<mask id="mask3" style="mask-type:alpha" maskUnits="userSpaceOnUse" x="0" y="38" width="67" height="11">
<path fill-rule="evenodd" clip-rule="evenodd" d="M0 38.2006H66.1998V48.7996H0V38.2006Z" fill="white"/>
</mask>
<g mask="url(#mask3)">
<path fill-rule="evenodd" clip-rule="evenodd" d="M50.8 44.0996C48.3 44.5996 45.5 44.9006 42.2 44.9996C40.9 45.0996 39.6 45.0996 37.9 45.2006L0 46.2006V48.7996L33.6 46.9996L38 46.7996C39.7 46.7006 41.1 46.5996 42.4 46.4996C45.8 46.2006 48.5 45.9006 51.1 45.2996C54 44.7006 56.9 43.7996 59.6 42.5996C61.8 41.7006 63.9 40.5996 66.2 39.2006V38.2006C63.8 39.5996 61.5 40.7006 59.2 41.5996C56.5 42.7996 53.7 43.5996 50.8 44.0996" fill="white"/>
</g>
<path fill-rule="evenodd" clip-rule="evenodd" d="M50.5 48.2998C45.8 48.9008 41.1 48.9998 36.4 49.0998C35.3 49.0998 34.3 49.0998 33.2 49.1998L0 49.7998V52.4008L33.3 50.9998C34.4 50.9998 35.4 50.9008 36.5 50.9008C41.2 50.6998 46 50.4998 50.7 49.7998C53.7 49.2998 56.6 48.5998 59.2 47.6998C61.4 46.9998 63.7 45.9998 66 44.7998V43.7998C63.6 44.9008 61.1 45.9008 58.8 46.5998C56.3 47.2998 53.5 47.9998 50.5 48.2998" fill="white"/>
<mask id="mask4" style="mask-type:alpha" maskUnits="userSpaceOnUse" x="0" y="49" width="67" height="7">
<path fill-rule="evenodd" clip-rule="evenodd" d="M0 49.2006H66.1998V55.7996H0V49.2006Z" fill="white"/>
</mask>
<g mask="url(#mask4)">
<path fill-rule="evenodd" clip-rule="evenodd" d="M50.3 52.5996C45.9 52.9996 41.5 52.9996 37.1 52.9996H33.1C22.1 52.9996 11.1 53.0996 0 53.2006V55.7996C10.6 55.4006 21.9 55.0996 33.2 54.7006C34.5 54.7006 35.9 54.5996 37.2 54.5996C41.5 54.4996 46 54.4006 50.4 53.9006C53.5 53.5996 56.3 53.0996 59 52.4006C61.3 51.7996 63.7 50.9996 66.2 50.0996V49.2006C63.7 50.0996 61.2 50.7996 58.8 51.4006C56.1 51.9996 53.3 52.4006 50.3 52.5996" fill="white"/>
</g>
<path fill-rule="evenodd" clip-rule="evenodd" d="M50.1 56.7998C48.3 56.9008 46.3 56.9008 44.1 56.9008H41.6L33 56.7998C27.1 56.7998 21.3 56.6998 15.8 56.6998L0 56.7998V59.4008L15.9 58.9998C21.4 58.9008 27.2 58.6998 33 58.5998L41.6 58.4998C44 58.4998 47.1 58.4008 50.2 58.1998C53.3 57.9998 56.1 57.6998 58.8 57.2998C61.2 56.9008 63.7 56.4008 66.2 55.7998V54.9008C63.7 55.4998 61.1 55.9998 58.7 56.2998C55.9 56.4998 53.2 56.6998 50.1 56.7998" fill="white"/>
<path fill-rule="evenodd" clip-rule="evenodd" d="M41.5 60.9004L32.9 60.7994C22 60.5994 11.1 60.4004 0 60.2004V62.7994C10.6 62.7004 21.8 62.5994 32.9 62.5004L41.5 62.4004C44.4 62.4004 47.2 62.2994 50.1 62.2004C56 62.0004 61.2 61.5994 66.2 60.9004V60.0004C61.3 60.5004 56 60.7994 50.1 60.9004H41.5" fill="white"/>
<path fill-rule="evenodd" clip-rule="evenodd" d="M66.1 65.5L0 63.8V66.4H66.1V65.5Z" fill="white"/>
<path fill-rule="evenodd" clip-rule="evenodd" d="M60.2 22C57.7 24 55.7 25.5 52.7 26.7C50 27.8 47.1 28.2 43.9 28.7C41.8 29 39.6 29.4 37.5 29.6C36.6 29.7 35.8 29.7 34.9 29.8L0 32.3V34.9L34.9 31.5L39.4 31.1C41.1 30.9 42.6 30.8 44 30.5C47.4 30 50.3 29.1 52.9 27.9C55.6 26.7 58.4 24.7 60.9 22.6C62.6 21.1 64.3 19.3 66.1 17.3V16.4C63.9 18.6 62.1 20.5 60.2 22" fill="white"/>
<path fill-rule="evenodd" clip-rule="evenodd" d="M94.2002 0C94.2002 0 106.1 18.9 108.3 22.4C110.5 25.9 113 28.6 121.8 30.5C130.6 32.4 134.4 33.2 134.4 33.2V33.9C134.4 33.9 128.8 32.7 121.6 31.1C114.4 29.5 111.5 29 108.2 24.4C105.5 20.6 94.2002 4.5 94.2002 4.5V0Z" fill="white"/>
<path fill-rule="evenodd" clip-rule="evenodd" d="M94.2002 21.6001C94.2002 21.6001 105 32.9001 108.2 36.2001C111.5 39.7001 115.8 40.9001 121.7 42.0001C127.3 43.0001 134.4 44.2001 134.4 44.2001V44.8001C134.4 44.8001 127.7 43.7001 121.7 42.7001C115.8 41.7001 111.6 41.1001 108.2 38.0001C105.2 35.2001 94.3002 25.0001 94.3002 25.0001L94.2002 21.6001Z" fill="white"/>
<path fill-rule="evenodd" clip-rule="evenodd" d="M94.2002 26.7998C94.2002 26.7998 104.5 36.3998 108.2 39.5998C111.6 42.5998 114.3 43.4998 121.7 44.9008C129.1 46.1998 134.4 46.9998 134.4 46.9998V47.6998C134.4 47.6998 127.7 46.5998 121.7 45.5998C115.7 44.5998 111.8 44.2998 108.2 41.2998C104 37.9008 94.2002 29.8998 94.2002 29.8998V26.7998Z" fill="white"/>
<path fill-rule="evenodd" clip-rule="evenodd" d="M94.2002 32.2002C94.2002 32.2002 106 41.5002 108.2 43.2002C110.4 44.8002 113.3 46.7002 121.7 48.0002C130.1 49.2002 134.4 49.8002 134.4 49.8002V50.5002C134.4 50.5002 126.8 49.4002 121.7 48.8002C116.6 48.2002 112.7 47.9002 108.2 44.9002C103.8 42.0002 94.2002 35.2002 94.2002 35.2002V32.2002Z" fill="white"/>
<path fill-rule="evenodd" clip-rule="evenodd" d="M94.2002 37.4004C94.2002 37.4004 106 45.2994 108.2 46.5004C110.4 47.7004 113.1 49.7994 121.7 50.9004C130.3 52.0004 134.4 52.5004 134.4 52.5004V53.2004C134.4 53.2004 127.3 52.4004 121.7 51.7994C116.1 51.2004 112.3 50.4004 108.2 48.0994C104.1 45.7994 94.2002 40.0994 94.2002 40.0994V37.4004Z" fill="white"/>
<path fill-rule="evenodd" clip-rule="evenodd" d="M94.2002 42.7002C94.2002 42.7002 104.6 48.4002 108.2 50.0992C112.1 52.0992 115.5 53.0002 121.7 53.8002C127.8 54.5002 134.4 55.2002 134.4 55.2002V55.8002C134.4 55.8002 128.3 55.0992 121.7 54.5002C115.2 53.9002 112.9 53.5992 108.2 51.5002C104 49.5992 94.2002 45.0992 94.2002 45.0992V42.7002Z" fill="white"/>
<path fill-rule="evenodd" clip-rule="evenodd" d="M94.2006 48C94.2006 48 102.401 51.5 108.201 53.8C113.901 56.1 118.201 56.3 121.701 56.6C123.201 56.8 134.301 57.9 134.301 57.9V58.5C134.301 58.5 127.701 58 121.601 57.4C115.601 56.9 113.001 56.6 108.101 55C103.201 53.4 94.1006 50.2 94.1006 50.2L94.2006 48Z" fill="white"/>
<path fill-rule="evenodd" clip-rule="evenodd" d="M94.2002 53.4004C94.2002 53.4004 102.5 56.0004 108.2 57.5004C113.9 59.0004 119.1 59.5994 121.7 59.7994C124.3 60.0004 134.4 60.7994 134.4 60.7994V61.4004C134.4 61.4004 128.7 61.0004 121.7 60.5004C116 60.0994 111.5 59.7004 108.2 58.9004C104.5 58.0994 94.2002 55.5994 94.2002 55.5994V53.4004Z" fill="white"/>
<path fill-rule="evenodd" clip-rule="evenodd" d="M94.2002 58.7002C94.2002 58.7002 101 59.9002 108.2 61.0992C113.6 62.0002 120.9 62.5992 121.7 62.5992C122.5 62.5992 134.4 63.5002 134.4 63.5002V64.0992C134.4 64.0992 126.8 63.7002 121.7 63.4002C116.4 63.0992 111.2 62.8002 108.2 62.5002C101.5 61.8002 94.2002 60.9002 94.2002 60.9002V58.7002Z" fill="white"/>
<path fill-rule="evenodd" clip-rule="evenodd" d="M94.2002 64.2998C94.2002 64.2998 104.9 64.6998 108.2 64.7998C111.5 64.9008 134.4 65.7998 134.4 65.7998V66.4008H94.2002V64.2998Z" fill="white"/>
<path fill-rule="evenodd" clip-rule="evenodd" d="M121.7 33.3999C112 31.2999 109.8 27.7999 108.2 25.5999C106.6 23.3999 94.2998 5.3999 94.2998 5.3999V9.4999C94.7998 10.0999 105.3 23.8999 108.3 27.6999C111.6 31.9999 116.8 32.9999 121.8 33.9999C126.8 35.0999 134.5 36.5999 134.5 36.5999V35.9999C134.4 35.9999 124.2 33.9999 121.7 33.3999" fill="white"/>
<path fill-rule="evenodd" clip-rule="evenodd" d="M121.7 36.2998C113.7 34.6998 110.5 32.1998 108.2 29.1998C105.9 26.0998 94.2998 10.8998 94.2998 10.8998V14.6998C94.7998 15.2998 105.4 27.7998 108.2 31.0998C111.5 34.8998 116.1 35.8998 121.7 36.8998C127.3 37.9008 134.4 39.2998 134.4 39.2998V38.6998C134.4 38.6998 126.3 37.1998 121.7 36.2998" fill="white"/>
<path fill-rule="evenodd" clip-rule="evenodd" d="M121.7 39.2002C113.4 37.5992 111.7 36.3002 108.2 32.4002C106 30.0002 94.7002 16.7002 94.2002 16.1002V19.6002C94.2002 19.6002 104.7 30.8002 108.1 34.2002C112.5 38.5992 116.7 38.9002 121.6 39.8002C126.5 40.7002 134.3 42.0992 134.3 42.0992V41.5002C134.4 41.5002 125 39.9002 121.7 39.2002" fill="white"/>
<mask id="mask5" style="mask-type:alpha" maskUnits="userSpaceOnUse" x="0" y="0" width="258" height="67">
<path fill-rule="evenodd" clip-rule="evenodd" d="M0 66.7H257.5V0H0V66.7Z" fill="white"/>
</mask>
<g mask="url(#mask5)">
<path fill-rule="evenodd" clip-rule="evenodd" d="M27.5 66.3H85.4V27.6H27.5V66.3Z" fill="#004494" stroke="white" stroke-width="2"/>
<path fill-rule="evenodd" clip-rule="evenodd" d="M57.1004 33.1001H59.1004L57.5004 34.4001L58.1004 36.4001L56.5004 35.2001L54.9004 36.4001L55.5004 34.4001L53.9004 33.1001H55.9004L56.5004 31.1001L57.1004 33.1001Z" fill="#FFF100"/>
<path fill-rule="evenodd" clip-rule="evenodd" d="M57.1004 58.9004H59.1004L57.5004 60.0994L58.1004 62.0004L56.5004 60.7994L54.9004 62.0004L55.5004 60.0994L53.9004 58.9004H55.9004L56.5004 57.0004L57.1004 58.9004Z" fill="#FFF100"/>
<path fill-rule="evenodd" clip-rule="evenodd" d="M63.4998 57.2002H65.4998L63.8998 58.4002L64.4998 60.3002L62.8998 59.0992L61.2998 60.3002L61.8998 58.4002L60.2998 57.2002H62.2998L62.8998 55.3002L63.4998 57.2002Z" fill="#FFF100"/>
<path fill-rule="evenodd" clip-rule="evenodd" d="M63.5004 34.7998H65.5004L63.9004 35.9998L64.5004 37.9008L62.9004 36.6998L61.3004 37.9998L62.0004 35.9998L60.4004 34.7998H62.4004L63.0004 32.8998L63.5004 34.7998Z" fill="#FFF100"/>
<path fill-rule="evenodd" clip-rule="evenodd" d="M68.2996 39.5996H70.2996L68.6996 40.7996L69.2996 42.7006L67.6996 41.4996L66.0996 42.7006L66.6996 40.7996L65.0996 39.5996H67.0996L67.6996 37.7006L68.2996 39.5996Z" fill="#FFF100"/>
<path fill-rule="evenodd" clip-rule="evenodd" d="M68.2996 52.5996H70.2996L68.6996 53.7996L69.2996 55.7006L67.6996 54.4996L66.0996 55.7006L66.6996 53.7996L65.0996 52.5996H67.0996L67.6996 50.7006L68.2996 52.5996Z" fill="#FFF100"/>
<path fill-rule="evenodd" clip-rule="evenodd" d="M70.0998 46H72.0998L70.4998 47.2L71.0998 49.1L69.4998 47.9L67.8998 49.1L68.4998 47.2L66.7998 46H68.7998L69.3998 44.1L70.0998 46Z" fill="#FFF100"/>
<path fill-rule="evenodd" clip-rule="evenodd" d="M50.4998 34.7998H52.4998L50.8998 35.9998L51.4998 37.9008L49.9998 36.7998L48.2998 37.9998L48.8998 36.0998L47.2998 34.8998H49.2998L49.9998 32.9998L50.4998 34.7998Z" fill="#FFF100"/>
<path fill-rule="evenodd" clip-rule="evenodd" d="M45.9002 39.5996H47.9002L46.3002 40.7996L46.9002 42.7006L45.3002 41.4996L43.7002 42.7006L44.3002 40.7996L42.7002 39.5996H44.7002L45.3002 37.7006L45.9002 39.5996Z" fill="#FFF100"/>
<path fill-rule="evenodd" clip-rule="evenodd" d="M44.2 46H46.2L44.6 47.2L45.2 49.1L43.6 47.9L42 49.1L42.6 47.2L41 46H43L43.6 44.1L44.2 46Z" fill="#FFF100"/>
<path fill-rule="evenodd" clip-rule="evenodd" d="M45.9002 52.5996H47.9002L46.3002 53.7996L46.9002 55.7006L45.3002 54.4996L43.7002 55.7006L44.3002 53.7996L42.7002 52.5996H44.7002L45.3002 50.7006L45.9002 52.5996Z" fill="#FFF100"/>
<path fill-rule="evenodd" clip-rule="evenodd" d="M50.6004 57.2998H52.6004L51.0004 58.4998L51.6004 60.4008L50.0004 59.1998L48.4004 60.4008L49.0004 58.4998L47.4004 57.2998H49.4004L50.0004 55.4008L50.6004 57.2998Z" fill="#FFF100"/>
<path fill-rule="evenodd" clip-rule="evenodd" d="M143.4 33.1001C143.4 32.8001 143.5 32.7001 143.8 32.7001H151.2C151.5 32.7001 151.6 32.8001 151.6 33.1001V34.3001C151.6 34.5001 151.5 34.7001 151.2 34.7001H145.7V38.2001H150.6C150.9 38.2001 151 38.3001 151 38.6001V39.8001C151 40.0001 150.9 40.2001 150.6 40.2001H145.7V44.2001H151.3C151.5 44.2001 151.7 44.3001 151.7 44.6001V45.8001C151.7 46.0001 151.6 46.2001 151.3 46.2001H143.8C143.5 46.2001 143.4 46.1001 143.4 45.8001V33.1001Z" fill="white"/>
<path fill-rule="evenodd" clip-rule="evenodd" d="M161.8 46.0996H160.401C160.3 46.0996 160.2 46.0996 160.1 45.9996C160 45.9006 160 45.7996 160 45.7006V44.9996C159.8 45.0996 159.6 45.2996 159.3 45.4006C159 45.4996 158.8 45.7006 158.5 45.7996C158.2 45.9006 157.901 45.9996 157.6 46.0996C157.3 46.2006 157 46.2006 156.7 46.2006C156 46.2006 155.5 46.0996 155.1 45.9006C154.7 45.7006 154.401 45.4996 154.2 45.0996C154 44.7996 153.901 44.4006 153.8 43.9006C153.7 43.4006 153.7 42.9996 153.7 42.4006V36.4996C153.7 36.2006 153.8 36.0996 154.1 36.0996H155.6C155.8 36.0996 156 36.2006 156 36.4996V42.0996C156 42.4006 156 42.7006 156.1 42.9006C156.1 43.0996 156.2 43.2996 156.3 43.4996C156.401 43.7006 156.6 43.7996 156.7 43.9006C156.8 43.9996 157.1 43.9996 157.401 43.9996C157.6 43.9996 157.8 43.9996 158.1 43.9006C158.401 43.7996 158.6 43.7006 158.901 43.5996C159.2 43.4996 159.401 43.4006 159.6 43.2996C159.8 43.2006 160 43.0996 160.1 42.9996V36.2996C160.1 36.2006 160.1 36.0996 160.2 35.9996C160.3 35.8996 160.401 35.8996 160.5 35.8996H161.901C162.2 35.8996 162.3 35.9996 162.3 36.2996V45.4006C162.2 45.9006 162.1 46.0996 161.8 46.0996" fill="white"/>
<path fill-rule="evenodd" clip-rule="evenodd" d="M166.901 45.7002C166.901 46.0002 166.8 46.0992 166.501 46.0992H165.001C164.701 46.0992 164.6 46.0002 164.6 45.7002V36.6002C164.6 36.3002 164.701 36.2002 165.001 36.2002H166.401C166.701 36.2002 166.8 36.3002 166.8 36.6002V37.5002C166.901 37.4002 167.1 37.2002 167.401 37.0992C167.6 36.9002 167.901 36.8002 168.201 36.7002C168.501 36.6002 168.8 36.5002 169.001 36.3002C169.3 36.2002 169.501 36.1002 169.8 36.1002H170.1C170.201 36.1002 170.201 36.2002 170.3 36.4002L170.401 37.7002V38.0002C170.401 38.0992 170.3 38.0992 170.001 38.2002C169.701 38.3002 169.401 38.3002 169.1 38.4002C168.8 38.5002 168.501 38.5992 168.201 38.5992C167.901 38.7002 167.6 38.8002 167.401 38.9002C167.1 39.0002 166.901 39.0992 166.8 39.0992L166.901 45.7002Z" fill="white"/>
<path fill-rule="evenodd" clip-rule="evenodd" d="M177.9 41.0996C177.9 40.5996 177.9 40.0996 177.799 39.7006C177.7 39.2996 177.599 38.9996 177.5 38.7006C177.299 38.4006 177.099 38.2006 176.799 38.0996C176.5 37.9996 176.2 37.9006 175.7 37.9006C175.299 37.9006 174.9 37.9996 174.7 38.0996C174.5 38.2006 174.2 38.4006 174.099 38.7006C173.9 38.9996 173.799 39.2996 173.799 39.7006C173.7 40.0996 173.7 40.5996 173.7 41.0996C173.7 41.5996 173.7 42.0996 173.799 42.4996C173.9 42.9006 174 43.2006 174.099 43.4996C174.2 43.7996 174.5 43.9996 174.7 44.0996C174.9 44.2006 175.299 44.2996 175.7 44.2996C176.2 44.2996 176.5 44.2006 176.799 44.0996C177.099 43.9996 177.299 43.7996 177.5 43.4996C177.7 43.2006 177.799 42.9006 177.799 42.4996C177.9 42.0996 177.9 41.7006 177.9 41.0996M180.2 40.9996C180.2 41.5996 180.2 42.2006 180.099 42.7996C180 43.4006 179.799 43.9996 179.5 44.4996C179.2 44.9996 178.799 45.4006 178.2 45.7996C177.599 46.0996 176.799 46.2996 175.799 46.2996C174.799 46.2996 174 46.0996 173.4 45.7996C172.799 45.4996 172.4 45.0996 172.099 44.4996C171.799 43.9996 171.599 43.4006 171.599 42.7996C171.5 42.2006 171.5 41.5996 171.5 40.9996C171.5 40.4996 171.5 39.9996 171.599 39.4006C171.7 38.7996 171.9 38.2996 172.2 37.7996C172.5 37.2996 172.9 36.8996 173.5 36.4996C174.099 36.2006 174.799 35.9996 175.799 35.9996C176.799 35.9996 177.599 36.0996 178.099 36.3996C178.7 36.7006 179.099 37.0996 179.4 37.5996C179.7 38.0996 179.9 38.5996 180 39.2006C180.099 39.7996 180.2 40.4006 180.2 40.9996" fill="white"/>
<path fill-rule="evenodd" clip-rule="evenodd" d="M188.5 41.0996C188.5 40.4996 188.5 39.9006 188.4 39.5996C188.3 39.2996 188.2 38.9006 188.1 38.7006C188 38.4996 187.8 38.2996 187.6 38.2996C187.4 38.2006 187.2 38.2006 186.9 38.2006C186.7 38.2006 186.5 38.2006 186.2 38.2996C185.9 38.4006 185.7 38.4006 185.4 38.4996C185.2 38.5996 184.9 38.7006 184.7 38.7996C184.5 38.9006 184.3 38.9996 184.1 39.0996V44.0996C184.6 44.2006 185 44.2996 185.3 44.4006C185.6 44.4996 186 44.4996 186.4 44.4996C186.8 44.4996 187.1 44.4006 187.3 44.2996C187.5 44.2006 187.7 43.9996 187.9 43.7996C188.1 43.4996 188.2 43.2006 188.2 42.7996C188.5 42.2006 188.5 41.7006 188.5 41.0996M190.8 41.0996C190.8 41.9006 190.7 42.5996 190.6 43.2996C190.5 43.9006 190.3 44.4996 190 44.9006C189.7 45.2996 189.3 45.7006 188.8 45.9006C188.3 46.0996 187.6 46.2006 186.8 46.2006C186.5 46.2006 186.1 46.2006 185.6 46.0996C185.2 45.9996 184.7 45.9006 184.2 45.7996V49.2996C184.2 49.4006 184.2 49.4996 184.1 49.5996C184 49.7006 183.9 49.7006 183.8 49.7006H182.4C182.2 49.7006 182.1 49.7006 182.1 49.5996C182.1 49.4996 182 49.4006 182 49.2996V36.5996C182 36.2996 182.1 36.2006 182.4 36.2006H183.8C183.9 36.2006 184 36.2006 184.1 36.2996C184.2 36.3996 184.2 36.4996 184.2 36.5996V37.2006H184.3C184.5 37.0996 184.7 36.9996 184.9 36.7996C185.1 36.7006 185.4 36.4996 185.7 36.3996C186 36.2996 186.3 36.2006 186.6 36.0996C186.9 35.9996 187.2 35.9996 187.5 35.9996C188.2 35.9996 188.7 36.0996 189.1 36.3996C189.5 36.5996 189.9 36.9996 190.1 37.4006C190.3 37.7996 190.5 38.4006 190.6 38.9996C190.8 39.5996 190.8 40.2996 190.8 41.0996" fill="white"/>
<path fill-rule="evenodd" clip-rule="evenodd" d="M196.701 37.7998C196.301 37.7998 196.001 37.9008 195.801 37.9998C195.6 38.0998 195.401 38.2998 195.201 38.4998C195.001 38.6998 194.901 38.9998 194.901 39.2998C194.801 39.5998 194.801 39.9008 194.801 40.2998H198.801C198.801 39.9998 198.801 39.6998 198.701 39.4008C198.6 39.0998 198.501 38.9008 198.401 38.5998C198.301 38.2998 198.1 38.1998 197.801 38.0998C197.401 37.9008 197.1 37.7998 196.701 37.7998V37.7998ZM194.701 41.6998C194.701 42.1998 194.801 42.5998 194.901 42.9998C195.001 43.2998 195.201 43.5998 195.401 43.7998C195.6 43.9998 195.801 44.0998 196.1 44.1998C196.401 44.2998 196.701 44.2998 197.201 44.2998C197.6 44.2998 198.001 44.2998 198.501 44.1998C199.001 44.0998 199.401 44.0998 199.801 44.0998H200.201C200.301 44.0998 200.301 44.1998 200.401 44.4008L200.501 45.0998V45.4998C200.501 45.5998 200.401 45.6998 200.201 45.7998C200.001 45.9008 199.801 45.9998 199.501 45.9998C199.201 45.9998 199.001 46.0998 198.701 46.1998C198.401 46.2998 198.1 46.2998 197.801 46.2998H197.001C196.001 46.2998 195.301 46.1998 194.701 45.9008C194.1 45.5998 193.701 45.1998 193.401 44.7998C193.1 44.2998 192.901 43.7998 192.801 43.1998C192.701 42.5998 192.6 41.9998 192.6 41.2998C192.6 40.7998 192.6 40.2998 192.701 39.6998C192.801 39.0998 193.001 38.4998 193.301 37.9998C193.6 37.4998 194.001 36.9998 194.6 36.6998C195.201 36.2998 195.901 36.1998 196.901 36.1998C197.801 36.1998 198.501 36.2998 199.1 36.5998C199.701 36.8998 200.1 37.1998 200.401 37.5998C200.701 37.9998 200.901 38.4998 201.001 38.9998C201.1 39.4998 201.201 40.0998 201.201 40.5998C201.201 40.9998 201.201 41.2998 201.001 41.4998C200.801 41.6998 200.6 41.7998 200.201 41.7998H194.701V41.6998Z" fill="white"/>
<path fill-rule="evenodd" clip-rule="evenodd" d="M208.9 41.5996H206.5C206 41.5996 205.599 41.7006 205.299 41.9996C205 42.2006 204.9 42.7006 204.9 43.2996C204.9 43.7006 205 43.9996 205.2 44.2006C205.4 44.4006 205.7 44.4996 206.2 44.4996C206.4 44.4996 206.599 44.4996 206.9 44.4006C207.2 44.2996 207.4 44.2996 207.7 44.2006C208 44.0996 208.2 43.9996 208.4 43.9006C208.599 43.7996 208.9 43.7006 209 43.5996V41.5996H208.9ZM209 44.9006C208.5 45.2996 207.9 45.5996 207.299 45.7996C206.7 45.9996 206 46.2006 205.299 46.2006C204.799 46.2006 204.299 46.0996 204 45.9996C203.599 45.9006 203.4 45.7006 203.2 45.4006C203 45.2006 202.799 44.9006 202.799 44.4996C202.7 44.2006 202.7 43.7996 202.7 43.2996C202.7 42.0996 203 41.2996 203.599 40.7006C204.2 40.2006 205.2 39.9006 206.4 39.9006H209V39.4006C209 39.0996 209 38.9006 208.9 38.5996C208.799 38.4006 208.7 38.2006 208.599 38.0996C208.4 37.9996 208.2 37.9006 208 37.7996C207.7 37.7006 207.4 37.7006 207 37.7006H206.4H205.7C205.5 37.7006 205.2 37.7006 205 37.7996C204.799 37.7996 204.5 37.7996 204.299 37.9006H203.9C203.799 37.9006 203.799 37.7996 203.7 37.5996L203.5 36.8996V36.5996C203.599 36.4996 203.7 36.3996 203.9 36.2996C204.099 36.2006 204.4 36.2006 204.7 36.0996C205 35.9996 205.299 35.9996 205.599 35.9996C205.9 35.9996 206.2 35.8996 206.5 35.8996H207.299C208.2 35.8996 208.9 35.9996 209.4 36.2006C209.9 36.3996 210.299 36.5996 210.599 36.8996C210.9 37.2006 211 37.5996 211.099 38.0996C211.2 38.5996 211.2 39.0996 211.2 39.5996V43.4996V43.9996C211.2 44.0996 211.299 44.2006 211.299 44.2996C211.299 44.4006 211.4 44.4006 211.5 44.4006C211.599 44.4006 211.7 44.4006 211.9 44.4996C212 44.4996 212.099 44.4996 212.2 44.5996C212.299 44.5996 212.299 44.7006 212.299 44.7996V45.5996C212.299 45.7996 212.099 45.9996 211.799 45.9996C211.599 45.9996 211.5 45.9996 211.299 46.0996H210.799C210.299 46.0996 210 45.9996 209.7 45.7996C209.299 45.7006 209.099 45.4006 209 44.9006V44.9006Z" fill="white"/>
<path fill-rule="evenodd" clip-rule="evenodd" d="M222.1 46C222 46.1 221.901 46.1 221.8 46.1H220.3C220 46.1 219.901 46 219.901 45.7V40.1C219.901 39.5 219.8 39 219.6 38.7C219.401 38.3 219 38.2 218.401 38.2C218.201 38.2 218 38.2 217.701 38.3C217.401 38.4 217.201 38.5 216.901 38.6C216.6 38.7 216.401 38.8 216.201 38.9C216 39 215.8 39.1 215.701 39.2V45.9C215.701 46.2 215.6 46.3 215.3 46.3H213.901C213.6 46.3 213.5 46.2 213.5 45.9V36.8C213.5 36.5 213.6 36.4 213.901 36.4H215.3C215.6 36.4 215.701 36.5 215.701 36.8V37.4C215.901 37.3 216.1 37.1 216.401 37C216.701 36.9 216.901 36.7 217.201 36.6L218.1 36.3C218.401 36.2 218.701 36.2 219 36.2C219.701 36.2 220.201 36.3 220.6 36.5C221 36.7 221.3 37 221.5 37.3C221.701 37.6 221.8 38.1 221.901 38.5C222 39 222 39.4 222 40V45.8C222.1 45.8 222.1 45.9 222.1 46" fill="white"/>
<path fill-rule="evenodd" clip-rule="evenodd" d="M143.2 59.7998C143.2 58.9008 143.3 58.0998 143.4 57.2998C143.5 56.4998 143.8 55.6998 144.2 55.0998C144.6 54.4998 145.1 53.9008 145.8 53.4998C146.5 53.0998 147.4 52.9008 148.599 52.9008H149.4C149.7 52.9008 150 52.9998 150.4 52.9998C150.7 52.9998 151.099 53.0998 151.4 53.1998C151.7 53.2998 152 53.4008 152.3 53.4998C152.5 53.5998 152.599 53.5998 152.599 53.6998C152.599 53.7998 152.7 53.9008 152.7 54.0998L152.5 54.9008C152.5 54.9998 152.4 55.0998 152.4 55.1998C152.3 55.2998 152.2 55.2998 152 55.1998C151.5 55.0998 151 55.0998 150.4 54.9998C149.8 54.9008 149.3 54.9008 148.8 54.9008C148.099 54.9008 147.599 54.9998 147.2 55.2998C146.8 55.5998 146.5 55.9008 146.2 56.2998C146 56.6998 145.8 57.2998 145.8 57.7998C145.8 58.2998 145.7 58.9998 145.7 59.6998C145.7 60.4008 145.7 60.9998 145.8 61.4998C145.9 62.0998 146 62.5998 146.3 62.9998C146.5 63.4008 146.8 63.7998 147.3 63.9998C147.7 64.1998 148.2 64.4008 148.9 64.4008C149.5 64.4008 150 64.4008 150.5 64.2998C151 64.1998 151.5 64.1998 152.099 64.0998H152.5C152.599 64.1998 152.599 64.1998 152.7 64.4008L152.9 65.1998C153 65.4998 152.9 65.6998 152.599 65.7998C152.4 65.9008 152.099 65.9998 151.7 66.0998C151.4 66.1998 151 66.1998 150.7 66.2998C150.4 66.4008 150 66.4008 149.7 66.4008H148.8C147.7 66.4008 146.8 66.1998 146.099 65.7998C145.4 65.4008 144.8 64.9008 144.5 64.2998C144.1 63.6998 143.8 62.9998 143.7 62.1998C143.3 61.4998 143.2 60.6998 143.2 59.7998" fill="white"/>
<path fill-rule="evenodd" clip-rule="evenodd" d="M160.599 61.4004C160.599 60.9004 160.599 60.4004 160.499 60.0004C160.4 59.5994 160.299 59.2994 160.2 59.0004C159.999 58.7004 159.799 58.5004 159.499 58.4004C159.2 58.2994 158.9 58.2004 158.4 58.2004C157.999 58.2004 157.599 58.2994 157.4 58.4004C157.2 58.5004 156.9 58.7004 156.799 59.0004C156.599 59.2994 156.499 59.5994 156.499 60.0004C156.4 60.4004 156.4 60.9004 156.4 61.4004C156.4 61.9004 156.4 62.4004 156.499 62.7994C156.599 63.2004 156.7 63.5004 156.799 63.7994C156.9 64.0994 157.2 64.2994 157.4 64.4004C157.599 64.5004 157.999 64.5994 158.4 64.5994C158.9 64.5994 159.2 64.5004 159.499 64.4004C159.799 64.2994 159.999 64.0994 160.2 63.7994C160.4 63.5004 160.499 63.2004 160.499 62.7994C160.499 62.4004 160.599 62.0004 160.599 61.4004M162.9 61.2994C162.9 61.9004 162.9 62.5004 162.799 63.0994C162.7 63.7004 162.499 64.2994 162.2 64.7994C161.9 65.2994 161.499 65.7004 160.9 66.0994C160.299 66.4004 159.499 66.5994 158.499 66.5994C157.499 66.5994 156.7 66.4004 156.099 66.0994C155.499 65.7994 155.099 65.4004 154.799 64.7994C154.499 64.2994 154.299 63.7004 154.299 63.0994C154.2 62.5004 154.2 61.9004 154.2 61.2994C154.2 60.7994 154.2 60.2994 154.299 59.7004C154.4 59.0994 154.599 58.5994 154.9 58.0994C155.2 57.5994 155.599 57.2004 156.2 56.7994C156.799 56.5004 157.499 56.2994 158.499 56.2994C159.499 56.2994 160.299 56.4004 160.799 56.7004C161.4 57.0004 161.799 57.4004 162.099 57.9004C162.4 58.4004 162.599 58.9004 162.7 59.5004C162.799 60.0994 162.9 60.7004 162.9 61.2994" fill="white"/>
<path fill-rule="evenodd" clip-rule="evenodd" d="M179.2 66.2998C179.2 66.4008 179.099 66.4008 178.9 66.4008H177.5C177.2 66.4008 177.099 66.2998 177.099 65.9998V60.2998C177.099 59.5998 177 58.9998 176.8 58.7998C176.599 58.4998 176.2 58.4008 175.7 58.4008C175.5 58.4008 175.3 58.4008 175.099 58.4998C174.9 58.5998 174.599 58.5998 174.4 58.6998C174.2 58.7998 173.9 58.9008 173.7 58.9998C173.5 59.0998 173.3 59.1998 173.099 59.2998V59.6998V60.2998V65.9998C173.099 66.0998 173.099 66.1998 173 66.2998C172.9 66.4008 172.8 66.4008 172.7 66.4008H171.2C171 66.4008 170.9 66.2998 170.9 65.9998V60.1998C170.9 59.5998 170.8 59.0998 170.599 58.7998C170.4 58.4998 170.099 58.4008 169.599 58.4008C169.4 58.4008 169.2 58.4008 169 58.4998C168.8 58.5998 168.599 58.5998 168.3 58.6998C168.099 58.7998 167.8 58.9008 167.599 58.9998C167.4 59.0998 167.2 59.1998 167 59.2998V65.9998C167 66.2998 166.9 66.4008 166.599 66.4008H165.2C165 66.4008 164.8 66.2998 164.8 65.9998V56.9008C164.8 56.5998 164.9 56.4998 165.2 56.4998H166.599C166.9 56.4998 167 56.5998 167 56.9008V57.4998C167.2 57.4008 167.4 57.1998 167.599 57.0998C167.8 56.9998 168.099 56.7998 168.3 56.6998C168.5 56.5998 168.8 56.4998 169.099 56.4008C169.4 56.2998 169.599 56.2998 169.9 56.2998C170.5 56.2998 171 56.4008 171.5 56.5998C172 56.7998 172.4 57.1998 172.7 57.6998C173.2 57.2998 173.8 56.9998 174.4 56.6998C175 56.4008 175.599 56.2998 176.3 56.2998C177 56.2998 177.5 56.4008 177.9 56.5998C178.3 56.7998 178.599 57.0998 178.8 57.4008C179 57.6998 179.099 58.0998 179.2 58.5998C179.3 59.0998 179.3 59.4998 179.3 59.9998V65.9998C179.2 66.0998 179.2 66.1998 179.2 66.2998" fill="white"/>
<path fill-rule="evenodd" clip-rule="evenodd" d="M195.7 66.2998C195.7 66.4008 195.599 66.4008 195.4 66.4008H194C193.7 66.4008 193.599 66.2998 193.599 65.9998V60.2998C193.599 59.5998 193.5 58.9998 193.3 58.7998C193.099 58.4998 192.7 58.4008 192.2 58.4008C192 58.4008 191.8 58.4008 191.599 58.4998C191.4 58.5998 191.099 58.5998 190.9 58.6998C190.7 58.7998 190.4 58.9008 190.2 58.9998C190 59.0998 189.8 59.1998 189.599 59.2998V59.6998V60.2998V65.9998C189.599 66.0998 189.599 66.1998 189.5 66.2998C189.4 66.4008 189.3 66.4008 189.2 66.4008H187.7C187.5 66.4008 187.4 66.2998 187.4 65.9998V60.1998C187.4 59.5998 187.3 59.0998 187.099 58.7998C186.9 58.4998 186.599 58.4008 186.099 58.4008C185.9 58.4008 185.7 58.4008 185.5 58.4998C185.3 58.5998 185.099 58.5998 184.8 58.6998C184.5 58.7998 184.3 58.9008 184.099 58.9998C183.9 59.0998 183.7 59.1998 183.5 59.2998V65.9998C183.5 66.2998 183.4 66.4008 183.099 66.4008H181.7C181.5 66.4008 181.3 66.2998 181.3 65.9998V56.9008C181.3 56.5998 181.4 56.4998 181.7 56.4998H183.099C183.4 56.4998 183.5 56.5998 183.5 56.9008V57.4998C183.7 57.4008 183.9 57.1998 184.099 57.0998C184.3 56.9998 184.599 56.7998 184.8 56.6998C185.099 56.5998 185.3 56.4998 185.599 56.4008C185.9 56.2998 186.099 56.2998 186.4 56.2998C187 56.2998 187.5 56.4008 188 56.5998C188.5 56.7998 188.9 57.1998 189.2 57.6998C189.7 57.2998 190.3 56.9998 190.9 56.6998C191.5 56.4008 192.099 56.2998 192.8 56.2998C193.5 56.2998 194 56.4008 194.4 56.5998C194.8 56.7998 195.099 57.0998 195.3 57.4008C195.5 57.6998 195.599 58.0998 195.7 58.5998C195.8 59.0998 195.8 59.4998 195.8 59.9998V65.9998C195.8 66.0998 195.7 66.1998 195.7 66.2998" fill="white"/>
<path fill-rule="evenodd" clip-rule="evenodd" d="M200.401 66C200.401 66.1 200.401 66.2 200.3 66.3C200.3 66.4 200.201 66.4 200.001 66.4H198.6C198.3 66.4 198.201 66.3 198.201 66V56.9C198.201 56.6 198.3 56.5 198.6 56.5H200.001C200.1 56.5 200.201 56.5 200.3 56.6C200.3 56.7 200.401 56.8 200.401 56.9V66ZM200.501 53.9V54.4C200.501 54.5 200.401 54.7 200.3 54.8C200.201 54.9 200.1 55 199.901 55.1C199.701 55.2 199.501 55.2 199.3 55.2C199.001 55.2 198.8 55.2 198.701 55.1C198.501 55 198.401 54.9 198.3 54.8C198.201 54.7 198.201 54.6 198.1 54.4V54C198.1 53.7 198.201 53.4 198.3 53.2C198.501 53 198.8 52.9 199.3 52.9C199.8 52.9 200.1 53 200.3 53.2C200.401 53.3 200.501 53.6 200.501 53.9V53.9Z" fill="white"/>
<path fill-rule="evenodd" clip-rule="evenodd" d="M210.201 63.4004C210.201 64.0004 210.1 64.5004 209.901 64.9004C209.701 65.2994 209.401 65.5994 209.001 65.9004C208.6 66.0994 208.201 66.2994 207.701 66.4004C207.201 66.5004 206.701 66.5994 206.201 66.5994C205.701 66.5994 205.1 66.5994 204.6 66.5004C204.001 66.4004 203.501 66.2994 203.1 66.2004C202.901 66.0994 202.801 66.0004 202.701 65.9004C202.6 65.7994 202.6 65.7004 202.701 65.5004L202.801 64.7994C202.801 64.5994 202.901 64.5004 203.001 64.5004H203.401C203.6 64.5004 203.901 64.5994 204.1 64.5994C204.401 64.5994 204.6 64.5994 204.901 64.7004C205.201 64.7004 205.401 64.7004 205.6 64.7994H206.201C206.801 64.7994 207.301 64.7004 207.6 64.5004C207.901 64.2994 208.001 64.0004 208.001 63.5994C208.001 63.4004 208.001 63.2004 207.901 63.0004C207.801 62.7994 207.801 62.7004 207.6 62.5994C207.401 62.5004 207.301 62.4004 207.1 62.4004C206.901 62.2994 206.6 62.2994 206.301 62.2004C205.801 62.0994 205.301 62.0004 204.901 61.9004C204.501 61.7994 204.1 61.5994 203.701 61.4004C203.401 61.2004 203.1 60.9004 202.901 60.5994C202.701 60.2994 202.6 59.7994 202.6 59.2994C202.6 58.2994 202.901 57.5994 203.6 57.0004C204.301 56.5004 205.201 56.2004 206.301 56.2004H207.001C207.301 56.2004 207.501 56.2004 207.801 56.2994C208.1 56.2994 208.301 56.4004 208.6 56.4004C208.901 56.4004 209.1 56.5004 209.301 56.5994C209.6 56.7004 209.801 56.9004 209.701 57.2004L209.501 57.9004C209.501 58.0004 209.401 58.0994 209.301 58.2004H208.901C208.501 58.0994 208.001 58.0994 207.501 58.0004C207.001 58.0004 206.6 57.9004 206.201 57.9004C205.6 57.9004 205.1 58.0004 204.901 58.2004C204.701 58.4004 204.6 58.7004 204.6 59.0994C204.6 59.5004 204.701 59.7004 205.001 59.9004C205.301 60.0004 205.701 60.0994 206.301 60.2004C206.801 60.2994 207.201 60.4004 207.701 60.5004C208.201 60.5994 208.501 60.7994 208.901 61.0004C209.201 61.2004 209.501 61.5004 209.701 61.9004C210.1 62.2994 210.201 62.7994 210.201 63.4004" fill="white"/>
<path fill-rule="evenodd" clip-rule="evenodd" d="M219.401 63.4004C219.401 64.0004 219.3 64.5004 219.1 64.9004C218.901 65.2994 218.6 65.5994 218.201 65.9004C217.8 66.0994 217.401 66.2994 216.901 66.4004C216.401 66.5004 215.901 66.5994 215.401 66.5994C214.901 66.5994 214.3 66.5994 213.8 66.5004C213.201 66.4004 212.701 66.2994 212.3 66.2004C212.1 66.0994 212.001 66.0004 211.901 65.9004C211.8 65.7994 211.8 65.7004 211.901 65.5004L212.001 64.7994C212.001 64.5994 212.1 64.5004 212.201 64.5004H212.6C212.8 64.5004 213.1 64.5994 213.3 64.5994C213.6 64.5994 213.8 64.5994 214.1 64.7004C214.401 64.7004 214.6 64.7004 214.8 64.7994H215.401C216.001 64.7994 216.501 64.7004 216.8 64.5004C217.1 64.2994 217.201 64.0004 217.201 63.5994C217.201 63.4004 217.201 63.2004 217.1 63.0004C217.001 62.7994 217.001 62.7004 216.8 62.5994C216.6 62.5004 216.501 62.4004 216.3 62.4004C216.1 62.2994 215.8 62.2994 215.501 62.2004C215.001 62.0994 214.501 62.0004 214.1 61.9004C213.701 61.7994 213.3 61.5994 212.901 61.4004C212.6 61.2004 212.3 60.9004 212.1 60.5994C211.901 60.2994 211.8 59.7994 211.8 59.2994C211.8 58.2994 212.1 57.5994 212.8 57.0004C213.501 56.5004 214.401 56.2004 215.501 56.2004H216.201C216.501 56.2004 216.701 56.2004 217.001 56.2994C217.3 56.2994 217.501 56.4004 217.8 56.4004C218.1 56.4004 218.3 56.5004 218.501 56.5994C218.8 56.7004 219.001 56.9004 218.901 57.2004L218.701 57.9004C218.701 58.0004 218.6 58.0994 218.501 58.2004H218.1C217.701 58.0994 217.201 58.0994 216.701 58.0004C216.201 58.0004 215.8 57.9004 215.401 57.9004C214.8 57.9004 214.3 58.0004 214.1 58.2004C213.901 58.4004 213.8 58.7004 213.8 59.0994C213.8 59.5004 213.901 59.7004 214.201 59.9004C214.501 60.0004 214.901 60.0994 215.501 60.2004C216.001 60.2994 216.401 60.4004 216.901 60.5004C217.401 60.5994 217.701 60.7994 218.1 61.0004C218.401 61.2004 218.701 61.5004 218.901 61.9004C219.3 62.2994 219.401 62.7994 219.401 63.4004" fill="white"/>
<path fill-rule="evenodd" clip-rule="evenodd" d="M223.8 66C223.8 66.1 223.8 66.2 223.7 66.3C223.7 66.4 223.6 66.4 223.401 66.4H222C221.7 66.4 221.6 66.3 221.6 66V56.9C221.6 56.6 221.7 56.5 222 56.5H223.401C223.5 56.5 223.6 56.5 223.7 56.6C223.7 56.7 223.8 56.8 223.8 56.9V66ZM223.901 53.9V54.4C223.901 54.5 223.8 54.7 223.7 54.8C223.6 54.9 223.5 55 223.3 55.1C223.1 55.2 222.901 55.2 222.7 55.2C222.401 55.2 222.2 55.2 222.1 55.1C221.901 55 221.8 54.9 221.7 54.8C221.6 54.7 221.6 54.6 221.5 54.4V54C221.5 53.7 221.6 53.4 221.7 53.2C221.901 53 222.2 52.9 222.7 52.9C223.2 52.9 223.5 53 223.7 53.2C223.8 53.3 223.901 53.6 223.901 53.9V53.9Z" fill="white"/>
<path fill-rule="evenodd" clip-rule="evenodd" d="M232.5 61.4004C232.5 60.9004 232.5 60.4004 232.4 60.0004C232.3 59.5994 232.2 59.2994 232.1 59.0004C231.9 58.7004 231.7 58.5004 231.4 58.4004C231.1 58.2994 230.8 58.2004 230.3 58.2004C229.9 58.2004 229.5 58.2994 229.3 58.4004C229.1 58.5004 228.8 58.7004 228.7 59.0004C228.5 59.2994 228.4 59.5994 228.4 60.0004C228.3 60.4004 228.3 60.9004 228.3 61.4004C228.3 61.9004 228.3 62.4004 228.4 62.7994C228.5 63.2004 228.6 63.5004 228.7 63.7994C228.8 64.0994 229.1 64.2994 229.3 64.4004C229.5 64.5004 229.9 64.5994 230.3 64.5994C230.8 64.5994 231.1 64.5004 231.4 64.4004C231.7 64.2994 231.9 64.0994 232.1 63.7994C232.3 63.5004 232.4 63.2004 232.4 62.7994C232.4 62.4004 232.5 62.0004 232.5 61.4004M234.8 61.2994C234.8 61.9004 234.8 62.5004 234.7 63.0994C234.6 63.7004 234.4 64.2994 234.1 64.7994C233.8 65.2994 233.4 65.7004 232.8 66.0994C232.2 66.4004 231.4 66.5994 230.4 66.5994C229.4 66.5994 228.6 66.4004 228 66.0994C227.4 65.7994 227 65.4004 226.7 64.7994C226.4 64.2994 226.2 63.7004 226.2 63.0994C226.1 62.5004 226.1 61.9004 226.1 61.2994C226.1 60.7994 226.1 60.2994 226.2 59.7004C226.3 59.0994 226.5 58.5994 226.8 58.0994C227.1 57.5994 227.5 57.2004 228.1 56.7994C228.7 56.5004 229.4 56.2994 230.4 56.2994C231.4 56.2994 232.2 56.4004 232.7 56.7004C233.3 57.0004 233.7 57.4004 234 57.9004C234.3 58.4004 234.5 58.9004 234.6 59.5004C234.7 60.0994 234.8 60.7004 234.8 61.2994" fill="white"/>
<path fill-rule="evenodd" clip-rule="evenodd" d="M245.201 66.2998C245.1 66.4008 245.001 66.4008 244.901 66.4008H243.401C243.1 66.4008 243.001 66.2998 243.001 65.9998V60.4008C243.001 59.7998 242.901 59.2998 242.701 58.9998C242.501 58.5998 242.1 58.4998 241.501 58.4998C241.301 58.4998 241.1 58.4998 240.801 58.5998C240.501 58.6998 240.301 58.7998 240.001 58.9008C239.701 58.9998 239.501 59.0998 239.301 59.1998C239.1 59.2998 238.901 59.4008 238.801 59.4998V65.9998C238.801 66.2998 238.701 66.4008 238.401 66.4008H237.001C236.701 66.4008 236.6 66.2998 236.6 65.9998V56.9008C236.6 56.5998 236.701 56.4998 237.001 56.4998H238.401C238.701 56.4998 238.801 56.5998 238.801 56.9008V57.4998C239.001 57.4008 239.201 57.1998 239.501 57.0998C239.801 56.9998 240.001 56.7998 240.301 56.6998C240.6 56.5998 240.901 56.4998 241.201 56.4008C241.501 56.2998 241.801 56.2998 242.1 56.2998C242.801 56.2998 243.301 56.4008 243.701 56.5998C244.1 56.7998 244.401 57.0998 244.6 57.4008C244.801 57.6998 244.901 58.1998 245.001 58.5998C245.1 59.0998 245.1 59.4998 245.1 60.0998V65.9998C245.301 66.0998 245.201 66.1998 245.201 66.2998" fill="white"/>
<path fill-rule="evenodd" clip-rule="evenodd" d="M254.2 66.7H257.5V28H254.2V66.7Z" fill="white"/>
</g>
</svg>
