<svg
  width="291"
  height="72"
  viewBox="0 0 291 72"
  fill="none"
  xmlns="http://www.w3.org/2000/svg"
>
<path
    d="M144.894 33.2868C144.894 33.0201 145.027 32.8868 145.294 32.8868H152.654C152.907 32.8868 153.034 33.0134 153.034 33.2668V34.5068C153.034 34.7468 152.901 34.8668 152.634 34.8668H147.174V38.3068H152.014C152.281 38.3068 152.414 38.4268 152.414 38.6668V39.9068C152.414 40.1468 152.281 40.2668 152.014 40.2668H147.174V44.2068H152.774C153.014 44.2068 153.134 44.3334 153.134 44.5868V45.8068C153.134 46.0468 153.007 46.1668 152.754 46.1668H145.294C145.027 46.1668 144.894 46.0468 144.894 45.8068V33.2868Z"
    fill="white"
  />
<path
    d="M155.561 46.1668C155.361 46.1668 155.227 46.1334 155.161 46.0668C155.094 45.9868 155.061 45.8801 155.061 45.7468V36.7468C155.061 36.6001 155.087 36.5001 155.141 36.4468C155.207 36.3934 155.327 36.3668 155.501 36.3668H159.761C160.921 36.3668 161.767 36.6068 162.301 37.0868C162.834 37.5668 163.101 38.2134 163.101 39.0268C163.101 39.2934 163.027 39.6201 162.881 40.0068C162.734 40.3934 162.421 40.7201 161.941 40.9868C162.234 41.1068 162.474 41.2668 162.661 41.4668C162.847 41.6534 162.994 41.8534 163.101 42.0668C163.207 42.2668 163.281 42.4734 163.321 42.6868C163.361 42.9001 163.381 43.0934 163.381 43.2668C163.381 43.7068 163.287 44.1068 163.101 44.4668C162.927 44.8268 162.687 45.1334 162.381 45.3868C162.074 45.6401 161.714 45.8334 161.301 45.9668C160.887 46.1001 160.454 46.1668 160.001 46.1668H155.561ZM161.161 43.1468C161.161 42.8134 161.054 42.5201 160.841 42.2668C160.641 42.0001 160.287 41.8668 159.781 41.8668H157.221V44.3668H159.561C159.881 44.3668 160.141 44.3268 160.341 44.2468C160.554 44.1668 160.721 44.0668 160.841 43.9468C160.961 43.8268 161.041 43.6934 161.081 43.5468C161.134 43.4001 161.161 43.2668 161.161 43.1468ZM160.881 39.1868C160.881 39.0534 160.854 38.9268 160.801 38.8068C160.761 38.6868 160.687 38.5801 160.581 38.4868C160.474 38.3801 160.327 38.3001 160.141 38.2468C159.967 38.1801 159.747 38.1468 159.481 38.1468H157.221V40.3068H159.621C160.007 40.3068 160.314 40.2001 160.541 39.9868C160.767 39.7601 160.881 39.4934 160.881 39.1868Z"
    fill="white"
  />
<path
    d="M173.897 41.2068C173.897 42.0201 173.837 42.7468 173.717 43.3868C173.597 44.0268 173.384 44.5668 173.077 45.0068C172.784 45.4468 172.377 45.7801 171.857 46.0068C171.351 46.2334 170.704 46.3468 169.917 46.3468C169.584 46.3468 169.197 46.3134 168.757 46.2468C168.331 46.1801 167.884 46.0668 167.417 45.9068L167.397 45.9268V49.4468C167.397 49.5534 167.371 49.6468 167.317 49.7268C167.277 49.8068 167.177 49.8468 167.017 49.8468H165.597C165.437 49.8468 165.331 49.8134 165.277 49.7468C165.237 49.6801 165.217 49.5801 165.217 49.4468V36.7668C165.217 36.5001 165.344 36.3668 165.597 36.3668H167.017C167.164 36.3668 167.257 36.4068 167.297 36.4868C167.351 36.5534 167.377 36.6468 167.377 36.7668V37.3668L167.437 37.4068C167.611 37.2868 167.817 37.1601 168.057 37.0268C168.311 36.8801 168.577 36.7468 168.857 36.6268C169.137 36.5068 169.424 36.4068 169.717 36.3268C170.011 36.2468 170.304 36.2068 170.597 36.2068C171.251 36.2068 171.791 36.3268 172.217 36.5668C172.644 36.8068 172.977 37.1468 173.217 37.5868C173.471 38.0134 173.644 38.5334 173.737 39.1468C173.844 39.7601 173.897 40.4468 173.897 41.2068ZM171.637 41.1868C171.637 40.5468 171.604 40.0334 171.537 39.6468C171.484 39.2601 171.391 38.9601 171.257 38.7468C171.124 38.5334 170.957 38.3934 170.757 38.3268C170.571 38.2468 170.344 38.2068 170.077 38.2068C169.877 38.2068 169.651 38.2401 169.397 38.3068C169.144 38.3734 168.891 38.4534 168.637 38.5468C168.397 38.6268 168.164 38.7201 167.937 38.8268C167.724 38.9334 167.544 39.0268 167.397 39.1068V44.1068C167.851 44.2401 168.257 44.3334 168.617 44.3868C168.991 44.4268 169.351 44.4468 169.697 44.4468C170.057 44.4468 170.357 44.4001 170.597 44.3068C170.851 44.2001 171.051 44.0201 171.197 43.7668C171.357 43.5134 171.471 43.1801 171.537 42.7668C171.604 42.3401 171.637 41.8134 171.637 41.1868Z"
    fill="white"
  />
<path
    d="M184.187 41.1068C184.187 41.6801 184.147 42.2734 184.067 42.8868C184 43.5001 183.82 44.0668 183.527 44.5868C183.234 45.0934 182.794 45.5134 182.207 45.8468C181.62 46.1668 180.807 46.3268 179.767 46.3268C178.767 46.3268 177.98 46.1668 177.407 45.8468C176.834 45.5134 176.4 45.0934 176.107 44.5868C175.827 44.0668 175.654 43.5001 175.587 42.8868C175.52 42.2734 175.487 41.6801 175.487 41.1068C175.487 40.6401 175.527 40.1201 175.607 39.5468C175.7 38.9734 175.894 38.4401 176.187 37.9468C176.48 37.4401 176.907 37.0201 177.467 36.6868C178.04 36.3401 178.807 36.1668 179.767 36.1668C180.74 36.1668 181.514 36.3134 182.087 36.6068C182.674 36.9001 183.12 37.2868 183.427 37.7668C183.734 38.2334 183.934 38.7601 184.027 39.3468C184.134 39.9334 184.187 40.5201 184.187 41.1068ZM181.947 41.2468C181.947 40.7134 181.92 40.2534 181.867 39.8668C181.814 39.4668 181.707 39.1401 181.547 38.8868C181.387 38.6201 181.167 38.4201 180.887 38.2868C180.607 38.1534 180.24 38.0868 179.787 38.0868C179.36 38.0868 179.014 38.1534 178.747 38.2868C178.48 38.4201 178.267 38.6201 178.107 38.8868C177.96 39.1534 177.854 39.4868 177.787 39.8868C177.734 40.2734 177.707 40.7268 177.707 41.2468C177.707 41.7801 177.734 42.2468 177.787 42.6468C177.854 43.0334 177.96 43.3601 178.107 43.6268C178.254 43.8801 178.46 44.0734 178.727 44.2068C178.994 44.3401 179.34 44.4068 179.767 44.4068C180.22 44.4068 180.587 44.3468 180.867 44.2268C181.16 44.0934 181.387 43.9001 181.547 43.6468C181.707 43.3801 181.814 43.0468 181.867 42.6468C181.92 42.2468 181.947 41.7801 181.947 41.2468Z"
    fill="white"
  />
<path
    d="M194.676 45.7868C194.676 46.0401 194.542 46.1668 194.276 46.1668H192.856C192.602 46.1668 192.476 46.0401 192.476 45.7868L192.496 38.2068H188.296V45.7868C188.296 45.8934 188.269 45.9868 188.216 46.0668C188.162 46.1334 188.062 46.1668 187.916 46.1668H186.496C186.242 46.1668 186.116 46.0401 186.116 45.7868V36.7468C186.116 36.4934 186.242 36.3668 186.496 36.3668H194.296C194.442 36.3668 194.542 36.3934 194.596 36.4468C194.649 36.5001 194.676 36.6001 194.676 36.7468V45.7868Z"
    fill="white"
  />
<path
    d="M198.86 41.8668C198.874 42.3734 198.927 42.7934 199.02 43.1268C199.127 43.4601 199.28 43.7268 199.48 43.9268C199.68 44.1134 199.927 44.2468 200.22 44.3268C200.514 44.4068 200.867 44.4468 201.28 44.4468C201.64 44.4468 202.067 44.4201 202.56 44.3668C203.054 44.3134 203.494 44.2668 203.88 44.2268C204.067 44.2001 204.194 44.2068 204.26 44.2468C204.34 44.2734 204.394 44.3801 204.42 44.5668L204.54 45.2268C204.567 45.3734 204.56 45.4934 204.52 45.5868C204.494 45.6801 204.387 45.7668 204.2 45.8468C204 45.9268 203.767 46.0001 203.5 46.0668C203.234 46.1201 202.954 46.1668 202.66 46.2068C202.367 46.2468 202.074 46.2801 201.78 46.3068C201.487 46.3334 201.22 46.3468 200.98 46.3468C200.02 46.3468 199.254 46.2068 198.68 45.9268C198.107 45.6468 197.667 45.2734 197.36 44.8068C197.054 44.3401 196.847 43.8068 196.74 43.2068C196.647 42.5934 196.6 41.9601 196.6 41.3068C196.6 40.8268 196.64 40.2868 196.72 39.6868C196.8 39.0868 196.98 38.5268 197.26 38.0068C197.554 37.4868 197.98 37.0534 198.54 36.7068C199.114 36.3468 199.887 36.1668 200.86 36.1668C201.754 36.1668 202.474 36.3001 203.02 36.5668C203.58 36.8334 204.014 37.1801 204.32 37.6068C204.627 38.0201 204.834 38.5001 204.94 39.0468C205.06 39.5801 205.127 40.1134 205.14 40.6468C205.154 41.0068 205.094 41.3001 204.96 41.5268C204.827 41.7534 204.56 41.8668 204.16 41.8668H198.86ZM200.86 37.9668C200.487 37.9668 200.18 38.0201 199.94 38.1268C199.7 38.2334 199.5 38.3934 199.34 38.6068C199.194 38.8068 199.087 39.0601 199.02 39.3668C198.954 39.6601 198.907 39.9934 198.88 40.3668H202.84C202.84 40.0601 202.814 39.7668 202.76 39.4868C202.707 39.1934 202.607 38.9334 202.46 38.7068C202.327 38.4801 202.127 38.3001 201.86 38.1668C201.607 38.0334 201.274 37.9668 200.86 37.9668Z"
    fill="white"
  />
<path
    d="M206.917 36.8068C206.917 36.6601 206.943 36.5534 206.997 36.4868C207.063 36.4068 207.177 36.3668 207.337 36.3668H208.637C208.823 36.3668 208.943 36.4068 208.997 36.4868C209.05 36.5668 209.077 36.6734 209.077 36.8068V42.6468H209.117L211.737 39.0868L213.517 36.7268C213.597 36.6201 213.677 36.5334 213.757 36.4668C213.85 36.4001 213.997 36.3668 214.197 36.3668H215.237C215.397 36.3668 215.51 36.4134 215.577 36.5068C215.643 36.5868 215.677 36.6801 215.677 36.7868V45.7468C215.677 46.0268 215.523 46.1668 215.217 46.1668H213.957C213.65 46.1668 213.497 46.0268 213.497 45.7468V39.6268H213.477C213.01 40.2668 212.543 40.9001 212.077 41.5268C211.61 42.1534 211.143 42.7868 210.677 43.4268C210.383 43.8268 210.09 44.2268 209.797 44.6268C209.503 45.0134 209.203 45.4068 208.897 45.8068C208.817 45.9134 208.723 46.0001 208.617 46.0668C208.523 46.1334 208.383 46.1668 208.197 46.1668H207.337C207.177 46.1668 207.063 46.1334 206.997 46.0668C206.943 46.0001 206.917 45.8934 206.917 45.7468V36.8068ZM211.317 35.4468C210.663 35.4468 210.023 35.2801 209.397 34.9468C208.783 34.6001 208.317 34.0734 207.997 33.3668C207.943 33.2601 207.897 33.1468 207.857 33.0268C207.817 32.9068 207.85 32.8001 207.957 32.7068L208.497 32.2668C208.617 32.1868 208.71 32.1668 208.777 32.2068C208.843 32.2334 208.923 32.2934 209.017 32.3868C209.417 32.8668 209.777 33.2201 210.097 33.4468C210.43 33.6734 210.843 33.7868 211.337 33.7868C211.563 33.7868 211.763 33.7601 211.937 33.7068C212.123 33.6534 212.297 33.5668 212.457 33.4468C212.63 33.3268 212.803 33.1801 212.977 33.0068C213.15 32.8334 213.343 32.6268 213.557 32.3868C213.717 32.2001 213.883 32.1668 214.057 32.2868L214.597 32.6268C214.73 32.7068 214.77 32.8134 214.717 32.9468C214.677 33.0801 214.63 33.2068 214.577 33.3268C214.217 34.0334 213.75 34.5668 213.177 34.9268C212.603 35.2734 211.983 35.4468 211.317 35.4468Z"
    fill="white"
  />
<path
    d="M225.236 45.2468C225.276 45.3934 225.276 45.5134 225.236 45.6068C225.196 45.7001 225.083 45.7868 224.896 45.8668C224.51 46.0268 224.03 46.1401 223.456 46.2068C222.883 46.2868 222.35 46.3268 221.856 46.3268C220.923 46.3268 220.17 46.1868 219.596 45.9068C219.036 45.6268 218.603 45.2534 218.296 44.7868C218.003 44.3201 217.81 43.7801 217.716 43.1668C217.623 42.5401 217.576 41.8868 217.576 41.2068C217.576 40.5934 217.623 39.9868 217.716 39.3868C217.823 38.7734 218.023 38.2334 218.316 37.7668C218.623 37.2868 219.056 36.9001 219.616 36.6068C220.19 36.3134 220.936 36.1668 221.856 36.1668C222.083 36.1668 222.33 36.1734 222.596 36.1868C222.876 36.2001 223.15 36.2268 223.416 36.2668C223.696 36.3068 223.963 36.3601 224.216 36.4268C224.483 36.4801 224.723 36.5534 224.936 36.6468C225.176 36.7534 225.276 36.9401 225.236 37.2068L225.096 38.0068C225.056 38.1534 224.99 38.2401 224.896 38.2668C224.803 38.2934 224.663 38.3001 224.476 38.2868C224.063 38.2468 223.636 38.2068 223.196 38.1668C222.77 38.1268 222.383 38.1068 222.036 38.1068C221.223 38.1068 220.656 38.3401 220.336 38.8068C220.016 39.2734 219.856 40.0601 219.856 41.1668C219.856 41.7934 219.89 42.3134 219.956 42.7268C220.036 43.1401 220.163 43.4734 220.336 43.7268C220.51 43.9801 220.73 44.1601 220.996 44.2668C221.276 44.3601 221.616 44.4068 222.016 44.4068C222.323 44.4068 222.723 44.3934 223.216 44.3668C223.723 44.3268 224.183 44.2801 224.596 44.2268C224.756 44.2001 224.876 44.2001 224.956 44.2268C225.036 44.2534 225.09 44.3534 225.116 44.5268L225.236 45.2468Z"
    fill="white"
  />
<path
    d="M228.901 45.8268C228.901 45.9334 228.881 46.0201 228.841 46.0868C228.801 46.1401 228.708 46.1668 228.561 46.1668H227.061C226.835 46.1668 226.721 46.0534 226.721 45.8268V36.7268C226.721 36.4868 226.835 36.3668 227.061 36.3668H228.561C228.708 36.3668 228.801 36.4001 228.841 36.4668C228.881 36.5334 228.901 36.6201 228.901 36.7268V40.2468H229.921C230.108 40.2468 230.281 40.2334 230.441 40.2068C230.615 40.1801 230.768 40.1201 230.901 40.0268C231.048 39.9201 231.181 39.7734 231.301 39.5868C231.435 39.4001 231.561 39.1534 231.681 38.8468L232.481 36.6868C232.535 36.5668 232.601 36.4868 232.681 36.4468C232.761 36.4068 232.881 36.3868 233.041 36.3868H234.261C234.448 36.3868 234.555 36.4268 234.581 36.5068C234.621 36.5868 234.621 36.6934 234.581 36.8268L233.881 38.9068C233.668 39.5334 233.441 40.0268 233.201 40.3868C232.961 40.7468 232.661 40.9801 232.301 41.0868V41.1068C232.768 41.2668 233.115 41.5001 233.341 41.8068C233.568 42.1001 233.775 42.5134 233.961 43.0468L234.841 45.7268C234.881 45.8468 234.888 45.9534 234.861 46.0468C234.835 46.1268 234.721 46.1668 234.521 46.1668H233.181C233.035 46.1668 232.915 46.1468 232.821 46.1068C232.741 46.0668 232.681 45.9868 232.641 45.8668L231.861 43.5668C231.648 42.9534 231.368 42.5534 231.021 42.3668C230.675 42.1801 230.315 42.0868 229.941 42.0868H228.901V45.8268Z"
    fill="white"
  />
<path
    d="M242.548 41.7068H240.108C239.601 41.7068 239.201 41.8268 238.908 42.0668C238.614 42.2934 238.468 42.7334 238.468 43.3868C238.468 43.8268 238.554 44.1334 238.728 44.3068C238.914 44.4668 239.241 44.5468 239.708 44.5468C239.921 44.5468 240.154 44.5201 240.408 44.4668C240.661 44.4134 240.914 44.3401 241.168 44.2468C241.421 44.1534 241.668 44.0534 241.908 43.9468C242.148 43.8268 242.361 43.7134 242.548 43.6068V41.7068ZM242.668 45.0268C242.161 45.4134 241.588 45.7268 240.948 45.9668C240.321 46.2068 239.668 46.3268 238.988 46.3268C238.454 46.3268 238.008 46.2601 237.648 46.1268C237.301 45.9801 237.021 45.7868 236.808 45.5468C236.608 45.2934 236.461 44.9934 236.368 44.6468C236.288 44.3001 236.248 43.9134 236.248 43.4868C236.234 42.3134 236.541 41.4668 237.168 40.9468C237.794 40.4134 238.741 40.1468 240.008 40.1468H242.568V39.6268C242.568 39.3334 242.534 39.0868 242.468 38.8868C242.414 38.6734 242.308 38.5001 242.148 38.3668C241.988 38.2334 241.774 38.1401 241.508 38.0868C241.241 38.0334 240.901 38.0068 240.488 38.0068C240.328 38.0068 240.128 38.0134 239.888 38.0268C239.661 38.0401 239.421 38.0534 239.168 38.0668C238.928 38.0801 238.681 38.1001 238.428 38.1268C238.188 38.1534 237.968 38.1734 237.768 38.1868C237.568 38.2134 237.428 38.2201 237.348 38.2068C237.281 38.1801 237.234 38.0934 237.208 37.9468L237.028 37.2068C237.001 37.0734 237.014 36.9668 237.068 36.8868C237.121 36.7934 237.261 36.7001 237.488 36.6068C237.701 36.5268 237.954 36.4601 238.248 36.4068C238.541 36.3534 238.841 36.3134 239.148 36.2868C239.454 36.2468 239.754 36.2201 240.048 36.2068C240.354 36.1801 240.628 36.1668 240.868 36.1668C241.734 36.1668 242.421 36.2534 242.928 36.4268C243.448 36.6001 243.841 36.8468 244.108 37.1668C244.374 37.4734 244.548 37.8534 244.628 38.3068C244.708 38.7601 244.748 39.2668 244.748 39.8268V43.6868C244.748 43.8868 244.754 44.0468 244.768 44.1668C244.794 44.2734 244.828 44.3601 244.868 44.4268C244.921 44.4801 244.994 44.5201 245.088 44.5468C245.181 44.5734 245.308 44.5934 245.468 44.6068C245.614 44.6201 245.714 44.6468 245.768 44.6868C245.821 44.7268 245.848 44.8001 245.848 44.9068V45.7468C245.848 45.9734 245.688 46.1134 245.368 46.1668C245.208 46.1934 245.048 46.2134 244.888 46.2268C244.728 46.2534 244.574 46.2668 244.428 46.2668C243.961 46.2668 243.581 46.1801 243.288 46.0068C243.008 45.8334 242.814 45.5134 242.708 45.0468L242.668 45.0268Z"
    fill="white"
  />
<path
    d="M254.929 36.3468C255.115 36.3468 255.242 36.3801 255.309 36.4468C255.375 36.5001 255.409 36.6001 255.409 36.7468V45.7468C255.409 46.0134 255.249 46.1468 254.929 46.1468H253.669C253.495 46.1468 253.375 46.1134 253.309 46.0468C253.255 45.9801 253.229 45.8801 253.229 45.7468V42.3468H251.209C250.862 42.3734 250.569 42.4868 250.329 42.6868C250.102 42.8734 249.895 43.2468 249.709 43.8068L249.069 45.7468C249.015 45.9068 248.949 46.0201 248.869 46.0868C248.789 46.1401 248.655 46.1668 248.469 46.1668H247.149C246.962 46.1668 246.849 46.1334 246.809 46.0668C246.782 45.9868 246.789 45.8734 246.829 45.7268L247.529 43.5868C247.675 43.1868 247.829 42.8401 247.989 42.5468C248.149 42.2401 248.375 42.0068 248.669 41.8468C248.375 41.7401 248.135 41.6001 247.949 41.4268C247.762 41.2401 247.615 41.0401 247.509 40.8268C247.402 40.6001 247.329 40.3668 247.289 40.1268C247.249 39.8868 247.229 39.6534 247.229 39.4268C247.229 38.9201 247.322 38.4801 247.509 38.1068C247.695 37.7201 247.949 37.4001 248.269 37.1468C248.589 36.8801 248.962 36.6801 249.389 36.5468C249.829 36.4134 250.289 36.3468 250.769 36.3468H254.929ZM249.389 39.4268C249.389 39.8134 249.502 40.1134 249.729 40.3268C249.969 40.5401 250.369 40.6468 250.929 40.6468H253.229V38.1468H251.029C250.549 38.1468 250.155 38.2534 249.849 38.4668C249.542 38.6801 249.389 39.0001 249.389 39.4268Z"
    fill="white"
  />
<path
    d="M147.074 65.8267C147.074 65.9334 147.054 66.0201 147.014 66.0867C146.974 66.1401 146.881 66.1667 146.734 66.1667H145.234C145.007 66.1667 144.894 66.0534 144.894 65.8267V56.7267C144.894 56.4867 145.007 56.3667 145.234 56.3667H146.734C146.881 56.3667 146.974 56.4001 147.014 56.4667C147.054 56.5334 147.074 56.6201 147.074 56.7267V60.2467H148.094C148.281 60.2467 148.454 60.2334 148.614 60.2067C148.787 60.1801 148.941 60.1201 149.074 60.0267C149.221 59.9201 149.354 59.7734 149.474 59.5867C149.607 59.4001 149.734 59.1534 149.854 58.8467L150.654 56.6867C150.707 56.5667 150.774 56.4867 150.854 56.4467C150.934 56.4067 151.054 56.3867 151.214 56.3867H152.434C152.621 56.3867 152.727 56.4267 152.754 56.5067C152.794 56.5867 152.794 56.6934 152.754 56.8267L152.054 58.9067C151.841 59.5334 151.614 60.0267 151.374 60.3867C151.134 60.7467 150.834 60.9801 150.474 61.0867V61.1067C150.941 61.2667 151.287 61.5001 151.514 61.8067C151.741 62.1001 151.947 62.5134 152.134 63.0467L153.014 65.7267C153.054 65.8467 153.061 65.9534 153.034 66.0467C153.007 66.1267 152.894 66.1667 152.694 66.1667H151.354C151.207 66.1667 151.087 66.1467 150.994 66.1067C150.914 66.0667 150.854 65.9867 150.814 65.8667L150.034 63.5667C149.821 62.9534 149.541 62.5534 149.194 62.3667C148.847 62.1801 148.487 62.0867 148.114 62.0867H147.074V65.8267Z"
    fill="white"
  />
<path
    d="M163.161 61.1067C163.161 61.6801 163.121 62.2734 163.041 62.8867C162.974 63.5001 162.794 64.0667 162.501 64.5867C162.207 65.0934 161.767 65.5134 161.181 65.8467C160.594 66.1667 159.781 66.3267 158.741 66.3267C157.741 66.3267 156.954 66.1667 156.381 65.8467C155.807 65.5134 155.374 65.0934 155.081 64.5867C154.801 64.0667 154.627 63.5001 154.561 62.8867C154.494 62.2734 154.461 61.6801 154.461 61.1067C154.461 60.6401 154.501 60.1201 154.581 59.5467C154.674 58.9734 154.867 58.4401 155.161 57.9467C155.454 57.4401 155.881 57.0201 156.441 56.6867C157.014 56.3401 157.781 56.1667 158.741 56.1667C159.714 56.1667 160.487 56.3134 161.061 56.6067C161.647 56.9001 162.094 57.2867 162.401 57.7667C162.707 58.2334 162.907 58.7601 163.001 59.3467C163.107 59.9334 163.161 60.5201 163.161 61.1067ZM160.921 61.2467C160.921 60.7134 160.894 60.2534 160.841 59.8667C160.787 59.4667 160.681 59.1401 160.521 58.8867C160.361 58.6201 160.141 58.4201 159.861 58.2867C159.581 58.1534 159.214 58.0867 158.761 58.0867C158.334 58.0867 157.987 58.1534 157.721 58.2867C157.454 58.4201 157.241 58.6201 157.081 58.8867C156.934 59.1534 156.827 59.4867 156.761 59.8867C156.707 60.2734 156.681 60.7267 156.681 61.2467C156.681 61.7801 156.707 62.2467 156.761 62.6467C156.827 63.0334 156.934 63.3601 157.081 63.6267C157.227 63.8801 157.434 64.0734 157.701 64.2067C157.967 64.3401 158.314 64.4067 158.741 64.4067C159.194 64.4067 159.561 64.3467 159.841 64.2267C160.134 64.0934 160.361 63.9001 160.521 63.6467C160.681 63.3801 160.787 63.0467 160.841 62.6467C160.894 62.2467 160.921 61.7801 160.921 61.2467Z"
    fill="white"
  />
<path
    d="M173.209 60.5267L172.329 62.2067C172.143 62.5667 171.963 62.9201 171.789 63.2667C171.616 63.6001 171.416 63.9667 171.189 64.3667C171.069 64.5934 170.876 64.7067 170.609 64.7067H169.929C169.743 64.7067 169.609 64.6801 169.529 64.6267C169.449 64.5734 169.383 64.4934 169.329 64.3867C169.143 64.0401 168.963 63.7201 168.789 63.4267C168.616 63.1334 168.449 62.8267 168.289 62.5067C168.116 62.2001 167.943 61.8667 167.769 61.5067C167.596 61.1467 167.423 60.8134 167.249 60.5067H167.209V65.7667C167.209 66.0334 167.056 66.1667 166.749 66.1667H165.509C165.229 66.1667 165.089 66.0334 165.089 65.7667V56.7867C165.089 56.5201 165.223 56.3867 165.489 56.3867H166.649C166.849 56.3867 166.989 56.4134 167.069 56.4667C167.163 56.5201 167.243 56.6067 167.309 56.7267C167.523 57.1134 167.729 57.5001 167.929 57.8867C168.143 58.2734 168.349 58.6601 168.549 59.0467C168.856 59.6067 169.143 60.1601 169.409 60.7067C169.689 61.2401 169.983 61.7867 170.289 62.3467L171.849 59.3867L173.269 56.7467C173.336 56.6267 173.416 56.5401 173.509 56.4867C173.616 56.4201 173.763 56.3867 173.949 56.3867H174.989C175.256 56.3867 175.389 56.5134 175.389 56.7667V65.7667C175.389 66.0334 175.249 66.1667 174.969 66.1667H173.709C173.416 66.1667 173.269 66.0334 173.269 65.7667V60.5267H173.209Z"
    fill="white"
  />
<path
    d="M177.492 56.8067C177.492 56.6601 177.518 56.5534 177.572 56.4867C177.638 56.4067 177.752 56.3667 177.912 56.3667H179.212C179.398 56.3667 179.518 56.4067 179.572 56.4867C179.625 56.5667 179.652 56.6734 179.652 56.8067V62.6467H179.692L182.312 59.0867L184.092 56.7267C184.172 56.6201 184.252 56.5334 184.332 56.4667C184.425 56.4001 184.572 56.3667 184.772 56.3667H185.812C185.972 56.3667 186.085 56.4134 186.152 56.5067C186.218 56.5867 186.252 56.6801 186.252 56.7867V65.7467C186.252 66.0267 186.098 66.1667 185.792 66.1667H184.532C184.225 66.1667 184.072 66.0267 184.072 65.7467V59.6267H184.052C183.585 60.2667 183.118 60.9001 182.652 61.5267C182.185 62.1534 181.718 62.7867 181.252 63.4267C180.958 63.8267 180.665 64.2267 180.372 64.6267C180.078 65.0134 179.778 65.4067 179.472 65.8067C179.392 65.9134 179.298 66.0001 179.192 66.0667C179.098 66.1334 178.958 66.1667 178.772 66.1667H177.912C177.752 66.1667 177.638 66.1334 177.572 66.0667C177.518 66.0001 177.492 65.8934 177.492 65.7467V56.8067Z"
    fill="white"
  />
<path
    d="M195.812 65.2467C195.852 65.3934 195.852 65.5134 195.812 65.6067C195.772 65.7001 195.658 65.7867 195.472 65.8667C195.085 66.0267 194.605 66.1401 194.032 66.2067C193.458 66.2867 192.925 66.3267 192.432 66.3267C191.498 66.3267 190.745 66.1867 190.172 65.9067C189.612 65.6267 189.178 65.2534 188.872 64.7867C188.578 64.3201 188.385 63.7801 188.292 63.1667C188.198 62.5401 188.152 61.8867 188.152 61.2067C188.152 60.5934 188.198 59.9867 188.292 59.3867C188.398 58.7734 188.598 58.2334 188.892 57.7667C189.198 57.2867 189.632 56.9001 190.192 56.6067C190.765 56.3134 191.512 56.1667 192.432 56.1667C192.658 56.1667 192.905 56.1734 193.172 56.1867C193.452 56.2001 193.725 56.2267 193.992 56.2667C194.272 56.3067 194.538 56.3601 194.792 56.4267C195.058 56.4801 195.298 56.5534 195.512 56.6467C195.752 56.7534 195.852 56.9401 195.812 57.2067L195.672 58.0067C195.632 58.1534 195.565 58.2401 195.472 58.2667C195.378 58.2934 195.238 58.3001 195.052 58.2867C194.638 58.2467 194.212 58.2067 193.772 58.1667C193.345 58.1267 192.958 58.1067 192.612 58.1067C191.798 58.1067 191.232 58.3401 190.912 58.8067C190.592 59.2734 190.432 60.0601 190.432 61.1667C190.432 61.7934 190.465 62.3134 190.532 62.7267C190.612 63.1401 190.738 63.4734 190.912 63.7267C191.085 63.9801 191.305 64.1601 191.572 64.2667C191.852 64.3601 192.192 64.4067 192.592 64.4067C192.898 64.4067 193.298 64.3934 193.792 64.3667C194.298 64.3267 194.758 64.2801 195.172 64.2267C195.332 64.2001 195.452 64.2001 195.532 64.2267C195.612 64.2534 195.665 64.3534 195.692 64.5267L195.812 65.2467Z"
    fill="white"
  />
<path
    d="M204.777 65.2467C204.817 65.3934 204.817 65.5134 204.777 65.6067C204.737 65.7001 204.623 65.7867 204.437 65.8667C204.05 66.0267 203.57 66.1401 202.997 66.2067C202.423 66.2867 201.89 66.3267 201.397 66.3267C200.463 66.3267 199.71 66.1867 199.137 65.9067C198.577 65.6267 198.143 65.2534 197.837 64.7867C197.543 64.3201 197.35 63.7801 197.257 63.1667C197.163 62.5401 197.117 61.8867 197.117 61.2067C197.117 60.5934 197.163 59.9867 197.257 59.3867C197.363 58.7734 197.563 58.2334 197.857 57.7667C198.163 57.2867 198.597 56.9001 199.157 56.6067C199.73 56.3134 200.477 56.1667 201.397 56.1667C201.623 56.1667 201.87 56.1734 202.137 56.1867C202.417 56.2001 202.69 56.2267 202.957 56.2667C203.237 56.3067 203.503 56.3601 203.757 56.4267C204.023 56.4801 204.263 56.5534 204.477 56.6467C204.717 56.7534 204.817 56.9401 204.777 57.2067L204.637 58.0067C204.597 58.1534 204.53 58.2401 204.437 58.2667C204.343 58.2934 204.203 58.3001 204.017 58.2867C203.603 58.2467 203.177 58.2067 202.737 58.1667C202.31 58.1267 201.923 58.1067 201.577 58.1067C200.763 58.1067 200.197 58.3401 199.877 58.8067C199.557 59.2734 199.397 60.0601 199.397 61.1667C199.397 61.7934 199.43 62.3134 199.497 62.7267C199.577 63.1401 199.703 63.4734 199.877 63.7267C200.05 63.9801 200.27 64.1601 200.537 64.2667C200.817 64.3601 201.157 64.4067 201.557 64.4067C201.863 64.4067 202.263 64.3934 202.757 64.3667C203.263 64.3267 203.723 64.2801 204.137 64.2267C204.297 64.2001 204.417 64.2001 204.497 64.2267C204.577 64.2534 204.63 64.3534 204.657 64.5267L204.777 65.2467Z"
    fill="white"
  />
<path
    d="M206.261 56.8067C206.261 56.6601 206.288 56.5534 206.341 56.4867C206.408 56.4067 206.521 56.3667 206.681 56.3667H207.981C208.168 56.3667 208.288 56.4067 208.341 56.4867C208.395 56.5667 208.421 56.6734 208.421 56.8067V62.6467H208.461L211.081 59.0867L212.861 56.7267C212.941 56.6201 213.021 56.5334 213.101 56.4667C213.195 56.4001 213.341 56.3667 213.541 56.3667H214.581C214.741 56.3667 214.855 56.4134 214.921 56.5067C214.988 56.5867 215.021 56.6801 215.021 56.7867V65.7467C215.021 66.0267 214.868 66.1667 214.561 66.1667H213.301C212.995 66.1667 212.841 66.0267 212.841 65.7467V59.6267H212.821C212.355 60.2667 211.888 60.9001 211.421 61.5267C210.955 62.1534 210.488 62.7867 210.021 63.4267C209.728 63.8267 209.435 64.2267 209.141 64.6267C208.848 65.0134 208.548 65.4067 208.241 65.8067C208.161 65.9134 208.068 66.0001 207.961 66.0667C207.868 66.1334 207.728 66.1667 207.541 66.1667H206.681C206.521 66.1667 206.408 66.1334 206.341 66.0667C206.288 66.0001 206.261 65.8934 206.261 65.7467V56.8067Z"
    fill="white"
  />
<path
    d="M224.781 56.3467C224.968 56.3467 225.095 56.3801 225.161 56.4467C225.228 56.5001 225.261 56.6001 225.261 56.7467V65.7467C225.261 66.0134 225.101 66.1467 224.781 66.1467H223.521C223.348 66.1467 223.228 66.1134 223.161 66.0467C223.108 65.9801 223.081 65.8801 223.081 65.7467V62.3467H221.061C220.715 62.3734 220.421 62.4867 220.181 62.6867C219.955 62.8734 219.748 63.2467 219.561 63.8067L218.921 65.7467C218.868 65.9067 218.801 66.0201 218.721 66.0867C218.641 66.1401 218.508 66.1667 218.321 66.1667H217.001C216.815 66.1667 216.701 66.1334 216.661 66.0667C216.635 65.9867 216.641 65.8734 216.681 65.7267L217.381 63.5867C217.528 63.1867 217.681 62.8401 217.841 62.5467C218.001 62.2401 218.228 62.0067 218.521 61.8467C218.228 61.7401 217.988 61.6001 217.801 61.4267C217.615 61.2401 217.468 61.0401 217.361 60.8267C217.255 60.6001 217.181 60.3667 217.141 60.1267C217.101 59.8867 217.081 59.6534 217.081 59.4267C217.081 58.9201 217.175 58.4801 217.361 58.1067C217.548 57.7201 217.801 57.4001 218.121 57.1467C218.441 56.8801 218.815 56.6801 219.241 56.5467C219.681 56.4134 220.141 56.3467 220.621 56.3467H224.781ZM219.241 59.4267C219.241 59.8134 219.355 60.1134 219.581 60.3267C219.821 60.5401 220.221 60.6467 220.781 60.6467H223.081V58.1467H220.881C220.401 58.1467 220.008 58.2534 219.701 58.4667C219.395 58.6801 219.241 59.0001 219.241 59.4267Z"
    fill="white"
  />
<path
    fill-rule="evenodd"
    clip-rule="evenodd"
    d="M263.5 66.6995H266.8V27.9995H263.5V66.6995Z"
    fill="white"
  />
<path
    d="M29.5595 64.8961H85.2641L85.259 28.8354L29.5544 28.8405L29.5595 64.8961Z"
    fill="#003399"
  />
<path
    d="M57.9401 33.3809H59.9717L58.3332 34.6449L58.9712 36.6472L57.3429 35.4135L55.7146 36.6472L56.3526 34.6449L54.7039 33.3809H56.7304L57.3429 31.4292L57.9401 33.3809Z"
    fill="#FFED00"
  />
<path
    d="M58.0116 59.1573H60.0432L58.4097 60.3759L59.0427 62.3023L57.4144 61.1141L55.7861 62.3023L56.4292 60.3759L54.7754 59.1573H56.8018L57.4144 57.2815L58.0116 59.1573Z"
    fill="#FFED00"
  />
<path
    d="M64.4482 57.4534H66.4849L64.8464 58.6669L65.4844 60.5933L63.851 59.4051L62.2227 60.5933L62.8659 58.6669L61.212 57.4534H63.2385L63.851 55.5725L64.4482 57.4534Z"
    fill="#FFED00"
  />
<path
    d="M64.4482 35.1H66.4849L64.8464 36.3185L65.4844 38.2449L63.851 37.0567L62.2227 38.2449L62.8659 36.3185L61.212 35.1H63.2385L63.851 33.2241L64.4482 35.1Z"
    fill="#FFED00"
  />
<path
    d="M69.2311 39.8377H71.2576L69.6242 41.0512L70.2571 42.9776L68.6288 41.7894L67.0005 42.9776L67.6436 41.0512L65.9898 39.8377H68.0163L68.6288 37.9568L69.2311 39.8377Z"
    fill="#FFED00"
  />
<path
    d="M69.2311 52.7814H71.2576L69.6242 53.9999L70.2571 55.9263L68.6288 54.7381L67.0005 55.9263L67.6436 53.9999L65.9898 52.7814H68.0163L68.6288 50.9055L69.2311 52.7814Z"
    fill="#FFED00"
  />
<path
    d="M71.0177 46.2084H73.0544L71.4158 47.4269L72.0488 49.3533L70.4205 48.1651L68.7922 49.3533L69.4353 47.4269L67.7815 46.2084H69.8079L70.4205 44.3325L71.0177 46.2084Z"
    fill="#FFED00"
  />
<path
    d="M51.3809 35.1202H53.4074L51.774 36.3336L52.4069 38.26L50.7786 37.0718L49.1503 38.26L49.7934 36.3336L48.1447 35.1202H50.1661L50.7786 33.2393L51.3809 35.1202Z"
    fill="#FFED00"
  />
<path
    d="M46.7308 39.8528H48.7675L47.129 41.0663L47.7619 42.9927L46.1336 41.8045L44.5053 42.9927L45.1485 41.0663L43.4946 39.8528H45.5211L46.1336 37.9719L46.7308 39.8528Z"
    fill="#FFED00"
  />
<path
    d="M45.0055 46.2286H47.0371L45.4037 47.442L46.0366 49.3685L44.4083 48.1853L42.78 49.3685L43.4231 47.442L41.7744 46.2286H43.7958L44.4083 44.3477L45.0055 46.2286Z"
    fill="#FFED00"
  />
<path
    d="M46.7308 52.7965H48.7675L47.129 54.015L47.7619 55.9414L46.1336 54.7532L44.5053 55.9414L45.1485 54.015L43.4946 52.7965H45.5211L46.1336 50.9207L46.7308 52.7965Z"
    fill="#FFED00"
  />
<path
    d="M51.4473 57.4685H53.4737L51.8403 58.682L52.4733 60.6084L50.8449 59.4202L49.2166 60.6084L49.8598 58.682L48.2111 57.4685H50.2324L50.8449 55.5876L51.4473 57.4685Z"
    fill="#FFED00"
  />
<path
    d="M95.4373 0.00505726C95.4373 0.00505726 107.417 18.9101 109.612 22.3736C111.802 25.8371 114.308 28.5826 123.175 30.4433C132.041 32.304 135.9 33.1837 135.9 33.1837V33.8562C135.9 33.8562 130.265 32.668 123.016 31.0652C115.768 29.4624 112.803 28.9214 109.5 24.3657C106.749 20.5736 95.4373 3.61517 95.4373 3.61517V0V0.00505726Z"
    fill="white"
  />
<path
    d="M95.4373 21.5949C95.4373 21.5949 106.345 32.9157 109.5 36.1668C112.848 39.6151 117.131 40.8893 123.073 41.941C128.744 42.9421 135.895 44.1 135.895 44.1V44.7371C135.895 44.7371 129.178 43.6449 123.073 42.6135C117.085 41.5972 112.894 41.0309 109.464 37.9011C106.391 35.1 95.4373 24.9219 95.4373 24.9219V21.5898V21.5949Z"
    fill="white"
  />
<path
    d="M95.4373 26.6967C95.4373 26.6967 105.809 36.2377 109.5 39.499C112.894 42.4973 115.646 43.4327 123.108 44.7422C130.571 46.0518 135.895 46.8658 135.895 46.8658V47.5383C135.895 47.5383 129.142 46.4411 123.073 45.4804C117.003 44.5248 113.134 44.1456 109.5 41.2282C105.309 37.8608 95.4373 29.8113 95.4373 29.8113V26.6917V26.6967Z"
    fill="white"
  />
<path
    d="M95.4373 32.1321C95.4373 32.1321 107.285 41.4456 109.5 43.0737C111.715 44.7018 114.645 46.6029 123.144 47.8214C131.571 49.0298 135.895 49.6265 135.895 49.6265V50.3343C135.895 50.3343 128.254 49.2371 123.144 48.6001C118.035 47.963 114.119 47.69 109.536 44.6664C105.074 41.7237 95.4373 35.004 95.4373 35.004V32.1321Z"
    fill="white"
  />
<path
    d="M95.4373 37.3601C95.4373 37.3601 107.32 45.1972 109.571 46.441C111.822 47.6798 114.467 49.7022 123.144 50.7994C131.822 51.8966 135.895 52.3921 135.895 52.3921V53.0646C135.895 53.0646 128.718 52.286 123.108 51.6843C117.504 51.0826 113.68 50.2685 109.5 47.9983C105.319 45.7331 95.4373 40.0095 95.4373 40.0095V37.3601Z"
    fill="white"
  />
<path
    d="M95.4373 42.5883C95.4373 42.5883 105.942 48.2512 109.5 50.0158C113.466 51.9878 116.896 52.9333 123.108 53.6664C129.208 54.3844 135.895 55.0821 135.895 55.0821V55.7192C135.895 55.7192 129.713 55.0619 123.108 54.4451C116.559 53.8282 114.227 53.5451 109.5 51.467C105.273 49.6063 95.4373 45.0658 95.4373 45.0658V42.5833V42.5883Z"
    fill="white"
  />
<path
    d="M95.4373 47.8872C95.4373 47.8872 103.737 51.4063 109.571 53.7018C115.309 55.9569 119.693 56.149 123.18 56.5383C124.716 56.7102 135.895 57.8479 135.895 57.8479V58.485C135.895 58.485 129.218 57.9541 123.144 57.4232C117.07 56.8923 114.451 56.6647 109.536 55.0518C104.559 53.4136 95.4373 50.2636 95.4373 50.2636V47.8923V47.8872Z"
    fill="white"
  />
<path
    d="M95.4373 53.2922C95.4373 53.2922 103.819 55.8658 109.536 57.3524C115.253 58.8389 120.5 59.4456 123.144 59.6175C125.788 59.7945 135.9 60.6085 135.9 60.6085V61.2102C135.9 61.2102 130.147 60.8209 123.108 60.3254C117.417 59.9259 112.848 59.5012 109.5 58.7681C105.794 57.9591 95.4373 55.522 95.4373 55.522V53.2922Z"
    fill="white"
  />
<path
    d="M95.4373 58.6062C95.4373 58.6062 102.292 59.7792 109.536 60.9674C114.967 61.8573 122.322 62.4186 123.108 62.454C123.894 62.4893 135.895 63.3034 135.895 63.3034V63.9405C135.895 63.9405 128.213 63.5461 123.108 63.268C117.79 62.9747 112.501 62.6562 109.5 62.3478C102.772 61.6551 95.4373 60.7349 95.4373 60.7349V58.6062Z"
    fill="white"
  />
<path
    d="M95.4373 64.1074C95.4373 64.1074 106.248 64.5119 109.536 64.5827C112.823 64.6535 135.895 65.5737 135.895 65.5737V66.1956H95.4373V64.1074Z"
    fill="white"
  />
<path
    d="M123.103 33.3656C113.318 31.2774 111.103 27.733 109.459 25.5387C107.815 23.3392 95.4321 5.41504 95.4321 5.41504V8.71167C95.9222 9.34369 106.519 23.8347 109.495 27.6269C112.848 31.8993 118.101 32.8701 123.103 33.9319C128.1 34.9937 135.895 36.4752 135.895 36.4752V35.9089C135.895 35.9089 125.635 33.9016 123.103 33.3656Z"
    fill="white"
  />
<path
    d="M123.103 36.2022C115.069 34.6449 111.817 32.127 109.459 29.0831C107.101 26.0343 95.4321 10.446 95.4321 10.446V14.2786C95.9222 14.85 106.596 27.7534 109.459 30.9994C112.797 34.7865 117.458 35.7826 123.103 36.809C128.749 37.8354 135.89 39.1803 135.89 39.1803V38.614C135.89 38.614 127.738 37.1022 123.103 36.2073V36.2022Z"
    fill="white"
  />
<path
    d="M123.103 39.1399C114.747 37.5321 113.032 36.2124 109.495 32.3748C107.269 29.963 95.9119 16.6804 95.4321 16.1191V19.6585C95.4321 19.6585 106.044 30.8731 109.459 34.1849C113.936 38.5332 118.137 38.8619 123.103 39.7467C128.07 40.6315 135.89 42.0473 135.89 42.0473V41.4456C135.89 41.4456 126.447 39.7871 123.103 39.145V39.1399Z"
    fill="white"
  />
<path
    d="M0.505106 27.7788C0.505106 27.7788 28.1711 24.8563 35.9196 23.7793C48.1702 22.0805 58.1953 20.2703 67.4701 6.18887C67.4701 6.18887 67.4803 5.38999 67.4701 5.03101C61.7889 13.5911 53.9536 19.431 43.1628 21.1248C32.6222 22.7833 0.5 25.2052 0.5 25.2052V27.7788H0.505106Z"
    fill="white"
  />
<path
    d="M0.505127 24.2849C0.505127 24.2849 26.1447 21.1046 34.5925 19.9315C47.9559 18.081 57.3531 16.4175 67.4701 1.05681C67.4701 1.05681 67.4752 0.394453 67.4701 0.00512695C61.2733 9.3439 53.6218 15.3759 41.851 17.2265C30.3507 19.0366 0.505127 21.6759 0.505127 21.6759V24.29V24.2849Z"
    fill="white"
  />
<path d="M26.6806 64.1326H0.520447V66.1854H26.6806V64.1326Z" fill="white" />
<path
    d="M67.4701 22.5708C67.4701 22.5708 67.4854 21.3624 67.4803 21.1045C66.2501 22.9601 64.632 24.6438 62.7638 26.1253H64.5963C65.6274 25.0736 66.5921 23.8955 67.465 22.5708H67.4701Z"
    fill="white"
  />
<path
    d="M67.4701 17.11C67.4701 17.11 67.4803 16.0381 67.4752 15.7449C64.5095 20.2145 60.0942 23.7842 54.9897 26.1505L58.0014 26.1404C61.4826 24.1331 64.7188 21.2814 67.465 17.11H67.4701Z"
    fill="white"
  />
<path
    d="M67.4701 11.6494C67.4701 11.6494 67.4803 10.714 67.4701 10.3904C62.3095 18.1718 54.2854 23.496 44.4747 25.0381C42.1521 25.4022 38.3698 25.8067 33.9749 26.2162L45.9549 26.1758C53.8617 24.4314 61.2631 21.0589 67.4599 11.6494H67.4701Z"
    fill="white"
  />
<path
    d="M26.6857 60.6743C13.3377 60.7451 0.520447 60.8007 0.520447 60.8007V62.9395C0.520447 62.9395 13.9451 62.8434 26.6857 62.7372V60.6743Z"
    fill="white"
  />
<path
    d="M26.6857 57.0034C13.4295 57.15 0.51532 57.2613 0.51532 57.2613V59.4456C0.51532 59.4456 14.0778 59.2686 26.6857 59.0714V57.0034Z"
    fill="white"
  />
<path
    d="M26.6806 53.3225C13.5214 53.55 0.51532 53.722 0.51532 53.722V55.9517C0.51532 55.9517 14.2207 55.6837 26.6806 55.3905V53.3225Z"
    fill="white"
  />
<path
    d="M26.6857 49.6213C13.6235 49.9398 0.51532 50.1774 0.51532 50.1774V52.4477C0.51532 52.4477 14.3789 52.0735 26.6857 51.6842V49.6162V49.6213Z"
    fill="white"
  />
<path
    d="M26.6908 45.9102C13.7256 46.3197 0.51532 46.6433 0.51532 46.6433V48.959C0.51532 48.959 14.5474 48.4736 26.6908 47.9781V45.9152V45.9102Z"
    fill="white"
  />
<path
    d="M26.6857 42.1838C13.8226 42.6995 0.51532 43.104 0.51532 43.104V45.4602C0.51532 45.4602 14.7209 44.8433 26.6857 44.2315V42.1787V42.1838Z"
    fill="white"
  />
<path
    d="M26.6909 38.4321C13.9247 39.0591 0.510254 39.5597 0.510254 39.5597V41.9613C0.510254 41.9613 14.9047 41.1979 26.6909 40.4647V38.4321Z"
    fill="white"
  />
<path
    d="M26.6909 34.6602C14.0217 35.4085 0.510254 36.0203 0.510254 36.0203V38.4624C0.510254 38.4624 15.0987 37.5321 26.6909 36.6725V34.6602Z"
    fill="white"
  />
<path
    d="M26.6909 30.8679C14.1084 31.7477 0.510254 32.4859 0.510254 32.4859V34.9735C0.510254 34.9735 15.2927 33.8511 26.6909 32.8601V30.873V30.8679Z"
    fill="white"
  />
<path
    d="M26.6908 27.0405C14.185 28.0669 0.505127 28.9416 0.505127 28.9416V31.4697C0.505127 31.4697 15.4866 30.1248 26.6908 28.9922V27.0405Z"
    fill="white"
  />
<path
    d="M86.5759 66.1906V27.5461H28.2527V66.1906H86.5759ZM85.259 28.8355V64.8962H29.5544V28.8405H85.259V28.8355Z"
    fill="white"
  />
</svg>
