<svg width="290" height="72" viewBox="0 0 290 72" fill="none" xmlns="http://www.w3.org/2000/svg">
<path fill-rule="evenodd" clip-rule="evenodd" d="M0 24.5C0 24.5 39.8 19.3 41 19.1C42.7 18.8 44.3 18.5 45.7 18.1C48.9 17.2 51.9 15.9 54.5 14.1C57 12.4 59.4 9.9 61.7 7.2C63.2 5.5 64.7 3.2 66.2 1V0C64.5 2.6 62.8 4.8 61.1 6.7C58.8 9.3 56.4 11.4 53.9 13C51.4 14.6 48.5 15.9 45.4 16.7C44 17.1 42.5 17.3 40.8 17.6C39.7 17.8 38.6 17.9 37.5 18C37 18 0 21.9 0 21.9V24.5Z" fill="white"/>
<mask id="mask0" style="mask-type:alpha" maskUnits="userSpaceOnUse" x="0" y="5" width="67" height="23">
<path fill-rule="evenodd" clip-rule="evenodd" d="M0 5.19983H66.0999V27.9998H0V5.19983Z" fill="white"/>
</mask>
<g mask="url(#mask0)">
<path fill-rule="evenodd" clip-rule="evenodd" d="M53.4 17.7998C50.9 19.1998 48 20.2998 44.8 20.8998C43.4 21.1998 42 21.3998 40.3 21.5998C39.3 21.6998 38.3 21.7998 37.3 21.8998C36.8 21.8998 36.2 21.9998 35.7 21.9998C23.5 23.1998 11.4 24.2998 0 25.3998V27.9998C11.4 26.5998 23.7 25.0998 35.9 23.6998C36.4 23.5998 37 23.5998 37.5 23.4998C38.5 23.3998 39.5 23.2998 40.5 23.0998C42.2 22.8998 43.8 22.5998 45.1 22.2998C48.4 21.5998 51.4 20.3998 54 18.7998C56.6 17.1998 58.8 15.0998 61.3 12.3998C62.8 10.6998 64.5 8.39983 66.1 6.19983V5.19983C64.2 7.69983 62.5 9.89983 60.7 11.6998C58.3 14.3998 55.9 16.3998 53.4 17.7998" fill="white"/>
</g>
<mask id="mask1" style="mask-type:alpha" maskUnits="userSpaceOnUse" x="0" y="10" width="67" height="22">
<path fill-rule="evenodd" clip-rule="evenodd" d="M0 10.9001H66.0999V31.5001H0V10.9001Z" fill="white"/>
</mask>
<g mask="url(#mask1)">
<path fill-rule="evenodd" clip-rule="evenodd" d="M60.4 17.2001C58 19.4001 55.4 21.2001 52.9 22.5001C50.4 23.7001 47.6 24.6001 44.3 25.1001C42.9 25.3001 41.5 25.5001 39.8 25.7001L0 28.9001V31.5001L35.3 27.7001L39.9 27.2001C41.6 27.0001 43.1 26.8001 44.5 26.5001C47.9 25.9001 50.8 24.9001 53.4 23.6001C56.1 22.2001 58.7 20.0001 61.2 17.6001C62.9 16.0001 64.4 13.9001 66.1 11.8001V10.9001C64.1 13.4001 62.3 15.4001 60.4 17.2001" fill="white"/>
</g>
<mask id="mask2" style="mask-type:alpha" maskUnits="userSpaceOnUse" x="0" y="21" width="67" height="18">
<path fill-rule="evenodd" clip-rule="evenodd" d="M0 21.7001H66.1998V38.5001H0V21.7001Z" fill="white"/>
</mask>
<g mask="url(#mask2)">
<path fill-rule="evenodd" clip-rule="evenodd" d="M50.8 30.6001C48.5 31.9001 46.8 32.7001 43.5 33.0001C41.5 33.2001 39.5 33.3001 37.5 33.4001C36.5 33.4001 35.6 33.5001 34.6 33.6001C28.6 33.9001 22.7 34.3001 16.7 34.7001L0 35.9001V38.5001L16.8 36.9001C22.2 36.4001 28.5 35.8001 34.7 35.3001L39.2 35.0001C40.9 34.9001 42.4 34.7001 43.7 34.5001C47.1 34.1001 50 33.4001 52.6 32.4001C55.4 31.4001 58 29.7001 60.6 27.8001C63 26.1001 66.2 22.7001 66.2 22.6001V21.7001C64.1 23.8001 62.8 25.0001 60.5 26.5001C57.6 28.5001 52.9 29.5001 50.8 30.6001" fill="white"/>
</g>
<path fill-rule="evenodd" clip-rule="evenodd" d="M51.6006 35.6001C49.1006 36.3001 46.3006 36.8001 43.0006 37.1001C41.7006 37.2001 40.2006 37.3001 38.6006 37.4001L34.2006 37.6001C23.2006 38.1001 12.2006 38.7001 0.100586 39.3001V41.9001C11.7006 41.0001 23.0006 40.1001 34.4006 39.3001L38.8006 39.0001C40.5006 38.9001 41.9006 38.8001 43.3006 38.6001C46.7006 38.2001 49.6006 37.6001 52.1006 36.8001C54.9006 35.9001 57.7006 34.6001 60.3006 32.9001C62.2006 31.7001 64.2006 30.2001 66.2006 28.4001C64.0006 30.3001 61.9006 30.7001 59.8006 32.0001C57.1006 33.6001 54.4006 34.8001 51.6006 35.6001" fill="white"/>
<path fill-rule="evenodd" clip-rule="evenodd" d="M51.2 39.9004C48.7 40.5004 45.9 40.9004 42.6 41.0994C41.3 41.2004 39.9 41.2994 38.2 41.2994L33.8 41.5004C22.7 41.9004 11.5 42.4004 0 42.9004V45.5004C11.4 44.7004 22.6 44.0004 33.9 43.2004L38.3 42.9004C40 42.7994 41.4 42.7004 42.7 42.5994C46.1 42.2994 48.9 41.7994 51.5 41.0994C54.4 40.2994 57.2 39.2004 59.9 37.7994C62 36.7004 64 35.4004 66.1 33.7994V32.7004C63.8 34.4004 61.6 35.7004 59.4 36.7994C56.8 38.2004 54 39.2004 51.2 39.9004" fill="white"/>
<mask id="mask3" style="mask-type:alpha" maskUnits="userSpaceOnUse" x="0" y="38" width="67" height="11">
<path fill-rule="evenodd" clip-rule="evenodd" d="M0 38.2006H66.1998V48.7996H0V38.2006Z" fill="white"/>
</mask>
<g mask="url(#mask3)">
<path fill-rule="evenodd" clip-rule="evenodd" d="M50.8 44.0996C48.3 44.5996 45.5 44.9006 42.2 44.9996C40.9 45.0996 39.6 45.0996 37.9 45.2006L0 46.2006V48.7996L33.6 46.9996L38 46.7996C39.7 46.7006 41.1 46.5996 42.4 46.4996C45.8 46.2006 48.5 45.9006 51.1 45.2996C54 44.7006 56.9 43.7996 59.6 42.5996C61.8 41.7006 63.9 40.5996 66.2 39.2006V38.2006C63.8 39.5996 61.5 40.7006 59.2 41.5996C56.5 42.7996 53.7 43.5996 50.8 44.0996" fill="white"/>
</g>
<path fill-rule="evenodd" clip-rule="evenodd" d="M50.5 48.2998C45.8 48.9008 41.1 48.9998 36.4 49.0998C35.3 49.0998 34.3 49.0998 33.2 49.1998L0 49.7998V52.4008L33.3 50.9998C34.4 50.9998 35.4 50.9008 36.5 50.9008C41.2 50.6998 46 50.4998 50.7 49.7998C53.7 49.2998 56.6 48.5998 59.2 47.6998C61.4 46.9998 63.7 45.9998 66 44.7998V43.7998C63.6 44.9008 61.1 45.9008 58.8 46.5998C56.3 47.2998 53.5 47.9998 50.5 48.2998" fill="white"/>
<mask id="mask4" style="mask-type:alpha" maskUnits="userSpaceOnUse" x="0" y="49" width="67" height="7">
<path fill-rule="evenodd" clip-rule="evenodd" d="M0 49.2006H66.1998V55.7996H0V49.2006Z" fill="white"/>
</mask>
<g mask="url(#mask4)">
<path fill-rule="evenodd" clip-rule="evenodd" d="M50.3 52.5996C45.9 52.9996 41.5 52.9996 37.1 52.9996H33.1C22.1 52.9996 11.1 53.0996 0 53.2006V55.7996C10.6 55.4006 21.9 55.0996 33.2 54.7006C34.5 54.7006 35.9 54.5996 37.2 54.5996C41.5 54.4996 46 54.4006 50.4 53.9006C53.5 53.5996 56.3 53.0996 59 52.4006C61.3 51.7996 63.7 50.9996 66.2 50.0996V49.2006C63.7 50.0996 61.2 50.7996 58.8 51.4006C56.1 51.9996 53.3 52.4006 50.3 52.5996" fill="white"/>
</g>
<path fill-rule="evenodd" clip-rule="evenodd" d="M50.1 56.7998C48.3 56.9008 46.3 56.9008 44.1 56.9008H41.6L33 56.7998C27.1 56.7998 21.3 56.6998 15.8 56.6998L0 56.7998V59.4008L15.9 58.9998C21.4 58.9008 27.2 58.6998 33 58.5998L41.6 58.4998C44 58.4998 47.1 58.4008 50.2 58.1998C53.3 57.9998 56.1 57.6998 58.8 57.2998C61.2 56.9008 63.7 56.4008 66.2 55.7998V54.9008C63.7 55.4998 61.1 55.9998 58.7 56.2998C55.9 56.4998 53.2 56.6998 50.1 56.7998" fill="white"/>
<path fill-rule="evenodd" clip-rule="evenodd" d="M41.5 60.9004L32.9 60.7994C22 60.5994 11.1 60.4004 0 60.2004V62.7994C10.6 62.7004 21.8 62.5994 32.9 62.5004L41.5 62.4004C44.4 62.4004 47.2 62.2994 50.1 62.2004C56 62.0004 61.2 61.5994 66.2 60.9004V60.0004C61.3 60.5004 56 60.7994 50.1 60.9004H41.5" fill="white"/>
<path fill-rule="evenodd" clip-rule="evenodd" d="M66.1 65.5L0 63.8V66.4H66.1V65.5Z" fill="white"/>
<path fill-rule="evenodd" clip-rule="evenodd" d="M60.2 22C57.7 24 55.7 25.5 52.7 26.7C50 27.8 47.1 28.2 43.9 28.7C41.8 29 39.6 29.4 37.5 29.6C36.6 29.7 35.8 29.7 34.9 29.8L0 32.3V34.9L34.9 31.5L39.4 31.1C41.1 30.9 42.6 30.8 44 30.5C47.4 30 50.3 29.1 52.9 27.9C55.6 26.7 58.4 24.7 60.9 22.6C62.6 21.1 64.3 19.3 66.1 17.3V16.4C63.9 18.6 62.1 20.5 60.2 22" fill="white"/>
<path fill-rule="evenodd" clip-rule="evenodd" d="M94.2002 0C94.2002 0 106.1 18.9 108.3 22.4C110.5 25.9 113 28.6 121.8 30.5C130.6 32.4 134.4 33.2 134.4 33.2V33.9C134.4 33.9 128.8 32.7 121.6 31.1C114.4 29.5 111.5 29 108.2 24.4C105.5 20.6 94.2002 4.5 94.2002 4.5V0Z" fill="white"/>
<path fill-rule="evenodd" clip-rule="evenodd" d="M94.2002 21.6001C94.2002 21.6001 105 32.9001 108.2 36.2001C111.5 39.7001 115.8 40.9001 121.7 42.0001C127.3 43.0001 134.4 44.2001 134.4 44.2001V44.8001C134.4 44.8001 127.7 43.7001 121.7 42.7001C115.8 41.7001 111.6 41.1001 108.2 38.0001C105.2 35.2001 94.3002 25.0001 94.3002 25.0001L94.2002 21.6001Z" fill="white"/>
<path fill-rule="evenodd" clip-rule="evenodd" d="M94.2002 26.7998C94.2002 26.7998 104.5 36.3998 108.2 39.5998C111.6 42.5998 114.3 43.4998 121.7 44.9008C129.1 46.1998 134.4 46.9998 134.4 46.9998V47.6998C134.4 47.6998 127.7 46.5998 121.7 45.5998C115.7 44.5998 111.8 44.2998 108.2 41.2998C104 37.9008 94.2002 29.8998 94.2002 29.8998V26.7998Z" fill="white"/>
<path fill-rule="evenodd" clip-rule="evenodd" d="M94.2002 32.2002C94.2002 32.2002 106 41.5002 108.2 43.2002C110.4 44.8002 113.3 46.7002 121.7 48.0002C130.1 49.2002 134.4 49.8002 134.4 49.8002V50.5002C134.4 50.5002 126.8 49.4002 121.7 48.8002C116.6 48.2002 112.7 47.9002 108.2 44.9002C103.8 42.0002 94.2002 35.2002 94.2002 35.2002V32.2002Z" fill="white"/>
<path fill-rule="evenodd" clip-rule="evenodd" d="M94.2002 37.4004C94.2002 37.4004 106 45.2994 108.2 46.5004C110.4 47.7004 113.1 49.7994 121.7 50.9004C130.3 52.0004 134.4 52.5004 134.4 52.5004V53.2004C134.4 53.2004 127.3 52.4004 121.7 51.7994C116.1 51.2004 112.3 50.4004 108.2 48.0994C104.1 45.7994 94.2002 40.0994 94.2002 40.0994V37.4004Z" fill="white"/>
<path fill-rule="evenodd" clip-rule="evenodd" d="M94.2002 42.7002C94.2002 42.7002 104.6 48.4002 108.2 50.0992C112.1 52.0992 115.5 53.0002 121.7 53.8002C127.8 54.5002 134.4 55.2002 134.4 55.2002V55.8002C134.4 55.8002 128.3 55.0992 121.7 54.5002C115.2 53.9002 112.9 53.5992 108.2 51.5002C104 49.5992 94.2002 45.0992 94.2002 45.0992V42.7002Z" fill="white"/>
<path fill-rule="evenodd" clip-rule="evenodd" d="M94.2006 48C94.2006 48 102.401 51.5 108.201 53.8C113.901 56.1 118.201 56.3 121.701 56.6C123.201 56.8 134.301 57.9 134.301 57.9V58.5C134.301 58.5 127.701 58 121.601 57.4C115.601 56.9 113.001 56.6 108.101 55C103.201 53.4 94.1006 50.2 94.1006 50.2L94.2006 48Z" fill="white"/>
<path fill-rule="evenodd" clip-rule="evenodd" d="M94.2002 53.4004C94.2002 53.4004 102.5 56.0004 108.2 57.5004C113.9 59.0004 119.1 59.5994 121.7 59.7994C124.3 60.0004 134.4 60.7994 134.4 60.7994V61.4004C134.4 61.4004 128.7 61.0004 121.7 60.5004C116 60.0994 111.5 59.7004 108.2 58.9004C104.5 58.0994 94.2002 55.5994 94.2002 55.5994V53.4004Z" fill="white"/>
<path fill-rule="evenodd" clip-rule="evenodd" d="M94.2002 58.7002C94.2002 58.7002 101 59.9002 108.2 61.0992C113.6 62.0002 120.9 62.5992 121.7 62.5992C122.5 62.5992 134.4 63.5002 134.4 63.5002V64.0992C134.4 64.0992 126.8 63.7002 121.7 63.4002C116.4 63.0992 111.2 62.8002 108.2 62.5002C101.5 61.8002 94.2002 60.9002 94.2002 60.9002V58.7002Z" fill="white"/>
<path fill-rule="evenodd" clip-rule="evenodd" d="M94.2002 64.2998C94.2002 64.2998 104.9 64.6998 108.2 64.7998C111.5 64.9008 134.4 65.7998 134.4 65.7998V66.4008H94.2002V64.2998Z" fill="white"/>
<path fill-rule="evenodd" clip-rule="evenodd" d="M121.7 33.3999C112 31.2999 109.8 27.7999 108.2 25.5999C106.6 23.3999 94.2998 5.3999 94.2998 5.3999V9.4999C94.7998 10.0999 105.3 23.8999 108.3 27.6999C111.6 31.9999 116.8 32.9999 121.8 33.9999C126.8 35.0999 134.5 36.5999 134.5 36.5999V35.9999C134.4 35.9999 124.2 33.9999 121.7 33.3999" fill="white"/>
<path fill-rule="evenodd" clip-rule="evenodd" d="M121.7 36.2998C113.7 34.6998 110.5 32.1998 108.2 29.1998C105.9 26.0998 94.2998 10.8998 94.2998 10.8998V14.6998C94.7998 15.2998 105.4 27.7998 108.2 31.0998C111.5 34.8998 116.1 35.8998 121.7 36.8998C127.3 37.9008 134.4 39.2998 134.4 39.2998V38.6998C134.4 38.6998 126.3 37.1998 121.7 36.2998" fill="white"/>
<path fill-rule="evenodd" clip-rule="evenodd" d="M121.7 39.2002C113.4 37.5992 111.7 36.3002 108.2 32.4002C106 30.0002 94.7002 16.7002 94.2002 16.1002V19.6002C94.2002 19.6002 104.7 30.8002 108.1 34.2002C112.5 38.5992 116.7 38.9002 121.6 39.8002C126.5 40.7002 134.3 42.0992 134.3 42.0992V41.5002C134.4 41.5002 125 39.9002 121.7 39.2002" fill="white"/>
<mask id="mask5" style="mask-type:alpha" maskUnits="userSpaceOnUse" x="0" y="0" width="266" height="70">
<path fill-rule="evenodd" clip-rule="evenodd" d="M0 70H265.5V0H0V70Z" fill="white"/>
</mask>
<g mask="url(#mask5)">
<path fill-rule="evenodd" clip-rule="evenodd" d="M27.5 66.3H85.4V27.6H27.5V66.3Z" fill="#004494" stroke="white" stroke-width="2"/>
<path fill-rule="evenodd" clip-rule="evenodd" d="M57.1004 33.1001H59.1004L57.5004 34.4001L58.1004 36.4001L56.5004 35.2001L54.9004 36.4001L55.5004 34.4001L53.9004 33.1001H55.9004L56.5004 31.1001L57.1004 33.1001Z" fill="#FFF100"/>
<path fill-rule="evenodd" clip-rule="evenodd" d="M57.1004 58.9004H59.1004L57.5004 60.0994L58.1004 62.0004L56.5004 60.7994L54.9004 62.0004L55.5004 60.0994L53.9004 58.9004H55.9004L56.5004 57.0004L57.1004 58.9004Z" fill="#FFF100"/>
<path fill-rule="evenodd" clip-rule="evenodd" d="M63.4998 57.2002H65.4998L63.8998 58.4002L64.4998 60.3002L62.8998 59.0992L61.2998 60.3002L61.8998 58.4002L60.2998 57.2002H62.2998L62.8998 55.3002L63.4998 57.2002Z" fill="#FFF100"/>
<path fill-rule="evenodd" clip-rule="evenodd" d="M63.5004 34.7998H65.5004L63.9004 35.9998L64.5004 37.9008L62.9004 36.6998L61.3004 37.9998L62.0004 35.9998L60.4004 34.7998H62.4004L63.0004 32.8998L63.5004 34.7998Z" fill="#FFF100"/>
<path fill-rule="evenodd" clip-rule="evenodd" d="M68.2996 39.5996H70.2996L68.6996 40.7996L69.2996 42.7006L67.6996 41.4996L66.0996 42.7006L66.6996 40.7996L65.0996 39.5996H67.0996L67.6996 37.7006L68.2996 39.5996Z" fill="#FFF100"/>
<path fill-rule="evenodd" clip-rule="evenodd" d="M68.2996 52.5996H70.2996L68.6996 53.7996L69.2996 55.7006L67.6996 54.4996L66.0996 55.7006L66.6996 53.7996L65.0996 52.5996H67.0996L67.6996 50.7006L68.2996 52.5996Z" fill="#FFF100"/>
<path fill-rule="evenodd" clip-rule="evenodd" d="M70.0998 46H72.0998L70.4998 47.2L71.0998 49.1L69.4998 47.9L67.8998 49.1L68.4998 47.2L66.7998 46H68.7998L69.3998 44.1L70.0998 46Z" fill="#FFF100"/>
<path fill-rule="evenodd" clip-rule="evenodd" d="M50.4998 34.7998H52.4998L50.8998 35.9998L51.4998 37.9008L49.9998 36.7998L48.2998 37.9998L48.8998 36.0998L47.2998 34.8998H49.2998L49.9998 32.9998L50.4998 34.7998Z" fill="#FFF100"/>
<path fill-rule="evenodd" clip-rule="evenodd" d="M45.9002 39.5996H47.9002L46.3002 40.7996L46.9002 42.7006L45.3002 41.4996L43.7002 42.7006L44.3002 40.7996L42.7002 39.5996H44.7002L45.3002 37.7006L45.9002 39.5996Z" fill="#FFF100"/>
<path fill-rule="evenodd" clip-rule="evenodd" d="M44.2 46H46.2L44.6 47.2L45.2 49.1L43.6 47.9L42 49.1L42.6 47.2L41 46H43L43.6 44.1L44.2 46Z" fill="#FFF100"/>
<path fill-rule="evenodd" clip-rule="evenodd" d="M45.9002 52.5996H47.9002L46.3002 53.7996L46.9002 55.7006L45.3002 54.4996L43.7002 55.7006L44.3002 53.7996L42.7002 52.5996H44.7002L45.3002 50.7006L45.9002 52.5996Z" fill="#FFF100"/>
<path fill-rule="evenodd" clip-rule="evenodd" d="M50.6004 57.2998H52.6004L51.0004 58.4998L51.6004 60.4008L50.0004 59.1998L48.4004 60.4008L49.0004 58.4998L47.4004 57.2998H49.4004L50.0004 55.4008L50.6004 57.2998Z" fill="#FFF100"/>
<path fill-rule="evenodd" clip-rule="evenodd" d="M148.6 38L147.8 35.1H147.701L146.901 37.9L146.1 40.8H149.5L148.6 38ZM144.6 45.6C144.5 45.8 144.5 45.9 144.4 45.9C144.3 46 144.201 46 144.1 46H142.5C142.3 46 142.201 45.9 142.3 45.6L146.401 33.1C146.5 33 146.5 32.8 146.6 32.8C146.701 32.7 146.8 32.7 147 32.7H148.701C148.901 32.7 149 32.7 149.1 32.8C149.201 32.9 149.201 33 149.3 33.1L153.401 45.6C153.5 45.8 153.401 46 153.201 46H151.401C151.201 46 151.1 46 151.1 45.9C151 45.8 151 45.7 150.901 45.6L150.1 42.7H145.6L144.6 45.6Z" fill="white"/>
<path fill-rule="evenodd" clip-rule="evenodd" d="M163.1 46C163 46.1 162.901 46.1 162.8 46.1H161.3C161 46.1 160.901 46 160.901 45.7V40.1C160.901 39.5 160.8 39 160.6 38.7C160.401 38.3 160 38.2 159.401 38.2C159.201 38.2 159 38.2 158.701 38.3C158.401 38.4 158.201 38.5 157.901 38.6C157.6 38.7 157.401 38.8 157.201 38.9C157 39 156.8 39.1 156.701 39.2V45.9C156.701 46.2 156.6 46.3 156.3 46.3H155C154.701 46.3 154.6 46.2 154.6 45.9V36.8C154.6 36.5 154.701 36.4 155 36.4H156.401C156.701 36.4 156.8 36.5 156.8 36.8V37.4C157 37.3 157.201 37.1 157.5 37C157.8 36.9 158 36.7 158.3 36.6C158.6 36.5 158.901 36.4 159.201 36.3C159.5 36.2 159.8 36.2 160.1 36.2C160.8 36.2 161.3 36.3 161.701 36.5C162.1 36.7 162.401 37 162.6 37.3C162.8 37.6 162.901 38.1 163 38.5C163.1 39 163.1 39.4 163.1 40V45.8C163.201 45.8 163.201 45.9 163.1 46" fill="white"/>
<path fill-rule="evenodd" clip-rule="evenodd" d="M171.1 39.5C171.1 38.6 171.201 37.8 171.3 37C171.401 36.2 171.701 35.4 172.1 34.8C172.5 34.2 173 33.6 173.701 33.2C174.401 32.8 175.3 32.6 176.5 32.6H177.3C177.6 32.6 177.901 32.7 178.3 32.7C178.6 32.7 179 32.8 179.3 32.9C179.6 33 179.901 33.1 180.201 33.2C180.401 33.3 180.5 33.3 180.5 33.4C180.5 33.5 180.6 33.6 180.6 33.8L180.401 34.6C180.401 34.7 180.3 34.8 180.3 34.9C180.201 35 180.1 35 179.901 34.9C179.401 34.8 178.901 34.8 178.3 34.7C177.701 34.6 177.201 34.6 176.701 34.6C176 34.6 175.5 34.7 175.1 35C174.701 35.3 174.401 35.6 174.1 36C173.8 36.4 173.701 37 173.701 37.5C173.6 38.1 173.6 38.7 173.6 39.4C173.6 40.1 173.6 40.7 173.701 41.2C173.8 41.8 173.901 42.3 174.201 42.7C174.401 43.1 174.701 43.5 175.201 43.7C175.6 43.9 176.1 44.1 176.8 44.1C177.401 44.1 177.901 44.1 178.401 44C178.901 43.9 179.401 43.9 180 43.8H180.401C180.5 43.9 180.5 43.9 180.6 44.1L180.8 44.9C180.901 45.2 180.8 45.4 180.5 45.5C180.3 45.6 180 45.7 179.6 45.8C179.3 45.9 178.901 45.9 178.6 46C178.3 46.1 177.901 46.1 177.6 46.1H176.701C175.6 46.1 174.701 45.9 174 45.5C173.3 45.1 172.701 44.6 172.401 44C172 43.4 171.701 42.7 171.6 41.9C171.5 41.1 171.1 40.4 171.1 39.5" fill="white"/>
<path fill-rule="evenodd" clip-rule="evenodd" d="M188.5 41.0996C188.5 40.5996 188.5 40.0996 188.4 39.7006C188.3 39.2996 188.2 38.9996 188.1 38.7006C187.9 38.4006 187.7 38.2006 187.4 38.0996C187.1 37.9996 186.8 37.9006 186.3 37.9006C185.9 37.9006 185.5 37.9996 185.3 38.0996C185.1 38.2006 184.8 38.4006 184.7 38.7006C184.5 38.9996 184.4 39.2996 184.4 39.7006C184.3 40.0996 184.3 40.5996 184.3 41.0996C184.3 41.5996 184.3 42.0996 184.4 42.4996C184.5 42.9006 184.6 43.2006 184.7 43.4996C184.8 43.7996 185.1 43.9996 185.3 44.0996C185.5 44.2006 185.9 44.2996 186.3 44.2996C186.8 44.2996 187.1 44.2006 187.4 44.0996C187.7 43.9996 187.9 43.7996 188.1 43.4996C188.3 43.2006 188.4 42.9006 188.4 42.4996C188.4 42.0996 188.5 41.7006 188.5 41.0996M190.7 40.9996C190.7 41.5996 190.7 42.2006 190.6 42.7996C190.5 43.4006 190.3 43.9996 190 44.4996C189.7 44.9996 189.3 45.4006 188.7 45.7996C188.1 46.0996 187.3 46.2996 186.3 46.2996C185.3 46.2996 184.5 46.0996 183.9 45.7996C183.3 45.4996 182.9 45.0996 182.6 44.4996C182.3 43.9996 182.1 43.4006 182.1 42.7996C182 42.2006 182 41.5996 182 40.9996C182 40.4996 182 39.9996 182.1 39.4006C182.2 38.7996 182.4 38.2996 182.7 37.7996C183 37.2996 183.4 36.8996 184 36.4996C184.6 36.2006 185.3 35.9996 186.3 35.9996C187.3 35.9996 188.1 36.0996 188.6 36.3996C189.2 36.7006 189.6 37.0996 189.9 37.5996C190.2 38.0996 190.4 38.5996 190.5 39.2006C190.7 39.7996 190.7 40.4006 190.7 40.9996" fill="white"/>
<path fill-rule="evenodd" clip-rule="evenodd" d="M195.2 45.7002C195.2 45.8002 195.2 45.9002 195.099 46.0002C195 46.0992 195 46.0992 194.8 46.0992H193.4C193.099 46.0992 193 46.0002 193 45.7002V36.6002C193 36.3002 193.099 36.2002 193.4 36.2002H194.8C194.9 36.2002 195 36.2002 195.099 36.3002C195.2 36.4002 195.2 36.5002 195.2 36.6002V45.7002ZM195.3 33.6002V34.1002C195.3 34.3002 195.2 34.4002 195.099 34.5002C195 34.6002 194.9 34.7002 194.7 34.8002C194.5 34.9002 194.3 34.9002 194.099 34.9002C193.8 34.9002 193.599 34.9002 193.5 34.8002C193.3 34.7002 193.2 34.6002 193.099 34.5002C193 34.4002 193 34.3002 192.9 34.1002V33.7002C192.9 33.4002 193 33.1002 193.099 32.9002C193.3 32.7002 193.599 32.6002 194.099 32.6002C194.599 32.6002 194.9 32.7002 195.099 32.9002C195.2 33.0002 195.3 33.3002 195.3 33.6002V33.6002Z" fill="white"/>
<path fill-rule="evenodd" clip-rule="evenodd" d="M212 46C212 46.1 211.9 46.1 211.7 46.1H210.3C210 46.1 209.9 46 209.9 45.7V40C209.9 39.3 209.8 38.7 209.6 38.5C209.4 38.2 209 38.1 208.5 38.1C208.3 38.1 208.1 38.1 207.9 38.2C207.7 38.3 207.4 38.3 207.2 38.4C207 38.5 206.7 38.6 206.5 38.7C206.3 38.8 206.1 38.9 205.9 39V39.4V40V45.7C205.9 45.8 205.9 45.9 205.8 46C205.7 46.1 205.6 46.1 205.5 46.1H204C203.8 46.1 203.7 46 203.7 45.7V39.9C203.7 39.3 203.6 38.8 203.4 38.5C203.2 38.2 202.9 38.1 202.4 38.1C202.2 38.1 202 38.1 201.8 38.2C201.6 38.3 201.4 38.3 201.1 38.4C200.8 38.5 200.6 38.6 200.4 38.7C200.2 38.8 200 38.9 199.8 39V45.7C199.8 46 199.7 46.1 199.4 46.1H198C197.8 46.1 197.6 46 197.6 45.7V36.6C197.6 36.3 197.7 36.2 198 36.2H199.4C199.7 36.2 199.8 36.3 199.8 36.6V37.2C200 37.1 200.2 36.9 200.4 36.8C200.6 36.7 200.9 36.5 201.1 36.4C201.4 36.3 201.6 36.2 201.9 36.1C202.2 36 202.4 36 202.7 36C203.3 36 203.8 36.1 204.3 36.3C204.8 36.5 205.2 36.9 205.5 37.4C206 37 206.6 36.7 207.2 36.4C207.8 36.1 208.4 36 209.1 36C209.8 36 210.3 36.1 210.7 36.3C211.1 36.5 211.4 36.8 211.6 37.1C211.8 37.4 211.9 37.8 212 38.3C212.1 38.8 212.1 39.2 212.1 39.7V45.6C212 45.8 212 45.9 212 46" fill="white"/>
<path fill-rule="evenodd" clip-rule="evenodd" d="M216.7 45.7002C216.7 45.8002 216.7 45.9002 216.599 46.0002C216.5 46.0992 216.5 46.0992 216.3 46.0992H214.9C214.599 46.0992 214.5 46.0002 214.5 45.7002V36.6002C214.5 36.3002 214.599 36.2002 214.9 36.2002H216.3C216.4 36.2002 216.5 36.2002 216.599 36.3002C216.7 36.4002 216.7 36.5002 216.7 36.6002V45.7002ZM216.8 33.6002V34.1002C216.8 34.3002 216.7 34.4002 216.599 34.5002C216.5 34.6002 216.4 34.7002 216.2 34.8002C216 34.9002 215.8 34.9002 215.599 34.9002C215.3 34.9002 215.099 34.9002 215 34.8002C214.8 34.7002 214.7 34.6002 214.599 34.5002C214.5 34.4002 214.5 34.3002 214.4 34.1002V33.7002C214.4 33.4002 214.5 33.1002 214.599 32.9002C214.8 32.7002 215.099 32.6002 215.599 32.6002C216.099 32.6002 216.4 32.7002 216.599 32.9002C216.7 33.0002 216.8 33.3002 216.8 33.6002V33.6002Z" fill="white"/>
<path fill-rule="evenodd" clip-rule="evenodd" d="M226.5 43.0997C226.5 43.7007 226.4 44.2007 226.2 44.5997C226 44.9997 225.7 45.2997 225.3 45.5997C224.9 45.7997 224.5 45.9997 224 46.0997C223.5 46.2007 223 46.2997 222.5 46.2997C222 46.2997 221.4 46.2997 220.9 46.2007C220.3 46.0997 219.8 45.9997 219.4 45.9007C219.2 45.7997 219.1 45.7007 219 45.5997C218.9 45.4997 218.9 45.4007 219 45.2007L219.1 44.4997C219.1 44.2997 219.2 44.2007 219.3 44.2007H219.7C219.9 44.2007 220.2 44.2997 220.4 44.2997C220.7 44.2997 220.9 44.2997 221.2 44.4007C221.5 44.4007 221.7 44.4007 221.9 44.4997H222.5C223.1 44.4997 223.6 44.4007 223.9 44.2007C224.2 43.9997 224.3 43.7007 224.3 43.2997C224.3 43.0997 224.3 42.9007 224.2 42.7007C224.1 42.4997 224.1 42.4007 223.9 42.2997C223.7 42.2007 223.6 42.0997 223.4 42.0997C223.2 41.9997 222.9 41.9997 222.6 41.9007C222.1 41.7997 221.6 41.7007 221.2 41.5997C220.8 41.4997 220.4 41.2997 220 41.0997C219.7 40.9007 219.4 40.5997 219.2 40.2997C219 39.9997 218.9 39.4997 218.9 38.9997C218.9 37.9997 219.2 37.2997 219.9 36.7007C220.6 36.2007 221.5 35.8997 222.6 35.8997H223.3C223.6 35.8997 223.8 35.8997 224.1 35.9997C224.4 35.9997 224.6 36.0997 224.9 36.0997C225.2 36.0997 225.4 36.2007 225.6 36.2997C225.9 36.3997 226.1 36.5997 226 36.8997L225.8 37.5997C225.8 37.7007 225.7 37.7997 225.6 37.9007H225.2C224.8 37.7997 224.3 37.7997 223.8 37.7007C223.3 37.7007 222.9 37.5997 222.5 37.5997C221.9 37.5997 221.4 37.7007 221.2 37.9007C221 38.0997 220.9 38.4007 220.9 38.7997C220.9 39.2007 221 39.4007 221.3 39.5997C221.6 39.7007 222 39.7997 222.6 39.9007C223.1 39.9997 223.5 40.0997 224 40.2007C224.5 40.2997 224.8 40.4997 225.2 40.7007C225.5 40.9007 225.8 41.2007 226 41.5997C226.4 41.9997 226.5 42.4997 226.5 43.0997" fill="white"/>
<path fill-rule="evenodd" clip-rule="evenodd" d="M230.8 45.7002C230.8 45.8002 230.8 45.9002 230.7 46.0002C230.7 46.0992 230.6 46.0992 230.401 46.0992H229C228.7 46.0992 228.6 46.0002 228.6 45.7002V36.6002C228.6 36.3002 228.7 36.2002 229 36.2002H230.401C230.5 36.2002 230.6 36.2002 230.7 36.3002C230.7 36.4002 230.8 36.5002 230.8 36.6002V45.7002ZM231 33.6002V34.1002C231 34.2002 230.901 34.4002 230.8 34.5002C230.7 34.6002 230.6 34.7002 230.401 34.8002C230.2 34.9002 230 34.9002 229.8 34.9002C229.5 34.9002 229.3 34.9002 229.2 34.8002C229 34.7002 228.901 34.6002 228.8 34.5002C228.7 34.4002 228.7 34.3002 228.6 34.1002V33.7002C228.6 33.4002 228.7 33.1002 228.8 32.9002C229 32.7002 229.3 32.6002 229.8 32.6002C230.3 32.6002 230.6 32.7002 230.8 32.9002C230.901 33.0002 231 33.3002 231 33.6002V33.6002Z" fill="white"/>
<path fill-rule="evenodd" clip-rule="evenodd" d="M240 31.7997C240.2 31.8997 240.2 32.0997 240.1 32.1997L238.1 34.9997C238 35.0997 237.9 35.1997 237.7 35.0997L236.9 34.6997C236.8 34.5997 236.7 34.4997 236.8 34.2997L238.4 31.1997C238.5 30.9997 238.6 30.9997 238.8 31.0997L240 31.7997ZM241.8 45.6997C241.8 45.9997 241.7 46.0997 241.4 46.0997H240C239.9 46.0997 239.8 46.0997 239.7 45.9997C239.6 45.9007 239.6 45.7997 239.6 45.6997V44.9997C239.4 45.0997 239.2 45.2997 238.9 45.4007C238.6 45.4997 238.4 45.6997 238.1 45.7997C237.8 45.9007 237.5 45.9997 237.2 46.0997C236.9 46.1997 236.6 46.1997 236.3 46.1997C235.6 46.1997 235.1 46.0997 234.7 45.9007C234.3 45.6997 234 45.4997 233.8 45.0997C233.6 44.7997 233.5 44.4007 233.4 43.9007C233.3 43.4007 233.3 42.9997 233.3 42.4007V36.4997C233.3 36.1997 233.4 36.0997 233.7 36.0997H235.2C235.4 36.0997 235.6 36.1997 235.6 36.4997V42.0997C235.6 42.4007 235.6 42.6997 235.7 42.9007C235.7 43.0997 235.8 43.2997 235.9 43.4997C236 43.6997 236.2 43.7997 236.3 43.9007C236.4 43.9997 236.7 43.9997 237 43.9997C237.2 43.9997 237.4 43.9997 237.7 43.9007C238 43.7997 238.2 43.6997 238.5 43.5997C238.8 43.4997 239 43.4007 239.2 43.2997C239.4 43.1997 239.6 43.0997 239.7 42.9997V36.2997C239.7 36.1997 239.7 36.0997 239.8 35.9997C239.9 35.8997 240 35.8997 240.1 35.8997H241.5C241.8 35.8997 241.9 35.9997 241.9 36.2997L241.8 45.6997Z" fill="white"/>
<path fill-rule="evenodd" clip-rule="evenodd" d="M252.401 46C252.3 46.1 252.201 46.1 252.1 46.1H250.6C250.3 46.1 250.201 46 250.201 45.7V40.1C250.201 39.5 250.1 39 249.901 38.7C249.701 38.3 249.3 38.2 248.701 38.2C248.501 38.2 248.3 38.2 248.001 38.3C247.701 38.4 247.501 38.5 247.201 38.6C246.901 38.7 246.701 38.8 246.501 38.9C246.3 39 246.1 39.1 246.001 39.2V45.9C246.001 46.2 245.901 46.3 245.6 46.3H244.201C243.901 46.3 243.8 46.2 243.8 45.9V36.8C243.8 36.5 243.901 36.4 244.201 36.4H245.6C245.901 36.4 246.001 36.5 246.001 36.8V37.4C246.201 37.3 246.401 37.1 246.701 37C247.001 36.9 247.201 36.7 247.501 36.6C247.8 36.5 248.1 36.4 248.401 36.3C248.701 36.2 249.001 36.2 249.3 36.2C250.001 36.2 250.501 36.3 250.901 36.5C251.3 36.7 251.6 37 251.8 37.3C252.001 37.6 252.1 38.1 252.201 38.5C252.3 39 252.3 39.4 252.3 40V45.8C252.501 45.8 252.501 45.9 252.401 46" fill="white"/>
<path fill-rule="evenodd" clip-rule="evenodd" d="M143.4 53.4004C143.4 53.0994 143.5 53.0004 143.8 53.0004H151.2C151.5 53.0004 151.6 53.0994 151.6 53.4004V54.5994C151.6 54.7994 151.5 55.0004 151.2 55.0004H145.7V58.5004H150.6C150.9 58.5004 151 58.5994 151 58.9004V60.0994C151 60.2994 150.9 60.5004 150.6 60.5004H145.7V64.5004H151.3C151.5 64.5004 151.7 64.5994 151.7 64.9004V66.0004C151.7 66.2004 151.6 66.4004 151.3 66.4004H143.8C143.5 66.4004 143.4 66.2994 143.4 66.0004V53.4004Z" fill="white"/>
<path fill-rule="evenodd" clip-rule="evenodd" d="M160 61.4004C160 60.9004 160 60.4004 159.9 60.0004C159.8 59.5994 159.7 59.2994 159.6 59.0004C159.4 58.7004 159.2 58.5004 158.9 58.4004C158.6 58.2994 158.3 58.2004 157.8 58.2004C157.4 58.2004 157 58.2994 156.8 58.4004C156.6 58.5004 156.3 58.7004 156.2 59.0004C156 59.2994 155.9 59.5994 155.9 60.0004C155.8 60.4004 155.8 60.9004 155.8 61.4004C155.8 61.9004 155.8 62.4004 155.9 62.7994C156 63.2004 156.1 63.5004 156.2 63.7994C156.3 64.0994 156.6 64.2994 156.8 64.4004C157 64.5004 157.4 64.5994 157.8 64.5994C158.3 64.5994 158.6 64.5004 158.9 64.4004C159.2 64.2994 159.4 64.0994 159.6 63.7994C159.8 63.5004 159.9 63.2004 159.9 62.7994C159.9 62.4004 160 62.0004 160 61.4004M162.2 61.2994C162.2 61.9004 162.2 62.5004 162.1 63.0994C162 63.7004 161.8 64.2994 161.5 64.7994C161.2 65.2994 160.8 65.7004 160.2 66.0994C159.6 66.4004 158.8 66.5994 157.8 66.5994C156.8 66.5994 156 66.4004 155.4 66.0994C154.8 65.7994 154.4 65.4004 154.1 64.7994C153.8 64.2994 153.6 63.7004 153.6 63.0994C153.5 62.5004 153.5 61.9004 153.5 61.2994C153.5 60.7994 153.5 60.2994 153.6 59.7004C153.7 59.0994 153.9 58.5994 154.2 58.0994C154.5 57.5994 154.9 57.2004 155.5 56.7994C156.1 56.5004 156.8 56.2994 157.8 56.2994C158.8 56.2994 159.6 56.4004 160.1 56.7004C160.7 57.0004 161.1 57.4004 161.4 57.9004C161.7 58.4004 161.9 58.9004 162 59.5004C162.1 60.0994 162.2 60.7004 162.2 61.2994" fill="white"/>
<path fill-rule="evenodd" clip-rule="evenodd" d="M166.8 66C166.8 66.3 166.7 66.4 166.401 66.4H164.901C164.6 66.4 164.5 66.3 164.5 66V56.9C164.5 56.6 164.6 56.5 164.901 56.5H166.3C166.6 56.5 166.7 56.6 166.7 56.9V57.8C166.8 57.7 167 57.5 167.3 57.4C167.5 57.2 167.8 57.1 168.1 57C168.401 56.9 168.7 56.8 168.901 56.6C169.2 56.5 169.401 56.4 169.7 56.4H170C170.1 56.4 170.1 56.5 170.2 56.7L170.3 58V58.3C170.3 58.4 170.2 58.4 169.901 58.5C169.6 58.6 169.3 58.6 169 58.7C168.7 58.8 168.401 58.9 168.1 58.9C167.8 59 167.5 59.1 167.3 59.2C167.1 59.3 166.8 59.4 166.7 59.4L166.8 66Z" fill="white"/>
<path fill-rule="evenodd" clip-rule="evenodd" d="M177.9 61.4004C177.9 60.7994 177.9 60.2004 177.799 59.9004C177.7 59.5004 177.599 59.2004 177.5 59.0004C177.4 58.7994 177.2 58.5994 177 58.5994C176.799 58.5004 176.599 58.5004 176.299 58.5004C176.099 58.5004 175.9 58.5004 175.599 58.5994C175.299 58.7004 175.099 58.7004 174.799 58.7994C174.599 58.9004 174.299 59.0004 174.099 59.0994C173.9 59.2004 173.7 59.2994 173.5 59.4004V64.4004C174 64.5004 174.4 64.5994 174.7 64.7004C175 64.7994 175.4 64.7994 175.799 64.7994C176.2 64.7994 176.5 64.7004 176.7 64.5994C176.9 64.5004 177.099 64.2994 177.299 64.0994C177.5 63.7994 177.599 63.5004 177.599 63.0994C177.9 62.5004 177.9 62.0004 177.9 61.4004M180.2 61.4004C180.2 62.2004 180.099 62.9004 180 63.5994C179.9 64.2004 179.7 64.7994 179.4 65.2004C179.099 65.5994 178.7 66.0004 178.2 66.2004C177.7 66.4004 177 66.5004 176.2 66.5004C175.9 66.5004 175.5 66.5004 175 66.4004C174.5 66.2994 174.099 66.2004 173.599 66.0994V69.5994C173.599 69.7004 173.599 69.7994 173.5 69.9004C173.4 70.0004 173.299 70.0004 173.2 70.0004H171.799C171.599 70.0004 171.5 70.0004 171.5 69.9004C171.5 69.7994 171.4 69.7004 171.4 69.5994V56.9004C171.4 56.5994 171.5 56.5004 171.799 56.5004H173.2C173.299 56.5004 173.4 56.5004 173.5 56.5994C173.599 56.7004 173.599 56.7994 173.599 56.9004V57.5004H173.7C173.9 57.4004 174.099 57.2994 174.299 57.0994C174.5 57.0004 174.799 56.7994 175.099 56.7004C175.4 56.5994 175.7 56.5004 176 56.4004C176.299 56.2994 176.599 56.2994 176.9 56.2994C177.599 56.2994 178.099 56.4004 178.5 56.7004C178.9 56.9004 179.299 57.2994 179.5 57.7004C179.7 58.0994 179.9 58.7004 180 59.2994C180.099 59.9004 180.2 60.5994 180.2 61.4004" fill="white"/>
<path fill-rule="evenodd" clip-rule="evenodd" d="M188 61.9004H185.6C185.1 61.9004 184.7 62.0004 184.4 62.2994C184.1 62.5004 184 63.0004 184 63.5994C184 64.0004 184.1 64.2994 184.3 64.5004C184.5 64.7004 184.8 64.7994 185.3 64.7994C185.5 64.7994 185.7 64.7994 186 64.7004C186.3 64.5994 186.5 64.5994 186.8 64.5004C187.1 64.4004 187.3 64.2994 187.5 64.2004C187.7 64.0994 188 64.0004 188.1 63.9004V61.9004H188ZM188.1 65.2004C187.6 65.5994 187 65.9004 186.4 66.0994C185.8 66.2994 185.1 66.5004 184.4 66.5004C183.9 66.5004 183.4 66.4004 183.1 66.2994C182.7 66.2004 182.5 66.0004 182.3 65.7004C182.1 65.5004 181.9 65.2004 181.9 64.7994C181.8 64.5004 181.8 64.0994 181.8 63.5994C181.8 62.4004 182.1 61.5994 182.7 61.0004C183.3 60.5004 184.3 60.2004 185.5 60.2004H188.1V59.7004C188.1 59.4004 188.1 59.2004 188 58.9004C187.9 58.7004 187.8 58.5004 187.7 58.4004C187.5 58.2994 187.3 58.2004 187.1 58.0994C186.8 58.0004 186.5 58.0004 186.1 58.0004H185.5H184.8C184.6 58.0004 184.3 58.0004 184.1 58.0994C183.9 58.0994 183.6 58.0994 183.4 58.2004H183C182.9 58.2004 182.9 58.0994 182.8 57.9004L182.6 57.2004V56.9004C182.7 56.7994 182.8 56.7004 183 56.5994C183.2 56.5004 183.5 56.5004 183.8 56.4004C184.1 56.2994 184.4 56.2994 184.7 56.2994C185 56.2994 185.3 56.2004 185.6 56.2004H186.4C187.3 56.2004 188 56.2994 188.5 56.5004C189 56.7004 189.4 56.9004 189.7 57.2004C190 57.5004 190.1 57.9004 190.2 58.4004C190.3 58.9004 190.3 59.4004 190.3 59.9004V63.7994V64.2994C190.3 64.4004 190.4 64.5004 190.4 64.5994C190.4 64.7004 190.5 64.7004 190.6 64.7004C190.7 64.7004 190.8 64.7004 191 64.7994C191.1 64.7994 191.2 64.7994 191.3 64.9004C191.4 64.9004 191.4 65.0004 191.4 65.0994V65.9004C191.4 66.0994 191.2 66.2994 190.9 66.2994C190.7 66.2994 190.6 66.2994 190.4 66.4004H189.9C189.4 66.4004 189.1 66.2994 188.8 66.0994C188.5 66.0004 188.3 65.7004 188.1 65.2004V65.2004Z" fill="white"/>
<path fill-rule="evenodd" clip-rule="evenodd" d="M200.201 65.4004V65.7994C200.201 65.9004 200.001 66.0004 199.901 66.0994C199.501 66.2994 199.001 66.4004 198.501 66.5004C197.901 66.5994 197.401 66.5994 196.901 66.5994C196.001 66.5994 195.201 66.5004 194.6 66.2004C194.001 65.9004 193.6 65.5004 193.301 65.0994C193.001 64.5994 192.801 64.0994 192.701 63.5004C192.6 62.9004 192.6 62.2004 192.6 61.5004C192.6 60.9004 192.701 60.2994 192.801 59.7004C192.901 59.0994 193.1 58.5004 193.401 58.0994C193.701 57.5994 194.1 57.2004 194.701 56.9004C195.301 56.5994 196.001 56.5004 196.901 56.5004H197.701C198.001 56.5004 198.201 56.5004 198.501 56.5994C198.801 56.5994 199.001 56.7004 199.301 56.7994C199.6 56.9004 199.801 56.9004 200.001 57.0004C200.201 57.0994 200.301 57.2994 200.301 57.5994L200.201 58.4004C200.201 58.5004 200.1 58.5994 200.001 58.7004H199.6C199.201 58.7004 198.801 58.5994 198.301 58.5994C197.801 58.5994 197.501 58.5004 197.1 58.5004C196.301 58.5004 195.701 58.7004 195.401 59.2004C195.1 59.7004 194.901 60.5004 194.901 61.5994C194.901 62.2004 194.901 62.7004 195.001 63.2004C195.1 63.5994 195.201 63.9004 195.401 64.2004C195.6 64.5004 195.801 64.5994 196.1 64.7004C196.401 64.7994 196.701 64.9004 197.1 64.9004C197.401 64.9004 197.801 64.9004 198.301 64.7994C198.801 64.7994 199.301 64.7004 199.701 64.7004H200.1C200.201 64.7004 200.201 64.7994 200.301 65.0004L200.201 65.4004Z" fill="white"/>
<path fill-rule="evenodd" clip-rule="evenodd" d="M209.9 66.4004H208.5C208.2 66.4004 208.099 66.2994 208.099 66.0004V63.0994V60.2004C208.099 59.5994 208 59.2004 207.799 58.7994C207.599 58.5004 207.2 58.2994 206.599 58.2994C206.4 58.2994 206.2 58.2994 205.9 58.4004C205.599 58.5004 205.4 58.5994 205.099 58.7004C204.799 58.7994 204.599 58.9004 204.4 59.0004C204.2 59.0994 204 59.2004 203.9 59.2004V66.0004C203.9 66.0994 203.9 66.2004 203.799 66.2994C203.7 66.4004 203.599 66.4004 203.5 66.4004H202.099C201.9 66.4004 201.7 66.2994 201.7 66.0004V52.5994C201.7 52.2994 201.799 52.2004 202.099 52.2004H203.5C203.799 52.2004 203.9 52.2994 203.9 52.5994V57.5004C204.099 57.4004 204.299 57.2994 204.5 57.0994C204.7 56.9004 205 56.9004 205.299 56.7004C205.599 56.5994 205.9 56.5004 206.2 56.4004C206.5 56.2994 206.799 56.2994 207.099 56.2994C207.799 56.2994 208.299 56.4004 208.7 56.5994C209.099 56.7994 209.4 57.0994 209.599 57.4004C209.799 57.7004 209.9 58.2004 210 58.5994C210.099 59.0994 210.099 59.5004 210.099 60.0994V66.0004C210.299 66.2004 210.2 66.4004 209.9 66.4004" fill="white"/>
<path fill-rule="evenodd" clip-rule="evenodd" d="M262.2 66.7H265.5V28H262.2V66.7Z" fill="white"/>
</g>
</svg>
