<svg width="290" height="72" viewBox="0 0 290 72" fill="none" xmlns="http://www.w3.org/2000/svg">
<path fill-rule="evenodd" clip-rule="evenodd" d="M0 24.5C0 24.5 39.8 19.3 41 19.1C42.7 18.8 44.3 18.5 45.7 18.1C48.9 17.2 51.9 15.9 54.5 14.1C57 12.4 59.4 9.9 61.7 7.2C63.2 5.5 64.7 3.2 66.2 1V0C64.5 2.6 62.8 4.8 61.1 6.7C58.8 9.3 56.4 11.4 53.9 13C51.4 14.6 48.5 15.9 45.4 16.7C44 17.1 42.5 17.3 40.8 17.6C39.7 17.8 38.6 17.9 37.5 18C37 18 0 21.9 0 21.9V24.5Z" fill="white"/>
<mask id="mask0" style="mask-type:alpha" maskUnits="userSpaceOnUse" x="0" y="5" width="67" height="23">
<path fill-rule="evenodd" clip-rule="evenodd" d="M0 5.19983H66.0999V27.9998H0V5.19983Z" fill="white"/>
</mask>
<g mask="url(#mask0)">
<path fill-rule="evenodd" clip-rule="evenodd" d="M53.4 17.7998C50.9 19.1998 48 20.2998 44.8 20.8998C43.4 21.1998 42 21.3998 40.3 21.5998C39.3 21.6998 38.3 21.7998 37.3 21.8998C36.8 21.8998 36.2 21.9998 35.7 21.9998C23.5 23.1998 11.4 24.2998 0 25.3998V27.9998C11.4 26.5998 23.7 25.0998 35.9 23.6998C36.4 23.5998 37 23.5998 37.5 23.4998C38.5 23.3998 39.5 23.2998 40.5 23.0998C42.2 22.8998 43.8 22.5998 45.1 22.2998C48.4 21.5998 51.4 20.3998 54 18.7998C56.6 17.1998 58.8 15.0998 61.3 12.3998C62.8 10.6998 64.5 8.39983 66.1 6.19983V5.19983C64.2 7.69983 62.5 9.89983 60.7 11.6998C58.3 14.3998 55.9 16.3998 53.4 17.7998" fill="white"/>
</g>
<mask id="mask1" style="mask-type:alpha" maskUnits="userSpaceOnUse" x="0" y="10" width="67" height="22">
<path fill-rule="evenodd" clip-rule="evenodd" d="M0 10.9002H66.0999V31.5002H0V10.9002Z" fill="white"/>
</mask>
<g mask="url(#mask1)">
<path fill-rule="evenodd" clip-rule="evenodd" d="M60.4 17.2002C58 19.4002 55.4 21.2002 52.9 22.5002C50.4 23.7002 47.6 24.6002 44.3 25.1002C42.9 25.3002 41.5 25.5002 39.8 25.7002L0 28.9002V31.5002L35.3 27.7002L39.9 27.2002C41.6 27.0002 43.1 26.8002 44.5 26.5002C47.9 25.9002 50.8 24.9002 53.4 23.6002C56.1 22.2002 58.7 20.0002 61.2 17.6002C62.9 16.0002 64.4 13.9002 66.1 11.8002V10.9002C64.1 13.4002 62.3 15.4002 60.4 17.2002" fill="white"/>
</g>
<mask id="mask2" style="mask-type:alpha" maskUnits="userSpaceOnUse" x="0" y="21" width="67" height="18">
<path fill-rule="evenodd" clip-rule="evenodd" d="M0 21.7H66.1998V38.5H0V21.7Z" fill="white"/>
</mask>
<g mask="url(#mask2)">
<path fill-rule="evenodd" clip-rule="evenodd" d="M50.8 30.6C48.5 31.9 46.8 32.7 43.5 33C41.5 33.2 39.5 33.3 37.5 33.4C36.5 33.4 35.6 33.5 34.6 33.6C28.6 33.9 22.7 34.3 16.7 34.7L0 35.9V38.5L16.8 36.9C22.2 36.4 28.5 35.8 34.7 35.3L39.2 35C40.9 34.9 42.4 34.7 43.7 34.5C47.1 34.1 50 33.4 52.6 32.4C55.4 31.4 58 29.7 60.6 27.8C63 26.1 66.2 22.7 66.2 22.6V21.7C64.1 23.8 62.8 25 60.5 26.5C57.6 28.5 52.9 29.5 50.8 30.6" fill="white"/>
</g>
<path fill-rule="evenodd" clip-rule="evenodd" d="M51.6006 35.6001C49.1006 36.3001 46.3006 36.8001 43.0006 37.1001C41.7006 37.2001 40.2006 37.3001 38.6006 37.4001L34.2006 37.6001C23.2006 38.1001 12.2006 38.7001 0.100586 39.3001V41.9001C11.7006 41.0001 23.0006 40.1001 34.4006 39.3001L38.8006 39.0001C40.5006 38.9001 41.9006 38.8001 43.3006 38.6001C46.7006 38.2001 49.6006 37.6001 52.1006 36.8001C54.9006 35.9001 57.7006 34.6001 60.3006 32.9001C62.2006 31.7001 64.2006 30.2001 66.2006 28.4001C64.0006 30.3001 61.9006 30.7001 59.8006 32.0001C57.1006 33.6001 54.4006 34.8001 51.6006 35.6001" fill="white"/>
<path fill-rule="evenodd" clip-rule="evenodd" d="M51.2 39.9004C48.7 40.5004 45.9 40.9004 42.6 41.0994C41.3 41.2004 39.9 41.2994 38.2 41.2994L33.8 41.5004C22.7 41.9004 11.5 42.4004 0 42.9004V45.5004C11.4 44.7004 22.6 44.0004 33.9 43.2004L38.3 42.9004C40 42.7994 41.4 42.7004 42.7 42.5994C46.1 42.2994 48.9 41.7994 51.5 41.0994C54.4 40.2994 57.2 39.2004 59.9 37.7994C62 36.7004 64 35.4004 66.1 33.7994V32.7004C63.8 34.4004 61.6 35.7004 59.4 36.7994C56.8 38.2004 54 39.2004 51.2 39.9004" fill="white"/>
<mask id="mask3" style="mask-type:alpha" maskUnits="userSpaceOnUse" x="0" y="38" width="67" height="11">
<path fill-rule="evenodd" clip-rule="evenodd" d="M0 38.2006H66.1998V48.7996H0V38.2006Z" fill="white"/>
</mask>
<g mask="url(#mask3)">
<path fill-rule="evenodd" clip-rule="evenodd" d="M50.8 44.0996C48.3 44.5996 45.5 44.9006 42.2 44.9996C40.9 45.0996 39.6 45.0996 37.9 45.2006L0 46.2006V48.7996L33.6 46.9996L38 46.7996C39.7 46.7006 41.1 46.5996 42.4 46.4996C45.8 46.2006 48.5 45.9006 51.1 45.2996C54 44.7006 56.9 43.7996 59.6 42.5996C61.8 41.7006 63.9 40.5996 66.2 39.2006V38.2006C63.8 39.5996 61.5 40.7006 59.2 41.5996C56.5 42.7996 53.7 43.5996 50.8 44.0996" fill="white"/>
</g>
<path fill-rule="evenodd" clip-rule="evenodd" d="M50.5 48.2998C45.8 48.9008 41.1 48.9998 36.4 49.0998C35.3 49.0998 34.3 49.0998 33.2 49.1998L0 49.7998V52.4008L33.3 50.9998C34.4 50.9998 35.4 50.9008 36.5 50.9008C41.2 50.6998 46 50.4998 50.7 49.7998C53.7 49.2998 56.6 48.5998 59.2 47.6998C61.4 46.9998 63.7 45.9998 66 44.7998V43.7998C63.6 44.9008 61.1 45.9008 58.8 46.5998C56.3 47.2998 53.5 47.9998 50.5 48.2998" fill="white"/>
<mask id="mask4" style="mask-type:alpha" maskUnits="userSpaceOnUse" x="0" y="49" width="67" height="7">
<path fill-rule="evenodd" clip-rule="evenodd" d="M0 49.2006H66.1998V55.7996H0V49.2006Z" fill="white"/>
</mask>
<g mask="url(#mask4)">
<path fill-rule="evenodd" clip-rule="evenodd" d="M50.3 52.5996C45.9 52.9996 41.5 52.9996 37.1 52.9996H33.1C22.1 52.9996 11.1 53.0996 0 53.2006V55.7996C10.6 55.4006 21.9 55.0996 33.2 54.7006C34.5 54.7006 35.9 54.5996 37.2 54.5996C41.5 54.4996 46 54.4006 50.4 53.9006C53.5 53.5996 56.3 53.0996 59 52.4006C61.3 51.7996 63.7 50.9996 66.2 50.0996V49.2006C63.7 50.0996 61.2 50.7996 58.8 51.4006C56.1 51.9996 53.3 52.4006 50.3 52.5996" fill="white"/>
</g>
<path fill-rule="evenodd" clip-rule="evenodd" d="M50.1 56.7998C48.3 56.9008 46.3 56.9008 44.1 56.9008H41.6L33 56.7998C27.1 56.7998 21.3 56.6998 15.8 56.6998L0 56.7998V59.4008L15.9 58.9998C21.4 58.9008 27.2 58.6998 33 58.5998L41.6 58.4998C44 58.4998 47.1 58.4008 50.2 58.1998C53.3 57.9998 56.1 57.6998 58.8 57.2998C61.2 56.9008 63.7 56.4008 66.2 55.7998V54.9008C63.7 55.4998 61.1 55.9998 58.7 56.2998C55.9 56.4998 53.2 56.6998 50.1 56.7998" fill="white"/>
<path fill-rule="evenodd" clip-rule="evenodd" d="M41.5 60.9004L32.9 60.7994C22 60.5994 11.1 60.4004 0 60.2004V62.7994C10.6 62.7004 21.8 62.5994 32.9 62.5004L41.5 62.4004C44.4 62.4004 47.2 62.2994 50.1 62.2004C56 62.0004 61.2 61.5994 66.2 60.9004V60.0004C61.3 60.5004 56 60.7994 50.1 60.9004H41.5" fill="white"/>
<path fill-rule="evenodd" clip-rule="evenodd" d="M66.1 65.5L0 63.8V66.4H66.1V65.5Z" fill="white"/>
<path fill-rule="evenodd" clip-rule="evenodd" d="M60.2 22C57.7 24 55.7 25.5 52.7 26.7C50 27.8 47.1 28.2 43.9 28.7C41.8 29 39.6 29.4 37.5 29.6C36.6 29.7 35.8 29.7 34.9 29.8L0 32.3V34.9L34.9 31.5L39.4 31.1C41.1 30.9 42.6 30.8 44 30.5C47.4 30 50.3 29.1 52.9 27.9C55.6 26.7 58.4 24.7 60.9 22.6C62.6 21.1 64.3 19.3 66.1 17.3V16.4C63.9 18.6 62.1 20.5 60.2 22" fill="white"/>
<path fill-rule="evenodd" clip-rule="evenodd" d="M94.2002 0C94.2002 0 106.1 18.9 108.3 22.4C110.5 25.9 113 28.6 121.8 30.5C130.6 32.4 134.4 33.2 134.4 33.2V33.9C134.4 33.9 128.8 32.7 121.6 31.1C114.4 29.5 111.5 29 108.2 24.4C105.5 20.6 94.2002 4.5 94.2002 4.5V0Z" fill="white"/>
<path fill-rule="evenodd" clip-rule="evenodd" d="M94.2002 21.6001C94.2002 21.6001 105 32.9001 108.2 36.2001C111.5 39.7001 115.8 40.9001 121.7 42.0001C127.3 43.0001 134.4 44.2001 134.4 44.2001V44.8001C134.4 44.8001 127.7 43.7001 121.7 42.7001C115.8 41.7001 111.6 41.1001 108.2 38.0001C105.2 35.2001 94.3002 25.0001 94.3002 25.0001L94.2002 21.6001Z" fill="white"/>
<path fill-rule="evenodd" clip-rule="evenodd" d="M94.2002 26.7998C94.2002 26.7998 104.5 36.3998 108.2 39.5998C111.6 42.5998 114.3 43.4998 121.7 44.9008C129.1 46.1998 134.4 46.9998 134.4 46.9998V47.6998C134.4 47.6998 127.7 46.5998 121.7 45.5998C115.7 44.5998 111.8 44.2998 108.2 41.2998C104 37.9008 94.2002 29.8998 94.2002 29.8998V26.7998Z" fill="white"/>
<path fill-rule="evenodd" clip-rule="evenodd" d="M94.2002 32.2002C94.2002 32.2002 106 41.5002 108.2 43.2002C110.4 44.8002 113.3 46.7002 121.7 48.0002C130.1 49.2002 134.4 49.8002 134.4 49.8002V50.5002C134.4 50.5002 126.8 49.4002 121.7 48.8002C116.6 48.2002 112.7 47.9002 108.2 44.9002C103.8 42.0002 94.2002 35.2002 94.2002 35.2002V32.2002Z" fill="white"/>
<path fill-rule="evenodd" clip-rule="evenodd" d="M94.2002 37.4004C94.2002 37.4004 106 45.2994 108.2 46.5004C110.4 47.7004 113.1 49.7994 121.7 50.9004C130.3 52.0004 134.4 52.5004 134.4 52.5004V53.2004C134.4 53.2004 127.3 52.4004 121.7 51.7994C116.1 51.2004 112.3 50.4004 108.2 48.0994C104.1 45.7994 94.2002 40.0994 94.2002 40.0994V37.4004Z" fill="white"/>
<path fill-rule="evenodd" clip-rule="evenodd" d="M94.2002 42.7002C94.2002 42.7002 104.6 48.4002 108.2 50.0992C112.1 52.0992 115.5 53.0002 121.7 53.8002C127.8 54.5002 134.4 55.2002 134.4 55.2002V55.8002C134.4 55.8002 128.3 55.0992 121.7 54.5002C115.2 53.9002 112.9 53.5992 108.2 51.5002C104 49.5992 94.2002 45.0992 94.2002 45.0992V42.7002Z" fill="white"/>
<path fill-rule="evenodd" clip-rule="evenodd" d="M94.2006 48C94.2006 48 102.401 51.5 108.201 53.8C113.901 56.1 118.201 56.3 121.701 56.6C123.201 56.8 134.301 57.9 134.301 57.9V58.5C134.301 58.5 127.701 58 121.601 57.4C115.601 56.9 113.001 56.6 108.101 55C103.201 53.4 94.1006 50.2 94.1006 50.2L94.2006 48Z" fill="white"/>
<path fill-rule="evenodd" clip-rule="evenodd" d="M94.2002 53.4004C94.2002 53.4004 102.5 56.0004 108.2 57.5004C113.9 59.0004 119.1 59.5994 121.7 59.7994C124.3 60.0004 134.4 60.7994 134.4 60.7994V61.4004C134.4 61.4004 128.7 61.0004 121.7 60.5004C116 60.0994 111.5 59.7004 108.2 58.9004C104.5 58.0994 94.2002 55.5994 94.2002 55.5994V53.4004Z" fill="white"/>
<path fill-rule="evenodd" clip-rule="evenodd" d="M94.2002 58.7002C94.2002 58.7002 101 59.9002 108.2 61.0992C113.6 62.0002 120.9 62.5992 121.7 62.5992C122.5 62.5992 134.4 63.5002 134.4 63.5002V64.0992C134.4 64.0992 126.8 63.7002 121.7 63.4002C116.4 63.0992 111.2 62.8002 108.2 62.5002C101.5 61.8002 94.2002 60.9002 94.2002 60.9002V58.7002Z" fill="white"/>
<path fill-rule="evenodd" clip-rule="evenodd" d="M94.2002 64.2998C94.2002 64.2998 104.9 64.6998 108.2 64.7998C111.5 64.9008 134.4 65.7998 134.4 65.7998V66.4008H94.2002V64.2998Z" fill="white"/>
<path fill-rule="evenodd" clip-rule="evenodd" d="M121.7 33.3999C112 31.2999 109.8 27.7999 108.2 25.5999C106.6 23.3999 94.2998 5.3999 94.2998 5.3999V9.4999C94.7998 10.0999 105.3 23.8999 108.3 27.6999C111.6 31.9999 116.8 32.9999 121.8 33.9999C126.8 35.0999 134.5 36.5999 134.5 36.5999V35.9999C134.4 35.9999 124.2 33.9999 121.7 33.3999" fill="white"/>
<path fill-rule="evenodd" clip-rule="evenodd" d="M121.7 36.2998C113.7 34.6998 110.5 32.1998 108.2 29.1998C105.9 26.0998 94.2998 10.8998 94.2998 10.8998V14.6998C94.7998 15.2998 105.4 27.7998 108.2 31.0998C111.5 34.8998 116.1 35.8998 121.7 36.8998C127.3 37.9008 134.4 39.2998 134.4 39.2998V38.6998C134.4 38.6998 126.3 37.1998 121.7 36.2998" fill="white"/>
<path fill-rule="evenodd" clip-rule="evenodd" d="M121.7 39.2002C113.4 37.5992 111.7 36.3002 108.2 32.4002C106 30.0002 94.7002 16.7002 94.2002 16.1002V19.6002C94.2002 19.6002 104.7 30.8002 108.1 34.2002C112.5 38.5992 116.7 38.9002 121.6 39.8002C126.5 40.7002 134.3 42.0992 134.3 42.0992V41.5002C134.4 41.5002 125 39.9002 121.7 39.2002" fill="white"/>
<mask id="mask5" style="mask-type:alpha" maskUnits="userSpaceOnUse" x="0" y="0" width="230" height="67">
<path fill-rule="evenodd" clip-rule="evenodd" d="M0 66.7H229.5V0H0V66.7Z" fill="white"/>
</mask>
<g mask="url(#mask5)">
<path fill-rule="evenodd" clip-rule="evenodd" d="M27.5 66.3H85.4V27.6H27.5V66.3Z" fill="#004494" stroke="white" stroke-width="2"/>
<path fill-rule="evenodd" clip-rule="evenodd" d="M57.1004 33.1001H59.1004L57.5004 34.4001L58.1004 36.4001L56.5004 35.2001L54.9004 36.4001L55.5004 34.4001L53.9004 33.1001H55.9004L56.5004 31.1001L57.1004 33.1001Z" fill="#FFF100"/>
<path fill-rule="evenodd" clip-rule="evenodd" d="M57.1004 58.9004H59.1004L57.5004 60.0994L58.1004 62.0004L56.5004 60.7994L54.9004 62.0004L55.5004 60.0994L53.9004 58.9004H55.9004L56.5004 57.0004L57.1004 58.9004Z" fill="#FFF100"/>
<path fill-rule="evenodd" clip-rule="evenodd" d="M63.4998 57.2002H65.4998L63.8998 58.4002L64.4998 60.3002L62.8998 59.0992L61.2998 60.3002L61.8998 58.4002L60.2998 57.2002H62.2998L62.8998 55.3002L63.4998 57.2002Z" fill="#FFF100"/>
<path fill-rule="evenodd" clip-rule="evenodd" d="M63.5004 34.7998H65.5004L63.9004 35.9998L64.5004 37.9008L62.9004 36.6998L61.3004 37.9998L62.0004 35.9998L60.4004 34.7998H62.4004L63.0004 32.8998L63.5004 34.7998Z" fill="#FFF100"/>
<path fill-rule="evenodd" clip-rule="evenodd" d="M68.2996 39.5996H70.2996L68.6996 40.7996L69.2996 42.7006L67.6996 41.4996L66.0996 42.7006L66.6996 40.7996L65.0996 39.5996H67.0996L67.6996 37.7006L68.2996 39.5996Z" fill="#FFF100"/>
<path fill-rule="evenodd" clip-rule="evenodd" d="M68.2996 52.5996H70.2996L68.6996 53.7996L69.2996 55.7006L67.6996 54.4996L66.0996 55.7006L66.6996 53.7996L65.0996 52.5996H67.0996L67.6996 50.7006L68.2996 52.5996Z" fill="#FFF100"/>
<path fill-rule="evenodd" clip-rule="evenodd" d="M70.0998 46H72.0998L70.4998 47.2L71.0998 49.1L69.4998 47.9L67.8998 49.1L68.4998 47.2L66.7998 46H68.7998L69.3998 44.1L70.0998 46Z" fill="#FFF100"/>
<path fill-rule="evenodd" clip-rule="evenodd" d="M50.4998 34.7998H52.4998L50.8998 35.9998L51.4998 37.9008L49.9998 36.7998L48.2998 37.9998L48.8998 36.0998L47.2998 34.8998H49.2998L49.9998 32.9998L50.4998 34.7998Z" fill="#FFF100"/>
<path fill-rule="evenodd" clip-rule="evenodd" d="M45.9002 39.5996H47.9002L46.3002 40.7996L46.9002 42.7006L45.3002 41.4996L43.7002 42.7006L44.3002 40.7996L42.7002 39.5996H44.7002L45.3002 37.7006L45.9002 39.5996Z" fill="#FFF100"/>
<path fill-rule="evenodd" clip-rule="evenodd" d="M44.2 46H46.2L44.6 47.2L45.2 49.1L43.6 47.9L42 49.1L42.6 47.2L41 46H43L43.6 44.1L44.2 46Z" fill="#FFF100"/>
<path fill-rule="evenodd" clip-rule="evenodd" d="M45.9002 52.5996H47.9002L46.3002 53.7996L46.9002 55.7006L45.3002 54.4996L43.7002 55.7006L44.3002 53.7996L42.7002 52.5996H44.7002L45.3002 50.7006L45.9002 52.5996Z" fill="#FFF100"/>
<path fill-rule="evenodd" clip-rule="evenodd" d="M50.6004 57.2998H52.6004L51.0004 58.4998L51.6004 60.4008L50.0004 59.1998L48.4004 60.4008L49.0004 58.4998L47.4004 57.2998H49.4004L50.0004 55.4008L50.6004 57.2998Z" fill="#FFF100"/>
<path fill-rule="evenodd" clip-rule="evenodd" d="M143.4 33.7002C143.4 33.4002 143.5 33.3002 143.8 33.3002H150.9C151.1 33.3002 151.3 33.4002 151.3 33.7002V34.9002C151.3 35.1002 151.2 35.2002 150.9 35.2002H145.7V38.5002H150.3C150.6 38.5002 150.7 38.5992 150.7 38.8002V40.0002C150.7 40.2002 150.6 40.3002 150.3 40.3002H145.7V44.0992H151.1C151.3 44.0992 151.4 44.2002 151.4 44.5002V45.7002C151.4 45.9002 151.3 46.0002 151 46.0002H143.8C143.5 46.0002 143.4 45.9002 143.4 45.7002V33.7002Z" fill="white"/>
<path fill-rule="evenodd" clip-rule="evenodd" d="M157 43.7002C157 43.7002 157 43.5002 157.1 43.3002C157.2 43.0992 157.3 42.8002 157.3 42.5002C157.4 42.2002 157.5 41.8002 157.7 41.4002L159.2 36.9002C159.2 36.8002 159.3 36.7002 159.3 36.7002C159.3 36.7002 159.5 36.6002 159.6 36.6002H161.1C161.4 36.6002 161.4 36.7002 161.3 37.0002L158 45.5992C157.9 45.7002 157.9 45.8002 157.8 45.9002C157.7 46.0002 157.6 46.0002 157.5 46.0002H156.2C156 46.0002 155.9 46.0002 155.8 45.9002C155.7 45.8002 155.7 45.7002 155.6 45.5992L152.3 37.0002V36.7002C152.3 36.6002 152.4 36.6002 152.5 36.6002H154C154.1 36.6002 154.2 36.6002 154.3 36.7002C154.4 36.8002 154.4 36.8002 154.5 37.0002L156 41.5002C156.1 41.9002 156.2 42.2002 156.3 42.5002C156.4 42.8002 156.5 43.0002 156.5 43.3002C156.9 43.5002 156.9 43.7002 157 43.7002" fill="white"/>
<path fill-rule="evenodd" clip-rule="evenodd" d="M165.2 45.7002C165.2 45.9002 165.099 46.0992 164.8 46.0992H163.4C163.2 46.0992 163 46.0002 163 45.7002V37.0002C163 36.7002 163.099 36.6002 163.4 36.6002H164.8C165.099 36.6002 165.2 36.7002 165.2 37.0002V37.8002C165.3 37.7002 165.5 37.5002 165.8 37.4002C166 37.3002 166.3 37.0992 166.5 37.0002C166.8 36.9002 167 36.8002 167.3 36.7002C167.599 36.6002 167.8 36.5002 168 36.5002H168.3C168.4 36.5002 168.4 36.6002 168.5 36.8002L168.599 38.0992V38.4002C168.599 38.5002 168.5 38.5002 168.3 38.5992C168 38.7002 167.8 38.7002 167.5 38.8002C167.2 38.9002 166.9 38.9002 166.599 39.0002C166.3 39.0992 166.099 39.2002 165.8 39.2002C165.599 39.3002 165.4 39.4002 165.2 39.4002V45.7002Z" fill="white"/>
<path fill-rule="evenodd" clip-rule="evenodd" d="M175.701 41.2998C175.701 40.7998 175.701 40.2998 175.6 39.9998C175.501 39.5998 175.401 39.2998 175.301 39.0998C175.1 38.9008 174.901 38.6998 174.701 38.4998C174.401 38.4008 174.1 38.2998 173.6 38.2998C173.201 38.2998 172.901 38.4008 172.6 38.4998C172.301 38.5998 172.1 38.7998 172.001 39.0998C171.901 39.4008 171.801 39.6998 171.701 40.0998C171.6 40.4998 171.6 40.9008 171.6 41.4008C171.6 41.9008 171.6 42.4008 171.701 42.6998C171.801 43.0998 171.901 43.4008 172.001 43.5998C172.1 43.7998 172.301 43.9998 172.6 44.1998C172.901 44.2998 173.201 44.4008 173.6 44.4008C174.001 44.4008 174.401 44.2998 174.701 44.1998C175.001 44.0998 175.201 43.9008 175.301 43.5998C175.501 43.4008 175.6 42.9998 175.6 42.6998C175.701 42.2998 175.701 41.7998 175.701 41.2998M177.901 41.1998C177.901 41.6998 177.901 42.2998 177.801 42.9008C177.701 43.4998 177.6 43.9998 177.301 44.4998C177.001 44.9998 176.6 45.4008 176.001 45.6998C175.401 45.9998 174.701 46.1998 173.701 46.1998C172.701 46.1998 172.001 45.9998 171.401 45.6998C170.801 45.4008 170.401 44.9998 170.201 44.4998C170.001 43.9998 169.801 43.4998 169.701 42.9008C169.6 42.2998 169.6 41.6998 169.6 41.1998C169.6 40.7998 169.6 40.2998 169.701 39.6998C169.801 39.1998 170.001 38.5998 170.201 38.1998C170.501 37.6998 170.901 37.2998 171.401 36.9998C171.901 36.6998 172.701 36.4998 173.6 36.4998C174.501 36.4998 175.301 36.5998 175.801 36.8998C176.401 37.1998 176.801 37.4998 177.1 37.9998C177.401 38.4998 177.6 38.9998 177.701 39.4998C177.801 39.9998 177.901 40.5998 177.901 41.1998" fill="white"/>
<path fill-rule="evenodd" clip-rule="evenodd" d="M185.901 41.2998C185.901 40.6998 185.901 40.1998 185.8 39.7998C185.701 39.4008 185.6 39.0998 185.501 38.9008C185.401 38.6998 185.201 38.5998 185.001 38.4998C184.8 38.4008 184.6 38.4008 184.3 38.4008C184.1 38.4008 183.901 38.4008 183.6 38.4998C183.401 38.5998 183.1 38.5998 182.901 38.6998C182.701 38.7998 182.401 38.9008 182.201 38.9998C182.001 39.0998 181.8 39.1998 181.701 39.2998V44.0998C182.1 44.1998 182.501 44.2998 182.901 44.4008C183.3 44.4008 183.6 44.4998 183.901 44.4998C184.201 44.4998 184.501 44.4998 184.8 44.4008C185.001 44.2998 185.201 44.0998 185.401 43.9008C185.501 43.6998 185.701 43.2998 185.701 42.9008C185.901 42.4008 185.901 41.9008 185.901 41.2998M188.1 41.2998C188.1 42.0998 188.001 42.7998 187.901 43.4008C187.8 43.9998 187.6 44.4998 187.3 44.9998C187.001 45.4008 186.6 45.6998 186.1 45.9998C185.6 46.1998 185.001 46.2998 184.201 46.2998C183.901 46.2998 183.501 46.2998 183.1 46.1998C182.701 46.0998 182.3 45.9998 181.8 45.9008V49.2998C181.8 49.4008 181.8 49.4998 181.701 49.5998C181.701 49.6998 181.6 49.6998 181.401 49.6998H180.001C179.8 49.6998 179.701 49.6998 179.701 49.5998C179.701 49.4998 179.6 49.4008 179.6 49.2998V36.9998C179.6 36.6998 179.701 36.5998 180.001 36.5998H181.401C181.501 36.5998 181.6 36.5998 181.701 36.6998C181.8 36.7998 181.8 36.8998 181.8 36.9998V37.5998H181.901C182.1 37.4998 182.3 37.4008 182.501 37.1998C182.701 37.0998 183.001 36.8998 183.3 36.7998C183.6 36.6998 183.8 36.5998 184.1 36.4998C184.401 36.3998 184.701 36.3998 184.901 36.3998C185.501 36.3998 186.001 36.4998 186.501 36.6998C186.901 36.8998 187.201 37.2998 187.501 37.6998C187.8 38.0998 187.901 38.5998 188.001 39.1998C188.001 39.9008 188.1 40.5998 188.1 41.2998" fill="white"/>
<path fill-rule="evenodd" clip-rule="evenodd" d="M196.8 43.2002C196.8 43.8002 196.7 44.2002 196.5 44.5992C196.3 45.0002 196 45.3002 195.6 45.5002C195.2 45.7002 194.8 45.9002 194.401 46.0002C193.901 46.0992 193.5 46.2002 193 46.2002C192.5 46.2002 192 46.2002 191.401 46.0992C190.8 46.0002 190.401 45.9002 190 45.8002C189.8 45.7002 189.7 45.5992 189.6 45.5002C189.5 45.4002 189.5 45.3002 189.6 45.0992L189.7 44.5002C189.7 44.3002 189.8 44.3002 189.901 44.2002H190.2C190.401 44.2002 190.6 44.3002 190.901 44.3002C191.1 44.3002 191.401 44.3002 191.6 44.4002H192.3H192.901C193.5 44.4002 194 44.3002 194.2 44.0992C194.401 43.9002 194.6 43.5992 194.6 43.3002C194.6 43.0992 194.6 42.9002 194.5 42.8002C194.5 42.7002 194.401 42.5002 194.3 42.5002C194.2 42.4002 194 42.3002 193.8 42.3002C193.6 42.2002 193.3 42.2002 193 42.2002C192.5 42.0992 192.1 42.0992 191.7 42.0002C191.3 41.9002 190.901 41.7002 190.6 41.5002C190.3 41.3002 190 41.0002 189.8 40.7002C189.6 40.4002 189.5 39.9002 189.5 39.4002C189.5 38.5002 189.8 37.7002 190.5 37.2002C191.2 36.7002 192 36.5002 193.1 36.5002H193.8C194.1 36.5002 194.3 36.5002 194.6 36.6002C194.901 36.6002 195.1 36.7002 195.401 36.7002C195.7 36.8002 195.901 36.8002 196.1 36.9002C196.401 37.0002 196.6 37.2002 196.5 37.5002L196.3 38.2002C196.3 38.3002 196.2 38.4002 196.2 38.5002C196.2 38.5992 196 38.5002 195.8 38.5002C195.401 38.4002 194.901 38.4002 194.5 38.4002C194 38.4002 193.6 38.3002 193.2 38.3002C192.6 38.3002 192.2 38.4002 192 38.5992C191.8 38.8002 191.7 39.0002 191.7 39.4002C191.7 39.8002 191.8 40.0002 192.1 40.0992C192.3 40.2002 192.8 40.3002 193.401 40.4002C193.901 40.5002 194.3 40.5002 194.7 40.5992C195.1 40.7002 195.5 40.9002 195.8 41.0992C196.1 41.3002 196.401 41.5992 196.6 41.9002C196.7 42.2002 196.8 42.7002 196.8 43.2002" fill="white"/>
<path fill-rule="evenodd" clip-rule="evenodd" d="M200.8 40.0996L202.3 38.4996L203.901 36.8996C204 36.7996 204.1 36.7006 204.2 36.7006C204.3 36.7006 204.401 36.5996 204.6 36.5996H206.1C206.3 36.5996 206.401 36.5996 206.401 36.7006C206.401 36.7996 206.401 36.8996 206.3 36.9996L203.2 40.0996L206.7 45.4996C206.8 45.5996 206.8 45.7006 206.7 45.7996C206.7 45.9006 206.6 45.9006 206.401 45.9006H204.901C204.7 45.9006 204.5 45.9006 204.5 45.7996C204.401 45.7006 204.3 45.5996 204.3 45.4996L201.8 41.5996L200.7 42.7006V45.4996C200.7 45.5996 200.7 45.7006 200.6 45.7996C200.5 45.9006 200.5 45.9006 200.3 45.9006H199C198.8 45.9006 198.6 45.7996 198.6 45.4996V32.8996C198.6 32.5996 198.7 32.4996 199 32.4996H200.401C200.5 32.4996 200.6 32.4996 200.7 32.5996C200.8 32.7006 200.8 32.7996 200.8 32.8996V40.0996Z" fill="white"/>
<path fill-rule="evenodd" clip-rule="evenodd" d="M214.5 32.3999C214.7 32.4999 214.7 32.5999 214.6 32.7999L212.6 35.4999C212.5 35.5999 212.4 35.6999 212.2 35.5999L211.5 35.2999C211.4 35.1999 211.3 35.0999 211.4 34.8999L212.9 31.8999C213 31.6999 213.1 31.6999 213.3 31.7999L214.5 32.3999ZM213.7 41.7999H211.4C210.9 41.7999 210.5 41.8999 210.2 42.0999C209.9 42.2999 209.8 42.6999 209.8 43.3999C209.8 43.7999 209.9 44.0999 210.1 44.2999C210.3 44.4999 210.6 44.4999 211 44.4999C211.2 44.4999 211.4 44.4999 211.7 44.3999C212 44.2999 212.2 44.2999 212.4 44.1999C212.6 44.0999 212.9 43.9999 213.1 43.8999C213.3 43.7999 213.5 43.6999 213.7 43.5999V41.7999ZM213.8 44.9999C213.3 45.3999 212.8 45.6999 212.2 45.8999C211.6 46.0999 211 46.1999 210.3 46.1999C209.8 46.1999 209.4 46.0999 209 45.9999C208.7 45.8999 208.4 45.6999 208.2 45.3999C208 45.1999 207.9 44.8999 207.8 44.4999C207.7 44.1999 207.7 43.7999 207.7 43.3999C207.7 42.2999 208 41.4999 208.6 40.9999C209.2 40.4999 210.1 40.1999 211.3 40.1999H213.8V39.6999C213.8 39.3999 213.8 39.1999 213.7 38.9999C213.6 38.7999 213.5 38.5999 213.4 38.4999C213.2 38.3999 213 38.2999 212.8 38.1999C212.5 38.0999 212.2 38.0999 211.8 38.0999H211.2H210.5C210.3 38.0999 210 38.0999 209.8 38.1999C209.6 38.1999 209.3 38.1999 209.2 38.2999H208.8C208.7 38.2999 208.7 38.1999 208.7 38.0999L208.5 37.3999V37.0999C208.6 36.9999 208.7 36.8999 208.9 36.7999C209.1 36.6999 209.3 36.6999 209.6 36.5999C209.9 36.4999 210.2 36.4999 210.5 36.4999C210.8 36.4999 211.1 36.3999 211.4 36.3999H212.2C213 36.3999 213.7 36.4999 214.2 36.5999C214.7 36.7999 215.1 36.9999 215.3 37.2999C215.6 37.5999 215.7 37.9999 215.8 38.3999C215.9 38.7999 215.9 39.2999 215.9 39.8999V43.5999V44.0999C215.9 44.1999 216 44.2999 216 44.2999C216 44.2999 216.1 44.3999 216.2 44.3999C216.3 44.3999 216.4 44.3999 216.6 44.4999C216.7 44.4999 216.8 44.4999 216.9 44.5999C217 44.5999 217 44.6999 217 44.7999V45.5999C217 45.7999 216.8 45.9999 216.5 45.9999C216.3 45.9999 216.2 45.9999 216 46.0999H215.6C215.2 46.0999 214.8 45.9999 214.5 45.8999C214.2 45.7999 213.9 45.3999 213.8 44.9999V44.9999Z" fill="white"/>
<path fill-rule="evenodd" clip-rule="evenodd" d="M145.2 60.4004L146.7 58.7994L148.3 57.2004C148.4 57.0994 148.5 57.0004 148.599 57.0004C148.7 56.9004 148.8 56.9004 149 56.9004H150.5C150.7 56.9004 150.8 56.9004 150.8 57.0004C150.8 57.0994 150.8 57.2004 150.7 57.2994L147.599 60.4004L151.099 65.7994C151.2 65.9004 151.2 66.0004 151.099 66.0994C151.099 66.2004 151 66.2004 150.8 66.2004H149.3C149.099 66.2004 148.9 66.2004 148.9 66.0994C148.8 66.0004 148.7 65.9004 148.7 65.7994L146.2 61.9004L145.1 63.0004V66.0004C145.1 66.0994 145.1 66.2004 145 66.2994C144.9 66.4004 144.9 66.4004 144.7 66.4004H143.3C143.1 66.4004 142.9 66.2994 142.9 66.0004V53.2004C142.9 52.9004 143 52.7994 143.3 52.7994H144.7C144.8 52.7994 144.9 52.7994 145 52.9004C145.1 53.0004 145.1 53.0994 145.1 53.2004L145.2 60.4004Z" fill="white"/>
<path fill-rule="evenodd" clip-rule="evenodd" d="M158.1 61.5996C158.1 61.0996 158.1 60.5996 158 60.2996C157.901 59.9996 157.8 59.5996 157.701 59.4006L157.1 58.7996C156.8 58.7006 156.5 58.5996 156 58.5996C155.6 58.5996 155.3 58.7006 155 58.7996C154.701 58.9006 154.5 59.0996 154.401 59.4006C154.3 59.7006 154.201 59.9996 154.1 60.4006C154 60.7996 154 61.2006 154 61.7006C154 62.2006 154 62.7006 154.1 62.9996C154.201 63.4006 154.3 63.7006 154.401 63.9006C154.5 64.0996 154.701 64.2996 155 64.4996C155.3 64.5996 155.6 64.7006 156 64.7006C156.401 64.7006 156.8 64.5996 157.1 64.4996C157.401 64.4006 157.6 64.2006 157.701 63.9006C157.901 63.7006 158 63.2996 158 62.9996C158 62.7006 158.1 62.0996 158.1 61.5996M160.3 61.4996C160.3 61.9996 160.3 62.5996 160.201 63.2006C160.1 63.7996 160 64.2996 159.701 64.7996C159.401 65.2996 159 65.7006 158.401 65.9996C157.8 66.2996 157.1 66.4996 156.1 66.4996C155.1 66.4996 154.401 66.2996 153.8 65.9996C153.201 65.7006 152.8 65.2996 152.6 64.7996C152.401 64.2996 152.201 63.7996 152.1 63.2006C152 62.5996 152 61.9996 152 61.4996C152 61.0996 152 60.5996 152.1 59.9996C152.201 59.4996 152.401 58.9006 152.6 58.4996C152.901 57.9996 153.3 57.5996 153.8 57.2996C154.3 56.9996 155.1 56.7996 156 56.7996C156.901 56.7996 157.701 56.9006 158.201 57.2006C158.8 57.4996 159.201 57.7996 159.5 58.2996C159.8 58.7996 160 59.2996 160.1 59.7996C160.201 60.4006 160.3 60.9006 160.3 61.4996" fill="white"/>
<path fill-rule="evenodd" clip-rule="evenodd" d="M175.799 66.2998C175.799 66.4008 175.699 66.4008 175.499 66.4008H174.099C173.9 66.4008 173.699 66.2998 173.699 65.9998V60.4998C173.699 59.7998 173.599 59.2998 173.4 59.0998C173.199 58.9008 172.9 58.6998 172.4 58.6998C172.199 58.6998 171.999 58.6998 171.799 58.7998C171.599 58.9008 171.4 58.9008 171.099 58.9998C170.9 59.0998 170.699 59.1998 170.499 59.2998C170.299 59.4008 170.099 59.4998 169.999 59.5998V59.9998V60.5998V65.9998C169.999 66.0998 169.999 66.1998 169.9 66.2998C169.799 66.4008 169.799 66.4008 169.599 66.4008H168.199C167.999 66.4008 167.9 66.2998 167.9 65.9998V60.4998C167.9 59.9008 167.799 59.4998 167.599 59.1998C167.4 58.9008 167.099 58.7998 166.599 58.7998C166.4 58.7998 166.199 58.7998 165.999 58.9008C165.799 58.9998 165.599 58.9998 165.299 59.0998C165.099 59.1998 164.9 59.2998 164.599 59.4008C164.4 59.4998 164.199 59.5998 163.999 59.6998V65.9998C163.999 66.1998 163.9 66.4008 163.599 66.4008H162.199C161.999 66.4008 161.9 66.2998 161.9 65.9998V57.2998C161.9 56.9998 161.999 56.9008 162.199 56.9008H163.599C163.9 56.9008 163.999 56.9998 163.999 57.2998V57.9008C164.199 57.7998 164.4 57.5998 164.599 57.4998C164.799 57.4008 165.099 57.1998 165.299 57.0998C165.499 56.9998 165.799 56.9008 166.099 56.7998C166.4 56.6998 166.599 56.6998 166.9 56.6998C167.4 56.6998 167.999 56.7998 168.4 56.9998C168.9 57.1998 169.199 57.4998 169.499 58.0998C169.999 57.6998 170.499 57.4008 171.099 57.1998C171.699 56.9008 172.299 56.7998 172.9 56.7998C173.499 56.7998 173.999 56.9008 174.4 57.0998C174.799 57.2998 175.099 57.5998 175.199 57.9008C175.4 58.1998 175.499 58.5998 175.599 58.9998C175.699 59.4008 175.699 59.9008 175.699 60.4008V65.9998C175.9 66.0998 175.9 66.1998 175.799 66.2998" fill="white"/>
<path fill-rule="evenodd" clip-rule="evenodd" d="M180.3 66C180.3 66.1 180.3 66.2 180.2 66.3C180.1 66.4 180.1 66.4 179.901 66.4H178.5C178.2 66.4 178.1 66.3 178.1 66V57.3C178.1 57.1 178.2 56.9 178.5 56.9H179.901C180 56.9 180.1 56.9 180.2 57C180.3 57.1 180.3 57.2 180.3 57.3V66ZM180.401 54.5V54.9C180.401 55 180.3 55.2 180.2 55.3C180.1 55.4 180 55.5 179.901 55.5C179.8 55.6 179.6 55.6 179.3 55.6C179 55.6 178.8 55.6 178.7 55.5C178.6 55.4 178.401 55.4 178.401 55.3C178.3 55.2 178.3 55.1 178.2 54.9V54.5C178.2 54.2 178.3 53.9 178.401 53.7C178.5 53.5 178.901 53.4 179.3 53.4C179.8 53.4 180.1 53.5 180.2 53.7C180.401 53.9 180.401 54.1 180.401 54.5V54.5Z" fill="white"/>
<path fill-rule="evenodd" clip-rule="evenodd" d="M189.7 63.5C189.7 64.1 189.599 64.5 189.4 64.9C189.2 65.3 188.9 65.6 188.5 65.8C188.099 66 187.7 66.2 187.3 66.3C186.8 66.4 186.4 66.5 185.9 66.5C185.4 66.5 184.9 66.5 184.3 66.4C183.7 66.3 183.3 66.2 182.9 66.1C182.7 66 182.599 65.9 182.5 65.8C182.4 65.7 182.4 65.6 182.5 65.4L182.599 64.8C182.599 64.6 182.7 64.6 182.8 64.5H183.099C183.3 64.5 183.5 64.6 183.8 64.6C184 64.6 184.3 64.6 184.5 64.7H185.2H185.8C186.4 64.7 186.9 64.6 187.099 64.4C187.3 64.2 187.5 63.9 187.5 63.6C187.5 63.4 187.5 63.2 187.4 63.1C187.4 63 187.3 62.8 187.2 62.8C187.099 62.7 186.9 62.6 186.7 62.6C186.5 62.5 186.2 62.5 185.9 62.5C185.4 62.4 185 62.4 184.599 62.3C184.2 62.2 183.8 62 183.5 61.8C183.2 61.6 182.9 61.3 182.7 61C182.5 60.7 182.4 60.2 182.4 59.7C182.4 58.8 182.7 58 183.4 57.5C184.099 57 184.9 56.8 186 56.8H186.7C187 56.8 187.2 56.8 187.5 56.9C187.8 56.9 188 57 188.3 57C188.599 57.1 188.8 57.1 189 57.2C189.3 57.3 189.5 57.5 189.4 57.8L189.2 58.5C189.2 58.6 189.099 58.7 189.099 58.8C189.099 58.9 188.9 58.8 188.7 58.8C188.3 58.7 187.8 58.7 187.4 58.7C186.9 58.7 186.5 58.6 186.099 58.6C185.5 58.6 185.099 58.7 184.9 58.9C184.7 59.1 184.599 59.3 184.599 59.7C184.599 60.1 184.7 60.3 185 60.4C185.2 60.5 185.7 60.6 186.3 60.7C186.8 60.8 187.2 60.8 187.599 60.9C188 61 188.4 61.2 188.7 61.4C189 61.6 189.3 61.9 189.5 62.2C189.599 62.5 189.7 63 189.7 63.5" fill="white"/>
<path fill-rule="evenodd" clip-rule="evenodd" d="M195.401 58.5C195.001 58.5 194.701 58.6 194.501 58.7C194.3 58.8 194.1 58.9 193.901 59.1C193.8 59.3 193.6 59.5 193.6 59.8C193.501 60.1 193.501 60.4 193.501 60.8H197.3C197.3 60.5 197.3 60.2 197.201 60C197.1 59.7 197.1 59.5 196.901 59.3C196.8 59.1 196.6 58.9 196.3 58.8C196.1 58.6 195.8 58.5 195.401 58.5V58.5ZM193.501 62.2C193.501 62.7 193.6 63.1 193.701 63.4C193.8 63.7 193.901 64 194.1 64.2C194.3 64.4 194.501 64.5 194.8 64.6C195.1 64.7 195.401 64.7 195.8 64.7C196.1 64.7 196.6 64.7 197.001 64.6C197.501 64.5 197.901 64.5 198.3 64.5H198.701C198.8 64.5 198.8 64.6 198.8 64.8L198.901 65.4V65.7C198.901 65.8 198.8 65.9 198.6 65.9C198.401 66 198.201 66 197.901 66.1C197.6 66.2 197.401 66.2 197.1 66.2C196.8 66.2 196.501 66.3 196.3 66.3H195.501C194.6 66.3 193.8 66.2 193.3 65.9C192.8 65.6 192.3 65.3 192.001 64.8C191.701 64.4 191.501 63.8 191.401 63.3C191.3 62.8 191.3 62.1 191.3 61.5C191.3 61 191.3 60.5 191.401 59.9C191.501 59.3 191.701 58.8 191.901 58.3C192.201 57.8 192.6 57.4 193.1 57C193.6 56.7 194.401 56.5 195.3 56.5C196.201 56.5 196.901 56.6 197.401 56.9C197.901 57.2 198.3 57.5 198.6 57.9C198.901 58.3 199.1 58.8 199.201 59.3C199.3 59.8 199.401 60.3 199.401 60.8C199.401 61.1 199.401 61.4 199.201 61.6C199.1 61.8 198.8 61.9 198.401 61.9H193.501V62.2Z" fill="white"/>
<path fill-rule="evenodd" clip-rule="evenodd" d="M226.2 66.7H229.5V28H226.2V66.7Z" fill="white"/>
</g>
</svg>
