<svg
  width="290"
  height="72"
  viewBox="0 0 290 72"
  fill="none"
  xmlns="http://www.w3.org/2000/svg"
>
<path
    d="M29.0595 64.8961H84.7641L84.759 28.8354L29.0544 28.8405L29.0595 64.8961Z"
    fill="#003399"
  />
<path
    d="M57.4401 33.3809H59.4717L57.8331 34.6449L58.4712 36.6472L56.8429 35.4135L55.2146 36.6472L55.8526 34.6449L54.2039 33.3809H56.2303L56.8429 31.4292L57.4401 33.3809Z"
    fill="#FFED00"
  />
<path
    d="M57.5115 59.1573H59.5431L57.9097 60.3759L58.5426 62.3023L56.9143 61.1141L55.286 62.3023L55.9292 60.3759L54.2753 59.1573H56.3018L56.9143 57.2815L57.5115 59.1573Z"
    fill="#FFED00"
  />
<path
    d="M63.9482 57.4534H65.9849L64.3464 58.6669L64.9844 60.5933L63.351 59.4051L61.7227 60.5933L62.3659 58.6669L60.712 57.4534H62.7385L63.351 55.5725L63.9482 57.4534Z"
    fill="#FFED00"
  />
<path
    d="M63.9482 35.1H65.9849L64.3464 36.3185L64.9844 38.2449L63.351 37.0567L61.7227 38.2449L62.3659 36.3185L60.712 35.1H62.7385L63.351 33.2241L63.9482 35.1Z"
    fill="#FFED00"
  />
<path
    d="M68.7311 39.8377H70.7575L69.1241 41.0512L69.7571 42.9776L68.1288 41.7894L66.5005 42.9776L67.1436 41.0512L65.4898 39.8377H67.5162L68.1288 37.9568L68.7311 39.8377Z"
    fill="#FFED00"
  />
<path
    d="M68.7311 52.7815H70.7575L69.1241 54L69.7571 55.9264L68.1288 54.7382L66.5005 55.9264L67.1436 54L65.4898 52.7815H67.5162L68.1288 50.9056L68.7311 52.7815Z"
    fill="#FFED00"
  />
<path
    d="M70.5176 46.2085H72.5543L70.9158 47.427L71.5487 49.3534L69.9204 48.1652L68.2921 49.3534L68.9353 47.427L67.2814 46.2085H69.3079L69.9204 44.3326L70.5176 46.2085Z"
    fill="#FFED00"
  />
<path
    d="M50.8809 35.1203H52.9074L51.274 36.3338L51.9069 38.2602L50.2786 37.072L48.6503 38.2602L49.2934 36.3338L47.6447 35.1203H49.6661L50.2786 33.2394L50.8809 35.1203Z"
    fill="#FFED00"
  />
<path
    d="M46.2308 39.8527H48.2674L46.6289 41.0662L47.2619 42.9926L45.6336 41.8044L44.0052 42.9926L44.6484 41.0662L42.9946 39.8527H45.021L45.6336 37.9718L46.2308 39.8527Z"
    fill="#FFED00"
  />
<path
    d="M44.5055 46.2287H46.537L44.9036 47.4422L45.5366 49.3686L43.9083 48.1854L42.28 49.3686L42.9231 47.4422L41.2744 46.2287H43.2957L43.9083 44.3478L44.5055 46.2287Z"
    fill="#FFED00"
  />
<path
    d="M46.2308 52.7966H48.2674L46.6289 54.0152L47.2619 55.9416L45.6336 54.7534L44.0052 55.9416L44.6484 54.0152L42.9946 52.7966H45.021L45.6336 50.9208L46.2308 52.7966Z"
    fill="#FFED00"
  />
<path
    d="M50.9473 57.4685H52.9737L51.3403 58.682L51.9733 60.6084L50.3449 59.4202L48.7166 60.6084L49.3598 58.682L47.7111 57.4685H49.7324L50.3449 55.5876L50.9473 57.4685Z"
    fill="#FFED00"
  />
<path
    d="M94.9372 0.00505726C94.9372 0.00505726 106.917 18.9101 109.112 22.3736C111.302 25.8371 113.808 28.5826 122.675 30.4433C131.541 32.304 135.4 33.1837 135.4 33.1837V33.8562C135.4 33.8562 129.765 32.668 122.516 31.0652C115.268 29.4624 112.302 28.9214 109 24.3657C106.249 20.5736 94.9372 3.61517 94.9372 3.61517V0V0.00505726Z"
    fill="white"
  />
<path
    d="M94.9372 21.5949C94.9372 21.5949 105.845 32.9157 109 36.1668C112.348 39.6151 116.631 40.8893 122.573 41.941C128.244 42.9421 135.395 44.1 135.395 44.1V44.7371C135.395 44.7371 128.677 43.6449 122.573 42.6135C116.585 41.5972 112.394 41.0309 108.964 37.9011C105.891 35.1 94.9372 24.9219 94.9372 24.9219V21.5898V21.5949Z"
    fill="white"
  />
<path
    d="M94.9372 26.6966C94.9372 26.6966 105.309 36.2376 109 39.4988C112.394 42.4972 115.146 43.4325 122.608 44.7421C130.071 46.0517 135.395 46.8657 135.395 46.8657V47.5382C135.395 47.5382 128.642 46.441 122.573 45.4803C116.503 44.5247 112.634 44.1455 109 41.2281C104.809 37.8606 94.9372 29.8112 94.9372 29.8112V26.6915V26.6966Z"
    fill="white"
  />
<path
    d="M94.9372 32.1321C94.9372 32.1321 106.785 41.4456 109 43.0737C111.215 44.7018 114.145 46.6029 122.644 47.8214C131.071 49.0298 135.395 49.6265 135.395 49.6265V50.3343C135.395 50.3343 127.754 49.2371 122.644 48.6001C117.535 47.963 113.619 47.69 109.036 44.6664C104.574 41.7237 94.9372 35.004 94.9372 35.004V32.1321Z"
    fill="white"
  />
<path
    d="M94.9372 37.3601C94.9372 37.3601 106.82 45.1972 109.071 46.441C111.322 47.6798 113.967 49.7022 122.644 50.7994C131.322 51.8966 135.395 52.3921 135.395 52.3921V53.0646C135.395 53.0646 128.218 52.286 122.608 51.6843C117.004 51.0826 113.18 50.2685 109 47.9983C104.819 45.7331 94.9372 40.0095 94.9372 40.0095V37.3601Z"
    fill="white"
  />
<path
    d="M94.9372 42.5883C94.9372 42.5883 105.442 48.2512 109 50.0158C112.966 51.9878 116.396 52.9333 122.608 53.6664C128.708 54.3844 135.395 55.0821 135.395 55.0821V55.7192C135.395 55.7192 129.213 55.0619 122.608 54.4451C116.059 53.8282 113.727 53.5451 109 51.467C104.773 49.6063 94.9372 45.0658 94.9372 45.0658V42.5833V42.5883Z"
    fill="white"
  />
<path
    d="M94.9372 47.8871C94.9372 47.8871 103.237 51.4062 109.071 53.7017C114.809 55.9568 119.193 56.1489 122.68 56.5382C124.216 56.7101 135.395 57.8478 135.395 57.8478V58.4848C135.395 58.4848 128.718 57.9539 122.644 57.423C116.57 56.8921 113.951 56.6646 109.036 55.0517C104.059 53.4135 94.9372 50.2635 94.9372 50.2635V47.8921V47.8871Z"
    fill="white"
  />
<path
    d="M94.9372 53.2921C94.9372 53.2921 103.319 55.8657 109.036 57.3522C114.753 58.8387 120 59.4455 122.644 59.6174C125.288 59.7944 135.4 60.6084 135.4 60.6084V61.2101C135.4 61.2101 129.647 60.8208 122.608 60.3253C116.917 59.9258 112.348 59.5011 109 58.768C105.294 57.959 94.9372 55.5219 94.9372 55.5219V53.2921Z"
    fill="white"
  />
<path
    d="M94.9372 58.6062C94.9372 58.6062 101.792 59.7792 109.036 60.9674C114.467 61.8573 121.822 62.4186 122.608 62.454C123.394 62.4893 135.395 63.3034 135.395 63.3034V63.9405C135.395 63.9405 127.713 63.5461 122.608 63.268C117.29 62.9747 112.001 62.6562 109 62.3478C102.272 61.6551 94.9372 60.7349 94.9372 60.7349V58.6062Z"
    fill="white"
  />
<path
    d="M94.9372 64.1074C94.9372 64.1074 105.748 64.5119 109.036 64.5827C112.323 64.6535 135.395 65.5737 135.395 65.5737V66.1956H94.9372V64.1074Z"
    fill="white"
  />
<path
    d="M122.603 33.3657C112.818 31.2775 110.603 27.7332 108.959 25.5388C107.315 23.3393 94.9321 5.41516 94.9321 5.41516V8.71179C95.4222 9.34382 106.019 23.8348 108.995 27.627C112.348 31.8994 117.601 32.8702 122.603 33.932C127.6 34.9938 135.395 36.4753 135.395 36.4753V35.909C135.395 35.909 125.135 33.9017 122.603 33.3657Z"
    fill="white"
  />
<path
    d="M122.603 36.2023C114.569 34.645 111.317 32.127 108.959 29.0832C106.601 26.0343 94.9321 10.4461 94.9321 10.4461V14.2787C95.4222 14.85 106.096 27.7534 108.959 30.9995C112.297 34.7866 116.958 35.7826 122.603 36.809C128.249 37.8355 135.39 39.1804 135.39 39.1804V38.6141C135.39 38.6141 127.238 37.1023 122.603 36.2074V36.2023Z"
    fill="white"
  />
<path
    d="M122.603 39.1399C114.247 37.5321 112.532 36.2124 108.995 32.3748C106.769 29.963 95.4119 16.6804 94.9321 16.1191V19.6585C94.9321 19.6585 105.544 30.8731 108.959 34.1849C113.436 38.5332 117.637 38.8619 122.603 39.7467C127.57 40.6315 135.39 42.0473 135.39 42.0473V41.4456C135.39 41.4456 125.947 39.7871 122.603 39.145V39.1399Z"
    fill="white"
  />
<path
    d="M0.00510552 27.7787C0.00510552 27.7787 27.6711 24.8562 35.4196 23.7792C47.6702 22.0803 57.6953 20.2702 66.9701 6.18875C66.9701 6.18875 66.9803 5.38987 66.9701 5.03088C61.2889 13.591 53.4536 19.4309 42.6628 21.1247C32.1222 22.7831 0 25.2051 0 25.2051V27.7787H0.00510552Z"
    fill="white"
  />
<path
    d="M0.00511169 24.2849C0.00511169 24.2849 25.6446 21.1045 34.0925 19.9315C47.4559 18.0809 56.8531 16.4174 66.9701 1.05675C66.9701 1.05675 66.9752 0.394392 66.9701 0.00506592C60.7733 9.34384 53.1218 15.3759 41.351 17.2264C29.8507 19.0365 0.00511169 21.6759 0.00511169 21.6759V24.2899V24.2849Z"
    fill="white"
  />
<path d="M26.1806 64.1326H0.020462V66.1854H26.1806V64.1326Z" fill="white" />
<path
    d="M66.9701 22.5708C66.9701 22.5708 66.9854 21.3624 66.9803 21.1045C65.7501 22.9601 64.132 24.6438 62.2638 26.1253H64.0963C65.1274 25.0736 66.0921 23.8955 66.965 22.5708H66.9701Z"
    fill="white"
  />
<path
    d="M66.9701 17.1102C66.9701 17.1102 66.9803 16.0383 66.9752 15.745C64.0095 20.2147 59.5942 23.7843 54.4897 26.1506L57.5014 26.1405C60.9826 24.1332 64.2188 21.2815 66.965 17.1102H66.9701Z"
    fill="white"
  />
<path
    d="M66.9701 11.6494C66.9701 11.6494 66.9803 10.714 66.9701 10.3904C61.8095 18.1719 53.7853 23.4961 43.9746 25.0382C41.6521 25.4023 37.8697 25.8067 33.4748 26.2163L45.4549 26.1758C53.3617 24.4315 60.7631 21.059 66.9599 11.6494H66.9701Z"
    fill="white"
  />
<path
    d="M26.1857 60.6742C12.8377 60.745 0.020462 60.8006 0.020462 60.8006V62.9394C0.020462 62.9394 13.4451 62.8433 26.1857 62.7371V60.6742Z"
    fill="white"
  />
<path
    d="M26.1857 57.0034C12.9295 57.15 0.0153351 57.2613 0.0153351 57.2613V59.4456C0.0153351 59.4456 13.5778 59.2686 26.1857 59.0714V57.0034Z"
    fill="white"
  />
<path
    d="M26.1806 53.3225C13.0214 53.55 0.0153351 53.722 0.0153351 53.722V55.9517C0.0153351 55.9517 13.7207 55.6837 26.1806 55.3905V53.3225Z"
    fill="white"
  />
<path
    d="M26.1857 49.6214C13.1235 49.9399 0.0153351 50.1776 0.0153351 50.1776V52.4478C0.0153351 52.4478 13.879 52.0736 26.1857 51.6843V49.6163V49.6214Z"
    fill="white"
  />
<path
    d="M26.1908 45.9102C13.2256 46.3197 0.0153351 46.6433 0.0153351 46.6433V48.959C0.0153351 48.959 14.0474 48.4736 26.1908 47.9781V45.9152V45.9102Z"
    fill="white"
  />
<path
    d="M26.1857 42.1838C13.3226 42.6995 0.0153351 43.104 0.0153351 43.104V45.4602C0.0153351 45.4602 14.2209 44.8433 26.1857 44.2315V42.1787V42.1838Z"
    fill="white"
  />
<path
    d="M26.1908 38.432C13.4247 39.059 0.0102234 39.5595 0.0102234 39.5595V41.9612C0.0102234 41.9612 14.4047 41.1977 26.1908 40.4646V38.432Z"
    fill="white"
  />
<path
    d="M26.1908 34.6602C13.5216 35.4085 0.0102234 36.0203 0.0102234 36.0203V38.4624C0.0102234 38.4624 14.5987 37.5321 26.1908 36.6725V34.6602Z"
    fill="white"
  />
<path
    d="M26.1908 30.868C13.6084 31.7478 0.0102234 32.486 0.0102234 32.486V34.9737C0.0102234 34.9737 14.7926 33.8512 26.1908 32.8602V30.8731V30.868Z"
    fill="white"
  />
<path
    d="M26.1908 27.0404C13.685 28.0668 0.00511169 28.9415 0.00511169 28.9415V31.4696C0.00511169 31.4696 14.9866 30.1247 26.1908 28.9921V27.0404Z"
    fill="white"
  />
<path
    d="M86.0759 66.1906V27.5461H27.7528V66.1906H86.0759ZM84.759 28.8355V64.8962H29.0544V28.8405H84.759V28.8355Z"
    fill="white"
  />
<path
    d="M146.673 45.4269C146.577 45.7365 146.425 45.8329 146.151 45.8329H144.648C144.415 45.8329 144.338 45.7365 144.435 45.4472L148.328 33.4522C148.425 33.1832 148.521 33.0461 148.866 33.0461H150.547C150.912 33.0461 150.988 33.1984 151.069 33.4522L155.044 45.4878C155.1 45.701 155.064 45.8329 154.851 45.8329H153.156C152.846 45.8329 152.77 45.6959 152.673 45.4269L151.861 42.6502H147.541L146.673 45.4269ZM150.531 38.0969L149.739 35.3203H149.663L148.892 38.0614L148.079 40.838H151.338L150.526 38.102L150.531 38.0969Z"
    fill="white"
  />
<path
    d="M164.186 45.8327H162.795C162.547 45.8327 162.43 45.716 162.43 45.4672L162.45 40.0459C162.45 38.9089 162.181 38.1576 161.064 38.1576C160.293 38.1576 158.943 38.7769 158.42 39.0256V45.4672C158.42 45.7008 158.323 45.8327 158.054 45.8327H156.684C156.415 45.8327 156.318 45.716 156.318 45.4672V36.7667C156.318 36.518 156.415 36.381 156.684 36.381H158.054C158.323 36.381 158.42 36.518 158.42 36.7667V37.3454C158.42 37.3454 158.46 37.3657 158.476 37.3657C159.191 36.8632 160.542 36.2084 161.714 36.2084C164.318 36.2084 164.552 37.9241 164.552 39.8733V45.4672C164.552 45.7008 164.476 45.8327 164.186 45.8327Z"
    fill="white"
  />
<path
    d="M177.364 32.8933C178.308 32.8933 179.871 33.0304 180.892 33.4517C181.201 33.5887 181.318 33.741 181.257 34.0507L181.085 34.8426C181.029 35.0761 180.932 35.1725 180.582 35.1319C179.638 35.0151 178.481 34.8832 177.476 34.8832C174.851 34.8832 174.465 37.005 174.465 39.5126C174.465 42.0202 174.948 44.0253 177.476 44.0253C178.597 44.0253 179.542 43.9085 180.582 43.7766C180.948 43.736 181.024 43.8324 181.105 44.0862L181.257 44.8172C181.333 45.1268 181.237 45.2994 180.932 45.4365C179.988 45.8426 178.308 46.0151 177.364 46.0151C173.064 46.0151 172.156 42.8324 172.156 39.5532C172.156 36.274 172.968 32.8984 177.364 32.8984V32.8933Z"
    fill="white"
  />
<path
    d="M186.775 45.9849C182.897 45.9849 182.648 43.1525 182.648 40.9494C182.648 39.1372 183.054 36.188 186.775 36.188C190.496 36.188 191.039 38.6753 191.039 40.9494C191.039 43.2235 190.77 45.9849 186.775 45.9849ZM186.795 38.0408C185.156 38.0408 184.79 39.0814 184.79 41.0865C184.79 43.0915 185.156 44.1321 186.775 44.1321C188.531 44.1321 188.877 43.1474 188.877 41.0865C188.877 39.0255 188.547 38.0408 186.795 38.0408Z"
    fill="white"
  />
<path
    d="M194.283 34.9954C193.278 34.9954 193.146 34.437 193.146 33.8786C193.146 33.2593 193.359 32.7771 194.283 32.7771C195.207 32.7771 195.42 33.2187 195.42 33.8786C195.42 34.4776 195.247 34.9954 194.283 34.9954ZM195.303 45.4675C195.303 45.6806 195.227 45.8329 194.958 45.8329H193.587C193.318 45.8329 193.201 45.7162 193.201 45.4675V36.7517C193.201 36.4827 193.318 36.3862 193.587 36.3862H194.958C195.227 36.3862 195.303 36.5385 195.303 36.7517V45.4675Z"
    fill="white"
  />
<path
    d="M211.156 45.8327H209.765C209.496 45.8327 209.399 45.716 209.399 45.4672V39.9901C209.399 38.5637 209.054 38.1576 208.09 38.1576C207.374 38.1576 206.216 38.716 205.623 39.0256C205.623 39.2185 205.643 39.5637 205.643 40.0104V45.4672C205.643 45.7008 205.567 45.8327 205.277 45.8327H203.871C203.623 45.8327 203.541 45.716 203.541 45.4672V39.8936C203.541 38.716 203.232 38.1576 202.267 38.1576C201.592 38.1576 200.511 38.6398 199.78 39.0256V45.4672C199.78 45.7008 199.683 45.8327 199.414 45.8327H198.024C197.775 45.8327 197.678 45.716 197.678 45.4672V36.7667C197.678 36.518 197.775 36.381 198.024 36.381H199.394C199.683 36.381 199.78 36.5332 199.78 36.7667V37.3251L199.8 37.3454C200.551 36.8226 201.612 36.249 202.673 36.2084C203.79 36.2084 204.719 36.4419 205.318 37.5586C206.282 36.8429 207.475 36.2084 208.714 36.2084C211.262 36.2084 211.511 37.8683 211.511 39.7972V45.4672C211.511 45.7008 211.435 45.8327 211.166 45.8327H211.156Z"
    fill="white"
  />
<path
    d="M214.938 34.9954C213.933 34.9954 213.801 34.437 213.801 33.8786C213.801 33.2593 214.014 32.7771 214.938 32.7771C215.861 32.7771 216.075 33.2187 216.075 33.8786C216.075 34.4776 215.902 34.9954 214.938 34.9954ZM215.963 45.4675C215.963 45.6806 215.887 45.8329 215.618 45.8329H214.247C213.978 45.8329 213.861 45.7162 213.861 45.4675V36.7517C213.861 36.4827 213.978 36.3862 214.247 36.3862H215.618C215.887 36.3862 215.963 36.5385 215.963 36.7517V45.4675Z"
    fill="white"
  />
<path
    d="M221.517 45.9849C220.552 45.9849 219.258 45.8479 218.527 45.5585C218.141 45.4063 218.065 45.2286 218.121 44.924L218.258 44.2895C218.319 43.9799 218.451 43.9596 218.76 44.0002C219.608 44.1372 220.841 44.2337 221.501 44.2337C222.735 44.2337 223.237 43.9037 223.237 43.1321C223.237 42.2438 222.913 42.0509 221.694 41.8783C219.806 41.6093 218.146 41.2032 218.146 39.1017C218.146 37.1931 219.613 36.188 221.77 36.188C222.562 36.188 223.892 36.3047 224.704 36.6144C225.034 36.7514 225.166 36.9037 225.11 37.1931L224.958 37.8885C224.897 38.1575 224.786 38.1981 224.435 38.1575C223.608 38.0611 222.527 37.9443 221.811 37.9443C220.578 37.9443 220.288 38.2895 220.288 39.0255C220.288 39.7616 220.75 39.8733 221.928 40.0662C223.76 40.3352 225.42 40.7007 225.42 43.0002C225.42 45.2997 223.512 45.99 221.522 45.99L221.517 45.9849Z"
    fill="white"
  />
<path
    d="M228.557 34.9954C227.552 34.9954 227.42 34.437 227.42 33.8786C227.42 33.2593 227.633 32.7771 228.557 32.7771C229.481 32.7771 229.694 33.2187 229.694 33.8786C229.694 34.4776 229.522 34.9954 228.557 34.9954ZM229.577 45.4675C229.577 45.6806 229.501 45.8329 229.232 45.8329H227.862C227.593 45.8329 227.476 45.7162 227.476 45.4675V36.7517C227.476 36.4827 227.593 36.3862 227.862 36.3862H229.232C229.501 36.3862 229.577 36.5385 229.577 36.7517V45.4675Z"
    fill="white"
  />
<path
    d="M239.78 45.8324H238.41C238.12 45.8324 238.044 45.6953 238.044 45.4669V44.8679L238.009 44.8476C237.258 45.3705 235.943 46.005 234.77 46.005C232.166 46.005 231.917 44.4618 231.917 42.4365V36.7664C231.917 36.5329 232.014 36.3806 232.283 36.3806H233.689C233.938 36.3806 234.034 36.5177 234.034 36.7664V42.1877C234.034 43.3451 234.268 44.0761 235.44 44.0761C236.268 44.0761 237.542 43.4568 238.044 43.208V36.7664C238.044 36.5329 238.12 36.3806 238.41 36.3806H239.78C240.049 36.3806 240.146 36.5177 240.146 36.7664V45.4669C240.146 45.7157 240.049 45.8324 239.78 45.8324ZM238.415 32.1573C238.628 32.274 238.608 32.4263 238.491 32.5837L236.527 35.2842C236.43 35.4212 236.334 35.4771 236.161 35.4009L235.41 35.0558C235.273 34.9796 235.217 34.8832 235.313 34.6903L236.857 31.7004C236.953 31.5075 237.105 31.5075 237.283 31.5837L238.42 32.1624L238.415 32.1573Z"
    fill="white"
  />
<path
    d="M250.004 45.8327H248.613C248.364 45.8327 248.247 45.716 248.247 45.4672L248.268 40.0459C248.268 38.9089 247.999 38.1576 246.877 38.1576C246.105 38.1576 244.755 38.7769 244.237 39.0256V45.4672C244.237 45.7008 244.141 45.8327 243.872 45.8327H242.501C242.232 45.8327 242.136 45.716 242.136 45.4672V36.7667C242.136 36.518 242.232 36.381 242.501 36.381H243.872C244.141 36.381 244.237 36.518 244.237 36.7667V37.3454C244.237 37.3454 244.278 37.3657 244.298 37.3657C245.009 36.8632 246.359 36.2084 247.537 36.2084C250.141 36.2084 250.369 37.9241 250.369 39.8733V45.4672C250.369 45.7008 250.293 45.8327 250.004 45.8327Z"
    fill="white"
  />
<path
    d="M145.415 53.7159C145.415 53.4671 145.532 53.3301 145.801 53.3301H152.897C153.131 53.3301 153.263 53.4671 153.263 53.6956V54.8935C153.263 55.127 153.166 55.2387 152.877 55.2387H147.613V58.5585H152.278C152.527 58.5585 152.664 58.6753 152.664 58.9037V60.1017C152.664 60.3352 152.567 60.4468 152.278 60.4468H147.613V64.2438H153.014C153.247 64.2438 153.359 64.3605 153.359 64.6093V65.7869C153.359 66.0357 153.263 66.1321 152.994 66.1321H145.801C145.532 66.1321 145.415 66.0154 145.415 65.7869V53.7108V53.7159Z"
    fill="white"
  />
<path
    d="M159.206 66.2895C155.328 66.2895 155.08 63.457 155.08 61.254C155.08 59.4418 155.486 56.4926 159.206 56.4926C162.927 56.4926 163.47 58.9799 163.47 61.254C163.47 63.5281 163.201 66.2895 159.206 66.2895ZM159.227 58.3454C157.587 58.3454 157.222 59.386 157.222 61.391C157.222 63.3961 157.587 64.4367 159.206 64.4367C160.963 64.4367 161.308 63.4519 161.308 61.391C161.308 59.3301 160.978 58.3454 159.227 58.3454Z"
    fill="white"
  />
<path
    d="M167.826 65.772C167.826 66.0055 167.729 66.1375 167.46 66.1375H166.069C165.8 66.1375 165.704 66.0207 165.704 65.772V57.0715C165.704 56.8227 165.8 56.6857 166.069 56.6857H167.44C167.729 56.6857 167.826 56.838 167.826 57.0715V57.9192L167.866 57.9598C168.445 57.4217 169.816 56.7618 170.719 56.5892C170.968 56.5334 171.146 56.5892 171.181 56.9192L171.318 58.2136C171.338 58.4826 171.359 58.5994 170.953 58.6755C169.871 58.8887 168.501 59.2745 167.826 59.5638V65.772Z"
    fill="white"
  />
<path
    d="M176.871 66.3096C176.237 66.3096 175.348 66.1929 174.46 65.8832L174.44 65.9035V69.2995C174.44 69.5127 174.384 69.6852 174.074 69.6852H172.704C172.394 69.6852 172.338 69.5482 172.338 69.2995V57.071C172.338 56.8223 172.435 56.6852 172.704 56.6852H174.074C174.343 56.6852 174.42 56.8375 174.42 57.071V57.6497L174.475 57.6903C175.171 57.2081 176.404 56.533 177.521 56.533C180.049 56.533 180.704 58.4416 180.704 61.3553C180.704 64.4974 179.912 66.3096 176.866 66.3096H176.871ZM177.029 58.4619C176.237 58.4619 175.024 59.0203 174.445 59.3299V64.1523C175.313 64.401 176.008 64.4822 176.663 64.4822C178.054 64.4822 178.536 63.7665 178.536 61.3401C178.536 58.9137 178.054 58.467 177.034 58.467L177.029 58.4619Z"
    fill="white"
  />
<path
    d="M188.389 65.0355C187.425 65.7664 186.13 66.2893 184.841 66.2893C182.795 66.2893 182.196 65.1725 182.196 63.5532C182.176 61.2944 183.394 60.3299 185.821 60.3299H188.288V59.8274C188.288 58.67 187.861 58.2639 186.283 58.2639C185.648 58.2639 184.43 58.3603 183.658 58.4365C183.273 58.4923 183.176 58.4771 183.12 58.203L182.948 57.4873C182.912 57.2385 182.968 57.0812 183.389 56.9086C184.217 56.6192 185.74 56.4822 186.648 56.4822C189.983 56.4822 190.389 57.8527 190.389 60.0101V63.7309C190.389 64.5228 190.486 64.5431 191.085 64.6192C191.374 64.6395 191.45 64.6954 191.45 64.9086V65.7208C191.45 65.934 191.313 66.0659 190.988 66.1268C190.679 66.1827 190.374 66.2233 190.08 66.2233C189.171 66.2233 188.613 65.9543 188.42 65.0456L188.379 65.0253L188.389 65.0355ZM188.273 61.8375H185.917C184.953 61.8375 184.333 62.1827 184.333 63.4568C184.333 64.3045 184.623 64.5735 185.531 64.5735C186.359 64.5735 187.536 64.0913 188.273 63.6649V61.8324V61.8375Z"
    fill="white"
  />
<path
    d="M200.019 65.2489C200.095 65.5382 200.039 65.6905 199.689 65.8479C198.958 66.1575 197.704 66.2895 196.755 66.2895C193.146 66.2895 192.628 63.9748 192.628 61.3504C192.628 58.9596 193.186 56.4926 196.755 56.4926C197.643 56.4926 198.897 56.6093 199.724 56.9545C199.973 57.0712 200.054 57.2438 200.014 57.4926L199.877 58.2641C199.8 58.5535 199.643 58.5535 199.278 58.5332C198.486 58.457 197.582 58.3606 196.922 58.3606C195.359 58.3606 194.821 59.1728 194.821 61.3098C194.821 63.721 195.359 64.4367 196.902 64.4367C197.481 64.4367 198.597 64.3606 199.389 64.2641C199.699 64.2235 199.831 64.2235 199.892 64.5535L200.008 65.2489H200.019Z"
    fill="white"
  />
<path
    d="M209.298 66.1371H207.927C207.658 66.1371 207.542 66.0204 207.542 65.7716C207.542 63.8985 207.562 62.0711 207.562 60.198C207.562 59.1371 207.328 58.4062 206.171 58.4062C205.399 58.4062 204.049 59.0407 203.526 59.2742V65.7716C203.526 66.0051 203.45 66.1371 203.161 66.1371H201.79C201.542 66.1371 201.445 66.0204 201.445 65.7716V52.9087C201.445 52.66 201.542 52.5432 201.79 52.5432H203.161C203.45 52.5432 203.547 52.6803 203.547 52.9087V57.5787C204.242 57.1523 205.552 56.5178 206.75 56.5178C209.41 56.5178 209.684 58.2336 209.684 60.1828V65.7767C209.684 66.0102 209.587 66.1422 209.298 66.1422V66.1371Z"
    fill="white"
  />
<path d="M262.486 66.1319V27.335H259.182V66.1319H262.486Z" fill="white" />
</svg>
