<svg
  width="290"
  height="72"
  viewBox="0 0 290 72"
  fill="none"
  xmlns="http://www.w3.org/2000/svg"
>
<path
    d="M29.0595 64.8961H84.7641L84.759 28.8354L29.0544 28.8405L29.0595 64.8961Z"
    fill="#003399"
  />
<path
    d="M57.4401 33.3809H59.4717L57.8331 34.645L58.4712 36.6472L56.8429 35.4135L55.2146 36.6472L55.8526 34.645L54.2039 33.3809H56.2303L56.8429 31.4292L57.4401 33.3809Z"
    fill="#FFED00"
  />
<path
    d="M57.5115 59.1574H59.5431L57.9097 60.3759L58.5426 62.3023L56.9143 61.1141L55.286 62.3023L55.9292 60.3759L54.2753 59.1574H56.3018L56.9143 57.2816L57.5115 59.1574Z"
    fill="#FFED00"
  />
<path
    d="M63.9482 57.4534H65.9849L64.3464 58.6669L64.9844 60.5933L63.351 59.4051L61.7227 60.5933L62.3659 58.6669L60.712 57.4534H62.7385L63.351 55.5725L63.9482 57.4534Z"
    fill="#FFED00"
  />
<path
    d="M63.9482 35.1001H65.9849L64.3464 36.3186L64.9844 38.245L63.351 37.0568L61.7227 38.245L62.3659 36.3186L60.712 35.1001H62.7385L63.351 33.2242L63.9482 35.1001Z"
    fill="#FFED00"
  />
<path
    d="M68.7311 39.8377H70.7575L69.1241 41.0512L69.7571 42.9776L68.1288 41.7894L66.5005 42.9776L67.1436 41.0512L65.4898 39.8377H67.5162L68.1288 37.9568L68.7311 39.8377Z"
    fill="#FFED00"
  />
<path
    d="M68.7311 52.7815H70.7575L69.1241 54.0001L69.7571 55.9265L68.1288 54.7383L66.5005 55.9265L67.1436 54.0001L65.4898 52.7815H67.5162L68.1288 50.9057L68.7311 52.7815Z"
    fill="#FFED00"
  />
<path
    d="M70.5176 46.2085H72.5543L70.9158 47.427L71.5487 49.3534L69.9204 48.1652L68.2921 49.3534L68.9353 47.427L67.2814 46.2085H69.3079L69.9204 44.3326L70.5176 46.2085Z"
    fill="#FFED00"
  />
<path
    d="M50.8809 35.1203H52.9074L51.274 36.3338L51.9069 38.2602L50.2786 37.072L48.6503 38.2602L49.2934 36.3338L47.6447 35.1203H49.6661L50.2786 33.2394L50.8809 35.1203Z"
    fill="#FFED00"
  />
<path
    d="M46.2308 39.8528H48.2674L46.6289 41.0663L47.2619 42.9927L45.6336 41.8045L44.0052 42.9927L44.6484 41.0663L42.9946 39.8528H45.021L45.6336 37.9719L46.2308 39.8528Z"
    fill="#FFED00"
  />
<path
    d="M44.5055 46.2287H46.537L44.9036 47.4422L45.5366 49.3686L43.9083 48.1855L42.28 49.3686L42.9231 47.4422L41.2744 46.2287H43.2957L43.9083 44.3478L44.5055 46.2287Z"
    fill="#FFED00"
  />
<path
    d="M46.2308 52.7967H48.2674L46.6289 54.0152L47.2619 55.9416L45.6336 54.7534L44.0052 55.9416L44.6484 54.0152L42.9946 52.7967H45.021L45.6336 50.9208L46.2308 52.7967Z"
    fill="#FFED00"
  />
<path
    d="M50.9473 57.4686H52.9737L51.3403 58.6821L51.9733 60.6085L50.3449 59.4203L48.7166 60.6085L49.3598 58.6821L47.7111 57.4686H49.7324L50.3449 55.5877L50.9473 57.4686Z"
    fill="#FFED00"
  />
<path
    d="M94.9372 0.00505726C94.9372 0.00505726 106.917 18.9101 109.112 22.3736C111.302 25.8371 113.808 28.5826 122.675 30.4433C131.541 32.304 135.4 33.1837 135.4 33.1837V33.8562C135.4 33.8562 129.765 32.668 122.516 31.0652C115.268 29.4624 112.302 28.9214 109 24.3657C106.249 20.5736 94.9372 3.61517 94.9372 3.61517V0V0.00505726Z"
    fill="white"
  />
<path
    d="M94.9372 21.5949C94.9372 21.5949 105.845 32.9157 109 36.1668C112.348 39.6151 116.631 40.8893 122.573 41.941C128.244 42.9421 135.395 44.1 135.395 44.1V44.7371C135.395 44.7371 128.677 43.6449 122.573 42.6135C116.585 41.5972 112.394 41.0309 108.964 37.9011C105.891 35.1 94.9372 24.9219 94.9372 24.9219V21.5898V21.5949Z"
    fill="white"
  />
<path
    d="M94.9372 26.6966C94.9372 26.6966 105.309 36.2377 109 39.4989C112.394 42.4972 115.146 43.4326 122.608 44.7422C130.071 46.0517 135.395 46.8658 135.395 46.8658V47.5382C135.395 47.5382 128.642 46.441 122.573 45.4804C116.503 44.5247 112.634 44.1455 109 41.2281C104.809 37.8607 94.9372 29.8113 94.9372 29.8113V26.6916V26.6966Z"
    fill="white"
  />
<path
    d="M94.9372 32.1321C94.9372 32.1321 106.785 41.4456 109 43.0736C111.215 44.7017 114.145 46.6029 122.644 47.8214C131.071 49.0298 135.395 49.6265 135.395 49.6265V50.3343C135.395 50.3343 127.754 49.2371 122.644 48.6001C117.535 47.963 113.619 47.6899 109.036 44.6663C104.574 41.7236 94.9372 35.004 94.9372 35.004V32.1321Z"
    fill="white"
  />
<path
    d="M94.9372 37.3602C94.9372 37.3602 106.82 45.1972 109.071 46.4411C111.322 47.6798 113.967 49.7023 122.644 50.7995C131.322 51.8967 135.395 52.3922 135.395 52.3922V53.0647C135.395 53.0647 128.218 52.286 122.608 51.6843C117.004 51.0826 113.18 50.2686 109 47.9984C104.819 45.7332 94.9372 40.0096 94.9372 40.0096V37.3602Z"
    fill="white"
  />
<path
    d="M94.9372 42.5882C94.9372 42.5882 105.442 48.2512 109 50.0158C112.966 51.9877 116.396 52.9332 122.608 53.6663C128.708 54.3843 135.395 55.0821 135.395 55.0821V55.7192C135.395 55.7192 129.213 55.0618 122.608 54.445C116.059 53.8281 113.727 53.545 109 51.4669C104.773 49.6062 94.9372 45.0658 94.9372 45.0658V42.5832V42.5882Z"
    fill="white"
  />
<path
    d="M94.9372 47.8871C94.9372 47.8871 103.237 51.4062 109.071 53.7017C114.809 55.9568 119.193 56.1489 122.68 56.5383C124.216 56.7102 135.395 57.8478 135.395 57.8478V58.4849C135.395 58.4849 128.718 57.954 122.644 57.4231C116.57 56.8922 113.951 56.6647 109.036 55.0517C104.059 53.4135 94.9372 50.2635 94.9372 50.2635V47.8922V47.8871Z"
    fill="white"
  />
<path
    d="M94.9372 53.2922C94.9372 53.2922 103.319 55.8658 109.036 57.3523C114.753 58.8388 120 59.4455 122.644 59.6175C125.288 59.7944 135.4 60.6085 135.4 60.6085V61.2102C135.4 61.2102 129.647 60.8208 122.608 60.3253C116.917 59.9259 112.348 59.5012 109 58.768C105.294 57.959 94.9372 55.522 94.9372 55.522V53.2922Z"
    fill="white"
  />
<path
    d="M94.9372 58.6062C94.9372 58.6062 101.792 59.7792 109.036 60.9675C114.467 61.8573 121.822 62.4186 122.608 62.454C123.394 62.4894 135.395 63.3034 135.395 63.3034V63.9405C135.395 63.9405 127.713 63.5461 122.608 63.268C117.29 62.9748 112.001 62.6562 109 62.3478C102.272 61.6551 94.9372 60.7349 94.9372 60.7349V58.6062Z"
    fill="white"
  />
<path
    d="M94.9372 64.1074C94.9372 64.1074 105.748 64.5119 109.036 64.5827C112.323 64.6535 135.395 65.5737 135.395 65.5737V66.1956H94.9372V64.1074Z"
    fill="white"
  />
<path
    d="M122.603 33.3657C112.818 31.2775 110.603 27.7331 108.959 25.5387C107.315 23.3393 94.9321 5.41513 94.9321 5.41513V8.71176C95.4222 9.34379 106.019 23.8348 108.995 27.6269C112.348 31.8994 117.601 32.8702 122.603 33.932C127.6 34.9938 135.395 36.4753 135.395 36.4753V35.909C135.395 35.909 125.135 33.9017 122.603 33.3657Z"
    fill="white"
  />
<path
    d="M122.603 36.2023C114.569 34.645 111.317 32.127 108.959 29.0832C106.601 26.0343 94.9321 10.4461 94.9321 10.4461V14.2787C95.4222 14.85 106.096 27.7534 108.959 30.9995C112.297 34.7865 116.958 35.7826 122.603 36.809C128.249 37.8354 135.39 39.1804 135.39 39.1804V38.6141C135.39 38.6141 127.238 37.1023 122.603 36.2073V36.2023Z"
    fill="white"
  />
<path
    d="M122.603 39.14C114.247 37.5321 112.532 36.2124 108.995 32.3748C106.769 29.963 95.4119 16.6804 94.9321 16.1192V19.6585C94.9321 19.6585 105.544 30.8731 108.959 34.1849C113.436 38.5332 117.637 38.8619 122.603 39.7467C127.57 40.6315 135.39 42.0473 135.39 42.0473V41.4456C135.39 41.4456 125.947 39.7872 122.603 39.145V39.14Z"
    fill="white"
  />
<path
    d="M0.00510552 27.7787C0.00510552 27.7787 27.6711 24.8562 35.4196 23.7792C47.6702 22.0803 57.6953 20.2702 66.9701 6.18877C66.9701 6.18877 66.9803 5.38989 66.9701 5.0309C61.2889 13.591 53.4536 19.4309 42.6628 21.1247C32.1222 22.7832 0 25.2051 0 25.2051V27.7787H0.00510552Z"
    fill="white"
  />
<path
    d="M0.00511169 24.2849C0.00511169 24.2849 25.6446 21.1045 34.0925 19.9315C47.4559 18.0809 56.8531 16.4175 66.9701 1.05677C66.9701 1.05677 66.9752 0.394407 66.9701 0.00508118C60.7733 9.34385 53.1218 15.3759 41.351 17.2264C29.8507 19.0366 0.00511169 21.6759 0.00511169 21.6759V24.2899V24.2849Z"
    fill="white"
  />
<path d="M26.1806 64.1326H0.020462V66.1854H26.1806V64.1326Z" fill="white" />
<path
    d="M66.9701 22.5708C66.9701 22.5708 66.9854 21.3623 66.9803 21.1045C65.7501 22.9601 64.132 24.6438 62.2638 26.1253H64.0963C65.1274 25.0736 66.0921 23.8955 66.965 22.5708H66.9701Z"
    fill="white"
  />
<path
    d="M66.9701 17.1101C66.9701 17.1101 66.9803 16.0382 66.9752 15.745C64.0095 20.2146 59.5942 23.7843 54.4897 26.1506L57.5014 26.1405C60.9826 24.1332 64.2188 21.2815 66.965 17.1101H66.9701Z"
    fill="white"
  />
<path
    d="M66.9701 11.6494C66.9701 11.6494 66.9803 10.714 66.9701 10.3904C61.8095 18.1719 53.7853 23.4961 43.9746 25.0382C41.6521 25.4023 37.8697 25.8067 33.4748 26.2163L45.4549 26.1758C53.3617 24.4315 60.7631 21.059 66.9599 11.6494H66.9701Z"
    fill="white"
  />
<path
    d="M26.1857 60.6742C12.8377 60.745 0.020462 60.8006 0.020462 60.8006V62.9394C0.020462 62.9394 13.4451 62.8433 26.1857 62.7371V60.6742Z"
    fill="white"
  />
<path
    d="M26.1857 57.0034C12.9295 57.15 0.0153351 57.2613 0.0153351 57.2613V59.4455C0.0153351 59.4455 13.5778 59.2686 26.1857 59.0714V57.0034Z"
    fill="white"
  />
<path
    d="M26.1806 53.3225C13.0214 53.55 0.0153351 53.7219 0.0153351 53.7219V55.9517C0.0153351 55.9517 13.7207 55.6837 26.1806 55.3905V53.3225Z"
    fill="white"
  />
<path
    d="M26.1857 49.6214C13.1235 49.9399 0.0153351 50.1776 0.0153351 50.1776V52.4478C0.0153351 52.4478 13.879 52.0736 26.1857 51.6843V49.6163V49.6214Z"
    fill="white"
  />
<path
    d="M26.1908 45.9102C13.2256 46.3197 0.0153351 46.6433 0.0153351 46.6433V48.959C0.0153351 48.959 14.0474 48.4737 26.1908 47.9782V45.9152V45.9102Z"
    fill="white"
  />
<path
    d="M26.1857 42.1838C13.3226 42.6995 0.0153351 43.104 0.0153351 43.104V45.4602C0.0153351 45.4602 14.2209 44.8433 26.1857 44.2315V42.1787V42.1838Z"
    fill="white"
  />
<path
    d="M26.1908 38.4321C13.4247 39.059 0.0102234 39.5596 0.0102234 39.5596V41.9613C0.0102234 41.9613 14.4047 41.1978 26.1908 40.4646V38.4321Z"
    fill="white"
  />
<path
    d="M26.1908 34.6602C13.5216 35.4085 0.0102234 36.0203 0.0102234 36.0203V38.4624C0.0102234 38.4624 14.5987 37.5321 26.1908 36.6725V34.6602Z"
    fill="white"
  />
<path
    d="M26.1908 30.868C13.6084 31.7478 0.0102234 32.486 0.0102234 32.486V34.9736C0.0102234 34.9736 14.7926 33.8512 26.1908 32.8602V30.8731V30.868Z"
    fill="white"
  />
<path
    d="M26.1908 27.0405C13.685 28.0669 0.00511169 28.9416 0.00511169 28.9416V31.4697C0.00511169 31.4697 14.9866 30.1247 26.1908 28.9922V27.0405Z"
    fill="white"
  />
<path
    d="M86.0759 66.1905V27.5461H27.7528V66.1905H86.0759ZM84.759 28.8354V64.8961H29.0544V28.8405H84.759V28.8354Z"
    fill="white"
  />
<path d="M230.46 66.1963V27.3822H227.151V66.1963H230.46Z" fill="white" />
<path
    d="M144.394 33.4158C144.394 33.1667 144.511 33.0294 144.78 33.0294H151.886C152.12 33.0294 152.252 33.1667 152.252 33.3954V34.595C152.252 34.8288 152.156 34.9407 151.866 34.9407H146.595V38.265H151.266C151.515 38.265 151.653 38.3819 151.653 38.6106V39.8102C151.653 40.0441 151.556 40.1559 151.266 40.1559H146.595V43.958H152.003C152.237 43.958 152.349 44.0749 152.349 44.324V45.5032C152.349 45.7523 152.252 45.8489 151.983 45.8489H144.78C144.511 45.8489 144.394 45.732 144.394 45.5032V33.4158Z"
    fill="white"
  />
<path
    d="M158.103 43.4762C158.123 43.3237 158.835 41.1786 158.835 41.1786L160.38 36.7005C160.457 36.487 160.533 36.3904 160.823 36.3904H162.292C162.581 36.3904 162.622 36.5277 162.525 36.7564L159.242 45.4484C159.145 45.7381 159.008 45.855 158.703 45.855H157.412C157.066 45.855 156.97 45.7381 156.873 45.4687L153.589 36.7767C153.513 36.5632 153.549 36.3904 153.803 36.3904H155.328C155.597 36.3904 155.694 36.4463 155.79 36.7361L157.336 41.2549C157.336 41.2549 157.991 43.3034 158.052 43.4762H158.108H158.103Z"
    fill="white"
  />
<path
    d="M166.373 45.4828C166.373 45.7166 166.277 45.8488 166.007 45.8488H164.614C164.345 45.8488 164.248 45.7319 164.248 45.4828V36.7705C164.248 36.5214 164.345 36.3842 164.614 36.3842H165.987C166.277 36.3842 166.373 36.5367 166.373 36.7705V37.6193L166.414 37.66C166.993 37.1212 168.366 36.4604 169.27 36.2876C169.52 36.2317 169.697 36.2876 169.733 36.618L169.87 37.9142C169.891 38.1836 169.911 38.3005 169.504 38.3767C168.422 38.5902 167.049 38.9765 166.373 39.2663V45.4828Z"
    fill="white"
  />
<path
    d="M174.872 46.0069C170.988 46.0069 170.739 43.1706 170.739 40.9645C170.739 39.1499 171.146 36.1966 174.872 36.1966C178.598 36.1966 179.142 38.6873 179.142 40.9645C179.142 43.2417 178.872 46.0069 174.872 46.0069ZM174.892 38.0519C173.25 38.0519 172.884 39.0939 172.884 41.1017C172.884 43.1096 173.25 44.1516 174.872 44.1516C176.631 44.1516 176.976 43.1655 176.976 41.1017C176.976 39.038 176.646 38.0519 174.892 38.0519Z"
    fill="white"
  />
<path
    d="M185.531 46.0273C184.896 46.0273 184.007 45.9104 183.117 45.6003L183.097 45.6206V49.0212C183.097 49.2347 183.041 49.4075 182.731 49.4075H181.358C181.048 49.4075 180.992 49.2703 180.992 49.0212V36.7761C180.992 36.5271 181.089 36.3898 181.358 36.3898H182.731C183 36.3898 183.076 36.5423 183.076 36.7761V37.3556L183.132 37.3963C183.829 36.9134 185.064 36.2373 186.182 36.2373C188.713 36.2373 189.369 38.1485 189.369 41.0662C189.369 44.2126 188.576 46.0273 185.526 46.0273H185.531ZM185.689 38.1638C184.896 38.1638 183.681 38.7229 183.102 39.033V43.8619C183.971 44.111 184.667 44.1923 185.323 44.1923C186.716 44.1923 187.199 43.4756 187.199 41.0459C187.199 38.6162 186.716 38.1689 185.694 38.1689L185.689 38.1638Z"
    fill="white"
  />
<path
    d="M194.264 46.0069C193.298 46.0069 192.002 45.8696 191.27 45.5799C190.884 45.4274 190.807 45.2495 190.863 44.9445L191 44.3091C191.056 43.9991 191.194 43.9787 191.504 44.0194C192.353 44.1567 193.588 44.2532 194.249 44.2532C195.484 44.2532 195.987 43.9228 195.987 43.1502C195.987 42.2607 195.657 42.0675 194.442 41.8947C192.551 41.6253 190.889 41.2187 190.889 39.1143C190.889 37.2031 192.358 36.1966 194.518 36.1966C195.311 36.1966 196.643 36.3135 197.456 36.6236C197.786 36.7608 197.918 36.9133 197.863 37.2031L197.71 37.8994C197.654 38.1688 197.537 38.2095 197.187 38.1688C196.358 38.0723 195.275 37.9553 194.559 37.9553C193.323 37.9553 193.034 38.301 193.034 39.038C193.034 39.7751 193.496 39.8869 194.675 40.0801C196.51 40.3495 198.173 40.7154 198.173 43.0181C198.173 45.3207 196.261 46.012 194.274 46.012L194.264 46.0069Z"
    fill="white"
  />
<path
    d="M202.163 39.882L203.652 38.3164L205.253 36.6949C205.447 36.5018 205.584 36.3645 205.95 36.3645H207.495C207.861 36.3645 207.922 36.578 207.709 36.8068L204.618 39.9532L208.095 45.3971C208.232 45.6309 208.115 45.8393 207.846 45.8393H206.357C205.95 45.8393 205.818 45.7021 205.68 45.4733L203.21 41.5137L202.112 42.6319V45.4733C202.112 45.6868 202.036 45.8393 201.746 45.8393H200.374C200.104 45.8393 200.008 45.7224 200.008 45.4733V32.5929C200.008 32.3438 200.104 32.2066 200.374 32.2066H201.746C202.036 32.2066 202.112 32.3591 202.112 32.5929V39.8566L202.168 39.8769L202.163 39.882Z"
    fill="white"
  />
<path
    d="M215.262 44.7516C214.296 45.4836 213 46.0072 211.709 46.0072C209.66 46.0072 209.06 44.8889 209.06 43.2674C209.04 41.0054 210.26 40.0397 212.69 40.0397H215.16V39.5364C215.16 38.3775 214.738 37.9709 213.152 37.9709C212.517 37.9709 211.297 38.0674 210.524 38.1437C210.138 38.1996 210.041 38.1844 209.986 37.9099L209.813 37.1932C209.772 36.9441 209.833 36.7865 210.255 36.6137C211.084 36.324 212.614 36.1867 213.518 36.1867C216.858 36.1867 217.265 37.5591 217.265 39.7194V43.4453C217.265 44.2383 217.361 44.2586 217.961 44.3348C218.251 44.3552 218.327 44.4111 218.327 44.6246V45.4379C218.327 45.6513 218.19 45.7835 217.864 45.8445C217.554 45.9004 217.244 45.9411 216.954 45.9411C216.045 45.9411 215.485 45.6717 215.292 44.7618L215.252 44.7415L215.262 44.7516ZM215.145 41.5442H212.786C211.821 41.5442 211.2 41.8899 211.2 43.1657C211.2 44.0146 211.49 44.284 212.4 44.284C213.229 44.284 214.408 43.8011 215.145 43.3741V41.5392V41.5442ZM216.014 32.161C216.228 32.2779 216.207 32.4304 216.09 32.5879L214.118 35.2921C214.022 35.4293 213.925 35.4853 213.752 35.409L213 35.0634C212.863 34.9871 212.807 34.8905 212.903 34.6974L214.448 31.7035C214.545 31.5103 214.698 31.5103 214.875 31.5866L216.014 32.166V32.161Z"
    fill="white"
  />
<path
    d="M146.549 60.2134L148.039 58.6479L149.64 57.0264C149.833 56.8332 149.97 56.696 150.336 56.696H151.881C152.247 56.696 152.308 56.9095 152.095 57.1382L149.004 60.2846L152.481 65.7285C152.618 65.9624 152.501 66.1708 152.232 66.1708H150.743C150.336 66.1708 150.204 66.0335 150.067 65.8048L147.596 61.8451L146.498 62.9634V65.7997C146.498 66.0132 146.422 66.1657 146.132 66.1657H144.76C144.491 66.1657 144.394 66.0488 144.394 65.7997V52.9193C144.394 52.6702 144.491 52.533 144.76 52.533H146.132C146.422 52.533 146.498 52.6855 146.498 52.9193V60.1829L146.554 60.2033L146.549 60.2134Z"
    fill="white"
  />
<path
    d="M157.427 66.3381C153.544 66.3381 153.295 63.5017 153.295 61.2957C153.295 59.481 153.701 56.5278 157.427 56.5278C161.153 56.5278 161.697 59.0185 161.697 61.2957C161.697 63.5729 161.428 66.3381 157.427 66.3381ZM157.442 58.3831C155.801 58.3831 155.435 59.4251 155.435 61.4329C155.435 63.4407 155.801 64.4827 157.422 64.4827C159.181 64.4827 159.527 63.4966 159.527 61.4329C159.527 59.3692 159.196 58.3831 157.442 58.3831Z"
    fill="white"
  />
<path
    d="M177.068 66.1815H175.675C175.406 66.1815 175.309 66.0646 175.309 65.8155V60.3309C175.309 58.9026 174.963 58.4959 173.998 58.4959C173.281 58.4959 172.127 59.0551 171.527 59.3651C171.527 59.5583 171.548 59.9039 171.548 60.3513V65.8155C171.548 66.0493 171.471 66.1815 171.182 66.1815H169.774C169.525 66.1815 169.443 66.0646 169.443 65.8155V60.2343C169.443 59.0551 169.133 58.4959 168.167 58.4959C167.491 58.4959 166.409 58.9788 165.677 59.3651V65.8155C165.677 66.0493 165.58 66.1815 165.311 66.1815H163.918C163.669 66.1815 163.572 66.0646 163.572 65.8155V57.1032C163.572 56.8541 163.669 56.7169 163.918 56.7169H165.29C165.58 56.7169 165.677 56.8694 165.677 57.1032V57.6623L165.697 57.6827C166.449 57.1591 167.512 56.5847 168.574 56.5441C169.692 56.5441 170.623 56.7779 171.222 57.8961C172.188 57.1794 173.383 56.5441 174.623 56.5441C177.175 56.5441 177.424 58.2062 177.424 60.1378V65.8155C177.424 66.0493 177.347 66.1815 177.078 66.1815H177.068Z"
    fill="white"
  />
<path
    d="M180.855 55.329C179.848 55.329 179.716 54.7699 179.716 54.2107C179.716 53.5906 179.93 53.1077 180.855 53.1077C181.78 53.1077 181.993 53.55 181.993 54.2107C181.993 54.8105 181.82 55.329 180.855 55.329ZM181.876 65.8153C181.876 66.0288 181.8 66.1813 181.531 66.1813H180.158C179.889 66.1813 179.772 66.0644 179.772 65.8153V57.0878C179.772 56.8183 179.889 56.7218 180.158 56.7218H181.531C181.8 56.7218 181.876 56.8743 181.876 57.0878V65.8153Z"
    fill="white"
  />
<path
    d="M187.442 66.338C186.477 66.338 185.181 66.2008 184.449 65.9111C184.062 65.7586 183.986 65.5807 184.042 65.2757L184.179 64.6403C184.235 64.3302 184.372 64.3099 184.682 64.3506C185.531 64.4878 186.766 64.5844 187.427 64.5844C188.662 64.5844 189.166 64.254 189.166 63.4814C189.166 62.5918 188.835 62.3987 187.62 62.2259C185.729 61.9565 184.067 61.5498 184.067 59.4454C184.067 57.5342 185.536 56.5278 187.697 56.5278C188.49 56.5278 189.821 56.6447 190.635 56.9547C190.965 57.092 191.097 57.2445 191.041 57.5342L190.889 58.2306C190.833 58.5 190.716 58.5407 190.365 58.5C189.537 58.4034 188.454 58.2865 187.737 58.2865C186.502 58.2865 186.212 58.6321 186.212 59.3692C186.212 60.1062 186.675 60.2181 187.854 60.4112C189.689 60.6806 191.351 61.0466 191.351 63.3492C191.351 65.6518 189.44 66.3431 187.453 66.3431L187.442 66.338Z"
    fill="white"
  />
<path
    d="M195.128 62.0337C195.184 63.9856 195.88 64.5244 197.466 64.5244C198.162 64.5244 199.245 64.3871 199.977 64.3109C200.323 64.2702 200.44 64.2702 200.501 64.6413L200.618 65.2766C200.673 65.5664 200.638 65.7189 200.287 65.8764C199.535 66.1662 198.127 66.3593 197.176 66.3593C193.486 66.3593 192.947 64.0059 192.947 61.4949C192.947 59.6192 193.293 56.5338 197.059 56.5338C200.516 56.5338 201.136 58.7754 201.192 60.8595C201.212 61.5559 201.019 62.0387 200.246 62.0387H195.128V62.0337ZM195.148 60.585H198.971C198.971 59.4057 198.661 58.2671 197.059 58.2671C195.631 58.2671 195.245 59.1363 195.148 60.585Z"
    fill="white"
  />
</svg>
