<svg width="290" height="72" viewBox="0 0 290 72" fill="none" xmlns="http://www.w3.org/2000/svg">
<path d="M158.018 42.7597H160.77C160.555 44.1787 160.211 45.6837 159.867 46.7157L161.05 47.3392C161.652 45.8772 162.189 43.5767 162.512 41.5987L161.458 41.1902L161.179 41.2762H155.481C155.739 40.1152 155.954 38.9112 156.148 37.6857L154.535 37.4492C154.105 40.8677 153.31 44.2217 151.912 46.3502C152.299 46.5652 152.966 47.0812 153.245 47.3607C153.998 46.1137 154.599 44.5227 155.094 42.7597H156.47V45.7912C156.491 47.2532 155.976 51.2307 153.116 54.1332V52.9507H145.548V40.3302H152.922V38.8467H144V56.0467H145.548V54.4342H152.815C152.299 54.9072 151.719 55.3372 151.074 55.7242C151.353 56.0252 151.826 56.6702 151.998 57.0142C155.675 54.7567 156.986 50.8222 157.244 49.0162C157.48 50.7577 158.685 54.8642 161.867 56.9927C162.082 56.6272 162.576 55.9822 162.856 55.6382C158.706 52.9507 157.997 47.4897 158.018 45.7912V42.7597ZM150.257 40.9752C149.956 42.4802 149.569 43.9207 149.096 45.2752C148.3 44.4152 147.462 43.5982 146.666 42.8672L145.72 43.8562C146.645 44.7162 147.634 45.7482 148.537 46.7802C147.784 48.5432 146.86 50.0912 145.763 51.2952C146.086 51.5317 146.709 52.0262 146.967 52.2842C147.978 51.1017 148.838 49.6612 149.569 48.0272C150.429 49.0807 151.138 50.1127 151.59 50.9512L152.643 49.7902C152.105 48.8442 151.224 47.6832 150.214 46.5007C150.816 44.8667 151.332 43.0822 151.719 41.2332L150.257 40.9752Z" fill="white"/>
<path d="M181.281 39.4272V41.3192H176.229V39.4272H181.281ZM176.121 44.4582C176.207 43.8132 176.229 43.1682 176.229 42.5877V42.5232H181.281V44.4582H176.121ZM181.281 45.6407V47.4682C181.281 47.7262 181.195 47.8122 180.894 47.8337C180.593 47.8337 179.561 47.8552 178.443 47.8122C178.658 48.1992 178.938 48.7582 179.045 49.1882C180.486 49.1882 181.475 49.1667 182.077 48.9302C182.657 48.6937 182.851 48.2852 182.851 47.4682V38.1372H174.767V42.5662C174.767 44.4797 174.487 46.7587 172.337 48.4142C172.66 48.6077 173.24 49.1452 173.455 49.4677C174.81 48.4142 175.519 47.0382 175.885 45.6407H181.281ZM171.241 39.7497V42.0502H167.349V39.7497H171.241ZM167.349 45.5762V43.2972H171.241V45.5762H167.349ZM167.349 46.8662H172.703V38.4382H165.887V48.0272H167.349V46.8662ZM168.661 51.1447H171.499V55.0577H168.661V51.1447ZM175.82 51.1447V55.0577H172.982V51.1447H175.82ZM180.206 51.1447V55.0577H177.304V51.1447H180.206ZM181.754 55.0577V49.8332H167.156V55.0577H164.662V56.4767H184.141V55.0577H181.754Z" fill="white"/>
<path d="M200.008 50.4782C199.255 51.7037 198.245 52.6712 196.955 53.4022C195.342 53.0152 193.643 52.6282 191.988 52.2842C192.461 51.7682 192.956 51.1232 193.45 50.4782H200.008ZM201.233 47.5542C201.083 48.0917 200.911 48.6077 200.696 49.0807H194.461C194.805 48.5432 195.149 48.0057 195.45 47.4897H196.675V43.2327H205.361V41.8567H196.675V39.5777C199.126 39.3627 201.405 39.0402 203.211 38.6317L202.028 37.4922C198.868 38.2232 192.87 38.6532 187.968 38.7822C188.118 39.1262 188.29 39.6852 188.312 40.0507C190.462 39.9862 192.826 39.8787 195.105 39.7067V41.8567H186.484V43.2327H193.235C191.343 44.8237 188.548 46.2212 186.033 46.9092C186.334 47.2102 186.785 47.7907 187.021 48.1562C189.881 47.2532 193.106 45.4257 195.105 43.2972V47.1242L193.966 46.8232C193.579 47.5542 193.106 48.3282 192.569 49.0807H186.248V50.4782H191.536C190.805 51.4457 190.032 52.3487 189.322 53.0582C191.279 53.4452 193.149 53.8752 194.912 54.3052C192.848 55.0362 190.247 55.4232 186.936 55.6167C187.194 56.0037 187.43 56.5842 187.559 57.0572C191.73 56.7562 194.912 56.1327 197.299 54.9287C199.943 55.6167 202.244 56.3477 203.942 57.0142L205.404 55.8532C203.684 55.2297 201.427 54.5632 198.954 53.9182C200.18 53.0152 201.126 51.8972 201.835 50.4782H205.619V49.0807H202.437C202.545 48.7152 202.674 48.3497 202.781 47.9627L201.233 47.5542ZM197.342 44.2862C199.986 45.3612 203.469 46.9737 205.211 47.9842L205.985 46.8232C204.157 45.7912 200.674 44.2862 198.116 43.2757L197.342 44.2862Z" fill="white"/>
<path d="M212.413 39.7712H222.453V42.2007H212.413V39.7712ZM210.736 38.3522V43.6197H224.216V38.3522H210.736ZM216.455 48.4142V50.3922C216.455 52.1122 215.832 54.4127 208.07 55.9177C208.457 56.2617 208.93 56.9067 209.123 57.2507C217.186 55.4662 218.175 52.6927 218.175 50.4352V48.4142H216.455ZM218.046 54.0687C220.669 54.9502 224.195 56.3477 225.979 57.2507L226.797 55.8962C224.926 54.9932 221.4 53.7032 218.841 52.8862L218.046 54.0687ZM209.983 45.5547V53.4667H211.639V47.0597H223.335V53.3162H225.055V45.5547H209.983Z" fill="white"/>
<path d="M230.172 49.7472H236.278C234.88 51.6607 233.268 53.3592 232.666 53.8537C232.021 54.4772 231.526 54.8857 231.075 54.9717C231.247 55.4447 231.505 56.2832 231.613 56.6272C232.408 56.3262 233.612 56.2402 244.943 55.2942C245.416 55.9392 245.845 56.5627 246.146 57.0787L247.565 56.1972C246.619 54.5847 244.598 52.3057 242.685 50.5857L241.331 51.3167C242.148 52.0692 243.051 52.9937 243.825 53.8967L234.063 54.6277C235.611 53.2302 237.117 51.5102 238.45 49.7472H247.824V48.1992H230.172V49.7472ZM239.008 37.4707C237.095 40.3517 233.332 43.0392 229.161 44.8022C229.527 45.1247 230.086 45.7697 230.323 46.1782C231.57 45.6192 232.752 44.9742 233.87 44.2647V45.5762H244.083V44.0927H234.149C235.998 42.9102 237.654 41.5342 238.987 40.0722C241.008 42.1577 244.362 44.6087 247.695 45.9632C247.953 45.5117 248.447 44.8667 248.812 44.5442C245.351 43.3617 241.868 40.9967 239.911 38.9972C240.105 38.7177 240.32 38.4167 240.535 38.1372L239.008 37.4707Z" fill="white"/>
<path fill-rule="evenodd" clip-rule="evenodd" d="M255.812 66.7H259.112V28H255.812V66.7Z" fill="white"/>
<path fill-rule="evenodd" clip-rule="evenodd" d="M0 24.5C0 24.5 39.8 19.3 41 19.1C42.7 18.8 44.3 18.5 45.7 18.1C48.9 17.2 51.9 15.9 54.5 14.1C57 12.4 59.4 9.9 61.7 7.2C63.2 5.5 64.7 3.2 66.2 1V0C64.5 2.6 62.8 4.8 61.1 6.7C58.8 9.3 56.4 11.4 53.9 13C51.4 14.6 48.5 15.9 45.4 16.7C44 17.1 42.5 17.3 40.8 17.6C39.7 17.8 38.6 17.9 37.5 18C37 18 0 21.9 0 21.9V24.5Z" fill="white"/>
<mask id="mask0_601_8006" style="mask-type:alpha" maskUnits="userSpaceOnUse" x="0" y="5" width="67" height="24">
<path fill-rule="evenodd" clip-rule="evenodd" d="M0 5.2002H66.0999V28.0002H0V5.2002Z" fill="white"/>
</mask>
<g mask="url(#mask0_601_8006)">
<path fill-rule="evenodd" clip-rule="evenodd" d="M53.3999 17.8002C50.8999 19.2002 47.9999 20.3002 44.7999 20.9002C43.3999 21.2002 41.9999 21.4002 40.2999 21.6002C39.2999 21.7002 38.2999 21.8002 37.2999 21.9002C36.7999 21.9002 36.1999 22.0002 35.6999 22.0002C23.4999 23.2002 11.3999 24.3002 -0.00012207 25.4002V28.0002C11.3999 26.6002 23.6999 25.1002 35.8999 23.7002C36.3999 23.6002 36.9999 23.6002 37.4999 23.5002C38.4999 23.4002 39.4999 23.3002 40.4999 23.1002C42.1999 22.9002 43.7999 22.6002 45.0999 22.3002C48.3999 21.6002 51.3999 20.4002 53.9999 18.8002C56.5999 17.2002 58.7999 15.1002 61.2999 12.4002C62.7999 10.7002 64.4999 8.4002 66.0999 6.2002V5.2002C64.1999 7.7002 62.4999 9.9002 60.6999 11.7002C58.2999 14.4002 55.8999 16.4002 53.3999 17.8002" fill="white"/>
</g>
<mask id="mask1_601_8006" style="mask-type:alpha" maskUnits="userSpaceOnUse" x="0" y="10" width="67" height="22">
<path fill-rule="evenodd" clip-rule="evenodd" d="M0 10.9004H66.0999V31.5004H0V10.9004Z" fill="white"/>
</mask>
<g mask="url(#mask1_601_8006)">
<path fill-rule="evenodd" clip-rule="evenodd" d="M60.3999 17.2004C57.9999 19.4004 55.3999 21.2004 52.8999 22.5004C50.3999 23.7004 47.5999 24.6004 44.2999 25.1004C42.8999 25.3004 41.4999 25.5004 39.7999 25.7004L-0.00012207 28.9004V31.5004L35.2999 27.7004L39.8999 27.2004C41.5999 27.0004 43.0999 26.8004 44.4999 26.5004C47.8999 25.9004 50.7999 24.9004 53.3999 23.6004C56.0999 22.2004 58.6999 20.0004 61.1999 17.6004C62.8999 16.0004 64.3999 13.9004 66.0999 11.8004V10.9004C64.0999 13.4004 62.2999 15.4004 60.3999 17.2004" fill="white"/>
</g>
<mask id="mask2_601_8006" style="mask-type:alpha" maskUnits="userSpaceOnUse" x="0" y="21" width="67" height="18">
<path fill-rule="evenodd" clip-rule="evenodd" d="M0 21.7002H66.1998V38.5002H0V21.7002Z" fill="white"/>
</mask>
<g mask="url(#mask2_601_8006)">
<path fill-rule="evenodd" clip-rule="evenodd" d="M50.7998 30.6002C48.4998 31.9002 46.7998 32.7002 43.4998 33.0002C41.4998 33.2002 39.4998 33.3002 37.4998 33.4002C36.4998 33.4002 35.5998 33.5002 34.5998 33.6002C28.5998 33.9002 22.6998 34.3002 16.6998 34.7002L-0.000244141 35.9002V38.5002L16.7998 36.9002C22.1998 36.4002 28.4998 35.8002 34.6998 35.3002L39.1998 35.0002C40.8998 34.9002 42.3998 34.7002 43.6998 34.5002C47.0998 34.1002 49.9998 33.4002 52.5998 32.4002C55.3998 31.4002 57.9998 29.7002 60.5998 27.8002C62.9998 26.1002 66.1998 22.7002 66.1998 22.6002V21.7002C64.0998 23.8002 62.7998 25.0002 60.4998 26.5002C57.5998 28.5002 52.8998 29.5002 50.7998 30.6002" fill="white"/>
</g>
<path fill-rule="evenodd" clip-rule="evenodd" d="M51.6016 35.6004C49.1016 36.3004 46.3016 36.8004 43.0016 37.1004C41.7016 37.2004 40.2016 37.3004 38.6016 37.4004L34.2016 37.6004C23.2016 38.1004 12.2016 38.7004 0.101562 39.3004V41.9004C11.7016 41.0004 23.0016 40.1004 34.4016 39.3004L38.8016 39.0004C40.5016 38.9004 41.9016 38.8004 43.3016 38.6004C46.7016 38.2004 49.6016 37.6004 52.1016 36.8004C54.9016 35.9004 57.7016 34.6004 60.3016 32.9004C62.2016 31.7004 64.2016 30.2004 66.2016 28.4004C64.0016 30.3004 61.9016 30.7004 59.8016 32.0004C57.1016 33.6004 54.4016 34.8004 51.6016 35.6004" fill="white"/>
<path fill-rule="evenodd" clip-rule="evenodd" d="M51.2 39.9002C48.7 40.5002 45.9 40.9002 42.6 41.0992C41.3 41.2002 39.9 41.2992 38.2 41.2992L33.8 41.5002C22.7 41.9002 11.5 42.4002 0 42.9002V45.5002C11.4 44.7002 22.6 44.0002 33.9 43.2002L38.3 42.9002C40 42.7992 41.4 42.7002 42.7 42.5992C46.1 42.2992 48.9 41.7992 51.5 41.0992C54.4 40.2992 57.2 39.2002 59.9 37.7992C62 36.7002 64 35.4002 66.1 33.7992V32.7002C63.8 34.4002 61.6 35.7002 59.4 36.7992C56.8 38.2002 54 39.2002 51.2 39.9002" fill="white"/>
<mask id="mask3_601_8006" style="mask-type:alpha" maskUnits="userSpaceOnUse" x="0" y="38" width="67" height="11">
<path fill-rule="evenodd" clip-rule="evenodd" d="M0 38.2002H66.1998V48.7992H0V38.2002Z" fill="white"/>
</mask>
<g mask="url(#mask3_601_8006)">
<path fill-rule="evenodd" clip-rule="evenodd" d="M50.7998 44.0992C48.2998 44.5992 45.4998 44.9002 42.1998 44.9992C40.8998 45.0992 39.5998 45.0992 37.8998 45.2002L-0.000244141 46.2002V48.7992L33.5998 46.9992L37.9998 46.7992C39.6998 46.7002 41.0998 46.5992 42.3998 46.4992C45.7998 46.2002 48.4998 45.9002 51.0998 45.2992C53.9998 44.7002 56.8998 43.7992 59.5998 42.5992C61.7998 41.7002 63.8998 40.5992 66.1998 39.2002V38.2002C63.7998 39.5992 61.4998 40.7002 59.1998 41.5992C56.4998 42.7992 53.6998 43.5992 50.7998 44.0992" fill="white"/>
</g>
<path fill-rule="evenodd" clip-rule="evenodd" d="M50.5 48.2998C45.8 48.9008 41.1 48.9998 36.4 49.0998C35.3 49.0998 34.3 49.0998 33.2 49.1998L0 49.7998V52.4008L33.3 50.9998C34.4 50.9998 35.4 50.9008 36.5 50.9008C41.2 50.6998 46 50.4998 50.7 49.7998C53.7 49.2998 56.6 48.5998 59.2 47.6998C61.4 46.9998 63.7 45.9998 66 44.7998V43.7998C63.6 44.9008 61.1 45.9008 58.8 46.5998C56.3 47.2998 53.5 47.9998 50.5 48.2998" fill="white"/>
<mask id="mask4_601_8006" style="mask-type:alpha" maskUnits="userSpaceOnUse" x="0" y="49" width="67" height="7">
<path fill-rule="evenodd" clip-rule="evenodd" d="M0 49.2002H66.1998V55.7992H0V49.2002Z" fill="white"/>
</mask>
<g mask="url(#mask4_601_8006)">
<path fill-rule="evenodd" clip-rule="evenodd" d="M50.2998 52.5992C45.8998 52.9992 41.4998 52.9992 37.0998 52.9992H33.0998C22.0998 52.9992 11.0998 53.0992 -0.000244141 53.2002V55.7992C10.5998 55.4002 21.8998 55.0992 33.1998 54.7002C34.4998 54.7002 35.8998 54.5992 37.1998 54.5992C41.4998 54.4992 45.9998 54.4002 50.3998 53.9002C53.4998 53.5992 56.2998 53.0992 58.9998 52.4002C61.2998 51.7992 63.6998 50.9992 66.1998 50.0992V49.2002C63.6998 50.0992 61.1998 50.7992 58.7998 51.4002C56.0998 51.9992 53.2998 52.4002 50.2998 52.5992" fill="white"/>
</g>
<path fill-rule="evenodd" clip-rule="evenodd" d="M50.1 56.7994C48.3 56.9004 46.3 56.9004 44.1 56.9004H41.6L33 56.7994C27.1 56.7994 21.3 56.6994 15.8 56.6994L0 56.7994V59.4004L15.9 58.9994C21.4 58.9004 27.2 58.6994 33 58.5994L41.6 58.4994C44 58.4994 47.1 58.4004 50.2 58.1994C53.3 57.9994 56.1 57.6994 58.8 57.2994C61.2 56.9004 63.7 56.4004 66.2 55.7994V54.9004C63.7 55.4994 61.1 55.9994 58.7 56.2994C55.9 56.4994 53.2 56.6994 50.1 56.7994" fill="white"/>
<path fill-rule="evenodd" clip-rule="evenodd" d="M41.5 60.9L32.9 60.799C22 60.599 11.1 60.4 0 60.2V62.799C10.6 62.7 21.8 62.599 32.9 62.5L41.5 62.4C44.4 62.4 47.2 62.299 50.1 62.2C56 62 61.2 61.599 66.2 60.9V60C61.3 60.5 56 60.799 50.1 60.9H41.5" fill="white"/>
<path fill-rule="evenodd" clip-rule="evenodd" d="M66.1 65.4998L0 63.7998V66.3998H66.1V65.4998Z" fill="white"/>
<path fill-rule="evenodd" clip-rule="evenodd" d="M60.2 22.0004C57.7 24.0004 55.7 25.5004 52.7 26.7004C50 27.8004 47.1 28.2004 43.9 28.7004C41.8 29.0004 39.6 29.4004 37.5 29.6004C36.6 29.7004 35.8 29.7004 34.9 29.8004L0 32.3004V34.9004L34.9 31.5004L39.4 31.1004C41.1 30.9004 42.6 30.8004 44 30.5004C47.4 30.0004 50.3 29.1004 52.9 27.9004C55.6 26.7004 58.4 24.7004 60.9 22.6004C62.6 21.1004 64.3 19.3004 66.1 17.3004V16.4004C63.9 18.6004 62.1 20.5004 60.2 22.0004" fill="white"/>
<path fill-rule="evenodd" clip-rule="evenodd" d="M94.1992 0C94.1992 0 106.099 18.9 108.299 22.4C110.499 25.9 112.999 28.6 121.799 30.5C130.599 32.4 134.399 33.2 134.399 33.2V33.9C134.399 33.9 128.799 32.7 121.599 31.1C114.399 29.5 111.499 29 108.199 24.4C105.499 20.6 94.1992 4.5 94.1992 4.5V0Z" fill="white"/>
<path fill-rule="evenodd" clip-rule="evenodd" d="M94.1992 21.6006C94.1992 21.6006 104.999 32.9006 108.199 36.2006C111.499 39.7006 115.799 40.9006 121.699 42.0006C127.299 43.0006 134.399 44.2006 134.399 44.2006V44.8006C134.399 44.8006 127.699 43.7006 121.699 42.7006C115.799 41.7006 111.599 41.1006 108.199 38.0006C105.199 35.2006 94.2992 25.0006 94.2992 25.0006L94.1992 21.6006Z" fill="white"/>
<path fill-rule="evenodd" clip-rule="evenodd" d="M94.1992 26.7998C94.1992 26.7998 104.499 36.3998 108.199 39.5998C111.599 42.5998 114.299 43.4998 121.699 44.9008C129.099 46.1998 134.399 46.9998 134.399 46.9998V47.6998C134.399 47.6998 127.699 46.5998 121.699 45.5998C115.699 44.5998 111.799 44.2998 108.199 41.2998C103.999 37.9008 94.1992 29.8998 94.1992 29.8998V26.7998Z" fill="white"/>
<path fill-rule="evenodd" clip-rule="evenodd" d="M94.1992 32.2002C94.1992 32.2002 105.999 41.5002 108.199 43.2002C110.399 44.8002 113.299 46.7002 121.699 48.0002C130.099 49.2002 134.399 49.8002 134.399 49.8002V50.5002C134.399 50.5002 126.799 49.4002 121.699 48.8002C116.599 48.2002 112.699 47.9002 108.199 44.9002C103.799 42.0002 94.1992 35.2002 94.1992 35.2002V32.2002Z" fill="white"/>
<path fill-rule="evenodd" clip-rule="evenodd" d="M94.1992 37.4004C94.1992 37.4004 105.999 45.2994 108.199 46.5004C110.399 47.7004 113.099 49.7994 121.699 50.9004C130.299 52.0004 134.399 52.5004 134.399 52.5004V53.2004C134.399 53.2004 127.299 52.4004 121.699 51.7994C116.099 51.2004 112.299 50.4004 108.199 48.0994C104.099 45.7994 94.1992 40.0994 94.1992 40.0994V37.4004Z" fill="white"/>
<path fill-rule="evenodd" clip-rule="evenodd" d="M94.1992 42.7002C94.1992 42.7002 104.599 48.4002 108.199 50.0992C112.099 52.0992 115.499 53.0002 121.699 53.8002C127.799 54.5002 134.399 55.2002 134.399 55.2002V55.8002C134.399 55.8002 128.299 55.0992 121.699 54.5002C115.199 53.9002 112.899 53.5992 108.199 51.5002C103.999 49.5992 94.1992 45.0992 94.1992 45.0992V42.7002Z" fill="white"/>
<path fill-rule="evenodd" clip-rule="evenodd" d="M94.2016 48C94.2016 48 102.402 51.5 108.202 53.8C113.902 56.1 118.202 56.3 121.702 56.6C123.202 56.8 134.302 57.9 134.302 57.9V58.5C134.302 58.5 127.702 58 121.602 57.4C115.602 56.9 113.002 56.6 108.102 55C103.202 53.4 94.1016 50.2 94.1016 50.2L94.2016 48Z" fill="white"/>
<path fill-rule="evenodd" clip-rule="evenodd" d="M94.1992 53.4004C94.1992 53.4004 102.499 56.0004 108.199 57.5004C113.899 59.0004 119.099 59.5994 121.699 59.7994C124.299 60.0004 134.399 60.7994 134.399 60.7994V61.4004C134.399 61.4004 128.699 61.0004 121.699 60.5004C115.999 60.0994 111.499 59.7004 108.199 58.9004C104.499 58.0994 94.1992 55.5994 94.1992 55.5994V53.4004Z" fill="white"/>
<path fill-rule="evenodd" clip-rule="evenodd" d="M94.1992 58.7002C94.1992 58.7002 100.999 59.9002 108.199 61.0992C113.599 62.0002 120.899 62.5992 121.699 62.5992C122.499 62.5992 134.399 63.5002 134.399 63.5002V64.0992C134.399 64.0992 126.799 63.7002 121.699 63.4002C116.399 63.0992 111.199 62.8002 108.199 62.5002C101.499 61.8002 94.1992 60.9002 94.1992 60.9002V58.7002Z" fill="white"/>
<path fill-rule="evenodd" clip-rule="evenodd" d="M94.1992 64.2998C94.1992 64.2998 104.899 64.6998 108.199 64.7998C111.499 64.9008 134.399 65.7998 134.399 65.7998V66.4008H94.1992V64.2998Z" fill="white"/>
<path fill-rule="evenodd" clip-rule="evenodd" d="M121.701 33.3994C112.001 31.2994 109.801 27.7994 108.201 25.5994C106.601 23.3994 94.3008 5.39941 94.3008 5.39941V9.49941C94.8008 10.0994 105.301 23.8994 108.301 27.6994C111.601 31.9994 116.801 32.9994 121.801 33.9994C126.801 35.0994 134.501 36.5994 134.501 36.5994V35.9994C134.401 35.9994 124.201 33.9994 121.701 33.3994" fill="white"/>
<path fill-rule="evenodd" clip-rule="evenodd" d="M121.701 36.2994C113.701 34.6994 110.501 32.1994 108.201 29.1994C105.901 26.0994 94.3008 10.8994 94.3008 10.8994V14.6994C94.8008 15.2994 105.401 27.7994 108.201 31.0994C111.501 34.8994 116.101 35.8994 121.701 36.8994C127.301 37.9004 134.401 39.2994 134.401 39.2994V38.6994C134.401 38.6994 126.301 37.1994 121.701 36.2994" fill="white"/>
<path fill-rule="evenodd" clip-rule="evenodd" d="M121.699 39.2006C113.399 37.5996 111.699 36.3006 108.199 32.4006C105.999 30.0006 94.6992 16.7006 94.1992 16.1006V19.6006C94.1992 19.6006 104.699 30.8006 108.099 34.2006C112.499 38.5996 116.699 38.9006 121.599 39.8006C126.499 40.7006 134.299 42.0996 134.299 42.0996V41.5006C134.399 41.5006 124.999 39.9006 121.699 39.2006" fill="white"/>
<path fill-rule="evenodd" clip-rule="evenodd" d="M27.5 66.7H85.4V28H27.5V66.7Z" fill="#004494"/>
<path fill-rule="evenodd" clip-rule="evenodd" d="M57.0984 33.1006H59.0984L57.4984 34.4006L58.0984 36.4006L56.4984 35.2006L54.8984 36.4006L55.4984 34.4006L53.8984 33.1006H55.8984L56.4984 31.1006L57.0984 33.1006Z" fill="#FFF100"/>
<path fill-rule="evenodd" clip-rule="evenodd" d="M57.0984 58.9H59.0984L57.4984 60.099L58.0984 62L56.4984 60.799L54.8984 62L55.4984 60.099L53.8984 58.9H55.8984L56.4984 57L57.0984 58.9Z" fill="#FFF100"/>
<path fill-rule="evenodd" clip-rule="evenodd" d="M63.5008 57.1998H65.5008L63.9008 58.3998L64.5008 60.2998L62.9008 59.0988L61.3008 60.2998L61.9008 58.3998L60.3008 57.1998H62.3008L62.9008 55.2998L63.5008 57.1998Z" fill="#FFF100"/>
<path fill-rule="evenodd" clip-rule="evenodd" d="M63.4984 34.7994H65.4984L63.8984 35.9994L64.4984 37.9004L62.8984 36.6994L61.2984 37.9994L61.9984 35.9994L60.3984 34.7994H62.3984L62.9984 32.8994L63.4984 34.7994Z" fill="#FFF100"/>
<path fill-rule="evenodd" clip-rule="evenodd" d="M68.3016 39.5992H70.3016L68.7016 40.7992L69.3016 42.7002L67.7016 41.4992L66.1016 42.7002L66.7016 40.7992L65.1016 39.5992H67.1016L67.7016 37.7002L68.3016 39.5992Z" fill="#FFF100"/>
<path fill-rule="evenodd" clip-rule="evenodd" d="M68.3016 52.5992H70.3016L68.7016 53.7992L69.3016 55.7002L67.7016 54.4992L66.1016 55.7002L66.7016 53.7992L65.1016 52.5992H67.1016L67.7016 50.7002L68.3016 52.5992Z" fill="#FFF100"/>
<path fill-rule="evenodd" clip-rule="evenodd" d="M70.1008 45.9996H72.1008L70.5008 47.1996L71.1008 49.0996L69.5008 47.8996L67.9008 49.0996L68.5008 47.1996L66.8008 45.9996H68.8008L69.4008 44.0996L70.1008 45.9996Z" fill="#FFF100"/>
<path fill-rule="evenodd" clip-rule="evenodd" d="M50.5008 34.8H52.5008L50.9008 36L51.5008 37.901L50.0008 36.8L48.3008 38L48.9008 36.1L47.3008 34.9H49.3008L50.0008 33L50.5008 34.8Z" fill="#FFF100"/>
<path fill-rule="evenodd" clip-rule="evenodd" d="M45.8992 39.5992H47.8992L46.2992 40.7992L46.8992 42.7002L45.2992 41.4992L43.6992 42.7002L44.2992 40.7992L42.6992 39.5992H44.6992L45.2992 37.7002L45.8992 39.5992Z" fill="#FFF100"/>
<path fill-rule="evenodd" clip-rule="evenodd" d="M44.2 45.9996H46.2L44.6 47.1996L45.2 49.0996L43.6 47.8996L42 49.0996L42.6 47.1996L41 45.9996H43L43.6 44.0996L44.2 45.9996Z" fill="#FFF100"/>
<path fill-rule="evenodd" clip-rule="evenodd" d="M45.8992 52.5992H47.8992L46.2992 53.7992L46.8992 55.7002L45.2992 54.4992L43.6992 55.7002L44.2992 53.7992L42.6992 52.5992H44.6992L45.2992 50.7002L45.8992 52.5992Z" fill="#FFF100"/>
<path fill-rule="evenodd" clip-rule="evenodd" d="M50.5984 57.2994H52.5984L50.9984 58.4994L51.5984 60.4004L49.9984 59.1994L48.3984 60.4004L48.9984 58.4994L47.3984 57.2994H49.3984L49.9984 55.4004L50.5984 57.2994Z" fill="#FFF100"/>
<path fill-rule="evenodd" clip-rule="evenodd" d="M26.5 26.6001H86.4V67.3001H26.5V26.6001ZM28.5 28.6001V65.3001H84.4V28.6001H28.5Z" fill="white"/>
</svg>
