<svg
  width="290"
  height="72"
  viewBox="0 0 290 72"
  fill="none"
  xmlns="http://www.w3.org/2000/svg"
>
<path
    fill-rule="evenodd"
    clip-rule="evenodd"
    d="M62.198 66.1854H65.498V27.4854H62.198V66.1854Z"
    fill="white"
  />
<path
    d="M183.659 64.8961H239.364L239.359 28.8354L183.654 28.8405L183.659 64.8961Z"
    fill="#003399"
  />
<path
    d="M212.04 33.3809H214.072L212.433 34.6449L213.071 36.6472L211.443 35.4135L209.815 36.6472L210.453 34.6449L208.804 33.3809H210.83L211.443 31.4292L212.04 33.3809Z"
    fill="#FFED00"
  />
<path
    d="M212.112 59.1573H214.143L212.51 60.3759L213.143 62.3023L211.514 61.1141L209.886 62.3023L210.529 60.3759L208.875 59.1573H210.902L211.514 57.2815L212.112 59.1573Z"
    fill="#FFED00"
  />
<path
    d="M218.548 57.4534H220.585L218.946 58.6669L219.584 60.5933L217.951 59.4051L216.323 60.5933L216.966 58.6669L215.312 57.4534H217.338L217.951 55.5725L218.548 57.4534Z"
    fill="#FFED00"
  />
<path
    d="M218.548 35.1H220.585L218.946 36.3185L219.584 38.2449L217.951 37.0567L216.323 38.2449L216.966 36.3185L215.312 35.1H217.338L217.951 33.2241L218.548 35.1Z"
    fill="#FFED00"
  />
<path
    d="M223.331 39.8377H225.358L223.724 41.0512L224.357 42.9776L222.729 41.7894L221.1 42.9776L221.744 41.0512L220.09 39.8377H222.116L222.729 37.9568L223.331 39.8377Z"
    fill="#FFED00"
  />
<path
    d="M223.331 52.7814H225.358L223.724 53.9999L224.357 55.9263L222.729 54.7381L221.1 55.9263L221.744 53.9999L220.09 52.7814H222.116L222.729 50.9055L223.331 52.7814Z"
    fill="#FFED00"
  />
<path
    d="M225.118 46.2084H227.154L225.516 47.4269L226.149 49.3533L224.52 48.1651L222.892 49.3533L223.535 47.4269L221.881 46.2084H223.908L224.52 44.3325L225.118 46.2084Z"
    fill="#FFED00"
  />
<path
    d="M205.481 35.1202H207.507L205.874 36.3336L206.507 38.26L204.879 37.0718L203.25 38.26L203.893 36.3336L202.245 35.1202H204.266L204.879 33.2393L205.481 35.1202Z"
    fill="#FFED00"
  />
<path
    d="M200.831 39.8528H202.867L201.229 41.0663L201.862 42.9927L200.234 41.8045L198.605 42.9927L199.248 41.0663L197.595 39.8528H199.621L200.234 37.9719L200.831 39.8528Z"
    fill="#FFED00"
  />
<path
    d="M199.105 46.2286H201.137L199.504 47.442L200.137 49.3685L198.508 48.1853L196.88 49.3685L197.523 47.442L195.874 46.2286H197.896L198.508 44.3477L199.105 46.2286Z"
    fill="#FFED00"
  />
<path
    d="M200.831 52.7965H202.867L201.229 54.015L201.862 55.9414L200.234 54.7532L198.605 55.9414L199.248 54.015L197.595 52.7965H199.621L200.234 50.9207L200.831 52.7965Z"
    fill="#FFED00"
  />
<path
    d="M205.547 57.4685H207.574L205.94 58.682L206.573 60.6084L204.945 59.4202L203.317 60.6084L203.96 58.682L202.311 57.4685H204.332L204.945 55.5876L205.547 57.4685Z"
    fill="#FFED00"
  />
<path
    d="M249.537 0.00505726C249.537 0.00505726 261.517 18.9101 263.712 22.3736C265.902 25.8371 268.408 28.5826 277.275 30.4433C286.141 32.304 290 33.1837 290 33.1837V33.8562C290 33.8562 284.365 32.668 277.116 31.0652C269.868 29.4624 266.902 28.9214 263.6 24.3657C260.849 20.5736 249.537 3.61517 249.537 3.61517V0V0.00505726Z"
    fill="white"
  />
<path
    d="M249.537 21.5949C249.537 21.5949 260.445 32.9157 263.6 36.1668C266.948 39.6151 271.231 40.8893 277.173 41.941C282.844 42.9421 289.995 44.1 289.995 44.1V44.7371C289.995 44.7371 283.277 43.6449 277.173 42.6135C271.185 41.5972 266.994 41.0309 263.564 37.9011C260.491 35.1 249.537 24.9219 249.537 24.9219V21.5898V21.5949Z"
    fill="white"
  />
<path
    d="M249.537 26.6967C249.537 26.6967 259.909 36.2377 263.6 39.499C266.994 42.4973 269.746 43.4327 277.208 44.7422C284.671 46.0518 289.995 46.8658 289.995 46.8658V47.5383C289.995 47.5383 283.242 46.4411 277.173 45.4804C271.103 44.5248 267.234 44.1456 263.6 41.2282C259.409 37.8608 249.537 29.8113 249.537 29.8113V26.6917V26.6967Z"
    fill="white"
  />
<path
    d="M249.537 32.1321C249.537 32.1321 261.385 41.4456 263.6 43.0737C265.815 44.7018 268.745 46.6029 277.244 47.8214C285.671 49.0298 289.995 49.6265 289.995 49.6265V50.3343C289.995 50.3343 282.354 49.2371 277.244 48.6001C272.135 47.963 268.219 47.69 263.636 44.6664C259.174 41.7237 249.537 35.004 249.537 35.004V32.1321Z"
    fill="white"
  />
<path
    d="M249.537 37.3601C249.537 37.3601 261.42 45.1972 263.671 46.441C265.922 47.6798 268.567 49.7022 277.244 50.7994C285.922 51.8966 289.995 52.3921 289.995 52.3921V53.0646C289.995 53.0646 282.818 52.286 277.208 51.6843C271.604 51.0826 267.78 50.2685 263.6 47.9983C259.419 45.7331 249.537 40.0095 249.537 40.0095V37.3601Z"
    fill="white"
  />
<path
    d="M249.537 42.5883C249.537 42.5883 260.042 48.2512 263.6 50.0158C267.566 51.9878 270.996 52.9333 277.208 53.6664C283.308 54.3844 289.995 55.0821 289.995 55.0821V55.7192C289.995 55.7192 283.813 55.0619 277.208 54.4451C270.659 53.8282 268.327 53.5451 263.6 51.467C259.373 49.6063 249.537 45.0658 249.537 45.0658V42.5833V42.5883Z"
    fill="white"
  />
<path
    d="M249.537 47.8872C249.537 47.8872 257.837 51.4063 263.671 53.7018C269.409 55.9569 273.793 56.149 277.28 56.5383C278.816 56.7102 289.995 57.8479 289.995 57.8479V58.485C289.995 58.485 283.318 57.9541 277.244 57.4232C271.17 56.8923 268.551 56.6647 263.636 55.0518C258.659 53.4136 249.537 50.2636 249.537 50.2636V47.8923V47.8872Z"
    fill="white"
  />
<path
    d="M249.537 53.2922C249.537 53.2922 257.919 55.8658 263.636 57.3524C269.353 58.8389 274.6 59.4456 277.244 59.6175C279.888 59.7945 290 60.6085 290 60.6085V61.2102C290 61.2102 284.247 60.8209 277.208 60.3254C271.517 59.9259 266.948 59.5012 263.6 58.7681C259.894 57.9591 249.537 55.522 249.537 55.522V53.2922Z"
    fill="white"
  />
<path
    d="M249.537 58.6062C249.537 58.6062 256.392 59.7792 263.636 60.9674C269.067 61.8573 276.422 62.4186 277.208 62.454C277.994 62.4893 289.995 63.3034 289.995 63.3034V63.9405C289.995 63.9405 282.313 63.5461 277.208 63.268C271.89 62.9747 266.601 62.6562 263.6 62.3478C256.872 61.6551 249.537 60.7349 249.537 60.7349V58.6062Z"
    fill="white"
  />
<path
    d="M249.537 64.1074C249.537 64.1074 260.348 64.5119 263.636 64.5827C266.923 64.6535 289.995 65.5737 289.995 65.5737V66.1956H249.537V64.1074Z"
    fill="white"
  />
<path
    d="M277.203 33.3656C267.418 31.2774 265.203 27.733 263.559 25.5387C261.915 23.3392 249.532 5.41504 249.532 5.41504V8.71167C250.022 9.34369 260.619 23.8347 263.595 27.6269C266.948 31.8993 272.201 32.8701 277.203 33.9319C282.2 34.9937 289.995 36.4752 289.995 36.4752V35.9089C289.995 35.9089 279.735 33.9016 277.203 33.3656Z"
    fill="white"
  />
<path
    d="M277.203 36.2022C269.169 34.6449 265.917 32.127 263.559 29.0831C261.201 26.0343 249.532 10.446 249.532 10.446V14.2786C250.022 14.85 260.695 27.7534 263.559 30.9994C266.897 34.7865 271.558 35.7826 277.203 36.809C282.849 37.8354 289.99 39.1803 289.99 39.1803V38.614C289.99 38.614 281.838 37.1022 277.203 36.2073V36.2022Z"
    fill="white"
  />
<path
    d="M277.203 39.1399C268.847 37.5321 267.132 36.2124 263.595 32.3748C261.369 29.963 250.012 16.6804 249.532 16.1191V19.6585C249.532 19.6585 260.144 30.8731 263.559 34.1849C268.036 38.5332 272.237 38.8619 277.203 39.7467C282.17 40.6315 289.99 42.0473 289.99 42.0473V41.4456C289.99 41.4456 280.547 39.7871 277.203 39.145V39.1399Z"
    fill="white"
  />
<path
    d="M154.605 27.7788C154.605 27.7788 182.271 24.8563 190.02 23.7793C202.27 22.0805 212.295 20.2703 221.57 6.18887C221.57 6.18887 221.58 5.38999 221.57 5.03101C215.889 13.5911 208.054 19.431 197.263 21.1248C186.722 22.7833 154.6 25.2052 154.6 25.2052V27.7788H154.605Z"
    fill="white"
  />
<path
    d="M154.605 24.2849C154.605 24.2849 180.245 21.1046 188.692 19.9315C202.056 18.081 211.453 16.4175 221.57 1.05681C221.57 1.05681 221.575 0.394453 221.57 0.00512695C215.373 9.3439 207.722 15.3759 195.951 17.2265C184.451 19.0366 154.605 21.6759 154.605 21.6759V24.29V24.2849Z"
    fill="white"
  />
<path d="M180.781 64.1326H154.62V66.1854H180.781V64.1326Z" fill="white" />
<path
    d="M221.57 22.5708C221.57 22.5708 221.585 21.3624 221.58 21.1045C220.35 22.9601 218.732 24.6438 216.864 26.1253H218.696C219.727 25.0736 220.692 23.8955 221.565 22.5708H221.57Z"
    fill="white"
  />
<path
    d="M221.57 17.11C221.57 17.11 221.58 16.0381 221.575 15.7449C218.609 20.2145 214.194 23.7842 209.09 26.1505L212.101 26.1404C215.583 24.1331 218.819 21.2814 221.565 17.11H221.57Z"
    fill="white"
  />
<path
    d="M221.57 11.6494C221.57 11.6494 221.58 10.714 221.57 10.3904C216.41 18.1718 208.385 23.496 198.575 25.0381C196.252 25.4022 192.47 25.8067 188.075 26.2162L200.055 26.1758C207.962 24.4314 215.363 21.0589 221.56 11.6494H221.57Z"
    fill="white"
  />
<path
    d="M180.786 60.6743C167.438 60.7451 154.62 60.8007 154.62 60.8007V62.9395C154.62 62.9395 168.045 62.8434 180.786 62.7372V60.6743Z"
    fill="white"
  />
<path
    d="M180.786 57.0034C167.529 57.15 154.615 57.2613 154.615 57.2613V59.4456C154.615 59.4456 168.178 59.2686 180.786 59.0714V57.0034Z"
    fill="white"
  />
<path
    d="M180.781 53.3225C167.621 53.55 154.615 53.722 154.615 53.722V55.9517C154.615 55.9517 168.321 55.6837 180.781 55.3905V53.3225Z"
    fill="white"
  />
<path
    d="M180.786 49.6213C167.723 49.9398 154.615 50.1774 154.615 50.1774V52.4477C154.615 52.4477 168.479 52.0735 180.786 51.6842V49.6162V49.6213Z"
    fill="white"
  />
<path
    d="M180.791 45.9102C167.826 46.3197 154.615 46.6433 154.615 46.6433V48.959C154.615 48.959 168.647 48.4736 180.791 47.9781V45.9152V45.9102Z"
    fill="white"
  />
<path
    d="M180.786 42.1838C167.923 42.6995 154.615 43.104 154.615 43.104V45.4602C154.615 45.4602 168.821 44.8433 180.786 44.2315V42.1787V42.1838Z"
    fill="white"
  />
<path
    d="M180.791 38.4321C168.025 39.0591 154.61 39.5597 154.61 39.5597V41.9613C154.61 41.9613 169.005 41.1979 180.791 40.4647V38.4321Z"
    fill="white"
  />
<path
    d="M180.791 34.6602C168.122 35.4085 154.61 36.0203 154.61 36.0203V38.4624C154.61 38.4624 169.199 37.5321 180.791 36.6725V34.6602Z"
    fill="white"
  />
<path
    d="M180.791 30.8679C168.208 31.7477 154.61 32.4859 154.61 32.4859V34.9735C154.61 34.9735 169.393 33.8511 180.791 32.8601V30.873V30.8679Z"
    fill="white"
  />
<path
    d="M180.791 27.0405C168.285 28.0669 154.605 28.9416 154.605 28.9416V31.4697C154.605 31.4697 169.587 30.1248 180.791 28.9922V27.0405Z"
    fill="white"
  />
<path
    d="M240.676 66.1906V27.5461H182.353V66.1906H240.676ZM239.359 28.8355V64.8962H183.654V28.8405H239.359V28.8355Z"
    fill="white"
  />
<path
    d="M143.882 46.2024L143.482 31.9224H145.102L145.502 46.2024H143.882Z"
    fill="white"
  />
<path
    d="M137.286 46.3024L137.466 44.6624C138.226 44.6624 138.76 44.589 139.066 44.4424C139.373 44.2957 139.546 44.0357 139.586 43.6624C139.64 43.289 139.653 42.769 139.626 42.1024L139.246 31.9224H140.866L141.266 41.9224C141.293 42.629 141.266 43.2557 141.186 43.8024C141.12 44.349 140.946 44.809 140.666 45.1824C140.4 45.5557 139.993 45.8357 139.446 46.0224C138.913 46.209 138.193 46.3024 137.286 46.3024Z"
    fill="white"
  />
<path
    d="M126.164 46.3024L126.364 44.6624C126.737 44.6624 127.031 44.5824 127.244 44.4224C127.471 44.2624 127.684 43.9957 127.884 43.6224C128.097 43.2491 128.364 42.7491 128.684 42.1224C129.004 41.4824 129.324 40.9624 129.644 40.5624C129.977 40.1491 130.297 39.8291 130.604 39.6024C130.924 39.3624 131.224 39.1957 131.504 39.1024C131.784 39.0091 132.044 38.9624 132.284 38.9624C132.724 38.9624 133.117 39.0624 133.464 39.2624C133.811 39.4491 134.137 39.7757 134.444 40.2424C134.751 40.6957 135.064 41.3224 135.384 42.1224C135.691 42.8557 135.964 43.4091 136.204 43.7824C136.457 44.1424 136.717 44.3824 136.984 44.5024C137.264 44.6091 137.577 44.6624 137.924 44.6624C138.204 44.6624 138.404 44.7424 138.524 44.9024C138.657 45.0491 138.724 45.2291 138.724 45.4424C138.724 45.6557 138.631 45.8557 138.444 46.0424C138.257 46.2157 138.017 46.3024 137.724 46.3024C137.204 46.3024 136.724 46.2157 136.284 46.0424C135.857 45.8691 135.497 45.5957 135.204 45.2224L135.484 44.8024C135.337 45.2157 135.137 45.5557 134.884 45.8224C134.644 46.0757 134.371 46.2624 134.064 46.3824C133.757 46.5157 133.431 46.5824 133.084 46.5824C132.644 46.5824 132.191 46.4891 131.724 46.3024C131.271 46.1157 130.831 45.8491 130.404 45.5024C129.977 45.1557 129.604 44.7491 129.284 44.2824C128.937 44.8957 128.604 45.3491 128.284 45.6424C127.977 45.9224 127.657 46.1024 127.324 46.1824C126.991 46.2624 126.604 46.3024 126.164 46.3024ZM130.044 42.7624C130.271 43.1357 130.511 43.4624 130.764 43.7424C131.031 44.0224 131.297 44.2557 131.564 44.4424C131.831 44.6157 132.091 44.7491 132.344 44.8424C132.611 44.9224 132.851 44.9624 133.064 44.9624C133.531 44.9624 133.871 44.7957 134.084 44.4624C134.311 44.1291 134.304 43.6624 134.064 43.0624C133.944 42.7557 133.817 42.4557 133.684 42.1624C133.564 41.8691 133.431 41.6024 133.284 41.3624C133.137 41.1091 132.971 40.9157 132.784 40.7824C132.597 40.6357 132.391 40.5624 132.164 40.5624C131.964 40.5624 131.751 40.6291 131.524 40.7624C131.311 40.8957 131.077 41.1224 130.824 41.4424C130.584 41.7624 130.324 42.2024 130.044 42.7624Z"
    fill="white"
  />
<path
    d="M108.868 50.8024L108.508 49.1624C109.308 49.0557 110.041 48.9024 110.708 48.7024C111.388 48.5157 111.968 48.2424 112.448 47.8824C112.941 47.5224 113.321 47.0491 113.588 46.4624C113.855 45.8757 113.988 45.1424 113.988 44.2624C113.988 43.3557 113.821 42.6024 113.488 42.0024C113.155 41.4024 112.721 41.1024 112.188 41.1024C111.908 41.1024 111.648 41.2091 111.408 41.4224C111.168 41.6357 110.968 41.9224 110.808 42.2824C110.661 42.6424 110.588 43.0357 110.588 43.4624C110.588 43.7024 110.641 43.9024 110.748 44.0624C110.855 44.2091 111.008 44.3291 111.208 44.4224C111.421 44.5024 111.688 44.5624 112.008 44.6024C112.328 44.6424 112.701 44.6624 113.128 44.6624H117.348C117.628 44.6624 117.828 44.7424 117.948 44.9024C118.081 45.0491 118.148 45.2291 118.148 45.4424C118.148 45.6557 118.055 45.8557 117.868 46.0424C117.681 46.2157 117.441 46.3024 117.148 46.3024H112.368C111.768 46.3024 111.208 46.2157 110.688 46.0424C110.181 45.8691 109.768 45.6024 109.448 45.2424C109.141 44.8691 108.988 44.3824 108.988 43.7824C108.988 43.2224 109.075 42.6891 109.248 42.1824C109.421 41.6624 109.655 41.2024 109.948 40.8024C110.255 40.3891 110.608 40.0624 111.008 39.8224C111.421 39.5824 111.868 39.4624 112.348 39.4624C112.961 39.4624 113.508 39.6424 113.988 40.0024C114.468 40.3624 114.848 40.9091 115.128 41.6424C115.408 42.3624 115.548 43.2757 115.548 44.3824C115.548 45.6224 115.295 46.6891 114.788 47.5824C114.295 48.4891 113.548 49.2091 112.548 49.7424C111.561 50.2757 110.335 50.6291 108.868 50.8024Z"
    fill="white"
  />
<path
    d="M99.7615 46.5625C98.5882 46.5625 97.6015 46.5158 96.8015 46.4225C96.0149 46.3425 95.3749 46.2158 94.8815 46.0425C94.3882 45.8691 94.0149 45.6491 93.7615 45.3825C93.5082 45.1158 93.3349 44.7958 93.2415 44.4225L93.7015 44.2625C93.3682 44.9025 93.0082 45.3691 92.6215 45.6625C92.2349 45.9425 91.8282 46.1225 91.4015 46.2025C90.9882 46.2691 90.5482 46.3025 90.0815 46.3025L90.2815 44.6625C90.7482 44.6625 91.1282 44.5958 91.4215 44.4625C91.7282 44.3291 91.9749 44.1091 92.1615 43.8025C92.3615 43.4958 92.5349 43.0891 92.6815 42.5825C92.8282 42.0758 92.9882 41.4491 93.1615 40.7025L94.6215 41.0825C94.5415 41.3891 94.4682 41.6825 94.4015 41.9625C94.3349 42.2425 94.2815 42.4891 94.2415 42.7025C94.2149 42.9025 94.2015 43.0625 94.2015 43.1825C94.2015 43.5025 94.2749 43.7758 94.4215 44.0025C94.5682 44.2158 94.8482 44.3958 95.2615 44.5425C95.6749 44.6758 96.2682 44.7758 97.0415 44.8425C97.8282 44.8958 98.8549 44.9225 100.122 44.9225C101.002 44.9225 101.788 44.8691 102.482 44.7625C103.175 44.6558 103.755 44.4958 104.222 44.2825C104.702 44.0558 105.068 43.7825 105.322 43.4625C105.575 43.1425 105.702 42.7758 105.702 42.3625C105.702 42.0691 105.628 41.7825 105.482 41.5025C105.335 41.2091 105.108 40.9625 104.802 40.7625C104.495 40.5625 104.088 40.4625 103.582 40.4625C102.942 40.4625 102.302 40.6291 101.662 40.9625C101.035 41.2958 100.435 41.7158 99.8615 42.2225C99.3015 42.7158 98.8015 43.2225 98.3615 43.7425C97.9215 44.2625 97.5682 44.7158 97.3015 45.1025L95.5615 45.0425C95.9882 44.3491 96.4949 43.6425 97.0815 42.9225C97.6815 42.1891 98.3349 41.5158 99.0415 40.9025C99.7615 40.2758 100.515 39.7758 101.302 39.4025C102.088 39.0158 102.888 38.8225 103.702 38.8225C104.435 38.8225 105.062 38.9758 105.582 39.2825C106.115 39.5758 106.522 39.9758 106.802 40.4825C107.095 40.9891 107.242 41.5625 107.242 42.2025C107.242 42.9891 107.008 43.7158 106.542 44.3825C106.088 45.0358 105.315 45.5625 104.222 45.9625C103.128 46.3625 101.642 46.5625 99.7615 46.5625ZM103.122 36.7625C102.842 36.7625 102.602 36.6691 102.402 36.4825C102.215 36.2825 102.122 36.0491 102.122 35.7825C102.122 35.5158 102.215 35.2825 102.402 35.0825C102.602 34.8825 102.842 34.7825 103.122 34.7825C103.388 34.7825 103.615 34.8825 103.802 35.0825C104.002 35.2825 104.102 35.5158 104.102 35.7825C104.102 36.0491 104.002 36.2825 103.802 36.4825C103.615 36.6691 103.388 36.7625 103.122 36.7625Z"
    fill="white"
  />
<path
    d="M83.0607 46.3025L83.2607 44.6625C83.9273 44.6625 84.4473 44.6158 84.8207 44.5225C85.194 44.4158 85.474 44.2225 85.6607 43.9425C85.8607 43.6491 86.0207 43.2291 86.1407 42.6825C86.2607 42.1358 86.4073 41.4225 86.5807 40.5425L88.1407 40.8425C88.0873 41.0825 88.0273 41.3491 87.9607 41.6425C87.894 41.9358 87.834 42.2291 87.7807 42.5225C87.7407 42.8025 87.7207 43.0491 87.7207 43.2625C87.7207 43.4625 87.734 43.6491 87.7607 43.8225C87.7873 43.9958 87.8873 44.1425 88.0607 44.2625C88.234 44.3825 88.5273 44.4825 88.9407 44.5625C89.354 44.6291 89.9473 44.6625 90.7207 44.6625C91.0007 44.6625 91.2007 44.7425 91.3207 44.9025C91.454 45.0491 91.5207 45.2291 91.5207 45.4425C91.5207 45.6558 91.4273 45.8558 91.2407 46.0425C91.054 46.2158 90.814 46.3025 90.5207 46.3025C89.7073 46.3025 89.0607 46.2625 88.5807 46.1825C88.1007 46.0891 87.734 45.9558 87.4807 45.7825C87.2407 45.6091 87.0673 45.3958 86.9607 45.1425C86.8673 44.8758 86.794 44.5691 86.7407 44.2225L87.3407 44.2625C87.1273 44.6891 86.894 45.0358 86.6407 45.3025C86.4007 45.5691 86.1207 45.7758 85.8007 45.9225C85.4807 46.0691 85.094 46.1691 84.6407 46.2225C84.2007 46.2758 83.674 46.3025 83.0607 46.3025ZM88.1007 50.0825C87.8207 50.0825 87.5807 49.9825 87.3807 49.7825C87.194 49.5958 87.1007 49.3691 87.1007 49.1025C87.1007 48.8358 87.194 48.6025 87.3807 48.4025C87.5807 48.2025 87.8207 48.1025 88.1007 48.1025C88.3673 48.1025 88.594 48.2025 88.7807 48.4025C88.9807 48.6025 89.0807 48.8358 89.0807 49.1025C89.0807 49.3691 88.9807 49.5958 88.7807 49.7825C88.594 49.9825 88.3673 50.0825 88.1007 50.0825ZM85.3607 50.0825C85.0807 50.0825 84.8407 49.9825 84.6407 49.7825C84.454 49.5958 84.3607 49.3691 84.3607 49.1025C84.3607 48.8358 84.454 48.6025 84.6407 48.4025C84.8407 48.2025 85.0807 48.1025 85.3607 48.1025C85.6273 48.1025 85.854 48.2025 86.0407 48.4025C86.2407 48.6025 86.3407 48.8358 86.3407 49.1025C86.3407 49.3691 86.2407 49.5958 86.0407 49.7825C85.854 49.9825 85.6273 50.0825 85.3607 50.0825Z"
    fill="white"
  />
<path
    d="M83.4941 46.3023C82.7741 46.3023 82.1341 46.2023 81.5741 46.0023C81.0275 45.789 80.5875 45.4356 80.2541 44.9423C79.9341 44.4356 79.7541 43.7356 79.7141 42.8423L79.3941 35.8823H81.0141L81.3341 42.4823C81.3741 43.109 81.4875 43.5823 81.6741 43.9023C81.8608 44.209 82.1208 44.4156 82.4541 44.5223C82.8008 44.6156 83.2141 44.6623 83.6941 44.6623C83.9741 44.6623 84.1741 44.7423 84.2941 44.9023C84.4275 45.049 84.4941 45.229 84.4941 45.4423C84.4941 45.6556 84.4008 45.8556 84.2141 46.0423C84.0275 46.2156 83.7875 46.3023 83.4941 46.3023ZM80.4741 44.1023C79.7141 44.3423 78.9741 44.4623 78.2541 44.4623C77.5341 44.4623 76.8808 44.3556 76.2941 44.1423C75.7075 43.929 75.2408 43.6223 74.8941 43.2223C74.5475 42.809 74.3741 42.3156 74.3741 41.7423C74.3741 41.1823 74.5141 40.6556 74.7941 40.1623C75.0875 39.669 75.4808 39.229 75.9741 38.8423C76.4808 38.4556 77.0608 38.1356 77.7141 37.8823C78.3808 37.6156 79.0875 37.4356 79.8341 37.3423L80.1141 39.0223C79.4475 39.049 78.8541 39.1423 78.3341 39.3023C77.8275 39.449 77.3941 39.6423 77.0341 39.8823C76.6875 40.1223 76.4208 40.3823 76.2341 40.6623C76.0475 40.9423 75.9541 41.2156 75.9541 41.4823C75.9541 41.7756 76.0608 42.0156 76.2741 42.2023C76.4875 42.389 76.7608 42.5356 77.0941 42.6423C77.4275 42.7356 77.7941 42.7956 78.1941 42.8223C78.5941 42.8356 78.9808 42.8223 79.3541 42.7823C79.7275 42.729 80.0475 42.6556 80.3141 42.5623L80.4741 44.1023ZM80.0541 33.5823C79.7741 33.5823 79.5341 33.489 79.3341 33.3023C79.1475 33.1023 79.0541 32.869 79.0541 32.6023C79.0541 32.3356 79.1475 32.1023 79.3341 31.9023C79.5341 31.7023 79.7741 31.6023 80.0541 31.6023C80.3208 31.6023 80.5475 31.7023 80.7341 31.9023C80.9341 32.1023 81.0341 32.3356 81.0341 32.6023C81.0341 32.869 80.9341 33.1023 80.7341 33.3023C80.5475 33.489 80.3208 33.5823 80.0541 33.5823ZM77.3141 33.5823C77.0341 33.5823 76.7941 33.489 76.5941 33.3023C76.4075 33.1023 76.3141 32.869 76.3141 32.6023C76.3141 32.3356 76.4075 32.1023 76.5941 31.9023C76.7941 31.7023 77.0341 31.6023 77.3141 31.6023C77.5808 31.6023 77.8075 31.7023 77.9941 31.9023C78.1941 32.1023 78.2941 32.3356 78.2941 32.6023C78.2941 32.869 78.1941 33.1023 77.9941 33.3023C77.8075 33.489 77.5808 33.5823 77.3141 33.5823Z"
    fill="white"
  />
<path
    d="M143.882 66.2024L143.482 51.9224H145.102L145.502 66.2024H143.882Z"
    fill="white"
  />
<path
    d="M138.701 55.4825C138.701 55.1891 138.681 54.8358 138.641 54.4225C138.601 54.0091 138.554 53.5958 138.501 53.1825C138.448 52.7691 138.394 52.4158 138.341 52.1225L140.061 51.9225C140.101 52.1891 140.141 52.5425 140.181 52.9825C140.234 53.4091 140.274 53.8358 140.301 54.2625C140.328 54.6891 140.341 55.0425 140.341 55.3225C140.341 55.9625 140.294 56.5891 140.201 57.2025C140.121 57.8025 139.988 58.3958 139.801 58.9825C139.614 59.5558 139.368 60.1158 139.061 60.6625L138.821 61.1025C138.448 61.7291 137.988 62.3358 137.441 62.9225C136.894 63.4958 136.254 64.0425 135.521 64.5625H138.041C138.494 64.5625 138.841 64.5091 139.081 64.4025C139.321 64.2825 139.481 64.1291 139.561 63.9425C139.654 63.7558 139.701 63.5558 139.701 63.3425C139.701 62.9825 139.481 62.5358 139.041 62.0025C138.614 61.4558 138.021 60.8558 137.261 60.2025C136.501 59.5358 135.641 58.8358 134.681 58.1025C133.721 57.3691 132.708 56.6225 131.641 55.8625L132.581 54.5425C133.808 55.4491 134.888 56.2691 135.821 57.0025C136.768 57.7358 137.574 58.4091 138.241 59.0225C138.921 59.6225 139.474 60.1825 139.901 60.7025C140.341 61.2091 140.661 61.6958 140.861 62.1625C141.074 62.6158 141.181 63.0625 141.181 63.5025C141.181 63.7958 141.128 64.1025 141.021 64.4225C140.928 64.7291 140.754 65.0225 140.501 65.3025C140.261 65.5691 139.914 65.7891 139.461 65.9625C139.021 66.1225 138.448 66.2025 137.741 66.2025H133.141V64.5825C134.514 63.5958 135.601 62.6358 136.401 61.7025C137.214 60.7691 137.801 59.7958 138.161 58.7825C138.521 57.7691 138.701 56.6691 138.701 55.4825ZM131.361 53.4825L131.121 52.4025C131.468 52.3225 131.748 52.2558 131.961 52.2025C132.174 52.1491 132.414 52.0891 132.681 52.0225L132.581 52.4425C132.234 52.3358 131.901 52.1091 131.581 51.7625C131.274 51.4158 131.121 51.0225 131.121 50.5825C131.121 50.1825 131.214 49.8491 131.401 49.5825C131.601 49.3025 131.854 49.0958 132.161 48.9625C132.481 48.8291 132.821 48.7625 133.181 48.7625C133.328 48.7625 133.481 48.7758 133.641 48.8025C133.814 48.8291 133.974 48.8691 134.121 48.9225L133.961 49.9225C133.828 49.8958 133.701 49.8691 133.581 49.8425C133.461 49.8158 133.328 49.8025 133.181 49.8025C132.874 49.8025 132.634 49.8691 132.461 50.0025C132.288 50.1225 132.201 50.2958 132.201 50.5225C132.201 50.8025 132.288 51.0425 132.461 51.2425C132.648 51.4425 132.854 51.6025 133.081 51.7225C133.321 51.8291 133.514 51.8825 133.661 51.8825L132.841 51.9625C133.201 51.8691 133.534 51.7758 133.841 51.6825C134.161 51.5758 134.448 51.4758 134.701 51.3825L135.021 52.4025C134.701 52.5225 134.321 52.6491 133.881 52.7825C133.454 52.9158 133.021 53.0425 132.581 53.1625C132.141 53.2825 131.734 53.3891 131.361 53.4825Z"
    fill="white"
  />
<path
    d="M123.496 70.8024L123.136 69.1624C123.936 69.0557 124.669 68.9024 125.336 68.7024C126.016 68.5157 126.596 68.2424 127.076 67.8824C127.569 67.5224 127.949 67.0491 128.216 66.4624C128.483 65.8757 128.616 65.1424 128.616 64.2624C128.616 63.8491 128.576 63.4557 128.496 63.0824C128.416 62.6957 128.296 62.3557 128.136 62.0624C127.976 61.7691 127.783 61.5357 127.556 61.3624C127.343 61.1891 127.096 61.1024 126.816 61.1024C126.509 61.1024 126.229 61.2224 125.976 61.4624C125.736 61.6891 125.543 61.9824 125.396 62.3424C125.263 62.7024 125.196 63.0624 125.196 63.4224C125.196 63.7024 125.249 63.9491 125.356 64.1624C125.476 64.3624 125.669 64.5157 125.936 64.6224C126.203 64.7291 126.549 64.7824 126.976 64.7824C127.363 64.7824 127.749 64.7424 128.136 64.6624C128.536 64.5824 128.876 64.4757 129.156 64.3424L129.236 65.7424C128.916 65.9691 128.536 66.1291 128.096 66.2224C127.669 66.3157 127.236 66.3624 126.796 66.3624C126.289 66.3624 125.836 66.3091 125.436 66.2024C125.049 66.0957 124.716 65.9424 124.436 65.7424C124.169 65.5291 123.963 65.2624 123.816 64.9424C123.683 64.6224 123.616 64.2491 123.616 63.8224C123.616 63.3157 123.696 62.8091 123.856 62.3024C124.016 61.7824 124.243 61.3091 124.536 60.8824C124.829 60.4557 125.183 60.1157 125.596 59.8624C126.009 59.5957 126.469 59.4624 126.976 59.4624C127.509 59.4624 127.976 59.6024 128.376 59.8824C128.776 60.1491 129.109 60.5157 129.376 60.9824C129.643 61.4491 129.843 61.9757 129.976 62.5624C130.109 63.1491 130.176 63.7557 130.176 64.3824C130.176 65.6224 129.923 66.6891 129.416 67.5824C128.923 68.4891 128.176 69.2091 127.176 69.7424C126.189 70.2757 124.963 70.6291 123.496 70.8024Z"
    fill="white"
  />
<path
    d="M115.512 70.8024L114.932 69.2824C116.279 68.8557 117.312 68.3424 118.032 67.7424C118.765 67.1557 119.265 66.5424 119.532 65.9024C119.812 65.2624 119.952 64.649 119.952 64.0624C119.952 63.689 119.912 63.329 119.832 62.9824C119.752 62.6357 119.612 62.2424 119.412 61.8024C119.212 61.3624 118.932 60.8157 118.572 60.1624L120.032 59.4224C120.539 60.289 120.899 61.109 121.112 61.8824C121.339 62.6557 121.452 63.3357 121.452 63.9224C121.452 64.7624 121.312 65.5224 121.032 66.2024C120.765 66.8824 120.405 67.4824 119.952 68.0024C119.512 68.5357 119.025 68.989 118.492 69.3624C117.972 69.7357 117.445 70.0424 116.912 70.2824C116.392 70.5224 115.925 70.6957 115.512 70.8024Z"
    fill="white"
  />
<path
    d="M108.087 70.8024L107.727 69.1624C108.527 69.0557 109.26 68.9024 109.927 68.7024C110.607 68.5157 111.187 68.2424 111.667 67.8824C112.16 67.5224 112.54 67.0491 112.807 66.4624C113.073 65.8757 113.207 65.1424 113.207 64.2624C113.207 63.8491 113.167 63.4557 113.087 63.0824C113.007 62.6957 112.887 62.3557 112.727 62.0624C112.567 61.7691 112.373 61.5357 112.147 61.3624C111.933 61.1891 111.687 61.1024 111.407 61.1024C111.1 61.1024 110.82 61.2224 110.567 61.4624C110.327 61.6891 110.133 61.9824 109.987 62.3424C109.853 62.7024 109.787 63.0624 109.787 63.4224C109.787 63.7024 109.84 63.9491 109.947 64.1624C110.067 64.3624 110.26 64.5157 110.527 64.6224C110.793 64.7291 111.14 64.7824 111.567 64.7824C111.953 64.7824 112.34 64.7424 112.727 64.6624C113.127 64.5824 113.467 64.4757 113.747 64.3424L113.827 65.7424C113.507 65.9691 113.127 66.1291 112.687 66.2224C112.26 66.3157 111.827 66.3624 111.387 66.3624C110.88 66.3624 110.427 66.3091 110.027 66.2024C109.64 66.0957 109.307 65.9424 109.027 65.7424C108.76 65.5291 108.553 65.2624 108.407 64.9424C108.273 64.6224 108.207 64.2491 108.207 63.8224C108.207 63.3157 108.287 62.8091 108.447 62.3024C108.607 61.7824 108.833 61.3091 109.127 60.8824C109.42 60.4557 109.773 60.1157 110.187 59.8624C110.6 59.5957 111.06 59.4624 111.567 59.4624C112.1 59.4624 112.567 59.6024 112.967 59.8824C113.367 60.1491 113.7 60.5157 113.967 60.9824C114.233 61.4491 114.433 61.9757 114.567 62.5624C114.7 63.1491 114.767 63.7557 114.767 64.3824C114.767 65.6224 114.513 66.6891 114.007 67.5824C113.513 68.4891 112.767 69.2091 111.767 69.7424C110.78 70.2757 109.553 70.6291 108.087 70.8024Z"
    fill="white"
  />
<path
    d="M101.996 66.3023L102.196 64.6623C102.849 64.6623 103.369 64.6223 103.756 64.5423C104.142 64.4623 104.422 64.3023 104.596 64.0623C104.769 63.809 104.856 63.4357 104.856 62.9423C104.856 62.609 104.802 62.2157 104.696 61.7623C104.589 61.2957 104.449 60.8023 104.276 60.2823C104.102 59.7623 103.916 59.249 103.716 58.7423L105.336 58.1423C105.509 58.569 105.669 59.0557 105.816 59.6023C105.976 60.149 106.109 60.689 106.216 61.2223C106.322 61.7557 106.376 62.2223 106.376 62.6223C106.376 63.1557 106.316 63.629 106.196 64.0423C106.089 64.4423 105.922 64.789 105.696 65.0823C105.469 65.3623 105.176 65.5957 104.816 65.7823C104.469 65.9557 104.062 66.089 103.596 66.1823C103.129 66.2623 102.596 66.3023 101.996 66.3023ZM104.136 70.0223C103.856 70.0223 103.616 69.9223 103.416 69.7223C103.229 69.5357 103.136 69.309 103.136 69.0423C103.136 68.7757 103.229 68.5423 103.416 68.3423C103.616 68.1423 103.856 68.0423 104.136 68.0423C104.402 68.0423 104.629 68.1423 104.816 68.3423C105.016 68.5423 105.116 68.7757 105.116 69.0423C105.116 69.309 105.016 69.5357 104.816 69.7223C104.629 69.9223 104.402 70.0223 104.136 70.0223Z"
    fill="white"
  />
<path
    d="M94.9747 66.3025L95.1747 64.6625C95.8414 64.6625 96.3614 64.6158 96.7347 64.5225C97.1081 64.4158 97.3881 64.2225 97.5747 63.9425C97.7747 63.6491 97.9347 63.2291 98.0547 62.6825C98.1747 62.1358 98.3214 61.4225 98.4947 60.5425L100.055 60.8425C100.001 61.0825 99.9414 61.3491 99.8747 61.6425C99.8081 61.9358 99.7481 62.2291 99.6947 62.5225C99.6547 62.8025 99.6347 63.0491 99.6347 63.2625C99.6347 63.4625 99.6481 63.6491 99.6747 63.8225C99.7014 63.9958 99.8014 64.1425 99.9747 64.2625C100.148 64.3825 100.441 64.4825 100.855 64.5625C101.268 64.6291 101.861 64.6625 102.635 64.6625C102.915 64.6625 103.115 64.7425 103.235 64.9025C103.368 65.0491 103.435 65.2291 103.435 65.4425C103.435 65.6558 103.341 65.8558 103.155 66.0425C102.968 66.2158 102.728 66.3025 102.435 66.3025C101.621 66.3025 100.975 66.2625 100.495 66.1825C100.015 66.0891 99.6481 65.9558 99.3947 65.7825C99.1547 65.6091 98.9814 65.3958 98.8747 65.1425C98.7814 64.8758 98.7081 64.5691 98.6547 64.2225L99.2547 64.2625C99.0414 64.6891 98.8081 65.0358 98.5547 65.3025C98.3147 65.5691 98.0347 65.7758 97.7147 65.9225C97.3947 66.0691 97.0081 66.1691 96.5547 66.2225C96.1147 66.2758 95.5881 66.3025 94.9747 66.3025ZM100.015 70.0825C99.7347 70.0825 99.4947 69.9825 99.2947 69.7825C99.1081 69.5958 99.0147 69.3691 99.0147 69.1025C99.0147 68.8358 99.1081 68.6025 99.2947 68.4025C99.4947 68.2025 99.7347 68.1025 100.015 68.1025C100.281 68.1025 100.508 68.2025 100.695 68.4025C100.895 68.6025 100.995 68.8358 100.995 69.1025C100.995 69.3691 100.895 69.5958 100.695 69.7825C100.508 69.9825 100.281 70.0825 100.015 70.0825ZM97.2747 70.0825C96.9947 70.0825 96.7547 69.9825 96.5547 69.7825C96.3681 69.5958 96.2747 69.3691 96.2747 69.1025C96.2747 68.8358 96.3681 68.6025 96.5547 68.4025C96.7547 68.2025 96.9947 68.1025 97.2747 68.1025C97.5414 68.1025 97.7681 68.2025 97.9547 68.4025C98.1547 68.6025 98.2547 68.8358 98.2547 69.1025C98.2547 69.3691 98.1547 69.5958 97.9547 69.7825C97.7681 69.9825 97.5414 70.0825 97.2747 70.0825Z"
    fill="white"
  />
<path
    d="M95.4082 66.3023C94.6882 66.3023 94.0482 66.2023 93.4882 66.0023C92.9415 65.789 92.5015 65.4356 92.1682 64.9423C91.8482 64.4356 91.6682 63.7356 91.6282 62.8423L91.3082 55.8823H92.9282L93.2482 62.4823C93.2882 63.109 93.4015 63.5823 93.5882 63.9023C93.7749 64.209 94.0349 64.4156 94.3682 64.5223C94.7149 64.6156 95.1282 64.6623 95.6082 64.6623C95.8882 64.6623 96.0882 64.7423 96.2082 64.9023C96.3415 65.049 96.4082 65.229 96.4082 65.4423C96.4082 65.6556 96.3149 65.8556 96.1282 66.0423C95.9415 66.2156 95.7015 66.3023 95.4082 66.3023ZM92.3882 64.1023C91.6282 64.3423 90.8882 64.4623 90.1682 64.4623C89.4482 64.4623 88.7949 64.3556 88.2082 64.1423C87.6215 63.929 87.1549 63.6223 86.8082 63.2223C86.4615 62.809 86.2882 62.3156 86.2882 61.7423C86.2882 61.1823 86.4282 60.6556 86.7082 60.1623C87.0015 59.669 87.3949 59.229 87.8882 58.8423C88.3949 58.4556 88.9749 58.1356 89.6282 57.8823C90.2949 57.6156 91.0015 57.4356 91.7482 57.3423L92.0282 59.0223C91.3615 59.049 90.7682 59.1423 90.2482 59.3023C89.7415 59.449 89.3082 59.6423 88.9482 59.8823C88.6015 60.1223 88.3349 60.3823 88.1482 60.6623C87.9615 60.9423 87.8682 61.2156 87.8682 61.4823C87.8682 61.7756 87.9749 62.0156 88.1882 62.2023C88.4015 62.389 88.6749 62.5356 89.0082 62.6423C89.3415 62.7356 89.7082 62.7956 90.1082 62.8223C90.5082 62.8356 90.8949 62.8223 91.2682 62.7823C91.6415 62.729 91.9615 62.6556 92.2282 62.5623L92.3882 64.1023ZM91.9682 53.5823C91.6882 53.5823 91.4482 53.489 91.2482 53.3023C91.0615 53.1023 90.9682 52.869 90.9682 52.6023C90.9682 52.3356 91.0615 52.1023 91.2482 51.9023C91.4482 51.7023 91.6882 51.6023 91.9682 51.6023C92.2349 51.6023 92.4615 51.7023 92.6482 51.9023C92.8482 52.1023 92.9482 52.3356 92.9482 52.6023C92.9482 52.869 92.8482 53.1023 92.6482 53.3023C92.4615 53.489 92.2349 53.5823 91.9682 53.5823ZM89.2282 53.5823C88.9482 53.5823 88.7082 53.489 88.5082 53.3023C88.3215 53.1023 88.2282 52.869 88.2282 52.6023C88.2282 52.3356 88.3215 52.1023 88.5082 51.9023C88.7082 51.7023 88.9482 51.6023 89.2282 51.6023C89.4949 51.6023 89.7215 51.7023 89.9082 51.9023C90.1082 52.1023 90.2082 52.3356 90.2082 52.6023C90.2082 52.869 90.1082 53.1023 89.9082 53.3023C89.7215 53.489 89.4949 53.5823 89.2282 53.5823Z"
    fill="white"
  />
</svg>
