<svg
  width="290"
  height="72"
  viewBox="0 0 290 72"
  fill="none"
  xmlns="http://www.w3.org/2000/svg"
>
<path
    d="M29.0595 64.8961H84.7641L84.759 28.8354L29.0544 28.8404L29.0595 64.8961Z"
    fill="#003399"
  />
<path
    d="M57.4401 33.3809H59.4717L57.8331 34.645L58.4712 36.6472L56.8429 35.4135L55.2146 36.6472L55.8526 34.645L54.2039 33.3809H56.2303L56.8429 31.4293L57.4401 33.3809Z"
    fill="#FFED00"
  />
<path
    d="M57.5115 59.1574H59.5431L57.9097 60.3759L58.5426 62.3023L56.9143 61.1141L55.286 62.3023L55.9292 60.3759L54.2753 59.1574H56.3018L56.9143 57.2816L57.5115 59.1574Z"
    fill="#FFED00"
  />
<path
    d="M63.9482 57.4535H65.9849L64.3464 58.667L64.9844 60.5934L63.351 59.4052L61.7227 60.5934L62.3659 58.667L60.712 57.4535H62.7385L63.351 55.5726L63.9482 57.4535Z"
    fill="#FFED00"
  />
<path
    d="M63.9482 35.1001H65.9849L64.3464 36.3186L64.9844 38.245L63.351 37.0568L61.7227 38.245L62.3659 36.3186L60.712 35.1001H62.7385L63.351 33.2242L63.9482 35.1001Z"
    fill="#FFED00"
  />
<path
    d="M68.7311 39.8377H70.7575L69.1241 41.0512L69.7571 42.9776L68.1288 41.7894L66.5005 42.9776L67.1436 41.0512L65.4898 39.8377H67.5162L68.1288 37.9568L68.7311 39.8377Z"
    fill="#FFED00"
  />
<path
    d="M68.7311 52.7815H70.7575L69.1241 54.0001L69.7571 55.9265L68.1288 54.7383L66.5005 55.9265L67.1436 54.0001L65.4898 52.7815H67.5162L68.1288 50.9057L68.7311 52.7815Z"
    fill="#FFED00"
  />
<path
    d="M70.5176 46.2085H72.5543L70.9158 47.427L71.5487 49.3534L69.9204 48.1652L68.2921 49.3534L68.9353 47.427L67.2814 46.2085H69.3079L69.9204 44.3326L70.5176 46.2085Z"
    fill="#FFED00"
  />
<path
    d="M50.8809 35.1203H52.9074L51.274 36.3338L51.9069 38.2602L50.2786 37.072L48.6503 38.2602L49.2934 36.3338L47.6447 35.1203H49.6661L50.2786 33.2394L50.8809 35.1203Z"
    fill="#FFED00"
  />
<path
    d="M46.2308 39.8528H48.2674L46.6289 41.0663L47.2619 42.9927L45.6336 41.8045L44.0052 42.9927L44.6484 41.0663L42.9946 39.8528H45.021L45.6336 37.9719L46.2308 39.8528Z"
    fill="#FFED00"
  />
<path
    d="M44.5055 46.2287H46.537L44.9036 47.4422L45.5366 49.3686L43.9083 48.1855L42.28 49.3686L42.9231 47.4422L41.2744 46.2287H43.2957L43.9083 44.3478L44.5055 46.2287Z"
    fill="#FFED00"
  />
<path
    d="M46.2308 52.7967H48.2674L46.6289 54.0152L47.2619 55.9416L45.6336 54.7534L44.0052 55.9416L44.6484 54.0152L42.9946 52.7967H45.021L45.6336 50.9208L46.2308 52.7967Z"
    fill="#FFED00"
  />
<path
    d="M50.9473 57.4686H52.9737L51.3403 58.6821L51.9733 60.6085L50.3449 59.4203L48.7166 60.6085L49.3598 58.6821L47.7111 57.4686H49.7324L50.3449 55.5877L50.9473 57.4686Z"
    fill="#FFED00"
  />
<path
    d="M94.9372 0.00505726C94.9372 0.00505726 106.917 18.9101 109.112 22.3736C111.302 25.8371 113.808 28.5826 122.675 30.4433C131.541 32.304 135.4 33.1837 135.4 33.1837V33.8562C135.4 33.8562 129.765 32.668 122.516 31.0652C115.268 29.4624 112.302 28.9214 109 24.3657C106.249 20.5736 94.9372 3.61517 94.9372 3.61517V0V0.00505726Z"
    fill="white"
  />
<path
    d="M94.9372 21.5949C94.9372 21.5949 105.845 32.9157 109 36.1668C112.348 39.6151 116.631 40.8893 122.573 41.941C128.244 42.9421 135.395 44.1 135.395 44.1V44.7371C135.395 44.7371 128.677 43.6449 122.573 42.6135C116.585 41.5972 112.394 41.0309 108.964 37.9011C105.891 35.1 94.9372 24.9219 94.9372 24.9219V21.5898V21.5949Z"
    fill="white"
  />
<path
    d="M94.9372 26.6966C94.9372 26.6966 105.309 36.2377 109 39.4989C112.394 42.4972 115.146 43.4326 122.608 44.7422C130.071 46.0517 135.395 46.8658 135.395 46.8658V47.5382C135.395 47.5382 128.642 46.441 122.573 45.4804C116.503 44.5247 112.634 44.1455 109 41.2281C104.809 37.8607 94.9372 29.8113 94.9372 29.8113V26.6916V26.6966Z"
    fill="white"
  />
<path
    d="M94.9372 32.1321C94.9372 32.1321 106.785 41.4456 109 43.0737C111.215 44.7018 114.145 46.6029 122.644 47.8214C131.071 49.0298 135.395 49.6265 135.395 49.6265V50.3343C135.395 50.3343 127.754 49.2371 122.644 48.6001C117.535 47.963 113.619 47.69 109.036 44.6664C104.574 41.7237 94.9372 35.004 94.9372 35.004V32.1321Z"
    fill="white"
  />
<path
    d="M94.9372 37.3602C94.9372 37.3602 106.82 45.1973 109.071 46.4411C111.322 47.6798 113.967 49.7023 122.644 50.7995C131.322 51.8967 135.395 52.3922 135.395 52.3922V53.0647C135.395 53.0647 128.218 52.286 122.608 51.6843C117.004 51.0826 113.18 50.2686 109 47.9984C104.819 45.7332 94.9372 40.0096 94.9372 40.0096V37.3602Z"
    fill="white"
  />
<path
    d="M94.9372 42.5882C94.9372 42.5882 105.442 48.2512 109 50.0158C112.966 51.9877 116.396 52.9332 122.608 53.6663C128.708 54.3843 135.395 55.0821 135.395 55.0821V55.7192C135.395 55.7192 129.213 55.0618 122.608 54.445C116.059 53.8281 113.727 53.545 109 51.4669C104.773 49.6062 94.9372 45.0658 94.9372 45.0658V42.5832V42.5882Z"
    fill="white"
  />
<path
    d="M94.9372 47.8871C94.9372 47.8871 103.237 51.4062 109.071 53.7018C114.809 55.9568 119.193 56.1489 122.68 56.5383C124.216 56.7102 135.395 57.8478 135.395 57.8478V58.4849C135.395 58.4849 128.718 57.954 122.644 57.4231C116.57 56.8922 113.951 56.6647 109.036 55.0518C104.059 53.4136 94.9372 50.2636 94.9372 50.2636V47.8922V47.8871Z"
    fill="white"
  />
<path
    d="M94.9372 53.2922C94.9372 53.2922 103.319 55.8658 109.036 57.3523C114.753 58.8388 120 59.4455 122.644 59.6175C125.288 59.7944 135.4 60.6085 135.4 60.6085V61.2102C135.4 61.2102 129.647 60.8208 122.608 60.3253C116.917 59.9259 112.348 59.5012 109 58.768C105.294 57.959 94.9372 55.522 94.9372 55.522V53.2922Z"
    fill="white"
  />
<path
    d="M94.9372 58.6062C94.9372 58.6062 101.792 59.7792 109.036 60.9674C114.467 61.8573 121.822 62.4186 122.608 62.454C123.394 62.4893 135.395 63.3034 135.395 63.3034V63.9405C135.395 63.9405 127.713 63.5461 122.608 63.268C117.29 62.9747 112.001 62.6562 109 62.3478C102.272 61.6551 94.9372 60.7349 94.9372 60.7349V58.6062Z"
    fill="white"
  />
<path
    d="M94.9372 64.1074C94.9372 64.1074 105.748 64.5119 109.036 64.5826C112.323 64.6534 135.395 65.5737 135.395 65.5737V66.1956H94.9372V64.1074Z"
    fill="white"
  />
<path
    d="M122.603 33.3657C112.818 31.2775 110.603 27.7332 108.959 25.5388C107.315 23.3393 94.9321 5.41516 94.9321 5.41516V8.71179C95.4222 9.34382 106.019 23.8348 108.995 27.627C112.348 31.8994 117.601 32.8702 122.603 33.932C127.6 34.9938 135.395 36.4753 135.395 36.4753V35.909C135.395 35.909 125.135 33.9017 122.603 33.3657Z"
    fill="white"
  />
<path
    d="M122.603 36.2023C114.569 34.645 111.317 32.127 108.959 29.0832C106.601 26.0343 94.9321 10.4461 94.9321 10.4461V14.2787C95.4222 14.85 106.096 27.7534 108.959 30.9995C112.297 34.7866 116.958 35.7826 122.603 36.809C128.249 37.8355 135.39 39.1804 135.39 39.1804V38.6141C135.39 38.6141 127.238 37.1023 122.603 36.2074V36.2023Z"
    fill="white"
  />
<path
    d="M122.603 39.1399C114.247 37.5321 112.532 36.2124 108.995 32.3748C106.769 29.963 95.4119 16.6804 94.9321 16.1191V19.6585C94.9321 19.6585 105.544 30.8731 108.959 34.1849C113.436 38.5332 117.637 38.8619 122.603 39.7467C127.57 40.6315 135.39 42.0473 135.39 42.0473V41.4456C135.39 41.4456 125.947 39.7871 122.603 39.145V39.1399Z"
    fill="white"
  />
<path
    d="M0.00510552 27.7787C0.00510552 27.7787 27.6711 24.8562 35.4196 23.7792C47.6702 22.0803 57.6953 20.2702 66.9701 6.18875C66.9701 6.18875 66.9803 5.38987 66.9701 5.03088C61.2889 13.591 53.4536 19.4309 42.6628 21.1247C32.1222 22.7831 0 25.2051 0 25.2051V27.7787H0.00510552Z"
    fill="white"
  />
<path
    d="M0.00511169 24.2849C0.00511169 24.2849 25.6446 21.1045 34.0925 19.9315C47.4559 18.0809 56.8531 16.4174 66.9701 1.05675C66.9701 1.05675 66.9752 0.394392 66.9701 0.00506592C60.7733 9.34384 53.1218 15.3759 41.351 17.2264C29.8507 19.0365 0.00511169 21.6759 0.00511169 21.6759V24.2899V24.2849Z"
    fill="white"
  />
<path d="M26.1806 64.1326H0.020462V66.1854H26.1806V64.1326Z" fill="white" />
<path
    d="M66.9701 22.5708C66.9701 22.5708 66.9854 21.3624 66.9803 21.1045C65.7501 22.9601 64.132 24.6438 62.2638 26.1253H64.0963C65.1274 25.0736 66.0921 23.8955 66.965 22.5708H66.9701Z"
    fill="white"
  />
<path
    d="M66.9701 17.1102C66.9701 17.1102 66.9803 16.0383 66.9752 15.745C64.0095 20.2147 59.5942 23.7843 54.4897 26.1506L57.5014 26.1405C60.9826 24.1332 64.2188 21.2815 66.965 17.1102H66.9701Z"
    fill="white"
  />
<path
    d="M66.9701 11.6494C66.9701 11.6494 66.9803 10.714 66.9701 10.3904C61.8095 18.1719 53.7853 23.4961 43.9746 25.0382C41.6521 25.4023 37.8697 25.8067 33.4748 26.2163L45.4549 26.1758C53.3617 24.4315 60.7631 21.059 66.9599 11.6494H66.9701Z"
    fill="white"
  />
<path
    d="M26.1857 60.6742C12.8377 60.745 0.020462 60.8006 0.020462 60.8006V62.9394C0.020462 62.9394 13.4451 62.8433 26.1857 62.7371V60.6742Z"
    fill="white"
  />
<path
    d="M26.1857 57.0034C12.9295 57.15 0.0153351 57.2613 0.0153351 57.2613V59.4456C0.0153351 59.4456 13.5778 59.2686 26.1857 59.0714V57.0034Z"
    fill="white"
  />
<path
    d="M26.1806 53.3225C13.0214 53.55 0.0153351 53.722 0.0153351 53.722V55.9517C0.0153351 55.9517 13.7207 55.6837 26.1806 55.3905V53.3225Z"
    fill="white"
  />
<path
    d="M26.1857 49.6214C13.1235 49.9399 0.0153351 50.1776 0.0153351 50.1776V52.4478C0.0153351 52.4478 13.879 52.0736 26.1857 51.6843V49.6163V49.6214Z"
    fill="white"
  />
<path
    d="M26.1908 45.9102C13.2256 46.3197 0.0153351 46.6433 0.0153351 46.6433V48.959C0.0153351 48.959 14.0474 48.4736 26.1908 47.9781V45.9152V45.9102Z"
    fill="white"
  />
<path
    d="M26.1857 42.1838C13.3226 42.6995 0.0153351 43.104 0.0153351 43.104V45.4602C0.0153351 45.4602 14.2209 44.8433 26.1857 44.2315V42.1787V42.1838Z"
    fill="white"
  />
<path
    d="M26.1908 38.4321C13.4247 39.059 0.0102234 39.5596 0.0102234 39.5596V41.9613C0.0102234 41.9613 14.4047 41.1978 26.1908 40.4647V38.4321Z"
    fill="white"
  />
<path
    d="M26.1908 34.6602C13.5216 35.4085 0.0102234 36.0203 0.0102234 36.0203V38.4624C0.0102234 38.4624 14.5987 37.5321 26.1908 36.6725V34.6602Z"
    fill="white"
  />
<path
    d="M26.1908 30.868C13.6084 31.7478 0.0102234 32.486 0.0102234 32.486V34.9737C0.0102234 34.9737 14.7926 33.8512 26.1908 32.8602V30.8731V30.868Z"
    fill="white"
  />
<path
    d="M26.1908 27.0405C13.685 28.0669 0.00511169 28.9416 0.00511169 28.9416V31.4697C0.00511169 31.4697 14.9866 30.1247 26.1908 28.9922V27.0405Z"
    fill="white"
  />
<path
    d="M86.0759 66.1905V27.5461H27.7528V66.1905H86.0759ZM84.759 28.8354V64.8961H29.0544V28.8405H84.759V28.8354Z"
    fill="white"
  />
<path d="M229.811 66.0804V27.3139H226.506V66.0804H229.811Z" fill="white" />
<path
    d="M149.607 32.8162C150.552 32.8162 152.115 32.9533 153.135 33.3746C153.445 33.5117 153.562 33.6639 153.501 33.9736L153.328 34.7655C153.272 34.999 153.176 35.0954 152.826 35.0548C151.882 34.9381 150.724 34.8061 149.719 34.8061C147.095 34.8061 146.709 36.9279 146.709 39.4355C146.709 41.9431 147.191 43.9482 149.719 43.9482C150.836 43.9482 151.78 43.8315 152.826 43.6995C153.191 43.6589 153.267 43.7553 153.349 44.0091L153.501 44.7401C153.577 45.0497 153.481 45.2223 153.171 45.3594C152.227 45.7655 150.547 45.9381 149.602 45.9381C145.303 45.9381 144.394 42.7553 144.394 39.4761C144.394 36.1969 145.206 32.8213 149.602 32.8213L149.607 32.8162Z"
    fill="white"
  />
<path
    d="M159.019 45.9128C155.141 45.9128 154.892 43.0803 154.892 40.8773C154.892 39.0651 155.298 36.1158 159.019 36.1158C162.74 36.1158 163.283 38.6032 163.283 40.8773C163.283 43.1514 163.014 45.9128 159.019 45.9128ZM159.039 37.9636C157.399 37.9636 157.034 39.0042 157.034 41.0092C157.034 43.0143 157.399 44.0549 159.019 44.0549C160.775 44.0549 161.12 43.0702 161.12 41.0092C161.12 38.9483 160.79 37.9636 159.039 37.9636Z"
    fill="white"
  />
<path
    d="M178.633 45.7557H177.242C176.973 45.7557 176.877 45.639 176.877 45.3902V39.9131C176.877 38.4867 176.531 38.0806 175.567 38.0806C174.851 38.0806 173.694 38.639 173.1 38.9486C173.1 39.1415 173.12 39.4867 173.12 39.9334V45.3902C173.12 45.6237 173.044 45.7557 172.755 45.7557H171.349C171.1 45.7557 171.019 45.639 171.019 45.3902V39.8166C171.019 38.639 170.709 38.0806 169.745 38.0806C169.07 38.0806 167.988 38.5628 167.257 38.9486V45.3902C167.257 45.6237 167.161 45.7557 166.892 45.7557H165.501C165.252 45.7557 165.156 45.639 165.156 45.3902V36.6897C165.156 36.441 165.252 36.3039 165.501 36.3039H166.872C167.161 36.3039 167.257 36.4562 167.257 36.6897V37.2481L167.278 37.2684C168.029 36.7456 169.09 36.172 170.151 36.1313C171.267 36.1313 172.196 36.3648 172.795 37.4816C173.76 36.7659 174.953 36.1313 176.191 36.1313C178.734 36.1313 178.988 37.7912 178.988 39.7202V45.3902C178.988 45.6237 178.912 45.7557 178.643 45.7557H178.633Z"
    fill="white"
  />
<path
    d="M182.415 34.9182C181.41 34.9182 181.278 34.3598 181.278 33.8014C181.278 33.1821 181.491 32.6999 182.415 32.6999C183.338 32.6999 183.552 33.1415 183.552 33.8014C183.552 34.4004 183.379 34.9182 182.415 34.9182ZM183.44 45.3902C183.44 45.6034 183.364 45.7557 183.095 45.7557H181.724C181.455 45.7557 181.338 45.639 181.338 45.3902V36.6745C181.338 36.4055 181.455 36.309 181.724 36.309H183.095C183.364 36.309 183.44 36.4613 183.44 36.6745V45.3902Z"
    fill="white"
  />
<path
    d="M188.993 45.9128C188.029 45.9128 186.735 45.7757 186.004 45.4864C185.618 45.3341 185.542 45.1565 185.597 44.8519L185.735 44.2174C185.795 43.9077 185.927 43.8874 186.237 43.928C187.085 44.0651 188.318 44.1615 188.978 44.1615C190.212 44.1615 190.714 43.8316 190.714 43.06C190.714 42.1717 190.389 41.9788 189.171 41.8062C187.283 41.5372 185.623 41.1311 185.623 39.0296C185.623 37.1209 187.09 36.1158 189.247 36.1158C190.039 36.1158 191.369 36.2326 192.181 36.5422C192.511 36.6793 192.643 36.8316 192.587 37.1209L192.435 37.8164C192.374 38.0854 192.262 38.126 191.912 38.0854C191.085 37.9889 190.004 37.8722 189.288 37.8722C188.054 37.8722 187.765 38.2174 187.765 38.9534C187.765 39.6895 188.227 39.8011 189.405 39.994C191.237 40.2631 192.897 40.6285 192.897 42.928C192.897 45.2275 190.988 45.9179 188.999 45.9179L188.993 45.9128Z"
    fill="white"
  />
<path
    d="M196.034 34.9182C195.029 34.9182 194.897 34.3598 194.897 33.8014C194.897 33.1821 195.11 32.6999 196.034 32.6999C196.958 32.6999 197.171 33.1415 197.171 33.8014C197.171 34.4004 196.999 34.9182 196.034 34.9182ZM197.059 45.3902C197.059 45.6034 196.983 45.7557 196.714 45.7557H195.344C195.075 45.7557 194.958 45.639 194.958 45.3902V36.6745C194.958 36.4055 195.075 36.309 195.344 36.309H196.714C196.983 36.309 197.059 36.4613 197.059 36.6745V45.3902Z"
    fill="white"
  />
<path
    d="M203.384 45.9126C199.506 45.9126 199.257 43.0801 199.257 40.8771C199.257 39.0649 199.663 36.1157 203.384 36.1157C207.105 36.1157 207.648 38.603 207.648 40.8771C207.648 43.1512 207.379 45.9126 203.384 45.9126ZM203.405 37.9634C201.765 37.9634 201.399 39.004 201.399 41.0091C201.399 43.0141 201.765 44.0547 203.384 44.0547C205.141 44.0547 205.486 43.07 205.486 41.0091C205.486 38.9481 205.156 37.9634 203.405 37.9634ZM205.892 32.0801C206.105 32.1969 206.085 32.3492 205.968 32.5065L204.004 35.207C203.907 35.3441 203.811 35.3999 203.638 35.3238L202.887 34.9786C202.75 34.9025 202.694 34.806 202.79 34.6131L204.333 31.6233C204.43 31.4304 204.582 31.4304 204.76 31.5065L205.897 32.0852L205.892 32.0801Z"
    fill="white"
  />
<path
    d="M217.329 45.7557H215.943C215.694 45.7557 215.577 45.639 215.577 45.3902L215.598 39.9689C215.598 38.8319 215.329 38.0806 214.207 38.0806C213.435 38.0806 212.085 38.6999 211.562 38.9486V45.3902C211.562 45.6237 211.466 45.7557 211.197 45.7557H209.826C209.557 45.7557 209.461 45.639 209.461 45.3902V36.6897C209.461 36.441 209.557 36.3039 209.826 36.3039H211.197C211.466 36.3039 211.562 36.441 211.562 36.6897V37.2684C211.562 37.2684 211.603 37.2887 211.618 37.2887C212.334 36.7862 213.684 36.1313 214.856 36.1313C217.461 36.1313 217.694 37.8471 217.694 39.7963V45.3902C217.694 45.6237 217.618 45.7557 217.329 45.7557Z"
    fill="white"
  />
<path
    d="M144.43 53.6387C144.43 53.39 144.547 53.2529 144.816 53.2529H151.912C152.146 53.2529 152.277 53.39 152.277 53.6184V54.8164C152.277 55.0499 152.181 55.1616 151.892 55.1616H146.628V58.4814H151.293C151.541 58.4814 151.679 58.5981 151.679 58.8265V60.0245C151.679 60.258 151.582 60.3697 151.293 60.3697H146.628V64.1666H152.029C152.262 64.1666 152.374 64.2834 152.374 64.5321V65.7098C152.374 65.9585 152.277 66.055 152.008 66.055H144.816C144.547 66.055 144.43 65.9382 144.43 65.7098V53.6336V53.6387Z"
    fill="white"
  />
<path
    d="M162.095 66.0603H160.724C160.435 66.0603 160.359 65.9232 160.359 65.6948V65.0958L160.318 65.0755C159.567 65.5984 158.252 66.2329 157.08 66.2329C154.476 66.2329 154.227 64.6897 154.227 62.6644V56.9943C154.227 56.7608 154.323 56.6085 154.592 56.6085H155.998C156.247 56.6085 156.344 56.7456 156.344 56.9943V62.4156C156.344 63.573 156.577 64.3039 157.75 64.3039C158.577 64.3039 159.851 63.6847 160.354 63.4359V56.9943C160.354 56.7608 160.43 56.6085 160.719 56.6085H162.09C162.359 56.6085 162.455 56.7456 162.455 56.9943V65.6948C162.455 65.9435 162.359 66.0603 162.09 66.0603H162.095Z"
    fill="white"
  />
<path
    d="M166.999 65.6948C166.999 65.9283 166.902 66.0603 166.633 66.0603H165.247C164.978 66.0603 164.882 65.9436 164.882 65.6948V56.9943C164.882 56.7456 164.978 56.6085 165.247 56.6085H166.618C166.907 56.6085 167.004 56.7608 167.004 56.9943V57.842L167.044 57.8826C167.623 57.3446 168.993 56.6847 169.897 56.5121C170.146 56.4562 170.323 56.5121 170.359 56.842L170.496 58.1364C170.516 58.4055 170.537 58.5222 170.13 58.5984C169.049 58.8116 167.684 59.1974 167.009 59.4867V65.6948H166.999Z"
    fill="white"
  />
<path
    d="M175.486 66.2175C171.608 66.2175 171.359 63.3851 171.359 61.182C171.359 59.3698 171.765 56.4206 175.486 56.4206C179.207 56.4206 179.75 58.9079 179.75 61.182C179.75 63.4561 179.481 66.2175 175.486 66.2175ZM175.506 58.2683C173.866 58.2683 173.501 59.3089 173.501 61.314C173.501 63.3191 173.866 64.3597 175.486 64.3597C177.242 64.3597 177.587 63.3749 177.587 61.314C177.587 59.2531 177.257 58.2683 175.506 58.2683Z"
    fill="white"
  />
<path
    d="M186.13 66.2325C185.496 66.2325 184.608 66.1157 183.719 65.8061L183.699 65.8264V69.2223C183.699 69.4355 183.638 69.6081 183.333 69.6081H181.963C181.653 69.6081 181.597 69.471 181.597 69.2223V56.9939C181.597 56.7451 181.694 56.6081 181.963 56.6081H183.333C183.603 56.6081 183.679 56.7604 183.679 56.9939V57.5726L183.74 57.6132C184.435 57.1309 185.669 56.4558 186.785 56.4558C189.313 56.4558 189.968 58.3644 189.968 61.2781C189.968 64.4203 189.176 66.2325 186.13 66.2325ZM186.288 58.3847C185.496 58.3847 184.283 58.9431 183.704 59.2528V64.0751C184.572 64.3238 185.267 64.405 185.922 64.405C187.308 64.405 187.795 63.6893 187.795 61.2629C187.795 58.8365 187.313 58.3898 186.293 58.3898L186.288 58.3847Z"
    fill="white"
  />
<path
    d="M193.674 61.913C193.734 63.8622 194.425 64.4003 196.009 64.4003C196.704 64.4003 197.785 64.2632 198.516 64.1871C198.861 64.1465 198.978 64.1465 199.039 64.517L199.156 65.1516C199.212 65.4409 199.176 65.5932 198.826 65.7505C198.075 66.0399 196.668 66.2328 195.719 66.2328C192.034 66.2328 191.496 63.8825 191.496 61.3749C191.496 59.5018 191.841 56.4206 195.603 56.4206C199.054 56.4206 199.674 58.6592 199.729 60.7404C199.75 61.4358 199.557 61.9181 198.785 61.9181H193.674V61.913ZM193.694 60.4663H197.511C197.511 59.2886 197.201 58.1516 195.603 58.1516C194.176 58.1516 193.79 59.0196 193.694 60.4663Z"
    fill="white"
  />
<path
    d="M207.445 64.9636C206.481 65.6945 205.186 66.2174 203.897 66.2174C201.851 66.2174 201.257 65.1006 201.257 63.4813C201.237 61.2225 202.455 60.258 204.882 60.258H207.349V59.7555C207.349 58.5981 206.922 58.192 205.343 58.192C204.709 58.192 203.491 58.2885 202.719 58.3646C202.333 58.4204 202.237 58.4052 202.181 58.1311L202.008 57.4154C201.973 57.1666 202.029 57.0093 202.45 56.8367C203.277 56.5473 204.8 56.4103 205.709 56.4103C209.044 56.4103 209.45 57.7808 209.45 59.9382V63.659C209.45 64.4509 209.547 64.4712 210.146 64.5473C210.435 64.5676 210.511 64.6235 210.511 64.8367V65.6489C210.511 65.8621 210.374 65.994 210.049 66.0549C209.739 66.1108 209.435 66.1514 209.14 66.1514C208.232 66.1514 207.673 65.8824 207.481 64.9737L207.44 64.9534L207.445 64.9636ZM207.328 61.7605H204.973C204.008 61.7605 203.389 62.1057 203.389 63.3798C203.389 64.2275 203.678 64.4966 204.587 64.4966C205.415 64.4966 206.592 64.0143 207.328 63.5879V61.7555V61.7605Z"
    fill="white"
  />
</svg>
