<svg
  width="138"
  height="44"
  viewBox="0 0 138 44"
  fill="none"
  xmlns="http://www.w3.org/2000/svg"
>
<rect x="0.878357" y="0.879883" width="63.2432" height="42.24" fill="#003399" />
<path
    fill-rule="evenodd"
    clip-rule="evenodd"
    d="M30.3392 7.74391L31.6743 8.72071L31.1649 10.3135L32.5 9.32791L33.8352 10.3135L33.3257 8.72071L34.6608 7.74391H33.0095L32.5 6.15991L31.9906 7.74391H30.3392ZM33.8352 37.8399L33.3257 36.2559L34.6608 35.2791H33.0095L32.5 33.6863L31.9906 35.2791H30.3392L31.6743 36.2559L31.1649 37.8399L32.5 36.8631L33.8352 37.8399ZM18.85 23.0559L17.5149 24.0415L18.0243 22.4575L16.6892 21.5071H18.3406L18.85 19.9231L19.3595 21.5071H21.0196L19.6757 22.4927L20.1852 24.0767L18.85 23.0911V23.0559ZM27.0102 12.1439L26.5007 10.5599L27.8358 9.59191H26.1845L25.675 8.00791L25.1656 9.59191H23.5142L24.8493 10.5687L24.3399 12.1527L25.675 11.1759L27.0102 12.1439ZM20.2027 14.6255L20.7122 13.0415L21.2304 14.6255H22.8379L21.5027 15.6111L22.0122 17.1951L20.6683 16.2095L19.3243 17.1951L19.8338 15.6111L18.4987 14.6255H20.2027ZM20.7122 26.8047L20.2027 28.3887H18.5162H18.4987L19.8338 29.3743L19.3243 30.9583L20.6683 29.9815L22.0122 30.9583L21.5027 29.3743L22.8379 28.3887H21.2304L20.7122 26.8047ZM24.8493 34.4079L23.5142 33.4399H25.1656L25.675 31.8559L26.1845 33.4399H27.8358L26.5007 34.4079L27.0102 35.9919L25.675 35.0151L24.3399 35.9919L24.8493 34.4079ZM47.4852 24.0767L46.9757 22.4927L48.3108 21.5071H46.6946L46.1852 19.9231L45.6757 21.5071H43.9629L45.3068 22.4927L44.7973 24.0767L46.15 23.0911L47.4852 24.0767ZM38.4993 10.5599L37.1642 9.59191H38.8156L39.325 8.00791L39.8345 9.59191H41.4858L40.1507 10.5599L40.6602 12.1439L39.325 11.1759L37.9899 12.1527L38.4993 10.5687V10.5599ZM44.2879 13.0327L43.7696 14.6167L42.1622 14.6255L43.4885 15.6111L42.9791 17.1951L44.323 16.2095L45.6581 17.1951L45.1487 15.6111L46.4487 14.6167H44.7973L44.2879 13.0327ZM44.8412 28.3887H46.4487L45.1487 29.3743L45.6581 30.9583L44.323 29.9815L42.9791 30.9583L43.4885 29.3743L42.1622 28.3887H43.8135L44.3318 26.8047L44.8412 28.3887ZM40.1507 34.4079L41.4858 33.4399H39.8345L39.325 31.8559L38.8156 33.4399H37.1642L38.4993 34.4079L37.9899 35.9919L39.325 35.0151L40.6602 35.9919L40.1507 34.4079Z"
    fill="#FFCC00"
  />
<path
    fill-rule="evenodd"
    clip-rule="evenodd"
    d="M65 44H0V0H65V44ZM64.1216 0.88H0.878378V43.12H64.1216V0.88Z"
    fill="white"
  />
<path
    d="M106.04 38H98.8076L95.9326 30.5205H82.7705L80.0527 38H73L85.8252 5.07227H92.8555L106.04 38ZM93.7988 24.9727L89.2617 12.7539L84.8145 24.9727H93.7988Z"
    fill="white"
  />
<path
    d="M109.611 5.07227H122.773C125.379 5.07227 127.318 5.18457 128.591 5.40918C129.879 5.61882 131.024 6.06803 132.027 6.75684C133.046 7.44564 133.892 8.36654 134.565 9.51953C135.239 10.6576 135.576 11.9378 135.576 13.3604C135.576 14.9027 135.157 16.3177 134.318 17.6055C133.495 18.8932 132.372 19.859 130.949 20.5029C132.956 21.0869 134.498 22.0827 135.576 23.4902C136.654 24.8978 137.193 26.5524 137.193 28.4541C137.193 29.9515 136.841 31.4115 136.138 32.834C135.449 34.2415 134.498 35.3721 133.285 36.2256C132.087 37.0641 130.605 37.5807 128.838 37.7754C127.73 37.8952 125.057 37.9701 120.819 38H109.611V5.07227ZM116.26 10.5527V18.167H120.617C123.208 18.167 124.817 18.1296 125.446 18.0547C126.584 17.9199 127.475 17.5306 128.119 16.8867C128.778 16.2279 129.107 15.3669 129.107 14.3037C129.107 13.2855 128.823 12.4619 128.254 11.833C127.7 11.1891 126.869 10.7998 125.761 10.665C125.102 10.5902 123.208 10.5527 120.078 10.5527H116.26ZM116.26 23.6475V32.4521H122.414C124.81 32.4521 126.33 32.3848 126.974 32.25C127.962 32.0703 128.763 31.6361 129.377 30.9473C130.006 30.2435 130.32 29.3076 130.32 28.1396C130.32 27.1514 130.081 26.3128 129.602 25.624C129.122 24.9352 128.426 24.4336 127.513 24.1191C126.614 23.8047 124.653 23.6475 121.628 23.6475H116.26Z"
    fill="white"
  />
</svg>
