<svg
  width="131"
  height="44"
  viewBox="0 0 131 44"
  fill="none"
  xmlns="http://www.w3.org/2000/svg"
>
<g id="EU_emblem_condensed _neg_LB">
<g id="EU_emblem_LB">
<g id="Group 44">
<g id="EU">
<path
            d="M74 38.1517V6H97.8396V11.439H80.4918V18.5668H96.6334V23.9839H80.4918V32.7346H98.4537V38.1517H74Z"
            fill="white"
          />
<path
            d="M103.915 6H110.406V23.4137C110.406 26.1771 110.487 27.9681 110.648 28.7869C110.925 30.1028 111.583 31.1628 112.622 31.967C113.674 32.7565 115.107 33.1513 116.92 33.1513C118.762 33.1513 120.151 32.7785 121.087 32.0328C122.023 31.2725 122.586 30.3441 122.776 29.2475C122.966 28.1509 123.061 26.3306 123.061 23.7865V6H129.553V22.8873C129.553 26.7473 129.377 29.4741 129.026 31.0678C128.675 32.6615 128.025 34.0066 127.074 35.1032C126.139 36.1998 124.881 37.0771 123.302 37.735C121.723 38.3783 119.662 38.7 117.118 38.7C114.047 38.7 111.715 38.3491 110.121 37.6473C108.542 36.9309 107.292 36.0097 106.371 34.8839C105.45 33.7435 104.843 32.5518 104.551 31.3091C104.127 29.4668 103.915 26.7473 103.915 23.1505V6Z"
            fill="white"
          />
</g>
</g>
<g id="Flag">
<g id="EU/EU-emblem/flag/flag-negative">
<rect
            id="&#240;&#159;&#140;&#136; flag"
            x="0.891907"
            y="0.879883"
            width="64.2162"
            height="42.24"
            fill="#003399"
          />
<path
            id="&#240;&#159;&#140;&#136; stars"
            fill-rule="evenodd"
            clip-rule="evenodd"
            d="M30.8059 7.74416L32.1616 8.72096L31.6443 10.3138L33 9.32816L34.3556 10.3138L33.8384 8.72096L35.194 7.74416H33.5173L33 6.16016L32.4827 7.74416H30.8059ZM34.3556 37.8402L33.8384 36.2562L35.194 35.2794H33.5173L33 33.6866L32.4827 35.2794H30.8059L32.1616 36.2562L31.6443 37.8402L33 36.8634L34.3556 37.8402ZM19.14 23.0562L17.7843 24.0418L18.3016 22.4578L16.9459 21.5074H18.6227L19.14 19.9234L19.6573 21.5074H21.343L19.9784 22.493L20.4957 24.077L19.14 23.0914V23.0562ZM27.4257 12.1442L26.9084 10.5602L28.264 9.59216H26.5873L26.07 8.00816L25.5527 9.59216H23.8759L25.2316 10.569L24.7143 12.153L26.07 11.1762L27.4257 12.1442ZM20.5135 14.6258L21.0308 13.0418L21.557 14.6258H23.1892L21.8335 15.6114L22.3508 17.1954L20.9862 16.2098L19.6216 17.1954L20.1389 15.6114L18.7832 14.6258H20.5135ZM20.5135 28.389H18.8011H18.7832L20.1389 29.3746L19.6216 30.9586L20.9862 29.9818L22.3508 30.9586L21.8335 29.3746L23.1892 28.389H21.557L21.0308 26.805L20.5135 28.389ZM25.2316 34.4082L23.8759 33.4402H25.5527L26.07 31.8562L26.5873 33.4402H28.264L26.9084 34.4082L27.4257 35.9922L26.07 35.0154L24.7143 35.9922L25.2316 34.4082ZM48.2157 24.077L47.6984 22.493L49.054 21.5074H47.4129L46.8957 19.9234L46.3784 21.5074H44.6392L46.0038 22.493L45.4865 24.077L46.86 23.0914L48.2157 24.077ZM39.0916 10.5602L37.7359 9.59216H39.4127L39.93 8.00816L40.4473 9.59216H42.124L40.7684 10.5602L41.2857 12.1442L39.93 11.1762L38.5743 12.153L39.0916 10.569V10.5602ZM44.9692 13.033L44.4429 14.617L42.8108 14.6258L44.1575 15.6114L43.6402 17.1954L45.0048 16.2098L46.3605 17.1954L45.8432 15.6114L47.1632 14.617H45.4865L44.9692 13.033ZM45.5311 28.389H47.1632L45.8432 29.3746L46.3605 30.9586L45.0048 29.9818L43.6402 30.9586L44.1575 29.3746L42.8108 28.389H44.4875L45.0138 26.805L45.5311 28.389ZM40.7684 34.4082L42.124 33.4402H40.4473L39.93 31.8562L39.4127 33.4402H37.7359L39.0916 34.4082L38.5743 35.9922L39.93 35.0154L41.2857 35.9922L40.7684 34.4082Z"
            fill="#FFCC00"
          />
<path
            id="&#240;&#159;&#140;&#136; outline"
            fill-rule="evenodd"
            clip-rule="evenodd"
            d="M66 44H0V0H66V44ZM65.1081 0.88H0.891892V43.12H65.1081V0.88Z"
            fill="white"
          />
</g>
</g>
</g>
</g>
</svg>
