<svg
  width="131"
  height="44"
  viewBox="0 0 131 44"
  fill="none"
  xmlns="http://www.w3.org/2000/svg"
>
<path
    fill-rule="evenodd"
    clip-rule="evenodd"
    d="M74.871 37.1314V5.86304H98.1232V11.1526H81.2038V18.0843H96.9474V23.353H81.2038V31.8636H98.7233V37.1314H74.871Z"
    fill="white"
  />
<path
    fill-rule="evenodd"
    clip-rule="evenodd"
    d="M101.83 26.9575L107.99 26.36C108.361 28.4225 109.114 29.9362 110.248 30.9027C111.382 31.8701 112.911 32.3538 114.836 32.3538C116.875 32.3538 118.412 31.924 119.446 31.0634C120.48 30.2028 120.997 29.1971 120.997 28.0447C120.997 27.3057 120.78 26.677 120.344 26.1577C119.91 25.6383 119.15 25.1868 118.067 24.8038C117.325 24.5476 115.635 24.0926 112.996 23.4378C109.603 22.5989 107.22 21.5681 105.851 20.3453C103.926 18.625 102.964 16.5277 102.964 14.0536C102.964 12.4609 103.416 10.9716 104.322 9.58559C105.228 8.19872 106.532 7.14272 108.237 6.41759C109.941 5.69245 111.999 5.33032 114.408 5.33032C118.344 5.33032 121.307 6.19006 123.296 7.9104C125.286 9.63161 126.33 11.9277 126.431 14.7996L120.099 15.0775C119.828 13.4709 119.246 12.315 118.355 11.6116C117.463 10.9073 116.127 10.5556 114.344 10.5556C112.505 10.5556 111.064 10.9325 110.023 11.6863C109.353 12.1691 109.018 12.8161 109.018 13.6263C109.018 14.3662 109.331 14.9993 109.959 15.5247C110.757 16.1934 112.697 16.8899 115.778 17.6159C118.857 18.341 121.136 19.0905 122.611 19.8651C124.089 20.6406 125.243 21.7001 126.078 23.0435C126.911 24.3878 127.329 26.0474 127.329 28.0239C127.329 29.8155 126.829 31.4932 125.831 33.0573C124.833 34.6222 123.421 35.7841 121.596 36.5448C119.77 37.3056 117.495 37.686 114.772 37.686C110.807 37.686 107.763 36.7724 105.638 34.9452C103.513 33.1181 102.244 30.4555 101.83 26.9575Z"
    fill="white"
  />
<rect x="0.878418" y="0.879883" width="63.2432" height="42.24" fill="#003399" />
<path
    fill-rule="evenodd"
    clip-rule="evenodd"
    d="M30.3392 7.74391L31.6743 8.72071L31.1649 10.3135L32.5 9.32791L33.8352 10.3135L33.3257 8.72071L34.6608 7.74391H33.0095L32.5 6.15991L31.9906 7.74391H30.3392ZM33.8352 37.8399L33.3257 36.2559L34.6608 35.2791H33.0095L32.5 33.6863L31.9906 35.2791H30.3392L31.6743 36.2559L31.1649 37.8399L32.5 36.8631L33.8352 37.8399ZM18.85 23.0559L17.5149 24.0415L18.0243 22.4575L16.6892 21.5071H18.3406L18.85 19.9231L19.3595 21.5071H21.0196L19.6757 22.4927L20.1852 24.0767L18.85 23.0911V23.0559ZM27.0102 12.1439L26.5007 10.5599L27.8358 9.59191H26.1845L25.675 8.00791L25.1656 9.59191H23.5142L24.8493 10.5687L24.3399 12.1527L25.675 11.1759L27.0102 12.1439ZM20.2027 14.6255L20.7122 13.0415L21.2304 14.6255H22.8379L21.5027 15.6111L22.0122 17.1951L20.6683 16.2095L19.3243 17.1951L19.8338 15.6111L18.4987 14.6255H20.2027ZM20.7122 26.8047L20.2027 28.3887H18.5162H18.4987L19.8338 29.3743L19.3243 30.9583L20.6683 29.9815L22.0122 30.9583L21.5027 29.3743L22.8379 28.3887H21.2304L20.7122 26.8047ZM24.8493 34.4079L23.5142 33.4399H25.1656L25.675 31.8559L26.1845 33.4399H27.8358L26.5007 34.4079L27.0102 35.9919L25.675 35.0151L24.3399 35.9919L24.8493 34.4079ZM47.4852 24.0767L46.9757 22.4927L48.3108 21.5071H46.6946L46.1852 19.9231L45.6757 21.5071H43.9629L45.3068 22.4927L44.7973 24.0767L46.15 23.0911L47.4852 24.0767ZM38.4993 10.5599L37.1642 9.59191H38.8156L39.325 8.00791L39.8345 9.59191H41.4858L40.1507 10.5599L40.6602 12.1439L39.325 11.1759L37.9899 12.1527L38.4993 10.5687V10.5599ZM44.2879 13.0327L43.7696 14.6167L42.1622 14.6255L43.4885 15.6111L42.9791 17.1951L44.323 16.2095L45.6581 17.1951L45.1487 15.6111L46.4487 14.6167H44.7973L44.2879 13.0327ZM44.8412 28.3887H46.4487L45.1487 29.3743L45.6581 30.9583L44.323 29.9815L42.9791 30.9583L43.4885 29.3743L42.1622 28.3887H43.8135L44.3318 26.8047L44.8412 28.3887ZM40.1507 34.4079L41.4858 33.4399H39.8345L39.325 31.8559L38.8156 33.4399H37.1642L38.4993 34.4079L37.9899 35.9919L39.325 35.0151L40.6602 35.9919L40.1507 34.4079Z"
    fill="#FFCC00"
  />
<path
    fill-rule="evenodd"
    clip-rule="evenodd"
    d="M65 44H0V0H65V44ZM64.1216 0.88H0.878378V43.12H64.1216V0.88Z"
    fill="white"
  />
</svg>
