<svg
  width="127"
  height="44"
  viewBox="0 0 127 44"
  fill="none"
  xmlns="http://www.w3.org/2000/svg"
>
<path
    fill-rule="evenodd"
    clip-rule="evenodd"
    d="M0 37.7568V5.64868H23.2087V11.0803H6.32096V18.1982H22.0351V23.6084H6.32096V32.3475H23.8077V37.7568H0Z"
    fill="white"
  />
<path
    fill-rule="evenodd"
    clip-rule="evenodd"
    d="M28.4531 5.64868H34.7756V23.0636C34.7756 25.8276 34.853 27.619 35.0104 28.4379C35.2809 29.7533 35.9253 30.8098 36.9437 31.6063C37.9621 32.4038 39.3536 32.8021 41.119 32.8021C42.914 32.8021 44.2663 32.4261 45.1777 31.6724C46.0883 30.9196 46.637 29.9944 46.8223 28.8978C47.0075 27.8011 47.0997 25.9812 47.0997 23.4369V5.64868H53.4222V22.5376C53.4222 26.3973 53.2517 29.1246 52.9099 30.7187C52.5682 32.3118 51.9377 33.6576 51.0193 34.7543C50.1018 35.8509 48.8721 36.7243 47.3354 37.3753C45.7969 38.0254 43.7897 38.3514 41.3112 38.3514C38.3213 38.3514 36.0532 37.9969 34.5086 37.2878C32.9641 36.5787 31.7422 35.6571 30.8456 34.5239C29.949 33.3906 29.3576 32.2029 29.0723 30.9598C28.6592 29.1175 28.4531 26.3973 28.4531 22.8011V5.64868Z"
    fill="white"
  />
<rect x="62.3005" y="0.879883" width="63.2432" height="42.24" fill="#003399" />
<path
    fill-rule="evenodd"
    clip-rule="evenodd"
    d="M91.7613 7.74416L93.0965 8.72096L92.587 10.3138L93.9221 9.32816L95.2573 10.3138L94.7478 8.72096L96.083 7.74416H94.4316L93.9221 6.16016L93.4127 7.74416H91.7613ZM95.2573 37.8401L94.7478 36.2561L96.083 35.2793H94.4316L93.9221 33.6865L93.4127 35.2793H91.7613L93.0965 36.2561L92.587 37.8401L93.9221 36.8633L95.2573 37.8401ZM80.2721 23.0566L78.937 24.0422L79.4465 22.4582L78.1113 21.5078H79.7627L80.2721 19.9238L80.7816 21.5078H82.4417L81.0978 22.4934L81.6073 24.0774L80.2721 23.0918V23.0566ZM88.4323 12.1438L87.9228 10.5598L89.2579 9.59181H87.6066L87.0971 8.00781L86.5877 9.59181H84.9363L86.2715 10.5686L85.762 12.1526L87.0971 11.1758L88.4323 12.1438ZM81.6248 14.626L82.1343 13.042L82.6525 14.626H84.26L82.9248 15.6116L83.4343 17.1956L82.0904 16.21L80.7465 17.1956L81.2559 15.6116L79.9208 14.626H81.6248ZM81.6248 28.3887H79.9384H79.9208L81.2559 29.3743L80.7465 30.9583L82.0904 29.9815L83.4343 30.9583L82.9248 29.3743L84.26 28.3887H82.6525L82.1343 26.8047L81.6248 28.3887ZM86.2715 34.4084L84.9363 33.4404H86.5877L87.0971 31.8564L87.6066 33.4404H89.2579L87.9228 34.4084L88.4323 35.9924L87.0971 35.0156L85.762 35.9924L86.2715 34.4084ZM108.907 24.0774L108.398 22.4934L109.733 21.5078H108.117L107.607 19.9238L107.098 21.5078H105.385L106.729 22.4934L106.219 24.0774L107.572 23.0918L108.907 24.0774ZM99.9215 10.5598L98.5863 9.59181H100.238L100.747 8.00781L101.257 9.59181H102.908L101.573 10.5598L102.082 12.1438L100.747 11.1758L99.412 12.1526L99.9215 10.5686V10.5598ZM105.71 13.0332L105.192 14.6172L103.584 14.626L104.911 15.6116L104.401 17.1956L105.745 16.21L107.08 17.1956L106.571 15.6116L107.871 14.6172H106.219L105.71 13.0332ZM106.263 28.3887H107.871L106.571 29.3743L107.08 30.9583L105.745 29.9815L104.401 30.9583L104.911 29.3743L103.584 28.3887H105.236L105.754 26.8047L106.263 28.3887ZM101.573 34.4084L102.908 33.4404H101.257L100.747 31.8564L100.238 33.4404H98.5863L99.9215 34.4084L99.412 35.9924L100.747 35.0156L102.082 35.9924L101.573 34.4084Z"
    fill="#FFCC00"
  />
<path
    fill-rule="evenodd"
    clip-rule="evenodd"
    d="M126.422 44H61.4221V0H126.422V44ZM125.544 0.879883H62.3005V43.1199H125.544V0.879883Z"
    fill="white"
  />
</svg>
