<svg
  width="132"
  height="44"
  viewBox="0 0 132 44"
  fill="none"
  xmlns="http://www.w3.org/2000/svg"
>
<g id="EU_emblem_condensed _neg_JP">
<g id="Group 44">
<g id="EU">
<path
          d="M75.4785 38.1517V6H99.3182V11.439H81.9703V18.5668H98.1119V23.9839H81.9703V32.7346H99.9322V38.1517H75.4785Z"
          fill="white"
        />
<path
          d="M105.393 6H111.885V23.4137C111.885 26.1771 111.965 27.9681 112.126 28.7869C112.404 30.1028 113.062 31.1628 114.1 31.967C115.153 32.7565 116.586 33.1513 118.399 33.1513C120.241 33.1513 121.63 32.7785 122.566 32.0328C123.501 31.2725 124.064 30.3441 124.254 29.2475C124.444 28.1509 124.539 26.3306 124.539 23.7865V6H131.031V22.8873C131.031 26.7473 130.856 29.4741 130.505 31.0678C130.154 32.6615 129.503 34.0066 128.553 35.1032C127.617 36.1998 126.36 37.0771 124.781 37.735C123.202 38.3783 121.14 38.7 118.596 38.7C115.526 38.7 113.194 38.3491 111.6 37.6473C110.021 36.9309 108.771 36.0097 107.85 34.8839C106.928 33.7435 106.322 32.5518 106.029 31.3091C105.605 29.4668 105.393 26.7473 105.393 23.1505V6Z"
          fill="white"
        />
</g>
</g>
<g id="Flag">
<g id="EU/EU-emblem/flag/flag-negative">
<rect
          id="&#240;&#159;&#140;&#136; flag"
          x="0.911865"
          y="0.879883"
          width="65.6539"
          height="42.24"
          fill="#003399"
        />
<path
          id="&#240;&#159;&#140;&#136; stars"
          fill-rule="evenodd"
          clip-rule="evenodd"
          d="M31.4956 7.74416L32.8816 8.72096L32.3528 10.3138L33.7388 9.32816L35.1248 10.3138L34.5959 8.72096L35.982 7.74416H34.2677L33.7388 6.16016L33.2099 7.74416H31.4956ZM35.1248 37.8402L34.5959 36.2562L35.982 35.2794H34.2677L33.7388 33.6866L33.2099 35.2794H31.4956L32.8816 36.2562L32.3528 37.8402L33.7388 36.8634L35.1248 37.8402ZM19.5685 23.0562L18.1825 24.0418L18.7113 22.4578L17.3253 21.5074H19.0396L19.5685 19.9234L20.0974 21.5074H21.8208L20.4256 22.493L20.9545 24.077L19.5685 23.0914V23.0562ZM28.0397 12.1442L27.5108 10.5602L28.8968 9.59216H27.1825L26.6536 8.00816L26.1248 9.59216H24.4105L25.7965 10.569L25.2676 12.153L26.6536 11.1762L28.0397 12.1442ZM20.9728 14.6258L21.5016 13.0418L22.0396 14.6258H23.7083L22.3223 15.6114L22.8512 17.1954L21.456 16.2098L20.0609 17.1954L20.5898 15.6114L19.2037 14.6258H20.9728ZM20.9728 28.389H19.222H19.2037L20.5898 29.3746L20.0609 30.9586L21.456 29.9818L22.8512 30.9586L22.3223 29.3746L23.7083 28.389H22.0396L21.5016 26.805L20.9728 28.389ZM25.7965 34.4082L24.4105 33.4402H26.1248L26.6536 31.8562L27.1825 33.4402H28.8968L27.5108 34.4082L28.0397 35.9922L26.6536 35.0154L25.2676 35.9922L25.7965 34.4082ZM49.2951 24.077L48.7662 22.493L50.1523 21.5074H48.4744L47.9456 19.9234L47.4167 21.5074H45.6386L47.0337 22.493L46.5048 24.077L47.9091 23.0914L49.2951 24.077ZM39.9668 10.5602L38.5808 9.59216H40.2951L40.8239 8.00816L41.3528 9.59216H43.0671L41.6811 10.5602L42.21 12.1442L40.8239 11.1762L39.4379 12.153L39.9668 10.569V10.5602ZM45.9759 13.033L45.438 14.617L43.7692 14.6258L45.1462 15.6114L44.6173 17.1954L46.0124 16.2098L47.3984 17.1954L46.8696 15.6114L48.2191 14.617H46.5048L45.9759 13.033ZM46.5504 28.389H48.2191L46.8696 29.3746L47.3984 30.9586L46.0124 29.9818L44.6173 30.9586L45.1462 29.3746L43.7692 28.389H45.4835L46.0215 26.805L46.5504 28.389ZM41.6811 34.4082L43.0671 33.4402H41.3528L40.8239 31.8562L40.2951 33.4402H38.5808L39.9668 34.4082L39.4379 35.9922L40.8239 35.0154L42.21 35.9922L41.6811 34.4082Z"
          fill="#FFCC00"
        />
<path
          id="&#240;&#159;&#140;&#136; outline"
          fill-rule="evenodd"
          clip-rule="evenodd"
          d="M67.4776 44H0V0H67.4776V44ZM66.5658 0.88H0.91186V43.12H66.5658V0.88Z"
          fill="white"
        />
</g>
</g>
</g>
</svg>
