<svg
  width="138"
  height="44"
  viewBox="0 0 138 44"
  fill="none"
  xmlns="http://www.w3.org/2000/svg"
>
<rect x="0.878418" y="0.879883" width="63.2432" height="42.24" fill="#003399" />
<path
    fill-rule="evenodd"
    clip-rule="evenodd"
    d="M30.3392 7.74391L31.6743 8.72071L31.1649 10.3135L32.5 9.32791L33.8352 10.3135L33.3257 8.72071L34.6608 7.74391H33.0095L32.5 6.15991L31.9906 7.74391H30.3392ZM33.8352 37.8399L33.3257 36.2559L34.6608 35.2791H33.0095L32.5 33.6863L31.9906 35.2791H30.3392L31.6743 36.2559L31.1649 37.8399L32.5 36.8631L33.8352 37.8399ZM18.85 23.0559L17.5149 24.0415L18.0243 22.4575L16.6892 21.5071H18.3406L18.85 19.9231L19.3595 21.5071H21.0196L19.6757 22.4927L20.1852 24.0767L18.85 23.0911V23.0559ZM27.0102 12.1439L26.5007 10.5599L27.8358 9.59191H26.1845L25.675 8.00791L25.1656 9.59191H23.5142L24.8493 10.5687L24.3399 12.1527L25.675 11.1759L27.0102 12.1439ZM20.2027 14.6255L20.7122 13.0415L21.2304 14.6255H22.8379L21.5027 15.6111L22.0122 17.1951L20.6683 16.2095L19.3243 17.1951L19.8338 15.6111L18.4987 14.6255H20.2027ZM20.7122 26.8047L20.2027 28.3887H18.5162H18.4987L19.8338 29.3743L19.3243 30.9583L20.6683 29.9815L22.0122 30.9583L21.5027 29.3743L22.8379 28.3887H21.2304L20.7122 26.8047ZM24.8493 34.4079L23.5142 33.4399H25.1656L25.675 31.8559L26.1845 33.4399H27.8358L26.5007 34.4079L27.0102 35.9919L25.675 35.0151L24.3399 35.9919L24.8493 34.4079ZM47.4852 24.0767L46.9757 22.4927L48.3108 21.5071H46.6946L46.1852 19.9231L45.6757 21.5071H43.9629L45.3068 22.4927L44.7973 24.0767L46.15 23.0911L47.4852 24.0767ZM38.4993 10.5599L37.1642 9.59191H38.8156L39.325 8.00791L39.8345 9.59191H41.4858L40.1507 10.5599L40.6602 12.1439L39.325 11.1759L37.9899 12.1527L38.4993 10.5687V10.5599ZM44.2879 13.0327L43.7696 14.6167L42.1622 14.6255L43.4885 15.6111L42.9791 17.1951L44.323 16.2095L45.6581 17.1951L45.1487 15.6111L46.4487 14.6167H44.7973L44.2879 13.0327ZM44.8412 28.3887H46.4487L45.1487 29.3743L45.6581 30.9583L44.323 29.9815L42.9791 30.9583L43.4885 29.3743L42.1622 28.3887H43.8135L44.3318 26.8047L44.8412 28.3887ZM40.1507 34.4079L41.4858 33.4399H39.8345L39.325 31.8559L38.8156 33.4399H37.1642L38.4993 34.4079L37.9899 35.9919L39.325 35.0151L40.6602 35.9919L40.1507 34.4079Z"
    fill="#FFCC00"
  />
<path
    fill-rule="evenodd"
    clip-rule="evenodd"
    d="M65 44H0V0H65V44ZM64.1216 0.88H0.878378V43.12H64.1216V0.88Z"
    fill="white"
  />
<path
    d="M75.3281 34V11.0938H92.3125V14.9688H79.9531V20.0469H91.4531V23.9062H79.9531V30.1406H92.75V34H75.3281Z"
    fill="white"
  />
<path
    d="M95.5 26.5469L100 26.1094C100.271 27.6198 100.818 28.7292 101.641 29.4375C102.474 30.1458 103.594 30.5 105 30.5C106.49 30.5 107.609 30.1875 108.359 29.5625C109.12 28.9271 109.5 28.1875 109.5 27.3438C109.5 26.8021 109.339 26.3438 109.016 25.9688C108.703 25.5833 108.151 25.25 107.359 24.9688C106.818 24.7812 105.583 24.4479 103.656 23.9688C101.177 23.3542 99.4375 22.599 98.4375 21.7031C97.0312 20.4427 96.3281 18.9062 96.3281 17.0938C96.3281 15.9271 96.6562 14.8385 97.3125 13.8281C97.9792 12.8073 98.9323 12.0312 100.172 11.5C101.422 10.9688 102.927 10.7031 104.688 10.7031C107.562 10.7031 109.724 11.3333 111.172 12.5938C112.63 13.8542 113.396 15.5365 113.469 17.6406L108.844 17.8438C108.646 16.6667 108.219 15.8229 107.562 15.3125C106.917 14.7917 105.943 14.5312 104.641 14.5312C103.297 14.5312 102.245 14.8073 101.484 15.3594C100.995 15.7135 100.75 16.1875 100.75 16.7812C100.75 17.3229 100.979 17.7865 101.438 18.1719C102.021 18.6615 103.438 19.1719 105.688 19.7031C107.938 20.2344 109.599 20.7865 110.672 21.3594C111.755 21.9219 112.599 22.6979 113.203 23.6875C113.818 24.6667 114.125 25.8802 114.125 27.3281C114.125 28.6406 113.76 29.8698 113.031 31.0156C112.302 32.1615 111.271 33.0156 109.938 33.5781C108.604 34.1302 106.943 34.4062 104.953 34.4062C102.057 34.4062 99.8333 33.7396 98.2812 32.4062C96.7292 31.0625 95.8021 29.1094 95.5 26.5469Z"
    fill="white"
  />
<path
    d="M118.031 11.0938H127.188C129 11.0938 130.349 11.1719 131.234 11.3281C132.13 11.474 132.927 11.7865 133.625 12.2656C134.333 12.7448 134.922 13.3854 135.391 14.1875C135.859 14.9792 136.094 15.8698 136.094 16.8594C136.094 17.9323 135.802 18.9167 135.219 19.8125C134.646 20.7083 133.865 21.3802 132.875 21.8281C134.271 22.2344 135.344 22.9271 136.094 23.9062C136.844 24.8854 137.219 26.0365 137.219 27.3594C137.219 28.401 136.974 29.4167 136.484 30.4062C136.005 31.3854 135.344 32.1719 134.5 32.7656C133.667 33.349 132.635 33.7083 131.406 33.8438C130.635 33.9271 128.776 33.9792 125.828 34H118.031V11.0938ZM122.656 14.9062V20.2031H125.688C127.49 20.2031 128.609 20.1771 129.047 20.125C129.839 20.0312 130.458 19.7604 130.906 19.3125C131.365 18.8542 131.594 18.2552 131.594 17.5156C131.594 16.8073 131.396 16.2344 131 15.7969C130.615 15.349 130.036 15.0781 129.266 14.9844C128.807 14.9323 127.49 14.9062 125.312 14.9062H122.656ZM122.656 24.0156V30.1406H126.938C128.604 30.1406 129.661 30.0938 130.109 30C130.797 29.875 131.354 29.5729 131.781 29.0938C132.219 28.6042 132.438 27.9531 132.438 27.1406C132.438 26.4531 132.271 25.8698 131.938 25.3906C131.604 24.9115 131.12 24.5625 130.484 24.3438C129.859 24.125 128.495 24.0156 126.391 24.0156H122.656Z"
    fill="white"
  />
</svg>
