<svg
  width="131"
  height="44"
  viewBox="0 0 131 44"
  fill="none"
  xmlns="http://www.w3.org/2000/svg"
>
<path
    fill-rule="evenodd"
    clip-rule="evenodd"
    d="M74.873 37.1081V5H98.0818V10.4316H81.194V17.5495H96.9082V22.9597H81.194V31.6988H98.6807V37.1081H74.873Z"
    fill="white"
  />
<path
    fill-rule="evenodd"
    clip-rule="evenodd"
    d="M103.326 5H109.649V22.4149C109.649 25.1789 109.726 26.9703 109.883 27.7892C110.154 29.1046 110.798 30.1611 111.817 30.9577C112.835 31.7551 114.227 32.1534 115.992 32.1534C117.787 32.1534 119.139 31.7775 120.051 31.0237C120.961 30.2709 121.51 29.3457 121.695 28.2491C121.881 27.1525 121.973 25.3325 121.973 22.7882V5H128.295V21.889C128.295 25.7486 128.125 28.4759 127.783 30.07C127.441 31.6632 126.811 33.0089 125.892 34.1056C124.975 35.2022 123.745 36.0756 122.208 36.7266C120.67 37.3767 118.663 37.7027 116.184 37.7027C113.194 37.7027 110.926 37.3482 109.382 36.6391C107.837 35.93 106.615 35.0084 105.719 33.8752C104.822 32.7419 104.231 31.5542 103.945 30.3111C103.532 28.4688 103.326 25.7486 103.326 22.1524V5Z"
    fill="white"
  />
<rect x="0.878357" y="0.879883" width="63.2432" height="42.24" fill="#003399" />
<path
    fill-rule="evenodd"
    clip-rule="evenodd"
    d="M30.3392 7.74391L31.6743 8.72071L31.1649 10.3135L32.5 9.32791L33.8352 10.3135L33.3257 8.72071L34.6608 7.74391H33.0095L32.5 6.15991L31.9906 7.74391H30.3392ZM33.8352 37.8399L33.3257 36.2559L34.6608 35.2791H33.0095L32.5 33.6863L31.9906 35.2791H30.3392L31.6743 36.2559L31.1649 37.8399L32.5 36.8631L33.8352 37.8399ZM18.85 23.0559L17.5149 24.0415L18.0243 22.4575L16.6892 21.5071H18.3406L18.85 19.9231L19.3595 21.5071H21.0196L19.6757 22.4927L20.1852 24.0767L18.85 23.0911V23.0559ZM27.0102 12.1439L26.5007 10.5599L27.8358 9.59191H26.1845L25.675 8.00791L25.1656 9.59191H23.5142L24.8493 10.5687L24.3399 12.1527L25.675 11.1759L27.0102 12.1439ZM20.2027 14.6255L20.7122 13.0415L21.2304 14.6255H22.8379L21.5027 15.6111L22.0122 17.1951L20.6683 16.2095L19.3243 17.1951L19.8338 15.6111L18.4987 14.6255H20.2027ZM20.7122 26.8047L20.2027 28.3887H18.5162H18.4987L19.8338 29.3743L19.3243 30.9583L20.6683 29.9815L22.0122 30.9583L21.5027 29.3743L22.8379 28.3887H21.2304L20.7122 26.8047ZM24.8493 34.4079L23.5142 33.4399H25.1656L25.675 31.8559L26.1845 33.4399H27.8358L26.5007 34.4079L27.0102 35.9919L25.675 35.0151L24.3399 35.9919L24.8493 34.4079ZM47.4852 24.0767L46.9757 22.4927L48.3108 21.5071H46.6946L46.1852 19.9231L45.6757 21.5071H43.9629L45.3068 22.4927L44.7973 24.0767L46.15 23.0911L47.4852 24.0767ZM38.4993 10.5599L37.1642 9.59191H38.8156L39.325 8.00791L39.8345 9.59191H41.4858L40.1507 10.5599L40.6602 12.1439L39.325 11.1759L37.9899 12.1527L38.4993 10.5687V10.5599ZM44.2879 13.0327L43.7696 14.6167L42.1622 14.6255L43.4885 15.6111L42.9791 17.1951L44.323 16.2095L45.6581 17.1951L45.1487 15.6111L46.4487 14.6167H44.7973L44.2879 13.0327ZM44.8412 28.3887H46.4487L45.1487 29.3743L45.6581 30.9583L44.323 29.9815L42.9791 30.9583L43.4885 29.3743L42.1622 28.3887H43.8135L44.3318 26.8047L44.8412 28.3887ZM40.1507 34.4079L41.4858 33.4399H39.8345L39.325 31.8559L38.8156 33.4399H37.1642L38.4993 34.4079L37.9899 35.9919L39.325 35.0151L40.6602 35.9919L40.1507 34.4079Z"
    fill="#FFCC00"
  />
<path
    fill-rule="evenodd"
    clip-rule="evenodd"
    d="M65 44H0V0H65V44ZM64.1216 0.88H0.878378V43.12H64.1216V0.88Z"
    fill="white"
  />
</svg>
