<svg
  width="137"
  height="44"
  viewBox="0 0 137 44"
  fill="none"
  xmlns="http://www.w3.org/2000/svg"
>
<path
    d="M23.992 32.693L24.85 28.073C26.94 28.095 28.623 28.04 29.899 27.908C31.197 27.754 32.176 27.479 32.836 27.083C33.518 26.665 33.958 26.082 34.156 25.334C34.376 24.564 34.453 23.585 34.387 22.397L33.661 7.84399H38.281L39.007 22.628C39.073 23.948 39.227 24.96 39.469 25.664C39.711 26.368 40.074 26.863 40.558 27.149C41.042 27.413 41.68 27.545 42.472 27.545C43.286 27.545 43.869 27.765 44.221 28.205C44.595 28.623 44.782 29.151 44.782 29.789C44.782 30.471 44.551 31.043 44.089 31.505C43.627 31.945 42.978 32.165 42.142 32.165C41.174 32.165 40.305 32.044 39.535 31.802C38.765 31.56 38.127 31.142 37.621 30.548C37.115 29.932 36.774 29.107 36.598 28.073H38.083C37.577 29.151 36.884 30.009 36.004 30.647C35.146 31.285 34.112 31.747 32.902 32.033C31.714 32.341 30.372 32.528 28.876 32.594C27.38 32.682 25.752 32.715 23.992 32.693ZM22.408 24.872L21.55 21.605C22.32 21.407 22.947 21.231 23.431 21.077C23.937 20.923 24.311 20.769 24.553 20.615C24.795 20.461 24.916 20.307 24.916 20.153C24.916 19.955 24.817 19.746 24.619 19.526C24.421 19.306 24.201 19.053 23.959 18.767C23.717 18.481 23.497 18.162 23.299 17.81C23.101 17.458 23.002 17.051 23.002 16.589C23.002 16.039 23.156 15.522 23.464 15.038C23.772 14.532 24.267 14.048 24.949 13.586C25.653 13.102 26.577 12.629 27.721 12.167L29.14 15.104C28.216 15.478 27.589 15.808 27.259 16.094C26.951 16.358 26.797 16.611 26.797 16.853C26.797 17.051 26.896 17.282 27.094 17.546C27.292 17.81 27.512 18.107 27.754 18.437C28.018 18.745 28.249 19.097 28.447 19.493C28.645 19.867 28.744 20.274 28.744 20.714C28.744 21.066 28.667 21.429 28.513 21.803C28.381 22.177 28.095 22.54 27.655 22.892C27.237 23.244 26.61 23.585 25.774 23.915C24.938 24.245 23.816 24.564 22.408 24.872ZM23.992 32.693C21.616 32.693 19.603 32.506 17.953 32.132C16.325 31.78 14.994 31.274 13.96 30.614C12.948 29.932 12.211 29.14 11.749 28.238C11.287 27.336 11.056 26.346 11.056 25.268C11.056 24.564 11.111 23.86 11.221 23.156C11.353 22.43 11.507 21.726 11.683 21.044C11.881 20.362 12.057 19.746 12.211 19.196L16.336 20.153C16.248 20.549 16.149 20.978 16.039 21.44C15.929 21.902 15.841 22.353 15.775 22.793C15.709 23.211 15.676 23.596 15.676 23.948C15.676 24.762 15.962 25.488 16.534 26.126C17.128 26.742 18.096 27.226 19.438 27.578C20.78 27.908 22.584 28.073 24.85 28.073L25.51 31.637L23.992 32.693Z"
    fill="white"
  />
<path
    d="M42.1299 32.165L42.4599 27.545C43.7799 27.545 44.7919 27.479 45.4959 27.347C46.1999 27.215 46.6839 26.973 46.9479 26.621C47.2339 26.247 47.3769 25.719 47.3769 25.037C47.3769 24.421 47.2889 23.684 47.1129 22.826C46.9589 21.968 46.7499 21.077 46.4859 20.153C46.2439 19.229 45.9799 18.382 45.6939 17.612L50.2479 16.358C50.5339 17.106 50.8089 17.975 51.0729 18.965C51.3369 19.955 51.5569 20.978 51.7329 22.034C51.9089 23.068 51.9969 24.069 51.9969 25.037C51.9969 26.533 51.7549 27.754 51.2709 28.7C50.7869 29.624 50.1049 30.339 49.2249 30.845C48.3669 31.351 47.3329 31.703 46.1229 31.901C44.9129 32.077 43.5819 32.165 42.1299 32.165ZM50.2809 39.821C49.6429 39.821 49.0929 39.59 48.6309 39.128C48.1909 38.688 47.9709 38.16 47.9709 37.544C47.9709 36.906 48.1909 36.356 48.6309 35.894C49.0929 35.432 49.6429 35.201 50.2809 35.201C50.8969 35.201 51.4249 35.432 51.8649 35.894C52.3049 36.356 52.5249 36.906 52.5249 37.544C52.5249 38.16 52.3049 38.688 51.8649 39.128C51.4249 39.59 50.8969 39.821 50.2809 39.821ZM44.5719 39.821C43.9339 39.821 43.3839 39.59 42.9219 39.128C42.4819 38.688 42.2619 38.16 42.2619 37.544C42.2619 36.906 42.4819 36.356 42.9219 35.894C43.3839 35.432 43.9339 35.201 44.5719 35.201C45.1879 35.201 45.7159 35.432 46.1559 35.894C46.5959 36.356 46.8159 36.906 46.8159 37.544C46.8159 38.16 46.5959 38.688 46.1559 39.128C45.7159 39.59 45.1879 39.821 44.5719 39.821Z"
    fill="white"
  />
<path
    d="M56.6293 32L55.9363 7.84399H60.5563L61.2493 32H56.6293ZM56.4313 42.197L55.8703 39.887C56.6403 39.755 57.2123 39.645 57.5863 39.557C57.9823 39.469 58.4003 39.37 58.8403 39.26L58.5103 40.085C57.9383 39.887 57.3883 39.491 56.8603 38.897C56.3543 38.325 56.1013 37.665 56.1013 36.917C56.1013 36.125 56.2773 35.487 56.6293 35.003C56.9813 34.519 57.4323 34.167 57.9823 33.947C58.5323 33.727 59.1043 33.617 59.6983 33.617C60.0283 33.617 60.3363 33.639 60.6223 33.683C60.9303 33.727 61.2053 33.793 61.4473 33.881L61.1833 36.257C60.9633 36.213 60.7433 36.169 60.5233 36.125C60.3033 36.081 60.0613 36.059 59.7973 36.059C59.5113 36.059 59.2473 36.147 59.0053 36.323C58.7853 36.521 58.6753 36.752 58.6753 37.016C58.6753 37.39 58.8073 37.72 59.0713 38.006C59.3353 38.292 59.6433 38.512 59.9953 38.666C60.3693 38.842 60.6773 38.941 60.9193 38.963L59.1043 39.161C59.6983 39.007 60.2593 38.842 60.7873 38.666C61.3153 38.512 61.8103 38.347 62.2723 38.171L62.9323 40.382C62.3823 40.58 61.7333 40.789 60.9853 41.009C60.2593 41.251 59.5003 41.471 58.7083 41.669C57.9383 41.867 57.1793 42.043 56.4313 42.197Z"
    fill="white"
  />
<rect x="72.8784" y="0.879883" width="63.2432" height="42.24" fill="#003399" />
<path
    fill-rule="evenodd"
    clip-rule="evenodd"
    d="M102.339 7.74416L103.674 8.72096L103.165 10.3138L104.5 9.32816L105.835 10.3138L105.326 8.72096L106.661 7.74416H105.009L104.5 6.16016L103.991 7.74416H102.339ZM105.835 37.8401L105.326 36.2561L106.661 35.2793H105.009L104.5 33.6865L103.991 35.2793H102.339L103.674 36.2561L103.165 37.8401L104.5 36.8633L105.835 37.8401ZM90.85 23.0566L89.5149 24.0422L90.0243 22.4582L88.6892 21.5078H90.3406L90.85 19.9238L91.3595 21.5078H93.0196L91.6757 22.4934L92.1852 24.0774L90.85 23.0918V23.0566ZM99.0102 12.1438L98.5007 10.5598L99.8358 9.59181H98.1845L97.675 8.00781L97.1656 9.59181H95.5142L96.8493 10.5686L96.3399 12.1526L97.675 11.1758L99.0102 12.1438ZM92.2027 14.626L92.7122 13.042L93.2304 14.626H94.8379L93.5027 15.6116L94.0122 17.1956L92.6683 16.21L91.3243 17.1956L91.8338 15.6116L90.4987 14.626H92.2027ZM92.2027 28.3887H90.5162H90.4987L91.8338 29.3743L91.3243 30.9583L92.6683 29.9815L94.0122 30.9583L93.5027 29.3743L94.8379 28.3887H93.2304L92.7122 26.8047L92.2027 28.3887ZM96.8493 34.4084L95.5142 33.4404H97.1656L97.675 31.8564L98.1845 33.4404H99.8358L98.5007 34.4084L99.0102 35.9924L97.675 35.0156L96.3399 35.9924L96.8493 34.4084ZM119.485 24.0774L118.976 22.4934L120.311 21.5078H118.695L118.185 19.9238L117.676 21.5078H115.963L117.307 22.4934L116.797 24.0774L118.15 23.0918L119.485 24.0774ZM110.499 10.5598L109.164 9.59181H110.816L111.325 8.00781L111.834 9.59181H113.486L112.151 10.5598L112.66 12.1438L111.325 11.1758L109.99 12.1526L110.499 10.5686V10.5598ZM116.288 13.0332L115.77 14.6172L114.162 14.626L115.489 15.6116L114.979 17.1956L116.323 16.21L117.658 17.1956L117.149 15.6116L118.449 14.6172H116.797L116.288 13.0332ZM116.841 28.3887H118.449L117.149 29.3743L117.658 30.9583L116.323 29.9815L114.979 30.9583L115.489 29.3743L114.162 28.3887H115.814L116.332 26.8047L116.841 28.3887ZM112.151 34.4084L113.486 33.4404H111.834L111.325 31.8564L110.816 33.4404H109.164L110.499 34.4084L109.99 35.9924L111.325 35.0156L112.66 35.9924L112.151 34.4084Z"
    fill="#FFCC00"
  />
<path
    fill-rule="evenodd"
    clip-rule="evenodd"
    d="M137 44H72V0H137V44ZM136.122 0.879883H72.8784V43.1199H136.122V0.879883Z"
    fill="white"
  />
</svg>
