<svg
  width="137"
  height="44"
  viewBox="0 0 137 44"
  fill="none"
  xmlns="http://www.w3.org/2000/svg"
>
<path
    d="M27.87 30.693L28.728 27.987C30.884 27.987 32.666 27.91 34.074 27.756C35.482 27.58 36.571 27.316 37.341 26.964C38.133 26.59 38.683 26.117 38.991 25.545C39.299 24.951 39.431 24.236 39.387 23.4L38.76 6.43799H41.433L42.093 23.103C42.137 24.225 42.313 25.105 42.621 25.743C42.951 26.381 43.391 26.832 43.941 27.096C44.491 27.338 45.096 27.459 45.756 27.459C46.218 27.459 46.548 27.591 46.746 27.855C46.966 28.097 47.076 28.394 47.076 28.746C47.076 29.098 46.922 29.428 46.614 29.736C46.306 30.022 45.91 30.165 45.426 30.165C44.392 30.165 43.556 30.011 42.918 29.703C42.28 29.373 41.785 28.966 41.433 28.482C41.103 27.998 40.883 27.492 40.773 26.964L41.466 26.997C41.026 27.679 40.432 28.262 39.684 28.746C38.936 29.208 38.012 29.582 36.912 29.868C35.812 30.154 34.514 30.363 33.018 30.495C31.544 30.627 29.828 30.693 27.87 30.693ZM27.012 23.268L26.385 21.189C27.309 20.947 28.057 20.738 28.629 20.562C29.201 20.386 29.608 20.221 29.85 20.067C30.114 19.891 30.246 19.715 30.246 19.539C30.246 19.297 30.114 19.077 29.85 18.879C29.608 18.659 29.322 18.439 28.992 18.219C28.684 17.977 28.398 17.702 28.134 17.394C27.892 17.086 27.771 16.712 27.771 16.272C27.771 15.876 27.881 15.469 28.101 15.051C28.343 14.611 28.761 14.16 29.355 13.698C29.949 13.214 30.785 12.708 31.863 12.18L32.886 14.061C31.874 14.545 31.126 14.963 30.642 15.315C30.18 15.645 29.949 15.942 29.949 16.206C29.949 16.404 30.07 16.613 30.312 16.833C30.576 17.053 30.862 17.295 31.17 17.559C31.5 17.823 31.786 18.131 32.028 18.483C32.292 18.813 32.424 19.209 32.424 19.671C32.424 19.979 32.358 20.287 32.226 20.595C32.094 20.881 31.83 21.178 31.434 21.486C31.06 21.772 30.521 22.069 29.817 22.377C29.113 22.663 28.178 22.96 27.012 23.268ZM27.87 30.693C25.912 30.693 24.185 30.561 22.689 30.297C21.215 30.055 19.983 29.67 18.993 29.142C18.003 28.614 17.255 27.932 16.749 27.096C16.243 26.238 15.99 25.204 15.99 23.994C15.99 23.444 16.034 22.883 16.122 22.311C16.21 21.717 16.32 21.123 16.452 20.529C16.606 19.935 16.76 19.363 16.914 18.813L19.389 19.44C19.301 19.77 19.202 20.166 19.092 20.628C18.982 21.068 18.883 21.519 18.795 21.981C18.729 22.443 18.696 22.861 18.696 23.235C18.696 24.379 18.982 25.303 19.554 26.007C20.148 26.689 21.171 27.195 22.623 27.525C24.075 27.833 26.11 27.987 28.728 27.987L29.388 29.637L27.87 30.693Z"
    fill="white"
  />
<path
    d="M45.4219 30.165L45.7519 27.459C47.0499 27.459 48.0619 27.415 48.7879 27.327C49.5139 27.217 50.0309 26.964 50.3389 26.568C50.6469 26.15 50.8009 25.501 50.8009 24.621C50.8009 24.071 50.7129 23.422 50.5369 22.674C50.3609 21.904 50.1299 21.09 49.8439 20.232C49.5579 19.374 49.2499 18.527 48.9199 17.691L51.5929 16.701C51.8789 17.405 52.1429 18.208 52.3849 19.11C52.6489 20.012 52.8689 20.903 53.0449 21.783C53.2209 22.663 53.3089 23.433 53.3089 24.093C53.3089 25.193 53.1549 26.128 52.8469 26.898C52.5609 27.668 52.0989 28.295 51.4609 28.779C50.8229 29.263 49.9979 29.615 48.9859 29.835C47.9959 30.055 46.8079 30.165 45.4219 30.165ZM51.5269 36.402C51.0649 36.402 50.6689 36.237 50.3389 35.907C50.0309 35.599 49.8769 35.225 49.8769 34.785C49.8769 34.345 50.0309 33.96 50.3389 33.63C50.6689 33.3 51.0649 33.135 51.5269 33.135C51.9669 33.135 52.3409 33.3 52.6489 33.63C52.9789 33.96 53.1439 34.345 53.1439 34.785C53.1439 35.225 52.9789 35.599 52.6489 35.907C52.3409 36.237 51.9669 36.402 51.5269 36.402ZM47.0059 36.402C46.5439 36.402 46.1479 36.237 45.8179 35.907C45.5099 35.599 45.3559 35.225 45.3559 34.785C45.3559 34.345 45.5099 33.96 45.8179 33.63C46.1479 33.3 46.5439 33.135 47.0059 33.135C47.4459 33.135 47.8199 33.3 48.1279 33.63C48.4579 33.96 48.6229 34.345 48.6229 34.785C48.6229 35.225 48.4579 35.599 48.1279 35.907C47.8199 36.237 47.4459 36.402 47.0059 36.402Z"
    fill="white"
  />
<path
    d="M58.3192 30L57.6592 6.43799H60.3322L60.9922 30H58.3192ZM57.4282 39.999L57.0322 38.217C57.6042 38.085 58.0662 37.975 58.4182 37.887C58.7702 37.799 59.1662 37.7 59.6062 37.59L59.4412 38.283C58.8692 38.107 58.3192 37.733 57.7912 37.161C57.2852 36.589 57.0322 35.94 57.0322 35.214C57.0322 34.554 57.1862 33.993 57.4942 33.531C57.8242 33.091 58.2422 32.761 58.7482 32.541C59.2762 32.321 59.8372 32.211 60.4312 32.211C60.6732 32.211 60.9262 32.233 61.1902 32.277C61.4762 32.321 61.7402 32.387 61.9822 32.475L61.7182 34.125C61.4982 34.081 61.2892 34.037 61.0912 33.993C60.8932 33.949 60.6732 33.927 60.4312 33.927C59.9252 33.927 59.5292 34.026 59.2432 34.224C58.9572 34.444 58.8142 34.741 58.8142 35.115C58.8142 35.577 58.9572 35.973 59.2432 36.303C59.5512 36.633 59.8922 36.886 60.2662 37.062C60.6622 37.26 60.9812 37.359 61.2232 37.359L59.8702 37.491C60.4642 37.337 61.0142 37.172 61.5202 36.996C62.0482 36.842 62.5212 36.688 62.9392 36.534L63.4672 38.217C62.9392 38.415 62.3122 38.624 61.5862 38.844C60.8822 39.064 60.1672 39.273 59.4412 39.471C58.7152 39.669 58.0442 39.845 57.4282 39.999Z"
    fill="white"
  />
<rect x="72.8784" y="0.879883" width="63.2432" height="42.24" fill="#003399" />
<path
    fill-rule="evenodd"
    clip-rule="evenodd"
    d="M102.339 7.74416L103.674 8.72096L103.165 10.3138L104.5 9.32816L105.835 10.3138L105.326 8.72096L106.661 7.74416H105.009L104.5 6.16016L103.991 7.74416H102.339ZM105.835 37.8401L105.326 36.2561L106.661 35.2793H105.009L104.5 33.6865L103.991 35.2793H102.339L103.674 36.2561L103.165 37.8401L104.5 36.8633L105.835 37.8401ZM90.85 23.0566L89.5149 24.0422L90.0243 22.4582L88.6892 21.5078H90.3406L90.85 19.9238L91.3595 21.5078H93.0196L91.6757 22.4934L92.1852 24.0774L90.85 23.0918V23.0566ZM99.0102 12.1438L98.5007 10.5598L99.8358 9.59181H98.1845L97.675 8.00781L97.1656 9.59181H95.5142L96.8493 10.5686L96.3399 12.1526L97.675 11.1758L99.0102 12.1438ZM92.2027 14.626L92.7122 13.042L93.2304 14.626H94.8379L93.5027 15.6116L94.0122 17.1956L92.6683 16.21L91.3243 17.1956L91.8338 15.6116L90.4987 14.626H92.2027ZM92.2027 28.3887H90.5162H90.4987L91.8338 29.3743L91.3243 30.9583L92.6683 29.9815L94.0122 30.9583L93.5027 29.3743L94.8379 28.3887H93.2304L92.7122 26.8047L92.2027 28.3887ZM96.8493 34.4084L95.5142 33.4404H97.1656L97.675 31.8564L98.1845 33.4404H99.8358L98.5007 34.4084L99.0102 35.9924L97.675 35.0156L96.3399 35.9924L96.8493 34.4084ZM119.485 24.0774L118.976 22.4934L120.311 21.5078H118.695L118.185 19.9238L117.676 21.5078H115.963L117.307 22.4934L116.797 24.0774L118.15 23.0918L119.485 24.0774ZM110.499 10.5598L109.164 9.59181H110.816L111.325 8.00781L111.834 9.59181H113.486L112.151 10.5598L112.66 12.1438L111.325 11.1758L109.99 12.1526L110.499 10.5686V10.5598ZM116.288 13.0332L115.77 14.6172L114.162 14.626L115.489 15.6116L114.979 17.1956L116.323 16.21L117.658 17.1956L117.149 15.6116L118.449 14.6172H116.797L116.288 13.0332ZM116.841 28.3887H118.449L117.149 29.3743L117.658 30.9583L116.323 29.9815L114.979 30.9583L115.489 29.3743L114.162 28.3887H115.814L116.332 26.8047L116.841 28.3887ZM112.151 34.4084L113.486 33.4404H111.834L111.325 31.8564L110.816 33.4404H109.164L110.499 34.4084L109.99 35.9924L111.325 35.0156L112.66 35.9924L112.151 34.4084Z"
    fill="#FFCC00"
  />
<path
    fill-rule="evenodd"
    clip-rule="evenodd"
    d="M137 44H72V0H137V44ZM136.122 0.879883H72.8784V43.1199H136.122V0.879883Z"
    fill="white"
  />
</svg>
