<?xml version="1.0" encoding="UTF-8"?>
<svg width="460px" height="345px" viewBox="0 0 460 345" version="1.1" xmlns="http://www.w3.org/2000/svg" xmlns:xlink="http://www.w3.org/1999/xlink">
    <title>ec_comp_date_picker</title>
    <g id="thumbnails---final" stroke="none" stroke-width="1" fill="none" fill-rule="evenodd">
        <g id="thumbnails---final_symbols" transform="translate(-500.000000, -4035.000000)">
            <g id="ec_comp_date_picker" transform="translate(500.000000, 4035.000000)">
                <g id="Group" transform="translate(93.000000, 42.000000)">
                    <g id="Group-7-Copy">
                        <rect id="Rectangle" stroke="#404040" stroke-width="2" fill="#FFFFFF" x="1" y="1" width="215" height="28"></rect>
                        <g id="Group-2" transform="translate(196.000000, 10.000000)">
                            <rect id="Rectangle-Copy-4" fill="#044695" x="0" y="0" width="1.5" height="1.5"></rect>
                            <rect id="Rectangle-Copy-5" fill="#044695" x="3" y="0" width="1.5" height="1.5"></rect>
                            <rect id="Rectangle-Copy-6" fill="#044695" x="6" y="0" width="1.5" height="1.5"></rect>
                            <rect id="Rectangle-Copy-6" fill="#044695" x="9" y="0" width="1.5" height="1.5"></rect>
                            <rect id="Rectangle-Copy-6" fill="#044695" x="11.6666667" y="0" width="1.5" height="1.5"></rect>
                            <rect id="Rectangle-Copy-4" fill="#044695" x="0" y="3" width="1.5" height="1.5"></rect>
                            <rect id="Rectangle-Copy-5" fill="#044695" x="3" y="3" width="1.5" height="1.5"></rect>
                            <rect id="Rectangle-Copy-6" stroke="#044695" stroke-width="0.5" x="6" y="3" width="1.5" height="1.5"></rect>
                            <rect id="Rectangle-Copy-6" fill="#044695" x="9" y="3" width="1.5" height="1.5"></rect>
                            <rect id="Rectangle-Copy-6" fill="#044695" x="11.6666667" y="3" width="1.5" height="1.5"></rect>
                            <rect id="Rectangle-Copy-4" fill="#044695" x="0" y="6" width="1.5" height="1.5"></rect>
                            <rect id="Rectangle-Copy-5" fill="#044695" x="3" y="6" width="1.5" height="1.5"></rect>
                            <rect id="Rectangle-Copy-6" fill="#044695" x="6" y="6" width="1.5" height="1.5"></rect>
                            <rect id="Rectangle-Copy-6" fill="#044695" x="9" y="6" width="1.5" height="1.5"></rect>
                            <rect id="Rectangle-Copy-6" fill="#044695" x="11.6666667" y="6" width="1.5" height="1.5"></rect>
                            <rect id="Rectangle-Copy-4" fill="#044695" x="0" y="9" width="1.5" height="1.5"></rect>
                            <rect id="Rectangle-Copy-5" fill="#044695" x="3" y="9" width="1.5" height="1.5"></rect>
                            <rect id="Rectangle-Copy-6" fill="#044695" x="6" y="9" width="1.5" height="1.5"></rect>
                            <rect id="Rectangle-Copy-6" fill="#044695" x="9" y="9" width="1.5" height="1.5"></rect>
                            <rect id="Rectangle-Copy-6" fill="#044695" x="11.6666667" y="9" width="1.5" height="1.5"></rect>
                        </g>
                        <path d="M197,6 C197,6.82842712 197.671573,7.5 198.5,7.5 C199.328427,7.5 200,6.82842712 200,6 L205,6 L205,6 C205,6.82842712 205.671573,7.5 206.5,7.5 C207.328427,7.5 208,6.82842712 208,6 L211,6.00030483 L211,23.0003048 L194,23.0003048 L194,6.00030483 L197,6 L197,6 Z" id="Combined-Shape" stroke="#044695"></path>
                        <path d="M93.4999937,8.78908923 C93.7734306,8.47919427 94.1288985,8.23310111 94.5663974,8.05080974 C95.0038964,7.86851837 95.468739,7.76825847 95.9609254,7.75002921 C95.9973835,7.75002921 96.033842,7.76370105 96.0703001,7.79104473 C96.1067582,7.81838842 96.1249875,7.85940395 96.1249875,7.91409132 L96.1249875,8.46096501 C96.1249875,8.49742312 96.1113156,8.53388164 96.083972,8.57033975 C96.0566283,8.60679786 96.0156127,8.62502712 95.9609254,8.62502712 C95.4140517,8.64325638 94.9400946,8.77997481 94.5390538,9.03518239 C94.1380129,9.29038998 93.9374927,9.59117051 93.9374927,9.93752399 L93.9374927,14.3125136 L95.0859275,14.3125136 C95.1223856,14.3125136 95.1588441,14.3307428 95.1953022,14.3672009 C95.2317603,14.403659 95.2499896,14.4401176 95.2499896,14.4765757 L95.2499896,15.0234494 C95.2499896,15.0599075 95.2317603,15.096366 95.1953022,15.1328241 C95.1588441,15.1692822 95.1223856,15.1875115 95.0859275,15.1875115 L93.9374927,15.1875115 L93.9374927,19.562501 C93.9374927,19.9088545 94.1380129,20.2096351 94.5390538,20.4648426 C94.9400946,20.7200502 95.4140517,20.8567687 95.9609254,20.8749979 C96.0156127,20.8749979 96.0566283,20.8932272 96.083972,20.9296853 C96.1113156,20.9661434 96.1249875,21.0026019 96.1249875,21.03906 L96.1249875,21.5859337 C96.1249875,21.6406211 96.1067582,21.6816366 96.0703001,21.7089803 C96.033842,21.736324 95.9973835,21.7499958 95.9609254,21.7499958 C95.468739,21.7317666 95.0038964,21.6360637 94.5663974,21.4628871 C94.1288985,21.2897106 93.7734306,21.03906 93.4999937,20.7109358 C93.2265569,21.0208308 92.871089,21.2669239 92.43359,21.4492153 C91.9960911,21.6315067 91.5312484,21.7317666 91.0390621,21.7499958 C91.002604,21.7499958 90.9661455,21.736324 90.9296874,21.7089803 C90.8932293,21.6816366 90.875,21.6406211 90.875,21.5859337 L90.875,21.03906 C90.875,21.0026019 90.8886718,20.9661434 90.9160155,20.9296853 C90.9433592,20.8932272 90.9843747,20.8749979 91.0390621,20.8749979 C91.5859358,20.8567687 92.0598929,20.7200502 92.4609337,20.4648426 C92.8619746,20.2096351 93.0624948,19.9088545 93.0624948,19.562501 L93.0624948,15.1875115 L91.91406,15.1875115 C91.8776019,15.1875115 91.8411434,15.1692822 91.8046853,15.1328241 C91.7682272,15.096366 91.7499979,15.0599075 91.7499979,15.0234494 L91.7499979,14.4765757 C91.7499979,14.4401176 91.7682272,14.403659 91.8046853,14.3672009 C91.8411434,14.3307428 91.8776019,14.3125136 91.91406,14.3125136 L93.0624948,14.3125136 L93.0624948,9.93752399 C93.0624948,9.59117051 92.8619746,9.29038998 92.4609337,9.03518239 C92.0598929,8.77997481 91.5859358,8.64325638 91.0390621,8.62502712 C90.9843747,8.62502712 90.9433592,8.60679786 90.9160155,8.57033975 C90.8886718,8.53388164 90.875,8.49742312 90.875,8.46096501 L90.875,7.91409132 C90.875,7.85940395 90.8932293,7.81838842 90.9296874,7.79104473 C90.9661455,7.76370105 91.002604,7.75002921 91.0390621,7.75002921 C91.5312484,7.76825847 91.9960911,7.86396137 92.43359,8.0371379 C92.871089,8.21031443 93.2265569,8.46096501 93.4999937,8.78908923 Z" id="" fill="#484848" fill-rule="nonzero"></path>
                        <rect id="Rectangle-Copy-2" fill="#CFCFCF" x="12" y="10" width="70" height="10"></rect>
                        <rect id="Rectangle-Copy-2" fill="#404040" x="10" y="10" width="1" height="10"></rect>
                    </g>
                    <g id="Group-7-Copy" transform="translate(0.000000, 38.000000)">
                        <rect id="Rectangle" stroke="#004494" stroke-width="2" fill="#FFFFFF" x="1" y="1" width="121" height="28"></rect>
                        <rect id="Rectangle" fill="#044695" x="10" y="10" width="78" height="10"></rect>
                        <g id="Group-11" transform="translate(104.000000, 11.000000)" fill="#044695" fill-rule="nonzero">
                            <g id="Group-13">
                                <path d="M3.16141732,-2.41855204 C3.21653543,-2.47285068 3.29002639,-2.5 3.38188976,-2.5 C3.47375314,-2.5 3.55643031,-2.47285068 3.62992126,-2.41855204 L9.38976378,3.28280543 C9.46325473,3.33710407 9.5,3.4095024 9.5,3.5 C9.5,3.5904976 9.46325473,3.66289593 9.38976378,3.71719457 L3.62992126,9.41855204 C3.55643031,9.47285068 3.47375314,9.5 3.38188976,9.5 C3.29002639,9.5 3.21653543,9.47285068 3.16141732,9.41855204 L2.61023622,8.87556561 C2.53674527,8.82126697 2.5,8.74886864 2.5,8.65837104 C2.5,8.56787344 2.53674527,8.48642548 2.61023622,8.41402715 L7.5984252,3.5 L2.61023622,-1.41402715 C2.53674527,-1.48642548 2.5,-1.56787344 2.5,-1.65837104 C2.5,-1.74886864 2.53674527,-1.82126697 2.61023622,-1.87556561 L3.16141732,-2.41855204 Z" id="" transform="translate(6.000000, 3.500000) rotate(-270.000000) translate(-6.000000, -3.500000) "></path>
                            </g>
                        </g>
                    </g>
                    <g id="Group-7-Copy-2" transform="translate(131.000000, 38.000000)">
                        <rect id="Rectangle" stroke="#004494" stroke-width="2" fill="#FFFFFF" x="1" y="1" width="121" height="28"></rect>
                        <rect id="Rectangle" fill="#044695" x="10" y="10" width="78" height="10"></rect>
                        <g id="Group-11" transform="translate(104.000000, 11.000000)" fill="#044695" fill-rule="nonzero">
                            <g id="Group-13">
                                <path d="M3.16141732,-2.41855204 C3.21653543,-2.47285068 3.29002639,-2.5 3.38188976,-2.5 C3.47375314,-2.5 3.55643031,-2.47285068 3.62992126,-2.41855204 L9.38976378,3.28280543 C9.46325473,3.33710407 9.5,3.4095024 9.5,3.5 C9.5,3.5904976 9.46325473,3.66289593 9.38976378,3.71719457 L3.62992126,9.41855204 C3.55643031,9.47285068 3.47375314,9.5 3.38188976,9.5 C3.29002639,9.5 3.21653543,9.47285068 3.16141732,9.41855204 L2.61023622,8.87556561 C2.53674527,8.82126697 2.5,8.74886864 2.5,8.65837104 C2.5,8.56787344 2.53674527,8.48642548 2.61023622,8.41402715 L7.5984252,3.5 L2.61023622,-1.41402715 C2.53674527,-1.48642548 2.5,-1.56787344 2.5,-1.65837104 C2.5,-1.74886864 2.53674527,-1.82126697 2.61023622,-1.87556561 L3.16141732,-2.41855204 Z" id="" transform="translate(6.000000, 3.500000) rotate(-270.000000) translate(-6.000000, -3.500000) "></path>
                            </g>
                        </g>
                    </g>
                    <g id="Group" transform="translate(0.000000, 76.000000)">
                        <rect id="Rectangle-Copy" fill="#F5F5F5" x="0" y="0" width="254" height="30"></rect>
                        <polygon id="Fill-8-Copy" fill="#CFCFCF" points="11.5652174 20 31.5652174 20 31.5652174 10 11.5652174 10"></polygon>
                        <polygon id="Fill-8-Copy" fill="#CFCFCF" points="47 20 67 20 67 10 47 10"></polygon>
                        <polygon id="Fill-8-Copy" fill="#CFCFCF" points="83 20 103 20 103 10 83 10"></polygon>
                        <polygon id="Fill-8-Copy" fill="#CFCFCF" points="119 20 139 20 139 10 119 10"></polygon>
                        <polygon id="Fill-8-Copy" fill="#CFCFCF" points="155 20 175 20 175 10 155 10"></polygon>
                        <polygon id="Fill-8-Copy" fill="#CFCFCF" points="191 20 211 20 211 10 191 10"></polygon>
                        <polygon id="Fill-8-Copy" fill="#CFCFCF" points="227 20 247 20 247 10 227 10"></polygon>
                    </g>
                    <g id="Group" transform="translate(0.000000, 110.000000)">
                        <rect id="Rectangle-Copy" fill="#F5F5F5" x="0" y="0" width="254" height="151"></rect>
                        <polygon id="Fill-8-Copy" fill="#CFCFCF" points="11.5652174 30 31.5652174 30 31.5652174 10 11.5652174 10"></polygon>
                        <polygon id="Fill-8-Copy" fill="#CFCFCF" points="47 30 67 30 67 10 47 10"></polygon>
                        <polygon id="Fill-8-Copy" fill="#CFCFCF" points="83 30 103 30 103 10 83 10"></polygon>
                        <polygon id="Fill-8-Copy" fill="#CFCFCF" points="119 30 139 30 139 10 119 10"></polygon>
                        <polygon id="Fill-8-Copy" fill="#CFCFCF" points="155 30 175 30 175 10 155 10"></polygon>
                        <polygon id="Fill-8-Copy" fill="#CFCFCF" points="191 30 211 30 211 10 191 10"></polygon>
                        <polygon id="Fill-8-Copy" fill="#CFCFCF" points="227 30 247 30 247 10 227 10"></polygon>
                        <polygon id="Fill-8-Copy" fill="#CFCFCF" points="11.5652174 65 31.5652174 65 31.5652174 45 11.5652174 45"></polygon>
                        <polygon id="Fill-8-Copy" fill="#CFCFCF" points="47 65 67 65 67 45 47 45"></polygon>
                        <polygon id="Fill-8-Copy" fill="#CFCFCF" points="83 65 103 65 103 45 83 45"></polygon>
                        <polygon id="Fill-8-Copy" fill="#CFCFCF" points="119 65 139 65 139 45 119 45"></polygon>
                        <polygon id="Fill-8-Copy" stroke="#044695" stroke-width="2" points="155 65 175 65 175 45 155 45"></polygon>
                        <polygon id="Fill-8-Copy" fill="#CFCFCF" points="191 65 211 65 211 45 191 45"></polygon>
                        <polygon id="Fill-8-Copy" fill="#CFCFCF" points="227 65 247 65 247 45 227 45"></polygon>
                        <polygon id="Fill-8-Copy" fill="#CFCFCF" points="11.5652174 100 31.5652174 100 31.5652174 80 11.5652174 80"></polygon>
                        <polygon id="Fill-8-Copy" fill="#CFCFCF" points="47 100 67 100 67 80 47 80"></polygon>
                        <polygon id="Fill-8-Copy" fill="#CFCFCF" points="83 100 103 100 103 80 83 80"></polygon>
                        <polygon id="Fill-8-Copy" fill="#CFCFCF" points="119 100 139 100 139 80 119 80"></polygon>
                        <polygon id="Fill-8-Copy" fill="#CFCFCF" points="155 100 175 100 175 80 155 80"></polygon>
                        <polygon id="Fill-8-Copy" fill="#CFCFCF" points="191 100 211 100 211 80 191 80"></polygon>
                        <polygon id="Fill-8-Copy" fill="#CFCFCF" points="227 100 247 100 247 80 227 80"></polygon>
                        <polygon id="Fill-8-Copy" fill="#CFCFCF" points="11.5652174 135 31.5652174 135 31.5652174 115 11.5652174 115"></polygon>
                        <polygon id="Fill-8-Copy" fill="#CFCFCF" points="47 135 67 135 67 115 47 115"></polygon>
                        <polygon id="Fill-8-Copy" fill="#CFCFCF" points="83 135 103 135 103 115 83 115"></polygon>
                        <polygon id="Fill-8-Copy" fill="#CFCFCF" points="119 135 139 135 139 115 119 115"></polygon>
                        <polygon id="Fill-8-Copy" fill="#CFCFCF" points="155 135 175 135 175 115 155 115"></polygon>
                        <polygon id="Fill-8-Copy" fill="#CFCFCF" points="191 135 211 135 211 115 191 115"></polygon>
                        <polygon id="Fill-8-Copy" fill="#CFCFCF" points="227 135 247 135 247 115 227 115"></polygon>
                    </g>
                </g>
            </g>
        </g>
    </g>
</svg>