<svg width="24" height="24" xmlns="http://www.w3.org/2000/svg" xmlns:xlink="http://www.w3.org/1999/xlink"><defs><path d="M9.729 15.32l-.001-7.191 5.944 3.608-5.943 3.582zM22.78 6.882s-.215-1.763-.874-2.54c-.837-1.02-1.775-1.024-2.205-1.084C16.623 3 12.005 3 12.005 3h-.01S7.377 3 4.3 3.259c-.43.06-1.368.065-2.205 1.084-.66.777-.874 2.54-.874 2.54S1 8.954 1 11.025v1.942c0 2.07.22 4.142.22 4.142s.215 1.763.874 2.54c.837 1.02 1.936.987 2.426 1.094C6.28 20.939 12 21 12 21s4.623-.008 7.701-.267c.43-.06 1.368-.065 2.205-1.084.66-.777.874-2.54.874-2.54s.22-2.071.22-4.142v-1.942c0-2.07-.22-4.142-.22-4.142z" id="a"/></defs><use xlink:href="#a"/></svg>