<svg id="Layer_1" xmlns="http://www.w3.org/2000/svg" viewBox="0 0 290 72" enable-background="new 0 0 290 72"><style>.st0{filter:url(#Adobe_OpacityMaskFilter)}.st1{fill:#fff}.st2{mask:url(#mask-4)}.st3{fill:#bbbdbf}.st4{fill:#034da1}.st5{fill:#fff100}.st6{fill:#626366}</style><g id="Page-1"><g id="Version-2-menu" transform="translate(-131 -108)"><g id="Site-header" transform="translate(131 108)"><g id="logo-copy"><g id="Group-20"><defs><filter id="Adobe_OpacityMaskFilter" filterUnits="userSpaceOnUse" x="0" y="0" width="134.4" height="66.3"><feColorMatrix values="1 0 0 0 0 0 1 0 0 0 0 0 1 0 0 0 0 0 1 0"/></filter></defs><mask maskUnits="userSpaceOnUse" x="0" y="0" width="134.4" height="66.3" id="mask-4"><g class="st0"><path id="path-3" class="st1" d="M0 0h253.5v66.5H0V0z"/></g></mask><g id="Group-18-Copy" class="st2"><path id="Fill-40" class="st3" d="M0 24.5s39.8-5.2 41-5.4c1.7-.3 3.3-.6 4.7-1 3.2-.9 6.2-2.2 8.8-4 2.5-1.7 4.9-4.2 7.2-6.9 1.5-1.7 3-4 4.5-6.2V0c-1.7 2.6-3.4 4.8-5.1 6.7-2.3 2.6-4.7 4.7-7.2 6.3-2.5 1.6-5.4 2.9-8.5 3.7-1.4.4-2.9.6-4.6.9-1.1.2-2.2.3-3.3.4C37 18 0 21.9 0 21.9v2.6z"/><path id="Fill-41" class="st3" d="M53.4 17.8c-2.5 1.4-5.4 2.5-8.6 3.1-1.4.3-2.8.5-4.5.7l-3 .3c-.5 0-1.1.1-1.6.1-12.2 1.2-24.3 2.3-35.7 3.4V28c11.4-1.4 23.7-2.9 35.9-4.3.5-.1 1.1-.1 1.6-.2 1-.1 2-.2 3-.4 1.7-.2 3.3-.5 4.6-.8 3.3-.7 6.3-1.9 8.9-3.5 2.6-1.6 4.8-3.7 7.3-6.4 1.5-1.7 3.2-4 4.8-6.2v-1c-1.9 2.5-3.6 4.7-5.4 6.5-2.4 2.7-4.8 4.7-7.3 6.1"/><path id="Fill-42" class="st3" d="M60.4 17.2c-2.4 2.2-5 4-7.5 5.3-2.5 1.2-5.3 2.1-8.6 2.6-1.4.2-2.8.4-4.5.6L0 28.9v2.6l35.3-3.8 4.6-.5c1.7-.2 3.2-.4 4.6-.7 3.4-.6 6.3-1.6 8.9-2.9 2.7-1.4 5.3-3.6 7.8-6 1.7-1.6 3.2-3.7 4.9-5.8v-.9c-2 2.5-3.8 4.5-5.7 6.3"/><path id="Fill-43" class="st3" d="M50.8 30.6c-2.3 1.3-4 2.1-7.3 2.4-2 .2-4 .3-6 .4-1 0-1.9.1-2.9.2-6 .3-11.9.7-17.9 1.1L0 35.9v2.6l16.8-1.6c5.4-.5 11.7-1.1 17.9-1.6l4.5-.3c1.7-.1 3.2-.3 4.5-.5 3.4-.4 6.3-1.1 8.9-2.1 2.8-1 5.4-2.7 8-4.6 2.4-1.7 5.6-5.1 5.6-5.2v-.9c-2.1 2.1-3.4 3.3-5.7 4.8-2.9 2-7.6 3-9.7 4.1"/><path id="Fill-44" class="st3" d="M51.6 35.6c-2.5.7-5.3 1.2-8.6 1.5-1.3.1-2.8.2-4.4.3l-4.4.2c-11 .5-22 1.1-34.1 1.7v2.6c11.6-.9 22.9-1.8 34.3-2.6l4.4-.3c1.7-.1 3.1-.2 4.5-.4 3.4-.4 6.3-1 8.8-1.8 2.8-.9 5.6-2.2 8.2-3.9 1.9-1.2 3.9-2.7 5.9-4.5-2.2 1.9-4.3 2.3-6.4 3.6-2.7 1.6-5.4 2.8-8.2 3.6"/><path id="Fill-45" class="st3" d="M51.2 39.9c-2.5.6-5.3 1-8.6 1.2-1.3.1-2.7.2-4.4.2l-4.4.2c-11.1.4-22.3.9-33.8 1.4v2.6c11.4-.8 22.6-1.5 33.9-2.3l4.4-.3c1.7-.1 3.1-.2 4.4-.3 3.4-.3 6.2-.8 8.8-1.5 2.9-.8 5.7-1.9 8.4-3.3 2.1-1.1 4.1-2.4 6.2-4v-1.1c-2.3 1.7-4.5 3-6.7 4.1-2.6 1.4-5.4 2.4-8.2 3.1"/><path id="Fill-46" class="st3" d="M50.8 44.1c-2.5.5-5.3.8-8.6.9-1.3.1-2.6.1-4.3.2L0 46.2v2.6L33.6 47l4.4-.2c1.7-.1 3.1-.2 4.4-.3 3.4-.3 6.1-.6 8.7-1.2 2.9-.6 5.8-1.5 8.5-2.7 2.2-.9 4.3-2 6.6-3.4v-1c-2.4 1.4-4.7 2.5-7 3.4-2.7 1.2-5.5 2-8.4 2.5"/><path id="Fill-47" class="st3" d="M50.5 48.3c-4.7.6-9.4.7-14.1.8-1.1 0-2.1 0-3.2.1L0 49.8v2.6L33.3 51c1.1 0 2.1-.1 3.2-.1 4.7-.2 9.5-.4 14.2-1.1 3-.5 5.9-1.2 8.5-2.1 2.2-.7 4.5-1.7 6.8-2.9v-1c-2.4 1.1-4.9 2.1-7.2 2.8-2.5.7-5.3 1.4-8.3 1.7"/><path id="Fill-48" class="st3" d="M50.3 52.6c-4.4.4-8.8.4-13.2.4h-4c-11 0-22 .1-33.1.2v2.6c10.6-.4 21.9-.7 33.2-1.1 1.3 0 2.7-.1 4-.1 4.3-.1 8.8-.2 13.2-.7 3.1-.3 5.9-.8 8.6-1.5 2.3-.6 4.7-1.4 7.2-2.3v-.9c-2.5.9-5 1.6-7.4 2.2-2.7.6-5.5 1-8.5 1.2"/><path id="Fill-49" class="st3" d="M50.1 56.8c-1.8.1-3.8.1-6 .1h-2.5l-8.6-.1c-5.9 0-11.7-.1-17.2-.1L0 56.8v2.6l15.9-.4c5.5-.1 11.3-.3 17.1-.4l8.6-.1c2.4 0 5.5-.1 8.6-.3 3.1-.2 5.9-.5 8.6-.9 2.4-.4 4.9-.9 7.4-1.5v-.9c-2.5.6-5.1 1.1-7.5 1.4-2.8.2-5.5.4-8.6.5"/><path id="Fill-50" class="st3" d="M41.5 60.9l-8.6-.1c-10.9-.2-21.8-.4-32.9-.6v2.6c10.6-.1 21.8-.2 32.9-.3l8.6-.1c2.9 0 5.7-.1 8.6-.2 5.9-.2 11.1-.6 16.1-1.3V60c-4.9.5-10.2.8-16.1.9h-8.6"/><path id="Fill-51" class="st3" d="M66.1 65.5L0 63.8v2.6h66.1v-.9z"/><path id="Fill-52" class="st3" d="M60.2 22c-2.5 2-4.5 3.5-7.5 4.7-2.7 1.1-5.6 1.5-8.8 2-2.1.3-4.3.7-6.4.9-.9.1-1.7.1-2.6.2L0 32.3v2.6l34.9-3.4 4.5-.4c1.7-.2 3.2-.3 4.6-.6 3.4-.5 6.3-1.4 8.9-2.6 2.7-1.2 5.5-3.2 8-5.3 1.7-1.5 3.4-3.3 5.2-5.3v-.9c-2.2 2.2-4 4.1-5.9 5.6"/><path id="Fill-53" class="st3" d="M94.2 0s11.9 18.9 14.1 22.4c2.2 3.5 4.7 6.2 13.5 8.1s12.6 2.7 12.6 2.7v.7s-5.6-1.2-12.8-2.8c-7.2-1.6-10.1-2.1-13.4-6.7-2.7-3.8-14-19.9-14-19.9V0z"/><path id="Fill-54" class="st3" d="M94.2 21.6s10.8 11.3 14 14.6c3.3 3.5 7.6 4.7 13.5 5.8 5.6 1 12.7 2.2 12.7 2.2v.6s-6.7-1.1-12.7-2.1c-5.9-1-10.1-1.6-13.5-4.7-3-2.8-13.9-13-13.9-13v-3.4z"/><path id="Fill-55" class="st3" d="M94.2 26.8s10.3 9.6 14 12.8c3.4 3 6.1 3.9 13.5 5.3 7.4 1.3 12.7 2.1 12.7 2.1v.7s-6.7-1.1-12.7-2.1c-6-1-9.9-1.3-13.5-4.3-4.2-3.4-14-11.4-14-11.4v-3.1z"/><path id="Fill-56" class="st3" d="M94.2 32.2s11.8 9.3 14 11c2.2 1.6 5.1 3.5 13.5 4.8 8.4 1.2 12.7 1.8 12.7 1.8v.7s-7.6-1.1-12.7-1.7c-5.1-.6-9-.9-13.5-3.9-4.4-2.9-14-9.7-14-9.7v-3z"/><path id="Fill-57" class="st3" d="M94.2 37.4s11.8 7.9 14 9.1c2.2 1.2 4.9 3.3 13.5 4.4 8.6 1.1 12.7 1.6 12.7 1.6v.7s-7.1-.8-12.7-1.4c-5.6-.6-9.4-1.4-13.5-3.7-4.1-2.3-14-8-14-8v-2.7z"/><path id="Fill-58" class="st3" d="M94.2 42.7s10.4 5.7 14 7.4c3.9 2 7.3 2.9 13.5 3.7 6.1.7 12.7 1.4 12.7 1.4v.6s-6.1-.7-12.7-1.3c-6.5-.6-8.8-.9-13.5-3-4.2-1.9-14-6.4-14-6.4v-2.4z"/><path id="Fill-59" class="st3" d="M94.2 48s8.2 3.5 14 5.8c5.7 2.3 10 2.5 13.5 2.8 1.5.2 12.6 1.3 12.6 1.3v.6s-6.6-.5-12.7-1.1c-6-.5-8.6-.8-13.5-2.4-4.9-1.6-14-4.8-14-4.8V48z"/><path id="Fill-60" class="st3" d="M94.2 53.4s8.3 2.6 14 4.1c5.7 1.5 10.9 2.1 13.5 2.3 2.6.2 12.7 1 12.7 1v.6s-5.7-.4-12.7-.9c-5.7-.4-10.2-.8-13.5-1.6-3.7-.8-14-3.3-14-3.3v-2.2z"/><path id="Fill-61" class="st3" d="M94.2 58.7s6.8 1.2 14 2.4c5.4.9 12.7 1.5 13.5 1.5.8 0 12.7.9 12.7.9v.6s-7.6-.4-12.7-.7c-5.3-.3-10.5-.6-13.5-.9-6.7-.7-14-1.6-14-1.6v-2.2z"/><path id="Fill-62" class="st3" d="M94.2 64.3s10.7.4 14 .5c3.3.1 26.2 1 26.2 1v.6H94.2v-2.1z"/><path id="Fill-63" class="st3" d="M121.7 33.4c-9.7-2.1-11.9-5.6-13.5-7.8-1.6-2.2-13.9-20.2-13.9-20.2v4.1c.5.6 11 14.4 14 18.2 3.3 4.3 8.5 5.3 13.5 6.3 5 1.1 12.7 2.6 12.7 2.6V36c-.1 0-10.3-2-12.8-2.6"/><path id="Fill-64" class="st3" d="M121.7 36.3c-8-1.6-11.2-4.1-13.5-7.1-2.3-3.1-13.9-18.3-13.9-18.3v3.8c.5.6 11.1 13.1 13.9 16.4 3.3 3.8 7.9 4.8 13.5 5.8s12.7 2.4 12.7 2.4v-.6s-8.1-1.5-12.7-2.4"/><path id="Fill-65" class="st3" d="M121.7 39.2c-8.3-1.6-10-2.9-13.5-6.8-2.2-2.4-13.5-15.7-14-16.3v3.5s10.5 11.2 13.9 14.6c4.4 4.4 8.6 4.7 13.5 5.6 4.9.9 12.7 2.3 12.7 2.3v-.6c.1 0-9.3-1.6-12.6-2.3"/><path id="Fill-66" class="st4" d="M85.4 27.6H27.5v38.7h57.9V27.6z"/><path id="Fill-67" class="st5" d="M57.1 33.1h2l-1.6 1.3.6 2-1.6-1.2-1.6 1.2.6-2-1.6-1.3h2l.6-2 .6 2z"/><path id="Fill-68" class="st5" d="M57.1 58.9h2l-1.6 1.2.6 1.9-1.6-1.2-1.6 1.2.6-1.9-1.6-1.2h2l.6-1.9.6 1.9z"/><path id="Fill-69" class="st5" d="M63.5 57.2h2l-1.6 1.2.6 1.9-1.6-1.2-1.6 1.2.6-1.9-1.6-1.2h2l.6-1.9.6 1.9z"/><path id="Fill-70" class="st5" d="M63.5 34.8h2L63.9 36l.6 1.9-1.6-1.2-1.6 1.3.7-2-1.6-1.2h2l.6-1.9.5 1.9z"/><path id="Fill-71" class="st5" d="M68.3 39.6h2l-1.6 1.2.6 1.9-1.6-1.2-1.6 1.2.6-1.9-1.6-1.2h2l.6-1.9.6 1.9z"/><path id="Fill-72" class="st5" d="M68.3 52.6h2l-1.6 1.2.6 1.9-1.6-1.2-1.6 1.2.6-1.9-1.6-1.2h2l.6-1.9.6 1.9z"/><path id="Fill-73" class="st5" d="M70.1 46h2l-1.6 1.2.6 1.9-1.6-1.2-1.6 1.2.6-1.9-1.7-1.2h2l.6-1.9.7 1.9z"/><path id="Fill-74" class="st5" d="M50.5 34.8h2L50.9 36l.6 1.9-1.5-1.1-1.7 1.2.6-1.9-1.6-1.2h2L50 33l.5 1.8z"/><path id="Fill-75" class="st5" d="M45.9 39.6h2l-1.6 1.2.6 1.9-1.6-1.2-1.6 1.2.6-1.9-1.6-1.2h2l.6-1.9.6 1.9z"/><path id="Fill-76" class="st5" d="M44.2 46h2l-1.6 1.2.6 1.9-1.6-1.2-1.6 1.2.6-1.9L41 46h2l.6-1.9.6 1.9z"/><path id="Fill-77" class="st5" d="M45.9 52.6h2l-1.6 1.2.6 1.9-1.6-1.2-1.6 1.2.6-1.9-1.6-1.2h2l.6-1.9.6 1.9z"/><path id="Fill-78" class="st5" d="M50.6 57.3h2L51 58.5l.6 1.9-1.6-1.2-1.6 1.2.6-1.9-1.6-1.2h2l.6-1.9.6 1.9z"/></g></g></g></g></g></g><path class="st6" d="M143.4 33.7c0-.3.1-.4.4-.4h7.1c.2 0 .4.1.4.4v1.2c0 .2-.1.3-.4.3h-5.2v3.3h4.6c.3 0 .4.1.4.3V40c0 .2-.1.3-.4.3h-4.6v3.8h5.4c.2 0 .3.1.3.4v1.2c0 .2-.1.3-.4.3h-7.2c-.3 0-.4-.1-.4-.3v-12zm10.2 12.4c-.2 0-.3 0-.4-.1-.1-.1-.1-.2-.1-.3V37c0-.1 0-.2.1-.3.1-.1.2-.1.3-.1h4.1c1.1 0 1.9.2 2.4.7s.8 1.1.8 1.9c0 .3-.1.6-.2.9-.1.4-.4.7-.9.9.3.1.5.3.7.5.2.2.3.4.4.6.1.2.2.4.2.6s.1.4.1.6c0 .4-.1.8-.3 1.2s-.4.6-.7.9c-.3.2-.6.4-1 .6-.4.1-.8.2-1.2.2h-4.3zm5.1-6.7c0-.1 0-.2-.1-.4s-.1-.2-.2-.3c-.1-.1-.2-.2-.4-.2-.2-.1-.4-.1-.6-.1h-2.2v2.1h2.3c.4 0 .7-.1.9-.3s.3-.6.3-.8zm.3 3.7c0-.3-.1-.6-.3-.8-.2-.2-.5-.4-1-.4h-2.5v2.4h2.2c.3 0 .6 0 .8-.1s.4-.2.5-.3.2-.2.2-.4c.1-.1.1-.2.1-.4zm12.2-1.8c0 .8-.1 1.5-.2 2.1s-.3 1.1-.6 1.6c-.3.4-.7.7-1.2 1-.5.2-1.1.3-1.9.3-.3 0-.7 0-1.1-.1-.4-.1-.8-.2-1.3-.3v3.4c0 .1 0 .2-.1.3 0 .1-.1.1-.3.1h-1.4c-.2 0-.3 0-.3-.1s-.1-.2-.1-.3V37c0-.3.1-.4.4-.4h1.4c.1 0 .2 0 .3.1s.1.2.1.3v.6h.1c.2-.1.4-.2.6-.4s.5-.3.8-.4c.3-.1.5-.2.8-.3.3-.1.6-.1.8-.1.6 0 1.1.1 1.6.3.4.2.7.6 1 1 .2.4.4.9.5 1.5s.1 1.4.1 2.1zm-2.2 0c0-.6 0-1.1-.1-1.5-.1-.4-.2-.7-.3-.9-.1-.2-.3-.3-.5-.4s-.4-.1-.7-.1c-.2 0-.4 0-.7.1-.2.1-.5.1-.7.2-.2.1-.5.2-.7.3-.2.1-.4.2-.5.3v4.8l1.2.3c.4 0 .7.1 1 .1.3 0 .6 0 .9-.1.2-.1.4-.3.6-.5.1-.2.3-.6.3-1 .2-.5.2-1 .2-1.6zm12.1-.1c0 .5 0 1.1-.1 1.7s-.2 1.1-.5 1.6-.7.9-1.3 1.2-1.3.5-2.3.5c-1 0-1.7-.2-2.3-.5s-1-.7-1.2-1.2-.4-1-.5-1.6c-.1-.6-.1-1.2-.1-1.7 0-.4 0-.9.1-1.5.1-.5.3-1.1.5-1.5.3-.5.7-.9 1.2-1.2.5-.3 1.3-.5 2.2-.5.9 0 1.7.1 2.2.4s1 .6 1.3 1.1c.3.5.5 1 .6 1.5.1.6.2 1.1.2 1.7zm-2.2.1c0-.5 0-1-.1-1.3s-.2-.7-.3-.9l-.6-.6c-.3-.1-.6-.2-1.1-.2-.4 0-.7.1-1 .2-.3.1-.5.3-.6.6-.1.3-.2.6-.3 1-.1.4-.1.8-.1 1.3s0 1 .1 1.3.2.7.3.9c.1.2.3.4.6.6s.6.2 1 .2.8-.1 1.1-.2c.3-.1.5-.3.6-.6.2-.2.3-.6.3-1 .1-.3.1-.8.1-1.3zm12.3 4.4c0 .2-.1.4-.4.4h-1.4c-.2 0-.4-.1-.4-.4v-7.3h-4v7.3c0 .1 0 .2-.1.3-.1.1-.1.1-.3.1h-1.4c-.2 0-.4-.1-.4-.4V37c0-.2.1-.4.4-.4h7.5c.1 0 .2 0 .3.1.1.1.1.1.1.3v8.7zm4-3.8c0 .5.1.9.2 1.2.1.3.2.6.4.8.2.2.4.3.7.4.3.1.6.1 1 .1.3 0 .8 0 1.2-.1.5-.1.9-.1 1.3-.1h.4c.1 0 .1.1.1.3l.1.6v.3c0 .1-.1.2-.3.2-.2.1-.4.1-.7.2s-.5.1-.8.1c-.3 0-.6.1-.8.1h-.8c-.9 0-1.7-.1-2.2-.4-.6-.3-1-.6-1.3-1.1-.3-.4-.5-1-.6-1.5-.1-.6-.1-1.2-.1-1.8 0-.5 0-1 .1-1.6s.3-1.1.5-1.6c.3-.5.7-.9 1.2-1.3.5-.3 1.3-.5 2.2-.5.9 0 1.6.1 2.1.4s.9.6 1.2 1c.3.4.5.9.6 1.4.1.5.2 1 .2 1.5 0 .3 0 .6-.2.8-.1.2-.4.3-.8.3h-4.9zm1.9-3.7c-.4 0-.7.1-.9.2-.2.1-.4.2-.6.4-.1.2-.3.4-.3.7-.1.3-.1.6-.1 1h3.8c0-.3 0-.6-.1-.8-.1-.3-.1-.5-.3-.7-.1-.2-.3-.4-.6-.5-.2-.2-.5-.3-.9-.3zm5.8-1.1c0-.1 0-.2.1-.3s.2-.1.3-.1h1.2c.2 0 .3 0 .3.1s.1.2.1.3v5.6l2.5-3.4 1.7-2.3.2-.2c.1-.1.2-.1.4-.1h1c.2 0 .3 0 .3.1.1.1.1.2.1.3v8.6c0 .3-.1.4-.4.4h-1.2c-.3 0-.4-.1-.4-.4v-5.9c-.4.6-.9 1.2-1.3 1.8s-.9 1.2-1.3 1.8c-.3.4-.6.8-.8 1.1-.3.4-.6.8-.9 1.1-.1.1-.2.2-.3.2-.1.1-.2.1-.4.1h-.8c-.2 0-.3 0-.3-.1-.1-.1-.1-.2-.1-.3v-8.4zm4.2-1.3c-.6 0-1.2-.2-1.8-.5-.6-.3-1-.8-1.4-1.5-.1-.1-.1-.2-.1-.3 0-.1 0-.2.1-.3l.5-.4c.1-.1.2-.1.3-.1.1 0 .1.1.2.2.4.5.7.8 1 1 .3.2.7.3 1.2.3.2 0 .4 0 .6-.1.2-.1.3-.1.5-.2s.3-.3.5-.4l.6-.6c.2-.2.3-.2.5-.1l.5.3c.1.1.2.2.1.3s-.1.2-.1.4c-.3.7-.8 1.2-1.3 1.5-.6.3-1.2.5-1.9.5zm13.4 9.4v.3c0 .1-.1.2-.3.2-.4.2-.8.3-1.4.3-.6.1-1.1.1-1.5.1-.9 0-1.6-.1-2.2-.4-.5-.3-1-.6-1.2-1.1-.3-.4-.5-1-.6-1.6-.1-.6-.1-1.2-.1-1.9 0-.6 0-1.2.1-1.8.1-.6.3-1.1.6-1.6s.7-.8 1.2-1.1c.5-.3 1.3-.4 2.1-.4h.7c.3 0 .5 0 .8.1.3 0 .5.1.8.1.2.1.5.1.7.2.2.1.3.3.3.5l-.1.8c0 .1-.1.2-.2.2h-.4c-.4 0-.8-.1-1.2-.1s-.8-.1-1.1-.1c-.8 0-1.3.2-1.6.7-.3.4-.5 1.2-.5 2.3 0 .6 0 1.1.1 1.5.1.4.2.7.4 1 .2.2.4.4.6.5.3.1.6.1 1 .1h1.2c.5 0 .9-.1 1.3-.1h.3c.1 0 .1.1.2.3v1zm3.5.5c0 .1 0 .2-.1.2 0 .1-.1.1-.3.1h-1.4c-.2 0-.3-.1-.3-.3V37c0-.2.1-.3.3-.3h1.4c.1 0 .2 0 .3.1 0 .1.1.1.1.3v3.4h1.5c.2 0 .3-.1.4-.2.1-.1.3-.2.4-.4.1-.2.2-.4.4-.7l.8-2.1c.1-.1.1-.2.2-.2s.2-.1.3-.1h1.2c.2 0 .3 0 .3.1v.3l-.7 2c-.2.6-.4 1.1-.7 1.4s-.5.6-.9.7c.4.2.8.4 1 .7s.4.7.6 1.2l.8 2.6v.3c0 .1-.1.1-.3.1H228c-.1 0-.3 0-.3-.1s-.1-.1-.2-.2l-.7-2.2c-.2-.6-.5-1-.8-1.2-.3-.2-.7-.3-1-.3h-1v3.5zm13.2-.7c-.5.4-1 .7-1.6.9-.6.2-1.2.3-1.9.3-.5 0-.9-.1-1.3-.2-.3-.1-.6-.3-.8-.6-.2-.2-.3-.5-.4-.9-.1-.3-.1-.7-.1-1.1 0-1.1.3-1.9.9-2.4s1.5-.8 2.7-.8h2.5v-.5c0-.3 0-.5-.1-.7s-.2-.4-.3-.5-.4-.2-.6-.3c-.3-.1-.6-.1-1-.1h-1.3c-.2 0-.5 0-.7.1-.2 0-.5 0-.6.1h-.4c-.1 0-.1-.1-.1-.2l-.2-.7v-.3c.1-.1.2-.2.4-.3.2-.1.4-.1.7-.2.3-.1.6-.1.9-.1.3 0 .6-.1.9-.1h.8c.8 0 1.5.1 2 .2.5.2.9.4 1.1.7.3.3.4.7.5 1.1.1.4.1.9.1 1.5v4.2c0 .1.1.2.1.2 0 .1.1.1.2.1s.2 0 .4.1c.1 0 .2 0 .3.1.1 0 .1.1.1.2v.8c0 .2-.2.4-.5.4-.2 0-.3 0-.5.1h-.4c-.4 0-.8-.1-1.1-.2s-.6-.5-.7-.9zm-.1-3.2h-2.3c-.5 0-.9.1-1.2.3-.3.2-.4.6-.4 1.3 0 .4.1.7.3.9s.5.2.9.2c.2 0 .4 0 .7-.1s.5-.1.7-.2c.2-.1.5-.2.7-.3l.6-.3v-1.8zm-92 24.2c0 .1 0 .2-.1.2 0 .1-.1.1-.3.1h-1.4c-.2 0-.3-.1-.3-.3v-8.7c0-.2.1-.3.3-.3h1.4c.1 0 .2 0 .3.1 0 .1.1.1.1.3v3.4h1.5c.2 0 .3-.1.4-.2.1-.1.3-.2.4-.4.1-.2.2-.4.4-.7l.8-2.1c.1-.1.1-.2.2-.2s.2-.1.3-.1h1.2c.2 0 .3 0 .3.1v.3l-.7 2c-.2.6-.4 1.1-.7 1.4s-.5.6-.9.7c.4.2.8.4 1 .7s.4.7.6 1.2l.8 2.6v.3c0 .1-.1.1-.3.1h-1.3c-.1 0-.3 0-.3-.1s-.1-.1-.2-.2l-.7-2.2c-.2-.6-.5-1-.8-1.2-.3-.2-.7-.3-1-.3h-1V66zm15.4-4.5c0 .5 0 1.1-.1 1.7s-.2 1.1-.5 1.6-.7.9-1.3 1.2-1.3.5-2.3.5c-1 0-1.7-.2-2.3-.5s-1-.7-1.2-1.2-.4-1-.5-1.6c-.1-.6-.1-1.2-.1-1.7 0-.4 0-.9.1-1.5.1-.5.3-1.1.5-1.5.3-.5.7-.9 1.2-1.2.5-.3 1.3-.5 2.2-.5.9 0 1.7.1 2.2.4s1 .6 1.3 1.1c.3.5.5 1 .6 1.5.2.6.2 1.1.2 1.7zm-2.1.1c0-.5 0-1-.1-1.3s-.2-.7-.3-.9l-.6-.6c-.3-.1-.6-.2-1.1-.2-.4 0-.7.1-1 .2-.3.1-.5.3-.6.6-.1.3-.2.6-.3 1-.1.4-.1.8-.1 1.3s0 1 .1 1.3.2.7.3.9c.1.2.3.4.6.6s.6.2 1 .2.8-.1 1.1-.2c.3-.1.5-.3.6-.6.2-.2.3-.6.3-1 .1-.3.1-.8.1-1.3zm11.8-.7l-.8 1.6c-.2.3-.4.7-.5 1-.2.3-.4.7-.6 1.1-.1.2-.3.3-.6.3h-.7c-.2 0-.3 0-.4-.1l-.2-.2c-.2-.3-.4-.6-.5-.9-.2-.3-.3-.6-.5-.9-.2-.3-.3-.6-.5-1-.2-.3-.3-.7-.5-1v5c0 .3-.1.4-.4.4h-1.2c-.3 0-.4-.1-.4-.4v-8.6c0-.3.1-.4.4-.4h1.1c.2 0 .3 0 .4.1.1.1.2.1.2.2.2.4.4.7.6 1.1.2.4.4.7.6 1.1.3.5.6 1.1.8 1.6.3.5.5 1 .8 1.6l1.5-2.8 1.4-2.5c.1-.1.1-.2.2-.3.1-.1.2-.1.4-.1h1c.3 0 .4.1.4.4V66c0 .3-.1.4-.4.4h-1.2c-.3 0-.4-.1-.4-.4v-5.1zm4.1-3.5c0-.1 0-.2.1-.3s.2-.1.3-.1h1.2c.2 0 .3 0 .3.1s.1.2.1.3V63l2.5-3.4 1.7-2.3.2-.2c.1-.1.2-.1.4-.1h1c.2 0 .3 0 .3.1.1.1.1.2.1.3V66c0 .3-.1.4-.4.4H181c-.3 0-.4-.1-.4-.4v-5.9c-.4.6-.9 1.2-1.3 1.8s-.9 1.2-1.3 1.8c-.3.4-.6.8-.8 1.1-.3.4-.6.8-.9 1.1-.1.1-.2.2-.3.2-.1.1-.2.1-.4.1h-.8c-.2 0-.3 0-.3-.1-.1-.1-.1-.2-.1-.3v-8.4zm17.6 8.1v.3c0 .1-.1.2-.3.2-.4.2-.8.3-1.4.3-.6.1-1.1.1-1.5.1-.9 0-1.6-.1-2.2-.4-.5-.3-1-.6-1.2-1.1-.3-.4-.5-1-.6-1.6-.1-.6-.1-1.2-.1-1.9 0-.6 0-1.2.1-1.8.1-.6.3-1.1.6-1.6s.7-.8 1.2-1.1c.5-.3 1.3-.4 2.1-.4h.7c.3 0 .5 0 .8.1.3 0 .5.1.8.1.2.1.5.1.7.2.2.1.3.3.3.5l-.1.8c0 .1-.1.2-.2.2h-.4c-.4 0-.8-.1-1.2-.1s-.8-.1-1.1-.1c-.8 0-1.3.2-1.6.7-.3.4-.5 1.2-.5 2.3 0 .6 0 1.1.1 1.5.1.4.2.7.4 1 .2.2.4.4.6.5.3.1.6.1 1 .1h1.2c.5 0 .9-.1 1.3-.1h.3c.1 0 .1.1.2.3v1zm1.4-8.1c0-.1 0-.2.1-.3s.2-.1.3-.1h1.2c.2 0 .3 0 .3.1s.1.2.1.3V63l2.5-3.4 1.7-2.3.2-.2c.1-.1.2-.1.4-.1h1c.2 0 .3 0 .3.1.1.1.1.2.1.3V66c0 .3-.1.4-.4.4H200c-.3 0-.4-.1-.4-.4v-5.9c-.4.6-.9 1.2-1.3 1.8s-.9 1.2-1.3 1.8c-.3.4-.6.8-.8 1.1-.3.4-.6.8-.9 1.1-.1.1-.2.2-.3.2-.1.1-.2.1-.4.1h-.8c-.2 0-.3 0-.3-.1-.1-.1-.1-.2-.1-.3v-8.4zm17.8-.5c.2 0 .3 0 .4.1.1.1.1.2.1.3v8.6c0 .3-.2.4-.5.4h-1.2c-.2 0-.3 0-.3-.1-.1-.1-.1-.2-.1-.3v-3.3h-1.9c-.3 0-.6.1-.8.3s-.4.5-.6 1.1l-.6 1.9c-.1.2-.1.3-.2.3s-.2.1-.4.1h-1.3c-.2 0-.3 0-.3-.1v-.3l.7-2.1c.1-.4.3-.7.4-1 .2-.3.4-.5.7-.7-.3-.1-.5-.2-.7-.4-.2-.2-.3-.4-.4-.6-.1-.2-.2-.4-.2-.7 0-.2-.1-.5-.1-.7 0-.5.1-.9.3-1.3.2-.4.4-.7.7-.9.3-.2.7-.4 1.1-.6s.9-.2 1.3-.2h3.9zm-5.3 3c0 .4.1.7.3.9.2.2.6.3 1.1.3h2.2v-2.4h-2.1c-.5 0-.8.1-1.1.3-.3.2-.4.5-.4.9z"/><path class="st4" d="M249.2 28h3.3v38.7h-3.3z"/></svg>