<!-- Generated by IcoMoon.io -->
<svg version="1.1" xmlns="http://www.w3.org/2000/svg" width="32" height="32" viewBox="0 0 32 32">
<title>energy</title>
<path d="M15.903 0.857h0.224c0.513 0.289 0.77 0.769 0.93 1.315 0.994 2.886 0.737 7.342 0.93 11.094-0.962-0.705-3.046-0.513-3.944-0.064 0.128-3.527-0.032-8.208 0.93-10.965 0.16-0.513 0.577-1.218 0.93-1.379v0zM15.582 13.81c2.405-0.353 4.425 2.244 2.982 4.521-1.218 1.924-5.258 1.924-5.515-1.282-0.064-0.77 0.417-1.892 0.417-1.924 0.417-0.641 1.122-1.154 2.116-1.315v0zM15.037 16.599c-0.16 1.667 2.18 1.379 1.956-0.064-0.064-0.481-0.417-0.898-1.218-0.737-0.545 0.128-0.705 0.449-0.737 0.802v0zM12.056 16.054c0.032 0 0.064 0.032 0.064 0.064-0.224 1.122 0.128 2.116 0.609 2.854 0.289 0.449 0.77 0.705 0.93 1.122-2.309 1.218-4.873 2.661-7.695 3.783-0.866 0.321-3.559 1.571-3.848 0.032-0.192-0.994 1.282-2.020 1.86-2.533 2.405-2.020 5.579-3.848 8.080-5.322v0zM19.911 16.054c2.629 1.443 5.611 3.27 8.080 5.322 0.577 0.481 2.052 1.443 1.924 2.501-0.224 1.571-2.918 0.385-3.912 0-2.693-1.090-5.322-2.565-7.631-3.783 0.16-0.449 0.737-0.737 1.058-1.25 0.417-0.673 0.641-1.571 0.481-2.597v-0.192zM17.987 31.925h-3.944v-11.286c1.058 0.545 2.982 0.385 3.944 0.064v11.222z"></path>
</svg>
