<!-- Generated by IcoMoon.io -->
<svg version="1.1" xmlns="http://www.w3.org/2000/svg" width="29" height="32" viewBox="0 0 29 32">
<title>icon-calendar</title>
<path d="M7.695 7.013c-1.186 0-2.18-0.994-2.18-2.18v-2.276c0-1.218 0.994-2.18 2.18-2.18s2.18 0.962 2.18 2.18v2.276c0 1.186-0.962 2.18-2.18 2.18v0zM20.969 7.013c-1.186 0-2.18-0.994-2.18-2.18v-2.276c0-1.218 0.994-2.18 2.18-2.18s2.18 0.962 2.18 2.18v2.276c0 1.186-0.962 2.18-2.18 2.18v0zM24.335 28.014h-3.334v-3.302h3.334v3.302zM24.335 22.499h-3.334v-3.334h3.334v3.334zM24.335 16.952h-3.334v-3.302h3.334v3.302zM18.789 28.014h-3.302v-3.302h3.302v3.302zM18.789 22.499h-3.302v-3.334h3.302v3.334zM18.789 16.952h-3.302v-3.302h3.302v3.302zM13.274 28.014h-3.335v-3.302h3.335v3.302zM13.274 22.499h-3.335v-3.334h3.335v3.334zM13.274 16.952h-3.335v-3.302h3.335v3.302zM7.727 28.014h-3.302v-3.302h3.302v3.302zM7.727 22.499h-3.302v-3.334h3.302v3.334zM7.727 16.952h-3.302v-3.302h3.302v3.302zM26.548 11.437h-24.335v18.789h24.335v-18.789zM26.548 32.438h-24.335c-1.218 0-2.212-0.994-2.212-2.212v-24.335c0-1.218 0.994-2.212 2.212-2.212h2.212v1.122c0 1.828 1.475 3.302 3.302 3.302s3.335-1.475 3.335-3.302v-1.122h6.637v1.122c0 1.828 1.475 3.302 3.302 3.302s3.334-1.475 3.334-3.302v-1.122h2.212c1.218 0 2.212 0.994 2.212 2.212v24.335c0 1.218-0.994 2.212-2.212 2.212v0z"></path>
</svg>
