<!-- Generated by IcoMoon.io -->
<svg version="1.1" xmlns="http://www.w3.org/2000/svg" width="39" height="32" viewBox="0 0 39 32">
<title>livestreaming</title>
<path d="M35.622 0.376h-32.063c-1.956 0-3.559 1.603-3.559 3.559v5.354h3.559v-5.354h32.063v24.945h-12.472v3.559h12.472c1.956 0 3.559-1.603 3.559-3.559v-24.945c0-1.956-1.603-3.559-3.559-3.559v0zM0 27.084v5.354h5.354c0-3.014-2.341-5.354-5.354-5.354v0zM0 19.966v3.559c5.002 0 8.913 3.912 8.913 8.913h3.559c0-6.958-5.515-12.472-12.472-12.472v0zM0 12.848v3.559c8.913 0 16.031 7.118 16.031 16.031h3.559c0-10.869-8.721-19.59-19.59-19.59v0z"></path>
</svg>
