<!-- Generated by IcoMoon.io -->
<svg version="1.1" xmlns="http://www.w3.org/2000/svg" width="32" height="32" viewBox="0 0 32 32">
<title>spinner</title>
<path d="M32.063 12.399h-12.023l4.489-4.489c-2.276-2.276-5.29-3.527-8.497-3.527s-6.22 1.25-8.497 3.527c-2.276 2.276-3.527 5.29-3.527 8.497s1.25 6.22 3.527 8.497c2.276 2.276 5.29 3.527 8.497 3.527s6.22-1.25 8.497-3.527c0.192-0.192 0.385-0.385 0.545-0.577l3.014 2.629c-2.918 3.367-7.246 5.483-12.056 5.483-8.849 0-16.031-7.182-16.031-16.031s7.182-16.031 16.031-16.031c4.425 0 8.432 1.796 11.35 4.681l4.681-4.681v12.023z"></path>
</svg>
