<?xml version="1.0" encoding="utf-8"?>
<!-- Generator: Adobe Illustrator 19.2.0, SVG Export Plug-In . SVG Version: 6.00 Build 0)  -->
<svg version="1.1" id="Layer_1" xmlns:sketch="http://www.bohemiancoding.com/sketch/ns"
	 xmlns="http://www.w3.org/2000/svg" xmlns:xlink="http://www.w3.org/1999/xlink" x="0px" y="0px" viewBox="0 0 40 40"
	 style="enable-background:new 0 0 40 40;" xml:space="preserve">
<style type="text/css">
	.st0{fill:#DE484A;}
	.st1{fill-opacity:0.3;}
	.st2{fill:#FFFFFF;}
</style>
<title>bebo_hover</title>
<desc>Created with Sketch.</desc>
<g id="Icon" sketch:type="MSPage">
	<g id="Social-media-Icons" transform="translate(-95.000000, -1150.000000)" sketch:type="MSArtboardGroup">
		<g id="bebo_hover" transform="translate(95.441558, 1150.120000)" sketch:type="MSLayerGroup">
			<g id="bg">
				<g sketch:type="MSShapeGroup">
					<rect id="path-1" x="-0.4" y="-0.1" class="st0" width="40" height="40"/>
				</g>
				<g>
					<rect id="path-1_1_" x="-0.4" y="-0.1" class="st1" width="40" height="40"/>
				</g>
			</g>
			<path id="icon" sketch:type="MSShapeGroup" class="st2" d="M18.4,31.3c-5,0-9.1-4.1-9.1-9.1V10.8c0-1.3,1-2.3,2.3-2.3
				c1.3,0,2.3,1,2.3,2.3v11.4c0,2.5,2,4.6,4.6,4.6h2.3c2.5,0,4.6-1.8,4.6-4c0-2.2-1.2-4-2.3-4h-4.6c-1.3,0-2.3-1-2.3-2.3
				c0-1.3,1-2.3,2.3-2.3H23c3.8,0,6.8,3.8,6.8,8.5c0,4.7-4.1,8.5-9.1,8.5H18.4z"/>
		</g>
	</g>
</g>
</svg>
