<?xml version="1.0" encoding="utf-8"?>
<!-- Generator: Adobe Illustrator 19.2.0, SVG Export Plug-In . SVG Version: 6.00 Build 0)  -->
<svg version="1.1" id="Layer_1" xmlns:sketch="http://www.bohemiancoding.com/sketch/ns"
	 xmlns="http://www.w3.org/2000/svg" xmlns:xlink="http://www.w3.org/1999/xlink" x="0px" y="0px" viewBox="0 0 40 40"
	 style="enable-background:new 0 0 40 40;" xml:space="preserve">
<style type="text/css">
	.st0{fill:#13527C;}
	.st1{fill:#FFFFFF;}
</style>
<title>email_hover</title>
<desc>Created with Sketch.</desc>
<g id="Page-1" sketch:type="MSPage">
	<g id="email_hover" sketch:type="MSLayerGroup">
		<rect id="bg" sketch:type="MSShapeGroup" class="st0" width="40" height="40">
		</rect>
		<g>
			<path id="icon_1_" sketch:type="MSShapeGroup" class="st1" d="M8.5,11.6v16.8h22.9V11.6H8.5L8.5,11.6z M29.9,13L20,20.7l-9.8-7.6
				L29.9,13L29.9,13z M10,27V14.3l10,7.9l10-7.9V27H10L10,27z"/>
			<path class="st1" d="M31.5,28.4h-23V11.6h23V28.4z M8.6,28.4h22.8V11.6H8.6V28.4z M30.1,27H10V14.2L20,22.1l10.1-7.9V27z
				 M10.1,26.9h20V14.4l-10,7.8l-10-7.8V26.9z M20,20.8L20,20.8l-10-7.7L30,13L20,20.8z M10.3,13.2l9.7,7.5l9.7-7.6L10.3,13.2z"/>
		</g>
	</g>
</g>
</svg>
