<?xml version="1.0" encoding="utf-8"?>
<!-- Generator: Adobe Illustrator 19.2.0, SVG Export Plug-In . SVG Version: 6.00 Build 0)  -->
<svg version="1.1" id="Layer_1" xmlns:sketch="http://www.bohemiancoding.com/sketch/ns"
	 xmlns="http://www.w3.org/2000/svg" xmlns:xlink="http://www.w3.org/1999/xlink" x="0px" y="0px" viewBox="0 0 40 40"
	 style="enable-background:new 0 0 40 40;" xml:space="preserve">
<style type="text/css">
	.st0{fill:#4B4B4C;}
	.st1{fill:#FFFFFF;}
</style>
<title>myspace</title>
<desc>Created with Sketch.</desc>
<g id="Page-1" sketch:type="MSPage">
	<g id="myspace" sketch:type="MSLayerGroup">
		<rect id="bg" sketch:type="MSShapeGroup" class="st0" width="40" height="40">
		</rect>
		<path id="icon" sketch:type="MSShapeGroup" class="st1" d="M29.7,20.3c2.5,0,4.6-2.1,4.6-4.6c0-2.5-2.1-4.6-4.6-4.6
			c-2.6,0-4.6,2.1-4.6,4.6C25.1,18.3,27.2,20.3,29.7,20.3z M30.1,21.4c0,0-0.1,0-0.1,0c0,0-0.1,0-0.1,0h-0.2h0h-0.2c0,0-0.1,0-0.1,0
			c0,0-0.1,0-0.1,0c-2.6,0.2-4.7,2.6-4.7,5.2v1.8c0,0.3,0.2,0.5,0.5,0.5h0.2h8.9h0.2c0.3,0,0.5-0.2,0.5-0.5v-1.8
			C34.8,24,32.7,21.6,30.1,21.4z M19,21.2c2.3,0,4.2-1.8,4.2-4.1s-1.9-4.1-4.2-4.1c-2.3,0-4.2,1.8-4.2,4.1
			C14.9,19.3,16.7,21.2,19,21.2z M19.4,22.1L19.4,22.1c-0.1,0-0.1,0-0.2,0c-0.1,0-0.1,0-0.2,0h0c-0.1,0-0.1,0-0.2,0c0,0-0.1,0-0.1,0
			h-0.1c-2.3,0.2-4.2,2.3-4.2,4.7v1.6c0,0.2,0.2,0.4,0.4,0.4H15h8h0.1c0.2,0,0.4-0.2,0.4-0.4v-1.6C23.6,24.4,21.7,22.3,19.4,22.1z
			 M9.3,22c2.1,0,3.7-1.7,3.7-3.7s-1.7-3.7-3.7-3.7c-2.1,0-3.7,1.7-3.7,3.7S7.2,22,9.3,22z M9.6,22.8C9.6,22.8,9.6,22.8,9.6,22.8
			l-0.1,0c-0.1,0-0.1,0-0.2,0h0c-0.1,0-0.1,0-0.2,0H9.1H9C6.9,23,5.2,24.9,5.2,27v1.4c0,0.2,0.2,0.4,0.4,0.4h0.1h7.2H13
			c0.2,0,0.4-0.2,0.4-0.4V27C13.4,24.9,11.8,23,9.6,22.8z"/>
	</g>
</g>
</svg>
