<?xml version="1.0" encoding="utf-8"?>
<!-- Generator: Adobe Illustrator 19.2.0, SVG Export Plug-In . SVG Version: 6.00 Build 0)  -->
<svg version="1.1" id="Layer_1" xmlns:sketch="http://www.bohemiancoding.com/sketch/ns"
	 xmlns="http://www.w3.org/2000/svg" xmlns:xlink="http://www.w3.org/1999/xlink" x="0px" y="0px" viewBox="0 0 40 40"
	 style="enable-background:new 0 0 40 40;" xml:space="preserve">
<style type="text/css">
	.st0{fill:#055D00;}
	.st1{fill:#FFFFFF;}
</style>
<title>newsvine</title>
<desc>Created with Sketch.</desc>
<g id="Page-1" sketch:type="MSPage">
	<g id="newsvine" sketch:type="MSLayerGroup">
		<rect id="bg" sketch:type="MSShapeGroup" class="st0" width="40" height="40">
		</rect>
		<path id="icon" sketch:type="MSShapeGroup" class="st1" d="M19.3,26.4v-4.2l-2.4-1.7c-0.2,0.1-0.5,0.2-0.7,0.2
			c-0.8,0-1.5-0.6-1.5-1.5c0-0.8,0.7-1.5,1.5-1.5c0.8,0,1.5,0.7,1.5,1.5c0,0.1,0,0.2,0,0.3l1.7,1.2v-4.2l-2.4-1.7
			c-0.2,0.1-0.5,0.2-0.7,0.2c-0.8,0-1.5-0.7-1.5-1.5c0-0.8,0.7-1.5,1.5-1.5c0.8,0,1.5,0.7,1.5,1.5c0,0.1,0,0.2,0,0.3l1.7,1.2v-3.7
			h1.4V18l1.7-1.2c0-0.1,0-0.2,0-0.3c0-0.8,0.6-1.5,1.5-1.5c0.8,0,1.5,0.7,1.5,1.5c0,0.8-0.6,1.5-1.5,1.5c-0.3,0-0.5-0.1-0.7-0.2
			l-2.4,1.7v4.2l1.7-1.2c0-0.1,0-0.2,0-0.3c0-0.8,0.6-1.5,1.5-1.5c0.8,0,1.5,0.7,1.5,1.5c0,0.8-0.6,1.5-1.5,1.5
			c-0.3,0-0.5-0.1-0.7-0.2l-2.4,1.7v4.2l1.7-1.2c0-0.1,0-0.2,0-0.3c0-0.8,0.6-1.5,1.5-1.5c0.8,0,1.5,0.6,1.5,1.5
			c0,0.8-0.6,1.5-1.5,1.5c-0.3,0-0.5-0.1-0.7-0.2l-2.4,1.7v1.5h4.1c2,0,3.6-1.6,3.6-3.7V11.4c0-2-1.6-3.6-3.6-3.6h-9.5
			c-2,0-3.6,1.6-3.6,3.6v17.2c0,2,1.6,3.7,3.6,3.7h4.1v-4.4l-2.4-1.7c-0.2,0.1-0.5,0.2-0.7,0.2c-0.8,0-1.5-0.6-1.5-1.5
			c0-0.8,0.7-1.5,1.5-1.5c0.8,0,1.5,0.6,1.5,1.5c0,0.1,0,0.2,0,0.3L19.3,26.4L19.3,26.4z"/>
	</g>
</g>
</svg>
