<?xml version="1.0" encoding="utf-8"?>
<!-- Generator: Adobe Illustrator 19.2.0, SVG Export Plug-In . SVG Version: 6.00 Build 0)  -->
<svg version="1.1" id="Layer_1" xmlns:sketch="http://www.bohemiancoding.com/sketch/ns"
	 xmlns="http://www.w3.org/2000/svg" xmlns:xlink="http://www.w3.org/1999/xlink" x="0px" y="0px" viewBox="0 0 40 40"
	 style="enable-background:new 0 0 40 40;" xml:space="preserve">
<style type="text/css">
	.st0{fill:#B93406;}
	.st1{fill:#FFFFFF;}
</style>
<title>reddit_hover</title>
<desc>Created with Sketch.</desc>
<g id="Page-1" sketch:type="MSPage">
	<g id="reddit_hover" sketch:type="MSLayerGroup">
		<rect id="bg" sketch:type="MSShapeGroup" class="st0" width="40" height="40">
		</rect>
		<path id="icon" sketch:type="MSShapeGroup" class="st1" d="M31.6,18.1c-0.9-1.2-2.6-1.5-3.9-0.6c-0.2,0.1-0.3,0.1-0.4,0
			c-1.1-0.7-2.3-1.2-3.6-1.5c-1-0.2-2-0.3-3-0.4c0.5-1.5,1-2.9,1.5-4.3c0.1-0.2,0.2-0.1,0.3-0.1c1.1,0.3,2.2,0.5,3.3,0.8
			c0.3,0.1,0.4,0.2,0.4,0.4c0.2,1.1,1.1,1.9,2.2,1.9c1.1,0,2.1-0.8,2.3-1.8c0.2-1.1-0.4-2.2-1.4-2.6c-1-0.4-2.2,0-2.8,1
			c-0.2,0.3-0.3,0.3-0.6,0.2c-1.3-0.3-2.6-0.6-3.9-1c-0.3-0.1-0.4,0-0.5,0.3c-0.6,1.6-1.1,3.2-1.7,4.9c-0.1,0.2-0.2,0.3-0.4,0.3
			c-2.4,0.1-4.6,0.6-6.6,1.9c-0.2,0.1-0.3,0.1-0.4,0c-0.7-0.5-1.4-0.6-2.2-0.4c-1.1,0.3-1.8,1-2.1,2.1c-0.3,1.1,0.1,2.1,1,2.8
			C9,22,9.2,22.1,9.1,22.3c-0.2,1.5,0.2,2.8,1.1,3.9c0.9,1.1,2,2,3.2,2.6c3.6,1.7,7.2,1.9,11,0.8c2-0.6,3.8-1.5,5.1-3.2
			c1-1.2,1.5-2.5,1.3-4c0-0.2,0-0.3,0.2-0.4C32.2,21,32.5,19.3,31.6,18.1L31.6,18.1z M28.4,10.6c0.8,0,1.4,0.6,1.4,1.4
			c0,0.8-0.6,1.4-1.4,1.4c-0.8,0-1.4-0.7-1.4-1.4C27,11.2,27.7,10.6,28.4,10.6L28.4,10.6z M9.1,18.6c0.6-0.8,1.7-1,2.6-0.4
			c-1,0.8-1.8,1.8-2.3,3C8.6,20.5,8.5,19.3,9.1,18.6L9.1,18.6z M29.1,25.5c-1.1,1.5-2.6,2.4-4.3,3c-1.6,0.6-3.2,0.8-4.8,0.8
			c-2.3,0-4.5-0.4-6.6-1.6c-1.1-0.6-2-1.3-2.7-2.3c-1.1-1.6-1.1-3.5,0-5.1c0.9-1.3,2.2-2.2,3.7-2.8c4.1-1.6,8.1-1.5,12,0.5
			c1.1,0.5,2,1.3,2.7,2.3C30.3,21.9,30.3,23.9,29.1,25.5L29.1,25.5z M30.5,21.2c-0.5-1.2-1.3-2.2-2.3-3c0.7-0.6,1.9-0.4,2.5,0.3
			C31.5,19.3,31.4,20.5,30.5,21.2z M23.4,25.7c-0.3,0.3-0.6,0.5-1,0.6c-2,0.6-4,0.7-5.8-0.6c-0.2-0.2-0.4-0.1-0.6,0
			c-0.2,0.2-0.2,0.4,0,0.6c0.2,0.3,0.5,0.5,0.9,0.6c1,0.5,2,0.7,3.3,0.7c0.2,0,0.6,0,1-0.1c1-0.2,2-0.5,2.8-1.1
			c0.2-0.2,0.3-0.4,0.1-0.7C23.8,25.4,23.6,25.5,23.4,25.7z M23.7,19.9c-0.9,0-1.7,0.8-1.7,1.7c0,1,0.8,1.7,1.7,1.7
			c0.9,0,1.7-0.8,1.7-1.7C25.4,20.7,24.6,19.9,23.7,19.9z M18.2,21.6c0-0.9-0.8-1.7-1.7-1.7c-0.9,0-1.7,0.8-1.7,1.7
			c0,0.9,0.7,1.7,1.7,1.7C17.5,23.3,18.2,22.6,18.2,21.6z"/>
	</g>
</g>
</svg>
