<svg
  xmlns="http://www.w3.org/2000/svg"
  width="48"
  height="48"
  viewBox="0 0 48 48"
><path
    d="m26 2 2 5.998 4.485 1.86 5.657-2.829 2.829 2.829-2.829 5.657L40 20l6 1.384v5.007L40 28l-1.858 4.485 3.264 5.222-3.54 3.54-5.38-3.105L28 40l-2 6h-4l-2-6-4.485-1.858-5.657 2.829-2.829-2.829 2.829-5.657L7.998 28 2 26v-4l6-2 1.858-4.485-2.829-5.657 2.829-2.829 5.657 2.829L20 7.998 22 2zm-1.987 14C19.589 16 16 19.582 16 23.998 16 28.412 19.589 32 24.013 32S32 28.41 32 23.998A7.983 7.983 0 0 0 24.013 16"
  /></svg>
