<?xml version="1.0" encoding="UTF-8"?>
<svg width="380px" height="127px" viewBox="0 0 380 127" version="1.1" xmlns="http://www.w3.org/2000/svg" xmlns:xlink="http://www.w3.org/1999/xlink">
    <!-- Generator: Sketch 55.1 (78136) - https://sketchapp.com -->
    <title>banner</title>
    <desc>Created with Sketch.</desc>
    <defs>
        <rect id="path-1" x="0" y="0" width="380" height="127"></rect>
    </defs>
    <g id="thumbnails---final" stroke="none" stroke-width="1" fill="none" fill-rule="evenodd">
        <g id="thumbnails---final_symbols" transform="translate(-540.000000, -1954.000000)">
            <g id="Group-2" transform="translate(20.000000, 20.000000)">
                <g id="Group" transform="translate(0.000000, 1825.000000)">
                    <g id="ec_comp_hero_banner" transform="translate(480.000000, 0.000000)">
                        <g id="banner" transform="translate(40.000000, 109.000000)">
                            <g id="gallery">
                                <g id="">
                                    <mask id="mask-2" fill="white">
                                        <use xlink:href="#path-1"></use>
                                    </mask>
                                    <use id="Mask" fill="#BED0E4" xlink:href="#path-1"></use>
                                    <path d="M314.717949,61.5461538 L314.717949,202.223077 C314.717949,208.735895 312.453323,214.271797 307.924079,218.830769 C303.394834,223.389741 297.89503,225.669231 291.424679,225.669231 L89.5496795,225.669231 C83.0793294,225.669231 77.5795248,223.389741 73.0502804,218.830769 C68.5210361,214.271797 66.2564103,208.735895 66.2564103,202.223077 L66.2564103,61.5461538 C66.2564103,55.0333358 68.5210361,49.4974334 73.0502804,44.9384615 C77.5795248,40.3794897 83.0793294,38.1 89.5496795,38.1 L132.254006,38.1 L138.077324,21.9807692 C140.018429,17.4217974 142.930088,13.7583358 146.8123,10.9903846 C150.694511,8.22243341 155.061999,6.83846154 159.914764,6.83846154 L221.059595,6.83846154 C225.91236,6.83846154 230.279848,8.22243341 234.162059,10.9903846 C238.044271,13.7583358 240.955929,17.4217974 242.897035,21.9807692 L248.720353,38.1 L291.424679,38.1 C297.89503,38.1 303.394834,40.3794897 307.924079,44.9384615 C312.453323,49.4974334 314.717949,55.0333358 314.717949,61.5461538 Z M248.461538,132.861538 C248.461538,122.115385 245.906555,112.264741 240.796581,103.309615 C235.686607,94.3544897 228.74024,87.2717974 219.957479,82.0615385 C211.174718,76.8512796 201.513675,74.2461538 190.974359,74.2461538 C180.435043,74.2461538 170.774,76.8512796 161.991239,82.0615385 C153.208478,87.2717974 146.262111,94.3544897 141.152137,103.309615 C136.042163,112.264741 133.487179,122.115385 133.487179,132.861538 C133.487179,143.607692 136.042163,153.458336 141.152137,162.413462 C146.262111,171.368587 153.208478,178.45128 161.991239,183.661538 C170.774,188.871797 180.435043,191.476923 190.974359,191.476923 C201.513675,191.476923 211.174718,188.871797 219.957479,183.661538 C228.74024,178.45128 235.686607,171.368587 240.796581,162.413462 C245.906555,153.458336 248.461538,143.607692 248.461538,132.861538 Z M233.846154,131.396154 C233.846154,143.252448 229.575949,153.462036 221.035548,162.024913 C212.495146,170.587789 202.312354,174.869231 190.487179,174.869231 C178.662005,174.869231 168.479213,170.587789 159.938811,162.024913 C151.39841,153.462036 147.128205,143.252448 147.128205,131.396154 C147.128205,119.53986 151.39841,109.330271 159.938811,100.767395 C168.479213,92.2045188 178.662005,87.9230769 190.487179,87.9230769 C202.312354,87.9230769 212.495146,92.2045188 221.035548,100.767395 C229.575949,109.330271 233.846154,119.53986 233.846154,131.396154 Z" fill="#C6D9EE" fill-rule="nonzero" mask="url(#mask-2)"></path>
                                </g>
                                <g id="Group" transform="translate(119.846154, 78.153846)"></g>
                            </g>
                            <g id="Group-2" transform="translate(92.564103, 39.076923)">
                                <rect id="Rectangle-Copy-5" fill="#FFDD39" x="71.1282051" y="48.8461538" width="53.5897436" height="19.5384615"></rect>
                                <rect id="Rectangle-Copy-4" fill="#404040" x="29.2307692" y="1.77635684e-15" width="136.410256" height="9.76923077"></rect>
                                <rect id="Rectangle-Copy-6" fill="#404040" x="0" y="19.5384615" width="194.871795" height="9.76923077"></rect>
                            </g>
                        </g>
                    </g>
                </g>
            </g>
        </g>
    </g>
</svg>