<?xml version="1.0" encoding="UTF-8"?>
<svg width="460px" height="345px" viewBox="0 0 460 345" version="1.1" xmlns="http://www.w3.org/2000/svg" xmlns:xlink="http://www.w3.org/1999/xlink">
    <title>eu_comp_hero_banner</title>
    <defs>
        <rect id="path-1" x="0" y="0" width="380" height="126.666667"></rect>
    </defs>
    <g id="thumbnails---final" stroke="none" stroke-width="1" fill="none" fill-rule="evenodd">
        <g id="EU-thumbnails---final_symbols" transform="translate(-500.000000, -1845.000000)">
            <g id="eu_comp_hero_banner" transform="translate(500.000000, 1845.000000)">
                <g id="thumb-back" fill="#FFFFFF" stroke="#979797">
                    <rect id="Rectangle" x="0.5" y="0.5" width="459" height="344"></rect>
                </g>
                <g id="banner" transform="translate(40.000000, 109.000000)">
                    <g id="gallery">
                        <g id="">
                            <mask id="mask-2" fill="white">
                                <use xlink:href="#path-1"></use>
                            </mask>
                            <use id="Mask" fill="#BED0E4" xlink:href="#path-1"></use>
                            <path d="M314.717949,61.3846154 L314.717949,201.692308 C314.717949,208.188032 312.453323,213.709404 307.924079,218.25641 C303.394834,222.803416 297.89503,225.076923 291.424679,225.076923 L89.5496795,225.076923 C83.0793294,225.076923 77.5795248,222.803416 73.0502804,218.25641 C68.5210361,213.709404 66.2564103,208.188032 66.2564103,201.692308 L66.2564103,61.3846154 C66.2564103,54.8888914 68.5210361,49.3675189 73.0502804,44.8205128 C77.5795248,40.2735068 83.0793294,38 89.5496795,38 L132.254006,38 L138.077324,21.9230769 C140.018429,17.3760709 142.930088,13.7222247 146.8123,10.9615385 C150.694511,8.20085222 155.061999,6.82051282 159.914764,6.82051282 L221.059595,6.82051282 C225.91236,6.82051282 230.279848,8.20085222 234.162059,10.9615385 C238.044271,13.7222247 240.955929,17.3760709 242.897035,21.9230769 L248.720353,38 L291.424679,38 C297.89503,38 303.394834,40.2735068 307.924079,44.8205128 C312.453323,49.3675189 314.717949,54.8888914 314.717949,61.3846154 Z M248.461538,132.512821 C248.461538,121.794872 245.906555,111.970083 240.796581,103.038462 C235.686607,94.1068401 228.74024,87.0427375 219.957479,81.8461538 C211.174718,76.6495702 201.513675,74.0512821 190.974359,74.0512821 C180.435043,74.0512821 170.774,76.6495702 161.991239,81.8461538 C153.208478,87.0427375 146.262111,94.1068401 141.152137,103.038462 C136.042163,111.970083 133.487179,121.794872 133.487179,132.512821 C133.487179,143.230769 136.042163,153.055558 141.152137,161.987179 C146.262111,170.918801 153.208478,177.982904 161.991239,183.179487 C170.774,188.376071 180.435043,190.974359 190.974359,190.974359 C201.513675,190.974359 211.174718,188.376071 219.957479,183.179487 C228.74024,177.982904 235.686607,170.918801 240.796581,161.987179 C245.906555,153.055558 248.461538,143.230769 248.461538,132.512821 Z M233.846154,131.051282 C233.846154,142.876457 229.575949,153.059249 221.035548,161.59965 C212.495146,170.140052 202.312354,174.410256 190.487179,174.410256 C178.662005,174.410256 168.479213,170.140052 159.938811,161.59965 C151.39841,153.059249 147.128205,142.876457 147.128205,131.051282 C147.128205,119.226107 151.39841,109.043315 159.938811,100.502914 C168.479213,91.9625122 178.662005,87.6923077 190.487179,87.6923077 C202.312354,87.6923077 212.495146,91.9625122 221.035548,100.502914 C229.575949,109.043315 233.846154,119.226107 233.846154,131.051282 Z" fill="#C6D9EE" fill-rule="nonzero" mask="url(#mask-2)"></path>
                        </g>
                        <g id="Group" transform="translate(119.846154, 77.948718)"></g>
                    </g>
                    <g id="Group-2" transform="translate(92.564103, 38.974359)">
                        <rect id="Rectangle-Copy-5" fill="#FFCC00" x="71.1282051" y="48.7179487" width="53.5897436" height="19.4871795" rx="4"></rect>
                        <rect id="Rectangle-Copy-4" fill="#404040" x="29.2307692" y="0" width="136.410256" height="9.74358974"></rect>
                        <rect id="Rectangle-Copy-6" fill="#404040" x="0" y="19.4871795" width="194.871795" height="9.74358974"></rect>
                    </g>
                </g>
            </g>
        </g>
    </g>
</svg>