<?xml version="1.0" encoding="UTF-8"?>
<svg width="140px" height="70px" viewBox="0 0 140 70" version="1.1" xmlns="http://www.w3.org/2000/svg" xmlns:xlink="http://www.w3.org/1999/xlink">
    <!-- Generator: Sketch 60 (88103) - https://sketch.com -->
    <title>ec_comp_checkbox</title>
    <desc>Created with Sketch.</desc>
    <defs>
        <path d="M9.79999797,0 L9.79999797,9.79999959 L0,9.79999959 L0,0 L9.79999797,0 Z M8.81999801,0.979999959 L0.979999959,0.979999959 L0.979999959,8.81999964 L8.81999801,8.81999964 L8.81999801,0.979999959 Z" id="path-1"></path>
        <path d="M9.79999797,0 L9.79999797,9.79999959 L0,9.79999959 L0,0 L9.79999797,0 Z M8.81999801,0.979999959 L0.979999959,0.979999959 L0.979999959,8.81999964 L8.81999801,8.81999964 L8.81999801,0.979999959 Z" id="path-3"></path>
        <path d="M9.79999797,0 L9.79999797,9.79999959 L0,9.79999959 L0,0 L9.79999797,0 Z M8.81999801,0.979999959 L0.979999959,0.979999959 L0.979999959,8.81999964 L8.81999801,8.81999964 L8.81999801,0.979999959 Z" id="path-5"></path>
        <polygon id="path-7" points="5.87999978 1.46999994 3.13599988 4.36859137 1.89466659 3.05732382 0.979999959 4.02352096 3.13599988 6.36999974 6.85999972 2.43619708"></polygon>
    </defs>
    <g id="thumbnails---final" stroke="none" stroke-width="1" fill="none" fill-rule="evenodd">
        <g id="thumbnails---final_symbols" transform="translate(-660.000000, -3808.000000)">
            <g id="ec_comp_checkbox" transform="translate(500.000000, 3670.000000)">
                <g id="ecl-component-library" opacity="0" fill="#FFFFFF" stroke="#979797">
                    <rect id="Rectangle" x="0.5" y="0.5" width="459" height="344"></rect>
                </g>
                <g id="checkbox" transform="translate(160.000000, 138.000000)">
                    <g id="Checkboxes/Checkbox_Default" transform="translate(0.000000, 20.000000)">
                        <g id="Shapes/Rectangle_Border-2px_Basic-Radius-0px">
                            <rect id="Fill" fill="#FFFFFF" fill-rule="evenodd" x="0" y="0" width="9.79999959" height="9.79999959"></rect>
                            <mask id="mask-2" fill="white">
                                <use xlink:href="#path-1"></use>
                            </mask>
                            <use id="Border" fill="#9F9F9F" fill-rule="evenodd" xlink:href="#path-1"></use>
                        </g>
                    </g>
                    <g id="Checkboxes/Checkbox_Default" transform="translate(0.000000, 60.000000)">
                        <g id="Shapes/Rectangle_Border-2px_Basic-Radius-0px">
                            <rect id="Fill" fill="#FFFFFF" fill-rule="evenodd" x="0" y="0" width="9.79999959" height="9.79999959"></rect>
                            <mask id="mask-4" fill="white">
                                <use xlink:href="#path-3"></use>
                            </mask>
                            <use id="Border" fill="#9F9F9F" fill-rule="evenodd" xlink:href="#path-3"></use>
                        </g>
                    </g>
                    <g id="Checkboxes/Checkbox_Default" transform="translate(0.000000, 40.000000)">
                        <g id="Shapes/Rectangle_Border-2px_Basic-Radius-0px">
                            <rect id="Fill" fill="#FFFFFF" fill-rule="evenodd" x="0" y="0" width="9.79999959" height="9.79999959"></rect>
                            <mask id="mask-6" fill="white">
                                <use xlink:href="#path-5"></use>
                            </mask>
                            <use id="Border" fill="#9F9F9F" fill-rule="evenodd" xlink:href="#path-5"></use>
                        </g>
                    </g>
                    <polygon id="Fill-8-Copy-2" fill="#CFCFCF" points="21 10 140 10 140 0 21 0"></polygon>
                    <polygon id="Fill-8-Copy-2" fill="#CFCFCF" points="21 30 122 30 122 20 21 20"></polygon>
                    <polygon id="Fill-8-Copy-2" fill="#CFCFCF" points="21 50 140 50 140 40 21 40"></polygon>
                    <polygon id="Fill-8-Copy-2" fill="#CFCFCF" points="21 70 113 70 113 60 21 60"></polygon>
                    <g id="Checkboxes/Checkbox_Checked">
                        <g id="Shapes/Rectangle_Fill_Basic-Radius-0px" fill="#004494">
                            <rect id="Fill" x="0" y="0" width="9.79999959" height="9.79999959"></rect>
                        </g>
                        <g id="Icons/16x16/UI/Icon_Check" transform="translate(0.980000, 0.980000)">
                            <mask id="mask-8" fill="white">
                                <use xlink:href="#path-7"></use>
                            </mask>
                            <use id="Check" fill="#FFFFFF" fill-rule="evenodd" xlink:href="#path-7"></use>
                        </g>
                    </g>
                </g>
            </g>
        </g>
    </g>
</svg>
