<?xml version="1.0" encoding="UTF-8"?>
<svg width="460px" height="345px" viewBox="0 0 460 345" version="1.1" xmlns="http://www.w3.org/2000/svg" xmlns:xlink="http://www.w3.org/1999/xlink">
    <title>eu_comp_checkbox</title>
    <defs>
        <polygon id="path-1" points="5.87999978 1.46999994 3.13599988 4.36859137 1.89466659 3.05732382 0.979999959 4.02352096 3.13599988 6.36999974 6.85999972 2.43619708"></polygon>
    </defs>
    <g id="thumbnails---final" stroke="none" stroke-width="1" fill="none" fill-rule="evenodd">
        <g id="EU-thumbnails---final_symbols" transform="translate(-500.000000, -3670.000000)">
            <g id="eu_comp_checkbox" transform="translate(500.000000, 3670.000000)">
                <g id="Group" transform="translate(160.000000, 138.000000)">
                    <g id="Checkboxes/Checkbox_Default" transform="translate(0.000000, 20.000000)" stroke="#979797">
                        <rect id="Rectangle" x="0" y="0" width="10" height="10" rx="1"></rect>
                    </g>
                    <g id="Checkboxes/Checkbox_Default" transform="translate(0.000000, 60.000000)" stroke="#979797">
                        <rect id="Rectangle" x="0" y="0" width="10" height="10" rx="1"></rect>
                    </g>
                    <g id="Checkboxes/Checkbox_Default" transform="translate(0.000000, 40.000000)" stroke="#979797">
                        <rect id="Rectangle" x="0" y="0" width="10" height="10" rx="1"></rect>
                    </g>
                    <polygon id="Fill-8-Copy-2" fill="#CFCFCF" points="21 10 140 10 140 0 21 0"></polygon>
                    <polygon id="Fill-8-Copy-2" fill="#CFCFCF" points="21 30 122 30 122 20 21 20"></polygon>
                    <polygon id="Fill-8-Copy-2" fill="#CFCFCF" points="21 50 140 50 140 40 21 40"></polygon>
                    <polygon id="Fill-8-Copy-2" fill="#CFCFCF" points="21 70 113 70 113 60 21 60"></polygon>
                    <g id="Checkboxes/Checkbox_Checked">
                        <rect id="Rectangle" fill="#0E47CB" x="0" y="0" width="10" height="10" rx="1"></rect>
                        <g id="Icon" transform="translate(0.980000, 0.980000)">
                            <mask id="mask-2" fill="white">
                                <use xlink:href="#path-1"></use>
                            </mask>
                            <use id="Check" fill="#FFFFFF" xlink:href="#path-1"></use>
                        </g>
                    </g>
                </g>
            </g>
        </g>
    </g>
</svg>