<?xml version="1.0" encoding="utf-8"?><svg xmlns="http://www.w3.org/2000/svg" xmlns:xlink="http://www.w3.org/1999/xlink"><symbol viewBox="0 0 24 24" id="branded--facebook" xmlns="http://www.w3.org/2000/svg"><path d="M7 8.224h2.143v-2.19c0-.984 0-2.407.714-3.392C10.47 1.657 11.387 1 13.122 1 15.776 1 17 1.438 17 1.438l-.51 3.393s-.817-.22-1.633-.22c-.816 0-1.53.22-1.53 1.205v2.627h3.367l-.204 3.174h-3.266V23h-3.98V11.398H7.103V8.224H7z"/></symbol><symbol viewBox="0 0 24 24" id="branded--google-plus" xmlns="http://www.w3.org/2000/svg"><path d="M8.041 10.857h6.65c.06.4.11.8.11 1.326 0 4.571-2.696 7.817-6.76 7.817C4.15 20 1 16.423 1 12s3.149-8 7.041-8c1.902 0 3.491.789 4.718 2.091l-1.911 2.092A3.733 3.733 0 0 0 8.04 6.949C5.637 6.949 3.676 9.21 3.676 12s1.961 5.051 4.365 5.051c2.787 0 3.833-2.274 3.994-3.45H8.04v-2.744zM23 10.82v2.286h-2.012v2.286h-2.012v-2.286h-2.011V10.82h2.011V8.535h2.012v2.285H23z"/></symbol><symbol viewBox="0 0 24 24" id="branded--linkedin" xmlns="http://www.w3.org/2000/svg"><path d="M5.84 22.5H1.55V8.077h4.29V22.5zM3.64 6.346C2.1 6.346 1 5.308 1 3.923S1.99 1.5 3.64 1.5c1.54 0 2.64 1.038 2.64 2.423s-.99 2.423-2.64 2.423zM23 22.5h-4.95V15c0-1.846-.77-3.23-2.42-3.23-1.32 0-1.98.922-2.31 1.73v9H8.48V8.077h4.84v2.308c.22-.923 1.76-2.423 4.29-2.423 3.08 0 5.39 2.076 5.39 6.461V22.5z"/></symbol><symbol viewBox="0 0 24 24" id="branded--pinterest" xmlns="http://www.w3.org/2000/svg"><path d="M11.78 23c-.99 0-2.09-.11-3.08-.442.44-.664.88-1.548 1.21-2.322.11-.553.77-2.985.77-2.985.44.774 1.54 1.437 2.75 1.437 3.52 0 5.94-3.206 5.94-7.517 0-3.206-2.75-6.412-7.04-6.412-5.17 0-7.92 3.759-7.92 6.854 0 1.99.77 3.648 2.2 4.201.22.11.55 0 .55-.221 0-.11.11-.663.22-.884.11-.222 0-.443-.11-.664-.44-.553-.77-1.216-.77-2.21 0-2.765 2.09-5.307 5.39-5.307 2.97 0 4.51 1.768 4.51 4.311 0 3.206-1.43 5.86-3.52 5.86-1.21 0-2.09-.885-1.65-2.101.44-1.437.99-2.874.99-3.87 0-.884-.55-1.658-1.43-1.658-1.21 0-2.09 1.216-2.09 2.875 0 .995.44 1.658.44 1.658s-1.21 5.085-1.43 5.97c-.22.774-.22 1.769-.11 2.653C3.75 20.568 1 16.588 1 12.056 1 5.974 5.95 1 12 1s11 4.975 11 11.055C22.78 18.025 17.83 23 11.78 23z"/></symbol><symbol viewBox="0 0 24 24" id="branded--rss" xmlns="http://www.w3.org/2000/svg"><path d="M6.035 22.015a2.99 2.99 0 0 1-2.08.876c-.766 0-1.532-.438-2.08-.876C1.439 21.468 1 20.7 1 19.935s.438-1.532.876-2.08a2.99 2.99 0 0 1 2.08-.875c.765 0 1.532.438 2.079.876a2.99 2.99 0 0 1 .875 2.08c-.109.875-.328 1.532-.875 2.079zm5.254.876c0-2.737-.986-5.254-2.956-7.224-1.97-1.97-4.487-2.956-7.224-2.956V8.552c3.94 0 7.553 1.642 10.18 4.269 2.626 2.627 4.268 6.13 4.268 10.179l-4.268-.11zm7.442 0c0-9.742-7.99-17.732-17.622-17.732V1c6.02 0 11.493 2.408 15.433 6.458C20.482 11.508 23 16.87 23 22.89h-4.269z"/></symbol><symbol viewBox="0 0 24 24" id="branded--skype" xmlns="http://www.w3.org/2000/svg"><path d="M22.45 12.054C22.45 6.31 17.83 1.76 12 1.76c-.66 0-1.21 0-1.76.108C9.36 1.217 8.15 1 7.05 1 3.64 1 1 3.71 1 6.96c0 1.193.22 2.168.77 3.035-.11.65-.11 1.3-.11 2.06 0 5.743 4.62 10.295 10.45 10.295.66 0 1.32 0 1.98-.109.88.542 1.76.759 2.86.759 3.41 0 6.05-2.71 6.05-5.96 0-.976-.22-1.951-.66-2.71 0-.759.11-1.517.11-2.276zM17.5 17.04c-.55.65-1.21 1.3-2.09 1.626-.88.434-2.09.542-3.19.542-1.54 0-2.75-.217-3.74-.759-.66-.433-1.32-.867-1.65-1.517-.44-.65-.66-1.3-.66-1.95 0-.434.11-.76.44-.976.22-.217.66-.434.99-.434.33 0 .66.109.88.217.22.217.44.542.66.867.11.434.44.759.66.976.22.216.55.541.88.65.44.108.88.217 1.54.217.88 0 1.54-.109 2.09-.542.55-.434.77-.759.77-1.3 0-.434-.11-.76-.44-.976a2.505 2.505 0 0 0-1.21-.65c-.55-.109-1.21-.217-1.98-.542a30.7 30.7 0 0 1-2.75-.759c-.77-.217-1.43-.759-1.76-1.3-.44-.542-.66-1.3-.66-2.06 0-.758.22-1.517.77-2.059.55-.65 1.21-.975 2.09-1.409.88-.216 1.98-.541 3.08-.541.88 0 1.76.108 2.42.216.66.217 1.32.542 1.65.867.55.434.77.759.99 1.192.22.434.44.76.44 1.193 0 .433-.11.758-.44.975-.33.217-.66.433-.99.433-.33 0-.66-.108-.88-.216-.22-.109-.44-.434-.66-.759-.22-.542-.55-.867-.88-1.192-.44-.217-.88-.434-1.76-.434-.77 0-1.43.109-1.76.434-.88.433-.99.759-.99 1.192 0 .217.11.434.22.65.11.109.44.434.66.542.22.109.55.217.88.434.22.108.77.216 1.43.433.88.109 1.65.434 2.31.65.66.217 1.32.542 1.76.76.55.433.88.758 1.21 1.3.22.541.44 1.192.44 1.734-.22.758-.44 1.517-.77 2.275z"/></symbol><symbol viewBox="0 0 24 24" id="branded--twitter" xmlns="http://www.w3.org/2000/svg"><path d="M20.592 8.031C20.592 14.068 16.104 21 7.896 21 5.269 21 2.86 20.217 1 18.876h.985c2.08 0 3.94-.783 5.582-2.013a4.415 4.415 0 0 1-4.268-3.13c.437.112.656.112.875.112.438 0 .766 0 1.204-.112-2.08-.447-3.612-2.236-3.612-4.472.657.223 1.314.559 2.08.559-1.314-.783-2.08-2.236-2.08-3.801 0-.895.22-1.677.657-2.348 2.189 2.907 5.582 4.695 9.303 4.92-.11-.448-.11-.672-.11-1.007 0-2.46 2.08-4.584 4.488-4.584 1.423 0 2.627.559 3.394 1.453.985-.111 1.97-.559 2.845-1.006-.219 1.006-.985 2.013-1.97 2.46.876-.112 1.751-.447 2.627-.783-.766.783-1.532 1.565-2.408 2.236v.671z"/></symbol><symbol viewBox="0 0 24 24" id="branded--youtube" xmlns="http://www.w3.org/2000/svg"><path d="M9.729 15.32l-.001-7.191 5.944 3.608-5.943 3.582zM22.78 6.882s-.215-1.763-.874-2.54c-.837-1.02-1.775-1.024-2.205-1.084C16.623 3 12.005 3 12.005 3h-.01S7.377 3 4.3 3.259c-.43.06-1.368.065-2.205 1.084-.66.777-.874 2.54-.874 2.54S1 8.954 1 11.025v1.942c0 2.07.22 4.142.22 4.142s.215 1.763.874 2.54c.837 1.02 1.936.987 2.426 1.094C6.28 20.939 12 21 12 21s4.623-.008 7.701-.267c.43-.06 1.368-.065 2.205-1.084.66-.777.874-2.54.874-2.54s.22-2.071.22-4.142v-1.942c0-2.07-.22-4.142-.22-4.142z"/></symbol><symbol viewBox="0 0 24 24" id="general--audio" xmlns="http://www.w3.org/2000/svg"><path d="M15.56 7.178c2.985 2.672 2.985 7.055-.046 9.769-.23.209-.552.292-.781.292-.322 0-.643-.083-.873-.292-.505-.46-.505-1.086 0-1.545 2.021-1.795 2.021-4.842 0-6.679-.505-.46-.505-1.085 0-1.545.505-.459 1.194-.459 1.7 0zm2.572-1.962c.505-.459 1.194-.459 1.653 0 2.02 1.837 3.215 4.3 3.215 6.93s-1.148 5.093-3.215 6.93c-.138.167-.46.292-.78.292-.322 0-.644-.083-.873-.292-.506-.46-.506-1.085 0-1.545 3.306-2.964 3.306-7.848 0-10.77-.506-.46-.506-1.085 0-1.545zM12.207 1v22l-7.211-6.596H1V7.68h3.996L12.206 1z"/></symbol><symbol viewBox="0 0 24 24" id="general--book" xmlns="http://www.w3.org/2000/svg"><path d="M19.943 1H5.98C4.848 1 4 2.014 4 3.219V20.78C4 22.05 4.905 23 5.979 23h11.59V4.74H6.374c-.621 0-1.13-.57-1.13-1.268 0-.697.509-1.267 1.13-1.267h12.722V19.26H20L19.943 1z"/></symbol><symbol viewBox="0 0 24 24" id="general--brochure" xmlns="http://www.w3.org/2000/svg"><path d="M23 1l-7.104 2.686-6.921-2.408L1 4.474V23l7.975-2.964 6.92 2.455L23 19.665V1zM10.167 18.368V3.733l4.675 1.713v14.451l-4.675-1.529zM3.063 5.771l4.767-1.9v14.451l-4.768 1.714V5.77zm13.979-.232l3.988-1.575v14.404l-3.988 1.575V5.54z"/></symbol><symbol viewBox="0 0 24 24" id="general--budget" xmlns="http://www.w3.org/2000/svg"><path d="M12.846 2.3c-1.212.305-2.19.84-2.781 1.747-2.279.408-5.322.332-7.417-.35C2.127 3.527 1 3.133 1 2.649c0-.587 1.553-1.026 2.214-1.196 2.979-.772 7.65-.6 9.632.847zm-1.692 2.077c1.004-1.205 2.948-1.368 4.998-1.617 1.913-.233 4.176.16 5.648.758.423.172 1.2.513 1.2.909-.002.615-1.9 1.18-2.5 1.315-2.096.464-4.806.445-6.847-.052-1.016-.247-2.063-.48-2.5-1.313zM1 4.385c2.004 1.193 5.527 1.482 8.462 1.004v2.168C6.449 7.997 2.679 7.85 1 6.182V4.385zm10.154 1.692c2.981 1.567 8.843 1.651 11.802 0-.106.45.139 1.17 0 1.69-.19.71-1.696 1.12-2.54 1.322-3.037.73-7.77.437-9.262-1.321V6.077zM1 7.769c2.044 1.204 5.558 1.514 8.462 1.004v2.164c-2.998.44-6.812.314-8.462-1.372V7.769zm10.154 1.693c2.912 1.578 8.858 1.675 11.747 0-.022.424.192 1.141.05 1.69-.182.7-1.661 1.123-2.489 1.32-3.046.724-7.76.446-9.308-1.267V9.462zm0 3.384c2.872 1.565 8.93 1.624 11.787 0 .117.479.017 1.18.051 1.744-.639.728-1.694.99-2.848 1.23-1.027.217-2.445.593-3.695.309-.329-.075-.685-.468-1.1-.667-1.159-.553-2.682-.795-4.195-.975v-1.64zM9.183 16.27c1.978-.13 4.159.054 5.798.717.55.222 1.255.556 1.25.92-.012.617-1.953 1.204-2.5 1.33-2.176.513-4.723.496-6.847 0-.745-.171-2.487-.713-2.5-1.33-.011-.618 1.435-1.014 2-1.177 1.052-.302 1.792-.394 2.799-.46zm-4.798 3.345c2.97 1.61 8.87 1.592 11.846 0v1.733c-2.438 2.19-9.415 2.215-11.846 0v-1.733z"/></symbol><symbol viewBox="0 0 24 24" id="general--calendar" xmlns="http://www.w3.org/2000/svg"><path d="M5.23 4.058V2.494C5.23 1.668 5.977 1 6.898 1c.92 0 1.666.668 1.666 1.494v1.564c0 .825-.746 1.494-1.666 1.494-.92 0-1.666-.67-1.666-1.494zm10.155 0V2.494c0-.826.745-1.494 1.666-1.494.92 0 1.666.668 1.666 1.494v1.564c0 .825-.746 1.494-1.666 1.494-.92 0-1.666-.67-1.666-1.494zm4.23 15.908h-2.538V17.69h2.538v2.276zm0-3.794h-2.538v-2.275h2.538v2.275zm0-3.793h-2.538v-2.276h2.538v2.276zm-4.23 7.587h-2.539V17.69h2.539v2.276zm0-3.794h-2.539v-2.275h2.539v2.275zm0-3.793h-2.539v-2.276h2.539v2.276zm-4.231 7.587H8.615V17.69h2.539v2.276zm0-3.794H8.615v-2.275h2.539v2.275zm0-3.793H8.615v-2.276h2.539v2.276zm-4.23 7.587h-2.54V17.69h2.54v2.276zm0-3.794h-2.54v-2.275h2.54v2.275zm0-3.793h-2.54v-2.276h2.54v2.276zm14.854-4.046H2.222v13.445h19.556V8.332zM2.692 23C1.758 23 1 22.32 1 21.483V4.793c0-.838.758-1.517 1.692-1.517h1.693v.758c0 1.258 1.136 2.276 2.538 2.276s2.539-1.018 2.539-2.276v-.758h5.076v.758c0 1.258 1.138 2.276 2.539 2.276 1.401 0 2.538-1.018 2.538-2.276v-.758h1.693c.934 0 1.692.679 1.692 1.517v16.69C23 22.32 22.242 23 21.308 23H2.692z"/></symbol><symbol viewBox="0 0 24 24" id="general--copy" xmlns="http://www.w3.org/2000/svg"><path d="M18.448 5.016c.803 0 1.552.67 1.552 1.294v15.44c0 .625-.803 1.25-1.552 1.25H7.746c-.856 0-1.606-.67-1.606-1.25V8.186L9.993 5.06h8.455v-.045zm0 1.294h-6.903v1.964c0 .67-.803 1.25-1.498 1.25H7.692V21.75h10.756V6.31zM5.605 17.511v1.339C4.75 18.805 4 18.136 4 17.556V4.258L8.013 1h8.776c.856 0 1.66.67 1.66 1.339v2.276h-1.606V2.339H9.619V4.39c0 .714-.803 1.295-1.606 1.295H5.605V17.51z"/></symbol><symbol viewBox="0 0 24 24" id="general--data" xmlns="http://www.w3.org/2000/svg"><path d="M12 8.563c-5.184 0-7.857-1.928-7.857-2.75 0-.823 2.673-2.75 7.857-2.75s7.857 1.927 7.857 2.75c0 .822-2.673 2.75-7.857 2.75zM19.857 12c0 .822-2.673 2.75-7.857 2.75S4.143 12.822 4.143 12V8.78C5.975 9.9 8.813 10.625 12 10.625c3.188 0 6.025-.724 7.857-1.845V12zm0 6.187c0 .823-2.673 2.75-7.857 2.75s-7.857-1.927-7.857-2.75v-3.22c1.832 1.121 4.67 1.845 7.857 1.845 3.188 0 6.025-.724 7.857-1.845v3.22zM12 1C6.486 1 2 3.16 2 5.813v12.374C2 20.84 6.486 23 12 23s10-2.16 10-4.813V5.813C22 3.16 17.514 1 12 1z"/></symbol><symbol viewBox="0 0 24 24" id="general--digital" xmlns="http://www.w3.org/2000/svg"><path d="M15.136 21.11c2.01-.77 3.622-1.937 4.727-3.61h-2.665c-.437 1.424-1.343 2.608-2.062 3.61zm-2.45.3c1.318-.831 2.327-2.344 3.052-3.91h-3.051v3.91zm-1.847-.3c.126.107.296.31.473.257V17.5c-1.002.028-2.12-.057-3.05.043.635 1.326 1.534 2.673 2.577 3.566zm-1.934-.044A10.335 10.335 0 0 1 6.801 17.5H4.136a8.946 8.946 0 0 0 4.77 3.566zm9.325-8.38c-.162 1.172-.242 2.423-.559 3.439h3.008c.472-.975.82-2.074.902-3.438H18.23zm-5.5 0c-.1 1.062-.014 2.307-.043 3.439h3.566c.297-1.035.464-2.201.559-3.438H12.73zm-5.5 0c-.017 1.166.249 2.417.515 3.439h3.567v-3.438H7.23zm-4.812 0a8.878 8.878 0 0 0 .902 3.439h3.008c-.284-1.034-.453-2.184-.516-3.438H2.418zm15.769-1.374h3.395a8.927 8.927 0 0 0-.903-3.437h-3.008c.286 1.032.449 2.188.516 3.437zM12.73 7.875c-.1 1.06-.014 2.306-.043 3.437 1.36-.028 2.835.057 4.125-.043-.102-1.216-.264-2.371-.559-3.394H12.73zm-5.543 3.437h4.125V7.875H7.788c-.375.97-.49 2.202-.601 3.437zM3.363 7.875c-.55.912-.841 2.08-.945 3.437h3.394c.063-1.253.232-2.403.516-3.437H3.363zM17.198 6.5h2.665a8.94 8.94 0 0 0-4.77-3.566c.894.997 1.62 2.16 2.105 3.566zm-13.062 0h2.665c.436-1.425 1.344-2.608 2.062-3.61-2.009.77-3.622 1.936-4.727 3.61zm9.024-3.61c-.126-.107-.296-.31-.473-.257V6.5c1.002-.03 2.12.057 3.05-.043-.635-1.327-1.535-2.672-2.577-3.566zM8.26 6.5h3.05c-.027-1.304.058-2.722-.042-3.954C9.963 3.561 8.981 4.9 8.261 6.5zM11.184 1h1.632C18.75 1.856 22.143 5.25 23 11.184v1.632C22.143 18.75 18.75 22.144 12.816 23h-1.632C5.248 22.146 1.856 18.75 1 12.816v-1.632C1.856 5.25 5.247 1.854 11.184 1z"/></symbol><symbol viewBox="0 0 24 24" id="general--edit" xmlns="http://www.w3.org/2000/svg"><path d="M18.272 7.806l1.649 1.601a.252.252 0 0 1 0 .367L13.1 16.53c-.052.052-.052.052-.105.052l-3.91 1.258c-.212.053-.37-.104-.317-.314l1.268-3.876c0-.052.053-.052.053-.105l4.704-4.662 1.692-1.623.201-.2V2.571H9.55v2.41c0 .838-.793 1.519-1.586 1.519H5.586v14.929h11.1v-7.124l1.586-1.572v8.696c0 .733-.846 1.571-1.586 1.571H5.691C4.793 23 4 22.214 4 21.481V4.824L7.964 1h8.67c.845 0 1.638.786 1.638 1.571v5.235z"/></symbol><symbol viewBox="0 0 24 24" id="general--energy" xmlns="http://www.w3.org/2000/svg"><path d="M11.913 1h.178c.353.189.54.549.67.922.713 2.043.518 5.193.668 7.856-.71-.497-2.205-.365-2.854-.044.112-2.494-.003-5.817.669-7.768.124-.36.413-.853.669-.966zm-.223 9.173c1.719-.246 3.186 1.58 2.14 3.204-.875 1.362-3.765 1.353-3.969-.921-.048-.541.297-1.337.313-1.36.288-.448.794-.819 1.516-.923zm-2.542 1.58c.038-.008.042.018.044.044-.153.798.099 1.51.446 2.02.216.315.543.499.67.79-1.652.88-3.514 1.89-5.531 2.677-.629.245-2.563 1.127-2.765.044-.134-.712.916-1.446 1.338-1.8 1.72-1.442 4.014-2.723 5.798-3.774zm5.664 0c1.882 1.02 4.017 2.316 5.798 3.775.416.34 1.487 1.01 1.383 1.756-.155 1.114-2.099.275-2.81 0-1.943-.752-3.832-1.814-5.486-2.677.123-.32.53-.517.758-.878.305-.484.462-1.112.357-1.844v-.131zM13.43 23h-2.854v-7.988c.77.385 2.146.254 2.854.044V23z"/></symbol><symbol viewBox="0 0 24 24" id="general--euro" xmlns="http://www.w3.org/2000/svg"><path d="M14.36 9.085l-.218 1.11h-3.635c-.006.108-.006.254-.006.423 0 .168.006.345.015.52h3.432l-.217 1.11h-3.078c.115.515.29.912.52 1.203.448.56 1.033.842 1.756.842.867 0 1.554-.282 2.066-.842v2.191c-.585.306-1.264.467-2.046.467-1.315 0-2.39-.476-3.235-1.433-.58-.65-.955-1.455-1.143-2.427h-.996l.216-1.11h.665c-.006-.115-.006-.24-.006-.369 0-.222.006-.413.013-.582h-.888l.216-1.11h.802c.188-.95.564-1.746 1.127-2.382.853-.965 1.965-1.448 3.353-1.448.758 0 1.416.146 1.973.437l-.398 1.983c-.382-.406-.939-.606-1.677-.606-.736 0-1.328.277-1.783.836a2.854 2.854 0 0 0-.55 1.18h3.721v.007zM12.002 2C5.928 2 1 5.898 1 10.693c0 2.138 1.525 4.574 3.143 6.09L2.569 22l4.775-3.433c1.415.52 2.99.828 4.653.828 6.075 0 11.003-3.891 11.003-8.693C23.007 5.898 18.08 2 12.003 2z"/></symbol><symbol viewBox="0 0 24 24" id="general--faq" xmlns="http://www.w3.org/2000/svg"><path d="M13.188 17.389H9.555v-1.003c0-1.224.193-2.226.577-3.028.385-.802 1.175-1.693 2.33-2.673 1.175-.98 1.88-1.648 2.094-1.937.363-.49.534-1.024.534-1.603 0-.824-.32-1.514-.94-2.093-.62-.58-1.453-.868-2.5-.868-1.026 0-1.88.311-2.564.913-.684.601-1.154 1.514-1.41 2.761L4 7.368c.107-1.759.833-3.273 2.18-4.498C7.524 1.623 9.276 1 11.478 1c2.286 0 4.124.624 5.47 1.892C18.316 4.14 19 5.587 19 7.257c0 .913-.257 1.781-.748 2.605-.513.823-1.581 1.937-3.205 3.362-.854.734-1.367 1.314-1.581 1.759-.193.445-.3 1.247-.278 2.405zM9.556 23v-4.186h4.017V23H9.556z"/></symbol><symbol viewBox="0 0 24 24" id="general--feedback" xmlns="http://www.w3.org/2000/svg"><path d="M23 11.153c0 2.147-1.113 4.086-2.923 5.536.075 1.412.377 3.332 1.49 4.311-2.112 0-4.26-1.318-5.524-2.26-1.263.377-2.62.584-4.053.584C5.92 19.324 1 15.653 1 11.153S5.92 3 11.99 3 23 6.653 23 11.153z"/></symbol><symbol viewBox="0 0 24 24" id="general--file" xmlns="http://www.w3.org/2000/svg"><path d="M18.222 7.338V21.43H5.778V6.5h2.666c.89 0 1.778-.681 1.778-1.519v-2.41h8v4.767zM18.163 1H8.444L4 4.824V21.48c0 .734.889 1.52 1.896 1.52h12.326c.83 0 1.778-.838 1.778-1.571V2.57C20 1.786 19.111 1 18.163 1z"/></symbol><symbol viewBox="0 0 24 24" id="general--gear" xmlns="http://www.w3.org/2000/svg"><path d="M11.998 8.022a3.978 3.978 0 0 0 0 7.957A3.97 3.97 0 0 0 15.962 12a3.966 3.966 0 0 0-3.964-3.978zm7.972 6.263l-.717 1.726 1.448 2.843-1.773 1.772-2.908-1.374-1.726.71-.876 2.682-.112.356H10.8l-1.084-3.028-1.726-.712-2.846 1.442-1.772-1.771 1.372-2.91-.71-1.725L1 13.306v-2.504l3.03-1.086.711-1.723-1.275-2.516-.168-.33 1.77-1.77L7.98 4.75l1.724-.713.876-2.68.113-.356h2.504l1.085 3.032 1.722.712 2.85-1.444 1.77 1.77-1.371 2.907.708 1.727 3.039.988v2.504l-3.03 1.09z"/></symbol><symbol viewBox="0 0 24 24" id="general--generic-lang" xmlns="http://www.w3.org/2000/svg"><path d="M15.134 12.329h1.842c.303-.653.49-1.353.536-2.1h-2.076c-.023.77-.14 1.47-.303 2.1zm.326-2.938h2.076A5.82 5.82 0 0 0 17 7.29h-1.865c.162.63.28 1.33.326 2.1zm-3.358 3.777v2.401c.373-.28 1.235-1.026 1.842-2.401h-1.842zm2.729 0a7.872 7.872 0 0 1-1.307 2.192c1.213-.42 2.239-1.166 2.962-2.192H14.83zm.046-6.716h1.632a5.881 5.881 0 0 0-2.915-2.215c.42.536.91 1.259 1.282 2.215h.001zm-.606.84H12.1V9.39h2.52c-.047-.793-.164-1.493-.35-2.1zm.326 2.938h-2.495v2.099h2.169a7.944 7.944 0 0 0 .326-2.1zm-.653-3.8c-.186-.514-.466-.933-.7-1.283-.35-.466-.7-.793-.956-1.003-.047-.07-.116-.093-.186-.14V6.43h1.842zm-4.524 0h1.866V4.027c-.397.28-1.26 1.05-1.866 2.401zm-2.541 0h1.655A7.34 7.34 0 0 1 9.84 4.237 5.957 5.957 0 0 0 6.879 6.43zm1.026 3.777H5.829a5.7 5.7 0 0 0 .536 2.098h1.842c-.163-.63-.256-1.306-.303-2.098zm.326-2.939H6.39a6.367 6.367 0 0 0-.56 2.1h2.099c.047-.77.14-1.47.303-2.1zM0 13.818c0 2.822 2.192 5.091 5.09 5.091h3.637L17.455 24v-5.09h1.454c2.875 0 5.091-1.87 5.091-4.693V5.091C24 2.269 21.784 0 18.91 0H5.09C2.193 0 0 2.27 0 5.09v8.728zm4.99-4.031c0-3.708 3.008-6.716 6.715-6.692a6.663 6.663 0 0 1 6.67 6.715c0 3.708-3.008 6.716-6.716 6.693a6.663 6.663 0 0 1-6.67-6.716zm3.521 3.358H6.856a6.044 6.044 0 0 0 2.938 2.215 7.476 7.476 0 0 1-1.282-2.215zm.606-.84h2.146v-2.098H8.767c.024.792.14 1.492.35 2.098zm-.349-2.938h2.495V7.268H9.095c-.187.607-.28 1.307-.327 2.1zm.63 3.801c.21.49.489.91.722 1.259.35.443.7.793.956 1.003a.45.45 0 0 0 .163.14v-2.402H9.397z"/></symbol><symbol viewBox="0 0 24 24" id="general--global" xmlns="http://www.w3.org/2000/svg"><path d="M3.123 9.767v-.75C3.384 5.58 4.71 3.266 6.713 1.59c.283.287.63.552.848.926C5.668 4.17 4.21 6.77 4.428 10.186c.326 4.63 4.373 8.575 9.486 8.222 2.132-.132 3.59-.97 4.982-2.006a4.382 4.382 0 0 0-.958-.948c-1.936 1.807-5.678 2.072-8.18.75-2.285-1.19-4.243-3.792-4.004-7.341.24-3.726 2.916-6.414 6.18-7.032 3.894-.727 7.18 1.698 8.354 4.607 1.044 2.6.478 6.106-1.066 7.76.588.66 1.24 1.234 1.762 1.961-1.936 2.073-4.482 3.858-8.506 3.55-2.742-.2-4.939-1.477-6.484-3.087-1.61-1.697-2.698-3.902-2.828-6.811 0-.022 0-.044-.044-.044zm7.941-5.71c1.023.243.631 1.301.13 1.83-.74.771-3.154 1.257-1.392 2.204.13.727.61.573 1.306.64.826.065 1.936.352 2.219 1.123.283.75-.24 1.588-.566 2.248-.327.64-.479 1.39-.827 1.808-.196.22-.544.397-.783.33-.783-.198-.283-2.006-.544-3.042-.13-.595-.61-.904-.566-1.542.022-.265.24-.463.152-.684-.523-.352-1.24-.396-1.675-.837-.262-.243-.305-.595-.632-.793-.892 2.424.11 4.981 1.371 6.238 1.001 1.014 2.589 1.785 4.395 1.653 3.351-.22 5.918-3.152 5.287-7.053-.218.066-.5.022-.696.088.043.484.087.859.022 1.388-.87.552-.5 2.403-1.72 2.623-.63-.771 0-2.667-.652-3.262-.566-.485-1.87.066-1.827-.926.043-.882 1.697-1.058 1.936-1.742-.108-.132-.544.044-.61-.132.088-.859.74-1.168 1.611-1.256-1.066-1.257-4.09-1.896-5.94-.904h.001zm7.18 18.87h-9.9c.284-1.301 2.154-.993 3.678-1.037.021-.352-.065-.815.043-1.102h2.545v1.102c1.501.044 3.395-.286 3.634 1.036z"/></symbol><symbol viewBox="0 0 24 24" id="general--growth" xmlns="http://www.w3.org/2000/svg"><path d="M1.5 23v-5.5h4.421V23H1.5zm5.526 0v-7.7h4.421V23h-4.42zm5.527 0v-9.9h4.42V23h-4.42zm5.526 0V10.9H22.5V23h-4.421zm-.22-22H22.5v4.991l-1.507-1.713-6.737 7.696-4.681-3.938L3.057 14.2 1.5 12.649l7.986-7.554 4.616 3.883 5.455-6.175L17.86 1z"/></symbol><symbol viewBox="0 0 24 24" id="general--image" xmlns="http://www.w3.org/2000/svg"><path d="M20.8 18.958H3.2V5.042h17.6v13.916zM22.927 4.77C22.78 3.817 21.753 3 20.8 3H3.347C2.173 3 1.147 3.885 1 4.77v14.256C1 19.979 2.1 21 3.347 21H20.8c1.027 0 2.2-1.021 2.2-2.042V5.042l-.073-.272zM14.934 8.6c0-1.2.949-2 2.157-2 1.207 0 2.156.88 2.156 2s-.949 2-2.156 2c-1.208 0-2.157-.96-2.157-2zm4.4 8.8H4.666v-2.72l4.4-6.8 6.039 6.8 4.227-2.72v5.44z"/></symbol><symbol viewBox="0 0 24 24" id="general--infographic" xmlns="http://www.w3.org/2000/svg"><path d="M4.289 19.778C2.169 17.7 1 14.938 1 12c0-2.938 1.168-5.7 3.289-7.778C6.409 2.144 9.229 1 12.229 1v1.858c-5.146 0-9.333 4.101-9.333 9.142 0 5.04 4.187 9.142 9.333 9.142 4.162 0 7.728-2.662 8.913-6.422l1.858.393a10.963 10.963 0 0 1-3.252 5.057 11.338 11.338 0 0 1-7.52 2.83C9.23 23 6.41 21.856 4.29 19.778zm7.904-2.268c2.404 0 4.488-1.454 5.298-3.575l1.842.387a7.344 7.344 0 0 1-2.261 3.262 7.647 7.647 0 0 1-4.879 1.75c-4.15 0-7.526-3.29-7.526-7.334s3.376-7.333 7.526-7.333V6.49c-3.118 0-5.655 2.472-5.655 5.51s2.537 5.51 5.655 5.51zm-2.164-5.143c0 1.237.955 2.244 2.129 2.244.732 0 1.405-.4 1.79-1.03l1.719.39c-.602 1.462-1.983 2.429-3.51 2.429-2.108 0-3.824-1.81-3.824-4.033 0-2.224 1.716-4.034 3.825-4.034v1.789c-1.174 0-2.13 1.007-2.13 2.245zm3.804-1.834a1.1 1.1 0 1 1 0-2.2 1.1 1.1 0 0 1 0 2.2zm0-3.666a1.1 1.1 0 1 1 .001-2.201 1.1 1.1 0 0 1 0 2.2zm0-3.667a1.1 1.1 0 1 1 0-2.2 1.1 1.1 0 0 1 0 2.2z"/></symbol><symbol viewBox="0 0 24 24" id="general--language" xmlns="http://www.w3.org/2000/svg"><path d="M18.191 1H5.81A4.812 4.812 0 0 0 1 5.818v8.338a4.812 4.812 0 0 0 4.809 4.818h.746V23l8.41-4.026h3.226c2.636 0 4.809-2.156 4.809-4.818V5.818C23 3.156 20.827 1 18.191 1z"/></symbol><symbol viewBox="0 0 24 24" id="general--livestreaming" xmlns="http://www.w3.org/2000/svg"><path d="M21 3H3c-1.1 0-2 .9-2 2v3h2V5h18v14h-7v2h7c1.1 0 2-.9 2-2V5c0-1.1-.9-2-2-2zM1 18v3h3c0-1.7-1.3-3-3-3zm0-4v2c2.8 0 5 2.2 5 5h2c0-3.9-3.1-7-7-7zm0-4v2c5 0 9 4 9 9h2c0-6.1-4.9-11-11-11z"/></symbol><symbol viewBox="0 0 24 24" id="general--location" xmlns="http://www.w3.org/2000/svg"><path d="M12 12c-2.082 0-3.77-1.724-3.77-3.85C8.23 6.024 9.919 4.3 12 4.3s3.77 1.724 3.77 3.85c0 2.126-1.688 3.85-3.77 3.85m0-11C8.14 1 5 4.264 5 8.277c0 1.616.993 4.251 3.035 8.055a89.027 89.027 0 0 0 2.924 5.028L12 23l1.04-1.64a88.15 88.15 0 0 0 2.925-5.028C18.007 12.528 19 9.893 19 8.277 19 4.264 15.86 1 12 1"/></symbol><symbol viewBox="0 0 24 24" id="general--multiple-files" xmlns="http://www.w3.org/2000/svg"><path d="M17.662 5.049c.692 0 1.338.682 1.338 1.298v15.399c0 .638-.692 1.254-1.338 1.254H8.32c-.761 0-1.407-.66-1.407-1.254V8.217l3.367-3.124h7.38V5.05zm0 1.298h-6.043v1.958c0 .66-.692 1.254-1.292 1.254H8.274v12.187h9.387V6.347zm0-1.298c.692 0 1.338.682 1.338 1.298v15.399c0 .638-.692 1.254-1.338 1.254H8.32c-.761 0-1.407-.66-1.407-1.254V8.217l3.367-3.124h7.38V5.05zM6.406 17.478V5.686h2.1c.692 0 1.407-.594 1.407-1.298V2.342h6.296v2.266h1.408V2.342c0-.682-.715-1.342-1.454-1.342H8.506L5 4.256V17.52c0 .572.646 1.254 1.407 1.298v-1.342z"/></symbol><symbol viewBox="0 0 24 24" id="general--organigram" xmlns="http://www.w3.org/2000/svg"><path d="M1 21v-4.154h6.387V21H1zm7.806 0v-4.154h6.388V21H8.806zm7.807 0v-4.154H23V21h-6.387zM4.93 13.279v2.183H3.129V11.62h7.993v-1.005h1.756v1.005h7.993v3.842h-1.802v-2.183h-6.191v2.183h-1.756v-2.183H4.931zM7.387 9.23V3h9.226v6.23H7.387z"/></symbol><symbol viewBox="0 0 24 24" id="general--package" xmlns="http://www.w3.org/2000/svg"><path d="M1.846 10.333h20.307v10c0 .916-.762 1.667-1.69 1.667H3.537c-.93 0-1.691-.751-1.691-1.668v-9.999zm6.77 4.167h6.768V12H8.616v2.5zm13.537-5H23V6.167L20.463 2H3.537L1 6.167V9.5h21.153z"/></symbol><symbol viewBox="0 0 24 24" id="general--presentation" xmlns="http://www.w3.org/2000/svg"><path d="M3.747 15.042H20.17v-9.85H3.747v9.85zm18.212-12.1L22 5.191h-.582v10.976h-8.233v.804l4.158 4.945c.25.281.208.684-.083.885-.291.24-.707.2-.915-.08l-4.241-5.026-4.49 5.066c-.25.28-.666.32-.915.08-.292-.241-.333-.644-.084-.885l4.158-4.744v-1.045H2.541V5.193H2V2.94h19.959zm-11.292-.648V1h2.666v1.294h-2.666z"/></symbol><symbol viewBox="0 0 24 24" id="general--print" xmlns="http://www.w3.org/2000/svg"><path d="M19.875 10.167a1.31 1.31 0 1 1 0-2.62 1.31 1.31 0 0 1 0 2.62zm1.313-3.929a1.31 1.31 0 0 1 1.312 1.31v7.857a1.31 1.31 0 0 1-1.312 1.31h-2.625v5.238h-1.235v-.002a1.338 1.338 0 0 1-.078.002H6.75a1.35 1.35 0 0 1-.078-.002v.002H5.438v-5.238H2.813a1.31 1.31 0 0 1-1.313-1.31V7.548c0-.723.588-1.31 1.313-1.31h18.375zM6.75 12.786v7.858h10.5v-7.858H6.75zm1.313 2.62v-1.31h7.874v1.31H8.063zM6.75 2.31v2.619H5.438V1h1.234v.003L6.75 1h10.5l.078.003V1h1.234v3.929H17.25v-2.62H6.75zm1.41 15.81v-1.277h6.659v1.277h-6.66z"/></symbol><symbol viewBox="0 0 24 24" id="general--regulation" xmlns="http://www.w3.org/2000/svg"><path d="M11.672 6.015c1.92.326 1.985-2.417 0-2.03-1.35.264-.92 1.873 0 2.03zM11.849 1h.266c3.078 1.385 6.336 3.09 9.52 4.632.424.204 1.155.43 1.284.689.17.342.044 1.168-.132 1.302-.293.22-1.806.115-2.613.115H3.744c-1.016 0-2.571.185-2.744-.345v-.957c.085-.215.249-.294.398-.383.754-.445 1.689-.832 2.569-1.263C6.48 3.56 9.33 2.167 11.849 1zM7.71 9.515c.19.677-.076 1.273-.674 1.349-.031 1.758.058 3.627-.047 5.315a29.67 29.67 0 0 1-3.51 0c-.104-1.675-.016-3.528-.045-5.272-.537-.15-.895-.672-.675-1.392a57.567 57.567 0 0 1 4.951 0zm6.769 0c.19.677-.074 1.273-.676 1.349-.03 1.758.06 3.627-.045 5.315a29.36 29.36 0 0 1-3.51 0c-.104-1.675-.016-3.528-.045-5.272-.537-.15-.895-.672-.674-1.392a57.544 57.544 0 0 1 4.95 0zm6.77 0c.188.677-.075 1.273-.675 1.349-.031 1.758.058 3.627-.046 5.315-1.069.07-2.443.07-3.511 0-.103-1.675-.016-3.528-.045-5.272-.537-.15-.894-.672-.674-1.392a57.544 57.544 0 0 1 4.95 0zM3.123 17.986c.435-.118 1.62-.034 2.318-.034h13.561c.641 0 1.876-.056 2.104.102.302.21.233 1.273 0 1.436-.267.185-1.502.102-2.19.102H5.056c-.612 0-1.859.096-2.146-.102-.355-.248-.267-1.372.215-1.504zM1 22.628v-.936c.12-.204.227-.29.488-.333.686-.115 1.732 0 2.659 0H20.23c.824 0 2.28-.095 2.571.1.298.198.227 1.253 0 1.402-.28.187-1.742.101-2.526.101H4.146c-1.283 0-2.834.204-3.146-.334z"/></symbol><symbol viewBox="0 0 24 24" id="general--search" xmlns="http://www.w3.org/2000/svg"><path d="M22.457 20.018L17.67 15.46l-.065-.063a8.322 8.322 0 0 0 1.493-4.746C19.097 5.864 15.034 2 10.048 2 5.063 2 1 5.843 1 10.63c0 4.789 4.063 8.653 9.048 8.653a9.284 9.284 0 0 0 4.964-1.428l.065.063 4.766 4.578a1.946 1.946 0 0 0 2.613 0c.725-.672.725-1.785 0-2.478h.001zM10.05 16.28c-3.272 0-5.908-2.52-5.908-5.65 0-3.128 2.636-5.648 5.908-5.648 3.25 0 5.908 2.52 5.908 5.649S13.3 16.28 10.05 16.28z"/></symbol><symbol viewBox="0 0 24 24" id="general--share" xmlns="http://www.w3.org/2000/svg"><path d="M14.558 16.487L9.652 13.9a3.96 3.96 0 0 0 .507-1.904c0-.424-.088-.825-.217-1.219l5.107-2.691a4.737 4.737 0 0 0 3.367 1.375c2.53 0 4.584-1.889 4.584-4.23C23 2.887 20.954 1 18.416 1c-2.53 0-4.583 1.888-4.583 4.23 0 .424.088.826.217 1.22L8.943 9.134a4.729 4.729 0 0 0-3.36-1.368C3.055 7.766 1 9.654 1 11.996c0 2.335 2.046 4.23 4.584 4.23a4.759 4.759 0 0 0 2.763-.877l5.534 2.967c-.016.149-.048.305-.048.454 0 2.334 2.046 4.23 4.583 4.23C20.946 23 23 21.112 23 18.77c0-2.342-2.054-4.238-4.584-4.238-1.619 0-3.037.78-3.858 1.955z"/></symbol><symbol viewBox="0 0 24 24" id="general--spinner" xmlns="http://www.w3.org/2000/svg"><path d="M23 9.25h-8.25l3.08-3.081A8.189 8.189 0 0 0 12 3.749c-2.2 0-4.268.858-5.83 2.42a8.189 8.189 0 0 0-2.42 5.83c0 2.2.857 4.268 2.42 5.83A8.189 8.189 0 0 0 12 20.25c2.2 0 4.268-.857 5.83-2.42.132-.131.265-.263.374-.395l2.068 1.804A10.918 10.918 0 0 1 12 23C5.928 23 1 18.072 1 12S5.928 1 12 1a11.05 11.05 0 0 1 7.788 3.212L23 1v8.25z"/></symbol><symbol viewBox="0 0 24 24" id="general--spreadsheet" xmlns="http://www.w3.org/2000/svg"><path d="M1 3.75C1 2.228 2.18 1 3.64 1h16.72C21.82 1 23 2.227 23 3.75v16.5c0 1.522-1.18 2.75-2.64 2.75H3.64C2.18 23 1 21.772 1 20.25V3.75zm1.76 10.083h4.4v-2.75h-4.4v2.75zm0 3.668h4.4V14.75h-4.4v2.75zm4.4 3.664v-2.748h-4.4v.916c0 1.523.298 1.832 1.76 1.832h2.64zm14.08-2.748H8.04v2.748h11.44c1.46 0 1.76-.31 1.76-1.832v-.916zM8.04 17.5h13.2v-2.75H8.04v2.75zm0-3.667h13.2v-2.75H8.04v2.75zm0-3.665h13.2V6.5H8.04v3.668zm-5.28 0h4.4V6.5h-4.4v3.668z"/></symbol><symbol viewBox="0 0 24 24" id="general--video" xmlns="http://www.w3.org/2000/svg"><path d="M17.427 18.964H1V5.036h16.427v4.869L23 5v14l-5.573-4.905z"/></symbol><symbol viewBox="0 0 24 24" id="notifications--error" xmlns="http://www.w3.org/2000/svg"><path d="M13.576 12.206l2.466 2.467a.331.331 0 0 1 0 .48l-.89.89a.331.331 0 0 1-.48 0l-2.467-2.466a.331.331 0 0 0-.48 0L9.26 16.043a.331.331 0 0 1-.48 0l-.89-.89a.331.331 0 0 1 0-.48l2.466-2.467a.331.331 0 0 0 0-.48L7.888 9.26a.331.331 0 0 1 0-.48l.891-.89a.331.331 0 0 1 .48 0l2.466 2.466a.331.331 0 0 0 .48 0l2.467-2.467a.331.331 0 0 1 .48 0l.89.89a.331.331 0 0 1 0 .48l-2.466 2.467c-.138.206-.138.343 0 .48zM16.933.005h-9.94L0 7.067v9.94L7.062 24h9.94l6.993-7.062V7.067L16.933.005z"/></symbol><symbol viewBox="0 0 24 24" id="notifications--information" xmlns="http://www.w3.org/2000/svg"><path d="M15.086 18.175H8.913v-1.508h1.508v-4.665H8.913v-1.507h4.665v6.172h1.576v1.508h-.068zM10.42 7c0-.617.548-1.166 1.165-1.166h.754c.617 0 1.165.549 1.165 1.166v.753c0 .617-.548 1.165-1.165 1.165h-.754c-.617 0-1.165-.548-1.165-1.165V7zM11.998.005A11.97 11.97 0 0 0 0 12.002 11.97 11.97 0 0 0 11.998 24a11.97 11.97 0 0 0 11.997-11.998c0-6.647-5.414-11.997-11.998-11.997z"/></symbol><symbol viewBox="0 0 24 24" id="notifications--success" xmlns="http://www.w3.org/2000/svg"><path d="M17.416 9.535l-6.652 6.378a.331.331 0 0 1-.48 0l-.96-.96-.48-.48-2.26-2.33c-.07-.068-.07-.136-.07-.274 0-.068.07-.137.07-.205l1.027-.891c.069-.069.137-.069.274-.069.069 0 .206 0 .275.069l2.124 2.262a.331.331 0 0 0 .48 0l5.144-4.939a.331.331 0 0 1 .48 0l.96.96c.205.137.205.342.068.48M11.998.004A11.97 11.97 0 0 0 0 12.002 11.97 11.97 0 0 0 11.998 24a11.97 11.97 0 0 0 11.997-11.998A11.967 11.967 0 0 0 11.997.005"/></symbol><symbol viewBox="0 0 24 24" id="notifications--warning" xmlns="http://www.w3.org/2000/svg"><path d="M12.032 17.025c-.774 0-1.407-.674-1.407-1.499V11.03c0-.825.633-1.5 1.407-1.5s1.406.675 1.406 1.5v4.496c0 .825-.632 1.5-1.406 1.5zm0 4.497c-.774 0-1.407-.674-1.407-1.499 0-.825.633-1.499 1.407-1.499s1.406.674 1.406 1.499c0 .825-.632 1.499-1.406 1.499zm0-21.517L0 24h23.995L12.032.005z"/></symbol><symbol viewBox="0 0 24 24" id="ui--check" xmlns="http://www.w3.org/2000/svg"><path d="M18.333 4L9 13.465 4.778 9.183l-3.111 3.155L9 20 21.667 7.155z"/></symbol><symbol viewBox="0 0 24 24" id="ui--close" xmlns="http://www.w3.org/2000/svg"><path d="M16.538 15.205L13.32 11.99l3.199-3.194-1.332-1.332-3.2 3.193L8.812 7.48 7.48 8.812l3.177 3.177-3.195 3.199 1.334 1.333 3.193-3.2 3.217 3.217 1.333-1.333zm5.594-7.49a10.886 10.886 0 0 0-2.355-3.492 10.882 10.882 0 0 0-3.492-2.355A10.906 10.906 0 0 0 12 1c-1.488 0-2.93.293-4.286.868a10.958 10.958 0 0 0-3.492 2.355 10.888 10.888 0 0 0-2.355 3.492A10.925 10.925 0 0 0 1 12a10.958 10.958 0 0 0 3.222 7.778 10.9 10.9 0 0 0 3.492 2.355C9.07 22.707 10.512 23 12 23a10.964 10.964 0 0 0 7.777-3.222 10.912 10.912 0 0 0 2.355-3.492A10.94 10.94 0 0 0 23 12c0-1.487-.294-2.93-.868-4.285zM21.702 12a9.642 9.642 0 0 1-2.844 6.858A9.619 9.619 0 0 1 12 21.703a9.635 9.635 0 0 1-6.859-2.844A9.617 9.617 0 0 1 2.298 12a9.619 9.619 0 0 1 2.843-6.859A9.615 9.615 0 0 1 12 2.298a9.619 9.619 0 0 1 6.858 2.843A9.623 9.623 0 0 1 21.703 12z"/></symbol><symbol viewBox="0 0 24 24" id="ui--close-filled" xmlns="http://www.w3.org/2000/svg"><path d="M15.242 16.588l-3.253-3.252-3.23 3.23-1.347-1.345 3.231-3.232-3.21-3.21L8.78 7.433l3.21 3.21 3.232-3.231 1.346 1.346-3.231 3.231 3.252 3.253-1.346 1.346zM12 1C5.925 1 1 5.925 1 12s4.925 11 11 11 11-4.925 11-11S18.075 1 12 1z"/></symbol><symbol viewBox="0 0 24 24" id="ui--corner-arrow" xmlns="http://www.w3.org/2000/svg"><path d="M20.623 19.5L12 9.83 3.377 19.5 1 16.835 12 4.5l11 12.335z"/></symbol><symbol viewBox="0 0 24 24" id="ui--download" xmlns="http://www.w3.org/2000/svg"><path d="M20.25 9.8H23V23H1V9.8h2.749v10.267H20.25V9.8zM10.56 1h2.881v10.5h4.32l-5.76 6-5.763-6h4.322V1z"/></symbol><symbol viewBox="0 0 24 24" id="ui--external" xmlns="http://www.w3.org/2000/svg"><path d="M1 1l8.25.046v2.71H3.796V20.29H20.25v-5.465H23V23H1V1zm11.468 0H23v10.494l-3.944-3.93-5.892 5.87-2.599-2.588 5.847-5.824L12.468 1z"/></symbol><symbol viewBox="0 0 24 24" id="ui--rounded-arrow" xmlns="http://www.w3.org/2000/svg"><path d="M10.444 6.135a2.224 2.224 0 0 1 3.112 0l8.8 8.666a2.144 2.144 0 0 1 0 3.064 2.224 2.224 0 0 1-3.112 0l-7.24-7.13-7.248 7.13a2.224 2.224 0 0 1-3.112 0 2.144 2.144 0 0 1 0-3.064l8.8-8.666z"/></symbol><symbol viewBox="0 0 24 24" id="ui--solid-arrow" xmlns="http://www.w3.org/2000/svg"><path d="M23 21L11.765 3 1 21z"/></symbol></svg>