<?xml version="1.0" encoding="UTF-8" ?>
<svg
  id="ec-favicon"
  data-name="ec-favicon"
  xmlns="http://www.w3.org/2000/svg"
  xmlns:xlink="http://www.w3.org/1999/xlink"
  viewBox="0 0 256 256"
>
  <defs>
    <style>
      .flag {
        fill: #004494;
        fill-rule: evenodd;
        stroke: #004494;
        stroke-width: 2px;
      }
      .line {
        fill: #BCBEC0;
        fill-rule: evenodd;
      }
      .star {
        fill: #fff100;
      }
      .background {
        fill: none;
      }
      .star {
        fill-rule: evenodd;
      }

      @media (prefers-color-scheme: dark) {
        .flag {
          stroke: #fff;
          stroke-width: 2px;
        }
        .line {
          fill: #fff;
        }
      }
    </style>
  </defs>
  <rect class="background" y="0" width="256" height="256" />
  <g>
    <path
      class="line"
      d="M5.3,111.8c0,0,72.6-9.6,74.7-10c3.1-0.6,6-1.2,8.5-2	c5.8-1.6,11.3-4.1,16.1-7.4c4.7-3.1,8.9-7.6,13-12.7c2.7-3.1,5.4-7.2,8.2-11.4v-2c-3.1,4.7-6.2,8.8-9.3,12.3c-4.3,4.7-8.5,8.6-13.2,11.6c-4.7,3.1-9.9,5.3-15.5,6.7c-2.5,0.6-5.2,1.2-8.3,1.6c-1.9,0.2-4.1,0.6-6,0.8c-0.8,0.4-68.1,7.6-68.1,7.6V111.8L5.3,111.8z"
    />
		<path
      class="line"
      d="M102.8,99.5c-4.5,2.7-9.9,4.7-15.5,5.9c-2.5,0.6-5.2,1-8.3,1.2c-1.7,0.2-3.7,0.2-5.4,0.4c-1,0-1.9,0.2-2.9,0.2c-22.3,2-44.4,4.1-65.2,6.3v4.7c21-2.5,43.3-5.3,65.4-7.8c1-0.2,1.9-0.2,2.9-0.4c1.7-0.2,3.7-0.4,5.4-0.6c3.1-0.4,6-1,8.5-1.6c6-1.4,11.5-3.5,16.3-6.5c4.7-2.9,8.7-6.9,13.2-11.7c2.7-3.1,5.8-7.4,8.7-11.4v-1.6	c-3.5,4.7-6.6,8.6-9.9,11.9C111.7,93.2,107.2,96.7,102.8,99.5"
    />
		<path
      class="line"
      d="M115.6,98.3c-4.5,4.1-9.1,7.4-13.8,9.6	c-4.7,2.3-9.7,3.9-15.7,4.9c-2.5,0.4-5.2,0.8-8.2,1l-72.6,6.1v4.7l64.4-7l8.3-1c3.1-0.4,5.8-0.8,8.3-1.2c6.2-1.2,11.5-2.9,16.3-5.5c4.9-2.5,9.7-6.7,14.2-11c3.1-2.9,6-6.7,9.1-10.8v-1.6C122.4,91.2,118.9,95,115.6,98.3"
    />
		<path
      class="line"
      d="M97.9,123c-4.3,2.3-7.4,3.7-13.4,4.5c-3.7,0.4-7.4,0.6-11.1,0.8 c-1.7,0-3.5,0.2-5.2,0.2c-10.9,0.6-21.7,1.4-32.6,2.2l-30.3,2.2v4.7l30.7-2.9c9.9-1,21.4-2,32.6-2.9l8.2-0.6 c3.1-0.2,5.8-0.6,8.2-0.8c6.2-0.8,11.5-2.2,16.1-3.9c5-2,9.9-4.9,14.6-8.4c4.3-3.1,10.3-9.4,10.3-9.4v-1.8c-3.9,3.9-6.2,6.1-10.5,8.8C110.5,119,101.8,120.8,97.9,123"
    />
		<path
      class="line"
      d="M99.5,132.2c-4.7,1.4-9.7,2.3-15.7,2.7c-2.5,0.2-5,0.4-8,0.6 l-8.2,0.4c-20.2,1-40.2,2-62.3,3.1v4.7c21.2-1.6,41.7-3.3,62.5-4.7l8.2-0.6c3.1-0.2,5.6-0.4,8.2-0.8c6.2-0.8,11.5-1.8,16.1-3.3c5.2-1.8,10.3-4.1,14.9-7.2c3.5-2.3,7-5.1,10.7-8.2l0,0c-4.1,3.5-8,4.3-11.6,6.7C109.6,128.4,104.5,130.6,99.5,132.2"
    />
		<path
      class="line"
      d="M98.7,140c-4.7,1.2-9.5,1.8-15.7,2.2c-2.3,0.2-4.9,0.2-8,0.4 l-8,0.2c-20.2,0.8-40.8,1.8-61.7,2.5v4.7c20.8-1.4,41.3-2.9,61.9-4.1l8-0.4c3.1-0.2,5.6-0.4,8.2-0.6c6.2-0.6,11.3-1.4,16.1-2.7c5.2-1.4,10.5-3.3,15.3-6.1c3.7-2,7.6-4.5,11.5-7.4v-2c-4.3,3.1-8.2,5.7-12.2,7.6C109,137.1,103.9,138.8,98.7,140"
    />
		<path
      class="line"
      d="M98.1,147.8c-4.7,0.8-9.5,1.4-15.7,1.8c-2.3,0.2-4.7,0.2-8,0.2l-69.1,2v4.7l61.3-3.3l8-0.4c3.1-0.2,5.6-0.4,8-0.4c6.2-0.4,11.3-1.2,15.9-2.2c5.4-1.2,10.5-2.7,15.5-4.9c3.9-1.8,8-3.7,12-6.3v-2c-4.5,2.5-8.5,4.7-12.6,6.3C108.4,145.3,103.4,146.8,98.1,147.8"
    />
		<path
      class="line"
      d="M97.5,155.7c-8.5,1.2-17.3,1.4-25.6,1.4c-1.9,0-3.9,0-5.8,0.2l-60.8,1v4.7l60.8-2.7c1.9,0,3.9-0.2,5.8-0.2c8.5-0.4,17.3-0.8,26-2.2c5.4-0.8,10.7-2.2,15.5-3.9c4.1-1.4,8.2-3.1,12.4-5.3v-1.8c-4.5,2.2-8.9,3.9-13,5.1C108,153.7,103,154.9,97.5,155.7"
    />
		<path
      class="line"
      d="M97.1,163.5c-8,0.6-16.1,0.6-23.9,0.6c-2.5,0-4.9,0-7.4,0c-20.2,0-40.2,0.2-60.4,0.4v4.7c19.4-0.6,40-1.4,60.6-2c2.5,0,4.9-0.2,7.4-0.2c8-0.2,16.1-0.4,24.1-1.4c5.6-0.6,10.7-1.6,15.5-2.7c4.3-1,8.7-2.5,13-4.1V157c-4.5,1.6-9.1,2.9-13.4,3.9C107.6,162.3,102.6,163.1,97.1,163.5"
    />
		<path
      class="line"
      d="M96.8,171.1c-3.3,0.2-7,0.2-11.1,0.2c-1.6,0-3.1,0-4.7,0l-15.5-0.2c-10.7,0-21.4-0.2-31.2-0.2l-28.9,0.2v4.7l28.9-0.8c9.9-0.2,20.6-0.6,31.2-0.8l15.7-0.2c4.3,0,9.9-0.2,15.7-0.6c5.6-0.4,10.7-1,15.7-1.8c4.5-0.8,8.9-1.8,13.4-2.9V167c-4.7,1.2-9.3,2-13.8,2.5C107.4,170.5,102.4,170.9,96.8,171.1"
    />
		<path
      class="line"
      d="M81,178.8l-15.5-0.2c-20-0.4-39.8-0.8-60.2-1.2v4.7c19.4-0.2,39.8-0.2,60.2-0.6l15.5-0.2c5.2,0,10.5-0.2,15.5-0.4c10.7-0.4,20.4-1.2,29.3-2.3V177c-8.9,1-18.6,1.6-29.3,1.6C91.3,178.8,86.3,178.8,81,178.8"
    />
		<path class="line" d="M125.9,188L5.3,184.9v4.7h120.5V188z" />
		<path
      class="line"
      d="M115.2,107.1c-4.7,3.7-8.2,6.5-13.8,8.6c-4.9,2-10.1,2.7-16.1,3.5c-3.9,0.6-8,1.4-11.6,1.6c-1.6,0.2-3.1,0.2-4.7,0.4l-63.7,4.9v4.7l63.7-6.3l8.3-0.8c3.1-0.4,5.8-0.6,8.3-1c6.2-1,11.5-2.5,16.3-4.7c4.9-2.2,9.9-5.9,14.6-9.8c3.1-2.7,6.2-6.1,9.5-9.8v-1.8C122,101,118.7,104.4,115.2,107.1"
    />
		<path
      class="line"
      d="M177.3,66.6c0,0,21.7,34.8,25.6,41.3c3.9,6.5,8.5,11.4,24.6,14.9c16.1,3.5,23.1,5.1,23.1,5.1v1.2c0,0-10.3-2.2-23.3-5.1c-13.2-2.9-18.4-3.9-24.5-12.3c-5-7-25.4-36.6-25.4-36.6v-8.4H177.3z"
    />
		<path
      class="line"
      d="M177.3,106.5c0,0,19.8,20.9,25.4,26.8c6,6.3,13.8,8.8,24.7,10.6c10.3,1.8,23.3,3.9,23.3,3.9v1.2c0,0-12.2-2-23.3-3.9c-10.9-2-18.4-2.9-24.7-8.6c-5.6-5.1-25.4-23.9-25.4-23.9V106.5L177.3,106.5z"
    />
		<path
      class="line"
      d="M177.3,115.9c0,0,18.8,17.6,25.4,23.7c6.2,5.5,11.1,7.2,24.7,9.6c13.6,2.3,23.1,3.9,23.1,3.9v1.2c0,0-12.2-2-23.3-3.7c-11.1-1.8-18.1-2.5-24.6-7.8c-7.6-6.3-25.4-21.1-25.4-21.1v-5.7H177.3z"
    />
		<path
      class="line"
      d="M177.3,125.9c0,0,21.5,17.2,25.4,20.2c4.1,2.9,9.3,6.5,24.7,8.8c15.3,2.2,23.1,3.3,23.1,3.3v1.4c0,0-13.8-2-23.1-3.1c-9.3-1.2-16.3-1.8-24.7-7.2c-8.2-5.5-25.6-17.8-25.6-17.8v-5.5H177.3z"
    />
		<path
      class="line"
      d="M177.3,135.5c0,0,21.5,14.5,25.6,16.8c4.1,2.3,8.9,6.1,24.6,8c15.7,2,23.1,2.9,23.1,2.9v1.2c0,0-13-1.4-23.1-2.5c-10.1-1.2-17.1-2.5-24.6-6.9c-7.6-4.1-25.4-14.7-25.4-14.7v-4.9H177.3z"
    />
		<path
      class="line"
      d="M177.3,145.3c0,0,19,10.4,25.4,13.7c7.2,3.7,13.4,5.3,24.7,6.7c11.1,1.4,23.1,2.5,23.1,2.5v1.2c0,0-11.3-1.2-23.1-2.3c-11.8-1.2-16.1-1.6-24.7-5.5c-7.6-3.5-25.4-11.7-25.4-11.7V145.3L177.3,145.3z"
    />
		<path
      class="line"
      d="M177.3,155.1c0,0,14.9,6.5,25.6,10.8c10.5,4.1,18.2,4.5,24.6,5.3c2.7,0.4,23.1,2.3,23.1,2.3v1.2c0,0-12-1-23.1-2c-11.1-1-15.7-1.4-24.6-4.3c-8.9-2.9-25.6-8.8-25.6-8.8V155.1L177.3,155.1z"
    />
		<path
      class="line"
      d="M177.3,164.9c0,0,15.1,4.7,25.6,7.4c10.3,2.7,19.8,3.9,24.6,4.1c4.9,0.4,23.1,1.8,23.1,1.8v1.2c0,0-10.5-0.8-23.1-1.6c-10.3-0.8-18.6-1.6-24.6-2.9c-6.8-1.6-25.4-6.1-25.4-6.1v-3.9H177.3z"
    />
		<path
      class="line"
      d="M177.3,174.8c0,0,12.4,2.2,25.6,4.3c9.9,1.6,23.1,2.7,24.6,2.7c1.4,0,23.1,1.6,23.1,1.6v1.2c0,0-14-0.8-23.1-1.2c-9.7-0.6-19.2-1.2-24.6-1.8c-12.2-1.4-25.4-2.9-25.4-2.9v-3.9H177.3z"
    />
		<path
      class="line"
      d="M177.3,185.9c0,0,19.6,0.8,25.6,0.8c6,0.2,47.7,1.8,47.7,1.8v1.2h-73.4V185.9L177.3,185.9z"
    />
		<path
      class="line"
      d="M227.4,128.2c-17.7-3.9-21.7-10.4-24.7-14.5c-2.9-4.1-25.4-37.2-25.4-37.2V84c1,1.2,20,26.4,25.4,33.5c6,7.8,15.5,9.6,24.7,11.6c9.1,2,23.1,4.7,23.1,4.7v-1C250.7,132.9,232,129.2,227.4,128.2"
    />
		<path
      class="line"
      d="M227.4,133.3c-14.6-2.9-20.4-7.4-24.7-13.1c-4.3-5.7-25.4-33.7-25.4-33.7v7c1,1,20.2,24.3,25.4,30.1c6,7,14.6,8.8,24.7,10.8c10.3,2,23.1,4.3,23.1,4.3v-1C250.7,137.8,235.7,135.1,227.4,133.3"
    />
		<path
      class="line"
      d="M227.4,138.8c-15.1-2.9-18.2-5.5-24.7-12.5c-4.1-4.5-24.6-29-25.4-30v6.7c0,0,19.2,20.8,25.4,26.8c8.2,8,15.7,8.6,24.7,10.2c8.9,1.6,23.1,4.3,23.1,4.3v-1.2C250.7,143.1,233.4,140,227.4,138.8"
    />
    <path class="flag" d="m55.5,188.37h105.61v-70.59H55.5v70.59Z" />
    <path
      class="star"
      d="m109.49,127.82h3.65l-2.92,2.37,1.09,3.65-2.92-2.19-2.92,2.19,1.09-3.65-2.92-2.37h3.65l1.09-3.65,1.09,3.65Z"
    />
    <path
      class="star"
      d="m109.49,174.88h3.65l-2.92,2.19,1.09,3.47-2.92-2.19-2.92,2.19,1.09-3.47-2.92-2.19h3.65l1.09-3.47,1.09,3.47Z"
    />
    <path
      class="star"
      d="m121.16,171.78h3.65l-2.92,2.19,1.09,3.47-2.92-2.19-2.92,2.19,1.09-3.47-2.92-2.19h3.65l1.09-3.47,1.09,3.47Z"
    />
    <path
      class="star"
      d="m121.16,130.92h3.65l-2.92,2.19,1.09,3.47-2.92-2.19-2.92,2.37,1.28-3.65-2.92-2.19h3.65l1.09-3.47.91,3.47Z"
    />
    <path
      class="star"
      d="m129.91,139.67h3.65l-2.92,2.19,1.09,3.47-2.92-2.19-2.92,2.19,1.09-3.47-2.92-2.19h3.65l1.09-3.46,1.09,3.46Z"
    />
    <path
      class="star"
      d="m129.91,163.38h3.65l-2.92,2.19,1.09,3.47-2.92-2.19-2.92,2.19,1.09-3.47-2.92-2.19h3.65l1.09-3.46,1.09,3.46Z"
    />
    <path
      class="star"
      d="m133.2,151.35h3.65l-2.92,2.19,1.09,3.47-2.92-2.19-2.92,2.19,1.09-3.47-3.1-2.19h3.65l1.09-3.47,1.28,3.47Z"
    />
    <path
      class="star"
      d="m97.45,130.92h3.65l-2.92,2.19,1.09,3.47-2.74-2.01-3.1,2.19,1.09-3.47-2.92-2.19h3.65l1.28-3.47.91,3.28Z"
    />
    <path
      class="star"
      d="m89.06,139.67h3.65l-2.92,2.19,1.09,3.47-2.92-2.19-2.92,2.19,1.09-3.47-2.92-2.19h3.65l1.09-3.46,1.09,3.46Z"
    />
    <path
      class="star"
      d="m85.96,151.35h3.65l-2.92,2.19,1.09,3.47-2.92-2.19-2.92,2.19,1.09-3.47-2.92-2.19h3.65l1.09-3.47,1.09,3.47Z"
    />
    <path
      class="star"
      d="m89.06,163.38h3.65l-2.92,2.19,1.09,3.47-2.92-2.19-2.92,2.19,1.09-3.47-2.92-2.19h3.65l1.09-3.46,1.09,3.46Z"
    />
    <path
      class="star"
      d="m97.7,172.1h3.7l-2.9,2.2l1,3.5l-2.9-2.2l-2.9,2.2l1.2-3.5l-2.9-2.2h3.7l1-3.5L97.7,172.1Z"
    />
  </g>
</svg>
