<?xml version="1.0" encoding="UTF-8" ?>
<svg
  id="eu-favicon"
  data-name="eu-favicon"
  xmlns="http://www.w3.org/2000/svg"
  viewBox="0 0 256 256"
>
  <defs>
    <style>
      .background {
        fill: none;
      }
      .flag {
        fill: #039;
      }
      .star {
        fill: #fc0;
        fill-rule: evenodd;
      }
    </style>
  </defs>
  <rect class="background" x=".1" y="0" width="256" height="256" />
  <rect class="flag" x="8.73" y="48.52" width="238.44" height="158.96" />
  <path
    class="star"
    d="m119.81,74.35l5.03,3.68-1.92,5.99,5.03-3.71,5.03,3.71-1.92-5.99,5.03-3.68h-6.23l-1.92-5.96-1.92,5.96h-6.23Zm13.18,113.26l-1.92-5.96,5.03-3.68h-6.23l-1.92-5.99-1.92,5.99h-6.23l5.03,3.68-1.92,5.96,5.03-3.68,5.03,3.68Zm-56.5-55.63l-5.03,3.71,1.92-5.96-5.03-3.58h6.23l1.92-5.96,1.92,5.96h6.26l-5.07,3.71,1.92,5.96-5.03-3.71v-.13Zm30.77-41.07l-1.92-5.96,5.03-3.64h-6.23l-1.92-5.96-1.92,5.96h-6.23l5.03,3.68-1.92,5.96,5.03-3.68,5.03,3.64Zm-25.67,9.34l1.92-5.96,1.95,5.96h6.06l-5.03,3.71,1.92,5.96-5.07-3.71-5.07,3.71,1.92-5.96-5.03-3.71h6.42Zm0,51.8h-6.42l5.03,3.71-1.92,5.96,5.07-3.68,5.07,3.68-1.92-5.96,5.03-3.71h-6.06l-1.95-5.96-1.92,5.96Zm17.52,22.65l-5.03-3.64h6.23l1.92-5.96,1.92,5.96h6.23l-5.03,3.64,1.92,5.96-5.03-3.68-5.03,3.68,1.92-5.96Zm85.34-38.88l-1.92-5.96,5.03-3.71h-6.09l-1.92-5.96-1.92,5.96h-6.46l5.07,3.71-1.92,5.96,5.1-3.71,5.03,3.71Zm-33.88-50.87l-5.03-3.64h6.23l1.92-5.96,1.92,5.96h6.23l-5.03,3.64,1.92,5.96-5.03-3.64-5.03,3.68,1.92-5.96v-.03Zm21.82,9.31l-1.95,5.96-6.06.03,5,3.71-1.92,5.96,5.07-3.71,5.03,3.71-1.92-5.96,4.9-3.74h-6.23l-1.92-5.96Zm2.09,57.79h6.06l-4.9,3.71,1.92,5.96-5.03-3.68-5.07,3.68,1.92-5.96-5-3.71h6.23l1.95-5.96,1.92,5.96Zm-17.68,22.65l5.03-3.64h-6.23l-1.92-5.96-1.92,5.96h-6.23l5.03,3.64-1.92,5.96,5.03-3.68,5.03,3.68-1.92-5.96Z"
  />
</svg>
