<svg width="40" height="40" viewBox="0 0 40 40" fill="none" xmlns="http://www.w3.org/2000/svg">
<rect width="40" height="40" fill="#2B90D9"/>
<rect width="40" height="40" fill="#2B90D9"/>
<path d="M36.364 23.647C35.8703 26.2341 31.8613 29.0581 27.2599 29.6111C24.8703 29.8876 22.5005 30.1641 19.9924 30.0456C15.8846 29.8481 12.6261 29.0581 12.6261 29.0581C12.6261 29.4531 12.6459 29.8481 12.7051 30.2036C13.2383 34.252 16.7338 34.5088 20.0319 34.6273C23.3694 34.7458 26.3317 33.7978 26.3317 33.7978L26.4699 36.8194C26.4699 36.8194 24.1396 38.0635 19.9726 38.3005C17.6818 38.419 14.838 38.2413 11.5202 37.3723C4.37117 35.4567 3.12701 27.7745 2.94927 20.0133C2.89003 17.7027 2.92952 15.5303 2.92952 13.7134C2.92952 5.75472 8.14317 3.42438 8.14317 3.42438C10.75 2.21971 15.2724 1.70625 19.9529 1.66675H20.0714C24.7518 1.70625 29.2742 2.21971 31.9008 3.42438C31.9008 3.42438 37.1145 5.75472 37.1145 13.7134C37.0947 13.6937 37.1737 19.559 36.364 23.647Z" fill="white"/>
<path d="M30.9679 14.3255V23.9629H27.1564V14.602C27.1564 12.6271 26.327 11.6397 24.6681 11.6397C22.8315 11.6397 21.923 12.8246 21.923 15.1747V20.2896H18.1313V15.155C18.1313 12.8049 17.2031 11.6199 15.3862 11.6199C13.7273 11.6199 12.8979 12.6271 12.8979 14.5822V23.9234H9.06665V14.3255C9.06665 12.3506 9.56037 10.7905 10.5675 9.64508C11.6142 8.47991 12.9571 7.88745 14.6555 7.88745C16.6106 7.88745 18.0918 8.6379 19.0595 10.1388L20.0074 11.7384L20.9553 10.1388C21.923 8.6379 23.4042 7.88745 25.3593 7.88745C27.0379 7.88745 28.4006 8.47991 29.4473 9.64508C30.4742 10.7905 30.9679 12.3506 30.9679 14.3255Z" fill="#2B90D9"/>
</svg>
