<svg xmlns="http://www.w3.org/2000/svg" viewBox="0 0 40 40"><path fill="#4b4b4c" d="M0 0h40v40H0z"/><path d="M29.7 20.3c2.5 0 4.6-2.1 4.6-4.6 0-2.5-2.1-4.6-4.6-4.6-2.6 0-4.6 2.1-4.6 4.6 0 2.6 2.1 4.6 4.6 4.6zm.4 1.1h-.8c-2.6.2-4.7 2.6-4.7 5.2v1.8c0 .3.2.5.5.5h9.3c.3 0 .5-.2.5-.5v-1.8c-.1-2.6-2.2-5-4.8-5.2zM19 21.2c2.3 0 4.2-1.8 4.2-4.1S21.3 13 19 13c-2.3 0-4.2 1.8-4.2 4.1.1 2.2 1.9 4.1 4.2 4.1zm.4.9h-.8c-2.3.2-4.2 2.3-4.2 4.7v1.6c0 .2.2.4.4.4h8.3c.2 0 .4-.2.4-.4v-1.6c.1-2.4-1.8-4.5-4.1-4.7zM9.3 22c2.1 0 3.7-1.7 3.7-3.7s-1.7-3.7-3.7-3.7c-2.1 0-3.7 1.7-3.7 3.7S7.2 22 9.3 22zm.3.8H9c-2.1.2-3.8 2.1-3.8 4.2v1.4c0 .2.2.4.4.4H13c.2 0 .4-.2.4-.4V27c0-2.1-1.6-4-3.8-4.2z" fill="#fff"/></svg>