<svg xmlns="http://www.w3.org/2000/svg" viewBox="0 0 40 40"><path fill="#003b6a" d="M0 0h40v40H0z"/><path d="M13.1 11.7c1.1-.8 2.5-1.3 3.9-1.3h6.2c1.4 0 2.9.5 4 1.4 1.5 1.1 2.4 2.9 2.5 4.8 0 3.4.1 6.9 0 10.3v2.7H18c-1 0-2.1 0-3.1-.4-2.5-.8-4.4-3.3-4.5-5.9v-6.7c.1-1.9 1.1-3.8 2.7-4.9zm7.7 3c1 1.5 1.6 3.2 1.6 5 .1 1.9-.6 3.8-1.7 5.4.4.3.9.6 1.3.8 2.7-3.4 2.7-8.7 0-12.1-.3.4-.8.6-1.2.9zm-3.2 1.1c-1 .4-1 1.9 0 2.4.9.5 2-.4 1.8-1.4-.1-.8-1.1-1.4-1.8-1zm-.2 5.1c-.3 1.4-.7 2.7-1 4.1h1.8c.4-1.4.9-2.8 1.3-4.2-.7.1-1.4 0-2.1.1z" fill="#8ec9e8" stroke="#8cd1f3" stroke-width=".094"/></svg>