<?xml version="1.0" encoding="UTF-8"?>
<svg width="460px" height="345px" viewBox="0 0 460 345" version="1.1" xmlns="http://www.w3.org/2000/svg" xmlns:xlink="http://www.w3.org/1999/xlink">
    <title>eu_comp_date_blocks</title>
    <g id="thumbnails---final" stroke="none" stroke-width="1" fill="none" fill-rule="evenodd">
        <g id="EU-thumbnails---final_symbols" transform="translate(-20.000000, -3305.000000)">
            <g id="eu_comp_date_blocks" transform="translate(20.000000, 3305.000000)">
                <g id="Group" transform="translate(181.000000, 114.000000)">
                    <path d="M16,0 C16,4.418278 19.581722,8 24,8 C28.418278,8 32,4.418278 32,0 L67,0 L67,0 C67,4.418278 70.581722,8 75,8 C79.418278,8 83,4.418278 83,0 L99,0 L99,90 L0,90 L0,0 L16,0 L16,0 Z" id="Combined-Shape" fill="#0E47CB"></path>
                    <path d="M0,90 L99,90 L99,110 C99,114.418278 95.418278,118 91,118 L8,118 C3.581722,118 5.41083001e-16,114.418278 0,110 L0,90 L0,90 Z" id="Rectangle" stroke-opacity="0.5" stroke="#044695"></path>
                </g>
            </g>
        </g>
    </g>
</svg>