<svg
  width="40"
  height="41"
  viewBox="0 0 40 41"
  fill="none"
  xmlns="http://www.w3.org/2000/svg"
>
<g clip-path="url(#clip0_17507_13410)">
<path d="M39 1.08887H1V39.0889H39V1.08887Z" fill="#FF0000" />
</g>
<path
    d="M17.291 11.7944C17.0271 11.7899 16.589 11.8785 16.5988 12.081C15.8637 11.9551 15.7872 12.2587 15.8304 12.5289C15.9003 12.4217 15.9855 12.3635 16.0509 12.3525C16.1489 12.3362 16.2515 12.3679 16.3563 12.4322C16.461 12.4966 16.5764 12.6004 16.6277 12.6646C16.3682 12.7266 16.1678 12.6866 15.9644 12.651C15.8641 12.6335 15.7238 12.5771 15.6404 12.5187C15.557 12.4603 15.5307 12.4054 15.3995 12.271C15.2448 12.1126 15.0801 12.1572 15.1314 12.4034C15.2501 12.632 15.4483 12.7339 15.698 12.7749C15.8182 12.7946 15.9973 12.8375 16.2002 12.8376C16.4031 12.8379 16.631 12.8083 16.7549 12.8343C16.6805 12.881 16.5962 12.9616 16.4292 12.9937C16.2594 13.0264 16.0013 12.8927 15.8439 12.8563C15.8639 12.9887 16.0309 13.1124 16.3597 13.1769C16.8999 13.2946 17.3488 13.384 17.6456 13.5451C17.9423 13.7062 18.1294 13.9078 18.2631 14.0659C18.529 14.3804 18.543 14.6218 18.5599 14.6749C18.6146 15.1773 18.4394 15.46 18.1138 15.5469C17.9509 15.5903 17.6617 15.5085 17.5556 15.384C17.4496 15.2595 17.3464 15.0456 17.3758 14.7105C17.4044 14.5791 17.5547 14.2367 17.4267 14.166C16.8371 13.8401 16.1211 13.5105 15.6031 13.3144C15.4615 13.2608 15.3448 13.4532 15.2994 13.5281C14.4194 13.4209 13.6259 12.8254 13.2688 12.1913C13.0255 11.7594 12.6246 12.1922 12.692 12.6002C12.8008 13.0555 13.1477 13.3847 13.564 13.618C13.9912 13.8532 14.5251 14.0847 15.0653 14.0727C15.3563 14.1277 15.3534 14.5042 15.0042 14.5748C14.3213 14.5791 13.7764 14.5621 13.262 14.0659C12.8718 13.7096 12.6521 14.1341 12.7649 14.3746C12.9561 15.1161 14.0138 15.3237 15.0839 15.0837C15.4983 15.0151 15.2502 15.4591 15.1331 15.4637C14.686 15.7843 13.8855 16.098 13.1805 15.4603C12.858 15.2133 12.6399 15.421 12.7598 15.7776C13.0726 16.7074 14.2692 16.5121 15.0907 16.0541C15.3022 15.9362 15.4941 16.2105 15.2366 16.4188C14.215 17.1327 13.7041 17.1408 13.2433 16.8667C12.6664 16.6392 12.6156 17.2791 12.9583 17.4893C13.3392 17.7229 14.3084 17.5478 15.0195 17.1008C15.3243 16.8742 15.3381 17.2285 15.145 17.3688C14.3012 18.0981 13.9686 18.2901 13.0889 18.1713C12.6527 18.1372 12.6593 18.675 13.0024 18.8855C13.4709 19.1728 14.3858 18.6959 15.0958 18.1068C15.3947 17.9471 15.4438 18.209 15.296 18.519C14.8621 19.0664 14.4549 19.3891 14.0627 19.5386C13.6704 19.688 13.2932 19.6642 13.0262 19.5725C12.7004 19.4606 12.6596 19.7991 12.8396 20.1069C12.9481 20.2924 13.3976 20.3519 13.8829 20.1798C14.3681 20.0078 14.8891 19.6042 15.2468 19.1314C15.558 18.859 15.5193 19.225 15.3774 19.4826C14.6612 20.6149 14.0061 21.0349 13.1432 20.9636C12.7606 20.8986 12.6738 21.1961 12.9176 21.4708C13.3458 21.8259 13.8811 21.8147 14.3494 21.464C14.7657 21.0627 15.562 20.1984 15.9797 19.7353C16.274 19.5007 16.368 19.732 16.2816 20.2086C16.2031 20.4816 16.0065 20.7691 15.4707 20.9788C15.1047 21.1877 15.3796 21.4756 15.6539 21.481C15.8049 21.4839 16.1115 21.3074 16.3461 21.0433C16.6547 20.6958 16.673 20.4626 16.8431 19.9219C17.0039 19.6584 17.291 19.7814 17.291 20.0577C17.1533 20.5992 17.035 20.6963 16.7566 20.9178C16.4904 21.1677 16.942 21.251 17.0942 21.1485C17.5345 20.8517 17.6952 20.4678 17.8423 20.1187C17.9485 19.8668 18.2566 19.9889 18.1138 20.4003C17.7725 21.3836 17.2118 21.7708 16.2307 21.9695C16.1313 21.9872 16.0707 22.0459 16.1052 22.1612C16.2369 22.2979 16.3688 22.422 16.5005 22.5582C15.8938 22.7348 15.401 22.8341 14.7938 23.0112C14.496 22.8159 14.2554 22.6502 13.9575 22.4547C13.879 22.2711 13.8423 21.9909 13.4028 22.1884C13.1049 22.0508 12.9675 22.1013 12.8022 22.2393C13.0408 22.2482 13.1447 22.3121 13.2382 22.4208C13.3604 22.7425 13.642 22.7736 13.9304 22.6821C14.1179 22.8401 14.2178 22.9613 14.4054 23.1197C14.0553 23.1078 13.8114 23.1016 13.4622 23.0909C13.1288 22.733 12.8627 22.7526 12.6241 23.0332C12.4423 23.0612 12.3652 23.0651 12.2407 23.286C12.4364 23.2057 12.5596 23.1816 12.6445 23.2691C12.9989 23.4745 13.2304 23.4287 13.4062 23.2691C13.7481 23.29 14.0562 23.3077 14.3986 23.3301C14.2728 23.437 14.1002 23.4937 13.9745 23.6016C13.4609 23.4546 13.1929 23.6524 13.1025 24.0715C13.0337 24.2406 13.0015 24.4148 13.0313 24.5957C13.081 24.4302 13.1609 24.2879 13.3078 24.1987C13.7655 24.315 13.9376 24.1281 13.9626 23.8543C14.1832 23.6743 14.516 23.6346 14.7362 23.4523C14.9936 23.5347 15.1181 23.5858 15.3774 23.6677C15.4696 23.9479 15.6782 24.0588 16.017 23.9867C16.4202 23.9993 16.349 24.1648 16.3817 24.2971C16.4889 24.107 16.4859 23.9222 16.2375 23.7542C16.1471 23.5087 15.9469 23.3971 15.6845 23.5388C15.4374 23.4687 15.3725 23.3678 15.1263 23.2979C15.7489 23.0995 16.1905 23.0548 16.8126 22.8568C16.9683 23.0037 17.0917 23.1092 17.2486 23.2402C17.3312 23.2896 17.4104 23.302 17.4589 23.2402C17.8488 22.676 18.0229 22.1788 18.3852 21.8067C18.5236 21.6528 18.6985 21.4451 18.8924 21.3945C18.9894 21.3692 19.1083 21.3846 19.1842 21.4675C19.2601 21.5503 19.3198 21.7029 19.2945 21.9306C19.2582 22.2574 19.1792 22.3606 19.0875 22.5566C18.9958 22.7525 18.8838 22.873 18.7686 23.0231C18.5382 23.3232 18.2343 23.4978 18.0544 23.6151C17.6946 23.8497 17.5424 23.7471 17.2639 23.7322C16.9038 23.7726 16.808 23.948 17.1027 24.1902C17.3782 24.3336 17.6258 24.3513 17.8271 24.3141C17.9999 24.2821 18.2021 24.0591 18.3462 23.9392C18.5084 23.7518 18.7773 23.974 18.5939 24.1919C18.2606 24.5879 17.9276 24.849 17.5166 24.8434C17.0848 24.9015 17.1656 25.1441 17.4522 25.2624C17.9679 25.4752 18.4336 25.0765 18.6702 24.8145C18.8527 24.6148 18.9824 24.607 18.9501 24.9163C18.7689 25.4762 18.5213 25.6925 18.1172 25.7204C17.7893 25.69 17.7858 25.943 18.0255 26.114C18.5717 26.492 18.9672 25.8483 19.152 25.4592C19.2837 25.1082 19.4856 25.2751 19.5065 25.5643C19.5093 25.9508 19.3346 26.2664 18.867 26.6619C19.2248 27.232 19.6419 27.8119 20.0002 28.3838L21.0862 16.2886L20.0005 14.3776C19.8874 14.2732 19.505 13.8226 19.405 13.7601C19.3686 13.7212 19.3464 13.6936 19.3999 13.6736C19.4517 13.6542 19.5729 13.6324 19.6544 13.6176C19.4241 13.3869 19.2268 13.313 18.7909 13.1867C18.8971 13.1415 19.0005 13.1678 19.3134 13.1528C19.1892 12.9765 18.9117 12.7063 18.5534 12.576C18.79 12.4078 18.8361 12.3965 19.0708 12.1994C18.6644 12.1706 18.3173 12.0932 17.9681 11.9873C17.7474 11.8841 17.4407 11.7965 17.2913 11.7939L17.291 11.7944ZM17.33 12.2677C17.5448 12.2677 17.6778 12.3413 17.6778 12.4305C17.6778 12.5213 17.5448 12.5951 17.33 12.5951C17.1162 12.5951 16.9806 12.5146 16.9806 12.4237C16.9806 12.3345 17.1162 12.2677 17.33 12.2677Z"
    fill="black"
  />
<path
    d="M22.7095 11.7944C22.9734 11.7899 23.4115 11.8785 23.4016 12.081C24.1368 11.9551 24.2133 12.2587 24.1701 12.5289C24.1002 12.4217 24.015 12.3635 23.9496 12.3525C23.8516 12.3362 23.749 12.3679 23.6442 12.4322C23.5395 12.4966 23.4241 12.6004 23.3728 12.6646C23.6323 12.7266 23.8327 12.6866 24.0361 12.651C24.1364 12.6335 24.2767 12.5771 24.3601 12.5187C24.4435 12.4603 24.4698 12.4054 24.601 12.271C24.7557 12.1126 24.9204 12.1572 24.869 12.4034C24.7504 12.632 24.5522 12.7339 24.3024 12.7749C24.1823 12.7946 24.0032 12.8375 23.8003 12.8376C23.5974 12.8379 23.3695 12.8083 23.2456 12.8343C23.32 12.881 23.4043 12.9616 23.5713 12.9937C23.7411 13.0264 23.9992 12.8927 24.1565 12.8563C24.1366 12.9887 23.9696 13.1124 23.6408 13.1769C23.1006 13.2946 22.6517 13.384 22.3549 13.5451C22.0582 13.7062 21.8711 13.9078 21.7374 14.0659C21.4715 14.3804 21.4575 14.6218 21.4406 14.6749C21.3859 15.1773 21.5611 15.46 21.8867 15.5469C22.0496 15.5903 22.3388 15.5085 22.4448 15.384C22.5509 15.2595 22.6541 15.0456 22.6247 14.7105C22.5961 14.5791 22.4458 14.2367 22.5738 14.166C23.1634 13.8401 23.8794 13.5105 24.3974 13.3144C24.539 13.2608 24.6557 13.4532 24.7011 13.5281C25.5811 13.4209 26.3746 12.8254 26.7317 12.1913C26.975 11.7594 27.3759 12.1922 27.3085 12.6002C27.1997 13.0555 26.8528 13.3847 26.4365 13.618C26.0093 13.8532 25.4754 14.0847 24.9352 14.0727C24.6442 14.1277 24.6471 14.5042 24.9963 14.5748C25.6792 14.5791 26.2241 14.5621 26.7385 14.0659C27.1287 13.7096 27.3484 14.1341 27.2356 14.3746C27.0444 15.1161 25.9866 15.3237 24.9165 15.0837C24.5022 15.0151 24.7503 15.4591 24.8674 15.4637C25.3145 15.7843 26.115 16.098 26.8199 15.4603C27.1425 15.2133 27.3606 15.421 27.2407 15.7776C26.9279 16.7074 25.7313 16.5121 24.9098 16.0541C24.6983 15.9362 24.5064 16.2105 24.7639 16.4188C25.7855 17.1327 26.2963 17.1408 26.7572 16.8667C27.3341 16.6392 27.3848 17.2791 27.0422 17.4893C26.6613 17.7229 25.6921 17.5478 24.981 17.1008C24.6762 16.8742 24.6624 17.2285 24.8555 17.3688C25.6993 18.0981 26.0319 18.2901 26.9115 18.1713C27.3477 18.1372 27.3412 18.675 26.9981 18.8855C26.5296 19.1728 25.6147 18.6959 24.9047 18.1068C24.6058 17.9471 24.5567 18.209 24.7045 18.519C25.1383 19.0664 25.5456 19.3891 25.9378 19.5386C26.33 19.688 26.7073 19.6642 26.9743 19.5725C27.3 19.4606 27.3409 19.7991 27.1609 20.1069C27.0524 20.2924 26.6029 20.3519 26.1176 20.1798C25.6324 20.0078 25.1114 19.6042 24.7537 19.1314C24.4425 18.859 24.4812 19.225 24.6231 19.4826C25.3393 20.6149 25.9944 21.0349 26.8573 20.9636C27.2398 20.8986 27.3267 21.1961 27.0829 21.4708C26.6547 21.8259 26.1193 21.8147 25.6511 21.464C25.2348 21.0627 24.4385 20.1984 24.0208 19.7353C23.7265 19.5007 23.6325 19.732 23.7189 20.2086C23.7974 20.4816 23.994 20.7691 24.5298 20.9788C24.8958 21.1877 24.6209 21.4756 24.3465 21.481C24.1956 21.4839 23.889 21.3074 23.6544 21.0433C23.3458 20.6958 23.3275 20.4626 23.1573 19.9219C22.9966 19.6584 22.7095 19.7814 22.7095 20.0577C22.8472 20.5992 22.9655 20.6963 23.2439 20.9178C23.5101 21.1677 23.0585 21.251 22.9063 21.1485C22.466 20.8517 22.3053 20.4678 22.1582 20.1187C22.052 19.8668 21.7439 19.9889 21.8867 20.4003C22.228 21.3836 22.7887 21.7708 23.7698 21.9695C23.8692 21.9872 23.9298 22.0459 23.8953 22.1612C23.7636 22.2979 23.6317 22.422 23.5 22.5582C24.1067 22.7348 24.5995 22.8341 25.2066 23.0112C25.5045 22.8159 25.7451 22.6502 26.043 22.4547C26.1215 22.2711 26.1581 21.9909 26.5977 22.1884C26.8956 22.0508 27.033 22.1013 27.1982 22.2393C26.9596 22.2482 26.8558 22.3121 26.7623 22.4208C26.6401 22.7425 26.3584 22.7736 26.0701 22.6821C25.8826 22.8401 25.7827 22.9613 25.5951 23.1197C25.9452 23.1078 26.1891 23.1016 26.5383 23.0909C26.8717 22.733 27.1378 22.7526 27.3764 23.0332C27.5582 23.0612 27.6353 23.0651 27.7598 23.286C27.5641 23.2057 27.4409 23.1816 27.356 23.2691C27.0016 23.4745 26.7701 23.4287 26.5943 23.2691C26.2524 23.29 25.9443 23.3077 25.6019 23.3301C25.7277 23.437 25.9003 23.4937 26.026 23.6016C26.5396 23.4546 26.8076 23.6524 26.898 24.0715C26.9668 24.2406 26.999 24.4148 26.9692 24.5957C26.9195 24.4302 26.8396 24.2879 26.6927 24.1987C26.235 24.315 26.0629 24.1281 26.0379 23.8543C25.8172 23.6743 25.4845 23.6346 25.2643 23.4523C25.0068 23.5347 24.8824 23.5858 24.6231 23.6677C24.5309 23.9479 24.3223 24.0588 23.9835 23.9867C23.5803 23.9993 23.6515 24.1648 23.6188 24.2971C23.5116 24.107 23.5146 23.9222 23.763 23.7542C23.8533 23.5087 24.0536 23.3971 24.316 23.5388C24.5631 23.4687 24.628 23.3678 24.8741 23.2979C24.2516 23.0995 23.81 23.0548 23.1879 22.8568C23.0322 23.0037 22.9088 23.1092 22.7519 23.2402C22.6692 23.2896 22.5901 23.302 22.5415 23.2402C22.1517 22.676 21.9776 22.1788 21.6153 21.8067C21.4769 21.6528 21.302 21.4451 21.1081 21.3945C21.0111 21.3692 20.8922 21.3846 20.8163 21.4675C20.7404 21.5503 20.6807 21.7029 20.706 21.9306C20.7423 22.2574 20.8213 22.3606 20.913 22.5566C21.0047 22.7525 21.1167 22.873 21.2319 23.0231C21.4623 23.3232 21.7662 23.4978 21.9461 23.6151C22.3059 23.8497 22.4581 23.7471 22.7366 23.7322C23.0967 23.7726 23.1925 23.948 22.8978 24.1902C22.6223 24.3336 22.3747 24.3513 22.1734 24.3141C22.0006 24.2821 21.7984 24.0591 21.6543 23.9392C21.4921 23.7518 21.2232 23.974 21.4066 24.1919C21.7399 24.5879 22.0729 24.849 22.4839 24.8434C22.9157 24.9015 22.8349 25.1441 22.5483 25.2624C22.0326 25.4752 21.5669 25.0765 21.3303 24.8145C21.1478 24.6148 21.0181 24.607 21.0504 24.9163C21.2316 25.4762 21.4792 25.6925 21.8833 25.7204C22.2111 25.69 22.2147 25.943 21.9749 26.114C21.4288 26.492 21.0333 25.8483 20.8485 25.4592C20.7168 25.1082 20.5149 25.2751 20.494 25.5643C20.4912 25.9508 20.6659 26.2664 21.1335 26.6619C20.7757 27.232 20.3586 27.8119 20.0003 28.3838L18.9143 16.2886L20 14.3776C20.1131 14.2732 20.4955 13.8226 20.5955 13.7601C20.6319 13.7212 20.6541 13.6936 20.6005 13.6736C20.5488 13.6542 20.4276 13.6324 20.3461 13.6176C20.5763 13.3869 20.7737 13.313 21.2096 13.1867C21.1033 13.1415 21 13.1678 20.6871 13.1528C20.8113 12.9765 21.0888 12.7063 21.4471 12.576C21.2105 12.4078 21.1644 12.3965 20.9297 12.1994C21.3361 12.1706 21.6831 12.0932 22.0323 11.9873C22.2531 11.8841 22.5598 11.7965 22.7092 11.7939L22.7095 11.7944ZM22.6705 12.2677C22.4557 12.2677 22.3227 12.3413 22.3227 12.4305C22.3227 12.5213 22.4557 12.5951 22.6705 12.5951C22.8843 12.5951 23.0199 12.5146 23.0199 12.4237C23.0199 12.3345 22.8843 12.2677 22.6705 12.2677Z"
    fill="black"
  />
<defs>
<clipPath id="clip0_17507_13410">
<rect width="38" height="38" fill="white" transform="translate(1 1.08887)" />
</clipPath>
</defs>
</svg>
