<svg
  width="40"
  height="40"
  viewBox="0 0 40 40"
  fill="none"
  xmlns="http://www.w3.org/2000/svg"
>
<g clip-path="url(#clip0_17507_12731)">
<path d="M39 7.5H1V32.5H39V7.5Z" fill="#FF0000" />
<path
      d="M17.291 12.3607C17.0271 12.3566 16.589 12.4382 16.5988 12.6248C15.8637 12.5087 15.7872 12.7884 15.8304 13.0373C15.9003 12.9385 15.9855 12.8849 16.0509 12.8748C16.1489 12.8598 16.2515 12.889 16.3563 12.9482C16.461 13.0075 16.5764 13.1031 16.6277 13.1623C16.3682 13.2194 16.1678 13.1825 15.9644 13.1498C15.8641 13.1336 15.7238 13.0817 15.6404 13.0279C15.557 12.9741 15.5307 12.9235 15.3995 12.7998C15.2448 12.6539 15.0801 12.695 15.1314 12.9216C15.2501 13.1322 15.4483 13.2261 15.698 13.2638C15.8182 13.282 15.9973 13.3215 16.2002 13.3217C16.4031 13.3219 16.631 13.2947 16.7549 13.3185C16.6805 13.3616 16.5962 13.4358 16.4292 13.4654C16.2594 13.4955 16.0013 13.3724 15.8439 13.3388C15.8639 13.4608 16.0309 13.5747 16.3597 13.6342C16.8999 13.7425 17.3488 13.8248 17.6456 13.9732C17.9423 14.1216 18.1294 14.3073 18.2631 14.4529C18.529 14.7426 18.543 14.9649 18.5599 15.0138C18.6146 15.4766 18.4394 15.7369 18.1138 15.817C17.9509 15.857 17.6617 15.7816 17.5556 15.667C17.4496 15.5523 17.3464 15.3553 17.3758 15.0467C17.4044 14.9256 17.5547 14.6102 17.4267 14.5451C16.8371 14.2449 16.1211 13.9414 15.6031 13.7607C15.4615 13.7114 15.3448 13.8886 15.2994 13.9576C14.4194 13.8589 13.6259 13.3104 13.2688 12.7264C13.0255 12.3286 12.6246 12.7272 12.692 13.1029C12.8008 13.5223 13.1477 13.8255 13.564 14.0404C13.9912 14.2571 14.5251 14.4703 15.0653 14.4592C15.3563 14.5099 15.3534 14.8566 15.0042 14.9217C14.3213 14.9256 13.7764 14.91 13.262 14.4529C12.8718 14.1248 12.6521 14.5158 12.7649 14.7373C12.9561 15.4202 14.0138 15.6114 15.0839 15.3904C15.4983 15.3272 15.2502 15.7362 15.1331 15.7404C14.686 16.0357 13.8855 16.3246 13.1805 15.7373C12.858 15.5098 12.6399 15.701 12.7598 16.0295C13.0726 16.8858 14.2692 16.706 15.0907 16.2842C15.3022 16.1756 15.4941 16.4282 15.2366 16.6201C14.215 17.2776 13.7041 17.2851 13.2433 17.0326C12.6664 16.823 12.6156 17.4124 12.9583 17.606C13.3392 17.8212 14.3084 17.6599 15.0195 17.2482C15.3243 17.0395 15.3381 17.3659 15.145 17.4951C14.3012 18.1668 13.9686 18.3437 13.0889 18.2342C12.6527 18.2028 12.6593 18.6982 13.0024 18.892C13.4709 19.1566 14.3858 18.7173 15.0958 18.1748C15.3947 18.0277 15.4438 18.2689 15.296 18.5545C14.8621 19.0586 14.4549 19.3559 14.0627 19.4935C13.6704 19.6312 13.2932 19.6093 13.0262 19.5248C12.7004 19.4217 12.6596 19.7335 12.8396 20.0169C12.9481 20.1878 13.3976 20.2426 13.8829 20.0841C14.3681 19.9257 14.8891 19.554 15.2468 19.1185C15.558 18.8676 15.5193 19.2047 15.3774 19.4419C14.6612 20.4849 14.0061 20.8718 13.1432 20.806C12.7606 20.7462 12.6738 21.0202 12.9176 21.2732C13.3458 21.6003 13.8811 21.59 14.3494 21.2669C14.7657 20.8973 15.562 20.1013 15.9797 19.6748C16.274 19.4587 16.368 19.6717 16.2816 20.1107C16.2031 20.3621 16.0065 20.6269 15.4707 20.8201C15.1047 21.0125 15.3796 21.2776 15.6539 21.2826C15.8049 21.2853 16.1115 21.1227 16.3461 20.8794C16.6547 20.5594 16.673 20.3446 16.8431 19.8466C17.0039 19.6039 17.291 19.7172 17.291 19.9716C17.1533 20.4704 17.035 20.5598 16.7566 20.7638C16.4904 20.9941 16.942 21.0708 17.0942 20.9763C17.5345 20.703 17.6952 20.3494 17.8423 20.0279C17.9485 19.7958 18.2566 19.9083 18.1138 20.2873C17.7725 21.1929 17.2118 21.5495 16.2307 21.7326C16.1313 21.7489 16.0707 21.8029 16.1052 21.9091C16.2369 22.035 16.3688 22.1493 16.5005 22.2748C15.8938 22.4374 15.401 22.5288 14.7938 22.692C14.496 22.5121 14.2554 22.3595 13.9575 22.1795C13.879 22.0103 13.8423 21.7522 13.4028 21.9342C13.1049 21.8074 12.9675 21.8539 12.8022 21.981C13.0408 21.9892 13.1447 22.0481 13.2382 22.1482C13.3604 22.4445 13.642 22.4731 13.9304 22.3888C14.1179 22.5344 14.2178 22.646 14.4054 22.792C14.0553 22.7809 13.8114 22.7752 13.4622 22.7654C13.1288 22.4357 12.8627 22.4538 12.6241 22.7123C12.4423 22.738 12.3652 22.7416 12.2407 22.9451C12.4364 22.8711 12.5596 22.8489 12.6445 22.9295C12.9989 23.1187 13.2304 23.0765 13.4062 22.9295C13.7481 22.9487 14.0562 22.965 14.3986 22.9857C14.2728 23.0842 14.1002 23.1364 13.9745 23.2357C13.4609 23.1004 13.1929 23.2826 13.1025 23.6686C13.0337 23.8243 13.0015 23.9847 13.0313 24.1514C13.081 23.9989 13.1609 23.8679 13.3078 23.7857C13.7655 23.8928 13.9376 23.7207 13.9626 23.4686C14.1832 23.3027 14.516 23.2662 14.7362 23.0982C14.9936 23.1742 15.1181 23.2212 15.3774 23.2967C15.4696 23.5547 15.6782 23.6569 16.017 23.5904C16.4202 23.6021 16.349 23.7545 16.3817 23.8764C16.4889 23.7013 16.4859 23.5311 16.2375 23.3764C16.1471 23.1502 15.9469 23.0474 15.6845 23.1779C15.4374 23.1133 15.3725 23.0205 15.1263 22.9561C15.7489 22.7733 16.1905 22.7322 16.8126 22.5498C16.9683 22.6851 17.0917 22.7822 17.2486 22.9029C17.3312 22.9484 17.4104 22.9598 17.4589 22.9029C17.8488 22.3833 18.0229 21.9253 18.3852 21.5826C18.5236 21.4408 18.6985 21.2495 18.8924 21.2029C18.9894 21.1796 19.1083 21.1938 19.1842 21.2701C19.2601 21.3464 19.3198 21.487 19.2945 21.6967C19.2582 21.9977 19.1792 22.0928 19.0875 22.2732C18.9958 22.4537 18.8838 22.5647 18.7686 22.7029C18.5382 22.9793 18.2343 23.1402 18.0544 23.2482C17.6946 23.4643 17.5424 23.3698 17.2639 23.356C16.9038 23.3933 16.808 23.5548 17.1027 23.7779C17.3782 23.9099 17.6258 23.9262 17.8271 23.892C17.9999 23.8626 18.2021 23.6571 18.3462 23.5467C18.5084 23.3741 18.7773 23.5788 18.5939 23.7795C18.2606 24.1442 17.9276 24.3847 17.5166 24.3795C17.0848 24.433 17.1656 24.6565 17.4522 24.7654C17.9679 24.9615 18.4336 24.5942 18.6702 24.3529C18.8527 24.169 18.9824 24.1618 18.9501 24.4467C18.7689 24.9624 18.5213 25.1616 18.1172 25.1873C17.7893 25.1593 17.7858 25.3923 18.0255 25.5498C18.5717 25.898 18.9672 25.3051 19.152 24.9467C19.2837 24.6234 19.4856 24.7771 19.5065 25.0435C19.5093 25.3995 19.3346 25.6902 18.867 26.0545C19.2248 26.5796 19.6419 27.1136 20.0002 27.6404L21.0862 16.5001L20.0005 14.74C19.8874 14.6439 19.505 14.2289 19.405 14.1713C19.3686 14.1354 19.3464 14.1101 19.3999 14.0916C19.4517 14.0737 19.5729 14.0537 19.6544 14.04C19.4241 13.8276 19.2268 13.7594 18.7909 13.6432C18.8971 13.6015 19.0005 13.6257 19.3134 13.6119C19.1892 13.4495 18.9117 13.2007 18.5534 13.0807C18.79 12.9257 18.8361 12.9154 19.0708 12.7338C18.6644 12.7072 18.3173 12.6359 17.9681 12.5385C17.7474 12.4434 17.4407 12.3627 17.2913 12.3604L17.291 12.3607ZM17.33 12.7967C17.5448 12.7967 17.6778 12.8645 17.6778 12.9467C17.6778 13.0303 17.5448 13.0982 17.33 13.0982C17.1162 13.0982 16.9806 13.0241 16.9806 12.9404C16.9806 12.8582 17.1162 12.7967 17.33 12.7967Z"
      fill="black"
    />
<path
      d="M22.7095 12.3607C22.9734 12.3566 23.4115 12.4382 23.4016 12.6248C24.1368 12.5087 24.2133 12.7884 24.1701 13.0373C24.1002 12.9385 24.015 12.8849 23.9496 12.8748C23.8516 12.8598 23.749 12.889 23.6442 12.9482C23.5395 13.0075 23.4241 13.1031 23.3728 13.1623C23.6323 13.2194 23.8327 13.1825 24.0361 13.1498C24.1364 13.1336 24.2767 13.0817 24.3601 13.0279C24.4435 12.9741 24.4698 12.9235 24.601 12.7998C24.7557 12.6539 24.9204 12.695 24.869 12.9216C24.7504 13.1322 24.5522 13.2261 24.3024 13.2638C24.1823 13.282 24.0032 13.3215 23.8003 13.3217C23.5974 13.3219 23.3695 13.2947 23.2456 13.3185C23.32 13.3616 23.4043 13.4358 23.5713 13.4654C23.7411 13.4955 23.9992 13.3724 24.1565 13.3388C24.1366 13.4608 23.9696 13.5747 23.6408 13.6342C23.1006 13.7425 22.6517 13.8248 22.3549 13.9732C22.0582 14.1216 21.8711 14.3073 21.7374 14.4529C21.4715 14.7426 21.4575 14.9649 21.4406 15.0138C21.3859 15.4766 21.5611 15.7369 21.8867 15.817C22.0496 15.857 22.3388 15.7816 22.4448 15.667C22.5509 15.5523 22.6541 15.3553 22.6247 15.0467C22.5961 14.9256 22.4458 14.6102 22.5738 14.5451C23.1634 14.2449 23.8794 13.9414 24.3974 13.7607C24.539 13.7114 24.6557 13.8886 24.7011 13.9576C25.5811 13.8589 26.3746 13.3104 26.7317 12.7264C26.975 12.3286 27.3759 12.7272 27.3085 13.1029C27.1997 13.5223 26.8528 13.8255 26.4365 14.0404C26.0093 14.2571 25.4754 14.4703 24.9352 14.4592C24.6442 14.5099 24.6471 14.8566 24.9963 14.9217C25.6792 14.9256 26.2241 14.91 26.7385 14.4529C27.1287 14.1248 27.3484 14.5158 27.2356 14.7373C27.0444 15.4202 25.9866 15.6114 24.9165 15.3904C24.5022 15.3272 24.7503 15.7362 24.8674 15.7404C25.3145 16.0357 26.115 16.3246 26.8199 15.7373C27.1425 15.5098 27.3606 15.701 27.2407 16.0295C26.9279 16.8858 25.7313 16.706 24.9098 16.2842C24.6983 16.1756 24.5064 16.4282 24.7639 16.6201C25.7855 17.2776 26.2963 17.2851 26.7572 17.0326C27.3341 16.823 27.3848 17.4124 27.0422 17.606C26.6613 17.8212 25.6921 17.6599 24.981 17.2482C24.6762 17.0395 24.6624 17.3659 24.8555 17.4951C25.6993 18.1668 26.0319 18.3437 26.9115 18.2342C27.3477 18.2028 27.3412 18.6982 26.9981 18.892C26.5296 19.1566 25.6147 18.7173 24.9047 18.1748C24.6058 18.0277 24.5567 18.2689 24.7045 18.5545C25.1383 19.0586 25.5456 19.3559 25.9378 19.4935C26.33 19.6312 26.7073 19.6093 26.9743 19.5248C27.3 19.4217 27.3409 19.7335 27.1609 20.0169C27.0524 20.1878 26.6029 20.2426 26.1176 20.0841C25.6324 19.9257 25.1114 19.554 24.7537 19.1185C24.4425 18.8676 24.4812 19.2047 24.6231 19.4419C25.3393 20.4849 25.9944 20.8718 26.8573 20.806C27.2398 20.7462 27.3267 21.0202 27.0829 21.2732C26.6547 21.6003 26.1193 21.59 25.6511 21.2669C25.2348 20.8973 24.4385 20.1013 24.0208 19.6748C23.7265 19.4587 23.6325 19.6717 23.7189 20.1107C23.7974 20.3621 23.994 20.6269 24.5298 20.8201C24.8958 21.0125 24.6209 21.2776 24.3465 21.2826C24.1956 21.2853 23.889 21.1227 23.6544 20.8794C23.3458 20.5594 23.3275 20.3446 23.1573 19.8466C22.9966 19.6039 22.7095 19.7172 22.7095 19.9716C22.8472 20.4704 22.9655 20.5598 23.2439 20.7638C23.5101 20.9941 23.0585 21.0708 22.9063 20.9763C22.466 20.703 22.3053 20.3494 22.1582 20.0279C22.052 19.7958 21.7439 19.9083 21.8867 20.2873C22.228 21.1929 22.7887 21.5495 23.7698 21.7326C23.8692 21.7489 23.9298 21.8029 23.8953 21.9091C23.7636 22.035 23.6317 22.1493 23.5 22.2748C24.1067 22.4374 24.5995 22.5288 25.2066 22.692C25.5045 22.5121 25.7451 22.3595 26.043 22.1795C26.1215 22.0103 26.1581 21.7522 26.5977 21.9342C26.8956 21.8074 27.033 21.8539 27.1982 21.981C26.9596 21.9892 26.8558 22.0481 26.7623 22.1482C26.6401 22.4445 26.3584 22.4731 26.0701 22.3888C25.8826 22.5344 25.7827 22.646 25.5951 22.792C25.9452 22.7809 26.1891 22.7752 26.5383 22.7654C26.8717 22.4357 27.1378 22.4538 27.3764 22.7123C27.5582 22.738 27.6353 22.7416 27.7598 22.9451C27.5641 22.8711 27.4409 22.8489 27.356 22.9295C27.0016 23.1187 26.7701 23.0765 26.5943 22.9295C26.2524 22.9487 25.9443 22.965 25.6019 22.9857C25.7277 23.0842 25.9003 23.1364 26.026 23.2357C26.5396 23.1004 26.8076 23.2826 26.898 23.6686C26.9668 23.8243 26.999 23.9847 26.9692 24.1514C26.9195 23.9989 26.8396 23.8679 26.6927 23.7857C26.235 23.8928 26.0629 23.7207 26.0379 23.4686C25.8172 23.3027 25.4845 23.2662 25.2643 23.0982C25.0068 23.1742 24.8824 23.2212 24.6231 23.2967C24.5309 23.5547 24.3223 23.6569 23.9835 23.5904C23.5803 23.6021 23.6515 23.7545 23.6188 23.8764C23.5116 23.7013 23.5146 23.5311 23.763 23.3764C23.8533 23.1502 24.0536 23.0474 24.316 23.1779C24.5631 23.1133 24.628 23.0205 24.8741 22.9561C24.2516 22.7733 23.81 22.7322 23.1879 22.5498C23.0322 22.6851 22.9088 22.7822 22.7519 22.9029C22.6692 22.9484 22.5901 22.9598 22.5415 22.9029C22.1517 22.3833 21.9776 21.9253 21.6153 21.5826C21.4769 21.4408 21.302 21.2495 21.1081 21.2029C21.0111 21.1796 20.8922 21.1938 20.8163 21.2701C20.7404 21.3464 20.6807 21.487 20.706 21.6967C20.7423 21.9977 20.8213 22.0928 20.913 22.2732C21.0047 22.4537 21.1167 22.5647 21.2319 22.7029C21.4623 22.9793 21.7662 23.1402 21.9461 23.2482C22.3059 23.4643 22.4581 23.3698 22.7366 23.356C23.0967 23.3933 23.1925 23.5548 22.8978 23.7779C22.6223 23.9099 22.3747 23.9262 22.1734 23.892C22.0006 23.8626 21.7984 23.6571 21.6543 23.5467C21.4921 23.3741 21.2232 23.5788 21.4066 23.7795C21.7399 24.1442 22.0729 24.3847 22.4839 24.3795C22.9157 24.433 22.8349 24.6565 22.5483 24.7654C22.0326 24.9615 21.5669 24.5942 21.3303 24.3529C21.1478 24.169 21.0181 24.1618 21.0504 24.4467C21.2316 24.9624 21.4792 25.1616 21.8833 25.1873C22.2111 25.1593 22.2147 25.3923 21.9749 25.5498C21.4288 25.898 21.0333 25.3051 20.8485 24.9467C20.7168 24.6234 20.5149 24.7771 20.494 25.0435C20.4912 25.3995 20.6659 25.6902 21.1335 26.0545C20.7757 26.5796 20.3586 27.1136 20.0003 27.6404L18.9143 16.5001L20 14.74C20.1131 14.6439 20.4955 14.2289 20.5955 14.1713C20.6319 14.1354 20.6541 14.1101 20.6005 14.0916C20.5488 14.0737 20.4276 14.0537 20.3461 14.04C20.5763 13.8276 20.7737 13.7594 21.2096 13.6432C21.1033 13.6015 21 13.6257 20.6871 13.6119C20.8113 13.4495 21.0888 13.2007 21.4471 13.0807C21.2105 12.9257 21.1644 12.9154 20.9297 12.7338C21.3361 12.7072 21.6831 12.6359 22.0323 12.5385C22.2531 12.4434 22.5598 12.3627 22.7092 12.3604L22.7095 12.3607ZM22.6705 12.7967C22.4557 12.7967 22.3227 12.8645 22.3227 12.9467C22.3227 13.0303 22.4557 13.0982 22.6705 13.0982C22.8843 13.0982 23.0199 13.0241 23.0199 12.9404C23.0199 12.8582 22.8843 12.7967 22.6705 12.7967Z"
      fill="black"
    />
</g>
<defs>
<clipPath id="clip0_17507_12731">
<rect width="38" height="25" fill="white" transform="translate(1 7.5)" />
</clipPath>
</defs>
</svg>
