<svg
  width="40"
  height="41"
  viewBox="0 0 40 41"
  fill="none"
  xmlns="http://www.w3.org/2000/svg"
>
<g clip-path="url(#clip0_17507_13413)">
<path d="M39 1.08691H1V39.0869H39V1.08691Z" fill="#002395" />
<path d="M8.54395 1.08984H33.7189V39.0899L8.54395 1.08984Z" fill="#FECB00" />
<path
      d="M5.85826 6.53107L7.39251 1.80957L8.92581 6.53012L4.91016 3.61267H9.87391L5.85826 6.53012V6.53107Z"
      fill="white"
    />
<path
      d="M8.99351 11.1327L10.5278 6.41211L12.0611 11.1327L8.04541 8.21521H13.0092L8.99351 11.1327Z"
      fill="white"
    />
<path
      d="M11.8431 15.787L13.3774 11.0664L14.9107 15.787L10.895 12.8695H15.8588L11.8431 15.787Z"
      fill="white"
    />
<path
      d="M14.8832 20.3475L16.4174 15.627L17.9507 20.3475L13.9351 17.4301H18.8988L14.8832 20.3475Z"
      fill="white"
    />
<path
      d="M17.6385 24.8124L19.1728 20.0918L20.7061 24.8124L16.6904 21.8949H21.6542L17.6385 24.8124Z"
      fill="white"
    />
<path
      d="M20.7733 29.2772L22.3075 24.5566L23.8408 29.2772L19.8252 26.3597H24.7889L20.7733 29.2772Z"
      fill="white"
    />
<path
      d="M23.8133 33.742L25.3476 29.0215L26.8809 33.742L22.8652 30.8246H27.829L23.8133 33.742Z"
      fill="white"
    />
<path
      d="M26.6634 38.1122L28.1977 33.3916L29.731 38.1122L25.7153 35.1947H30.6791L26.6634 38.1122Z"
      fill="white"
    />
</g>
<defs>
<clipPath id="clip0_17507_13413">
<rect
        width="38"
        height="38.0029"
        fill="white"
        transform="translate(1 1.08691)"
      />
</clipPath>
</defs>
</svg>
