<svg
  width="40"
  height="40"
  viewBox="0 0 40 40"
  fill="none"
  xmlns="http://www.w3.org/2000/svg"
>
<g clip-path="url(#clip0_17507_13486)">
<path d="M1 7.5H39V32.5H1V7.5Z" fill="white" />
<path
      d="M17.4667 7.5H22.5333V32.5H17.4667V7.5ZM1 17.5H39V22.5H1V17.5Z"
      fill="#FF0000"
    />
<path
      d="M8.34277 9.94312C8.93405 10.0198 9.53294 10.0198 10.1242 9.94312C9.78096 11.6313 9.78096 13.3699 10.1242 15.0581C9.53294 14.9815 8.93405 14.9815 8.34277 15.0581C8.68603 13.3699 8.68603 11.6313 8.34277 9.94312Z"
      fill="#FF0000"
    />
<path
      d="M11.8251 11.6216C11.7475 12.2051 11.7475 12.7961 11.8251 13.3796C10.1144 13.0408 8.35262 13.0408 6.64193 13.3796C6.71959 12.7961 6.71959 12.2051 6.64193 11.6216C8.35262 11.9603 10.1144 11.9603 11.8251 11.6216Z"
      fill="#FF0000"
    />
<path
      d="M29.8758 9.94312C30.4671 10.0198 31.066 10.0198 31.6572 9.94312C31.314 11.6313 31.314 13.3699 31.6572 15.0581C31.066 14.9815 30.4671 14.9815 29.8758 15.0581C30.219 13.3699 30.219 11.6313 29.8758 9.94312Z"
      fill="#FF0000"
    />
<path
      d="M33.3582 11.6216C33.2805 12.2051 33.2805 12.7961 33.3582 13.3796C31.6475 13.0408 29.8856 13.0408 28.175 13.3796C28.2526 12.7961 28.2526 12.2051 28.175 11.6216C29.8856 11.9603 31.6475 11.9603 33.3582 11.6216Z"
      fill="#FF0000"
    />
<path
      d="M8.34259 24.9426C8.93386 25.0193 9.53276 25.0193 10.124 24.9426C9.78078 26.6308 9.78078 28.3695 10.124 30.0576C9.53276 29.981 8.93386 29.981 8.34259 30.0576C8.68584 28.3695 8.68584 26.6308 8.34259 24.9426Z"
      fill="#FF0000"
    />
<path
      d="M11.825 26.6211C11.7473 27.2046 11.7473 27.7956 11.825 28.3791C10.1143 28.0404 8.35244 28.0404 6.64175 28.3791C6.71941 27.7956 6.71941 27.2046 6.64175 26.6211C8.35244 26.9598 10.1143 26.9598 11.825 26.6211Z"
      fill="#FF0000"
    />
<path
      d="M29.876 24.9426C30.4673 25.0193 31.0661 25.0193 31.6574 24.9426C31.3142 26.6308 31.3142 28.3695 31.6574 30.0576C31.0661 29.981 30.4673 29.981 29.876 30.0576C30.2192 28.3695 30.2192 26.6308 29.876 24.9426Z"
      fill="#FF0000"
    />
<path
      d="M33.3583 26.6211C33.2806 27.2046 33.2806 27.7956 33.3583 28.3791C31.6476 28.0404 29.8858 28.0404 28.1751 28.3791C28.2527 27.7956 28.2527 27.2046 28.1751 26.6211C29.8858 26.9598 31.6476 26.9598 33.3583 26.6211Z"
      fill="#FF0000"
    />
</g>
<rect
    x="1.25"
    y="7.75"
    width="37.5"
    height="24.5"
    stroke="#D5D5D4"
    stroke-width="0.5"
  />
<defs>
<clipPath id="clip0_17507_13486">
<rect x="1" y="7.5" width="38" height="25" fill="white" />
</clipPath>
</defs>
</svg>
