<svg
  width="40"
  height="40"
  viewBox="0 0 40 40"
  fill="none"
  xmlns="http://www.w3.org/2000/svg"
>
<g clip-path="url(#clip0_2011_546)">
<path d="M1 7.5H39V32.5H1V7.5Z" fill="white" />
<path d="M1 9.84375H39V13.75H1V9.84375Z" fill="#0038B8" />
<path d="M1 26.25H39V30.1562H1V26.25Z" fill="#0038B8" />
<path
      d="M20 25.4125L18.2727 22.7063H14.8182L16.5454 20L14.8182 17.2938H18.2727L20 14.5875L21.7273 17.2938H25.1818L23.4545 20L25.1818 22.7063H21.7273L20 25.4125ZM19.3713 22.7063L20 23.6938L20.6287 22.7063H19.3713ZM22.2765 21.8469H23.5374L22.9087 20.8594L22.2765 21.8469ZM18.822 21.8469H21.178L22.356 20L21.178 18.1531H18.822L17.644 20L18.822 21.8469ZM16.4625 21.8469H17.7234L17.0947 20.8594L16.4625 21.8469ZM22.2765 18.1531L22.9053 19.1406L23.534 18.1531H22.2765ZM16.4625 18.1531L17.0913 19.1406L17.72 18.1531H16.4625ZM19.3713 17.2938H20.6322L20 16.3063L19.3713 17.2938Z"
      fill="#0038B8"
    />
</g>
<defs>
<clipPath id="clip0_2011_546">
<rect width="38" height="25" fill="white" transform="translate(1 7.5)" />
</clipPath>
</defs>
</svg>
