<svg
  width="40"
  height="40"
  viewBox="0 0 40 40"
  fill="none"
  xmlns="http://www.w3.org/2000/svg"
>
<g clip-path="url(#clip0_2011_542)">
<path d="M1 1H39V39H1V1Z" fill="white" />
<path d="M1 4.5625H39V10.5H1V4.5625Z" fill="#0038B8" />
<path d="M1 29.5H39V35.4375H1V29.5Z" fill="#0038B8" />
<path
      d="M20 28.227L17.3745 24.1135H12.1236L14.7491 20L12.1236 15.8865H17.3745L20 11.773L22.6254 15.8865H27.8764L25.2509 20L27.8764 24.1135H22.6254L20 28.227ZM19.0443 24.1135L20 25.6145L20.9557 24.1135H19.0443ZM23.4603 22.8073H25.3769L24.4213 21.3063L23.4603 22.8073ZM18.2094 22.8073H21.7905L23.5811 20L21.7905 17.1928H18.2094L16.4189 20L18.2094 22.8073ZM14.6231 22.8073H16.5396L15.584 21.3063L14.6231 22.8073ZM23.4603 17.1928L24.416 18.6938L25.3717 17.1928H23.4603ZM14.6231 17.1928L15.5787 18.6938L16.5344 17.1928H14.6231ZM19.0443 15.8865H20.9609L20 14.3855L19.0443 15.8865Z"
      fill="#0038B8"
    />
</g>
<defs>
<clipPath id="clip0_2011_542">
<rect width="38" height="38" fill="white" transform="translate(1 1)" />
</clipPath>
</defs>
</svg>
