<?xml version="1.0" encoding="UTF-8" ?>
<svg
  id="a"
  xmlns="http://www.w3.org/2000/svg"
  xmlns:xlink="http://www.w3.org/1999/xlink"
  viewBox="0 0 38 25"
><defs><clipPath id="b"><rect
        y="0"
        width="38"
        height="25"
        fill="none"
        stroke-width="0"
      /></clipPath></defs><g clip-path="url(#b)"><path
      d="m0,0h38v25H0V0Z"
      fill="#cc092f"
      fill-rule="evenodd"
      stroke-width="0"
    /><path
      d="m0,0h25.33v25H0V0Z"
      fill="#ffd200"
      fill-rule="evenodd"
      stroke-width="0"
    /><path
      d="m0,0h12.67v25H0V0Z"
      fill="#0046ae"
      fill-rule="evenodd"
      stroke-width="0"
    /></g><path
    d="m17.98,6.87c-.06,0-.11.01-.16.04.06.02.1.07.1.13v.16h-.16c-.06,0-.11-.04-.13-.09-.06.1-.06.22,0,.32.02-.06.07-.1.13-.1h.16v.75s0,.05-.02.08c-.02.02-.04.04-.06.05.07.01.14.11.16.17.02-.05.08-.16.16-.17-.03,0-.05-.03-.07-.05-.02-.02-.02-.05-.02-.08v-.75h.16c.06,0,.11.04.13.09.06-.1.06-.22,0-.32-.02.06-.07.1-.13.1h-.16v-.16c0-.06.04-.11.09-.13-.05-.03-.1-.05-.16-.04h0Z"
    fill-rule="evenodd"
    stroke-width="0"
  /><path
    d="m17.98,6.9s-.06,0-.09.02c.02.02.03.03.04.06.01.02.02.05.02.07v.16s0,0,0,0v.02h-.02s0,0,0,0h-.16s-.09-.02-.12-.06c-.01.03-.02.06-.02.09,0,.03,0,.06.02.09.03-.04.08-.06.13-.06h.19s0,0,0,0v.02s0,0,0,0v.75s-.02.09-.06.12c.02.01.04.03.06.05.01.02.02.04.03.06,0-.02.02-.04.03-.06.02-.02.04-.04.06-.05-.02-.01-.03-.03-.04-.05-.01-.02-.02-.04-.02-.07v-.78h.03s0,0,0,0h.16s.05,0,.07.02.04.02.06.04c.01-.03.02-.06.02-.09,0-.03,0-.06-.02-.09-.03.04-.08.06-.13.06h-.16s0,0,0,0h-.02v-.02s0,0,0,0v-.16s0-.05.02-.07c0-.02.02-.04.04-.06-.03-.01-.06-.02-.09-.02"
    fill="#ffd200"
    fill-rule="evenodd"
    stroke-width="0"
  /><path
    d="m19.94,9.63c-.09-.06-.17-.14-.23-.23-.13-.22-.19-.48-.19-.75,0-.11.13-.24.13-.33,0-.07,0-.15-.01-.22.05,0,.12.09.12.09,0,0,0-.23-.08-.27,0,0,.03-.03.14-.03-.03-.08-.18-.17-.18-.17,0-.01.02-.03.04-.03.04-.02.08-.03.13-.04-.05-.01-.1-.02-.15-.04-.14-.05-.27-.1-.4-.16-.17-.08-.35-.13-.54-.13-.08,0-.19,0-.25.05-.06.04-.05.09-.08.11-.05.04-.13.04-.17.04-.26,0-.27.28-.27.28,0,0,.07-.1.19-.1.2,0,.35.11.35.15,0,.02-.02.02-.02.02-.13,0-.32-.07-.43-.08v.05c.23.08.46.19.46.69,0,.32-.04.64-.2.89-.06.09-.14.17-.23.23l.94.17.94-.17h0Z"
    fill-rule="evenodd"
    stroke-width="0"
  /><path
    d="m19,9.42l-.94.21s-.24-.08-.38-.15c-.25-.14-.38-.28-.67-.29v-.22c0-.12.04-.23.04-.34-.12-.03-.47-.45-.79-.64-.47.3-.83.8-.83,1.03v6.62c0,.1-.06.24-.06.24.17-.07.48-.5.55-.66v.08c.26-.12.45-.43.53-.59v.08c.24-.2.53-1.39.53-1.39l.49.48s-.18.36-.25.42c.03,0,.07,0,.1,0-.03.05-.28.4-.35.53-.07.12-.12.07-.23.07-.09,0-.3.15-.33.21-.04.06-.06.13-.06.2,0,.07.07.16.07.16,0-.02.01-.03.02-.04l.22.27s.12.04.15,0c.09-.08.17-.13.25-.25.04-.06.04-.12.09-.19l.52-.7v.07c.09-.16.47-.46.47-.46l.39.18s-.73,1.68-1.38,1.94c0,0,.28.12.63.3l.16.08c.04-.05.09-.11.14-.17.21-.28.41-.6.41-.6.01.08-.1.34-.28.66l-.12.19.14.08c.34.21.67.44.79.66l.08-.21-.08-.21v-7.39l.04-.11-.04-.17Z"
    fill-rule="evenodd"
    stroke-width="0"
  /><path
    d="m19,17.09c-.12-.13-.38-.29-.66-.44.34-.62.52-1.6.44-1.79,0,0-.14.51-.31.8-.16.27-.36.57-.55.79-.14-.06-.29-.12-.44-.16.57-.44,1.16-1.89,1.16-1.89l-.6-.28s-.23.26-.3.31c0,0-.03-.13-.05-.18,0,0-.09.07-.13.07l-.02-.15c-.06.04-.16.03-.16.03.09-.04.19-.29.19-.29l-.58-.77s-.2.97-.43,1.17v-4.19l.18.17.28-.26v-.2l-.25.23v-.59s.06-.09.08-.13c.04.07.17.28.32.41.02-.1.19-.2.19-.2,0,0,.06.16.15.2.03-.06.22-.18.22-.18,0,0-.16.02-.23.09-.06-.01-.07-.23-.07-.23,0,0-.24.12-.28.2-.05-.01-.12-.19-.14-.26.06,0,.12,0,.18,0,.07,0,.15.03.24.07.1.05.2.11.3.15.12.05.3.06.35.07-.06.04-.13.08-.2.12,0,0,.28,0,.48-.1.07-.04.14-.09.21-.14-.03.09-.08.17-.14.24.29-.02.44-.19.48-.25.03.07.06.14.11.2h.11v7.18l-.11.21Zm-2.15-8.44v.13s0,.39,0,.39c-.11-.04-.24-.21-.3-.3v-.05s0-.04.01-.06c0-.02.02-.04.04-.05l-.06-.02s-.05.08-.05.12v.03l-.19.2-.19-.28v-.07s.04-.1.07-.13l-.06-.02s-.06.1-.06.15v.06l-.22.22-.11-.23c.13-.18.34-.38.54-.53,0,0,.43.4.58.45Zm-1.1.38v.33l-.15.14v-.48c0-.06.02-.11.05-.16l.1.18Zm.47.13v.2l-.17.16v-.63l.17.26Zm-.24.36l-.17-.16v-.24l.17-.18v.58Zm.79-.24c-.04.06-.15.2-.26.26v-.55s.15.24.26.29Zm-.32-.27v.51l-.17-.16v-.18l.17-.17Zm-.71.54v.51l-.15-.14v-.23l.15-.14Zm.24.16v.18l-.17.16v-.51l.17.16Zm.24-.16v.51l-.17-.16v-.18l.17-.16Zm.24.16v.18l-.17.16v-.51l.17.16Zm.24.34l-.17-.16v-.17c.06-.04.12-.1.17-.17v.51Zm-.44.22l.18-.17v4.19l.02.34-.39.39v-4.93l.18.17Zm-.29,4.6c0,.13-.25.45-.37.52v-5.29l.18.17.18-.17v4.77Z"
    fill="#b07e5b"
    fill-rule="evenodd"
    stroke-width="0"
  /><path
    d="m17.49,14.43l.13-.09.02.1-.55.75c-.04.05-.07.19-.07.19,0,0-.06-.03-.06-.08s0-.11,0-.11c-.02.02-.03.03-.06.04s-.04.01-.07.01c0-.06.12-.13.12-.22-.09.07-.17.03-.27.06-.11.03-.15.08-.18.08-.02,0-.04-.04-.03-.06.01-.04.15-.14.25-.16.02,0,.21.04.25-.02l.43-.66s.03,0,.04-.02c0,0,0,.12.04.16h0Zm-.86.74s0,.02,0,.03l-.06.05s-.02,0-.03,0c0,0,0-.02,0-.03l.06-.05s0,0,0,0c0,0,0,0,0,0,0,0,.01,0,.01,0Zm.09.06s.02.05,0,.07h0s-.15.13-.15.13c-.02.02-.05.01-.07-.01-.01-.02-.01-.05,0-.07l.15-.13s.02-.01.03-.01c.02,0,.03,0,.04.02Zm.08.1s0,0,0,.02c0,0,0,.01,0,.02,0,0,0,.01,0,.02,0,0,0,.01-.01.01h0s-.15.13-.15.13c-.02.02-.05.01-.07,0h0s-.01-.02-.01-.03c0-.01,0-.02.02-.03l.15-.13s.02-.01.02-.01c.02,0,.03,0,.04.02Zm.05.08s.02,0,.02,0c0,0,.01,0,.02.01.02.02.02.05,0,.07l-.15.13s-.02.01-.03,0c-.01,0-.02,0-.03-.02,0,0-.01-.02-.01-.03,0-.01,0-.02.01-.03l.15-.13s.02,0,.02,0Z"
    fill="#cc092f"
    fill-rule="evenodd"
    stroke-width="0"
  /><path
    d="m19,9.42l.94.21s.24-.08.38-.15c.25-.14.38-.28.67-.29v-.22c0-.12-.04-.23-.04-.34.12-.03.47-.45.79-.64.47.3.83.8.83,1.03v6.62c0,.1.06.24.06.24-.17-.07-.48-.5-.55-.66v.08c-.26-.12-.45-.43-.53-.59v.08c-.24-.2-.53-1.39-.53-1.39l-.49.48s.18.36.25.42c-.03,0-.07,0-.1,0,.03.05.28.4.35.53.07.12.12.07.23.07.09,0,.3.15.33.21.04.06.06.13.06.2,0,.07-.07.16-.07.16,0-.02-.01-.03-.02-.04l-.22.27s-.12.04-.15,0c-.09-.08-.17-.13-.25-.25-.04-.06-.04-.12-.09-.19l-.52-.7v.07c-.09-.16-.47-.46-.47-.46l-.39.18s.73,1.68,1.38,1.94c0,0-.28.12-.63.3l-.16.08c-.04-.05-.09-.11-.14-.17-.21-.28-.41-.6-.41-.6-.01.08.1.34.28.66l.12.19-.14.08c-.34.21-.67.44-.79.66l-.08-.21.08-.21v-7.39l-.04-.11.04-.17Z"
    fill-rule="evenodd"
    stroke-width="0"
  /><path
    d="m19,17.09c.12-.13.38-.29.66-.44-.34-.62-.52-1.6-.44-1.79,0,0,.14.51.31.8.16.27.36.57.55.79.14-.06.29-.12.44-.16-.57-.44-1.16-1.89-1.16-1.89l.6-.28s.23.26.3.31c0,0,.03-.13.05-.18,0,0,.09.07.13.07l.02-.15c.06.04.16.03.16.03-.09-.04-.19-.29-.19-.29l.58-.77s.2.97.43,1.17v-4.19l-.18.17-.28-.26v-.2l.25.23v-.59s-.06-.09-.08-.13c-.04.07-.17.28-.32.41-.02-.1-.19-.2-.19-.2,0,0-.06.16-.15.2-.03-.06-.22-.18-.22-.18,0,0,.16.02.23.09.06-.01.07-.23.07-.23,0,0,.24.12.28.2.05-.01.12-.19.14-.26-.06,0-.12,0-.18,0-.07,0-.15.03-.24.07-.1.05-.2.11-.3.15-.12.05-.3.06-.35.07.06.04.13.08.2.12,0,0-.28,0-.48-.1-.07-.04-.14-.09-.21-.14.03.09.08.17.14.24-.29-.02-.44-.19-.48-.25-.03.07-.06.14-.11.2h-.11v7.18l.11.21Zm2.15-8.44v.13s0,.39,0,.39c.11-.04.24-.21.3-.3v-.05s0-.04-.01-.06c0-.02-.02-.04-.04-.05l.06-.02s.05.08.05.12v.03l.19.2.19-.28v-.07s-.04-.1-.07-.13l.06-.02s.06.1.06.15v.06l.22.22.11-.23c-.13-.18-.34-.38-.54-.53,0,0-.43.4-.58.45Zm1.1.38v.33l.15.14v-.48c0-.06-.02-.11-.05-.16l-.1.18Zm-.47.13v.2l.17.16v-.63l-.17.26Zm.24.36l.17-.16v-.24l-.17-.18v.58Zm-.79-.24c.04.06.15.2.26.26v-.55s-.15.24-.26.29Zm.32-.27v.51l.17-.16v-.18l-.17-.17Zm.71.54v.51l.15-.14v-.23l-.15-.14Zm-.24.16v.18l.17.16v-.51l-.17.16Zm-.24-.16v.51l.17-.16v-.18l-.17-.16Zm-.24.16v.18l.17.16v-.51l-.17.16Zm-.24.34l.17-.16v-.17c-.06-.04-.12-.1-.17-.17v.51Zm.44.22l-.18-.17v4.19l-.02.34.39.39v-4.93l-.18.17Zm.29,4.6c0,.13.25.45.37.52v-5.29l-.18.17-.18-.17v4.77Z"
    fill="#b07e5b"
    fill-rule="evenodd"
    stroke-width="0"
  /><path
    d="m20.51,14.43l-.13-.09-.02.1.55.75c.04.05.07.19.07.19,0,0,.06-.03.06-.08s0-.11,0-.11c.02.02.03.03.06.04s.04.01.07.01c0-.06-.12-.13-.12-.22.09.07.17.03.27.06.11.03.15.08.18.08.02,0,.04-.04.03-.06-.01-.04-.15-.14-.25-.16-.02,0-.21.04-.25-.02l-.43-.66s-.03,0-.04-.02c0,0,0,.12-.04.16h0Zm.86.74s0,.02,0,.03l.06.05s.02,0,.03,0c0,0,0-.02,0-.03l-.06-.05s0,0,0,0c0,0,0,0,0,0,0,0-.01,0-.01,0Zm-.09.06s-.02.05,0,.07h0s.15.13.15.13c.02.02.05.01.07-.01.01-.02.01-.05,0-.07l-.15-.13s-.02-.01-.03-.01c-.02,0-.03,0-.04.02Zm-.08.1s0,0,0,.02c0,0,0,.01,0,.02,0,0,0,.01,0,.02,0,0,0,.01.01.01h0s.15.13.15.13c.02.02.05.01.07,0h0s.01-.02.01-.03c0-.01,0-.02-.02-.03l-.15-.13s-.02-.01-.02-.01c-.02,0-.03,0-.04.02Zm-.05.08s-.02,0-.02,0c0,0-.01,0-.02.01-.02.02-.02.05,0,.07l.15.13s.02.01.03,0c.01,0,.02,0,.03-.02,0,0,.01-.02.01-.03,0-.01,0-.02-.01-.03l-.15-.13s-.02,0-.02,0Z"
    fill="#cc092f"
    fill-rule="evenodd"
    stroke-width="0"
  /><path
    d="m18.78,7.36c.24,0,.41.11.64.21.06.03.12.05.16.06-.03.02-.05.05-.06.08,0,0,.1.02.15.1,0,0-.1.01-.11.07.05,0,.11.07.11.14l-.14-.04c.02.11.03.22.03.32,0,.09-.12.19-.12.33,0,.46.12.64.2.78.03.06.06.12.11.17-.24-.13-.41-.28-.41-.43v-.55h-.06v.55c0,.11.03.16.03.16.04.12.11.3.16.37-.22-.12-.33-.27-.33-.32v-.76h-.06v.83s-.05.09-.07.1c-.02-.02-.06-.06-.08-.1v-.05s.01-.77.01-.77h-.06v.76c0,.05-.11.2-.33.32.05-.07.12-.25.16-.37,0,0,.03-.05.03-.16v-.55h-.06v.55c0,.15-.18.3-.41.43.05-.05.08-.11.11-.17.09-.16.2-.35.2-.91,0-.21-.03-.35-.09-.45-.02-.03-.04-.12.09-.12.07,0,.22.12.22.12,0-.06-.04-.11-.08-.14,0,0-.02-.02-.02-.03,0-.01,0-.02-.01-.03,0-.03.03-.06.06-.08.02,0-.26-.06-.26-.18,0-.03.02-.04.07-.04.07,0,.2.09.3.09.08,0,.11-.02.19-.02.1,0,.31.19.38.18-.08-.05-.21-.24-.4-.24-.07,0-.13.02-.19.02-.08,0-.16-.07-.25-.07-.06,0-.12,0-.13-.01-.02-.03,0-.04.01-.06.03-.04.11-.05.2-.06.02,0,.05,0,.07,0h.06s0,0,0,0Z"
    fill="#b07e5b"
    fill-rule="evenodd"
    stroke-width="0"
  /><path
    d="m18,7.66c.04-.06.11-.1.18-.1.05,0,.23,0,.23,0,.02.06.13.16.13.27,0,0-.11-.2-.42-.2-.04,0-.09,0-.13.03h0Zm.5.21s-.07.07-.08.11c-.06-.02-.18-.14-.18-.14,0,0,.1.06.26.04h0Z"
    fill="#cc092f"
    fill-rule="evenodd"
    stroke-width="0"
  /><path
    d="m18.39,7.69s-.08-.02-.08-.05c0-.03.04-.03.06,0,.01.02.02.04.02.06h0Z"
    fill-rule="evenodd"
    stroke-width="0"
  /><path
    d="m18.74,7.85c.09,0,.16-.05.16-.12s-.07-.12-.16-.12-.16.05-.16.12.07.12.16.12Z"
    fill-rule="evenodd"
    stroke-width="0"
  /><path
    d="m18.74,7.84c.06,0,.11-.05.11-.11s-.05-.11-.11-.11-.11.05-.11.11.05.11.11.11Z"
    fill="#ffd200"
    fill-rule="evenodd"
    stroke-width="0"
  /><path
    d="m18.74,7.78s.05-.02.05-.05-.02-.05-.05-.05-.05.02-.05.05.02.05.05.05Z"
    fill-rule="evenodd"
    stroke-width="0"
  /><path
    d="m17,15.5l.34.19-.08.38-.34-.19.08-.38Z"
    fill-rule="evenodd"
    stroke-width="0"
  /><path
    d="m15.4,11.84l-.12.06,1.39,3.05h.15l-1.42-3.11Zm1.64,3.6l-.1.1.06.14.12-.06-.08-.19Z"
    fill-rule="evenodd"
    stroke-width="0"
  /><path
    d="m15.84,14.24s.12.24.21.28c-.05-.01-.2.04-.2.04,0,0,.26.24.49.25.19.01.28-.08.28-.08l-.04-.2c-.08-.09-.19-.16-.3-.2-.19-.07-.44-.08-.44-.08h0Zm.88-.43s-.16.14-.21.3c-.04.16.03.34.03.34l.14.25s.19-.1.27-.25.05-.35.05-.35c0,0-.15.06-.17.08.03-.17-.11-.37-.11-.37Zm-.52-.06s-.18.06-.36.05c-.17-.01-.31-.15-.31-.15,0,0,.14-.1.21-.08-.08-.03-.19-.22-.19-.22,0,0,.16-.05.3,0,.14.05.26.21.26.21l.09.19Zm.06-.9s.09.19.07.26c.03-.04.14-.11.14-.11,0,0,.07.31,0,.5-.06.19-.25.26-.25.26l-.21-.41s-.03-.15.03-.27c.07-.12.22-.23.22-.23h0Zm-1.2-.5s.2-.02.38.05c.15.06.2.18.2.18l.07.2s-.22.08-.39.02c-.17-.06-.3-.27-.3-.27,0,0,.12-.05.17-.03-.07-.03-.14-.16-.14-.16h0Zm.63-.37s.09.11.09.24c.02-.07.13-.14.13-.14,0,0,.11.27.09.46-.02.19-.19.31-.19.31l-.2-.38s-.07-.16-.05-.28c.02-.12.12-.21.12-.21h0Zm-.69-.73s-.04.21.03.33c.05.11.09.13.09.13-.1-.07-.26-.07-.26-.07,0,0,.06.23.19.33.13.1.34.08.34.08,0,0,.14-.18.13-.38s-.16-.41-.16-.41c0,0-.06.13-.07.22-.04-.1-.28-.23-.28-.23h0Zm1.63,3.48v.07c.13,0,.15-.01.18.03.03.03.08.04.12.03.02-.01.04-.03.05-.06s0-.05,0-.08c-.02-.05-.07-.06-.12-.05-.03,0-.05.03-.07.04-.04.02-.17.02-.17.02h0Z"
    fill-rule="evenodd"
    stroke-width="0"
  /><path
    d="m16.62,14.67l.06.04c-.06.11-.08.11-.07.16,0,.02,0,.04,0,.07,0,.02-.02.04-.04.05-.02.01-.05.02-.08.01-.03,0-.05-.02-.06-.04-.03-.05-.02-.09.02-.13.02-.02.05-.02.07-.04.04-.03.1-.13.1-.13h0Zm-.42-.89v.07c.13,0,.15-.01.18.03.03.03.08.04.12.03.05-.02.07-.08.05-.13-.02-.05-.07-.06-.12-.05-.03,0-.05.03-.07.04-.04.02-.17.02-.17.02h0Z"
    fill-rule="evenodd"
    stroke-width="0"
  /><path
    d="m16.22,13.81l.05.05c-.08.09-.1.1-.09.15,0,.05-.02.09-.06.11-.02.01-.05.01-.08,0s-.05-.03-.06-.05c-.02-.05,0-.09.04-.12.02-.02.05-.02.08-.03.05-.02.12-.11.12-.11h0Zm-.44-.91v.07c.13,0,.15-.01.18.03.02.02.03.03.06.03.02,0,.04,0,.07,0,.02-.01.04-.03.05-.06,0-.03,0-.05,0-.08-.02-.05-.07-.06-.12-.05-.03,0-.05.03-.07.04-.04.02-.17.02-.17.02h0Z"
    fill-rule="evenodd"
    stroke-width="0"
  /><path
    d="m15.81,12.88l.05.05c-.08.09-.1.1-.09.15,0,.05-.02.09-.06.11-.02.01-.05.01-.08,0-.03,0-.05-.03-.06-.05-.02-.05,0-.09.04-.12.02-.02.05-.02.08-.03.05-.02.12-.11.12-.11Zm-.48-.92v.07c.13,0,.15-.01.18.03.01.02.03.03.06.03.02,0,.04,0,.07,0,.02-.01.04-.03.05-.06,0-.03,0-.05,0-.08-.02-.05-.07-.06-.12-.05-.03,0-.05.03-.07.04-.04.02-.17.02-.17.02h0Z"
    fill-rule="evenodd"
    stroke-width="0"
  /><path
    d="m15.37,11.95l.05.05c-.08.09-.1.1-.09.15,0,.05-.02.09-.06.11-.02.01-.05.01-.08,0-.03,0-.05-.03-.06-.05-.02-.05,0-.09.04-.12.02-.02.05-.02.08-.03.05-.02.12-.11.12-.11h0Z"
    fill-rule="evenodd"
    stroke-width="0"
  /><path
    d="m17.05,15.6l.21.12-.05.24-.21-.12.05-.24Zm-.93-2.05s-.11-.18-.16-.28c-.05-.11-.15-.28-.12-.29.03-.01.07.07.12.19.05.11.2.37.16.39h0Zm-.46-1.02s-.09-.11-.14-.21c-.05-.11-.1-.19-.07-.2.03-.01.08.08.12.17.04.09.13.23.09.24h0Zm1.06,2.31s-.19-.31-.31-.58c-.12-.27-.21-.49-.19-.5.03-.01.13.24.25.51.12.27.27.56.24.57h0Z"
    fill="#ffd200"
    fill-rule="evenodd"
    stroke-width="0"
  /><path
    d="m16.89,14.81s.06-.02.06-.06-.02-.06-.06-.06-.06.02-.06.06.02.06.06.06Z"
    fill="#ffd200"
    fill-rule="evenodd"
    stroke-width="0"
  /><path
    d="m16.51,14.96s.06-.02.06-.06-.02-.06-.06-.06-.06.02-.06.06.02.06.06.06Z"
    fill="#ffd200"
    fill-rule="evenodd"
    stroke-width="0"
  /><path
    d="m16.46,13.87s.06-.02.06-.06-.02-.05-.06-.05-.06.02-.06.05.02.06.06.06Z"
    fill="#ffd200"
    fill-rule="evenodd"
    stroke-width="0"
  /><path
    d="m16.08,14.08s.06-.02.06-.06-.02-.06-.06-.06-.06.02-.06.06.02.06.06.06Z"
    fill="#ffd200"
    fill-rule="evenodd"
    stroke-width="0"
  /><path
    d="m16.04,12.99s.06-.02.06-.06-.02-.06-.06-.06-.06.02-.06.06.02.06.06.06Z"
    fill="#ffd200"
    fill-rule="evenodd"
    stroke-width="0"
  /><path
    d="m15.67,13.15s.06-.02.06-.05-.02-.06-.06-.06-.06.02-.06.06.02.05.06.05Z"
    fill="#ffd200"
    fill-rule="evenodd"
    stroke-width="0"
  /><path
    d="m15.6,12.05s.05-.02.05-.06-.02-.06-.05-.06-.06.02-.06.06.02.06.06.06Z"
    fill="#ffd200"
    fill-rule="evenodd"
    stroke-width="0"
  /><path
    d="m15.23,12.22s.05-.02.05-.06-.02-.06-.05-.06-.06.02-.06.06.02.06.06.06Z"
    fill="#ffd200"
    fill-rule="evenodd"
    stroke-width="0"
  /><path
    d="m15.06,11.36s0,.15.04.24c.05.09.16.12.16.12,0,0,0-.15-.05-.24-.05-.09-.16-.12-.16-.12Zm-.11.34s.13,0,.21.07c.08.06.11.18.11.18-.06,0-.12-.01-.16-.05-.08-.06-.15-.2-.15-.2Zm.41-.31c-.03.07-.04.14-.04.21,0,.11.07.23.07.23,0,0,.06-.13.05-.24,0-.11-.07-.17-.08-.2Zm-.22.98c.04.06.1.11.16.14.1.05.25.05.25.05-.05-.06-.11-.11-.17-.15-.1-.05-.24-.05-.24-.05h0Zm.03.21s.05.09.13.13c.09.04.27.04.27.04-.04-.05-.1-.1-.16-.13-.09-.04-.24-.04-.24-.04Zm.5-.5c-.03.06-.05.12-.05.18,0,.1.07.2.07.2,0,0,.04-.12.04-.22,0-.06-.02-.12-.06-.17h0Zm.19.12s-.09.12-.1.25c-.01.12.05.25.05.25,0,0,.11-.11.12-.23.01-.12-.07-.26-.07-.26h0Zm-.25,1.15s.03.07.05.09c.03.04.07.07.1.1.05-.01.09-.01.14,0,.08.02.18.09.18.09,0,0-.11-.17-.23-.23-.08-.04-.16-.05-.24-.04h0Zm-.01.28s.14-.06.26-.05c.12.02.22.11.22.11,0,0-.16.06-.28.04-.08-.01-.15-.05-.21-.1h0Zm.61-.67s-.13.13-.14.25c-.01.12.1.23.1.23,0-.04,0-.08.01-.12.02-.04.04-.07.06-.1.01-.04.01-.07.01-.11,0-.05-.03-.1-.05-.14Zm.18.16s-.12.12-.15.25c-.03.13.02.27.02.27,0,0,.11-.09.14-.22.03-.13-.01-.3-.01-.3Zm.3.78c.03.07.05.14.07.21.01.09,0,.13,0,.13,0,0-.06.06-.08.09-.03.04-.04.12-.04.12,0,0-.11-.17-.1-.29s.14-.25.14-.25h0Zm.24.26s-.14.1-.2.19c-.03.06-.04.13-.03.2.03,0,.06-.02.09-.04.03-.02.05-.04.07-.07.06-.1.07-.28.07-.28h0Zm-.95.4s.21,0,.33.03c.13.03.17.1.17.1,0,0-.14.07-.27.04-.13-.03-.24-.16-.24-.16h0Zm-.04-.25s.09.15.21.2c.17.07.36.04.36.04,0,0-.1-.13-.25-.19-.14-.06-.33-.05-.33-.05Z"
    fill="#007a50"
    fill-rule="evenodd"
    stroke-width="0"
  /><path
    d="m23.06,11.49l.03.06s-.05.03-.06.05c-.02.04.01.09.01.09,0,0-.23-.02-.26,0-.03.02.01.18,0,.31-.03.19-.1.17-.11.21,0,.03.03.09.03.09,0,0-.04.01-.05.03-.01.03.01.08,0,.12l-.34.67s-.05.04-.07.07c0,.03-.01.05,0,.08,0,0-.06,0-.09.05-.01.03-.02.07,0,.11-.01,0-.02,0-.04.02-.01,0-.02.02-.03.03-.02.04.01.06,0,.08l-.38.74c-.03.07-.15.08-.22.22-.02.04-.03.08-.02.12,0,.04.02.08.05.11,0,0-.1,0-.13.06-.03.05,0,.13.07.17.07.04.15,0,.18-.05.03-.05-.03-.14-.03-.14.04,0,.08,0,.12-.02.04-.02.07-.05.08-.09.07-.14.01-.24.05-.31l.38-.74s.05,0,.07-.04c0-.01,0-.02,0-.04s0-.03,0-.04c.03-.02.06-.04.08-.07.02-.04-.01-.1-.01-.1.03,0,.05-.03.06-.05.02-.04,0-.07.02-.1l.34-.67s.08-.05.09-.08c0-.02,0-.06,0-.06,0,0,.06,0,.09-.03.03-.02-.03-.07.1-.21.1-.1.25-.15.25-.19,0-.04-.15-.22-.15-.22,0,0,.06,0,.08-.04.01-.03.01-.06,0-.08h.06v-.31l-.24.18Zm-2.07,4.14s0,.02,0,.03,0,.02,0,.03c0,0-.08-.02-.1-.01-.02.01,0,.37,0,.37,0,0,.3-.19.3-.22,0-.03-.07-.08-.07-.08.01,0,.02,0,.03-.01,0,0,.02-.02.02-.03,0-.02.01-.08-.06-.11-.02-.01-.04-.02-.07-.02-.02,0-.04.01-.06.03Z"
    fill-rule="evenodd"
    stroke-width="0"
  /><path
    d="m23.12,11.5l.14.07v-.17s-.14.1-.14.1Zm-.06.1s-.01.09.02.11c.04.03.09.01.11-.02.03-.04.01-.09-.02-.11,0,0,0,0,0,0-.01,0-.03-.01-.05,0-.03,0-.05.02-.06.04h0Zm-.25.13s0,.14,0,.25c0,.1-.04.13-.06.17-.02.03-.08.07-.08.07l.05.05s.03-.05.08-.15c.06-.12.06-.33.08-.34.05-.02.09-.03.14-.04,0,0-.11,0-.18,0-.01,0-.03,0-.04,0h0Zm.01.59c.02-.05.05-.11.07-.16.07-.14.22-.24.22-.26,0-.03-.05-.15-.05-.15,0,0-.13.03-.15.04-.02.02-.01.2-.08.33-.03.05-.05.11-.09.16l.07.04Zm.34-.41s-.17.14-.23.26c-.05.1-.07.16-.07.16h.07s0-.06.01-.09c.02-.04.02-.08.1-.14.09-.07.2-.13.2-.14,0-.02-.13-.18-.13-.18.02.05.03.09.05.14Zm-.51.77c.1-.2.14-.22.15-.24.01-.03.01-.06-.04-.09-.01,0-.03-.01-.05,0,0,0-.02,0-.03.01,0,0-.01.01-.02.02-.01.03,0,.06-.11.26l-.24.46s0,.01,0,.02c0,0,0,.01,0,.02,0,0,0,.01,0,.02,0,0,0,0,.01.01,0,0,0,0,0,0,.01,0,.02,0,.04,0,.01,0,.02-.01.03-.02,0,0,0,0,0,0l.24-.46Zm-.42.53s0,.06.05.08c.04.02.08.02.1,0,.01-.03-.01-.06-.05-.08-.02,0-.04-.01-.06-.01-.02,0-.03,0-.04.02Zm-.09.13s0,.08.06.1c.05.02.1.02.12-.01.02-.03,0-.08-.06-.1-.02,0-.04-.01-.05-.02-.03,0-.05,0-.06.03Zm-.06.15s0,.06.05.08c.04.02.08.02.1,0,.01-.03,0-.06-.05-.08-.02,0-.04-.01-.06-.01,0,0-.02,0-.02,0,0,0-.01,0-.02.02Zm-.04.14l-.36.7c-.03.06-.15.09-.2.19-.05.1-.01.19.05.22.06.03.16,0,.21-.09.05-.1,0-.22.03-.28l.36-.7s0-.02,0-.04c0-.01-.01-.02-.02-.03,0,0,0,0,0,0,0,0-.02,0-.03,0-.02,0-.03.01-.04.03h0Zm-.66,1.2s0,.09.05.11c.05.02.1.01.12-.03.02-.04,0-.09-.05-.11-.02,0-.04-.01-.05-.01-.03,0-.05.01-.07.04Zm-.35.79s-.01,0-.02,0c0,0-.01,0-.01.01,0,.02.01.05.05.07.04.02.07.02.08,0,.01-.02-.01-.05-.05-.07-.02,0-.03-.01-.05-.01Zm-.12.1v.26l.21-.15s-.05-.06-.09-.08c-.04-.02-.08-.03-.12-.02Zm.13-5.68c0-.14.18-.28.18-.28h-4.48s.18.14.18.28v3.34c0,.07.02.14.07.2.04.06.13.14.23.21.29.19.79.39,1.16.56.31.14.44.2.6.4.16-.2.29-.26.6-.4.37-.17.86-.37,1.16-.56.1-.06.19-.15.23-.21.05-.06.07-.13.07-.2v-3.34Z"
    fill="#ffd200"
    fill-rule="evenodd"
    stroke-width="0"
  /><path
    d="m17.05,11.93v-1.89c0-.06-.02-.12-.05-.17h4.01s-.06.11-.05.17v1.89s-1.95.59-1.95.59l-1.95-.59h0Z"
    fill="#cc092f"
    fill-rule="evenodd"
    stroke-width="0"
  /><path
    d="m20.95,11.93l-1.21-.02h-1.49l-1.21.02v1.45c0,.07.08.24.51.46.72.36,1.27.53,1.44.73.17-.2.72-.37,1.44-.73.44-.22.51-.39.51-.46v-1.45Z"
    fill="#0046ae"
    fill-rule="evenodd"
    stroke-width="0"
  /><path
    d="m19.71,11.85s.7-.18.7-.92c0-.58-.7-.87-.72-1.01-.07.24.23.57.23.97,0,.51-.38.53-.38.53-.09,0-.12.06-.16.06-.07,0-.11-.1-.18-.1-.07,0-.12.11-.21.11s-.14-.11-.21-.11c-.07,0-.11.09-.18.1-.03,0-.07-.06-.16-.06,0,0-.38-.02-.38-.53,0-.39.3-.72.23-.97-.02.14-.72.43-.72,1.01,0,.75.7.92.7.92l-.2.36s.29.01.44.14c.18.16.17.49.17.73,0,.19-.02.39-.12.48-.13.11-.22.12-.22.25,0,.11.08.13.22.2.17.09.17.22.43.22s.25-.12.43-.22c.14-.07.22-.09.22-.2,0-.13-.09-.14-.22-.25-.1-.08-.12-.28-.12-.48,0-.24-.02-.58.17-.73.15-.13.44-.14.44-.14l-.2-.36Zm-.71-1.88l-.12.34-.33-.16.16.33-.34.12.34.12-.16.33.33-.16.12.34.12-.34.33.16-.16-.33.34-.12-.34-.12.16-.33-.33.16-.12-.34Zm-.74,1.93s-.43-.11-.59-.32c-.18.16-.39.27-.62.34,0,0,.35.16.62.36.12-.18.59-.38.59-.38Z"
    fill-rule="evenodd"
    stroke-width="0"
  /><path
    d="m19.74,11.91s.47.21.59.38c.27-.2.62-.36.62-.36-.23-.07-.44-.18-.62-.34-.16.21-.59.32-.59.32Zm-1.31.46l-.17.17.17.17.17-.17-.17-.17Zm1.13,0l-.17.17.17.17.17-.17-.17-.17Zm-1.18.98c0,.11,0,.22-.02.32,0,0,.24-.07.28-.31.02-.11.05-.53-.07-.6l-.31-.06c.07.21.11.42.11.64h0Zm1.02-.58c-.11.07-.09.48-.07.6.05.24.28.31.28.31-.02-.11-.02-.22-.02-.32,0-.22.04-.44.11-.64l-.31.06Zm-1.75.01c-.11.03-.17.13-.14.24,0,.02.01.03.02.05-.02,0-.03,0-.05,0,0,0-.01,0-.02,0-.03,0-.05,0-.08.02-.02.01-.05.03-.06.05-.02.02-.03.04-.04.07s-.01.05,0,.08c0,.03.01.05.02.08.01.02.03.04.05.06.02.02.05.03.07.03.03,0,.05,0,.08,0,0,.01-.02.03-.02.04-.02.05-.02.1,0,.15.02.05.06.09.11.11.05.02.1.02.15,0,.05-.02.09-.06.11-.11h0s0-.03.01-.05c0,.01.02.03.03.04.08.07.21.06.28-.02.07-.08.06-.21-.02-.28-.01-.01-.03-.02-.04-.03.02,0,.03-.01.04-.02.04-.03.08-.07.09-.12.01-.05,0-.11-.03-.15-.04-.06-.11-.1-.18-.09-.03,0-.06.01-.09.03-.01,0-.03.02-.04.03,0-.05-.02-.1-.06-.14-.04-.04-.09-.06-.14-.06-.02,0-.03,0-.05,0h0Zm2.11.58c.02.2.19.37.39.42-.04-.06-.06-.12-.06-.19-.03-.24.16-.43.41-.43.04,0,.08,0,.12.01-.09-.15-.26-.25-.44-.25-.25,0-.44.2-.41.44h0Z"
    fill-rule="evenodd"
    stroke-width="0"
  /><path
    d="m17.97,10.89c0,.38.2.61.48.61.05,0,.11.07.16.07.08,0,.13-.09.18-.09.06,0,.1.1.21.1s.15-.1.21-.1c.05,0,.1.09.18.09.05,0,.11-.07.16-.07.27,0,.48-.23.48-.61,0-.31-.26-.69-.23-.75,0,0,.51.37.51.8,0,.7-.71.87-.71.87l.16.36s-.22.03-.35.14c-.18.14-.18.53-.18.79,0,.31.01.44.12.52.12.09.21.11.21.2,0,.08-.09.11-.21.16-.14.06-.15.16-.34.16s-.21-.1-.34-.16c-.12-.05-.21-.08-.21-.16,0-.09.09-.11.21-.2.11-.08.12-.21.12-.52,0-.26,0-.65-.18-.79-.13-.11-.35-.14-.35-.14l.16-.36s-.71-.17-.71-.87c0-.43.51-.8.51-.8.03.06-.23.44-.23.75Zm.76,2.87c-.14,0-.23.03-.23.07s.09.07.23.07c.04,0,.08-.02.08-.07,0-.02,0-.04-.02-.05-.01-.01-.03-.02-.05-.02,0,0,0,0,0,0Zm.53,0s-.02,0-.03,0c0,0-.02,0-.02.01,0,0-.01.01-.02.02,0,0,0,.02,0,.03,0,0,0,0,0,0,0,.05.04.07.08.07.14,0,.23-.03.23-.07s-.09-.07-.23-.07Zm-.27-3.56l.08.22.21-.1-.1.21.22.08-.22.08.1.21-.21-.1-.08.22-.08-.22-.21.1.1-.21-.22-.08.22-.08-.1-.21.21.1.08-.22Zm-1.75,1.73s.27.13.4.25h0s0,0,0,0c.13-.15.36-.27.36-.27,0,0-.23-.06-.37-.22-.15.15-.41.24-.41.24Zm3.49,0s-.27.13-.4.25h0s0,0,0,0c-.13-.15-.36-.27-.36-.27,0,0,.23-.06.37-.22.15.15.41.24.41.24Zm-2.31.51l.09.09-.09.09-.09-.09.09-.09Zm1.13,0l.09.09-.09.09-.09-.09.09-.09Zm-1.01.38c.06.08.05.22.05.41,0,.05-.01.11-.04.15-.03.05-.06.09-.11.11,0-.46-.05-.57-.07-.71l.17.03Zm1.06-.03c-.02.14-.07.25-.07.71-.05-.03-.08-.07-.11-.11-.03-.05-.04-.1-.04-.15,0-.19-.01-.33.05-.41l.17-.03Zm-1.74.17s0,.03,0,.05c0,.01,0,.03,0,.04-.09-.03-.18,0-.24.06-.01,0-.02-.02-.03-.03,0-.01-.02-.03-.02-.05,0-.04,0-.08.02-.12.02-.04.06-.06.09-.07.04,0,.08,0,.12.02.03.02.06.06.07.09Zm.23.29s-.03.02-.05.02c-.01,0-.03,0-.04,0,0-.09-.05-.18-.14-.21,0-.01.01-.03.02-.04.01-.01.02-.02.04-.03.03-.02.08-.03.12-.02.04,0,.07.03.1.07.02.03.03.08.02.12,0,.04-.03.07-.07.1h0Zm-.2.31s-.02-.02-.03-.04c0-.01-.01-.02-.02-.04.09-.03.15-.1.16-.19.01,0,.03,0,.04,0,.02,0,.03.01.04.02.03.03.05.06.05.1,0,.04,0,.08-.04.11-.03.03-.06.05-.1.05-.04,0-.08,0-.11-.04Zm-.36-.1s.02-.03.03-.04c0,0,.02-.02.03-.03.05.08.14.11.23.09,0,.01,0,.03,0,.04,0,.02,0,.03-.01.05-.02.04-.05.07-.08.08-.04.02-.08.02-.12,0-.04-.02-.07-.05-.08-.08-.02-.04-.02-.08,0-.12h0Zm-.02-.37s.03,0,.05.01c.01,0,.02.01.03.02-.06.07-.06.17-.02.25-.01,0-.03.01-.04.02-.02,0-.03,0-.05,0-.04,0-.08-.02-.11-.05-.03-.03-.04-.07-.04-.11,0-.04.02-.08.05-.11.03-.03.07-.04.11-.04h0Z"
    fill="#ffd200"
    fill-rule="evenodd"
    stroke-width="0"
  /><path
    d="m17.79,13.42c.08,0,.15-.07.15-.15s-.07-.15-.15-.15-.15.07-.15.15.07.15.15.15Z"
    fill="#ffd200"
    fill-rule="evenodd"
    stroke-width="0"
  /><path
    d="m20.41,13.07c-.25.05-.43.27-.4.52-.08-.07-.14-.15-.15-.25-.02-.19.12-.34.33-.34.08,0,.16.02.22.06Z"
    fill="#ffd200"
    fill-rule="evenodd"
    stroke-width="0"
  /><path
    d="m21.15,9.8h-4.31c.06.06.13.15.13.24v2.9h0v.44h0s0,.07.02.1c.01.03.03.06.05.08h0c.04.05.09.1.15.14.01,0,.02.02.04.03.01,0,.03.02.04.03h0c.23.15.58.31.9.45l.25.11h0s0,0,0,0h0s0,0,0,0c.29.13.42.19.58.37.15-.18.28-.24.58-.37h0s.25-.11.25-.11c.32-.14.67-.3.9-.45h0c.06-.04.12-.09.18-.15,0,0,.02-.02.02-.03,0,0,.01-.02.02-.02h0s0,0,0,0h0s.03-.05.05-.08c.01-.03.02-.07.02-.1h0v-.44h0v-2.9c0-.09.07-.19.13-.24Zm-.06.24v2.9h0v.44h0s0,.08-.02.12c-.01.03-.03.07-.06.1h0s-.01.02-.02.03c0,.01-.02.02-.03.03-.06.06-.12.11-.19.16h0c-.23.15-.59.31-.91.45l-.25.11h0s0,0,0,0c-.3.14-.43.19-.58.39l-.03.03-.03-.03c-.15-.19-.28-.25-.58-.39h0s0,0,0,0h0s0,0,0,0l-.25-.11c-.32-.14-.68-.3-.91-.45h0s0,0,0,0c-.01,0-.03-.02-.04-.03-.01,0-.03-.02-.04-.03-.06-.04-.11-.1-.16-.16h0s-.04-.06-.06-.1c-.01-.04-.02-.08-.02-.12h0v-.44h0v-2.9c0-.12-.17-.25-.17-.25v-.06h4.52v.06s-.17.13-.17.25h0Zm-.1-.21h0s.02,0,.02,0h.07s-.04.05-.04.05c-.03.04-.05.1-.05.15v2.9h0v.44h0c0,.06-.04.17-.24.32h0s-.08.05-.13.08c-.05.03-.1.06-.16.09h0s0,0,0,0h0c-.26.13-.5.24-.71.33-.36.16-.62.27-.72.39h0s0,0,0,0l-.03.03-.03-.03c-.1-.12-.36-.24-.72-.39-.21-.09-.45-.2-.71-.33h0s0,0,0,0h0c-.19-.09-.31-.18-.39-.25-.01-.01-.03-.03-.04-.04-.08-.09-.1-.16-.1-.2h0s0,0,0,0v-.44h0v-2.9c0-.05-.02-.11-.05-.15l-.04-.05h.14s3.86,0,3.86,0h0s.06,0,.06,0h0Zm-.06.07h0s-3.86,0-3.86,0h0s-.02,0-.02,0c.02.04.03.09.03.14v2.9h0v.44h0s0,0,0,0c0,.03.02.08.08.15.01.01.02.02.04.04.07.07.19.15.37.24h0s0,0,0,0h0c.26.13.5.24.71.33.34.15.59.26.72.38.12-.12.38-.24.72-.38.21-.09.44-.2.71-.33h0s0,0,0,0h0c.06-.03.11-.06.16-.09.05-.03.09-.05.12-.08h0c.17-.13.21-.22.21-.26h0v-.44h0v-2.9s.01-.09.03-.14h-.02Z"
    fill-rule="evenodd"
    stroke-width="0"
  /></svg>
