<?xml version="1.0" encoding="UTF-8" ?>
<svg
  id="a"
  xmlns="http://www.w3.org/2000/svg"
  xmlns:xlink="http://www.w3.org/1999/xlink"
  viewBox="0 0 38 38"
><defs><clipPath id="b"><rect
        width="38"
        height="38"
        fill="none"
        stroke-width="0"
      /></clipPath></defs><g clip-path="url(#b)"><path
      d="m38,0H0v38h38V0Z"
      fill="#e30613"
      fill-rule="evenodd"
      stroke="#e9b528"
      stroke-width=".95"
    /></g><path
    d="m19.93,15.88c-.13.07-.21.06-.2.11,0,.05.12.1.12.1,0,0-.12.13-.22.19-.09.06-.21.1-.21.1,0,0-.04,0-.02.07.02.06.06.1.09.12.03.02.05.02.05.02,0,0-.17.18-.24.23-.07.06-.11.08-.17.1-.06.02-.03.12-.02.17.01.04.06.1.09.11.03,0,.04.03,0,.09-.03.04-.12.16-.17.23h0c-.04-.06-.14-.18-.17-.23-.04-.06-.03-.08,0-.09.03,0,.08-.07.09-.11.01-.04.04-.14-.02-.17-.06-.02-.1-.04-.17-.1-.07-.06-.24-.23-.24-.23,0,0,.02,0,.05-.02.03-.02.07-.06.09-.12.02-.06-.02-.07-.02-.07,0,0-.11-.04-.21-.1-.09-.06-.22-.19-.22-.19,0,0,.12-.04.12-.1s-.07-.04-.2-.11c-.13-.07-.18-.17-.18-.17,0,0,.15-.05.23-.21.03-.05.03-.1.03-.15h0c.25.08.53.11.79.11s.54-.03.79-.11h0s0,.09.03.14c.08.15.23.21.23.21,0,0-.04.09-.18.17Zm-1.79-1.29s-.11.01-.16,0c-.05-.02-.11-.04-.11-.04,0,0,.01-.01.03-.04.01-.03.01-.07,0-.14-.01-.07-.02-.15-.01-.19.01-.04,0-.09.09-.17.08-.09.2-.14.2-.14,0,0-.02.03-.05.09s-.1.22-.09.37c.01.15.1.18.13.2.02.02.01.04-.02.08Zm.49-.75c.13-.12.23-.14.23-.14,0,.14-.03.24-.05.37-.02.15-.01.22.02.29.03.07.11.12.11.12,0,0-.03,0-.06.02s-.08.05-.15.05c-.07,0-.1-.02-.14-.05-.04-.03-.09-.05-.09-.05,0,0,.02-.05.02-.11s-.04-.14-.04-.2.03-.19.17-.31Zm.66.52c.03-.07.04-.14.02-.29-.02-.13-.04-.23-.05-.37,0,0,.09.02.23.14.13.12.17.25.17.31s-.03.14-.04.2c0,.06.02.11.02.11,0,0-.05.02-.09.05-.04.03-.07.05-.14.05-.07,0-.11-.03-.15-.05-.04-.02-.06-.02-.06-.02,0,0,.08-.04.11-.12Zm.69-.42c-.03-.06-.05-.09-.05-.09,0,0,.13.06.2.14.08.09.07.13.09.17.01.04,0,.12-.01.19-.01.07-.01.12,0,.14.01.03.03.04.03.04,0,0-.06.01-.11.04-.05.02-.12.04-.16,0-.04-.03-.05-.05-.02-.08.02-.02.11-.05.13-.2.01-.15-.06-.31-.09-.37Zm-2.72,7.29c-.06.12-.23.24-.36.29-.12.05-.26.07-.32.08-.06,0,0,.08,0,.08l.06.09s0,.03-.1.05c-.09.03-.2.05-.29.07-.09.03.03.1.08.13.05.03.04.06.01.09-.03.03-.13.09-.19.11-.05.02-.05.05,0,.07.05.02.2.05.2.05,0,0,0,0-.09.07-.09.07-.25.11-.35.12-.1,0-.27.01-.48,0-.21,0-.23-.01-.23-.01,0,0,0-.07-.02-.17-.01-.1-.08-.25-.13-.32-.05-.07-.15-.2-.15-.2,0,0,0-.03,0-.06,0-.03,0-.07-.02-.13-.02-.06-.15-.16-.15-.16,0,0,0-.07,0-.13s-.04-.31-.08-.43c-.04-.12-.23-.43-.32-.58s-.14-.37-.17-.54c-.03-.17-.02-.23,0-.27,0-.02.01-.04.02-.05.04.05.08.09.14.13.26.16.77.17.77.17,0,0-.06.02-.24.02-.18,0-.43-.06-.43-.06,0,0,0,.01,0,.06s.01.23.28.37c.27.14.56.04.56.04,0,0-.02.02-.1.05s-.28.07-.28.07c0,.17.14.26.26.29.19.06.41.02.52,0,.11-.02.05.01-.06.06-.11.05-.26.05-.26.05.02.12.26.22.35.24.23.05.39.02.46,0,.07-.03.06,0,.03.03-.04.04-.11.05-.11.12,0,.02,0,.08.34.11.34.02.45-.16.51-.22.06-.06.05-.03.04,0-.01.02-.07.09-.12.16-.05.07-.03.14.2.14.16,0,.27-.18.32-.27h0s0,.01,0,.02c-.02.05-.06.14-.1.22Zm-3.14-1.84s-.1.06-.1.06c0,0-.04-.08-.05-.11-.01-.03,0-.04,0-.04s.06-.01.09-.02c0,0,0,0,.01,0,.01.03.03.07.05.1,0,0,0,0,0,0Zm9.21-.59c.11-.03.51-.15.8-.38.28-.23.34-.41.36-.51.02-.1.03-.18-.04-.12-.07.06-.29.23-.44.31-.15.08-.29.12-.37.14-.08.02-.15.04-.07,0,.08-.03.33-.12.53-.32.2-.2.35-.49.35-.67,0-.18,0-.17-.07-.12-.06.05-.26.3-.38.4-.12.1-.3.23-.4.28-.09.05-.23.12-.04,0,.18-.13.53-.42.67-.81.14-.38.12-.61.11-.65,0-.04-.04-.12-.07-.05-.03.07-.26.53-.45.73-.19.2-.14.16-.18.19s-.11.09-.02-.02c.09-.11.28-.37.37-.63.1-.26.12-.52.13-.66,0-.15-.06-.35-.09-.42-.03-.06-.06-.11-.07-.04,0,.07-.16.53-.24.75-.08.22-.24.47-.27.52-.03.05-.12.15-.03-.02.09-.17.26-.66.29-1.13.02-.47-.04-.73-.11-.85-.06-.13-.12-.17-.12-.17,0,0,.01.32-.08.78-.1.46-.23.7-.23.7,0,0-.06.07-.02-.04.03-.07.08-.24.11-.51.03-.29.03-.62-.05-.9-.09-.31-.25-.46-.25-.46-.04.44-.04,1-.2,1.46-.03-.03-.07-.08-.09.02-.03.15-.09.43-.29.79-.2.36-.28.41-.28.41,0,0-.04-.09-.06-.14-.03-.05-.04-.07-.07,0-.03.07-.14.32-.38.6-.24.28-.38.41-.37.62,0,.21.12.32.26.41.15.1.17.15.15.26-.02.11-.15.15-.27.16-.11,0-.26,0-.31.02-.05.03-.05.1-.11.15-.05.05-.07.08-.12.09-.02,0-.03,0-.04,0-.01-.55.2-.8.2-.8l-.6-.7s-.06.03-.09.04c0,0-.01-.02-.02-.03-.08-.1-.11-.19-.11-.32.03,0,.09.02.14.01s.01-.07,0-.12c-.02-.05-.03-.23-.02-.3.01-.07.02-.09.02-.09,0,0,.09.09.14.09s.05-.05.06-.11c.01-.09.05-.2.12-.27,0,0,.09.07.2.07s.25-.03.37-.14c.12-.11.11-.14.11-.14,0,0,.22.08.38.08.17,0,.34-.02.42-.19.08-.17-.02-.33-.04-.36-.02-.03-.07-.05-.07,0s0,.18-.1.24c-.1.07-.18.06-.27.03-.09-.03-.23-.07-.38-.05-.14.02-.15.03-.16.03,0,0,.13-.13.25-.17.12-.04.2.01.24.06.04.05.08.13.11.01.03-.11.01-.24-.04-.33-.05-.08-.17-.14-.29-.12s-.17.03-.17.03c0,0-.06-.18-.22-.21-.19-.04-.4.03-.57.12,0,0-.13.03-.26,0-.09-.02-.17-.08-.22-.11.02-.05.04-.14.04-.14,0,0,.04-.01.08-.03.04-.01.03-.03.04-.06,0-.03-.07-.09-.07-.09,0,0-.01-.1.12-.17.13-.07.12-.06.12-.06,0,0,.08.01.11,0,.03-.02.03-.04.03-.04,0,0,.06-.02.08-.05.02-.03.03-.09,0-.13-.02-.04-.03-.05-.01-.07.02-.02.04-.07.04-.1,0-.03,0-.04,0-.04,0,0,.04-.02.04-.08,0-.07-.04-.09-.06-.1-.02,0-.03,0-.03,0,0,0,0-.04-.04-.09-.03-.05-.06-.08-.06-.08,0,0,.03-.02.01-.06-.01-.04-.04-.07-.08-.08-.03,0-.06,0-.06,0,0,0-.1-.06-.15-.09-.05-.03-.06-.03-.06-.03,0,0,0-.04-.02-.07s-.06-.03-.08-.03-.04.01-.04.01c0,0-.17-.04-.25-.06-.07-.01-.08-.02-.08-.02,0,0-.15-.07-.21-.09-.06-.01-.08-.02-.08-.02,0,0,.06-.08.07-.16,0-.09-.05-.17-.12-.21-.03-.02-.05-.02-.06-.03v-.06s.11.01.11.01v-.19s-.1.01-.1.01l.02-.11h-.24s.02.11.02.11h-.11s0,.18,0,.18l.12-.02v.07s-.06,0-.09.03c-.06.04-.11.11-.11.2,0,.09.06.16.06.16,0,0-.02,0-.08.02-.06.01-.21.09-.21.09,0,0,0,0-.08.02-.07.01-.25.06-.25.06,0,0-.02-.01-.04-.01s-.06,0-.08.03c-.02.02-.02.07-.02.07,0,0-.01,0-.06.03-.05.03-.15.09-.15.09,0,0-.03,0-.06,0-.03,0-.06.04-.08.08-.01.04.01.06.01.06,0,0-.02.02-.06.08-.03.05-.04.09-.04.09,0,0-.01,0-.03,0-.02,0-.06.03-.06.1,0,.07.04.08.04.08,0,0,0,0,0,.04,0,.03.02.08.04.1.02.02,0,.03-.01.07-.02.04-.01.09,0,.13.02.03.08.05.08.05,0,0,0,.01.03.04.03.02.11,0,.11,0,0,0-.01-.01.12.06.13.07.12.17.12.17,0,0-.08.06-.07.09,0,.03,0,.05.04.06.04.01.08.03.08.03,0,0,.03.09.04.14-.05.03-.14.09-.22.11-.13.04-.26,0-.26,0-.17-.09-.38-.16-.57-.12-.16.03-.22.21-.22.21,0,0-.04-.02-.17-.03-.12-.01-.24.04-.29.12-.05.08-.07.21-.04.33.03.11.07.04.11-.01.04-.05.11-.1.24-.06.12.04.24.16.25.17,0,0-.02-.01-.16-.03-.15-.02-.28.02-.38.05-.09.03-.17.03-.27-.03-.1-.07-.1-.2-.1-.24s-.05-.03-.07,0c-.02.03-.13.19-.04.36.08.17.26.2.42.19.17,0,.38-.08.38-.08,0,0,0,.03.11.14.12.11.26.14.37.14s.2-.07.2-.07c.07.06.11.18.12.27,0,.06,0,.11.06.11s.14-.09.14-.09c0,0,0,.03.02.09.01.07,0,.25-.02.3-.02.05-.06.11,0,.12.05.01.11-.01.14-.01,0,.13-.03.22-.11.32,0,0-.01.02-.02.02-.03-.01-.06-.03-.09-.04l-.6.7s.21.25.2.8h0s-.03,0-.04,0c-.05,0-.07-.04-.12-.09-.05-.05-.05-.12-.11-.15-.05-.03-.19-.02-.31-.02-.11,0-.25-.04-.27-.16-.02-.11,0-.16.15-.26.15-.1.26-.2.26-.41,0-.21-.13-.34-.37-.62-.24-.28-.35-.53-.38-.6-.03-.07-.05-.04-.07,0-.03.05-.06.14-.06.14,0,0-.08-.05-.28-.41-.2-.36-.26-.64-.29-.79-.02-.1-.06-.05-.09-.02-.16-.46-.15-1.02-.2-1.46,0,0-.16.16-.25.46-.08.28-.08.61-.05.9.03.28.08.44.11.51.04.11-.02.04-.02.04,0,0-.14-.24-.23-.7-.1-.46-.08-.78-.08-.78,0,0-.06.05-.12.17-.06.13-.13.39-.11.85.02.47.2.96.29,1.13.09.17,0,.07-.03.02-.03-.05-.19-.3-.27-.52-.08-.22-.23-.68-.24-.75s-.04-.03-.07.04c-.03.06-.09.27-.09.42,0,.15.03.41.13.66.1.26.28.52.37.63.09.11.02.05-.02.02-.04-.03,0,0-.18-.19-.19-.2-.42-.66-.45-.73-.03-.07-.06,0-.07.05,0,.04-.03.26.11.65.14.38.49.68.67.81.18.13.05.06-.04,0-.09-.05-.28-.18-.4-.28-.12-.1-.32-.35-.38-.4-.06-.05-.07-.06-.07.12,0,.18.16.47.35.67.2.2.45.29.53.32.08.03.01.02-.07,0-.08-.02-.22-.06-.37-.14-.15-.08-.37-.25-.44-.31-.07-.06-.06.02-.04.12.02.1.08.28.36.51s.68.35.8.38c.11.03.03.03.03.03,0,0-.05,0-.28-.06-.23-.05-.59-.24-.68-.3-.1-.06-.11-.08-.1.04.01.13.15.4.36.52.22.13.6.19.7.2.1,0,.07.02.03.02-.05,0-.16,0-.34-.02-.15-.02-.37-.09-.45-.12,0-.03-.02-.06-.02-.08,0-.05-.03-.04-.05-.03-.02.01-.03.02-.08.05-.05.03-.06,0-.06-.02,0-.02-.01-.09-.01-.12,0-.04-.02-.04-.05-.03-.02.01-.14.06-.19.08-.04.02,0,.06.02.1.02.04.06.11.06.11,0,0-.11.03-.15.04-.04,0-.02.03-.02.06,0,.02.06.15.08.19.01.04.05.01.05.01l.11-.07.04.15s-.05.01-.11.05c-.06.04-.04.09.03.11.07.02.15.05.24.21.09.16.11.45.16.9.05.45.34.68.38.71.04.03.02.05.02.05,0,0-.04.06-.02.15.02.09.09.14.13.15.04.01.03.05.03.05,0,0-.02.1,0,.27.02.18.16.38.2.41.04.03.04.05.04.07s-.03,0-.08.04c-.05.04-.1.09-.14.15-.03.06-.02.1-.01.18.01.09.14.16.14.16,0,0-.02,0-.03.07,0,.06.04.13.1.18s.16.07.16.07c0,0,0,.05.01.09,0,.04.08.07.12.1.05.03.13.01.17,0,.04-.02.06,0,.09.04.02.04.01.18.01.24s-.03.12-.01.15c.02.03.07,0,.13-.02.05-.03.07,0,.12.02.05.03.12.06.14.06.02,0,.01-.05.01-.1s0-.14.03-.15c0,0,.09-.01.16-.04.03-.01.07-.03.07-.05,0-.03-.04-.03-.13-.08-.09-.05-.11-.08-.17-.12-.06-.04-.03-.05-.03-.07s.03-.04.04-.06c.01-.02,0-.07,0-.07,0,0,.05-.05.07-.07.02-.03.05-.07.08-.09.03-.03.08-.15.11-.19s.1-.08.14-.14.16-.14.22-.18c.07-.04.24-.13.24-.13,0,0,0,.11.04.16.05.05.1-.04.31-.18.2-.14.35-.19.35-.19,0,0,.04.07.1.13.05.07.1,0,.35-.34.19-.27.45-.52.55-.61.02,0,.04.02.05.02,0,.01,0,.03-.01.04-.02.07-.06.12-.11.21-.05.1-.12.12-.21.25-.08.13-.1.22-.1.36,0,.14.07.16.07.16,0,0-.12.12-.16.21-.04.09-.06.27-.06.27,0,0-.02,0-.06.1-.05.09-.13.11-.25.23-.12.12-.25.17-.31.21-.06.04-.05.07-.03.12.02.05.1.1.2.13.1.04.13.02.2.02.07,0,.01.05-.01.08s-.06.13-.06.24c0,.11.09.08.19.07.1-.02.22-.07.22-.07v.03s-.03.05-.03.14.01.13.04.15c.03.02.08-.03.11-.04.04-.01.1-.05.19-.07s.12-.06.12-.06c0,0-.02.03-.03.09,0,.06,0,.16.01.21.01.05.05.12.12.18.06.06.08.03.12-.04.05-.07.14-.16.14-.16,0,0,0,.02.07.22.06.2.27.37.27.37,0,0,.2-.17.27-.37.06-.2.07-.22.07-.22,0,0,.09.09.14.16.05.07.06.1.12.04.06-.06.1-.12.12-.18.01-.05.02-.15.01-.21,0-.06-.03-.09-.03-.09,0,0,.03.04.12.06.09.02.15.06.19.07.04.01.09.06.11.04.03-.02.04-.06.04-.15s0-.11-.02-.14v-.03s.11.05.21.07c.1.02.18.04.19-.07,0-.11-.03-.21-.06-.24-.03-.03-.08-.08-.01-.08.07,0,.1.02.2-.02.1-.04.18-.08.2-.13s.03-.08-.03-.12c-.06-.04-.19-.09-.31-.21-.12-.12-.2-.13-.25-.23-.05-.09-.06-.1-.06-.1,0,0-.02-.18-.06-.27-.04-.09-.16-.21-.16-.21,0,0,.08-.03.07-.16,0-.14-.02-.23-.1-.36-.08-.13-.16-.16-.21-.25-.05-.1-.08-.14-.11-.21,0-.01,0-.03-.01-.04.02-.01.05-.02.07-.03.1.09.36.34.55.61.25.34.29.41.35.34.05-.07.1-.13.1-.13,0,0,.15.05.35.19.2.14.26.23.31.18.02-.03.03-.07.03-.11,0,0,.12.03.25.08.08.03.17.06.23.09.17.07.19.11.33.22.14.11.34.1.52.04.19-.06.69-.22.88-.31.2-.09.34-.16.36-.2.02-.04.04-.15.04-.19s-.04-.1-.06-.11c-.01-.01,0-.04,0-.07,0-.03,0-.1-.04-.14-.03-.03-.03-.05-.02-.14,0-.21-.14-.46-.35-.55,0,0,0-.02-.02-.04-.02-.01-.04-.03-.04-.03,0,0,0-.12,0-.14,0-.03,0-.02.02-.02.01,0,.04.04.07.04s.05-.02.06-.05c0-.04.03-.11.05-.15.01-.04,0-.04-.02-.05-.02,0-.07,0-.09-.02-.02,0-.02,0-.02-.02,0-.01.01-.03.04-.08.03-.05,0-.05-.03-.06-.03,0-.16-.05-.2-.06-.04,0-.05.03-.05.04s0,.08,0,.11c0,.03-.02.02-.04.01-.01,0-.05-.03-.07-.05-.03-.02-.04,0-.05.03,0,.03-.04.14-.05.18,0,.03,0,.06,0,.07.01,0,.08,0,.12,0s.02.02.02.02c0,0-.04.07-.06.1-.01.03-.04.03-.07.03s-.09,0-.09,0c0,0-.22,0-.37.13-.16.12-.2.22-.23.27-.02.06-.05.04-.08.07-.02.02-.09.09-.09.14s.02.07-.05.11c-.07.04-.13.24-.03.34.09.1.13.2.16.25.03.05,0,.07-.02.07s-.08-.04-.12-.07c-.04-.03-.26-.2-.35-.27-.09-.07-.02-.06-.02-.06,0,0,.02,0,.08-.02.05-.02.06-.05,0-.07-.05-.02-.16-.08-.19-.11-.03-.03-.04-.06.01-.09.05-.03.17-.11.08-.13-.09-.03-.2-.05-.3-.07-.09-.03-.1-.05-.1-.05l.06-.09s.05-.07,0-.08c-.06,0-.19-.03-.32-.08-.25-.11-.41-.29-.46-.51h0c.05.09.15.26.32.26.22,0,.25-.06.2-.14-.05-.07-.11-.14-.12-.16-.01-.02-.02-.05.04,0,.06.06.17.24.51.22.34-.02.34-.09.34-.11,0-.06-.07-.07-.11-.12-.02-.02-.03-.05.03-.03.07.03.23.06.46,0,.09-.02.33-.12.35-.24,0,0-.15,0-.26-.05-.11-.05-.17-.08-.06-.06.11.02.33.07.52,0,.11-.04.26-.13.26-.29,0,0-.21-.04-.28-.07-.08-.03-.1-.05-.1-.05,0,0,.3.09.57-.04.27-.14.28-.32.28-.37s0-.06,0-.06c0,0-.24.06-.43.06-.18,0-.24-.02-.24-.02,0,0,.51-.01.77-.17.26-.16.27-.47.27-.47,0,0-.29.1-.47.12-.18.02-.29.02-.34.02-.05,0-.07-.02.03-.02.1,0,.49-.07.7-.2.22-.13.35-.4.36-.52.01-.13,0-.1-.1-.04-.1.06-.45.24-.68.3-.23.05-.28.06-.28.06,0,0-.08,0,.03-.03Z"
    fill="#de6f10"
    stroke-width="0"
  /><path
    d="m17.2,16.09c-.05-.03-.19-.09-.34-.1-.15-.01-.26,0-.39.04-.09.02-.16.03-.23,0-.11-.03-.19-.12-.22-.24,0,0-.1.13,0,.26.05.07.11.11.18.12.21.04.41-.09.59-.1.17-.01.3.09.3.09,0,0,.04.03.09,0,.06-.03.07-.06.02-.09Z"
    fill="#e30613"
    stroke-width="0"
  /><path
    d="m22.06,15.8c-.03.12-.11.21-.22.24-.07.02-.14.02-.23,0-.12-.03-.24-.06-.39-.04-.15.01-.29.07-.34.1-.05.03-.04.06.02.09.06.03.1,0,.1,0,0,0,.13-.11.3-.09.17.01.38.14.59.1.06-.01.13-.05.18-.12.1-.14,0-.26,0-.26Z"
    fill="#e30613"
    stroke-width="0"
  /><path
    d="m20.73,18.87c0-.42.19-.68.19-.68l-.52-.6c-.5.19-.95.2-1.36,0-.4.21-.86.19-1.36,0l-.52.6s.19.26.19.68-.08.73-.13.93c-.05.2-.09.58.02.85.11.27.22.5.68.7.46.19.71.3.87.43.16.13.24.24.24.24,0,0,.08-.11.24-.24.16-.13.4-.24.87-.43.46-.19.58-.43.68-.7.11-.27.07-.64.02-.85-.05-.2-.13-.51-.13-.93Z"
    fill="#e9b528"
    stroke-width="0"
  /><path
    d="m16.73,22.19s-.17.08-.22.09c-.05.01-.07.01-.07.01,0,0-.11.1-.2.15-.09.05-.19.09-.29.1-.13.01-.49.01-.65,0-.16,0-.26.03-.33.11-.07.08-.09.19,0,.28.09.09.19.04.22-.01.03-.05.02-.12,0-.15-.01-.03.03-.04.07-.04.05,0,.12,0,.19.01.07.01.19.05.25.08.05.03.02.03-.01.03-.04,0-.08-.02-.14-.05-.07-.02-.12-.04-.16-.04-.04,0-.03.02-.02.03,0,.01.03.05.04.07,0,.02-.01.08-.01.08l.02.04s.02-.04.03-.06c0-.02,0-.06,0-.08,0-.02.04-.02.07.01.03.03.06.07.07.15.01.08-.01.13-.01.13,0,0,.03.03.04.05,0,.02,0,.09,0,.09,0,0,.02.01.04-.03s.05-.12.05-.15c0-.03.02-.08.06-.04.03.04.06.08.06.1,0,.02,0,.04,0,.04,0,0,.07-.07.1-.11.02-.04.08-.1.15-.16.07-.06.19-.17.25-.21.06-.04.21-.12.26-.15.05-.03.06-.03.06-.11,0-.08.05-.15.07-.21.02-.06.02-.08.02-.08Z"
    fill="#e9b528"
    stroke-width="0"
  /><path
    d="m16.6,22.13s-.02,0-.05,0c-.03,0-.09-.02-.11-.03-.02,0-.05-.01-.07.01-.02.02-.17.11-.17.11h.25c.09,0,.14-.08.14-.08Z"
    fill="#e9b528"
    stroke-width="0"
  /><path
    d="m17.3,22.09v-.02l-.03-.07s-.04.02-.08.06c-.05.05-.1.12-.12.15-.04.05-.1.1-.05.02.05-.08.07-.12.11-.18.04-.06.07-.08.06-.08,0,0-.04,0-.14-.02-.1-.01-.17-.05-.22-.08-.05-.03-.13-.07-.13-.07,0,0-.18.07-.24.09-.07.02-.11.03-.04.06.06.03.12.04.15.06.03.02.13.05.19.05s.16,0,.12.04c-.04.04-.08.12-.13.24-.04.12-.04.23-.04.28s0,.11,0,.11c0,0,.07-.08.27-.2.19-.12.27-.16.3-.18.04-.02.05-.02.05-.06s-.03-.16-.03-.18Z"
    fill="#e9b528"
    stroke-width="0"
  /><path
    d="m18.05,21.5s-.02-.01-.04-.02c0,0,0,0,0,0-.02.01-.14.09-.19.17-.05.08-.1.08-.04,0,.05-.08.09-.13.13-.17.02-.01.03-.03.04-.03-.1-.05-.2-.1-.3-.17-.01.03-.04.07-.07.1-.04.04-.13.08-.13.08,0,0,.07-.08.1-.13.02-.04.03-.08.03-.1-.07-.05-.14-.12-.2-.19-.01.05-.05.17-.17.3-.15.17-.46.26-.46.26,0,0-.11.01-.02.03.09.02.15.06.32.03.17-.03.18-.04.2-.04.02,0,.08,0,0,.03-.08.03-.28.06-.36.05-.08,0-.18-.02-.07.03.11.06.15.08.22.08s.09.02.16.02.08-.01.13-.02c.05,0,.08,0,.08.03s-.06.07-.06.19c0,.13.01.21.02.24.01.04.04.1.06.13.02.03.03.07.04,0,.02-.07.06-.18.08-.25.02-.07.03-.07.03-.11,0-.04.05-.06.03,0-.02.07-.04.15-.05.21-.01.06-.05.17,0,.08.05-.09.26-.32.3-.36.03-.04.06-.08.09-.11.03-.03.1-.08.13-.13.03-.05.12-.13.16-.17-.06-.02-.12-.05-.18-.08Z"
    fill="#e9b528"
    stroke-width="0"
  /><path
    d="m14.04,19.18s-.03-.06-.04-.09c0-.02-.03,0-.03,0,0,0-.05.03-.09.04-.04.01-.05,0-.05-.02,0-.02-.01-.09-.02-.13,0-.05-.02-.04-.03-.04-.02,0-.07.02-.1.04-.03.01-.02.03-.01.05.01.02.05.1.07.13.02.03,0,.04-.02.05-.02,0-.05.01-.09.03-.04.01-.04.02-.03.04s.03.07.05.1c.02.03.03,0,.03,0,0,0,.04-.04.08-.06.04-.02.04-.01.05.02,0,.03.05.17.06.2,0,.03.02.02.04.02.02,0,.05-.01.07-.02.02,0,.03-.05.03-.05,0,0-.08-.15-.1-.18s0-.05.02-.05c.02,0,.06,0,.11-.02.04,0,.03-.03.03-.05Z"
    fill="#e9b528"
    stroke-width="0"
  /><path
    d="m14.96,23.13s0-.07-.03-.1c-.03-.03-.06-.08-.07-.12-.01-.04.01-.06,0-.09,0-.02-.04-.02-.07,0-.03.03-.08.05-.08.13s.03.17.14.2c.11.03.11,0,.1-.03Z"
    fill="#e9b528"
    stroke-width="0"
  /><path
    d="m15.07,23.09s-.02-.01-.03,0c-.01.02,0,.03.02.08.03.05.05.06.08.08.03.02.01-.02,0-.03,0-.01,0-.03,0-.04,0-.01-.01-.02-.01-.06s-.05-.03-.05-.03Z"
    fill="#e9b528"
    stroke-width="0"
  /><path
    d="m15.2,23.46s.04-.04.09-.06c.05-.02.14-.04.17-.04.03,0,.1-.06.09-.12-.01-.06-.06-.09-.09-.09s-.07,0-.09.01c-.01.02-.03.04-.08.06-.04.01-.05.03-.08.04-.03,0,0,.02-.03.04-.02.02-.05,0-.09-.01-.03-.01-.04-.02-.08-.02-.04,0-.14,0-.14,0,0,0,0,0-.03,0s-.02,0-.03.03c-.01.02,0,.09.03.12s.1.05.16.06c.05.02.08.02.13.03.05,0,.05,0,.07-.03Z"
    fill="#e9b528"
    stroke-width="0"
  /><path
    d="m15.7,23.51s.02-.08,0-.11c-.01-.03-.07-.04-.1-.04s-.05,0-.06.01c-.02.01-.04.03-.08.05-.05.01-.08.03-.14.06-.06.02-.08.07-.11.08-.03.02-.08,0-.08,0,0,0-.04-.01-.05,0-.01.01,0,.03.02.06.02.03.07.02.13.04.05.02.06,0,.08-.01.02-.01.04-.05.07-.07.04-.02.12-.03.16-.03.04,0,.11-.02.15-.05Z"
    fill="#e9b528"
    stroke-width="0"
  /><path
    d="m15.7,23.32s.04.04.06.01c.02-.03.04-.08.02-.12-.02-.03-.04-.06-.04-.06,0,0-.03.09-.05.12-.01.02-.01.03,0,.05Z"
    fill="#e9b528"
    stroke-width="0"
  /><path
    d="m15.53,23.04c0-.05-.04-.12-.04-.12,0,0-.01.05-.03.09-.02.04-.05.07-.05.07,0,0,.05.01.07.01s.04,0,.04-.05Z"
    fill="#e9b528"
    stroke-width="0"
  /><path
    d="m15.22,23.15c.06-.01.09-.03.11-.06.02-.02.04-.08.02-.1-.02-.03-.06-.06-.07-.06h-.03s-.02.05-.04.08c-.02.03-.05.05-.05.08,0,.03,0,.07.06.06Z"
    fill="#e9b528"
    stroke-width="0"
  /><path
    d="m15.34,22.89s0-.06-.03-.07c-.02-.02-.03-.03-.03-.03,0,0,0,.04,0,.06,0,.02,0,.03,0,.03,0,0,.02.02.03.02.01,0,.04.02.04,0Z"
    fill="#e9b528"
    stroke-width="0"
  /><path
    d="m14.63,21.43s.07,0,.04-.24c-.03-.24-.16-.47-.26-.63-.1-.16-.2-.41-.25-.54-.05-.13-.08-.31-.08-.41s.04-.14.04-.14c0,0,.02-.03,0-.04-.02-.02-.04,0-.07.02-.03.03-.05.07-.06.11-.01.03-.01.05-.01.05,0,0-.05-.01-.13,0-.08,0-.12.01-.12.03,0,.02.01.03.07.06.06.03.1.04.13.07.03.04.11.21.13.3.02.09.07.32.09.5.02.18.08.4.17.59.03.06.18.35.31.29Z"
    fill="#e9b528"
    stroke-width="0"
  /><path
    d="m14.78,21.86c-.06.03-.05.26-.03.38.02.12.14.27.18.31.04.04.04.04.06.03.02-.01.03-.01.03-.01,0,0,.05-.02.09-.05.04-.03.02-.1.02-.17,0-.06-.06-.19-.15-.34-.09-.15-.14-.18-.19-.15Z"
    fill="#e9b528"
    stroke-width="0"
  /><path
    d="m14.84,21.67c0-.07-.06-.13-.14-.13-.04,0-.07,0-.09.03-.08.07-.03.24.08.24.04,0,.09,0,.11-.03.03-.02.03-.06.03-.1Z"
    fill="#e9b528"
    stroke-width="0"
  /><path
    d="m15.93,23.83s-.05-.02-.09-.05c-.04-.03-.11-.09-.13-.12-.01-.03-.01-.03-.05-.02-.04.01-.1.01-.15.01-.05,0,0,.05.04.1.03.05.02.21.02.21,0,0,0,.01,0,.04,0,.02,0,.04.01.04.01,0,.02,0,.05-.04.03-.04.09-.13.09-.13,0,0,0,0,.06.01.05.01.13,0,.17,0,.04-.01.02-.04,0-.05Z"
    fill="#e9b528"
    stroke-width="0"
  /><path
    d="m15.74,23.95s-.03,0-.04,0c-.01.01-.02.04-.02.05,0,.01,0,.03,0,.04.01.01.03.02.03.02,0,0,.02.02.04.03.02,0,.02-.02.02-.04s.01-.05.01-.08-.02-.03-.04-.04Z"
    fill="#e9b528"
    stroke-width="0"
  /><path
    d="m15.2,16.21c0,.13.15.37.22.5.08.13.1.18.09.19-.01,0-.05-.06-.09-.12-.04-.06-.13-.19-.2-.29-.07-.1-.18-.34-.19-.36-.01-.02-.02-.04-.05,0-.04.03-.1.29-.02.47.08.18.21.31.26.38.05.06.12.16.11.17-.01,0-.03-.02-.09-.08-.06-.07-.17-.18-.24-.26-.06-.07-.13-.2-.16-.25,0-.02-.02-.01-.03,0-.02.02-.06.08-.04.22.02.2.13.32.22.42.09.1.19.19.17.2-.01.01-.11-.07-.18-.13-.07-.06-.23-.22-.26-.26-.04-.04-.09-.02-.08.15,0,.17.19.35.27.44.08.1.18.15.17.17s-.09-.03-.14-.07-.25-.16-.28-.19c-.04-.03-.06.02,0,.19.05.16.19.3.28.36.08.06.22.13.21.15,0,.02-.07,0-.15-.04-.08-.04-.18-.07-.24-.09-.07-.02-.07.03-.07.03,0,0-.01.14.09.25s.22.16.33.18c.11.02.13.02.12.04,0,.02-.01.02-.04.02s-.13.01-.22.01-.14.02-.14.06,0,.1.14.19c.14.09.3.11.36.12.07.01.07.02.05.04-.01.02-.04.02-.15.03-.1.01-.17.05-.18.08-.01.03,0,.11.09.17.08.06.19.08.36.07.16-.01.21-.01.21.01,0,.03-.05.04-.13.05-.08.01-.15.01-.19.05-.05.04-.01.12.07.18.08.06.28.06.36.05.08,0,.21-.04.22-.01,0,.02-.06.05-.15.09-.08.03-.11.05-.13.08-.02.04,0,.07.1.11.1.04.25.04.33,0,.08-.04.12-.05.13-.04.01.01,0,.03-.02.05-.02.02-.08.07-.17.09-.08.02-.09.02-.12.09s.05.12.2.13c.15,0,.36-.05.42-.09.07-.04.09-.05.1-.03.01.01,0,.02-.02.05-.03.02-.14.1-.19.11-.05.01-.06.05-.06.09s-.01.11.12.14c.14.03.3,0,.45-.1.05-.03.08-.06.09-.09-.01-.14,0-.24.01-.33-.03,0-.08-.01-.14-.03-.08-.03-.11-.11-.13-.15-.02-.04-.05-.04-.08-.03-.03.01-.07.02-.11.02-.05,0-.15-.03-.22-.11-.07-.09-.06-.17-.06-.21,0-.04-.07-.01-.1-.01s-.13-.01-.22-.07c-.09-.06-.09-.14-.1-.18,0-.03-.04-.05-.07-.07s-.07-.02-.13-.07c-.06-.05-.08-.15-.08-.18,0-.03-.04-.04-.16-.1-.12-.06-.11-.19-.11-.25,0-.05.06-.1.06-.12s-.04-.02-.08-.05c-.04-.02-.15-.07-.15-.22,0-.15.1-.17.1-.17,0,0-.02,0-.06-.03-.04-.02-.15-.1-.15-.19s.04-.13.07-.15c.03-.02.11-.04.11-.04,0,0-.05-.03-.07-.1s-.03-.16.02-.22c.05-.06.14-.06.19-.06s.09.02.1.01c.02-.01.02-.02,0-.06-.02-.04-.02-.12,0-.15.01-.03.02-.09.13-.13.12-.04.24.04.28.06.04.02.02-.03.02-.07s-.08-.13-.17-.27c-.09-.14-.13-.21-.23-.42s-.17-.48-.18-.55-.04-.04-.04-.04c0,0-.03.01-.09.17-.06.16-.07.3-.07.43Z"
    fill="#e9b528"
    stroke-width="0"
  /><path
    d="m17.27,19.02c-.07,0-.16-.04-.23-.14-.07-.1-.18-.13-.36-.12-.18,0-.27-.08-.31-.21-.05-.13,0-.27.19-.36.19-.09.27-.19.28-.35,0-.16-.19-.36-.38-.58-.19-.22-.35-.54-.35-.54,0,0-.06.07-.06.15s.03.15,0,.17c-.03.02-.04-.03-.15-.08-.11-.05-.2-.06-.27.02-.07.08,0,.22.06.29.06.07.12.12.1.14-.02.02-.11-.04-.14-.06s-.11-.1-.22-.09c-.11.01-.15.04-.16.13-.01.09.1.17.17.21.07.04.1.07.08.08-.02.01-.04,0-.07-.01-.03-.01-.12-.02-.18,0-.06.02-.15.1-.06.19.08.1.26.13.3.14.04,0,.05,0,.06.02,0,.03-.07.03-.17.03-.1,0-.12.1-.11.17.01.07.17.15.26.16.09.01.12,0,.13.02,0,.02-.01.04-.06.05-.05.01-.14.02-.16.1-.02.08-.02.11.05.18.07.07.19.06.23.05.04,0,.08-.05.11-.01.04.04-.03.06-.09.11-.06.04-.06.12.05.18.1.06.2.04.25.02.04-.01.1-.08.13-.04.03.04-.09.06-.14.12-.05.06-.03.16.07.22.1.06.26.02.29,0s.06-.04.08-.01c.02.02-.01.08-.03.13-.02.05-.06.19.09.25.15.06.28-.07.31-.1.02-.02.05-.03.07-.02.02.01.01.03,0,.06-.02.02-.06.13.05.2.07.05.15.05.19.04.02-.08.05-.17.08-.29,0,0-.06.05-.08.07-.02.01-.04.03-.05.02,0,0,.04-.03.05-.05.01-.02.04-.04.04-.06,0-.02,0-.03.04-.05,0,0,.01-.01.02-.02.02-.08.03-.18.05-.3.01-.08.02-.15.02-.22h-.05Z"
    fill="#e9b528"
    stroke-width="0"
  /><path
    d="m14.25,16.82c.16.32.38.5.38.5,0,0-.03-.08-.04-.13-.01-.05,0-.12,0-.12,0,0-.06-.07-.16-.23-.1-.16-.16-.39-.16-.39,0,0,.1.23.17.36.07.12.16.23.16.23,0,0,.03-.11.05-.12.02,0,.04.01.06.04.02.02.03.02.03.02,0,0-.03-.05-.06-.12-.02-.03-.04-.06-.06-.09-.06-.09-.19-.27-.25-.45-.06-.18-.21-.62-.23-.75-.02-.13-.05-.06-.07.04-.02.1-.06.23-.04.44.02.2.07.45.23.77Z"
    fill="#e9b528"
    stroke-width="0"
  /><path
    d="m14.46,17.68c.06.04.15.1.15.1,0,0-.01-.03-.02-.07,0-.04-.01-.12-.01-.12,0,0-.07-.06-.12-.1-.05-.04-.11-.1-.23-.24-.12-.15-.02-.06.07.05.1.11.28.26.28.26,0,0,0,0,0-.03,0-.03.01-.06.03-.08.02-.02,0-.03-.1-.11-.11-.08-.38-.39-.49-.57-.11-.18-.23-.43-.23-.43,0,0-.06.37.16.77.22.4.44.53.5.58Z"
    fill="#e9b528"
    stroke-width="0"
  /><path
    d="m15.62,19.98c.12-.05.09-.17.09-.17s-.07.02-.14.05c-.07.03-.24.07-.3.08-.07,0-.07,0-.07-.02,0,0,.05,0,.15-.02s.27-.11.29-.13c.03-.02.03-.02-.02-.03-.04,0-.08-.02-.1-.04-.02-.01-.06,0-.17.03-.11.03-.34.06-.51.06s-.34-.03-.37-.04c-.03,0-.06,0,.03.15.08.14.38.22.59.22.21,0,.41-.11.53-.16Z"
    fill="#e9b528"
    stroke-width="0"
  /><path
    d="m15.08,19.69c.21,0,.29-.06.29-.06,0,0,0-.01-.03-.05-.03-.04-.02-.12-.02-.12,0,0-.05,0-.14.02-.09.01-.19.03-.3,0-.11-.02-.06-.03.03-.02.09.01.26-.02.32-.04.06-.02.03-.04,0-.05-.04-.01-.14-.08-.14-.08,0,0-.26.03-.5,0-.24-.03-.39-.09-.44-.1-.05,0-.05.01-.05.01,0,0-.01.02.07.15.08.13.25.22.38.25.14.04.32.07.54.07Z"
    fill="#e9b528"
    stroke-width="0"
  /><path
    d="m15.02,19.19s0-.01-.02-.06c-.01-.04.02-.08.02-.08,0,0-.05-.01-.21-.03-.16-.02-.17-.03-.27-.05-.1-.02-.16-.05-.16-.06,0-.01.03,0,.09.03.06.02.3.05.4.06.1.01.16.03.18.01.02-.01.08-.03.08-.03,0,0-.04-.01-.1-.02-.05,0-.1-.03-.13-.05-.03-.02-.04-.03-.17-.04-.13-.01-.23-.06-.47-.14-.23-.09-.41-.19-.45-.22-.05-.04-.04-.01-.03.04.01.05.01.11.13.25.12.14.17.2.47.31.3.11.63.09.63.09Z"
    fill="#e9b528"
    stroke-width="0"
  /><path
    d="m14.15,18.47c.26.18.57.25.63.26.01-.02-.02-.08,0-.12.02-.04.05-.05.11-.05.06,0,.02-.02,0-.02s-.02,0-.12-.03c-.1-.03-.21-.04-.36-.1-.14-.05-.19-.09-.18-.1,0-.01.07.03.2.08.13.05.29.07.37.09.08.02.01-.02-.03-.04-.04-.02-.1-.11-.1-.11,0,0-.09-.02-.25-.06-.15-.05-.28-.1-.41-.17-.04-.02-.09-.06-.13-.09-.09-.06-.18-.13-.21-.15-.05-.04-.04,0-.03.02,0,.02.04.13.12.25.08.12.11.16.37.34Z"
    fill="#e9b528"
    stroke-width="0"
  /><path
    d="m14.1,17.95c.26.2.48.27.52.28s.03,0,.03-.03c0-.02-.01-.09-.01-.09,0,0-.09-.05-.19-.11-.1-.06-.22-.14-.29-.19-.08-.05-.03-.05,0-.03.02.02.13.08.23.15.1.07.26.16.26.16,0,0,0-.03.03-.06.02-.02.08-.02.08-.02,0,0-.03-.03-.04-.05-.02-.03-.1-.05-.2-.1-.1-.05-.27-.17-.39-.28s-.37-.37-.39-.4c-.02-.02-.03-.02-.03,0,0,.03-.01.05.02.17.03.12.14.38.4.58Z"
    fill="#e9b528"
    stroke-width="0"
  /><path
    d="m15.02,16.02c.03.06.06.11.08.15.03.06.05.1.05.1,0,0,0-.02,0-.06,0-.04-.01-.09,0-.15,0-.03.01-.06.01-.09,0-.03-.01-.06-.02-.08,0-.03-.05-.19-.06-.29s-.04-.26-.04-.39c0-.13.02-.07.02,0s0,.16.03.32c.02.15.09.39.09.39,0,0,0-.04.02-.09.02-.05.05-.11.08-.17.02-.06.02-.07.02-.07,0,0-.09-.43-.11-.64-.02-.2-.06-.74-.06-.74-.13.13-.23.48-.25.82-.01.25.03.48.04.58.02.19.06.33.1.43Z"
    fill="#e9b528"
    stroke-width="0"
  /><path
    d="m14.72,16.7c0-.1.03-.17.09-.19,0,0-.06-.1-.11-.24-.03-.1-.06-.22-.08-.31-.03-.23-.06-.47,0-.08.07.39.15.53.15.53l.1.16c-.01-.07-.02-.12-.01-.2,0-.08.01-.18.04-.27,0,0-.12-.24-.2-.53-.08-.29-.12-.56-.12-.71,0-.15-.01-.21-.01-.21,0,0-.12.09-.17.57-.04.48.08.93.15,1.1.06.17.16.39.16.39Z"
    fill="#e9b528"
    stroke-width="0"
  /><path
    d="m16.08,20.33s-.02-.01-.08-.05c-.06-.04-.04-.15-.04-.15,0,0-.02.01-.06.04-.04.03-.09.06-.15.09-.06.02-.09.04-.13.05-.04.01-.03,0,0-.02.03-.02.04-.03.12-.06.08-.03.24-.17.24-.17,0,0-.04,0-.1,0-.06,0-.15-.04-.15-.04,0,0-.06.06-.33.17-.26.11-.48.14-.48.14,0,0,.03.13.15.18.1.05.25.07.53,0,.28-.07.47-.19.47-.19Z"
    fill="#e9b528"
    stroke-width="0"
  /><path
    d="m16.43,20.59c.02-.11-.04-.19-.04-.19,0,0-.01,0-.05.04-.04.04-.1.1-.21.16-.11.06-.15.05-.04,0,.11-.06.26-.22.26-.22l-.04-.02s-.11.01-.41.19c-.29.18-.47.18-.47.18,0,0,.13.16.49.15.36-.01.49-.18.51-.29Z"
    fill="#e9b528"
    stroke-width="0"
  /><path
    d="m17.1,20.47s-.04.05-.09.09c-.05.04-.19.06-.19.06,0,0,0,.02-.03.05-.03.04-.09.12-.15.17-.06.05-.16.07-.17.06s.06-.04.12-.07c.06-.04.12-.11.16-.15.04-.05-.02-.04-.02-.04,0,0-.07,0-.14,0-.07,0-.06,0-.07.03-.02.03-.05.06-.1.12-.06.07-.12.14-.18.21-.04.05,0,.06,0,.06,0,0,.02.03.18.05.1.01.2,0,.32-.07.07-.04.14-.1.21-.18.19-.21.18-.38.18-.38Z"
    fill="#e9b528"
    stroke-width="0"
  /><path
    d="m17.19,20.9c-.04.05-.06.07-.06.07,0,0,.03-.08.05-.12.01-.02.03-.04.04-.05-.03-.06-.05-.12-.06-.19-.02.06-.07.22-.14.33-.08.13-.16.18-.11.21.05.04.14.04.24,0,.1-.05.13-.14.14-.21-.02-.03-.03-.06-.05-.09-.01,0-.03.02-.05.05Z"
    fill="#e9b528"
    stroke-width="0"
  /><path
    d="m23.17,18.04c.08-.06.23-.19.28-.36.05-.16.03-.22,0-.19-.04.03-.23.15-.28.19-.05.04-.13.08-.14.07,0-.02.09-.08.17-.17.08-.1.27-.27.27-.44,0-.17-.05-.19-.08-.15-.04.04-.2.2-.26.26-.07.06-.16.15-.18.13-.01-.01.08-.1.17-.2.09-.1.2-.22.22-.42.02-.14-.02-.2-.04-.22,0,0-.02-.01-.03,0-.03.05-.1.18-.16.25-.07.08-.17.19-.24.26-.06.07-.08.09-.09.08-.01,0,.06-.11.11-.17.05-.06.18-.19.26-.38.08-.18.01-.45-.02-.47-.04-.03-.04-.01-.05,0-.01.02-.12.26-.19.36-.07.1-.16.24-.2.29-.04.06-.08.12-.09.12-.01,0,0-.06.09-.19.08-.13.22-.37.22-.5,0-.13,0-.27-.07-.43-.06-.16-.09-.17-.09-.17,0,0-.03-.03-.04.04-.01.07-.08.34-.18.55-.1.21-.14.28-.23.42-.09.14-.17.23-.17.27s-.02.09.02.07c.04-.02.16-.1.28-.06.12.04.12.1.13.13.01.03.01.12,0,.15-.02.04-.01.05,0,.06.02.01.06-.01.1-.01s.13,0,.19.06c.05.06.04.15.02.22-.02.07-.07.1-.07.1,0,0,.08.02.11.04.03.02.07.06.07.15s-.11.17-.15.19c-.04.02-.06.03-.06.03,0,0,.1.02.1.17,0,.15-.11.19-.15.22-.04.02-.08.03-.08.05s.06.06.06.12c0,.05.02.18-.11.25-.12.06-.16.07-.16.1,0,.03-.02.13-.08.18-.06.05-.1.06-.13.07-.03.01-.06.03-.07.07,0,.03,0,.12-.1.18-.09.06-.18.07-.22.07s-.1-.03-.1.01c0,.04.01.12-.06.21-.07.08-.17.11-.22.11-.05,0-.08-.01-.11-.02-.03-.01-.06-.01-.08.03-.02.04-.05.12-.13.15-.06.02-.11.03-.14.03.02.09.02.18.01.32.02.02.04.05.09.09.15.1.31.13.45.1.14-.03.12-.1.12-.14s0-.07-.06-.09c-.05-.01-.16-.09-.19-.11-.03-.02-.04-.03-.02-.05.01-.01.04,0,.1.03.07.04.27.1.42.09.15,0,.23-.06.2-.13-.03-.07-.04-.07-.12-.09-.08-.02-.15-.07-.17-.09-.02-.02-.03-.03-.02-.05.01-.01.05,0,.13.04.08.04.22.04.33,0,.1-.04.11-.07.1-.11-.02-.04-.04-.05-.13-.08-.08-.03-.15-.06-.15-.09s.13,0,.22.01c.08,0,.28,0,.36-.05.08-.06.11-.14.07-.18-.05-.04-.11-.04-.19-.05-.08-.01-.14-.02-.13-.05,0-.03.05-.02.21-.01s.27,0,.36-.07c.08-.06.11-.14.09-.17-.01-.03-.08-.07-.18-.08-.1-.01-.13,0-.15-.03-.01-.02-.01-.02.05-.04.07-.01.22-.03.36-.12.14-.09.14-.15.14-.19s-.05-.06-.14-.06-.19-.01-.22-.01-.04,0-.04-.02c0-.02.01-.02.12-.04.11-.02.22-.06.33-.18.1-.11.09-.25.09-.25,0,0,0-.05-.07-.03-.07.02-.16.05-.24.09-.08.04-.14.06-.15.04,0-.02.13-.09.21-.15Z"
    fill="#e9b528"
    stroke-width="0"
  /><path
    d="m22.82,17.66c-.06-.02-.14-.01-.18,0-.03.01-.05.02-.07.01-.02-.01.01-.05.08-.08.07-.04.18-.12.17-.21-.01-.09-.05-.12-.16-.13-.11-.01-.18.07-.22.09s-.13.08-.14.06c-.02-.02.04-.07.1-.14.06-.07.13-.21.06-.29-.07-.08-.16-.07-.28-.02-.11.05-.12.1-.15.08-.03-.02,0-.1,0-.17s-.06-.15-.06-.15c0,0-.15.31-.35.54-.19.22-.39.42-.38.58,0,.16.09.26.28.35.19.09.24.24.19.36-.05.13-.13.22-.31.21-.18,0-.29.02-.36.12s-.16.14-.23.14h-.05c0,.07,0,.15.02.23.02.12.03.21.05.3,0,0,.01.02.02.02.03.02.03.03.04.05,0,.02.03.04.04.06.01.02.06.04.05.05,0,0-.03,0-.05-.02-.02-.01-.04-.03-.06-.05l-.02-.02c.03.12.06.21.08.29.04,0,.12.01.19-.04.11-.07.07-.18.05-.2-.02-.02-.03-.05,0-.06.02-.01.05,0,.07.02.02.02.16.15.31.1.15-.06.11-.2.09-.25-.02-.05-.05-.11-.03-.13.02-.02.06-.01.08.01.03.02.19.07.29,0,.1-.06.12-.16.07-.22-.05-.06-.17-.07-.14-.12.03-.04.08.02.13.04.04.01.14.04.25-.02.1-.06.11-.14.05-.18-.06-.04-.13-.07-.09-.11.04-.04.08,0,.11.01.04,0,.16.02.23-.05.07-.07.07-.1.05-.18-.02-.08-.11-.09-.16-.1-.05-.01-.07-.02-.06-.05,0-.02.04-.01.13-.02.09-.01.25-.09.26-.16s-.01-.16-.11-.17c-.1,0-.17,0-.17-.03,0-.03.02-.02.06-.02.04,0,.21-.04.3-.14.08-.1,0-.17-.06-.19Z"
    fill="#e9b528"
    stroke-width="0"
  /><path
    d="m23.46,17.32s.22-.18.38-.5c.16-.32.21-.57.23-.77.02-.2-.01-.34-.04-.44-.02-.1-.05-.17-.07-.04-.02.13-.17.57-.23.75-.06.18-.19.35-.25.45-.02.03-.04.06-.06.09-.04.06-.06.12-.06.12,0,0,.02,0,.03-.02.02-.02.03-.04.06-.04.02,0,.05.12.05.12,0,0,.09-.1.16-.23.07-.12.17-.36.17-.36,0,0-.05.23-.16.39-.1.16-.16.23-.16.23,0,0,.01.06,0,.12-.01.05-.04.13-.04.13Z"
    fill="#e9b528"
    stroke-width="0"
  /><path
    d="m24.3,16.33s-.12.25-.23.43c-.11.18-.38.49-.49.57-.1.08-.11.08-.1.11.02.02.03.05.03.08,0,.03,0,.03,0,.03,0,0,.19-.15.28-.26s.19-.2.07-.05c-.12.15-.18.2-.23.24-.05.04-.12.1-.12.1,0,0,0,.08-.01.12,0,.04-.02.07-.02.07,0,0,.09-.06.15-.1.06-.04.28-.17.5-.58.22-.4.16-.77.16-.77Z"
    fill="#e9b528"
    stroke-width="0"
  /><path
    d="m23.22,15.01c-.02-.33-.12-.68-.25-.82,0,0-.04.54-.06.74-.02.2-.11.64-.11.64,0,0,0,.01.02.07.02.06.06.12.08.17.02.05.02.09.02.09,0,0,.06-.23.09-.39.02-.15.03-.25.03-.32s.02-.13.02,0c0,.13-.02.29-.04.39-.02.11-.06.26-.06.29,0,.02-.02.05-.02.08,0,.03,0,.06.01.09,0,.06,0,.11,0,.15,0,.04,0,.06,0,.06,0,0,.02-.04.05-.1.02-.04.06-.09.08-.15.05-.1.08-.25.1-.43.01-.09.05-.33.04-.58Z"
    fill="#e9b528"
    stroke-width="0"
  /><path
    d="m23.52,16.31c.06-.17.19-.63.15-1.1-.04-.48-.17-.57-.17-.57,0,0,0,.06-.01.21,0,.16-.05.42-.12.71-.08.29-.2.53-.2.53.02.08.03.19.04.27,0,.08,0,.13-.01.2l.1-.16s.08-.14.15-.53c.07-.39.04-.15,0,.08-.01.09-.04.22-.08.31-.05.14-.1.24-.1.24.06.02.09.1.09.19,0,0,.09-.22.16-.39Z"
    fill="#e9b528"
    stroke-width="0"
  /><path
    d="m23.62,19.77s-.19.04-.37.04-.4-.04-.51-.06c-.11-.03-.16-.05-.17-.03-.02.01-.05.03-.1.04-.04,0-.05,0-.02.03.03.02.2.11.29.13.1.02.15,0,.15.02,0,.01,0,.02-.07.02-.07,0-.24-.05-.3-.08-.07-.03-.14-.05-.14-.05s-.03.12.09.17c.12.05.33.16.53.16.21,0,.5-.07.59-.22.08-.14.06-.16.03-.15Z"
    fill="#e9b528"
    stroke-width="0"
  /><path
    d="m23.96,19.2s-.2.07-.44.1c-.24.03-.5,0-.5,0,0,0-.1.07-.14.08-.04.01-.06.03,0,.05.06.02.23.05.32.04.09-.01.14,0,.03.02-.11.02-.22,0-.3,0-.09-.01-.14-.02-.14-.02,0,0,0,.07-.02.12-.03.04-.03.05-.03.05,0,0,.08.06.29.06.21,0,.4-.03.54-.07.14-.04.3-.12.38-.25.08-.13.07-.15.07-.15,0,0,0-.02-.05-.01Z"
    fill="#e9b528"
    stroke-width="0"
  /><path
    d="m24.27,18.5s-.22.14-.45.22c-.23.08-.34.13-.47.14-.13.01-.14.02-.17.04-.03.02-.08.04-.13.05-.05,0-.1.02-.1.02,0,0,.06.02.08.03.02.01.08,0,.18-.01.1-.01.35-.04.4-.06.06-.02.09-.04.09-.03,0,.01-.06.04-.16.06-.1.02-.11.03-.27.05-.16.02-.21.03-.21.03,0,0,.04.03.02.08s-.02.06-.02.06c0,0,.33.01.63-.09.3-.11.35-.17.47-.31.12-.14.12-.2.13-.25.01-.05.02-.08-.03-.04Z"
    fill="#e9b528"
    stroke-width="0"
  /><path
    d="m24.41,17.86s-.12.09-.21.15c-.05.03-.09.07-.13.09-.13.07-.26.12-.41.17-.15.05-.25.06-.25.06,0,0-.06.09-.1.11-.04.02-.11.06-.03.04.08-.02.24-.04.37-.09.13-.05.2-.1.2-.08,0,.01-.04.05-.18.1-.14.05-.25.07-.36.1-.1.03-.11.03-.12.03s-.06.01,0,.02c.06,0,.09,0,.11.05.01.04-.02.1,0,.12.07,0,.37-.08.63-.26.26-.18.29-.22.37-.34s.12-.23.12-.25c0-.02.02-.05-.03-.02Z"
    fill="#e9b528"
    stroke-width="0"
  /><path
    d="m23.43,18.03s.03.06.03.06c0,0,.16-.09.26-.16.1-.07.21-.13.23-.15.02-.02.07-.02,0,.03-.08.05-.19.13-.29.19-.1.06-.19.11-.19.11,0,0,0,.07-.01.09s-.01.04.03.03c.04-.02.26-.08.52-.28.26-.2.37-.46.4-.58.03-.12.02-.14.02-.17,0-.03-.01-.03-.03,0-.02.02-.26.29-.39.4-.13.11-.3.23-.39.28-.1.05-.18.07-.2.1-.02.03-.04.05-.04.05,0,0,.05,0,.08.02Z"
    fill="#e9b528"
    stroke-width="0"
  /><path
    d="m22.35,20.01s-.08.03-.15.04c-.06,0-.1,0-.1,0,0,0,.16.14.24.17.08.03.09.04.12.06.03.02.04.03,0,.02-.04-.01-.07-.03-.13-.05-.06-.02-.11-.06-.15-.09-.04-.03-.06-.04-.06-.04,0,0,.02.11-.04.15-.06.04-.08.05-.08.05,0,0,.19.12.47.19.28.07.42.04.53,0,.13-.05.15-.18.15-.18,0,0-.22-.03-.48-.14-.26-.11-.33-.17-.33-.17Z"
    fill="#e9b528"
    stroke-width="0"
  /><path
    d="m21.79,20.37l-.04.02s.16.16.26.22c.11.06.07.06-.04,0-.11-.06-.17-.12-.21-.16-.04-.04-.05-.04-.05-.04,0,0-.06.08-.04.19.02.11.15.28.51.29.36.01.49-.15.49-.15,0,0-.17,0-.47-.18-.29-.18-.37-.2-.41-.19Z"
    fill="#e9b528"
    stroke-width="0"
  /><path
    d="m21.69,20.78c-.05-.06-.08-.09-.1-.12-.02-.03,0-.04-.07-.03-.07,0-.14,0-.14,0,0,0-.06,0-.02.04.04.05.1.12.16.15.06.04.12.06.12.07,0,.01-.1-.02-.17-.06-.06-.05-.12-.13-.15-.17-.03-.04-.03-.05-.03-.05,0,0-.14-.02-.19-.06-.05-.04-.09-.09-.09-.09,0,0,0,.17.18.38.07.08.14.14.21.18.11.06.22.08.32.07.16-.02.18-.05.18-.05,0,0,.03-.01,0-.06-.06-.07-.12-.14-.18-.21Z"
    fill="#e9b528"
    stroke-width="0"
  /><path
    d="m20.94,20.6c-.02.07-.04.13-.06.19.01.01.02.03.04.05.02.04.05.12.05.12,0,0-.02-.02-.06-.07-.02-.03-.04-.04-.05-.05-.02.03-.03.06-.05.09.01.07.04.16.14.21.1.05.2.04.24,0,.05-.04-.03-.08-.11-.21-.07-.11-.12-.27-.14-.33Z"
    fill="#e9b528"
    stroke-width="0"
  /><path
    d="m20.85,15.63s.03.07.07.07.07-.03.07-.07-.03-.07-.07-.07-.07.03-.07.07Z"
    fill="#e9b528"
    stroke-width="0"
  /><path
    d="m20.04,15.6s.08.04.12.05c.14.04.29.02.4-.03.14-.08.26-.13.35-.14.07,0,.11.02.18.03.02,0,.04,0,.05-.02.01-.03,0-.1-.1-.15-.1-.06-.25-.05-.39-.01-.13.04-.21.09-.27.13-.05.04-.12.1-.13.09-.02-.01.03-.04.06-.07.03-.03.04-.03.04-.03-.15.01-.31-.04-.43-.13,0,0-.04.19.13.29Z"
    fill="#e9b528"
    stroke-width="0"
  /><path
    d="m21.53,15.51c-.1-.05-.2-.04-.32,0-.12.05-.18.08-.18.08,0,0,.02.1-.06.15-.07.05-.15.02-.17-.03-.02-.05-.03-.07-.03-.07,0,0-.11.06-.27.09-.09.02-.25.03-.36,0,0,0-.1.09-.17.15-.07.06-.15.1-.15.1,0,0,0,.02.04.03.03.01.04.02.02.05-.02.04-.19.18-.26.23-.07.05-.17.09-.17.09,0,0,.03.06.08.08.05.02.06.05.04.08-.02.03-.19.22-.26.28-.07.06-.12.07-.15.08-.03,0-.09.04-.03.11.06.07.21.1.35.05.15-.04.29-.21.29-.21,0,0-.03.25-.03.36s.01.25.03.32c.02.07.04.1.04.1,0,0,.1-.06.17-.23.07-.17.08-.27.08-.32s0-.08.05-.05c.04.03.08.05.1.05.02,0,.03,0,.03,0,0,0-.03-.12-.03-.22s.03-.3.07-.33c.04-.04.05.01.05.04,0,.05.05.11.11.12.02-.14.05-.25.16-.37.02-.02.03-.05.1-.02.1.04.24.07.34.03.1-.04.18-.15.16-.16,0,0-.16.08-.28.04-.12-.04-.18-.08-.11-.15.07-.07.1-.08.24-.2.14-.12.25-.17.38-.15.12.02.15.09.16.11.01.01.06.06.06-.04s-.05-.24-.15-.28Z"
    fill="#e9b528"
    stroke-width="0"
  /><path
    d="m20.22,17.5s-.07-.13-.07-.13c0,0,0,.02-.03.09-.03.07-.1.17-.1.17,0,0,.06-.01.12-.03.06-.02.11-.06.11-.06,0,0-.01,0-.03-.04Z"
    fill="#e9b528"
    stroke-width="0"
  /><path
    d="m19.72,17.12s-.04.1-.13.19c-.09.09-.16.08-.16.08,0,0,0,0,.08-.05.07-.05.13-.18.13-.18-.07.04-.24.09-.33.07,0,0-.01.03-.03.09-.02.05-.08.16-.12.2-.03.04,0,.05,0,.05,0,0,.02.02.23.08.21.06.4.03.4.03,0,0,0-.02-.04-.16-.04-.15-.02-.38-.02-.38Z"
    fill="#e9b528"
    stroke-width="0"
  /><path
    d="m17.09,15.63s.03.07.07.07.07-.03.07-.07-.03-.07-.07-.07-.07.03-.07.07Z"
    fill="#e9b528"
    stroke-width="0"
  /><path
    d="m17.01,15.51c.07,0,.1-.03.18-.03.09,0,.2.06.35.14.11.05.26.08.4.03.04-.01.08-.03.12-.05.17-.1.13-.29.13-.29-.13.09-.29.14-.43.13,0,0,.01,0,.04.03.03.03.07.05.06.07-.02.01-.08-.05-.13-.09-.05-.04-.13-.09-.27-.13-.13-.04-.29-.04-.39.01-.1.06-.11.13-.1.15,0,.02.03.02.05.02Z"
    fill="#e9b528"
    stroke-width="0"
  /><path
    d="m18.9,16.92s-.08-.02-.15-.08c-.07-.06-.24-.25-.26-.28-.02-.03-.01-.06.04-.08.05-.02.08-.08.08-.08,0,0-.1-.04-.17-.09-.07-.05-.23-.2-.26-.23-.02-.04-.01-.04.02-.05.03-.01.04-.03.04-.03,0,0-.08-.05-.15-.1-.07-.06-.17-.15-.17-.15-.11.04-.27.02-.36,0-.16-.03-.27-.09-.27-.09,0,0,0,.03-.03.07-.02.05-.09.08-.17.03-.07-.05-.06-.15-.06-.15,0,0-.06-.04-.18-.08-.12-.05-.22-.05-.32,0-.1.05-.15.18-.15.28s.05.06.06.04c.01-.01.03-.09.16-.11.12-.02.24.04.38.15.14.12.17.12.24.2.07.07.01.11-.11.15-.12.04-.27-.04-.28-.04-.02.01.05.12.16.16.1.04.24.01.34-.03.07-.03.08,0,.1.02.11.12.14.23.16.37.06-.02.1-.08.11-.12,0-.02.01-.07.05-.04.04.04.07.24.07.33s-.03.22-.03.22c0,0,.01,0,.03,0,.02,0,.05-.02.1-.05.04-.03.05,0,.05.05s.02.15.08.32c.07.17.17.23.17.23,0,0,.02-.03.04-.1.02-.07.03-.2.03-.32s-.03-.36-.03-.36c0,0,.14.17.29.21.15.04.29.02.35-.05.06-.07,0-.1-.03-.11Z"
    fill="#e9b528"
    stroke-width="0"
  /><path
    d="m17.94,17.37s-.04.1-.07.13c-.02.04-.03.04-.03.04,0,0,.04.04.11.06.06.02.12.03.12.03,0,0-.07-.1-.1-.17-.03-.07-.03-.09-.03-.09Z"
    fill="#e9b528"
    stroke-width="0"
  /><path
    d="m18.82,17.31c-.02-.06-.03-.09-.03-.09-.09.02-.26-.02-.33-.07,0,0,.07.14.13.18.07.05.08.05.08.05,0,0-.07.01-.16-.08-.09-.09-.13-.19-.13-.19,0,0,.02.24-.02.38-.04.15-.04.16-.04.16,0,0,.19.03.4-.03.21-.06.23-.08.23-.08,0,0,.03,0,0-.05-.03-.04-.1-.15-.12-.2Z"
    fill="#e9b528"
    stroke-width="0"
  /><path
    d="m18.07,22.63s.13-.02.17-.07c.04-.05.06-.13.09-.17.03-.04.05-.08.05-.08,0,0,0,.07-.05.17-.04.09-.04.22-.04.28.02.11.09.13.13.11.03-.01.08-.06.12-.13.01-.02.02-.06.04-.08.03-.05.05-.14.07-.14.03,0,0,.07,0,.11-.02.08-.06.21-.07.28s0,.21.08.21c.07,0,.11-.06.16-.21.04-.15.05-.2.07-.2s.02.1.02.15c0,.02,0,.06,0,.1.01.08.04.18.06.2.04.03.07.03.07.03,0,0,.03,0,.07-.03.04-.03.07-.26.07-.3s0-.15.02-.15.03.05.07.2c.04.15.08.22.16.21.07,0,.08-.14.08-.21s-.04-.2-.07-.28c-.02-.08,0-.08.07.03.02.03.04.07.05.1.04.06.08.1.11.11.04.01.11,0,.13-.11.02-.11-.07-.43-.07-.43,0,0,0,0,.04.05.03.04.04.12.09.17.04.05.13.08.17.07.04-.01.05-.1.02-.25-.03-.15-.17-.23-.26-.35-.09-.11-.16-.3-.17-.33-.12.06-.23.13-.32.23-.2.21-.24.26-.24.26,0,0-.04-.05-.24-.26-.1-.1-.2-.17-.32-.23-.01.03-.09.21-.18.32-.04.06-.1.1-.15.15-.05.06-.08.14-.1.22-.03.15-.03.23.02.25Z"
    fill="#e9b528"
    stroke-width="0"
  /><path
    d="m18.07,23.13c.06-.05.09-.08.09-.08,0,0,.04-.03.03.03-.01.07-.03.2-.02.26.01.06.02.11.09.07.07-.04.09-.07.13-.11s.07-.05.06,0c0,.06-.03.15-.02.26.01.12.07.13.15.03.08-.1.12-.19.14-.24.02-.05.07-.09.07,0,0,.2.04.48.26.56.22-.08.26-.36.26-.56,0-.09.05-.05.07,0,.02.05.07.14.14.24.08.1.13.08.15-.03.01-.12-.01-.2-.02-.26,0-.06.03-.04.06,0,.03.04.05.06.13.11.07.04.08,0,.09-.07.01-.06,0-.2-.02-.26-.01-.07.03-.03.03-.03,0,0,.03.03.09.08.06.05.14.05.14.05,0,0,.04-.21-.05-.33-.09-.12-.12-.16-.12-.16,0,0-.05,0-.09-.02-.04-.01-.07-.04-.07-.04v.11s.1.1.13.13c.02.03.07.08,0,.03-.07-.05-.13-.1-.13-.1,0,0-.01.1-.04.13-.03.03-.07.03-.09.02h-.02s0,.03,0,.03c0,0,.06.12.07.17s0,.04-.03-.02c-.03-.06-.09-.14-.11-.19-.03-.04-.06-.07-.06-.02,0,.06-.02.16-.04.19-.02.04-.03.05-.03.05,0,0,.04.14.05.17,0,.03,0,.06-.02.02s-.09-.17-.09-.17c0,0-.09,0-.11-.03-.02-.02-.06-.12-.06-.12,0,0-.04.12-.06.16-.03.04-.1.08-.1.08,0,0,0,.21,0,.25,0,.04,0,.05-.02.05s-.02-.02-.02-.05c0-.04,0-.25,0-.25,0,0-.07-.04-.1-.08-.03-.04-.06-.16-.06-.16,0,0-.04.09-.06.12-.02.02-.11.03-.11.03,0,0-.06.14-.09.17-.02.03-.03,0-.02-.02,0-.03.05-.17.05-.17,0,0-.01-.01-.03-.05-.02-.04-.04-.14-.04-.19,0-.06-.03-.03-.06.02s-.08.12-.11.19c-.03.06-.04.07-.03.02s.07-.17.07-.17v-.04s-.02,0-.02,0c-.02,0-.06,0-.09-.02-.03-.03-.04-.13-.04-.13,0,0-.06.05-.13.1-.07.05-.02,0,0-.03.02-.03.13-.13.13-.13v-.11s-.04.03-.07.04c-.04.01-.09.02-.09.02,0,0-.03.04-.12.16-.09.12-.05.33-.05.33,0,0,.08,0,.14-.05Z"
    fill="#e9b528"
    stroke-width="0"
  /><path
    d="m17.84,23.83c.05-.03.1-.07.21-.15.12-.08.16-.16.16-.16h-.04s-.04-.03-.04-.06c0-.03,0-.09,0-.17,0-.07-.01-.13-.01-.13,0,0-.05.05-.13.09-.08.04-.11.02-.11.02l-.02-.08s-.03.07-.08.15c-.05.08-.17.17-.26.24-.09.07-.19.14-.26.16-.07.03-.03.06-.03.06,0,0,.07.07.26.11s.28-.04.33-.08Z"
    fill="#e9b528"
    stroke-width="0"
  /><path
    d="m18.5,23.76c-.07,0-.11-.03-.12-.11,0-.05,0-.23,0-.23,0,0-.02.02-.05.05-.03.03-.08.04-.08.04,0,0,0,.03-.03.07-.03.04-.06.09-.12.13-.07.04-.14.09-.19.13-.05.04-.11.09-.17.13-.07.04-.12.09-.15.19-.02.1,0,.13.07.12.08,0,.08,0,.21-.03s.3-.17.42-.25c.13-.08.22-.24.22-.24Z"
    fill="#e9b528"
    stroke-width="0"
  /><path
    d="m18.84,23.87s-.05-.07-.07-.14c-.02-.07-.06-.22-.06-.22,0,0-.02.05-.06.13-.04.09-.11.11-.11.11,0,0,0,.04-.06.11s-.14.14-.23.2c-.09.05-.2.12-.26.21-.06.09-.07.18-.04.22.03.04.07,0,.13-.03.06-.03.23-.06.46-.18.23-.12.31-.41.31-.41Z"
    fill="#e9b528"
    stroke-width="0"
  /><path
    d="m18.94,24.39c.06-.09.07-.33.07-.33,0,0-.02-.02-.05-.04-.03-.03-.09-.12-.09-.12,0,0-.04.08-.08.15s-.06.1-.15.18c-.09.08-.2.16-.25.24-.05.08-.02.25.01.31.03.06.08.04.13,0,.05-.05.06-.06.15-.13.08-.07.2-.17.26-.26Z"
    fill="#e9b528"
    stroke-width="0"
  /><path
    d="m20.82,23.74c-.07-.03-.17-.1-.26-.16-.09-.07-.22-.16-.26-.24-.05-.08-.08-.15-.08-.15l-.02.08s-.03.02-.11-.02c-.08-.04-.13-.09-.13-.09,0,0-.02.06-.01.13,0,.07.01.14,0,.17,0,.03-.02.06-.04.06h-.04s.04.09.16.16c.12.08.16.11.21.15.05.03.14.11.33.08s.26-.11.26-.11c0,0,.04-.03-.03-.06Z"
    fill="#e9b528"
    stroke-width="0"
  /><path
    d="m20.36,23.97c-.07-.04-.12-.08-.17-.13-.05-.04-.13-.09-.19-.13-.07-.04-.1-.09-.12-.13-.03-.04-.03-.07-.03-.07,0,0-.06,0-.08-.04-.03-.03-.05-.05-.05-.05,0,0,.01.18,0,.23-.01.07-.05.1-.12.11,0,0,.09.16.22.24.13.08.3.22.42.25s.13.02.21.03c.08,0,.09-.03.07-.12s-.08-.16-.15-.19Z"
    fill="#e9b528"
    stroke-width="0"
  /><path
    d="m19.84,24.06c-.09-.05-.17-.12-.23-.2s-.06-.11-.06-.11c0,0-.07-.02-.11-.11-.04-.09-.06-.13-.06-.13,0,0-.04.15-.05.22-.02.07-.07.14-.07.14,0,0,.08.28.31.41.23.12.4.15.46.18.06.03.1.07.13.03.03-.04.02-.13-.04-.22-.06-.09-.18-.16-.26-.21Z"
    fill="#e9b528"
    stroke-width="0"
  /><path
    d="m19.45,24.24c-.09-.08-.11-.11-.15-.18-.04-.07-.08-.15-.08-.15,0,0-.06.09-.09.12-.03.03-.05.04-.05.04,0,0,.01.23.07.33.06.09.18.19.27.26.08.07.1.08.15.13.05.05.09.07.13,0,.03-.06.06-.23.01-.31-.05-.08-.17-.16-.25-.24Z"
    fill="#e9b528"
    stroke-width="0"
  /><path
    d="m19.12,24.5c-.06-.06-.07-.1-.07-.1,0,0-.02.03-.07.1-.06.06-.18.17-.18.17,0,0,.01.17.07.26.05.08.1.15.18.2.08-.05.13-.13.18-.2.06-.09.07-.26.07-.26,0,0-.13-.1-.18-.17Z"
    fill="#e9b528"
    stroke-width="0"
  /><path
    d="m23.75,22.4c-.05-.01-.07-.03-.07-.03,0,0-.02,0-.04.03-.02.03-.08.07-.08.07,0,0-.09.02-.11.09-.01.06.03.09.08.08.04,0,.15-.03.2-.09.05-.06.05-.09.06-.11,0-.02.01-.03-.04-.04Z"
    fill="#005d95"
    stroke-width="0"
  /><path
    d="m23.89,21.9c-.03-.14-.12-.32-.3-.4,0,0-.07.23-.09.31-.02.07-.02.07.04.09.06.01.24.05.27.06.04,0,.1.04.08-.05Z"
    fill="#005d95"
    stroke-width="0"
  /><path
    d="m23.05,21.77s.04,0,.05-.07.09-.34.09-.34c0,0-.19,0-.35.07-.16.08-.23.22-.23.22,0,0,.04.02.15.04.11.02.25.06.29.07Z"
    fill="#005d95"
    stroke-width="0"
  /><path
    d="m22.62,22.15c-.07-.01-.09-.02-.09-.02,0,0,.04.16.11.25.07.09.14.13.29.13.14,0,.25-.08.27-.14.02-.06.05-.11.05-.11,0,0-.26-.03-.36-.06-.11-.02-.19-.05-.26-.06Z"
    fill="#005d95"
    stroke-width="0"
  /><path
    d="m20.57,19.04c-.07-.4.16-.75.16-.75l-.45-.52c-.34.19-.82.17-1.24-.02-.42.19-.89.22-1.24.02l-.45.52s.23.35.16.75c-.07.4-.21,1.03-.17,1.28.04.26.22.55.4.71.19.16.46.29.66.36.2.07.39.21.48.28.09.07.15.13.15.13,0,0,.06-.06.15-.13.09-.07.28-.21.48-.28.2-.07.47-.2.66-.36.19-.16.37-.45.4-.71.04-.26-.11-.89-.17-1.28Z"
    fill="#de6f10"
    stroke-width="0"
  /><path
    d="m19.66,16.79c-.07.08-.23.15-.23.15h0s.06,0,.13-.03c.06-.04.16-.12.18-.15.02-.03,0-.06,0-.06,0,0,0,.02-.07.09Z"
    fill="#de6f10"
    stroke-width="0"
  /><path
    d="m19.93,16.94s-.02.34-.02.34c0,.01,0,.1-.03.12.01,0,.03,0,.04-.04,0-.06.06-.43.06-.43h-.03s-.03-.03-.03.02Z"
    fill="#de6f10"
    stroke-width="0"
  /><path
    d="m20.43,16.19s-.1.06-.13.09c-.04.03-.06.03-.09.05-.03.02-.02-.06,0-.12.02-.06.09-.13.14-.19.05-.06,0-.04-.03-.02-.02.02-.08.08-.15.19-.07.11-.1.35-.1.35,0,0,.04-.02.08-.05.04-.03.08-.05.16-.11.08-.06.12-.1.16-.14.04-.04-.01-.05-.04-.04Z"
    fill="#de6f10"
    stroke-width="0"
  /><path
    d="m18.43,16.79c-.07-.08-.07-.09-.07-.09,0,0-.02.02,0,.06.02.03.11.11.18.15.06.04.13.05.13.05h0s-.16-.08-.23-.16Z"
    fill="#de6f10"
    stroke-width="0"
  /><path
    d="m18.17,17.28s-.02-.3-.02-.34-.03-.03-.03-.03h-.03s.06.39.06.45c0,.05.03.04.04.04-.02-.01-.03-.1-.03-.12Z"
    fill="#de6f10"
    stroke-width="0"
  /><path
    d="m17.77,16s-.08-.04-.03.02.12.13.14.19.03.14,0,.12c-.03-.02-.06-.02-.1-.05-.04-.03-.1-.08-.13-.09-.03,0-.08,0-.04.04.04.04.08.09.16.14.08.06.12.08.16.11.04.03.08.05.08.05,0,0-.04-.24-.1-.35-.07-.11-.12-.17-.15-.19Z"
    fill="#de6f10"
    stroke-width="0"
  /><path
    d="m19.04,22.89s0-.02,0-.05c0-.03,0-.12.01-.16,0-.05-.01-.05-.03-.04-.01,0-.02.04-.02.06s0,.14,0,.17c0,.03,0,.03.02.03Z"
    fill="#de6f10"
    stroke-width="0"
  /><path
    d="m19.91,22.45c.03.07.04.06.03,0-.01-.06-.04-.11-.07-.16-.03-.05-.11-.13-.11-.13,0,0,.02.05.05.09.03.04.07.13.1.2Z"
    fill="#de6f10"
    stroke-width="0"
  /><path
    d="m19.58,22.51s.08.17.09.17c0,0-.03-.11-.05-.19-.02-.08-.06-.13-.07-.13,0,0,0,.05,0,.05,0,0,.01.06.02.1Z"
    fill="#de6f10"
    stroke-width="0"
  /><path
    d="m19.32,22.72s.03.07.04.07c0,0-.02-.07-.02-.09,0-.02,0-.06-.03-.11-.02-.04-.03-.02-.03,0s.03.1.03.1c0,0,0,0,.01.03Z"
    fill="#de6f10"
    stroke-width="0"
  /><path
    d="m18.19,22.45c.03-.07.07-.15.1-.2.03-.04.05-.09.05-.09,0,0-.08.08-.11.13-.03.05-.05.1-.07.16-.01.06,0,.07.03,0Z"
    fill="#de6f10"
    stroke-width="0"
  /><path
    d="m18.51,22.51s.02-.08.02-.08c0,0,.01-.04,0-.05,0,0-.04.03-.06.1-.02.08-.06.18-.05.19,0,0,.08-.12.09-.17Z"
    fill="#de6f10"
    stroke-width="0"
  /><path
    d="m18.77,22.72s.01-.03.01-.03c0,0,.03-.09.03-.1s0-.04-.03,0c-.02.04-.02.09-.03.11,0,.02-.03.09-.02.09,0,0,.03-.03.04-.07Z"
    fill="#de6f10"
    stroke-width="0"
  /><path
    d="m17.97,23.5l-.03-.02s-.02.03-.05.06c-.03.03-.06.04-.08.07-.02.03-.06.07-.11.09-.05.03-.07.04-.06.04.01,0,.05-.01.05-.01,0,0,.02,0,.08-.04.06-.04.08-.06.12-.09.04-.04.1-.1.1-.1Z"
    fill="#de6f10"
    stroke-width="0"
  /><path
    d="m18.25,23.83s.05-.04.04-.06c-.01-.01-.03-.01-.05,0-.02.02-.09.08-.12.11s-.05.04-.08.06c-.03.02-.09.06-.12.07-.03.02,0,.02,0,.02,0,0,.02-.01.05-.02.03,0,.1-.04.1-.04,0,0,.03-.01.07-.04.04-.03.1-.08.12-.11Z"
    fill="#de6f10"
    stroke-width="0"
  /><path
    d="m18.57,24.06s0-.03-.04-.02c-.03.01-.11.1-.16.13-.04.03-.08.04-.12.06-.04.02-.04.03-.04.04,0,0,.02,0,.03,0,.02,0,.07-.04.07-.04,0,0,.02,0,.04,0,.02,0,.05-.02.1-.06.05-.04.09-.06.11-.11Z"
    fill="#de6f10"
    stroke-width="0"
  /><path
    d="m18.72,24.35c-.06.03-.15.11-.18.16-.03.05-.04.09-.03.1,0,0,.04,0,.05-.03.01-.02.04-.05.04-.05,0,0,.1-.1.13-.12.04-.02.09-.09.11-.12.01-.04,0-.06,0-.06,0,0-.06.09-.12.12Z"
    fill="#de6f10"
    stroke-width="0"
  /><path
    d="m20.4,23.71c-.05-.03-.09-.06-.11-.09-.02-.03-.06-.04-.08-.07-.03-.03-.05-.06-.05-.06l-.03.02s.06.07.1.1c.04.04.06.06.12.09.06.04.08.04.08.04,0,0,.04.02.05.01.01,0-.01-.02-.06-.04Z"
    fill="#de6f10"
    stroke-width="0"
  /><path
    d="m20.18,24.03s-.09-.05-.12-.07c-.03-.02-.05-.04-.08-.06-.03-.03-.09-.09-.12-.11-.02-.02-.04-.02-.05,0-.01.01.01.03.04.06.02.03.08.08.12.11.04.03.07.04.07.04,0,0,.07.03.1.04.03,0,.05.02.05.02,0,0,.03,0,0-.02Z"
    fill="#de6f10"
    stroke-width="0"
  /><path
    d="m19.84,24.23s-.08-.03-.12-.06c-.04-.03-.12-.12-.16-.13-.03-.01-.06-.03-.04.02.02.04.06.07.11.11.05.04.08.06.1.06.02,0,.04,0,.04,0,0,0,.05.03.07.04.02,0,.03,0,.03,0,0,0,0-.02-.04-.04Z"
    fill="#de6f10"
    stroke-width="0"
  /><path
    d="m19.37,24.35c-.06-.03-.12-.12-.12-.12,0,0-.01.02,0,.06.01.04.07.1.11.12.04.02.13.12.13.12,0,0,.03.03.04.05.01.02.04.04.05.03,0,0,0-.04-.03-.1-.03-.05-.12-.13-.18-.16Z"
    fill="#de6f10"
    stroke-width="0"
  /><path
    d="m19.02,24.71s0,.14.03.14.02-.1.03-.14c0-.04,0-.13,0-.13h-.07s0,.09,0,.13Z"
    fill="#de6f10"
    stroke-width="0"
  /><path
    d="m20.52,19.09c-.06-.43.13-.78.13-.78l-.4-.45c-.34.17-.75.13-1.2-.03-.45.16-.86.2-1.2.03l-.4.45s.19.35.13.78c-.06.43-.16.92-.14,1.2,0,.02,0,.04,0,.06h.37s.02-.02.06-.04c.04-.02.05-.03.05-.03,0,0,0-.07.05-.09.04-.02.06-.02.08-.02s.03,0,.05-.03c.02-.02.08-.07.1-.15.03-.07.04-.1.04-.15s.02-.13.02-.13c0,0,0-.02-.05,0-.04.01-.04-.02-.05-.06,0-.04,0-.11.02-.15.02-.04.03-.05.03-.05l-.02-.06s-.23.05-.27-.13c-.04-.18-.05-.27-.05-.29,0-.02-.01-.03-.04-.03-.03,0-.1-.02-.14-.11-.05-.09-.05-.13-.04-.17.01-.04.04-.02.05-.01,0,.01.07.1.1.08.03-.03.01-.03-.02-.1-.03-.07-.02-.09-.02-.13,0-.03-.01-.08-.01-.1s.02-.03.04-.03c.02,0,.04.03.05.04,0,.01.01.03.03.02.02-.01,0-.08,0-.1s.03-.04.06-.02c.03.02.05.05.05.07s0,.04.01.04.03-.04.03-.06c0-.02.02-.06.04-.03.02.03.03.07.02.12,0,.04,0,.02,0,.1-.02.08-.02.11-.02.17,0,.06,0,.09.03.16.03.07.05.16.11.16.05,0,.07,0,.07,0,0,0,.06-.12.11-.14.05-.03.11-.03.16-.04.05,0,.07-.02.07-.03s-.02-.02-.07-.02c-.06,0-.1-.02-.1-.06,0-.04,0-.08-.03-.08-.04,0-.13-.03-.16-.09-.03-.06-.03-.07-.02-.11,0-.03.05-.1.07-.04.03.06.04.07.07.08.02.01.05.02.04-.03-.02-.04-.03-.07-.02-.1,0-.03.03-.04.05-.05.03,0,.1-.03.14-.04.04,0,.04-.01.04-.01,0,0,0-.03.05-.04.05-.02.08-.02.12-.02s.06,0,.11-.02c.05-.02.09-.03.12-.03.03,0,.05.01.08.03.02.02.02.04.02.06s0,.03.04.03.06,0,.09.01c.03.01.07.03.05.06-.03.03-.03.07-.05.07-.02,0-.02.02-.02.03,0,.01-.01.02,0,.03.02.01.02.02.05.05.03.03.07.05.03.09-.04.04-.11.07-.11.07,0,0-.04.02,0,.05.05.03.07.08.09.09.02,0,.03.03.05.03.01,0,0,.04,0,.04,0,0-.03.02-.06.03-.03.01-.07.03-.1.03s-.05,0-.04.03c.01.03.04.06.04.08,0,.02.01.05.01.05,0,0,.05.01.1.01s.07,0,.18,0c.11-.01.14-.02.24,0,.1.01.12,0,.15.02.03,0,.05.02.05.02,0,0,.15,0,.23-.02.08-.02.1-.07.09-.1-.01-.03,0-.07-.15-.09-.14-.02-.2-.01-.31-.03-.11-.02-.28-.08-.31-.22-.03-.14.08-.2.14-.22.06-.03.18-.07.23-.09.06-.02.16-.05.27-.03.11.02.17.04.21.02.04-.03.08,0,.07.03,0,.04-.05.12-.17.16-.12.04-.27.04-.35.02-.08-.02-.14-.05-.19-.04-.05.02-.1.08-.05.15.05.07.32.09.39.1.07,0,.34-.01.41.12.08.13.02.28-.07.31-.09.03-.17.05-.23.06h-.07s.03.08.03.11,0,.08.03.11c.03.02.08.04.14.03.06,0,.12.03.13.08,0,.05.02.12.03.22,0,.1,0,.19,0,.19,0,0,0,.04-.02.08-.01.04-.08.18-.08.18h.39s0-.04,0-.06c.02-.29-.08-.77-.14-1.2Z"
    fill="#005d95"
    stroke-width="0"
  /><path
    d="m17.48,20.54c.08.22.23.44.48.59.33.2.48.17.79.38.32.21.3.24.3.24s-.02-.03.3-.24c.32-.21.46-.18.79-.38.24-.15.4-.37.48-.59h-3.14Z"
    fill="#618d33"
    stroke-width="0"
  /><path
    d="m17.75,18.85s.06.05.12.04c.05,0,.07.03.08.08,0,.04,0,.15.05.24s.17.1.17.1c0-.05.02-.11.04-.16,0,0,.02-.05-.03-.05s-.05-.02-.07-.06c-.03-.05-.08-.17-.1-.24-.01-.08.01-.19.02-.23.01-.04.02-.07,0-.08-.02,0-.05,0-.05,0,0,0,.01.04,0,.04-.01,0-.02-.02-.03-.05,0-.03-.02-.02-.04-.02-.02,0-.02.02,0,.04.01.02,0,.05,0,.05,0,0-.04-.03-.06-.04-.02,0-.06,0-.06.03,0,.02.02.08.05.11s.04.09.02.12c-.01.03-.06.02-.08.01-.01-.01-.03-.02-.05,0-.02.02-.03.03,0,.06Z"
    fill="#e9b528"
    stroke-width="0"
  /><path
    d="m17.73,18.75s-.02-.02-.03-.03c0,0-.02-.03-.02-.03,0,0,0,0,0,.03s.02.05.02.05l.03-.02Z"
    fill="#e9b528"
    stroke-width="0"
  /><path
    d="m17.81,18.48s.03-.01.02-.03c-.01-.02-.02-.04-.04-.04-.01,0-.02,0-.02,0,0,0,.02.03.02.05,0,.02,0,.03.03.02Z"
    fill="#e9b528"
    stroke-width="0"
  /><path
    d="m17.91,18.4s0,.02.02.02c.02,0,.02-.03.01-.04s-.02-.03-.02-.03h-.01s0,.04,0,.05Z"
    fill="#e9b528"
    stroke-width="0"
  /><path
    d="m18.05,18.43s0-.04,0-.04c0,0,0,.02,0,.04,0,.01,0,0,0,.02,0,.01.01,0,.01-.02Z"
    fill="#e9b528"
    stroke-width="0"
  /><path
    d="m18.27,19.39c.03.06.1-.04.16-.12.06-.08.06-.02.05.05,0,.07.02.14.04.18.03.04.05.02.06-.01.01-.03.02-.1.04-.13.02-.03.04,0,.05.02,0,.03.04.09.07.13.03.04.05-.01.06-.06.01-.05.02-.11.03-.14,0-.03.04,0,.04,0,0,0,.02.02.06.06.04.04.05-.02.05-.06,0-.03,0-.1,0-.11.01-.01.05.02.1.04.06.03.05-.03.05-.06,0-.03-.04-.1-.08-.14-.04-.04-.05-.08-.04-.1.01-.02.07,0,.1,0,.03,0,.05,0,.08-.01.03,0,.03-.03.03-.03,0,0-.02-.03-.06-.06-.04-.03-.06-.06-.1-.07-.05-.01-.11,0-.11,0h0s-.02-.03-.03-.01c0,.01-.03.03-.05.05-.02.02-.03.02-.04.02s0-.02,0-.02c0,0,.02-.02.05-.06.02-.04.03-.08.01-.1-.02-.02-.06,0-.09,0s-.04,0-.04,0c0-.01.03,0,.06-.01.03,0,.05-.04.06-.08.01-.03.02-.03.04,0,.02.02.04.02.04,0,0-.01.02-.05.04-.08.02-.03.03-.08.01-.11-.02-.03-.08-.03-.1,0-.02.02-.04.04-.04.09,0,.05-.02.02-.02,0s-.02-.04-.01-.06c0-.02,0-.04,0-.04,0,0,0-.04-.05-.05-.04,0-.1,0-.14.01-.04.01-.04.05-.04.05,0,0-.03,0-.07,0-.04,0-.08.02-.11.03-.03,0-.05.01-.05.03s0,.05,0,.05c0,0,.03,0,.04,0,.01,0,0,.02-.01.03-.02,0-.02,0-.02.03s0,.03.03.03.05,0,.1.02c.04.02.05.06.05.08,0,.02-.06.05-.09.05s-.04,0-.04.03.04.02.04.02c0,0,.04,0,.11.01.07,0,.08.02.11.05.03.03,0,.03,0,.04-.01,0-.04.03-.06.04-.02,0-.04.03-.06.03-.02,0-.07,0-.17.04-.1.04-.13.17-.13.17,0,0,.01,0,.06-.03.04-.02.1-.05.15-.08.05-.03.05.02.03.06-.03.05.02.04.04.02.01-.01.03-.03.08-.05.05-.03.03.01.03.01,0,0-.01.03-.02.1,0,.07.07,0,.1-.04.03-.05.05,0,.02.05-.03.05-.07.09-.1.09s-.05-.03-.05-.05c0-.02,0-.07,0-.08-.02-.01-.07,0-.1.02-.04.02-.05,0-.05-.01,0-.02.01-.03,0-.04,0-.01-.03,0-.04,0-.01,0-.05.03-.12.06-.07.03-.06.05-.06.1s.01.06.04.12Z"
    fill="#e9b528"
    stroke-width="0"
  /><path
    d="m18.91,18.31s.04-.02.04-.02c0,0,.03,0,.06-.01.03,0,.02-.02.02-.03,0-.01-.02-.02-.06-.02s-.06.02-.08.03c-.02,0-.05.02-.05.02,0,0,0,0,.02.03.01.02.04.02.05.01Z"
    fill="#e9b528"
    stroke-width="0"
  /><path
    d="m19.07,18.47s.03,0,.03,0c0,0,.03-.01.05-.02.03,0,.04-.01.05-.04.02-.03-.02-.03-.06-.04-.04-.01-.07,0-.07.02,0,.02,0,.04-.02.07-.02.03,0,.03.02.03Z"
    fill="#e9b528"
    stroke-width="0"
  /><path
    d="m19.05,18.51s-.09.06-.11.08c-.02.01,0,.02,0,.02,0,0,.01.03.02.05,0,.03,0,.07,0,.07,0,0,0,0,.03,0s.04-.01.06-.03c.02-.02.04-.02.08-.03.03,0,.05-.01.09-.03.04-.02-.02-.06-.06-.09-.04-.03-.07-.04-.11-.04Z"
    fill="#e9b528"
    stroke-width="0"
  /><path
    d="m18.48,18.65s.05-.02.05-.04-.02-.04-.06-.04c-.11,0-.21-.03-.23-.13,0,0-.04.07.03.14.07.07.18.07.21.07Z"
    fill="#e9b528"
    stroke-width="0"
  /><path
    d="m18.12,20.33s.01.02.02.02h.16s.03-.03.03-.05c0-.02.02-.08.04-.19.02-.11.06-.19.08-.23.02-.04-.02-.06-.03-.09s-.03-.08-.03-.1c0-.02-.04-.02-.06-.02-.02,0-.02.04-.03.07,0,.03-.02.13-.03.21-.02.08-.11.19-.14.22-.03.02-.05.03-.06.03s-.06,0-.08.01c-.02.01-.04.04-.04.07,0,.02.04.04.04.04,0,0,.03-.02.04-.03.01-.01.04-.02.06-.02.03,0,.03,0,.02.02,0,.01,0,.02.01.05Z"
    fill="#e9b528"
    stroke-width="0"
  /><path
    d="m17.87,20.32s-.02.02-.03.03h.11s0-.02-.01-.03c-.01-.02-.05,0-.07,0Z"
    fill="#e9b528"
    stroke-width="0"
  /><path
    d="m18.01,20.32s-.03.02-.04.03h.11s0-.02,0-.04c-.03-.02-.05,0-.07,0Z"
    fill="#e9b528"
    stroke-width="0"
  /><path
    d="m19.01,20.27s-.02.01-.04.02c-.02.01-.02.03-.03.05,0,0,0,0,0,0h.05s0,0,0,0c0-.01,0-.03.03-.04.02-.02,0-.03-.01-.03Z"
    fill="#e9b528"
    stroke-width="0"
  /><path
    d="m19.1,20.32s0-.03-.02-.03c-.01,0-.03.02-.04.03,0,0-.01.01-.02.02h.07s0-.02,0-.02Z"
    fill="#e9b528"
    stroke-width="0"
  /><path
    d="m19.55,19.79s.03-.03.03-.06c0-.03,0-.03-.01-.04-.01,0-.07-.03-.11-.03s-.14.01-.17.03c-.03.02-.05.11-.05.15s0,.05.02.05.03-.03.03-.03c0,0,.05.06.07.1.03.04.02.06,0,.09-.01.03-.06.12-.09.13-.04.02-.06,0-.11,0-.04,0-.07,0-.09.03-.02.02,0,.04.01.04s.04,0,.05.02c.01.01,0,.05,0,.07h.21s.06-.07.07-.09c.01-.03.06-.07.08-.09.02-.02.02-.03.02-.08s-.01-.07-.03-.1c-.02-.03-.03-.08-.02-.1,0-.03.05-.06.09-.08Z"
    fill="#e9b528"
    stroke-width="0"
  /><path
    d="m19.2,19.27s.01.04-.02.05c-.03,0-.06.01-.11,0-.05,0-.05,0-.05.03,0,.02,0,.07-.03.11-.03.04-.06.02-.08,0-.02-.01-.03-.01-.04.02,0,.03-.02.05-.05.08-.02.04-.04.04-.05.04s-.03-.03-.05-.03c-.02,0-.04-.03-.06-.07-.02-.04-.04,0-.05.04-.02.03-.03.06-.06.05-.03,0-.06-.06-.08-.1-.02-.03-.03-.07-.05-.07-.03,0-.07.06-.1.07-.03.01-.04,0-.05,0-.01-.02-.03,0-.05.05-.02.04,0,.08.03.09.02.01.07-.02.1-.04.03-.02.05-.02.08-.02s.03.05.05.13c.01.08.06.09.06.09,0,0,.02.01.05-.05.04-.06.04-.12.07-.12s.04,0,.07.06c.03.05.06.08.08.05.02-.04.04-.09.06-.11.02-.02.04-.02.02.01-.02.03-.03.07.01.06.05-.01.24-.09.31-.1,0,0,.09-.01.19-.02.1,0,.13-.01.17-.01s.04,0,.04-.03c0-.03-.02-.02-.09-.02s-.13,0-.18.02c-.05,0-.08,0-.07,0,0-.01.02-.02.08-.03.06,0,.18-.02.24-.02.06,0,.04.02.04.06,0,.04,0,.1,0,.14,0,.04,0,.05.04.11.03.06.15.09.19.11.03.02.03,0,.03-.03,0-.03.03-.03.06-.01.03.02.08.03.12.04.04,0,.04.02.04.03s0,.06,0,.1c0,.04,0,.05-.01.07-.02.02-.08.09-.08.09,0,0-.03,0-.1.02-.06.02-.08.05-.09.07,0,.03.01.03.01.04,0,0,0,.02,0,.03h.02s.01-.02.02-.03c.02-.03.08-.04.12-.02.02.01.02.04.02.05h.15s.07-.13.08-.16c.02-.04.03-.06.03-.11,0-.05,0-.24,0-.25,0-.01,0-.04,0-.1,0-.05,0-.09-.1-.1-.1,0-.13-.05-.16-.08-.03-.03-.03-.11-.05-.2-.03-.09-.09-.11-.21-.13-.12-.02-.2-.03-.29-.02-.09,0-.19.02-.25.01-.06,0-.05.01-.03.05Z"
    fill="#e9b528"
    stroke-width="0"
  /><path
    d="m19.75,20.33s-.02.01-.02.02h.1s0-.02,0-.03c-.02-.02-.04,0-.07,0Z"
    fill="#e9b528"
    stroke-width="0"
  /><path
    d="m19.93,20.32s-.03.02-.03.03h.1s0,0,0-.01c0-.02-.03-.03-.07-.02Z"
    fill="#e9b528"
    stroke-width="0"
  /><path
    d="m17.44,20.38s.01.06.02.1h3.18s.02-.06.02-.1h-3.22Z"
    fill="#e9b528"
    stroke-width="0"
  /><path
    d="m19.58,18.87c.1.07.42.07.57.1.15.03.14.14.09.2-.05.06-.26.07-.29.07.02.01.05.06.05.06,0,0,.02,0,.09,0,.06,0,.17-.02.25-.08.08-.06.07-.17,0-.23-.07-.07-.18-.08-.29-.09s-.2-.02-.33-.04c-.13-.02-.19-.07-.19-.15s.07-.11.12-.13c.05-.01.13-.04.2,0,.07.03.15.03.29.01.14-.02.17-.11.17-.11,0,0-.02,0-.09.01-.07,0-.12-.03-.25-.03-.13,0-.17.04-.23.07-.06.02-.22.04-.27.14-.05.1,0,.15.11.22Z"
    fill="#e9b528"
    stroke-width="0"
  /><path
    d="m18.74,18.33s-.06.03-.06.06.03.06.06.06.06-.03.06-.06-.03-.06-.06-.06Z"
    fill="#de6f10"
    stroke-width="0"
  /><path
    d="m20.03,18.49c-.08,0-.18.01-.18.01,0,0,.02.02.05.01.03,0,.07,0,.15.01.08.01.13-.02.13-.02,0,0-.07,0-.15-.02Z"
    fill="#de6f10"
    stroke-width="0"
  /><path
    d="m22.58,22.05c.06.01.59.11.63.12.04,0,.08.02.09,0,.01-.01.02-.02.07-.04.05-.02.04-.06.04-.06,0,0,.01-.04.02-.09,0-.04.03-.06.08,0,.05.05.06.13.07.21,0,.08.13.1.18.1.05,0,.07,0,.1-.05.03-.04.04-.13.05-.19,0-.06,0-.05-.06-.07-.06-.01-.33-.08-.38-.09-.05-.01-.04-.04-.03-.08,0-.03.11-.38.11-.38-.08-.05-.18-.08-.31-.09,0,0-.08.35-.09.41-.01.05-.05.05-.11.04-.06,0-.46-.1-.46-.1l-.03.08c-.03.08-.05.17-.05.21s.02.04.08.06Z"
    fill="#e9b528"
    stroke-width="0"
  /><path
    d="m23.97,22.37c-.05-.04-.09-.04-.12.02-.03.07-.03.16-.1.23-.07.07-.17.14-.27.13-.1,0-.15-.03-.13-.14.02-.11.17-.15.21-.21.04-.06.03-.13-.03-.17-.05-.04-.13-.05-.15-.04-.02.01-.08.07-.11.15-.03.08-.05.15-.11.21-.07.05-.23.11-.37.08-.13-.03-.18-.07-.23-.2-.05-.13-.11-.34-.13-.37-.03-.02-.06-.04-.11,0-.06.04-.06.1-.07.15,0,.05,0,.1.06.17.06.07.11.14.14.21.02.07.08.18,0,.18-.09,0-.13,0-.2-.06-.07-.07-.33-.25-.41-.31-.07-.06-.1-.08-.1-.08-.12,0-.25-.05-.37-.14,0,0,.07.18.08.25.01.07.01.11.01.11,0,0,.27.14.37.19.11.05.32.17.42.24.1.06.19.16.37.12.18-.04.55-.15.67-.19.12-.04.45-.12.57-.2.12-.08.13-.08.15-.16.02-.08,0-.13-.05-.17Z"
    fill="#e9b528"
    stroke-width="0"
  /><path
    d="m23.26,21.1s.03,0,.09-.01c.06,0,.04.05.03.07-.01.02-.03.07-.06.11-.03.04,0,.05.03.06.02,0,.04,0,.09.02.05.01.04-.02.04-.04,0-.02,0-.12,0-.15,0-.04.04-.03.05-.02.01,0,.04.02.07.04.03.01.04,0,.04-.02,0-.01.02-.04.03-.08s-.01-.03-.04-.03-.06,0-.1,0c-.04,0-.01-.04-.01-.04,0,0,.03-.05.05-.09.02-.04.01-.04,0-.05-.02,0-.09-.02-.12-.03-.02,0-.03,0-.03.01s0,.08,0,.11,0,.04-.04.04c-.04,0-.06-.02-.09-.05-.03-.03-.04-.02-.04,0,0,.01-.03.1-.03.13,0,.02,0,.02.03.02Z"
    fill="#e9b528"
    stroke-width="0"
  /><path
    d="m21.23,22.1s.06-.04.12-.04.16-.03.19-.05c.03-.02.09-.03.15-.06.06-.03.02-.04-.04-.06-.07-.02-.24-.09-.24-.09,0,0-.09.05-.13.07-.05.03-.11.07-.22.08-.1.01-.14.02-.14.02,0,0,.02.03.06.08.04.06.06.09.11.18.05.08,0,.03-.05-.02-.02-.03-.08-.1-.12-.15-.04-.04-.08-.06-.08-.06l-.03.07v.02s-.02.14-.03.18c0,.05.01.05.05.06.04.02.11.06.3.18.19.12.27.2.27.2,0,0,0-.05,0-.11s0-.16-.04-.28c-.04-.12-.09-.2-.13-.24Z"
    fill="#e9b528"
    stroke-width="0"
  /><path
    d="m20.77,21.83s.06.02.13.02.09-.02.16-.02.11-.02.22-.08c.11-.06,0-.04-.07-.03-.08,0-.27-.02-.36-.06-.08-.03-.02-.04,0-.03.02,0,.03.01.2.04.17.03.23,0,.32-.03.09-.02-.02-.03-.02-.03,0,0-.31-.09-.46-.26-.12-.13-.16-.25-.17-.3-.06.07-.13.13-.2.19,0,.02.02.06.03.1.03.06.1.13.1.13,0,0-.09-.04-.13-.08-.03-.03-.05-.08-.07-.1-.1.07-.2.13-.3.17.01,0,.03.02.04.04.04.04.08.08.13.17.05.08,0,.08-.04,0-.05-.08-.17-.16-.19-.17,0,0,0,0,0,0-.01,0-.02.01-.04.02-.06.03-.13.06-.18.08.04.03.13.12.16.17.03.05.11.1.13.13.03.03.05.07.09.11.03.04.24.27.3.36.05.09.02-.02,0-.08-.01-.06-.03-.14-.05-.21-.02-.07.02-.04.03,0,0,.04.02.04.03.11.02.07.06.18.08.25.02.07.03.04.04,0,.02-.03.05-.09.06-.13.01-.04.02-.12.02-.24,0-.13-.06-.18-.06-.19s.03-.03.08-.03Z"
    fill="#e9b528"
    stroke-width="0"
  /><path
    d="m21.66,22.1s-.08.03-.11.03c-.03,0-.05,0-.05,0,0,0,.06.08.14.08h.25s-.15-.09-.17-.11c-.02-.02-.05-.02-.07-.01Z"
    fill="#e9b528"
    stroke-width="0"
  /><path
    d="m23.46,21.99s0,.07,0,.1c0,.02-.02.06,0,.07.03,0,.06.02.07.02.02,0,0-.04,0-.07,0-.03-.02-.07-.05-.09l-.02-.02Z"
    fill="#e9b528"
    stroke-width="0"
  /><path
    d="m23.89,22.28s.03.03.04.03c.01,0,.03,0,.03-.02s0-.06-.02-.09c-.02-.03-.03-.05-.05,0-.01.04-.02.07-.01.09Z"
    fill="#e9b528"
    stroke-width="0"
  /><path
    d="m22.39,21.99s.06.02.06.02c0,0,0-.07,0-.12,0-.05.03-.08.01-.08s-.03.01-.04.03c-.01.02-.05.02-.06.08-.01.06,0,.06.02.06Z"
    fill="#e9b528"
    stroke-width="0"
  /><path
    d="m16.46,20.06s-.11.05-.11.05c0,0-.03,0-.03.01s.04,0,.07,0c.04,0,.09-.04.11-.06.02-.01.05-.03.04-.05,0-.02-.02.02-.07.06Z"
    fill="#de6f10"
    stroke-width="0"
  /><path
    d="m16.89,20.28s-.09.07-.09.07c0,0-.03.02-.05.03-.03.01-.03.03-.03.03,0,0,0,0,.03,0,.03,0,.11-.07.14-.09s.04-.03.03-.04c-.01-.01-.02,0-.03,0Z"
    fill="#de6f10"
    stroke-width="0"
  /><path
    d="m15.17,17.24s.03.04.04.04c0,0,0-.02-.02-.04-.02-.02-.03-.04-.03-.04,0,0-.03-.05-.05-.06-.02-.02-.04-.03-.01.01.03.04.05.07.07.09Z"
    fill="#de6f10"
    stroke-width="0"
  /><path
    d="m15.04,17.52s.04.03.06.05c.02.02.04.05.05.03s-.03-.04-.05-.06c-.02-.02-.03-.04-.06-.06-.02-.02-.05-.03-.05-.03,0,0,.04.05.06.06Z"
    fill="#de6f10"
    stroke-width="0"
  /><path
    d="m15.09,17.99s.08.04.09.03c0-.01,0-.02-.03-.04-.03-.01-.07-.04-.09-.06-.02-.02-.04-.03-.06-.05-.02-.02-.03-.03-.04-.02,0,0,.04.06.06.07.02,0,.04.03.07.07Z"
    fill="#de6f10"
    stroke-width="0"
  /><path
    d="m15.18,18.35s0-.02-.02-.02c-.03,0-.06,0-.06,0,0,0-.05-.02-.06-.01,0,.01.04.03.06.03.02,0,.05.01.06.02.01,0,.02,0,.02-.01Z"
    fill="#de6f10"
    stroke-width="0"
  /><path
    d="m15.22,18.75c-.06,0-.11-.01-.11,0,0,0,.03.02.06.03.03.01.08.01.12.02.04,0,.04,0,.04-.03,0-.02-.05-.02-.11-.02Z"
    fill="#de6f10"
    stroke-width="0"
  /><path
    d="m15.68,19.19s-.03,0-.06,0c-.03,0-.08.02-.12.02-.03,0-.1,0-.1,0,0,0-.04,0-.04,0s.05,0,.12.02c.07,0,.12,0,.15-.01.03,0,.05-.02.04-.03Z"
    fill="#de6f10"
    stroke-width="0"
  /><path
    d="m15.86,19.51s-.06.02-.09.02-.09.01-.09.01c0,0-.03,0-.03.02,0,.01.02,0,.04,0,.03,0,.05,0,.1,0,.05,0,.07-.01.1-.02.03,0,.06-.02.05-.04-.02-.02-.05,0-.08.02Z"
    fill="#de6f10"
    stroke-width="0"
  /><path
    d="m16.23,19.74s-.1.07-.1.07c0,0-.02.01-.05.03-.03.02-.03.02-.02.03,0,0,.02-.01.04-.02.02,0,.07-.04.1-.07.03-.02.07-.04.06-.06,0-.02-.01,0-.03.02Z"
    fill="#de6f10"
    stroke-width="0"
  /><path
    d="m15.62,16.68s0,.02.07.09c.06.08.03,0,.01-.02-.02-.02-.11-.15-.14-.19-.03-.04-.04-.02-.02,0,.02.02.08.1.08.1Z"
    fill="#de6f10"
    stroke-width="0"
  /><path
    d="m15.49,17.09s-.01-.02-.05-.06c-.04-.04-.11-.14-.11-.14,0,0-.02-.04-.03-.04,0,0,.02.07.05.1.03.03.07.09.09.11.02.02.03.04.04.03Z"
    fill="#de6f10"
    stroke-width="0"
  /><path
    d="m15.66,17.84s-.07-.02-.1-.03c-.03,0-.09-.02-.09-.02,0,0-.07-.01-.07,0,0,0,.01.02.05.02.04,0,.09.02.13.03.04,0,.08.02.08,0Z"
    fill="#de6f10"
    stroke-width="0"
  /><path
    d="m15.49,17.43s.08.06.1.07c.02.01.04.03.06.02.01-.02-.01-.03-.05-.04-.04-.02-.06-.03-.06-.03,0,0-.02-.01-.04-.02-.02-.01-.05-.02,0,.01Z"
    fill="#de6f10"
    stroke-width="0"
  /><path
    d="m15.89,17.16s-.05-.04-.05-.04c0,0-.04-.03-.04-.02,0,.01.04.04.06.06.02.02.06.08.08.07.02-.01-.02-.05-.05-.07Z"
    fill="#de6f10"
    stroke-width="0"
  /><path
    d="m15.63,18.22s-.04.01-.06.02c-.03,0-.03.02.02.02s.06-.01.11-.02c.05,0,.06-.01.05-.03,0-.02-.03-.01-.05,0-.02,0-.07.02-.07.02Z"
    fill="#de6f10"
    stroke-width="0"
  /><path
    d="m15.7,18.6s.03,0,.06,0c.02,0,.07-.03.1-.04.03,0,.03-.01.03-.03s-.03,0-.07,0c-.04.01-.08.05-.08.05,0,0-.03.02-.03.02Z"
    fill="#de6f10"
    stroke-width="0"
  /><path
    d="m16.19,18.83s.04-.04.03-.05c-.01-.01-.02,0-.05.01-.03.02-.08.06-.08.06,0,0-.03.01-.05.02-.02.01-.05.03-.04.04,0,.01.05,0,.07-.02.02-.02.08-.05.12-.07Z"
    fill="#de6f10"
    stroke-width="0"
  /><path
    d="m16.42,19.13s.05-.03.07-.04c.02-.01.03-.05.02-.06-.02,0-.02.02-.06.04-.03.02-.14.1-.14.1,0,0,0,0-.03.01-.03.01-.02.02,0,.02.03,0,.04,0,.07-.03.03-.02.04-.03.06-.04Z"
    fill="#de6f10"
    stroke-width="0"
  /><path
    d="m16.77,19.42s.07-.05.09-.07c.02-.02.05-.04.03-.05-.02-.01-.03,0-.06.03-.02.02-.09.09-.09.09,0,0,0,0-.04.03-.03.03,0,.02.01.01.01-.01.02-.02.05-.03Z"
    fill="#de6f10"
    stroke-width="0"
  /><path
    d="m21.74,20.11s-.06-.02-.11-.05c-.05-.04-.06-.08-.07-.06s.02.04.04.05c.02.01.07.05.11.06.04,0,.07.02.07,0s-.03-.01-.03-.01Z"
    fill="#de6f10"
    stroke-width="0"
  /><path
    d="m21.35,20.38s-.05-.03-.05-.03c0,0-.08-.06-.09-.07-.01-.01-.02-.02-.03,0-.01.01,0,.02.03.04.03.02.11.08.14.09.03,0,.03,0,.03,0,0,0,0-.02-.03-.03Z"
    fill="#de6f10"
    stroke-width="0"
  /><path
    d="m22.92,17.24s.04-.05.07-.09c.03-.04,0-.03-.01-.01-.02.02-.05.06-.05.06,0,0-.01.01-.03.04-.02.02-.03.03-.02.04,0,0,.03-.02.04-.04Z"
    fill="#de6f10"
    stroke-width="0"
  /><path
    d="m22.95,17.61s.03-.01.05-.03c.02-.02.04-.04.06-.05.02-.02.06-.06.06-.06,0,0-.03.02-.05.03-.02.02-.04.03-.06.06-.02.02-.06.05-.05.06Z"
    fill="#de6f10"
    stroke-width="0"
  /><path
    d="m23.14,17.85s-.02,0-.04.02-.04.03-.06.05c-.02.02-.07.04-.09.06s-.04.02-.03.04c0,.01.05,0,.09-.03.03-.03.06-.06.07-.07.02,0,.07-.06.06-.07Z"
    fill="#de6f10"
    stroke-width="0"
  /><path
    d="m23,18.32s-.04,0-.06,0c-.03,0-.02,0-.02.02s.01.02.02.01c.01,0,.04-.01.06-.02.02,0,.07-.02.06-.03,0-.01-.06.01-.06.01Z"
    fill="#de6f10"
    stroke-width="0"
  /><path
    d="m22.87,18.75c-.06,0-.11,0-.11.02,0,.02,0,.03.04.03.04,0,.09,0,.12-.02.03-.01.06-.02.06-.03,0,0-.05,0-.11,0Z"
    fill="#de6f10"
    stroke-width="0"
  /><path
    d="m22.69,19.21s-.07,0-.1,0c-.03,0-.08,0-.12-.02-.03,0-.05-.01-.06,0,0,0,0,.02.04.03.03,0,.08.02.15.01.07,0,.12,0,.12-.02s-.04,0-.04,0Z"
    fill="#de6f10"
    stroke-width="0"
  /><path
    d="m22.41,19.53s-.06-.01-.09-.01-.05,0-.09-.02c-.04-.01-.07-.04-.08-.02-.02.02.02.03.05.04.03,0,.06.02.1.02.05,0,.07,0,.09,0,.03,0,.04.02.04,0,0-.01-.03-.02-.03-.02Z"
    fill="#de6f10"
    stroke-width="0"
  /><path
    d="m22.01,19.84s-.05-.03-.05-.03c0,0-.08-.05-.1-.07-.02-.02-.03-.03-.03-.02,0,.02.03.04.06.06.03.02.08.06.1.07.02,0,.04.03.04.02,0,0,0-.02-.02-.03Z"
    fill="#de6f10"
    stroke-width="0"
  /><path
    d="m22.4,16.78c.06-.08.07-.09.07-.09,0,0,.06-.08.08-.1.02-.02.01-.04-.02,0-.03.04-.12.17-.14.19-.02.02-.05.09.01.02Z"
    fill="#de6f10"
    stroke-width="0"
  /><path
    d="m22.78,16.85s-.03.04-.03.04c0,0-.07.09-.11.14-.04.04-.06.05-.05.06,0,0,.02,0,.04-.03.02-.02.06-.08.09-.11.03-.03.06-.1.05-.1Z"
    fill="#de6f10"
    stroke-width="0"
  /><path
    d="m22.43,17.84s.03.01.08,0c.04,0,.1-.02.14-.03.04,0,.05-.02.05-.02,0,0-.07,0-.07,0,0,0-.06.01-.09.02-.03,0-.1,0-.1.03Z"
    fill="#de6f10"
    stroke-width="0"
  /><path
    d="m22.6,17.42s-.04.02-.04.02c0,0-.02.02-.06.03-.04.02-.06.03-.05.04.01.02.03,0,.06-.02.02-.01.06-.03.1-.07.05-.04.01-.02,0-.01Z"
    fill="#de6f10"
    stroke-width="0"
  /><path
    d="m22.15,17.24s.06-.05.08-.07c.02-.02.07-.05.06-.06s-.04.02-.04.02c0,0-.02.01-.05.04-.03.02-.07.06-.05.07Z"
    fill="#de6f10"
    stroke-width="0"
  /><path
    d="m22.4,18.23s.06.02.11.02.04-.01.02-.02c-.03,0-.06-.02-.06-.02,0,0-.05-.01-.07-.02-.02,0-.04-.01-.05,0,0,.02,0,.02.05.03Z"
    fill="#de6f10"
    stroke-width="0"
  /><path
    d="m22.36,18.57s-.05-.04-.08-.05c-.04-.01-.07-.03-.07,0s0,.02.03.03c.03,0,.08.03.1.04.02,0,.06.02.06,0,0,0-.03-.02-.03-.02Z"
    fill="#de6f10"
    stroke-width="0"
  /><path
    d="m22.05,18.88s-.05-.02-.05-.02c0,0-.05-.04-.08-.06-.03-.02-.04-.02-.05-.01-.01.01,0,.03.03.05.03.02.09.05.12.07.02.02.06.03.07.02,0-.01-.02-.03-.04-.04Z"
    fill="#de6f10"
    stroke-width="0"
  /><path
    d="m21.81,19.18s-.03-.01-.03-.01c0,0-.11-.07-.14-.1-.03-.02-.04-.05-.06-.04-.02,0,0,.05.02.06.02.01.06.03.07.04.01.01.03.02.06.04.03.02.05.02.07.03.03,0,.04,0,0-.02Z"
    fill="#de6f10"
    stroke-width="0"
  /><path
    d="m21.39,19.44s-.04-.03-.04-.03c0,0-.06-.07-.09-.09-.02-.02-.04-.04-.06-.03-.02.01.01.04.03.05.02.02.06.06.09.07.03.01.04.02.05.03s.05.02.01-.01Z"
    fill="#de6f10"
    stroke-width="0"
  /><path
    d="m19.04,15.33c-.23,0-.5-.03-.65-.08-.05.01-.11.02-.16.04.25.09.45.13.81.13.36,0,.56-.04.81-.13-.05-.01-.11-.02-.16-.04-.15.06-.42.09-.65.08Z"
    fill="#e9b528"
    stroke-width="0"
  /><path
    d="m19.89,15.14s-.12-.09-.15-.1c-.03-.01,0-.05,0-.07,0-.02.12-.05.19-.07.07-.02.05-.03.05-.03,0,0-.04-.04-.28-.07-.24-.03-.66-.02-.66-.02,0,0-.42,0-.66.02s-.28.07-.28.07c0,0-.01.01.05.03.07.02.18.05.19.07,0,.02.03.05,0,.07-.03.01-.13.09-.15.1-.02.02-.02.04,0,.04.03,0,.03,0,.11-.02.24-.05.48-.06.72-.07.24,0,.47.02.72.07.08.02.08.02.11.02.03,0,.03-.03,0-.04Z"
    fill="#e9b528"
    stroke-width="0"
  /><path
    d="m18.14,14.93l-.1.08.13.06.14-.1-.16-.04Z"
    fill="#e9b528"
    stroke-width="0"
  /><path
    d="m19.95,14.93l-.16.04.14.1.13-.06-.1-.08Z"
    fill="#e9b528"
    stroke-width="0"
  /><path
    d="m19.61,15.24c-.16-.02-.27-.04-.57-.04-.3,0-.41.02-.57.04.1.04.27.06.57.06s.47-.02.57-.06Z"
    fill="#e9b528"
    stroke-width="0"
  /><path
    d="m19.28,19.97s-.02-.03-.05,0c-.02.02-.04-.05-.05-.09,0-.04.02-.17.02-.17,0,0-.11.02-.17.04-.06.02-.11.03-.16.04-.05.01-.07.02-.1.02-.02,0-.08,0-.12,0s-.04,0-.08.05c-.04.04-.05.06-.09.14-.03.08-.04.15-.06.24,0,.06-.02.1-.03.13h.5s.01-.04.02-.05c.01-.03.04-.05.06-.06.02,0,.04,0,.05-.03,0-.02.03-.04.06-.05.03-.01.07,0,.11,0,.04.01.06-.02.07-.03.01-.02.02-.04.04-.07.02-.03,0-.05,0-.05,0,0-.02-.01-.04-.04Z"
    fill="#005d95"
    stroke-width="0"
  /><path
    d="m20.07,19.98s0-.03-.02-.04c-.02,0-.05,0-.07-.02-.02-.01-.02.06-.02.06,0,0-.06,0-.13,0-.07,0-.14-.07-.17-.09-.03-.02-.06-.06-.06-.06,0,0-.02.02-.04.03-.02.01-.03.05-.04.1,0,.04.05.09.05.13,0,.04-.05.13-.07.16-.02.02-.04.07-.05.1h.24s.01-.03.03-.04c.02-.02.07-.03.07-.03,0,0,0-.01,0-.03,0-.02.03-.05.09-.07.06-.02.13-.03.13-.03,0,0,.03-.02.05-.06.02-.03,0-.08,0-.11Z"
    fill="#005d95"
    stroke-width="0"
  /><path
    d="m19,13h.12s-.01-.12-.01-.12l.13.02v-.11s-.13.01-.13.01l.02-.12h-.15s.03.12.03.12h-.14s0,.09,0,.09l.13-.02v.12Z"
    fill="#e9b528"
    stroke-width="0"
  /><path
    d="m19.27,13.18h-.17v-.14s-.03,0-.05,0c-.01,0-.03,0-.04,0v.14h-.17s0,.04,0,.06c0,0,0,.02,0,.02h.45s0-.02,0-.02c0-.02,0-.04,0-.06Z"
    fill="#e9b528"
    stroke-width="0"
  /><path
    d="m19.05,13.44c.1,0,.18-.06.21-.14h-.43c.03.08.11.14.21.14Z"
    fill="#005d95"
    stroke-width="0"
  /><path
    d="m19.14,13.05v.1h.11s-.06-.08-.11-.1Z"
    fill="#005d95"
    stroke-width="0"
  /><path
    d="m18.96,13.05s-.09.05-.11.1h.11v-.1Z"
    fill="#005d95"
    stroke-width="0"
  /><path
    d="m19.18,14.87s-.13-.06-.13-.06c0,0-.09.04-.13.07-.05.02-.04.02-.06.05-.01.03,0,.05.02.06.02,0,.17.09.17.09,0,0,.15-.07.18-.09.04-.02.03-.03.02-.06-.01-.03-.03-.04-.07-.06Z"
    fill="#de6f10"
    stroke-width="0"
  /><path
    d="m19.49,14.83c.07,0,.13.06.13.13s-.06.13-.13.13-.13-.06-.13-.13.06-.13.13-.13Z"
    fill="#de6f10"
    stroke-width="0"
  /><path
    d="m18.6,14.83c.07,0,.13.06.13.13s-.06.13-.13.13-.13-.06-.13-.13.06-.13.13-.13Z"
    fill="#de6f10"
    stroke-width="0"
  /><path
    d="m18.9,14.91l.15.08.15-.08-.15-.07-.14.07Z"
    fill="#e9b528"
    stroke-width="0"
  /><path
    d="m19.49,14.85s-.08.03-.08.08.04.08.08.08.08-.03.08-.08-.04-.08-.08-.08Z"
    fill="#e9b528"
    stroke-width="0"
  /><path
    d="m18.6,14.85s-.08.03-.08.08.04.08.08.08.08-.03.08-.08-.04-.08-.08-.08Z"
    fill="#e9b528"
    stroke-width="0"
  /><path
    d="m18.33,14.52s.08,0,.08,0c0,0,.01-.06-.02-.09-.03-.03-.06-.05-.08-.07s-.02-.03-.02-.03c0,0,0,.05,0,.08s.01.08.05.09Z"
    fill="#e9b528"
    stroke-width="0"
  /><path
    d="m18.4,14.56s-.02.01-.02.02.01.02.02.02.02-.01.02-.02-.01-.02-.02-.02Z"
    fill="#e9b528"
    stroke-width="0"
  /><path
    d="m18.22,14.56s-.03.04-.03.04c0,0,.03,0,.05.02.02.02.05.03.08.03.03,0,.04-.03.03-.05,0-.02-.02-.04-.06-.05-.04-.02-.05,0-.06.02Z"
    fill="#e9b528"
    stroke-width="0"
  /><path
    d="m18.31,14.71c-.08,0-.19-.08-.19-.08-.01.07-.06.11-.13.13h0s.06.04.14.05c.03,0,.07,0,.1,0,.04,0,.1-.02.12-.04.05-.03.03-.11.03-.11,0,0,0,.06-.09.07Z"
    fill="#e9b528"
    stroke-width="0"
  /><path
    d="m17.99,14.63s-.08-.04-.11-.04c-.02,0-.05,0-.05.03s.05.06.08.06c.04,0,.06-.01.08-.03.02-.01.02-.02-.01-.03Z"
    fill="#e9b528"
    stroke-width="0"
  /><path
    d="m17.73,14.49s-.07-.03-.07-.03c0,0-.02.06-.01.1.01.04.04.05.08.05.03,0,.09-.02.07-.05-.01-.03-.03-.05-.07-.07Z"
    fill="#e9b528"
    stroke-width="0"
  /><path
    d="m17.76,14.65s.03,0,.03.02-.01.02-.03.02-.03,0-.03-.02.01-.02.03-.02Z"
    fill="#e9b528"
    stroke-width="0"
  /><path
    d="m17.84,14.35c-.02-.11-.02-.23.08-.38.1-.15.28-.21.28-.21,0,0,0-.01.06-.07.06-.06.17-.14.17-.14,0,0-.14.03-.21.06,0,0,0,0,0,0,0,.05-.04.09-.09.09-.02,0-.04,0-.05-.02-.04,0-.18.09-.22.12,0,.01.01.03.01.05,0,.05-.04.09-.09.09-.02,0-.03,0-.04-.01,0,0,0,.01-.01.02-.03.05-.05.1-.07.15.02.02.04.05.04.08,0,.05-.04.09-.08.09,0,.03,0,.05,0,.06,0,.03.02.05.07.07.05.02.13.11.13.11,0,0,.04-.07.02-.18Z"
    fill="#e9b528"
    stroke-width="0"
  /><path
    d="m18.17,13.65s.02-.04,0-.05c-.02-.01-.04-.01-.06,0-.02.02-.02.04,0,.05.02.01.04.01.06,0Z"
    fill="#e9b528"
    stroke-width="0"
  /><path
    d="m17.82,13.89s.03-.05,0-.07c-.02-.02-.05-.02-.07,0-.02.02-.03.05,0,.07.02.02.05.02.07,0Z"
    fill="#e9b528"
    stroke-width="0"
  /><path
    d="m17.67,14.18s-.02-.05-.05-.05-.05.02-.05.05.02.05.05.05.05-.02.05-.05Z"
    fill="#e9b528"
    stroke-width="0"
  /><path
    d="m18.77,13.44s-.08.02-.16.06h0c.05,0,.09.03.09.08s-.05.09-.1.09-.09-.05-.09-.09c0-.01,0-.02,0-.03-.02.01-.05.03-.07.05-.17.11-.21.17-.29.33-.08.16-.11.33-.08.43.04.1.17.12.17.12,0,0-.02-.02-.02-.03,0-.02,0-.03,0-.07,0-.04,0-.08,0-.08,0,0,.03,0,.05.02.02.02.04.05.06.07.02.02.06.06.06.06,0,0,.03-.04.03-.08s-.03-.1-.04-.18c0-.08.04-.22.11-.33.08-.1.23-.2.27-.22.04-.02.05-.05.05-.07,0-.02,0-.03,0-.08,0-.05-.04-.05-.08-.04Z"
    fill="#e9b528"
    stroke-width="0"
  /><path
    d="m18.6,13.62s.06-.03.06-.05-.02-.04-.05-.04-.05.02-.05.04.02.05.05.05Z"
    fill="#e9b528"
    stroke-width="0"
  /><path
    d="m18.86,14.62s.09,0,.11,0c.02-.01.03-.05,0-.07-.03-.02-.06-.02-.09,0-.02.01-.08.05-.08.05,0,0,.01.02.05.04Z"
    fill="#e9b528"
    stroke-width="0"
  /><path
    d="m18.99,14.67s-.03.04-.07.04c-.05,0-.09,0-.12-.03-.03-.03-.05-.07-.05-.07h-.05s-.02.07-.04.09c-.02.02-.1.02-.14,0-.03-.03-.07-.06-.07-.05,0,0,0,.03.04.06.04.03.06.05.12.05h.33s.07,0,.09-.04c.02-.04.02-.06.01-.07,0,0-.01,0-.03.03Z"
    fill="#e9b528"
    stroke-width="0"
  /><path
    d="m18.49,14.61s.08.01.09-.01c.02-.02.02-.03.02-.03,0,0-.05-.02-.07-.03-.02-.01-.04-.03-.06-.02-.02,0-.03,0-.03,0,0,0,0,.06.04.09Z"
    fill="#e9b528"
    stroke-width="0"
  /><path
    d="m19.12,14.54s-.02.06,0,.07c.02.01.07.02.11,0,.04-.02.05-.04.05-.04,0,0-.05-.04-.08-.05-.02-.01-.06-.01-.09,0Z"
    fill="#e9b528"
    stroke-width="0"
  /><path
    d="m19.58,14.69s-.11.02-.14,0c-.02-.02-.04-.09-.04-.09h-.05s-.02.04-.05.07c-.03.03-.08.03-.12.03-.05,0-.06-.02-.07-.04-.01-.02-.02-.04-.03-.03,0,0,0,.03.01.07.02.04.08.04.08.04h.33c.06,0,.08-.02.12-.05.04-.03.04-.06.04-.06,0,0-.04.03-.07.05Z"
    fill="#e9b528"
    stroke-width="0"
  /><path
    d="m19.55,14.54s-.07.03-.07.03c0,0,0,.01.02.03.02.02.05.04.09.01.05-.03.04-.09.04-.09,0,0,0,0-.03,0-.02,0-.04.01-.06.02Z"
    fill="#e9b528"
    stroke-width="0"
  /><path
    d="m19.81,14.43s0-.08,0-.08c0,0,0,0-.02.03-.02.02-.05.04-.08.07-.03.03-.02.09-.02.09,0,0,.04,0,.08,0,.03-.01.05-.06.05-.09Z"
    fill="#e9b528"
    stroke-width="0"
  /><path
    d="m19.72,14.58s-.01-.02-.02-.02-.02.01-.02.02.01.02.02.02.02-.01.02-.02Z"
    fill="#e9b528"
    stroke-width="0"
  /><path
    d="m19.78,14.64s.05-.01.08-.03c.02-.02.05-.02.05-.02,0,0-.02-.02-.03-.04-.01-.01-.02-.03-.06-.02-.04.02-.06.03-.06.05,0,.02,0,.04.03.05Z"
    fill="#e9b528"
    stroke-width="0"
  /><path
    d="m19.97,14.63s-.11.09-.19.08c-.08,0-.09-.07-.09-.07,0,0-.01.08.03.11.03.02.08.03.12.04.04,0,.07.01.1,0,.08-.01.14-.04.14-.04h0c-.07-.02-.11-.06-.13-.13Z"
    fill="#e9b528"
    stroke-width="0"
  /><path
    d="m20.21,14.59s-.07.03-.11.04c-.03.01-.04.02-.01.03.02.01.04.03.08.03.04,0,.08-.02.08-.06s-.03-.03-.05-.03Z"
    fill="#e9b528"
    stroke-width="0"
  /><path
    d="m20.36,14.49s-.05.05-.07.07c-.01.03.04.04.07.05.03,0,.06,0,.08-.05.01-.04-.01-.1-.01-.1,0,0-.03,0-.07.03Z"
    fill="#e9b528"
    stroke-width="0"
  /><path
    d="m20.33,14.65s-.03,0-.03.02.01.02.03.02.03,0,.03-.02-.01-.02-.03-.02Z"
    fill="#e9b528"
    stroke-width="0"
  /><path
    d="m20.38,14.2s.02-.07.04-.08c-.02-.05-.04-.1-.07-.15,0,0,0-.01-.01-.02-.01,0-.03.01-.04.01-.05,0-.09-.04-.09-.09,0-.02,0-.04.01-.05-.04-.03-.17-.11-.22-.12-.02.01-.03.02-.05.02-.05,0-.09-.04-.09-.09,0,0,0,0,0,0-.08-.02-.21-.06-.21-.06,0,0,.12.08.17.14.06.06.06.07.06.07,0,0,.18.06.28.21.1.15.11.27.08.38-.03.11.01.18.02.18,0,0,.07-.09.13-.11.05-.02.06-.03.07-.07,0,0,0-.03,0-.06-.04,0-.08-.04-.08-.09Z"
    fill="#e9b528"
    stroke-width="0"
  /><path
    d="m19.92,13.65s.05.02.06,0c.02-.01.01-.04,0-.05-.02-.02-.05-.02-.06,0-.02.01-.01.04,0,.05Z"
    fill="#e9b528"
    stroke-width="0"
  /><path
    d="m20.26,13.89s.05.02.07,0c.02-.02.01-.05,0-.07-.02-.02-.05-.02-.07,0-.02.02-.01.05,0,.07Z"
    fill="#e9b528"
    stroke-width="0"
  /><path
    d="m20.47,14.13s-.05.02-.05.05.02.05.05.05.05-.02.05-.05-.02-.05-.05-.05Z"
    fill="#e9b528"
    stroke-width="0"
  /><path
    d="m19.24,13.56s0,.05.05.07c.04.02.19.12.27.22.08.1.12.25.11.33,0,.08-.04.13-.04.18s.03.08.03.08c0,0,.05-.04.06-.06.02-.02.04-.05.06-.07.02-.02.05-.02.05-.02,0,0,0,.05,0,.08,0,.04.01.05,0,.07,0,.02-.02.03-.02.03s.14-.02.17-.12c.04-.1,0-.27-.08-.43-.08-.16-.12-.21-.29-.33-.03-.02-.05-.03-.07-.05,0,0,0,.02,0,.03,0,.04-.04.09-.09.09s-.1-.05-.1-.09.04-.08.1-.08h0c-.08-.04-.13-.06-.16-.06-.04,0-.09-.01-.08.04,0,.05,0,.06,0,.08Z"
    fill="#e9b528"
    stroke-width="0"
  /><path
    d="m19.04,14.34s-.01.05-.03.07c-.02.02-.03.04-.02.07,0,.03.04.04.05.04s.05-.02.05-.04c0-.03,0-.05-.02-.07-.02-.02-.03-.07-.03-.07Z"
    fill="#e9b528"
    stroke-width="0"
  /><path
    d="m19.05,14.55s-.03.01-.03.03.01.03.03.03.03-.01.03-.03-.01-.03-.03-.03Z"
    fill="#e9b528"
    stroke-width="0"
  /><path
    d="m18.95,14.44s.05-.05.07-.09c.02-.03.03-.06.03-.06,0,0,.01.03.03.06.02.03.07.09.07.09,0,0,.07-.04.11-.16.04-.13,0-.27-.03-.41-.02-.15-.03-.4-.03-.4-.05.03-.1.04-.15.04-.05,0-.09-.01-.15-.04,0,0-.01.25-.03.4-.02.15-.07.28-.03.41.04.13.11.16.11.16Z"
    fill="#e9b528"
    stroke-width="0"
  /><path
    d="m19.43,13.57s.03.05.06.05.05-.03.05-.05-.02-.04-.05-.04-.05.02-.05.04Z"
    fill="#e9b528"
    stroke-width="0"
  /><path
    d="m18.25,14.02c.06,0,.11.05.11.11s-.05.11-.11.11-.11-.05-.11-.11.05-.11.11-.11Z"
    fill="#de6f10"
    stroke-width="0"
  /><path
    d="m18.44,13.75s-.11-.02-.14.03c-.04.04-.03.1.01.13.04.03.11.02.14-.03.04-.04.03-.1-.01-.13Z"
    fill="#de6f10"
    stroke-width="0"
  /><path
    d="m18.25,14.05s-.06.03-.06.06.03.06.06.06.06-.03.06-.06-.03-.06-.06-.06Z"
    fill="#e9b528"
    stroke-width="0"
  /><path
    d="m18.4,13.77s-.06,0-.08.03c-.01.02,0,.05.04.06.07.01.1-.07.04-.09Z"
    fill="#e9b528"
    stroke-width="0"
  /><path
    d="m19.04,14.03c-.06,0-.12.05-.12.11s.05.11.12.11.12-.05.12-.11-.05-.11-.12-.11Z"
    fill="#de6f10"
    stroke-width="0"
  /><path
    d="m19.04,13.77c.06,0,.11.05.11.11s-.05.11-.11.11-.11-.05-.11-.11.05-.11.11-.11Z"
    fill="#de6f10"
    stroke-width="0"
  /><path
    d="m19.04,13.53c.06,0,.11.05.11.1s-.05.1-.11.1-.11-.05-.11-.1.05-.1.11-.1Z"
    fill="#de6f10"
    stroke-width="0"
  /><path
    d="m19.83,14.02c-.06,0-.11.05-.11.11s.05.11.11.11.11-.05.11-.11-.05-.11-.11-.11Z"
    fill="#de6f10"
    stroke-width="0"
  /><path
    d="m19.79,13.78s-.1-.06-.14-.03c-.04.03-.05.09-.02.13.04.04.1.06.14.03.04-.03.05-.09.02-.13Z"
    fill="#de6f10"
    stroke-width="0"
  /><path
    d="m19.84,14.05s-.06.03-.06.06.03.06.06.06.06-.03.06-.06-.03-.06-.06-.06Z"
    fill="#e9b528"
    stroke-width="0"
  /><path
    d="m19.69,13.77c-.06.02-.03.1.04.09.04,0,.05-.03.04-.06-.01-.02-.05-.04-.08-.03Z"
    fill="#e9b528"
    stroke-width="0"
  /><path
    d="m19.04,14.07s-.06.03-.06.06.03.06.06.06.06-.03.06-.06-.03-.06-.06-.06Z"
    fill="#e9b528"
    stroke-width="0"
  /><path
    d="m19.04,13.92s.06-.03.06-.06-.03-.06-.06-.06-.06.03-.06.06.03.06.06.06Z"
    fill="#e9b528"
    stroke-width="0"
  /><path
    d="m19.04,13.66s.05-.02.05-.05-.02-.05-.05-.05-.05.02-.05.05.02.05.05.05Z"
    fill="#e9b528"
    stroke-width="0"
  /><path
    d="m22.68,21.78c-.05,0-.1.04-.1.1s.04.1.1.1.1-.04.1-.1-.04-.1-.1-.1Z"
    fill="#de6f10"
    stroke-width="0"
  /><path
    d="m22.95,21.84c-.05,0-.1.04-.1.1s.04.1.1.1.1-.04.1-.1-.04-.1-.1-.1Z"
    fill="#de6f10"
    stroke-width="0"
  /><path
    d="m23.73,22.01c-.05,0-.1.04-.1.1s.04.1.1.1.1-.04.1-.1-.04-.1-.1-.1Z"
    fill="#de6f10"
    stroke-width="0"
  /><path
    d="m23.22,21.9c-.05,0-.1.04-.1.1s.04.1.1.1.1-.04.1-.1-.04-.1-.1-.1Z"
    fill="#de6f10"
    stroke-width="0"
  /><path
    d="m23.29,21.67c-.05,0-.1.04-.1.1s.04.1.1.1.1-.04.1-.1-.04-.1-.1-.1Z"
    fill="#de6f10"
    stroke-width="0"
  /><path
    d="m23.36,21.44c-.05,0-.1.04-.1.1s.04.1.1.1.1-.04.1-.1-.04-.1-.1-.1Z"
    fill="#de6f10"
    stroke-width="0"
  /><path
    d="m22.69,21.82s.05.02.05.05-.02.05-.05.05-.05-.02-.05-.05.02-.05.05-.05Z"
    fill="#e9b528"
    stroke-width="0"
  /><path
    d="m22.96,21.88s-.05.02-.05.05.02.05.05.05.05-.02.05-.05c0-.03-.02-.05-.05-.05Z"
    fill="#e9b528"
    stroke-width="0"
  /><path
    d="m23.74,22.05s-.05.02-.05.05.02.05.05.05.05-.02.05-.05-.02-.05-.05-.05Z"
    fill="#e9b528"
    stroke-width="0"
  /><path
    d="m23.23,21.94s-.05.02-.05.05.02.05.05.05.05-.02.05-.05-.02-.05-.05-.05Z"
    fill="#e9b528"
    stroke-width="0"
  /><path
    d="m23.3,21.71s-.05.02-.05.05.02.05.05.05.05-.02.05-.05-.02-.05-.05-.05Z"
    fill="#e9b528"
    stroke-width="0"
  /><path
    d="m23.37,21.47s-.05.02-.05.05.02.05.05.05.05-.02.05-.05-.02-.05-.05-.05Z"
    fill="#e9b528"
    stroke-width="0"
  /></svg>
