<svg
  width="40"
  height="40"
  viewBox="0 0 40 40"
  fill="none"
  xmlns="http://www.w3.org/2000/svg"
>
<g clip-path="url(#clip0_17507_12727)">
<path d="M1 7.49902H39V32.499H1V7.49902Z" fill="#D82126" />
<path
      d="M1 22.499V17.499L39 22.499V17.499L1 22.499ZM18.1 7.49902H21.9L20 17.3205L18.1 7.49902ZM21.9 32.499H18.1L20 22.6776L21.9 32.499ZM1 7.49902H6.7L21.7453 21.3776L1 7.49902ZM1 32.499H6.7L21.7453 18.6205L1 32.499ZM39 7.49902H33.3L18.2547 21.3776L39 7.49902ZM39 32.499H33.3L18.2547 18.6205L39 32.499Z"
      fill="#F8E92E"
    />
</g>
<path
    d="M19.9998 23.3921C21.8736 23.3921 23.3926 21.8731 23.3926 19.9993C23.3926 18.1255 21.8736 16.6064 19.9998 16.6064C18.126 16.6064 16.6069 18.1255 16.6069 19.9993C16.6069 21.8731 18.126 23.3921 19.9998 23.3921Z"
    fill="#D82126"
  />
<path
    d="M19.9999 22.7137C21.499 22.7137 22.7142 21.4985 22.7142 19.9994C22.7142 18.5004 21.499 17.2852 19.9999 17.2852C18.5009 17.2852 17.2856 18.5004 17.2856 19.9994C17.2856 21.4985 18.5009 22.7137 19.9999 22.7137Z"
    fill="#F8E92E"
  />
<defs>
<clipPath id="clip0_17507_12727">
<rect width="38" height="25" fill="white" transform="translate(1 7.5)" />
</clipPath>
</defs>
</svg>
