<svg
  width="40"
  height="40"
  viewBox="0 0 40 40"
  fill="none"
  xmlns="http://www.w3.org/2000/svg"
>
<g clip-path="url(#clip0_8438_86048)">
<path d="M38.7999 0.716309H0.850098V38.6185H38.7999V0.716309Z" fill="white" />
<path
      d="M38.837 17.2977V22.0341C31.0619 22.0341 23.2842 22.0341 15.5091 22.0262C15.1732 22.0262 15.086 22.1056 15.0886 22.4441C15.0992 27.8337 15.0965 33.226 15.0965 38.6157H10.3495C10.3495 33.2128 10.3469 27.8126 10.3575 22.4097C10.3575 22.1029 10.286 22.0236 9.97663 22.0262C6.93536 22.0394 3.89409 22.0341 0.855469 22.0341V17.2977C3.90732 17.2977 6.96181 17.2924 10.0137 17.3056C10.2913 17.3056 10.3601 17.2395 10.3601 16.9618C10.3495 13.6455 10.3522 10.3266 10.3548 7.01026C10.3548 4.9131 10.3601 2.81859 10.3627 0.721436C11.9389 0.721436 13.5177 0.721436 15.0939 0.721436C15.0965 0.869532 15.1018 1.01763 15.1018 1.16573C15.1018 6.40729 15.1071 11.6489 15.0939 16.8904C15.0939 17.2342 15.1891 17.3056 15.517 17.3056C23.2921 17.295 31.0672 17.2977 38.8422 17.2977H38.837Z"
      fill="#00205B"
    />
<path
      d="M38.8372 24.1074C38.8372 28.8412 38.8346 33.5723 38.8452 38.3062C38.8452 38.5838 38.7764 38.6235 38.5172 38.6235C31.4033 38.6156 24.2867 38.6182 17.1728 38.6182C17.1675 38.5944 17.1622 38.568 17.1543 38.5442C17.1569 38.3961 17.1649 38.248 17.1649 38.0999C17.1649 33.575 17.1702 29.0528 17.1569 24.5279C17.1569 24.1656 17.2495 24.0915 17.6012 24.0915C24.5062 24.1021 31.4112 24.0994 38.3189 24.0994C38.467 24.0994 38.6151 24.0942 38.7632 24.0889C38.7896 24.0942 38.8134 24.0994 38.8399 24.1074H38.8372Z"
      fill="#BA0C2F"
    />
<path
      d="M38.8369 15.2984C38.8105 15.2799 38.7867 15.2614 38.7603 15.2429C38.7867 15.2376 38.8105 15.2323 38.8369 15.2244V15.2984Z"
      fill="#ECC7CE"
    />
<path
      d="M38.7603 24.0917C38.7867 24.0732 38.8105 24.0546 38.8369 24.0361V24.1102C38.8105 24.1049 38.7867 24.0996 38.7603 24.0917Z"
      fill="#ECC7CE"
    />
<path
      d="M8.28658 38.5417L8.34211 38.6184H8.26807C8.27336 38.592 8.27864 38.5682 8.28658 38.5417Z"
      fill="#ECC7CE"
    />
<path
      d="M8.27071 38.6183C5.8853 38.6183 3.49724 38.6156 1.11183 38.6235C0.889684 38.6235 0.844727 38.5786 0.844727 38.3591C0.85266 33.6094 0.850016 28.8597 0.850016 24.1101C0.876462 24.1048 0.900263 24.0995 0.926709 24.0916C3.24865 24.0942 5.56795 24.1074 7.88989 24.0916C8.2284 24.0916 8.28923 24.1868 8.28658 24.4988C8.27336 26.6912 8.27865 28.8835 8.27865 31.0759C8.27865 33.5645 8.28394 36.053 8.28923 38.5389C8.28394 38.5654 8.27865 38.5892 8.27071 38.6156V38.6183Z"
      fill="#BA0C2F"
    />
<path
      d="M38.8372 0.716064V15.2243C38.8108 15.2295 38.787 15.2348 38.7605 15.2428C38.6124 15.2401 38.4643 15.2322 38.3162 15.2322C31.398 15.2322 24.4798 15.2295 17.5616 15.2401C17.2442 15.2401 17.1543 15.1767 17.1543 14.8434C17.1675 10.2471 17.1622 5.64821 17.1649 1.05193C17.1649 0.940854 17.1728 0.829782 17.1781 0.718709C24.3978 0.718709 31.6175 0.718709 38.8372 0.718709V0.716064Z"
      fill="#BA0C2F"
    />
<path
      d="M0.850016 15.2243V0.716064C3.3227 0.716064 5.79274 0.716064 8.26542 0.718709C8.27071 0.866806 8.276 1.0149 8.276 1.163C8.276 5.6535 8.276 10.144 8.276 14.6345C8.276 14.7826 8.28658 14.9307 8.28923 15.0762C8.28658 15.1872 8.2284 15.2428 8.11733 15.2481C5.71869 15.2481 3.32006 15.2454 0.921419 15.2428C0.894974 15.2375 0.871172 15.2322 0.844727 15.2243H0.850016Z"
      fill="#BA0C2F"
    />
</g>
<defs>
<clipPath id="clip0_8438_86048">
<rect
        width="38"
        height="37.9075"
        fill="white"
        transform="translate(0.844727 0.716309)"
      />
</clipPath>
</defs>
</svg>
