<?xml version="1.0" encoding="UTF-8" ?>
<svg
  id="a"
  xmlns="http://www.w3.org/2000/svg"
  xmlns:xlink="http://www.w3.org/1999/xlink"
  viewBox="0 0 44 44"
><defs><filter id="b" filterUnits="userSpaceOnUse"><feOffset
        dx=".67"
        dy=".67"
      /><feGaussianBlur result="c" stdDeviation="2.51" /><feFlood
        flood-color="#000"
        flood-opacity=".25"
      /><feComposite in2="c" operator="in" /><feComposite
        in="SourceGraphic"
      /></filter><clipPath id="d"><rect
        x="3"
        y="3"
        width="38"
        height="38"
        fill="none"
        stroke-width="0"
      /></clipPath></defs><g filter="url(#b)"><g clip-path="url(#d)"><path
        d="m3,3h38v38H3V3Z"
        fill="#fff"
        fill-rule="evenodd"
        stroke-width="0"
      /><path
        d="m3,3h38v25.33H3V3Z"
        fill="#0c4076"
        fill-rule="evenodd"
        stroke-width="0"
      /><path
        d="m3,3h38v12.67H3V3Z"
        fill="#c6363c"
        fill-rule="evenodd"
        stroke-width="0"
      /></g><path
      d="m16.57,11.83c.35,0,.63-.28.63-.63s-.28-.63-.63-.63-.63.28-.63.63.28.63.63.63Z"
      fill="#0c4076"
      fill-rule="evenodd"
      stroke="#21231e"
      stroke-width=".04"
    /><path
      d="m16.68,9.83s.06-.01.08-.03c.02-.02.03-.05.03-.08s-.01-.06-.03-.08c-.02-.02-.05-.03-.08-.03,0-.03-.01-.06-.03-.08-.02-.02-.05-.03-.08-.03s-.06.01-.08.03c-.02.02-.03.05-.03.08-.03,0-.06.01-.08.03-.02.02-.03.05-.03.08s.01.06.03.08c.02.02.05.03.08.03v.24h-.2s-.01-.06-.03-.08c-.02-.02-.05-.03-.08-.03s-.06.01-.08.03c-.02.02-.03.05-.03.08-.03,0-.06.01-.08.03-.02.02-.03.05-.03.08s.01.06.03.08c.02.02.05.03.08.03,0,.03.01.06.03.08.02.02.05.03.08.03s.06-.01.08-.03c.02-.02.03-.05.03-.08h.2v.8h.22v-.8h.2s.01.06.03.08c.02.02.05.03.08.03s.06-.01.08-.03c.02-.02.03-.05.03-.08.03,0,.06-.01.08-.03.02-.02.03-.05.03-.08s-.01-.06-.03-.08c-.02-.02-.05-.03-.08-.03,0-.03-.01-.06-.03-.08-.02-.02-.05-.03-.08-.03s-.06.01-.08.03c-.02.02-.03.05-.03.08h-.2v-.24Z"
      fill="#edb92e"
      fill-rule="evenodd"
      stroke="#21231e"
      stroke-linejoin="round"
      stroke-width=".04"
    /><path
      d="m16.68,10.58c-.07-.01-.15-.01-.22,0v.63h.22v-.63Z"
      fill="#edb92e"
      fill-rule="evenodd"
      stroke="#21231e"
      stroke-linejoin="round"
      stroke-width=".04"
    /><path
      d="m17.19,11.09c.01.07.01.15,0,.22-.41-.02-.83-.02-1.24,0-.01-.07-.01-.15,0-.22.41-.02.83-.02,1.24,0Z"
      fill="#edb92e"
      fill-rule="evenodd"
      stroke="#21231e"
      stroke-linejoin="round"
      stroke-width=".04"
    /><path
      d="m20.31,16.46c.15-.3.28-.52.41-.67-.42.32-.64.25-.67-.22-.4.54-.73.49-1-.15-.47.67-.85.64-1.15-.07-.49.62-.94.59-1.33-.07-.39.67-.84.69-1.33.07-.3.72-.68.74-1.15.07-.27.64-.61.69-1,.15-.02.47-.25.54-.67.22.12.15.26.37.41.67h7.48Z"
      fill="#edb92e"
      fill-rule="evenodd"
      stroke="#21231e"
      stroke-linejoin="round"
      stroke-width=".04"
    /><path
      d="m12.83,16.49l.22,1.15h7.04l.22-1.15-3.74-.19-3.74.19Z"
      fill="#edb92e"
      fill-rule="evenodd"
      stroke="#21231e"
      stroke-linejoin="round"
      stroke-width=".04"
    /><path
      d="m20.68,15.41c-.26.67-.48.67-.52.07.04-.04.03-.14.1-.1.03.02.09-.04.05-.07-.07-.06-.15-.05-.22.02-.02-.11-.09-.15-.19-.11-.04.01-.04.09,0,.09.07,0,.06.06.07.1-.49.62-.7.53-.63-.26l-.37-.07c-.42.84-.74.88-.96.11.04-.04.04-.13.11-.1.04.01.07-.05.03-.09-.09-.07-.18-.04-.25.04-.04-.11-.14-.14-.24-.07-.04.03-.01.11.03.1.09-.02.05.09.1.13-.19.74-1.15.78-.98-.3h-.48c.17,1.07-.8,1.04-.98.3.06-.04.01-.15.1-.13.04.01.07-.07.03-.1-.1-.07-.21-.04-.24.07-.07-.07-.16-.11-.25-.04-.04.04,0,.1.03.09.07-.03.07.06.11.1-.22.77-.54.73-.96-.11l-.37.07c.07.79-.14.88-.63.26.02-.04,0-.1.07-.1.04,0,.04-.07,0-.09-.09-.04-.17,0-.19.11-.07-.07-.16-.08-.22-.02-.03.03.02.1.05.07.07-.04.06.06.1.1-.04.59-.26.59-.52-.07l-.15.04c0,.15.06.33.15.44.37.44.67.37.69-.19.5.59.91.52.98-.11.41.81,1.11.41,1.13-.07.2.7,1.24.7,1.31-.11.07.81,1.11.81,1.31.11.02.48.72.89,1.13.07.07.63.48.7.98.11.02.56.31.63.69.19.09-.11.15-.3.15-.44l-.15-.04Z"
      fill="#edb92e"
      fill-rule="evenodd"
      stroke="#21231e"
      stroke-linejoin="round"
      stroke-width=".04"
    /><path
      d="m12.83,16.59c-.19.02-.19-.17,0-.19,2.49-.25,4.99-.25,7.48,0,.19.02.19.2,0,.19-2.49-.25-4.99-.25-7.48,0Z"
      fill="#edb92e"
      fill-rule="evenodd"
      stroke="#21231e"
      stroke-linejoin="round"
      stroke-width=".04"
    /><path
      d="m16.2,14.07l-.26-.33c.07-.72.07-1.37,0-1.96-.05-.17,0-.22.15-.15.32.16.64.16.96,0,.15-.07.2-.02.15.15-.07.59-.07,1.25,0,1.96l-.26.33h-.74Z"
      fill="#edb92e"
      fill-rule="evenodd"
      stroke="#21231e"
      stroke-linejoin="round"
      stroke-width=".04"
    /><path
      d="m17.42,16.91l-.85.43-.85-.43.85-.43.85.43Z"
      fill="#edb92e"
      fill-rule="evenodd"
      stroke="#21231e"
      stroke-linecap="round"
      stroke-width=".04"
    /><path
      d="m20.26,12.58l1.02.48.11.44-.4.63.04.52h.33l.55-1.48-.7-.59-1.61-.56.66.56Z"
      fill="#edb92e"
      fill-rule="evenodd"
      stroke="#21231e"
      stroke-linejoin="round"
      stroke-width=".04"
    /><path
      d="m21.06,14.6c.02-.06.04-.12.05-.17.02-.1.01-.2-.02-.3.11-.16.23-.33.32-.49.06-.12.11-.25.07-.39-.04-.15-.16-.25-.28-.33-.14-.11-.32-.2-.5-.28-.41-.17-.73-.26-.97-.26l.15.14c.44.14.97.34,1.22.53.33.25.32.31-.15.99-.01.02-.05.08-.04.1.02.05.06.27,0,.43.04.08.1.04.16.04h0Z"
      fill="#edb92e"
      fill-rule="evenodd"
      stroke="#21231e"
      stroke-linejoin="round"
      stroke-width=".04"
    /><path
      d="m17.98,14.17c-.13,0-.1.22-.07.27.03.07.06.07.1,0,.03-.05.09-.27-.03-.28Z"
      fill="#edb92e"
      fill-rule="evenodd"
      stroke="#21231e"
      stroke-linejoin="round"
      stroke-width=".04"
    /><path
      d="m20.36,14.49c-.12-.04-.14.19-.13.24.02.07.04.08.1.03.04-.04.15-.24.03-.28Z"
      fill="#edb92e"
      fill-rule="evenodd"
      stroke="#21231e"
      stroke-linejoin="round"
      stroke-width=".04"
    /><path
      d="m19.79,12.29c.13,0,.24-.11.24-.24s-.11-.24-.24-.24-.24.11-.24.24.11.24.24.24Z"
      fill="#fff"
      fill-rule="evenodd"
      stroke="#21231e"
      stroke-linejoin="round"
      stroke-width=".04"
    /><path
      d="m20.24,12.44c.13,0,.24-.11.24-.24s-.11-.24-.24-.24-.24.11-.24.24.11.24.24.24Z"
      fill="#fff"
      fill-rule="evenodd"
      stroke="#21231e"
      stroke-linejoin="round"
      stroke-width=".04"
    /><path
      d="m20.68,12.59c.13,0,.24-.11.24-.24s-.11-.24-.24-.24-.24.11-.24.24.11.24.24.24Z"
      fill="#fff"
      fill-rule="evenodd"
      stroke="#21231e"
      stroke-linejoin="round"
      stroke-width=".04"
    /><path
      d="m21.13,12.79c.13,0,.24-.11.24-.24s-.11-.24-.24-.24-.24.11-.24.24.11.24.24.24Z"
      fill="#fff"
      fill-rule="evenodd"
      stroke="#21231e"
      stroke-linejoin="round"
      stroke-width=".04"
    /><path
      d="m21.54,13.03c.13,0,.24-.11.24-.24s-.11-.24-.24-.24-.24.11-.24.24.11.24.24.24Z"
      fill="#fff"
      fill-rule="evenodd"
      stroke="#21231e"
      stroke-linejoin="round"
      stroke-width=".04"
    /><path
      d="m21.35,14.7c.13,0,.24-.11.24-.24s-.11-.24-.24-.24-.24.11-.24.24.11.24.24.24Z"
      fill="#fff"
      fill-rule="evenodd"
      stroke="#21231e"
      stroke-linejoin="round"
      stroke-width=".04"
    /><path
      d="m21.57,14.29c.13,0,.24-.11.24-.24s-.11-.24-.24-.24-.24.11-.24.24.11.24.24.24Z"
      fill="#fff"
      fill-rule="evenodd"
      stroke="#21231e"
      stroke-linejoin="round"
      stroke-width=".04"
    /><path
      d="m21.76,13.88c.13,0,.24-.11.24-.24s-.11-.24-.24-.24-.24.11-.24.24.11.24.24.24Z"
      fill="#fff"
      fill-rule="evenodd"
      stroke="#21231e"
      stroke-linejoin="round"
      stroke-width=".04"
    /><path
      d="m21.83,13.4c.13,0,.24-.11.24-.24s-.11-.24-.24-.24-.24.11-.24.24.11.24.24.24Z"
      fill="#fff"
      fill-rule="evenodd"
      stroke="#21231e"
      stroke-linejoin="round"
      stroke-width=".04"
    /><path
      d="m17.46,17.32c.07,0,.12-.05.12-.12s-.05-.12-.12-.12-.12.05-.12.12.05.12.12.12Z"
      fill="#fff"
      fill-rule="evenodd"
      stroke="#21231e"
      stroke-linejoin="round"
      stroke-width=".04"
    /><path
      d="m19.28,17.43c.07,0,.12-.05.12-.12s-.05-.12-.12-.12-.12.05-.12.12.05.12.12.12Z"
      fill="#fff"
      fill-rule="evenodd"
      stroke="#21231e"
      stroke-linejoin="round"
      stroke-width=".04"
    /><path
      d="m19.35,16.88c.07,0,.12-.05.12-.12s-.05-.12-.12-.12-.12.05-.12.12.05.12.12.12Z"
      fill="#fff"
      fill-rule="evenodd"
      stroke="#21231e"
      stroke-linejoin="round"
      stroke-width=".04"
    /><path
      d="m17.5,16.77c.07,0,.12-.05.12-.12s-.05-.12-.12-.12-.12.05-.12.12.05.12.12.12Z"
      fill="#fff"
      fill-rule="evenodd"
      stroke="#21231e"
      stroke-linejoin="round"
      stroke-width=".04"
    /><path
      d="m18.05,14.94c.07-.11.21-.63-.08-.65-.3-.02-.22.52-.17.63.07.15.15.16.25.02Z"
      fill="#fff"
      fill-rule="evenodd"
      stroke="#21231e"
      stroke-linejoin="round"
      stroke-width=".04"
    /><path
      d="m20.02,15.19c.04.17.1.19.23.07.1-.09.36-.55.07-.64-.29-.09-.34.44-.31.57Z"
      fill="#fff"
      fill-rule="evenodd"
      stroke="#21231e"
      stroke-linejoin="round"
      stroke-width=".04"
    /><path
      d="m17.16,11.87l1.3.04.81.26.22.52-.59,1.15.26.74.78-.67.37-1.37-1-.85-2.11-.15-.04.33Z"
      fill="#edb92e"
      fill-rule="evenodd"
      stroke="#21231e"
      stroke-linejoin="round"
      stroke-width=".04"
    /><path
      d="m17.23,11.79c.64-.06,1.29,0,1.94.27.54.22.49.85-.17,1.74.06.11.09.25.1.41-.07,0-.12,0-.18,0,.05-.11,0-.24-.07-.33-.04-.06-.05-.05,0-.12.4-.56.66-1.04.5-1.34-.19-.36-.91-.54-2.14-.52,0-.03,0-.07,0-.1,0,0,0,0,.01-.01Z"
      fill="#edb92e"
      fill-rule="evenodd"
      stroke="#21231e"
      stroke-linejoin="round"
      stroke-width=".04"
    /><path
      d="m19.82,12.02s-.05.06-.07.09c.36.2.51.41.47.62,0,.04-.12.42-.36,1.17-.17.12-.29.22-.37.31,0,.01-.03.04-.02.05-.02.11.1.09.19.06.04-.11.17-.23.24-.28.01-.01.07-.04.07-.05.13-.42.26-.81.37-1.17.11-.36-.13-.62-.53-.8h0Z"
      fill="#edb92e"
      fill-rule="evenodd"
      stroke="#21231e"
      stroke-linejoin="round"
      stroke-width=".04"
    /><path
      d="m17.39,11.74c.13,0,.24-.11.24-.24s-.11-.24-.24-.24-.24.11-.24.24.11.24.24.24Z"
      fill="#fff"
      fill-rule="evenodd"
      stroke="#21231e"
      stroke-linejoin="round"
      stroke-width=".04"
    /><path
      d="m17.85,11.74c.13,0,.24-.11.24-.24s-.11-.24-.24-.24-.24.11-.24.24.11.24.24.24Z"
      fill="#fff"
      fill-rule="evenodd"
      stroke="#21231e"
      stroke-linejoin="round"
      stroke-width=".04"
    /><path
      d="m18.31,11.79c.13,0,.24-.11.24-.24s-.11-.24-.24-.24-.24.11-.24.24.11.24.24.24Z"
      fill="#fff"
      fill-rule="evenodd"
      stroke="#21231e"
      stroke-linejoin="round"
      stroke-width=".04"
    /><path
      d="m18.76,11.88c.13,0,.24-.11.24-.24s-.11-.24-.24-.24-.24.11-.24.24.11.24.24.24Z"
      fill="#fff"
      fill-rule="evenodd"
      stroke="#21231e"
      stroke-linejoin="round"
      stroke-width=".04"
    /><path
      d="m19.2,12.03c.13,0,.24-.11.24-.24s-.11-.24-.24-.24-.24.11-.24.24.11.24.24.24Z"
      fill="#fff"
      fill-rule="evenodd"
      stroke="#21231e"
      stroke-linejoin="round"
      stroke-width=".04"
    /><path
      d="m19.61,12.22c.13,0,.24-.11.24-.24s-.11-.24-.24-.24-.24.11-.24.24.11.24.24.24Z"
      fill="#fff"
      fill-rule="evenodd"
      stroke="#21231e"
      stroke-linejoin="round"
      stroke-width=".04"
    /><path
      d="m19.87,12.51c.13,0,.24-.11.24-.24s-.11-.24-.24-.24-.24.11-.24.24.11.24.24.24Z"
      fill="#fff"
      fill-rule="evenodd"
      stroke="#21231e"
      stroke-linejoin="round"
      stroke-width=".04"
    /><path
      d="m19.39,14.22c.13,0,.24-.11.24-.24s-.11-.24-.24-.24-.24.11-.24.24.11.24.24.24Z"
      fill="#fff"
      fill-rule="evenodd"
      stroke="#21231e"
      stroke-linejoin="round"
      stroke-width=".04"
    /><path
      d="m19.57,13.81c.13,0,.24-.11.24-.24s-.11-.24-.24-.24-.24.11-.24.24.11.24.24.24Z"
      fill="#fff"
      fill-rule="evenodd"
      stroke="#21231e"
      stroke-linejoin="round"
      stroke-width=".04"
    /><path
      d="m19.76,13.4c.13,0,.24-.11.24-.24s-.11-.24-.24-.24-.24.11-.24.24.11.24.24.24Z"
      fill="#fff"
      fill-rule="evenodd"
      stroke="#21231e"
      stroke-linejoin="round"
      stroke-width=".04"
    /><path
      d="m19.9,12.96c.13,0,.24-.11.24-.24s-.11-.24-.24-.24-.24.11-.24.24.11.24.24.24Z"
      fill="#fff"
      fill-rule="evenodd"
      stroke="#21231e"
      stroke-linejoin="round"
      stroke-width=".04"
    /><path
      d="m21.16,14.72v.07c.12.02.2.03.28.02-.12-.12-.21-.15-.28-.09Z"
      fill="#edb92e"
      fill-rule="evenodd"
      stroke="#21231e"
      stroke-linejoin="round"
      stroke-width=".04"
    /><path
      d="m21.2,14.55c-.07.02-.07.03-.1.03-.04,0-.09,0-.12-.03-.14-.09-.15.07-.09.18.04.08.08.19.04.26-.05.08-.04.12,0,.15.02.01.04.03.06.04.04.05.07.04.07-.02.14-.06.13-.21.17-.33.06-.18.29-.22-.03-.29Z"
      fill="#edb92e"
      fill-rule="evenodd"
      stroke="#21231e"
      stroke-linejoin="round"
      stroke-width=".04"
    /><path
      d="m21.13,14.56c-.12.04-.14-.02-.22-.02.03.19.07.29.26.19.11-.06.25.03.27.09,0,.02.07-.02.1-.07.1-.21-.25-.24-.41-.18Z"
      fill="#edb92e"
      fill-rule="evenodd"
      stroke="#21231e"
      stroke-linejoin="round"
      stroke-width=".04"
    /><path
      d="m20.69,15.48c-.09-.03-.23.17-.26.17-.04-.11.05-.39.2-.6.11-.04.12-.11.14-.27,0-.05.1-.02.1.07,0,.09,0,.14-.01.21,0,.03,0,.06.03.09-.17.07-.21.15-.2.34Z"
      fill="#edb92e"
      fill-rule="evenodd"
      stroke="#21231e"
      stroke-linejoin="round"
      stroke-width=".04"
    /><path
      d="m20.77,14.78s.02.07.02.12c0,.04-.01.08-.04.12-.03.04-.07.07-.11.09-.03.02-.06.06-.08.11-.02.05-.04.11-.04.15,0,.13-.03.25-.09.27-.04.01-.06.01-.09,0,0-.02,0-.06.03-.09.03-.04.05-.09.05-.14,0-.03.02-.06,0-.12,0-.04-.04-.06-.03-.1,0-.08.07-.22.16-.22s.13,0,.17-.12c.02-.04.04-.06.05-.08h0Z"
      fill="#edb92e"
      fill-rule="evenodd"
      stroke="#21231e"
      stroke-linejoin="round"
      stroke-width=".04"
    /><path
      d="m21.1,15.1s-.05-.03-.08-.04c-.05-.02-.09-.02-.14,0-.21.06-.3.43-.07.52.04,0,.09-.04.13-.12.05-.12.1-.2.15-.25.03-.04.03-.08.01-.1Z"
      fill="#edb92e"
      fill-rule="evenodd"
      stroke="#21231e"
      stroke-linejoin="round"
      stroke-width=".04"
    /><path
      d="m20.99,15.12c-.2-.08-.35.3-.16.38.1.04.11-.09.13-.16.03-.09.22-.15.03-.22Z"
      fill="#edb92e"
      fill-rule="evenodd"
      stroke="#21231e"
      stroke-linejoin="round"
      stroke-width=".04"
    /><path
      d="m16.86,14.02c.1-.19.21-.31.32-.36-.15-.49-.19-1.12-.1-1.89,0-.12.04-.17.08-.17.04,0,.06.06.07.19-.03.43-.06.8-.04,1.12.02.28.08.52.16.78.01.04-.02.07-.14.14-.09.05-.15.12-.17.19-.03-.01-.04,0-.05,0-.09.03-.13.02-.11,0h0Z"
      fill="#edb92e"
      fill-rule="evenodd"
      stroke="#21231e"
      stroke-linejoin="round"
      stroke-width=".04"
    /><path
      d="m17.45,14.63c-.06-.04-.07-.03-.09-.05-.02-.03-.02-.08-.02-.13.03-.2-.09-.17-.22-.08-.07.04-.13.14-.19.2-.06.05-.1.06-.12.08,0,.08,0,.14,0,.17,0,.03,0,.09,0,.17.01.02.06.03.12.08.06.05.12.15.19.2.13.09.25.11.22-.08,0-.05,0-.1.02-.13.02-.02.03-.01.09-.05.04-.02.07-.05.08-.08.02-.03,0-.06,0-.1s.01-.07,0-.1c-.02-.03-.05-.06-.08-.08Z"
      fill="#edb92e"
      fill-rule="evenodd"
      stroke="#21231e"
      stroke-linejoin="round"
      stroke-width=".04"
    /><path
      d="m17.35,14.36s-.09.04-.13.07c-.06.06-.02.15.06.25.02.03.04.08.04.13,0,.05-.01.1-.04.13-.08.09-.11.19-.06.25.04.04.08.06.13.07,0-.02,0-.05,0-.09,0-.05,0-.1.02-.13.02-.02.03-.01.09-.05.04-.02.07-.05.08-.08.02-.03,0-.06,0-.1s.01-.07,0-.1c-.02-.03-.05-.06-.08-.08-.06-.04-.07-.03-.09-.05-.02-.03-.02-.08-.02-.13,0-.04,0-.07,0-.09h0Z"
      fill="#edb92e"
      fill-rule="evenodd"
      stroke="#21231e"
      stroke-linejoin="round"
      stroke-width=".04"
    /><path
      d="m19.22,14.09c-.05.06-.04.08-.07.1-.03.02-.08.02-.13,0-.18-.07-.18.07-.13.24.03.08.1.17.14.23.03.07.03.12.04.13.07.01.12.02.15.02.02,0,.08.01.14.02.02-.01.04-.06.1-.11.06-.05.16-.11.22-.17.11-.13.17-.25,0-.25-.04,0-.09,0-.11-.04-.02-.02,0-.04-.02-.11-.01-.05-.03-.09-.05-.11-.02-.03-.06-.02-.09-.03-.03,0-.06-.02-.09,0-.03.02-.07.05-.1.09Z"
      fill="#edb92e"
      fill-rule="evenodd"
      stroke="#21231e"
      stroke-linejoin="round"
      stroke-width=".04"
    /><path
      d="m18.93,14.17c0,.05.01.11.04.16.04.08.14.05.24-.03.03-.02.08-.03.13-.02.05,0,.09.03.11.06.06.1.13.15.2.1.04-.04.07-.08.1-.13-.02,0-.04-.01-.08-.01-.04,0-.09,0-.11-.04-.02-.02,0-.04-.02-.11-.01-.05-.03-.09-.05-.11-.02-.03-.06-.02-.09-.03-.03,0-.06-.02-.09,0-.03.02-.07.05-.1.09-.05.06-.04.08-.07.1-.03.02-.08.01-.13,0-.03-.01-.06-.02-.08-.02Z"
      fill="#edb92e"
      fill-rule="evenodd"
      stroke="#21231e"
      stroke-linejoin="round"
      stroke-width=".04"
    /><path
      d="m19.92,14.88s-.04-.03-.05-.05c0-.03.01-.07.03-.12.09-.17,0-.15-.13-.09-.03.02-.07.05-.1.08-.04.03-.07.06-.1.09-.06.04-.1.05-.12.06-.03.07-.05.13-.06.16-.01.03-.03.09-.06.15,0,.02.04.02.07.07.03.05.05.14.08.18.05.06.09.1.12.09.03,0,.06-.05.07-.16,0-.04.03-.09.05-.11.02-.02.03-.01.08-.04.03-.02.06-.04.09-.07.02-.03.03-.05.04-.08.01-.03.03-.06.03-.08,0-.03-.01-.05-.03-.08Z"
      fill="#edb92e"
      fill-rule="evenodd"
      stroke="#21231e"
      stroke-linejoin="round"
      stroke-width=".04"
    /><path
      d="m19.93,14.61s-.06.03-.1.07c-.03.03-.05.07-.06.11,0,.04,0,.09.01.14,0,.03,0,.08-.02.14-.02.05-.05.1-.07.13-.09.09-.15.19-.13.25.02.04.03.05.05.07.01-.02.04-.04.05-.08.01-.05.03-.1.06-.13.02-.02.03-.05.08-.08.04-.02.07-.01.09-.04.05-.06.11-.2.05-.26-.06-.06-.08-.1-.03-.21.02-.04.02-.06.02-.09Z"
      fill="#edb92e"
      fill-rule="evenodd"
      stroke="#21231e"
      stroke-linejoin="round"
      stroke-width=".04"
    /><path
      d="m18.35,15.06s.06.03.07.06c.02.03,0,.08,0,.12-.06.18.05.16.18.09.06-.03.14-.12.2-.16.06-.04.1-.04.12-.06.02-.07.03-.13.03-.16,0-.03.02-.09.03-.16,0-.02-.05-.03-.09-.09-.04-.06-.08-.17-.13-.23-.11-.11-.21-.16-.22.05,0,.05-.01.1-.04.13-.02.02-.03.01-.09.04-.04.02-.07.05-.09.07-.02.03-.02.06-.02.1,0,.03-.02.07,0,.1.01.03.04.06.07.09Z"
      fill="#edb92e"
      fill-rule="evenodd"
      stroke="#21231e"
      stroke-linejoin="round"
      stroke-width=".04"
    /><path
      d="m18.4,15.33s.08-.03.12-.06c.06-.05.04-.14,0-.24-.02-.03-.02-.08-.01-.13,0-.05.03-.1.06-.13.09-.08.14-.18.1-.24-.03-.05-.07-.07-.11-.1,0,.02-.01.05-.01.09,0,.05-.01.1-.04.13-.02.02-.03.01-.09.04-.04.02-.07.05-.09.07-.02.03-.02.06-.02.1,0,.03-.02.07,0,.1.01.03.03.06.07.09.05.04.06.03.07.06.02.03,0,.08,0,.12-.01.03-.02.06-.02.08h0Z"
      fill="#edb92e"
      fill-rule="evenodd"
      stroke="#21231e"
      stroke-linejoin="round"
      stroke-width=".04"
    /><path
      d="m19.29,17.02l-.81-.48-.87.37.81.47.87-.37Z"
      fill="#edb92e"
      fill-rule="evenodd"
      stroke="#21231e"
      stroke-linecap="round"
      stroke-width=".04"
    /><path
      d="m20.27,16.68l-.88.35.73.48c.19-.06.34-.71.15-.83h0Z"
      fill="#edb92e"
      fill-rule="evenodd"
      stroke="#21231e"
      stroke-linecap="round"
      stroke-width=".04"
    /><path
      d="m16.82,14.88c.13.02.25.07.36.16-.07-.1-.19-.17-.36-.19v.03Z"
      fill="#21231e"
      fill-rule="evenodd"
      stroke-width="0"
    /><path
      d="m16.82,14.75c.13-.02.25-.07.36-.16-.07.1-.19.17-.36.19v-.03Z"
      fill="#21231e"
      fill-rule="evenodd"
      stroke-width="0"
    /><path
      d="m21,15.05c.05-.08.07-.15.05-.23.05.06.04.15-.02.24h-.03Z"
      fill="#21231e"
      fill-rule="evenodd"
      stroke-width="0"
    /><path
      d="m19.27,14.81c.05-.14.13-.25.23-.36-.11.06-.2.18-.26.36h.03Z"
      fill="#21231e"
      fill-rule="evenodd"
      stroke-width="0"
    /><path
      d="m19.16,14.8c.02-.14,0-.28-.06-.4.08.09.1.23.09.41h-.03Z"
      fill="#21231e"
      fill-rule="evenodd"
      stroke-width="0"
    /><path
      d="m19.36,15.09c.1.03.18.09.22.18-.02-.11-.1-.18-.21-.21v.03Z"
      fill="#21231e"
      fill-rule="evenodd"
      stroke-width="0"
    /><path
      d="m19.41,14.97c.12-.01.23-.06.34-.14-.1.1-.22.16-.36.18v-.03Z"
      fill="#21231e"
      fill-rule="evenodd"
      stroke-width="0"
    /><path
      d="m18.95,14.9c-.11-.03-.21-.1-.29-.2.04.11.14.19.29.23v-.03Z"
      fill="#21231e"
      fill-rule="evenodd"
      stroke-width="0"
    /><path
      d="m18.93,15.02c-.12,0-.23.04-.34.12.08-.09.2-.14.35-.15v.03Z"
      fill="#21231e"
      fill-rule="evenodd"
      stroke-width="0"
    /><path
      d="m18.42,17.22c.2.01.38-.09.39-.23.01-.14-.15-.27-.35-.28-.2-.01-.38.09-.39.23-.01.14.15.27.35.28Z"
      fill="#c6363c"
      fill-rule="evenodd"
      stroke="#21231e"
      stroke-width=".04"
    /><path
      d="m19.22,14.7c-.15,0-.29.12-.31.28-.02.16.08.28.23.29.14,0,.28-.12.3-.27.03-.15-.07-.29-.21-.3Z"
      fill="#edb92e"
      fill-rule="evenodd"
      stroke="#21231e"
      stroke-linejoin="round"
      stroke-width=".04"
    /><path
      d="m19.21,14.78c-.11,0-.21.09-.23.21-.02.12.06.21.17.21.1,0,.2-.09.22-.2.02-.12-.05-.21-.16-.22Z"
      fill="#edb92e"
      fill-rule="evenodd"
      stroke="#21231e"
      stroke-linejoin="round"
      stroke-width=".04"
    /><path
      d="m20.97,15.18c-.1-.04-.23.19-.11.24.08.03.15-.01.17-.08.03-.07,0-.14-.06-.16Z"
      fill="#0c4076"
      fill-rule="evenodd"
      stroke="#21231e"
      stroke-width=".04"
    /><path
      d="m20.24,16.83c-.21-.02-.39.07-.4.21-.01.14.14.27.36.29.14.01.22-.07.23-.21.01-.14-.04-.27-.19-.29Z"
      fill="#0c4076"
      fill-rule="evenodd"
      stroke="#21231e"
      stroke-width=".04"
    /><path
      d="m19.2,14.86c-.07,0-.13.06-.14.13-.01.07.04.13.1.13.07,0,.13-.05.14-.13.01-.07-.03-.13-.1-.14Z"
      fill="#0c4076"
      fill-rule="evenodd"
      stroke="#21231e"
      stroke-width=".04"
    /><path
      d="m12.88,12.57l-1.02.48-.11.44.4.63-.04.52h-.33l-.55-1.48.7-.59,1.61-.56-.66.56Z"
      fill="#edb92e"
      fill-rule="evenodd"
      stroke="#21231e"
      stroke-linejoin="round"
      stroke-width=".04"
    /><path
      d="m12.08,14.6c-.02-.06-.04-.12-.05-.17-.02-.1-.01-.2.02-.3-.11-.16-.23-.33-.32-.49-.06-.12-.11-.25-.07-.39.04-.15.16-.25.28-.33.14-.11.32-.2.5-.28.41-.17.73-.26.97-.26l-.15.14c-.44.15-.97.34-1.22.53-.33.25-.32.31.15.99.01.02.05.07.04.1-.02.05-.06.27,0,.43-.04.08-.1.04-.16.04h0Z"
      fill="#edb92e"
      fill-rule="evenodd"
      stroke="#21231e"
      stroke-linejoin="round"
      stroke-width=".04"
    /><path
      d="m15.17,14.17c.13,0,.1.22.07.27-.03.07-.06.07-.1,0-.03-.05-.09-.27.03-.28Z"
      fill="#edb92e"
      fill-rule="evenodd"
      stroke="#21231e"
      stroke-linejoin="round"
      stroke-width=".04"
    /><path
      d="m12.78,14.49c.12-.04.14.19.13.24-.02.07-.05.08-.1.03-.04-.04-.15-.24-.03-.28Z"
      fill="#edb92e"
      fill-rule="evenodd"
      stroke="#21231e"
      stroke-linejoin="round"
      stroke-width=".04"
    /><path
      d="m13.35,12.29c-.13,0-.24-.11-.24-.24s.11-.24.24-.24.24.11.24.24-.11.24-.24.24Z"
      fill="#fff"
      fill-rule="evenodd"
      stroke="#21231e"
      stroke-linejoin="round"
      stroke-width=".04"
    /><path
      d="m12.91,12.44c-.13,0-.24-.11-.24-.24s.11-.24.24-.24.24.11.24.24-.11.24-.24.24Z"
      fill="#fff"
      fill-rule="evenodd"
      stroke="#21231e"
      stroke-linejoin="round"
      stroke-width=".04"
    /><path
      d="m12.46,12.59c-.13,0-.24-.11-.24-.24s.11-.24.24-.24.24.11.24.24-.11.24-.24.24Z"
      fill="#fff"
      fill-rule="evenodd"
      stroke="#21231e"
      stroke-linejoin="round"
      stroke-width=".04"
    /><path
      d="m12.02,12.79c-.13,0-.24-.11-.24-.24s.11-.24.24-.24.24.11.24.24-.11.24-.24.24Z"
      fill="#fff"
      fill-rule="evenodd"
      stroke="#21231e"
      stroke-linejoin="round"
      stroke-width=".04"
    /><path
      d="m11.61,13.03c-.13,0-.24-.11-.24-.24s.11-.24.24-.24.24.11.24.24-.11.24-.24.24Z"
      fill="#fff"
      fill-rule="evenodd"
      stroke="#21231e"
      stroke-linejoin="round"
      stroke-width=".04"
    /><path
      d="m11.79,14.7c-.13,0-.24-.11-.24-.24s.11-.24.24-.24.24.11.24.24-.11.24-.24.24Z"
      fill="#fff"
      fill-rule="evenodd"
      stroke="#21231e"
      stroke-linejoin="round"
      stroke-width=".04"
    /><path
      d="m11.57,14.29c-.13,0-.24-.11-.24-.24s.11-.24.24-.24.24.11.24.24-.11.24-.24.24Z"
      fill="#fff"
      fill-rule="evenodd"
      stroke="#21231e"
      stroke-linejoin="round"
      stroke-width=".04"
    /><path
      d="m11.39,13.88c-.13,0-.24-.11-.24-.24s.11-.24.24-.24.24.11.24.24-.11.24-.24.24Z"
      fill="#fff"
      fill-rule="evenodd"
      stroke="#21231e"
      stroke-linejoin="round"
      stroke-width=".04"
    /><path
      d="m11.31,13.4c-.13,0-.24-.11-.24-.24s.11-.24.24-.24.24.11.24.24-.11.24-.24.24Z"
      fill="#fff"
      fill-rule="evenodd"
      stroke="#21231e"
      stroke-linejoin="round"
      stroke-width=".04"
    /><path
      d="m15.68,17.32c-.07,0-.12-.05-.12-.12s.05-.12.12-.12.12.05.12.12-.05.12-.12.12Z"
      fill="#fff"
      fill-rule="evenodd"
      stroke="#21231e"
      stroke-linejoin="round"
      stroke-width=".04"
    /><path
      d="m13.87,17.43c-.07,0-.12-.05-.12-.12s.05-.12.12-.12.12.05.12.12-.05.12-.12.12Z"
      fill="#fff"
      fill-rule="evenodd"
      stroke="#21231e"
      stroke-linejoin="round"
      stroke-width=".04"
    /><path
      d="m13.79,16.88c-.07,0-.12-.05-.12-.12s.05-.12.12-.12.12.05.12.12-.05.12-.12.12Z"
      fill="#fff"
      fill-rule="evenodd"
      stroke="#21231e"
      stroke-linejoin="round"
      stroke-width=".04"
    /><path
      d="m15.64,16.77c-.07,0-.12-.05-.12-.12s.05-.12.12-.12.12.05.12.12-.05.12-.12.12Z"
      fill="#fff"
      fill-rule="evenodd"
      stroke="#21231e"
      stroke-linejoin="round"
      stroke-width=".04"
    /><path
      d="m15.1,14.94c-.07-.11-.21-.63.08-.65.3-.02.22.52.17.63-.07.15-.15.16-.25.02Z"
      fill="#fff"
      fill-rule="evenodd"
      stroke="#21231e"
      stroke-linejoin="round"
      stroke-width=".04"
    /><path
      d="m13.12,15.18c-.04.17-.1.19-.23.07-.1-.09-.36-.55-.07-.64.29-.09.34.44.31.57Z"
      fill="#fff"
      fill-rule="evenodd"
      stroke="#21231e"
      stroke-linejoin="round"
      stroke-width=".04"
    /><path
      d="m15.98,11.87l-1.3.04-.81.26-.22.52.59,1.15-.26.74-.78-.67-.37-1.37,1-.85,2.11-.15.04.33Z"
      fill="#edb92e"
      fill-rule="evenodd"
      stroke="#21231e"
      stroke-linejoin="round"
      stroke-width=".04"
    /><path
      d="m15.91,11.79c-.64-.06-1.29,0-1.94.27-.54.22-.49.85.17,1.74-.06.11-.09.25-.1.41.07,0,.12,0,.18,0-.05-.11,0-.24.07-.33.04-.06.05-.05,0-.12-.4-.56-.66-1.04-.5-1.34.19-.36.91-.54,2.14-.52,0-.03,0-.07,0-.1,0,0,0,0-.01-.01Z"
      fill="#edb92e"
      fill-rule="evenodd"
      stroke="#21231e"
      stroke-linejoin="round"
      stroke-width=".04"
    /><path
      d="m13.32,12.02s.05.06.07.09c-.36.2-.51.41-.47.62,0,.04.12.42.36,1.17.17.12.29.22.37.31,0,.01.03.04.02.05.02.11-.1.09-.19.06-.04-.11-.17-.23-.24-.28-.01-.01-.07-.04-.07-.05-.13-.42-.26-.81-.37-1.17-.11-.36.13-.62.53-.8h0Z"
      fill="#edb92e"
      fill-rule="evenodd"
      stroke="#21231e"
      stroke-linejoin="round"
      stroke-width=".04"
    /><path
      d="m15.76,11.74c-.13,0-.24-.11-.24-.24s.11-.24.24-.24.24.11.24.24-.11.24-.24.24Z"
      fill="#fff"
      fill-rule="evenodd"
      stroke="#21231e"
      stroke-linejoin="round"
      stroke-width=".04"
    /><path
      d="m15.29,11.74c-.13,0-.24-.11-.24-.24s.11-.24.24-.24.24.11.24.24-.11.24-.24.24Z"
      fill="#fff"
      fill-rule="evenodd"
      stroke="#21231e"
      stroke-linejoin="round"
      stroke-width=".04"
    /><path
      d="m14.83,11.79c-.13,0-.24-.11-.24-.24s.11-.24.24-.24.24.11.24.24-.11.24-.24.24Z"
      fill="#fff"
      fill-rule="evenodd"
      stroke="#21231e"
      stroke-linejoin="round"
      stroke-width=".04"
    /><path
      d="m14.39,11.88c-.13,0-.24-.11-.24-.24s.11-.24.24-.24.24.11.24.24-.11.24-.24.24Z"
      fill="#fff"
      fill-rule="evenodd"
      stroke="#21231e"
      stroke-linejoin="round"
      stroke-width=".04"
    /><path
      d="m13.94,12.03c-.13,0-.24-.11-.24-.24s.11-.24.24-.24.24.11.24.24-.11.24-.24.24Z"
      fill="#fff"
      fill-rule="evenodd"
      stroke="#21231e"
      stroke-linejoin="round"
      stroke-width=".04"
    /><path
      d="m13.53,12.22c-.13,0-.24-.11-.24-.24s.11-.24.24-.24.24.11.24.24-.11.24-.24.24Z"
      fill="#fff"
      fill-rule="evenodd"
      stroke="#21231e"
      stroke-linejoin="round"
      stroke-width=".04"
    /><path
      d="m13.28,12.52c-.13,0-.24-.11-.24-.24s.11-.24.24-.24.24.11.24.24-.11.24-.24.24Z"
      fill="#fff"
      fill-rule="evenodd"
      stroke="#21231e"
      stroke-linejoin="round"
      stroke-width=".04"
    /><path
      d="m13.76,14.22c-.13,0-.24-.11-.24-.24s.11-.24.24-.24.24.11.24.24-.11.24-.24.24Z"
      fill="#fff"
      fill-rule="evenodd"
      stroke="#21231e"
      stroke-linejoin="round"
      stroke-width=".04"
    /><path
      d="m13.57,13.81c-.13,0-.24-.11-.24-.24s.11-.24.24-.24.24.11.24.24-.11.24-.24.24Z"
      fill="#fff"
      fill-rule="evenodd"
      stroke="#21231e"
      stroke-linejoin="round"
      stroke-width=".04"
    /><path
      d="m13.39,13.4c-.13,0-.24-.11-.24-.24s.11-.24.24-.24.24.11.24.24-.11.24-.24.24Z"
      fill="#fff"
      fill-rule="evenodd"
      stroke="#21231e"
      stroke-linejoin="round"
      stroke-width=".04"
    /><path
      d="m13.24,12.96c-.13,0-.24-.11-.24-.24s.11-.24.24-.24.24.11.24.24-.11.24-.24.24Z"
      fill="#fff"
      fill-rule="evenodd"
      stroke="#21231e"
      stroke-linejoin="round"
      stroke-width=".04"
    /><path
      d="m11.98,14.72v.07c-.12.02-.2.03-.28.02.12-.12.21-.15.28-.09Z"
      fill="#edb92e"
      fill-rule="evenodd"
      stroke="#21231e"
      stroke-linejoin="round"
      stroke-width=".04"
    /><path
      d="m11.94,14.55c.07.02.07.03.1.03.04,0,.09,0,.12-.03.14-.09.15.07.09.18-.04.08-.08.19-.04.26.05.08.04.12,0,.15-.02.01-.04.03-.06.04-.04.05-.07.04-.07-.02-.14-.06-.13-.21-.17-.33-.06-.18-.29-.22.03-.29Z"
      fill="#edb92e"
      fill-rule="evenodd"
      stroke="#21231e"
      stroke-linejoin="round"
      stroke-width=".04"
    /><path
      d="m12.02,14.55c.12.04.14-.02.22-.02-.03.19-.07.29-.26.19-.11-.06-.25.03-.27.09,0,.02-.07-.02-.1-.07-.1-.21.25-.24.41-.18Z"
      fill="#edb92e"
      fill-rule="evenodd"
      stroke="#21231e"
      stroke-linejoin="round"
      stroke-width=".04"
    /><path
      d="m12.45,15.48c.09-.03.23.17.26.17.04-.11-.05-.39-.21-.6-.11-.04-.12-.11-.14-.27,0-.05-.1-.02-.1.07,0,.09,0,.14.01.21,0,.03,0,.06-.03.09.17.07.21.15.2.34Z"
      fill="#edb92e"
      fill-rule="evenodd"
      stroke="#21231e"
      stroke-linejoin="round"
      stroke-width=".04"
    /><path
      d="m12.37,14.78s-.02.07-.02.12c0,.04.01.08.04.12.03.04.07.07.11.09.03.02.06.06.08.11.02.05.04.11.04.15,0,.13.03.25.09.27.04.02.06.01.09,0,0-.02,0-.06-.03-.09-.03-.04-.05-.09-.05-.14,0-.03-.02-.06,0-.12,0-.04.04-.06.03-.1,0-.08-.07-.22-.16-.22s-.13,0-.17-.12c-.02-.04-.04-.06-.05-.08h0Z"
      fill="#edb92e"
      fill-rule="evenodd"
      stroke="#21231e"
      stroke-linejoin="round"
      stroke-width=".04"
    /><path
      d="m12.05,15.09s.05-.03.08-.04c.05-.02.09-.02.14,0,.21.06.3.43.07.52-.04,0-.09-.03-.13-.12-.05-.12-.1-.2-.15-.25-.03-.04-.03-.08-.01-.1Z"
      fill="#edb92e"
      fill-rule="evenodd"
      stroke="#21231e"
      stroke-linejoin="round"
      stroke-width=".04"
    /><path
      d="m12.15,15.12c.2-.08.35.3.16.38-.1.04-.11-.09-.13-.16-.03-.09-.22-.15-.03-.22Z"
      fill="#edb92e"
      fill-rule="evenodd"
      stroke="#21231e"
      stroke-linejoin="round"
      stroke-width=".04"
    /><path
      d="m16.29,14.02c-.1-.19-.21-.31-.32-.36.15-.49.19-1.12.1-1.89,0-.12-.04-.17-.08-.17-.04,0-.06.06-.07.19.03.43.06.8.04,1.12-.02.28-.08.52-.16.78-.01.04.02.07.14.14.09.05.15.12.17.19.03-.01.04,0,.05,0,.09.03.13.02.11,0h0Z"
      fill="#edb92e"
      fill-rule="evenodd"
      stroke="#21231e"
      stroke-linejoin="round"
      stroke-width=".04"
    /><path
      d="m15.69,14.63c.06-.04.07-.03.09-.05.02-.03.02-.08.02-.13-.03-.2.09-.17.22-.08.07.04.13.14.19.2.06.05.1.06.12.08,0,.08,0,.14,0,.17,0,.03,0,.09,0,.17-.01.02-.06.03-.12.08-.06.05-.12.15-.19.2-.13.09-.25.11-.22-.08,0-.05,0-.1-.02-.13-.02-.02-.03-.01-.09-.05-.04-.02-.07-.05-.08-.08-.02-.03,0-.06,0-.1s-.01-.07,0-.1c.02-.03.05-.06.08-.08Z"
      fill="#edb92e"
      fill-rule="evenodd"
      stroke="#21231e"
      stroke-linejoin="round"
      stroke-width=".04"
    /><path
      d="m15.79,14.36s.09.04.13.07c.06.06.02.15-.06.25-.02.03-.04.08-.04.13,0,.05.01.1.04.13.08.09.11.19.06.25-.04.04-.09.06-.13.07,0-.02,0-.05,0-.09,0-.05,0-.1-.02-.13-.02-.02-.03-.01-.09-.05-.04-.02-.07-.05-.08-.08-.02-.03,0-.06,0-.1s-.01-.07,0-.1c.02-.03.05-.06.08-.08.06-.04.07-.03.09-.05.02-.03.02-.08.02-.13,0-.04,0-.07,0-.09h0Z"
      fill="#edb92e"
      fill-rule="evenodd"
      stroke="#21231e"
      stroke-linejoin="round"
      stroke-width=".04"
    /><path
      d="m13.93,14.09c.05.06.04.08.07.1.03.02.08.02.13,0,.18-.07.18.07.13.24-.03.08-.1.17-.14.23-.03.07-.03.12-.04.13-.07.01-.12.02-.15.02-.02,0-.08.01-.14.02-.02-.01-.04-.06-.1-.11-.06-.05-.16-.11-.22-.17-.11-.13-.17-.25,0-.25.04,0,.09,0,.11-.04.02-.02,0-.04.02-.11.01-.05.03-.09.05-.11.02-.03.06-.02.09-.03.03,0,.06-.02.09,0,.03.02.07.05.1.09Z"
      fill="#edb92e"
      fill-rule="evenodd"
      stroke="#21231e"
      stroke-linejoin="round"
      stroke-width=".04"
    /><path
      d="m14.21,14.16c0,.05-.01.11-.04.16-.04.08-.14.05-.24-.03-.03-.02-.08-.03-.13-.02-.05,0-.09.03-.11.06-.06.1-.13.15-.2.1-.04-.04-.07-.08-.1-.13.02,0,.04-.01.08-.01.04,0,.09,0,.11-.04.02-.02,0-.04.02-.11.01-.05.03-.09.05-.11.02-.03.06-.02.09-.03.03,0,.06-.02.09,0,.03.02.07.05.1.09.05.06.04.08.07.1.03.02.08.01.13,0,.03-.01.06-.02.08-.02Z"
      fill="#edb92e"
      fill-rule="evenodd"
      stroke="#21231e"
      stroke-linejoin="round"
      stroke-width=".04"
    /><path
      d="m13.22,14.88s.04-.03.05-.05c0-.03-.01-.07-.03-.11-.09-.17,0-.15.13-.09.03.02.07.05.1.08.04.03.07.06.1.09.06.04.1.05.12.06.03.07.05.13.06.16.01.03.03.09.06.15,0,.02-.04.02-.07.07-.03.05-.05.14-.08.18-.05.06-.09.1-.12.09-.03,0-.06-.05-.07-.16,0-.04-.03-.09-.05-.11-.02-.02-.03-.01-.08-.04-.03-.02-.06-.04-.09-.07-.02-.03-.03-.05-.04-.08-.01-.03-.03-.06-.03-.08,0-.03.01-.05.03-.08Z"
      fill="#edb92e"
      fill-rule="evenodd"
      stroke="#21231e"
      stroke-linejoin="round"
      stroke-width=".04"
    /><path
      d="m13.21,14.6s.06.03.1.07c.03.03.05.07.06.11,0,.04,0,.09-.01.14,0,.03,0,.08.02.14.02.05.05.1.07.13.09.09.15.19.13.25-.02.04-.03.05-.05.07-.01-.02-.04-.04-.05-.08-.01-.05-.03-.1-.06-.13-.02-.02-.03-.05-.08-.08-.04-.02-.07-.01-.09-.04-.05-.06-.11-.2-.05-.26.06-.06.08-.1.03-.21-.02-.04-.02-.06-.02-.09Z"
      fill="#edb92e"
      fill-rule="evenodd"
      stroke="#21231e"
      stroke-linejoin="round"
      stroke-width=".04"
    /><path
      d="m14.79,15.06s-.06.03-.07.06c-.02.03,0,.08,0,.12.06.18-.05.16-.18.09-.06-.03-.14-.12-.2-.16-.06-.04-.1-.04-.12-.06-.02-.07-.03-.13-.03-.16,0-.03-.02-.09-.03-.16,0-.02.05-.03.09-.09.04-.06.08-.17.13-.23.11-.11.21-.16.22.05,0,.05.01.1.04.13.02.02.03.01.09.04.04.02.07.05.09.07.02.03.02.06.02.1,0,.03.02.07,0,.1-.01.03-.03.06-.07.09Z"
      fill="#edb92e"
      fill-rule="evenodd"
      stroke="#21231e"
      stroke-linejoin="round"
      stroke-width=".04"
    /><path
      d="m14.74,15.32s-.08-.03-.12-.06c-.06-.05-.04-.14,0-.24.02-.03.02-.08.01-.13,0-.05-.03-.1-.06-.13-.09-.08-.14-.18-.1-.24.03-.05.07-.07.11-.1,0,.02.01.05.01.09,0,.05.01.1.04.13.02.02.03.01.09.04.04.02.07.05.09.07.02.03.02.06.02.1,0,.03.02.07,0,.1-.01.03-.03.06-.07.09-.05.04-.06.03-.07.06-.02.03,0,.08,0,.12.01.03.02.06.02.08h0Z"
      fill="#edb92e"
      fill-rule="evenodd"
      stroke="#21231e"
      stroke-linejoin="round"
      stroke-width=".04"
    /><path
      d="m13.86,17.02l.81-.48.87.37-.81.47-.87-.37Z"
      fill="#edb92e"
      fill-rule="evenodd"
      stroke="#21231e"
      stroke-linecap="round"
      stroke-width=".04"
    /><path
      d="m12.87,16.68l.88.35-.73.48c-.19-.06-.34-.71-.15-.83h0Z"
      fill="#edb92e"
      fill-rule="evenodd"
      stroke="#21231e"
      stroke-linecap="round"
      stroke-width=".04"
    /><path
      d="m16.32,14.87c-.13.02-.25.07-.36.16.07-.1.19-.17.36-.19v.03Z"
      fill="#21231e"
      fill-rule="evenodd"
      stroke-width="0"
    /><path
      d="m16.32,14.75c-.13-.02-.25-.07-.36-.16.07.1.19.17.36.19v-.03Z"
      fill="#21231e"
      fill-rule="evenodd"
      stroke-width="0"
    /><path
      d="m12.14,15.05c-.05-.08-.07-.15-.05-.23-.05.06-.04.15.02.24h.03Z"
      fill="#21231e"
      fill-rule="evenodd"
      stroke-width="0"
    /><path
      d="m13.87,14.81c-.05-.14-.13-.25-.23-.36.11.06.2.18.26.36h-.03Z"
      fill="#21231e"
      fill-rule="evenodd"
      stroke-width="0"
    /><path
      d="m13.98,14.8c-.02-.14,0-.28.06-.4-.08.09-.1.23-.09.41h.03Z"
      fill="#21231e"
      fill-rule="evenodd"
      stroke-width="0"
    /><path
      d="m13.78,15.09c-.1.03-.18.09-.22.18.02-.11.1-.18.21-.21v.03Z"
      fill="#21231e"
      fill-rule="evenodd"
      stroke-width="0"
    /><path
      d="m13.73,14.97c-.12-.01-.23-.06-.34-.14.1.1.22.16.36.18v-.03Z"
      fill="#21231e"
      fill-rule="evenodd"
      stroke-width="0"
    /><path
      d="m14.19,14.9c.11-.03.21-.1.29-.2-.04.11-.14.19-.29.23v-.03Z"
      fill="#21231e"
      fill-rule="evenodd"
      stroke-width="0"
    /><path
      d="m14.22,15.02c.12,0,.23.04.34.12-.08-.09-.2-.14-.35-.15v.03Z"
      fill="#21231e"
      fill-rule="evenodd"
      stroke-width="0"
    /><path
      d="m14.72,17.22c-.2.01-.38-.09-.39-.23,0-.14.15-.27.35-.28.2-.01.38.09.39.23.01.14-.15.27-.35.28Z"
      fill="#c6363c"
      fill-rule="evenodd"
      stroke="#21231e"
      stroke-width=".04"
    /><path
      d="m13.92,14.7c.15,0,.29.12.31.28.02.16-.08.28-.23.29-.14,0-.28-.12-.3-.27-.03-.15.07-.29.21-.3Z"
      fill="#edb92e"
      fill-rule="evenodd"
      stroke="#21231e"
      stroke-linejoin="round"
      stroke-width=".04"
    /><path
      d="m13.93,14.78c.11,0,.21.09.23.21.02.12-.06.21-.17.21-.1,0-.2-.09-.22-.2-.02-.12.05-.21.16-.22Z"
      fill="#edb92e"
      fill-rule="evenodd"
      stroke="#21231e"
      stroke-linejoin="round"
      stroke-width=".04"
    /><path
      d="m12.17,15.18c.1-.04.23.19.11.24-.08.03-.15-.01-.17-.08-.03-.07,0-.14.06-.16Z"
      fill="#0c4076"
      fill-rule="evenodd"
      stroke="#21231e"
      stroke-width=".04"
    /><path
      d="m12.91,16.83c.21-.02.39.07.4.21.01.14-.14.27-.36.29-.14.01-.22-.07-.23-.21-.01-.14.04-.27.19-.29Z"
      fill="#0c4076"
      fill-rule="evenodd"
      stroke="#21231e"
      stroke-width=".04"
    /><path
      d="m13.94,14.86c.07,0,.13.06.14.13s-.04.13-.1.13c-.07,0-.13-.05-.14-.13-.01-.07.03-.13.1-.14Z"
      fill="#0c4076"
      fill-rule="evenodd"
      stroke="#21231e"
      stroke-width=".04"
    /><path
      d="m16.57,13.92c.13,0,.24-.11.24-.24s-.11-.24-.24-.24-.24.11-.24.24.11.24.24.24Z"
      fill="#fff"
      fill-rule="evenodd"
      stroke="#21231e"
      stroke-linejoin="round"
      stroke-width=".04"
    /><path
      d="m16.57,13.48c.13,0,.24-.11.24-.24s-.11-.24-.24-.24-.24.11-.24.24.11.24.24.24Z"
      fill="#fff"
      fill-rule="evenodd"
      stroke="#21231e"
      stroke-linejoin="round"
      stroke-width=".04"
    /><path
      d="m16.57,13.05c.13,0,.24-.11.24-.24s-.11-.24-.24-.24-.24.11-.24.24.11.24.24.24Z"
      fill="#fff"
      fill-rule="evenodd"
      stroke="#21231e"
      stroke-linejoin="round"
      stroke-width=".04"
    /><path
      d="m16.57,11.85c.13,0,.24-.11.24-.24s-.11-.24-.24-.24-.24.11-.24.24.11.24.24.24Z"
      fill="#fff"
      fill-rule="evenodd"
      stroke="#21231e"
      stroke-linejoin="round"
      stroke-width=".04"
    /><path
      d="m16.57,12.22c.13,0,.24-.11.24-.24s-.11-.24-.24-.24-.24.11-.24.24.11.24.24.24Z"
      fill="#fff"
      fill-rule="evenodd"
      stroke="#21231e"
      stroke-linejoin="round"
      stroke-width=".04"
    /><path
      d="m16.57,12.63c.13,0,.24-.11.24-.24s-.11-.24-.24-.24-.24.11-.24.24.11.24.24.24Z"
      fill="#fff"
      fill-rule="evenodd"
      stroke="#21231e"
      stroke-linejoin="round"
      stroke-width=".04"
    /><path
      d="m16.57,13.83s.07-.01.1,0c.03.02.06.05.08.09.03.06.02.07.05.09.04.02.08.03.13.02.19-.03.17.09.08.22-.04.07-.14.13-.2.19-.05.06-.06.1-.08.12h-.33s-.03-.06-.08-.12c-.05-.06-.15-.12-.2-.19-.09-.13-.11-.25.08-.22.05,0,.09,0,.13-.02.03-.01.02-.03.05-.09.02-.04.05-.07.08-.09.03-.02.06,0,.1,0Z"
      fill="#edb92e"
      fill-rule="evenodd"
      stroke="#21231e"
      stroke-linejoin="round"
      stroke-width=".04"
    /><path
      d="m16.63,14.56c.02-.13.07-.25.16-.36-.11.07-.17.19-.2.36h.03Z"
      fill="#21231e"
      fill-rule="evenodd"
      stroke-width="0"
    /><path
      d="m16.51,14.56c-.02-.13-.07-.25-.16-.36.11.07.17.19.2.36h-.03Z"
      fill="#21231e"
      fill-rule="evenodd"
      stroke-width="0"
    /><path
      d="m16.57,13.83s.07-.01.1,0,.06.05.08.09c.03.06.02.07.05.09.04.02.08.03.13.02.04,0,.07,0,.09,0-.02.04-.04.09-.07.13-.06.06-.13.01-.24-.06-.03-.02-.08-.03-.13-.03s-.1.01-.13.03c-.11.07-.19.11-.24.06-.04-.04-.06-.09-.07-.13.02,0,.05,0,.09,0,.05,0,.09,0,.13-.02.03-.01.02-.03.05-.09.02-.04.05-.07.08-.09.03-.02.06,0,.1,0Z"
      fill="#edb92e"
      fill-rule="evenodd"
      stroke="#21231e"
      stroke-linejoin="round"
      stroke-width=".04"
    /><path
      d="m16.57,14.53c.16,0,.29.13.29.29s-.13.29-.29.29-.29-.13-.29-.29.13-.29.29-.29Z"
      fill="#edb92e"
      fill-rule="evenodd"
      stroke="#21231e"
      stroke-linejoin="round"
      stroke-width=".04"
    /><path
      d="m20.2,17.67c0-.07-.06-.1-.18-.11-2.3-.19-4.6-.19-6.9,0-.12,0-.18.05-.18.11s.06.1.18.11c2.3.19,4.6.19,6.9,0,.12,0,.18-.05.18-.11Z"
      fill="#edb92e"
      fill-rule="evenodd"
      stroke="#21231e"
      stroke-linejoin="round"
      stroke-width=".04"
    /><path
      d="m16.57,15.1c.16,0,.29-.13.29-.29s-.13-.29-.29-.29-.29.13-.29.29.13.29.29.29Z"
      fill="#edb92e"
      fill-rule="evenodd"
      stroke="#21231e"
      stroke-linejoin="round"
      stroke-width=".04"
    /><path
      d="m16.57,15.02c.12,0,.21-.09.21-.21s-.09-.21-.21-.21-.21.09-.21.21.09.21.21.21Z"
      fill="#edb92e"
      fill-rule="evenodd"
      stroke="#21231e"
      stroke-linejoin="round"
      stroke-width=".04"
    /><path
      d="m16.57,17.17c.2,0,.37-.12.37-.26s-.17-.26-.37-.26-.37.12-.37.26.17.26.37.26Z"
      fill="#0c4076"
      fill-rule="evenodd"
      stroke="#21231e"
      stroke-width=".04"
    /><path
      d="m16.57,14.95c.08,0,.14-.06.14-.14s-.06-.14-.14-.14-.14.06-.14.14.06.14.14.14Z"
      fill="#0c4076"
      fill-rule="evenodd"
      stroke="#21231e"
      stroke-width=".04"
    /><path
      d="m14.83,17.8c-.26-.02-.55-.05-.85-.08,1.73-.12,3.46-.12,5.19,0-.31.03-.59.06-.85.08"
      fill="none"
      fill-rule="evenodd"
      stroke="#21231e"
      stroke-linecap="round"
      stroke-width=".04"
    /><path
      d="m22.82,17.84v10.18c0,1.67-.74,3.3-1.85,4.48-1.11,1.19-2.67,2-4.4,2s-3.29-.81-4.4-2c-1.11-1.19-1.85-2.81-1.85-4.48v-10.18h12.5Z"
      fill="#c6363c"
      fill-rule="evenodd"
      stroke="#fff"
      stroke-width=".09"
    /><path
      d="m16.51,33.9c-.05,0-.14,0-.21-.05-.09-.07-.06-.36-.05-.55.04-.94.08-2.52.13-4.74.08-.01.14,0,.19,0,.05,0,.11-.01.19,0,.05,2.22.09,3.8.13,4.74,0,.18.04.47-.05.55-.07.05-.16.04-.21.05h-.11Z"
      fill="#fff"
      fill-rule="evenodd"
      stroke="#21231e"
      stroke-linejoin="round"
      stroke-width=".04"
    /><path
      d="m15.93,33.87c.05,0,.14.02.22-.03.1-.06.11-.36.11-.54.04-.94.13-2.51.28-4.73-.08-.02-.13-.02-.19-.01,0,0-.02,0-.03,0-.35,2.19-.49,3.75-.73,4.68-.03.13-.11.45,0,.56.06.06.16.06.21.07h.11s0,.01,0,.01Z"
      fill="#fff"
      fill-rule="evenodd"
      stroke="#21231e"
      stroke-linejoin="round"
      stroke-width=".04"
    /><path
      d="m15.23,33.77c.05,0,.14.03.22-.01.1-.05.1-.35.14-.53.24-.94.37-2.49.73-4.69-.07-.02-.13-.03-.19-.03-.56,2.13-.73,3.63-1.16,4.56-.04.13-.15.47-.05.59.06.07.15.07.2.09l.11.02h0Z"
      fill="#fff"
      fill-rule="evenodd"
      stroke="#21231e"
      stroke-linejoin="round"
      stroke-width=".04"
    /><path
      d="m14.54,33.58c.05,0,.15.06.23.02.11-.04.12-.36.2-.53.44-.93.61-2.44,1.17-4.59-.07-.03-.13-.04-.18-.05-.05-.02-.04-.03-.12-.05-.66,2.12-.87,3.59-1.49,4.51-.1.15-.17.44-.11.54.05.07.14.09.19.11l.11.03h0Z"
      fill="#fff"
      fill-rule="evenodd"
      stroke="#21231e"
      stroke-linejoin="round"
      stroke-width=".04"
    /><path
      d="m17.22,33.87c-.05,0-.14.02-.22-.03-.1-.06-.11-.36-.11-.54-.04-.94-.13-2.51-.28-4.73.08-.02.13-.02.19-.01,0,0,.02,0,.03,0,.35,2.19.49,3.75.73,4.68.03.13.1.45,0,.56-.06.06-.16.06-.21.07h-.11s0,.01,0,.01Z"
      fill="#fff"
      fill-rule="evenodd"
      stroke="#21231e"
      stroke-linejoin="round"
      stroke-width=".04"
    /><path
      d="m17.91,33.77c-.05,0-.14.03-.22-.01-.1-.05-.1-.35-.14-.53-.24-.94-.37-2.49-.73-4.69.08-.02.13-.03.19-.03.56,2.13.73,3.63,1.16,4.56.04.13.15.47.05.59-.06.07-.15.07-.2.09l-.11.02h0Z"
      fill="#fff"
      fill-rule="evenodd"
      stroke="#21231e"
      stroke-linejoin="round"
      stroke-width=".04"
    /><path
      d="m18.6,33.58c-.05,0-.15.06-.23.02-.11-.04-.12-.36-.2-.53-.44-.93-.61-2.44-1.17-4.59.07-.03.13-.04.18-.05.05-.02.04-.03.12-.05.66,2.12.87,3.59,1.5,4.51.1.15.17.44.11.54-.05.07-.14.09-.19.11l-.11.03h0Z"
      fill="#fff"
      fill-rule="evenodd"
      stroke="#21231e"
      stroke-linejoin="round"
      stroke-width=".04"
    /><path
      d="m14.91,31.98s.12.03.2,0c.1-.05.17-.34.23-.51.44-.87.84-2.42,1.5-4.57-.06-.03-.12-.03-.16-.04-.04-.02-.09-.04-.16-.04-.71,2.13-1.03,3.67-1.73,4.52-.11.14-.2.45-.15.53.04.07.12.08.17.1l.1.02h0Z"
      fill="#fff"
      fill-rule="evenodd"
      stroke="#21231e"
      stroke-linejoin="round"
      stroke-width=".04"
    /><path
      d="m15.47,32.08s.13.02.2-.02c.1-.06.13-.35.17-.53.18-.93.51-2.49.97-4.67-.07-.02-.12-.02-.17-.02-.05-.02-.09-.03-.17-.03-.55,2.17-.68,3.8-1.2,4.63-.1.15-.15.46-.08.54.05.06.13.06.18.08l.1.02h0Z"
      fill="#fff"
      fill-rule="evenodd"
      stroke="#21231e"
      stroke-linejoin="round"
      stroke-width=".04"
    /><path
      d="m16.04,32.15s.13.01.2-.04c.09-.07.09-.36.11-.54.07-.94.22-2.51.43-4.73-.07-.02-.12-.01-.17-.01-.05-.01-.1-.02-.17-.02-.3,2.21-.47,3.8-.66,4.71-.04.18-.09.47-.02.55.06.06.14.05.19.07h.1Z"
      fill="#fff"
      fill-rule="evenodd"
      stroke="#21231e"
      stroke-linejoin="round"
      stroke-width=".04"
    /><path
      d="m18.23,31.98s-.12.03-.2,0c-.1-.05-.17-.34-.23-.51-.44-.87-.84-2.42-1.5-4.57.06-.03.12-.03.16-.04.04-.02.09-.04.16-.04.71,2.13,1.03,3.67,1.73,4.52.11.14.2.45.15.53-.04.07-.12.08-.17.1l-.1.02h0Z"
      fill="#fff"
      fill-rule="evenodd"
      stroke="#21231e"
      stroke-linejoin="round"
      stroke-width=".04"
    /><path
      d="m17.67,32.08s-.13.02-.2-.02c-.1-.06-.13-.35-.17-.53-.18-.93-.51-2.49-.97-4.67.07-.02.12-.02.17-.02.05-.02.09-.03.17-.03.55,2.17.68,3.8,1.2,4.63.09.15.15.46.08.54-.05.06-.13.06-.18.08l-.1.02h0Z"
      fill="#fff"
      fill-rule="evenodd"
      stroke="#21231e"
      stroke-linejoin="round"
      stroke-width=".04"
    /><path
      d="m17.1,32.15s-.13.01-.2-.04c-.09-.07-.09-.36-.11-.54-.07-.94-.22-2.51-.43-4.73.07-.02.12-.01.17-.01.05-.01.1-.02.17-.02.3,2.21.47,3.8.66,4.71.04.18.09.47.02.55-.06.06-.14.05-.19.07h-.1s0,0,0,0Z"
      fill="#fff"
      fill-rule="evenodd"
      stroke="#21231e"
      stroke-linejoin="round"
      stroke-width=".04"
    /><path
      d="m16.52,32.17s-.13,0-.19-.05c-.08-.07-.05-.36-.04-.55.04-.94.07-2.52.12-4.74.07-.01.12,0,.17,0,.05,0,.1-.01.17,0,.04,2.22.08,3.8.12,4.74,0,.18.04.47-.04.55-.06.05-.14.04-.19.05h-.1Z"
      fill="#fff"
      fill-rule="evenodd"
      stroke="#21231e"
      stroke-linejoin="round"
      stroke-width=".04"
    /><path
      d="m15.3,30.68s.1.03.15,0c.08-.05.13-.34.17-.51.34-.87.65-2.42,1.15-4.57l-.25-.08c-.55,2.13-.79,3.67-1.32,4.52-.09.14-.15.45-.11.53.03.07.09.08.13.1.02,0,.05.02.07.02Z"
      fill="#fff"
      fill-rule="evenodd"
      stroke="#21231e"
      stroke-linejoin="round"
      stroke-width=".04"
    /><path
      d="m15.73,30.79s.1.02.15-.02c.07-.06.1-.35.13-.53.14-.93.39-2.49.74-4.67l-.26-.05c-.42,2.17-.52,3.8-.92,4.63-.07.15-.11.46-.06.54.04.06.1.06.14.08.03,0,.05.01.08.02h0Z"
      fill="#fff"
      fill-rule="evenodd"
      stroke="#21231e"
      stroke-linejoin="round"
      stroke-width=".04"
    /><path
      d="m16.17,30.86s.1.01.15-.04c.07-.07.07-.36.08-.54.05-.94.17-2.51.33-4.73l-.26-.03c-.23,2.21-.36,3.8-.51,4.71-.03.18-.07.47-.02.55.04.06.11.05.14.07.03,0,.05,0,.08,0h0Z"
      fill="#fff"
      fill-rule="evenodd"
      stroke="#21231e"
      stroke-linejoin="round"
      stroke-width=".04"
    /><path
      d="m17.85,30.68s-.1.03-.16,0c-.08-.05-.13-.34-.17-.51-.34-.87-.65-2.42-1.15-4.57l.25-.08c.55,2.13.79,3.67,1.32,4.52.09.14.15.45.11.53-.03.07-.09.08-.13.1-.02,0-.05.02-.07.02Z"
      fill="#fff"
      fill-rule="evenodd"
      stroke="#21231e"
      stroke-linejoin="round"
      stroke-width=".04"
    /><path
      d="m17.41,30.79s-.1.02-.15-.02c-.07-.06-.1-.35-.13-.53-.14-.93-.39-2.49-.74-4.67l.26-.05c.42,2.17.52,3.8.92,4.63.07.15.11.46.06.54-.04.06-.1.06-.14.08-.03,0-.05.01-.08.02h0Z"
      fill="#fff"
      fill-rule="evenodd"
      stroke="#21231e"
      stroke-linejoin="round"
      stroke-width=".04"
    /><path
      d="m16.98,30.86s-.1.01-.15-.04c-.07-.07-.07-.36-.08-.54-.05-.94-.17-2.51-.33-4.73l.26-.03c.23,2.21.36,3.8.51,4.71.03.18.07.47.02.55-.04.06-.11.05-.14.07-.03,0-.05,0-.08,0h0Z"
      fill="#fff"
      fill-rule="evenodd"
      stroke="#21231e"
      stroke-linejoin="round"
      stroke-width=".04"
    /><path
      d="m16.53,30.88s-.1,0-.15-.05c-.06-.07-.04-.36-.03-.55.03-.94.06-2.52.09-4.74h.26c.03,2.22.06,3.8.09,4.74,0,.18.03.47-.03.55-.05.05-.11.04-.15.05h-.08Z"
      fill="#fff"
      fill-rule="evenodd"
      stroke="#21231e"
      stroke-linejoin="round"
      stroke-width=".04"
    /><path
      d="m17.24,27.99c0,.18-.44,2.05-.67,2.05s-.67-1.87-.67-2.05h1.34Z"
      fill="#fff"
      fill-rule="evenodd"
      stroke="#21231e"
      stroke-linejoin="round"
      stroke-width=".04"
    /><path
      d="m19.61,30.31s.02.03.03.04c.04.11.18.3.29.41.17.17.13.44.01.59-.12.16-.19.34-.22.47-.02.09-.04.28-.02.58.01.15.1.22.18.29.04.03-.03.12-.16.22-.01.01-.05.03-.07.11,0,.01-.07.01-.07,0-.02-.08-.06-.1-.07-.11-.13-.1-.2-.19-.16-.22.08-.07.17-.14.18-.29.02-.3,0-.49-.02-.58-.03-.13-.1-.31-.22-.47-.11-.15-.16-.42.01-.59.11-.11.26-.3.29-.41,0-.01.01-.04.03-.04Z"
      fill="#edb92e"
      fill-rule="evenodd"
      stroke="#21231e"
      stroke-linejoin="round"
      stroke-width=".04"
    /><path
      d="m20.08,32.65c-.3.22-.57-.31-.3-1.02.2-.53,1.16-.31.61.39-.03.03-.06.02-.06-.02.03-.15-.05-.23-.21-.2-.39.07-.4.81.02.65.08,0,0,.15-.07.21Z"
      fill="#edb92e"
      fill-rule="evenodd"
      stroke="#21231e"
      stroke-linejoin="round"
      stroke-width=".04"
    /><path
      d="m19.14,32.65c.3.22.57-.31.3-1.02-.2-.53-1.16-.31-.61.39.03.03.06.02.06-.02-.03-.15.05-.23.21-.2.39.07.4.81-.02.65-.08,0,0,.15.07.21Z"
      fill="#edb92e"
      fill-rule="evenodd"
      stroke="#21231e"
      stroke-linejoin="round"
      stroke-width=".04"
    /><path
      d="m19.39,32.07s-.07.01-.09.04-.04.06-.04.09.01.07.04.09.06.04.09.04h.44s.07-.01.09-.04c.02-.02.04-.06.04-.09s-.01-.07-.04-.09c-.02-.02-.06-.04-.09-.04h-.44Z"
      fill="#edb92e"
      fill-rule="evenodd"
      stroke="#21231e"
      stroke-linejoin="round"
      stroke-width=".04"
    /><path
      d="m19.83,28.76c.19.41.41.78.63,1.11.11.04.19.09.26.11.07.02.59.01.61-.02.17-.13.43-.02.31.13.07.07-.07.27-.19.19-.11-.09-.48,0-.59-.04.04.11.41.17.63.19.22.01.19.22.11.41l-.07.04c-.07.15-.29.1-.3-.04s-.52-.33-.59-.44c.07.22.3.44.41.67.11.11.19.11.04.33l-.26.04c-.22,0-.26-.07-.22-.26.04-.19-.14-.52-.19-.61-.04-.09-.06-.18-.1-.23-.08-.1-.47-.27-.57-.23-.19.1-.31.04-.33-.15.04-.04,0-.3.13-.32.11-.02.16.04.26.11.15.12.23.19.27.17.12-.03-.21-.19-.51-.58-.3-.39-.41-.98.25-.57Z"
      fill="#edb92e"
      fill-rule="evenodd"
      stroke="#21231e"
      stroke-linejoin="round"
      stroke-width=".04"
    /><path
      d="m21.64,30.18c.15-.09.23-.08.29-.02.03.04.07.02.05-.04-.1-.23-.26-.26-.4-.15-.04.04-.07.07-.1.1.02.04.14.08.16.11h0Z"
      fill="#edb92e"
      fill-rule="evenodd"
      stroke="#21231e"
      stroke-linejoin="round"
      stroke-width=".04"
    /><path
      d="m19.51,29.98c-.16-.11-.31-.13-.39-.07-.04.03-.09,0-.05-.05.16-.23.36-.24.5-.11.04.04.07.08.1.12-.05.05-.16.12-.17.11h0Z"
      fill="#edb92e"
      fill-rule="evenodd"
      stroke="#21231e"
      stroke-linejoin="round"
      stroke-width=".04"
    /><path
      d="m20.76,31.3s.04-.2.1-.26c.05.04.11.08.16.13.16.16.16.41-.09.62-.06.05-.09,0-.06-.06.04-.1,0-.23-.11-.43Z"
      fill="#edb92e"
      fill-rule="evenodd"
      stroke="#21231e"
      stroke-linejoin="round"
      stroke-width=".04"
    /><path
      d="m21.37,30.79c.15.06.2.14.19.24,0,.06.03.08.05.01.18-.42,0-.49-.28-.48-.02.07.02.23.03.23Z"
      fill="#edb92e"
      fill-rule="evenodd"
      stroke="#21231e"
      stroke-linejoin="round"
      stroke-width=".04"
    /><path
      d="m19.4,29.05c.07-.07.14-.14.21-.06.07.08.03.16-.07.27.07-.04.15-.19.22-.09.07.1,0,.19-.07.28.09-.07.15-.18.23-.09.07.09,0,.18-.07.24.07-.06.15-.11.19-.06.07.08.01.13-.06.2.08-.06.14-.12.2-.05.06.07-.02.15-.06.18"
      fill="none"
      fill-rule="evenodd"
      stroke="#21231e"
      stroke-linecap="round"
      stroke-width=".04"
    /><path
      d="m19.41,24.05c0,.32.05,2.47.07,2.77.02.3.15.51.29.63.13-.18.21-.42.23-.71,0-.15-.02-2.18-.03-2.59l-.56-.09Z"
      fill="#fff"
      fill-rule="evenodd"
      stroke="#21231e"
      stroke-linejoin="round"
      stroke-width=".04"
    /><path
      d="m20.8,23.53l.09,2.95c.03.26-.31,1.82-.5,2.12-.46-.2-.56-1.25-.47-2.28.09-1.03-.01-1.92-.08-2.1l.96-.69Z"
      fill="#fff"
      fill-rule="evenodd"
      stroke="#21231e"
      stroke-linejoin="round"
      stroke-width=".04"
    /><path
      d="m21.35,24.01l-.06,2.95c.02.26-.41,1.8-.61,2.09-.47-.36-.37-1.84-.3-2.29.14-.89.12-1.93.07-2.1l.9-.65Z"
      fill="#fff"
      fill-rule="evenodd"
      stroke="#21231e"
      stroke-linejoin="round"
      stroke-width=".04"
    /><path
      d="m21.76,24.71l-.77-.02c.07.32.01,1.32-.12,2.08-.13.71-.3,2.57.44,3.01.46-.98.11-1.93.34-2.77l.11-2.3Z"
      fill="#fff"
      fill-rule="evenodd"
      stroke="#21231e"
      stroke-linejoin="round"
      stroke-width=".04"
    /><path
      d="m18.79,23.51l.15,2.76c.03.3.17.5.31.62.13-.18.2-.43.21-.72,0-.15-.08-2.17-.11-2.59l-.56-.07Z"
      fill="#fff"
      fill-rule="evenodd"
      stroke="#21231e"
      stroke-linejoin="round"
      stroke-width=".04"
    /><path
      d="m20.17,21.77c.02.69.03,2.19.03,2.32,0,.29-.12.65-.25.84-.15-.11-.29-.31-.31-.62-.02-.25-.03-1.46-.03-2.07l.57-.47Z"
      fill="#fff"
      fill-rule="evenodd"
      stroke="#21231e"
      stroke-linejoin="round"
      stroke-width=".04"
    /><path
      d="m19.62,22.21c.01.74,0,1.92,0,2.01,0,.29-.08.53-.21.72-.15-.11-.3-.32-.33-.62-.02-.19-.07-.98-.07-1.59l.6-.52Z"
      fill="#fff"
      fill-rule="evenodd"
      stroke="#21231e"
      stroke-linejoin="round"
      stroke-width=".04"
    /><path
      d="m20.09,21.7l.53-.76c.11.37.24,3.07.08,3.29,0,.29-.11.53-.24.72-.15-.11-.36-.32-.3-.62.06-.3,0-2.31-.07-2.62Z"
      fill="#fff"
      fill-rule="evenodd"
      stroke="#21231e"
      stroke-linejoin="round"
      stroke-width=".04"
    /><path
      d="m21.17,23.4l.04.84c0,.29-.08.53-.21.72-.15-.11-.33-.31-.31-.62.07-1.17-.05-2.26-.2-3.32l.46-.28.22,2.65Z"
      fill="#fff"
      fill-rule="evenodd"
      stroke="#21231e"
      stroke-linejoin="round"
      stroke-width=".04"
    /><path
      d="m21.7,24.16l-.14.54c0,.29-.19.53-.31.71-.15-.11-.28-.3-.24-.6.21-1.72.14-2.86-.22-4.26.82.56,1.19,1.73.92,3.61h0Z"
      fill="#fff"
      fill-rule="evenodd"
      stroke="#21231e"
      stroke-linejoin="round"
      stroke-width=".04"
    /><path
      d="m21.66,24.69l.75-.25c.1.75-.05,1.69-.25,2.93-.17,1.07-.08,1.91.05,2.45-.8-.11-1.14-1.14-.74-3.08.1-.51.21-1.16.19-2.05Z"
      fill="#fff"
      fill-rule="evenodd"
      stroke="#21231e"
      stroke-linejoin="round"
      stroke-width=".04"
    /><path
      d="m21.37,21.23c.18.9.31,1.96.17,3.12-.05.43-.14.78-.28,1.06.54-.06.88-.59.84-1.51l-.12-2.57-.61-.1Z"
      fill="#fff"
      fill-rule="evenodd"
      stroke="#21231e"
      stroke-linejoin="round"
      stroke-width=".04"
    /><path
      d="m21.76,21.35c.04.23.18.51.21.8.1.99.1,2.22-.2,3.01.54-.06.72-.55.74-1.47.01-.76.02-1.66-.17-2.69l-.58.35Z"
      fill="#fff"
      fill-rule="evenodd"
      stroke="#21231e"
      stroke-linejoin="round"
      stroke-width=".04"
    /><path
      d="m20.64,21.13l.5-.06c.09.47.16.8.18.97.03.33-.07.63-.18.85-.18-.11-.27-.35-.35-.69l-.15-1.08Z"
      fill="#fff"
      fill-rule="evenodd"
      stroke="#21231e"
      stroke-linejoin="round"
      stroke-width=".04"
    /><path
      d="m19.35,22.19h.44c.02.41.03.69.02.83-.01.28-.08.52-.2.7-.13-.11-.26-.31-.28-.6-.02-.29.02-.61.02-.92Z"
      fill="#fff"
      fill-rule="evenodd"
      stroke="#21231e"
      stroke-linejoin="round"
      stroke-width=".04"
    /><path
      d="m19.32,22.42c0,.41,0,.68,0,.82-.02.28-.1.51-.23.69-.13-.12-.25-.32-.26-.61l.5-.9Z"
      fill="#fff"
      fill-rule="evenodd"
      stroke="#21231e"
      stroke-linejoin="round"
      stroke-width=".04"
    /><path
      d="m19.8,21.96l.44-.03c.05.4.08.68.09.82,0,.28-.04.52-.15.71-.14-.1-.29-.29-.33-.58-.04-.29-.03-.61-.05-.92Z"
      fill="#fff"
      fill-rule="evenodd"
      stroke="#21231e"
      stroke-linejoin="round"
      stroke-width=".04"
    /><path
      d="m20.69,21.28c.08.33.19,1.4,0,1.86-.16-.11-.32-.31-.38-.64-.05-.32-.07-.67-.1-1.02l.48-.2Z"
      fill="#fff"
      fill-rule="evenodd"
      stroke="#21231e"
      stroke-linejoin="round"
      stroke-width=".04"
    /><path
      d="m18.96,27.73l.73.38c.21.47.41.71.66.93-.37.07-.68,0-.88-.27-.27-.36-.41-.58-.5-.63v-.4Z"
      fill="#fff"
      fill-rule="evenodd"
      stroke="#21231e"
      stroke-linejoin="round"
      stroke-width=".04"
    /><path
      d="m19.12,28c.18.36.3.61.35.75.1.26.13.51.08.72-.18-.05-.38-.17-.52-.43l.09-1.04Z"
      fill="#fff"
      fill-rule="evenodd"
      stroke="#21231e"
      stroke-linejoin="round"
      stroke-width=".04"
    /><path
      d="m19.03,28.12c.08.4.14.67.16.81.03.28,0,.53-.1.72-.16-.09-.33-.26-.4-.55-.07-.29-.08-.6-.13-.91l.47-.07Z"
      fill="#fff"
      fill-rule="evenodd"
      stroke="#21231e"
      stroke-linejoin="round"
      stroke-width=".04"
    /><path
      d="m18.07,28.36c.25.45.33.76.35,1.09.27-.25.4-.55.31-.87-.13-.43-.25-.93-.24-1.03l-.42.81Z"
      fill="#fff"
      fill-rule="evenodd"
      stroke="#21231e"
      stroke-linejoin="round"
      stroke-width=".04"
    /><path
      d="m18.81,27.2c.16.37.27.63.31.76.08.27.1.52.04.73-.17-.06-.4-.17-.52-.44-.12-.27-.17-.6-.28-.9l.45-.16Z"
      fill="#fff"
      fill-rule="evenodd"
      stroke="#21231e"
      stroke-linejoin="round"
      stroke-width=".04"
    /><path
      d="m18.76,26.44c.1-.03.24.21.37.35.03.03.07.06.09.1.06.08.1.18.13.29.11.5.27.76.48,1.02-.37,0-.66-.14-.8-.45-.19-.41-.29-.65-.36-.72l.1-.61Z"
      fill="#fff"
      fill-rule="evenodd"
      stroke="#21231e"
      stroke-linejoin="round"
      stroke-width=".04"
    /><path
      d="m17.65,28.81c-.32.4-.44.69-.52,1.02-.23-.29-.31-.6-.16-.9.54-.62.53-.62.68-.11Z"
      fill="#fff"
      fill-rule="evenodd"
      stroke="#21231e"
      stroke-linejoin="round"
      stroke-width=".04"
    /><path
      d="m17.56,28.52c-.31.4-.64.71-.72,1.03-.23-.29-.33-.6-.18-.9l.9-.13Z"
      fill="#fff"
      fill-rule="evenodd"
      stroke="#21231e"
      stroke-linejoin="round"
      stroke-width=".04"
    /><path
      d="m18.14,28.39c-.32.4-.44.69-.52,1.02-.23-.29-.31-.6-.16-.9l.68-.11Z"
      fill="#fff"
      fill-rule="evenodd"
      stroke="#21231e"
      stroke-linejoin="round"
      stroke-width=".04"
    /><path
      d="m13.54,30.31s-.02.03-.03.04c-.04.11-.18.3-.29.41-.17.17-.13.44-.01.59.12.16.19.34.22.47.02.09.04.28.02.58-.01.15-.1.22-.18.29-.04.03.03.12.16.22.01.01.05.03.07.11,0,.01.07.01.07,0,.02-.08.06-.1.07-.11.13-.1.2-.19.16-.22-.08-.07-.17-.14-.18-.29-.02-.3,0-.49.02-.58.03-.13.1-.31.22-.47.11-.15.16-.42-.01-.59-.11-.11-.26-.3-.29-.41,0-.01-.01-.04-.03-.04Z"
      fill="#edb92e"
      fill-rule="evenodd"
      stroke="#21231e"
      stroke-linejoin="round"
      stroke-width=".04"
    /><path
      d="m13.07,32.65c.3.22.57-.31.3-1.02-.2-.53-1.16-.31-.61.39.03.03.06.02.06-.02-.03-.15.05-.23.21-.2.39.07.4.81-.02.65-.08,0,0,.15.07.21Z"
      fill="#edb92e"
      fill-rule="evenodd"
      stroke="#21231e"
      stroke-linejoin="round"
      stroke-width=".04"
    /><path
      d="m14.01,32.65c-.3.22-.57-.31-.3-1.02.2-.53,1.16-.31.61.39-.03.03-.06.02-.06-.02.03-.15-.05-.23-.21-.2-.39.07-.4.81.02.65.08,0,0,.15-.07.21Z"
      fill="#edb92e"
      fill-rule="evenodd"
      stroke="#21231e"
      stroke-linejoin="round"
      stroke-width=".04"
    /><path
      d="m13.76,32.07s.07.01.09.04c.02.02.04.06.04.09s-.01.07-.04.09c-.02.02-.06.04-.09.04h-.44s-.07-.01-.09-.04c-.02-.02-.04-.06-.04-.09s.01-.07.04-.09c.02-.02.06-.04.09-.04h.44Z"
      fill="#edb92e"
      fill-rule="evenodd"
      stroke="#21231e"
      stroke-linejoin="round"
      stroke-width=".04"
    /><path
      d="m13.31,28.76c-.19.41-.41.78-.63,1.11-.11.04-.19.09-.26.11-.07.02-.59.01-.61-.02-.17-.13-.43-.02-.31.13-.07.07.07.27.19.19.11-.09.48,0,.59-.04-.04.11-.41.17-.63.19-.22.01-.19.22-.11.41l.07.04c.07.15.29.1.3-.04,0-.14.52-.33.59-.44-.07.22-.3.44-.41.67-.11.11-.19.11-.04.33l.26.04c.22,0,.26-.07.22-.26-.04-.19.14-.52.19-.61.04-.09.06-.18.1-.23.08-.1.47-.27.57-.23.19.1.31.04.33-.15-.04-.04,0-.3-.13-.32-.11-.02-.16.04-.26.11-.15.12-.23.19-.27.17-.12-.03.21-.19.51-.58.3-.39.41-.98-.25-.57Z"
      fill="#edb92e"
      fill-rule="evenodd"
      stroke="#21231e"
      stroke-linejoin="round"
      stroke-width=".04"
    /><path
      d="m11.5,30.18c-.15-.09-.23-.08-.29-.02-.03.04-.07.02-.05-.04.1-.23.26-.26.4-.15.04.04.07.07.1.1-.02.04-.14.08-.16.11h0Z"
      fill="#edb92e"
      fill-rule="evenodd"
      stroke="#21231e"
      stroke-linejoin="round"
      stroke-width=".04"
    /><path
      d="m13.63,29.98c.16-.11.31-.13.39-.07.04.03.09,0,.05-.05-.16-.23-.36-.24-.5-.11-.04.04-.07.08-.1.12.05.05.16.12.17.11h0Z"
      fill="#edb92e"
      fill-rule="evenodd"
      stroke="#21231e"
      stroke-linejoin="round"
      stroke-width=".04"
    /><path
      d="m12.39,31.3s-.04-.2-.1-.26c-.05.04-.11.08-.16.13-.16.16-.16.41.09.62.06.05.09,0,.06-.06-.04-.1,0-.23.11-.43Z"
      fill="#edb92e"
      fill-rule="evenodd"
      stroke="#21231e"
      stroke-linejoin="round"
      stroke-width=".04"
    /><path
      d="m11.77,30.79c-.15.06-.2.14-.19.24,0,.06-.03.08-.05.01-.18-.42,0-.49.28-.48.02.07-.02.23-.03.23Z"
      fill="#edb92e"
      fill-rule="evenodd"
      stroke="#21231e"
      stroke-linejoin="round"
      stroke-width=".04"
    /><path
      d="m13.75,29.05c-.07-.07-.14-.14-.21-.06-.07.08-.03.16.07.27-.07-.04-.15-.19-.22-.09-.07.1,0,.19.07.28-.09-.07-.15-.18-.23-.09-.07.09,0,.18.07.24-.07-.06-.15-.11-.19-.06-.07.08-.01.13.06.2-.08-.06-.14-.12-.2-.05-.06.07.02.15.06.18"
      fill="none"
      fill-rule="evenodd"
      stroke="#21231e"
      stroke-linecap="round"
      stroke-width=".04"
    /><path
      d="m13.73,24.05c0,.32-.05,2.47-.07,2.77-.02.3-.15.51-.29.63-.13-.18-.21-.42-.23-.71,0-.15.02-2.18.03-2.59l.56-.09Z"
      fill="#fff"
      fill-rule="evenodd"
      stroke="#21231e"
      stroke-linejoin="round"
      stroke-width=".04"
    /><path
      d="m12.34,23.53l-.09,2.95c-.03.26.31,1.82.5,2.12.46-.2.56-1.25.47-2.28-.09-1.03.01-1.92.08-2.1l-.96-.69Z"
      fill="#fff"
      fill-rule="evenodd"
      stroke="#21231e"
      stroke-linejoin="round"
      stroke-width=".04"
    /><path
      d="m11.79,24.01l.06,2.95c-.01.26.41,1.8.61,2.09.47-.36.37-1.84.3-2.29-.14-.89-.12-1.93-.07-2.1l-.9-.65Z"
      fill="#fff"
      fill-rule="evenodd"
      stroke="#21231e"
      stroke-linejoin="round"
      stroke-width=".04"
    /><path
      d="m11.39,24.71l.77-.02c-.07.32-.01,1.32.12,2.08.13.71.3,2.57-.44,3.01-.46-.98-.11-1.93-.34-2.77l-.11-2.3Z"
      fill="#fff"
      fill-rule="evenodd"
      stroke="#21231e"
      stroke-linejoin="round"
      stroke-width=".04"
    /><path
      d="m14.35,23.51l-.15,2.76c-.03.3-.17.5-.31.62-.13-.18-.2-.43-.21-.72,0-.15.08-2.17.11-2.59l.56-.07Z"
      fill="#fff"
      fill-rule="evenodd"
      stroke="#21231e"
      stroke-linejoin="round"
      stroke-width=".04"
    /><path
      d="m12.97,21.77c-.02.69-.03,2.19-.03,2.32,0,.29.12.65.25.84.15-.11.29-.31.31-.62.02-.25.03-1.46.03-2.07l-.57-.47Z"
      fill="#fff"
      fill-rule="evenodd"
      stroke="#21231e"
      stroke-linejoin="round"
      stroke-width=".04"
    /><path
      d="m13.53,22.21c-.01.74,0,1.92,0,2.01,0,.29.08.53.21.72.15-.11.3-.32.33-.62.02-.19.07-.98.07-1.59l-.6-.52Z"
      fill="#fff"
      fill-rule="evenodd"
      stroke="#21231e"
      stroke-linejoin="round"
      stroke-width=".04"
    /><path
      d="m13.05,21.7l-.53-.76c-.11.37-.24,3.07-.08,3.29,0,.29.11.53.24.72.15-.11.36-.32.3-.62-.06-.3,0-2.31.07-2.62Z"
      fill="#fff"
      fill-rule="evenodd"
      stroke="#21231e"
      stroke-linejoin="round"
      stroke-width=".04"
    /><path
      d="m11.97,23.4l-.04.84c0,.29.08.53.21.72.15-.11.33-.31.31-.62-.07-1.17.05-2.26.2-3.32l-.46-.28-.22,2.65Z"
      fill="#fff"
      fill-rule="evenodd"
      stroke="#21231e"
      stroke-linejoin="round"
      stroke-width=".04"
    /><path
      d="m11.44,24.16l.14.54c0,.29.19.53.31.71.15-.11.28-.3.24-.6-.21-1.72-.14-2.86.22-4.26-.82.56-1.19,1.73-.92,3.61h0Z"
      fill="#fff"
      fill-rule="evenodd"
      stroke="#21231e"
      stroke-linejoin="round"
      stroke-width=".04"
    /><path
      d="m11.48,24.69l-.75-.25c-.1.75.05,1.69.25,2.93.17,1.07.08,1.91-.05,2.45.8-.11,1.14-1.14.74-3.08-.1-.51-.21-1.16-.19-2.05Z"
      fill="#fff"
      fill-rule="evenodd"
      stroke="#21231e"
      stroke-linejoin="round"
      stroke-width=".04"
    /><path
      d="m11.77,21.23c-.18.9-.3,1.96-.17,3.12.05.43.14.78.28,1.06-.54-.06-.88-.59-.84-1.51l.12-2.57.61-.1Z"
      fill="#fff"
      fill-rule="evenodd"
      stroke="#21231e"
      stroke-linejoin="round"
      stroke-width=".04"
    /><path
      d="m11.38,21.35c-.04.23-.18.51-.21.8-.09.99-.1,2.22.2,3.01-.54-.06-.72-.55-.74-1.47-.01-.76-.02-1.66.17-2.69l.57.35Z"
      fill="#fff"
      fill-rule="evenodd"
      stroke="#21231e"
      stroke-linejoin="round"
      stroke-width=".04"
    /><path
      d="m12.5,21.13l-.5-.06c-.09.47-.16.8-.18.97-.03.33.07.63.18.85.18-.11.27-.35.35-.69l.15-1.08Z"
      fill="#fff"
      fill-rule="evenodd"
      stroke="#21231e"
      stroke-linejoin="round"
      stroke-width=".04"
    /><path
      d="m13.79,22.19h-.44c-.02.41-.03.69-.02.83.01.28.08.52.2.7.13-.11.26-.31.28-.6.02-.29-.02-.61-.02-.92Z"
      fill="#fff"
      fill-rule="evenodd"
      stroke="#21231e"
      stroke-linejoin="round"
      stroke-width=".04"
    /><path
      d="m13.83,22.42c0,.41,0,.68,0,.82.02.28.1.51.23.69.13-.12.25-.32.26-.61l-.5-.9Z"
      fill="#fff"
      fill-rule="evenodd"
      stroke="#21231e"
      stroke-linejoin="round"
      stroke-width=".04"
    /><path
      d="m13.35,21.96l-.44-.03c-.05.4-.08.68-.09.82,0,.28.04.52.15.71.14-.1.29-.29.33-.58.04-.29.03-.61.05-.92Z"
      fill="#fff"
      fill-rule="evenodd"
      stroke="#21231e"
      stroke-linejoin="round"
      stroke-width=".04"
    /><path
      d="m12.45,21.28c-.08.33-.19,1.4,0,1.86.16-.11.32-.31.38-.64.05-.32.07-.67.1-1.02l-.48-.2Z"
      fill="#fff"
      fill-rule="evenodd"
      stroke="#21231e"
      stroke-linejoin="round"
      stroke-width=".04"
    /><path
      d="m14.18,27.73l-.73.38c-.21.47-.41.71-.66.93.37.07.68,0,.88-.27.27-.36.41-.58.5-.63v-.4Z"
      fill="#fff"
      fill-rule="evenodd"
      stroke="#21231e"
      stroke-linejoin="round"
      stroke-width=".04"
    /><path
      d="m14.03,28c-.18.36-.3.61-.35.75-.1.26-.13.51-.08.72.18-.05.38-.17.52-.43l-.09-1.04Z"
      fill="#fff"
      fill-rule="evenodd"
      stroke="#21231e"
      stroke-linejoin="round"
      stroke-width=".04"
    /><path
      d="m14.12,28.12c-.08.4-.14.67-.16.81-.03.28,0,.53.1.72.16-.09.33-.26.4-.55.07-.29.08-.6.13-.91l-.47-.07Z"
      fill="#fff"
      fill-rule="evenodd"
      stroke="#21231e"
      stroke-linejoin="round"
      stroke-width=".04"
    /><path
      d="m15.07,28.36c-.25.45-.33.76-.35,1.09-.27-.25-.4-.55-.31-.87.13-.43.25-.93.24-1.03l.42.81Z"
      fill="#fff"
      fill-rule="evenodd"
      stroke="#21231e"
      stroke-linejoin="round"
      stroke-width=".04"
    /><path
      d="m14.33,27.2c-.16.37-.27.63-.31.76-.08.27-.1.52-.04.73.17-.06.4-.17.52-.44.12-.27.17-.6.28-.9l-.45-.16Z"
      fill="#fff"
      fill-rule="evenodd"
      stroke="#21231e"
      stroke-linejoin="round"
      stroke-width=".04"
    /><path
      d="m14.38,26.44c-.1-.03-.24.21-.37.35-.03.03-.07.06-.09.1-.06.08-.1.18-.13.29-.11.5-.27.76-.48,1.02.37,0,.66-.14.8-.45.19-.41.29-.65.36-.72l-.1-.61Z"
      fill="#fff"
      fill-rule="evenodd"
      stroke="#21231e"
      stroke-linejoin="round"
      stroke-width=".04"
    /><path
      d="m15.49,28.81c.31.4.44.69.52,1.02.23-.29.31-.6.16-.9-.54-.62-.53-.62-.68-.11Z"
      fill="#fff"
      fill-rule="evenodd"
      stroke="#21231e"
      stroke-linejoin="round"
      stroke-width=".04"
    /><path
      d="m15.58,28.52c.31.4.64.71.72,1.03.23-.29.33-.6.18-.9l-.9-.13Z"
      fill="#fff"
      fill-rule="evenodd"
      stroke="#21231e"
      stroke-linejoin="round"
      stroke-width=".04"
    /><path
      d="m15,28.39c.31.4.44.69.52,1.02.23-.29.31-.6.16-.9l-.68-.11Z"
      fill="#fff"
      fill-rule="evenodd"
      stroke="#21231e"
      stroke-linejoin="round"
      stroke-width=".04"
    /><path
      d="m16.57,21.04c-.07-.8-.21-1.35-.56-1.91.16.02.33-.01.25-.4-.23-.05-.31.03-.94-.27-.51-.24-1.27-.33-1.22-.07.1.52.44.89.79,1.15.17.41.57,1.2.29,1.63-.28.43-.51.64-.8.82.06.02.12.04.18.05-.04.06-.41.17-.45.14-.29-.19-.56-.66-.79-.93-.68-.77-1.03-1.37-.9-1.84.15-.52.78-1.09-.03-.99-.8.1-1.48,1.23-1.68,2.53-.07.48-.13.9-.18,1.24.44-.16.63-.31.75-.51-.05.19-.09.36-.12.52.36-.06.61-.24.71-.56.04-.13.09-.24.13-.33.11.04.25.04.43,0,.07.16.56.71.83,1.11.3.46.75.8.9.83h4.82c.15-.02.6-.37.9-.83.27-.4.76-.96.83-1.11.17.04.31.04.43,0,.05.09.1.2.13.33.1.31.35.5.71.56-.03-.16-.07-.34-.12-.52.11.19.31.35.75.51-.06-.34-.11-.76-.18-1.24-.2-1.3-.87-2.43-1.68-2.53-.8-.1-.18.47-.03.99.14.47-.22,1.07-.9,1.84-.24.27-.5.74-.79.93-.04.03-.41-.08-.45-.14.06-.01.12-.03.18-.05-.28-.18-.51-.39-.8-.82-.28-.43.13-1.22.29-1.63.35-.26.69-.63.79-1.15.05-.26-.71-.17-1.22.07-.63.3-.71.21-.94.27-.08.39.09.42.25.4-.34.56-.49,1.11-.56,1.91Z"
      fill="#fff"
      fill-rule="evenodd"
      stroke="#21231e"
      stroke-linejoin="round"
      stroke-width=".04"
    /><path
      d="m18.07,19.88l.71.1c.55.03.87-.15.94-.5-.2.24-.46.37-.73.3-.37-.09-.6-.17-.69-.15l-.22.24Z"
      fill="#edb92e"
      fill-rule="evenodd"
      stroke="#21231e"
      stroke-linejoin="round"
      stroke-width=".04"
    /><path
      d="m19.39,18.45c.61.07.59.46.01,1.04-.12.11-.14.11-.17,0-.05-.21-.26-.31-.37-.16-.07.1-.06.16-.32.12-.33.28-.59.47-.17.46.17,0,.34.1.58.09-.07.14-.09.16-.13.17-.24.04-.49-.1-.73-.06-.53.1.85-1.43.83-1.49-.04-.15.33-.43.47-.16Z"
      fill="#edb92e"
      fill-rule="evenodd"
      stroke="#21231e"
      stroke-linejoin="round"
      stroke-width=".04"
    /><path
      d="m18.52,18.94l.08-.08s.02-.12-.07-.2c-.06.03-.11.05-.16.07.03.11.08.18.15.21Z"
      fill="#21231e"
      fill-rule="evenodd"
      stroke-width="0"
    /><path
      d="m19.46,18.81s.05-.02.05-.05-.02-.05-.05-.05-.05.02-.05.05.02.05.05.05Z"
      fill="#21231e"
      fill-rule="evenodd"
      stroke-width="0"
    /><path
      d="m22.04,25.08c-.03.67-.07,1.19-.2,1.74-.13.56-.15.93-.17,1.48"
      fill="none"
      fill-rule="evenodd"
      stroke="#21231e"
      stroke-linecap="round"
      stroke-linejoin="round"
      stroke-width=".04"
    /><path
      d="m21.77,25.16c.31-.83.3-2.1.2-2.95-.11-.84-.64-1.95-.83-2.08"
      fill="none"
      fill-rule="evenodd"
      stroke="#21231e"
      stroke-linecap="round"
      stroke-linejoin="round"
      stroke-width=".04"
    /><path
      d="m19.39,18.45c-.02.12-.13.25-.31.39"
      fill="none"
      fill-rule="evenodd"
      stroke="#21231e"
      stroke-linecap="round"
      stroke-linejoin="round"
      stroke-width=".04"
    /><path
      d="m17.74,21.76c.26.3.6.37,1.01.23"
      fill="none"
      fill-rule="evenodd"
      stroke="#21231e"
      stroke-linecap="round"
      stroke-linejoin="round"
      stroke-width=".04"
    /><path
      d="m17.7,21.54c0,.11.06.31.17.61-.25-.06-.43-.17-.55-.34"
      fill="none"
      fill-rule="evenodd"
      stroke="#21231e"
      stroke-linecap="round"
      stroke-linejoin="round"
      stroke-width=".04"
    /><path
      d="m17.37,21.51c-.03.25-.1.45-.2.59-.14-.1-.23-.25-.29-.44"
      fill="none"
      fill-rule="evenodd"
      stroke="#21231e"
      stroke-linecap="round"
      stroke-linejoin="round"
      stroke-width=".04"
    /><path
      d="m18.16,18.82c.06.11.17.26.3.19.19-.11.22-.25.3-.38"
      fill="none"
      fill-rule="evenodd"
      stroke="#21231e"
      stroke-linecap="round"
      stroke-linejoin="round"
      stroke-width=".04"
    /><path
      d="m17.98,18.84c.08,0,.16-.03.35-.1s.39-.15.59-.13"
      fill="none"
      fill-rule="evenodd"
      stroke="#21231e"
      stroke-linecap="round"
      stroke-linejoin="round"
      stroke-width=".04"
    /><path
      d="m17.49,19.05c-.1.03-.22.05-.36.07"
      fill="none"
      fill-rule="evenodd"
      stroke="#21231e"
      stroke-linecap="round"
      stroke-linejoin="round"
      stroke-width=".04"
    /><path
      d="m15.08,19.89l-.71.1c-.55.03-.87-.15-.94-.5.2.24.46.37.73.3.37-.09.6-.17.69-.15l.22.24Z"
      fill="#edb92e"
      fill-rule="evenodd"
      stroke="#21231e"
      stroke-linejoin="round"
      stroke-width=".04"
    /><path
      d="m13.75,18.46c-.61.07-.59.46-.01,1.04.12.11.14.11.17,0,.05-.21.26-.31.37-.16.07.1.06.16.32.12.33.28.59.47.17.46-.17,0-.34.1-.58.09.07.14.09.16.13.17.24.04.49-.1.73-.06.53.1-.85-1.43-.83-1.49.04-.15-.33-.43-.47-.16Z"
      fill="#edb92e"
      fill-rule="evenodd"
      stroke="#21231e"
      stroke-linejoin="round"
      stroke-width=".04"
    /><path
      d="m14.63,18.94l-.08-.08c-.04-.05-.02-.12.07-.2.06.03.11.05.16.07-.03.11-.08.18-.15.21Z"
      fill="#21231e"
      fill-rule="evenodd"
      stroke-width="0"
    /><path
      d="m13.68,18.81s-.05-.02-.05-.05.02-.05.05-.05.05.02.05.05-.02.05-.05.05Z"
      fill="#21231e"
      fill-rule="evenodd"
      stroke-width="0"
    /><path
      d="m11.1,25.08c.03.67.07,1.19.2,1.74.13.56.15.93.17,1.48"
      fill="none"
      fill-rule="evenodd"
      stroke="#21231e"
      stroke-linecap="round"
      stroke-linejoin="round"
      stroke-width=".04"
    /><path
      d="m11.38,25.16c-.31-.83-.3-2.1-.2-2.95.11-.84.64-1.95.83-2.08"
      fill="none"
      fill-rule="evenodd"
      stroke="#21231e"
      stroke-linecap="round"
      stroke-linejoin="round"
      stroke-width=".04"
    /><path
      d="m13.75,18.46c.02.12.13.25.31.39"
      fill="none"
      fill-rule="evenodd"
      stroke="#21231e"
      stroke-linecap="round"
      stroke-linejoin="round"
      stroke-width=".04"
    /><path
      d="m15.4,21.77c-.26.3-.6.37-1.01.23"
      fill="none"
      fill-rule="evenodd"
      stroke="#21231e"
      stroke-linecap="round"
      stroke-linejoin="round"
      stroke-width=".04"
    /><path
      d="m15.45,21.54c0,.11-.06.31-.17.61.25-.06.43-.17.55-.34"
      fill="none"
      fill-rule="evenodd"
      stroke="#21231e"
      stroke-linecap="round"
      stroke-linejoin="round"
      stroke-width=".04"
    /><path
      d="m15.77,21.51c.03.25.1.45.2.59.14-.1.23-.25.29-.44"
      fill="none"
      fill-rule="evenodd"
      stroke="#21231e"
      stroke-linecap="round"
      stroke-linejoin="round"
      stroke-width=".04"
    /><path
      d="m14.99,18.82c-.06.11-.17.26-.3.19-.19-.11-.22-.25-.3-.38"
      fill="none"
      fill-rule="evenodd"
      stroke="#21231e"
      stroke-linecap="round"
      stroke-linejoin="round"
      stroke-width=".04"
    /><path
      d="m15.16,18.84c-.08,0-.16-.03-.35-.1-.19-.07-.39-.15-.59-.13"
      fill="none"
      fill-rule="evenodd"
      stroke="#21231e"
      stroke-linecap="round"
      stroke-linejoin="round"
      stroke-width=".04"
    /><path
      d="m15.65,19.06c.1.03.22.05.36.07"
      fill="none"
      fill-rule="evenodd"
      stroke="#21231e"
      stroke-linecap="round"
      stroke-linejoin="round"
      stroke-width=".04"
    /><path
      d="m16.24,21.45c.02.29.13.56.33.82.2-.26.31-.53.33-.82"
      fill="#fff"
      fill-rule="evenodd"
      stroke-width="0"
    /><path
      d="m16.24,21.45c.02.29.13.56.33.82.2-.26.31-.53.33-.82"
      fill="none"
      fill-rule="evenodd"
      stroke="#21231e"
      stroke-linejoin="round"
      stroke-width=".04"
    /><path
      d="m19.07,22.31v4.02c0,.72-.3,1.37-.74,1.84-.44.47-1.09.8-1.76.8s-1.31-.33-1.76-.8c-.44-.47-.74-1.13-.74-1.84v-4.02h5Z"
      fill="#c6363c"
      fill-rule="evenodd"
      stroke="#21231e"
      stroke-width=".09"
    /><path
      d="m19.05,24.78v1.04h-1.98v3.07c-.33.07-.67.07-1,0v-3.07h-1.98v-1.04h1.98v-2.44h1v2.44h1.98Z"
      fill="#fff"
      fill-rule="evenodd"
      stroke="#21231e"
      stroke-linecap="round"
      stroke-width=".04"
    /><path
      d="m17.42,26.24c.3-.11,1.11-.37,1.11.28,0,.31-.38.51-.48.24-.05-.14,0-.23.08-.26.08-.03.16.04.14.14.33-.17-.31-.53-.57-.06-.07.13.14.28.14.39s-.21.26-.14.39c.27.47.9.11.57-.06.02.1-.06.17-.14.14-.08-.03-.13-.12-.08-.26.1-.27.48-.07.48.24,0,.65-.81.39-1.11.28v-1.44Z"
      fill="#fff"
      fill-rule="evenodd"
      stroke="#21231e"
      stroke-linejoin="round"
      stroke-width=".04"
    /><path
      d="m15.72,22.91c-.3-.11-1.11-.37-1.11.28,0,.31.38.51.48.24.05-.14,0-.23-.08-.26s-.16.04-.14.14c-.33-.17.31-.53.57-.06.07.13-.14.28-.14.39s.21.26.14.39c-.27.47-.9.11-.57-.06-.02.1.06.17.14.14s.13-.12.08-.26c-.1-.27-.48-.07-.48.24,0,.65.81.39,1.11.28v-1.44Z"
      fill="#fff"
      fill-rule="evenodd"
      stroke="#21231e"
      stroke-linejoin="round"
      stroke-width=".04"
    /><path
      d="m17.42,22.91c.3-.11,1.11-.37,1.11.28,0,.31-.38.51-.48.24-.05-.14,0-.23.08-.26.08-.03.16.04.14.14.33-.17-.31-.53-.57-.06-.07.13.14.28.14.39s-.21.26-.14.39c.27.47.9.11.57-.06.02.1-.06.17-.14.14-.08-.03-.13-.12-.08-.26.1-.27.48-.07.48.24,0,.65-.81.39-1.11.28v-1.44Z"
      fill="#fff"
      fill-rule="evenodd"
      stroke="#21231e"
      stroke-linejoin="round"
      stroke-width=".04"
    /><path
      d="m15.72,26.24c-.3-.11-1.11-.37-1.11.28,0,.31.38.51.48.24.05-.14,0-.23-.08-.26-.08-.03-.16.04-.14.14-.33-.17.31-.53.57-.06.07.13-.14.28-.14.39s.21.26.14.39c-.27.47-.9.11-.57-.06-.02.1.06.17.14.14.08-.03.13-.12.08-.26-.1-.27-.48-.07-.48.24,0,.65.81.39,1.11.28v-1.44Z"
      fill="#fff"
      fill-rule="evenodd"
      stroke="#21231e"
      stroke-linejoin="round"
      stroke-width=".04"
    /></g></svg>
