<svg
  width="40"
  height="41"
  viewBox="0 0 40 41"
  fill="none"
  xmlns="http://www.w3.org/2000/svg"
>
<g clip-path="url(#clip0_17507_13406)">
<path d="M1 1.08887H39V39.0889H1V1.08887Z" fill="#E30A17" />
</g>
<path
    d="M18.6281 20.0892L24.3568 18.228L20.816 23.1009V17.0775L24.3568 21.9503L18.6281 20.0892ZM19.0186 23.4758C18.2849 24.6353 17.1944 25.5252 15.9113 26.0115C14.6281 26.4977 13.2218 26.5541 11.9038 26.1722C10.5859 25.7902 9.42763 24.9905 8.60339 23.8935C7.77915 22.7964 7.3335 21.4614 7.3335 20.0892C7.3335 18.717 7.77915 17.3819 8.60339 16.2849C9.42763 15.1878 10.5859 14.3882 11.9038 14.0062C13.2218 13.6242 14.6281 13.6806 15.9113 14.1669C17.1944 14.6532 18.2849 15.543 19.0186 16.7025C18.3334 15.9401 17.4331 15.4034 16.4364 15.1634C15.4398 14.9233 14.3938 14.9913 13.4366 15.3582C12.4794 15.7251 11.6561 16.3737 11.0752 17.2184C10.4944 18.0631 10.1834 19.0641 10.1834 20.0892C10.1834 21.1143 10.4944 22.1153 11.0752 22.96C11.6561 23.8046 12.4794 24.4533 13.4366 24.8202C14.3938 25.1871 15.4398 25.255 16.4364 25.015C17.4331 24.775 18.3334 24.2383 19.0186 23.4758Z"
    fill="white"
  />
<defs>
<clipPath id="clip0_17507_13406">
<rect width="38" height="38" fill="white" transform="translate(1 1.08887)" />
</clipPath>
</defs>
</svg>
