<svg
  width="41"
  height="34"
  viewBox="0 0 41 34"
  fill="none"
  xmlns="http://www.w3.org/2000/svg"
>
<g clip-path="url(#clip0_2028_728)">
<path
      fill-rule="evenodd"
      clip-rule="evenodd"
      d="M17.2146 29.1104V21.4896L5.63092 29.1104H17.2146Z"
      fill="#012169"
    />
<path
      fill-rule="evenodd"
      clip-rule="evenodd"
      d="M17.2146 11.7312V4.11041H5.63092L17.2146 11.7312Z"
      fill="#012169"
    />
<path
      fill-rule="evenodd"
      clip-rule="evenodd"
      d="M1.38123 6.90625V12.4438H9.79823L1.38123 6.90625Z"
      fill="#012169"
    />
<path
      fill-rule="evenodd"
      clip-rule="evenodd"
      d="M23.5479 4.11041V11.7312L35.1316 4.11041H23.5479Z"
      fill="#012169"
    />
<path
      fill-rule="evenodd"
      clip-rule="evenodd"
      d="M39.3812 26.3146V20.7771H30.9642L39.3812 26.3146Z"
      fill="#012169"
    />
<path
      fill-rule="evenodd"
      clip-rule="evenodd"
      d="M30.9642 12.4438H39.3812V6.90625L30.9642 12.4438Z"
      fill="#012169"
    />
<path
      fill-rule="evenodd"
      clip-rule="evenodd"
      d="M1.38123 20.7771V26.3146L9.79823 20.7771H1.38123Z"
      fill="#012169"
    />
<path
      fill-rule="evenodd"
      clip-rule="evenodd"
      d="M23.5479 29.1104H35.1316L23.5479 21.4896V29.1104Z"
      fill="#012169"
    />
<path
      fill-rule="evenodd"
      clip-rule="evenodd"
      d="M26.7146 12.4437H23.8836L36.5502 4.11041H35.1316L23.5479 11.7312V4.11041H22.2812V12.5646V13.4979V14.1104H24.1812H27.0123H28.4309H39.3812V12.4437H30.9643L39.3812 6.90625V5.97291V4.11041L26.7146 12.4437Z"
      fill="white"
    />
<path
      fill-rule="evenodd"
      clip-rule="evenodd"
      d="M17.2146 11.7312L5.63089 4.11041H4.21223H1.38123L14.0479 12.4437H11.2169L1.38123 5.97291V6.90625L9.79823 12.4437H1.38123V14.1104H12.3316H13.7502H16.5812H18.4812V13.4979V12.5646V4.11041H17.2146V11.7312Z"
      fill="white"
    />
<path
      fill-rule="evenodd"
      clip-rule="evenodd"
      d="M27.0123 19.1104H24.1812H22.2812V19.7229V20.6562V29.1104H23.5479V21.4896L35.1316 29.1104H36.5502H39.3812L26.7146 20.7771H29.5456L39.3812 27.2479V26.3146L30.9643 20.7771H39.3812V19.1104H28.4309H27.0123Z"
      fill="white"
    />
<path
      fill-rule="evenodd"
      clip-rule="evenodd"
      d="M13.7502 19.1104H12.3316H1.38123V20.7771H9.79823L1.38123 26.3146V27.2479V29.1104L14.0479 20.7771H16.8789L4.21223 29.1104H5.63089L17.2146 21.4896V29.1104H18.4812V20.6562V19.7229V19.1104H16.5812H13.7502Z"
      fill="white"
    />
<path
      fill-rule="evenodd"
      clip-rule="evenodd"
      d="M39.3812 4.11041H36.5502L23.8835 12.4437H26.7145L39.3812 4.11041Z"
      fill="#C8102E"
    />
<path
      fill-rule="evenodd"
      clip-rule="evenodd"
      d="M26.7145 20.7771L39.3812 29.1104V27.2479L29.5455 20.7771H26.7145Z"
      fill="#C8102E"
    />
<path
      fill-rule="evenodd"
      clip-rule="evenodd"
      d="M14.0479 12.4437L1.38123 4.11041V5.97291L11.2169 12.4437H14.0479Z"
      fill="#C8102E"
    />
<path
      fill-rule="evenodd"
      clip-rule="evenodd"
      d="M1.38123 29.1104H4.21223L16.8789 20.7771H14.0479L1.38123 29.1104Z"
      fill="#C8102E"
    />
<path
      fill-rule="evenodd"
      clip-rule="evenodd"
      d="M27.0122 14.1104H24.1812H22.2812V13.4979V12.5646V4.11041H20.3812H18.4812V12.5646V13.4979V14.1104H16.5812H13.7502H12.3316H1.38123V16.6104V19.1104H12.3316H13.7502H16.5812H18.4812V19.7229V20.6562V29.1104H20.3812H22.2812V20.6562V19.7229V19.1104H24.1812H27.0122H28.4309H39.3812V16.6104V14.1104H28.4309H27.0122Z"
      fill="#C8102E"
    />
</g>
<defs>
<clipPath id="clip0_2028_728">
<rect
        width="38"
        height="25"
        fill="white"
        transform="translate(1.38123 4.12708)"
      />
</clipPath>
</defs>
</svg>
