<svg
  width="40"
  height="40"
  viewBox="0 0 40 40"
  fill="none"
  xmlns="http://www.w3.org/2000/svg"
>
<g clip-path="url(#clip0_2011_545)">
<path d="M16.8333 15.1208V7.5H5.24966L16.8333 15.1208Z" fill="#012169" />
<path d="M23.1667 32.5H34.7503L23.1667 24.8792V32.5Z" fill="#012169" />
<path d="M1 10.2958V15.8333H9.417L1 10.2958Z" fill="#012169" />
<path d="M1 24.1667V29.7042L9.417 24.1667H1Z" fill="#012169" />
<path d="M16.8333 32.5V24.8792L5.24966 32.5H16.8333Z" fill="#012169" />
<path d="M23.1667 7.5V15.1208L34.7503 7.5H23.1667Z" fill="#012169" />
<path d="M39 29.7042V24.1667H30.583L39 29.7042Z" fill="#012169" />
<path d="M30.583 15.8333H39V10.2958L30.583 15.8333Z" fill="#012169" />
<path
      d="M39 9.3625L29.1643 15.8333H26.3333H23.5023L36.169 7.5H34.7503L23.1667 15.1208V7.5H21.9V15.9542V16.8875V17.5H23.8H26.631H28.0497H39V15.8333H30.583L39 10.2958V9.3625Z"
      fill="white"
    />
<path
      d="M16.8333 15.1208L5.24967 7.5H3.831L16.4977 15.8333H13.6667H10.8357L1 9.3625V10.2958L9.417 15.8333H1V17.5H11.9503H13.369H16.2H18.1V16.8875V15.9542V7.5H16.8333V15.1208Z"
      fill="white"
    />
<path
      d="M26.631 22.5H23.8H21.9V23.1125V24.0458V32.5H23.1667V24.8792L34.7503 32.5H36.169L23.5023 24.1667H26.3333H29.1643L39 30.6375V29.7042L30.583 24.1667H39V22.5H28.0497H26.631Z"
      fill="white"
    />
<path
      d="M13.369 22.5H11.9503H1V24.1667H9.417L1 29.7042V30.6375L10.8357 24.1667H13.6667H16.4977L3.831 32.5H5.24967L16.8333 24.8792V32.5H18.1V24.0458V23.1125V22.5H16.2H13.369Z"
      fill="white"
    />
<path
      d="M10.8357 24.1667L1 30.6375V32.5H3.831L16.4977 24.1667H13.6667H10.8357Z"
      fill="#C8102E"
    />
<path
      d="M26.3333 24.1667H23.5023L36.169 32.5H39V30.6375L29.1643 24.1667H26.3333Z"
      fill="#C8102E"
    />
<path
      d="M36.169 7.5L23.5023 15.8333H26.3333H29.1643L39 9.3625V7.5H36.169Z"
      fill="#C8102E"
    />
<path
      d="M13.6667 15.8333H16.4977L3.831 7.5H1V9.3625L10.8357 15.8333H13.6667Z"
      fill="#C8102E"
    />
<path
      d="M26.631 17.5H23.8H21.9V16.8875V15.9542V7.5H20H18.1V15.9542V16.8875V17.5H16.2H13.369H11.9503H1V20V22.5H11.9503H13.369H16.2H18.1V23.1125V24.0458V32.5H20H21.9V24.0458V23.1125V22.5H23.8H26.631H28.0497H39V20V17.5H28.0497H26.631Z"
      fill="#C8102E"
    />
</g>
<defs>
<clipPath id="clip0_2011_545">
<rect width="38" height="25" fill="white" transform="translate(1 7.5)" />
</clipPath>
</defs>
</svg>
