<svg width="290" height="72" viewBox="0 0 290 72" fill="none" xmlns="http://www.w3.org/2000/svg">
<path fill-rule="evenodd" clip-rule="evenodd" d="M155 24.5C155 24.5 194.8 19.3 196 19.1C197.7 18.8 199.3 18.5 200.7 18.1C203.9 17.2 206.9 15.9 209.5 14.1C212 12.4 214.4 9.9 216.7 7.2C218.2 5.5 219.7 3.2 221.2 1V0C219.5 2.6 217.8 4.8 216.1 6.7C213.8 9.3 211.4 11.4 208.9 13C206.4 14.6 203.5 15.9 200.4 16.7C199 17.1 197.5 17.3 195.8 17.6C194.7 17.8 193.6 17.9 192.5 18C192 18 155 21.9 155 21.9V24.5Z" fill="#BBBDBF"/>
<mask id="mask0_1698_40920" style="mask-type:alpha" maskUnits="userSpaceOnUse" x="155" y="5" width="67" height="23">
<path fill-rule="evenodd" clip-rule="evenodd" d="M155 5.2002H221.1V28.0002H155V5.2002Z" fill="white"/>
</mask>
<g mask="url(#mask0_1698_40920)">
<path fill-rule="evenodd" clip-rule="evenodd" d="M208.4 17.8002C205.9 19.2002 203 20.3002 199.8 20.9002C198.4 21.2002 197 21.4002 195.3 21.6002C194.3 21.7002 193.3 21.8002 192.3 21.9002C191.8 21.9002 191.2 22.0002 190.7 22.0002C178.5 23.2002 166.4 24.3002 155 25.4002V28.0002C166.4 26.6002 178.7 25.1002 190.9 23.7002C191.4 23.6002 192 23.6002 192.5 23.5002C193.5 23.4002 194.5 23.3002 195.5 23.1002C197.2 22.9002 198.8 22.6002 200.1 22.3002C203.4 21.6002 206.4 20.4002 209 18.8002C211.6 17.2002 213.8 15.1002 216.3 12.4002C217.8 10.7002 219.5 8.4002 221.1 6.2002V5.2002C219.2 7.7002 217.5 9.9002 215.7 11.7002C213.3 14.4002 210.9 16.4002 208.4 17.8002" fill="#BBBDBF"/>
</g>
<mask id="mask1_1698_40920" style="mask-type:alpha" maskUnits="userSpaceOnUse" x="155" y="10" width="67" height="22">
<path fill-rule="evenodd" clip-rule="evenodd" d="M155 10.9004H221.1V31.5004H155V10.9004Z" fill="white"/>
</mask>
<g mask="url(#mask1_1698_40920)">
<path fill-rule="evenodd" clip-rule="evenodd" d="M215.4 17.2004C213 19.4004 210.4 21.2004 207.9 22.5004C205.4 23.7004 202.6 24.6004 199.3 25.1004C197.9 25.3004 196.5 25.5004 194.8 25.7004L155 28.9004V31.5004L190.3 27.7004L194.9 27.2004C196.6 27.0004 198.1 26.8004 199.5 26.5004C202.9 25.9004 205.8 24.9004 208.4 23.6004C211.1 22.2004 213.7 20.0004 216.2 17.6004C217.9 16.0004 219.4 13.9004 221.1 11.8004V10.9004C219.1 13.4004 217.3 15.4004 215.4 17.2004" fill="#BBBDBF"/>
</g>
<mask id="mask2_1698_40920" style="mask-type:alpha" maskUnits="userSpaceOnUse" x="155" y="21" width="67" height="18">
<path fill-rule="evenodd" clip-rule="evenodd" d="M155 21.7002H221.2V38.5002H155V21.7002Z" fill="white"/>
</mask>
<g mask="url(#mask2_1698_40920)">
<path fill-rule="evenodd" clip-rule="evenodd" d="M205.8 30.6002C203.5 31.9002 201.8 32.7002 198.5 33.0002C196.5 33.2002 194.5 33.3002 192.5 33.4002C191.5 33.4002 190.6 33.5002 189.6 33.6002C183.6 33.9002 177.7 34.3002 171.7 34.7002L155 35.9002V38.5002L171.8 36.9002C177.2 36.4002 183.5 35.8002 189.7 35.3002L194.2 35.0002C195.9 34.9002 197.4 34.7002 198.7 34.5002C202.1 34.1002 205 33.4002 207.6 32.4002C210.4 31.4002 213 29.7002 215.6 27.8002C218 26.1002 221.2 22.7002 221.2 22.6002V21.7002C219.1 23.8002 217.8 25.0002 215.5 26.5002C212.6 28.5002 207.9 29.5002 205.8 30.6002" fill="#BBBDBF"/>
</g>
<path fill-rule="evenodd" clip-rule="evenodd" d="M206.6 35.6004C204.1 36.3004 201.3 36.8004 198 37.1004C196.7 37.2004 195.2 37.3004 193.6 37.4004L189.2 37.6004C178.2 38.1004 167.2 38.7004 155.1 39.3004V41.9004C166.7 41.0004 178 40.1004 189.4 39.3004L193.8 39.0004C195.5 38.9004 196.9 38.8004 198.3 38.6004C201.7 38.2004 204.6 37.6004 207.1 36.8004C209.9 35.9004 212.7 34.6004 215.3 32.9004C217.2 31.7004 219.2 30.2004 221.2 28.4004C219 30.3004 216.9 30.7004 214.8 32.0004C212.1 33.6004 209.4 34.8004 206.6 35.6004" fill="#BBBDBF"/>
<path fill-rule="evenodd" clip-rule="evenodd" d="M206.2 39.9002C203.7 40.5002 200.9 40.9002 197.6 41.0992C196.3 41.2002 194.9 41.2992 193.2 41.2992L188.8 41.5002C177.7 41.9002 166.5 42.4002 155 42.9002V45.5002C166.4 44.7002 177.6 44.0002 188.9 43.2002L193.3 42.9002C195 42.7992 196.4 42.7002 197.7 42.5992C201.1 42.2992 203.9 41.7992 206.5 41.0992C209.4 40.2992 212.2 39.2002 214.9 37.7992C217 36.7002 219 35.4002 221.1 33.7992V32.7002C218.8 34.4002 216.6 35.7002 214.4 36.7992C211.8 38.2002 209 39.2002 206.2 39.9002" fill="#BBBDBF"/>
<mask id="mask3_1698_40920" style="mask-type:alpha" maskUnits="userSpaceOnUse" x="155" y="38" width="67" height="11">
<path fill-rule="evenodd" clip-rule="evenodd" d="M155 38.2002H221.2V48.7992H155V38.2002Z" fill="white"/>
</mask>
<g mask="url(#mask3_1698_40920)">
<path fill-rule="evenodd" clip-rule="evenodd" d="M205.8 44.0992C203.3 44.5992 200.5 44.9002 197.2 44.9992C195.9 45.0992 194.6 45.0992 192.9 45.2002L155 46.2002V48.7992L188.6 46.9992L193 46.7992C194.7 46.7002 196.1 46.5992 197.4 46.4992C200.8 46.2002 203.5 45.9002 206.1 45.2992C209 44.7002 211.9 43.7992 214.6 42.5992C216.8 41.7002 218.9 40.5992 221.2 39.2002V38.2002C218.8 39.5992 216.5 40.7002 214.2 41.5992C211.5 42.7992 208.7 43.5992 205.8 44.0992" fill="#BBBDBF"/>
</g>
<path fill-rule="evenodd" clip-rule="evenodd" d="M205.5 48.2998C200.8 48.9008 196.1 48.9998 191.4 49.0998C190.3 49.0998 189.3 49.0998 188.2 49.1998L155 49.7998V52.4008L188.3 50.9998C189.4 50.9998 190.4 50.9008 191.5 50.9008C196.2 50.6998 201 50.4998 205.7 49.7998C208.7 49.2998 211.6 48.5998 214.2 47.6998C216.4 46.9998 218.7 45.9998 221 44.7998V43.7998C218.6 44.9008 216.1 45.9008 213.8 46.5998C211.3 47.2998 208.5 47.9998 205.5 48.2998" fill="#BBBDBF"/>
<mask id="mask4_1698_40920" style="mask-type:alpha" maskUnits="userSpaceOnUse" x="155" y="49" width="67" height="7">
<path fill-rule="evenodd" clip-rule="evenodd" d="M155 49.2002H221.2V55.7992H155V49.2002Z" fill="white"/>
</mask>
<g mask="url(#mask4_1698_40920)">
<path fill-rule="evenodd" clip-rule="evenodd" d="M205.3 52.5992C200.9 52.9992 196.5 52.9992 192.1 52.9992H188.1C177.1 52.9992 166.1 53.0992 155 53.2002V55.7992C165.6 55.4002 176.9 55.0992 188.2 54.7002C189.5 54.7002 190.9 54.5992 192.2 54.5992C196.5 54.4992 201 54.4002 205.4 53.9002C208.5 53.5992 211.3 53.0992 214 52.4002C216.3 51.7992 218.7 50.9992 221.2 50.0992V49.2002C218.7 50.0992 216.2 50.7992 213.8 51.4002C211.1 51.9992 208.3 52.4002 205.3 52.5992" fill="#BBBDBF"/>
</g>
<path fill-rule="evenodd" clip-rule="evenodd" d="M205.1 56.7994C203.3 56.9004 201.3 56.9004 199.1 56.9004H196.6L188 56.7994C182.1 56.7994 176.3 56.6994 170.8 56.6994L155 56.7994V59.4004L170.9 58.9994C176.4 58.9004 182.2 58.6994 188 58.5994L196.6 58.4994C199 58.4994 202.1 58.4004 205.2 58.1994C208.3 57.9994 211.1 57.6994 213.8 57.2994C216.2 56.9004 218.7 56.4004 221.2 55.7994V54.9004C218.7 55.4994 216.1 55.9994 213.7 56.2994C210.9 56.4994 208.2 56.6994 205.1 56.7994" fill="#BBBDBF"/>
<path fill-rule="evenodd" clip-rule="evenodd" d="M196.5 60.9L187.9 60.799C177 60.599 166.1 60.4 155 60.2V62.799C165.6 62.7 176.8 62.599 187.9 62.5L196.5 62.4C199.4 62.4 202.2 62.299 205.1 62.2C211 62 216.2 61.599 221.2 60.9V60C216.3 60.5 211 60.799 205.1 60.9H196.5" fill="#BBBDBF"/>
<path fill-rule="evenodd" clip-rule="evenodd" d="M221.1 65.4998L155 63.7998V66.3998H221.1V65.4998Z" fill="#BBBDBF"/>
<path fill-rule="evenodd" clip-rule="evenodd" d="M215.2 22.0004C212.7 24.0004 210.7 25.5004 207.7 26.7004C205 27.8004 202.1 28.2004 198.9 28.7004C196.8 29.0004 194.6 29.4004 192.5 29.6004C191.6 29.7004 190.8 29.7004 189.9 29.8004L155 32.3004V34.9004L189.9 31.5004L194.4 31.1004C196.1 30.9004 197.6 30.8004 199 30.5004C202.4 30.0004 205.3 29.1004 207.9 27.9004C210.6 26.7004 213.4 24.7004 215.9 22.6004C217.6 21.1004 219.3 19.3004 221.1 17.3004V16.4004C218.9 18.6004 217.1 20.5004 215.2 22.0004" fill="#BBBDBF"/>
<path fill-rule="evenodd" clip-rule="evenodd" d="M249.201 0C249.201 0 261.101 18.9 263.301 22.4C265.501 25.9 268.001 28.6 276.801 30.5C285.601 32.4 289.401 33.2 289.401 33.2V33.9C289.401 33.9 283.801 32.7 276.601 31.1C269.401 29.5 266.501 29 263.201 24.4C260.501 20.6 249.201 4.5 249.201 4.5V0Z" fill="#BBBDBF"/>
<path fill-rule="evenodd" clip-rule="evenodd" d="M249.201 21.6006C249.201 21.6006 260.001 32.9006 263.201 36.2006C266.501 39.7006 270.801 40.9006 276.701 42.0006C282.301 43.0006 289.401 44.2006 289.401 44.2006V44.8006C289.401 44.8006 282.701 43.7006 276.701 42.7006C270.801 41.7006 266.601 41.1006 263.201 38.0006C260.201 35.2006 249.301 25.0006 249.301 25.0006L249.201 21.6006Z" fill="#BBBDBF"/>
<path fill-rule="evenodd" clip-rule="evenodd" d="M249.201 26.7998C249.201 26.7998 259.501 36.3998 263.201 39.5998C266.601 42.5998 269.301 43.4998 276.701 44.9008C284.101 46.1998 289.401 46.9998 289.401 46.9998V47.6998C289.401 47.6998 282.701 46.5998 276.701 45.5998C270.701 44.5998 266.801 44.2998 263.201 41.2998C259.001 37.9008 249.201 29.8998 249.201 29.8998V26.7998Z" fill="#BBBDBF"/>
<path fill-rule="evenodd" clip-rule="evenodd" d="M249.201 32.2002C249.201 32.2002 261.001 41.5002 263.201 43.2002C265.401 44.8002 268.301 46.7002 276.701 48.0002C285.101 49.2002 289.401 49.8002 289.401 49.8002V50.5002C289.401 50.5002 281.801 49.4002 276.701 48.8002C271.601 48.2002 267.701 47.9002 263.201 44.9002C258.801 42.0002 249.201 35.2002 249.201 35.2002V32.2002Z" fill="#BBBDBF"/>
<path fill-rule="evenodd" clip-rule="evenodd" d="M249.201 37.4004C249.201 37.4004 261.001 45.2994 263.201 46.5004C265.401 47.7004 268.101 49.7994 276.701 50.9004C285.301 52.0004 289.401 52.5004 289.401 52.5004V53.2004C289.401 53.2004 282.301 52.4004 276.701 51.7994C271.101 51.2004 267.301 50.4004 263.201 48.0994C259.101 45.7994 249.201 40.0994 249.201 40.0994V37.4004Z" fill="#BBBDBF"/>
<path fill-rule="evenodd" clip-rule="evenodd" d="M249.201 42.7002C249.201 42.7002 259.601 48.4002 263.201 50.0992C267.101 52.0992 270.501 53.0002 276.701 53.8002C282.801 54.5002 289.401 55.2002 289.401 55.2002V55.8002C289.401 55.8002 283.301 55.0992 276.701 54.5002C270.201 53.9002 267.901 53.5992 263.201 51.5002C259.001 49.5992 249.201 45.0992 249.201 45.0992V42.7002Z" fill="#BBBDBF"/>
<path fill-rule="evenodd" clip-rule="evenodd" d="M249.2 48C249.2 48 257.4 51.5 263.2 53.8C268.9 56.1 273.2 56.3 276.7 56.6C278.2 56.8 289.3 57.9 289.3 57.9V58.5C289.3 58.5 282.7 58 276.6 57.4C270.6 56.9 268 56.6 263.1 55C258.2 53.4 249.1 50.2 249.1 50.2L249.2 48Z" fill="#BBBDBF"/>
<path fill-rule="evenodd" clip-rule="evenodd" d="M249.201 53.4004C249.201 53.4004 257.501 56.0004 263.201 57.5004C268.901 59.0004 274.101 59.5994 276.701 59.7994C279.301 60.0004 289.401 60.7994 289.401 60.7994V61.4004C289.401 61.4004 283.701 61.0004 276.701 60.5004C271.001 60.0994 266.501 59.7004 263.201 58.9004C259.501 58.0994 249.201 55.5994 249.201 55.5994V53.4004Z" fill="#BBBDBF"/>
<path fill-rule="evenodd" clip-rule="evenodd" d="M249.201 58.7002C249.201 58.7002 256.001 59.9002 263.201 61.0992C268.601 62.0002 275.901 62.5992 276.701 62.5992C277.501 62.5992 289.401 63.5002 289.401 63.5002V64.0992C289.401 64.0992 281.801 63.7002 276.701 63.4002C271.401 63.0992 266.201 62.8002 263.201 62.5002C256.501 61.8002 249.201 60.9002 249.201 60.9002V58.7002Z" fill="#BBBDBF"/>
<path fill-rule="evenodd" clip-rule="evenodd" d="M249.201 64.2998C249.201 64.2998 259.901 64.6998 263.201 64.7998C266.501 64.9008 289.401 65.7998 289.401 65.7998V66.4008H249.201V64.2998Z" fill="#BBBDBF"/>
<path fill-rule="evenodd" clip-rule="evenodd" d="M276.701 33.3994C267.001 31.2994 264.801 27.7994 263.201 25.5994C261.601 23.3994 249.301 5.39941 249.301 5.39941V9.49941C249.801 10.0994 260.301 23.8994 263.301 27.6994C266.601 31.9994 271.801 32.9994 276.801 33.9994C281.801 35.0994 289.501 36.5994 289.501 36.5994V35.9994C289.401 35.9994 279.201 33.9994 276.701 33.3994" fill="#BBBDBF"/>
<path fill-rule="evenodd" clip-rule="evenodd" d="M276.701 36.2994C268.701 34.6994 265.501 32.1994 263.201 29.1994C260.901 26.0994 249.301 10.8994 249.301 10.8994V14.6994C249.801 15.2994 260.401 27.7994 263.201 31.0994C266.501 34.8994 271.101 35.8994 276.701 36.8994C282.301 37.9004 289.401 39.2994 289.401 39.2994V38.6994C289.401 38.6994 281.301 37.1994 276.701 36.2994" fill="#BBBDBF"/>
<path fill-rule="evenodd" clip-rule="evenodd" d="M276.701 39.2006C268.401 37.5996 266.701 36.3006 263.201 32.4006C261.001 30.0006 249.701 16.7006 249.201 16.1006V19.6006C249.201 19.6006 259.701 30.8006 263.101 34.2006C267.501 38.5996 271.701 38.9006 276.601 39.8006C281.501 40.7006 289.301 42.0996 289.301 42.0996V41.5006C289.401 41.5006 280.001 39.9006 276.701 39.2006" fill="#BBBDBF"/>
<path fill-rule="evenodd" clip-rule="evenodd" d="M182.5 66.2996H240.4V27.5996H182.5V66.2996Z" fill="#004494"/>
<path fill-rule="evenodd" clip-rule="evenodd" d="M212.1 33.1006H214.1L212.5 34.4006L213.1 36.4006L211.5 35.2006L209.9 36.4006L210.5 34.4006L208.9 33.1006H210.9L211.5 31.1006L212.1 33.1006Z" fill="#FFF100"/>
<path fill-rule="evenodd" clip-rule="evenodd" d="M212.1 58.9H214.1L212.5 60.099L213.1 62L211.5 60.799L209.9 62L210.5 60.099L208.9 58.9H210.9L211.5 57L212.1 58.9Z" fill="#FFF100"/>
<path fill-rule="evenodd" clip-rule="evenodd" d="M218.501 57.1998H220.501L218.901 58.3998L219.501 60.2998L217.901 59.0988L216.301 60.2998L216.901 58.3998L215.301 57.1998H217.301L217.901 55.2998L218.501 57.1998Z" fill="#FFF100"/>
<path fill-rule="evenodd" clip-rule="evenodd" d="M218.5 34.7994H220.5L218.9 35.9994L219.5 37.9004L217.9 36.6994L216.3 37.9994L217 35.9994L215.4 34.7994H217.4L218 32.8994L218.5 34.7994Z" fill="#FFF100"/>
<path fill-rule="evenodd" clip-rule="evenodd" d="M223.3 39.5992H225.3L223.7 40.7992L224.3 42.7002L222.7 41.4992L221.1 42.7002L221.7 40.7992L220.1 39.5992H222.1L222.7 37.7002L223.3 39.5992Z" fill="#FFF100"/>
<path fill-rule="evenodd" clip-rule="evenodd" d="M223.3 52.5992H225.3L223.7 53.7992L224.3 55.7002L222.7 54.4992L221.1 55.7002L221.7 53.7992L220.1 52.5992H222.1L222.7 50.7002L223.3 52.5992Z" fill="#FFF100"/>
<path fill-rule="evenodd" clip-rule="evenodd" d="M225.101 45.9996H227.101L225.501 47.1996L226.101 49.0996L224.501 47.8996L222.901 49.0996L223.501 47.1996L221.801 45.9996H223.801L224.401 44.0996L225.101 45.9996Z" fill="#FFF100"/>
<path fill-rule="evenodd" clip-rule="evenodd" d="M205.501 34.8H207.501L205.901 36L206.501 37.901L205.001 36.8L203.301 38L203.901 36.1L202.301 34.9H204.301L205.001 33L205.501 34.8Z" fill="#FFF100"/>
<path fill-rule="evenodd" clip-rule="evenodd" d="M200.899 39.5992H202.899L201.299 40.7992L201.899 42.7002L200.299 41.4992L198.699 42.7002L199.299 40.7992L197.699 39.5992H199.699L200.299 37.7002L200.899 39.5992Z" fill="#FFF100"/>
<path fill-rule="evenodd" clip-rule="evenodd" d="M199.2 45.9996H201.2L199.6 47.1996L200.2 49.0996L198.6 47.8996L197 49.0996L197.6 47.1996L196 45.9996H198L198.6 44.0996L199.2 45.9996Z" fill="#FFF100"/>
<path fill-rule="evenodd" clip-rule="evenodd" d="M200.899 52.5992H202.899L201.299 53.7992L201.899 55.7002L200.299 54.4992L198.699 55.7002L199.299 53.7992L197.699 52.5992H199.699L200.299 50.7002L200.899 52.5992Z" fill="#FFF100"/>
<path fill-rule="evenodd" clip-rule="evenodd" d="M205.6 57.2994H207.6L206 58.4994L206.6 60.4004L205 59.1994L203.4 60.4004L204 58.4994L202.4 57.2994H204.4L205 55.4004L205.6 57.2994Z" fill="#FFF100"/>
<path fill-rule="evenodd" clip-rule="evenodd" d="M74 66.7H77.3V28H74V66.7Z" fill="#004494"/>
<path d="M93.6016 39.0312C93.6016 39.1615 93.5951 39.2721 93.582 39.3633C93.569 39.4544 93.5365 39.5684 93.4844 39.7051C93.1198 38.8913 92.5794 38.0514 91.8633 37.1855C91.069 36.2285 90.444 35.75 89.9883 35.75C89.8906 35.75 89.793 35.8346 89.6953 36.0039C89.5977 36.1732 89.4837 36.2578 89.3535 36.2578C89.1777 36.2578 88.901 36.1439 88.5234 35.916C88.0482 35.6296 87.6673 35.2975 87.3809 34.9199C86.9967 34.4121 86.8047 33.8717 86.8047 33.2988C86.8047 32.8887 86.9382 32.6836 87.2051 32.6836C87.6738 32.6836 88.4062 32.9798 89.4023 33.5723C90.5156 34.2298 91.4499 34.998 92.2051 35.877C93.1361 36.9512 93.6016 38.0026 93.6016 39.0312ZM97.6445 44.1387H97.0488C96.502 44.1387 96.0625 43.8424 95.7305 43.25C95.3333 42.5339 95.1348 41.4499 95.1348 39.998C95.1348 39.8939 95.1217 39.7539 95.0957 39.5781C95.0762 39.4023 95.0664 39.2917 95.0664 39.2461C94.4414 40.9844 93.8848 42.1758 93.3965 42.8203C92.8171 43.5755 92 44.0768 90.9453 44.3242C90.0469 44.5326 88.5169 44.6367 86.3555 44.6367V44.3633C88.1068 43.8359 89.4121 43.3802 90.2715 42.9961C91.6582 42.3841 92.7096 41.6777 93.4258 40.877C94.2917 39.9134 94.7246 38.7708 94.7246 37.4492C94.7246 36.8112 94.6823 36.2155 94.5977 35.6621C94.5195 35.1087 94.4089 34.5423 94.2656 33.9629L94.5879 33.1426C94.7181 32.8236 94.8385 32.5534 94.9492 32.332C95.1185 33.2695 95.278 34.2819 95.4277 35.3691C95.5319 36.1178 95.6328 36.9219 95.7305 37.7812C95.8542 38.8359 95.9616 39.6855 96.0527 40.3301C96.1699 41.1504 96.3457 41.7363 96.5801 42.0879C96.7363 42.3223 96.8926 42.4395 97.0488 42.4395H97.6445V44.1387Z" fill="#626366"/>
<path d="M105.525 44.1387H104.51C104.074 44.1387 103.582 44.041 103.035 43.8457C102.404 43.6178 101.847 43.3053 101.365 42.9082C100.988 43.3704 100.6 43.6927 100.203 43.875C99.8125 44.0508 99.2396 44.1387 98.4844 44.1387H96.9609V42.4395H98.4551C99.0475 42.4395 99.5749 42.2897 100.037 41.9902C100.395 41.7559 100.721 41.4271 101.014 41.0039C101.411 40.431 101.899 39.9329 102.479 39.5098C102.999 39.1322 103.478 38.8913 103.914 38.7871C104.363 39.4707 104.721 40.0859 104.988 40.6328C105.346 41.375 105.525 41.9772 105.525 42.4395V44.1387ZM104.402 42.2148C104.318 41.8372 104.188 41.4661 104.012 41.1016C103.862 40.7956 103.663 40.4798 103.416 40.1543C103.104 40.2324 102.84 40.3789 102.625 40.5938C102.482 40.7305 102.312 40.9616 102.117 41.2871C102.352 41.541 102.68 41.7689 103.104 41.9707C103.533 42.1725 103.937 42.2962 104.314 42.3418L104.402 42.2148Z" fill="#626366"/>
<path d="M109.588 33.3184L108.836 34.7441L107.264 33.9043L107.986 32.4785L109.588 33.3184ZM110.887 44.1387H104.852V42.4395H110.057C110.057 41.86 109.988 41.3164 109.852 40.8086C109.513 40.9193 109.253 40.9974 109.07 41.043C108.771 41.1211 108.507 41.1602 108.279 41.1602C107.804 41.1602 107.417 41.0397 107.117 40.7988C106.772 40.5254 106.6 40.1315 106.6 39.6172C106.6 38.7122 106.762 37.9212 107.088 37.2441C107.452 36.4889 107.928 36.1113 108.514 36.1113C109.308 36.1113 109.92 36.7331 110.35 37.9766C110.708 39.0052 110.887 40.2129 110.887 41.5996V44.1387ZM109.295 39.0605C109.204 38.8262 109.057 38.5885 108.855 38.3477C108.582 38.0221 108.322 37.8594 108.074 37.8594C107.898 37.8594 107.752 37.9342 107.635 38.084C107.524 38.2272 107.469 38.3997 107.469 38.6016C107.469 39.1224 107.755 39.3828 108.328 39.3828C108.478 39.3828 108.637 39.3535 108.807 39.2949C108.976 39.2363 109.139 39.1582 109.295 39.0605Z" fill="#626366"/>
<path d="M119.529 43.5527C119.529 44.627 119.132 45.6947 118.338 46.7559C117.452 47.9408 116.43 48.5332 115.271 48.5332C114.842 48.5332 114.399 48.4844 113.943 48.3867C113.611 48.3151 113.178 48.1914 112.645 48.0156C112.221 47.8659 111.798 47.7194 111.375 47.5762L111.541 47.2344C111.906 47.319 112.286 47.4069 112.684 47.498C113.087 47.5957 113.449 47.6445 113.768 47.6445C114.562 47.6445 115.314 47.4427 116.023 47.0391C116.577 46.7201 117.13 46.2578 117.684 45.6523C117.964 45.3464 118.361 44.8483 118.875 44.1582C117.996 44.1582 117.339 44.0182 116.902 43.7383C116.408 43.4193 116.16 42.8952 116.16 42.166C116.16 41.4954 116.316 40.8737 116.629 40.3008C116.993 39.6367 117.456 39.3047 118.016 39.3047C118.582 39.3047 118.989 39.6335 119.236 40.291C119.432 40.8053 119.529 41.5215 119.529 42.4395V43.5527ZM118.914 42.4883C118.771 41.8633 118.598 41.4303 118.396 41.1895C118.221 40.9811 118.006 40.877 117.752 40.877C117.57 40.877 117.41 40.9388 117.273 41.0625C117.143 41.1797 117.078 41.3294 117.078 41.5117C117.078 41.8307 117.221 42.0749 117.508 42.2441C117.794 42.4069 118.263 42.4883 118.914 42.4883Z" fill="#626366"/>
<path d="M130.252 36.0234L129.51 37.4395L127.928 36.6191L128.65 35.1934L130.252 36.0234ZM136.463 44.1387H124.725C124.373 44.1387 124.038 44.0801 123.719 43.9629C123.478 43.8717 123.195 43.7253 122.869 43.5234C122.596 43.7578 122.322 43.9206 122.049 44.0117C121.775 44.0964 121.339 44.1387 120.74 44.1387H118.855V42.4395H120.74C121.268 42.4395 121.645 42.3939 121.873 42.3027C122.251 42.153 122.439 41.8535 122.439 41.4043C122.439 41.2155 122.426 41.0267 122.4 40.8379C122.381 40.6426 122.348 40.431 122.303 40.2031L122.703 39.6172C122.931 40.5026 123.243 41.1862 123.641 41.668C124.064 42.1823 124.562 42.4395 125.135 42.4395C125.682 42.4395 126.323 42.3158 127.059 42.0684C127.853 41.8014 128.536 41.4629 129.109 41.0527C130.04 40.3887 130.61 39.9915 130.818 39.8613C131.346 39.5228 131.824 39.2819 132.254 39.1387C132.736 38.9759 133.263 38.8945 133.836 38.8945C134.721 38.8945 135.389 39.1517 135.838 39.666C136.255 40.1413 136.463 40.8086 136.463 41.668V44.1387ZM134.871 41.6875C134.871 41.3685 134.673 41.1211 134.275 40.9453C133.878 40.763 133.416 40.6719 132.889 40.6719C132.238 40.6719 131.45 40.89 130.525 41.3262C129.79 41.6973 129.057 42.0684 128.328 42.4395H132.83C133.54 42.4395 134.057 42.3776 134.383 42.2539C134.708 42.1302 134.871 41.9414 134.871 41.6875Z" fill="#626366"/>
<path d="M141.355 44.1387H135.789V42.4395H140.643C140.643 41.6712 140.551 41.0853 140.369 40.6816C140.245 40.4017 139.939 39.998 139.451 39.4707L140.213 37.8789C140.682 38.4714 140.975 38.9336 141.092 39.2656C141.268 39.7669 141.355 40.597 141.355 41.7559V44.1387ZM141.307 46.0918L140.545 47.498L138.963 46.6582L139.695 45.2617L141.307 46.0918ZM139.061 46.9707L138.318 48.3867L136.736 47.5664L137.459 46.1504L139.061 46.9707Z" fill="#626366"/>
<path d="M145.926 35.0176L145.164 36.4238L143.582 35.584L144.314 34.1875L145.926 35.0176ZM143.68 35.8965L142.938 37.3125L141.355 36.4922L142.078 35.0762L143.68 35.8965ZM146.785 41.2578C146.785 42.1758 146.635 42.8659 146.336 43.3281C145.874 44.0443 145.027 44.4023 143.797 44.4023C143.322 44.4023 142.928 44.3079 142.615 44.1191C142.257 43.9043 142.078 43.5983 142.078 43.2012C142.078 42.7454 142.192 42.2181 142.42 41.6191C142.628 41.1113 142.84 40.6003 143.055 40.0859L142.908 40.0469L143.504 38.3965C144.682 39.015 145.385 39.4056 145.613 39.5684C146.395 40.1152 146.785 40.6784 146.785 41.2578ZM145.936 42.0195C145.936 41.7721 145.577 41.4434 144.861 41.0332C144.555 40.8574 144.227 40.6849 143.875 40.5156C143.582 40.8346 143.406 41.0332 143.348 41.1113C143.165 41.3652 143.074 41.6061 143.074 41.834C143.074 42.166 143.165 42.4264 143.348 42.6152C143.536 42.7975 143.787 42.8887 144.1 42.8887C144.464 42.8887 144.861 42.7878 145.291 42.5859C145.721 42.3776 145.936 42.1888 145.936 42.0195Z" fill="#626366"/>
<path d="M99.6172 53.8164L99.1484 55.5742L98.5723 55.291L98.5918 56.1797C98.5918 57.0521 98.4811 57.8984 98.2598 58.7188C98.0189 59.6172 97.638 60.5059 97.1172 61.3848C97.3646 61.8405 97.5371 62.1986 97.6348 62.459C97.7845 62.8691 97.8594 63.2858 97.8594 63.709C97.8594 63.9499 97.8529 64.1549 97.8398 64.3242C97.8268 64.4935 97.7975 64.6921 97.752 64.9199C97.0618 65.0762 96.3229 65.1999 95.5352 65.291C94.7539 65.3757 93.9922 65.418 93.25 65.418C93.2565 65.2943 93.2598 65.1901 93.2598 65.1055C93.2923 64.6107 93.3704 64.1517 93.4941 63.7285C94.6009 63.1361 95.5352 62.3678 96.2969 61.4238C95.8411 60.5645 95.5091 59.9557 95.3008 59.5977C95.0729 59.207 94.6855 58.5983 94.1387 57.7715C93.9368 57.4915 93.7578 57.2669 93.6016 57.0977C93.3867 56.8698 93.2174 56.7559 93.0938 56.7559C93.0091 56.7559 92.8691 56.8047 92.6738 56.9023C92.5697 56.9544 92.4818 56.9805 92.4102 56.9805C92.2669 56.9805 92.0423 56.8372 91.7363 56.5508C91.4694 56.2969 91.1895 55.9844 90.8965 55.6133C90.6621 55.3138 90.5026 55.0664 90.418 54.8711C90.3333 54.6693 90.291 54.4284 90.291 54.1484C90.291 53.7448 90.3171 53.429 90.3691 53.2012C90.4473 52.8561 90.5807 52.6836 90.7695 52.6836C91.0365 52.6836 91.4238 52.9375 91.9316 53.4453C92.3809 53.901 92.8822 54.5 93.4355 55.2422C93.9238 55.8997 94.4056 56.6094 94.8809 57.3711L95.877 58.9727C96.1699 59.4544 96.4694 60.0013 96.7754 60.6133C97.2116 59.7344 97.5111 58.8457 97.6738 57.9473C97.8171 57.166 97.8887 56.1699 97.8887 54.959L97.332 54.6367C97.332 54.207 97.3678 53.8197 97.4395 53.4746C97.5176 53.123 97.625 52.804 97.7617 52.5176L97.9863 52.5762C98.0124 52.8561 98.1686 53.0807 98.4551 53.25C98.6113 53.3411 98.8099 53.4453 99.0508 53.5625C99.2982 53.6797 99.487 53.7643 99.6172 53.8164ZM97.0781 63.3184C97.0781 63.1751 97.0488 63.0286 96.9902 62.8789C96.9382 62.7227 96.8177 62.4688 96.6289 62.1172C96.4336 62.3711 96.1406 62.6641 95.75 62.9961C95.3659 63.3281 94.985 63.6113 94.6074 63.8457C95.3757 63.8457 95.9225 63.8229 96.248 63.7773C96.8014 63.6992 97.0781 63.5462 97.0781 63.3184Z" fill="#626366"/>
<path d="M103.934 51.0039C103.934 51.1667 103.833 51.3132 103.631 51.4434C103.494 51.528 103.289 51.6191 103.016 51.7168L101.199 52.3418C101.199 52.0423 101.525 51.7786 102.176 51.5508C101.974 51.4466 101.821 51.3457 101.717 51.248C101.58 51.1243 101.512 50.9941 101.512 50.8574C101.512 50.6556 101.684 50.3724 102.029 50.0078C102.413 49.6042 102.752 49.4023 103.045 49.4023C103.175 49.4023 103.286 49.4479 103.377 49.5391C103.475 49.6237 103.523 49.7376 103.523 49.8809C103.523 49.972 103.504 50.0664 103.465 50.1641C103.426 50.2552 103.37 50.3594 103.299 50.4766C103.097 50.2943 102.879 50.2031 102.645 50.2031C102.501 50.2031 102.358 50.2324 102.215 50.291C102.078 50.3496 102.01 50.418 102.01 50.4961C102.01 50.5938 102.16 50.7272 102.459 50.8965C102.765 51.0658 103.025 51.1504 103.24 51.1504C103.383 51.1504 103.484 51.1471 103.543 51.1406C103.608 51.1276 103.738 51.082 103.934 51.0039ZM103.66 61.6484C103.66 62.1693 103.566 62.6738 103.377 63.1621C103.279 63.4225 103.068 63.8359 102.742 64.4023L102.566 64.3047C102.586 64.1159 102.602 63.8978 102.615 63.6504C102.635 63.403 102.645 63.237 102.645 63.1523C102.645 62.4753 102.589 61.5312 102.479 60.3203C102.374 59.1029 102.247 57.8333 102.098 56.5117C102.007 55.7109 101.906 54.8939 101.795 54.0605C101.925 53.7741 102.072 53.4648 102.234 53.1328C102.404 52.8008 102.563 52.4883 102.713 52.1953C102.817 52.9375 102.947 53.9531 103.104 55.2422C103.266 56.5312 103.393 57.6934 103.484 58.7285C103.602 60.0176 103.66 60.9909 103.66 61.6484Z" fill="#626366"/>
<path d="M113.143 63.5527C113.143 64.627 112.745 65.6947 111.951 66.7559C111.066 67.9408 110.044 68.5332 108.885 68.5332C108.455 68.5332 108.012 68.4844 107.557 68.3867C107.225 68.3151 106.792 68.1914 106.258 68.0156C105.835 67.8659 105.411 67.7194 104.988 67.5762L105.154 67.2344C105.519 67.319 105.9 67.4069 106.297 67.498C106.701 67.5957 107.062 67.6445 107.381 67.6445C108.175 67.6445 108.927 67.4427 109.637 67.0391C110.19 66.7201 110.743 66.2578 111.297 65.6523C111.577 65.3464 111.974 64.8483 112.488 64.1582C111.609 64.1582 110.952 64.0182 110.516 63.7383C110.021 63.4193 109.773 62.8952 109.773 62.166C109.773 61.4954 109.93 60.8737 110.242 60.3008C110.607 59.6367 111.069 59.3047 111.629 59.3047C112.195 59.3047 112.602 59.6335 112.85 60.291C113.045 60.8053 113.143 61.5215 113.143 62.4395V63.5527ZM112.527 62.4883C112.384 61.8633 112.212 61.4303 112.01 61.1895C111.834 60.9811 111.619 60.877 111.365 60.877C111.183 60.877 111.023 60.9388 110.887 61.0625C110.757 61.1797 110.691 61.3294 110.691 61.5117C110.691 61.8307 110.835 62.0749 111.121 62.2441C111.408 62.4069 111.876 62.4883 112.527 62.4883Z" fill="#626366"/>
<path d="M122.928 64.1387C122.928 64.8548 122.622 65.597 122.01 66.3652C121.476 67.0423 120.812 67.625 120.018 68.1133C119.262 68.582 118.641 68.8164 118.152 68.8164C117.703 68.8164 117.218 68.7513 116.697 68.6211C116.3 68.5234 115.825 68.3704 115.271 68.1621C114.803 67.9863 114.337 67.8105 113.875 67.6348L114.041 67.2441C114.471 67.3288 114.917 67.4134 115.379 67.498C115.848 67.5892 116.271 67.6348 116.648 67.6348C117.482 67.6348 118.351 67.3678 119.256 66.834C120.076 66.3457 120.776 65.7305 121.355 64.9883C121.935 64.2396 122.225 63.5658 122.225 62.9668C122.225 62.4525 122.075 61.9121 121.775 61.3457C121.535 60.89 121.196 60.4212 120.76 59.9395L121.316 58.4062C121.85 58.901 122.244 59.3958 122.498 59.8906C122.785 60.4505 122.928 61.0755 122.928 61.7656V64.1387Z" fill="#626366"/>
<path d="M131.58 63.5527C131.58 64.627 131.183 65.6947 130.389 66.7559C129.503 67.9408 128.481 68.5332 127.322 68.5332C126.893 68.5332 126.45 68.4844 125.994 68.3867C125.662 68.3151 125.229 68.1914 124.695 68.0156C124.272 67.8659 123.849 67.7194 123.426 67.5762L123.592 67.2344C123.956 67.319 124.337 67.4069 124.734 67.498C125.138 67.5957 125.499 67.6445 125.818 67.6445C126.613 67.6445 127.365 67.4427 128.074 67.0391C128.628 66.7201 129.181 66.2578 129.734 65.6523C130.014 65.3464 130.411 64.8483 130.926 64.1582C130.047 64.1582 129.389 64.0182 128.953 63.7383C128.458 63.4193 128.211 62.8952 128.211 62.166C128.211 61.4954 128.367 60.8737 128.68 60.3008C129.044 59.6367 129.507 59.3047 130.066 59.3047C130.633 59.3047 131.04 59.6335 131.287 60.291C131.482 60.8053 131.58 61.5215 131.58 62.4395V63.5527ZM130.965 62.4883C130.822 61.8633 130.649 61.4303 130.447 61.1895C130.271 60.9811 130.057 60.877 129.803 60.877C129.62 60.877 129.461 60.9388 129.324 61.0625C129.194 61.1797 129.129 61.3294 129.129 61.5117C129.129 61.8307 129.272 62.0749 129.559 62.2441C129.845 62.4069 130.314 62.4883 130.965 62.4883Z" fill="#626366"/>
<path d="M136.473 64.1387H130.906V62.4395H135.76C135.76 61.6712 135.669 61.0853 135.486 60.6816C135.363 60.4017 135.057 59.998 134.568 59.4707L135.33 57.8789C135.799 58.4714 136.092 58.9336 136.209 59.2656C136.385 59.7669 136.473 60.597 136.473 61.7559V64.1387ZM135.477 66.5117L134.715 67.9277L133.133 67.1074L133.855 65.6816L135.477 66.5117Z" fill="#626366"/>
<path d="M141.355 64.1387H135.789V62.4395H140.643C140.643 61.6712 140.551 61.0853 140.369 60.6816C140.245 60.4017 139.939 59.998 139.451 59.4707L140.213 57.8789C140.682 58.4714 140.975 58.9336 141.092 59.2656C141.268 59.7669 141.355 60.597 141.355 61.7559V64.1387ZM141.307 66.0918L140.545 67.498L138.963 66.6582L139.695 65.2617L141.307 66.0918ZM139.061 66.9707L138.318 68.3867L136.736 67.5664L137.459 66.1504L139.061 66.9707Z" fill="#626366"/>
<path d="M145.926 55.0176L145.164 56.4238L143.582 55.584L144.314 54.1875L145.926 55.0176ZM143.68 55.8965L142.938 57.3125L141.355 56.4922L142.078 55.0762L143.68 55.8965ZM146.785 61.2578C146.785 62.1758 146.635 62.8659 146.336 63.3281C145.874 64.0443 145.027 64.4023 143.797 64.4023C143.322 64.4023 142.928 64.3079 142.615 64.1191C142.257 63.9043 142.078 63.5983 142.078 63.2012C142.078 62.7454 142.192 62.2181 142.42 61.6191C142.628 61.1113 142.84 60.6003 143.055 60.0859L142.908 60.0469L143.504 58.3965C144.682 59.015 145.385 59.4056 145.613 59.5684C146.395 60.1152 146.785 60.6784 146.785 61.2578ZM145.936 62.0195C145.936 61.7721 145.577 61.4434 144.861 61.0332C144.555 60.8574 144.227 60.6849 143.875 60.5156C143.582 60.8346 143.406 61.0332 143.348 61.1113C143.165 61.3652 143.074 61.6061 143.074 61.834C143.074 62.166 143.165 62.4264 143.348 62.6152C143.536 62.7975 143.787 62.8887 144.1 62.8887C144.464 62.8887 144.861 62.7878 145.291 62.5859C145.721 62.3776 145.936 62.1888 145.936 62.0195Z" fill="#626366"/>
</svg>
