<?xml version="1.0" encoding="UTF-8"?>
<svg width="460px" height="345px" viewBox="0 0 460 345" version="1.1" xmlns="http://www.w3.org/2000/svg" xmlns:xlink="http://www.w3.org/1999/xlink">
    <!-- Generator: Sketch 55 (78076) - https://sketchapp.com -->
    <title>ec_component</title>
    <desc>Created with Sketch.</desc>
    <g id="Symbols" stroke="none" stroke-width="1" fill="none" fill-rule="evenodd">
        <g id="ecl-component-library">
            <g id="Pagination" transform="translate(111.000000, 153.000000)">
                <g id="Group-7-Copy" stroke-width="1" fill-rule="evenodd" transform="translate(0.000000, 2.000000)">
                    <g id="Stacked-Group">
                        <path d="M0.204509687,6.07110092 L5.16386961,1.1766055 C5.28316706,1.05886837 5.42802782,1 5.59845269,1 C5.76887756,1 5.91373833,1.05886837 6.03303578,1.1766055 L6.59543742,1.73165138 C6.71473487,1.84938851 6.77864415,1.99235461 6.78716525,2.16055046 C6.79568636,2.32874631 6.74029858,2.47171241 6.62100113,2.58944954 L2.65862594,6.5 L6.62100113,10.4105505 C6.74029858,10.5282876 6.79568636,10.6712537 6.78716525,10.8394495 C6.77864415,11.0076454 6.71473487,11.1506115 6.59543742,11.2683486 L6.03303578,11.8233945 C5.91373833,11.9411316 5.76887756,12 5.59845269,12 C5.42802782,12 5.28316706,11.9411316 5.16386961,11.8233945 L0.204509687,6.92889908 C0.0681700258,6.81116195 0,6.66819585 0,6.5 C0,6.33180415 0.0681700258,6.18883805 0.204509687,6.07110092 Z M16.2969062,11.3440367 L16.2969062,2.09745502 L19.3326041,2.09745502 C20.4829796,2.09745502 21.2328428,2.14370849 21.5822161,2.23621682 C22.119058,2.37497931 22.5685498,2.67667808 22.930705,3.14132219 C23.2928603,3.60596629 23.4739352,4.20621019 23.4739352,4.94207189 C23.4739352,5.50973663 23.3695508,5.98698835 23.160779,6.37384136 C22.9520071,6.76069437 22.6867856,7.06449557 22.3651066,7.28525408 C22.0434275,7.5060126 21.7164275,7.65213151 21.3840968,7.72361522 C20.9324679,7.81191863 20.278468,7.85606967 19.4220773,7.85606967 L18.1886253,7.85606967 L18.1886253,11.3440367 L16.2969062,11.3440367 Z M18.1886253,3.66167893 L18.1886253,6.2855384 L19.2239581,6.2855384 C19.9695718,6.2855384 20.4680604,6.2371825 20.7194388,6.14046925 C20.9708171,6.04375599 21.1678692,5.892381 21.310601,5.68633972 C21.4533328,5.48029845 21.5246976,5.24062137 21.5246976,4.96730131 C21.5246976,4.63090739 21.4245738,4.35338657 21.2243233,4.13473052 C21.0240727,3.91607447 20.7705678,3.77941649 20.463801,3.72475248 C20.2379866,3.68270324 19.7842342,3.66167893 19.1025302,3.66167893 L18.1886253,3.66167893 Z M26.7333161,11.3440367 L24.9374611,11.3440367 L24.9374611,4.64562623 L26.6054972,4.64562623 L26.6054972,5.59803676 C26.8909608,5.14810989 27.1476611,4.85166719 27.3756059,4.70869978 C27.6035506,4.56573236 27.8623812,4.49424972 28.1521054,4.49424972 C28.5611278,4.49424972 28.955232,4.60567854 29.3344299,4.82853951 L28.7784178,6.37384136 C28.4759117,6.18041486 28.194713,6.08370305 27.9348134,6.08370305 C27.683435,6.08370305 27.4704057,6.15203205 27.2957191,6.28869208 C27.1210324,6.42535211 26.9836285,6.67238769 26.8835033,7.02980623 C26.783378,7.38722477 26.7333161,8.13569002 26.7333161,9.27522443 L26.7333161,11.3440367 Z M34.0381639,9.21215088 L35.8276279,9.50859654 C35.5975528,10.1561548 35.2343379,10.6491748 34.7379722,10.9876712 C34.2416064,11.3261676 33.620626,11.4954132 32.8750123,11.4954132 C31.6948122,11.4954132 30.8213921,11.1148733 30.2547257,10.353782 C29.8073574,9.74406806 29.5836767,8.97457851 29.5836767,8.0452903 C29.5836767,6.93519036 29.8776571,6.06583536 30.4656268,5.43719922 C31.0535965,4.80856308 31.7970687,4.49424972 32.6960659,4.49424972 C33.7058399,4.49424972 34.5025695,4.82328009 35.0862786,5.4813507 C35.6699876,6.13942131 35.949056,7.14753672 35.9234921,8.50572718 L31.4242682,8.50572718 C31.4370502,9.03134268 31.5819101,9.44026541 31.8588524,9.73250763 C32.1357946,10.0247498 32.4809021,10.1708688 32.8941851,10.1708688 C33.175388,10.1708688 33.4118505,10.0951813 33.6035798,9.943804 C33.795309,9.79242674 33.940169,9.5485448 34.0381639,9.21215088 Z M34.140419,7.42086221 C34.127637,6.90786148 33.9934286,6.51786062 33.7377896,6.25084795 C33.4821506,5.98383527 33.1711278,5.85033094 32.8047119,5.85033094 C32.4127321,5.85033094 32.0889276,5.99119378 31.8332886,6.27292369 C31.5776496,6.5546536 31.4519623,6.93729594 31.4562229,7.42086221 L34.140419,7.42086221 Z M39.2531734,11.3440367 L36.5178498,4.64562623 L38.403178,4.64562623 L39.6813665,8.06421236 L40.0520412,9.20584353 C40.1500362,8.91570377 40.2118147,8.7243826 40.2373786,8.63187427 C40.2970277,8.44265269 40.3609365,8.25343394 40.4291069,8.06421236 L41.7200774,4.64562623 L43.5670599,4.64562623 L40.8700819,11.3440367 L39.2531734,11.3440367 Z M44.6663021,3.73736719 L44.6663021,2.09745502 L46.462157,2.09745502 L46.462157,3.73736719 L44.6663021,3.73736719 Z M44.6663021,11.3440367 L44.6663021,4.64562623 L46.462157,4.64562623 L46.462157,11.3440367 L44.6663021,11.3440367 Z M47.8873373,7.90022115 C47.8873373,7.31153178 48.0343275,6.74177313 48.3283124,6.19092808 C48.6222972,5.64008303 49.0387695,5.21959694 49.5777417,4.92945718 C50.116714,4.63931743 50.7185217,4.49424972 51.3831831,4.49424972 C52.4099998,4.49424972 53.2514655,4.82328009 53.9076056,5.4813507 C54.5637457,6.13942131 54.8918108,6.97093256 54.8918108,7.9759094 C54.8918108,8.98929609 54.5605503,9.82921706 53.8980192,10.4956975 C53.2354881,11.162178 52.4014784,11.4954132 51.395965,11.4954132 C50.7739101,11.4954132 50.1806235,11.3566528 49.6160874,11.0791278 C49.0515513,10.8016028 48.6222972,10.3947825 48.3283124,9.85865472 C48.0343275,9.3225269 47.8873373,8.66972224 47.8873373,7.90022115 Z M49.7279289,7.99483146 C49.7279289,8.65920946 49.8877009,9.16799763 50.2072496,9.52121125 C50.5267984,9.87442487 50.9209026,10.051029 51.3895741,10.051029 C51.8582456,10.051029 52.2512846,9.87442487 52.568703,9.52121125 C52.8861215,9.16799763 53.0448283,8.6550046 53.0448283,7.98221676 C53.0448283,7.32624861 52.8861215,6.8216653 52.568703,6.46845168 C52.2512846,6.11523806 51.8582456,5.9386339 51.3895741,5.9386339 C50.9209026,5.9386339 50.5267984,6.11523806 50.2072496,6.46845168 C49.8877009,6.8216653 49.7279289,7.33045347 49.7279289,7.99483146 Z M60.7650874,11.3440367 L60.7650874,10.3411673 C60.5179697,10.6985859 60.1931,10.9803116 59.7904686,11.1863528 C59.3878372,11.3923941 58.9628437,11.4954132 58.5154755,11.4954132 C58.0595859,11.4954132 57.6505697,11.396599 57.2884144,11.1989675 C56.9262592,11.0013361 56.6642331,10.7238153 56.5023284,10.3663968 C56.3404237,10.0089782 56.2594726,9.51490705 56.2594726,8.88416845 L56.2594726,4.64562623 L58.0553276,4.64562623 L58.0553276,7.72361522 C58.0553276,8.6655182 58.0883471,9.24263537 58.1543872,9.45498403 C58.2204273,9.66733269 58.3407888,9.83552713 58.5154755,9.95957239 C58.6901621,10.0836176 58.9117126,10.1456393 59.1801336,10.1456393 C59.4869003,10.1456393 59.7617081,10.0625933 60.0045652,9.89649884 C60.2474222,9.73040434 60.4135851,9.52436616 60.5030587,9.2783781 C60.5925324,9.03239005 60.6372685,8.43004372 60.6372685,7.47132104 L60.6372685,4.64562623 L62.4331235,4.64562623 L62.4331235,11.3440367 L60.7650874,11.3440367 Z M63.6601846,9.43290829 L65.4624305,9.16169204 C65.5391222,9.50649581 65.6946336,9.76824841 65.9289693,9.94695768 C66.1633051,10.1256669 66.4913702,10.2150202 66.9131745,10.2150202 C67.3775854,10.2150202 67.7269534,10.130923 67.9612892,9.96272606 C68.1189332,9.84498819 68.1977541,9.68730591 68.1977541,9.48967448 C68.1977541,9.35511691 68.1551482,9.24368809 68.0699352,9.15538469 C67.9804616,9.07128621 67.780214,8.99349628 67.4691866,8.92201257 C66.0205656,8.60664327 65.1024093,8.3186103 64.7146902,8.05790501 C64.1778483,7.69628154 63.9094313,7.19380066 63.9094313,6.55044729 C63.9094313,5.97016777 64.1416333,5.4824039 64.6060441,5.08714105 C65.070455,4.69187819 65.790494,4.49424972 66.7661829,4.49424972 C67.6950045,4.49424972 68.3852195,4.64352229 68.8368484,4.94207189 C69.2884773,5.2406215 69.5995001,5.6821319 69.7699261,6.26661633 L68.0763262,6.5756767 C68.0038951,6.31497142 67.8664912,6.11524052 67.6641103,5.97647803 C67.4617295,5.83771554 67.1730748,5.76833533 66.7981376,5.76833533 C66.3252054,5.76833533 65.9864888,5.83351067 65.7819776,5.96386332 C65.6456368,6.05637165 65.5774675,6.17621018 65.5774675,6.32338253 C65.5774675,6.44953025 65.6371157,6.5567542 65.7564139,6.6450576 C65.9183186,6.76279548 66.4775205,6.92888748 67.4340364,7.14333861 C68.3905523,7.35778973 69.0583992,7.62059354 69.437597,7.93175792 C69.8125342,8.24712722 70,8.68653519 70,9.24999501 C70,9.86391391 69.7401043,10.391624 69.220305,10.833141 C68.7005057,11.274658 67.9314699,11.4954132 66.9131745,11.4954132 C65.9886135,11.4954132 65.2568579,11.3103993 64.7178856,10.940366 C64.1789134,10.5703327 63.8263499,10.0678518 63.6601846,9.43290829 Z" id="Previous" fill="#044695" fill-rule="nonzero"></path>
                        <path d="M201,11.3440367 L201,2.09745502 L202.815528,2.09745502 L206.597879,8.27235506 L206.597879,2.09745502 L208.331457,2.09745502 L208.331457,11.3440367 L206.459193,11.3440367 L202.733577,5.31420581 L202.733577,11.3440367 L201,11.3440367 Z M214.168885,9.21215088 L215.933982,9.50859654 C215.70704,10.1561548 215.34877,10.6491748 214.859164,10.9876712 C214.369557,11.3261676 213.757032,11.4954132 213.021572,11.4954132 C211.857442,11.4954132 210.995915,11.1148733 210.436965,10.353782 C209.995689,9.74406806 209.775054,8.97457851 209.775054,8.0452903 C209.775054,6.93519036 210.065031,6.06583536 210.644995,5.43719922 C211.224958,4.80856308 211.958306,4.49424972 212.845062,4.49424972 C213.841086,4.49424972 214.626966,4.82328009 215.202727,5.4813507 C215.778488,6.13942131 216.053756,7.14753672 216.02854,8.50572718 L211.590582,8.50572718 C211.60319,9.03134268 211.746077,9.44026541 212.019249,9.73250763 C212.29242,10.0247498 212.632828,10.1708688 213.040483,10.1708688 C213.317857,10.1708688 213.5511,10.0951813 213.740218,9.943804 C213.929337,9.79242674 214.072224,9.5485448 214.168885,9.21215088 Z M214.269747,7.42086221 C214.257139,6.90786148 214.124759,6.51786062 213.872601,6.25084795 C213.620443,5.98383527 213.313655,5.85033094 212.952228,5.85033094 C212.565586,5.85033094 212.246191,5.99119378 211.994033,6.27292369 C211.741875,6.5546536 211.617899,6.93729594 211.622102,7.42086221 L214.269747,7.42086221 Z M216.621109,11.3440367 L219.035509,7.89391379 L216.721971,4.64562623 L218.884215,4.64562623 L220.069352,6.48737374 L221.317528,4.64562623 L223.397821,4.64562623 L221.12841,7.81822554 L223.60585,11.3440367 L221.430998,11.3440367 L220.069352,9.26891707 L218.695098,11.3440367 L216.621109,11.3440367 Z M227.722308,4.64562623 L227.722308,6.05847364 L226.511956,6.05847364 L226.511956,8.75802136 C226.511956,9.30466148 226.523513,9.6231797 226.546628,9.71358556 C226.569742,9.80399143 226.622274,9.87862771 226.704226,9.93749665 C226.786177,9.99636558 226.885988,10.0257996 227.003662,10.0257996 C227.167564,10.0257996 227.40501,9.96903399 227.716004,9.85550104 L227.867298,11.2305043 C227.45544,11.4071111 226.988955,11.4954132 226.467829,11.4954132 C226.148429,11.4954132 225.860553,11.4418012 225.604192,11.3345757 C225.347831,11.2273501 225.159766,11.0885897 225.039991,10.9182903 C224.920216,10.7479908 224.837215,10.5177747 224.790986,10.227635 C224.753163,10.0215937 224.734251,9.60531244 224.734251,8.97877876 L224.734251,6.05847364 L223.921046,6.05847364 L223.921046,4.64562623 L224.734251,4.64562623 L224.734251,3.31477443 L226.511956,2.2803683 L226.511956,4.64562623 L227.722308,4.64562623 Z M238.798275,6.92889908 L233.906446,11.8233945 C233.788773,11.9411316 233.645885,12 233.477781,12 C233.309677,12 233.166789,11.9411316 233.049116,11.8233945 L232.494372,11.2683486 C232.376699,11.1506115 232.31366,11.0076454 232.305255,10.8394495 C232.29685,10.6712537 232.351484,10.5282876 232.469157,10.4105505 L236.377576,6.5 L232.469157,2.58944954 C232.351484,2.47171241 232.29685,2.32874631 232.305255,2.16055046 C232.31366,1.99235461 232.376699,1.84938851 232.494372,1.73165138 L233.049116,1.1766055 C233.166789,1.05886837 233.309677,1 233.477781,1 C233.645885,1 233.788773,1.05886837 233.906446,1.1766055 L238.798275,6.07110092 C238.932758,6.18883805 239,6.33180415 239,6.5 C239,6.66819585 238.932758,6.81116195 238.798275,6.92889908 Z" id="Next" fill="#044695" fill-rule="nonzero"></path>
                        <path d="M178,8.49762067 L179.166667,8.39972808 C179.253087,8.96261328 179.453702,9.38579056 179.768519,9.6692726 C180.083335,9.95275465 180.462961,10.0944935 180.907407,10.0944935 C181.44239,10.0944935 181.89506,9.8946315 182.265432,9.49490143 C182.635804,9.09517135 182.820988,8.56492513 182.820988,7.90414684 C182.820988,7.27599958 182.643006,6.7804233 182.287037,6.41740313 C181.931068,6.05438296 181.465023,5.87287559 180.888889,5.87287559 C180.530862,5.87287559 180.20782,5.95343223 179.919753,6.11454793 C179.631686,6.27566362 179.405351,6.484703 179.240741,6.74167233 L178.197531,6.60707002 L179.074074,2 L183.574074,2 L183.574074,3.05234534 L179.962963,3.05234534 L179.475309,5.46295037 C180.018521,5.08769357 180.588474,4.90006798 181.185185,4.90006798 C181.975313,4.90006798 182.641973,5.17130932 183.185185,5.71380014 C183.728398,6.25629095 184,6.95376868 184,7.80625425 C184,8.61795103 183.761319,9.31950758 183.283951,9.91094494 C182.703701,10.6369853 181.911528,11 180.907407,11 C180.084358,11 179.412554,10.7715862 178.891975,10.3147519 C178.371397,9.8579175 178.074074,9.25221315 178,8.49762067 Z" id="5" fill="#044695" fill-rule="nonzero"></path>
                        <path d="M158.763314,11 L158.763314,8.84515689 L155,8.84515689 L155,7.83219645 L158.95858,2 L159.828402,2 L159.828402,7.83219645 L161,7.83219645 L161,8.84515689 L159.828402,8.84515689 L159.828402,11 L158.763314,11 Z M158.763314,7.83219645 L158.763314,3.77421555 L156.047337,7.83219645 L158.763314,7.83219645 Z" id="4" fill="#044695" fill-rule="nonzero"></path>
                        <text id="3" font-family="Arial-BoldMT, Arial" font-size="13" font-weight="bold" line-spacing="13" fill="#000000">
                            <tspan x="130" y="12">3</tspan>
                        </text>
                        <path d="M113,9.94225543 L113,11 L107.000991,11 C106.992736,10.735053 107.036072,10.4803001 107.131,10.2357337 C107.28371,9.83219907 107.52825,9.43478457 107.864625,9.04347826 C108.201,8.65217196 108.686984,8.19973083 109.322589,7.6861413 C110.309015,6.88722427 110.975565,6.25441809 111.322258,5.7877038 C111.668952,5.32098951 111.842296,4.87975751 111.842296,4.46399457 C111.842296,4.02785108 111.684429,3.65998791 111.36869,3.36039402 C111.052951,3.06080013 110.641259,2.91100543 110.1336,2.91100543 C109.59705,2.91100543 109.167817,3.06997124 108.845887,3.38790761 C108.523957,3.70584398 108.360931,4.14605697 108.356804,4.70855978 L107.211482,4.5923913 C107.289901,3.74863709 107.584999,3.1056408 108.096785,2.66338315 C108.608571,2.22112551 109.295757,2 110.158364,2 C111.029226,2 111.718475,2.2384487 112.226134,2.71535326 C112.733793,3.19225782 112.987618,3.78328452 112.987618,4.48845109 C112.987618,4.84714853 112.913328,5.19972653 112.764745,5.54619565 C112.616162,5.89266478 112.369559,6.25747091 112.024929,6.640625 C111.680299,7.02377909 111.107644,7.54958905 110.306946,8.21807065 C109.638323,8.77242125 109.209089,9.14843651 109.019233,9.34612772 C108.829377,9.54381892 108.672542,9.74252618 108.548723,9.94225543 L113,9.94225543 Z" id="2" fill="#044695" fill-rule="nonzero"></path>
                        <path d="M90,10 L89,10 L89,3.76630435 C88.7592581,3.99094315 88.4435205,4.21557859 88.0527778,4.44021739 C87.6620351,4.6648562 87.3111127,4.83333277 87,4.94565217 L87,4 C87.5592621,3.74275234 88.0481461,3.43116125 88.4666667,3.06521739 C88.8851873,2.69927353 89.1814806,2.34420462 89.3555556,2 L90,2 L90,10 Z" id="1" fill="#044695" fill-rule="nonzero"></path>
                    </g>
                </g>
                <path d="M134,18 C138.970563,18 143,13.9705627 143,9 C143,4.02943725 138.970563,0 134,0 C129.029437,0 125,4.02943725 125,9 C125,13.9705627 129.029437,18 134,18 Z M134,17 C129.581722,17 126,13.418278 126,9 C126,4.581722 129.581722,1 134,1 C138.418278,1 142,4.581722 142,9 C142,13.418278 138.418278,17 134,17 Z" id="Oval" fill="#333333" fill-rule="nonzero"></path>
            </g>
        </g>
    </g>
</svg>