<?xml version="1.0" encoding="UTF-8"?>
<svg width="255px" height="18px" viewBox="0 0 255 18" version="1.1" xmlns="http://www.w3.org/2000/svg" xmlns:xlink="http://www.w3.org/1999/xlink">
    <!-- Generator: Sketch 55.1 (78136) - https://sketchapp.com -->
    <title>Pagination</title>
    <desc>Created with Sketch.</desc>
    <g id="thumbnails---final" stroke="none" stroke-width="1" fill="none" fill-rule="evenodd">
        <g id="thumbnails---final_symbols" transform="translate(-1083.000000, -2739.000000)">
            <g id="Group-2" transform="translate(20.000000, 20.000000)">
                <g id="Group-21-Copy" transform="translate(0.000000, 2555.000000)">
                    <g id="ec_comp_pagination" transform="translate(960.000000, 0.000000)">
                        <g id="Pagination" transform="translate(103.000000, 164.000000)">
                            <g id="Group-7-Copy" stroke-width="1" fill-rule="evenodd" transform="translate(0.000000, 1.000000)">
                                <g id="Stacked-Group">
                                    <path d="M254.820873,8.38990826 L250.373756,12.8394495 C250.266781,12.9464833 250.136882,13 249.98406,13 C249.831238,13 249.70134,12.9464833 249.594365,12.8394495 L249.090052,12.3348624 C248.983077,12.2278286 248.925769,12.0978594 248.918128,11.9449541 C248.910487,11.7920488 248.960154,11.6620796 249.067129,11.5550459 L252.620238,8 L249.067129,4.44495413 C248.960154,4.33792037 248.910487,4.20795119 248.918128,4.05504587 C248.925769,3.90214056 248.983077,3.77217137 249.090052,3.66513761 L249.594365,3.16055046 C249.70134,3.0535167 249.831238,3 249.98406,3 C250.136882,3 250.266781,3.0535167 250.373756,3.16055046 L254.820873,7.61009174 C254.943131,7.7171255 255.00426,7.84709468 255.00426,8 C255.00426,8.15290532 254.943131,8.2828745 254.820873,8.38990826 Z M192.96501,3 L242.96501,3 L242.96501,13 L192.96501,13 L192.96501,3 Z" id="Next" fill="#044695" fill-rule="nonzero"></path>
                                    <path d="M61.8174844,8.38990826 L57.3703674,12.8394495 C57.263392,12.9464833 57.1334936,13 56.9806716,13 C56.8278496,13 56.6979512,12.9464833 56.5909758,12.8394495 L56.0866635,12.3348624 C55.9796881,12.2278286 55.9223799,12.0978594 55.9147389,11.9449541 C55.9070979,11.7920488 55.9567648,11.6620796 56.0637402,11.5550459 L59.6168492,8 L56.0637402,4.44495413 C55.9567648,4.33792037 55.9070979,4.20795119 55.9147389,4.05504587 C55.9223799,3.90214056 55.9796881,3.77217137 56.0866635,3.66513761 L56.5909758,3.16055046 C56.6979512,3.0535167 56.8278496,3 56.9806716,3 C57.1334936,3 57.263392,3.0535167 57.3703674,3.16055046 L61.8174844,7.61009174 C61.9397418,7.7171255 62.0008707,7.84709468 62.0008707,8 C62.0008707,8.15290532 61.9397418,8.2828745 61.8174844,8.38990826 Z M-0.00715186733,3 L49.9928481,3 L49.9928481,13 L-0.00715186733,13 L-0.00715186733,3 Z" id="Next-Copy" fill="#044695" fill-rule="nonzero" transform="translate(31.000000, 8.000000) rotate(-180.000000) translate(-31.000000, -8.000000) "></path>
                                    <path d="M170,10.4976207 L171.166667,10.3997281 C171.253087,10.9626133 171.453702,11.3857906 171.768519,11.6692726 C172.083335,11.9527546 172.462961,12.0944935 172.907407,12.0944935 C173.44239,12.0944935 173.89506,11.8946315 174.265432,11.4949014 C174.635804,11.0951714 174.820988,10.5649251 174.820988,9.90414684 C174.820988,9.27599958 174.643006,8.7804233 174.287037,8.41740313 C173.931068,8.05438296 173.465023,7.87287559 172.888889,7.87287559 C172.530862,7.87287559 172.20782,7.95343223 171.919753,8.11454793 C171.631686,8.27566362 171.405351,8.484703 171.240741,8.74167233 L170.197531,8.60707002 L171.074074,4 L175.574074,4 L175.574074,5.05234534 L171.962963,5.05234534 L171.475309,7.46295037 C172.018521,7.08769357 172.588474,6.90006798 173.185185,6.90006798 C173.975313,6.90006798 174.641973,7.17130932 175.185185,7.71380014 C175.728398,8.25629095 176,8.95376868 176,9.80625425 C176,10.617951 175.761319,11.3195076 175.283951,11.9109449 C174.703701,12.6369853 173.911528,13 172.907407,13 C172.084358,13 171.412554,12.7715862 170.891975,12.3147519 C170.371397,11.8579175 170.074074,11.2522132 170,10.4976207 Z" id="5" fill="#044695" fill-rule="nonzero"></path>
                                    <path d="M150.763314,13 L150.763314,10.8451569 L147,10.8451569 L147,9.83219645 L150.95858,4 L151.828402,4 L151.828402,9.83219645 L153,9.83219645 L153,10.8451569 L151.828402,10.8451569 L151.828402,13 L150.763314,13 Z M150.763314,9.83219645 L150.763314,5.77421555 L148.047337,9.83219645 L150.763314,9.83219645 Z" id="4" fill="#044695" fill-rule="nonzero"></path>
                                    <text id="3" font-family="Arial-BoldMT, Arial" font-size="13" font-weight="bold" line-spacing="13" fill="#000000">
                                        <tspan x="122" y="14">3</tspan>
                                    </text>
                                    <path d="M105,11.9422554 L105,13 L99.0009906,13 C98.992736,12.735053 99.036072,12.4803001 99.1310001,12.2357337 C99.2837104,11.8321991 99.5282496,11.4347846 99.8646251,11.0434783 C100.201,10.652172 100.686984,10.1997308 101.322589,9.6861413 C102.309015,8.88722427 102.975565,8.25441809 103.322258,7.7877038 C103.668952,7.32098951 103.842296,6.87975751 103.842296,6.46399457 C103.842296,6.02785108 103.684429,5.65998791 103.36869,5.36039402 C103.052951,5.06080013 102.641259,4.91100543 102.1336,4.91100543 C101.59705,4.91100543 101.167817,5.06997124 100.845887,5.38790761 C100.523957,5.70584398 100.360931,6.14605697 100.356804,6.70855978 L99.2114821,6.5923913 C99.2899009,5.74863709 99.5849989,5.1056408 100.096785,4.66338315 C100.608571,4.22112551 101.295757,4 102.158364,4 C103.029226,4 103.718475,4.2384487 104.226134,4.71535326 C104.733793,5.19225782 104.987618,5.78328452 104.987618,6.48845109 C104.987618,6.84714853 104.913328,7.19972653 104.764745,7.54619565 C104.616162,7.89266478 104.369559,8.25747091 104.024929,8.640625 C103.680299,9.02377909 103.107644,9.54958905 102.306946,10.2180707 C101.638323,10.7724213 101.209089,11.1484365 101.019233,11.3461277 C100.829377,11.5438189 100.672542,11.7425262 100.548723,11.9422554 L105,11.9422554 Z" id="2" fill="#044695" fill-rule="nonzero"></path>
                                    <path d="M82,12 L81,12 L81,5.76630435 C80.7592581,5.99094315 80.4435205,6.21557859 80.0527778,6.44021739 C79.6620351,6.6648562 79.3111127,6.83333277 79,6.94565217 L79,6 C79.5592621,5.74275234 80.0481461,5.43116125 80.4666667,5.06521739 C80.8851873,4.69927353 81.1814806,4.34420462 81.3555556,4 L82,4 L82,12 Z" id="1" fill="#044695" fill-rule="nonzero"></path>
                                </g>
                            </g>
                            <path d="M126,18 C130.970563,18 135,13.9705627 135,9 C135,4.02943725 130.970563,0 126,0 C121.029437,0 117,4.02943725 117,9 C117,13.9705627 121.029437,18 126,18 Z M126,17 C121.581722,17 118,13.418278 118,9 C118,4.581722 121.581722,1 126,1 C130.418278,1 134,4.581722 134,9 C134,13.418278 130.418278,17 126,17 Z" id="Oval" fill="#333333" fill-rule="nonzero"></path>
                        </g>
                    </g>
                </g>
            </g>
        </g>
    </g>
</svg>