<?xml version="1.0" encoding="UTF-8"?>
<svg width="460px" height="345px" viewBox="0 0 460 345" version="1.1" xmlns="http://www.w3.org/2000/svg" xmlns:xlink="http://www.w3.org/1999/xlink">
    <title>ec_comp_pagination</title>
    <g id="thumbnails---final" stroke="none" stroke-width="1" fill="none" fill-rule="evenodd">
        <g id="thumbnails---final_symbols" transform="translate(-980.000000, -2575.000000)" fill-rule="nonzero">
            <g id="ec_comp_pagination" transform="translate(980.000000, 2575.000000)">
                <g id="Group" transform="translate(103.000000, 164.000000)">
                    <g id="Group-7-Copy" transform="translate(1.000000, 0.000000)">
                        <g id="Stacked-Group" transform="translate(0.000000, 1.000000)">
                            <path d="M252.820873,8.38990826 L248.373756,12.8394495 C248.266781,12.9464833 248.136882,13 247.98406,13 C247.831238,13 247.70134,12.9464833 247.594365,12.8394495 L247.090052,12.3348624 C246.983077,12.2278286 246.925769,12.0978594 246.918128,11.9449541 C246.910487,11.7920488 246.960154,11.6620796 247.067129,11.5550459 L250.620238,8 L247.067129,4.44495413 C246.960154,4.33792037 246.910487,4.20795119 246.918128,4.05504587 C246.925769,3.90214056 246.983077,3.77217137 247.090052,3.66513761 L247.594365,3.16055046 C247.70134,3.0535167 247.831238,3 247.98406,3 C248.136882,3 248.266781,3.0535167 248.373756,3.16055046 L252.820873,7.61009174 C252.943131,7.7171255 253.00426,7.84709468 253.00426,8 C253.00426,8.15290532 252.943131,8.2828745 252.820873,8.38990826 Z M190.96501,3 L240.96501,3 L240.96501,13 L190.96501,13 L190.96501,3 Z" id="Next" fill="#044695"></path>
                            <path d="M61.8174844,8.38990826 L57.3703674,12.8394495 C57.263392,12.9464833 57.1334936,13 56.9806716,13 C56.8278496,13 56.6979512,12.9464833 56.5909758,12.8394495 L56.0866635,12.3348624 C55.9796881,12.2278286 55.9223799,12.0978594 55.9147389,11.9449541 C55.9070979,11.7920488 55.9567648,11.6620796 56.0637402,11.5550459 L59.6168492,8 L56.0637402,4.44495413 C55.9567648,4.33792037 55.9070979,4.20795119 55.9147389,4.05504587 C55.9223799,3.90214056 55.9796881,3.77217137 56.0866635,3.66513761 L56.5909758,3.16055046 C56.6979512,3.0535167 56.8278496,3 56.9806716,3 C57.1334936,3 57.263392,3.0535167 57.3703674,3.16055046 L61.8174844,7.61009174 C61.9397418,7.7171255 62.0008707,7.84709468 62.0008707,8 C62.0008707,8.15290532 61.9397418,8.2828745 61.8174844,8.38990826 Z M-0.00715186733,3 L49.9928481,3 L49.9928481,13 L-0.00715186733,13 L-0.00715186733,3 Z" id="Next-Copy" fill="#044695" transform="translate(31.000000, 8.000000) rotate(-180.000000) translate(-31.000000, -8.000000) "></path>
                            <path d="M168,10.4976207 L169.166667,10.3997281 C169.253087,10.9626133 169.453702,11.3857906 169.768519,11.6692726 C170.083335,11.9527546 170.462961,12.0944935 170.907407,12.0944935 C171.44239,12.0944935 171.89506,11.8946315 172.265432,11.4949014 C172.635804,11.0951714 172.820988,10.5649251 172.820988,9.90414684 C172.820988,9.27599958 172.643006,8.7804233 172.287037,8.41740313 C171.931068,8.05438296 171.465023,7.87287559 170.888889,7.87287559 C170.530862,7.87287559 170.20782,7.95343223 169.919753,8.11454793 C169.631686,8.27566362 169.405351,8.484703 169.240741,8.74167233 L168.197531,8.60707002 L169.074074,4 L173.574074,4 L173.574074,5.05234534 L169.962963,5.05234534 L169.475309,7.46295037 C170.018521,7.08769357 170.588474,6.90006798 171.185185,6.90006798 C171.975313,6.90006798 172.641973,7.17130932 173.185185,7.71380014 C173.728398,8.25629095 174,8.95376868 174,9.80625425 C174,10.617951 173.761319,11.3195076 173.283951,11.9109449 C172.703701,12.6369853 171.911528,13 170.907407,13 C170.084358,13 169.412554,12.7715862 168.891975,12.3147519 C168.371397,11.8579175 168.074074,11.2522132 168,10.4976207 Z" id="5" fill="#044695"></path>
                            <path d="M148.763314,13 L148.763314,10.8451569 L145,10.8451569 L145,9.83219645 L148.95858,4 L149.828402,4 L149.828402,9.83219645 L151,9.83219645 L151,10.8451569 L149.828402,10.8451569 L149.828402,13 L148.763314,13 Z M148.763314,9.83219645 L148.763314,5.77421555 L146.047337,9.83219645 L148.763314,9.83219645 Z" id="4" fill="#044695"></path>
                            <path d="M122,10.2344689 L123.675565,10.0140281 C123.728953,10.4771789 123.872689,10.8312168 124.106776,11.0761523 C124.340864,11.3210878 124.624228,11.4435538 124.956879,11.4435538 C125.31417,11.4435538 125.614989,11.2965947 125.859343,11.002672 C126.103697,10.7087494 126.225873,10.3124051 126.225873,9.81362725 C126.225873,9.34156967 126.108831,8.96749192 125.874743,8.69138277 C125.640656,8.41527361 125.355238,8.27722111 125.01848,8.27722111 C124.796713,8.27722111 124.531829,8.32398083 124.223819,8.41750167 L124.414784,6.88777555 C124.882959,6.90113567 125.240245,6.79091633 125.486653,6.55711423 C125.733061,6.32331212 125.856263,6.01269399 125.856263,5.6252505 C125.856263,5.29570087 125.765915,5.03295578 125.585216,4.83700735 C125.404517,4.64105892 125.164273,4.54308617 124.864476,4.54308617 C124.568787,4.54308617 124.316223,4.65441884 124.106776,4.87708751 C123.89733,5.09975618 123.770021,5.42484756 123.724846,5.85237141 L122.129363,5.55845023 C122.240247,4.96615157 122.407596,4.49298774 122.631417,4.13894456 C122.855237,3.78490137 123.167349,3.50656971 123.567762,3.30394122 C123.968174,3.10131273 124.416835,3 124.913758,3 C125.763865,3 126.445583,3.29391824 126.958932,3.88176353 C127.381932,4.36272786 127.593429,4.90603126 127.593429,5.51169005 C127.593429,6.37119112 127.160169,7.05700033 126.293634,7.56913828 C126.811091,7.68937936 127.224844,7.95880441 127.534908,8.37742151 C127.844971,8.79603861 128,9.30148891 128,9.89378758 C128,10.7532886 127.710475,11.4858576 127.131417,12.0915164 C126.552359,12.6971752 125.831626,13 124.969199,13 C124.151947,13 123.474335,12.7450482 122.936345,12.2351369 C122.398355,11.7252257 122.086243,11.058343 122,10.2344689 Z" id="3" fill="#000000"></path>
                            <path d="M105,11.9422554 L105,13 L99.0009906,13 C98.992736,12.735053 99.036072,12.4803001 99.1310001,12.2357337 C99.2837104,11.8321991 99.5282496,11.4347846 99.8646251,11.0434783 C100.201,10.652172 100.686984,10.1997308 101.322589,9.6861413 C102.309015,8.88722427 102.975565,8.25441809 103.322258,7.7877038 C103.668952,7.32098951 103.842296,6.87975751 103.842296,6.46399457 C103.842296,6.02785108 103.684429,5.65998791 103.36869,5.36039402 C103.052951,5.06080013 102.641259,4.91100543 102.1336,4.91100543 C101.59705,4.91100543 101.167817,5.06997124 100.845887,5.38790761 C100.523957,5.70584398 100.360931,6.14605697 100.356804,6.70855978 L99.2114821,6.5923913 C99.2899009,5.74863709 99.5849989,5.1056408 100.096785,4.66338315 C100.608571,4.22112551 101.295757,4 102.158364,4 C103.029226,4 103.718475,4.2384487 104.226134,4.71535326 C104.733793,5.19225782 104.987618,5.78328452 104.987618,6.48845109 C104.987618,6.84714853 104.913328,7.19972653 104.764745,7.54619565 C104.616162,7.89266478 104.369559,8.25747091 104.024929,8.640625 C103.680299,9.02377909 103.107644,9.54958905 102.306946,10.2180707 C101.638323,10.7724213 101.209089,11.1484365 101.019233,11.3461277 C100.829377,11.5438189 100.672542,11.7425262 100.548723,11.9422554 L105,11.9422554 Z" id="2" fill="#044695"></path>
                            <path d="M82,12 L81,12 L81,5.76630435 C80.7592581,5.99094315 80.4435205,6.21557859 80.0527778,6.44021739 C79.6620351,6.6648562 79.3111127,6.83333277 79,6.94565217 L79,6 C79.5592621,5.74275234 80.0481461,5.43116125 80.4666667,5.06521739 C80.8851873,4.69927353 81.1814806,4.34420462 81.3555556,4 L82,4 L82,12 Z" id="1" fill="#044695"></path>
                        </g>
                        <path d="M125,18 C129.970563,18 134,13.9705627 134,9 C134,4.02943725 129.970563,0 125,0 C120.029437,0 116,4.02943725 116,9 C116,13.9705627 120.029437,18 125,18 Z M125,17 C120.581722,17 117,13.418278 117,9 C117,4.581722 120.581722,1 125,1 C129.418278,1 133,4.581722 133,9 C133,13.418278 129.418278,17 125,17 Z" id="Oval" fill="#333333"></path>
                    </g>
                </g>
            </g>
        </g>
    </g>
</svg>