<svg xmlns="http://www.w3.org/2000/svg" viewBox="0 0 40 40"><path fill="#15a0b7" d="M0 0h40v40H0z"/><path d="M30.2 15.4c0 .3-.2.5-.3.6-3.1 3.2-6.3 6.3-9.4 9.5-.4.4-.9.4-1.3 0-1.7-1.7-3.4-3.5-5.1-5.2-.4-.4-.4-.8 0-1.2l1.3-1.3c.4-.5.8-.5 1.3 0l2.8 2.8c.3.3.5.3.8 0l6.9-6.9c.7-.7.9-.7 1.7 0l1.1 1.1c.1.2.3.4.2.6zm-.9 3c-2.9 2.9-5.8 5.8-8.7 8.8-.4.4-.9.4-1.3 0l-.5-.5-.2-.2c-1.8-1.8-3.6-3.6-5.3-5.4-.8-.8-.8-1.9 0-2.7l1.4-1.4c.9-.9 2-.9 2.9.1.6.7 1.3 1.3 1.9 1.9.3.3.5.3.8 0 1.5-1.5 3-3.1 4.5-4.6.3-.3.3-.5 0-.8-1-1-2-2-3.1-3-1.1-1.1-2.5-1.1-3.6 0-2.5 2.5-5.1 5.1-7.6 7.7-1.1 1.1-1.1 2.5 0 3.6 2.5 2.6 5.1 5.2 7.7 7.7 1.1 1.1 2.5 1 3.6-.1l3.4-3.4c1.4-1.4 2.8-2.8 4.1-4.2.9-.9 1.1-2.1.5-3.1-.1-.4-.3-.5-.5-.4z" fill="#fefefe"/></svg>