<svg width="40" height="40" xmlns="http://www.w3.org/2000/svg"><g fill="none" fill-rule="evenodd"><path d="M0 0v40h40.004V0H0z" fill="#4B4B4C"/><path d="M20.692 21.608c-.637-.425-1.698-1.487-1.698-2.018 0-.743.212-.956 1.273-1.911 1.168-.85 1.91-2.018 1.91-3.505 0-1.593-.742-3.292-2.122-3.716h2.122l1.486-1.169h-6.58c-2.971 0-5.73 2.23-5.73 4.885s2.016 4.78 4.988 4.78h.636c-.212.424-.424.742-.424 1.273 0 .744.424 1.38.849 1.912h-1.168c-3.608 0-6.473 2.336-6.473 4.779 0 2.442 3.077 3.823 6.792 3.823 4.139 0 6.473-2.337 6.473-4.78 0-1.91-.636-3.079-2.334-4.353zm-3.502-3.186c-1.698 0-3.29-1.911-3.609-4.141-.212-2.23.85-3.823 2.547-3.823 1.698 0 3.29 1.911 3.609 4.141.318 2.018-.85 3.823-2.547 3.823zm-.637 11.257c-2.547 0-4.351-1.593-4.351-3.505 0-1.911 2.228-3.504 4.775-3.398a6.42 6.42 0 0 1 1.592.212c1.38.956 2.335 1.487 2.653 2.655 0 .213.106.531.106.637 0 1.806-1.273 3.399-4.775 3.399zm11.249-13.7h-2.123v2.55h-2.547v2.123h2.547v2.443h2.123v-2.443h2.44v-2.124h-2.44V15.98z" fill="#FFF"/></g></svg>