<svg xmlns="http://www.w3.org/2000/svg" width="40" height="40" viewBox="0 0 40 40">
  <g fill="none" fill-rule="evenodd">
    <polygon fill="#DD4B39" points="0 40 40 40 40 0 0 0"/>
    <path fill="#F1F2F2" d="M15.3839763,19.3236877 L15.3839763,22.1157958 L20.0021033,22.1157958 C19.8158648,23.3136729 18.6058656,25.6286138 15.3839763,25.6286138 C12.6039903,25.6286138 10.3357009,23.325795 10.3357009,20.4870354 C10.3357009,17.6482759 12.6039903,15.3454571 15.3839763,15.3454571 C16.9660852,15.3454571 18.0243754,16.0202502 18.629375,16.6017404 L20.8396255,14.4730381 C19.4206131,13.1469612 17.5824722,12.3443358 15.3839763,12.3443358 C10.8822944,12.3443358 7.24127667,15.9853535 7.24127667,20.4870354 C7.24127667,24.9887174 10.8822944,28.6297351 15.3839763,28.6297351 C20.0836515,28.6297351 23.2012178,25.3262976 23.2012178,20.6732739 C23.2012178,20.1380678 23.1428116,19.7306941 23.0733854,19.3236877 L15.3839763,19.3236877 Z"/>
    <polygon fill="#F1F2F2" points="32.833 19.324 30.506 19.324 30.506 16.997 28.18 16.997 28.18 19.324 25.853 19.324 25.853 21.65 28.18 21.65 28.18 23.977 30.506 23.977 30.506 21.65 32.833 21.65"/>
  </g>
</svg>
