<svg id="Layer_1" xmlns="http://www.w3.org/2000/svg" viewBox="0 0 40 40"><style>.st2{fill:#fff}</style><g id="Page-1"><g id="wordpress_hover" transform="translate(-1)"><g id="bg"><path id="path-1" fill="#1e8cbe" d="M1 0h40v40H1z"/><path id="path-1_1_" fill-opacity=".3" d="M1 0h40v40H1z"/></g><g id="icon" transform="translate(101 99.5)"><path id="Shape" class="st2" d="M-69.8-79.5c0-1.1-.2-2.1-.5-3l-4.6 11.8c3.1-1.8 5.1-5 5.1-8.8z"/><path id="Shape_1_" class="st2" d="M-83.2-69.8c1 .3 2.1.5 3.2.5 1.2 0 2.3-.2 3.4-.6l-3.1-8.1-3.5 8.2z"/><path id="Shape_2_" class="st2" d="M-89.7-82.4c-.3.9-.4 1.9-.4 2.9 0 3.8 2.1 7.1 5.2 8.9l-4.8-11.8z"/><path id="Shape_3_" class="st2" d="M-84.5-83h-.4c-1 0-.8 1-.8 1l3.4 8.5 2.3-5.4-1.3-3.2c-.5-.9-1.8-.8-1.8-.8v-.5h7.1v.5h-.7c-.9 0-.7.9-.7.9l3.1 8.3.9-2.3c1.6-3.6.6-6.2.6-6.2-1.6-3.2.4-3.7.4-3.7h.4c-1.9-2.2-4.7-3.6-7.8-3.6-4.2 0-7.8 2.5-9.4 6.2h4.8l-.1.3z"/><path id="Shape_4_" class="st2" d="M-68.5-79.5c0 6.3-5.1 11.4-11.4 11.4-6.3 0-11.5-5.1-11.5-11.4 0-6.3 5.1-11.4 11.5-11.4 6.2-.1 11.4 5.1 11.4 11.4zm-11.5-12c-6.6 0-12 5.4-12 12s5.4 12 12 12 12-5.4 12-12-5.4-12-12-12z"/></g></g></g></svg>