<svg id="Layer_1" xmlns="http://www.w3.org/2000/svg" viewBox="0 0 40 40"><style>.st0{fill:#327cab}.st1{fill:#fff}</style><g id="Page-1"><g id="wykop"><path id="bg" class="st0" d="M0 0h40v40H0z"/><path class="st1" d="M20 11.9c-5.8 0-7.8.3-8.6 1.5-.9 1.1-1.2 2.6-1.2 6 0 3.3.2 6.9 1.6 7.8 1.4 1 4.5.9 8.2.9 3.8 0 6.6.1 8.1-.9s1.5-4.8 1.5-6.7c0-2 .1-5.9-1-7.1-1.1-1.2-2.8-1.5-8.6-1.5z"/><path class="st1" d="M30.6 11.4c-2-1.9-3.6-2.3-10.9-2.3s-9.2.8-10.5 2.3-1.7 3.1-1.7 7.9-.1 7 1.7 9.4C11 31 15.5 31 20 31s8 .1 10.3-2c2.2-2.1 2-6.1 2-8.4s.3-7.4-1.7-9.2z"/></g></g><path class="st0" d="M29.6 20.5c0 2 0 5.7-1.5 6.7s-4.3 1-8.1.9c-3.8 0-6.8.1-8.2-.9-1.4-1-1.6-4.5-1.6-7.8s.3-4.9 1.2-6c.9-1.1 2.8-1.5 8.6-1.5s7.5.3 8.6 1.5c1 1.1 1 5.1 1 7.1z"/><path id="Rectangle-108_1_" d="M22.9 22.2l-3.6-7.3-3 1.5 3.6 7.3-1.4.7L15 17l-3 1.5 3.9 8.1.4.7 10.1-4.9 1.7-.8-4.3-8.8-3 1.5 3.6 7.3" fill="#f58237"/></svg>