<?xml version="1.0" encoding="UTF-8"?>
<svg width="460px" height="345px" viewBox="0 0 460 345" version="1.1" xmlns="http://www.w3.org/2000/svg" xmlns:xlink="http://www.w3.org/1999/xlink">
    <title>ec_comp_accordion</title>
    <g id="thumbnails---final" stroke="none" stroke-width="1" fill="none" fill-rule="evenodd">
        <g id="thumbnails---final_symbols" transform="translate(-20.000000, -20.000000)">
            <g id="ec_comp_accordion" transform="translate(20.000000, 20.000000)">
                <g id="Group" transform="translate(80.000000, 70.000000)">
                    <polygon id="Fill-2" fill="#E7E7E7" points="0 174 300 174 300 124 0 124"></polygon>
                    <polygon id="Fill-2" fill="#E7E7E7" points="0 228 300 228 300 178 0 178"></polygon>
                    <polygon id="Fill-3" fill="#E7E7E7" points="-4.54747351e-13 120 300 120 300 50 -4.54747351e-13 50"></polygon>
                    <g id="Group-4" transform="translate(-0.000000, 0.000000)">
                        <polygon id="Fill-2" fill="#E7E7E7" points="0 50 300 50 300 0 0 0"></polygon>
                        <g id="Group-16" transform="translate(13.000000, 20.000000)" fill="#404040">
                            <polygon id="Fill-10" points="27 10 239 10 239 0 27 0"></polygon>
                            <path d="M3.68359212,-1.21091077 C3.73827949,-1.26559814 3.81119612,-1.29294183 3.9023416,-1.29294183 C3.99348708,-1.29294183 4.07551813,-1.26559814 4.14843476,-1.21091077 L9.86326489,4.53126304 C9.93618152,4.58595041 9.97263963,4.65886704 9.97263963,4.75001252 C9.97263963,4.84115799 9.93618152,4.91407463 9.86326489,4.968762 L4.14843476,10.7109358 C4.07551813,10.7656232 3.99348708,10.7929669 3.9023416,10.7929669 C3.81119612,10.7929669 3.73827949,10.7656232 3.68359212,10.7109358 L3.13671842,10.1640621 C3.06380179,10.1093747 3.02734368,10.0364581 3.02734368,9.94531263 C3.02734368,9.85416715 3.06380179,9.7721361 3.13671842,9.69921947 L8.08592537,4.75001252 L3.13671842,-0.199194433 C3.06380179,-0.272111065 3.02734368,-0.354142119 3.02734368,-0.445287596 C3.02734368,-0.536433073 3.06380179,-0.609349705 3.13671842,-0.664037075 L3.68359212,-1.21091077 Z" id="" fill-rule="nonzero" transform="translate(6.499992, 4.750013) rotate(-90.000000) translate(-6.499992, -4.750013) "></path>
                        </g>
                    </g>
                    <g id="Group-9" transform="translate(13.000000, 144.000000)">
                        <polygon id="Fill-10" fill="#CFCFCF" points="27 10 240 10 240 0 27 0"></polygon>
                        <path d="M3.68359212,-1.21091077 C3.73827949,-1.26559814 3.81119612,-1.29294183 3.9023416,-1.29294183 C3.99348708,-1.29294183 4.07551813,-1.26559814 4.14843476,-1.21091077 L9.86326489,4.53126304 C9.93618152,4.58595041 9.97263963,4.65886704 9.97263963,4.75001252 C9.97263963,4.84115799 9.93618152,4.91407463 9.86326489,4.968762 L4.14843476,10.7109358 C4.07551813,10.7656232 3.99348708,10.7929669 3.9023416,10.7929669 C3.81119612,10.7929669 3.73827949,10.7656232 3.68359212,10.7109358 L3.13671842,10.1640621 C3.06380179,10.1093747 3.02734368,10.0364581 3.02734368,9.94531263 C3.02734368,9.85416715 3.06380179,9.7721361 3.13671842,9.69921947 L8.08592537,4.75001252 L3.13671842,-0.199194433 C3.06380179,-0.272111065 3.02734368,-0.354142119 3.02734368,-0.445287596 C3.02734368,-0.536433073 3.06380179,-0.609349705 3.13671842,-0.664037075 L3.68359212,-1.21091077 Z" id="" fill="#404040" fill-rule="nonzero" transform="translate(6.499992, 4.750013) rotate(-270.000000) translate(-6.499992, -4.750013) "></path>
                    </g>
                    <g id="Group-10" transform="translate(13.000000, 198.000000)">
                        <polygon id="Fill-10" fill="#CFCFCF" points="27 10 206 10 206 0 27 0"></polygon>
                        <path d="M3.68359212,-1.21091077 C3.73827949,-1.26559814 3.81119612,-1.29294183 3.9023416,-1.29294183 C3.99348708,-1.29294183 4.07551813,-1.26559814 4.14843476,-1.21091077 L9.86326489,4.53126304 C9.93618152,4.58595041 9.97263963,4.65886704 9.97263963,4.75001252 C9.97263963,4.84115799 9.93618152,4.91407463 9.86326489,4.968762 L4.14843476,10.7109358 C4.07551813,10.7656232 3.99348708,10.7929669 3.9023416,10.7929669 C3.81119612,10.7929669 3.73827949,10.7656232 3.68359212,10.7109358 L3.13671842,10.1640621 C3.06380179,10.1093747 3.02734368,10.0364581 3.02734368,9.94531263 C3.02734368,9.85416715 3.06380179,9.7721361 3.13671842,9.69921947 L8.08592537,4.75001252 L3.13671842,-0.199194433 C3.06380179,-0.272111065 3.02734368,-0.354142119 3.02734368,-0.445287596 C3.02734368,-0.536433073 3.06380179,-0.609349705 3.13671842,-0.664037075 L3.68359212,-1.21091077 Z" id="" fill="#404040" fill-rule="nonzero" transform="translate(6.499992, 4.750013) rotate(-270.000000) translate(-6.499992, -4.750013) "></path>
                    </g>
                    <polygon id="Fill-8" fill="#CFCFCF" points="10 60 290 60 290 50 10 50"></polygon>
                    <polygon id="Fill-8-Copy" fill="#CFCFCF" points="10 80 240 80 240 70 10 70"></polygon>
                    <polygon id="Fill-8-Copy-2" fill="#CFCFCF" points="10 100 102 100 102 90 10 90"></polygon>
                </g>
            </g>
        </g>
    </g>
</svg>