<?xml version="1.0" encoding="UTF-8"?>
<svg width="300px" height="228px" viewBox="0 0 300 228" version="1.1" xmlns="http://www.w3.org/2000/svg" xmlns:xlink="http://www.w3.org/1999/xlink">
    <!-- Generator: Sketch 55.2 (78181) - https://sketchapp.com -->
    <title>ec_comp_accordion</title>
    <desc>Created with Sketch.</desc>
    <g id="thumbnails---final" stroke="none" stroke-width="1" fill="none" fill-rule="evenodd">
        <g id="thumbnails---final_symbols" transform="translate(-100.000000, -90.000000)">
            <g id="ec_comp_accordion" transform="translate(20.000000, 20.000000)">
                <g id="ecl-component-library">
                    <rect id="Rectangle" x="0" y="0" width="460" height="345"></rect>
                </g>
                <g id="accordion" transform="translate(80.000000, 70.000000)">
                    <polygon id="Fill-2" fill="#E7E7E7" points="0 174 300 174 300 124 0 124"></polygon>
                    <g id="Group" stroke-width="1" transform="translate(15.000000, 144.000000)" fill="#404040">
                        <rect id="Rectangle" x="0" y="4" width="10" height="2"></rect>
                        <rect id="Rectangle" x="0" y="4" width="10" height="2"></rect>
                        <rect id="Rectangle" transform="translate(5.000000, 5.000000) rotate(-270.000000) translate(-5.000000, -5.000000) " x="0" y="4" width="10" height="2"></rect>
                    </g>
                    <rect id="Rectangle" fill="#404040" x="11" y="24" width="10" height="2"></rect>
                    <polygon id="Fill-2" fill="#E7E7E7" points="0 228 300 228 300 178 0 178"></polygon>
                    <polygon id="Fill-3" fill="#E7E7E7" points="-4.54747351e-13 120 300 120 300 50 -4.54747351e-13 50"></polygon>
                    <g id="Group-2" stroke-width="1" transform="translate(-0.000000, 0.000000)">
                        <g id="Group-4">
                            <polygon id="Fill-2" fill="#E7E7E7" points="0 50 300 50 300 0 0 0"></polygon>
                            <g id="Group-16" transform="translate(11.000000, 20.000000)" fill="#404040">
                                <polygon id="Fill-10" points="29 10 241 10 241 0 29 0"></polygon>
                                <g id="Group" transform="translate(0.000000, 4.000000)">
                                    <rect id="Rectangle" x="0" y="0" width="10" height="2"></rect>
                                    <rect id="Rectangle" x="4" y="0" width="10" height="2"></rect>
                                </g>
                            </g>
                        </g>
                    </g>
                    <g id="Group" stroke-width="1" transform="translate(15.000000, 198.000000)" fill="#404040">
                        <rect id="Rectangle" x="0" y="4" width="10" height="2"></rect>
                        <rect id="Rectangle" x="0" y="4" width="10" height="2"></rect>
                        <rect id="Rectangle" transform="translate(5.000000, 5.000000) rotate(-270.000000) translate(-5.000000, -5.000000) " x="0" y="4" width="10" height="2"></rect>
                    </g>
                    <g id="Group-5" stroke-width="1" transform="translate(40.000000, 144.000000)" fill="#CFCFCF">
                        <g id="Group-2-Copy">
                            <g id="Group-9">
                                <polygon id="Fill-10" points="0 10 213 10 213 0 0 0"></polygon>
                            </g>
                        </g>
                    </g>
                    <g id="Group-6" stroke-width="1" transform="translate(40.000000, 198.000000)" fill="#CFCFCF">
                        <g id="Group-2-Copy-2">
                            <g id="Group-10">
                                <polygon id="Fill-10" points="0 10 179 10 179 0 0 0"></polygon>
                            </g>
                        </g>
                    </g>
                    <polygon id="Fill-8" fill="#CFCFCF" points="10 60 290 60 290 50 10 50"></polygon>
                    <polygon id="Fill-8-Copy" fill="#CFCFCF" points="10 80 240 80 240 70 10 70"></polygon>
                    <polygon id="Fill-8-Copy-2" fill="#CFCFCF" points="10 100 102 100 102 90 10 90"></polygon>
                </g>
            </g>
        </g>
    </g>
</svg>