<?xml version="1.0" encoding="UTF-8"?>
<svg width="300px" height="205px" viewBox="0 0 300 205" version="1.1" xmlns="http://www.w3.org/2000/svg" xmlns:xlink="http://www.w3.org/1999/xlink">
    <!-- Generator: Sketch 55.1 (78136) - https://sketchapp.com -->
    <title>accordion copy</title>
    <desc>Created with Sketch.</desc>
    <g id="thumbnails---final" stroke="none" stroke-width="1" fill="none" fill-rule="evenodd">
        <g id="thumbnails---final_symbols" transform="translate(-100.000000, -90.000000)">
            <g id="Group-2" transform="translate(20.000000, 20.000000)">
                <g id="Group">
                    <g id="ec_comp_accordion">
                        <g id="accordion" transform="translate(80.000000, 70.000000)">
                            <polygon id="Fill-3" fill="#F5F5F5" points="-4.54747351e-13 120 300 120 300 50 -4.54747351e-13 50"></polygon>
                            <g id="Group-2" stroke-width="1" transform="translate(-0.000000, 0.000000)">
                                <g id="Group-4">
                                    <polygon id="Fill-2" fill="#FFD617" points="0 50 300 50 300 0 0 0"></polygon>
                                    <g id="Group-16" transform="translate(10.000000, 15.000000)" fill="#404040">
                                        <path d="M20,10 C20,15.524 15.522,20 10,20 C4.478,20 0,15.524 0,10 C0,4.478 4.478,0 10,0 C15.522,0 20,4.478 20,10" id="Fill-4"></path>
                                        <polygon id="Fill-10" points="30 15 242 15 242 5 30 5"></polygon>
                                        <path d="M270.683592,3.78908923 C270.738279,3.73440186 270.811196,3.70705817 270.902342,3.70705817 C270.993487,3.70705817 271.075518,3.73440186 271.148435,3.78908923 L276.863265,9.53126304 C276.936182,9.58595041 276.97264,9.65886704 276.97264,9.75001252 C276.97264,9.84115799 276.936182,9.91407463 276.863265,9.968762 L271.148435,15.7109358 C271.075518,15.7656232 270.993487,15.7929669 270.902342,15.7929669 C270.811196,15.7929669 270.738279,15.7656232 270.683592,15.7109358 L270.136718,15.1640621 C270.063802,15.1093747 270.027344,15.0364581 270.027344,14.9453126 C270.027344,14.8541672 270.063802,14.7721361 270.136718,14.6992195 L275.085925,9.75001252 L270.136718,4.80080557 C270.063802,4.72788893 270.027344,4.64585788 270.027344,4.5547124 C270.027344,4.46356693 270.063802,4.39065029 270.136718,4.33596293 L270.683592,3.78908923 Z" id="" fill-rule="nonzero" transform="translate(273.499992, 9.750013) rotate(-90.000000) translate(-273.499992, -9.750013) "></path>
                                    </g>
                                </g>
                            </g>
                            <g id="Group-5" stroke-width="1" transform="translate(10.000000, 135.000000)">
                                <g id="Group-2-Copy">
                                    <g id="Group-9">
                                        <path d="M20,10 C20,15.524 15.522,20 10,20 C4.478,20 0,15.524 0,10 C0,4.478 4.478,0 10,0 C15.522,0 20,4.478 20,10" id="Fill-4" fill="#404040"></path>
                                        <polygon id="Fill-10" fill="#CFCFCF" points="30 15 243 15 243 5 30 5"></polygon>
                                        <path d="M270.683592,3.78908923 C270.738279,3.73440186 270.811196,3.70705817 270.902342,3.70705817 C270.993487,3.70705817 271.075518,3.73440186 271.148435,3.78908923 L276.863265,9.53126304 C276.936182,9.58595041 276.97264,9.65886704 276.97264,9.75001252 C276.97264,9.84115799 276.936182,9.91407463 276.863265,9.968762 L271.148435,15.7109358 C271.075518,15.7656232 270.993487,15.7929669 270.902342,15.7929669 C270.811196,15.7929669 270.738279,15.7656232 270.683592,15.7109358 L270.136718,15.1640621 C270.063802,15.1093747 270.027344,15.0364581 270.027344,14.9453126 C270.027344,14.8541672 270.063802,14.7721361 270.136718,14.6992195 L275.085925,9.75001252 L270.136718,4.80080557 C270.063802,4.72788893 270.027344,4.64585788 270.027344,4.5547124 C270.027344,4.46356693 270.063802,4.39065029 270.136718,4.33596293 L270.683592,3.78908923 Z" id="" fill="#404040" fill-rule="nonzero" transform="translate(273.499992, 9.750013) rotate(-270.000000) translate(-273.499992, -9.750013) "></path>
                                    </g>
                                </g>
                            </g>
                            <g id="Group-6" stroke-width="1" transform="translate(10.000000, 185.000000)">
                                <g id="Group-2-Copy-2">
                                    <g id="Group-10">
                                        <path d="M20,10 C20,15.524 15.522,20 10,20 C4.478,20 0,15.524 0,10 C0,4.478 4.478,0 10,0 C15.522,0 20,4.478 20,10" id="Fill-4" fill="#404040"></path>
                                        <polygon id="Fill-10" fill="#CFCFCF" points="30 15 209 15 209 5 30 5"></polygon>
                                        <path d="M270.683592,3.78908923 C270.738279,3.73440186 270.811196,3.70705817 270.902342,3.70705817 C270.993487,3.70705817 271.075518,3.73440186 271.148435,3.78908923 L276.863265,9.53126304 C276.936182,9.58595041 276.97264,9.65886704 276.97264,9.75001252 C276.97264,9.84115799 276.936182,9.91407463 276.863265,9.968762 L271.148435,15.7109358 C271.075518,15.7656232 270.993487,15.7929669 270.902342,15.7929669 C270.811196,15.7929669 270.738279,15.7656232 270.683592,15.7109358 L270.136718,15.1640621 C270.063802,15.1093747 270.027344,15.0364581 270.027344,14.9453126 C270.027344,14.8541672 270.063802,14.7721361 270.136718,14.6992195 L275.085925,9.75001252 L270.136718,4.80080557 C270.063802,4.72788893 270.027344,4.64585788 270.027344,4.5547124 C270.027344,4.46356693 270.063802,4.39065029 270.136718,4.33596293 L270.683592,3.78908923 Z" id="" fill="#404040" fill-rule="nonzero" transform="translate(273.499992, 9.750013) rotate(-270.000000) translate(-273.499992, -9.750013) "></path>
                                    </g>
                                </g>
                            </g>
                            <polygon id="Fill-8" fill="#CFCFCF" points="10 70 290 70 290 60 10 60"></polygon>
                            <polygon id="Fill-8-Copy" fill="#CFCFCF" points="10 90 240 90 240 80 10 80"></polygon>
                            <polygon id="Fill-8-Copy-2" fill="#CFCFCF" points="10 110 102 110 102 100 10 100"></polygon>
                        </g>
                    </g>
                </g>
            </g>
        </g>
    </g>
</svg>