<?xml version="1.0" encoding="UTF-8"?>
<svg width="460px" height="345px" viewBox="0 0 460 345" version="1.1" xmlns="http://www.w3.org/2000/svg" xmlns:xlink="http://www.w3.org/1999/xlink">
    <title>ec_comp_blockquotes</title>
    <g id="thumbnails---final" stroke="none" stroke-width="1" fill="none" fill-rule="evenodd">
        <g id="thumbnails---final_symbols" transform="translate(-500.000000, -20.000000)">
            <g id="ec_comp_blockquotes" transform="translate(500.000000, 20.000000)">
                <g id="Blockqotes" transform="translate(80.000000, 127.000000)">
                    <g id="Group-4" fill="#FFDD39">
                        <polygon id="Fill-2" points="0 92 5 92 5 0 0 0"></polygon>
                    </g>
                    <g id="Group-9" transform="translate(15.000000, 72.000000)" fill="#404040">
                        <polygon id="Fill-10" points="0 10 60 10 60 0 0 0"></polygon>
                    </g>
                    <g id="Group-3" transform="translate(15.000000, 10.000000)">
                        <polygon id="Fill-8" fill="#CFCFCF" points="15 10 285 10 285 0 15 0"></polygon>
                        <polygon id="Fill-10-Copy" fill="#404040" points="0 10 10 10 10 0 0 0"></polygon>
                        <polygon id="Fill-8-Copy" fill="#CFCFCF" points="0 30 285 30 285 20 0 20"></polygon>
                        <polygon id="Fill-8-Copy-2" fill="#CFCFCF" points="0 50 140 50 140 40 0 40"></polygon>
                        <polygon id="Fill-10-Copy-2" fill="#404040" points="145 50 155 50 155 40 145 40"></polygon>
                    </g>
                </g>
            </g>
        </g>
    </g>
</svg>