<!-- Generated by IcoMoon.io -->
<svg version="1.1" xmlns="http://www.w3.org/2000/svg" width="32" height="32" viewBox="0 0 32 32">
<title>budget</title>
<path d="M16.769 3.037c-1.603 0.417-2.886 1.122-3.655 2.341-2.982 0.577-6.958 0.449-9.715-0.449-0.673-0.224-2.148-0.769-2.148-1.411 0-0.802 2.052-1.411 2.918-1.635 3.88-1.026 10.004-0.802 12.601 1.154v0zM14.941 6.275c1.347-1.603 3.976-1.828 6.733-2.148 2.565-0.321 5.643 0.192 7.599 0.994 0.577 0.224 1.635 0.673 1.635 1.218 0 0.802-2.565 1.571-3.367 1.731-2.822 0.641-6.477 0.609-9.234-0.064-1.379-0.321-2.789-0.641-3.367-1.731v0zM1.25 6.147c2.789 1.507 7.663 1.86 11.735 1.25v2.789c-4.168 0.545-9.394 0.353-11.735-1.763 0-0.769 0-1.539 0-2.276v0zM14.941 8.968c4.040 1.988 11.959 2.084 15.967 0-0.16 0.577 0.192 1.475 0 2.148-0.256 0.898-2.308 1.411-3.431 1.699-4.136 0.93-10.517 0.545-12.536-1.699v-2.148zM1.25 10.86c2.854 1.507 7.695 1.924 11.735 1.283v2.757c-4.168 0.545-9.426 0.385-11.735-1.763 0-0.77 0-1.539 0-2.276v0zM14.941 13.682c3.944 2.020 11.991 2.116 15.903 0-0.032 0.545 0.256 1.443 0.064 2.148-0.256 0.898-2.244 1.443-3.367 1.699-4.136 0.898-10.517 0.545-12.601-1.635 0-0.737 0-1.475 0-2.212v0zM14.941 18.395c3.88 2.052 12.056 2.116 15.903 0 0.16 0.641 0 1.539 0.064 2.276-0.866 0.962-2.276 1.315-3.848 1.635-1.379 0.289-3.302 0.77-4.97 0.385-0.449-0.096-0.93-0.609-1.507-0.866-1.539-0.737-3.623-1.058-5.643-1.282 0-0.705 0-1.443 0-2.148v0zM11.51 22.499c2.661-0.16 5.579 0.064 7.791 0.93 0.77 0.321 1.699 0.737 1.699 1.218-0.032 0.834-2.629 1.603-3.367 1.763-2.95 0.673-6.38 0.641-9.234 0-0.994-0.224-3.367-0.93-3.367-1.763-0.032-0.802 1.924-1.315 2.693-1.539 1.411-0.417 2.405-0.513 3.783-0.609v0zM5.034 27.276c4.008 2.084 11.959 2.052 15.967 0v2.244c-3.302 2.789-12.697 2.822-15.967 0 0-0.737 0-1.507 0-2.244v0z"></path>
</svg>
