<!-- Generated by IcoMoon.io -->
<svg version="1.1" xmlns="http://www.w3.org/2000/svg" width="32" height="32" viewBox="0 0 32 32">
<title>generic-lang</title>
<path d="M20.809 16.952h2.533c0.417-0.898 0.673-1.86 0.737-2.886h-2.854c-0.032 1.058-0.192 2.020-0.417 2.886zM21.258 12.912h2.854c-0.064-1.026-0.321-1.988-0.737-2.886h-2.565c0.224 0.866 0.385 1.828 0.449 2.886zM16.64 18.106v3.302c0.513-0.385 1.699-1.411 2.533-3.302h-2.533zM20.392 18.106c-0.513 1.282-1.186 2.308-1.796 3.014 1.667-0.577 3.078-1.603 4.072-3.014h-2.276zM20.456 8.872h2.244c-0.962-1.411-2.373-2.469-4.008-3.046 0.577 0.737 1.25 1.731 1.763 3.046zM19.622 10.026h-2.982v2.886h3.463c-0.064-1.090-0.224-2.052-0.481-2.886zM20.071 14.066h-3.431v2.886h2.982c0.256-0.834 0.417-1.796 0.449-2.886zM19.173 8.84c-0.256-0.705-0.641-1.282-0.962-1.763-0.481-0.641-0.962-1.090-1.315-1.379-0.064-0.096-0.16-0.128-0.256-0.192v3.335h2.533zM12.953 8.84h2.565v-3.302c-0.545 0.385-1.731 1.443-2.565 3.302zM9.458 8.84h2.276c0.481-1.282 1.186-2.309 1.796-3.014-1.667 0.545-3.078 1.635-4.072 3.014zM10.869 14.034h-2.854c0.064 1.026 0.321 2.020 0.737 2.886h2.533c-0.224-0.866-0.353-1.796-0.417-2.886zM11.318 9.994h-2.533c-0.417 0.898-0.673 1.86-0.77 2.886h2.886c0.064-1.058 0.192-2.020 0.417-2.886zM0 7.397v12.152c0 3.88 3.142 7.022 7.022 7.022h4.713l12.28 5.867v-5.867h1.090c3.848 0 7.022-3.142 7.022-7.022v-12.152c0-3.88-3.174-7.022-7.022-7.022h-18.083c-3.88 0-7.022 3.142-7.022 7.022zM6.861 13.457c0-5.098 4.136-9.234 9.234-9.202 5.098 0 9.202 4.136 9.17 9.234 0 5.098-4.136 9.234-9.234 9.202-5.098 0-9.202-4.136-9.17-9.234zM11.703 18.074h-2.276c0.994 1.411 2.405 2.469 4.040 3.046-0.609-0.737-1.283-1.731-1.763-3.046zM12.536 16.92h2.95v-2.886h-3.431c0.032 1.090 0.192 2.052 0.481 2.886zM12.056 12.88h3.431v-2.886h-2.982c-0.257 0.834-0.385 1.796-0.449 2.886zM12.921 18.106c0.289 0.673 0.673 1.25 0.994 1.731 0.481 0.609 0.962 1.090 1.315 1.379 0.064 0.096 0.16 0.16 0.224 0.192v-3.302h-2.533z"></path>
</svg>
