<!-- Generated by IcoMoon.io -->
<svg version="1.1" xmlns="http://www.w3.org/2000/svg" width="32" height="32" viewBox="0 0 32 32">
<title>global</title>
<path d="M2.918 12.752v-1.090c0.385-5.002 2.341-8.368 5.29-10.805 0.417 0.417 0.93 0.802 1.25 1.347-2.789 2.405-4.938 6.188-4.617 11.158 0.481 6.733 6.445 12.472 13.979 11.959 3.142-0.192 5.29-1.411 7.342-2.918-0.385-0.513-0.866-0.994-1.411-1.379-2.854 2.629-8.368 3.014-12.056 1.090-3.367-1.731-6.252-5.515-5.899-10.677 0.353-5.419 4.296-9.33 9.106-10.228 5.739-1.058 10.581 2.469 12.312 6.701 1.539 3.783 0.705 8.881-1.571 11.286 0.866 0.962 1.828 1.796 2.597 2.854-2.854 3.014-6.605 5.611-12.536 5.162-4.040-0.289-7.278-2.148-9.555-4.489-2.373-2.469-3.976-5.675-4.168-9.907 0-0.032 0-0.064-0.064-0.064v0zM14.621 4.447c1.507 0.353 0.93 1.892 0.192 2.661-1.090 1.122-4.649 1.828-2.052 3.206 0.192 1.058 0.898 0.834 1.924 0.93 1.218 0.096 2.854 0.513 3.27 1.635 0.417 1.090-0.353 2.309-0.834 3.27-0.481 0.93-0.705 2.020-1.218 2.629-0.289 0.321-0.802 0.577-1.154 0.481-1.154-0.289-0.417-2.918-0.802-4.425-0.192-0.866-0.898-1.315-0.834-2.244 0.032-0.385 0.353-0.673 0.224-0.994-0.77-0.513-1.828-0.577-2.469-1.218-0.385-0.353-0.449-0.866-0.93-1.154-1.315 3.527 0.16 7.246 2.020 9.074 1.475 1.475 3.815 2.597 6.477 2.405 4.938-0.321 8.721-4.585 7.791-10.26-0.321 0.096-0.737 0.032-1.026 0.128 0.064 0.705 0.128 1.25 0.032 2.020-1.282 0.802-0.737 3.495-2.533 3.815-0.93-1.122 0-3.88-0.962-4.745-0.834-0.705-2.757 0.096-2.693-1.347 0.064-1.283 2.501-1.539 2.854-2.533-0.16-0.192-0.802 0.064-0.898-0.192 0.128-1.25 1.090-1.699 2.373-1.828-1.571-1.828-6.028-2.757-8.753-1.315v0zM25.201 31.893h-14.588c0.417-1.892 3.174-1.443 5.419-1.507 0.032-0.513-0.096-1.186 0.064-1.603h3.751v1.603c2.212 0.064 5.002-0.417 5.354 1.507v0z"></path>
</svg>
