<?xml version="1.0" encoding="UTF-8"?>
<svg width="40px" height="40px" viewBox="0 0 40 40" version="1.1" xmlns="http://www.w3.org/2000/svg" xmlns:xlink="http://www.w3.org/1999/xlink">
    <title>EC/Icons/Country flags/Normal/40x40/EU</title>
    <g id="EC/Icons/Country-flags/Normal/40x40/EU" stroke="none" stroke-width="1" fill="none" fill-rule="evenodd">
        <polygon id="Background" fill="#003399" points="1 7 39 7 39 33 1 33"></polygon>
        <path d="M19.1551655,12.6191014 L19.1542726,12.6200141 L19.4774534,11.6191171 L18.6325451,11.0013988 L18.6314066,11.0008262 L19.6769519,11.0008262 L19.9997009,10.0012665 L19.9998902,10 L20.3230481,11.0008262 L21.36727,11.0008262 L21.3685255,11.000616 L20.5225466,11.6191171 L20.8453185,12.6187476 L20.8459051,12.6198842 L20,12.001437 L19.1551655,12.6191014 Z M19.4774534,28.999103 L18.6325451,28.3813847 L18.6314066,28.3808122 L19.6769519,28.3808122 L19.9997009,27.3812524 L19.9998902,27.3799859 L20.3230481,28.3808122 L21.3685934,28.3808122 L21.3674549,28.3813847 L20.5225466,28.999103 L20.8457274,30 L20.8448345,29.9990873 L20,29.3814229 L19.1540949,29.9998701 L19.1546815,29.9987335 L19.4774534,28.999103 Z M11.3684157,18.689993 L11.6915736,19.6908192 L12.7371189,19.6908192 L12.7359804,19.6913917 L11.8910722,20.3091101 L12.2142529,21.310007 L12.21336,21.3090944 L11.3685255,20.69143 L10.5226204,21.3098771 L10.523207,21.3087405 L10.8459789,20.3091101 L10,19.690609 L10.0012555,19.6908192 L11.0454774,19.6908192 L11.3682264,18.6912595 L11.3684157,18.689993 Z M14.838339,13.7842776 L15.1614969,12.7834513 L14.315633,12.1650343 L14.3168885,12.1652445 L15.3612525,12.1652445 L15.6844333,11.1643475 L15.6846226,11.165614 L16.0073206,12.165016 L17.0529168,12.165016 L17.0517783,12.1655886 L16.2067507,12.7833942 L16.5298859,13.78415 L16.528993,13.7832373 L15.6841997,13.165603 L14.8392319,13.7833649 L14.838339,13.7842776 Z M12.524564,14.3463386 L12.5247533,14.3450721 L12.8479341,15.3459691 L13.8922981,15.3459691 L13.8935536,15.3457589 L13.0476897,15.9641759 L13.3704387,16.9637357 L13.3710253,16.9648746 L12.5249869,16.3463276 L11.6801936,16.9639619 L11.6793007,16.9648746 L12.0024358,15.9641188 L11.1574082,15.3463132 L11.1562697,15.3457407 L12.2018659,15.3457407 L12.524564,14.3463386 Z M11.1573707,24.0365106 L11.1562322,24.0359381 L12.2020671,24.0359381 L12.5247934,23.0364488 L12.5249827,23.0351823 L12.8480739,24.0358021 L13.8925116,24.0358021 L13.8937671,24.0355919 L13.0477286,24.6541365 L13.3704109,25.6534898 L13.3709976,25.6546264 L12.5250187,25.0361253 L11.6799911,25.6539309 L11.6790982,25.6548436 L12.0022052,24.6541751 L11.1573707,24.0365106 Z M17.053106,27.2163501 L16.2070676,27.8348947 L16.5301588,28.8355145 L16.5292659,28.8346018 L15.6843577,28.2168835 L14.8382594,28.8354718 L14.8388461,28.8343352 L15.1615441,27.8349332 L14.315639,27.2164861 L14.3168945,27.2166963 L15.3614061,27.2166963 L15.6845412,26.2159405 L15.6847305,26.217207 L16.0074129,27.2165603 L17.0518505,27.2165603 L17.053106,27.2163501 Z M28.6315843,18.689993 L28.6317736,18.6912595 L28.9545226,19.6908192 L29.9987445,19.6908192 L30,19.690609 L29.1540211,20.3091101 L29.476793,21.3087405 L29.4773796,21.3098771 L28.6314745,20.69143 L27.78664,21.3090944 L27.7857471,21.310007 L28.1089278,20.3091101 L27.2640196,19.6913917 L27.2628811,19.6908192 L28.3084264,19.6908192 L28.6315843,18.689993 Z M25.161661,13.7842776 L25.1607681,13.7833649 L24.3158003,13.165603 L23.471007,13.7832373 L23.4701141,13.78415 L23.7932493,12.7833942 L22.9482217,12.1655886 L22.9470832,12.165016 L23.9926794,12.165016 L24.3153774,11.165614 L24.3155667,11.1643475 L24.6387475,12.1652445 L25.6831115,12.1652445 L25.684367,12.1650343 L24.8385031,12.7834513 L25.161661,13.7842776 Z M26.6289747,16.9648723 L26.6295613,16.9637357 L26.9523103,15.9641759 L26.1075171,15.3465416 L26.1063786,15.3459691 L27.1520659,15.3459691 L27.4748378,14.3463386 L27.4750271,14.3450721 L27.7981341,15.3457407 L28.8424069,15.3457407 L28.8436624,15.3455305 L27.9975642,15.9641188 L28.3202904,16.9636081 L28.320877,16.9647447 L27.4750131,16.3463276 L26.6289747,16.9648723 Z M27.4752066,23.0364488 L27.7979329,24.0359381 L28.8437678,24.0359381 L28.8426293,24.0365106 L27.9977948,24.6541751 L28.3209018,25.6548436 L28.3200089,25.6539309 L27.4749813,25.0361253 L26.6290024,25.6546264 L26.6295891,25.6534898 L26.9522714,24.6541365 L26.1062329,24.0355919 L26.1074884,24.0358021 L27.1519261,24.0358021 L27.4750173,23.0351823 L27.4752066,23.0364488 Z M23.0451894,27.2660265 L22.9468261,27.2165603 L22.9775301,27.2165603 L22.946894,27.194162 L23.0806758,27.2165603 L23.9925871,27.2165603 L24.3090945,26.2363309 L24.3154588,26.1937524 L24.6385939,27.1945082 L25.6844288,27.1945082 L25.6189488,27.2274376 L25.684361,27.2164861 L24.8442519,27.8306957 L25.1615629,28.8134137 L25.1378423,28.7891693 L25.1617406,28.8354718 L24.300468,28.2057895 L23.5469885,28.7566636 L23.4698412,28.8355145 L23.4793292,28.8061298 L23.4696635,28.8131965 L23.4893855,28.7749855 L23.7987285,27.8169442 L23.0451894,27.2660265 Z" id="Stars" fill="#FFCC00"></path>
    </g>
</svg>