<svg width="24" height="24" xmlns="http://www.w3.org/2000/svg" xmlns:xlink="http://www.w3.org/1999/xlink"><defs><path d="M11.78 23c-.99 0-2.09-.11-3.08-.442.44-.664.88-1.548 1.21-2.322.11-.553.77-2.985.77-2.985.44.774 1.54 1.437 2.75 1.437 3.52 0 5.94-3.206 5.94-7.517 0-3.206-2.75-6.412-7.04-6.412-5.17 0-7.92 3.759-7.92 6.854 0 1.99.77 3.648 2.2 4.201.22.11.55 0 .55-.221 0-.11.11-.663.22-.884.11-.222 0-.443-.11-.664-.44-.553-.77-1.216-.77-2.21 0-2.765 2.09-5.307 5.39-5.307 2.97 0 4.51 1.768 4.51 4.311 0 3.206-1.43 5.86-3.52 5.86-1.21 0-2.09-.885-1.65-2.101.44-1.437.99-2.874.99-3.87 0-.884-.55-1.658-1.43-1.658-1.21 0-2.09 1.216-2.09 2.875 0 .995.44 1.658.44 1.658s-1.21 5.085-1.43 5.97c-.22.774-.22 1.769-.11 2.653C3.75 20.568 1 16.588 1 12.056 1 5.974 5.95 1 12 1s11 4.975 11 11.055C22.78 18.025 17.83 23 11.78 23z" id="a"/></defs><use xlink:href="#a"/></svg>