<svg width="24" height="24" xmlns="http://www.w3.org/2000/svg" xmlns:xlink="http://www.w3.org/1999/xlink"><defs><path d="M22.45 12.054C22.45 6.31 17.83 1.76 12 1.76c-.66 0-1.21 0-1.76.108C9.36 1.217 8.15 1 7.05 1 3.64 1 1 3.71 1 6.96c0 1.193.22 2.168.77 3.035-.11.65-.11 1.3-.11 2.06 0 5.743 4.62 10.295 10.45 10.295.66 0 1.32 0 1.98-.109.88.542 1.76.759 2.86.759 3.41 0 6.05-2.71 6.05-5.96 0-.976-.22-1.951-.66-2.71 0-.759.11-1.517.11-2.276zM17.5 17.04c-.55.65-1.21 1.3-2.09 1.626-.88.434-2.09.542-3.19.542-1.54 0-2.75-.217-3.74-.759-.66-.433-1.32-.867-1.65-1.517-.44-.65-.66-1.3-.66-1.95 0-.434.11-.76.44-.976.22-.217.66-.434.99-.434.33 0 .66.109.88.217.22.217.44.542.66.867.11.434.44.759.66.976.22.216.55.541.88.65.44.108.88.217 1.54.217.88 0 1.54-.109 2.09-.542.55-.434.77-.759.77-1.3 0-.434-.11-.76-.44-.976a2.505 2.505 0 0 0-1.21-.65c-.55-.109-1.21-.217-1.98-.542a30.7 30.7 0 0 1-2.75-.759c-.77-.217-1.43-.759-1.76-1.3-.44-.542-.66-1.3-.66-2.06 0-.758.22-1.517.77-2.059.55-.65 1.21-.975 2.09-1.409.88-.216 1.98-.541 3.08-.541.88 0 1.76.108 2.42.216.66.217 1.32.542 1.65.867.55.434.77.759.99 1.192.22.434.44.76.44 1.193 0 .433-.11.758-.44.975-.33.217-.66.433-.99.433-.33 0-.66-.108-.88-.216-.22-.109-.44-.434-.66-.759-.22-.542-.55-.867-.88-1.192-.44-.217-.88-.434-1.76-.434-.77 0-1.43.109-1.76.434-.88.433-.99.759-.99 1.192 0 .217.11.434.22.65.11.109.44.434.66.542.22.109.55.217.88.434.22.108.77.216 1.43.433.88.109 1.65.434 2.31.65.66.217 1.32.542 1.76.76.55.433.88.758 1.21 1.3.22.541.44 1.192.44 1.734-.22.758-.44 1.517-.77 2.275z" id="a"/></defs><use xlink:href="#a"/></svg>