<?xml version="1.0" encoding="utf-8"?>
<!-- Generator: Adobe Illustrator 19.2.0, SVG Export Plug-In . SVG Version: 6.00 Build 0)  -->
<svg version="1.1" id="Layer_1" xmlns:sketch="http://www.bohemiancoding.com/sketch/ns"
	 xmlns="http://www.w3.org/2000/svg" xmlns:xlink="http://www.w3.org/1999/xlink" x="0px" y="0px" viewBox="0 0 40 40"
	 style="enable-background:new 0 0 40 40;" xml:space="preserve">
<style type="text/css">
	.st0{fill:#FFFFFF;}
	.st1{fill:#FBBC05;}
	.st2{fill:#EA4335;}
	.st3{fill:#34A853;}
	.st4{fill:#4285F4;}
</style>
<title>google</title>
<desc>Created with Sketch.</desc>
<g id="Page-1" sketch:type="MSPage">
	<g id="google" sketch:type="MSLayerGroup">
		<rect id="bg" sketch:type="MSShapeGroup" class="st0" width="40" height="40">
		</rect>
		<g id="icon" transform="translate(87.500000, 83.698830)" sketch:type="MSShapeGroup">
			<path id="Shape" class="st1" d="M-79.1-69.6l4.5,3.4c-0.3,0.8-0.4,1.6-0.4,2.5c0,0.9,0.1,1.7,0.4,2.5l-4.5,3.4
				c-0.9-1.8-1.4-3.8-1.4-5.9S-80-67.8-79.1-69.6z"/>
			<path id="Shape_1_" class="st2" d="M-79.1-69.6l4.5,3.4c1-3.1,4-5.4,7.5-5.4c1.9,0,3.6,0.7,4.9,1.8l3.9-3.9
				c-2.4-2.1-5.4-3.3-8.8-3.3C-72.5-77-77-74-79.1-69.6z"/>
			<path id="Shape_2_" class="st3" d="M-79.1-57.8l4.5-3.4c1,3.1,4,5.4,7.5,5.4c3.7,0,6.5-1.9,7.1-5.1h-7.1v-5.1h5.9h5h1.5
				c0.2,0.8,0.3,1.6,0.3,2.4c0,8.5-6,13.3-12.7,13.3C-72.4-50.4-77-53.4-79.1-57.8z"/>
			<path id="Mask" class="st4" d="M-58.5-53.7l-4.2-3.3c1.4-0.9,2.4-2.2,2.7-4h-7.1v-5.1h5.9h5h1.5c0.2,0.8,0.3,1.6,0.3,2.4
				C-54.5-59.4-56.1-56-58.5-53.7z"/>
		</g>
	</g>
</g>
</svg>
