<?xml version="1.0" encoding="utf-8"?>
<!-- Generator: Adobe Illustrator 19.2.0, SVG Export Plug-In . SVG Version: 6.00 Build 0)  -->
<svg version="1.1" id="Layer_1" xmlns:sketch="http://www.bohemiancoding.com/sketch/ns"
	 xmlns="http://www.w3.org/2000/svg" xmlns:xlink="http://www.w3.org/1999/xlink" x="0px" y="0px" viewBox="0 0 40 40"
	 style="enable-background:new 0 0 40 40;" xml:space="preserve">
<style type="text/css">
	.st0{fill:#15A0B7;}
	.st1{fill:#FEFEFE;}
</style>
<title>foursquare_hover</title>
<desc>Created with Sketch.</desc>
<g id="Page-1" sketch:type="MSPage">
	<g id="foursquare_hover" sketch:type="MSLayerGroup">
		<rect id="bg" sketch:type="MSShapeGroup" class="st0" width="40" height="40">
		</rect>
		<path id="icon" sketch:type="MSShapeGroup" class="st1" d="M30.2,15.4c0,0.3-0.2,0.5-0.3,0.6c-3.1,3.2-6.3,6.3-9.4,9.5
			c-0.4,0.4-0.9,0.4-1.3,0c-1.7-1.7-3.4-3.5-5.1-5.2c-0.4-0.4-0.4-0.8,0-1.2c0.4-0.4,0.9-0.9,1.3-1.3c0.4-0.5,0.8-0.5,1.3,0
			c0.9,0.9,1.9,1.9,2.8,2.8c0.3,0.3,0.5,0.3,0.8,0c2.3-2.3,4.6-4.6,6.9-6.9c0.7-0.7,0.9-0.7,1.7,0c0.4,0.4,0.7,0.7,1.1,1.1
			C30.1,15,30.3,15.2,30.2,15.4z M29.3,18.4c-2.9,2.9-5.8,5.8-8.7,8.8c-0.4,0.4-0.9,0.4-1.3,0c-0.2-0.2-0.3-0.3-0.5-0.5
			c-0.1-0.1-0.1-0.1-0.2-0.2c-1.8-1.8-3.6-3.6-5.3-5.4c-0.8-0.8-0.8-1.9,0-2.7c0.5-0.5,0.9-0.9,1.4-1.4c0.9-0.9,2-0.9,2.9,0.1
			c0.6,0.7,1.3,1.3,1.9,1.9c0.3,0.3,0.5,0.3,0.8,0c1.5-1.5,3-3.1,4.5-4.6c0.3-0.3,0.3-0.5,0-0.8c-1-1-2-2-3.1-3
			c-1.1-1.1-2.5-1.1-3.6,0c-2.5,2.5-5.1,5.1-7.6,7.7c-1.1,1.1-1.1,2.5,0,3.6c2.5,2.6,5.1,5.2,7.7,7.7c1.1,1.1,2.5,1,3.6-0.1
			c1.1-1.1,2.3-2.3,3.4-3.4c1.4-1.4,2.8-2.8,4.1-4.2c0.9-0.9,1.1-2.1,0.5-3.1C29.7,18.4,29.5,18.3,29.3,18.4z"/>
	</g>
</g>
</svg>
