<svg xmlns="http://www.w3.org/2000/svg" viewBox="0 0 40 40"><path fill="#4b4b4c" d="M0 0h40v40H0z"/><path d="M5.7 25v-9.5c0-.2.1-.3.3-.3h4.5V12c0-.2.1-.4.3-.4h2.5v13.1c0 .2-.1.4-.3.4H5.7V25zm2.8-2.1h1.7c.2 0 .3-.1.3-.4v-5.2H8.8c-.2 0-.3.1-.3.4v5.2zm5.7 2.1v-9.5c0-.2.1-.3.3-.3H17v9.4c0 .2-.1.4-.3.4h-2.5zm0-11.3V12c0-.2.1-.4.3-.4H17v1.8c0 .2-.1.4-.3.4h-2.5v-.1zM18 25v-9.5c0-.2.1-.3.3-.3h7.3V28c0 .2-.1.3-.3.3H18v-1.8c0-.2.1-.4.3-.4h4.5V25H18zm2.8-2.1h1.7c.2 0 .3-.1.3-.4v-5.2h-1.7c-.2 0-.3.1-.3.4v5.2zm5.8 3.7c0-.2.1-.4.3-.4h4.5V25h-4.8v-9.5c0-.2.1-.3.3-.3h7.3V28c0 .2-.1.3-.3.3h-7.3v-1.7zm2.8-3.7h1.7c.2 0 .3-.1.3-.4v-5.2h-1.7c-.2 0-.3.1-.3.4v5.2z" fill="#fff"/></svg>