<svg id="Layer_1" xmlns="http://www.w3.org/2000/svg" viewBox="0 0 40 40"><style>.st1{fill:#fff}</style><g id="Page-1"><g id="email_hover"><path id="bg" fill="#13527c" d="M0 0h40v40H0z"/><path id="icon_1_" class="st1" d="M8.5 11.6v16.8h22.9V11.6H8.5zM29.9 13L20 20.7l-9.8-7.6 19.7-.1zM10 27V14.3l10 7.9 10-7.9V27H10z"/><path class="st1" d="M31.5 28.4h-23V11.6h23v16.8zm-22.9 0h22.8V11.6H8.6v16.8zM30.1 27H10V14.2l10 7.9 10.1-7.9V27zm-20-.1h20V14.4l-10 7.8-10-7.8v12.5zm9.9-6.1l-10-7.7 20-.1-10 7.8zm-9.7-7.6l9.7 7.5 9.7-7.6-19.4.1z"/></g></g></svg>