<svg xmlns="http://www.w3.org/2000/svg" viewBox="0 0 40 40"><path d="M.004 0v40h40V0h-40z"/><path d="M20.704 21.6c-.6-.4-1.7-1.5-1.7-2 0-.7.2-1 1.3-1.9 1.2-.8 1.9-2 1.9-3.5 0-1.6-.7-3.3-2.1-3.7h2.1l1.5-1.2h-6.6c-3 0-5.7 2.2-5.7 4.9s2 4.8 5 4.8h.6c-.2.4-.4.7-.4 1.3 0 .7.4 1.4.8 1.9h-1.2c-3.6 0-6.5 2.3-6.5 4.8s3.1 3.8 6.8 3.8c4.1 0 6.5-2.3 6.5-4.8 0-1.9-.6-3.1-2.3-4.4zm-3.5-3.2c-1.7 0-3.3-1.9-3.6-4.1-.2-2.2.8-3.8 2.5-3.8s3.3 1.9 3.6 4.1c.4 2-.8 3.8-2.5 3.8zm-.6 11.3c-2.5 0-4.4-1.6-4.4-3.5s2.2-3.5 4.8-3.4c.6 0 1.2.1 1.6.2 1.4 1 2.3 1.5 2.7 2.7 0 .2.1.5.1.6-.1 1.8-1.3 3.4-4.8 3.4zm11.2-13.7h-2.1v2.5h-2.5v2.1h2.5V23h2.1v-2.4h2.4v-2.1h-2.4V16z" fill="#fff"/></svg>