<svg id="Layer_1" xmlns="http://www.w3.org/2000/svg" viewBox="0 0 40 40"><style>.st1{fill:#fff}</style><g id="Page-1"><g id="storify"><path id="bg" d="M40 0H0v40h40V0z" fill="#009dca"/><g id="icon" transform="translate(119.247 122)"><path id="Shape" class="st1" d="M-95.5-109.2c1.7 0 3 .7 4.2 1.9 1.4 1.4 2.3 3.1 2.5 5 .4 3.5-1.1 7-4.4 8.9-1.5.9-3.2 1.4-5 1.6-.2 0-.5-.3-.5-.5 0-.1.2-.1.3-.1 1.2-.4 2.2-1 3-2 1.5-1.8 1.8-5-.1-7.2-.6-.7-1.3-1.3-2-2-.3-.3-.5-.5-.7-.8-1.4-1.9-.5-4.2 1.9-4.6.2-.2.5-.3.8-.2z"/><path id="Shape_1_" class="st1" d="M-103-94.8c-1.6 0-3-.7-4.1-1.8-1.4-1.4-2.3-3-2.6-4.9-.6-3.6 1.2-7.2 4.4-9.1 1.5-.9 3.2-1.4 4.9-1.6.2 0 .5.3.5.5 0 .1-.2.1-.2.1-1.2.4-2.2 1-3 2-1.5 1.8-1.8 5 .1 7.2.6.7 1.3 1.3 2 2 .3.3.5.5.7.8 1.4 1.9.5 4.2-1.9 4.6-.1.2-.4.2-.8.2z"/></g></g></g></svg>