<svg xmlns="http://www.w3.org/2000/svg" viewBox="0 0 40 40"><path fill="#f07355" d="M0 0h40v40H0z"/><path d="M8.8 23.1c0 2.5.9 4.7 2.6 6.5 1.7 1.9 3.9 2.8 6.6 2.8 2.7 0 4.9-.9 6.6-2.8 1.7-1.8 2.6-4 2.6-6.5 0-1.3-.2-2.6-.7-3.7-.7.4-1.4.7-2.2.9.4.9.6 1.8.6 2.9 0 1.3-.3 2.5-.9 3.6-.6 1.1-1.5 2-2.5 2.6-1.1.6-2.2.9-3.4.9-1.3 0-2.4-.3-3.5-.9-1.1-.6-1.9-1.5-2.5-2.6-.6-1.1-.9-2.3-.9-3.6 0-2 .7-3.7 2-5.1 1.4-1.4 3-2.1 4.9-2.1.9 0 1.7.2 2.5.5.1-.7.3-1.4.7-2.2-1-.4-2-.5-3.2-.5-2.7 0-5 1-6.8 3-1.7 1.6-2.5 3.8-2.5 6.3zm7.1 6.4l1.4.1c1.3-.8 2.3-1.7 3.2-2.8.9-1.1 1.5-2.1 1.8-3.2.4-1.1.6-2.1.8-3.2.1-.7.2-1.4.2-2 0-.4 0-.7-.1-1-.1-.9-.2-1.8-.3-2.5-.1-.7-.3-1.3-.4-1.7l-.2-.6c-.4-1.2-.7-2.2-1.1-3-.4-.9-.6-1.4-.8-1.7l-.3-.4c.7.3 1.2.7 1.6 1.2.4.5.6.9.7 1.4.1.3.1.7.1 1v.2c0 .4-.1.7-.2.9l-.1.3c.1 1 .1 1.9.1 2.9 0 .9 0 1.7-.1 2.6-.2 1.7-.4 3.1-.8 4.3-.4 1.1-.8 2.2-1.3 3.1-.5.9-1 1.7-1.5 2.2-.5.5-1 1-1.4 1.3-.4.3-.8.6-1 .7l-.3-.1zm7-16.2c.1-.7.3-1.2.6-1.6l.5-.7c.2-.2.5-.5 1-.7.5-.2.9-.4 1.2-.5l.5-.2c.6-.1 1.2-.4 1.7-.9s.9-.9 1.1-1.3l.3-.6c.7 1 1.1 2.1 1.2 3.3.1.5.1 1 .1 1.5 0 .6-.1 1.1-.2 1.5l-.3 1.1c-.2.6-.5 1.1-.9 1.5-.4.5-.7.8-.9.9l-.4.3c-.6.3-1.1.5-1.7.5L23.9 16c1-.5 1.8-1.1 2.6-1.7.7-.6 1.3-1 1.6-1.5s.6-.8.8-1.1c.2-.3.3-.6.4-.8l.1-.3c-.3.7-.7 1.3-1.2 1.9-.5.6-1 1-1.6 1.3-.5.3-1 .6-1.5.8-.5.2-.9.4-1.2.5l-.5.1c-.4-.7-.6-1.4-.6-2 .1.3.1.2.1.1z" fill="#fff"/></svg>