<svg xmlns="http://www.w3.org/2000/svg" viewBox="0 0 40 40"><path fill="#00b285" d="M0 0h40v40H0z"/><path d="M11.2 19.2c-.7-2.3-1.1-4.7-1.5-7.1 0-.2 0-.3.2-.3h3.5c.1 0 .1.1.2.1-.4.1-.8 0-1.2.1H10h3.2c.2 0 .3.1.4-.1.3.9.3 1.8.4 2.7.8 4.7 2.3 9 5.3 12.8.1.1.1.1.1.2.2.4.4.3.7 0 1.4-1.5 2.5-3.1 3.4-4.9.2-.3.1-.4-.2-.6-2.1-1.2-3.2-3.1-3.7-5.4-.3-1.6-.4-3.2.2-4.8.9-2.6 3.3-3.9 6.1-3.4 2.5.5 3.9 2.2 4.1 4.9.1 1.4-.1 2.8-.6 4.1-.2.5-.4.6-.9.6-.9 0-1.7-.2-2.4-.8-.2-.2-.3-.4-.2-.8.3-1.1.5-2.3.2-3.5-.2-.8-.7-1.2-1.3-1.2-.6 0-1.2.4-1.5 1.1-1.2 2.9.9 6.6 3.9 7.1.8.1 1.6.1 2.4 0 .3-.1.4 0 .4.3v2.1c0 .3-.1.4-.4.4-.6.1-1.3.2-1.9.2-.4 0-.6.2-.7.5-1.4 2.7-3.2 5.1-5.4 7.1-1.6 1.4-2.6 1.4-4.2 0-2-1.7-3.3-3.9-4.5-6.3-.7-1.4-1.2-2.8-1.6-4.3.1-.2.1-.5-.1-.8z" fill="#fff"/></svg>