<svg viewBox="0 0 40 40" xmlns="http://www.w3.org/2000/svg"><g fill="none" fill-rule="evenodd"><path fill="#BA513C" d="M0 0h40v40H0z"/><path d="M28.231 18.481h.241c1.637 0 2.97 1.315 2.97 2.93v.017l.001.017c.108 1.414.161 2.89.157 4.392a55.836 55.836 0 0 1-.157 4.395l-.002.017v.017c0 1.615-1.554 2.93-3.19 2.93h.203c-2.614.109-5.606.16-8.453.156-2.849.005-5.841-.047-8.456-.157h.205c-1.637 0-3.192-1.314-3.192-2.93v-.016l-.001-.017a55.679 55.679 0 0 1-.157-4.393 55.583 55.583 0 0 1 .157-4.394l.001-.017v-.017c0-1.615 1.555-2.93 3.192-2.93h-.205A200.52 200.52 0 0 1 20 18.325c2.85-.006 5.618.047 8.232.156zm-1.107 6.782c0-.324.05-.555.149-.695.1-.14.263-.21.492-.21.218 0 .377.07.476.21.1.14.15.371.15.695v.78h-1.267v-.78zm2.743 1.978v-1.964c0-.732-.176-1.294-.528-1.684-.352-.39-.857-.586-1.513-.586-.642 0-1.165.211-1.57.633-.406.421-.609.967-.609 1.637v3.463c0 .743.185 1.326.554 1.75.369.425.875.637 1.516.637.715 0 1.251-.2 1.61-.6.36-.4.54-.996.54-1.787v-.58h-1.476v.537c0 .453-.047.747-.142.88-.095.132-.26.199-.5.199-.227 0-.39-.079-.484-.236-.095-.156-.141-.438-.141-.843V27.24h2.743zm-6.778 1.869c0 .246-.042.423-.124.531-.083.109-.213.163-.388.163l-.346-.084-.34-.27v-4.81l.296-.235.303-.076c.194 0 .343.068.445.203.102.135.154.332.154.593v3.983zm.077-6.005c-.222 0-.442.06-.66.184a2.218 2.218 0 0 0-.615.537v-3.368h-1.448v10.46h1.448v-.593c.189.235.392.41.613.521.22.113.47.17.75.17.425 0 .75-.145.974-.437.225-.291.337-.711.337-1.26v-4.28c0-.63-.12-1.11-.359-1.44-.238-.33-.585-.494-1.04-.494zm-5.558 5.954l-.443.415c-.161.109-.294.163-.4.163-.135 0-.232-.041-.292-.123-.06-.082-.09-.214-.09-.397v-5.915h-1.435v6.449c0 .46.085.804.253 1.034.168.23.418.345.75.345.269 0 .546-.083.832-.246a3.14 3.14 0 0 0 .825-.718v.852h1.435v-7.716h-1.435v5.857zm-2.64-8.6H10.01v1.518h1.671v8.94h1.616v-8.94h1.671v-1.519zM12.335 6.647h1.627l1.049 4.18h.101l1-4.18h1.641l-1.88 6.12v4.34h-1.616v-4.146l-1.922-6.314zm6.821 8.652c0 .212.051.376.153.492.103.116.248.173.438.173a.616.616 0 0 0 .463-.177c.114-.118.172-.28.172-.488v-4.202a.521.521 0 0 0-.175-.409.668.668 0 0 0-.46-.155.595.595 0 0 0-.426.155.537.537 0 0 0-.165.409V15.3zm-1.476-4.145c0-.597.193-1.073.58-1.427.385-.355.904-.531 1.557-.531.593 0 1.08.186 1.458.56.38.373.57.854.57 1.442v3.985c0 .66-.187 1.178-.559 1.554-.371.376-.883.564-1.535.564-.627 0-1.13-.194-1.506-.582-.377-.388-.565-.91-.565-1.565v-4zm9.477-1.764v7.716h-1.435v-.852c-.264.314-.54.553-.826.717-.286.164-.563.247-.832.247-.332 0-.582-.115-.75-.345-.168-.23-.252-.574-.252-1.034V9.391h1.435v5.915c0 .183.03.315.09.397.06.082.157.123.292.123.105 0 .239-.054.4-.162l.443-.416V9.391h1.435z" fill="#FFF"/></g></svg>