<?xml version="1.0" encoding="UTF-8"?>
<svg width="460px" height="345px" viewBox="0 0 460 345" version="1.1" xmlns="http://www.w3.org/2000/svg" xmlns:xlink="http://www.w3.org/1999/xlink">
    <!-- Generator: Sketch 55 (78076) - https://sketchapp.com -->
    <title>ec_component</title>
    <desc>Created with Sketch.</desc>
    <g id="Symbols" stroke="none" stroke-width="1" fill="none" fill-rule="evenodd">
        <g id="ecl-component-library">
            <g id="search" transform="translate(40.000000, 138.000000)">
                <g id="Group-7-Copy" transform="translate(0.000000, 0.000000)">
                    <rect id="Rectangle" fill="#044695" x="-4.54747351e-13" y="0" width="380" height="70"></rect>
                    <rect id="Rectangle" fill="#FFFFFF" x="40" y="20" width="300" height="30"></rect>
                    <rect id="Rectangle-Copy" fill="#E3E3E3" x="260" y="20" width="80" height="30"></rect>
                    <path d="M277.80957,36.7392578 L279.77832,36.5478516 C279.89681,37.2086622 280.137205,37.6940089 280.499512,38.0039062 C280.861818,38.3138036 281.350583,38.46875 281.96582,38.46875 C282.617516,38.46875 283.10856,38.3308933 283.438965,38.0551758 C283.76937,37.7794583 283.93457,37.4570331 283.93457,37.0878906 C283.93457,36.8509103 283.865072,36.6492521 283.726074,36.4829102 C283.587076,36.3165682 283.344403,36.1718756 282.998047,36.0488281 C282.761067,35.9667965 282.221033,35.8209646 281.37793,35.6113281 C280.293289,35.3424466 279.532229,35.0120462 279.094727,34.6201172 C278.479489,34.0686821 278.171875,33.3964883 278.171875,32.6035156 C278.171875,32.0930964 278.316568,31.6157249 278.605957,31.1713867 C278.895346,30.7270486 279.312335,30.388673 279.856934,30.15625 C280.401533,29.923827 281.058915,29.8076172 281.829102,29.8076172 C283.08692,29.8076172 284.033688,30.0833306 284.669434,30.6347656 C285.305179,31.1862007 285.638997,31.9221959 285.670898,32.8427734 L283.647461,32.9316406 C283.560872,32.4166641 283.375164,32.0463878 283.090332,31.8208008 C282.8055,31.5952137 282.378258,31.4824219 281.808594,31.4824219 C281.2207,31.4824219 280.760418,31.6031889 280.427734,31.8447266 C280.213541,31.9996753 280.106445,32.20703 280.106445,32.4667969 C280.106445,32.7037772 280.206705,32.9065747 280.407227,33.0751953 C280.662436,33.2893891 281.282222,33.5126942 282.266602,33.7451172 C283.250981,33.9775402 283.979002,34.217935 284.450684,34.4663086 C284.922366,34.7146822 285.291503,35.0541971 285.558105,35.4848633 C285.824708,35.9155295 285.958008,36.447588 285.958008,37.0810547 C285.958008,37.6552763 285.798504,38.1930313 285.479492,38.6943359 C285.16048,39.1956405 284.709313,39.5681954 284.125977,39.8120117 C283.54264,40.055828 282.81576,40.1777344 281.945312,40.1777344 C280.678379,40.1777344 279.705407,39.8849313 279.026367,39.2993164 C278.347327,38.7137015 277.941732,37.8603572 277.80957,36.7392578 Z M291.850586,37.6894531 L293.764648,38.0107422 C293.518553,38.7125686 293.130048,39.2469057 292.599121,39.6137695 C292.068194,39.9806333 291.403975,40.1640625 290.606445,40.1640625 C289.344069,40.1640625 288.409834,39.7516317 287.803711,38.9267578 C287.325193,38.2659472 287.085938,37.4319712 287.085938,36.4248047 C287.085938,35.2216737 287.400387,34.279463 288.029297,33.5981445 C288.658206,32.916826 289.453446,32.5761719 290.415039,32.5761719 C291.495123,32.5761719 292.347328,32.9327764 292.97168,33.6459961 C293.596032,34.3592158 293.894531,35.4518156 293.867188,36.9238281 L289.054688,36.9238281 C289.068359,37.4934924 289.223306,37.9366846 289.519531,38.253418 C289.815757,38.5701513 290.184894,38.7285156 290.626953,38.7285156 C290.927736,38.7285156 291.180663,38.6464852 291.385742,38.4824219 C291.590821,38.3183586 291.745768,38.0540383 291.850586,37.6894531 Z M291.959961,35.7480469 C291.946289,35.1920545 291.802736,34.7693699 291.529297,34.4799805 C291.255858,34.190591 290.923179,34.0458984 290.53125,34.0458984 C290.111977,34.0458984 289.765626,34.1985662 289.492188,34.5039062 C289.218749,34.8092463 289.08431,35.2239557 289.088867,35.7480469 L291.959961,35.7480469 Z M296.868164,34.9550781 L295.125,34.640625 C295.320965,33.9387986 295.658201,33.4192725 296.136719,33.0820312 C296.615237,32.74479 297.326167,32.5761719 298.269531,32.5761719 C299.126306,32.5761719 299.764321,32.6775706 300.183594,32.8803711 C300.602867,33.0831716 300.897948,33.340656 301.068848,33.652832 C301.239747,33.9650081 301.325195,34.5380818 301.325195,35.3720703 L301.304688,37.6142578 C301.304688,38.2522818 301.335449,38.7228175 301.396973,39.0258789 C301.458496,39.3289403 301.573567,39.6536441 301.742188,40 L299.841797,40 C299.791666,39.8723952 299.730144,39.6832695 299.657227,39.4326172 C299.625325,39.3186843 299.602539,39.2434898 299.588867,39.2070312 C299.260741,39.5260433 298.909833,39.7652987 298.536133,39.9248047 C298.162433,40.0843107 297.763674,40.1640625 297.339844,40.1640625 C296.592444,40.1640625 296.00342,39.961265 295.572754,39.5556641 C295.142088,39.1500631 294.926758,38.6373729 294.926758,38.0175781 C294.926758,37.6074198 295.024739,37.2417008 295.220703,36.9204102 C295.416668,36.5991195 295.691242,36.3530282 296.044434,36.1821289 C296.397625,36.0112296 296.906898,35.8619798 297.572266,35.734375 C298.470057,35.5657544 299.092121,35.4085294 299.438477,35.2626953 L299.438477,35.0712891 C299.438477,34.7021466 299.347332,34.4389656 299.165039,34.2817383 C298.982746,34.1245109 298.638674,34.0458984 298.132812,34.0458984 C297.791014,34.0458984 297.524415,34.1131178 297.333008,34.2475586 C297.141601,34.3819994 296.986654,34.6178369 296.868164,34.9550781 Z M299.438477,36.5136719 C299.192382,36.5957035 298.802737,36.6936843 298.269531,36.8076172 C297.736325,36.92155 297.387696,37.0332026 297.223633,37.1425781 C296.972981,37.3203134 296.847656,37.5458971 296.847656,37.8193359 C296.847656,38.0882175 296.947916,38.320637 297.148438,38.5166016 C297.348959,38.7125661 297.604165,38.8105469 297.914062,38.8105469 C298.260418,38.8105469 298.590819,38.6966157 298.905273,38.46875 C299.137696,38.2955721 299.290364,38.0836601 299.363281,37.8330078 C299.413412,37.6689445 299.438477,37.3567731 299.438477,36.8964844 L299.438477,36.5136719 Z M305.057617,40 L303.136719,40 L303.136719,32.7402344 L304.920898,32.7402344 L304.920898,33.7724609 C305.226239,33.2848283 305.500813,32.9635424 305.744629,32.8085938 C305.988445,32.6536451 306.265298,32.5761719 306.575195,32.5761719 C307.012698,32.5761719 307.434243,32.6969389 307.839844,32.9384766 L307.245117,34.6132812 C306.921548,34.4036448 306.62077,34.2988281 306.342773,34.2988281 C306.073892,34.2988281 305.84603,34.3728834 305.65918,34.5209961 C305.47233,34.6691088 305.325359,34.936847 305.218262,35.3242188 C305.111165,35.7115905 305.057617,36.5227803 305.057617,37.7578125 L305.057617,40 Z M314.99707,34.8867188 L313.103516,35.2285156 C313.039713,34.8502585 312.895021,34.5654306 312.669434,34.3740234 C312.443847,34.1826162 312.151043,34.0869141 311.791016,34.0869141 C311.312498,34.0869141 310.930828,34.2521142 310.645996,34.5825195 C310.361164,34.9129248 310.21875,35.4654909 310.21875,36.2402344 C310.21875,37.1015668 310.363443,37.7099592 310.652832,38.0654297 C310.942221,38.4209002 311.330727,38.5986328 311.818359,38.5986328 C312.182945,38.5986328 312.481444,38.4949555 312.713867,38.2875977 C312.94629,38.0802398 313.110351,37.7236353 313.206055,37.2177734 L315.092773,37.5390625 C314.896809,38.4049522 314.520836,39.0589171 313.964844,39.5009766 C313.408851,39.9430361 312.663742,40.1640625 311.729492,40.1640625 C310.667638,40.1640625 309.821129,39.8291049 309.189941,39.1591797 C308.558753,38.4892545 308.243164,37.5618549 308.243164,36.3769531 C308.243164,35.1783794 308.559893,34.2452833 309.193359,33.5776367 C309.826826,32.9099902 310.683588,32.5761719 311.763672,32.5761719 C312.647791,32.5761719 313.350746,32.7664369 313.872559,33.1469727 C314.394371,33.5275084 314.769205,34.107418 314.99707,34.8867188 Z M318.367188,29.9785156 L318.367188,33.6630859 C318.986982,32.9384729 319.727535,32.5761719 320.588867,32.5761719 C321.030927,32.5761719 321.429686,32.6582023 321.785156,32.8222656 C322.140627,32.9863289 322.408365,33.1959623 322.588379,33.4511719 C322.768393,33.7063815 322.891438,33.9889307 322.95752,34.2988281 C323.023601,34.6087255 323.056641,35.089515 323.056641,35.7412109 L323.056641,40 L321.135742,40 L321.135742,36.1650391 C321.135742,35.4039675 321.099284,34.9208995 321.026367,34.7158203 C320.95345,34.5107412 320.824708,34.3478196 320.640137,34.2270508 C320.455565,34.1062819 320.224285,34.0458984 319.946289,34.0458984 C319.627277,34.0458984 319.342449,34.1233716 319.091797,34.2783203 C318.841145,34.433269 318.657715,34.6668279 318.541504,34.9790039 C318.425292,35.2911799 318.367188,35.7526011 318.367188,36.3632812 L318.367188,40 L316.446289,40 L316.446289,29.9785156 L318.367188,29.9785156 Z" id="Search" fill="#044695" fill-rule="nonzero"></path>
                </g>
            </g>
        </g>
    </g>
</svg>