<?xml version="1.0" encoding="UTF-8"?>
<svg width="24px" height="24px" viewBox="0 0 24 24" version="1.1" xmlns="http://www.w3.org/2000/svg" xmlns:xlink="http://www.w3.org/1999/xlink">
    <!-- Generator: Sketch 51.2 (57519) - http://www.bohemiancoding.com/sketch -->
    <title>Icons/24x24/General/Icon_Livestreaming</title>
    <desc>Created with Sketch.</desc>
    <defs>
        <path d="M21,3 L3,3 C1.9,3 1,3.9 1,5 L1,7.99999999 L3,7.99999999 L3,5 L21,5 L21,19 L14,19 L14,21 L21,21 C22.1,21 23,20.1 23,19 L23,5 C23,3.9 22.1,3 21,3 Z M1,18 L1,21 L4,21 C4,19.3 2.7,18 1,18 Z M1,14 L1,16.0000001 C3.80000001,16.0000001 6.00000001,18.2 6.00000001,21 L8,21 C8,17.1 4.90000001,14 1,14 Z M1,10 L1,12 C6,12 10,16 10,21 L12,21 C12,14.9 7.10000001,10 1,10 Z" id="path-1"></path>
    </defs>
    <g id="Icons/24x24/General/Icon_Livestreaming" stroke="none" stroke-width="1" fill="none" fill-rule="evenodd">
        <mask id="mask-2" fill="white">
            <use xlink:href="#path-1"></use>
        </mask>
        <g id="Livestreaming" fill-rule="nonzero"></g>
        <g id="Colours/General/Black-#000000" mask="url(#mask-2)" fill="#000000">
            <rect x="0" y="0" width="24" height="24"></rect>
        </g>
    </g>
</svg>