<?xml version="1.0" encoding="UTF-8"?>
<svg width="24px" height="24px" viewBox="0 0 24 24" version="1.1" xmlns="http://www.w3.org/2000/svg" xmlns:xlink="http://www.w3.org/1999/xlink">
    <!-- Generator: Sketch 51.2 (57519) - http://www.bohemiancoding.com/sketch -->
    <title>Icons/24x24/General/Icon_Presentation</title>
    <desc>Created with Sketch.</desc>
    <defs>
        <path d="M3.74666667,15.0420604 L20.1706667,15.0420604 L20.1706667,5.19208399 L3.74666667,5.19208399 L3.74666667,15.0420604 Z M21.9586667,2.94117647 L22,5.19272858 L21.418,5.19272858 L21.418,16.1681588 L21.002,16.1681588 L20.212,16.1681588 L13.1853333,16.1681588 L13.1853333,16.9719623 L17.3433333,21.9172552 C17.5926667,22.1982962 17.5506667,22.6005203 17.26,22.8016323 C16.9686667,23.0427089 16.5533333,23.0027443 16.3453333,22.7210586 L12.104,17.6958366 L7.61333333,22.7616677 C7.364,23.0427089 6.948,23.0826735 6.69866667,22.8415969 C6.40733333,22.6005203 6.366,22.1982962 6.61533333,21.9572197 L10.7733333,17.2130389 L10.7733333,16.1681588 L3.70466667,16.1681588 L2.95666667,16.1681588 L2.54066667,16.1681588 L2.54066667,5.19272858 L2,5.19272858 L2,2.94117647 L21.9586667,2.94117647 Z M10.6666667,2.29411765 L10.6666667,1 L13.3333333,1 L13.3333333,2.29411765 L10.6666667,2.29411765 Z" id="path-1"></path>
    </defs>
    <g id="Icons/24x24/General/Icon_Presentation" stroke="none" stroke-width="1" fill="none" fill-rule="evenodd">
        <mask id="mask-2" fill="white">
            <use xlink:href="#path-1"></use>
        </mask>
        <g id="Presentation" fill-rule="nonzero"></g>
        <g id="Colours/General/Black-#000000" mask="url(#mask-2)" fill="#000000">
            <rect x="0" y="0" width="24" height="24"></rect>
        </g>
    </g>
</svg>