<?xml version="1.0" encoding="UTF-8"?>
<svg width="24px" height="24px" viewBox="0 0 24 24" version="1.1" xmlns="http://www.w3.org/2000/svg" xmlns:xlink="http://www.w3.org/1999/xlink">
    <!-- Generator: Sketch 51.2 (57519) - http://www.bohemiancoding.com/sketch -->
    <title>Icons/24x24/General/Icon_Print</title>
    <desc>Created with Sketch.</desc>
    <defs>
        <path d="M19.87489,10.1670635 C19.1495422,10.1670635 18.5625236,9.58137595 18.5625236,8.85742203 C18.5625236,8.13497372 19.1495422,7.54778059 19.87489,7.54778059 C20.6004892,7.54778059 21.1876337,8.13484825 21.1876337,8.85742203 C21.1876337,9.58125048 20.6004892,10.1670635 19.87489,10.1670635 Z M21.1876337,6.23839009 C21.9131071,6.23839009 22.5,6.82520682 22.5,7.54778059 L22.5,15.4052528 C22.5,16.1289558 21.9129813,16.7146433 21.1876337,16.7146433 L18.5625236,16.7146433 L18.5625236,20.5388013 L18.5625236,20.6434421 L18.5625236,21.9530836 L17.3282503,21.9530836 L17.3282503,21.9505742 C17.3024708,21.9520799 17.2764397,21.9530836 17.2501572,21.9530836 L6.75022007,21.9530836 C6.72393753,21.9530836 6.69778075,21.9520799 6.67187546,21.9505742 L6.67187546,21.9530836 L5.43760218,21.9530836 L5.43760218,20.6434421 L5.43760218,20.5388013 L5.43760218,16.7146433 L2.81261789,16.7146433 C2.08777314,16.7146433 1.5,16.1289558 1.5,15.4052528 L1.5,7.54778059 C1.5,6.82520682 2.08777314,6.23839009 2.81261789,6.23839009 L21.1876337,6.23839009 Z M6.75022007,12.7860954 L6.75022007,20.6435676 L17.2500314,20.6435676 L17.2500314,12.7860954 L6.75022007,12.7860954 Z M8.06271221,15.4052654 L8.06271221,14.0956239 L15.9372878,14.0956239 L15.9372878,15.4052654 L8.06271221,15.4052654 Z M6.7502578,2.30964144 L6.7502578,4.92879884 L5.4376399,4.92879884 L5.4376399,2.41428227 L5.4376399,2.30964144 L5.4376399,1 L6.67178744,1 L6.67178744,1.00250937 C6.69781848,1.00100375 6.7238495,1 6.7502578,1 L17.2500692,1 C17.2763517,1 17.3023827,1.00100375 17.328288,1.00250937 L17.328288,1 L18.5624355,1 L18.5624355,2.30964144 L18.5624355,2.41428227 L18.5624355,4.92879884 L17.2500692,4.92879884 L17.2500692,2.30964144 L6.7502578,2.30964144 Z M8.1588157,18.1201828 L8.1588157,16.8425451 L14.8176314,16.8425451 L14.8176314,18.1201828 L8.1588157,18.1201828 Z" id="path-1"></path>
    </defs>
    <g id="Icons/24x24/General/Icon_Print" stroke="none" stroke-width="1" fill="none" fill-rule="evenodd">
        <mask id="mask-2" fill="white">
            <use xlink:href="#path-1"></use>
        </mask>
        <use id="Print" fill="#000000" fill-rule="nonzero" xlink:href="#path-1"></use>
    </g>
</svg>