<?xml version="1.0" encoding="UTF-8"?>
<svg width="24px" height="24px" viewBox="0 0 24 24" version="1.1" xmlns="http://www.w3.org/2000/svg" xmlns:xlink="http://www.w3.org/1999/xlink">
    <!-- Generator: Sketch 51.2 (57519) - http://www.bohemiancoding.com/sketch -->
    <title>Icons/24x24/General/Icon_Faq</title>
    <desc>Created with Sketch.</desc>
    <defs>
        <path d="M13.1880665,17.3885346 L9.55535809,17.3885346 C9.55535809,16.831555 9.55535809,16.4982006 9.55535809,16.386388 C9.55535809,15.1620052 9.74795628,14.1598586 10.1324862,13.3577246 C10.5170162,12.5555906 11.3074018,11.6652566 12.4616581,10.6853337 C13.6365737,9.7054107 14.3423227,9.03731296 14.5555802,8.74840583 C14.9187844,8.25879159 15.0900569,7.72403561 15.0900569,7.14483238 C15.0900569,6.32116927 14.7695042,5.63084791 14.1497245,5.05164467 C13.5299449,4.47244144 12.6969078,4.18353431 11.6499467,4.18353431 C10.6243114,4.18353431 9.76928203,4.49535956 9.08552515,5.09678641 C8.40176826,5.69821327 7.93193531,6.61077088 7.67535987,7.85807185 L4,7.3684576 C4.10662875,5.60931877 4.83303714,4.0953343 6.17922516,2.87025696 C7.52541319,1.62295599 9.2774569,1 11.4786742,1 C13.7651946,1 15.6025413,1.62365048 16.9487293,2.89248059 C18.3162431,4.13978155 19,5.58709514 19,7.25664499 C19,8.16989709 18.7434246,9.03800745 18.2522659,9.86167056 C17.739115,10.6853337 16.6708281,11.7985984 15.0474054,13.2236884 C14.1930425,13.958457 13.6798916,14.5376602 13.4659677,14.9828272 C13.2733695,15.4279942 13.1667407,16.2301282 13.1880665,17.3878401 L13.1880665,17.3885346 Z M9.55602452,23 L9.55602452,18.8136246 L13.5732628,18.8136246 L13.5732628,23 L9.55602452,23 Z" id="path-1"></path>
    </defs>
    <g id="Icons/24x24/General/Icon_Faq" stroke="none" stroke-width="1" fill="none" fill-rule="evenodd">
        <mask id="mask-2" fill="white">
            <use xlink:href="#path-1"></use>
        </mask>
        <use id="Faq" fill="#000000" fill-rule="nonzero" xlink:href="#path-1"></use>
        <g id="Colours/General/Black-#000000" mask="url(#mask-2)" fill="#000000">
            <rect x="0" y="0" width="24" height="24"></rect>
        </g>
    </g>
</svg>