<?xml version="1.0" encoding="UTF-8"?>
<svg width="24px" height="24px" viewBox="0 0 24 24" version="1.1" xmlns="http://www.w3.org/2000/svg" xmlns:xlink="http://www.w3.org/1999/xlink">
    <!-- Generator: Sketch 51.2 (57519) - http://www.bohemiancoding.com/sketch -->
    <title>Icons/24x24/General/Icon_Multiple-files</title>
    <desc>Created with Sketch.</desc>
    <defs>
        <path d="M17.6619393,5.04871355 C18.35399,5.04871355 19,5.73070326 19,6.34682676 L19,21.7457976 C19,22.3838765 18.3079492,23 17.6619393,23 L8.32069267,23 C7.5595807,23 6.91357073,22.3399657 6.91357073,21.7457976 L6.91357073,8.21715266 L10.2810236,5.09331046 L17.6619393,5.09331046 L17.6619393,5.04939966 L17.6619393,5.04871355 Z M17.6619393,6.34682676 L11.6190843,6.34682676 L11.6190843,8.30497427 C11.6190843,8.96500858 10.9270336,9.55917667 10.3270644,9.55917667 L8.27393248,9.55917667 L8.27393248,21.7464837 L17.6612199,21.7464837 L17.6612199,6.34751286 L17.6619393,6.34682676 Z M17.6619393,5.04871355 C18.35399,5.04871355 19,5.73070326 19,6.34682676 L19,21.7457976 C19,22.3838765 18.3079492,23 17.6619393,23 L8.32069267,23 C7.5595807,23 6.91357073,22.3399657 6.91357073,21.7457976 L6.91357073,8.21715266 L10.2810236,5.09331046 L17.6619393,5.09331046 L17.6619393,5.04939966 L17.6619393,5.04871355 Z M6.40640255,17.47753 L6.40640255,5.68610635 L8.50557525,5.68610635 C9.19762602,5.68610635 9.91269719,5.09193825 9.91269719,4.38799314 L9.91269719,2.34202401 L16.2094959,2.34202401 L16.2094959,4.60754717 L17.6166179,4.60754717 L17.6166179,2.34202401 C17.6166179,1.66003431 16.9015467,1 16.1634551,1 L8.50557525,1 L5,4.25557461 L5,17.5207547 C5,18.0929674 5.64600997,18.7749571 6.40712194,18.8188679 L6.40712194,17.4768439 L6.40640255,17.47753 Z" id="path-1"></path>
    </defs>
    <g id="Icons/24x24/General/Icon_Multiple-files" stroke="none" stroke-width="1" fill="none" fill-rule="evenodd">
        <mask id="mask-2" fill="white">
            <use xlink:href="#path-1"></use>
        </mask>
        <use id="Multiple-files" fill="#000000" fill-rule="nonzero" xlink:href="#path-1"></use>
        <g id="Colours/General/Black-#000000" mask="url(#mask-2)" fill="#000000">
            <rect x="0" y="0" width="26" height="25"></rect>
        </g>
    </g>
</svg>