<?xml version="1.0" encoding="UTF-8"?>
<svg width="24px" height="24px" viewBox="0 0 24 24" version="1.1" xmlns="http://www.w3.org/2000/svg" xmlns:xlink="http://www.w3.org/1999/xlink">
    <!-- Generator: Sketch 51.2 (57519) - http://www.bohemiancoding.com/sketch -->
    <title>Icons/24x24/General/Icon_Generic-lang</title>
    <desc>Created with Sketch.</desc>
    <defs>
        <path d="M15.1338182,12.3287273 L16.976,12.3287273 C17.2792727,11.6756364 17.4654545,10.976 17.512,10.2298182 L15.4363636,10.2298182 C15.4130909,10.9992727 15.2967273,11.6989091 15.1330909,12.3287273 L15.1338182,12.3287273 Z M15.4603636,9.39054545 L17.536,9.39054545 C17.4894545,8.64436364 17.3025455,7.94472727 17,7.29163636 L15.1345455,7.29163636 C15.2974545,7.92145455 15.4145455,8.62109091 15.4610909,9.39054545 L15.4603636,9.39054545 Z M12.1018182,13.168 L12.1018182,15.5694545 C12.4749091,15.2894545 13.3374545,14.5432727 13.944,13.168 L12.1018182,13.168 Z M14.8305455,13.168 C14.4574545,14.1003636 13.968,14.8465455 13.5243636,15.36 C14.7367273,14.9403636 15.7629091,14.1941818 16.4858182,13.168 L14.8305455,13.168 Z M14.8770909,6.45236364 L16.5090909,6.45236364 C15.8094545,5.42618182 14.7832727,4.65672727 13.5941818,4.23709091 C14.0138182,4.77309091 14.5032727,5.496 14.8763636,6.45236364 L14.8770909,6.45236364 Z M14.2705455,7.29163636 L12.1018182,7.29163636 L12.1018182,9.39054545 L14.6203636,9.39054545 C14.5738182,8.59781818 14.4574545,7.89818182 14.2705455,7.29163636 Z M14.5970909,10.2298182 L12.1018182,10.2298182 L12.1018182,12.3287273 L14.2705455,12.3287273 C14.4567273,11.7221818 14.5738182,11.0225455 14.5970909,10.2298182 Z M13.944,6.42909091 C13.7578182,5.91636364 13.4778182,5.49672727 13.2443636,5.14690909 C12.8945455,4.68072727 12.5447273,4.35418182 12.288,4.144 C12.2414545,4.07418182 12.1716364,4.05090909 12.1018182,4.00436364 L12.1018182,6.42981818 L13.944,6.42981818 L13.944,6.42909091 Z M9.42036364,6.42909091 L11.2858182,6.42909091 L11.2858182,4.02763636 C10.8894545,4.30763636 10.0269091,5.07709091 9.42036364,6.42909091 Z M6.87854545,6.42909091 L8.53381818,6.42909091 C8.88363636,5.49672727 9.39636364,4.74981818 9.84,4.23709091 C8.62763636,4.63345455 7.60145455,5.42618182 6.87854545,6.42909091 Z M7.90472727,10.2065455 L5.82909091,10.2065455 C5.87563636,10.9527273 6.06254545,11.6756364 6.36509091,12.3054545 L8.20727273,12.3054545 C8.04436364,11.6756364 7.95054545,10.9992727 7.904,10.2065455 L7.90472727,10.2065455 Z M8.23127273,7.26836364 L6.38909091,7.26836364 C6.08581818,7.92145455 5.89963636,8.62109091 5.82909091,9.36727273 L7.928,9.36727273 C7.97454545,8.59781818 8.06763636,7.89818182 8.23127273,7.26836364 Z M0,13.8181818 C0,16.64 2.1924125,18.9090909 5.09090909,18.9090909 L8.72727273,18.9090909 L17.4545455,24 L17.4545455,18.9090909 L18.9090909,18.9090909 C21.7836824,18.9090909 24,17.0392727 24,14.2174545 L24,5.09090909 C24,2.26909091 21.7836824,0 18.9090909,0 L5.09090909,0 C2.1924125,0 0,2.26909091 0,5.09090909 L0,13.8181818 Z M4.98981818,9.78690909 C4.98981818,6.07927273 7.99781818,3.07127273 11.7054545,3.09454545 C15.4130909,3.09454545 18.3978182,6.10254545 18.3745455,9.81018182 C18.3745455,13.5178182 15.3665455,16.5258182 11.6589091,16.5025455 C7.95127273,16.5025455 4.96654545,13.4945455 4.98981818,9.78690909 Z M8.51127273,13.1447273 L6.856,13.1447273 C7.57890909,14.1709091 8.60509091,14.9403636 9.79418182,15.36 C9.35127273,14.824 8.86109091,14.1010909 8.512,13.1447273 L8.51127273,13.1447273 Z M9.11709091,12.3054545 L11.2625455,12.3054545 L11.2625455,10.2065455 L8.76727273,10.2065455 C8.79054545,10.9992727 8.90690909,11.6989091 9.11709091,12.3054545 Z M8.768,9.36727273 L11.2632727,9.36727273 L11.2632727,7.26836364 L9.09454545,7.26836364 C8.90763636,7.87490909 8.81454545,8.57454545 8.768,9.36727273 Z M9.39709091,13.168 C9.60727273,13.6574545 9.88654545,14.0770909 10.12,14.4269091 C10.4698182,14.8698182 10.8196364,15.2196364 11.0763636,15.4298182 C11.1229091,15.4996364 11.1927273,15.5461818 11.2392727,15.5694545 L11.2392727,13.168 L9.39709091,13.168 Z" id="path-1"></path>
    </defs>
    <g id="Icons/24x24/General/Icon_Generic-lang" stroke="none" stroke-width="1" fill="none" fill-rule="evenodd">
        <g id="Colour">
            <mask id="mask-2" fill="white">
                <use xlink:href="#path-1"></use>
            </mask>
            <use id="Mask" fill="#000000" fill-rule="nonzero" xlink:href="#path-1"></use>
            <g id="Colours/General/Black-#000000" mask="url(#mask-2)" fill="#000000">
                <rect x="0" y="0" width="24" height="24"></rect>
            </g>
        </g>
    </g>
</svg>