<svg width="24" height="24" xmlns="http://www.w3.org/2000/svg" xmlns:xlink="http://www.w3.org/1999/xlink"><defs><path d="M11.998 8.022a3.978 3.978 0 0 0 0 7.957A3.97 3.97 0 0 0 15.962 12a3.966 3.966 0 0 0-3.964-3.978zm7.972 6.263l-.717 1.726 1.448 2.843-1.773 1.772-2.908-1.374-1.726.71-.876 2.682-.112.356H10.8l-1.084-3.028-1.726-.712-2.846 1.442-1.772-1.771 1.372-2.91-.71-1.725L1 13.306v-2.504l3.03-1.086.711-1.723-1.275-2.516-.168-.33 1.77-1.77L7.98 4.75l1.724-.713.876-2.68.113-.356h2.504l1.085 3.032 1.722.712 2.85-1.444 1.77 1.77-1.371 2.907.708 1.727 3.039.988v2.504l-3.03 1.09z" id="a"/></defs><use xlink:href="#a"/></svg>