<?xml version="1.0" encoding="UTF-8"?>
<svg width="24px" height="24px" viewBox="0 0 24 24" version="1.1" xmlns="http://www.w3.org/2000/svg" xmlns:xlink="http://www.w3.org/1999/xlink">
    <!-- Generator: Sketch 51.2 (57519) - http://www.bohemiancoding.com/sketch -->
    <title>Icons/24x24/General/Icon_Calendar</title>
    <desc>Created with Sketch.</desc>
    <defs>
        <path d="M5.23076924,4.058 L5.23076924,2.49372413 C5.23076924,1.66834483 5.97623077,1 6.89684615,1 C7.81746154,1 8.56292308,1.66834483 8.56292308,2.49372413 L8.56292308,4.058 C8.56292308,4.88262069 7.81661539,5.55172413 6.89684615,5.55172413 C5.97623077,5.55172413 5.23076924,4.88262069 5.23076924,4.058 Z M15.3846154,4.058 L15.3846154,2.49372413 C15.3846154,1.66834483 16.1300769,1 17.0506924,1 C17.9713076,1 18.7167692,1.66834483 18.7167692,2.49372413 L18.7167692,4.058 C18.7167692,4.88262069 17.9713076,5.55172413 17.0506924,5.55172413 C16.1300769,5.55172413 15.3846154,4.88262069 15.3846154,4.058 Z M19.6153846,19.9655172 L17.0769231,19.9655172 L17.0769231,17.6896552 L19.6153846,17.6896552 L19.6153846,19.9655172 Z M19.6153846,16.1724137 L17.0769231,16.1724137 L17.0769231,13.8965517 L19.6153846,13.8965517 L19.6153846,16.1724137 Z M19.6153846,12.3793104 L17.0769231,12.3793104 L17.0769231,10.1034483 L19.6153846,10.1034483 L19.6153846,12.3793104 Z M15.3846154,19.9655172 L12.8461539,19.9655172 L12.8461539,17.6896552 L15.3846154,17.6896552 L15.3846154,19.9655172 Z M15.3846154,16.1724137 L12.8461539,16.1724137 L12.8461539,13.8965517 L15.3846154,13.8965517 L15.3846154,16.1724137 Z M15.3846154,12.3793104 L12.8461539,12.3793104 L12.8461539,10.1034483 L15.3846154,10.1034483 L15.3846154,12.3793104 Z M11.1538462,19.9655172 L8.61538461,19.9655172 L8.61538461,17.6896552 L11.1538462,17.6896552 L11.1538462,19.9655172 Z M11.1538462,16.1724137 L8.61538461,16.1724137 L8.61538461,13.8965517 L11.1538462,13.8965517 L11.1538462,16.1724137 Z M11.1538462,12.3793104 L8.61538461,12.3793104 L8.61538461,10.1034483 L11.1538462,10.1034483 L11.1538462,12.3793104 Z M6.92307692,19.9655172 L4.38461539,19.9655172 L4.38461539,17.6896552 L6.92307692,17.6896552 L6.92307692,19.9655172 Z M6.92307692,16.1724137 L4.38461539,16.1724137 L4.38461539,13.8965517 L6.92307692,13.8965517 L6.92307692,16.1724137 Z M6.92307692,12.3793104 L4.38461539,12.3793104 L4.38461539,10.1034483 L6.92307692,10.1034483 L6.92307692,12.3793104 Z M21.7777778,8.33333334 L2.22222222,8.33333334 L2.22222222,21.7777778 L21.7777778,21.7771251 L21.7777778,8.33333334 Z M2.69230769,23 C1.75815385,23 1,22.3202759 1,21.4827587 L1,4.79310345 C1,3.95482759 1.75815385,3.27586207 2.69230769,3.27586207 L4.38461539,3.27586207 L4.38461539,4.03448276 C4.38461539,5.29151724 5.521,6.31034483 6.92307692,6.31034483 C8.32515385,6.31034483 9.46153846,5.29151724 9.46153846,4.03448276 L9.46153846,3.27586207 L14.5384615,3.27586207 L14.5384615,4.03448276 C14.5384615,5.29151724 15.6756924,6.31034483 17.0769231,6.31034483 C18.4781539,6.31034483 19.6153846,5.29151724 19.6153846,4.03448276 L19.6153846,3.27586207 L21.3076923,3.27586207 C22.2418461,3.27586207 23,3.95482759 23,4.79310345 L23,21.4827587 C23,22.3202759 22.2418461,23 21.3076923,23 L2.69230769,23 Z" id="path-1"></path>
    </defs>
    <g id="Icons/24x24/General/Icon_Calendar" stroke="none" stroke-width="1" fill="none" fill-rule="evenodd">
        <mask id="mask-2" fill="white">
            <use xlink:href="#path-1"></use>
        </mask>
        <use id="Calendar" fill="#000000" fill-rule="nonzero" xlink:href="#path-1"></use>
    </g>
</svg>