<?xml version="1.0" encoding="UTF-8"?>
<svg width="24px" height="24px" viewBox="0 0 24 24" version="1.1" xmlns="http://www.w3.org/2000/svg" xmlns:xlink="http://www.w3.org/1999/xlink">
    <!-- Generator: Sketch 51.2 (57519) - http://www.bohemiancoding.com/sketch -->
    <title>Icons/24x24/General/Icon_Copy</title>
    <desc>Created with Sketch.</desc>
    <defs>
        <path d="M18.4481606,5.01622718 C19.2508361,5.01622718 20,5.68559838 20,6.31034483 L20,21.7505071 C20,22.3752536 19.1973245,23 18.4481606,23 L7.74581939,23 C6.8896321,23 6.14046823,22.3306288 6.14046823,21.7505071 L6.14046823,8.18458418 L9.99331104,5.06085193 L18.4481606,5.06085193 L18.4481606,5.01622718 Z M18.4481606,6.31034483 L11.5451505,6.31034483 L11.5451505,8.27383367 C11.5451505,8.94320486 10.7424749,9.52332657 10.0468227,9.52332657 L7.69230769,9.52332657 L7.69230769,21.7505071 L18.4481606,21.7505071 L18.4481606,6.31034483 Z M5.60535117,17.5111562 L5.60535117,18.8498985 C4.74916388,18.8052739 4,18.1359026 4,17.5557809 L4,4.2576065 L8.01337793,1 L16.7892977,1 C17.6454849,1 18.4481606,1.6693712 18.4481606,2.33874239 L18.4481606,4.61460447 L16.8428094,4.61460447 L16.8428094,2.33874239 L9.6187291,2.33874239 L9.6187291,4.39148073 C9.6187291,5.10547667 8.81605351,5.68559838 8.01337793,5.68559838 L5.60535117,5.68559838 L5.60535117,7.64908722 L5.60535117,17.5111562 Z" id="path-1"></path>
    </defs>
    <g id="Icons/24x24/General/Icon_Copy" stroke="none" stroke-width="1" fill="none" fill-rule="evenodd">
        <mask id="mask-2" fill="white">
            <use xlink:href="#path-1"></use>
        </mask>
        <g id="Copy" fill-rule="nonzero"></g>
        <g id="Colours/General/Black-#000000" mask="url(#mask-2)" fill="#000000">
            <rect x="0" y="0" width="24" height="24"></rect>
        </g>
    </g>
</svg>