<?xml version="1.0" encoding="UTF-8"?>
<svg width="24px" height="24px" viewBox="0 0 24 24" version="1.1" xmlns="http://www.w3.org/2000/svg" xmlns:xlink="http://www.w3.org/1999/xlink">
    <!-- Generator: Sketch 51.2 (57519) - http://www.bohemiancoding.com/sketch -->
    <title>Icons/24x24/General/Icon_Audio</title>
    <desc>Created with Sketch.</desc>
    <defs>
        <path d="M15.5594989,7.17836812 C18.5448852,9.85009488 18.5448852,14.2333966 15.51357,16.9468691 C15.2839248,17.1555977 14.9624217,17.2390891 14.7327766,17.2390891 C14.4112735,17.2390891 14.0897703,17.1555977 13.8601253,16.9468691 C13.3549061,16.487666 13.3549061,15.86148 13.8601253,15.402277 C15.8810021,13.6072107 15.8810021,10.5597723 13.8601253,8.72296016 C13.3549061,8.26375712 13.3549061,7.63757116 13.8601253,7.17836812 C14.3653445,6.71916509 15.0542798,6.71916509 15.5594989,7.17836812 Z M18.131524,5.21631879 C18.6367432,4.75711575 19.3256785,4.75711575 19.7849687,5.21631879 C21.8058455,7.05313093 23,9.51612903 23,12.14611 C23,14.7760911 21.8517746,17.2390891 19.7849687,19.0759014 C19.6471816,19.2428842 19.3256785,19.3681214 19.0041754,19.3681214 C18.6826723,19.3681214 18.3611691,19.28463 18.131524,19.0759014 C17.6263047,18.6166983 17.6263047,17.9905123 18.131524,17.5313093 C21.4384134,14.5673624 21.4384134,9.68311195 18.131524,6.76091081 C17.6263047,6.30170778 17.6263047,5.67552182 18.131524,5.21631879 Z M12.2066805,1 L12.2066805,23 L4.99582463,16.4041746 L1,16.4041746 L1,7.67931689 L4.99582463,7.67931689 L12.2066805,1 Z" id="path-1"></path>
    </defs>
    <g id="Icons/24x24/General/Icon_Audio" stroke="none" stroke-width="1" fill="none" fill-rule="evenodd">
        <mask id="mask-2" fill="white">
            <use xlink:href="#path-1"></use>
        </mask>
        <g id="Audio" fill-rule="nonzero"></g>
        <g id="Colours/General/Black-#000000" mask="url(#mask-2)" fill="#000000">
            <rect x="0" y="0" width="24" height="24"></rect>
        </g>
    </g>
</svg>