<?xml version="1.0" encoding="UTF-8"?>
<svg width="24px" height="24px" viewBox="0 0 24 24" version="1.1" xmlns="http://www.w3.org/2000/svg" xmlns:xlink="http://www.w3.org/1999/xlink">
    <!-- Generator: Sketch 51.2 (57519) - http://www.bohemiancoding.com/sketch -->
    <title>Icons/24x24/General/Icon_Location</title>
    <desc>Created with Sketch.</desc>
    <defs>
        <path d="M12,12 C9.91834807,12 8.23076923,10.2763069 8.23076923,8.15 C8.23076923,6.02369312 9.91834807,4.3 12,4.3 C14.0816519,4.3 15.7692308,6.02369312 15.7692308,8.15 C15.7692308,10.2763069 14.0816048,12 12,12 M12.0000454,1 C8.14020981,1 5,4.26448085 5,8.27701883 C5,9.89313347 5.99271705,12.5279543 8.03471065,16.3320831 C9.47913278,19.0226841 10.8997881,21.2661483 10.9594772,21.3603096 L12.0000454,23 L13.0405681,21.3603568 C13.1003026,21.2661483 14.5210486,19.0227313 15.9652893,16.3321302 C18.0073736,12.5279543 19,9.89318062 19,8.27706598 C19.0000454,4.26448085 15.8598355,1 12.0000454,1" id="path-1"></path>
    </defs>
    <g id="Icons/24x24/General/Icon_Location" stroke="none" stroke-width="1" fill="none" fill-rule="evenodd">
        <mask id="mask-2" fill="white">
            <use xlink:href="#path-1"></use>
        </mask>
        <use id="Location" fill="#000000" fill-rule="nonzero" xlink:href="#path-1"></use>
    </g>
</svg>