<?xml version="1.0" encoding="UTF-8"?>
<svg width="24px" height="24px" viewBox="0 0 24 24" version="1.1" xmlns="http://www.w3.org/2000/svg" xmlns:xlink="http://www.w3.org/1999/xlink">
    <!-- Generator: Sketch 51.2 (57519) - http://www.bohemiancoding.com/sketch -->
    <title>Icons/24x24/General/Icon_Spreadsheet</title>
    <desc>Created with Sketch.</desc>
    <defs>
        <path d="M1,3.75076388 C1,2.22680556 2.1792,1 3.64,1 L20.36,1 C21.8208,1 23,2.22680556 23,3.75076388 L23,10.1674306 L23,11.0833333 L23,13.8325694 L23,14.75 L23,17.5 L23,18.4174306 L23,20.2492362 C23,21.7716666 21.8208,23 20.36,23 L3.64,23 C2.1792,23 1,21.7716666 1,20.2492362 L1,3.75076388 Z M2.76,13.8325694 L7.16,13.8325694 L7.16,11.0833333 L2.76,11.0833333 L2.76,13.8325694 Z M2.76,17.5007638 L7.16,17.5007638 L7.16,14.75 L2.76,14.75 L2.76,17.5007638 Z M7.16,21.1651388 L7.16,18.4174306 L2.76,18.4174306 L2.76,19.3333334 C2.76,20.8557638 3.05846666,21.1651388 4.52,21.1651388 L7.16,21.1651388 Z M21.24,18.4174306 L8.03926666,18.4174306 L8.03926666,21.1651388 L19.4792666,21.1651388 C20.9408,21.1651388 21.24,20.8557638 21.24,19.3333334 L21.24,18.4174306 Z M8.03926666,17.5 L21.24,17.5 L21.24,14.7492362 L8.03926666,14.7492362 L8.03926666,17.5 Z M8.03926666,13.8325694 L21.24,13.8325694 L21.24,11.0833333 L8.03926666,11.0833333 L8.03926666,13.8325694 Z M8.03926666,10.1681944 L21.24,10.1681944 L21.24,6.5 L8.03926666,6.5 L8.03926666,10.1681944 Z M2.76,10.1681944 L7.16,10.1681944 L7.16,6.5 L2.76,6.5 L2.76,10.1681944 Z" id="path-1"></path>
    </defs>
    <g id="Icons/24x24/General/Icon_Spreadsheet" stroke="none" stroke-width="1" fill="none" fill-rule="evenodd">
        <mask id="mask-2" fill="white">
            <use xlink:href="#path-1"></use>
        </mask>
        <use id="Spreadsheet" fill="#000000" fill-rule="nonzero" xlink:href="#path-1"></use>
    </g>
</svg>