<?xml version="1.0" encoding="UTF-8"?>
<svg width="24px" height="24px" viewBox="0 0 24 24" version="1.1" xmlns="http://www.w3.org/2000/svg" xmlns:xlink="http://www.w3.org/1999/xlink">
    <!-- Generator: Sketch 51.2 (57519) - http://www.bohemiancoding.com/sketch -->
    <title>Icons/24x24/General/Icon_Gear</title>
    <desc>Created with Sketch.</desc>
    <defs>
        <path d="M11.9980376,8.02247913 C9.80251186,8.02247913 8.02144361,9.80361093 8.02144361,12 C8.02144361,14.1948191 9.80251186,15.9790908 11.9980376,15.9790908 C14.1935633,15.9790908 15.9620723,14.1940341 15.9620723,12 C15.9620723,9.80282595 14.1943483,8.02247913 11.9980376,8.02247913 Z M19.9700646,14.2850924 L19.2533985,16.0112752 L20.7008599,18.8537073 L18.9284262,20.6262042 L16.0201591,19.2524798 L14.2940379,19.9613216 L13.4180255,22.6436166 L13.3057766,23 L10.8001927,23 L9.71616655,19.9723114 L7.99004531,19.2603297 L5.14378992,20.7015628 L3.37214115,18.9306358 L4.74424662,16.0206951 L4.03307525,14.2960822 L1,13.3062157 L1,10.8021123 L4.02993542,9.71647756 L4.74110679,7.99264968 L3.46633603,5.47677157 L3.29835516,5.14707771 L5.06764905,3.37772069 L7.97984087,4.74909013 L9.70439219,4.03632341 L10.5796197,1.35559837 L10.6926535,1 L13.1974525,1 L14.2822635,4.0316135 L16.00446,4.74438022 L18.8538552,3.30000714 L20.624719,5.06936416 L19.2526136,7.97694998 L19.96143,9.70391779 L23,10.6922144 L23,13.1955327 L19.9708495,14.2850924 L19.9700646,14.2850924 Z" id="path-1"></path>
    </defs>
    <g id="Icons/24x24/General/Icon_Gear" stroke="none" stroke-width="1" fill="none" fill-rule="evenodd">
        <mask id="mask-2" fill="white">
            <use xlink:href="#path-1"></use>
        </mask>
        <use id="Gear" fill="#000000" fill-rule="nonzero" xlink:href="#path-1"></use>
        <g id="Colours/General/Black-#000000" mask="url(#mask-2)" fill="#000000">
            <rect x="0" y="0" width="24" height="24"></rect>
        </g>
    </g>
</svg>