<?xml version="1.0" encoding="UTF-8"?>
<svg width="24px" height="24px" viewBox="0 0 24 24" version="1.1" xmlns="http://www.w3.org/2000/svg" xmlns:xlink="http://www.w3.org/1999/xlink">
    <!-- Generator: Sketch 51.2 (57519) - http://www.bohemiancoding.com/sketch -->
    <title>Icons/24x24/General/Icon_Share</title>
    <desc>Created with Sketch.</desc>
    <defs>
        <path d="M14.5576712,16.4869889 L9.6517759,13.8996283 C9.96594654,13.3271376 10.1592823,12.6802974 10.1592823,11.9962825 C10.1592823,11.5724907 10.0706701,11.1710037 9.94177957,10.7769517 L15.0490662,8.08550186 C15.8949103,8.9330855 17.0871476,9.46096655 18.416331,9.46096655 C20.9458074,9.46096655 23,7.57249071 23,5.23048327 C23,2.88847583 20.953863,1 18.416331,1 C15.8868546,1 13.832662,2.88847583 13.832662,5.23048327 C13.832662,5.6542751 13.9212743,6.05576208 14.0501648,6.44981413 L8.94287806,9.133829 C8.10508971,8.29368029 6.91285244,7.76579926 5.58366899,7.76579926 C3.0541926,7.76579926 1,9.65427509 1,11.9962825 C1,14.330855 3.04613695,16.2267658 5.58366899,16.2267658 C6.63090443,16.2267658 7.58147198,15.8921934 8.34675943,15.3494424 L13.8809959,18.3159852 C13.8648847,18.464684 13.832662,18.6208178 13.832662,18.7695167 C13.832662,21.1040892 15.878799,23 18.416331,23 C20.9458074,23 23,21.1115242 23,18.7695167 C23,16.4275092 20.9458074,14.5315985 18.416331,14.5315985 C16.7971439,14.5315985 15.3793482,15.3122676 14.5576712,16.4869889 Z" id="path-1"></path>
    </defs>
    <g id="Icons/24x24/General/Icon_Share" stroke="none" stroke-width="1" fill="none" fill-rule="evenodd">
        <mask id="mask-2" fill="white">
            <use xlink:href="#path-1"></use>
        </mask>
        <g id="Share" fill-rule="nonzero"></g>
        <g id="Colours/General/Black-#000000" mask="url(#mask-2)" fill="#000000">
            <rect x="0" y="0" width="24" height="24"></rect>
        </g>
    </g>
</svg>