<?xml version="1.0" encoding="UTF-8"?>
<svg width="24px" height="24px" viewBox="0 0 24 24" version="1.1" xmlns="http://www.w3.org/2000/svg" xmlns:xlink="http://www.w3.org/1999/xlink">
    <!-- Generator: Sketch 51.2 (57519) - http://www.bohemiancoding.com/sketch -->
    <title>Icons/24x24/General/Icon_Organigram</title>
    <desc>Created with Sketch.</desc>
    <defs>
        <path d="M1,21 L1,16.8461538 L7.38709677,16.8461538 L7.38709677,21 L1,21 Z M8.80645161,21 L8.80645161,16.8461538 L15.1935484,16.8461538 L15.1935484,21 L8.80645161,21 Z M16.6129032,21 L16.6129032,16.8461538 L23,16.8461538 L23,21 L16.6129032,21 Z M4.93094758,13.2785863 L4.93094758,15.4615385 L3.12903226,15.4615385 L3.12903226,11.6195426 L11.1221438,11.6195426 L11.1221438,10.6153846 L12.8778562,10.6153846 L12.8778562,11.6195426 L20.8709677,11.6195426 L20.8709677,15.4615385 L19.0690524,15.4615385 L19.0690524,13.2785863 L12.8778562,13.2785863 L12.8778562,15.4615385 L11.1221438,15.4615385 L11.1221438,13.2785863 L4.93094758,13.2785863 Z M7.38709677,9.23076923 L7.38709677,3 L16.6129032,3 L16.6129032,9.23076923 L7.38709677,9.23076923 Z" id="path-1"></path>
    </defs>
    <g id="Icons/24x24/General/Icon_Organigram" stroke="none" stroke-width="1" fill="none" fill-rule="evenodd">
        <mask id="mask-2" fill="white">
            <use xlink:href="#path-1"></use>
        </mask>
        <use id="Organigram" fill="#000000" fill-rule="nonzero" xlink:href="#path-1"></use>
    </g>
</svg>