<?xml version="1.0" encoding="UTF-8"?>
<svg width="24px" height="24px" viewBox="0 0 24 24" version="1.1" xmlns="http://www.w3.org/2000/svg" xmlns:xlink="http://www.w3.org/1999/xlink">
    <!-- Generator: Sketch 51.2 (57519) - http://www.bohemiancoding.com/sketch -->
    <title>Icons/24x24/General/Icon_Infographic</title>
    <desc>Created with Sketch.</desc>
    <defs>
        <path d="M4.289,19.7780173 C2.1682,17.700431 1,14.9382184 1,12 C1,9.06178161 2.1682,6.29956897 4.289,4.22198276 C6.4098,2.14439655 9.22946666,1 12.2288,1 L12.2288,2.85775862 C7.083,2.85775862 2.8964,6.95905173 2.8964,12 C2.8964,17.0409483 7.083,21.1422413 12.2288,21.1422413 C16.3912,21.1422413 19.9566666,18.4798851 21.1424666,14.7198275 L23,15.1127874 C22.4192,17.0452586 21.3008666,18.7966954 19.7476666,20.1695403 C17.6833334,21.9942528 15.0125334,23 12.2288,23 C9.22946666,23 6.4098,21.8556035 4.289,19.7780173 Z M12.1932491,17.5096965 C14.5969207,17.5096965 16.6814054,16.0555823 17.4905908,13.9350578 L19.3333334,14.3222104 C18.9019608,15.5802801 18.1217265,16.7128249 17.0715226,17.5844472 C15.7129885,18.7120557 13.9809844,19.3333334 12.1932491,19.3333334 C8.04309778,19.3333334 4.66666666,16.0435939 4.66666666,12 C4.66666666,7.95640606 8.04309778,4.66666666 12.1932491,4.66666666 L12.1932491,6.49030356 C9.07520726,6.49030356 6.53836031,8.96201558 6.53836031,12 C6.53836031,15.0379844 9.07520726,17.5096965 12.1932491,17.5096965 Z M10.028769,12.3670125 C10.028769,13.6043671 10.9837224,14.6114036 12.1577378,14.6114036 C12.8903497,14.6114036 13.5626211,14.2116323 13.9482753,13.5801595 L15.6666666,13.9709394 C15.0645738,15.433079 13.6839579,16.4 12.1577378,16.4 C10.0491011,16.4 8.33333334,14.5906542 8.33333334,12.3670125 C8.33333334,10.1426791 10.0491011,8.33333334 12.1577378,8.33333334 L12.1577378,10.1219298 C10.9837224,10.1219298 10.028769,11.1289662 10.028769,12.3670125 Z M13.8333334,10.5333333 C13.2255319,10.5333333 12.7333334,10.0405844 12.7333334,9.43368783 C12.7333334,8.82608229 13.2255319,8.33333334 13.8333334,8.33333334 C14.4411347,8.33333334 14.9333334,8.82608229 14.9333334,9.43368783 C14.9333334,10.0405844 14.4411347,10.5333333 13.8333334,10.5333333 Z M13.8333334,6.86666666 C13.2259235,6.86666666 12.7333334,6.37391771 12.7333334,5.76631217 C12.7333334,5.15870663 13.2259235,4.66666666 13.8333334,4.66666666 C14.4407431,4.66666666 14.9333334,5.15870663 14.9333334,5.76631217 C14.9333334,6.37391771 14.4407431,6.86666666 13.8333334,6.86666666 Z M13.8329788,3.2 C13.2253733,3.2 12.7333334,2.70725105 12.7333334,2.0996455 C12.7333334,1.49274895 13.2253733,1 13.8329788,1 C14.4405844,1 14.9333334,1.49274895 14.9333334,2.0996455 C14.9333334,2.70725105 14.4405844,3.2 13.8329788,3.2 Z" id="path-1"></path>
    </defs>
    <g id="Icons/24x24/General/Icon_Infographic" stroke="none" stroke-width="1" fill="none" fill-rule="evenodd">
        <mask id="mask-2" fill="white">
            <use xlink:href="#path-1"></use>
        </mask>
        <g id="Infographic" fill-rule="nonzero"></g>
        <g id="Colours/General/Black-#000000" mask="url(#mask-2)" fill="#000000">
            <rect x="0" y="0" width="24" height="24"></rect>
        </g>
    </g>
</svg>