<svg width="24" height="24" xmlns="http://www.w3.org/2000/svg" xmlns:xlink="http://www.w3.org/1999/xlink"><defs><path d="M11.913 1h.178c.353.189.54.549.67.922.713 2.043.518 5.193.668 7.856-.71-.497-2.205-.365-2.854-.044.112-2.494-.003-5.817.669-7.768.124-.36.413-.853.669-.966zm-.223 9.173c1.719-.246 3.186 1.58 2.14 3.204-.875 1.362-3.765 1.353-3.969-.921-.048-.541.297-1.337.313-1.36.288-.448.794-.819 1.516-.923zm-2.542 1.58c.038-.008.042.018.044.044-.153.798.099 1.51.446 2.02.216.315.543.499.67.79-1.652.88-3.514 1.89-5.531 2.677-.629.245-2.563 1.127-2.765.044-.134-.712.916-1.446 1.338-1.8 1.72-1.442 4.014-2.723 5.798-3.774zm5.664 0c1.882 1.02 4.017 2.316 5.798 3.775.416.34 1.487 1.01 1.383 1.756-.155 1.114-2.099.275-2.81 0-1.943-.752-3.832-1.814-5.486-2.677.123-.32.53-.517.758-.878.305-.484.462-1.112.357-1.844v-.131zM13.43 23h-2.854v-7.988c.77.385 2.146.254 2.854.044V23z" id="a"/></defs><use xlink:href="#a"/></svg>