<?xml version="1.0" encoding="UTF-8"?>
<svg width="24px" height="24px" viewBox="0 0 24 24" version="1.1" xmlns="http://www.w3.org/2000/svg" xmlns:xlink="http://www.w3.org/1999/xlink">
    <!-- Generator: Sketch 51.2 (57519) - http://www.bohemiancoding.com/sketch -->
    <title>Icons/24x24/General/Icon_Image</title>
    <desc>Created with Sketch.</desc>
    <defs>
        <path d="M20.8,18.9579488 L3.2,18.9579488 L3.2,10.895931 L3.2,5.04205113 L20.8,5.04205113 L20.8,10.895931 L20.8,18.9579488 Z M22.9266666,4.76977764 C22.78,3.81682045 21.7533334,3 20.8,3 L3.34666666,3 C2.17333334,3 1.14666667,3.88488882 1,4.76977764 L1,4.97398276 L1,10.895931 L1,19.0260173 C1,19.9789744 2.1,21 3.34666666,21 L20.8,21 C21.8266666,21 23,19.9789744 23,18.9579488 L23,10.895931 L23,5.04205113 L22.9266666,4.76977764 Z M14.933558,8.60025723 C14.933558,7.40010289 15.8825732,6.6 17.0907513,6.6 C18.2981802,6.6 19.2471954,7.47997428 19.2471954,8.60025723 C19.2471954,9.72054019 18.2981802,10.6005145 17.0907513,10.6005145 C15.8825732,10.6005145 14.933558,9.63997428 14.933558,8.60025723 Z M19.3333334,17.4 L4.66666666,17.4 L4.66666666,14.6802057 L9.06644196,7.88002572 L15.1058339,14.6802057 L19.3333334,11.9604116 L19.3333334,13.3203087 L19.3333334,17.4 Z" id="path-1"></path>
    </defs>
    <g id="Icons/24x24/General/Icon_Image" stroke="none" stroke-width="1" fill="none" fill-rule="evenodd">
        <mask id="mask-2" fill="white">
            <use xlink:href="#path-1"></use>
        </mask>
        <use id="Image" fill="#000000" fill-rule="nonzero" xlink:href="#path-1"></use>
    </g>
</svg>