<?xml version="1.0" encoding="UTF-8"?>
<svg width="24px" height="24px" viewBox="0 0 24 24" version="1.1" xmlns="http://www.w3.org/2000/svg" xmlns:xlink="http://www.w3.org/1999/xlink">
    <!-- Generator: Sketch 51.2 (57519) - http://www.bohemiancoding.com/sketch -->
    <title>Icons/24x24/General/Icon_Data</title>
    <desc>Created with Sketch.</desc>
    <defs>
        <path d="M12,8.562556 C6.81614224,8.562556 4.14252467,6.63484564 4.14252467,5.81277999 C4.14252467,4.99026636 6.81614224,3.062556 12,3.062556 C17.1843232,3.062556 19.8574753,4.99026636 19.8574753,5.81277999 C19.8574753,6.63484564 17.1843232,8.562556 12,8.562556 Z M19.8574753,12 C19.8574753,12.8220656 17.1843232,14.749776 12,14.749776 C6.81614224,14.749776 4.14252467,12.8220656 4.14252467,12 L4.14252467,8.7798322 C5.9750512,9.90115664 8.8129771,10.625112 12,10.625112 C15.1879538,10.625112 18.0249488,9.90115664 19.8574753,8.7802802 L19.8574753,12 Z M19.8574753,18.1872201 C19.8574753,19.0097336 17.1843232,20.937444 12,20.937444 C6.81614224,20.937444 4.14252467,19.0097336 4.14252467,18.1872201 L4.14252467,14.9670522 C5.9750512,16.0883766 8.8129771,16.812332 12,16.812332 C15.1879538,16.812332 18.0249488,16.0883766 19.8574753,14.9670522 L19.8574753,18.1872201 Z M12,1 C6.48566374,1 2,3.1597703 2,5.81277999 L2,18.1872201 C2,20.8402297 6.48566374,23 12,23 C17.5143362,23 22,20.8402297 22,18.1872201 L22,5.81277999 C22,3.1597703 17.5143362,1 12,1 Z" id="path-1"></path>
    </defs>
    <g id="Icons/24x24/General/Icon_Data" stroke="none" stroke-width="1" fill="none" fill-rule="evenodd">
        <mask id="mask-2" fill="white">
            <use xlink:href="#path-1"></use>
        </mask>
        <g id="Data" fill-rule="nonzero"></g>
        <g id="Colours/General/Black-#000000" mask="url(#mask-2)" fill="#000000">
            <rect x="0" y="0" width="24" height="24"></rect>
        </g>
    </g>
</svg>