<svg width="24" height="24" xmlns="http://www.w3.org/2000/svg" xmlns:xlink="http://www.w3.org/1999/xlink"><defs><path d="M14.36 9.085l-.218 1.11h-3.635c-.006.108-.006.254-.006.423 0 .168.006.345.015.52h3.432l-.217 1.11h-3.078c.115.515.29.912.52 1.203.448.56 1.033.842 1.756.842.867 0 1.554-.282 2.066-.842v2.191c-.585.306-1.264.467-2.046.467-1.315 0-2.39-.476-3.235-1.433-.58-.65-.955-1.455-1.143-2.427h-.996l.216-1.11h.665c-.006-.115-.006-.24-.006-.369 0-.222.006-.413.013-.582h-.888l.216-1.11h.802c.188-.95.564-1.746 1.127-2.382.853-.965 1.965-1.448 3.353-1.448.758 0 1.416.146 1.973.437l-.398 1.983c-.382-.406-.939-.606-1.677-.606-.736 0-1.328.277-1.783.836a2.854 2.854 0 0 0-.55 1.18h3.721v.007zM12.002 2C5.928 2 1 5.898 1 10.693c0 2.138 1.525 4.574 3.143 6.09L2.569 22l4.775-3.433c1.415.52 2.99.828 4.653.828 6.075 0 11.003-3.891 11.003-8.693C23.007 5.898 18.08 2 12.003 2z" id="a"/></defs><use fill="#010202" xlink:href="#a"/></svg>