<svg width="24" height="24" xmlns="http://www.w3.org/2000/svg" xmlns:xlink="http://www.w3.org/1999/xlink"><defs><path d="M4.289 19.778C2.169 17.7 1 14.938 1 12c0-2.938 1.168-5.7 3.289-7.778C6.409 2.144 9.229 1 12.229 1v1.858c-5.146 0-9.333 4.101-9.333 9.142 0 5.04 4.187 9.142 9.333 9.142 4.162 0 7.728-2.662 8.913-6.422l1.858.393a10.963 10.963 0 0 1-3.252 5.057 11.338 11.338 0 0 1-7.52 2.83C9.23 23 6.41 21.856 4.29 19.778zm7.904-2.268c2.404 0 4.488-1.454 5.298-3.575l1.842.387a7.344 7.344 0 0 1-2.261 3.262 7.647 7.647 0 0 1-4.879 1.75c-4.15 0-7.526-3.29-7.526-7.334s3.376-7.333 7.526-7.333V6.49c-3.118 0-5.655 2.472-5.655 5.51s2.537 5.51 5.655 5.51zm-2.164-5.143c0 1.237.955 2.244 2.129 2.244.732 0 1.405-.4 1.79-1.03l1.719.39c-.602 1.462-1.983 2.429-3.51 2.429-2.108 0-3.824-1.81-3.824-4.033 0-2.224 1.716-4.034 3.825-4.034v1.789c-1.174 0-2.13 1.007-2.13 2.245zm3.804-1.834a1.1 1.1 0 1 1 0-2.2 1.1 1.1 0 0 1 0 2.2zm0-3.666a1.1 1.1 0 1 1 .001-2.201 1.1 1.1 0 0 1 0 2.2zm0-3.667a1.1 1.1 0 1 1 0-2.2 1.1 1.1 0 0 1 0 2.2z" id="a"/></defs><use xlink:href="#a"/></svg>