<?xml version="1.0" encoding="UTF-8"?>
<svg width="24px" height="24px" viewBox="0 0 24 24" version="1.1" xmlns="http://www.w3.org/2000/svg" xmlns:xlink="http://www.w3.org/1999/xlink">
    <!-- Generator: Sketch 51.2 (57519) - http://www.bohemiancoding.com/sketch -->
    <title>Icons/24x24/General/Icon_Global</title>
    <desc>Created with Sketch.</desc>
    <defs>
        <path d="M3.12292857,9.767 L3.12292857,9.017625 C3.38417857,5.57875 4.71146429,3.264625 6.71257143,1.5891875 C6.99553571,1.875875 7.34364286,2.1405625 7.56078571,2.51525 C5.66825,4.1686875 4.21,6.7695 4.42782143,10.186375 C4.75421429,14.8153125 8.80121429,18.760875 13.9135714,18.4081875 C16.0456429,18.2761875 17.5032143,17.438125 18.8956429,16.4020625 C18.6343929,16.049375 18.308,15.7186875 17.9381786,15.454 C16.0015357,17.2614375 12.2598929,17.526125 9.75732143,16.203375 C7.47257143,15.0133125 5.51489286,12.4118125 5.75442857,8.8629375 C5.99396429,5.137375 8.66957143,2.4485625 11.9335,1.8311875 C15.8278214,1.1038125 19.1134643,3.528625 20.2880714,6.438125 C21.3323929,9.0389375 20.7664643,12.5438125 19.2220357,14.19725 C19.8096786,14.858625 20.4624643,15.432 20.9842857,16.159375 C19.0476429,18.2315 16.5023214,20.0169375 12.4777143,19.70825 C9.73628571,19.5095625 7.53907143,18.2315 5.99396429,16.6220625 C4.38371429,14.924625 3.29596429,12.7205 3.16567857,9.811 C3.16567857,9.789 3.16567857,9.767 3.12225,9.767 L3.12292857,9.767 Z M11.06425,4.0573125 C12.0868571,4.3 11.6953214,5.3580625 11.1945357,5.88675 C10.4548929,6.658125 8.03985714,7.1435 9.80210714,8.090875 C9.93239286,8.81825 10.4114643,8.66425 11.1076786,8.73025 C11.9341786,8.79625 13.0443214,9.0829375 13.3266071,9.8543125 C13.6095714,10.6036875 13.0870714,11.44175 12.7606786,12.1024375 C12.4342857,12.7418125 12.2822857,13.4911875 11.9341786,13.909875 C11.7380714,14.1305625 11.3899643,14.3065625 11.1511071,14.2405625 C10.3680357,14.041875 10.8681429,12.2344375 10.6068929,11.198375 C10.4766071,10.603 9.99753571,10.2943125 10.0409643,9.655625 C10.0626786,9.3909375 10.2805,9.1929375 10.1929643,8.97225 C9.67046429,8.6195625 8.95253571,8.5755625 8.51757143,8.134875 C8.25632143,7.8921875 8.21289286,7.5395 7.8865,7.3415 C6.99417857,9.7663125 7.99507143,12.323125 9.25721429,13.579875 C10.2581071,14.5939375 11.8459643,15.3653125 13.6523214,15.2333125 C17.0031071,15.012625 19.5701429,12.081125 18.9390714,8.1795625 C18.72125,8.2455625 18.4389643,8.2015625 18.2428571,8.2675625 C18.2862857,8.75225 18.3297143,9.1269375 18.2645714,9.6563125 C17.3946429,10.2076875 17.7644643,12.059125 16.54575,12.279125 C15.9146786,11.50775 16.54575,9.611625 15.8929643,9.0169375 C15.3270357,8.53225 14.0221429,9.0829375 14.0655714,8.090875 C14.109,7.2088125 15.7626786,7.0328125 16.0022143,6.3494375 C15.8936429,6.2174375 15.458,6.3934375 15.3928571,6.2174375 C15.4797143,5.3580625 16.1325,5.049375 17.0031071,4.9606875 C15.9370714,3.7039375 12.9126786,3.06525 11.0635714,4.056625 L11.06425,4.0573125 Z M18.2435357,22.9264375 L8.34453571,22.9264375 C8.6275,21.6256875 10.4983214,21.934375 12.0217143,21.890375 C12.0434286,21.5376875 11.9565714,21.075 12.0651429,20.7883125 L14.6104643,20.7883125 L14.6104643,21.890375 C16.1114643,21.934375 18.0046786,21.6036875 18.2435357,22.9264375 Z" id="path-1"></path>
    </defs>
    <g id="Icons/24x24/General/Icon_Global" stroke="none" stroke-width="1" fill="none" fill-rule="evenodd">
        <mask id="mask-2" fill="white">
            <use xlink:href="#path-1"></use>
        </mask>
        <use id="Mask" fill="#000000" fill-rule="nonzero" xlink:href="#path-1"></use>
    </g>
</svg>