<?xml version="1.0" encoding="UTF-8"?>
<svg width="24px" height="24px" viewBox="0 0 24 24" version="1.1" xmlns="http://www.w3.org/2000/svg" xmlns:xlink="http://www.w3.org/1999/xlink">
    <!-- Generator: Sketch 51.2 (57519) - http://www.bohemiancoding.com/sketch -->
    <title>Icons/24x24/General/Icon_Budget</title>
    <desc>Created with Sketch.</desc>
    <defs>
        <path d="M12.8461539,2.30042195 C11.6335829,2.60503732 10.6568868,3.13980656 10.0645791,4.04688348 C7.78620376,4.45472963 4.74254595,4.37857578 2.64762877,3.69657578 C2.12695712,3.52734502 1,3.13303732 1,2.64903732 C1,2.06180656 2.55327887,1.62349886 3.21372816,1.45257579 C6.19273883,0.68088348 10.864806,0.853498865 12.8461539,2.30042195 Z M11.1538462,4.37699063 C12.1575563,3.17188258 14.1022449,3.00903013 16.1520516,2.76046588 C18.0645264,2.52732976 20.3279607,2.91988985 21.7996169,3.51815829 C22.223481,3.68958192 23,4.03071492 23,4.42670348 C22.9983046,5.04211428 21.0993934,5.60781223 20.5008972,5.74152265 C18.4036177,6.20608067 15.6942784,6.18722406 13.6529489,5.69009556 C12.6373705,5.44324555 11.5895785,5.21010943 11.1538462,4.37699063 Z M1,4.38461539 C3.00443932,5.57779186 6.52664337,5.86666617 9.46153846,5.38939557 L9.46153846,7.55684998 C6.44910539,7.99644131 2.67943969,7.85110703 1,6.18245422 L1,4.38461539 Z M11.1538462,6.07692308 C14.1352962,7.64389526 19.9968439,7.72816035 22.9563343,6.07692308 C22.8499142,6.52693453 23.0948493,7.24767002 22.9563343,7.76760358 C22.7654539,8.47758183 21.2603707,8.88635717 20.4157673,9.08895198 C17.3785733,9.81865183 12.6454158,9.52641331 11.1538462,7.76760358 L11.1538462,6.07692308 Z M1,7.76923076 C3.04403318,8.97332786 6.55798851,9.28331118 9.46153846,8.77264501 L9.46153846,10.9371529 C6.46395309,11.3779384 2.64974429,11.2507198 1,9.56462553 L1,7.76923076 Z M11.1538462,9.46153846 C14.0664515,11.0402983 20.0115435,11.1370668 22.9005104,9.46153846 C22.8785603,9.88624458 23.0929956,10.6030481 22.9511644,11.1514029 C22.76881,11.8520784 21.289713,12.2749925 20.4623642,12.4721135 C17.4163699,13.1960851 12.7021703,12.9183237 11.1538462,11.2051631 L11.1538462,9.46153846 Z M11.1538462,12.8461539 C14.0257502,14.4109042 20.0847052,14.4700827 22.9413601,12.8461539 C23.0582695,13.3248038 22.9583035,14.0262437 22.9921903,14.5901803 C22.3534246,15.3177284 21.2978516,15.5805507 20.144007,15.8207459 C19.1172378,16.0365735 17.6990764,16.4125314 16.4486544,16.1288225 C16.1199528,16.053979 15.7641416,15.6606157 15.3490287,15.4621936 C14.190101,14.9087002 12.6668906,14.6667643 11.1538462,14.4874882 L11.1538462,12.8461539 Z M9.18278911,16.2698858 C11.16137,16.1396443 13.3417086,16.323719 14.9812011,16.9870825 C15.5305243,17.2093614 16.2358282,17.5427797 16.2307419,17.9074559 C16.2188738,18.5239326 14.2775926,19.1108877 13.7316603,19.2376561 C11.5547126,19.7499394 9.00815858,19.732574 6.88376964,19.2376561 C6.13947056,19.0657372 4.39655609,18.5239326 4.384688,17.9074559 C4.3728199,17.2892429 5.819032,16.8933086 6.38361421,16.7300725 C7.43648376,16.4279122 8.17569651,16.3358748 9.18278911,16.2698858 Z M4.38461539,19.6153846 C7.35505499,21.2251073 13.2552432,21.2073006 16.2307692,19.6153846 L16.2307692,21.3479732 C13.7927029,23.5381933 6.81589986,23.5631226 4.38461539,21.3479732 L4.38461539,19.6153846 Z" id="path-1"></path>
    </defs>
    <g id="Icons/24x24/General/Icon_Budget" stroke="none" stroke-width="1" fill="none" fill-rule="evenodd">
        <mask id="mask-2" fill="white">
            <use xlink:href="#path-1"></use>
        </mask>
        <g id="Budget" fill-rule="nonzero"></g>
        <g id="Colours/General/Black-#000000" mask="url(#mask-2)" fill="#000000">
            <rect x="0" y="0" width="24" height="24"></rect>
        </g>
    </g>
</svg>