<?xml version="1.0" encoding="UTF-8"?>
<svg width="24px" height="24px" viewBox="0 0 24 24" version="1.1" xmlns="http://www.w3.org/2000/svg" xmlns:xlink="http://www.w3.org/1999/xlink">
    <!-- Generator: Sketch 51.2 (57519) - http://www.bohemiancoding.com/sketch -->
    <title>Icons/24x24/General/Icon_Edit</title>
    <desc>Created with Sketch.</desc>
    <defs>
        <path d="M18.2718477,7.80586037 L19.920712,9.40714285 C20.0264294,9.51190476 20.0264294,9.66904762 19.920712,9.77380953 L13.1019403,16.5309524 C13.0490816,16.5833334 13.0490816,16.5833334 12.9962229,16.5833334 L9.08467951,17.8404762 C8.87324473,17.8928572 8.71466864,17.7357143 8.76752734,17.5261905 L10.036136,13.65 C10.036136,13.5976191 10.0889947,13.5976191 10.0889947,13.5452381 L14.7934185,8.88333334 L16.4848968,7.25952381 L16.6860867,7.06015221 L16.6860867,2.57142857 L9.55016296,2.57142857 L9.55016296,4.98095238 C9.55016296,5.81904762 8.75728254,6.5 7.96440211,6.5 L5.58576085,6.5 L5.58576085,21.4285715 L16.6860867,21.4285715 L16.6860867,14.3047619 L18.2718477,12.7333334 L18.2718477,21.4285715 C18.2718477,22.1619047 17.4261085,23 16.6860867,23 L5.69147824,23 C4.79288042,23 4,22.2142857 4,21.4809524 L4,4.82380953 L7.96440211,1 L16.6332281,1 C17.4789672,1 18.2718477,1.78571429 18.2718477,2.57142857 L18.2718477,7.80586037 Z" id="path-1"></path>
    </defs>
    <g id="Icons/24x24/General/Icon_Edit" stroke="none" stroke-width="1" fill="none" fill-rule="evenodd">
        <mask id="mask-2" fill="white">
            <use xlink:href="#path-1"></use>
        </mask>
        <use id="Edit" fill="#000000" fill-rule="nonzero" xlink:href="#path-1"></use>
    </g>
</svg>